<svg width="25" height="24" viewBox="0 0 25 24" fill="none" xmlns="http://www.w3.org/2000/svg">
<path d="M19.6013 0H5.29905C2.62039 0 0.45166 2.169 0.45166 4.848V19.155C0.45166 21.831 2.62039 24 5.29905 24H19.6043C22.2799 24 24.4517 21.831 24.4517 19.152V4.848C24.4487 2.169 22.2799 0 19.6013 0Z" fill="#4C4C4C"/>
<path d="M12.3483 5.51385L12.8343 4.67385C13.1342 4.14885 13.8031 3.97185 14.3281 4.27185C14.853 4.57185 15.03 5.24085 14.73 5.76585L10.0476 13.8718H13.4342C14.5321 13.8718 15.147 15.1618 14.67 16.0558H4.74128C4.13535 16.0558 3.64941 15.5698 3.64941 14.9638C3.64941 14.3578 4.13535 13.8718 4.74128 13.8718H7.52493L11.0885 7.69485L9.97562 5.76285C9.67566 5.23785 9.85264 4.57485 10.3776 4.26885C10.9025 3.96885 11.5654 4.14585 11.8714 4.67085L12.3483 5.51385ZM8.13685 17.1808L7.08698 19.0018C6.78702 19.5268 6.11811 19.7038 5.59317 19.4038C5.06824 19.1038 4.89126 18.4348 5.19122 17.9098L5.97112 16.5598C6.85301 16.2868 7.56992 16.4968 8.13685 17.1808ZM17.1777 13.8778H20.0184C20.6243 13.8778 21.1102 14.3638 21.1102 14.9698C21.1102 15.5758 20.6243 16.0618 20.0184 16.0618H18.4406L19.5054 17.9098C19.8054 18.4348 19.6284 19.0978 19.1035 19.4038C18.5785 19.7038 17.9156 19.5268 17.6097 19.0018C15.8159 15.8908 14.4691 13.5628 13.5752 12.0118C12.6603 10.4338 13.3142 8.84985 13.9591 8.31285C14.676 9.54285 15.7469 11.3998 17.1777 13.8778Z" fill="white"/>
</svg>
