<svg width="22" height="24" viewBox="0 0 22 24" fill="none" xmlns="http://www.w3.org/2000/svg">
<path d="M0.885731 0.375681C0.581094 0.741177 0.427038 1.20895 0.454868 1.68394V22.3184C0.428613 22.7931 0.582483 23.2604 0.885731 23.6266L0.956236 23.6971L12.5112 12.1343V11.8601L0.956236 0.305176L0.885731 0.375681Z" fill="#A5B2BC"/>
<path d="M16.3655 15.9886L12.5112 12.1343V11.8601L16.3655 8.01367L16.4517 8.06068L21.0188 10.6537C22.3271 11.3901 22.3271 12.6043 21.0188 13.3485L16.4517 15.9416L16.3655 15.9886Z" fill="#B9B9B9"/>
<path d="M16.4517 15.9423L12.5347 12.0254L0.885742 23.6274C1.15425 23.8481 1.48855 23.9733 1.83601 23.9832C2.18347 23.9932 2.52437 23.8873 2.80504 23.6822L16.4282 15.9423" fill="#363636"/>
<path d="M16.4517 8.061L2.80504 0.313301C2.52738 0.099829 2.18422 -0.0106244 1.83416 0.000805904C1.48411 0.0122362 1.14889 0.144841 0.885742 0.375972L12.5112 12.0014L16.4517 8.061Z" fill="#585858"/>
<path opacity="0.1" d="M16.3655 15.8555L2.80511 23.5483C2.53461 23.7499 2.20629 23.8588 1.86896 23.8588C1.53163 23.8588 1.2033 23.7499 0.93281 23.5483L0.862305 23.6188L0.93281 23.6893C1.2033 23.8909 1.53163 23.9998 1.86896 23.9998C2.20629 23.9998 2.53461 23.8909 2.80511 23.6893L16.4282 15.9495L16.3655 15.8555Z" fill="black"/>
<path opacity="0.07" d="M0.885498 23.5016C0.581743 23.1326 0.427935 22.6628 0.454634 22.1855V22.3187C0.428379 22.7935 0.58225 23.2607 0.885498 23.627L0.956003 23.5565L0.885498 23.5016Z" fill="black"/>
<path opacity="0.07" d="M21.019 13.208L16.3657 15.8558L16.4519 15.942L21.019 13.3176C21.2869 13.1998 21.5187 13.013 21.6908 12.7763C21.8628 12.5396 21.9689 12.2614 21.9983 11.9702C21.9448 12.2394 21.8282 12.492 21.6579 12.7072C21.4877 12.9224 21.2687 13.094 21.019 13.208Z" fill="black"/>
<path opacity="0.3" d="M2.80475 0.453982L21.0185 10.7869C21.2657 10.898 21.4832 11.0659 21.6534 11.2769C21.8235 11.4878 21.9415 11.736 21.9977 12.0011C21.97 11.7094 21.8645 11.4306 21.6923 11.1936C21.52 10.9566 21.2874 10.7701 21.0185 10.6537L2.80475 0.312972C1.52 -0.423412 0.45459 0.18763 0.45459 1.6839V1.81708C0.45459 0.32864 1.52 -0.290237 2.80475 0.453982Z" fill="white"/>
</svg>
