<svg width="65" height="70" viewBox="0 0 65 70" fill="none" xmlns="http://www.w3.org/2000/svg">
<path d="M24.8113 14.3835C24.1923 14.3835 23.6855 13.8749 23.6855 13.2537C23.6703 12.2123 22.1167 12.2123 22.1014 13.2537C22.1014 14.4779 22.9087 15.498 24.0193 15.8391V16.2928C24.0193 16.7313 24.3774 17.0876 24.8113 17.0876C25.2483 17.0876 25.6033 16.7283 25.6033 16.2928V15.8391C26.714 15.498 27.5212 14.4718 27.5212 13.2537C27.4332 11.0581 25.9917 11.049 24.7476 10.4369C23.9617 10.1262 23.6855 9.95876 23.6855 9.39542C23.6855 8.77419 24.1923 8.26566 24.8113 8.26566C25.4304 8.26566 25.9371 8.77421 25.9371 9.39542C25.9523 10.4369 27.506 10.4369 27.5212 9.39542C27.5212 8.17125 26.714 7.1511 25.6033 6.81004V6.3563C25.6033 5.91779 25.2452 5.56152 24.8113 5.56152C24.3743 5.56152 24.0193 5.92086 24.0193 6.3563V6.81004C22.9087 7.1511 22.1014 8.17733 22.1014 9.39542C22.1014 11.0886 23.4397 11.6306 24.171 11.9169C24.9327 12.3158 26.0495 12.3615 25.9463 13.2537C25.9463 13.8749 25.4395 14.3835 24.8205 14.3835H24.8113Z" fill="#1A237E"/>
<path d="M15.8526 21.4778H33.292C34.3298 21.4626 34.339 19.9035 33.292 19.8882H15.8526C14.8148 19.9034 14.8056 21.4625 15.8526 21.4778Z" fill="#1A237E"/>
<path d="M7.13507 26.2527H40.4268C41.4586 26.2375 41.4798 24.6784 40.4268 24.6631H7.13507C6.10334 24.6783 6.08206 26.2374 7.13507 26.2527Z" fill="#1A237E"/>
<path d="M7.13499 30.2303H30.125C31.1567 30.215 31.1719 28.6559 30.125 28.6406H7.13499C6.10326 28.6559 6.08803 30.215 7.13499 30.2303Z" fill="#1A237E"/>
<path d="M7.13505 55.6848H29.1478C30.1856 55.6696 30.1947 54.1105 29.1478 54.0952H7.13505C6.09727 54.1104 6.0881 55.6696 7.13505 55.6848Z" fill="#1A237E"/>
<path d="M15.0608 38.9797H30.2886C30.7256 38.9797 31.0806 38.6204 31.0806 38.1849C31.0806 37.7464 30.7225 37.3901 30.2886 37.3901H15.0608C14.023 37.4054 14.0139 38.9644 15.0608 38.9797Z" fill="#1A237E"/>
<path d="M11.0978 33.4126H8.71867C7.68088 33.4278 7.67172 34.9869 8.71867 35.0022H11.0978C12.1356 34.987 12.1447 33.4279 11.0978 33.4126Z" fill="#1A237E"/>
<path d="M11.0978 41.3667H8.71867C7.68088 41.3819 7.67172 42.941 8.71867 42.9563H11.0978C12.1356 42.9411 12.1447 41.382 11.0978 41.3667Z" fill="#1A237E"/>
<path d="M11.0978 45.3442H8.71867C7.68088 45.3595 7.67172 46.9186 8.71867 46.9339H11.0978C12.1356 46.9186 12.1447 45.3595 11.0978 45.3442Z" fill="#1A237E"/>
<path d="M11.0978 49.3208H8.71867C7.68088 49.336 7.67172 50.8952 8.71867 50.9104H11.0978C12.1356 50.8952 12.1447 49.3361 11.0978 49.3208Z" fill="#1A237E"/>
<path d="M11.0978 37.3892H8.71867C7.68088 37.4044 7.67172 38.9635 8.71867 38.9788H11.0978C12.1356 38.9636 12.1447 37.4044 11.0978 37.3892Z" fill="#1A237E"/>
<path d="M61.0372 27.8425H51.524V4.77178C51.524 4.33327 51.1659 3.977 50.732 3.977H47.5609V0.794777C47.5609 0.356266 47.2028 0 46.7689 0H0.791995C0.355019 0 0 0.359338 0 0.794777V62.046C0 62.4845 0.35808 62.8408 0.791995 62.8408H3.96308V66.023C3.96308 66.4615 4.32116 66.8178 4.75508 66.8178H33.371C33.7351 68.6327 35.3374 70 37.2552 70H61.0368C63.2248 70 65 68.2185 65 66.0229V31.8159C65 29.6203 63.2248 27.8389 61.0368 27.8389L61.0372 27.8425ZM49.94 5.57006V27.8425H47.5609V5.57006H49.94ZM1.58438 1.59298H45.9773V27.8428H37.2587C35.0708 27.8428 33.2956 29.6243 33.2956 31.8199V33.4095H15.0638C14.6268 33.4095 14.2718 33.7689 14.2718 34.2043C14.2718 34.6428 14.6298 34.9991 15.0638 34.9991H33.2956V41.3636H15.0638C14.6268 41.3636 14.2718 41.723 14.2718 42.1584C14.2718 42.5969 14.6298 42.9532 15.0638 42.9532H33.2956V45.3406H15.0638C14.6268 45.3406 14.2718 45.7 14.2718 46.1354C14.2718 46.5739 14.6298 46.9302 15.0638 46.9302H33.2956V49.3176H15.0638C14.6268 49.3176 14.2718 49.677 14.2718 50.1124C14.2718 50.5509 14.6298 50.9072 15.0638 50.9072H33.2956V61.249L1.58469 61.2521L1.58438 1.59298ZM5.54754 62.8442H33.2926V65.2317H5.54754V62.8442ZM63.4164 66.0264C63.4164 67.3389 62.3452 68.4139 61.0373 68.4139H37.2557C35.9478 68.4139 34.8766 67.3389 34.8766 66.0264V31.8194C34.8766 30.507 35.9478 29.432 37.2557 29.432H61.0373C62.3452 29.432 63.4164 30.507 63.4164 31.8194V66.0264Z" fill="#1A237E"/>
<path d="M60.2455 31.8198H38.051C37.6141 31.8198 37.259 32.1792 37.259 32.6146V38.9791C37.259 39.4176 37.6171 39.7739 38.051 39.7739H60.2455C60.6825 39.7739 61.0375 39.4146 61.0375 38.9791V32.6146C61.0375 32.1761 60.6794 31.8198 60.2455 31.8198ZM59.4535 38.1844H38.843V33.4125H59.4535V38.1844Z" fill="#1A237E"/>
<path d="M60.2454 59.6621H55.4902C55.0533 59.6621 54.6982 60.0214 54.6982 60.4569V65.2287C54.6982 65.6672 55.0563 66.0235 55.4902 66.0235H60.2454C60.6824 66.0235 61.0374 65.6642 61.0374 65.2287V60.4569C61.0374 60.0184 60.6793 59.6621 60.2454 59.6621ZM59.4534 64.434H56.2823V61.2517H59.4534V64.434Z" fill="#1A237E"/>
<path d="M42.8062 59.6621H38.051C37.6141 59.6621 37.259 60.0214 37.259 60.4569V65.2287C37.259 65.6672 37.6171 66.0235 38.051 66.0235H42.8062C43.2432 66.0235 43.5982 65.6642 43.5982 65.2287V60.4569C43.5982 60.0184 43.2401 59.6621 42.8062 59.6621ZM42.0142 64.434H38.8431V61.2517H42.0142V64.434Z" fill="#1A237E"/>
<path d="M51.5237 59.6621H46.7686C46.3316 59.6621 45.9766 60.0214 45.9766 60.4569V65.2287C45.9766 65.6672 46.3346 66.0235 46.7686 66.0235H51.5237C51.9607 66.0235 52.3157 65.6642 52.3157 65.2287V60.4569C52.3157 60.0184 51.9576 59.6621 51.5237 59.6621ZM50.7317 64.434H47.5606V61.2517H50.7317V64.434Z" fill="#1A237E"/>
<path d="M42.8062 50.9097H38.051C37.6141 50.9097 37.259 51.269 37.259 51.7044V56.4763C37.259 56.9148 37.6171 57.2711 38.051 57.2711H42.8062C43.2432 57.2711 43.5982 56.9117 43.5982 56.4763V51.7044C43.5982 51.2659 43.2401 50.9097 42.8062 50.9097ZM42.0142 55.6846H38.8431V52.5023H42.0142V55.6846Z" fill="#1A237E"/>
<path d="M51.5237 50.9097H46.7686C46.3316 50.9097 45.9766 51.269 45.9766 51.7044V56.4763C45.9766 56.9148 46.3346 57.2711 46.7686 57.2711H51.5237C51.9607 57.2711 52.3157 56.9117 52.3157 56.4763V51.7044C52.3157 51.2659 51.9576 50.9097 51.5237 50.9097ZM50.7317 55.6846H47.5606V52.5023H50.7317V55.6846Z" fill="#1A237E"/>
<path d="M60.2454 50.9097H55.4902C55.0533 50.9097 54.6982 51.269 54.6982 51.7044V56.4763C54.6982 56.9148 55.0563 57.2711 55.4902 57.2711H60.2454C60.6824 57.2711 61.0374 56.9117 61.0374 56.4763V51.7044C61.0374 51.2659 60.6793 50.9097 60.2454 50.9097ZM59.4534 55.6846H56.2823V52.5023H59.4534V55.6846Z" fill="#1A237E"/>
<path d="M60.2454 42.1616H55.4902C55.0533 42.1616 54.6982 42.521 54.6982 42.9564V47.7283C54.6982 48.1668 55.0563 48.523 55.4902 48.523H60.2454C60.6824 48.523 61.0374 48.1637 61.0374 47.7283V42.9564C61.0374 42.5179 60.6793 42.1616 60.2454 42.1616ZM59.4534 46.9335H56.2823V43.7513H59.4534V46.9335Z" fill="#1A237E"/>
<path d="M42.8062 42.1616H38.051C37.6141 42.1616 37.259 42.521 37.259 42.9564V47.7283C37.259 48.1668 37.6171 48.523 38.051 48.523H42.8062C43.2432 48.523 43.5982 48.1637 43.5982 47.7283V42.9564C43.5982 42.5179 43.2401 42.1616 42.8062 42.1616ZM42.0142 46.9335H38.8431V43.7513H42.0142V46.9335Z" fill="#1A237E"/>
<path d="M51.5237 42.1616H46.7686C46.3316 42.1616 45.9766 42.521 45.9766 42.9564V47.7283C45.9766 48.1668 46.3346 48.523 46.7686 48.523H51.5237C51.9607 48.523 52.3157 48.1637 52.3157 47.7283V42.9564C52.3157 42.5179 51.9576 42.1616 51.5237 42.1616ZM50.7317 46.9335H47.5606V43.7513H50.7317V46.9335Z" fill="#1A237E"/>
</svg>
