<svg width="96" height="70" viewBox="0 0 96 70" fill="none" xmlns="http://www.w3.org/2000/svg">
<path d="M88.362 0V2.98928H93V10.2757H3V2.98928H79.8855V0H0V10.2757V13.2649V70H96V13.2649V10.2757V0H88.362ZM14.349 56.5796L20.808 45.4311L33.3885 49.0182L33.975 48.6072C35.0655 47.8434 36.2865 47.1499 37.7115 46.4878L38.358 46.1859L41.5395 33.5054H54.459L57.6405 46.1859L58.2885 46.4863C59.7105 47.1469 60.9345 47.8405 62.0265 48.6072L62.613 49.0167L75.1905 45.4296L81.6525 56.5796L72.165 65.7179L72.2265 66.4278C72.2445 66.6236 72.2715 66.8164 72.297 67.0107H58.539C57.807 61.8632 53.3685 57.8874 48.003 57.8874C42.6375 57.8874 38.1975 61.8617 37.4655 67.0107H23.709C23.7345 66.8164 23.763 66.6236 23.7795 66.4278L23.8425 65.7179L14.349 56.5796ZM55.503 67.0107H40.4955C41.1945 63.5177 44.292 60.8767 48 60.8767C51.708 60.8767 54.804 63.5177 55.503 67.0107ZM93 67.0107H75.3165C75.312 66.9808 75.309 66.9479 75.3045 66.9195C75.3015 66.8986 75.2985 66.8792 75.2955 66.8568L85.4205 57.1057L76.6155 41.9157L63.15 45.7554C62.2485 45.1636 61.2765 44.6135 60.2055 44.0889L56.802 30.5161H39.1965L35.7915 44.0889C34.719 44.6165 33.747 45.1665 32.8485 45.7554L19.3815 41.9157L10.581 57.1072L20.7045 66.8568C20.703 66.8792 20.7 66.8986 20.697 66.9195C20.694 66.9479 20.6895 66.9808 20.6865 67.0107H3V13.2649H93V67.0107Z" fill="#1A237E"/>
</svg>
