<svg width="80" height="80" viewBox="0 0 80 80" fill="none" xmlns="http://www.w3.org/2000/svg">
<path d="M69.9299 26.3481L78.3895 17.8811C78.8009 17.4693 78.9655 16.8927 78.8338 16.3326C78.7022 15.7725 78.2907 15.3277 77.7476 15.1465L68.0536 11.9178L64.8278 2.21534C64.6468 1.67174 64.2024 1.25991 63.6428 1.12818C63.0832 0.996447 62.5072 1.16112 62.0957 1.57295L53.6361 10.04C49.3569 8.06322 44.765 7.0584 39.9922 7.0584C21.8389 7.0584 7.07532 21.835 7.07532 40.0042C7.07532 44.7978 8.07928 49.3772 10.0543 53.6601L1.59469 62.1271C1.18323 62.5389 1.01864 63.1155 1.1503 63.6756C1.28197 64.2357 1.69343 64.6805 2.23651 64.8617L11.9305 68.0904L15.1563 77.7929C15.3374 78.3365 15.7818 78.7483 16.3414 78.88C16.473 78.913 16.5882 78.9294 16.7199 78.9294C17.1478 78.9294 17.5757 78.7647 17.8885 78.4517L26.3481 69.9847C30.6272 71.9615 35.2192 72.9663 39.992 72.9663C58.1452 72.9663 72.9088 58.1897 72.9088 40.0205C72.9088 35.2269 71.9049 30.6474 69.9299 26.3646L69.9299 26.3481ZM10.3667 40.004C10.3667 23.6629 23.6651 10.3528 39.9919 10.3528C43.8761 10.3528 47.6122 11.0941 51.1341 12.5437L45.9332 17.7491C43.9911 17.222 41.9996 16.9584 39.9753 16.9584C27.27 16.9584 16.9335 27.3034 16.9335 40.0205C16.9335 42.0301 17.2133 44.0398 17.7235 45.9836L12.5227 51.189C11.0743 47.6638 10.3337 43.9245 10.3337 40.037L10.3667 40.004ZM17.4273 74.235L14.7776 66.2785C14.613 65.7843 14.2344 65.4055 13.7407 65.2407L5.79123 62.5886L26.167 42.1949C26.8089 41.5525 26.8089 40.5146 26.167 39.8722C25.5251 39.2299 24.4882 39.2298 23.8464 39.8722L20.5053 43.2163C20.3407 42.162 20.242 41.0913 20.242 40.0206C20.242 29.1153 29.0966 20.2531 39.9921 20.2531C41.0619 20.2531 42.1317 20.3519 43.185 20.5167L28.1581 35.5568C27.5162 36.1993 27.5162 37.2371 28.1581 37.8795C28.4872 38.2089 28.8987 38.3572 29.3266 38.3572C29.7546 38.3572 30.166 38.1925 30.4952 37.8795L62.5567 5.78974L65.2065 13.7462C65.3711 14.2404 65.7496 14.6192 66.2434 14.784L74.1929 17.4361L56.0881 35.5568C55.4462 36.1992 55.4462 37.2371 56.0881 37.8795C56.7299 38.5218 57.7669 38.5219 58.4087 37.8795L59.4784 36.8087C59.643 37.863 59.7418 38.9337 59.7418 40.0044C59.7418 50.9098 50.8872 59.7719 39.9917 59.7719C38.9219 59.7719 37.8521 59.6731 36.7988 59.5083L54.6234 41.6681C55.2653 41.0256 55.2653 39.9878 54.6234 39.3454C53.9815 38.703 52.9446 38.703 52.3028 39.3454L17.4436 74.2353L17.4273 74.235ZM39.992 69.6554C36.1078 69.6554 32.3717 68.9142 28.8498 67.4646L34.0506 62.2591C35.9928 62.7863 37.9842 63.0498 40.0085 63.0498C52.7139 63.0498 63.0503 52.7048 63.0503 39.9878C63.0503 37.9781 62.7705 35.9684 62.2603 34.0246L67.4612 28.8192C68.9095 32.3445 69.6501 36.0837 69.6501 39.9712C69.6501 56.3123 56.3517 69.6224 40.025 69.6224L39.992 69.6554ZM36.5028 36.5114C34.5772 38.4387 34.5772 41.5686 36.5028 43.4959C37.4574 44.4514 38.7247 44.9456 39.992 44.9456C41.2593 44.9456 42.5265 44.4678 43.4812 43.4959C45.4068 41.5686 45.4068 38.4387 43.4812 36.5114C41.5556 34.5841 38.4284 34.5841 36.5028 36.5114ZM41.1606 41.1733C40.5187 41.8157 39.4817 41.8157 38.8399 41.1733C38.1981 40.5308 38.1981 39.493 38.8399 38.8506C39.1691 38.5212 39.5806 38.3729 40.0085 38.3729C40.4365 38.3729 40.8479 38.5377 41.1771 38.8506C41.819 39.4931 41.819 40.5309 41.1771 41.1733H41.1606ZM5.33016 12.0492L7.79898 15.3767C8.04586 15.7226 8.44087 15.9038 8.85232 15.9038C8.91815 15.9038 9.00044 15.9038 9.08274 15.8873C9.57649 15.805 9.97149 15.4426 10.1196 14.9813L11.2552 11.242L14.9913 10.1053C15.4686 9.9571 15.8142 9.56175 15.8965 9.06755C15.9788 8.57335 15.7813 8.07918 15.3863 7.78261L12.0618 5.31162L11.9466 1.27579C11.9466 0.798082 11.6503 0.353308 11.2224 0.139187C10.7945 -0.0749346 10.2678 -0.0420205 9.87285 0.238024L6.6964 2.49479L2.84518 1.16051C2.36789 0.995777 1.84122 1.12756 1.4791 1.4735C1.11702 1.8359 1.00181 2.36303 1.16639 2.84077L2.49949 6.69538L0.244716 9.87462C-0.0350722 10.27 -0.0844527 10.7971 0.145965 11.2253C0.35992 11.6536 0.804303 11.9337 1.28157 11.9502L5.31386 12.0655L5.33016 12.0492ZM5.21495 6.46487L4.54016 4.53757L6.46577 5.21295C6.86077 5.34473 7.30516 5.29531 7.65078 5.04822L9.36245 3.82928L9.42829 6.0367C9.42829 6.44852 9.64224 6.81093 9.95496 7.05802L11.6995 8.35941L9.79032 8.93596C9.37887 9.06775 9.0497 9.3972 8.91803 9.80902L8.34198 11.7199L7.04173 9.9738C6.79485 9.64435 6.41631 9.44667 6.02131 9.44667L3.81583 9.38078L5.0337 7.6676C5.28058 7.32167 5.34642 6.8769 5.19829 6.48155L5.21495 6.46487ZM79.8377 68.7983C79.6238 68.37 79.1794 68.09 78.7021 68.0735L74.6698 67.9582L72.201 64.6307C71.9048 64.2354 71.411 64.0377 70.9172 64.1201C70.4234 64.2024 70.0284 64.5648 69.8803 65.0261L68.7447 68.7654L65.0086 69.9021C64.5313 70.0503 64.1857 70.4456 64.1034 70.9398C64.0211 71.434 64.2186 71.9282 64.6136 72.2248L67.9382 74.6958L68.0534 78.7316C68.0534 79.2093 68.3496 79.6541 68.7775 79.8682C68.9586 79.967 69.1726 80 69.3701 80C69.6334 80 69.9132 79.9176 70.1271 79.7529L73.3036 77.4961L77.1548 78.8304C77.6321 78.9951 78.1588 78.8634 78.5209 78.5174C78.883 78.1715 78.9982 77.6279 78.8336 77.1501L77.5005 73.2955L79.7553 70.1163C80.0351 69.7209 80.0844 69.1938 79.854 68.7656L79.8377 68.7983ZM74.7685 73.5425L75.4433 75.4698L73.5177 74.7944C73.1227 74.6627 72.6783 74.7285 72.3327 74.9592L70.621 76.1781L70.5552 73.9707C70.5552 73.5589 70.3412 73.1964 70.0285 72.9494L68.284 71.648L70.1932 71.0714C70.6046 70.9396 70.9338 70.6102 71.0655 70.1984L71.6415 68.2875L72.9417 70.0336C73.1886 70.363 73.5672 70.5607 73.9622 70.5607L76.1676 70.6266L74.9498 72.3398C74.7029 72.6857 74.6371 73.1305 74.7852 73.5258L74.7685 73.5425ZM34.1655 45.8354C34.8073 46.4778 34.8073 47.5156 34.1655 48.158C33.5236 48.8004 32.4866 48.8005 31.8448 48.158C31.203 47.5156 31.203 46.4777 31.8448 45.8354C32.4867 45.193 33.5237 45.1929 34.1655 45.8354ZM48.1391 31.8495C48.7809 32.4919 48.7809 33.5298 48.1391 34.1721C47.4972 34.8145 46.4602 34.8146 45.8184 34.1721C45.1766 33.5297 45.1766 32.4918 45.8184 31.8495C46.4603 31.2071 47.4973 31.207 48.1391 31.8495Z" fill="#1A237E"/>
</svg>
