<svg width="600" height="600" viewBox="0 0 600 600" fill="none" xmlns="http://www.w3.org/2000/svg">
<path fill-rule="evenodd" clip-rule="evenodd" d="M414.667 242.778C428.912 275.028 434.966 311.047 423.95 343.726C412.071 378.964 389.073 413.493 354.148 422.301C320.847 430.699 291.218 401.275 259.789 385.126C229.21 369.415 157.702 375.028 141.5 343.726C123.808 309.545 156.112 252.797 174.514 220.376C191.838 189.854 230.272 185.345 263.536 176.789C292.266 169.399 321.7 163.173 349.576 175.345C378.751 188.084 401.425 212.799 414.667 242.778Z" fill="#D4D8FF"/>
<g filter="url(#filter0_d_1466_1060)">
<rect x="78.4742" y="57.4742" width="221.449" height="249.443" rx="15.078" fill="white" stroke="#D5D9DC" stroke-width="0.948451"/>
<path d="M157.316 115.321C157.316 113.174 159.057 111.433 161.204 111.433C163.351 111.433 165.092 113.174 165.092 115.321L165.092 262.29C165.092 264.437 163.351 266.178 161.204 266.178C159.057 266.178 157.316 264.437 157.316 262.29L157.316 115.321Z" fill="#D4D8FF"/>
<path d="M157.316 152.646C157.316 150.499 159.057 148.758 161.204 148.758C163.351 148.758 165.092 150.499 165.092 152.646L165.092 263.067C165.092 265.215 163.351 266.955 161.204 266.955C159.057 266.955 157.316 265.215 157.316 263.067L157.316 152.646Z" fill="url(#paint0_linear_1466_1060)" fill-opacity="0.8"/>
<path d="M189.198 115.321C189.198 113.174 190.939 111.433 193.087 111.433C195.234 111.433 196.975 113.174 196.975 115.321L196.975 262.29C196.975 264.437 195.234 266.178 193.087 266.178C190.939 266.178 189.198 264.437 189.198 262.29L189.198 115.321Z" fill="#D4D8FF"/>
<g filter="url(#filter1_d_1466_1060)">
<path d="M189.198 211.745C189.198 209.597 190.939 207.857 193.087 207.857C195.234 207.857 196.975 209.597 196.975 211.745L196.975 263.067C196.975 265.214 195.234 266.955 193.087 266.955C190.939 266.955 189.198 265.214 189.198 263.067L189.198 211.745Z" fill="url(#paint1_linear_1466_1060)" fill-opacity="0.8" shape-rendering="crispEdges"/>
</g>
<path d="M220.303 115.321C220.303 113.174 222.044 111.433 224.191 111.433C226.338 111.433 228.079 113.174 228.079 115.321L228.079 262.29C228.079 264.437 226.338 266.178 224.191 266.178C222.044 266.178 220.303 264.437 220.303 262.29L220.303 115.321Z" fill="#D4D8FF"/>
<g filter="url(#filter2_d_1466_1060)">
<path d="M221.081 193.082C221.081 190.935 222.822 189.194 224.969 189.194C227.116 189.194 228.857 190.935 228.857 193.082L228.857 263.067C228.857 265.214 227.116 266.955 224.969 266.955C222.822 266.955 221.081 265.214 221.081 263.067L221.081 193.082Z" fill="url(#paint2_linear_1466_1060)" fill-opacity="0.8" shape-rendering="crispEdges"/>
</g>
<path d="M252.185 115.321C252.185 113.174 253.926 111.433 256.073 111.433C258.221 111.433 259.961 113.174 259.961 115.321L259.961 262.29C259.961 264.437 258.221 266.178 256.073 266.178C253.926 266.178 252.185 264.437 252.185 262.29L252.185 115.321Z" fill="#D4D8FF"/>
<g filter="url(#filter3_d_1466_1060)">
<path d="M252.185 163.533C252.185 161.386 253.926 159.645 256.073 159.645C258.221 159.645 259.961 161.386 259.961 163.533L259.961 263.067C259.961 265.215 258.221 266.955 256.073 266.955C253.926 266.955 252.185 265.215 252.185 263.067L252.185 163.533Z" fill="url(#paint3_linear_1466_1060)" fill-opacity="0.8" shape-rendering="crispEdges"/>
</g>
<g opacity="0.5">
<path d="M98.7807 118.655V117.382H96.0904V116.64L98.7428 113.01H99.6294V116.64H100.41V117.382H99.6294V118.655H98.7807ZM96.7497 116.965L96.6057 116.64H98.7807V113.722L99.0232 113.798L96.7497 116.965ZM103.415 118.746C102.965 118.746 102.571 118.625 102.232 118.383C101.894 118.135 101.629 117.794 101.437 117.359C101.25 116.92 101.156 116.41 101.156 115.829C101.156 115.243 101.25 114.732 101.437 114.298C101.629 113.863 101.891 113.525 102.225 113.282C102.563 113.04 102.957 112.919 103.407 112.919C103.857 112.919 104.248 113.04 104.582 113.282C104.92 113.525 105.183 113.866 105.37 114.305C105.562 114.74 105.658 115.248 105.658 115.829C105.658 116.41 105.564 116.92 105.377 117.359C105.191 117.794 104.928 118.135 104.589 118.383C104.256 118.625 103.864 118.746 103.415 118.746ZM103.415 117.928C103.693 117.928 103.933 117.842 104.135 117.67C104.337 117.498 104.493 117.256 104.604 116.943C104.716 116.629 104.771 116.258 104.771 115.829C104.771 115.399 104.716 115.028 104.604 114.715C104.493 114.401 104.337 114.159 104.135 113.987C103.933 113.815 103.69 113.729 103.407 113.729C103.129 113.729 102.889 113.815 102.687 113.987C102.485 114.159 102.328 114.401 102.217 114.715C102.106 115.028 102.051 115.399 102.051 115.829C102.051 116.253 102.106 116.624 102.217 116.943C102.328 117.256 102.485 117.498 102.687 117.67C102.894 117.842 103.137 117.928 103.415 117.928ZM108.839 118.746C108.39 118.746 107.996 118.625 107.657 118.383C107.319 118.135 107.053 117.794 106.861 117.359C106.675 116.92 106.581 116.41 106.581 115.829C106.581 115.243 106.675 114.732 106.861 114.298C107.053 113.863 107.316 113.525 107.65 113.282C107.988 113.04 108.382 112.919 108.832 112.919C109.281 112.919 109.673 113.04 110.006 113.282C110.345 113.525 110.608 113.866 110.795 114.305C110.987 114.74 111.083 115.248 111.083 115.829C111.083 116.41 110.989 116.92 110.802 117.359C110.615 117.794 110.353 118.135 110.014 118.383C109.681 118.625 109.289 118.746 108.839 118.746ZM108.839 117.928C109.117 117.928 109.357 117.842 109.559 117.67C109.761 117.498 109.918 117.256 110.029 116.943C110.14 116.629 110.196 116.258 110.196 115.829C110.196 115.399 110.14 115.028 110.029 114.715C109.918 114.401 109.761 114.159 109.559 113.987C109.357 113.815 109.115 113.729 108.832 113.729C108.554 113.729 108.314 113.815 108.112 113.987C107.91 114.159 107.753 114.401 107.642 114.715C107.531 115.028 107.475 115.399 107.475 115.829C107.475 116.253 107.531 116.624 107.642 116.943C107.753 117.256 107.91 117.498 108.112 117.67C108.319 117.842 108.562 117.928 108.839 117.928Z" fill="black"/>
<path d="M98.2817 154.272C97.9785 154.272 97.6931 154.216 97.4253 154.105C97.1626 153.994 96.9353 153.837 96.7433 153.635C96.5563 153.433 96.4225 153.196 96.3416 152.923L97.0995 152.635C97.2005 152.903 97.3546 153.11 97.5617 153.256C97.7689 153.403 98.0089 153.476 98.2817 153.476C98.504 153.476 98.696 153.433 98.8576 153.347C99.0243 153.262 99.1532 153.14 99.2441 152.984C99.3401 152.827 99.3881 152.638 99.3881 152.415C99.3881 152.198 99.3401 152.011 99.2441 151.854C99.1532 151.698 99.0243 151.579 98.8576 151.498C98.696 151.417 98.504 151.377 98.2817 151.377C98.1907 151.377 98.0973 151.385 98.0013 151.4C97.9103 151.415 97.8295 151.435 97.7588 151.46L97.5617 151.044L99.0471 149.293H96.6448V148.535H100.047V149.255L98.5924 150.998L98.5696 150.71C98.9081 150.715 99.2062 150.791 99.4639 150.938C99.7216 151.079 99.9211 151.276 100.063 151.529C100.209 151.776 100.282 152.064 100.282 152.393C100.282 152.746 100.196 153.067 100.025 153.355C99.8529 153.638 99.6155 153.863 99.3123 154.029C99.0142 154.191 98.6707 154.272 98.2817 154.272ZM103.415 154.272C102.965 154.272 102.571 154.151 102.232 153.908C101.894 153.661 101.629 153.32 101.437 152.885C101.25 152.446 101.156 151.935 101.156 151.354C101.156 150.768 101.25 150.258 101.437 149.823C101.629 149.389 101.891 149.051 102.225 148.808C102.563 148.565 102.957 148.444 103.407 148.444C103.857 148.444 104.248 148.565 104.582 148.808C104.92 149.051 105.183 149.392 105.37 149.831C105.562 150.266 105.658 150.773 105.658 151.354C105.658 151.935 105.564 152.446 105.377 152.885C105.191 153.32 104.928 153.661 104.589 153.908C104.256 154.151 103.864 154.272 103.415 154.272ZM103.415 153.454C103.693 153.454 103.933 153.368 104.135 153.196C104.337 153.024 104.493 152.782 104.604 152.468C104.716 152.155 104.771 151.784 104.771 151.354C104.771 150.925 104.716 150.554 104.604 150.24C104.493 149.927 104.337 149.685 104.135 149.513C103.933 149.341 103.69 149.255 103.407 149.255C103.129 149.255 102.889 149.341 102.687 149.513C102.485 149.685 102.328 149.927 102.217 150.24C102.106 150.554 102.051 150.925 102.051 151.354C102.051 151.779 102.106 152.15 102.217 152.468C102.328 152.782 102.485 153.024 102.687 153.196C102.894 153.368 103.137 153.454 103.415 153.454ZM108.839 154.272C108.39 154.272 107.996 154.151 107.657 153.908C107.319 153.661 107.053 153.32 106.861 152.885C106.675 152.446 106.581 151.935 106.581 151.354C106.581 150.768 106.675 150.258 106.861 149.823C107.053 149.389 107.316 149.051 107.65 148.808C107.988 148.565 108.382 148.444 108.832 148.444C109.281 148.444 109.673 148.565 110.006 148.808C110.345 149.051 110.608 149.392 110.795 149.831C110.987 150.266 111.083 150.773 111.083 151.354C111.083 151.935 110.989 152.446 110.802 152.885C110.615 153.32 110.353 153.661 110.014 153.908C109.681 154.151 109.289 154.272 108.839 154.272ZM108.839 153.454C109.117 153.454 109.357 153.368 109.559 153.196C109.761 153.024 109.918 152.782 110.029 152.468C110.14 152.155 110.196 151.784 110.196 151.354C110.196 150.925 110.14 150.554 110.029 150.24C109.918 149.927 109.761 149.685 109.559 149.513C109.357 149.341 109.115 149.255 108.832 149.255C108.554 149.255 108.314 149.341 108.112 149.513C107.91 149.685 107.753 149.927 107.642 150.24C107.531 150.554 107.475 150.925 107.475 151.354C107.475 151.779 107.531 152.15 107.642 152.468C107.753 152.782 107.91 153.024 108.112 153.196C108.319 153.368 108.562 153.454 108.839 153.454Z" fill="black"/>
<path d="M96.5438 189.708V189.064L98.0897 187.412C98.3929 187.089 98.6303 186.828 98.8021 186.631C98.9789 186.429 99.1052 186.252 99.181 186.101C99.2618 185.949 99.3023 185.79 99.3023 185.623C99.3023 185.351 99.2189 185.141 99.0522 184.994C98.8855 184.843 98.6707 184.767 98.408 184.767C98.1352 184.767 97.9003 184.845 97.7032 185.002C97.5062 185.154 97.3698 185.376 97.294 185.669L96.5059 185.442C96.5665 185.143 96.6877 184.886 96.8696 184.669C97.0515 184.446 97.2738 184.275 97.5365 184.153C97.8043 184.032 98.0923 183.971 98.4004 183.971C98.7591 183.971 99.0724 184.04 99.3402 184.176C99.6079 184.307 99.8151 184.492 99.9616 184.729C100.113 184.967 100.189 185.242 100.189 185.555C100.189 185.762 100.149 185.964 100.068 186.162C99.9919 186.353 99.8732 186.558 99.7115 186.775C99.5498 186.988 99.3427 187.228 99.0901 187.495L97.726 188.95H100.295V189.708H96.5438ZM103.415 189.799C102.965 189.799 102.571 189.678 102.232 189.435C101.894 189.188 101.629 188.847 101.437 188.412C101.25 187.973 101.156 187.462 101.156 186.881C101.156 186.295 101.25 185.785 101.437 185.351C101.629 184.916 101.891 184.578 102.225 184.335C102.563 184.093 102.957 183.971 103.407 183.971C103.857 183.971 104.248 184.093 104.582 184.335C104.92 184.578 105.183 184.919 105.37 185.358C105.562 185.793 105.658 186.3 105.658 186.881C105.658 187.462 105.564 187.973 105.377 188.412C105.191 188.847 104.928 189.188 104.589 189.435C104.256 189.678 103.864 189.799 103.415 189.799ZM103.415 188.981C103.693 188.981 103.933 188.895 104.135 188.723C104.337 188.551 104.493 188.309 104.604 187.995C104.716 187.682 104.771 187.311 104.771 186.881C104.771 186.452 104.716 186.081 104.604 185.767C104.493 185.454 104.337 185.212 104.135 185.04C103.933 184.868 103.69 184.782 103.407 184.782C103.129 184.782 102.889 184.868 102.687 185.04C102.485 185.212 102.328 185.454 102.217 185.767C102.106 186.081 102.051 186.452 102.051 186.881C102.051 187.306 102.106 187.677 102.217 187.995C102.328 188.309 102.485 188.551 102.687 188.723C102.894 188.895 103.137 188.981 103.415 188.981ZM108.839 189.799C108.39 189.799 107.996 189.678 107.657 189.435C107.319 189.188 107.053 188.847 106.861 188.412C106.675 187.973 106.581 187.462 106.581 186.881C106.581 186.295 106.675 185.785 106.861 185.351C107.053 184.916 107.316 184.578 107.65 184.335C107.988 184.093 108.382 183.971 108.832 183.971C109.281 183.971 109.673 184.093 110.006 184.335C110.345 184.578 110.608 184.919 110.795 185.358C110.987 185.793 111.083 186.3 111.083 186.881C111.083 187.462 110.989 187.973 110.802 188.412C110.615 188.847 110.353 189.188 110.014 189.435C109.681 189.678 109.289 189.799 108.839 189.799ZM108.839 188.981C109.117 188.981 109.357 188.895 109.559 188.723C109.761 188.551 109.918 188.309 110.029 187.995C110.14 187.682 110.196 187.311 110.196 186.881C110.196 186.452 110.14 186.081 110.029 185.767C109.918 185.454 109.761 185.212 109.559 185.04C109.357 184.868 109.115 184.782 108.832 184.782C108.554 184.782 108.314 184.868 108.112 185.04C107.91 185.212 107.753 185.454 107.642 185.767C107.531 186.081 107.475 186.452 107.475 186.881C107.475 187.306 107.531 187.677 107.642 187.995C107.753 188.309 107.91 188.551 108.112 188.723C108.319 188.895 108.562 188.981 108.839 188.981Z" fill="black"/>
<path d="M99.0602 225.234V220.346H97.9765V219.588H99.9468V225.234H99.0602ZM103.415 225.325C102.965 225.325 102.571 225.203 102.232 224.961C101.894 224.713 101.629 224.372 101.437 223.938C101.25 223.498 101.156 222.988 101.156 222.407C101.156 221.821 101.25 221.311 101.437 220.876C101.629 220.442 101.891 220.103 102.225 219.861C102.563 219.618 102.957 219.497 103.407 219.497C103.857 219.497 104.248 219.618 104.582 219.861C104.92 220.103 105.183 220.444 105.37 220.884C105.562 221.318 105.658 221.826 105.658 222.407C105.658 222.988 105.564 223.498 105.377 223.938C105.191 224.372 104.928 224.713 104.589 224.961C104.256 225.203 103.864 225.325 103.415 225.325ZM103.415 224.506C103.693 224.506 103.933 224.42 104.135 224.249C104.337 224.077 104.493 223.834 104.604 223.521C104.716 223.208 104.771 222.837 104.771 222.407C104.771 221.978 104.716 221.606 104.604 221.293C104.493 220.98 104.337 220.737 104.135 220.566C103.933 220.394 103.69 220.308 103.407 220.308C103.129 220.308 102.889 220.394 102.687 220.566C102.485 220.737 102.328 220.98 102.217 221.293C102.106 221.606 102.051 221.978 102.051 222.407C102.051 222.831 102.106 223.203 102.217 223.521C102.328 223.834 102.485 224.077 102.687 224.249C102.894 224.42 103.137 224.506 103.415 224.506ZM108.839 225.325C108.39 225.325 107.996 225.203 107.657 224.961C107.319 224.713 107.053 224.372 106.861 223.938C106.675 223.498 106.581 222.988 106.581 222.407C106.581 221.821 106.675 221.311 106.861 220.876C107.053 220.442 107.316 220.103 107.65 219.861C107.988 219.618 108.382 219.497 108.832 219.497C109.281 219.497 109.673 219.618 110.006 219.861C110.345 220.103 110.608 220.444 110.795 220.884C110.987 221.318 111.083 221.826 111.083 222.407C111.083 222.988 110.989 223.498 110.802 223.938C110.615 224.372 110.353 224.713 110.014 224.961C109.681 225.203 109.289 225.325 108.839 225.325ZM108.839 224.506C109.117 224.506 109.357 224.42 109.559 224.249C109.761 224.077 109.918 223.834 110.029 223.521C110.14 223.208 110.196 222.837 110.196 222.407C110.196 221.978 110.14 221.606 110.029 221.293C109.918 220.98 109.761 220.737 109.559 220.566C109.357 220.394 109.115 220.308 108.832 220.308C108.554 220.308 108.314 220.394 108.112 220.566C107.91 220.737 107.753 220.98 107.642 221.293C107.531 221.606 107.475 221.978 107.475 222.407C107.475 222.831 107.531 223.203 107.642 223.521C107.753 223.834 107.91 224.077 108.112 224.249C108.319 224.42 108.562 224.506 108.839 224.506Z" fill="black"/>
<path d="M107.922 260.85C107.473 260.85 107.079 260.729 106.74 260.487C106.402 260.239 106.137 259.898 105.945 259.464C105.758 259.024 105.664 258.514 105.664 257.933C105.664 257.347 105.758 256.836 105.945 256.402C106.137 255.967 106.399 255.629 106.733 255.386C107.071 255.144 107.465 255.023 107.915 255.023C108.365 255.023 108.756 255.144 109.09 255.386C109.428 255.629 109.691 255.97 109.878 256.409C110.07 256.844 110.166 257.352 110.166 257.933C110.166 258.514 110.072 259.024 109.885 259.464C109.698 259.898 109.436 260.239 109.097 260.487C108.764 260.729 108.372 260.85 107.922 260.85ZM107.922 260.032C108.2 260.032 108.44 259.946 108.642 259.774C108.844 259.602 109.001 259.36 109.112 259.047C109.223 258.733 109.279 258.362 109.279 257.933C109.279 257.503 109.223 257.132 109.112 256.819C109.001 256.505 108.844 256.263 108.642 256.091C108.44 255.919 108.198 255.834 107.915 255.834C107.637 255.834 107.397 255.919 107.195 256.091C106.993 256.263 106.836 256.505 106.725 256.819C106.614 257.132 106.558 257.503 106.558 257.933C106.558 258.357 106.614 258.728 106.725 259.047C106.836 259.36 106.993 259.602 107.195 259.774C107.402 259.946 107.645 260.032 107.922 260.032Z" fill="black"/>
</g>
<path d="M94.4558 79.6641V71.5536H95.5227V79.6641H94.4558ZM97.0867 79.6641V73.7963H98.0774V74.9394L97.9141 74.8414C98.0593 74.4712 98.2915 74.1846 98.6109 73.9814C98.9375 73.7709 99.3185 73.6656 99.754 73.6656C100.175 73.6656 100.549 73.76 100.875 73.9487C101.209 74.1374 101.47 74.3987 101.659 74.7325C101.855 75.0664 101.953 75.4438 101.953 75.8647V79.6641H100.93V76.1913C100.93 75.8647 100.872 75.5889 100.756 75.3639C100.639 75.139 100.472 74.9648 100.255 74.8414C100.044 74.7108 99.8011 74.6454 99.5253 74.6454C99.2495 74.6454 99.0028 74.7108 98.7851 74.8414C98.5746 74.9648 98.4077 75.1426 98.2843 75.3748C98.1609 75.5998 98.0992 75.872 98.0992 76.1913V79.6641H97.0867ZM104.809 79.6641L102.512 73.7963H103.644L105.484 78.7606H105.092L106.942 73.7963H108.075L105.767 79.6641H104.809ZM111.541 79.7948C110.975 79.7948 110.464 79.6641 110.006 79.4029C109.549 79.1343 109.186 78.7678 108.918 78.3033C108.649 77.8388 108.515 77.3126 108.515 76.7248C108.515 76.1369 108.646 75.6143 108.907 75.1571C109.175 74.6999 109.538 74.337 109.995 74.0684C110.453 73.7999 110.968 73.6656 111.541 73.6656C112.107 73.6656 112.619 73.7999 113.076 74.0684C113.534 74.3297 113.893 74.689 114.154 75.1462C114.423 75.6034 114.557 76.1296 114.557 76.7248C114.557 77.3199 114.419 77.8497 114.143 78.3142C113.867 78.7714 113.501 79.1343 113.044 79.4029C112.594 79.6641 112.093 79.7948 111.541 79.7948ZM111.541 78.815C111.904 78.815 112.231 78.7243 112.521 78.5428C112.819 78.3614 113.051 78.111 113.218 77.7916C113.392 77.4723 113.479 77.1167 113.479 76.7248C113.479 76.3256 113.392 75.9736 113.218 75.6688C113.051 75.3567 112.819 75.1099 112.521 74.9285C112.231 74.7398 111.904 74.6454 111.541 74.6454C111.171 74.6454 110.837 74.7398 110.54 74.9285C110.25 75.1099 110.017 75.3567 109.843 75.6688C109.669 75.9736 109.582 76.3256 109.582 76.7248C109.582 77.1167 109.669 77.4723 109.843 77.7916C110.017 78.111 110.25 78.3614 110.54 78.5428C110.837 78.7243 111.171 78.815 111.541 78.815ZM115.758 79.6641V73.7963H116.77V79.6641H115.758ZM115.758 72.86V71.5536H116.77V72.86H115.758ZM120.943 79.7948C120.37 79.7948 119.858 79.6605 119.408 79.392C118.965 79.1234 118.617 78.7569 118.363 78.2924C118.109 77.8279 117.982 77.3054 117.982 76.7248C117.982 76.1369 118.109 75.6143 118.363 75.1571C118.617 74.6999 118.965 74.337 119.408 74.0684C119.858 73.7999 120.37 73.6656 120.943 73.6656C121.328 73.6656 121.687 73.7346 122.021 73.8725C122.355 74.0104 122.649 74.1955 122.903 74.4277C123.157 74.6599 123.342 74.9321 123.458 75.2442L122.554 75.6797C122.416 75.3748 122.206 75.1281 121.923 74.9394C121.64 74.7434 121.313 74.6454 120.943 74.6454C120.587 74.6454 120.264 74.7362 119.974 74.9176C119.691 75.099 119.466 75.3458 119.299 75.6579C119.132 75.97 119.049 76.3292 119.049 76.7357C119.049 77.1276 119.132 77.4832 119.299 77.8025C119.466 78.1146 119.691 78.3614 119.974 78.5428C120.264 78.7243 120.587 78.815 120.943 78.815C121.313 78.815 121.64 78.7206 121.923 78.5319C122.206 78.336 122.416 78.0783 122.554 77.759L123.458 78.2162C123.342 78.521 123.157 78.7932 122.903 79.0327C122.649 79.265 122.355 79.45 122.021 79.5879C121.687 79.7258 121.328 79.7948 120.943 79.7948ZM127.361 79.7948C126.795 79.7948 126.291 79.6605 125.848 79.392C125.405 79.1234 125.057 78.7569 124.803 78.2924C124.549 77.8207 124.422 77.2945 124.422 76.7139C124.422 76.126 124.545 75.6034 124.792 75.1462C125.046 74.689 125.387 74.3297 125.815 74.0684C126.251 73.7999 126.737 73.6656 127.274 73.6656C127.709 73.6656 128.094 73.7455 128.428 73.9051C128.769 74.0576 129.056 74.268 129.288 74.5366C129.528 74.7978 129.709 75.099 129.832 75.4402C129.963 75.774 130.028 76.1224 130.028 76.4853C130.028 76.5651 130.021 76.6558 130.007 76.7574C129.999 76.8518 129.988 76.9425 129.974 77.0296H125.162V76.1587H129.386L128.907 76.5506C128.972 76.1732 128.936 75.8357 128.798 75.5381C128.66 75.2406 128.457 75.0047 128.188 74.8305C127.92 74.6563 127.615 74.5692 127.274 74.5692C126.933 74.5692 126.621 74.6563 126.338 74.8305C126.055 75.0047 125.833 75.2551 125.674 75.5817C125.521 75.901 125.46 76.282 125.489 76.7248C125.46 77.153 125.525 77.5304 125.685 77.857C125.851 78.1763 126.084 78.4267 126.381 78.6081C126.686 78.7823 127.016 78.8694 127.372 78.8694C127.764 78.8694 128.094 78.7787 128.363 78.5973C128.631 78.4158 128.849 78.1836 129.016 77.9005L129.865 78.336C129.749 78.6045 129.567 78.8513 129.321 79.0763C129.081 79.294 128.794 79.4682 128.461 79.5988C128.134 79.7295 127.768 79.7948 127.361 79.7948ZM133.33 79.7948C132.742 79.7948 132.23 79.6496 131.795 79.3593C131.359 79.069 131.051 78.6771 130.869 78.1836L131.675 77.7916C131.842 78.14 132.071 78.4158 132.361 78.619C132.651 78.8222 132.974 78.9239 133.33 78.9239C133.649 78.9239 133.914 78.8476 134.124 78.6952C134.335 78.5428 134.44 78.3432 134.44 78.0965C134.44 77.9223 134.389 77.7844 134.288 77.6828C134.193 77.5739 134.077 77.4905 133.939 77.4324C133.801 77.3671 133.674 77.3199 133.558 77.2909L132.677 77.0405C132.147 76.8881 131.758 76.6703 131.512 76.3873C131.272 76.1042 131.152 75.774 131.152 75.3966C131.152 75.0482 131.24 74.747 131.414 74.493C131.595 74.2317 131.838 74.0285 132.143 73.8834C132.455 73.7382 132.804 73.6656 133.188 73.6656C133.704 73.6656 134.164 73.7963 134.571 74.0576C134.985 74.3188 135.278 74.6853 135.453 75.1571L134.625 75.5381C134.495 75.2333 134.299 74.9938 134.037 74.8196C133.776 74.6382 133.482 74.5475 133.156 74.5475C132.858 74.5475 132.622 74.6237 132.448 74.7761C132.274 74.9212 132.187 75.1063 132.187 75.3313C132.187 75.4982 132.23 75.6361 132.317 75.745C132.404 75.8466 132.51 75.9264 132.633 75.9845C132.756 76.0353 132.876 76.0788 132.992 76.1151L133.95 76.3982C134.429 76.5361 134.799 76.7502 135.061 77.0405C135.329 77.3308 135.464 77.6792 135.464 78.0856C135.464 78.4122 135.373 78.7061 135.191 78.9674C135.01 79.2287 134.76 79.4319 134.44 79.577C134.121 79.7222 133.751 79.7948 133.33 79.7948ZM141.338 79.7948C140.823 79.7948 140.351 79.7004 139.923 79.5117C139.494 79.3158 139.131 79.0509 138.834 78.717C138.536 78.3832 138.322 78.0094 138.192 77.5957L139.117 77.2147C139.313 77.7372 139.603 78.14 139.988 78.4231C140.38 78.6989 140.837 78.8368 141.36 78.8368C141.679 78.8368 141.958 78.786 142.198 78.6843C142.437 78.5827 142.622 78.4412 142.753 78.2598C142.891 78.0711 142.96 77.8533 142.96 77.6066C142.96 77.2655 142.862 76.9969 142.666 76.801C142.477 76.5978 142.198 76.4453 141.828 76.3437L140.336 75.8865C139.748 75.7051 139.298 75.4184 138.986 75.0265C138.674 74.6345 138.518 74.1846 138.518 73.6765C138.518 73.2338 138.623 72.8455 138.834 72.5117C139.052 72.1706 139.349 71.9056 139.727 71.7169C140.111 71.521 140.547 71.423 141.033 71.423C141.519 71.423 141.958 71.5101 142.35 71.6843C142.749 71.8585 143.087 72.0943 143.363 72.3919C143.639 72.6822 143.842 73.0161 143.972 73.3935L143.058 73.7745C142.884 73.3173 142.622 72.9725 142.274 72.7403C141.926 72.5008 141.516 72.381 141.044 72.381C140.754 72.381 140.496 72.4318 140.271 72.5334C140.053 72.6278 139.883 72.7693 139.759 72.958C139.643 73.1395 139.585 73.3572 139.585 73.6112C139.585 73.9088 139.679 74.1737 139.868 74.4059C140.057 74.6382 140.344 74.816 140.728 74.9394L142.089 75.3422C142.728 75.5381 143.21 75.8176 143.537 76.1804C143.864 76.5433 144.027 76.9933 144.027 77.5304C144.027 77.9731 143.911 78.365 143.678 78.7061C143.453 79.0472 143.138 79.3158 142.731 79.5117C142.332 79.7004 141.868 79.7948 141.338 79.7948ZM148.049 79.7948C147.483 79.7948 146.979 79.6605 146.536 79.392C146.093 79.1234 145.745 78.7569 145.491 78.2924C145.237 77.8207 145.11 77.2945 145.11 76.7139C145.11 76.126 145.233 75.6034 145.48 75.1462C145.734 74.689 146.075 74.3297 146.503 74.0684C146.939 73.7999 147.425 73.6656 147.962 73.6656C148.398 73.6656 148.782 73.7455 149.116 73.9051C149.457 74.0576 149.744 74.268 149.976 74.5366C150.216 74.7978 150.397 75.099 150.52 75.4402C150.651 75.774 150.716 76.1224 150.716 76.4853C150.716 76.5651 150.709 76.6558 150.695 76.7574C150.687 76.8518 150.677 76.9425 150.662 77.0296H145.85V76.1587H150.074L149.595 76.5506C149.66 76.1732 149.624 75.8357 149.486 75.5381C149.348 75.2406 149.145 75.0047 148.877 74.8305C148.608 74.6563 148.303 74.5692 147.962 74.5692C147.621 74.5692 147.309 74.6563 147.026 74.8305C146.743 75.0047 146.521 75.2551 146.362 75.5817C146.209 75.901 146.148 76.282 146.177 76.7248C146.148 77.153 146.213 77.5304 146.373 77.857C146.54 78.1763 146.772 78.4267 147.069 78.6081C147.374 78.7823 147.704 78.8694 148.06 78.8694C148.452 78.8694 148.782 78.7787 149.051 78.5973C149.319 78.4158 149.537 78.1836 149.704 77.9005L150.553 78.336C150.437 78.6045 150.256 78.8513 150.009 79.0763C149.769 79.294 149.483 79.4682 149.149 79.5988C148.822 79.7295 148.456 79.7948 148.049 79.7948ZM151.917 79.6641V73.7963H152.907V74.9394L152.744 74.8414C152.889 74.4712 153.122 74.1846 153.441 73.9814C153.767 73.7709 154.149 73.6656 154.584 73.6656C155.005 73.6656 155.379 73.76 155.705 73.9487C156.039 74.1374 156.3 74.3987 156.489 74.7325C156.685 75.0664 156.783 75.4438 156.783 75.8647V79.6641H155.76V76.1913C155.76 75.8647 155.702 75.5889 155.586 75.3639C155.469 75.139 155.302 74.9648 155.085 74.8414C154.874 74.7108 154.631 74.6454 154.355 74.6454C154.08 74.6454 153.833 74.7108 153.615 74.8414C153.405 74.9648 153.238 75.1426 153.114 75.3748C152.991 75.5998 152.929 75.872 152.929 76.1913V79.6641H151.917ZM160.496 79.7295C159.923 79.7295 159.48 79.5662 159.168 79.2396C158.863 78.913 158.711 78.4521 158.711 77.857V74.7652H157.644V73.7963H157.862C158.123 73.7963 158.33 73.7164 158.482 73.5568C158.635 73.3971 158.711 73.1866 158.711 72.9254V72.4463H159.723V73.7963H161.041V74.7652H159.723V77.8243C159.723 78.0203 159.752 78.1908 159.81 78.336C159.876 78.4811 159.981 78.5973 160.126 78.6843C160.271 78.7642 160.464 78.8041 160.703 78.8041C160.754 78.8041 160.816 78.8005 160.888 78.7932C160.968 78.786 161.041 78.7787 161.106 78.7714V79.6641C161.012 79.6859 160.906 79.7004 160.79 79.7077C160.674 79.7222 160.576 79.7295 160.496 79.7295Z" fill="#4D4D4D"/>
<path d="M234.194 80.2194V73.2675H235.407L238.01 76.8041H237.432L239.979 73.2675H241.192V80.2194H239.914V74.7139L240.408 74.8352L237.768 78.3531H237.618L235.043 74.8352L235.463 74.7139V80.2194H234.194ZM244.918 80.3314C244.42 80.3314 243.966 80.2163 243.555 79.9861C243.151 79.7559 242.827 79.4418 242.585 79.0436C242.348 78.6455 242.23 78.1914 242.23 77.6812C242.23 77.1711 242.348 76.717 242.585 76.3189C242.827 75.9207 243.151 75.6066 243.555 75.3764C243.96 75.1462 244.414 75.0311 244.918 75.0311C245.415 75.0311 245.866 75.1462 246.271 75.3764C246.675 75.6066 246.995 75.9207 247.232 76.3189C247.474 76.7108 247.596 77.1649 247.596 77.6812C247.596 78.1914 247.474 78.6455 247.232 79.0436C246.989 79.4418 246.666 79.7559 246.261 79.9861C245.857 80.2163 245.409 80.3314 244.918 80.3314ZM244.918 79.2116C245.191 79.2116 245.431 79.1463 245.636 79.0156C245.848 78.885 246.013 78.7046 246.131 78.4744C246.255 78.238 246.317 77.9736 246.317 77.6812C246.317 77.3826 246.255 77.1214 246.131 76.8974C246.013 76.6672 245.848 76.4868 245.636 76.3562C245.431 76.2193 245.191 76.1509 244.918 76.1509C244.638 76.1509 244.392 76.2193 244.181 76.3562C243.969 76.4868 243.801 76.6672 243.677 76.8974C243.558 77.1214 243.499 77.3826 243.499 77.6812C243.499 77.9736 243.558 78.238 243.677 78.4744C243.801 78.7046 243.969 78.885 244.181 79.0156C244.392 79.1463 244.638 79.2116 244.918 79.2116ZM248.538 80.2194V75.1431H249.686V76.1416L249.593 75.9643C249.711 75.6595 249.904 75.4293 250.171 75.2738C250.445 75.112 250.762 75.0311 251.123 75.0311C251.496 75.0311 251.826 75.112 252.112 75.2738C252.405 75.4355 252.632 75.6626 252.793 75.955C252.955 76.2411 253.036 76.5739 253.036 76.9534V80.2194H251.814V77.2427C251.814 77.0187 251.77 76.8259 251.683 76.6641C251.596 76.5024 251.475 76.378 251.319 76.2909C251.17 76.1976 250.993 76.1509 250.787 76.1509C250.588 76.1509 250.411 76.1976 250.255 76.2909C250.1 76.378 249.979 76.5024 249.891 76.6641C249.804 76.8259 249.761 77.0187 249.761 77.2427V80.2194H248.538ZM256.399 80.2754C255.827 80.2754 255.382 80.1198 255.065 79.8088C254.754 79.4915 254.599 79.0467 254.599 78.4744V76.2349H253.721V75.1431H253.815C254.064 75.1431 254.256 75.0778 254.393 74.9472C254.53 74.8165 254.599 74.6268 254.599 74.378V73.986H255.821V75.1431H256.987V76.2349H255.821V78.4091C255.821 78.5771 255.849 78.7201 255.905 78.8383C255.967 78.9565 256.06 79.0467 256.185 79.1089C256.315 79.1712 256.48 79.2023 256.679 79.2023C256.723 79.2023 256.773 79.1991 256.829 79.1929C256.891 79.1867 256.95 79.1805 257.006 79.1743V80.2194C256.919 80.2318 256.819 80.2443 256.707 80.2567C256.595 80.2691 256.493 80.2754 256.399 80.2754ZM257.955 80.2194V73.1555H259.178V76.1416L259.01 75.9643C259.128 75.6595 259.321 75.4293 259.588 75.2738C259.862 75.112 260.179 75.0311 260.54 75.0311C260.914 75.0311 261.243 75.112 261.529 75.2738C261.822 75.4355 262.049 75.6626 262.211 75.955C262.372 76.2411 262.453 76.5739 262.453 76.9534V80.2194H261.231V77.2427C261.231 77.0187 261.187 76.8259 261.1 76.6641C261.013 76.5024 260.892 76.378 260.736 76.2909C260.587 76.1976 260.41 76.1509 260.204 76.1509C260.005 76.1509 259.828 76.1976 259.672 76.2909C259.517 76.378 259.396 76.5024 259.309 76.6641C259.221 76.8259 259.178 77.0187 259.178 77.2427V80.2194H257.955Z" fill="#A3AED0"/>
<path d="M149.643 286.287L152.041 279.335H153.684L156.082 286.287H154.701L154.206 284.794H151.519L151.015 286.287H149.643ZM151.883 283.674H153.842L152.685 280.212H153.04L151.883 283.674ZM156.768 288.153V281.21H157.916V282.218L157.804 281.966C157.978 281.692 158.215 281.481 158.513 281.332C158.812 281.176 159.157 281.098 159.549 281.098C160.028 281.098 160.46 281.217 160.846 281.453C161.232 281.689 161.537 282.007 161.761 282.405C161.991 282.803 162.106 283.251 162.106 283.748C162.106 284.24 161.994 284.688 161.77 285.092C161.546 285.497 161.241 285.817 160.855 286.053C160.47 286.283 160.031 286.399 159.54 286.399C159.173 286.399 158.834 286.327 158.523 286.184C158.218 286.035 157.975 285.823 157.795 285.549L157.991 285.307V288.153H156.768ZM159.4 285.279C159.68 285.279 159.928 285.213 160.146 285.083C160.364 284.952 160.532 284.772 160.65 284.542C160.775 284.311 160.837 284.047 160.837 283.748C160.837 283.45 160.775 283.189 160.65 282.965C160.532 282.734 160.364 282.554 160.146 282.423C159.928 282.287 159.68 282.218 159.4 282.218C159.132 282.218 158.89 282.283 158.672 282.414C158.46 282.545 158.292 282.728 158.168 282.965C158.05 283.195 157.991 283.456 157.991 283.748C157.991 284.047 158.05 284.311 158.168 284.542C158.292 284.772 158.46 284.952 158.672 285.083C158.89 285.213 159.132 285.279 159.4 285.279ZM163.053 286.287V281.21H164.201V282.339L164.108 282.171C164.226 281.792 164.409 281.528 164.658 281.378C164.913 281.229 165.218 281.154 165.573 281.154H165.871V282.237H165.433C165.084 282.237 164.805 282.346 164.593 282.563C164.381 282.775 164.276 283.073 164.276 283.459V286.287H163.053ZM166.559 286.287V281.21H167.781V286.287H166.559ZM166.559 280.641V279.335H167.781V280.641H166.559ZM168.926 286.287V279.223H170.148V286.287H168.926Z" fill="#0F2552"/>
<path d="M182.872 286.287V279.335H184.085L186.688 282.871H186.11L188.657 279.335H189.87V286.287H188.592V280.781L189.086 280.902L186.446 284.42H186.296L183.721 280.902L184.141 280.781V286.287H182.872ZM192.653 286.399C192.299 286.399 191.991 286.339 191.73 286.221C191.468 286.103 191.266 285.935 191.123 285.717C190.98 285.493 190.908 285.235 190.908 284.943C190.908 284.663 190.971 284.414 191.095 284.196C191.219 283.972 191.412 283.786 191.674 283.636C191.935 283.487 192.265 283.381 192.663 283.319L194.324 283.049V283.982L192.896 284.224C192.653 284.268 192.473 284.346 192.355 284.458C192.237 284.57 192.177 284.716 192.177 284.896C192.177 285.07 192.243 285.21 192.373 285.316C192.51 285.416 192.678 285.465 192.877 285.465C193.132 285.465 193.356 285.413 193.549 285.307C193.748 285.195 193.901 285.042 194.006 284.85C194.118 284.657 194.174 284.445 194.174 284.215V282.909C194.174 282.691 194.087 282.51 193.913 282.367C193.745 282.218 193.521 282.143 193.241 282.143C192.98 282.143 192.747 282.215 192.541 282.358C192.342 282.495 192.196 282.678 192.103 282.909L191.104 282.423C191.204 282.156 191.359 281.926 191.571 281.733C191.789 281.534 192.044 281.378 192.336 281.266C192.628 281.154 192.946 281.098 193.288 281.098C193.705 281.098 194.072 281.176 194.389 281.332C194.706 281.481 194.952 281.692 195.126 281.966C195.307 282.234 195.397 282.548 195.397 282.909V286.287H194.24V285.419L194.501 285.4C194.37 285.618 194.215 285.801 194.034 285.951C193.854 286.094 193.649 286.206 193.419 286.287C193.188 286.361 192.933 286.399 192.653 286.399ZM197.158 288.339C197.021 288.339 196.887 288.327 196.757 288.302C196.626 288.283 196.508 288.246 196.402 288.19V287.173C196.483 287.192 196.579 287.21 196.691 287.229C196.81 287.248 196.918 287.257 197.018 287.257C197.298 287.257 197.5 287.192 197.625 287.061C197.755 286.937 197.87 286.769 197.97 286.557L198.306 285.773L198.287 286.8L196.076 281.21H197.391L198.94 285.335H198.474L200.013 281.21H201.338L199.127 286.8C198.996 287.123 198.838 287.4 198.651 287.63C198.464 287.86 198.247 288.035 197.998 288.153C197.755 288.277 197.475 288.339 197.158 288.339Z" fill="#0F2552"/>
<path d="M213.668 286.287V285.12H214.069C214.368 285.12 214.604 285.036 214.779 284.868C214.959 284.694 215.049 284.464 215.049 284.178V279.335H216.328V284.131C216.328 284.56 216.234 284.937 216.048 285.26C215.867 285.584 215.606 285.836 215.264 286.016C214.928 286.196 214.53 286.287 214.069 286.287H213.668ZM219.363 286.399C218.971 286.399 218.629 286.311 218.336 286.137C218.05 285.963 217.829 285.72 217.674 285.409C217.524 285.098 217.45 284.734 217.45 284.318V281.21H218.672V284.215C218.672 284.427 218.713 284.613 218.793 284.775C218.881 284.93 219.002 285.055 219.157 285.148C219.319 285.235 219.5 285.279 219.699 285.279C219.898 285.279 220.075 285.235 220.23 285.148C220.386 285.055 220.507 284.927 220.594 284.766C220.681 284.604 220.725 284.411 220.725 284.187V281.21H221.947V286.287H220.79V285.288L220.893 285.465C220.775 285.776 220.579 286.01 220.305 286.165C220.038 286.321 219.723 286.399 219.363 286.399ZM223.099 286.287V281.21H224.247V282.209L224.154 282.031C224.272 281.727 224.465 281.496 224.732 281.341C225.006 281.179 225.323 281.098 225.684 281.098C226.057 281.098 226.387 281.179 226.673 281.341C226.966 281.503 227.193 281.73 227.354 282.022C227.516 282.308 227.597 282.641 227.597 283.021V286.287H226.375V283.31C226.375 283.086 226.331 282.893 226.244 282.731C226.157 282.57 226.036 282.445 225.88 282.358C225.731 282.265 225.553 282.218 225.348 282.218C225.149 282.218 224.972 282.265 224.816 282.358C224.661 282.445 224.539 282.57 224.452 282.731C224.365 282.893 224.322 283.086 224.322 283.31V286.287H223.099ZM231.054 286.399C230.531 286.399 230.074 286.28 229.682 286.044C229.29 285.808 228.985 285.487 228.768 285.083C228.55 284.678 228.441 284.231 228.441 283.739C228.441 283.229 228.55 282.778 228.768 282.386C228.991 281.988 229.293 281.674 229.673 281.444C230.058 281.213 230.488 281.098 230.96 281.098C231.359 281.098 231.707 281.164 232.006 281.294C232.31 281.425 232.568 281.605 232.78 281.836C232.992 282.066 233.153 282.33 233.265 282.629C233.377 282.921 233.433 283.238 233.433 283.58C233.433 283.668 233.427 283.758 233.415 283.851C233.408 283.944 233.393 284.025 233.368 284.094H229.449V283.161H232.677L232.099 283.599C232.155 283.313 232.139 283.058 232.052 282.834C231.971 282.61 231.834 282.433 231.642 282.302C231.455 282.171 231.228 282.106 230.96 282.106C230.705 282.106 230.478 282.171 230.279 282.302C230.08 282.426 229.928 282.613 229.822 282.862C229.722 283.105 229.685 283.4 229.71 283.748C229.685 284.059 229.726 284.336 229.831 284.579C229.943 284.815 230.105 284.999 230.317 285.129C230.534 285.26 230.783 285.325 231.063 285.325C231.343 285.325 231.579 285.266 231.772 285.148C231.971 285.03 232.127 284.871 232.239 284.672L233.228 285.157C233.128 285.4 232.973 285.615 232.761 285.801C232.55 285.988 232.298 286.134 232.006 286.24C231.719 286.346 231.402 286.399 231.054 286.399Z" fill="#0F2552"/>
<path d="M246.328 286.287V285.12H246.729C247.028 285.12 247.264 285.036 247.438 284.868C247.619 284.694 247.709 284.464 247.709 284.178V279.335H248.987V284.131C248.987 284.56 248.894 284.937 248.707 285.26C248.527 285.584 248.266 285.836 247.923 286.016C247.587 286.196 247.189 286.287 246.729 286.287H246.328ZM252.007 286.399C251.615 286.399 251.273 286.311 250.98 286.137C250.694 285.963 250.473 285.72 250.318 285.409C250.168 285.098 250.094 284.734 250.094 284.318V281.21H251.316V284.215C251.316 284.427 251.356 284.613 251.437 284.775C251.524 284.93 251.646 285.055 251.801 285.148C251.963 285.235 252.143 285.279 252.343 285.279C252.542 285.279 252.719 285.235 252.874 285.148C253.03 285.055 253.151 284.927 253.238 284.766C253.325 284.604 253.369 284.411 253.369 284.187V281.21H254.591V286.287H253.434V285.288L253.537 285.465C253.419 285.776 253.223 286.01 252.949 286.165C252.682 286.321 252.367 286.399 252.007 286.399ZM255.728 286.287V279.223H256.95V286.287H255.728ZM258.695 288.339C258.558 288.339 258.424 288.327 258.293 288.302C258.163 288.283 258.045 288.246 257.939 288.19V287.173C258.02 287.192 258.116 287.21 258.228 287.229C258.346 287.248 258.455 287.257 258.555 287.257C258.835 287.257 259.037 287.192 259.161 287.061C259.292 286.937 259.407 286.769 259.506 286.557L259.842 285.773L259.824 286.8L257.612 281.21H258.928L260.477 285.335H260.01L261.55 281.21H262.875L260.664 286.8C260.533 287.123 260.374 287.4 260.188 287.63C260.001 287.86 259.783 288.035 259.534 288.153C259.292 288.277 259.012 288.339 258.695 288.339Z" fill="#0F2552"/>
<path d="M267.872 73.9652L270.847 76.9395L273.821 73.9652L274.735 74.8853L270.847 78.7734L266.959 74.8853L267.872 73.9652Z" fill="#A3AED0"/>
</g>
<g filter="url(#filter4_d_1466_1060)">
<g clip-path="url(#clip0_1466_1060)">
<rect x="300" y="307" width="263" height="235.239" rx="14.4048" fill="white"/>
<path d="M501.45 335.404V329.678H502.767L504.436 333.269L506.08 329.678H507.397V335.404H506.293V331.576L504.861 334.651H503.994L502.555 331.592V335.404H501.45ZM510.35 335.502C509.941 335.502 509.578 335.407 509.262 335.216C508.951 335.025 508.706 334.76 508.526 334.422C508.351 334.084 508.264 333.694 508.264 333.253C508.264 332.805 508.351 332.416 508.526 332.083C508.706 331.745 508.954 331.48 509.27 331.289C509.586 331.099 509.949 331.003 510.358 331.003C510.772 331.003 511.135 331.099 511.446 331.289C511.757 331.48 511.999 331.745 512.174 332.083C512.348 332.416 512.435 332.805 512.435 333.253C512.435 333.694 512.348 334.084 512.174 334.422C511.999 334.76 511.754 335.025 511.438 335.216C511.127 335.407 510.764 335.502 510.35 335.502ZM510.35 334.545C510.541 334.545 510.707 334.499 510.849 334.406C510.996 334.308 511.11 334.163 511.192 333.972C511.274 333.776 511.315 333.536 511.315 333.253C511.315 332.964 511.274 332.724 511.192 332.533C511.116 332.342 511.007 332.2 510.865 332.107C510.723 332.009 510.554 331.96 510.358 331.96C510.167 331.96 509.998 332.009 509.851 332.107C509.709 332.2 509.597 332.342 509.515 332.533C509.434 332.724 509.393 332.964 509.393 333.253C509.393 333.536 509.431 333.776 509.507 333.972C509.589 334.163 509.701 334.308 509.843 334.406C509.99 334.499 510.159 334.545 510.35 334.545ZM513.272 335.404V331.101H514.245L514.319 331.739C514.439 331.51 514.613 331.33 514.842 331.199C515.071 331.069 515.347 331.003 515.668 331.003C516.001 331.003 516.285 331.071 516.519 331.208C516.753 331.339 516.933 331.532 517.059 331.788C517.184 332.039 517.247 332.347 517.247 332.713V335.404H516.143V332.811C516.143 332.533 516.069 332.317 515.922 332.165C515.775 332.012 515.567 331.936 515.3 331.936C515.131 331.936 514.976 331.974 514.834 332.05C514.692 332.121 514.58 332.227 514.499 332.369C514.417 332.511 514.376 332.685 514.376 332.893V335.404H513.272ZM520.134 335.404C519.851 335.404 519.6 335.36 519.382 335.273C519.164 335.18 518.995 335.03 518.875 334.823C518.755 334.61 518.695 334.321 518.695 333.956V332.026H517.95V331.101H518.695L518.817 329.899H519.799V331.101H520.911V332.026H519.799V333.972C519.799 334.158 519.84 334.286 519.922 334.357C520.004 334.428 520.143 334.463 520.339 334.463H520.928V335.404H520.134ZM521.755 335.404V329.514H522.859V331.707C523.001 331.494 523.184 331.325 523.407 331.199C523.636 331.069 523.893 331.003 524.176 331.003C524.536 331.003 524.833 331.071 525.068 331.208C525.302 331.344 525.477 331.543 525.591 331.805C525.706 332.067 525.763 332.388 525.763 332.77V335.404H524.667V332.876C524.667 332.571 524.591 332.339 524.438 332.181C524.291 332.017 524.078 331.936 523.8 331.936C523.626 331.936 523.467 331.977 523.326 332.058C523.184 332.135 523.069 332.249 522.982 332.402C522.9 332.555 522.859 332.74 522.859 332.958V335.404H521.755ZM526.744 335.404V329.514H527.848V335.404H526.744ZM529.373 337.203L530.322 334.946H530.076L528.449 331.101H529.643L530.804 333.907L531.851 331.101H533.029L530.534 337.203H529.373Z" fill="#A3AED0"/>
<g clip-path="url(#clip1_1466_1060)">
<path d="M542.056 331.481L539.358 334.179L536.66 331.481L542.056 331.481Z" fill="#A3AED0"/>
</g>
<path d="M319.871 335.678V328.043H321.343V335.678H319.871ZM322.655 335.678V330.039H323.953L324.051 330.901C324.218 330.595 324.455 330.355 324.76 330.181C325.065 329.999 325.432 329.908 325.861 329.908C326.312 329.908 326.694 329.999 327.007 330.181C327.319 330.355 327.555 330.617 327.715 330.966C327.883 331.315 327.966 331.741 327.966 332.242V335.678H326.505V332.384C326.505 331.991 326.407 331.686 326.21 331.468C326.021 331.25 325.741 331.141 325.371 331.141C325.145 331.141 324.934 331.195 324.738 331.304C324.549 331.406 324.4 331.559 324.291 331.762C324.182 331.959 324.127 332.199 324.127 332.482V335.678H322.655ZM330.695 335.678L328.622 330.039H330.182L331.6 334.293L333.018 330.039H334.544L332.483 335.678H330.695ZM337.606 335.809C337.068 335.809 336.588 335.685 336.166 335.438C335.752 335.183 335.424 334.834 335.185 334.391C334.945 333.947 334.825 333.435 334.825 332.853C334.825 332.271 334.945 331.759 335.185 331.315C335.424 330.872 335.755 330.526 336.177 330.279C336.599 330.032 337.079 329.908 337.617 329.908C338.162 329.908 338.642 330.032 339.056 330.279C339.471 330.526 339.798 330.872 340.038 331.315C340.278 331.759 340.398 332.271 340.398 332.853C340.398 333.435 340.278 333.947 340.038 334.391C339.798 334.834 339.467 335.183 339.045 335.438C338.631 335.685 338.151 335.809 337.606 335.809ZM337.606 334.533C337.86 334.533 338.082 334.471 338.271 334.347C338.467 334.224 338.62 334.038 338.729 333.791C338.838 333.536 338.893 333.224 338.893 332.853C338.893 332.482 338.838 332.173 338.729 331.926C338.62 331.671 338.471 331.482 338.282 331.359C338.093 331.235 337.871 331.173 337.617 331.173C337.369 331.173 337.148 331.235 336.951 331.359C336.762 331.482 336.61 331.671 336.493 331.926C336.384 332.173 336.33 332.482 336.33 332.853C336.33 333.224 336.384 333.536 336.493 333.791C336.602 334.038 336.751 334.224 336.94 334.347C337.137 334.471 337.358 334.533 337.606 334.533ZM341.513 335.678V330.039H342.985V335.678H341.513ZM342.255 329.33C341.986 329.33 341.768 329.25 341.6 329.09C341.433 328.93 341.35 328.734 341.35 328.501C341.35 328.254 341.433 328.054 341.6 327.902C341.768 327.749 341.986 327.673 342.255 327.673C342.524 327.673 342.742 327.749 342.909 327.902C343.084 328.054 343.171 328.254 343.171 328.501C343.171 328.734 343.084 328.93 342.909 329.09C342.742 329.25 342.524 329.33 342.255 329.33ZM346.937 335.809C346.377 335.809 345.883 335.685 345.454 335.438C345.032 335.183 344.701 334.838 344.462 334.402C344.222 333.958 344.102 333.46 344.102 332.908C344.102 332.311 344.222 331.788 344.462 331.337C344.701 330.886 345.032 330.537 345.454 330.29C345.883 330.036 346.377 329.908 346.937 329.908C347.642 329.908 348.235 330.097 348.715 330.475C349.195 330.846 349.504 331.362 349.642 332.024H348.082C348.017 331.755 347.879 331.544 347.668 331.392C347.464 331.239 347.217 331.163 346.926 331.163C346.657 331.163 346.421 331.232 346.217 331.37C346.021 331.501 345.868 331.693 345.759 331.948C345.658 332.202 345.607 332.504 345.607 332.853C345.607 333.115 345.636 333.355 345.694 333.573C345.759 333.784 345.847 333.962 345.956 334.107C346.072 334.253 346.21 334.365 346.37 334.445C346.537 334.518 346.723 334.554 346.926 334.554C347.123 334.554 347.297 334.522 347.45 334.456C347.61 334.383 347.744 334.285 347.853 334.162C347.962 334.031 348.039 333.875 348.082 333.693H349.642C349.511 334.333 349.202 334.845 348.715 335.231C348.228 335.616 347.635 335.809 346.937 335.809ZM353.332 335.809C352.779 335.809 352.292 335.689 351.871 335.449C351.456 335.201 351.129 334.86 350.889 334.423C350.656 333.987 350.54 333.482 350.54 332.908C350.54 332.319 350.656 331.799 350.889 331.348C351.122 330.897 351.445 330.545 351.86 330.29C352.281 330.036 352.772 329.908 353.332 329.908C353.892 329.908 354.372 330.032 354.772 330.279C355.172 330.519 355.481 330.85 355.699 331.272C355.917 331.686 356.026 332.162 356.026 332.7C356.026 332.773 356.026 332.853 356.026 332.94C356.026 333.027 356.019 333.118 356.004 333.213H351.598V332.319H354.543C354.528 331.933 354.408 331.635 354.183 331.424C353.957 331.206 353.674 331.097 353.332 331.097C353.085 331.097 352.859 331.159 352.656 331.283C352.452 331.399 352.289 331.581 352.165 331.828C352.049 332.068 351.991 332.373 351.991 332.744V333.06C351.991 333.373 352.045 333.645 352.154 333.878C352.263 334.111 352.416 334.293 352.612 334.423C352.816 334.547 353.052 334.609 353.321 334.609C353.605 334.609 353.826 334.558 353.986 334.456C354.154 334.347 354.281 334.205 354.368 334.031H355.873C355.771 334.358 355.601 334.66 355.361 334.936C355.128 335.205 354.837 335.42 354.488 335.58C354.146 335.732 353.761 335.809 353.332 335.809Z" fill="#2B3674"/>
<circle cx="431.897" cy="404.913" r="48.7367" transform="rotate(-90 431.897 404.913)" fill="#D4D8FF"/>
<path d="M431.897 356.176C442.969 356.176 453.711 359.946 462.355 366.865C470.998 373.785 477.028 383.441 479.452 394.245C481.875 405.049 480.548 416.355 475.688 426.304C470.828 436.253 462.726 444.25 452.715 448.979C442.704 453.709 431.381 454.888 420.609 452.324C409.838 449.76 400.262 443.604 393.455 434.871C386.649 426.138 383.02 415.348 383.164 404.277C383.309 393.205 387.219 382.513 394.25 373.961L431.897 404.913L431.897 356.176Z" fill="#FFAC90"/>
<path d="M431.897 356.176C442.171 356.176 452.181 359.422 460.5 365.452C468.818 371.481 475.018 379.985 478.215 389.749C481.411 399.513 481.44 410.037 478.298 419.818C475.156 429.6 469.003 438.138 460.719 444.213C452.434 450.289 442.442 453.591 432.168 453.649C421.895 453.706 411.866 450.515 403.514 444.532C395.163 438.549 388.915 430.08 385.664 420.334C382.414 410.588 382.326 400.064 385.413 390.266L431.897 404.913L431.897 356.176Z" fill="#1A237E"/>
<g filter="url(#filter5_d_1466_1060)">
<line x1="431.896" y1="507.942" x2="431.896" y2="475.906" stroke="#F4F7FE" stroke-width="0.681633"/>
<path d="M358.24 487.318V481.592H360.17C360.628 481.592 361.007 481.672 361.307 481.83C361.607 481.982 361.828 482.192 361.97 482.459C362.117 482.721 362.191 483.018 362.191 483.351C362.191 483.673 362.12 483.967 361.978 484.234C361.836 484.502 361.615 484.714 361.315 484.872C361.021 485.031 360.639 485.11 360.17 485.11H359.058V487.318H358.24ZM359.058 484.431H360.138C360.585 484.431 360.898 484.333 361.078 484.136C361.264 483.935 361.356 483.673 361.356 483.351C361.356 483.013 361.264 482.749 361.078 482.558C360.898 482.367 360.585 482.271 360.138 482.271H359.058V484.431ZM364.042 487.416C363.709 487.416 363.434 487.356 363.216 487.236C362.998 487.116 362.834 486.956 362.725 486.754C362.616 486.547 362.562 486.326 362.562 486.091C362.562 485.819 362.632 485.584 362.774 485.388C362.916 485.186 363.115 485.033 363.371 484.93C363.633 484.821 363.944 484.766 364.304 484.766H365.351C365.351 484.504 365.321 484.289 365.261 484.12C365.206 483.945 365.111 483.815 364.974 483.727C364.838 483.64 364.653 483.596 364.418 483.596C364.189 483.596 363.996 483.651 363.838 483.76C363.679 483.869 363.579 484.033 363.535 484.251H362.717C362.75 483.967 362.845 483.727 363.003 483.531C363.161 483.329 363.363 483.177 363.609 483.073C363.859 482.969 364.129 482.918 364.418 482.918C364.811 482.918 365.135 482.986 365.392 483.122C365.653 483.258 365.847 483.452 365.972 483.703C366.103 483.948 366.169 484.243 366.169 484.586V487.318H365.457L365.392 486.615C365.337 486.724 365.266 486.827 365.179 486.926C365.097 487.024 364.999 487.111 364.885 487.187C364.775 487.258 364.65 487.313 364.508 487.351C364.366 487.395 364.211 487.416 364.042 487.416ZM364.189 486.754C364.353 486.754 364.503 486.718 364.639 486.647C364.781 486.571 364.904 486.47 365.007 486.345C365.111 486.219 365.19 486.078 365.244 485.919C365.304 485.756 365.337 485.587 365.343 485.412V485.347H364.386C364.157 485.347 363.971 485.377 363.829 485.437C363.688 485.491 363.584 485.573 363.519 485.682C363.453 485.786 363.42 485.906 363.42 486.042C363.42 486.184 363.45 486.309 363.51 486.418C363.57 486.522 363.658 486.604 363.772 486.664C363.892 486.724 364.031 486.754 364.189 486.754ZM367.203 487.318V483.016H368.021V487.318H367.203ZM367.612 482.296C367.454 482.296 367.323 482.247 367.219 482.149C367.121 482.051 367.072 481.925 367.072 481.772C367.072 481.625 367.121 481.505 367.219 481.413C367.323 481.314 367.454 481.265 367.612 481.265C367.765 481.265 367.893 481.314 367.996 481.413C368.1 481.505 368.152 481.625 368.152 481.772C368.152 481.925 368.1 482.051 367.996 482.149C367.893 482.247 367.765 482.296 367.612 482.296ZM370.818 487.416C370.441 487.416 370.106 487.321 369.812 487.13C369.523 486.934 369.296 486.667 369.133 486.328C368.975 485.99 368.895 485.606 368.895 485.175C368.895 484.733 368.977 484.344 369.141 484.005C369.304 483.667 369.533 483.403 369.828 483.212C370.122 483.016 370.463 482.918 370.85 482.918C371.172 482.918 371.45 482.98 371.685 483.106C371.919 483.231 372.105 483.408 372.241 483.637V481.429H373.059V487.318H372.323L372.249 486.664C372.167 486.795 372.061 486.917 371.93 487.032C371.799 487.146 371.641 487.239 371.456 487.31C371.276 487.381 371.063 487.416 370.818 487.416ZM370.981 486.705C371.232 486.705 371.453 486.642 371.644 486.517C371.835 486.391 371.979 486.214 372.077 485.985C372.181 485.756 372.233 485.483 372.233 485.167C372.233 484.851 372.181 484.578 372.077 484.349C371.979 484.114 371.835 483.937 371.644 483.817C371.453 483.692 371.232 483.629 370.981 483.629C370.741 483.629 370.526 483.692 370.335 483.817C370.144 483.943 369.994 484.12 369.885 484.349C369.782 484.578 369.73 484.851 369.73 485.167C369.73 485.478 369.782 485.75 369.885 485.985C369.994 486.214 370.144 486.391 370.335 486.517C370.526 486.642 370.741 486.705 370.981 486.705Z" fill="#A3AED0"/>
<path d="M361.816 501.73C361.235 501.73 360.707 501.623 360.233 501.411C359.767 501.198 359.394 500.899 359.116 500.515C358.838 500.13 358.699 499.685 358.699 499.178C358.699 498.826 358.756 498.507 358.871 498.221C358.985 497.934 359.149 497.681 359.362 497.46C359.574 497.239 359.824 497.071 360.11 496.957C359.75 496.785 359.46 496.54 359.239 496.221C359.018 495.902 358.908 495.542 358.908 495.141C358.908 494.74 359.018 494.364 359.239 494.012C359.46 493.66 359.783 493.378 360.208 493.166C360.642 492.953 361.178 492.847 361.816 492.847C362.462 492.847 362.998 492.953 363.423 493.166C363.856 493.378 364.18 493.66 364.392 494.012C364.613 494.364 364.723 494.74 364.723 495.141C364.723 495.534 364.613 495.893 364.392 496.221C364.171 496.54 363.881 496.785 363.521 496.957C363.816 497.079 364.069 497.251 364.282 497.472C364.494 497.685 364.658 497.934 364.773 498.221C364.887 498.507 364.944 498.826 364.944 499.178C364.944 499.685 364.805 500.13 364.527 500.515C364.249 500.899 363.873 501.198 363.398 501.411C362.932 501.623 362.405 501.73 361.816 501.73ZM361.816 500.343C362.315 500.343 362.691 500.22 362.944 499.975C363.198 499.73 363.325 499.419 363.325 499.043C363.325 498.625 363.19 498.298 362.92 498.061C362.658 497.816 362.29 497.693 361.816 497.693C361.349 497.693 360.981 497.816 360.711 498.061C360.441 498.298 360.306 498.625 360.306 499.043C360.306 499.419 360.433 499.73 360.687 499.975C360.949 500.22 361.325 500.343 361.816 500.343ZM361.816 496.478C362.225 496.478 362.54 496.372 362.76 496.159C362.989 495.947 363.104 495.673 363.104 495.337C363.104 494.977 362.989 494.699 362.76 494.503C362.54 494.298 362.225 494.196 361.816 494.196C361.415 494.196 361.1 494.298 360.871 494.503C360.65 494.699 360.54 494.981 360.54 495.349C360.54 495.677 360.65 495.947 360.871 496.159C361.1 496.372 361.415 496.478 361.816 496.478ZM369.727 501.73C368.958 501.73 368.296 501.541 367.739 501.165C367.191 500.789 366.77 500.27 366.476 499.607C366.181 498.936 366.034 498.163 366.034 497.288C366.034 496.413 366.181 495.644 366.476 494.981C366.77 494.311 367.191 493.787 367.739 493.411C368.296 493.035 368.958 492.847 369.727 492.847C370.496 492.847 371.154 493.035 371.702 493.411C372.25 493.787 372.672 494.311 372.966 494.981C373.261 495.644 373.408 496.413 373.408 497.288C373.408 498.163 373.261 498.936 372.966 499.607C372.672 500.27 372.25 500.789 371.702 501.165C371.154 501.541 370.496 501.73 369.727 501.73ZM369.727 500.245C370.12 500.245 370.467 500.126 370.77 499.889C371.073 499.644 371.306 499.3 371.469 498.859C371.641 498.417 371.727 497.893 371.727 497.288C371.727 496.675 371.641 496.151 371.469 495.718C371.306 495.276 371.073 494.936 370.77 494.699C370.467 494.462 370.12 494.343 369.727 494.343C369.334 494.343 368.983 494.462 368.672 494.699C368.369 494.936 368.132 495.276 367.96 495.718C367.797 496.151 367.715 496.675 367.715 497.288C367.715 497.893 367.797 498.417 367.96 498.859C368.132 499.3 368.369 499.644 368.672 499.889C368.983 500.126 369.334 500.245 369.727 500.245ZM376.123 501.582L380.945 492.994H382.565L377.743 501.582H376.123ZM382.332 501.73C381.931 501.73 381.567 501.644 381.24 501.472C380.921 501.292 380.667 501.038 380.479 500.711C380.291 500.376 380.197 499.983 380.197 499.533C380.197 499.075 380.291 498.683 380.479 498.355C380.667 498.028 380.921 497.779 381.24 497.607C381.567 497.427 381.931 497.337 382.332 497.337C382.732 497.337 383.092 497.427 383.411 497.607C383.73 497.779 383.984 498.028 384.172 498.355C384.36 498.683 384.454 499.075 384.454 499.533C384.454 499.983 384.36 500.376 384.172 500.711C383.984 501.038 383.73 501.292 383.411 501.472C383.092 501.644 382.732 501.73 382.332 501.73ZM382.319 500.589C382.483 500.589 382.626 500.548 382.749 500.466C382.871 500.384 382.97 500.265 383.043 500.11C383.117 499.955 383.154 499.762 383.154 499.533C383.154 499.296 383.117 499.1 383.043 498.944C382.978 498.781 382.88 498.658 382.749 498.576C382.626 498.495 382.483 498.454 382.319 498.454C382.164 498.454 382.021 498.495 381.89 498.576C381.767 498.658 381.669 498.781 381.595 498.944C381.522 499.1 381.485 499.296 381.485 499.533C381.485 499.762 381.522 499.955 381.595 500.11C381.669 500.265 381.767 500.384 381.89 500.466C382.021 500.548 382.164 500.589 382.319 500.589ZM376.418 497.251C376.025 497.251 375.665 497.161 375.338 496.981C375.019 496.801 374.761 496.548 374.565 496.221C374.377 495.893 374.283 495.505 374.283 495.055C374.283 494.589 374.377 494.196 374.565 493.877C374.761 493.55 375.019 493.296 375.338 493.116C375.665 492.937 376.029 492.847 376.43 492.847C376.831 492.847 377.187 492.937 377.497 493.116C377.816 493.296 378.07 493.55 378.258 493.877C378.454 494.196 378.553 494.589 378.553 495.055C378.553 495.505 378.454 495.893 378.258 496.221C378.07 496.548 377.816 496.801 377.497 496.981C377.178 497.161 376.819 497.251 376.418 497.251ZM376.418 496.11C376.573 496.11 376.712 496.069 376.835 495.987C376.966 495.906 377.068 495.787 377.142 495.632C377.215 495.476 377.252 495.284 377.252 495.055C377.252 494.81 377.215 494.609 377.142 494.454C377.068 494.298 376.966 494.18 376.835 494.098C376.712 494.016 376.573 493.975 376.418 493.975C376.262 493.975 376.119 494.016 375.988 494.098C375.866 494.18 375.767 494.302 375.694 494.466C375.62 494.621 375.583 494.818 375.583 495.055C375.583 495.284 375.62 495.476 375.694 495.632C375.767 495.787 375.866 495.906 375.988 495.987C376.119 496.069 376.262 496.11 376.418 496.11Z" fill="#2B3674"/>
<circle cx="351.803" cy="484.766" r="2.72653" fill="#1A237E"/>
<path d="M481.958 488.215C481.559 488.215 481.197 488.136 480.87 487.978C480.542 487.815 480.281 487.569 480.084 487.242C479.894 486.909 479.798 486.487 479.798 485.974V482.392H480.616V485.982C480.616 486.326 480.671 486.61 480.78 486.833C480.894 487.051 481.055 487.215 481.262 487.324C481.47 487.427 481.707 487.479 481.974 487.479C482.252 487.479 482.492 487.427 482.694 487.324C482.895 487.215 483.051 487.051 483.16 486.833C483.274 486.61 483.332 486.326 483.332 485.982V482.392H484.15V485.974C484.15 486.487 484.052 486.909 483.855 487.242C483.659 487.569 483.394 487.815 483.062 487.978C482.735 488.136 482.367 488.215 481.958 488.215ZM485.091 488.117V483.815H485.827L485.876 484.477C485.996 484.237 486.173 484.052 486.408 483.921C486.642 483.785 486.918 483.717 487.234 483.717C487.556 483.717 487.834 483.779 488.068 483.905C488.303 484.025 488.483 484.21 488.608 484.461C488.739 484.706 488.805 485.017 488.805 485.394V488.117H487.987V485.475C487.987 485.126 487.899 484.862 487.725 484.682C487.55 484.502 487.313 484.412 487.013 484.412C486.812 484.412 486.626 484.458 486.457 484.551C486.293 484.644 486.16 484.78 486.056 484.96C485.958 485.14 485.909 485.358 485.909 485.614V488.117H485.091ZM489.776 489.917V483.815H490.512L490.594 484.453C490.676 484.317 490.782 484.194 490.913 484.085C491.044 483.976 491.199 483.888 491.379 483.823C491.559 483.752 491.769 483.717 492.009 483.717C492.396 483.717 492.734 483.815 493.023 484.011C493.318 484.207 493.544 484.475 493.702 484.813C493.866 485.151 493.948 485.538 493.948 485.974C493.948 486.405 493.863 486.789 493.694 487.128C493.531 487.466 493.302 487.733 493.007 487.929C492.718 488.12 492.385 488.215 492.009 488.215C491.682 488.215 491.398 488.153 491.158 488.027C490.919 487.896 490.73 487.717 490.594 487.487V489.917H489.776ZM491.862 487.504C492.102 487.504 492.315 487.444 492.5 487.324C492.685 487.198 492.833 487.021 492.942 486.792C493.056 486.558 493.113 486.282 493.113 485.966C493.113 485.65 493.056 485.377 492.942 485.148C492.833 484.919 492.685 484.742 492.5 484.616C492.315 484.491 492.102 484.428 491.862 484.428C491.606 484.428 491.382 484.491 491.191 484.616C491.006 484.742 490.861 484.919 490.758 485.148C490.654 485.377 490.602 485.65 490.602 485.966C490.602 486.282 490.654 486.555 490.758 486.784C490.861 487.013 491.006 487.19 491.191 487.316C491.382 487.441 491.606 487.504 491.862 487.504ZM496.139 488.215C495.806 488.215 495.53 488.155 495.312 488.036C495.094 487.916 494.931 487.755 494.822 487.553C494.713 487.346 494.658 487.125 494.658 486.89C494.658 486.618 494.729 486.383 494.871 486.187C495.012 485.985 495.211 485.832 495.468 485.729C495.73 485.62 496.04 485.565 496.4 485.565H497.447C497.447 485.304 497.417 485.088 497.357 484.919C497.303 484.745 497.207 484.614 497.071 484.526C496.935 484.439 496.749 484.396 496.515 484.396C496.286 484.396 496.092 484.45 495.934 484.559C495.776 484.668 495.675 484.832 495.631 485.05H494.813C494.846 484.766 494.942 484.526 495.1 484.33C495.258 484.128 495.46 483.976 495.705 483.872C495.956 483.768 496.226 483.717 496.515 483.717C496.907 483.717 497.232 483.785 497.488 483.921C497.75 484.058 497.943 484.251 498.069 484.502C498.2 484.747 498.265 485.042 498.265 485.385V488.117H497.554L497.488 487.414C497.434 487.523 497.363 487.627 497.275 487.725C497.194 487.823 497.096 487.91 496.981 487.986C496.872 488.057 496.747 488.112 496.605 488.15C496.463 488.194 496.308 488.215 496.139 488.215ZM496.286 487.553C496.449 487.553 496.599 487.517 496.736 487.447C496.877 487.37 497 487.269 497.104 487.144C497.207 487.019 497.286 486.877 497.341 486.719C497.401 486.555 497.434 486.386 497.439 486.211V486.146H496.482C496.253 486.146 496.068 486.176 495.926 486.236C495.784 486.291 495.68 486.372 495.615 486.481C495.55 486.585 495.517 486.705 495.517 486.841C495.517 486.983 495.547 487.108 495.607 487.218C495.667 487.321 495.754 487.403 495.869 487.463C495.989 487.523 496.128 487.553 496.286 487.553ZM499.299 488.117V483.815H500.117V488.117H499.299ZM499.708 483.095C499.55 483.095 499.419 483.046 499.316 482.948C499.218 482.85 499.168 482.724 499.168 482.572C499.168 482.424 499.218 482.304 499.316 482.212C499.419 482.113 499.55 482.064 499.708 482.064C499.861 482.064 499.989 482.113 500.093 482.212C500.196 482.304 500.248 482.424 500.248 482.572C500.248 482.724 500.196 482.85 500.093 482.948C499.989 483.046 499.861 483.095 499.708 483.095ZM502.914 488.215C502.538 488.215 502.203 488.12 501.908 487.929C501.619 487.733 501.393 487.466 501.229 487.128C501.071 486.789 500.992 486.405 500.992 485.974C500.992 485.533 501.074 485.143 501.237 484.805C501.401 484.466 501.63 484.202 501.924 484.011C502.219 483.815 502.56 483.717 502.947 483.717C503.269 483.717 503.547 483.779 503.781 483.905C504.016 484.03 504.201 484.207 504.337 484.436V482.228H505.155V488.117H504.419L504.346 487.463C504.264 487.594 504.157 487.717 504.027 487.831C503.896 487.946 503.738 488.038 503.552 488.109C503.372 488.18 503.16 488.215 502.914 488.215ZM503.078 487.504C503.329 487.504 503.549 487.441 503.74 487.316C503.931 487.19 504.076 487.013 504.174 486.784C504.277 486.555 504.329 486.282 504.329 485.966C504.329 485.65 504.277 485.377 504.174 485.148C504.076 484.914 503.931 484.736 503.74 484.616C503.549 484.491 503.329 484.428 503.078 484.428C502.838 484.428 502.622 484.491 502.432 484.616C502.241 484.742 502.091 484.919 501.982 485.148C501.878 485.377 501.826 485.65 501.826 485.966C501.826 486.277 501.878 486.55 501.982 486.784C502.091 487.013 502.241 487.19 502.432 487.316C502.622 487.441 502.838 487.504 503.078 487.504Z" fill="#A3AED0"/>
<path d="M483.117 501.73C482.471 501.73 481.923 501.611 481.473 501.374C481.031 501.137 480.679 500.822 480.418 500.429C480.156 500.029 479.964 499.583 479.841 499.092C479.727 498.593 479.669 498.086 479.669 497.571C479.669 496.605 479.8 495.771 480.062 495.068C480.332 494.364 480.72 493.82 481.227 493.436C481.735 493.043 482.348 492.847 483.068 492.847C483.673 492.847 484.184 492.961 484.602 493.19C485.019 493.42 485.342 493.722 485.571 494.098C485.8 494.467 485.935 494.867 485.976 495.301H484.43C484.364 494.949 484.213 494.679 483.976 494.491C483.739 494.303 483.432 494.209 483.056 494.209C482.704 494.209 482.397 494.319 482.135 494.54C481.874 494.753 481.669 495.072 481.522 495.497C481.383 495.922 481.305 496.454 481.289 497.092C481.289 497.109 481.289 497.125 481.289 497.141C481.289 497.158 481.289 497.17 481.289 497.178C481.412 496.957 481.579 496.761 481.792 496.589C482.005 496.417 482.25 496.282 482.528 496.184C482.806 496.078 483.097 496.025 483.399 496.025C483.874 496.025 484.315 496.139 484.724 496.368C485.133 496.597 485.46 496.92 485.706 497.338C485.959 497.755 486.086 498.25 486.086 498.822C486.086 499.337 485.959 499.82 485.706 500.27C485.452 500.712 485.105 501.067 484.663 501.337C484.221 501.599 483.706 501.73 483.117 501.73ZM483.019 500.307C483.297 500.307 483.546 500.245 483.767 500.123C483.996 500 484.172 499.832 484.295 499.62C484.426 499.399 484.491 499.149 484.491 498.871C484.491 498.577 484.426 498.323 484.295 498.111C484.172 497.898 483.996 497.73 483.767 497.607C483.546 497.485 483.293 497.423 483.007 497.423C482.72 497.423 482.463 497.485 482.234 497.607C482.013 497.73 481.833 497.898 481.694 498.111C481.563 498.323 481.497 498.573 481.497 498.859C481.497 499.145 481.563 499.399 481.694 499.62C481.833 499.832 482.017 500 482.246 500.123C482.475 500.245 482.733 500.307 483.019 500.307ZM488.87 501.583L493.692 492.994H495.312L490.49 501.583H488.87ZM495.079 501.73C494.678 501.73 494.314 501.644 493.987 501.472C493.668 501.292 493.414 501.039 493.226 500.712C493.038 500.376 492.944 499.984 492.944 499.534C492.944 499.076 493.038 498.683 493.226 498.356C493.414 498.029 493.668 497.779 493.987 497.607C494.314 497.428 494.678 497.338 495.079 497.338C495.48 497.338 495.839 497.428 496.158 497.607C496.477 497.779 496.731 498.029 496.919 498.356C497.107 498.683 497.201 499.076 497.201 499.534C497.201 499.984 497.107 500.376 496.919 500.712C496.731 501.039 496.477 501.292 496.158 501.472C495.839 501.644 495.48 501.73 495.079 501.73ZM495.066 500.589C495.23 500.589 495.373 500.548 495.496 500.466C495.619 500.384 495.717 500.266 495.79 500.11C495.864 499.955 495.901 499.763 495.901 499.534C495.901 499.297 495.864 499.1 495.79 498.945C495.725 498.781 495.627 498.659 495.496 498.577C495.373 498.495 495.23 498.454 495.066 498.454C494.911 498.454 494.768 498.495 494.637 498.577C494.514 498.659 494.416 498.781 494.343 498.945C494.269 499.1 494.232 499.297 494.232 499.534C494.232 499.763 494.269 499.955 494.343 500.11C494.416 500.266 494.514 500.384 494.637 500.466C494.768 500.548 494.911 500.589 495.066 500.589ZM489.165 497.252C488.772 497.252 488.412 497.162 488.085 496.982C487.766 496.802 487.509 496.548 487.312 496.221C487.124 495.894 487.03 495.505 487.03 495.055C487.03 494.589 487.124 494.197 487.312 493.878C487.509 493.55 487.766 493.297 488.085 493.117C488.412 492.937 488.776 492.847 489.177 492.847C489.578 492.847 489.934 492.937 490.245 493.117C490.564 493.297 490.817 493.55 491.005 493.878C491.202 494.197 491.3 494.589 491.3 495.055C491.3 495.505 491.202 495.894 491.005 496.221C490.817 496.548 490.564 496.802 490.245 496.982C489.926 497.162 489.566 497.252 489.165 497.252ZM489.165 496.111C489.32 496.111 489.459 496.07 489.582 495.988C489.713 495.906 489.815 495.788 489.889 495.632C489.962 495.477 489.999 495.284 489.999 495.055C489.999 494.81 489.962 494.61 489.889 494.454C489.815 494.299 489.713 494.18 489.582 494.098C489.459 494.017 489.32 493.976 489.165 493.976C489.009 493.976 488.866 494.017 488.735 494.098C488.613 494.18 488.515 494.303 488.441 494.467C488.367 494.622 488.331 494.818 488.331 495.055C488.331 495.284 488.367 495.477 488.441 495.632C488.515 495.788 488.613 495.906 488.735 495.988C488.866 496.07 489.009 496.111 489.165 496.111Z" fill="#2B3674"/>
<circle cx="472.896" cy="484.766" r="2.72653" fill="#FFAC90"/>
</g>
</g>
<rect x="300.446" y="307.446" width="262.109" height="234.348" rx="13.9592" stroke="#D5D9DC" stroke-width="0.891056"/>
</g>
<g filter="url(#filter6_d_1466_1060)">
<rect x="334" y="82" width="105.714" height="148" rx="4.45113" fill="white" shape-rendering="crispEdges"/>
<rect x="334.556" y="82.5564" width="104.602" height="146.887" rx="3.89474" stroke="#D5D9DC" stroke-width="1.11278" shape-rendering="crispEdges"/>
<rect x="359.038" y="98.9248" width="55.6391" height="55.6391" rx="27.8195" fill="#E9ECFF"/>
<path d="M387.785 125.817H385.93V128.599H383.148V130.454H385.93V133.236H387.785V130.454H390.567V128.599H387.785V125.817ZM388.712 117.471H381.294C380.274 117.471 379.439 118.306 379.439 119.326V134.163C379.439 135.183 380.264 136.018 381.284 136.018H392.421C393.441 136.018 394.276 135.183 394.276 134.163V123.035L388.712 117.471ZM392.421 134.163H381.294V119.326H387.785V123.962H392.421V134.163Z" fill="#1A237E"/>
<path d="M348.764 176.803C348.222 176.803 347.714 176.703 347.239 176.503C346.772 176.295 346.36 176.009 346.004 175.646C345.656 175.282 345.381 174.859 345.181 174.377C344.98 173.895 344.88 173.376 344.88 172.819C344.88 172.263 344.98 171.747 345.181 171.273C345.381 170.79 345.659 170.367 346.015 170.004C346.371 169.64 346.787 169.359 347.262 169.158C347.744 168.958 348.267 168.858 348.831 168.858C349.446 168.858 350.014 168.977 350.533 169.214C351.053 169.451 351.487 169.793 351.835 170.238L351.112 170.961C350.867 170.605 350.544 170.334 350.144 170.149C349.743 169.956 349.305 169.859 348.831 169.859C348.267 169.859 347.766 169.985 347.328 170.238C346.898 170.49 346.561 170.839 346.316 171.284C346.078 171.729 345.96 172.241 345.96 172.819C345.96 173.405 346.082 173.921 346.327 174.366C346.572 174.811 346.902 175.16 347.317 175.412C347.733 175.664 348.208 175.79 348.742 175.79C349.283 175.79 349.751 175.687 350.144 175.479C350.544 175.271 350.852 174.967 351.067 174.566C351.283 174.158 351.39 173.661 351.39 173.075L352.024 173.532H348.686V172.575H352.469V172.73C352.469 173.628 352.31 174.381 351.991 174.989C351.679 175.59 351.242 176.043 350.678 176.347C350.122 176.651 349.484 176.803 348.764 176.803ZM356.147 176.803C355.62 176.803 355.145 176.684 354.722 176.447C354.299 176.202 353.965 175.872 353.721 175.457C353.476 175.041 353.353 174.57 353.353 174.043C353.353 173.524 353.472 173.057 353.71 172.641C353.954 172.226 354.281 171.899 354.689 171.662C355.104 171.417 355.568 171.295 356.08 171.295C356.569 171.295 357 171.406 357.371 171.629C357.749 171.851 358.042 172.159 358.25 172.552C358.465 172.945 358.572 173.391 358.572 173.888C358.572 173.962 358.569 174.043 358.561 174.132C358.554 174.214 358.539 174.31 358.517 174.422H354.054V173.587H357.983L357.615 173.91C357.615 173.554 357.552 173.253 357.426 173.008C357.3 172.756 357.122 172.563 356.892 172.43C356.662 172.289 356.384 172.218 356.058 172.218C355.716 172.218 355.416 172.293 355.156 172.441C354.897 172.589 354.696 172.797 354.555 173.064C354.414 173.331 354.344 173.646 354.344 174.01C354.344 174.381 354.418 174.707 354.566 174.989C354.715 175.264 354.926 175.479 355.201 175.635C355.475 175.783 355.79 175.857 356.147 175.857C356.443 175.857 356.714 175.805 356.959 175.701C357.211 175.598 357.426 175.442 357.604 175.234L358.25 175.891C357.997 176.187 357.686 176.414 357.315 176.569C356.951 176.725 356.562 176.803 356.147 176.803ZM363.403 176.692V173.609C363.403 173.209 363.277 172.879 363.025 172.619C362.773 172.359 362.446 172.23 362.046 172.23C361.779 172.23 361.541 172.289 361.334 172.408C361.126 172.526 360.963 172.689 360.844 172.897C360.725 173.105 360.666 173.342 360.666 173.609L360.254 173.376C360.254 172.975 360.343 172.619 360.521 172.307C360.699 171.996 360.948 171.751 361.267 171.573C361.586 171.388 361.946 171.295 362.346 171.295C362.747 171.295 363.099 171.395 363.403 171.595C363.715 171.796 363.96 172.059 364.138 172.385C364.316 172.704 364.405 173.046 364.405 173.409V176.692H363.403ZM359.664 176.692V171.406H360.666V176.692H359.664ZM368.209 176.803C367.682 176.803 367.207 176.684 366.785 176.447C366.362 176.202 366.028 175.872 365.783 175.457C365.538 175.041 365.416 174.57 365.416 174.043C365.416 173.524 365.535 173.057 365.772 172.641C366.017 172.226 366.343 171.899 366.751 171.662C367.167 171.417 367.63 171.295 368.142 171.295C368.632 171.295 369.062 171.406 369.433 171.629C369.811 171.851 370.104 172.159 370.312 172.552C370.527 172.945 370.635 173.391 370.635 173.888C370.635 173.962 370.631 174.043 370.624 174.132C370.616 174.214 370.601 174.31 370.579 174.422H366.117V173.587H370.045L369.678 173.91C369.678 173.554 369.615 173.253 369.489 173.008C369.362 172.756 369.184 172.563 368.954 172.43C368.724 172.289 368.446 172.218 368.12 172.218C367.779 172.218 367.478 172.293 367.219 172.441C366.959 172.589 366.759 172.797 366.618 173.064C366.477 173.331 366.406 173.646 366.406 174.01C366.406 174.381 366.48 174.707 366.629 174.989C366.777 175.264 366.989 175.479 367.263 175.635C367.538 175.783 367.853 175.857 368.209 175.857C368.506 175.857 368.776 175.805 369.021 175.701C369.273 175.598 369.489 175.442 369.667 175.234L370.312 175.891C370.06 176.187 369.748 176.414 369.377 176.569C369.014 176.725 368.624 176.803 368.209 176.803ZM371.727 176.692V171.406H372.728V176.692H371.727ZM372.728 173.676L372.35 173.509C372.35 172.834 372.506 172.296 372.817 171.896C373.129 171.495 373.578 171.295 374.164 171.295C374.431 171.295 374.672 171.343 374.887 171.439C375.102 171.528 375.303 171.681 375.488 171.896L374.831 172.575C374.72 172.456 374.598 172.37 374.464 172.319C374.331 172.267 374.175 172.241 373.997 172.241C373.626 172.241 373.322 172.359 373.084 172.597C372.847 172.834 372.728 173.194 372.728 173.676ZM378.267 176.803C377.785 176.803 377.347 176.684 376.954 176.447C376.561 176.202 376.249 175.872 376.019 175.457C375.797 175.041 375.685 174.574 375.685 174.055C375.685 173.535 375.797 173.068 376.019 172.652C376.249 172.237 376.557 171.907 376.943 171.662C377.336 171.417 377.777 171.295 378.267 171.295C378.668 171.295 379.024 171.38 379.335 171.551C379.654 171.714 379.91 171.944 380.103 172.241C380.296 172.53 380.404 172.868 380.426 173.253V174.845C380.404 175.223 380.296 175.56 380.103 175.857C379.918 176.154 379.665 176.388 379.346 176.558C379.035 176.721 378.675 176.803 378.267 176.803ZM378.434 175.857C378.931 175.857 379.332 175.69 379.636 175.356C379.94 175.015 380.092 174.581 380.092 174.055C380.092 173.691 380.022 173.376 379.881 173.109C379.747 172.834 379.554 172.623 379.302 172.474C379.05 172.319 378.757 172.241 378.423 172.241C378.089 172.241 377.792 172.319 377.533 172.474C377.28 172.63 377.08 172.845 376.932 173.12C376.791 173.387 376.72 173.695 376.72 174.043C376.72 174.399 376.791 174.715 376.932 174.989C377.08 175.256 377.284 175.468 377.544 175.624C377.803 175.779 378.1 175.857 378.434 175.857ZM380.025 176.692V175.267L380.214 173.977L380.025 172.697V171.406H381.038V176.692H380.025ZM383.287 176.692V169.192H384.288V176.692H383.287ZM381.985 172.319V171.406H385.59V172.319H381.985ZM388.856 176.803C388.33 176.803 387.855 176.684 387.432 176.447C387.009 176.202 386.675 175.872 386.43 175.457C386.186 175.041 386.063 174.57 386.063 174.043C386.063 173.524 386.182 173.057 386.419 172.641C386.664 172.226 386.99 171.899 387.398 171.662C387.814 171.417 388.278 171.295 388.789 171.295C389.279 171.295 389.709 171.406 390.08 171.629C390.459 171.851 390.752 172.159 390.959 172.552C391.175 172.945 391.282 173.391 391.282 173.888C391.282 173.962 391.278 174.043 391.271 174.132C391.264 174.214 391.249 174.31 391.226 174.422H386.764V173.587H390.692L390.325 173.91C390.325 173.554 390.262 173.253 390.136 173.008C390.01 172.756 389.832 172.563 389.602 172.43C389.372 172.289 389.094 172.218 388.767 172.218C388.426 172.218 388.126 172.293 387.866 172.441C387.606 172.589 387.406 172.797 387.265 173.064C387.124 173.331 387.054 173.646 387.054 174.01C387.054 174.381 387.128 174.707 387.276 174.989C387.424 175.264 387.636 175.479 387.91 175.635C388.185 175.783 388.5 175.857 388.856 175.857C389.153 175.857 389.424 175.805 389.669 175.701C389.921 175.598 390.136 175.442 390.314 175.234L390.959 175.891C390.707 176.187 390.396 176.414 390.025 176.569C389.661 176.725 389.272 176.803 388.856 176.803ZM394.867 176.692V168.969H395.913V176.692H394.867ZM401.297 176.692V173.609C401.297 173.209 401.17 172.879 400.918 172.619C400.666 172.359 400.34 172.23 399.939 172.23C399.672 172.23 399.435 172.289 399.227 172.408C399.019 172.526 398.856 172.689 398.737 172.897C398.619 173.105 398.559 173.342 398.559 173.609L398.147 173.376C398.147 172.975 398.236 172.619 398.415 172.307C398.593 171.996 398.841 171.751 399.16 171.573C399.479 171.388 399.839 171.295 400.239 171.295C400.64 171.295 400.992 171.395 401.297 171.595C401.608 171.796 401.853 172.059 402.031 172.385C402.209 172.704 402.298 173.046 402.298 173.409V176.692H401.297ZM397.558 176.692V171.406H398.559V176.692H397.558ZM405.468 176.692L403.042 171.406H404.155L406.102 175.868H405.457L407.415 171.406H408.484L406.058 176.692H405.468ZM411.546 176.803C411.026 176.803 410.559 176.681 410.144 176.436C409.728 176.191 409.398 175.861 409.153 175.445C408.908 175.023 408.786 174.552 408.786 174.032C408.786 173.52 408.908 173.06 409.153 172.652C409.398 172.237 409.728 171.907 410.144 171.662C410.559 171.417 411.026 171.295 411.546 171.295C412.058 171.295 412.521 171.417 412.937 171.662C413.36 171.899 413.693 172.226 413.938 172.641C414.183 173.057 414.305 173.52 414.305 174.032C414.305 174.552 414.183 175.023 413.938 175.445C413.693 175.861 413.36 176.191 412.937 176.436C412.521 176.681 412.058 176.803 411.546 176.803ZM411.546 175.835C411.88 175.835 412.176 175.757 412.436 175.601C412.696 175.445 412.9 175.234 413.048 174.967C413.196 174.693 413.271 174.381 413.271 174.032C413.271 173.691 413.193 173.387 413.037 173.12C412.889 172.853 412.685 172.645 412.425 172.497C412.173 172.341 411.88 172.263 411.546 172.263C411.212 172.263 410.915 172.341 410.656 172.497C410.396 172.645 410.192 172.853 410.044 173.12C409.895 173.387 409.821 173.691 409.821 174.032C409.821 174.381 409.895 174.693 410.044 174.967C410.192 175.234 410.396 175.445 410.656 175.601C410.915 175.757 411.212 175.835 411.546 175.835ZM415.445 176.692V171.406H416.447V176.692H415.445ZM415.946 170.349C415.76 170.349 415.608 170.29 415.49 170.171C415.371 170.045 415.311 169.889 415.311 169.704C415.311 169.525 415.371 169.377 415.49 169.258C415.608 169.132 415.76 169.069 415.946 169.069C416.131 169.069 416.283 169.132 416.402 169.258C416.521 169.377 416.58 169.525 416.58 169.704C416.58 169.889 416.521 170.045 416.402 170.171C416.283 170.29 416.131 170.349 415.946 170.349ZM420.337 176.803C419.818 176.803 419.347 176.681 418.924 176.436C418.509 176.191 418.178 175.861 417.934 175.445C417.696 175.023 417.577 174.555 417.577 174.043C417.577 173.524 417.696 173.057 417.934 172.641C418.178 172.226 418.509 171.899 418.924 171.662C419.347 171.417 419.818 171.295 420.337 171.295C420.745 171.295 421.124 171.373 421.472 171.528C421.821 171.677 422.121 171.896 422.374 172.185L421.706 172.853C421.543 172.66 421.342 172.515 421.105 172.419C420.875 172.315 420.619 172.263 420.337 172.263C420.003 172.263 419.707 172.341 419.447 172.497C419.187 172.645 418.983 172.853 418.835 173.12C418.687 173.387 418.612 173.695 418.612 174.043C418.612 174.392 418.687 174.7 418.835 174.967C418.983 175.234 419.187 175.445 419.447 175.601C419.707 175.757 420.003 175.835 420.337 175.835C420.619 175.835 420.875 175.787 421.105 175.69C421.342 175.586 421.546 175.438 421.717 175.245L422.374 175.913C422.129 176.195 421.828 176.414 421.472 176.569C421.124 176.725 420.745 176.803 420.337 176.803ZM425.706 176.803C425.18 176.803 424.705 176.684 424.282 176.447C423.859 176.202 423.525 175.872 423.28 175.457C423.036 175.041 422.913 174.57 422.913 174.043C422.913 173.524 423.032 173.057 423.269 172.641C423.514 172.226 423.841 171.899 424.249 171.662C424.664 171.417 425.128 171.295 425.64 171.295C426.129 171.295 426.559 171.406 426.93 171.629C427.309 171.851 427.602 172.159 427.809 172.552C428.025 172.945 428.132 173.391 428.132 173.888C428.132 173.962 428.128 174.043 428.121 174.132C428.114 174.214 428.099 174.31 428.076 174.422H423.614V173.587H427.542L427.175 173.91C427.175 173.554 427.112 173.253 426.986 173.008C426.86 172.756 426.682 172.563 426.452 172.43C426.222 172.289 425.944 172.218 425.617 172.218C425.276 172.218 424.976 172.293 424.716 172.441C424.456 172.589 424.256 172.797 424.115 173.064C423.974 173.331 423.904 173.646 423.904 174.01C423.904 174.381 423.978 174.707 424.126 174.989C424.274 175.264 424.486 175.479 424.76 175.635C425.035 175.783 425.35 175.857 425.706 175.857C426.003 175.857 426.274 175.805 426.519 175.701C426.771 175.598 426.986 175.442 427.164 175.234L427.809 175.891C427.557 176.187 427.246 176.414 426.875 176.569C426.511 176.725 426.122 176.803 425.706 176.803Z" fill="black"/>
<rect x="340.12" y="184.143" width="93.4737" height="6.67669" rx="3.33835" fill="#F5F5F5"/>
<rect x="340.12" y="195.271" width="93.4737" height="6.67669" rx="3.33835" fill="#F5F5F5"/>
<rect x="353.474" y="206.399" width="66.7669" height="6.67669" rx="3.33835" fill="#F5F5F5"/>
</g>
<g filter="url(#filter7_d_1466_1060)">
<rect x="456.851" y="82" width="105.714" height="148" rx="4.45113" fill="white" shape-rendering="crispEdges"/>
<rect x="457.407" y="82.5564" width="104.602" height="146.887" rx="3.89474" stroke="#D5D9DC" stroke-width="1.11278" shape-rendering="crispEdges"/>
<rect x="481.889" y="98.9248" width="55.6391" height="55.6391" rx="27.8195" fill="#E9ECFF"/>
<path d="M509.708 121.644C513.223 121.644 516.357 123.619 517.887 126.744C516.357 129.869 513.223 131.845 509.708 131.845C506.194 131.845 503.06 129.869 501.529 126.744C503.06 123.619 506.194 121.644 509.708 121.644ZM509.708 119.789C505.072 119.789 501.112 122.673 499.508 126.744C501.112 130.815 505.072 133.699 509.708 133.699C514.345 133.699 518.305 130.815 519.909 126.744C518.305 122.673 514.345 119.789 509.708 119.789ZM509.708 124.426C510.988 124.426 512.027 125.465 512.027 126.744C512.027 128.024 510.988 129.063 509.708 129.063C508.429 129.063 507.39 128.024 507.39 126.744C507.39 125.465 508.429 124.426 509.708 124.426ZM509.708 122.571C507.409 122.571 505.536 124.445 505.536 126.744C505.536 129.044 507.409 130.917 509.708 130.917C512.008 130.917 513.881 129.044 513.881 126.744C513.881 124.445 512.008 122.571 509.708 122.571Z" fill="#1A237E"/>
<path d="M473.647 176.692L470.553 168.969H471.688L474.236 175.501H473.825L476.395 168.969H477.519L474.403 176.692H473.647ZM478.615 176.692V171.406H479.616V176.692H478.615ZM479.116 170.349C478.93 170.349 478.778 170.29 478.659 170.171C478.541 170.045 478.481 169.889 478.481 169.704C478.481 169.525 478.541 169.377 478.659 169.258C478.778 169.132 478.93 169.069 479.116 169.069C479.301 169.069 479.453 169.132 479.572 169.258C479.691 169.377 479.75 169.525 479.75 169.704C479.75 169.889 479.691 170.045 479.572 170.171C479.453 170.29 479.301 170.349 479.116 170.349ZM483.54 176.803C483.014 176.803 482.539 176.684 482.116 176.447C481.693 176.202 481.359 175.872 481.115 175.457C480.87 175.041 480.747 174.57 480.747 174.043C480.747 173.524 480.866 173.057 481.103 172.641C481.348 172.226 481.675 171.899 482.083 171.662C482.498 171.417 482.962 171.295 483.474 171.295C483.963 171.295 484.394 171.406 484.765 171.629C485.143 171.851 485.436 172.159 485.644 172.552C485.859 172.945 485.966 173.391 485.966 173.888C485.966 173.962 485.963 174.043 485.955 174.132C485.948 174.214 485.933 174.31 485.911 174.422H481.448V173.587H485.377L485.009 173.91C485.009 173.554 484.946 173.253 484.82 173.008C484.694 172.756 484.516 172.563 484.286 172.43C484.056 172.289 483.778 172.218 483.451 172.218C483.11 172.218 482.81 172.293 482.55 172.441C482.29 172.589 482.09 172.797 481.949 173.064C481.808 173.331 481.738 173.646 481.738 174.01C481.738 174.381 481.812 174.707 481.96 174.989C482.109 175.264 482.32 175.479 482.595 175.635C482.869 175.783 483.184 175.857 483.54 175.857C483.837 175.857 484.108 175.805 484.353 175.701C484.605 175.598 484.82 175.442 484.998 175.234L485.644 175.891C485.391 176.187 485.08 176.414 484.709 176.569C484.345 176.725 483.956 176.803 483.54 176.803ZM488.507 176.692L486.414 171.406H487.461L488.974 175.523H488.64L490.142 171.406H490.721L492.223 175.523H491.889L493.403 171.406H494.449L492.368 176.692H491.778L490.254 172.697H490.621L489.085 176.692H488.507ZM495.339 174.333V173.387H499V174.333H495.339ZM499.633 176.692L502.794 168.969H503.55L506.699 176.692H505.564L502.972 170.16H503.361L500.746 176.692H499.633ZM501.135 174.945V174.032H505.197V174.945H501.135ZM507.771 176.692V168.747H508.772V176.692H507.771ZM510.238 176.692V168.747H511.239V176.692H510.238ZM515.197 176.692V168.969H516.243V176.692H515.197ZM521.627 176.692V173.609C521.627 173.209 521.501 172.879 521.249 172.619C520.996 172.359 520.67 172.23 520.269 172.23C520.002 172.23 519.765 172.289 519.557 172.408C519.35 172.526 519.186 172.689 519.068 172.897C518.949 173.105 518.89 173.342 518.89 173.609L518.478 173.376C518.478 172.975 518.567 172.619 518.745 172.307C518.923 171.996 519.171 171.751 519.49 171.573C519.809 171.388 520.169 171.295 520.57 171.295C520.97 171.295 521.323 171.395 521.627 171.595C521.939 171.796 522.183 172.059 522.361 172.385C522.539 172.704 522.629 173.046 522.629 173.409V176.692H521.627ZM517.888 176.692V171.406H518.89V176.692H517.888ZM525.798 176.692L523.372 171.406H524.485L526.433 175.868H525.787L527.746 171.406H528.814L526.388 176.692H525.798ZM531.876 176.803C531.357 176.803 530.889 176.681 530.474 176.436C530.059 176.191 529.728 175.861 529.484 175.445C529.239 175.023 529.116 174.552 529.116 174.032C529.116 173.52 529.239 173.06 529.484 172.652C529.728 172.237 530.059 171.907 530.474 171.662C530.889 171.417 531.357 171.295 531.876 171.295C532.388 171.295 532.852 171.417 533.267 171.662C533.69 171.899 534.024 172.226 534.269 172.641C534.513 173.057 534.636 173.52 534.636 174.032C534.636 174.552 534.513 175.023 534.269 175.445C534.024 175.861 533.69 176.191 533.267 176.436C532.852 176.681 532.388 176.803 531.876 176.803ZM531.876 175.835C532.21 175.835 532.507 175.757 532.766 175.601C533.026 175.445 533.23 175.234 533.378 174.967C533.527 174.693 533.601 174.381 533.601 174.032C533.601 173.691 533.523 173.387 533.367 173.12C533.219 172.853 533.015 172.645 532.755 172.497C532.503 172.341 532.21 172.263 531.876 172.263C531.542 172.263 531.246 172.341 530.986 172.497C530.726 172.645 530.522 172.853 530.374 173.12C530.226 173.387 530.151 173.691 530.151 174.032C530.151 174.381 530.226 174.693 530.374 174.967C530.522 175.234 530.726 175.445 530.986 175.601C531.246 175.757 531.542 175.835 531.876 175.835ZM535.775 176.692V171.406H536.777V176.692H535.775ZM536.276 170.349C536.091 170.349 535.939 170.29 535.82 170.171C535.701 170.045 535.642 169.889 535.642 169.704C535.642 169.525 535.701 169.377 535.82 169.258C535.939 169.132 536.091 169.069 536.276 169.069C536.462 169.069 536.614 169.132 536.732 169.258C536.851 169.377 536.91 169.525 536.91 169.704C536.91 169.889 536.851 170.045 536.732 170.171C536.614 170.29 536.462 170.349 536.276 170.349ZM540.668 176.803C540.148 176.803 539.677 176.681 539.254 176.436C538.839 176.191 538.509 175.861 538.264 175.445C538.027 175.023 537.908 174.555 537.908 174.043C537.908 173.524 538.027 173.057 538.264 172.641C538.509 172.226 538.839 171.899 539.254 171.662C539.677 171.417 540.148 171.295 540.668 171.295C541.076 171.295 541.454 171.373 541.803 171.528C542.151 171.677 542.452 171.896 542.704 172.185L542.036 172.853C541.873 172.66 541.673 172.515 541.435 172.419C541.205 172.315 540.949 172.263 540.668 172.263C540.334 172.263 540.037 172.341 539.777 172.497C539.518 172.645 539.314 172.853 539.165 173.12C539.017 173.387 538.943 173.695 538.943 174.043C538.943 174.392 539.017 174.7 539.165 174.967C539.314 175.234 539.518 175.445 539.777 175.601C540.037 175.757 540.334 175.835 540.668 175.835C540.949 175.835 541.205 175.787 541.435 175.69C541.673 175.586 541.877 175.438 542.047 175.245L542.704 175.913C542.459 176.195 542.159 176.414 541.803 176.569C541.454 176.725 541.076 176.803 540.668 176.803ZM546.037 176.803C545.51 176.803 545.035 176.684 544.612 176.447C544.189 176.202 543.856 175.872 543.611 175.457C543.366 175.041 543.244 174.57 543.244 174.043C543.244 173.524 543.362 173.057 543.6 172.641C543.844 172.226 544.171 171.899 544.579 171.662C544.994 171.417 545.458 171.295 545.97 171.295C546.46 171.295 546.89 171.406 547.261 171.629C547.639 171.851 547.932 172.159 548.14 172.552C548.355 172.945 548.463 173.391 548.463 173.888C548.463 173.962 548.459 174.043 548.451 174.132C548.444 174.214 548.429 174.31 548.407 174.422H543.945V173.587H547.873L547.506 173.91C547.506 173.554 547.442 173.253 547.316 173.008C547.19 172.756 547.012 172.563 546.782 172.43C546.552 172.289 546.274 172.218 545.948 172.218C545.606 172.218 545.306 172.293 545.046 172.441C544.787 172.589 544.586 172.797 544.445 173.064C544.304 173.331 544.234 173.646 544.234 174.01C544.234 174.381 544.308 174.707 544.457 174.989C544.605 175.264 544.816 175.479 545.091 175.635C545.365 175.783 545.681 175.857 546.037 175.857C546.333 175.857 546.604 175.805 546.849 175.701C547.101 175.598 547.316 175.442 547.494 175.234L548.14 175.891C547.888 176.187 547.576 176.414 547.205 176.569C546.842 176.725 546.452 176.803 546.037 176.803Z" fill="black"/>
<rect x="462.971" y="184.143" width="93.4737" height="6.67669" rx="3.33835" fill="#F5F5F5"/>
<rect x="462.971" y="195.271" width="93.4737" height="6.67669" rx="3.33835" fill="#F5F5F5"/>
<rect x="476.325" y="206.399" width="66.7669" height="6.67669" rx="3.33835" fill="#F5F5F5"/>
</g>
<defs>
<filter id="filter0_d_1466_1060" x="64" y="47" width="250.397" height="278.391" filterUnits="userSpaceOnUse" color-interpolation-filters="sRGB">
<feFlood flood-opacity="0" result="BackgroundImageFix"/>
<feColorMatrix in="SourceAlpha" type="matrix" values="0 0 0 0 0 0 0 0 0 0 0 0 0 0 0 0 0 0 127 0" result="hardAlpha"/>
<feOffset dy="4"/>
<feGaussianBlur stdDeviation="7"/>
<feComposite in2="hardAlpha" operator="out"/>
<feColorMatrix type="matrix" values="0 0 0 0 0 0 0 0 0 0 0 0 0 0 0 0 0 0 0.14 0"/>
<feBlend mode="normal" in2="BackgroundImageFix" result="effect1_dropShadow_1466_1060"/>
<feBlend mode="normal" in="SourceGraphic" in2="effect1_dropShadow_1466_1060" result="shape"/>
</filter>
<filter id="filter1_d_1466_1060" x="181.422" y="200.081" width="23.3284" height="74.6508" filterUnits="userSpaceOnUse" color-interpolation-filters="sRGB">
<feFlood flood-opacity="0" result="BackgroundImageFix"/>
<feColorMatrix in="SourceAlpha" type="matrix" values="0 0 0 0 0 0 0 0 0 0 0 0 0 0 0 0 0 0 127 0" result="hardAlpha"/>
<feOffset/>
<feGaussianBlur stdDeviation="3.88806"/>
<feComposite in2="hardAlpha" operator="out"/>
<feColorMatrix type="matrix" values="0 0 0 0 0 0 0 0 0 0 0 0 0 0 0 0 0 0 0.1 0"/>
<feBlend mode="normal" in2="BackgroundImageFix" result="effect1_dropShadow_1466_1060"/>
<feBlend mode="normal" in="SourceGraphic" in2="effect1_dropShadow_1466_1060" result="shape"/>
</filter>
<filter id="filter2_d_1466_1060" x="213.305" y="181.418" width="23.3284" height="93.3134" filterUnits="userSpaceOnUse" color-interpolation-filters="sRGB">
<feFlood flood-opacity="0" result="BackgroundImageFix"/>
<feColorMatrix in="SourceAlpha" type="matrix" values="0 0 0 0 0 0 0 0 0 0 0 0 0 0 0 0 0 0 127 0" result="hardAlpha"/>
<feOffset/>
<feGaussianBlur stdDeviation="3.88806"/>
<feComposite in2="hardAlpha" operator="out"/>
<feColorMatrix type="matrix" values="0 0 0 0 0 0 0 0 0 0 0 0 0 0 0 0 0 0 0.1 0"/>
<feBlend mode="normal" in2="BackgroundImageFix" result="effect1_dropShadow_1466_1060"/>
<feBlend mode="normal" in="SourceGraphic" in2="effect1_dropShadow_1466_1060" result="shape"/>
</filter>
<filter id="filter3_d_1466_1060" x="244.409" y="151.869" width="23.3284" height="122.863" filterUnits="userSpaceOnUse" color-interpolation-filters="sRGB">
<feFlood flood-opacity="0" result="BackgroundImageFix"/>
<feColorMatrix in="SourceAlpha" type="matrix" values="0 0 0 0 0 0 0 0 0 0 0 0 0 0 0 0 0 0 127 0" result="hardAlpha"/>
<feOffset/>
<feGaussianBlur stdDeviation="3.88806"/>
<feComposite in2="hardAlpha" operator="out"/>
<feColorMatrix type="matrix" values="0 0 0 0 0 0 0 0 0 0 0 0 0 0 0 0 0 0 0.1 0"/>
<feBlend mode="normal" in2="BackgroundImageFix" result="effect1_dropShadow_1466_1060"/>
<feBlend mode="normal" in="SourceGraphic" in2="effect1_dropShadow_1466_1060" result="shape"/>
</filter>
<filter id="filter4_d_1466_1060" x="286" y="297" width="291" height="263.239" filterUnits="userSpaceOnUse" color-interpolation-filters="sRGB">
<feFlood flood-opacity="0" result="BackgroundImageFix"/>
<feColorMatrix in="SourceAlpha" type="matrix" values="0 0 0 0 0 0 0 0 0 0 0 0 0 0 0 0 0 0 127 0" result="hardAlpha"/>
<feOffset dy="4"/>
<feGaussianBlur stdDeviation="7"/>
<feComposite in2="hardAlpha" operator="out"/>
<feColorMatrix type="matrix" values="0 0 0 0 0 0 0 0 0 0 0 0 0 0 0 0 0 0 0.14 0"/>
<feBlend mode="normal" in2="BackgroundImageFix" result="effect1_dropShadow_1466_1060"/>
<feBlend mode="normal" in="SourceGraphic" in2="effect1_dropShadow_1466_1060" result="shape"/>
</filter>
<filter id="filter5_d_1466_1060" x="294.546" y="451.367" width="273.098" height="105.653" filterUnits="userSpaceOnUse" color-interpolation-filters="sRGB">
<feFlood flood-opacity="0" result="BackgroundImageFix"/>
<feColorMatrix in="SourceAlpha" type="matrix" values="0 0 0 0 0 0 0 0 0 0 0 0 0 0 0 0 0 0 127 0" result="hardAlpha"/>
<feOffset dy="12.2694"/>
<feGaussianBlur stdDeviation="13.6327"/>
<feColorMatrix type="matrix" values="0 0 0 0 0.439216 0 0 0 0 0.564706 0 0 0 0 0.690196 0 0 0 0.12 0"/>
<feBlend mode="normal" in2="BackgroundImageFix" result="effect1_dropShadow_1466_1060"/>
<feBlend mode="normal" in="SourceGraphic" in2="effect1_dropShadow_1466_1060" result="shape"/>
</filter>
<filter id="filter6_d_1466_1060" x="320" y="72" width="133.714" height="176" filterUnits="userSpaceOnUse" color-interpolation-filters="sRGB">
<feFlood flood-opacity="0" result="BackgroundImageFix"/>
<feColorMatrix in="SourceAlpha" type="matrix" values="0 0 0 0 0 0 0 0 0 0 0 0 0 0 0 0 0 0 127 0" result="hardAlpha"/>
<feOffset dy="4"/>
<feGaussianBlur stdDeviation="7"/>
<feComposite in2="hardAlpha" operator="out"/>
<feColorMatrix type="matrix" values="0 0 0 0 0 0 0 0 0 0 0 0 0 0 0 0 0 0 0.14 0"/>
<feBlend mode="normal" in2="BackgroundImageFix" result="effect1_dropShadow_1466_1060"/>
<feBlend mode="normal" in="SourceGraphic" in2="effect1_dropShadow_1466_1060" result="shape"/>
</filter>
<filter id="filter7_d_1466_1060" x="442.851" y="72" width="133.714" height="176" filterUnits="userSpaceOnUse" color-interpolation-filters="sRGB">
<feFlood flood-opacity="0" result="BackgroundImageFix"/>
<feColorMatrix in="SourceAlpha" type="matrix" values="0 0 0 0 0 0 0 0 0 0 0 0 0 0 0 0 0 0 127 0" result="hardAlpha"/>
<feOffset dy="4"/>
<feGaussianBlur stdDeviation="7"/>
<feComposite in2="hardAlpha" operator="out"/>
<feColorMatrix type="matrix" values="0 0 0 0 0 0 0 0 0 0 0 0 0 0 0 0 0 0 0.14 0"/>
<feBlend mode="normal" in2="BackgroundImageFix" result="effect1_dropShadow_1466_1060"/>
<feBlend mode="normal" in="SourceGraphic" in2="effect1_dropShadow_1466_1060" result="shape"/>
</filter>
<linearGradient id="paint0_linear_1466_1060" x1="162.588" y1="208.508" x2="17.3227" y2="45.8688" gradientUnits="userSpaceOnUse">
<stop stop-color="#1A237E"/>
<stop offset="1" stop-color="#1A237E"/>
</linearGradient>
<linearGradient id="paint1_linear_1466_1060" x1="194.471" y1="237.732" x2="140.038" y2="115.847" gradientUnits="userSpaceOnUse">
<stop stop-color="#1A237E"/>
<stop offset="1" stop-color="#1A237E"/>
</linearGradient>
<linearGradient id="paint2_linear_1466_1060" x1="226.353" y1="228.503" x2="142.331" y2="85.5157" gradientUnits="userSpaceOnUse">
<stop stop-color="#1A237E"/>
<stop offset="1" stop-color="#1A237E"/>
</linearGradient>
<linearGradient id="paint3_linear_1466_1060" x1="257.457" y1="213.891" x2="127.592" y2="53.7438" gradientUnits="userSpaceOnUse">
<stop stop-color="#1A237E"/>
<stop offset="1" stop-color="#1A237E"/>
</linearGradient>
<clipPath id="clip0_1466_1060">
<rect x="300" y="307" width="263" height="235.239" rx="14.4048" fill="white"/>
</clipPath>
<clipPath id="clip1_1466_1060">
<rect width="12.951" height="12.951" fill="white" transform="translate(545.833 339.036) rotate(-180)"/>
</clipPath>
</defs>
</svg>
