<?xml version="1.0" encoding="UTF-8"?>
<!DOCTYPE svg PUBLIC "-//W3C//DTD SVG 1.1//EN" "http://www.w3.org/Graphics/SVG/1.1/DTD/svg11.dtd">
<!-- Creator: CorelDRAW X8 -->
<svg xmlns="http://www.w3.org/2000/svg" xml:space="preserve" width="1.38003in" height="2.41735in" version="1.1" style="shape-rendering:geometricPrecision; text-rendering:geometricPrecision; image-rendering:optimizeQuality; fill-rule:evenodd; clip-rule:evenodd"
viewBox="0 0 4727 8280"
 xmlns:xlink="http://www.w3.org/1999/xlink">
 <defs>
  <style type="text/css">
   <![CDATA[
    .fil0 {fill:#35376F;fill-rule:nonzero}
   ]]>
  </style>
 </defs>
 <g id="Layer_x0020_1">
  <metadata id="CorelCorpID_0Corel-Layer"/>
  <path class="fil0" d="M2447 3676c-79,170 -164,338 -240,510 -50,9 -118,48 -137,91 -282,-204 -583,-380 -851,-604 -301,-251 -568,-543 -759,-887 -317,-571 -391,-1275 -32,-1845 348,-552 1074,-764 1650,-433 20,12 40,24 59,36 -451,534 -522,1270 -331,1931 107,369 289,712 511,1024 43,60 86,119 130,177zm-147 -3037l6 -7c5,-5 10,-11 16,-17l4 -5c6,-6 12,-12 18,-19l2 -2c7,-7 14,-14 20,-21l2 -1c7,-7 14,-14 21,-21l0 0 0 0 1 -1c7,-7 15,-14 22,-21 479,-443 1235,-460 1706,9 495,494 502,1255 287,1878 -114,331 -286,639 -482,929 -189,278 -423,518 -632,779 -51,-4 -127,15 -157,52 -150,-185 -311,-359 -463,-542l-4 -5 -2 -3 -2 -2 -3 -3 -2 -2 0 -1 -2 -2 -2 -2 -2 -3 -2 -2 -6 -8 -2 -2 -2 -3 -6 -7 -2 -3 -2 -2 -7 -8 -2 -2c-5,-7 -11,-14 -16,-21l-2 -2 -2 -3 -2 -2 -6 -8 -2 -3 -2 -2 -6 -8 -2 -2 -8 -11 -2 -2 -2 -3 -6 -8 -2 -2 -2 -3 -4 -5 -2 -3 -2 -2 -2 -3 -4 -5 -2 -2 -2 -3c-25,-32 -49,-65 -72,-98 -226,-321 -409,-672 -504,-1054 -145,-582 -63,-1221 335,-1675zm-33 -232c-110,-75 -232,-136 -365,-178 -671,-215 -1374,119 -1697,728 -344,649 -227,1413 143,2025 199,329 463,613 759,858 252,208 522,405 816,552 -76,92 -108,250 -115,350 -15,213 185,169 327,141 20,-4 41,-8 62,-12 18,52 38,180 44,203 22,75 50,147 82,217 68,152 155,296 213,452 66,174 80,346 47,528 -28,152 -77,299 -110,451 -62,293 -47,599 50,883 79,231 233,570 478,667l2 2c26,18 52,-12 48,-37 -15,-86 -62,-170 -93,-252 -33,-86 -61,-173 -80,-262 -39,-173 -47,-353 -25,-529 23,-184 82,-359 168,-523 82,-157 181,-306 245,-473 137,-350 20,-696 -59,-1045 -24,-104 -42,-206 -46,-313 -1,-16 1,-37 -1,-58 77,6 156,8 228,-4 59,-10 112,-43 118,-108 10,-92 -48,-209 -73,-296 -19,-65 -28,-146 -79,-191 337,-213 609,-555 821,-886 236,-368 429,-779 512,-1211 26,-138 40,-282 40,-425 -1,-562 -216,-1128 -707,-1444 -562,-361 -1280,-253 -1753,190zm482 7382c-3,-5 -5,-10 -8,-15 -82,-157 -136,-329 -161,-504 -25,-184 -14,-368 27,-549 39,-173 95,-343 115,-520 41,-374 -161,-678 -328,-994 -50,-94 -94,-189 -125,-291 -5,-15 -9,-35 -16,-55 76,-15 153,-33 219,-63 55,-25 97,-71 86,-135 -14,-92 -100,-190 -147,-267 -35,-59 -65,-134 -126,-165 110,-119 204,-255 284,-401 121,148 252,288 394,414 -97,70 -169,214 -202,308 -70,202 135,212 280,221 20,2 41,4 63,5 3,55 -11,183 -10,207 1,78 10,155 22,231 27,164 73,326 90,492 18,185 -13,354 -92,522 -66,140 -152,269 -223,407 -136,267 -200,566 -180,866 6,85 17,185 38,286zm377 -3168c-43,-2 -86,-5 -128,-8 -21,-2 -43,-4 -64,-6 -14,-3 -25,-5 -33,-7 59,-90 223,-322 324,-352 12,-4 24,-8 37,-12 -5,44 10,89 21,136 9,41 18,82 27,123 4,17 30,90 36,130 -70,10 -157,-2 -220,-4zm-948 92c-42,10 -84,18 -126,26 -21,4 -42,7 -63,11 -14,0 -25,1 -33,2 41,-127 100,-350 221,-424 11,-7 22,-14 32,-22 7,44 34,84 56,127 20,37 39,74 59,111 8,16 52,79 68,117 -65,28 -152,39 -214,52z"/>
 </g>
</svg>
