<?xml version="1.0" encoding="UTF-8"?>
<!DOCTYPE svg PUBLIC "-//W3C//DTD SVG 1.1//EN" "http://www.w3.org/Graphics/SVG/1.1/DTD/svg11.dtd">
<!-- Creator: CorelDRAW X8 -->
<svg xmlns="http://www.w3.org/2000/svg" xml:space="preserve" width="1.87932in" height="2.41874in" version="1.1" style="shape-rendering:geometricPrecision; text-rendering:geometricPrecision; image-rendering:optimizeQuality; fill-rule:evenodd; clip-rule:evenodd"
viewBox="0 0 206 265"
 xmlns:xlink="http://www.w3.org/1999/xlink">
 <defs>
  <style type="text/css">
   <![CDATA[
    .fil0 {fill:#35376F;fill-rule:nonzero}
   ]]>
  </style>
 </defs>
 <g id="Layer_x0020_1">
  <metadata id="CorelCorpID_0Corel-Layer"/>
  <g id="_2122928761744">
   <path class="fil0" d="M187 95c-6,9 -14,17 -22,25 -8,7 -18,12 -26,19 -2,-1 -4,-1 -5,0 -3,-7 -7,-14 -10,-20 -2,2 -3,3 -5,5 3,5 5,11 9,16 -4,1 -7,5 -9,8 -4,5 2,7 7,9 0,0 1,0 2,0 -1,2 -2,6 -2,7 -1,2 -1,5 -2,7 0,5 0,11 -1,16 -1,6 -3,11 -7,15 -3,4 -7,7 -10,11 -7,7 -11,16 -13,25 -1,3 -1,5 -1,8 0,0 0,1 0,1 1,3 2,6 3,8 1,3 2,5 2,8 0,-3 0,-5 0,-8 -1,-3 -1,-6 -1,-8 1,-6 2,-12 4,-17 2,-5 5,-10 9,-15 4,-4 9,-8 12,-12 7,-10 6,-22 7,-33 0,-4 0,-7 1,-10 0,-1 0,-1 0,-2 3,1 5,2 7,2 2,0 4,-1 5,-3 1,-2 0,-6 0,-9 0,-2 0,-5 -1,-7 12,-4 24,-12 33,-20 10,-10 20,-21 26,-34 2,-4 3,-8 5,-12 4,-18 2,-37 -10,-51 -15,-16 -38,-18 -56,-9 2,2 3,3 4,5 18,-9 42,-4 52,15 11,19 5,43 -7,60zm-50 -72c0,0 0,0 -1,0 1,0 1,0 1,0zm-1 -1c0,0 0,0 0,0 0,0 0,0 0,0zm0 0c-1,-1 -1,-1 -1,-1 0,0 0,0 1,1zm-1 -1c0,0 0,-1 0,-1 0,0 0,1 0,1zm-1 -1c0,0 0,0 0,-1 0,1 0,1 0,1zm0 -1c0,0 -1,0 -1,0 0,0 1,0 1,0zm-4 134c-2,-1 -3,-1 -4,-2 -1,0 -2,0 -2,0 -1,0 -1,-1 -1,-1 3,-3 8,-8 13,-8 0,0 1,0 1,0 -1,1 0,3 0,4 -1,2 -1,3 -1,4 0,1 1,3 0,5 -2,-1 -4,-2 -6,-2zm-35 111c0,0 0,0 1,1 0,0 0,0 1,0 0,0 -1,0 -1,0 0,-1 -1,-1 -1,-1z"/>
   <path class="fil0" d="M78 118c-2,5 -5,10 -7,16 -2,0 -4,1 -5,3 -9,-7 -18,-12 -27,-20 -10,-8 -18,-17 -24,-28 -10,-18 -13,-41 -1,-59 11,-18 34,-24 52,-14 1,1 2,1 2,1 -14,17 -16,41 -10,62 3,12 9,23 16,33 1,2 3,4 4,6zm-4 -98l0 0c0,0 0,0 0,0l0 0c1,-1 1,-1 1,-1l0 0c0,0 0,-1 1,-1l0 0c0,0 0,0 0,-1l0 0 0 0 0 0c1,0 1,0 1,0 15,-14 40,-15 55,0 16,16 16,40 9,60 -4,11 -9,21 -16,30 -6,9 -13,16 -20,25 -1,0 -4,0 -5,1 -5,-6 -10,-11 -15,-17l0 0 0 0 0 0 0 0 0 0 0 0 0 0 0 -1 0 0 0 0 0 0 -1 0 0 0 0 0 0 0 0 -1 0 0 0 0c0,0 -1,0 -1,-1l0 0 0 0 0 0 0 0 0 0 0 0 0 0 0 -1 -1 0 0 0 0 0 0 0 0 0 0 0 0 -1 0 0 0 0 0 0 -1 0 0 0 0 0c-1,-1 -1,-2 -2,-3 -7,-11 -13,-22 -16,-34 -5,-19 -2,-39 11,-54zm-1 -7c-4,-2 -8,-4 -12,-6 -22,-7 -44,4 -54,24 -11,20 -8,45 4,64 6,11 15,20 24,28 8,6 17,13 26,17 -2,3 -3,8 -3,12 -1,6 6,5 10,4 1,0 2,0 2,0 1,1 1,6 2,6 0,3 1,5 2,7 2,5 5,10 7,15 2,5 3,11 2,17 -1,4 -3,9 -4,14 -2,9 -1,19 2,28 2,8 7,18 15,22l0 0c1,0 2,-1 2,-2 -1,-2 -2,-5 -3,-8 -1,-2 -2,-5 -3,-8 -1,-6 -1,-11 -1,-17 1,-6 3,-11 6,-17 2,-5 5,-9 7,-15 5,-11 1,-22 -1,-33 -1,-4 -2,-7 -2,-10 0,-1 0,-1 0,-2 3,0 5,0 7,0 2,0 4,-2 4,-4 0,-3 -1,-6 -2,-9 -1,-2 -1,-5 -3,-6 11,-7 20,-18 27,-29 7,-11 13,-24 16,-38 1,-5 1,-9 1,-14 0,-18 -7,-36 -22,-46 -18,-12 -41,-8 -56,6zm15 236c0,0 0,0 0,0 -3,-5 -5,-11 -5,-16 -1,-6 -1,-12 0,-18 2,-6 3,-11 4,-17 1,-12 -5,-21 -10,-31 -2,-3 -3,-7 -4,-10 -1,0 -1,-1 -1,-2 2,0 5,-1 7,-2 2,0 3,-2 3,-4 -1,-3 -3,-6 -5,-8 -1,-2 -2,-5 -4,-6 4,-3 7,-8 9,-12 4,4 8,9 13,13 -3,2 -6,7 -7,10 -2,6 5,6 9,7 1,0 2,0 2,0 0,2 0,6 0,6 0,3 0,5 1,8 1,5 2,10 3,16 0,5 -1,11 -3,16 -3,5 -5,9 -8,13 -4,9 -6,18 -5,28 0,3 0,6 1,9zm12 -101c-1,0 -3,0 -4,0 -1,-1 -1,-1 -2,-1 -1,0 -1,0 -1,0 2,-3 7,-10 10,-11 1,0 1,0 1,-1 0,2 1,3 1,5 0,1 1,2 1,4 0,0 1,3 1,4 -2,0 -5,0 -7,0zm-30 3c-2,0 -3,0 -4,1 -1,0 -2,0 -2,0 -1,0 -1,0 -1,0 1,-4 3,-11 7,-14 0,0 0,0 1,0 0,1 1,2 1,4 1,1 2,2 2,3 1,1 2,3 2,4 -2,1 -4,1 -6,2z"/>
  </g>
 </g>
</svg>
