<svg width="80" height="80" viewBox="0 0 80 80" fill="none" xmlns="http://www.w3.org/2000/svg">
<path d="M40 30.3587C33.4232 30.3587 27.0262 29.1097 21.5003 26.7468C21.3036 26.6628 21.1562 26.493 21.1003 26.2863C21.0445 26.0797 21.0866 25.8589 21.2145 25.6872C23.3481 22.8214 26.1516 20.446 29.3216 18.8179C32.6452 17.1108 36.2381 16.2451 40 16.2451C43.7619 16.2451 47.3546 17.1108 50.6784 18.8179C53.8484 20.446 56.6517 22.8214 58.7853 25.6872C58.9132 25.8589 58.9553 26.0797 58.8996 26.2863C58.8438 26.493 58.6964 26.6628 58.4996 26.7468C52.9738 29.1097 46.5768 30.3587 40 30.3587ZM22.8882 25.809C28.0468 27.8734 33.9411 28.9613 40 28.9613C46.0589 28.9613 51.9532 27.8734 57.1118 25.809C52.9099 20.6074 46.7233 17.6425 40 17.6425C33.2767 17.6425 27.0901 20.6074 22.8882 25.809Z" fill="#1A237E"/>
<path d="M40 63.0573C36.238 63.0573 32.6454 62.1918 29.3215 60.4846C26.1516 58.8564 23.3483 56.4811 21.2145 53.6152C21.0868 53.4437 21.0445 53.2227 21.1002 53.0161C21.156 52.8093 21.3034 52.6397 21.5002 52.5555C27.026 50.1927 33.423 48.9436 40 48.9436C46.5769 48.9436 52.9739 50.1925 58.4995 52.5555C58.6964 52.6395 58.8438 52.8093 58.8995 53.0161C58.9551 53.2227 58.9132 53.4435 58.7853 53.6152C56.6517 56.4811 53.8484 58.8564 50.6784 60.4846C47.3546 62.1918 43.7619 63.0573 40 63.0573ZM22.8882 53.4935C27.0901 58.695 33.2767 61.6599 40 61.6599C46.7233 61.6599 52.9098 58.695 57.1118 53.4935C51.9533 51.429 46.059 50.3412 40 50.3412C33.9411 50.3412 28.0468 51.429 22.8882 53.4935Z" fill="#1A237E"/>
<path d="M40 63.0573C36.7277 63.0573 33.6919 60.5571 31.4521 56.0168C29.2898 51.6338 28.0989 45.8217 28.0989 39.6512C28.0989 33.4807 29.2898 27.6685 31.4521 23.2855C33.6919 18.7454 36.7275 16.2451 40 16.2451C43.2725 16.2451 46.308 18.7454 48.548 23.2855C50.7102 27.6685 51.901 33.4807 51.901 39.6512C51.901 45.8217 50.7102 51.6338 48.548 56.0168C46.308 60.5569 43.2723 63.0573 40 63.0573ZM40 17.6425C37.2879 17.6425 34.6973 19.8661 32.7053 23.9038C30.636 28.0984 29.4963 33.6911 29.4963 39.6512C29.4963 45.6114 30.6358 51.2039 32.7053 55.3987C34.6971 59.4362 37.2879 61.66 40 61.66C42.7122 61.66 45.3027 59.4364 47.2947 55.3987C49.364 51.2039 50.5036 45.6116 50.5036 39.6512C50.5036 33.6909 49.364 28.0984 47.2947 23.9038C45.3027 19.8663 42.7122 17.6425 40 17.6425Z" fill="#1A237E"/>
<path d="M40 63.0573C39.6141 63.0573 39.3013 62.7445 39.3013 62.3587V16.9438C39.3013 16.558 39.6141 16.2451 40 16.2451C40.3858 16.2451 40.6986 16.558 40.6986 16.9438V62.3587C40.6986 62.7445 40.3858 63.0573 40 63.0573Z" fill="#1A237E"/>
<path d="M62.7074 40.35H17.2926C16.9067 40.35 16.5939 40.037 16.5939 39.6513C16.5939 39.2656 16.9067 38.9526 17.2926 38.9526H62.7074C63.0933 38.9526 63.4061 39.2655 63.4061 39.6513C63.4061 40.0372 63.0933 40.35 62.7074 40.35Z" fill="#1A237E"/>
<path d="M40 63.0573C27.0938 63.0573 16.5939 52.5574 16.5939 39.6512C16.5939 26.745 27.0938 16.2451 40 16.2451C52.9062 16.2451 63.4061 26.745 63.4061 39.6512C63.4061 52.5574 52.9062 63.0573 40 63.0573ZM40 17.6425C27.8643 17.6425 17.9913 27.5155 17.9913 39.6512C17.9913 51.7868 27.8643 61.66 40 61.66C52.1357 61.66 62.0087 51.7869 62.0087 39.6512C62.0087 27.5157 52.1357 17.6425 40 17.6425Z" fill="#1A237E"/>
<path d="M40 17.6424C39.6141 17.6424 39.3013 17.3295 39.3013 16.9437V7.68551C39.3013 7.29965 39.6141 6.98682 40 6.98682C40.3858 6.98682 40.6986 7.29965 40.6986 7.68551V16.9437C40.6986 17.3295 40.3858 17.6424 40 17.6424Z" fill="#1A237E"/>
<path d="M40 8.38428C37.6884 8.38428 35.8079 6.50376 35.8079 4.19214C35.8079 1.88052 37.6884 0 40 0C42.3114 0 44.1921 1.88052 44.1921 4.19214C44.1921 6.50376 42.3114 8.38428 40 8.38428ZM40 1.39738C38.459 1.39738 37.2052 2.65118 37.2052 4.19214C37.2052 5.7331 38.459 6.9869 40 6.9869C41.541 6.9869 42.7948 5.7331 42.7948 4.19214C42.7948 2.65118 41.541 1.39738 40 1.39738Z" fill="#1A237E"/>
<path d="M40 73.0132C39.6141 73.0132 39.3013 72.7004 39.3013 72.3145V63.0564C39.3013 62.6705 39.6141 62.3577 40 62.3577C40.3858 62.3577 40.6986 62.6705 40.6986 63.0564V72.3145C40.6986 72.7004 40.3858 73.0132 40 73.0132Z" fill="#1A237E"/>
<path d="M40 80C37.6884 80 35.8079 78.1193 35.8079 75.8079C35.8079 73.4964 37.6884 71.6157 40 71.6157C42.3114 71.6157 44.1921 73.4964 44.1921 75.8079C44.1921 78.1193 42.3114 80 40 80ZM40 73.0131C38.459 73.0131 37.2052 74.2669 37.2052 75.8079C37.2052 77.3488 38.459 78.6026 40 78.6026C41.541 78.6026 42.7948 77.3488 42.7948 75.8079C42.7948 74.2669 41.541 73.0131 40 73.0131Z" fill="#1A237E"/>
<path d="M56.3032 24.3955C56.1245 24.3955 55.9457 24.3272 55.8093 24.191C55.5362 23.9179 55.5362 23.4757 55.8093 23.2028L62.3558 16.6563C62.6285 16.3835 63.0709 16.3835 63.3438 16.6563C63.6168 16.9293 63.6168 17.3716 63.3438 17.6444L56.7972 24.191C56.661 24.3272 56.4819 24.3955 56.3032 24.3955Z" fill="#1A237E"/>
<path d="M65.3198 18.8721C64.2002 18.8721 63.1474 18.4359 62.3556 17.6443C61.5638 16.8527 61.1277 15.7998 61.1277 14.6799C61.1277 13.5601 61.5638 12.5074 62.3556 11.7156C63.1474 10.9238 64.2002 10.4878 65.3198 10.4878C66.4397 10.4878 67.4924 10.924 68.2842 11.7156C69.076 12.5074 69.5121 13.5601 69.5121 14.6799C69.5121 15.7998 69.076 16.8525 68.2842 17.6443C67.4924 18.4361 66.4397 18.8721 65.3198 18.8721ZM65.3198 11.8852C64.5735 11.8852 63.8716 12.176 63.3438 12.7039C62.8161 13.2317 62.5251 13.9336 62.5251 14.6799C62.5251 15.4265 62.8159 16.1283 63.3438 16.656C63.8716 17.1839 64.5735 17.4747 65.3198 17.4747C66.0664 17.4747 66.7682 17.1839 67.2961 16.656C67.8238 16.1283 68.1148 15.4263 68.1148 14.6799C68.1148 13.9336 67.8239 13.2315 67.2961 12.7039C66.7682 12.176 66.0664 11.8852 65.3198 11.8852Z" fill="#1A237E"/>
<path d="M17.1502 63.5484C16.9713 63.5484 16.7926 63.4801 16.656 63.3437C16.3832 63.0708 16.3832 62.6284 16.656 62.3557L23.2026 55.8092C23.4756 55.5362 23.9179 55.5363 24.1907 55.8092C24.4636 56.082 24.4636 56.5245 24.1907 56.7971L17.6442 63.3437C17.5077 63.4803 17.3289 63.5484 17.1502 63.5484Z" fill="#1A237E"/>
<path d="M14.68 69.5122C13.5602 69.5122 12.5074 69.0761 11.7156 68.2843C10.0812 66.6499 10.0812 63.9903 11.7156 62.3559C12.5074 61.5641 13.5602 61.1279 14.68 61.1279C15.7998 61.1279 16.8526 61.5641 17.6444 62.3559C19.2788 63.9903 19.2788 66.6499 17.6444 68.2843C16.8526 69.0761 15.7998 69.5122 14.68 69.5122ZM14.68 62.5251C13.9336 62.5251 13.2316 62.816 12.7039 63.3438C11.6141 64.4334 11.6141 66.2067 12.7039 67.2963C13.2318 67.824 13.9336 68.115 14.68 68.115C15.4265 68.115 16.1284 67.8242 16.6561 67.2963C17.7458 66.2067 17.7458 64.4334 16.6561 63.3438C16.1284 62.816 15.4265 62.5251 14.68 62.5251Z" fill="#1A237E"/>
<path d="M72.3144 40.6986H63.0562C62.6704 40.6986 62.3575 40.3858 62.3575 40C62.3575 39.6141 62.6704 39.3013 63.0562 39.3013H72.3144C72.7002 39.3013 73.0131 39.6141 73.0131 40C73.0131 40.3858 72.7002 40.6986 72.3144 40.6986Z" fill="#1A237E"/>
<path d="M75.8079 44.1921C73.4964 44.1921 71.6157 42.3114 71.6157 40C71.6157 37.6884 73.4964 35.8079 75.8079 35.8079C78.1193 35.8079 80 37.6884 80 40C80 42.3114 78.1193 44.1921 75.8079 44.1921ZM75.8079 37.2052C74.2669 37.2052 73.0131 38.459 73.0131 40C73.0131 41.541 74.2669 42.7948 75.8079 42.7948C77.3488 42.7948 78.6026 41.541 78.6026 40C78.6026 38.459 77.3488 37.2052 75.8079 37.2052Z" fill="#1A237E"/>
<path d="M16.9437 40.6986H7.68557C7.29972 40.6986 6.98688 40.3858 6.98688 40C6.98688 39.6141 7.29972 39.3013 7.68557 39.3013H16.9437C17.3296 39.3013 17.6424 39.6141 17.6424 40C17.6424 40.3858 17.3296 40.6986 16.9437 40.6986Z" fill="#1A237E"/>
<path d="M4.19214 44.1921C1.88052 44.1921 0 42.3114 0 40C0 37.6884 1.88052 35.8079 4.19214 35.8079C6.50376 35.8079 8.38428 37.6884 8.38428 40C8.38428 42.3114 6.50376 44.1921 4.19214 44.1921ZM4.19214 37.2052C2.65118 37.2052 1.39738 38.459 1.39738 40C1.39738 41.541 2.65118 42.7948 4.19214 42.7948C5.7331 42.7948 6.9869 41.541 6.9869 40C6.9869 38.459 5.7331 37.2052 4.19214 37.2052Z" fill="#1A237E"/>
<path d="M23.6967 24.3955C23.5179 24.3955 23.3392 24.3272 23.2026 24.191L16.656 17.6444C16.3832 17.3714 16.3832 16.9291 16.656 16.6563C16.9291 16.3835 17.3713 16.3835 17.6442 16.6563L24.1907 23.2028C24.4636 23.4759 24.4636 23.9181 24.1907 24.191C24.0543 24.3272 23.8756 24.3955 23.6967 24.3955Z" fill="#1A237E"/>
<path d="M14.68 18.8721C13.5602 18.8721 12.5074 18.4359 11.7156 17.6443C10.9238 16.8525 10.4879 15.7998 10.4879 14.6799C10.4879 13.5601 10.924 12.5074 11.7156 11.7156C12.5074 10.9238 13.5602 10.4878 14.68 10.4878C15.7998 10.4878 16.8526 10.9239 17.6444 11.7157C18.4362 12.5075 18.8721 13.5603 18.8721 14.6799C18.8721 15.7998 18.436 16.8525 17.6442 17.6443C16.8526 18.4359 15.7998 18.8721 14.68 18.8721ZM14.68 11.8852C13.9336 11.8852 13.2316 12.176 12.7039 12.7039C12.1762 13.2317 11.8852 13.9336 11.8852 14.6799C11.8852 15.4265 12.1759 16.1283 12.7037 16.656C13.2316 17.1839 13.9336 17.4747 14.68 17.4747C15.4265 17.4747 16.1284 17.184 16.6561 16.6562C17.1839 16.1283 17.4748 15.4265 17.4748 14.6799C17.4748 13.9336 17.1839 13.2315 16.6561 12.7039C16.1284 12.1758 15.4265 11.8852 14.68 11.8852Z" fill="#1A237E"/>
<path d="M62.8497 63.5482C62.671 63.5482 62.4919 63.4799 62.3557 63.3435L55.8091 56.797C55.5361 56.5241 55.5361 56.0817 55.8091 55.809C56.0818 55.536 56.5246 55.536 56.7971 55.809L63.3436 62.3556C63.6166 62.6284 63.6166 63.0708 63.3436 63.3435C63.2074 63.4801 63.0285 63.5482 62.8497 63.5482Z" fill="#1A237E"/>
<path d="M65.3199 69.5122C64.2002 69.5122 63.1475 69.0761 62.3557 68.2843C60.7213 66.6499 60.7213 63.9903 62.3557 62.3559C63.1475 61.5641 64.2002 61.1279 65.3199 61.1279C66.4397 61.1279 67.4925 61.5641 68.2843 62.3559C69.076 63.1477 69.5122 64.2004 69.5122 65.3201C69.512 66.4399 69.076 67.4926 68.2843 68.2844C67.4925 69.0762 66.4397 69.512 65.3199 69.5122ZM65.3199 62.5251C64.5735 62.5251 63.8717 62.816 63.3438 63.3438C62.2542 64.4334 62.2542 66.2067 63.3438 67.2963C63.8717 67.824 64.5735 68.115 65.3199 68.115C66.0664 68.115 66.7683 67.8242 67.2961 67.2963C67.8238 66.7685 68.1148 66.0666 68.1148 65.3201C68.1148 64.5737 67.824 63.8719 67.2961 63.344C66.7683 62.816 66.0664 62.5251 65.3199 62.5251Z" fill="#1A237E"/>
</svg>
