<svg width="81" height="70" viewBox="0 0 81 70" fill="none" xmlns="http://www.w3.org/2000/svg">
<path d="M79.8388 38.1176C79.1908 38.1176 78.6776 38.6278 78.6776 39.2819V67.677L2.32243 67.6727V39.2775C2.32243 38.6278 1.8136 38.1133 1.16121 38.1133C0.513216 38.1133 0 38.6234 0 39.2775V68.8358C0 69.4855 0.508829 70 1.16121 70H79.8388C80.4868 70 81 69.4899 81 68.8358V39.2775C81 38.6278 80.4912 38.1176 79.8388 38.1176Z" fill="#1A237E"/>
<path d="M39.6194 46.4192C39.8498 46.6765 40.1543 46.816 40.5022 46.816C40.8501 46.816 41.1502 46.6765 41.385 46.4192L57.8981 27.3258C58.3156 26.8374 58.2678 26.118 57.7807 25.6732C57.2936 25.2546 56.5761 25.3026 56.1324 25.7909L41.6367 42.5347V1.16425C41.6367 0.514556 41.1279 0 40.4755 0C39.8275 0 39.3143 0.510158 39.3143 1.16425V42.557L24.8186 25.8132C24.4011 25.3249 23.6573 25.2769 23.1703 25.6955C22.6832 26.1141 22.6353 26.8598 23.0528 27.3481L39.6194 46.4192Z" fill="#1A237E"/>
</svg>
