<svg width="80" height="80" viewBox="0 0 80 80" fill="none" xmlns="http://www.w3.org/2000/svg">
<path d="M6.81217 54.7412C5.63868 54.4931 4.53732 54.1946 3.43596 53.7799C3.09708 53.6542 2.92451 53.2772 3.05002 52.9379C3.17553 52.5986 3.55206 52.4258 3.89096 52.5515C4.88251 52.9254 6.00579 53.2301 7.07895 53.4563C7.90728 53.6165 7.64053 54.9234 6.81217 54.7412ZM17.7534 54.3077C15.4534 54.3517 12.8805 54.2669 10.4958 53.9967C9.6517 53.893 9.51049 55.2188 10.3514 55.3005C12.7738 55.5738 15.4126 55.6618 17.7722 55.6146C18.1331 55.6084 18.4217 55.3099 18.4155 54.9517C18.4123 54.5905 18.1143 54.3014 17.7534 54.3077ZM28.1461 52.9662L27.1545 53.2364C26.3293 53.4469 26.6807 54.7381 27.4997 54.5024L28.4912 54.2323C29.3133 54.0218 28.9619 52.7305 28.1461 52.9662ZM3.43283 43.1895C4.53732 43.6042 5.63554 43.9027 6.80903 44.1509C7.63736 44.3362 7.90726 43.0293 7.07574 42.869C6.00266 42.6428 4.88243 42.3381 3.88774 41.9642C3.54886 41.8386 3.17234 42.0113 3.04681 42.3506C2.92444 42.6868 3.09709 43.0638 3.43283 43.1895ZM27.4994 43.9121L28.491 43.6419C29.3162 43.4314 28.9648 42.1402 28.1458 42.3758L27.1543 42.646C26.3291 42.8565 26.6805 44.1478 27.4994 43.9121ZM27.4994 33.3215L28.491 33.0513C29.3162 32.8408 28.9648 31.5496 28.1458 31.7853L27.1543 32.0554C26.3291 32.2659 26.6805 33.5572 27.4994 33.3215ZM10.3546 34.1195C12.7769 34.3928 15.4158 34.4808 17.7754 34.4337C18.1362 34.4274 18.4249 34.1289 18.4186 33.7708C18.4123 33.4095 18.1142 33.1205 17.7565 33.1267C15.4565 33.1707 12.8836 33.0859 10.4989 32.8157C9.65167 32.712 9.51048 34.0378 10.3546 34.1195ZM10.3546 44.7101C12.7769 44.9834 15.4158 45.0714 17.7754 45.0243C18.1362 45.018 18.4249 44.7195 18.4186 44.3614C18.4123 44.0001 18.1142 43.711 17.7565 43.7173C15.4565 43.7613 12.8836 43.6765 10.4989 43.4063C9.65167 43.3026 9.51048 44.6284 10.3546 44.7101ZM5.06747 33.1327C5.81426 33.2081 7.21685 34.1129 7.58394 33.051C7.65611 32.696 7.43019 32.3504 7.07563 32.2781C5.9962 32.0488 4.90432 31.7566 3.89084 31.3733C3.55196 31.2477 3.17544 31.4173 3.04677 31.7566C2.80203 32.8374 4.34895 32.8123 5.06747 33.1327ZM74.2269 33.3212C74.7384 33.1578 75.9213 33.0698 75.6797 32.2467C75.4726 31.4142 74.4058 31.9389 73.8818 32.0551C73.0597 32.2656 73.4111 33.5568 74.2269 33.3212ZM53.8063 32.2781C52.7269 32.0488 51.635 31.7566 50.6216 31.3733C50.2827 31.2477 49.9062 31.4173 49.7775 31.7566C49.5296 32.8374 51.0765 32.8122 51.7951 33.1358C52.5418 33.2112 53.9444 34.116 54.3115 33.0541C54.3868 32.6991 54.1609 32.3504 53.8063 32.2781ZM57.0853 44.7097C59.5076 44.983 62.1465 45.071 64.5061 45.0238C64.8669 45.0175 65.1556 44.7191 65.1493 44.3609C65.143 43.9996 64.8449 43.7106 64.4872 43.7169C62.1873 43.7609 59.6143 43.6761 57.2296 43.4059C56.3824 43.3022 56.2412 44.628 57.0853 44.7097ZM57.0853 34.1191C59.5076 34.3924 62.1465 34.4804 64.5061 34.4332C64.8669 34.427 65.1556 34.1285 65.1493 33.7704C65.143 33.4091 64.8449 33.12 64.4872 33.1263C62.1873 33.1703 59.6143 33.0855 57.2296 32.8153C56.3824 32.7116 56.2412 34.0374 57.0853 34.1191ZM80 24.1598V55.9316C79.0399 59.0921 73.7057 60.4305 67.8346 60.7981V75.011C67.8346 76.3839 67.2729 77.6343 66.3724 78.536C65.4718 79.4377 64.223 80 62.8518 80H24.7723C23.4042 80 22.1585 79.4376 21.2549 78.536C20.3481 77.6281 19.7895 76.3808 19.7895 75.011V69.1738L17.0973 71.8694C16.5043 72.4758 15.5661 71.5301 16.1749 70.9395L19.9841 67.1255C19.9872 67.1224 19.9872 67.1255 19.9904 67.1224C20.0374 67.0816 20.1002 67.0784 20.1567 67.0533C20.3355 66.9622 20.5175 66.959 20.6995 67.0407C20.7685 67.069 20.847 67.0721 20.9035 67.1255H20.9066L24.7158 70.9395C25.3246 71.5302 24.3864 72.4758 23.7934 71.8694L21.1011 69.1738V75.0111C21.1011 77.0405 22.7485 78.6868 24.7723 78.6868H62.8487C64.8693 78.6868 66.5167 77.0343 66.5198 75.0111V60.864C60.6397 61.0871 54.5086 60.4116 51.8634 59.623C48.6912 58.7559 46.7301 57.4584 46.7301 55.9347V24.1598C46.7301 22.6298 48.7069 21.326 51.898 20.462C54.8412 19.664 58.8983 19.1707 63.3662 19.1707C67.8312 19.1707 71.888 19.664 74.8312 20.462C78.0223 21.3259 79.9991 22.6297 79.9991 24.1598L80 24.1598ZM48.0421 24.1598C48.0296 25.0175 49.6801 25.9066 52.2373 26.5915C57.7064 28.2251 69.0183 28.2251 74.4902 26.5915C80.0095 25.1463 80.0126 23.1765 74.4933 21.7281C69.0242 20.0945 57.7067 20.0945 52.2373 21.7281C49.6486 22.4319 48.0421 23.299 48.0421 24.1598ZM78.6851 47.2037C73.6459 51.5832 56.8057 50.4898 51.8978 49.0416C50.2442 48.5924 48.9389 48.0237 48.0415 47.3703V55.9341C50.3101 60.8571 76.3975 60.8665 78.6844 55.9341L78.6851 47.2037ZM78.6851 36.6131C73.6459 40.9926 56.8057 39.8993 51.8946 38.451C50.241 38.0018 48.9357 37.4331 48.0414 36.7797V45.3435C50.4229 50.2759 76.2778 50.2853 78.6843 45.3435L78.6851 36.6131ZM78.6851 26.0507C73.3948 30.2416 53.3324 30.2511 48.0421 26.0475V34.7529C50.4236 39.6853 76.2785 39.6947 78.6851 34.7529V26.0507ZM5.13334 59.6224C1.96109 58.7553 0 57.4578 0 55.9341V24.1591C0 22.6292 1.97675 21.3254 5.16788 20.4613C7.96364 19.7042 11.776 19.233 15.9774 19.1859L15.9806 4.98895C15.9806 3.61606 16.5422 2.36567 17.4427 1.46401C18.3464 0.559206 19.5921 0 20.9633 0H59.0396C60.4108 0 61.6565 0.562359 62.5602 1.46401C63.4638 2.36881 64.0224 3.61606 64.0224 4.98895V10.8262L66.7146 8.13057C67.3076 7.52423 68.2458 8.46988 67.637 9.06047L63.8278 12.8745C63.8247 12.8776 63.8247 12.8745 63.8215 12.8776C63.7745 12.9216 63.7086 12.9216 63.649 12.9499C63.4732 13.041 63.2944 13.0441 63.1155 12.9624C63.0434 12.9341 62.9649 12.931 62.9084 12.8776H62.9053L59.0961 9.06361C58.4874 8.47297 59.4224 7.5273 60.0185 8.13371L62.7108 10.8293V4.99209C62.7108 2.96887 61.0603 1.31635 59.0396 1.31635L20.9633 1.3132C18.9426 1.3132 17.2921 2.96259 17.2921 4.98894V19.1859C21.4936 19.233 25.3059 19.7011 28.1016 20.4613C31.2928 21.3253 33.2695 22.6291 33.2695 24.1591V55.9309C31.2864 62.4624 10.6461 61.2624 5.13334 59.6224ZM1.3147 24.159C1.30215 25.0167 2.95264 25.9058 5.50991 26.5907C10.979 28.2243 22.2909 28.2243 27.7627 26.5907C33.2789 25.1455 33.2852 23.1757 27.7659 21.7273C22.2968 20.0937 10.9793 20.0937 5.50984 21.7273C2.91802 22.4311 1.3147 23.2982 1.3147 24.159ZM1.3147 34.7496C3.69622 39.682 29.5511 39.6914 31.9576 34.7496V26.0475C26.6706 30.2384 6.605 30.2479 1.3147 26.0443V34.7496ZM1.3147 45.3402C3.69622 50.2726 29.5511 50.2852 31.9576 45.3402V36.6123C26.9184 40.9918 10.0783 39.8985 5.17037 38.4502C3.51677 38.001 2.21147 37.4323 1.31719 36.7789L1.3147 45.3402ZM31.9576 55.9308V47.2029C26.9184 51.5824 10.0783 50.489 5.17037 49.0408C3.51677 48.5915 2.21147 48.0229 1.31406 47.3695V55.9333C3.57951 60.8531 29.6701 60.8626 31.957 55.9301L31.9576 55.9308ZM53.8056 53.4552C52.7325 53.229 51.6123 52.9242 50.6176 52.5504C50.2788 52.4247 49.9022 52.5975 49.7767 52.9368C49.6512 53.2761 49.8238 53.6531 50.1626 53.7788C51.2671 54.1935 52.3653 54.4919 53.5388 54.7401C54.3704 54.9223 54.6371 53.6155 53.8056 53.4552ZM74.2262 54.5014C74.7377 54.338 75.9206 54.25 75.679 53.4269C75.4719 52.5944 74.4051 53.1191 73.8811 53.2353C73.059 53.4458 73.4104 54.737 74.2262 54.5014ZM74.2262 43.9108C74.7377 43.7474 75.9206 43.6595 75.679 42.8364C75.4719 42.0038 74.4051 42.5285 73.8811 42.6447C73.059 42.8552 73.4104 44.1464 74.2262 43.9108ZM53.8056 42.8677C52.7325 42.6415 51.6123 42.3368 50.6176 41.9629C50.2788 41.8373 49.9022 42.0101 49.7767 42.3494C49.6512 42.6887 49.8238 43.0657 50.1626 43.1913C51.2671 43.606 52.3653 43.9045 53.5388 44.1527C54.3704 44.3318 54.6371 43.028 53.8056 42.8677ZM57.0846 55.2993C59.5069 55.5726 62.1458 55.6606 64.5054 55.6134C64.8662 55.6072 65.1549 55.3087 65.1486 54.9506C65.1423 54.5893 64.8442 54.3002 64.4865 54.3065C62.1865 54.3505 59.6136 54.2657 57.2289 53.9955C56.3817 53.8918 56.2405 55.2176 57.0846 55.2993Z" fill="#1A237E"/>
</svg>
