<svg width="60" height="67" viewBox="0 0 60 67" fill="none" xmlns="http://www.w3.org/2000/svg">
<path d="M53.3333 6.66667H50V0H43.3333V6.66667H16.6667V0H10V6.66667H6.66667C3 6.66667 0 9.66667 0 13.3333V60C0 63.6667 3 66.6667 6.66667 66.6667H53.3333C57 66.6667 60 63.6667 60 60V13.3333C60 9.66667 57 6.66667 53.3333 6.66667ZM53.3333 60H6.66667V26.6667H53.3333V60ZM6.66667 20V13.3333H53.3333V20H6.66667ZM25.2 54.8667L44.9667 35.1L41.4333 31.5667L25.2 47.8L18.1667 40.7667L14.6333 44.3L25.2 54.8667Z" fill="#1A237E"/>
</svg>
