<svg width="80" height="54" viewBox="0 0 80 54" fill="none" xmlns="http://www.w3.org/2000/svg">
<path d="M64.5 20.1333C62.2333 8.63333 52.1333 0 40 0C30.3667 0 22 5.46667 17.8333 13.4667C7.8 14.5333 0 23.0333 0 33.3333C0 44.3667 8.96667 53.3333 20 53.3333H63.3333C72.5333 53.3333 80 45.8667 80 36.6667C80 27.8667 73.1667 20.7333 64.5 20.1333ZM63.3333 46.6667H20C12.6333 46.6667 6.66667 40.7 6.66667 33.3333C6.66667 26.5 11.7667 20.8 18.5333 20.1L22.1 19.7333L23.7667 16.5667C26.9333 10.4667 33.1333 6.66667 40 6.66667C48.7333 6.66667 56.2667 12.8667 57.9667 21.4333L58.9667 26.4333L64.0667 26.8C69.2667 27.1333 73.3333 31.5 73.3333 36.6667C73.3333 42.1667 68.8333 46.6667 63.3333 46.6667ZM26.6667 30H35.1667V40H44.8333V30H53.3333L40 16.6667L26.6667 30Z" fill="#1A237E"/>
</svg>
