<svg width="300" height="300" viewBox="0 0 300 300" fill="none" xmlns="http://www.w3.org/2000/svg">
<rect width="300" height="300" fill="#E9ECFF"/>
<rect x="40" y="40" width="102.667" height="102.667" rx="2.93333" fill="#1A237E"/>
<path d="M96.194 69.3957C96.194 69.4987 96.153 69.5963 96.0792 69.6694C96.0067 69.7413 95.9069 69.7819 95.8044 69.7819H90.7462C90.5316 69.7819 90.3579 69.6098 90.3579 69.3971C90.3579 69.1843 90.5316 69.0109 90.7462 69.0109H95.8044C96.019 69.0109 96.1926 69.183 96.194 69.3957ZM95.8044 71.923L92.9444 71.9243C92.7339 71.9297 92.5657 72.1005 92.5657 72.3092C92.5657 72.5179 92.7339 72.6886 92.9444 72.6954H95.8071H95.8057C96.0163 72.6886 96.183 72.5179 96.183 72.3092C96.183 72.1005 96.0163 71.9297 95.8057 71.9243L95.8044 71.923ZM95.8044 74.8364L94.5849 74.8377C94.3703 74.8377 94.1953 75.0098 94.1953 75.2226C94.1953 75.4353 94.3703 75.6088 94.5849 75.6088H95.8044C96.019 75.6088 96.1926 75.4354 96.1926 75.2226C96.1926 75.0098 96.019 74.8377 95.8044 74.8377V74.8364ZM95.8044 80.6647L93.3354 80.666C93.1194 80.666 92.9458 80.8381 92.9458 81.0509C92.9458 81.2637 93.1194 81.4371 93.3354 81.4371H95.8044C96.019 81.4371 96.1926 81.2636 96.1926 81.0509C96.1926 80.8381 96.019 80.666 95.8044 80.666V80.6647ZM105.333 77.1603V89.5485C105.333 89.7612 105.159 89.9333 104.945 89.9333H94.9104C94.6958 89.9333 94.5221 89.7613 94.5221 89.5485V86.8681H84.9608C84.7462 86.8681 84.5712 86.696 84.5712 86.4833V85.1837H83.2629C83.0483 85.1837 82.8733 85.0116 82.8733 84.7989V81.8665C82.8036 81.8014 82.7338 81.735 82.6627 81.6673H82.6641C81.524 80.5372 80.8377 79.0371 80.7311 77.4434C80.6245 75.8497 81.1043 74.2725 82.0831 73.0041L81.2478 72.1748H79.7427C79.6388 72.1748 79.5403 72.1355 79.4679 72.0623L77.4487 70.0609V70.0622C77.3366 69.9511 77.3024 69.7858 77.3626 69.6408C77.4241 69.4958 77.5663 69.4023 77.7235 69.4023H78.8322C78.8363 69.1774 78.9279 68.9619 79.0878 68.8034C79.2492 68.6435 79.4651 68.5527 79.6935 68.5486V67.4523C79.6921 67.2951 79.7878 67.1542 79.9327 67.0946C80.079 67.035 80.2471 67.0689 80.3579 67.1786L82.3743 69.1801C82.4481 69.2532 82.4891 69.3508 82.4891 69.4524V70.9444L82.8719 71.3238V69.4051V69.3698C82.8719 69.3576 82.8719 69.3576 82.8747 69.3509V69.3522C82.876 69.3468 82.876 69.34 82.8774 69.3346C82.8774 69.3278 82.8801 69.321 82.8829 69.3143C82.8842 69.3075 82.8856 69.3034 82.887 69.298C82.8883 69.2926 82.8911 69.2858 82.8938 69.279V69.2777C82.8952 69.2723 82.8979 69.2668 82.8993 69.2628C82.902 69.256 82.9047 69.2506 82.9075 69.2452C82.9102 69.2397 82.9129 69.2343 82.9157 69.2289C82.9184 69.2235 82.9225 69.2181 82.9253 69.2113C82.9294 69.2059 82.9307 69.2004 82.9348 69.1964C82.9389 69.191 82.9444 69.1842 82.9485 69.1774L82.9567 69.1666L82.9581 69.1652C82.9663 69.1557 82.9745 69.1449 82.984 69.1368L86.101 66.0472C86.1105 66.0377 86.1201 66.0282 86.1311 66.0201L86.1406 66.0133C86.1475 66.0079 86.1543 66.0025 86.1611 65.9984L86.1748 65.9903L86.1939 65.9794C86.1994 65.9767 86.2035 65.974 86.209 65.9726C86.2144 65.9699 86.2213 65.9659 86.2281 65.9645L86.265 65.9523L86.2814 65.9483L86.3019 65.9428C86.3088 65.9428 86.3142 65.9401 86.3211 65.9401L86.3388 65.9374C86.3512 65.9374 86.3635 65.9361 86.3758 65.9347L98.2283 65.9333C98.443 65.9333 98.618 66.1054 98.618 66.3182V67.6164H99.9263C100.03 67.6164 100.129 67.657 100.201 67.7289C100.275 67.8007 100.316 67.8996 100.316 68.0012V76.774H104.945C105.048 76.774 105.146 76.8147 105.22 76.8865C105.292 76.9597 105.333 77.0573 105.333 77.1603ZM84.2006 69.0258H85.9915V67.2493L84.2006 69.0258ZM80.4713 68.3821V68.9431L81.7126 70.1735V69.6125L80.4713 68.3821ZM79.6387 69.4919L86.9459 76.7349V76.7362C86.9869 76.7715 87.047 76.7688 87.0853 76.7322C87.1222 76.6942 87.1249 76.6332 87.0894 76.5939L82.988 72.5286L79.7836 69.3509H79.7822C79.744 69.3116 79.6797 69.3116 79.6401 69.3509C79.6004 69.3902 79.6004 69.4539 79.6401 69.4932L79.6387 69.4919ZM84.8803 79.4709C85.8277 80.41 87.2331 80.7325 88.5018 80.3029C89.7706 79.8733 90.681 78.7649 90.8505 77.4464C91.0186 76.1279 90.4157 74.8297 89.2961 74.098C88.1765 73.3676 86.7342 73.3324 85.5804 74.0072L86.7684 75.1847H86.767C87.6174 74.911 88.547 75.2498 89.0145 76.0059C89.4807 76.7621 89.3645 77.7364 88.7329 78.3638C88.1 78.9898 87.117 79.1064 86.3542 78.6429C85.5913 78.1795 85.2496 77.2594 85.5244 76.4165L84.3364 75.239H84.3377C83.5257 76.6076 83.7483 78.3462 84.8803 79.4709ZM87.8961 76.6645C87.8961 77.0168 87.6815 77.3339 87.3534 77.4681C87.0253 77.6036 86.648 77.5291 86.3964 77.2797L86.2118 77.0968H86.2105C86.246 77.5426 86.5386 77.9288 86.9624 78.0847C87.3861 78.2391 87.8633 78.1362 88.1818 77.8204C88.5017 77.5033 88.607 77.0318 88.4498 76.6117C88.2939 76.1916 87.9043 75.9003 87.4545 75.865L87.6391 76.048C87.8045 76.2119 87.8961 76.4328 87.8961 76.6645ZM80.47 71.4055L79.2287 70.1751H78.6627L79.904 71.4055H80.47ZM83.2151 81.1229C84.2801 82.1785 85.7128 82.7883 87.2192 82.8249C88.7244 82.8628 90.1871 82.3249 91.3041 81.3235C92.421 80.3221 93.1073 78.9331 93.2194 77.4451C93.3329 75.9558 92.8653 74.4815 91.9111 73.3256C90.9582 72.1698 89.5939 71.4217 88.0995 71.2347C86.6053 71.0477 85.096 71.438 83.8834 72.3242L85.0167 73.4476C86.8568 72.2551 89.3095 72.6345 90.6957 74.3257C92.0819 76.0168 91.9548 78.4736 90.4004 80.0156C88.8447 81.5563 86.3663 81.6823 84.6602 80.3083C82.954 78.9342 82.5712 76.5031 83.7743 74.6791L82.641 73.5557C81.8152 74.6791 81.4188 76.0572 81.5241 77.4434C81.6293 78.8297 82.2295 80.1333 83.2151 81.1223L83.2151 81.1229ZM83.654 84.4158H97.8416V66.7061H86.7694V69.4122C86.7694 69.6249 86.5958 69.7984 86.3812 69.7984H83.6511V71.541C84.9908 70.648 86.6122 70.2699 88.213 70.4759C89.8138 70.6819 91.2848 71.4584 92.3497 72.6603C93.4147 73.8623 94.0025 75.4085 94.0025 77.0074C94.0025 78.6077 93.4147 80.1539 92.3497 81.3558C91.2847 82.5577 89.8138 83.3342 88.213 83.5402C86.6123 83.7462 84.9908 83.3681 83.6511 82.4751L83.654 84.4158ZM85.3492 86.0974H99.5382V68.3891H98.6195V84.8007C98.6181 85.0135 98.4431 85.1856 98.2285 85.1842H85.3491L85.3492 86.0974ZM104.555 77.5456H100.316V78.837H103.318C103.529 78.8425 103.696 79.0132 103.696 79.2219C103.696 79.4306 103.529 79.6013 103.318 79.6081H100.316V80.7897H103.318C103.533 80.7897 103.708 80.9618 103.708 81.1746C103.708 81.3873 103.533 81.5608 103.318 81.5608H100.316V82.7424H103.318C103.533 82.7424 103.708 82.9145 103.708 83.1286C103.708 83.3413 103.533 83.5134 103.318 83.5134H100.316V86.4838C100.316 86.6965 100.143 86.8686 99.9279 86.8686H95.3002V89.1628H104.555L104.555 77.5456ZM95.8046 77.7516H94.5852C94.3706 77.7516 94.1956 77.9237 94.1956 78.1364C94.1956 78.3492 94.3706 78.5213 94.5852 78.5213H95.8046C96.0193 78.5213 96.1929 78.3492 96.1929 78.1364C96.1929 77.9237 96.0193 77.7516 95.8046 77.7516Z" fill="#E9ECFF"/>
<path d="M61.2879 112.733L65.4533 102.555H66.4506L70.6013 112.733H69.1053L65.6879 104.124H66.2013L62.7546 112.733H61.2879ZM63.2679 110.431V109.228H68.6213V110.431H63.2679ZM74.7521 112.88C74.0677 112.88 73.4468 112.719 72.8895 112.396C72.3419 112.073 71.9068 111.638 71.5841 111.091C71.2713 110.533 71.1148 109.917 71.1148 109.243C71.1148 108.558 71.2713 107.942 71.5841 107.395C71.9068 106.847 72.3419 106.417 72.8895 106.104C73.4468 105.781 74.0677 105.62 74.7521 105.62C75.2899 105.62 75.7886 105.723 76.2481 105.928C76.7077 106.124 77.1037 106.412 77.4361 106.793L76.5561 107.673C76.341 107.419 76.077 107.229 75.7641 107.101C75.461 106.965 75.1237 106.896 74.7521 106.896C74.3121 106.896 73.921 106.999 73.5788 107.204C73.2366 107.4 72.9677 107.673 72.7721 108.025C72.5766 108.377 72.4788 108.783 72.4788 109.243C72.4788 109.702 72.5766 110.108 72.7721 110.46C72.9677 110.812 73.2366 111.091 73.5788 111.296C73.921 111.501 74.3121 111.604 74.7521 111.604C75.1237 111.604 75.461 111.541 75.7641 111.413C76.077 111.277 76.3459 111.081 76.5708 110.827L77.4361 111.707C77.1135 112.078 76.7175 112.367 76.2481 112.572C75.7886 112.777 75.2899 112.88 74.7521 112.88ZM81.7847 112.88C81.1003 112.88 80.4794 112.719 79.922 112.396C79.3745 112.073 78.9394 111.638 78.6167 111.091C78.3038 110.533 78.1474 109.917 78.1474 109.243C78.1474 108.558 78.3038 107.942 78.6167 107.395C78.9394 106.847 79.3745 106.417 79.922 106.104C80.4794 105.781 81.1003 105.62 81.7847 105.62C82.3225 105.62 82.8211 105.723 83.2807 105.928C83.7403 106.124 84.1363 106.412 84.4687 106.793L83.5887 107.673C83.3736 107.419 83.1096 107.229 82.7967 107.101C82.4936 106.965 82.1563 106.896 81.7847 106.896C81.3447 106.896 80.9536 106.999 80.6114 107.204C80.2691 107.4 80.0003 107.673 79.8047 108.025C79.6091 108.377 79.5114 108.783 79.5114 109.243C79.5114 109.702 79.6091 110.108 79.8047 110.46C80.0003 110.812 80.2691 111.091 80.6114 111.296C80.9536 111.501 81.3447 111.604 81.7847 111.604C82.1563 111.604 82.4936 111.541 82.7967 111.413C83.1096 111.277 83.3785 111.081 83.6034 110.827L84.4687 111.707C84.146 112.078 83.75 112.367 83.2807 112.572C82.8211 112.777 82.3225 112.88 81.7847 112.88ZM88.5791 112.88C88.012 112.88 87.4987 112.753 87.0391 112.499C86.5894 112.235 86.2374 111.873 85.9831 111.413C85.7289 110.954 85.6018 110.421 85.6018 109.815V105.767H86.9218V109.756C86.9218 110.137 86.9854 110.47 87.1125 110.753C87.2494 111.027 87.4449 111.237 87.6991 111.384C87.9534 111.531 88.2516 111.604 88.5938 111.604C89.112 111.604 89.5178 111.443 89.8111 111.12C90.1045 110.788 90.2511 110.333 90.2511 109.756V105.767H91.5711V109.815C91.5711 110.421 91.444 110.954 91.1898 111.413C90.9356 111.873 90.5836 112.235 90.1338 112.499C89.6938 112.753 89.1756 112.88 88.5791 112.88ZM93.3403 112.733V105.767H94.6603V112.733H93.3403ZM94.6603 108.759L94.1616 108.539C94.1616 107.649 94.367 106.94 94.7776 106.412C95.1883 105.884 95.7799 105.62 96.5523 105.62C96.9043 105.62 97.2221 105.684 97.5056 105.811C97.7892 105.928 98.0532 106.129 98.2976 106.412L97.4323 107.307C97.2856 107.15 97.1243 107.038 96.9483 106.969C96.7723 106.901 96.567 106.867 96.3323 106.867C95.8434 106.867 95.4425 107.023 95.1296 107.336C94.8168 107.649 94.6603 108.123 94.6603 108.759ZM101.961 112.88C101.325 112.88 100.748 112.724 100.23 112.411C99.7116 112.088 99.301 111.653 98.9979 111.105C98.7045 110.558 98.5579 109.942 98.5579 109.257C98.5579 108.573 98.7045 107.957 98.9979 107.409C99.301 106.862 99.7068 106.427 100.215 106.104C100.733 105.781 101.315 105.62 101.961 105.62C102.489 105.62 102.958 105.733 103.369 105.957C103.789 106.173 104.126 106.476 104.381 106.867C104.635 107.248 104.777 107.693 104.806 108.201V110.299C104.777 110.797 104.635 111.242 104.381 111.633C104.136 112.025 103.804 112.333 103.383 112.557C102.973 112.773 102.498 112.88 101.961 112.88ZM102.181 111.633C102.836 111.633 103.364 111.413 103.765 110.973C104.165 110.524 104.366 109.952 104.366 109.257C104.366 108.778 104.273 108.363 104.087 108.011C103.911 107.649 103.657 107.37 103.325 107.175C102.992 106.969 102.606 106.867 102.166 106.867C101.726 106.867 101.335 106.969 100.993 107.175C100.66 107.38 100.396 107.664 100.201 108.025C100.015 108.377 99.9219 108.783 99.9219 109.243C99.9219 109.712 100.015 110.128 100.201 110.489C100.396 110.841 100.665 111.12 101.007 111.325C101.349 111.531 101.741 111.633 102.181 111.633ZM104.278 112.733V110.856L104.527 109.155L104.278 107.468V105.767H105.613V112.733H104.278ZM110.717 112.88C110.033 112.88 109.412 112.719 108.854 112.396C108.307 112.073 107.872 111.638 107.549 111.091C107.236 110.533 107.08 109.917 107.08 109.243C107.08 108.558 107.236 107.942 107.549 107.395C107.872 106.847 108.307 106.417 108.854 106.104C109.412 105.781 110.033 105.62 110.717 105.62C111.255 105.62 111.753 105.723 112.213 105.928C112.673 106.124 113.069 106.412 113.401 106.793L112.521 107.673C112.306 107.419 112.042 107.229 111.729 107.101C111.426 106.965 111.089 106.896 110.717 106.896C110.277 106.896 109.886 106.999 109.544 107.204C109.201 107.4 108.933 107.673 108.737 108.025C108.541 108.377 108.444 108.783 108.444 109.243C108.444 109.702 108.541 110.108 108.737 110.46C108.933 110.812 109.201 111.091 109.544 111.296C109.886 111.501 110.277 111.604 110.717 111.604C111.089 111.604 111.426 111.541 111.729 111.413C112.042 111.277 112.311 111.081 112.536 110.827L113.401 111.707C113.078 112.078 112.682 112.367 112.213 112.572C111.753 112.777 111.255 112.88 110.717 112.88ZM116.998 112.792L113.977 105.767H115.443L117.687 111.267H117.218L119.579 105.767H121.046L117.79 112.792H116.998ZM115.003 115.652L117.057 111.443L117.79 112.792L116.47 115.652H115.003Z" fill="#E9ECFF"/>
<rect x="157.333" y="40" width="102.667" height="102.667" rx="2.93333" fill="#1A237E"/>
<path d="M215.511 75L216.733 72.3111L219.422 71.0888L216.733 69.8666L215.511 67.1777L214.289 69.8666L211.6 71.0888L214.289 72.3111L215.511 75Z" fill="#E9ECFF"/>
<path d="M215.511 80.8666L214.289 83.5555L211.6 84.7777L214.289 86L215.511 88.6888L216.733 86L219.422 84.7777L216.733 83.5555L215.511 80.8666Z" fill="#E9ECFF"/>
<path d="M208.178 75.4888L205.733 70.1111L203.289 75.4888L197.911 77.9333L203.289 80.3777L205.733 85.7555L208.178 80.3777L213.555 77.9333L208.178 75.4888ZM206.701 78.9013L205.733 81.0328L204.765 78.9013L202.634 77.9333L204.765 76.9653L205.733 74.8337L206.701 76.9653L208.833 77.9333L206.701 78.9013Z" fill="#E9ECFF"/>
<path d="M176.121 112.467L180.287 102.288H181.284L185.435 112.467H183.939L180.521 103.857H181.035L177.588 112.467H176.121ZM178.101 110.164V108.961H183.455V110.164H178.101ZM189.39 112.613C188.823 112.613 188.31 112.486 187.85 112.232C187.4 111.968 187.048 111.606 186.794 111.147C186.54 110.687 186.413 110.154 186.413 109.548V105.5H187.733V109.489C187.733 109.871 187.796 110.203 187.924 110.487C188.06 110.76 188.256 110.971 188.51 111.117C188.764 111.264 189.063 111.337 189.405 111.337C189.923 111.337 190.329 111.176 190.622 110.853C190.916 110.521 191.062 110.066 191.062 109.489V105.5H192.382V109.548C192.382 110.154 192.255 110.687 192.001 111.147C191.747 111.606 191.395 111.968 190.945 112.232C190.505 112.486 189.987 112.613 189.39 112.613ZM195.222 112.467V102.581H196.542V112.467H195.222ZM193.506 106.703V105.5H198.258V106.703H193.506ZM202.519 112.613C201.835 112.613 201.219 112.452 200.671 112.129C200.123 111.807 199.688 111.371 199.366 110.824C199.043 110.267 198.882 109.646 198.882 108.961C198.882 108.287 199.043 107.68 199.366 107.143C199.688 106.595 200.123 106.16 200.671 105.837C201.219 105.515 201.835 105.353 202.519 105.353C203.194 105.353 203.805 105.515 204.352 105.837C204.91 106.15 205.35 106.58 205.672 107.128C205.995 107.675 206.156 108.287 206.156 108.961C206.156 109.646 205.995 110.267 205.672 110.824C205.35 111.371 204.91 111.807 204.352 112.129C203.805 112.452 203.194 112.613 202.519 112.613ZM202.519 111.337C202.959 111.337 203.35 111.235 203.692 111.029C204.035 110.824 204.303 110.545 204.499 110.193C204.695 109.831 204.792 109.421 204.792 108.961C204.792 108.511 204.69 108.111 204.484 107.759C204.289 107.407 204.02 107.133 203.678 106.937C203.345 106.732 202.959 106.629 202.519 106.629C202.079 106.629 201.688 106.732 201.346 106.937C201.003 107.133 200.735 107.407 200.539 107.759C200.343 108.111 200.246 108.511 200.246 108.961C200.246 109.421 200.343 109.831 200.539 110.193C200.735 110.545 201.003 110.824 201.346 111.029C201.688 111.235 202.079 111.337 202.519 111.337ZM207.644 112.467V105.5H208.964V112.467H207.644ZM212.352 112.467V108.257C212.352 107.739 212.19 107.333 211.868 107.04C211.555 106.737 211.159 106.585 210.68 106.585C210.357 106.585 210.069 106.654 209.814 106.791C209.56 106.927 209.355 107.118 209.198 107.363C209.042 107.607 208.964 107.9 208.964 108.243L208.421 107.979C208.421 107.451 208.533 106.991 208.758 106.6C208.993 106.209 209.311 105.906 209.712 105.691C210.113 105.466 210.562 105.353 211.061 105.353C211.55 105.353 211.99 105.461 212.381 105.676C212.782 105.891 213.095 106.194 213.32 106.585C213.554 106.976 213.672 107.441 213.672 107.979V112.467H212.352ZM217.06 112.467V108.257C217.06 107.739 216.898 107.333 216.576 107.04C216.263 106.737 215.872 106.585 215.402 106.585C215.08 106.585 214.786 106.654 214.522 106.791C214.268 106.927 214.063 107.118 213.906 107.363C213.75 107.607 213.672 107.9 213.672 108.243L212.924 107.979C212.953 107.441 213.095 106.981 213.349 106.6C213.613 106.209 213.95 105.906 214.361 105.691C214.772 105.466 215.221 105.353 215.71 105.353C216.219 105.353 216.673 105.461 217.074 105.676C217.475 105.891 217.793 106.194 218.028 106.585C218.272 106.976 218.394 107.446 218.394 107.993V112.467H217.06ZM223.153 112.613C222.518 112.613 221.941 112.457 221.422 112.144C220.904 111.821 220.494 111.386 220.19 110.839C219.897 110.291 219.75 109.675 219.75 108.991C219.75 108.306 219.897 107.69 220.19 107.143C220.494 106.595 220.899 106.16 221.408 105.837C221.926 105.515 222.508 105.353 223.153 105.353C223.681 105.353 224.15 105.466 224.561 105.691C224.982 105.906 225.319 106.209 225.573 106.6C225.827 106.981 225.969 107.426 225.998 107.935V110.032C225.969 110.531 225.827 110.975 225.573 111.367C225.329 111.758 224.996 112.066 224.576 112.291C224.165 112.506 223.691 112.613 223.153 112.613ZM223.373 111.367C224.028 111.367 224.556 111.147 224.957 110.707C225.358 110.257 225.558 109.685 225.558 108.991C225.558 108.511 225.466 108.096 225.28 107.744C225.104 107.382 224.85 107.103 224.517 106.908C224.185 106.703 223.798 106.6 223.358 106.6C222.918 106.6 222.527 106.703 222.185 106.908C221.853 107.113 221.589 107.397 221.393 107.759C221.207 108.111 221.114 108.516 221.114 108.976C221.114 109.445 221.207 109.861 221.393 110.223C221.589 110.575 221.858 110.853 222.2 111.059C222.542 111.264 222.933 111.367 223.373 111.367ZM225.47 112.467V110.589L225.72 108.888L225.47 107.201V105.5H226.805V112.467H225.47ZM229.769 112.467V102.581H231.089V112.467H229.769ZM228.053 106.703V105.5H232.805V106.703H228.053ZM237.11 112.613C236.416 112.613 235.79 112.457 235.233 112.144C234.675 111.821 234.235 111.386 233.913 110.839C233.59 110.291 233.429 109.67 233.429 108.976C233.429 108.291 233.585 107.675 233.898 107.128C234.221 106.58 234.651 106.15 235.189 105.837C235.736 105.515 236.347 105.353 237.022 105.353C237.667 105.353 238.234 105.5 238.723 105.793C239.222 106.087 239.608 106.492 239.882 107.011C240.165 107.529 240.307 108.115 240.307 108.771C240.307 108.868 240.302 108.976 240.293 109.093C240.283 109.201 240.263 109.328 240.234 109.475H234.353V108.375H239.53L239.046 108.8C239.046 108.331 238.963 107.935 238.797 107.612C238.63 107.279 238.396 107.025 238.093 106.849C237.789 106.663 237.423 106.571 236.993 106.571C236.543 106.571 236.147 106.668 235.805 106.864C235.462 107.059 235.198 107.333 235.013 107.685C234.827 108.037 234.734 108.453 234.734 108.932C234.734 109.421 234.832 109.851 235.027 110.223C235.223 110.584 235.501 110.868 235.863 111.073C236.225 111.269 236.641 111.367 237.11 111.367C237.501 111.367 237.858 111.298 238.181 111.161C238.513 111.024 238.797 110.819 239.031 110.545L239.882 111.411C239.549 111.802 239.139 112.1 238.65 112.305C238.171 112.511 237.657 112.613 237.11 112.613Z" fill="#E9ECFF"/>
<rect x="40" y="157.333" width="220" height="102.667" rx="2.93333" fill="#1A237E"/>
<path d="M93.1667 210.378C90.8787 210.378 86.3223 211.522 86.3223 213.8V215.511H100.011V213.8C100.011 211.522 95.4547 210.378 93.1667 210.378ZM88.6103 213.556C89.4316 212.988 91.4165 212.333 93.1667 212.333C94.9169 212.333 96.9018 212.988 97.7232 213.556H88.6103ZM93.1667 208.667C95.0538 208.667 96.5889 207.132 96.5889 205.244C96.5889 203.357 95.0538 201.822 93.1667 201.822C91.2796 201.822 89.7445 203.357 89.7445 205.244C89.7445 207.132 91.2796 208.667 93.1667 208.667ZM93.1667 203.778C93.9783 203.778 94.6334 204.433 94.6334 205.244C94.6334 206.056 93.9783 206.711 93.1667 206.711C92.3552 206.711 91.7 206.056 91.7 205.244C91.7 204.433 92.3552 203.778 93.1667 203.778ZM100.05 210.436C101.184 211.258 101.967 212.353 101.967 213.8V215.511H105.878V213.8C105.878 211.825 102.456 210.7 100.05 210.436ZM99.0334 208.667C100.92 208.667 102.456 207.132 102.456 205.244C102.456 203.357 100.92 201.822 99.0334 201.822C98.5054 201.822 98.0165 201.949 97.5667 202.164C98.1827 203.035 98.5445 204.1 98.5445 205.244C98.5445 206.388 98.1827 207.454 97.5667 208.324C98.0165 208.54 98.5054 208.667 99.0334 208.667Z" fill="#E9ECFF"/>
<path d="M118.108 213.667V203.488H119.076L123.388 210.572H122.728L127.04 203.488H128.008V213.667H126.629V205.908L126.952 205.996L123.549 211.584H122.581L119.179 205.996L119.487 205.908V213.667H118.108ZM132.978 213.813C132.411 213.813 131.898 213.686 131.438 213.432C130.988 213.168 130.636 212.806 130.382 212.347C130.128 211.887 130.001 211.354 130.001 210.748V206.7H131.321V210.689C131.321 211.071 131.384 211.403 131.511 211.687C131.648 211.961 131.844 212.171 132.098 212.317C132.352 212.464 132.651 212.537 132.993 212.537C133.511 212.537 133.917 212.376 134.21 212.053C134.503 211.721 134.65 211.266 134.65 210.689V206.7H135.97V210.748C135.97 211.354 135.843 211.887 135.589 212.347C135.335 212.806 134.983 213.168 134.533 213.432C134.093 213.686 133.575 213.813 132.978 213.813ZM137.739 213.667V203.195H139.059V213.667H137.739ZM142.061 213.667V203.781H143.381V213.667H142.061ZM140.345 207.903V206.7H145.097V207.903H140.345ZM146.405 213.667V206.7H147.725V213.667H146.405ZM147.065 205.307C146.821 205.307 146.62 205.229 146.464 205.072C146.307 204.906 146.229 204.701 146.229 204.456C146.229 204.221 146.307 204.026 146.464 203.869C146.62 203.703 146.821 203.62 147.065 203.62C147.309 203.62 147.51 203.703 147.666 203.869C147.823 204.026 147.901 204.221 147.901 204.456C147.901 204.701 147.823 204.906 147.666 205.072C147.51 205.229 147.309 205.307 147.065 205.307ZM153.337 213.813C152.809 213.813 152.33 213.706 151.9 213.491C151.479 213.266 151.142 212.958 150.888 212.567C150.633 212.176 150.492 211.731 150.462 211.232V209.135C150.492 208.626 150.633 208.181 150.888 207.8C151.152 207.409 151.494 207.106 151.914 206.891C152.345 206.666 152.819 206.553 153.337 206.553C153.973 206.553 154.545 206.715 155.053 207.037C155.571 207.36 155.977 207.795 156.27 208.343C156.564 208.89 156.71 209.506 156.71 210.191C156.71 210.875 156.564 211.491 156.27 212.039C155.977 212.586 155.571 213.021 155.053 213.344C154.545 213.657 153.973 213.813 153.337 213.813ZM149.67 216.585V206.7H150.99V208.533L150.741 210.22L150.99 211.921V216.585H149.67ZM153.117 212.567C153.557 212.567 153.943 212.464 154.276 212.259C154.608 212.053 154.872 211.775 155.068 211.423C155.263 211.061 155.361 210.645 155.361 210.176C155.361 209.717 155.263 209.306 155.068 208.944C154.872 208.582 154.608 208.304 154.276 208.108C153.943 207.903 153.562 207.8 153.132 207.8C152.692 207.8 152.305 207.903 151.973 208.108C151.641 208.304 151.381 208.582 151.196 208.944C151.01 209.306 150.917 209.721 150.917 210.191C150.917 210.65 151.005 211.061 151.181 211.423C151.367 211.775 151.626 212.053 151.958 212.259C152.301 212.464 152.687 212.567 153.117 212.567ZM158.207 213.667V203.195H159.527V213.667H158.207ZM164.685 213.813C163.991 213.813 163.365 213.657 162.807 213.344C162.25 213.021 161.81 212.586 161.487 212.039C161.165 211.491 161.003 210.87 161.003 210.176C161.003 209.492 161.16 208.876 161.473 208.328C161.795 207.781 162.226 207.35 162.763 207.037C163.311 206.715 163.922 206.553 164.597 206.553C165.242 206.553 165.809 206.7 166.298 206.993C166.797 207.287 167.183 207.693 167.457 208.211C167.74 208.729 167.882 209.316 167.882 209.971C167.882 210.069 167.877 210.176 167.867 210.293C167.858 210.401 167.838 210.528 167.809 210.675H161.927V209.575H167.105L166.621 210C166.621 209.531 166.538 209.135 166.371 208.812C166.205 208.48 165.971 208.225 165.667 208.049C165.364 207.864 164.998 207.771 164.567 207.771C164.118 207.771 163.722 207.869 163.379 208.064C163.037 208.26 162.773 208.533 162.587 208.885C162.402 209.237 162.309 209.653 162.309 210.132C162.309 210.621 162.407 211.051 162.602 211.423C162.798 211.785 163.076 212.068 163.438 212.273C163.8 212.469 164.215 212.567 164.685 212.567C165.076 212.567 165.433 212.498 165.755 212.361C166.088 212.225 166.371 212.019 166.606 211.745L167.457 212.611C167.124 213.002 166.714 213.3 166.225 213.505C165.746 213.711 165.232 213.813 164.685 213.813ZM177.227 213.813C176.493 213.813 175.814 213.681 175.188 213.417C174.562 213.144 174.015 212.767 173.545 212.288C173.086 211.809 172.729 211.252 172.475 210.616C172.221 209.981 172.093 209.301 172.093 208.577C172.093 207.844 172.221 207.16 172.475 206.524C172.729 205.889 173.086 205.336 173.545 204.867C174.015 204.388 174.557 204.016 175.173 203.752C175.799 203.478 176.479 203.341 177.212 203.341C178.014 203.341 178.718 203.478 179.324 203.752C179.93 204.026 180.468 204.397 180.937 204.867L179.984 205.82C179.661 205.458 179.265 205.175 178.796 204.969C178.337 204.764 177.809 204.661 177.212 204.661C176.674 204.661 176.181 204.759 175.731 204.955C175.281 205.141 174.89 205.409 174.557 205.761C174.225 206.113 173.966 206.529 173.78 207.008C173.604 207.487 173.516 208.01 173.516 208.577C173.516 209.145 173.604 209.668 173.78 210.147C173.966 210.626 174.225 211.041 174.557 211.393C174.89 211.745 175.281 212.019 175.731 212.215C176.181 212.401 176.674 212.493 177.212 212.493C177.848 212.493 178.4 212.391 178.869 212.185C179.339 211.97 179.735 211.682 180.057 211.32L181.011 212.259C180.541 212.748 179.989 213.129 179.353 213.403C178.728 213.677 178.019 213.813 177.227 213.813ZM182.47 213.667V203.195H183.79V213.667H182.47ZM185.736 213.667V206.7H187.056V213.667H185.736ZM186.396 205.307C186.151 205.307 185.951 205.229 185.794 205.072C185.638 204.906 185.56 204.701 185.56 204.456C185.56 204.221 185.638 204.026 185.794 203.869C185.951 203.703 186.151 203.62 186.396 203.62C186.64 203.62 186.841 203.703 186.997 203.869C187.154 204.026 187.232 204.221 187.232 204.456C187.232 204.701 187.154 204.906 186.997 205.072C186.841 205.229 186.64 205.307 186.396 205.307ZM192.228 213.813C191.533 213.813 190.908 213.657 190.35 213.344C189.793 213.021 189.353 212.586 189.03 212.039C188.708 211.491 188.546 210.87 188.546 210.176C188.546 209.492 188.703 208.876 189.016 208.328C189.338 207.781 189.769 207.35 190.306 207.037C190.854 206.715 191.465 206.553 192.14 206.553C192.785 206.553 193.352 206.7 193.841 206.993C194.34 207.287 194.726 207.693 195 208.211C195.283 208.729 195.425 209.316 195.425 209.971C195.425 210.069 195.42 210.176 195.41 210.293C195.401 210.401 195.381 210.528 195.352 210.675H189.47V209.575H194.648L194.164 210C194.164 209.531 194.081 209.135 193.914 208.812C193.748 208.48 193.513 208.225 193.21 208.049C192.907 207.864 192.541 207.771 192.11 207.771C191.661 207.771 191.265 207.869 190.922 208.064C190.58 208.26 190.316 208.533 190.13 208.885C189.945 209.237 189.852 209.653 189.852 210.132C189.852 210.621 189.949 211.051 190.145 211.423C190.341 211.785 190.619 212.068 190.981 212.273C191.343 212.469 191.758 212.567 192.228 212.567C192.619 212.567 192.976 212.498 193.298 212.361C193.631 212.225 193.914 212.019 194.149 211.745L195 212.611C194.667 213.002 194.257 213.3 193.768 213.505C193.289 213.711 192.775 213.813 192.228 213.813ZM201.792 213.667V209.604C201.792 209.076 201.626 208.641 201.294 208.299C200.961 207.957 200.531 207.785 200.003 207.785C199.651 207.785 199.338 207.864 199.064 208.02C198.791 208.177 198.575 208.392 198.419 208.665C198.263 208.939 198.184 209.252 198.184 209.604L197.642 209.296C197.642 208.768 197.759 208.299 197.994 207.888C198.228 207.477 198.556 207.155 198.976 206.92C199.397 206.676 199.871 206.553 200.399 206.553C200.927 206.553 201.391 206.685 201.792 206.949C202.203 207.213 202.526 207.561 202.76 207.991C202.995 208.411 203.112 208.861 203.112 209.34V213.667H201.792ZM196.864 213.667V206.7H198.184V213.667H196.864ZM205.884 213.667V203.781H207.204V213.667H205.884ZM204.168 207.903V206.7H208.92V207.903H204.168ZM212.285 213.813C211.894 213.813 211.522 213.765 211.17 213.667C210.828 213.559 210.51 213.413 210.217 213.227C209.923 213.031 209.669 212.801 209.454 212.537L210.305 211.687C210.559 212 210.852 212.234 211.185 212.391C211.517 212.537 211.889 212.611 212.299 212.611C212.71 212.611 213.028 212.542 213.253 212.405C213.478 212.259 213.59 212.058 213.59 211.804C213.59 211.55 213.497 211.354 213.311 211.217C213.135 211.071 212.906 210.953 212.622 210.865C212.338 210.768 212.035 210.675 211.713 210.587C211.4 210.489 211.102 210.367 210.818 210.22C210.534 210.073 210.3 209.873 210.114 209.619C209.938 209.365 209.85 209.027 209.85 208.607C209.85 208.186 209.953 207.825 210.158 207.521C210.363 207.209 210.647 206.969 211.009 206.803C211.38 206.637 211.825 206.553 212.343 206.553C212.891 206.553 213.375 206.651 213.795 206.847C214.226 207.033 214.578 207.316 214.851 207.697L214.001 208.548C213.805 208.294 213.561 208.098 213.267 207.961C212.984 207.825 212.661 207.756 212.299 207.756C211.918 207.756 211.625 207.825 211.419 207.961C211.224 208.089 211.126 208.269 211.126 208.504C211.126 208.739 211.214 208.92 211.39 209.047C211.566 209.174 211.796 209.281 212.079 209.369C212.373 209.457 212.676 209.55 212.989 209.648C213.302 209.736 213.6 209.858 213.883 210.015C214.167 210.171 214.397 210.381 214.573 210.645C214.758 210.909 214.851 211.257 214.851 211.687C214.851 212.342 214.617 212.86 214.147 213.241C213.688 213.623 213.067 213.813 212.285 213.813Z" fill="#E9ECFF"/>
</svg>
