<svg width="24" height="24" viewBox="0 0 24 24" fill="none" xmlns="http://www.w3.org/2000/svg">
<path d="M24 12C24 18.6274 18.6274 24 12 24C5.37258 24 0 18.6274 0 12C0 5.37258 5.37258 0 12 0C18.6274 0 24 5.37258 24 12Z" fill="#65E378"/>
<path d="M4.95543 11.4162C5.50528 10.8541 6.49607 10.8692 7.03425 11.443L9.64953 14.1343L17.0326 6.71151C18.4291 5.34572 20.4525 7.40783 19.1181 8.79209L10.7694 17.1813C10.1676 17.8088 9.08625 17.8021 8.49613 17.1679L4.92865 13.5035C4.35866 12.9195 4.37201 11.9867 4.95543 11.4162Z" fill="white"/>
</svg>
