<svg width="24" height="24" viewBox="0 0 24 24" fill="none" xmlns="http://www.w3.org/2000/svg">
<g clip-path="url(#clip0_1236_298)">
<path d="M24 12C24 18.6274 18.6274 24 12 24C5.37258 24 0 18.6274 0 12C0 5.37258 5.37258 0 12 0C18.6274 0 24 5.37258 24 12Z" fill="#33CA4A"/>
<path d="M4.95533 11.4162C5.50518 10.8541 6.49597 10.8692 7.03415 11.443L9.64943 14.1343L17.0325 6.71154C18.429 5.34575 20.4524 7.40786 19.118 8.79212L10.7693 17.1813C10.1675 17.8088 9.08615 17.8021 8.49603 17.1679L4.92855 13.5035C4.35856 12.9195 4.37191 11.9867 4.95533 11.4162Z" fill="white"/>
</g>
<defs>
<clipPath id="clip0_1236_298">
<rect width="24" height="24" fill="white"/>
</clipPath>
</defs>
</svg>
