<svg width="24" height="24" viewBox="0 0 24 24" fill="none" xmlns="http://www.w3.org/2000/svg">
<g clip-path="url(#clip0_1236_296)">
<path d="M24 12C24 5.38084 18.5987 0 11.9691 0C-3.99213 0.655398 -3.98727 23.343 11.9691 24C18.5987 24 24 18.6126 24 12ZM17.5293 6.45402C18.164 7.08018 18.164 8.11226 17.5293 8.74529L14.5147 11.7522C14.3768 11.8898 14.3768 12.11 14.5147 12.2407L17.5293 15.2545C18.1623 15.8548 18.1588 16.9472 17.5293 17.5458C16.8947 18.1788 15.8668 18.1788 15.2322 17.5458L12.2106 14.532C12.0795 14.4012 11.8588 14.4012 11.7277 14.532L8.70614 17.5458C8.09218 18.1581 7.02291 18.1581 6.40896 17.5458C5.77946 16.9471 5.77602 15.8548 6.40896 15.2545L9.42358 12.2407C9.56155 12.11 9.56155 11.8898 9.42358 11.7522L6.40896 8.74529C5.7743 8.11226 5.7743 7.08018 6.40896 6.45402C7.00913 5.82099 8.10079 5.82614 8.70614 6.45402L11.7277 9.46089C11.8588 9.5985 12.0795 9.5985 12.2106 9.46089L15.2322 6.45402C15.8668 5.82099 16.8947 5.82099 17.5293 6.45402Z" fill="#DD3D3D"/>
</g>
<defs>
<clipPath id="clip0_1236_296">
<rect width="24" height="24" fill="white"/>
</clipPath>
</defs>
</svg>
