<svg width="300" height="300" viewBox="0 0 300 300" fill="none" xmlns="http://www.w3.org/2000/svg">
<rect width="300" height="300" fill="#E9ECFF"/>
<rect x="40" y="40" width="220" height="102.667" rx="2.93333" fill="#1A237E"/>
<path d="M87.8495 100.561C87.7011 100.561 87.5666 100.472 87.5068 100.334C87.2457 99.7277 86.631 98.892 86.0372 98.0846C85.0409 96.7315 84.1003 95.4531 84.1003 94.4851C84.1003 93.1269 84.8147 91.871 85.9744 91.1919C87.1351 90.5128 88.5638 90.5128 89.7235 91.1919C90.8842 91.871 91.5986 93.1271 91.5986 94.4851C91.5986 95.4542 90.6581 96.7325 89.6618 98.0846C89.068 98.893 88.4532 99.7257 88.1922 100.334C88.1324 100.472 87.998 100.561 87.8495 100.561ZM87.8495 91.4403C86.1926 91.4423 84.8495 92.8045 84.8475 94.4851C84.8475 95.2016 85.798 96.4931 86.6359 97.6319C87.0902 98.2483 87.5266 98.8425 87.8494 99.3781C88.1722 98.8415 88.6086 98.2483 89.0629 97.6319C89.9008 96.4931 90.8513 95.2026 90.8513 94.4851C90.8493 92.8046 89.5065 91.4424 87.8495 91.4403Z" fill="#E9ECFF"/>
<path d="M87.8493 96.5344C87.0323 96.5344 86.295 96.0352 85.9822 95.2692C85.6693 94.5032 85.8427 93.622 86.4206 93.0359C86.9984 92.4498 87.8672 92.274 88.6224 92.5913C89.3776 92.9086 89.8698 93.6564 89.8698 94.485C89.8688 95.6168 88.9652 96.5333 87.8493 96.5344ZM87.8493 93.1946C87.3342 93.1946 86.8699 93.5089 86.6726 93.9919C86.4754 94.4739 86.5849 95.0297 86.9486 95.3985C87.3133 95.7684 87.8612 95.8785 88.3365 95.6784C88.8127 95.4784 89.1226 95.0074 89.1226 94.485C89.1216 93.7726 88.5517 93.1946 87.8493 93.1946Z" fill="#E9ECFF"/>
<path d="M99.351 96.3665C99.2025 96.3665 99.068 96.2776 99.0082 96.1392C98.7472 95.5328 98.1335 94.6971 97.5387 93.8897C96.5424 92.5356 95.6018 91.2583 95.6018 90.2903C95.6018 88.9321 96.3162 87.6762 97.4759 86.9971C98.6366 86.318 100.065 86.318 101.226 86.9971C102.386 87.6762 103.1 88.9323 103.1 90.2903C103.1 91.2584 102.16 92.5377 101.163 93.8897C100.569 94.6982 99.9557 95.5308 99.6937 96.1392C99.6339 96.2776 99.4994 96.3665 99.351 96.3665ZM99.351 87.2445C97.6941 87.2465 96.351 88.6097 96.3489 90.2901C96.3489 91.0065 97.2994 92.297 98.1373 93.4368C98.5916 94.0543 99.0281 94.6495 99.3509 95.184C99.6737 94.6474 100.11 94.0543 100.564 93.4378C101.402 92.298 102.353 91.0075 102.353 90.2911V90.2901C102.351 88.6096 101.008 87.2463 99.351 87.2445Z" fill="#E9ECFF"/>
<path d="M99.351 92.3398C98.534 92.3388 97.7967 91.8396 97.4839 91.0736C97.171 90.3086 97.3444 89.4265 97.9223 88.8404C98.5001 88.2543 99.3699 88.0794 100.124 88.3967C100.879 88.7141 101.372 89.4618 101.372 90.2905C101.371 91.4212 100.466 92.3378 99.351 92.3398ZM99.351 88.999C98.8359 88.999 98.3716 89.3133 98.1743 89.7963C97.9771 90.2783 98.0867 90.8341 98.4503 91.204C98.815 91.5728 99.3629 91.684 99.8382 91.4839C100.314 91.2838 100.624 90.8129 100.624 90.2904C100.623 89.578 100.053 89 99.351 88.999Z" fill="#E9ECFF"/>
<path d="M92.1815 102.439H91.2649C91.0587 102.439 90.8923 102.269 90.8923 102.06C90.8923 101.851 91.0587 101.681 91.2649 101.681H92.1815C92.3818 101.681 92.5432 101.516 92.5442 101.313V100.505C92.5442 99.8844 93.0413 99.3812 93.6541 99.3802H94.2917C94.498 99.3802 94.6653 99.5499 94.6653 99.7591C94.6653 99.9683 94.498 100.138 94.2917 100.138H93.6541C93.4538 100.138 93.2914 100.303 93.2914 100.506V101.314V101.313C93.2904 101.935 92.7943 102.438 92.1815 102.439ZM89.5014 102.439H88.5847H88.5857C87.973 102.438 87.4768 101.935 87.4758 101.313V100.183C87.4758 99.9733 87.6432 99.8036 87.8494 99.8036C88.0557 99.8036 88.223 99.9733 88.223 100.183V101.314V101.313C88.223 101.516 88.3854 101.681 88.5847 101.681H89.5013C89.7086 101.681 89.876 101.851 89.876 102.06C89.876 102.269 89.7086 102.439 89.5014 102.439ZM96.8741 100.137H96.0521H96.0531C95.8459 100.137 95.6785 99.9683 95.6785 99.7591C95.6785 99.5489 95.8458 99.3792 96.0531 99.3792H96.8751H96.8741C97.0743 99.3792 97.2367 99.2155 97.2367 99.0123V98.7395V98.7405C97.2377 98.119 97.7339 97.6158 98.3467 97.6148H98.6127C98.8129 97.6138 98.9743 97.4501 98.9743 97.2469V95.9878C98.9743 95.7786 99.1417 95.6089 99.348 95.6089C99.5552 95.6089 99.7216 95.7787 99.7216 95.9878V97.2449C99.7216 97.8664 99.2254 98.3696 98.6127 98.3707H98.3466C98.1464 98.3707 97.985 98.5354 97.984 98.7385V99.0133C97.983 99.6328 97.4878 100.136 96.8771 100.137L96.8741 100.137Z" fill="#E9ECFF"/>
<path d="M93.2683 89.4133H88.6604C88.0477 89.4123 87.5515 88.909 87.5505 88.2875V86.606C87.5505 86.3968 87.7179 86.2271 87.9252 86.2271C88.1314 86.2271 88.2978 86.3969 88.2978 86.606V88.2855C88.2988 88.4886 88.4602 88.6523 88.6604 88.6533H93.2683C93.4686 88.6523 93.63 88.4886 93.63 88.2855V84.6071C93.631 83.9867 94.1272 83.4834 94.7399 83.4824H95.796C96.0022 83.4824 96.1696 83.6522 96.1696 83.8614C96.1696 84.0705 96.0022 84.2403 95.796 84.2403H94.7399C94.5396 84.2403 94.3782 84.405 94.3772 84.6071V88.2855C94.3782 88.5846 94.2617 88.8706 94.0534 89.0828C93.8452 89.294 93.5632 89.4133 93.2683 89.4133ZM99.3509 87.2477C99.1447 87.2477 98.9773 87.0779 98.9773 86.8688V84.6102C98.9773 84.4071 98.8149 84.2434 98.6157 84.2424H97.5596C97.3523 84.2424 97.1849 84.0737 97.1849 83.8635C97.1849 83.6543 97.3523 83.4845 97.5596 83.4845H98.6157C99.2274 83.4856 99.7236 83.9888 99.7246 84.6103V86.8688C99.7236 87.077 99.5562 87.2457 99.351 87.2447L99.3509 87.2477Z" fill="#E9ECFF"/>
<path d="M87.8892 85.7754C87.683 85.7754 87.5156 85.6057 87.5156 85.3965V84.8084C87.5156 84.5992 87.683 84.4294 87.8892 84.4294C88.0955 84.4294 88.2628 84.5992 88.2628 84.8084V85.3955C88.2628 85.4965 88.224 85.5925 88.1542 85.6643C88.0835 85.735 87.9889 85.7754 87.8892 85.7754Z" fill="#E9ECFF"/>
<path d="M87.8414 85.1881H87.7777C87.2835 85.1628 86.7106 84.8273 86.7196 83.9633V83.9643C86.7206 83.7541 86.89 83.5864 87.0962 83.5884C87.3025 83.5904 87.4678 83.7612 87.4668 83.9704C87.4638 84.2736 87.5744 84.4181 87.8155 84.4312C88.0646 84.4433 88.3386 84.2857 88.3536 84.1179V84.1028C88.3994 83.745 87.8554 83.5247 87.7438 83.4843C86.7375 83.1135 86.6549 82.5365 86.7624 82.1201C86.9617 81.342 87.6093 81.0702 88.1294 81.147C88.7401 81.238 89.1506 81.7462 89.1257 82.3839H89.1247C89.1177 82.5941 88.9444 82.7568 88.7381 82.7497C88.5319 82.7426 88.3705 82.5668 88.3775 82.3576C88.3874 82.0605 88.1981 81.9251 88.0168 81.8989C87.8175 81.8685 87.5724 81.9615 87.4827 82.3132C87.4598 82.4011 87.418 82.5658 87.9968 82.777C88.758 83.0579 89.1675 83.5895 89.0928 84.1988C89.037 84.8021 88.4133 85.1881 87.8414 85.1881Z" fill="#E9ECFF"/>
<path d="M91.3753 86.9848H84.4737C84.2675 86.9848 84.1001 86.815 84.1001 86.6059V79.7122C84.1001 79.503 84.2675 79.3333 84.4737 79.3333H91.3753C91.474 79.3333 91.5696 79.3737 91.6394 79.4444C91.7091 79.5151 91.749 79.6122 91.749 79.7122V86.6059C91.749 86.7059 91.7091 86.8029 91.6394 86.8737C91.5696 86.9444 91.474 86.9848 91.3753 86.9848ZM84.8494 86.2269H91.0017V80.0909H84.8474L84.8494 86.2269Z" fill="#E9ECFF"/>
<path d="M87.96 81.8889C87.7538 81.8889 87.5864 81.7191 87.5864 81.5099V80.9248C87.5864 80.7157 87.7538 80.5459 87.96 80.5459C88.1663 80.5459 88.3336 80.7157 88.3336 80.9248V81.5099C88.3336 81.61 88.2938 81.707 88.224 81.7777C88.1543 81.8485 88.0587 81.8889 87.96 81.8889Z" fill="#E9ECFF"/>
<path d="M95.1735 101.034C94.6653 101.034 94.208 100.724 94.0138 100.248C93.8195 99.7721 93.9271 99.2244 94.2857 98.8606C94.6444 98.4968 95.1844 98.3876 95.6537 98.5847C96.123 98.7817 96.4288 99.2456 96.4288 99.761C96.4278 100.463 95.8659 101.033 95.1735 101.034ZM95.1735 99.2456C94.9682 99.2456 94.7829 99.3709 94.7042 99.5639C94.6255 99.7559 94.6693 99.9782 94.8138 100.126C94.9593 100.272 95.1785 100.317 95.3678 100.237C95.5581 100.157 95.6816 99.9691 95.6816 99.761C95.6816 99.6235 95.6288 99.4922 95.5332 99.3952C95.4385 99.2981 95.309 99.2436 95.1735 99.2436L95.1735 99.2456Z" fill="#E9ECFF"/>
<path d="M90.3842 103.333C89.876 103.333 89.4177 103.023 89.2234 102.547C89.0292 102.071 89.1368 101.523 89.4964 101.16C89.8551 100.796 90.3951 100.687 90.8644 100.884C91.3336 101.081 91.6395 101.545 91.6395 102.06C91.6385 102.763 91.0766 103.332 90.3842 103.333ZM90.3842 101.545C90.1779 101.545 89.9926 101.67 89.9139 101.863C89.8352 102.055 89.879 102.277 90.0245 102.425C90.1699 102.571 90.3881 102.616 90.5784 102.536C90.7677 102.456 90.8923 102.268 90.8923 102.06C90.8913 101.775 90.6641 101.545 90.3842 101.545Z" fill="#E9ECFF"/>
<path d="M96.6776 85.1345C96.1694 85.1335 95.7121 84.8233 95.5188 84.3473C95.3246 83.8714 95.4322 83.3237 95.7918 82.9599C96.1505 82.5961 96.6905 82.487 97.1598 82.685C97.628 82.8821 97.9339 83.3459 97.9339 83.8613C97.9329 84.5646 97.371 85.1345 96.6776 85.1345ZM96.6776 83.3459C96.4723 83.3459 96.287 83.4722 96.2093 83.6652C96.1306 83.8572 96.1744 84.0785 96.3199 84.2261C96.4654 84.3736 96.6836 84.4171 96.8729 84.3372C97.0632 84.2574 97.1867 84.0694 97.1867 83.8613C97.1867 83.7249 97.1329 83.5935 97.0373 83.4965C96.9416 83.3995 96.8121 83.3459 96.6776 83.3459Z" fill="#E9ECFF"/>
<path d="M116.003 96.3333V86.4479H117.381V96.3333H116.003ZM112.541 87.4159V86.1546H120.828V87.4159H112.541ZM120.675 96.3333V89.3666H121.995V96.3333H120.675ZM121.995 92.3586L121.496 92.1386C121.496 91.2488 121.701 90.5399 122.112 90.0119C122.523 89.4839 123.114 89.2199 123.887 89.2199C124.239 89.2199 124.557 89.2835 124.84 89.4106C125.124 89.5279 125.388 89.7284 125.632 90.0119L124.767 90.9066C124.62 90.7501 124.459 90.6377 124.283 90.5693C124.107 90.5008 123.901 90.4666 123.667 90.4666C123.178 90.4666 122.777 90.623 122.464 90.9359C122.151 91.2488 121.995 91.723 121.995 92.3586ZM129.295 96.4799C128.659 96.4799 128.083 96.3235 127.564 96.0106C127.046 95.6879 126.635 95.2528 126.332 94.7053C126.039 94.1577 125.892 93.5417 125.892 92.8573C125.892 92.1728 126.039 91.5568 126.332 91.0093C126.635 90.4617 127.041 90.0266 127.55 89.7039C128.068 89.3813 128.65 89.2199 129.295 89.2199C129.823 89.2199 130.292 89.3324 130.703 89.5573C131.123 89.7724 131.461 90.0755 131.715 90.4666C131.969 90.8479 132.111 91.2928 132.14 91.8013V93.8986C132.111 94.3973 131.969 94.8421 131.715 95.2333C131.471 95.6244 131.138 95.9324 130.718 96.1573C130.307 96.3724 129.833 96.4799 129.295 96.4799ZM129.515 95.2333C130.17 95.2333 130.698 95.0133 131.099 94.5733C131.5 94.1235 131.7 93.5515 131.7 92.8573C131.7 92.3781 131.607 91.9626 131.422 91.6106C131.246 91.2488 130.991 90.9701 130.659 90.7746C130.327 90.5693 129.94 90.4666 129.5 90.4666C129.06 90.4666 128.669 90.5693 128.327 90.7746C127.995 90.9799 127.731 91.2635 127.535 91.6253C127.349 91.9773 127.256 92.383 127.256 92.8426C127.256 93.3119 127.349 93.7275 127.535 94.0893C127.731 94.4413 127.999 94.7199 128.342 94.9253C128.684 95.1306 129.075 95.2333 129.515 95.2333ZM131.612 96.3333V94.4559L131.862 92.7546L131.612 91.0679V89.3666H132.947V96.3333H131.612ZM138.051 96.4799C137.367 96.4799 136.746 96.3186 136.189 95.9959C135.641 95.6733 135.206 95.2381 134.883 94.6906C134.571 94.1333 134.414 93.5173 134.414 92.8426C134.414 92.1581 134.571 91.5421 134.883 90.9946C135.206 90.447 135.641 90.0168 136.189 89.7039C136.746 89.3813 137.367 89.2199 138.051 89.2199C138.589 89.2199 139.088 89.3226 139.547 89.5279C140.007 89.7235 140.403 90.0119 140.735 90.3933L139.855 91.2733C139.64 91.019 139.376 90.8284 139.063 90.7013C138.76 90.5644 138.423 90.4959 138.051 90.4959C137.611 90.4959 137.22 90.5986 136.878 90.8039C136.536 90.9995 136.267 91.2733 136.071 91.6253C135.876 91.9773 135.778 92.383 135.778 92.8426C135.778 93.3021 135.876 93.7079 136.071 94.0599C136.267 94.4119 136.536 94.6906 136.878 94.8959C137.22 95.1013 137.611 95.2039 138.051 95.2039C138.423 95.2039 138.76 95.1404 139.063 95.0133C139.376 94.8764 139.645 94.6808 139.87 94.4266L140.735 95.3066C140.413 95.6781 140.017 95.9666 139.547 96.1719C139.088 96.3773 138.589 96.4799 138.051 96.4799ZM146.503 96.3333L143.247 92.7693L146.474 89.3666H148.073L144.479 93.1213L144.538 92.3586L148.205 96.3333H146.503ZM142.045 96.3333V85.8613H143.365V96.3333H142.045ZM153.559 92.3733V91.1706H156.331C156.712 91.1706 157.049 91.0924 157.343 90.9359C157.646 90.7795 157.88 90.5595 158.047 90.2759C158.223 89.9924 158.311 89.655 158.311 89.2639C158.311 88.8728 158.223 88.5355 158.047 88.2519C157.88 87.9684 157.646 87.7484 157.343 87.5919C157.049 87.4355 156.712 87.3573 156.331 87.3573H153.559V86.1546H156.419C157.044 86.1546 157.602 86.2817 158.091 86.5359C158.589 86.7901 158.98 87.1519 159.264 87.6213C159.557 88.0808 159.704 88.6284 159.704 89.2639C159.704 89.8897 159.557 90.4373 159.264 90.9066C158.98 91.3661 158.589 91.7279 158.091 91.9919C157.602 92.2461 157.044 92.3733 156.419 92.3733H153.559ZM152.635 96.3333V86.1546H154.013V96.3333H152.635ZM163.856 96.4799C163.221 96.4799 162.644 96.3235 162.126 96.0106C161.607 95.6879 161.197 95.2528 160.894 94.7053C160.6 94.1577 160.454 93.5417 160.454 92.8573C160.454 92.1728 160.6 91.5568 160.894 91.0093C161.197 90.4617 161.602 90.0266 162.111 89.7039C162.629 89.3813 163.211 89.2199 163.856 89.2199C164.384 89.2199 164.854 89.3324 165.264 89.5573C165.685 89.7724 166.022 90.0755 166.276 90.4666C166.53 90.8479 166.672 91.2928 166.702 91.8013V93.8986C166.672 94.3973 166.53 94.8421 166.276 95.2333C166.032 95.6244 165.699 95.9324 165.279 96.1573C164.868 96.3724 164.394 96.4799 163.856 96.4799ZM164.076 95.2333C164.731 95.2333 165.259 95.0133 165.66 94.5733C166.061 94.1235 166.262 93.5515 166.262 92.8573C166.262 92.3781 166.169 91.9626 165.983 91.6106C165.807 91.2488 165.553 90.9701 165.22 90.7746C164.888 90.5693 164.502 90.4666 164.062 90.4666C163.622 90.4666 163.23 90.5693 162.888 90.7746C162.556 90.9799 162.292 91.2635 162.096 91.6253C161.91 91.9773 161.818 92.383 161.818 92.8426C161.818 93.3119 161.91 93.7275 162.096 94.0893C162.292 94.4413 162.561 94.7199 162.903 94.9253C163.245 95.1306 163.636 95.2333 164.076 95.2333ZM166.174 96.3333V94.4559L166.423 92.7546L166.174 91.0679V89.3666H167.508V96.3333H166.174ZM171.718 96.3919L168.697 89.3666H170.163L172.407 94.8666H171.938L174.299 89.3666H175.766L172.51 96.3919H171.718ZM169.723 99.2519L171.777 95.0426L172.51 96.3919L171.19 99.2519H169.723ZM176.792 96.3333V89.3666H178.112V96.3333H176.792ZM181.5 96.3333V92.1239C181.5 91.6057 181.339 91.1999 181.016 90.9066C180.703 90.6035 180.307 90.4519 179.828 90.4519C179.505 90.4519 179.217 90.5204 178.963 90.6573C178.708 90.7941 178.503 90.9848 178.347 91.2293C178.19 91.4737 178.112 91.767 178.112 92.1093L177.569 91.8453C177.569 91.3173 177.682 90.8577 177.907 90.4666C178.141 90.0755 178.459 89.7724 178.86 89.5573C179.261 89.3324 179.711 89.2199 180.209 89.2199C180.698 89.2199 181.138 89.3275 181.529 89.5426C181.93 89.7577 182.243 90.0608 182.468 90.4519C182.703 90.843 182.82 91.3075 182.82 91.8453V96.3333H181.5ZM186.208 96.3333V92.1239C186.208 91.6057 186.047 91.1999 185.724 90.9066C185.411 90.6035 185.02 90.4519 184.551 90.4519C184.228 90.4519 183.935 90.5204 183.671 90.6573C183.416 90.7941 183.211 90.9848 183.055 91.2293C182.898 91.4737 182.82 91.767 182.82 92.1093L182.072 91.8453C182.101 91.3075 182.243 90.8479 182.497 90.4666C182.761 90.0755 183.099 89.7724 183.509 89.5573C183.92 89.3324 184.37 89.2199 184.859 89.2199C185.367 89.2199 185.822 89.3275 186.223 89.5426C186.624 89.7577 186.941 90.0608 187.176 90.4519C187.42 90.843 187.543 91.3124 187.543 91.8599V96.3333H186.208ZM192.566 96.4799C191.871 96.4799 191.246 96.3235 190.688 96.0106C190.131 95.6879 189.691 95.2528 189.368 94.7053C189.046 94.1577 188.884 93.5368 188.884 92.8426C188.884 92.1581 189.041 91.5421 189.354 90.9946C189.676 90.447 190.106 90.0168 190.644 89.7039C191.192 89.3813 191.803 89.2199 192.478 89.2199C193.123 89.2199 193.69 89.3666 194.179 89.6599C194.678 89.9533 195.064 90.359 195.338 90.8773C195.621 91.3955 195.763 91.9821 195.763 92.6373C195.763 92.735 195.758 92.8426 195.748 92.9599C195.738 93.0675 195.719 93.1946 195.69 93.3413H189.808V92.2413H194.986L194.502 92.6666C194.502 92.1973 194.418 91.8013 194.252 91.4786C194.086 91.1461 193.851 90.8919 193.548 90.7159C193.245 90.5301 192.878 90.4373 192.448 90.4373C191.998 90.4373 191.602 90.535 191.26 90.7306C190.918 90.9261 190.654 91.1999 190.468 91.5519C190.282 91.9039 190.19 92.3195 190.19 92.7986C190.19 93.2875 190.287 93.7177 190.483 94.0893C190.678 94.451 190.957 94.7346 191.319 94.9399C191.681 95.1355 192.096 95.2333 192.566 95.2333C192.957 95.2333 193.314 95.1648 193.636 95.0279C193.969 94.891 194.252 94.6857 194.487 94.4119L195.338 95.2773C195.005 95.6684 194.594 95.9666 194.106 96.1719C193.626 96.3773 193.113 96.4799 192.566 96.4799ZM202.13 96.3333V92.2706C202.13 91.7426 201.964 91.3075 201.631 90.9653C201.299 90.623 200.869 90.4519 200.341 90.4519C199.989 90.4519 199.676 90.5301 199.402 90.6866C199.128 90.843 198.913 91.0581 198.757 91.3319C198.6 91.6057 198.522 91.9186 198.522 92.2706L197.979 91.9626C197.979 91.4346 198.097 90.9653 198.331 90.5546C198.566 90.1439 198.894 89.8213 199.314 89.5866C199.735 89.3421 200.209 89.2199 200.737 89.2199C201.265 89.2199 201.729 89.3519 202.13 89.6159C202.541 89.8799 202.863 90.227 203.098 90.6573C203.333 91.0777 203.45 91.5275 203.45 92.0066V96.3333H202.13ZM197.202 96.3333V89.3666H198.522V96.3333H197.202ZM206.222 96.3333V86.4479H207.542V96.3333H206.222ZM204.506 90.5693V89.3666H209.258V90.5693H204.506ZM212.623 96.4799C212.231 96.4799 211.86 96.431 211.508 96.3333C211.166 96.2257 210.848 96.079 210.555 95.8933C210.261 95.6977 210.007 95.4679 209.792 95.2039L210.643 94.3533C210.897 94.6661 211.19 94.9008 211.523 95.0573C211.855 95.2039 212.227 95.2773 212.637 95.2773C213.048 95.2773 213.366 95.2088 213.591 95.0719C213.815 94.9253 213.928 94.7248 213.928 94.4706C213.928 94.2164 213.835 94.0208 213.649 93.8839C213.473 93.7373 213.243 93.6199 212.96 93.5319C212.676 93.4341 212.373 93.3413 212.051 93.2533C211.738 93.1555 211.439 93.0333 211.156 92.8866C210.872 92.7399 210.638 92.5395 210.452 92.2853C210.276 92.031 210.188 91.6937 210.188 91.2733C210.188 90.8528 210.291 90.491 210.496 90.1879C210.701 89.875 210.985 89.6355 211.347 89.4693C211.718 89.303 212.163 89.2199 212.681 89.2199C213.229 89.2199 213.713 89.3177 214.133 89.5133C214.563 89.699 214.915 89.9826 215.189 90.3639L214.339 91.2146C214.143 90.9604 213.899 90.7648 213.605 90.6279C213.322 90.491 212.999 90.4226 212.637 90.4226C212.256 90.4226 211.963 90.491 211.757 90.6279C211.562 90.755 211.464 90.9359 211.464 91.1706C211.464 91.4053 211.552 91.5861 211.728 91.7133C211.904 91.8404 212.134 91.9479 212.417 92.0359C212.711 92.1239 213.014 92.2168 213.327 92.3146C213.639 92.4026 213.938 92.5248 214.221 92.6813C214.505 92.8377 214.735 93.0479 214.911 93.3119C215.096 93.5759 215.189 93.923 215.189 94.3533C215.189 95.0084 214.955 95.5266 214.485 95.9079C214.026 96.2893 213.405 96.4799 212.623 96.4799Z" fill="#E9ECFF"/>
<rect x="40" y="157.333" width="102.667" height="102.667" rx="2.93333" fill="#1A237E"/>
<path d="M83.7554 189.4H85.7109V192.333H95.4887V189.4H97.4443V194.289H99.3998V189.4C99.3998 188.324 98.5198 187.444 97.4443 187.444H93.3571C92.9465 186.31 91.8709 185.489 90.5998 185.489C89.3287 185.489 88.2531 186.31 87.8425 187.444H83.7554C82.6798 187.444 81.7998 188.324 81.7998 189.4V203.089C81.7998 204.164 82.6798 205.044 83.7554 205.044H89.622V203.089H83.7554V189.4ZM90.5998 187.444C91.1376 187.444 91.5776 187.884 91.5776 188.422C91.5776 188.96 91.1376 189.4 90.5998 189.4C90.062 189.4 89.622 188.96 89.622 188.422C89.622 187.884 90.062 187.444 90.5998 187.444Z" fill="#E9ECFF"/>
<path d="M99.3998 195.755L94.0318 201.133L91.0887 198.2L89.622 199.667L94.0318 204.067L100.866 197.222L99.3998 195.755Z" fill="#E9ECFF"/>
<path d="M76.8666 229.946C76.0648 229.946 75.3804 229.8 74.8133 229.506C74.2461 229.213 73.7426 228.788 73.3026 228.23L74.2413 227.292C74.5639 227.742 74.9355 228.084 75.3559 228.318C75.7764 228.543 76.2946 228.656 76.9106 228.656C77.5168 228.656 78.0008 228.524 78.3626 228.26C78.7341 227.996 78.9199 227.634 78.9199 227.174C78.9199 226.793 78.8319 226.485 78.6559 226.25C78.4799 226.016 78.2404 225.825 77.9373 225.678C77.6439 225.522 77.3213 225.385 76.9693 225.268C76.6173 225.141 76.2653 225.009 75.9133 224.872C75.5613 224.725 75.2386 224.549 74.9453 224.344C74.6519 224.129 74.4124 223.85 74.2266 223.508C74.0506 223.166 73.9626 222.735 73.9626 222.217C73.9626 221.64 74.0995 221.151 74.3733 220.75C74.6568 220.34 75.0381 220.027 75.5173 219.812C76.0061 219.587 76.5537 219.474 77.1599 219.474C77.8248 219.474 78.4213 219.606 78.9493 219.87C79.4773 220.125 79.9075 220.462 80.2399 220.882L79.3013 221.821C78.9981 221.469 78.6706 221.205 78.3186 221.029C77.9764 220.853 77.5804 220.765 77.1306 220.765C76.583 220.765 76.1479 220.887 75.8253 221.132C75.5026 221.366 75.3413 221.699 75.3413 222.129C75.3413 222.471 75.4293 222.75 75.6053 222.965C75.791 223.17 76.0306 223.346 76.3239 223.493C76.6173 223.64 76.9399 223.777 77.2919 223.904C77.6537 224.021 78.0106 224.153 78.3626 224.3C78.7146 224.446 79.0373 224.632 79.3306 224.857C79.6239 225.082 79.8586 225.375 80.0346 225.737C80.2204 226.089 80.3133 226.534 80.3133 227.072C80.3133 227.971 80.0004 228.675 79.3746 229.184C78.7586 229.692 77.9226 229.946 76.8666 229.946ZM83.0073 229.8V219.914H84.3273V229.8H83.0073ZM81.2913 224.036V222.833H86.0433V224.036H81.2913ZM90.3042 229.946C89.6198 229.946 89.0038 229.785 88.4562 229.462C87.9087 229.14 87.4736 228.705 87.1509 228.157C86.8282 227.6 86.6669 226.979 86.6669 226.294C86.6669 225.62 86.8282 225.014 87.1509 224.476C87.4736 223.928 87.9087 223.493 88.4562 223.17C89.0038 222.848 89.6198 222.686 90.3042 222.686C90.9789 222.686 91.59 222.848 92.1376 223.17C92.6949 223.483 93.1349 223.914 93.4576 224.461C93.7802 225.009 93.9416 225.62 93.9416 226.294C93.9416 226.979 93.7802 227.6 93.4576 228.157C93.1349 228.705 92.6949 229.14 92.1376 229.462C91.59 229.785 90.9789 229.946 90.3042 229.946ZM90.3042 228.67C90.7442 228.67 91.1353 228.568 91.4776 228.362C91.8198 228.157 92.0887 227.878 92.2842 227.526C92.4798 227.165 92.5776 226.754 92.5776 226.294C92.5776 225.845 92.4749 225.444 92.2696 225.092C92.074 224.74 91.8051 224.466 91.4629 224.27C91.1305 224.065 90.7442 223.962 90.3042 223.962C89.8642 223.962 89.4731 224.065 89.1309 224.27C88.7887 224.466 88.5198 224.74 88.3242 225.092C88.1287 225.444 88.0309 225.845 88.0309 226.294C88.0309 226.754 88.1287 227.165 88.3242 227.526C88.5198 227.878 88.7887 228.157 89.1309 228.362C89.4731 228.568 89.8642 228.67 90.3042 228.67ZM98.6115 229.946C97.9271 229.946 97.3062 229.785 96.7489 229.462C96.2013 229.14 95.7662 228.705 95.4435 228.157C95.1306 227.6 94.9742 226.984 94.9742 226.309C94.9742 225.625 95.1306 225.009 95.4435 224.461C95.7662 223.914 96.2013 223.483 96.7489 223.17C97.3062 222.848 97.9271 222.686 98.6115 222.686C99.1493 222.686 99.648 222.789 100.108 222.994C100.567 223.19 100.963 223.478 101.296 223.86L100.416 224.74C100.2 224.486 99.9364 224.295 99.6235 224.168C99.3204 224.031 98.9831 223.962 98.6115 223.962C98.1715 223.962 97.7804 224.065 97.4382 224.27C97.096 224.466 96.8271 224.74 96.6315 225.092C96.436 225.444 96.3382 225.85 96.3382 226.309C96.3382 226.769 96.436 227.174 96.6315 227.526C96.8271 227.878 97.096 228.157 97.4382 228.362C97.7804 228.568 98.1715 228.67 98.6115 228.67C98.9831 228.67 99.3204 228.607 99.6235 228.48C99.9364 228.343 100.205 228.147 100.43 227.893L101.296 228.773C100.973 229.145 100.577 229.433 100.108 229.638C99.648 229.844 99.1493 229.946 98.6115 229.946ZM107.063 229.8L103.807 226.236L107.034 222.833H108.633L105.039 226.588L105.098 225.825L108.765 229.8H107.063ZM102.605 229.8V219.328H103.925V229.8H102.605Z" fill="#E9ECFF"/>
<rect x="157.333" y="157.333" width="102.667" height="102.667" rx="2.93333" fill="#1A237E"/>
<g clip-path="url(#clip0_841_1460)">
<path d="M209.436 204.558L199.864 194.985V196.941C199.864 197.459 200.069 197.958 200.441 198.32L208.058 205.936C208.82 206.699 210.062 206.699 210.825 205.936L216.897 199.864C217.66 199.102 217.66 197.86 216.897 197.097L209.436 204.558Z" fill="#E9ECFF"/>
<path d="M208.058 201.048C208.439 201.429 208.938 201.624 209.436 201.624C209.935 201.624 210.434 201.429 210.815 201.048L216.887 194.976C217.65 194.213 217.65 192.971 216.887 192.208L209.27 184.592C208.908 184.23 208.41 184.024 207.892 184.024H201.82C200.744 184.024 199.864 184.904 199.864 185.98V192.052C199.864 192.57 200.069 193.069 200.441 193.431L208.058 201.048ZM201.82 185.98H207.892L215.508 193.597L209.436 199.669L201.82 192.052V185.98Z" fill="#E9ECFF"/>
<path d="M204.02 189.402C204.695 189.402 205.242 188.855 205.242 188.18C205.242 187.505 204.695 186.958 204.02 186.958C203.345 186.958 202.797 187.505 202.797 188.18C202.797 188.855 203.345 189.402 204.02 189.402Z" fill="#E9ECFF"/>
</g>
<path d="M178.7 229.946C177.898 229.946 177.214 229.8 176.647 229.506C176.079 229.213 175.576 228.788 175.136 228.23L176.075 227.292C176.397 227.742 176.769 228.084 177.189 228.318C177.61 228.543 178.128 228.656 178.744 228.656C179.35 228.656 179.834 228.524 180.196 228.26C180.567 227.996 180.753 227.634 180.753 227.174C180.753 226.793 180.665 226.485 180.489 226.25C180.313 226.016 180.074 225.825 179.771 225.678C179.477 225.522 179.155 225.385 178.803 225.268C178.451 225.141 178.099 225.009 177.747 224.872C177.395 224.725 177.072 224.549 176.779 224.344C176.485 224.129 176.246 223.85 176.06 223.508C175.884 223.166 175.796 222.735 175.796 222.217C175.796 221.64 175.933 221.151 176.207 220.75C176.49 220.34 176.871 220.027 177.351 219.812C177.839 219.587 178.387 219.474 178.993 219.474C179.658 219.474 180.255 219.606 180.783 219.87C181.311 220.125 181.741 220.462 182.073 220.882L181.135 221.821C180.831 221.469 180.504 221.205 180.152 221.029C179.81 220.853 179.414 220.765 178.964 220.765C178.416 220.765 177.981 220.887 177.659 221.132C177.336 221.366 177.175 221.699 177.175 222.129C177.175 222.471 177.263 222.75 177.439 222.965C177.624 223.17 177.864 223.346 178.157 223.493C178.451 223.64 178.773 223.777 179.125 223.904C179.487 224.021 179.844 224.153 180.196 224.3C180.548 224.446 180.871 224.632 181.164 224.857C181.457 225.082 181.692 225.375 181.868 225.737C182.054 226.089 182.147 226.534 182.147 227.072C182.147 227.971 181.834 228.675 181.208 229.184C180.592 229.692 179.756 229.946 178.7 229.946ZM185.786 229.858L182.764 222.833H184.231L186.475 228.333H186.006L188.367 222.833H189.834L186.578 229.858H185.786ZM183.791 232.718L185.844 228.509L186.578 229.858L185.258 232.718H183.791ZM195.788 229.8V225.737C195.788 225.209 195.622 224.774 195.289 224.432C194.957 224.09 194.526 223.918 193.998 223.918C193.646 223.918 193.334 223.997 193.06 224.153C192.786 224.31 192.571 224.525 192.414 224.798C192.258 225.072 192.18 225.385 192.18 225.737L191.637 225.429C191.637 224.901 191.754 224.432 191.989 224.021C192.224 223.61 192.551 223.288 192.972 223.053C193.392 222.809 193.866 222.686 194.394 222.686C194.922 222.686 195.387 222.818 195.788 223.082C196.198 223.346 196.521 223.694 196.756 224.124C196.99 224.544 197.108 224.994 197.108 225.473V229.8H195.788ZM190.86 229.8V222.833H192.18V229.8H190.86ZM202.078 229.946C201.393 229.946 200.772 229.785 200.215 229.462C199.667 229.14 199.232 228.705 198.91 228.157C198.597 227.6 198.44 226.984 198.44 226.309C198.44 225.625 198.597 225.009 198.91 224.461C199.232 223.914 199.667 223.483 200.215 223.17C200.772 222.848 201.393 222.686 202.078 222.686C202.615 222.686 203.114 222.789 203.574 222.994C204.033 223.19 204.429 223.478 204.762 223.86L203.882 224.74C203.666 224.486 203.402 224.295 203.09 224.168C202.786 224.031 202.449 223.962 202.078 223.962C201.638 223.962 201.246 224.065 200.904 224.27C200.562 224.466 200.293 224.74 200.098 225.092C199.902 225.444 199.804 225.85 199.804 226.309C199.804 226.769 199.902 227.174 200.098 227.526C200.293 227.878 200.562 228.157 200.904 228.362C201.246 228.568 201.638 228.67 202.078 228.67C202.449 228.67 202.786 228.607 203.09 228.48C203.402 228.343 203.671 228.147 203.896 227.893L204.762 228.773C204.439 229.145 204.043 229.433 203.574 229.638C203.114 229.844 202.615 229.946 202.078 229.946ZM212.187 229.946C211.385 229.946 210.701 229.8 210.133 229.506C209.566 229.213 209.063 228.788 208.623 228.23L209.561 227.292C209.884 227.742 210.256 228.084 210.676 228.318C211.097 228.543 211.615 228.656 212.231 228.656C212.837 228.656 213.321 228.524 213.683 228.26C214.054 227.996 214.24 227.634 214.24 227.174C214.24 226.793 214.152 226.485 213.976 226.25C213.8 226.016 213.561 225.825 213.257 225.678C212.964 225.522 212.641 225.385 212.289 225.268C211.937 225.141 211.585 225.009 211.233 224.872C210.881 224.725 210.559 224.549 210.265 224.344C209.972 224.129 209.733 223.85 209.547 223.508C209.371 223.166 209.283 222.735 209.283 222.217C209.283 221.64 209.42 221.151 209.693 220.75C209.977 220.34 210.358 220.027 210.837 219.812C211.326 219.587 211.874 219.474 212.48 219.474C213.145 219.474 213.741 219.606 214.269 219.87C214.797 220.125 215.228 220.462 215.56 220.882L214.621 221.821C214.318 221.469 213.991 221.205 213.639 221.029C213.297 220.853 212.901 220.765 212.451 220.765C211.903 220.765 211.468 220.887 211.145 221.132C210.823 221.366 210.661 221.699 210.661 222.129C210.661 222.471 210.749 222.75 210.925 222.965C211.111 223.17 211.351 223.346 211.644 223.493C211.937 223.64 212.26 223.777 212.612 223.904C212.974 224.021 213.331 224.153 213.683 224.3C214.035 224.446 214.357 224.632 214.651 224.857C214.944 225.082 215.179 225.375 215.355 225.737C215.541 226.089 215.633 226.534 215.633 227.072C215.633 227.971 215.321 228.675 214.695 229.184C214.079 229.692 213.243 229.946 212.187 229.946ZM220.119 229.946C219.484 229.946 218.907 229.79 218.389 229.477C217.87 229.154 217.46 228.719 217.157 228.172C216.863 227.624 216.717 227.008 216.717 226.324C216.717 225.639 216.863 225.023 217.157 224.476C217.46 223.928 217.866 223.493 218.374 223.17C218.892 222.848 219.474 222.686 220.119 222.686C220.647 222.686 221.117 222.799 221.527 223.024C221.948 223.239 222.285 223.542 222.539 223.933C222.794 224.314 222.935 224.759 222.965 225.268V227.365C222.935 227.864 222.794 228.309 222.539 228.7C222.295 229.091 221.962 229.399 221.542 229.624C221.131 229.839 220.657 229.946 220.119 229.946ZM220.339 228.7C220.994 228.7 221.522 228.48 221.923 228.04C222.324 227.59 222.525 227.018 222.525 226.324C222.525 225.845 222.432 225.429 222.246 225.077C222.07 224.715 221.816 224.437 221.483 224.241C221.151 224.036 220.765 223.933 220.325 223.933C219.885 223.933 219.494 224.036 219.151 224.241C218.819 224.446 218.555 224.73 218.359 225.092C218.174 225.444 218.081 225.85 218.081 226.309C218.081 226.778 218.174 227.194 218.359 227.556C218.555 227.908 218.824 228.186 219.166 228.392C219.508 228.597 219.899 228.7 220.339 228.7ZM222.437 229.8V227.922L222.686 226.221L222.437 224.534V222.833H223.771V229.8H222.437ZM225.693 229.8V219.328H227.013V229.8H225.693ZM232.171 229.946C231.477 229.946 230.851 229.79 230.294 229.477C229.736 229.154 229.296 228.719 228.974 228.172C228.651 227.624 228.49 227.003 228.49 226.309C228.49 225.625 228.646 225.009 228.959 224.461C229.282 223.914 229.712 223.483 230.25 223.17C230.797 222.848 231.408 222.686 232.083 222.686C232.728 222.686 233.296 222.833 233.784 223.126C234.283 223.42 234.669 223.826 234.943 224.344C235.227 224.862 235.368 225.449 235.368 226.104C235.368 226.202 235.364 226.309 235.354 226.426C235.344 226.534 235.324 226.661 235.295 226.808H229.414V225.708H234.591L234.107 226.133C234.107 225.664 234.024 225.268 233.858 224.945C233.692 224.613 233.457 224.358 233.154 224.182C232.851 223.997 232.484 223.904 232.054 223.904C231.604 223.904 231.208 224.002 230.866 224.197C230.524 224.393 230.26 224.666 230.074 225.018C229.888 225.37 229.795 225.786 229.795 226.265C229.795 226.754 229.893 227.184 230.088 227.556C230.284 227.918 230.563 228.201 230.924 228.406C231.286 228.602 231.702 228.7 232.171 228.7C232.562 228.7 232.919 228.631 233.242 228.494C233.574 228.358 233.858 228.152 234.092 227.878L234.943 228.744C234.611 229.135 234.2 229.433 233.711 229.638C233.232 229.844 232.719 229.946 232.171 229.946ZM239.022 229.946C238.631 229.946 238.26 229.898 237.908 229.8C237.565 229.692 237.248 229.546 236.954 229.36C236.661 229.164 236.407 228.934 236.192 228.67L237.042 227.82C237.297 228.133 237.59 228.367 237.922 228.524C238.255 228.67 238.626 228.744 239.037 228.744C239.448 228.744 239.765 228.675 239.99 228.538C240.215 228.392 240.328 228.191 240.328 227.937C240.328 227.683 240.235 227.487 240.049 227.35C239.873 227.204 239.643 227.086 239.36 226.998C239.076 226.901 238.773 226.808 238.45 226.72C238.137 226.622 237.839 226.5 237.556 226.353C237.272 226.206 237.037 226.006 236.852 225.752C236.676 225.498 236.588 225.16 236.588 224.74C236.588 224.319 236.69 223.958 236.896 223.654C237.101 223.342 237.385 223.102 237.746 222.936C238.118 222.77 238.563 222.686 239.081 222.686C239.629 222.686 240.113 222.784 240.533 222.98C240.963 223.166 241.315 223.449 241.589 223.83L240.738 224.681C240.543 224.427 240.298 224.231 240.005 224.094C239.721 223.958 239.399 223.889 239.037 223.889C238.656 223.889 238.362 223.958 238.157 224.094C237.961 224.222 237.864 224.402 237.864 224.637C237.864 224.872 237.952 225.053 238.128 225.18C238.304 225.307 238.533 225.414 238.817 225.502C239.11 225.59 239.413 225.683 239.726 225.781C240.039 225.869 240.337 225.991 240.621 226.148C240.905 226.304 241.134 226.514 241.31 226.778C241.496 227.042 241.589 227.39 241.589 227.82C241.589 228.475 241.354 228.993 240.885 229.374C240.425 229.756 239.805 229.946 239.022 229.946Z" fill="#E9ECFF"/>
<defs>
<clipPath id="clip0_841_1460">
<rect width="23.4667" height="23.4667" fill="white" transform="translate(196.933 183.533)"/>
</clipPath>
</defs>
</svg>
