<svg width="300" height="300" viewBox="0 0 300 300" fill="none" xmlns="http://www.w3.org/2000/svg">
<rect width="300" height="300" fill="#E9ECFF"/>
<rect x="40" y="40" width="102.667" height="102.667" rx="2.93333" fill="#1A237E"/>
<g clip-path="url(#clip0_841_1414)">
<path d="M92.1033 87.2245L82.5309 77.6521V79.6076C82.5309 80.1258 82.7362 80.6245 83.1078 80.9863L90.7247 88.6032C91.4873 89.3658 92.7291 89.3658 93.4918 88.6032L99.5638 82.5312C100.326 81.7685 100.326 80.5267 99.5638 79.7641L92.1033 87.2245Z" fill="#E9ECFF"/>
<path d="M90.7247 83.7143C91.106 84.0956 91.6047 84.2912 92.1033 84.2912C92.602 84.2912 93.1007 84.0956 93.482 83.7143L99.554 77.6423C100.317 76.8796 100.317 75.6378 99.554 74.8752L91.9371 67.2583C91.5753 66.8965 91.0767 66.6912 90.5584 66.6912H84.4864C83.4109 66.6912 82.5309 67.5712 82.5309 68.6467V74.7187C82.5309 75.2369 82.7362 75.7356 83.1078 76.0974L90.7247 83.7143ZM84.4864 68.6467H90.5584L98.1753 76.2636L92.1033 82.3356L84.4864 74.7187V68.6467Z" fill="#E9ECFF"/>
<path d="M86.6864 72.0689C87.3615 72.0689 87.9087 71.5217 87.9087 70.8467C87.9087 70.1717 87.3615 69.6245 86.6864 69.6245C86.0114 69.6245 85.4642 70.1717 85.4642 70.8467C85.4642 71.5217 86.0114 72.0689 86.6864 72.0689Z" fill="#E9ECFF"/>
</g>
<path d="M78.3666 112.613C77.5648 112.613 76.8804 112.467 76.3133 112.173C75.7461 111.88 75.2426 111.455 74.8026 110.897L75.7413 109.959C76.0639 110.408 76.4355 110.751 76.8559 110.985C77.2764 111.21 77.7946 111.323 78.4106 111.323C79.0168 111.323 79.5008 111.191 79.8626 110.927C80.2341 110.663 80.4199 110.301 80.4199 109.841C80.4199 109.46 80.3319 109.152 80.1559 108.917C79.9799 108.683 79.7404 108.492 79.4373 108.345C79.1439 108.189 78.8213 108.052 78.4693 107.935C78.1173 107.807 77.7653 107.675 77.4133 107.539C77.0613 107.392 76.7386 107.216 76.4453 107.011C76.1519 106.795 75.9124 106.517 75.7266 106.175C75.5506 105.832 75.4626 105.402 75.4626 104.884C75.4626 104.307 75.5995 103.818 75.8733 103.417C76.1568 103.007 76.5381 102.694 77.0173 102.479C77.5061 102.254 78.0537 102.141 78.6599 102.141C79.3248 102.141 79.9213 102.273 80.4493 102.537C80.9773 102.791 81.4075 103.129 81.7399 103.549L80.8013 104.488C80.4981 104.136 80.1706 103.872 79.8186 103.696C79.4764 103.52 79.0804 103.432 78.6306 103.432C78.083 103.432 77.6479 103.554 77.3253 103.799C77.0026 104.033 76.8413 104.366 76.8413 104.796C76.8413 105.138 76.9293 105.417 77.1053 105.632C77.291 105.837 77.5306 106.013 77.8239 106.16C78.1173 106.307 78.4399 106.443 78.7919 106.571C79.1537 106.688 79.5106 106.82 79.8626 106.967C80.2146 107.113 80.5373 107.299 80.8306 107.524C81.1239 107.749 81.3586 108.042 81.5346 108.404C81.7204 108.756 81.8133 109.201 81.8133 109.739C81.8133 110.638 81.5004 111.342 80.8746 111.851C80.2586 112.359 79.4226 112.613 78.3666 112.613ZM86.2991 112.613C85.6635 112.613 85.0866 112.457 84.5684 112.144C84.0502 111.821 83.6395 111.386 83.3364 110.839C83.0431 110.291 82.8964 109.675 82.8964 108.991C82.8964 108.306 83.0431 107.69 83.3364 107.143C83.6395 106.595 84.0453 106.16 84.5537 105.837C85.072 105.515 85.6537 105.353 86.2991 105.353C86.8271 105.353 87.2964 105.466 87.7071 105.691C88.1275 105.906 88.4649 106.209 88.7191 106.6C88.9733 106.981 89.1151 107.426 89.1444 107.935V110.032C89.1151 110.531 88.9733 110.975 88.7191 111.367C88.4746 111.758 88.1422 112.066 87.7217 112.291C87.3111 112.506 86.8369 112.613 86.2991 112.613ZM86.5191 111.367C87.1742 111.367 87.7022 111.147 88.1031 110.707C88.504 110.257 88.7044 109.685 88.7044 108.991C88.7044 108.511 88.6115 108.096 88.4257 107.744C88.2497 107.382 87.9955 107.103 87.6631 106.908C87.3306 106.703 86.9444 106.6 86.5044 106.6C86.0644 106.6 85.6733 106.703 85.3311 106.908C84.9986 107.113 84.7346 107.397 84.5391 107.759C84.3533 108.111 84.2604 108.516 84.2604 108.976C84.2604 109.445 84.3533 109.861 84.5391 110.223C84.7346 110.575 85.0035 110.853 85.3457 111.059C85.688 111.264 86.0791 111.367 86.5191 111.367ZM88.6164 112.467V110.589L88.8657 108.888L88.6164 107.201V105.5H89.9511V112.467H88.6164ZM91.8729 112.467V101.995H93.1929V112.467H91.8729ZM98.3508 112.613C97.6566 112.613 97.0308 112.457 96.4735 112.144C95.9162 111.821 95.4762 111.386 95.1535 110.839C94.8308 110.291 94.6695 109.67 94.6695 108.976C94.6695 108.291 94.8259 107.675 95.1388 107.128C95.4615 106.58 95.8917 106.15 96.4295 105.837C96.9771 105.515 97.5882 105.353 98.2628 105.353C98.9082 105.353 99.4753 105.5 99.9642 105.793C100.463 106.087 100.849 106.492 101.123 107.011C101.406 107.529 101.548 108.115 101.548 108.771C101.548 108.868 101.543 108.976 101.534 109.093C101.524 109.201 101.504 109.328 101.475 109.475H95.5935V108.375H100.771L100.287 108.8C100.287 108.331 100.204 107.935 100.038 107.612C99.8713 107.279 99.6366 107.025 99.3335 106.849C99.0304 106.663 98.6637 106.571 98.2335 106.571C97.7837 106.571 97.3877 106.668 97.0455 106.864C96.7033 107.059 96.4393 107.333 96.2535 107.685C96.0677 108.037 95.9748 108.453 95.9748 108.932C95.9748 109.421 96.0726 109.851 96.2682 110.223C96.4637 110.584 96.7424 110.868 97.1042 111.073C97.4659 111.269 97.8815 111.367 98.3508 111.367C98.7419 111.367 99.0988 111.298 99.4215 111.161C99.7539 111.024 100.038 110.819 100.272 110.545L101.123 111.411C100.79 111.802 100.38 112.1 99.8908 112.305C99.4117 112.511 98.8984 112.613 98.3508 112.613ZM105.202 112.613C104.811 112.613 104.439 112.564 104.087 112.467C103.745 112.359 103.427 112.212 103.134 112.027C102.841 111.831 102.587 111.601 102.371 111.337L103.222 110.487C103.476 110.799 103.77 111.034 104.102 111.191C104.435 111.337 104.806 111.411 105.217 111.411C105.627 111.411 105.945 111.342 106.17 111.205C106.395 111.059 106.507 110.858 106.507 110.604C106.507 110.35 106.415 110.154 106.229 110.017C106.053 109.871 105.823 109.753 105.539 109.665C105.256 109.567 104.953 109.475 104.63 109.387C104.317 109.289 104.019 109.167 103.735 109.02C103.452 108.873 103.217 108.673 103.031 108.419C102.855 108.164 102.767 107.827 102.767 107.407C102.767 106.986 102.87 106.624 103.075 106.321C103.281 106.008 103.564 105.769 103.926 105.603C104.298 105.436 104.743 105.353 105.261 105.353C105.808 105.353 106.292 105.451 106.713 105.647C107.143 105.832 107.495 106.116 107.769 106.497L106.918 107.348C106.723 107.094 106.478 106.898 106.185 106.761C105.901 106.624 105.579 106.556 105.217 106.556C104.835 106.556 104.542 106.624 104.337 106.761C104.141 106.888 104.043 107.069 104.043 107.304C104.043 107.539 104.131 107.719 104.307 107.847C104.483 107.974 104.713 108.081 104.997 108.169C105.29 108.257 105.593 108.35 105.906 108.448C106.219 108.536 106.517 108.658 106.801 108.815C107.084 108.971 107.314 109.181 107.49 109.445C107.676 109.709 107.769 110.056 107.769 110.487C107.769 111.142 107.534 111.66 107.065 112.041C106.605 112.423 105.984 112.613 105.202 112.613Z" fill="#E9ECFF"/>
<rect x="157.333" y="40" width="102.667" height="102.667" rx="2.93333" fill="#1A237E"/>
<path d="M201.089 72.0666H203.044V75H212.822V72.0666H214.778V76.9555H216.733V72.0666C216.733 70.9911 215.853 70.1111 214.778 70.1111H210.691C210.28 68.9769 209.204 68.1555 207.933 68.1555C206.662 68.1555 205.587 68.9769 205.176 70.1111H201.089C200.013 70.1111 199.133 70.9911 199.133 72.0666V85.7555C199.133 86.8311 200.013 87.7111 201.089 87.7111H206.956V85.7555H201.089V72.0666ZM207.933 70.1111C208.471 70.1111 208.911 70.5511 208.911 71.0889C208.911 71.6266 208.471 72.0666 207.933 72.0666C207.396 72.0666 206.956 71.6266 206.956 71.0889C206.956 70.5511 207.396 70.1111 207.933 70.1111Z" fill="#E9ECFF"/>
<path d="M216.733 78.4222L211.365 83.8L208.422 80.8666L206.956 82.3333L211.365 86.7333L218.2 79.8889L216.733 78.4222Z" fill="#E9ECFF"/>
<path d="M194.068 112.467V102.581H195.447V112.467H194.068ZM190.607 103.549V102.288H198.893V103.549H190.607ZM198.74 112.467V105.5H200.06V112.467H198.74ZM200.06 108.492L199.561 108.272C199.561 107.382 199.767 106.673 200.177 106.145C200.588 105.617 201.18 105.353 201.952 105.353C202.304 105.353 202.622 105.417 202.905 105.544C203.189 105.661 203.453 105.862 203.697 106.145L202.832 107.04C202.685 106.883 202.524 106.771 202.348 106.703C202.172 106.634 201.967 106.6 201.732 106.6C201.243 106.6 200.842 106.756 200.529 107.069C200.217 107.382 200.06 107.856 200.06 108.492ZM207.36 112.613C206.725 112.613 206.148 112.457 205.63 112.144C205.111 111.821 204.701 111.386 204.398 110.839C204.104 110.291 203.958 109.675 203.958 108.991C203.958 108.306 204.104 107.69 204.398 107.143C204.701 106.595 205.107 106.16 205.615 105.837C206.133 105.515 206.715 105.353 207.36 105.353C207.888 105.353 208.358 105.466 208.768 105.691C209.189 105.906 209.526 106.209 209.78 106.6C210.035 106.981 210.176 107.426 210.206 107.935V110.032C210.176 110.531 210.035 110.975 209.78 111.367C209.536 111.758 209.203 112.066 208.783 112.291C208.372 112.506 207.898 112.613 207.36 112.613ZM207.58 111.367C208.235 111.367 208.763 111.147 209.164 110.707C209.565 110.257 209.766 109.685 209.766 108.991C209.766 108.511 209.673 108.096 209.487 107.744C209.311 107.382 209.057 107.103 208.724 106.908C208.392 106.703 208.006 106.6 207.566 106.6C207.126 106.6 206.735 106.703 206.392 106.908C206.06 107.113 205.796 107.397 205.6 107.759C205.415 108.111 205.322 108.516 205.322 108.976C205.322 109.445 205.415 109.861 205.6 110.223C205.796 110.575 206.065 110.853 206.407 111.059C206.749 111.264 207.14 111.367 207.58 111.367ZM209.678 112.467V110.589L209.927 108.888L209.678 107.201V105.5H211.012V112.467H209.678ZM216.117 112.613C215.432 112.613 214.811 112.452 214.254 112.129C213.707 111.807 213.271 111.371 212.949 110.824C212.636 110.267 212.479 109.651 212.479 108.976C212.479 108.291 212.636 107.675 212.949 107.128C213.271 106.58 213.707 106.15 214.254 105.837C214.811 105.515 215.432 105.353 216.117 105.353C216.655 105.353 217.153 105.456 217.613 105.661C218.072 105.857 218.468 106.145 218.801 106.527L217.921 107.407C217.706 107.152 217.442 106.962 217.129 106.835C216.826 106.698 216.488 106.629 216.117 106.629C215.677 106.629 215.286 106.732 214.943 106.937C214.601 107.133 214.332 107.407 214.137 107.759C213.941 108.111 213.843 108.516 213.843 108.976C213.843 109.435 213.941 109.841 214.137 110.193C214.332 110.545 214.601 110.824 214.943 111.029C215.286 111.235 215.677 111.337 216.117 111.337C216.488 111.337 216.826 111.274 217.129 111.147C217.442 111.01 217.711 110.814 217.935 110.56L218.801 111.44C218.478 111.811 218.082 112.1 217.613 112.305C217.153 112.511 216.655 112.613 216.117 112.613ZM224.569 112.467L221.313 108.903L224.539 105.5H226.138L222.545 109.255L222.603 108.492L226.27 112.467H224.569ZM220.11 112.467V101.995H221.43V112.467H220.11Z" fill="#E9ECFF"/>
<rect x="40" y="157.333" width="220" height="102.667" rx="2.93333" fill="#1A237E"/>
<path d="M118.556 198.889H110.733C109.658 198.889 108.778 199.769 108.778 200.844V216.489C108.778 217.564 109.658 218.444 110.733 218.444H122.467C123.542 218.444 124.422 217.564 124.422 216.489V204.756L118.556 198.889ZM110.733 216.489V200.844H117.578V204.756H122.467V216.489H110.733ZM115.622 215.511H117.578V214.533H118.556C119.093 214.533 119.533 214.093 119.533 213.556V210.622C119.533 210.084 119.093 209.644 118.556 209.644H115.622V208.667H119.533V206.711H117.578V205.733H115.622V206.711H114.644C114.107 206.711 113.667 207.151 113.667 207.689V210.622C113.667 211.16 114.107 211.6 114.644 211.6H117.578V212.578H113.667V214.533H115.622V215.511Z" fill="#E9ECFF"/>
<path d="M138.336 213.667V203.488H139.715V213.667H138.336ZM139.275 209.193V207.932H144.584V209.193H139.275ZM139.275 204.749V203.488H144.833V204.749H139.275ZM146.423 213.667V206.7H147.743V213.667H146.423ZM147.083 205.307C146.839 205.307 146.638 205.229 146.482 205.072C146.326 204.906 146.247 204.701 146.247 204.456C146.247 204.221 146.326 204.026 146.482 203.869C146.638 203.703 146.839 203.62 147.083 203.62C147.328 203.62 147.528 203.703 147.685 203.869C147.841 204.026 147.919 204.221 147.919 204.456C147.919 204.701 147.841 204.906 147.685 205.072C147.528 205.229 147.328 205.307 147.083 205.307ZM154.617 213.667V209.604C154.617 209.076 154.45 208.641 154.118 208.299C153.786 207.957 153.355 207.785 152.827 207.785C152.475 207.785 152.162 207.864 151.889 208.02C151.615 208.177 151.4 208.392 151.243 208.665C151.087 208.939 151.009 209.252 151.009 209.604L150.466 209.296C150.466 208.768 150.583 208.299 150.818 207.888C151.053 207.477 151.38 207.155 151.801 206.92C152.221 206.676 152.695 206.553 153.223 206.553C153.751 206.553 154.216 206.685 154.617 206.949C155.027 207.213 155.35 207.561 155.585 207.991C155.819 208.411 155.937 208.861 155.937 209.34V213.667H154.617ZM149.689 213.667V206.7H151.009V213.667H149.689ZM160.686 213.813C160.051 213.813 159.474 213.657 158.956 213.344C158.438 213.021 158.027 212.586 157.724 212.039C157.43 211.491 157.284 210.875 157.284 210.191C157.284 209.506 157.43 208.89 157.724 208.343C158.027 207.795 158.433 207.36 158.941 207.037C159.459 206.715 160.041 206.553 160.686 206.553C161.214 206.553 161.684 206.666 162.094 206.891C162.515 207.106 162.852 207.409 163.106 207.8C163.361 208.181 163.502 208.626 163.532 209.135V211.232C163.502 211.731 163.361 212.176 163.106 212.567C162.862 212.958 162.53 213.266 162.109 213.491C161.698 213.706 161.224 213.813 160.686 213.813ZM160.906 212.567C161.562 212.567 162.09 212.347 162.49 211.907C162.891 211.457 163.092 210.885 163.092 210.191C163.092 209.712 162.999 209.296 162.813 208.944C162.637 208.582 162.383 208.304 162.05 208.108C161.718 207.903 161.332 207.8 160.892 207.8C160.452 207.8 160.061 207.903 159.718 208.108C159.386 208.313 159.122 208.597 158.926 208.959C158.741 209.311 158.648 209.717 158.648 210.176C158.648 210.645 158.741 211.061 158.926 211.423C159.122 211.775 159.391 212.053 159.733 212.259C160.075 212.464 160.466 212.567 160.906 212.567ZM163.004 213.667V211.789L163.253 210.088L163.004 208.401V206.7H164.338V213.667H163.004ZM171.188 213.667V209.604C171.188 209.076 171.022 208.641 170.69 208.299C170.357 207.957 169.927 207.785 169.399 207.785C169.047 207.785 168.734 207.864 168.46 208.02C168.187 208.177 167.971 208.392 167.815 208.665C167.659 208.939 167.58 209.252 167.58 209.604L167.038 209.296C167.038 208.768 167.155 208.299 167.39 207.888C167.624 207.477 167.952 207.155 168.372 206.92C168.793 206.676 169.267 206.553 169.795 206.553C170.323 206.553 170.787 206.685 171.188 206.949C171.599 207.213 171.922 207.561 172.156 207.991C172.391 208.411 172.508 208.861 172.508 209.34V213.667H171.188ZM166.26 213.667V206.7H167.58V213.667H166.26ZM177.478 213.813C176.794 213.813 176.173 213.652 175.615 213.329C175.068 213.007 174.633 212.572 174.31 212.024C173.997 211.467 173.841 210.851 173.841 210.176C173.841 209.492 173.997 208.876 174.31 208.328C174.633 207.781 175.068 207.35 175.615 207.037C176.173 206.715 176.794 206.553 177.478 206.553C178.016 206.553 178.515 206.656 178.974 206.861C179.434 207.057 179.83 207.345 180.162 207.727L179.282 208.607C179.067 208.353 178.803 208.162 178.49 208.035C178.187 207.898 177.85 207.829 177.478 207.829C177.038 207.829 176.647 207.932 176.305 208.137C175.963 208.333 175.694 208.607 175.498 208.959C175.303 209.311 175.205 209.717 175.205 210.176C175.205 210.636 175.303 211.041 175.498 211.393C175.694 211.745 175.963 212.024 176.305 212.229C176.647 212.435 177.038 212.537 177.478 212.537C177.85 212.537 178.187 212.474 178.49 212.347C178.803 212.21 179.072 212.014 179.297 211.76L180.162 212.64C179.839 213.012 179.443 213.3 178.974 213.505C178.515 213.711 178.016 213.813 177.478 213.813ZM184.555 213.813C183.86 213.813 183.235 213.657 182.677 213.344C182.12 213.021 181.68 212.586 181.357 212.039C181.035 211.491 180.873 210.87 180.873 210.176C180.873 209.492 181.03 208.876 181.343 208.328C181.665 207.781 182.096 207.35 182.633 207.037C183.181 206.715 183.792 206.553 184.467 206.553C185.112 206.553 185.679 206.7 186.168 206.993C186.667 207.287 187.053 207.693 187.327 208.211C187.61 208.729 187.752 209.316 187.752 209.971C187.752 210.069 187.747 210.176 187.737 210.293C187.728 210.401 187.708 210.528 187.679 210.675H181.797V209.575H186.975L186.491 210C186.491 209.531 186.408 209.135 186.241 208.812C186.075 208.48 185.84 208.225 185.537 208.049C185.234 207.864 184.868 207.771 184.437 207.771C183.988 207.771 183.592 207.869 183.249 208.064C182.907 208.26 182.643 208.533 182.457 208.885C182.272 209.237 182.179 209.653 182.179 210.132C182.179 210.621 182.276 211.051 182.472 211.423C182.668 211.785 182.946 212.068 183.308 212.273C183.67 212.469 184.085 212.567 184.555 212.567C184.946 212.567 185.303 212.498 185.625 212.361C185.958 212.225 186.241 212.019 186.476 211.745L187.327 212.611C186.994 213.002 186.584 213.3 186.095 213.505C185.616 213.711 185.102 213.813 184.555 213.813ZM191.406 213.813C191.015 213.813 190.643 213.765 190.291 213.667C189.949 213.559 189.631 213.413 189.338 213.227C189.045 213.031 188.79 212.801 188.575 212.537L189.426 211.687C189.68 212 189.973 212.234 190.306 212.391C190.638 212.537 191.01 212.611 191.421 212.611C191.831 212.611 192.149 212.542 192.374 212.405C192.599 212.259 192.711 212.058 192.711 211.804C192.711 211.55 192.618 211.354 192.433 211.217C192.257 211.071 192.027 210.953 191.743 210.865C191.46 210.768 191.157 210.675 190.834 210.587C190.521 210.489 190.223 210.367 189.939 210.22C189.656 210.073 189.421 209.873 189.235 209.619C189.059 209.365 188.971 209.027 188.971 208.607C188.971 208.186 189.074 207.825 189.279 207.521C189.485 207.209 189.768 206.969 190.13 206.803C190.501 206.637 190.946 206.553 191.465 206.553C192.012 206.553 192.496 206.651 192.917 206.847C193.347 207.033 193.699 207.316 193.973 207.697L193.122 208.548C192.926 208.294 192.682 208.098 192.389 207.961C192.105 207.825 191.782 207.756 191.421 207.756C191.039 207.756 190.746 207.825 190.541 207.961C190.345 208.089 190.247 208.269 190.247 208.504C190.247 208.739 190.335 208.92 190.511 209.047C190.687 209.174 190.917 209.281 191.201 209.369C191.494 209.457 191.797 209.55 192.11 209.648C192.423 209.736 192.721 209.858 193.005 210.015C193.288 210.171 193.518 210.381 193.694 210.645C193.88 210.909 193.973 211.257 193.973 211.687C193.973 212.342 193.738 212.86 193.269 213.241C192.809 213.623 192.188 213.813 191.406 213.813Z" fill="#E9ECFF"/>
<defs>
<clipPath id="clip0_841_1414">
<rect width="23.4667" height="23.4667" fill="white" transform="translate(79.6 66.2)"/>
</clipPath>
</defs>
</svg>
