<svg width="300" height="300" viewBox="0 0 300 300" fill="none" xmlns="http://www.w3.org/2000/svg">
<rect width="300" height="300" fill="#E9ECFF"/>
<rect x="40" y="40" width="220" height="102.667" rx="2.93333" fill="#1A237E"/>
<path d="M112.97 90.4534C111.23 89.8765 110.389 89.5148 110.389 88.5957C110.389 87.5983 111.474 87.2365 112.159 87.2365C113.44 87.2365 113.909 88.2045 114.016 88.5468L115.561 87.8917C115.415 87.4517 114.76 86.0143 113.078 85.7014V84.489H111.122V85.721C108.697 86.2685 108.688 88.5174 108.688 88.6152C108.688 90.8348 110.888 91.4605 111.963 91.8517C113.508 92.3992 114.192 92.8979 114.192 93.8365C114.192 94.9414 113.166 95.4108 112.256 95.4108C110.477 95.4108 109.968 93.5823 109.91 93.3672L108.287 94.0223C108.903 96.1637 110.516 96.7405 111.122 96.9165V98.1779H113.078V96.9654C113.469 96.8774 115.913 96.3885 115.913 93.817C115.913 92.4579 115.317 91.265 112.97 90.4534ZM103.3 100.133H101.344V94.2668H107.211V96.2223H104.786C106.36 98.5788 109.049 100.133 112.1 100.133C116.96 100.133 120.9 96.193 120.9 91.3334H122.856C122.856 97.2783 118.045 102.089 112.1 102.089C108.463 102.089 105.246 100.28 103.3 97.5228V100.133ZM101.344 91.3334C101.344 85.3885 106.155 80.5779 112.1 80.5779C115.737 80.5779 118.954 82.3868 120.9 85.1441V82.5334H122.856V88.4001H116.989V86.4445H119.414C117.84 84.0881 115.151 82.5334 112.1 82.5334C107.24 82.5334 103.3 86.4739 103.3 91.3334H101.344Z" fill="#E9ECFF"/>
<path d="M138.456 96.4802C137.723 96.4802 137.043 96.3482 136.417 96.0842C135.792 95.8104 135.244 95.4339 134.775 94.9548C134.315 94.4757 133.958 93.9184 133.704 93.2828C133.45 92.6473 133.323 91.9677 133.323 91.2442C133.323 90.5108 133.45 89.8264 133.704 89.1908C133.958 88.5553 134.315 88.0028 134.775 87.5335C135.244 87.0544 135.787 86.6828 136.403 86.4188C137.028 86.1451 137.708 86.0082 138.441 86.0082C139.243 86.0082 139.947 86.1451 140.553 86.4188C141.16 86.6926 141.697 87.0642 142.167 87.5335L141.213 88.4868C140.891 88.1251 140.495 87.8415 140.025 87.6362C139.566 87.4308 139.038 87.3282 138.441 87.3282C137.904 87.3282 137.41 87.4259 136.96 87.6215C136.51 87.8073 136.119 88.0762 135.787 88.4282C135.454 88.7802 135.195 89.1957 135.009 89.6748C134.833 90.1539 134.745 90.6771 134.745 91.2442C134.745 91.8113 134.833 92.3344 135.009 92.8135C135.195 93.2926 135.454 93.7082 135.787 94.0602C136.119 94.4122 136.51 94.6859 136.96 94.8815C137.41 95.0673 137.904 95.1602 138.441 95.1602C139.077 95.1602 139.629 95.0575 140.099 94.8522C140.568 94.6371 140.964 94.3486 141.287 93.9868L142.24 94.9255C141.771 95.4144 141.218 95.7957 140.583 96.0695C139.957 96.3433 139.248 96.4802 138.456 96.4802ZM146.418 96.4802C145.783 96.4802 145.206 96.3237 144.687 96.0108C144.169 95.6882 143.759 95.2531 143.455 94.7055C143.162 94.1579 143.015 93.5419 143.015 92.8575C143.015 92.1731 143.162 91.5571 143.455 91.0095C143.759 90.4619 144.164 90.0268 144.673 89.7042C145.191 89.3815 145.773 89.2202 146.418 89.2202C146.946 89.2202 147.415 89.3326 147.826 89.5575C148.247 89.7726 148.584 90.0757 148.838 90.4668C149.092 90.8482 149.234 91.2931 149.263 91.8015V93.8988C149.234 94.3975 149.092 94.8424 148.838 95.2335C148.594 95.6246 148.261 95.9326 147.841 96.1575C147.43 96.3726 146.956 96.4802 146.418 96.4802ZM146.638 95.2335C147.293 95.2335 147.821 95.0135 148.222 94.5735C148.623 94.1237 148.823 93.5517 148.823 92.8575C148.823 92.3784 148.731 91.9628 148.545 91.6108C148.369 91.2491 148.115 90.9704 147.782 90.7748C147.45 90.5695 147.063 90.4668 146.623 90.4668C146.183 90.4668 145.792 90.5695 145.45 90.7748C145.118 90.9802 144.854 91.2637 144.658 91.6255C144.472 91.9775 144.379 92.3833 144.379 92.8428C144.379 93.3122 144.472 93.7277 144.658 94.0895C144.854 94.4415 145.123 94.7202 145.465 94.9255C145.807 95.1308 146.198 95.2335 146.638 95.2335ZM148.735 96.3335V94.4562L148.985 92.7548L148.735 91.0682V89.3668H150.07V96.3335H148.735ZM154.207 96.4802C153.815 96.4802 153.444 96.4313 153.092 96.3335C152.75 96.2259 152.432 96.0793 152.139 95.8935C151.845 95.6979 151.591 95.4682 151.376 95.2042L152.227 94.3535C152.481 94.6664 152.774 94.9011 153.107 95.0575C153.439 95.2042 153.811 95.2775 154.221 95.2775C154.632 95.2775 154.95 95.2091 155.175 95.0722C155.399 94.9255 155.512 94.7251 155.512 94.4708C155.512 94.2166 155.419 94.0211 155.233 93.8842C155.057 93.7375 154.827 93.6202 154.544 93.5322C154.26 93.4344 153.957 93.3415 153.635 93.2535C153.322 93.1557 153.023 93.0335 152.74 92.8868C152.456 92.7402 152.222 92.5397 152.036 92.2855C151.86 92.0313 151.772 91.6939 151.772 91.2735C151.772 90.8531 151.875 90.4913 152.08 90.1882C152.285 89.8753 152.569 89.6357 152.931 89.4695C153.302 89.3033 153.747 89.2202 154.265 89.2202C154.813 89.2202 155.297 89.3179 155.717 89.5135C156.147 89.6993 156.499 89.9828 156.773 90.3642L155.923 91.2148C155.727 90.9606 155.483 90.7651 155.189 90.6282C154.906 90.4913 154.583 90.4228 154.221 90.4228C153.84 90.4228 153.547 90.4913 153.341 90.6282C153.146 90.7553 153.048 90.9362 153.048 91.1708C153.048 91.4055 153.136 91.5864 153.312 91.7135C153.488 91.8406 153.718 91.9482 154.001 92.0362C154.295 92.1242 154.598 92.2171 154.911 92.3148C155.223 92.4028 155.522 92.5251 155.805 92.6815C156.089 92.8379 156.319 93.0482 156.495 93.3122C156.68 93.5762 156.773 93.9233 156.773 94.3535C156.773 95.0086 156.539 95.5268 156.069 95.9082C155.61 96.2895 154.989 96.4802 154.207 96.4802ZM163.179 96.3335V92.2708C163.179 91.7428 163.013 91.3077 162.68 90.9655C162.348 90.6233 161.918 90.4522 161.39 90.4522C161.038 90.4522 160.725 90.5304 160.451 90.6868C160.177 90.8433 159.962 91.0584 159.806 91.3322C159.649 91.6059 159.571 91.9188 159.571 92.2708L159.028 91.9628C159.028 91.4348 159.146 90.9655 159.38 90.5548C159.615 90.1442 159.943 89.8215 160.363 89.5868C160.783 89.3424 161.258 89.2202 161.786 89.2202C162.314 89.2202 162.778 89.3375 163.179 89.5722C163.59 89.8068 163.912 90.1344 164.147 90.5548C164.382 90.9753 164.499 91.4593 164.499 92.0068V96.3335H163.179ZM158.251 96.3335V85.8615H159.571V96.3335H158.251ZM169.572 96.3335V86.1548H170.95V96.3335H169.572ZM170.51 91.8602V90.5988H175.82V91.8602H170.51ZM170.51 87.4162V86.1548H176.069V87.4162H170.51ZM177.644 96.3335V85.8615H178.964V96.3335H177.644ZM184.078 96.4802C183.394 96.4802 182.778 96.3188 182.23 95.9962C181.683 95.6735 181.248 95.2384 180.925 94.6908C180.602 94.1335 180.441 93.5126 180.441 92.8282C180.441 92.1535 180.602 91.5473 180.925 91.0095C181.248 90.4619 181.683 90.0268 182.23 89.7042C182.778 89.3815 183.394 89.2202 184.078 89.2202C184.753 89.2202 185.364 89.3815 185.912 89.7042C186.469 90.0171 186.909 90.4473 187.232 90.9948C187.554 91.5424 187.716 92.1535 187.716 92.8282C187.716 93.5126 187.554 94.1335 187.232 94.6908C186.909 95.2384 186.469 95.6735 185.912 95.9962C185.364 96.3188 184.753 96.4802 184.078 96.4802ZM184.078 95.2042C184.518 95.2042 184.909 95.1015 185.252 94.8962C185.594 94.6908 185.863 94.4122 186.058 94.0602C186.254 93.6984 186.352 93.2877 186.352 92.8282C186.352 92.3784 186.249 91.9775 186.044 91.6255C185.848 91.2735 185.579 90.9997 185.237 90.8042C184.904 90.5988 184.518 90.4962 184.078 90.4962C183.638 90.4962 183.247 90.5988 182.905 90.8042C182.563 90.9997 182.294 91.2735 182.098 91.6255C181.903 91.9775 181.805 92.3784 181.805 92.8282C181.805 93.2877 181.903 93.6984 182.098 94.0602C182.294 94.4122 182.563 94.6908 182.905 94.8962C183.247 95.1015 183.638 95.2042 184.078 95.2042ZM190.997 96.3335L188.24 89.3668H189.618L191.613 94.7935H191.173L193.153 89.3668H193.916L195.896 94.7935H195.456L197.45 89.3668H198.829L196.086 96.3335H195.309L193.3 91.0682H193.784L191.76 96.3335H190.997Z" fill="#E9ECFF"/>
<rect x="40" y="157.333" width="102.667" height="102.667" rx="2.93333" fill="#1A237E"/>
<path d="M92.4772 187.444L97.1999 192.167V203.089H85.4665V187.444H92.4772ZM93.2888 185.489H85.4665C84.391 185.489 83.511 186.369 83.511 187.444V203.089C83.511 204.164 84.391 205.044 85.4665 205.044H97.1999C98.2754 205.044 99.1554 204.164 99.1554 203.089V191.355L93.2888 185.489ZM94.2665 194.289H90.3554V195.267H93.2888C93.8265 195.267 94.2665 195.707 94.2665 196.244V199.178C94.2665 199.715 93.8265 200.155 93.2888 200.155H92.311V201.133H90.3554V200.155H88.3999V198.2H92.311V197.222H89.3777C88.8399 197.222 88.3999 196.782 88.3999 196.244V193.311C88.3999 192.773 88.8399 192.333 89.3777 192.333H90.3554V191.355H92.311V192.333H94.2665V194.289Z" fill="#E9ECFF"/>
<path d="M62.0359 229.8V219.621H63.4146V229.8H62.0359ZM62.9746 229.8V228.538H68.8119V229.8H62.9746ZM62.9746 225.194V223.992H68.3279V225.194H62.9746ZM62.9746 220.882V219.621H68.7386V220.882H62.9746ZM75.0283 229.8L72.8576 226.749L72.6083 226.514L69.8656 222.833H71.4643L73.4443 225.546L73.6936 225.752L76.627 229.8H75.0283ZM69.7336 229.8L72.6083 225.928L73.3563 226.896L71.2883 229.8H69.7336ZM73.7963 226.5L73.0336 225.561L74.955 222.833H76.495L73.7963 226.5ZM81.5096 229.946C80.9816 229.946 80.5025 229.839 80.0723 229.624C79.6518 229.399 79.3145 229.091 79.0603 228.7C78.806 228.309 78.6643 227.864 78.6349 227.365V225.268C78.6643 224.759 78.806 224.314 79.0603 223.933C79.3243 223.542 79.6665 223.239 80.0869 223.024C80.5171 222.799 80.9914 222.686 81.5096 222.686C82.1451 222.686 82.7171 222.848 83.2256 223.17C83.7438 223.493 84.1496 223.928 84.4429 224.476C84.7363 225.023 84.8829 225.639 84.8829 226.324C84.8829 227.008 84.7363 227.624 84.4429 228.172C84.1496 228.719 83.7438 229.154 83.2256 229.477C82.7171 229.79 82.1451 229.946 81.5096 229.946ZM77.8429 232.718V222.833H79.1629V224.666L78.9136 226.353L79.1629 228.054V232.718H77.8429ZM81.2896 228.7C81.7296 228.7 82.1158 228.597 82.4483 228.392C82.7807 228.186 83.0447 227.908 83.2403 227.556C83.4358 227.194 83.5336 226.778 83.5336 226.309C83.5336 225.85 83.4358 225.439 83.2403 225.077C83.0447 224.715 82.7807 224.437 82.4483 224.241C82.1158 224.036 81.7345 223.933 81.3043 223.933C80.8643 223.933 80.478 224.036 80.1456 224.241C79.8131 224.437 79.554 224.715 79.3683 225.077C79.1825 225.439 79.0896 225.854 79.0896 226.324C79.0896 226.783 79.1776 227.194 79.3536 227.556C79.5394 227.908 79.7985 228.186 80.1309 228.392C80.4731 228.597 80.8594 228.7 81.2896 228.7ZM89.606 229.946C88.9118 229.946 88.286 229.79 87.7287 229.477C87.1714 229.154 86.7314 228.719 86.4087 228.172C86.086 227.624 85.9247 227.003 85.9247 226.309C85.9247 225.625 86.0812 225.009 86.394 224.461C86.7167 223.914 87.1469 223.483 87.6847 223.17C88.2323 222.848 88.8434 222.686 89.518 222.686C90.1634 222.686 90.7305 222.833 91.2194 223.126C91.718 223.42 92.1043 223.826 92.378 224.344C92.6616 224.862 92.8034 225.449 92.8034 226.104C92.8034 226.202 92.7985 226.309 92.7887 226.426C92.7789 226.534 92.7594 226.661 92.73 226.808H86.8487V225.708H92.026L91.542 226.133C91.542 225.664 91.4589 225.268 91.2927 224.945C91.1265 224.613 90.8918 224.358 90.5887 224.182C90.2856 223.997 89.9189 223.904 89.4887 223.904C89.0389 223.904 88.6429 224.002 88.3007 224.197C87.9585 224.393 87.6945 224.666 87.5087 225.018C87.3229 225.37 87.23 225.786 87.23 226.265C87.23 226.754 87.3278 227.184 87.5234 227.556C87.7189 227.918 87.9976 228.201 88.3594 228.406C88.7212 228.602 89.1367 228.7 89.606 228.7C89.9972 228.7 90.354 228.631 90.6767 228.494C91.0092 228.358 91.2927 228.152 91.5274 227.878L92.378 228.744C92.0456 229.135 91.6349 229.433 91.146 229.638C90.6669 229.844 90.1536 229.946 89.606 229.946ZM99.1707 229.8V225.737C99.1707 225.209 99.0044 224.774 98.672 224.432C98.3395 224.09 97.9093 223.918 97.3813 223.918C97.0293 223.918 96.7164 223.997 96.4427 224.153C96.1689 224.31 95.9538 224.525 95.7973 224.798C95.6409 225.072 95.5627 225.385 95.5627 225.737L95.02 225.429C95.02 224.901 95.1373 224.432 95.372 224.021C95.6067 223.61 95.9342 223.288 96.3547 223.053C96.7751 222.809 97.2493 222.686 97.7773 222.686C98.3053 222.686 98.7698 222.818 99.1707 223.082C99.5813 223.346 99.904 223.694 100.139 224.124C100.373 224.544 100.491 224.994 100.491 225.473V229.8H99.1707ZM94.2427 229.8V222.833H95.5627V229.8H94.2427ZM104.492 229.946C104.101 229.946 103.73 229.898 103.378 229.8C103.036 229.692 102.718 229.546 102.424 229.36C102.131 229.164 101.877 228.934 101.662 228.67L102.512 227.82C102.767 228.133 103.06 228.367 103.392 228.524C103.725 228.67 104.096 228.744 104.507 228.744C104.918 228.744 105.236 228.675 105.46 228.538C105.685 228.392 105.798 228.191 105.798 227.937C105.798 227.683 105.705 227.487 105.519 227.35C105.343 227.204 105.113 227.086 104.83 226.998C104.546 226.901 104.243 226.808 103.92 226.72C103.608 226.622 103.309 226.5 103.026 226.353C102.742 226.206 102.508 226.006 102.322 225.752C102.146 225.498 102.058 225.16 102.058 224.74C102.058 224.319 102.16 223.958 102.366 223.654C102.571 223.342 102.855 223.102 103.216 222.936C103.588 222.77 104.033 222.686 104.551 222.686C105.099 222.686 105.583 222.784 106.003 222.98C106.433 223.166 106.785 223.449 107.059 223.83L106.208 224.681C106.013 224.427 105.768 224.231 105.475 224.094C105.192 223.958 104.869 223.889 104.507 223.889C104.126 223.889 103.832 223.958 103.627 224.094C103.432 224.222 103.334 224.402 103.334 224.637C103.334 224.872 103.422 225.053 103.598 225.18C103.774 225.307 104.004 225.414 104.287 225.502C104.58 225.59 104.884 225.683 105.196 225.781C105.509 225.869 105.808 225.991 106.091 226.148C106.375 226.304 106.604 226.514 106.78 226.778C106.966 227.042 107.059 227.39 107.059 227.82C107.059 228.475 106.824 228.993 106.355 229.374C105.896 229.756 105.275 229.946 104.492 229.946ZM111.764 229.946C111.069 229.946 110.444 229.79 109.886 229.477C109.329 229.154 108.889 228.719 108.566 228.172C108.244 227.624 108.082 227.003 108.082 226.309C108.082 225.625 108.239 225.009 108.552 224.461C108.874 223.914 109.304 223.483 109.842 223.17C110.39 222.848 111.001 222.686 111.676 222.686C112.321 222.686 112.888 222.833 113.377 223.126C113.876 223.42 114.262 223.826 114.536 224.344C114.819 224.862 114.961 225.449 114.961 226.104C114.961 226.202 114.956 226.309 114.946 226.426C114.936 226.534 114.917 226.661 114.888 226.808H109.006V225.708H114.184L113.7 226.133C113.7 225.664 113.616 225.268 113.45 224.945C113.284 224.613 113.049 224.358 112.746 224.182C112.443 223.997 112.076 223.904 111.646 223.904C111.196 223.904 110.8 224.002 110.458 224.197C110.116 224.393 109.852 224.666 109.666 225.018C109.48 225.37 109.388 225.786 109.388 226.265C109.388 226.754 109.485 227.184 109.681 227.556C109.876 227.918 110.155 228.201 110.517 228.406C110.879 228.602 111.294 228.7 111.764 228.7C112.155 228.7 112.512 228.631 112.834 228.494C113.167 228.358 113.45 228.152 113.685 227.878L114.536 228.744C114.203 229.135 113.792 229.433 113.304 229.638C112.824 229.844 112.311 229.946 111.764 229.946ZM118.615 229.946C118.224 229.946 117.852 229.898 117.5 229.8C117.158 229.692 116.84 229.546 116.547 229.36C116.254 229.164 115.999 228.934 115.784 228.67L116.635 227.82C116.889 228.133 117.182 228.367 117.515 228.524C117.847 228.67 118.219 228.744 118.63 228.744C119.04 228.744 119.358 228.675 119.583 228.538C119.808 228.392 119.92 228.191 119.92 227.937C119.92 227.683 119.827 227.487 119.642 227.35C119.466 227.204 119.236 227.086 118.952 226.998C118.669 226.901 118.366 226.808 118.043 226.72C117.73 226.622 117.432 226.5 117.148 226.353C116.865 226.206 116.63 226.006 116.444 225.752C116.268 225.498 116.18 225.16 116.18 224.74C116.18 224.319 116.283 223.958 116.488 223.654C116.694 223.342 116.977 223.102 117.339 222.936C117.71 222.77 118.155 222.686 118.674 222.686C119.221 222.686 119.705 222.784 120.126 222.98C120.556 223.166 120.908 223.449 121.182 223.83L120.331 224.681C120.135 224.427 119.891 224.231 119.598 224.094C119.314 223.958 118.991 223.889 118.63 223.889C118.248 223.889 117.955 223.958 117.75 224.094C117.554 224.222 117.456 224.402 117.456 224.637C117.456 224.872 117.544 225.053 117.72 225.18C117.896 225.307 118.126 225.414 118.41 225.502C118.703 225.59 119.006 225.683 119.319 225.781C119.632 225.869 119.93 225.991 120.214 226.148C120.497 226.304 120.727 226.514 120.903 226.778C121.089 227.042 121.182 227.39 121.182 227.82C121.182 228.475 120.947 228.993 120.478 229.374C120.018 229.756 119.397 229.946 118.615 229.946Z" fill="#E9ECFF"/>
<rect x="157.333" y="157.333" width="102.667" height="102.667" rx="2.93333" fill="#1A237E"/>
<path d="M212.578 189.4L214.817 191.639L210.045 196.411L206.134 192.499L198.889 199.755L200.267 201.133L206.134 195.267L210.045 199.178L216.205 193.027L218.444 195.267V189.4H212.578Z" fill="#E9ECFF"/>
<path d="M195.2 229.946C194.398 229.946 193.714 229.8 193.147 229.506C192.579 229.213 192.076 228.788 191.636 228.23L192.575 227.292C192.897 227.742 193.269 228.084 193.689 228.318C194.11 228.543 194.628 228.656 195.244 228.656C195.85 228.656 196.334 228.524 196.696 228.26C197.067 227.996 197.253 227.634 197.253 227.174C197.253 226.793 197.165 226.485 196.989 226.25C196.813 226.016 196.574 225.825 196.271 225.678C195.977 225.522 195.655 225.385 195.303 225.268C194.951 225.141 194.599 225.009 194.247 224.872C193.895 224.725 193.572 224.549 193.279 224.344C192.985 224.129 192.746 223.85 192.56 223.508C192.384 223.166 192.296 222.735 192.296 222.217C192.296 221.64 192.433 221.151 192.707 220.75C192.99 220.34 193.371 220.027 193.851 219.812C194.339 219.587 194.887 219.474 195.493 219.474C196.158 219.474 196.755 219.606 197.283 219.87C197.811 220.125 198.241 220.462 198.573 220.882L197.635 221.821C197.331 221.469 197.004 221.205 196.652 221.029C196.31 220.853 195.914 220.765 195.464 220.765C194.916 220.765 194.481 220.887 194.159 221.132C193.836 221.366 193.675 221.699 193.675 222.129C193.675 222.471 193.763 222.75 193.939 222.965C194.124 223.17 194.364 223.346 194.657 223.493C194.951 223.64 195.273 223.777 195.625 223.904C195.987 224.021 196.344 224.153 196.696 224.3C197.048 224.446 197.371 224.632 197.664 224.857C197.957 225.082 198.192 225.375 198.368 225.737C198.554 226.089 198.647 226.534 198.647 227.072C198.647 227.971 198.334 228.675 197.708 229.184C197.092 229.692 196.256 229.946 195.2 229.946ZM203.352 229.946C202.668 229.946 202.047 229.785 201.49 229.462C200.942 229.14 200.507 228.705 200.184 228.157C199.871 227.6 199.715 226.984 199.715 226.309C199.715 225.625 199.871 225.009 200.184 224.461C200.507 223.914 200.942 223.483 201.49 223.17C202.047 222.848 202.668 222.686 203.352 222.686C203.89 222.686 204.389 222.789 204.848 222.994C205.308 223.19 205.704 223.478 206.036 223.86L205.156 224.74C204.941 224.486 204.677 224.295 204.364 224.168C204.061 224.031 203.724 223.962 203.352 223.962C202.912 223.962 202.521 224.065 202.179 224.27C201.837 224.466 201.568 224.74 201.372 225.092C201.177 225.444 201.079 225.85 201.079 226.309C201.079 226.769 201.177 227.174 201.372 227.526C201.568 227.878 201.837 228.157 202.179 228.362C202.521 228.568 202.912 228.67 203.352 228.67C203.724 228.67 204.061 228.607 204.364 228.48C204.677 228.343 204.946 228.147 205.171 227.893L206.036 228.773C205.714 229.145 205.318 229.433 204.848 229.638C204.389 229.844 203.89 229.946 203.352 229.946ZM210.165 229.946C209.529 229.946 208.952 229.79 208.434 229.477C207.916 229.154 207.505 228.719 207.202 228.172C206.909 227.624 206.762 227.008 206.762 226.324C206.762 225.639 206.909 225.023 207.202 224.476C207.505 223.928 207.911 223.493 208.42 223.17C208.938 222.848 209.52 222.686 210.165 222.686C210.693 222.686 211.162 222.799 211.573 223.024C211.993 223.239 212.331 223.542 212.585 223.933C212.839 224.314 212.981 224.759 213.01 225.268V227.365C212.981 227.864 212.839 228.309 212.585 228.7C212.34 229.091 212.008 229.399 211.588 229.624C211.177 229.839 210.703 229.946 210.165 229.946ZM210.385 228.7C211.04 228.7 211.568 228.48 211.969 228.04C212.37 227.59 212.57 227.018 212.57 226.324C212.57 225.845 212.477 225.429 212.292 225.077C212.116 224.715 211.861 224.437 211.529 224.241C211.196 224.036 210.81 223.933 210.37 223.933C209.93 223.933 209.539 224.036 209.197 224.241C208.864 224.446 208.6 224.73 208.405 225.092C208.219 225.444 208.126 225.85 208.126 226.309C208.126 226.778 208.219 227.194 208.405 227.556C208.6 227.908 208.869 228.186 209.212 228.392C209.554 228.597 209.945 228.7 210.385 228.7ZM212.482 229.8V227.922L212.732 226.221L212.482 224.534V222.833H213.817V229.8H212.482ZM215.739 229.8V219.328H217.059V229.8H215.739ZM222.217 229.946C221.522 229.946 220.897 229.79 220.339 229.477C219.782 229.154 219.342 228.719 219.019 228.172C218.697 227.624 218.535 227.003 218.535 226.309C218.535 225.625 218.692 225.009 219.005 224.461C219.327 223.914 219.758 223.483 220.295 223.17C220.843 222.848 221.454 222.686 222.129 222.686C222.774 222.686 223.341 222.833 223.83 223.126C224.329 223.42 224.715 223.826 224.989 224.344C225.272 224.862 225.414 225.449 225.414 226.104C225.414 226.202 225.409 226.309 225.399 226.426C225.39 226.534 225.37 226.661 225.341 226.808H219.459V225.708H224.637L224.153 226.133C224.153 225.664 224.07 225.268 223.903 224.945C223.737 224.613 223.502 224.358 223.199 224.182C222.896 223.997 222.53 223.904 222.099 223.904C221.65 223.904 221.254 224.002 220.911 224.197C220.569 224.393 220.305 224.666 220.119 225.018C219.934 225.37 219.841 225.786 219.841 226.265C219.841 226.754 219.938 227.184 220.134 227.556C220.33 227.918 220.608 228.201 220.97 228.406C221.332 228.602 221.747 228.7 222.217 228.7C222.608 228.7 222.965 228.631 223.287 228.494C223.62 228.358 223.903 228.152 224.138 227.878L224.989 228.744C224.656 229.135 224.246 229.433 223.757 229.638C223.278 229.844 222.764 229.946 222.217 229.946Z" fill="#E9ECFF"/>
</svg>
