<svg width="440" height="440" viewBox="0 0 440 440" fill="none" xmlns="http://www.w3.org/2000/svg">
<rect width="440" height="440" rx="5.86667" fill="#E9ECFF"/>
<g filter="url(#filter0_d_1787_98)">
<path d="M147 75C147 72.7909 148.791 71 151 71H289C291.209 71 293 72.7909 293 75V124H147V75Z" fill="white"/>
<path d="M183.528 103.66C182.717 103.66 182.008 103.5 181.4 103.18C180.803 102.86 180.259 102.391 179.768 101.772L181 100.54C181.309 100.988 181.672 101.351 182.088 101.628C182.504 101.905 183.005 102.044 183.592 102.044C184.211 102.044 184.701 101.911 185.064 101.644C185.437 101.377 185.624 100.999 185.624 100.508C185.624 100.135 185.528 99.8307 185.336 99.596C185.144 99.3613 184.888 99.1693 184.568 99.02C184.259 98.86 183.912 98.7213 183.528 98.604C183.155 98.476 182.776 98.3373 182.392 98.188C182.019 98.028 181.672 97.8307 181.352 97.596C181.043 97.3613 180.792 97.0573 180.6 96.684C180.408 96.3107 180.312 95.836 180.312 95.26C180.312 94.5987 180.472 94.0387 180.792 93.58C181.123 93.1107 181.565 92.7533 182.12 92.508C182.675 92.2627 183.293 92.14 183.976 92.14C184.637 92.14 185.251 92.284 185.816 92.572C186.381 92.86 186.845 93.228 187.208 93.676L185.976 94.908C185.656 94.5453 185.325 94.2627 184.984 94.06C184.653 93.8573 184.301 93.756 183.928 93.756C183.331 93.756 182.872 93.8733 182.552 94.108C182.232 94.332 182.072 94.6733 182.072 95.132C182.072 95.4733 182.168 95.7507 182.36 95.964C182.563 96.1667 182.824 96.3427 183.144 96.492C183.464 96.6307 183.811 96.764 184.184 96.892C184.568 97.02 184.952 97.164 185.336 97.324C185.72 97.484 186.072 97.692 186.392 97.948C186.712 98.1933 186.968 98.5133 187.16 98.908C187.363 99.3027 187.464 99.7987 187.464 100.396C187.464 101.399 187.107 102.193 186.392 102.78C185.688 103.367 184.733 103.66 183.528 103.66ZM183.272 105.1V90.7H184.552V105.1H183.272ZM194.939 105.404C194.374 104.903 193.883 104.289 193.467 103.564C193.062 102.839 192.747 102.044 192.523 101.18C192.299 100.316 192.187 99.42 192.187 98.492C192.187 97.564 192.299 96.668 192.523 95.804C192.747 94.94 193.062 94.1453 193.467 93.42C193.883 92.6947 194.374 92.0813 194.939 91.58L195.947 92.476C195.243 93.1267 194.694 93.9693 194.299 95.004C193.915 96.028 193.723 97.1907 193.723 98.492C193.723 99.7827 193.915 100.945 194.299 101.98C194.694 103.015 195.243 103.857 195.947 104.508L194.939 105.404ZM201.864 103.66C201.021 103.66 200.264 103.468 199.592 103.084C198.92 102.7 198.387 102.177 197.992 101.516C197.608 100.844 197.416 100.087 197.416 99.244V92.3H199.256V99.228C199.256 99.772 199.368 100.247 199.592 100.652C199.827 101.047 200.141 101.356 200.536 101.58C200.931 101.793 201.373 101.9 201.864 101.9C202.365 101.9 202.808 101.793 203.192 101.58C203.576 101.356 203.88 101.047 204.104 100.652C204.328 100.247 204.44 99.7773 204.44 99.244V92.3H206.28V99.26C206.28 100.103 206.088 100.855 205.704 101.516C205.32 102.177 204.797 102.7 204.136 103.084C203.475 103.468 202.717 103.66 201.864 103.66ZM211.586 103.66C210.701 103.66 209.949 103.5 209.33 103.18C208.711 102.86 208.157 102.391 207.666 101.772L208.914 100.524C209.223 100.972 209.591 101.324 210.018 101.58C210.445 101.825 210.989 101.948 211.65 101.948C212.269 101.948 212.759 101.82 213.122 101.564C213.495 101.308 213.682 100.956 213.682 100.508C213.682 100.135 213.586 99.8307 213.394 99.596C213.202 99.3613 212.946 99.1693 212.626 99.02C212.317 98.86 211.97 98.7213 211.586 98.604C211.213 98.476 210.834 98.3373 210.45 98.188C210.077 98.028 209.73 97.8307 209.41 97.596C209.101 97.3613 208.85 97.0573 208.658 96.684C208.466 96.3107 208.37 95.836 208.37 95.26C208.37 94.5987 208.53 94.0387 208.85 93.58C209.181 93.1107 209.623 92.7533 210.178 92.508C210.733 92.2627 211.351 92.14 212.034 92.14C212.77 92.14 213.426 92.284 214.002 92.572C214.589 92.86 215.063 93.228 215.426 93.676L214.178 94.924C213.858 94.5613 213.522 94.2947 213.17 94.124C212.829 93.9427 212.434 93.852 211.986 93.852C211.431 93.852 210.994 93.964 210.674 94.188C210.365 94.412 210.21 94.7267 210.21 95.132C210.21 95.4733 210.306 95.7507 210.498 95.964C210.69 96.1667 210.941 96.3427 211.25 96.492C211.57 96.6307 211.917 96.764 212.29 96.892C212.674 97.02 213.053 97.164 213.426 97.324C213.81 97.484 214.157 97.692 214.466 97.948C214.786 98.1933 215.042 98.5133 215.234 98.908C215.426 99.3027 215.522 99.7987 215.522 100.396C215.522 101.399 215.165 102.193 214.45 102.78C213.746 103.367 212.791 103.66 211.586 103.66ZM218.621 103.5V101.82H221.565C222.333 101.82 223.005 101.655 223.581 101.324C224.167 100.993 224.621 100.535 224.941 99.948C225.271 99.3507 225.437 98.6627 225.437 97.884C225.437 97.116 225.271 96.4387 224.941 95.852C224.61 95.2653 224.151 94.8067 223.565 94.476C222.989 94.1453 222.322 93.98 221.565 93.98H218.621V92.3H221.613C222.423 92.3 223.175 92.444 223.869 92.732C224.562 93.0093 225.165 93.404 225.677 93.916C226.199 94.4173 226.605 95.0093 226.893 95.692C227.181 96.364 227.325 97.1 227.325 97.9C227.325 98.6893 227.181 99.4253 226.893 100.108C226.605 100.791 226.205 101.388 225.693 101.9C225.181 102.401 224.578 102.796 223.885 103.084C223.191 103.361 222.445 103.5 221.645 103.5H218.621ZM217.357 103.5V92.3H219.197V103.5H217.357ZM229.376 105.404L228.368 104.508C229.072 103.857 229.616 103.015 230 101.98C230.395 100.945 230.592 99.7827 230.592 98.492C230.592 97.1907 230.395 96.028 230 95.004C229.616 93.9693 229.072 93.1267 228.368 92.476L229.376 91.58C229.942 92.0813 230.427 92.6947 230.832 93.42C231.248 94.1453 231.568 94.94 231.792 95.804C232.016 96.668 232.128 97.564 232.128 98.492C232.128 99.42 232.016 100.316 231.792 101.18C231.568 102.044 231.248 102.839 230.832 103.564C230.427 104.289 229.942 104.903 229.376 105.404Z" fill="#3F4346"/>
<path d="M254.229 95L250.996 98.2333L247.762 95C247.437 94.675 246.912 94.675 246.587 95C246.263 95.325 246.263 95.85 246.587 96.175L250.412 100C250.738 100.325 251.262 100.325 251.588 100L255.412 96.175C255.737 95.85 255.737 95.325 255.412 95C255.087 94.6833 254.554 94.675 254.229 95Z" fill="#3F4346"/>
<mask id="path-5-inside-1_1787_98" fill="white">
<path d="M147 124H293V177H147V124Z"/>
</mask>
<path d="M147 124H293V177H147V124Z" fill="white"/>
<path d="M147 124V125H293V124V123H147V124Z" fill="#D5D9DC" mask="url(#path-5-inside-1_1787_98)"/>
<path d="M200.176 156.5L197.2 151.3V150.452H197.728C198.24 150.452 198.677 150.399 199.04 150.292C199.403 150.185 199.691 150.015 199.904 149.78C200.117 149.535 200.251 149.22 200.304 148.836H197.2V147.764H200.288C200.213 147.401 200.075 147.103 199.872 146.868C199.669 146.623 199.397 146.441 199.056 146.324C198.715 146.207 198.304 146.148 197.824 146.148H197.2V145.076H204V146.148H201.12C201.344 146.351 201.531 146.585 201.68 146.852C201.829 147.119 201.925 147.423 201.968 147.764H204V148.836H202C201.925 149.615 201.627 150.223 201.104 150.66C200.592 151.097 199.92 151.38 199.088 151.508L202.176 156.5H200.176ZM211.751 158.404C211.186 157.903 210.695 157.289 210.279 156.564C209.874 155.839 209.559 155.044 209.335 154.18C209.111 153.316 208.999 152.42 208.999 151.492C208.999 150.564 209.111 149.668 209.335 148.804C209.559 147.94 209.874 147.145 210.279 146.42C210.695 145.695 211.186 145.081 211.751 144.58L212.759 145.476C212.055 146.127 211.506 146.969 211.111 148.004C210.727 149.028 210.535 150.191 210.535 151.492C210.535 152.783 210.727 153.945 211.111 154.98C211.506 156.015 212.055 156.857 212.759 157.508L211.751 158.404ZM214.357 156.5V145.3H216.197V156.5H214.357ZM218.622 156.5V145.3H219.902L220.462 147.412V156.5H218.622ZM226.382 156.5L219.678 147.748L219.902 145.3L226.606 154.052L226.382 156.5ZM226.382 156.5L225.822 154.532V145.3H227.662V156.5H226.382ZM231.355 151.748V150.228H234.187C234.752 150.228 235.19 150.084 235.499 149.796C235.819 149.497 235.979 149.087 235.979 148.564C235.979 148.095 235.824 147.7 235.515 147.38C235.206 147.06 234.768 146.9 234.203 146.9H231.355V145.3H234.283C234.987 145.3 235.606 145.444 236.139 145.732C236.672 146.009 237.083 146.393 237.371 146.884C237.67 147.364 237.819 147.913 237.819 148.532C237.819 149.183 237.67 149.748 237.371 150.228C237.083 150.708 236.672 151.081 236.139 151.348C235.606 151.615 234.987 151.748 234.283 151.748H231.355ZM230.091 156.5V145.3H231.931V156.5H230.091ZM236.235 156.5L232.315 151.636L234.027 151.012L238.555 156.5H236.235ZM240.314 158.404L239.306 157.508C240.01 156.857 240.554 156.015 240.938 154.98C241.333 153.945 241.53 152.783 241.53 151.492C241.53 150.191 241.333 149.028 240.938 148.004C240.554 146.969 240.01 146.127 239.306 145.476L240.314 144.58C240.879 145.081 241.365 145.695 241.77 146.42C242.186 147.145 242.506 147.94 242.73 148.804C242.954 149.668 243.066 150.564 243.066 151.492C243.066 152.42 242.954 153.316 242.73 154.18C242.506 155.044 242.186 155.839 241.77 156.564C241.365 157.289 240.879 157.903 240.314 158.404Z" fill="#3F4346"/>
<mask id="path-8-inside-2_1787_98" fill="white">
<path d="M147 177H293V230H147V177Z"/>
</mask>
<path d="M147 177H293V230H147V177Z" fill="white"/>
<path d="M147 177V178H293V177V176H147V177Z" fill="#D5D9DC" mask="url(#path-8-inside-2_1787_98)"/>
<path d="M199.428 209.66C198.607 209.66 197.86 209.516 197.188 209.228C196.516 208.929 195.935 208.519 195.444 207.996C194.953 207.463 194.575 206.849 194.308 206.156C194.052 205.452 193.924 204.7 193.924 203.9C193.924 203.1 194.052 202.353 194.308 201.66C194.575 200.956 194.953 200.343 195.444 199.82C195.935 199.297 196.516 198.887 197.188 198.588C197.86 198.289 198.607 198.14 199.428 198.14C200.271 198.14 200.996 198.289 201.604 198.588C202.223 198.887 202.788 199.292 203.3 199.804L202.052 201.052C201.721 200.668 201.337 200.375 200.9 200.172C200.463 199.959 199.945 199.852 199.348 199.852C198.623 199.852 197.988 200.023 197.444 200.364C196.911 200.705 196.495 201.18 196.196 201.788C195.908 202.396 195.764 203.1 195.764 203.9C195.764 204.7 195.913 205.404 196.212 206.012C196.511 206.62 196.932 207.095 197.476 207.436C198.031 207.777 198.692 207.948 199.46 207.948C200.047 207.948 200.553 207.841 200.98 207.628C201.417 207.415 201.801 207.116 202.132 206.732L203.38 207.98C202.868 208.503 202.287 208.913 201.636 209.212C200.985 209.511 200.249 209.66 199.428 209.66ZM192.852 203.212V201.772H200.548L200.084 203.212H192.852ZM192.852 206.012V204.572H199.892L199.428 206.012H192.852ZM210.611 211.404C210.045 210.903 209.555 210.289 209.139 209.564C208.733 208.839 208.419 208.044 208.195 207.18C207.971 206.316 207.859 205.42 207.859 204.492C207.859 203.564 207.971 202.668 208.195 201.804C208.419 200.94 208.733 200.145 209.139 199.42C209.555 198.695 210.045 198.081 210.611 197.58L211.619 198.476C210.915 199.127 210.365 199.969 209.971 201.004C209.587 202.028 209.395 203.191 209.395 204.492C209.395 205.783 209.587 206.945 209.971 207.98C210.365 209.015 210.915 209.857 211.619 210.508L210.611 211.404ZM213.216 209.5V198.3H215.056V209.5H213.216ZM214.48 209.5V207.82H220.752V209.5H214.48ZM214.48 204.588V202.972H220.208V204.588H214.48ZM214.48 199.98V198.3H220.672V199.98H214.48ZM226.974 209.66C226.131 209.66 225.374 209.468 224.702 209.084C224.03 208.7 223.496 208.177 223.102 207.516C222.718 206.844 222.526 206.087 222.526 205.244V198.3H224.366V205.228C224.366 205.772 224.478 206.247 224.702 206.652C224.936 207.047 225.251 207.356 225.646 207.58C226.04 207.793 226.483 207.9 226.974 207.9C227.475 207.9 227.918 207.793 228.302 207.58C228.686 207.356 228.99 207.047 229.214 206.652C229.438 206.247 229.55 205.777 229.55 205.244V198.3H231.39V205.26C231.39 206.103 231.198 206.855 230.814 207.516C230.43 208.177 229.907 208.7 229.246 209.084C228.584 209.468 227.827 209.66 226.974 209.66ZM234.964 204.748V203.228H237.796C238.362 203.228 238.799 203.084 239.108 202.796C239.428 202.497 239.588 202.087 239.588 201.564C239.588 201.095 239.434 200.7 239.124 200.38C238.815 200.06 238.378 199.9 237.812 199.9H234.964V198.3H237.892C238.596 198.3 239.215 198.444 239.748 198.732C240.282 199.009 240.692 199.393 240.98 199.884C241.279 200.364 241.428 200.913 241.428 201.532C241.428 202.183 241.279 202.748 240.98 203.228C240.692 203.708 240.282 204.081 239.748 204.348C239.215 204.615 238.596 204.748 237.892 204.748H234.964ZM233.7 209.5V198.3H235.54V209.5H233.7ZM239.844 209.5L235.924 204.636L237.636 204.012L242.164 209.5H239.844ZM243.923 211.404L242.915 210.508C243.619 209.857 244.163 209.015 244.547 207.98C244.942 206.945 245.139 205.783 245.139 204.492C245.139 203.191 244.942 202.028 244.547 201.004C244.163 199.969 243.619 199.127 242.915 198.476L243.923 197.58C244.489 198.081 244.974 198.695 245.379 199.42C245.795 200.145 246.115 200.94 246.339 201.804C246.563 202.668 246.675 203.564 246.675 204.492C246.675 205.42 246.563 206.316 246.339 207.18C246.115 208.044 245.795 208.839 245.379 209.564C244.974 210.289 244.489 210.903 243.923 211.404Z" fill="#3F4346"/>
<mask id="path-11-inside-3_1787_98" fill="white">
<path d="M147 230H293V283H147V230Z"/>
</mask>
<path d="M147 230H293V283H147V230Z" fill="white"/>
<path d="M147 230V231H293V230V229H147V230Z" fill="#D5D9DC" mask="url(#path-11-inside-3_1787_98)"/>
<path d="M194.932 262.5V254.82C194.932 254.052 195.087 253.396 195.396 252.852C195.705 252.297 196.132 251.876 196.676 251.588C197.22 251.289 197.833 251.14 198.516 251.14C199.295 251.14 199.929 251.3 200.42 251.62C200.911 251.929 201.3 252.308 201.588 252.756L200.388 253.956C200.153 253.593 199.897 253.316 199.62 253.124C199.343 252.921 198.969 252.82 198.5 252.82C198.159 252.82 197.855 252.895 197.588 253.044C197.332 253.193 197.129 253.407 196.98 253.684C196.841 253.951 196.772 254.276 196.772 254.66V262.5H194.932ZM193.492 262.5V260.82H201.348V262.5H193.492ZM193.492 257.812V256.372H199.716V257.812H193.492ZM209.033 264.404C208.467 263.903 207.977 263.289 207.561 262.564C207.155 261.839 206.841 261.044 206.617 260.18C206.393 259.316 206.281 258.42 206.281 257.492C206.281 256.564 206.393 255.668 206.617 254.804C206.841 253.94 207.155 253.145 207.561 252.42C207.977 251.695 208.467 251.081 209.033 250.58L210.041 251.476C209.337 252.127 208.787 252.969 208.393 254.004C208.009 255.028 207.817 256.191 207.817 257.492C207.817 258.783 208.009 259.945 208.393 260.98C208.787 262.015 209.337 262.857 210.041 263.508L209.033 264.404ZM216.506 262.66C215.738 262.66 215.013 262.511 214.33 262.212C213.648 261.913 213.05 261.503 212.538 260.98C212.026 260.447 211.621 259.833 211.322 259.14C211.034 258.436 210.89 257.684 210.89 256.884C210.89 256.084 211.034 255.337 211.322 254.644C211.621 253.951 212.026 253.343 212.538 252.82C213.061 252.287 213.669 251.876 214.362 251.588C215.066 251.289 215.824 251.14 216.634 251.14C217.52 251.14 218.341 251.311 219.098 251.652C219.856 251.993 220.49 252.479 221.002 253.108L219.754 254.356C219.424 253.887 218.981 253.529 218.426 253.284C217.872 253.028 217.274 252.9 216.634 252.9C215.866 252.9 215.189 253.071 214.602 253.412C214.026 253.743 213.578 254.207 213.258 254.804C212.938 255.401 212.778 256.095 212.778 256.884C212.778 257.673 212.938 258.372 213.258 258.98C213.589 259.577 214.032 260.047 214.586 260.388C215.141 260.729 215.77 260.9 216.474 260.9C217.221 260.9 217.861 260.767 218.394 260.5C218.938 260.223 219.354 259.817 219.642 259.284C219.93 258.74 220.074 258.073 220.074 257.284L221.226 258.116H216.442V256.436H221.978V256.692C221.978 258.025 221.738 259.135 221.258 260.02C220.789 260.905 220.144 261.567 219.322 262.004C218.501 262.441 217.562 262.66 216.506 262.66ZM225.074 262.5V260.9H228.29C228.855 260.9 229.292 260.724 229.602 260.372C229.911 260.02 230.066 259.615 230.066 259.156C230.066 258.847 229.996 258.559 229.858 258.292C229.719 258.025 229.516 257.812 229.25 257.652C228.983 257.492 228.663 257.412 228.29 257.412H225.074V255.812H228.018C228.498 255.812 228.882 255.689 229.17 255.444C229.458 255.199 229.602 254.836 229.602 254.356C229.602 253.876 229.458 253.513 229.17 253.268C228.882 253.023 228.498 252.9 228.018 252.9H225.074V251.3H228.066C228.823 251.3 229.452 251.439 229.954 251.716C230.455 251.993 230.828 252.351 231.074 252.788C231.319 253.225 231.442 253.695 231.442 254.196C231.442 254.783 231.276 255.3 230.946 255.748C230.626 256.196 230.151 256.559 229.522 256.836L229.666 256.26C230.37 256.548 230.919 256.953 231.314 257.476C231.708 257.999 231.906 258.612 231.906 259.316C231.906 259.892 231.762 260.42 231.474 260.9C231.196 261.38 230.78 261.769 230.226 262.068C229.682 262.356 229.01 262.5 228.21 262.5H225.074ZM223.81 262.5V251.3H225.65V262.5H223.81ZM235.027 258.276V256.676H237.827C238.211 256.676 238.547 256.601 238.835 256.452C239.134 256.292 239.368 256.073 239.539 255.796C239.71 255.508 239.795 255.172 239.795 254.788C239.795 254.404 239.71 254.073 239.539 253.796C239.368 253.508 239.134 253.289 238.835 253.14C238.547 252.98 238.211 252.9 237.827 252.9H235.027V251.3H237.923C238.627 251.3 239.256 251.444 239.811 251.732C240.376 252.02 240.819 252.425 241.139 252.948C241.47 253.471 241.635 254.084 241.635 254.788C241.635 255.492 241.47 256.105 241.139 256.628C240.819 257.151 240.376 257.556 239.811 257.844C239.256 258.132 238.627 258.276 237.923 258.276H235.027ZM233.763 262.5V251.3H235.603V262.5H233.763ZM243.595 264.404L242.587 263.508C243.291 262.857 243.835 262.015 244.219 260.98C244.614 259.945 244.811 258.783 244.811 257.492C244.811 256.191 244.614 255.028 244.219 254.004C243.835 252.969 243.291 252.127 242.587 251.476L243.595 250.58C244.16 251.081 244.646 251.695 245.051 252.42C245.467 253.145 245.787 253.94 246.011 254.804C246.235 255.668 246.347 256.564 246.347 257.492C246.347 258.42 246.235 259.316 246.011 260.18C245.787 261.044 245.467 261.839 245.051 262.564C244.646 263.289 244.16 263.903 243.595 264.404Z" fill="#3F4346"/>
<mask id="path-14-inside-4_1787_98" fill="white">
<path d="M147 283H293V336H147V283Z"/>
</mask>
<path d="M147 283H293V336H147V283Z" fill="white"/>
<path d="M147 283V284H293V283V282H147V283Z" fill="#D5D9DC" mask="url(#path-14-inside-4_1787_98)"/>
<path d="M198.98 311.18L195.252 304.3H197.38L200.148 310.06H199.156L201.924 304.3H204.02L200.26 311.18H198.98ZM198.724 315.5V310.188H200.564V315.5H198.724ZM198.068 307.772L198.564 309.212H195.572V307.772H198.068ZM195.572 312.012V310.572H203.7V312.012H195.572ZM200.852 309.212L201.492 307.772H203.7V309.212H200.852ZM211.361 317.404C210.795 316.903 210.305 316.289 209.889 315.564C209.483 314.839 209.169 314.044 208.945 313.18C208.721 312.316 208.609 311.42 208.609 310.492C208.609 309.564 208.721 308.668 208.945 307.804C209.169 306.94 209.483 306.145 209.889 305.42C210.305 304.695 210.795 304.081 211.361 303.58L212.369 304.476C211.665 305.127 211.115 305.969 210.721 307.004C210.337 308.028 210.145 309.191 210.145 310.492C210.145 311.783 210.337 312.945 210.721 313.98C211.115 315.015 211.665 315.857 212.369 316.508L211.361 317.404ZM215.828 315.66C215.177 315.66 214.596 315.532 214.084 315.276C213.583 315.009 213.177 314.657 212.868 314.22L214.164 313.036C214.345 313.313 214.575 313.527 214.852 313.676C215.129 313.825 215.433 313.9 215.764 313.9C216.127 313.9 216.436 313.825 216.692 313.676C216.948 313.527 217.145 313.313 217.284 313.036C217.423 312.759 217.492 312.428 217.492 312.044V304.3H219.332V311.9C219.332 312.647 219.183 313.303 218.884 313.868C218.596 314.433 218.191 314.876 217.668 315.196C217.145 315.505 216.532 315.66 215.828 315.66ZM222.886 311.276V309.676H225.686C226.07 309.676 226.406 309.601 226.694 309.452C226.993 309.292 227.228 309.073 227.398 308.796C227.569 308.508 227.654 308.172 227.654 307.788C227.654 307.404 227.569 307.073 227.398 306.796C227.228 306.508 226.993 306.289 226.694 306.14C226.406 305.98 226.07 305.9 225.686 305.9H222.886V304.3H225.782C226.486 304.3 227.116 304.444 227.67 304.732C228.236 305.02 228.678 305.425 228.998 305.948C229.329 306.471 229.494 307.084 229.494 307.788C229.494 308.492 229.329 309.105 228.998 309.628C228.678 310.151 228.236 310.556 227.67 310.844C227.116 311.132 226.486 311.276 225.782 311.276H222.886ZM221.622 315.5V304.3H223.462V315.5H221.622ZM234.361 311.02L229.993 304.3H232.121L235.529 309.66H234.537L237.945 304.3H240.041L235.641 311.02H234.361ZM234.105 315.5V309.868H235.945V315.5H234.105ZM241.783 317.404L240.775 316.508C241.479 315.857 242.023 315.015 242.407 313.98C242.801 312.945 242.999 311.783 242.999 310.492C242.999 309.191 242.801 308.028 242.407 307.004C242.023 305.969 241.479 305.127 240.775 304.476L241.783 303.58C242.348 304.081 242.833 304.695 243.239 305.42C243.655 306.145 243.975 306.94 244.199 307.804C244.423 308.668 244.535 309.564 244.535 310.492C244.535 311.42 244.423 312.316 244.199 313.18C243.975 314.044 243.655 314.839 243.239 315.564C242.833 316.289 242.348 316.903 241.783 317.404Z" fill="#3F4346"/>
<mask id="path-17-inside-5_1787_98" fill="white">
<path d="M147 336H293V365C293 367.209 291.209 369 289 369H151C148.791 369 147 367.209 147 365V336Z"/>
</mask>
<path d="M147 336H293V365C293 367.209 291.209 369 289 369H151C148.791 369 147 367.209 147 365V336Z" fill="white"/>
<path d="M147 335H293V337H147V335ZM293 369H147H293ZM147 369V336V369ZM293 336V369V336Z" fill="#D5D9DC" mask="url(#path-17-inside-5_1787_98)"/>
<path d="M196.57 356L193.74 349H194.99L197.2 354.67H196.76L198.99 349H200.22L197.37 356H196.57ZM201.083 356V351.2H202.183V356H201.083ZM201.633 350.32C201.446 350.32 201.29 350.257 201.163 350.13C201.043 350.003 200.983 349.847 200.983 349.66C200.983 349.473 201.043 349.317 201.163 349.19C201.29 349.063 201.446 349 201.633 349C201.826 349 201.983 349.063 202.103 349.19C202.223 349.317 202.283 349.473 202.283 349.66C202.283 349.847 202.223 350.003 202.103 350.13C201.983 350.257 201.826 350.32 201.633 350.32ZM205.647 356.1C205.167 356.1 204.733 355.993 204.347 355.78C203.967 355.56 203.663 355.26 203.437 354.88C203.217 354.5 203.107 354.073 203.107 353.6C203.107 353.127 203.217 352.703 203.437 352.33C203.657 351.95 203.953 351.65 204.327 351.43C204.707 351.21 205.127 351.1 205.587 351.1C206.033 351.1 206.427 351.203 206.767 351.41C207.113 351.617 207.383 351.9 207.577 352.26C207.777 352.62 207.877 353.03 207.877 353.49C207.877 353.57 207.87 353.653 207.857 353.74C207.85 353.82 207.837 353.91 207.817 354.01H203.877V353.11H207.247L206.837 353.47C206.823 353.177 206.767 352.93 206.667 352.73C206.567 352.53 206.423 352.377 206.237 352.27C206.057 352.163 205.833 352.11 205.567 352.11C205.287 352.11 205.043 352.17 204.837 352.29C204.63 352.41 204.47 352.58 204.357 352.8C204.243 353.013 204.187 353.27 204.187 353.57C204.187 353.87 204.247 354.133 204.367 354.36C204.487 354.587 204.657 354.763 204.877 354.89C205.097 355.01 205.35 355.07 205.637 355.07C205.883 355.07 206.11 355.027 206.317 354.94C206.53 354.853 206.71 354.727 206.857 354.56L207.557 355.27C207.323 355.543 207.04 355.75 206.707 355.89C206.373 356.03 206.02 356.1 205.647 356.1ZM210.1 356L208.17 351.2H209.31L210.61 354.69L210.27 354.7L211.54 351.2H212.18L213.45 354.7L213.11 354.69L214.41 351.2H215.55L213.62 356H212.98L211.68 352.68H212.04L210.74 356H210.1ZM217.588 356L220.468 349H221.268L224.128 356H222.888L220.648 350.33H221.068L218.808 356H217.588ZM219.008 354.65V353.65H222.718V354.65H219.008ZM224.979 356V348.8H226.079V356H224.979ZM227.303 356V348.8H228.403V356H227.303ZM233.14 357.19C232.786 356.877 232.48 356.493 232.22 356.04C231.966 355.587 231.77 355.09 231.63 354.55C231.49 354.01 231.42 353.45 231.42 352.87C231.42 352.29 231.49 351.73 231.63 351.19C231.77 350.65 231.966 350.153 232.22 349.7C232.48 349.247 232.786 348.863 233.14 348.55L233.77 349.11C233.33 349.517 232.986 350.043 232.74 350.69C232.5 351.33 232.38 352.057 232.38 352.87C232.38 353.677 232.5 354.403 232.74 355.05C232.986 355.697 233.33 356.223 233.77 356.63L233.14 357.19ZM235.668 356V349H236.798V356H235.668ZM234.268 350.03V349H236.698V350.03H234.268ZM240.303 356.1C239.823 356.1 239.406 356.013 239.053 355.84C238.699 355.667 238.423 355.427 238.222 355.12C238.029 354.807 237.933 354.453 237.933 354.06C237.933 353.747 237.993 353.46 238.113 353.2C238.239 352.933 238.419 352.707 238.653 352.52C238.893 352.333 239.176 352.2 239.503 352.12L239.473 352.44C239.206 352.367 238.979 352.247 238.793 352.08C238.613 351.913 238.476 351.717 238.383 351.49C238.289 351.263 238.243 351.027 238.243 350.78C238.243 350.407 238.329 350.08 238.503 349.8C238.683 349.513 238.929 349.29 239.243 349.13C239.556 348.97 239.909 348.89 240.303 348.89C240.703 348.89 241.056 348.97 241.363 349.13C241.676 349.29 241.919 349.513 242.093 349.8C242.273 350.08 242.363 350.407 242.363 350.78C242.363 351.027 242.316 351.263 242.223 351.49C242.129 351.717 241.993 351.913 241.813 352.08C241.633 352.247 241.406 352.367 241.133 352.44L241.103 352.12C241.436 352.2 241.719 352.333 241.953 352.52C242.186 352.707 242.363 352.933 242.483 353.2C242.609 353.46 242.673 353.747 242.673 354.06C242.673 354.453 242.576 354.807 242.383 355.12C242.189 355.427 241.913 355.667 241.553 355.84C241.199 356.013 240.783 356.1 240.303 356.1ZM240.303 355.06C240.549 355.06 240.766 355.01 240.953 354.91C241.146 354.81 241.296 354.673 241.403 354.5C241.516 354.327 241.573 354.13 241.573 353.91C241.573 353.683 241.516 353.487 241.403 353.32C241.296 353.147 241.146 353.01 240.953 352.91C240.766 352.81 240.549 352.76 240.303 352.76C240.056 352.76 239.836 352.81 239.643 352.91C239.456 353.01 239.306 353.147 239.193 353.32C239.086 353.487 239.032 353.683 239.032 353.91C239.032 354.13 239.086 354.327 239.193 354.5C239.306 354.673 239.456 354.81 239.643 354.91C239.836 355.01 240.056 355.06 240.303 355.06ZM240.303 351.86C240.596 351.86 240.836 351.767 241.023 351.58C241.209 351.393 241.303 351.153 241.303 350.86C241.303 350.567 241.209 350.33 241.023 350.15C240.836 349.963 240.596 349.87 240.303 349.87C240.016 349.87 239.776 349.963 239.583 350.15C239.396 350.33 239.303 350.567 239.303 350.86C239.303 351.153 239.396 351.393 239.583 351.58C239.776 351.767 240.016 351.86 240.303 351.86ZM243.911 357.19L243.281 356.63C243.721 356.223 244.061 355.697 244.301 355.05C244.548 354.403 244.671 353.677 244.671 352.87C244.671 352.057 244.548 351.33 244.301 350.69C244.061 350.043 243.721 349.517 243.281 349.11L243.911 348.55C244.264 348.863 244.568 349.247 244.821 349.7C245.081 350.153 245.281 350.65 245.421 351.19C245.561 351.73 245.631 352.29 245.631 352.87C245.631 353.45 245.561 354.01 245.421 354.55C245.281 355.09 245.081 355.587 244.821 356.04C244.568 356.493 244.264 356.877 243.911 357.19Z" fill="#8F9396"/>
</g>
<defs>
<filter id="filter0_d_1787_98" x="135" y="63" width="170" height="322" filterUnits="userSpaceOnUse" color-interpolation-filters="sRGB">
<feFlood flood-opacity="0" result="BackgroundImageFix"/>
<feColorMatrix in="SourceAlpha" type="matrix" values="0 0 0 0 0 0 0 0 0 0 0 0 0 0 0 0 0 0 127 0" result="hardAlpha"/>
<feOffset dy="4"/>
<feGaussianBlur stdDeviation="6"/>
<feComposite in2="hardAlpha" operator="out"/>
<feColorMatrix type="matrix" values="0 0 0 0 0 0 0 0 0 0 0 0 0 0 0 0 0 0 0.12 0"/>
<feBlend mode="normal" in2="BackgroundImageFix" result="effect1_dropShadow_1787_98"/>
<feBlend mode="normal" in="SourceGraphic" in2="effect1_dropShadow_1787_98" result="shape"/>
</filter>
</defs>
</svg>
