<svg width="440" height="440" viewBox="0 0 440 440" fill="none" xmlns="http://www.w3.org/2000/svg">
<rect width="440" height="440" rx="5.86667" fill="#E9ECFF"/>
<rect x="54" y="54" width="160" height="160" rx="20" fill="#B1B8FF"/>
<path d="M140.917 113.167C138.583 108.25 133.583 104.833 127.75 104.833H109V96.5H159V104.833H145.417C147.417 107.25 148.917 110.083 149.792 113.167H159V121.5H150.583C149.542 133.167 139.708 142.333 127.75 142.333H124.708L152.75 171.5H141.208L113.167 142.333V134H127.75C135.083 134 141.167 128.583 142.167 121.5H109V113.167H140.917Z" fill="#E9ECFF"/>
<rect x="226" y="54" width="160" height="160" rx="20" fill="#B1B8FF"/>
<path d="M307.625 129.417C298.167 126.958 295.125 124.417 295.125 120.458C295.125 115.917 299.333 112.75 306.375 112.75C313.792 112.75 316.542 116.292 316.792 121.5H326C325.708 114.333 321.333 107.75 312.625 105.625V96.5H300.125V105.5C292.042 107.25 285.542 112.5 285.542 120.542C285.542 130.167 293.5 134.958 305.125 137.75C315.542 140.25 317.625 143.917 317.625 147.792C317.625 150.667 315.583 155.25 306.375 155.25C297.792 155.25 294.417 151.417 293.958 146.5H284.792C285.292 155.625 292.125 160.75 300.125 162.458V171.5H312.625V162.542C320.75 161 327.208 156.292 327.208 147.75C327.208 135.917 317.083 131.875 307.625 129.417Z" fill="#E9ECFF"/>
<rect x="54" y="226" width="160" height="160" rx="20" fill="#B1B8FF"/>
<path d="M142.333 344.542C150.375 344.542 157.417 339.667 159 332.042L151.708 328.375C150.667 332.917 147.875 336.208 142.333 336.208H121.917C125.375 332.042 128.167 326.458 128.167 319.542C128.167 318.083 128.042 316.667 127.833 315.375H142.333V307.042H124.917C121.5 300.458 117.333 297.042 117.333 290.375C117.333 282.333 123.875 275.792 131.917 275.792C138.167 275.792 143.542 279.75 145.583 285.292L153.292 282.042C149.958 273.5 141.667 267.458 131.917 267.458C119.25 267.458 109 277.708 109 290.375C109 297.792 112.292 302.458 115.208 307.042H109V315.375H119.292C119.625 316.667 119.833 318.042 119.833 319.542C119.833 330.792 109 336.208 109 336.208V344.542H142.333Z" fill="#E9ECFF"/>
<g filter="url(#filter0_d_1820_533)">
<rect x="226" y="226" width="160" height="160" rx="20" fill="#B1B8FF" shape-rendering="crispEdges"/>
<path d="M320.583 333.083C310.125 333.083 301.083 327.167 296.583 318.5H320.583L324.75 310.167H293.833C293.625 308.792 293.5 307.417 293.5 306C293.5 304.583 293.625 303.208 293.833 301.833H320.583L324.75 293.5H296.583C301.083 284.833 310.167 278.917 320.583 278.917C327.292 278.917 333.458 281.375 338.208 285.458L345.583 278.083C338.958 272.125 330.167 268.5 320.583 268.5C304.25 268.5 290.417 278.958 285.25 293.5H270.583L266.417 301.833H283.333C283.167 303.208 283.083 304.583 283.083 306C283.083 307.417 283.167 308.792 283.333 310.167H270.583L266.417 318.5H285.25C290.417 333.042 304.25 343.5 320.583 343.5C330.208 343.5 338.958 339.875 345.583 333.917L338.167 326.542C333.458 330.625 327.333 333.083 320.583 333.083Z" fill="#E9ECFF"/>
</g>
<circle cx="220" cy="220" r="60" fill="#E9ECFF"/>
<path d="M197.14 197.14L188.302 188.302V211.872H211.872L203.033 203.033C212.785 193.281 228.636 193.281 238.388 203.033C241.364 206.009 243.456 209.574 244.576 213.345L253.179 213.345C251.853 207.423 248.907 201.766 244.281 197.14C231.258 184.118 210.163 184.118 197.14 197.14ZM238.388 238.388C228.636 248.141 212.785 248.141 203.033 238.388C200.057 235.413 197.965 231.848 196.846 228.076H188.243C189.569 233.998 192.515 239.655 197.14 244.281C210.163 257.303 231.258 257.303 244.281 244.281L253.12 253.12L253.12 229.549L229.55 229.549L238.388 238.388Z" fill="#1A237E"/>
<defs>
<filter id="filter0_d_1820_533" x="214" y="218" width="184" height="184" filterUnits="userSpaceOnUse" color-interpolation-filters="sRGB">
<feFlood flood-opacity="0" result="BackgroundImageFix"/>
<feColorMatrix in="SourceAlpha" type="matrix" values="0 0 0 0 0 0 0 0 0 0 0 0 0 0 0 0 0 0 127 0" result="hardAlpha"/>
<feOffset dy="4"/>
<feGaussianBlur stdDeviation="6"/>
<feComposite in2="hardAlpha" operator="out"/>
<feColorMatrix type="matrix" values="0 0 0 0 0 0 0 0 0 0 0 0 0 0 0 0 0 0 0.12 0"/>
<feBlend mode="normal" in2="BackgroundImageFix" result="effect1_dropShadow_1820_533"/>
<feBlend mode="normal" in="SourceGraphic" in2="effect1_dropShadow_1820_533" result="shape"/>
</filter>
</defs>
</svg>
