<svg width="440" height="440" viewBox="0 0 440 440" fill="none" xmlns="http://www.w3.org/2000/svg">
<rect width="440" height="440" rx="5.86667" fill="#E9ECFF"/>
<rect x="87.4167" y="37.4167" width="265.167" height="365.167" rx="7.68939" fill="white"/>
<rect x="87.4167" y="37.4167" width="265.167" height="365.167" rx="7.68939" stroke="#D5D9DC" stroke-width="1.16667"/>
<rect x="102" y="48.0151" width="87.0909" height="35.5455" rx="2.75758" fill="#1A237E"/>
<path d="M119.789 71.2877V60.7621H121.215V71.2877H119.789ZM128.552 71.2877V67.0866C128.552 66.5406 128.381 66.0906 128.037 65.7367C127.693 65.3828 127.248 65.2059 126.702 65.2059C126.338 65.2059 126.015 65.2868 125.731 65.4486C125.448 65.6103 125.226 65.8328 125.064 66.1159C124.902 66.399 124.821 66.7226 124.821 67.0866L124.26 66.7681C124.26 66.2221 124.382 65.7367 124.624 65.3121C124.867 64.8874 125.206 64.5537 125.64 64.3111C126.075 64.0583 126.566 63.9319 127.112 63.9319C127.658 63.9319 128.138 64.0684 128.552 64.3414C128.977 64.6144 129.311 64.9733 129.553 65.4182C129.796 65.853 129.917 66.3181 129.917 66.8136V71.2877H128.552ZM123.456 71.2877V64.0836H124.821V71.2877H123.456ZM134.238 71.2877L130.931 64.0836H132.448L135.102 70.1654H134.223L136.892 64.0836H138.348L135.042 71.2877H134.238ZM142.522 71.4394C141.814 71.4394 141.177 71.2726 140.611 70.9389C140.044 70.6052 139.594 70.1553 139.261 69.5891C138.927 69.0127 138.76 68.3707 138.76 67.6629C138.76 66.9652 138.927 66.3383 139.261 65.7822C139.594 65.216 140.044 64.7661 140.611 64.4324C141.177 64.0987 141.814 63.9319 142.522 63.9319C143.219 63.9319 143.851 64.0987 144.417 64.4324C144.994 64.7559 145.449 65.2008 145.782 65.7671C146.116 66.3333 146.283 66.9652 146.283 67.6629C146.283 68.3707 146.116 69.0127 145.782 69.5891C145.449 70.1553 144.994 70.6052 144.417 70.9389C143.851 71.2726 143.219 71.4394 142.522 71.4394ZM142.522 70.1199C142.977 70.1199 143.381 70.0137 143.735 69.8014C144.089 69.5891 144.367 69.3009 144.569 68.9369C144.771 68.5628 144.872 68.1381 144.872 67.6629C144.872 67.1978 144.766 66.7832 144.554 66.4192C144.352 66.0552 144.074 65.7721 143.72 65.5699C143.376 65.3576 142.977 65.2514 142.522 65.2514C142.067 65.2514 141.662 65.3576 141.308 65.5699C140.954 65.7721 140.676 66.0552 140.474 66.4192C140.272 66.7832 140.171 67.1978 140.171 67.6629C140.171 68.1381 140.272 68.5628 140.474 68.9369C140.676 69.3009 140.954 69.5891 141.308 69.8014C141.662 70.0137 142.067 70.1199 142.522 70.1199ZM147.836 71.2877V64.0836H149.201V71.2877H147.836ZM148.519 62.6427C148.266 62.6427 148.058 62.5618 147.897 62.4001C147.735 62.2282 147.654 62.0158 147.654 61.7631C147.654 61.5204 147.735 61.3182 147.897 61.1564C148.058 60.9845 148.266 60.8986 148.519 60.8986C148.771 60.8986 148.979 60.9845 149.14 61.1564C149.302 61.3182 149.383 61.5204 149.383 61.7631C149.383 62.0158 149.302 62.2282 149.14 62.4001C148.979 62.5618 148.771 62.6427 148.519 62.6427ZM154.504 71.4394C153.796 71.4394 153.154 71.2726 152.578 70.9389C152.011 70.6052 151.561 70.1553 151.228 69.5891C150.904 69.0127 150.742 68.3757 150.742 67.6781C150.742 66.9703 150.904 66.3333 151.228 65.7671C151.561 65.2008 152.011 64.7559 152.578 64.4324C153.154 64.0987 153.796 63.9319 154.504 63.9319C155.06 63.9319 155.576 64.0381 156.051 64.2504C156.526 64.4526 156.936 64.7509 157.279 65.1452L156.369 66.0552C156.147 65.7923 155.874 65.5952 155.55 65.4637C155.237 65.3222 154.888 65.2514 154.504 65.2514C154.049 65.2514 153.644 65.3576 153.29 65.5699C152.937 65.7721 152.659 66.0552 152.456 66.4192C152.254 66.7832 152.153 67.2028 152.153 67.6781C152.153 68.1533 152.254 68.5729 152.456 68.9369C152.659 69.3009 152.937 69.5891 153.29 69.8014C153.644 70.0137 154.049 70.1199 154.504 70.1199C154.888 70.1199 155.237 70.0542 155.55 69.9227C155.874 69.7812 156.152 69.5789 156.384 69.3161L157.279 70.2261C156.946 70.6103 156.536 70.9086 156.051 71.1209C155.576 71.3332 155.06 71.4394 154.504 71.4394ZM161.822 71.4394C161.104 71.4394 160.457 71.2776 159.88 70.9541C159.304 70.6204 158.849 70.1704 158.515 69.6042C158.182 69.038 158.015 68.3959 158.015 67.6781C158.015 66.9703 158.177 66.3333 158.5 65.7671C158.834 65.2008 159.279 64.7559 159.835 64.4324C160.401 64.0987 161.033 63.9319 161.731 63.9319C162.398 63.9319 162.984 64.0836 163.49 64.3869C164.006 64.6902 164.405 65.1098 164.688 65.6457C164.981 66.1816 165.128 66.7883 165.128 67.4657C165.128 67.5668 165.123 67.6781 165.113 67.7994C165.103 67.9106 165.082 68.0421 165.052 68.1937H158.97V67.0562H164.324L163.824 67.4961C163.824 67.0107 163.738 66.6012 163.566 66.2676C163.394 65.9238 163.151 65.6609 162.838 65.4789C162.524 65.2868 162.145 65.1907 161.7 65.1907C161.235 65.1907 160.826 65.2918 160.472 65.4941C160.118 65.6963 159.845 65.9794 159.653 66.3434C159.461 66.7074 159.365 67.1371 159.365 67.6326C159.365 68.1381 159.466 68.583 159.668 68.9672C159.87 69.3413 160.158 69.6346 160.532 69.8469C160.907 70.0491 161.336 70.1502 161.822 70.1502C162.226 70.1502 162.595 70.0794 162.929 69.9379C163.273 69.7963 163.566 69.584 163.808 69.3009L164.688 70.1957C164.344 70.6002 163.92 70.9086 163.414 71.1209C162.919 71.3332 162.388 71.4394 161.822 71.4394ZM168.906 71.4394C168.502 71.4394 168.118 71.3888 167.754 71.2877C167.4 71.1765 167.071 71.0248 166.768 70.8327C166.465 70.6305 166.202 70.3929 165.979 70.1199L166.859 69.2402C167.122 69.5638 167.425 69.8064 167.769 69.9682C168.113 70.1199 168.497 70.1957 168.922 70.1957C169.346 70.1957 169.675 70.1249 169.907 69.9834C170.14 69.8317 170.256 69.6244 170.256 69.3616C170.256 69.0987 170.16 68.8964 169.968 68.7549C169.786 68.6032 169.548 68.4819 169.255 68.3909C168.962 68.2898 168.649 68.1937 168.315 68.1027C167.991 68.0016 167.683 67.8752 167.39 67.7236C167.097 67.5719 166.854 67.3646 166.662 67.1017C166.48 66.8388 166.389 66.49 166.389 66.0552C166.389 65.6204 166.495 65.2463 166.707 64.9329C166.92 64.6093 167.213 64.3616 167.587 64.1897C167.971 64.0178 168.431 63.9319 168.967 63.9319C169.533 63.9319 170.034 64.033 170.469 64.2352C170.913 64.4273 171.277 64.7206 171.561 65.1149L170.681 65.9946C170.479 65.7317 170.226 65.5294 169.923 65.3879C169.629 65.2463 169.296 65.1756 168.922 65.1756C168.527 65.1756 168.224 65.2463 168.012 65.3879C167.809 65.5193 167.708 65.7064 167.708 65.9491C167.708 66.1917 167.799 66.3788 167.981 66.5102C168.163 66.6417 168.401 66.7529 168.694 66.8439C168.997 66.9349 169.311 67.0309 169.634 67.1321C169.958 67.2231 170.266 67.3494 170.56 67.5112C170.853 67.673 171.09 67.8904 171.272 68.1634C171.465 68.4364 171.561 68.7953 171.561 69.2402C171.561 69.9177 171.318 70.4536 170.833 70.8479C170.357 71.2422 169.715 71.4394 168.906 71.4394Z" fill="#E9ECFF"/>
<rect x="202.879" y="47.8636" width="35.8485" height="35.8485" rx="2.75758" fill="#E9ECFF"/>
<path d="M224.25 59.9065L226.689 62.3452L224.25 64.784L221.811 62.3452L224.25 59.9065ZM217.649 60.3201V63.7671H214.202V60.3201H217.649ZM226.267 68.9376V72.3845H222.82V68.9376H226.267ZM217.649 68.9376V72.3845H214.202V68.9376H217.649ZM224.25 57.4678L219.373 62.3366L224.25 67.2141L229.128 62.3366L224.25 57.4678ZM219.373 58.5967H212.479V65.4906H219.373V58.5967ZM227.99 67.2141H221.096V74.108H227.99V67.2141ZM219.373 67.2141H212.479V74.108H219.373V67.2141Z" fill="#1A237E"/>
<rect x="252.515" y="47.8636" width="35.8485" height="35.8485" rx="2.75758" fill="#E9ECFF"/>
<path d="M266.992 69.2349H273.886V70.9584H266.992V69.2349ZM266.992 65.788H273.886V67.5114H266.992V65.788ZM272.163 57.1705H265.269C264.321 57.1705 263.545 57.9461 263.545 58.894V72.6819C263.545 73.6298 264.312 74.4054 265.26 74.4054H275.61C276.558 74.4054 277.333 73.6298 277.333 72.6819V62.341L272.163 57.1705ZM275.61 72.6819H265.269V58.894H271.301V63.2027H275.61V72.6819Z" fill="#1A237E"/>
<rect x="302.152" y="47.8636" width="35.8485" height="35.8485" rx="2.75758" fill="#E9ECFF"/>
<path d="M326.108 63.2027L327.185 60.8329L329.555 59.7557L327.185 58.6785L326.108 56.3087L325.031 58.6785L322.661 59.7557L325.031 60.8329L326.108 63.2027Z" fill="#1A237E"/>
<path d="M326.108 68.3731L325.031 70.7429L322.661 71.8201L325.031 72.8973L326.108 75.267L327.185 72.8973L329.555 71.8201L327.185 70.7429L326.108 68.3731Z" fill="#1A237E"/>
<path d="M319.645 63.6335L317.491 58.8939L315.336 63.6335L310.597 65.7879L315.336 67.9422L317.491 72.6818L319.645 67.9422L324.385 65.7879L319.645 63.6335ZM318.344 66.641L317.491 68.5196L316.637 66.641L314.759 65.7879L316.637 64.9348L317.491 63.0562L318.344 64.9348L320.222 65.7879L318.344 66.641Z" fill="#1A237E"/>
<rect x="102" y="99.5681" width="235.667" height="36.1667" rx="2.75758" fill="#FAFAFA"/>
<path d="M118.12 114.779C117.799 114.101 117.109 113.63 116.305 113.63H113.72V112.481H120.614V113.63H118.741C119.017 113.963 119.223 114.354 119.344 114.779H120.614V115.928H119.453C119.31 117.536 117.954 118.8 116.305 118.8H115.886L119.752 122.822H118.161L114.294 118.8V117.651H116.305C117.316 117.651 118.155 116.904 118.293 115.928H113.72V114.779H118.12Z" fill="#1A237E"/>
<path d="M131.859 121.651V113.996H132.896V121.651H131.859ZM134.703 121.651V113.996H135.431L135.74 115.199V121.651H134.703ZM139.997 121.651L135.298 115.375L135.431 113.996L140.141 120.262L139.997 121.651ZM139.997 121.651L139.688 120.515V113.996H140.725V121.651H139.997ZM143.229 118.32V117.449H145.302C145.751 117.449 146.097 117.335 146.339 117.107C146.582 116.879 146.703 116.57 146.703 116.18C146.703 115.813 146.582 115.507 146.339 115.265C146.104 115.022 145.762 114.901 145.313 114.901H143.229V113.996H145.347C145.832 113.996 146.255 114.092 146.615 114.283C146.975 114.467 147.251 114.721 147.442 115.044C147.641 115.368 147.74 115.739 147.74 116.158C147.74 116.592 147.641 116.971 147.442 117.294C147.251 117.618 146.975 117.872 146.615 118.055C146.255 118.232 145.832 118.32 145.347 118.32H143.229ZM142.534 121.651V113.996H143.571V121.651H142.534ZM146.946 121.651L144.166 118.221L145.148 117.879L148.259 121.651H146.946Z" fill="#3F4346"/>
<rect x="260.322" y="107.602" width="68.7803" height="20.0985" rx="2.46591" fill="white"/>
<rect x="260.322" y="107.602" width="68.7803" height="20.0985" rx="2.46591" stroke="#D5D9DC" stroke-width="0.583333"/>
<path d="M276.113 119.878L273.718 117.482L272.902 118.292L276.113 121.504L283.007 114.61L282.197 113.8L276.113 119.878Z" fill="#1A237E"/>
<path d="M291.555 120.652V119.94H293.151C293.576 119.94 293.948 119.849 294.268 119.667C294.588 119.48 294.836 119.223 295.013 118.898C295.195 118.572 295.286 118.197 295.286 117.773C295.286 117.354 295.195 116.981 295.013 116.656C294.831 116.33 294.58 116.077 294.26 115.895C293.94 115.713 293.571 115.622 293.151 115.622H291.563V114.91H293.168C293.587 114.91 293.973 114.982 294.326 115.125C294.685 115.269 294.993 115.47 295.253 115.729C295.517 115.989 295.721 116.292 295.865 116.639C296.014 116.987 296.088 117.367 296.088 117.781C296.088 118.189 296.014 118.57 295.865 118.923C295.721 119.27 295.52 119.573 295.261 119.833C295.002 120.092 294.693 120.293 294.334 120.437C293.981 120.58 293.598 120.652 293.185 120.652H291.555ZM291.042 120.652V114.91H291.82V120.652H291.042ZM298.853 120.734C298.462 120.734 298.109 120.646 297.794 120.47C297.48 120.288 297.232 120.042 297.05 119.733C296.868 119.424 296.777 119.074 296.777 118.683C296.777 118.297 296.865 117.949 297.042 117.64C297.224 117.331 297.466 117.089 297.77 116.912C298.078 116.73 298.423 116.639 298.804 116.639C299.168 116.639 299.488 116.722 299.763 116.888C300.045 117.053 300.262 117.282 300.417 117.574C300.577 117.866 300.657 118.197 300.657 118.567C300.657 118.622 300.654 118.683 300.648 118.749C300.643 118.81 300.632 118.881 300.615 118.964H297.298V118.344H300.218L299.945 118.583C299.945 118.319 299.898 118.095 299.805 117.913C299.711 117.726 299.579 117.582 299.408 117.483C299.237 117.378 299.03 117.326 298.787 117.326C298.533 117.326 298.31 117.381 298.117 117.491C297.924 117.602 297.775 117.756 297.67 117.955C297.565 118.153 297.513 118.388 297.513 118.658C297.513 118.934 297.568 119.176 297.679 119.386C297.789 119.59 297.946 119.75 298.15 119.866C298.354 119.976 298.589 120.031 298.853 120.031C299.074 120.031 299.275 119.993 299.457 119.915C299.645 119.838 299.805 119.722 299.937 119.568L300.417 120.056C300.229 120.277 299.998 120.445 299.722 120.561C299.452 120.676 299.162 120.734 298.853 120.734ZM301.91 120.652V116.135C301.91 115.842 301.973 115.589 302.1 115.374C302.227 115.153 302.401 114.979 302.621 114.852C302.848 114.726 303.109 114.662 303.407 114.662C303.633 114.662 303.829 114.701 303.995 114.778C304.16 114.855 304.312 114.968 304.45 115.117L303.962 115.597C303.89 115.52 303.81 115.462 303.722 115.423C303.633 115.379 303.526 115.357 303.399 115.357C303.162 115.357 302.977 115.426 302.845 115.564C302.718 115.702 302.654 115.892 302.654 116.135V120.652H301.91ZM300.942 117.4V116.722H303.904V117.4H300.942ZM306.097 120.734C305.738 120.734 305.413 120.646 305.12 120.47C304.828 120.288 304.596 120.042 304.425 119.733C304.26 119.424 304.177 119.077 304.177 118.691C304.177 118.305 304.26 117.957 304.425 117.649C304.596 117.34 304.825 117.094 305.112 116.912C305.404 116.73 305.733 116.639 306.097 116.639C306.394 116.639 306.659 116.703 306.891 116.83C307.128 116.951 307.318 117.122 307.462 117.343C307.605 117.558 307.685 117.809 307.701 118.095V119.278C307.685 119.56 307.605 119.811 307.462 120.031C307.324 120.252 307.136 120.425 306.899 120.552C306.667 120.674 306.4 120.734 306.097 120.734ZM306.221 120.031C306.59 120.031 306.888 119.907 307.114 119.659C307.34 119.405 307.453 119.083 307.453 118.691C307.453 118.421 307.401 118.186 307.296 117.988C307.197 117.784 307.053 117.627 306.866 117.516C306.678 117.4 306.461 117.343 306.212 117.343C305.964 117.343 305.744 117.4 305.551 117.516C305.363 117.632 305.214 117.792 305.104 117.996C304.999 118.195 304.947 118.423 304.947 118.683C304.947 118.947 304.999 119.182 305.104 119.386C305.214 119.584 305.366 119.742 305.559 119.857C305.752 119.973 305.972 120.031 306.221 120.031ZM307.404 120.652V119.593L307.544 118.633L307.404 117.682V116.722H308.156V120.652H307.404ZM310.82 120.734C310.501 120.734 310.211 120.663 309.952 120.519C309.698 120.37 309.5 120.166 309.356 119.907C309.213 119.648 309.141 119.347 309.141 119.005V116.722H309.886V118.972C309.886 119.187 309.922 119.375 309.993 119.535C310.07 119.689 310.181 119.808 310.324 119.891C310.468 119.973 310.636 120.015 310.829 120.015C311.121 120.015 311.35 119.924 311.515 119.742C311.681 119.554 311.764 119.298 311.764 118.972V116.722H312.508V119.005C312.508 119.347 312.436 119.648 312.293 119.907C312.15 120.166 311.951 120.37 311.697 120.519C311.449 120.663 311.157 120.734 310.82 120.734ZM313.506 120.652V114.745H314.251V120.652H313.506ZM315.944 120.652V115.076H316.688V120.652H315.944ZM314.976 117.4V116.722H317.656V117.4H314.976Z" fill="#1A237E"/>
<rect x="102" y="142.629" width="235.667" height="36.1667" rx="2.75758" fill="#FAFAFA"/>
<path d="M118.028 155.542H114.294V160.712H113.145V161.861H114.294V163.01H113.145V164.159H114.294V165.882H115.443V164.159H117.741V163.01H115.443V161.861H118.028C119.775 161.861 121.188 160.448 121.188 158.701C121.188 156.955 119.775 155.542 118.028 155.542ZM118.028 160.712H115.443V156.69H118.028C119.137 156.69 120.039 157.592 120.039 158.701C120.039 159.81 119.137 160.712 118.028 160.712Z" fill="#1A237E"/>
<path d="M132.554 161.381V160.51H134.628C135.076 160.51 135.422 160.396 135.665 160.168C135.907 159.94 136.029 159.631 136.029 159.241C136.029 158.873 135.907 158.568 135.665 158.326C135.429 158.083 135.087 157.962 134.639 157.962H132.554V157.057H134.672C135.157 157.057 135.58 157.153 135.94 157.344C136.301 157.528 136.576 157.781 136.768 158.105C136.966 158.429 137.065 158.8 137.065 159.219C137.065 159.653 136.966 160.032 136.768 160.355C136.576 160.679 136.301 160.932 135.94 161.116C135.58 161.293 135.157 161.381 134.672 161.381H132.554ZM131.859 164.712V157.057H132.896V164.712H131.859ZM136.271 164.712L133.492 161.282L134.473 160.94L137.584 164.712H136.271ZM141.502 164.822C140.936 164.822 140.429 164.697 139.98 164.447C139.539 164.19 139.19 163.841 138.932 163.4C138.675 162.951 138.546 162.444 138.546 161.877V157.057H139.583V161.855C139.583 162.26 139.668 162.609 139.837 162.903C140.006 163.197 140.234 163.425 140.521 163.587C140.815 163.749 141.142 163.83 141.502 163.83C141.877 163.83 142.205 163.749 142.484 163.587C142.771 163.425 142.995 163.197 143.157 162.903C143.326 162.609 143.411 162.263 143.411 161.866V157.057H144.459V161.888C144.459 162.455 144.33 162.958 144.072 163.4C143.815 163.841 143.466 164.19 143.025 164.447C142.583 164.697 142.076 164.822 141.502 164.822ZM146.859 164.712V163.808H149.175C149.616 163.808 149.962 163.679 150.212 163.422C150.462 163.157 150.587 162.841 150.587 162.473C150.587 162.223 150.532 161.999 150.422 161.8C150.311 161.594 150.15 161.432 149.936 161.315C149.73 161.197 149.488 161.138 149.208 161.138H146.859V160.234H149.054C149.422 160.234 149.712 160.138 149.925 159.947C150.146 159.749 150.256 159.465 150.256 159.098C150.256 158.73 150.142 158.451 149.914 158.259C149.686 158.061 149.385 157.962 149.01 157.962H146.859V157.057H149.032C149.532 157.057 149.947 157.149 150.278 157.333C150.617 157.509 150.87 157.745 151.039 158.039C151.216 158.333 151.304 158.657 151.304 159.009C151.304 159.421 151.19 159.782 150.962 160.09C150.742 160.399 150.414 160.642 149.98 160.818L150.069 160.488C150.561 160.664 150.944 160.932 151.216 161.293C151.495 161.646 151.635 162.065 151.635 162.55C151.635 162.955 151.536 163.319 151.337 163.642C151.139 163.966 150.852 164.227 150.477 164.425C150.109 164.617 149.657 164.712 149.12 164.712H146.859ZM146.164 164.712V157.057H147.201V164.712H146.164Z" fill="#3F4346"/>
<rect x="255.625" y="151.087" width="73.4773" height="19.25" rx="2.46591" fill="white"/>
<rect x="255.625" y="151.087" width="73.4773" height="19.25" rx="2.46591" stroke="#D5D9DC" stroke-width="0.583333"/>
<path d="M268.639 163.795C268.187 163.795 267.8 163.712 267.481 163.547C267.161 163.381 266.877 163.141 266.628 162.827L267.158 162.298C267.34 162.551 267.55 162.744 267.787 162.877C268.024 163.003 268.316 163.067 268.664 163.067C269.006 163.067 269.279 162.992 269.483 162.844C269.692 162.695 269.797 162.491 269.797 162.231C269.797 162.016 269.747 161.843 269.648 161.71C269.549 161.578 269.414 161.47 269.243 161.388C269.077 161.299 268.895 161.222 268.697 161.156C268.498 161.084 268.3 161.01 268.101 160.933C267.902 160.85 267.72 160.751 267.555 160.635C267.39 160.513 267.254 160.356 267.15 160.163C267.05 159.97 267.001 159.727 267.001 159.435C267.001 159.11 267.078 158.834 267.232 158.608C267.392 158.376 267.607 158.2 267.878 158.078C268.153 157.952 268.462 157.888 268.804 157.888C269.179 157.888 269.516 157.963 269.813 158.112C270.111 158.255 270.354 158.445 270.541 158.682L270.012 159.212C269.841 159.013 269.656 158.864 269.458 158.765C269.265 158.666 269.041 158.616 268.788 158.616C268.479 158.616 268.233 158.685 268.051 158.823C267.869 158.955 267.778 159.143 267.778 159.386C267.778 159.579 267.828 159.736 267.927 159.857C268.032 159.973 268.167 160.072 268.333 160.155C268.498 160.238 268.68 160.315 268.879 160.387C269.083 160.453 269.284 160.527 269.483 160.61C269.681 160.693 269.863 160.797 270.029 160.924C270.194 161.051 270.326 161.217 270.426 161.421C270.53 161.619 270.583 161.87 270.583 162.173C270.583 162.681 270.406 163.078 270.053 163.365C269.706 163.651 269.234 163.795 268.639 163.795ZM273.262 163.795C272.87 163.795 272.517 163.707 272.203 163.53C271.889 163.348 271.641 163.103 271.459 162.794C271.277 162.485 271.186 162.135 271.186 161.743C271.186 161.357 271.274 161.01 271.45 160.701C271.632 160.392 271.875 160.149 272.178 159.973C272.487 159.791 272.832 159.7 273.212 159.7C273.576 159.7 273.896 159.783 274.172 159.948C274.453 160.114 274.671 160.342 274.826 160.635C274.985 160.927 275.065 161.258 275.065 161.627C275.065 161.683 275.063 161.743 275.057 161.809C275.052 161.87 275.041 161.942 275.024 162.025H271.707V161.404H274.627L274.354 161.644C274.354 161.379 274.307 161.156 274.213 160.974C274.12 160.786 273.987 160.643 273.816 160.544C273.645 160.439 273.438 160.387 273.196 160.387C272.942 160.387 272.719 160.442 272.526 160.552C272.333 160.662 272.184 160.817 272.079 161.015C271.974 161.214 271.922 161.448 271.922 161.718C271.922 161.994 271.977 162.237 272.087 162.446C272.198 162.65 272.355 162.81 272.559 162.926C272.763 163.037 272.997 163.092 273.262 163.092C273.483 163.092 273.684 163.053 273.866 162.976C274.053 162.899 274.213 162.783 274.346 162.628L274.826 163.117C274.638 163.337 274.406 163.505 274.131 163.621C273.86 163.737 273.571 163.795 273.262 163.795ZM276.36 163.712V158.136H277.105V163.712H276.36ZM275.392 160.461V159.783H278.072V160.461H275.392ZM282.194 163.795C281.835 163.795 281.51 163.707 281.218 163.53C280.925 163.348 280.694 163.103 280.523 162.794C280.357 162.485 280.274 162.138 280.274 161.752C280.274 161.365 280.357 161.018 280.523 160.709C280.694 160.4 280.922 160.155 281.209 159.973C281.502 159.791 281.83 159.7 282.194 159.7C282.492 159.7 282.756 159.763 282.988 159.89C283.225 160.011 283.415 160.182 283.559 160.403C283.702 160.618 283.782 160.869 283.799 161.156V162.339C283.782 162.62 283.702 162.871 283.559 163.092C283.421 163.312 283.233 163.486 282.996 163.613C282.765 163.734 282.497 163.795 282.194 163.795ZM282.318 163.092C282.687 163.092 282.985 162.968 283.211 162.719C283.437 162.466 283.55 162.143 283.55 161.752C283.55 161.481 283.498 161.247 283.393 161.048C283.294 160.844 283.151 160.687 282.963 160.577C282.776 160.461 282.558 160.403 282.31 160.403C282.061 160.403 281.841 160.461 281.648 160.577C281.46 160.693 281.311 160.853 281.201 161.057C281.096 161.255 281.044 161.484 281.044 161.743C281.044 162.008 281.096 162.242 281.201 162.446C281.311 162.645 281.463 162.802 281.656 162.918C281.849 163.034 282.07 163.092 282.318 163.092ZM283.501 163.712V162.653L283.641 161.694L283.501 160.742V159.783H284.254V163.712H283.501ZM286.587 163.795C286.366 163.795 286.157 163.767 285.958 163.712C285.765 163.651 285.586 163.569 285.42 163.464C285.255 163.354 285.111 163.224 284.99 163.075L285.47 162.595C285.613 162.772 285.779 162.904 285.966 162.992C286.154 163.075 286.363 163.117 286.595 163.117C286.827 163.117 287.006 163.078 287.133 163.001C287.26 162.918 287.323 162.805 287.323 162.662C287.323 162.518 287.271 162.408 287.166 162.331C287.067 162.248 286.937 162.182 286.777 162.132C286.617 162.077 286.446 162.025 286.264 161.975C286.088 161.92 285.919 161.851 285.76 161.768C285.6 161.685 285.467 161.572 285.362 161.429C285.263 161.285 285.214 161.095 285.214 160.858C285.214 160.621 285.271 160.417 285.387 160.246C285.503 160.069 285.663 159.934 285.867 159.841C286.077 159.747 286.328 159.7 286.62 159.7C286.929 159.7 287.202 159.755 287.439 159.865C287.682 159.97 287.88 160.13 288.035 160.345L287.555 160.825C287.444 160.682 287.307 160.571 287.141 160.494C286.981 160.417 286.799 160.378 286.595 160.378C286.38 160.378 286.215 160.417 286.099 160.494C285.988 160.566 285.933 160.668 285.933 160.8C285.933 160.933 285.983 161.035 286.082 161.106C286.181 161.178 286.311 161.239 286.471 161.288C286.636 161.338 286.807 161.39 286.984 161.445C287.16 161.495 287.329 161.564 287.489 161.652C287.648 161.74 287.778 161.859 287.877 162.008C287.982 162.157 288.035 162.353 288.035 162.595C288.035 162.965 287.902 163.257 287.637 163.472C287.378 163.687 287.028 163.795 286.587 163.795ZM291.234 163.712V163.001H292.831C293.255 163.001 293.628 162.91 293.948 162.728C294.267 162.54 294.516 162.284 294.692 161.958C294.874 161.633 294.965 161.258 294.965 160.833C294.965 160.414 294.874 160.042 294.692 159.716C294.51 159.391 294.259 159.137 293.939 158.955C293.619 158.773 293.25 158.682 292.831 158.682H291.242V157.971H292.847C293.266 157.971 293.653 158.043 294.005 158.186C294.364 158.329 294.673 158.531 294.932 158.79C295.197 159.049 295.401 159.352 295.544 159.7C295.693 160.047 295.768 160.428 295.768 160.842C295.768 161.25 295.693 161.63 295.544 161.983C295.401 162.331 295.2 162.634 294.94 162.893C294.681 163.152 294.372 163.354 294.014 163.497C293.661 163.64 293.277 163.712 292.864 163.712H291.234ZM290.721 163.712V157.971H291.499V163.712H290.721ZM298.533 163.795C298.141 163.795 297.788 163.707 297.474 163.53C297.159 163.348 296.911 163.103 296.729 162.794C296.547 162.485 296.456 162.135 296.456 161.743C296.456 161.357 296.544 161.01 296.721 160.701C296.903 160.392 297.146 160.149 297.449 159.973C297.758 159.791 298.102 159.7 298.483 159.7C298.847 159.7 299.167 159.783 299.443 159.948C299.724 160.114 299.942 160.342 300.096 160.635C300.256 160.927 300.336 161.258 300.336 161.627C300.336 161.683 300.333 161.743 300.328 161.809C300.322 161.87 300.311 161.942 300.295 162.025H296.977V161.404H299.898L299.625 161.644C299.625 161.379 299.578 161.156 299.484 160.974C299.39 160.786 299.258 160.643 299.087 160.544C298.916 160.439 298.709 160.387 298.466 160.387C298.213 160.387 297.989 160.442 297.796 160.552C297.603 160.662 297.454 160.817 297.35 161.015C297.245 161.214 297.192 161.448 297.192 161.718C297.192 161.994 297.248 162.237 297.358 162.446C297.468 162.65 297.625 162.81 297.829 162.926C298.033 163.037 298.268 163.092 298.533 163.092C298.753 163.092 298.955 163.053 299.137 162.976C299.324 162.899 299.484 162.783 299.616 162.628L300.096 163.117C299.909 163.337 299.677 163.505 299.401 163.621C299.131 163.737 298.841 163.795 298.533 163.795ZM301.589 163.712V159.195C301.589 158.903 301.653 158.649 301.78 158.434C301.906 158.214 302.08 158.04 302.301 157.913C302.527 157.786 302.789 157.723 303.087 157.723C303.313 157.723 303.509 157.761 303.674 157.839C303.839 157.916 303.991 158.029 304.129 158.178L303.641 158.658C303.569 158.58 303.489 158.522 303.401 158.484C303.313 158.44 303.205 158.418 303.078 158.418C302.841 158.418 302.656 158.487 302.524 158.624C302.397 158.762 302.334 158.953 302.334 159.195V163.712H301.589ZM300.621 160.461V159.783H303.583V160.461H300.621ZM305.776 163.795C305.417 163.795 305.092 163.707 304.8 163.53C304.507 163.348 304.276 163.103 304.105 162.794C303.939 162.485 303.857 162.138 303.857 161.752C303.857 161.365 303.939 161.018 304.105 160.709C304.276 160.4 304.505 160.155 304.791 159.973C305.084 159.791 305.412 159.7 305.776 159.7C306.074 159.7 306.338 159.763 306.57 159.89C306.807 160.011 306.997 160.182 307.141 160.403C307.284 160.618 307.364 160.869 307.381 161.156V162.339C307.364 162.62 307.284 162.871 307.141 163.092C307.003 163.312 306.815 163.486 306.578 163.613C306.347 163.734 306.079 163.795 305.776 163.795ZM305.9 163.092C306.269 163.092 306.567 162.968 306.793 162.719C307.019 162.466 307.133 162.143 307.133 161.752C307.133 161.481 307.08 161.247 306.975 161.048C306.876 160.844 306.733 160.687 306.545 160.577C306.358 160.461 306.14 160.403 305.892 160.403C305.643 160.403 305.423 160.461 305.23 160.577C305.042 160.693 304.893 160.853 304.783 161.057C304.678 161.255 304.626 161.484 304.626 161.743C304.626 162.008 304.678 162.242 304.783 162.446C304.893 162.645 305.045 162.802 305.238 162.918C305.431 163.034 305.652 163.092 305.9 163.092ZM307.083 163.712V162.653L307.224 161.694L307.083 160.742V159.783H307.836V163.712H307.083ZM310.5 163.795C310.18 163.795 309.89 163.723 309.631 163.58C309.377 163.431 309.179 163.227 309.036 162.968C308.892 162.708 308.82 162.408 308.82 162.066V159.783H309.565V162.033C309.565 162.248 309.601 162.435 309.673 162.595C309.75 162.75 309.86 162.868 310.003 162.951C310.147 163.034 310.315 163.075 310.508 163.075C310.8 163.075 311.029 162.984 311.195 162.802C311.36 162.615 311.443 162.358 311.443 162.033V159.783H312.187V162.066C312.187 162.408 312.116 162.708 311.972 162.968C311.829 163.227 311.63 163.431 311.377 163.58C311.129 163.723 310.836 163.795 310.5 163.795ZM313.185 163.712V157.805H313.93V163.712H313.185ZM315.623 163.712V158.136H316.368V163.712H315.623ZM314.655 160.461V159.783H317.336V160.461H314.655Z" fill="#1A237E"/>
<rect x="102" y="185.689" width="235.667" height="36.1667" rx="2.75758" fill="#FAFAFA"/>
<path d="M117.391 203.141C116.087 202.802 115.667 202.451 115.667 201.905C115.667 201.279 116.248 200.843 117.218 200.843C118.241 200.843 118.62 201.331 118.655 202.049H119.924C119.884 201.061 119.281 200.153 118.08 199.86V198.602H116.357V199.843C115.242 200.084 114.346 200.808 114.346 201.917C114.346 203.244 115.443 203.905 117.046 204.29C118.482 204.634 118.77 205.14 118.77 205.674C118.77 206.07 118.488 206.702 117.218 206.702C116.035 206.702 115.57 206.174 115.506 205.496H114.243C114.311 206.754 115.254 207.461 116.357 207.696V208.943H118.08V207.708C119.2 207.495 120.091 206.846 120.091 205.668C120.091 204.037 118.695 203.48 117.391 203.141Z" fill="#1A237E"/>
<path d="M134.727 207.883C134.161 207.883 133.653 207.758 133.205 207.508C132.764 207.251 132.414 206.901 132.157 206.46C131.9 206.012 131.771 205.504 131.771 204.938V200.118H132.808V204.916C132.808 205.32 132.892 205.67 133.061 205.964C133.231 206.258 133.458 206.486 133.745 206.648C134.039 206.809 134.367 206.89 134.727 206.89C135.102 206.89 135.429 206.809 135.709 206.648C135.995 206.486 136.22 206.258 136.381 205.964C136.551 205.67 136.635 205.324 136.635 204.927V200.118H137.683V204.949C137.683 205.515 137.554 206.019 137.297 206.46C137.04 206.901 136.69 207.251 136.249 207.508C135.808 207.758 135.301 207.883 134.727 207.883ZM141.431 207.883C140.828 207.883 140.313 207.773 139.887 207.552C139.46 207.331 139.082 207.012 138.751 206.592L139.457 205.887C139.699 206.225 139.979 206.482 140.295 206.659C140.611 206.828 141.001 206.912 141.464 206.912C141.92 206.912 142.284 206.813 142.556 206.615C142.836 206.416 142.975 206.144 142.975 205.798C142.975 205.511 142.909 205.28 142.777 205.103C142.645 204.927 142.464 204.783 142.236 204.673C142.016 204.556 141.773 204.453 141.508 204.364C141.244 204.269 140.979 204.169 140.714 204.067C140.45 203.956 140.207 203.824 139.986 203.669C139.766 203.508 139.585 203.298 139.446 203.041C139.313 202.783 139.247 202.46 139.247 202.07C139.247 201.636 139.35 201.269 139.556 200.967C139.769 200.658 140.056 200.423 140.416 200.261C140.784 200.092 141.196 200.007 141.652 200.007C142.152 200.007 142.6 200.107 142.998 200.305C143.395 200.496 143.718 200.75 143.968 201.066L143.262 201.772C143.034 201.507 142.788 201.309 142.523 201.177C142.266 201.044 141.968 200.978 141.63 200.978C141.218 200.978 140.891 201.07 140.648 201.254C140.405 201.43 140.284 201.68 140.284 202.004C140.284 202.261 140.35 202.471 140.483 202.633C140.622 202.787 140.802 202.919 141.023 203.03C141.244 203.14 141.486 203.243 141.751 203.339C142.023 203.427 142.292 203.526 142.556 203.636C142.821 203.747 143.064 203.886 143.284 204.055C143.505 204.225 143.681 204.445 143.814 204.717C143.953 204.982 144.023 205.317 144.023 205.721C144.023 206.398 143.788 206.927 143.317 207.309C142.854 207.692 142.225 207.883 141.431 207.883ZM146.105 207.773V206.824H148.233C148.8 206.824 149.296 206.703 149.723 206.46C150.149 206.21 150.48 205.868 150.715 205.434C150.958 205 151.079 204.5 151.079 203.934C151.079 203.375 150.958 202.879 150.715 202.445C150.473 202.011 150.138 201.673 149.712 201.43C149.285 201.188 148.792 201.066 148.233 201.066H146.116V200.118H148.256C148.814 200.118 149.329 200.213 149.8 200.404C150.278 200.596 150.69 200.864 151.035 201.21C151.388 201.555 151.66 201.96 151.851 202.423C152.05 202.886 152.149 203.394 152.149 203.945C152.149 204.489 152.05 204.997 151.851 205.467C151.66 205.931 151.392 206.335 151.046 206.681C150.701 207.026 150.289 207.295 149.811 207.486C149.34 207.677 148.829 207.773 148.278 207.773H146.105ZM145.421 207.773V200.118H146.458V207.773H145.421Z" fill="#3F4346"/>
<rect x="255.625" y="194.148" width="73.4773" height="19.25" rx="2.46591" fill="white"/>
<rect x="255.625" y="194.148" width="73.4773" height="19.25" rx="2.46591" stroke="#D5D9DC" stroke-width="0.583333"/>
<path d="M268.639 206.855C268.187 206.855 267.8 206.773 267.481 206.607C267.161 206.442 266.877 206.202 266.628 205.888L267.158 205.358C267.34 205.612 267.55 205.805 267.787 205.937C268.024 206.064 268.316 206.127 268.664 206.127C269.006 206.127 269.279 206.053 269.483 205.904C269.692 205.755 269.797 205.551 269.797 205.292C269.797 205.077 269.747 204.903 269.648 204.771C269.549 204.638 269.414 204.531 269.243 204.448C269.077 204.36 268.895 204.283 268.697 204.216C268.498 204.145 268.3 204.07 268.101 203.993C267.902 203.91 267.72 203.811 267.555 203.695C267.39 203.574 267.254 203.417 267.15 203.224C267.05 203.031 267.001 202.788 267.001 202.496C267.001 202.17 267.078 201.895 267.232 201.668C267.392 201.437 267.607 201.26 267.878 201.139C268.153 201.012 268.462 200.949 268.804 200.949C269.179 200.949 269.516 201.023 269.813 201.172C270.111 201.315 270.354 201.506 270.541 201.743L270.012 202.272C269.841 202.074 269.656 201.925 269.458 201.826C269.265 201.726 269.041 201.677 268.788 201.677C268.479 201.677 268.233 201.746 268.051 201.884C267.869 202.016 267.778 202.203 267.778 202.446C267.778 202.639 267.828 202.796 267.927 202.918C268.032 203.033 268.167 203.133 268.333 203.215C268.498 203.298 268.68 203.375 268.879 203.447C269.083 203.513 269.284 203.588 269.483 203.67C269.681 203.753 269.863 203.858 270.029 203.985C270.194 204.112 270.326 204.277 270.426 204.481C270.53 204.68 270.583 204.931 270.583 205.234C270.583 205.741 270.406 206.138 270.053 206.425C269.706 206.712 269.234 206.855 268.639 206.855ZM273.262 206.855C272.87 206.855 272.517 206.767 272.203 206.591C271.889 206.409 271.641 206.163 271.459 205.854C271.277 205.546 271.186 205.195 271.186 204.804C271.186 204.418 271.274 204.07 271.45 203.761C271.632 203.453 271.875 203.21 272.178 203.033C272.487 202.851 272.832 202.76 273.212 202.76C273.576 202.76 273.896 202.843 274.172 203.009C274.453 203.174 274.671 203.403 274.826 203.695C274.985 203.988 275.065 204.318 275.065 204.688C275.065 204.743 275.063 204.804 275.057 204.87C275.052 204.931 275.041 205.002 275.024 205.085H271.707V204.465H274.627L274.354 204.705C274.354 204.44 274.307 204.216 274.213 204.034C274.12 203.847 273.987 203.704 273.816 203.604C273.645 203.499 273.438 203.447 273.196 203.447C272.942 203.447 272.719 203.502 272.526 203.613C272.333 203.723 272.184 203.877 272.079 204.076C271.974 204.274 271.922 204.509 271.922 204.779C271.922 205.055 271.977 205.297 272.087 205.507C272.198 205.711 272.355 205.871 272.559 205.987C272.763 206.097 272.997 206.152 273.262 206.152C273.483 206.152 273.684 206.114 273.866 206.036C274.053 205.959 274.213 205.843 274.346 205.689L274.826 206.177C274.638 206.398 274.406 206.566 274.131 206.682C273.86 206.798 273.571 206.855 273.262 206.855ZM276.36 206.773V201.197H277.105V206.773H276.36ZM275.392 203.522V202.843H278.072V203.522H275.392ZM282.194 206.855C281.835 206.855 281.51 206.767 281.218 206.591C280.925 206.409 280.694 206.163 280.523 205.854C280.357 205.546 280.274 205.198 280.274 204.812C280.274 204.426 280.357 204.079 280.523 203.77C280.694 203.461 280.922 203.215 281.209 203.033C281.502 202.851 281.83 202.76 282.194 202.76C282.492 202.76 282.756 202.824 282.988 202.951C283.225 203.072 283.415 203.243 283.559 203.464C283.702 203.679 283.782 203.93 283.799 204.216V205.399C283.782 205.681 283.702 205.932 283.559 206.152C283.421 206.373 283.233 206.547 282.996 206.673C282.765 206.795 282.497 206.855 282.194 206.855ZM282.318 206.152C282.687 206.152 282.985 206.028 283.211 205.78C283.437 205.526 283.55 205.204 283.55 204.812C283.55 204.542 283.498 204.307 283.393 204.109C283.294 203.905 283.151 203.748 282.963 203.637C282.776 203.522 282.558 203.464 282.31 203.464C282.061 203.464 281.841 203.522 281.648 203.637C281.46 203.753 281.311 203.913 281.201 204.117C281.096 204.316 281.044 204.545 281.044 204.804C281.044 205.069 281.096 205.303 281.201 205.507C281.311 205.706 281.463 205.863 281.656 205.979C281.849 206.094 282.07 206.152 282.318 206.152ZM283.501 206.773V205.714L283.641 204.754L283.501 203.803V202.843H284.254V206.773H283.501ZM286.587 206.855C286.366 206.855 286.157 206.828 285.958 206.773C285.765 206.712 285.586 206.629 285.42 206.525C285.255 206.414 285.111 206.285 284.99 206.136L285.47 205.656C285.613 205.832 285.779 205.965 285.966 206.053C286.154 206.136 286.363 206.177 286.595 206.177C286.827 206.177 287.006 206.138 287.133 206.061C287.26 205.979 287.323 205.865 287.323 205.722C287.323 205.579 287.271 205.468 287.166 205.391C287.067 205.308 286.937 205.242 286.777 205.193C286.617 205.137 286.446 205.085 286.264 205.035C286.088 204.98 285.919 204.911 285.76 204.829C285.6 204.746 285.467 204.633 285.362 204.489C285.263 204.346 285.214 204.156 285.214 203.919C285.214 203.681 285.271 203.477 285.387 203.306C285.503 203.13 285.663 202.995 285.867 202.901C286.077 202.807 286.328 202.76 286.62 202.76C286.929 202.76 287.202 202.816 287.439 202.926C287.682 203.031 287.88 203.191 288.035 203.406L287.555 203.886C287.444 203.742 287.307 203.632 287.141 203.555C286.981 203.477 286.799 203.439 286.595 203.439C286.38 203.439 286.215 203.477 286.099 203.555C285.988 203.626 285.933 203.728 285.933 203.861C285.933 203.993 285.983 204.095 286.082 204.167C286.181 204.238 286.311 204.299 286.471 204.349C286.636 204.398 286.807 204.451 286.984 204.506C287.16 204.556 287.329 204.625 287.489 204.713C287.648 204.801 287.778 204.92 287.877 205.069C287.982 205.217 288.035 205.413 288.035 205.656C288.035 206.025 287.902 206.318 287.637 206.533C287.378 206.748 287.028 206.855 286.587 206.855ZM291.234 206.773V206.061H292.831C293.255 206.061 293.628 205.97 293.948 205.788C294.267 205.601 294.516 205.344 294.692 205.019C294.874 204.693 294.965 204.318 294.965 203.894C294.965 203.475 294.874 203.102 294.692 202.777C294.51 202.452 294.259 202.198 293.939 202.016C293.619 201.834 293.25 201.743 292.831 201.743H291.242V201.031H292.847C293.266 201.031 293.653 201.103 294.005 201.247C294.364 201.39 294.673 201.591 294.932 201.85C295.197 202.11 295.401 202.413 295.544 202.76C295.693 203.108 295.768 203.488 295.768 203.902C295.768 204.31 295.693 204.691 295.544 205.044C295.401 205.391 295.2 205.694 294.94 205.954C294.681 206.213 294.372 206.414 294.014 206.558C293.661 206.701 293.277 206.773 292.864 206.773H291.234ZM290.721 206.773V201.031H291.499V206.773H290.721ZM298.533 206.855C298.141 206.855 297.788 206.767 297.474 206.591C297.159 206.409 296.911 206.163 296.729 205.854C296.547 205.546 296.456 205.195 296.456 204.804C296.456 204.418 296.544 204.07 296.721 203.761C296.903 203.453 297.146 203.21 297.449 203.033C297.758 202.851 298.102 202.76 298.483 202.76C298.847 202.76 299.167 202.843 299.443 203.009C299.724 203.174 299.942 203.403 300.096 203.695C300.256 203.988 300.336 204.318 300.336 204.688C300.336 204.743 300.333 204.804 300.328 204.87C300.322 204.931 300.311 205.002 300.295 205.085H296.977V204.465H299.898L299.625 204.705C299.625 204.44 299.578 204.216 299.484 204.034C299.39 203.847 299.258 203.704 299.087 203.604C298.916 203.499 298.709 203.447 298.466 203.447C298.213 203.447 297.989 203.502 297.796 203.613C297.603 203.723 297.454 203.877 297.35 204.076C297.245 204.274 297.192 204.509 297.192 204.779C297.192 205.055 297.248 205.297 297.358 205.507C297.468 205.711 297.625 205.871 297.829 205.987C298.033 206.097 298.268 206.152 298.533 206.152C298.753 206.152 298.955 206.114 299.137 206.036C299.324 205.959 299.484 205.843 299.616 205.689L300.096 206.177C299.909 206.398 299.677 206.566 299.401 206.682C299.131 206.798 298.841 206.855 298.533 206.855ZM301.589 206.773V202.256C301.589 201.963 301.653 201.71 301.78 201.495C301.906 201.274 302.08 201.1 302.301 200.974C302.527 200.847 302.789 200.783 303.087 200.783C303.313 200.783 303.509 200.822 303.674 200.899C303.839 200.976 303.991 201.089 304.129 201.238L303.641 201.718C303.569 201.641 303.489 201.583 303.401 201.544C303.313 201.5 303.205 201.478 303.078 201.478C302.841 201.478 302.656 201.547 302.524 201.685C302.397 201.823 302.334 202.013 302.334 202.256V206.773H301.589ZM300.621 203.522V202.843H303.583V203.522H300.621ZM305.776 206.855C305.417 206.855 305.092 206.767 304.8 206.591C304.507 206.409 304.276 206.163 304.105 205.854C303.939 205.546 303.857 205.198 303.857 204.812C303.857 204.426 303.939 204.079 304.105 203.77C304.276 203.461 304.505 203.215 304.791 203.033C305.084 202.851 305.412 202.76 305.776 202.76C306.074 202.76 306.338 202.824 306.57 202.951C306.807 203.072 306.997 203.243 307.141 203.464C307.284 203.679 307.364 203.93 307.381 204.216V205.399C307.364 205.681 307.284 205.932 307.141 206.152C307.003 206.373 306.815 206.547 306.578 206.673C306.347 206.795 306.079 206.855 305.776 206.855ZM305.9 206.152C306.269 206.152 306.567 206.028 306.793 205.78C307.019 205.526 307.133 205.204 307.133 204.812C307.133 204.542 307.08 204.307 306.975 204.109C306.876 203.905 306.733 203.748 306.545 203.637C306.358 203.522 306.14 203.464 305.892 203.464C305.643 203.464 305.423 203.522 305.23 203.637C305.042 203.753 304.893 203.913 304.783 204.117C304.678 204.316 304.626 204.545 304.626 204.804C304.626 205.069 304.678 205.303 304.783 205.507C304.893 205.706 305.045 205.863 305.238 205.979C305.431 206.094 305.652 206.152 305.9 206.152ZM307.083 206.773V205.714L307.224 204.754L307.083 203.803V202.843H307.836V206.773H307.083ZM310.5 206.855C310.18 206.855 309.89 206.784 309.631 206.64C309.377 206.491 309.179 206.287 309.036 206.028C308.892 205.769 308.82 205.468 308.82 205.126V202.843H309.565V205.093C309.565 205.308 309.601 205.496 309.673 205.656C309.75 205.81 309.86 205.929 310.003 206.012C310.147 206.094 310.315 206.136 310.508 206.136C310.8 206.136 311.029 206.045 311.195 205.863C311.36 205.675 311.443 205.419 311.443 205.093V202.843H312.187V205.126C312.187 205.468 312.116 205.769 311.972 206.028C311.829 206.287 311.63 206.491 311.377 206.64C311.129 206.784 310.836 206.855 310.5 206.855ZM313.185 206.773V200.866H313.93V206.773H313.185ZM315.623 206.773V201.197H316.368V206.773H315.623ZM314.655 203.522V202.843H317.336V203.522H314.655Z" fill="#1A237E"/>
<rect x="102" y="228.75" width="235.667" height="36.1667" rx="2.75758" fill="#FAFAFA"/>
<path d="M118.316 252.147C119.425 252.147 120.395 251.475 120.614 250.424L119.608 249.918C119.465 250.544 119.08 250.998 118.316 250.998H115.501C115.978 250.424 116.363 249.654 116.363 248.7C116.363 248.499 116.345 248.304 116.317 248.126H118.316V246.977H115.914C115.443 246.069 114.869 245.598 114.869 244.679C114.869 243.57 115.771 242.668 116.88 242.668C117.741 242.668 118.482 243.214 118.764 243.978L119.827 243.53C119.367 242.352 118.224 241.519 116.88 241.519C115.133 241.519 113.72 242.932 113.72 244.679C113.72 245.701 114.174 246.345 114.576 246.977H113.72V248.126H115.139C115.185 248.304 115.214 248.493 115.214 248.7C115.214 250.251 113.72 250.998 113.72 250.998V252.147H118.316Z" fill="#1A237E"/>
<path d="M135.323 250.944C134.786 250.944 134.282 250.844 133.811 250.646C133.348 250.44 132.94 250.157 132.587 249.796C132.241 249.436 131.969 249.017 131.771 248.539C131.572 248.061 131.473 247.546 131.473 246.995C131.473 246.443 131.572 245.932 131.771 245.461C131.969 244.984 132.245 244.564 132.598 244.204C132.951 243.844 133.363 243.564 133.833 243.366C134.311 243.167 134.83 243.068 135.389 243.068C135.999 243.068 136.562 243.186 137.076 243.421C137.591 243.656 138.021 243.994 138.367 244.436L137.65 245.153C137.407 244.8 137.087 244.531 136.69 244.347C136.293 244.156 135.859 244.061 135.389 244.061C134.83 244.061 134.334 244.186 133.9 244.436C133.473 244.686 133.139 245.031 132.896 245.473C132.661 245.914 132.543 246.421 132.543 246.995C132.543 247.576 132.664 248.087 132.907 248.528C133.15 248.969 133.477 249.315 133.889 249.565C134.3 249.815 134.771 249.94 135.301 249.94C135.837 249.94 136.301 249.837 136.69 249.631C137.087 249.425 137.393 249.124 137.606 248.726C137.819 248.322 137.926 247.829 137.926 247.248L138.554 247.701H135.245V246.752H138.996V246.906C138.996 247.796 138.838 248.543 138.521 249.146C138.213 249.741 137.779 250.19 137.22 250.491C136.668 250.793 136.036 250.944 135.323 250.944ZM141.085 250.833V249.929H143.402C143.843 249.929 144.188 249.8 144.438 249.543C144.688 249.278 144.813 248.962 144.813 248.594C144.813 248.344 144.758 248.12 144.648 247.921C144.538 247.715 144.376 247.554 144.163 247.436C143.957 247.318 143.714 247.259 143.435 247.259H141.085V246.355H143.28C143.648 246.355 143.938 246.259 144.152 246.068C144.372 245.87 144.483 245.587 144.483 245.219C144.483 244.851 144.369 244.572 144.141 244.381C143.913 244.182 143.611 244.083 143.236 244.083H141.085V243.178H143.258C143.758 243.178 144.174 243.27 144.505 243.454C144.843 243.63 145.097 243.866 145.266 244.16C145.442 244.454 145.53 244.778 145.53 245.131C145.53 245.542 145.416 245.903 145.189 246.212C144.968 246.52 144.641 246.763 144.207 246.94L144.295 246.609C144.788 246.785 145.17 247.054 145.442 247.414C145.722 247.767 145.861 248.186 145.861 248.671C145.861 249.076 145.762 249.44 145.564 249.763C145.365 250.087 145.078 250.348 144.703 250.546C144.335 250.738 143.883 250.833 143.346 250.833H141.085ZM140.39 250.833V243.178H141.427V250.833H140.39ZM147.958 247.855V246.951H150.042C150.329 246.951 150.583 246.892 150.803 246.774C151.031 246.656 151.208 246.491 151.333 246.278C151.465 246.064 151.531 245.811 151.531 245.517C151.531 245.223 151.465 244.969 151.333 244.756C151.208 244.542 151.031 244.377 150.803 244.259C150.583 244.142 150.329 244.083 150.042 244.083H147.958V243.178H150.109C150.579 243.178 150.998 243.274 151.366 243.465C151.741 243.656 152.035 243.928 152.248 244.281C152.469 244.627 152.579 245.039 152.579 245.517C152.579 245.987 152.469 246.399 152.248 246.752C152.035 247.098 151.741 247.37 151.366 247.568C150.998 247.759 150.579 247.855 150.109 247.855H147.958ZM147.263 250.833V243.178H148.3V250.833H147.263Z" fill="#3F4346"/>
<rect x="255.625" y="237.208" width="73.4773" height="19.25" rx="2.46591" fill="white"/>
<rect x="255.625" y="237.208" width="73.4773" height="19.25" rx="2.46591" stroke="#D5D9DC" stroke-width="0.583333"/>
<path d="M268.639 249.916C268.187 249.916 267.8 249.833 267.481 249.668C267.161 249.503 266.877 249.263 266.628 248.948L267.158 248.419C267.34 248.673 267.55 248.866 267.787 248.998C268.024 249.125 268.316 249.188 268.664 249.188C269.006 249.188 269.279 249.114 269.483 248.965C269.692 248.816 269.797 248.612 269.797 248.353C269.797 248.138 269.747 247.964 269.648 247.831C269.549 247.699 269.414 247.592 269.243 247.509C269.077 247.421 268.895 247.343 268.697 247.277C268.498 247.206 268.3 247.131 268.101 247.054C267.902 246.971 267.72 246.872 267.555 246.756C267.39 246.635 267.254 246.478 267.15 246.284C267.05 246.091 267.001 245.849 267.001 245.556C267.001 245.231 267.078 244.955 267.232 244.729C267.392 244.498 267.607 244.321 267.878 244.2C268.153 244.073 268.462 244.009 268.804 244.009C269.179 244.009 269.516 244.084 269.813 244.233C270.111 244.376 270.354 244.567 270.541 244.804L270.012 245.333C269.841 245.135 269.656 244.986 269.458 244.886C269.265 244.787 269.041 244.737 268.788 244.737C268.479 244.737 268.233 244.806 268.051 244.944C267.869 245.077 267.778 245.264 267.778 245.507C267.778 245.7 267.828 245.857 267.927 245.978C268.032 246.094 268.167 246.193 268.333 246.276C268.498 246.359 268.68 246.436 268.879 246.508C269.083 246.574 269.284 246.648 269.483 246.731C269.681 246.814 269.863 246.919 270.029 247.046C270.194 247.172 270.326 247.338 270.426 247.542C270.53 247.74 270.583 247.991 270.583 248.295C270.583 248.802 270.406 249.199 270.053 249.486C269.706 249.773 269.234 249.916 268.639 249.916ZM273.262 249.916C272.87 249.916 272.517 249.828 272.203 249.651C271.889 249.469 271.641 249.224 271.459 248.915C271.277 248.606 271.186 248.256 271.186 247.865C271.186 247.479 271.274 247.131 271.45 246.822C271.632 246.513 271.875 246.271 272.178 246.094C272.487 245.912 272.832 245.821 273.212 245.821C273.576 245.821 273.896 245.904 274.172 246.069C274.453 246.235 274.671 246.464 274.826 246.756C274.985 247.048 275.065 247.379 275.065 247.749C275.065 247.804 275.063 247.865 275.057 247.931C275.052 247.991 275.041 248.063 275.024 248.146H271.707V247.525H274.627L274.354 247.765C274.354 247.501 274.307 247.277 274.213 247.095C274.12 246.908 273.987 246.764 273.816 246.665C273.645 246.56 273.438 246.508 273.196 246.508C272.942 246.508 272.719 246.563 272.526 246.673C272.333 246.784 272.184 246.938 272.079 247.137C271.974 247.335 271.922 247.57 271.922 247.84C271.922 248.116 271.977 248.358 272.087 248.568C272.198 248.772 272.355 248.932 272.559 249.048C272.763 249.158 272.997 249.213 273.262 249.213C273.483 249.213 273.684 249.174 273.866 249.097C274.053 249.02 274.213 248.904 274.346 248.75L274.826 249.238C274.638 249.458 274.406 249.627 274.131 249.742C273.86 249.858 273.571 249.916 273.262 249.916ZM276.36 249.833V244.258H277.105V249.833H276.36ZM275.392 246.582V245.904H278.072V246.582H275.392ZM282.194 249.916C281.835 249.916 281.51 249.828 281.218 249.651C280.925 249.469 280.694 249.224 280.523 248.915C280.357 248.606 280.274 248.259 280.274 247.873C280.274 247.487 280.357 247.139 280.523 246.83C280.694 246.522 280.922 246.276 281.209 246.094C281.502 245.912 281.83 245.821 282.194 245.821C282.492 245.821 282.756 245.885 282.988 246.011C283.225 246.133 283.415 246.304 283.559 246.524C283.702 246.739 283.782 246.99 283.799 247.277V248.46C283.782 248.741 283.702 248.992 283.559 249.213C283.421 249.434 283.233 249.607 282.996 249.734C282.765 249.856 282.497 249.916 282.194 249.916ZM282.318 249.213C282.687 249.213 282.985 249.089 283.211 248.841C283.437 248.587 283.55 248.264 283.55 247.873C283.55 247.603 283.498 247.368 283.393 247.17C283.294 246.966 283.151 246.808 282.963 246.698C282.776 246.582 282.558 246.524 282.31 246.524C282.061 246.524 281.841 246.582 281.648 246.698C281.46 246.814 281.311 246.974 281.201 247.178C281.096 247.376 281.044 247.605 281.044 247.865C281.044 248.129 281.096 248.364 281.201 248.568C281.311 248.766 281.463 248.923 281.656 249.039C281.849 249.155 282.07 249.213 282.318 249.213ZM283.501 249.833V248.775L283.641 247.815L283.501 246.864V245.904H284.254V249.833H283.501ZM286.587 249.916C286.366 249.916 286.157 249.889 285.958 249.833C285.765 249.773 285.586 249.69 285.42 249.585C285.255 249.475 285.111 249.345 284.99 249.196L285.47 248.717C285.613 248.893 285.779 249.026 285.966 249.114C286.154 249.196 286.363 249.238 286.595 249.238C286.827 249.238 287.006 249.199 287.133 249.122C287.26 249.039 287.323 248.926 287.323 248.783C287.323 248.639 287.271 248.529 287.166 248.452C287.067 248.369 286.937 248.303 286.777 248.253C286.617 248.198 286.446 248.146 286.264 248.096C286.088 248.041 285.919 247.972 285.76 247.889C285.6 247.807 285.467 247.694 285.362 247.55C285.263 247.407 285.214 247.217 285.214 246.979C285.214 246.742 285.271 246.538 285.387 246.367C285.503 246.191 285.663 246.056 285.867 245.962C286.077 245.868 286.328 245.821 286.62 245.821C286.929 245.821 287.202 245.876 287.439 245.987C287.682 246.091 287.88 246.251 288.035 246.466L287.555 246.946C287.444 246.803 287.307 246.693 287.141 246.615C286.981 246.538 286.799 246.5 286.595 246.5C286.38 246.5 286.215 246.538 286.099 246.615C285.988 246.687 285.933 246.789 285.933 246.921C285.933 247.054 285.983 247.156 286.082 247.228C286.181 247.299 286.311 247.36 286.471 247.41C286.636 247.459 286.807 247.512 286.984 247.567C287.16 247.616 287.329 247.685 287.489 247.774C287.648 247.862 287.778 247.98 287.877 248.129C287.982 248.278 288.035 248.474 288.035 248.717C288.035 249.086 287.902 249.378 287.637 249.594C287.378 249.809 287.028 249.916 286.587 249.916ZM291.234 249.833V249.122H292.831C293.255 249.122 293.628 249.031 293.948 248.849C294.267 248.662 294.516 248.405 294.692 248.08C294.874 247.754 294.965 247.379 294.965 246.955C294.965 246.535 294.874 246.163 294.692 245.838C294.51 245.512 294.259 245.259 293.939 245.077C293.619 244.895 293.25 244.804 292.831 244.804H291.242V244.092H292.847C293.266 244.092 293.653 244.164 294.005 244.307C294.364 244.451 294.673 244.652 294.932 244.911C295.197 245.17 295.401 245.474 295.544 245.821C295.693 246.169 295.768 246.549 295.768 246.963C295.768 247.371 295.693 247.752 295.544 248.104C295.401 248.452 295.2 248.755 294.94 249.014C294.681 249.274 294.372 249.475 294.014 249.618C293.661 249.762 293.277 249.833 292.864 249.833H291.234ZM290.721 249.833V244.092H291.499V249.833H290.721ZM298.533 249.916C298.141 249.916 297.788 249.828 297.474 249.651C297.159 249.469 296.911 249.224 296.729 248.915C296.547 248.606 296.456 248.256 296.456 247.865C296.456 247.479 296.544 247.131 296.721 246.822C296.903 246.513 297.146 246.271 297.449 246.094C297.758 245.912 298.102 245.821 298.483 245.821C298.847 245.821 299.167 245.904 299.443 246.069C299.724 246.235 299.942 246.464 300.096 246.756C300.256 247.048 300.336 247.379 300.336 247.749C300.336 247.804 300.333 247.865 300.328 247.931C300.322 247.991 300.311 248.063 300.295 248.146H296.977V247.525H299.898L299.625 247.765C299.625 247.501 299.578 247.277 299.484 247.095C299.39 246.908 299.258 246.764 299.087 246.665C298.916 246.56 298.709 246.508 298.466 246.508C298.213 246.508 297.989 246.563 297.796 246.673C297.603 246.784 297.454 246.938 297.35 247.137C297.245 247.335 297.192 247.57 297.192 247.84C297.192 248.116 297.248 248.358 297.358 248.568C297.468 248.772 297.625 248.932 297.829 249.048C298.033 249.158 298.268 249.213 298.533 249.213C298.753 249.213 298.955 249.174 299.137 249.097C299.324 249.02 299.484 248.904 299.616 248.75L300.096 249.238C299.909 249.458 299.677 249.627 299.401 249.742C299.131 249.858 298.841 249.916 298.533 249.916ZM301.589 249.833V245.317C301.589 245.024 301.653 244.771 301.78 244.555C301.906 244.335 302.08 244.161 302.301 244.034C302.527 243.907 302.789 243.844 303.087 243.844C303.313 243.844 303.509 243.883 303.674 243.96C303.839 244.037 303.991 244.15 304.129 244.299L303.641 244.779C303.569 244.702 303.489 244.644 303.401 244.605C303.313 244.561 303.205 244.539 303.078 244.539C302.841 244.539 302.656 244.608 302.524 244.746C302.397 244.884 302.334 245.074 302.334 245.317V249.833H301.589ZM300.621 246.582V245.904H303.583V246.582H300.621ZM305.776 249.916C305.417 249.916 305.092 249.828 304.8 249.651C304.507 249.469 304.276 249.224 304.105 248.915C303.939 248.606 303.857 248.259 303.857 247.873C303.857 247.487 303.939 247.139 304.105 246.83C304.276 246.522 304.505 246.276 304.791 246.094C305.084 245.912 305.412 245.821 305.776 245.821C306.074 245.821 306.338 245.885 306.57 246.011C306.807 246.133 306.997 246.304 307.141 246.524C307.284 246.739 307.364 246.99 307.381 247.277V248.46C307.364 248.741 307.284 248.992 307.141 249.213C307.003 249.434 306.815 249.607 306.578 249.734C306.347 249.856 306.079 249.916 305.776 249.916ZM305.9 249.213C306.269 249.213 306.567 249.089 306.793 248.841C307.019 248.587 307.133 248.264 307.133 247.873C307.133 247.603 307.08 247.368 306.975 247.17C306.876 246.966 306.733 246.808 306.545 246.698C306.358 246.582 306.14 246.524 305.892 246.524C305.643 246.524 305.423 246.582 305.23 246.698C305.042 246.814 304.893 246.974 304.783 247.178C304.678 247.376 304.626 247.605 304.626 247.865C304.626 248.129 304.678 248.364 304.783 248.568C304.893 248.766 305.045 248.923 305.238 249.039C305.431 249.155 305.652 249.213 305.9 249.213ZM307.083 249.833V248.775L307.224 247.815L307.083 246.864V245.904H307.836V249.833H307.083ZM310.5 249.916C310.18 249.916 309.89 249.845 309.631 249.701C309.377 249.552 309.179 249.348 309.036 249.089C308.892 248.83 308.82 248.529 308.82 248.187V245.904H309.565V248.154C309.565 248.369 309.601 248.557 309.673 248.717C309.75 248.871 309.86 248.99 310.003 249.072C310.147 249.155 310.315 249.196 310.508 249.196C310.8 249.196 311.029 249.105 311.195 248.923C311.36 248.736 311.443 248.48 311.443 248.154V245.904H312.187V248.187C312.187 248.529 312.116 248.83 311.972 249.089C311.829 249.348 311.63 249.552 311.377 249.701C311.129 249.845 310.836 249.916 310.5 249.916ZM313.185 249.833V243.927H313.93V249.833H313.185ZM315.623 249.833V244.258H316.368V249.833H315.623ZM314.655 246.582V245.904H317.336V246.582H314.655Z" fill="#1A237E"/>
<rect x="102" y="271.811" width="235.667" height="36.1667" rx="2.75758" fill="#FAFAFA"/>
<path d="M119.178 293.628C117.736 293.628 116.489 292.812 115.868 291.617H119.178L119.752 290.468H115.489C115.461 290.279 115.443 290.089 115.443 289.894C115.443 289.699 115.461 289.509 115.489 289.319H119.178L119.752 288.17H115.868C116.489 286.975 117.741 286.16 119.178 286.16C120.102 286.16 120.953 286.499 121.608 287.062L122.625 286.045C121.711 285.223 120.499 284.723 119.178 284.723C116.926 284.723 115.018 286.165 114.306 288.17H112.284L111.709 289.319H114.042C114.019 289.509 114.007 289.699 114.007 289.894C114.007 290.089 114.019 290.279 114.042 290.468H112.284L111.709 291.617H114.306C115.018 293.622 116.926 295.064 119.178 295.064C120.505 295.064 121.711 294.564 122.625 293.743L121.602 292.726C120.953 293.289 120.108 293.628 119.178 293.628Z" fill="#1A237E"/>
<path d="M131.859 293.894V286.239H132.896V293.894H131.859ZM132.565 293.894V292.945H136.955V293.894H132.565ZM132.565 290.431V289.526H136.591V290.431H132.565ZM132.565 287.188V286.239H136.9V287.188H132.565ZM141.233 294.004C140.667 294.004 140.159 293.879 139.711 293.629C139.27 293.372 138.92 293.023 138.663 292.581C138.406 292.133 138.277 291.625 138.277 291.059V286.239H139.314V291.037C139.314 291.442 139.398 291.791 139.568 292.085C139.737 292.379 139.965 292.607 140.251 292.769C140.546 292.931 140.873 293.012 141.233 293.012C141.608 293.012 141.935 292.931 142.215 292.769C142.502 292.607 142.726 292.379 142.888 292.085C143.057 291.791 143.141 291.445 143.141 291.048V286.239H144.189V291.07C144.189 291.637 144.061 292.14 143.803 292.581C143.546 293.023 143.197 293.372 142.755 293.629C142.314 293.879 141.807 294.004 141.233 294.004ZM146.59 290.563V289.691H148.663C149.112 289.691 149.457 289.578 149.7 289.35C149.943 289.122 150.064 288.813 150.064 288.423C150.064 288.055 149.943 287.75 149.7 287.507C149.465 287.265 149.123 287.143 148.674 287.143H146.59V286.239H148.707C149.193 286.239 149.616 286.335 149.976 286.526C150.336 286.71 150.612 286.963 150.803 287.287C151.002 287.61 151.101 287.982 151.101 288.401C151.101 288.835 151.002 289.214 150.803 289.537C150.612 289.861 150.336 290.114 149.976 290.298C149.616 290.475 149.193 290.563 148.707 290.563H146.59ZM145.895 293.894V286.239H146.932V293.894H145.895ZM150.307 293.894L147.527 290.464L148.509 290.122L151.619 293.894H150.307Z" fill="#3F4346"/>
<rect x="255.625" y="280.269" width="73.4773" height="19.25" rx="2.46591" fill="white"/>
<rect x="255.625" y="280.269" width="73.4773" height="19.25" rx="2.46591" stroke="#D5D9DC" stroke-width="0.583333"/>
<path d="M268.639 292.977C268.187 292.977 267.8 292.894 267.481 292.729C267.161 292.563 266.877 292.323 266.628 292.009L267.158 291.479C267.34 291.733 267.55 291.926 267.787 292.058C268.024 292.185 268.316 292.249 268.664 292.249C269.006 292.249 269.279 292.174 269.483 292.025C269.692 291.876 269.797 291.672 269.797 291.413C269.797 291.198 269.747 291.024 269.648 290.892C269.549 290.76 269.414 290.652 269.243 290.569C269.077 290.481 268.895 290.404 268.697 290.338C268.498 290.266 268.3 290.192 268.101 290.114C267.902 290.032 267.72 289.932 267.555 289.817C267.39 289.695 267.254 289.538 267.15 289.345C267.05 289.152 267.001 288.909 267.001 288.617C267.001 288.292 267.078 288.016 267.232 287.79C267.392 287.558 267.607 287.382 267.878 287.26C268.153 287.133 268.462 287.07 268.804 287.07C269.179 287.07 269.516 287.144 269.813 287.293C270.111 287.437 270.354 287.627 270.541 287.864L270.012 288.394C269.841 288.195 269.656 288.046 269.458 287.947C269.265 287.848 269.041 287.798 268.788 287.798C268.479 287.798 268.233 287.867 268.051 288.005C267.869 288.137 267.778 288.325 267.778 288.567C267.778 288.76 267.828 288.918 267.927 289.039C268.032 289.155 268.167 289.254 268.333 289.337C268.498 289.419 268.68 289.497 268.879 289.568C269.083 289.635 269.284 289.709 269.483 289.792C269.681 289.874 269.863 289.979 270.029 290.106C270.194 290.233 270.326 290.398 270.426 290.602C270.53 290.801 270.583 291.052 270.583 291.355C270.583 291.863 270.406 292.26 270.053 292.547C269.706 292.833 269.234 292.977 268.639 292.977ZM273.262 292.977C272.87 292.977 272.517 292.889 272.203 292.712C271.889 292.53 271.641 292.285 271.459 291.976C271.277 291.667 271.186 291.317 271.186 290.925C271.186 290.539 271.274 290.192 271.45 289.883C271.632 289.574 271.875 289.331 272.178 289.155C272.487 288.973 272.832 288.882 273.212 288.882C273.576 288.882 273.896 288.964 274.172 289.13C274.453 289.295 274.671 289.524 274.826 289.817C274.985 290.109 275.065 290.44 275.065 290.809C275.065 290.864 275.063 290.925 275.057 290.991C275.052 291.052 275.041 291.124 275.024 291.206H271.707V290.586H274.627L274.354 290.826C274.354 290.561 274.307 290.338 274.213 290.156C274.12 289.968 273.987 289.825 273.816 289.726C273.645 289.621 273.438 289.568 273.196 289.568C272.942 289.568 272.719 289.624 272.526 289.734C272.333 289.844 272.184 289.999 272.079 290.197C271.974 290.396 271.922 290.63 271.922 290.9C271.922 291.176 271.977 291.419 272.087 291.628C272.198 291.832 272.355 291.992 272.559 292.108C272.763 292.218 272.997 292.274 273.262 292.274C273.483 292.274 273.684 292.235 273.866 292.158C274.053 292.081 274.213 291.965 274.346 291.81L274.826 292.298C274.638 292.519 274.406 292.687 274.131 292.803C273.86 292.919 273.571 292.977 273.262 292.977ZM276.36 292.894V287.318H277.105V292.894H276.36ZM275.392 289.643V288.964H278.072V289.643H275.392ZM282.194 292.977C281.835 292.977 281.51 292.889 281.218 292.712C280.925 292.53 280.694 292.285 280.523 291.976C280.357 291.667 280.274 291.319 280.274 290.933C280.274 290.547 280.357 290.2 280.523 289.891C280.694 289.582 280.922 289.337 281.209 289.155C281.502 288.973 281.83 288.882 282.194 288.882C282.492 288.882 282.756 288.945 282.988 289.072C283.225 289.193 283.415 289.364 283.559 289.585C283.702 289.8 283.782 290.051 283.799 290.338V291.521C283.782 291.802 283.702 292.053 283.559 292.274C283.421 292.494 283.233 292.668 282.996 292.795C282.765 292.916 282.497 292.977 282.194 292.977ZM282.318 292.274C282.687 292.274 282.985 292.149 283.211 291.901C283.437 291.648 283.55 291.325 283.55 290.933C283.55 290.663 283.498 290.429 283.393 290.23C283.294 290.026 283.151 289.869 282.963 289.759C282.776 289.643 282.558 289.585 282.31 289.585C282.061 289.585 281.841 289.643 281.648 289.759C281.46 289.874 281.311 290.034 281.201 290.238C281.096 290.437 281.044 290.666 281.044 290.925C281.044 291.19 281.096 291.424 281.201 291.628C281.311 291.827 281.463 291.984 281.656 292.1C281.849 292.216 282.07 292.274 282.318 292.274ZM283.501 292.894V291.835L283.641 290.875L283.501 289.924V288.964H284.254V292.894H283.501ZM286.587 292.977C286.366 292.977 286.157 292.949 285.958 292.894C285.765 292.833 285.586 292.751 285.42 292.646C285.255 292.536 285.111 292.406 284.99 292.257L285.47 291.777C285.613 291.954 285.779 292.086 285.966 292.174C286.154 292.257 286.363 292.298 286.595 292.298C286.827 292.298 287.006 292.26 287.133 292.183C287.26 292.1 287.323 291.987 287.323 291.843C287.323 291.7 287.271 291.59 287.166 291.512C287.067 291.43 286.937 291.364 286.777 291.314C286.617 291.259 286.446 291.206 286.264 291.157C286.088 291.102 285.919 291.033 285.76 290.95C285.6 290.867 285.467 290.754 285.362 290.611C285.263 290.467 285.214 290.277 285.214 290.04C285.214 289.803 285.271 289.599 285.387 289.428C285.503 289.251 285.663 289.116 285.867 289.022C286.077 288.929 286.328 288.882 286.62 288.882C286.929 288.882 287.202 288.937 287.439 289.047C287.682 289.152 287.88 289.312 288.035 289.527L287.555 290.007C287.444 289.863 287.307 289.753 287.141 289.676C286.981 289.599 286.799 289.56 286.595 289.56C286.38 289.56 286.215 289.599 286.099 289.676C285.988 289.748 285.933 289.85 285.933 289.982C285.933 290.114 285.983 290.216 286.082 290.288C286.181 290.36 286.311 290.42 286.471 290.47C286.636 290.52 286.807 290.572 286.984 290.627C287.16 290.677 287.329 290.746 287.489 290.834C287.648 290.922 287.778 291.041 287.877 291.19C287.982 291.339 288.035 291.535 288.035 291.777C288.035 292.147 287.902 292.439 287.637 292.654C287.378 292.869 287.028 292.977 286.587 292.977ZM291.234 292.894V292.183H292.831C293.255 292.183 293.628 292.092 293.948 291.91C294.267 291.722 294.516 291.466 294.692 291.14C294.874 290.815 294.965 290.44 294.965 290.015C294.965 289.596 294.874 289.224 294.692 288.898C294.51 288.573 294.259 288.319 293.939 288.137C293.619 287.955 293.25 287.864 292.831 287.864H291.242V287.153H292.847C293.266 287.153 293.653 287.224 294.005 287.368C294.364 287.511 294.673 287.713 294.932 287.972C295.197 288.231 295.401 288.534 295.544 288.882C295.693 289.229 295.768 289.61 295.768 290.023C295.768 290.432 295.693 290.812 295.544 291.165C295.401 291.512 295.2 291.816 294.94 292.075C294.681 292.334 294.372 292.536 294.014 292.679C293.661 292.822 293.277 292.894 292.864 292.894H291.234ZM290.721 292.894V287.153H291.499V292.894H290.721ZM298.533 292.977C298.141 292.977 297.788 292.889 297.474 292.712C297.159 292.53 296.911 292.285 296.729 291.976C296.547 291.667 296.456 291.317 296.456 290.925C296.456 290.539 296.544 290.192 296.721 289.883C296.903 289.574 297.146 289.331 297.449 289.155C297.758 288.973 298.102 288.882 298.483 288.882C298.847 288.882 299.167 288.964 299.443 289.13C299.724 289.295 299.942 289.524 300.096 289.817C300.256 290.109 300.336 290.44 300.336 290.809C300.336 290.864 300.333 290.925 300.328 290.991C300.322 291.052 300.311 291.124 300.295 291.206H296.977V290.586H299.898L299.625 290.826C299.625 290.561 299.578 290.338 299.484 290.156C299.39 289.968 299.258 289.825 299.087 289.726C298.916 289.621 298.709 289.568 298.466 289.568C298.213 289.568 297.989 289.624 297.796 289.734C297.603 289.844 297.454 289.999 297.35 290.197C297.245 290.396 297.192 290.63 297.192 290.9C297.192 291.176 297.248 291.419 297.358 291.628C297.468 291.832 297.625 291.992 297.829 292.108C298.033 292.218 298.268 292.274 298.533 292.274C298.753 292.274 298.955 292.235 299.137 292.158C299.324 292.081 299.484 291.965 299.616 291.81L300.096 292.298C299.909 292.519 299.677 292.687 299.401 292.803C299.131 292.919 298.841 292.977 298.533 292.977ZM301.589 292.894V288.377C301.589 288.085 301.653 287.831 301.78 287.616C301.906 287.395 302.08 287.222 302.301 287.095C302.527 286.968 302.789 286.905 303.087 286.905C303.313 286.905 303.509 286.943 303.674 287.02C303.839 287.098 303.991 287.211 304.129 287.36L303.641 287.839C303.569 287.762 303.489 287.704 303.401 287.666C303.313 287.622 303.205 287.599 303.078 287.599C302.841 287.599 302.656 287.668 302.524 287.806C302.397 287.944 302.334 288.134 302.334 288.377V292.894H301.589ZM300.621 289.643V288.964H303.583V289.643H300.621ZM305.776 292.977C305.417 292.977 305.092 292.889 304.8 292.712C304.507 292.53 304.276 292.285 304.105 291.976C303.939 291.667 303.857 291.319 303.857 290.933C303.857 290.547 303.939 290.2 304.105 289.891C304.276 289.582 304.505 289.337 304.791 289.155C305.084 288.973 305.412 288.882 305.776 288.882C306.074 288.882 306.338 288.945 306.57 289.072C306.807 289.193 306.997 289.364 307.141 289.585C307.284 289.8 307.364 290.051 307.381 290.338V291.521C307.364 291.802 307.284 292.053 307.141 292.274C307.003 292.494 306.815 292.668 306.578 292.795C306.347 292.916 306.079 292.977 305.776 292.977ZM305.9 292.274C306.269 292.274 306.567 292.149 306.793 291.901C307.019 291.648 307.133 291.325 307.133 290.933C307.133 290.663 307.08 290.429 306.975 290.23C306.876 290.026 306.733 289.869 306.545 289.759C306.358 289.643 306.14 289.585 305.892 289.585C305.643 289.585 305.423 289.643 305.23 289.759C305.042 289.874 304.893 290.034 304.783 290.238C304.678 290.437 304.626 290.666 304.626 290.925C304.626 291.19 304.678 291.424 304.783 291.628C304.893 291.827 305.045 291.984 305.238 292.1C305.431 292.216 305.652 292.274 305.9 292.274ZM307.083 292.894V291.835L307.224 290.875L307.083 289.924V288.964H307.836V292.894H307.083ZM310.5 292.977C310.18 292.977 309.89 292.905 309.631 292.762C309.377 292.613 309.179 292.409 309.036 292.149C308.892 291.89 308.82 291.59 308.82 291.248V288.964H309.565V291.215C309.565 291.43 309.601 291.617 309.673 291.777C309.75 291.932 309.86 292.05 310.003 292.133C310.147 292.216 310.315 292.257 310.508 292.257C310.8 292.257 311.029 292.166 311.195 291.984C311.36 291.797 311.443 291.54 311.443 291.215V288.964H312.187V291.248C312.187 291.59 312.116 291.89 311.972 292.149C311.829 292.409 311.63 292.613 311.377 292.762C311.129 292.905 310.836 292.977 310.5 292.977ZM313.185 292.894V286.987H313.93V292.894H313.185ZM315.623 292.894V287.318H316.368V292.894H315.623ZM314.655 289.643V288.964H317.336V289.643H314.655Z" fill="#1A237E"/>
<rect x="102" y="314.871" width="235.667" height="36.1667" rx="2.75758" fill="#FAFAFA"/>
<path d="M117.391 332.322C116.087 331.983 115.667 331.633 115.667 331.087C115.667 330.461 116.248 330.024 117.218 330.024C118.241 330.024 118.62 330.513 118.655 331.231H119.924C119.884 330.243 119.281 329.335 118.08 329.042V327.784H116.357V329.025C115.242 329.266 114.346 329.99 114.346 331.099C114.346 332.426 115.443 333.087 117.046 333.471C118.482 333.816 118.77 334.322 118.77 334.856C118.77 335.252 118.488 335.884 117.218 335.884C116.035 335.884 115.57 335.356 115.506 334.678H114.243C114.311 335.936 115.254 336.643 116.357 336.878V338.125H118.08V336.89C119.2 336.677 120.091 336.028 120.091 334.85C120.091 333.219 118.695 332.661 117.391 332.322Z" fill="#1A237E"/>
<path d="M131.297 336.955L134.429 329.3H135.179L138.301 336.955H137.176L134.606 330.48H134.992L132.4 336.955H131.297ZM132.786 335.223V334.318H136.812V335.223H132.786ZM142.235 337.065C141.669 337.065 141.161 336.94 140.713 336.69C140.271 336.432 139.922 336.083 139.665 335.642C139.407 335.193 139.279 334.686 139.279 334.12V329.3H140.316V334.098C140.316 334.502 140.4 334.851 140.569 335.146C140.738 335.44 140.966 335.668 141.253 335.829C141.547 335.991 141.875 336.072 142.235 336.072C142.61 336.072 142.937 335.991 143.217 335.829C143.503 335.668 143.728 335.44 143.889 335.146C144.059 334.851 144.143 334.506 144.143 334.109V329.3H145.191V334.131C145.191 334.697 145.062 335.201 144.805 335.642C144.548 336.083 144.198 336.432 143.757 336.69C143.316 336.94 142.808 337.065 142.235 337.065ZM147.58 336.955V336.006H149.709C150.275 336.006 150.772 335.885 151.198 335.642C151.625 335.392 151.956 335.05 152.191 334.616C152.434 334.182 152.555 333.682 152.555 333.116C152.555 332.557 152.434 332.061 152.191 331.627C151.948 331.193 151.614 330.855 151.187 330.612C150.761 330.369 150.268 330.248 149.709 330.248H147.591V329.3H149.731C150.29 329.3 150.805 329.395 151.276 329.586C151.753 329.778 152.165 330.046 152.511 330.392C152.864 330.737 153.136 331.142 153.327 331.605C153.526 332.068 153.625 332.576 153.625 333.127C153.625 333.671 153.526 334.179 153.327 334.649C153.136 335.113 152.868 335.517 152.522 335.863C152.176 336.208 151.765 336.477 151.287 336.668C150.816 336.859 150.305 336.955 149.753 336.955H147.58ZM146.896 336.955V329.3H147.933V336.955H146.896Z" fill="#3F4346"/>
<rect x="255.625" y="323.33" width="73.4773" height="19.25" rx="2.46591" fill="white"/>
<rect x="255.625" y="323.33" width="73.4773" height="19.25" rx="2.46591" stroke="#D5D9DC" stroke-width="0.583333"/>
<path d="M268.639 336.037C268.187 336.037 267.8 335.955 267.481 335.789C267.161 335.624 266.877 335.384 266.628 335.069L267.158 334.54C267.34 334.794 267.55 334.987 267.787 335.119C268.024 335.246 268.316 335.309 268.664 335.309C269.006 335.309 269.279 335.235 269.483 335.086C269.692 334.937 269.797 334.733 269.797 334.474C269.797 334.259 269.747 334.085 269.648 333.953C269.549 333.82 269.414 333.713 269.243 333.63C269.077 333.542 268.895 333.464 268.697 333.398C268.498 333.327 268.3 333.252 268.101 333.175C267.902 333.092 267.72 332.993 267.555 332.877C267.39 332.756 267.254 332.599 267.15 332.406C267.05 332.213 267.001 331.97 267.001 331.678C267.001 331.352 267.078 331.076 267.232 330.85C267.392 330.619 267.607 330.442 267.878 330.321C268.153 330.194 268.462 330.131 268.804 330.131C269.179 330.131 269.516 330.205 269.813 330.354C270.111 330.497 270.354 330.688 270.541 330.925L270.012 331.454C269.841 331.256 269.656 331.107 269.458 331.007C269.265 330.908 269.041 330.859 268.788 330.859C268.479 330.859 268.233 330.928 268.051 331.065C267.869 331.198 267.778 331.385 267.778 331.628C267.778 331.821 267.828 331.978 267.927 332.099C268.032 332.215 268.167 332.315 268.333 332.397C268.498 332.48 268.68 332.557 268.879 332.629C269.083 332.695 269.284 332.77 269.483 332.852C269.681 332.935 269.863 333.04 270.029 333.167C270.194 333.294 270.326 333.459 270.426 333.663C270.53 333.862 270.583 334.113 270.583 334.416C270.583 334.923 270.406 335.32 270.053 335.607C269.706 335.894 269.234 336.037 268.639 336.037ZM273.262 336.037C272.87 336.037 272.517 335.949 272.203 335.773C271.889 335.591 271.641 335.345 271.459 335.036C271.277 334.727 271.186 334.377 271.186 333.986C271.186 333.6 271.274 333.252 271.45 332.943C271.632 332.634 271.875 332.392 272.178 332.215C272.487 332.033 272.832 331.942 273.212 331.942C273.576 331.942 273.896 332.025 274.172 332.19C274.453 332.356 274.671 332.585 274.826 332.877C274.985 333.169 275.065 333.5 275.065 333.87C275.065 333.925 275.063 333.986 275.057 334.052C275.052 334.113 275.041 334.184 275.024 334.267H271.707V333.646H274.627L274.354 333.886C274.354 333.622 274.307 333.398 274.213 333.216C274.12 333.029 273.987 332.885 273.816 332.786C273.645 332.681 273.438 332.629 273.196 332.629C272.942 332.629 272.719 332.684 272.526 332.794C272.333 332.905 272.184 333.059 272.079 333.258C271.974 333.456 271.922 333.691 271.922 333.961C271.922 334.237 271.977 334.479 272.087 334.689C272.198 334.893 272.355 335.053 272.559 335.169C272.763 335.279 272.997 335.334 273.262 335.334C273.483 335.334 273.684 335.296 273.866 335.218C274.053 335.141 274.213 335.025 274.346 334.871L274.826 335.359C274.638 335.58 274.406 335.748 274.131 335.864C273.86 335.979 273.571 336.037 273.262 336.037ZM276.36 335.955V330.379H277.105V335.955H276.36ZM275.392 332.703V332.025H278.072V332.703H275.392ZM282.194 336.037C281.835 336.037 281.51 335.949 281.218 335.773C280.925 335.591 280.694 335.345 280.523 335.036C280.357 334.727 280.274 334.38 280.274 333.994C280.274 333.608 280.357 333.26 280.523 332.952C280.694 332.643 280.922 332.397 281.209 332.215C281.502 332.033 281.83 331.942 282.194 331.942C282.492 331.942 282.756 332.006 282.988 332.133C283.225 332.254 283.415 332.425 283.559 332.645C283.702 332.861 283.782 333.112 283.799 333.398V334.581C283.782 334.863 283.702 335.114 283.559 335.334C283.421 335.555 283.233 335.728 282.996 335.855C282.765 335.977 282.497 336.037 282.194 336.037ZM282.318 335.334C282.687 335.334 282.985 335.21 283.211 334.962C283.437 334.708 283.55 334.386 283.55 333.994C283.55 333.724 283.498 333.489 283.393 333.291C283.294 333.087 283.151 332.93 282.963 332.819C282.776 332.703 282.558 332.645 282.31 332.645C282.061 332.645 281.841 332.703 281.648 332.819C281.46 332.935 281.311 333.095 281.201 333.299C281.096 333.498 281.044 333.726 281.044 333.986C281.044 334.25 281.096 334.485 281.201 334.689C281.311 334.887 281.463 335.045 281.656 335.16C281.849 335.276 282.07 335.334 282.318 335.334ZM283.501 335.955V334.896L283.641 333.936L283.501 332.985V332.025H284.254V335.955H283.501ZM286.587 336.037C286.366 336.037 286.157 336.01 285.958 335.955C285.765 335.894 285.586 335.811 285.42 335.706C285.255 335.596 285.111 335.466 284.99 335.318L285.47 334.838C285.613 335.014 285.779 335.147 285.966 335.235C286.154 335.318 286.363 335.359 286.595 335.359C286.827 335.359 287.006 335.32 287.133 335.243C287.26 335.16 287.323 335.047 287.323 334.904C287.323 334.761 287.271 334.65 287.166 334.573C287.067 334.49 286.937 334.424 286.777 334.374C286.617 334.319 286.446 334.267 286.264 334.217C286.088 334.162 285.919 334.093 285.76 334.01C285.6 333.928 285.467 333.815 285.362 333.671C285.263 333.528 285.214 333.338 285.214 333.1C285.214 332.863 285.271 332.659 285.387 332.488C285.503 332.312 285.663 332.177 285.867 332.083C286.077 331.989 286.328 331.942 286.62 331.942C286.929 331.942 287.202 331.997 287.439 332.108C287.682 332.213 287.88 332.372 288.035 332.588L287.555 333.067C287.444 332.924 287.307 332.814 287.141 332.736C286.981 332.659 286.799 332.621 286.595 332.621C286.38 332.621 286.215 332.659 286.099 332.736C285.988 332.808 285.933 332.91 285.933 333.043C285.933 333.175 285.983 333.277 286.082 333.349C286.181 333.42 286.311 333.481 286.471 333.531C286.636 333.58 286.807 333.633 286.984 333.688C287.16 333.737 287.329 333.806 287.489 333.895C287.648 333.983 287.778 334.101 287.877 334.25C287.982 334.399 288.035 334.595 288.035 334.838C288.035 335.207 287.902 335.5 287.637 335.715C287.378 335.93 287.028 336.037 286.587 336.037ZM291.234 335.955V335.243H292.831C293.255 335.243 293.628 335.152 293.948 334.97C294.267 334.783 294.516 334.526 294.692 334.201C294.874 333.875 294.965 333.5 294.965 333.076C294.965 332.657 294.874 332.284 294.692 331.959C294.51 331.633 294.259 331.38 293.939 331.198C293.619 331.016 293.25 330.925 292.831 330.925H291.242V330.213H292.847C293.266 330.213 293.653 330.285 294.005 330.428C294.364 330.572 294.673 330.773 294.932 331.032C295.197 331.292 295.401 331.595 295.544 331.942C295.693 332.29 295.768 332.67 295.768 333.084C295.768 333.492 295.693 333.873 295.544 334.226C295.401 334.573 295.2 334.876 294.94 335.136C294.681 335.395 294.372 335.596 294.014 335.739C293.661 335.883 293.277 335.955 292.864 335.955H291.234ZM290.721 335.955V330.213H291.499V335.955H290.721ZM298.533 336.037C298.141 336.037 297.788 335.949 297.474 335.773C297.159 335.591 296.911 335.345 296.729 335.036C296.547 334.727 296.456 334.377 296.456 333.986C296.456 333.6 296.544 333.252 296.721 332.943C296.903 332.634 297.146 332.392 297.449 332.215C297.758 332.033 298.102 331.942 298.483 331.942C298.847 331.942 299.167 332.025 299.443 332.19C299.724 332.356 299.942 332.585 300.096 332.877C300.256 333.169 300.336 333.5 300.336 333.87C300.336 333.925 300.333 333.986 300.328 334.052C300.322 334.113 300.311 334.184 300.295 334.267H296.977V333.646H299.898L299.625 333.886C299.625 333.622 299.578 333.398 299.484 333.216C299.39 333.029 299.258 332.885 299.087 332.786C298.916 332.681 298.709 332.629 298.466 332.629C298.213 332.629 297.989 332.684 297.796 332.794C297.603 332.905 297.454 333.059 297.35 333.258C297.245 333.456 297.192 333.691 297.192 333.961C297.192 334.237 297.248 334.479 297.358 334.689C297.468 334.893 297.625 335.053 297.829 335.169C298.033 335.279 298.268 335.334 298.533 335.334C298.753 335.334 298.955 335.296 299.137 335.218C299.324 335.141 299.484 335.025 299.616 334.871L300.096 335.359C299.909 335.58 299.677 335.748 299.401 335.864C299.131 335.979 298.841 336.037 298.533 336.037ZM301.589 335.955V331.438C301.589 331.145 301.653 330.892 301.78 330.677C301.906 330.456 302.08 330.282 302.301 330.155C302.527 330.029 302.789 329.965 303.087 329.965C303.313 329.965 303.509 330.004 303.674 330.081C303.839 330.158 303.991 330.271 304.129 330.42L303.641 330.9C303.569 330.823 303.489 330.765 303.401 330.726C303.313 330.682 303.205 330.66 303.078 330.66C302.841 330.66 302.656 330.729 302.524 330.867C302.397 331.005 302.334 331.195 302.334 331.438V335.955H301.589ZM300.621 332.703V332.025H303.583V332.703H300.621ZM305.776 336.037C305.417 336.037 305.092 335.949 304.8 335.773C304.507 335.591 304.276 335.345 304.105 335.036C303.939 334.727 303.857 334.38 303.857 333.994C303.857 333.608 303.939 333.26 304.105 332.952C304.276 332.643 304.505 332.397 304.791 332.215C305.084 332.033 305.412 331.942 305.776 331.942C306.074 331.942 306.338 332.006 306.57 332.133C306.807 332.254 306.997 332.425 307.141 332.645C307.284 332.861 307.364 333.112 307.381 333.398V334.581C307.364 334.863 307.284 335.114 307.141 335.334C307.003 335.555 306.815 335.728 306.578 335.855C306.347 335.977 306.079 336.037 305.776 336.037ZM305.9 335.334C306.269 335.334 306.567 335.21 306.793 334.962C307.019 334.708 307.133 334.386 307.133 333.994C307.133 333.724 307.08 333.489 306.975 333.291C306.876 333.087 306.733 332.93 306.545 332.819C306.358 332.703 306.14 332.645 305.892 332.645C305.643 332.645 305.423 332.703 305.23 332.819C305.042 332.935 304.893 333.095 304.783 333.299C304.678 333.498 304.626 333.726 304.626 333.986C304.626 334.25 304.678 334.485 304.783 334.689C304.893 334.887 305.045 335.045 305.238 335.16C305.431 335.276 305.652 335.334 305.9 335.334ZM307.083 335.955V334.896L307.224 333.936L307.083 332.985V332.025H307.836V335.955H307.083ZM310.5 336.037C310.18 336.037 309.89 335.966 309.631 335.822C309.377 335.673 309.179 335.469 309.036 335.21C308.892 334.951 308.82 334.65 308.82 334.308V332.025H309.565V334.275C309.565 334.49 309.601 334.678 309.673 334.838C309.75 334.992 309.86 335.111 310.003 335.193C310.147 335.276 310.315 335.318 310.508 335.318C310.8 335.318 311.029 335.227 311.195 335.045C311.36 334.857 311.443 334.601 311.443 334.275V332.025H312.187V334.308C312.187 334.65 312.116 334.951 311.972 335.21C311.829 335.469 311.63 335.673 311.377 335.822C311.129 335.966 310.836 336.037 310.5 336.037ZM313.185 335.955V330.048H313.93V335.955H313.185ZM315.623 335.955V330.379H316.368V335.955H315.623ZM314.655 332.703V332.025H317.336V332.703H314.655Z" fill="#1A237E"/>
<rect x="102" y="357.932" width="235.667" height="36.1667" rx="2.75758" fill="#FAFAFA"/>
<path d="M117.902 376.015H120.614V377.164H117.741V381.185H116.592V377.164H113.72V376.015H116.431L113.145 370.844H114.507L117.167 375.033L119.827 370.844H121.188L117.902 376.015Z" fill="#1A237E"/>
<path d="M131.859 380.015V372.36H132.896V380.015H131.859ZM138.233 380.015V376.96C138.233 376.563 138.108 376.235 137.857 375.978C137.607 375.721 137.284 375.592 136.887 375.592C136.622 375.592 136.387 375.651 136.181 375.768C135.975 375.886 135.813 376.048 135.696 376.254C135.578 376.46 135.519 376.695 135.519 376.96L135.111 376.728C135.111 376.331 135.199 375.978 135.376 375.669C135.552 375.36 135.799 375.118 136.115 374.941C136.431 374.757 136.788 374.665 137.185 374.665C137.582 374.665 137.931 374.765 138.233 374.963C138.541 375.162 138.784 375.423 138.961 375.746C139.137 376.063 139.225 376.401 139.225 376.761V380.015H138.233ZM134.526 380.015V374.776H135.519V380.015H134.526ZM142.367 380.015L139.963 374.776H141.066L142.996 379.199H142.356L144.298 374.776H145.356L142.952 380.015H142.367ZM148.392 380.125C147.877 380.125 147.414 380.004 147.002 379.761C146.59 379.519 146.263 379.192 146.02 378.78C145.778 378.361 145.656 377.894 145.656 377.379C145.656 376.872 145.778 376.416 146.02 376.011C146.263 375.599 146.59 375.272 147.002 375.029C147.414 374.787 147.877 374.665 148.392 374.665C148.899 374.665 149.359 374.787 149.771 375.029C150.19 375.265 150.521 375.588 150.763 376C151.006 376.412 151.127 376.872 151.127 377.379C151.127 377.894 151.006 378.361 150.763 378.78C150.521 379.192 150.19 379.519 149.771 379.761C149.359 380.004 148.899 380.125 148.392 380.125ZM148.392 379.166C148.723 379.166 149.017 379.089 149.274 378.934C149.532 378.78 149.734 378.57 149.881 378.305C150.028 378.033 150.102 377.725 150.102 377.379C150.102 377.041 150.024 376.739 149.87 376.474C149.723 376.21 149.521 376.004 149.263 375.857C149.013 375.702 148.723 375.625 148.392 375.625C148.061 375.625 147.767 375.702 147.509 375.857C147.252 376.004 147.05 376.21 146.903 376.474C146.756 376.739 146.682 377.041 146.682 377.379C146.682 377.725 146.756 378.033 146.903 378.305C147.05 378.57 147.252 378.78 147.509 378.934C147.767 379.089 148.061 379.166 148.392 379.166ZM152.257 380.015V374.776H153.25V380.015H152.257ZM152.753 373.728C152.569 373.728 152.419 373.669 152.301 373.551C152.183 373.426 152.125 373.272 152.125 373.088C152.125 372.912 152.183 372.765 152.301 372.647C152.419 372.522 152.569 372.459 152.753 372.459C152.937 372.459 153.088 372.522 153.206 372.647C153.323 372.765 153.382 372.912 153.382 373.088C153.382 373.272 153.323 373.426 153.206 373.551C153.088 373.669 152.937 373.728 152.753 373.728ZM157.106 380.125C156.591 380.125 156.125 380.004 155.705 379.761C155.294 379.519 154.966 379.192 154.724 378.78C154.488 378.361 154.371 377.897 154.371 377.39C154.371 376.875 154.488 376.412 154.724 376C154.966 375.588 155.294 375.265 155.705 375.029C156.125 374.787 156.591 374.665 157.106 374.665C157.511 374.665 157.886 374.743 158.231 374.897C158.577 375.044 158.875 375.261 159.125 375.548L158.463 376.21C158.301 376.018 158.103 375.875 157.867 375.78C157.639 375.677 157.386 375.625 157.106 375.625C156.775 375.625 156.481 375.702 156.224 375.857C155.966 376.004 155.764 376.21 155.617 376.474C155.47 376.739 155.397 377.044 155.397 377.39C155.397 377.736 155.47 378.041 155.617 378.305C155.764 378.57 155.966 378.78 156.224 378.934C156.481 379.089 156.775 379.166 157.106 379.166C157.386 379.166 157.639 379.118 157.867 379.022C158.103 378.919 158.305 378.772 158.474 378.581L159.125 379.243C158.882 379.522 158.584 379.739 158.231 379.894C157.886 380.048 157.511 380.125 157.106 380.125ZM162.428 380.125C161.906 380.125 161.436 380.008 161.016 379.772C160.597 379.53 160.266 379.203 160.024 378.791C159.781 378.379 159.66 377.912 159.66 377.39C159.66 376.875 159.777 376.412 160.013 376C160.255 375.588 160.579 375.265 160.983 375.029C161.395 374.787 161.855 374.665 162.362 374.665C162.847 374.665 163.274 374.776 163.642 374.996C164.017 375.217 164.307 375.522 164.513 375.912C164.726 376.302 164.833 376.743 164.833 377.236C164.833 377.309 164.829 377.39 164.822 377.478C164.814 377.559 164.8 377.655 164.778 377.765H160.355V376.938H164.248L163.884 377.258C163.884 376.905 163.822 376.607 163.697 376.364C163.572 376.114 163.395 375.923 163.167 375.791C162.939 375.651 162.664 375.581 162.34 375.581C162.002 375.581 161.704 375.654 161.447 375.802C161.189 375.949 160.991 376.155 160.851 376.419C160.711 376.684 160.641 376.997 160.641 377.357C160.641 377.725 160.715 378.048 160.862 378.328C161.009 378.6 161.219 378.813 161.491 378.967C161.763 379.114 162.075 379.188 162.428 379.188C162.722 379.188 162.991 379.136 163.233 379.033C163.484 378.93 163.697 378.776 163.873 378.57L164.513 379.221C164.263 379.515 163.954 379.739 163.586 379.894C163.226 380.048 162.84 380.125 162.428 380.125ZM171.144 380.015L172.313 372.36H173.162L171.993 380.015H171.144ZM168.011 377.655V376.849H173.659V377.655H168.011ZM168.783 380.015L169.952 372.36H170.802L169.633 380.015H168.783ZM168.353 375.371V374.566H174.001V375.371H168.353ZM174.901 379.386L177.725 376.408C178.012 376.114 178.236 375.86 178.398 375.647C178.56 375.427 178.674 375.224 178.74 375.04C178.813 374.857 178.85 374.665 178.85 374.467C178.85 374.077 178.725 373.772 178.475 373.551C178.225 373.331 177.901 373.22 177.504 373.22C177.115 373.22 176.773 373.316 176.479 373.507C176.184 373.691 175.923 373.978 175.695 374.368L174.967 373.761C175.269 373.261 175.633 372.886 176.059 372.636C176.486 372.378 176.979 372.25 177.537 372.25C178.008 372.25 178.416 372.342 178.762 372.526C179.115 372.709 179.387 372.967 179.578 373.298C179.769 373.629 179.865 374.015 179.865 374.456C179.865 374.772 179.824 375.055 179.744 375.305C179.67 375.555 179.534 375.813 179.335 376.077C179.144 376.335 178.876 376.644 178.53 377.004L176.247 379.353L174.901 379.386ZM174.901 380.015V379.386L175.784 379.089H180.041V380.015H174.901ZM181.758 380.015L184.626 372.967L185.652 373L182.85 380.015H181.758ZM180.556 373.287V372.36H185.652V373L185.2 373.287H180.556ZM188.497 380.125C187.997 380.125 187.541 380.034 187.129 379.85C186.724 379.658 186.383 379.383 186.103 379.022L186.809 378.316C186.978 378.574 187.21 378.78 187.504 378.934C187.798 379.081 188.125 379.155 188.486 379.155C188.824 379.155 189.114 379.092 189.357 378.967C189.607 378.835 189.802 378.651 189.942 378.416C190.089 378.18 190.162 377.908 190.162 377.6C190.162 377.283 190.089 377.011 189.942 376.783C189.802 376.548 189.603 376.368 189.346 376.243C189.089 376.118 188.783 376.055 188.43 376.055C188.298 376.055 188.166 376.066 188.033 376.088C187.901 376.103 187.772 376.129 187.647 376.166L188.089 375.57C188.228 375.504 188.379 375.452 188.541 375.416C188.703 375.379 188.864 375.36 189.026 375.36C189.438 375.36 189.806 375.456 190.129 375.647C190.46 375.838 190.721 376.107 190.912 376.452C191.111 376.798 191.21 377.199 191.21 377.655C191.21 378.14 191.092 378.57 190.857 378.945C190.629 379.313 190.313 379.603 189.909 379.817C189.504 380.022 189.033 380.125 188.497 380.125ZM187.647 376.166V375.537L189.886 372.989L191.122 372.978L188.817 375.592L187.647 376.166ZM186.467 373.287V372.36H191.122V372.978L190.217 373.287H186.467ZM195.347 380.125C194.774 380.125 194.248 379.964 193.77 379.64C193.299 379.317 192.924 378.861 192.645 378.272C192.366 377.677 192.226 376.978 192.226 376.177C192.226 375.375 192.362 374.68 192.634 374.092C192.913 373.504 193.288 373.051 193.759 372.735C194.23 372.412 194.748 372.25 195.314 372.25C195.895 372.25 196.421 372.412 196.892 372.735C197.362 373.051 197.734 373.504 198.006 374.092C198.285 374.68 198.425 375.379 198.425 376.188C198.425 376.989 198.285 377.688 198.006 378.283C197.734 378.872 197.362 379.328 196.892 379.651C196.428 379.967 195.914 380.125 195.347 380.125ZM195.325 379.144C195.73 379.144 196.083 379.033 196.384 378.813C196.693 378.585 196.936 378.25 197.112 377.809C197.289 377.368 197.377 376.824 197.377 376.177C197.377 375.529 197.289 374.989 197.112 374.555C196.936 374.114 196.693 373.783 196.384 373.562C196.075 373.334 195.719 373.22 195.314 373.22C194.917 373.22 194.564 373.334 194.255 373.562C193.947 373.783 193.704 374.114 193.527 374.555C193.358 374.989 193.274 375.529 193.274 376.177C193.274 376.824 193.358 377.368 193.527 377.809C193.704 378.25 193.947 378.585 194.255 378.813C194.564 379.033 194.921 379.144 195.325 379.144Z" fill="#3F4346"/>
<rect x="255.625" y="366.39" width="73.4773" height="19.25" rx="2.46591" fill="white"/>
<rect x="255.625" y="366.39" width="73.4773" height="19.25" rx="2.46591" stroke="#D5D9DC" stroke-width="0.583333"/>
<path d="M268.639 379.098C268.187 379.098 267.8 379.015 267.481 378.85C267.161 378.684 266.877 378.445 266.628 378.13L267.158 377.601C267.34 377.854 267.55 378.047 267.787 378.18C268.024 378.307 268.316 378.37 268.664 378.37C269.006 378.37 269.279 378.296 269.483 378.147C269.692 377.998 269.797 377.794 269.797 377.535C269.797 377.319 269.747 377.146 269.648 377.013C269.549 376.881 269.414 376.773 269.243 376.691C269.077 376.603 268.895 376.525 268.697 376.459C268.498 376.387 268.3 376.313 268.101 376.236C267.902 376.153 267.72 376.054 267.555 375.938C267.39 375.817 267.254 375.659 267.15 375.466C267.05 375.273 267.001 375.031 267.001 374.738C267.001 374.413 267.078 374.137 267.232 373.911C267.392 373.679 267.607 373.503 267.878 373.382C268.153 373.255 268.462 373.191 268.804 373.191C269.179 373.191 269.516 373.266 269.813 373.415C270.111 373.558 270.354 373.748 270.541 373.986L270.012 374.515C269.841 374.316 269.656 374.168 269.458 374.068C269.265 373.969 269.041 373.919 268.788 373.919C268.479 373.919 268.233 373.988 268.051 374.126C267.869 374.259 267.778 374.446 267.778 374.689C267.778 374.882 267.828 375.039 267.927 375.16C268.032 375.276 268.167 375.375 268.333 375.458C268.498 375.541 268.68 375.618 268.879 375.69C269.083 375.756 269.284 375.83 269.483 375.913C269.681 375.996 269.863 376.101 270.029 376.227C270.194 376.354 270.326 376.52 270.426 376.724C270.53 376.922 270.583 377.173 270.583 377.477C270.583 377.984 270.406 378.381 270.053 378.668C269.706 378.955 269.234 379.098 268.639 379.098ZM273.262 379.098C272.87 379.098 272.517 379.01 272.203 378.833C271.889 378.651 271.641 378.406 271.459 378.097C271.277 377.788 271.186 377.438 271.186 377.046C271.186 376.66 271.274 376.313 271.45 376.004C271.632 375.695 271.875 375.453 272.178 375.276C272.487 375.094 272.832 375.003 273.212 375.003C273.576 375.003 273.896 375.086 274.172 375.251C274.453 375.417 274.671 375.646 274.826 375.938C274.985 376.23 275.065 376.561 275.065 376.931C275.065 376.986 275.063 377.046 275.057 377.113C275.052 377.173 275.041 377.245 275.024 377.328H271.707V376.707H274.627L274.354 376.947C274.354 376.682 274.307 376.459 274.213 376.277C274.12 376.09 273.987 375.946 273.816 375.847C273.645 375.742 273.438 375.69 273.196 375.69C272.942 375.69 272.719 375.745 272.526 375.855C272.333 375.966 272.184 376.12 272.079 376.318C271.974 376.517 271.922 376.751 271.922 377.022C271.922 377.297 271.977 377.54 272.087 377.75C272.198 377.954 272.355 378.114 272.559 378.229C272.763 378.34 272.997 378.395 273.262 378.395C273.483 378.395 273.684 378.356 273.866 378.279C274.053 378.202 274.213 378.086 274.346 377.932L274.826 378.42C274.638 378.64 274.406 378.809 274.131 378.924C273.86 379.04 273.571 379.098 273.262 379.098ZM276.36 379.015V373.44H277.105V379.015H276.36ZM275.392 375.764V375.086H278.072V375.764H275.392ZM282.194 379.098C281.835 379.098 281.51 379.01 281.218 378.833C280.925 378.651 280.694 378.406 280.523 378.097C280.357 377.788 280.274 377.441 280.274 377.055C280.274 376.669 280.357 376.321 280.523 376.012C280.694 375.704 280.922 375.458 281.209 375.276C281.502 375.094 281.83 375.003 282.194 375.003C282.492 375.003 282.756 375.067 282.988 375.193C283.225 375.315 283.415 375.486 283.559 375.706C283.702 375.921 283.782 376.172 283.799 376.459V377.642C283.782 377.923 283.702 378.174 283.559 378.395C283.421 378.616 283.233 378.789 282.996 378.916C282.765 379.037 282.497 379.098 282.194 379.098ZM282.318 378.395C282.687 378.395 282.985 378.271 283.211 378.023C283.437 377.769 283.55 377.446 283.55 377.055C283.55 376.785 283.498 376.55 283.393 376.352C283.294 376.148 283.151 375.99 282.963 375.88C282.776 375.764 282.558 375.706 282.31 375.706C282.061 375.706 281.841 375.764 281.648 375.88C281.46 375.996 281.311 376.156 281.201 376.36C281.096 376.558 281.044 376.787 281.044 377.046C281.044 377.311 281.096 377.546 281.201 377.75C281.311 377.948 281.463 378.105 281.656 378.221C281.849 378.337 282.07 378.395 282.318 378.395ZM283.501 379.015V377.956L283.641 376.997L283.501 376.045V375.086H284.254V379.015H283.501ZM286.587 379.098C286.366 379.098 286.157 379.071 285.958 379.015C285.765 378.955 285.586 378.872 285.42 378.767C285.255 378.657 285.111 378.527 284.99 378.378L285.47 377.899C285.613 378.075 285.779 378.207 285.966 378.296C286.154 378.378 286.363 378.42 286.595 378.42C286.827 378.42 287.006 378.381 287.133 378.304C287.26 378.221 287.323 378.108 287.323 377.965C287.323 377.821 287.271 377.711 287.166 377.634C287.067 377.551 286.937 377.485 286.777 377.435C286.617 377.38 286.446 377.328 286.264 377.278C286.088 377.223 285.919 377.154 285.76 377.071C285.6 376.989 285.467 376.876 285.362 376.732C285.263 376.589 285.214 376.398 285.214 376.161C285.214 375.924 285.271 375.72 285.387 375.549C285.503 375.373 285.663 375.238 285.867 375.144C286.077 375.05 286.328 375.003 286.62 375.003C286.929 375.003 287.202 375.058 287.439 375.169C287.682 375.273 287.88 375.433 288.035 375.648L287.555 376.128C287.444 375.985 287.307 375.875 287.141 375.797C286.981 375.72 286.799 375.681 286.595 375.681C286.38 375.681 286.215 375.72 286.099 375.797C285.988 375.869 285.933 375.971 285.933 376.103C285.933 376.236 285.983 376.338 286.082 376.409C286.181 376.481 286.311 376.542 286.471 376.591C286.636 376.641 286.807 376.694 286.984 376.749C287.16 376.798 287.329 376.867 287.489 376.955C287.648 377.044 287.778 377.162 287.877 377.311C287.982 377.46 288.035 377.656 288.035 377.899C288.035 378.268 287.902 378.56 287.637 378.775C287.378 378.991 287.028 379.098 286.587 379.098ZM291.234 379.015V378.304H292.831C293.255 378.304 293.628 378.213 293.948 378.031C294.267 377.843 294.516 377.587 294.692 377.262C294.874 376.936 294.965 376.561 294.965 376.136C294.965 375.717 294.874 375.345 294.692 375.02C294.51 374.694 294.259 374.441 293.939 374.259C293.619 374.077 293.25 373.986 292.831 373.986H291.242V373.274H292.847C293.266 373.274 293.653 373.346 294.005 373.489C294.364 373.633 294.673 373.834 294.932 374.093C295.197 374.352 295.401 374.656 295.544 375.003C295.693 375.351 295.768 375.731 295.768 376.145C295.768 376.553 295.693 376.933 295.544 377.286C295.401 377.634 295.2 377.937 294.94 378.196C294.681 378.456 294.372 378.657 294.014 378.8C293.661 378.944 293.277 379.015 292.864 379.015H291.234ZM290.721 379.015V373.274H291.499V379.015H290.721ZM298.533 379.098C298.141 379.098 297.788 379.01 297.474 378.833C297.159 378.651 296.911 378.406 296.729 378.097C296.547 377.788 296.456 377.438 296.456 377.046C296.456 376.66 296.544 376.313 296.721 376.004C296.903 375.695 297.146 375.453 297.449 375.276C297.758 375.094 298.102 375.003 298.483 375.003C298.847 375.003 299.167 375.086 299.443 375.251C299.724 375.417 299.942 375.646 300.096 375.938C300.256 376.23 300.336 376.561 300.336 376.931C300.336 376.986 300.333 377.046 300.328 377.113C300.322 377.173 300.311 377.245 300.295 377.328H296.977V376.707H299.898L299.625 376.947C299.625 376.682 299.578 376.459 299.484 376.277C299.39 376.09 299.258 375.946 299.087 375.847C298.916 375.742 298.709 375.69 298.466 375.69C298.213 375.69 297.989 375.745 297.796 375.855C297.603 375.966 297.454 376.12 297.35 376.318C297.245 376.517 297.192 376.751 297.192 377.022C297.192 377.297 297.248 377.54 297.358 377.75C297.468 377.954 297.625 378.114 297.829 378.229C298.033 378.34 298.268 378.395 298.533 378.395C298.753 378.395 298.955 378.356 299.137 378.279C299.324 378.202 299.484 378.086 299.616 377.932L300.096 378.42C299.909 378.64 299.677 378.809 299.401 378.924C299.131 379.04 298.841 379.098 298.533 379.098ZM301.589 379.015V374.498C301.589 374.206 301.653 373.952 301.78 373.737C301.906 373.517 302.08 373.343 302.301 373.216C302.527 373.089 302.789 373.026 303.087 373.026C303.313 373.026 303.509 373.065 303.674 373.142C303.839 373.219 303.991 373.332 304.129 373.481L303.641 373.961C303.569 373.884 303.489 373.826 303.401 373.787C303.313 373.743 303.205 373.721 303.078 373.721C302.841 373.721 302.656 373.79 302.524 373.928C302.397 374.066 302.334 374.256 302.334 374.498V379.015H301.589ZM300.621 375.764V375.086H303.583V375.764H300.621ZM305.776 379.098C305.417 379.098 305.092 379.01 304.8 378.833C304.507 378.651 304.276 378.406 304.105 378.097C303.939 377.788 303.857 377.441 303.857 377.055C303.857 376.669 303.939 376.321 304.105 376.012C304.276 375.704 304.505 375.458 304.791 375.276C305.084 375.094 305.412 375.003 305.776 375.003C306.074 375.003 306.338 375.067 306.57 375.193C306.807 375.315 306.997 375.486 307.141 375.706C307.284 375.921 307.364 376.172 307.381 376.459V377.642C307.364 377.923 307.284 378.174 307.141 378.395C307.003 378.616 306.815 378.789 306.578 378.916C306.347 379.037 306.079 379.098 305.776 379.098ZM305.9 378.395C306.269 378.395 306.567 378.271 306.793 378.023C307.019 377.769 307.133 377.446 307.133 377.055C307.133 376.785 307.08 376.55 306.975 376.352C306.876 376.148 306.733 375.99 306.545 375.88C306.358 375.764 306.14 375.706 305.892 375.706C305.643 375.706 305.423 375.764 305.23 375.88C305.042 375.996 304.893 376.156 304.783 376.36C304.678 376.558 304.626 376.787 304.626 377.046C304.626 377.311 304.678 377.546 304.783 377.75C304.893 377.948 305.045 378.105 305.238 378.221C305.431 378.337 305.652 378.395 305.9 378.395ZM307.083 379.015V377.956L307.224 376.997L307.083 376.045V375.086H307.836V379.015H307.083ZM310.5 379.098C310.18 379.098 309.89 379.026 309.631 378.883C309.377 378.734 309.179 378.53 309.036 378.271C308.892 378.012 308.82 377.711 308.82 377.369V375.086H309.565V377.336C309.565 377.551 309.601 377.739 309.673 377.899C309.75 378.053 309.86 378.172 310.003 378.254C310.147 378.337 310.315 378.378 310.508 378.378C310.8 378.378 311.029 378.287 311.195 378.105C311.36 377.918 311.443 377.661 311.443 377.336V375.086H312.187V377.369C312.187 377.711 312.116 378.012 311.972 378.271C311.829 378.53 311.63 378.734 311.377 378.883C311.129 379.026 310.836 379.098 310.5 379.098ZM313.185 379.015V373.109H313.93V379.015H313.185ZM315.623 379.015V373.44H316.368V379.015H315.623ZM314.655 375.764V375.086H317.336V375.764H314.655Z" fill="#1A237E"/>
</svg>
