<svg width="440" height="440" viewBox="0 0 440 440" fill="none" xmlns="http://www.w3.org/2000/svg">
<rect width="440" height="440" rx="5.86667" fill="#E9ECFF"/>
<g filter="url(#filter0_d_1802_491)">
<rect x="17" y="122.439" width="173.308" height="195.122" rx="12.1194" fill="white"/>
<rect x="17.303" y="122.742" width="172.702" height="194.516" rx="11.8164" stroke="#EFF0F6" stroke-width="0.60597"/>
</g>
<path d="M78.8088 167.886C78.8088 166.213 80.1653 164.856 81.8387 164.856C83.512 164.856 84.8685 166.213 84.8685 167.886L84.8685 282.415C84.8685 284.088 83.512 285.445 81.8387 285.445C80.1653 285.445 78.8088 284.088 78.8088 282.415L78.8088 167.886Z" fill="#D4D8FF"/>
<path d="M78.8088 196.973C78.8088 195.299 80.1653 193.943 81.8387 193.943C83.512 193.943 84.8685 195.299 84.8685 196.973L84.8685 283.021C84.8685 284.694 83.512 286.05 81.8387 286.05C80.1653 286.05 78.8088 284.694 78.8088 283.021L78.8088 196.973Z" fill="url(#paint0_linear_1802_491)" fill-opacity="0.8"/>
<path d="M103.654 167.886C103.654 166.213 105.01 164.856 106.684 164.856C108.357 164.856 109.713 166.213 109.713 167.886L109.713 282.415C109.713 284.088 108.357 285.445 106.684 285.445C105.01 285.445 103.654 284.088 103.654 282.415L103.654 167.886Z" fill="#D4D8FF"/>
<g filter="url(#filter1_d_1802_491)">
<path d="M103.654 243.027C103.654 241.354 105.01 239.997 106.684 239.997C108.357 239.997 109.713 241.354 109.713 243.027L109.713 283.021C109.713 284.694 108.357 286.051 106.684 286.051C105.01 286.051 103.654 284.694 103.654 283.021L103.654 243.027Z" fill="url(#paint1_linear_1802_491)" fill-opacity="0.8" shape-rendering="crispEdges"/>
</g>
<path d="M127.892 167.886C127.892 166.213 129.249 164.856 130.922 164.856C132.596 164.856 133.952 166.213 133.952 167.886L133.952 282.415C133.952 284.088 132.596 285.445 130.922 285.445C129.249 285.445 127.892 284.088 127.892 282.415L127.892 167.886Z" fill="#D4D8FF"/>
<g filter="url(#filter2_d_1802_491)">
<path d="M128.498 228.483C128.498 226.81 129.855 225.454 131.528 225.454C133.202 225.454 134.558 226.81 134.558 228.483L134.558 283.021C134.558 284.694 133.202 286.051 131.528 286.051C129.855 286.051 128.498 284.694 128.498 283.021L128.498 228.483Z" fill="url(#paint2_linear_1802_491)" fill-opacity="0.8" shape-rendering="crispEdges"/>
</g>
<path d="M152.737 167.886C152.737 166.213 154.094 164.856 155.767 164.856C157.44 164.856 158.797 166.213 158.797 167.886L158.797 282.415C158.797 284.088 157.44 285.445 155.767 285.445C154.094 285.445 152.737 284.088 152.737 282.415L152.737 167.886Z" fill="#D4D8FF"/>
<g filter="url(#filter3_d_1802_491)">
<path d="M152.737 205.457C152.737 203.783 154.094 202.427 155.767 202.427C157.44 202.427 158.797 203.783 158.797 205.457L158.797 283.021C158.797 284.694 157.44 286.051 155.767 286.051C154.094 286.051 152.737 284.694 152.737 283.021L152.737 205.457Z" fill="url(#paint3_linear_1802_491)" fill-opacity="0.8" shape-rendering="crispEdges"/>
</g>
<g opacity="0.5">
<path d="M33.1935 170.25V169.258H31.097V168.68L33.164 165.851H33.8549V168.68H34.4632V169.258H33.8549V170.25H33.1935ZM31.6108 168.934L31.4986 168.68H33.1935V166.406L33.3825 166.465L31.6108 168.934ZM36.8047 170.321C36.4543 170.321 36.1472 170.227 35.8834 170.038C35.6196 169.845 35.4129 169.579 35.2633 169.241C35.1176 168.898 35.0448 168.5 35.0448 168.048C35.0448 167.591 35.1176 167.193 35.2633 166.855C35.4129 166.516 35.6177 166.252 35.8775 166.063C36.1413 165.874 36.4484 165.78 36.7988 165.78C37.1492 165.78 37.4543 165.874 37.7141 166.063C37.9779 166.252 38.1826 166.518 38.3283 166.861C38.4779 167.199 38.5527 167.595 38.5527 168.048C38.5527 168.5 38.4799 168.898 38.3342 169.241C38.1885 169.579 37.9838 169.845 37.72 170.038C37.4602 170.227 37.1551 170.321 36.8047 170.321ZM36.8047 169.684C37.0212 169.684 37.2082 169.617 37.3657 169.483C37.5232 169.349 37.6452 169.16 37.7318 168.916C37.8185 168.672 37.8618 168.382 37.8618 168.048C37.8618 167.713 37.8185 167.424 37.7318 167.18C37.6452 166.935 37.5232 166.747 37.3657 166.613C37.2082 166.479 37.0192 166.412 36.7988 166.412C36.5822 166.412 36.3952 166.479 36.2377 166.613C36.0803 166.747 35.9582 166.935 35.8716 167.18C35.785 167.424 35.7417 167.713 35.7417 168.048C35.7417 168.378 35.785 168.668 35.8716 168.916C35.9582 169.16 36.0803 169.349 36.2377 169.483C36.3992 169.617 36.5881 169.684 36.8047 169.684ZM41.032 170.321C40.6816 170.321 40.3745 170.227 40.1107 170.038C39.8469 169.845 39.6402 169.579 39.4906 169.241C39.345 168.898 39.2721 168.5 39.2721 168.048C39.2721 167.591 39.345 167.193 39.4906 166.855C39.6402 166.516 39.845 166.252 40.1048 166.063C40.3686 165.874 40.6757 165.78 41.0261 165.78C41.3765 165.78 41.6816 165.874 41.9415 166.063C42.2052 166.252 42.41 166.518 42.5556 166.861C42.7052 167.199 42.78 167.595 42.78 168.048C42.78 168.5 42.7072 168.898 42.5615 169.241C42.4159 169.579 42.2111 169.845 41.9474 170.038C41.6875 170.227 41.3824 170.321 41.032 170.321ZM41.032 169.684C41.2485 169.684 41.4355 169.617 41.593 169.483C41.7505 169.349 41.8726 169.16 41.9592 168.916C42.0458 168.672 42.0891 168.382 42.0891 168.048C42.0891 167.713 42.0458 167.424 41.9592 167.18C41.8726 166.935 41.7505 166.747 41.593 166.613C41.4355 166.479 41.2466 166.412 41.0261 166.412C40.8096 166.412 40.6225 166.479 40.4651 166.613C40.3076 166.747 40.1855 166.935 40.0989 167.18C40.0123 167.424 39.969 167.713 39.969 168.048C39.969 168.378 40.0123 168.668 40.0989 168.916C40.1855 169.16 40.3076 169.349 40.4651 169.483C40.6265 169.617 40.8155 169.684 41.032 169.684Z" fill="black"/>
<path d="M32.8047 198.005C32.5684 198.005 32.346 197.962 32.1373 197.876C31.9326 197.789 31.7554 197.667 31.6058 197.509C31.4602 197.352 31.3558 197.167 31.2928 196.954L31.8834 196.73C31.9621 196.938 32.0822 197.1 32.2436 197.214C32.4051 197.328 32.5921 197.385 32.8047 197.385C32.9779 197.385 33.1275 197.352 33.2535 197.285C33.3834 197.218 33.4838 197.124 33.5547 197.001C33.6295 196.879 33.6669 196.732 33.6669 196.559C33.6669 196.389 33.6295 196.244 33.5547 196.122C33.4838 196 33.3834 195.907 33.2535 195.844C33.1275 195.781 32.9779 195.75 32.8047 195.75C32.7338 195.75 32.661 195.755 32.5862 195.767C32.5153 195.779 32.4523 195.795 32.3972 195.814L32.2436 195.49L33.4011 194.125H31.5291V193.535H34.1807V194.096L33.0468 195.454L33.0291 195.23C33.2929 195.234 33.5251 195.293 33.7259 195.407C33.9267 195.517 34.0822 195.671 34.1925 195.868C34.3066 196.061 34.3637 196.285 34.3637 196.541C34.3637 196.816 34.2968 197.066 34.1629 197.291C34.0291 197.511 33.844 197.687 33.6078 197.816C33.3755 197.942 33.1078 198.005 32.8047 198.005ZM36.8047 198.005C36.4543 198.005 36.1472 197.911 35.8834 197.722C35.6196 197.529 35.4129 197.263 35.2633 196.925C35.1176 196.582 35.0448 196.185 35.0448 195.732C35.0448 195.275 35.1176 194.877 35.2633 194.539C35.4129 194.2 35.6177 193.937 35.8775 193.748C36.1413 193.559 36.4484 193.464 36.7988 193.464C37.1492 193.464 37.4543 193.559 37.7141 193.748C37.9779 193.937 38.1826 194.202 38.3283 194.545C38.4779 194.883 38.5527 195.279 38.5527 195.732C38.5527 196.185 38.4799 196.582 38.3342 196.925C38.1885 197.263 37.9838 197.529 37.72 197.722C37.4602 197.911 37.1551 198.005 36.8047 198.005ZM36.8047 197.368C37.0212 197.368 37.2082 197.301 37.3657 197.167C37.5232 197.033 37.6452 196.844 37.7318 196.6C37.8185 196.356 37.8618 196.066 37.8618 195.732C37.8618 195.397 37.8185 195.108 37.7318 194.864C37.6452 194.62 37.5232 194.431 37.3657 194.297C37.2082 194.163 37.0192 194.096 36.7988 194.096C36.5822 194.096 36.3952 194.163 36.2377 194.297C36.0803 194.431 35.9582 194.62 35.8716 194.864C35.785 195.108 35.7417 195.397 35.7417 195.732C35.7417 196.063 35.785 196.352 35.8716 196.6C35.9582 196.844 36.0803 197.033 36.2377 197.167C36.3992 197.301 36.5881 197.368 36.8047 197.368ZM41.032 198.005C40.6816 198.005 40.3745 197.911 40.1107 197.722C39.8469 197.529 39.6402 197.263 39.4906 196.925C39.345 196.582 39.2721 196.185 39.2721 195.732C39.2721 195.275 39.345 194.877 39.4906 194.539C39.6402 194.2 39.845 193.937 40.1048 193.748C40.3686 193.559 40.6757 193.464 41.0261 193.464C41.3765 193.464 41.6816 193.559 41.9414 193.748C42.2052 193.937 42.41 194.202 42.5556 194.545C42.7052 194.883 42.78 195.279 42.78 195.732C42.78 196.185 42.7072 196.582 42.5615 196.925C42.4159 197.263 42.2111 197.529 41.9474 197.722C41.6875 197.911 41.3824 198.005 41.032 198.005ZM41.032 197.368C41.2485 197.368 41.4355 197.301 41.593 197.167C41.7505 197.033 41.8726 196.844 41.9592 196.6C42.0458 196.356 42.0891 196.066 42.0891 195.732C42.0891 195.397 42.0458 195.108 41.9592 194.864C41.8726 194.62 41.7505 194.431 41.593 194.297C41.4355 194.163 41.2466 194.096 41.0261 194.096C40.8095 194.096 40.6225 194.163 40.4651 194.297C40.3076 194.431 40.1855 194.62 40.0989 194.864C40.0123 195.108 39.969 195.397 39.969 195.732C39.969 196.063 40.0123 196.352 40.0989 196.6C40.1855 196.844 40.3076 197.033 40.4651 197.167C40.6265 197.301 40.8155 197.368 41.032 197.368Z" fill="black"/>
<path d="M31.4504 225.62V225.118L32.6551 223.831C32.8913 223.579 33.0764 223.376 33.2102 223.222C33.348 223.065 33.4464 222.927 33.5055 222.809C33.5685 222.691 33.6 222.567 33.6 222.437C33.6 222.224 33.535 222.061 33.4051 221.947C33.2752 221.829 33.1078 221.77 32.9031 221.77C32.6905 221.77 32.5074 221.831 32.3539 221.953C32.2004 222.071 32.0941 222.244 32.035 222.472L31.4208 222.295C31.4681 222.063 31.5626 221.862 31.7043 221.693C31.846 221.52 32.0193 221.386 32.224 221.291C32.4326 221.197 32.6571 221.15 32.8972 221.15C33.1767 221.15 33.4208 221.203 33.6295 221.309C33.8382 221.411 33.9996 221.555 34.1138 221.74C34.2319 221.925 34.2909 222.14 34.2909 222.384C34.2909 222.545 34.2594 222.703 34.1964 222.856C34.1374 223.006 34.0449 223.165 33.9189 223.335C33.7929 223.5 33.6315 223.687 33.4346 223.896L32.3716 225.03H34.3736V225.62H31.4504ZM36.8047 225.691C36.4543 225.691 36.1472 225.596 35.8834 225.408C35.6196 225.215 35.4129 224.949 35.2633 224.61C35.1176 224.268 35.0448 223.87 35.0448 223.417C35.0448 222.961 35.1176 222.563 35.2633 222.224C35.4129 221.886 35.6177 221.622 35.8775 221.433C36.1413 221.244 36.4484 221.15 36.7988 221.15C37.1492 221.15 37.4543 221.244 37.7141 221.433C37.9779 221.622 38.1826 221.888 38.3283 222.23C38.4779 222.569 38.5527 222.965 38.5527 223.417C38.5527 223.87 38.4799 224.268 38.3342 224.61C38.1885 224.949 37.9838 225.215 37.72 225.408C37.4602 225.596 37.1551 225.691 36.8047 225.691ZM36.8047 225.053C37.0212 225.053 37.2082 224.986 37.3657 224.852C37.5232 224.719 37.6452 224.53 37.7318 224.285C37.8185 224.041 37.8618 223.752 37.8618 223.417C37.8618 223.083 37.8185 222.793 37.7318 222.549C37.6452 222.305 37.5232 222.116 37.3657 221.982C37.2082 221.848 37.0192 221.781 36.7988 221.781C36.5822 221.781 36.3952 221.848 36.2377 221.982C36.0803 222.116 35.9582 222.305 35.8716 222.549C35.785 222.793 35.7417 223.083 35.7417 223.417C35.7417 223.748 35.785 224.037 35.8716 224.285C35.9582 224.53 36.0803 224.719 36.2377 224.852C36.3992 224.986 36.5881 225.053 36.8047 225.053ZM41.032 225.691C40.6816 225.691 40.3745 225.596 40.1107 225.408C39.8469 225.215 39.6402 224.949 39.4906 224.61C39.345 224.268 39.2721 223.87 39.2721 223.417C39.2721 222.961 39.345 222.563 39.4906 222.224C39.6402 221.886 39.845 221.622 40.1048 221.433C40.3686 221.244 40.6757 221.15 41.0261 221.15C41.3765 221.15 41.6816 221.244 41.9414 221.433C42.2052 221.622 42.41 221.888 42.5556 222.23C42.7052 222.569 42.78 222.965 42.78 223.417C42.78 223.87 42.7072 224.268 42.5615 224.61C42.4159 224.949 42.2111 225.215 41.9474 225.408C41.6875 225.596 41.3824 225.691 41.032 225.691ZM41.032 225.053C41.2485 225.053 41.4355 224.986 41.593 224.852C41.7505 224.719 41.8726 224.53 41.9592 224.285C42.0458 224.041 42.0891 223.752 42.0891 223.417C42.0891 223.083 42.0458 222.793 41.9592 222.549C41.8726 222.305 41.7505 222.116 41.593 221.982C41.4355 221.848 41.2466 221.781 41.0261 221.781C40.8095 221.781 40.6225 221.848 40.4651 221.982C40.3076 222.116 40.1855 222.305 40.0989 222.549C40.0123 222.793 39.969 223.083 39.969 223.417C39.969 223.748 40.0123 224.037 40.0989 224.285C40.1855 224.53 40.3076 224.719 40.4651 224.852C40.6265 224.986 40.8155 225.053 41.032 225.053Z" fill="black"/>
<path d="M33.4113 253.304V249.495H32.5668V248.905H34.1023V253.304H33.4113ZM36.8047 253.375C36.4543 253.375 36.1472 253.281 35.8834 253.092C35.6196 252.899 35.4129 252.633 35.2633 252.294C35.1176 251.952 35.0448 251.554 35.0448 251.101C35.0448 250.645 35.1176 250.247 35.2633 249.908C35.4129 249.57 35.6177 249.306 35.8775 249.117C36.1413 248.928 36.4484 248.834 36.7988 248.834C37.1492 248.834 37.4543 248.928 37.7141 249.117C37.9779 249.306 38.1826 249.572 38.3283 249.914C38.4779 250.253 38.5527 250.649 38.5527 251.101C38.5527 251.554 38.4799 251.952 38.3342 252.294C38.1885 252.633 37.9838 252.899 37.72 253.092C37.4602 253.281 37.1551 253.375 36.8047 253.375ZM36.8047 252.737C37.0212 252.737 37.2082 252.67 37.3657 252.536C37.5232 252.403 37.6452 252.214 37.7318 251.97C37.8185 251.725 37.8618 251.436 37.8618 251.101C37.8618 250.767 37.8185 250.477 37.7318 250.233C37.6452 249.989 37.5232 249.8 37.3657 249.666C37.2082 249.533 37.0192 249.466 36.7988 249.466C36.5822 249.466 36.3952 249.533 36.2377 249.666C36.0803 249.8 35.9582 249.989 35.8716 250.233C35.785 250.477 35.7417 250.767 35.7417 251.101C35.7417 251.432 35.785 251.722 35.8716 251.97C35.9582 252.214 36.0803 252.403 36.2377 252.536C36.3992 252.67 36.5881 252.737 36.8047 252.737ZM41.032 253.375C40.6816 253.375 40.3745 253.281 40.1107 253.092C39.8469 252.899 39.6402 252.633 39.4906 252.294C39.345 251.952 39.2721 251.554 39.2721 251.101C39.2721 250.645 39.345 250.247 39.4906 249.908C39.6402 249.57 39.845 249.306 40.1048 249.117C40.3686 248.928 40.6757 248.834 41.0261 248.834C41.3765 248.834 41.6816 248.928 41.9414 249.117C42.2052 249.306 42.41 249.572 42.5556 249.914C42.7052 250.253 42.78 250.649 42.78 251.101C42.78 251.554 42.7072 251.952 42.5615 252.294C42.4159 252.633 42.2111 252.899 41.9474 253.092C41.6875 253.281 41.3824 253.375 41.032 253.375ZM41.032 252.737C41.2485 252.737 41.4355 252.67 41.593 252.536C41.7505 252.403 41.8726 252.214 41.9592 251.97C42.0458 251.725 42.0891 251.436 42.0891 251.101C42.0891 250.767 42.0458 250.477 41.9592 250.233C41.8726 249.989 41.7505 249.8 41.593 249.666C41.4355 249.533 41.2466 249.466 41.0261 249.466C40.8095 249.466 40.6225 249.533 40.4651 249.666C40.3076 249.8 40.1855 249.989 40.0989 250.233C40.0123 250.477 39.969 250.767 39.969 251.101C39.969 251.432 40.0123 251.722 40.0989 251.97C40.1855 252.214 40.3076 252.403 40.4651 252.536C40.6265 252.67 40.8155 252.737 41.032 252.737Z" fill="black"/>
<path d="M40.3171 281.059C39.9668 281.059 39.6597 280.965 39.3959 280.776C39.1321 280.583 38.9254 280.317 38.7758 279.978C38.6301 279.636 38.5573 279.238 38.5573 278.786C38.5573 278.329 38.6301 277.931 38.7758 277.593C38.9254 277.254 39.1301 276.99 39.39 276.801C39.6538 276.612 39.9608 276.518 40.3112 276.518C40.6616 276.518 40.9668 276.612 41.2266 276.801C41.4904 276.99 41.6951 277.256 41.8408 277.598C41.9904 277.937 42.0652 278.333 42.0652 278.786C42.0652 279.238 41.9924 279.636 41.8467 279.978C41.701 280.317 41.4963 280.583 41.2325 280.776C40.9727 280.965 40.6675 281.059 40.3171 281.059ZM40.3171 280.421C40.5337 280.421 40.7207 280.354 40.8782 280.221C41.0357 280.087 41.1577 279.898 41.2443 279.654C41.3309 279.41 41.3742 279.12 41.3742 278.786C41.3742 278.451 41.3309 278.161 41.2443 277.917C41.1577 277.673 41.0357 277.484 40.8782 277.35C40.7207 277.217 40.5317 277.15 40.3112 277.15C40.0947 277.15 39.9077 277.217 39.7502 277.35C39.5927 277.484 39.4707 277.673 39.3841 277.917C39.2975 278.161 39.2541 278.451 39.2541 278.786C39.2541 279.116 39.2975 279.406 39.3841 279.654C39.4707 279.898 39.5927 280.087 39.7502 280.221C39.9116 280.354 40.1006 280.421 40.3171 280.421Z" fill="black"/>
</g>
<path d="M29.8234 140.528V134.208H30.6548V140.528H29.8234ZM31.8736 140.528V135.956H32.6457V136.846L32.5184 136.77C32.6315 136.482 32.8125 136.258 33.0613 136.1C33.3159 135.936 33.6128 135.854 33.9521 135.854C34.2802 135.854 34.5714 135.927 34.8259 136.074C35.0861 136.221 35.2897 136.425 35.4367 136.685C35.5895 136.945 35.6658 137.24 35.6658 137.568V140.528H34.8683V137.822C34.8683 137.568 34.8231 137.353 34.7326 137.177C34.6421 137.002 34.512 136.866 34.3424 136.77C34.1784 136.668 33.9889 136.617 33.774 136.617C33.559 136.617 33.3668 136.668 33.1971 136.77C33.0331 136.866 32.903 137.005 32.8068 137.186C32.7107 137.361 32.6626 137.573 32.6626 137.822V140.528H31.8736ZM37.8912 140.528L36.1011 135.956H36.9834L38.4171 139.824H38.1117L39.5539 135.956H40.4362L38.6377 140.528H37.8912ZM43.1377 140.63C42.6966 140.63 42.2978 140.528 41.9415 140.325C41.5852 140.115 41.3024 139.83 41.0932 139.468C40.8839 139.106 40.7793 138.696 40.7793 138.238C40.7793 137.78 40.8811 137.372 41.0847 137.016C41.294 136.66 41.5767 136.377 41.9331 136.168C42.2894 135.958 42.6909 135.854 43.1377 135.854C43.5789 135.854 43.9776 135.958 44.3339 136.168C44.6902 136.371 44.9702 136.651 45.1738 137.008C45.383 137.364 45.4877 137.774 45.4877 138.238C45.4877 138.702 45.3802 139.114 45.1653 139.476C44.9504 139.833 44.6648 140.115 44.3085 140.325C43.9578 140.528 43.5676 140.63 43.1377 140.63ZM43.1377 139.867C43.4205 139.867 43.675 139.796 43.9012 139.655C44.1331 139.513 44.3141 139.318 44.4442 139.069C44.5799 138.82 44.6478 138.543 44.6478 138.238C44.6478 137.927 44.5799 137.652 44.4442 137.415C44.3141 137.172 44.1331 136.979 43.9012 136.838C43.675 136.691 43.4205 136.617 43.1377 136.617C42.8493 136.617 42.5891 136.691 42.3572 136.838C42.131 136.979 41.95 137.172 41.8143 137.415C41.6785 137.652 41.6107 137.927 41.6107 138.238C41.6107 138.543 41.6785 138.82 41.8143 139.069C41.95 139.318 42.131 139.513 42.3572 139.655C42.5891 139.796 42.8493 139.867 43.1377 139.867ZM46.4234 140.528V135.956H47.2124V140.528H46.4234ZM46.4234 135.226V134.208H47.2124V135.226H46.4234ZM50.4642 140.63C50.0174 140.63 49.6186 140.525 49.268 140.316C48.923 140.107 48.6515 139.821 48.4535 139.459C48.2556 139.097 48.1566 138.69 48.1566 138.238C48.1566 137.78 48.2556 137.372 48.4535 137.016C48.6515 136.66 48.923 136.377 49.268 136.168C49.6186 135.958 50.0174 135.854 50.4642 135.854C50.7639 135.854 51.0439 135.908 51.304 136.015C51.5642 136.123 51.7933 136.267 51.9912 136.448C52.1892 136.629 52.3334 136.841 52.4239 137.084L51.7197 137.423C51.6123 137.186 51.4483 136.993 51.2277 136.846C51.0071 136.694 50.7526 136.617 50.4642 136.617C50.187 136.617 49.9353 136.688 49.7091 136.829C49.4885 136.971 49.3132 137.163 49.1831 137.406C49.0531 137.65 48.988 137.93 48.988 138.246C48.988 138.552 49.0531 138.829 49.1831 139.078C49.3132 139.321 49.4885 139.513 49.7091 139.655C49.9353 139.796 50.187 139.867 50.4642 139.867C50.7526 139.867 51.0071 139.793 51.2277 139.646C51.4483 139.493 51.6123 139.293 51.7197 139.044L52.4239 139.4C52.3334 139.638 52.1892 139.85 51.9912 140.036C51.7933 140.217 51.5642 140.361 51.304 140.469C51.0439 140.576 50.7639 140.63 50.4642 140.63ZM55.4656 140.63C55.0244 140.63 54.6313 140.525 54.2863 140.316C53.9413 140.107 53.6699 139.821 53.4719 139.459C53.274 139.092 53.175 138.682 53.175 138.229C53.175 137.771 53.2711 137.364 53.4634 137.008C53.6614 136.651 53.9272 136.371 54.2609 136.168C54.6002 135.958 54.9792 135.854 55.3977 135.854C55.737 135.854 56.0368 135.916 56.297 136.041C56.5628 136.159 56.7862 136.323 56.9672 136.533C57.1538 136.736 57.2952 136.971 57.3913 137.237C57.4931 137.497 57.544 137.768 57.544 138.051C57.544 138.113 57.5384 138.184 57.5271 138.263C57.5214 138.337 57.5129 138.407 57.5016 138.475H53.7519V137.797H57.0435L56.6702 138.102C56.7211 137.808 56.6929 137.545 56.5854 137.313C56.4779 137.081 56.3196 136.897 56.1103 136.762C55.9011 136.626 55.6635 136.558 55.3977 136.558C55.1319 136.558 54.8887 136.626 54.6681 136.762C54.4475 136.897 54.275 137.092 54.1506 137.347C54.0318 137.596 53.9838 137.893 54.0064 138.238C53.9838 138.571 54.0347 138.866 54.1591 139.12C54.2892 139.369 54.4702 139.564 54.702 139.705C54.9396 139.841 55.1969 139.909 55.474 139.909C55.7795 139.909 56.0368 139.838 56.2461 139.697C56.4553 139.556 56.625 139.375 56.7551 139.154L57.4168 139.493C57.3263 139.703 57.1849 139.895 56.9926 140.07C56.806 140.24 56.5826 140.376 56.3224 140.477C56.0679 140.579 55.7823 140.63 55.4656 140.63ZM60.1168 140.63C59.6586 140.63 59.2599 140.517 58.9206 140.291C58.5812 140.065 58.3409 139.759 58.1995 139.375L58.8273 139.069C58.9573 139.341 59.1355 139.556 59.3617 139.714C59.5879 139.872 59.8396 139.951 60.1168 139.951C60.3656 139.951 60.572 139.892 60.7361 139.773C60.9001 139.655 60.9821 139.499 60.9821 139.307C60.9821 139.171 60.9425 139.063 60.8633 138.984C60.7898 138.899 60.6993 138.834 60.5918 138.789C60.4844 138.738 60.3854 138.702 60.2949 138.679L59.6077 138.484C59.1949 138.365 58.8923 138.195 58.7 137.975C58.5134 137.754 58.42 137.497 58.42 137.203C58.42 136.931 58.4879 136.697 58.6236 136.499C58.765 136.295 58.9545 136.137 59.192 136.024C59.4352 135.91 59.7067 135.854 60.0065 135.854C60.408 135.854 60.7672 135.956 61.0839 136.159C61.4063 136.363 61.6353 136.648 61.7711 137.016L61.1263 137.313C61.0245 137.076 60.8718 136.889 60.6682 136.753C60.4646 136.612 60.2355 136.541 59.981 136.541C59.7491 136.541 59.5653 136.6 59.4296 136.719C59.2938 136.832 59.226 136.977 59.226 137.152C59.226 137.282 59.2599 137.389 59.3278 137.474C59.3957 137.553 59.4777 137.616 59.5738 137.661C59.67 137.7 59.7633 137.734 59.8538 137.763L60.6003 137.983C60.9736 138.091 61.262 138.258 61.4656 138.484C61.6749 138.71 61.7795 138.981 61.7795 139.298C61.7795 139.553 61.7088 139.782 61.5674 139.985C61.4261 140.189 61.2309 140.347 60.9821 140.46C60.7332 140.574 60.4448 140.63 60.1168 140.63ZM66.3572 140.63C65.9557 140.63 65.588 140.557 65.2544 140.41C64.9207 140.257 64.6379 140.05 64.406 139.79C64.1741 139.53 64.0073 139.239 63.9055 138.916L64.6266 138.62C64.7793 139.027 65.0055 139.341 65.3053 139.561C65.6107 139.776 65.967 139.884 66.3742 139.884C66.623 139.884 66.8408 139.844 67.0274 139.765C67.2141 139.686 67.3583 139.575 67.4601 139.434C67.5676 139.287 67.6213 139.117 67.6213 138.925C67.6213 138.659 67.5449 138.45 67.3922 138.297C67.2452 138.139 67.0274 138.02 66.739 137.941L65.5767 137.585C65.1186 137.443 64.768 137.22 64.5248 136.914C64.2816 136.609 64.16 136.258 64.16 135.862C64.16 135.517 64.242 135.215 64.406 134.955C64.5757 134.689 64.8076 134.482 65.1017 134.335C65.4014 134.183 65.7408 134.106 66.1197 134.106C66.4986 134.106 66.8408 134.174 67.1462 134.31C67.4573 134.446 67.7203 134.629 67.9352 134.861C68.1501 135.088 68.3085 135.348 68.4103 135.642L67.6976 135.939C67.5619 135.582 67.3583 135.314 67.0868 135.133C66.8153 134.946 66.4958 134.853 66.1282 134.853C65.9019 134.853 65.7012 134.892 65.5258 134.972C65.3562 135.045 65.2233 135.155 65.1271 135.302C65.0366 135.444 64.9914 135.613 64.9914 135.811C64.9914 136.043 65.0649 136.25 65.2119 136.431C65.359 136.612 65.5824 136.75 65.8821 136.846L66.9426 137.16C67.4403 137.313 67.8164 137.531 68.0709 137.814C68.3254 138.096 68.4527 138.447 68.4527 138.866C68.4527 139.211 68.3622 139.516 68.1812 139.782C68.0059 140.048 67.7598 140.257 67.4431 140.41C67.1321 140.557 66.7701 140.63 66.3572 140.63ZM71.5872 140.63C71.1461 140.63 70.753 140.525 70.408 140.316C70.063 140.107 69.7915 139.821 69.5936 139.459C69.3956 139.092 69.2967 138.682 69.2967 138.229C69.2967 137.771 69.3928 137.364 69.5851 137.008C69.783 136.651 70.0489 136.371 70.3826 136.168C70.7219 135.958 71.1008 135.854 71.5194 135.854C71.8587 135.854 72.1585 135.916 72.4186 136.041C72.6844 136.159 72.9078 136.323 73.0888 136.533C73.2755 136.736 73.4169 136.971 73.513 137.237C73.6148 137.497 73.6657 137.768 73.6657 138.051C73.6657 138.113 73.66 138.184 73.6487 138.263C73.6431 138.337 73.6346 138.407 73.6233 138.475H69.8735V137.797H73.1652L72.7919 138.102C72.8428 137.808 72.8145 137.545 72.7071 137.313C72.5996 137.081 72.4412 136.897 72.232 136.762C72.0227 136.626 71.7852 136.558 71.5194 136.558C71.2535 136.558 71.0103 136.626 70.7898 136.762C70.5692 136.897 70.3967 137.092 70.2723 137.347C70.1535 137.596 70.1054 137.893 70.128 138.238C70.1054 138.571 70.1563 138.866 70.2808 139.12C70.4108 139.369 70.5918 139.564 70.8237 139.705C71.0612 139.841 71.3186 139.909 71.5957 139.909C71.9011 139.909 72.1585 139.838 72.3677 139.697C72.577 139.556 72.7466 139.375 72.8767 139.154L73.5385 139.493C73.448 139.703 73.3066 139.895 73.1143 140.07C72.9276 140.24 72.7042 140.376 72.4441 140.477C72.1896 140.579 71.9039 140.63 71.5872 140.63ZM74.6011 140.528V135.956H75.3731V136.846L75.2458 136.77C75.3589 136.482 75.5399 136.258 75.7888 136.1C76.0433 135.936 76.3402 135.854 76.6796 135.854C77.0076 135.854 77.2989 135.927 77.5534 136.074C77.8135 136.221 78.0171 136.425 78.1642 136.685C78.3169 136.945 78.3932 137.24 78.3932 137.568V140.528H77.5958V137.822C77.5958 137.568 77.5505 137.353 77.4601 137.177C77.3696 137.002 77.2395 136.866 77.0698 136.77C76.9058 136.668 76.7163 136.617 76.5014 136.617C76.2865 136.617 76.0942 136.668 75.9245 136.77C75.7605 136.866 75.6304 137.005 75.5343 137.186C75.4381 137.361 75.3901 137.573 75.3901 137.822V140.528H74.6011ZM81.2868 140.579C80.84 140.579 80.495 140.452 80.2518 140.197C80.0143 139.943 79.8955 139.584 79.8955 139.12V136.711H79.0641V135.956H79.2338C79.4374 135.956 79.5986 135.893 79.7173 135.769C79.8361 135.645 79.8955 135.481 79.8955 135.277V134.904H80.6845V135.956H81.711V136.711H80.6845V139.095C80.6845 139.247 80.7071 139.38 80.7523 139.493C80.8032 139.606 80.8853 139.697 80.9984 139.765C81.1115 139.827 81.2614 139.858 81.448 139.858C81.4876 139.858 81.5357 139.855 81.5922 139.85C81.6544 139.844 81.711 139.838 81.7619 139.833V140.528C81.6884 140.545 81.6064 140.557 81.5159 140.562C81.4254 140.574 81.349 140.579 81.2868 140.579Z" fill="#4D4D4D"/>
<path d="M138.718 139.74V134.323H139.663L141.692 137.079H141.241L143.226 134.323H144.171V139.74H143.175V135.45L143.56 135.544L141.503 138.286H141.386L139.379 135.544L139.706 135.45V139.74H138.718ZM147.074 139.827C146.687 139.827 146.333 139.738 146.013 139.558C145.698 139.379 145.446 139.134 145.257 138.824C145.072 138.514 144.98 138.16 144.98 137.762C144.98 137.365 145.072 137.011 145.257 136.701C145.446 136.39 145.698 136.146 146.013 135.966C146.328 135.787 146.682 135.697 147.074 135.697C147.462 135.697 147.814 135.787 148.129 135.966C148.444 136.146 148.694 136.39 148.878 136.701C149.067 137.006 149.161 137.36 149.161 137.762C149.161 138.16 149.067 138.514 148.878 138.824C148.689 139.134 148.437 139.379 148.122 139.558C147.806 139.738 147.457 139.827 147.074 139.827ZM147.074 138.955C147.288 138.955 147.474 138.904 147.634 138.802C147.799 138.7 147.928 138.56 148.02 138.38C148.117 138.196 148.165 137.99 148.165 137.762C148.165 137.53 148.117 137.326 148.02 137.152C147.928 136.972 147.799 136.832 147.634 136.73C147.474 136.623 147.288 136.57 147.074 136.57C146.856 136.57 146.665 136.623 146.5 136.73C146.335 136.832 146.204 136.972 146.107 137.152C146.015 137.326 145.969 137.53 145.969 137.762C145.969 137.99 146.015 138.196 146.107 138.38C146.204 138.56 146.335 138.7 146.5 138.802C146.665 138.904 146.856 138.955 147.074 138.955ZM149.896 139.74V135.784H150.79V136.563L150.718 136.424C150.81 136.187 150.96 136.007 151.168 135.886C151.382 135.76 151.629 135.697 151.91 135.697C152.201 135.697 152.458 135.76 152.681 135.886C152.909 136.012 153.086 136.189 153.212 136.417C153.338 136.64 153.401 136.899 153.401 137.195V139.74H152.448V137.421C152.448 137.246 152.414 137.096 152.346 136.97C152.279 136.844 152.184 136.747 152.063 136.679C151.947 136.606 151.808 136.57 151.648 136.57C151.493 136.57 151.355 136.606 151.234 136.679C151.113 136.747 151.018 136.844 150.95 136.97C150.882 137.096 150.848 137.246 150.848 137.421V139.74H149.896ZM156.022 139.784C155.576 139.784 155.229 139.663 154.982 139.42C154.74 139.173 154.618 138.826 154.618 138.38V136.635H153.935V135.784H154.008C154.201 135.784 154.352 135.734 154.458 135.632C154.565 135.53 154.618 135.382 154.618 135.188V134.883H155.571V135.784H156.48V136.635H155.571V138.33C155.571 138.46 155.593 138.572 155.636 138.664C155.685 138.756 155.758 138.826 155.855 138.875C155.956 138.923 156.085 138.948 156.24 138.948C156.274 138.948 156.313 138.945 156.356 138.94C156.405 138.936 156.451 138.931 156.494 138.926V139.74C156.427 139.75 156.349 139.76 156.262 139.769C156.175 139.779 156.095 139.784 156.022 139.784ZM157.234 139.74V134.236H158.187V136.563L158.056 136.424C158.148 136.187 158.298 136.007 158.507 135.886C158.72 135.76 158.967 135.697 159.249 135.697C159.54 135.697 159.796 135.76 160.019 135.886C160.247 136.012 160.424 136.189 160.55 136.417C160.676 136.64 160.739 136.899 160.739 137.195V139.74H159.787V137.421C159.787 137.246 159.753 137.096 159.685 136.97C159.617 136.844 159.523 136.747 159.401 136.679C159.285 136.606 159.147 136.57 158.987 136.57C158.832 136.57 158.694 136.606 158.572 136.679C158.451 136.747 158.357 136.844 158.289 136.97C158.221 137.096 158.187 137.246 158.187 137.421V139.74H157.234Z" fill="#A3AED0"/>
<path d="M72.8291 300.322L74.6979 294.905H75.9778L77.8466 300.322H76.7704L76.385 299.159H74.2907L73.8981 300.322H72.8291ZM74.5743 298.286H76.1014L75.1997 295.588H75.476L74.5743 298.286ZM78.3816 301.777V296.366H79.276V297.152L79.1888 296.955C79.3245 296.742 79.5087 296.577 79.7414 296.461C79.9741 296.34 80.2432 296.279 80.5486 296.279C80.9218 296.279 81.2588 296.371 81.5593 296.556C81.8599 296.74 82.0974 296.987 82.272 297.297C82.4513 297.608 82.541 297.957 82.541 298.344C82.541 298.727 82.4537 299.076 82.2792 299.391C82.1047 299.707 81.8672 299.956 81.5666 300.14C81.266 300.32 80.9243 300.41 80.5413 300.41C80.2553 300.41 79.9911 300.354 79.7487 300.242C79.5111 300.126 79.3221 299.961 79.1815 299.748L79.3342 299.559V301.777H78.3816ZM80.4322 299.537C80.6504 299.537 80.8443 299.486 81.014 299.384C81.1836 299.282 81.3145 299.142 81.4066 298.962C81.5036 298.783 81.5521 298.577 81.5521 298.344C81.5521 298.112 81.5036 297.908 81.4066 297.734C81.3145 297.554 81.1836 297.414 81.014 297.312C80.8443 297.205 80.6504 297.152 80.4322 297.152C80.2238 297.152 80.0347 297.203 79.865 297.305C79.7002 297.406 79.5693 297.549 79.4724 297.734C79.3803 297.913 79.3342 298.117 79.3342 298.344C79.3342 298.577 79.3803 298.783 79.4724 298.962C79.5693 299.142 79.7002 299.282 79.865 299.384C80.0347 299.486 80.2238 299.537 80.4322 299.537ZM83.2794 300.322V296.366H84.1738V297.246L84.1011 297.115C84.1932 296.82 84.3362 296.614 84.5301 296.497C84.7289 296.381 84.9664 296.323 85.2427 296.323H85.4754V297.166H85.1336C84.8622 297.166 84.644 297.251 84.4792 297.421C84.3144 297.586 84.232 297.818 84.232 298.119V300.322H83.2794ZM86.0113 300.322V296.366H86.9638V300.322H86.0113ZM86.0113 295.923V294.905H86.9638V295.923H86.0113ZM87.8555 300.322V294.818H88.8081V300.322H87.8555Z" fill="#0F2552"/>
<path d="M98.7234 300.322V294.905H99.6687L101.697 297.661H101.247L103.232 294.905H104.177V300.322H103.181V296.032L103.566 296.127L101.508 298.868H101.392L99.3851 296.127L99.7123 296.032V300.322H98.7234ZM106.346 300.41C106.07 300.41 105.83 300.363 105.626 300.271C105.422 300.179 105.265 300.048 105.153 299.879C105.042 299.704 104.986 299.503 104.986 299.275C104.986 299.057 105.035 298.863 105.131 298.693C105.228 298.519 105.379 298.373 105.582 298.257C105.786 298.141 106.043 298.058 106.353 298.01L107.647 297.799V298.526L106.535 298.715C106.346 298.749 106.205 298.81 106.113 298.897C106.021 298.984 105.975 299.098 105.975 299.239C105.975 299.375 106.026 299.484 106.128 299.566C106.234 299.644 106.365 299.682 106.52 299.682C106.719 299.682 106.894 299.641 107.044 299.559C107.199 299.471 107.318 299.353 107.4 299.202C107.487 299.052 107.531 298.887 107.531 298.708V297.69C107.531 297.52 107.463 297.38 107.328 297.268C107.197 297.152 107.022 297.094 106.804 297.094C106.6 297.094 106.419 297.149 106.259 297.261C106.103 297.368 105.99 297.511 105.917 297.69L105.139 297.312C105.216 297.103 105.338 296.924 105.502 296.774C105.672 296.619 105.871 296.497 106.099 296.41C106.326 296.323 106.574 296.279 106.84 296.279C107.165 296.279 107.451 296.34 107.698 296.461C107.946 296.577 108.137 296.742 108.273 296.955C108.413 297.164 108.484 297.409 108.484 297.69V300.322H107.582V299.646L107.786 299.631C107.684 299.801 107.563 299.944 107.422 300.06C107.281 300.172 107.121 300.259 106.942 300.322C106.763 300.38 106.564 300.41 106.346 300.41ZM109.856 301.922C109.75 301.922 109.645 301.912 109.544 301.893C109.442 301.878 109.35 301.849 109.267 301.806V301.013C109.33 301.028 109.405 301.042 109.493 301.057C109.585 301.071 109.67 301.079 109.747 301.079C109.965 301.079 110.123 301.028 110.22 300.926C110.322 300.829 110.411 300.698 110.489 300.533L110.751 299.922L110.736 300.722L109.013 296.366H110.038L111.245 299.581H110.882L112.081 296.366H113.114L111.391 300.722C111.289 300.974 111.165 301.19 111.02 301.369C110.874 301.549 110.705 301.684 110.511 301.777C110.322 301.874 110.103 301.922 109.856 301.922Z" fill="#0F2552"/>
<path d="M122.722 300.322V299.413H123.035C123.268 299.413 123.452 299.348 123.588 299.217C123.728 299.081 123.799 298.902 123.799 298.679V294.905H124.795V298.643C124.795 298.977 124.722 299.27 124.577 299.522C124.436 299.774 124.232 299.971 123.966 300.111C123.704 300.252 123.394 300.322 123.035 300.322H122.722ZM127.16 300.41C126.854 300.41 126.588 300.342 126.36 300.206C126.137 300.07 125.965 299.881 125.844 299.639C125.727 299.396 125.669 299.113 125.669 298.788V296.366H126.622V298.708C126.622 298.873 126.653 299.018 126.716 299.144C126.784 299.265 126.879 299.362 127 299.435C127.126 299.503 127.266 299.537 127.422 299.537C127.577 299.537 127.715 299.503 127.836 299.435C127.957 299.362 128.052 299.263 128.12 299.137C128.188 299.011 128.221 298.861 128.221 298.686V296.366H129.174V300.322H128.272V299.544L128.352 299.682C128.26 299.925 128.108 300.107 127.894 300.228C127.686 300.349 127.441 300.41 127.16 300.41ZM130.072 300.322V296.366H130.966V297.145L130.893 297.006C130.985 296.769 131.136 296.589 131.344 296.468C131.557 296.342 131.805 296.279 132.086 296.279C132.377 296.279 132.634 296.342 132.857 296.468C133.085 296.594 133.261 296.771 133.388 296.999C133.514 297.222 133.577 297.481 133.577 297.777V300.322H132.624V298.003C132.624 297.828 132.59 297.678 132.522 297.552C132.454 297.426 132.36 297.329 132.239 297.261C132.122 297.188 131.984 297.152 131.824 297.152C131.669 297.152 131.531 297.188 131.41 297.261C131.288 297.329 131.194 297.426 131.126 297.552C131.058 297.678 131.024 297.828 131.024 298.003V300.322H130.072ZM136.27 300.41C135.863 300.41 135.507 300.317 135.201 300.133C134.896 299.949 134.658 299.699 134.489 299.384C134.319 299.069 134.234 298.72 134.234 298.337C134.234 297.94 134.319 297.588 134.489 297.283C134.663 296.972 134.898 296.728 135.194 296.548C135.495 296.369 135.829 296.279 136.198 296.279C136.508 296.279 136.779 296.33 137.012 296.432C137.25 296.534 137.451 296.674 137.616 296.854C137.78 297.033 137.906 297.239 137.994 297.472C138.081 297.7 138.125 297.947 138.125 298.213C138.125 298.281 138.12 298.352 138.11 298.424C138.105 298.497 138.093 298.56 138.074 298.613H135.02V297.886H137.536L137.085 298.228C137.128 298.005 137.116 297.806 137.048 297.632C136.985 297.457 136.879 297.319 136.728 297.217C136.583 297.115 136.406 297.065 136.198 297.065C135.999 297.065 135.822 297.115 135.667 297.217C135.512 297.314 135.393 297.46 135.31 297.654C135.233 297.843 135.204 298.073 135.223 298.344C135.204 298.587 135.235 298.802 135.318 298.992C135.405 299.176 135.531 299.319 135.696 299.421C135.866 299.522 136.059 299.573 136.278 299.573C136.496 299.573 136.68 299.527 136.83 299.435C136.985 299.343 137.107 299.219 137.194 299.064L137.965 299.442C137.887 299.631 137.766 299.799 137.601 299.944C137.436 300.09 137.24 300.203 137.012 300.286C136.789 300.368 136.542 300.41 136.27 300.41Z" fill="#0F2552"/>
<path d="M148.173 300.322V299.413H148.486C148.718 299.413 148.903 299.348 149.038 299.217C149.179 299.081 149.249 298.902 149.249 298.679V294.905H150.246V298.643C150.246 298.977 150.173 299.27 150.027 299.522C149.887 299.774 149.683 299.971 149.417 300.111C149.155 300.252 148.845 300.322 148.486 300.322H148.173ZM152.598 300.41C152.293 300.41 152.026 300.342 151.799 300.206C151.576 300.07 151.404 299.881 151.282 299.639C151.166 299.396 151.108 299.113 151.108 298.788V296.366H152.06V298.708C152.06 298.873 152.092 299.018 152.155 299.144C152.223 299.265 152.317 299.362 152.439 299.435C152.565 299.503 152.705 299.537 152.86 299.537C153.015 299.537 153.154 299.503 153.275 299.435C153.396 299.362 153.49 299.263 153.558 299.137C153.626 299.011 153.66 298.861 153.66 298.686V296.366H154.613V300.322H153.711V299.544L153.791 299.682C153.699 299.925 153.546 300.107 153.333 300.228C153.124 300.349 152.88 300.41 152.598 300.41ZM155.498 300.322V294.818H156.451V300.322H155.498ZM157.81 301.922C157.704 301.922 157.599 301.912 157.498 301.893C157.396 301.878 157.304 301.849 157.221 301.806V301.013C157.284 301.028 157.359 301.042 157.447 301.057C157.539 301.071 157.624 301.079 157.701 301.079C157.919 301.079 158.077 301.028 158.174 300.926C158.276 300.829 158.365 300.698 158.443 300.533L158.705 299.922L158.69 300.722L156.967 296.366H157.992L159.199 299.581H158.836L160.035 296.366H161.068L159.345 300.722C159.243 300.974 159.119 301.19 158.974 301.369C158.828 301.549 158.659 301.684 158.465 301.777C158.276 301.874 158.058 301.922 157.81 301.922Z" fill="#0F2552"/>
<path d="M164.963 135.659L167.28 137.977L169.598 135.659L170.31 136.376L167.28 139.406L164.251 136.376L164.963 135.659Z" fill="#A3AED0"/>
<g filter="url(#filter4_d_1802_491)">
<g clip-path="url(#clip0_1802_491)">
<rect x="204.851" y="122.439" width="218.149" height="195.122" rx="11.9483" fill="white"/>
<path d="M371.947 145.704V140.955H373.039L374.423 143.933L375.787 140.955H376.879V145.704H375.963V142.529L374.776 145.08H374.057L372.863 142.542V145.704H371.947ZM379.329 145.786C378.989 145.786 378.689 145.706 378.426 145.548C378.168 145.39 377.965 145.17 377.816 144.89C377.671 144.61 377.599 144.286 377.599 143.92C377.599 143.549 377.671 143.225 377.816 142.95C377.965 142.669 378.171 142.45 378.433 142.291C378.695 142.133 378.996 142.054 379.335 142.054C379.679 142.054 379.98 142.133 380.238 142.291C380.496 142.45 380.697 142.669 380.842 142.95C380.986 143.225 381.059 143.549 381.059 143.92C381.059 144.286 380.986 144.61 380.842 144.89C380.697 145.17 380.493 145.39 380.231 145.548C379.973 145.706 379.672 145.786 379.329 145.786ZM379.329 144.992C379.487 144.992 379.625 144.953 379.743 144.876C379.865 144.795 379.96 144.675 380.027 144.517C380.095 144.354 380.129 144.155 380.129 143.92C380.129 143.68 380.095 143.481 380.027 143.323C379.964 143.164 379.874 143.047 379.756 142.97C379.638 142.888 379.498 142.848 379.335 142.848C379.177 142.848 379.037 142.888 378.915 142.97C378.797 143.047 378.704 143.164 378.637 143.323C378.569 143.481 378.535 143.68 378.535 143.92C378.535 144.155 378.566 144.354 378.63 144.517C378.698 144.675 378.79 144.795 378.908 144.876C379.03 144.953 379.17 144.992 379.329 144.992ZM381.752 145.704V142.135H382.56L382.621 142.665C382.72 142.475 382.865 142.325 383.055 142.217C383.245 142.108 383.473 142.054 383.74 142.054C384.016 142.054 384.251 142.11 384.446 142.224C384.64 142.332 384.79 142.493 384.894 142.705C384.998 142.913 385.05 143.169 385.05 143.472V145.704H384.134V143.553C384.134 143.323 384.073 143.144 383.951 143.017C383.828 142.891 383.657 142.827 383.435 142.827C383.295 142.827 383.166 142.859 383.048 142.922C382.931 142.981 382.838 143.069 382.77 143.187C382.702 143.305 382.668 143.449 382.668 143.621V145.704H381.752ZM387.445 145.704C387.21 145.704 387.001 145.668 386.821 145.596C386.64 145.519 386.499 145.394 386.4 145.222C386.3 145.046 386.251 144.806 386.251 144.503V142.902H385.633V142.135H386.251L386.352 141.138H387.167V142.135H388.089V142.902H387.167V144.517C387.167 144.671 387.2 144.777 387.268 144.836C387.336 144.894 387.451 144.924 387.614 144.924H388.103V145.704H387.445ZM388.789 145.704V140.819H389.705V142.637C389.823 142.461 389.974 142.321 390.16 142.217C390.35 142.108 390.562 142.054 390.797 142.054C391.096 142.054 391.342 142.11 391.537 142.224C391.731 142.337 391.876 142.502 391.971 142.719C392.066 142.936 392.114 143.203 392.114 143.519V145.704H391.204V143.608C391.204 143.354 391.141 143.162 391.014 143.031C390.892 142.895 390.716 142.827 390.485 142.827C390.341 142.827 390.209 142.861 390.092 142.929C389.974 142.992 389.879 143.087 389.807 143.214C389.739 143.341 389.705 143.495 389.705 143.675V145.704H388.789ZM392.927 145.704V140.819H393.843V145.704H392.927ZM395.108 147.197L395.895 145.324H395.691L394.341 142.135H395.332L396.295 144.463L397.164 142.135H398.141L396.071 147.197H395.108Z" fill="#A3AED0"/>
<path d="M405.627 142.745L403.389 144.983L401.151 142.745L405.627 142.745Z" fill="#A3AED0"/>
<path d="M221.351 146.443V140.11H222.573V146.443H221.351ZM223.687 146.443V141.685H224.764L224.845 142.39C224.978 142.137 225.171 141.938 225.424 141.793C225.677 141.648 225.982 141.576 226.338 141.576C226.706 141.576 227.019 141.651 227.278 141.802C227.538 141.947 227.737 142.161 227.875 142.444C228.014 142.722 228.084 143.063 228.084 143.467V146.443H226.862V143.584C226.862 143.271 226.781 143.029 226.618 142.861C226.455 142.692 226.226 142.607 225.931 142.607C225.744 142.607 225.572 142.649 225.415 142.734C225.258 142.812 225.134 142.93 225.044 143.087C224.954 143.244 224.908 143.436 224.908 143.666V146.443H223.687ZM230.409 146.443L228.663 141.685H229.948L231.151 145.294L232.363 141.685H233.63L231.893 146.443H230.409ZM236.176 146.551C235.724 146.551 235.323 146.446 234.973 146.235C234.63 146.024 234.358 145.731 234.159 145.357C233.966 144.983 233.87 144.552 233.87 144.064C233.87 143.569 233.966 143.138 234.159 142.77C234.358 142.396 234.633 142.104 234.982 141.893C235.332 141.682 235.733 141.576 236.186 141.576C236.644 141.576 237.045 141.682 237.389 141.893C237.732 142.104 238.001 142.396 238.194 142.77C238.387 143.138 238.483 143.569 238.483 144.064C238.483 144.552 238.387 144.983 238.194 145.357C238.001 145.731 237.729 146.024 237.38 146.235C237.036 146.446 236.635 146.551 236.176 146.551ZM236.176 145.493C236.388 145.493 236.572 145.442 236.728 145.339C236.891 145.231 237.018 145.071 237.108 144.86C237.199 144.643 237.244 144.377 237.244 144.064C237.244 143.744 237.199 143.479 237.108 143.268C237.024 143.057 236.903 142.9 236.746 142.797C236.59 142.689 236.403 142.634 236.186 142.634C235.974 142.634 235.788 142.689 235.625 142.797C235.468 142.9 235.344 143.057 235.254 143.268C235.163 143.479 235.118 143.744 235.118 144.064C235.118 144.377 235.16 144.643 235.245 144.86C235.335 145.071 235.459 145.231 235.616 145.339C235.778 145.442 235.965 145.493 236.176 145.493ZM239.435 146.443V141.685H240.657V146.443H239.435ZM240.05 141.124C239.827 141.124 239.646 141.06 239.508 140.934C239.369 140.801 239.3 140.635 239.3 140.436C239.3 140.237 239.369 140.074 239.508 139.948C239.646 139.815 239.827 139.749 240.05 139.749C240.274 139.749 240.454 139.815 240.593 139.948C240.738 140.074 240.81 140.237 240.81 140.436C240.81 140.635 240.738 140.801 240.593 140.934C240.454 141.06 240.274 141.124 240.05 141.124ZM243.943 146.551C243.485 146.551 243.078 146.446 242.722 146.235C242.372 146.024 242.098 145.734 241.899 145.366C241.7 144.998 241.6 144.582 241.6 144.118C241.6 143.611 241.7 143.168 241.899 142.788C242.098 142.408 242.372 142.113 242.722 141.902C243.078 141.685 243.485 141.576 243.943 141.576C244.534 141.576 245.029 141.733 245.427 142.046C245.825 142.36 246.081 142.794 246.195 143.349H244.902C244.848 143.126 244.733 142.951 244.558 142.824C244.389 142.692 244.181 142.625 243.934 142.625C243.705 142.625 243.509 142.683 243.346 142.797C243.183 142.912 243.059 143.078 242.975 143.295C242.891 143.506 242.848 143.762 242.848 144.064C242.848 144.287 242.873 144.489 242.921 144.67C242.969 144.851 243.038 145.005 243.129 145.131C243.219 145.252 243.331 145.345 243.464 145.412C243.602 145.478 243.759 145.511 243.934 145.511C244.103 145.511 244.251 145.484 244.377 145.43C244.51 145.369 244.621 145.285 244.712 145.176C244.802 145.062 244.866 144.929 244.902 144.778H246.195C246.087 145.315 245.831 145.746 245.427 146.072C245.023 146.392 244.528 146.551 243.943 146.551ZM249.265 146.551C248.812 146.551 248.411 146.449 248.062 146.244C247.718 146.039 247.449 145.752 247.256 145.384C247.063 145.017 246.967 144.591 246.967 144.109C246.967 143.614 247.063 143.177 247.256 142.797C247.449 142.417 247.718 142.119 248.062 141.902C248.405 141.685 248.806 141.576 249.265 141.576C249.735 141.576 250.136 141.679 250.468 141.884C250.8 142.089 251.053 142.369 251.228 142.725C251.403 143.081 251.49 143.485 251.49 143.937C251.49 143.997 251.49 144.064 251.49 144.136C251.49 144.208 251.484 144.284 251.472 144.362H247.844V143.62H250.269C250.257 143.283 250.157 143.023 249.97 142.842C249.783 142.656 249.551 142.562 249.274 142.562C249.069 142.562 248.882 142.616 248.713 142.725C248.55 142.827 248.417 142.981 248.315 143.186C248.218 143.391 248.17 143.651 248.17 143.964V144.236C248.17 144.501 248.212 144.733 248.297 144.932C248.387 145.131 248.514 145.285 248.677 145.394C248.84 145.502 249.033 145.556 249.256 145.556C249.503 145.556 249.69 145.517 249.817 145.439C249.949 145.354 250.052 145.24 250.124 145.095H251.363C251.279 145.366 251.137 145.614 250.938 145.837C250.745 146.06 250.507 146.235 250.224 146.361C249.94 146.488 249.621 146.551 249.265 146.551Z" fill="#2B3674"/>
<circle cx="314.254" cy="203.654" r="40.4254" transform="rotate(-90 314.254 203.654)" fill="#D4D8FF"/>
<path d="M314.254 163.228C323.438 163.228 332.348 166.355 339.518 172.095C346.688 177.834 351.689 185.844 353.699 194.805C355.71 203.766 354.609 213.145 350.578 221.397C346.547 229.649 339.826 236.283 331.522 240.206C323.218 244.128 313.826 245.107 304.892 242.98C295.958 240.853 288.014 235.747 282.368 228.503C276.723 221.26 273.712 212.309 273.832 203.126C273.952 193.943 277.195 185.074 283.028 177.98L314.254 203.654L314.254 163.228Z" fill="#FFAC90"/>
<path d="M314.254 163.228C322.776 163.228 331.08 165.921 337.979 170.922C344.879 175.924 350.022 182.977 352.673 191.076C355.325 199.175 355.349 207.904 352.743 216.017C350.136 224.131 345.033 231.213 338.161 236.252C331.289 241.292 323.001 244.031 314.479 244.078C305.958 244.126 297.639 241.479 290.712 236.517C283.784 231.554 278.602 224.529 275.906 216.445C273.21 208.361 273.137 199.632 275.698 191.505L314.254 203.654L314.254 163.228Z" fill="#1A237E"/>
<g filter="url(#filter5_d_1802_491)">
<line x1="314.254" y1="289.113" x2="314.254" y2="262.54" stroke="#F4F7FE" stroke-width="0.565391"/>
<path d="M253.16 272.03V267.281H254.761C255.141 267.281 255.455 267.346 255.704 267.477C255.953 267.604 256.136 267.778 256.254 268C256.376 268.217 256.437 268.463 256.437 268.739C256.437 269.006 256.378 269.25 256.261 269.472C256.143 269.694 255.96 269.87 255.711 270.001C255.467 270.132 255.15 270.198 254.761 270.198H253.838V272.03H253.16ZM253.838 269.635H254.734C255.105 269.635 255.365 269.553 255.514 269.391C255.668 269.223 255.745 269.006 255.745 268.739C255.745 268.459 255.668 268.239 255.514 268.081C255.365 267.923 255.105 267.844 254.734 267.844H253.838V269.635ZM257.973 272.111C257.697 272.111 257.468 272.061 257.287 271.962C257.106 271.862 256.971 271.729 256.88 271.562C256.79 271.39 256.745 271.207 256.745 271.012C256.745 270.786 256.803 270.591 256.921 270.429C257.039 270.261 257.204 270.135 257.416 270.049C257.633 269.958 257.891 269.913 258.19 269.913H259.058C259.058 269.696 259.033 269.517 258.983 269.377C258.938 269.232 258.859 269.124 258.746 269.051C258.633 268.979 258.479 268.943 258.285 268.943C258.095 268.943 257.934 268.988 257.803 269.078C257.672 269.169 257.588 269.305 257.552 269.486H256.873C256.901 269.25 256.98 269.051 257.111 268.888C257.242 268.721 257.409 268.594 257.613 268.509C257.821 268.423 258.045 268.38 258.285 268.38C258.61 268.38 258.879 268.436 259.092 268.549C259.309 268.662 259.47 268.823 259.574 269.031C259.682 269.234 259.737 269.479 259.737 269.764V272.03H259.146L259.092 271.446C259.047 271.537 258.988 271.623 258.916 271.704C258.848 271.786 258.766 271.858 258.671 271.921C258.581 271.98 258.477 272.025 258.359 272.057C258.242 272.093 258.113 272.111 257.973 272.111ZM258.095 271.562C258.23 271.562 258.355 271.532 258.468 271.473C258.585 271.41 258.687 271.326 258.773 271.222C258.859 271.118 258.925 271.001 258.97 270.87C259.02 270.734 259.047 270.594 259.051 270.449V270.395H258.258C258.068 270.395 257.914 270.42 257.796 270.469C257.679 270.515 257.593 270.582 257.538 270.673C257.484 270.759 257.457 270.858 257.457 270.971C257.457 271.089 257.482 271.193 257.532 271.283C257.581 271.369 257.654 271.437 257.749 271.487C257.848 271.537 257.964 271.562 258.095 271.562ZM260.594 272.03V268.461H261.273V272.03H260.594ZM260.934 267.864C260.802 267.864 260.694 267.823 260.608 267.742C260.527 267.66 260.486 267.556 260.486 267.43C260.486 267.308 260.527 267.208 260.608 267.131C260.694 267.05 260.802 267.009 260.934 267.009C261.06 267.009 261.167 267.05 261.252 267.131C261.338 267.208 261.381 267.308 261.381 267.43C261.381 267.556 261.338 267.66 261.252 267.742C261.167 267.823 261.06 267.864 260.934 267.864ZM263.593 272.111C263.281 272.111 263.002 272.032 262.758 271.874C262.518 271.711 262.331 271.489 262.195 271.209C262.064 270.928 261.998 270.61 261.998 270.252C261.998 269.886 262.066 269.562 262.202 269.282C262.338 269.002 262.528 268.782 262.772 268.624C263.016 268.461 263.299 268.38 263.62 268.38C263.887 268.38 264.117 268.432 264.312 268.536C264.506 268.64 264.66 268.787 264.773 268.977V267.145H265.452V272.03H264.841L264.78 271.487C264.712 271.596 264.624 271.697 264.515 271.792C264.407 271.887 264.276 271.964 264.122 272.023C263.973 272.082 263.796 272.111 263.593 272.111ZM263.728 271.521C263.936 271.521 264.12 271.469 264.278 271.365C264.436 271.261 264.556 271.114 264.638 270.924C264.723 270.734 264.766 270.508 264.766 270.245C264.766 269.983 264.723 269.757 264.638 269.567C264.556 269.372 264.436 269.225 264.278 269.126C264.12 269.022 263.936 268.97 263.728 268.97C263.529 268.97 263.351 269.022 263.192 269.126C263.034 269.23 262.91 269.377 262.819 269.567C262.733 269.757 262.69 269.983 262.69 270.245C262.69 270.503 262.733 270.729 262.819 270.924C262.91 271.114 263.034 271.261 263.192 271.365C263.351 271.469 263.529 271.521 263.728 271.521Z" fill="#A3AED0"/>
<path d="M256.136 283.666C255.661 283.666 255.226 283.577 254.833 283.401C254.446 283.225 254.137 282.977 253.907 282.658C253.676 282.339 253.561 281.969 253.561 281.549C253.561 281.257 253.608 280.992 253.703 280.755C253.798 280.517 253.931 280.307 254.1 280.124C254.277 279.941 254.483 279.802 254.721 279.707C254.422 279.564 254.182 279.361 253.998 279.096C253.822 278.831 253.734 278.533 253.734 278.201C253.734 277.868 253.822 277.556 253.998 277.264C254.182 276.972 254.45 276.738 254.802 276.562C255.162 276.386 255.606 276.297 256.136 276.297C256.658 276.297 257.096 276.386 257.448 276.562C257.801 276.738 258.066 276.972 258.242 277.264C258.425 277.556 258.517 277.868 258.517 278.201C258.517 278.526 258.425 278.825 258.242 279.096C258.066 279.361 257.832 279.564 257.54 279.707C257.777 279.808 257.981 279.951 258.151 280.134C258.327 280.311 258.463 280.517 258.558 280.755C258.653 280.992 258.7 281.257 258.7 281.549C258.7 281.969 258.585 282.339 258.354 282.658C258.13 282.977 257.822 283.225 257.428 283.401C257.041 283.577 256.61 283.666 256.136 283.666ZM256.136 282.516C256.536 282.516 256.838 282.414 257.041 282.21C257.252 282.007 257.357 281.749 257.357 281.437C257.357 281.091 257.248 280.819 257.031 280.623C256.814 280.419 256.515 280.317 256.136 280.317C255.749 280.317 255.444 280.419 255.22 280.623C255.003 280.819 254.894 281.091 254.894 281.437C254.894 281.749 254.999 282.007 255.209 282.21C255.427 282.414 255.735 282.516 256.136 282.516ZM256.136 279.31C256.461 279.31 256.716 279.222 256.899 279.045C257.082 278.869 257.174 278.642 257.174 278.363C257.174 278.065 257.082 277.834 256.899 277.671C256.716 277.502 256.461 277.417 256.136 277.417C255.803 277.417 255.545 277.502 255.362 277.671C255.179 277.834 255.087 278.068 255.087 278.374C255.087 278.645 255.179 278.869 255.362 279.045C255.545 279.222 255.803 279.31 256.136 279.31ZM262.637 283.666C262.013 283.666 261.477 283.51 261.029 283.197C260.581 282.885 260.235 282.455 259.991 281.905C259.753 281.349 259.635 280.707 259.635 279.981C259.635 279.256 259.753 278.618 259.991 278.068C260.235 277.512 260.581 277.078 261.029 276.766C261.477 276.453 262.013 276.297 262.637 276.297C263.261 276.297 263.794 276.453 264.235 276.766C264.682 277.078 265.025 277.512 265.262 278.068C265.507 278.618 265.629 279.256 265.629 279.981C265.629 280.707 265.507 281.349 265.262 281.905C265.025 282.455 264.682 282.885 264.235 283.197C263.794 283.51 263.261 283.666 262.637 283.666ZM262.637 282.434C262.949 282.434 263.224 282.336 263.461 282.139C263.705 281.935 263.892 281.651 264.021 281.284C264.157 280.918 264.224 280.484 264.224 279.981C264.224 279.473 264.157 279.038 264.021 278.679C263.892 278.312 263.705 278.031 263.461 277.834C263.224 277.637 262.949 277.539 262.637 277.539C262.318 277.539 262.036 277.637 261.792 277.834C261.555 278.031 261.368 278.312 261.232 278.679C261.097 279.038 261.029 279.473 261.029 279.981C261.029 280.484 261.097 280.918 261.232 281.284C261.368 281.651 261.555 281.935 261.792 282.139C262.036 282.336 262.318 282.434 262.637 282.434ZM267.965 283.543L271.965 276.42H273.308L269.309 283.543H267.965ZM273.186 283.666C272.854 283.666 272.552 283.594 272.28 283.452C272.016 283.303 271.802 283.092 271.639 282.821C271.483 282.543 271.405 282.217 271.405 281.844C271.405 281.464 271.483 281.138 271.639 280.867C271.802 280.596 272.016 280.389 272.28 280.246C272.552 280.097 272.85 280.022 273.176 280.022C273.515 280.022 273.817 280.097 274.082 280.246C274.346 280.389 274.553 280.596 274.703 280.867C274.859 281.138 274.937 281.464 274.937 281.844C274.937 282.217 274.859 282.543 274.703 282.821C274.547 283.092 274.336 283.303 274.072 283.452C273.807 283.594 273.512 283.666 273.186 283.666ZM273.166 282.719C273.302 282.719 273.42 282.685 273.522 282.617C273.631 282.549 273.715 282.451 273.776 282.322C273.838 282.193 273.868 282.034 273.868 281.844C273.868 281.647 273.838 281.484 273.776 281.355C273.715 281.22 273.634 281.118 273.532 281.05C273.43 280.982 273.312 280.948 273.176 280.948C273.047 280.948 272.928 280.982 272.82 281.05C272.718 281.118 272.637 281.22 272.576 281.355C272.515 281.484 272.484 281.647 272.484 281.844C272.484 282.034 272.515 282.193 272.576 282.322C272.637 282.451 272.718 282.549 272.82 282.617C272.922 282.685 273.037 282.719 273.166 282.719ZM268.149 279.951C267.816 279.951 267.514 279.876 267.243 279.727C266.978 279.578 266.768 279.367 266.612 279.096C266.456 278.825 266.378 278.502 266.378 278.129C266.378 277.743 266.456 277.417 266.612 277.152C266.768 276.881 266.978 276.671 267.243 276.521C267.514 276.372 267.816 276.297 268.149 276.297C268.481 276.297 268.78 276.372 269.044 276.521C269.309 276.671 269.519 276.881 269.675 277.152C269.831 277.417 269.909 277.743 269.909 278.129C269.909 278.502 269.831 278.825 269.675 279.096C269.519 279.367 269.309 279.578 269.044 279.727C268.78 279.876 268.481 279.951 268.149 279.951ZM268.138 279.004C268.274 279.004 268.393 278.971 268.495 278.903C268.603 278.835 268.685 278.737 268.739 278.608C268.8 278.479 268.83 278.319 268.83 278.129C268.83 277.926 268.8 277.76 268.739 277.631C268.685 277.502 268.603 277.403 268.495 277.335C268.393 277.268 268.277 277.234 268.149 277.234C268.02 277.234 267.901 277.268 267.792 277.335C267.684 277.403 267.599 277.505 267.538 277.641C267.477 277.77 267.446 277.933 267.446 278.129C267.446 278.319 267.477 278.479 267.538 278.608C267.599 278.737 267.68 278.835 267.782 278.903C267.891 278.971 268.009 279.004 268.138 279.004Z" fill="#2B3674"/>
<circle cx="247.821" cy="269.889" r="2.26156" fill="#1A237E"/>
<path d="M355.78 272.455C355.45 272.455 355.149 272.39 354.877 272.259C354.606 272.123 354.389 271.919 354.226 271.648C354.068 271.372 353.989 271.022 353.989 270.596V267.625H354.667V270.603C354.667 270.888 354.712 271.123 354.803 271.309C354.898 271.49 355.031 271.625 355.203 271.716C355.375 271.802 355.572 271.845 355.793 271.845C356.024 271.845 356.223 271.802 356.39 271.716C356.558 271.625 356.687 271.49 356.777 271.309C356.872 271.123 356.92 270.888 356.92 270.603V267.625H357.598V270.596C357.598 271.022 357.517 271.372 357.354 271.648C357.191 271.919 356.972 272.123 356.696 272.259C356.424 272.39 356.119 272.455 355.78 272.455ZM358.379 272.374V268.805H358.989L359.03 269.355C359.13 269.156 359.277 269.002 359.471 268.893C359.666 268.78 359.894 268.724 360.156 268.724C360.423 268.724 360.654 268.776 360.848 268.88C361.043 268.979 361.192 269.133 361.296 269.341C361.405 269.545 361.459 269.803 361.459 270.115V272.374H360.781V270.183C360.781 269.893 360.708 269.674 360.564 269.524C360.419 269.375 360.222 269.301 359.973 269.301C359.806 269.301 359.652 269.339 359.512 269.416C359.376 269.493 359.265 269.606 359.179 269.755C359.098 269.904 359.057 270.085 359.057 270.298V272.374H358.379ZM362.265 273.867V268.805H362.876L362.943 269.334C363.011 269.221 363.099 269.12 363.208 269.029C363.317 268.939 363.445 268.866 363.595 268.812C363.744 268.753 363.918 268.724 364.117 268.724C364.438 268.724 364.719 268.805 364.958 268.968C365.203 269.131 365.39 269.353 365.522 269.633C365.657 269.913 365.725 270.235 365.725 270.596C365.725 270.954 365.655 271.273 365.515 271.553C365.379 271.834 365.189 272.055 364.945 272.218C364.705 272.376 364.429 272.455 364.117 272.455C363.846 272.455 363.611 272.403 363.412 272.299C363.213 272.191 363.056 272.042 362.943 271.852V273.867H362.265ZM363.995 271.865C364.194 271.865 364.37 271.815 364.524 271.716C364.678 271.612 364.8 271.465 364.891 271.275C364.986 271.08 365.033 270.852 365.033 270.59C365.033 270.327 364.986 270.101 364.891 269.911C364.8 269.721 364.678 269.574 364.524 269.47C364.37 269.366 364.194 269.314 363.995 269.314C363.782 269.314 363.597 269.366 363.439 269.47C363.285 269.574 363.165 269.721 363.079 269.911C362.993 270.101 362.95 270.327 362.95 270.59C362.95 270.852 362.993 271.078 363.079 271.268C363.165 271.458 363.285 271.605 363.439 271.709C363.597 271.813 363.782 271.865 363.995 271.865ZM367.542 272.455C367.266 272.455 367.038 272.406 366.857 272.306C366.676 272.207 366.54 272.073 366.45 271.906C366.36 271.734 366.314 271.551 366.314 271.356C366.314 271.13 366.373 270.936 366.491 270.773C366.608 270.605 366.773 270.479 366.986 270.393C367.203 270.302 367.461 270.257 367.759 270.257H368.628C368.628 270.04 368.603 269.861 368.553 269.721C368.508 269.576 368.429 269.468 368.316 269.396C368.203 269.323 368.049 269.287 367.854 269.287C367.664 269.287 367.504 269.332 367.373 269.423C367.242 269.513 367.158 269.649 367.122 269.83H366.443C366.47 269.595 366.549 269.396 366.681 269.233C366.812 269.065 366.979 268.939 367.183 268.853C367.391 268.767 367.615 268.724 367.854 268.724C368.18 268.724 368.449 268.78 368.662 268.893C368.879 269.007 369.039 269.167 369.143 269.375C369.252 269.579 369.306 269.823 369.306 270.108V272.374H368.716L368.662 271.791C368.617 271.881 368.558 271.967 368.485 272.048C368.418 272.13 368.336 272.202 368.241 272.265C368.151 272.324 368.047 272.37 367.929 272.401C367.811 272.437 367.683 272.455 367.542 272.455ZM367.664 271.906C367.8 271.906 367.925 271.876 368.038 271.818C368.155 271.754 368.257 271.671 368.343 271.567C368.429 271.463 368.494 271.345 368.54 271.214C368.589 271.078 368.617 270.938 368.621 270.793V270.739H367.827C367.637 270.739 367.484 270.764 367.366 270.814C367.248 270.859 367.162 270.927 367.108 271.017C367.054 271.103 367.027 271.203 367.027 271.316C367.027 271.433 367.052 271.537 367.101 271.628C367.151 271.714 367.223 271.781 367.318 271.831C367.418 271.881 367.533 271.906 367.664 271.906ZM370.164 272.374V268.805H370.843V272.374H370.164ZM370.503 268.208C370.372 268.208 370.264 268.168 370.178 268.086C370.096 268.005 370.056 267.901 370.056 267.774C370.056 267.652 370.096 267.552 370.178 267.475C370.264 267.394 370.372 267.353 370.503 267.353C370.63 267.353 370.736 267.394 370.822 267.475C370.908 267.552 370.951 267.652 370.951 267.774C370.951 267.901 370.908 268.005 370.822 268.086C370.736 268.168 370.63 268.208 370.503 268.208ZM373.162 272.455C372.85 272.455 372.572 272.376 372.328 272.218C372.088 272.055 371.901 271.834 371.765 271.553C371.634 271.273 371.568 270.954 371.568 270.596C371.568 270.23 371.636 269.907 371.772 269.626C371.907 269.346 372.097 269.126 372.342 268.968C372.586 268.805 372.868 268.724 373.19 268.724C373.456 268.724 373.687 268.776 373.882 268.88C374.076 268.984 374.23 269.131 374.343 269.321V267.489H375.021V272.374H374.411L374.35 271.831C374.282 271.94 374.194 272.042 374.085 272.137C373.977 272.232 373.845 272.308 373.692 272.367C373.542 272.426 373.366 272.455 373.162 272.455ZM373.298 271.865C373.506 271.865 373.689 271.813 373.848 271.709C374.006 271.605 374.126 271.458 374.207 271.268C374.293 271.078 374.336 270.852 374.336 270.59C374.336 270.327 374.293 270.101 374.207 269.911C374.126 269.717 374.006 269.57 373.848 269.47C373.689 269.366 373.506 269.314 373.298 269.314C373.099 269.314 372.92 269.366 372.762 269.47C372.604 269.574 372.479 269.721 372.389 269.911C372.303 270.101 372.26 270.327 372.26 270.59C372.26 270.847 372.303 271.074 372.389 271.268C372.479 271.458 372.604 271.605 372.762 271.709C372.92 271.813 373.099 271.865 373.298 271.865Z" fill="#A3AED0"/>
<path d="M356.741 283.666C356.205 283.666 355.754 283.571 355.387 283.381C355.028 283.184 354.739 282.919 354.522 282.587C354.305 282.254 354.146 281.885 354.044 281.478C353.949 281.064 353.901 280.643 353.901 280.216C353.901 279.415 354.01 278.723 354.227 278.139C354.451 277.556 354.773 277.105 355.194 276.786C355.615 276.46 356.123 276.297 356.72 276.297C357.216 276.297 357.636 276.392 357.982 276.582C358.328 276.772 358.596 277.02 358.786 277.325C358.983 277.624 359.095 277.949 359.122 278.302H357.85C357.796 278.024 357.67 277.81 357.474 277.661C357.277 277.505 357.019 277.427 356.7 277.427C356.408 277.427 356.154 277.519 355.937 277.702C355.72 277.878 355.553 278.143 355.438 278.496C355.33 278.848 355.265 279.289 355.245 279.819C355.245 279.839 355.245 279.856 355.245 279.87C355.245 279.883 355.245 279.897 355.245 279.91C355.34 279.72 355.475 279.554 355.652 279.412C355.828 279.262 356.028 279.147 356.252 279.066C356.483 278.977 356.724 278.933 356.975 278.933C357.375 278.933 357.742 279.028 358.074 279.218C358.406 279.408 358.674 279.676 358.878 280.022C359.081 280.368 359.183 280.779 359.183 281.254C359.183 281.681 359.078 282.081 358.868 282.455C358.664 282.821 358.379 283.116 358.013 283.34C357.647 283.557 357.222 283.666 356.741 283.666ZM356.659 282.485C356.89 282.485 357.094 282.438 357.27 282.343C357.453 282.241 357.596 282.102 357.697 281.925C357.806 281.742 357.86 281.532 357.86 281.294C357.86 281.05 357.806 280.84 357.697 280.663C357.596 280.48 357.453 280.341 357.27 280.246C357.087 280.144 356.88 280.093 356.649 280.093C356.418 280.093 356.212 280.144 356.028 280.246C355.845 280.341 355.699 280.477 355.591 280.653C355.482 280.83 355.428 281.04 355.428 281.284C355.428 281.528 355.482 281.742 355.591 281.925C355.699 282.102 355.845 282.241 356.028 282.343C356.212 282.438 356.422 282.485 356.659 282.485ZM361.605 283.543L365.604 276.42H366.948L362.948 283.543H361.605ZM366.825 283.666C366.493 283.666 366.191 283.594 365.92 283.452C365.655 283.303 365.441 283.092 365.279 282.821C365.123 282.543 365.045 282.217 365.045 281.844C365.045 281.464 365.123 281.138 365.279 280.867C365.441 280.596 365.655 280.389 365.92 280.246C366.191 280.097 366.49 280.022 366.815 280.022C367.155 280.022 367.456 280.097 367.721 280.246C367.986 280.389 368.193 280.596 368.342 280.867C368.498 281.138 368.576 281.464 368.576 281.844C368.576 282.217 368.498 282.543 368.342 282.821C368.186 283.092 367.975 283.303 367.711 283.452C367.446 283.594 367.151 283.666 366.825 283.666ZM366.805 282.719C366.941 282.719 367.06 282.685 367.161 282.617C367.27 282.549 367.355 282.451 367.416 282.322C367.477 282.193 367.507 282.034 367.507 281.844C367.507 281.647 367.477 281.484 367.416 281.355C367.355 281.22 367.273 281.118 367.172 281.05C367.07 280.982 366.951 280.948 366.815 280.948C366.686 280.948 366.568 280.982 366.459 281.05C366.357 281.118 366.276 281.22 366.215 281.355C366.154 281.484 366.123 281.647 366.123 281.844C366.123 282.034 366.154 282.193 366.215 282.322C366.276 282.451 366.357 282.549 366.459 282.617C366.561 282.685 366.676 282.719 366.805 282.719ZM361.788 279.951C361.455 279.951 361.153 279.876 360.882 279.727C360.617 279.578 360.407 279.367 360.251 279.096C360.095 278.825 360.017 278.502 360.017 278.129C360.017 277.743 360.095 277.417 360.251 277.152C360.407 276.881 360.617 276.671 360.882 276.521C361.153 276.372 361.455 276.297 361.788 276.297C362.12 276.297 362.419 276.372 362.683 276.521C362.948 276.671 363.158 276.881 363.314 277.152C363.47 277.417 363.548 277.743 363.548 278.129C363.548 278.502 363.47 278.825 363.314 279.096C363.158 279.367 362.948 279.578 362.683 279.727C362.419 279.876 362.12 279.951 361.788 279.951ZM361.778 279.004C361.913 279.004 362.032 278.971 362.134 278.903C362.242 278.835 362.324 278.737 362.378 278.608C362.439 278.479 362.47 278.319 362.47 278.129C362.47 277.926 362.439 277.76 362.378 277.631C362.324 277.502 362.242 277.403 362.134 277.335C362.032 277.268 361.917 277.234 361.788 277.234C361.659 277.234 361.54 277.268 361.432 277.335C361.323 277.403 361.238 277.505 361.177 277.641C361.116 277.77 361.086 277.933 361.086 278.129C361.086 278.319 361.116 278.479 361.177 278.608C361.238 278.737 361.32 278.835 361.421 278.903C361.53 278.971 361.649 279.004 361.778 279.004Z" fill="#2B3674"/>
<circle cx="348.263" cy="269.889" r="2.26156" fill="#FFAC90"/>
</g>
</g>
</g>
<defs>
<filter id="filter0_d_1802_491" x="4.88059" y="113.349" width="197.546" height="219.361" filterUnits="userSpaceOnUse" color-interpolation-filters="sRGB">
<feFlood flood-opacity="0" result="BackgroundImageFix"/>
<feColorMatrix in="SourceAlpha" type="matrix" values="0 0 0 0 0 0 0 0 0 0 0 0 0 0 0 0 0 0 127 0" result="hardAlpha"/>
<feOffset dy="3.02985"/>
<feGaussianBlur stdDeviation="6.0597"/>
<feComposite in2="hardAlpha" operator="out"/>
<feColorMatrix type="matrix" values="0 0 0 0 0 0 0 0 0 0 0 0 0 0 0 0 0 0 0.05 0"/>
<feBlend mode="normal" in2="BackgroundImageFix" result="effect1_dropShadow_1802_491"/>
<feBlend mode="normal" in="SourceGraphic" in2="effect1_dropShadow_1802_491" result="shape"/>
</filter>
<filter id="filter1_d_1802_491" x="97.594" y="233.937" width="18.1791" height="58.1731" filterUnits="userSpaceOnUse" color-interpolation-filters="sRGB">
<feFlood flood-opacity="0" result="BackgroundImageFix"/>
<feColorMatrix in="SourceAlpha" type="matrix" values="0 0 0 0 0 0 0 0 0 0 0 0 0 0 0 0 0 0 127 0" result="hardAlpha"/>
<feOffset/>
<feGaussianBlur stdDeviation="3.02985"/>
<feComposite in2="hardAlpha" operator="out"/>
<feColorMatrix type="matrix" values="0 0 0 0 0 0 0 0 0 0 0 0 0 0 0 0 0 0 0.1 0"/>
<feBlend mode="normal" in2="BackgroundImageFix" result="effect1_dropShadow_1802_491"/>
<feBlend mode="normal" in="SourceGraphic" in2="effect1_dropShadow_1802_491" result="shape"/>
</filter>
<filter id="filter2_d_1802_491" x="122.439" y="219.394" width="18.1791" height="72.7166" filterUnits="userSpaceOnUse" color-interpolation-filters="sRGB">
<feFlood flood-opacity="0" result="BackgroundImageFix"/>
<feColorMatrix in="SourceAlpha" type="matrix" values="0 0 0 0 0 0 0 0 0 0 0 0 0 0 0 0 0 0 127 0" result="hardAlpha"/>
<feOffset/>
<feGaussianBlur stdDeviation="3.02985"/>
<feComposite in2="hardAlpha" operator="out"/>
<feColorMatrix type="matrix" values="0 0 0 0 0 0 0 0 0 0 0 0 0 0 0 0 0 0 0.1 0"/>
<feBlend mode="normal" in2="BackgroundImageFix" result="effect1_dropShadow_1802_491"/>
<feBlend mode="normal" in="SourceGraphic" in2="effect1_dropShadow_1802_491" result="shape"/>
</filter>
<filter id="filter3_d_1802_491" x="146.677" y="196.367" width="18.1791" height="95.7434" filterUnits="userSpaceOnUse" color-interpolation-filters="sRGB">
<feFlood flood-opacity="0" result="BackgroundImageFix"/>
<feColorMatrix in="SourceAlpha" type="matrix" values="0 0 0 0 0 0 0 0 0 0 0 0 0 0 0 0 0 0 127 0" result="hardAlpha"/>
<feOffset/>
<feGaussianBlur stdDeviation="3.02985"/>
<feComposite in2="hardAlpha" operator="out"/>
<feColorMatrix type="matrix" values="0 0 0 0 0 0 0 0 0 0 0 0 0 0 0 0 0 0 0.1 0"/>
<feBlend mode="normal" in2="BackgroundImageFix" result="effect1_dropShadow_1802_491"/>
<feBlend mode="normal" in="SourceGraphic" in2="effect1_dropShadow_1802_491" result="shape"/>
</filter>
<filter id="filter4_d_1802_491" x="190.308" y="112.743" width="247.236" height="224.209" filterUnits="userSpaceOnUse" color-interpolation-filters="sRGB">
<feFlood flood-opacity="0" result="BackgroundImageFix"/>
<feColorMatrix in="SourceAlpha" type="matrix" values="0 0 0 0 0 0 0 0 0 0 0 0 0 0 0 0 0 0 127 0" result="hardAlpha"/>
<feOffset dy="4.84776"/>
<feGaussianBlur stdDeviation="7.27164"/>
<feComposite in2="hardAlpha" operator="out"/>
<feColorMatrix type="matrix" values="0 0 0 0 0 0 0 0 0 0 0 0 0 0 0 0 0 0 0.1 0"/>
<feBlend mode="normal" in2="BackgroundImageFix" result="effect1_dropShadow_1802_491"/>
<feBlend mode="normal" in="SourceGraphic" in2="effect1_dropShadow_1802_491" result="shape"/>
</filter>
<filter id="filter5_d_1802_491" x="200.328" y="242.186" width="226.525" height="87.6356" filterUnits="userSpaceOnUse" color-interpolation-filters="sRGB">
<feFlood flood-opacity="0" result="BackgroundImageFix"/>
<feColorMatrix in="SourceAlpha" type="matrix" values="0 0 0 0 0 0 0 0 0 0 0 0 0 0 0 0 0 0 127 0" result="hardAlpha"/>
<feOffset dy="10.177"/>
<feGaussianBlur stdDeviation="11.3078"/>
<feColorMatrix type="matrix" values="0 0 0 0 0.439216 0 0 0 0 0.564706 0 0 0 0 0.690196 0 0 0 0.12 0"/>
<feBlend mode="normal" in2="BackgroundImageFix" result="effect1_dropShadow_1802_491"/>
<feBlend mode="normal" in="SourceGraphic" in2="effect1_dropShadow_1802_491" result="shape"/>
</filter>
<linearGradient id="paint0_linear_1802_491" x1="82.9172" y1="240.504" x2="-30.2839" y2="113.764" gradientUnits="userSpaceOnUse">
<stop stop-color="#1A237E"/>
<stop offset="1" stop-color="#1A237E"/>
</linearGradient>
<linearGradient id="paint1_linear_1802_491" x1="107.762" y1="263.278" x2="65.3446" y2="168.297" gradientUnits="userSpaceOnUse">
<stop stop-color="#1A237E"/>
<stop offset="1" stop-color="#1A237E"/>
</linearGradient>
<linearGradient id="paint2_linear_1802_491" x1="132.607" y1="256.086" x2="67.1312" y2="144.66" gradientUnits="userSpaceOnUse">
<stop stop-color="#1A237E"/>
<stop offset="1" stop-color="#1A237E"/>
</linearGradient>
<linearGradient id="paint3_linear_1802_491" x1="156.846" y1="244.699" x2="55.6454" y2="119.901" gradientUnits="userSpaceOnUse">
<stop stop-color="#1A237E"/>
<stop offset="1" stop-color="#1A237E"/>
</linearGradient>
<clipPath id="clip0_1802_491">
<rect x="204.851" y="122.439" width="218.149" height="195.122" rx="11.9483" fill="white"/>
</clipPath>
</defs>
</svg>
