<svg width="600" height="600" viewBox="0 0 600 600" fill="none" xmlns="http://www.w3.org/2000/svg">
<rect x="80" y="80" width="440" height="440" rx="220" fill="url(#paint0_linear_1772_4138)"/>
<path d="M472.433 436.578C483.901 422.09 493.497 406.167 501.101 388.976C501.222 388.841 501.331 388.689 501.409 388.513C501.486 388.337 501.524 388.155 501.542 387.973C509.062 370.746 514.303 352.909 517.221 334.663C517.232 334.641 517.247 334.622 517.257 334.599C517.395 334.287 517.429 333.958 517.384 333.644C518.943 323.593 519.799 313.42 519.942 303.158C520.079 293.3 519.545 283.507 518.378 273.806C518.454 273.435 518.401 273.06 518.249 272.727C516.004 254.824 511.556 237.247 504.919 220.204C502.652 214.382 500.143 208.695 497.422 203.132C497.371 202.752 497.201 202.396 496.927 202.121C487.279 182.649 474.876 164.815 459.887 148.936C440.55 128.452 417.714 112.088 391.968 100.25C391.332 99.9474 390.692 99.6501 390.049 99.3578C389.979 99.3244 389.91 99.2897 389.84 99.2566C389.408 99.013 388.966 98.7904 388.512 98.591C388.058 98.3915 387.595 98.216 387.124 98.0631C387.052 98.0339 386.98 98.0062 386.908 97.9774C386.258 97.7019 385.606 97.4317 384.953 97.167C358.821 86.2067 331.324 80.4501 303.157 80.0585C281.322 79.7544 259.797 82.6778 238.928 88.7397C238.541 88.7241 238.163 88.8395 237.849 89.0591C231.912 90.8164 226.025 92.8139 220.204 95.0808C203.16 101.718 187.204 110.328 172.498 120.781C172.149 120.894 171.837 121.109 171.615 121.417C163.68 127.117 156.105 133.346 148.936 140.113C141.473 147.158 134.558 154.67 128.207 162.615C127.945 162.794 127.726 163.042 127.589 163.354C127.579 163.376 127.576 163.4 127.567 163.423C116.099 177.912 106.503 193.835 98.8986 211.025C98.7767 211.161 98.6682 211.312 98.5909 211.488C98.5136 211.664 98.4759 211.846 98.4583 212.027C90.9368 229.254 85.6972 247.092 82.779 265.337C82.7682 265.359 82.7529 265.378 82.7427 265.401C82.6056 265.713 82.5714 266.042 82.6163 266.356C81.0575 276.407 80.2008 286.581 80.058 296.843C79.921 306.701 80.4542 316.493 81.6215 326.193C81.545 326.565 81.5983 326.941 81.7505 327.274C83.9955 345.177 88.4433 362.753 95.0801 379.797C97.347 385.618 99.8568 391.306 102.577 396.868C102.628 397.248 102.798 397.604 103.072 397.88C112.72 417.352 125.123 435.186 140.112 451.064C159.431 471.529 182.241 487.88 207.956 499.715C208.62 500.031 209.288 500.341 209.958 500.646C210.026 500.678 210.092 500.712 210.16 500.743C210.591 500.987 211.034 501.209 211.487 501.409C211.941 501.608 212.405 501.784 212.876 501.937C212.945 501.965 213.014 501.991 213.084 502.02C213.762 502.307 214.442 502.589 215.123 502.865C241.232 513.804 268.703 519.551 296.842 519.942C318.677 520.245 340.201 517.322 361.07 511.261C361.458 511.277 361.836 511.161 362.15 510.941C368.087 509.184 373.974 507.186 379.796 504.919C396.839 498.283 412.795 489.673 427.501 479.22C427.849 479.106 428.162 478.892 428.384 478.584C436.319 472.884 443.894 466.655 451.063 459.888C458.527 452.842 465.441 445.331 471.792 437.387C472.053 437.207 472.273 436.959 472.41 436.647C472.421 436.625 472.424 436.601 472.433 436.578ZM101.032 214.485L146.214 234.341C139.137 250.709 133.653 267.415 129.811 284.164L86.2122 265.004C89.0473 247.73 94.0014 230.832 101.032 214.485ZM129.641 166.18L173.241 185.34C163.499 199.497 154.901 214.834 147.631 231.117L102.449 211.261C109.737 195.027 118.835 179.95 129.641 166.18ZM498.968 385.517L453.786 365.661C460.863 349.293 466.347 332.588 470.188 315.838L513.788 334.999C510.953 352.272 505.998 369.171 498.968 385.517ZM450.69 364.301L401.864 342.843C408.974 326.49 414.989 310.017 419.837 293.711L467.032 314.451C463.231 331.205 457.771 347.922 450.69 364.301ZM263.048 464.473L234.966 452.133L255.973 404.333L293.842 420.975C286.001 433.488 278.152 444.956 270.43 455.12C267.929 458.413 265.467 461.53 263.048 464.473ZM205.727 426.685C207.993 414.124 211.132 400.586 215.048 386.347L252.918 402.99L231.912 450.79L203.83 438.449C204.362 434.676 204.993 430.755 205.727 426.685ZM336.952 135.529L365.034 147.87L344.027 195.67L306.158 179.028C313.998 166.514 321.848 155.046 329.569 144.883C332.071 141.59 334.533 138.473 336.952 135.529ZM394.273 173.317C392.007 185.879 388.867 199.417 384.952 213.655L347.083 197.013L368.089 149.213L396.171 161.554C395.638 165.326 395.007 169.248 394.273 173.317ZM369.506 145.989L388.571 102.606C397.644 108.35 400.464 128.03 396.658 157.921L369.506 145.989ZM385.515 101.264L366.45 144.647L339.298 132.714C358.744 109.696 375.149 98.4652 385.515 101.264ZM342.61 198.894L321.604 246.694L278.453 227.731C286.912 211.451 295.583 196.116 304.278 182.049L342.61 198.894ZM320.187 249.918L299.181 297.718L254.356 278.019C261.565 261.699 269.104 245.896 276.832 230.865L320.187 249.918ZM297.764 300.942L276.757 348.742L233.403 329.689C239.249 313.831 245.792 297.59 252.939 281.244L297.764 300.942ZM275.34 351.966L254.334 399.766L216.002 382.92C220.484 367.001 225.917 350.244 232.189 333.003L275.34 351.966ZM230.494 454.014L211.429 497.396C202.356 491.652 199.536 471.973 203.341 442.081L230.494 454.014ZM214.484 498.739L233.55 455.356L260.702 467.289C241.256 490.307 224.851 501.538 214.484 498.739ZM257.39 401.108L278.396 353.309L321.547 372.272C313.087 388.552 304.417 403.887 295.721 417.954L257.39 401.108ZM279.813 350.084L300.819 302.285L345.643 321.984C338.435 338.303 330.896 354.107 323.168 369.138L279.813 350.085L279.813 350.084ZM302.236 299.06L323.242 251.261L366.597 270.314C360.75 286.172 354.207 302.412 347.06 318.759L302.236 299.061L302.236 299.06ZM324.659 248.037L345.666 200.237L383.997 217.083C379.515 233.002 374.082 249.759 367.81 267L324.659 248.037ZM387.252 218.513L428.64 236.702C426.454 253.414 422.8 270.949 417.664 288.909L371.039 268.42C377.311 251.193 382.752 234.441 387.252 218.513ZM388.21 215.087C392.219 200.56 395.428 186.75 397.738 173.942C398.417 170.179 399.01 166.541 399.52 163.026L429.748 176.311C431.736 193.431 431.527 212.595 429.095 233.055L388.21 215.087L388.21 215.087ZM400.023 159.4C401.869 145.398 402.309 133.509 401.327 123.932C400.639 117.223 399.251 111.759 397.182 107.559C414.407 120.076 425.149 142.955 429.228 172.234L400.023 159.4ZM361.18 106.288C353.461 112.041 344.999 120.406 335.932 131.234L306.729 118.4C331.056 101.604 355.175 94.0453 376.044 98.2691C371.551 99.5851 366.587 102.258 361.18 106.288ZM333.602 134.057C331.358 136.81 329.079 139.708 326.766 142.752C318.893 153.115 310.89 164.818 302.9 177.595L262.015 159.628C275.442 144 289.419 130.886 303.374 120.772L333.602 134.057ZM301.024 180.619C292.333 194.704 283.671 210.042 275.223 226.311L228.599 205.822C238.356 189.893 248.803 175.343 259.635 162.43L301.024 180.619ZM273.602 229.446C265.875 244.484 258.338 260.289 251.132 276.602L202.671 255.306C209.981 238.849 218.082 223.305 226.755 208.858L273.602 229.446ZM249.715 279.826C242.57 296.167 236.025 312.407 230.173 328.27L183.326 307.682C188.102 291.523 194.075 275.043 201.254 258.53L249.715 279.826ZM228.96 331.583C222.688 348.809 217.247 365.562 212.748 381.49L171.359 363.301C173.546 346.589 177.2 329.054 182.336 311.094L228.96 331.583ZM211.789 384.916C207.78 399.443 204.571 413.252 202.261 426.061C201.583 429.824 200.99 433.462 200.479 436.977L170.251 423.693C168.264 406.572 168.472 387.408 170.905 366.948L211.789 384.916ZM199.976 440.602C198.13 454.604 197.69 466.494 198.673 476.072C199.361 482.78 200.748 488.245 202.818 492.444C185.593 479.927 174.851 457.047 170.772 427.768L199.976 440.602ZM238.82 493.715C246.539 487.961 255.001 479.597 264.067 468.768L293.271 481.602C268.943 498.398 244.825 505.957 223.956 501.734C228.449 500.418 233.413 497.744 238.82 493.715ZM266.398 465.946C268.642 463.193 270.921 460.296 273.234 457.251C281.107 446.888 289.11 435.184 297.1 422.407L337.984 440.374C324.558 456.002 310.581 469.116 296.625 479.23L266.398 465.946ZM298.975 419.384C307.667 405.298 316.328 389.961 324.776 373.691L371.401 394.181C361.644 410.11 351.197 424.66 340.364 437.573L298.975 419.384ZM326.397 370.556C334.125 355.518 341.661 339.714 348.868 323.4L397.328 344.697C390.019 361.153 381.918 376.698 373.244 391.144L326.397 370.556ZM350.284 320.176C357.429 303.835 363.974 287.596 369.826 271.733L416.673 292.32C411.897 308.479 405.924 324.959 398.745 341.473L350.284 320.176ZM420.831 290.301C425.934 272.566 429.651 255.056 431.908 238.137L473.512 256.421C473.615 274.346 471.702 292.652 467.806 310.945L420.831 290.301ZM432.375 234.496C434.271 218.898 434.91 203.831 434.221 189.593C434.026 185.581 433.726 181.678 433.328 177.883L463.322 191.064C464.924 195.978 466.359 201.022 467.6 206.209C471.173 221.144 473.107 236.686 473.457 252.55L432.375 234.496ZM432.858 173.83C429.662 148.647 421.844 128.578 409.994 114.799C420.65 122.456 430.202 131.832 438.543 142.849C448.246 155.665 456.019 170.308 461.781 186.541L432.858 173.83ZM303.099 116.805L274.175 104.094C290.03 97.3618 306.073 93.1848 322.076 91.6659C335.832 90.36 349.199 91.0556 362.046 93.7278C343.881 94.316 323.811 102.129 303.099 116.805ZM299.795 119.2C296.729 121.473 293.652 123.891 290.565 126.461C279.61 135.582 268.943 146.242 258.734 158.187L217.653 140.133C229.576 129.662 242.333 120.577 255.752 113.109C260.412 110.516 265.098 108.161 269.801 106.019L299.795 119.2ZM256.368 160.994C245.431 174.098 235.045 188.678 225.432 204.43L178.457 183.786C189.298 168.545 201.49 154.757 214.764 142.71L256.368 160.994ZM223.592 207.468C214.858 222.067 206.791 237.638 199.553 253.935L150.727 232.478C158.004 216.185 166.626 200.857 176.398 186.728L223.592 207.468ZM149.31 235.702L198.136 257.159C191.025 273.513 185.01 289.985 180.162 306.292L132.968 285.552C136.769 268.798 142.229 252.081 149.31 235.702ZM179.169 309.702C174.066 327.437 170.348 344.946 168.092 361.865L126.487 343.582C126.384 325.657 128.297 307.351 132.194 289.058L179.169 309.702ZM167.624 365.507C165.729 381.104 165.089 396.172 165.779 410.41C165.973 414.422 166.274 418.325 166.672 422.12L136.678 408.938C135.075 404.025 133.641 398.98 132.4 393.793C128.826 378.858 126.893 363.317 126.542 347.453L167.624 365.507ZM167.142 426.173C170.338 451.355 178.155 471.424 190.005 485.202C179.349 477.546 169.798 468.17 161.456 457.153C151.754 444.338 143.981 429.694 138.219 413.462L167.142 426.173ZM296.901 483.198L325.825 495.908C309.97 502.641 293.926 506.818 277.924 508.337C264.167 509.643 250.801 508.947 237.954 506.275C256.118 505.686 276.189 497.873 296.901 483.198ZM300.205 480.803C303.271 478.53 306.348 476.112 309.435 473.542C320.39 464.421 331.057 453.761 341.265 441.816L382.347 459.87C370.423 470.34 357.667 479.426 344.248 486.894C339.588 489.487 334.903 491.841 330.199 493.984L300.205 480.803ZM343.631 439.008C354.569 425.904 364.954 411.325 374.567 395.572L421.542 416.216C410.701 431.458 398.51 445.246 385.236 457.292L343.631 439.008ZM376.407 392.534C385.142 377.935 393.208 362.365 400.447 346.067L449.273 367.525C441.996 383.817 433.374 399.145 423.602 413.275L376.407 392.534ZM452.369 368.886L497.551 388.742C490.264 404.976 481.166 420.053 470.358 433.823L426.759 414.663C436.5 400.506 445.098 385.169 452.369 368.886ZM514.345 331.397L470.962 312.332C474.897 294.086 476.887 275.818 476.897 257.908L515.124 274.708C516.232 284.097 516.738 293.574 516.605 303.112C516.472 312.627 515.714 322.064 514.345 331.397ZM514.608 270.634L476.875 254.052C476.617 237.4 474.637 221.085 470.889 205.422C469.867 201.149 468.714 196.971 467.45 192.879L494.507 204.769C497.155 210.195 499.599 215.74 501.81 221.416C508.036 237.405 512.305 253.87 514.608 270.634ZM457.46 151.228C471.247 165.833 482.807 182.119 492.017 199.829L466.005 188.397C460.037 170.642 451.746 154.685 441.239 140.808C436.644 134.739 431.688 129.157 426.391 124.071C437.56 132.077 447.941 141.144 457.46 151.228ZM303.11 83.3968C316.975 83.5899 330.676 85.1057 344.127 87.918C336.798 87.456 329.334 87.5796 321.756 88.2987C304.428 89.9435 287.066 94.6268 269.951 102.238L243.94 90.8067C263.213 85.6145 283.029 83.117 303.11 83.3968ZM221.415 98.1917C227.09 95.9817 232.828 94.032 238.616 92.3138L265.673 104.205C261.803 106.041 257.946 108.017 254.107 110.154C240.034 117.985 226.677 127.56 214.236 138.631L176.502 122.048C190.409 112.408 205.426 104.418 221.415 98.1917ZM151.227 142.541C158.163 135.993 165.486 129.957 173.152 124.423L211.379 141.222C198.193 153.341 186.082 167.162 175.301 182.399L131.918 163.333C137.867 156.013 144.307 149.073 151.227 142.541ZM85.6546 268.606L129.038 287.671C125.104 305.917 123.113 324.185 123.104 342.095L84.8761 325.295C83.7686 315.906 83.2628 306.429 83.3957 296.891C83.5277 287.376 84.2856 277.938 85.6546 268.606ZM85.3916 329.368L123.125 345.951C123.383 362.603 125.363 378.917 129.111 394.58C130.133 398.853 131.286 403.031 132.55 407.124L105.493 395.234C102.845 389.808 100.4 384.262 98.1904 378.587C91.9643 362.598 87.6947 346.133 85.3916 329.368ZM142.539 448.774C128.753 434.17 117.192 417.884 107.983 400.174L133.995 411.605C139.962 429.36 148.253 445.317 158.76 459.195C163.355 465.263 168.311 470.845 173.608 475.932C162.439 467.925 152.058 458.858 142.539 448.774ZM296.889 516.606C283.024 516.413 269.324 514.897 255.873 512.084C263.202 512.546 270.666 512.423 278.244 511.703C295.572 510.059 312.934 505.376 330.049 497.764L356.061 509.196C336.787 514.388 316.971 516.886 296.889 516.606ZM378.585 501.811C372.91 504.021 367.172 505.971 361.384 507.689L334.327 495.798C338.197 493.962 342.054 491.985 345.893 489.849C359.966 482.017 373.324 472.443 385.764 461.372L423.498 477.954C409.591 487.595 394.574 495.585 378.585 501.811ZM448.773 457.462C441.837 464.01 434.514 470.046 426.848 475.58L388.621 458.78C401.808 446.662 413.919 432.841 424.698 417.604L468.082 436.669C462.133 443.989 455.693 450.93 448.773 457.462Z" fill="#1A237E"/>
<g filter="url(#filter0_d_1772_4138)">
<rect x="300" y="262" width="254" height="80" rx="40" fill="#00681E" shape-rendering="crispEdges"/>
<path d="M339.543 317H332.952L342.994 287.909H350.92L360.949 317H354.358L347.071 294.557H346.844L339.543 317ZM339.131 305.565H354.699V310.366H339.131V305.565ZM373.179 317.426C370.944 317.426 369.022 316.953 367.412 316.006C365.812 315.049 364.58 313.723 363.719 312.028C362.866 310.333 362.44 308.383 362.44 306.176C362.44 303.941 362.871 301.981 363.733 300.295C364.604 298.6 365.84 297.279 367.44 296.332C369.041 295.376 370.944 294.898 373.151 294.898C375.054 294.898 376.721 295.243 378.151 295.935C379.58 296.626 380.712 297.597 381.545 298.847C382.379 300.097 382.838 301.564 382.923 303.25H377.213C377.052 302.161 376.626 301.285 375.935 300.622C375.253 299.95 374.358 299.614 373.25 299.614C372.312 299.614 371.493 299.869 370.793 300.381C370.101 300.883 369.562 301.616 369.173 302.582C368.785 303.548 368.591 304.718 368.591 306.091C368.591 307.483 368.78 308.667 369.159 309.642C369.547 310.617 370.092 311.361 370.793 311.872C371.493 312.384 372.312 312.639 373.25 312.639C373.941 312.639 374.562 312.497 375.111 312.213C375.67 311.929 376.129 311.517 376.489 310.977C376.858 310.428 377.099 309.77 377.213 309.003H382.923C382.829 310.67 382.374 312.137 381.56 313.406C380.755 314.666 379.642 315.651 378.222 316.361C376.801 317.071 375.12 317.426 373.179 317.426ZM396.656 317.426C394.421 317.426 392.498 316.953 390.888 316.006C389.288 315.049 388.057 313.723 387.195 312.028C386.343 310.333 385.917 308.383 385.917 306.176C385.917 303.941 386.348 301.981 387.21 300.295C388.081 298.6 389.317 297.279 390.917 296.332C392.517 295.376 394.421 294.898 396.627 294.898C398.531 294.898 400.197 295.243 401.627 295.935C403.057 296.626 404.189 297.597 405.022 298.847C405.855 300.097 406.315 301.564 406.4 303.25H400.69C400.529 302.161 400.103 301.285 399.411 300.622C398.729 299.95 397.835 299.614 396.727 299.614C395.789 299.614 394.97 299.869 394.269 300.381C393.578 300.883 393.038 301.616 392.65 302.582C392.262 303.548 392.067 304.718 392.067 306.091C392.067 307.483 392.257 308.667 392.636 309.642C393.024 310.617 393.568 311.361 394.269 311.872C394.97 312.384 395.789 312.639 396.727 312.639C397.418 312.639 398.038 312.497 398.587 312.213C399.146 311.929 399.605 311.517 399.965 310.977C400.335 310.428 400.576 309.77 400.69 309.003H406.4C406.305 310.67 405.851 312.137 405.036 313.406C404.231 314.666 403.119 315.651 401.698 316.361C400.278 317.071 398.597 317.426 396.656 317.426ZM420.217 317.426C417.973 317.426 416.041 316.972 414.422 316.062C412.812 315.144 411.571 313.847 410.7 312.17C409.829 310.485 409.393 308.491 409.393 306.19C409.393 303.946 409.829 301.976 410.7 300.281C411.571 298.586 412.798 297.265 414.379 296.318C415.97 295.371 417.836 294.898 419.976 294.898C421.415 294.898 422.755 295.13 423.996 295.594C425.246 296.048 426.335 296.735 427.263 297.653C428.2 298.572 428.929 299.727 429.45 301.119C429.971 302.502 430.232 304.121 430.232 305.977V307.639H411.808V303.889H424.536C424.536 303.018 424.346 302.246 423.967 301.574C423.589 300.902 423.063 300.376 422.391 299.997C421.728 299.609 420.956 299.415 420.075 299.415C419.157 299.415 418.342 299.628 417.632 300.054C416.931 300.471 416.382 301.034 415.984 301.744C415.587 302.445 415.383 303.226 415.374 304.088V307.653C415.374 308.733 415.572 309.666 415.97 310.452C416.377 311.238 416.95 311.844 417.689 312.27C418.428 312.696 419.304 312.909 420.317 312.909C420.989 312.909 421.605 312.814 422.163 312.625C422.722 312.436 423.2 312.152 423.598 311.773C423.996 311.394 424.299 310.93 424.507 310.381L430.104 310.75C429.82 312.095 429.237 313.269 428.357 314.273C427.485 315.267 426.358 316.044 424.976 316.602C423.603 317.152 422.017 317.426 420.217 317.426ZM434.18 325.182V295.182H440.146V298.847H440.416C440.681 298.259 441.065 297.663 441.567 297.057C442.078 296.441 442.741 295.93 443.555 295.523C444.379 295.106 445.402 294.898 446.624 294.898C448.214 294.898 449.682 295.314 451.027 296.148C452.372 296.972 453.446 298.217 454.251 299.884C455.056 301.541 455.459 303.619 455.459 306.119C455.459 308.553 455.066 310.608 454.28 312.284C453.503 313.951 452.443 315.215 451.098 316.077C449.763 316.929 448.267 317.355 446.609 317.355C445.435 317.355 444.436 317.161 443.612 316.773C442.798 316.384 442.13 315.897 441.609 315.31C441.089 314.713 440.691 314.112 440.416 313.506H440.232V325.182H434.18ZM440.104 306.091C440.104 307.388 440.284 308.52 440.643 309.486C441.003 310.452 441.524 311.205 442.206 311.744C442.888 312.275 443.716 312.54 444.692 312.54C445.677 312.54 446.51 312.27 447.192 311.73C447.874 311.181 448.39 310.423 448.74 309.457C449.1 308.482 449.28 307.36 449.28 306.091C449.28 304.831 449.105 303.723 448.754 302.767C448.404 301.811 447.888 301.062 447.206 300.523C446.524 299.983 445.686 299.713 444.692 299.713C443.707 299.713 442.874 299.973 442.192 300.494C441.519 301.015 441.003 301.754 440.643 302.71C440.284 303.667 440.104 304.794 440.104 306.091ZM471.098 295.182V299.727H457.959V295.182H471.098ZM460.942 289.955H466.993V310.295C466.993 310.854 467.078 311.29 467.249 311.602C467.419 311.905 467.656 312.118 467.959 312.241C468.271 312.365 468.631 312.426 469.038 312.426C469.322 312.426 469.607 312.402 469.891 312.355C470.175 312.298 470.393 312.256 470.544 312.227L471.496 316.73C471.193 316.825 470.767 316.934 470.217 317.057C469.668 317.189 469 317.27 468.214 317.298C466.756 317.355 465.478 317.161 464.379 316.716C463.29 316.271 462.443 315.58 461.837 314.642C461.231 313.705 460.932 312.521 460.942 311.091V289.955ZM484.749 317.426C482.504 317.426 480.572 316.972 478.953 316.062C477.343 315.144 476.103 313.847 475.232 312.17C474.36 310.485 473.925 308.491 473.925 306.19C473.925 303.946 474.36 301.976 475.232 300.281C476.103 298.586 477.329 297.265 478.911 296.318C480.501 295.371 482.367 294.898 484.507 294.898C485.946 294.898 487.286 295.13 488.527 295.594C489.777 296.048 490.866 296.735 491.794 297.653C492.732 298.572 493.461 299.727 493.982 301.119C494.502 302.502 494.763 304.121 494.763 305.977V307.639H476.339V303.889H489.067C489.067 303.018 488.877 302.246 488.499 301.574C488.12 300.902 487.594 300.376 486.922 299.997C486.259 299.609 485.487 299.415 484.607 299.415C483.688 299.415 482.874 299.628 482.163 300.054C481.463 300.471 480.913 301.034 480.516 301.744C480.118 302.445 479.914 303.226 479.905 304.088V307.653C479.905 308.733 480.104 309.666 480.501 310.452C480.909 311.238 481.482 311.844 482.22 312.27C482.959 312.696 483.835 312.909 484.848 312.909C485.52 312.909 486.136 312.814 486.695 312.625C487.253 312.436 487.732 312.152 488.129 311.773C488.527 311.394 488.83 310.93 489.038 310.381L494.635 310.75C494.351 312.095 493.768 313.269 492.888 314.273C492.017 315.267 490.89 316.044 489.507 316.602C488.134 317.152 486.548 317.426 484.749 317.426ZM506.751 317.355C505.094 317.355 503.593 316.929 502.249 316.077C500.913 315.215 499.853 313.951 499.067 312.284C498.29 310.608 497.902 308.553 497.902 306.119C497.902 303.619 498.304 301.541 499.109 299.884C499.914 298.217 500.984 296.972 502.32 296.148C503.664 295.314 505.137 294.898 506.737 294.898C507.959 294.898 508.977 295.106 509.791 295.523C510.615 295.93 511.278 296.441 511.78 297.057C512.291 297.663 512.679 298.259 512.945 298.847H513.129V287.909H519.166V317H513.2V313.506H512.945C512.661 314.112 512.258 314.713 511.737 315.31C511.226 315.897 510.558 316.384 509.734 316.773C508.92 317.161 507.926 317.355 506.751 317.355ZM508.669 312.54C509.644 312.54 510.468 312.275 511.141 311.744C511.822 311.205 512.343 310.452 512.703 309.486C513.072 308.52 513.257 307.388 513.257 306.091C513.257 304.794 513.077 303.667 512.717 302.71C512.357 301.754 511.837 301.015 511.155 300.494C510.473 299.973 509.644 299.713 508.669 299.713C507.675 299.713 506.837 299.983 506.155 300.523C505.473 301.062 504.957 301.811 504.607 302.767C504.256 303.723 504.081 304.831 504.081 306.091C504.081 307.36 504.256 308.482 504.607 309.457C504.966 310.423 505.482 311.181 506.155 311.73C506.837 312.27 507.675 312.54 508.669 312.54Z" fill="white"/>
</g>
<g filter="url(#filter1_d_1772_4138)">
<rect x="300" y="368" width="36" height="36" rx="2.5443" fill="white" shape-rendering="crispEdges"/>
<path d="M319.32 382.024C318.875 381.086 317.92 380.434 316.807 380.434H313.229V378.844H322.77V380.434H320.178C320.56 380.895 320.846 381.436 321.013 382.024H322.77V383.615H321.164C320.966 385.841 319.089 387.59 316.807 387.59H316.227L321.578 393.156H319.375L314.024 387.59V386H316.807C318.207 386 319.367 384.966 319.558 383.615H313.229V382.024H319.32Z" fill="#1A237E"/>
</g>
<g filter="url(#filter2_d_1772_4138)">
<rect x="343.6" y="368" width="36" height="36" rx="2.5443" fill="white" shape-rendering="crispEdges"/>
<path d="M361.91 385.125C360.105 384.656 359.525 384.171 359.525 383.416C359.525 382.549 360.328 381.945 361.671 381.945C363.087 381.945 363.611 382.621 363.659 383.615H365.416C365.361 382.247 364.526 380.991 362.864 380.585V378.844H360.479V380.562C358.936 380.895 357.696 381.897 357.696 383.432C357.696 385.268 359.215 386.183 361.433 386.716C363.421 387.193 363.818 387.892 363.818 388.632C363.818 389.18 363.429 390.055 361.671 390.055C360.034 390.055 359.39 389.323 359.302 388.385H357.553C357.648 390.126 358.952 391.104 360.479 391.43V393.156H362.864V391.446C364.415 391.152 365.647 390.254 365.647 388.624C365.647 386.366 363.715 385.594 361.91 385.125Z" fill="#1A237E"/>
</g>
<g filter="url(#filter3_d_1772_4138)">
<rect x="387.2" y="368" width="36" height="36" rx="2.5443" fill="white" shape-rendering="crispEdges"/>
<path d="M406.79 393.355C408.325 393.355 409.668 392.424 409.97 390.969L408.579 390.27C408.38 391.136 407.848 391.764 406.79 391.764H402.894C403.554 390.969 404.087 389.904 404.087 388.584C404.087 388.306 404.063 388.035 404.023 387.789H406.79V386.199H403.467C402.815 384.943 402.02 384.291 402.02 383.018C402.02 381.484 403.268 380.236 404.802 380.236C405.995 380.236 407.021 380.991 407.41 382.048L408.881 381.428C408.245 379.798 406.663 378.645 404.802 378.645C402.385 378.645 400.429 380.601 400.429 383.018C400.429 384.434 401.057 385.324 401.614 386.199H400.429V387.789H402.393C402.457 388.035 402.497 388.298 402.497 388.584C402.497 390.731 400.429 391.764 400.429 391.764V393.355H406.79Z" fill="#1A237E"/>
</g>
<g filter="url(#filter4_d_1772_4138)">
<rect x="430.8" y="368" width="36" height="36" rx="2.5443" fill="white" shape-rendering="crispEdges"/>
<path d="M451.583 391.168C449.587 391.168 447.862 390.039 447.003 388.385H451.583L452.378 386.795H446.478C446.439 386.533 446.415 386.27 446.415 386C446.415 385.73 446.439 385.467 446.478 385.205H451.583L452.378 383.615H447.003C447.862 381.961 449.595 380.832 451.583 380.832C452.863 380.832 454.04 381.301 454.946 382.08L456.353 380.673C455.089 379.536 453.411 378.844 451.583 378.844C448.466 378.844 445.826 380.84 444.84 383.615H442.042L441.247 385.205H444.475C444.443 385.467 444.427 385.73 444.427 386C444.427 386.27 444.443 386.533 444.475 386.795H442.042L441.247 388.385H444.84C445.826 391.16 448.466 393.156 451.583 393.156C453.419 393.156 455.089 392.464 456.353 391.327L454.938 389.92C454.04 390.699 452.871 391.168 451.583 391.168Z" fill="#1A237E"/>
</g>
<g filter="url(#filter5_d_1772_4138)">
<rect x="474.4" y="368" width="36" height="36" rx="2.5443" fill="white" shape-rendering="crispEdges"/>
<path d="M493.927 385.205H497.171V386.795H493.195V388.385H497.171V389.975H493.195V393.156H491.605V389.975H487.629V388.385H491.605V386.795H487.629V385.205H490.873L486.834 378.844H488.719L492.4 384.64L496.081 378.844H497.966L493.927 385.205Z" fill="#1A237E"/>
</g>
<g filter="url(#filter6_d_1772_4138)">
<rect x="518" y="368" width="36" height="36" rx="2.5443" fill="white" shape-rendering="crispEdges"/>
<path d="M537.193 378.844H532.025V386H530.434V387.59H532.025V389.18H530.434V390.771H532.025V393.156H533.615V390.771H536.795V389.18H533.615V387.59H537.193C539.61 387.59 541.566 385.634 541.566 383.217C541.566 380.8 539.61 378.844 537.193 378.844ZM537.193 386H533.615V380.434H537.193C538.727 380.434 539.975 381.683 539.975 383.217C539.975 384.752 538.727 386 537.193 386Z" fill="#1A237E"/>
</g>
<g filter="url(#filter7_d_1772_4138)">
<rect x="300" y="430" width="254" height="127" rx="30" fill="white" shape-rendering="crispEdges"/>
<path d="M316.9 460.6V458.96H320.68C321.2 458.96 321.66 458.853 322.06 458.64C322.473 458.427 322.793 458.127 323.02 457.74C323.26 457.353 323.38 456.893 323.38 456.36C323.38 455.827 323.26 455.367 323.02 454.98C322.793 454.593 322.473 454.293 322.06 454.08C321.66 453.867 321.2 453.76 320.68 453.76H316.9V452.12H320.8C321.653 452.12 322.413 452.293 323.08 452.64C323.76 452.987 324.293 453.48 324.68 454.12C325.08 454.747 325.28 455.493 325.28 456.36C325.28 457.213 325.08 457.96 324.68 458.6C324.293 459.227 323.76 459.72 323.08 460.08C322.413 460.427 321.653 460.6 320.8 460.6H316.9ZM315.64 466V452.12H317.52V466H315.64ZM325.421 466L331.101 452.12H332.461L338.121 466H336.081L331.421 454.26H332.121L327.421 466H325.421ZM328.121 462.86V461.22H335.421V462.86H328.121ZM342.657 460.36L337.197 452.12H339.377L343.777 458.86H342.797L347.217 452.12H349.357L343.857 460.36H342.657ZM342.337 466V459.12H344.217V466H342.337ZM351.07 466V452.12H352.39L358.27 461.78H357.37L363.25 452.12H364.57V466H362.69V455.42L363.13 455.54L358.49 463.16H357.17L352.53 455.54L352.95 455.42V466H351.07ZM367.847 466V452.12H369.727V466H367.847ZM369.127 466V464.28H377.087V466H369.127ZM369.127 459.72V458.08H376.427V459.72H369.127ZM369.127 453.84V452.12H376.987V453.84H369.127ZM379.644 466V452.12H380.964L381.524 454.3V466H379.644ZM389.244 466L380.724 454.62L380.964 452.12L389.504 463.48L389.244 466ZM389.244 466L388.684 463.94V452.12H390.564V466H389.244ZM397.523 466V452.52H399.403V466H397.523ZM392.803 453.84V452.12H404.103V453.84H392.803ZM410.191 466V452.12H411.511L417.391 461.78H416.491L422.371 452.12H423.691V466H421.811V455.42L422.251 455.54L417.611 463.16H416.291L411.651 455.54L412.071 455.42V466H410.191ZM426.968 466V452.12H428.848V466H426.968ZM428.248 466V464.28H436.208V466H428.248ZM428.248 459.72V458.08H435.548V459.72H428.248ZM428.248 453.84V452.12H436.108V453.84H428.248ZM441.918 466V452.52H443.798V466H441.918ZM437.198 453.84V452.12H448.498V453.84H437.198ZM450.738 466V452.12H452.618V466H450.738ZM459.698 466V452.12H461.578V466H459.698ZM452.018 459.68V457.96H460.158V459.68H452.018ZM471.179 466.2C470.192 466.2 469.272 466.02 468.419 465.66C467.565 465.287 466.819 464.773 466.179 464.12C465.539 463.453 465.039 462.687 464.679 461.82C464.332 460.953 464.159 460.027 464.159 459.04C464.159 458.04 464.332 457.113 464.679 456.26C465.039 455.393 465.532 454.633 466.159 453.98C466.799 453.327 467.539 452.82 468.379 452.46C469.232 452.1 470.152 451.92 471.139 451.92C472.125 451.92 473.039 452.1 473.879 452.46C474.732 452.82 475.479 453.327 476.119 453.98C476.759 454.633 477.259 455.393 477.619 456.26C477.979 457.127 478.159 458.06 478.159 459.06C478.159 460.047 477.979 460.973 477.619 461.84C477.259 462.707 476.759 463.467 476.119 464.12C475.492 464.773 474.752 465.287 473.899 465.66C473.059 466.02 472.152 466.2 471.179 466.2ZM471.139 464.4C472.139 464.4 473.012 464.173 473.759 463.72C474.519 463.253 475.119 462.62 475.559 461.82C475.999 461.007 476.219 460.08 476.219 459.04C476.219 458.267 476.092 457.56 475.839 456.92C475.585 456.267 475.232 455.7 474.779 455.22C474.325 454.74 473.792 454.373 473.179 454.12C472.565 453.853 471.885 453.72 471.139 453.72C470.152 453.72 469.279 453.947 468.519 454.4C467.772 454.853 467.179 455.48 466.739 456.28C466.312 457.08 466.099 458 466.099 459.04C466.099 459.813 466.219 460.533 466.459 461.2C466.712 461.853 467.059 462.42 467.499 462.9C467.952 463.367 468.485 463.733 469.099 464C469.725 464.267 470.405 464.4 471.139 464.4ZM481.978 466V464.28H485.838C486.864 464.28 487.764 464.06 488.538 463.62C489.311 463.167 489.911 462.547 490.338 461.76C490.778 460.973 490.998 460.067 490.998 459.04C490.998 458.027 490.778 457.127 490.338 456.34C489.898 455.553 489.291 454.94 488.518 454.5C487.744 454.06 486.851 453.84 485.838 453.84H481.998V452.12H485.878C486.891 452.12 487.824 452.293 488.678 452.64C489.544 452.987 490.291 453.473 490.918 454.1C491.558 454.727 492.051 455.46 492.398 456.3C492.758 457.14 492.938 458.06 492.938 459.06C492.938 460.047 492.758 460.967 492.398 461.82C492.051 462.66 491.564 463.393 490.938 464.02C490.311 464.647 489.564 465.133 488.698 465.48C487.844 465.827 486.918 466 485.918 466H481.978ZM480.738 466V452.12H482.618V466H480.738Z" fill="#1A237E"/>
<path d="M321.94 501.2C320.94 501.2 320.013 501.02 319.16 500.66C318.307 500.287 317.56 499.773 316.92 499.12C316.293 498.467 315.807 497.707 315.46 496.84C315.113 495.973 314.94 495.047 314.94 494.06C314.94 493.06 315.113 492.127 315.46 491.26C315.807 490.393 316.293 489.64 316.92 489C317.56 488.347 318.3 487.84 319.14 487.48C319.993 487.107 320.92 486.92 321.92 486.92C323.013 486.92 323.973 487.107 324.8 487.48C325.627 487.853 326.36 488.36 327 489L325.7 490.3C325.26 489.807 324.72 489.42 324.08 489.14C323.453 488.86 322.733 488.72 321.92 488.72C321.187 488.72 320.513 488.853 319.9 489.12C319.287 489.373 318.753 489.74 318.3 490.22C317.847 490.7 317.493 491.267 317.24 491.92C317 492.573 316.88 493.287 316.88 494.06C316.88 494.833 317 495.547 317.24 496.2C317.493 496.853 317.847 497.42 318.3 497.9C318.753 498.38 319.287 498.753 319.9 499.02C320.513 499.273 321.187 499.4 321.92 499.4C322.787 499.4 323.54 499.26 324.18 498.98C324.82 498.687 325.36 498.293 325.8 497.8L327.1 499.08C326.46 499.747 325.707 500.267 324.84 500.64C323.987 501.013 323.02 501.2 321.94 501.2ZM329.09 501V491.5H330.89V501H329.09ZM330.89 495.58L330.21 495.28C330.21 494.067 330.49 493.1 331.05 492.38C331.61 491.66 332.416 491.3 333.47 491.3C333.95 491.3 334.383 491.387 334.77 491.56C335.156 491.72 335.516 491.993 335.85 492.38L334.67 493.6C334.47 493.387 334.25 493.233 334.01 493.14C333.77 493.047 333.49 493 333.17 493C332.503 493 331.956 493.213 331.53 493.64C331.103 494.067 330.89 494.713 330.89 495.58ZM341.204 501.2C340.258 501.2 339.404 500.987 338.644 500.56C337.884 500.12 337.284 499.527 336.844 498.78C336.404 498.033 336.184 497.187 336.184 496.24C336.184 495.307 336.398 494.467 336.824 493.72C337.264 492.973 337.851 492.387 338.584 491.96C339.331 491.52 340.164 491.3 341.084 491.3C341.964 491.3 342.738 491.5 343.404 491.9C344.084 492.3 344.611 492.853 344.984 493.56C345.371 494.267 345.564 495.067 345.564 495.96C345.564 496.093 345.558 496.24 345.544 496.4C345.531 496.547 345.504 496.72 345.464 496.92H337.444V495.42H344.504L343.844 496C343.844 495.36 343.731 494.82 343.504 494.38C343.278 493.927 342.958 493.58 342.544 493.34C342.131 493.087 341.631 492.96 341.044 492.96C340.431 492.96 339.891 493.093 339.424 493.36C338.958 493.627 338.598 494 338.344 494.48C338.091 494.96 337.964 495.527 337.964 496.18C337.964 496.847 338.098 497.433 338.364 497.94C338.631 498.433 339.011 498.82 339.504 499.1C339.998 499.367 340.564 499.5 341.204 499.5C341.738 499.5 342.224 499.407 342.664 499.22C343.118 499.033 343.504 498.753 343.824 498.38L344.984 499.56C344.531 500.093 343.971 500.5 343.304 500.78C342.651 501.06 341.951 501.2 341.204 501.2ZM351.547 501.2C350.667 501.2 349.88 500.987 349.187 500.56C348.494 500.12 347.94 499.527 347.527 498.78C347.127 498.033 346.927 497.193 346.927 496.26C346.927 495.327 347.127 494.487 347.527 493.74C347.94 492.993 348.494 492.4 349.187 491.96C349.88 491.52 350.667 491.3 351.547 491.3C352.254 491.3 352.894 491.453 353.467 491.76C354.04 492.053 354.5 492.467 354.847 493C355.207 493.52 355.407 494.127 355.447 494.82V497.68C355.407 498.36 355.214 498.967 354.867 499.5C354.52 500.033 354.06 500.453 353.487 500.76C352.914 501.053 352.267 501.2 351.547 501.2ZM351.847 499.5C352.447 499.5 352.967 499.36 353.407 499.08C353.86 498.8 354.214 498.42 354.467 497.94C354.72 497.447 354.847 496.887 354.847 496.26C354.847 495.607 354.714 495.04 354.447 494.56C354.194 494.08 353.84 493.7 353.387 493.42C352.947 493.14 352.427 493 351.827 493C351.227 493 350.7 493.14 350.247 493.42C349.794 493.7 349.434 494.087 349.167 494.58C348.914 495.06 348.787 495.613 348.787 496.24C348.787 496.88 348.914 497.447 349.167 497.94C349.434 498.42 349.794 498.8 350.247 499.08C350.714 499.36 351.247 499.5 351.847 499.5ZM356.547 501H354.727V498.44L355.067 496.12L354.727 493.82V486.72H356.547V501ZM359.188 501V491.5H360.988V501H359.188ZM360.088 489.6C359.754 489.6 359.481 489.493 359.268 489.28C359.054 489.053 358.948 488.773 358.948 488.44C358.948 488.12 359.054 487.853 359.268 487.64C359.481 487.413 359.754 487.3 360.088 487.3C360.421 487.3 360.694 487.413 360.908 487.64C361.121 487.853 361.228 488.12 361.228 488.44C361.228 488.773 361.121 489.053 360.908 489.28C360.694 489.493 360.421 489.6 360.088 489.6ZM365.1 501V487.52H366.9V501H365.1ZM362.76 493.14V491.5H369.24V493.14H362.76ZM381.784 501.2C380.784 501.2 379.857 501.02 379.004 500.66C378.15 500.287 377.404 499.773 376.764 499.12C376.137 498.467 375.65 497.707 375.304 496.84C374.957 495.973 374.784 495.047 374.784 494.06C374.784 493.06 374.957 492.127 375.304 491.26C375.65 490.393 376.137 489.64 376.764 489C377.404 488.347 378.144 487.84 378.984 487.48C379.837 487.107 380.764 486.92 381.764 486.92C382.857 486.92 383.817 487.107 384.644 487.48C385.47 487.853 386.204 488.36 386.844 489L385.544 490.3C385.104 489.807 384.564 489.42 383.924 489.14C383.297 488.86 382.577 488.72 381.764 488.72C381.03 488.72 380.357 488.853 379.744 489.12C379.13 489.373 378.597 489.74 378.144 490.22C377.69 490.7 377.337 491.267 377.084 491.92C376.844 492.573 376.724 493.287 376.724 494.06C376.724 494.833 376.844 495.547 377.084 496.2C377.337 496.853 377.69 497.42 378.144 497.9C378.597 498.38 379.13 498.753 379.744 499.02C380.357 499.273 381.03 499.4 381.764 499.4C382.63 499.4 383.384 499.26 384.024 498.98C384.664 498.687 385.204 498.293 385.644 497.8L386.944 499.08C386.304 499.747 385.55 500.267 384.684 500.64C383.83 501.013 382.864 501.2 381.784 501.2ZM392.641 501.2C391.775 501.2 390.988 500.987 390.281 500.56C389.575 500.12 389.015 499.527 388.601 498.78C388.201 498.033 388.001 497.193 388.001 496.26C388.001 495.327 388.201 494.487 388.601 493.74C389.015 492.993 389.568 492.4 390.261 491.96C390.968 491.52 391.761 491.3 392.641 491.3C393.361 491.3 394.001 491.453 394.561 491.76C395.135 492.053 395.595 492.467 395.941 493C396.288 493.52 396.481 494.127 396.521 494.82V497.68C396.481 498.36 396.288 498.967 395.941 499.5C395.608 500.033 395.155 500.453 394.581 500.76C394.021 501.053 393.375 501.2 392.641 501.2ZM392.941 499.5C393.835 499.5 394.555 499.2 395.101 498.6C395.648 497.987 395.921 497.207 395.921 496.26C395.921 495.607 395.795 495.04 395.541 494.56C395.301 494.067 394.955 493.687 394.501 493.42C394.048 493.14 393.521 493 392.921 493C392.321 493 391.788 493.14 391.321 493.42C390.868 493.7 390.508 494.087 390.241 494.58C389.988 495.06 389.861 495.613 389.861 496.24C389.861 496.88 389.988 497.447 390.241 497.94C390.508 498.42 390.875 498.8 391.341 499.08C391.808 499.36 392.341 499.5 392.941 499.5ZM395.801 501V498.44L396.141 496.12L395.801 493.82V491.5H397.621V501H395.801ZM400.242 501V491.5H402.042V501H400.242ZM402.042 495.58L401.362 495.28C401.362 494.067 401.642 493.1 402.202 492.38C402.762 491.66 403.569 491.3 404.622 491.3C405.102 491.3 405.535 491.387 405.922 491.56C406.309 491.72 406.669 491.993 407.002 492.38L405.822 493.6C405.622 493.387 405.402 493.233 405.162 493.14C404.922 493.047 404.642 493 404.322 493C403.655 493 403.109 493.213 402.682 493.64C402.255 494.067 402.042 494.713 402.042 495.58ZM411.977 501.2C411.097 501.2 410.31 500.987 409.617 500.56C408.923 500.12 408.37 499.527 407.957 498.78C407.557 498.033 407.357 497.193 407.357 496.26C407.357 495.327 407.557 494.487 407.957 493.74C408.37 492.993 408.923 492.4 409.617 491.96C410.31 491.52 411.097 491.3 411.977 491.3C412.683 491.3 413.323 491.453 413.897 491.76C414.47 492.053 414.93 492.467 415.277 493C415.637 493.52 415.837 494.127 415.877 494.82V497.68C415.837 498.36 415.643 498.967 415.297 499.5C414.95 500.033 414.49 500.453 413.917 500.76C413.343 501.053 412.697 501.2 411.977 501.2ZM412.277 499.5C412.877 499.5 413.397 499.36 413.837 499.08C414.29 498.8 414.643 498.42 414.897 497.94C415.15 497.447 415.277 496.887 415.277 496.26C415.277 495.607 415.143 495.04 414.877 494.56C414.623 494.08 414.27 493.7 413.817 493.42C413.377 493.14 412.857 493 412.257 493C411.657 493 411.13 493.14 410.677 493.42C410.223 493.7 409.863 494.087 409.597 494.58C409.343 495.06 409.217 495.613 409.217 496.24C409.217 496.88 409.343 497.447 409.597 497.94C409.863 498.42 410.223 498.8 410.677 499.08C411.143 499.36 411.677 499.5 412.277 499.5ZM416.977 501H415.157V498.44L415.497 496.12L415.157 493.82V486.72H416.977V501Z" fill="#3F4346"/>
<path d="M318.56 529.16L318.4 525.98L315.74 527.7L314.98 526.2L317.94 525.08L315.5 523.14L316.68 521.96L318.66 524.38L319.78 521.44L321.3 522.2L319.56 524.84L322.76 525L322.5 526.64L319.4 525.82L320.24 528.9L318.56 529.16ZM328.365 529.16L328.205 525.98L325.545 527.7L324.785 526.2L327.745 525.08L325.305 523.14L326.485 521.96L328.465 524.38L329.585 521.44L331.105 522.2L329.365 524.84L332.565 525L332.305 526.64L329.205 525.82L330.045 528.9L328.365 529.16ZM338.169 529.16L338.009 525.98L335.349 527.7L334.589 526.2L337.549 525.08L335.109 523.14L336.289 521.96L338.269 524.38L339.389 521.44L340.909 522.2L339.169 524.84L342.369 525L342.109 526.64L339.009 525.82L339.849 528.9L338.169 529.16ZM347.974 529.16L347.814 525.98L345.154 527.7L344.394 526.2L347.354 525.08L344.914 523.14L346.094 521.96L348.074 524.38L349.194 521.44L350.714 522.2L348.974 524.84L352.174 525L351.914 526.64L348.814 525.82L349.654 528.9L347.974 529.16Z" fill="#1A237E"/>
<path d="M374.56 529.16L374.4 525.98L371.74 527.7L370.98 526.2L373.94 525.08L371.5 523.14L372.68 521.96L374.66 524.38L375.78 521.44L377.3 522.2L375.56 524.84L378.76 525L378.5 526.64L375.4 525.82L376.24 528.9L374.56 529.16ZM384.365 529.16L384.205 525.98L381.545 527.7L380.785 526.2L383.745 525.08L381.305 523.14L382.485 521.96L384.465 524.38L385.585 521.44L387.105 522.2L385.365 524.84L388.565 525L388.305 526.64L385.205 525.82L386.045 528.9L384.365 529.16ZM394.169 529.16L394.009 525.98L391.349 527.7L390.589 526.2L393.549 525.08L391.109 523.14L392.289 521.96L394.269 524.38L395.389 521.44L396.909 522.2L395.169 524.84L398.369 525L398.109 526.64L395.009 525.82L395.849 528.9L394.169 529.16ZM403.974 529.16L403.814 525.98L401.154 527.7L400.394 526.2L403.354 525.08L400.914 523.14L402.094 521.96L404.074 524.38L405.194 521.44L406.714 522.2L404.974 524.84L408.174 525L407.914 526.64L404.814 525.82L405.654 528.9L403.974 529.16Z" fill="#1A237E"/>
<path d="M430.56 529.16L430.4 525.98L427.74 527.7L426.98 526.2L429.94 525.08L427.5 523.14L428.68 521.96L430.66 524.38L431.78 521.44L433.3 522.2L431.56 524.84L434.76 525L434.5 526.64L431.4 525.82L432.24 528.9L430.56 529.16ZM440.365 529.16L440.205 525.98L437.545 527.7L436.785 526.2L439.745 525.08L437.305 523.14L438.485 521.96L440.465 524.38L441.585 521.44L443.105 522.2L441.365 524.84L444.565 525L444.305 526.64L441.205 525.82L442.045 528.9L440.365 529.16ZM450.169 529.16L450.009 525.98L447.349 527.7L446.589 526.2L449.549 525.08L447.109 523.14L448.289 521.96L450.269 524.38L451.389 521.44L452.909 522.2L451.169 524.84L454.369 525L454.109 526.64L451.009 525.82L451.849 528.9L450.169 529.16ZM459.974 529.16L459.814 525.98L457.154 527.7L456.394 526.2L459.354 525.08L456.914 523.14L458.094 521.96L460.074 524.38L461.194 521.44L462.714 522.2L460.974 524.84L464.174 525L463.914 526.64L460.814 525.82L461.654 528.9L459.974 529.16Z" fill="#1A237E"/>
<path d="M486.56 529.16L486.4 525.98L483.74 527.7L482.98 526.2L485.94 525.08L483.5 523.14L484.68 521.96L486.66 524.38L487.78 521.44L489.3 522.2L487.56 524.84L490.76 525L490.5 526.64L487.4 525.82L488.24 528.9L486.56 529.16ZM496.365 529.16L496.205 525.98L493.545 527.7L492.785 526.2L495.745 525.08L493.305 523.14L494.485 521.96L496.465 524.38L497.585 521.44L499.105 522.2L497.365 524.84L500.565 525L500.305 526.64L497.205 525.82L498.045 528.9L496.365 529.16ZM506.169 529.16L506.009 525.98L503.349 527.7L502.589 526.2L505.549 525.08L503.109 523.14L504.289 521.96L506.269 524.38L507.389 521.44L508.909 522.2L507.169 524.84L510.369 525L510.109 526.64L507.009 525.82L507.849 528.9L506.169 529.16ZM515.974 529.16L515.814 525.98L513.154 527.7L512.394 526.2L515.354 525.08L512.914 523.14L514.094 521.96L516.074 524.38L517.194 521.44L518.714 522.2L516.974 524.84L520.174 525L519.914 526.64L516.814 525.82L517.654 528.9L515.974 529.16Z" fill="#1A237E"/>
</g>
<defs>
<filter id="filter0_d_1772_4138" x="288" y="254" width="278" height="104" filterUnits="userSpaceOnUse" color-interpolation-filters="sRGB">
<feFlood flood-opacity="0" result="BackgroundImageFix"/>
<feColorMatrix in="SourceAlpha" type="matrix" values="0 0 0 0 0 0 0 0 0 0 0 0 0 0 0 0 0 0 127 0" result="hardAlpha"/>
<feOffset dy="4"/>
<feGaussianBlur stdDeviation="6"/>
<feComposite in2="hardAlpha" operator="out"/>
<feColorMatrix type="matrix" values="0 0 0 0 0 0 0 0 0 0 0 0 0 0 0 0 0 0 0.12 0"/>
<feBlend mode="normal" in2="BackgroundImageFix" result="effect1_dropShadow_1772_4138"/>
<feBlend mode="normal" in="SourceGraphic" in2="effect1_dropShadow_1772_4138" result="shape"/>
</filter>
<filter id="filter1_d_1772_4138" x="288" y="360" width="60" height="60" filterUnits="userSpaceOnUse" color-interpolation-filters="sRGB">
<feFlood flood-opacity="0" result="BackgroundImageFix"/>
<feColorMatrix in="SourceAlpha" type="matrix" values="0 0 0 0 0 0 0 0 0 0 0 0 0 0 0 0 0 0 127 0" result="hardAlpha"/>
<feOffset dy="4"/>
<feGaussianBlur stdDeviation="6"/>
<feComposite in2="hardAlpha" operator="out"/>
<feColorMatrix type="matrix" values="0 0 0 0 0 0 0 0 0 0 0 0 0 0 0 0 0 0 0.12 0"/>
<feBlend mode="normal" in2="BackgroundImageFix" result="effect1_dropShadow_1772_4138"/>
<feBlend mode="normal" in="SourceGraphic" in2="effect1_dropShadow_1772_4138" result="shape"/>
</filter>
<filter id="filter2_d_1772_4138" x="331.6" y="360" width="60" height="60" filterUnits="userSpaceOnUse" color-interpolation-filters="sRGB">
<feFlood flood-opacity="0" result="BackgroundImageFix"/>
<feColorMatrix in="SourceAlpha" type="matrix" values="0 0 0 0 0 0 0 0 0 0 0 0 0 0 0 0 0 0 127 0" result="hardAlpha"/>
<feOffset dy="4"/>
<feGaussianBlur stdDeviation="6"/>
<feComposite in2="hardAlpha" operator="out"/>
<feColorMatrix type="matrix" values="0 0 0 0 0 0 0 0 0 0 0 0 0 0 0 0 0 0 0.12 0"/>
<feBlend mode="normal" in2="BackgroundImageFix" result="effect1_dropShadow_1772_4138"/>
<feBlend mode="normal" in="SourceGraphic" in2="effect1_dropShadow_1772_4138" result="shape"/>
</filter>
<filter id="filter3_d_1772_4138" x="375.2" y="360" width="60" height="60" filterUnits="userSpaceOnUse" color-interpolation-filters="sRGB">
<feFlood flood-opacity="0" result="BackgroundImageFix"/>
<feColorMatrix in="SourceAlpha" type="matrix" values="0 0 0 0 0 0 0 0 0 0 0 0 0 0 0 0 0 0 127 0" result="hardAlpha"/>
<feOffset dy="4"/>
<feGaussianBlur stdDeviation="6"/>
<feComposite in2="hardAlpha" operator="out"/>
<feColorMatrix type="matrix" values="0 0 0 0 0 0 0 0 0 0 0 0 0 0 0 0 0 0 0.12 0"/>
<feBlend mode="normal" in2="BackgroundImageFix" result="effect1_dropShadow_1772_4138"/>
<feBlend mode="normal" in="SourceGraphic" in2="effect1_dropShadow_1772_4138" result="shape"/>
</filter>
<filter id="filter4_d_1772_4138" x="418.8" y="360" width="60" height="60" filterUnits="userSpaceOnUse" color-interpolation-filters="sRGB">
<feFlood flood-opacity="0" result="BackgroundImageFix"/>
<feColorMatrix in="SourceAlpha" type="matrix" values="0 0 0 0 0 0 0 0 0 0 0 0 0 0 0 0 0 0 127 0" result="hardAlpha"/>
<feOffset dy="4"/>
<feGaussianBlur stdDeviation="6"/>
<feComposite in2="hardAlpha" operator="out"/>
<feColorMatrix type="matrix" values="0 0 0 0 0 0 0 0 0 0 0 0 0 0 0 0 0 0 0.12 0"/>
<feBlend mode="normal" in2="BackgroundImageFix" result="effect1_dropShadow_1772_4138"/>
<feBlend mode="normal" in="SourceGraphic" in2="effect1_dropShadow_1772_4138" result="shape"/>
</filter>
<filter id="filter5_d_1772_4138" x="462.4" y="360" width="60" height="60" filterUnits="userSpaceOnUse" color-interpolation-filters="sRGB">
<feFlood flood-opacity="0" result="BackgroundImageFix"/>
<feColorMatrix in="SourceAlpha" type="matrix" values="0 0 0 0 0 0 0 0 0 0 0 0 0 0 0 0 0 0 127 0" result="hardAlpha"/>
<feOffset dy="4"/>
<feGaussianBlur stdDeviation="6"/>
<feComposite in2="hardAlpha" operator="out"/>
<feColorMatrix type="matrix" values="0 0 0 0 0 0 0 0 0 0 0 0 0 0 0 0 0 0 0.12 0"/>
<feBlend mode="normal" in2="BackgroundImageFix" result="effect1_dropShadow_1772_4138"/>
<feBlend mode="normal" in="SourceGraphic" in2="effect1_dropShadow_1772_4138" result="shape"/>
</filter>
<filter id="filter6_d_1772_4138" x="506" y="360" width="60" height="60" filterUnits="userSpaceOnUse" color-interpolation-filters="sRGB">
<feFlood flood-opacity="0" result="BackgroundImageFix"/>
<feColorMatrix in="SourceAlpha" type="matrix" values="0 0 0 0 0 0 0 0 0 0 0 0 0 0 0 0 0 0 127 0" result="hardAlpha"/>
<feOffset dy="4"/>
<feGaussianBlur stdDeviation="6"/>
<feComposite in2="hardAlpha" operator="out"/>
<feColorMatrix type="matrix" values="0 0 0 0 0 0 0 0 0 0 0 0 0 0 0 0 0 0 0.12 0"/>
<feBlend mode="normal" in2="BackgroundImageFix" result="effect1_dropShadow_1772_4138"/>
<feBlend mode="normal" in="SourceGraphic" in2="effect1_dropShadow_1772_4138" result="shape"/>
</filter>
<filter id="filter7_d_1772_4138" x="288" y="422" width="278" height="151" filterUnits="userSpaceOnUse" color-interpolation-filters="sRGB">
<feFlood flood-opacity="0" result="BackgroundImageFix"/>
<feColorMatrix in="SourceAlpha" type="matrix" values="0 0 0 0 0 0 0 0 0 0 0 0 0 0 0 0 0 0 127 0" result="hardAlpha"/>
<feOffset dy="4"/>
<feGaussianBlur stdDeviation="6"/>
<feComposite in2="hardAlpha" operator="out"/>
<feColorMatrix type="matrix" values="0 0 0 0 0 0 0 0 0 0 0 0 0 0 0 0 0 0 0.12 0"/>
<feBlend mode="normal" in2="BackgroundImageFix" result="effect1_dropShadow_1772_4138"/>
<feBlend mode="normal" in="SourceGraphic" in2="effect1_dropShadow_1772_4138" result="shape"/>
</filter>
<linearGradient id="paint0_linear_1772_4138" x1="80" y1="300" x2="369.5" y2="300" gradientUnits="userSpaceOnUse">
<stop stop-color="#AAB2FF"/>
<stop offset="1" stop-color="#E9ECFF"/>
</linearGradient>
</defs>
</svg>
