<svg width="440" height="440" viewBox="0 0 440 440" fill="none" xmlns="http://www.w3.org/2000/svg">
<rect width="440" height="440" rx="220" fill="url(#paint0_linear_1772_4139)"/>
<path d="M392.433 356.578C403.901 342.09 413.497 326.167 421.101 308.976C421.222 308.841 421.331 308.689 421.409 308.513C421.486 308.337 421.524 308.155 421.542 307.973C429.062 290.746 434.303 272.909 437.221 254.663C437.232 254.641 437.247 254.622 437.257 254.599C437.395 254.287 437.429 253.958 437.384 253.644C438.943 243.593 439.799 233.42 439.942 223.158C440.079 213.3 439.545 203.507 438.378 193.806C438.454 193.435 438.401 193.06 438.249 192.727C436.004 174.824 431.556 157.247 424.919 140.204C422.652 134.382 420.143 128.695 417.422 123.132C417.371 122.752 417.201 122.396 416.927 122.121C407.279 102.649 394.876 84.8152 379.887 68.9359C360.55 48.4517 337.714 32.0881 311.968 20.25C311.332 19.9474 310.692 19.6501 310.049 19.3578C309.979 19.3244 309.91 19.2897 309.84 19.2566C309.408 19.013 308.966 18.7904 308.512 18.591C308.058 18.3915 307.595 18.216 307.124 18.0631C307.052 18.0339 306.98 18.0062 306.908 17.9774C306.258 17.7019 305.606 17.4317 304.953 17.167C278.821 6.20666 251.324 0.450057 223.157 0.0584534C201.322 -0.245633 179.797 2.67779 158.928 8.73969C158.541 8.72411 158.163 8.83952 157.849 9.05912C151.912 10.8164 146.025 12.8139 140.204 15.0808C123.16 21.7176 107.204 30.3278 92.4978 40.7809C92.1495 40.894 91.8368 41.1093 91.6146 41.4168C83.6797 47.1167 76.1049 53.3459 68.9359 60.1132C61.4726 67.1585 54.5576 74.6697 48.2071 82.6146C47.9455 82.7939 47.7263 83.0416 47.5892 83.3535C47.5792 83.3762 47.5758 83.4001 47.5667 83.4232C36.0993 97.912 26.5025 113.835 18.8986 131.025C18.7767 131.161 18.6682 131.312 18.5909 131.488C18.5136 131.664 18.4759 131.846 18.4583 132.027C10.9368 149.254 5.69715 167.092 2.77902 185.337C2.76816 185.359 2.75288 185.378 2.74271 185.401C2.60564 185.713 2.5714 186.042 2.61626 186.356C1.05747 196.407 0.20083 206.581 0.0579791 216.843C-0.079022 226.701 0.454185 236.493 1.62145 246.193C1.54501 246.565 1.59829 246.941 1.75054 247.274C3.99547 265.177 8.44326 282.753 15.0801 299.797C17.347 305.618 19.8568 311.306 22.5774 316.868C22.6278 317.248 22.7984 317.604 23.0724 317.88C32.7201 337.352 45.1231 355.186 60.1125 371.064C79.4307 391.529 102.241 407.88 127.956 419.715C128.62 420.031 129.288 420.341 129.958 420.646C130.026 420.678 130.092 420.712 130.16 420.743C130.591 420.987 131.034 421.209 131.487 421.409C131.941 421.608 132.405 421.784 132.876 421.937C132.945 421.965 133.014 421.991 133.084 422.02C133.762 422.307 134.442 422.589 135.123 422.865C161.232 433.804 188.703 439.551 216.842 439.942C238.677 440.245 260.201 437.322 281.07 431.261C281.458 431.277 281.836 431.161 282.15 430.941C288.087 429.184 293.974 427.186 299.796 424.919C316.839 418.283 332.795 409.673 347.501 399.22C347.849 399.106 348.162 398.892 348.384 398.584C356.319 392.884 363.894 386.655 371.063 379.888C378.527 372.842 385.441 365.331 391.792 357.387C392.053 357.207 392.273 356.959 392.41 356.647C392.421 356.625 392.424 356.601 392.433 356.578ZM21.0321 134.485L66.2141 154.341C59.1368 170.709 53.6529 187.415 49.8114 204.164L6.21224 185.004C9.04733 167.73 14.0014 150.832 21.0321 134.485ZM49.6414 86.1801L93.2406 105.34C83.4992 119.497 74.9014 134.834 67.6305 151.117L22.4485 131.261C29.7365 115.027 38.8346 99.9498 49.6414 86.1801ZM418.968 305.517L373.786 285.661C380.863 269.293 386.347 252.588 390.188 235.838L433.788 254.999C430.953 272.272 425.998 289.171 418.968 305.517ZM370.69 284.301L321.864 262.843C328.974 246.49 334.989 230.017 339.837 213.711L387.032 234.451C383.231 251.205 377.771 267.922 370.69 284.301ZM183.048 384.473L154.966 372.133L175.973 324.333L213.842 340.975C206.001 353.488 198.152 364.956 190.43 375.12C187.929 378.413 185.467 381.53 183.048 384.473ZM125.727 346.685C127.993 334.124 131.132 320.586 135.048 306.347L172.918 322.99L151.912 370.79L123.83 358.449C124.362 354.676 124.993 350.755 125.727 346.685ZM256.952 55.5293L285.034 67.8701L264.027 115.67L226.158 99.0275C233.998 86.514 241.848 75.0465 249.569 64.8825C252.071 61.59 254.533 58.4731 256.952 55.5293ZM314.273 93.3173C312.007 105.879 308.867 119.417 304.952 133.655L267.083 117.013L288.089 69.2129L316.171 81.5537C315.638 85.3264 315.007 89.2479 314.273 93.3173ZM289.506 65.9888L308.571 22.6064C317.644 28.3505 320.464 48.0298 316.658 77.9214L289.506 65.9888ZM305.515 21.2641L286.45 64.6465L259.298 52.7139C278.744 29.696 295.149 18.4652 305.515 21.2641ZM262.61 118.894L241.604 166.694L198.453 147.731C206.912 131.451 215.583 116.116 224.278 102.049L262.61 118.894ZM240.187 169.918L219.181 217.718L174.356 198.019C181.565 181.699 189.104 165.896 196.832 150.865L240.187 169.918ZM217.764 220.942L196.757 268.742L153.403 249.689C159.249 233.831 165.792 217.59 172.939 201.244L217.764 220.942ZM195.34 271.966L174.334 319.766L136.002 302.92C140.484 287.001 145.917 270.244 152.189 253.003L195.34 271.966ZM150.494 374.014L131.429 417.396C122.356 411.652 119.536 391.973 123.341 362.081L150.494 374.014ZM134.484 418.739L153.55 375.356L180.702 387.289C161.256 410.307 144.851 421.538 134.484 418.739ZM177.39 321.108L198.396 273.309L241.547 292.272C233.087 308.552 224.417 323.887 215.721 337.954L177.39 321.108ZM199.813 270.084L220.819 222.285L265.643 241.984C258.435 258.303 250.896 274.107 243.168 289.138L199.813 270.085L199.813 270.084ZM222.236 219.06L243.242 171.261L286.597 190.314C280.75 206.172 274.207 222.412 267.06 238.759L222.236 219.061L222.236 219.06ZM244.659 168.037L265.666 120.237L303.997 137.083C299.515 153.002 294.082 169.759 287.81 187L244.659 168.037ZM307.252 138.513L348.64 156.702C346.454 173.414 342.8 190.949 337.664 208.909L291.039 188.42C297.311 171.193 302.752 154.441 307.252 138.513ZM308.21 135.087C312.219 120.56 315.428 106.75 317.738 93.9423C318.417 90.1792 319.01 86.541 319.52 83.0264L349.748 96.3105C351.736 113.431 351.527 132.595 349.095 153.055L308.21 135.087L308.21 135.087ZM320.023 79.4003C321.869 65.3985 322.309 53.5086 321.327 43.9316C320.639 37.2233 319.251 31.7586 317.182 27.5586C334.407 40.0758 345.149 62.9552 349.228 92.2345L320.023 79.4003ZM281.18 26.2884C273.461 32.0414 264.999 40.4064 255.932 51.2345L226.729 38.4005C251.056 21.6041 275.175 14.0453 296.044 18.2691C291.551 19.5851 286.587 22.2582 281.18 26.2884ZM253.602 54.057C251.358 56.8099 249.079 59.7075 246.766 62.7519C238.893 73.1149 230.89 84.818 222.9 97.5953L182.015 79.628C195.442 64.0002 209.419 50.8863 223.374 40.7725L253.602 54.057ZM221.024 100.619C212.333 114.704 203.671 130.042 195.223 146.311L148.599 125.822C158.356 109.893 168.803 95.3428 179.635 82.4298L221.024 100.619ZM193.602 149.446C185.875 164.484 178.338 180.289 171.132 196.602L122.671 175.306C129.981 158.849 138.082 143.305 146.755 128.858L193.602 149.446ZM169.715 199.826C162.57 216.167 156.025 232.407 150.173 248.27L103.326 227.682C108.102 211.523 114.075 195.043 121.254 178.53L169.715 199.826ZM148.96 251.583C142.688 268.809 137.247 285.562 132.748 301.49L91.3595 283.301C93.5461 266.589 97.2 249.054 102.336 231.094L148.96 251.583ZM131.789 304.916C127.78 319.443 124.571 333.252 122.261 346.061C121.583 349.824 120.99 353.462 120.479 356.977L90.2514 343.693C88.2641 326.572 88.4724 307.408 90.9052 286.948L131.789 304.916ZM119.976 360.602C118.13 374.604 117.69 386.494 118.673 396.072C119.361 402.78 120.748 408.245 122.818 412.444C105.593 399.927 94.8509 377.047 90.7723 347.768L119.976 360.602ZM158.82 413.715C166.539 407.961 175.001 399.597 184.067 388.768L213.271 401.602C188.943 418.398 164.825 425.957 143.956 421.734C148.449 420.418 153.413 417.744 158.82 413.715ZM186.398 385.946C188.642 383.193 190.921 380.296 193.234 377.251C201.107 366.888 209.11 355.184 217.1 342.407L257.984 360.374C244.558 376.002 230.581 389.116 216.625 399.23L186.398 385.946ZM218.975 339.384C227.667 325.298 236.328 309.961 244.776 293.691L291.401 314.181C281.644 330.11 271.197 344.66 260.364 357.573L218.975 339.384ZM246.397 290.556C254.125 275.518 261.661 259.714 268.868 243.4L317.328 264.697C310.019 281.153 301.918 296.698 293.244 311.144L246.397 290.556ZM270.284 240.176C277.429 223.835 283.974 207.596 289.826 191.733L336.673 212.32C331.897 228.479 325.924 244.959 318.745 261.473L270.284 240.176ZM340.831 210.301C345.934 192.566 349.651 175.056 351.908 158.137L393.512 176.421C393.615 194.346 391.702 212.652 387.806 230.945L340.831 210.301ZM352.375 154.496C354.271 138.898 354.91 123.831 354.221 109.593C354.026 105.581 353.726 101.678 353.328 97.8829L383.322 111.064C384.924 115.978 386.359 121.022 387.6 126.209C391.173 141.144 393.107 156.686 393.457 172.55L352.375 154.496ZM352.858 93.8298C349.662 68.6468 341.844 48.578 329.994 34.7992C340.65 42.456 350.202 51.8323 358.543 62.8495C368.246 75.665 376.019 90.3081 381.781 106.541L352.858 93.8298ZM223.099 36.8051L194.175 24.0942C210.03 17.3618 226.073 13.1848 242.076 11.6659C255.832 10.36 269.199 11.0556 282.046 13.7278C263.881 14.316 243.811 22.1289 223.099 36.8051ZM219.795 39.2C216.729 41.4728 213.652 43.8912 210.565 46.461C199.61 55.5815 188.943 66.242 178.734 78.1867L137.653 60.1328C149.576 49.6623 162.333 40.5768 175.752 33.1091C180.412 30.5157 185.098 28.1608 189.801 26.0188L219.795 39.2ZM176.368 80.9942C165.431 94.0983 155.045 108.678 145.432 124.43L98.4573 103.786C109.298 88.545 121.49 74.7566 134.764 62.7103L176.368 80.9942ZM143.592 127.468C134.858 142.067 126.791 157.638 119.553 173.935L70.7272 152.478C78.004 136.185 86.626 120.857 96.3975 106.728L143.592 127.468ZM69.3103 155.702L118.136 177.159C111.025 193.513 105.01 209.985 100.162 226.292L52.9679 205.552C56.7686 188.798 62.2293 172.081 69.3103 155.702ZM99.1686 229.702C94.0655 247.437 90.3483 264.946 88.0919 281.865L46.4872 263.582C46.3844 245.657 48.297 227.351 52.1935 209.058L99.1686 229.702ZM87.6245 285.507C85.7287 301.104 85.0894 316.172 85.7792 330.41C85.9734 334.422 86.2738 338.325 86.6723 342.12L56.678 328.938C55.0755 324.025 53.641 318.98 52.3999 313.793C48.8265 298.858 46.893 283.317 46.5425 267.453L87.6245 285.507ZM87.142 346.173C90.3379 371.355 98.1549 391.424 110.005 405.202C99.3491 397.546 89.7975 388.17 81.4565 377.153C71.7536 364.338 63.9814 349.694 58.2188 333.462L87.142 346.173ZM216.901 403.198L245.825 415.908C229.97 422.641 213.926 426.818 197.924 428.337C184.167 429.643 170.801 428.947 157.954 426.275C176.118 425.686 196.189 417.873 216.901 403.198ZM220.205 400.803C223.271 398.53 226.348 396.112 229.435 393.542C240.39 384.421 251.057 373.761 261.265 361.816L302.347 379.87C290.423 390.34 277.667 399.426 264.248 406.894C259.588 409.487 254.903 411.841 250.199 413.984L220.205 400.803ZM263.631 359.008C274.569 345.904 284.954 331.325 294.567 315.572L341.542 336.216C330.701 351.458 318.51 365.246 305.236 377.292L263.631 359.008ZM296.407 312.534C305.142 297.935 313.208 282.365 320.447 266.067L369.273 287.525C361.996 303.817 353.374 319.145 343.602 333.275L296.407 312.534ZM372.369 288.886L417.551 308.742C410.264 324.976 401.166 340.053 390.358 353.823L346.759 334.663C356.5 320.506 365.098 305.169 372.369 288.886ZM434.345 251.397L390.962 232.332C394.897 214.086 396.887 195.818 396.897 177.908L435.124 194.708C436.232 204.097 436.738 213.574 436.605 223.112C436.472 232.627 435.714 242.064 434.345 251.397ZM434.608 190.634L396.875 174.052C396.617 157.4 394.637 141.085 390.889 125.422C389.867 121.149 388.714 116.971 387.45 112.879L414.507 124.769C417.155 130.195 419.599 135.74 421.81 141.416C428.036 157.405 432.305 173.87 434.608 190.634ZM377.46 71.2282C391.247 85.8329 402.807 102.119 412.017 119.829L386.005 108.397C380.037 90.6422 371.746 74.6854 361.239 60.808C356.644 54.739 351.688 49.1574 346.391 44.0706C357.56 52.0771 367.941 61.1444 377.46 71.2282ZM223.11 3.39675C236.975 3.58987 250.676 5.10571 264.127 7.91804C256.798 7.45598 249.334 7.57959 241.756 8.29874C224.428 9.94351 207.066 14.6268 189.951 22.2378L163.94 10.8067C183.213 5.61454 203.029 3.117 223.11 3.39675ZM141.415 18.1917C147.09 15.9817 152.828 14.032 158.616 12.3138L185.673 24.2046C181.803 26.0412 177.946 28.0175 174.107 30.1538C160.034 37.9853 146.677 47.5599 134.236 58.6311L96.502 42.0484C110.409 32.4081 125.426 24.4179 141.415 18.1917ZM71.2266 62.5409C78.1631 55.9928 85.4864 49.9565 93.1519 44.4228L131.379 61.2225C118.193 73.341 106.082 87.1619 95.3015 102.399L51.9176 83.3332C57.8674 76.0133 64.3069 69.0732 71.2266 62.5409ZM5.65456 188.606L49.0384 207.671C45.1038 225.917 43.1126 244.185 43.1035 262.095L4.8761 245.295C3.7686 235.906 3.26278 226.429 3.39567 216.891C3.52772 207.376 4.28562 197.938 5.65456 188.606ZM5.3916 249.368L43.1253 265.951C43.3829 282.603 45.3628 298.917 49.1107 314.58C50.133 318.853 51.2857 323.031 52.5499 327.124L25.493 315.234C22.8453 309.808 20.4004 304.262 18.1904 298.587C11.9643 282.598 7.6947 266.133 5.3916 249.368ZM62.5394 368.774C48.7531 354.17 37.1922 337.884 27.9832 320.174L53.9946 331.605C59.9622 349.36 68.2533 365.317 78.7602 379.195C83.3554 385.263 88.3113 390.845 93.6081 395.932C82.4395 387.925 72.0582 378.858 62.5394 368.774ZM216.889 436.606C203.024 436.413 189.324 434.897 175.873 432.084C183.202 432.546 190.666 432.423 198.244 431.703C215.572 430.059 232.934 425.376 250.049 417.764L276.061 429.196C256.787 434.388 236.971 436.886 216.889 436.606ZM298.585 421.811C292.91 424.021 287.172 425.971 281.384 427.689L254.327 415.798C258.197 413.962 262.054 411.985 265.893 409.849C279.966 402.017 293.324 392.443 305.764 381.372L343.498 397.954C329.591 407.595 314.574 415.585 298.585 421.811ZM368.773 377.462C361.837 384.01 354.514 390.046 346.848 395.58L308.621 378.78C321.808 366.662 333.919 352.841 344.698 337.604L388.082 356.669C382.133 363.989 375.693 370.93 368.773 377.462Z" fill="#1A237E"/>
<defs>
<linearGradient id="paint0_linear_1772_4139" x1="0" y1="220" x2="289.5" y2="220" gradientUnits="userSpaceOnUse">
<stop stop-color="#AAB2FF"/>
<stop offset="1" stop-color="#E9ECFF"/>
</linearGradient>
</defs>
</svg>
