<svg width="440" height="440" viewBox="0 0 440 440" fill="none" xmlns="http://www.w3.org/2000/svg">
<rect width="440" height="440" rx="5.86667" fill="#E9ECFF"/>
<rect x="87.5833" y="148.409" width="264.833" height="143.182" rx="7.68939" fill="white"/>
<rect x="87.5833" y="148.409" width="264.833" height="143.182" rx="7.68939" stroke="#D5D9DC" stroke-width="1.16667"/>
<rect x="102.167" y="158.856" width="235.667" height="36.1667" rx="2.75758" fill="#FAFAFA"/>
<g clip-path="url(#clip0_1797_2711)">
<path fill-rule="evenodd" clip-rule="evenodd" d="M122.128 172.176C121.967 171.74 121.581 171.427 121.121 171.358L115.616 170.536C115.158 170.467 114.702 170.671 114.447 171.056L111.183 175.983C110.971 176.302 110.969 176.721 111.177 177.043L113.828 181.14C114.042 181.471 114.369 181.712 114.749 181.819L120.085 183.324C120.477 183.434 120.891 183.253 121.077 182.892L123.695 177.785C123.882 177.42 123.907 176.992 123.765 176.607L122.128 172.176Z" fill="#ED3338"/>
<path fill-rule="evenodd" clip-rule="evenodd" d="M119.502 173.265C119.816 173.319 119.888 173.665 119.655 174.038C119.461 174.35 119.12 174.579 118.83 174.613C118.338 175.087 117.848 175.56 117.356 176.035C117.319 176.502 116.702 177.079 116.239 176.978C115.936 176.912 115.879 176.561 116.111 176.191C116.171 176.095 116.245 176.007 116.326 175.93C116.292 175.661 116.257 175.391 116.222 175.122C116.107 175.138 115.977 175.124 115.887 175.043C115.498 175.261 115.109 175.479 114.72 175.697C114.581 176.06 114.091 176.513 113.688 176.426C113.401 176.364 113.355 176.023 113.582 175.663C113.682 175.505 113.818 175.37 113.964 175.272L114.205 174.305C114.193 174.304 114.182 174.302 114.17 174.3C113.573 174.185 114.136 173.342 114.518 173.124L114.776 172.238C114.245 172.014 115.027 170.892 115.659 170.99C116.255 171.082 115.714 171.901 115.361 172.122L115.091 173.049C115.48 173.265 115.058 173.877 114.807 174.078L114.546 175.126C114.569 175.133 114.59 175.141 114.61 175.152C115.031 174.916 115.451 174.679 115.872 174.443C116.038 174.118 116.49 173.729 116.876 173.799C117.177 173.854 117.238 174.195 117.008 174.561C116.931 174.683 116.833 174.792 116.724 174.881C116.757 175.135 116.79 175.39 116.823 175.645C116.89 175.628 116.956 175.621 117.018 175.625C117.473 175.186 117.927 174.748 118.382 174.309C118.325 173.812 119.021 173.182 119.502 173.265Z" fill="white"/>
<path fill-rule="evenodd" clip-rule="evenodd" d="M112.112 177.257C112.743 177.41 113.516 178.542 112.854 178.367C112.246 178.205 111.467 177.1 112.112 177.257Z" fill="white"/>
<path fill-rule="evenodd" clip-rule="evenodd" d="M113.738 179.054C114.354 179.225 115.076 180.269 114.405 180.071C113.81 179.895 113.081 178.873 113.738 179.054Z" fill="white"/>
<path fill-rule="evenodd" clip-rule="evenodd" d="M115.459 180.791C116.064 180.975 116.74 181.945 116.055 181.724C115.47 181.537 114.786 180.585 115.459 180.791Z" fill="white"/>
<path fill-rule="evenodd" clip-rule="evenodd" d="M116.043 179.967C116.721 180.158 117.397 181.213 116.661 180.992C116.011 180.796 115.32 179.763 116.043 179.967Z" fill="white"/>
<path fill-rule="evenodd" clip-rule="evenodd" d="M117.991 181.563C118.678 181.772 119.305 182.771 118.54 182.524C117.88 182.312 117.239 181.333 117.991 181.563Z" fill="white"/>
<path fill-rule="evenodd" clip-rule="evenodd" d="M117.748 179.81C118.517 180.016 119.167 181.148 118.351 180.913C117.612 180.7 116.951 179.596 117.748 179.81Z" fill="white"/>
<path fill-rule="evenodd" clip-rule="evenodd" d="M118.883 177.672C119.285 176.854 119.882 178.163 119.498 178.969C119.101 179.801 118.484 178.486 118.883 177.672Z" fill="white"/>
<path fill-rule="evenodd" clip-rule="evenodd" d="M120.094 178.954C120.46 178.175 120.962 179.362 120.618 180.112C120.255 180.904 119.737 179.713 120.094 178.954Z" fill="white"/>
<path fill-rule="evenodd" clip-rule="evenodd" d="M121.25 179.835C121.585 179.095 122.003 180.191 121.696 180.883C121.364 181.634 120.932 180.537 121.25 179.835Z" fill="white"/>
<path fill-rule="evenodd" clip-rule="evenodd" d="M121.346 176.993C121.689 176.256 122.119 177.487 121.803 178.183C121.463 178.931 121.018 177.698 121.346 176.993Z" fill="white"/>
<path fill-rule="evenodd" clip-rule="evenodd" d="M122.429 177.23C122.747 176.527 123.104 177.7 122.82 178.342C122.505 179.055 122.134 177.881 122.429 177.23Z" fill="white"/>
<path fill-rule="evenodd" clip-rule="evenodd" d="M121.999 174.06C122.337 173.348 122.743 174.695 122.432 175.368C122.096 176.094 121.676 174.742 121.999 174.06Z" fill="white"/>
</g>
<path d="M134.19 180.939L131.686 173.284H132.723L134.709 179.528H134.411L136.363 173.284H137.113L139.065 179.528H138.779L140.764 173.284H141.79L139.297 180.939H138.558L136.595 174.707H136.881L134.929 180.939H134.19ZM144.307 181.05C143.829 181.05 143.395 180.932 143.006 180.697C142.616 180.454 142.307 180.127 142.079 179.715C141.858 179.303 141.748 178.84 141.748 178.325C141.748 177.811 141.858 177.347 142.079 176.935C142.307 176.524 142.612 176.196 142.995 175.954C143.384 175.711 143.822 175.59 144.307 175.59C144.704 175.59 145.057 175.674 145.366 175.843C145.682 176.005 145.936 176.233 146.127 176.527C146.318 176.814 146.425 177.149 146.447 177.531V179.108C146.425 179.483 146.318 179.818 146.127 180.112C145.943 180.406 145.693 180.638 145.377 180.807C145.068 180.969 144.712 181.05 144.307 181.05ZM144.473 180.112C144.965 180.112 145.362 179.947 145.664 179.616C145.965 179.278 146.116 178.847 146.116 178.325C146.116 177.965 146.046 177.652 145.907 177.388C145.774 177.116 145.583 176.906 145.333 176.759C145.083 176.605 144.792 176.527 144.462 176.527C144.131 176.527 143.837 176.605 143.579 176.759C143.329 176.913 143.131 177.127 142.983 177.399C142.844 177.663 142.774 177.969 142.774 178.314C142.774 178.667 142.844 178.98 142.983 179.252C143.131 179.517 143.333 179.726 143.59 179.881C143.848 180.035 144.142 180.112 144.473 180.112ZM146.05 180.939V179.528L146.237 178.248L146.05 176.98V175.7H147.054V180.939H146.05ZM148.499 180.939V173.064H149.492V180.939H148.499ZM154.297 180.939L151.849 178.259L154.275 175.7H155.478L152.775 178.524L152.819 177.95L155.577 180.939H154.297ZM150.944 180.939V173.064H151.937V180.939H150.944ZM158.53 181.05C158.015 181.05 157.552 180.928 157.14 180.686C156.728 180.443 156.401 180.116 156.158 179.704C155.916 179.285 155.794 178.818 155.794 178.303C155.794 177.796 155.916 177.34 156.158 176.935C156.401 176.524 156.728 176.196 157.14 175.954C157.552 175.711 158.015 175.59 158.53 175.59C159.037 175.59 159.497 175.711 159.909 175.954C160.328 176.189 160.659 176.513 160.901 176.924C161.144 177.336 161.265 177.796 161.265 178.303C161.265 178.818 161.144 179.285 160.901 179.704C160.659 180.116 160.328 180.443 159.909 180.686C159.497 180.928 159.037 181.05 158.53 181.05ZM158.53 180.09C158.861 180.09 159.155 180.013 159.412 179.858C159.67 179.704 159.872 179.494 160.019 179.23C160.166 178.958 160.239 178.649 160.239 178.303C160.239 177.965 160.162 177.663 160.008 177.399C159.861 177.134 159.659 176.928 159.401 176.781C159.151 176.627 158.861 176.549 158.53 176.549C158.199 176.549 157.905 176.627 157.647 176.781C157.39 176.928 157.188 177.134 157.041 177.399C156.894 177.663 156.82 177.965 156.82 178.303C156.82 178.649 156.894 178.958 157.041 179.23C157.188 179.494 157.39 179.704 157.647 179.858C157.905 180.013 158.199 180.09 158.53 180.09ZM163.977 180.939L161.572 175.7H162.676L164.606 180.123H163.966L165.907 175.7H166.966L164.562 180.939H163.977ZM170.035 181.05C169.513 181.05 169.042 180.932 168.623 180.697C168.204 180.454 167.873 180.127 167.63 179.715C167.388 179.303 167.266 178.836 167.266 178.314C167.266 177.799 167.384 177.336 167.619 176.924C167.862 176.513 168.185 176.189 168.59 175.954C169.002 175.711 169.461 175.59 169.969 175.59C170.454 175.59 170.88 175.7 171.248 175.921C171.623 176.141 171.914 176.446 172.12 176.836C172.333 177.226 172.439 177.667 172.439 178.16C172.439 178.233 172.436 178.314 172.428 178.402C172.421 178.483 172.406 178.579 172.384 178.689H167.961V177.862H171.855L171.491 178.182C171.491 177.829 171.428 177.531 171.303 177.288C171.178 177.038 171.002 176.847 170.774 176.715C170.546 176.575 170.27 176.505 169.947 176.505C169.608 176.505 169.31 176.579 169.053 176.726C168.796 176.873 168.597 177.079 168.457 177.344C168.318 177.608 168.248 177.921 168.248 178.281C168.248 178.649 168.321 178.972 168.468 179.252C168.616 179.524 168.825 179.737 169.097 179.892C169.369 180.039 169.682 180.112 170.035 180.112C170.329 180.112 170.597 180.061 170.84 179.958C171.09 179.855 171.303 179.7 171.48 179.494L172.12 180.145C171.87 180.439 171.561 180.664 171.193 180.818C170.833 180.973 170.447 181.05 170.035 181.05ZM173.522 180.939V175.7H174.515V180.939H173.522ZM174.515 177.95L174.14 177.785C174.14 177.116 174.294 176.582 174.603 176.185C174.912 175.788 175.357 175.59 175.937 175.59C176.202 175.59 176.441 175.638 176.654 175.733C176.868 175.821 177.066 175.972 177.25 176.185L176.599 176.858C176.489 176.741 176.368 176.656 176.235 176.605C176.103 176.553 175.949 176.527 175.772 176.527C175.404 176.527 175.103 176.645 174.868 176.88C174.632 177.116 174.515 177.472 174.515 177.95Z" fill="#3F4346"/>
<rect x="248.761" y="168.784" width="80.5076" height="16.3106" rx="2.46591" fill="white"/>
<rect x="248.761" y="168.784" width="80.5076" height="16.3106" rx="2.46591" stroke="#D5D9DC" stroke-width="0.583333"/>
<path d="M263.875 177.773H263.571L265.696 179.985C265.95 180.252 265.763 180.689 265.396 180.689C265.283 180.689 265.175 180.644 265.096 180.56L262.583 177.944C262.475 177.835 262.417 177.685 262.417 177.535C262.417 177.206 262.683 176.939 263.013 176.939H263.875C264.608 176.939 265.217 176.398 265.317 175.689H262.417C262.188 175.689 262 175.502 262 175.273C262 175.044 262.188 174.856 262.417 174.856H265.192C264.958 174.364 264.458 174.023 263.875 174.023H262.417C262.188 174.023 262 173.835 262 173.606C262 173.377 262.188 173.189 262.417 173.189H266.583C266.813 173.189 267 173.377 267 173.606C267 173.835 266.813 174.023 266.583 174.023H265.642C265.842 174.264 265.992 174.548 266.079 174.856H266.583C266.813 174.856 267 175.044 267 175.273C267 175.502 266.813 175.689 266.583 175.689H266.158C266.05 176.856 265.067 177.773 263.875 177.773Z" fill="#1A237E"/>
<path d="M276.206 179.939V179.228H277.803C278.228 179.228 278.6 179.137 278.92 178.955C279.24 178.767 279.488 178.511 279.664 178.186C279.846 177.86 279.937 177.485 279.937 177.061C279.937 176.641 279.846 176.269 279.664 175.944C279.482 175.618 279.231 175.365 278.912 175.183C278.592 175.001 278.222 174.91 277.803 174.91H276.215V174.198H277.82C278.239 174.198 278.625 174.27 278.978 174.413C279.336 174.557 279.645 174.758 279.904 175.017C280.169 175.276 280.373 175.58 280.517 175.927C280.665 176.275 280.74 176.655 280.74 177.069C280.74 177.477 280.665 177.857 280.517 178.21C280.373 178.558 280.172 178.861 279.913 179.12C279.653 179.38 279.345 179.581 278.986 179.724C278.633 179.868 278.25 179.939 277.836 179.939H276.206ZM275.694 179.939V174.198H276.471V179.939H275.694ZM283.505 180.022C283.113 180.022 282.76 179.934 282.446 179.757C282.132 179.575 281.883 179.33 281.701 179.021C281.519 178.712 281.428 178.362 281.428 177.971C281.428 177.584 281.517 177.237 281.693 176.928C281.875 176.619 282.118 176.377 282.421 176.2C282.73 176.018 283.075 175.927 283.455 175.927C283.819 175.927 284.139 176.01 284.415 176.175C284.696 176.341 284.914 176.57 285.068 176.862C285.228 177.154 285.308 177.485 285.308 177.855C285.308 177.91 285.306 177.971 285.3 178.037C285.295 178.097 285.284 178.169 285.267 178.252H281.95V177.631H284.87L284.597 177.871C284.597 177.607 284.55 177.383 284.456 177.201C284.363 177.014 284.23 176.87 284.059 176.771C283.888 176.666 283.681 176.614 283.439 176.614C283.185 176.614 282.962 176.669 282.769 176.779C282.576 176.89 282.427 177.044 282.322 177.243C282.217 177.441 282.165 177.675 282.165 177.946C282.165 178.221 282.22 178.464 282.33 178.674C282.44 178.878 282.598 179.038 282.802 179.154C283.006 179.264 283.24 179.319 283.505 179.319C283.726 179.319 283.927 179.28 284.109 179.203C284.296 179.126 284.456 179.01 284.589 178.856L285.068 179.344C284.881 179.564 284.649 179.733 284.374 179.848C284.103 179.964 283.814 180.022 283.505 180.022ZM286.562 179.939V175.423C286.562 175.13 286.625 174.877 286.752 174.661C286.879 174.441 287.052 174.267 287.273 174.14C287.499 174.013 287.761 173.95 288.059 173.95C288.285 173.95 288.481 173.989 288.646 174.066C288.812 174.143 288.963 174.256 289.101 174.405L288.613 174.885C288.541 174.808 288.462 174.75 288.373 174.711C288.285 174.667 288.177 174.645 288.051 174.645C287.813 174.645 287.629 174.714 287.496 174.852C287.37 174.99 287.306 175.18 287.306 175.423V179.939H286.562ZM285.594 176.688V176.01H288.555V176.688H285.594ZM290.748 180.022C290.39 180.022 290.064 179.934 289.772 179.757C289.48 179.575 289.248 179.33 289.077 179.021C288.912 178.712 288.829 178.365 288.829 177.979C288.829 177.593 288.912 177.245 289.077 176.936C289.248 176.628 289.477 176.382 289.764 176.2C290.056 176.018 290.384 175.927 290.748 175.927C291.046 175.927 291.311 175.991 291.542 176.117C291.779 176.239 291.97 176.41 292.113 176.63C292.257 176.845 292.336 177.096 292.353 177.383V178.566C292.336 178.847 292.257 179.098 292.113 179.319C291.975 179.54 291.788 179.713 291.551 179.84C291.319 179.962 291.051 180.022 290.748 180.022ZM290.872 179.319C291.242 179.319 291.54 179.195 291.766 178.947C291.992 178.693 292.105 178.37 292.105 177.979C292.105 177.709 292.052 177.474 291.948 177.276C291.848 177.072 291.705 176.914 291.517 176.804C291.33 176.688 291.112 176.63 290.864 176.63C290.616 176.63 290.395 176.688 290.202 176.804C290.015 176.92 289.866 177.08 289.755 177.284C289.651 177.482 289.598 177.711 289.598 177.971C289.598 178.235 289.651 178.47 289.755 178.674C289.866 178.872 290.017 179.029 290.21 179.145C290.403 179.261 290.624 179.319 290.872 179.319ZM292.055 179.939V178.881L292.196 177.921L292.055 176.97V176.01H292.808V179.939H292.055ZM295.472 180.022C295.152 180.022 294.863 179.95 294.603 179.807C294.35 179.658 294.151 179.454 294.008 179.195C293.864 178.936 293.793 178.635 293.793 178.293V176.01H294.537V178.26C294.537 178.475 294.573 178.663 294.645 178.823C294.722 178.977 294.832 179.096 294.976 179.178C295.119 179.261 295.287 179.302 295.48 179.302C295.773 179.302 296.002 179.211 296.167 179.029C296.332 178.842 296.415 178.585 296.415 178.26V176.01H297.16V178.293C297.16 178.635 297.088 178.936 296.945 179.195C296.801 179.454 296.603 179.658 296.349 179.807C296.101 179.95 295.809 180.022 295.472 180.022ZM298.158 179.939V174.033H298.902V179.939H298.158ZM300.595 179.939V174.364H301.34V179.939H300.595ZM299.628 176.688V176.01H302.308V176.688H299.628Z" fill="#1A237E"/>
<path d="M309.78 179.215V180.482C309.78 180.598 309.871 180.69 309.988 180.69H311.255C311.309 180.69 311.363 180.669 311.401 180.628L315.951 176.082L314.388 174.519L309.842 179.065C309.801 179.107 309.78 179.157 309.78 179.215ZM317.159 174.873C317.321 174.711 317.321 174.448 317.159 174.286L316.184 173.311C316.021 173.148 315.759 173.148 315.596 173.311L314.834 174.073L316.396 175.636L317.159 174.873Z" fill="#1A237E"/>
<rect x="102.167" y="201.917" width="235.667" height="36.1667" rx="2.75758" fill="#FAFAFA"/>
<path fill-rule="evenodd" clip-rule="evenodd" d="M111.658 218.786L123.198 214.754C123.214 214.748 123.231 214.75 123.247 214.757C123.262 214.765 123.274 214.778 123.279 214.794C123.282 214.801 123.283 214.808 123.283 214.815V225.185C123.283 225.203 123.276 225.219 123.264 225.231C123.252 225.244 123.235 225.25 123.218 225.25H123.209L111.668 224.688C111.651 224.687 111.635 224.679 111.624 224.667C111.612 224.655 111.606 224.639 111.606 224.622V218.85C111.606 218.835 111.611 218.82 111.621 218.809C111.63 218.797 111.643 218.789 111.658 218.786ZM112.918 219.897C112.861 219.886 112.802 219.897 112.752 219.927C112.702 219.957 112.666 220.005 112.65 220.061C112.634 220.117 112.639 220.177 112.664 220.229C112.69 220.281 112.734 220.322 112.788 220.343L117.004 221.562L117.099 221.485L121.297 218.021C121.324 218.003 121.347 217.979 121.365 217.951C121.382 217.924 121.394 217.893 121.398 217.861C121.403 217.828 121.401 217.796 121.392 217.764C121.384 217.733 121.368 217.703 121.348 217.678C121.327 217.653 121.301 217.632 121.272 217.618C121.243 217.603 121.211 217.595 121.178 217.593C121.146 217.592 121.113 217.597 121.083 217.609C121.052 217.621 121.025 217.639 121.002 217.662L116.898 221.049L112.918 219.897Z" fill="#1E75BA"/>
<path d="M132.238 224V216.345H132.966L136.209 221.673H135.712L138.955 216.345H139.683V224H138.646V218.165L138.889 218.232L136.33 222.434H135.602L133.043 218.232L133.275 218.165V224H132.238ZM143.469 224.111C142.866 224.111 142.351 224 141.925 223.78C141.498 223.559 141.119 223.239 140.788 222.82L141.494 222.114C141.737 222.453 142.017 222.71 142.333 222.886C142.649 223.056 143.039 223.14 143.502 223.14C143.958 223.14 144.322 223.041 144.594 222.842C144.873 222.644 145.013 222.372 145.013 222.026C145.013 221.739 144.947 221.508 144.815 221.331C144.682 221.155 144.502 221.011 144.274 220.901C144.053 220.783 143.811 220.68 143.546 220.592C143.281 220.497 143.017 220.397 142.752 220.294C142.487 220.184 142.244 220.052 142.024 219.897C141.803 219.735 141.623 219.526 141.483 219.268C141.351 219.011 141.285 218.688 141.285 218.298C141.285 217.864 141.388 217.496 141.594 217.195C141.807 216.886 142.094 216.651 142.454 216.489C142.822 216.32 143.234 216.235 143.689 216.235C144.19 216.235 144.638 216.334 145.035 216.533C145.432 216.724 145.756 216.978 146.006 217.294L145.3 218C145.072 217.735 144.826 217.537 144.561 217.404C144.303 217.272 144.006 217.206 143.667 217.206C143.256 217.206 142.928 217.298 142.686 217.482C142.443 217.658 142.322 217.908 142.322 218.232C142.322 218.489 142.388 218.699 142.52 218.86C142.66 219.015 142.84 219.147 143.061 219.257C143.281 219.368 143.524 219.471 143.789 219.566C144.061 219.655 144.329 219.754 144.594 219.864C144.859 219.974 145.101 220.114 145.322 220.283C145.543 220.452 145.719 220.673 145.851 220.945C145.991 221.21 146.061 221.544 146.061 221.949C146.061 222.625 145.826 223.155 145.355 223.537C144.892 223.92 144.263 224.111 143.469 224.111ZM150.954 224.111C150.417 224.111 149.914 224.012 149.443 223.813C148.98 223.607 148.572 223.324 148.219 222.964C147.873 222.603 147.601 222.184 147.402 221.706C147.204 221.228 147.105 220.713 147.105 220.162C147.105 219.61 147.204 219.099 147.402 218.629C147.601 218.151 147.877 217.732 148.23 217.371C148.583 217.011 148.994 216.732 149.465 216.533C149.943 216.334 150.462 216.235 151.02 216.235C151.631 216.235 152.193 216.353 152.708 216.588C153.223 216.823 153.653 217.162 153.999 217.603L153.282 218.32C153.039 217.967 152.719 217.699 152.322 217.515C151.925 217.323 151.491 217.228 151.02 217.228C150.462 217.228 149.965 217.353 149.531 217.603C149.105 217.853 148.77 218.199 148.528 218.64C148.292 219.081 148.175 219.588 148.175 220.162C148.175 220.743 148.296 221.254 148.539 221.695C148.781 222.136 149.108 222.482 149.52 222.732C149.932 222.982 150.403 223.107 150.932 223.107C151.469 223.107 151.932 223.004 152.322 222.798C152.719 222.592 153.024 222.291 153.237 221.894C153.451 221.489 153.557 220.997 153.557 220.416L154.186 220.868H150.877V219.919H154.627V220.074C154.627 220.963 154.469 221.71 154.153 222.313C153.844 222.908 153.41 223.357 152.851 223.659C152.3 223.96 151.668 224.111 150.954 224.111ZM156.739 224L159.044 220.857L159.419 220.658C159.331 220.805 159.224 220.934 159.099 221.044C158.974 221.155 158.82 221.239 158.636 221.298C158.46 221.357 158.243 221.386 157.985 221.386C157.544 221.386 157.136 221.28 156.761 221.066C156.393 220.853 156.099 220.559 155.879 220.184C155.658 219.802 155.548 219.371 155.548 218.893C155.548 218.401 155.669 217.956 155.912 217.559C156.154 217.154 156.478 216.834 156.882 216.599C157.287 216.356 157.735 216.235 158.228 216.235C158.728 216.235 159.18 216.353 159.585 216.588C159.989 216.823 160.309 217.14 160.544 217.537C160.78 217.926 160.897 218.368 160.897 218.86C160.897 219.537 160.662 220.21 160.191 220.879L157.941 224H156.739ZM158.228 220.57C158.537 220.57 158.813 220.497 159.055 220.349C159.305 220.195 159.5 219.993 159.64 219.743C159.787 219.485 159.86 219.202 159.86 218.893C159.86 218.57 159.787 218.283 159.64 218.033C159.5 217.776 159.305 217.573 159.055 217.426C158.813 217.279 158.537 217.206 158.228 217.206C157.919 217.206 157.64 217.279 157.39 217.426C157.147 217.573 156.952 217.776 156.805 218.033C156.658 218.283 156.584 218.57 156.584 218.893C156.584 219.21 156.658 219.493 156.805 219.743C156.952 219.993 157.151 220.195 157.401 220.349C157.651 220.497 157.927 220.57 158.228 220.57ZM163.155 224V216.345H164.181V224H163.155ZM161.589 217.272V216.345H164.07V217.272H161.589Z" fill="#3F4346"/>
<rect x="248.761" y="211.845" width="80.5076" height="16.3106" rx="2.46591" fill="white"/>
<rect x="248.761" y="211.845" width="80.5076" height="16.3106" rx="2.46591" stroke="#D5D9DC" stroke-width="0.583333"/>
<path d="M266.721 222.442C266.525 222.342 266.292 222.421 266.175 222.608C266.025 222.858 265.771 223.021 265.383 223.021H263.342C263.688 222.604 263.967 222.046 263.967 221.354C263.967 221.208 263.954 221.067 263.933 220.938H264.967C265.196 220.938 265.383 220.75 265.383 220.521C265.383 220.292 265.196 220.104 264.967 220.104H263.642C263.3 219.446 262.883 219.104 262.883 218.438C262.883 217.633 263.538 216.979 264.342 216.979C264.842 216.979 265.283 217.233 265.546 217.617C265.658 217.783 265.867 217.863 266.054 217.783C266.304 217.679 266.388 217.371 266.233 217.146C265.821 216.542 265.125 216.146 264.342 216.146C263.075 216.146 262.05 217.171 262.05 218.438C262.05 219.179 262.379 219.646 262.671 220.104H262.467C262.238 220.104 262.05 220.292 262.05 220.521C262.05 220.75 262.238 220.938 262.467 220.938H263.079C263.113 221.067 263.133 221.204 263.133 221.354C263.133 222.146 262.596 222.65 262.275 222.879C262.133 222.979 262.05 223.142 262.05 223.317C262.05 223.613 262.292 223.854 262.588 223.854H265.383C266.029 223.854 266.613 223.538 266.896 223.021C267.013 222.808 266.933 222.546 266.721 222.442Z" fill="#1A237E"/>
<path d="M276.206 223V222.289H277.803C278.228 222.289 278.6 222.198 278.92 222.016C279.24 221.828 279.488 221.572 279.664 221.246C279.846 220.921 279.937 220.546 279.937 220.121C279.937 219.702 279.846 219.33 279.664 219.004C279.482 218.679 279.231 218.425 278.912 218.243C278.592 218.061 278.222 217.97 277.803 217.97H276.215V217.259H277.82C278.239 217.259 278.625 217.33 278.978 217.474C279.336 217.617 279.645 217.819 279.904 218.078C280.169 218.337 280.373 218.64 280.517 218.988C280.665 219.335 280.74 219.716 280.74 220.129C280.74 220.537 280.665 220.918 280.517 221.271C280.373 221.618 280.172 221.922 279.913 222.181C279.653 222.44 279.345 222.642 278.986 222.785C278.633 222.928 278.25 223 277.836 223H276.206ZM275.694 223V217.259H276.471V223H275.694ZM283.505 223.083C283.113 223.083 282.76 222.994 282.446 222.818C282.132 222.636 281.883 222.391 281.701 222.082C281.519 221.773 281.428 221.423 281.428 221.031C281.428 220.645 281.517 220.298 281.693 219.989C281.875 219.68 282.118 219.437 282.421 219.261C282.73 219.079 283.075 218.988 283.455 218.988C283.819 218.988 284.139 219.07 284.415 219.236C284.696 219.401 284.914 219.63 285.068 219.923C285.228 220.215 285.308 220.546 285.308 220.915C285.308 220.97 285.306 221.031 285.3 221.097C285.295 221.158 285.284 221.23 285.267 221.312H281.95V220.692H284.87L284.597 220.932C284.597 220.667 284.55 220.444 284.456 220.262C284.363 220.074 284.23 219.931 284.059 219.832C283.888 219.727 283.681 219.674 283.439 219.674C283.185 219.674 282.962 219.73 282.769 219.84C282.576 219.95 282.427 220.105 282.322 220.303C282.217 220.502 282.165 220.736 282.165 221.006C282.165 221.282 282.22 221.525 282.33 221.734C282.44 221.938 282.598 222.098 282.802 222.214C283.006 222.324 283.24 222.38 283.505 222.38C283.726 222.38 283.927 222.341 284.109 222.264C284.296 222.187 284.456 222.071 284.589 221.916L285.068 222.404C284.881 222.625 284.649 222.793 284.374 222.909C284.103 223.025 283.814 223.083 283.505 223.083ZM286.562 223V218.483C286.562 218.191 286.625 217.937 286.752 217.722C286.879 217.501 287.052 217.328 287.273 217.201C287.499 217.074 287.761 217.011 288.059 217.011C288.285 217.011 288.481 217.049 288.646 217.126C288.812 217.204 288.963 217.317 289.101 217.466L288.613 217.945C288.541 217.868 288.462 217.81 288.373 217.772C288.285 217.728 288.177 217.705 288.051 217.705C287.813 217.705 287.629 217.774 287.496 217.912C287.37 218.05 287.306 218.24 287.306 218.483V223H286.562ZM285.594 219.749V219.07H288.555V219.749H285.594ZM290.748 223.083C290.39 223.083 290.064 222.994 289.772 222.818C289.48 222.636 289.248 222.391 289.077 222.082C288.912 221.773 288.829 221.425 288.829 221.039C288.829 220.653 288.912 220.306 289.077 219.997C289.248 219.688 289.477 219.443 289.764 219.261C290.056 219.079 290.384 218.988 290.748 218.988C291.046 218.988 291.311 219.051 291.542 219.178C291.779 219.299 291.97 219.47 292.113 219.691C292.257 219.906 292.336 220.157 292.353 220.444V221.627C292.336 221.908 292.257 222.159 292.113 222.38C291.975 222.6 291.788 222.774 291.551 222.901C291.319 223.022 291.051 223.083 290.748 223.083ZM290.872 222.38C291.242 222.38 291.54 222.255 291.766 222.007C291.992 221.754 292.105 221.431 292.105 221.039C292.105 220.769 292.052 220.535 291.948 220.336C291.848 220.132 291.705 219.975 291.517 219.865C291.33 219.749 291.112 219.691 290.864 219.691C290.616 219.691 290.395 219.749 290.202 219.865C290.015 219.98 289.866 220.14 289.755 220.344C289.651 220.543 289.598 220.772 289.598 221.031C289.598 221.296 289.651 221.53 289.755 221.734C289.866 221.933 290.017 222.09 290.21 222.206C290.403 222.322 290.624 222.38 290.872 222.38ZM292.055 223V221.941L292.196 220.981L292.055 220.03V219.07H292.808V223H292.055ZM295.472 223.083C295.152 223.083 294.863 223.011 294.603 222.868C294.35 222.719 294.151 222.515 294.008 222.255C293.864 221.996 293.793 221.696 293.793 221.354V219.07H294.537V221.321C294.537 221.536 294.573 221.723 294.645 221.883C294.722 222.038 294.832 222.156 294.976 222.239C295.119 222.322 295.287 222.363 295.48 222.363C295.773 222.363 296.002 222.272 296.167 222.09C296.332 221.902 296.415 221.646 296.415 221.321V219.07H297.16V221.354C297.16 221.696 297.088 221.996 296.945 222.255C296.801 222.515 296.603 222.719 296.349 222.868C296.101 223.011 295.809 223.083 295.472 223.083ZM298.158 223V217.093H298.902V223H298.158ZM300.595 223V217.424H301.34V223H300.595ZM299.628 219.749V219.07H302.308V219.749H299.628Z" fill="#1A237E"/>
<path d="M309.78 222.276V223.542C309.78 223.659 309.871 223.751 309.988 223.751H311.255C311.309 223.751 311.363 223.73 311.401 223.688L315.951 219.142L314.388 217.58L309.842 222.126C309.801 222.167 309.78 222.217 309.78 222.276ZM317.159 217.934C317.321 217.771 317.321 217.509 317.159 217.346L316.184 216.371C316.021 216.209 315.759 216.209 315.596 216.371L314.834 217.134L316.396 218.696L317.159 217.934Z" fill="#1A237E"/>
<rect x="102.167" y="244.977" width="235.667" height="36.1667" rx="2.75758" fill="#FAFAFA"/>
<path d="M122.556 267.993H121.792V267.349H122.556C122.693 267.349 122.801 267.232 122.801 267.085C122.801 266.937 122.693 266.821 122.556 266.821H121.792V266.728C121.792 266.58 121.683 266.464 121.546 266.464C120.934 266.464 120.494 266.759 120.335 267.248C120.314 267.24 120.292 267.232 120.263 267.232H112.786V258.218H121.82V264.429C121.82 264.67 122.008 264.872 122.231 264.872C122.455 264.872 122.642 264.678 122.642 264.429V257.776C122.642 257.535 122.455 257.333 122.231 257.333H112.375C112.152 257.333 111.964 257.527 111.964 257.776V267.675C111.964 267.916 112.145 268.117 112.375 268.117H120.263C120.285 268.117 120.306 268.11 120.328 268.102C120.508 268.669 121.042 268.886 121.546 268.886C121.683 268.886 121.792 268.77 121.792 268.622V268.529H122.556C122.693 268.529 122.801 268.412 122.801 268.265C122.801 268.117 122.693 267.993 122.556 267.993Z" fill="#1A237E"/>
<path d="M116.084 260.691C116.084 260.322 115.781 260.02 115.412 260.02C115.043 260.02 114.741 260.322 114.741 260.691C114.741 261.06 115.043 261.363 115.412 261.363C115.781 261.363 116.084 261.06 116.084 260.691Z" fill="black"/>
<path d="M120.025 260.691C120.025 260.322 119.722 260.02 119.353 260.02C118.984 260.02 118.681 260.322 118.681 260.691C118.681 261.06 118.984 261.363 119.353 261.363C119.722 261.363 120.025 261.06 120.025 260.691Z" fill="black"/>
<path d="M117.527 264.587C116.769 264.587 116.146 264.47 116.109 264.47C115.853 264.424 115.688 264.175 115.733 263.911C115.778 263.647 116.011 263.476 116.274 263.523C116.289 263.523 117.565 263.756 118.563 263.523C118.819 263.468 119.066 263.631 119.119 263.888C119.172 264.152 119.014 264.408 118.766 264.463C118.353 264.556 117.925 264.587 117.527 264.587Z" fill="black"/>
<path d="M134.53 267.06L131.463 259.405H132.588L135.114 265.88H134.706L137.254 259.405H138.368L135.28 267.06H134.53ZM139.454 267.06V261.821H140.447V267.06H139.454ZM139.951 260.773C139.767 260.773 139.616 260.714 139.498 260.596C139.381 260.471 139.322 260.317 139.322 260.133C139.322 259.957 139.381 259.809 139.498 259.692C139.616 259.567 139.767 259.504 139.951 259.504C140.135 259.504 140.285 259.567 140.403 259.692C140.521 259.809 140.579 259.957 140.579 260.133C140.579 260.317 140.521 260.471 140.403 260.596C140.285 260.714 140.135 260.773 139.951 260.773ZM144.138 267.17C143.66 267.17 143.226 267.053 142.837 266.817C142.447 266.575 142.138 266.247 141.91 265.836C141.689 265.424 141.579 264.961 141.579 264.446C141.579 263.931 141.689 263.468 141.91 263.056C142.138 262.644 142.443 262.317 142.826 262.074C143.215 261.832 143.653 261.71 144.138 261.71C144.535 261.71 144.888 261.795 145.197 261.964C145.513 262.126 145.767 262.354 145.958 262.648C146.149 262.935 146.256 263.269 146.278 263.652V265.229C146.256 265.604 146.149 265.939 145.958 266.233C145.774 266.527 145.524 266.759 145.208 266.928C144.899 267.089 144.543 267.17 144.138 267.17ZM144.304 266.233C144.796 266.233 145.193 266.067 145.495 265.736C145.796 265.398 145.947 264.968 145.947 264.446C145.947 264.086 145.877 263.773 145.738 263.508C145.605 263.236 145.414 263.027 145.164 262.88C144.914 262.725 144.624 262.648 144.293 262.648C143.962 262.648 143.668 262.725 143.41 262.88C143.16 263.034 142.962 263.247 142.815 263.519C142.675 263.784 142.605 264.089 142.605 264.435C142.605 264.788 142.675 265.1 142.815 265.372C142.962 265.637 143.164 265.847 143.421 266.001C143.679 266.156 143.973 266.233 144.304 266.233ZM145.881 267.06V265.648L146.068 264.369L145.881 263.1V261.821H146.885V267.06H145.881ZM150.635 267.17C150.032 267.17 149.518 267.06 149.091 266.839C148.665 266.619 148.286 266.299 147.955 265.88L148.661 265.174C148.904 265.512 149.183 265.77 149.499 265.946C149.815 266.115 150.205 266.2 150.668 266.2C151.124 266.2 151.488 266.1 151.76 265.902C152.04 265.703 152.18 265.431 152.18 265.086C152.18 264.799 152.113 264.567 151.981 264.391C151.849 264.214 151.669 264.071 151.441 263.961C151.22 263.843 150.977 263.74 150.713 263.652C150.448 263.556 150.183 263.457 149.918 263.354C149.654 263.244 149.411 263.111 149.19 262.957C148.97 262.795 148.79 262.585 148.65 262.328C148.518 262.071 148.451 261.747 148.451 261.357C148.451 260.924 148.554 260.556 148.76 260.254C148.973 259.946 149.26 259.71 149.621 259.548C149.988 259.379 150.4 259.295 150.856 259.295C151.356 259.295 151.805 259.394 152.202 259.593C152.599 259.784 152.922 260.037 153.172 260.354L152.466 261.06C152.238 260.795 151.992 260.596 151.727 260.464C151.47 260.332 151.172 260.265 150.834 260.265C150.422 260.265 150.095 260.357 149.852 260.541C149.61 260.718 149.488 260.968 149.488 261.291C149.488 261.549 149.554 261.758 149.687 261.92C149.826 262.074 150.007 262.207 150.227 262.317C150.448 262.427 150.691 262.53 150.955 262.626C151.227 262.714 151.496 262.813 151.76 262.924C152.025 263.034 152.268 263.174 152.488 263.343C152.709 263.512 152.886 263.733 153.018 264.005C153.158 264.269 153.227 264.604 153.227 265.008C153.227 265.685 152.992 266.214 152.522 266.597C152.058 266.979 151.43 267.17 150.635 267.17ZM156.767 267.17C156.252 267.17 155.789 267.049 155.377 266.806C154.965 266.564 154.638 266.236 154.395 265.825C154.152 265.406 154.031 264.939 154.031 264.424C154.031 263.916 154.152 263.461 154.395 263.056C154.638 262.644 154.965 262.317 155.377 262.074C155.789 261.832 156.252 261.71 156.767 261.71C157.274 261.71 157.734 261.832 158.145 262.074C158.565 262.31 158.895 262.633 159.138 263.045C159.381 263.457 159.502 263.916 159.502 264.424C159.502 264.939 159.381 265.406 159.138 265.825C158.895 266.236 158.565 266.564 158.145 266.806C157.734 267.049 157.274 267.17 156.767 267.17ZM156.767 266.211C157.097 266.211 157.392 266.134 157.649 265.979C157.906 265.825 158.109 265.615 158.256 265.35C158.403 265.078 158.476 264.769 158.476 264.424C158.476 264.086 158.399 263.784 158.245 263.519C158.098 263.255 157.895 263.049 157.638 262.902C157.388 262.747 157.097 262.67 156.767 262.67C156.436 262.67 156.142 262.747 155.884 262.902C155.627 263.049 155.425 263.255 155.277 263.519C155.13 263.784 155.057 264.086 155.057 264.424C155.057 264.769 155.13 265.078 155.277 265.35C155.425 265.615 155.627 265.825 155.884 265.979C156.142 266.134 156.436 266.211 156.767 266.211ZM163.014 267.17C162.499 267.17 162.033 267.049 161.613 266.806C161.202 266.564 160.874 266.236 160.632 265.825C160.396 265.406 160.279 264.942 160.279 264.435C160.279 263.92 160.396 263.457 160.632 263.045C160.874 262.633 161.202 262.31 161.613 262.074C162.033 261.832 162.499 261.71 163.014 261.71C163.419 261.71 163.794 261.788 164.139 261.942C164.485 262.089 164.783 262.306 165.033 262.593L164.371 263.255C164.209 263.063 164.011 262.92 163.775 262.824C163.547 262.721 163.294 262.67 163.014 262.67C162.683 262.67 162.389 262.747 162.132 262.902C161.874 263.049 161.672 263.255 161.525 263.519C161.378 263.784 161.305 264.089 161.305 264.435C161.305 264.78 161.378 265.086 161.525 265.35C161.672 265.615 161.874 265.825 162.132 265.979C162.389 266.134 162.683 266.211 163.014 266.211C163.294 266.211 163.547 266.163 163.775 266.067C164.011 265.964 164.213 265.817 164.382 265.626L165.033 266.288C164.79 266.567 164.492 266.784 164.139 266.939C163.794 267.093 163.419 267.17 163.014 267.17ZM169.371 267.06L166.922 264.38L169.348 261.821H170.551L167.848 264.644L167.892 264.071L170.65 267.06H169.371ZM166.017 267.06V259.184H167.01V267.06H166.017ZM173.636 267.17C173.114 267.17 172.643 267.053 172.224 266.817C171.805 266.575 171.474 266.247 171.231 265.836C170.989 265.424 170.867 264.957 170.867 264.435C170.867 263.92 170.985 263.457 171.22 263.045C171.463 262.633 171.787 262.31 172.191 262.074C172.603 261.832 173.062 261.71 173.57 261.71C174.055 261.71 174.482 261.821 174.849 262.041C175.224 262.262 175.515 262.567 175.721 262.957C175.934 263.347 176.041 263.788 176.041 264.28C176.041 264.354 176.037 264.435 176.03 264.523C176.022 264.604 176.007 264.7 175.985 264.81H171.562V263.983H175.456L175.092 264.302C175.092 263.95 175.029 263.652 174.904 263.409C174.779 263.159 174.603 262.968 174.375 262.835C174.147 262.696 173.871 262.626 173.548 262.626C173.209 262.626 172.912 262.699 172.654 262.846C172.397 262.994 172.198 263.199 172.059 263.464C171.919 263.729 171.849 264.041 171.849 264.402C171.849 264.769 171.923 265.093 172.07 265.372C172.217 265.645 172.426 265.858 172.698 266.012C172.97 266.159 173.283 266.233 173.636 266.233C173.93 266.233 174.199 266.181 174.441 266.078C174.691 265.975 174.904 265.821 175.081 265.615L175.721 266.266C175.471 266.56 175.162 266.784 174.794 266.939C174.434 267.093 174.048 267.17 173.636 267.17ZM177.767 267.06V259.626H178.759V267.06H177.767ZM176.476 262.725V261.821H180.05V262.725H176.476Z" fill="#3F4346"/>
<rect x="248.761" y="254.905" width="80.5076" height="16.3106" rx="2.46591" fill="white"/>
<rect x="248.761" y="254.905" width="80.5076" height="16.3106" rx="2.46591" stroke="#D5D9DC" stroke-width="0.583333"/>
<path d="M264.625 262.602C263.679 262.356 263.375 262.102 263.375 261.706C263.375 261.252 263.796 260.935 264.5 260.935C265.092 260.935 265.388 261.16 265.496 261.518C265.546 261.685 265.683 261.81 265.858 261.81H265.983C266.258 261.81 266.454 261.539 266.358 261.281C266.183 260.789 265.775 260.381 265.125 260.223V259.935C265.125 259.589 264.846 259.31 264.5 259.31C264.154 259.31 263.875 259.589 263.875 259.935V260.21C263.067 260.385 262.417 260.91 262.417 261.714C262.417 262.677 263.213 263.156 264.375 263.435C265.417 263.685 265.625 264.052 265.625 264.439C265.625 264.727 265.421 265.185 264.5 265.185C263.813 265.185 263.458 264.939 263.321 264.589C263.258 264.427 263.117 264.31 262.946 264.31H262.829C262.55 264.31 262.354 264.593 262.458 264.852C262.696 265.431 263.25 265.773 263.875 265.906V266.185C263.875 266.531 264.154 266.81 264.5 266.81C264.846 266.81 265.125 266.531 265.125 266.185V265.914C265.938 265.76 266.583 265.289 266.583 264.435C266.583 263.252 265.571 262.848 264.625 262.602Z" fill="#1A237E"/>
<path d="M276.206 266.06V265.349H277.803C278.228 265.349 278.6 265.258 278.92 265.076C279.24 264.888 279.488 264.632 279.664 264.306C279.846 263.981 279.937 263.606 279.937 263.181C279.937 262.762 279.846 262.39 279.664 262.064C279.482 261.739 279.231 261.485 278.912 261.303C278.592 261.121 278.222 261.03 277.803 261.03H276.215V260.319H277.82C278.239 260.319 278.625 260.39 278.978 260.534C279.336 260.677 279.645 260.879 279.904 261.138C280.169 261.397 280.373 261.7 280.517 262.048C280.665 262.395 280.74 262.776 280.74 263.189C280.74 263.598 280.665 263.978 280.517 264.331C280.373 264.679 280.172 264.982 279.913 265.241C279.653 265.5 279.345 265.702 278.986 265.845C278.633 265.988 278.25 266.06 277.836 266.06H276.206ZM275.694 266.06V260.319H276.471V266.06H275.694ZM283.505 266.143C283.113 266.143 282.76 266.055 282.446 265.878C282.132 265.696 281.883 265.451 281.701 265.142C281.519 264.833 281.428 264.483 281.428 264.091C281.428 263.705 281.517 263.358 281.693 263.049C281.875 262.74 282.118 262.497 282.421 262.321C282.73 262.139 283.075 262.048 283.455 262.048C283.819 262.048 284.139 262.131 284.415 262.296C284.696 262.461 284.914 262.69 285.068 262.983C285.228 263.275 285.308 263.606 285.308 263.975C285.308 264.03 285.306 264.091 285.3 264.157C285.295 264.218 285.284 264.29 285.267 264.372H281.95V263.752H284.87L284.597 263.992C284.597 263.727 284.55 263.504 284.456 263.322C284.363 263.134 284.23 262.991 284.059 262.892C283.888 262.787 283.681 262.734 283.439 262.734C283.185 262.734 282.962 262.79 282.769 262.9C282.576 263.01 282.427 263.165 282.322 263.363C282.217 263.562 282.165 263.796 282.165 264.066C282.165 264.342 282.22 264.585 282.33 264.794C282.44 264.998 282.598 265.158 282.802 265.274C283.006 265.384 283.24 265.44 283.505 265.44C283.726 265.44 283.927 265.401 284.109 265.324C284.296 265.247 284.456 265.131 284.589 264.976L285.068 265.464C284.881 265.685 284.649 265.853 284.374 265.969C284.103 266.085 283.814 266.143 283.505 266.143ZM286.562 266.06V261.543C286.562 261.251 286.625 260.997 286.752 260.782C286.879 260.561 287.052 260.388 287.273 260.261C287.499 260.134 287.761 260.071 288.059 260.071C288.285 260.071 288.481 260.109 288.646 260.186C288.812 260.264 288.963 260.377 289.101 260.526L288.613 261.005C288.541 260.928 288.462 260.87 288.373 260.832C288.285 260.788 288.177 260.766 288.051 260.766C287.813 260.766 287.629 260.834 287.496 260.972C287.37 261.11 287.306 261.3 287.306 261.543V266.06H286.562ZM285.594 262.809V262.131H288.555V262.809H285.594ZM290.748 266.143C290.39 266.143 290.064 266.055 289.772 265.878C289.48 265.696 289.248 265.451 289.077 265.142C288.912 264.833 288.829 264.485 288.829 264.099C288.829 263.713 288.912 263.366 289.077 263.057C289.248 262.748 289.477 262.503 289.764 262.321C290.056 262.139 290.384 262.048 290.748 262.048C291.046 262.048 291.311 262.111 291.542 262.238C291.779 262.359 291.97 262.53 292.113 262.751C292.257 262.966 292.336 263.217 292.353 263.504V264.687C292.336 264.968 292.257 265.219 292.113 265.44C291.975 265.66 291.788 265.834 291.551 265.961C291.319 266.082 291.051 266.143 290.748 266.143ZM290.872 265.44C291.242 265.44 291.54 265.316 291.766 265.067C291.992 264.814 292.105 264.491 292.105 264.099C292.105 263.829 292.052 263.595 291.948 263.396C291.848 263.192 291.705 263.035 291.517 262.925C291.33 262.809 291.112 262.751 290.864 262.751C290.616 262.751 290.395 262.809 290.202 262.925C290.015 263.041 289.866 263.2 289.755 263.405C289.651 263.603 289.598 263.832 289.598 264.091C289.598 264.356 289.651 264.59 289.755 264.794C289.866 264.993 290.017 265.15 290.21 265.266C290.403 265.382 290.624 265.44 290.872 265.44ZM292.055 266.06V265.001L292.196 264.042L292.055 263.09V262.131H292.808V266.06H292.055ZM295.472 266.143C295.152 266.143 294.863 266.071 294.603 265.928C294.35 265.779 294.151 265.575 294.008 265.316C293.864 265.056 293.793 264.756 293.793 264.414V262.131H294.537V264.381C294.537 264.596 294.573 264.783 294.645 264.943C294.722 265.098 294.832 265.216 294.976 265.299C295.119 265.382 295.287 265.423 295.48 265.423C295.773 265.423 296.002 265.332 296.167 265.15C296.332 264.963 296.415 264.706 296.415 264.381V262.131H297.16V264.414C297.16 264.756 297.088 265.056 296.945 265.316C296.801 265.575 296.603 265.779 296.349 265.928C296.101 266.071 295.809 266.143 295.472 266.143ZM298.158 266.06V260.153H298.902V266.06H298.158ZM300.595 266.06V260.484H301.34V266.06H300.595ZM299.628 262.809V262.131H302.308V262.809H299.628Z" fill="#1A237E"/>
<path d="M309.78 265.336V266.602C309.78 266.719 309.871 266.811 309.988 266.811H311.255C311.309 266.811 311.363 266.79 311.401 266.748L315.951 262.202L314.388 260.64L309.842 265.186C309.801 265.227 309.78 265.277 309.78 265.336ZM317.159 260.994C317.321 260.831 317.321 260.569 317.159 260.406L316.184 259.431C316.021 259.269 315.759 259.269 315.596 259.431L314.834 260.194L316.396 261.756L317.159 260.994Z" fill="#1A237E"/>
<rect x="231.121" y="108.227" width="122.091" height="36.5455" rx="2.75758" fill="#1A237E"/>
<path d="M248.163 132.5L252.707 121.396H253.795L258.323 132.5H256.691L252.963 123.108H253.523L249.763 132.5H248.163ZM250.323 129.988V128.676H256.163V129.988H250.323ZM262.851 132.66C262.104 132.66 261.427 132.484 260.819 132.132C260.221 131.78 259.747 131.305 259.395 130.708C259.053 130.1 258.883 129.428 258.883 128.692C258.883 127.945 259.053 127.273 259.395 126.676C259.747 126.079 260.221 125.609 260.819 125.268C261.427 124.916 262.104 124.74 262.851 124.74C263.437 124.74 263.981 124.852 264.483 125.076C264.984 125.289 265.416 125.604 265.779 126.02L264.819 126.98C264.584 126.703 264.296 126.495 263.955 126.356C263.624 126.207 263.256 126.132 262.851 126.132C262.371 126.132 261.944 126.244 261.571 126.468C261.197 126.681 260.904 126.98 260.691 127.364C260.477 127.748 260.371 128.191 260.371 128.692C260.371 129.193 260.477 129.636 260.691 130.02C260.904 130.404 261.197 130.708 261.571 130.932C261.944 131.156 262.371 131.268 262.851 131.268C263.256 131.268 263.624 131.199 263.955 131.06C264.296 130.911 264.589 130.697 264.835 130.42L265.779 131.38C265.427 131.785 264.995 132.1 264.483 132.324C263.981 132.548 263.437 132.66 262.851 132.66ZM270.523 132.66C269.776 132.66 269.099 132.484 268.491 132.132C267.893 131.78 267.419 131.305 267.067 130.708C266.725 130.1 266.555 129.428 266.555 128.692C266.555 127.945 266.725 127.273 267.067 126.676C267.419 126.079 267.893 125.609 268.491 125.268C269.099 124.916 269.776 124.74 270.523 124.74C271.109 124.74 271.653 124.852 272.155 125.076C272.656 125.289 273.088 125.604 273.451 126.02L272.491 126.98C272.256 126.703 271.968 126.495 271.627 126.356C271.296 126.207 270.928 126.132 270.523 126.132C270.043 126.132 269.616 126.244 269.243 126.468C268.869 126.681 268.576 126.98 268.363 127.364C268.149 127.748 268.043 128.191 268.043 128.692C268.043 129.193 268.149 129.636 268.363 130.02C268.576 130.404 268.869 130.708 269.243 130.932C269.616 131.156 270.043 131.268 270.523 131.268C270.928 131.268 271.296 131.199 271.627 131.06C271.968 130.911 272.261 130.697 272.507 130.42L273.451 131.38C273.099 131.785 272.667 132.1 272.155 132.324C271.653 132.548 271.109 132.66 270.523 132.66ZM278.195 132.66C277.448 132.66 276.776 132.484 276.179 132.132C275.581 131.78 275.107 131.305 274.755 130.708C274.403 130.1 274.227 129.423 274.227 128.676C274.227 127.94 274.403 127.279 274.755 126.692C275.107 126.095 275.581 125.62 276.179 125.268C276.776 124.916 277.448 124.74 278.195 124.74C278.931 124.74 279.597 124.916 280.195 125.268C280.803 125.609 281.283 126.079 281.635 126.676C281.987 127.273 282.163 127.94 282.163 128.676C282.163 129.423 281.987 130.1 281.635 130.708C281.283 131.305 280.803 131.78 280.195 132.132C279.597 132.484 278.931 132.66 278.195 132.66ZM278.195 131.268C278.675 131.268 279.101 131.156 279.475 130.932C279.848 130.708 280.141 130.404 280.355 130.02C280.568 129.625 280.675 129.177 280.675 128.676C280.675 128.185 280.563 127.748 280.339 127.364C280.125 126.98 279.832 126.681 279.459 126.468C279.096 126.244 278.675 126.132 278.195 126.132C277.715 126.132 277.288 126.244 276.915 126.468C276.541 126.681 276.248 126.98 276.035 127.364C275.821 127.748 275.715 128.185 275.715 128.676C275.715 129.177 275.821 129.625 276.035 130.02C276.248 130.404 276.541 130.708 276.915 130.932C277.288 131.156 277.715 131.268 278.195 131.268ZM286.841 132.66C286.222 132.66 285.662 132.521 285.161 132.244C284.67 131.956 284.286 131.561 284.009 131.06C283.732 130.559 283.593 129.977 283.593 129.316V124.9H285.033V129.252C285.033 129.668 285.102 130.031 285.241 130.34C285.39 130.639 285.604 130.868 285.881 131.028C286.158 131.188 286.484 131.268 286.857 131.268C287.422 131.268 287.865 131.092 288.185 130.74C288.505 130.377 288.665 129.881 288.665 129.252V124.9H290.105V129.316C290.105 129.977 289.966 130.559 289.689 131.06C289.412 131.561 289.028 131.956 288.537 132.244C288.057 132.521 287.492 132.66 286.841 132.66ZM297.411 132.5V128.068C297.411 127.492 297.23 127.017 296.867 126.644C296.504 126.271 296.035 126.084 295.459 126.084C295.075 126.084 294.734 126.169 294.435 126.34C294.136 126.511 293.902 126.745 293.731 127.044C293.56 127.343 293.475 127.684 293.475 128.068L292.883 127.732C292.883 127.156 293.011 126.644 293.267 126.196C293.523 125.748 293.88 125.396 294.339 125.14C294.798 124.873 295.315 124.74 295.891 124.74C296.467 124.74 296.974 124.884 297.411 125.172C297.859 125.46 298.211 125.839 298.467 126.308C298.723 126.767 298.851 127.257 298.851 127.78V132.5H297.411ZM292.035 132.5V124.9H293.475V132.5H292.035ZM301.875 132.5V121.716H303.315V132.5H301.875ZM300.003 126.212V124.9H305.187V126.212H300.003ZM308.857 132.66C308.431 132.66 308.025 132.607 307.641 132.5C307.268 132.383 306.921 132.223 306.601 132.02C306.281 131.807 306.004 131.556 305.769 131.268L306.697 130.34C306.975 130.681 307.295 130.937 307.657 131.108C308.02 131.268 308.425 131.348 308.873 131.348C309.321 131.348 309.668 131.273 309.913 131.124C310.159 130.964 310.281 130.745 310.281 130.468C310.281 130.191 310.18 129.977 309.977 129.828C309.785 129.668 309.535 129.54 309.225 129.444C308.916 129.337 308.585 129.236 308.233 129.14C307.892 129.033 307.567 128.9 307.257 128.74C306.948 128.58 306.692 128.361 306.489 128.084C306.297 127.807 306.201 127.439 306.201 126.98C306.201 126.521 306.313 126.127 306.537 125.796C306.761 125.455 307.071 125.193 307.465 125.012C307.871 124.831 308.356 124.74 308.921 124.74C309.519 124.74 310.047 124.847 310.505 125.06C310.975 125.263 311.359 125.572 311.657 125.988L310.729 126.916C310.516 126.639 310.249 126.425 309.929 126.276C309.62 126.127 309.268 126.052 308.873 126.052C308.457 126.052 308.137 126.127 307.913 126.276C307.7 126.415 307.593 126.612 307.593 126.868C307.593 127.124 307.689 127.321 307.881 127.46C308.073 127.599 308.324 127.716 308.633 127.812C308.953 127.908 309.284 128.009 309.625 128.116C309.967 128.212 310.292 128.345 310.601 128.516C310.911 128.687 311.161 128.916 311.353 129.204C311.556 129.492 311.657 129.871 311.657 130.34C311.657 131.055 311.401 131.62 310.889 132.036C310.388 132.452 309.711 132.66 308.857 132.66Z" fill="white"/>
<path d="M323.437 124L326.671 127.233L329.904 124C330.229 123.675 330.754 123.675 331.079 124C331.404 124.325 331.404 124.85 331.079 125.175L327.254 129C326.929 129.325 326.404 129.325 326.079 129L322.254 125.175C321.929 124.85 321.929 124.325 322.254 124C322.579 123.683 323.112 123.675 323.437 124Z" fill="white"/>
<defs>
<clipPath id="clip0_1797_2711">
<rect width="14" height="14" fill="white" transform="translate(110.439 169.939)"/>
</clipPath>
</defs>
</svg>
