<svg width="500" height="500" viewBox="0 0 500 500" fill="none" xmlns="http://www.w3.org/2000/svg">
<g clip-path="url(#clip0_1256_5638)">
<rect width="500" height="500" fill="#1A237E"/>
<path d="M93.3942 32.5853L96.2586 54.17L80.9267 42.9734L34 19L70.2977 22.3233C70.2977 22.3233 88.7886 26.8152 89.7894 27.7211C90.7903 28.627 93.3942 32.5853 93.3942 32.5853Z" fill="#D4D8FF"/>
<path d="M109.467 19.5512L34 19L93.3938 32.5853L109.467 19.5512Z" fill="#E9ECFF"/>
<path d="M69.134 54.3002L88.908 38.4167L34 19L69.134 54.3002Z" fill="#E9ECFF"/>
<path d="M166.191 140.066L164.495 139.533C165.525 136.255 166.205 132.533 166.517 128.47L168.289 128.606C167.966 132.804 167.26 136.659 166.191 140.066ZM168.229 116.991L166.461 117.17C166.412 116.682 166.355 116.195 166.29 115.709C166.07 114.055 165.754 112.384 165.349 110.743C164.976 109.23 164.519 107.706 163.99 106.213L165.666 105.62C166.213 107.167 166.687 108.748 167.075 110.317C167.495 112.022 167.824 113.757 168.052 115.475C168.117 115.966 168.177 116.476 168.229 116.991ZM159.113 96.0615C157.214 92.9581 154.947 89.9045 152.377 86.9854L153.71 85.811C156.348 88.8067 158.676 91.9434 160.629 95.1338L159.113 96.0615ZM103.587 91.8569C102.377 92.1553 99.2942 92.2234 97.3154 91.0437C95.8361 90.1619 94.6039 88.7769 93.7539 87.0382L95.3504 86.2572C96.059 87.7055 97.0262 88.8021 98.2255 89.5169C99.6523 90.3676 102.198 90.3691 103.162 90.1313C103.291 90.0995 103.341 90.0753 103.341 90.0753C103.416 90.0271 103.505 89.9692 103.594 89.9099L104.581 91.388C104.479 91.4558 104.377 91.5225 104.273 91.5876C104.098 91.6983 103.873 91.7864 103.587 91.8569ZM144.278 79.0534C141.45 76.6464 138.388 74.3607 135.177 72.2601L136.15 70.7728C139.423 72.9144 142.545 75.2448 145.43 77.7001L144.278 79.0534ZM110.982 81.4018L109.243 81.0371C109.472 79.9424 109.59 78.8255 109.593 77.7177C109.597 76.1576 109.397 74.5465 108.998 72.9293C108.781 72.0514 108.502 71.1566 108.169 70.2684L109.832 69.6432C110.191 70.5962 110.49 71.5584 110.723 72.5038C111.157 74.2615 111.374 76.0174 111.37 77.7223C111.367 78.9507 111.237 80.1887 110.982 81.4018ZM95.3592 75.9327L93.7558 75.1663C95.3661 71.7986 98.3921 68.8484 102.059 67.0723L102.303 66.9554L103.059 68.5642L102.833 68.6718C99.5229 70.2752 96.7987 72.922 95.3592 75.9327ZM124.843 67.964C121.621 66.98 119.063 66.3816 117.823 66.3226C116.402 66.2548 115.103 66.2403 113.851 66.2782L113.797 64.5017C115.096 64.4622 116.44 64.4772 117.908 64.5472C119.797 64.6373 123.389 65.6615 125.362 66.264L124.843 67.964ZM102.408 60.7701C99.984 57.9318 97.1492 55.465 93.981 53.4387L94.9386 51.9414C98.2542 54.0623 101.222 56.6444 103.759 59.6164L102.408 60.7701Z" fill="#D4D8FF"/>
<g filter="url(#filter0_d_1256_5638)">
<rect x="61.8694" y="257.395" width="181.677" height="161.671" rx="20.8228" fill="white" stroke="#1A237E" stroke-width="1.06784"/>
<rect x="256.421" y="257.395" width="181.677" height="161.671" rx="20.8228" fill="white" stroke="#1A237E" stroke-width="1.06784"/>
<path d="M88.2426 343.933C86.8411 343.933 85.5943 343.705 84.5022 343.25C83.4161 342.789 82.5637 342.161 81.9448 341.366C81.326 340.571 81.0165 339.67 81.0165 338.663C81.0165 337.887 81.1925 337.174 81.5444 336.525C81.9024 335.869 82.3877 335.326 83.0005 334.895C83.6133 334.459 84.2989 334.18 85.0573 334.058V333.931C84.0623 333.731 83.2554 333.248 82.6365 332.484C82.0176 331.713 81.7082 330.818 81.7082 329.799C81.7082 328.834 81.9903 327.976 82.5546 327.223C83.1188 326.465 83.8924 325.87 84.8753 325.44C85.8643 325.003 86.9867 324.784 88.2426 324.784C89.4986 324.784 90.618 325.003 91.6009 325.44C92.5898 325.877 93.3664 326.474 93.9307 327.233C94.495 327.985 94.7801 328.84 94.7862 329.799C94.7801 330.824 94.4646 331.719 93.8397 332.484C93.2148 333.248 92.4139 333.731 91.4371 333.931V334.058C92.1833 334.18 92.8598 334.459 93.4666 334.895C94.0793 335.326 94.5647 335.869 94.9227 336.525C95.2867 337.174 95.4718 337.887 95.4779 338.663C95.4718 339.67 95.1593 340.571 94.5405 341.366C93.9216 342.161 93.0661 342.789 91.974 343.25C90.888 343.705 89.6442 343.933 88.2426 343.933ZM88.2426 341.039C88.8676 341.039 89.4136 340.926 89.8808 340.702C90.348 340.471 90.712 340.156 90.9729 339.755C91.2399 339.349 91.3733 338.882 91.3733 338.354C91.3733 337.814 91.2368 337.338 90.9638 336.925C90.6908 336.506 90.3207 336.179 89.8535 335.942C89.3863 335.699 88.8494 335.578 88.2426 335.578C87.642 335.578 87.105 335.699 86.6318 335.942C86.1585 336.179 85.7854 336.506 85.5124 336.925C85.2454 337.338 85.1119 337.814 85.1119 338.354C85.1119 338.882 85.2424 339.349 85.5033 339.755C85.7642 340.156 86.1312 340.471 86.6045 340.702C87.0777 340.926 87.6238 341.039 88.2426 341.039ZM88.2426 332.711C88.7644 332.711 89.2286 332.605 89.6351 332.393C90.0416 332.18 90.3601 331.886 90.5907 331.51C90.8212 331.134 90.9365 330.7 90.9365 330.209C90.9365 329.723 90.8212 329.298 90.5907 328.934C90.3601 328.564 90.0446 328.276 89.6442 328.07C89.2437 327.857 88.7766 327.751 88.2426 327.751C87.7148 327.751 87.2476 327.857 86.8411 328.07C86.4346 328.276 86.1161 328.564 85.8855 328.934C85.661 329.298 85.5488 329.723 85.5488 330.209C85.5488 330.7 85.6641 331.134 85.8946 331.51C86.1252 331.886 86.4437 332.18 86.8502 332.393C87.2567 332.605 87.7209 332.711 88.2426 332.711ZM105.386 343.933C104.428 343.927 103.503 343.766 102.611 343.45C101.725 343.135 100.93 342.622 100.226 341.912C99.5224 341.202 98.9643 340.262 98.5517 339.091C98.1452 337.92 97.9419 336.482 97.9419 334.777C97.948 333.212 98.127 331.813 98.4789 330.582C98.8368 329.344 99.3465 328.294 100.008 327.433C100.675 326.571 101.473 325.916 102.401 325.467C103.33 325.012 104.37 324.784 105.523 324.784C106.767 324.784 107.865 325.027 108.817 325.512C109.77 325.992 110.535 326.644 111.111 327.469C111.693 328.294 112.045 329.22 112.167 330.245H108.281C108.129 329.596 107.81 329.086 107.325 328.716C106.84 328.346 106.239 328.161 105.523 328.161C104.31 328.161 103.387 328.689 102.756 329.744C102.131 330.8 101.813 332.235 101.801 334.049H101.928C102.207 333.497 102.583 333.027 103.057 332.638C103.536 332.244 104.079 331.944 104.686 331.737C105.298 331.525 105.945 331.419 106.624 331.419C107.728 331.419 108.711 331.68 109.573 332.202C110.434 332.717 111.114 333.427 111.611 334.331C112.109 335.235 112.358 336.27 112.358 337.435C112.358 338.697 112.063 339.819 111.475 340.802C110.892 341.785 110.076 342.555 109.027 343.114C107.983 343.666 106.77 343.939 105.386 343.933ZM105.368 340.838C105.975 340.838 106.518 340.693 106.997 340.402C107.477 340.11 107.853 339.716 108.126 339.218C108.399 338.721 108.535 338.163 108.535 337.544C108.535 336.925 108.399 336.37 108.126 335.878C107.859 335.387 107.489 334.996 107.016 334.704C106.542 334.413 106.002 334.268 105.396 334.268C104.941 334.268 104.519 334.352 104.131 334.522C103.748 334.692 103.412 334.929 103.12 335.232C102.835 335.536 102.611 335.887 102.447 336.288C102.283 336.682 102.201 337.104 102.201 337.553C102.201 338.154 102.338 338.703 102.611 339.2C102.89 339.698 103.266 340.095 103.739 340.392C104.219 340.69 104.762 340.838 105.368 340.838ZM125.354 340.183V339.2C125.354 338.454 125.512 337.768 125.827 337.143C126.149 336.512 126.613 336.009 127.219 335.633C127.832 335.25 128.579 335.059 129.458 335.059C130.35 335.059 131.1 335.247 131.706 335.624C132.319 336 132.78 336.503 133.09 337.134C133.405 337.759 133.563 338.448 133.563 339.2V340.183C133.563 340.929 133.405 341.618 133.09 342.249C132.774 342.874 132.31 343.374 131.697 343.751C131.084 344.133 130.338 344.324 129.458 344.324C128.566 344.324 127.817 344.133 127.21 343.751C126.604 343.374 126.143 342.874 125.827 342.249C125.512 341.618 125.354 340.929 125.354 340.183ZM128.002 339.2V340.183C128.002 340.614 128.105 341.02 128.312 341.403C128.524 341.785 128.906 341.976 129.458 341.976C130.01 341.976 130.387 341.788 130.587 341.412C130.793 341.036 130.896 340.626 130.896 340.183V339.2C130.896 338.757 130.799 338.345 130.605 337.962C130.411 337.58 130.029 337.389 129.458 337.389C128.912 337.389 128.533 337.58 128.321 337.962C128.108 338.345 128.002 338.757 128.002 339.2ZM115.789 329.517V328.534C115.789 327.782 115.95 327.093 116.271 326.468C116.593 325.837 117.057 325.333 117.664 324.957C118.276 324.581 119.017 324.393 119.884 324.393C120.782 324.393 121.534 324.581 122.141 324.957C122.748 325.333 123.209 325.837 123.525 326.468C123.84 327.093 123.998 327.782 123.998 328.534V329.517C123.998 330.269 123.837 330.958 123.515 331.583C123.2 332.208 122.736 332.708 122.123 333.084C121.516 333.455 120.77 333.64 119.884 333.64C118.998 333.64 118.249 333.451 117.636 333.075C117.03 332.693 116.568 332.193 116.253 331.574C115.943 330.949 115.789 330.263 115.789 329.517ZM118.455 328.534V329.517C118.455 329.96 118.558 330.369 118.765 330.745C118.977 331.122 119.35 331.31 119.884 331.31C120.442 331.31 120.822 331.122 121.022 330.745C121.228 330.369 121.331 329.96 121.331 329.517V328.534C121.331 328.091 121.234 327.678 121.04 327.296C120.846 326.914 120.461 326.723 119.884 326.723C119.344 326.723 118.971 326.917 118.765 327.305C118.558 327.694 118.455 328.103 118.455 328.534ZM116.99 343.678L129.804 325.039H132.189L119.375 343.678H116.99Z" fill="black"/>
<path d="M86.4438 298.102C85.6564 298.102 84.9289 297.963 84.2611 297.684C83.6033 297.395 83.0253 296.991 82.527 296.473C82.0386 295.954 81.6599 295.346 81.3908 294.649C81.1217 293.951 80.9871 293.189 80.9871 292.361C80.9871 291.524 81.1217 290.757 81.3908 290.059C81.6599 289.362 82.0386 288.754 82.527 288.235C83.0153 287.717 83.5934 287.318 84.2611 287.039C84.9289 286.75 85.6564 286.606 86.4438 286.606C87.2112 286.606 87.8989 286.74 88.5068 287.009C89.1248 287.279 89.643 287.627 90.0616 288.056C90.4902 288.484 90.7942 288.943 90.9736 289.431L89.6281 290.044C89.3689 289.426 88.9653 288.928 88.4171 288.549C87.869 288.161 87.2112 287.966 86.4438 287.966C85.6664 287.966 84.9737 288.151 84.3658 288.519C83.7678 288.888 83.2994 289.401 82.9605 290.059C82.6216 290.717 82.4522 291.484 82.4522 292.361C82.4522 293.229 82.6216 293.991 82.9605 294.649C83.2994 295.307 83.7678 295.82 84.3658 296.189C84.9737 296.557 85.6664 296.742 86.4438 296.742C87.2112 296.742 87.869 296.552 88.4171 296.174C88.9653 295.785 89.3689 295.282 89.6281 294.664L90.9736 295.277C90.7942 295.765 90.4902 296.223 90.0616 296.652C89.643 297.081 89.1248 297.429 88.5068 297.698C87.8989 297.968 87.2112 298.102 86.4438 298.102ZM92.6374 297.923V289.865H93.9978V291.345L93.8483 291.136C94.0377 290.677 94.3267 290.338 94.7154 290.119C95.1041 289.89 95.5775 289.775 96.1356 289.775H96.629V291.091H95.9264C95.3583 291.091 94.8998 291.27 94.551 291.629C94.2022 291.978 94.0277 292.476 94.0277 293.124V297.923H92.6374ZM101.407 298.102C100.63 298.102 99.937 297.918 99.3291 297.549C98.7211 297.18 98.2427 296.677 97.8939 296.039C97.5451 295.391 97.3706 294.669 97.3706 293.871C97.3706 293.064 97.5401 292.346 97.8789 291.719C98.2278 291.091 98.6962 290.597 99.2842 290.239C99.8822 289.87 100.55 289.685 101.287 289.685C101.885 289.685 102.414 289.795 102.872 290.014C103.341 290.224 103.734 290.513 104.053 290.881C104.382 291.24 104.631 291.654 104.801 292.122C104.98 292.581 105.07 293.059 105.07 293.557C105.07 293.667 105.06 293.792 105.04 293.931C105.03 294.061 105.015 294.185 104.995 294.305H98.3872V293.109H104.188L103.53 293.647C103.62 293.129 103.57 292.665 103.38 292.257C103.191 291.848 102.912 291.524 102.543 291.285C102.174 291.046 101.756 290.926 101.287 290.926C100.819 290.926 100.39 291.046 100.002 291.285C99.6131 291.524 99.3091 291.868 99.0899 292.317C98.8806 292.755 98.7958 293.278 98.8357 293.886C98.7958 294.474 98.8855 294.993 99.1048 295.441C99.334 295.88 99.653 296.223 100.062 296.473C100.48 296.712 100.934 296.831 101.422 296.831C101.96 296.831 102.414 296.707 102.782 296.458C103.151 296.208 103.45 295.89 103.679 295.501L104.846 296.099C104.686 296.468 104.437 296.806 104.098 297.115C103.769 297.414 103.375 297.654 102.917 297.833C102.468 298.012 101.965 298.102 101.407 298.102ZM110.381 298.102C109.623 298.102 108.941 297.918 108.333 297.549C107.735 297.18 107.261 296.677 106.912 296.039C106.564 295.401 106.389 294.689 106.389 293.901C106.389 293.094 106.564 292.376 106.912 291.748C107.261 291.111 107.735 290.607 108.333 290.239C108.941 289.87 109.623 289.685 110.381 289.685C111.049 289.685 111.642 289.83 112.16 290.119C112.678 290.398 113.087 290.777 113.386 291.255L113.161 291.599V286.606H114.567V297.923H113.206V296.204L113.386 296.443C113.107 296.971 112.698 297.38 112.16 297.669C111.632 297.958 111.039 298.102 110.381 298.102ZM110.5 296.757C111.009 296.757 111.462 296.632 111.861 296.383C112.259 296.134 112.573 295.795 112.803 295.366C113.042 294.928 113.161 294.439 113.161 293.901C113.161 293.353 113.042 292.865 112.803 292.436C112.573 291.998 112.259 291.654 111.861 291.405C111.462 291.155 111.009 291.031 110.5 291.031C110.002 291.031 109.549 291.16 109.14 291.42C108.741 291.669 108.427 292.008 108.198 292.436C107.969 292.855 107.854 293.343 107.854 293.901C107.854 294.439 107.969 294.928 108.198 295.366C108.427 295.795 108.741 296.134 109.14 296.383C109.539 296.632 109.992 296.757 110.5 296.757ZM116.554 297.923V289.865H117.945V297.923H116.554ZM116.554 288.579V286.785H117.945V288.579H116.554ZM123.211 298.012C122.424 298.012 121.816 297.788 121.388 297.34C120.969 296.891 120.76 296.258 120.76 295.441V291.195H119.295V289.865H119.594C119.952 289.865 120.236 289.755 120.446 289.536C120.655 289.317 120.76 289.028 120.76 288.669V288.011H122.15V289.865H123.959V291.195H122.15V295.396C122.15 295.665 122.19 295.9 122.27 296.099C122.359 296.298 122.504 296.458 122.703 296.577C122.902 296.687 123.167 296.742 123.495 296.742C123.565 296.742 123.65 296.737 123.75 296.727C123.859 296.717 123.959 296.707 124.049 296.697V297.923C123.919 297.953 123.774 297.973 123.615 297.983C123.456 298.002 123.321 298.012 123.211 298.012ZM128.586 298.102C127.778 298.102 127.076 297.903 126.478 297.504C125.88 297.105 125.456 296.567 125.207 295.89L126.313 295.351C126.542 295.83 126.856 296.208 127.255 296.488C127.654 296.767 128.097 296.906 128.586 296.906C129.024 296.906 129.388 296.801 129.677 296.592C129.966 296.383 130.11 296.109 130.11 295.77C130.11 295.531 130.041 295.341 129.901 295.202C129.772 295.052 129.612 294.938 129.423 294.858C129.233 294.768 129.059 294.704 128.9 294.664L127.689 294.32C126.961 294.111 126.428 293.812 126.089 293.423C125.76 293.034 125.596 292.581 125.596 292.062C125.596 291.584 125.715 291.17 125.954 290.822C126.204 290.463 126.537 290.184 126.956 289.984C127.385 289.785 127.863 289.685 128.391 289.685C129.099 289.685 129.732 289.865 130.29 290.224C130.858 290.582 131.262 291.086 131.501 291.734L130.365 292.257C130.185 291.838 129.916 291.509 129.557 291.27C129.199 291.021 128.795 290.896 128.346 290.896C127.938 290.896 127.614 291.001 127.375 291.21C127.135 291.41 127.016 291.664 127.016 291.973C127.016 292.202 127.076 292.391 127.195 292.541C127.315 292.68 127.459 292.79 127.629 292.87C127.798 292.939 127.963 292.999 128.122 293.049L129.438 293.438C130.095 293.627 130.604 293.921 130.963 294.32C131.331 294.719 131.516 295.197 131.516 295.755C131.516 296.204 131.391 296.607 131.142 296.966C130.893 297.325 130.549 297.604 130.11 297.803C129.672 298.002 129.164 298.102 128.586 298.102Z" fill="black" fill-opacity="0.7"/>
<path opacity="0.1" fill-rule="evenodd" clip-rule="evenodd" d="M74.6499 384.763C74.6499 384.763 80.4293 383.916 87.0002 385.95C99.4976 389.82 100.211 382.734 104.845 379.318C109.085 376.192 112.596 378.099 117.316 381.922C120.798 384.741 125.872 389.473 131.127 388.711C135.931 388.015 139.336 382.464 145.994 381.053C151.271 379.934 155.559 383.008 161.636 381.922C169.879 380.448 173.561 371.774 179.452 371.774C186.724 371.774 191.843 364.438 198.458 364.438C205.034 364.438 205.926 368.752 213.119 371.774C218.619 374.085 221.265 371.774 221.265 371.774V396.534H74.6499V384.763Z" fill="url(#paint0_linear_1256_5638)"/>
<path d="M74.6499 380.917C74.6499 380.917 80.4293 380.082 87.0002 382.087C99.4976 385.901 100.211 378.918 104.845 375.551C109.085 372.47 112.596 374.35 117.316 378.117C120.798 380.895 125.872 385.559 131.127 384.808C135.931 384.122 139.336 378.652 145.994 377.261C151.271 376.158 155.559 379.187 161.636 378.117C169.879 376.665 173.561 368.116 179.452 368.116C186.724 368.116 191.843 360.869 198.458 360.869C205.034 360.869 205.383 365.138 212.576 368.116C218.076 370.393 221.265 368.116 221.265 368.116" stroke="#1A237E" stroke-width="2.13568" stroke-linecap="round" stroke-linejoin="round"/>
<path d="M288.865 325.147V343.786H284.925V328.888H284.815L280.547 331.564V328.069L285.161 325.147H288.865ZM293.013 340.51V337.406L300.794 325.147H303.47V329.443H301.886L296.981 337.206V337.352H308.039V340.51H293.013ZM301.959 343.786V339.563L302.032 338.189V325.147H305.727V343.786H301.959ZM320.866 340.291V339.308C320.866 338.562 321.024 337.876 321.34 337.252C321.661 336.621 322.125 336.117 322.732 335.741C323.345 335.359 324.091 335.167 324.971 335.167C325.863 335.167 326.612 335.356 327.219 335.732C327.831 336.108 328.293 336.611 328.602 337.242C328.918 337.867 329.075 338.556 329.075 339.308V340.291C329.075 341.038 328.918 341.726 328.602 342.357C328.287 342.982 327.822 343.483 327.21 343.859C326.597 344.241 325.851 344.432 324.971 344.432C324.079 344.432 323.33 344.241 322.723 343.859C322.116 343.483 321.655 342.982 321.34 342.357C321.024 341.726 320.866 341.038 320.866 340.291ZM323.515 339.308V340.291C323.515 340.722 323.618 341.129 323.824 341.511C324.036 341.893 324.419 342.084 324.971 342.084C325.523 342.084 325.899 341.896 326.099 341.52C326.306 341.144 326.409 340.734 326.409 340.291V339.308C326.409 338.865 326.312 338.453 326.117 338.071C325.923 337.688 325.541 337.497 324.971 337.497C324.425 337.497 324.046 337.688 323.833 338.071C323.621 338.453 323.515 338.865 323.515 339.308ZM311.301 329.625V328.642C311.301 327.89 311.462 327.201 311.784 326.576C312.105 325.945 312.569 325.442 313.176 325.065C313.789 324.689 314.529 324.501 315.397 324.501C316.295 324.501 317.047 324.689 317.654 325.065C318.26 325.442 318.721 325.945 319.037 326.576C319.352 327.201 319.51 327.89 319.51 328.642V329.625C319.51 330.377 319.349 331.066 319.028 331.691C318.712 332.316 318.248 332.816 317.635 333.193C317.029 333.563 316.282 333.748 315.397 333.748C314.511 333.748 313.762 333.56 313.149 333.183C312.542 332.801 312.081 332.301 311.765 331.682C311.456 331.057 311.301 330.371 311.301 329.625ZM313.968 328.642V329.625C313.968 330.068 314.071 330.477 314.277 330.854C314.49 331.23 314.863 331.418 315.397 331.418C315.955 331.418 316.334 331.23 316.534 330.854C316.741 330.477 316.844 330.068 316.844 329.625V328.642C316.844 328.199 316.747 327.787 316.552 327.404C316.358 327.022 315.973 326.831 315.397 326.831C314.857 326.831 314.484 327.025 314.277 327.414C314.071 327.802 313.968 328.211 313.968 328.642ZM312.503 343.786L325.317 325.147H327.701L314.887 343.786H312.503Z" fill="black"/>
<path d="M280.797 297.923V286.785H284.445C285.571 286.785 286.553 287.014 287.39 287.473C288.227 287.931 288.875 288.579 289.333 289.416C289.792 290.244 290.021 291.22 290.021 292.346C290.021 293.463 289.792 294.439 289.333 295.277C288.875 296.114 288.227 296.767 287.39 297.235C286.553 297.694 285.571 297.923 284.445 297.923H280.797ZM282.262 296.577H284.46C285.287 296.577 285.999 296.403 286.597 296.054C287.205 295.705 287.674 295.217 288.003 294.589C288.332 293.951 288.496 293.204 288.496 292.346C288.496 291.479 288.327 290.732 287.988 290.104C287.659 289.476 287.19 288.993 286.583 288.654C285.985 288.305 285.277 288.131 284.46 288.131H282.262V296.577ZM295.257 298.102C294.479 298.102 293.786 297.918 293.179 297.549C292.571 297.18 292.092 296.677 291.743 296.039C291.395 295.391 291.22 294.669 291.22 293.871C291.22 293.064 291.39 292.346 291.728 291.719C292.077 291.091 292.546 290.597 293.134 290.239C293.732 289.87 294.399 289.685 295.137 289.685C295.735 289.685 296.263 289.795 296.722 290.014C297.19 290.224 297.584 290.513 297.903 290.881C298.232 291.24 298.481 291.654 298.65 292.122C298.83 292.581 298.919 293.059 298.919 293.557C298.919 293.667 298.909 293.792 298.889 293.931C298.879 294.061 298.864 294.185 298.844 294.305H292.237V293.109H298.037L297.379 293.647C297.469 293.129 297.419 292.665 297.23 292.257C297.041 291.848 296.761 291.524 296.393 291.285C296.024 291.046 295.605 290.926 295.137 290.926C294.669 290.926 294.24 291.046 293.851 291.285C293.463 291.524 293.159 291.868 292.939 292.317C292.73 292.755 292.645 293.278 292.685 293.886C292.645 294.474 292.735 294.993 292.954 295.441C293.183 295.88 293.502 296.223 293.911 296.473C294.33 296.712 294.783 296.831 295.271 296.831C295.81 296.831 296.263 296.707 296.632 296.458C297.001 296.208 297.3 295.89 297.529 295.501L298.695 296.099C298.536 296.468 298.286 296.806 297.947 297.115C297.619 297.414 297.225 297.654 296.766 297.833C296.318 298.012 295.815 298.102 295.257 298.102ZM304.739 298.102C304.091 298.102 303.498 297.958 302.959 297.669C302.431 297.38 302.023 296.971 301.734 296.443L301.928 296.204V297.923H300.568V286.606H301.958V291.599L301.749 291.255C302.048 290.777 302.456 290.398 302.974 290.119C303.493 289.83 304.086 289.685 304.753 289.685C305.511 289.685 306.189 289.87 306.787 290.239C307.395 290.607 307.873 291.111 308.222 291.748C308.571 292.376 308.745 293.094 308.745 293.901C308.745 294.689 308.571 295.401 308.222 296.039C307.873 296.677 307.395 297.18 306.787 297.549C306.189 297.918 305.506 298.102 304.739 298.102ZM304.634 296.757C305.142 296.757 305.596 296.632 305.994 296.383C306.393 296.134 306.702 295.795 306.921 295.366C307.15 294.928 307.265 294.439 307.265 293.901C307.265 293.343 307.15 292.855 306.921 292.436C306.702 292.008 306.393 291.669 305.994 291.42C305.596 291.16 305.142 291.031 304.634 291.031C304.126 291.031 303.667 291.155 303.258 291.405C302.86 291.654 302.541 291.998 302.302 292.436C302.072 292.865 301.958 293.353 301.958 293.901C301.958 294.439 302.072 294.928 302.302 295.366C302.541 295.795 302.86 296.134 303.258 296.383C303.667 296.632 304.126 296.757 304.634 296.757ZM310.404 297.923V289.865H311.794V297.923H310.404ZM310.404 288.579V286.785H311.794V288.579H310.404ZM317.061 298.012C316.273 298.012 315.666 297.788 315.237 297.34C314.818 296.891 314.609 296.258 314.609 295.441V291.195H313.144V289.865H313.443C313.802 289.865 314.086 289.755 314.295 289.536C314.504 289.317 314.609 289.028 314.609 288.669V288.011H315.999V289.865H317.808V291.195H315.999V295.396C315.999 295.665 316.039 295.9 316.119 296.099C316.209 296.298 316.353 296.458 316.553 296.577C316.752 296.687 317.016 296.742 317.345 296.742C317.415 296.742 317.499 296.737 317.599 296.727C317.709 296.717 317.808 296.707 317.898 296.697V297.923C317.768 297.953 317.624 297.973 317.464 297.983C317.305 298.002 317.17 298.012 317.061 298.012ZM322.435 298.102C321.628 298.102 320.925 297.903 320.327 297.504C319.729 297.105 319.306 296.567 319.056 295.89L320.163 295.351C320.392 295.83 320.706 296.208 321.105 296.488C321.503 296.767 321.947 296.906 322.435 296.906C322.874 296.906 323.237 296.801 323.526 296.592C323.815 296.383 323.96 296.109 323.96 295.77C323.96 295.531 323.89 295.341 323.751 295.202C323.621 295.052 323.462 294.938 323.272 294.858C323.083 294.768 322.908 294.704 322.749 294.664L321.538 294.32C320.81 294.111 320.277 293.812 319.938 293.423C319.61 293.034 319.445 292.581 319.445 292.062C319.445 291.584 319.565 291.17 319.804 290.822C320.053 290.463 320.387 290.184 320.806 289.984C321.234 289.785 321.712 289.685 322.241 289.685C322.948 289.685 323.581 289.865 324.139 290.224C324.707 290.582 325.111 291.086 325.35 291.734L324.214 292.257C324.035 291.838 323.766 291.509 323.407 291.27C323.048 291.021 322.644 290.896 322.196 290.896C321.787 290.896 321.463 291.001 321.224 291.21C320.985 291.41 320.865 291.664 320.865 291.973C320.865 292.202 320.925 292.391 321.045 292.541C321.164 292.68 321.309 292.79 321.478 292.87C321.648 292.939 321.812 292.999 321.972 293.049L323.287 293.438C323.945 293.627 324.453 293.921 324.812 294.32C325.181 294.719 325.365 295.197 325.365 295.755C325.365 296.204 325.241 296.607 324.991 296.966C324.742 297.325 324.398 297.604 323.96 297.803C323.521 298.002 323.013 298.102 322.435 298.102Z" fill="black" fill-opacity="0.7"/>
<path opacity="0.1" fill-rule="evenodd" clip-rule="evenodd" d="M273.828 383.566C273.828 383.566 279.607 382.719 286.178 384.753C298.675 388.622 299.388 381.537 304.022 378.121C308.262 374.995 311.774 376.902 316.494 380.725C319.976 383.544 325.05 388.276 330.305 387.514C335.108 386.818 338.514 381.267 345.172 379.856C350.449 378.737 354.737 381.811 360.813 380.725C369.057 379.251 372.739 370.577 378.63 370.577C385.901 370.577 391.021 363.241 397.636 363.241C404.211 363.241 405.104 367.555 412.297 370.577C417.796 372.888 420.442 370.577 420.442 370.577V395.337H273.828V383.566Z" fill="url(#paint1_linear_1256_5638)"/>
<path d="M273.828 379.72C273.828 379.72 279.607 378.885 286.178 380.89C298.675 384.703 299.388 377.721 304.022 374.354C308.262 371.273 311.774 373.153 316.494 376.92C319.976 379.698 325.05 384.362 330.305 383.611C335.108 382.925 338.514 377.455 345.172 376.064C350.449 374.961 354.737 377.99 360.813 376.92C369.057 375.468 372.739 366.919 378.63 366.919C385.901 366.919 391.021 359.672 397.636 359.672C404.211 359.672 404.561 363.941 411.754 366.919C417.253 369.196 420.442 366.919 420.442 366.919" stroke="#1A237E" stroke-width="2.13568" stroke-linecap="round" stroke-linejoin="round"/>
<rect x="61.8694" y="80.1339" width="181.677" height="161.671" rx="20.8228" fill="white" stroke="#1A237E" stroke-width="1.06784"/>
<rect x="256.934" y="80.1339" width="181.677" height="161.671" rx="20.8228" fill="white" stroke="#1A237E" stroke-width="1.06784"/>
<path d="M91.0675 153.781L90.4031 156.311H78.1988L78.8541 153.781H91.0675ZM84.7241 167.797L78.4991 160.389L78.5082 158.113H81.5843C82.2699 158.113 82.8433 157.986 83.3044 157.731C83.7655 157.476 84.1113 157.131 84.3419 156.694C84.5725 156.257 84.6908 155.759 84.6968 155.201C84.6908 154.364 84.445 153.681 83.9597 153.153C83.4804 152.619 82.6886 152.353 81.5843 152.353H78.1988L78.9451 149.158H81.5843C83.1315 149.158 84.4208 149.392 85.4522 149.859C86.4897 150.32 87.2663 150.978 87.782 151.834C88.3038 152.689 88.5678 153.709 88.5738 154.892C88.5678 155.941 88.3918 156.857 88.046 157.64C87.7062 158.423 87.1692 159.075 86.4351 159.597C85.707 160.119 84.7575 160.507 83.5865 160.762L83.4409 160.816L89.0107 167.633V167.797H84.7241ZM91.0857 149.158L90.4031 151.725H80.3557L81.0383 149.158H91.0857ZM93.4974 167.797V164.957L100.132 158.814C100.696 158.268 101.169 157.777 101.552 157.34C101.94 156.903 102.234 156.475 102.434 156.057C102.635 155.632 102.735 155.174 102.735 154.682C102.735 154.136 102.61 153.666 102.362 153.272C102.113 152.871 101.773 152.565 101.342 152.353C100.912 152.134 100.423 152.025 99.8771 152.025C99.3068 152.025 98.8093 152.14 98.3846 152.371C97.9599 152.601 97.6322 152.932 97.4017 153.363C97.1711 153.794 97.0559 154.306 97.0559 154.901H93.3154C93.3154 153.681 93.5914 152.623 94.1436 151.725C94.6957 150.827 95.4693 150.132 96.4643 149.64C97.4593 149.149 98.606 148.903 99.9044 148.903C101.239 148.903 102.401 149.14 103.39 149.613C104.385 150.08 105.159 150.73 105.711 151.561C106.263 152.392 106.539 153.345 106.539 154.418C106.539 155.122 106.399 155.817 106.12 156.503C105.847 157.188 105.359 157.95 104.655 158.787C103.951 159.618 102.959 160.616 101.679 161.781L98.9579 164.448V164.575H106.785V167.797H93.4974ZM110.377 167.797L118.104 152.507V152.38H109.103V149.158H122.181V152.425L114.445 167.797H110.377ZM124.882 167.797V164.957L131.516 158.814C132.081 158.268 132.554 157.777 132.936 157.34C133.324 156.903 133.619 156.475 133.819 156.057C134.019 155.632 134.119 155.174 134.119 154.682C134.119 154.136 133.995 153.666 133.746 153.272C133.497 152.871 133.158 152.565 132.727 152.353C132.296 152.134 131.808 152.025 131.262 152.025C130.691 152.025 130.194 152.14 129.769 152.371C129.344 152.601 129.017 152.932 128.786 153.363C128.556 153.794 128.44 154.306 128.44 154.901H124.7C124.7 153.681 124.976 152.623 125.528 151.725C126.08 150.827 126.854 150.132 127.849 149.64C128.844 149.149 129.99 148.903 131.289 148.903C132.624 148.903 133.786 149.14 134.775 149.613C135.77 150.08 136.543 150.73 137.095 151.561C137.647 152.392 137.923 153.345 137.923 154.418C137.923 155.122 137.784 155.817 137.505 156.503C137.232 157.188 136.743 157.95 136.04 158.787C135.336 159.618 134.344 160.616 133.064 161.781L130.342 164.448V164.575H138.169V167.797H124.882ZM147.832 168.052C146.546 168.052 145.399 167.815 144.392 167.342C143.391 166.868 142.596 166.216 142.007 165.385C141.419 164.554 141.113 163.601 141.088 162.527H144.911C144.953 163.249 145.256 163.835 145.821 164.284C146.385 164.733 147.055 164.957 147.832 164.957C148.451 164.957 148.997 164.821 149.47 164.548C149.949 164.269 150.323 163.883 150.59 163.392C150.863 162.894 150.999 162.324 150.999 161.681C150.999 161.026 150.86 160.449 150.58 159.952C150.307 159.454 149.928 159.066 149.443 158.787C148.957 158.508 148.402 158.365 147.777 158.359C147.231 158.359 146.7 158.471 146.185 158.696C145.675 158.92 145.278 159.227 144.993 159.615L141.489 158.987L142.371 149.158H153.766V152.38H145.621L145.138 157.049H145.247C145.575 156.587 146.069 156.205 146.731 155.902C147.392 155.599 148.132 155.447 148.951 155.447C150.074 155.447 151.075 155.711 151.955 156.239C152.834 156.766 153.529 157.492 154.039 158.414C154.548 159.33 154.8 160.386 154.794 161.581C154.8 162.837 154.509 163.953 153.921 164.93C153.338 165.901 152.522 166.665 151.472 167.223C150.429 167.776 149.215 168.052 147.832 168.052ZM164.851 168.206C163.285 168.2 161.938 167.815 160.81 167.05C159.687 166.286 158.823 165.179 158.216 163.729C157.615 162.279 157.318 160.534 157.324 158.496C157.324 156.463 157.625 154.731 158.225 153.299C158.832 151.867 159.697 150.778 160.819 150.032C161.948 149.279 163.291 148.903 164.851 148.903C166.41 148.903 167.751 149.279 168.873 150.032C170.002 150.784 170.869 151.876 171.476 153.308C172.083 154.734 172.383 156.463 172.377 158.496C172.377 160.54 172.074 162.288 171.467 163.738C170.866 165.188 170.005 166.295 168.882 167.06C167.76 167.824 166.416 168.206 164.851 168.206ZM164.851 164.939C165.919 164.939 166.771 164.402 167.408 163.328C168.045 162.254 168.361 160.643 168.355 158.496C168.355 157.082 168.209 155.905 167.918 154.964C167.633 154.024 167.226 153.317 166.698 152.844C166.176 152.371 165.561 152.134 164.851 152.134C163.789 152.134 162.94 152.665 162.302 153.727C161.665 154.789 161.344 156.378 161.338 158.496C161.338 159.928 161.48 161.123 161.765 162.081C162.057 163.034 162.466 163.75 162.994 164.229C163.522 164.702 164.141 164.939 164.851 164.939ZM182.495 168.206C180.93 168.2 179.583 167.815 178.454 167.05C177.332 166.286 176.467 165.179 175.86 163.729C175.26 162.279 174.963 160.534 174.969 158.496C174.969 156.463 175.269 154.731 175.87 153.299C176.476 151.867 177.341 150.778 178.463 150.032C179.592 149.279 180.936 148.903 182.495 148.903C184.054 148.903 185.395 149.279 186.518 150.032C187.646 150.784 188.514 151.876 189.121 153.308C189.727 154.734 190.028 156.463 190.021 158.496C190.021 160.54 189.718 162.288 189.111 163.738C188.511 165.188 187.649 166.295 186.527 167.06C185.404 167.824 184.06 168.206 182.495 168.206ZM182.495 164.939C183.563 164.939 184.415 164.402 185.052 163.328C185.689 162.254 186.005 160.643 185.999 158.496C185.999 157.082 185.853 155.905 185.562 154.964C185.277 154.024 184.87 153.317 184.343 152.844C183.821 152.371 183.205 152.134 182.495 152.134C181.433 152.134 180.584 152.665 179.947 153.727C179.31 154.789 178.988 156.378 178.982 158.496C178.982 159.928 179.125 161.123 179.41 162.081C179.701 163.034 180.111 163.75 180.638 164.229C181.166 164.702 181.785 164.939 182.495 164.939Z" fill="black"/>
<path d="M77.435 120.585L81.4265 109.447H83.1607L87.1523 120.585H85.5826L84.6706 117.968H79.9166L79.0047 120.585H77.435ZM80.3801 116.623H84.2072L82.0843 110.508H82.5029L80.3801 116.623ZM91.1121 120.764C90.3048 120.764 89.6022 120.565 89.0042 120.166C88.4062 119.767 87.9826 119.229 87.7335 118.551L88.8397 118.013C89.069 118.492 89.3829 118.87 89.7816 119.149C90.1802 119.428 90.6237 119.568 91.1121 119.568C91.5506 119.568 91.9144 119.463 92.2034 119.254C92.4925 119.045 92.637 118.771 92.637 118.432C92.637 118.193 92.5672 118.003 92.4277 117.864C92.2981 117.714 92.1386 117.6 91.9493 117.52C91.7599 117.43 91.5855 117.365 91.426 117.326L90.2151 116.982C89.4876 116.772 88.9543 116.473 88.6155 116.085C88.2866 115.696 88.1221 115.243 88.1221 114.724C88.1221 114.246 88.2417 113.832 88.4809 113.483C88.7301 113.125 89.064 112.846 89.4826 112.646C89.9111 112.447 90.3895 112.347 90.9177 112.347C91.6254 112.347 92.2582 112.527 92.8164 112.885C93.3845 113.244 93.7881 113.748 94.0273 114.395L92.8911 114.919C92.7117 114.5 92.4426 114.171 92.0838 113.932C91.725 113.683 91.3214 113.558 90.8729 113.558C90.4643 113.558 90.1404 113.663 89.9012 113.872C89.662 114.071 89.5424 114.326 89.5424 114.635C89.5424 114.864 89.6022 115.053 89.7218 115.203C89.8414 115.342 89.9859 115.452 90.1553 115.532C90.3247 115.601 90.4892 115.661 90.6487 115.711L91.9642 116.1C92.622 116.289 93.1303 116.583 93.4891 116.982C93.8579 117.38 94.0422 117.859 94.0422 118.417C94.0422 118.865 93.9177 119.269 93.6685 119.628C93.4193 119.987 93.0755 120.266 92.637 120.465C92.1984 120.664 91.6902 120.764 91.1121 120.764ZM98.5831 120.764C97.7758 120.764 97.0732 120.565 96.4752 120.166C95.8772 119.767 95.4536 119.229 95.2045 118.551L96.3107 118.013C96.54 118.492 96.8539 118.87 97.2526 119.149C97.6512 119.428 98.0947 119.568 98.5831 119.568C99.0216 119.568 99.3854 119.463 99.6744 119.254C99.9635 119.045 100.108 118.771 100.108 118.432C100.108 118.193 100.038 118.003 99.8987 117.864C99.7691 117.714 99.6097 117.6 99.4203 117.52C99.2309 117.43 99.0565 117.365 98.8971 117.326L97.6861 116.982C96.9586 116.772 96.4254 116.473 96.0865 116.085C95.7576 115.696 95.5932 115.243 95.5932 114.724C95.5932 114.246 95.7128 113.832 95.952 113.483C96.2011 113.125 96.535 112.846 96.9536 112.646C97.3821 112.447 97.8605 112.347 98.3888 112.347C99.0964 112.347 99.7293 112.527 100.287 112.885C100.855 113.244 101.259 113.748 101.498 114.395L100.362 114.919C100.183 114.5 99.9136 114.171 99.5548 113.932C99.196 113.683 98.7924 113.558 98.3439 113.558C97.9353 113.558 97.6114 113.663 97.3722 113.872C97.133 114.071 97.0134 114.326 97.0134 114.635C97.0134 114.864 97.0732 115.053 97.1928 115.203C97.3124 115.342 97.4569 115.452 97.6263 115.532C97.7958 115.601 97.9602 115.661 98.1197 115.711L99.4352 116.1C100.093 116.289 100.601 116.583 100.96 116.982C101.329 117.38 101.513 117.859 101.513 118.417C101.513 118.865 101.389 119.269 101.14 119.628C100.89 119.987 100.547 120.266 100.108 120.465C99.6695 120.664 99.1612 120.764 98.5831 120.764ZM106.876 120.764C106.099 120.764 105.406 120.58 104.798 120.211C104.19 119.842 103.712 119.339 103.363 118.701C103.014 118.053 102.84 117.331 102.84 116.533C102.84 115.726 103.009 115.008 103.348 114.38C103.697 113.753 104.165 113.259 104.753 112.9C105.351 112.532 106.019 112.347 106.757 112.347C107.355 112.347 107.883 112.457 108.341 112.676C108.81 112.885 109.204 113.175 109.522 113.543C109.851 113.902 110.101 114.316 110.27 114.784C110.449 115.243 110.539 115.721 110.539 116.219C110.539 116.329 110.529 116.453 110.509 116.593C110.499 116.723 110.484 116.847 110.464 116.967H103.857V115.771H109.657L108.999 116.309C109.089 115.791 109.039 115.327 108.85 114.919C108.66 114.51 108.381 114.186 108.013 113.947C107.644 113.708 107.225 113.588 106.757 113.588C106.288 113.588 105.86 113.708 105.471 113.947C105.082 114.186 104.778 114.53 104.559 114.978C104.35 115.417 104.265 115.94 104.305 116.548C104.265 117.136 104.355 117.654 104.574 118.103C104.803 118.541 105.122 118.885 105.531 119.134C105.949 119.374 106.403 119.493 106.891 119.493C107.429 119.493 107.883 119.369 108.252 119.12C108.62 118.87 108.919 118.551 109.149 118.163L110.315 118.761C110.155 119.129 109.906 119.468 109.567 119.777C109.238 120.076 108.845 120.315 108.386 120.495C107.938 120.674 107.434 120.764 106.876 120.764ZM115.461 120.674C114.674 120.674 114.066 120.45 113.637 120.002C113.219 119.553 113.01 118.92 113.01 118.103V113.857H111.545V112.527H111.844C112.202 112.527 112.486 112.417 112.696 112.198C112.905 111.979 113.01 111.69 113.01 111.331V110.673H114.4V112.527H116.209V113.857H114.4V118.058C114.4 118.327 114.44 118.561 114.52 118.761C114.609 118.96 114.754 119.12 114.953 119.239C115.152 119.349 115.417 119.404 115.745 119.404C115.815 119.404 115.9 119.399 116 119.389C116.109 119.379 116.209 119.369 116.299 119.359V120.585C116.169 120.614 116.024 120.634 115.865 120.644C115.706 120.664 115.571 120.674 115.461 120.674ZM120.836 120.764C120.028 120.764 119.326 120.565 118.728 120.166C118.13 119.767 117.706 119.229 117.457 118.551L118.563 118.013C118.792 118.492 119.106 118.87 119.505 119.149C119.904 119.428 120.347 119.568 120.836 119.568C121.274 119.568 121.638 119.463 121.927 119.254C122.216 119.045 122.36 118.771 122.36 118.432C122.36 118.193 122.291 118.003 122.151 117.864C122.022 117.714 121.862 117.6 121.673 117.52C121.483 117.43 121.309 117.365 121.149 117.326L119.939 116.982C119.211 116.772 118.678 116.473 118.339 116.085C118.01 115.696 117.846 115.243 117.846 114.724C117.846 114.246 117.965 113.832 118.204 113.483C118.454 113.125 118.787 112.846 119.206 112.646C119.635 112.447 120.113 112.347 120.641 112.347C121.349 112.347 121.982 112.527 122.54 112.885C123.108 113.244 123.512 113.748 123.751 114.395L122.615 114.919C122.435 114.5 122.166 114.171 121.807 113.932C121.448 113.683 121.045 113.558 120.596 113.558C120.188 113.558 119.864 113.663 119.625 113.872C119.385 114.071 119.266 114.326 119.266 114.635C119.266 114.864 119.326 115.053 119.445 115.203C119.565 115.342 119.709 115.452 119.879 115.532C120.048 115.601 120.213 115.661 120.372 115.711L121.688 116.1C122.345 116.289 122.854 116.583 123.213 116.982C123.581 117.38 123.766 117.859 123.766 118.417C123.766 118.865 123.641 119.269 123.392 119.628C123.143 119.987 122.799 120.266 122.36 120.465C121.922 120.664 121.414 120.764 120.836 120.764Z" fill="black" fill-opacity="0.7"/>
<rect x="77.2705" y="183.208" width="34.9435" height="34.9435" rx="17.4717" fill="#E8F7E8"/>
<path d="M88.6274 198.058L89.8592 199.29L93.869 195.289V209.415H95.6161V195.289L99.6259 199.299L100.858 198.058L94.7425 191.943L88.6274 198.058Z" fill="#29A653"/>
<path d="M285.878 153.134L285.213 155.664H273.009L273.664 153.134H285.878ZM279.534 167.149L273.309 159.741L273.318 157.466H276.394C277.08 157.466 277.653 157.338 278.114 157.083C278.576 156.829 278.921 156.483 279.152 156.046C279.383 155.609 279.501 155.111 279.507 154.553C279.501 153.716 279.255 153.033 278.77 152.506C278.29 151.972 277.499 151.705 276.394 151.705H273.009L273.755 148.51H276.394C277.942 148.51 279.231 148.744 280.262 149.211C281.3 149.672 282.076 150.33 282.592 151.186C283.114 152.041 283.378 153.061 283.384 154.244C283.378 155.293 283.202 156.21 282.856 156.992C282.516 157.775 281.979 158.427 281.245 158.949C280.517 159.471 279.568 159.859 278.397 160.114L278.251 160.169L283.821 166.985V167.149H279.534ZM285.896 148.51L285.213 151.077H275.166L275.848 148.51H285.896ZM295.197 167.404C293.838 167.404 292.627 167.17 291.566 166.703C290.51 166.23 289.676 165.581 289.063 164.755C288.456 163.924 288.144 162.966 288.125 161.88H292.093C292.118 162.335 292.266 162.735 292.539 163.081C292.818 163.421 293.189 163.685 293.65 163.873C294.111 164.061 294.63 164.155 295.206 164.155C295.807 164.155 296.337 164.049 296.799 163.836C297.26 163.624 297.621 163.33 297.882 162.953C298.142 162.577 298.273 162.143 298.273 161.652C298.273 161.154 298.133 160.715 297.854 160.332C297.581 159.944 297.187 159.641 296.671 159.422C296.162 159.204 295.555 159.095 294.851 159.095H293.113V156.201H294.851C295.446 156.201 295.97 156.097 296.425 155.891C296.887 155.685 297.245 155.4 297.499 155.036C297.754 154.666 297.882 154.235 297.882 153.743C297.882 153.276 297.769 152.867 297.545 152.515C297.326 152.157 297.017 151.878 296.617 151.677C296.222 151.477 295.761 151.377 295.233 151.377C294.699 151.377 294.211 151.474 293.768 151.668C293.325 151.856 292.97 152.126 292.703 152.478C292.436 152.83 292.294 153.243 292.275 153.716H288.499C288.517 152.642 288.823 151.696 289.418 150.877C290.012 150.057 290.813 149.417 291.82 148.956C292.834 148.489 293.977 148.255 295.251 148.255C296.538 148.255 297.663 148.489 298.628 148.956C299.593 149.423 300.342 150.054 300.876 150.849C301.416 151.638 301.683 152.524 301.677 153.507C301.683 154.55 301.358 155.421 300.703 156.119C300.054 156.816 299.207 157.259 298.164 157.447V157.593C299.535 157.769 300.579 158.245 301.294 159.022C302.016 159.792 302.374 160.757 302.368 161.916C302.374 162.978 302.068 163.921 301.449 164.746C300.836 165.571 299.99 166.221 298.91 166.694C297.83 167.167 296.592 167.404 295.197 167.404ZM304.919 163.873V160.769L312.7 148.51H315.376V152.806H313.792L308.887 160.569V160.715H319.944V163.873H304.919ZM313.865 167.149V162.926L313.938 161.552V148.51H317.633V167.149H313.865ZM329.878 167.558C328.313 167.552 326.966 167.167 325.837 166.403C324.715 165.638 323.85 164.531 323.244 163.081C322.643 161.631 322.346 159.886 322.352 157.848C322.352 155.815 322.652 154.083 323.253 152.651C323.859 151.219 324.724 150.13 325.846 149.384C326.975 148.632 328.319 148.255 329.878 148.255C331.437 148.255 332.778 148.632 333.901 149.384C335.029 150.136 335.897 151.228 336.504 152.66C337.11 154.086 337.411 155.815 337.405 157.848C337.405 159.892 337.101 161.64 336.494 163.09C335.894 164.54 335.032 165.647 333.91 166.412C332.787 167.176 331.443 167.558 329.878 167.558ZM329.878 164.291C330.946 164.291 331.798 163.754 332.435 162.68C333.072 161.606 333.388 159.996 333.382 157.848C333.382 156.434 333.236 155.257 332.945 154.317C332.66 153.376 332.253 152.669 331.726 152.196C331.204 151.723 330.588 151.486 329.878 151.486C328.816 151.486 327.967 152.017 327.33 153.079C326.693 154.141 326.371 155.73 326.365 157.848C326.365 159.28 326.508 160.475 326.793 161.434C327.084 162.386 327.494 163.102 328.021 163.581C328.549 164.055 329.168 164.291 329.878 164.291ZM347.522 167.558C345.957 167.552 344.61 167.167 343.482 166.403C342.359 165.638 341.495 164.531 340.888 163.081C340.287 161.631 339.99 159.886 339.996 157.848C339.996 155.815 340.296 154.083 340.897 152.651C341.504 151.219 342.368 150.13 343.491 149.384C344.619 148.632 345.963 148.255 347.522 148.255C349.082 148.255 350.423 148.632 351.545 149.384C352.674 150.136 353.541 151.228 354.148 152.66C354.755 154.086 355.055 155.815 355.049 157.848C355.049 159.892 354.746 161.64 354.139 163.09C353.538 164.54 352.677 165.647 351.554 166.412C350.432 167.176 349.088 167.558 347.522 167.558ZM347.522 164.291C348.59 164.291 349.443 163.754 350.08 162.68C350.717 161.606 351.032 159.996 351.026 157.848C351.026 156.434 350.881 155.257 350.589 154.317C350.304 153.376 349.898 152.669 349.37 152.196C348.848 151.723 348.232 151.486 347.522 151.486C346.461 151.486 345.611 152.017 344.974 153.079C344.337 154.141 344.016 155.73 344.009 157.848C344.009 159.28 344.152 160.475 344.437 161.434C344.728 162.386 345.138 163.102 345.666 163.581C346.194 164.055 346.813 164.291 347.522 164.291ZM357.859 167.149V164.309L364.493 158.166C365.058 157.62 365.531 157.129 365.913 156.692C366.301 156.255 366.596 155.827 366.796 155.409C366.996 154.984 367.096 154.526 367.096 154.035C367.096 153.488 366.972 153.018 366.723 152.624C366.474 152.223 366.135 151.917 365.704 151.705C365.273 151.486 364.785 151.377 364.238 151.377C363.668 151.377 363.171 151.492 362.746 151.723C362.321 151.953 361.994 152.284 361.763 152.715C361.532 153.146 361.417 153.658 361.417 154.253H357.677C357.677 153.033 357.953 151.975 358.505 151.077C359.057 150.179 359.831 149.484 360.826 148.993C361.821 148.501 362.967 148.255 364.266 148.255C365.601 148.255 366.762 148.492 367.751 148.965C368.746 149.433 369.52 150.082 370.072 150.913C370.624 151.744 370.9 152.697 370.9 153.771C370.9 154.474 370.761 155.169 370.482 155.855C370.209 156.54 369.72 157.302 369.016 158.139C368.313 158.97 367.321 159.968 366.04 161.133L363.319 163.8V163.927H371.146V167.149H357.859ZM382.11 148.51V167.149H378.17V152.251H378.06L373.792 154.926V151.432L378.406 148.51H382.11Z" fill="black"/>
<path d="M273.321 120.585V109.447H274.786V119.239H279.675V120.585H273.321ZM280.993 120.585V112.527H282.383V120.585H280.993ZM280.993 111.241V109.447H282.383V111.241H280.993ZM286.738 120.764C286.21 120.764 285.742 120.669 285.333 120.48C284.934 120.281 284.62 120.012 284.391 119.673C284.162 119.324 284.047 118.925 284.047 118.477C284.047 118.048 284.137 117.665 284.316 117.326C284.506 116.977 284.795 116.683 285.183 116.444C285.582 116.204 286.08 116.035 286.678 115.935L289.668 115.442V116.608L286.992 117.057C286.474 117.146 286.095 117.311 285.856 117.55C285.627 117.789 285.512 118.083 285.512 118.432C285.512 118.761 285.642 119.035 285.901 119.254C286.17 119.473 286.504 119.583 286.903 119.583C287.411 119.583 287.849 119.478 288.218 119.269C288.597 119.05 288.891 118.756 289.1 118.387C289.32 118.018 289.429 117.61 289.429 117.161V115.113C289.429 114.675 289.265 114.321 288.936 114.052C288.617 113.773 288.193 113.633 287.665 113.633C287.207 113.633 286.798 113.753 286.439 113.992C286.09 114.221 285.831 114.53 285.662 114.919L284.451 114.291C284.6 113.922 284.84 113.593 285.168 113.304C285.497 113.005 285.881 112.771 286.32 112.602C286.758 112.432 287.217 112.347 287.695 112.347C288.313 112.347 288.856 112.467 289.325 112.706C289.793 112.935 290.157 113.259 290.416 113.678C290.685 114.087 290.819 114.565 290.819 115.113V120.585H289.459V119.06L289.713 119.15C289.544 119.468 289.315 119.748 289.026 119.987C288.736 120.226 288.398 120.415 288.009 120.555C287.62 120.694 287.197 120.764 286.738 120.764ZM296.982 120.764C296.334 120.764 295.741 120.62 295.203 120.331C294.674 120.042 294.266 119.633 293.977 119.105L294.171 118.865V120.585H292.811V109.268H294.201V114.261L293.992 113.917C294.291 113.439 294.699 113.06 295.218 112.781C295.736 112.492 296.329 112.347 296.997 112.347C297.754 112.347 298.432 112.532 299.03 112.901C299.638 113.269 300.116 113.773 300.465 114.41C300.814 115.038 300.988 115.756 300.988 116.563C300.988 117.351 300.814 118.063 300.465 118.701C300.116 119.339 299.638 119.842 299.03 120.211C298.432 120.58 297.749 120.764 296.982 120.764ZM296.877 119.419C297.385 119.419 297.839 119.294 298.237 119.045C298.636 118.796 298.945 118.457 299.164 118.028C299.394 117.59 299.508 117.101 299.508 116.563C299.508 116.005 299.394 115.517 299.164 115.098C298.945 114.67 298.636 114.331 298.237 114.082C297.839 113.822 297.385 113.693 296.877 113.693C296.369 113.693 295.91 113.817 295.502 114.067C295.103 114.316 294.784 114.66 294.545 115.098C294.316 115.527 294.201 116.015 294.201 116.563C294.201 117.101 294.316 117.59 294.545 118.028C294.784 118.457 295.103 118.796 295.502 119.045C295.91 119.294 296.369 119.419 296.877 119.419ZM302.647 120.585V112.527H304.037V120.585H302.647ZM302.647 111.241V109.447H304.037V111.241H302.647ZM306.03 120.585V109.268H307.42V120.585H306.03ZM309.413 120.585V112.527H310.804V120.585H309.413ZM309.413 111.241V109.447H310.804V111.241H309.413ZM316.07 120.674C315.283 120.674 314.675 120.45 314.247 120.002C313.828 119.553 313.619 118.92 313.619 118.103V113.857H312.154V112.527H312.453C312.811 112.527 313.095 112.417 313.305 112.198C313.514 111.979 313.619 111.69 313.619 111.331V110.673H315.009V112.527H316.818V113.857H315.009V118.058C315.009 118.327 315.049 118.562 315.129 118.761C315.218 118.96 315.363 119.12 315.562 119.239C315.761 119.349 316.026 119.404 316.354 119.404C316.424 119.404 316.509 119.399 316.609 119.389C316.718 119.379 316.818 119.369 316.908 119.359V120.585C316.778 120.615 316.634 120.635 316.474 120.645C316.315 120.664 316.18 120.674 316.07 120.674ZM318.993 123.874C318.813 123.874 318.634 123.859 318.455 123.829C318.275 123.799 318.106 123.749 317.946 123.679V122.438C318.056 122.458 318.191 122.478 318.35 122.498C318.519 122.528 318.684 122.543 318.843 122.543C319.312 122.543 319.666 122.438 319.905 122.229C320.154 122.03 320.388 121.681 320.607 121.183L321.116 119.972L321.086 121.183L317.647 112.527H319.157L321.833 119.404H321.385L324.046 112.527H325.586L321.953 121.541C321.783 121.97 321.564 122.359 321.295 122.708C321.036 123.066 320.717 123.35 320.338 123.56C319.96 123.769 319.511 123.874 318.993 123.874Z" fill="black" fill-opacity="0.7"/>
<rect x="272.081" y="183.208" width="34.9435" height="34.9435" rx="17.4717" fill="#FFDBDB"/>
<path d="M295.668 203.3L294.436 202.068L290.426 206.069V191.943H288.679V206.069L284.669 202.059L283.438 203.3L289.553 209.415L295.668 203.3Z" fill="#FF1E1E"/>
</g>
<path d="M482.027 395.669H428.238V418.429H482.027V395.669Z" fill="#F4A640"/>
<path d="M428.238 395.669H374.45V418.429H428.238V395.669Z" fill="#FEB546"/>
<path d="M374.45 395.669H320.661V418.429H374.45V395.669Z" fill="#F9C27A"/>
<path d="M482.448 419.099H320.24V395H482.448V419.099ZM321.083 417.761H481.605V396.338H321.083V417.761Z" fill="#E2881E"/>
<path d="M473.786 441.191H419.998V463.952H473.786V441.191Z" fill="#F4A640"/>
<path d="M419.998 441.191H366.21V463.952H419.998V441.191Z" fill="#FEB546"/>
<path d="M366.21 441.191H312.421V463.952H366.21V441.191Z" fill="#F9C27A"/>
<path d="M474.208 464.621H312V440.522H474.208L474.208 464.621ZM312.843 463.283H473.365V441.86H312.843V463.283Z" fill="#E2881E"/>
<path d="M482.027 463.953H428.238V486.712H482.027V463.953Z" fill="#F4A640"/>
<path d="M428.238 463.953H374.45V486.712H428.238V463.953Z" fill="#FEB546"/>
<path d="M374.45 463.953H320.661V486.712H374.45V463.953Z" fill="#F9C27A"/>
<path d="M482.448 487.382H320.24V463.283H482.448V487.382ZM321.083 486.044H481.605V464.621H321.083V486.044Z" fill="#E2881E"/>
<path d="M495.011 486.714H441.222V509.474H495.011V486.714Z" fill="#F4A640"/>
<path d="M441.222 486.714H387.434V509.474H441.222V486.714Z" fill="#FEB546"/>
<path d="M387.434 486.714H333.646V509.474H387.434V486.714Z" fill="#F9C27A"/>
<path d="M495.432 510.144H333.224V486.045H495.432V510.144ZM334.067 508.806H494.589V487.383H334.067V508.806Z" fill="#E2881E"/>
<path d="M490.89 418.43H437.102V441.19H490.89V418.43Z" fill="#F4A640"/>
<path d="M437.102 418.43H383.314V441.19H437.102V418.43Z" fill="#FEB546"/>
<path d="M383.314 418.43H329.525V441.19H383.314V418.43Z" fill="#F9C27A"/>
<path d="M491.312 441.86H329.104V417.761H491.312V441.86H491.312ZM329.947 440.522H490.469V419.099H329.947V440.522Z" fill="#E2881E"/>
</g>
<defs>
<filter id="filter0_d_1256_5638" x="39.9787" y="63.5824" width="420.524" height="382.714" filterUnits="userSpaceOnUse" color-interpolation-filters="sRGB">
<feFlood flood-opacity="0" result="BackgroundImageFix"/>
<feColorMatrix in="SourceAlpha" type="matrix" values="0 0 0 0 0 0 0 0 0 0 0 0 0 0 0 0 0 0 127 0" result="hardAlpha"/>
<feOffset dy="5.33919"/>
<feGaussianBlur stdDeviation="10.6784"/>
<feComposite in2="hardAlpha" operator="out"/>
<feColorMatrix type="matrix" values="0 0 0 0 0 0 0 0 0 0 0 0 0 0 0 0 0 0 0.05 0"/>
<feBlend mode="normal" in2="BackgroundImageFix" result="effect1_dropShadow_1256_5638"/>
<feBlend mode="normal" in="SourceGraphic" in2="effect1_dropShadow_1256_5638" result="shape"/>
</filter>
<linearGradient id="paint0_linear_1256_5638" x1="101.147" y1="380.724" x2="101.147" y2="396.534" gradientUnits="userSpaceOnUse">
<stop stop-color="#1A237E"/>
<stop offset="1" stop-color="white" stop-opacity="0"/>
</linearGradient>
<linearGradient id="paint1_linear_1256_5638" x1="300.325" y1="379.527" x2="300.325" y2="395.337" gradientUnits="userSpaceOnUse">
<stop stop-color="#1A237E"/>
<stop offset="1" stop-color="white" stop-opacity="0"/>
</linearGradient>
<clipPath id="clip0_1256_5638">
<rect width="500" height="500" fill="white"/>
</clipPath>
</defs>
</svg>
