<svg width="500" height="500" viewBox="0 0 500 500" fill="none" xmlns="http://www.w3.org/2000/svg">
<g clip-path="url(#clip0_1256_5418)">
<rect width="500" height="500" rx="8" fill="#1A237E"/>
<g clip-path="url(#clip1_1256_5418)">
<path d="M371.626 93.4495L141.06 142.397L165.934 259.566L396.5 210.618L371.626 93.4495Z" fill="#D4D8FF"/>
<path d="M387.832 206.654L172.212 252.424L149.704 146.39L365.324 100.62L387.832 206.654ZM177.701 243.978L379.385 201.166L359.835 109.066L158.15 151.878L177.701 243.978Z" fill="#E9ECFF"/>
<path d="M353.285 158.582C352.541 155.074 349.093 152.834 345.585 153.578C342.077 154.323 339.837 157.77 340.582 161.278C341.326 164.786 344.774 167.026 348.282 166.282C351.79 165.537 354.03 162.09 353.285 158.582Z" fill="#E9ECFF"/>
<path d="M279.003 224.33C303.013 219.136 317.852 193.544 312.147 167.168C306.442 140.792 282.353 123.619 258.343 128.813C234.332 134.006 219.493 159.599 225.198 185.975C230.904 212.351 254.993 229.523 279.003 224.33Z" fill="#E9ECFF"/>
<path d="M272.787 160.293C271.554 157.875 270.015 155.997 267.192 155.352C267.209 155.777 267.178 156.1 267.242 156.403C268.103 160.513 269.004 164.615 269.828 168.733C270.009 169.635 270.38 169.901 271.293 169.994C273.422 170.211 275.552 170.519 277.644 170.968C284.989 172.547 288.614 177.789 289.263 184.793C290.044 193.23 286.536 198.926 278.778 202.448C277.362 203.09 277.071 203.816 277.494 205.174C277.802 206.164 277.942 207.206 278.179 208.326C276.397 208.703 274.718 209.057 272.878 209.445C272.538 207.835 272.202 206.244 271.872 204.683C259.92 205.26 254.687 197.686 252.896 191.597C255.958 190.591 259.024 189.583 262.168 188.55C263.797 191.815 266.036 194.237 269.928 195.581C269.445 193.296 269.03 191.327 268.614 189.359C268.045 186.669 267.431 183.988 266.93 181.285C266.745 180.289 266.349 179.874 265.314 179.767C262.011 179.426 258.81 178.669 255.966 176.845C250.205 173.151 248.177 167.517 248.651 161.105C249.093 155.118 252.711 151.076 258.23 148.765C258.598 148.611 258.97 148.462 259.334 148.299C259.469 148.239 259.589 148.144 259.828 147.995C259.562 146.733 259.287 145.433 258.989 144.018C260.791 143.637 262.473 143.283 264.37 142.882C264.57 143.828 264.838 144.781 264.958 145.752C265.085 146.781 265.585 147.012 266.565 146.968C270.938 146.771 274.877 147.903 278.076 151.042C279.766 152.702 281 154.658 281.871 157.075C278.822 158.154 275.878 159.198 272.787 160.293ZM272.421 180.496C273.443 185.335 274.436 190.037 275.43 194.745C278.644 193.735 280.668 190.271 280.22 186.631C279.781 183.069 276.83 180.672 272.421 180.496ZM261.527 156.44C258.758 158.323 257.451 161.37 258.157 163.937C258.936 166.77 261.501 168.921 264.185 169.031C263.314 164.904 262.44 160.766 261.527 156.44Z" fill="#D4D8FF"/>
<path d="M274.164 -0.381609L112.052 170.722L199.003 253.103L361.115 82.0001L274.164 -0.381609Z" fill="#D4D8FF"/>
<path d="M351.727 83.6528L200.122 243.66L121.436 169.106L273.041 9.09893L351.727 83.6528ZM199.851 233.592L341.658 83.9242L273.312 19.1674L131.505 168.835L199.851 233.592Z" fill="#E9ECFF"/>
<path d="M296.007 63.6608C293.404 61.1943 289.294 61.3053 286.828 63.9082C284.361 66.5113 284.472 70.6213 287.075 73.0878C289.678 75.5543 293.788 75.4434 296.255 72.8403C298.721 70.2372 298.61 66.1277 296.007 63.6608Z" fill="#E9ECFF"/>
<path d="M272.131 159.945C288.958 142.047 286.66 112.553 266.999 94.0683C247.338 75.5831 217.759 75.1065 200.932 93.0038C184.105 110.901 186.402 140.395 206.063 158.88C225.724 177.365 255.303 177.842 272.131 159.945Z" fill="#E9ECFF"/>
<path d="M230.685 110.734C228.297 109.442 225.965 108.769 223.274 109.839C223.529 110.179 223.687 110.464 223.911 110.677C226.952 113.573 230.021 116.44 233.036 119.364C233.697 120.004 234.153 120.013 234.957 119.571C236.833 118.542 238.763 117.587 240.74 116.771C247.685 113.904 253.644 116.165 258.151 121.565C263.581 128.07 263.923 134.751 259.531 142.052C258.73 143.384 258.902 144.147 260.021 145.026C260.836 145.666 261.543 146.445 262.373 147.233C261.119 148.554 259.937 149.798 258.642 151.162C257.449 150.029 256.269 148.909 255.113 147.81C245.597 155.066 236.991 151.796 232.062 147.798C234.012 145.233 235.966 142.664 237.969 140.029C241.163 141.794 244.38 142.518 248.348 141.417C246.654 139.809 245.196 138.423 243.736 137.039C241.742 135.146 239.716 133.286 237.77 131.345C237.053 130.629 236.49 130.512 235.578 131.011C232.664 132.604 229.599 133.796 226.222 133.908C219.382 134.134 214.516 130.644 211.269 125.096C208.237 119.914 208.922 114.533 212.157 109.499C212.373 109.163 212.594 108.83 212.802 108.489C212.879 108.363 212.924 108.217 213.037 107.958C212.101 107.07 211.138 106.155 210.089 105.159C211.358 103.823 212.541 102.577 213.876 101.17C214.578 101.836 215.339 102.469 215.989 103.201C216.677 103.976 217.22 103.883 218.002 103.291C221.492 100.648 225.377 99.3455 229.792 100.117C232.126 100.524 234.252 101.435 236.34 102.932C234.442 105.55 232.609 108.079 230.685 110.734ZM241.844 127.58C245.431 130.986 248.916 134.295 252.405 137.608C254.479 134.953 254.181 130.952 251.747 128.208C249.365 125.524 245.575 125.224 241.844 127.58ZM219.226 113.949C218.014 117.071 218.666 120.321 220.703 122.035C222.952 123.926 226.285 124.243 228.558 122.811C225.499 119.906 222.432 116.994 219.226 113.949Z" fill="#D4D8FF"/>
<path d="M123.236 -21.6662L63.9165 206.451L179.841 236.596L239.161 8.47871L123.236 -21.6662Z" fill="#D4D8FF"/>
<path d="M231.738 14.4592L176.26 227.787L71.3531 200.505L126.831 -12.8228L231.738 14.4592ZM171.16 219.101L223.052 19.5597L131.931 -4.13729L80.0384 195.404L171.16 219.101Z" fill="#E9ECFF"/>
<path d="M173.292 23.8631C169.821 22.9605 166.276 25.0427 165.373 28.513C164.471 31.9836 166.553 35.5289 170.023 36.4315C173.494 37.3341 177.039 35.2522 177.942 31.7816C178.844 28.311 176.763 24.7661 173.292 23.8631Z" fill="#E9ECFF"/>
<path d="M198.885 119.705C204.976 95.9068 188.72 71.19 162.577 64.4986C136.433 57.8072 110.302 71.675 104.211 95.4734C98.1195 119.272 114.375 143.989 140.519 150.68C166.662 157.371 192.793 143.504 198.885 119.705Z" fill="#E9ECFF"/>
<path d="M138.827 96.6299C136.112 96.6516 133.744 97.1886 131.905 99.4252C132.293 99.5998 132.568 99.7725 132.868 99.8512C136.93 100.919 141.001 101.947 145.053 103.051C145.941 103.292 146.344 103.08 146.836 102.305C147.982 100.498 149.21 98.7297 150.547 97.0597C155.244 91.1957 161.553 90.297 168.108 92.8489C176.004 95.9228 179.53 101.608 179.211 110.122C179.153 111.675 179.672 112.26 181.076 112.49C182.099 112.657 183.094 112.997 184.201 113.287C183.741 115.049 183.307 116.709 182.832 118.529C181.24 118.112 179.666 117.701 178.123 117.298C173.294 128.247 164.179 129.54 157.932 128.419C158.401 125.231 158.871 122.039 159.353 118.764C163.002 118.767 166.169 117.847 169.112 114.967C166.852 114.377 164.905 113.868 162.959 113.36C160.299 112.666 157.626 112.016 154.985 111.256C154.011 110.976 153.462 111.145 152.904 112.022C151.122 114.825 149.013 117.349 146.11 119.077C140.23 122.578 134.284 121.873 128.761 118.582C123.603 115.509 121.605 110.466 122.006 104.496C122.033 104.097 122.066 103.699 122.083 103.3C122.09 103.152 122.059 103.003 122.033 102.722C120.784 102.396 119.499 102.06 118.1 101.695C118.565 99.9121 119 98.2496 119.49 96.3729C120.425 96.6172 121.398 96.8037 122.32 97.1308C123.297 97.477 123.727 97.1333 124.126 96.237C125.906 92.2375 128.679 89.2205 132.918 87.7634C135.158 86.9932 137.459 86.7645 140.011 87.0664C139.613 90.2757 139.229 93.3757 138.827 96.6299ZM156.734 105.992C161.519 107.242 166.169 108.456 170.825 109.672C171.358 106.346 169.165 102.986 165.708 101.759C162.327 100.559 158.863 102.127 156.734 105.992ZM130.345 104.979C130.791 108.298 132.933 110.829 135.544 111.346C138.426 111.915 141.498 110.584 142.796 108.232C138.715 107.166 134.623 106.097 130.345 104.979Z" fill="#D4D8FF"/>
</g>
<rect x="20.5" y="146.5" width="459" height="207" rx="7.5" fill="white"/>
<rect x="20.5" y="146.5" width="459" height="207" rx="7.5" stroke="#D5D9DC"/>
<path d="M49.92 179.2C48.9467 179.2 48.0333 179.02 47.18 178.66C46.34 178.287 45.6 177.773 44.96 177.12C44.3333 176.467 43.84 175.707 43.48 174.84C43.12 173.973 42.94 173.04 42.94 172.04C42.94 171.04 43.12 170.113 43.48 169.26C43.84 168.393 44.34 167.633 44.98 166.98C45.62 166.327 46.3667 165.82 47.22 165.46C48.0867 165.1 49.0267 164.92 50.04 164.92C51.1467 164.92 52.1667 165.133 53.1 165.56C54.0333 165.987 54.8133 166.6 55.44 167.4L54.14 168.7C53.7 168.06 53.12 167.573 52.4 167.24C51.68 166.893 50.8933 166.72 50.04 166.72C49.0267 166.72 48.1267 166.947 47.34 167.4C46.5667 167.853 45.96 168.48 45.52 169.28C45.0933 170.08 44.88 171 44.88 172.04C44.88 173.093 45.1 174.02 45.54 174.82C45.98 175.62 46.5733 176.247 47.32 176.7C48.0667 177.153 48.92 177.38 49.88 177.38C50.8533 177.38 51.6933 177.193 52.4 176.82C53.12 176.447 53.6733 175.9 54.06 175.18C54.4467 174.447 54.64 173.553 54.64 172.5L55.78 173.32H49.78V171.6H56.58V171.88C56.58 173.493 56.2933 174.847 55.72 175.94C55.16 177.02 54.3733 177.833 53.36 178.38C52.36 178.927 51.2133 179.2 49.92 179.2ZM58.8088 179V169.5H60.6088V179H58.8088ZM59.7088 167.6C59.3754 167.6 59.1021 167.493 58.8888 167.28C58.6754 167.053 58.5688 166.773 58.5688 166.44C58.5688 166.12 58.6754 165.853 58.8888 165.64C59.1021 165.413 59.3754 165.3 59.7088 165.3C60.0421 165.3 60.3154 165.413 60.5288 165.64C60.7421 165.853 60.8488 166.12 60.8488 166.44C60.8488 166.773 60.7421 167.053 60.5288 167.28C60.3154 167.493 60.0421 167.6 59.7088 167.6ZM67.2814 179.2C66.4014 179.2 65.6147 178.987 64.9214 178.56C64.2281 178.12 63.6747 177.527 63.2614 176.78C62.8614 176.033 62.6614 175.193 62.6614 174.26C62.6614 173.327 62.8614 172.487 63.2614 171.74C63.6747 170.993 64.2281 170.4 64.9214 169.96C65.6147 169.52 66.4014 169.3 67.2814 169.3C67.9881 169.3 68.6281 169.453 69.2014 169.76C69.7747 170.053 70.2347 170.467 70.5814 171C70.9414 171.52 71.1414 172.127 71.1814 172.82V175.68C71.1414 176.36 70.9481 176.967 70.6014 177.5C70.2547 178.033 69.7947 178.453 69.2214 178.76C68.6481 179.053 68.0014 179.2 67.2814 179.2ZM67.5814 177.5C68.1814 177.5 68.7014 177.36 69.1414 177.08C69.5947 176.8 69.9481 176.42 70.2014 175.94C70.4547 175.447 70.5814 174.887 70.5814 174.26C70.5814 173.607 70.4481 173.04 70.1814 172.56C69.9281 172.08 69.5747 171.7 69.1214 171.42C68.6814 171.14 68.1614 171 67.5614 171C66.9614 171 66.4347 171.14 65.9814 171.42C65.5281 171.7 65.1681 172.087 64.9014 172.58C64.6481 173.06 64.5214 173.613 64.5214 174.24C64.5214 174.88 64.6481 175.447 64.9014 175.94C65.1681 176.42 65.5281 176.8 65.9814 177.08C66.4481 177.36 66.9814 177.5 67.5814 177.5ZM72.2814 179H70.4614V176.44L70.8014 174.12L70.4614 171.82V164.72H72.2814V179ZM78.922 179.2C78.042 179.2 77.2554 178.987 76.562 178.56C75.8687 178.12 75.3154 177.527 74.902 176.78C74.502 176.033 74.302 175.193 74.302 174.26C74.302 173.327 74.502 172.487 74.902 171.74C75.3154 170.993 75.8687 170.4 76.562 169.96C77.2554 169.52 78.042 169.3 78.922 169.3C79.6287 169.3 80.2687 169.453 80.842 169.76C81.4154 170.053 81.8754 170.467 82.222 171C82.582 171.52 82.782 172.127 82.822 172.82V175.68C82.782 176.36 82.5887 176.967 82.242 177.5C81.8954 178.033 81.4354 178.453 80.862 178.76C80.2887 179.053 79.642 179.2 78.922 179.2ZM79.222 177.5C79.822 177.5 80.342 177.36 80.782 177.08C81.2354 176.8 81.5887 176.42 81.842 175.94C82.0954 175.447 82.222 174.887 82.222 174.26C82.222 173.607 82.0887 173.04 81.822 172.56C81.5687 172.08 81.2154 171.7 80.762 171.42C80.322 171.14 79.802 171 79.202 171C78.602 171 78.0754 171.14 77.622 171.42C77.1687 171.7 76.8087 172.087 76.542 172.58C76.2887 173.06 76.162 173.613 76.162 174.24C76.162 174.88 76.2887 175.447 76.542 175.94C76.8087 176.42 77.1687 176.8 77.622 177.08C78.0887 177.36 78.622 177.5 79.222 177.5ZM83.922 179H82.102V176.44L82.442 174.12L82.102 171.82V164.72H83.922V179ZM93.2627 179V173.46C93.2627 172.74 93.036 172.147 92.5827 171.68C92.1293 171.213 91.5427 170.98 90.8227 170.98C90.3427 170.98 89.916 171.087 89.5427 171.3C89.1693 171.513 88.876 171.807 88.6627 172.18C88.4493 172.553 88.3427 172.98 88.3427 173.46L87.6027 173.04C87.6027 172.32 87.7627 171.68 88.0827 171.12C88.4027 170.56 88.8493 170.12 89.4227 169.8C89.996 169.467 90.6427 169.3 91.3627 169.3C92.0827 169.3 92.716 169.46 93.2627 169.78C93.8227 170.1 94.2627 170.547 94.5827 171.12C94.9027 171.693 95.0627 172.353 95.0627 173.1V179H93.2627ZM86.5427 179V164.72H88.3427V179H86.5427ZM97.4997 174.76V173.06H104.08V174.76H97.4997ZM107.038 179V165.12H108.918V179H107.038ZM118.595 179V173.46C118.595 172.74 118.368 172.147 117.915 171.68C117.461 171.213 116.875 170.98 116.155 170.98C115.675 170.98 115.248 171.087 114.875 171.3C114.501 171.513 114.208 171.807 113.995 172.18C113.781 172.553 113.675 172.98 113.675 173.46L112.935 173.04C112.935 172.32 113.095 171.68 113.415 171.12C113.735 170.56 114.181 170.12 114.755 169.8C115.328 169.467 115.975 169.3 116.695 169.3C117.415 169.3 118.048 169.48 118.595 169.84C119.155 170.2 119.595 170.673 119.915 171.26C120.235 171.833 120.395 172.447 120.395 173.1V179H118.595ZM111.875 179V169.5H113.675V179H111.875ZM126.092 179L121.732 169.5H123.732L127.232 177.52H126.072L129.592 169.5H131.512L127.152 179H126.092ZM137.015 179.2C136.082 179.2 135.242 178.98 134.495 178.54C133.749 178.1 133.155 177.507 132.715 176.76C132.275 176 132.055 175.153 132.055 174.22C132.055 173.3 132.275 172.473 132.715 171.74C133.155 170.993 133.749 170.4 134.495 169.96C135.242 169.52 136.082 169.3 137.015 169.3C137.935 169.3 138.769 169.52 139.515 169.96C140.275 170.387 140.875 170.973 141.315 171.72C141.755 172.467 141.975 173.3 141.975 174.22C141.975 175.153 141.755 176 141.315 176.76C140.875 177.507 140.275 178.1 139.515 178.54C138.769 178.98 137.935 179.2 137.015 179.2ZM137.015 177.46C137.615 177.46 138.149 177.32 138.615 177.04C139.082 176.76 139.449 176.38 139.715 175.9C139.982 175.407 140.115 174.847 140.115 174.22C140.115 173.607 139.975 173.06 139.695 172.58C139.429 172.1 139.062 171.727 138.595 171.46C138.142 171.18 137.615 171.04 137.015 171.04C136.415 171.04 135.882 171.18 135.415 171.46C134.949 171.727 134.582 172.1 134.315 172.58C134.049 173.06 133.915 173.607 133.915 174.22C133.915 174.847 134.049 175.407 134.315 175.9C134.582 176.38 134.949 176.76 135.415 177.04C135.882 177.32 136.415 177.46 137.015 177.46ZM144.024 179V169.5H145.824V179H144.024ZM144.924 167.6C144.59 167.6 144.317 167.493 144.104 167.28C143.89 167.053 143.784 166.773 143.784 166.44C143.784 166.12 143.89 165.853 144.104 165.64C144.317 165.413 144.59 165.3 144.924 165.3C145.257 165.3 145.53 165.413 145.744 165.64C145.957 165.853 146.064 166.12 146.064 166.44C146.064 166.773 145.957 167.053 145.744 167.28C145.53 167.493 145.257 167.6 144.924 167.6ZM152.816 179.2C151.883 179.2 151.036 178.98 150.276 178.54C149.53 178.1 148.936 177.507 148.496 176.76C148.07 176 147.856 175.16 147.856 174.24C147.856 173.307 148.07 172.467 148.496 171.72C148.936 170.973 149.53 170.387 150.276 169.96C151.036 169.52 151.883 169.3 152.816 169.3C153.55 169.3 154.23 169.44 154.856 169.72C155.483 169.987 156.023 170.38 156.476 170.9L155.276 172.1C154.983 171.753 154.623 171.493 154.196 171.32C153.783 171.133 153.323 171.04 152.816 171.04C152.216 171.04 151.683 171.18 151.216 171.46C150.75 171.727 150.383 172.1 150.116 172.58C149.85 173.06 149.716 173.613 149.716 174.24C149.716 174.867 149.85 175.42 150.116 175.9C150.383 176.38 150.75 176.76 151.216 177.04C151.683 177.32 152.216 177.46 152.816 177.46C153.323 177.46 153.783 177.373 154.196 177.2C154.623 177.013 154.99 176.747 155.296 176.4L156.476 177.6C156.036 178.107 155.496 178.5 154.856 178.78C154.23 179.06 153.55 179.2 152.816 179.2ZM158.281 179V169.5H160.081V179H158.281ZM159.181 167.6C158.848 167.6 158.575 167.493 158.361 167.28C158.148 167.053 158.041 166.773 158.041 166.44C158.041 166.12 158.148 165.853 158.361 165.64C158.575 165.413 158.848 165.3 159.181 165.3C159.515 165.3 159.788 165.413 160.001 165.64C160.215 165.853 160.321 166.12 160.321 166.44C160.321 166.773 160.215 167.053 160.001 167.28C159.788 167.493 159.515 167.6 159.181 167.6ZM169.454 179V173.46C169.454 172.74 169.227 172.147 168.774 171.68C168.321 171.213 167.734 170.98 167.014 170.98C166.534 170.98 166.107 171.087 165.734 171.3C165.361 171.513 165.067 171.807 164.854 172.18C164.641 172.553 164.534 172.98 164.534 173.46L163.794 173.04C163.794 172.32 163.954 171.68 164.274 171.12C164.594 170.56 165.041 170.12 165.614 169.8C166.187 169.467 166.834 169.3 167.554 169.3C168.274 169.3 168.907 169.48 169.454 169.84C170.014 170.2 170.454 170.673 170.774 171.26C171.094 171.833 171.254 172.447 171.254 173.1V179H169.454ZM162.734 179V169.5H164.534V179H162.734ZM177.631 183.18C176.658 183.18 175.791 183 175.031 182.64C174.284 182.28 173.684 181.773 173.231 181.12L174.391 179.94C174.778 180.433 175.238 180.807 175.771 181.06C176.304 181.327 176.938 181.46 177.671 181.46C178.644 181.46 179.411 181.2 179.971 180.68C180.544 180.173 180.831 179.487 180.831 178.62V176.26L181.151 174.12L180.831 172V169.5H182.631V178.62C182.631 179.527 182.418 180.32 181.991 181C181.578 181.68 180.991 182.213 180.231 182.6C179.484 182.987 178.618 183.18 177.631 183.18ZM177.631 178.84C176.764 178.84 175.984 178.633 175.291 178.22C174.611 177.807 174.071 177.24 173.671 176.52C173.271 175.787 173.071 174.967 173.071 174.06C173.071 173.153 173.271 172.347 173.671 171.64C174.071 170.92 174.611 170.353 175.291 169.94C175.984 169.513 176.764 169.3 177.631 169.3C178.378 169.3 179.038 169.447 179.611 169.74C180.184 170.033 180.638 170.447 180.971 170.98C181.318 171.5 181.504 172.113 181.531 172.82V175.34C181.491 176.033 181.298 176.647 180.951 177.18C180.618 177.7 180.164 178.107 179.591 178.4C179.018 178.693 178.364 178.84 177.631 178.84ZM177.991 177.14C178.578 177.14 179.091 177.013 179.531 176.76C179.984 176.507 180.331 176.153 180.571 175.7C180.811 175.233 180.931 174.693 180.931 174.08C180.931 173.467 180.804 172.933 180.551 172.48C180.311 172.013 179.971 171.653 179.531 171.4C179.091 171.133 178.571 171 177.971 171C177.371 171 176.844 171.133 176.391 171.4C175.938 171.653 175.578 172.013 175.311 172.48C175.058 172.933 174.931 173.46 174.931 174.06C174.931 174.66 175.058 175.193 175.311 175.66C175.578 176.127 175.938 176.493 176.391 176.76C176.858 177.013 177.391 177.14 177.991 177.14Z" fill="black"/>
<rect x="318" y="161.5" width="140" height="20" rx="2" fill="#1A237E"/>
<circle cx="345" cy="171.5" r="3" fill="#E9ECFF"/>
<rect x="354" y="168.5" width="80" height="6" rx="3" fill="#E9ECFF"/>
<rect x="42.5" y="208.5" width="94" height="132" rx="3.5" fill="white"/>
<rect x="42.5" y="208.5" width="94" height="132" rx="3.5" stroke="#D5D9DC"/>
<rect x="64.5" y="223" width="50" height="50" rx="25" fill="#E9ECFF"/>
<path d="M90.3335 247.167H88.6668V249.667H86.1668V251.333H88.6668V253.833H90.3335V251.333H92.8335V249.667H90.3335V247.167ZM91.1668 239.667H84.5002C83.5835 239.667 82.8335 240.417 82.8335 241.333V254.667C82.8335 255.583 83.5752 256.333 84.4918 256.333H94.5002C95.4168 256.333 96.1668 255.583 96.1668 254.667V244.667L91.1668 239.667ZM94.5002 254.667H84.5002V241.333H90.3335V245.5H94.5002V254.667Z" fill="#1A237E"/>
<path d="M55.46 293.1C54.9733 293.1 54.5167 293.01 54.09 292.83C53.67 292.643 53.3 292.387 52.98 292.06C52.6667 291.733 52.42 291.353 52.24 290.92C52.06 290.487 51.97 290.02 51.97 289.52C51.97 289.02 52.06 288.557 52.24 288.13C52.42 287.697 52.67 287.317 52.99 286.99C53.31 286.663 53.6833 286.41 54.11 286.23C54.5433 286.05 55.0133 285.96 55.52 285.96C56.0733 285.96 56.5833 286.067 57.05 286.28C57.5167 286.493 57.9067 286.8 58.22 287.2L57.57 287.85C57.35 287.53 57.06 287.287 56.7 287.12C56.34 286.947 55.9467 286.86 55.52 286.86C55.0133 286.86 54.5633 286.973 54.17 287.2C53.7833 287.427 53.48 287.74 53.26 288.14C53.0467 288.54 52.94 289 52.94 289.52C52.94 290.047 53.05 290.51 53.27 290.91C53.49 291.31 53.7867 291.623 54.16 291.85C54.5333 292.077 54.96 292.19 55.44 292.19C55.9267 292.19 56.3467 292.097 56.7 291.91C57.06 291.723 57.3367 291.45 57.53 291.09C57.7233 290.723 57.82 290.277 57.82 289.75L58.39 290.16H55.39V289.3H58.79V289.44C58.79 290.247 58.6467 290.923 58.36 291.47C58.08 292.01 57.6867 292.417 57.18 292.69C56.68 292.963 56.1067 293.1 55.46 293.1ZM62.0944 293.1C61.621 293.1 61.1944 292.993 60.8144 292.78C60.4344 292.56 60.1344 292.263 59.9144 291.89C59.6944 291.517 59.5844 291.093 59.5844 290.62C59.5844 290.153 59.691 289.733 59.9044 289.36C60.1244 288.987 60.4177 288.693 60.7844 288.48C61.1577 288.26 61.5744 288.15 62.0344 288.15C62.4744 288.15 62.861 288.25 63.1944 288.45C63.5344 288.65 63.7977 288.927 63.9844 289.28C64.1777 289.633 64.2744 290.033 64.2744 290.48C64.2744 290.547 64.271 290.62 64.2644 290.7C64.2577 290.773 64.2444 290.86 64.2244 290.96H60.2144V290.21H63.7444L63.4144 290.5C63.4144 290.18 63.3577 289.91 63.2444 289.69C63.131 289.463 62.971 289.29 62.7644 289.17C62.5577 289.043 62.3077 288.98 62.0144 288.98C61.7077 288.98 61.4377 289.047 61.2044 289.18C60.971 289.313 60.791 289.5 60.6644 289.74C60.5377 289.98 60.4744 290.263 60.4744 290.59C60.4744 290.923 60.541 291.217 60.6744 291.47C60.8077 291.717 60.9977 291.91 61.2444 292.05C61.491 292.183 61.7744 292.25 62.0944 292.25C62.361 292.25 62.6044 292.203 62.8244 292.11C63.051 292.017 63.2444 291.877 63.4044 291.69L63.9844 292.28C63.7577 292.547 63.4777 292.75 63.1444 292.89C62.8177 293.03 62.4677 293.1 62.0944 293.1ZM68.6157 293V290.23C68.6157 289.87 68.5024 289.573 68.2757 289.34C68.049 289.107 67.7557 288.99 67.3957 288.99C67.1557 288.99 66.9424 289.043 66.7557 289.15C66.569 289.257 66.4224 289.403 66.3157 289.59C66.209 289.777 66.1557 289.99 66.1557 290.23L65.7857 290.02C65.7857 289.66 65.8657 289.34 66.0257 289.06C66.1857 288.78 66.409 288.56 66.6957 288.4C66.9824 288.233 67.3057 288.15 67.6657 288.15C68.0257 288.15 68.3424 288.24 68.6157 288.42C68.8957 288.6 69.1157 288.837 69.2757 289.13C69.4357 289.417 69.5157 289.723 69.5157 290.05V293H68.6157ZM65.2557 293V288.25H66.1557V293H65.2557ZM72.9342 293.1C72.4609 293.1 72.0342 292.993 71.6542 292.78C71.2742 292.56 70.9742 292.263 70.7542 291.89C70.5342 291.517 70.4242 291.093 70.4242 290.62C70.4242 290.153 70.5309 289.733 70.7442 289.36C70.9642 288.987 71.2576 288.693 71.6242 288.48C71.9976 288.26 72.4142 288.15 72.8742 288.15C73.3142 288.15 73.7009 288.25 74.0342 288.45C74.3742 288.65 74.6376 288.927 74.8242 289.28C75.0176 289.633 75.1142 290.033 75.1142 290.48C75.1142 290.547 75.1109 290.62 75.1042 290.7C75.0976 290.773 75.0842 290.86 75.0642 290.96H71.0542V290.21H74.5842L74.2542 290.5C74.2542 290.18 74.1976 289.91 74.0842 289.69C73.9709 289.463 73.8109 289.29 73.6042 289.17C73.3976 289.043 73.1476 288.98 72.8542 288.98C72.5476 288.98 72.2776 289.047 72.0442 289.18C71.8109 289.313 71.6309 289.5 71.5042 289.74C71.3776 289.98 71.3142 290.263 71.3142 290.59C71.3142 290.923 71.3809 291.217 71.5142 291.47C71.6476 291.717 71.8376 291.91 72.0842 292.05C72.3309 292.183 72.6142 292.25 72.9342 292.25C73.2009 292.25 73.4442 292.203 73.6642 292.11C73.8909 292.017 74.0842 291.877 74.2442 291.69L74.8242 292.28C74.5976 292.547 74.3176 292.75 73.9842 292.89C73.6576 293.03 73.3076 293.1 72.9342 293.1ZM76.0955 293V288.25H76.9955V293H76.0955ZM76.9955 290.29L76.6555 290.14C76.6555 289.533 76.7955 289.05 77.0755 288.69C77.3555 288.33 77.7589 288.15 78.2855 288.15C78.5255 288.15 78.7422 288.193 78.9355 288.28C79.1289 288.36 79.3089 288.497 79.4755 288.69L78.8855 289.3C78.7855 289.193 78.6755 289.117 78.5555 289.07C78.4355 289.023 78.2955 289 78.1355 289C77.8022 289 77.5289 289.107 77.3155 289.32C77.1022 289.533 76.9955 289.857 76.9955 290.29ZM81.973 293.1C81.5396 293.1 81.1463 292.993 80.793 292.78C80.4396 292.56 80.1596 292.263 79.953 291.89C79.753 291.517 79.653 291.097 79.653 290.63C79.653 290.163 79.753 289.743 79.953 289.37C80.1596 288.997 80.4363 288.7 80.783 288.48C81.1363 288.26 81.533 288.15 81.973 288.15C82.333 288.15 82.653 288.227 82.933 288.38C83.2196 288.527 83.4496 288.733 83.623 289C83.7963 289.26 83.893 289.563 83.913 289.91V291.34C83.893 291.68 83.7963 291.983 83.623 292.25C83.4563 292.517 83.2296 292.727 82.943 292.88C82.663 293.027 82.3396 293.1 81.973 293.1ZM82.123 292.25C82.5696 292.25 82.9296 292.1 83.203 291.8C83.4763 291.493 83.613 291.103 83.613 290.63C83.613 290.303 83.5496 290.02 83.423 289.78C83.303 289.533 83.1296 289.343 82.903 289.21C82.6763 289.07 82.413 289 82.113 289C81.813 289 81.5463 289.07 81.313 289.21C81.0863 289.35 80.9063 289.543 80.773 289.79C80.6463 290.03 80.583 290.307 80.583 290.62C80.583 290.94 80.6463 291.223 80.773 291.47C80.9063 291.71 81.0896 291.9 81.323 292.04C81.5563 292.18 81.823 292.25 82.123 292.25ZM83.553 293V291.72L83.723 290.56L83.553 289.41V288.25H84.463V293H83.553ZM86.4838 293V286.26H87.3838V293H86.4838ZM85.3138 289.07V288.25H88.5538V289.07H85.3138ZM91.4889 293.1C91.0156 293.1 90.5889 292.993 90.2089 292.78C89.8289 292.56 89.5289 292.263 89.3089 291.89C89.0889 291.517 88.9789 291.093 88.9789 290.62C88.9789 290.153 89.0856 289.733 89.2989 289.36C89.5189 288.987 89.8122 288.693 90.1789 288.48C90.5522 288.26 90.9689 288.15 91.4289 288.15C91.8689 288.15 92.2556 288.25 92.5889 288.45C92.9289 288.65 93.1922 288.927 93.3789 289.28C93.5722 289.633 93.6689 290.033 93.6689 290.48C93.6689 290.547 93.6656 290.62 93.6589 290.7C93.6522 290.773 93.6389 290.86 93.6189 290.96H89.6089V290.21H93.1389L92.8089 290.5C92.8089 290.18 92.7522 289.91 92.6389 289.69C92.5256 289.463 92.3656 289.29 92.1589 289.17C91.9522 289.043 91.7022 288.98 91.4089 288.98C91.1022 288.98 90.8322 289.047 90.5989 289.18C90.3656 289.313 90.1856 289.5 90.0589 289.74C89.9322 289.98 89.8689 290.263 89.8689 290.59C89.8689 290.923 89.9356 291.217 90.0689 291.47C90.2022 291.717 90.3922 291.91 90.6389 292.05C90.8856 292.183 91.1689 292.25 91.4889 292.25C91.7556 292.25 91.9989 292.203 92.2189 292.11C92.4456 292.017 92.6389 291.877 92.7989 291.69L93.3789 292.28C93.1522 292.547 92.8722 292.75 92.5389 292.89C92.2122 293.03 91.8622 293.1 91.4889 293.1ZM96.8903 293V286.06H97.8303V293H96.8903ZM102.668 293V290.23C102.668 289.87 102.555 289.573 102.328 289.34C102.102 289.107 101.808 288.99 101.448 288.99C101.208 288.99 100.995 289.043 100.808 289.15C100.622 289.257 100.475 289.403 100.368 289.59C100.262 289.777 100.208 289.99 100.208 290.23L99.8384 290.02C99.8384 289.66 99.9184 289.34 100.078 289.06C100.238 288.78 100.462 288.56 100.748 288.4C101.035 288.233 101.358 288.15 101.718 288.15C102.078 288.15 102.395 288.24 102.668 288.42C102.948 288.6 103.168 288.837 103.328 289.13C103.488 289.417 103.568 289.723 103.568 290.05V293H102.668ZM99.3084 293V288.25H100.208V293H99.3084ZM106.417 293L104.237 288.25H105.237L106.987 292.26H106.407L108.167 288.25H109.127L106.947 293H106.417ZM111.879 293.1C111.412 293.1 110.992 292.99 110.619 292.77C110.245 292.55 109.949 292.253 109.729 291.88C109.509 291.5 109.399 291.077 109.399 290.61C109.399 290.15 109.509 289.737 109.729 289.37C109.949 288.997 110.245 288.7 110.619 288.48C110.992 288.26 111.412 288.15 111.879 288.15C112.339 288.15 112.755 288.26 113.129 288.48C113.509 288.693 113.809 288.987 114.029 289.36C114.249 289.733 114.359 290.15 114.359 290.61C114.359 291.077 114.249 291.5 114.029 291.88C113.809 292.253 113.509 292.55 113.129 292.77C112.755 292.99 112.339 293.1 111.879 293.1ZM111.879 292.23C112.179 292.23 112.445 292.16 112.679 292.02C112.912 291.88 113.095 291.69 113.229 291.45C113.362 291.203 113.429 290.923 113.429 290.61C113.429 290.303 113.359 290.03 113.219 289.79C113.085 289.55 112.902 289.363 112.669 289.23C112.442 289.09 112.179 289.02 111.879 289.02C111.579 289.02 111.312 289.09 111.079 289.23C110.845 289.363 110.662 289.55 110.529 289.79C110.395 290.03 110.329 290.303 110.329 290.61C110.329 290.923 110.395 291.203 110.529 291.45C110.662 291.69 110.845 291.88 111.079 292.02C111.312 292.16 111.579 292.23 111.879 292.23ZM115.383 293V288.25H116.283V293H115.383ZM115.833 287.3C115.666 287.3 115.53 287.247 115.423 287.14C115.316 287.027 115.263 286.887 115.263 286.72C115.263 286.56 115.316 286.427 115.423 286.32C115.53 286.207 115.666 286.15 115.833 286.15C116 286.15 116.136 286.207 116.243 286.32C116.35 286.427 116.403 286.56 116.403 286.72C116.403 286.887 116.35 287.027 116.243 287.14C116.136 287.247 116 287.3 115.833 287.3ZM119.779 293.1C119.313 293.1 118.889 292.99 118.509 292.77C118.136 292.55 117.839 292.253 117.619 291.88C117.406 291.5 117.299 291.08 117.299 290.62C117.299 290.153 117.406 289.733 117.619 289.36C117.839 288.987 118.136 288.693 118.509 288.48C118.889 288.26 119.313 288.15 119.779 288.15C120.146 288.15 120.486 288.22 120.799 288.36C121.113 288.493 121.383 288.69 121.609 288.95L121.009 289.55C120.863 289.377 120.683 289.247 120.469 289.16C120.263 289.067 120.033 289.02 119.779 289.02C119.479 289.02 119.213 289.09 118.979 289.23C118.746 289.363 118.563 289.55 118.429 289.79C118.296 290.03 118.229 290.307 118.229 290.62C118.229 290.933 118.296 291.21 118.429 291.45C118.563 291.69 118.746 291.88 118.979 292.02C119.213 292.16 119.479 292.23 119.779 292.23C120.033 292.23 120.263 292.187 120.469 292.1C120.683 292.007 120.866 291.873 121.019 291.7L121.609 292.3C121.389 292.553 121.119 292.75 120.799 292.89C120.486 293.03 120.146 293.1 119.779 293.1ZM124.604 293.1C124.131 293.1 123.704 292.993 123.324 292.78C122.944 292.56 122.644 292.263 122.424 291.89C122.204 291.517 122.094 291.093 122.094 290.62C122.094 290.153 122.201 289.733 122.414 289.36C122.634 288.987 122.927 288.693 123.294 288.48C123.667 288.26 124.084 288.15 124.544 288.15C124.984 288.15 125.371 288.25 125.704 288.45C126.044 288.65 126.307 288.927 126.494 289.28C126.687 289.633 126.784 290.033 126.784 290.48C126.784 290.547 126.781 290.62 126.774 290.7C126.767 290.773 126.754 290.86 126.734 290.96H122.724V290.21H126.254L125.924 290.5C125.924 290.18 125.867 289.91 125.754 289.69C125.641 289.463 125.481 289.29 125.274 289.17C125.067 289.043 124.817 288.98 124.524 288.98C124.217 288.98 123.947 289.047 123.714 289.18C123.481 289.313 123.301 289.5 123.174 289.74C123.047 289.98 122.984 290.263 122.984 290.59C122.984 290.923 123.051 291.217 123.184 291.47C123.317 291.717 123.507 291.91 123.754 292.05C124.001 292.183 124.284 292.25 124.604 292.25C124.871 292.25 125.114 292.203 125.334 292.11C125.561 292.017 125.754 291.877 125.914 291.69L126.494 292.28C126.267 292.547 125.987 292.75 125.654 292.89C125.327 293.03 124.977 293.1 124.604 293.1Z" fill="black"/>
<rect x="47.5" y="300" width="84" height="6" rx="3" fill="#F5F5F5"/>
<rect x="47.5" y="310" width="84" height="6" rx="3" fill="#F5F5F5"/>
<rect x="59.5" y="320" width="60" height="6" rx="3" fill="#F5F5F5"/>
<rect x="149.5" y="208.5" width="94" height="132" rx="3.5" fill="white"/>
<rect x="149.5" y="208.5" width="94" height="132" rx="3.5" stroke="#D5D9DC"/>
<rect x="171.5" y="223" width="50" height="50" rx="25" fill="#E9ECFF"/>
<path d="M196.5 243.417C199.658 243.417 202.475 245.192 203.85 248C202.475 250.808 199.658 252.583 196.5 252.583C193.342 252.583 190.525 250.808 189.15 248C190.525 245.192 193.342 243.417 196.5 243.417ZM196.5 241.75C192.333 241.75 188.775 244.342 187.333 248C188.775 251.658 192.333 254.25 196.5 254.25C200.667 254.25 204.225 251.658 205.667 248C204.225 244.342 200.667 241.75 196.5 241.75ZM196.5 245.917C197.65 245.917 198.583 246.85 198.583 248C198.583 249.15 197.65 250.083 196.5 250.083C195.35 250.083 194.417 249.15 194.417 248C194.417 246.85 195.35 245.917 196.5 245.917ZM196.5 244.25C194.433 244.25 192.75 245.933 192.75 248C192.75 250.067 194.433 251.75 196.5 251.75C198.567 251.75 200.25 250.067 200.25 248C200.25 245.933 198.567 244.25 196.5 244.25Z" fill="#1A237E"/>
<path d="M164.09 293L161.31 286.06H162.33L164.62 291.93H164.25L166.56 286.06H167.57L164.77 293H164.09ZM168.555 293V288.25H169.455V293H168.555ZM169.005 287.3C168.838 287.3 168.701 287.247 168.595 287.14C168.488 287.027 168.435 286.887 168.435 286.72C168.435 286.56 168.488 286.427 168.595 286.32C168.701 286.207 168.838 286.15 169.005 286.15C169.171 286.15 169.308 286.207 169.415 286.32C169.521 286.427 169.575 286.56 169.575 286.72C169.575 286.887 169.521 287.027 169.415 287.14C169.308 287.247 169.171 287.3 169.005 287.3ZM172.981 293.1C172.508 293.1 172.081 292.993 171.701 292.78C171.321 292.56 171.021 292.263 170.801 291.89C170.581 291.517 170.471 291.093 170.471 290.62C170.471 290.153 170.578 289.733 170.791 289.36C171.011 288.987 171.304 288.693 171.671 288.48C172.044 288.26 172.461 288.15 172.921 288.15C173.361 288.15 173.748 288.25 174.081 288.45C174.421 288.65 174.684 288.927 174.871 289.28C175.064 289.633 175.161 290.033 175.161 290.48C175.161 290.547 175.158 290.62 175.151 290.7C175.144 290.773 175.131 290.86 175.111 290.96H171.101V290.21H174.631L174.301 290.5C174.301 290.18 174.244 289.91 174.131 289.69C174.018 289.463 173.858 289.29 173.651 289.17C173.444 289.043 173.194 288.98 172.901 288.98C172.594 288.98 172.324 289.047 172.091 289.18C171.858 289.313 171.678 289.5 171.551 289.74C171.424 289.98 171.361 290.263 171.361 290.59C171.361 290.923 171.428 291.217 171.561 291.47C171.694 291.717 171.884 291.91 172.131 292.05C172.378 292.183 172.661 292.25 172.981 292.25C173.248 292.25 173.491 292.203 173.711 292.11C173.938 292.017 174.131 291.877 174.291 291.69L174.871 292.28C174.644 292.547 174.364 292.75 174.031 292.89C173.704 293.03 173.354 293.1 172.981 293.1ZM177.444 293L175.564 288.25H176.504L177.864 291.95H177.564L178.914 288.25H179.434L180.784 291.95H180.484L181.844 288.25H182.784L180.914 293H180.384L179.014 289.41H179.344L177.964 293H177.444ZM183.584 290.88V290.03H186.874V290.88H183.584ZM187.443 293L190.283 286.06H190.963L193.793 293H192.773L190.443 287.13H190.793L188.443 293H187.443ZM188.793 291.43V290.61H192.443V291.43H188.793ZM194.756 293V285.86H195.656V293H194.756ZM196.972 293V285.86H197.873V293H196.972ZM201.429 293V286.06H202.369V293H201.429ZM207.208 293V290.23C207.208 289.87 207.094 289.573 206.868 289.34C206.641 289.107 206.348 288.99 205.988 288.99C205.748 288.99 205.534 289.043 205.348 289.15C205.161 289.257 205.014 289.403 204.908 289.59C204.801 289.777 204.748 289.99 204.748 290.23L204.378 290.02C204.378 289.66 204.458 289.34 204.618 289.06C204.778 288.78 205.001 288.56 205.288 288.4C205.574 288.233 205.898 288.15 206.258 288.15C206.618 288.15 206.934 288.24 207.208 288.42C207.488 288.6 207.708 288.837 207.868 289.13C208.028 289.417 208.108 289.723 208.108 290.05V293H207.208ZM203.847 293V288.25H204.748V293H203.847ZM210.956 293L208.776 288.25H209.776L211.526 292.26H210.946L212.706 288.25H213.666L211.486 293H210.956ZM216.418 293.1C215.951 293.1 215.531 292.99 215.158 292.77C214.785 292.55 214.488 292.253 214.268 291.88C214.048 291.5 213.938 291.077 213.938 290.61C213.938 290.15 214.048 289.737 214.268 289.37C214.488 288.997 214.785 288.7 215.158 288.48C215.531 288.26 215.951 288.15 216.418 288.15C216.878 288.15 217.295 288.26 217.668 288.48C218.048 288.693 218.348 288.987 218.568 289.36C218.788 289.733 218.898 290.15 218.898 290.61C218.898 291.077 218.788 291.5 218.568 291.88C218.348 292.253 218.048 292.55 217.668 292.77C217.295 292.99 216.878 293.1 216.418 293.1ZM216.418 292.23C216.718 292.23 216.985 292.16 217.218 292.02C217.451 291.88 217.635 291.69 217.768 291.45C217.901 291.203 217.968 290.923 217.968 290.61C217.968 290.303 217.898 290.03 217.758 289.79C217.625 289.55 217.441 289.363 217.208 289.23C216.981 289.09 216.718 289.02 216.418 289.02C216.118 289.02 215.851 289.09 215.618 289.23C215.385 289.363 215.201 289.55 215.068 289.79C214.935 290.03 214.868 290.303 214.868 290.61C214.868 290.923 214.935 291.203 215.068 291.45C215.201 291.69 215.385 291.88 215.618 292.02C215.851 292.16 216.118 292.23 216.418 292.23ZM219.922 293V288.25H220.822V293H219.922ZM220.372 287.3C220.205 287.3 220.069 287.247 219.962 287.14C219.855 287.027 219.802 286.887 219.802 286.72C219.802 286.56 219.855 286.427 219.962 286.32C220.069 286.207 220.205 286.15 220.372 286.15C220.539 286.15 220.675 286.207 220.782 286.32C220.889 286.427 220.942 286.56 220.942 286.72C220.942 286.887 220.889 287.027 220.782 287.14C220.675 287.247 220.539 287.3 220.372 287.3ZM224.318 293.1C223.852 293.1 223.428 292.99 223.048 292.77C222.675 292.55 222.378 292.253 222.158 291.88C221.945 291.5 221.838 291.08 221.838 290.62C221.838 290.153 221.945 289.733 222.158 289.36C222.378 288.987 222.675 288.693 223.048 288.48C223.428 288.26 223.852 288.15 224.318 288.15C224.685 288.15 225.025 288.22 225.338 288.36C225.652 288.493 225.922 288.69 226.148 288.95L225.548 289.55C225.402 289.377 225.222 289.247 225.008 289.16C224.802 289.067 224.572 289.02 224.318 289.02C224.018 289.02 223.752 289.09 223.518 289.23C223.285 289.363 223.102 289.55 222.968 289.79C222.835 290.03 222.768 290.307 222.768 290.62C222.768 290.933 222.835 291.21 222.968 291.45C223.102 291.69 223.285 291.88 223.518 292.02C223.752 292.16 224.018 292.23 224.318 292.23C224.572 292.23 224.802 292.187 225.008 292.1C225.222 292.007 225.405 291.873 225.558 291.7L226.148 292.3C225.928 292.553 225.658 292.75 225.338 292.89C225.025 293.03 224.685 293.1 224.318 293.1ZM229.143 293.1C228.67 293.1 228.243 292.993 227.863 292.78C227.483 292.56 227.183 292.263 226.963 291.89C226.743 291.517 226.633 291.093 226.633 290.62C226.633 290.153 226.74 289.733 226.953 289.36C227.173 288.987 227.467 288.693 227.833 288.48C228.207 288.26 228.623 288.15 229.083 288.15C229.523 288.15 229.91 288.25 230.243 288.45C230.583 288.65 230.847 288.927 231.033 289.28C231.227 289.633 231.323 290.033 231.323 290.48C231.323 290.547 231.32 290.62 231.313 290.7C231.307 290.773 231.293 290.86 231.273 290.96H227.263V290.21H230.793L230.463 290.5C230.463 290.18 230.407 289.91 230.293 289.69C230.18 289.463 230.02 289.29 229.813 289.17C229.607 289.043 229.357 288.98 229.063 288.98C228.757 288.98 228.487 289.047 228.253 289.18C228.02 289.313 227.84 289.5 227.713 289.74C227.587 289.98 227.523 290.263 227.523 290.59C227.523 290.923 227.59 291.217 227.723 291.47C227.857 291.717 228.047 291.91 228.293 292.05C228.54 292.183 228.823 292.25 229.143 292.25C229.41 292.25 229.653 292.203 229.873 292.11C230.1 292.017 230.293 291.877 230.453 291.69L231.033 292.28C230.807 292.547 230.527 292.75 230.193 292.89C229.867 293.03 229.517 293.1 229.143 293.1Z" fill="black"/>
<rect x="154.5" y="300" width="84" height="6" rx="3" fill="#F5F5F5"/>
<rect x="154.5" y="310" width="84" height="6" rx="3" fill="#F5F5F5"/>
<rect x="166.5" y="320" width="60" height="6" rx="3" fill="#F5F5F5"/>
<rect x="256.5" y="208.5" width="94" height="132" rx="3.5" fill="white"/>
<rect x="256.5" y="208.5" width="94" height="132" rx="3.5" stroke="#D5D9DC"/>
<rect x="278.5" y="223" width="50" height="50" rx="25" fill="#E9ECFF"/>
<path d="M311.417 242.583V244.25H308.917V246.75H307.25V244.25H304.75V242.583H307.25V240.083H308.917V242.583H311.417ZM308.917 254.25H297.25V242.583H302.25V240.917H297.25C296.333 240.917 295.583 241.667 295.583 242.583V254.25C295.583 255.167 296.333 255.917 297.25 255.917H308.917C309.833 255.917 310.583 255.167 310.583 254.25V249.25H308.917V254.25ZM305.583 249.25V252.583H307.25V249.25H305.583ZM302.25 252.583H303.917V245.917H302.25V252.583ZM300.583 252.583V247.583H298.917V252.583H300.583Z" fill="#1A237E"/>
<path d="M271.82 293V286.06H272.76V293H271.82ZM274.238 293V288.25H275.138V293H274.238ZM277.448 293V290.13C277.448 289.777 277.338 289.5 277.118 289.3C276.905 289.093 276.635 288.99 276.308 288.99C276.088 288.99 275.891 289.037 275.718 289.13C275.545 289.223 275.405 289.353 275.298 289.52C275.191 289.687 275.138 289.887 275.138 290.12L274.768 289.94C274.768 289.58 274.845 289.267 274.998 289C275.158 288.733 275.375 288.527 275.648 288.38C275.921 288.227 276.228 288.15 276.568 288.15C276.901 288.15 277.201 288.223 277.468 288.37C277.741 288.517 277.955 288.723 278.108 288.99C278.268 289.257 278.348 289.573 278.348 289.94V293H277.448ZM280.658 293V290.13C280.658 289.777 280.548 289.5 280.328 289.3C280.115 289.093 279.848 288.99 279.528 288.99C279.308 288.99 279.108 289.037 278.928 289.13C278.755 289.223 278.615 289.353 278.508 289.52C278.401 289.687 278.348 289.887 278.348 290.12L277.838 289.94C277.858 289.573 277.955 289.26 278.128 289C278.308 288.733 278.538 288.527 278.818 288.38C279.098 288.227 279.405 288.15 279.738 288.15C280.085 288.15 280.395 288.223 280.668 288.37C280.941 288.517 281.158 288.723 281.318 288.99C281.485 289.257 281.568 289.577 281.568 289.95V293H280.658ZM285.293 293.1C284.933 293.1 284.606 293.027 284.313 292.88C284.026 292.727 283.796 292.517 283.623 292.25C283.449 291.983 283.353 291.68 283.333 291.34V289.91C283.353 289.563 283.449 289.26 283.623 289C283.803 288.733 284.036 288.527 284.323 288.38C284.616 288.227 284.939 288.15 285.293 288.15C285.726 288.15 286.116 288.26 286.463 288.48C286.816 288.7 287.093 288.997 287.293 289.37C287.493 289.743 287.593 290.163 287.593 290.63C287.593 291.097 287.493 291.517 287.293 291.89C287.093 292.263 286.816 292.56 286.463 292.78C286.116 292.993 285.726 293.1 285.293 293.1ZM282.793 294.99V288.25H283.693V289.5L283.523 290.65L283.693 291.81V294.99H282.793ZM285.143 292.25C285.443 292.25 285.706 292.18 285.933 292.04C286.159 291.9 286.339 291.71 286.473 291.47C286.606 291.223 286.673 290.94 286.673 290.62C286.673 290.307 286.606 290.027 286.473 289.78C286.339 289.533 286.159 289.343 285.933 289.21C285.706 289.07 285.446 289 285.153 289C284.853 289 284.589 289.07 284.363 289.21C284.136 289.343 283.959 289.533 283.833 289.78C283.706 290.027 283.643 290.31 283.643 290.63C283.643 290.943 283.703 291.223 283.823 291.47C283.949 291.71 284.126 291.9 284.353 292.04C284.586 292.18 284.849 292.25 285.143 292.25ZM290.783 293.1C290.316 293.1 289.896 292.99 289.523 292.77C289.15 292.55 288.853 292.253 288.633 291.88C288.413 291.5 288.303 291.077 288.303 290.61C288.303 290.15 288.413 289.737 288.633 289.37C288.853 288.997 289.15 288.7 289.523 288.48C289.896 288.26 290.316 288.15 290.783 288.15C291.243 288.15 291.66 288.26 292.033 288.48C292.413 288.693 292.713 288.987 292.933 289.36C293.153 289.733 293.263 290.15 293.263 290.61C293.263 291.077 293.153 291.5 292.933 291.88C292.713 292.253 292.413 292.55 292.033 292.77C291.66 292.99 291.243 293.1 290.783 293.1ZM290.783 292.23C291.083 292.23 291.35 292.16 291.583 292.02C291.816 291.88 292 291.69 292.133 291.45C292.266 291.203 292.333 290.923 292.333 290.61C292.333 290.303 292.263 290.03 292.123 289.79C291.99 289.55 291.806 289.363 291.573 289.23C291.346 289.09 291.083 289.02 290.783 289.02C290.483 289.02 290.216 289.09 289.983 289.23C289.75 289.363 289.566 289.55 289.433 289.79C289.3 290.03 289.233 290.303 289.233 290.61C289.233 290.923 289.3 291.203 289.433 291.45C289.566 291.69 289.75 291.88 289.983 292.02C290.216 292.16 290.483 292.23 290.783 292.23ZM294.277 293V288.25H295.177V293H294.277ZM295.177 290.29L294.837 290.14C294.837 289.533 294.977 289.05 295.257 288.69C295.537 288.33 295.941 288.15 296.467 288.15C296.707 288.15 296.924 288.193 297.117 288.28C297.311 288.36 297.491 288.497 297.657 288.69L297.067 289.3C296.967 289.193 296.857 289.117 296.737 289.07C296.617 289.023 296.477 289 296.317 289C295.984 289 295.711 289.107 295.497 289.32C295.284 289.533 295.177 289.857 295.177 290.29ZM299.001 293V286.26H299.901V293H299.001ZM297.831 289.07V288.25H301.071V289.07H297.831ZM304.193 293V286.06H305.133V293H304.193ZM308.673 293V286.06H309.613V293H308.673ZM304.833 289.84V288.98H308.903V289.84H304.833ZM311.104 293V288.25H312.004V293H311.104ZM311.554 287.3C311.387 287.3 311.25 287.247 311.144 287.14C311.037 287.027 310.984 286.887 310.984 286.72C310.984 286.56 311.037 286.427 311.144 286.32C311.25 286.207 311.387 286.15 311.554 286.15C311.72 286.15 311.857 286.207 311.964 286.32C312.07 286.427 312.124 286.56 312.124 286.72C312.124 286.887 312.07 287.027 311.964 287.14C311.857 287.247 311.72 287.3 311.554 287.3ZM314.84 293.1C314.573 293.1 314.32 293.067 314.08 293C313.847 292.927 313.63 292.827 313.43 292.7C313.23 292.567 313.057 292.41 312.91 292.23L313.49 291.65C313.663 291.863 313.863 292.023 314.09 292.13C314.317 292.23 314.57 292.28 314.85 292.28C315.13 292.28 315.347 292.233 315.5 292.14C315.653 292.04 315.73 291.903 315.73 291.73C315.73 291.557 315.667 291.423 315.54 291.33C315.42 291.23 315.263 291.15 315.07 291.09C314.877 291.023 314.67 290.96 314.45 290.9C314.237 290.833 314.033 290.75 313.84 290.65C313.647 290.55 313.487 290.413 313.36 290.24C313.24 290.067 313.18 289.837 313.18 289.55C313.18 289.263 313.25 289.017 313.39 288.81C313.53 288.597 313.723 288.433 313.97 288.32C314.223 288.207 314.527 288.15 314.88 288.15C315.253 288.15 315.583 288.217 315.87 288.35C316.163 288.477 316.403 288.67 316.59 288.93L316.01 289.51C315.877 289.337 315.71 289.203 315.51 289.11C315.317 289.017 315.097 288.97 314.85 288.97C314.59 288.97 314.39 289.017 314.25 289.11C314.117 289.197 314.05 289.32 314.05 289.48C314.05 289.64 314.11 289.763 314.23 289.85C314.35 289.937 314.507 290.01 314.7 290.07C314.9 290.13 315.107 290.193 315.32 290.26C315.533 290.32 315.737 290.403 315.93 290.51C316.123 290.617 316.28 290.76 316.4 290.94C316.527 291.12 316.59 291.357 316.59 291.65C316.59 292.097 316.43 292.45 316.11 292.71C315.797 292.97 315.373 293.1 314.84 293.1ZM318.328 293V286.26H319.228V293H318.328ZM317.158 289.07V288.25H320.398V289.07H317.158ZM323.303 293.1C322.836 293.1 322.416 292.99 322.043 292.77C321.669 292.55 321.373 292.253 321.153 291.88C320.933 291.5 320.823 291.077 320.823 290.61C320.823 290.15 320.933 289.737 321.153 289.37C321.373 288.997 321.669 288.7 322.043 288.48C322.416 288.26 322.836 288.15 323.303 288.15C323.763 288.15 324.179 288.26 324.553 288.48C324.933 288.693 325.233 288.987 325.453 289.36C325.673 289.733 325.783 290.15 325.783 290.61C325.783 291.077 325.673 291.5 325.453 291.88C325.233 292.253 324.933 292.55 324.553 292.77C324.179 292.99 323.763 293.1 323.303 293.1ZM323.303 292.23C323.603 292.23 323.869 292.16 324.103 292.02C324.336 291.88 324.519 291.69 324.653 291.45C324.786 291.203 324.853 290.923 324.853 290.61C324.853 290.303 324.783 290.03 324.643 289.79C324.509 289.55 324.326 289.363 324.093 289.23C323.866 289.09 323.603 289.02 323.303 289.02C323.003 289.02 322.736 289.09 322.503 289.23C322.269 289.363 322.086 289.55 321.953 289.79C321.819 290.03 321.753 290.303 321.753 290.61C321.753 290.923 321.819 291.203 321.953 291.45C322.086 291.69 322.269 291.88 322.503 292.02C322.736 292.16 323.003 292.23 323.303 292.23ZM326.797 293V288.25H327.697V293H326.797ZM327.697 290.29L327.357 290.14C327.357 289.533 327.497 289.05 327.777 288.69C328.057 288.33 328.46 288.15 328.987 288.15C329.227 288.15 329.443 288.193 329.637 288.28C329.83 288.36 330.01 288.497 330.177 288.69L329.587 289.3C329.487 289.193 329.377 289.117 329.257 289.07C329.137 289.023 328.997 289 328.837 289C328.503 289 328.23 289.107 328.017 289.32C327.803 289.533 327.697 289.857 327.697 290.29ZM332.283 293.04L330.223 288.25H331.223L332.753 292H332.433L334.043 288.25H335.043L332.823 293.04H332.283ZM330.923 294.99L332.323 292.12L332.823 293.04L331.923 294.99H330.923Z" fill="black"/>
<rect x="261.5" y="300" width="84" height="6" rx="3" fill="#F5F5F5"/>
<rect x="261.5" y="310" width="84" height="6" rx="3" fill="#F5F5F5"/>
<rect x="273.5" y="320" width="60" height="6" rx="3" fill="#F5F5F5"/>
<rect x="363.5" y="208.5" width="94" height="132" rx="3.5" fill="white"/>
<rect x="363.5" y="208.5" width="94" height="132" rx="3.5" stroke="#D5D9DC"/>
<rect x="385.5" y="223" width="50" height="50" rx="25" fill="#E9ECFF"/>
<path d="M410.433 245.917H412.1V243.417H414.6V241.75H412.1V239.25H410.433V241.75H407.933V243.417H410.433V245.917ZM407.1 253.417C406.183 253.417 405.442 254.167 405.442 255.083C405.442 256 406.183 256.75 407.1 256.75C408.017 256.75 408.767 256 408.767 255.083C408.767 254.167 408.017 253.417 407.1 253.417ZM415.433 253.417C414.517 253.417 413.775 254.167 413.775 255.083C413.775 256 414.517 256.75 415.433 256.75C416.35 256.75 417.1 256 417.1 255.083C417.1 254.167 416.35 253.417 415.433 253.417ZM408.017 249.25H414.225C414.85 249.25 415.4 248.908 415.683 248.392L418.9 242.55L417.45 241.75L414.225 247.583H408.375L404.825 240.083H402.1V241.75H403.767L406.767 248.075L405.642 250.108C405.033 251.225 405.833 252.583 407.1 252.583H417.1V250.917H407.1L408.017 249.25Z" fill="#1A237E"/>
<path d="M374.45 290.3V289.48H376.34C376.6 289.48 376.83 289.427 377.03 289.32C377.237 289.213 377.397 289.063 377.51 288.87C377.63 288.677 377.69 288.447 377.69 288.18C377.69 287.913 377.63 287.683 377.51 287.49C377.397 287.297 377.237 287.147 377.03 287.04C376.83 286.933 376.6 286.88 376.34 286.88H374.45V286.06H376.4C376.827 286.06 377.207 286.147 377.54 286.32C377.88 286.493 378.147 286.74 378.34 287.06C378.54 287.373 378.64 287.747 378.64 288.18C378.64 288.607 378.54 288.98 378.34 289.3C378.147 289.613 377.88 289.86 377.54 290.04C377.207 290.213 376.827 290.3 376.4 290.3H374.45ZM373.82 293V286.06H374.76V293H373.82ZM381.634 293.1C381.248 293.1 380.898 293.013 380.584 292.84C380.278 292.66 380.038 292.413 379.864 292.1C379.691 291.787 379.604 291.423 379.604 291.01V288.25H380.504V290.97C380.504 291.23 380.548 291.457 380.634 291.65C380.728 291.837 380.861 291.98 381.034 292.08C381.208 292.18 381.411 292.23 381.644 292.23C381.998 292.23 382.274 292.12 382.474 291.9C382.674 291.673 382.774 291.363 382.774 290.97V288.25H383.674V291.01C383.674 291.423 383.588 291.787 383.414 292.1C383.241 292.413 383.001 292.66 382.694 292.84C382.394 293.013 382.041 293.1 381.634 293.1ZM384.881 293V288.25H385.781V293H384.881ZM385.781 290.29L385.441 290.14C385.441 289.533 385.581 289.05 385.861 288.69C386.141 288.33 386.544 288.15 387.071 288.15C387.311 288.15 387.527 288.193 387.721 288.28C387.914 288.36 388.094 288.497 388.261 288.69L387.671 289.3C387.571 289.193 387.461 289.117 387.341 289.07C387.221 289.023 387.081 289 386.921 289C386.587 289 386.314 289.107 386.101 289.32C385.887 289.533 385.781 289.857 385.781 290.29ZM390.908 293.1C390.441 293.1 390.018 292.99 389.638 292.77C389.265 292.55 388.968 292.253 388.748 291.88C388.535 291.5 388.428 291.08 388.428 290.62C388.428 290.153 388.535 289.733 388.748 289.36C388.968 288.987 389.265 288.693 389.638 288.48C390.018 288.26 390.441 288.15 390.908 288.15C391.275 288.15 391.615 288.22 391.928 288.36C392.241 288.493 392.511 288.69 392.738 288.95L392.138 289.55C391.991 289.377 391.811 289.247 391.598 289.16C391.391 289.067 391.161 289.02 390.908 289.02C390.608 289.02 390.341 289.09 390.108 289.23C389.875 289.363 389.691 289.55 389.558 289.79C389.425 290.03 389.358 290.307 389.358 290.62C389.358 290.933 389.425 291.21 389.558 291.45C389.691 291.69 389.875 291.88 390.108 292.02C390.341 292.16 390.608 292.23 390.908 292.23C391.161 292.23 391.391 292.187 391.598 292.1C391.811 292.007 391.995 291.873 392.148 291.7L392.738 292.3C392.518 292.553 392.248 292.75 391.928 292.89C391.615 293.03 391.275 293.1 390.908 293.1ZM396.991 293V290.23C396.991 289.87 396.877 289.573 396.651 289.34C396.424 289.107 396.131 288.99 395.771 288.99C395.531 288.99 395.317 289.043 395.131 289.15C394.944 289.257 394.797 289.403 394.691 289.59C394.584 289.777 394.531 289.99 394.531 290.23L394.161 290.02C394.161 289.66 394.241 289.34 394.401 289.06C394.561 288.78 394.784 288.56 395.071 288.4C395.357 288.233 395.681 288.15 396.041 288.15C396.401 288.15 396.717 288.23 396.991 288.39C397.271 288.55 397.491 288.773 397.651 289.06C397.811 289.347 397.891 289.677 397.891 290.05V293H396.991ZM393.631 293V285.86H394.531V293H393.631ZM401.129 293.1C400.696 293.1 400.303 292.993 399.949 292.78C399.596 292.56 399.316 292.263 399.109 291.89C398.909 291.517 398.809 291.097 398.809 290.63C398.809 290.163 398.909 289.743 399.109 289.37C399.316 288.997 399.593 288.7 399.939 288.48C400.293 288.26 400.689 288.15 401.129 288.15C401.489 288.15 401.809 288.227 402.089 288.38C402.376 288.527 402.606 288.733 402.779 289C402.953 289.26 403.049 289.563 403.069 289.91V291.34C403.049 291.68 402.953 291.983 402.779 292.25C402.613 292.517 402.386 292.727 402.099 292.88C401.819 293.027 401.496 293.1 401.129 293.1ZM401.279 292.25C401.726 292.25 402.086 292.1 402.359 291.8C402.633 291.493 402.769 291.103 402.769 290.63C402.769 290.303 402.706 290.02 402.579 289.78C402.459 289.533 402.286 289.343 402.059 289.21C401.833 289.07 401.569 289 401.269 289C400.969 289 400.703 289.07 400.469 289.21C400.243 289.35 400.063 289.543 399.929 289.79C399.803 290.03 399.739 290.307 399.739 290.62C399.739 290.94 399.803 291.223 399.929 291.47C400.063 291.71 400.246 291.9 400.479 292.04C400.713 292.18 400.979 292.25 401.279 292.25ZM402.709 293V291.72L402.879 290.56L402.709 289.41V288.25H403.619V293H402.709ZM406.44 293.1C406.173 293.1 405.92 293.067 405.68 293C405.446 292.927 405.23 292.827 405.03 292.7C404.83 292.567 404.656 292.41 404.51 292.23L405.09 291.65C405.263 291.863 405.463 292.023 405.69 292.13C405.916 292.23 406.17 292.28 406.45 292.28C406.73 292.28 406.946 292.233 407.1 292.14C407.253 292.04 407.33 291.903 407.33 291.73C407.33 291.557 407.266 291.423 407.14 291.33C407.02 291.23 406.863 291.15 406.67 291.09C406.476 291.023 406.27 290.96 406.05 290.9C405.836 290.833 405.633 290.75 405.44 290.65C405.246 290.55 405.086 290.413 404.96 290.24C404.84 290.067 404.78 289.837 404.78 289.55C404.78 289.263 404.85 289.017 404.99 288.81C405.13 288.597 405.323 288.433 405.57 288.32C405.823 288.207 406.126 288.15 406.48 288.15C406.853 288.15 407.183 288.217 407.47 288.35C407.763 288.477 408.003 288.67 408.19 288.93L407.61 289.51C407.476 289.337 407.31 289.203 407.11 289.11C406.916 289.017 406.696 288.97 406.45 288.97C406.19 288.97 405.99 289.017 405.85 289.11C405.716 289.197 405.65 289.32 405.65 289.48C405.65 289.64 405.71 289.763 405.83 289.85C405.95 289.937 406.106 290.01 406.3 290.07C406.5 290.13 406.706 290.193 406.92 290.26C407.133 290.32 407.336 290.403 407.53 290.51C407.723 290.617 407.88 290.76 408 290.94C408.126 291.12 408.19 291.357 408.19 291.65C408.19 292.097 408.03 292.45 407.71 292.71C407.396 292.97 406.973 293.1 406.44 293.1ZM411.397 293.1C410.924 293.1 410.497 292.993 410.117 292.78C409.737 292.56 409.437 292.263 409.217 291.89C408.997 291.517 408.887 291.093 408.887 290.62C408.887 290.153 408.994 289.733 409.207 289.36C409.427 288.987 409.72 288.693 410.087 288.48C410.46 288.26 410.877 288.15 411.337 288.15C411.777 288.15 412.164 288.25 412.497 288.45C412.837 288.65 413.1 288.927 413.287 289.28C413.48 289.633 413.577 290.033 413.577 290.48C413.577 290.547 413.574 290.62 413.567 290.7C413.56 290.773 413.547 290.86 413.527 290.96H409.517V290.21H413.047L412.717 290.5C412.717 290.18 412.66 289.91 412.547 289.69C412.434 289.463 412.274 289.29 412.067 289.17C411.86 289.043 411.61 288.98 411.317 288.98C411.01 288.98 410.74 289.047 410.507 289.18C410.274 289.313 410.094 289.5 409.967 289.74C409.84 289.98 409.777 290.263 409.777 290.59C409.777 290.923 409.844 291.217 409.977 291.47C410.11 291.717 410.3 291.91 410.547 292.05C410.794 292.183 411.077 292.25 411.397 292.25C411.664 292.25 411.907 292.203 412.127 292.11C412.354 292.017 412.547 291.877 412.707 291.69L413.287 292.28C413.06 292.547 412.78 292.75 412.447 292.89C412.12 293.03 411.77 293.1 411.397 293.1ZM416.799 293V286.06H417.739V293H416.799ZM422.577 293V290.23C422.577 289.87 422.463 289.573 422.237 289.34C422.01 289.107 421.717 288.99 421.357 288.99C421.117 288.99 420.903 289.043 420.717 289.15C420.53 289.257 420.383 289.403 420.277 289.59C420.17 289.777 420.117 289.99 420.117 290.23L419.747 290.02C419.747 289.66 419.827 289.34 419.987 289.06C420.147 288.78 420.37 288.56 420.657 288.4C420.943 288.233 421.267 288.15 421.627 288.15C421.987 288.15 422.303 288.24 422.577 288.42C422.857 288.6 423.077 288.837 423.237 289.13C423.397 289.417 423.477 289.723 423.477 290.05V293H422.577ZM419.217 293V288.25H420.117V293H419.217ZM426.325 293L424.145 288.25H425.145L426.895 292.26H426.315L428.075 288.25H429.035L426.855 293H426.325ZM431.787 293.1C431.32 293.1 430.9 292.99 430.527 292.77C430.154 292.55 429.857 292.253 429.637 291.88C429.417 291.5 429.307 291.077 429.307 290.61C429.307 290.15 429.417 289.737 429.637 289.37C429.857 288.997 430.154 288.7 430.527 288.48C430.9 288.26 431.32 288.15 431.787 288.15C432.247 288.15 432.664 288.26 433.037 288.48C433.417 288.693 433.717 288.987 433.937 289.36C434.157 289.733 434.267 290.15 434.267 290.61C434.267 291.077 434.157 291.5 433.937 291.88C433.717 292.253 433.417 292.55 433.037 292.77C432.664 292.99 432.247 293.1 431.787 293.1ZM431.787 292.23C432.087 292.23 432.354 292.16 432.587 292.02C432.82 291.88 433.004 291.69 433.137 291.45C433.27 291.203 433.337 290.923 433.337 290.61C433.337 290.303 433.267 290.03 433.127 289.79C432.994 289.55 432.81 289.363 432.577 289.23C432.35 289.09 432.087 289.02 431.787 289.02C431.487 289.02 431.22 289.09 430.987 289.23C430.754 289.363 430.57 289.55 430.437 289.79C430.304 290.03 430.237 290.303 430.237 290.61C430.237 290.923 430.304 291.203 430.437 291.45C430.57 291.69 430.754 291.88 430.987 292.02C431.22 292.16 431.487 292.23 431.787 292.23ZM435.291 293V288.25H436.191V293H435.291ZM435.741 287.3C435.574 287.3 435.438 287.247 435.331 287.14C435.224 287.027 435.171 286.887 435.171 286.72C435.171 286.56 435.224 286.427 435.331 286.32C435.438 286.207 435.574 286.15 435.741 286.15C435.908 286.15 436.044 286.207 436.151 286.32C436.258 286.427 436.311 286.56 436.311 286.72C436.311 286.887 436.258 287.027 436.151 287.14C436.044 287.247 435.908 287.3 435.741 287.3ZM439.687 293.1C439.221 293.1 438.797 292.99 438.417 292.77C438.044 292.55 437.747 292.253 437.527 291.88C437.314 291.5 437.207 291.08 437.207 290.62C437.207 290.153 437.314 289.733 437.527 289.36C437.747 288.987 438.044 288.693 438.417 288.48C438.797 288.26 439.221 288.15 439.687 288.15C440.054 288.15 440.394 288.22 440.707 288.36C441.021 288.493 441.291 288.69 441.517 288.95L440.917 289.55C440.771 289.377 440.591 289.247 440.377 289.16C440.171 289.067 439.941 289.02 439.687 289.02C439.387 289.02 439.121 289.09 438.887 289.23C438.654 289.363 438.471 289.55 438.337 289.79C438.204 290.03 438.137 290.307 438.137 290.62C438.137 290.933 438.204 291.21 438.337 291.45C438.471 291.69 438.654 291.88 438.887 292.02C439.121 292.16 439.387 292.23 439.687 292.23C439.941 292.23 440.171 292.187 440.377 292.1C440.591 292.007 440.774 291.873 440.927 291.7L441.517 292.3C441.297 292.553 441.027 292.75 440.707 292.89C440.394 293.03 440.054 293.1 439.687 293.1ZM444.512 293.1C444.039 293.1 443.612 292.993 443.232 292.78C442.852 292.56 442.552 292.263 442.332 291.89C442.112 291.517 442.002 291.093 442.002 290.62C442.002 290.153 442.109 289.733 442.322 289.36C442.542 288.987 442.836 288.693 443.202 288.48C443.576 288.26 443.992 288.15 444.452 288.15C444.892 288.15 445.279 288.25 445.612 288.45C445.952 288.65 446.216 288.927 446.402 289.28C446.596 289.633 446.692 290.033 446.692 290.48C446.692 290.547 446.689 290.62 446.682 290.7C446.676 290.773 446.662 290.86 446.642 290.96H442.632V290.21H446.162L445.832 290.5C445.832 290.18 445.776 289.91 445.662 289.69C445.549 289.463 445.389 289.29 445.182 289.17C444.976 289.043 444.726 288.98 444.432 288.98C444.126 288.98 443.856 289.047 443.622 289.18C443.389 289.313 443.209 289.5 443.082 289.74C442.956 289.98 442.892 290.263 442.892 290.59C442.892 290.923 442.959 291.217 443.092 291.47C443.226 291.717 443.416 291.91 443.662 292.05C443.909 292.183 444.192 292.25 444.512 292.25C444.779 292.25 445.022 292.203 445.242 292.11C445.469 292.017 445.662 291.877 445.822 291.69L446.402 292.28C446.176 292.547 445.896 292.75 445.562 292.89C445.236 293.03 444.886 293.1 444.512 293.1Z" fill="black"/>
<rect x="368.5" y="300" width="84" height="6" rx="3" fill="#F5F5F5"/>
<rect x="368.5" y="310" width="84" height="6" rx="3" fill="#F5F5F5"/>
<rect x="380.5" y="320" width="60" height="6" rx="3" fill="#F5F5F5"/>
<path d="M352.311 323H445.042C449.08 323 452.353 326.273 452.353 330.311V465.87C452.353 469.908 449.08 473.181 445.042 473.181H352.311C348.273 473.181 345 469.908 345 465.87V330.311C345 326.273 348.273 323 352.311 323Z" fill="#010A42"/>
<path d="M443.699 335.352H354.667V358.263H443.699V335.352Z" fill="#3CB4C5"/>
<path d="M377.015 373.052H357.865C356.098 373.052 354.667 371.62 354.667 369.853V367.997C354.667 366.23 356.098 364.798 357.865 364.798H377.015C378.781 364.798 380.213 366.23 380.213 367.997V369.853C380.213 371.62 378.781 373.052 377.015 373.052Z" fill="#E87B50"/>
<path d="M408.758 373.052H389.608C387.842 373.052 386.41 371.62 386.41 369.853V367.997C386.41 366.23 387.842 364.798 389.608 364.798H408.758C410.524 364.798 411.956 366.23 411.956 367.997V369.853C411.956 371.62 410.524 373.052 408.758 373.052Z" fill="#E87B50"/>
<path d="M440.501 373.052H421.351C419.584 373.052 418.152 371.62 418.152 369.853V367.997C418.152 366.23 419.584 364.798 421.351 364.798H440.501C442.267 364.798 443.699 366.23 443.699 367.997V369.853C443.699 371.62 442.267 373.052 440.501 373.052Z" fill="#E87B50"/>
<path d="M369.96 398.09H359.143C356.671 398.09 354.667 396.086 354.667 393.613V384.064C354.667 381.592 356.671 379.587 359.143 379.587H369.96C372.432 379.587 374.437 381.591 374.437 384.064V393.613C374.437 396.086 372.432 398.09 369.96 398.09Z" fill="#CFE4FF"/>
<path d="M393.047 398.09H382.231C379.758 398.09 377.754 396.086 377.754 393.613V384.064C377.754 381.592 379.758 379.587 382.231 379.587H393.047C395.52 379.587 397.524 381.591 397.524 384.064V393.613C397.524 396.086 395.52 398.09 393.047 398.09Z" fill="#CFE4FF"/>
<path d="M416.135 398.09H405.318C402.846 398.09 400.841 396.086 400.841 393.613V384.064C400.841 381.592 402.846 379.587 405.318 379.587H416.135C418.607 379.587 420.612 381.591 420.612 384.064V393.613C420.612 396.086 418.607 398.09 416.135 398.09Z" fill="#CFE4FF"/>
<path d="M369.96 420.901H359.143C356.671 420.901 354.667 418.897 354.667 416.424V406.875C354.667 404.403 356.671 402.398 359.143 402.398H369.96C372.432 402.398 374.437 404.402 374.437 406.875V416.424C374.437 418.897 372.432 420.901 369.96 420.901Z" fill="#CFE4FF"/>
<path d="M393.047 420.901H382.231C379.758 420.901 377.754 418.897 377.754 416.424V406.875C377.754 404.403 379.758 402.398 382.231 402.398H393.047C395.52 402.398 397.524 404.402 397.524 406.875V416.424C397.524 418.897 395.52 420.901 393.047 420.901Z" fill="#CFE4FF"/>
<path d="M416.135 420.901H405.318C402.846 420.901 400.841 418.897 400.841 416.424V406.875C400.841 404.403 402.846 402.398 405.318 402.398H416.135C418.607 402.398 420.612 404.402 420.612 406.875V416.424C420.612 418.897 418.607 420.901 416.135 420.901Z" fill="#CFE4FF"/>
<path d="M439.671 379.587H427.956C425.732 379.587 423.929 381.39 423.929 383.615V389.342V394.063V416.874C423.929 419.098 425.732 420.902 427.956 420.902H439.671C441.896 420.902 443.699 419.098 443.699 416.874V394.063V389.342V383.615C443.699 381.39 441.896 379.587 439.671 379.587Z" fill="#FDB137"/>
<path d="M369.96 443.712H359.143C356.671 443.712 354.667 441.708 354.667 439.235V429.686C354.667 427.213 356.671 425.209 359.143 425.209H369.96C372.432 425.209 374.437 427.213 374.437 429.686V439.235C374.437 441.708 372.432 443.712 369.96 443.712Z" fill="#CFE4FF"/>
<path d="M393.047 443.712H382.231C379.758 443.712 377.754 441.708 377.754 439.235V429.686C377.754 427.213 379.758 425.209 382.231 425.209H393.047C395.52 425.209 397.524 427.213 397.524 429.686V439.235C397.524 441.708 395.52 443.712 393.047 443.712Z" fill="#CFE4FF"/>
<path d="M416.135 443.712H405.318C402.846 443.712 400.841 441.708 400.841 439.235V429.686C400.841 427.213 402.846 425.209 405.318 425.209H416.135C418.607 425.209 420.612 427.213 420.612 429.686V439.235C420.612 441.708 418.607 443.712 416.135 443.712Z" fill="#CFE4FF"/>
<path d="M439.222 443.712H428.406C425.933 443.712 423.929 441.708 423.929 439.235V429.686C423.929 427.213 425.933 425.209 428.406 425.209H439.222C441.695 425.209 443.699 427.213 443.699 429.686V439.235C443.699 441.708 441.695 443.712 439.222 443.712Z" fill="#FDB137"/>
<path d="M369.96 466.523H359.143C356.671 466.523 354.667 464.519 354.667 462.046V452.497C354.667 450.024 356.671 448.02 359.143 448.02H369.96C372.432 448.02 374.437 450.024 374.437 452.497V462.046C374.437 464.519 372.432 466.523 369.96 466.523Z" fill="#CFE4FF"/>
<path d="M393.047 466.523H382.231C379.758 466.523 377.754 464.519 377.754 462.046V452.497C377.754 450.024 379.758 448.02 382.231 448.02H393.047C395.52 448.02 397.524 450.024 397.524 452.497V462.046C397.524 464.519 395.52 466.523 393.047 466.523Z" fill="#CFE4FF"/>
<path d="M416.135 466.523H405.318C402.846 466.523 400.841 464.519 400.841 462.046V452.497C400.841 450.024 402.846 448.02 405.318 448.02H416.135C418.607 448.02 420.612 450.024 420.612 452.497V462.046C420.612 464.519 418.607 466.523 416.135 466.523Z" fill="#FDB137"/>
<path d="M439.222 466.523H428.406C425.933 466.523 423.929 464.519 423.929 462.046V452.497C423.929 450.024 425.933 448.02 428.406 448.02H439.222C441.695 448.02 443.699 450.024 443.699 452.497V462.046C443.699 464.519 441.695 466.523 439.222 466.523Z" fill="#E87B50"/>
<path d="M367.937 429.599V430.535L363.372 440.082H361.905L366.453 430.809V430.777H361.324V429.599H367.937Z" fill="white"/>
<path d="M384.178 437.421C384.178 436.099 384.968 435.163 386.258 434.615L386.242 434.567C385.081 434.018 384.581 433.115 384.581 432.212C384.581 430.551 385.984 429.422 387.822 429.422C389.855 429.422 390.871 430.696 390.871 432.002C390.871 432.889 390.435 433.841 389.145 434.454V434.502C390.451 435.018 391.257 435.938 391.257 437.212C391.257 439.034 389.693 440.26 387.693 440.26C385.5 440.26 384.178 438.953 384.178 437.421ZM389.822 437.357C389.822 436.083 388.935 435.47 387.516 435.067C386.29 435.421 385.629 436.228 385.629 437.228C385.581 438.292 386.387 439.228 387.726 439.228C389 439.227 389.822 438.437 389.822 437.357ZM385.919 432.115C385.919 433.164 386.71 433.728 387.919 434.05C388.822 433.744 389.516 433.099 389.516 432.148C389.516 431.309 389.016 430.438 387.742 430.438C386.565 430.438 385.919 431.212 385.919 432.115Z" fill="white"/>
<path d="M391.274 457.258C391.274 460.823 389.952 462.79 387.629 462.79C385.581 462.79 384.194 460.871 384.162 457.403C384.162 453.888 385.677 451.952 387.806 451.952C390.016 451.952 391.274 453.92 391.274 457.258ZM385.581 457.42C385.581 460.145 386.419 461.693 387.71 461.693C389.161 461.693 389.855 460 389.855 457.323C389.855 454.743 389.193 453.049 387.726 453.049C386.484 453.049 385.581 454.565 385.581 457.42Z" fill="white"/>
<path d="M408.548 439.082C408.854 439.115 409.209 439.082 409.693 439.034C410.516 438.921 411.29 438.582 411.887 438.018C412.58 437.389 413.08 436.47 413.273 435.228H413.225C412.645 435.938 411.806 436.357 410.758 436.357C408.871 436.357 407.661 434.938 407.661 433.147C407.661 431.164 409.097 429.422 411.242 429.422C413.386 429.422 414.709 431.164 414.709 433.841C414.709 436.147 413.935 437.76 412.903 438.76C412.096 439.55 410.983 440.034 409.855 440.163C409.339 440.244 408.887 440.26 408.548 440.244L408.548 439.082ZM409.064 433.051C409.064 434.357 409.854 435.276 411.08 435.276C412.032 435.276 412.774 434.808 413.145 434.179C413.225 434.051 413.274 433.889 413.274 433.663C413.274 431.873 412.612 430.503 411.129 430.503C409.919 430.503 409.064 431.567 409.064 433.051Z" fill="white"/>
<path d="M365.517 416.825V413.97H360.646V413.035L365.323 406.342H366.856V412.857H368.323V413.97H366.856V416.825H365.517ZM365.517 412.857V409.358C365.517 408.809 365.533 408.261 365.565 407.713H365.517C365.194 408.326 364.936 408.777 364.646 409.261L362.082 412.825V412.858L365.517 412.857Z" fill="white"/>
<path d="M390.564 407.535H386.565L386.161 410.228C386.403 410.196 386.629 410.164 387.016 410.164C387.822 410.164 388.629 410.341 389.274 410.728C390.097 411.196 390.774 412.099 390.774 413.422C390.774 415.47 389.145 417.002 386.871 417.002C385.726 417.002 384.758 416.679 384.258 416.357L384.613 415.276C385.049 415.534 385.903 415.857 386.855 415.857C388.193 415.857 389.338 414.986 389.338 413.583C389.322 412.228 388.419 411.26 386.323 411.26C385.726 411.26 385.258 411.325 384.871 411.373L385.549 406.341H390.564V407.535Z" fill="white"/>
<path d="M413.709 407.342C413.419 407.326 413.048 407.342 412.645 407.406C410.42 407.777 409.242 409.406 409 411.132H409.049C409.549 410.47 410.42 409.922 411.581 409.922C413.435 409.922 414.742 411.261 414.742 413.309C414.742 415.228 413.435 417.002 411.258 417.002C409.016 417.002 407.549 415.26 407.549 412.535C407.549 410.47 408.291 408.842 409.323 407.809C410.194 406.955 411.355 406.422 412.677 406.261C413.097 406.196 413.452 406.181 413.71 406.181L413.709 407.342ZM413.306 413.389C413.306 411.89 412.451 410.987 411.145 410.987C410.29 410.987 409.5 411.519 409.113 412.277C409.016 412.438 408.952 412.648 408.952 412.906C408.984 414.631 409.774 415.905 411.258 415.905C412.484 415.905 413.306 414.889 413.306 413.389Z" fill="white"/>
<path d="M364.211 385.375H364.179L362.356 386.359L362.082 385.279L364.372 384.053H365.582V394.536H364.211V385.375Z" fill="white"/>
<path d="M384.307 394.536V393.665L385.42 392.585C388.097 390.037 389.307 388.682 389.323 387.101C389.323 386.037 388.807 385.053 387.243 385.053C386.291 385.053 385.501 385.537 385.017 385.94L384.566 384.94C385.291 384.327 386.323 383.876 387.533 383.876C389.791 383.876 390.743 385.424 390.743 386.924C390.743 388.859 389.339 390.424 387.13 392.553L386.291 393.327V393.359H391V394.536H384.307V394.536Z" fill="white"/>
<path d="M408.065 392.907C408.468 393.165 409.403 393.569 410.387 393.569C412.21 393.569 412.774 392.407 412.758 391.536C412.742 390.069 411.419 389.44 410.048 389.44H409.258V388.375H410.048C411.08 388.375 412.387 387.843 412.387 386.601C412.387 385.763 411.855 385.021 410.548 385.021C409.71 385.021 408.903 385.392 408.452 385.714L408.081 384.682C408.629 384.279 409.693 383.876 410.823 383.876C412.887 383.876 413.822 385.101 413.822 386.376C413.822 387.456 413.177 388.375 411.887 388.843V388.875C413.177 389.133 414.226 390.101 414.226 391.569C414.226 393.246 412.919 394.714 410.403 394.714C409.226 394.714 408.194 394.343 407.678 394.004L408.065 392.907Z" fill="white"/>
<path d="M365.816 461.231C365.816 461.929 365.25 462.495 364.552 462.495C363.854 462.495 363.288 461.929 363.288 461.231C363.288 460.532 363.854 459.966 364.552 459.966C365.25 459.966 365.816 460.532 365.816 461.231Z" fill="white"/>
<path d="M441.324 400.912H434.67V394.257H432.958V400.912H426.304V402.623H432.958V409.277H434.67V402.623H441.324V400.912Z" fill="white"/>
<path d="M415.156 461.211L411.632 457.687L415.156 454.164L414.25 453.258L410.726 456.781L407.203 453.258L406.297 454.164L409.821 457.687L406.297 461.211L407.203 462.116L410.726 458.593L414.25 462.116L415.156 461.211Z" fill="white"/>
<path d="M438.975 434.097H427.831V435.804H438.975V434.097Z" fill="white"/>
<path d="M439.386 453.821H428.242V455.528H439.386V453.821Z" fill="white"/>
<path d="M439.386 458.118H428.242V459.824H439.386V458.118Z" fill="white"/>
</g>
<defs>
<clipPath id="clip0_1256_5418">
<rect width="500" height="500" rx="8" fill="white"/>
</clipPath>
<clipPath id="clip1_1256_5418">
<rect width="325.347" height="285.003" fill="white" transform="translate(20 -0.423706) rotate(-11.8079)"/>
</clipPath>
</defs>
</svg>
