<svg width="381" height="380" viewBox="0 0 381 380" fill="none" xmlns="http://www.w3.org/2000/svg">
<g filter="url(#filter0_d_387_407)">
<rect x="15" y="57.1853" width="179.259" height="108.741" rx="13.037" fill="white" shape-rendering="crispEdges"/>
<rect x="15.4074" y="57.5927" width="178.444" height="107.926" rx="12.6296" stroke="#212528" stroke-width="0.814815" shape-rendering="crispEdges"/>
<path d="M110.749 99.9713H109.462L109.005 99.5313C110.602 97.6736 111.564 95.2617 111.564 92.638C111.564 86.7876 106.822 82.0454 100.971 82.0454C95.1208 82.0454 90.3785 86.7876 90.3785 92.638C90.3785 98.4884 95.1208 103.231 100.971 103.231C103.595 103.231 106.007 102.269 107.864 100.672L108.304 101.128V102.416L116.453 110.548L118.881 108.119L110.749 99.9713ZM100.971 99.9713C96.9134 99.9713 93.6378 96.6958 93.6378 92.638C93.6378 88.5802 96.9134 85.3047 100.971 85.3047C105.029 85.3047 108.304 88.5802 108.304 92.638C108.304 96.6958 105.029 99.9713 100.971 99.9713Z" fill="#0080FF"/>
<path d="M70.022 127.148H72.6262L77.1539 138.204H77.3206L81.8484 127.148H84.4526V141.371H82.4109V131.079H82.2789L78.0845 141.35H76.3901L72.1956 131.072H72.0637V141.371H70.022V127.148ZM91.8987 141.586C90.8987 141.586 90.026 141.357 89.2807 140.898C88.5353 140.44 87.9566 139.799 87.5446 138.975C87.1325 138.151 86.9265 137.188 86.9265 136.086C86.9265 134.979 87.1325 134.012 87.5446 133.183C87.9566 132.354 88.5353 131.711 89.2807 131.253C90.026 130.794 90.8987 130.565 91.8987 130.565C92.8987 130.565 93.7714 130.794 94.5168 131.253C95.2622 131.711 95.8409 132.354 96.2529 133.183C96.6649 134.012 96.871 134.979 96.871 136.086C96.871 137.188 96.6649 138.151 96.2529 138.975C95.8409 139.799 95.2622 140.44 94.5168 140.898C93.7714 141.357 92.8987 141.586 91.8987 141.586ZM91.9057 139.843C92.5538 139.843 93.0909 139.672 93.5168 139.329C93.9427 138.986 94.2575 138.53 94.4612 137.961C94.6696 137.391 94.7737 136.764 94.7737 136.079C94.7737 135.398 94.6696 134.773 94.4612 134.204C94.2575 133.63 93.9427 133.169 93.5168 132.822C93.0909 132.475 92.5538 132.301 91.9057 132.301C91.2529 132.301 90.7112 132.475 90.2807 132.822C89.8548 133.169 89.5376 133.63 89.3293 134.204C89.1256 134.773 89.0237 135.398 89.0237 136.079C89.0237 136.764 89.1256 137.391 89.3293 137.961C89.5376 138.53 89.8548 138.986 90.2807 139.329C90.7112 139.672 91.2529 139.843 91.9057 139.843ZM101.265 135.037V141.371H99.1887V130.704H101.182V132.44H101.314C101.559 131.875 101.943 131.422 102.466 131.079C102.994 130.736 103.659 130.565 104.459 130.565C105.186 130.565 105.823 130.718 106.369 131.023C106.916 131.324 107.339 131.773 107.64 132.371C107.941 132.968 108.091 133.706 108.091 134.586V141.371H106.015V134.836C106.015 134.063 105.814 133.459 105.411 133.023C105.008 132.584 104.455 132.364 103.751 132.364C103.27 132.364 102.841 132.468 102.466 132.676C102.096 132.884 101.802 133.19 101.584 133.593C101.372 133.991 101.265 134.472 101.265 135.037ZM110.876 141.371V130.704H112.953V141.371H110.876ZM111.925 129.058C111.564 129.058 111.253 128.938 110.994 128.697C110.74 128.452 110.612 128.16 110.612 127.822C110.612 127.479 110.74 127.188 110.994 126.947C111.253 126.702 111.564 126.579 111.925 126.579C112.286 126.579 112.594 126.702 112.848 126.947C113.108 127.188 113.237 127.479 113.237 127.822C113.237 128.16 113.108 128.452 112.848 128.697C112.594 128.938 112.286 129.058 111.925 129.058ZM120.725 130.704V132.371H114.899V130.704H120.725ZM116.461 128.148H118.538V138.239C118.538 138.641 118.598 138.945 118.718 139.148C118.839 139.347 118.994 139.484 119.183 139.558C119.378 139.628 119.589 139.662 119.815 139.662C119.982 139.662 120.128 139.651 120.253 139.628C120.378 139.604 120.475 139.586 120.545 139.572L120.92 141.287C120.799 141.334 120.628 141.38 120.406 141.426C120.183 141.477 119.906 141.505 119.572 141.509C119.026 141.519 118.517 141.422 118.045 141.218C117.572 141.014 117.19 140.699 116.899 140.273C116.607 139.847 116.461 139.313 116.461 138.669V128.148ZM127.4 141.586C126.4 141.586 125.528 141.357 124.782 140.898C124.037 140.44 123.458 139.799 123.046 138.975C122.634 138.151 122.428 137.188 122.428 136.086C122.428 134.979 122.634 134.012 123.046 133.183C123.458 132.354 124.037 131.711 124.782 131.253C125.528 130.794 126.4 130.565 127.4 130.565C128.4 130.565 129.273 130.794 130.019 131.253C130.764 131.711 131.343 132.354 131.755 133.183C132.167 134.012 132.373 134.979 132.373 136.086C132.373 137.188 132.167 138.151 131.755 138.975C131.343 139.799 130.764 140.44 130.019 140.898C129.273 141.357 128.4 141.586 127.4 141.586ZM127.407 139.843C128.056 139.843 128.593 139.672 129.019 139.329C129.444 138.986 129.759 138.53 129.963 137.961C130.171 137.391 130.275 136.764 130.275 136.079C130.275 135.398 130.171 134.773 129.963 134.204C129.759 133.63 129.444 133.169 129.019 132.822C128.593 132.475 128.056 132.301 127.407 132.301C126.755 132.301 126.213 132.475 125.782 132.822C125.356 133.169 125.039 133.63 124.831 134.204C124.627 134.773 124.525 135.398 124.525 136.079C124.525 136.764 124.627 137.391 124.831 137.961C125.039 138.53 125.356 138.986 125.782 139.329C126.213 139.672 126.755 139.843 127.407 139.843ZM134.69 141.371V130.704H136.697V132.398H136.808C137.003 131.824 137.345 131.373 137.836 131.044C138.332 130.711 138.892 130.544 139.517 130.544C139.646 130.544 139.799 130.549 139.975 130.558C140.156 130.567 140.297 130.579 140.399 130.593V132.579C140.315 132.556 140.167 132.53 139.954 132.503C139.741 132.47 139.528 132.454 139.315 132.454C138.825 132.454 138.387 132.558 138.003 132.766C137.623 132.97 137.322 133.255 137.1 133.621C136.878 133.982 136.767 134.394 136.767 134.857V141.371H134.69Z" fill="#212528"/>
</g>
<g filter="url(#filter1_d_387_407)">
<rect x="41.0741" y="185.111" width="153.185" height="132.741" rx="13.037" fill="white" shape-rendering="crispEdges"/>
<rect x="41.4815" y="185.519" width="152.37" height="131.926" rx="12.6296" stroke="#212528" stroke-width="0.814815" shape-rendering="crispEdges"/>
<path d="M109.519 209.556H104.63V214.445H101.37V206.297H109.519V209.556ZM133.963 214.445V206.297H125.815V209.556H130.704V214.445H133.963ZM109.519 238.889H104.63V234H101.37V242.148H109.519V238.889ZM130.704 234V238.889H125.815V242.148H133.963V234H130.704ZM125.815 214.445H109.519V234H125.815V214.445ZM129.074 234C129.074 235.793 127.607 237.26 125.815 237.26H109.519C107.726 237.26 106.259 235.793 106.259 234V214.445C106.259 212.652 107.726 211.186 109.519 211.186H125.815C127.607 211.186 129.074 212.652 129.074 214.445V234ZM122.556 217.704H112.778V220.963H122.556V217.704ZM122.556 222.593H112.778V225.852H122.556V222.593ZM122.556 227.482H112.778V230.741H122.556V227.482Z" fill="#F2800D"/>
<path d="M92.533 269.297H87.9288V255.074H92.6788C94.0724 255.074 95.2691 255.359 96.2691 255.929C97.2691 256.493 98.0353 257.306 98.5677 258.366C99.1048 259.422 99.3733 260.688 99.3733 262.165C99.3733 263.646 99.1025 264.919 98.5608 265.984C98.0237 267.049 97.246 267.868 96.2275 268.442C95.2089 269.012 93.9775 269.297 92.533 269.297ZM90.0747 267.422H92.415C93.4983 267.422 94.3987 267.218 95.1163 266.811C95.8339 266.398 96.371 265.804 96.7275 265.026C97.0839 264.243 97.2622 263.29 97.2622 262.165C97.2622 261.049 97.0839 260.102 96.7275 259.324C96.3756 258.547 95.8501 257.956 95.1511 257.554C94.452 257.151 93.5839 256.949 92.5469 256.949H90.0747V267.422ZM106.472 269.512C105.421 269.512 104.516 269.287 103.757 268.838C103.002 268.385 102.419 267.748 102.007 266.929C101.6 266.105 101.396 265.139 101.396 264.033C101.396 262.94 101.6 261.977 102.007 261.144C102.419 260.311 102.993 259.66 103.729 259.192C104.47 258.725 105.336 258.491 106.326 258.491C106.928 258.491 107.512 258.591 108.076 258.79C108.641 258.989 109.148 259.301 109.597 259.727C110.046 260.153 110.4 260.706 110.66 261.387C110.919 262.063 111.049 262.885 111.049 263.852V264.588H102.569V263.033H109.014C109.014 262.486 108.903 262.003 108.681 261.581C108.458 261.155 108.146 260.82 107.743 260.574C107.345 260.329 106.877 260.206 106.34 260.206C105.757 260.206 105.248 260.35 104.813 260.637C104.382 260.919 104.049 261.29 103.813 261.748C103.581 262.202 103.465 262.695 103.465 263.227V264.442C103.465 265.155 103.59 265.762 103.84 266.262C104.095 266.762 104.449 267.144 104.903 267.408C105.357 267.667 105.887 267.797 106.493 267.797C106.887 267.797 107.245 267.741 107.569 267.63C107.894 267.514 108.174 267.343 108.41 267.116C108.646 266.889 108.826 266.609 108.951 266.276L110.917 266.63C110.759 267.209 110.477 267.716 110.069 268.151C109.667 268.581 109.16 268.917 108.549 269.158C107.942 269.394 107.25 269.512 106.472 269.512ZM118.332 258.63V260.297H112.505V258.63H118.332ZM114.068 256.074H116.144V266.165C116.144 266.567 116.204 266.871 116.325 267.074C116.445 267.273 116.6 267.41 116.79 267.484C116.984 267.554 117.195 267.588 117.422 267.588C117.589 267.588 117.734 267.577 117.859 267.554C117.984 267.53 118.082 267.512 118.151 267.498L118.526 269.213C118.406 269.26 118.234 269.306 118.012 269.352C117.79 269.403 117.512 269.431 117.179 269.436C116.633 269.445 116.123 269.348 115.651 269.144C115.179 268.94 114.797 268.625 114.505 268.199C114.214 267.773 114.068 267.239 114.068 266.595V256.074ZM125.111 269.512C124.06 269.512 123.155 269.287 122.396 268.838C121.641 268.385 121.058 267.748 120.646 266.929C120.238 266.105 120.035 265.139 120.035 264.033C120.035 262.94 120.238 261.977 120.646 261.144C121.058 260.311 121.632 259.66 122.368 259.192C123.109 258.725 123.975 258.491 124.965 258.491C125.567 258.491 126.15 258.591 126.715 258.79C127.28 258.989 127.787 259.301 128.236 259.727C128.685 260.153 129.039 260.706 129.299 261.387C129.558 262.063 129.688 262.885 129.688 263.852V264.588H121.208V263.033H127.653C127.653 262.486 127.542 262.003 127.319 261.581C127.097 261.155 126.785 260.82 126.382 260.574C125.984 260.329 125.516 260.206 124.979 260.206C124.396 260.206 123.887 260.35 123.451 260.637C123.021 260.919 122.688 261.29 122.451 261.748C122.22 262.202 122.104 262.695 122.104 263.227V264.442C122.104 265.155 122.229 265.762 122.479 266.262C122.734 266.762 123.088 267.144 123.542 267.408C123.995 267.667 124.525 267.797 125.132 267.797C125.525 267.797 125.884 267.741 126.208 267.63C126.532 267.514 126.813 267.343 127.049 267.116C127.285 266.889 127.465 266.609 127.59 266.276L129.556 266.63C129.398 267.209 129.116 267.716 128.708 268.151C128.306 268.581 127.799 268.917 127.188 269.158C126.581 269.394 125.889 269.512 125.111 269.512ZM136.484 269.512C135.452 269.512 134.563 269.278 133.818 268.811C133.077 268.338 132.508 267.688 132.109 266.859C131.711 266.03 131.512 265.081 131.512 264.012C131.512 262.929 131.716 261.973 132.123 261.144C132.531 260.311 133.105 259.66 133.846 259.192C134.586 258.725 135.459 258.491 136.464 258.491C137.274 258.491 137.996 258.642 138.63 258.942C139.264 259.239 139.776 259.655 140.165 260.192C140.558 260.73 140.792 261.357 140.866 262.074H138.846C138.734 261.574 138.48 261.144 138.082 260.783C137.688 260.422 137.16 260.241 136.498 260.241C135.92 260.241 135.413 260.394 134.977 260.699C134.547 261 134.211 261.431 133.971 261.991C133.73 262.547 133.609 263.204 133.609 263.963C133.609 264.741 133.727 265.412 133.964 265.977C134.2 266.542 134.533 266.98 134.964 267.29C135.399 267.6 135.91 267.755 136.498 267.755C136.892 267.755 137.248 267.683 137.568 267.54C137.892 267.392 138.163 267.181 138.38 266.908C138.602 266.635 138.758 266.306 138.846 265.922H140.866C140.792 266.611 140.568 267.227 140.193 267.769C139.818 268.311 139.315 268.736 138.686 269.047C138.061 269.357 137.327 269.512 136.484 269.512ZM148.066 258.63V260.297H142.24V258.63H148.066ZM143.802 256.074H145.878V266.165C145.878 266.567 145.939 266.871 146.059 267.074C146.179 267.273 146.335 267.41 146.524 267.484C146.719 267.554 146.929 267.588 147.156 267.588C147.323 267.588 147.469 267.577 147.594 267.554C147.719 267.53 147.816 267.512 147.885 267.498L148.26 269.213C148.14 269.26 147.969 269.306 147.747 269.352C147.524 269.403 147.247 269.431 146.913 269.436C146.367 269.445 145.858 269.348 145.385 269.144C144.913 268.94 144.531 268.625 144.24 268.199C143.948 267.773 143.802 267.239 143.802 266.595V256.074ZM92.3594 293.297V279.074H101.179V280.922H94.5052V285.255H100.547V287.095H94.5052V293.297H92.3594ZM103.517 293.297V282.63H105.524V284.324H105.635C105.83 283.75 106.172 283.299 106.663 282.97C107.159 282.637 107.719 282.47 108.344 282.47C108.473 282.47 108.626 282.475 108.802 282.484C108.983 282.493 109.124 282.505 109.226 282.519V284.505C109.142 284.482 108.994 284.456 108.781 284.429C108.568 284.396 108.355 284.38 108.142 284.38C107.652 284.38 107.214 284.484 106.83 284.692C106.45 284.896 106.149 285.181 105.927 285.547C105.705 285.908 105.594 286.32 105.594 286.783V293.297H103.517ZM114.031 293.533C113.355 293.533 112.744 293.408 112.198 293.158C111.652 292.903 111.219 292.535 110.899 292.054C110.585 291.572 110.427 290.982 110.427 290.283C110.427 289.681 110.543 289.186 110.774 288.797C111.006 288.408 111.318 288.1 111.712 287.873C112.105 287.646 112.545 287.475 113.031 287.359C113.517 287.243 114.013 287.155 114.517 287.095C115.156 287.021 115.675 286.961 116.073 286.915C116.471 286.864 116.76 286.783 116.941 286.672C117.122 286.561 117.212 286.38 117.212 286.13V286.081C117.212 285.475 117.041 285.005 116.698 284.672C116.36 284.338 115.855 284.172 115.184 284.172C114.485 284.172 113.934 284.327 113.531 284.637C113.133 284.942 112.858 285.283 112.705 285.658L110.753 285.213C110.985 284.565 111.323 284.042 111.767 283.644C112.216 283.241 112.733 282.949 113.316 282.769C113.899 282.584 114.513 282.491 115.156 282.491C115.582 282.491 116.034 282.542 116.51 282.644C116.992 282.741 117.441 282.922 117.858 283.186C118.279 283.449 118.624 283.827 118.892 284.317C119.161 284.804 119.295 285.436 119.295 286.213V293.297H117.267V291.838H117.184C117.05 292.107 116.848 292.371 116.58 292.63C116.311 292.889 115.966 293.105 115.545 293.276C115.124 293.447 114.619 293.533 114.031 293.533ZM114.483 291.866C115.057 291.866 115.547 291.753 115.955 291.526C116.367 291.299 116.679 291.003 116.892 290.637C117.11 290.267 117.219 289.871 117.219 289.449V288.074C117.145 288.148 117.001 288.218 116.788 288.283C116.58 288.343 116.341 288.396 116.073 288.442C115.804 288.484 115.543 288.523 115.288 288.561C115.034 288.593 114.821 288.621 114.649 288.644C114.247 288.695 113.878 288.78 113.545 288.901C113.216 289.021 112.953 289.195 112.753 289.422C112.559 289.644 112.462 289.94 112.462 290.311C112.462 290.824 112.652 291.213 113.031 291.477C113.411 291.736 113.895 291.866 114.483 291.866ZM128.818 288.873V282.63H130.901V293.297H128.859V291.449H128.748C128.503 292.019 128.109 292.493 127.568 292.873C127.031 293.248 126.362 293.436 125.561 293.436C124.876 293.436 124.269 293.285 123.741 292.984C123.218 292.679 122.806 292.227 122.505 291.63C122.209 291.033 122.061 290.294 122.061 289.415V282.63H124.137V289.165C124.137 289.892 124.339 290.47 124.741 290.901C125.144 291.331 125.667 291.547 126.311 291.547C126.7 291.547 127.086 291.449 127.471 291.255C127.859 291.061 128.181 290.767 128.436 290.373C128.695 289.98 128.822 289.48 128.818 288.873ZM137.684 293.505C136.823 293.505 136.054 293.285 135.378 292.845C134.707 292.401 134.179 291.769 133.795 290.949C133.416 290.125 133.226 289.137 133.226 287.984C133.226 286.831 133.418 285.845 133.802 285.026C134.191 284.206 134.723 283.579 135.399 283.144C136.075 282.709 136.841 282.491 137.698 282.491C138.36 282.491 138.892 282.602 139.295 282.824C139.703 283.042 140.017 283.297 140.24 283.588C140.466 283.88 140.642 284.137 140.767 284.359H140.892V279.074H142.969V293.297H140.941V291.637H140.767C140.642 291.864 140.462 292.123 140.226 292.415C139.994 292.706 139.675 292.961 139.267 293.179C138.86 293.396 138.332 293.505 137.684 293.505ZM138.142 291.734C138.74 291.734 139.244 291.577 139.656 291.262C140.073 290.942 140.388 290.5 140.601 289.936C140.818 289.371 140.927 288.713 140.927 287.963C140.927 287.223 140.821 286.574 140.608 286.019C140.395 285.463 140.082 285.03 139.67 284.72C139.258 284.41 138.749 284.255 138.142 284.255C137.517 284.255 136.997 284.417 136.58 284.741C136.163 285.065 135.848 285.507 135.635 286.067C135.427 286.628 135.323 287.26 135.323 287.963C135.323 288.676 135.429 289.317 135.642 289.887C135.855 290.456 136.17 290.908 136.587 291.241C137.008 291.57 137.527 291.734 138.142 291.734Z" fill="#212528"/>
</g>
<g filter="url(#filter2_d_387_407)">
<rect x="213.815" y="33.5557" width="153.185" height="132" rx="13.037" fill="white" shape-rendering="crispEdges"/>
<rect x="214.222" y="33.9631" width="152.37" height="131.185" rx="12.6296" stroke="#212528" stroke-width="0.814815" shape-rendering="crispEdges"/>
<path d="M274.111 97.3172L286.333 85.0787L292.852 91.5972L304.406 78.6091L306.704 80.9069L292.852 96.4861L286.333 89.9676L276.556 99.7617L274.111 97.3172ZM276.556 89.9839L286.333 80.1898L292.852 86.7083L306.704 71.1291L304.406 68.8313L292.852 81.8194L286.333 75.3009L274.111 87.5394L276.556 89.9839Z" fill="#F2800D"/>
<path d="M265.191 116.996V115.148H276.198V116.996H271.761V129.371H269.622V116.996H265.191ZM277.356 129.371V118.704H279.363V120.398H279.474C279.669 119.824 280.011 119.373 280.502 119.044C280.997 118.711 281.558 118.544 282.183 118.544C282.312 118.544 282.465 118.549 282.641 118.558C282.822 118.567 282.963 118.579 283.065 118.593V120.579C282.981 120.556 282.833 120.53 282.62 120.503C282.407 120.47 282.194 120.454 281.981 120.454C281.491 120.454 281.053 120.558 280.669 120.766C280.289 120.97 279.988 121.255 279.766 121.621C279.544 121.982 279.433 122.394 279.433 122.857V129.371H277.356ZM287.87 129.607C287.194 129.607 286.583 129.482 286.037 129.232C285.491 128.977 285.058 128.609 284.738 128.128C284.423 127.646 284.266 127.056 284.266 126.357C284.266 125.755 284.382 125.259 284.613 124.871C284.845 124.482 285.157 124.174 285.551 123.947C285.944 123.72 286.384 123.549 286.87 123.433C287.356 123.317 287.852 123.229 288.356 123.169C288.995 123.095 289.514 123.035 289.912 122.989C290.31 122.938 290.599 122.857 290.78 122.746C290.96 122.634 291.051 122.454 291.051 122.204V122.155C291.051 121.549 290.879 121.079 290.537 120.746C290.199 120.412 289.694 120.246 289.023 120.246C288.324 120.246 287.773 120.401 287.37 120.711C286.972 121.016 286.697 121.357 286.544 121.732L284.592 121.287C284.824 120.639 285.162 120.116 285.606 119.718C286.055 119.315 286.572 119.023 287.155 118.843C287.738 118.658 288.352 118.565 288.995 118.565C289.421 118.565 289.872 118.616 290.349 118.718C290.831 118.815 291.28 118.996 291.697 119.259C292.118 119.523 292.463 119.901 292.731 120.391C293 120.878 293.134 121.509 293.134 122.287V129.371H291.106V127.912H291.023C290.889 128.181 290.687 128.445 290.419 128.704C290.15 128.963 289.805 129.178 289.384 129.35C288.963 129.521 288.458 129.607 287.87 129.607ZM288.322 127.94C288.896 127.94 289.386 127.827 289.794 127.6C290.206 127.373 290.518 127.077 290.731 126.711C290.949 126.341 291.058 125.945 291.058 125.523V124.148C290.984 124.222 290.84 124.292 290.627 124.357C290.419 124.417 290.18 124.47 289.912 124.516C289.643 124.558 289.382 124.597 289.127 124.634C288.872 124.667 288.659 124.695 288.488 124.718C288.085 124.769 287.717 124.854 287.384 124.975C287.055 125.095 286.791 125.269 286.592 125.496C286.398 125.718 286.301 126.014 286.301 126.384C286.301 126.898 286.491 127.287 286.87 127.551C287.25 127.81 287.734 127.94 288.322 127.94ZM300.393 129.586C299.36 129.586 298.471 129.352 297.726 128.884C296.985 128.412 296.416 127.762 296.018 126.933C295.62 126.104 295.42 125.155 295.42 124.086C295.42 123.003 295.624 122.047 296.032 121.218C296.439 120.384 297.013 119.734 297.754 119.266C298.495 118.799 299.367 118.565 300.372 118.565C301.182 118.565 301.904 118.716 302.539 119.016C303.173 119.313 303.684 119.729 304.073 120.266C304.467 120.803 304.701 121.431 304.775 122.148H302.754C302.643 121.648 302.388 121.218 301.99 120.857C301.596 120.496 301.069 120.315 300.407 120.315C299.828 120.315 299.321 120.468 298.886 120.773C298.455 121.074 298.12 121.505 297.879 122.065C297.638 122.621 297.518 123.278 297.518 124.037C297.518 124.815 297.636 125.486 297.872 126.051C298.108 126.616 298.441 127.053 298.872 127.364C299.307 127.674 299.819 127.829 300.407 127.829C300.8 127.829 301.157 127.757 301.476 127.614C301.8 127.466 302.071 127.255 302.289 126.982C302.511 126.709 302.666 126.38 302.754 125.996H304.775C304.701 126.685 304.476 127.301 304.101 127.843C303.726 128.384 303.224 128.81 302.594 129.121C301.969 129.431 301.235 129.586 300.393 129.586ZM308.905 125.753L308.891 123.218H309.252L313.502 118.704H315.988L311.141 123.843H310.815L308.905 125.753ZM306.995 129.371V115.148H309.072V129.371H306.995ZM313.731 129.371L309.912 124.301L311.342 122.85L316.28 129.371H313.731Z" fill="#212528"/>
</g>
<g filter="url(#filter3_d_387_407)">
<rect x="213.815" y="185.111" width="153.185" height="161.333" rx="13.037" fill="white" shape-rendering="crispEdges"/>
<rect x="214.222" y="185.519" width="152.37" height="160.519" rx="12.6296" stroke="#212528" stroke-width="0.814815" shape-rendering="crispEdges"/>
<path fill-rule="evenodd" clip-rule="evenodd" d="M253.198 319.474V319.42V221.526C253.252 216.292 257.515 212.028 262.75 212.082H316.878C322.112 212.028 326.43 216.238 326.43 221.472C326.43 221.526 326.43 221.526 326.43 221.526V319.474H253.198Z" stroke="#1A237E" stroke-width="1.56556"/>
<path d="M276.35 220.987C277.006 220.987 277.537 220.455 277.537 219.8C277.537 219.144 277.006 218.612 276.35 218.612C275.694 218.612 275.163 219.144 275.163 219.8C275.163 220.455 275.694 220.987 276.35 220.987Z" fill="#1A237E"/>
<path d="M276.458 220.339C276.727 220.339 276.944 220.122 276.944 219.853C276.944 219.585 276.727 219.368 276.458 219.368C276.19 219.368 275.973 219.585 275.973 219.853C275.973 220.122 276.19 220.339 276.458 220.339Z" fill="#1A237E"/>
<path d="M252.122 224.656H251.419V230.989H252.122V224.656Z" fill="#1A237E"/>
<path d="M252.122 238.472H251.419V248.088H252.122V238.472Z" fill="#1A237E"/>
<path d="M252.122 251.693H251.419V261.31H252.122V251.693Z" fill="#1A237E"/>
<path d="M328.427 238.256H327.724V247.872H328.427V238.256Z" fill="#1A237E"/>
<path d="M323.028 224.656H255.949V267.883H323.028V224.656Z" fill="#868EE0"/>
<path d="M260.428 233.561H302.522" stroke="#FEFEFE" stroke-width="0.492088"/>
<path d="M260.428 241.386H286.602" stroke="#FEFEFE" stroke-width="0.492088"/>
<path d="M260.428 249.265H295.668" stroke="#FEFEFE" stroke-width="0.492088"/>
<path d="M259.943 257.198H278.022" stroke="#FEFEFE" stroke-width="0.492088"/>
<path fill-rule="evenodd" clip-rule="evenodd" d="M305.059 282.292C305.059 281.59 304.79 280.889 304.304 280.403C303.225 279.378 301.552 279.378 300.526 280.403C300.526 280.403 300.526 280.403 300.472 280.403C299.987 280.889 299.717 281.59 299.717 282.292C299.717 282.454 299.717 282.616 299.717 282.724L296.479 284.666C295.993 284.181 295.346 283.911 294.644 283.911C293.888 283.911 293.241 284.181 292.755 284.666C291.676 285.746 291.676 287.419 292.701 288.444H292.755C293.241 288.984 293.888 289.253 294.644 289.253C295.346 289.253 295.993 288.984 296.533 288.444L299.771 290.225C299.717 290.441 299.717 290.657 299.717 290.872C299.717 292.329 300.904 293.517 302.415 293.517C303.872 293.517 305.059 292.329 305.059 290.872C305.059 289.361 303.872 288.174 302.415 288.174C301.66 288.174 301.012 288.444 300.472 288.93C300.472 288.984 300.472 288.984 300.418 288.984L297.234 287.257C297.288 287.041 297.288 286.825 297.288 286.555C297.288 286.339 297.234 286.069 297.18 285.854L300.31 283.965C300.364 284.073 300.418 284.127 300.472 284.181C301.552 285.26 303.225 285.26 304.304 284.181C304.79 283.695 305.059 282.993 305.059 282.292Z" fill="#1A237E"/>
<path fill-rule="evenodd" clip-rule="evenodd" d="M282.12 296.701C278.505 296.647 275.645 293.679 275.645 290.063C275.698 286.501 278.559 283.641 282.12 283.587C285.682 283.479 288.596 286.285 288.704 289.847C288.704 289.901 288.704 290.009 288.704 290.117C288.65 293.733 285.736 296.647 282.12 296.701ZM282.12 286.069C279.908 286.069 278.073 287.904 278.073 290.117C278.073 292.383 279.908 294.164 282.12 294.164C284.387 294.164 286.168 292.383 286.168 290.117C286.276 287.958 284.549 286.123 282.39 286.069C282.282 286.069 282.228 286.069 282.12 286.069Z" fill="#1A237E"/>
<path fill-rule="evenodd" clip-rule="evenodd" d="M293.67 310.732H270.573C269.925 310.732 269.386 310.192 269.332 309.491C269.278 302.529 274.89 296.755 281.852 296.701C281.96 296.701 282.068 296.701 282.122 296.701C289.137 296.647 294.858 302.205 294.912 309.221C294.912 309.329 294.912 309.383 294.912 309.491C295.019 310.138 294.534 310.678 293.886 310.732C293.832 310.786 293.778 310.786 293.67 310.732ZM272.138 308.25H292.753C292.051 303.069 287.68 299.237 282.445 299.183C277.211 299.129 272.732 303.015 272.138 308.25Z" fill="#1A237E"/>
<path d="M237.008 319.474H343.807" stroke="#1A237E" stroke-width="1.56556"/>
<path fill-rule="evenodd" clip-rule="evenodd" d="M293.995 220.771H284.929C284.821 220.771 284.767 220.663 284.767 220.555C284.767 220.501 284.821 220.393 284.929 220.393H293.995C294.103 220.393 294.211 220.447 294.211 220.555C294.211 220.663 294.103 220.771 293.995 220.771Z" fill="#1A237E"/>
<path d="M289.463 217.695C290.178 217.695 290.758 217.115 290.758 216.4C290.758 215.684 290.178 215.104 289.463 215.104C288.748 215.104 288.168 215.684 288.168 216.4C288.168 217.115 288.748 217.695 289.463 217.695Z" fill="#1A237E"/>
</g>
<defs>
<filter id="filter0_d_387_407" x="15" y="57.1853" width="182.519" height="112" filterUnits="userSpaceOnUse" color-interpolation-filters="sRGB">
<feFlood flood-opacity="0" result="BackgroundImageFix"/>
<feColorMatrix in="SourceAlpha" type="matrix" values="0 0 0 0 0 0 0 0 0 0 0 0 0 0 0 0 0 0 127 0" result="hardAlpha"/>
<feOffset dx="3.25926" dy="3.25926"/>
<feComposite in2="hardAlpha" operator="out"/>
<feColorMatrix type="matrix" values="0 0 0 0 0.667568 0 0 0 0 0.8 0 0 0 0 0.932432 0 0 0 1 0"/>
<feBlend mode="normal" in2="BackgroundImageFix" result="effect1_dropShadow_387_407"/>
<feBlend mode="normal" in="SourceGraphic" in2="effect1_dropShadow_387_407" result="shape"/>
</filter>
<filter id="filter1_d_387_407" x="41.0741" y="185.111" width="156.444" height="136" filterUnits="userSpaceOnUse" color-interpolation-filters="sRGB">
<feFlood flood-opacity="0" result="BackgroundImageFix"/>
<feColorMatrix in="SourceAlpha" type="matrix" values="0 0 0 0 0 0 0 0 0 0 0 0 0 0 0 0 0 0 127 0" result="hardAlpha"/>
<feOffset dx="3.25926" dy="3.25926"/>
<feComposite in2="hardAlpha" operator="out"/>
<feColorMatrix type="matrix" values="0 0 0 0 0.932432 0 0 0 0 0.842378 0 0 0 0 0.667568 0 0 0 1 0"/>
<feBlend mode="normal" in2="BackgroundImageFix" result="effect1_dropShadow_387_407"/>
<feBlend mode="normal" in="SourceGraphic" in2="effect1_dropShadow_387_407" result="shape"/>
</filter>
<filter id="filter2_d_387_407" x="213.815" y="33.5557" width="156.444" height="135.259" filterUnits="userSpaceOnUse" color-interpolation-filters="sRGB">
<feFlood flood-opacity="0" result="BackgroundImageFix"/>
<feColorMatrix in="SourceAlpha" type="matrix" values="0 0 0 0 0 0 0 0 0 0 0 0 0 0 0 0 0 0 127 0" result="hardAlpha"/>
<feOffset dx="3.25926" dy="3.25926"/>
<feComposite in2="hardAlpha" operator="out"/>
<feColorMatrix type="matrix" values="0 0 0 0 0.932432 0 0 0 0 0.842378 0 0 0 0 0.667568 0 0 0 1 0"/>
<feBlend mode="normal" in2="BackgroundImageFix" result="effect1_dropShadow_387_407"/>
<feBlend mode="normal" in="SourceGraphic" in2="effect1_dropShadow_387_407" result="shape"/>
</filter>
<filter id="filter3_d_387_407" x="213.815" y="185.111" width="156.444" height="164.593" filterUnits="userSpaceOnUse" color-interpolation-filters="sRGB">
<feFlood flood-opacity="0" result="BackgroundImageFix"/>
<feColorMatrix in="SourceAlpha" type="matrix" values="0 0 0 0 0 0 0 0 0 0 0 0 0 0 0 0 0 0 127 0" result="hardAlpha"/>
<feOffset dx="3.25926" dy="3.25926"/>
<feComposite in2="hardAlpha" operator="out"/>
<feColorMatrix type="matrix" values="0 0 0 0 0.667568 0 0 0 0 0.8 0 0 0 0 0.932432 0 0 0 1 0"/>
<feBlend mode="normal" in2="BackgroundImageFix" result="effect1_dropShadow_387_407"/>
<feBlend mode="normal" in="SourceGraphic" in2="effect1_dropShadow_387_407" result="shape"/>
</filter>
</defs>
</svg>
