<svg width="401" height="400" viewBox="0 0 401 400" fill="none" xmlns="http://www.w3.org/2000/svg">
<g filter="url(#filter0_d_381_1547)">
<rect x="57.755" y="123.695" width="152.61" height="152.61" rx="12.2088" fill="white" shape-rendering="crispEdges"/>
<rect x="58.1365" y="124.076" width="151.847" height="151.847" rx="11.8273" stroke="#212528" stroke-width="0.763052" shape-rendering="crispEdges"/>
<g clip-path="url(#clip0_381_1547)">
<path d="M113.047 190.462H108.857V209.538H113.047V190.462Z" fill="#1A237E"/>
<path fill-rule="evenodd" clip-rule="evenodd" d="M136.164 209.538H129.316C123.65 209.538 118.626 206.224 118.626 200.053C118.626 193.075 123.756 190.462 129.88 190.462H136.164V199.377H131.974V194.341H129.504C125.959 194.341 122.977 196.092 122.977 199.835C122.977 204.172 125.905 205.654 129.799 205.654H136.164V209.538Z" fill="#1A237E"/>
<path fill-rule="evenodd" clip-rule="evenodd" d="M165.933 209.537H170.122V201.296H178.26V209.537H182.45V190.46H178.26V197.574H170.122V190.46H165.933V209.537Z" fill="#1A237E"/>
<path fill-rule="evenodd" clip-rule="evenodd" d="M142.949 190.466H149.797C155.464 190.466 160.486 193.779 160.486 199.95C160.486 206.928 155.356 209.541 149.232 209.541H142.948V200.626H147.137V205.663H149.608C153.153 205.663 156.134 203.911 156.134 200.169C156.134 195.831 153.207 194.349 149.313 194.349H142.947L142.949 190.466Z" fill="#1A237E"/>
<path fill-rule="evenodd" clip-rule="evenodd" d="M103.023 198.308H95.9439V201.999H99.1899V204.948C98.0327 205.558 96.7405 205.867 95.4326 205.846C92.0332 205.846 89.8105 203.385 89.8105 200C89.8105 196.615 92.034 194.154 95.4326 194.154C96.2465 194.1 97.0623 194.226 97.822 194.523C98.5817 194.82 99.2668 195.281 99.8286 195.872L102.64 192.795C100.825 191.103 98.2948 190.462 95.4326 190.462C89.786 190.462 85.6694 194.18 85.6694 200C85.6694 205.82 89.7838 209.538 95.4326 209.538C98.0672 209.584 100.673 208.985 103.023 207.795V198.308Z" fill="#1A237E"/>
</g>
</g>
<g filter="url(#filter1_d_381_1547)">
<rect x="228.679" y="142.771" width="114.458" height="114.458" rx="12.2088" fill="white" shape-rendering="crispEdges"/>
<rect x="229.06" y="143.153" width="113.695" height="113.695" rx="11.8273" stroke="#212528" stroke-width="0.763052" shape-rendering="crispEdges"/>
<path d="M293.538 188.922V176.713H278.277V182.817H272.173V204.183H284.382V198.078H287.434V204.183H299.643V188.922H293.538ZM278.277 201.131H275.225V198.078H278.277V201.131ZM278.277 195.026H275.225V191.974H278.277V195.026ZM278.277 188.922H275.225V185.87H278.277V188.922ZM284.382 195.026H281.329V191.974H284.382V195.026ZM284.382 188.922H281.329V185.87H284.382V188.922ZM284.382 182.817H281.329V179.765H284.382V182.817ZM290.486 195.026H287.434V191.974H290.486V195.026ZM290.486 188.922H287.434V185.87H290.486V188.922ZM290.486 182.817H287.434V179.765H290.486V182.817ZM296.59 201.131H293.538V198.078H296.59V201.131ZM296.59 195.026H293.538V191.974H296.59V195.026Z" fill="#0080FF"/>
<path d="M271.674 224.866V217.096H274.648C275.21 217.096 275.676 217.185 276.048 217.362C276.422 217.536 276.702 217.775 276.886 218.079C277.073 218.382 277.167 218.726 277.167 219.111C277.167 219.427 277.106 219.697 276.985 219.922C276.864 220.145 276.7 220.326 276.496 220.465C276.291 220.604 276.062 220.704 275.809 220.765V220.841C276.085 220.856 276.349 220.94 276.602 221.095C276.857 221.246 277.066 221.461 277.228 221.74C277.39 222.018 277.47 222.354 277.47 222.749C277.47 223.151 277.373 223.512 277.178 223.834C276.984 224.152 276.69 224.404 276.298 224.589C275.906 224.773 275.413 224.866 274.819 224.866H271.674ZM273.081 223.69H274.595C275.106 223.69 275.474 223.592 275.699 223.397C275.927 223.2 276.04 222.947 276.04 222.639C276.04 222.409 275.983 222.201 275.87 222.017C275.756 221.829 275.594 221.683 275.384 221.577C275.174 221.468 274.924 221.413 274.633 221.413H273.081V223.69ZM273.081 220.4H274.474C274.716 220.4 274.935 220.356 275.13 220.268C275.325 220.177 275.478 220.049 275.589 219.885C275.703 219.718 275.76 219.52 275.76 219.293C275.76 218.992 275.653 218.744 275.441 218.549C275.231 218.354 274.919 218.257 274.504 218.257H273.081V220.4ZM279.693 224.866H278.19L280.925 217.096H282.663L285.402 224.866H283.9L281.825 218.69H281.764L279.693 224.866ZM279.742 221.819H283.839V222.95H279.742V221.819ZM292.81 217.096V224.866H291.558L287.897 219.573H287.833V224.866H286.425V217.096H287.685L291.342 222.392H291.41V217.096H292.81ZM294.343 224.866V217.096H295.751V220.666H295.846L298.877 217.096H300.595L297.591 220.583L300.622 224.866H298.93L296.612 221.535L295.751 222.551V224.866H294.343Z" fill="#0080FF"/>
</g>
<path d="M213.865 199C213.313 199 212.865 199.448 212.865 200C212.865 200.553 213.313 201 213.865 201V199ZM225.886 200.707C226.276 200.317 226.276 199.684 225.886 199.293L219.522 192.929C219.131 192.539 218.498 192.539 218.108 192.929C217.717 193.32 217.717 193.953 218.108 194.343L223.764 200L218.108 205.657C217.717 206.048 217.717 206.681 218.108 207.071C218.498 207.462 219.131 207.462 219.522 207.071L225.886 200.707ZM213.865 200V201H225.179V200V199H213.865V200Z" fill="#212528"/>
<g filter="url(#filter2_d_381_1547)">
<rect x="228.679" y="10" width="114.458" height="114.458" rx="12.2088" fill="white" shape-rendering="crispEdges"/>
<rect x="229.06" y="10.3815" width="113.695" height="113.695" rx="11.8273" stroke="#212528" stroke-width="0.763052" shape-rendering="crispEdges"/>
<path d="M278.277 56.1506H275.225V66.8333H278.277V56.1506ZM287.434 56.1506H284.382V66.8333H287.434V56.1506ZM300.406 69.8855H271.41V72.9377H300.406V69.8855ZM296.59 56.1506H293.538V66.8333H296.59V56.1506ZM285.908 45.8646L293.859 50.0462H277.957L285.908 45.8646ZM285.908 42.4156L271.41 50.0462V53.0984H300.406V50.0462L285.908 42.4156Z" fill="#FF0000"/>
<path d="M271.674 92.0944V84.3251H274.648C275.21 84.3251 275.676 84.4136 276.048 84.5907C276.422 84.7652 276.702 85.0042 276.886 85.3076C277.073 85.6111 277.167 85.9551 277.167 86.3395C277.167 86.6556 277.106 86.9262 276.985 87.1513C276.864 87.3739 276.7 87.5547 276.496 87.6938C276.291 87.8329 276.062 87.9328 275.809 87.9935V88.0694C276.085 88.0845 276.349 88.1693 276.602 88.3235C276.857 88.4753 277.066 88.6903 277.228 88.9684C277.39 89.2466 277.47 89.583 277.47 89.9775C277.47 90.3797 277.373 90.7413 277.178 91.0625C276.984 91.3812 276.69 91.6328 276.298 91.8174C275.906 92.002 275.413 92.0944 274.819 92.0944H271.674ZM273.081 90.9183H274.595C275.106 90.9183 275.474 90.821 275.699 90.6262C275.927 90.429 276.04 90.1761 276.04 89.8675C276.04 89.6374 275.983 89.43 275.87 89.2454C275.756 89.0582 275.594 88.9115 275.384 88.8053C275.174 88.6966 274.924 88.6422 274.633 88.6422H273.081V90.9183ZM273.081 87.6293H274.474C274.716 87.6293 274.935 87.5851 275.13 87.4965C275.325 87.4055 275.478 87.2778 275.589 87.1134C275.703 86.9465 275.76 86.7492 275.76 86.5216C275.76 86.2206 275.653 85.9728 275.441 85.778C275.231 85.5833 274.919 85.4859 274.504 85.4859H273.081V87.6293ZM279.693 92.0944H278.19L280.925 84.3251H282.663L285.402 92.0944H283.9L281.825 85.9184H281.764L279.693 92.0944ZM279.742 89.0481H283.839V90.1786H279.742V89.0481ZM292.81 84.3251V92.0944H291.558L287.897 86.8023H287.833V92.0944H286.425V84.3251H287.685L291.342 89.6209H291.41V84.3251H292.81ZM294.343 92.0944V84.3251H295.751V87.8949H295.846L298.877 84.3251H300.595L297.591 87.8114L300.622 92.0944H298.93L296.612 88.7636L295.751 89.7803V92.0944H294.343Z" fill="#FF0000"/>
</g>
<path d="M133.06 120.195C133.06 120.747 133.508 121.195 134.06 121.195C134.613 121.195 135.06 120.747 135.06 120.195H133.06ZM225.886 67.9361C226.276 67.5456 226.276 66.9124 225.886 66.5219L219.522 60.1579C219.131 59.7674 218.498 59.7674 218.108 60.1579C217.717 60.5485 217.717 61.1816 218.108 61.5721L223.765 67.229L218.108 72.8859C217.717 73.2764 217.717 73.9095 218.108 74.3001C218.498 74.6906 219.131 74.6906 219.522 74.3001L225.886 67.9361ZM134.06 120.195H135.06V91.229H134.06H133.06V120.195H134.06ZM158.06 67.229V68.229H225.179V67.229V66.229H158.06V67.229ZM134.06 91.229H135.06C135.06 78.5264 145.358 68.229 158.06 68.229V67.229V66.229C144.253 66.229 133.06 77.4219 133.06 91.229H134.06Z" fill="#212528"/>
<g filter="url(#filter3_d_381_1547)">
<rect x="228.679" y="275.542" width="114.458" height="114.458" rx="12.2088" fill="white" shape-rendering="crispEdges"/>
<rect x="229.06" y="275.924" width="113.695" height="113.695" rx="11.8273" stroke="#212528" stroke-width="0.763052" shape-rendering="crispEdges"/>
<path d="M293.538 327.797H296.59V330.849H293.538V327.797ZM293.538 321.693H296.59V324.745H293.538V321.693ZM293.538 315.588H296.59V318.641H293.538V315.588ZM288.563 315.588L290.486 316.87V315.588H288.563Z" fill="#FF6A00"/>
<path d="M282.855 309.484V311.788L285.908 313.818V312.536H299.643V333.902H293.538V336.954H302.695V309.484H282.855Z" fill="#FF6A00"/>
<path d="M280.063 313.604L290.486 320.548V336.954H269.12V320.899L280.063 313.604ZM282.855 333.902H287.434V321.937L280.063 317.252L272.173 322.273V333.902H276.751V324.745H282.855V333.902Z" fill="#FF6A00"/>
<path d="M271.674 357.636V349.867H274.648C275.21 349.867 275.676 349.956 276.048 350.133C276.422 350.307 276.702 350.546 276.886 350.85C277.073 351.153 277.167 351.497 277.167 351.882C277.167 352.198 277.106 352.468 276.985 352.693C276.864 352.916 276.7 353.097 276.496 353.236C276.291 353.375 276.062 353.475 275.809 353.536V353.611C276.085 353.627 276.349 353.711 276.602 353.866C276.857 354.017 277.066 354.232 277.228 354.511C277.39 354.789 277.47 355.125 277.47 355.52C277.47 355.922 277.373 356.283 277.178 356.605C276.984 356.923 276.69 357.175 276.298 357.36C275.906 357.544 275.413 357.636 274.819 357.636H271.674ZM273.081 356.46H274.595C275.106 356.46 275.474 356.363 275.699 356.168C275.927 355.971 276.04 355.718 276.04 355.41C276.04 355.179 275.983 354.972 275.87 354.787C275.756 354.6 275.594 354.454 275.384 354.347C275.174 354.239 274.924 354.184 274.633 354.184H273.081V356.46ZM273.081 353.171H274.474C274.716 353.171 274.935 353.127 275.13 353.039C275.325 352.948 275.478 352.82 275.589 352.655C275.703 352.489 275.76 352.291 275.76 352.064C275.76 351.763 275.653 351.515 275.441 351.32C275.231 351.125 274.919 351.028 274.504 351.028H273.081V353.171ZM279.693 357.636H278.19L280.925 349.867H282.663L285.402 357.636H283.9L281.825 351.461H281.764L279.693 357.636ZM279.742 354.59H283.839V355.721H279.742V354.59ZM292.81 349.867V357.636H291.558L287.897 352.344H287.833V357.636H286.425V349.867H287.685L291.342 355.163H291.41V349.867H292.81ZM294.343 357.636V349.867H295.751V353.437H295.846L298.877 349.867H300.595L297.591 353.354L300.622 357.636H298.93L296.612 354.306L295.751 355.322V357.636H294.343Z" fill="#FF6A00"/>
</g>
<path d="M135.06 279.805C135.06 279.253 134.613 278.805 134.06 278.805C133.508 278.805 133.06 279.253 133.06 279.805H135.06ZM225.886 333.478C226.276 333.088 226.276 332.454 225.886 332.064L219.522 325.7C219.131 325.309 218.498 325.309 218.108 325.7C217.717 326.09 217.717 326.724 218.108 327.114L223.765 332.771L218.108 338.428C217.717 338.818 217.717 339.451 218.108 339.842C218.498 340.233 219.131 340.233 219.522 339.842L225.886 333.478ZM134.06 279.805H133.06V308.771H134.06H135.06V279.805H134.06ZM158.06 332.771V333.771H225.179V332.771V331.771H158.06V332.771ZM134.06 308.771H133.06C133.06 322.578 144.253 333.771 158.06 333.771V332.771V331.771C145.358 331.771 135.06 321.474 135.06 308.771H134.06Z" fill="#212528"/>
<defs>
<filter id="filter0_d_381_1547" x="57.755" y="123.695" width="155.663" height="155.663" filterUnits="userSpaceOnUse" color-interpolation-filters="sRGB">
<feFlood flood-opacity="0" result="BackgroundImageFix"/>
<feColorMatrix in="SourceAlpha" type="matrix" values="0 0 0 0 0 0 0 0 0 0 0 0 0 0 0 0 0 0 127 0" result="hardAlpha"/>
<feOffset dx="3.05221" dy="3.05221"/>
<feComposite in2="hardAlpha" operator="out"/>
<feColorMatrix type="matrix" values="0 0 0 0 0.517647 0 0 0 0 0.556863 0 0 0 0 0.901961 0 0 0 1 0"/>
<feBlend mode="normal" in2="BackgroundImageFix" result="effect1_dropShadow_381_1547"/>
<feBlend mode="normal" in="SourceGraphic" in2="effect1_dropShadow_381_1547" result="shape"/>
</filter>
<filter id="filter1_d_381_1547" x="228.679" y="142.771" width="117.51" height="117.51" filterUnits="userSpaceOnUse" color-interpolation-filters="sRGB">
<feFlood flood-opacity="0" result="BackgroundImageFix"/>
<feColorMatrix in="SourceAlpha" type="matrix" values="0 0 0 0 0 0 0 0 0 0 0 0 0 0 0 0 0 0 127 0" result="hardAlpha"/>
<feOffset dx="3.05221" dy="3.05221"/>
<feComposite in2="hardAlpha" operator="out"/>
<feColorMatrix type="matrix" values="0 0 0 0 0.6 0 0 0 0 0.800784 0 0 0 0 1 0 0 0 1 0"/>
<feBlend mode="normal" in2="BackgroundImageFix" result="effect1_dropShadow_381_1547"/>
<feBlend mode="normal" in="SourceGraphic" in2="effect1_dropShadow_381_1547" result="shape"/>
</filter>
<filter id="filter2_d_381_1547" x="228.679" y="10" width="117.51" height="117.51" filterUnits="userSpaceOnUse" color-interpolation-filters="sRGB">
<feFlood flood-opacity="0" result="BackgroundImageFix"/>
<feColorMatrix in="SourceAlpha" type="matrix" values="0 0 0 0 0 0 0 0 0 0 0 0 0 0 0 0 0 0 127 0" result="hardAlpha"/>
<feOffset dx="3.05221" dy="3.05221"/>
<feComposite in2="hardAlpha" operator="out"/>
<feColorMatrix type="matrix" values="0 0 0 0 1 0 0 0 0 0.6 0 0 0 0 0.6 0 0 0 1 0"/>
<feBlend mode="normal" in2="BackgroundImageFix" result="effect1_dropShadow_381_1547"/>
<feBlend mode="normal" in="SourceGraphic" in2="effect1_dropShadow_381_1547" result="shape"/>
</filter>
<filter id="filter3_d_381_1547" x="228.679" y="275.542" width="117.51" height="117.51" filterUnits="userSpaceOnUse" color-interpolation-filters="sRGB">
<feFlood flood-opacity="0" result="BackgroundImageFix"/>
<feColorMatrix in="SourceAlpha" type="matrix" values="0 0 0 0 0 0 0 0 0 0 0 0 0 0 0 0 0 0 127 0" result="hardAlpha"/>
<feOffset dx="3.05221" dy="3.05221"/>
<feComposite in2="hardAlpha" operator="out"/>
<feColorMatrix type="matrix" values="0 0 0 0 1 0 0 0 0 0.766275 0 0 0 0 0.6 0 0 0 1 0"/>
<feBlend mode="normal" in2="BackgroundImageFix" result="effect1_dropShadow_381_1547"/>
<feBlend mode="normal" in="SourceGraphic" in2="effect1_dropShadow_381_1547" result="shape"/>
</filter>
<clipPath id="clip0_381_1547">
<rect width="96.7802" height="19.0763" fill="white" transform="translate(85.6701 190.462)"/>
</clipPath>
</defs>
</svg>
