<svg width="401" height="400" viewBox="0 0 401 400" fill="none" xmlns="http://www.w3.org/2000/svg">
<g filter="url(#filter0_d_387_634)">
<rect x="11" y="10" width="380" height="380" rx="27.1429" fill="white" shape-rendering="crispEdges"/>
<rect x="12.6286" y="11.6286" width="376.743" height="376.743" rx="25.5143" stroke="#212528" stroke-width="3.25714" shape-rendering="crispEdges"/>
<path d="M89.8361 125.943V106.992H97.0907C98.4602 106.992 99.5983 107.208 100.505 107.64C101.418 108.066 102.1 108.649 102.55 109.389C103.007 110.129 103.235 110.968 103.235 111.906C103.235 112.677 103.087 113.337 102.791 113.886C102.495 114.429 102.097 114.87 101.597 115.209C101.097 115.548 100.539 115.792 99.9222 115.94V116.125C100.595 116.162 101.239 116.369 101.856 116.745C102.479 117.115 102.988 117.64 103.383 118.318C103.778 118.997 103.975 119.817 103.975 120.78C103.975 121.76 103.738 122.643 103.263 123.426C102.788 124.203 102.072 124.817 101.116 125.267C100.16 125.718 98.9567 125.943 97.5071 125.943H89.8361ZM93.2691 123.074H96.9611C98.2072 123.074 99.1048 122.837 99.6538 122.362C100.209 121.881 100.487 121.264 100.487 120.511C100.487 119.95 100.348 119.444 100.07 118.994C99.7926 118.537 99.3978 118.179 98.8858 117.92C98.3738 117.655 97.7631 117.522 97.0537 117.522H93.2691V123.074ZM93.2691 115.052H96.665C97.2572 115.052 97.7908 114.944 98.2658 114.728C98.7408 114.506 99.114 114.194 99.3855 113.793C99.6631 113.386 99.8019 112.905 99.8019 112.35C99.8019 111.616 99.5428 111.011 99.0246 110.536C98.5126 110.061 97.7507 109.824 96.739 109.824H93.2691V115.052ZM110.903 126.23C110.003 126.23 109.192 126.069 108.47 125.749C107.754 125.422 107.187 124.94 106.767 124.305C106.354 123.67 106.147 122.886 106.147 121.955C106.147 121.153 106.295 120.49 106.591 119.965C106.888 119.441 107.292 119.021 107.804 118.707C108.316 118.392 108.892 118.155 109.534 117.994C110.182 117.828 110.851 117.707 111.542 117.633C112.375 117.547 113.05 117.47 113.568 117.402C114.087 117.328 114.463 117.217 114.697 117.069C114.938 116.915 115.058 116.677 115.058 116.357V116.301C115.058 115.604 114.852 115.064 114.438 114.682C114.025 114.299 113.43 114.108 112.652 114.108C111.832 114.108 111.181 114.287 110.7 114.645C110.225 115.002 109.904 115.425 109.738 115.912L106.61 115.468C106.857 114.605 107.264 113.883 107.831 113.303C108.399 112.717 109.093 112.279 109.913 111.989C110.734 111.693 111.641 111.545 112.634 111.545C113.319 111.545 114 111.625 114.679 111.785C115.357 111.946 115.977 112.211 116.539 112.581C117.1 112.945 117.55 113.442 117.89 114.071C118.235 114.7 118.408 115.487 118.408 116.431V125.943H115.188V123.99H115.077C114.873 124.385 114.586 124.755 114.216 125.101C113.852 125.44 113.393 125.715 112.837 125.924C112.288 126.128 111.644 126.23 110.903 126.23ZM111.773 123.768C112.446 123.768 113.029 123.636 113.522 123.37C114.016 123.099 114.395 122.741 114.66 122.297C114.932 121.853 115.067 121.369 115.067 120.844V119.169C114.963 119.256 114.784 119.336 114.531 119.41C114.284 119.484 114.006 119.549 113.698 119.604C113.389 119.66 113.084 119.709 112.782 119.752C112.48 119.796 112.217 119.833 111.995 119.863C111.496 119.931 111.048 120.042 110.654 120.197C110.259 120.351 109.947 120.567 109.719 120.844C109.491 121.116 109.377 121.467 109.377 121.899C109.377 122.516 109.602 122.982 110.052 123.296C110.502 123.611 111.076 123.768 111.773 123.768ZM121.776 125.943V111.73H125.024V114.099H125.172C125.431 113.278 125.875 112.646 126.504 112.202C127.14 111.751 127.865 111.526 128.679 111.526C128.864 111.526 129.071 111.536 129.299 111.554C129.533 111.566 129.728 111.588 129.882 111.619V114.7C129.74 114.651 129.515 114.608 129.206 114.571C128.904 114.527 128.611 114.506 128.327 114.506C127.717 114.506 127.168 114.638 126.68 114.904C126.199 115.163 125.82 115.524 125.542 115.986C125.264 116.449 125.126 116.983 125.126 117.587V125.943H121.776ZM137.722 126.22C136.303 126.22 135.084 125.909 134.067 125.286C133.055 124.663 132.275 123.802 131.726 122.704C131.183 121.6 130.911 120.329 130.911 118.892C130.911 117.448 131.189 116.175 131.744 115.07C132.299 113.96 133.083 113.096 134.094 112.479C135.112 111.856 136.315 111.545 137.703 111.545C138.857 111.545 139.878 111.758 140.766 112.183C141.66 112.603 142.373 113.198 142.903 113.969C143.434 114.734 143.736 115.629 143.81 116.653H140.609C140.479 115.968 140.171 115.397 139.683 114.941C139.202 114.478 138.558 114.247 137.749 114.247C137.065 114.247 136.463 114.432 135.945 114.802C135.427 115.166 135.023 115.69 134.733 116.375C134.449 117.06 134.307 117.88 134.307 118.836C134.307 119.805 134.449 120.638 134.733 121.335C135.017 122.026 135.415 122.559 135.927 122.936C136.445 123.306 137.052 123.491 137.749 123.491C138.243 123.491 138.684 123.398 139.073 123.213C139.467 123.022 139.797 122.747 140.063 122.39C140.328 122.032 140.51 121.597 140.609 121.085H143.81C143.73 122.09 143.434 122.982 142.922 123.759C142.41 124.53 141.713 125.135 140.831 125.573C139.949 126.005 138.912 126.22 137.722 126.22ZM152.761 126.22C151.373 126.22 150.17 125.915 149.152 125.304C148.134 124.694 147.344 123.839 146.783 122.741C146.228 121.643 145.95 120.36 145.95 118.892C145.95 117.424 146.228 116.138 146.783 115.033C147.344 113.929 148.134 113.072 149.152 112.461C150.17 111.85 151.373 111.545 152.761 111.545C154.148 111.545 155.351 111.85 156.369 112.461C157.387 113.072 158.174 113.929 158.729 115.033C159.29 116.138 159.571 117.424 159.571 118.892C159.571 120.36 159.29 121.643 158.729 122.741C158.174 123.839 157.387 124.694 156.369 125.304C155.351 125.915 154.148 126.22 152.761 126.22ZM152.779 123.537C153.532 123.537 154.161 123.33 154.667 122.917C155.173 122.498 155.549 121.936 155.796 121.233C156.048 120.53 156.175 119.746 156.175 118.883C156.175 118.013 156.048 117.226 155.796 116.523C155.549 115.814 155.173 115.249 154.667 114.83C154.161 114.41 153.532 114.201 152.779 114.201C152.008 114.201 151.366 114.41 150.854 114.83C150.348 115.249 149.969 115.814 149.716 116.523C149.469 117.226 149.346 118.013 149.346 118.883C149.346 119.746 149.469 120.53 149.716 121.233C149.969 121.936 150.348 122.498 150.854 122.917C151.366 123.33 152.008 123.537 152.779 123.537ZM167.688 126.193C166.572 126.193 165.572 125.906 164.69 125.332C163.808 124.758 163.111 123.926 162.599 122.834C162.087 121.742 161.831 120.416 161.831 118.855C161.831 117.276 162.09 115.943 162.608 114.857C163.133 113.766 163.839 112.942 164.727 112.387C165.616 111.826 166.606 111.545 167.698 111.545C168.53 111.545 169.215 111.687 169.752 111.97C170.288 112.248 170.714 112.584 171.029 112.979C171.343 113.368 171.587 113.735 171.76 114.08H171.899V106.992H175.257V125.943H171.963V123.704H171.76C171.587 124.049 171.337 124.416 171.01 124.805C170.683 125.187 170.251 125.514 169.715 125.786C169.178 126.057 168.503 126.193 167.688 126.193ZM168.623 123.444C169.332 123.444 169.937 123.253 170.437 122.871C170.936 122.482 171.316 121.942 171.575 121.251C171.834 120.561 171.963 119.756 171.963 118.836C171.963 117.917 171.834 117.118 171.575 116.44C171.322 115.761 170.945 115.234 170.446 114.857C169.952 114.481 169.345 114.293 168.623 114.293C167.876 114.293 167.253 114.487 166.754 114.876C166.254 115.265 165.878 115.801 165.625 116.486C165.372 117.171 165.245 117.954 165.245 118.836C165.245 119.725 165.372 120.517 165.625 121.214C165.884 121.905 166.263 122.451 166.763 122.852C167.269 123.247 167.889 123.444 168.623 123.444ZM185.119 126.22C183.694 126.22 182.463 125.924 181.427 125.332C180.397 124.734 179.604 123.889 179.049 122.797C178.494 121.699 178.216 120.406 178.216 118.92C178.216 117.458 178.494 116.175 179.049 115.07C179.61 113.96 180.394 113.096 181.399 112.479C182.405 111.856 183.586 111.545 184.943 111.545C185.819 111.545 186.646 111.687 187.423 111.97C188.207 112.248 188.898 112.68 189.496 113.266C190.1 113.852 190.575 114.598 190.921 115.505C191.266 116.406 191.439 117.479 191.439 118.725V119.752H179.789V117.495H188.228C188.222 116.853 188.083 116.282 187.812 115.783C187.54 115.277 187.161 114.879 186.674 114.589C186.192 114.299 185.631 114.154 184.99 114.154C184.305 114.154 183.703 114.321 183.185 114.654C182.667 114.981 182.263 115.413 181.973 115.949C181.689 116.48 181.544 117.063 181.538 117.698V119.669C181.538 120.496 181.689 121.205 181.992 121.797C182.294 122.383 182.716 122.834 183.259 123.148C183.802 123.457 184.437 123.611 185.165 123.611C185.653 123.611 186.094 123.543 186.489 123.407C186.883 123.266 187.226 123.059 187.516 122.788C187.806 122.516 188.025 122.18 188.173 121.779L191.3 122.131C191.103 122.957 190.727 123.679 190.171 124.296C189.622 124.907 188.919 125.382 188.062 125.721C187.204 126.054 186.223 126.22 185.119 126.22ZM211.97 115.487L208.916 115.82C208.83 115.511 208.679 115.221 208.463 114.95C208.253 114.679 207.969 114.46 207.611 114.293C207.254 114.126 206.816 114.043 206.297 114.043C205.6 114.043 205.014 114.194 204.539 114.497C204.071 114.799 203.839 115.191 203.845 115.672C203.839 116.085 203.99 116.421 204.299 116.68C204.613 116.939 205.132 117.152 205.853 117.319L208.278 117.837C209.622 118.127 210.622 118.587 211.276 119.216C211.936 119.845 212.269 120.669 212.275 121.686C212.269 122.581 212.007 123.37 211.489 124.055C210.977 124.734 210.264 125.264 209.351 125.647C208.438 126.029 207.389 126.22 206.205 126.22C204.465 126.22 203.065 125.857 202.004 125.129C200.943 124.394 200.311 123.374 200.107 122.066L203.373 121.751C203.522 122.393 203.836 122.877 204.317 123.204C204.798 123.531 205.425 123.694 206.196 123.694C206.991 123.694 207.63 123.531 208.111 123.204C208.598 122.877 208.842 122.473 208.842 121.992C208.842 121.585 208.685 121.248 208.37 120.983C208.062 120.718 207.581 120.514 206.927 120.372L204.502 119.863C203.139 119.58 202.13 119.102 201.477 118.429C200.823 117.751 200.499 116.893 200.505 115.857C200.499 114.981 200.736 114.222 201.217 113.581C201.705 112.933 202.38 112.433 203.244 112.082C204.114 111.724 205.116 111.545 206.251 111.545C207.917 111.545 209.228 111.9 210.184 112.609C211.146 113.318 211.741 114.278 211.97 115.487ZM221.237 126.22C219.818 126.22 218.6 125.909 217.582 125.286C216.57 124.663 215.79 123.802 215.241 122.704C214.698 121.6 214.426 120.329 214.426 118.892C214.426 117.448 214.704 116.175 215.259 115.07C215.814 113.96 216.598 113.096 217.61 112.479C218.627 111.856 219.83 111.545 221.218 111.545C222.372 111.545 223.393 111.758 224.281 112.183C225.176 112.603 225.888 113.198 226.419 113.969C226.949 114.734 227.251 115.629 227.325 116.653H224.124C223.994 115.968 223.686 115.397 223.199 114.941C222.717 114.478 222.073 114.247 221.265 114.247C220.58 114.247 219.978 114.432 219.46 114.802C218.942 115.166 218.538 115.69 218.248 116.375C217.964 117.06 217.822 117.88 217.822 118.836C217.822 119.805 217.964 120.638 218.248 121.335C218.532 122.026 218.93 122.559 219.442 122.936C219.96 123.306 220.568 123.491 221.265 123.491C221.758 123.491 222.199 123.398 222.588 123.213C222.983 123.022 223.313 122.747 223.578 122.39C223.843 122.032 224.025 121.597 224.124 121.085H227.325C227.245 122.09 226.949 122.982 226.437 123.759C225.925 124.53 225.228 125.135 224.346 125.573C223.464 126.005 222.427 126.22 221.237 126.22ZM234.166 126.23C233.265 126.23 232.454 126.069 231.732 125.749C231.017 125.422 230.449 124.94 230.03 124.305C229.616 123.67 229.41 122.886 229.41 121.955C229.41 121.153 229.558 120.49 229.854 119.965C230.15 119.441 230.554 119.021 231.066 118.707C231.578 118.392 232.155 118.155 232.796 117.994C233.444 117.828 234.114 117.707 234.804 117.633C235.637 117.547 236.313 117.47 236.831 117.402C237.349 117.328 237.725 117.217 237.96 117.069C238.2 116.915 238.321 116.677 238.321 116.357V116.301C238.321 115.604 238.114 115.064 237.701 114.682C237.287 114.299 236.692 114.108 235.915 114.108C235.094 114.108 234.444 114.287 233.962 114.645C233.487 115.002 233.167 115.425 233 115.912L229.872 115.468C230.119 114.605 230.526 113.883 231.094 113.303C231.661 112.717 232.355 112.279 233.176 111.989C233.996 111.693 234.903 111.545 235.896 111.545C236.581 111.545 237.263 111.625 237.941 111.785C238.62 111.946 239.24 112.211 239.801 112.581C240.363 112.945 240.813 113.442 241.152 114.071C241.498 114.7 241.67 115.487 241.67 116.431V125.943H238.45V123.99H238.339C238.136 124.385 237.849 124.755 237.479 125.101C237.115 125.44 236.655 125.715 236.1 125.924C235.551 126.128 234.906 126.23 234.166 126.23ZM235.036 123.768C235.708 123.768 236.291 123.636 236.785 123.37C237.278 123.099 237.658 122.741 237.923 122.297C238.194 121.853 238.33 121.369 238.33 120.844V119.169C238.225 119.256 238.046 119.336 237.793 119.41C237.546 119.484 237.269 119.549 236.96 119.604C236.652 119.66 236.347 119.709 236.044 119.752C235.742 119.796 235.48 119.833 235.258 119.863C234.758 119.931 234.311 120.042 233.916 120.197C233.521 120.351 233.21 120.567 232.982 120.844C232.753 121.116 232.639 121.467 232.639 121.899C232.639 122.516 232.864 122.982 233.315 123.296C233.765 123.611 234.339 123.768 235.036 123.768ZM248.388 117.615V125.943H245.039V111.73H248.24V114.145H248.407C248.734 113.349 249.255 112.717 249.97 112.248C250.692 111.779 251.584 111.545 252.645 111.545C253.626 111.545 254.48 111.755 255.208 112.174C255.942 112.594 256.509 113.201 256.91 113.997C257.318 114.793 257.518 115.758 257.512 116.893V125.943H254.162V117.411C254.162 116.461 253.915 115.718 253.422 115.181C252.935 114.645 252.259 114.376 251.395 114.376C250.809 114.376 250.288 114.506 249.832 114.765C249.381 115.018 249.027 115.385 248.768 115.866C248.515 116.347 248.388 116.93 248.388 117.615ZM264.267 117.615V125.943H260.917V111.73H264.119V114.145H264.285C264.612 113.349 265.133 112.717 265.849 112.248C266.571 111.779 267.462 111.545 268.523 111.545C269.504 111.545 270.358 111.755 271.086 112.174C271.82 112.594 272.388 113.201 272.789 113.997C273.196 114.793 273.397 115.758 273.39 116.893V125.943H270.041V117.411C270.041 116.461 269.794 115.718 269.301 115.181C268.813 114.645 268.138 114.376 267.274 114.376C266.688 114.376 266.167 114.506 265.71 114.765C265.26 115.018 264.905 115.385 264.646 115.866C264.393 116.347 264.267 116.93 264.267 117.615ZM276.796 125.943V111.73H280.145V125.943H276.796ZM278.48 109.713C277.949 109.713 277.493 109.537 277.11 109.185C276.728 108.827 276.537 108.399 276.537 107.899C276.537 107.393 276.728 106.964 277.11 106.613C277.493 106.255 277.949 106.076 278.48 106.076C279.016 106.076 279.473 106.255 279.849 106.613C280.232 106.964 280.423 107.393 280.423 107.899C280.423 108.399 280.232 108.827 279.849 109.185C279.473 109.537 279.016 109.713 278.48 109.713ZM286.94 117.615V125.943H283.59V111.73H286.791V114.145H286.958C287.285 113.349 287.806 112.717 288.522 112.248C289.244 111.779 290.135 111.545 291.196 111.545C292.177 111.545 293.031 111.755 293.759 112.174C294.493 112.594 295.061 113.201 295.462 113.997C295.869 114.793 296.069 115.758 296.063 116.893V125.943H292.714V117.411C292.714 116.461 292.467 115.718 291.973 115.181C291.486 114.645 290.81 114.376 289.947 114.376C289.361 114.376 288.84 114.506 288.383 114.765C287.933 115.018 287.578 115.385 287.319 115.866C287.066 116.347 286.94 116.93 286.94 117.615ZM305.65 131.569C304.447 131.569 303.413 131.405 302.55 131.078C301.686 130.758 300.992 130.326 300.468 129.783C299.943 129.24 299.579 128.639 299.376 127.979L302.392 127.248C302.528 127.525 302.726 127.8 302.985 128.071C303.244 128.349 303.592 128.577 304.03 128.756C304.474 128.941 305.033 129.033 305.705 129.033C306.655 129.033 307.442 128.802 308.065 128.339C308.688 127.883 308.999 127.13 308.999 126.082V123.389H308.833C308.66 123.734 308.407 124.089 308.074 124.453C307.747 124.817 307.312 125.122 306.769 125.369C306.233 125.616 305.557 125.739 304.743 125.739C303.651 125.739 302.661 125.483 301.772 124.971C300.89 124.453 300.187 123.682 299.663 122.658C299.145 121.628 298.885 120.338 298.885 118.79C298.885 117.229 299.145 115.912 299.663 114.839C300.187 113.759 300.893 112.942 301.782 112.387C302.67 111.826 303.66 111.545 304.752 111.545C305.585 111.545 306.27 111.687 306.806 111.97C307.349 112.248 307.781 112.584 308.102 112.979C308.422 113.368 308.666 113.735 308.833 114.08H309.018V111.73H312.321V126.174C312.321 127.389 312.031 128.395 311.451 129.191C310.872 129.987 310.079 130.582 309.073 130.977C308.068 131.371 306.927 131.569 305.65 131.569ZM305.677 123.111C306.387 123.111 306.991 122.939 307.491 122.593C307.991 122.248 308.37 121.751 308.629 121.103C308.888 120.456 309.018 119.678 309.018 118.772C309.018 117.877 308.888 117.094 308.629 116.421C308.376 115.749 308 115.228 307.5 114.857C307.007 114.481 306.399 114.293 305.677 114.293C304.931 114.293 304.308 114.487 303.808 114.876C303.309 115.265 302.932 115.798 302.679 116.477C302.426 117.149 302.3 117.914 302.3 118.772C302.3 119.641 302.426 120.403 302.679 121.057C302.938 121.705 303.318 122.211 303.817 122.575C304.323 122.932 304.943 123.111 305.677 123.111Z" fill="#212528"/>
<path d="M65.2 298.676H59.0612V159.151H65.2V298.676Z" fill="#070B0F"/>
<path d="M71.3382 298.676H67.5017V159.151H71.3382V298.676Z" fill="#070B0F"/>
<path d="M335.285 298.676H329.147V159.151H335.285V298.676Z" fill="#070B0F"/>
<path d="M339.554 298.676H337.157V159.151H339.554V298.676Z" fill="#070B0F"/>
<path d="M342.939 298.676H341.44V159.151H342.939V298.676Z" fill="#070B0F"/>
<path d="M79.4 299.057H76.1428V159H79.4V299.057Z" fill="#070B0F"/>
<path d="M90.2572 299.057H82.6572V159H90.2572V299.057Z" fill="#070B0F"/>
<path d="M94.6 299.057H92.4286V159H94.6V299.057Z" fill="#070B0F"/>
<path d="M98.9429 299.057H97.8572V159H98.9429V299.057Z" fill="#070B0F"/>
<path d="M120.657 299.057H119.571V159H120.657V299.057Z" fill="#070B0F"/>
<path d="M125 299.057H122.829V159H125V299.057Z" fill="#070B0F"/>
<path d="M106.543 299.057H104.371V159H106.543V299.057Z" fill="#070B0F"/>
<path d="M117.4 299.057H111.971V159H117.4V299.057Z" fill="#070B0F"/>
<path d="M132.6 299.057H128.257V159H132.6V299.057Z" fill="#070B0F"/>
<path d="M147.8 299.057H136.943V159H147.8V299.057Z" fill="#070B0F"/>
<path d="M308.486 299.057H297.629V159H308.486V299.057Z" fill="#070B0F"/>
<path d="M315 299.057H311.743V159H315V299.057Z" fill="#070B0F"/>
<path d="M320.429 299.057H318.257V159H320.429V299.057Z" fill="#070B0F"/>
<path d="M325.857 299.057H322.6V159H325.857V299.057Z" fill="#070B0F"/>
<path d="M270.486 299.057H269.4V159H270.486V299.057Z" fill="#070B0F"/>
<path d="M275.914 299.057H273.743V159H275.914V299.057Z" fill="#070B0F"/>
<path d="M280.257 299.057H279.172V159H280.257V299.057Z" fill="#070B0F"/>
<path d="M285.686 299.057H284.6V159H285.686V299.057Z" fill="#070B0F"/>
<path d="M293.286 299.057H287.857V159H293.286V299.057Z" fill="#070B0F"/>
<path d="M188.585 191.112H175.759V203.938H167.208V182.561H188.585V191.112ZM252.717 203.938V182.561H231.34V191.112H244.166V203.938H252.717ZM188.585 268.07H175.759V255.244H167.208V276.621H188.585V268.07ZM244.166 255.244V268.07H231.34V276.621H252.717V255.244H244.166ZM231.34 203.938H188.585V255.244H231.34V203.938ZM239.891 255.244C239.891 259.947 236.043 263.795 231.34 263.795H188.585C183.882 263.795 180.034 259.947 180.034 255.244V203.938C180.034 199.235 183.882 195.387 188.585 195.387H231.34C236.043 195.387 239.891 199.235 239.891 203.938V255.244ZM222.789 212.489H197.136V221.04H222.789V212.489ZM222.789 225.316H197.136V233.866H222.789V225.316ZM222.789 238.142H197.136V246.693H222.789V238.142Z" fill="#29A653"/>
</g>
<defs>
<filter id="filter0_d_387_634" x="11" y="10" width="386.786" height="386.786" filterUnits="userSpaceOnUse" color-interpolation-filters="sRGB">
<feFlood flood-opacity="0" result="BackgroundImageFix"/>
<feColorMatrix in="SourceAlpha" type="matrix" values="0 0 0 0 0 0 0 0 0 0 0 0 0 0 0 0 0 0 127 0" result="hardAlpha"/>
<feOffset dx="6.78571" dy="6.78571"/>
<feComposite in2="hardAlpha" operator="out"/>
<feColorMatrix type="matrix" values="0 0 0 0 0.667568 0 0 0 0 0.805297 0 0 0 0 0.932432 0 0 0 1 0"/>
<feBlend mode="normal" in2="BackgroundImageFix" result="effect1_dropShadow_387_634"/>
<feBlend mode="normal" in="SourceGraphic" in2="effect1_dropShadow_387_634" result="shape"/>
</filter>
</defs>
</svg>
