<svg width="401" height="400" viewBox="0 0 401 400" fill="none" xmlns="http://www.w3.org/2000/svg">
<g filter="url(#filter0_d_387_364)">
<rect x="86.5762" y="85.5762" width="105.948" height="105.948" rx="11.3011" fill="white" shape-rendering="crispEdges"/>
<rect x="86.9294" y="85.9293" width="105.242" height="105.242" rx="10.948" stroke="#212528" stroke-width="0.70632" shape-rendering="crispEdges"/>
<path d="M147.791 127.077V113.892H131.31V120.484H124.717V143.558H137.902V136.965H141.198V143.558H154.383V127.077H147.791ZM131.31 140.261H128.014V136.965H131.31V140.261ZM131.31 133.669H128.014V130.373H131.31V133.669ZM131.31 127.077H128.014V123.781H131.31V127.077ZM137.902 133.669H134.606V130.373H137.902V133.669ZM137.902 127.077H134.606V123.781H137.902V127.077ZM137.902 120.484H134.606V117.188H137.902V120.484ZM144.494 133.669H141.198V130.373H144.494V133.669ZM144.494 127.077H141.198V123.781H144.494V127.077ZM144.494 120.484H141.198V117.188H144.494V120.484ZM151.087 140.261H147.791V136.965H151.087V140.261ZM151.087 133.669H147.791V130.373H151.087V133.669Z" fill="#F2800D"/>
<path d="M120.861 165.152V156.933H124.007C124.601 156.933 125.095 157.027 125.488 157.214C125.884 157.399 126.18 157.652 126.375 157.973C126.573 158.294 126.672 158.658 126.672 159.064C126.672 159.399 126.608 159.685 126.479 159.923C126.351 160.159 126.178 160.35 125.962 160.497C125.745 160.644 125.503 160.75 125.235 160.814V160.894C125.527 160.91 125.806 161 126.074 161.163C126.344 161.324 126.565 161.551 126.736 161.845C126.907 162.14 126.993 162.496 126.993 162.913C126.993 163.338 126.89 163.721 126.684 164.061C126.478 164.398 126.168 164.664 125.753 164.859C125.338 165.055 124.817 165.152 124.188 165.152H120.861ZM122.35 163.908H123.951C124.491 163.908 124.881 163.805 125.119 163.599C125.36 163.391 125.48 163.123 125.48 162.797C125.48 162.553 125.42 162.334 125.299 162.138C125.179 161.94 125.008 161.785 124.786 161.673C124.564 161.558 124.299 161.5 123.991 161.5H122.35V163.908ZM122.35 160.429H123.823C124.079 160.429 124.311 160.382 124.517 160.288C124.723 160.192 124.885 160.057 125.002 159.883C125.123 159.706 125.183 159.498 125.183 159.257C125.183 158.939 125.071 158.676 124.846 158.47C124.624 158.264 124.294 158.161 123.855 158.161H122.35V160.429ZM128.224 165.152V158.988H129.633V160.015H129.697C129.809 159.66 130.002 159.385 130.275 159.193C130.55 158.997 130.865 158.9 131.218 158.9C131.298 158.9 131.388 158.904 131.487 158.912C131.588 158.917 131.673 158.927 131.74 158.94V160.276C131.678 160.255 131.58 160.236 131.447 160.22C131.316 160.201 131.188 160.192 131.065 160.192C130.801 160.192 130.562 160.25 130.351 160.365C130.142 160.477 129.978 160.634 129.857 160.834C129.737 161.035 129.677 161.266 129.677 161.528V165.152H128.224ZM134.368 165.277C133.978 165.277 133.626 165.207 133.313 165.068C133.002 164.926 132.756 164.718 132.574 164.442C132.395 164.166 132.305 163.827 132.305 163.423C132.305 163.075 132.37 162.787 132.498 162.56C132.627 162.332 132.802 162.15 133.024 162.014C133.246 161.878 133.496 161.775 133.774 161.705C134.055 161.633 134.346 161.581 134.645 161.549C135.006 161.511 135.299 161.478 135.524 161.448C135.749 161.416 135.912 161.368 136.014 161.304C136.118 161.237 136.17 161.134 136.17 160.995V160.971C136.17 160.668 136.081 160.434 135.901 160.268C135.722 160.102 135.464 160.019 135.127 160.019C134.771 160.019 134.489 160.097 134.28 160.252C134.074 160.407 133.935 160.591 133.863 160.802L132.506 160.609C132.613 160.235 132.79 159.922 133.036 159.67C133.282 159.416 133.583 159.226 133.939 159.1C134.295 158.972 134.688 158.908 135.119 158.908C135.416 158.908 135.711 158.943 136.006 159.012C136.3 159.082 136.569 159.197 136.812 159.357C137.056 159.515 137.251 159.731 137.398 160.003C137.548 160.276 137.623 160.617 137.623 161.027V165.152H136.226V164.306H136.178C136.09 164.477 135.966 164.637 135.805 164.787C135.647 164.934 135.448 165.053 135.207 165.144C134.969 165.233 134.689 165.277 134.368 165.277ZM134.745 164.209C135.037 164.209 135.29 164.152 135.504 164.037C135.718 163.919 135.883 163.764 135.998 163.571C136.115 163.379 136.174 163.168 136.174 162.941V162.215C136.129 162.252 136.051 162.287 135.941 162.319C135.834 162.351 135.714 162.379 135.58 162.403C135.446 162.427 135.314 162.449 135.183 162.468C135.052 162.486 134.938 162.502 134.842 162.516C134.625 162.545 134.431 162.593 134.26 162.66C134.089 162.727 133.954 162.821 133.855 162.941C133.756 163.059 133.706 163.211 133.706 163.399C133.706 163.666 133.804 163.868 133.999 164.005C134.194 164.141 134.443 164.209 134.745 164.209ZM140.537 161.54V165.152H139.084V158.988H140.472V160.036H140.545C140.686 159.69 140.912 159.416 141.223 159.213C141.536 159.01 141.922 158.908 142.383 158.908C142.808 158.908 143.179 158.999 143.494 159.181C143.813 159.363 144.059 159.626 144.233 159.971C144.409 160.316 144.496 160.735 144.494 161.227V165.152H143.041V161.452C143.041 161.04 142.934 160.718 142.72 160.485C142.508 160.252 142.215 160.136 141.841 160.136C141.587 160.136 141.361 160.192 141.163 160.304C140.967 160.414 140.813 160.573 140.701 160.782C140.591 160.991 140.537 161.244 140.537 161.54ZM148.659 165.273C148.044 165.273 147.515 165.138 147.074 164.867C146.635 164.597 146.297 164.224 146.059 163.748C145.823 163.269 145.705 162.718 145.705 162.094C145.705 161.468 145.826 160.916 146.067 160.437C146.307 159.955 146.647 159.581 147.086 159.313C147.527 159.043 148.049 158.908 148.651 158.908C149.151 158.908 149.594 159 149.98 159.185C150.367 159.367 150.676 159.625 150.907 159.959C151.137 160.291 151.268 160.679 151.3 161.123H149.911C149.855 160.826 149.721 160.579 149.51 160.381C149.301 160.18 149.022 160.08 148.671 160.08C148.374 160.08 148.113 160.16 147.889 160.32C147.664 160.478 147.489 160.706 147.363 161.003C147.24 161.3 147.178 161.656 147.178 162.07C147.178 162.49 147.24 162.851 147.363 163.154C147.486 163.453 147.659 163.685 147.881 163.848C148.105 164.009 148.369 164.089 148.671 164.089C148.885 164.089 149.077 164.049 149.245 163.968C149.416 163.886 149.559 163.766 149.675 163.611C149.79 163.456 149.868 163.267 149.911 163.045H151.3C151.265 163.482 151.137 163.868 150.915 164.205C150.693 164.54 150.39 164.802 150.008 164.992C149.625 165.179 149.176 165.273 148.659 165.273ZM153.946 161.54V165.152H152.493V156.933H153.913V160.036H153.986C154.13 159.688 154.354 159.413 154.656 159.213C154.961 159.01 155.349 158.908 155.82 158.908C156.248 158.908 156.621 158.997 156.939 159.177C157.258 159.356 157.504 159.618 157.678 159.963C157.854 160.308 157.943 160.73 157.943 161.227V165.152H156.49V161.452C156.49 161.037 156.383 160.715 156.169 160.485C155.957 160.252 155.661 160.136 155.278 160.136C155.021 160.136 154.791 160.192 154.588 160.304C154.387 160.414 154.229 160.573 154.114 160.782C154.002 160.991 153.946 161.244 153.946 161.54Z" fill="#212528"/>
</g>
<g filter="url(#filter1_d_387_364)">
<rect x="86.5762" y="208.476" width="105.948" height="105.948" rx="11.3011" fill="white" shape-rendering="crispEdges"/>
<rect x="86.9294" y="208.829" width="105.242" height="105.242" rx="10.948" stroke="#212528" stroke-width="0.70632" shape-rendering="crispEdges"/>
<path d="M147.791 249.976V236.792H131.31V243.384H124.717V266.457H137.902V259.865H141.198V266.457H154.383V249.976H147.791ZM131.31 263.161H128.014V259.865H131.31V263.161ZM131.31 256.569H128.014V253.273H131.31V256.569ZM131.31 249.976H128.014V246.68H131.31V249.976ZM137.902 256.569H134.606V253.273H137.902V256.569ZM137.902 249.976H134.606V246.68H137.902V249.976ZM137.902 243.384H134.606V240.088H137.902V243.384ZM144.494 256.569H141.198V253.273H144.494V256.569ZM144.494 249.976H141.198V246.68H144.494V249.976ZM144.494 243.384H141.198V240.088H144.494V243.384ZM151.087 263.161H147.791V259.865H151.087V263.161ZM151.087 256.569H147.791V253.273H151.087V256.569Z" fill="#0080FF"/>
<path d="M120.861 288.052V279.833H124.007C124.601 279.833 125.095 279.927 125.488 280.114C125.884 280.299 126.18 280.551 126.375 280.872C126.573 281.193 126.672 281.557 126.672 281.964C126.672 282.298 126.608 282.585 126.479 282.823C126.351 283.058 126.178 283.25 125.962 283.397C125.745 283.544 125.503 283.65 125.235 283.714V283.794C125.527 283.81 125.806 283.9 126.074 284.063C126.344 284.223 126.565 284.451 126.736 284.745C126.907 285.039 126.993 285.395 126.993 285.813C126.993 286.238 126.89 286.621 126.684 286.96C126.478 287.298 126.168 287.564 125.753 287.759C125.338 287.954 124.817 288.052 124.188 288.052H120.861ZM122.35 286.808H123.951C124.491 286.808 124.881 286.705 125.119 286.499C125.36 286.29 125.48 286.023 125.48 285.696C125.48 285.453 125.42 285.233 125.299 285.038C125.179 284.84 125.008 284.685 124.786 284.573C124.564 284.458 124.299 284.4 123.991 284.4H122.35V286.808ZM122.35 283.328H123.823C124.079 283.328 124.311 283.282 124.517 283.188C124.723 283.092 124.885 282.957 125.002 282.783C125.123 282.606 125.183 282.397 125.183 282.157C125.183 281.838 125.071 281.576 124.846 281.37C124.624 281.164 124.294 281.061 123.855 281.061H122.35V283.328ZM128.224 288.052V281.888H129.633V282.915H129.697C129.809 282.559 130.002 282.285 130.275 282.092C130.55 281.897 130.865 281.799 131.218 281.799C131.298 281.799 131.388 281.803 131.487 281.812C131.588 281.817 131.673 281.826 131.74 281.84V283.176C131.678 283.155 131.58 283.136 131.447 283.12C131.316 283.101 131.188 283.092 131.065 283.092C130.801 283.092 130.562 283.149 130.351 283.264C130.142 283.377 129.978 283.533 129.857 283.734C129.737 283.934 129.677 284.166 129.677 284.428V288.052H128.224ZM134.368 288.176C133.978 288.176 133.626 288.107 133.313 287.968C133.002 287.826 132.756 287.617 132.574 287.342C132.395 287.066 132.305 286.726 132.305 286.322C132.305 285.975 132.37 285.687 132.498 285.459C132.627 285.232 132.802 285.05 133.024 284.914C133.246 284.777 133.496 284.674 133.774 284.605C134.055 284.532 134.346 284.48 134.645 284.448C135.006 284.411 135.299 284.377 135.524 284.348C135.749 284.316 135.912 284.268 136.014 284.203C136.118 284.136 136.17 284.033 136.17 283.894V283.87C136.17 283.568 136.081 283.334 135.901 283.168C135.722 283.002 135.464 282.919 135.127 282.919C134.771 282.919 134.489 282.997 134.28 283.152C134.074 283.307 133.935 283.49 133.863 283.702L132.506 283.509C132.613 283.135 132.79 282.821 133.036 282.57C133.282 282.316 133.583 282.126 133.939 282C134.295 281.872 134.688 281.807 135.119 281.807C135.416 281.807 135.711 281.842 136.006 281.912C136.3 281.981 136.569 282.096 136.812 282.257C137.056 282.415 137.251 282.63 137.398 282.903C137.548 283.176 137.623 283.517 137.623 283.926V288.052H136.226V287.205H136.178C136.09 287.376 135.966 287.537 135.805 287.687C135.647 287.834 135.448 287.953 135.207 288.044C134.969 288.132 134.689 288.176 134.368 288.176ZM134.745 287.109C135.037 287.109 135.29 287.051 135.504 286.936C135.718 286.819 135.883 286.663 135.998 286.471C136.115 286.278 136.174 286.068 136.174 285.841V285.114C136.129 285.152 136.051 285.187 135.941 285.219C135.834 285.251 135.714 285.279 135.58 285.303C135.446 285.327 135.314 285.348 135.183 285.367C135.052 285.386 134.938 285.402 134.842 285.415C134.625 285.445 134.431 285.493 134.26 285.56C134.089 285.627 133.954 285.72 133.855 285.841C133.756 285.958 133.706 286.111 133.706 286.298C133.706 286.566 133.804 286.768 133.999 286.904C134.194 287.041 134.443 287.109 134.745 287.109ZM140.537 284.44V288.052H139.084V281.888H140.472V282.935H140.545C140.686 282.59 140.912 282.316 141.223 282.112C141.536 281.909 141.922 281.807 142.383 281.807C142.808 281.807 143.179 281.898 143.494 282.08C143.813 282.262 144.059 282.526 144.233 282.871C144.409 283.216 144.496 283.635 144.494 284.127V288.052H143.041V284.352C143.041 283.94 142.934 283.617 142.72 283.385C142.508 283.152 142.215 283.036 141.841 283.036C141.587 283.036 141.361 283.092 141.163 283.204C140.967 283.314 140.813 283.473 140.701 283.682C140.591 283.89 140.537 284.143 140.537 284.44ZM148.659 288.172C148.044 288.172 147.515 288.037 147.074 287.767C146.635 287.497 146.297 287.124 146.059 286.647C145.823 286.168 145.705 285.617 145.705 284.994C145.705 284.368 145.826 283.815 146.067 283.337C146.307 282.855 146.647 282.48 147.086 282.213C147.527 281.943 148.049 281.807 148.651 281.807C149.151 281.807 149.594 281.9 149.98 282.084C150.367 282.266 150.676 282.525 150.907 282.859C151.137 283.191 151.268 283.579 151.3 284.023H149.911C149.855 283.726 149.721 283.478 149.51 283.28C149.301 283.08 149.022 282.979 148.671 282.979C148.374 282.979 148.113 283.06 147.889 283.22C147.664 283.378 147.489 283.605 147.363 283.902C147.24 284.199 147.178 284.555 147.178 284.97C147.178 285.39 147.24 285.751 147.363 286.053C147.486 286.353 147.659 286.585 147.881 286.748C148.105 286.908 148.369 286.989 148.671 286.989C148.885 286.989 149.077 286.948 149.245 286.868C149.416 286.785 149.559 286.666 149.675 286.511C149.79 286.356 149.868 286.167 149.911 285.945H151.3C151.265 286.381 151.137 286.768 150.915 287.105C150.693 287.439 150.39 287.702 150.008 287.891C149.625 288.079 149.176 288.172 148.659 288.172ZM153.946 284.44V288.052H152.493V279.833H153.913V282.935H153.986C154.13 282.587 154.354 282.313 154.656 282.112C154.961 281.909 155.349 281.807 155.82 281.807C156.248 281.807 156.621 281.897 156.939 282.076C157.258 282.256 157.504 282.518 157.678 282.863C157.854 283.208 157.943 283.629 157.943 284.127V288.052H156.49V284.352C156.49 283.937 156.383 283.615 156.169 283.385C155.957 283.152 155.661 283.036 155.278 283.036C155.021 283.036 154.791 283.092 154.588 283.204C154.387 283.314 154.229 283.473 154.114 283.682C154.002 283.89 153.946 284.143 153.946 284.44Z" fill="#212528"/>
</g>
<g filter="url(#filter2_d_387_364)">
<rect x="209.476" y="132.9" width="105.948" height="105.948" rx="11.3011" fill="white" shape-rendering="crispEdges"/>
<rect x="209.829" y="133.253" width="105.242" height="105.242" rx="10.948" stroke="#212528" stroke-width="0.70632" shape-rendering="crispEdges"/>
<path d="M275.634 170.033V187.585H272.338V174.4H252.561V187.585H249.265V170.033L262.45 164.759L275.634 170.033ZM278.931 190.881V167.808L262.45 161.216L245.969 167.808V190.881H255.857V177.696H269.042V190.881H278.931ZM260.802 187.585H257.506V190.881H260.802V187.585ZM264.098 182.641H260.802V185.937H264.098V182.641ZM267.394 187.585H264.098V190.881H267.394V187.585Z" fill="#0080FF"/>
<path d="M233.99 212.476L231.671 204.257H233.272L234.753 210.297H234.829L236.41 204.257H237.867L239.452 210.301H239.524L241.005 204.257H242.606L240.287 212.476H238.818L237.173 206.709H237.108L235.459 212.476H233.99ZM244.719 212.6C244.329 212.6 243.977 212.531 243.664 212.392C243.354 212.25 243.107 212.041 242.926 211.765C242.746 211.49 242.657 211.15 242.657 210.746C242.657 210.398 242.721 210.111 242.849 209.883C242.978 209.656 243.153 209.474 243.375 209.338C243.597 209.201 243.847 209.098 244.125 209.029C244.406 208.956 244.697 208.904 244.996 208.872C245.358 208.835 245.65 208.801 245.875 208.772C246.1 208.74 246.263 208.691 246.365 208.627C246.469 208.56 246.521 208.457 246.521 208.318V208.294C246.521 207.992 246.432 207.758 246.252 207.592C246.073 207.426 245.815 207.343 245.478 207.343C245.122 207.343 244.84 207.421 244.631 207.576C244.425 207.731 244.286 207.914 244.214 208.126L242.857 207.933C242.964 207.558 243.141 207.245 243.387 206.994C243.633 206.74 243.934 206.55 244.29 206.424C244.646 206.296 245.039 206.231 245.47 206.231C245.767 206.231 246.062 206.266 246.357 206.336C246.651 206.405 246.92 206.52 247.163 206.681C247.407 206.839 247.602 207.054 247.749 207.327C247.899 207.6 247.974 207.941 247.974 208.35V212.476H246.578V211.629H246.529C246.441 211.8 246.317 211.961 246.156 212.111C245.998 212.258 245.799 212.377 245.558 212.468C245.32 212.556 245.04 212.6 244.719 212.6ZM245.097 211.533C245.388 211.533 245.641 211.475 245.855 211.36C246.069 211.242 246.234 211.087 246.349 210.895C246.466 210.702 246.525 210.492 246.525 210.265V209.538C246.48 209.576 246.402 209.61 246.293 209.643C246.186 209.675 246.065 209.703 245.931 209.727C245.798 209.751 245.665 209.772 245.534 209.791C245.403 209.81 245.289 209.826 245.193 209.839C244.976 209.869 244.782 209.917 244.611 209.984C244.44 210.051 244.305 210.144 244.206 210.265C244.107 210.382 244.057 210.535 244.057 210.722C244.057 210.99 244.155 211.192 244.35 211.328C244.546 211.465 244.794 211.533 245.097 211.533ZM249.435 212.476V206.312H250.844V207.339H250.908C251.02 206.983 251.213 206.709 251.486 206.516C251.761 206.321 252.076 206.223 252.429 206.223C252.509 206.223 252.599 206.227 252.698 206.235C252.799 206.241 252.884 206.25 252.95 206.263V207.6C252.889 207.578 252.791 207.56 252.657 207.544C252.526 207.525 252.399 207.516 252.276 207.516C252.011 207.516 251.773 207.573 251.562 207.688C251.353 207.8 251.189 207.957 251.068 208.158C250.948 208.358 250.888 208.59 250.888 208.852V212.476H249.435ZM256.391 212.596C255.773 212.596 255.239 212.468 254.789 212.211C254.343 211.951 253.999 211.585 253.758 211.111C253.517 210.635 253.397 210.075 253.397 209.43C253.397 208.796 253.517 208.239 253.758 207.76C254.002 207.279 254.341 206.904 254.777 206.637C255.214 206.366 255.726 206.231 256.314 206.231C256.694 206.231 257.053 206.293 257.39 206.416C257.73 206.536 258.029 206.724 258.289 206.978C258.551 207.232 258.757 207.556 258.907 207.949C259.057 208.34 259.132 208.805 259.132 209.346V209.791H254.079V208.812H257.739C257.736 208.534 257.676 208.286 257.559 208.069C257.441 207.85 257.276 207.677 257.065 207.552C256.856 207.426 256.613 207.363 256.335 207.363C256.038 207.363 255.777 207.435 255.552 207.58C255.327 207.722 255.152 207.909 255.026 208.142C254.903 208.372 254.84 208.625 254.838 208.9V209.755C254.838 210.113 254.903 210.421 255.034 210.678C255.165 210.932 255.349 211.127 255.584 211.264C255.82 211.398 256.095 211.465 256.411 211.465C256.622 211.465 256.813 211.435 256.985 211.376C257.156 211.315 257.304 211.225 257.43 211.107C257.556 210.99 257.651 210.844 257.715 210.67L259.072 210.822C258.986 211.181 258.823 211.494 258.582 211.761C258.344 212.026 258.039 212.232 257.667 212.38C257.295 212.524 256.87 212.596 256.391 212.596ZM261.814 208.864V212.476H260.361V204.257H261.781V207.359H261.854C261.998 207.011 262.222 206.737 262.524 206.536C262.829 206.333 263.217 206.231 263.688 206.231C264.116 206.231 264.489 206.321 264.807 206.5C265.126 206.679 265.372 206.942 265.546 207.287C265.722 207.632 265.811 208.053 265.811 208.551V212.476H264.358V208.776C264.358 208.361 264.251 208.039 264.037 207.809C263.825 207.576 263.529 207.459 263.146 207.459C262.889 207.459 262.659 207.516 262.456 207.628C262.255 207.738 262.097 207.897 261.982 208.105C261.87 208.314 261.814 208.567 261.814 208.864ZM269.98 212.596C269.378 212.596 268.857 212.464 268.415 212.199C267.974 211.934 267.631 211.564 267.388 211.087C267.147 210.611 267.027 210.055 267.027 209.418C267.027 208.781 267.147 208.223 267.388 207.744C267.631 207.265 267.974 206.893 268.415 206.629C268.857 206.364 269.378 206.231 269.98 206.231C270.582 206.231 271.104 206.364 271.546 206.629C271.987 206.893 272.328 207.265 272.569 207.744C272.812 208.223 272.934 208.781 272.934 209.418C272.934 210.055 272.812 210.611 272.569 211.087C272.328 211.564 271.987 211.934 271.546 212.199C271.104 212.464 270.582 212.596 269.98 212.596ZM269.988 211.432C270.315 211.432 270.588 211.343 270.807 211.164C271.026 210.982 271.19 210.738 271.297 210.433C271.406 210.128 271.461 209.788 271.461 209.414C271.461 209.037 271.406 208.695 271.297 208.39C271.19 208.083 271.026 207.838 270.807 207.656C270.588 207.474 270.315 207.383 269.988 207.383C269.654 207.383 269.376 207.474 269.154 207.656C268.934 207.838 268.77 208.083 268.66 208.39C268.553 208.695 268.5 209.037 268.5 209.414C268.5 209.788 268.553 210.128 268.66 210.433C268.77 210.738 268.934 210.982 269.154 211.164C269.376 211.343 269.654 211.432 269.988 211.432ZM278.096 209.883V206.312H279.549V212.476H278.14V211.38H278.076C277.937 211.725 277.708 212.008 277.39 212.227C277.074 212.446 276.685 212.556 276.222 212.556C275.818 212.556 275.461 212.466 275.15 212.287C274.843 212.105 274.602 211.842 274.428 211.497C274.254 211.149 274.167 210.729 274.167 210.236V206.312H275.62V210.012C275.62 210.402 275.727 210.713 275.941 210.943C276.155 211.173 276.436 211.288 276.784 211.288C276.998 211.288 277.205 211.236 277.406 211.131C277.606 211.027 277.771 210.872 277.899 210.666C278.03 210.457 278.096 210.196 278.096 209.883ZM285.915 207.941L284.59 208.085C284.553 207.952 284.487 207.826 284.394 207.708C284.303 207.59 284.18 207.495 284.024 207.423C283.869 207.351 283.679 207.315 283.455 207.315C283.152 207.315 282.898 207.38 282.692 207.512C282.489 207.643 282.388 207.813 282.391 208.021C282.388 208.2 282.454 208.346 282.588 208.459C282.724 208.571 282.949 208.663 283.262 208.736L284.313 208.96C284.897 209.086 285.33 209.285 285.614 209.558C285.9 209.831 286.044 210.188 286.047 210.63C286.044 211.018 285.931 211.36 285.706 211.657C285.484 211.951 285.175 212.182 284.779 212.347C284.383 212.513 283.928 212.596 283.414 212.596C282.66 212.596 282.053 212.438 281.593 212.123C281.132 211.804 280.858 211.362 280.77 210.794L282.186 210.658C282.251 210.936 282.387 211.146 282.596 211.288C282.804 211.43 283.076 211.501 283.41 211.501C283.756 211.501 284.033 211.43 284.241 211.288C284.453 211.146 284.558 210.971 284.558 210.762C284.558 210.586 284.49 210.44 284.354 210.325C284.22 210.21 284.011 210.121 283.728 210.06L282.676 209.839C282.085 209.716 281.647 209.509 281.364 209.217C281.08 208.923 280.94 208.551 280.942 208.101C280.94 207.722 281.043 207.392 281.251 207.114C281.463 206.833 281.756 206.617 282.13 206.464C282.508 206.309 282.942 206.231 283.435 206.231C284.157 206.231 284.725 206.385 285.14 206.693C285.558 207.001 285.816 207.417 285.915 207.941ZM289.974 212.596C289.356 212.596 288.822 212.468 288.373 212.211C287.926 211.951 287.582 211.585 287.341 211.111C287.101 210.635 286.98 210.075 286.98 209.43C286.98 208.796 287.101 208.239 287.341 207.76C287.585 207.279 287.925 206.904 288.361 206.637C288.797 206.366 289.309 206.231 289.898 206.231C290.278 206.231 290.636 206.293 290.973 206.416C291.313 206.536 291.613 206.724 291.872 206.978C292.134 207.232 292.34 207.556 292.49 207.949C292.64 208.34 292.715 208.805 292.715 209.346V209.791H287.662V208.812H291.322C291.32 208.534 291.26 208.286 291.142 208.069C291.024 207.85 290.86 207.677 290.648 207.552C290.44 207.426 290.196 207.363 289.918 207.363C289.621 207.363 289.36 207.435 289.135 207.58C288.911 207.722 288.735 207.909 288.61 208.142C288.486 208.372 288.424 208.625 288.421 208.9V209.755C288.421 210.113 288.486 210.421 288.618 210.678C288.749 210.932 288.932 211.127 289.167 211.264C289.403 211.398 289.678 211.465 289.994 211.465C290.205 211.465 290.397 211.435 290.568 211.376C290.739 211.315 290.888 211.225 291.013 211.107C291.139 210.99 291.234 210.844 291.298 210.67L292.655 210.822C292.569 211.181 292.406 211.494 292.165 211.761C291.927 212.026 291.622 212.232 291.25 212.38C290.878 212.524 290.453 212.596 289.974 212.596Z" fill="#212528"/>
</g>
<path d="M196.024 260.45C195.472 260.45 195.024 260.898 195.024 261.45C195.024 262.002 195.472 262.45 196.024 262.45V260.45ZM263.157 241.64C262.766 241.25 262.133 241.25 261.743 241.64L255.379 248.004C254.988 248.395 254.988 249.028 255.379 249.419C255.769 249.809 256.402 249.809 256.793 249.419L262.45 243.762L268.107 249.419C268.497 249.809 269.13 249.809 269.521 249.419C269.911 249.028 269.911 248.395 269.521 248.004L263.157 241.64ZM262.45 242.348H263.45H262.45ZM196.024 261.45V262.45H243.348V261.45V260.45H196.024V261.45ZM243.348 261.45V262.45C254.45 262.45 263.45 253.45 263.45 242.348H262.45H261.45C261.45 252.345 253.345 260.45 243.348 260.45V261.45Z" fill="#212528"/>
<g filter="url(#filter3_d_387_364)">
<rect x="209.476" y="284.052" width="105.948" height="105.948" rx="11.3011" fill="white" shape-rendering="crispEdges"/>
<rect x="209.829" y="284.405" width="105.242" height="105.242" rx="10.948" stroke="#212528" stroke-width="0.70632" shape-rendering="crispEdges"/>
<path d="M275.634 321.185V338.737H272.338V325.553H252.561V338.737H249.265V321.185L262.45 315.911L275.634 321.185ZM278.931 342.033V318.96L262.45 312.368L245.969 318.96V342.033H255.857V328.849H269.042V342.033H278.931ZM260.802 338.737H257.506V342.033H260.802V338.737ZM264.098 333.793H260.802V337.089H264.098V333.793ZM267.394 338.737H264.098V342.033H267.394V338.737Z" fill="#0080FF"/>
<path d="M233.99 363.628L231.671 355.409H233.272L234.753 361.449H234.829L236.41 355.409H237.867L239.452 361.453H239.524L241.005 355.409H242.606L240.287 363.628H238.818L237.173 357.861H237.108L235.459 363.628H233.99ZM244.719 363.753C244.329 363.753 243.977 363.683 243.664 363.544C243.354 363.402 243.107 363.194 242.926 362.918C242.746 362.642 242.657 362.303 242.657 361.899C242.657 361.551 242.721 361.263 242.849 361.036C242.978 360.808 243.153 360.626 243.375 360.49C243.597 360.354 243.847 360.251 244.125 360.181C244.406 360.109 244.697 360.057 244.996 360.024C245.358 359.987 245.65 359.954 245.875 359.924C246.1 359.892 246.263 359.844 246.365 359.78C246.469 359.713 246.521 359.61 246.521 359.471V359.447C246.521 359.144 246.432 358.91 246.252 358.744C246.073 358.578 245.815 358.495 245.478 358.495C245.122 358.495 244.84 358.573 244.631 358.728C244.425 358.883 244.286 359.067 244.214 359.278L242.857 359.085C242.964 358.711 243.141 358.398 243.387 358.146C243.633 357.892 243.934 357.702 244.29 357.576C244.646 357.448 245.039 357.384 245.47 357.384C245.767 357.384 246.062 357.419 246.357 357.488C246.651 357.558 246.92 357.673 247.163 357.833C247.407 357.991 247.602 358.206 247.749 358.479C247.899 358.752 247.974 359.093 247.974 359.503V363.628H246.578V362.782H246.529C246.441 362.953 246.317 363.113 246.156 363.263C245.998 363.41 245.799 363.529 245.558 363.62C245.32 363.709 245.04 363.753 244.719 363.753ZM245.097 362.685C245.388 362.685 245.641 362.628 245.855 362.513C246.069 362.395 246.234 362.24 246.349 362.047C246.466 361.854 246.525 361.644 246.525 361.417V360.691C246.48 360.728 246.402 360.763 246.293 360.795C246.186 360.827 246.065 360.855 245.931 360.879C245.798 360.903 245.665 360.925 245.534 360.943C245.403 360.962 245.289 360.978 245.193 360.992C244.976 361.021 244.782 361.069 244.611 361.136C244.44 361.203 244.305 361.297 244.206 361.417C244.107 361.535 244.057 361.687 244.057 361.875C244.057 362.142 244.155 362.344 244.35 362.481C244.546 362.617 244.794 362.685 245.097 362.685ZM249.435 363.628V357.464H250.844V358.491H250.908C251.02 358.136 251.213 357.861 251.486 357.669C251.761 357.473 252.076 357.376 252.429 357.376C252.509 357.376 252.599 357.38 252.698 357.388C252.799 357.393 252.884 357.403 252.95 357.416V358.752C252.889 358.731 252.791 358.712 252.657 358.696C252.526 358.677 252.399 358.668 252.276 358.668C252.011 358.668 251.773 358.726 251.562 358.841C251.353 358.953 251.189 359.109 251.068 359.31C250.948 359.511 250.888 359.742 250.888 360.004V363.628H249.435ZM256.391 363.749C255.773 363.749 255.239 363.62 254.789 363.363C254.343 363.104 253.999 362.737 253.758 362.264C253.517 361.788 253.397 361.227 253.397 360.582C253.397 359.948 253.517 359.392 253.758 358.913C254.002 358.431 254.341 358.057 254.777 357.789C255.214 357.519 255.726 357.384 256.314 357.384C256.694 357.384 257.053 357.445 257.39 357.568C257.73 357.689 258.029 357.876 258.289 358.13C258.551 358.384 258.757 358.708 258.907 359.101C259.057 359.492 259.132 359.958 259.132 360.498V360.943H254.079V359.964H257.739C257.736 359.686 257.676 359.439 257.559 359.222C257.441 359.002 257.276 358.83 257.065 358.704C256.856 358.578 256.613 358.516 256.335 358.516C256.038 358.516 255.777 358.588 255.552 358.732C255.327 358.874 255.152 359.061 255.026 359.294C254.903 359.524 254.84 359.777 254.838 360.053V360.907C254.838 361.266 254.903 361.574 255.034 361.83C255.165 362.085 255.349 362.28 255.584 362.416C255.82 362.55 256.095 362.617 256.411 362.617C256.622 362.617 256.813 362.588 256.985 362.529C257.156 362.467 257.304 362.378 257.43 362.26C257.556 362.142 257.651 361.996 257.715 361.822L259.072 361.975C258.986 362.333 258.823 362.646 258.582 362.914C258.344 363.179 258.039 363.385 257.667 363.532C257.295 363.676 256.87 363.749 256.391 363.749ZM261.814 360.016V363.628H260.361V355.409H261.781V358.511H261.854C261.998 358.164 262.222 357.889 262.524 357.689C262.829 357.485 263.217 357.384 263.688 357.384C264.116 357.384 264.489 357.473 264.807 357.653C265.126 357.832 265.372 358.094 265.546 358.439C265.722 358.784 265.811 359.206 265.811 359.703V363.628H264.358V359.928C264.358 359.513 264.251 359.191 264.037 358.961C263.825 358.728 263.529 358.612 263.146 358.612C262.889 358.612 262.659 358.668 262.456 358.78C262.255 358.89 262.097 359.049 261.982 359.258C261.87 359.467 261.814 359.719 261.814 360.016ZM269.98 363.749C269.378 363.749 268.857 363.616 268.415 363.351C267.974 363.087 267.631 362.716 267.388 362.24C267.147 361.764 267.027 361.207 267.027 360.57C267.027 359.933 267.147 359.376 267.388 358.897C267.631 358.418 267.974 358.046 268.415 357.781C268.857 357.516 269.378 357.384 269.98 357.384C270.582 357.384 271.104 357.516 271.546 357.781C271.987 358.046 272.328 358.418 272.569 358.897C272.812 359.376 272.934 359.933 272.934 360.57C272.934 361.207 272.812 361.764 272.569 362.24C272.328 362.716 271.987 363.087 271.546 363.351C271.104 363.616 270.582 363.749 269.98 363.749ZM269.988 362.585C270.315 362.585 270.588 362.495 270.807 362.316C271.026 362.134 271.19 361.891 271.297 361.586C271.406 361.281 271.461 360.941 271.461 360.566C271.461 360.189 271.406 359.848 271.297 359.543C271.19 359.235 271.026 358.99 270.807 358.808C270.588 358.627 270.315 358.536 269.988 358.536C269.654 358.536 269.376 358.627 269.154 358.808C268.934 358.99 268.77 359.235 268.66 359.543C268.553 359.848 268.5 360.189 268.5 360.566C268.5 360.941 268.553 361.281 268.66 361.586C268.77 361.891 268.934 362.134 269.154 362.316C269.376 362.495 269.654 362.585 269.988 362.585ZM278.096 361.036V357.464H279.549V363.628H278.14V362.533H278.076C277.937 362.878 277.708 363.16 277.39 363.379C277.074 363.599 276.685 363.709 276.222 363.709C275.818 363.709 275.461 363.619 275.15 363.44C274.843 363.258 274.602 362.994 274.428 362.649C274.254 362.301 274.167 361.881 274.167 361.389V357.464H275.62V361.164C275.62 361.555 275.727 361.865 275.941 362.095C276.155 362.325 276.436 362.44 276.784 362.44C276.998 362.44 277.205 362.388 277.406 362.284C277.606 362.18 277.771 362.024 277.899 361.818C278.03 361.61 278.096 361.349 278.096 361.036ZM285.915 359.093L284.59 359.238C284.553 359.104 284.487 358.978 284.394 358.861C284.303 358.743 284.18 358.648 284.024 358.576C283.869 358.503 283.679 358.467 283.455 358.467C283.152 358.467 282.898 358.533 282.692 358.664C282.489 358.795 282.388 358.965 282.391 359.174C282.388 359.353 282.454 359.499 282.588 359.611C282.724 359.723 282.949 359.816 283.262 359.888L284.313 360.113C284.897 360.238 285.33 360.438 285.614 360.711C285.9 360.984 286.044 361.341 286.047 361.782C286.044 362.17 285.931 362.513 285.706 362.81C285.484 363.104 285.175 363.334 284.779 363.5C284.383 363.666 283.928 363.749 283.414 363.749C282.66 363.749 282.053 363.591 281.593 363.275C281.132 362.957 280.858 362.514 280.77 361.947L282.186 361.81C282.251 362.089 282.387 362.299 282.596 362.44C282.804 362.582 283.076 362.653 283.41 362.653C283.756 362.653 284.033 362.582 284.241 362.44C284.453 362.299 284.558 362.123 284.558 361.915C284.558 361.738 284.49 361.592 284.354 361.477C284.22 361.362 284.011 361.274 283.728 361.212L282.676 360.992C282.085 360.869 281.647 360.661 281.364 360.37C281.08 360.075 280.94 359.703 280.942 359.254C280.94 358.874 281.043 358.545 281.251 358.267C281.463 357.986 281.756 357.769 282.13 357.617C282.508 357.461 282.942 357.384 283.435 357.384C284.157 357.384 284.725 357.538 285.14 357.845C285.558 358.153 285.816 358.569 285.915 359.093ZM289.974 363.749C289.356 363.749 288.822 363.62 288.373 363.363C287.926 363.104 287.582 362.737 287.341 362.264C287.101 361.788 286.98 361.227 286.98 360.582C286.98 359.948 287.101 359.392 287.341 358.913C287.585 358.431 287.925 358.057 288.361 357.789C288.797 357.519 289.309 357.384 289.898 357.384C290.278 357.384 290.636 357.445 290.973 357.568C291.313 357.689 291.613 357.876 291.872 358.13C292.134 358.384 292.34 358.708 292.49 359.101C292.64 359.492 292.715 359.958 292.715 360.498V360.943H287.662V359.964H291.322C291.32 359.686 291.26 359.439 291.142 359.222C291.024 359.002 290.86 358.83 290.648 358.704C290.44 358.578 290.196 358.516 289.918 358.516C289.621 358.516 289.36 358.588 289.135 358.732C288.911 358.874 288.735 359.061 288.61 359.294C288.486 359.524 288.424 359.777 288.421 360.053V360.907C288.421 361.266 288.486 361.574 288.618 361.83C288.749 362.085 288.932 362.28 289.167 362.416C289.403 362.55 289.678 362.617 289.994 362.617C290.205 362.617 290.397 362.588 290.568 362.529C290.739 362.467 290.888 362.378 291.013 362.26C291.139 362.142 291.234 361.996 291.298 361.822L292.655 361.975C292.569 362.333 292.406 362.646 292.165 362.914C291.927 363.179 291.622 363.385 291.25 363.532C290.878 363.676 290.453 363.749 289.974 363.749Z" fill="#212528"/>
</g>
<path d="M196.024 260.45C195.472 260.45 195.024 260.898 195.024 261.45C195.024 262.002 195.472 262.45 196.024 262.45V260.45ZM261.743 281.259C262.133 281.65 262.766 281.65 263.157 281.259L269.521 274.895C269.911 274.505 269.911 273.872 269.521 273.481C269.13 273.09 268.497 273.09 268.107 273.481L262.45 279.138L256.793 273.481C256.402 273.09 255.769 273.09 255.379 273.481C254.988 273.872 254.988 274.505 255.379 274.895L261.743 281.259ZM262.45 280.552H263.45H262.45ZM196.024 261.45V262.45H243.348V261.45V260.45H196.024V261.45ZM243.348 261.45V262.45C253.345 262.45 261.45 270.554 261.45 280.552H262.45H263.45C263.45 269.45 254.45 260.45 243.348 260.45V261.45Z" fill="#212528"/>
<g filter="url(#filter4_d_387_364)">
<rect x="209.476" y="10" width="105.948" height="105.948" rx="11.3011" fill="white" shape-rendering="crispEdges"/>
<rect x="209.829" y="10.3532" width="105.242" height="105.242" rx="10.948" stroke="#212528" stroke-width="0.70632" shape-rendering="crispEdges"/>
<path d="M275.634 47.1332V64.6852H272.338V51.5006H252.561V64.6852H249.265V47.1332L262.45 41.8593L275.634 47.1332ZM278.931 67.9814V44.9083L262.45 38.316L245.969 44.9083V67.9814H255.857V54.7968H269.042V67.9814H278.931ZM260.802 64.6852H257.506V67.9814H260.802V64.6852ZM264.098 59.741H260.802V63.0372H264.098V59.741ZM267.394 64.6852H264.098V67.9814H267.394V64.6852Z" fill="#F2800D"/>
<path d="M233.99 89.5762L231.671 81.3572H233.272L234.753 87.397H234.829L236.41 81.3572H237.867L239.452 87.401H239.524L241.005 81.3572H242.606L240.287 89.5762H238.818L237.173 83.8092H237.108L235.459 89.5762H233.99ZM244.719 89.7006C244.329 89.7006 243.977 89.631 243.664 89.4919C243.354 89.3501 243.107 89.1414 242.926 88.8658C242.746 88.5903 242.657 88.2505 242.657 87.8465C242.657 87.4987 242.721 87.2111 242.849 86.9837C242.978 86.7562 243.153 86.5743 243.375 86.4379C243.597 86.3014 243.847 86.1984 244.125 86.1289C244.406 86.0566 244.697 86.0044 244.996 85.9723C245.358 85.9349 245.65 85.9014 245.875 85.872C246.1 85.8399 246.263 85.7917 246.365 85.7275C246.469 85.6606 246.521 85.5576 246.521 85.4185V85.3944C246.521 85.0921 246.432 84.858 246.252 84.6921C246.073 84.5263 245.815 84.4433 245.478 84.4433C245.122 84.4433 244.84 84.5209 244.631 84.6761C244.425 84.8313 244.286 85.0145 244.214 85.2259L242.857 85.0333C242.964 84.6587 243.141 84.3457 243.387 84.0942C243.633 83.84 243.934 83.65 244.29 83.5243C244.646 83.3959 245.039 83.3317 245.47 83.3317C245.767 83.3317 246.062 83.3664 246.357 83.436C246.651 83.5056 246.92 83.6206 247.163 83.7811C247.407 83.939 247.602 84.1544 247.749 84.4273C247.899 84.7002 247.974 85.0413 247.974 85.4506V89.5762H246.578V88.7294H246.529C246.441 88.9006 246.317 89.0611 246.156 89.211C245.998 89.3581 245.799 89.4772 245.558 89.5681C245.32 89.6564 245.04 89.7006 244.719 89.7006ZM245.097 88.6331C245.388 88.6331 245.641 88.5756 245.855 88.4605C246.069 88.3428 246.234 88.1876 246.349 87.995C246.466 87.8023 246.525 87.5923 246.525 87.3649V86.6385C246.48 86.676 246.402 86.7108 246.293 86.7429C246.186 86.775 246.065 86.8031 245.931 86.8271C245.798 86.8512 245.665 86.8726 245.534 86.8914C245.403 86.9101 245.289 86.9261 245.193 86.9395C244.976 86.9689 244.782 87.0171 244.611 87.084C244.44 87.1509 244.305 87.2445 244.206 87.3649C244.107 87.4826 244.057 87.6351 244.057 87.8224C244.057 88.09 244.155 88.292 244.35 88.4284C244.546 88.5649 244.794 88.6331 245.097 88.6331ZM249.435 89.5762V83.4119H250.844V84.4393H250.908C251.02 84.0835 251.213 83.8092 251.486 83.6166C251.761 83.4213 252.076 83.3236 252.429 83.3236C252.509 83.3236 252.599 83.3277 252.698 83.3357C252.799 83.341 252.884 83.3504 252.95 83.3638V84.7002C252.889 84.6788 252.791 84.66 252.657 84.644C252.526 84.6252 252.399 84.6159 252.276 84.6159C252.011 84.6159 251.773 84.6734 251.562 84.7884C251.353 84.9008 251.189 85.0573 251.068 85.258C250.948 85.4586 250.888 85.6901 250.888 85.9523V89.5762H249.435ZM256.391 89.6966C255.773 89.6966 255.239 89.5681 254.789 89.3113C254.343 89.0518 253.999 88.6852 253.758 88.2117C253.517 87.7355 253.397 87.175 253.397 86.5302C253.397 85.8961 253.517 85.3396 253.758 84.8607C254.002 84.3791 254.341 84.0045 254.777 83.737C255.214 83.4668 255.726 83.3317 256.314 83.3317C256.694 83.3317 257.053 83.3932 257.39 83.5163C257.73 83.6367 258.029 83.8239 258.289 84.0781C258.551 84.3323 258.757 84.656 258.907 85.0493C259.057 85.4399 259.132 85.9054 259.132 86.4459V86.8914H254.079V85.9121H257.739C257.736 85.6339 257.676 85.3864 257.559 85.1697C257.441 84.9503 257.276 84.7777 257.065 84.652C256.856 84.5263 256.613 84.4634 256.335 84.4634C256.038 84.4634 255.777 84.5356 255.552 84.6801C255.327 84.8219 255.152 85.0092 255.026 85.2419C254.903 85.472 254.84 85.7249 254.838 86.0004V86.8552C254.838 87.2137 254.903 87.5214 255.034 87.7783C255.165 88.0324 255.349 88.2277 255.584 88.3642C255.82 88.498 256.095 88.5649 256.411 88.5649C256.622 88.5649 256.813 88.5354 256.985 88.4766C257.156 88.415 257.304 88.3254 257.43 88.2077C257.556 88.09 257.651 87.9441 257.715 87.7702L259.072 87.9227C258.986 88.2813 258.823 88.5943 258.582 88.8618C258.344 89.1267 258.039 89.3327 257.667 89.4799C257.295 89.6243 256.87 89.6966 256.391 89.6966ZM261.814 85.9643V89.5762H260.361V81.3572H261.781V84.4594H261.854C261.998 84.1116 262.222 83.8373 262.524 83.6367C262.829 83.4333 263.217 83.3317 263.688 83.3317C264.116 83.3317 264.489 83.4213 264.807 83.6005C265.126 83.7798 265.372 84.042 265.546 84.3871C265.722 84.7323 265.811 85.1536 265.811 85.6513V89.5762H264.358V85.876C264.358 85.4613 264.251 85.1389 264.037 84.9088C263.825 84.6761 263.529 84.5597 263.146 84.5597C262.889 84.5597 262.659 84.6159 262.456 84.7283C262.255 84.8379 262.097 84.9971 261.982 85.2058C261.87 85.4145 261.814 85.6673 261.814 85.9643ZM269.98 89.6966C269.378 89.6966 268.857 89.5641 268.415 89.2993C267.974 89.0344 267.631 88.6638 267.388 88.1876C267.147 87.7114 267.027 87.1549 267.027 86.5181C267.027 85.8814 267.147 85.3235 267.388 84.8446C267.631 84.3657 267.974 83.9938 268.415 83.729C268.857 83.4641 269.378 83.3317 269.98 83.3317C270.582 83.3317 271.104 83.4641 271.546 83.729C271.987 83.9938 272.328 84.3657 272.569 84.8446C272.812 85.3235 272.934 85.8814 272.934 86.5181C272.934 87.1549 272.812 87.7114 272.569 88.1876C272.328 88.6638 271.987 89.0344 271.546 89.2993C271.104 89.5641 270.582 89.6966 269.98 89.6966ZM269.988 88.5327C270.315 88.5327 270.588 88.4431 270.807 88.2639C271.026 88.0819 271.19 87.8385 271.297 87.5335C271.406 87.2285 271.461 86.8887 271.461 86.5141C271.461 86.1369 271.406 85.7958 271.297 85.4908C271.19 85.1831 271.026 84.9383 270.807 84.7563C270.588 84.5744 270.315 84.4834 269.988 84.4834C269.654 84.4834 269.376 84.5744 269.154 84.7563C268.934 84.9383 268.77 85.1831 268.66 85.4908C268.553 85.7958 268.5 86.1369 268.5 86.5141C268.5 86.8887 268.553 87.2285 268.66 87.5335C268.77 87.8385 268.934 88.0819 269.154 88.2639C269.376 88.4431 269.654 88.5327 269.988 88.5327ZM278.096 86.9837V83.4119H279.549V89.5762H278.14V88.4806H278.076C277.937 88.8257 277.708 89.108 277.39 89.3274C277.074 89.5467 276.685 89.6564 276.222 89.6564C275.818 89.6564 275.461 89.5668 275.15 89.3876C274.843 89.2056 274.602 88.9421 274.428 88.597C274.254 88.2491 274.167 87.8291 274.167 87.3368V83.4119H275.62V87.1121C275.62 87.5027 275.727 87.813 275.941 88.0431C276.155 88.2732 276.436 88.3883 276.784 88.3883C276.998 88.3883 277.205 88.3361 277.406 88.2318C277.606 88.1274 277.771 87.9722 277.899 87.7662C278.03 87.5575 278.096 87.2967 278.096 86.9837ZM285.915 85.0413L284.59 85.1858C284.553 85.052 284.487 84.9262 284.394 84.8085C284.303 84.6908 284.18 84.5958 284.024 84.5236C283.869 84.4513 283.679 84.4152 283.455 84.4152C283.152 84.4152 282.898 84.4808 282.692 84.6119C282.489 84.743 282.388 84.9129 282.391 85.1215C282.388 85.3008 282.454 85.4466 282.588 85.559C282.724 85.6713 282.949 85.7637 283.262 85.8359L284.313 86.0606C284.897 86.1864 285.33 86.3857 285.614 86.6586C285.9 86.9315 286.044 87.2887 286.047 87.7301C286.044 88.118 285.931 88.4605 285.706 88.7575C285.484 89.0518 285.175 89.2819 284.779 89.4478C284.383 89.6136 283.928 89.6966 283.414 89.6966C282.66 89.6966 282.053 89.5387 281.593 89.223C281.132 88.9046 280.858 88.4618 280.77 87.8946L282.186 87.7582C282.251 88.0364 282.387 88.2465 282.596 88.3883C282.804 88.5301 283.076 88.601 283.41 88.601C283.756 88.601 284.033 88.5301 284.241 88.3883C284.453 88.2465 284.558 88.0712 284.558 87.8625C284.558 87.686 284.49 87.5402 284.354 87.4251C284.22 87.3101 284.011 87.2218 283.728 87.1602L282.676 86.9395C282.085 86.8164 281.647 86.6091 281.364 86.3175C281.08 86.0232 280.94 85.6513 280.942 85.2018C280.94 84.8219 281.043 84.4928 281.251 84.2146C281.463 83.9336 281.756 83.7169 282.13 83.5644C282.508 83.4093 282.942 83.3317 283.435 83.3317C284.157 83.3317 284.725 83.4855 285.14 83.7932C285.558 84.1009 285.816 84.5169 285.915 85.0413ZM289.974 89.6966C289.356 89.6966 288.822 89.5681 288.373 89.3113C287.926 89.0518 287.582 88.6852 287.341 88.2117C287.101 87.7355 286.98 87.175 286.98 86.5302C286.98 85.8961 287.101 85.3396 287.341 84.8607C287.585 84.3791 287.925 84.0045 288.361 83.737C288.797 83.4668 289.309 83.3317 289.898 83.3317C290.278 83.3317 290.636 83.3932 290.973 83.5163C291.313 83.6367 291.613 83.8239 291.872 84.0781C292.134 84.3323 292.34 84.656 292.49 85.0493C292.64 85.4399 292.715 85.9054 292.715 86.4459V86.8914H287.662V85.9121H291.322C291.32 85.6339 291.26 85.3864 291.142 85.1697C291.024 84.9503 290.86 84.7777 290.648 84.652C290.44 84.5263 290.196 84.4634 289.918 84.4634C289.621 84.4634 289.36 84.5356 289.135 84.6801C288.911 84.8219 288.735 85.0092 288.61 85.2419C288.486 85.472 288.424 85.7249 288.421 86.0004V86.8552C288.421 87.2137 288.486 87.5214 288.618 87.7783C288.749 88.0324 288.932 88.2277 289.167 88.3642C289.403 88.498 289.678 88.5649 289.994 88.5649C290.205 88.5649 290.397 88.5354 290.568 88.4766C290.739 88.415 290.888 88.3254 291.013 88.2077C291.139 88.09 291.234 87.9441 291.298 87.7702L292.655 87.9227C292.569 88.2813 292.406 88.5943 292.165 88.8618C291.927 89.1267 291.622 89.3327 291.25 89.4799C290.878 89.6243 290.453 89.6966 289.974 89.6966Z" fill="#212528"/>
</g>
<path d="M138.55 82.0762C138.55 82.6285 138.998 83.0762 139.55 83.0762C140.102 83.0762 140.55 82.6285 140.55 82.0762H138.55ZM206.683 63.6811C207.073 63.2906 207.073 62.6574 206.683 62.2669L200.319 55.9029C199.928 55.5124 199.295 55.5124 198.905 55.9029C198.514 56.2935 198.514 56.9266 198.905 57.3171L204.562 62.974L198.905 68.6309C198.514 69.0214 198.514 69.6545 198.905 70.0451C199.295 70.4356 199.928 70.4356 200.319 70.0451L206.683 63.6811ZM139.55 82.0762H140.55H139.55ZM158.652 62.974V63.974H205.976V62.974V61.974H158.652V62.974ZM139.55 82.0762H140.55C140.55 72.0786 148.655 63.974 158.652 63.974V62.974V61.974C147.55 61.974 138.55 70.9741 138.55 82.0762H139.55Z" fill="#212528"/>
<defs>
<filter id="filter0_d_387_364" x="86.5762" y="85.5762" width="108.773" height="108.773" filterUnits="userSpaceOnUse" color-interpolation-filters="sRGB">
<feFlood flood-opacity="0" result="BackgroundImageFix"/>
<feColorMatrix in="SourceAlpha" type="matrix" values="0 0 0 0 0 0 0 0 0 0 0 0 0 0 0 0 0 0 127 0" result="hardAlpha"/>
<feOffset dx="2.82528" dy="2.82528"/>
<feComposite in2="hardAlpha" operator="out"/>
<feColorMatrix type="matrix" values="0 0 0 0 0.979608 0 0 0 0 0.800784 0 0 0 0 0.620392 0 0 0 1 0"/>
<feBlend mode="normal" in2="BackgroundImageFix" result="effect1_dropShadow_387_364"/>
<feBlend mode="normal" in="SourceGraphic" in2="effect1_dropShadow_387_364" result="shape"/>
</filter>
<filter id="filter1_d_387_364" x="86.5762" y="208.476" width="108.773" height="108.773" filterUnits="userSpaceOnUse" color-interpolation-filters="sRGB">
<feFlood flood-opacity="0" result="BackgroundImageFix"/>
<feColorMatrix in="SourceAlpha" type="matrix" values="0 0 0 0 0 0 0 0 0 0 0 0 0 0 0 0 0 0 127 0" result="hardAlpha"/>
<feOffset dx="2.82528" dy="2.82528"/>
<feComposite in2="hardAlpha" operator="out"/>
<feColorMatrix type="matrix" values="0 0 0 0 0.667568 0 0 0 0 0.805297 0 0 0 0 0.932432 0 0 0 1 0"/>
<feBlend mode="normal" in2="BackgroundImageFix" result="effect1_dropShadow_387_364"/>
<feBlend mode="normal" in="SourceGraphic" in2="effect1_dropShadow_387_364" result="shape"/>
</filter>
<filter id="filter2_d_387_364" x="209.476" y="132.9" width="108.773" height="108.773" filterUnits="userSpaceOnUse" color-interpolation-filters="sRGB">
<feFlood flood-opacity="0" result="BackgroundImageFix"/>
<feColorMatrix in="SourceAlpha" type="matrix" values="0 0 0 0 0 0 0 0 0 0 0 0 0 0 0 0 0 0 127 0" result="hardAlpha"/>
<feOffset dx="2.82528" dy="2.82528"/>
<feComposite in2="hardAlpha" operator="out"/>
<feColorMatrix type="matrix" values="0 0 0 0 0.666667 0 0 0 0 0.803922 0 0 0 0 0.933333 0 0 0 1 0"/>
<feBlend mode="normal" in2="BackgroundImageFix" result="effect1_dropShadow_387_364"/>
<feBlend mode="normal" in="SourceGraphic" in2="effect1_dropShadow_387_364" result="shape"/>
</filter>
<filter id="filter3_d_387_364" x="209.476" y="284.052" width="108.773" height="108.773" filterUnits="userSpaceOnUse" color-interpolation-filters="sRGB">
<feFlood flood-opacity="0" result="BackgroundImageFix"/>
<feColorMatrix in="SourceAlpha" type="matrix" values="0 0 0 0 0 0 0 0 0 0 0 0 0 0 0 0 0 0 127 0" result="hardAlpha"/>
<feOffset dx="2.82528" dy="2.82528"/>
<feComposite in2="hardAlpha" operator="out"/>
<feColorMatrix type="matrix" values="0 0 0 0 0.666667 0 0 0 0 0.803922 0 0 0 0 0.933333 0 0 0 1 0"/>
<feBlend mode="normal" in2="BackgroundImageFix" result="effect1_dropShadow_387_364"/>
<feBlend mode="normal" in="SourceGraphic" in2="effect1_dropShadow_387_364" result="shape"/>
</filter>
<filter id="filter4_d_387_364" x="209.476" y="10" width="108.773" height="108.773" filterUnits="userSpaceOnUse" color-interpolation-filters="sRGB">
<feFlood flood-opacity="0" result="BackgroundImageFix"/>
<feColorMatrix in="SourceAlpha" type="matrix" values="0 0 0 0 0 0 0 0 0 0 0 0 0 0 0 0 0 0 127 0" result="hardAlpha"/>
<feOffset dx="2.82528" dy="2.82528"/>
<feComposite in2="hardAlpha" operator="out"/>
<feColorMatrix type="matrix" values="0 0 0 0 0.979608 0 0 0 0 0.800784 0 0 0 0 0.620392 0 0 0 1 0"/>
<feBlend mode="normal" in2="BackgroundImageFix" result="effect1_dropShadow_387_364"/>
<feBlend mode="normal" in="SourceGraphic" in2="effect1_dropShadow_387_364" result="shape"/>
</filter>
</defs>
</svg>
