<svg width="401" height="400" viewBox="0 0 401 400" fill="none" xmlns="http://www.w3.org/2000/svg">
<g filter="url(#filter0_d_386_339)">
<rect x="11" y="77.7012" width="109.195" height="109.195" rx="17.4713" fill="white" shape-rendering="crispEdges"/>
<rect x="11.546" y="78.2471" width="108.103" height="108.103" rx="16.9253" stroke="#212528" stroke-width="1.09195" shape-rendering="crispEdges"/>
<path d="M80.885 114.828H78.7011V110.46H74.3333V114.828H56.862V110.46H52.4942V114.828H50.3103C47.8862 114.828 45.9643 116.793 45.9643 119.196L45.9425 149.77C45.9425 152.173 47.8862 154.138 50.3103 154.138H80.885C83.2873 154.138 85.2528 152.173 85.2528 149.77V119.196C85.2528 116.793 83.2873 114.828 80.885 114.828ZM80.885 149.77H50.3103V127.931H80.885V149.77ZM80.885 123.563H50.3103V119.196H80.885V123.563ZM59.046 136.667H54.6781V132.299H59.046V136.667ZM67.7816 136.667H63.4138V132.299H67.7816V136.667ZM76.5172 136.667H72.1494V132.299H76.5172V136.667ZM59.046 145.402H54.6781V141.035H59.046V145.402ZM67.7816 145.402H63.4138V141.035H67.7816V145.402ZM76.5172 145.402H72.1494V141.035H76.5172V145.402Z" fill="#0080FF"/>
</g>
<g filter="url(#filter1_d_386_339)">
<rect x="281.805" y="77.7012" width="109.195" height="109.195" rx="17.4713" fill="white" shape-rendering="crispEdges"/>
<rect x="282.351" y="78.2471" width="108.103" height="108.103" rx="16.9253" stroke="#212528" stroke-width="1.09195" shape-rendering="crispEdges"/>
<path d="M336.402 108.276L316.747 117.012V130.115C316.747 142.236 325.133 153.57 336.402 156.322C347.671 153.57 356.057 142.236 356.057 130.115V117.012L336.402 108.276ZM351.69 130.115C351.69 139.986 345.182 149.093 336.402 151.801C327.623 149.093 321.115 139.986 321.115 130.115V119.851L336.402 113.059L351.69 119.851V130.115ZM326.378 131.403L323.299 134.483L332.034 143.218L349.506 125.747L346.426 122.646L332.034 137.038L326.378 131.403Z" fill="#0080FF"/>
</g>
<g filter="url(#filter2_d_386_339)">
<rect x="11" y="213.104" width="380" height="109.195" rx="17.4713" fill="white" shape-rendering="crispEdges"/>
<rect x="11.546" y="213.649" width="378.908" height="108.103" rx="16.9253" stroke="#212528" stroke-width="1.09195" shape-rendering="crispEdges"/>
<path d="M82.2641 277.201H76.0939V258.142H82.4595C84.327 258.142 85.9308 258.523 87.271 259.286C88.6111 260.043 89.6379 261.132 90.3514 262.553C91.0711 263.967 91.4309 265.664 91.4309 267.643C91.4309 269.629 91.068 271.335 90.3421 272.762C89.6224 274.189 88.5801 275.287 87.2151 276.056C85.8502 276.82 84.1998 277.201 82.2641 277.201ZM78.9696 274.688H82.1059C83.5577 274.688 84.7644 274.415 85.7261 273.869C86.6878 273.317 87.4075 272.52 87.8852 271.478C88.3629 270.429 88.6018 269.151 88.6018 267.643C88.6018 266.148 88.3629 264.879 87.8852 263.837C87.4137 262.795 86.7095 262.004 85.7726 261.464C84.8358 260.924 83.6725 260.654 82.2827 260.654H78.9696V274.688ZM98.9435 277.518C98.0377 277.518 97.2188 277.35 96.4867 277.015C95.7545 276.674 95.1744 276.181 94.7464 275.535C94.3245 274.89 94.1135 274.099 94.1135 273.162C94.1135 272.356 94.2686 271.692 94.5788 271.171C94.889 270.649 95.3078 270.237 95.8352 269.933C96.3626 269.629 96.952 269.399 97.6034 269.244C98.2549 269.089 98.9187 268.971 99.595 268.891C100.451 268.791 101.146 268.711 101.68 268.649C102.213 268.58 102.601 268.472 102.843 268.323C103.085 268.174 103.206 267.932 103.206 267.597V267.532C103.206 266.719 102.976 266.089 102.517 265.643C102.064 265.196 101.388 264.973 100.488 264.973C99.5516 264.973 98.8133 265.18 98.2735 265.596C97.7399 266.006 97.3708 266.462 97.166 266.964L94.5509 266.368C94.8611 265.5 95.314 264.799 95.9097 264.265C96.5115 263.725 97.2032 263.335 97.985 263.093C98.7667 262.844 99.5888 262.72 100.451 262.72C101.022 262.72 101.627 262.789 102.266 262.925C102.911 263.055 103.513 263.297 104.071 263.651C104.636 264.005 105.098 264.51 105.458 265.168C105.818 265.819 105.998 266.666 105.998 267.709V277.201H103.28V275.247H103.169C102.989 275.607 102.719 275.96 102.359 276.308C101.999 276.655 101.537 276.944 100.972 277.173C100.408 277.403 99.7315 277.518 98.9435 277.518ZM99.5485 275.284C100.318 275.284 100.975 275.132 101.521 274.828C102.074 274.524 102.492 274.127 102.778 273.637C103.069 273.14 103.215 272.61 103.215 272.045V270.203C103.116 270.302 102.924 270.395 102.638 270.482C102.359 270.563 102.039 270.634 101.68 270.696C101.32 270.752 100.969 270.805 100.628 270.854C100.287 270.898 100.001 270.935 99.7718 270.966C99.232 271.034 98.7388 271.149 98.2921 271.31C97.8516 271.472 97.498 271.704 97.2312 272.008C96.9706 272.306 96.8403 272.703 96.8403 273.199C96.8403 273.888 97.0947 274.409 97.6034 274.763C98.1122 275.11 98.7605 275.284 99.5485 275.284ZM116.377 262.907V265.14H108.569V262.907H116.377ZM110.663 259.482H113.445V273.004C113.445 273.544 113.526 273.95 113.687 274.223C113.849 274.49 114.056 274.673 114.311 274.772C114.571 274.865 114.854 274.912 115.158 274.912C115.381 274.912 115.576 274.896 115.744 274.865C115.911 274.834 116.042 274.809 116.135 274.791L116.637 277.089C116.476 277.152 116.247 277.214 115.949 277.276C115.651 277.344 115.279 277.381 114.832 277.387C114.1 277.4 113.417 277.269 112.785 276.996C112.152 276.723 111.64 276.302 111.249 275.731C110.858 275.16 110.663 274.443 110.663 273.581V259.482ZM125.462 277.49C124.054 277.49 122.841 277.189 121.823 276.587C120.812 275.979 120.03 275.126 119.478 274.028C118.932 272.923 118.659 271.63 118.659 270.147C118.659 268.683 118.932 267.392 119.478 266.275C120.03 265.159 120.8 264.287 121.786 263.66C122.779 263.034 123.939 262.72 125.267 262.72C126.073 262.72 126.855 262.854 127.612 263.121C128.369 263.387 129.048 263.806 129.65 264.377C130.252 264.948 130.727 265.689 131.074 266.601C131.421 267.507 131.595 268.608 131.595 269.905V270.891H120.232V268.807H128.868C128.868 268.075 128.719 267.426 128.422 266.862C128.124 266.291 127.705 265.841 127.165 265.512C126.632 265.183 126.005 265.019 125.285 265.019C124.504 265.019 123.821 265.211 123.238 265.596C122.661 265.975 122.214 266.471 121.898 267.085C121.588 267.693 121.433 268.354 121.433 269.067V270.696C121.433 271.651 121.6 272.464 121.935 273.134C122.276 273.804 122.751 274.316 123.359 274.67C123.967 275.017 124.677 275.191 125.49 275.191C126.017 275.191 126.498 275.117 126.933 274.968C127.367 274.813 127.742 274.583 128.059 274.279C128.375 273.975 128.617 273.6 128.785 273.153L131.418 273.628C131.207 274.403 130.829 275.082 130.283 275.666C129.743 276.243 129.064 276.692 128.245 277.015C127.432 277.331 126.505 277.49 125.462 277.49ZM143.105 267.941V270.352H134.655V267.941H143.105ZM146.813 277.201V262.907H149.503V265.177H149.652C149.913 264.408 150.372 263.803 151.029 263.363C151.693 262.916 152.444 262.692 153.281 262.692C153.455 262.692 153.66 262.699 153.896 262.711C154.138 262.723 154.327 262.739 154.463 262.758V265.419C154.352 265.388 154.153 265.354 153.868 265.317C153.582 265.273 153.297 265.252 153.012 265.252C152.354 265.252 151.768 265.391 151.253 265.671C150.744 265.943 150.341 266.325 150.043 266.815C149.745 267.299 149.596 267.851 149.596 268.472V277.201H146.813ZM160.903 277.518C159.998 277.518 159.179 277.35 158.447 277.015C157.714 276.674 157.134 276.181 156.706 275.535C156.284 274.89 156.073 274.099 156.073 273.162C156.073 272.356 156.228 271.692 156.539 271.171C156.849 270.649 157.268 270.237 157.795 269.933C158.322 269.629 158.912 269.399 159.563 269.244C160.215 269.089 160.879 268.971 161.555 268.891C162.411 268.791 163.106 268.711 163.639 268.649C164.173 268.58 164.561 268.472 164.803 268.323C165.045 268.174 165.166 267.932 165.166 267.597V267.532C165.166 266.719 164.936 266.089 164.477 265.643C164.024 265.196 163.348 264.973 162.448 264.973C161.511 264.973 160.773 265.18 160.233 265.596C159.7 266.006 159.331 266.462 159.126 266.964L156.511 266.368C156.821 265.5 157.274 264.799 157.87 264.265C158.471 263.725 159.163 263.335 159.945 263.093C160.727 262.844 161.549 262.72 162.411 262.72C162.982 262.72 163.587 262.789 164.226 262.925C164.871 263.055 165.473 263.297 166.031 263.651C166.596 264.005 167.058 264.51 167.418 265.168C167.778 265.819 167.958 266.666 167.958 267.709V277.201H165.24V275.247H165.129C164.949 275.607 164.679 275.96 164.319 276.308C163.959 276.655 163.497 276.944 162.932 277.173C162.368 277.403 161.691 277.518 160.903 277.518ZM161.508 275.284C162.278 275.284 162.935 275.132 163.481 274.828C164.033 274.524 164.452 274.127 164.738 273.637C165.029 273.14 165.175 272.61 165.175 272.045V270.203C165.076 270.302 164.883 270.395 164.598 270.482C164.319 270.563 163.999 270.634 163.639 270.696C163.28 270.752 162.929 270.805 162.588 270.854C162.247 270.898 161.961 270.935 161.732 270.966C161.192 271.034 160.699 271.149 160.252 271.31C159.811 271.472 159.458 271.704 159.191 272.008C158.93 272.306 158.8 272.703 158.8 273.199C158.8 273.888 159.055 274.409 159.563 274.763C160.072 275.11 160.72 275.284 161.508 275.284ZM174.447 268.714V277.201H171.664V262.907H174.335V265.233H174.512C174.841 264.476 175.356 263.868 176.057 263.409C176.764 262.95 177.654 262.72 178.728 262.72C179.702 262.72 180.555 262.925 181.287 263.335C182.019 263.738 182.587 264.34 182.99 265.14C183.393 265.94 183.595 266.93 183.595 268.109V277.201H180.812V268.444C180.812 267.408 180.542 266.598 180.003 266.015C179.463 265.425 178.721 265.131 177.778 265.131C177.133 265.131 176.559 265.27 176.057 265.55C175.56 265.829 175.166 266.238 174.875 266.778C174.589 267.312 174.447 267.957 174.447 268.714ZM193.32 282.859C192.185 282.859 191.207 282.711 190.388 282.413C189.576 282.115 188.912 281.721 188.397 281.231C187.882 280.741 187.497 280.204 187.243 279.621L189.635 278.634C189.802 278.907 190.026 279.196 190.305 279.5C190.59 279.81 190.975 280.074 191.459 280.291C191.949 280.508 192.579 280.617 193.348 280.617C194.403 280.617 195.274 280.359 195.963 279.844C196.652 279.335 196.996 278.523 196.996 277.406V274.595H196.819C196.652 274.899 196.41 275.238 196.093 275.61C195.783 275.982 195.355 276.305 194.809 276.578C194.263 276.851 193.553 276.987 192.678 276.987C191.549 276.987 190.531 276.723 189.625 276.196C188.726 275.663 188.012 274.878 187.485 273.842C186.964 272.799 186.703 271.518 186.703 269.998C186.703 268.478 186.961 267.175 187.476 266.089C187.997 265.004 188.71 264.172 189.616 263.595C190.522 263.012 191.549 262.72 192.696 262.72C193.584 262.72 194.3 262.869 194.846 263.167C195.392 263.459 195.817 263.8 196.121 264.191C196.431 264.582 196.67 264.926 196.838 265.224H197.043V262.907H199.769V277.518C199.769 278.746 199.484 279.754 198.913 280.542C198.342 281.33 197.57 281.913 196.596 282.292C195.628 282.67 194.536 282.859 193.32 282.859ZM193.292 274.679C194.092 274.679 194.769 274.493 195.321 274.121C195.879 273.742 196.301 273.203 196.587 272.501C196.878 271.794 197.024 270.947 197.024 269.961C197.024 268.999 196.881 268.152 196.596 267.42C196.31 266.688 195.892 266.117 195.34 265.708C194.787 265.292 194.105 265.084 193.292 265.084C192.455 265.084 191.757 265.301 191.198 265.736C190.64 266.164 190.218 266.747 189.932 267.485C189.653 268.224 189.514 269.049 189.514 269.961C189.514 270.898 189.656 271.72 189.942 272.427C190.227 273.134 190.649 273.686 191.207 274.084C191.772 274.481 192.467 274.679 193.292 274.679ZM209.662 277.49C208.254 277.49 207.041 277.189 206.023 276.587C205.012 275.979 204.23 275.126 203.678 274.028C203.132 272.923 202.859 271.63 202.859 270.147C202.859 268.683 203.132 267.392 203.678 266.275C204.23 265.159 205 264.287 205.986 263.66C206.979 263.034 208.139 262.72 209.467 262.72C210.273 262.72 211.055 262.854 211.812 263.121C212.569 263.387 213.248 263.806 213.85 264.377C214.452 264.948 214.926 265.689 215.274 266.601C215.621 267.507 215.795 268.608 215.795 269.905V270.891H204.432V268.807H213.068C213.068 268.075 212.919 267.426 212.622 266.862C212.324 266.291 211.905 265.841 211.365 265.512C210.832 265.183 210.205 265.019 209.485 265.019C208.704 265.019 208.021 265.211 207.438 265.596C206.861 265.975 206.414 266.471 206.098 267.085C205.788 267.693 205.632 268.354 205.632 269.067V270.696C205.632 271.651 205.8 272.464 206.135 273.134C206.476 273.804 206.951 274.316 207.559 274.67C208.167 275.017 208.877 275.191 209.69 275.191C210.217 275.191 210.698 275.117 211.133 274.968C211.567 274.813 211.942 274.583 212.259 274.279C212.575 273.975 212.817 273.6 212.984 273.153L215.618 273.628C215.407 274.403 215.029 275.082 214.483 275.666C213.943 276.243 213.264 276.692 212.445 277.015C211.632 277.331 210.704 277.49 209.662 277.49ZM236.437 263.148C236.337 262.267 235.928 261.585 235.208 261.101C234.489 260.611 233.583 260.366 232.491 260.366C231.709 260.366 231.033 260.49 230.462 260.738C229.891 260.98 229.448 261.315 229.131 261.743C228.821 262.165 228.666 262.646 228.666 263.186C228.666 263.639 228.771 264.029 228.982 264.358C229.199 264.687 229.482 264.963 229.829 265.187C230.183 265.404 230.561 265.587 230.965 265.736C231.368 265.878 231.756 265.996 232.128 266.089L233.989 266.573C234.597 266.722 235.221 266.924 235.86 267.178C236.499 267.433 237.091 267.768 237.637 268.183C238.183 268.599 238.624 269.114 238.959 269.728C239.3 270.342 239.471 271.078 239.471 271.934C239.471 273.013 239.191 273.972 238.633 274.809C238.081 275.647 237.277 276.308 236.223 276.792C235.174 277.276 233.905 277.518 232.416 277.518C230.989 277.518 229.755 277.291 228.712 276.838C227.67 276.385 226.854 275.743 226.265 274.912C225.675 274.074 225.35 273.082 225.288 271.934H228.173C228.228 272.622 228.452 273.196 228.843 273.655C229.24 274.108 229.745 274.446 230.36 274.67C230.98 274.887 231.659 274.996 232.398 274.996C233.21 274.996 233.933 274.868 234.566 274.614C235.205 274.353 235.708 273.994 236.074 273.534C236.44 273.069 236.623 272.526 236.623 271.906C236.623 271.341 236.462 270.879 236.139 270.519C235.822 270.159 235.391 269.862 234.845 269.626C234.306 269.39 233.694 269.182 233.012 269.002L230.76 268.388C229.234 267.972 228.024 267.361 227.13 266.555C226.243 265.748 225.799 264.681 225.799 263.353C225.799 262.255 226.097 261.296 226.693 260.478C227.288 259.659 228.095 259.023 229.113 258.57C230.13 258.111 231.278 257.881 232.556 257.881C233.846 257.881 234.985 258.107 235.971 258.56C236.964 259.013 237.746 259.637 238.317 260.431C238.887 261.219 239.185 262.125 239.21 263.148H236.437ZM248.844 277.49C247.436 277.49 246.223 277.189 245.206 276.587C244.194 275.979 243.413 275.126 242.86 274.028C242.314 272.923 242.041 271.63 242.041 270.147C242.041 268.683 242.314 267.392 242.86 266.275C243.413 265.159 244.182 264.287 245.168 263.66C246.161 263.034 247.321 262.72 248.649 262.72C249.456 262.72 250.237 262.854 250.994 263.121C251.751 263.387 252.431 263.806 253.032 264.377C253.634 264.948 254.109 265.689 254.456 266.601C254.804 267.507 254.977 268.608 254.977 269.905V270.891H243.614V268.807H252.251C252.251 268.075 252.102 267.426 251.804 266.862C251.506 266.291 251.087 265.841 250.548 265.512C250.014 265.183 249.387 265.019 248.668 265.019C247.886 265.019 247.203 265.211 246.62 265.596C246.043 265.975 245.597 266.471 245.28 267.085C244.97 267.693 244.815 268.354 244.815 269.067V270.696C244.815 271.651 244.982 272.464 245.317 273.134C245.659 273.804 246.133 274.316 246.741 274.67C247.349 275.017 248.06 275.191 248.872 275.191C249.4 275.191 249.881 275.117 250.315 274.968C250.749 274.813 251.125 274.583 251.441 274.279C251.757 273.975 251.999 273.6 252.167 273.153L254.801 273.628C254.59 274.403 254.211 275.082 253.665 275.666C253.125 276.243 252.446 276.692 251.627 277.015C250.814 277.331 249.887 277.49 248.844 277.49ZM264.086 277.49C262.703 277.49 261.511 277.176 260.512 276.55C259.52 275.917 258.757 275.045 258.223 273.935C257.689 272.824 257.423 271.552 257.423 270.119C257.423 268.667 257.696 267.386 258.242 266.275C258.788 265.159 259.557 264.287 260.55 263.66C261.542 263.034 262.712 262.72 264.058 262.72C265.144 262.72 266.112 262.922 266.962 263.325C267.812 263.722 268.497 264.281 269.018 265C269.546 265.72 269.859 266.561 269.958 267.522H267.25C267.101 266.852 266.76 266.275 266.227 265.791C265.699 265.308 264.992 265.066 264.105 265.066C263.329 265.066 262.65 265.27 262.067 265.68C261.49 266.083 261.04 266.66 260.717 267.411C260.395 268.155 260.233 269.036 260.233 270.054C260.233 271.096 260.391 271.996 260.708 272.753C261.024 273.51 261.471 274.096 262.048 274.512C262.631 274.927 263.317 275.135 264.105 275.135C264.632 275.135 265.11 275.039 265.538 274.847C265.972 274.648 266.335 274.366 266.627 274C266.925 273.634 267.132 273.193 267.25 272.678H269.958C269.859 273.603 269.558 274.428 269.056 275.154C268.553 275.88 267.88 276.45 267.036 276.866C266.199 277.282 265.215 277.49 264.086 277.49ZM281.989 271.273V262.907H284.781V277.201H282.045V274.726H281.896C281.567 275.489 281.04 276.125 280.314 276.633C279.594 277.136 278.698 277.387 277.625 277.387C276.706 277.387 275.894 277.186 275.186 276.782C274.485 276.373 273.933 275.768 273.53 274.968C273.133 274.167 272.934 273.178 272.934 271.999V262.907H275.717V271.664C275.717 272.638 275.987 273.413 276.526 273.99C277.066 274.567 277.767 274.856 278.63 274.856C279.151 274.856 279.669 274.726 280.184 274.465C280.705 274.205 281.136 273.811 281.477 273.283C281.825 272.756 281.996 272.086 281.989 271.273ZM288.52 277.201V262.907H291.21V265.177H291.359C291.619 264.408 292.078 263.803 292.736 263.363C293.4 262.916 294.15 262.692 294.988 262.692C295.162 262.692 295.367 262.699 295.602 262.711C295.844 262.723 296.033 262.739 296.17 262.758V265.419C296.058 265.388 295.86 265.354 295.574 265.317C295.289 265.273 295.004 265.252 294.718 265.252C294.061 265.252 293.474 265.391 292.959 265.671C292.451 265.943 292.047 266.325 291.749 266.815C291.452 267.299 291.303 267.851 291.303 268.472V277.201H288.52ZM298.578 277.201V262.907H301.361V277.201H298.578ZM299.983 260.701C299.499 260.701 299.084 260.54 298.736 260.217C298.395 259.888 298.224 259.497 298.224 259.044C298.224 258.585 298.395 258.194 298.736 257.872C299.084 257.543 299.499 257.378 299.983 257.378C300.467 257.378 300.88 257.543 301.221 257.872C301.568 258.194 301.742 258.585 301.742 259.044C301.742 259.497 301.568 259.888 301.221 260.217C300.88 260.54 300.467 260.701 299.983 260.701ZM311.777 262.907V265.14H303.969V262.907H311.777ZM306.063 259.482H308.845V273.004C308.845 273.544 308.926 273.95 309.087 274.223C309.249 274.49 309.456 274.673 309.711 274.772C309.971 274.865 310.254 274.912 310.558 274.912C310.781 274.912 310.977 274.896 311.144 274.865C311.312 274.834 311.442 274.809 311.535 274.791L312.037 277.089C311.876 277.152 311.647 277.214 311.349 277.276C311.051 277.344 310.679 277.381 310.232 277.387C309.5 277.4 308.817 277.269 308.185 276.996C307.552 276.723 307.04 276.302 306.649 275.731C306.258 275.16 306.063 274.443 306.063 273.581V259.482ZM316.614 282.562C316.198 282.562 315.82 282.528 315.478 282.459C315.137 282.397 314.883 282.329 314.715 282.255L315.385 279.974C315.894 280.111 316.347 280.17 316.744 280.151C317.141 280.133 317.492 279.984 317.796 279.705C318.106 279.425 318.379 278.969 318.615 278.337L318.959 277.387L313.729 262.907H316.707L320.327 274H320.476L324.096 262.907H327.084L321.193 279.109C320.92 279.854 320.572 280.483 320.15 280.998C319.728 281.519 319.226 281.91 318.643 282.171C318.059 282.431 317.383 282.562 316.614 282.562Z" fill="#212528"/>
</g>
<g filter="url(#filter3_d_386_339)">
<rect x="146.402" y="77.7012" width="109.195" height="109.195" rx="17.4713" fill="white" shape-rendering="crispEdges"/>
<rect x="146.948" y="78.2471" width="108.103" height="108.103" rx="16.9253" stroke="#212528" stroke-width="1.09195" shape-rendering="crispEdges"/>
<path d="M210.26 123.039C207.705 120.484 204.363 119.196 201 119.196V132.299L191.74 141.559C196.851 146.669 205.149 146.669 210.282 141.559C215.392 136.448 215.392 128.15 210.26 123.039ZM201 110.46C188.945 110.46 179.161 120.244 179.161 132.299C179.161 144.354 188.945 154.138 201 154.138C213.055 154.138 222.839 144.354 222.839 132.299C222.839 120.244 213.055 110.46 201 110.46ZM201 149.77C191.347 149.77 183.529 141.952 183.529 132.299C183.529 122.646 191.347 114.828 201 114.828C210.653 114.828 218.471 122.646 218.471 132.299C218.471 141.952 210.653 149.77 201 149.77Z" fill="#39C548"/>
</g>
<defs>
<filter id="filter0_d_386_339" x="11" y="77.7012" width="113.563" height="113.563" filterUnits="userSpaceOnUse" color-interpolation-filters="sRGB">
<feFlood flood-opacity="0" result="BackgroundImageFix"/>
<feColorMatrix in="SourceAlpha" type="matrix" values="0 0 0 0 0 0 0 0 0 0 0 0 0 0 0 0 0 0 127 0" result="hardAlpha"/>
<feOffset dx="4.36782" dy="4.36782"/>
<feComposite in2="hardAlpha" operator="out"/>
<feColorMatrix type="matrix" values="0 0 0 0 0.6 0 0 0 0 0.800784 0 0 0 0 1 0 0 0 1 0"/>
<feBlend mode="normal" in2="BackgroundImageFix" result="effect1_dropShadow_386_339"/>
<feBlend mode="normal" in="SourceGraphic" in2="effect1_dropShadow_386_339" result="shape"/>
</filter>
<filter id="filter1_d_386_339" x="281.805" y="77.7012" width="113.563" height="113.563" filterUnits="userSpaceOnUse" color-interpolation-filters="sRGB">
<feFlood flood-opacity="0" result="BackgroundImageFix"/>
<feColorMatrix in="SourceAlpha" type="matrix" values="0 0 0 0 0 0 0 0 0 0 0 0 0 0 0 0 0 0 127 0" result="hardAlpha"/>
<feOffset dx="4.36782" dy="4.36782"/>
<feComposite in2="hardAlpha" operator="out"/>
<feColorMatrix type="matrix" values="0 0 0 0 0.6 0 0 0 0 0.800784 0 0 0 0 1 0 0 0 1 0"/>
<feBlend mode="normal" in2="BackgroundImageFix" result="effect1_dropShadow_386_339"/>
<feBlend mode="normal" in="SourceGraphic" in2="effect1_dropShadow_386_339" result="shape"/>
</filter>
<filter id="filter2_d_386_339" x="11" y="213.104" width="384.368" height="113.563" filterUnits="userSpaceOnUse" color-interpolation-filters="sRGB">
<feFlood flood-opacity="0" result="BackgroundImageFix"/>
<feColorMatrix in="SourceAlpha" type="matrix" values="0 0 0 0 0 0 0 0 0 0 0 0 0 0 0 0 0 0 127 0" result="hardAlpha"/>
<feOffset dx="4.36782" dy="4.36782"/>
<feComposite in2="hardAlpha" operator="out"/>
<feColorMatrix type="matrix" values="0 0 0 0 0.690435 0 0 0 0 0.909565 0 0 0 0 0.713043 0 0 0 1 0"/>
<feBlend mode="normal" in2="BackgroundImageFix" result="effect1_dropShadow_386_339"/>
<feBlend mode="normal" in="SourceGraphic" in2="effect1_dropShadow_386_339" result="shape"/>
</filter>
<filter id="filter3_d_386_339" x="146.402" y="77.7012" width="113.563" height="113.563" filterUnits="userSpaceOnUse" color-interpolation-filters="sRGB">
<feFlood flood-opacity="0" result="BackgroundImageFix"/>
<feColorMatrix in="SourceAlpha" type="matrix" values="0 0 0 0 0 0 0 0 0 0 0 0 0 0 0 0 0 0 127 0" result="hardAlpha"/>
<feOffset dx="4.36782" dy="4.36782"/>
<feComposite in2="hardAlpha" operator="out"/>
<feColorMatrix type="matrix" values="0 0 0 0 0.690435 0 0 0 0 0.909565 0 0 0 0 0.713043 0 0 0 1 0"/>
<feBlend mode="normal" in2="BackgroundImageFix" result="effect1_dropShadow_386_339"/>
<feBlend mode="normal" in="SourceGraphic" in2="effect1_dropShadow_386_339" result="shape"/>
</filter>
</defs>
</svg>
