<svg width="401" height="400" viewBox="0 0 401 400" fill="none" xmlns="http://www.w3.org/2000/svg">
<g filter="url(#filter0_d_387_363)">
<rect x="11" y="10" width="109.195" height="109.195" rx="17.4713" fill="white" shape-rendering="crispEdges"/>
<rect x="11.546" y="10.546" width="108.103" height="108.103" rx="16.9253" stroke="#212528" stroke-width="1.09195" shape-rendering="crispEdges"/>
<path d="M80.8851 53.6781H76.5172V58.046H80.8851V53.6781Z" fill="#0080FF"/>
<path d="M80.8851 62.4138H76.5172V66.7816H80.8851V62.4138Z" fill="#0080FF"/>
<path d="M80.8851 71.1494H76.5172V75.5172H80.8851V71.1494Z" fill="#0080FF"/>
<path d="M41.5747 62.4138V84.2528H54.6782V73.3333H59.046V84.2528H72.1494V62.4138L56.8621 51.4942L41.5747 62.4138ZM67.7816 79.885H63.4138V68.9655H50.3103V79.885H45.9425V64.5977L56.8621 56.954L67.7816 64.5977V79.885Z" fill="#0080FF"/>
<path d="M61.2299 44.9425V49.2448L65.5977 52.3678V49.3103H85.2529V79.885H76.5172V84.2528H89.6207V44.9425H61.2299Z" fill="#0080FF"/>
</g>
<g filter="url(#filter1_d_387_363)">
<rect x="146.402" y="10" width="109.195" height="109.195" rx="17.4713" fill="white" shape-rendering="crispEdges"/>
<rect x="146.948" y="10.546" width="108.103" height="108.103" rx="16.9253" stroke="#212528" stroke-width="1.09195" shape-rendering="crispEdges"/>
<path d="M220.655 42.7585H181.345C178.943 42.7585 176.977 44.7241 176.977 47.1264V73.3333C176.977 75.7356 178.943 77.7011 181.345 77.7011H196.632L192.264 84.2528V86.4367H209.736V84.2528L205.368 77.7011H220.655C223.057 77.7011 225.023 75.7356 225.023 73.3333V47.1264C225.023 44.7241 223.057 42.7585 220.655 42.7585ZM220.655 68.9654H181.345V47.1264H220.655V68.9654Z" fill="#F2800D"/>
</g>
<g filter="url(#filter2_d_387_363)">
<rect x="281.805" y="10" width="109.195" height="109.195" rx="17.4713" fill="white" shape-rendering="crispEdges"/>
<rect x="282.351" y="10.546" width="108.103" height="108.103" rx="16.9253" stroke="#212528" stroke-width="1.09195" shape-rendering="crispEdges"/>
<path d="M351.69 56.954H349.506V46.0344H327.667V56.954H325.963C324.762 55.6218 323.059 54.7701 321.115 54.7701C317.49 54.7701 314.563 57.6965 314.563 61.3218V76.6091C314.563 80.2344 317.49 83.1609 321.115 83.1609C323.059 83.1609 324.762 82.3091 325.963 80.977H358.241V63.5057C358.241 59.8804 355.315 56.954 351.69 56.954ZM323.299 76.6091C323.299 77.8103 322.316 78.793 321.115 78.793C319.914 78.793 318.931 77.8103 318.931 76.6091V61.3218C318.931 60.1206 319.914 59.1379 321.115 59.1379C322.316 59.1379 323.299 60.1206 323.299 61.3218V76.6091ZM332.034 50.4022H345.138V56.954H332.034V50.4022ZM353.873 76.6091H327.667V61.3218H351.69C352.891 61.3218 353.873 62.3045 353.873 63.5057V76.6091Z" fill="#0080FF"/>
<path d="M342.954 67.8735C344.16 67.8735 345.138 66.8957 345.138 65.6896C345.138 64.4835 344.16 63.5057 342.954 63.5057C341.748 63.5057 340.77 64.4835 340.77 65.6896C340.77 66.8957 341.748 67.8735 342.954 67.8735Z" fill="#0080FF"/>
<path d="M349.506 67.8735C350.712 67.8735 351.69 66.8957 351.69 65.6896C351.69 64.4835 350.712 63.5057 349.506 63.5057C348.299 63.5057 347.322 64.4835 347.322 65.6896C347.322 66.8957 348.299 67.8735 349.506 67.8735Z" fill="#0080FF"/>
<path d="M342.954 74.4252C344.16 74.4252 345.138 73.4475 345.138 72.2413C345.138 71.0352 344.16 70.0574 342.954 70.0574C341.748 70.0574 340.77 71.0352 340.77 72.2413C340.77 73.4475 341.748 74.4252 342.954 74.4252Z" fill="#0080FF"/>
<path d="M349.506 74.4252C350.712 74.4252 351.69 73.4475 351.69 72.2413C351.69 71.0352 350.712 70.0574 349.506 70.0574C348.299 70.0574 347.322 71.0352 347.322 72.2413C347.322 73.4475 348.299 74.4252 349.506 74.4252Z" fill="#0080FF"/>
<path d="M338.586 63.5057H329.85V74.4252H338.586V63.5057Z" fill="#0080FF"/>
</g>
<g filter="url(#filter3_d_387_363)">
<rect x="11" y="145.402" width="244.598" height="109.195" rx="17.4713" fill="white" shape-rendering="crispEdges"/>
<rect x="11.546" y="145.948" width="243.506" height="108.103" rx="16.9253" stroke="#212528" stroke-width="1.09195" shape-rendering="crispEdges"/>
<path d="M62.4153 192V172.94H74.2344V175.416H65.291V181.223H73.3876V183.689H65.291V192H62.4153ZM77.5475 192V177.705H80.3302V192H77.5475ZM78.9528 175.5C78.4689 175.5 78.0532 175.338 77.7057 175.016C77.3645 174.687 77.1939 174.296 77.1939 173.843C77.1939 173.384 77.3645 172.993 77.7057 172.671C78.0532 172.342 78.4689 172.177 78.9528 172.177C79.4367 172.177 79.8493 172.342 80.1906 172.671C80.538 172.993 80.7117 173.384 80.7117 173.843C80.7117 174.296 80.538 174.687 80.1906 175.016C79.8493 175.338 79.4367 175.5 78.9528 175.5ZM86.27 177.705L89.4249 183.271L92.6077 177.705H95.6509L91.1931 184.853L95.6881 192H92.6449L89.4249 186.658L86.2141 192H83.1616L87.6101 184.853L83.2175 177.705H86.27ZM104.106 192.288C102.697 192.288 101.484 191.988 100.467 191.386C99.4556 190.778 98.6739 189.925 98.1217 188.827C97.5757 187.722 97.3028 186.429 97.3028 184.946C97.3028 183.482 97.5757 182.191 98.1217 181.074C98.6739 179.957 99.4432 179.086 100.43 178.459C101.422 177.833 102.583 177.519 103.91 177.519C104.717 177.519 105.499 177.653 106.256 177.919C107.012 178.186 107.692 178.605 108.294 179.176C108.895 179.747 109.37 180.488 109.718 181.4C110.065 182.306 110.239 183.407 110.239 184.704V185.69H98.8755V183.606H107.512C107.512 182.873 107.363 182.225 107.065 181.661C106.767 181.09 106.349 180.64 105.809 180.311C105.275 179.982 104.649 179.818 103.929 179.818C103.147 179.818 102.465 180.01 101.882 180.395C101.305 180.773 100.858 181.27 100.541 181.884C100.231 182.492 100.076 183.153 100.076 183.866V185.495C100.076 186.45 100.244 187.263 100.579 187.933C100.92 188.603 101.394 189.115 102.003 189.469C102.611 189.816 103.321 189.99 104.134 189.99C104.661 189.99 105.142 189.915 105.576 189.766C106.01 189.611 106.386 189.382 106.702 189.078C107.019 188.774 107.261 188.398 107.428 187.952L110.062 188.426C109.851 189.202 109.472 189.881 108.926 190.464C108.387 191.041 107.707 191.491 106.888 191.814C106.076 192.13 105.148 192.288 104.106 192.288ZM118.677 192.279C117.523 192.279 116.493 191.984 115.588 191.395C114.688 190.799 113.981 189.953 113.466 188.854C112.957 187.75 112.703 186.425 112.703 184.881C112.703 183.336 112.96 182.014 113.475 180.916C113.996 179.818 114.71 178.977 115.615 178.394C116.521 177.811 117.548 177.519 118.696 177.519C119.583 177.519 120.297 177.668 120.836 177.966C121.382 178.258 121.804 178.599 122.102 178.99C122.406 179.38 122.642 179.725 122.809 180.023H122.977V172.94H125.759V192H123.042V189.776H122.809C122.642 190.08 122.4 190.427 122.083 190.818C121.773 191.209 121.345 191.55 120.799 191.842C120.253 192.133 119.546 192.279 118.677 192.279ZM119.292 189.906C120.092 189.906 120.768 189.695 121.32 189.273C121.879 188.845 122.301 188.253 122.586 187.496C122.878 186.739 123.023 185.858 123.023 184.853C123.023 183.86 122.881 182.991 122.595 182.247C122.31 181.502 121.891 180.922 121.339 180.507C120.787 180.091 120.104 179.883 119.292 179.883C118.454 179.883 117.756 180.1 117.198 180.534C116.639 180.969 116.217 181.561 115.932 182.312C115.653 183.063 115.513 183.91 115.513 184.853C115.513 185.808 115.656 186.667 115.941 187.431C116.227 188.194 116.648 188.799 117.207 189.245C117.771 189.686 118.466 189.906 119.292 189.906ZM138.5 192H135.447L142.306 172.94H145.629L152.488 192H149.435L144.047 176.402H143.898L138.5 192ZM139.012 184.536H148.914V186.956H139.012V184.536ZM165.626 181.195L163.104 181.642C162.998 181.319 162.831 181.012 162.601 180.721C162.378 180.429 162.074 180.19 161.689 180.004C161.305 179.818 160.824 179.725 160.247 179.725C159.459 179.725 158.801 179.902 158.274 180.255C157.746 180.603 157.483 181.053 157.483 181.605C157.483 182.082 157.66 182.467 158.013 182.759C158.367 183.05 158.938 183.289 159.726 183.475L161.996 183.996C163.312 184.3 164.292 184.769 164.937 185.402C165.582 186.035 165.905 186.857 165.905 187.868C165.905 188.724 165.657 189.487 165.161 190.157C164.67 190.821 163.985 191.342 163.104 191.721C162.229 192.099 161.215 192.288 160.061 192.288C158.46 192.288 157.154 191.947 156.143 191.265C155.131 190.576 154.511 189.599 154.281 188.333L156.971 187.924C157.138 188.625 157.483 189.155 158.004 189.515C158.525 189.869 159.204 190.046 160.042 190.046C160.954 190.046 161.683 189.856 162.229 189.478C162.775 189.093 163.048 188.625 163.048 188.073C163.048 187.626 162.88 187.251 162.545 186.947C162.217 186.643 161.711 186.413 161.029 186.258L158.609 185.727C157.275 185.423 156.288 184.94 155.649 184.276C155.017 183.612 154.7 182.771 154.7 181.754C154.7 180.91 154.936 180.172 155.407 179.539C155.879 178.906 156.53 178.413 157.362 178.059C158.193 177.699 159.146 177.519 160.219 177.519C161.764 177.519 162.98 177.854 163.867 178.524C164.754 179.188 165.34 180.078 165.626 181.195ZM179.676 181.195L177.154 181.642C177.049 181.319 176.881 181.012 176.652 180.721C176.428 180.429 176.124 180.19 175.74 180.004C175.355 179.818 174.874 179.725 174.297 179.725C173.509 179.725 172.852 179.902 172.324 180.255C171.797 180.603 171.533 181.053 171.533 181.605C171.533 182.082 171.71 182.467 172.064 182.759C172.417 183.05 172.988 183.289 173.776 183.475L176.047 183.996C177.362 184.3 178.342 184.769 178.988 185.402C179.633 186.035 179.955 186.857 179.955 187.868C179.955 188.724 179.707 189.487 179.211 190.157C178.721 190.821 178.035 191.342 177.154 191.721C176.279 192.099 175.265 192.288 174.111 192.288C172.51 192.288 171.204 191.947 170.193 191.265C169.182 190.576 168.561 189.599 168.332 188.333L171.021 187.924C171.189 188.625 171.533 189.155 172.054 189.515C172.575 189.869 173.255 190.046 174.092 190.046C175.004 190.046 175.733 189.856 176.279 189.478C176.825 189.093 177.098 188.625 177.098 188.073C177.098 187.626 176.931 187.251 176.596 186.947C176.267 186.643 175.761 186.413 175.079 186.258L172.659 185.727C171.325 185.423 170.339 184.94 169.7 184.276C169.067 183.612 168.751 182.771 168.751 181.754C168.751 180.91 168.986 180.172 169.458 179.539C169.929 178.906 170.581 178.413 171.412 178.059C172.244 177.699 173.196 177.519 174.269 177.519C175.814 177.519 177.03 177.854 177.917 178.524C178.805 179.188 179.391 180.078 179.676 181.195ZM189.176 192.288C187.767 192.288 186.554 191.988 185.537 191.386C184.526 190.778 183.744 189.925 183.192 188.827C182.646 187.722 182.373 186.429 182.373 184.946C182.373 183.482 182.646 182.191 183.192 181.074C183.744 179.957 184.513 179.086 185.5 178.459C186.492 177.833 187.653 177.519 188.98 177.519C189.787 177.519 190.569 177.653 191.326 177.919C192.083 178.186 192.762 178.605 193.364 179.176C193.966 179.747 194.44 180.488 194.788 181.4C195.135 182.306 195.309 183.407 195.309 184.704V185.69H183.946V183.606H192.582C192.582 182.873 192.433 182.225 192.135 181.661C191.837 181.09 191.419 180.64 190.879 180.311C190.345 179.982 189.719 179.818 188.999 179.818C188.217 179.818 187.535 180.01 186.952 180.395C186.375 180.773 185.928 181.27 185.611 181.884C185.301 182.492 185.146 183.153 185.146 183.866V185.495C185.146 186.45 185.314 187.263 185.649 187.933C185.99 188.603 186.465 189.115 187.073 189.469C187.681 189.816 188.391 189.99 189.204 189.99C189.731 189.99 190.212 189.915 190.646 189.766C191.081 189.611 191.456 189.382 191.772 189.078C192.089 188.774 192.331 188.398 192.498 187.952L195.132 188.426C194.921 189.202 194.542 189.881 193.997 190.464C193.457 191.041 192.777 191.491 191.958 191.814C191.146 192.13 190.218 192.288 189.176 192.288ZM205.069 177.705V179.939H197.261V177.705H205.069ZM199.355 174.281H202.137V187.803C202.137 188.343 202.218 188.749 202.379 189.022C202.541 189.289 202.748 189.472 203.003 189.571C203.263 189.664 203.546 189.711 203.85 189.711C204.073 189.711 204.268 189.695 204.436 189.664C204.604 189.633 204.734 189.608 204.827 189.59L205.329 191.888C205.168 191.95 204.939 192.012 204.641 192.074C204.343 192.143 203.971 192.18 203.524 192.186C202.792 192.199 202.109 192.068 201.477 191.795C200.844 191.522 200.332 191.1 199.941 190.53C199.55 189.959 199.355 189.242 199.355 188.38V174.281ZM53.1252 207.94H56.6151L62.6829 222.756H62.9062L68.974 207.94H72.4639V227H69.7278V213.208H69.551L63.9299 226.972H61.6592L56.0381 213.199H55.8612V227H53.1252V207.94ZM80.5814 227.316C79.6756 227.316 78.8566 227.149 78.1245 226.814C77.3924 226.473 76.8123 225.979 76.3842 225.334C75.9624 224.689 75.7514 223.898 75.7514 222.961C75.7514 222.154 75.9065 221.491 76.2167 220.969C76.5269 220.448 76.9457 220.036 77.4731 219.732C78.0005 219.428 78.5899 219.198 79.2413 219.043C79.8928 218.888 80.5566 218.77 81.2329 218.689C82.0891 218.59 82.784 218.509 83.3175 218.447C83.8511 218.379 84.2389 218.271 84.4808 218.122C84.7228 217.973 84.8438 217.731 84.8438 217.396V217.331C84.8438 216.518 84.6142 215.888 84.1551 215.441C83.7022 214.995 83.0259 214.771 82.1263 214.771C81.1895 214.771 80.4512 214.979 79.9114 215.395C79.3778 215.804 79.0087 216.26 78.8039 216.763L76.1888 216.167C76.499 215.299 76.9519 214.598 77.5475 214.064C78.1494 213.524 78.8411 213.133 79.6229 212.891C80.4046 212.643 81.2267 212.519 82.0891 212.519C82.6599 212.519 83.2648 212.587 83.9038 212.724C84.5491 212.854 85.1509 213.096 85.7093 213.45C86.2739 213.803 86.7361 214.309 87.0959 214.967C87.4558 215.618 87.6357 216.465 87.6357 217.507V227H84.9182V225.046H84.8066C84.6266 225.405 84.3567 225.759 83.9969 226.107C83.6371 226.454 83.1748 226.743 82.6102 226.972C82.0457 227.202 81.3694 227.316 80.5814 227.316ZM81.1864 225.083C81.9557 225.083 82.6133 224.931 83.1593 224.627C83.7115 224.323 84.1303 223.926 84.4157 223.436C84.7073 222.939 84.8531 222.409 84.8531 221.844V220.002C84.7538 220.101 84.5615 220.194 84.2761 220.281C83.9969 220.361 83.6774 220.433 83.3175 220.495C82.9577 220.551 82.6071 220.603 82.2659 220.653C81.9247 220.696 81.6393 220.734 81.4097 220.765C80.8699 220.833 80.3767 220.948 79.93 221.109C79.4895 221.27 79.1358 221.503 78.8691 221.807C78.6085 222.105 78.4782 222.502 78.4782 222.998C78.4782 223.687 78.7326 224.208 79.2413 224.562C79.7501 224.909 80.3984 225.083 81.1864 225.083ZM94.1246 218.513V227H91.342V212.705H94.0129V215.032H94.1898C94.5186 214.275 95.0335 213.667 95.7346 213.208C96.4419 212.749 97.3322 212.519 98.4056 212.519C99.3796 212.519 100.233 212.724 100.965 213.133C101.697 213.537 102.265 214.139 102.668 214.939C103.071 215.739 103.273 216.729 103.273 217.908V227H100.49V218.243C100.49 217.207 100.22 216.397 99.6806 215.814C99.1408 215.224 98.3994 214.93 97.4563 214.93C96.8111 214.93 96.2372 215.069 95.7346 215.348C95.2383 215.628 94.8443 216.037 94.5527 216.577C94.2673 217.11 94.1246 217.756 94.1246 218.513ZM111.165 227.316C110.259 227.316 109.44 227.149 108.708 226.814C107.976 226.473 107.396 225.979 106.967 225.334C106.546 224.689 106.335 223.898 106.335 222.961C106.335 222.154 106.49 221.491 106.8 220.969C107.11 220.448 107.529 220.036 108.056 219.732C108.584 219.428 109.173 219.198 109.825 219.043C110.476 218.888 111.14 218.77 111.816 218.689C112.672 218.59 113.367 218.509 113.901 218.447C114.434 218.379 114.822 218.271 115.064 218.122C115.306 217.973 115.427 217.731 115.427 217.396V217.331C115.427 216.518 115.197 215.888 114.738 215.441C114.285 214.995 113.609 214.771 112.71 214.771C111.773 214.771 111.034 214.979 110.495 215.395C109.961 215.804 109.592 216.26 109.387 216.763L106.772 216.167C107.082 215.299 107.535 214.598 108.131 214.064C108.733 213.524 109.424 213.133 110.206 212.891C110.988 212.643 111.81 212.519 112.672 212.519C113.243 212.519 113.848 212.587 114.487 212.724C115.132 212.854 115.734 213.096 116.293 213.45C116.857 213.803 117.319 214.309 117.679 214.967C118.039 215.618 118.219 216.465 118.219 217.507V227H115.501V225.046H115.39C115.21 225.405 114.94 225.759 114.58 226.107C114.22 226.454 113.758 226.743 113.193 226.972C112.629 227.202 111.953 227.316 111.165 227.316ZM111.77 225.083C112.539 225.083 113.197 224.931 113.743 224.627C114.295 224.323 114.714 223.926 114.999 223.436C115.291 222.939 115.436 222.409 115.436 221.844V220.002C115.337 220.101 115.145 220.194 114.859 220.281C114.58 220.361 114.261 220.433 113.901 220.495C113.541 220.551 113.19 220.603 112.849 220.653C112.508 220.696 112.223 220.734 111.993 220.765C111.453 220.833 110.96 220.948 110.513 221.109C110.073 221.27 109.719 221.503 109.452 221.807C109.192 222.105 109.061 222.502 109.061 222.998C109.061 223.687 109.316 224.208 109.825 224.562C110.333 224.909 110.982 225.083 111.77 225.083ZM127.919 232.658C126.783 232.658 125.806 232.509 124.987 232.212C124.174 231.914 123.51 231.52 122.995 231.03C122.481 230.54 122.096 230.003 121.841 229.42L124.233 228.433C124.401 228.706 124.624 228.995 124.903 229.299C125.189 229.609 125.573 229.873 126.057 230.09C126.547 230.307 127.177 230.415 127.946 230.415C129.001 230.415 129.873 230.158 130.562 229.643C131.25 229.134 131.595 228.322 131.595 227.205V224.394H131.418C131.25 224.698 131.008 225.036 130.692 225.409C130.382 225.781 129.954 226.103 129.408 226.376C128.862 226.649 128.151 226.786 127.276 226.786C126.147 226.786 125.13 226.522 124.224 225.995C123.324 225.461 122.611 224.676 122.083 223.64C121.562 222.598 121.302 221.317 121.302 219.797C121.302 218.277 121.559 216.974 122.074 215.888C122.595 214.802 123.309 213.971 124.215 213.394C125.12 212.811 126.147 212.519 127.295 212.519C128.182 212.519 128.899 212.668 129.445 212.966C129.991 213.258 130.416 213.599 130.72 213.99C131.03 214.38 131.269 214.725 131.436 215.023H131.641V212.705H134.368V227.316C134.368 228.545 134.083 229.553 133.512 230.341C132.941 231.129 132.169 231.712 131.194 232.091C130.227 232.469 129.135 232.658 127.919 232.658ZM127.891 224.478C128.691 224.478 129.367 224.292 129.919 223.92C130.478 223.541 130.9 223.001 131.185 222.3C131.477 221.593 131.623 220.746 131.623 219.76C131.623 218.798 131.48 217.951 131.194 217.219C130.909 216.487 130.49 215.916 129.938 215.507C129.386 215.091 128.703 214.883 127.891 214.883C127.053 214.883 126.355 215.1 125.797 215.534C125.238 215.963 124.816 216.546 124.531 217.284C124.252 218.022 124.112 218.848 124.112 219.76C124.112 220.696 124.255 221.519 124.54 222.226C124.826 222.933 125.248 223.485 125.806 223.882C126.371 224.279 127.065 224.478 127.891 224.478ZM144.261 227.288C142.852 227.288 141.639 226.988 140.622 226.386C139.611 225.778 138.829 224.925 138.277 223.827C137.731 222.722 137.458 221.429 137.458 219.946C137.458 218.482 137.731 217.191 138.277 216.074C138.829 214.957 139.598 214.086 140.585 213.459C141.577 212.833 142.738 212.519 144.065 212.519C144.872 212.519 145.654 212.653 146.41 212.919C147.167 213.186 147.847 213.605 148.449 214.176C149.05 214.747 149.525 215.488 149.872 216.4C150.22 217.306 150.394 218.407 150.394 219.704V220.69H139.03V218.606H147.667C147.667 217.873 147.518 217.225 147.22 216.661C146.922 216.09 146.504 215.64 145.964 215.311C145.43 214.982 144.804 214.818 144.084 214.818C143.302 214.818 142.62 215.01 142.036 215.395C141.459 215.773 141.013 216.27 140.696 216.884C140.386 217.492 140.231 218.153 140.231 218.866V220.495C140.231 221.45 140.398 222.263 140.734 222.933C141.075 223.603 141.549 224.115 142.157 224.469C142.765 224.816 143.476 224.99 144.289 224.99C144.816 224.99 145.297 224.915 145.731 224.766C146.165 224.611 146.541 224.382 146.857 224.078C147.174 223.774 147.416 223.398 147.583 222.952L150.217 223.426C150.006 224.202 149.627 224.881 149.081 225.464C148.542 226.041 147.862 226.491 147.043 226.814C146.231 227.13 145.303 227.288 144.261 227.288ZM153.481 227V212.705H156.152V215.032H156.329C156.627 214.244 157.114 213.63 157.79 213.189C158.466 212.743 159.276 212.519 160.219 212.519C161.174 212.519 161.975 212.743 162.62 213.189C163.271 213.636 163.752 214.25 164.062 215.032H164.211C164.553 214.269 165.095 213.661 165.84 213.208C166.584 212.749 167.472 212.519 168.502 212.519C169.798 212.519 170.856 212.926 171.675 213.738C172.5 214.551 172.913 215.776 172.913 217.414V227H170.13V217.675C170.13 216.707 169.867 216.006 169.339 215.572C168.812 215.137 168.182 214.92 167.45 214.92C166.544 214.92 165.84 215.199 165.337 215.758C164.835 216.31 164.584 217.02 164.584 217.889V227H161.81V217.498C161.81 216.723 161.568 216.099 161.084 215.628C160.6 215.156 159.971 214.92 159.195 214.92C158.668 214.92 158.181 215.06 157.734 215.339C157.294 215.612 156.937 215.994 156.664 216.484C156.397 216.974 156.264 217.542 156.264 218.187V227H153.481ZM182.803 227.288C181.395 227.288 180.182 226.988 179.164 226.386C178.153 225.778 177.371 224.925 176.819 223.827C176.273 222.722 176 221.429 176 219.946C176 218.482 176.273 217.191 176.819 216.074C177.371 214.957 178.141 214.086 179.127 213.459C180.12 212.833 181.28 212.519 182.608 212.519C183.414 212.519 184.196 212.653 184.953 212.919C185.71 213.186 186.389 213.605 186.991 214.176C187.593 214.747 188.068 215.488 188.415 216.4C188.762 217.306 188.936 218.407 188.936 219.704V220.69H177.573V218.606H186.209C186.209 217.873 186.06 217.225 185.763 216.661C185.465 216.09 185.046 215.64 184.506 215.311C183.973 214.982 183.346 214.818 182.626 214.818C181.845 214.818 181.162 215.01 180.579 215.395C180.002 215.773 179.555 216.27 179.239 216.884C178.929 217.492 178.774 218.153 178.774 218.866V220.495C178.774 221.45 178.941 222.263 179.276 222.933C179.617 223.603 180.092 224.115 180.7 224.469C181.308 224.816 182.018 224.99 182.831 224.99C183.359 224.99 183.839 224.915 184.274 224.766C184.708 224.611 185.083 224.382 185.4 224.078C185.716 223.774 185.958 223.398 186.126 222.952L188.759 223.426C188.548 224.202 188.17 224.881 187.624 225.464C187.084 226.041 186.405 226.491 185.586 226.814C184.773 227.13 183.846 227.288 182.803 227.288ZM194.806 218.513V227H192.024V212.705H194.695V215.032H194.871C195.2 214.275 195.715 213.667 196.416 213.208C197.123 212.749 198.014 212.519 199.087 212.519C200.061 212.519 200.914 212.724 201.646 213.133C202.379 213.537 202.946 214.139 203.349 214.939C203.753 215.739 203.954 216.729 203.954 217.908V227H201.172V218.243C201.172 217.207 200.902 216.397 200.362 215.814C199.822 215.224 199.081 214.93 198.138 214.93C197.493 214.93 196.919 215.069 196.416 215.348C195.92 215.628 195.526 216.037 195.234 216.577C194.949 217.11 194.806 217.756 194.806 218.513ZM214.359 212.705V214.939H206.551V212.705H214.359ZM208.645 209.281H211.427V222.803C211.427 223.343 211.508 223.749 211.669 224.022C211.831 224.289 212.039 224.472 212.293 224.571C212.554 224.664 212.836 224.711 213.14 224.711C213.363 224.711 213.559 224.695 213.726 224.664C213.894 224.633 214.024 224.608 214.117 224.59L214.62 226.888C214.458 226.95 214.229 227.012 213.931 227.074C213.633 227.143 213.261 227.18 212.814 227.186C212.082 227.199 211.4 227.068 210.767 226.795C210.134 226.522 209.622 226.1 209.231 225.53C208.84 224.959 208.645 224.242 208.645 223.38V209.281Z" fill="#212528"/>
</g>
<g filter="url(#filter4_d_387_363)">
<rect x="281.805" y="145.402" width="109.195" height="109.195" rx="17.4713" fill="white" shape-rendering="crispEdges"/>
<rect x="282.351" y="145.948" width="108.103" height="108.103" rx="16.9253" stroke="#212528" stroke-width="1.09195" shape-rendering="crispEdges"/>
<path d="M358.154 195.042L355.031 184.123C354.769 183.184 353.917 182.529 352.934 182.529H319.87C318.887 182.529 318.036 183.184 317.774 184.123L314.651 195.042C314.257 196.418 315.306 197.816 316.747 197.816H321.552L318.931 217.471H323.299L324.762 206.552H348.064L349.506 217.471H353.874L351.253 197.816H356.057C357.499 197.816 358.547 196.418 358.154 195.042ZM325.33 202.184L325.92 197.816H346.885L347.475 202.184H325.33ZM319.652 193.448L321.53 186.897H351.297L353.175 193.448H319.652Z" fill="#F2800D"/>
</g>
<g filter="url(#filter5_d_387_363)">
<rect x="11" y="280.805" width="109.195" height="109.195" rx="17.4713" fill="white" shape-rendering="crispEdges"/>
<rect x="11.546" y="281.351" width="108.103" height="108.103" rx="16.9253" stroke="#212528" stroke-width="1.09195" shape-rendering="crispEdges"/>
<path d="M80.7103 320.137C80.2735 318.848 79.0506 317.931 77.6092 317.931H53.5862C52.1448 317.931 50.9437 318.848 50.485 320.137L45.9425 333.218V350.69C45.9425 351.891 46.9253 352.873 48.1264 352.873H50.3103C51.5115 352.873 52.4942 351.891 52.4942 350.69V348.506H78.7011V350.69C78.7011 351.891 79.6839 352.873 80.885 352.873H83.0689C84.2701 352.873 85.2528 351.891 85.2528 350.69V333.218L80.7103 320.137ZM54.3506 322.299H76.823L79.1816 329.091H51.9919L54.3506 322.299ZM80.885 344.138H50.3103V333.218H80.885V344.138Z" fill="#0080FF"/>
<path d="M55.7701 341.954C57.5793 341.954 59.046 340.487 59.046 338.678C59.046 336.869 57.5793 335.402 55.7701 335.402C53.9609 335.402 52.4942 336.869 52.4942 338.678C52.4942 340.487 53.9609 341.954 55.7701 341.954Z" fill="#0080FF"/>
<path d="M75.4253 341.954C77.2345 341.954 78.7011 340.487 78.7011 338.678C78.7011 336.869 77.2345 335.402 75.4253 335.402C73.6161 335.402 72.1494 336.869 72.1494 338.678C72.1494 340.487 73.6161 341.954 75.4253 341.954Z" fill="#0080FF"/>
</g>
<g filter="url(#filter6_d_387_363)">
<rect x="146.402" y="280.805" width="109.195" height="109.195" rx="17.4713" fill="white" shape-rendering="crispEdges"/>
<rect x="146.948" y="281.351" width="108.103" height="108.103" rx="16.9253" stroke="#212528" stroke-width="1.09195" shape-rendering="crispEdges"/>
<path d="M183.529 322.299H179.161V352.873C179.161 355.276 181.126 357.241 183.529 357.241H214.103V352.873H183.529V322.299ZM218.471 313.563H192.264C189.862 313.563 187.897 315.529 187.897 317.931V344.138C187.897 346.54 189.862 348.506 192.264 348.506H218.471C220.874 348.506 222.839 346.54 222.839 344.138V317.931C222.839 315.529 220.874 313.563 218.471 313.563ZM211.92 317.931V328.85L209.736 327.213L207.552 328.85V317.931H211.92ZM218.471 344.138H192.264V317.931H203.184V337.586L209.736 332.672L216.287 337.586V317.931H218.471V344.138Z" fill="#F2800D"/>
</g>
<g filter="url(#filter7_d_387_363)">
<rect x="281.805" y="280.805" width="109.195" height="109.195" rx="17.4713" fill="white" shape-rendering="crispEdges"/>
<rect x="282.351" y="281.351" width="108.103" height="108.103" rx="16.9253" stroke="#212528" stroke-width="1.09195" shape-rendering="crispEdges"/>
<path d="M336.402 324.483V315.747H314.563V355.057H358.241V324.483H336.402ZM323.299 350.69H318.931V346.322H323.299V350.69ZM323.299 341.954H318.931V337.586H323.299V341.954ZM323.299 333.218H318.931V328.851H323.299V333.218ZM323.299 324.483H318.931V320.115H323.299V324.483ZM332.034 350.69H327.667V346.322H332.034V350.69ZM332.034 341.954H327.667V337.586H332.034V341.954ZM332.034 333.218H327.667V328.851H332.034V333.218ZM332.034 324.483H327.667V320.115H332.034V324.483ZM353.873 350.69H336.402V346.322H340.77V341.954H336.402V337.586H340.77V333.218H336.402V328.851H353.873V350.69ZM349.506 333.218H345.138V337.586H349.506V333.218ZM349.506 341.954H345.138V346.322H349.506V341.954Z" fill="#0080FF"/>
</g>
<defs>
<filter id="filter0_d_387_363" x="11" y="10" width="113.563" height="113.563" filterUnits="userSpaceOnUse" color-interpolation-filters="sRGB">
<feFlood flood-opacity="0" result="BackgroundImageFix"/>
<feColorMatrix in="SourceAlpha" type="matrix" values="0 0 0 0 0 0 0 0 0 0 0 0 0 0 0 0 0 0 127 0" result="hardAlpha"/>
<feOffset dx="4.36782" dy="4.36782"/>
<feComposite in2="hardAlpha" operator="out"/>
<feColorMatrix type="matrix" values="0 0 0 0 0.667568 0 0 0 0 0.8 0 0 0 0 0.932432 0 0 0 1 0"/>
<feBlend mode="normal" in2="BackgroundImageFix" result="effect1_dropShadow_387_363"/>
<feBlend mode="normal" in="SourceGraphic" in2="effect1_dropShadow_387_363" result="shape"/>
</filter>
<filter id="filter1_d_387_363" x="146.402" y="10" width="113.563" height="113.563" filterUnits="userSpaceOnUse" color-interpolation-filters="sRGB">
<feFlood flood-opacity="0" result="BackgroundImageFix"/>
<feColorMatrix in="SourceAlpha" type="matrix" values="0 0 0 0 0 0 0 0 0 0 0 0 0 0 0 0 0 0 127 0" result="hardAlpha"/>
<feOffset dx="4.36782" dy="4.36782"/>
<feComposite in2="hardAlpha" operator="out"/>
<feColorMatrix type="matrix" values="0 0 0 0 0.932432 0 0 0 0 0.842378 0 0 0 0 0.667568 0 0 0 1 0"/>
<feBlend mode="normal" in2="BackgroundImageFix" result="effect1_dropShadow_387_363"/>
<feBlend mode="normal" in="SourceGraphic" in2="effect1_dropShadow_387_363" result="shape"/>
</filter>
<filter id="filter2_d_387_363" x="281.805" y="10" width="113.563" height="113.563" filterUnits="userSpaceOnUse" color-interpolation-filters="sRGB">
<feFlood flood-opacity="0" result="BackgroundImageFix"/>
<feColorMatrix in="SourceAlpha" type="matrix" values="0 0 0 0 0 0 0 0 0 0 0 0 0 0 0 0 0 0 127 0" result="hardAlpha"/>
<feOffset dx="4.36782" dy="4.36782"/>
<feComposite in2="hardAlpha" operator="out"/>
<feColorMatrix type="matrix" values="0 0 0 0 0.667568 0 0 0 0 0.8 0 0 0 0 0.932432 0 0 0 1 0"/>
<feBlend mode="normal" in2="BackgroundImageFix" result="effect1_dropShadow_387_363"/>
<feBlend mode="normal" in="SourceGraphic" in2="effect1_dropShadow_387_363" result="shape"/>
</filter>
<filter id="filter3_d_387_363" x="11" y="145.402" width="248.966" height="113.563" filterUnits="userSpaceOnUse" color-interpolation-filters="sRGB">
<feFlood flood-opacity="0" result="BackgroundImageFix"/>
<feColorMatrix in="SourceAlpha" type="matrix" values="0 0 0 0 0 0 0 0 0 0 0 0 0 0 0 0 0 0 127 0" result="hardAlpha"/>
<feOffset dx="4.36782" dy="4.36782"/>
<feComposite in2="hardAlpha" operator="out"/>
<feColorMatrix type="matrix" values="0 0 0 0 0.690435 0 0 0 0 0.909565 0 0 0 0 0.713043 0 0 0 1 0"/>
<feBlend mode="normal" in2="BackgroundImageFix" result="effect1_dropShadow_387_363"/>
<feBlend mode="normal" in="SourceGraphic" in2="effect1_dropShadow_387_363" result="shape"/>
</filter>
<filter id="filter4_d_387_363" x="281.805" y="145.402" width="113.563" height="113.563" filterUnits="userSpaceOnUse" color-interpolation-filters="sRGB">
<feFlood flood-opacity="0" result="BackgroundImageFix"/>
<feColorMatrix in="SourceAlpha" type="matrix" values="0 0 0 0 0 0 0 0 0 0 0 0 0 0 0 0 0 0 127 0" result="hardAlpha"/>
<feOffset dx="4.36782" dy="4.36782"/>
<feComposite in2="hardAlpha" operator="out"/>
<feColorMatrix type="matrix" values="0 0 0 0 0.932432 0 0 0 0 0.842378 0 0 0 0 0.667568 0 0 0 1 0"/>
<feBlend mode="normal" in2="BackgroundImageFix" result="effect1_dropShadow_387_363"/>
<feBlend mode="normal" in="SourceGraphic" in2="effect1_dropShadow_387_363" result="shape"/>
</filter>
<filter id="filter5_d_387_363" x="11" y="280.805" width="113.563" height="113.563" filterUnits="userSpaceOnUse" color-interpolation-filters="sRGB">
<feFlood flood-opacity="0" result="BackgroundImageFix"/>
<feColorMatrix in="SourceAlpha" type="matrix" values="0 0 0 0 0 0 0 0 0 0 0 0 0 0 0 0 0 0 127 0" result="hardAlpha"/>
<feOffset dx="4.36782" dy="4.36782"/>
<feComposite in2="hardAlpha" operator="out"/>
<feColorMatrix type="matrix" values="0 0 0 0 0.667568 0 0 0 0 0.8 0 0 0 0 0.932432 0 0 0 1 0"/>
<feBlend mode="normal" in2="BackgroundImageFix" result="effect1_dropShadow_387_363"/>
<feBlend mode="normal" in="SourceGraphic" in2="effect1_dropShadow_387_363" result="shape"/>
</filter>
<filter id="filter6_d_387_363" x="146.402" y="280.805" width="113.563" height="113.563" filterUnits="userSpaceOnUse" color-interpolation-filters="sRGB">
<feFlood flood-opacity="0" result="BackgroundImageFix"/>
<feColorMatrix in="SourceAlpha" type="matrix" values="0 0 0 0 0 0 0 0 0 0 0 0 0 0 0 0 0 0 127 0" result="hardAlpha"/>
<feOffset dx="4.36782" dy="4.36782"/>
<feComposite in2="hardAlpha" operator="out"/>
<feColorMatrix type="matrix" values="0 0 0 0 0.932432 0 0 0 0 0.842378 0 0 0 0 0.667568 0 0 0 1 0"/>
<feBlend mode="normal" in2="BackgroundImageFix" result="effect1_dropShadow_387_363"/>
<feBlend mode="normal" in="SourceGraphic" in2="effect1_dropShadow_387_363" result="shape"/>
</filter>
<filter id="filter7_d_387_363" x="281.805" y="280.805" width="113.563" height="113.563" filterUnits="userSpaceOnUse" color-interpolation-filters="sRGB">
<feFlood flood-opacity="0" result="BackgroundImageFix"/>
<feColorMatrix in="SourceAlpha" type="matrix" values="0 0 0 0 0 0 0 0 0 0 0 0 0 0 0 0 0 0 127 0" result="hardAlpha"/>
<feOffset dx="4.36782" dy="4.36782"/>
<feComposite in2="hardAlpha" operator="out"/>
<feColorMatrix type="matrix" values="0 0 0 0 0.667568 0 0 0 0 0.8 0 0 0 0 0.932432 0 0 0 1 0"/>
<feBlend mode="normal" in2="BackgroundImageFix" result="effect1_dropShadow_387_363"/>
<feBlend mode="normal" in="SourceGraphic" in2="effect1_dropShadow_387_363" result="shape"/>
</filter>
</defs>
</svg>
