<svg width="381" height="380" viewBox="0 0 381 380" fill="none" xmlns="http://www.w3.org/2000/svg">
<g clip-path="url(#clip0_387_633)">
<g filter="url(#filter0_d_387_633)">
<rect x="18.7778" y="4" width="344.444" height="68.8889" rx="13.7778" fill="white" shape-rendering="crispEdges"/>
<rect x="19.2083" y="4.43056" width="343.583" height="68.0278" rx="13.3472" stroke="#212528" stroke-width="0.861111" shape-rendering="crispEdges"/>
<path d="M102.331 47.9443V29.1565H113.596V31.1747H104.606V37.5229H112.752V39.5412H104.606V47.9443H102.331ZM117.199 47.9443V33.8534H119.364V47.9443H117.199ZM118.3 31.5049C117.878 31.5049 117.514 31.3612 117.208 31.0738C116.909 30.7863 116.759 30.4408 116.759 30.0371C116.759 29.6335 116.909 29.2879 117.208 29.0005C117.514 28.7131 117.878 28.5693 118.3 28.5693C118.722 28.5693 119.083 28.7131 119.382 29.0005C119.688 29.2879 119.841 29.6335 119.841 30.0371C119.841 30.4408 119.688 30.7863 119.382 31.0738C119.083 31.3612 118.722 31.5049 118.3 31.5049ZM125.494 29.1565V47.9443H123.329V29.1565H125.494ZM135.368 48.2379C134.01 48.2379 132.839 47.9382 131.854 47.3389C130.876 46.7334 130.12 45.8894 129.588 44.8069C129.062 43.7183 128.799 42.4523 128.799 41.009C128.799 39.5656 129.062 38.2935 129.588 37.1927C130.12 36.0857 130.86 35.2234 131.808 34.6057C132.762 33.9819 133.875 33.67 135.148 33.67C135.881 33.67 136.606 33.7923 137.322 34.0369C138.037 34.2815 138.689 34.6791 139.276 35.2295C139.863 35.7738 140.331 36.4955 140.679 37.3945C141.028 38.2935 141.202 39.4005 141.202 40.7154V41.6328H130.34V39.7613H139C139 38.9663 138.841 38.2568 138.523 37.633C138.212 37.0092 137.765 36.5169 137.184 36.156C136.609 35.7952 135.93 35.6148 135.148 35.6148C134.285 35.6148 133.539 35.8288 132.909 36.257C132.285 36.6789 131.805 37.2294 131.469 37.9082C131.132 38.5871 130.964 39.3149 130.964 40.0916V41.3392C130.964 42.4034 131.148 43.3055 131.515 44.0455C131.888 44.7794 132.405 45.339 133.065 45.7243C133.726 46.1035 134.493 46.2931 135.368 46.2931C135.936 46.2931 136.45 46.2136 136.909 46.0545C137.374 45.8894 137.774 45.6448 138.111 45.3206C138.447 44.9904 138.707 44.5806 138.89 44.0914L140.982 44.6785C140.762 45.3879 140.392 46.0117 139.872 46.5499C139.352 47.082 138.71 47.4979 137.946 47.7976C137.181 48.0911 136.322 48.2379 135.368 48.2379ZM153.156 53.2284C152.789 53.2284 152.461 53.1978 152.174 53.1367C151.887 53.0816 151.688 53.0266 151.578 52.9716L152.128 51.0634C152.654 51.198 153.119 51.2469 153.523 51.2102C153.926 51.1735 154.284 50.9931 154.596 50.6689C154.914 50.3509 155.204 49.8341 155.467 49.1186L155.871 48.0177L150.66 33.8534H153.009L156.899 45.0821H157.045L160.935 33.8534H163.283L157.302 49.9993C157.033 50.727 156.7 51.3295 156.302 51.8065C155.905 52.2896 155.443 52.6474 154.917 52.8798C154.397 53.1122 153.81 53.2284 153.156 53.2284ZM171.361 48.2379C170.089 48.2379 168.973 47.9352 168.013 47.3297C167.058 46.7242 166.312 45.8772 165.774 44.7886C165.242 43.6999 164.976 42.4278 164.976 40.9723C164.976 39.5045 165.242 38.2232 165.774 37.1285C166.312 36.0337 167.058 35.1836 168.013 34.5782C168.973 33.9727 170.089 33.67 171.361 33.67C172.633 33.67 173.746 33.9727 174.7 34.5782C175.66 35.1836 176.407 36.0337 176.939 37.1285C177.477 38.2232 177.746 39.5045 177.746 40.9723C177.746 42.4278 177.477 43.6999 176.939 44.7886C176.407 45.8772 175.66 46.7242 174.7 47.3297C173.746 47.9352 172.633 48.2379 171.361 48.2379ZM171.361 46.2931C172.327 46.2931 173.122 46.0454 173.746 45.55C174.37 45.0546 174.832 44.4033 175.131 43.596C175.431 42.7887 175.581 41.9141 175.581 40.9723C175.581 40.0304 175.431 39.1528 175.131 38.3394C174.832 37.526 174.37 36.8685 173.746 36.367C173.122 35.8655 172.327 35.6148 171.361 35.6148C170.395 35.6148 169.6 35.8655 168.976 36.367C168.352 36.8685 167.89 37.526 167.591 38.3394C167.291 39.1528 167.141 40.0304 167.141 40.9723C167.141 41.9141 167.291 42.7887 167.591 43.596C167.89 44.4033 168.352 45.0546 168.976 45.55C169.6 46.0454 170.395 46.2931 171.361 46.2931ZM189.931 42.1832V33.8534H192.096V47.9443H189.931V45.5592H189.784C189.454 46.2747 188.94 46.8832 188.243 47.3847C187.546 47.8801 186.665 48.1278 185.601 48.1278C184.72 48.1278 183.937 47.9352 183.252 47.5499C182.567 47.1584 182.029 46.5713 181.638 45.7885C181.246 44.9996 181.051 44.0057 181.051 42.807V33.8534H183.216V42.6602C183.216 43.6877 183.503 44.5072 184.078 45.1188C184.659 45.7304 185.399 46.0362 186.298 46.0362C186.836 46.0362 187.384 45.8986 187.94 45.6234C188.503 45.3482 188.974 44.9262 189.353 44.3574C189.738 43.7886 189.931 43.0639 189.931 42.1832ZM196.061 47.9443V33.8534H198.153V35.9817H198.3C198.557 35.2845 199.021 34.7188 199.694 34.2846C200.367 33.8504 201.125 33.6333 201.969 33.6333C202.128 33.6333 202.327 33.6363 202.566 33.6424C202.804 33.6485 202.984 33.6577 203.107 33.67V35.8717C203.033 35.8533 202.865 35.8258 202.602 35.7891C202.345 35.7463 202.073 35.7249 201.786 35.7249C201.101 35.7249 200.489 35.8686 199.951 36.156C199.419 36.4374 198.997 36.8288 198.685 37.3303C198.379 37.8257 198.226 38.3914 198.226 39.0274V47.9443H196.061Z" fill="#212528"/>
<path d="M225.035 35.2295C224.907 34.783 224.727 34.3886 224.494 34.0461C224.262 33.6975 223.977 33.4039 223.641 33.1654C223.311 32.9208 222.932 32.7342 222.503 32.6058C222.081 32.4774 221.614 32.4131 221.1 32.4131C220.14 32.4131 219.296 32.6517 218.568 33.1287C217.846 33.6057 217.284 34.2999 216.88 35.2111C216.476 36.1163 216.274 37.2233 216.274 38.532C216.274 39.8408 216.473 40.9539 216.871 41.8713C217.268 42.7887 217.831 43.4889 218.559 43.9721C219.286 44.4491 220.146 44.6876 221.137 44.6876C222.036 44.6876 222.803 44.5286 223.439 44.2106C224.081 43.8865 224.571 43.4308 224.907 42.8437C225.249 42.2566 225.421 41.5625 225.421 40.7613L226.228 40.8805H221.384V37.8899H229.246V40.2567C229.246 41.908 228.898 43.3269 228.2 44.5133C227.503 45.6937 226.543 46.605 225.32 47.2471C224.097 47.8832 222.696 48.2012 221.118 48.2012C219.357 48.2012 217.809 47.8128 216.476 47.0361C215.143 46.2533 214.103 45.1433 213.357 43.7061C212.617 42.2627 212.247 40.5503 212.247 38.5687C212.247 37.0459 212.467 35.6882 212.908 34.4956C213.354 33.2969 213.978 32.2817 214.779 31.4499C215.58 30.6181 216.513 29.9852 217.577 29.5509C218.641 29.1167 219.794 28.8996 221.036 28.8996C222.1 28.8996 223.091 29.0555 224.008 29.3675C224.925 29.6732 225.739 30.1075 226.448 30.6701C227.164 31.2328 227.748 31.9025 228.2 32.6792C228.653 33.4498 228.943 34.2999 229.072 35.2295H225.035ZM242.422 34.5598C242.349 33.8198 242.034 33.2449 241.477 32.8351C240.921 32.4254 240.165 32.2205 239.211 32.2205C238.563 32.2205 238.015 32.3122 237.569 32.4957C237.123 32.6731 236.78 32.9208 236.542 33.2388C236.309 33.5568 236.193 33.9176 236.193 34.3213C236.181 34.6577 236.251 34.9512 236.404 35.202C236.563 35.4527 236.78 35.6698 237.055 35.8533C237.331 36.0307 237.649 36.1866 238.009 36.3212C238.37 36.4496 238.756 36.5597 239.165 36.6514L240.853 37.0551C241.673 37.2385 242.425 37.4832 243.11 37.789C243.795 38.0948 244.388 38.4709 244.89 38.9173C245.391 39.3638 245.78 39.8898 246.055 40.4952C246.336 41.1007 246.48 41.7949 246.486 42.5777C246.48 43.7275 246.186 44.7243 245.605 45.5683C245.03 46.4062 244.199 47.0575 243.11 47.5223C242.027 47.981 240.722 48.2104 239.193 48.2104C237.676 48.2104 236.355 47.978 235.23 47.5132C234.111 47.0484 233.236 46.3603 232.606 45.4491C231.982 44.5317 231.655 43.3972 231.624 42.0456H235.468C235.511 42.6755 235.691 43.2015 236.009 43.6235C236.334 44.0394 236.765 44.3543 237.303 44.5684C237.847 44.7763 238.462 44.8803 239.147 44.8803C239.82 44.8803 240.404 44.7824 240.899 44.5867C241.401 44.391 241.789 44.1189 242.064 43.7703C242.339 43.4217 242.477 43.0211 242.477 42.5685C242.477 42.1465 242.352 41.7918 242.101 41.5043C241.856 41.2169 241.495 40.9723 241.018 40.7704C240.547 40.5686 239.97 40.3851 239.285 40.22L237.239 39.7063C235.655 39.321 234.404 38.7186 233.487 37.8991C232.569 37.0795 232.114 35.9756 232.12 34.5873C232.114 33.4498 232.416 32.456 233.028 31.6059C233.646 30.7558 234.493 30.0922 235.569 29.6151C236.646 29.1381 237.869 28.8996 239.239 28.8996C240.633 28.8996 241.85 29.1381 242.89 29.6151C243.936 30.0922 244.749 30.7558 245.33 31.6059C245.911 32.456 246.211 33.4406 246.229 34.5598H242.422ZM248.442 32.4315V29.1565H263.873V32.4315H258.121V47.9443H254.194V32.4315H248.442ZM266.414 47.9443V29.1565H273.826C275.245 29.1565 276.456 29.4103 277.459 29.9179C278.468 30.4194 279.236 31.1319 279.761 32.0554C280.294 32.9727 280.56 34.0522 280.56 35.2937C280.56 36.5413 280.291 37.6147 279.752 38.5137C279.214 39.4066 278.434 40.0916 277.413 40.5686C276.398 41.0457 275.168 41.2842 273.725 41.2842H268.762V38.0917H273.083C273.841 38.0917 274.471 37.9877 274.973 37.7798C275.474 37.5719 275.847 37.26 276.092 36.8441C276.343 36.4282 276.468 35.9114 276.468 35.2937C276.468 34.6699 276.343 34.1439 276.092 33.7158C275.847 33.2877 275.471 32.9636 274.964 32.7434C274.462 32.5171 273.829 32.404 273.065 32.404H270.386V47.9443H266.414ZM276.56 39.3944L281.229 47.9443H276.844L272.276 39.3944H276.56Z" fill="#212528"/>
</g>
<g filter="url(#filter1_d_387_633)">
<rect x="18.7778" y="93.5557" width="161.889" height="131.556" rx="13.7778" fill="white" shape-rendering="crispEdges"/>
<rect x="19.2083" y="93.9862" width="161.028" height="130.694" rx="13.3472" stroke="#212528" stroke-width="0.861111" shape-rendering="crispEdges"/>
<path d="M103.167 117.667H89.3889C87.4945 117.667 85.9617 119.217 85.9617 121.111L85.9445 148.667C85.9445 150.561 87.4772 152.111 89.3717 152.111H110.056C111.95 152.111 113.5 150.561 113.5 148.667V128L103.167 117.667ZM89.3889 148.667V121.111H101.444V129.722H110.056V148.667H89.3889Z" fill="#0080FF"/>
<path d="M80.5139 179.445H76.4591V166.919H80.6423C81.8696 166.919 82.9235 167.17 83.8042 167.672C84.6849 168.169 85.3597 168.885 85.8285 169.818C86.3015 170.748 86.538 171.863 86.538 173.164C86.538 174.468 86.2995 175.59 85.8224 176.527C85.3495 177.465 84.6645 178.187 83.7675 178.692C82.8705 179.194 81.786 179.445 80.5139 179.445ZM78.3489 177.793H80.4099C81.364 177.793 82.157 177.614 82.789 177.255C83.4209 176.892 83.8939 176.368 84.2078 175.683C84.5218 174.994 84.6788 174.154 84.6788 173.164C84.6788 172.181 84.5218 171.347 84.2078 170.662C83.898 169.977 83.4352 169.457 82.8195 169.103C82.2039 168.748 81.4394 168.571 80.5261 168.571H78.3489V177.793ZM88.7412 179.445V170.051H90.5698V179.445H88.7412ZM89.6647 168.601C89.3467 168.601 89.0735 168.495 88.8452 168.283C88.6209 168.067 88.5088 167.81 88.5088 167.513C88.5088 167.211 88.6209 166.954 88.8452 166.742C89.0735 166.526 89.3467 166.418 89.6647 166.418C89.9827 166.418 90.2539 166.526 90.4781 166.742C90.7064 166.954 90.8206 167.211 90.8206 167.513C90.8206 167.81 90.7064 168.067 90.4781 168.283C90.2539 168.495 89.9827 168.601 89.6647 168.601ZM93.03 179.445V170.051H94.7974V171.543H94.8953C95.0665 171.037 95.3682 170.64 95.8004 170.35C96.2367 170.057 96.73 169.91 97.2805 169.91C97.3946 169.91 97.5292 169.914 97.6841 169.922C97.8431 169.93 97.9675 169.941 98.0572 169.953V171.702C97.9838 171.682 97.8533 171.659 97.6658 171.635C97.4782 171.606 97.2907 171.592 97.1031 171.592C96.6709 171.592 96.2856 171.684 95.9472 171.867C95.6129 172.046 95.3479 172.297 95.1522 172.619C94.9564 172.937 94.8586 173.3 94.8586 173.708V179.445H93.03ZM103.352 179.634C102.426 179.634 101.629 179.436 100.961 179.041C100.296 178.641 99.7823 178.081 99.4195 177.359C99.0607 176.633 98.8813 175.783 98.8813 174.809C98.8813 173.847 99.0607 172.998 99.4195 172.265C99.7823 171.531 100.288 170.958 100.936 170.546C101.589 170.134 102.351 169.928 103.224 169.928C103.754 169.928 104.267 170.016 104.765 170.191C105.262 170.367 105.709 170.642 106.104 171.017C106.5 171.392 106.811 171.879 107.04 172.479C107.268 173.074 107.382 173.798 107.382 174.65V175.298H99.9149V173.928H105.59C105.59 173.447 105.493 173.021 105.297 172.65C105.101 172.275 104.826 171.979 104.471 171.763C104.121 171.547 103.709 171.439 103.236 171.439C102.722 171.439 102.274 171.565 101.89 171.818C101.511 172.067 101.218 172.393 101.01 172.797C100.806 173.196 100.704 173.63 100.704 174.099V175.17C100.704 175.797 100.814 176.332 101.034 176.772C101.258 177.212 101.57 177.549 101.97 177.781C102.369 178.009 102.836 178.124 103.37 178.124C103.717 178.124 104.033 178.075 104.318 177.977C104.604 177.875 104.85 177.724 105.058 177.524C105.266 177.324 105.425 177.078 105.535 176.784L107.266 177.096C107.127 177.606 106.879 178.052 106.52 178.435C106.165 178.815 105.719 179.11 105.181 179.322C104.646 179.53 104.037 179.634 103.352 179.634ZM113.368 179.634C112.459 179.634 111.676 179.428 111.02 179.016C110.367 178.601 109.866 178.028 109.515 177.298C109.165 176.568 108.989 175.732 108.989 174.79C108.989 173.836 109.169 172.994 109.527 172.265C109.886 171.531 110.392 170.958 111.044 170.546C111.697 170.134 112.465 169.928 113.35 169.928C114.063 169.928 114.699 170.061 115.258 170.326C115.817 170.587 116.267 170.954 116.61 171.427C116.956 171.9 117.162 172.452 117.227 173.084H115.448C115.35 172.644 115.125 172.265 114.775 171.947C114.428 171.629 113.963 171.47 113.38 171.47C112.871 171.47 112.424 171.604 112.041 171.873C111.662 172.138 111.366 172.517 111.154 173.011C110.942 173.5 110.836 174.079 110.836 174.748C110.836 175.433 110.94 176.024 111.148 176.521C111.356 177.019 111.65 177.404 112.029 177.677C112.412 177.95 112.863 178.087 113.38 178.087C113.727 178.087 114.041 178.024 114.322 177.897C114.608 177.767 114.846 177.581 115.038 177.341C115.234 177.1 115.37 176.811 115.448 176.472H117.227C117.162 177.08 116.964 177.622 116.634 178.099C116.304 178.576 115.861 178.951 115.307 179.224C114.756 179.498 114.11 179.634 113.368 179.634ZM123.568 170.051V171.518H118.437V170.051H123.568ZM119.813 167.8H121.641V176.686C121.641 177.041 121.694 177.308 121.8 177.488C121.906 177.663 122.043 177.783 122.21 177.848C122.381 177.91 122.567 177.94 122.767 177.94C122.914 177.94 123.042 177.93 123.152 177.91C123.262 177.889 123.348 177.873 123.409 177.861L123.739 179.371C123.633 179.412 123.482 179.453 123.287 179.494C123.091 179.538 122.846 179.563 122.553 179.567C122.072 179.575 121.623 179.489 121.207 179.31C120.791 179.131 120.455 178.853 120.198 178.478C119.941 178.103 119.813 177.632 119.813 177.066V167.8ZM77.0141 200.445V187.919H84.7812V189.546H78.9039V193.362H84.2247V194.983H78.9039V200.445H77.0141ZM86.9584 200.445V191.051H88.7871V200.445H86.9584ZM87.8819 189.601C87.5639 189.601 87.2907 189.495 87.0624 189.283C86.8382 189.067 86.726 188.81 86.726 188.513C86.726 188.211 86.8382 187.954 87.0624 187.742C87.2907 187.526 87.5639 187.418 87.8819 187.418C88.2 187.418 88.4711 187.526 88.6953 187.742C88.9237 187.954 89.0378 188.211 89.0378 188.513C89.0378 188.81 88.9237 189.067 88.6953 189.283C88.4711 189.495 88.2 189.601 87.8819 189.601ZM93.0758 187.919V200.445H91.2472V187.919H93.0758ZM97.3646 187.919V200.445H95.5359V187.919H97.3646ZM99.8247 200.445V191.051H101.653V200.445H99.8247ZM100.748 189.601C100.43 189.601 100.157 189.495 99.9286 189.283C99.7044 189.067 99.5923 188.81 99.5923 188.513C99.5923 188.211 99.7044 187.954 99.9286 187.742C100.157 187.526 100.43 187.418 100.748 187.418C101.066 187.418 101.337 187.526 101.562 187.742C101.79 187.954 101.904 188.211 101.904 188.513C101.904 188.81 101.79 189.067 101.562 189.283C101.337 189.495 101.066 189.601 100.748 189.601ZM105.942 194.867V200.445H104.113V191.051H105.869V192.58H105.985C106.201 192.082 106.539 191.683 107 191.381C107.465 191.079 108.05 190.928 108.755 190.928C109.395 190.928 109.956 191.063 110.437 191.332C110.918 191.597 111.291 191.992 111.556 192.518C111.821 193.044 111.954 193.695 111.954 194.469V200.445H110.125V194.69C110.125 194.009 109.948 193.477 109.593 193.093C109.238 192.706 108.751 192.512 108.132 192.512C107.707 192.512 107.33 192.604 107 192.788C106.674 192.971 106.415 193.24 106.223 193.595C106.036 193.945 105.942 194.37 105.942 194.867ZM118.345 204.163C117.599 204.163 116.957 204.065 116.418 203.869C115.884 203.674 115.448 203.415 115.11 203.093C114.771 202.771 114.518 202.418 114.351 202.035L115.923 201.386C116.033 201.566 116.18 201.755 116.363 201.955C116.551 202.159 116.804 202.332 117.122 202.475C117.444 202.618 117.858 202.689 118.363 202.689C119.056 202.689 119.629 202.52 120.082 202.181C120.534 201.847 120.761 201.313 120.761 200.579V198.732H120.645C120.534 198.932 120.375 199.154 120.167 199.399C119.964 199.643 119.682 199.855 119.324 200.035C118.965 200.214 118.498 200.304 117.923 200.304C117.181 200.304 116.512 200.131 115.917 199.784C115.326 199.433 114.857 198.918 114.51 198.237C114.168 197.552 113.997 196.71 113.997 195.711C113.997 194.712 114.166 193.856 114.504 193.142C114.847 192.429 115.316 191.882 115.911 191.503C116.506 191.12 117.181 190.928 117.935 190.928C118.518 190.928 118.989 191.026 119.348 191.222C119.707 191.414 119.986 191.638 120.186 191.895C120.39 192.151 120.547 192.378 120.657 192.573H120.791V191.051H122.583V200.653C122.583 201.46 122.396 202.122 122.021 202.64C121.645 203.158 121.138 203.541 120.498 203.79C119.862 204.039 119.144 204.163 118.345 204.163ZM118.327 198.787C118.853 198.787 119.297 198.665 119.66 198.42C120.027 198.172 120.304 197.817 120.492 197.356C120.683 196.891 120.779 196.335 120.779 195.686C120.779 195.054 120.685 194.498 120.498 194.017C120.31 193.536 120.035 193.161 119.672 192.892C119.309 192.618 118.861 192.482 118.327 192.482C117.776 192.482 117.318 192.624 116.951 192.91C116.584 193.191 116.306 193.574 116.119 194.06C115.935 194.545 115.844 195.087 115.844 195.686C115.844 196.302 115.937 196.842 116.125 197.307C116.312 197.772 116.59 198.135 116.957 198.396C117.328 198.657 117.784 198.787 118.327 198.787Z" fill="#212528"/>
</g>
<g filter="url(#filter2_d_387_633)">
<rect x="18.7778" y="245.111" width="161.889" height="131.556" rx="13.7778" fill="white" shape-rendering="crispEdges"/>
<rect x="19.2083" y="245.542" width="161.028" height="130.694" rx="13.3472" stroke="#212528" stroke-width="0.861111" shape-rendering="crispEdges"/>
<path d="M99.7222 303.236C101.617 303.236 103.167 301.686 103.167 299.792H96.2777C96.2777 301.686 97.8277 303.236 99.7222 303.236ZM110.056 292.903V284.292C110.056 279.004 107.248 274.578 102.306 273.407V272.236C102.306 270.807 101.152 269.653 99.7222 269.653C98.2927 269.653 97.1389 270.807 97.1389 272.236V273.407C92.2133 274.578 89.3889 278.987 89.3889 284.292V292.903L85.9444 296.347V298.069H113.5V296.347L110.056 292.903ZM106.611 294.625H92.8333V284.292C92.8333 280.021 95.4339 276.542 99.7222 276.542C104.011 276.542 106.611 280.021 106.611 284.292V294.625ZM92.11 272.374L89.6472 269.911C85.5139 273.063 82.7927 277.919 82.5516 283.431H85.9961C86.2544 278.867 88.5966 274.871 92.11 272.374ZM113.448 283.431H116.893C116.634 277.919 113.913 273.063 109.797 269.911L107.352 272.374C110.831 274.871 113.19 278.867 113.448 283.431Z" fill="#F2800D"/>
<path d="M73.0411 320.102V318.475H82.7347V320.102H78.8267V331H76.943V320.102H73.0411ZM84.73 331V321.606H86.5586V331H84.73ZM85.6535 320.157C85.3354 320.157 85.0623 320.051 84.8339 319.839C84.6097 319.622 84.4976 319.366 84.4976 319.068C84.4976 318.766 84.6097 318.509 84.8339 318.297C85.0623 318.081 85.3354 317.973 85.6535 317.973C85.9715 317.973 86.2426 318.081 86.4669 318.297C86.6952 318.509 86.8094 318.766 86.8094 319.068C86.8094 319.366 86.6952 319.622 86.4669 319.839C86.2426 320.051 85.9715 320.157 85.6535 320.157ZM89.0187 331V321.606H90.774V323.135H90.8902C91.0859 322.617 91.4059 322.214 91.8504 321.924C92.2948 321.631 92.8269 321.484 93.4466 321.484C94.0745 321.484 94.6004 321.631 95.0245 321.924C95.4526 322.218 95.7686 322.621 95.9724 323.135H96.0703C96.2945 322.634 96.6513 322.234 97.1406 321.936C97.6298 321.635 98.2129 321.484 98.8897 321.484C99.7418 321.484 100.437 321.751 100.975 322.285C101.517 322.819 101.789 323.624 101.789 324.701V331H99.96V324.872C99.96 324.236 99.7867 323.775 99.4401 323.49C99.0936 323.204 98.6797 323.062 98.1986 323.062C97.6033 323.062 97.1406 323.245 96.8103 323.612C96.4801 323.975 96.3149 324.442 96.3149 325.013V331H94.4924V324.756C94.4924 324.246 94.3334 323.836 94.0154 323.526C93.6973 323.217 93.2835 323.062 92.7739 323.062C92.4273 323.062 92.1072 323.153 91.8137 323.337C91.5242 323.516 91.2897 323.767 91.1103 324.089C90.935 324.411 90.8474 324.784 90.8474 325.208V331H89.0187ZM108.288 331.19C107.363 331.19 106.566 330.992 105.897 330.596C105.232 330.197 104.719 329.636 104.356 328.914C103.997 328.189 103.818 327.339 103.818 326.364C103.818 325.402 103.997 324.554 104.356 323.82C104.719 323.086 105.224 322.513 105.872 322.101C106.525 321.69 107.287 321.484 108.16 321.484C108.69 321.484 109.204 321.571 109.701 321.747C110.198 321.922 110.645 322.197 111.04 322.572C111.436 322.947 111.748 323.435 111.976 324.034C112.204 324.629 112.319 325.353 112.319 326.205V326.853H104.851V325.484H110.527C110.527 325.002 110.429 324.576 110.233 324.205C110.037 323.83 109.762 323.535 109.407 323.318C109.057 323.102 108.645 322.994 108.172 322.994C107.658 322.994 107.21 323.121 106.827 323.374C106.447 323.622 106.154 323.948 105.946 324.352C105.742 324.752 105.64 325.186 105.64 325.655V326.725C105.64 327.353 105.75 327.887 105.97 328.327C106.195 328.768 106.506 329.104 106.906 329.336C107.306 329.565 107.772 329.679 108.307 329.679C108.653 329.679 108.969 329.63 109.255 329.532C109.54 329.43 109.787 329.279 109.995 329.08C110.202 328.88 110.361 328.633 110.472 328.34L112.202 328.652C112.064 329.161 111.815 329.608 111.456 329.991C111.102 330.37 110.655 330.666 110.117 330.878C109.583 331.086 108.973 331.19 108.288 331.19ZM116.176 318.475V331H114.347V318.475H116.176ZM119.792 334.523C119.519 334.523 119.27 334.5 119.046 334.455C118.822 334.415 118.655 334.37 118.544 334.321L118.985 332.823C119.319 332.912 119.617 332.951 119.878 332.939C120.139 332.926 120.369 332.829 120.569 332.645C120.773 332.462 120.952 332.162 121.107 331.746L121.333 331.122L117.896 321.606H119.853L122.232 328.896H122.33L124.709 321.606H126.672L122.801 332.254C122.622 332.743 122.393 333.157 122.116 333.495C121.839 333.838 121.509 334.095 121.125 334.266C120.742 334.437 120.298 334.523 119.792 334.523ZM58.8263 339.475V352H57.0894L50.7228 342.814H50.6066V352H48.7168V339.475H50.466L56.8387 348.673H56.9549V339.475H58.8263ZM65.3932 352.19C64.5125 352.19 63.744 351.988 63.0875 351.584C62.4311 351.18 61.9214 350.616 61.5586 349.89C61.1957 349.164 61.0143 348.316 61.0143 347.346C61.0143 346.371 61.1957 345.519 61.5586 344.789C61.9214 344.06 62.4311 343.493 63.0875 343.089C63.744 342.686 64.5125 342.484 65.3932 342.484C66.2739 342.484 67.0424 342.686 67.6989 343.089C68.3553 343.493 68.865 344.06 69.2278 344.789C69.5907 345.519 69.7722 346.371 69.7722 347.346C69.7722 348.316 69.5907 349.164 69.2278 349.89C68.865 350.616 68.3553 351.18 67.6989 351.584C67.0424 351.988 66.2739 352.19 65.3932 352.19ZM65.3993 350.655C65.9701 350.655 66.4431 350.504 66.8182 350.202C67.1933 349.9 67.4706 349.499 67.65 348.997C67.8334 348.496 67.9252 347.943 67.9252 347.34C67.9252 346.74 67.8334 346.19 67.65 345.688C67.4706 345.183 67.1933 344.777 66.8182 344.471C66.4431 344.166 65.9701 344.013 65.3993 344.013C64.8244 344.013 64.3474 344.166 63.9682 344.471C63.5931 344.777 63.3138 345.183 63.1303 345.688C62.9509 346.19 62.8612 346.74 62.8612 347.34C62.8612 347.943 62.9509 348.496 63.1303 348.997C63.3138 349.499 63.5931 349.9 63.9682 350.202C64.3474 350.504 64.8244 350.655 65.3993 350.655ZM76.1984 342.606V344.074H71.0672V342.606H76.1984ZM72.4432 340.355H74.2719V349.242C74.2719 349.596 74.3249 349.864 74.4309 350.043C74.5369 350.218 74.6735 350.339 74.8407 350.404C75.0119 350.465 75.1974 350.496 75.3972 350.496C75.544 350.496 75.6724 350.485 75.7825 350.465C75.8926 350.445 75.9782 350.428 76.0394 350.416L76.3696 351.927C76.2636 351.967 76.1128 352.008 75.917 352.049C75.7213 352.094 75.4767 352.118 75.1831 352.122C74.702 352.13 74.2535 352.045 73.8377 351.865C73.4218 351.686 73.0854 351.409 72.8285 351.034C72.5717 350.659 72.4432 350.188 72.4432 349.621V340.355ZM78.2212 352V342.606H80.0498V352H78.2212ZM79.1447 341.157C78.8267 341.157 78.5535 341.051 78.3252 340.839C78.1009 340.622 77.9888 340.366 77.9888 340.068C77.9888 339.766 78.1009 339.509 78.3252 339.297C78.5535 339.081 78.8267 338.973 79.1447 338.973C79.4627 338.973 79.7338 339.081 79.9581 339.297C80.1864 339.509 80.3006 339.766 80.3006 340.068C80.3006 340.366 80.1864 340.622 79.9581 340.839C79.7338 341.051 79.4627 341.157 79.1447 341.157ZM86.9806 342.606V344.074H81.6721V342.606H86.9806ZM83.1276 352V341.517C83.1276 340.93 83.2561 340.443 83.5129 340.056C83.7698 339.664 84.1102 339.373 84.5343 339.181C84.9583 338.985 85.419 338.888 85.9165 338.888C86.2834 338.888 86.5974 338.918 86.8583 338.979C87.1192 339.036 87.3129 339.089 87.4393 339.138L87.0112 340.618C86.9256 340.594 86.8155 340.565 86.6809 340.533C86.5464 340.496 86.3833 340.478 86.1917 340.478C85.7472 340.478 85.4292 340.588 85.2376 340.808C85.05 341.028 84.9563 341.346 84.9563 341.762V352H83.1276ZM88.8673 352V342.606H90.696V352H88.8673ZM89.7908 341.157C89.4728 341.157 89.1996 341.051 88.9713 340.839C88.7471 340.622 88.6349 340.366 88.6349 340.068C88.6349 339.766 88.7471 339.509 88.9713 339.297C89.1996 339.081 89.4728 338.973 89.7908 338.973C90.1089 338.973 90.38 339.081 90.6042 339.297C90.8326 339.509 90.9467 339.766 90.9467 340.068C90.9467 340.366 90.8326 340.622 90.6042 340.839C90.38 341.051 90.1089 341.157 89.7908 341.157ZM97.113 352.19C96.2038 352.19 95.421 351.984 94.7646 351.572C94.1122 351.156 93.6107 350.583 93.2601 349.853C92.9094 349.124 92.7341 348.288 92.7341 347.346C92.7341 346.392 92.9135 345.55 93.2723 344.82C93.6311 344.086 94.1367 343.513 94.789 343.101C95.4414 342.69 96.2099 342.484 97.0947 342.484C97.8082 342.484 98.4443 342.616 99.0028 342.881C99.5614 343.142 100.012 343.509 100.354 343.982C100.701 344.455 100.907 345.008 100.972 345.64H99.1924C99.0946 345.199 98.8703 344.82 98.5197 344.502C98.1731 344.184 97.7083 344.025 97.1253 344.025C96.6156 344.025 96.1692 344.159 95.7859 344.429C95.4067 344.694 95.1111 345.073 94.8991 345.566C94.6871 346.055 94.5811 346.634 94.5811 347.303C94.5811 347.988 94.6851 348.579 94.893 349.077C95.1009 349.574 95.3945 349.959 95.7737 350.233C96.1569 350.506 96.6075 350.642 97.1253 350.642C97.4718 350.642 97.7858 350.579 98.0671 350.453C98.3525 350.322 98.591 350.137 98.7827 349.896C98.9784 349.656 99.115 349.366 99.1924 349.028H100.972C100.907 349.635 100.709 350.177 100.379 350.655C100.049 351.132 99.6063 351.507 99.0518 351.78C98.5013 352.053 97.8551 352.19 97.113 352.19ZM105.661 352.208C105.066 352.208 104.528 352.098 104.047 351.878C103.566 351.653 103.185 351.329 102.903 350.905C102.626 350.481 102.487 349.961 102.487 349.346C102.487 348.816 102.589 348.379 102.793 348.037C102.997 347.694 103.272 347.423 103.619 347.224C103.965 347.024 104.353 346.873 104.781 346.771C105.209 346.669 105.645 346.592 106.09 346.539C106.652 346.473 107.109 346.42 107.46 346.38C107.81 346.335 108.065 346.263 108.224 346.165C108.383 346.068 108.463 345.909 108.463 345.688V345.646C108.463 345.112 108.312 344.698 108.01 344.404C107.712 344.111 107.268 343.964 106.677 343.964C106.061 343.964 105.576 344.1 105.221 344.374C104.87 344.643 104.628 344.942 104.493 345.273L102.775 344.881C102.979 344.31 103.276 343.85 103.668 343.499C104.063 343.144 104.518 342.887 105.032 342.728C105.545 342.565 106.085 342.484 106.652 342.484C107.027 342.484 107.425 342.529 107.845 342.618C108.269 342.704 108.664 342.863 109.031 343.095C109.402 343.328 109.706 343.66 109.943 344.092C110.179 344.52 110.297 345.077 110.297 345.762V352H108.511V350.716H108.438C108.32 350.952 108.142 351.185 107.906 351.413C107.669 351.641 107.366 351.831 106.995 351.982C106.624 352.133 106.179 352.208 105.661 352.208ZM106.059 350.74C106.565 350.74 106.997 350.64 107.356 350.44C107.718 350.241 107.994 349.98 108.181 349.658C108.373 349.331 108.469 348.983 108.469 348.612V347.401C108.403 347.466 108.277 347.527 108.089 347.584C107.906 347.637 107.696 347.684 107.46 347.725C107.223 347.762 106.993 347.796 106.768 347.829C106.544 347.858 106.357 347.882 106.206 347.902C105.851 347.947 105.527 348.023 105.233 348.129C104.944 348.235 104.711 348.388 104.536 348.587C104.365 348.783 104.279 349.044 104.279 349.37C104.279 349.823 104.446 350.165 104.781 350.398C105.115 350.626 105.541 350.74 106.059 350.74ZM117.118 342.606V344.074H111.987V342.606H117.118ZM113.363 340.355H115.191V349.242C115.191 349.596 115.244 349.864 115.35 350.043C115.456 350.218 115.593 350.339 115.76 350.404C115.931 350.465 116.117 350.496 116.317 350.496C116.464 350.496 116.592 350.485 116.702 350.465C116.812 350.445 116.898 350.428 116.959 350.416L117.289 351.927C117.183 351.967 117.032 352.008 116.837 352.049C116.641 352.094 116.396 352.118 116.103 352.122C115.622 352.13 115.173 352.045 114.757 351.865C114.341 351.686 114.005 351.409 113.748 351.034C113.491 350.659 113.363 350.188 113.363 349.621V340.355ZM119.141 352V342.606H120.969V352H119.141ZM120.064 341.157C119.746 341.157 119.473 341.051 119.245 340.839C119.021 340.622 118.908 340.366 118.908 340.068C118.908 339.766 119.021 339.509 119.245 339.297C119.473 339.081 119.746 338.973 120.064 338.973C120.382 338.973 120.653 339.081 120.878 339.297C121.106 339.509 121.22 339.766 121.22 340.068C121.22 340.366 121.106 340.622 120.878 340.839C120.653 341.051 120.382 341.157 120.064 341.157ZM127.386 352.19C126.506 352.19 125.737 351.988 125.081 351.584C124.424 351.18 123.915 350.616 123.552 349.89C123.189 349.164 123.008 348.316 123.008 347.346C123.008 346.371 123.189 345.519 123.552 344.789C123.915 344.06 124.424 343.493 125.081 343.089C125.737 342.686 126.506 342.484 127.386 342.484C128.267 342.484 129.036 342.686 129.692 343.089C130.349 343.493 130.858 344.06 131.221 344.789C131.584 345.519 131.765 346.371 131.765 347.346C131.765 348.316 131.584 349.164 131.221 349.89C130.858 350.616 130.349 351.18 129.692 351.584C129.036 351.988 128.267 352.19 127.386 352.19ZM127.393 350.655C127.963 350.655 128.436 350.504 128.811 350.202C129.187 349.9 129.464 349.499 129.643 348.997C129.827 348.496 129.918 347.943 129.918 347.34C129.918 346.74 129.827 346.19 129.643 345.688C129.464 345.183 129.187 344.777 128.811 344.471C128.436 344.166 127.963 344.013 127.393 344.013C126.818 344.013 126.341 344.166 125.961 344.471C125.586 344.777 125.307 345.183 125.124 345.688C124.944 346.19 124.855 346.74 124.855 347.34C124.855 347.943 124.944 348.496 125.124 348.997C125.307 349.499 125.586 349.9 125.961 350.202C126.341 350.504 126.818 350.655 127.393 350.655ZM135.635 346.422V352H133.807V342.606H135.562V344.135H135.678C135.894 343.638 136.233 343.238 136.693 342.936C137.158 342.635 137.743 342.484 138.449 342.484C139.089 342.484 139.649 342.618 140.13 342.887C140.611 343.152 140.985 343.548 141.25 344.074C141.515 344.6 141.647 345.25 141.647 346.025V352H139.818V346.245C139.818 345.564 139.641 345.032 139.286 344.649C138.932 344.261 138.444 344.068 137.825 344.068C137.401 344.068 137.024 344.159 136.693 344.343C136.367 344.526 136.108 344.796 135.917 345.15C135.729 345.501 135.635 345.925 135.635 346.422ZM151.139 344.9L149.481 345.193C149.412 344.981 149.302 344.779 149.151 344.588C149.004 344.396 148.805 344.239 148.552 344.117C148.299 343.994 147.983 343.933 147.604 343.933C147.086 343.933 146.654 344.049 146.307 344.282C145.961 344.51 145.788 344.806 145.788 345.169C145.788 345.483 145.904 345.735 146.136 345.927C146.369 346.119 146.744 346.276 147.261 346.398L148.754 346.74C149.618 346.94 150.262 347.248 150.686 347.664C151.11 348.08 151.322 348.62 151.322 349.285C151.322 349.847 151.159 350.349 150.833 350.789C150.511 351.225 150.06 351.568 149.481 351.817C148.907 352.065 148.24 352.19 147.482 352.19C146.43 352.19 145.571 351.965 144.907 351.517C144.242 351.064 143.835 350.422 143.684 349.59L145.451 349.321C145.561 349.782 145.788 350.131 146.13 350.367C146.473 350.599 146.919 350.716 147.469 350.716C148.069 350.716 148.548 350.591 148.907 350.343C149.265 350.09 149.445 349.782 149.445 349.419C149.445 349.126 149.335 348.879 149.115 348.679C148.898 348.479 148.566 348.328 148.118 348.227L146.528 347.878C145.651 347.678 145.003 347.36 144.583 346.924C144.167 346.488 143.959 345.935 143.959 345.266C143.959 344.712 144.114 344.227 144.424 343.811C144.734 343.395 145.162 343.071 145.708 342.838C146.254 342.602 146.88 342.484 147.586 342.484C148.601 342.484 149.4 342.704 149.983 343.144C150.566 343.581 150.951 344.166 151.139 344.9Z" fill="#212528"/>
</g>
<g filter="url(#filter3_d_387_633)">
<rect x="201.333" y="93.5557" width="161.889" height="131.556" rx="13.7778" fill="white" shape-rendering="crispEdges"/>
<rect x="201.764" y="93.9862" width="161.028" height="130.694" rx="13.3472" stroke="#212528" stroke-width="0.861111" shape-rendering="crispEdges"/>
<path d="M282.278 117.667C272.771 117.667 265.056 125.382 265.056 134.889C265.056 144.396 272.771 152.111 282.278 152.111C291.784 152.111 299.5 144.396 299.5 134.889C299.5 125.382 291.784 117.667 282.278 117.667ZM282.278 148.667C274.683 148.667 268.5 142.484 268.5 134.889C268.5 127.294 274.683 121.111 282.278 121.111C289.873 121.111 296.056 127.294 296.056 134.889C296.056 142.484 289.873 148.667 282.278 148.667ZM290.183 127.277L278.833 138.626L274.373 134.183L271.944 136.611L278.833 143.5L292.611 129.722L290.183 127.277Z" fill="#F2800D"/>
<path d="M265.916 166.919V179.445H264.02V168.815H263.947L260.95 170.772V168.962L264.075 166.919H265.916ZM273.665 179.653C272.699 179.648 271.873 179.394 271.188 178.888C270.503 178.382 269.979 177.647 269.616 176.68C269.254 175.714 269.072 174.55 269.072 173.188C269.072 171.83 269.254 170.67 269.616 169.708C269.983 168.746 270.509 168.012 271.194 167.506C271.883 167.001 272.707 166.748 273.665 166.748C274.623 166.748 275.445 167.003 276.13 167.513C276.815 168.018 277.339 168.752 277.702 169.714C278.069 170.672 278.252 171.83 278.252 173.188C278.252 174.554 278.071 175.72 277.708 176.686C277.345 177.649 276.821 178.385 276.136 178.894C275.451 179.4 274.627 179.653 273.665 179.653ZM273.665 178.02C274.513 178.02 275.176 177.606 275.653 176.778C276.134 175.95 276.374 174.754 276.374 173.188C276.374 172.148 276.264 171.27 276.044 170.552C275.828 169.83 275.516 169.284 275.108 168.913C274.705 168.538 274.224 168.35 273.665 168.35C272.821 168.35 272.159 168.766 271.677 169.598C271.196 170.43 270.954 171.626 270.95 173.188C270.95 174.232 271.058 175.115 271.274 175.836C271.494 176.554 271.806 177.098 272.21 177.469C272.613 177.836 273.098 178.02 273.665 178.02ZM284.782 179.653C283.816 179.648 282.99 179.394 282.305 178.888C281.62 178.382 281.096 177.647 280.734 176.68C280.371 175.714 280.189 174.55 280.189 173.188C280.189 171.83 280.371 170.67 280.734 169.708C281.1 168.746 281.626 168.012 282.311 167.506C283 167.001 283.824 166.748 284.782 166.748C285.74 166.748 286.562 167.003 287.247 167.513C287.932 168.018 288.456 168.752 288.819 169.714C289.186 170.672 289.369 171.83 289.369 173.188C289.369 174.554 289.188 175.72 288.825 176.686C288.462 177.649 287.938 178.385 287.253 178.894C286.568 179.4 285.744 179.653 284.782 179.653ZM284.782 178.02C285.63 178.02 286.293 177.606 286.77 176.778C287.251 175.95 287.492 174.754 287.492 173.188C287.492 172.148 287.381 171.27 287.161 170.552C286.945 169.83 286.633 169.284 286.226 168.913C285.822 168.538 285.341 168.35 284.782 168.35C283.938 168.35 283.276 168.766 282.795 169.598C282.313 170.43 282.071 171.626 282.067 173.188C282.067 174.232 282.175 175.115 282.391 175.836C282.611 176.554 282.923 177.098 283.327 177.469C283.73 177.836 284.215 178.02 284.782 178.02ZM298.077 177.096V176.436C298.077 175.963 298.174 175.53 298.37 175.139C298.57 174.744 298.859 174.428 299.239 174.191C299.622 173.951 300.085 173.83 300.627 173.83C301.181 173.83 301.646 173.948 302.021 174.185C302.396 174.421 302.68 174.737 302.871 175.133C303.067 175.528 303.165 175.963 303.165 176.436V177.096C303.165 177.569 303.067 178.003 302.871 178.399C302.676 178.79 302.388 179.106 302.009 179.347C301.634 179.583 301.173 179.701 300.627 179.701C300.076 179.701 299.612 179.583 299.232 179.347C298.853 179.106 298.566 178.79 298.37 178.399C298.174 178.003 298.077 177.569 298.077 177.096ZM299.502 176.436V177.096C299.502 177.447 299.585 177.765 299.752 178.05C299.919 178.336 300.211 178.478 300.627 178.478C301.039 178.478 301.326 178.336 301.489 178.05C301.652 177.765 301.734 177.447 301.734 177.096V176.436C301.734 176.085 301.654 175.767 301.495 175.482C301.34 175.196 301.051 175.053 300.627 175.053C300.219 175.053 299.93 175.196 299.758 175.482C299.587 175.767 299.502 176.085 299.502 176.436ZM291.777 169.928V169.268C291.777 168.795 291.875 168.361 292.071 167.965C292.271 167.57 292.56 167.254 292.939 167.017C293.322 166.781 293.785 166.662 294.328 166.662C294.882 166.662 295.347 166.781 295.722 167.017C296.097 167.254 296.38 167.57 296.572 167.965C296.764 168.361 296.859 168.795 296.859 169.268V169.928C296.859 170.401 296.762 170.836 296.566 171.231C296.374 171.622 296.089 171.938 295.71 172.179C295.335 172.415 294.874 172.534 294.328 172.534C293.773 172.534 293.306 172.415 292.927 172.179C292.552 171.938 292.266 171.622 292.071 171.231C291.875 170.836 291.777 170.401 291.777 169.928ZM293.208 169.268V169.928C293.208 170.279 293.29 170.597 293.453 170.882C293.62 171.168 293.912 171.311 294.328 171.311C294.735 171.311 295.021 171.168 295.184 170.882C295.351 170.597 295.434 170.279 295.434 169.928V169.268C295.434 168.917 295.355 168.599 295.196 168.314C295.037 168.028 294.747 167.886 294.328 167.886C293.92 167.886 293.63 168.028 293.459 168.314C293.292 168.599 293.208 168.917 293.208 169.268ZM292.358 179.445L300.969 166.919H302.431L293.82 179.445H292.358ZM247.492 200.445H245.486L249.994 187.919H252.177L256.684 200.445H254.678L251.137 190.194H251.04L247.492 200.445ZM247.829 195.54H254.336V197.13H247.829V195.54ZM262.152 200.634C261.243 200.634 260.46 200.428 259.804 200.016C259.151 199.601 258.65 199.028 258.299 198.298C257.948 197.568 257.773 196.732 257.773 195.79C257.773 194.836 257.952 193.994 258.311 193.265C258.67 192.531 259.176 191.958 259.828 191.546C260.48 191.134 261.249 190.928 262.134 190.928C262.847 190.928 263.483 191.061 264.042 191.326C264.6 191.587 265.051 191.954 265.393 192.427C265.74 192.9 265.946 193.452 266.011 194.084H264.231C264.134 193.644 263.909 193.265 263.559 192.947C263.212 192.629 262.747 192.47 262.164 192.47C261.655 192.47 261.208 192.604 260.825 192.873C260.446 193.138 260.15 193.517 259.938 194.011C259.726 194.5 259.62 195.079 259.62 195.748C259.62 196.433 259.724 197.024 259.932 197.521C260.14 198.019 260.433 198.404 260.813 198.677C261.196 198.95 261.646 199.087 262.164 199.087C262.511 199.087 262.825 199.024 263.106 198.897C263.392 198.767 263.63 198.581 263.822 198.341C264.017 198.1 264.154 197.811 264.231 197.472H266.011C265.946 198.08 265.748 198.622 265.418 199.099C265.088 199.576 264.645 199.951 264.091 200.224C263.54 200.498 262.894 200.634 262.152 200.634ZM271.924 200.634C271.014 200.634 270.232 200.428 269.575 200.016C268.923 199.601 268.421 199.028 268.071 198.298C267.72 197.568 267.545 196.732 267.545 195.79C267.545 194.836 267.724 193.994 268.083 193.265C268.442 192.531 268.947 191.958 269.6 191.546C270.252 191.134 271.021 190.928 271.905 190.928C272.619 190.928 273.255 191.061 273.813 191.326C274.372 191.587 274.823 191.954 275.165 192.427C275.512 192.9 275.717 193.452 275.783 194.084H274.003C273.905 193.644 273.681 193.265 273.33 192.947C272.984 192.629 272.519 192.47 271.936 192.47C271.426 192.47 270.98 192.604 270.596 192.873C270.217 193.138 269.922 193.517 269.71 194.011C269.498 194.5 269.392 195.079 269.392 195.748C269.392 196.433 269.496 197.024 269.704 197.521C269.912 198.019 270.205 198.404 270.584 198.677C270.968 198.95 271.418 199.087 271.936 199.087C272.282 199.087 272.596 199.024 272.878 198.897C273.163 198.767 273.402 198.581 273.593 198.341C273.789 198.1 273.926 197.811 274.003 197.472H275.783C275.717 198.08 275.52 198.622 275.189 199.099C274.859 199.576 274.417 199.951 273.862 200.224C273.312 200.498 272.666 200.634 271.924 200.634ZM283.689 196.549V191.051H285.524V200.445H283.726V198.818H283.628C283.412 199.319 283.065 199.737 282.588 200.072C282.115 200.402 281.526 200.567 280.821 200.567C280.217 200.567 279.683 200.434 279.218 200.169C278.758 199.9 278.395 199.503 278.13 198.977C277.869 198.451 277.738 197.8 277.738 197.026V191.051H279.567V196.806C279.567 197.446 279.744 197.955 280.099 198.335C280.454 198.714 280.914 198.903 281.481 198.903C281.824 198.903 282.164 198.818 282.503 198.647C282.845 198.475 283.128 198.216 283.353 197.87C283.581 197.523 283.693 197.083 283.689 196.549ZM287.981 200.445V191.051H289.748V192.543H289.846C290.017 192.037 290.319 191.64 290.751 191.35C291.188 191.057 291.681 190.91 292.231 190.91C292.345 190.91 292.48 190.914 292.635 190.922C292.794 190.93 292.918 190.941 293.008 190.953V192.702C292.935 192.682 292.804 192.659 292.617 192.635C292.429 192.606 292.241 192.592 292.054 192.592C291.622 192.592 291.236 192.684 290.898 192.867C290.564 193.046 290.299 193.297 290.103 193.619C289.907 193.937 289.809 194.3 289.809 194.708V200.445H287.981ZM297.24 200.653C296.645 200.653 296.107 200.542 295.626 200.322C295.144 200.098 294.763 199.774 294.482 199.35C294.205 198.926 294.066 198.406 294.066 197.79C294.066 197.26 294.168 196.824 294.372 196.482C294.576 196.139 294.851 195.868 295.197 195.668C295.544 195.468 295.931 195.317 296.359 195.216C296.788 195.114 297.224 195.036 297.668 194.983C298.231 194.918 298.688 194.865 299.038 194.824C299.389 194.779 299.644 194.708 299.803 194.61C299.962 194.512 300.041 194.353 300.041 194.133V194.09C300.041 193.556 299.89 193.142 299.589 192.849C299.291 192.555 298.847 192.408 298.255 192.408C297.64 192.408 297.155 192.545 296.8 192.818C296.449 193.087 296.207 193.387 296.072 193.717L294.353 193.326C294.557 192.755 294.855 192.294 295.246 191.944C295.642 191.589 296.097 191.332 296.61 191.173C297.124 191.01 297.664 190.928 298.231 190.928C298.606 190.928 299.004 190.973 299.424 191.063C299.848 191.148 300.243 191.308 300.61 191.54C300.981 191.772 301.285 192.105 301.521 192.537C301.758 192.965 301.876 193.521 301.876 194.206V200.445H300.09V199.16H300.017C299.899 199.397 299.721 199.629 299.485 199.857C299.248 200.086 298.944 200.275 298.573 200.426C298.202 200.577 297.758 200.653 297.24 200.653ZM297.638 199.185C298.143 199.185 298.575 199.085 298.934 198.885C299.297 198.685 299.572 198.424 299.76 198.102C299.952 197.776 300.047 197.427 300.047 197.056V195.845C299.982 195.911 299.856 195.972 299.668 196.029C299.485 196.082 299.275 196.129 299.038 196.17C298.802 196.206 298.571 196.241 298.347 196.274C298.123 196.302 297.935 196.327 297.784 196.347C297.43 196.392 297.106 196.467 296.812 196.573C296.523 196.679 296.29 196.832 296.115 197.032C295.944 197.228 295.858 197.489 295.858 197.815C295.858 198.267 296.025 198.61 296.359 198.842C296.694 199.071 297.12 199.185 297.638 199.185ZM308.697 191.051V192.518H303.565V191.051H308.697ZM304.942 188.8H306.77V197.686C306.77 198.041 306.823 198.308 306.929 198.488C307.035 198.663 307.172 198.783 307.339 198.848C307.51 198.91 307.696 198.94 307.896 198.94C308.042 198.94 308.171 198.93 308.281 198.91C308.391 198.889 308.477 198.873 308.538 198.861L308.868 200.371C308.762 200.412 308.611 200.453 308.415 200.494C308.22 200.538 307.975 200.563 307.681 200.567C307.2 200.575 306.752 200.489 306.336 200.31C305.92 200.131 305.584 199.853 305.327 199.478C305.07 199.103 304.942 198.632 304.942 198.066V188.8ZM314.667 200.634C313.742 200.634 312.945 200.436 312.276 200.041C311.611 199.641 311.098 199.081 310.735 198.359C310.376 197.633 310.197 196.783 310.197 195.809C310.197 194.847 310.376 193.998 310.735 193.265C311.098 192.531 311.603 191.958 312.252 191.546C312.904 191.134 313.666 190.928 314.539 190.928C315.069 190.928 315.583 191.016 316.08 191.191C316.577 191.367 317.024 191.642 317.419 192.017C317.815 192.392 318.127 192.879 318.355 193.479C318.583 194.074 318.698 194.798 318.698 195.65V196.298H311.23V194.928H316.906C316.906 194.447 316.808 194.021 316.612 193.65C316.416 193.275 316.141 192.979 315.786 192.763C315.436 192.547 315.024 192.439 314.551 192.439C314.037 192.439 313.589 192.565 313.206 192.818C312.826 193.067 312.533 193.393 312.325 193.797C312.121 194.196 312.019 194.63 312.019 195.099V196.17C312.019 196.797 312.129 197.332 312.349 197.772C312.574 198.212 312.886 198.549 313.285 198.781C313.685 199.009 314.152 199.124 314.686 199.124C315.032 199.124 315.348 199.075 315.634 198.977C315.919 198.875 316.166 198.724 316.374 198.524C316.582 198.324 316.741 198.078 316.851 197.784L318.581 198.096C318.443 198.606 318.194 199.052 317.835 199.435C317.481 199.815 317.034 200.11 316.496 200.322C315.962 200.53 315.352 200.634 314.667 200.634Z" fill="#212528"/>
</g>
<g filter="url(#filter4_d_387_633)">
<rect x="201.333" y="245.111" width="161.889" height="131.556" rx="13.7778" fill="white" shape-rendering="crispEdges"/>
<rect x="201.764" y="245.542" width="161.028" height="130.694" rx="13.3472" stroke="#212528" stroke-width="0.861111" shape-rendering="crispEdges"/>
<path d="M282.278 269.222L268.5 274.389V284.877C268.5 293.574 274.373 301.686 282.278 303.667C290.183 301.686 296.056 293.574 296.056 284.877V274.389L282.278 269.222ZM292.611 284.877C292.611 291.766 288.219 298.138 282.278 300.084C276.336 298.138 271.944 291.783 271.944 284.877V276.645L282.278 272.994L292.611 276.645V284.877ZM276.801 284.016L274.356 286.444L280.452 292.541L290.2 282.793L287.772 280.365L280.469 287.667L276.801 284.016Z" fill="#0080FF"/>
<path d="M253.804 321.765C253.739 321.186 253.47 320.738 252.997 320.42C252.524 320.097 251.928 319.936 251.211 319.936C250.697 319.936 250.253 320.018 249.878 320.181C249.502 320.34 249.211 320.56 249.003 320.842C248.799 321.119 248.697 321.435 248.697 321.79C248.697 322.087 248.766 322.344 248.905 322.56C249.048 322.776 249.233 322.958 249.462 323.104C249.694 323.247 249.943 323.367 250.208 323.465C250.473 323.559 250.728 323.637 250.972 323.698L252.195 324.016C252.595 324.114 253.005 324.246 253.425 324.413C253.845 324.58 254.234 324.801 254.593 325.074C254.952 325.347 255.241 325.685 255.461 326.089C255.686 326.493 255.798 326.976 255.798 327.538C255.798 328.248 255.614 328.878 255.247 329.428C254.884 329.979 254.356 330.413 253.663 330.731C252.974 331.049 252.14 331.208 251.162 331.208C250.224 331.208 249.413 331.059 248.728 330.761C248.043 330.464 247.507 330.042 247.119 329.496C246.732 328.945 246.518 328.293 246.477 327.538H248.373C248.41 327.991 248.557 328.368 248.813 328.67C249.074 328.968 249.407 329.19 249.81 329.336C250.218 329.479 250.664 329.551 251.15 329.551C251.684 329.551 252.159 329.467 252.575 329.3C252.995 329.129 253.325 328.892 253.565 328.59C253.806 328.285 253.926 327.928 253.926 327.52C253.926 327.149 253.82 326.845 253.608 326.609C253.4 326.372 253.117 326.177 252.758 326.022C252.403 325.867 252.002 325.73 251.553 325.612L250.073 325.208C249.07 324.935 248.275 324.534 247.688 324.003C247.105 323.473 246.813 322.772 246.813 321.9C246.813 321.178 247.009 320.548 247.401 320.01C247.792 319.472 248.322 319.054 248.991 318.756C249.659 318.454 250.414 318.304 251.254 318.304C252.102 318.304 252.85 318.452 253.498 318.75C254.15 319.048 254.664 319.457 255.039 319.979C255.414 320.497 255.61 321.092 255.626 321.765H253.804ZM261.958 331.19C261.032 331.19 260.235 330.992 259.567 330.596C258.902 330.197 258.388 329.636 258.025 328.914C257.667 328.189 257.487 327.339 257.487 326.364C257.487 325.402 257.667 324.554 258.025 323.82C258.388 323.086 258.894 322.513 259.542 322.101C260.194 321.69 260.957 321.484 261.829 321.484C262.359 321.484 262.873 321.571 263.371 321.747C263.868 321.922 264.315 322.197 264.71 322.572C265.105 322.947 265.417 323.435 265.646 324.034C265.874 324.629 265.988 325.353 265.988 326.205V326.853H258.521V325.484H264.196C264.196 325.002 264.098 324.576 263.903 324.205C263.707 323.83 263.432 323.535 263.077 323.318C262.726 323.102 262.315 322.994 261.842 322.994C261.328 322.994 260.879 323.121 260.496 323.374C260.117 323.622 259.823 323.948 259.615 324.352C259.412 324.752 259.31 325.186 259.31 325.655V326.725C259.31 327.353 259.42 327.887 259.64 328.327C259.864 328.768 260.176 329.104 260.576 329.336C260.975 329.565 261.442 329.679 261.976 329.679C262.323 329.679 262.639 329.63 262.924 329.532C263.21 329.43 263.456 329.279 263.664 329.08C263.872 328.88 264.031 328.633 264.141 328.34L265.872 328.652C265.733 329.161 265.485 329.608 265.126 329.991C264.771 330.37 264.325 330.666 263.786 330.878C263.252 331.086 262.643 331.19 261.958 331.19ZM271.974 331.19C271.065 331.19 270.282 330.984 269.626 330.572C268.973 330.156 268.472 329.583 268.121 328.853C267.77 328.124 267.595 327.288 267.595 326.346C267.595 325.392 267.775 324.55 268.133 323.82C268.492 323.086 268.998 322.513 269.65 322.101C270.302 321.69 271.071 321.484 271.956 321.484C272.669 321.484 273.305 321.616 273.864 321.881C274.422 322.142 274.873 322.509 275.215 322.982C275.562 323.455 275.768 324.008 275.833 324.64H274.053C273.956 324.199 273.731 323.82 273.381 323.502C273.034 323.184 272.569 323.025 271.986 323.025C271.477 323.025 271.03 323.159 270.647 323.429C270.268 323.694 269.972 324.073 269.76 324.566C269.548 325.055 269.442 325.634 269.442 326.303C269.442 326.988 269.546 327.579 269.754 328.077C269.962 328.574 270.256 328.959 270.635 329.233C271.018 329.506 271.469 329.642 271.986 329.642C272.333 329.642 272.647 329.579 272.928 329.453C273.214 329.322 273.452 329.137 273.644 328.896C273.839 328.656 273.976 328.366 274.053 328.028H275.833C275.768 328.635 275.57 329.177 275.24 329.655C274.91 330.132 274.467 330.507 273.913 330.78C273.362 331.053 272.716 331.19 271.974 331.19ZM283.739 327.104V321.606H285.574V331H283.776V329.373H283.678C283.462 329.875 283.116 330.293 282.639 330.627C282.166 330.957 281.576 331.122 280.871 331.122C280.268 331.122 279.734 330.99 279.269 330.725C278.808 330.456 278.445 330.058 278.18 329.532C277.919 329.006 277.789 328.356 277.789 327.581V321.606H279.617V327.361C279.617 328.001 279.795 328.511 280.149 328.89C280.504 329.269 280.965 329.459 281.532 329.459C281.874 329.459 282.215 329.373 282.553 329.202C282.895 329.031 283.179 328.772 283.403 328.425C283.631 328.079 283.744 327.638 283.739 327.104ZM288.031 331V321.606H289.799V323.098H289.897C290.068 322.593 290.37 322.195 290.802 321.906C291.238 321.612 291.731 321.465 292.282 321.465C292.396 321.465 292.53 321.469 292.685 321.478C292.844 321.486 292.969 321.496 293.058 321.508V323.257C292.985 323.237 292.855 323.215 292.667 323.19C292.479 323.162 292.292 323.147 292.104 323.147C291.672 323.147 291.287 323.239 290.948 323.422C290.614 323.602 290.349 323.853 290.153 324.175C289.958 324.493 289.86 324.856 289.86 325.263V331H288.031ZM298.353 331.19C297.428 331.19 296.631 330.992 295.962 330.596C295.297 330.197 294.784 329.636 294.421 328.914C294.062 328.189 293.883 327.339 293.883 326.364C293.883 325.402 294.062 324.554 294.421 323.82C294.784 323.086 295.289 322.513 295.938 322.101C296.59 321.69 297.352 321.484 298.225 321.484C298.755 321.484 299.269 321.571 299.766 321.747C300.263 321.922 300.71 322.197 301.105 322.572C301.501 322.947 301.813 323.435 302.041 324.034C302.269 324.629 302.384 325.353 302.384 326.205V326.853H294.916V325.484H300.592C300.592 325.002 300.494 324.576 300.298 324.205C300.102 323.83 299.827 323.535 299.472 323.318C299.122 323.102 298.71 322.994 298.237 322.994C297.723 322.994 297.275 323.121 296.892 323.374C296.512 323.622 296.219 323.948 296.011 324.352C295.807 324.752 295.705 325.186 295.705 325.655V326.725C295.705 327.353 295.815 327.887 296.035 328.327C296.26 328.768 296.572 329.104 296.971 329.336C297.371 329.565 297.837 329.679 298.372 329.679C298.718 329.679 299.034 329.63 299.32 329.532C299.605 329.43 299.852 329.279 300.06 329.08C300.268 328.88 300.427 328.633 300.537 328.34L302.267 328.652C302.129 329.161 301.88 329.608 301.521 329.991C301.167 330.37 300.72 330.666 300.182 330.878C299.648 331.086 299.038 331.19 298.353 331.19ZM312.615 331.177C311.776 331.177 311.052 331.024 310.444 330.719C309.841 330.413 309.376 329.997 309.05 329.471C308.724 328.941 308.561 328.342 308.561 327.673C308.561 327.163 308.667 326.711 308.879 326.315C309.091 325.916 309.386 325.547 309.765 325.208C310.145 324.87 310.583 324.529 311.08 324.187L313.099 322.762C313.441 322.538 313.708 322.301 313.9 322.053C314.091 321.8 314.187 321.488 314.187 321.117C314.187 320.823 314.061 320.542 313.808 320.273C313.555 320.004 313.217 319.869 312.793 319.869C312.499 319.869 312.24 319.941 312.016 320.083C311.796 320.226 311.623 320.409 311.496 320.634C311.374 320.854 311.313 321.086 311.313 321.331C311.313 321.616 311.39 321.904 311.545 322.193C311.704 322.483 311.908 322.782 312.157 323.092C312.405 323.398 312.666 323.716 312.94 324.046L318.756 331H316.689L311.875 325.343C311.472 324.866 311.097 324.417 310.75 323.997C310.404 323.573 310.122 323.145 309.906 322.713C309.694 322.277 309.588 321.806 309.588 321.3C309.588 320.725 309.719 320.216 309.979 319.771C310.245 319.323 310.613 318.972 311.086 318.719C311.559 318.467 312.114 318.34 312.75 318.34C313.394 318.34 313.947 318.467 314.407 318.719C314.872 318.968 315.229 319.3 315.478 319.716C315.73 320.128 315.857 320.579 315.857 321.068C315.857 321.663 315.708 322.189 315.41 322.646C315.117 323.098 314.711 323.514 314.193 323.893L311.68 325.746C311.19 326.105 310.85 326.46 310.658 326.811C310.471 327.157 310.377 327.428 310.377 327.624C310.377 327.983 310.469 328.315 310.652 328.621C310.84 328.927 311.101 329.171 311.435 329.355C311.773 329.538 312.169 329.63 312.622 329.63C313.086 329.63 313.539 329.53 313.979 329.33C314.424 329.127 314.825 328.835 315.184 328.456C315.547 328.077 315.834 327.622 316.046 327.092C316.258 326.562 316.364 325.969 316.364 325.312H318.016C318.016 326.12 317.924 326.802 317.74 327.361C317.557 327.916 317.335 328.368 317.074 328.719C316.817 329.065 316.574 329.336 316.346 329.532C316.273 329.597 316.203 329.663 316.138 329.728C316.073 329.793 316.004 329.858 315.93 329.924C315.506 330.352 314.992 330.668 314.389 330.872C313.79 331.075 313.198 331.177 312.615 331.177ZM251.329 352V339.475H255.793C256.763 339.475 257.569 339.642 258.209 339.976C258.853 340.311 259.334 340.773 259.652 341.365C259.97 341.952 260.129 342.631 260.129 343.401C260.129 344.168 259.968 344.842 259.646 345.425C259.328 346.004 258.847 346.455 258.203 346.777C257.563 347.099 256.757 347.26 255.787 347.26H252.405V345.633H255.616C256.227 345.633 256.725 345.546 257.108 345.37C257.495 345.195 257.779 344.94 257.958 344.606C258.137 344.272 258.227 343.87 258.227 343.401C258.227 342.928 258.135 342.518 257.952 342.172C257.773 341.825 257.489 341.56 257.102 341.377C256.719 341.189 256.215 341.095 255.591 341.095H253.218V352H251.329ZM257.512 346.349L260.606 352H258.453L255.42 346.349H257.512ZM266.213 352.19C265.287 352.19 264.49 351.992 263.822 351.596C263.157 351.197 262.643 350.636 262.28 349.914C261.922 349.189 261.742 348.339 261.742 347.364C261.742 346.402 261.922 345.554 262.28 344.82C262.643 344.086 263.149 343.513 263.797 343.101C264.45 342.69 265.212 342.484 266.085 342.484C266.615 342.484 267.128 342.571 267.626 342.747C268.123 342.922 268.57 343.197 268.965 343.572C269.361 343.947 269.672 344.435 269.901 345.034C270.129 345.629 270.243 346.353 270.243 347.205V347.853H262.776V346.484H268.451C268.451 346.002 268.354 345.576 268.158 345.205C267.962 344.83 267.687 344.535 267.332 344.318C266.982 344.102 266.57 343.994 266.097 343.994C265.583 343.994 265.135 344.121 264.751 344.374C264.372 344.622 264.079 344.948 263.871 345.352C263.667 345.752 263.565 346.186 263.565 346.655V347.725C263.565 348.353 263.675 348.887 263.895 349.327C264.119 349.768 264.431 350.104 264.831 350.336C265.23 350.565 265.697 350.679 266.231 350.679C266.578 350.679 266.894 350.63 267.179 350.532C267.465 350.43 267.711 350.279 267.919 350.08C268.127 349.88 268.286 349.633 268.396 349.34L270.127 349.652C269.988 350.161 269.74 350.608 269.381 350.991C269.026 351.37 268.58 351.666 268.042 351.878C267.507 352.086 266.898 352.19 266.213 352.19ZM274.101 339.475V352H272.272V339.475H274.101ZM276.561 352V342.606H278.39V352H276.561ZM277.484 341.157C277.166 341.157 276.893 341.051 276.665 340.839C276.441 340.622 276.329 340.366 276.329 340.068C276.329 339.766 276.441 339.509 276.665 339.297C276.893 339.081 277.166 338.973 277.484 338.973C277.802 338.973 278.074 339.081 278.298 339.297C278.526 339.509 278.64 339.766 278.64 340.068C278.64 340.366 278.526 340.622 278.298 340.839C278.074 341.051 277.802 341.157 277.484 341.157ZM283.583 352.208C282.988 352.208 282.45 352.098 281.969 351.878C281.488 351.653 281.107 351.329 280.825 350.905C280.548 350.481 280.409 349.961 280.409 349.346C280.409 348.816 280.511 348.379 280.715 348.037C280.919 347.694 281.194 347.423 281.541 347.224C281.887 347.024 282.275 346.873 282.703 346.771C283.131 346.669 283.567 346.592 284.012 346.539C284.574 346.473 285.031 346.42 285.382 346.38C285.732 346.335 285.987 346.263 286.146 346.165C286.305 346.068 286.385 345.909 286.385 345.688V345.646C286.385 345.112 286.234 344.698 285.932 344.404C285.634 344.111 285.19 343.964 284.599 343.964C283.983 343.964 283.498 344.1 283.143 344.374C282.793 344.643 282.55 344.942 282.415 345.273L280.697 344.881C280.901 344.31 281.198 343.85 281.59 343.499C281.985 343.144 282.44 342.887 282.954 342.728C283.467 342.565 284.008 342.484 284.574 342.484C284.949 342.484 285.347 342.529 285.767 342.618C286.191 342.704 286.586 342.863 286.953 343.095C287.324 343.328 287.628 343.66 287.865 344.092C288.101 344.52 288.219 345.077 288.219 345.762V352H286.433V350.716H286.36C286.242 350.952 286.064 351.185 285.828 351.413C285.592 351.641 285.288 351.831 284.917 351.982C284.546 352.133 284.101 352.208 283.583 352.208ZM283.981 350.74C284.487 350.74 284.919 350.64 285.278 350.44C285.64 350.241 285.916 349.98 286.103 349.658C286.295 349.331 286.391 348.983 286.391 348.612V347.401C286.325 347.466 286.199 347.527 286.011 347.584C285.828 347.637 285.618 347.684 285.382 347.725C285.145 347.762 284.915 347.796 284.69 347.829C284.466 347.858 284.279 347.882 284.128 347.902C283.773 347.947 283.449 348.023 283.155 348.129C282.866 348.235 282.633 348.388 282.458 348.587C282.287 348.783 282.201 349.044 282.201 349.37C282.201 349.823 282.368 350.165 282.703 350.398C283.037 350.626 283.463 350.74 283.981 350.74ZM290.802 352V339.475H292.63V344.129H292.74C292.846 343.933 292.999 343.707 293.199 343.45C293.399 343.193 293.676 342.969 294.031 342.777C294.386 342.582 294.854 342.484 295.438 342.484C296.196 342.484 296.873 342.675 297.468 343.059C298.063 343.442 298.53 343.994 298.869 344.716C299.211 345.438 299.382 346.306 299.382 347.321C299.382 348.337 299.213 349.207 298.875 349.933C298.536 350.655 298.071 351.211 297.48 351.602C296.889 351.99 296.214 352.183 295.456 352.183C294.885 352.183 294.418 352.088 294.055 351.896C293.697 351.704 293.415 351.48 293.211 351.223C293.007 350.966 292.851 350.738 292.74 350.538H292.588V352H290.802ZM292.594 347.303C292.594 347.964 292.689 348.543 292.881 349.04C293.073 349.537 293.35 349.927 293.713 350.208C294.076 350.485 294.52 350.624 295.046 350.624C295.592 350.624 296.049 350.479 296.416 350.19C296.783 349.896 297.06 349.499 297.248 348.997C297.439 348.496 297.535 347.931 297.535 347.303C297.535 346.683 297.441 346.127 297.254 345.633C297.07 345.14 296.793 344.751 296.422 344.465C296.055 344.18 295.597 344.037 295.046 344.037C294.516 344.037 294.068 344.174 293.701 344.447C293.338 344.72 293.063 345.101 292.875 345.591C292.687 346.08 292.594 346.651 292.594 347.303ZM303.264 339.475V352H301.436V339.475H303.264ZM309.773 352.19C308.848 352.19 308.05 351.992 307.382 351.596C306.717 351.197 306.203 350.636 305.841 349.914C305.482 349.189 305.302 348.339 305.302 347.364C305.302 346.402 305.482 345.554 305.841 344.82C306.203 344.086 306.709 343.513 307.357 343.101C308.01 342.69 308.772 342.484 309.645 342.484C310.175 342.484 310.688 342.571 311.186 342.747C311.683 342.922 312.13 343.197 312.525 343.572C312.921 343.947 313.233 344.435 313.461 345.034C313.689 345.629 313.803 346.353 313.803 347.205V347.853H306.336V346.484H312.011C312.011 346.002 311.914 345.576 311.718 345.205C311.522 344.83 311.247 344.535 310.892 344.318C310.542 344.102 310.13 343.994 309.657 343.994C309.143 343.994 308.695 344.121 308.311 344.374C307.932 344.622 307.639 344.948 307.431 345.352C307.227 345.752 307.125 346.186 307.125 346.655V347.725C307.125 348.353 307.235 348.887 307.455 349.327C307.679 349.768 307.991 350.104 308.391 350.336C308.79 350.565 309.257 350.679 309.791 350.679C310.138 350.679 310.454 350.63 310.739 350.532C311.025 350.43 311.271 350.279 311.479 350.08C311.687 349.88 311.846 349.633 311.956 349.34L313.687 349.652C313.549 350.161 313.3 350.608 312.941 350.991C312.586 351.37 312.14 351.666 311.602 351.878C311.068 352.086 310.458 352.19 309.773 352.19Z" fill="#212528"/>
</g>
</g>
<defs>
<filter id="filter0_d_387_633" x="18.7778" y="4" width="347.889" height="72.3334" filterUnits="userSpaceOnUse" color-interpolation-filters="sRGB">
<feFlood flood-opacity="0" result="BackgroundImageFix"/>
<feColorMatrix in="SourceAlpha" type="matrix" values="0 0 0 0 0 0 0 0 0 0 0 0 0 0 0 0 0 0 127 0" result="hardAlpha"/>
<feOffset dx="3.44444" dy="3.44444"/>
<feComposite in2="hardAlpha" operator="out"/>
<feColorMatrix type="matrix" values="0 0 0 0 0.690435 0 0 0 0 0.909565 0 0 0 0 0.713043 0 0 0 1 0"/>
<feBlend mode="normal" in2="BackgroundImageFix" result="effect1_dropShadow_387_633"/>
<feBlend mode="normal" in="SourceGraphic" in2="effect1_dropShadow_387_633" result="shape"/>
</filter>
<filter id="filter1_d_387_633" x="18.7778" y="93.5557" width="165.333" height="135" filterUnits="userSpaceOnUse" color-interpolation-filters="sRGB">
<feFlood flood-opacity="0" result="BackgroundImageFix"/>
<feColorMatrix in="SourceAlpha" type="matrix" values="0 0 0 0 0 0 0 0 0 0 0 0 0 0 0 0 0 0 127 0" result="hardAlpha"/>
<feOffset dx="3.44444" dy="3.44444"/>
<feComposite in2="hardAlpha" operator="out"/>
<feColorMatrix type="matrix" values="0 0 0 0 0.667568 0 0 0 0 0.8 0 0 0 0 0.932432 0 0 0 1 0"/>
<feBlend mode="normal" in2="BackgroundImageFix" result="effect1_dropShadow_387_633"/>
<feBlend mode="normal" in="SourceGraphic" in2="effect1_dropShadow_387_633" result="shape"/>
</filter>
<filter id="filter2_d_387_633" x="18.7778" y="245.111" width="165.333" height="135" filterUnits="userSpaceOnUse" color-interpolation-filters="sRGB">
<feFlood flood-opacity="0" result="BackgroundImageFix"/>
<feColorMatrix in="SourceAlpha" type="matrix" values="0 0 0 0 0 0 0 0 0 0 0 0 0 0 0 0 0 0 127 0" result="hardAlpha"/>
<feOffset dx="3.44444" dy="3.44444"/>
<feComposite in2="hardAlpha" operator="out"/>
<feColorMatrix type="matrix" values="0 0 0 0 0.932432 0 0 0 0 0.842378 0 0 0 0 0.667568 0 0 0 1 0"/>
<feBlend mode="normal" in2="BackgroundImageFix" result="effect1_dropShadow_387_633"/>
<feBlend mode="normal" in="SourceGraphic" in2="effect1_dropShadow_387_633" result="shape"/>
</filter>
<filter id="filter3_d_387_633" x="201.333" y="93.5557" width="165.333" height="135" filterUnits="userSpaceOnUse" color-interpolation-filters="sRGB">
<feFlood flood-opacity="0" result="BackgroundImageFix"/>
<feColorMatrix in="SourceAlpha" type="matrix" values="0 0 0 0 0 0 0 0 0 0 0 0 0 0 0 0 0 0 127 0" result="hardAlpha"/>
<feOffset dx="3.44444" dy="3.44444"/>
<feComposite in2="hardAlpha" operator="out"/>
<feColorMatrix type="matrix" values="0 0 0 0 0.932432 0 0 0 0 0.842378 0 0 0 0 0.667568 0 0 0 1 0"/>
<feBlend mode="normal" in2="BackgroundImageFix" result="effect1_dropShadow_387_633"/>
<feBlend mode="normal" in="SourceGraphic" in2="effect1_dropShadow_387_633" result="shape"/>
</filter>
<filter id="filter4_d_387_633" x="201.333" y="245.111" width="165.333" height="135" filterUnits="userSpaceOnUse" color-interpolation-filters="sRGB">
<feFlood flood-opacity="0" result="BackgroundImageFix"/>
<feColorMatrix in="SourceAlpha" type="matrix" values="0 0 0 0 0 0 0 0 0 0 0 0 0 0 0 0 0 0 127 0" result="hardAlpha"/>
<feOffset dx="3.44444" dy="3.44444"/>
<feComposite in2="hardAlpha" operator="out"/>
<feColorMatrix type="matrix" values="0 0 0 0 0.667568 0 0 0 0 0.8 0 0 0 0 0.932432 0 0 0 1 0"/>
<feBlend mode="normal" in2="BackgroundImageFix" result="effect1_dropShadow_387_633"/>
<feBlend mode="normal" in="SourceGraphic" in2="effect1_dropShadow_387_633" result="shape"/>
</filter>
<clipPath id="clip0_387_633">
<rect width="380" height="380" fill="white" transform="translate(0.5)"/>
</clipPath>
</defs>
</svg>
