<svg width="405" height="404" viewBox="0 0 405 404" fill="none" xmlns="http://www.w3.org/2000/svg">
<g filter="url(#filter0_d_387_604)">
<rect x="0.5" width="188" height="188" rx="16" fill="white" shape-rendering="crispEdges"/>
<rect x="1" y="0.5" width="187" height="187" rx="15.5" stroke="#182383" shape-rendering="crispEdges"/>
<path fill-rule="evenodd" clip-rule="evenodd" d="M132.146 83.2345L82.9026 100.471L73.6406 73.7161L122.832 56.48L132.146 83.2345Z" fill="#0080FF"/>
<path fill-rule="evenodd" clip-rule="evenodd" d="M99.6802 142.763C100.04 145.13 99.9889 147.548 99.4744 149.863L161.273 128.254L159.112 121.977L99.6802 142.763Z" fill="#0080FF"/>
<path fill-rule="evenodd" clip-rule="evenodd" d="M74.4648 129.334C65.6658 132.319 60.9833 141.888 64.0192 150.687C67.0037 159.485 76.5745 164.167 85.3734 161.183C94.1209 158.147 98.8549 148.629 95.819 139.83C95.819 139.779 95.819 139.728 95.819 139.728C92.886 130.981 83.4181 126.299 74.7221 129.232C74.6706 129.283 74.5677 129.283 74.4648 129.334ZM83.1094 153.774C78.4783 155.369 73.4357 153.002 71.8405 148.371C70.1939 143.792 72.6124 138.75 77.2434 137.155C81.823 135.509 86.8656 137.927 88.4608 142.506C89.953 147.085 87.586 152.076 83.1094 153.774Z" fill="#0080FF"/>
<path fill-rule="evenodd" clip-rule="evenodd" d="M149.833 86.7329L159.507 114.414L99.6639 135.406C98.2231 132.627 96.2163 130.209 93.8494 128.254L87.1601 108.805L149.833 86.7329ZM151.12 83.9031L84.1757 107.262L91.894 129.334C94.827 131.495 97.0396 134.428 98.3775 137.772L162.131 115.494L151.12 83.9031Z" fill="#0080FF"/>
<path fill-rule="evenodd" clip-rule="evenodd" d="M85.2711 125.887L52.2879 31.3718L52.4937 26.5868L27.126 25.918L26.8687 37.1857L46.2676 37.8546L76.8324 125.63L85.2711 125.887Z" fill="#0080FF"/>
</g>
<g filter="url(#filter1_d_387_604)">
<rect x="0.5" y="212" width="188" height="188" rx="16" fill="white" shape-rendering="crispEdges"/>
<rect x="1" y="212.5" width="187" height="187" rx="15.5" stroke="#182383" shape-rendering="crispEdges"/>
<path d="M55.6691 369.027C55.7426 375.644 72.5332 381 93.2363 381C113.986 381 130.807 375.62 130.807 368.984C130.807 362.347 113.986 356.966 93.2363 356.966C72.5332 356.966 55.7426 362.322 55.6691 368.939V369.027Z" fill="#F2F2F3"/>
<path d="M99.6332 270.5C99.6332 270.5 107.512 285.025 120.754 283.495L115.99 292.512C115.99 292.512 98.8604 289.806 94.2647 270.5H99.6332Z" fill="#FABFA5"/>
<path d="M94.1002 359.964L96.6123 360.158C96.6123 360.158 99.7018 364.795 106.367 365.568C107.914 366.05 108.009 367.208 107.43 368.465C106.851 369.721 95.1635 368.465 93.1337 367.113C91.9754 365.856 94.1002 359.964 94.1002 359.964Z" fill="#4B332F"/>
<path d="M77.2734 361.413L79.7855 361.607C79.7855 361.607 82.875 366.244 89.54 367.017C91.0856 367.499 91.1824 368.659 90.6033 369.915C90.0241 371.17 78.3349 369.915 76.3069 368.563C75.1485 367.305 77.2734 361.413 77.2734 361.413Z" fill="#4B332F"/>
<path d="M93.2427 314.05C93.2427 314.05 92.7263 340.838 81.2666 363.249L76.436 363.828C76.436 363.828 82.4249 339.099 80.1064 318.814C78.5608 308.512 82.1667 303.617 82.1667 303.617L93.2427 314.05Z" fill="#3F4346"/>
<path d="M108.498 306.062C108.498 306.062 113.424 331.759 98.1629 362.089H93.4291C93.4291 362.089 99.4181 338.519 96.5204 318.62L94.7811 313.791L108.498 306.062Z" fill="#3F4346"/>
<path d="M105.598 307.802L102.119 319.202C102.119 319.202 95.1653 317.462 87.6307 318.041L86.6643 307.802H105.598Z" fill="#3F4346"/>
<path d="M103.074 283.284L109.26 276.809C108.919 276.016 100.456 268.553 97.965 267.727C96.1988 267.142 92.5677 267.346 92.5677 267.346L103.074 283.284Z" fill="#868EE0"/>
<path d="M105.071 280.984L103.072 283.284L93.4626 268.708C93.4751 268.654 93.4823 268.598 93.4931 268.544C97.5383 268.555 103.169 275.909 105.071 280.984Z" fill="#1A237E"/>
<path d="M91.8509 262.788C91.8509 262.788 91.2915 265.121 91.5103 267.095C92.2938 268.169 92.0052 269.222 92.8676 269.622C92.8676 269.622 95.1162 273.108 92.344 273.075C89.5719 273.041 84.9923 267.515 84.9923 267.515C84.9923 267.515 87.2337 266.711 84.7897 259.989L91.8509 262.788Z" fill="#FABFA5"/>
<path d="M79.464 270.321L84.7249 267.501C84.7249 267.501 89.7905 271.862 91.6535 271.439C93.5183 271.015 93.1489 268.236 93.1077 268.089C93.1077 268.089 95.2164 267.203 97.2569 269.823C99.5933 272.823 103.608 278.611 105.806 286.833C107.852 294.494 109.256 308.5 109.256 308.5C101.914 312.714 79.525 308.9 79.525 308.9C82.8422 296.323 79.464 270.321 79.464 270.321Z" fill="#868EE0"/>
<path d="M86.3017 282.694C86.3017 282.694 88.7331 290.697 91.161 290.578C93.5906 290.462 93.7036 282.079 93.7036 282.079L99.3716 283.237C99.3716 283.237 98.8892 296.713 91.5483 297.654C84.2073 298.596 79.6672 281.596 79.6672 281.596L86.3017 282.694Z" fill="#FABFA5"/>
<path d="M77.1117 272.281C77.4291 270.357 79.3064 269.283 81.0063 268.695C81.9297 270.395 83.0665 271.996 84.3056 273.482L84.3558 274.155C85.186 276.622 90.8755 286.727 90.8755 286.727C87.517 289.531 79.4678 288.188 79.4678 288.188C79.4678 288.188 76.511 275.919 77.1117 272.281Z" fill="#1A237E"/>
<path d="M91.4575 266.319C89.7039 267.011 87.4661 265.54 85.8111 263.79C85.6622 262.799 85.3556 261.561 84.7836 259.989L91.8448 262.788C91.8448 262.788 91.4217 264.558 91.4575 266.319Z" fill="#F7986C"/>
<path d="M101.467 242.839C101.467 242.839 106.371 260.416 96.2457 263.692C86.1201 266.968 72.021 254.403 75.496 241.317L101.467 242.839Z" fill="#FABFA5"/>
<path d="M74.2277 245.453C74.2277 245.453 73.6449 253.766 81.8071 260.06C82.449 260.544 83.9373 256.994 82.4526 253.701C80.9679 250.409 80.4497 243.864 80.4497 243.864L74.2277 245.453Z" fill="#7A3C38"/>
<path d="M81.3221 251.387C81.3221 251.387 78.0551 248.823 77.1173 251.606C76.1795 254.389 80.3305 257.326 84.1624 256.881L81.3221 251.387Z" fill="#FABFA5"/>
<path d="M82.2579 244.616C82.2579 244.616 81.7702 252.432 84.4276 257C86.0127 259.72 78.4422 250.288 78.8833 244.946L82.2579 244.616Z" fill="#7A3C38"/>
<path d="M84.3152 248.136C84.5017 248.136 84.6846 248.046 84.7976 247.879C86.3898 245.505 88.8697 245.978 90.2056 246.473C90.5068 246.585 90.8385 246.43 90.9497 246.131C91.0609 245.831 90.9085 245.498 90.6072 245.387C89.2732 244.894 85.947 244.088 83.8347 247.234C83.6554 247.499 83.7271 247.859 83.9925 248.039C84.0911 248.105 84.2041 248.136 84.3152 248.136Z" fill="#7A3C38"/>
<path d="M101.401 237.319C101.401 237.319 93.1371 244.576 81.2435 244.46C81.2435 244.46 94.7903 249.414 106.422 244.097C118.054 238.781 101.401 237.319 101.401 237.319Z" fill="#1A237E"/>
<path d="M101.418 237.319C101.418 237.319 98.0597 231.337 89.4063 231H87.8714C86.8816 231.038 85.829 231.145 84.7137 231.341C72.5565 233.466 74.0287 246.782 74.0287 246.782C74.0287 246.782 92.3828 246.176 101.418 237.319Z" fill="#868EE0"/>
<path d="M95.9945 250.429C96.1415 251.787 97.1223 252.793 98.1856 252.676C99.2472 252.559 99.9877 251.365 99.8389 250.01C99.6919 248.65 98.711 247.646 97.6477 247.761C96.5862 247.877 95.8457 249.072 95.9945 250.429Z" fill="#7A3C38"/>
<path d="M86.3692 251.48C86.5163 252.836 87.4989 253.842 88.5604 253.725C89.6219 253.61 90.3625 252.416 90.2136 251.059C90.0666 249.701 89.0858 248.695 88.0225 248.812C86.961 248.926 86.2204 250.122 86.3692 251.48Z" fill="#7A3C38"/>
<path d="M96.1203 256.155C96.1203 256.155 96.1149 256.26 96.1077 256.443C96.097 256.63 96.0665 256.897 96.0091 257.204C95.9517 257.51 95.8459 257.86 95.6666 258.159C95.4891 258.466 95.2255 258.685 94.8902 258.753C94.8813 258.755 94.8221 258.766 94.8544 258.762L94.7719 258.773L94.6051 258.794C94.485 258.814 94.4312 258.791 94.3415 258.796C94.1694 258.787 93.9865 258.746 93.8215 258.69C93.4898 258.568 93.1886 258.387 92.9573 258.192C92.7224 257.998 92.5377 257.815 92.4229 257.677C92.3099 257.543 92.2472 257.467 92.2472 257.467L92.2328 257.449C92.1271 257.324 91.9406 257.306 91.8151 257.412C91.7057 257.501 91.6788 257.652 91.7397 257.774C91.7433 257.779 91.7989 257.89 91.9173 258.064C92.0392 258.235 92.2149 258.48 92.4857 258.728C92.7546 258.972 93.1061 259.248 93.5633 259.413C93.7946 259.49 94.0349 259.549 94.3021 259.565C94.4312 259.565 94.6015 259.578 94.7002 259.558L94.8651 259.538L94.9494 259.529C95.0355 259.512 95.0301 259.51 95.0749 259.499C95.6236 259.37 96.0755 258.938 96.2888 258.506C96.5148 258.07 96.5793 257.643 96.617 257.29C96.6744 256.576 96.5721 256.112 96.5721 256.112C96.547 255.988 96.4233 255.909 96.3014 255.936C96.1956 255.959 96.1257 256.049 96.1203 256.149V256.155Z" fill="#AB3B37"/>
<path d="M83.0937 268.178C83.0937 268.178 76.9147 268.79 76.314 272.428C75.7133 276.068 78.6719 288.337 78.6719 288.337C78.6719 288.337 86.7193 289.678 90.0778 286.876C90.0778 286.876 85.622 277.325 84.7918 274.858L83.0937 268.178Z" fill="#868EE0"/>
<path d="M85.2806 266.853C85.2806 266.853 88.6749 269.907 92.1159 271.463C92.184 271.951 88.7843 270.893 88.1944 271.874C87.6062 272.855 87.0002 274.551 87.0002 274.551C87.0002 274.551 82.9854 270.396 82.148 268.169C82.148 268.169 83.7457 267.586 85.2806 266.853Z" fill="#1A237E"/>
<path d="M91.8702 271.546C91.8702 271.546 92.453 270.586 92.2701 269.258C92.1804 268.612 91.7626 267.927 91.5241 267.055C91.5241 267.055 92.3364 266.898 93.1343 267.314C93.9323 267.73 96.3529 270.192 96.6345 271.573C96.6183 271.924 94.3949 270.532 93.5611 270.726C92.7291 270.918 91.8702 271.546 91.8702 271.546Z" fill="#1A237E"/>
<path d="M106.047 292.724C105.665 293.963 106.41 295.293 107.708 295.695L122.707 300.329C124.007 300.732 125.372 300.052 125.753 298.815L132.424 277.231C132.806 275.993 132.062 274.663 130.763 274.261L115.762 269.626C114.464 269.224 113.1 269.904 112.718 271.143L106.047 292.724Z" fill="#2F394A"/>
<path d="M107.886 293.274L123.883 298.216L130.537 276.682L114.541 271.74L107.886 293.274Z" fill="#FEFEFE"/>
<path d="M114.678 276.357L127.843 280.426L128.221 279.201L115.057 275.132L114.678 276.357Z" fill="#868EE0"/>
<path d="M113.61 279.864L126.775 283.933L127.153 282.706L113.989 278.639L113.61 279.864Z" fill="#868EE0"/>
<path d="M112.53 283.372L125.697 287.441L126.075 286.214L112.91 282.146L112.53 283.372Z" fill="#868EE0"/>
<path d="M111.404 286.879L124.569 290.948L124.948 289.72L111.783 285.653L111.404 286.879Z" fill="#868EE0"/>
<path d="M110.32 290.386L115.918 292.115L116.299 290.889L110.7 289.16L110.32 290.386Z" fill="#868EE0"/>
<path d="M116.601 272.365C116.404 273.002 116.761 273.678 117.399 273.875L127.037 276.854C127.674 277.049 128.351 276.694 128.549 276.056C128.744 275.419 128.389 274.743 127.753 274.546L118.111 271.567C117.475 271.37 116.799 271.727 116.601 272.365Z" fill="#1A237E"/>
<path d="M121.074 271.935C120.79 272.853 121.448 273.871 122.546 274.21C123.643 274.549 124.762 274.079 125.045 273.163C125.331 272.245 124.671 271.228 123.573 270.887C122.478 270.549 121.357 271.018 121.074 271.935Z" fill="#1A237E"/>
<path d="M124.577 285.629C122.934 288.081 123.34 291.23 125.479 292.661C127.618 294.093 130.682 293.265 132.323 290.814C133.964 288.362 133.558 285.213 131.419 283.783C129.282 282.35 126.217 283.178 124.577 285.629Z" fill="#FABFA5"/>
<path d="M103.661 276.965C104.09 277.062 105.912 277.835 105.815 278.263C105.72 278.692 103.742 278.613 103.314 278.518L92.6499 276.131C92.2214 276.036 91.9524 275.611 92.0475 275.183C92.1443 274.754 92.5693 274.483 92.9978 274.58L103.661 276.965Z" fill="#373859"/>
<path d="M96.8704 276.058C93.9889 276.325 91.8443 278.62 92.0828 281.183C92.3195 283.745 94.8478 285.606 97.7311 285.339C100.613 285.072 102.755 282.779 102.519 280.214C102.28 277.654 99.7519 275.791 96.8704 276.058Z" fill="#FABFA5"/>
</g>
<g filter="url(#filter2_d_387_604)">
<rect x="212.5" width="188" height="400" rx="16" fill="white" shape-rendering="crispEdges"/>
<rect x="213" y="0.5" width="187" height="399" rx="15.5" stroke="#182383" shape-rendering="crispEdges"/>
<path d="M243.583 33.9999H246.917V38.9999H263.583V33.9999H266.917V42.3333H270.25V33.9999C270.25 32.1666 268.75 30.6666 266.917 30.6666H259.95C259.25 28.7333 257.417 27.3333 255.25 27.3333C253.083 27.3333 251.25 28.7333 250.55 30.6666H243.583C241.75 30.6666 240.25 32.1666 240.25 33.9999V57.3333C240.25 59.1666 241.75 60.6666 243.583 60.6666H253.583V57.3333H243.583V33.9999ZM255.25 30.6666C256.167 30.6666 256.917 31.4166 256.917 32.3333C256.917 33.2499 256.167 33.9999 255.25 33.9999C254.333 33.9999 253.583 33.2499 253.583 32.3333C253.583 31.4166 254.333 30.6666 255.25 30.6666Z" fill="#F2800D"/>
<path d="M270.25 44.8333L261.1 53.9999L256.083 48.9999L253.583 51.4999L261.1 58.9999L272.75 47.3333L270.25 44.8333Z" fill="#F2800D"/>
<path d="M241.707 85.5455V103H238.017V85.5455H241.707ZM248.306 95.4318V103H244.675V89.9091H248.136V92.2188H248.289C248.579 91.4574 249.065 90.8551 249.746 90.4119C250.428 89.9631 251.255 89.7386 252.227 89.7386C253.136 89.7386 253.928 89.9375 254.604 90.3352C255.281 90.733 255.806 91.3011 256.181 92.0398C256.556 92.7727 256.744 93.6477 256.744 94.6648V103H253.113V95.3125C253.119 94.5114 252.914 93.8864 252.499 93.4375C252.085 92.983 251.513 92.7557 250.786 92.7557C250.298 92.7557 249.866 92.8608 249.491 93.071C249.121 93.2812 248.832 93.5881 248.621 93.9915C248.417 94.3892 248.312 94.8693 248.306 95.4318ZM271.341 89.9091L266.764 103H262.673L258.097 89.9091H261.932L264.651 99.2756H264.787L267.497 89.9091H271.341ZM278.743 103.256C277.396 103.256 276.237 102.983 275.266 102.438C274.3 101.886 273.555 101.108 273.033 100.102C272.51 99.0909 272.249 97.8949 272.249 96.5142C272.249 95.1676 272.51 93.9858 273.033 92.9688C273.555 91.9517 274.291 91.1591 275.24 90.5909C276.195 90.0227 277.314 89.7386 278.598 89.7386C279.462 89.7386 280.266 89.8778 281.01 90.1562C281.76 90.429 282.413 90.8409 282.97 91.392C283.533 91.9432 283.97 92.6364 284.283 93.4716C284.595 94.3011 284.751 95.2727 284.751 96.3864V97.3835H273.697V95.1335H281.334C281.334 94.6108 281.22 94.1477 280.993 93.7443C280.766 93.3409 280.45 93.0256 280.047 92.7983C279.649 92.5653 279.186 92.4489 278.658 92.4489C278.107 92.4489 277.618 92.5767 277.192 92.8324C276.771 93.0824 276.442 93.4205 276.203 93.8466C275.964 94.267 275.842 94.7358 275.837 95.2528V97.392C275.837 98.0398 275.956 98.5994 276.195 99.071C276.439 99.5426 276.783 99.9062 277.226 100.162C277.669 100.418 278.195 100.545 278.803 100.545C279.206 100.545 279.575 100.489 279.911 100.375C280.246 100.261 280.533 100.091 280.771 99.8636C281.01 99.6364 281.192 99.358 281.317 99.0284L284.675 99.25C284.504 100.057 284.155 100.761 283.626 101.364C283.104 101.96 282.428 102.426 281.598 102.761C280.774 103.091 279.822 103.256 278.743 103.256ZM290.751 95.4318V103H287.121V89.9091H290.581V92.2188H290.734C291.024 91.4574 291.51 90.8551 292.192 90.4119C292.874 89.9631 293.7 89.7386 294.672 89.7386C295.581 89.7386 296.374 89.9375 297.05 90.3352C297.726 90.733 298.251 91.3011 298.626 92.0398C299.001 92.7727 299.189 93.6477 299.189 94.6648V103H295.558V95.3125C295.564 94.5114 295.359 93.8864 294.945 93.4375C294.53 92.983 293.959 92.7557 293.232 92.7557C292.743 92.7557 292.311 92.8608 291.936 93.071C291.567 93.2812 291.277 93.5881 291.067 93.9915C290.862 94.3892 290.757 94.8693 290.751 95.4318ZM309.013 89.9091V92.6364H301.13V89.9091H309.013ZM302.92 86.7727H306.55V98.9773C306.55 99.3125 306.602 99.5739 306.704 99.7614C306.806 99.9432 306.948 100.071 307.13 100.145C307.317 100.219 307.533 100.256 307.778 100.256C307.948 100.256 308.119 100.241 308.289 100.213C308.46 100.179 308.59 100.153 308.681 100.136L309.252 102.838C309.07 102.895 308.815 102.96 308.485 103.034C308.156 103.114 307.755 103.162 307.283 103.179C306.408 103.213 305.641 103.097 304.982 102.83C304.329 102.562 303.82 102.148 303.457 101.585C303.093 101.023 302.914 100.312 302.92 99.4545V86.7727ZM317.153 103.256C315.829 103.256 314.684 102.974 313.718 102.412C312.758 101.844 312.016 101.054 311.494 100.043C310.971 99.0256 310.71 97.8466 310.71 96.5057C310.71 95.1534 310.971 93.9716 311.494 92.9602C312.016 91.9432 312.758 91.1534 313.718 90.5909C314.684 90.0227 315.829 89.7386 317.153 89.7386C318.477 89.7386 319.619 90.0227 320.579 90.5909C321.545 91.1534 322.289 91.9432 322.812 92.9602C323.335 93.9716 323.596 95.1534 323.596 96.5057C323.596 97.8466 323.335 99.0256 322.812 100.043C322.289 101.054 321.545 101.844 320.579 102.412C319.619 102.974 318.477 103.256 317.153 103.256ZM317.17 100.443C317.772 100.443 318.275 100.273 318.678 99.9318C319.082 99.5852 319.386 99.1136 319.59 98.517C319.8 97.9205 319.906 97.2415 319.906 96.4801C319.906 95.7188 319.8 95.0398 319.59 94.4432C319.386 93.8466 319.082 93.375 318.678 93.0284C318.275 92.6818 317.772 92.5085 317.17 92.5085C316.562 92.5085 316.05 92.6818 315.636 93.0284C315.227 93.375 314.917 93.8466 314.707 94.4432C314.502 95.0398 314.4 95.7188 314.4 96.4801C314.4 97.2415 314.502 97.9205 314.707 98.517C314.917 99.1136 315.227 99.5852 315.636 99.9318C316.05 100.273 316.562 100.443 317.17 100.443ZM325.957 103V89.9091H329.477V92.1932H329.613C329.852 91.3807 330.252 90.767 330.815 90.3523C331.377 89.9318 332.025 89.7216 332.758 89.7216C332.94 89.7216 333.136 89.733 333.346 89.7557C333.556 89.7784 333.741 89.8097 333.9 89.8494V93.071C333.729 93.0199 333.494 92.9744 333.192 92.9347C332.891 92.8949 332.616 92.875 332.366 92.875C331.832 92.875 331.354 92.9915 330.934 93.2244C330.519 93.4517 330.19 93.7699 329.945 94.179C329.707 94.5881 329.587 95.0597 329.587 95.5938V103H325.957ZM338.417 107.909C337.957 107.909 337.525 107.872 337.121 107.798C336.724 107.73 336.394 107.642 336.133 107.534L336.951 104.824C337.377 104.955 337.761 105.026 338.102 105.037C338.448 105.048 338.746 104.969 338.996 104.798C339.252 104.628 339.46 104.338 339.619 103.929L339.832 103.375L335.136 89.9091H338.954L341.664 99.5227H341.8L344.536 89.9091H348.38L343.292 104.415C343.048 105.119 342.715 105.733 342.295 106.256C341.88 106.784 341.354 107.19 340.718 107.474C340.082 107.764 339.315 107.909 338.417 107.909Z" fill="#3F4346"/>
<path d="M247.407 141.079C247.407 141.671 247.896 142.151 248.498 142.151C249.101 142.151 249.589 141.671 249.589 141.079V137.863H252.862C253.465 137.863 253.953 137.383 253.953 136.791C253.953 136.199 253.465 135.719 252.862 135.719H249.589V132.504C249.589 131.912 249.101 131.432 248.498 131.432C247.896 131.432 247.407 131.912 247.407 132.504V135.719H244.135C243.532 135.719 243.044 136.199 243.044 136.791C243.044 137.383 243.532 137.863 244.135 137.863H247.407V141.079Z" fill="#505159"/>
<path fill-rule="evenodd" clip-rule="evenodd" d="M248.5 148.582C255.127 148.582 260.5 143.303 260.5 136.791C260.5 130.279 255.127 125 248.5 125C241.873 125 236.5 130.279 236.5 136.791C236.5 143.303 241.873 148.582 248.5 148.582ZM258.318 136.791C258.318 142.119 253.922 146.438 248.5 146.438C243.078 146.438 238.682 142.119 238.682 136.791C238.682 131.463 243.078 127.144 248.5 127.144C253.922 127.144 258.318 131.463 258.318 136.791Z" fill="#505159"/>
<path d="M278.075 135.42H276.524C276.464 135.089 276.353 134.797 276.191 134.545C276.029 134.293 275.83 134.079 275.594 133.904C275.359 133.728 275.096 133.595 274.804 133.506C274.516 133.416 274.209 133.372 273.884 133.372C273.298 133.372 272.772 133.519 272.308 133.814C271.848 134.109 271.483 134.542 271.214 135.112C270.949 135.682 270.817 136.378 270.817 137.2C270.817 138.028 270.949 138.728 271.214 139.298C271.483 139.868 271.849 140.299 272.313 140.59C272.777 140.882 273.299 141.028 273.879 141.028C274.201 141.028 274.506 140.985 274.794 140.899C275.086 140.809 275.349 140.678 275.585 140.506C275.82 140.334 276.019 140.123 276.181 139.875C276.347 139.623 276.461 139.334 276.524 139.01L278.075 139.014C277.992 139.515 277.832 139.976 277.593 140.397C277.358 140.814 277.054 141.175 276.683 141.48C276.315 141.782 275.894 142.016 275.42 142.181C274.946 142.347 274.429 142.43 273.869 142.43C272.988 142.43 272.202 142.221 271.513 141.804C270.823 141.383 270.28 140.781 269.882 139.999C269.488 139.217 269.29 138.284 269.29 137.2C269.29 136.113 269.489 135.18 269.887 134.401C270.285 133.619 270.828 133.019 271.518 132.601C272.207 132.18 272.991 131.97 273.869 131.97C274.41 131.97 274.913 132.048 275.381 132.203C275.851 132.356 276.274 132.581 276.648 132.88C277.023 133.175 277.333 133.536 277.578 133.963C277.823 134.388 277.989 134.873 278.075 135.42ZM279.794 142.291V134.654H281.231V135.867H281.311C281.45 135.456 281.695 135.133 282.046 134.898C282.401 134.659 282.802 134.54 283.249 134.54C283.342 134.54 283.452 134.543 283.578 134.55C283.707 134.557 283.808 134.565 283.881 134.575V135.997C283.821 135.98 283.715 135.962 283.563 135.942C283.41 135.919 283.258 135.907 283.105 135.907C282.754 135.907 282.441 135.982 282.166 136.131C281.894 136.277 281.678 136.481 281.519 136.742C281.36 137.001 281.281 137.296 281.281 137.627V142.291H279.794ZM288.185 142.445C287.433 142.445 286.785 142.284 286.241 141.963C285.701 141.638 285.283 141.182 284.988 140.595C284.697 140.005 284.551 139.314 284.551 138.522C284.551 137.74 284.697 137.051 284.988 136.454C285.283 135.858 285.694 135.392 286.221 135.057C286.752 134.722 287.371 134.555 288.081 134.555C288.511 134.555 288.929 134.626 289.333 134.769C289.738 134.911 290.101 135.135 290.422 135.44C290.744 135.745 290.997 136.141 291.183 136.628C291.368 137.112 291.461 137.7 291.461 138.393V138.92H285.391V137.806H290.005C290.005 137.415 289.925 137.069 289.766 136.767C289.607 136.462 289.383 136.222 289.095 136.046C288.81 135.871 288.475 135.783 288.091 135.783C287.673 135.783 287.308 135.886 286.997 136.091C286.689 136.293 286.45 136.559 286.281 136.887C286.115 137.211 286.032 137.564 286.032 137.946V138.816C286.032 139.326 286.122 139.76 286.301 140.118C286.483 140.476 286.737 140.75 287.061 140.938C287.386 141.124 287.766 141.217 288.2 141.217C288.482 141.217 288.739 141.177 288.971 141.098C289.203 141.015 289.403 140.892 289.572 140.73C289.741 140.567 289.87 140.367 289.96 140.128L291.367 140.382C291.254 140.796 291.052 141.159 290.76 141.47C290.472 141.779 290.109 142.019 289.672 142.191C289.237 142.36 288.742 142.445 288.185 142.445ZM295.333 142.46C294.849 142.46 294.412 142.37 294.02 142.191C293.629 142.009 293.319 141.746 293.091 141.401C292.865 141.056 292.753 140.634 292.753 140.133C292.753 139.702 292.836 139.348 293.001 139.069C293.167 138.791 293.391 138.57 293.672 138.408C293.954 138.246 294.269 138.123 294.617 138.04C294.965 137.957 295.32 137.894 295.681 137.851C296.138 137.798 296.51 137.755 296.795 137.722C297.08 137.685 297.287 137.627 297.416 137.548C297.545 137.468 297.61 137.339 297.61 137.16V137.125C297.61 136.691 297.487 136.355 297.242 136.116C297 135.877 296.639 135.758 296.158 135.758C295.658 135.758 295.263 135.869 294.975 136.091C294.69 136.31 294.493 136.554 294.383 136.822L292.986 136.504C293.152 136.04 293.394 135.665 293.712 135.38C294.034 135.092 294.403 134.883 294.821 134.754C295.238 134.621 295.678 134.555 296.138 134.555C296.443 134.555 296.766 134.591 297.108 134.664C297.452 134.734 297.774 134.863 298.072 135.052C298.374 135.241 298.621 135.511 298.813 135.863C299.005 136.211 299.101 136.663 299.101 137.22V142.291H297.65V141.247H297.59C297.494 141.439 297.35 141.628 297.157 141.813C296.965 141.999 296.718 142.153 296.417 142.276C296.115 142.398 295.754 142.46 295.333 142.46ZM295.656 141.267C296.067 141.267 296.418 141.185 296.71 141.023C297.005 140.861 297.229 140.648 297.381 140.387C297.537 140.122 297.615 139.838 297.615 139.537V138.552C297.562 138.605 297.459 138.655 297.307 138.701C297.157 138.744 296.987 138.782 296.795 138.816C296.602 138.845 296.415 138.874 296.233 138.9C296.05 138.923 295.898 138.943 295.775 138.96C295.487 138.996 295.224 139.058 294.985 139.144C294.75 139.23 294.561 139.354 294.418 139.517C294.279 139.676 294.209 139.888 294.209 140.153C294.209 140.521 294.345 140.799 294.617 140.988C294.889 141.174 295.235 141.267 295.656 141.267ZM304.646 134.654V135.848H300.475V134.654H304.646ZM301.593 132.825H303.08V140.049C303.08 140.337 303.123 140.554 303.209 140.7C303.295 140.842 303.406 140.94 303.542 140.993C303.681 141.043 303.832 141.068 303.995 141.068C304.114 141.068 304.218 141.059 304.308 141.043C304.397 141.026 304.467 141.013 304.517 141.003L304.785 142.231C304.699 142.264 304.576 142.297 304.417 142.331C304.258 142.367 304.059 142.387 303.821 142.39C303.43 142.397 303.065 142.327 302.727 142.181C302.389 142.036 302.115 141.81 301.907 141.505C301.698 141.2 301.593 140.818 301.593 140.357V132.825ZM309.499 142.445C308.747 142.445 308.099 142.284 307.556 141.963C307.015 141.638 306.598 141.182 306.303 140.595C306.011 140.005 305.865 139.314 305.865 138.522C305.865 137.74 306.011 137.051 306.303 136.454C306.598 135.858 307.009 135.392 307.536 135.057C308.066 134.722 308.686 134.555 309.395 134.555C309.826 134.555 310.244 134.626 310.648 134.769C311.052 134.911 311.415 135.135 311.737 135.44C312.058 135.745 312.312 136.141 312.497 136.628C312.683 137.112 312.776 137.7 312.776 138.393V138.92H306.705V137.806H311.319C311.319 137.415 311.24 137.069 311.08 136.767C310.921 136.462 310.698 136.222 310.409 136.046C310.124 135.871 309.789 135.783 309.405 135.783C308.987 135.783 308.623 135.886 308.311 136.091C308.003 136.293 307.764 136.559 307.595 136.887C307.43 137.211 307.347 137.564 307.347 137.946V138.816C307.347 139.326 307.436 139.76 307.615 140.118C307.798 140.476 308.051 140.75 308.376 140.938C308.701 141.124 309.08 141.217 309.514 141.217C309.796 141.217 310.053 141.177 310.285 141.098C310.517 141.015 310.718 140.892 310.887 140.73C311.056 140.567 311.185 140.367 311.274 140.128L312.681 140.382C312.569 140.796 312.366 141.159 312.075 141.47C311.786 141.779 311.423 142.019 310.986 142.191C310.552 142.36 310.056 142.445 309.499 142.445ZM326.468 132.109V142.291H325.056L319.88 134.823H319.786V142.291H318.249V132.109H319.671L324.852 139.586H324.946V132.109H326.468ZM331.88 142.445C331.128 142.445 330.48 142.284 329.936 141.963C329.396 141.638 328.979 141.182 328.684 140.595C328.392 140.005 328.246 139.314 328.246 138.522C328.246 137.74 328.392 137.051 328.684 136.454C328.979 135.858 329.39 135.392 329.917 135.057C330.447 134.722 331.067 134.555 331.776 134.555C332.207 134.555 332.624 134.626 333.029 134.769C333.433 134.911 333.796 135.135 334.118 135.44C334.439 135.745 334.693 136.141 334.878 136.628C335.064 137.112 335.157 137.7 335.157 138.393V138.92H329.086V137.806H333.7C333.7 137.415 333.62 137.069 333.461 136.767C333.302 136.462 333.078 136.222 332.79 136.046C332.505 135.871 332.17 135.783 331.786 135.783C331.368 135.783 331.004 135.886 330.692 136.091C330.384 136.293 330.145 136.559 329.976 136.887C329.81 137.211 329.728 137.564 329.728 137.946V138.816C329.728 139.326 329.817 139.76 329.996 140.118C330.178 140.476 330.432 140.75 330.757 140.938C331.082 141.124 331.461 141.217 331.895 141.217C332.177 141.217 332.434 141.177 332.666 141.098C332.898 141.015 333.098 140.892 333.267 140.73C333.436 140.567 333.566 140.367 333.655 140.128L335.062 140.382C334.949 140.796 334.747 141.159 334.456 141.47C334.167 141.779 333.804 142.019 333.367 142.191C332.933 142.36 332.437 142.445 331.88 142.445ZM338.448 142.291L336.201 134.654H337.737L339.233 140.262H339.308L340.809 134.654H342.346L343.837 140.238H343.912L345.398 134.654H346.934L344.692 142.291H343.176L341.625 136.777H341.51L339.959 142.291H338.448Z" fill="#3F4346"/>
<path d="M255.921 174.264C256.232 173.653 255.98 172.91 255.358 172.604C254.736 172.298 253.979 172.546 253.668 173.157L251.399 177.616L248.553 174.12C247.921 173.344 246.684 173.473 246.232 174.362L244.454 177.856L241.799 178.725C241.139 178.941 240.783 179.642 241.003 180.291C241.223 180.939 241.936 181.29 242.596 181.074L245.696 180.058C246.044 179.944 246.333 179.699 246.497 179.376L247.693 177.026L250.539 180.522C251.17 181.297 252.408 181.169 252.86 180.28L255.921 174.264Z" fill="#505159"/>
<path fill-rule="evenodd" clip-rule="evenodd" d="M245.981 165.245C247.54 164.361 249.46 164.361 251.019 165.245L257.98 169.192C259.539 170.077 260.5 171.711 260.5 173.48V181.374C260.5 183.143 259.539 184.777 257.98 185.662L251.019 189.609C249.46 190.493 247.54 190.493 245.981 189.609L239.02 185.662C237.461 184.777 236.5 183.143 236.5 181.374V173.48C236.5 171.711 237.461 170.077 239.02 169.192L245.981 165.245ZM249.759 167.388L256.721 171.336C257.5 171.779 257.981 172.596 257.981 173.48V181.374C257.981 182.258 257.5 183.076 256.721 183.518L249.759 187.466C248.98 187.908 248.02 187.908 247.241 187.466L240.279 183.518C239.5 183.076 239.019 182.258 239.019 181.374V173.48C239.019 172.596 239.5 171.779 240.279 171.336L247.241 167.388C248.02 166.946 248.98 166.946 249.759 167.388Z" fill="#505159"/>
<path d="M271.155 172.745V182.927H269.619V172.745H271.155ZM276.837 175.291V176.484H272.666V175.291H276.837ZM273.785 173.461H275.271V180.685C275.271 180.973 275.314 181.19 275.401 181.336C275.487 181.479 275.598 181.576 275.734 181.629C275.873 181.679 276.024 181.704 276.186 181.704C276.305 181.704 276.41 181.696 276.499 181.679C276.589 181.663 276.658 181.649 276.708 181.639L276.977 182.867C276.89 182.9 276.768 182.934 276.609 182.967C276.45 183.003 276.251 183.023 276.012 183.026C275.621 183.033 275.256 182.963 274.918 182.818C274.58 182.672 274.307 182.446 274.098 182.141C273.889 181.837 273.785 181.454 273.785 180.993V173.461ZM281.691 183.081C280.939 183.081 280.291 182.92 279.747 182.599C279.207 182.274 278.789 181.818 278.494 181.232C278.202 180.642 278.057 179.951 278.057 179.159C278.057 178.376 278.202 177.687 278.494 177.09C278.789 176.494 279.2 176.028 279.727 175.693C280.257 175.359 280.877 175.191 281.586 175.191C282.017 175.191 282.435 175.262 282.839 175.405C283.244 175.548 283.607 175.771 283.928 176.076C284.25 176.381 284.503 176.777 284.689 177.264C284.874 177.748 284.967 178.337 284.967 179.029V179.556H278.897V178.443H283.51C283.51 178.052 283.431 177.705 283.272 177.404C283.113 177.099 282.889 176.858 282.601 176.683C282.316 176.507 281.981 176.419 281.596 176.419C281.179 176.419 280.814 176.522 280.503 176.727C280.194 176.93 279.956 177.195 279.787 177.523C279.621 177.848 279.538 178.201 279.538 178.582V179.452C279.538 179.962 279.628 180.396 279.807 180.754C279.989 181.112 280.242 181.386 280.567 181.575C280.892 181.76 281.272 181.853 281.706 181.853C281.988 181.853 282.244 181.813 282.476 181.734C282.708 181.651 282.909 181.528 283.078 181.366C283.247 181.204 283.376 181.003 283.466 180.764L284.873 181.018C284.76 181.432 284.558 181.795 284.266 182.107C283.978 182.415 283.615 182.655 283.177 182.828C282.743 182.997 282.248 183.081 281.691 183.081ZM286.616 182.927V175.291H288.043V176.534H288.138C288.297 176.113 288.557 175.784 288.918 175.549C289.28 175.311 289.712 175.191 290.216 175.191C290.726 175.191 291.154 175.311 291.499 175.549C291.847 175.788 292.103 176.116 292.269 176.534H292.349C292.531 176.126 292.821 175.801 293.219 175.559C293.616 175.314 294.09 175.191 294.641 175.191C295.333 175.191 295.898 175.408 296.336 175.842C296.777 176.277 296.997 176.931 296.997 177.806V182.927H295.511V177.945C295.511 177.428 295.37 177.054 295.088 176.822C294.806 176.59 294.47 176.474 294.079 176.474C293.595 176.474 293.219 176.623 292.95 176.921C292.682 177.216 292.548 177.596 292.548 178.06V182.927H291.066V177.851C291.066 177.437 290.937 177.104 290.678 176.852C290.42 176.6 290.083 176.474 289.669 176.474C289.387 176.474 289.127 176.548 288.888 176.698C288.653 176.843 288.463 177.047 288.317 177.309C288.174 177.571 288.103 177.874 288.103 178.219V182.927H286.616ZM303.489 177.98V179.268H298.975V177.98H303.489ZM307.009 182.927L304.185 172.745H305.801L307.784 180.63H307.879L309.942 172.745H311.543L313.606 180.635H313.7L315.679 172.745H317.3L314.471 182.927H312.925L310.782 175.301H310.703L308.56 182.927H307.009ZM318.581 182.927V175.291H320.068V182.927H318.581ZM319.332 174.112C319.074 174.112 318.851 174.026 318.666 173.854C318.484 173.678 318.392 173.469 318.392 173.227C318.392 172.982 318.484 172.773 318.666 172.601C318.851 172.425 319.074 172.338 319.332 172.338C319.591 172.338 319.811 172.425 319.993 172.601C320.179 172.773 320.272 172.982 320.272 173.227C320.272 173.469 320.179 173.678 319.993 173.854C319.811 174.026 319.591 174.112 319.332 174.112ZM327.79 177.155L326.443 177.394C326.386 177.221 326.297 177.057 326.174 176.901C326.055 176.746 325.892 176.618 325.687 176.519C325.481 176.419 325.225 176.369 324.916 176.369C324.495 176.369 324.144 176.464 323.862 176.653C323.581 176.838 323.44 177.079 323.44 177.374C323.44 177.629 323.534 177.834 323.723 177.99C323.912 178.146 324.217 178.274 324.638 178.373L325.851 178.651C326.554 178.814 327.077 179.064 327.422 179.402C327.767 179.74 327.939 180.179 327.939 180.72C327.939 181.177 327.807 181.585 327.541 181.943C327.28 182.297 326.913 182.576 326.443 182.778C325.975 182.98 325.433 183.081 324.817 183.081C323.962 183.081 323.264 182.899 322.724 182.534C322.184 182.166 321.852 181.644 321.73 180.968L323.166 180.749C323.256 181.124 323.44 181.407 323.718 181.6C323.997 181.789 324.36 181.883 324.807 181.883C325.294 181.883 325.684 181.782 325.975 181.58C326.267 181.374 326.413 181.124 326.413 180.829C326.413 180.59 326.323 180.39 326.144 180.227C325.969 180.065 325.699 179.942 325.334 179.86L324.041 179.576C323.329 179.414 322.802 179.155 322.46 178.801C322.122 178.446 321.953 177.997 321.953 177.453C321.953 177.003 322.079 176.608 322.331 176.27C322.583 175.932 322.931 175.668 323.375 175.48C323.819 175.287 324.328 175.191 324.901 175.191C325.727 175.191 326.376 175.37 326.85 175.728C327.324 176.083 327.637 176.558 327.79 177.155ZM332.865 183.081C332.112 183.081 331.464 182.92 330.921 182.599C330.381 182.274 329.963 181.818 329.668 181.232C329.376 180.642 329.23 179.951 329.23 179.159C329.23 178.376 329.376 177.687 329.668 177.09C329.963 176.494 330.374 176.028 330.901 175.693C331.431 175.359 332.051 175.191 332.76 175.191C333.191 175.191 333.609 175.262 334.013 175.405C334.417 175.548 334.78 175.771 335.102 176.076C335.423 176.381 335.677 176.777 335.863 177.264C336.048 177.748 336.141 178.337 336.141 179.029V179.556H330.071V178.443H334.684C334.684 178.052 334.605 177.705 334.446 177.404C334.287 177.099 334.063 176.858 333.775 176.683C333.489 176.507 333.155 176.419 332.77 176.419C332.353 176.419 331.988 176.522 331.676 176.727C331.368 176.93 331.13 177.195 330.961 177.523C330.795 177.848 330.712 178.201 330.712 178.582V179.452C330.712 179.962 330.801 180.396 330.98 180.754C331.163 181.112 331.416 181.386 331.741 181.575C332.066 181.76 332.445 181.853 332.88 181.853C333.161 181.853 333.418 181.813 333.65 181.734C333.882 181.651 334.083 181.528 334.252 181.366C334.421 181.204 334.55 181.003 334.64 180.764L336.047 181.018C335.934 181.432 335.732 181.795 335.44 182.107C335.152 182.415 334.789 182.655 334.351 182.828C333.917 182.997 333.422 183.081 332.865 183.081Z" fill="#3F4346"/>
<path fill-rule="evenodd" clip-rule="evenodd" d="M236.5 209.488C236.5 207.712 237.965 206.272 239.773 206.272H248.5C250.308 206.272 251.773 207.712 251.773 209.488V209.564C252.129 209.514 252.493 209.488 252.864 209.488C257.081 209.488 260.5 212.847 260.5 216.991C260.5 220.738 257.705 223.843 254.052 224.404L254.695 225.498C255.832 227.434 254.41 229.854 252.135 229.854H241.64C239.365 229.854 237.943 227.434 239.081 225.498L241.56 221.279H239.773C237.965 221.279 236.5 219.839 236.5 218.063V209.488ZM251.517 224.378C248.581 223.865 246.225 221.703 245.477 218.9L240.97 226.57C240.672 227.077 241.044 227.71 241.64 227.71H252.135C252.731 227.71 253.103 227.077 252.805 226.57L251.517 224.378ZM245.374 215.522C245.849 213.169 247.444 211.212 249.591 210.21V209.488C249.591 208.896 249.103 208.416 248.5 208.416H239.773C239.17 208.416 238.682 208.896 238.682 209.488V218.063C238.682 218.655 239.17 219.135 239.773 219.135H242.819L244.328 216.567C244.594 216.115 244.958 215.765 245.374 215.522ZM247.409 216.991C247.409 214.031 249.851 211.632 252.864 211.632C255.876 211.632 258.318 214.031 258.318 216.991C258.318 219.951 255.876 222.351 252.864 222.351C249.851 222.351 247.409 219.951 247.409 216.991Z" fill="#505159"/>
<path d="M276.509 216.598C276.413 216.296 276.284 216.026 276.121 215.788C275.962 215.546 275.772 215.34 275.55 215.171C275.328 214.999 275.074 214.868 274.789 214.778C274.507 214.689 274.197 214.644 273.859 214.644C273.286 214.644 272.769 214.792 272.308 215.087C271.848 215.382 271.483 215.814 271.214 216.384C270.949 216.951 270.817 217.645 270.817 218.467C270.817 219.293 270.951 219.99 271.219 220.56C271.488 221.13 271.856 221.563 272.323 221.858C272.79 222.153 273.322 222.3 273.919 222.3C274.473 222.3 274.955 222.188 275.366 221.962C275.78 221.737 276.1 221.419 276.325 221.008C276.554 220.594 276.668 220.106 276.668 219.546L277.066 219.621H274.153V218.353H278.155V219.511C278.155 220.366 277.973 221.109 277.608 221.739C277.247 222.365 276.746 222.849 276.107 223.19C275.47 223.532 274.741 223.702 273.919 223.702C272.998 223.702 272.189 223.49 271.493 223.066C270.8 222.642 270.26 222.04 269.872 221.261C269.484 220.479 269.29 219.551 269.29 218.477C269.29 217.665 269.403 216.936 269.629 216.29C269.854 215.643 270.17 215.095 270.578 214.644C270.989 214.19 271.471 213.844 272.025 213.605C272.582 213.363 273.19 213.242 273.849 213.242C274.4 213.242 274.912 213.323 275.386 213.486C275.863 213.648 276.287 213.879 276.658 214.177C277.033 214.475 277.343 214.83 277.588 215.241C277.833 215.648 277.999 216.101 278.085 216.598H276.509ZM279.986 223.563V215.927H281.422V217.14H281.502C281.641 216.729 281.886 216.406 282.238 216.17C282.592 215.932 282.993 215.813 283.441 215.813C283.534 215.813 283.643 215.816 283.769 215.822C283.898 215.829 283.999 215.837 284.072 215.847V217.269C284.013 217.253 283.907 217.234 283.754 217.215C283.602 217.191 283.449 217.18 283.297 217.18C282.945 217.18 282.632 217.254 282.357 217.403C282.085 217.549 281.87 217.753 281.711 218.015C281.552 218.273 281.472 218.568 281.472 218.9V223.563H279.986ZM288.302 223.717C287.586 223.717 286.961 223.553 286.428 223.225C285.894 222.897 285.48 222.438 285.185 221.848C284.89 221.258 284.742 220.569 284.742 219.78C284.742 218.988 284.89 218.295 285.185 217.702C285.48 217.108 285.894 216.648 286.428 216.32C286.961 215.991 287.586 215.827 288.302 215.827C289.018 215.827 289.643 215.991 290.176 216.32C290.71 216.648 291.124 217.108 291.419 217.702C291.714 218.295 291.862 218.988 291.862 219.78C291.862 220.569 291.714 221.258 291.419 221.848C291.124 222.438 290.71 222.897 290.176 223.225C289.643 223.553 289.018 223.717 288.302 223.717ZM288.307 222.469C288.771 222.469 289.155 222.347 289.46 222.102C289.765 221.856 289.991 221.53 290.136 221.122C290.286 220.715 290.36 220.265 290.36 219.775C290.36 219.288 290.286 218.84 290.136 218.433C289.991 218.022 289.765 217.692 289.46 217.443C289.155 217.195 288.771 217.07 288.307 217.07C287.839 217.07 287.452 217.195 287.143 217.443C286.839 217.692 286.612 218.022 286.462 218.433C286.317 218.84 286.244 219.288 286.244 219.775C286.244 220.265 286.317 220.715 286.462 221.122C286.612 221.53 286.839 221.856 287.143 222.102C287.452 222.347 287.839 222.469 288.307 222.469ZM298.358 220.396V215.927H299.85V223.563H298.388V222.241H298.308C298.133 222.648 297.851 222.988 297.463 223.26C297.079 223.528 296.6 223.663 296.026 223.663C295.536 223.663 295.102 223.555 294.724 223.34C294.349 223.121 294.054 222.798 293.839 222.37C293.627 221.942 293.521 221.414 293.521 220.784V215.927H295.007V220.605C295.007 221.125 295.151 221.54 295.44 221.848C295.728 222.156 296.103 222.31 296.563 222.31C296.842 222.31 297.119 222.241 297.394 222.102C297.672 221.962 297.902 221.752 298.085 221.47C298.27 221.188 298.361 220.831 298.358 220.396ZM301.847 226.427V215.927H303.299V217.165H303.423C303.509 217.006 303.633 216.822 303.796 216.613C303.958 216.404 304.184 216.222 304.472 216.066C304.76 215.907 305.141 215.827 305.615 215.827C306.232 215.827 306.782 215.983 307.266 216.295C307.75 216.606 308.129 217.055 308.404 217.642C308.683 218.229 308.822 218.935 308.822 219.76C308.822 220.585 308.685 221.293 308.409 221.883C308.134 222.469 307.757 222.922 307.276 223.24C306.795 223.555 306.247 223.712 305.63 223.712C305.166 223.712 304.787 223.634 304.492 223.479C304.2 223.323 303.971 223.141 303.806 222.932C303.64 222.723 303.512 222.537 303.423 222.375H303.333V226.427H301.847ZM303.304 219.745C303.304 220.282 303.382 220.753 303.537 221.157C303.693 221.561 303.918 221.878 304.213 222.107C304.508 222.332 304.87 222.445 305.297 222.445C305.741 222.445 306.113 222.327 306.411 222.092C306.709 221.853 306.935 221.53 307.087 221.122C307.243 220.715 307.321 220.255 307.321 219.745C307.321 219.241 307.244 218.789 307.092 218.388C306.943 217.987 306.717 217.67 306.416 217.438C306.118 217.206 305.745 217.09 305.297 217.09C304.866 217.09 304.502 217.201 304.203 217.423C303.908 217.645 303.685 217.955 303.532 218.353C303.38 218.751 303.304 219.215 303.304 219.745ZM314.987 218.616V219.904H310.473V218.616H314.987ZM318.507 223.563L315.683 213.381H317.299L319.282 221.266H319.377L321.44 213.381H323.041L325.104 221.271H325.199L327.177 213.381H328.798L325.969 223.563H324.423L322.28 215.937H322.201L320.058 223.563H318.507ZM330.079 223.563V215.927H331.566V223.563H330.079ZM330.83 214.749C330.572 214.749 330.349 214.662 330.164 214.49C329.982 214.314 329.89 214.106 329.89 213.864C329.89 213.618 329.982 213.41 330.164 213.237C330.349 213.062 330.572 212.974 330.83 212.974C331.089 212.974 331.309 213.062 331.491 213.237C331.677 213.41 331.77 213.618 331.77 213.864C331.77 214.106 331.677 214.314 331.491 214.49C331.309 214.662 331.089 214.749 330.83 214.749ZM339.288 217.791L337.941 218.03C337.884 217.858 337.795 217.693 337.672 217.538C337.553 217.382 337.391 217.254 337.185 217.155C336.98 217.055 336.723 217.006 336.414 217.006C335.993 217.006 335.642 217.1 335.36 217.289C335.079 217.475 334.938 217.715 334.938 218.01C334.938 218.265 335.032 218.471 335.221 218.626C335.41 218.782 335.715 218.91 336.136 219.009L337.349 219.288C338.052 219.45 338.575 219.7 338.92 220.038C339.265 220.376 339.437 220.816 339.437 221.356C339.437 221.813 339.305 222.221 339.039 222.579C338.778 222.933 338.411 223.212 337.941 223.414C337.473 223.616 336.931 223.717 336.315 223.717C335.46 223.717 334.762 223.535 334.222 223.17C333.682 222.803 333.35 222.281 333.228 221.604L334.664 221.386C334.754 221.76 334.938 222.044 335.216 222.236C335.495 222.425 335.858 222.519 336.305 222.519C336.792 222.519 337.182 222.418 337.473 222.216C337.765 222.01 337.911 221.76 337.911 221.465C337.911 221.227 337.821 221.026 337.642 220.864C337.467 220.701 337.197 220.579 336.832 220.496L335.539 220.212C334.827 220.05 334.3 219.791 333.958 219.437C333.62 219.082 333.451 218.633 333.451 218.09C333.451 217.639 333.577 217.244 333.829 216.906C334.081 216.568 334.429 216.305 334.873 216.116C335.317 215.924 335.826 215.827 336.4 215.827C337.225 215.827 337.874 216.006 338.348 216.364C338.822 216.719 339.136 217.195 339.288 217.791ZM344.363 223.717C343.61 223.717 342.962 223.557 342.419 223.235C341.879 222.91 341.461 222.455 341.166 221.868C340.874 221.278 340.729 220.587 340.729 219.795C340.729 219.013 340.874 218.323 341.166 217.727C341.461 217.13 341.872 216.664 342.399 216.33C342.929 215.995 343.549 215.827 344.258 215.827C344.689 215.827 345.107 215.899 345.511 216.041C345.916 216.184 346.278 216.407 346.6 216.712C346.921 217.017 347.175 217.413 347.361 217.901C347.546 218.384 347.639 218.973 347.639 219.666V220.192H341.569V219.079H346.182C346.182 218.688 346.103 218.341 345.944 218.04C345.785 217.735 345.561 217.495 345.273 217.319C344.988 217.143 344.653 217.055 344.268 217.055C343.851 217.055 343.486 217.158 343.175 217.364C342.866 217.566 342.628 217.831 342.459 218.159C342.293 218.484 342.21 218.837 342.21 219.218V220.088C342.21 220.599 342.3 221.033 342.479 221.391C342.661 221.749 342.914 222.022 343.239 222.211C343.564 222.397 343.943 222.489 344.378 222.489C344.659 222.489 344.916 222.45 345.148 222.37C345.38 222.287 345.581 222.165 345.75 222.002C345.919 221.84 346.048 221.639 346.138 221.401L347.545 221.654C347.432 222.068 347.23 222.431 346.938 222.743C346.65 223.051 346.287 223.291 345.849 223.464C345.415 223.633 344.92 223.717 344.363 223.717Z" fill="#3F4346"/>
<path fill-rule="evenodd" clip-rule="evenodd" d="M247.038 246.17C247.969 245.749 249.031 245.749 249.962 246.17L259.787 250.621C260.221 250.817 260.5 251.255 260.5 251.739C260.5 252.222 260.221 252.66 259.787 252.856L255.505 254.796L259.787 256.736C260.221 256.933 260.5 257.371 260.5 257.854C260.5 258.337 260.221 258.775 259.787 258.972L255.505 260.912L259.787 262.852C260.221 263.048 260.5 263.486 260.5 263.969C260.5 264.453 260.221 264.891 259.787 265.087L249.962 269.538C249.031 269.959 247.969 269.959 247.038 269.538L237.213 265.087C236.779 264.891 236.5 264.453 236.5 263.969C236.5 263.486 236.779 263.048 237.213 262.852L241.495 260.912L237.213 258.972C236.779 258.775 236.5 258.337 236.5 257.854C236.5 257.371 236.779 256.933 237.213 256.736L241.495 254.796L237.213 252.856C236.779 252.66 236.5 252.222 236.5 251.739C236.5 251.255 236.779 250.817 237.213 250.621L247.038 246.17ZM244.45 256.135L240.655 257.854L248.013 261.187C248.323 261.328 248.677 261.328 248.987 261.187L256.345 257.854L252.55 256.135L249.962 257.307C249.031 257.729 247.969 257.729 247.038 257.307L244.45 256.135ZM244.45 262.25L240.655 263.969L248.013 267.302C248.323 267.443 248.677 267.443 248.987 267.302L256.345 263.969L252.55 262.25L249.962 263.422C249.031 263.844 247.969 263.844 247.038 263.422L244.45 262.25ZM248.987 248.406C248.677 248.265 248.323 248.265 248.013 248.406L240.655 251.739L248.013 255.072C248.323 255.212 248.677 255.212 248.987 255.072L256.345 251.739L248.987 248.406Z" fill="#505159"/>
<path d="M270.509 253.172L273.342 261.465H273.457L276.29 253.172H277.951L274.287 263.354H272.512L268.848 253.172H270.509ZM280.772 263.523C280.288 263.523 279.851 263.434 279.46 263.255C279.069 263.072 278.759 262.809 278.53 262.464C278.305 262.119 278.192 261.697 278.192 261.196C278.192 260.765 278.275 260.411 278.441 260.132C278.606 259.854 278.83 259.634 279.112 259.471C279.394 259.309 279.708 259.186 280.056 259.103C280.404 259.02 280.759 258.957 281.12 258.914C281.578 258.861 281.949 258.818 282.234 258.785C282.519 258.749 282.726 258.691 282.855 258.611C282.985 258.532 283.049 258.402 283.049 258.223V258.189C283.049 257.754 282.927 257.418 282.681 257.179C282.44 256.941 282.078 256.821 281.598 256.821C281.097 256.821 280.703 256.932 280.414 257.154C280.129 257.373 279.932 257.617 279.823 257.885L278.426 257.567C278.592 257.103 278.833 256.729 279.152 256.443C279.473 256.155 279.843 255.946 280.26 255.817C280.678 255.684 281.117 255.618 281.578 255.618C281.883 255.618 282.206 255.655 282.547 255.728C282.892 255.797 283.213 255.926 283.512 256.115C283.813 256.304 284.06 256.574 284.252 256.926C284.445 257.274 284.541 257.726 284.541 258.283V263.354H283.089V262.31H283.029C282.933 262.502 282.789 262.691 282.597 262.877C282.405 263.062 282.158 263.216 281.856 263.339C281.555 263.462 281.193 263.523 280.772 263.523ZM281.096 262.33C281.507 262.33 281.858 262.249 282.15 262.086C282.444 261.924 282.668 261.712 282.821 261.45C282.976 261.185 283.054 260.901 283.054 260.6V259.615C283.001 259.668 282.899 259.718 282.746 259.765C282.597 259.808 282.426 259.846 282.234 259.879C282.042 259.909 281.855 259.937 281.672 259.963C281.49 259.987 281.337 260.006 281.215 260.023C280.926 260.059 280.663 260.121 280.424 260.207C280.189 260.293 280 260.417 279.858 260.58C279.718 260.739 279.649 260.951 279.649 261.216C279.649 261.584 279.785 261.863 280.056 262.051C280.328 262.237 280.675 262.33 281.096 262.33ZM286.521 263.354V255.718H287.958V256.931H288.037C288.176 256.52 288.422 256.197 288.773 255.961C289.128 255.723 289.529 255.603 289.976 255.603C290.069 255.603 290.178 255.607 290.304 255.613C290.433 255.62 290.535 255.628 290.607 255.638V257.06C290.548 257.043 290.442 257.025 290.289 257.005C290.137 256.982 289.984 256.97 289.832 256.97C289.481 256.97 289.167 257.045 288.892 257.194C288.62 257.34 288.405 257.544 288.246 257.806C288.087 258.064 288.007 258.359 288.007 258.691V263.354H286.521ZM291.894 263.354V255.718H293.38V263.354H291.894ZM292.645 254.539C292.386 254.539 292.164 254.453 291.978 254.281C291.796 254.105 291.705 253.896 291.705 253.654C291.705 253.409 291.796 253.2 291.978 253.028C292.164 252.852 292.386 252.765 292.645 252.765C292.903 252.765 293.123 252.852 293.306 253.028C293.491 253.2 293.584 253.409 293.584 253.654C293.584 253.896 293.491 254.105 293.306 254.281C293.123 254.453 292.903 254.539 292.645 254.539ZM297.602 263.523C297.119 263.523 296.681 263.434 296.29 263.255C295.899 263.072 295.589 262.809 295.36 262.464C295.135 262.119 295.022 261.697 295.022 261.196C295.022 260.765 295.105 260.411 295.271 260.132C295.436 259.854 295.66 259.634 295.942 259.471C296.224 259.309 296.539 259.186 296.887 259.103C297.235 259.02 297.589 258.957 297.95 258.914C298.408 258.861 298.779 258.818 299.064 258.785C299.349 258.749 299.556 258.691 299.686 258.611C299.815 258.532 299.879 258.402 299.879 258.223V258.189C299.879 257.754 299.757 257.418 299.512 257.179C299.27 256.941 298.908 256.821 298.428 256.821C297.927 256.821 297.533 256.932 297.244 257.154C296.959 257.373 296.762 257.617 296.653 257.885L295.256 257.567C295.422 257.103 295.664 256.729 295.982 256.443C296.303 256.155 296.673 255.946 297.09 255.817C297.508 255.684 297.947 255.618 298.408 255.618C298.713 255.618 299.036 255.655 299.377 255.728C299.722 255.797 300.044 255.926 300.342 256.115C300.643 256.304 300.89 256.574 301.083 256.926C301.275 257.274 301.371 257.726 301.371 258.283V263.354H299.919V262.31H299.86C299.763 262.502 299.619 262.691 299.427 262.877C299.235 263.062 298.988 263.216 298.686 263.339C298.385 263.462 298.023 263.523 297.602 263.523ZM297.926 262.33C298.337 262.33 298.688 262.249 298.98 262.086C299.275 261.924 299.498 261.712 299.651 261.45C299.807 261.185 299.884 260.901 299.884 260.6V259.615C299.831 259.668 299.729 259.718 299.576 259.765C299.427 259.808 299.256 259.846 299.064 259.879C298.872 259.909 298.685 259.937 298.502 259.963C298.32 259.987 298.168 260.006 298.045 260.023C297.757 260.059 297.493 260.121 297.254 260.207C297.019 260.293 296.83 260.417 296.688 260.58C296.548 260.739 296.479 260.951 296.479 261.216C296.479 261.584 296.615 261.863 296.887 262.051C297.158 262.237 297.505 262.33 297.926 262.33ZM304.837 258.82V263.354H303.351V255.718H304.778V256.961H304.872C305.048 256.556 305.323 256.231 305.697 255.986C306.075 255.741 306.551 255.618 307.124 255.618C307.645 255.618 308.1 255.728 308.491 255.946C308.883 256.162 309.186 256.483 309.401 256.911C309.617 257.338 309.724 257.867 309.724 258.497V263.354H308.238V258.676C308.238 258.122 308.094 257.69 307.805 257.378C307.517 257.063 307.121 256.906 306.617 256.906C306.272 256.906 305.966 256.98 305.697 257.13C305.432 257.279 305.222 257.497 305.066 257.786C304.914 258.071 304.837 258.416 304.837 258.82ZM315.283 255.718V256.911H311.112V255.718H315.283ZM312.23 253.888H313.717V261.112C313.717 261.4 313.76 261.617 313.846 261.763C313.932 261.906 314.043 262.003 314.179 262.056C314.318 262.106 314.469 262.131 314.631 262.131C314.751 262.131 314.855 262.123 314.945 262.106C315.034 262.09 315.104 262.076 315.153 262.066L315.422 263.294C315.336 263.327 315.213 263.361 315.054 263.394C314.895 263.43 314.696 263.45 314.457 263.453C314.066 263.46 313.702 263.39 313.364 263.245C313.026 263.099 312.752 262.873 312.543 262.568C312.335 262.264 312.23 261.881 312.23 261.42V253.888ZM321.167 258.407V259.695H316.652V258.407H321.167ZM324.686 263.354L321.863 253.172H323.478L325.462 261.057H325.556L327.62 253.172H329.221L331.284 261.062H331.378L333.357 253.172H334.978L332.149 263.354H330.603L328.46 255.728H328.38L326.238 263.354H324.686ZM336.259 263.354V255.718H337.746V263.354H336.259ZM337.01 254.539C336.751 254.539 336.529 254.453 336.344 254.281C336.161 254.105 336.07 253.896 336.07 253.654C336.07 253.409 336.161 253.2 336.344 253.028C336.529 252.852 336.751 252.765 337.01 252.765C337.268 252.765 337.489 252.852 337.671 253.028C337.857 253.2 337.949 253.409 337.949 253.654C337.949 253.896 337.857 254.105 337.671 254.281C337.489 254.453 337.268 254.539 337.01 254.539ZM345.468 257.582L344.12 257.821C344.064 257.648 343.975 257.484 343.852 257.328C343.733 257.173 343.57 257.045 343.365 256.946C343.159 256.846 342.902 256.796 342.594 256.796C342.173 256.796 341.822 256.891 341.54 257.08C341.258 257.265 341.118 257.506 341.118 257.801C341.118 258.056 341.212 258.261 341.401 258.417C341.59 258.573 341.895 258.701 342.316 258.8L343.529 259.078C344.231 259.241 344.755 259.491 345.1 259.829C345.444 260.167 345.617 260.606 345.617 261.147C345.617 261.604 345.484 262.012 345.219 262.37C344.957 262.724 344.591 263.003 344.12 263.205C343.653 263.407 343.111 263.508 342.495 263.508C341.64 263.508 340.942 263.326 340.402 262.961C339.861 262.593 339.53 262.071 339.407 261.395L340.844 261.176C340.934 261.551 341.118 261.834 341.396 262.027C341.674 262.216 342.037 262.31 342.485 262.31C342.972 262.31 343.361 262.209 343.653 262.007C343.945 261.801 344.091 261.551 344.091 261.256C344.091 261.017 344.001 260.817 343.822 260.654C343.646 260.492 343.376 260.369 343.012 260.287L341.719 260.003C341.007 259.841 340.48 259.582 340.138 259.228C339.8 258.873 339.631 258.424 339.631 257.88C339.631 257.43 339.757 257.035 340.009 256.697C340.261 256.359 340.609 256.095 341.053 255.907C341.497 255.714 342.006 255.618 342.579 255.618C343.404 255.618 344.054 255.797 344.528 256.155C345.002 256.51 345.315 256.985 345.468 257.582ZM350.542 263.508C349.79 263.508 349.142 263.347 348.599 263.026C348.058 262.701 347.641 262.245 347.346 261.659C347.054 261.069 346.908 260.378 346.908 259.586C346.908 258.803 347.054 258.114 347.346 257.517C347.641 256.921 348.052 256.455 348.579 256.12C349.109 255.786 349.729 255.618 350.438 255.618C350.869 255.618 351.287 255.689 351.691 255.832C352.095 255.975 352.458 256.198 352.78 256.503C353.101 256.808 353.355 257.204 353.54 257.691C353.726 258.175 353.819 258.764 353.819 259.456V259.983H347.748V258.87H352.362C352.362 258.479 352.282 258.132 352.123 257.831C351.964 257.526 351.741 257.285 351.452 257.11C351.167 256.934 350.832 256.846 350.448 256.846C350.03 256.846 349.666 256.949 349.354 257.154C349.046 257.357 348.807 257.622 348.638 257.95C348.473 258.275 348.39 258.628 348.39 259.009V259.879C348.39 260.389 348.479 260.823 348.658 261.181C348.84 261.539 349.094 261.813 349.419 262.002C349.744 262.187 350.123 262.28 350.557 262.28C350.839 262.28 351.096 262.24 351.328 262.161C351.56 262.078 351.76 261.955 351.93 261.793C352.099 261.631 352.228 261.43 352.317 261.191L353.724 261.445C353.612 261.859 353.409 262.222 353.118 262.534C352.829 262.842 352.466 263.082 352.029 263.255C351.595 263.424 351.099 263.508 350.542 263.508Z" fill="#3F4346"/>
<path fill-rule="evenodd" clip-rule="evenodd" d="M256.681 286.962C257.135 286.826 257.626 286.998 257.891 287.385L260.317 290.939C260.649 291.425 260.517 292.084 260.022 292.41C259.527 292.736 258.857 292.606 258.525 292.12L258.073 291.458L258.073 302.815C258.073 306.327 255.175 309.174 251.6 309.174H247.285C246.689 309.174 246.206 308.7 246.206 308.115C246.206 307.529 246.689 307.055 247.285 307.055H251.6C253.983 307.055 255.915 305.156 255.915 302.815L255.916 287.976C255.916 287.509 256.227 287.097 256.681 286.962Z" fill="#505159"/>
<path fill-rule="evenodd" clip-rule="evenodd" d="M238.927 292.213C238.927 288.701 241.825 285.854 245.4 285.854L249.715 285.854C250.311 285.854 250.794 286.329 250.794 286.914C250.794 287.499 250.311 287.974 249.715 287.974H245.4C243.017 287.974 241.085 289.872 241.085 292.213L241.084 307.053C241.084 307.52 240.773 307.931 240.319 308.067C239.865 308.203 239.374 308.031 239.109 307.643L236.683 304.089C236.351 303.603 236.483 302.945 236.978 302.619C237.473 302.293 238.143 302.422 238.475 302.909L238.927 303.57L238.927 292.213Z" fill="#505159"/>
<path fill-rule="evenodd" clip-rule="evenodd" d="M248.638 291.313C249.145 291.313 249.555 291.716 249.555 292.214V293.101C250.577 293.247 251.376 294.104 251.376 295.158C251.376 295.656 250.965 296.059 250.459 296.059C249.952 296.059 249.542 295.656 249.542 295.158C249.542 295.016 249.42 294.881 249.245 294.881H248.031C247.522 294.881 247.128 295.279 247.128 295.747C247.128 296.214 247.522 296.612 248.031 296.612H249.245C250.746 296.612 251.982 297.796 251.982 299.28C251.982 300.66 250.913 301.781 249.555 301.931V302.813C249.555 303.311 249.145 303.714 248.638 303.714C248.132 303.714 247.721 303.311 247.721 302.813V301.948H247.425C246.259 301.948 245.294 301.027 245.294 299.869C245.294 299.371 245.705 298.968 246.211 298.968C246.717 298.968 247.128 299.371 247.128 299.869C247.128 300.011 247.25 300.146 247.425 300.146H249.245C249.755 300.146 250.149 299.748 250.149 299.28C250.149 298.813 249.755 298.414 249.245 298.414H248.031C246.53 298.414 245.294 297.231 245.294 295.747C245.294 294.367 246.364 293.246 247.721 293.096V292.214C247.721 291.716 248.132 291.313 248.638 291.313Z" fill="#505159"/>
<path d="M269.116 294.155V292.832H276.996V294.155H273.82V303.014H272.288V294.155H269.116ZM277.825 303.014V295.378H279.262V296.591H279.342C279.481 296.18 279.726 295.857 280.078 295.621C280.432 295.383 280.833 295.263 281.281 295.263C281.374 295.263 281.483 295.267 281.609 295.273C281.738 295.28 281.839 295.288 281.912 295.298V296.72C281.852 296.704 281.746 296.685 281.594 296.665C281.441 296.642 281.289 296.631 281.137 296.631C280.785 296.631 280.472 296.705 280.197 296.854C279.925 297 279.71 297.204 279.551 297.466C279.392 297.724 279.312 298.019 279.312 298.351V303.014H277.825ZM285.352 303.183C284.869 303.183 284.431 303.094 284.04 302.915C283.649 302.732 283.339 302.469 283.11 302.124C282.885 301.78 282.772 301.357 282.772 300.856C282.772 300.426 282.855 300.071 283.021 299.793C283.186 299.514 283.41 299.294 283.692 299.131C283.974 298.969 284.289 298.846 284.637 298.763C284.985 298.681 285.339 298.618 285.7 298.575C286.158 298.521 286.529 298.478 286.814 298.445C287.099 298.409 287.306 298.351 287.436 298.271C287.565 298.192 287.629 298.062 287.629 297.883V297.849C287.629 297.414 287.507 297.078 287.262 296.839C287.02 296.601 286.658 296.481 286.178 296.481C285.677 296.481 285.283 296.593 284.994 296.815C284.709 297.033 284.512 297.277 284.403 297.545L283.006 297.227C283.172 296.763 283.414 296.389 283.732 296.104C284.053 295.815 284.423 295.606 284.84 295.477C285.258 295.345 285.697 295.278 286.158 295.278C286.463 295.278 286.786 295.315 287.127 295.388C287.472 295.457 287.794 295.587 288.092 295.776C288.393 295.964 288.64 296.235 288.833 296.586C289.025 296.934 289.121 297.386 289.121 297.943V303.014H287.669V301.97H287.61C287.513 302.162 287.369 302.351 287.177 302.537C286.985 302.722 286.738 302.877 286.436 302.999C286.135 303.122 285.773 303.183 285.352 303.183ZM285.676 301.99C286.087 301.99 286.438 301.909 286.73 301.746C287.025 301.584 287.248 301.372 287.401 301.11C287.557 300.845 287.634 300.562 287.634 300.26V299.276C287.581 299.329 287.479 299.378 287.326 299.425C287.177 299.468 287.006 299.506 286.814 299.539C286.622 299.569 286.435 299.597 286.252 299.624C286.07 299.647 285.918 299.667 285.795 299.683C285.507 299.72 285.243 299.781 285.004 299.867C284.769 299.953 284.58 300.078 284.438 300.24C284.298 300.399 284.229 300.611 284.229 300.876C284.229 301.244 284.365 301.523 284.637 301.712C284.908 301.897 285.255 301.99 285.676 301.99ZM292.587 298.48V303.014H291.101V295.378H292.528V296.621H292.622C292.798 296.216 293.073 295.892 293.447 295.646C293.825 295.401 294.301 295.278 294.874 295.278C295.395 295.278 295.85 295.388 296.241 295.606C296.633 295.822 296.936 296.143 297.151 296.571C297.367 296.999 297.474 297.527 297.474 298.157V303.014H295.988V298.336C295.988 297.782 295.844 297.35 295.555 297.038C295.267 296.723 294.871 296.566 294.367 296.566C294.022 296.566 293.716 296.641 293.447 296.79C293.182 296.939 292.972 297.158 292.816 297.446C292.664 297.731 292.587 298.076 292.587 298.48ZM305.19 297.242L303.843 297.481C303.787 297.308 303.697 297.144 303.575 296.989C303.455 296.833 303.293 296.705 303.087 296.606C302.882 296.506 302.625 296.457 302.317 296.457C301.896 296.457 301.545 296.551 301.263 296.74C300.981 296.926 300.84 297.166 300.84 297.461C300.84 297.716 300.935 297.922 301.124 298.077C301.313 298.233 301.617 298.361 302.038 298.46L303.251 298.739C303.954 298.901 304.478 299.151 304.822 299.489C305.167 299.827 305.339 300.267 305.339 300.807C305.339 301.264 305.207 301.672 304.942 302.03C304.68 302.384 304.314 302.663 303.843 302.865C303.376 303.067 302.834 303.168 302.217 303.168C301.362 303.168 300.665 302.986 300.124 302.621C299.584 302.254 299.253 301.731 299.13 301.055L300.567 300.837C300.656 301.211 300.84 301.495 301.119 301.687C301.397 301.876 301.76 301.97 302.207 301.97C302.695 301.97 303.084 301.869 303.376 301.667C303.667 301.461 303.813 301.211 303.813 300.916C303.813 300.678 303.724 300.477 303.545 300.315C303.369 300.152 303.099 300.03 302.734 299.947L301.442 299.663C300.729 299.501 300.202 299.242 299.861 298.888C299.523 298.533 299.354 298.084 299.354 297.54C299.354 297.09 299.48 296.695 299.732 296.357C299.983 296.019 300.331 295.756 300.776 295.567C301.22 295.374 301.728 295.278 302.302 295.278C303.127 295.278 303.777 295.457 304.251 295.815C304.725 296.17 305.038 296.646 305.19 297.242ZM309.196 303.183C308.712 303.183 308.275 303.094 307.884 302.915C307.493 302.732 307.183 302.469 306.954 302.124C306.729 301.78 306.616 301.357 306.616 300.856C306.616 300.426 306.699 300.071 306.865 299.793C307.03 299.514 307.254 299.294 307.536 299.131C307.817 298.969 308.132 298.846 308.48 298.763C308.828 298.681 309.183 298.618 309.544 298.575C310.002 298.521 310.373 298.478 310.658 298.445C310.943 298.409 311.15 298.351 311.279 298.271C311.409 298.192 311.473 298.062 311.473 297.883V297.849C311.473 297.414 311.351 297.078 311.105 296.839C310.863 296.601 310.502 296.481 310.021 296.481C309.521 296.481 309.127 296.593 308.838 296.815C308.553 297.033 308.356 297.277 308.247 297.545L306.85 297.227C307.015 296.763 307.257 296.389 307.575 296.104C307.897 295.815 308.267 295.606 308.684 295.477C309.102 295.345 309.541 295.278 310.002 295.278C310.307 295.278 310.63 295.315 310.971 295.388C311.316 295.457 311.637 295.587 311.936 295.776C312.237 295.964 312.484 296.235 312.676 296.586C312.869 296.934 312.965 297.386 312.965 297.943V303.014H311.513V301.97H311.453C311.357 302.162 311.213 302.351 311.021 302.537C310.829 302.722 310.582 302.877 310.28 302.999C309.978 303.122 309.617 303.183 309.196 303.183ZM309.519 301.99C309.93 301.99 310.282 301.909 310.573 301.746C310.868 301.584 311.092 301.372 311.244 301.11C311.4 300.845 311.478 300.562 311.478 300.26V299.276C311.425 299.329 311.322 299.378 311.17 299.425C311.021 299.468 310.85 299.506 310.658 299.539C310.466 299.569 310.278 299.597 310.096 299.624C309.914 299.647 309.761 299.667 309.639 299.683C309.35 299.72 309.087 299.781 308.848 299.867C308.613 299.953 308.424 300.078 308.281 300.24C308.142 300.399 308.073 300.611 308.073 300.876C308.073 301.244 308.209 301.523 308.48 301.712C308.752 301.897 309.098 301.99 309.519 301.99ZM318.161 303.168C317.422 303.168 316.786 303.001 316.252 302.666C315.722 302.328 315.314 301.862 315.029 301.269C314.744 300.676 314.602 299.996 314.602 299.231C314.602 298.455 314.747 297.771 315.039 297.178C315.331 296.581 315.742 296.115 316.272 295.78C316.802 295.446 317.427 295.278 318.146 295.278C318.726 295.278 319.243 295.386 319.697 295.602C320.152 295.814 320.518 296.112 320.796 296.496C321.078 296.881 321.245 297.33 321.298 297.844H319.852C319.772 297.486 319.59 297.178 319.305 296.919C319.023 296.66 318.645 296.531 318.171 296.531C317.757 296.531 317.394 296.641 317.082 296.859C316.774 297.075 316.534 297.383 316.362 297.784C316.189 298.182 316.103 298.652 316.103 299.196C316.103 299.753 316.188 300.233 316.357 300.638C316.526 301.042 316.764 301.355 317.072 301.577C317.384 301.799 317.75 301.91 318.171 301.91C318.453 301.91 318.708 301.859 318.937 301.756C319.169 301.65 319.363 301.499 319.518 301.304C319.678 301.108 319.789 300.873 319.852 300.598H321.298C321.245 301.092 321.085 301.533 320.816 301.92C320.548 302.308 320.188 302.613 319.737 302.835C319.29 303.057 318.764 303.168 318.161 303.168ZM326.453 295.378V296.571H322.281V295.378H326.453ZM323.4 293.548H324.887V300.772C324.887 301.06 324.93 301.277 325.016 301.423C325.102 301.566 325.213 301.664 325.349 301.717C325.488 301.766 325.639 301.791 325.801 301.791C325.921 301.791 326.025 301.783 326.115 301.766C326.204 301.75 326.274 301.736 326.323 301.727L326.592 302.955C326.506 302.988 326.383 303.021 326.224 303.054C326.065 303.09 325.866 303.11 325.627 303.114C325.236 303.12 324.872 303.051 324.534 302.905C324.195 302.759 323.922 302.534 323.713 302.229C323.504 301.924 323.4 301.541 323.4 301.08V293.548ZM328.097 303.014V295.378H329.583V303.014H328.097ZM328.848 294.2C328.589 294.2 328.367 294.113 328.181 293.941C327.999 293.765 327.908 293.557 327.908 293.315C327.908 293.069 327.999 292.861 328.181 292.688C328.367 292.513 328.589 292.425 328.848 292.425C329.106 292.425 329.327 292.513 329.509 292.688C329.694 292.861 329.787 293.069 329.787 293.315C329.787 293.557 329.694 293.765 329.509 293.941C329.327 294.113 329.106 294.2 328.848 294.2ZM334.8 303.168C334.084 303.168 333.459 303.004 332.926 302.676C332.392 302.348 331.978 301.889 331.683 301.299C331.388 300.709 331.24 300.02 331.24 299.231C331.24 298.439 331.388 297.746 331.683 297.153C331.978 296.559 332.392 296.099 332.926 295.771C333.459 295.442 334.084 295.278 334.8 295.278C335.516 295.278 336.141 295.442 336.674 295.771C337.208 296.099 337.622 296.559 337.917 297.153C338.212 297.746 338.36 298.439 338.36 299.231C338.36 300.02 338.212 300.709 337.917 301.299C337.622 301.889 337.208 302.348 336.674 302.676C336.141 303.004 335.516 303.168 334.8 303.168ZM334.805 301.92C335.269 301.92 335.653 301.798 335.958 301.553C336.263 301.307 336.489 300.981 336.634 300.573C336.784 300.165 336.858 299.716 336.858 299.226C336.858 298.739 336.784 298.291 336.634 297.883C336.489 297.472 336.263 297.143 335.958 296.894C335.653 296.646 335.269 296.521 334.805 296.521C334.338 296.521 333.95 296.646 333.642 296.894C333.337 297.143 333.11 297.472 332.96 297.883C332.815 298.291 332.742 298.739 332.742 299.226C332.742 299.716 332.815 300.165 332.96 300.573C333.11 300.981 333.337 301.307 333.642 301.553C333.95 301.798 334.338 301.92 334.805 301.92ZM341.505 298.48V303.014H340.019V295.378H341.446V296.621H341.54C341.716 296.216 341.991 295.892 342.365 295.646C342.743 295.401 343.219 295.278 343.792 295.278C344.313 295.278 344.768 295.388 345.159 295.606C345.551 295.822 345.854 296.143 346.069 296.571C346.285 296.999 346.392 297.527 346.392 298.157V303.014H344.906V298.336C344.906 297.782 344.762 297.35 344.473 297.038C344.185 296.723 343.789 296.566 343.285 296.566C342.94 296.566 342.634 296.641 342.365 296.79C342.1 296.939 341.89 297.158 341.734 297.446C341.582 297.731 341.505 298.076 341.505 298.48ZM354.108 297.242L352.761 297.481C352.705 297.308 352.615 297.144 352.493 296.989C352.373 296.833 352.211 296.705 352.005 296.606C351.8 296.506 351.543 296.457 351.235 296.457C350.814 296.457 350.462 296.551 350.181 296.74C349.899 296.926 349.758 297.166 349.758 297.461C349.758 297.716 349.853 297.922 350.042 298.077C350.23 298.233 350.535 298.361 350.956 298.46L352.169 298.739C352.872 298.901 353.396 299.151 353.74 299.489C354.085 299.827 354.257 300.267 354.257 300.807C354.257 301.264 354.125 301.672 353.86 302.03C353.598 302.384 353.232 302.663 352.761 302.865C352.294 303.067 351.752 303.168 351.135 303.168C350.28 303.168 349.583 302.986 349.042 302.621C348.502 302.254 348.171 301.731 348.048 301.055L349.485 300.837C349.574 301.211 349.758 301.495 350.037 301.687C350.315 301.876 350.678 301.97 351.125 301.97C351.613 301.97 352.002 301.869 352.294 301.667C352.585 301.461 352.731 301.211 352.731 300.916C352.731 300.678 352.642 300.477 352.463 300.315C352.287 300.152 352.017 300.03 351.652 299.947L350.36 299.663C349.647 299.501 349.12 299.242 348.779 298.888C348.441 298.533 348.272 298.084 348.272 297.54C348.272 297.09 348.398 296.695 348.65 296.357C348.901 296.019 349.249 295.756 349.694 295.567C350.138 295.374 350.646 295.278 351.22 295.278C352.045 295.278 352.695 295.457 353.169 295.815C353.643 296.17 353.956 296.646 354.108 297.242Z" fill="#3F4346"/>
</g>
<defs>
<filter id="filter0_d_387_604" x="0.5" y="0" width="192" height="192" filterUnits="userSpaceOnUse" color-interpolation-filters="sRGB">
<feFlood flood-opacity="0" result="BackgroundImageFix"/>
<feColorMatrix in="SourceAlpha" type="matrix" values="0 0 0 0 0 0 0 0 0 0 0 0 0 0 0 0 0 0 127 0" result="hardAlpha"/>
<feOffset dx="4" dy="4"/>
<feComposite in2="hardAlpha" operator="out"/>
<feColorMatrix type="matrix" values="0 0 0 0 0.6 0 0 0 0 0.800784 0 0 0 0 1 0 0 0 1 0"/>
<feBlend mode="normal" in2="BackgroundImageFix" result="effect1_dropShadow_387_604"/>
<feBlend mode="normal" in="SourceGraphic" in2="effect1_dropShadow_387_604" result="shape"/>
</filter>
<filter id="filter1_d_387_604" x="0.5" y="212" width="192" height="192" filterUnits="userSpaceOnUse" color-interpolation-filters="sRGB">
<feFlood flood-opacity="0" result="BackgroundImageFix"/>
<feColorMatrix in="SourceAlpha" type="matrix" values="0 0 0 0 0 0 0 0 0 0 0 0 0 0 0 0 0 0 127 0" result="hardAlpha"/>
<feOffset dx="4" dy="4"/>
<feComposite in2="hardAlpha" operator="out"/>
<feColorMatrix type="matrix" values="0 0 0 0 0.667568 0 0 0 0 0.694595 0 0 0 0 0.932432 0 0 0 1 0"/>
<feBlend mode="normal" in2="BackgroundImageFix" result="effect1_dropShadow_387_604"/>
<feBlend mode="normal" in="SourceGraphic" in2="effect1_dropShadow_387_604" result="shape"/>
</filter>
<filter id="filter2_d_387_604" x="212.5" y="0" width="192" height="404" filterUnits="userSpaceOnUse" color-interpolation-filters="sRGB">
<feFlood flood-opacity="0" result="BackgroundImageFix"/>
<feColorMatrix in="SourceAlpha" type="matrix" values="0 0 0 0 0 0 0 0 0 0 0 0 0 0 0 0 0 0 127 0" result="hardAlpha"/>
<feOffset dx="4" dy="4"/>
<feComposite in2="hardAlpha" operator="out"/>
<feColorMatrix type="matrix" values="0 0 0 0 0.979608 0 0 0 0 0.800784 0 0 0 0 0.620392 0 0 0 1 0"/>
<feBlend mode="normal" in2="BackgroundImageFix" result="effect1_dropShadow_387_604"/>
<feBlend mode="normal" in="SourceGraphic" in2="effect1_dropShadow_387_604" result="shape"/>
</filter>
</defs>
</svg>
