<svg width="401" height="400" viewBox="0 0 401 400" fill="none" xmlns="http://www.w3.org/2000/svg">
<g filter="url(#filter0_d_381_1465)">
<rect x="11" y="10" width="244.598" height="244.598" rx="17.4713" fill="white" shape-rendering="crispEdges"/>
<rect x="11.546" y="10.546" width="243.506" height="243.506" rx="16.9253" stroke="#212528" stroke-width="1.09195" shape-rendering="crispEdges"/>
<path d="M155.138 87.1798L150.77 82.812L146.402 87.1798L142.035 82.812L137.667 87.1798L133.299 82.812L128.931 87.1798L124.563 82.812L120.195 87.1798L115.828 82.812V123.578H107.092V132.314C107.092 137.148 110.994 141.05 115.828 141.05H150.77C155.604 141.05 159.506 137.148 159.506 132.314V82.812L155.138 87.1798ZM153.682 132.314C153.682 133.915 152.372 135.226 150.77 135.226C149.169 135.226 147.858 133.915 147.858 132.314V123.578H121.651V91.5476H153.682V132.314Z" fill="#0074FF"/>
<path d="M142.035 97.3714H124.563V103.195H142.035V97.3714Z" fill="#0074FF"/>
<path d="M150.77 97.3714H144.946V103.195H150.77V97.3714Z" fill="#0074FF"/>
<path d="M142.035 106.107H124.563V111.931H142.035V106.107Z" fill="#0074FF"/>
<path d="M150.77 106.107H144.946V111.931H150.77V106.107Z" fill="#0074FF"/>
<path d="M81.1314 162.55V181.609H77.6787V162.55H81.1314ZM88.0903 173.234V181.609H84.7214V167.315H87.9414V169.744H88.1089C88.4377 168.943 88.962 168.307 89.6817 167.836C90.4076 167.364 91.3041 167.129 92.3712 167.129C93.3577 167.129 94.217 167.34 94.9491 167.761C95.6874 168.183 96.2582 168.794 96.6615 169.595C97.071 170.395 97.2726 171.366 97.2664 172.508V181.609H93.8975V173.029C93.8975 172.073 93.6493 171.326 93.153 170.786C92.6628 170.246 91.9835 169.976 91.1149 169.976C90.5255 169.976 90.0012 170.107 89.5421 170.367C89.0892 170.622 88.7324 170.991 88.4719 171.475C88.2175 171.959 88.0903 172.545 88.0903 173.234ZM112.948 167.315L107.857 181.609H104.135L99.044 167.315H102.636L105.921 177.933H106.07L109.365 167.315H112.948ZM121.028 181.889C119.632 181.889 118.422 181.581 117.399 180.967C116.375 180.353 115.581 179.494 115.016 178.389C114.458 177.285 114.179 175.994 114.179 174.518C114.179 173.041 114.458 171.748 115.016 170.637C115.581 169.527 116.375 168.664 117.399 168.05C118.422 167.436 119.632 167.129 121.028 167.129C122.424 167.129 123.634 167.436 124.658 168.05C125.681 168.664 126.472 169.527 127.031 170.637C127.595 171.748 127.878 173.041 127.878 174.518C127.878 175.994 127.595 177.285 127.031 178.389C126.472 179.494 125.681 180.353 124.658 180.967C123.634 181.581 122.424 181.889 121.028 181.889ZM121.047 179.19C121.804 179.19 122.436 178.982 122.945 178.566C123.454 178.144 123.832 177.58 124.081 176.872C124.335 176.165 124.462 175.377 124.462 174.509C124.462 173.634 124.335 172.843 124.081 172.135C123.832 171.422 123.454 170.854 122.945 170.432C122.436 170.01 121.804 169.8 121.047 169.8C120.271 169.8 119.626 170.01 119.111 170.432C118.602 170.854 118.221 171.422 117.966 172.135C117.718 172.843 117.594 173.634 117.594 174.509C117.594 175.377 117.718 176.165 117.966 176.872C118.221 177.58 118.602 178.144 119.111 178.566C119.626 178.982 120.271 179.19 121.047 179.19ZM130.737 181.609V167.315H134.106V181.609H130.737ZM132.431 165.286C131.897 165.286 131.438 165.109 131.053 164.755C130.669 164.396 130.476 163.964 130.476 163.462C130.476 162.953 130.669 162.522 131.053 162.168C131.438 161.808 131.897 161.628 132.431 161.628C132.971 161.628 133.43 161.808 133.808 162.168C134.193 162.522 134.385 162.953 134.385 163.462C134.385 163.964 134.193 164.396 133.808 164.755C133.43 165.109 132.971 165.286 132.431 165.286ZM143.806 181.889C142.379 181.889 141.153 181.575 140.129 180.949C139.112 180.322 138.327 179.456 137.775 178.352C137.229 177.242 136.956 175.963 136.956 174.518C136.956 173.066 137.235 171.785 137.794 170.674C138.352 169.558 139.14 168.689 140.157 168.069C141.181 167.442 142.391 167.129 143.787 167.129C144.947 167.129 145.974 167.343 146.867 167.771C147.767 168.193 148.484 168.791 149.017 169.567C149.551 170.336 149.855 171.236 149.929 172.266H146.709C146.579 171.577 146.269 171.003 145.779 170.544C145.295 170.079 144.646 169.846 143.833 169.846C143.145 169.846 142.54 170.032 142.019 170.404C141.498 170.77 141.091 171.298 140.8 171.987C140.514 172.675 140.371 173.5 140.371 174.462C140.371 175.436 140.514 176.274 140.8 176.975C141.085 177.67 141.485 178.206 142 178.585C142.521 178.957 143.132 179.143 143.833 179.143C144.33 179.143 144.773 179.05 145.164 178.864C145.561 178.672 145.893 178.396 146.16 178.036C146.427 177.676 146.61 177.238 146.709 176.724H149.929C149.849 177.735 149.551 178.631 149.036 179.413C148.521 180.189 147.82 180.797 146.932 181.237C146.045 181.671 145.003 181.889 143.806 181.889ZM152.696 181.609V167.315H156.064V181.609H152.696ZM154.389 165.286C153.856 165.286 153.397 165.109 153.012 164.755C152.627 164.396 152.435 163.964 152.435 163.462C152.435 162.953 152.627 162.522 153.012 162.168C153.397 161.808 153.856 161.628 154.389 161.628C154.929 161.628 155.388 161.808 155.767 162.168C156.151 162.522 156.344 162.953 156.344 163.462C156.344 163.964 156.151 164.396 155.767 164.755C155.388 165.109 154.929 165.286 154.389 165.286ZM162.898 173.234V181.609H159.529V167.315H162.749V169.744H162.916C163.245 168.943 163.769 168.307 164.489 167.836C165.215 167.364 166.111 167.129 167.179 167.129C168.165 167.129 169.024 167.34 169.757 167.761C170.495 168.183 171.066 168.794 171.469 169.595C171.878 170.395 172.08 171.366 172.074 172.508V181.609H168.705V173.029C168.705 172.073 168.457 171.326 167.96 170.786C167.47 170.246 166.791 169.976 165.922 169.976C165.333 169.976 164.809 170.107 164.349 170.367C163.897 170.622 163.54 170.991 163.279 171.475C163.025 171.959 162.898 172.545 162.898 173.234ZM181.715 187.268C180.505 187.268 179.466 187.103 178.598 186.774C177.729 186.452 177.031 186.018 176.504 185.472C175.976 184.926 175.61 184.321 175.406 183.657L178.439 182.922C178.576 183.201 178.774 183.477 179.035 183.75C179.296 184.029 179.646 184.259 180.087 184.439C180.533 184.625 181.095 184.718 181.771 184.718C182.727 184.718 183.518 184.485 184.144 184.02C184.771 183.561 185.084 182.804 185.084 181.749V179.041H184.917C184.743 179.388 184.489 179.745 184.154 180.111C183.825 180.477 183.387 180.784 182.841 181.032C182.302 181.281 181.622 181.405 180.803 181.405C179.705 181.405 178.709 181.147 177.816 180.632C176.929 180.111 176.221 179.336 175.694 178.306C175.173 177.269 174.912 175.973 174.912 174.416C174.912 172.846 175.173 171.521 175.694 170.442C176.221 169.356 176.932 168.534 177.825 167.975C178.719 167.411 179.714 167.129 180.813 167.129C181.65 167.129 182.339 167.271 182.879 167.557C183.425 167.836 183.859 168.174 184.181 168.571C184.504 168.962 184.749 169.331 184.917 169.679H185.103V167.315H188.425V181.842C188.425 183.064 188.134 184.076 187.55 184.876C186.967 185.676 186.17 186.275 185.159 186.672C184.147 187.069 183 187.268 181.715 187.268ZM181.743 178.762C182.457 178.762 183.065 178.588 183.567 178.24C184.07 177.893 184.451 177.394 184.712 176.742C184.973 176.091 185.103 175.309 185.103 174.397C185.103 173.497 184.973 172.709 184.712 172.033C184.458 171.357 184.079 170.833 183.577 170.46C183.08 170.082 182.469 169.893 181.743 169.893C180.992 169.893 180.366 170.088 179.863 170.479C179.361 170.87 178.982 171.406 178.728 172.089C178.474 172.765 178.346 173.534 178.346 174.397C178.346 175.272 178.474 176.038 178.728 176.696C178.988 177.347 179.37 177.856 179.873 178.222C180.381 178.582 181.005 178.762 181.743 178.762Z" fill="#212528"/>
</g>
<g filter="url(#filter1_d_381_1465)">
<rect x="281.805" y="145.402" width="109.195" height="109.195" rx="17.4713" fill="white" shape-rendering="crispEdges"/>
<rect x="282.351" y="145.948" width="108.103" height="108.103" rx="16.9253" stroke="#212528" stroke-width="1.09195" shape-rendering="crispEdges"/>
<path d="M320.759 196.632H317.02C315.296 196.632 313.956 196.155 313.001 195.2C312.07 194.245 311.604 192.917 311.604 191.216V179.58C311.604 177.857 312.07 176.529 313.001 175.597C313.956 174.642 315.296 174.164 317.02 174.164H320.759C322.482 174.164 323.81 174.642 324.742 175.597C325.697 176.529 326.175 177.857 326.175 179.58V180.838C326.175 181.258 325.977 181.467 325.581 181.467H323.379C322.983 181.467 322.785 181.258 322.785 180.838V179.72C322.785 177.996 321.947 177.134 320.269 177.134H317.509C315.832 177.134 314.993 177.996 314.993 179.72V191.076C314.993 192.8 315.832 193.662 317.509 193.662H320.269C321.947 193.662 322.785 192.8 322.785 191.076V187.932C322.785 187.699 322.657 187.582 322.401 187.582H319.57C319.174 187.582 318.976 187.384 318.976 186.988V185.206C318.976 184.81 319.174 184.612 319.57 184.612H325.441C325.93 184.612 326.175 184.857 326.175 185.346V191.216C326.175 192.917 325.697 194.245 324.742 195.2C323.787 196.155 322.459 196.632 320.759 196.632ZM330.506 191.181V190.273C330.506 189.877 330.704 189.679 331.1 189.679H333.337C333.733 189.679 333.931 189.877 333.931 190.273V190.902C333.931 191.88 334.14 192.591 334.56 193.033C335.002 193.453 335.725 193.662 336.726 193.662H339.137C340.139 193.662 340.861 193.441 341.304 192.998C341.746 192.532 341.968 191.787 341.968 190.762V189.958C341.968 189.213 341.676 188.63 341.094 188.211C340.535 187.769 339.836 187.489 338.997 187.373C338.159 187.233 337.239 187.046 336.237 186.813C335.235 186.581 334.315 186.313 333.477 186.01C332.638 185.707 331.927 185.136 331.345 184.298C330.786 183.459 330.506 182.387 330.506 181.083V179.615C330.506 177.915 330.984 176.587 331.939 175.632C332.917 174.653 334.257 174.164 335.957 174.164H339.661C341.385 174.164 342.725 174.653 343.68 175.632C344.658 176.587 345.147 177.915 345.147 179.615V180.384C345.147 180.78 344.949 180.978 344.553 180.978H342.317C341.921 180.978 341.723 180.78 341.723 180.384V179.93C341.723 178.928 341.502 178.218 341.059 177.798C340.64 177.356 339.929 177.134 338.928 177.134H336.726C335.725 177.134 335.002 177.367 334.56 177.833C334.14 178.276 333.931 179.045 333.931 180.139V181.223C333.931 182.271 334.688 182.981 336.202 183.354C336.878 183.517 337.611 183.657 338.403 183.773C339.219 183.89 340.034 184.065 340.849 184.298C341.665 184.531 342.41 184.845 343.086 185.241C343.761 185.614 344.309 186.196 344.728 186.988C345.147 187.757 345.357 188.7 345.357 189.819V191.181C345.357 192.882 344.868 194.221 343.889 195.2C342.934 196.155 341.606 196.632 339.906 196.632H335.992C334.292 196.632 332.952 196.155 331.974 195.2C330.996 194.221 330.506 192.882 330.506 191.181ZM356.219 196.632H354.018C353.598 196.632 353.389 196.434 353.389 196.038V177.484C353.389 177.251 353.272 177.134 353.039 177.134H348.636C348.217 177.134 348.007 176.936 348.007 176.54V174.758C348.007 174.362 348.217 174.164 348.636 174.164H361.6C362.019 174.164 362.229 174.362 362.229 174.758V176.54C362.229 176.936 362.019 177.134 361.6 177.134H357.197C356.941 177.134 356.813 177.251 356.813 177.484V196.038C356.813 196.434 356.615 196.632 356.219 196.632Z" fill="#D4732B"/>
<path d="M309.015 225.001H306.985C306.927 224.668 306.82 224.373 306.665 224.116C306.509 223.855 306.316 223.635 306.084 223.454C305.852 223.273 305.588 223.137 305.291 223.047C304.998 222.952 304.681 222.905 304.341 222.905C303.737 222.905 303.201 223.057 302.734 223.361C302.267 223.662 301.902 224.103 301.638 224.686C301.374 225.265 301.241 225.973 301.241 226.809C301.241 227.659 301.374 228.376 301.638 228.958C301.906 229.537 302.271 229.975 302.734 230.272C303.201 230.565 303.735 230.712 304.336 230.712C304.669 230.712 304.98 230.668 305.27 230.582C305.563 230.491 305.825 230.359 306.057 230.185C306.292 230.012 306.489 229.798 306.648 229.545C306.811 229.291 306.924 229.002 306.985 228.676L309.015 228.687C308.939 229.215 308.775 229.711 308.521 230.174C308.272 230.638 307.944 231.047 307.539 231.401C307.133 231.752 306.659 232.027 306.116 232.227C305.574 232.422 304.971 232.52 304.309 232.52C303.332 232.52 302.459 232.293 301.692 231.841C300.925 231.389 300.32 230.735 299.879 229.881C299.437 229.027 299.217 228.003 299.217 226.809C299.217 225.611 299.439 224.586 299.884 223.736C300.329 222.882 300.936 222.229 301.703 221.776C302.47 221.324 303.339 221.098 304.309 221.098C304.928 221.098 305.503 221.184 306.035 221.358C306.567 221.532 307.041 221.787 307.457 222.124C307.874 222.457 308.216 222.866 308.483 223.351C308.755 223.832 308.932 224.382 309.015 225.001ZM314.41 232.531C313.596 232.531 312.89 232.351 312.293 231.993C311.696 231.635 311.233 231.134 310.903 230.489C310.578 229.845 310.415 229.092 310.415 228.231C310.415 227.37 310.578 226.615 310.903 225.967C311.233 225.319 311.696 224.816 312.293 224.458C312.89 224.1 313.596 223.921 314.41 223.921C315.225 223.921 315.93 224.1 316.527 224.458C317.125 224.816 317.586 225.319 317.912 225.967C318.241 226.615 318.406 227.37 318.406 228.231C318.406 229.092 318.241 229.845 317.912 230.489C317.586 231.134 317.125 231.635 316.527 231.993C315.93 232.351 315.225 232.531 314.41 232.531ZM314.421 230.956C314.863 230.956 315.232 230.835 315.529 230.592C315.825 230.346 316.046 230.017 316.191 229.604C316.339 229.192 316.413 228.732 316.413 228.226C316.413 227.715 316.339 227.254 316.191 226.841C316.046 226.425 315.825 226.094 315.529 225.848C315.232 225.602 314.863 225.479 314.421 225.479C313.969 225.479 313.592 225.602 313.292 225.848C312.995 226.094 312.773 226.425 312.624 226.841C312.479 227.254 312.407 227.715 312.407 228.226C312.407 228.732 312.479 229.192 312.624 229.604C312.773 230.017 312.995 230.346 313.292 230.592C313.592 230.835 313.969 230.956 314.421 230.956ZM320.074 232.368V224.029H321.952V225.446H322.05C322.224 224.968 322.511 224.596 322.913 224.328C323.315 224.056 323.794 223.921 324.352 223.921C324.916 223.921 325.392 224.058 325.779 224.333C326.17 224.605 326.445 224.976 326.605 225.446H326.691C326.876 224.983 327.187 224.614 327.625 224.339C328.067 224.06 328.59 223.921 329.194 223.921C329.961 223.921 330.587 224.163 331.072 224.648C331.557 225.133 331.8 225.841 331.8 226.771V232.368H329.829V227.075C329.829 226.557 329.692 226.179 329.417 225.94C329.142 225.698 328.805 225.576 328.407 225.576C327.933 225.576 327.562 225.725 327.294 226.021C327.03 226.315 326.898 226.696 326.898 227.167V232.368H324.971V226.993C324.971 226.563 324.84 226.219 324.58 225.962C324.323 225.705 323.986 225.576 323.57 225.576C323.288 225.576 323.031 225.649 322.799 225.793C322.567 225.935 322.383 226.135 322.245 226.396C322.108 226.653 322.039 226.953 322.039 227.297V232.368H320.074ZM333.794 235.495V224.029H335.726V225.408H335.84C335.942 225.205 336.085 224.99 336.269 224.762C336.454 224.53 336.703 224.333 337.018 224.17C337.333 224.004 337.735 223.921 338.223 223.921C338.868 223.921 339.449 224.085 339.966 224.415C340.487 224.74 340.9 225.223 341.204 225.864C341.511 226.501 341.665 227.283 341.665 228.209C341.665 229.125 341.515 229.903 341.215 230.544C340.914 231.184 340.505 231.673 339.988 232.009C339.47 232.346 338.884 232.514 338.229 232.514C337.751 232.514 337.355 232.435 337.04 232.275C336.725 232.116 336.472 231.924 336.28 231.7C336.092 231.472 335.945 231.257 335.84 231.054H335.759V235.495H333.794ZM335.721 228.198C335.721 228.738 335.797 229.21 335.949 229.615C336.104 230.021 336.327 230.337 336.617 230.565C336.91 230.79 337.264 230.902 337.681 230.902C338.115 230.902 338.479 230.786 338.772 230.554C339.065 230.319 339.286 229.999 339.434 229.594C339.586 229.185 339.662 228.72 339.662 228.198C339.662 227.681 339.588 227.221 339.439 226.819C339.291 226.418 339.07 226.103 338.777 225.875C338.484 225.647 338.118 225.533 337.681 225.533C337.261 225.533 336.904 225.643 336.611 225.864C336.318 226.085 336.095 226.394 335.943 226.792C335.795 227.19 335.721 227.659 335.721 228.198ZM345.313 221.25V232.368H343.348V221.25H345.313ZM347.334 232.368V224.029H349.299V232.368H347.334ZM348.322 222.846C348.011 222.846 347.743 222.743 347.519 222.536C347.294 222.326 347.182 222.075 347.182 221.782C347.182 221.485 347.294 221.233 347.519 221.027C347.743 220.817 348.011 220.712 348.322 220.712C348.637 220.712 348.905 220.817 349.126 221.027C349.35 221.233 349.462 221.485 349.462 221.782C349.462 222.075 349.35 222.326 349.126 222.536C348.905 222.743 348.637 222.846 348.322 222.846ZM353.72 232.536C353.191 232.536 352.715 232.442 352.292 232.254C351.872 232.062 351.539 231.78 351.293 231.407C351.051 231.034 350.929 230.574 350.929 230.028C350.929 229.557 351.016 229.168 351.19 228.861C351.364 228.553 351.601 228.307 351.901 228.122C352.202 227.938 352.54 227.798 352.916 227.704C353.296 227.607 353.689 227.536 354.094 227.493C354.583 227.442 354.979 227.397 355.283 227.357C355.587 227.314 355.808 227.248 355.946 227.162C356.087 227.071 356.157 226.932 356.157 226.743V226.711C356.157 226.302 356.036 225.985 355.794 225.761C355.551 225.537 355.202 225.424 354.746 225.424C354.264 225.424 353.883 225.529 353.6 225.739C353.322 225.949 353.134 226.197 353.036 226.483L351.201 226.222C351.346 225.716 351.585 225.292 351.917 224.952C352.25 224.608 352.658 224.351 353.139 224.181C353.62 224.007 354.152 223.921 354.735 223.921C355.137 223.921 355.537 223.968 355.935 224.062C356.333 224.156 356.697 224.311 357.026 224.529C357.355 224.742 357.619 225.033 357.819 225.403C358.021 225.772 358.123 226.233 358.123 226.787V232.368H356.233V231.222H356.168C356.049 231.454 355.88 231.671 355.663 231.874C355.45 232.073 355.18 232.234 354.854 232.357C354.532 232.476 354.154 232.536 353.72 232.536ZM354.23 231.092C354.625 231.092 354.967 231.014 355.256 230.858C355.546 230.699 355.768 230.489 355.924 230.229C356.083 229.968 356.163 229.684 356.163 229.376V228.394C356.101 228.445 355.996 228.492 355.848 228.535C355.703 228.578 355.54 228.616 355.359 228.649C355.178 228.682 354.999 228.711 354.822 228.736C354.645 228.761 354.491 228.783 354.36 228.801C354.067 228.841 353.805 228.906 353.573 228.996C353.342 229.087 353.159 229.214 353.025 229.376C352.891 229.536 352.824 229.742 352.824 229.995C352.824 230.357 352.956 230.63 353.22 230.815C353.485 231 353.821 231.092 354.23 231.092ZM362.064 227.482V232.368H360.099V224.029H361.977V225.446H362.075C362.266 224.979 362.572 224.608 362.992 224.333C363.416 224.058 363.939 223.921 364.561 223.921C365.136 223.921 365.638 224.044 366.065 224.29C366.495 224.536 366.828 224.892 367.064 225.359C367.303 225.826 367.42 226.392 367.417 227.058V232.368H365.451V227.362C365.451 226.805 365.307 226.369 365.017 226.054C364.731 225.739 364.335 225.582 363.828 225.582C363.484 225.582 363.179 225.658 362.911 225.81C362.646 225.958 362.438 226.173 362.286 226.456C362.138 226.738 362.064 227.08 362.064 227.482ZM373.578 224.029V225.549H368.785V224.029H373.578ZM369.968 222.031H371.933V229.86C371.933 230.124 371.973 230.326 372.053 230.468C372.136 230.605 372.245 230.699 372.378 230.75C372.512 230.801 372.661 230.826 372.824 230.826C372.947 230.826 373.059 230.817 373.16 230.799C373.265 230.781 373.345 230.764 373.399 230.75L373.73 232.286C373.625 232.322 373.475 232.362 373.28 232.406C373.088 232.449 372.853 232.474 372.574 232.482C372.082 232.496 371.638 232.422 371.244 232.259C370.849 232.093 370.536 231.836 370.305 231.488C370.077 231.141 369.964 230.706 369.968 230.185V222.031Z" fill="#212528"/>
</g>
<g filter="url(#filter2_d_381_1465)">
<rect x="11" y="280.805" width="109.195" height="109.195" rx="17.4713" fill="white" shape-rendering="crispEdges"/>
<rect x="11.546" y="281.351" width="108.103" height="108.103" rx="16.9253" stroke="#212528" stroke-width="1.09195" shape-rendering="crispEdges"/>
<path d="M78.3372 305.155H52.8582C50.8563 305.155 49.2184 306.793 49.2184 308.795V334.274C49.2184 336.276 50.8563 337.914 52.8582 337.914H78.3372C80.3391 337.914 81.977 336.276 81.977 334.274V308.795C81.977 306.793 80.3391 305.155 78.3372 305.155ZM52.8582 334.274V308.795H63.7778V334.274H52.8582ZM78.3372 334.274H67.4176V321.535H78.3372V334.274ZM78.3372 317.895H67.4176V308.795H78.3372V317.895Z" fill="#D5732B"/>
<path d="M27.2057 357.68V355.991H36.0763V357.68H32.6399V367.109H30.6421V357.68H27.2057ZM40.1818 367.272C39.3458 367.272 38.6238 367.099 38.0157 366.751C37.4113 366.4 36.9463 365.904 36.6205 365.264C36.2948 364.619 36.132 363.861 36.132 362.989C36.132 362.131 36.2948 361.378 36.6205 360.731C36.9499 360.079 37.4095 359.572 37.9994 359.211C38.5894 358.845 39.2824 358.662 40.0787 358.662C40.5926 358.662 41.0775 358.745 41.5336 358.912C41.9932 359.075 42.3985 359.328 42.7496 359.672C43.1043 360.016 43.383 360.454 43.5856 360.986C43.7883 361.514 43.8896 362.144 43.8896 362.875V363.478H37.0548V362.153H42.0059C42.0022 361.777 41.9208 361.442 41.7616 361.149C41.6023 360.852 41.3797 360.618 41.0938 360.448C40.8115 360.278 40.4822 360.193 40.1058 360.193C39.7041 360.193 39.3512 360.291 39.0472 360.486C38.7432 360.678 38.5061 360.931 38.336 361.246C38.1695 361.558 38.0845 361.9 38.0809 362.272V363.429C38.0809 363.914 38.1695 364.33 38.3469 364.677C38.5242 365.021 38.7721 365.285 39.0906 365.47C39.4091 365.651 39.7819 365.741 40.2089 365.741C40.4949 365.741 40.7536 365.702 40.9853 365.622C41.2169 365.539 41.4177 365.417 41.5878 365.258C41.7579 365.099 41.8864 364.902 41.9733 364.666L43.8082 364.873C43.6924 365.358 43.4716 365.781 43.1459 366.143C42.8238 366.501 42.4112 366.78 41.9081 366.979C41.4051 367.175 40.8296 367.272 40.1818 367.272ZM45.5522 367.109V358.771H47.4305V360.188H47.5283C47.702 359.71 47.9897 359.337 48.3914 359.069C48.7932 358.798 49.2727 358.662 49.83 358.662C50.3946 358.662 50.8706 358.8 51.2578 359.075C51.6487 359.346 51.9237 359.717 52.083 360.188H52.1698C52.3544 359.724 52.6657 359.355 53.1036 359.08C53.5451 358.802 54.0681 358.662 54.6725 358.662C55.4398 358.662 56.0659 358.905 56.5508 359.39C57.0358 359.875 57.2783 360.582 57.2783 361.512V367.109H55.3077V361.816C55.3077 361.299 55.1701 360.921 54.8951 360.682C54.62 360.439 54.2834 360.318 53.8853 360.318C53.4112 360.318 53.0402 360.466 52.7724 360.763C52.5082 361.056 52.3761 361.438 52.3761 361.909V367.109H50.4489V361.735C50.4489 361.304 50.3186 360.96 50.0581 360.703C49.8011 360.446 49.4645 360.318 49.0483 360.318C48.766 360.318 48.5091 360.39 48.2774 360.535C48.0458 360.676 47.8612 360.877 47.7237 361.138C47.5862 361.395 47.5174 361.695 47.5174 362.039V367.109H45.5522ZM59.272 370.236V358.771H61.2046V360.15H61.3186C61.42 359.947 61.5629 359.732 61.7475 359.504C61.9321 359.272 62.1818 359.075 62.4967 358.912C62.8115 358.745 63.2133 358.662 63.7019 358.662C64.3461 358.662 64.9269 358.827 65.4445 359.156C65.9656 359.482 66.3782 359.965 66.6822 360.606C66.9899 361.243 67.1437 362.024 67.1437 362.951C67.1437 363.867 66.9935 364.645 66.6931 365.285C66.3927 365.926 65.9837 366.414 65.4662 366.751C64.9487 367.088 64.3624 367.256 63.7073 367.256C63.2296 367.256 62.8333 367.176 62.5184 367.017C62.2035 366.858 61.9502 366.666 61.7584 366.442C61.5702 366.214 61.4236 365.998 61.3186 365.796H61.2372V370.236H59.272ZM61.1992 362.94C61.1992 363.479 61.2752 363.952 61.4272 364.357C61.5828 364.762 61.8054 365.079 62.0949 365.307C62.3881 365.531 62.7428 365.644 63.159 365.644C63.5933 365.644 63.957 365.528 64.2502 365.296C64.5433 365.061 64.7641 364.741 64.9125 364.335C65.0645 363.926 65.1405 363.461 65.1405 362.94C65.1405 362.423 65.0663 361.963 64.9179 361.561C64.7695 361.159 64.5487 360.845 64.2556 360.617C63.9624 360.389 63.5969 360.275 63.159 360.275C62.7392 360.275 62.3827 360.385 62.0895 360.606C61.7964 360.827 61.5738 361.136 61.4218 361.534C61.2734 361.932 61.1992 362.401 61.1992 362.94ZM70.7918 355.991V367.109H68.8266V355.991H70.7918ZM75.2122 367.278C74.6838 367.278 74.2078 367.184 73.7844 366.995C73.3646 366.804 73.0316 366.521 72.7855 366.148C72.543 365.776 72.4218 365.316 72.4218 364.77C72.4218 364.299 72.5086 363.91 72.6824 363.602C72.8561 363.295 73.0931 363.049 73.3935 362.864C73.6939 362.68 74.0323 362.54 74.4087 362.446C74.7887 362.348 75.1814 362.278 75.5867 362.234C76.0753 362.184 76.4716 362.138 76.7756 362.099C77.0796 362.055 77.3004 361.99 77.4379 361.903C77.5791 361.813 77.6497 361.673 77.6497 361.485V361.453C77.6497 361.044 77.5284 360.727 77.2859 360.503C77.0435 360.278 76.6942 360.166 76.2382 360.166C75.7568 360.166 75.375 360.271 75.0927 360.481C74.8141 360.691 74.6259 360.939 74.5281 361.225L72.6932 360.964C72.838 360.457 73.0769 360.034 73.4098 359.694C73.7428 359.35 74.1499 359.093 74.6313 358.923C75.1126 358.749 75.6447 358.662 76.2273 358.662C76.6291 358.662 77.029 358.709 77.4271 358.803C77.8252 358.897 78.1889 359.053 78.5183 359.27C78.8476 359.484 79.1118 359.775 79.3109 360.144C79.5135 360.513 79.6149 360.975 79.6149 361.529V367.109H77.7257V365.964H77.6605C77.5411 366.196 77.3728 366.413 77.1557 366.615C76.9421 366.814 76.6725 366.975 76.3468 367.099C76.0247 367.218 75.6465 367.278 75.2122 367.278ZM75.7225 365.834C76.117 365.834 76.459 365.756 76.7485 365.6C77.038 365.441 77.2606 365.231 77.4162 364.97C77.5755 364.71 77.6551 364.426 77.6551 364.118V363.136C77.5936 363.186 77.4886 363.233 77.3402 363.277C77.1955 363.32 77.0326 363.358 76.8516 363.391C76.6707 363.423 76.4915 363.452 76.3142 363.478C76.1369 363.503 75.983 363.525 75.8528 363.543C75.5596 363.582 75.2972 363.648 75.0656 363.738C74.834 363.829 74.6512 363.955 74.5173 364.118C74.3834 364.277 74.3164 364.484 74.3164 364.737C74.3164 365.099 74.4485 365.372 74.7127 365.557C74.9769 365.741 75.3135 365.834 75.7225 365.834ZM85.7548 358.771V360.291H80.9612V358.771H85.7548ZM82.1447 356.773H84.1099V364.601C84.1099 364.865 84.1497 365.068 84.2293 365.209C84.3126 365.347 84.4211 365.441 84.555 365.492C84.6889 365.542 84.8373 365.568 85.0002 365.568C85.1232 365.568 85.2354 365.559 85.3368 365.54C85.4417 365.522 85.5214 365.506 85.5756 365.492L85.9068 367.028C85.8018 367.064 85.6516 367.104 85.4562 367.147C85.2644 367.191 85.0291 367.216 84.7505 367.223C84.2583 367.238 83.8149 367.164 83.4204 367.001C83.0259 366.834 82.7129 366.577 82.4813 366.23C82.2532 365.882 82.1411 365.448 82.1447 364.927V356.773ZM91.0003 367.272C90.1643 367.272 89.4423 367.099 88.8342 366.751C88.2298 366.4 87.7648 365.904 87.4391 365.264C87.1133 364.619 86.9505 363.861 86.9505 362.989C86.9505 362.131 87.1133 361.378 87.4391 360.731C87.7684 360.079 88.228 359.572 88.818 359.211C89.4079 358.845 90.101 358.662 90.8972 358.662C91.4111 358.662 91.8961 358.745 92.3521 358.912C92.8117 359.075 93.2171 359.328 93.5681 359.672C93.9228 360.016 94.2015 360.454 94.4041 360.986C94.6068 361.514 94.7082 362.144 94.7082 362.875V363.478H87.8734V362.153H92.8244C92.8208 361.777 92.7393 361.442 92.5801 361.149C92.4208 360.852 92.1983 360.618 91.9123 360.448C91.63 360.278 91.3007 360.193 90.9243 360.193C90.5226 360.193 90.1697 360.291 89.8657 360.486C89.5617 360.678 89.3246 360.931 89.1545 361.246C88.9881 361.558 88.903 361.9 88.8994 362.272V363.429C88.8994 363.914 88.9881 364.33 89.1654 364.677C89.3427 365.021 89.5907 365.285 89.9091 365.47C90.2276 365.651 90.6004 365.741 91.0275 365.741C91.3134 365.741 91.5721 365.702 91.8038 365.622C92.0354 365.539 92.2363 365.417 92.4064 365.258C92.5765 365.099 92.7049 364.902 92.7918 364.666L94.6267 364.873C94.5109 365.358 94.2901 365.781 93.9644 366.143C93.6423 366.501 93.2297 366.78 92.7267 366.979C92.2236 367.175 91.6481 367.272 91.0003 367.272ZM102.961 360.975L101.17 361.17C101.119 360.989 101.03 360.819 100.904 360.66C100.781 360.501 100.614 360.372 100.404 360.275C100.194 360.177 99.9374 360.128 99.6334 360.128C99.2244 360.128 98.8806 360.217 98.6019 360.394C98.3269 360.571 98.1911 360.801 98.1948 361.083C98.1911 361.326 98.2798 361.523 98.4608 361.675C98.6454 361.827 98.9494 361.952 99.3728 362.05L100.795 362.354C101.584 362.524 102.17 362.794 102.554 363.163C102.941 363.532 103.137 364.015 103.14 364.612C103.137 365.137 102.983 365.6 102.679 366.002C102.379 366.4 101.961 366.711 101.425 366.936C100.889 367.16 100.274 367.272 99.5791 367.272C98.5585 367.272 97.7369 367.059 97.1144 366.632C96.492 366.201 96.121 365.602 96.0016 364.835L97.9179 364.65C98.0048 365.027 98.1893 365.311 98.4716 365.502C98.7539 365.694 99.1213 365.79 99.5737 365.79C100.041 365.79 100.415 365.694 100.697 365.502C100.983 365.311 101.126 365.074 101.126 364.791C101.126 364.552 101.034 364.355 100.849 364.2C100.668 364.044 100.386 363.925 100.003 363.841L98.5802 363.543C97.7804 363.376 97.1886 363.096 96.805 362.701C96.4214 362.303 96.2314 361.8 96.235 361.192C96.2314 360.678 96.3707 360.233 96.653 359.857C96.9389 359.477 97.3352 359.183 97.8419 358.977C98.3522 358.767 98.9403 358.662 99.6062 358.662C100.583 358.662 101.352 358.87 101.913 359.287C102.478 359.703 102.827 360.266 102.961 360.975Z" fill="#212528"/>
</g>
<g filter="url(#filter3_d_381_1465)">
<rect x="146.402" y="280.805" width="244.598" height="109.195" rx="17.4713" fill="white" shape-rendering="crispEdges"/>
<rect x="146.948" y="281.351" width="243.506" height="108.103" rx="16.9253" stroke="#212528" stroke-width="1.09195" shape-rendering="crispEdges"/>
<path d="M268.701 339.279C270.703 339.279 272.341 337.641 272.341 335.639H265.061C265.061 337.641 266.699 339.279 268.701 339.279ZM279.621 328.359V319.259C279.621 313.672 276.654 308.995 271.431 307.757V306.52C271.431 305.009 270.212 303.79 268.701 303.79C267.191 303.79 265.971 305.009 265.971 306.52V307.757C260.766 308.995 257.782 313.654 257.782 319.259V328.359L254.142 331.999V333.819H283.261V331.999L279.621 328.359ZM275.981 330.179H261.421V319.259C261.421 314.746 264.17 311.07 268.701 311.07C273.233 311.07 275.981 314.746 275.981 319.259V330.179ZM260.657 306.666L258.055 304.063C253.687 307.393 250.811 312.526 250.557 318.349H254.196C254.469 313.527 256.944 309.304 260.657 306.666ZM283.206 318.349H286.846C286.573 312.526 283.697 307.393 279.348 304.063L276.763 306.666C280.44 309.304 282.933 313.527 283.206 318.349Z" fill="#0074FF"/>
<path d="M229.798 367.109V355.991H233.967C234.821 355.991 235.538 356.14 236.117 356.436C236.699 356.733 237.139 357.149 237.436 357.685C237.736 358.217 237.887 358.838 237.887 359.547C237.887 360.26 237.735 360.879 237.431 361.404C237.13 361.925 236.687 362.328 236.1 362.614C235.514 362.897 234.794 363.038 233.94 363.038H230.97V361.366H233.668C234.168 361.366 234.577 361.297 234.895 361.159C235.214 361.018 235.449 360.814 235.601 360.546C235.757 360.275 235.834 359.942 235.834 359.547C235.834 359.153 235.757 358.816 235.601 358.537C235.445 358.255 235.208 358.042 234.89 357.897C234.571 357.748 234.161 357.674 233.658 357.674H231.812V367.109H229.798ZM235.541 362.071L238.294 367.109H236.046L233.343 362.071H235.541ZM243.226 367.272C242.39 367.272 241.668 367.099 241.06 366.751C240.455 366.4 239.99 365.904 239.664 365.264C239.339 364.619 239.176 363.861 239.176 362.989C239.176 362.131 239.339 361.378 239.664 360.731C239.994 360.079 240.453 359.572 241.043 359.211C241.633 358.845 242.326 358.662 243.123 358.662C243.637 358.662 244.121 358.745 244.577 358.912C245.037 359.075 245.442 359.328 245.794 359.672C246.148 360.016 246.427 360.454 246.63 360.986C246.832 361.514 246.934 362.144 246.934 362.875V363.478H240.099V362.153H245.05C245.046 361.777 244.965 361.442 244.805 361.149C244.646 360.852 244.424 360.618 244.138 360.448C243.855 360.278 243.526 360.193 243.15 360.193C242.748 360.193 242.395 360.291 242.091 360.486C241.787 360.678 241.55 360.931 241.38 361.246C241.213 361.558 241.128 361.9 241.125 362.272V363.429C241.125 363.914 241.213 364.33 241.391 364.677C241.568 365.021 241.816 365.285 242.135 365.47C242.453 365.651 242.826 365.741 243.253 365.741C243.539 365.741 243.798 365.702 244.029 365.622C244.261 365.539 244.462 365.417 244.632 365.258C244.802 365.099 244.93 364.902 245.017 364.666L246.852 364.873C246.736 365.358 246.516 365.781 246.19 366.143C245.868 366.501 245.455 366.78 244.952 366.979C244.449 367.175 243.874 367.272 243.226 367.272ZM248.596 367.109V358.771H250.474V360.188H250.572C250.746 359.71 251.034 359.337 251.435 359.069C251.837 358.798 252.317 358.662 252.874 358.662C253.439 358.662 253.914 358.8 254.302 359.075C254.693 359.346 254.968 359.717 255.127 360.188H255.214C255.398 359.724 255.71 359.355 256.148 359.08C256.589 358.802 257.112 358.662 257.716 358.662C258.484 358.662 259.11 358.905 259.595 359.39C260.08 359.875 260.322 360.582 260.322 361.512V367.109H258.352V361.816C258.352 361.299 258.214 360.921 257.939 360.682C257.664 360.439 257.327 360.318 256.929 360.318C256.455 360.318 256.084 360.466 255.816 360.763C255.552 361.056 255.42 361.438 255.42 361.909V367.109H253.493V361.735C253.493 361.304 253.363 360.96 253.102 360.703C252.845 360.446 252.508 360.318 252.092 360.318C251.81 360.318 251.553 360.39 251.321 360.535C251.09 360.676 250.905 360.877 250.768 361.138C250.63 361.395 250.561 361.695 250.561 362.039V367.109H248.596ZM262.316 367.109V358.771H264.281V367.109H262.316ZM263.304 357.587C262.993 357.587 262.725 357.484 262.5 357.278C262.276 357.068 262.164 356.816 262.164 356.523C262.164 356.227 262.276 355.975 262.5 355.769C262.725 355.559 262.993 355.454 263.304 355.454C263.619 355.454 263.887 355.559 264.107 355.769C264.332 355.975 264.444 356.227 264.444 356.523C264.444 356.816 264.332 357.068 264.107 357.278C263.887 357.484 263.619 357.587 263.304 357.587ZM268.267 362.224V367.109H266.302V358.771H268.18V360.188H268.278C268.47 359.721 268.776 359.35 269.196 359.075C269.619 358.8 270.142 358.662 270.764 358.662C271.34 358.662 271.841 358.785 272.268 359.031C272.699 359.278 273.032 359.634 273.267 360.101C273.506 360.568 273.624 361.134 273.62 361.8V367.109H271.655V362.104C271.655 361.547 271.51 361.111 271.22 360.796C270.935 360.481 270.538 360.323 270.032 360.323C269.688 360.323 269.382 360.399 269.114 360.551C268.85 360.7 268.642 360.915 268.49 361.197C268.341 361.48 268.267 361.822 268.267 362.224ZM278.712 367.256C278.057 367.256 277.471 367.088 276.953 366.751C276.436 366.414 276.027 365.926 275.726 365.285C275.426 364.645 275.276 363.867 275.276 362.951C275.276 362.024 275.428 361.243 275.732 360.606C276.039 359.965 276.454 359.482 276.975 359.156C277.496 358.827 278.077 358.662 278.718 358.662C279.206 358.662 279.608 358.745 279.923 358.912C280.238 359.075 280.487 359.272 280.672 359.504C280.856 359.732 280.999 359.947 281.101 360.15H281.182V355.991H283.153V367.109H281.22V365.796H281.101C280.999 365.998 280.853 366.214 280.661 366.442C280.469 366.666 280.216 366.858 279.901 367.017C279.586 367.176 279.19 367.256 278.712 367.256ZM279.26 365.644C279.677 365.644 280.031 365.531 280.324 365.307C280.618 365.079 280.84 364.762 280.992 364.357C281.144 363.952 281.22 363.479 281.22 362.94C281.22 362.401 281.144 361.932 280.992 361.534C280.844 361.136 280.623 360.827 280.33 360.606C280.04 360.385 279.684 360.275 279.26 360.275C278.822 360.275 278.457 360.389 278.164 360.617C277.871 360.845 277.65 361.159 277.501 361.561C277.353 361.963 277.279 362.423 277.279 362.94C277.279 363.461 277.353 363.926 277.501 364.335C277.653 364.741 277.876 365.061 278.169 365.296C278.466 365.528 278.83 365.644 279.26 365.644ZM288.939 367.272C288.102 367.272 287.38 367.099 286.772 366.751C286.168 366.4 285.703 365.904 285.377 365.264C285.052 364.619 284.889 363.861 284.889 362.989C284.889 362.131 285.052 361.378 285.377 360.731C285.707 360.079 286.166 359.572 286.756 359.211C287.346 358.845 288.039 358.662 288.835 358.662C289.349 358.662 289.834 358.745 290.29 358.912C290.75 359.075 291.155 359.328 291.506 359.672C291.861 360.016 292.14 360.454 292.342 360.986C292.545 361.514 292.646 362.144 292.646 362.875V363.478H285.812V362.153H290.763C290.759 361.777 290.678 361.442 290.518 361.149C290.359 360.852 290.136 360.618 289.851 360.448C289.568 360.278 289.239 360.193 288.863 360.193C288.461 360.193 288.108 360.291 287.804 360.486C287.5 360.678 287.263 360.931 287.093 361.246C286.926 361.558 286.841 361.9 286.838 362.272V363.429C286.838 363.914 286.926 364.33 287.104 364.677C287.281 365.021 287.529 365.285 287.847 365.47C288.166 365.651 288.539 365.741 288.966 365.741C289.252 365.741 289.51 365.702 289.742 365.622C289.974 365.539 290.174 365.417 290.345 365.258C290.515 365.099 290.643 364.902 290.73 364.666L292.565 364.873C292.449 365.358 292.228 365.781 291.903 366.143C291.58 366.501 291.168 366.78 290.665 366.979C290.162 367.175 289.586 367.272 288.939 367.272ZM294.309 367.109V358.771H296.214V360.161H296.301C296.453 359.679 296.714 359.308 297.083 359.048C297.456 358.783 297.881 358.651 298.359 358.651C298.467 358.651 298.589 358.657 298.722 358.668C298.86 358.675 298.974 358.688 299.064 358.706V360.513C298.981 360.484 298.849 360.459 298.668 360.437C298.491 360.412 298.319 360.399 298.152 360.399C297.794 360.399 297.472 360.477 297.186 360.633C296.904 360.785 296.681 360.997 296.518 361.268C296.356 361.539 296.274 361.853 296.274 362.207V367.109H294.309ZM306.961 360.975L305.169 361.17C305.118 360.989 305.03 360.819 304.903 360.66C304.78 360.501 304.614 360.372 304.404 360.275C304.194 360.177 303.937 360.128 303.633 360.128C303.224 360.128 302.88 360.217 302.601 360.394C302.326 360.571 302.191 360.801 302.194 361.083C302.191 361.326 302.279 361.523 302.46 361.675C302.645 361.827 302.949 361.952 303.372 362.05L304.795 362.354C305.583 362.524 306.17 362.794 306.553 363.163C306.941 363.532 307.136 364.015 307.14 364.612C307.136 365.137 306.982 365.6 306.678 366.002C306.378 366.4 305.96 366.711 305.424 366.936C304.889 367.16 304.273 367.272 303.578 367.272C302.558 367.272 301.736 367.059 301.114 366.632C300.491 366.201 300.12 365.602 300.001 364.835L301.917 364.65C302.004 365.027 302.189 365.311 302.471 365.502C302.753 365.694 303.121 365.79 303.573 365.79C304.04 365.79 304.415 365.694 304.697 365.502C304.983 365.311 305.126 365.074 305.126 364.791C305.126 364.552 305.033 364.355 304.849 364.2C304.668 364.044 304.386 363.925 304.002 363.841L302.58 363.543C301.78 363.376 301.188 363.096 300.804 362.701C300.421 362.303 300.231 361.8 300.234 361.192C300.231 360.678 300.37 360.233 300.652 359.857C300.938 359.477 301.335 359.183 301.841 358.977C302.352 358.767 302.94 358.662 303.606 358.662C304.583 358.662 305.352 358.87 305.913 359.287C306.477 359.703 306.827 360.266 306.961 360.975Z" fill="#212528"/>
</g>
<defs>
<filter id="filter0_d_381_1465" x="11" y="10" width="248.966" height="248.965" filterUnits="userSpaceOnUse" color-interpolation-filters="sRGB">
<feFlood flood-opacity="0" result="BackgroundImageFix"/>
<feColorMatrix in="SourceAlpha" type="matrix" values="0 0 0 0 0 0 0 0 0 0 0 0 0 0 0 0 0 0 127 0" result="hardAlpha"/>
<feOffset dx="4.36782" dy="4.36782"/>
<feComposite in2="hardAlpha" operator="out"/>
<feColorMatrix type="matrix" values="0 0 0 0 0.667568 0 0 0 0 0.805297 0 0 0 0 0.932432 0 0 0 1 0"/>
<feBlend mode="normal" in2="BackgroundImageFix" result="effect1_dropShadow_381_1465"/>
<feBlend mode="normal" in="SourceGraphic" in2="effect1_dropShadow_381_1465" result="shape"/>
</filter>
<filter id="filter1_d_381_1465" x="281.805" y="145.402" width="113.563" height="113.563" filterUnits="userSpaceOnUse" color-interpolation-filters="sRGB">
<feFlood flood-opacity="0" result="BackgroundImageFix"/>
<feColorMatrix in="SourceAlpha" type="matrix" values="0 0 0 0 0 0 0 0 0 0 0 0 0 0 0 0 0 0 127 0" result="hardAlpha"/>
<feOffset dx="4.36782" dy="4.36782"/>
<feComposite in2="hardAlpha" operator="out"/>
<feColorMatrix type="matrix" values="0 0 0 0 0.932432 0 0 0 0 0.778811 0 0 0 0 0.667568 0 0 0 1 0"/>
<feBlend mode="normal" in2="BackgroundImageFix" result="effect1_dropShadow_381_1465"/>
<feBlend mode="normal" in="SourceGraphic" in2="effect1_dropShadow_381_1465" result="shape"/>
</filter>
<filter id="filter2_d_381_1465" x="11" y="280.805" width="113.563" height="113.563" filterUnits="userSpaceOnUse" color-interpolation-filters="sRGB">
<feFlood flood-opacity="0" result="BackgroundImageFix"/>
<feColorMatrix in="SourceAlpha" type="matrix" values="0 0 0 0 0 0 0 0 0 0 0 0 0 0 0 0 0 0 127 0" result="hardAlpha"/>
<feOffset dx="4.36782" dy="4.36782"/>
<feComposite in2="hardAlpha" operator="out"/>
<feColorMatrix type="matrix" values="0 0 0 0 0.932432 0 0 0 0 0.778811 0 0 0 0 0.667568 0 0 0 1 0"/>
<feBlend mode="normal" in2="BackgroundImageFix" result="effect1_dropShadow_381_1465"/>
<feBlend mode="normal" in="SourceGraphic" in2="effect1_dropShadow_381_1465" result="shape"/>
</filter>
<filter id="filter3_d_381_1465" x="146.402" y="280.805" width="248.966" height="113.563" filterUnits="userSpaceOnUse" color-interpolation-filters="sRGB">
<feFlood flood-opacity="0" result="BackgroundImageFix"/>
<feColorMatrix in="SourceAlpha" type="matrix" values="0 0 0 0 0 0 0 0 0 0 0 0 0 0 0 0 0 0 127 0" result="hardAlpha"/>
<feOffset dx="4.36782" dy="4.36782"/>
<feComposite in2="hardAlpha" operator="out"/>
<feColorMatrix type="matrix" values="0 0 0 0 0.6 0 0 0 0 0.781961 0 0 0 0 1 0 0 0 1 0"/>
<feBlend mode="normal" in2="BackgroundImageFix" result="effect1_dropShadow_381_1465"/>
<feBlend mode="normal" in="SourceGraphic" in2="effect1_dropShadow_381_1465" result="shape"/>
</filter>
</defs>
</svg>
