<svg width="401" height="400" viewBox="0 0 401 400" fill="none" xmlns="http://www.w3.org/2000/svg">
<g filter="url(#filter0_d_386_390)">
<rect x="162.835" y="10" width="211.991" height="87.156" rx="13.945" fill="white" shape-rendering="crispEdges"/>
<rect x="163.271" y="10.4358" width="211.119" height="86.2844" rx="13.5092" stroke="#212528" stroke-width="0.87156" shape-rendering="crispEdges"/>
<path d="M234.303 45.7341H232.56V42.2478C232.56 37.4368 228.655 33.5322 223.844 33.5322C219.033 33.5322 215.128 37.4368 215.128 42.2478V45.7341H213.385C211.468 45.7341 209.899 47.3029 209.899 49.2203V66.6515C209.899 68.5689 211.468 70.1377 213.385 70.1377H234.303C236.22 70.1377 237.789 68.5689 237.789 66.6515V49.2203C237.789 47.3029 236.22 45.7341 234.303 45.7341ZM218.615 42.2478C218.615 39.3542 220.95 37.0185 223.844 37.0185C226.738 37.0185 229.073 39.3542 229.073 42.2478V45.7341H218.615V42.2478ZM234.303 66.6515H213.385V49.2203H234.303V66.6515ZM223.844 61.4221C225.761 61.4221 227.33 59.8533 227.33 57.9359C227.33 56.0185 225.761 54.4497 223.844 54.4497C221.927 54.4497 220.358 56.0185 220.358 57.9359C220.358 59.8533 221.927 61.4221 223.844 61.4221Z" fill="#00FF00"/>
<path d="M287.692 35.7048V50.9175H285.396V35.7048H287.692ZM291.034 50.9175V35.7048H296.457C297.64 35.7048 298.621 35.9202 299.398 36.351C300.176 36.7819 300.758 37.3712 301.144 38.1189C301.53 38.8617 301.723 39.6986 301.723 40.6296C301.723 41.5655 301.528 42.4074 301.136 43.1552C300.75 43.898 300.166 44.4873 299.383 44.923C298.606 45.3539 297.628 45.5693 296.449 45.5693H292.72V43.6231H296.241C296.989 43.6231 297.596 43.4944 298.061 43.2369C298.527 42.9744 298.868 42.6179 299.086 42.1672C299.304 41.7166 299.413 41.204 299.413 40.6296C299.413 40.0552 299.304 39.5451 299.086 39.0994C298.868 38.6537 298.524 38.3046 298.054 38.0521C297.588 37.7995 296.974 37.6732 296.212 37.6732H293.33V50.9175H291.034ZM261.745 64.7011C261.666 63.9979 261.339 63.4532 260.765 63.0669C260.19 62.6757 259.467 62.4801 258.596 62.4801C257.972 62.4801 257.432 62.5792 256.977 62.7772C256.521 62.9704 256.167 63.2378 255.914 63.5795C255.667 63.9162 255.543 64.3 255.543 64.7308C255.543 65.0923 255.627 65.4043 255.796 65.6668C255.969 65.9292 256.194 66.1496 256.471 66.3278C256.754 66.5012 257.056 66.6473 257.378 66.7661C257.7 66.88 258.009 66.9741 258.306 67.0484L259.792 67.4346C260.277 67.5535 260.775 67.7144 261.285 67.9175C261.795 68.1205 262.268 68.3879 262.704 68.7197C263.139 69.0515 263.491 69.4625 263.758 69.9527C264.031 70.443 264.167 71.0298 264.167 71.7132C264.167 72.5749 263.944 73.3399 263.498 74.0085C263.058 74.677 262.416 75.2044 261.575 75.5906C260.738 75.9769 259.725 76.17 258.536 76.17C257.397 76.17 256.412 75.9893 255.58 75.6278C254.748 75.2663 254.097 74.7538 253.627 74.0902C253.156 73.4217 252.896 72.6293 252.847 71.7132H255.149C255.194 72.2629 255.372 72.7209 255.684 73.0874C256.001 73.4489 256.405 73.7188 256.895 73.897C257.39 74.0704 257.932 74.157 258.522 74.157C259.17 74.157 259.747 74.0555 260.252 73.8525C260.762 73.6445 261.164 73.3573 261.456 72.9908C261.748 72.6194 261.894 72.1861 261.894 71.6909C261.894 71.2403 261.765 70.8713 261.508 70.5841C261.255 70.2969 260.911 70.0592 260.475 69.871C260.044 69.6829 259.557 69.517 259.012 69.3734L257.214 68.8831C255.996 68.5513 255.03 68.0635 254.317 67.4198C253.609 66.776 253.255 65.9243 253.255 64.8645C253.255 63.988 253.493 63.2229 253.968 62.5692C254.444 61.9156 255.087 61.408 255.9 61.0465C256.712 60.68 257.628 60.4968 258.648 60.4968C259.678 60.4968 260.587 60.6776 261.374 61.0391C262.166 61.4006 262.79 61.8982 263.246 62.5321C263.701 63.161 263.939 63.884 263.959 64.7011H261.745ZM271.649 76.1478C270.525 76.1478 269.557 75.9076 268.744 75.4272C267.937 74.9419 267.313 74.261 266.873 73.3845C266.437 72.503 266.219 71.4705 266.219 70.287C266.219 69.1183 266.437 68.0883 266.873 67.1969C267.313 66.3056 267.927 65.6098 268.715 65.1096C269.507 64.6095 270.433 64.3594 271.493 64.3594C272.137 64.3594 272.761 64.4659 273.365 64.6788C273.969 64.8918 274.511 65.226 274.991 65.6816C275.472 66.1372 275.851 66.729 276.128 67.4569C276.405 68.1799 276.544 69.0589 276.544 70.0939V70.8813H267.474V69.2174H274.368C274.368 68.633 274.249 68.1155 274.011 67.6649C273.773 67.2093 273.439 66.8503 273.008 66.5878C272.582 66.3254 272.082 66.1941 271.508 66.1941C270.884 66.1941 270.339 66.3477 269.874 66.6547C269.413 66.9568 269.056 67.3529 268.804 67.8432C268.556 68.3285 268.433 68.8559 268.433 69.4254V70.7253C268.433 71.4879 268.566 72.1366 268.834 72.6714C269.106 73.2062 269.485 73.6148 269.97 73.897C270.455 74.1744 271.022 74.313 271.671 74.313C272.092 74.313 272.476 74.2536 272.822 74.1347C273.169 74.0109 273.469 73.8277 273.721 73.5851C273.974 73.3424 274.167 73.0428 274.301 72.6863L276.403 73.0651C276.234 73.6841 275.932 74.2264 275.497 74.6918C275.066 75.1524 274.524 75.5114 273.87 75.7689C273.221 76.0215 272.481 76.1478 271.649 76.1478ZM283.814 76.1478C282.71 76.1478 281.759 75.8977 280.962 75.3975C280.169 74.8924 279.56 74.1966 279.134 73.3102C278.709 72.4238 278.496 71.4086 278.496 70.2647C278.496 69.1059 278.714 68.0833 279.149 67.1969C279.585 66.3056 280.199 65.6098 280.992 65.1096C281.784 64.6095 282.717 64.3594 283.792 64.3594C284.658 64.3594 285.431 64.5204 286.109 64.8422C286.788 65.1592 287.335 65.6048 287.751 66.1793C288.172 66.7537 288.422 67.4247 288.501 68.1923H286.34C286.221 67.6575 285.949 67.1969 285.523 66.8107C285.102 66.4244 284.537 66.2313 283.829 66.2313C283.21 66.2313 282.668 66.3947 282.202 66.7215C281.742 67.0434 281.383 67.504 281.125 68.1032C280.868 68.6974 280.739 69.4006 280.739 70.2127C280.739 71.0447 280.865 71.7627 281.118 72.3669C281.37 72.971 281.727 73.439 282.187 73.7708C282.653 74.1026 283.2 74.2685 283.829 74.2685C284.25 74.2685 284.631 74.1917 284.973 74.0382C285.32 73.8797 285.609 73.6544 285.842 73.3622C286.08 73.0701 286.246 72.7185 286.34 72.3074H288.501C288.422 73.0453 288.182 73.7039 287.781 74.2833C287.38 74.8627 286.842 75.3183 286.169 75.6501C285.5 75.9819 284.715 76.1478 283.814 76.1478ZM298.104 71.1858V64.508H300.332V75.9175H298.148V73.9416H298.03C297.767 74.5507 297.346 75.0583 296.767 75.4644C296.192 75.8655 295.477 76.066 294.62 76.066C293.887 76.066 293.239 75.9051 292.674 75.5832C292.114 75.2564 291.674 74.7736 291.352 74.1347C291.035 73.4959 290.876 72.7061 290.876 71.7652V64.508H293.097V71.4978C293.097 72.2753 293.313 72.8943 293.744 73.3548C294.174 73.8153 294.734 74.0456 295.422 74.0456C295.838 74.0456 296.252 73.9416 296.663 73.7336C297.079 73.5256 297.423 73.2112 297.695 72.7903C297.973 72.3693 298.109 71.8345 298.104 71.1858ZM303.317 75.9175V64.508H305.463V66.3204H305.582C305.79 65.7064 306.157 65.2235 306.681 64.8719C307.211 64.5154 307.811 64.3371 308.479 64.3371C308.618 64.3371 308.781 64.3421 308.969 64.352C309.162 64.3619 309.313 64.3743 309.422 64.3891V66.5136C309.333 66.4888 309.175 66.4616 308.947 66.4318C308.719 66.3972 308.491 66.3798 308.264 66.3798C307.739 66.3798 307.271 66.4913 306.86 66.7141C306.454 66.932 306.132 67.2365 305.894 67.6278C305.656 68.014 305.538 68.4548 305.538 68.95V75.9175H303.317ZM311.344 75.9175V64.508H313.565V75.9175H311.344ZM312.466 62.7475C312.08 62.7475 311.748 62.6188 311.471 62.3613C311.198 62.0988 311.062 61.7868 311.062 61.4253C311.062 61.0589 311.198 60.7469 311.471 60.4894C311.748 60.2269 312.08 60.0957 312.466 60.0957C312.852 60.0957 313.182 60.2269 313.454 60.4894C313.731 60.7469 313.87 61.0589 313.87 61.4253C313.87 61.7868 313.731 62.0988 313.454 62.3613C313.182 62.6188 312.852 62.7475 312.466 62.7475ZM321.879 64.508V66.2907H315.647V64.508H321.879ZM317.318 61.7744H319.539V72.5674C319.539 72.9983 319.604 73.3226 319.733 73.5405C319.861 73.7534 320.027 73.8995 320.23 73.9788C320.438 74.053 320.664 74.0902 320.906 74.0902C321.084 74.0902 321.24 74.0778 321.374 74.053C321.508 74.0283 321.612 74.0085 321.686 73.9936L322.087 75.8283C321.959 75.8779 321.775 75.9274 321.538 75.9769C321.3 76.0314 321.003 76.0611 320.646 76.066C320.062 76.0759 319.517 75.972 319.012 75.7541C318.507 75.5362 318.098 75.1994 317.786 74.7438C317.474 74.2883 317.318 73.7163 317.318 73.028V61.7744ZM325.74 80.196C325.408 80.196 325.106 80.1688 324.834 80.1143C324.561 80.0648 324.358 80.0103 324.225 79.9509L324.76 78.131C325.166 78.24 325.527 78.287 325.844 78.2722C326.161 78.2573 326.441 78.1385 326.683 77.9156C326.931 77.6928 327.149 77.3288 327.337 76.8237L327.612 76.066L323.437 64.508H325.814L328.704 73.3622H328.823L331.712 64.508H334.097L329.395 77.4402C329.177 78.0345 328.899 78.5371 328.563 78.9481C328.226 79.3641 327.825 79.6761 327.359 79.8841C326.894 80.0921 326.354 80.196 325.74 80.196Z" fill="#212528"/>
</g>
<g filter="url(#filter1_d_386_390)">
<rect x="26.4357" y="118.073" width="348.624" height="87.156" rx="13.945" fill="white" shape-rendering="crispEdges"/>
<rect x="26.8715" y="118.509" width="347.752" height="86.2844" rx="13.5092" stroke="#212528" stroke-width="0.87156" shape-rendering="crispEdges"/>
<path d="M82.2614 142.477L66.5734 149.45V159.908C66.5734 169.583 73.2669 178.629 82.2614 180.826C91.2559 178.629 97.9495 169.583 97.9495 159.908V149.45L82.2614 142.477ZM94.4633 159.908C94.4633 167.787 89.2688 175.056 82.2614 177.217C75.2541 175.056 70.0596 167.787 70.0596 159.908V151.716L82.2614 146.294L94.4633 151.716V159.908ZM74.2605 160.937L71.8027 163.394L78.7752 170.367L92.7202 156.422L90.2624 153.947L78.7752 165.434L74.2605 160.937Z" fill="#0074FF"/>
<path d="M123.443 156.696C123.337 155.759 122.901 155.032 122.135 154.517C121.369 153.996 120.405 153.735 119.243 153.735C118.411 153.735 117.692 153.867 117.084 154.131C116.477 154.389 116.005 154.745 115.668 155.201C115.338 155.65 115.173 156.161 115.173 156.736C115.173 157.218 115.285 157.634 115.509 157.984C115.741 158.334 116.041 158.627 116.411 158.865C116.787 159.096 117.19 159.291 117.619 159.45C118.048 159.601 118.461 159.727 118.857 159.826L120.838 160.341C121.485 160.499 122.148 160.714 122.829 160.985C123.509 161.255 124.139 161.612 124.72 162.054C125.301 162.497 125.77 163.045 126.127 163.698C126.49 164.352 126.671 165.134 126.671 166.046C126.671 167.195 126.374 168.215 125.78 169.106C125.192 169.997 124.337 170.701 123.215 171.216C122.099 171.731 120.749 171.988 119.164 171.988C117.645 171.988 116.331 171.747 115.222 171.265C114.113 170.783 113.245 170.1 112.617 169.215C111.99 168.324 111.644 167.267 111.577 166.046H114.648C114.707 166.779 114.945 167.389 115.361 167.878C115.783 168.36 116.322 168.72 116.975 168.957C117.635 169.189 118.358 169.304 119.144 169.304C120.009 169.304 120.778 169.169 121.452 168.898C122.132 168.621 122.667 168.238 123.056 167.749C123.446 167.254 123.641 166.676 123.641 166.016C123.641 165.415 123.469 164.923 123.126 164.54C122.789 164.157 122.33 163.84 121.749 163.589C121.175 163.339 120.524 163.117 119.798 162.926L117.401 162.272C115.777 161.83 114.489 161.179 113.539 160.321C112.594 159.463 112.122 158.327 112.122 156.914C112.122 155.745 112.439 154.725 113.073 153.854C113.707 152.982 114.565 152.305 115.648 151.823C116.731 151.335 117.952 151.09 119.313 151.09C120.686 151.09 121.898 151.331 122.947 151.813C124.004 152.295 124.836 152.959 125.443 153.804C126.051 154.643 126.368 155.607 126.394 156.696H123.443ZM136.647 171.958C135.148 171.958 133.858 171.638 132.775 170.998C131.698 170.351 130.867 169.443 130.279 168.274C129.698 167.099 129.407 165.722 129.407 164.144C129.407 162.586 129.698 161.212 130.279 160.024C130.867 158.835 131.685 157.908 132.735 157.241C133.792 156.574 135.026 156.241 136.439 156.241C137.298 156.241 138.13 156.383 138.935 156.666C139.741 156.95 140.464 157.396 141.104 158.004C141.745 158.611 142.25 159.4 142.619 160.371C142.989 161.335 143.174 162.507 143.174 163.887V164.936H131.081V162.718H140.272C140.272 161.939 140.114 161.249 139.797 160.648C139.48 160.04 139.034 159.562 138.46 159.212C137.892 158.862 137.225 158.687 136.459 158.687C135.627 158.687 134.901 158.892 134.28 159.301C133.666 159.704 133.191 160.232 132.854 160.886C132.524 161.533 132.359 162.236 132.359 162.995V164.728C132.359 165.745 132.537 166.61 132.894 167.323C133.257 168.036 133.762 168.581 134.409 168.957C135.056 169.327 135.812 169.512 136.677 169.512C137.238 169.512 137.75 169.433 138.212 169.274C138.674 169.109 139.074 168.865 139.41 168.541C139.747 168.218 140.005 167.818 140.183 167.343L142.986 167.848C142.761 168.674 142.359 169.397 141.778 170.017C141.203 170.631 140.48 171.11 139.609 171.453C138.744 171.79 137.756 171.958 136.647 171.958ZM152.868 171.958C151.395 171.958 150.127 171.625 149.064 170.958C148.008 170.285 147.196 169.357 146.628 168.175C146.06 166.993 145.776 165.64 145.776 164.114C145.776 162.569 146.067 161.206 146.648 160.024C147.229 158.835 148.048 157.908 149.104 157.241C150.161 156.574 151.405 156.241 152.838 156.241C153.993 156.241 155.023 156.455 155.928 156.884C156.833 157.307 157.562 157.901 158.117 158.667C158.678 159.433 159.011 160.328 159.117 161.351H156.235C156.077 160.638 155.713 160.024 155.146 159.509C154.584 158.994 153.832 158.736 152.887 158.736C152.062 158.736 151.339 158.954 150.718 159.39C150.104 159.819 149.626 160.433 149.282 161.232C148.939 162.025 148.767 162.962 148.767 164.045C148.767 165.154 148.936 166.112 149.272 166.917C149.609 167.723 150.085 168.347 150.699 168.789C151.319 169.231 152.049 169.453 152.887 169.453C153.449 169.453 153.957 169.35 154.413 169.146C154.875 168.934 155.261 168.634 155.571 168.244C155.888 167.855 156.11 167.386 156.235 166.838H159.117C159.011 167.822 158.691 168.7 158.156 169.472C157.622 170.245 156.905 170.852 156.007 171.295C155.116 171.737 154.069 171.958 152.868 171.958ZM171.921 165.342V156.439H174.892V171.651H171.98V169.017H171.822C171.472 169.829 170.91 170.506 170.138 171.047C169.372 171.582 168.418 171.849 167.276 171.849C166.298 171.849 165.433 171.635 164.681 171.206C163.935 170.77 163.347 170.126 162.918 169.274C162.495 168.423 162.284 167.37 162.284 166.115V156.439H165.245V165.758C165.245 166.795 165.532 167.62 166.107 168.234C166.681 168.849 167.427 169.156 168.345 169.156C168.9 169.156 169.451 169.017 169.999 168.74C170.554 168.462 171.013 168.043 171.376 167.482C171.746 166.921 171.927 166.207 171.921 165.342ZM178.871 171.651V156.439H181.733V158.855H181.892C182.169 158.037 182.657 157.393 183.357 156.924C184.064 156.449 184.863 156.211 185.754 156.211C185.939 156.211 186.157 156.217 186.408 156.231C186.665 156.244 186.867 156.26 187.012 156.28V159.113C186.893 159.08 186.682 159.043 186.378 159.004C186.074 158.958 185.771 158.935 185.467 158.935C184.767 158.935 184.143 159.083 183.595 159.38C183.054 159.671 182.624 160.077 182.308 160.598C181.991 161.113 181.832 161.701 181.832 162.361V171.651H178.871ZM195.586 171.958C194.088 171.958 192.797 171.638 191.714 170.998C190.638 170.351 189.806 169.443 189.218 168.274C188.637 167.099 188.347 165.722 188.347 164.144C188.347 162.586 188.637 161.212 189.218 160.024C189.806 158.835 190.624 157.908 191.674 157.241C192.731 156.574 193.965 156.241 195.378 156.241C196.237 156.241 197.069 156.383 197.874 156.666C198.68 156.95 199.403 157.396 200.043 158.004C200.684 158.611 201.189 159.4 201.559 160.371C201.928 161.335 202.113 162.507 202.113 163.887V164.936H190.02V162.718H199.211C199.211 161.939 199.053 161.249 198.736 160.648C198.419 160.04 197.973 159.562 197.399 159.212C196.831 158.862 196.164 158.687 195.398 158.687C194.566 158.687 193.84 158.892 193.219 159.301C192.605 159.704 192.13 160.232 191.793 160.886C191.463 161.533 191.298 162.236 191.298 162.995V164.728C191.298 165.745 191.476 166.61 191.833 167.323C192.196 168.036 192.701 168.581 193.348 168.957C193.995 169.327 194.751 169.512 195.616 169.512C196.177 169.512 196.689 169.433 197.151 169.274C197.613 169.109 198.013 168.865 198.35 168.541C198.686 168.218 198.944 167.818 199.122 167.343L201.925 167.848C201.701 168.674 201.298 169.397 200.717 170.017C200.142 170.631 199.419 171.11 198.548 171.453C197.683 171.79 196.696 171.958 195.586 171.958ZM218.683 171.939C217.323 171.939 216.151 171.691 215.167 171.196C214.19 170.701 213.437 170.027 212.909 169.175C212.38 168.317 212.116 167.346 212.116 166.264C212.116 165.438 212.288 164.705 212.631 164.065C212.975 163.418 213.453 162.82 214.067 162.272C214.682 161.724 215.391 161.173 216.197 160.618L219.465 158.311C220.02 157.947 220.452 157.564 220.763 157.162C221.073 156.752 221.228 156.247 221.228 155.646C221.228 155.171 221.023 154.715 220.614 154.28C220.205 153.844 219.657 153.626 218.97 153.626C218.495 153.626 218.075 153.741 217.712 153.973C217.356 154.204 217.075 154.501 216.87 154.864C216.672 155.22 216.573 155.597 216.573 155.993C216.573 156.455 216.699 156.921 216.95 157.389C217.207 157.858 217.537 158.344 217.94 158.845C218.343 159.341 218.765 159.856 219.208 160.39L228.626 171.651H225.279L217.484 162.49C216.831 161.718 216.223 160.991 215.662 160.311C215.101 159.625 214.645 158.931 214.295 158.231C213.952 157.525 213.78 156.762 213.78 155.943C213.78 155.013 213.992 154.187 214.414 153.467C214.843 152.741 215.441 152.173 216.207 151.764C216.973 151.355 217.871 151.15 218.901 151.15C219.944 151.15 220.839 151.355 221.585 151.764C222.337 152.167 222.915 152.705 223.318 153.378C223.727 154.045 223.932 154.775 223.932 155.567C223.932 156.531 223.691 157.383 223.209 158.122C222.734 158.855 222.077 159.529 221.238 160.143L217.167 163.144C216.375 163.725 215.824 164.299 215.513 164.867C215.21 165.428 215.058 165.867 215.058 166.184C215.058 166.765 215.206 167.303 215.504 167.799C215.807 168.294 216.23 168.69 216.771 168.987C217.319 169.284 217.96 169.433 218.693 169.433C219.445 169.433 220.178 169.271 220.891 168.948C221.611 168.617 222.261 168.145 222.842 167.531C223.43 166.917 223.896 166.181 224.239 165.323C224.582 164.464 224.754 163.504 224.754 162.441H227.428C227.428 163.748 227.28 164.854 226.982 165.758C226.685 166.656 226.325 167.389 225.903 167.957C225.487 168.518 225.094 168.957 224.724 169.274C224.605 169.38 224.493 169.486 224.388 169.591C224.282 169.697 224.17 169.803 224.051 169.908C223.364 170.602 222.532 171.113 221.555 171.443C220.584 171.774 219.627 171.939 218.683 171.939ZM240.338 151.368L245.983 167.888H246.211L251.856 151.368H255.164L247.865 171.651H244.329L237.03 151.368H240.338ZM262.887 171.958C261.388 171.958 260.098 171.638 259.015 170.998C257.938 170.351 257.106 169.443 256.519 168.274C255.938 167.099 255.647 165.722 255.647 164.144C255.647 162.586 255.938 161.212 256.519 160.024C257.106 158.835 257.925 157.908 258.975 157.241C260.031 156.574 261.266 156.241 262.679 156.241C263.538 156.241 264.369 156.383 265.175 156.666C265.981 156.95 266.704 157.396 267.344 158.004C267.984 158.611 268.49 159.4 268.859 160.371C269.229 161.335 269.414 162.507 269.414 163.887V164.936H257.321V162.718H266.512C266.512 161.939 266.354 161.249 266.037 160.648C265.72 160.04 265.274 159.562 264.7 159.212C264.132 158.862 263.465 158.687 262.699 158.687C261.867 158.687 261.141 158.892 260.52 159.301C259.906 159.704 259.431 160.232 259.094 160.886C258.764 161.533 258.599 162.236 258.599 162.995V164.728C258.599 165.745 258.777 166.61 259.134 167.323C259.497 168.036 260.002 168.581 260.649 168.957C261.296 169.327 262.052 169.512 262.917 169.512C263.478 169.512 263.99 169.433 264.452 169.274C264.914 169.109 265.314 168.865 265.65 168.541C265.987 168.218 266.245 167.818 266.423 167.343L269.226 167.848C269.001 168.674 268.599 169.397 268.017 170.017C267.443 170.631 266.72 171.11 265.848 171.453C264.984 171.79 263.996 171.958 262.887 171.958ZM272.7 171.651V156.439H275.562V158.855H275.72C275.998 158.037 276.486 157.393 277.186 156.924C277.893 156.449 278.692 156.211 279.583 156.211C279.768 156.211 279.986 156.217 280.237 156.231C280.494 156.244 280.696 156.26 280.841 156.28V159.113C280.722 159.08 280.511 159.043 280.207 159.004C279.903 158.958 279.599 158.935 279.296 158.935C278.596 158.935 277.972 159.083 277.424 159.38C276.882 159.671 276.453 160.077 276.136 160.598C275.819 161.113 275.661 161.701 275.661 162.361V171.651H272.7ZM283.403 171.651V156.439H286.365V171.651H283.403ZM284.899 154.091C284.384 154.091 283.942 153.92 283.572 153.576C283.209 153.226 283.027 152.81 283.027 152.328C283.027 151.84 283.209 151.424 283.572 151.081C283.942 150.731 284.384 150.556 284.899 150.556C285.414 150.556 285.853 150.731 286.216 151.081C286.586 151.424 286.771 151.84 286.771 152.328C286.771 152.81 286.586 153.226 286.216 153.576C285.853 153.92 285.414 154.091 284.899 154.091ZM297.589 156.439V158.816H288.992V156.439H297.589ZM291.349 171.651V154.676C291.349 153.725 291.557 152.936 291.973 152.309C292.389 151.675 292.94 151.203 293.627 150.892C294.314 150.575 295.06 150.417 295.865 150.417C296.46 150.417 296.968 150.467 297.391 150.566C297.813 150.658 298.127 150.744 298.331 150.823L297.638 153.22C297.499 153.18 297.321 153.134 297.103 153.081C296.885 153.022 296.621 152.992 296.311 152.992C295.591 152.992 295.076 153.17 294.766 153.527C294.462 153.883 294.31 154.398 294.31 155.072V171.651H291.349ZM300.644 171.651V156.439H303.605V171.651H300.644ZM302.14 154.091C301.625 154.091 301.182 153.92 300.812 153.576C300.449 153.226 300.268 152.81 300.268 152.328C300.268 151.84 300.449 151.424 300.812 151.081C301.182 150.731 301.625 150.556 302.14 150.556C302.655 150.556 303.094 150.731 303.457 151.081C303.827 151.424 304.011 151.84 304.011 152.328C304.011 152.81 303.827 153.226 303.457 153.576C303.094 153.92 302.655 154.091 302.14 154.091ZM314.146 171.958C312.647 171.958 311.356 171.638 310.273 170.998C309.197 170.351 308.365 169.443 307.777 168.274C307.196 167.099 306.906 165.722 306.906 164.144C306.906 162.586 307.196 161.212 307.777 160.024C308.365 158.835 309.184 157.908 310.234 157.241C311.29 156.574 312.525 156.241 313.938 156.241C314.796 156.241 315.628 156.383 316.434 156.666C317.239 156.95 317.962 157.396 318.603 158.004C319.243 158.611 319.748 159.4 320.118 160.371C320.488 161.335 320.673 162.507 320.673 163.887V164.936H308.58V162.718H317.771C317.771 161.939 317.612 161.249 317.295 160.648C316.978 160.04 316.533 159.562 315.958 159.212C315.39 158.862 314.724 158.687 313.958 158.687C313.126 158.687 312.399 158.892 311.779 159.301C311.165 159.704 310.689 160.232 310.353 160.886C310.022 161.533 309.857 162.236 309.857 162.995V164.728C309.857 165.745 310.036 166.61 310.392 167.323C310.755 168.036 311.26 168.581 311.907 168.957C312.555 169.327 313.311 169.512 314.175 169.512C314.737 169.512 315.248 169.433 315.711 169.274C316.173 169.109 316.572 168.865 316.909 168.541C317.246 168.218 317.503 167.818 317.682 167.343L320.484 167.848C320.26 168.674 319.857 169.397 319.276 170.017C318.702 170.631 317.979 171.11 317.107 171.453C316.242 171.79 315.255 171.958 314.146 171.958ZM329.653 171.948C328.425 171.948 327.329 171.635 326.365 171.008C325.408 170.374 324.655 169.472 324.107 168.304C323.565 167.129 323.295 165.719 323.295 164.075C323.295 162.431 323.569 161.024 324.117 159.856C324.671 158.687 325.431 157.792 326.395 157.172C327.359 156.551 328.451 156.241 329.673 156.241C330.617 156.241 331.376 156.399 331.951 156.716C332.532 157.026 332.981 157.389 333.298 157.805C333.621 158.221 333.872 158.588 334.051 158.905H334.229V151.368H337.19V171.651H334.298V169.284H334.051C333.872 169.608 333.615 169.978 333.278 170.394C332.948 170.81 332.492 171.173 331.911 171.483C331.33 171.793 330.577 171.948 329.653 171.948ZM330.307 169.423C331.159 169.423 331.878 169.198 332.466 168.749C333.06 168.294 333.509 167.663 333.813 166.858C334.123 166.052 334.278 165.115 334.278 164.045C334.278 162.989 334.126 162.064 333.823 161.272C333.519 160.48 333.073 159.862 332.486 159.42C331.898 158.977 331.172 158.756 330.307 158.756C329.415 158.756 328.673 158.987 328.078 159.45C327.484 159.912 327.035 160.542 326.731 161.341C326.434 162.14 326.286 163.041 326.286 164.045C326.286 165.062 326.438 165.976 326.741 166.788C327.045 167.601 327.494 168.244 328.088 168.72C328.689 169.189 329.429 169.423 330.307 169.423Z" fill="#212528"/>
</g>
<g filter="url(#filter2_d_386_390)">
<rect x="26.4357" y="226.147" width="163.853" height="163.853" rx="13.945" fill="white" shape-rendering="crispEdges"/>
<rect x="26.8715" y="226.583" width="162.982" height="162.982" rx="13.5092" stroke="#212528" stroke-width="0.87156" shape-rendering="crispEdges"/>
<path d="M117.078 265.643L124.05 272.615L117.078 279.588V274.358H110.105V270.872H117.078V265.643ZM104.876 270.872C103.917 270.872 103.133 271.656 103.133 272.615C103.133 273.574 103.917 274.358 104.876 274.358C105.835 274.358 106.619 273.574 106.619 272.615C106.619 271.656 105.835 270.872 104.876 270.872ZM97.9036 270.872C96.9449 270.872 96.1605 271.656 96.1605 272.615C96.1605 273.574 96.9449 274.358 97.9036 274.358C98.8623 274.358 99.6467 273.574 99.6467 272.615C99.6467 271.656 98.8623 270.872 97.9036 270.872ZM99.6467 288.303H106.619V284.817H99.6467V279.588L92.6743 286.56L99.6467 293.532V288.303ZM111.849 288.303C112.807 288.303 113.592 287.519 113.592 286.56C113.592 285.601 112.807 284.817 111.849 284.817C110.89 284.817 110.105 285.601 110.105 286.56C110.105 287.519 110.89 288.303 111.849 288.303ZM118.821 288.303C119.78 288.303 120.564 287.519 120.564 286.56C120.564 285.601 119.78 284.817 118.821 284.817C117.862 284.817 117.078 285.601 117.078 286.56C117.078 287.519 117.862 288.303 118.821 288.303Z" fill="#F2A50D"/>
<path d="M60.4522 314.24V312.264H72.2257V314.24H67.4792V327.477H65.1913V314.24H60.4522ZM75.8153 327.477L72.4578 316.068H74.7531L76.9889 324.446H77.1004L79.3436 316.068H81.6389L83.8673 324.409H83.9788L86.1997 316.068H88.495L85.145 327.477H82.8794L80.5618 319.239H80.391L78.0734 327.477H75.8153ZM95.0614 327.707C93.9918 327.707 93.0583 327.462 92.261 326.972C91.4638 326.482 90.8448 325.796 90.404 324.914C89.9633 324.033 89.7429 323.003 89.7429 321.824C89.7429 320.641 89.9633 319.606 90.404 318.719C90.8448 317.833 91.4638 317.145 92.261 316.654C93.0583 316.164 93.9918 315.919 95.0614 315.919C96.1311 315.919 97.0645 316.164 97.8618 316.654C98.6591 317.145 99.2781 317.833 99.7188 318.719C100.16 319.606 100.38 320.641 100.38 321.824C100.38 323.003 100.16 324.033 99.7188 324.914C99.2781 325.796 98.6591 326.482 97.8618 326.972C97.0645 327.462 96.1311 327.707 95.0614 327.707ZM95.0689 325.843C95.7621 325.843 96.3366 325.66 96.7922 325.293C97.2478 324.927 97.5845 324.439 97.8024 323.83C98.0252 323.221 98.1366 322.55 98.1366 321.817C98.1366 321.089 98.0252 320.42 97.8024 319.811C97.5845 319.197 97.2478 318.705 96.7922 318.333C96.3366 317.962 95.7621 317.776 95.0689 317.776C94.3706 317.776 93.7912 317.962 93.3307 318.333C92.8751 318.705 92.5359 319.197 92.313 319.811C92.0952 320.42 91.9862 321.089 91.9862 321.817C91.9862 322.55 92.0952 323.221 92.313 323.83C92.5359 324.439 92.8751 324.927 93.3307 325.293C93.7912 325.66 94.3706 325.843 95.0689 325.843ZM109.581 320.086V322.01H102.837V320.086H109.581ZM115.015 327.477L111.658 316.068H113.953L116.189 324.446H116.3L118.543 316.068H120.839L123.067 324.409H123.179L125.4 316.068H127.695L124.345 327.477H122.079L119.762 319.239H119.591L117.273 327.477H115.015ZM133.123 327.73C132.4 327.73 131.746 327.596 131.162 327.328C130.577 327.056 130.114 326.662 129.773 326.147C129.436 325.632 129.268 325.001 129.268 324.253C129.268 323.61 129.391 323.08 129.639 322.664C129.887 322.248 130.221 321.918 130.642 321.676C131.063 321.433 131.533 321.25 132.053 321.126C132.573 321.002 133.103 320.908 133.643 320.844C134.326 320.765 134.881 320.7 135.307 320.651C135.733 320.596 136.042 320.51 136.235 320.391C136.428 320.272 136.525 320.079 136.525 319.811V319.759C136.525 319.111 136.342 318.608 135.975 318.251C135.614 317.895 135.074 317.717 134.356 317.717C133.608 317.717 133.019 317.882 132.588 318.214C132.162 318.541 131.867 318.905 131.704 319.306L129.617 318.831C129.864 318.137 130.226 317.578 130.701 317.152C131.182 316.721 131.734 316.409 132.358 316.216C132.982 316.018 133.638 315.919 134.326 315.919C134.782 315.919 135.265 315.973 135.775 316.082C136.29 316.186 136.77 316.38 137.216 316.662C137.666 316.944 138.035 317.348 138.322 317.873C138.61 318.393 138.753 319.068 138.753 319.9V327.477H136.584V325.917H136.495C136.352 326.204 136.136 326.487 135.849 326.764C135.562 327.041 135.193 327.272 134.742 327.455C134.292 327.638 133.752 327.73 133.123 327.73ZM133.606 325.947C134.22 325.947 134.745 325.826 135.18 325.583C135.621 325.34 135.955 325.023 136.183 324.632C136.416 324.236 136.532 323.813 136.532 323.362V321.891C136.453 321.97 136.3 322.045 136.072 322.114C135.849 322.178 135.594 322.235 135.307 322.285C135.019 322.329 134.74 322.371 134.467 322.411C134.195 322.446 133.967 322.475 133.784 322.5C133.353 322.555 132.959 322.646 132.603 322.775C132.251 322.904 131.969 323.09 131.756 323.332C131.548 323.57 131.444 323.887 131.444 324.283C131.444 324.833 131.647 325.249 132.053 325.531C132.459 325.808 132.977 325.947 133.606 325.947ZM142.707 331.756C142.375 331.756 142.073 331.728 141.801 331.674C141.528 331.624 141.325 331.57 141.192 331.51L141.726 329.691C142.132 329.8 142.494 329.847 142.811 329.832C143.128 329.817 143.408 329.698 143.65 329.475C143.898 329.252 144.116 328.888 144.304 328.383L144.579 327.626L140.404 316.068H142.781L145.671 324.922H145.79L148.679 316.068H151.063L146.361 329C146.144 329.594 145.866 330.097 145.53 330.508C145.193 330.924 144.792 331.236 144.326 331.444C143.861 331.652 143.321 331.756 142.707 331.756ZM63.7271 341.068L59.5896 352.477H57.2127L53.0678 341.068H55.4522L58.3417 349.848H58.4606L61.3427 341.068H63.7271ZM70.3436 352.707C69.2195 352.707 68.2514 352.467 67.4392 351.987C66.6321 351.501 66.0081 350.821 65.5674 349.944C65.1316 349.063 64.9137 348.03 64.9137 346.847C64.9137 345.678 65.1316 344.648 65.5674 343.757C66.0081 342.865 66.6222 342.169 67.4095 341.669C68.2019 341.169 69.1279 340.919 70.1876 340.919C70.8314 340.919 71.4553 341.025 72.0595 341.238C72.6636 341.451 73.2059 341.786 73.6862 342.241C74.1666 342.697 74.5454 343.289 74.8227 344.016C75.1001 344.739 75.2387 345.618 75.2387 346.653V347.441H66.169V345.777H73.0623C73.0623 345.193 72.9434 344.675 72.7057 344.224C72.468 343.769 72.1338 343.41 71.7029 343.147C71.2771 342.885 70.7769 342.754 70.2025 342.754C69.5785 342.754 69.0338 342.907 68.5683 343.214C68.1078 343.516 67.7512 343.912 67.4987 344.403C67.2511 344.888 67.1273 345.415 67.1273 345.985V347.285C67.1273 348.047 67.261 348.696 67.5284 349.231C67.8007 349.766 68.1796 350.174 68.6649 350.457C69.1502 350.734 69.7172 350.873 70.3659 350.873C70.7868 350.873 71.1706 350.813 71.5172 350.694C71.8639 350.571 72.1635 350.387 72.416 350.145C72.6686 349.902 72.8617 349.602 72.9954 349.246L75.0976 349.625C74.9292 350.244 74.6271 350.786 74.1914 351.251C73.7605 351.712 73.2183 352.071 72.5646 352.328C71.9159 352.581 71.1756 352.707 70.3436 352.707ZM77.703 352.477V341.068H79.8497V342.88H79.9685C80.1765 342.266 80.543 341.783 81.0679 341.432C81.5978 341.075 82.1969 340.897 82.8655 340.897C83.0041 340.897 83.1675 340.902 83.3557 340.912C83.5489 340.921 83.6999 340.934 83.8088 340.949V343.073C83.7197 343.048 83.5612 343.021 83.3334 342.991C83.1056 342.957 82.8779 342.939 82.6501 342.939C82.1251 342.939 81.6572 343.051 81.2462 343.274C80.8401 343.492 80.5182 343.796 80.2805 344.187C80.0428 344.574 79.924 345.014 79.924 345.51V352.477H77.703ZM85.7308 352.477V341.068H87.9518V352.477H85.7308ZM86.8525 339.307C86.4662 339.307 86.1344 339.178 85.8571 338.921C85.5848 338.658 85.4486 338.346 85.4486 337.985C85.4486 337.618 85.5848 337.306 85.8571 337.049C86.1344 336.787 86.4662 336.655 86.8525 336.655C87.2387 336.655 87.5681 336.787 87.8404 337.049C88.1177 337.306 88.2564 337.618 88.2564 337.985C88.2564 338.346 88.1177 338.658 87.8404 338.921C87.5681 339.178 87.2387 339.307 86.8525 339.307ZM96.3697 341.068V342.85H89.9221V341.068H96.3697ZM91.69 352.477V339.745C91.69 339.032 91.846 338.44 92.158 337.97C92.47 337.495 92.8835 337.141 93.3985 336.908C93.9135 336.67 94.4731 336.551 95.0772 336.551C95.5229 336.551 95.9042 336.588 96.2211 336.663C96.5381 336.732 96.7733 336.796 96.9268 336.856L96.4068 338.653C96.3028 338.624 96.1691 338.589 96.0057 338.549C95.8423 338.505 95.6442 338.483 95.4115 338.483C94.8717 338.483 94.4854 338.616 94.2527 338.884C94.0249 339.151 93.911 339.537 93.911 340.042V352.477H91.69ZM98.6613 352.477V341.068H100.882V352.477H98.6613ZM99.7829 339.307C99.3966 339.307 99.0648 339.178 98.7875 338.921C98.5152 338.658 98.379 338.346 98.379 337.985C98.379 337.618 98.5152 337.306 98.7875 337.049C99.0648 336.787 99.3966 336.655 99.7829 336.655C100.169 336.655 100.498 336.787 100.771 337.049C101.048 337.306 101.187 337.618 101.187 337.985C101.187 338.346 101.048 338.658 100.771 338.921C100.498 339.178 100.169 339.307 99.7829 339.307ZM108.676 352.707C107.572 352.707 106.621 352.457 105.824 351.957C105.031 351.452 104.422 350.756 103.996 349.87C103.571 348.983 103.358 347.968 103.358 346.824C103.358 345.666 103.576 344.643 104.011 343.757C104.447 342.865 105.061 342.169 105.853 341.669C106.646 341.169 107.579 340.919 108.654 340.919C109.52 340.919 110.293 341.08 110.971 341.402C111.65 341.719 112.197 342.164 112.613 342.739C113.034 343.313 113.284 343.984 113.363 344.752H111.202C111.083 344.217 110.81 343.757 110.385 343.37C109.964 342.984 109.399 342.791 108.691 342.791C108.072 342.791 107.53 342.954 107.064 343.281C106.604 343.603 106.245 344.064 105.987 344.663C105.73 345.257 105.601 345.96 105.601 346.772C105.601 347.604 105.727 348.322 105.98 348.926C106.232 349.531 106.589 349.999 107.049 350.33C107.515 350.662 108.062 350.828 108.691 350.828C109.112 350.828 109.493 350.751 109.835 350.598C110.182 350.439 110.471 350.214 110.704 349.922C110.942 349.63 111.108 349.278 111.202 348.867H113.363C113.284 349.605 113.044 350.263 112.643 350.843C112.242 351.422 111.704 351.878 111.031 352.21C110.362 352.541 109.577 352.707 108.676 352.707ZM119.059 352.73C118.336 352.73 117.682 352.596 117.098 352.328C116.513 352.056 116.05 351.662 115.709 351.147C115.372 350.632 115.204 350.001 115.204 349.253C115.204 348.61 115.327 348.08 115.575 347.664C115.823 347.248 116.157 346.918 116.578 346.676C116.999 346.433 117.469 346.25 117.989 346.126C118.509 346.002 119.039 345.908 119.579 345.844C120.262 345.765 120.817 345.7 121.243 345.651C121.668 345.596 121.978 345.51 122.171 345.391C122.364 345.272 122.461 345.079 122.461 344.811V344.759C122.461 344.111 122.278 343.608 121.911 343.251C121.55 342.895 121.01 342.717 120.292 342.717C119.544 342.717 118.955 342.882 118.524 343.214C118.098 343.541 117.803 343.905 117.64 344.306L115.553 343.831C115.8 343.137 116.162 342.578 116.637 342.152C117.118 341.721 117.67 341.409 118.294 341.216C118.918 341.018 119.574 340.919 120.262 340.919C120.718 340.919 121.2 340.973 121.711 341.082C122.226 341.186 122.706 341.38 123.152 341.662C123.602 341.944 123.971 342.348 124.258 342.873C124.546 343.393 124.689 344.068 124.689 344.9V352.477H122.52V350.917H122.431C122.287 351.204 122.072 351.487 121.785 351.764C121.498 352.041 121.129 352.272 120.678 352.455C120.227 352.638 119.688 352.73 119.059 352.73ZM119.542 350.947C120.156 350.947 120.681 350.826 121.116 350.583C121.557 350.34 121.891 350.023 122.119 349.632C122.352 349.236 122.468 348.813 122.468 348.362V346.891C122.389 346.97 122.235 347.045 122.008 347.114C121.785 347.178 121.53 347.235 121.243 347.285C120.955 347.329 120.676 347.371 120.403 347.411C120.131 347.446 119.903 347.475 119.72 347.5C119.289 347.555 118.895 347.646 118.539 347.775C118.187 347.904 117.905 348.09 117.692 348.332C117.484 348.57 117.38 348.887 117.38 349.283C117.38 349.833 117.583 350.249 117.989 350.531C118.395 350.808 118.913 350.947 119.542 350.947ZM132.973 341.068V342.85H126.741V341.068H132.973ZM128.413 338.334H130.633V349.127C130.633 349.558 130.698 349.882 130.827 350.1C130.955 350.313 131.121 350.459 131.324 350.538C131.532 350.613 131.758 350.65 132 350.65C132.179 350.65 132.335 350.637 132.468 350.613C132.602 350.588 132.706 350.568 132.78 350.553L133.181 352.388C133.053 352.437 132.869 352.487 132.632 352.536C132.394 352.591 132.097 352.621 131.74 352.626C131.156 352.636 130.611 352.532 130.106 352.314C129.601 352.096 129.192 351.759 128.88 351.303C128.568 350.848 128.413 350.276 128.413 349.588V338.334ZM135.43 352.477V341.068H137.651V352.477H135.43ZM136.552 339.307C136.166 339.307 135.834 339.178 135.556 338.921C135.284 338.658 135.148 338.346 135.148 337.985C135.148 337.618 135.284 337.306 135.556 337.049C135.834 336.787 136.166 336.655 136.552 336.655C136.938 336.655 137.267 336.787 137.54 337.049C137.817 337.306 137.956 337.618 137.956 337.985C137.956 338.346 137.817 338.658 137.54 338.921C137.267 339.178 136.938 339.307 136.552 339.307ZM145.445 352.707C144.375 352.707 143.442 352.462 142.645 351.972C141.847 351.482 141.228 350.796 140.788 349.914C140.347 349.033 140.127 348.003 140.127 346.824C140.127 345.641 140.347 344.606 140.788 343.719C141.228 342.833 141.847 342.145 142.645 341.654C143.442 341.164 144.375 340.919 145.445 340.919C146.515 340.919 147.448 341.164 148.245 341.654C149.043 342.145 149.662 342.833 150.102 343.719C150.543 344.606 150.764 345.641 150.764 346.824C150.764 348.003 150.543 349.033 150.102 349.914C149.662 350.796 149.043 351.482 148.245 351.972C147.448 352.462 146.515 352.707 145.445 352.707ZM145.452 350.843C146.146 350.843 146.72 350.66 147.176 350.293C147.631 349.927 147.968 349.439 148.186 348.83C148.409 348.221 148.52 347.55 148.52 346.817C148.52 346.089 148.409 345.42 148.186 344.811C147.968 344.197 147.631 343.705 147.176 343.333C146.72 342.962 146.146 342.776 145.452 342.776C144.754 342.776 144.175 342.962 143.714 343.333C143.259 343.705 142.92 344.197 142.697 344.811C142.479 345.42 142.37 346.089 142.37 346.817C142.37 347.55 142.479 348.221 142.697 348.83C142.92 349.439 143.259 349.927 143.714 350.293C144.175 350.66 144.754 350.843 145.452 350.843ZM155.464 345.703V352.477H153.243V341.068H155.375V342.925H155.516C155.778 342.32 156.189 341.835 156.749 341.469C157.313 341.102 158.024 340.919 158.881 340.919C159.658 340.919 160.339 341.082 160.923 341.409C161.508 341.731 161.961 342.211 162.283 342.85C162.605 343.489 162.765 344.279 162.765 345.22V352.477H160.544V345.487C160.544 344.66 160.329 344.014 159.898 343.549C159.467 343.078 158.876 342.843 158.123 342.843C157.608 342.843 157.15 342.954 156.749 343.177C156.353 343.4 156.038 343.727 155.805 344.158C155.578 344.583 155.464 345.099 155.464 345.703Z" fill="#212528"/>
</g>
<defs>
<filter id="filter0_d_386_390" x="162.835" y="10" width="215.477" height="90.642" filterUnits="userSpaceOnUse" color-interpolation-filters="sRGB">
<feFlood flood-opacity="0" result="BackgroundImageFix"/>
<feColorMatrix in="SourceAlpha" type="matrix" values="0 0 0 0 0 0 0 0 0 0 0 0 0 0 0 0 0 0 127 0" result="hardAlpha"/>
<feOffset dx="3.48624" dy="3.48624"/>
<feComposite in2="hardAlpha" operator="out"/>
<feColorMatrix type="matrix" values="0 0 0 0 0.667568 0 0 0 0 0.932432 0 0 0 0 0.667568 0 0 0 1 0"/>
<feBlend mode="normal" in2="BackgroundImageFix" result="effect1_dropShadow_386_390"/>
<feBlend mode="normal" in="SourceGraphic" in2="effect1_dropShadow_386_390" result="shape"/>
</filter>
<filter id="filter1_d_386_390" x="26.4357" y="118.073" width="352.11" height="90.642" filterUnits="userSpaceOnUse" color-interpolation-filters="sRGB">
<feFlood flood-opacity="0" result="BackgroundImageFix"/>
<feColorMatrix in="SourceAlpha" type="matrix" values="0 0 0 0 0 0 0 0 0 0 0 0 0 0 0 0 0 0 127 0" result="hardAlpha"/>
<feOffset dx="3.48624" dy="3.48624"/>
<feComposite in2="hardAlpha" operator="out"/>
<feColorMatrix type="matrix" values="0 0 0 0 0.667568 0 0 0 0 0.789405 0 0 0 0 0.932432 0 0 0 1 0"/>
<feBlend mode="normal" in2="BackgroundImageFix" result="effect1_dropShadow_386_390"/>
<feBlend mode="normal" in="SourceGraphic" in2="effect1_dropShadow_386_390" result="shape"/>
</filter>
<filter id="filter2_d_386_390" x="26.4357" y="226.147" width="167.339" height="167.339" filterUnits="userSpaceOnUse" color-interpolation-filters="sRGB">
<feFlood flood-opacity="0" result="BackgroundImageFix"/>
<feColorMatrix in="SourceAlpha" type="matrix" values="0 0 0 0 0 0 0 0 0 0 0 0 0 0 0 0 0 0 127 0" result="hardAlpha"/>
<feOffset dx="3.48624" dy="3.48624"/>
<feComposite in2="hardAlpha" operator="out"/>
<feColorMatrix type="matrix" values="0 0 0 0 0.932432 0 0 0 0 0.842378 0 0 0 0 0.667568 0 0 0 1 0"/>
<feBlend mode="normal" in2="BackgroundImageFix" result="effect1_dropShadow_386_390"/>
<feBlend mode="normal" in="SourceGraphic" in2="effect1_dropShadow_386_390" result="shape"/>
</filter>
</defs>
</svg>
