<svg width="401" height="400" viewBox="0 0 401 400" fill="none" xmlns="http://www.w3.org/2000/svg">
<g filter="url(#filter0_d_387_220)">
<rect x="10.25" y="59.6499" width="159.6" height="178.6" rx="15.2" fill="white" shape-rendering="crispEdges"/>
<rect x="10.725" y="60.1249" width="158.65" height="177.65" rx="14.725" stroke="#212528" stroke-width="0.95" shape-rendering="crispEdges"/>
<path d="M99.55 101.95L107.15 109.55L99.55 117.15V111.45H91.95V107.65H99.55V101.95ZM86.25 107.65C85.205 107.65 84.35 108.505 84.35 109.55C84.35 110.595 85.205 111.45 86.25 111.45C87.295 111.45 88.15 110.595 88.15 109.55C88.15 108.505 87.295 107.65 86.25 107.65ZM78.65 107.65C77.605 107.65 76.75 108.505 76.75 109.55C76.75 110.595 77.605 111.45 78.65 111.45C79.695 111.45 80.55 110.595 80.55 109.55C80.55 108.505 79.695 107.65 78.65 107.65ZM80.55 126.65H88.15V122.85H80.55V117.15L72.95 124.75L80.55 132.35V126.65ZM93.85 126.65C94.895 126.65 95.75 125.795 95.75 124.75C95.75 123.705 94.895 122.85 93.85 122.85C92.805 122.85 91.95 123.705 91.95 124.75C91.95 125.795 92.805 126.65 93.85 126.65ZM101.45 126.65C102.495 126.65 103.35 125.795 103.35 124.75C103.35 123.705 102.495 122.85 101.45 122.85C100.405 122.85 99.55 123.705 99.55 124.75C99.55 125.795 100.405 126.65 101.45 126.65Z" fill="#F2A50D"/>
<path d="M37.828 155.122V152.968H50.6611V155.122H45.4874V169.55H42.9936V155.122H37.828ZM54.5738 169.55L50.9141 157.113H53.416L55.853 166.246H55.9745L58.4196 157.113H60.9215L63.3505 166.206H63.4719L65.8928 157.113H68.3946L64.7431 169.55H62.2736L59.7475 160.571H59.5613L57.0351 169.55H54.5738ZM75.552 169.801C74.3861 169.801 73.3686 169.534 72.4996 168.999C71.6306 168.465 70.9559 167.717 70.4755 166.756C69.9951 165.796 69.7549 164.673 69.7549 163.388C69.7549 162.098 69.9951 160.97 70.4755 160.004C70.9559 159.038 71.6306 158.287 72.4996 157.753C73.3686 157.219 74.3861 156.952 75.552 156.952C76.7179 156.952 77.7354 157.219 78.6044 157.753C79.4735 158.287 80.1482 159.038 80.6286 160.004C81.109 160.97 81.3492 162.098 81.3492 163.388C81.3492 164.673 81.109 165.796 80.6286 166.756C80.1482 167.717 79.4735 168.465 78.6044 168.999C77.7354 169.534 76.7179 169.801 75.552 169.801ZM75.5601 167.769C76.3158 167.769 76.9419 167.569 77.4385 167.169C77.9351 166.77 78.3022 166.238 78.5397 165.574C78.7826 164.91 78.904 164.179 78.904 163.38C78.904 162.587 78.7826 161.858 78.5397 161.194C78.3022 160.525 77.9351 159.988 77.4385 159.583C76.9419 159.178 76.3158 158.976 75.5601 158.976C74.799 158.976 74.1675 159.178 73.6655 159.583C73.1689 159.988 72.7992 160.525 72.5563 161.194C72.3188 161.858 72.2 162.587 72.2 163.38C72.2 164.179 72.3188 164.91 72.5563 165.574C72.7992 166.238 73.1689 166.77 73.6655 167.169C74.1675 167.569 74.799 167.769 75.5601 167.769ZM91.3788 161.494V163.591H84.0271V161.494H91.3788ZM97.3015 169.55L93.6418 157.113H96.1437L98.5808 166.246H98.7022L101.147 157.113H103.649L106.078 166.206H106.2L108.621 157.113H111.122L107.471 169.55H105.001L102.475 160.571H102.289L99.7629 169.55H97.3015ZM117.039 169.825C116.251 169.825 115.538 169.679 114.901 169.388C114.265 169.091 113.76 168.662 113.387 168.101C113.02 167.539 112.837 166.851 112.837 166.036C112.837 165.334 112.972 164.757 113.242 164.303C113.512 163.85 113.876 163.491 114.335 163.226C114.794 162.962 115.306 162.762 115.873 162.627C116.44 162.492 117.017 162.39 117.606 162.32C118.351 162.233 118.955 162.163 119.419 162.109C119.884 162.05 120.221 161.955 120.431 161.826C120.642 161.696 120.747 161.486 120.747 161.194V161.137C120.747 160.43 120.547 159.882 120.148 159.494C119.754 159.105 119.166 158.911 118.383 158.911C117.568 158.911 116.926 159.092 116.456 159.453C115.992 159.81 115.671 160.206 115.493 160.644L113.217 160.125C113.487 159.37 113.881 158.76 114.399 158.296C114.923 157.826 115.525 157.486 116.205 157.275C116.885 157.059 117.6 156.952 118.351 156.952C118.847 156.952 119.373 157.011 119.929 157.13C120.491 157.243 121.014 157.453 121.5 157.761C121.991 158.069 122.394 158.509 122.707 159.081C123.02 159.648 123.176 160.384 123.176 161.291V169.55H120.812V167.85H120.715C120.558 168.163 120.323 168.47 120.01 168.773C119.697 169.075 119.295 169.326 118.804 169.526C118.313 169.725 117.724 169.825 117.039 169.825ZM117.565 167.882C118.235 167.882 118.807 167.75 119.282 167.485C119.762 167.221 120.126 166.875 120.375 166.449C120.628 166.017 120.755 165.555 120.755 165.064V163.461C120.669 163.548 120.502 163.628 120.253 163.704C120.01 163.774 119.732 163.836 119.419 163.89C119.106 163.939 118.801 163.985 118.504 164.028C118.208 164.066 117.959 164.098 117.76 164.125C117.29 164.184 116.861 164.284 116.472 164.425C116.089 164.565 115.781 164.767 115.549 165.032C115.322 165.291 115.209 165.636 115.209 166.068C115.209 166.667 115.43 167.121 115.873 167.428C116.316 167.731 116.88 167.882 117.565 167.882ZM127.486 174.213C127.124 174.213 126.795 174.184 126.498 174.124C126.201 174.07 125.98 174.011 125.834 173.946L126.417 171.963C126.859 172.081 127.253 172.133 127.599 172.116C127.944 172.1 128.249 171.971 128.514 171.728C128.784 171.485 129.021 171.088 129.226 170.538L129.526 169.712L124.976 157.113H127.567L130.716 166.765H130.846L133.995 157.113H136.594L131.469 171.21C131.232 171.857 130.929 172.405 130.562 172.853C130.195 173.307 129.758 173.647 129.251 173.873C128.743 174.1 128.155 174.213 127.486 174.213ZM41.3976 185.113L36.8878 197.55H34.2969L29.779 185.113H32.378L35.5275 194.684H35.6571L38.7986 185.113H41.3976ZM48.6096 197.801C47.3843 197.801 46.3291 197.539 45.4438 197.015C44.564 196.486 43.8839 195.744 43.4035 194.789C42.9285 193.828 42.691 192.703 42.691 191.413C42.691 190.139 42.9285 189.016 43.4035 188.044C43.8839 187.073 44.5532 186.314 45.4115 185.769C46.2751 185.224 47.2845 184.952 48.4396 184.952C49.1413 184.952 49.8214 185.068 50.4799 185.3C51.1384 185.532 51.7295 185.896 52.2531 186.393C52.7767 186.889 53.1896 187.534 53.4919 188.328C53.7941 189.116 53.9453 190.074 53.9453 191.202V192.06H44.0593V190.247H51.573C51.573 189.61 51.4434 189.046 51.1843 188.554C50.9252 188.058 50.5609 187.667 50.0913 187.38C49.6271 187.094 49.0819 186.951 48.4558 186.951C47.7757 186.951 47.1819 187.119 46.6745 187.453C46.1725 187.783 45.7839 188.214 45.5086 188.749C45.2387 189.278 45.1038 189.853 45.1038 190.473V191.89C45.1038 192.722 45.2495 193.429 45.541 194.012C45.8379 194.595 46.2508 195.04 46.7798 195.348C47.3088 195.65 47.9268 195.801 48.6339 195.801C49.0927 195.801 49.511 195.736 49.8889 195.607C50.2667 195.472 50.5933 195.272 50.8686 195.007C51.1438 194.743 51.3544 194.416 51.5001 194.028L53.7914 194.441C53.6079 195.115 53.2786 195.706 52.8036 196.214C52.334 196.716 51.743 197.107 51.0305 197.388C50.3234 197.663 49.5164 197.801 48.6096 197.801ZM56.6313 197.55V185.113H58.9712V187.089H59.1008C59.3275 186.42 59.7269 185.893 60.2991 185.51C60.8766 185.122 61.5297 184.927 62.2584 184.927C62.4096 184.927 62.5877 184.933 62.7928 184.943C63.0033 184.954 63.168 184.968 63.2867 184.984V187.3C63.1896 187.273 63.0168 187.243 62.7685 187.21C62.5202 187.173 62.2719 187.154 62.0236 187.154C61.4515 187.154 60.9414 187.275 60.4934 187.518C60.0508 187.756 59.6999 188.088 59.4408 188.514C59.1817 188.935 59.0522 189.415 59.0522 189.955V197.55H56.6313ZM65.3817 197.55V185.113H67.8026V197.55H65.3817ZM66.6043 183.195C66.1833 183.195 65.8216 183.054 65.5193 182.774C65.2225 182.487 65.074 182.147 65.074 181.753C65.074 181.354 65.2225 181.014 65.5193 180.733C65.8216 180.447 66.1833 180.304 66.6043 180.304C67.0253 180.304 67.3843 180.447 67.6811 180.733C67.9834 181.014 68.1345 181.354 68.1345 181.753C68.1345 182.147 67.9834 182.487 67.6811 182.774C67.3843 183.054 67.0253 183.195 66.6043 183.195ZM76.978 185.113V187.057H69.9502V185.113H76.978ZM71.8772 197.55V183.672C71.8772 182.895 72.0472 182.25 72.3873 181.737C72.7273 181.219 73.178 180.833 73.7394 180.579C74.3008 180.32 74.9107 180.191 75.5692 180.191C76.055 180.191 76.4707 180.231 76.8161 180.312C77.1616 180.388 77.418 180.458 77.5853 180.523L77.0185 182.482C76.9052 182.45 76.7594 182.412 76.5813 182.369C76.4032 182.32 76.1873 182.296 75.9336 182.296C75.3452 182.296 74.9242 182.442 74.6705 182.733C74.4222 183.025 74.2981 183.446 74.2981 183.996V197.55H71.8772ZM79.4758 197.55V185.113H81.8967V197.55H79.4758ZM80.6984 183.195C80.2774 183.195 79.9158 183.054 79.6135 182.774C79.3166 182.487 79.1682 182.147 79.1682 181.753C79.1682 181.354 79.3166 181.014 79.6135 180.733C79.9158 180.447 80.2774 180.304 80.6984 180.304C81.1194 180.304 81.4784 180.447 81.7753 180.733C82.0775 181.014 82.2287 181.354 82.2287 181.753C82.2287 182.147 82.0775 182.487 81.7753 182.774C81.4784 183.054 81.1194 183.195 80.6984 183.195ZM90.3921 197.801C89.1884 197.801 88.152 197.528 87.283 196.983C86.4193 196.432 85.7554 195.674 85.2912 194.708C84.827 193.742 84.5949 192.635 84.5949 191.388C84.5949 190.125 84.8324 189.011 85.3074 188.044C85.7824 187.073 86.4517 186.314 87.3154 185.769C88.179 185.224 89.1965 184.952 90.3678 184.952C91.3124 184.952 92.1544 185.127 92.8939 185.478C93.6334 185.823 94.2299 186.309 94.6833 186.935C95.1421 187.561 95.4147 188.293 95.501 189.129H93.1449C93.0154 188.546 92.7185 188.044 92.2543 187.623C91.7955 187.202 91.1801 186.992 90.4083 186.992C89.7335 186.992 89.1425 187.17 88.6351 187.526C88.1331 187.877 87.7418 188.379 87.4611 189.032C87.1804 189.68 87.0401 190.446 87.0401 191.332C87.0401 192.238 87.1777 193.021 87.453 193.68C87.7283 194.338 88.1169 194.848 88.6189 195.21C89.1263 195.572 89.7228 195.752 90.4083 195.752C90.8671 195.752 91.2827 195.669 91.6551 195.501C92.033 195.329 92.3487 195.083 92.6024 194.765C92.8615 194.446 93.0424 194.063 93.1449 193.615H95.501C95.4147 194.419 95.1529 195.137 94.7156 195.769C94.2784 196.4 93.6928 196.897 92.9587 197.258C92.23 197.62 91.3745 197.801 90.3921 197.801ZM101.709 197.825C100.921 197.825 100.209 197.679 99.5716 197.388C98.9346 197.091 98.43 196.662 98.0575 196.101C97.6905 195.539 97.5069 194.851 97.5069 194.036C97.5069 193.334 97.6419 192.757 97.9118 192.303C98.1817 191.85 98.546 191.491 99.0048 191.226C99.4636 190.962 99.9764 190.762 100.543 190.627C101.11 190.492 101.687 190.39 102.276 190.32C103.021 190.233 103.625 190.163 104.089 190.109C104.554 190.05 104.891 189.955 105.102 189.826C105.312 189.696 105.417 189.486 105.417 189.194V189.137C105.417 188.43 105.218 187.882 104.818 187.494C104.424 187.105 103.836 186.911 103.053 186.911C102.238 186.911 101.596 187.092 101.126 187.453C100.662 187.81 100.341 188.206 100.163 188.644L97.8875 188.125C98.1574 187.37 98.5514 186.76 99.0696 186.296C99.5932 185.826 100.195 185.486 100.875 185.275C101.555 185.059 102.27 184.952 103.021 184.952C103.517 184.952 104.044 185.011 104.6 185.13C105.161 185.243 105.685 185.453 106.17 185.761C106.661 186.069 107.064 186.509 107.377 187.081C107.69 187.648 107.846 188.384 107.846 189.291V197.55H105.482V195.85H105.385C105.228 196.163 104.994 196.47 104.681 196.773C104.367 197.075 103.965 197.326 103.474 197.526C102.983 197.725 102.395 197.825 101.709 197.825ZM102.235 195.882C102.905 195.882 103.477 195.75 103.952 195.485C104.432 195.221 104.797 194.875 105.045 194.449C105.299 194.017 105.425 193.555 105.425 193.064V191.461C105.339 191.548 105.172 191.628 104.923 191.704C104.681 191.774 104.403 191.836 104.089 191.89C103.776 191.939 103.471 191.985 103.175 192.028C102.878 192.066 102.629 192.098 102.43 192.125C101.96 192.184 101.531 192.284 101.142 192.425C100.759 192.565 100.451 192.767 100.219 193.032C99.9926 193.291 99.8792 193.636 99.8792 194.068C99.8792 194.667 100.101 195.121 100.543 195.428C100.986 195.731 101.55 195.882 102.235 195.882ZM116.876 185.113V187.057H110.083V185.113H116.876ZM111.905 182.134H114.326V193.898C114.326 194.368 114.396 194.721 114.536 194.959C114.676 195.191 114.857 195.35 115.079 195.437C115.305 195.518 115.551 195.558 115.815 195.558C116.01 195.558 116.18 195.545 116.325 195.518C116.471 195.491 116.585 195.469 116.666 195.453L117.103 197.453C116.962 197.507 116.763 197.561 116.504 197.615C116.244 197.674 115.921 197.706 115.532 197.712C114.895 197.723 114.301 197.609 113.751 197.372C113.2 197.134 112.755 196.767 112.415 196.271C112.075 195.774 111.905 195.151 111.905 194.4V182.134ZM119.554 197.55V185.113H121.975V197.55H119.554ZM120.777 183.195C120.356 183.195 119.994 183.054 119.692 182.774C119.395 182.487 119.246 182.147 119.246 181.753C119.246 181.354 119.395 181.014 119.692 180.733C119.994 180.447 120.356 180.304 120.777 180.304C121.198 180.304 121.557 180.447 121.853 180.733C122.156 181.014 122.307 181.354 122.307 181.753C122.307 182.147 122.156 182.487 121.853 182.774C121.557 183.054 121.198 183.195 120.777 183.195ZM130.47 197.801C129.304 197.801 128.287 197.534 127.418 196.999C126.549 196.465 125.874 195.717 125.394 194.756C124.913 193.796 124.673 192.673 124.673 191.388C124.673 190.098 124.913 188.97 125.394 188.004C125.874 187.038 126.549 186.287 127.418 185.753C128.287 185.219 129.304 184.952 130.47 184.952C131.636 184.952 132.654 185.219 133.523 185.753C134.392 186.287 135.066 187.038 135.547 188.004C136.027 188.97 136.267 190.098 136.267 191.388C136.267 192.673 136.027 193.796 135.547 194.756C135.066 195.717 134.392 196.465 133.523 196.999C132.654 197.534 131.636 197.801 130.47 197.801ZM130.478 195.769C131.234 195.769 131.86 195.569 132.357 195.169C132.853 194.77 133.22 194.238 133.458 193.574C133.701 192.91 133.822 192.179 133.822 191.38C133.822 190.587 133.701 189.858 133.458 189.194C133.22 188.525 132.853 187.988 132.357 187.583C131.86 187.178 131.234 186.976 130.478 186.976C129.717 186.976 129.086 187.178 128.584 187.583C128.087 187.988 127.717 188.525 127.474 189.194C127.237 189.858 127.118 190.587 127.118 191.38C127.118 192.179 127.237 192.91 127.474 193.574C127.717 194.238 128.087 194.77 128.584 195.169C129.086 195.569 129.717 195.769 130.478 195.769ZM141.39 190.166V197.55H138.97V185.113H141.293V187.138H141.447C141.733 186.479 142.181 185.95 142.791 185.551C143.407 185.151 144.181 184.952 145.115 184.952C145.962 184.952 146.705 185.13 147.341 185.486C147.978 185.837 148.472 186.36 148.823 187.057C149.174 187.753 149.349 188.614 149.349 189.639V197.55H146.929V189.931C146.929 189.029 146.694 188.325 146.224 187.818C145.755 187.305 145.11 187.049 144.289 187.049C143.728 187.049 143.228 187.17 142.791 187.413C142.359 187.656 142.017 188.012 141.763 188.482C141.515 188.946 141.39 189.507 141.39 190.166Z" fill="#212528"/>
</g>
<g filter="url(#filter1_d_387_220)">
<rect x="188.85" y="10.25" width="201.4" height="228" rx="15.2" fill="white" shape-rendering="crispEdges"/>
<rect x="189.325" y="10.725" width="200.45" height="227.05" rx="14.725" stroke="#212528" stroke-width="0.95" shape-rendering="crispEdges"/>
<path d="M289.55 51.7832L266.75 61.9165V77.1165C266.75 91.1765 276.478 104.325 289.55 107.517C302.622 104.325 312.35 91.1765 312.35 77.1165V61.9165L289.55 51.7832ZM307.283 77.1165C307.283 88.5672 299.734 99.1312 289.55 102.273C279.366 99.1312 271.817 88.5672 271.817 77.1165V65.2099L289.55 57.3312L307.283 65.2099V77.1165ZM277.922 78.6112L274.35 82.1832L284.483 92.3165L304.75 72.0499L301.178 68.4525L284.483 85.1472L277.922 78.6112Z" fill="#0074FF"/>
<path d="M235.266 138.949C235.151 137.927 234.676 137.135 233.841 136.574C233.007 136.005 231.956 135.721 230.689 135.721C229.782 135.721 228.998 135.865 228.336 136.153C227.674 136.434 227.159 136.822 226.792 137.319C226.432 137.808 226.252 138.366 226.252 138.992C226.252 139.517 226.375 139.971 226.619 140.352C226.871 140.734 227.199 141.054 227.602 141.313C228.012 141.565 228.451 141.777 228.919 141.95C229.386 142.116 229.836 142.252 230.268 142.36L232.427 142.922C233.132 143.094 233.856 143.328 234.597 143.623C235.338 143.918 236.026 144.307 236.659 144.789C237.292 145.271 237.803 145.869 238.192 146.581C238.588 147.294 238.786 148.147 238.786 149.14C238.786 150.392 238.462 151.504 237.814 152.476C237.174 153.447 236.242 154.214 235.018 154.775C233.802 155.336 232.33 155.617 230.603 155.617C228.947 155.617 227.515 155.354 226.306 154.829C225.097 154.304 224.151 153.559 223.467 152.594C222.783 151.623 222.405 150.471 222.333 149.14H225.68C225.745 149.939 226.004 150.604 226.457 151.137C226.918 151.662 227.504 152.055 228.217 152.314C228.937 152.566 229.725 152.691 230.581 152.691C231.524 152.691 232.362 152.544 233.097 152.249C233.838 151.947 234.421 151.529 234.845 150.997C235.27 150.457 235.482 149.827 235.482 149.107C235.482 148.452 235.295 147.916 234.921 147.499C234.554 147.081 234.054 146.736 233.42 146.463C232.794 146.189 232.085 145.948 231.294 145.739L228.681 145.027C226.911 144.545 225.507 143.836 224.471 142.9C223.442 141.964 222.927 140.727 222.927 139.186C222.927 137.912 223.273 136.801 223.964 135.851C224.654 134.901 225.59 134.163 226.77 133.638C227.951 133.105 229.282 132.839 230.765 132.839C232.262 132.839 233.582 133.101 234.727 133.627C235.878 134.152 236.785 134.875 237.447 135.797C238.109 136.711 238.455 137.761 238.483 138.949H235.266ZM249.659 155.585C248.026 155.585 246.619 155.236 245.438 154.538C244.265 153.832 243.358 152.843 242.718 151.569C242.085 150.288 241.768 148.787 241.768 147.067C241.768 145.369 242.085 143.872 242.718 142.576C243.358 141.281 244.251 140.27 245.395 139.543C246.547 138.816 247.893 138.452 249.433 138.452C250.368 138.452 251.275 138.607 252.153 138.916C253.031 139.226 253.819 139.712 254.517 140.374C255.215 141.036 255.766 141.896 256.169 142.954C256.572 144.005 256.774 145.282 256.774 146.786V147.931H243.592V145.513H253.611C253.611 144.663 253.438 143.911 253.092 143.256C252.747 142.594 252.261 142.072 251.635 141.691C251.016 141.309 250.289 141.119 249.454 141.119C248.548 141.119 247.756 141.342 247.079 141.788C246.41 142.227 245.892 142.803 245.525 143.515C245.165 144.221 244.985 144.987 244.985 145.815V147.704C244.985 148.812 245.179 149.755 245.568 150.532C245.964 151.31 246.514 151.903 247.22 152.314C247.925 152.717 248.749 152.918 249.692 152.918C250.304 152.918 250.861 152.832 251.365 152.659C251.869 152.479 252.304 152.213 252.671 151.86C253.038 151.508 253.319 151.072 253.513 150.554L256.569 151.105C256.324 152.004 255.885 152.792 255.251 153.469C254.625 154.138 253.837 154.66 252.887 155.034C251.944 155.401 250.869 155.585 249.659 155.585ZM267.34 155.585C265.735 155.585 264.353 155.221 263.194 154.494C262.043 153.76 261.157 152.749 260.539 151.461C259.92 150.173 259.61 148.697 259.61 147.035C259.61 145.351 259.927 143.864 260.56 142.576C261.193 141.281 262.086 140.27 263.237 139.543C264.389 138.816 265.746 138.452 267.307 138.452C268.567 138.452 269.689 138.686 270.675 139.154C271.661 139.615 272.457 140.262 273.061 141.097C273.673 141.932 274.036 142.907 274.152 144.023H271.01C270.837 143.245 270.442 142.576 269.823 142.015C269.211 141.453 268.39 141.173 267.361 141.173C266.462 141.173 265.674 141.41 264.997 141.885C264.328 142.353 263.806 143.022 263.432 143.893C263.057 144.757 262.87 145.779 262.87 146.959C262.87 148.168 263.054 149.212 263.421 150.09C263.788 150.968 264.306 151.648 264.975 152.13C265.652 152.612 266.447 152.853 267.361 152.853C267.973 152.853 268.527 152.742 269.024 152.519C269.528 152.288 269.949 151.961 270.287 151.536C270.632 151.112 270.873 150.601 271.01 150.003H274.152C274.036 151.076 273.687 152.033 273.104 152.875C272.522 153.717 271.741 154.379 270.762 154.861C269.79 155.344 268.65 155.585 267.34 155.585ZM288.107 148.373V138.668H291.346V155.25H288.172V152.378H287.999C287.618 153.264 287.006 154.001 286.164 154.591C285.329 155.174 284.289 155.466 283.044 155.466C281.979 155.466 281.036 155.232 280.216 154.764C279.403 154.289 278.762 153.588 278.294 152.659C277.834 151.731 277.603 150.583 277.603 149.215V138.668H280.831V148.827C280.831 149.957 281.144 150.856 281.771 151.526C282.397 152.195 283.21 152.53 284.21 152.53C284.815 152.53 285.416 152.378 286.013 152.076C286.618 151.774 287.118 151.317 287.514 150.705C287.917 150.093 288.115 149.316 288.107 148.373ZM295.683 155.25V138.668H298.803V141.302H298.976C299.278 140.41 299.811 139.708 300.573 139.197C301.344 138.679 302.214 138.42 303.186 138.42C303.388 138.42 303.625 138.427 303.898 138.441C304.179 138.456 304.399 138.474 304.557 138.495V141.583C304.427 141.547 304.197 141.507 303.866 141.464C303.535 141.414 303.204 141.389 302.873 141.389C302.11 141.389 301.43 141.551 300.833 141.874C300.242 142.191 299.775 142.634 299.429 143.202C299.084 143.764 298.911 144.404 298.911 145.124V155.25H295.683ZM313.903 155.585C312.269 155.585 310.862 155.236 309.682 154.538C308.509 153.832 307.602 152.843 306.962 151.569C306.328 150.288 306.012 148.787 306.012 147.067C306.012 145.369 306.328 143.872 306.962 142.576C307.602 141.281 308.495 140.27 309.639 139.543C310.79 138.816 312.136 138.452 313.676 138.452C314.612 138.452 315.519 138.607 316.397 138.916C317.275 139.226 318.063 139.712 318.761 140.374C319.459 141.036 320.01 141.896 320.413 142.954C320.816 144.005 321.017 145.282 321.017 146.786V147.931H307.836V145.513H317.854C317.854 144.663 317.682 143.911 317.336 143.256C316.991 142.594 316.505 142.072 315.879 141.691C315.26 141.309 314.533 141.119 313.698 141.119C312.791 141.119 312 141.342 311.323 141.788C310.654 142.227 310.136 142.803 309.769 143.515C309.409 144.221 309.229 144.987 309.229 145.815V147.704C309.229 148.812 309.423 149.755 309.812 150.532C310.208 151.31 310.758 151.903 311.463 152.314C312.169 152.717 312.993 152.918 313.936 152.918C314.547 152.918 315.105 152.832 315.609 152.659C316.113 152.479 316.548 152.213 316.915 151.86C317.282 151.508 317.563 151.072 317.757 150.554L320.812 151.105C320.568 152.004 320.129 152.792 319.495 153.469C318.869 154.138 318.081 154.66 317.131 155.034C316.188 155.401 315.112 155.585 313.903 155.585ZM339.078 155.563C337.596 155.563 336.318 155.293 335.246 154.753C334.181 154.214 333.36 153.48 332.784 152.551C332.209 151.616 331.921 150.558 331.921 149.377C331.921 148.478 332.108 147.679 332.482 146.981C332.856 146.275 333.378 145.624 334.048 145.027C334.717 144.429 335.49 143.828 336.369 143.224L339.931 140.709C340.536 140.313 341.007 139.895 341.345 139.456C341.683 139.01 341.853 138.459 341.853 137.805C341.853 137.286 341.63 136.79 341.183 136.315C340.737 135.84 340.14 135.602 339.391 135.602C338.873 135.602 338.416 135.728 338.02 135.98C337.632 136.232 337.326 136.556 337.103 136.952C336.887 137.34 336.779 137.751 336.779 138.182C336.779 138.686 336.915 139.194 337.189 139.705C337.47 140.216 337.83 140.745 338.269 141.291C338.708 141.831 339.168 142.393 339.65 142.976L349.917 155.25H346.268L337.772 145.264C337.059 144.422 336.397 143.63 335.786 142.889C335.174 142.141 334.677 141.385 334.296 140.622C333.922 139.852 333.734 139.021 333.734 138.128C333.734 137.114 333.965 136.214 334.425 135.43C334.893 134.638 335.544 134.019 336.379 133.573C337.214 133.127 338.193 132.903 339.316 132.903C340.453 132.903 341.428 133.127 342.241 133.573C343.062 134.012 343.691 134.598 344.13 135.332C344.577 136.059 344.8 136.855 344.8 137.718C344.8 138.769 344.537 139.697 344.012 140.503C343.494 141.302 342.777 142.036 341.863 142.706L337.426 145.977C336.563 146.61 335.962 147.236 335.624 147.855C335.293 148.467 335.127 148.945 335.127 149.291C335.127 149.924 335.289 150.511 335.613 151.051C335.944 151.59 336.405 152.022 336.995 152.346C337.592 152.67 338.29 152.832 339.089 152.832C339.909 152.832 340.708 152.655 341.486 152.303C342.27 151.943 342.979 151.428 343.612 150.759C344.253 150.09 344.76 149.287 345.134 148.352C345.509 147.416 345.696 146.369 345.696 145.21H348.611C348.611 146.635 348.449 147.841 348.125 148.827C347.801 149.805 347.409 150.604 346.948 151.223C346.495 151.835 346.066 152.314 345.663 152.659C345.534 152.774 345.412 152.889 345.296 153.005C345.181 153.12 345.059 153.235 344.929 153.35C344.181 154.106 343.274 154.663 342.209 155.023C341.151 155.383 340.107 155.563 339.078 155.563ZM237.728 170.141L243.881 188.148H244.129L250.283 170.141H253.889L245.932 192.25H242.078L234.122 170.141H237.728ZM262.306 192.585C260.673 192.585 259.266 192.236 258.085 191.538C256.912 190.832 256.005 189.843 255.365 188.569C254.731 187.288 254.415 185.787 254.415 184.067C254.415 182.369 254.731 180.872 255.365 179.576C256.005 178.281 256.898 177.27 258.042 176.543C259.194 175.816 260.539 175.452 262.08 175.452C263.015 175.452 263.922 175.607 264.8 175.916C265.678 176.226 266.466 176.712 267.164 177.374C267.862 178.036 268.413 178.896 268.816 179.954C269.219 181.005 269.421 182.282 269.421 183.786V184.931H256.239V182.513H266.257C266.257 181.663 266.085 180.911 265.739 180.256C265.394 179.594 264.908 179.072 264.282 178.691C263.663 178.309 262.936 178.119 262.101 178.119C261.194 178.119 260.403 178.342 259.726 178.788C259.057 179.227 258.539 179.803 258.172 180.515C257.812 181.221 257.632 181.987 257.632 182.815V184.704C257.632 185.812 257.826 186.755 258.215 187.532C258.611 188.31 259.161 188.903 259.867 189.314C260.572 189.717 261.396 189.918 262.339 189.918C262.95 189.918 263.508 189.832 264.012 189.659C264.516 189.479 264.951 189.213 265.318 188.86C265.685 188.508 265.966 188.072 266.16 187.554L269.215 188.105C268.971 189.004 268.532 189.792 267.898 190.469C267.272 191.138 266.484 191.66 265.534 192.034C264.591 192.401 263.515 192.585 262.306 192.585ZM273.002 192.25V175.668H276.122V178.302H276.295C276.597 177.41 277.129 176.708 277.892 176.197C278.662 175.679 279.533 175.42 280.505 175.42C280.706 175.42 280.944 175.427 281.217 175.441C281.498 175.456 281.717 175.474 281.876 175.495V178.583C281.746 178.547 281.516 178.507 281.185 178.464C280.854 178.414 280.523 178.389 280.192 178.389C279.429 178.389 278.749 178.551 278.151 178.874C277.561 179.191 277.093 179.634 276.748 180.202C276.402 180.764 276.23 181.404 276.23 182.124V192.25H273.002ZM284.669 192.25V175.668H287.897V192.25H284.669ZM286.299 173.11C285.738 173.11 285.256 172.923 284.853 172.548C284.457 172.167 284.259 171.713 284.259 171.188C284.259 170.655 284.457 170.202 284.853 169.828C285.256 169.446 285.738 169.256 286.299 169.256C286.861 169.256 287.339 169.446 287.735 169.828C288.138 170.202 288.34 170.655 288.34 171.188C288.34 171.713 288.138 172.167 287.735 172.548C287.339 172.923 286.861 173.11 286.299 173.11ZM300.131 175.668V178.259H290.76V175.668H300.131ZM293.33 192.25V173.747C293.33 172.71 293.556 171.85 294.01 171.166C294.463 170.476 295.064 169.961 295.813 169.623C296.561 169.277 297.374 169.105 298.252 169.105C298.9 169.105 299.454 169.159 299.915 169.266C300.376 169.367 300.717 169.461 300.941 169.547L300.185 172.16C300.034 172.116 299.839 172.066 299.602 172.009C299.364 171.944 299.077 171.911 298.738 171.911C297.954 171.911 297.392 172.106 297.054 172.494C296.723 172.883 296.558 173.444 296.558 174.178V192.25H293.33ZM303.461 192.25V175.668H306.689V192.25H303.461ZM305.091 173.11C304.53 173.11 304.048 172.923 303.645 172.548C303.249 172.167 303.051 171.713 303.051 171.188C303.051 170.655 303.249 170.202 303.645 169.828C304.048 169.446 304.53 169.256 305.091 169.256C305.653 169.256 306.131 169.446 306.527 169.828C306.93 170.202 307.132 170.655 307.132 171.188C307.132 171.713 306.93 172.167 306.527 172.548C306.131 172.923 305.653 173.11 305.091 173.11ZM318.178 192.585C316.544 192.585 315.137 192.236 313.957 191.538C312.784 190.832 311.877 189.843 311.237 188.569C310.603 187.288 310.287 185.787 310.287 184.067C310.287 182.369 310.603 180.872 311.237 179.576C311.877 178.281 312.77 177.27 313.914 176.543C315.065 175.816 316.411 175.452 317.951 175.452C318.887 175.452 319.794 175.607 320.672 175.916C321.55 176.226 322.338 176.712 323.036 177.374C323.734 178.036 324.285 178.896 324.688 179.954C325.091 181.005 325.292 182.282 325.292 183.786V184.931H312.111V182.513H322.129C322.129 181.663 321.957 180.911 321.611 180.256C321.266 179.594 320.78 179.072 320.154 178.691C319.535 178.309 318.808 178.119 317.973 178.119C317.066 178.119 316.275 178.342 315.598 178.788C314.929 179.227 314.411 179.803 314.044 180.515C313.684 181.221 313.504 181.987 313.504 182.815V184.704C313.504 185.812 313.698 186.755 314.087 187.532C314.483 188.31 315.033 188.903 315.738 189.314C316.444 189.717 317.268 189.918 318.211 189.918C318.822 189.918 319.38 189.832 319.884 189.659C320.388 189.479 320.823 189.213 321.19 188.86C321.557 188.508 321.838 188.072 322.032 187.554L325.087 188.105C324.843 189.004 324.404 189.792 323.77 190.469C323.144 191.138 322.356 191.66 321.406 192.034C320.463 192.401 319.387 192.585 318.178 192.585ZM335.081 192.574C333.743 192.574 332.548 192.232 331.497 191.548C330.454 190.857 329.633 189.875 329.036 188.601C328.446 187.32 328.15 185.784 328.15 183.991C328.15 182.199 328.449 180.666 329.047 179.393C329.651 178.119 330.479 177.144 331.529 176.467C332.58 175.791 333.771 175.452 335.103 175.452C336.132 175.452 336.96 175.625 337.586 175.97C338.219 176.309 338.708 176.705 339.054 177.158C339.407 177.611 339.68 178.011 339.874 178.356H340.069V170.141H343.297V192.25H340.144V189.67H339.874C339.68 190.023 339.399 190.426 339.032 190.879C338.672 191.332 338.176 191.728 337.543 192.066C336.909 192.405 336.089 192.574 335.081 192.574ZM335.794 189.821C336.722 189.821 337.507 189.576 338.147 189.087C338.795 188.59 339.284 187.903 339.615 187.025C339.954 186.147 340.123 185.125 340.123 183.959C340.123 182.808 339.957 181.8 339.626 180.936C339.295 180.073 338.809 179.4 338.169 178.918C337.528 178.435 336.736 178.194 335.794 178.194C334.822 178.194 334.012 178.446 333.365 178.95C332.717 179.454 332.228 180.141 331.897 181.012C331.573 181.883 331.411 182.865 331.411 183.959C331.411 185.067 331.576 186.064 331.907 186.949C332.238 187.835 332.728 188.536 333.375 189.055C334.03 189.566 334.836 189.821 335.794 189.821Z" fill="#212528"/>
</g>
<g filter="url(#filter2_d_387_220)">
<rect x="10.25" y="295.25" width="380" height="95" rx="15.2" fill="white" shape-rendering="crispEdges"/>
<rect x="10.725" y="295.725" width="379.05" height="94.05" rx="14.725" stroke="#212528" stroke-width="0.95" shape-rendering="crispEdges"/>
<path d="M151.85 336.1H149.95V332.3C149.95 327.056 145.694 322.8 140.45 322.8C135.206 322.8 130.95 327.056 130.95 332.3V336.1H129.05C126.96 336.1 125.25 337.81 125.25 339.9V358.9C125.25 360.99 126.96 362.7 129.05 362.7H151.85C153.94 362.7 155.65 360.99 155.65 358.9V339.9C155.65 337.81 153.94 336.1 151.85 336.1ZM134.75 332.3C134.75 329.146 137.296 326.6 140.45 326.6C143.604 326.6 146.15 329.146 146.15 332.3V336.1H134.75V332.3ZM151.85 358.9H129.05V339.9H151.85V358.9ZM140.45 353.2C142.54 353.2 144.25 351.49 144.25 349.4C144.25 347.31 142.54 345.6 140.45 345.6C138.36 345.6 136.65 347.31 136.65 349.4C136.65 351.49 138.36 353.2 140.45 353.2Z" fill="#00FF00"/>
<path d="M175.621 334.168V350.75H173.119V334.168H175.621ZM179.264 350.75V334.168H185.175C186.465 334.168 187.534 334.403 188.381 334.873C189.228 335.342 189.863 335.985 190.284 336.8C190.705 337.609 190.915 338.521 190.915 339.536C190.915 340.556 190.702 341.474 190.276 342.289C189.855 343.099 189.218 343.741 188.365 344.216C187.517 344.686 186.451 344.92 185.167 344.92H181.102V342.799H184.94C185.755 342.799 186.416 342.659 186.924 342.378C187.431 342.092 187.803 341.703 188.041 341.212C188.278 340.721 188.397 340.162 188.397 339.536C188.397 338.91 188.278 338.354 188.041 337.868C187.803 337.383 187.428 337.002 186.916 336.727C186.408 336.451 185.739 336.314 184.908 336.314H181.766V350.75H179.264ZM202.892 338.524C202.806 337.758 202.45 337.164 201.823 336.743C201.197 336.316 200.409 336.103 199.459 336.103C198.779 336.103 198.191 336.211 197.694 336.427C197.198 336.638 196.812 336.929 196.536 337.302C196.266 337.669 196.132 338.087 196.132 338.557C196.132 338.951 196.223 339.291 196.407 339.577C196.596 339.863 196.841 340.103 197.144 340.297C197.451 340.486 197.781 340.645 198.131 340.775C198.482 340.899 198.82 341.002 199.143 341.083L200.763 341.504C201.292 341.633 201.834 341.809 202.39 342.03C202.946 342.251 203.462 342.543 203.937 342.904C204.412 343.266 204.795 343.714 205.086 344.248C205.383 344.783 205.532 345.422 205.532 346.167C205.532 347.107 205.289 347.94 204.803 348.669C204.323 349.398 203.624 349.973 202.706 350.394C201.794 350.815 200.69 351.025 199.394 351.025C198.153 351.025 197.079 350.828 196.172 350.434C195.265 350.04 194.555 349.482 194.043 348.758C193.53 348.03 193.246 347.166 193.192 346.167H195.702C195.751 346.766 195.945 347.266 196.285 347.665C196.631 348.059 197.071 348.353 197.605 348.548C198.145 348.737 198.736 348.831 199.378 348.831C200.085 348.831 200.714 348.72 201.265 348.499C201.821 348.272 202.258 347.959 202.576 347.56C202.895 347.155 203.054 346.683 203.054 346.143C203.054 345.652 202.914 345.25 202.633 344.937C202.358 344.624 201.983 344.364 201.508 344.159C201.038 343.954 200.506 343.773 199.913 343.617L197.953 343.083C196.625 342.721 195.573 342.189 194.796 341.488C194.024 340.786 193.638 339.857 193.638 338.702C193.638 337.747 193.897 336.913 194.415 336.2C194.933 335.488 195.635 334.935 196.52 334.541C197.405 334.141 198.404 333.941 199.516 333.941C200.639 333.941 201.629 334.138 202.487 334.533C203.351 334.927 204.031 335.469 204.528 336.16C205.024 336.845 205.283 337.634 205.305 338.524H202.892ZM213.687 351.001C212.462 351.001 211.406 350.739 210.521 350.216C209.641 349.687 208.961 348.944 208.481 347.989C208.006 347.028 207.768 345.903 207.768 344.613C207.768 343.339 208.006 342.216 208.481 341.245C208.961 340.273 209.631 339.515 210.489 338.969C211.352 338.424 212.362 338.152 213.517 338.152C214.219 338.152 214.899 338.268 215.557 338.5C216.216 338.732 216.807 339.096 217.33 339.593C217.854 340.089 218.267 340.735 218.569 341.528C218.871 342.316 219.023 343.274 219.023 344.402V345.261H209.137V343.447H216.65C216.65 342.81 216.521 342.246 216.262 341.755C216.003 341.258 215.638 340.867 215.169 340.581C214.704 340.295 214.159 340.152 213.533 340.152C212.853 340.152 212.259 340.319 211.752 340.654C211.25 340.983 210.861 341.415 210.586 341.949C210.316 342.478 210.181 343.053 210.181 343.674V345.09C210.181 345.922 210.327 346.629 210.618 347.212C210.915 347.795 211.328 348.24 211.857 348.548C212.386 348.85 213.004 349.001 213.711 349.001C214.17 349.001 214.588 348.936 214.966 348.807C215.344 348.672 215.671 348.472 215.946 348.208C216.221 347.943 216.432 347.617 216.577 347.228L218.869 347.641C218.685 348.316 218.356 348.907 217.881 349.414C217.411 349.916 216.82 350.307 216.108 350.588C215.401 350.863 214.594 351.001 213.687 351.001ZM226.947 351.001C225.743 351.001 224.707 350.728 223.838 350.183C222.974 349.633 222.31 348.874 221.846 347.908C221.382 346.942 221.15 345.835 221.15 344.588C221.15 343.325 221.387 342.211 221.862 341.245C222.337 340.273 223.007 339.515 223.87 338.969C224.734 338.424 225.752 338.152 226.923 338.152C227.867 338.152 228.709 338.327 229.449 338.678C230.188 339.023 230.785 339.509 231.238 340.135C231.697 340.762 231.97 341.493 232.056 342.33H229.7C229.57 341.747 229.274 341.245 228.809 340.824C228.351 340.403 227.735 340.192 226.963 340.192C226.289 340.192 225.698 340.37 225.19 340.726C224.688 341.077 224.297 341.579 224.016 342.232C223.735 342.88 223.595 343.647 223.595 344.532C223.595 345.439 223.733 346.221 224.008 346.88C224.283 347.538 224.672 348.048 225.174 348.41C225.681 348.772 226.278 348.953 226.963 348.953C227.422 348.953 227.838 348.869 228.21 348.702C228.588 348.529 228.904 348.283 229.158 347.965C229.417 347.646 229.597 347.263 229.7 346.815H232.056C231.97 347.619 231.708 348.337 231.271 348.969C230.833 349.6 230.248 350.097 229.514 350.459C228.785 350.82 227.93 351.001 226.947 351.001ZM242.523 345.592V338.314H244.952V350.75H242.572V348.596H242.442C242.156 349.26 241.697 349.813 241.066 350.256C240.439 350.693 239.659 350.912 238.726 350.912C237.927 350.912 237.22 350.737 236.604 350.386C235.994 350.029 235.514 349.503 235.163 348.807C234.818 348.111 234.645 347.25 234.645 346.224V338.314H237.066V345.933C237.066 346.78 237.301 347.455 237.77 347.957C238.24 348.459 238.85 348.71 239.6 348.71C240.053 348.71 240.504 348.596 240.952 348.37C241.406 348.143 241.781 347.8 242.078 347.341C242.38 346.883 242.528 346.3 242.523 345.592ZM248.205 350.75V338.314H250.545V340.289H250.674C250.901 339.62 251.3 339.094 251.872 338.71C252.45 338.322 253.103 338.127 253.832 338.127C253.983 338.127 254.161 338.133 254.366 338.144C254.577 338.154 254.741 338.168 254.86 338.184V340.5C254.763 340.473 254.59 340.443 254.342 340.411C254.094 340.373 253.845 340.354 253.597 340.354C253.025 340.354 252.515 340.475 252.067 340.718C251.624 340.956 251.273 341.288 251.014 341.714C250.755 342.135 250.626 342.616 250.626 343.155V350.75H248.205ZM256.955 350.75V338.314H259.376V350.75H256.955ZM258.178 336.395C257.757 336.395 257.395 336.254 257.093 335.974C256.796 335.688 256.647 335.348 256.647 334.954C256.647 334.554 256.796 334.214 257.093 333.933C257.395 333.647 257.757 333.504 258.178 333.504C258.599 333.504 258.958 333.647 259.255 333.933C259.557 334.214 259.708 334.554 259.708 334.954C259.708 335.348 259.557 335.688 259.255 335.974C258.958 336.254 258.599 336.395 258.178 336.395ZM268.438 338.314V340.257H261.645V338.314H268.438ZM263.467 335.334H265.888V347.098C265.888 347.568 265.958 347.922 266.098 348.159C266.239 348.391 266.419 348.55 266.641 348.637C266.867 348.718 267.113 348.758 267.377 348.758C267.572 348.758 267.742 348.745 267.888 348.718C268.033 348.691 268.147 348.669 268.228 348.653L268.665 350.653C268.524 350.707 268.325 350.761 268.066 350.815C267.807 350.874 267.483 350.907 267.094 350.912C266.457 350.923 265.863 350.809 265.313 350.572C264.762 350.334 264.317 349.967 263.977 349.471C263.637 348.974 263.467 348.351 263.467 347.6V335.334ZM272.646 355.414C272.285 355.414 271.955 355.384 271.659 355.325C271.362 355.271 271.14 355.211 270.995 355.146L271.578 353.163C272.02 353.282 272.414 353.333 272.76 353.317C273.105 353.3 273.41 353.171 273.675 352.928C273.944 352.685 274.182 352.288 274.387 351.738L274.687 350.912L270.136 338.314H272.727L275.877 347.965H276.006L279.156 338.314H281.755L276.63 352.41C276.392 353.058 276.09 353.605 275.723 354.053C275.356 354.507 274.919 354.847 274.411 355.074C273.904 355.3 273.316 355.414 272.646 355.414Z" fill="#212528"/>
</g>
<defs>
<filter id="filter0_d_387_220" x="10.25" y="59.6499" width="163.4" height="182.4" filterUnits="userSpaceOnUse" color-interpolation-filters="sRGB">
<feFlood flood-opacity="0" result="BackgroundImageFix"/>
<feColorMatrix in="SourceAlpha" type="matrix" values="0 0 0 0 0 0 0 0 0 0 0 0 0 0 0 0 0 0 127 0" result="hardAlpha"/>
<feOffset dx="3.8" dy="3.8"/>
<feComposite in2="hardAlpha" operator="out"/>
<feColorMatrix type="matrix" values="0 0 0 0 0.932432 0 0 0 0 0.842378 0 0 0 0 0.667568 0 0 0 1 0"/>
<feBlend mode="normal" in2="BackgroundImageFix" result="effect1_dropShadow_387_220"/>
<feBlend mode="normal" in="SourceGraphic" in2="effect1_dropShadow_387_220" result="shape"/>
</filter>
<filter id="filter1_d_387_220" x="188.85" y="10.25" width="205.2" height="231.8" filterUnits="userSpaceOnUse" color-interpolation-filters="sRGB">
<feFlood flood-opacity="0" result="BackgroundImageFix"/>
<feColorMatrix in="SourceAlpha" type="matrix" values="0 0 0 0 0 0 0 0 0 0 0 0 0 0 0 0 0 0 127 0" result="hardAlpha"/>
<feOffset dx="3.8" dy="3.8"/>
<feComposite in2="hardAlpha" operator="out"/>
<feColorMatrix type="matrix" values="0 0 0 0 0.667568 0 0 0 0 0.789405 0 0 0 0 0.932432 0 0 0 1 0"/>
<feBlend mode="normal" in2="BackgroundImageFix" result="effect1_dropShadow_387_220"/>
<feBlend mode="normal" in="SourceGraphic" in2="effect1_dropShadow_387_220" result="shape"/>
</filter>
<filter id="filter2_d_387_220" x="10.25" y="295.25" width="383.8" height="98.8" filterUnits="userSpaceOnUse" color-interpolation-filters="sRGB">
<feFlood flood-opacity="0" result="BackgroundImageFix"/>
<feColorMatrix in="SourceAlpha" type="matrix" values="0 0 0 0 0 0 0 0 0 0 0 0 0 0 0 0 0 0 127 0" result="hardAlpha"/>
<feOffset dx="3.8" dy="3.8"/>
<feComposite in2="hardAlpha" operator="out"/>
<feColorMatrix type="matrix" values="0 0 0 0 0.667568 0 0 0 0 0.932432 0 0 0 0 0.667568 0 0 0 1 0"/>
<feBlend mode="normal" in2="BackgroundImageFix" result="effect1_dropShadow_387_220"/>
<feBlend mode="normal" in="SourceGraphic" in2="effect1_dropShadow_387_220" result="shape"/>
</filter>
</defs>
</svg>
