<svg width="401" height="400" viewBox="0 0 401 400" fill="none" xmlns="http://www.w3.org/2000/svg">
<g filter="url(#filter0_d_387_271)">
<rect x="10.9284" y="9.56342" width="280.638" height="75.8481" rx="15.1696" fill="white" shape-rendering="crispEdges"/>
<rect x="11.4025" y="10.0375" width="279.69" height="74.9" rx="14.6956" stroke="#212528" stroke-width="0.948101" shape-rendering="crispEdges"/>
<path d="M48.5655 55.4875V38.9388H54.4642C55.7463 38.9388 56.8102 39.1596 57.6559 39.6014C58.5071 40.0431 59.1427 40.6545 59.5629 41.4356C59.9831 42.2113 60.1932 43.1083 60.1932 44.1264C60.1932 45.1391 59.9804 46.0307 59.5548 46.801C59.1346 47.566 58.499 48.1612 57.6478 48.5868C56.8021 49.0124 55.7382 49.2251 54.4561 49.2251H49.9876V47.0758H54.2298C55.0379 47.0758 55.6951 46.9599 56.2015 46.7283C56.7132 46.4967 57.0876 46.16 57.3246 45.7182C57.5617 45.2765 57.6802 44.7459 57.6802 44.1264C57.6802 43.5015 57.559 42.9601 57.3165 42.5022C57.0795 42.0444 56.7051 41.6942 56.1934 41.4518C55.687 41.204 55.0217 41.0801 54.1975 41.0801H51.0623V55.4875H48.5655ZM56.7348 48.0212L60.8234 55.4875H57.9791L53.9713 48.0212H56.7348ZM68.2312 55.7379C67.0083 55.7379 65.9552 55.4767 65.0717 54.9542C64.1936 54.4262 63.5149 53.6855 63.0355 52.732C62.5614 51.7732 62.3244 50.65 62.3244 49.3625C62.3244 48.0912 62.5614 46.9707 63.0355 46.0011C63.5149 45.0314 64.1829 44.2745 65.0394 43.7305C65.9013 43.1864 66.9087 42.9143 68.0615 42.9143C68.7618 42.9143 69.4405 43.0302 70.0977 43.2618C70.7549 43.4934 71.3448 43.8571 71.8673 44.3527C72.3899 44.8483 72.802 45.492 73.1036 46.2839C73.4053 47.0704 73.5561 48.0265 73.5561 49.1524V50.0089H63.69V48.1989H71.1886C71.1886 47.5633 71.0593 47.0003 70.8007 46.5101C70.5422 46.0145 70.1785 45.624 69.7099 45.3385C69.2466 45.053 68.7025 44.9102 68.0776 44.9102C67.3989 44.9102 66.8063 45.0772 66.2999 45.4112C65.799 45.7398 65.4111 46.1707 65.1364 46.7041C64.867 47.232 64.7323 47.8057 64.7323 48.4252V49.8393C64.7323 50.6688 64.8778 51.3745 65.1687 51.9563C65.465 52.5381 65.8771 52.9825 66.405 53.2896C66.9329 53.5913 67.5497 53.7421 68.2554 53.7421C68.7133 53.7421 69.1308 53.6774 69.5079 53.5482C69.8849 53.4135 70.2109 53.2142 70.4856 52.9502C70.7603 52.6862 70.9704 52.3603 71.1159 51.9725L73.4026 52.3846C73.2195 53.0579 72.8909 53.6478 72.4168 54.1542C71.9481 54.6552 71.3583 55.0457 70.6472 55.3258C69.9415 55.6006 69.1362 55.7379 68.2312 55.7379ZM79.8488 55.7622C79.0623 55.7622 78.3512 55.6167 77.7155 55.3258C77.0799 55.0296 76.5762 54.6013 76.2045 54.0411C75.8382 53.4808 75.655 52.794 75.655 51.9806C75.655 51.2803 75.7897 50.7039 76.0591 50.2514C76.3284 49.7989 76.692 49.4406 77.1499 49.1767C77.6078 48.9127 78.1196 48.7134 78.6852 48.5787C79.2508 48.444 79.8272 48.3417 80.4144 48.2717C81.1578 48.1855 81.7611 48.1154 82.2244 48.0616C82.6877 48.0023 83.0244 47.908 83.2345 47.7787C83.4445 47.6495 83.5496 47.4394 83.5496 47.1485V47.0919C83.5496 46.3862 83.3503 45.8395 82.9516 45.4516C82.5584 45.0637 81.9712 44.8698 81.1901 44.8698C80.3767 44.8698 79.7356 45.0503 79.267 45.4112C78.8037 45.7667 78.4832 46.1627 78.3054 46.599L76.0348 46.0819C76.3042 45.3277 76.6974 44.719 77.2146 44.2557C77.7371 43.787 78.3377 43.4476 79.0165 43.2376C79.6952 43.0221 80.409 42.9143 81.1578 42.9143C81.6534 42.9143 82.1786 42.9736 82.7335 43.0921C83.2937 43.2052 83.8162 43.4153 84.3011 43.7224C84.7913 44.0294 85.1926 44.4685 85.505 45.0395C85.8175 45.6051 85.9737 46.3404 85.9737 47.2454V55.4875H83.6142V53.7906H83.5173C83.361 54.103 83.1267 54.4101 82.8143 54.7117C82.5018 55.0134 82.1005 55.2639 81.6103 55.4632C81.1201 55.6625 80.5329 55.7622 79.8488 55.7622ZM80.374 53.8229C81.042 53.8229 81.613 53.6909 82.087 53.427C82.5665 53.163 82.9301 52.8182 83.1779 52.3927C83.4311 51.9617 83.5577 51.5011 83.5577 51.0109V49.411C83.4715 49.4972 83.3045 49.578 83.0567 49.6534C82.8143 49.7234 82.5368 49.7854 82.2244 49.8393C81.912 49.8877 81.6076 49.9335 81.3113 49.9766C81.015 50.0143 80.7672 50.0466 80.5679 50.0736C80.0993 50.1328 79.671 50.2325 79.2831 50.3726C78.9007 50.5126 78.5936 50.7146 78.362 50.9786C78.1357 51.2372 78.0226 51.5819 78.0226 52.0129C78.0226 52.6108 78.2435 53.0633 78.6852 53.3704C79.1269 53.6721 79.6898 53.8229 80.374 53.8229ZM91.6078 38.9388V55.4875H89.1917V38.9388H91.6078ZM102.171 47.4475V49.5403H94.8339V47.4475H102.171ZM117.207 43.076V45.0152H110.427V43.076H117.207ZM112.245 40.1024H114.661V51.8432C114.661 52.3119 114.731 52.6647 114.871 52.9017C115.011 53.1334 115.192 53.2923 115.413 53.3785C115.639 53.4593 115.884 53.4997 116.148 53.4997C116.342 53.4997 116.512 53.4862 116.657 53.4593C116.802 53.4323 116.916 53.4108 116.996 53.3946L117.433 55.3905C117.293 55.4444 117.093 55.4982 116.835 55.5521C116.576 55.6114 116.253 55.6437 115.865 55.6491C115.23 55.6598 114.637 55.5467 114.087 55.3097C113.538 55.0727 113.094 54.7064 112.754 54.2108C112.415 53.7152 112.245 53.093 112.245 52.3442V40.1024ZM119.879 55.4875V43.076H122.295V55.4875H119.879ZM121.099 41.1609C120.679 41.1609 120.318 41.0208 120.016 40.7407C119.72 40.4552 119.572 40.1158 119.572 39.7226C119.572 39.3239 119.72 38.9846 120.016 38.7045C120.318 38.4189 120.679 38.2762 121.099 38.2762C121.519 38.2762 121.878 38.4189 122.174 38.7045C122.476 38.9846 122.626 39.3239 122.626 39.7226C122.626 40.1158 122.476 40.4552 122.174 40.7407C121.878 41.0208 121.519 41.1609 121.099 41.1609ZM125.545 55.4875V43.076H127.865V45.0961H128.018C128.277 44.4119 128.7 43.8786 129.287 43.4961C129.874 43.1083 130.577 42.9143 131.396 42.9143C132.225 42.9143 132.92 43.1083 133.48 43.4961C134.046 43.884 134.464 44.4173 134.733 45.0961H134.862C135.158 44.4335 135.63 43.9055 136.276 43.5123C136.923 43.1137 137.693 42.9143 138.587 42.9143C139.713 42.9143 140.632 43.2672 141.343 43.9729C142.059 44.6786 142.417 45.7425 142.417 47.1646V55.4875H140.001V47.3909C140.001 46.5505 139.772 45.9418 139.315 45.5647C138.857 45.1876 138.31 44.9991 137.674 44.9991C136.888 44.9991 136.276 45.2415 135.84 45.7263C135.404 46.2058 135.185 46.8226 135.185 47.5767V55.4875H132.777V47.2374C132.777 46.564 132.567 46.0226 132.147 45.6132C131.727 45.2038 131.18 44.9991 130.507 44.9991C130.049 44.9991 129.626 45.1203 129.238 45.3627C128.856 45.5997 128.546 45.931 128.309 46.3566C128.077 46.7822 127.962 47.2751 127.962 47.8353V55.4875H125.545ZM151.005 55.7379C149.782 55.7379 148.729 55.4767 147.845 54.9542C146.967 54.4262 146.289 53.6855 145.809 52.732C145.335 51.7732 145.098 50.65 145.098 49.3625C145.098 48.0912 145.335 46.9707 145.809 46.0011C146.289 45.0314 146.957 44.2745 147.813 43.7305C148.675 43.1864 149.682 42.9143 150.835 42.9143C151.535 42.9143 152.214 43.0302 152.871 43.2618C153.529 43.4934 154.118 43.8571 154.641 44.3527C155.164 44.8483 155.576 45.492 155.877 46.2839C156.179 47.0704 156.33 48.0265 156.33 49.1524V50.0089H146.464V48.1989H153.962C153.962 47.5633 153.833 47.0003 153.574 46.5101C153.316 46.0145 152.952 45.624 152.484 45.3385C152.02 45.053 151.476 44.9102 150.851 44.9102C150.173 44.9102 149.58 45.0772 149.074 45.4112C148.573 45.7398 148.185 46.1707 147.91 46.7041C147.641 47.232 147.506 47.8057 147.506 48.4252V49.8393C147.506 50.6688 147.651 51.3745 147.942 51.9563C148.239 52.5381 148.651 52.9825 149.179 53.2896C149.707 53.5913 150.323 53.7421 151.029 53.7421C151.487 53.7421 151.904 53.6774 152.282 53.5482C152.659 53.4135 152.985 53.2142 153.259 52.9502C153.534 52.6862 153.744 52.3603 153.89 51.9725L156.176 52.3846C155.993 53.0579 155.665 53.6478 155.19 54.1542C154.722 54.6552 154.132 55.0457 153.421 55.3258C152.715 55.6006 151.91 55.7379 151.005 55.7379ZM175.868 38.9388H178.373V49.8231C178.373 50.9813 178.101 52.0075 177.557 52.9017C177.013 53.7906 176.248 54.4909 175.262 55.0026C174.276 55.509 173.121 55.7622 171.796 55.7622C170.476 55.7622 169.323 55.509 168.337 55.0026C167.351 54.4909 166.587 53.7906 166.042 52.9017C165.498 52.0075 165.226 50.9813 165.226 49.8231V38.9388H167.723V49.6211C167.723 50.3699 167.887 51.0352 168.216 51.6169C168.55 52.1987 169.021 52.6566 169.63 52.9906C170.239 53.3192 170.961 53.4835 171.796 53.4835C172.636 53.4835 173.361 53.3192 173.969 52.9906C174.583 52.6566 175.052 52.1987 175.375 51.6169C175.704 51.0352 175.868 50.3699 175.868 49.6211V38.9388ZM181.809 60.1418V43.076H184.169V45.088H184.371C184.511 44.8294 184.713 44.5304 184.977 44.191C185.241 43.8517 185.607 43.5554 186.076 43.3022C186.544 43.0436 187.164 42.9143 187.934 42.9143C188.936 42.9143 189.831 43.1675 190.617 43.6739C191.403 44.1803 192.02 44.9102 192.467 45.8637C192.92 46.8172 193.146 47.9646 193.146 49.3059C193.146 50.6473 192.923 51.7974 192.475 52.7563C192.028 53.7098 191.414 54.4451 190.633 54.9622C189.852 55.474 188.961 55.7299 187.959 55.7299C187.204 55.7299 186.588 55.6033 186.108 55.3501C185.634 55.0969 185.262 54.8006 184.993 54.4612C184.724 54.1219 184.516 53.8202 184.371 53.5562H184.225V60.1418H181.809ZM184.177 49.2817C184.177 50.1544 184.304 50.9193 184.557 51.5765C184.81 52.2337 185.176 52.7482 185.656 53.1199C186.135 53.4862 186.722 53.6694 187.417 53.6694C188.139 53.6694 188.742 53.4781 189.227 53.0957C189.712 52.7078 190.078 52.1826 190.326 51.52C190.579 50.8574 190.706 50.1113 190.706 49.2817C190.706 48.4629 190.582 47.7276 190.334 47.0758C190.092 46.4239 189.725 45.9095 189.235 45.5324C188.75 45.1553 188.144 44.9668 187.417 44.9668C186.717 44.9668 186.124 45.1472 185.639 45.5082C185.16 45.8691 184.796 46.3728 184.549 47.0192C184.301 47.6656 184.177 48.4198 184.177 49.2817ZM200.499 55.7299C199.497 55.7299 198.603 55.474 197.817 54.9622C197.036 54.4451 196.421 53.7098 195.974 52.7563C195.533 51.7974 195.312 50.6473 195.312 49.3059C195.312 47.9646 195.535 46.8172 195.982 45.8637C196.435 44.9102 197.054 44.1803 197.841 43.6739C198.627 43.1675 199.519 42.9143 200.515 42.9143C201.286 42.9143 201.905 43.0436 202.374 43.3022C202.848 43.5554 203.214 43.8517 203.473 44.191C203.737 44.5304 203.942 44.8294 204.087 45.088H204.232V38.9388H206.649V55.4875H204.289V53.5562H204.087C203.942 53.8202 203.732 54.1219 203.457 54.4612C203.187 54.8006 202.816 55.0969 202.342 55.3501C201.868 55.6033 201.254 55.7299 200.499 55.7299ZM201.033 53.6694C201.728 53.6694 202.315 53.4862 202.794 53.1199C203.279 52.7482 203.645 52.2337 203.893 51.5765C204.146 50.9193 204.273 50.1544 204.273 49.2817C204.273 48.4198 204.149 47.6656 203.901 47.0192C203.653 46.3728 203.29 45.8691 202.81 45.5082C202.331 45.1472 201.738 44.9668 201.033 44.9668C200.305 44.9668 199.699 45.1553 199.215 45.5324C198.73 45.9095 198.363 46.4239 198.116 47.0758C197.873 47.7276 197.752 48.4629 197.752 49.2817C197.752 50.1113 197.876 50.8574 198.124 51.52C198.371 52.1826 198.738 52.7078 199.223 53.0957C199.713 53.4781 200.316 53.6694 201.033 53.6694ZM213.709 55.7622C212.922 55.7622 212.211 55.6167 211.576 55.3258C210.94 55.0296 210.436 54.6013 210.065 54.0411C209.698 53.4808 209.515 52.794 209.515 51.9806C209.515 51.2803 209.65 50.7039 209.919 50.2514C210.188 49.7989 210.552 49.4406 211.01 49.1767C211.468 48.9127 211.98 48.7134 212.545 48.5787C213.111 48.444 213.687 48.3417 214.274 48.2717C215.018 48.1855 215.621 48.1154 216.084 48.0616C216.548 48.0023 216.884 47.908 217.094 47.7787C217.305 47.6495 217.41 47.4394 217.41 47.1485V47.0919C217.41 46.3862 217.21 45.8395 216.812 45.4516C216.418 45.0637 215.831 44.8698 215.05 44.8698C214.237 44.8698 213.596 45.0503 213.127 45.4112C212.664 45.7667 212.343 46.1627 212.165 46.599L209.895 46.0819C210.164 45.3277 210.557 44.719 211.075 44.2557C211.597 43.787 212.198 43.4476 212.877 43.2376C213.555 43.0221 214.269 42.9143 215.018 42.9143C215.513 42.9143 216.039 42.9736 216.593 43.0921C217.154 43.2052 217.676 43.4153 218.161 43.7224C218.651 44.0294 219.053 44.4685 219.365 45.0395C219.678 45.6051 219.834 46.3404 219.834 47.2454V55.4875H217.474V53.7906H217.377C217.221 54.103 216.987 54.4101 216.674 54.7117C216.362 55.0134 215.961 55.2639 215.47 55.4632C214.98 55.6625 214.393 55.7622 213.709 55.7622ZM214.234 53.8229C214.902 53.8229 215.473 53.6909 215.947 53.427C216.427 53.163 216.79 52.8182 217.038 52.3927C217.291 51.9617 217.418 51.5011 217.418 51.0109V49.411C217.332 49.4972 217.165 49.578 216.917 49.6534C216.674 49.7234 216.397 49.7854 216.084 49.8393C215.772 49.8877 215.468 49.9335 215.171 49.9766C214.875 50.0143 214.627 50.0466 214.428 50.0736C213.959 50.1328 213.531 50.2325 213.143 50.3726C212.761 50.5126 212.454 50.7146 212.222 50.9786C211.996 51.2372 211.883 51.5819 211.883 52.0129C211.883 52.6108 212.103 53.0633 212.545 53.3704C212.987 53.6721 213.55 53.8229 214.234 53.8229ZM228.845 43.076V45.0152H222.066V43.076H228.845ZM223.884 40.1024H226.3V51.8432C226.3 52.3119 226.37 52.6647 226.51 52.9017C226.65 53.1334 226.831 53.2923 227.052 53.3785C227.278 53.4593 227.523 53.4997 227.787 53.4997C227.981 53.4997 228.15 53.4862 228.296 53.4593C228.441 53.4323 228.555 53.4108 228.635 53.3946L229.072 55.3905C228.932 55.4444 228.732 55.4982 228.474 55.5521C228.215 55.6114 227.892 55.6437 227.504 55.6491C226.868 55.6598 226.276 55.5467 225.726 55.3097C225.177 55.0727 224.732 54.7064 224.393 54.2108C224.054 53.7152 223.884 53.093 223.884 52.3442V40.1024ZM236.734 55.7379C235.511 55.7379 234.458 55.4767 233.574 54.9542C232.696 54.4262 232.018 53.6855 231.538 52.732C231.064 51.7732 230.827 50.65 230.827 49.3625C230.827 48.0912 231.064 46.9707 231.538 46.0011C232.018 45.0314 232.686 44.2745 233.542 43.7305C234.404 43.1864 235.411 42.9143 236.564 42.9143C237.265 42.9143 237.943 43.0302 238.6 43.2618C239.258 43.4934 239.848 43.8571 240.37 44.3527C240.893 44.8483 241.305 45.492 241.606 46.2839C241.908 47.0704 242.059 48.0265 242.059 49.1524V50.0089H232.193V48.1989H239.691C239.691 47.5633 239.562 47.0003 239.303 46.5101C239.045 46.0145 238.681 45.624 238.213 45.3385C237.749 45.053 237.205 44.9102 236.58 44.9102C235.902 44.9102 235.309 45.0772 234.803 45.4112C234.302 45.7398 233.914 46.1707 233.639 46.7041C233.37 47.232 233.235 47.8057 233.235 48.4252V49.8393C233.235 50.6688 233.381 51.3745 233.671 51.9563C233.968 52.5381 234.38 52.9825 234.908 53.2896C235.436 53.5913 236.052 53.7421 236.758 53.7421C237.216 53.7421 237.634 53.6774 238.011 53.5482C238.388 53.4135 238.714 53.2142 238.988 52.9502C239.263 52.6862 239.473 52.3603 239.619 51.9725L241.905 52.3846C241.722 53.0579 241.394 53.6478 240.92 54.1542C240.451 54.6552 239.861 55.0457 239.15 55.3258C238.444 55.6006 237.639 55.7379 236.734 55.7379ZM254.04 46.1061L251.85 46.494C251.759 46.2138 251.613 45.9472 251.414 45.694C251.22 45.4408 250.956 45.2334 250.622 45.0718C250.288 44.9102 249.871 44.8294 249.37 44.8294C248.686 44.8294 248.114 44.9829 247.657 45.29C247.199 45.5917 246.97 45.9822 246.97 46.4616C246.97 46.8764 247.123 47.2104 247.43 47.4636C247.737 47.7168 248.233 47.9242 248.917 48.0858L250.889 48.5383C252.031 48.8023 252.882 49.209 253.442 49.7584C254.002 50.3079 254.283 51.0217 254.283 51.8998C254.283 52.6432 254.067 53.3057 253.636 53.8875C253.211 54.4639 252.615 54.9164 251.85 55.245C251.091 55.5736 250.21 55.7379 249.208 55.7379C247.818 55.7379 246.684 55.4417 245.806 54.8491C244.928 54.2512 244.389 53.4027 244.19 52.3038L246.525 51.9482C246.671 52.557 246.97 53.0175 247.422 53.33C247.875 53.637 248.465 53.7906 249.192 53.7906C249.984 53.7906 250.617 53.6263 251.091 53.2977C251.565 52.9637 251.802 52.557 251.802 52.0775C251.802 51.6897 251.656 51.3638 251.366 51.0998C251.08 50.8358 250.641 50.6365 250.048 50.5018L247.948 50.0413C246.789 49.7773 245.933 49.3571 245.378 48.7807C244.828 48.2043 244.554 47.4744 244.554 46.5909C244.554 45.8583 244.758 45.2173 245.168 44.6678C245.577 44.1183 246.143 43.6901 246.865 43.383C247.587 43.0706 248.413 42.9143 249.345 42.9143C250.687 42.9143 251.743 43.2052 252.513 43.787C253.283 44.3634 253.792 45.1365 254.04 46.1061Z" fill="#FF6A00"/>
</g>
<g filter="url(#filter1_d_387_271)">
<rect x="314.321" y="9.56349" width="75.8481" height="75.8481" rx="15.1696" fill="white" shape-rendering="crispEdges"/>
<rect x="314.795" y="10.0375" width="74.9" height="74.9" rx="14.6956" stroke="#212528" stroke-width="0.948101" shape-rendering="crispEdges"/>
<path d="M352.229 31.6858C343.507 31.6858 336.443 38.7649 336.443 47.4875C336.443 56.21 343.507 63.2891 352.229 63.2891C360.967 63.2891 368.047 56.21 368.047 47.4875C368.047 38.7649 360.967 31.6858 352.229 31.6858ZM352.245 60.1288C345.261 60.1288 339.604 54.4718 339.604 47.4875C339.604 40.5031 345.261 34.8461 352.245 34.8461C359.229 34.8461 364.886 40.5031 364.886 47.4875C364.886 54.4718 359.229 60.1288 352.245 60.1288ZM353.035 39.5866H350.665V49.0676L358.961 54.0452L360.146 52.1016L353.035 47.8825V39.5866Z" fill="#FF6A00"/>
</g>
<g filter="url(#filter2_d_387_271)">
<rect x="10.9284" y="121.439" width="379.24" height="156.942" rx="15.1696" fill="white" shape-rendering="crispEdges"/>
<rect x="11.4025" y="121.913" width="378.292" height="155.994" rx="14.6956" stroke="#212528" stroke-width="0.948101" shape-rendering="crispEdges"/>
<path d="M228.992 156.835C225.484 155.729 221.628 155.255 217.93 155.255C211.768 155.255 205.131 156.519 200.549 159.996C195.966 156.519 189.329 155.255 183.167 155.255C177.004 155.255 170.367 156.519 165.785 159.996V206.295C165.785 207.085 166.575 207.875 167.365 207.875C167.681 207.875 167.839 207.717 168.155 207.717C172.422 205.662 178.584 204.24 183.167 204.24C189.329 204.24 195.966 205.504 200.549 208.981C204.815 206.295 212.558 204.24 217.93 204.24C223.145 204.24 228.518 205.188 232.942 207.559C233.258 207.717 233.416 207.717 233.732 207.717C234.522 207.717 235.312 206.927 235.312 206.137V159.996C233.416 158.573 231.362 157.625 228.992 156.835ZM228.992 199.5C225.515 198.394 221.723 197.92 217.93 197.92C212.558 197.92 204.815 199.974 200.549 202.66V166.316C204.815 163.63 212.558 161.576 217.93 161.576C221.723 161.576 225.515 162.05 228.992 163.156V199.5Z" fill="#0D4680"/>
<path d="M217.93 174.217C220.712 174.217 223.398 174.502 225.831 175.039V170.235C223.335 169.761 220.648 169.477 217.93 169.477C212.558 169.477 207.691 170.393 203.709 172.1V177.346C207.28 175.323 212.242 174.217 217.93 174.217Z" fill="#0D4680"/>
<path d="M203.709 180.506V185.752C207.28 183.73 212.242 182.624 217.93 182.624C220.712 182.624 223.398 182.908 225.831 183.445V178.642C223.335 178.168 220.648 177.883 217.93 177.883C212.558 177.883 207.691 178.831 203.709 180.506Z" fill="#0D4680"/>
<path d="M217.93 186.321C212.558 186.321 207.691 187.238 203.709 188.944V194.19C207.28 192.168 212.242 191.062 217.93 191.062C220.712 191.062 223.398 191.346 225.831 191.883V187.08C223.335 186.574 220.648 186.321 217.93 186.321Z" fill="#0D4680"/>
<path d="M127.299 233.078H129.788V244.811C129.788 245.872 129.577 246.78 129.157 247.534C128.742 248.288 128.158 248.864 127.404 249.263C126.65 249.656 125.766 249.853 124.753 249.853C123.821 249.853 122.984 249.683 122.24 249.344C121.502 249.005 120.918 248.512 120.487 247.865C120.061 247.213 119.849 246.422 119.849 245.49H122.329C122.329 245.947 122.434 246.343 122.644 246.677C122.86 247.011 123.153 247.273 123.525 247.461C123.902 247.644 124.333 247.736 124.818 247.736C125.346 247.736 125.793 247.625 126.159 247.405C126.531 247.178 126.814 246.847 127.008 246.411C127.202 245.974 127.299 245.441 127.299 244.811V233.078ZM138.456 249.877C137.292 249.877 136.277 249.611 135.409 249.077C134.542 248.544 133.869 247.798 133.389 246.839C132.91 245.88 132.67 244.76 132.67 243.478C132.67 242.19 132.91 241.064 133.389 240.1C133.869 239.136 134.542 238.387 135.409 237.854C136.277 237.32 137.292 237.054 138.456 237.054C139.619 237.054 140.635 237.32 141.502 237.854C142.369 238.387 143.043 239.136 143.522 240.1C144.002 241.064 144.241 242.19 144.241 243.478C144.241 244.76 144.002 245.88 143.522 246.839C143.043 247.798 142.369 248.544 141.502 249.077C140.635 249.611 139.619 249.877 138.456 249.877ZM138.464 247.849C139.218 247.849 139.843 247.65 140.338 247.251C140.834 246.852 141.2 246.322 141.437 245.659C141.68 244.997 141.801 244.267 141.801 243.469C141.801 242.678 141.68 241.95 141.437 241.288C141.2 240.62 140.834 240.084 140.338 239.68C139.843 239.276 139.218 239.074 138.464 239.074C137.704 239.074 137.074 239.276 136.573 239.68C136.077 240.084 135.708 240.62 135.466 241.288C135.229 241.95 135.11 242.678 135.11 243.469C135.11 244.267 135.229 244.997 135.466 245.659C135.708 246.322 136.077 246.852 136.573 247.251C137.074 247.65 137.704 247.849 138.464 247.849ZM154.8 244.48V237.215H157.225V249.627H154.849V247.477H154.72C154.434 248.14 153.976 248.692 153.346 249.134C152.721 249.57 151.943 249.788 151.011 249.788C150.213 249.788 149.508 249.613 148.894 249.263C148.285 248.908 147.805 248.382 147.455 247.687C147.111 246.993 146.938 246.133 146.938 245.11V237.215H149.354V244.819C149.354 245.665 149.589 246.338 150.057 246.839C150.526 247.34 151.135 247.59 151.883 247.59C152.336 247.59 152.786 247.477 153.233 247.251C153.685 247.025 154.06 246.683 154.356 246.225C154.658 245.767 154.806 245.185 154.8 244.48ZM160.471 249.627V237.215H162.806V239.187H162.935C163.162 238.519 163.56 237.994 164.131 237.611C164.708 237.223 165.359 237.029 166.087 237.029C166.238 237.029 166.415 237.035 166.62 237.046C166.83 237.056 166.994 237.07 167.113 237.086V239.397C167.016 239.37 166.844 239.34 166.596 239.308C166.348 239.27 166.1 239.251 165.852 239.251C165.281 239.251 164.772 239.373 164.325 239.615C163.883 239.852 163.533 240.183 163.275 240.609C163.016 241.029 162.887 241.509 162.887 242.047V249.627H160.471ZM171.62 242.257V249.627H169.204V237.215H171.523V239.235H171.676C171.962 238.578 172.409 238.05 173.018 237.652C173.632 237.253 174.405 237.054 175.337 237.054C176.183 237.054 176.923 237.231 177.559 237.587C178.195 237.937 178.687 238.46 179.038 239.155C179.388 239.849 179.563 240.709 179.563 241.732V249.627H177.147V242.023C177.147 241.123 176.912 240.42 176.444 239.914C175.975 239.402 175.331 239.146 174.513 239.146C173.952 239.146 173.454 239.268 173.018 239.51C172.587 239.752 172.245 240.108 171.991 240.577C171.744 241.04 171.62 241.6 171.62 242.257ZM186.415 249.901C185.629 249.901 184.917 249.756 184.282 249.465C183.646 249.169 183.142 248.741 182.771 248.18C182.404 247.62 182.221 246.933 182.221 246.12C182.221 245.42 182.356 244.843 182.625 244.391C182.895 243.938 183.258 243.58 183.716 243.316C184.174 243.052 184.686 242.853 185.251 242.718C185.817 242.583 186.393 242.481 186.981 242.411C187.724 242.325 188.327 242.255 188.791 242.201C189.254 242.142 189.591 242.047 189.801 241.918C190.011 241.789 190.116 241.579 190.116 241.288V241.231C190.116 240.526 189.917 239.979 189.518 239.591C189.125 239.203 188.537 239.009 187.756 239.009C186.943 239.009 186.302 239.19 185.833 239.55C185.37 239.906 185.049 240.302 184.872 240.738L182.601 240.221C182.87 239.467 183.264 238.858 183.781 238.395C184.303 237.926 184.904 237.587 185.583 237.377C186.261 237.161 186.975 237.054 187.724 237.054C188.22 237.054 188.745 237.113 189.3 237.231C189.86 237.345 190.382 237.555 190.867 237.862C191.358 238.169 191.759 238.608 192.071 239.179C192.384 239.744 192.54 240.48 192.54 241.385V249.627H190.18V247.93H190.084C189.927 248.242 189.693 248.549 189.381 248.851C189.068 249.153 188.667 249.403 188.177 249.602C187.686 249.802 187.099 249.901 186.415 249.901ZM186.94 247.962C187.608 247.962 188.179 247.83 188.653 247.566C189.133 247.302 189.496 246.958 189.744 246.532C189.997 246.101 190.124 245.64 190.124 245.15V243.55C190.038 243.636 189.871 243.717 189.623 243.793C189.381 243.863 189.103 243.925 188.791 243.979C188.478 244.027 188.174 244.073 187.878 244.116C187.581 244.154 187.333 244.186 187.134 244.213C186.665 244.272 186.237 244.372 185.849 244.512C185.467 244.652 185.16 244.854 184.928 245.118C184.702 245.376 184.589 245.721 184.589 246.152C184.589 246.75 184.81 247.203 185.251 247.51C185.693 247.811 186.256 247.962 186.94 247.962ZM198.174 233.078V249.627H195.758V233.078H198.174ZM207.64 249.627V233.078H218.015V235.227H210.137V240.27H217.474V242.411H210.137V247.477H218.112V249.627H207.64ZM223.573 242.257V249.627H221.157V237.215H223.476V239.235H223.629C223.915 238.578 224.362 238.05 224.971 237.652C225.585 237.253 226.358 237.054 227.29 237.054C228.135 237.054 228.876 237.231 229.512 237.587C230.148 237.937 230.64 238.46 230.991 239.155C231.341 239.849 231.516 240.709 231.516 241.732V249.627H229.1V242.023C229.1 241.123 228.865 240.42 228.397 239.914C227.928 239.402 227.284 239.146 226.466 239.146C225.905 239.146 225.407 239.268 224.971 239.51C224.54 239.752 224.198 240.108 223.944 240.577C223.697 241.04 223.573 241.6 223.573 242.257ZM240.55 237.215V239.155H233.77V237.215H240.55ZM235.588 234.242H238.004V245.982C238.004 246.451 238.074 246.804 238.214 247.041C238.355 247.273 238.535 247.432 238.756 247.518C238.982 247.599 239.227 247.639 239.491 247.639C239.685 247.639 239.855 247.625 240 247.599C240.146 247.572 240.259 247.55 240.34 247.534L240.776 249.53C240.636 249.584 240.437 249.638 240.178 249.691C239.919 249.751 239.596 249.783 239.208 249.788C238.573 249.799 237.98 249.686 237.431 249.449C236.881 249.212 236.437 248.846 236.097 248.35C235.758 247.854 235.588 247.232 235.588 246.483V234.242ZM243.222 249.627V237.215H245.558V239.187H245.687C245.913 238.519 246.312 237.994 246.883 237.611C247.459 237.223 248.111 237.029 248.838 237.029C248.989 237.029 249.167 237.035 249.371 237.046C249.582 237.056 249.746 237.07 249.864 237.086V239.397C249.767 239.37 249.595 239.34 249.347 239.308C249.099 239.27 248.852 239.251 248.604 239.251C248.033 239.251 247.524 239.373 247.077 239.615C246.635 239.852 246.285 240.183 246.026 240.609C245.768 241.029 245.638 241.509 245.638 242.047V249.627H243.222ZM251.955 249.627V237.215H254.371V249.627H251.955ZM253.175 235.3C252.755 235.3 252.394 235.16 252.093 234.88C251.796 234.594 251.648 234.255 251.648 233.862C251.648 233.463 251.796 233.124 252.093 232.844C252.394 232.558 252.755 232.415 253.175 232.415C253.596 232.415 253.954 232.558 254.25 232.844C254.552 233.124 254.703 233.463 254.703 233.862C254.703 234.255 254.552 234.594 254.25 234.88C253.954 235.16 253.596 235.3 253.175 235.3ZM262.971 249.877C261.748 249.877 260.695 249.616 259.811 249.093C258.933 248.566 258.255 247.825 257.775 246.871C257.301 245.912 257.064 244.789 257.064 243.502C257.064 242.23 257.301 241.11 257.775 240.14C258.255 239.171 258.923 238.414 259.779 237.87C260.641 237.326 261.648 237.054 262.801 237.054C263.501 237.054 264.18 237.169 264.837 237.401C265.495 237.633 266.084 237.996 266.607 238.492C267.13 238.988 267.542 239.631 267.843 240.423C268.145 241.21 268.296 242.166 268.296 243.292V244.148H258.43V242.338H265.928C265.928 241.703 265.799 241.14 265.54 240.649C265.282 240.154 264.918 239.763 264.45 239.478C263.986 239.192 263.442 239.049 262.817 239.049C262.139 239.049 261.546 239.216 261.04 239.55C260.539 239.879 260.151 240.31 259.876 240.843C259.607 241.371 259.472 241.945 259.472 242.564V243.979C259.472 244.808 259.617 245.514 259.908 246.096C260.205 246.677 260.617 247.122 261.145 247.429C261.673 247.731 262.289 247.881 262.995 247.881C263.453 247.881 263.87 247.817 264.248 247.687C264.625 247.553 264.95 247.353 265.225 247.089C265.5 246.826 265.71 246.5 265.856 246.112L268.142 246.524C267.959 247.197 267.63 247.787 267.156 248.293C266.688 248.794 266.098 249.185 265.387 249.465C264.681 249.74 263.876 249.877 262.971 249.877ZM280.277 240.245L278.087 240.633C277.996 240.353 277.85 240.086 277.651 239.833C277.457 239.58 277.193 239.373 276.859 239.211C276.525 239.049 276.108 238.969 275.607 238.969C274.922 238.969 274.351 239.122 273.893 239.429C273.436 239.731 273.207 240.121 273.207 240.601C273.207 241.016 273.36 241.35 273.667 241.603C273.974 241.856 274.47 242.063 275.154 242.225L277.126 242.678C278.268 242.942 279.119 243.348 279.679 243.898C280.239 244.447 280.519 245.161 280.519 246.039C280.519 246.782 280.304 247.445 279.873 248.027C279.447 248.603 278.852 249.056 278.087 249.384C277.328 249.713 276.447 249.877 275.445 249.877C274.055 249.877 272.921 249.581 272.043 248.988C271.165 248.39 270.626 247.542 270.427 246.443L272.762 246.088C272.908 246.696 273.207 247.157 273.659 247.469C274.112 247.776 274.702 247.93 275.429 247.93C276.221 247.93 276.854 247.766 277.328 247.437C277.802 247.103 278.039 246.696 278.039 246.217C278.039 245.829 277.893 245.503 277.602 245.239C277.317 244.975 276.878 244.776 276.285 244.641L274.184 244.181C273.026 243.917 272.17 243.496 271.615 242.92C271.065 242.344 270.791 241.614 270.791 240.73C270.791 239.998 270.995 239.357 271.405 238.807C271.814 238.258 272.38 237.829 273.102 237.522C273.823 237.21 274.65 237.054 275.582 237.054C276.924 237.054 277.979 237.345 278.75 237.926C279.52 238.503 280.029 239.276 280.277 240.245Z" fill="#0D4680"/>
</g>
<g filter="url(#filter3_d_387_271)">
<rect x="10.9284" y="314.409" width="75.8481" height="75.8481" rx="15.1696" fill="white" shape-rendering="crispEdges"/>
<rect x="11.4025" y="314.883" width="74.9" height="74.9" rx="14.6956" stroke="#212528" stroke-width="0.948101" shape-rendering="crispEdges"/>
<path d="M58.3335 336.531H39.3715C37.6333 336.531 36.2111 337.953 36.2111 339.692V364.974C36.2111 366.712 37.6333 368.135 39.3715 368.135H58.3335C60.0717 368.135 61.4938 366.712 61.4938 364.974V339.692C61.4938 337.953 60.0717 336.531 58.3335 336.531ZM39.3715 339.692H47.2723V352.333L43.3219 349.963L39.3715 352.333V339.692Z" fill="#4BCA5A"/>
</g>
<g filter="url(#filter4_d_387_271)">
<rect x="109.531" y="314.409" width="280.638" height="75.8481" rx="15.1696" fill="white" shape-rendering="crispEdges"/>
<rect x="110.005" y="314.883" width="279.69" height="74.9" rx="14.6956" stroke="#212528" stroke-width="0.948101" shape-rendering="crispEdges"/>
<path d="M171.913 349.166H169.392C169.295 348.627 169.114 348.153 168.85 347.744C168.586 347.334 168.263 346.987 167.881 346.701C167.498 346.416 167.07 346.2 166.596 346.055C166.127 345.909 165.629 345.837 165.101 345.837C164.147 345.837 163.294 346.076 162.539 346.556C161.791 347.035 161.198 347.738 160.762 348.665C160.331 349.591 160.115 350.723 160.115 352.059C160.115 353.405 160.331 354.542 160.762 355.469C161.198 356.395 161.793 357.095 162.548 357.569C163.302 358.043 164.15 358.28 165.093 358.28C165.615 358.28 166.111 358.21 166.58 358.07C167.054 357.925 167.482 357.712 167.864 357.432C168.247 357.152 168.57 356.81 168.834 356.406C169.103 355.996 169.289 355.528 169.392 355L171.913 355.008C171.778 355.821 171.517 356.57 171.129 357.254C170.746 357.933 170.254 358.52 169.65 359.016C169.052 359.506 168.368 359.886 167.598 360.155C166.827 360.424 165.987 360.559 165.077 360.559C163.644 360.559 162.367 360.22 161.247 359.541C160.126 358.857 159.243 357.879 158.596 356.608C157.955 355.337 157.635 353.82 157.635 352.059C157.635 350.292 157.958 348.775 158.604 347.509C159.251 346.238 160.134 345.263 161.255 344.584C162.375 343.9 163.649 343.558 165.077 343.558C165.955 343.558 166.774 343.685 167.533 343.938C168.298 344.186 168.985 344.552 169.594 345.037C170.202 345.516 170.706 346.103 171.105 346.798C171.503 347.488 171.773 348.277 171.913 349.166ZM179.935 360.583C178.771 360.583 177.756 360.317 176.888 359.783C176.021 359.25 175.348 358.504 174.868 357.545C174.389 356.586 174.149 355.466 174.149 354.184C174.149 352.896 174.389 351.77 174.868 350.806C175.348 349.842 176.021 349.093 176.888 348.56C177.756 348.026 178.771 347.76 179.935 347.76C181.098 347.76 182.114 348.026 182.981 348.56C183.848 349.093 184.522 349.842 185.001 350.806C185.48 351.77 185.72 352.896 185.72 354.184C185.72 355.466 185.48 356.586 185.001 357.545C184.522 358.504 183.848 359.25 182.981 359.783C182.114 360.317 181.098 360.583 179.935 360.583ZM179.943 358.555C180.697 358.555 181.322 358.356 181.817 357.957C182.313 357.559 182.679 357.028 182.916 356.365C183.159 355.703 183.28 354.973 183.28 354.176C183.28 353.384 183.159 352.657 182.916 351.994C182.679 351.326 182.313 350.79 181.817 350.386C181.322 349.982 180.697 349.78 179.943 349.78C179.183 349.78 178.553 349.982 178.052 350.386C177.556 350.79 177.187 351.326 176.945 351.994C176.708 352.657 176.589 353.384 176.589 354.176C176.589 354.973 176.708 355.703 176.945 356.365C177.187 357.028 177.556 357.559 178.052 357.957C178.553 358.356 179.183 358.555 179.943 358.555ZM188.417 360.333V347.921H190.736V349.942H190.89C191.148 349.257 191.571 348.724 192.158 348.342C192.745 347.954 193.448 347.76 194.267 347.76C195.097 347.76 195.792 347.954 196.352 348.342C196.918 348.729 197.335 349.263 197.604 349.942H197.734C198.03 349.279 198.501 348.751 199.148 348.358C199.794 347.959 200.564 347.76 201.459 347.76C202.585 347.76 203.503 348.113 204.214 348.818C204.931 349.524 205.289 350.588 205.289 352.01V360.333H202.873V352.236C202.873 351.396 202.644 350.787 202.186 350.41C201.728 350.033 201.181 349.845 200.546 349.845C199.759 349.845 199.148 350.087 198.711 350.572C198.275 351.051 198.057 351.668 198.057 352.422V360.333H195.649V352.083C195.649 351.409 195.439 350.868 195.019 350.459C194.598 350.049 194.052 349.845 193.378 349.845C192.92 349.845 192.498 349.966 192.11 350.208C191.727 350.445 191.417 350.776 191.18 351.202C190.949 351.628 190.833 352.121 190.833 352.681V360.333H188.417ZM208.527 364.987V347.921H210.887V349.933H211.089C211.229 349.675 211.431 349.376 211.695 349.037C211.959 348.697 212.325 348.401 212.794 348.148C213.262 347.889 213.882 347.76 214.652 347.76C215.654 347.76 216.548 348.013 217.335 348.519C218.121 349.026 218.738 349.756 219.185 350.709C219.638 351.663 219.864 352.81 219.864 354.151C219.864 355.493 219.64 356.643 219.193 357.602C218.746 358.555 218.132 359.291 217.351 359.808C216.57 360.319 215.678 360.575 214.676 360.575C213.922 360.575 213.305 360.449 212.826 360.196C212.352 359.942 211.98 359.646 211.711 359.307C211.441 358.967 211.234 358.666 211.089 358.402H210.943V364.987H208.527ZM210.895 354.127C210.895 355 211.021 355.765 211.274 356.422C211.528 357.079 211.894 357.594 212.373 357.965C212.853 358.332 213.44 358.515 214.135 358.515C214.857 358.515 215.46 358.324 215.945 357.941C216.43 357.553 216.796 357.028 217.044 356.365C217.297 355.703 217.424 354.957 217.424 354.127C217.424 353.308 217.3 352.573 217.052 351.921C216.809 351.269 216.443 350.755 215.953 350.378C215.468 350.001 214.862 349.812 214.135 349.812C213.435 349.812 212.842 349.993 212.357 350.354C211.878 350.715 211.514 351.218 211.266 351.865C211.019 352.511 210.895 353.265 210.895 354.127ZM226.183 360.608C225.396 360.608 224.685 360.462 224.05 360.171C223.414 359.875 222.91 359.447 222.538 358.887C222.172 358.326 221.989 357.639 221.989 356.826C221.989 356.126 222.124 355.549 222.393 355.097C222.662 354.644 223.026 354.286 223.484 354.022C223.942 353.758 224.454 353.559 225.019 353.424C225.585 353.289 226.161 353.187 226.748 353.117C227.492 353.031 228.095 352.961 228.558 352.907C229.022 352.848 229.358 352.753 229.568 352.624C229.779 352.495 229.884 352.285 229.884 351.994V351.937C229.884 351.232 229.684 350.685 229.286 350.297C228.892 349.909 228.305 349.715 227.524 349.715C226.711 349.715 226.07 349.896 225.601 350.257C225.138 350.612 224.817 351.008 224.639 351.444L222.369 350.927C222.638 350.173 223.031 349.564 223.549 349.101C224.071 348.632 224.672 348.293 225.35 348.083C226.029 347.868 226.743 347.76 227.492 347.76C227.987 347.76 228.513 347.819 229.067 347.938C229.628 348.051 230.15 348.261 230.635 348.568C231.125 348.875 231.527 349.314 231.839 349.885C232.151 350.451 232.308 351.186 232.308 352.091V360.333H229.948V358.636H229.851C229.695 358.948 229.461 359.256 229.148 359.557C228.836 359.859 228.434 360.109 227.944 360.309C227.454 360.508 226.867 360.608 226.183 360.608ZM226.708 358.668C227.376 358.668 227.947 358.536 228.421 358.272C228.9 358.008 229.264 357.664 229.512 357.238C229.765 356.807 229.892 356.347 229.892 355.856V354.256C229.805 354.343 229.638 354.423 229.391 354.499C229.148 354.569 228.871 354.631 228.558 354.685C228.246 354.733 227.942 354.779 227.645 354.822C227.349 354.86 227.101 354.892 226.902 354.919C226.433 354.978 226.005 355.078 225.617 355.218C225.235 355.358 224.928 355.56 224.696 355.824C224.47 356.083 224.357 356.427 224.357 356.858C224.357 357.456 224.577 357.909 225.019 358.216C225.461 358.518 226.024 358.668 226.708 358.668ZM237.942 352.964V360.333H235.526V347.921H237.845V349.942H237.998C238.284 349.284 238.731 348.756 239.34 348.358C239.954 347.959 240.727 347.76 241.659 347.76C242.505 347.76 243.245 347.938 243.881 348.293C244.517 348.643 245.009 349.166 245.36 349.861C245.71 350.556 245.885 351.415 245.885 352.438V360.333H243.469V352.729C243.469 351.83 243.234 351.127 242.766 350.62C242.297 350.109 241.653 349.853 240.835 349.853C240.274 349.853 239.776 349.974 239.34 350.216C238.909 350.459 238.567 350.814 238.313 351.283C238.066 351.746 237.942 352.306 237.942 352.964ZM250.208 364.987C249.847 364.987 249.518 364.958 249.222 364.898C248.926 364.844 248.705 364.785 248.559 364.721L249.141 362.741C249.583 362.859 249.976 362.911 250.321 362.894C250.666 362.878 250.97 362.749 251.234 362.507C251.503 362.264 251.74 361.868 251.945 361.319L252.244 360.495L247.703 347.921H250.289L253.432 357.553H253.561L256.704 347.921H259.298L254.183 361.989C253.946 362.636 253.645 363.183 253.278 363.63C252.912 364.082 252.476 364.422 251.969 364.648C251.463 364.874 250.876 364.987 250.208 364.987ZM267.785 360.333V343.784H270.282V358.184H277.78V360.333H267.785ZM285.784 360.583C284.561 360.583 283.508 360.322 282.624 359.8C281.746 359.272 281.068 358.531 280.588 357.577C280.114 356.619 279.877 355.495 279.877 354.208C279.877 352.937 280.114 351.816 280.588 350.847C281.068 349.877 281.736 349.12 282.592 348.576C283.454 348.032 284.461 347.76 285.614 347.76C286.314 347.76 286.993 347.876 287.65 348.107C288.308 348.339 288.897 348.703 289.42 349.198C289.943 349.694 290.355 350.337 290.656 351.129C290.958 351.916 291.109 352.872 291.109 353.998V354.854H281.243V353.044H288.741C288.741 352.409 288.612 351.846 288.353 351.356C288.095 350.86 287.731 350.469 287.263 350.184C286.799 349.898 286.255 349.756 285.63 349.756C284.952 349.756 284.359 349.923 283.853 350.257C283.352 350.585 282.964 351.016 282.689 351.55C282.42 352.077 282.285 352.651 282.285 353.271V354.685C282.285 355.514 282.43 356.22 282.721 356.802C283.018 357.384 283.43 357.828 283.958 358.135C284.486 358.437 285.102 358.588 285.808 358.588C286.266 358.588 286.683 358.523 287.061 358.394C287.438 358.259 287.764 358.06 288.038 357.796C288.313 357.532 288.523 357.206 288.669 356.818L290.955 357.23C290.772 357.903 290.444 358.493 289.969 359C289.501 359.501 288.911 359.891 288.2 360.171C287.494 360.446 286.689 360.583 285.784 360.583ZM298.436 360.575C297.434 360.575 296.54 360.319 295.753 359.808C294.972 359.291 294.358 358.555 293.911 357.602C293.469 356.643 293.248 355.493 293.248 354.151C293.248 352.81 293.472 351.663 293.919 350.709C294.371 349.756 294.991 349.026 295.777 348.519C296.564 348.013 297.455 347.76 298.452 347.76C299.222 347.76 299.842 347.889 300.31 348.148C300.784 348.401 301.151 348.697 301.409 349.037C301.673 349.376 301.878 349.675 302.023 349.933H302.169V343.784H304.585V360.333H302.225V358.402H302.023C301.878 358.666 301.668 358.967 301.393 359.307C301.124 359.646 300.752 359.942 300.278 360.196C299.804 360.449 299.19 360.575 298.436 360.575ZM298.969 358.515C299.664 358.515 300.251 358.332 300.731 357.965C301.215 357.594 301.582 357.079 301.83 356.422C302.083 355.765 302.209 355 302.209 354.127C302.209 353.265 302.085 352.511 301.838 351.865C301.59 351.218 301.226 350.715 300.747 350.354C300.267 349.993 299.675 349.812 298.969 349.812C298.242 349.812 297.636 350.001 297.151 350.378C296.666 350.755 296.3 351.269 296.052 351.921C295.81 352.573 295.688 353.308 295.688 354.127C295.688 354.957 295.812 355.703 296.06 356.365C296.308 357.028 296.674 357.553 297.159 357.941C297.649 358.324 298.253 358.515 298.969 358.515ZM313.237 365.246C312.251 365.246 311.403 365.117 310.692 364.858C309.986 364.599 309.41 364.257 308.962 363.832C308.515 363.406 308.181 362.94 307.961 362.434L310.037 361.577C310.183 361.814 310.377 362.065 310.619 362.329C310.867 362.598 311.201 362.827 311.621 363.016C312.047 363.204 312.593 363.298 313.261 363.298C314.177 363.298 314.934 363.075 315.532 362.628C316.13 362.186 316.429 361.48 316.429 360.511V358.07H316.275C316.13 358.334 315.92 358.628 315.645 358.951C315.376 359.274 315.004 359.555 314.53 359.792C314.056 360.029 313.439 360.147 312.679 360.147C311.699 360.147 310.816 359.918 310.029 359.46C309.248 358.997 308.628 358.316 308.171 357.416C307.718 356.511 307.492 355.398 307.492 354.079C307.492 352.759 307.715 351.628 308.163 350.685C308.615 349.742 309.235 349.02 310.021 348.519C310.808 348.013 311.699 347.76 312.696 347.76C313.466 347.76 314.088 347.889 314.562 348.148C315.036 348.401 315.405 348.697 315.669 349.037C315.939 349.376 316.146 349.675 316.291 349.933H316.469V347.921H318.837V360.608C318.837 361.674 318.589 362.55 318.093 363.234C317.598 363.918 316.927 364.424 316.081 364.753C315.241 365.082 314.293 365.246 313.237 365.246ZM313.213 358.143C313.908 358.143 314.495 357.982 314.974 357.658C315.459 357.33 315.825 356.861 316.073 356.252C316.326 355.638 316.453 354.903 316.453 354.046C316.453 353.211 316.329 352.476 316.081 351.84C315.834 351.205 315.47 350.709 314.99 350.354C314.511 349.993 313.918 349.812 313.213 349.812C312.486 349.812 311.88 350.001 311.395 350.378C310.91 350.75 310.544 351.256 310.296 351.897C310.053 352.538 309.932 353.254 309.932 354.046C309.932 354.86 310.056 355.574 310.304 356.188C310.552 356.802 310.918 357.281 311.403 357.626C311.893 357.971 312.496 358.143 313.213 358.143ZM327.426 360.583C326.203 360.583 325.15 360.322 324.267 359.8C323.389 359.272 322.71 358.531 322.231 357.577C321.756 356.619 321.519 355.495 321.519 354.208C321.519 352.937 321.756 351.816 322.231 350.847C322.71 349.877 323.378 349.12 324.234 348.576C325.096 348.032 326.104 347.76 327.257 347.76C327.957 347.76 328.636 347.876 329.293 348.107C329.95 348.339 330.54 348.703 331.062 349.198C331.585 349.694 331.997 350.337 332.299 351.129C332.6 351.916 332.751 352.872 332.751 353.998V354.854H322.885V353.044H330.384C330.384 352.409 330.254 351.846 329.996 351.356C329.737 350.86 329.374 350.469 328.905 350.184C328.442 349.898 327.898 349.756 327.273 349.756C326.594 349.756 326.001 349.923 325.495 350.257C324.994 350.585 324.606 351.016 324.331 351.55C324.062 352.077 323.927 352.651 323.927 353.271V354.685C323.927 355.514 324.073 356.22 324.364 356.802C324.66 357.384 325.072 357.828 325.6 358.135C326.128 358.437 326.745 358.588 327.45 358.588C327.908 358.588 328.326 358.523 328.703 358.394C329.08 358.259 329.406 358.06 329.681 357.796C329.955 357.532 330.165 357.206 330.311 356.818L332.598 357.23C332.415 357.903 332.086 358.493 331.612 359C331.143 359.501 330.553 359.891 329.842 360.171C329.137 360.446 328.331 360.583 327.426 360.583ZM335.432 360.333V347.921H337.767V349.893H337.896C338.123 349.225 338.521 348.7 339.092 348.317C339.669 347.929 340.321 347.736 341.048 347.736C341.199 347.736 341.376 347.741 341.581 347.752C341.791 347.762 341.955 347.776 342.074 347.792V350.103C341.977 350.076 341.805 350.047 341.557 350.014C341.309 349.977 341.061 349.958 340.813 349.958C340.242 349.958 339.733 350.079 339.286 350.321C338.845 350.558 338.494 350.89 338.236 351.315C337.977 351.735 337.848 352.215 337.848 352.753V360.333H335.432Z" fill="#4BCA5A"/>
</g>
<defs>
<filter id="filter0_d_387_271" x="10.9284" y="9.56342" width="284.43" height="79.6405" filterUnits="userSpaceOnUse" color-interpolation-filters="sRGB">
<feFlood flood-opacity="0" result="BackgroundImageFix"/>
<feColorMatrix in="SourceAlpha" type="matrix" values="0 0 0 0 0 0 0 0 0 0 0 0 0 0 0 0 0 0 127 0" result="hardAlpha"/>
<feOffset dx="3.7924" dy="3.7924"/>
<feComposite in2="hardAlpha" operator="out"/>
<feColorMatrix type="matrix" values="0 0 0 0 0.933061 0 0 0 0 0.733878 0 0 0 0 0.666939 0 0 0 1 0"/>
<feBlend mode="normal" in2="BackgroundImageFix" result="effect1_dropShadow_387_271"/>
<feBlend mode="normal" in="SourceGraphic" in2="effect1_dropShadow_387_271" result="shape"/>
</filter>
<filter id="filter1_d_387_271" x="314.321" y="9.56349" width="79.6405" height="79.6405" filterUnits="userSpaceOnUse" color-interpolation-filters="sRGB">
<feFlood flood-opacity="0" result="BackgroundImageFix"/>
<feColorMatrix in="SourceAlpha" type="matrix" values="0 0 0 0 0 0 0 0 0 0 0 0 0 0 0 0 0 0 127 0" result="hardAlpha"/>
<feOffset dx="3.7924" dy="3.7924"/>
<feComposite in2="hardAlpha" operator="out"/>
<feColorMatrix type="matrix" values="0 0 0 0 0.933061 0 0 0 0 0.733878 0 0 0 0 0.666939 0 0 0 1 0"/>
<feBlend mode="normal" in2="BackgroundImageFix" result="effect1_dropShadow_387_271"/>
<feBlend mode="normal" in="SourceGraphic" in2="effect1_dropShadow_387_271" result="shape"/>
</filter>
<filter id="filter2_d_387_271" x="10.9284" y="121.439" width="383.033" height="160.734" filterUnits="userSpaceOnUse" color-interpolation-filters="sRGB">
<feFlood flood-opacity="0" result="BackgroundImageFix"/>
<feColorMatrix in="SourceAlpha" type="matrix" values="0 0 0 0 0 0 0 0 0 0 0 0 0 0 0 0 0 0 127 0" result="hardAlpha"/>
<feOffset dx="3.7924" dy="3.7924"/>
<feComposite in2="hardAlpha" operator="out"/>
<feColorMatrix type="matrix" values="0 0 0 0 0.6 0 0 0 0 0.827451 0 0 0 0 1 0 0 0 1 0"/>
<feBlend mode="normal" in2="BackgroundImageFix" result="effect1_dropShadow_387_271"/>
<feBlend mode="normal" in="SourceGraphic" in2="effect1_dropShadow_387_271" result="shape"/>
</filter>
<filter id="filter3_d_387_271" x="10.9284" y="314.409" width="79.6405" height="79.6405" filterUnits="userSpaceOnUse" color-interpolation-filters="sRGB">
<feFlood flood-opacity="0" result="BackgroundImageFix"/>
<feColorMatrix in="SourceAlpha" type="matrix" values="0 0 0 0 0 0 0 0 0 0 0 0 0 0 0 0 0 0 127 0" result="hardAlpha"/>
<feOffset dx="3.7924" dy="3.7924"/>
<feComposite in2="hardAlpha" operator="out"/>
<feColorMatrix type="matrix" values="0 0 0 0 0.690435 0 0 0 0 0.909565 0 0 0 0 0.713043 0 0 0 1 0"/>
<feBlend mode="normal" in2="BackgroundImageFix" result="effect1_dropShadow_387_271"/>
<feBlend mode="normal" in="SourceGraphic" in2="effect1_dropShadow_387_271" result="shape"/>
</filter>
<filter id="filter4_d_387_271" x="109.531" y="314.409" width="284.43" height="79.6405" filterUnits="userSpaceOnUse" color-interpolation-filters="sRGB">
<feFlood flood-opacity="0" result="BackgroundImageFix"/>
<feColorMatrix in="SourceAlpha" type="matrix" values="0 0 0 0 0 0 0 0 0 0 0 0 0 0 0 0 0 0 127 0" result="hardAlpha"/>
<feOffset dx="3.7924" dy="3.7924"/>
<feComposite in2="hardAlpha" operator="out"/>
<feColorMatrix type="matrix" values="0 0 0 0 0.690435 0 0 0 0 0.909565 0 0 0 0 0.713043 0 0 0 1 0"/>
<feBlend mode="normal" in2="BackgroundImageFix" result="effect1_dropShadow_387_271"/>
<feBlend mode="normal" in="SourceGraphic" in2="effect1_dropShadow_387_271" result="shape"/>
</filter>
</defs>
</svg>
