<svg width="401" height="400" viewBox="0 0 401 400" fill="none" xmlns="http://www.w3.org/2000/svg">
<g filter="url(#filter0_d_381_1502)">
<rect x="24" y="36.2068" width="163.793" height="163.793" rx="17.4713" fill="white" shape-rendering="crispEdges"/>
<rect x="24.546" y="36.7528" width="162.701" height="162.701" rx="16.9253" stroke="#212528" stroke-width="1.09195" shape-rendering="crispEdges"/>
<path d="M106.89 100.433C101.107 98.9298 99.2466 97.3756 99.2466 94.9551C99.2466 92.1779 101.82 90.2415 106.126 90.2415C110.661 90.2415 112.343 92.4072 112.496 95.592H118.126C117.948 91.2097 115.273 87.184 109.948 85.8846V80.3047H102.304V85.8081C97.3611 86.8782 93.3864 90.0886 93.3864 95.006C93.3864 100.892 98.2529 103.822 105.362 105.529C111.731 107.058 113.005 109.3 113.005 111.669C113.005 113.427 111.757 116.23 106.126 116.23C100.877 116.23 98.8134 113.886 98.5332 110.879H92.9278C93.2335 116.459 97.4121 119.593 102.304 120.638V126.167H109.948V120.689C114.916 119.746 118.865 116.867 118.865 111.644C118.865 104.408 112.674 101.936 106.89 100.433Z" fill="#212528"/>
<path d="M96.6595 146.84H98.9613V155.141C98.9613 156.051 98.7462 156.851 98.3161 157.542C97.8901 158.233 97.2903 158.772 96.5168 159.161C95.7434 159.546 94.8396 159.738 93.8056 159.738C92.7674 159.738 91.8616 159.546 91.0881 159.161C90.3146 158.772 89.7149 158.233 89.2889 157.542C88.8628 156.851 88.6498 156.051 88.6498 155.141V146.84H90.9516V154.949C90.9516 155.478 91.0674 155.949 91.299 156.363C91.5348 156.777 91.8657 157.101 92.2917 157.337C92.7178 157.569 93.2224 157.685 93.8056 157.685C94.3888 157.685 94.8934 157.569 95.3194 157.337C95.7496 157.101 96.0805 156.777 96.3121 156.363C96.5437 155.949 96.6595 155.478 96.6595 154.949V146.84ZM108.369 150.333C108.311 149.791 108.067 149.369 107.636 149.067C107.21 148.765 106.656 148.614 105.974 148.614C105.494 148.614 105.082 148.686 104.739 148.831C104.396 148.976 104.133 149.172 103.951 149.421C103.769 149.669 103.676 149.952 103.672 150.27C103.672 150.535 103.732 150.765 103.852 150.959C103.976 151.154 104.143 151.319 104.354 151.456C104.565 151.588 104.799 151.7 105.055 151.791C105.312 151.882 105.57 151.958 105.831 152.02L107.022 152.318C107.502 152.43 107.963 152.581 108.406 152.771C108.853 152.961 109.252 153.201 109.603 153.491C109.959 153.78 110.24 154.13 110.447 154.539C110.654 154.949 110.757 155.428 110.757 155.978C110.757 156.723 110.567 157.379 110.186 157.945C109.806 158.508 109.256 158.948 108.536 159.267C107.821 159.581 106.954 159.738 105.936 159.738C104.948 159.738 104.09 159.585 103.362 159.279C102.638 158.973 102.071 158.526 101.662 157.939C101.256 157.352 101.037 156.636 101.004 155.792H103.269C103.302 156.235 103.438 156.603 103.678 156.897C103.918 157.19 104.23 157.41 104.615 157.554C105.004 157.699 105.438 157.771 105.918 157.771C106.418 157.771 106.857 157.697 107.233 157.548C107.614 157.395 107.912 157.184 108.127 156.915C108.342 156.642 108.451 156.324 108.455 155.96C108.451 155.629 108.354 155.356 108.164 155.141C107.974 154.922 107.707 154.74 107.363 154.595C107.024 154.446 106.627 154.314 106.172 154.198L104.727 153.826C103.68 153.557 102.853 153.149 102.245 152.603C101.641 152.053 101.339 151.323 101.339 150.413C101.339 149.665 101.542 149.009 101.947 148.446C102.357 147.884 102.913 147.448 103.616 147.137C104.319 146.823 105.115 146.666 106.005 146.666C106.906 146.666 107.696 146.823 108.375 147.137C109.057 147.448 109.593 147.88 109.982 148.434C110.37 148.984 110.571 149.617 110.584 150.333H108.369ZM117.115 159.546H112.809V146.84H117.202C118.463 146.84 119.547 147.094 120.453 147.603C121.363 148.107 122.062 148.833 122.55 149.78C123.038 150.728 123.282 151.861 123.282 153.18C123.282 154.504 123.036 155.641 122.544 156.593C122.056 157.544 121.351 158.274 120.428 158.783C119.51 159.292 118.406 159.546 117.115 159.546ZM115.111 157.554H117.003C117.889 157.554 118.627 157.393 119.218 157.07C119.81 156.744 120.254 156.258 120.552 155.612C120.85 154.963 120.999 154.152 120.999 153.18C120.999 152.208 120.85 151.402 120.552 150.761C120.254 150.115 119.814 149.634 119.231 149.315C118.652 148.992 117.932 148.831 117.072 148.831H115.111V157.554Z" fill="#212528"/>
</g>
<g filter="url(#filter1_d_381_1502)">
<rect x="214" y="10" width="163.793" height="163.793" rx="17.4713" fill="white" shape-rendering="crispEdges"/>
<rect x="214.546" y="10.546" width="162.701" height="162.701" rx="16.9253" stroke="#212528" stroke-width="1.09195" shape-rendering="crispEdges"/>
<path d="M300.126 64.2895C298.699 61.283 295.642 59.1937 292.075 59.1937H280.609V54.0979H311.184V59.1937H302.878C304.101 60.6715 305.018 62.404 305.553 64.2895H311.184V69.3853H306.037C305.4 76.5194 299.387 82.1247 292.075 82.1247H290.215L307.362 99.96H300.304L283.157 82.1247V77.0289H292.075C296.559 77.0289 300.279 73.7167 300.89 69.3853H280.609V64.2895H300.126Z" fill="#212528"/>
<path d="M284.452 120.633V133.339H282.15V120.633H284.452ZM297.386 120.633V133.339H295.339L289.351 124.684H289.246V133.339H286.944V120.633H289.004L294.985 129.294H295.097V120.633H297.386ZM299.894 133.339V120.633H304.659C305.635 120.633 306.454 120.802 307.116 121.141C307.782 121.481 308.284 121.956 308.624 122.568C308.967 123.176 309.139 123.886 309.139 124.697C309.139 125.511 308.965 126.219 308.617 126.818C308.274 127.414 307.767 127.875 307.097 128.202C306.427 128.525 305.604 128.686 304.628 128.686H301.234V126.775H304.318C304.889 126.775 305.356 126.696 305.72 126.539C306.084 126.378 306.353 126.144 306.527 125.838C306.704 125.528 306.793 125.147 306.793 124.697C306.793 124.246 306.704 123.861 306.527 123.543C306.349 123.22 306.078 122.976 305.714 122.81C305.35 122.641 304.88 122.556 304.305 122.556H302.196V133.339H299.894ZM306.458 127.582L309.604 133.339H307.035L303.946 127.582H306.458Z" fill="#212528"/>
</g>
<g filter="url(#filter2_d_381_1502)">
<rect x="24" y="226.207" width="163.793" height="163.793" rx="17.4713" fill="white" shape-rendering="crispEdges"/>
<rect x="24.546" y="226.753" width="162.701" height="162.701" rx="16.9253" stroke="#212528" stroke-width="1.09195" shape-rendering="crispEdges"/>
<path d="M110.992 316.803C115.91 316.803 120.216 313.822 121.184 309.16L116.725 306.918C116.088 309.695 114.381 311.708 110.992 311.708H98.5077C100.622 309.16 102.329 305.746 102.329 301.516C102.329 300.624 102.253 299.758 102.126 298.968H110.992V293.872H100.342C98.2529 289.847 95.705 287.758 95.705 283.681C95.705 278.763 99.7052 274.763 104.623 274.763C108.444 274.763 111.731 277.184 112.98 280.572L117.693 278.585C115.655 273.362 110.585 269.667 104.623 269.667C96.877 269.667 90.6092 275.935 90.6092 283.681C90.6092 288.216 92.622 291.07 94.4056 293.872H90.6092V298.968H96.9025C97.1063 299.758 97.2337 300.599 97.2337 301.516C97.2337 308.395 90.6092 311.708 90.6092 311.708V316.803H110.992Z" fill="#212528"/>
<path d="M97.6621 340.897C97.5587 340.562 97.416 340.262 97.234 339.998C97.0561 339.729 96.8411 339.499 96.5887 339.309C96.3406 339.119 96.0552 338.976 95.7326 338.881C95.4099 338.781 95.0584 338.732 94.6778 338.732C93.9954 338.732 93.3873 338.903 92.8538 339.247C92.3202 339.59 91.9004 340.095 91.5943 340.761C91.2924 341.422 91.1414 342.229 91.1414 343.18C91.1414 344.14 91.2924 344.953 91.5943 345.619C91.8962 346.285 92.3161 346.791 92.8538 347.139C93.3915 347.482 94.016 347.654 94.7275 347.654C95.3727 347.654 95.9311 347.53 96.4026 347.281C96.8783 347.033 97.2443 346.682 97.5008 346.227C97.7572 345.767 97.8854 345.23 97.8854 344.613L98.4066 344.694H94.957V342.895H100.113V344.421C100.113 345.509 99.8812 346.45 99.4179 347.244C98.9546 348.038 98.3177 348.65 97.507 349.081C96.6963 349.507 95.7656 349.72 94.7151 349.72C93.5445 349.72 92.5167 349.457 91.6315 348.932C90.7505 348.402 90.0618 347.652 89.5655 346.68C89.0733 345.703 88.8272 344.545 88.8272 343.205C88.8272 342.179 88.972 341.263 89.2615 340.457C89.5552 339.65 89.9646 338.966 90.4899 338.403C91.0152 337.836 91.6315 337.406 92.3388 337.113C93.0461 336.815 93.8154 336.666 94.6468 336.666C95.35 336.666 96.0055 336.769 96.6136 336.976C97.2216 337.179 97.7614 337.468 98.2329 337.845C98.7085 338.221 99.0994 338.668 99.4055 339.185C99.7116 339.702 99.9122 340.273 100.007 340.897H97.6621ZM102.339 349.546V336.84H107.203C108.121 336.84 108.884 336.984 109.492 337.274C110.104 337.559 110.561 337.95 110.863 338.446C111.169 338.943 111.322 339.505 111.322 340.134C111.322 340.651 111.223 341.094 111.025 341.462C110.826 341.826 110.559 342.121 110.224 342.349C109.889 342.576 109.515 342.74 109.101 342.839V342.963C109.552 342.988 109.984 343.127 110.398 343.379C110.816 343.627 111.157 343.979 111.422 344.434C111.686 344.889 111.819 345.439 111.819 346.084C111.819 346.742 111.659 347.333 111.341 347.858C111.022 348.379 110.543 348.791 109.902 349.093C109.26 349.395 108.454 349.546 107.482 349.546H102.339ZM104.64 347.623H107.116C107.951 347.623 108.553 347.463 108.921 347.145C109.294 346.822 109.48 346.409 109.48 345.904C109.48 345.528 109.387 345.188 109.201 344.886C109.014 344.58 108.75 344.341 108.406 344.167C108.063 343.989 107.654 343.9 107.178 343.9H104.64V347.623ZM104.64 342.243H106.917C107.314 342.243 107.672 342.171 107.991 342.026C108.309 341.877 108.559 341.669 108.741 341.4C108.928 341.127 109.021 340.804 109.021 340.432C109.021 339.94 108.847 339.534 108.499 339.216C108.156 338.897 107.645 338.738 106.967 338.738H104.64V342.243ZM113.821 349.546V336.84H118.586C119.562 336.84 120.381 337.022 121.043 337.386C121.709 337.749 122.211 338.25 122.551 338.887C122.894 339.52 123.066 340.239 123.066 341.046C123.066 341.861 122.894 342.585 122.551 343.218C122.207 343.85 121.701 344.349 121.031 344.713C120.36 345.073 119.535 345.253 118.555 345.253H115.397V343.36H118.245C118.816 343.36 119.283 343.261 119.647 343.062C120.011 342.864 120.28 342.591 120.454 342.243C120.631 341.896 120.72 341.497 120.72 341.046C120.72 340.595 120.631 340.198 120.454 339.855C120.28 339.512 120.009 339.245 119.641 339.054C119.277 338.86 118.807 338.763 118.232 338.763H116.123V349.546H113.821Z" fill="#212528"/>
</g>
<g filter="url(#filter3_d_381_1502)">
<rect x="214" y="200" width="163.793" height="163.793" rx="17.4713" fill="white" shape-rendering="crispEdges"/>
<rect x="214.546" y="200.546" width="162.701" height="162.701" rx="16.9253" stroke="#212528" stroke-width="1.09195" shape-rendering="crispEdges"/>
<path d="M303.54 283.59C297.145 283.59 291.616 279.972 288.864 274.673H303.54V269.577H287.183C287.055 268.736 286.979 267.895 286.979 267.029C286.979 266.163 287.055 265.322 287.183 264.481H303.54V259.385H288.864C291.616 254.086 297.171 250.468 303.54 250.468C307.642 250.468 311.413 251.971 314.318 254.468L318.828 249.958C314.776 246.315 309.4 244.098 303.54 244.098C293.553 244.098 285.094 250.493 281.934 259.385H272.966V264.481H280.762C280.66 265.322 280.609 266.163 280.609 267.029C280.609 267.895 280.66 268.736 280.762 269.577H272.966V274.673H281.934C285.094 283.565 293.553 289.96 303.54 289.96C309.426 289.96 314.776 287.743 318.828 284.1L314.292 279.59C311.413 282.087 307.668 283.59 303.54 283.59Z" fill="#212528"/>
<path d="M279.65 323.339V310.633H287.914V312.562H281.952V316.012H287.486V317.941H281.952V321.41H287.964V323.339H279.65ZM298.272 310.633H300.574V318.934C300.574 319.844 300.359 320.644 299.929 321.335C299.503 322.026 298.903 322.566 298.129 322.954C297.356 323.339 296.452 323.531 295.418 323.531C294.38 323.531 293.474 323.339 292.701 322.954C291.927 322.566 291.327 322.026 290.901 321.335C290.475 320.644 290.262 319.844 290.262 318.934V310.633H292.564V318.742C292.564 319.271 292.68 319.743 292.912 320.156C293.147 320.57 293.478 320.895 293.904 321.13C294.33 321.362 294.835 321.478 295.418 321.478C296.001 321.478 296.506 321.362 296.932 321.13C297.362 320.895 297.693 320.57 297.925 320.156C298.156 319.743 298.272 319.271 298.272 318.742V310.633ZM303.076 323.339V310.633H307.841C308.817 310.633 309.636 310.802 310.297 311.141C310.963 311.481 311.466 311.956 311.805 312.568C312.148 313.176 312.32 313.886 312.32 314.697C312.32 315.511 312.146 316.219 311.799 316.818C311.456 317.414 310.949 317.875 310.279 318.202C309.609 318.525 308.786 318.686 307.81 318.686H304.416V316.775H307.499C308.07 316.775 308.538 316.696 308.902 316.539C309.266 316.378 309.534 316.144 309.708 315.838C309.886 315.528 309.975 315.147 309.975 314.697C309.975 314.246 309.886 313.861 309.708 313.543C309.53 313.22 309.259 312.976 308.895 312.81C308.531 312.641 308.062 312.556 307.487 312.556H305.377V323.339H303.076ZM309.64 317.582L312.785 323.339H310.217L307.127 317.582H309.64Z" fill="#212528"/>
</g>
<defs>
<filter id="filter0_d_381_1502" x="24" y="36.2068" width="168.161" height="168.161" filterUnits="userSpaceOnUse" color-interpolation-filters="sRGB">
<feFlood flood-opacity="0" result="BackgroundImageFix"/>
<feColorMatrix in="SourceAlpha" type="matrix" values="0 0 0 0 0 0 0 0 0 0 0 0 0 0 0 0 0 0 127 0" result="hardAlpha"/>
<feOffset dx="4.36782" dy="4.36782"/>
<feComposite in2="hardAlpha" operator="out"/>
<feColorMatrix type="matrix" values="0 0 0 0 0.667568 0 0 0 0 0.805297 0 0 0 0 0.932432 0 0 0 1 0"/>
<feBlend mode="normal" in2="BackgroundImageFix" result="effect1_dropShadow_381_1502"/>
<feBlend mode="normal" in="SourceGraphic" in2="effect1_dropShadow_381_1502" result="shape"/>
</filter>
<filter id="filter1_d_381_1502" x="214" y="10" width="168.161" height="168.161" filterUnits="userSpaceOnUse" color-interpolation-filters="sRGB">
<feFlood flood-opacity="0" result="BackgroundImageFix"/>
<feColorMatrix in="SourceAlpha" type="matrix" values="0 0 0 0 0 0 0 0 0 0 0 0 0 0 0 0 0 0 127 0" result="hardAlpha"/>
<feOffset dx="4.36782" dy="4.36782"/>
<feComposite in2="hardAlpha" operator="out"/>
<feColorMatrix type="matrix" values="0 0 0 0 0.932432 0 0 0 0 0.778811 0 0 0 0 0.667568 0 0 0 1 0"/>
<feBlend mode="normal" in2="BackgroundImageFix" result="effect1_dropShadow_381_1502"/>
<feBlend mode="normal" in="SourceGraphic" in2="effect1_dropShadow_381_1502" result="shape"/>
</filter>
<filter id="filter2_d_381_1502" x="24" y="226.207" width="168.161" height="168.161" filterUnits="userSpaceOnUse" color-interpolation-filters="sRGB">
<feFlood flood-opacity="0" result="BackgroundImageFix"/>
<feColorMatrix in="SourceAlpha" type="matrix" values="0 0 0 0 0 0 0 0 0 0 0 0 0 0 0 0 0 0 127 0" result="hardAlpha"/>
<feOffset dx="4.36782" dy="4.36782"/>
<feComposite in2="hardAlpha" operator="out"/>
<feColorMatrix type="matrix" values="0 0 0 0 0.672865 0 0 0 0 0.932432 0 0 0 0 0.667568 0 0 0 1 0"/>
<feBlend mode="normal" in2="BackgroundImageFix" result="effect1_dropShadow_381_1502"/>
<feBlend mode="normal" in="SourceGraphic" in2="effect1_dropShadow_381_1502" result="shape"/>
</filter>
<filter id="filter3_d_381_1502" x="214" y="200" width="168.161" height="168.161" filterUnits="userSpaceOnUse" color-interpolation-filters="sRGB">
<feFlood flood-opacity="0" result="BackgroundImageFix"/>
<feColorMatrix in="SourceAlpha" type="matrix" values="0 0 0 0 0 0 0 0 0 0 0 0 0 0 0 0 0 0 127 0" result="hardAlpha"/>
<feOffset dx="4.36782" dy="4.36782"/>
<feComposite in2="hardAlpha" operator="out"/>
<feColorMatrix type="matrix" values="0 0 0 0 0.932432 0 0 0 0 0.667568 0 0 0 0 0.905946 0 0 0 1 0"/>
<feBlend mode="normal" in2="BackgroundImageFix" result="effect1_dropShadow_381_1502"/>
<feBlend mode="normal" in="SourceGraphic" in2="effect1_dropShadow_381_1502" result="shape"/>
</filter>
</defs>
</svg>
