<svg width="401" height="400" viewBox="0 0 401 400" fill="none" xmlns="http://www.w3.org/2000/svg">
<g filter="url(#filter0_d_387_270)">
<g filter="url(#filter1_d_387_270)">
<rect x="10.9738" y="10.5" width="379.052" height="75.8105" rx="15.1621" fill="white" shape-rendering="crispEdges"/>
<rect x="11.4476" y="10.9738" width="378.105" height="74.8628" rx="14.6883" stroke="#212528" stroke-width="0.947631" shape-rendering="crispEdges"/>
<path d="M108.186 54.9122C106.985 54.9122 105.911 55.386 105.09 56.1283L93.8292 49.5739C93.9081 49.2106 93.9713 48.8474 93.9713 48.4683C93.9713 48.0893 93.9081 47.726 93.8292 47.3627L104.964 40.8715C105.817 41.6612 106.938 42.1508 108.186 42.1508C110.808 42.1508 112.924 40.0344 112.924 37.4126C112.924 34.7908 110.808 32.6745 108.186 32.6745C105.564 32.6745 103.448 34.7908 103.448 37.4126C103.448 37.7917 103.511 38.1549 103.59 38.5182L92.4551 45.0095C91.6022 44.2198 90.4809 43.7302 89.2331 43.7302C86.6114 43.7302 84.495 45.8465 84.495 48.4683C84.495 51.0901 86.6114 53.2065 89.2331 53.2065C90.4809 53.2065 91.6022 52.7169 92.4551 51.9272L103.7 58.4974C103.621 58.8291 103.574 59.1765 103.574 59.524C103.574 62.0668 105.643 64.1358 108.186 64.1358C110.729 64.1358 112.798 62.0668 112.798 59.524C112.798 56.9812 110.729 54.9122 108.186 54.9122ZM108.186 35.8332C109.054 35.8332 109.765 36.544 109.765 37.4126C109.765 38.2813 109.054 38.992 108.186 38.992C107.317 38.992 106.606 38.2813 106.606 37.4126C106.606 36.544 107.317 35.8332 108.186 35.8332ZM89.2331 50.0477C88.3645 50.0477 87.6538 49.337 87.6538 48.4683C87.6538 47.5997 88.3645 46.8889 89.2331 46.8889C90.1018 46.8889 90.8125 47.5997 90.8125 48.4683C90.8125 49.337 90.1018 50.0477 89.2331 50.0477ZM108.186 61.135C107.317 61.135 106.606 60.4243 106.606 59.5556C106.606 58.6869 107.317 57.9762 108.186 57.9762C109.054 57.9762 109.765 58.6869 109.765 59.5556C109.765 60.4243 109.054 61.135 108.186 61.135Z" fill="#212528"/>
<path d="M139.695 43.6448C139.58 42.6253 139.106 41.8356 138.273 41.2757C137.44 40.7085 136.392 40.425 135.129 40.425C134.224 40.425 133.442 40.5685 132.781 40.8557C132.121 41.1357 131.607 41.5234 131.241 42.0187C130.882 42.5069 130.703 43.0633 130.703 43.6878C130.703 44.2119 130.825 44.6642 131.069 45.0447C131.32 45.4252 131.647 45.7446 132.049 46.0031C132.458 46.2543 132.896 46.4661 133.363 46.6384C133.829 46.8035 134.278 46.9399 134.709 47.0476L136.862 47.6076C137.566 47.7799 138.287 48.0132 139.027 48.3075C139.766 48.6019 140.452 48.9895 141.084 49.4705C141.715 49.9515 142.225 50.5474 142.613 51.2581C143.008 51.9688 143.205 52.8195 143.205 53.8103C143.205 55.0594 142.882 56.1686 142.236 57.1377C141.597 58.1069 140.667 58.8715 139.447 59.4314C138.234 59.9914 136.765 60.2714 135.043 60.2714C133.391 60.2714 131.963 60.0093 130.757 59.4853C129.551 58.9612 128.607 58.2182 127.925 57.2562C127.243 56.287 126.866 55.1384 126.794 53.8103H130.132C130.197 54.6071 130.455 55.2712 130.907 55.8024C131.367 56.3265 131.952 56.7178 132.663 56.9762C133.381 57.2275 134.167 57.3531 135.021 57.3531C135.961 57.3531 136.798 57.2059 137.53 56.9116C138.27 56.6101 138.851 56.1937 139.275 55.6624C139.698 55.124 139.91 54.4958 139.91 53.7779C139.91 53.1247 139.723 52.5898 139.35 52.1734C138.984 51.7571 138.485 51.4125 137.853 51.1397C137.229 50.8669 136.521 50.6264 135.732 50.4182L133.126 49.7074C131.36 49.2264 129.96 48.5193 128.926 47.586C127.899 46.6528 127.386 45.418 127.386 43.8817C127.386 42.611 127.731 41.5018 128.42 40.5542C129.109 39.6066 130.042 38.8707 131.22 38.3466C132.397 37.8154 133.725 37.5498 135.204 37.5498C136.697 37.5498 138.015 37.8118 139.156 38.3359C140.305 38.8599 141.209 39.5814 141.87 40.5003C142.53 41.4121 142.875 42.4602 142.904 43.6448H139.695ZM150.143 50.0843V59.9052H146.923V37.8513H150.1V46.0569H150.304C150.692 45.1667 151.284 44.4596 152.081 43.9355C152.878 43.4114 153.919 43.1494 155.204 43.1494C156.338 43.1494 157.329 43.3827 158.176 43.8494C159.03 44.316 159.691 45.0124 160.157 45.9385C160.631 46.8574 160.868 48.006 160.868 49.3844V59.9052H157.648V49.7721C157.648 48.5588 157.336 47.6183 156.712 46.9507C156.087 46.2759 155.218 45.9385 154.106 45.9385C153.345 45.9385 152.663 46.1 152.06 46.423C151.464 46.7461 150.993 47.2199 150.649 47.8445C150.311 48.4619 150.143 49.2085 150.143 50.0843ZM169.978 60.2714C168.93 60.2714 167.983 60.0775 167.135 59.6899C166.288 59.295 165.617 58.7243 165.122 57.9777C164.634 57.2311 164.389 56.3157 164.389 55.2317C164.389 54.2984 164.569 53.5303 164.928 52.9272C165.287 52.3242 165.771 51.8468 166.382 51.495C166.992 51.1432 167.674 50.8776 168.428 50.6981C169.181 50.5187 169.95 50.3823 170.732 50.2889C171.723 50.1741 172.527 50.0808 173.144 50.009C173.762 49.93 174.21 49.8044 174.49 49.6321C174.77 49.4598 174.91 49.1798 174.91 48.7921V48.7167C174.91 47.7763 174.645 47.0476 174.113 46.5307C173.589 46.0138 172.807 45.7554 171.766 45.7554C170.682 45.7554 169.828 45.9959 169.203 46.4769C168.586 46.9507 168.158 47.4784 167.922 48.0599L164.896 47.3707C165.255 46.3656 165.779 45.5544 166.468 44.937C167.164 44.3124 167.965 43.8601 168.869 43.5801C169.774 43.293 170.725 43.1494 171.723 43.1494C172.383 43.1494 173.083 43.2284 173.823 43.3863C174.569 43.5371 175.266 43.8171 175.912 44.2263C176.565 44.6355 177.1 45.2206 177.516 45.9815C177.933 46.7353 178.141 47.7153 178.141 48.9213V59.9052H174.996V57.6439H174.867C174.659 58.0602 174.347 58.4694 173.93 58.8715C173.514 59.2735 172.979 59.6073 172.326 59.8729C171.673 60.1386 170.89 60.2714 169.978 60.2714ZM170.678 57.6869C171.568 57.6869 172.329 57.511 172.961 57.1593C173.6 56.8075 174.085 56.348 174.415 55.7809C174.752 55.2066 174.921 54.5928 174.921 53.9395V51.8073C174.806 51.9222 174.584 52.0299 174.253 52.1304C173.93 52.2237 173.561 52.3062 173.144 52.378C172.728 52.4426 172.322 52.5037 171.927 52.5611C171.533 52.6114 171.202 52.6544 170.937 52.6903C170.312 52.7693 169.741 52.9021 169.225 53.0888C168.715 53.2754 168.306 53.5446 167.997 53.8964C167.695 54.241 167.545 54.7005 167.545 55.2748C167.545 56.0716 167.839 56.6747 168.428 57.0839C169.016 57.4859 169.767 57.6869 170.678 57.6869ZM182.429 59.9052V43.3648H185.542V45.9923H185.714C186.015 45.1021 186.547 44.4021 187.308 43.8924C188.076 43.3755 188.944 43.1171 189.914 43.1171C190.115 43.1171 190.352 43.1243 190.624 43.1386C190.904 43.153 191.123 43.1709 191.281 43.1925V46.2723C191.152 46.2364 190.922 46.1969 190.592 46.1538C190.262 46.1036 189.932 46.0784 189.601 46.0784C188.84 46.0784 188.162 46.24 187.566 46.563C186.977 46.8789 186.511 47.3204 186.166 47.8876C185.822 48.4475 185.649 49.0865 185.649 49.8044V59.9052H182.429ZM200.604 60.2391C198.974 60.2391 197.571 59.8909 196.394 59.1945C195.223 58.491 194.319 57.5039 193.68 56.2332C193.048 54.9553 192.732 53.4585 192.732 51.7427C192.732 50.0484 193.048 48.5552 193.68 47.263C194.319 45.9708 195.209 44.9621 196.35 44.237C197.499 43.5119 198.842 43.1494 200.378 43.1494C201.311 43.1494 202.216 43.3038 203.092 43.6125C203.967 43.9211 204.754 44.4057 205.45 45.0662C206.146 45.7267 206.695 46.5846 207.097 47.6399C207.5 48.688 207.701 49.9623 207.701 51.4627V52.6042H194.552V50.192H204.545C204.545 49.3449 204.373 48.5947 204.028 47.9414C203.684 47.2809 203.199 46.7605 202.575 46.38C201.957 45.9995 201.232 45.8092 200.399 45.8092C199.495 45.8092 198.705 46.0318 198.03 46.4769C197.363 46.9148 196.846 47.4891 196.48 48.1998C196.121 48.9034 195.941 49.668 195.941 50.4935V52.378C195.941 53.4836 196.135 54.4241 196.523 55.1994C196.918 55.9747 197.467 56.567 198.17 56.9762C198.874 57.3782 199.696 57.5792 200.636 57.5792C201.247 57.5792 201.803 57.4931 202.305 57.3208C202.808 57.1413 203.242 56.8757 203.608 56.5239C203.975 56.1722 204.255 55.7378 204.448 55.2209L207.496 55.7701C207.252 56.6675 206.814 57.4536 206.182 58.1284C205.558 58.7961 204.771 59.3166 203.824 59.6899C202.883 60.056 201.81 60.2391 200.604 60.2391ZM222.884 37.8513V59.9052H219.557V37.8513H222.884ZM230.691 50.0843V59.9052H227.472V43.3648H230.562V46.0569H230.767C231.147 45.1811 231.743 44.4775 232.554 43.9463C233.373 43.415 234.403 43.1494 235.645 43.1494C236.772 43.1494 237.759 43.3863 238.606 43.8601C239.453 44.3268 240.11 45.0231 240.577 45.9492C241.043 46.8753 241.277 48.0204 241.277 49.3844V59.9052H238.057V49.7721C238.057 48.5732 237.745 47.6363 237.12 46.9615C236.496 46.2795 235.638 45.9385 234.546 45.9385C233.8 45.9385 233.136 46.1 232.554 46.423C231.98 46.7461 231.524 47.2199 231.187 47.8445C230.856 48.4619 230.691 49.2085 230.691 50.0843ZM259.153 43.3648L253.154 59.9052H249.709L243.7 43.3648H247.156L251.345 56.0932H251.518L255.696 43.3648H259.153ZM268.583 60.2391C267.032 60.2391 265.679 59.8837 264.523 59.173C263.368 58.4623 262.47 57.468 261.831 56.1901C261.192 54.9122 260.873 53.419 260.873 51.7104C260.873 49.9946 261.192 48.4942 261.831 47.2091C262.47 45.9241 263.368 44.9262 264.523 44.2155C265.679 43.5048 267.032 43.1494 268.583 43.1494C270.134 43.1494 271.487 43.5048 272.643 44.2155C273.799 44.9262 274.696 45.9241 275.335 47.2091C275.974 48.4942 276.293 49.9946 276.293 51.7104C276.293 53.419 275.974 54.9122 275.335 56.1901C274.696 57.468 273.799 58.4623 272.643 59.173C271.487 59.8837 270.134 60.2391 268.583 60.2391ZM268.594 57.5362C269.599 57.5362 270.432 57.2705 271.092 56.7393C271.753 56.208 272.241 55.5009 272.557 54.6179C272.88 53.7349 273.041 52.7621 273.041 51.6996C273.041 50.6443 272.88 49.6751 272.557 48.7921C272.241 47.9019 271.753 47.1876 271.092 46.6492C270.432 46.1108 269.599 45.8415 268.594 45.8415C267.582 45.8415 266.742 46.1108 266.074 46.6492C265.414 47.1876 264.922 47.9019 264.599 48.7921C264.283 49.6751 264.125 50.6443 264.125 51.6996C264.125 52.7621 264.283 53.7349 264.599 54.6179C264.922 55.5009 265.414 56.208 266.074 56.7393C266.742 57.2705 267.582 57.5362 268.594 57.5362ZM279.887 59.9052V43.3648H283.107V59.9052H279.887ZM281.513 40.8126C280.953 40.8126 280.472 40.626 280.07 40.2527C279.676 39.8722 279.478 39.4199 279.478 38.8958C279.478 38.3646 279.676 37.9123 280.07 37.539C280.472 37.1585 280.953 36.9683 281.513 36.9683C282.073 36.9683 282.551 37.1585 282.946 37.539C283.348 37.9123 283.549 38.3646 283.549 38.8958C283.549 39.4199 283.348 39.8722 282.946 40.2527C282.551 40.626 282.073 40.8126 281.513 40.8126ZM294.406 60.2391C292.805 60.2391 291.427 59.8765 290.271 59.1514C289.122 58.4192 288.239 57.4105 287.622 56.1255C287.004 54.8404 286.696 53.3687 286.696 51.7104C286.696 50.0305 287.012 48.548 287.643 47.263C288.275 45.9708 289.165 44.9621 290.314 44.237C291.463 43.5119 292.816 43.1494 294.374 43.1494C295.63 43.1494 296.75 43.3827 297.734 43.8494C298.717 44.3088 299.51 44.9549 300.113 45.7877C300.724 46.6205 301.086 47.5932 301.201 48.706H298.067C297.895 47.9306 297.5 47.263 296.883 46.703C296.273 46.1431 295.454 45.8631 294.428 45.8631C293.53 45.8631 292.744 46.1 292.069 46.5738C291.402 47.0404 290.881 47.7081 290.508 48.5767C290.135 49.4382 289.948 50.4576 289.948 51.635C289.948 52.8411 290.131 53.882 290.497 54.7579C290.863 55.6337 291.38 56.3121 292.048 56.7931C292.723 57.2741 293.516 57.5146 294.428 57.5146C295.038 57.5146 295.591 57.4034 296.086 57.1808C296.588 56.9511 297.008 56.6244 297.346 56.2009C297.69 55.7773 297.931 55.2676 298.067 54.6717H301.201C301.086 55.7414 300.738 56.6962 300.156 57.5362C299.575 58.3761 298.796 59.0366 297.82 59.5176C296.851 59.9986 295.713 60.2391 294.406 60.2391ZM311.773 60.2391C310.143 60.2391 308.74 59.8909 307.563 59.1945C306.392 58.491 305.488 57.5039 304.849 56.2332C304.217 54.9553 303.901 53.4585 303.901 51.7427C303.901 50.0484 304.217 48.5552 304.849 47.263C305.488 45.9708 306.378 44.9621 307.519 44.237C308.668 43.5119 310.011 43.1494 311.547 43.1494C312.48 43.1494 313.385 43.3038 314.261 43.6125C315.136 43.9211 315.922 44.4057 316.619 45.0662C317.315 45.7267 317.864 46.5846 318.266 47.6399C318.668 48.688 318.869 49.9623 318.869 51.4627V52.6042H305.721V50.192H315.714C315.714 49.3449 315.542 48.5947 315.197 47.9414C314.853 47.2809 314.368 46.7605 313.744 46.38C313.126 45.9995 312.401 45.8092 311.568 45.8092C310.664 45.8092 309.874 46.0318 309.199 46.4769C308.532 46.9148 308.015 47.4891 307.649 48.1998C307.29 48.9034 307.11 49.668 307.11 50.4935V52.378C307.11 53.4836 307.304 54.4241 307.692 55.1994C308.087 55.9747 308.636 56.567 309.339 56.9762C310.043 57.3782 310.865 57.5792 311.805 57.5792C312.416 57.5792 312.972 57.4931 313.474 57.3208C313.977 57.1413 314.411 56.8757 314.777 56.5239C315.144 56.1722 315.424 55.7378 315.617 55.2209L318.665 55.7701C318.421 56.6675 317.983 57.4536 317.351 58.1284C316.727 58.7961 315.94 59.3166 314.993 59.6899C314.052 60.056 312.979 60.2391 311.773 60.2391Z" fill="#212528"/>
</g>
<g filter="url(#filter2_d_387_270)">
<rect x="10.9738" y="111.896" width="75.8105" height="75.8105" rx="15.1621" fill="white" shape-rendering="crispEdges"/>
<rect x="11.4476" y="112.37" width="74.8628" height="74.8628" rx="14.6883" stroke="#212528" stroke-width="0.947631" shape-rendering="crispEdges"/>
<path fill-rule="evenodd" clip-rule="evenodd" d="M35.5375 158.281L33.322 166.385L41.5826 164.204C43.8595 165.461 46.4183 166.118 49.019 166.115C57.5958 166.115 64.5729 159.093 64.5729 150.464C64.5729 146.276 62.9595 142.344 60.0162 139.383C57.0729 136.421 53.1648 134.798 49.0034 134.798C40.4267 134.798 33.4486 141.819 33.465 150.464C33.4608 153.206 34.1754 155.901 35.5375 158.281ZM42.4216 161.673L41.947 161.386L41.9453 161.387L37.0242 162.693L38.3378 157.884L38.0372 157.39C36.7392 155.321 36.0586 152.917 36.0586 150.464C36.0586 143.3 41.866 137.457 49.0026 137.457C52.4524 137.457 55.7119 138.826 58.1504 141.277C60.5873 143.729 61.9319 147.009 61.9319 150.48C61.9319 157.644 56.1245 163.488 49.0044 163.488C46.6868 163.486 44.4126 162.859 42.4216 161.673Z" fill="#C1C5C8"/>
<path fill-rule="evenodd" clip-rule="evenodd" d="M35.5375 156.702L33.322 164.806L41.5826 162.625C43.8595 163.881 46.4183 164.539 49.019 164.535C57.5958 164.535 64.5729 157.513 64.5729 148.884C64.5729 144.697 62.9595 140.765 60.0162 137.803C57.0729 134.842 53.1648 133.218 49.0034 133.218C40.4267 133.218 33.4486 140.239 33.465 148.884C33.4608 151.626 34.1754 154.322 35.5375 156.702ZM42.4216 160.093L41.947 159.806L41.9453 159.807L37.0242 161.113L38.3378 156.305L38.0372 155.811C36.7392 153.742 36.0586 151.337 36.0586 148.885C36.0586 141.721 41.866 135.877 49.0026 135.877C52.4524 135.877 55.7119 137.247 58.1504 139.698C60.5873 142.15 61.9319 145.429 61.9319 148.901C61.9319 156.065 56.1245 161.908 49.0044 161.908C46.6868 161.906 44.4126 161.279 42.4216 160.093Z" fill="url(#paint0_linear_387_270)"/>
<path d="M41.9472 159.806L42.4219 160.093C44.4129 161.279 46.687 161.906 49.0046 161.908C56.1248 161.908 61.9322 156.064 61.9322 148.9C61.9322 145.429 60.5875 142.15 58.1507 139.697C55.7122 137.247 52.4527 135.877 49.0028 135.877C41.8663 135.877 36.0589 141.721 36.0589 148.885C36.0589 151.337 36.7394 153.741 38.0375 155.81L38.3381 156.305L37.0245 161.113L41.9456 159.807L41.9472 159.806Z" fill="url(#paint1_linear_387_270)"/>
<path fill-rule="evenodd" clip-rule="evenodd" d="M45.1264 142.325C44.8421 141.672 44.5251 141.656 44.2564 141.656C44.0186 141.64 43.7654 141.64 43.4966 141.64C43.2434 141.64 42.8162 141.736 42.4527 142.134C42.0883 142.532 41.0917 143.471 41.0917 145.398C41.0917 147.324 42.4845 149.187 42.674 149.442C42.8635 149.697 45.3641 153.773 49.3196 155.349C52.6109 156.654 53.2759 156.4 53.9883 156.32C54.6998 156.24 56.2821 155.381 56.6146 154.456C56.9307 153.549 56.9307 152.754 56.836 152.594C56.7412 152.435 56.4716 152.339 56.0918 152.132C55.6964 151.941 53.7979 150.987 53.4335 150.859C53.07 150.731 52.8168 150.667 52.5635 151.05C52.3103 151.448 51.5669 152.324 51.3292 152.578C51.1078 152.833 50.8709 152.865 50.4911 152.673C50.0948 152.483 48.8458 152.069 47.3574 150.731C46.2031 149.697 45.4279 148.407 45.1901 148.025C44.9687 147.627 45.1583 147.42 45.3641 147.229C45.5381 147.054 45.7604 146.767 45.9499 146.544C46.1394 146.321 46.2022 146.146 46.3452 145.891C46.4719 145.637 46.4081 145.397 46.3134 145.207C46.2186 145.031 45.4744 143.105 45.1264 142.325V142.325Z" fill="white"/>
</g>
<g filter="url(#filter3_d_387_270)">
<rect x="109.527" y="111.896" width="280.499" height="75.8105" rx="15.1621" fill="white" shape-rendering="crispEdges"/>
<rect x="110.001" y="112.37" width="279.551" height="74.8628" rx="14.6883" stroke="#212528" stroke-width="0.947631" shape-rendering="crispEdges"/>
<path d="M197.833 157.802L193.245 141.261H195.87L199.093 154.07H199.246L202.598 141.261H205.198L208.55 154.079H208.703L211.918 141.261H214.551L209.955 157.802H207.444L203.963 145.413H203.833L200.352 157.802H197.833ZM219.047 150.436V157.802H216.632V141.261H219.015V147.415H219.168C219.459 146.748 219.903 146.217 220.501 145.824C221.099 145.431 221.879 145.235 222.843 145.235C223.694 145.235 224.437 145.41 225.072 145.76C225.713 146.11 226.208 146.632 226.558 147.327C226.914 148.016 227.091 148.877 227.091 149.911V157.802H224.677V150.202C224.677 149.292 224.442 148.587 223.974 148.086C223.505 147.58 222.854 147.327 222.019 147.327C221.449 147.327 220.937 147.448 220.485 147.69C220.038 147.932 219.685 148.288 219.427 148.756C219.174 149.219 219.047 149.779 219.047 150.436ZM233.924 158.076C233.138 158.076 232.427 157.931 231.792 157.64C231.157 157.344 230.653 156.916 230.282 156.356C229.915 155.796 229.732 155.11 229.732 154.297C229.732 153.597 229.867 153.02 230.136 152.568C230.405 152.116 230.769 151.758 231.227 151.494C231.684 151.23 232.196 151.031 232.761 150.896C233.326 150.762 233.902 150.659 234.489 150.59C235.232 150.503 235.835 150.433 236.298 150.38C236.762 150.32 237.098 150.226 237.308 150.097C237.518 149.968 237.623 149.758 237.623 149.467V149.41C237.623 148.705 237.424 148.159 237.025 147.771C236.632 147.383 236.045 147.189 235.265 147.189C234.452 147.189 233.811 147.37 233.343 147.73C232.879 148.086 232.559 148.482 232.381 148.918L230.112 148.401C230.381 147.647 230.774 147.039 231.291 146.576C231.813 146.107 232.414 145.768 233.092 145.558C233.771 145.343 234.484 145.235 235.232 145.235C235.728 145.235 236.253 145.294 236.807 145.413C237.367 145.526 237.89 145.736 238.374 146.042C238.864 146.349 239.265 146.788 239.578 147.359C239.89 147.924 240.046 148.659 240.046 149.564V157.802H237.688V156.106H237.591C237.435 156.418 237.2 156.725 236.888 157.026C236.576 157.328 236.175 157.578 235.685 157.777C235.195 157.977 234.608 158.076 233.924 158.076ZM234.449 156.138C235.117 156.138 235.687 156.006 236.161 155.742C236.64 155.478 237.004 155.134 237.252 154.708C237.505 154.278 237.631 153.817 237.631 153.327V151.728C237.545 151.814 237.378 151.895 237.13 151.971C236.888 152.041 236.611 152.102 236.298 152.156C235.986 152.205 235.682 152.251 235.386 152.294C235.09 152.331 234.842 152.364 234.643 152.391C234.174 152.45 233.746 152.549 233.359 152.689C232.976 152.829 232.669 153.031 232.438 153.295C232.212 153.554 232.099 153.898 232.099 154.329C232.099 154.927 232.32 155.379 232.761 155.686C233.203 155.987 233.765 156.138 234.449 156.138ZM249.053 145.396V147.335H242.277V145.396H249.053ZM244.094 142.424H246.509V154.159C246.509 154.628 246.579 154.98 246.719 155.217C246.859 155.449 247.039 155.608 247.26 155.694C247.486 155.775 247.731 155.815 247.995 155.815C248.189 155.815 248.359 155.801 248.504 155.775C248.649 155.748 248.762 155.726 248.843 155.71L249.279 157.705C249.139 157.759 248.94 157.812 248.682 157.866C248.423 157.926 248.1 157.958 247.712 157.963C247.077 157.974 246.485 157.861 245.936 157.624C245.386 157.387 244.942 157.021 244.603 156.526C244.264 156.03 244.094 155.408 244.094 154.66V142.424ZM260.82 148.425L258.632 148.813C258.54 148.533 258.395 148.266 258.196 148.013C258.002 147.76 257.738 147.553 257.404 147.391C257.07 147.23 256.653 147.149 256.152 147.149C255.469 147.149 254.898 147.302 254.44 147.609C253.982 147.911 253.754 148.301 253.754 148.78C253.754 149.195 253.907 149.529 254.214 149.782C254.521 150.035 255.016 150.242 255.7 150.404L257.671 150.856C258.812 151.12 259.663 151.526 260.223 152.076C260.783 152.625 261.063 153.338 261.063 154.216C261.063 154.959 260.847 155.621 260.417 156.203C259.991 156.779 259.396 157.231 258.632 157.559C257.873 157.888 256.992 158.052 255.991 158.052C254.602 158.052 253.468 157.756 252.591 157.164C251.713 156.566 251.175 155.718 250.975 154.62L253.309 154.264C253.455 154.873 253.754 155.333 254.206 155.645C254.658 155.952 255.248 156.106 255.975 156.106C256.766 156.106 257.399 155.941 257.873 155.613C258.346 155.279 258.583 154.873 258.583 154.393C258.583 154.006 258.438 153.68 258.147 153.416C257.862 153.152 257.423 152.953 256.831 152.819L254.731 152.358C253.573 152.094 252.717 151.674 252.163 151.098C251.613 150.522 251.339 149.793 251.339 148.91C251.339 148.177 251.543 147.537 251.953 146.987C252.362 146.438 252.927 146.01 253.649 145.703C254.37 145.391 255.197 145.235 256.128 145.235C257.469 145.235 258.524 145.526 259.294 146.107C260.064 146.683 260.573 147.456 260.82 148.425ZM265.309 157.802H262.66L268.612 141.261H271.495L277.448 157.802H274.799L270.122 144.266H269.993L265.309 157.802ZM265.753 151.324H274.346V153.424H265.753V151.324ZM279.643 162.454V145.396H282.001V147.407H282.203C282.343 147.149 282.545 146.85 282.808 146.511C283.072 146.172 283.438 145.876 283.907 145.623C284.375 145.364 284.994 145.235 285.764 145.235C286.766 145.235 287.66 145.488 288.446 145.994C289.232 146.5 289.848 147.23 290.295 148.183C290.748 149.136 290.974 150.283 290.974 151.623C290.974 152.964 290.75 154.114 290.303 155.072C289.856 156.025 289.243 156.76 288.462 157.277C287.681 157.788 286.79 158.044 285.789 158.044C285.035 158.044 284.418 157.917 283.939 157.664C283.465 157.411 283.094 157.115 282.825 156.776C282.555 156.437 282.348 156.135 282.203 155.871H282.057V162.454H279.643ZM282.009 151.599C282.009 152.471 282.135 153.236 282.388 153.893C282.642 154.55 283.008 155.064 283.487 155.435C283.966 155.801 284.553 155.985 285.248 155.985C285.969 155.985 286.572 155.793 287.057 155.411C287.541 155.023 287.907 154.498 288.155 153.836C288.408 153.174 288.535 152.428 288.535 151.599C288.535 150.781 288.411 150.046 288.163 149.394C287.921 148.743 287.555 148.229 287.065 147.852C286.58 147.475 285.974 147.286 285.248 147.286C284.548 147.286 283.955 147.467 283.471 147.827C282.992 148.188 282.628 148.692 282.38 149.338C282.133 149.984 282.009 150.738 282.009 151.599ZM293.679 162.454V145.396H296.038V147.407H296.24C296.38 147.149 296.581 146.85 296.845 146.511C297.109 146.172 297.475 145.876 297.944 145.623C298.412 145.364 299.031 145.235 299.801 145.235C300.803 145.235 301.696 145.488 302.483 145.994C303.269 146.5 303.885 147.23 304.332 148.183C304.784 149.136 305.01 150.283 305.01 151.623C305.01 152.964 304.787 154.114 304.34 155.072C303.893 156.025 303.279 156.76 302.499 157.277C301.718 157.788 300.827 158.044 299.825 158.044C299.072 158.044 298.455 157.917 297.976 157.664C297.502 157.411 297.131 157.115 296.861 156.776C296.592 156.437 296.385 156.135 296.24 155.871H296.094V162.454H293.679ZM296.046 151.599C296.046 152.471 296.172 153.236 296.425 153.893C296.678 154.55 297.044 155.064 297.524 155.435C298.003 155.801 298.59 155.985 299.284 155.985C300.006 155.985 300.609 155.793 301.093 155.411C301.578 155.023 301.944 154.498 302.192 153.836C302.445 153.174 302.571 152.428 302.571 151.599C302.571 150.781 302.448 150.046 302.2 149.394C301.958 148.743 301.591 148.229 301.102 147.852C300.617 147.475 300.011 147.286 299.284 147.286C298.584 147.286 297.992 147.467 297.508 147.827C297.028 148.188 296.665 148.692 296.417 149.338C296.17 149.984 296.046 150.738 296.046 151.599Z" fill="#4BCA5A"/>
</g>
<g filter="url(#filter4_d_387_270)">
<rect x="10.9738" y="213.293" width="280.499" height="75.8105" rx="15.1621" fill="white" shape-rendering="crispEdges"/>
<rect x="11.4476" y="213.767" width="279.551" height="74.8628" rx="14.6883" stroke="#212528" stroke-width="0.947631" shape-rendering="crispEdges"/>
<path d="M123.54 259.198V242.658H133.91V244.806H126.036V249.846H133.369V251.986H126.036V257.05H134.007V259.198H123.54ZM137.05 259.198V246.793H139.368V248.812H139.522C139.78 248.128 140.203 247.595 140.79 247.213C141.376 246.825 142.079 246.631 142.898 246.631C143.727 246.631 144.421 246.825 144.981 247.213C145.547 247.601 145.964 248.134 146.233 248.812H146.362C146.658 248.15 147.13 247.622 147.776 247.229C148.422 246.831 149.192 246.631 150.086 246.631C151.211 246.631 152.129 246.984 152.84 247.689C153.556 248.395 153.914 249.458 153.914 250.88V259.198H151.499V251.106C151.499 250.266 151.27 249.657 150.812 249.28C150.355 248.903 149.808 248.715 149.173 248.715C148.387 248.715 147.776 248.957 147.34 249.442C146.903 249.921 146.685 250.538 146.685 251.291V259.198H144.279V250.952C144.279 250.279 144.069 249.738 143.649 249.329C143.229 248.92 142.682 248.715 142.009 248.715C141.551 248.715 141.129 248.836 140.741 249.078C140.359 249.315 140.049 249.647 139.812 250.072C139.581 250.497 139.465 250.99 139.465 251.55V259.198H137.05ZM160.76 259.473C159.974 259.473 159.264 259.327 158.628 259.037C157.993 258.741 157.49 258.312 157.118 257.753C156.752 257.193 156.569 256.506 156.569 255.693C156.569 254.993 156.703 254.417 156.973 253.965C157.242 253.512 157.605 253.154 158.063 252.891C158.521 252.627 159.032 252.427 159.597 252.293C160.163 252.158 160.739 252.056 161.326 251.986C162.069 251.9 162.672 251.83 163.135 251.776C163.598 251.717 163.935 251.623 164.144 251.493C164.354 251.364 164.459 251.154 164.459 250.863V250.807C164.459 250.101 164.26 249.555 163.862 249.167C163.469 248.78 162.882 248.586 162.101 248.586C161.288 248.586 160.647 248.766 160.179 249.127C159.716 249.482 159.396 249.878 159.218 250.314L156.948 249.797C157.218 249.043 157.611 248.435 158.128 247.972C158.65 247.504 159.25 247.164 159.929 246.954C160.607 246.739 161.32 246.631 162.069 246.631C162.564 246.631 163.089 246.691 163.644 246.809C164.204 246.922 164.726 247.132 165.211 247.439C165.701 247.746 166.102 248.185 166.414 248.755C166.726 249.321 166.882 250.056 166.882 250.96V259.198H164.524V257.502H164.427C164.271 257.814 164.037 258.121 163.725 258.423C163.412 258.724 163.011 258.975 162.521 259.174C162.031 259.373 161.444 259.473 160.76 259.473ZM161.285 257.534C161.953 257.534 162.524 257.403 162.998 257.139C163.477 256.875 163.84 256.53 164.088 256.105C164.341 255.674 164.468 255.214 164.468 254.724V253.125C164.381 253.211 164.214 253.292 163.967 253.367C163.725 253.437 163.447 253.499 163.135 253.553C162.823 253.601 162.518 253.647 162.222 253.69C161.926 253.728 161.679 253.76 161.479 253.787C161.011 253.846 160.583 253.946 160.195 254.086C159.813 254.226 159.506 254.428 159.274 254.692C159.048 254.95 158.935 255.295 158.935 255.725C158.935 256.323 159.156 256.775 159.597 257.082C160.039 257.384 160.602 257.534 161.285 257.534ZM170.099 259.198V246.793H172.514V259.198H170.099ZM171.318 244.879C170.898 244.879 170.538 244.739 170.236 244.459C169.94 244.173 169.792 243.834 169.792 243.441C169.792 243.043 169.94 242.704 170.236 242.424C170.538 242.138 170.898 241.995 171.318 241.995C171.738 241.995 172.096 242.138 172.393 242.424C172.694 242.704 172.845 243.043 172.845 243.441C172.845 243.834 172.694 244.173 172.393 244.459C172.096 244.739 171.738 244.879 171.318 244.879ZM178.177 242.658V259.198H175.762V242.658H178.177Z" fill="#CC5229"/>
</g>
<g filter="url(#filter5_d_387_270)">
<rect x="314.216" y="213.293" width="75.8105" height="75.8105" rx="15.1621" fill="white" shape-rendering="crispEdges"/>
<rect x="314.69" y="213.767" width="74.8628" height="74.8628" rx="14.6883" stroke="#212528" stroke-width="0.947631" shape-rendering="crispEdges"/>
<path d="M336.327 243.527C336.327 241.658 337.741 240.142 339.486 240.142H364.756C366.501 240.142 367.915 241.658 367.915 243.527V260.449C367.915 262.318 366.501 263.833 364.756 263.833H339.486C337.741 263.833 336.327 262.318 336.327 260.449V243.527Z" fill="#8C2E0E"/>
<path d="M336.327 241.958C336.327 240.083 337.638 238.563 339.255 238.563H364.987C366.604 238.563 367.915 240.083 367.915 241.958C367.915 243.244 367.288 244.419 366.296 244.994L353.534 252.391C352.644 252.907 351.598 252.907 350.708 252.391L337.946 244.994C336.954 244.419 336.327 243.244 336.327 241.958Z" fill="#CC5229"/>
</g>
<g filter="url(#filter6_d_387_270)">
<rect x="10.9738" y="314.689" width="75.8105" height="75.8105" rx="15.1621" fill="white" shape-rendering="crispEdges"/>
<rect x="11.4476" y="315.163" width="74.8628" height="74.8628" rx="14.6883" stroke="#212528" stroke-width="0.947631" shape-rendering="crispEdges"/>
<path d="M33.0852 343.118C33.0852 340.502 35.2065 338.38 37.8234 338.38H59.9348C62.5516 338.38 64.6729 340.502 64.6729 343.118V355.753C64.6729 358.37 62.5516 360.492 59.9348 360.492H33.0852V343.118Z" fill="#0D4680"/>
<path d="M33.0852 343.118C33.0852 340.502 35.2065 338.38 37.8234 338.38H60.1001C60.5136 338.38 60.9244 338.447 61.3167 338.578L33.0852 366.809V343.118Z" fill="#66BDFF"/>
</g>
<g filter="url(#filter7_d_387_270)">
<rect x="109.527" y="314.689" width="280.499" height="75.8105" rx="15.1621" fill="white" shape-rendering="crispEdges"/>
<rect x="110.001" y="315.163" width="279.551" height="74.8628" rx="14.6883" stroke="#212528" stroke-width="0.947631" shape-rendering="crispEdges"/>
<path d="M235.615 348.399C235.529 347.635 235.174 347.042 234.549 346.623C233.925 346.197 233.139 345.984 232.191 345.984C231.513 345.984 230.926 346.092 230.43 346.308C229.935 346.518 229.55 346.808 229.275 347.18C229.006 347.546 228.872 347.963 228.872 348.432C228.872 348.825 228.963 349.164 229.146 349.449C229.335 349.735 229.58 349.974 229.881 350.168C230.188 350.357 230.516 350.515 230.866 350.645C231.216 350.768 231.553 350.871 231.876 350.951L233.491 351.371C234.019 351.501 234.56 351.676 235.115 351.896C235.669 352.117 236.183 352.408 236.657 352.769C237.131 353.129 237.513 353.576 237.804 354.109C238.1 354.642 238.248 355.28 238.248 356.023C238.248 356.96 238.006 357.792 237.521 358.519C237.042 359.246 236.345 359.819 235.43 360.239C234.52 360.659 233.419 360.869 232.126 360.869C230.888 360.869 229.816 360.673 228.912 360.28C228.007 359.887 227.299 359.329 226.788 358.608C226.276 357.881 225.994 357.02 225.94 356.023H228.443C228.492 356.621 228.686 357.119 229.025 357.518C229.37 357.911 229.808 358.204 230.341 358.398C230.88 358.586 231.469 358.681 232.11 358.681C232.816 358.681 233.443 358.57 233.992 358.349C234.547 358.123 234.983 357.811 235.3 357.413C235.618 357.009 235.777 356.538 235.777 355.999C235.777 355.509 235.637 355.108 235.357 354.796C235.082 354.484 234.708 354.225 234.234 354.021C233.766 353.816 233.235 353.636 232.643 353.479L230.689 352.946C229.364 352.586 228.314 352.055 227.539 351.355C226.769 350.655 226.384 349.729 226.384 348.577C226.384 347.624 226.642 346.792 227.159 346.081C227.676 345.371 228.376 344.819 229.259 344.426C230.142 344.027 231.138 343.828 232.247 343.828C233.367 343.828 234.355 344.025 235.212 344.418C236.073 344.811 236.751 345.352 237.247 346.041C237.742 346.725 238.001 347.511 238.022 348.399H235.615ZM241.23 344.054H244.259L249.525 356.912H249.719L254.985 344.054H258.013V360.595H255.639V348.625H255.485L250.607 360.57H248.636L243.758 348.617H243.605V360.595H241.23V344.054ZM270.663 348.399C270.577 347.635 270.221 347.042 269.597 346.623C268.972 346.197 268.186 345.984 267.238 345.984C266.56 345.984 265.973 346.092 265.478 346.308C264.982 346.518 264.597 346.808 264.323 347.18C264.054 347.546 263.919 347.963 263.919 348.432C263.919 348.825 264.011 349.164 264.194 349.449C264.382 349.735 264.627 349.974 264.929 350.168C265.236 350.357 265.564 350.515 265.914 350.645C266.264 350.768 266.6 350.871 266.923 350.951L268.539 351.371C269.066 351.501 269.608 351.676 270.162 351.896C270.717 352.117 271.231 352.408 271.705 352.769C272.179 353.129 272.561 353.576 272.852 354.109C273.148 354.642 273.296 355.28 273.296 356.023C273.296 356.96 273.053 357.792 272.569 358.519C272.09 359.246 271.392 359.819 270.477 360.239C269.567 360.659 268.466 360.869 267.174 360.869C265.935 360.869 264.864 360.673 263.959 360.28C263.055 359.887 262.347 359.329 261.835 358.608C261.324 357.881 261.041 357.02 260.987 356.023H263.491C263.539 356.621 263.733 357.119 264.073 357.518C264.417 357.911 264.856 358.204 265.389 358.398C265.927 358.586 266.517 358.681 267.158 358.681C267.863 358.681 268.49 358.57 269.04 358.349C269.594 358.123 270.03 357.811 270.348 357.413C270.666 357.009 270.824 356.538 270.824 355.999C270.824 355.509 270.684 355.108 270.404 354.796C270.13 354.484 269.756 354.225 269.282 354.021C268.813 353.816 268.283 353.636 267.691 353.479L265.736 352.946C264.412 352.586 263.362 352.055 262.586 351.355C261.817 350.655 261.432 349.729 261.432 348.577C261.432 347.624 261.69 346.792 262.207 346.081C262.724 345.371 263.424 344.819 264.307 344.426C265.19 344.027 266.186 343.828 267.295 343.828C268.415 343.828 269.403 344.025 270.259 344.418C271.121 344.811 271.799 345.352 272.294 346.041C272.79 346.725 273.048 347.511 273.07 348.399H270.663Z" fill="#0D4680"/>
</g>
</g>
<defs>
<filter id="filter0_d_387_270" x="7.18329" y="10.5" width="386.633" height="387.581" filterUnits="userSpaceOnUse" color-interpolation-filters="sRGB">
<feFlood flood-opacity="0" result="BackgroundImageFix"/>
<feColorMatrix in="SourceAlpha" type="matrix" values="0 0 0 0 0 0 0 0 0 0 0 0 0 0 0 0 0 0 127 0" result="hardAlpha"/>
<feOffset dy="3.79052"/>
<feGaussianBlur stdDeviation="1.89526"/>
<feComposite in2="hardAlpha" operator="out"/>
<feColorMatrix type="matrix" values="0 0 0 0 0 0 0 0 0 0 0 0 0 0 0 0 0 0 0.25 0"/>
<feBlend mode="normal" in2="BackgroundImageFix" result="effect1_dropShadow_387_270"/>
<feBlend mode="normal" in="SourceGraphic" in2="effect1_dropShadow_387_270" result="shape"/>
</filter>
<filter id="filter1_d_387_270" x="10.9738" y="10.5" width="382.843" height="79.601" filterUnits="userSpaceOnUse" color-interpolation-filters="sRGB">
<feFlood flood-opacity="0" result="BackgroundImageFix"/>
<feColorMatrix in="SourceAlpha" type="matrix" values="0 0 0 0 0 0 0 0 0 0 0 0 0 0 0 0 0 0 127 0" result="hardAlpha"/>
<feOffset dx="3.79052" dy="3.79052"/>
<feComposite in2="hardAlpha" operator="out"/>
<feColorMatrix type="matrix" values="0 0 0 0 0.667568 0 0 0 0 0.694595 0 0 0 0 0.932432 0 0 0 1 0"/>
<feBlend mode="normal" in2="BackgroundImageFix" result="effect1_dropShadow_387_270"/>
<feBlend mode="normal" in="SourceGraphic" in2="effect1_dropShadow_387_270" result="shape"/>
</filter>
<filter id="filter2_d_387_270" x="10.9738" y="111.896" width="79.601" height="79.601" filterUnits="userSpaceOnUse" color-interpolation-filters="sRGB">
<feFlood flood-opacity="0" result="BackgroundImageFix"/>
<feColorMatrix in="SourceAlpha" type="matrix" values="0 0 0 0 0 0 0 0 0 0 0 0 0 0 0 0 0 0 127 0" result="hardAlpha"/>
<feOffset dx="3.79052" dy="3.79052"/>
<feComposite in2="hardAlpha" operator="out"/>
<feColorMatrix type="matrix" values="0 0 0 0 0.690435 0 0 0 0 0.909565 0 0 0 0 0.713043 0 0 0 1 0"/>
<feBlend mode="normal" in2="BackgroundImageFix" result="effect1_dropShadow_387_270"/>
<feBlend mode="normal" in="SourceGraphic" in2="effect1_dropShadow_387_270" result="shape"/>
</filter>
<filter id="filter3_d_387_270" x="109.527" y="111.896" width="284.289" height="79.601" filterUnits="userSpaceOnUse" color-interpolation-filters="sRGB">
<feFlood flood-opacity="0" result="BackgroundImageFix"/>
<feColorMatrix in="SourceAlpha" type="matrix" values="0 0 0 0 0 0 0 0 0 0 0 0 0 0 0 0 0 0 127 0" result="hardAlpha"/>
<feOffset dx="3.79052" dy="3.79052"/>
<feComposite in2="hardAlpha" operator="out"/>
<feColorMatrix type="matrix" values="0 0 0 0 0.690435 0 0 0 0 0.909565 0 0 0 0 0.713043 0 0 0 1 0"/>
<feBlend mode="normal" in2="BackgroundImageFix" result="effect1_dropShadow_387_270"/>
<feBlend mode="normal" in="SourceGraphic" in2="effect1_dropShadow_387_270" result="shape"/>
</filter>
<filter id="filter4_d_387_270" x="10.9738" y="213.293" width="284.289" height="79.601" filterUnits="userSpaceOnUse" color-interpolation-filters="sRGB">
<feFlood flood-opacity="0" result="BackgroundImageFix"/>
<feColorMatrix in="SourceAlpha" type="matrix" values="0 0 0 0 0 0 0 0 0 0 0 0 0 0 0 0 0 0 127 0" result="hardAlpha"/>
<feOffset dx="3.79052" dy="3.79052"/>
<feComposite in2="hardAlpha" operator="out"/>
<feColorMatrix type="matrix" values="0 0 0 0 0.933061 0 0 0 0 0.733878 0 0 0 0 0.666939 0 0 0 1 0"/>
<feBlend mode="normal" in2="BackgroundImageFix" result="effect1_dropShadow_387_270"/>
<feBlend mode="normal" in="SourceGraphic" in2="effect1_dropShadow_387_270" result="shape"/>
</filter>
<filter id="filter5_d_387_270" x="314.216" y="213.293" width="79.6009" height="79.601" filterUnits="userSpaceOnUse" color-interpolation-filters="sRGB">
<feFlood flood-opacity="0" result="BackgroundImageFix"/>
<feColorMatrix in="SourceAlpha" type="matrix" values="0 0 0 0 0 0 0 0 0 0 0 0 0 0 0 0 0 0 127 0" result="hardAlpha"/>
<feOffset dx="3.79052" dy="3.79052"/>
<feComposite in2="hardAlpha" operator="out"/>
<feColorMatrix type="matrix" values="0 0 0 0 0.933061 0 0 0 0 0.733878 0 0 0 0 0.666939 0 0 0 1 0"/>
<feBlend mode="normal" in2="BackgroundImageFix" result="effect1_dropShadow_387_270"/>
<feBlend mode="normal" in="SourceGraphic" in2="effect1_dropShadow_387_270" result="shape"/>
</filter>
<filter id="filter6_d_387_270" x="10.9738" y="314.689" width="79.601" height="79.601" filterUnits="userSpaceOnUse" color-interpolation-filters="sRGB">
<feFlood flood-opacity="0" result="BackgroundImageFix"/>
<feColorMatrix in="SourceAlpha" type="matrix" values="0 0 0 0 0 0 0 0 0 0 0 0 0 0 0 0 0 0 127 0" result="hardAlpha"/>
<feOffset dx="3.79052" dy="3.79052"/>
<feComposite in2="hardAlpha" operator="out"/>
<feColorMatrix type="matrix" values="0 0 0 0 0.6 0 0 0 0 0.827451 0 0 0 0 1 0 0 0 1 0"/>
<feBlend mode="normal" in2="BackgroundImageFix" result="effect1_dropShadow_387_270"/>
<feBlend mode="normal" in="SourceGraphic" in2="effect1_dropShadow_387_270" result="shape"/>
</filter>
<filter id="filter7_d_387_270" x="109.527" y="314.689" width="284.289" height="79.601" filterUnits="userSpaceOnUse" color-interpolation-filters="sRGB">
<feFlood flood-opacity="0" result="BackgroundImageFix"/>
<feColorMatrix in="SourceAlpha" type="matrix" values="0 0 0 0 0 0 0 0 0 0 0 0 0 0 0 0 0 0 127 0" result="hardAlpha"/>
<feOffset dx="3.79052" dy="3.79052"/>
<feComposite in2="hardAlpha" operator="out"/>
<feColorMatrix type="matrix" values="0 0 0 0 0.6 0 0 0 0 0.827451 0 0 0 0 1 0 0 0 1 0"/>
<feBlend mode="normal" in2="BackgroundImageFix" result="effect1_dropShadow_387_270"/>
<feBlend mode="normal" in="SourceGraphic" in2="effect1_dropShadow_387_270" result="shape"/>
</filter>
<linearGradient id="paint0_linear_387_270" x1="48.9449" y1="164.809" x2="48.9449" y2="133.223" gradientUnits="userSpaceOnUse">
<stop stop-color="#F9F9F9"/>
<stop offset="1" stop-color="white"/>
</linearGradient>
<linearGradient id="paint1_linear_387_270" x1="48.9444" y1="164.262" x2="48.9444" y2="133.769" gradientUnits="userSpaceOnUse">
<stop stop-color="#20B038"/>
<stop offset="1" stop-color="#60D66A"/>
</linearGradient>
</defs>
</svg>
