<svg width="401" height="400" viewBox="0 0 401 400" fill="none" xmlns="http://www.w3.org/2000/svg">
<g filter="url(#filter0_d_381_1566)">
<rect x="11" y="162.15" width="76" height="76" rx="15.2" fill="white" shape-rendering="crispEdges"/>
<rect x="11.475" y="162.625" width="75.05" height="75.05" rx="14.725" stroke="#212528" stroke-width="0.95" shape-rendering="crispEdges"/>
<g clip-path="url(#clip0_381_1566)">
<path fill-rule="evenodd" clip-rule="evenodd" d="M57.9984 221.765L57.8968 182.692C57.6336 182.429 57.1203 182.508 56.9196 182.567L55.5829 182.981C55.4179 182.438 55.2038 181.912 54.9432 181.407C53.9947 179.596 52.6085 178.639 50.9304 178.636H50.9252C50.8131 178.636 50.7024 178.647 50.5904 178.656L50.5773 178.657C50.5288 178.597 50.4784 178.539 50.4262 178.483C49.6966 177.701 48.7585 177.319 47.6355 177.352C45.4701 177.414 43.3139 178.98 41.5642 181.762C40.333 183.72 39.3988 186.179 39.1317 188.082L34.8675 189.404C33.6128 189.799 33.5737 189.838 33.4083 191.023C33.2845 191.919 30 217.349 30 217.349L57.5268 222.115L57.9984 221.763V221.765ZM48.98 179.138C48.6139 178.897 48.1853 178.785 47.6772 178.795C44.334 178.892 41.4182 184.12 40.6743 187.604L43.8767 186.611L44.4487 186.434C44.8682 184.222 45.9209 181.926 47.298 180.449C47.7795 179.919 48.3479 179.476 48.9787 179.138H48.98ZM46.0317 185.943L50.6281 184.517C50.6425 183.319 50.5122 181.547 49.9129 180.296C49.2745 180.559 48.7377 181.02 48.352 181.434C47.3189 182.545 46.4759 184.24 46.033 185.943H46.0317ZM52.0678 184.072L54.2045 183.409C53.8631 182.299 53.0528 180.438 51.4099 180.125C51.9206 181.445 52.0522 182.973 52.0678 184.072V184.072Z" fill="#95BF47"/>
<path d="M64.1662 185.599C64.002 185.586 60.8204 185.536 60.8204 185.536C60.8204 185.536 58.1587 182.949 57.8955 182.684C57.7936 182.59 57.6645 182.531 57.5268 182.515V222.109L69.4545 219.14C69.4545 219.14 64.587 186.189 64.5557 185.964C64.5407 185.868 64.494 185.78 64.4232 185.714C64.3523 185.648 64.2614 185.607 64.1649 185.599H64.1662Z" fill="#5E8E3E"/>
<path d="M50.916 191.747L49.5298 196.937C49.5298 196.937 47.9846 196.233 46.1515 196.349C43.465 196.518 43.4363 198.216 43.4637 198.642C43.6096 200.961 49.7083 201.469 50.0509 206.906C50.3206 211.183 47.7853 214.11 44.132 214.34C39.7479 214.617 37.3337 212.027 37.3337 212.027L38.2627 208.069C38.2627 208.069 40.6925 209.905 42.6364 209.781C43.908 209.702 44.3614 208.667 44.3158 207.935C44.1242 204.908 39.1577 205.086 38.8438 200.111C38.5806 195.923 41.3257 191.682 47.3853 191.299C49.72 191.15 50.916 191.748 50.916 191.748" fill="white"/>
</g>
</g>
<g filter="url(#filter1_d_381_1566)">
<rect x="109.8" y="162.15" width="281.2" height="76" rx="15.2" fill="white" shape-rendering="crispEdges"/>
<rect x="110.275" y="162.625" width="280.25" height="75.05" rx="14.725" stroke="#212528" stroke-width="0.95" shape-rendering="crispEdges"/>
<g clip-path="url(#clip1_381_1566)">
<path d="M147.251 202.245C146.104 201.623 145.515 201.099 145.515 200.377C145.515 199.46 146.333 198.871 147.612 198.871C149.1 198.871 150.429 199.493 150.429 199.493L151.477 196.282C151.477 196.282 150.513 195.528 147.677 195.528C143.729 195.528 140.993 197.789 140.993 200.967C140.993 202.769 142.271 204.145 143.975 205.127C145.351 205.913 145.843 206.47 145.843 207.289C145.843 208.141 145.155 208.829 143.877 208.829C141.974 208.829 140.176 207.845 140.176 207.845L139.062 211.056C139.062 211.056 140.723 212.17 143.517 212.17C147.58 212.17 150.496 210.172 150.496 206.568C150.495 204.637 149.021 203.26 147.251 202.245Z" fill="black"/>
<path d="M163.435 195.496C161.437 195.496 159.864 196.446 158.653 197.887L158.587 197.854L160.323 188.78H155.802L151.412 211.876H155.933L157.44 203.981C158.029 201 159.569 199.166 161.011 199.166C162.026 199.166 162.42 199.854 162.42 200.837C162.42 201.459 162.354 202.213 162.224 202.836L160.52 211.877H165.042L166.811 202.54C167.007 201.557 167.139 200.378 167.139 199.592C167.137 197.036 165.794 195.496 163.435 195.496Z" fill="black"/>
<path d="M177.359 195.496C171.92 195.496 168.317 200.41 168.317 205.881C168.317 209.386 170.479 212.203 174.542 212.203C179.882 212.203 183.485 207.421 183.485 201.818C183.485 198.575 181.585 195.496 177.359 195.496ZM175.131 208.732C173.591 208.732 172.936 207.422 172.936 205.783C172.936 203.196 174.279 198.969 176.736 198.969C178.342 198.969 178.865 200.346 178.865 201.689C178.865 204.473 177.523 208.732 175.131 208.732Z" fill="black"/>
<path d="M195.05 195.496C191.998 195.496 190.266 198.183 190.266 198.183H190.202L190.464 195.758H186.467C186.271 197.397 185.909 199.886 185.55 201.754L182.405 218.297H186.926L188.17 211.614H188.269C188.269 211.614 189.197 212.203 190.923 212.203C196.23 212.203 199.702 206.766 199.702 201.261C199.702 198.216 198.358 195.496 195.05 195.496ZM190.725 208.797C189.552 208.797 188.857 208.142 188.857 208.142L189.611 203.916C190.136 201.098 191.609 199.231 193.182 199.231C194.559 199.231 194.984 200.508 194.984 201.721C194.984 204.636 193.248 208.797 190.725 208.797Z" fill="black"/>
<path d="M206.156 189.009C204.715 189.009 203.568 190.156 203.568 191.63C203.568 192.973 204.42 193.891 205.697 193.891H205.763C207.172 193.891 208.384 192.94 208.417 191.27C208.417 189.96 207.532 189.009 206.156 189.009Z" fill="black"/>
<path d="M199.833 211.876H204.353L207.434 195.857H202.879L199.833 211.876Z" fill="black"/>
<path d="M218.933 195.824H215.788L215.951 195.07C216.213 193.531 217.131 192.154 218.638 192.154C219.442 192.154 220.079 192.384 220.079 192.384L220.963 188.846C220.963 188.846 220.177 188.453 218.506 188.453C216.901 188.453 215.296 188.912 214.084 189.96C212.544 191.27 211.823 193.17 211.463 195.07L211.333 195.824H209.235L208.58 199.232H210.677L208.286 211.877H212.807L215.199 199.232H218.311L218.933 195.824Z" fill="black"/>
<path d="M229.809 195.857C229.809 195.857 226.983 202.977 225.714 206.864H225.648C225.562 205.612 224.534 195.857 224.534 195.857H219.784L222.504 210.566C222.57 210.893 222.537 211.09 222.406 211.32C221.88 212.335 220.996 213.318 219.948 214.039C219.096 214.661 218.146 215.054 217.393 215.316L218.638 219.15C219.556 218.953 221.455 218.199 223.06 216.693C225.125 214.76 227.024 211.778 228.99 207.716L234.526 195.856H229.809V195.857Z" fill="black"/>
</g>
<path d="M246.999 191.568V208.15H244.497V191.568H246.999ZM252.869 200.766V208.15H250.448V195.713H252.771V197.738H252.925C253.211 197.079 253.659 196.55 254.269 196.151C254.885 195.751 255.659 195.551 256.593 195.551C257.44 195.551 258.183 195.73 258.82 196.086C259.457 196.437 259.95 196.96 260.301 197.657C260.652 198.353 260.828 199.214 260.828 200.239V208.15H258.407V200.531C258.407 199.629 258.172 198.925 257.702 198.418C257.233 197.905 256.588 197.649 255.767 197.649C255.206 197.649 254.707 197.77 254.269 198.013C253.837 198.256 253.495 198.612 253.241 199.082C252.993 199.546 252.869 200.107 252.869 200.766ZM269.88 195.713V197.657H263.086V195.713H269.88ZM264.908 192.734H267.329V204.498C267.329 204.968 267.399 205.321 267.54 205.559C267.68 205.791 267.861 205.95 268.082 206.037C268.309 206.118 268.554 206.158 268.819 206.158C269.013 206.158 269.183 206.145 269.329 206.118C269.475 206.091 269.588 206.069 269.669 206.053L270.106 208.053C269.966 208.107 269.766 208.161 269.507 208.215C269.248 208.274 268.924 208.306 268.535 208.312C267.899 208.323 267.305 208.209 266.754 207.972C266.204 207.734 265.758 207.367 265.418 206.871C265.078 206.374 264.908 205.75 264.908 205V192.734ZM277.784 208.401C276.559 208.401 275.503 208.139 274.618 207.615C273.738 207.086 273.058 206.344 272.578 205.389C272.103 204.428 271.865 203.303 271.865 202.013C271.865 200.739 272.103 199.616 272.578 198.644C273.058 197.673 273.727 196.914 274.586 196.369C275.449 195.824 276.459 195.551 277.614 195.551C278.316 195.551 278.996 195.668 279.654 195.9C280.313 196.132 280.904 196.496 281.427 196.993C281.951 197.489 282.364 198.134 282.666 198.928C282.968 199.716 283.119 200.674 283.119 201.802V202.66H273.234V200.847H280.747C280.747 200.21 280.618 199.646 280.359 199.154C280.099 198.658 279.735 198.267 279.266 197.98C278.801 197.694 278.256 197.551 277.63 197.551C276.95 197.551 276.356 197.719 275.849 198.053C275.347 198.383 274.958 198.814 274.683 199.349C274.413 199.878 274.278 200.453 274.278 201.073V202.49C274.278 203.322 274.424 204.029 274.715 204.612C275.012 205.195 275.425 205.64 275.954 205.948C276.483 206.25 277.101 206.401 277.808 206.401C278.267 206.401 278.685 206.336 279.063 206.207C279.441 206.072 279.767 205.872 280.043 205.607C280.318 205.343 280.529 205.016 280.674 204.628L282.966 205.041C282.782 205.715 282.453 206.306 281.978 206.814C281.508 207.316 280.917 207.707 280.205 207.988C279.498 208.263 278.691 208.401 277.784 208.401ZM291.02 213.073C290.032 213.073 289.182 212.943 288.469 212.684C287.762 212.425 287.185 212.082 286.737 211.656C286.289 211.229 285.954 210.762 285.733 210.255L287.813 209.397C287.959 209.634 288.154 209.885 288.396 210.15C288.645 210.42 288.979 210.649 289.4 210.838C289.827 211.027 290.375 211.121 291.044 211.121C291.962 211.121 292.72 210.897 293.319 210.449C293.918 210.007 294.218 209.299 294.218 208.328V205.883H294.064C293.918 206.147 293.708 206.441 293.433 206.765C293.163 207.089 292.79 207.37 292.315 207.607C291.84 207.845 291.222 207.964 290.461 207.964C289.479 207.964 288.593 207.734 287.805 207.275C287.023 206.811 286.402 206.128 285.943 205.227C285.49 204.32 285.263 203.205 285.263 201.883C285.263 200.561 285.487 199.427 285.935 198.482C286.388 197.538 287.009 196.815 287.797 196.313C288.585 195.805 289.479 195.551 290.477 195.551C291.249 195.551 291.873 195.681 292.348 195.94C292.823 196.194 293.192 196.491 293.457 196.831C293.727 197.171 293.935 197.47 294.08 197.729H294.258V195.713H296.631V208.425C296.631 209.494 296.382 210.371 295.886 211.056C295.389 211.742 294.717 212.249 293.87 212.579C293.028 212.908 292.078 213.073 291.02 213.073ZM290.995 205.956C291.692 205.956 292.28 205.794 292.76 205.47C293.246 205.141 293.613 204.671 293.862 204.061C294.115 203.446 294.242 202.709 294.242 201.851C294.242 201.014 294.118 200.277 293.87 199.64C293.621 199.003 293.257 198.507 292.777 198.15C292.296 197.789 291.703 197.608 290.995 197.608C290.267 197.608 289.66 197.797 289.174 198.175C288.688 198.547 288.321 199.055 288.073 199.697C287.83 200.339 287.708 201.057 287.708 201.851C287.708 202.666 287.832 203.381 288.081 203.996C288.329 204.612 288.696 205.092 289.182 205.437C289.673 205.783 290.278 205.956 290.995 205.956ZM299.877 208.15V195.713H302.217V197.689H302.347C302.574 197.02 302.973 196.493 303.545 196.11C304.123 195.722 304.776 195.527 305.505 195.527C305.656 195.527 305.834 195.533 306.039 195.543C306.249 195.554 306.414 195.568 306.533 195.584V197.899C306.436 197.873 306.263 197.843 306.015 197.81C305.766 197.773 305.518 197.754 305.27 197.754C304.698 197.754 304.187 197.875 303.739 198.118C303.297 198.356 302.946 198.688 302.687 199.114C302.428 199.535 302.298 200.015 302.298 200.555V208.15H299.877ZM312.136 208.425C311.348 208.425 310.635 208.279 309.998 207.988C309.361 207.691 308.857 207.262 308.484 206.7C308.117 206.139 307.934 205.451 307.934 204.636C307.934 203.934 308.068 203.357 308.338 202.903C308.608 202.45 308.973 202.091 309.431 201.826C309.89 201.562 310.403 201.362 310.97 201.227C311.536 201.092 312.114 200.99 312.702 200.92C313.447 200.833 314.052 200.763 314.516 200.709C314.98 200.65 315.318 200.555 315.528 200.426C315.739 200.296 315.844 200.086 315.844 199.794V199.737C315.844 199.03 315.644 198.482 315.245 198.094C314.851 197.705 314.262 197.511 313.48 197.511C312.665 197.511 312.022 197.692 311.553 198.053C311.088 198.41 310.767 198.806 310.589 199.244L308.314 198.725C308.584 197.97 308.978 197.36 309.496 196.896C310.02 196.426 310.622 196.086 311.302 195.875C311.982 195.659 312.697 195.551 313.447 195.551C313.944 195.551 314.47 195.611 315.026 195.73C315.587 195.843 316.111 196.053 316.597 196.361C317.088 196.669 317.49 197.109 317.803 197.681C318.116 198.248 318.273 198.984 318.273 199.891V208.15H315.909V206.449H315.811C315.655 206.763 315.42 207.07 315.107 207.373C314.794 207.675 314.392 207.926 313.901 208.125C313.409 208.325 312.821 208.425 312.136 208.425ZM312.662 206.482C313.331 206.482 313.903 206.35 314.378 206.085C314.859 205.821 315.223 205.475 315.471 205.049C315.725 204.617 315.852 204.155 315.852 203.664V202.061C315.766 202.148 315.598 202.228 315.35 202.304C315.107 202.374 314.829 202.436 314.516 202.49C314.203 202.539 313.898 202.585 313.601 202.628C313.304 202.666 313.056 202.698 312.856 202.725C312.387 202.784 311.958 202.884 311.569 203.025C311.186 203.165 310.878 203.367 310.646 203.632C310.419 203.891 310.306 204.236 310.306 204.668C310.306 205.267 310.527 205.721 310.97 206.028C311.412 206.331 311.976 206.482 312.662 206.482ZM327.303 195.713V197.657H320.51V195.713H327.303ZM322.331 192.734H324.752V204.498C324.752 204.968 324.822 205.321 324.963 205.559C325.103 205.791 325.284 205.95 325.505 206.037C325.732 206.118 325.977 206.158 326.242 206.158C326.436 206.158 326.606 206.145 326.752 206.118C326.898 206.091 327.011 206.069 327.092 206.053L327.529 208.053C327.389 208.107 327.189 208.161 326.93 208.215C326.671 208.274 326.347 208.306 325.959 208.312C325.322 208.323 324.728 208.209 324.177 207.972C323.627 207.734 323.181 207.367 322.841 206.871C322.501 206.374 322.331 205.75 322.331 205V192.734ZM329.981 208.15V195.713H332.401V208.15H329.981ZM331.203 193.795C330.782 193.795 330.42 193.654 330.118 193.374C329.821 193.087 329.673 192.747 329.673 192.353C329.673 191.954 329.821 191.614 330.118 191.333C330.42 191.047 330.782 190.904 331.203 190.904C331.624 190.904 331.983 191.047 332.28 191.333C332.582 191.614 332.733 191.954 332.733 192.353C332.733 192.747 332.582 193.087 332.28 193.374C331.983 193.654 331.624 193.795 331.203 193.795ZM340.897 208.401C339.731 208.401 338.713 208.134 337.844 207.599C336.975 207.065 336.301 206.317 335.82 205.356C335.34 204.396 335.1 203.273 335.1 201.988C335.1 200.698 335.34 199.57 335.82 198.604C336.301 197.638 336.975 196.887 337.844 196.353C338.713 195.819 339.731 195.551 340.897 195.551C342.063 195.551 343.08 195.819 343.949 196.353C344.818 196.887 345.493 197.638 345.973 198.604C346.454 199.57 346.694 200.698 346.694 201.988C346.694 203.273 346.454 204.396 345.973 205.356C345.493 206.317 344.818 207.065 343.949 207.599C343.08 208.134 342.063 208.401 340.897 208.401ZM340.905 206.369C341.661 206.369 342.287 206.169 342.783 205.769C343.28 205.37 343.647 204.838 343.884 204.174C344.127 203.51 344.249 202.779 344.249 201.98C344.249 201.187 344.127 200.458 343.884 199.794C343.647 199.125 343.28 198.588 342.783 198.183C342.287 197.778 341.661 197.576 340.905 197.576C340.144 197.576 339.512 197.778 339.01 198.183C338.514 198.588 338.144 199.125 337.901 199.794C337.664 200.458 337.545 201.187 337.545 201.98C337.545 202.779 337.664 203.51 337.901 204.174C338.144 204.838 338.514 205.37 339.01 205.769C339.512 206.169 340.144 206.369 340.905 206.369ZM351.817 200.766V208.15H349.396V195.713H351.72V197.738H351.874C352.16 197.079 352.608 196.55 353.218 196.151C353.833 195.751 354.608 195.551 355.541 195.551C356.389 195.551 357.131 195.73 357.768 196.086C358.405 196.437 358.899 196.96 359.25 197.657C359.601 198.353 359.776 199.214 359.776 200.239V208.15H357.355V200.531C357.355 199.629 357.12 198.925 356.651 198.418C356.181 197.905 355.536 197.649 354.716 197.649C354.154 197.649 353.655 197.77 353.218 198.013C352.786 198.256 352.443 198.612 352.189 199.082C351.941 199.546 351.817 200.107 351.817 200.766Z" fill="#212528"/>
</g>
<g filter="url(#filter2_d_381_1566)">
<rect x="11" y="12.9999" width="178.6" height="126.8" rx="15.2" fill="white" shape-rendering="crispEdges"/>
<rect x="11.475" y="13.4749" width="177.65" height="125.85" rx="14.725" stroke="#212528" stroke-width="0.95" shape-rendering="crispEdges"/>
<path d="M114.55 42.45L111.7 39.6L108.85 42.45L106 39.6L103.15 42.45L100.3 39.6L97.45 42.45L94.6 39.6L91.75 42.45L88.9 39.6V66.2H83.2V71.9C83.2 75.054 85.746 77.6 88.9 77.6H111.7C114.854 77.6 117.4 75.054 117.4 71.9V39.6L114.55 42.45ZM106 73.8H88.9C87.855 73.8 87 72.945 87 71.9V70H106V73.8ZM113.6 71.9C113.6 72.945 112.745 73.8 111.7 73.8C110.655 73.8 109.8 72.945 109.8 71.9V66.2H92.7V45.3H113.6V71.9Z" fill="#0080FF"/>
<path d="M106 49.1H94.6V52.9H106V49.1Z" fill="#0080FF"/>
<path d="M111.7 49.1H107.9V52.9H111.7V49.1Z" fill="#0080FF"/>
<path d="M106 54.8H94.6V58.6H106V54.8Z" fill="#0080FF"/>
<path d="M111.7 54.8H107.9V58.6H111.7V54.8Z" fill="#0080FF"/>
<path d="M65.848 94.4181V111H63.3461V94.4181H65.848ZM71.718 103.616V111H69.2971V98.5635H71.6209V100.588H71.7747C72.0608 99.9291 72.5088 99.4002 73.1187 99.0007C73.7341 98.6013 74.5086 98.4016 75.4424 98.4016C76.2899 98.4016 77.0321 98.5797 77.669 98.936C78.3059 99.2868 78.7998 99.8104 79.1507 100.507C79.5015 101.203 79.677 102.064 79.677 103.09V111H77.2561V103.381C77.2561 102.48 77.0213 101.775 76.5517 101.268C76.0821 100.755 75.437 100.499 74.6166 100.499C74.0552 100.499 73.5559 100.62 73.1187 100.863C72.6869 101.106 72.3441 101.462 72.0905 101.932C71.8422 102.396 71.718 102.957 71.718 103.616ZM93.1173 98.5635L88.6075 111H86.0166L81.4987 98.5635H84.0977L87.2473 108.134H87.3768L90.5183 98.5635H93.1173ZM100.208 111.251C99.042 111.251 98.0245 110.984 97.1555 110.449C96.2864 109.915 95.6117 109.167 95.1313 108.207C94.6509 107.246 94.4107 106.123 94.4107 104.838C94.4107 103.548 94.6509 102.42 95.1313 101.454C95.6117 100.488 96.2864 99.7375 97.1555 99.2031C98.0245 98.6688 99.042 98.4016 100.208 98.4016C101.374 98.4016 102.391 98.6688 103.26 99.2031C104.129 99.7375 104.804 100.488 105.284 101.454C105.765 102.42 106.005 103.548 106.005 104.838C106.005 106.123 105.765 107.246 105.284 108.207C104.804 109.167 104.129 109.915 103.26 110.449C102.391 110.984 101.374 111.251 100.208 111.251ZM100.216 109.219C100.972 109.219 101.598 109.019 102.094 108.619C102.591 108.22 102.958 107.688 103.196 107.024C103.438 106.361 103.56 105.629 103.56 104.83C103.56 104.037 103.438 103.308 103.196 102.644C102.958 101.975 102.591 101.438 102.094 101.033C101.598 100.628 100.972 100.426 100.216 100.426C99.4549 100.426 98.8234 100.628 98.3214 101.033C97.8248 101.438 97.455 101.975 97.2122 102.644C96.9747 103.308 96.8559 104.037 96.8559 104.83C96.8559 105.629 96.9747 106.361 97.2122 107.024C97.455 107.688 97.8248 108.22 98.3214 108.619C98.8234 109.019 99.4549 109.219 100.216 109.219ZM108.707 111V98.5635H111.128V111H108.707ZM109.93 96.6446C109.509 96.6446 109.147 96.5043 108.845 96.2236C108.548 95.9375 108.4 95.5975 108.4 95.2034C108.4 94.804 108.548 94.4639 108.845 94.1833C109.147 93.8972 109.509 93.7541 109.93 93.7541C110.351 93.7541 110.71 93.8972 111.007 94.1833C111.309 94.4639 111.46 94.804 111.46 95.2034C111.46 95.5975 111.309 95.9375 111.007 96.2236C110.71 96.5043 110.351 96.6446 109.93 96.6446ZM119.624 111.251C118.42 111.251 117.383 110.978 116.514 110.433C115.651 109.883 114.987 109.124 114.523 108.158C114.058 107.192 113.826 106.085 113.826 104.838C113.826 103.575 114.064 102.461 114.539 101.494C115.014 100.523 115.683 99.7645 116.547 99.2193C117.41 98.6742 118.428 98.4016 119.599 98.4016C120.544 98.4016 121.386 98.577 122.125 98.9279C122.865 99.2733 123.461 99.7591 123.915 100.385C124.374 101.011 124.646 101.743 124.732 102.579H122.376C122.247 101.996 121.95 101.494 121.486 101.073C121.027 100.652 120.412 100.442 119.64 100.442C118.965 100.442 118.374 100.62 117.867 100.976C117.365 101.327 116.973 101.829 116.693 102.482C116.412 103.13 116.272 103.896 116.272 104.782C116.272 105.689 116.409 106.471 116.684 107.13C116.96 107.788 117.348 108.298 117.85 108.66C118.358 109.022 118.954 109.202 119.64 109.202C120.099 109.202 120.514 109.119 120.887 108.951C121.264 108.779 121.58 108.533 121.834 108.215C122.093 107.896 122.274 107.513 122.376 107.065H124.732C124.646 107.869 124.384 108.587 123.947 109.219C123.51 109.85 122.924 110.347 122.19 110.708C121.461 111.07 120.606 111.251 119.624 111.251ZM132.681 111.251C131.456 111.251 130.401 110.989 129.516 110.466C128.636 109.937 127.956 109.194 127.475 108.239C127 107.278 126.763 106.153 126.763 104.863C126.763 103.589 127 102.466 127.475 101.494C127.956 100.523 128.625 99.7645 129.483 99.2193C130.347 98.6742 131.356 98.4016 132.511 98.4016C133.213 98.4016 133.893 98.5176 134.552 98.7497C135.21 98.9818 135.801 99.3462 136.325 99.8428C136.848 100.339 137.261 100.984 137.564 101.778C137.866 102.566 138.017 103.524 138.017 104.652V105.51H128.131V103.697H135.645C135.645 103.06 135.515 102.496 135.256 102.005C134.997 101.508 134.633 101.117 134.163 100.831C133.699 100.544 133.154 100.401 132.527 100.401C131.847 100.401 131.254 100.569 130.746 100.903C130.244 101.233 129.856 101.665 129.58 102.199C129.31 102.728 129.175 103.303 129.175 103.923V105.34C129.175 106.172 129.321 106.879 129.613 107.462C129.91 108.045 130.322 108.49 130.851 108.798C131.38 109.1 131.998 109.251 132.706 109.251C133.164 109.251 133.583 109.186 133.961 109.057C134.338 108.922 134.665 108.722 134.94 108.458C135.216 108.193 135.426 107.866 135.572 107.478L137.863 107.891C137.68 108.566 137.35 109.157 136.875 109.664C136.406 110.166 135.815 110.557 135.102 110.838C134.395 111.113 133.588 111.251 132.681 111.251Z" fill="#212528"/>
</g>
<g filter="url(#filter3_d_381_1566)">
<rect x="11" y="260.95" width="178.6" height="126.8" rx="15.2" fill="white" shape-rendering="crispEdges"/>
<rect x="11.475" y="261.425" width="177.65" height="125.85" rx="14.725" stroke="#212528" stroke-width="0.95" shape-rendering="crispEdges"/>
<path d="M115.5 291.35H85.1C82.991 291.35 81.319 293.041 81.319 295.15L81.3 317.95C81.3 320.059 82.991 321.75 85.1 321.75H115.5C117.609 321.75 119.3 320.059 119.3 317.95V295.15C119.3 293.041 117.609 291.35 115.5 291.35ZM115.5 317.95H85.1V306.55H115.5V317.95ZM115.5 298.95H85.1V295.15H115.5V298.95Z" fill="#F2800D"/>
<path d="M48.328 358.95V342.368H54.2385C55.5285 342.368 56.5973 342.603 57.4447 343.072C58.2922 343.542 58.9264 344.184 59.3474 344.999C59.7685 345.809 59.979 346.721 59.979 347.736C59.979 348.756 59.7658 349.674 59.3393 350.489C58.9183 351.299 58.2814 351.941 57.4285 352.416C56.5811 352.885 55.515 353.12 54.2304 353.12H50.1659V350.999H54.0037C54.8187 350.999 55.48 350.859 55.9873 350.578C56.4947 350.292 56.8672 349.903 57.1047 349.412C57.3422 348.921 57.4609 348.362 57.4609 347.736C57.4609 347.11 57.3422 346.554 57.1047 346.068C56.8672 345.582 56.492 345.202 55.9793 344.927C55.4719 344.651 54.8025 344.514 53.9713 344.514H50.8298V358.95H48.328ZM66.2255 359.225C65.4374 359.225 64.7249 359.079 64.088 358.788C63.4511 358.491 62.9464 358.062 62.5739 357.501C62.2069 356.939 62.0234 356.251 62.0234 355.436C62.0234 354.734 62.1583 354.157 62.4282 353.703C62.6981 353.25 63.0624 352.891 63.5212 352.626C63.98 352.362 64.4928 352.162 65.0596 352.027C65.6263 351.892 66.2039 351.79 66.7922 351.72C67.5371 351.633 68.1417 351.563 68.6059 351.509C69.0701 351.45 69.4074 351.355 69.618 351.226C69.8285 351.096 69.9337 350.886 69.9337 350.594V350.537C69.9337 349.83 69.734 349.282 69.3346 348.894C68.9405 348.505 68.3522 348.311 67.5695 348.311C66.7545 348.311 66.1121 348.492 65.6425 348.853C65.1783 349.21 64.8572 349.606 64.679 350.044L62.4039 349.525C62.6738 348.77 63.0678 348.16 63.586 347.696C64.1096 347.226 64.7114 346.886 65.3915 346.675C66.0717 346.459 66.7869 346.352 67.5371 346.352C68.0337 346.352 68.56 346.411 69.116 346.53C69.6773 346.643 70.2009 346.854 70.6867 347.161C71.1779 347.469 71.58 347.909 71.8931 348.481C72.2062 349.048 72.3627 349.784 72.3627 350.691V358.95H69.9985V357.25H69.9013C69.7448 357.563 69.51 357.87 69.1969 358.173C68.8839 358.475 68.4817 358.726 67.9905 358.926C67.4994 359.125 66.911 359.225 66.2255 359.225ZM66.7518 357.282C67.4211 357.282 67.9932 357.15 68.4682 356.885C68.9486 356.621 69.313 356.275 69.5613 355.849C69.815 355.417 69.9418 354.956 69.9418 354.464V352.861C69.8555 352.948 69.6881 353.029 69.4398 353.104C69.1969 353.174 68.919 353.236 68.6059 353.29C68.2928 353.339 67.9878 353.385 67.691 353.428C67.3941 353.466 67.1458 353.498 66.9461 353.525C66.4765 353.584 66.0474 353.684 65.6587 353.825C65.2755 353.965 64.9678 354.167 64.7357 354.432C64.509 354.691 64.3957 355.036 64.3957 355.468C64.3957 356.067 64.617 356.521 65.0596 356.829C65.5022 357.131 66.0663 357.282 66.7518 357.282ZM76.6721 363.613C76.3105 363.613 75.9812 363.584 75.6843 363.524C75.3875 363.47 75.1661 363.411 75.0204 363.346L75.6034 361.363C76.046 361.481 76.44 361.533 76.7855 361.516C77.1309 361.5 77.4359 361.371 77.7004 361.128C77.9703 360.885 78.2078 360.488 78.4129 359.938L78.7125 359.112L74.1622 346.513H76.7531L79.9027 356.165H80.0322L83.1818 346.513H85.7808L80.6556 360.61C80.4181 361.257 80.1159 361.805 79.7488 362.253C79.3818 362.707 78.9446 363.047 78.4372 363.273C77.9298 363.5 77.3414 363.613 76.6721 363.613ZM88.0559 358.95V346.513H90.3796V348.538H90.5335C90.7926 347.852 91.2163 347.318 91.8046 346.934C92.393 346.546 93.0974 346.352 93.9179 346.352C94.7491 346.352 95.4454 346.546 96.0068 346.934C96.5735 347.323 96.9919 347.857 97.2617 348.538H97.3913C97.6882 347.874 98.1605 347.345 98.8082 346.951C99.4559 346.551 100.228 346.352 101.124 346.352C102.252 346.352 103.172 346.705 103.885 347.412C104.603 348.119 104.962 349.185 104.962 350.61V358.95H102.541V350.837C102.541 349.995 102.311 349.385 101.853 349.007C101.394 348.629 100.846 348.44 100.209 348.44C99.4208 348.44 98.8082 348.683 98.371 349.169C97.9338 349.65 97.7152 350.268 97.7152 351.023V358.95H95.3024V350.683C95.3024 350.008 95.0919 349.466 94.6708 349.056C94.2498 348.646 93.7019 348.44 93.0272 348.44C92.5684 348.44 92.1447 348.562 91.7561 348.805C91.3728 349.042 91.0625 349.374 90.825 349.801C90.5929 350.227 90.4768 350.721 90.4768 351.282V358.95H88.0559ZM113.566 359.201C112.341 359.201 111.286 358.939 110.4 358.415C109.521 357.886 108.841 357.144 108.36 356.189C107.885 355.228 107.648 354.103 107.648 352.813C107.648 351.539 107.885 350.416 108.36 349.444C108.841 348.473 109.51 347.714 110.368 347.169C111.232 346.624 112.241 346.352 113.396 346.352C114.098 346.352 114.778 346.468 115.437 346.7C116.095 346.932 116.686 347.296 117.21 347.793C117.733 348.289 118.146 348.934 118.448 349.728C118.751 350.516 118.902 351.474 118.902 352.602V353.46H109.016V351.647H116.53C116.53 351.01 116.4 350.446 116.141 349.955C115.882 349.458 115.518 349.067 115.048 348.781C114.584 348.494 114.039 348.351 113.412 348.351C112.732 348.351 112.139 348.519 111.631 348.853C111.129 349.183 110.741 349.614 110.465 350.149C110.195 350.678 110.06 351.253 110.06 351.873V353.29C110.06 354.122 110.206 354.829 110.498 355.412C110.795 355.995 111.207 356.44 111.736 356.748C112.265 357.05 112.883 357.201 113.591 357.201C114.049 357.201 114.468 357.136 114.846 357.007C115.223 356.872 115.55 356.672 115.825 356.407C116.1 356.143 116.311 355.816 116.457 355.428L118.748 355.841C118.565 356.515 118.235 357.107 117.76 357.614C117.291 358.116 116.7 358.507 115.987 358.788C115.28 359.063 114.473 359.201 113.566 359.201ZM124.009 351.566V358.95H121.588V346.513H123.912V348.538H124.066C124.352 347.879 124.8 347.35 125.41 346.951C126.025 346.551 126.799 346.352 127.733 346.352C128.581 346.352 129.323 346.53 129.96 346.886C130.597 347.237 131.091 347.76 131.441 348.457C131.792 349.153 131.968 350.014 131.968 351.039V358.95H129.547V351.331C129.547 350.43 129.312 349.725 128.842 349.218C128.373 348.705 127.728 348.449 126.907 348.449C126.346 348.449 125.847 348.57 125.41 348.813C124.978 349.056 124.635 349.412 124.381 349.882C124.133 350.346 124.009 350.907 124.009 351.566ZM141.02 346.513V348.457H134.227V346.513H141.02ZM136.048 343.534H138.469V355.298C138.469 355.768 138.54 356.121 138.68 356.359C138.82 356.591 139.001 356.75 139.222 356.837C139.449 356.918 139.695 356.958 139.959 356.958C140.153 356.958 140.323 356.945 140.469 356.918C140.615 356.891 140.728 356.869 140.809 356.853L141.246 358.853C141.106 358.907 140.906 358.961 140.647 359.015C140.388 359.074 140.064 359.106 139.676 359.112C139.039 359.123 138.445 359.009 137.894 358.772C137.344 358.534 136.899 358.167 136.559 357.671C136.218 357.174 136.048 356.551 136.048 355.8V343.534ZM152.817 349.55L150.622 349.938C150.531 349.658 150.385 349.39 150.185 349.137C149.991 348.883 149.726 348.675 149.392 348.513C149.057 348.351 148.639 348.27 148.137 348.27C147.451 348.27 146.879 348.424 146.42 348.732C145.961 349.034 145.732 349.426 145.732 349.906C145.732 350.322 145.886 350.656 146.193 350.91C146.501 351.164 146.998 351.371 147.683 351.533L149.659 351.987C150.803 352.251 151.656 352.659 152.217 353.209C152.779 353.76 153.059 354.475 153.059 355.355C153.059 356.1 152.843 356.764 152.412 357.347C151.985 357.924 151.389 358.378 150.622 358.707C149.861 359.036 148.979 359.201 147.975 359.201C146.582 359.201 145.446 358.904 144.566 358.31C143.686 357.711 143.146 356.861 142.947 355.76L145.287 355.404C145.432 356.013 145.732 356.475 146.185 356.788C146.639 357.096 147.23 357.25 147.959 357.25C148.752 357.25 149.386 357.085 149.861 356.756C150.336 356.421 150.574 356.013 150.574 355.533C150.574 355.144 150.428 354.818 150.137 354.553C149.85 354.289 149.411 354.089 148.817 353.954L146.712 353.493C145.551 353.228 144.693 352.807 144.137 352.23C143.586 351.652 143.311 350.921 143.311 350.035C143.311 349.301 143.516 348.659 143.926 348.108C144.337 347.558 144.903 347.129 145.627 346.821C146.35 346.508 147.179 346.352 148.112 346.352C149.456 346.352 150.514 346.643 151.286 347.226C152.058 347.804 152.568 348.578 152.817 349.55Z" fill="#212528"/>
</g>
<g filter="url(#filter4_d_381_1566)">
<rect x="212.4" y="12.9998" width="178.6" height="126.8" rx="15.2" fill="white" shape-rendering="crispEdges"/>
<rect x="212.875" y="13.4748" width="177.65" height="125.85" rx="14.725" stroke="#212528" stroke-width="0.95" shape-rendering="crispEdges"/>
<path d="M286.975 47.1999H290.775V52.8999H309.775V47.1999H313.575V56.6999H317.375V47.1999C317.375 45.1099 315.665 43.3999 313.575 43.3999H305.633C304.835 41.1959 302.745 39.5999 300.275 39.5999C297.805 39.5999 295.715 41.1959 294.917 43.3999H286.975C284.885 43.3999 283.175 45.1099 283.175 47.1999V73.7999C283.175 75.8899 284.885 77.5999 286.975 77.5999H298.375V73.7999H286.975V47.1999ZM300.275 43.3999C301.32 43.3999 302.175 44.2549 302.175 45.2999C302.175 46.3449 301.32 47.1999 300.275 47.1999C299.23 47.1999 298.375 46.3449 298.375 45.2999C298.375 44.2549 299.23 43.3999 300.275 43.3999Z" fill="#F2800D"/>
<path d="M317.375 59.5499L306.944 69.9999L301.225 64.2999L298.375 67.1499L306.944 75.6999L320.225 62.3999L317.375 59.5499Z" fill="#F2800D"/>
<path d="M254.545 94.4179V111H252.044V94.4179H254.545ZM260.415 103.616V111H257.995V98.5634H260.318V100.588H260.472C260.758 99.929 261.206 99.4 261.816 99.0006C262.432 98.6012 263.206 98.4015 264.14 98.4015C264.987 98.4015 265.73 98.5796 266.366 98.9358C267.003 99.2867 267.497 99.8103 267.848 100.507C268.199 101.203 268.374 102.064 268.374 103.089V111H265.954V103.381C265.954 102.479 265.719 101.775 265.249 101.268C264.78 100.755 264.135 100.498 263.314 100.498C262.753 100.498 262.253 100.62 261.816 100.863C261.384 101.106 261.042 101.462 260.788 101.932C260.54 102.396 260.415 102.957 260.415 103.616ZM281.815 98.5634L277.305 111H274.714L270.196 98.5634H272.795L275.945 108.134H276.074L279.216 98.5634H281.815ZM289.027 111.251C287.802 111.251 286.746 110.989 285.861 110.465C284.981 109.936 284.301 109.194 283.821 108.239C283.346 107.278 283.108 106.153 283.108 104.863C283.108 103.589 283.346 102.466 283.821 101.494C284.301 100.523 284.97 99.7644 285.829 99.2192C286.692 98.674 287.702 98.4015 288.857 98.4015C289.559 98.4015 290.239 98.5175 290.897 98.7496C291.556 98.9817 292.147 99.3461 292.67 99.8427C293.194 100.339 293.607 100.984 293.909 101.778C294.211 102.566 294.362 103.524 294.362 104.652V105.51H284.477V103.697H291.99C291.99 103.06 291.861 102.496 291.602 102.004C291.342 101.508 290.978 101.117 290.509 100.83C290.044 100.544 289.499 100.401 288.873 100.401C288.193 100.401 287.599 100.569 287.092 100.903C286.59 101.233 286.201 101.664 285.926 102.199C285.656 102.728 285.521 103.303 285.521 103.923V105.34C285.521 106.171 285.667 106.879 285.958 107.462C286.255 108.045 286.668 108.49 287.197 108.797C287.726 109.1 288.344 109.251 289.051 109.251C289.51 109.251 289.928 109.186 290.306 109.057C290.684 108.922 291.01 108.722 291.286 108.457C291.561 108.193 291.772 107.866 291.917 107.478L294.209 107.891C294.025 108.565 293.696 109.156 293.221 109.664C292.751 110.166 292.16 110.557 291.448 110.838C290.741 111.113 289.934 111.251 289.027 111.251ZM299.469 103.616V111H297.049V98.5634H299.372V100.588H299.526C299.812 99.929 300.26 99.4 300.87 99.0006C301.485 98.6012 302.26 98.4015 303.194 98.4015C304.041 98.4015 304.783 98.5796 305.42 98.9358C306.057 99.2867 306.551 99.8103 306.902 100.507C307.253 101.203 307.428 102.064 307.428 103.089V111H305.007V103.381C305.007 102.479 304.773 101.775 304.303 101.268C303.833 100.755 303.188 100.498 302.368 100.498C301.807 100.498 301.307 100.62 300.87 100.863C300.438 101.106 300.096 101.462 299.842 101.932C299.594 102.396 299.469 102.957 299.469 103.616ZM316.48 98.5634V100.507H309.687V98.5634H316.48ZM311.509 95.5838H313.93V107.348C313.93 107.818 314 108.171 314.14 108.409C314.281 108.641 314.462 108.8 314.683 108.887C314.91 108.968 315.155 109.008 315.42 109.008C315.614 109.008 315.784 108.995 315.93 108.968C316.076 108.941 316.189 108.919 316.27 108.903L316.707 110.903C316.567 110.957 316.367 111.011 316.108 111.065C315.849 111.124 315.525 111.156 315.136 111.162C314.499 111.172 313.906 111.059 313.355 110.822C312.804 110.584 312.359 110.217 312.019 109.72C311.679 109.224 311.509 108.6 311.509 107.85V95.5838ZM324.263 111.251C323.097 111.251 322.08 110.984 321.211 110.449C320.342 109.915 319.667 109.167 319.187 108.206C318.706 107.246 318.466 106.123 318.466 104.838C318.466 103.548 318.706 102.42 319.187 101.454C319.667 100.488 320.342 99.7374 321.211 99.203C322.08 98.6686 323.097 98.4015 324.263 98.4015C325.429 98.4015 326.447 98.6686 327.316 99.203C328.185 99.7374 328.859 100.488 329.34 101.454C329.82 102.42 330.06 103.548 330.06 104.838C330.06 106.123 329.82 107.246 329.34 108.206C328.859 109.167 328.185 109.915 327.316 110.449C326.447 110.984 325.429 111.251 324.263 111.251ZM324.271 109.219C325.027 109.219 325.653 109.019 326.15 108.619C326.646 108.22 327.013 107.688 327.251 107.024C327.494 106.36 327.615 105.629 327.615 104.83C327.615 104.037 327.494 103.308 327.251 102.644C327.013 101.975 326.646 101.438 326.15 101.033C325.653 100.628 325.027 100.426 324.271 100.426C323.51 100.426 322.879 100.628 322.377 101.033C321.88 101.438 321.51 101.975 321.267 102.644C321.03 103.308 320.911 104.037 320.911 104.83C320.911 105.629 321.03 106.36 321.267 107.024C321.51 107.688 321.88 108.22 322.377 108.619C322.879 109.019 323.51 109.219 324.271 109.219ZM332.763 111V98.5634H335.102V100.539H335.232C335.459 99.8696 335.858 99.3434 336.43 98.9601C337.008 98.5715 337.661 98.3772 338.39 98.3772C338.541 98.3772 338.719 98.3826 338.924 98.3934C339.135 98.4042 339.299 98.4177 339.418 98.4338V100.749C339.321 100.722 339.148 100.693 338.9 100.66C338.651 100.623 338.403 100.604 338.155 100.604C337.583 100.604 337.073 100.725 336.625 100.968C336.182 101.206 335.831 101.538 335.572 101.964C335.313 102.385 335.183 102.865 335.183 103.405V111H332.763ZM343.422 115.663C343.06 115.663 342.731 115.634 342.434 115.574C342.137 115.52 341.916 115.461 341.77 115.396L342.353 113.413C342.796 113.531 343.19 113.583 343.535 113.566C343.881 113.55 344.186 113.421 344.45 113.178C344.72 112.935 344.957 112.538 345.163 111.988L345.462 111.162L340.912 98.5634H343.503L346.652 108.215H346.782L349.931 98.5634H352.53L347.405 112.66C347.168 113.307 346.865 113.855 346.498 114.303C346.131 114.757 345.694 115.097 345.187 115.323C344.679 115.55 344.091 115.663 343.422 115.663Z" fill="#212528"/>
</g>
<g filter="url(#filter5_d_381_1566)">
<rect x="212.4" y="260.95" width="178.6" height="126.8" rx="15.2" fill="white" shape-rendering="crispEdges"/>
<rect x="212.875" y="261.425" width="177.65" height="125.85" rx="14.725" stroke="#212528" stroke-width="0.95" shape-rendering="crispEdges"/>
<path d="M301.7 287.55C294.347 287.55 288.4 293.497 288.4 300.85C288.4 310.825 301.7 325.55 301.7 325.55C301.7 325.55 315 310.825 315 300.85C315 293.497 309.053 287.55 301.7 287.55ZM292.2 300.85C292.2 295.606 296.456 291.35 301.7 291.35C306.944 291.35 311.2 295.606 311.2 300.85C311.2 306.322 305.728 314.511 301.7 319.622C297.748 314.549 292.2 306.265 292.2 300.85Z" fill="#0080FF"/>
<path d="M301.7 305.6C304.323 305.6 306.45 303.473 306.45 300.85C306.45 298.227 304.323 296.1 301.7 296.1C299.077 296.1 296.95 298.227 296.95 300.85C296.95 303.473 299.077 305.6 301.7 305.6Z" fill="#0080FF"/>
<path d="M250.385 358.95V342.368H252.887V356.796H260.4V358.95H250.385ZM268.299 359.201C267.133 359.201 266.115 358.934 265.246 358.399C264.377 357.865 263.702 357.117 263.222 356.157C262.742 355.196 262.501 354.073 262.501 352.788C262.501 351.498 262.742 350.37 263.222 349.404C263.702 348.438 264.377 347.687 265.246 347.153C266.115 346.619 267.133 346.352 268.299 346.352C269.464 346.352 270.482 346.619 271.351 347.153C272.22 347.687 272.895 348.438 273.375 349.404C273.855 350.37 274.096 351.498 274.096 352.788C274.096 354.073 273.855 355.196 273.375 356.157C272.895 357.117 272.22 357.865 271.351 358.399C270.482 358.934 269.464 359.201 268.299 359.201ZM268.307 357.169C269.062 357.169 269.688 356.969 270.185 356.569C270.682 356.17 271.049 355.638 271.286 354.974C271.529 354.31 271.651 353.579 271.651 352.78C271.651 351.987 271.529 351.258 271.286 350.594C271.049 349.925 270.682 349.388 270.185 348.983C269.688 348.578 269.062 348.376 268.307 348.376C267.546 348.376 266.914 348.578 266.412 348.983C265.915 349.388 265.546 349.925 265.303 350.594C265.065 351.258 264.947 351.987 264.947 352.78C264.947 353.579 265.065 354.31 265.303 354.974C265.546 355.638 265.915 356.17 266.412 356.569C266.914 356.969 267.546 357.169 268.307 357.169ZM282.036 359.201C280.833 359.201 279.796 358.928 278.927 358.383C278.064 357.832 277.4 357.074 276.936 356.108C276.471 355.142 276.239 354.035 276.239 352.788C276.239 351.525 276.477 350.411 276.952 349.444C277.427 348.473 278.096 347.714 278.96 347.169C279.823 346.624 280.841 346.352 282.012 346.352C282.957 346.352 283.799 346.527 284.538 346.878C285.278 347.223 285.874 347.709 286.328 348.335C286.786 348.961 287.059 349.693 287.145 350.529H284.789C284.66 349.946 284.363 349.444 283.899 349.023C283.44 348.602 282.824 348.392 282.053 348.392C281.378 348.392 280.787 348.57 280.279 348.926C279.777 349.277 279.386 349.779 279.105 350.432C278.825 351.08 278.684 351.846 278.684 352.732C278.684 353.638 278.822 354.421 279.097 355.08C279.373 355.738 279.761 356.248 280.263 356.61C280.771 356.972 281.367 357.152 282.053 357.152C282.511 357.152 282.927 357.069 283.299 356.901C283.677 356.729 283.993 356.483 284.247 356.165C284.506 355.846 284.687 355.463 284.789 355.015H287.145C287.059 355.819 286.797 356.537 286.36 357.169C285.923 357.8 285.337 358.297 284.603 358.658C283.874 359.02 283.019 359.201 282.036 359.201ZM293.353 359.225C292.565 359.225 291.853 359.079 291.216 358.788C290.579 358.491 290.074 358.062 289.702 357.501C289.335 356.939 289.151 356.251 289.151 355.436C289.151 354.734 289.286 354.157 289.556 353.703C289.826 353.25 290.19 352.891 290.649 352.626C291.108 352.362 291.621 352.162 292.188 352.027C292.754 351.892 293.332 351.79 293.92 351.72C294.665 351.633 295.27 351.563 295.734 351.509C296.198 351.45 296.535 351.355 296.746 351.226C296.956 351.096 297.062 350.886 297.062 350.594V350.537C297.062 349.83 296.862 349.282 296.463 348.894C296.068 348.505 295.48 348.311 294.697 348.311C293.882 348.311 293.24 348.492 292.77 348.853C292.306 349.21 291.985 349.606 291.807 350.044L289.532 349.525C289.802 348.77 290.196 348.16 290.714 347.696C291.238 347.226 291.839 346.886 292.519 346.675C293.2 346.459 293.915 346.352 294.665 346.352C295.162 346.352 295.688 346.411 296.244 346.53C296.805 346.643 297.329 346.854 297.815 347.161C298.306 347.469 298.708 347.909 299.021 348.481C299.334 349.048 299.491 349.784 299.491 350.691V358.95H297.126V357.25H297.029C296.873 357.563 296.638 357.87 296.325 358.173C296.012 358.475 295.61 358.726 295.118 358.926C294.627 359.125 294.039 359.225 293.353 359.225ZM293.88 357.282C294.549 357.282 295.121 357.15 295.596 356.885C296.077 356.621 296.441 356.275 296.689 355.849C296.943 355.417 297.07 354.956 297.07 354.464V352.861C296.983 352.948 296.816 353.029 296.568 353.104C296.325 353.174 296.047 353.236 295.734 353.29C295.421 353.339 295.116 353.385 294.819 353.428C294.522 353.466 294.274 353.498 294.074 353.525C293.604 353.584 293.175 353.684 292.787 353.825C292.403 353.965 292.096 354.167 291.864 354.432C291.637 354.691 291.524 355.036 291.524 355.468C291.524 356.067 291.745 356.521 292.188 356.829C292.63 357.131 293.194 357.282 293.88 357.282ZM308.52 346.513V348.457H301.727V346.513H308.52ZM303.549 343.534H305.97V355.298C305.97 355.768 306.04 356.121 306.18 356.359C306.321 356.591 306.502 356.75 306.723 356.837C306.95 356.918 307.195 356.958 307.46 356.958C307.654 356.958 307.824 356.945 307.97 356.918C308.116 356.891 308.229 356.869 308.31 356.853L308.747 358.853C308.607 358.907 308.407 358.961 308.148 359.015C307.889 359.074 307.565 359.106 307.176 359.112C306.539 359.123 305.946 359.009 305.395 358.772C304.845 358.534 304.399 358.167 304.059 357.671C303.719 357.174 303.549 356.551 303.549 355.8V343.534ZM311.198 358.95V346.513H313.619V358.95H311.198ZM312.421 344.595C312 344.595 311.638 344.454 311.336 344.174C311.039 343.887 310.891 343.547 310.891 343.153C310.891 342.754 311.039 342.414 311.336 342.133C311.638 341.847 312 341.704 312.421 341.704C312.842 341.704 313.201 341.847 313.498 342.133C313.8 342.414 313.951 342.754 313.951 343.153C313.951 343.547 313.8 343.887 313.498 344.174C313.201 344.454 312.842 344.595 312.421 344.595ZM322.115 359.201C320.949 359.201 319.931 358.934 319.062 358.399C318.193 357.865 317.518 357.117 317.038 356.157C316.558 355.196 316.317 354.073 316.317 352.788C316.317 351.498 316.558 350.37 317.038 349.404C317.518 348.438 318.193 347.687 319.062 347.153C319.931 346.619 320.949 346.352 322.115 346.352C323.28 346.352 324.298 346.619 325.167 347.153C326.036 347.687 326.711 348.438 327.191 349.404C327.672 350.37 327.912 351.498 327.912 352.788C327.912 354.073 327.672 355.196 327.191 356.157C326.711 357.117 326.036 357.865 325.167 358.399C324.298 358.934 323.28 359.201 322.115 359.201ZM322.123 357.169C322.878 357.169 323.504 356.969 324.001 356.569C324.498 356.17 324.865 355.638 325.102 354.974C325.345 354.31 325.467 353.579 325.467 352.78C325.467 351.987 325.345 351.258 325.102 350.594C324.865 349.925 324.498 349.388 324.001 348.983C323.504 348.578 322.878 348.376 322.123 348.376C321.362 348.376 320.73 348.578 320.228 348.983C319.731 349.388 319.362 349.925 319.119 350.594C318.881 351.258 318.763 351.987 318.763 352.78C318.763 353.579 318.881 354.31 319.119 354.974C319.362 355.638 319.731 356.17 320.228 356.569C320.73 356.969 321.362 357.169 322.123 357.169ZM333.035 351.566V358.95H330.614V346.513H332.938V348.538H333.091C333.378 347.879 333.826 347.35 334.436 346.951C335.051 346.551 335.825 346.352 336.759 346.352C337.607 346.352 338.349 346.53 338.986 346.886C339.623 347.237 340.117 347.76 340.467 348.457C340.818 349.153 340.994 350.014 340.994 351.039V358.95H338.573V351.331C338.573 350.43 338.338 349.725 337.868 349.218C337.399 348.705 336.754 348.449 335.933 348.449C335.372 348.449 334.873 348.57 334.436 348.813C334.004 349.056 333.661 349.412 333.407 349.882C333.159 350.346 333.035 350.907 333.035 351.566ZM353.56 349.55L351.366 349.938C351.274 349.658 351.128 349.39 350.928 349.137C350.734 348.883 350.469 348.675 350.135 348.513C349.8 348.351 349.382 348.27 348.88 348.27C348.194 348.27 347.622 348.424 347.163 348.732C346.705 349.034 346.475 349.426 346.475 349.906C346.475 350.322 346.629 350.656 346.937 350.91C347.244 351.164 347.741 351.371 348.426 351.533L350.402 351.987C351.546 352.251 352.399 352.659 352.961 353.209C353.522 353.76 353.803 354.475 353.803 355.355C353.803 356.1 353.587 356.764 353.155 357.347C352.728 357.924 352.132 358.378 351.366 358.707C350.604 359.036 349.722 359.201 348.718 359.201C347.325 359.201 346.189 358.904 345.309 358.31C344.429 357.711 343.89 356.861 343.69 355.76L346.03 355.404C346.176 356.013 346.475 356.475 346.929 356.788C347.382 357.096 347.973 357.25 348.702 357.25C349.495 357.25 350.129 357.085 350.604 356.756C351.079 356.421 351.317 356.013 351.317 355.533C351.317 355.144 351.171 354.818 350.88 354.553C350.594 354.289 350.154 354.089 349.56 353.954L347.455 353.493C346.294 353.228 345.436 352.807 344.88 352.23C344.33 351.652 344.054 350.921 344.054 350.035C344.054 349.301 344.259 348.659 344.67 348.108C345.08 347.558 345.647 347.129 346.37 346.821C347.093 346.508 347.922 346.352 348.856 346.352C350.2 346.352 351.258 346.643 352.029 347.226C352.801 347.804 353.311 348.578 353.56 349.55Z" fill="#212528"/>
</g>
<defs>
<filter id="filter0_d_381_1566" x="11" y="162.15" width="79.8" height="79.8" filterUnits="userSpaceOnUse" color-interpolation-filters="sRGB">
<feFlood flood-opacity="0" result="BackgroundImageFix"/>
<feColorMatrix in="SourceAlpha" type="matrix" values="0 0 0 0 0 0 0 0 0 0 0 0 0 0 0 0 0 0 127 0" result="hardAlpha"/>
<feOffset dx="3.8" dy="3.8"/>
<feComposite in2="hardAlpha" operator="out"/>
<feColorMatrix type="matrix" values="0 0 0 0 0.690435 0 0 0 0 0.909565 0 0 0 0 0.713043 0 0 0 1 0"/>
<feBlend mode="normal" in2="BackgroundImageFix" result="effect1_dropShadow_381_1566"/>
<feBlend mode="normal" in="SourceGraphic" in2="effect1_dropShadow_381_1566" result="shape"/>
</filter>
<filter id="filter1_d_381_1566" x="109.8" y="162.15" width="285" height="79.8" filterUnits="userSpaceOnUse" color-interpolation-filters="sRGB">
<feFlood flood-opacity="0" result="BackgroundImageFix"/>
<feColorMatrix in="SourceAlpha" type="matrix" values="0 0 0 0 0 0 0 0 0 0 0 0 0 0 0 0 0 0 127 0" result="hardAlpha"/>
<feOffset dx="3.8" dy="3.8"/>
<feComposite in2="hardAlpha" operator="out"/>
<feColorMatrix type="matrix" values="0 0 0 0 0.690435 0 0 0 0 0.909565 0 0 0 0 0.713043 0 0 0 1 0"/>
<feBlend mode="normal" in2="BackgroundImageFix" result="effect1_dropShadow_381_1566"/>
<feBlend mode="normal" in="SourceGraphic" in2="effect1_dropShadow_381_1566" result="shape"/>
</filter>
<filter id="filter2_d_381_1566" x="11" y="12.9999" width="182.4" height="130.6" filterUnits="userSpaceOnUse" color-interpolation-filters="sRGB">
<feFlood flood-opacity="0" result="BackgroundImageFix"/>
<feColorMatrix in="SourceAlpha" type="matrix" values="0 0 0 0 0 0 0 0 0 0 0 0 0 0 0 0 0 0 127 0" result="hardAlpha"/>
<feOffset dx="3.8" dy="3.8"/>
<feComposite in2="hardAlpha" operator="out"/>
<feColorMatrix type="matrix" values="0 0 0 0 0.667568 0 0 0 0 0.8 0 0 0 0 0.932432 0 0 0 1 0"/>
<feBlend mode="normal" in2="BackgroundImageFix" result="effect1_dropShadow_381_1566"/>
<feBlend mode="normal" in="SourceGraphic" in2="effect1_dropShadow_381_1566" result="shape"/>
</filter>
<filter id="filter3_d_381_1566" x="11" y="260.95" width="182.4" height="130.6" filterUnits="userSpaceOnUse" color-interpolation-filters="sRGB">
<feFlood flood-opacity="0" result="BackgroundImageFix"/>
<feColorMatrix in="SourceAlpha" type="matrix" values="0 0 0 0 0 0 0 0 0 0 0 0 0 0 0 0 0 0 127 0" result="hardAlpha"/>
<feOffset dx="3.8" dy="3.8"/>
<feComposite in2="hardAlpha" operator="out"/>
<feColorMatrix type="matrix" values="0 0 0 0 0.932432 0 0 0 0 0.842378 0 0 0 0 0.667568 0 0 0 1 0"/>
<feBlend mode="normal" in2="BackgroundImageFix" result="effect1_dropShadow_381_1566"/>
<feBlend mode="normal" in="SourceGraphic" in2="effect1_dropShadow_381_1566" result="shape"/>
</filter>
<filter id="filter4_d_381_1566" x="212.4" y="12.9998" width="182.4" height="130.6" filterUnits="userSpaceOnUse" color-interpolation-filters="sRGB">
<feFlood flood-opacity="0" result="BackgroundImageFix"/>
<feColorMatrix in="SourceAlpha" type="matrix" values="0 0 0 0 0 0 0 0 0 0 0 0 0 0 0 0 0 0 127 0" result="hardAlpha"/>
<feOffset dx="3.8" dy="3.8"/>
<feComposite in2="hardAlpha" operator="out"/>
<feColorMatrix type="matrix" values="0 0 0 0 0.932432 0 0 0 0 0.842378 0 0 0 0 0.667568 0 0 0 1 0"/>
<feBlend mode="normal" in2="BackgroundImageFix" result="effect1_dropShadow_381_1566"/>
<feBlend mode="normal" in="SourceGraphic" in2="effect1_dropShadow_381_1566" result="shape"/>
</filter>
<filter id="filter5_d_381_1566" x="212.4" y="260.95" width="182.4" height="130.6" filterUnits="userSpaceOnUse" color-interpolation-filters="sRGB">
<feFlood flood-opacity="0" result="BackgroundImageFix"/>
<feColorMatrix in="SourceAlpha" type="matrix" values="0 0 0 0 0 0 0 0 0 0 0 0 0 0 0 0 0 0 127 0" result="hardAlpha"/>
<feOffset dx="3.8" dy="3.8"/>
<feComposite in2="hardAlpha" operator="out"/>
<feColorMatrix type="matrix" values="0 0 0 0 0.667568 0 0 0 0 0.8 0 0 0 0 0.932432 0 0 0 1 0"/>
<feBlend mode="normal" in2="BackgroundImageFix" result="effect1_dropShadow_381_1566"/>
<feBlend mode="normal" in="SourceGraphic" in2="effect1_dropShadow_381_1566" result="shape"/>
</filter>
<clipPath id="clip0_381_1566">
<rect width="45.6" height="45.6" fill="white" transform="translate(26.2 177.35)"/>
</clipPath>
<clipPath id="clip1_381_1566">
<rect width="95.95" height="38" fill="white" transform="translate(139.125 181.15)"/>
</clipPath>
</defs>
</svg>
