<svg width="401" height="400" viewBox="0 0 401 400" fill="none" xmlns="http://www.w3.org/2000/svg">
<g filter="url(#filter0_d_381_1484)">
<rect x="31.8792" y="10" width="156.593" height="156.593" rx="16.7033" fill="white" shape-rendering="crispEdges"/>
<rect x="32.4011" y="10.522" width="155.549" height="155.549" rx="16.1813" stroke="#212528" stroke-width="1.04396" shape-rendering="crispEdges"/>
<path d="M110.176 74.121C115.559 74.121 119.919 69.7607 119.919 64.3774C119.919 58.994 115.559 54.6338 110.176 54.6338C104.793 54.6338 100.432 58.994 100.432 64.3774C100.432 69.7607 104.793 74.121 110.176 74.121ZM110.176 78.9928C103.672 78.9928 90.6887 82.2569 90.6887 88.7364V93.6082H129.663V88.7364C129.663 82.2569 116.68 78.9928 110.176 78.9928Z" fill="#0074FF"/>
<path d="M95.2288 121.629C95.2288 122.938 94.9836 124.059 94.4933 124.992C94.0069 125.922 93.3426 126.633 92.5003 127.128C91.6619 127.622 90.7109 127.869 89.6472 127.869C88.5835 127.869 87.6305 127.622 86.7882 127.128C85.9498 126.63 85.2855 125.916 84.7952 124.986C84.3088 124.053 84.0656 122.934 84.0656 121.629C84.0656 120.32 84.3088 119.201 84.7952 118.272C85.2855 117.339 85.9498 116.625 86.7882 116.131C87.6305 115.636 88.5835 115.389 89.6472 115.389C90.7109 115.389 91.6619 115.636 92.5003 116.131C93.3426 116.625 94.0069 117.339 94.4933 118.272C94.9836 119.201 95.2288 120.32 95.2288 121.629ZM93.0163 121.629C93.0163 120.708 92.872 119.931 92.5833 119.298C92.2986 118.661 91.9032 118.181 91.397 117.857C90.8908 117.529 90.3076 117.364 89.6472 117.364C88.9868 117.364 88.4035 117.529 87.8974 117.857C87.3912 118.181 86.9938 118.661 86.7051 119.298C86.4204 119.931 86.2781 120.708 86.2781 121.629C86.2781 122.551 86.4204 123.33 86.7051 123.966C86.9938 124.599 87.3912 125.079 87.8974 125.408C88.4035 125.732 88.9868 125.894 89.6472 125.894C90.3076 125.894 90.8908 125.732 91.397 125.408C91.9032 125.079 92.2986 124.599 92.5833 123.966C92.872 123.33 93.0163 122.551 93.0163 121.629ZM99.0947 127.703L96.5204 118.592H98.7091L100.311 124.998H100.394L102.031 118.592H104.196L105.833 124.963H105.922L107.5 118.592H109.694L107.114 127.703H104.878L103.17 121.546H103.045L101.337 127.703H99.0947ZM113.341 122.365V127.703H111.194V118.592H113.246V120.14H113.353C113.562 119.63 113.896 119.225 114.355 118.924C114.818 118.624 115.389 118.474 116.069 118.474C116.698 118.474 117.246 118.608 117.712 118.877C118.183 119.146 118.547 119.535 118.804 120.045C119.065 120.556 119.193 121.174 119.189 121.902V127.703H117.042V122.234C117.042 121.625 116.884 121.149 116.568 120.805C116.255 120.461 115.822 120.289 115.269 120.289C114.893 120.289 114.559 120.372 114.266 120.538C113.977 120.7 113.75 120.935 113.584 121.244C113.422 121.552 113.341 121.926 113.341 122.365ZM125.406 127.881C124.492 127.881 123.703 127.691 123.039 127.312C122.379 126.928 121.87 126.386 121.515 125.686C121.159 124.983 120.981 124.154 120.981 123.201C120.981 122.264 121.159 121.441 121.515 120.734C121.874 120.022 122.377 119.468 123.021 119.073C123.666 118.673 124.423 118.474 125.293 118.474C125.854 118.474 126.384 118.565 126.883 118.746C127.385 118.924 127.828 119.201 128.211 119.577C128.599 119.953 128.903 120.431 129.125 121.012C129.346 121.59 129.457 122.278 129.457 123.077V123.735H121.989V122.288H127.399C127.395 121.876 127.306 121.511 127.132 121.19C126.958 120.866 126.715 120.611 126.402 120.425C126.094 120.239 125.734 120.146 125.323 120.146C124.884 120.146 124.498 120.253 124.166 120.467C123.834 120.676 123.575 120.953 123.389 121.297C123.207 121.637 123.114 122.011 123.11 122.418V123.682C123.11 124.211 123.207 124.666 123.401 125.046C123.595 125.421 123.865 125.71 124.213 125.912C124.561 126.11 124.969 126.208 125.435 126.208C125.748 126.208 126.03 126.165 126.284 126.078C126.537 125.987 126.756 125.854 126.942 125.68C127.128 125.506 127.268 125.291 127.363 125.034L129.368 125.259C129.241 125.789 129 126.252 128.644 126.647C128.292 127.039 127.842 127.343 127.292 127.561C126.742 127.774 126.113 127.881 125.406 127.881ZM131.273 127.703V118.592H133.355V120.111H133.45C133.616 119.585 133.901 119.179 134.304 118.895C134.712 118.606 135.176 118.462 135.698 118.462C135.817 118.462 135.95 118.468 136.096 118.48C136.246 118.487 136.371 118.501 136.47 118.521V120.496C136.379 120.465 136.234 120.437 136.036 120.413C135.843 120.386 135.655 120.372 135.473 120.372C135.082 120.372 134.73 120.457 134.417 120.627C134.109 120.793 133.866 121.024 133.688 121.321C133.51 121.617 133.421 121.959 133.421 122.347V127.703H131.273Z" fill="#212528"/>
</g>
<g filter="url(#filter1_d_381_1484)">
<rect x="213.527" y="51.7583" width="156.593" height="156.593" rx="16.7033" fill="white" shape-rendering="crispEdges"/>
<rect x="214.049" y="52.2803" width="155.549" height="155.549" rx="16.1813" stroke="#212528" stroke-width="1.04396" shape-rendering="crispEdges"/>
<path d="M308.875 98.8278V132.93H274.773V98.8278H308.875ZM308.875 93.9561H274.773C272.069 93.9561 269.901 96.1484 269.901 98.8278V132.93C269.901 135.61 272.069 137.802 274.773 137.802H308.875C311.555 137.802 313.747 135.61 313.747 132.93V98.8278C313.747 96.1484 311.555 93.9561 308.875 93.9561ZM291.824 115.879C287.805 115.879 284.517 112.591 284.517 108.571C284.517 104.552 287.805 101.264 291.824 101.264C295.843 101.264 299.132 104.552 299.132 108.571C299.132 112.591 295.843 115.879 291.824 115.879ZM291.824 106.136C290.484 106.136 289.388 107.232 289.388 108.571C289.388 109.911 290.484 111.007 291.824 111.007C293.164 111.007 294.26 109.911 294.26 108.571C294.26 107.232 293.164 106.136 291.824 106.136ZM306.44 130.495H277.209V126.768C277.209 120.678 286.879 118.047 291.824 118.047C296.769 118.047 306.44 120.678 306.44 126.768V130.495ZM282.836 125.623H300.813C299.132 124.259 295.015 122.895 291.824 122.895C288.633 122.895 284.492 124.259 282.836 125.623Z" fill="#D4732B"/>
<path d="M268.582 169.461H266.233L270.51 157.314H273.227L277.509 169.461H275.161L271.916 159.805H271.821L268.582 169.461ZM268.66 164.698H275.066V166.466H268.66V164.698ZM282.118 169.622C281.402 169.622 280.762 169.438 280.196 169.07C279.631 168.702 279.184 168.168 278.856 167.468C278.528 166.768 278.364 165.918 278.364 164.918C278.364 163.906 278.53 163.051 278.862 162.355C279.198 161.655 279.651 161.128 280.22 160.772C280.79 160.412 281.424 160.232 282.124 160.232C282.658 160.232 283.097 160.323 283.441 160.505C283.785 160.683 284.058 160.898 284.26 161.151C284.461 161.4 284.617 161.636 284.728 161.857H284.817V157.314H286.97V169.461H284.859V168.026H284.728C284.617 168.247 284.457 168.483 284.248 168.732C284.038 168.977 283.761 169.187 283.417 169.361C283.073 169.535 282.64 169.622 282.118 169.622ZM282.717 167.86C283.172 167.86 283.56 167.737 283.88 167.492C284.2 167.243 284.443 166.897 284.609 166.454C284.776 166.011 284.859 165.495 284.859 164.906C284.859 164.317 284.776 163.805 284.609 163.37C284.447 162.935 284.206 162.597 283.886 162.355C283.569 162.114 283.18 161.994 282.717 161.994C282.239 161.994 281.839 162.118 281.519 162.367C281.199 162.616 280.958 162.96 280.795 163.399C280.633 163.838 280.552 164.341 280.552 164.906C280.552 165.475 280.633 165.984 280.795 166.43C280.962 166.873 281.205 167.223 281.525 167.48C281.849 167.733 282.247 167.86 282.717 167.86ZM289.258 169.461V160.351H291.311V161.899H291.417C291.607 161.377 291.922 160.969 292.361 160.677C292.8 160.38 293.323 160.232 293.932 160.232C294.549 160.232 295.069 160.382 295.492 160.683C295.92 160.979 296.22 161.385 296.394 161.899H296.489C296.691 161.393 297.031 160.989 297.509 160.689C297.992 160.384 298.563 160.232 299.223 160.232C300.062 160.232 300.746 160.497 301.276 161.027C301.806 161.557 302.071 162.33 302.071 163.346V169.461H299.917V163.678C299.917 163.113 299.767 162.699 299.467 162.438C299.166 162.174 298.798 162.041 298.363 162.041C297.845 162.041 297.44 162.203 297.147 162.527C296.859 162.848 296.714 163.265 296.714 163.779V169.461H294.609V163.589C294.609 163.119 294.466 162.743 294.182 162.462C293.901 162.181 293.533 162.041 293.078 162.041C292.77 162.041 292.489 162.12 292.236 162.278C291.983 162.433 291.781 162.652 291.631 162.937C291.481 163.217 291.406 163.546 291.406 163.921V169.461H289.258ZM304.249 169.461V160.351H306.396V169.461H304.249ZM305.328 159.057C304.988 159.057 304.696 158.945 304.451 158.719C304.205 158.49 304.083 158.215 304.083 157.895C304.083 157.571 304.205 157.296 304.451 157.07C304.696 156.841 304.988 156.726 305.328 156.726C305.672 156.726 305.965 156.841 306.206 157.07C306.452 157.296 306.574 157.571 306.574 157.895C306.574 158.215 306.452 158.49 306.206 158.719C305.965 158.945 305.672 159.057 305.328 159.057ZM310.751 164.123V169.461H308.604V160.351H310.656V161.899H310.763C310.973 161.389 311.307 160.983 311.766 160.683C312.228 160.382 312.8 160.232 313.48 160.232C314.109 160.232 314.656 160.366 315.123 160.635C315.594 160.904 315.957 161.294 316.214 161.804C316.475 162.314 316.604 162.933 316.6 163.66V169.461H314.453V163.993C314.453 163.384 314.295 162.907 313.978 162.563C313.666 162.219 313.233 162.047 312.679 162.047C312.303 162.047 311.969 162.13 311.677 162.296C311.388 162.458 311.161 162.694 310.995 163.002C310.832 163.31 310.751 163.684 310.751 164.123Z" fill="#212528"/>
</g>
<g filter="url(#filter2_d_381_1484)">
<rect x="213.527" y="233.407" width="156.593" height="156.593" rx="16.7033" fill="white" shape-rendering="crispEdges"/>
<rect x="214.049" y="233.929" width="155.549" height="155.549" rx="16.1813" stroke="#212528" stroke-width="1.04396" shape-rendering="crispEdges"/>
<path d="M294.26 287.784C294.26 282.401 289.9 278.041 284.516 278.041C279.133 278.041 274.773 282.401 274.773 287.784C274.773 293.167 279.133 297.528 284.516 297.528C289.9 297.528 294.26 293.167 294.26 287.784ZM299.132 292.656V297.528H306.44V304.835H311.311V297.528H318.619V292.656H311.311V285.348H306.44V292.656H299.132ZM265.029 312.143V317.015H304.004V312.143C304.004 305.664 291.02 302.4 284.516 302.4C278.013 302.4 265.029 305.664 265.029 312.143Z" fill="#D52BC3"/>
<path d="M257.082 351.11H254.733L259.01 338.962H261.727L266.009 351.11H263.66L260.416 341.453H260.321L257.082 351.11ZM257.159 346.347H263.566V348.114H257.159V346.347ZM270.618 351.27C269.902 351.27 269.262 351.086 268.696 350.718C268.131 350.351 267.684 349.817 267.356 349.117C267.028 348.417 266.863 347.567 266.863 346.566C266.863 345.554 267.03 344.7 267.362 344.004C267.698 343.304 268.151 342.776 268.72 342.42C269.29 342.06 269.924 341.88 270.624 341.88C271.158 341.88 271.597 341.971 271.941 342.153C272.285 342.331 272.558 342.547 272.759 342.8C272.961 343.049 273.117 343.284 273.228 343.506H273.317V338.962H275.47V351.11H273.359V349.674H273.228C273.117 349.896 272.957 350.131 272.748 350.38C272.538 350.625 272.261 350.835 271.917 351.009C271.573 351.183 271.14 351.27 270.618 351.27ZM271.217 349.508C271.672 349.508 272.06 349.386 272.38 349.141C272.7 348.891 272.943 348.545 273.109 348.103C273.276 347.66 273.359 347.144 273.359 346.554C273.359 345.965 273.276 345.453 273.109 345.018C272.947 344.583 272.706 344.245 272.386 344.004C272.069 343.763 271.68 343.642 271.217 343.642C270.739 343.642 270.339 343.767 270.019 344.016C269.699 344.265 269.458 344.609 269.295 345.048C269.133 345.487 269.052 345.989 269.052 346.554C269.052 347.124 269.133 347.632 269.295 348.079C269.462 348.522 269.705 348.872 270.025 349.129C270.349 349.382 270.747 349.508 271.217 349.508ZM281.139 351.27C280.424 351.27 279.783 351.086 279.217 350.718C278.652 350.351 278.205 349.817 277.877 349.117C277.549 348.417 277.385 347.567 277.385 346.566C277.385 345.554 277.551 344.7 277.883 344.004C278.219 343.304 278.672 342.776 279.241 342.42C279.811 342.06 280.445 341.88 281.145 341.88C281.679 341.88 282.118 341.971 282.462 342.153C282.806 342.331 283.079 342.547 283.281 342.8C283.482 343.049 283.638 343.284 283.749 343.506H283.838V338.962H285.991V351.11H283.88V349.674H283.749C283.638 349.896 283.478 350.131 283.269 350.38C283.059 350.625 282.782 350.835 282.438 351.009C282.094 351.183 281.661 351.27 281.139 351.27ZM281.738 349.508C282.193 349.508 282.581 349.386 282.901 349.141C283.221 348.891 283.464 348.545 283.631 348.103C283.797 347.66 283.88 347.144 283.88 346.554C283.88 345.965 283.797 345.453 283.631 345.018C283.468 344.583 283.227 344.245 282.907 344.004C282.591 343.763 282.201 343.642 281.738 343.642C281.26 343.642 280.861 343.767 280.54 344.016C280.22 344.265 279.979 344.609 279.817 345.048C279.654 345.487 279.573 345.989 279.573 346.554C279.573 347.124 279.654 347.632 279.817 348.079C279.983 348.522 280.226 348.872 280.546 349.129C280.87 349.382 281.268 349.508 281.738 349.508ZM300.175 338.962H302.376V346.898C302.376 347.768 302.17 348.534 301.759 349.194C301.352 349.854 300.778 350.37 300.039 350.742C299.299 351.11 298.435 351.294 297.447 351.294C296.454 351.294 295.588 351.11 294.849 350.742C294.109 350.37 293.536 349.854 293.128 349.194C292.721 348.534 292.518 347.768 292.518 346.898V338.962H294.718V346.715C294.718 347.221 294.829 347.672 295.05 348.067C295.276 348.462 295.592 348.773 295.999 348.998C296.407 349.22 296.889 349.33 297.447 349.33C298.004 349.33 298.487 349.22 298.894 348.998C299.305 348.773 299.622 348.462 299.843 348.067C300.064 347.672 300.175 347.221 300.175 346.715V338.962ZM311.874 344.407L309.916 344.621C309.861 344.423 309.764 344.237 309.626 344.063C309.491 343.889 309.309 343.749 309.08 343.642C308.851 343.535 308.57 343.482 308.238 343.482C307.791 343.482 307.415 343.579 307.111 343.773C306.81 343.966 306.662 344.217 306.666 344.526C306.662 344.791 306.759 345.006 306.956 345.172C307.158 345.338 307.49 345.475 307.953 345.582L309.507 345.914C310.369 346.1 311.01 346.394 311.429 346.798C311.852 347.201 312.066 347.729 312.069 348.381C312.066 348.955 311.897 349.461 311.565 349.9C311.237 350.335 310.78 350.675 310.195 350.92C309.61 351.165 308.938 351.288 308.178 351.288C307.063 351.288 306.166 351.055 305.485 350.588C304.805 350.117 304.4 349.463 304.269 348.625L306.363 348.423C306.458 348.834 306.66 349.145 306.968 349.354C307.277 349.564 307.678 349.668 308.172 349.668C308.683 349.668 309.092 349.564 309.4 349.354C309.713 349.145 309.869 348.886 309.869 348.577C309.869 348.316 309.768 348.101 309.566 347.931C309.369 347.761 309.06 347.63 308.641 347.539L307.087 347.213C306.213 347.031 305.566 346.724 305.147 346.293C304.728 345.858 304.521 345.309 304.525 344.644C304.521 344.083 304.673 343.597 304.981 343.185C305.294 342.77 305.727 342.45 306.28 342.224C306.838 341.995 307.48 341.88 308.208 341.88C309.276 341.88 310.116 342.108 310.729 342.562C311.346 343.017 311.727 343.632 311.874 344.407ZM317.873 351.288C316.96 351.288 316.171 351.098 315.507 350.718C314.846 350.335 314.338 349.793 313.982 349.093C313.626 348.389 313.449 347.561 313.449 346.608C313.449 345.671 313.626 344.848 313.982 344.14C314.342 343.428 314.844 342.875 315.489 342.479C316.134 342.08 316.891 341.88 317.761 341.88C318.322 341.88 318.852 341.971 319.35 342.153C319.853 342.331 320.296 342.608 320.679 342.984C321.067 343.359 321.371 343.838 321.593 344.419C321.814 344.996 321.925 345.684 321.925 346.483V347.142H314.457V345.694H319.867C319.863 345.283 319.774 344.917 319.6 344.597C319.426 344.273 319.182 344.018 318.87 343.832C318.562 343.646 318.202 343.553 317.79 343.553C317.352 343.553 316.966 343.66 316.634 343.873C316.302 344.083 316.043 344.36 315.857 344.704C315.675 345.044 315.582 345.418 315.578 345.825V347.088C315.578 347.618 315.675 348.073 315.869 348.453C316.062 348.828 316.333 349.117 316.681 349.319C317.029 349.516 317.437 349.615 317.903 349.615C318.216 349.615 318.498 349.572 318.751 349.485C319.004 349.394 319.224 349.261 319.41 349.087C319.596 348.913 319.736 348.698 319.831 348.441L321.836 348.666C321.709 349.196 321.468 349.659 321.112 350.054C320.76 350.446 320.309 350.75 319.76 350.968C319.21 351.181 318.581 351.288 317.873 351.288ZM323.741 351.11V341.999H325.823V343.517H325.918C326.084 342.992 326.369 342.586 326.772 342.301C327.18 342.013 327.644 341.868 328.166 341.868C328.285 341.868 328.417 341.874 328.564 341.886C328.714 341.894 328.838 341.908 328.937 341.928V343.903C328.846 343.871 328.702 343.844 328.504 343.82C328.311 343.792 328.123 343.778 327.941 343.778C327.549 343.778 327.197 343.863 326.885 344.034C326.577 344.2 326.333 344.431 326.155 344.727C325.978 345.024 325.889 345.366 325.889 345.754V351.11H323.741Z" fill="#212528"/>
</g>
<g filter="url(#filter3_d_381_1484)">
<rect x="31.8792" y="191.648" width="65.7692" height="65.7692" rx="16.7033" fill="white" shape-rendering="crispEdges"/>
<rect x="32.4011" y="192.17" width="64.7253" height="64.7253" rx="16.1813" stroke="#212528" stroke-width="1.04396" shape-rendering="crispEdges"/>
<path d="M64.7638 210.613C57.0803 210.613 50.8444 216.849 50.8444 224.533C50.8444 232.216 57.0803 238.452 64.7638 238.452C72.4473 238.452 78.6832 232.216 78.6832 224.533C78.6832 216.849 72.4473 210.613 64.7638 210.613ZM57.9015 233.274C58.5 232.021 62.1469 230.796 64.7638 230.796C67.3806 230.796 71.0414 232.021 71.626 233.274C69.733 234.777 67.3528 235.668 64.7638 235.668C62.1748 235.668 59.7945 234.777 57.9015 233.274ZM73.6165 231.256C71.626 228.834 66.796 228.013 64.7638 228.013C62.7315 228.013 57.9015 228.834 55.911 231.256C54.4912 229.391 53.6282 227.066 53.6282 224.533C53.6282 218.394 58.6253 213.397 64.7638 213.397C70.9022 213.397 75.8993 218.394 75.8993 224.533C75.8993 227.066 75.0363 229.391 73.6165 231.256ZM64.7638 216.181C62.0634 216.181 59.892 218.352 59.892 221.053C59.892 223.753 62.0634 225.925 64.7638 225.925C67.4641 225.925 69.6356 223.753 69.6356 221.053C69.6356 218.352 67.4641 216.181 64.7638 216.181ZM64.7638 223.141C63.6085 223.141 62.6759 222.208 62.6759 221.053C62.6759 219.898 63.6085 218.965 64.7638 218.965C65.9191 218.965 66.8517 219.898 66.8517 221.053C66.8517 222.208 65.9191 223.141 64.7638 223.141Z" fill="#30D42B"/>
</g>
<g filter="url(#filter4_d_381_1484)">
<rect x="122.703" y="191.648" width="65.7692" height="65.7692" rx="16.7033" fill="white" shape-rendering="crispEdges"/>
<rect x="123.225" y="192.17" width="64.7253" height="64.7253" rx="16.1813" stroke="#212528" stroke-width="1.04396" shape-rendering="crispEdges"/>
<path d="M155.588 210.613C147.904 210.613 141.669 216.849 141.669 224.533C141.669 232.216 147.904 238.452 155.588 238.452C163.271 238.452 169.507 232.216 169.507 224.533C169.507 216.849 163.271 210.613 155.588 210.613ZM148.726 233.274C149.324 232.021 152.971 230.796 155.588 230.796C158.205 230.796 161.866 232.021 162.45 233.274C160.557 234.777 158.177 235.668 155.588 235.668C152.999 235.668 150.619 234.777 148.726 233.274ZM164.441 231.256C162.45 228.834 157.62 228.013 155.588 228.013C153.556 228.013 148.726 228.834 146.735 231.256C145.315 229.391 144.452 227.066 144.452 224.533C144.452 218.394 149.449 213.397 155.588 213.397C161.726 213.397 166.723 218.394 166.723 224.533C166.723 227.066 165.86 229.391 164.441 231.256ZM155.588 216.181C152.888 216.181 150.716 218.352 150.716 221.053C150.716 223.753 152.888 225.925 155.588 225.925C158.288 225.925 160.46 223.753 160.46 221.053C160.46 218.352 158.288 216.181 155.588 216.181ZM155.588 223.141C154.433 223.141 153.5 222.208 153.5 221.053C153.5 219.898 154.433 218.965 155.588 218.965C156.743 218.965 157.676 219.898 157.676 221.053C157.676 222.208 156.743 223.141 155.588 223.141Z" fill="#30D42B"/>
</g>
<g filter="url(#filter5_d_381_1484)">
<rect x="31.8792" y="282.473" width="65.7692" height="65.7692" rx="16.7033" fill="white" shape-rendering="crispEdges"/>
<rect x="32.4011" y="282.995" width="64.7253" height="64.7253" rx="16.1813" stroke="#212528" stroke-width="1.04396" shape-rendering="crispEdges"/>
<path d="M64.7638 301.438C57.0803 301.438 50.8444 307.673 50.8444 315.357C50.8444 323.04 57.0803 329.276 64.7638 329.276C72.4473 329.276 78.6832 323.04 78.6832 315.357C78.6832 307.673 72.4473 301.438 64.7638 301.438ZM57.9015 324.098C58.5 322.846 62.1469 321.621 64.7638 321.621C67.3806 321.621 71.0414 322.846 71.626 324.098C69.733 325.602 67.3528 326.492 64.7638 326.492C62.1748 326.492 59.7945 325.602 57.9015 324.098ZM73.6165 322.08C71.626 319.658 66.796 318.837 64.7638 318.837C62.7315 318.837 57.9015 319.658 55.911 322.08C54.4912 320.215 53.6282 317.89 53.6282 315.357C53.6282 309.218 58.6253 304.221 64.7638 304.221C70.9022 304.221 75.8993 309.218 75.8993 315.357C75.8993 317.89 75.0363 320.215 73.6165 322.08ZM64.7638 307.005C62.0634 307.005 59.892 309.177 59.892 311.877C59.892 314.577 62.0634 316.749 64.7638 316.749C67.4641 316.749 69.6356 314.577 69.6356 311.877C69.6356 309.177 67.4641 307.005 64.7638 307.005ZM64.7638 313.965C63.6085 313.965 62.6759 313.032 62.6759 311.877C62.6759 310.722 63.6085 309.789 64.7638 309.789C65.9191 309.789 66.8517 310.722 66.8517 311.877C66.8517 313.032 65.9191 313.965 64.7638 313.965Z" fill="#30D42B"/>
</g>
<g filter="url(#filter6_d_381_1484)">
<rect x="122.703" y="282.473" width="65.7692" height="65.7692" rx="16.7033" fill="white" shape-rendering="crispEdges"/>
<rect x="123.225" y="282.995" width="64.7253" height="64.7253" rx="16.1813" stroke="#212528" stroke-width="1.04396" shape-rendering="crispEdges"/>
<path d="M155.588 301.438C147.904 301.438 141.669 307.673 141.669 315.357C141.669 323.04 147.904 329.276 155.588 329.276C163.271 329.276 169.507 323.04 169.507 315.357C169.507 307.673 163.271 301.438 155.588 301.438ZM148.726 324.098C149.324 322.846 152.971 321.621 155.588 321.621C158.205 321.621 161.866 322.846 162.45 324.098C160.557 325.602 158.177 326.492 155.588 326.492C152.999 326.492 150.619 325.602 148.726 324.098ZM164.441 322.08C162.45 319.658 157.62 318.837 155.588 318.837C153.556 318.837 148.726 319.658 146.735 322.08C145.315 320.215 144.452 317.89 144.452 315.357C144.452 309.218 149.449 304.221 155.588 304.221C161.726 304.221 166.723 309.218 166.723 315.357C166.723 317.89 165.86 320.215 164.441 322.08ZM155.588 307.005C152.888 307.005 150.716 309.177 150.716 311.877C150.716 314.577 152.888 316.749 155.588 316.749C158.288 316.749 160.46 314.577 160.46 311.877C160.46 309.177 158.288 307.005 155.588 307.005ZM155.588 313.965C154.433 313.965 153.5 313.032 153.5 311.877C153.5 310.722 154.433 309.789 155.588 309.789C156.743 309.789 157.676 310.722 157.676 311.877C157.676 313.032 156.743 313.965 155.588 313.965Z" fill="#30D42B"/>
</g>
<defs>
<filter id="filter0_d_381_1484" x="31.8792" y="10" width="160.769" height="160.769" filterUnits="userSpaceOnUse" color-interpolation-filters="sRGB">
<feFlood flood-opacity="0" result="BackgroundImageFix"/>
<feColorMatrix in="SourceAlpha" type="matrix" values="0 0 0 0 0 0 0 0 0 0 0 0 0 0 0 0 0 0 127 0" result="hardAlpha"/>
<feOffset dx="4.17582" dy="4.17582"/>
<feComposite in2="hardAlpha" operator="out"/>
<feColorMatrix type="matrix" values="0 0 0 0 0.667568 0 0 0 0 0.805297 0 0 0 0 0.932432 0 0 0 1 0"/>
<feBlend mode="normal" in2="BackgroundImageFix" result="effect1_dropShadow_381_1484"/>
<feBlend mode="normal" in="SourceGraphic" in2="effect1_dropShadow_381_1484" result="shape"/>
</filter>
<filter id="filter1_d_381_1484" x="213.527" y="51.7583" width="160.769" height="160.769" filterUnits="userSpaceOnUse" color-interpolation-filters="sRGB">
<feFlood flood-opacity="0" result="BackgroundImageFix"/>
<feColorMatrix in="SourceAlpha" type="matrix" values="0 0 0 0 0 0 0 0 0 0 0 0 0 0 0 0 0 0 127 0" result="hardAlpha"/>
<feOffset dx="4.17582" dy="4.17582"/>
<feComposite in2="hardAlpha" operator="out"/>
<feColorMatrix type="matrix" values="0 0 0 0 0.932432 0 0 0 0 0.778811 0 0 0 0 0.667568 0 0 0 1 0"/>
<feBlend mode="normal" in2="BackgroundImageFix" result="effect1_dropShadow_381_1484"/>
<feBlend mode="normal" in="SourceGraphic" in2="effect1_dropShadow_381_1484" result="shape"/>
</filter>
<filter id="filter2_d_381_1484" x="213.527" y="233.407" width="160.769" height="160.769" filterUnits="userSpaceOnUse" color-interpolation-filters="sRGB">
<feFlood flood-opacity="0" result="BackgroundImageFix"/>
<feColorMatrix in="SourceAlpha" type="matrix" values="0 0 0 0 0 0 0 0 0 0 0 0 0 0 0 0 0 0 127 0" result="hardAlpha"/>
<feOffset dx="4.17582" dy="4.17582"/>
<feComposite in2="hardAlpha" operator="out"/>
<feColorMatrix type="matrix" values="0 0 0 0 0.932432 0 0 0 0 0.667568 0 0 0 0 0.905946 0 0 0 1 0"/>
<feBlend mode="normal" in2="BackgroundImageFix" result="effect1_dropShadow_381_1484"/>
<feBlend mode="normal" in="SourceGraphic" in2="effect1_dropShadow_381_1484" result="shape"/>
</filter>
<filter id="filter3_d_381_1484" x="31.8792" y="191.648" width="69.9451" height="69.9449" filterUnits="userSpaceOnUse" color-interpolation-filters="sRGB">
<feFlood flood-opacity="0" result="BackgroundImageFix"/>
<feColorMatrix in="SourceAlpha" type="matrix" values="0 0 0 0 0 0 0 0 0 0 0 0 0 0 0 0 0 0 127 0" result="hardAlpha"/>
<feOffset dx="4.17582" dy="4.17582"/>
<feComposite in2="hardAlpha" operator="out"/>
<feColorMatrix type="matrix" values="0 0 0 0 0.672865 0 0 0 0 0.932432 0 0 0 0 0.667568 0 0 0 1 0"/>
<feBlend mode="normal" in2="BackgroundImageFix" result="effect1_dropShadow_381_1484"/>
<feBlend mode="normal" in="SourceGraphic" in2="effect1_dropShadow_381_1484" result="shape"/>
</filter>
<filter id="filter4_d_381_1484" x="122.703" y="191.648" width="69.9451" height="69.9449" filterUnits="userSpaceOnUse" color-interpolation-filters="sRGB">
<feFlood flood-opacity="0" result="BackgroundImageFix"/>
<feColorMatrix in="SourceAlpha" type="matrix" values="0 0 0 0 0 0 0 0 0 0 0 0 0 0 0 0 0 0 127 0" result="hardAlpha"/>
<feOffset dx="4.17582" dy="4.17582"/>
<feComposite in2="hardAlpha" operator="out"/>
<feColorMatrix type="matrix" values="0 0 0 0 0.672865 0 0 0 0 0.932432 0 0 0 0 0.667568 0 0 0 1 0"/>
<feBlend mode="normal" in2="BackgroundImageFix" result="effect1_dropShadow_381_1484"/>
<feBlend mode="normal" in="SourceGraphic" in2="effect1_dropShadow_381_1484" result="shape"/>
</filter>
<filter id="filter5_d_381_1484" x="31.8792" y="282.473" width="69.9451" height="69.9449" filterUnits="userSpaceOnUse" color-interpolation-filters="sRGB">
<feFlood flood-opacity="0" result="BackgroundImageFix"/>
<feColorMatrix in="SourceAlpha" type="matrix" values="0 0 0 0 0 0 0 0 0 0 0 0 0 0 0 0 0 0 127 0" result="hardAlpha"/>
<feOffset dx="4.17582" dy="4.17582"/>
<feComposite in2="hardAlpha" operator="out"/>
<feColorMatrix type="matrix" values="0 0 0 0 0.672865 0 0 0 0 0.932432 0 0 0 0 0.667568 0 0 0 1 0"/>
<feBlend mode="normal" in2="BackgroundImageFix" result="effect1_dropShadow_381_1484"/>
<feBlend mode="normal" in="SourceGraphic" in2="effect1_dropShadow_381_1484" result="shape"/>
</filter>
<filter id="filter6_d_381_1484" x="122.703" y="282.473" width="69.9451" height="69.9449" filterUnits="userSpaceOnUse" color-interpolation-filters="sRGB">
<feFlood flood-opacity="0" result="BackgroundImageFix"/>
<feColorMatrix in="SourceAlpha" type="matrix" values="0 0 0 0 0 0 0 0 0 0 0 0 0 0 0 0 0 0 127 0" result="hardAlpha"/>
<feOffset dx="4.17582" dy="4.17582"/>
<feComposite in2="hardAlpha" operator="out"/>
<feColorMatrix type="matrix" values="0 0 0 0 0.672865 0 0 0 0 0.932432 0 0 0 0 0.667568 0 0 0 1 0"/>
<feBlend mode="normal" in2="BackgroundImageFix" result="effect1_dropShadow_381_1484"/>
<feBlend mode="normal" in="SourceGraphic" in2="effect1_dropShadow_381_1484" result="shape"/>
</filter>
</defs>
</svg>
