<svg width="401" height="400" viewBox="0 0 401 400" fill="none" xmlns="http://www.w3.org/2000/svg">
<g filter="url(#filter0_d_386_317)">
<rect x="25.0741" y="10" width="351.852" height="70.3704" rx="14.0741" fill="white" shape-rendering="crispEdges"/>
<rect x="25.5139" y="10.4398" width="350.972" height="69.4907" rx="13.6343" stroke="#212528" stroke-width="0.87963" shape-rendering="crispEdges"/>
<path d="M120.306 55.1853V35.9934H131.813V38.055H122.63V44.5398H130.951V46.6014H122.63V55.1853H120.306ZM135.494 55.1853V40.7914H137.705V55.1853H135.494ZM136.618 38.3924C136.187 38.3924 135.815 38.2456 135.503 37.9519C135.197 37.6583 135.044 37.3053 135.044 36.893C135.044 36.4807 135.197 36.1277 135.503 35.8341C135.815 35.5404 136.187 35.3936 136.618 35.3936C137.049 35.3936 137.418 35.5404 137.724 35.8341C138.036 36.1277 138.193 36.4807 138.193 36.893C138.193 37.3053 138.036 37.6583 137.724 37.9519C137.418 38.2456 137.049 38.3924 136.618 38.3924ZM143.967 35.9934V55.1853H141.756V35.9934H143.967ZM154.053 55.4852C152.666 55.4852 151.47 55.1791 150.464 54.5668C149.464 53.9483 148.693 53.0862 148.149 51.9804C147.612 50.8684 147.343 49.5752 147.343 48.1008C147.343 46.6264 147.612 45.327 148.149 44.2024C148.693 43.0717 149.449 42.1908 150.417 41.5598C151.392 40.9226 152.529 40.6039 153.828 40.6039C154.578 40.6039 155.318 40.7289 156.049 40.9788C156.78 41.2287 157.445 41.6348 158.045 42.197C158.645 42.753 159.123 43.4902 159.479 44.4086C159.835 45.327 160.013 46.4577 160.013 47.8009V48.738H148.918V46.8263H157.764C157.764 46.0142 157.602 45.2895 157.277 44.6522C156.958 44.015 156.502 43.5121 155.909 43.1435C155.321 42.7749 154.628 42.5906 153.828 42.5906C152.947 42.5906 152.185 42.8093 151.542 43.2466C150.904 43.6776 150.414 44.2399 150.07 44.9334C149.727 45.6268 149.555 46.3703 149.555 47.1637V48.4381C149.555 49.5252 149.742 50.4467 150.117 51.2026C150.498 51.9523 151.026 52.5239 151.701 52.9175C152.376 53.3048 153.16 53.4985 154.053 53.4985C154.634 53.4985 155.159 53.4173 155.627 53.2549C156.102 53.0862 156.511 52.8363 156.855 52.5052C157.199 52.1678 157.464 51.7492 157.652 51.2495L159.788 51.8492C159.563 52.5739 159.185 53.2111 158.654 53.7609C158.123 54.3044 157.467 54.7292 156.686 55.0354C155.905 55.3352 155.028 55.4852 154.053 55.4852ZM172.224 60.583C171.849 60.583 171.514 60.5518 171.221 60.4893C170.927 60.4331 170.724 60.3769 170.612 60.3206L171.174 58.3715C171.711 58.5089 172.186 58.5589 172.598 58.5214C173.011 58.4839 173.376 58.2996 173.695 57.9685C174.02 57.6436 174.316 57.1157 174.585 56.3848L174.997 55.2603L169.675 40.7914H172.074L176.047 52.2615H176.197L180.17 40.7914H182.569L176.459 57.2844C176.184 58.0279 175.844 58.6432 175.438 59.1305C175.032 59.6241 174.56 59.9895 174.023 60.2269C173.492 60.4643 172.892 60.583 172.224 60.583ZM190.82 55.4852C189.521 55.4852 188.381 55.1759 187.4 54.5574C186.425 53.939 185.663 53.0737 185.113 51.9617C184.57 50.8496 184.298 49.5502 184.298 48.0633C184.298 46.5639 184.57 45.2551 185.113 44.1368C185.663 43.0185 186.425 42.1502 187.4 41.5317C188.381 40.9132 189.521 40.6039 190.82 40.6039C192.12 40.6039 193.257 40.9132 194.231 41.5317C195.212 42.1502 195.974 43.0185 196.518 44.1368C197.068 45.2551 197.343 46.5639 197.343 48.0633C197.343 49.5502 197.068 50.8496 196.518 51.9617C195.974 53.0737 195.212 53.939 194.231 54.5574C193.257 55.1759 192.12 55.4852 190.82 55.4852ZM190.82 53.4985C191.807 53.4985 192.62 53.2455 193.257 52.7395C193.894 52.2334 194.366 51.5681 194.672 50.7434C194.978 49.9188 195.131 49.0254 195.131 48.0633C195.131 47.1012 194.978 46.2047 194.672 45.3738C194.366 44.5429 193.894 43.8713 193.257 43.359C192.62 42.8467 191.807 42.5906 190.82 42.5906C189.833 42.5906 189.021 42.8467 188.384 43.359C187.747 43.8713 187.275 44.5429 186.969 45.3738C186.663 46.2047 186.51 47.1012 186.51 48.0633C186.51 49.0254 186.663 49.9188 186.969 50.7434C187.275 51.5681 187.747 52.2334 188.384 52.7395C189.021 53.2455 189.833 53.4985 190.82 53.4985ZM209.79 49.3003V40.7914H212.001V55.1853H209.79V52.7488H209.64C209.302 53.4798 208.778 54.1014 208.065 54.6137C207.353 55.1197 206.454 55.3727 205.367 55.3727C204.467 55.3727 203.667 55.1759 202.968 54.7823C202.268 54.3825 201.718 53.7828 201.318 52.9831C200.918 52.1772 200.719 51.162 200.719 49.9375V40.7914H202.93V49.7876C202.93 50.8371 203.224 51.6743 203.811 52.299C204.404 52.9238 205.16 53.2361 206.079 53.2361C206.629 53.2361 207.188 53.0956 207.756 52.8144C208.331 52.5333 208.812 52.1022 209.199 51.5212C209.593 50.9402 209.79 50.1999 209.79 49.3003ZM216.052 55.1853V40.7914H218.189V42.9654H218.338C218.601 42.2532 219.076 41.6754 219.763 41.2318C220.45 40.7882 221.225 40.5665 222.087 40.5665C222.249 40.5665 222.452 40.5696 222.696 40.5758C222.94 40.5821 223.124 40.5914 223.249 40.6039V42.853C223.174 42.8343 223.002 42.8061 222.733 42.7687C222.471 42.7249 222.193 42.7031 221.899 42.7031C221.2 42.7031 220.575 42.8499 220.025 43.1435C219.482 43.4309 219.051 43.8307 218.732 44.343C218.42 44.849 218.264 45.4269 218.264 46.0766V55.1853H216.052Z" fill="#212528"/>
<path d="M236.154 35.9934L240.793 50.5747H240.971L245.619 35.9934H250.117L243.501 55.1853H238.272L231.646 35.9934H236.154ZM253.183 55.1853H248.835L255.461 35.9934H260.69L267.306 55.1853H262.957L258.15 40.379H258L253.183 55.1853ZM252.912 47.6416H263.182V50.809H252.912V47.6416ZM266.54 39.3388V35.9934H282.302V39.3388H276.426V55.1853H272.415V39.3388H266.54Z" fill="#212528"/>
</g>
<g filter="url(#filter1_d_386_317)">
<rect x="25.0741" y="256.296" width="165.37" height="133.481" rx="14.0741" fill="white" shape-rendering="crispEdges"/>
<rect x="25.5139" y="256.736" width="164.491" height="132.602" rx="13.6343" stroke="#212528" stroke-width="0.87963" shape-rendering="crispEdges"/>
<path d="M107.759 315.671C109.694 315.671 111.278 314.088 111.278 312.153H104.241C104.241 314.088 105.824 315.671 107.759 315.671ZM118.315 305.116V296.319C118.315 290.918 115.447 286.397 110.398 285.201V284.005C110.398 282.544 109.219 281.366 107.759 281.366C106.299 281.366 105.12 282.544 105.12 284.005V285.201C100.089 286.397 97.2037 290.901 97.2037 296.319V305.116L93.6852 308.634V310.393H121.833V308.634L118.315 305.116ZM114.796 306.875H100.722V296.319C100.722 291.956 103.379 288.403 107.759 288.403C112.14 288.403 114.796 291.956 114.796 296.319V306.875ZM99.9834 284.145L97.4676 281.63C93.2454 284.849 90.4658 289.81 90.2195 295.44H93.738C94.0019 290.778 96.3945 286.696 99.9834 284.145ZM121.781 295.44H125.299C125.035 289.81 122.256 284.849 118.051 281.63L115.553 284.145C119.107 286.696 121.517 290.778 121.781 295.44Z" fill="#F2800D"/>
<path d="M80.5043 332.534V330.872H90.4064V332.534H86.4144V343.667H84.4902V332.534H80.5043ZM92.4446 343.667V334.071H94.3126V343.667H92.4446ZM93.388 332.59C93.0631 332.59 92.7841 332.482 92.5508 332.265C92.3218 332.045 92.2072 331.782 92.2072 331.478C92.2072 331.17 92.3218 330.908 92.5508 330.691C92.7841 330.47 93.0631 330.36 93.388 330.36C93.7128 330.36 93.9898 330.47 94.2189 330.691C94.4521 330.908 94.5687 331.17 94.5687 331.478C94.5687 331.782 94.4521 332.045 94.2189 332.265C93.9898 332.482 93.7128 332.59 93.388 332.59ZM96.8256 343.667V334.071H98.6186V335.633H98.7373C98.9372 335.104 99.2642 334.691 99.7181 334.396C100.172 334.096 100.716 333.946 101.349 333.946C101.99 333.946 102.527 334.096 102.961 334.396C103.398 334.696 103.721 335.108 103.929 335.633H104.029C104.258 335.12 104.622 334.712 105.122 334.408C105.622 334.1 106.217 333.946 106.909 333.946C107.779 333.946 108.489 334.219 109.039 334.764C109.593 335.31 109.87 336.132 109.87 337.232V343.667H108.002V337.407C108.002 336.757 107.825 336.287 107.471 335.995C107.117 335.703 106.694 335.558 106.203 335.558C105.595 335.558 105.122 335.745 104.785 336.12C104.447 336.491 104.279 336.967 104.279 337.551V343.667H102.417V337.288C102.417 336.768 102.255 336.349 101.93 336.032C101.605 335.716 101.182 335.558 100.661 335.558C100.307 335.558 99.9805 335.651 99.6806 335.839C99.3849 336.022 99.1455 336.278 98.9622 336.607C98.7831 336.936 98.6936 337.317 98.6936 337.75V343.667H96.8256ZM116.509 343.86C115.564 343.86 114.75 343.658 114.067 343.254C113.388 342.846 112.863 342.274 112.492 341.536C112.126 340.795 111.943 339.927 111.943 338.931C111.943 337.948 112.126 337.082 112.492 336.332C112.863 335.583 113.38 334.997 114.042 334.577C114.708 334.156 115.487 333.946 116.378 333.946C116.92 333.946 117.445 334.035 117.953 334.214C118.461 334.394 118.917 334.675 119.321 335.058C119.725 335.441 120.043 335.939 120.277 336.551C120.51 337.159 120.627 337.898 120.627 338.769V339.431H112.998V338.032H118.796C118.796 337.54 118.696 337.105 118.496 336.726C118.296 336.343 118.015 336.041 117.653 335.82C117.295 335.599 116.874 335.489 116.391 335.489C115.866 335.489 115.408 335.618 115.016 335.876C114.629 336.13 114.329 336.464 114.117 336.876C113.909 337.284 113.804 337.728 113.804 338.207V339.3C113.804 339.941 113.917 340.487 114.142 340.937C114.371 341.386 114.689 341.73 115.098 341.967C115.506 342.201 115.983 342.317 116.528 342.317C116.882 342.317 117.205 342.267 117.497 342.167C117.788 342.063 118.04 341.909 118.253 341.705C118.465 341.501 118.627 341.249 118.74 340.949L120.508 341.268C120.366 341.788 120.112 342.244 119.746 342.636C119.383 343.023 118.927 343.325 118.377 343.542C117.832 343.754 117.209 343.86 116.509 343.86ZM124.567 330.872V343.667H122.699V330.872H124.567ZM128.261 347.265C127.982 347.265 127.728 347.242 127.499 347.197C127.27 347.155 127.099 347.109 126.986 347.059L127.436 345.528C127.778 345.62 128.082 345.66 128.348 345.647C128.615 345.635 128.85 345.535 129.054 345.347C129.262 345.16 129.446 344.854 129.604 344.429L129.835 343.792L126.324 334.071H128.323L130.753 341.518H130.853L133.284 334.071H135.289L131.335 344.947C131.151 345.447 130.918 345.87 130.635 346.216C130.352 346.566 130.014 346.828 129.623 347.003C129.231 347.178 128.777 347.265 128.261 347.265ZM65.9839 351.872V364.667H64.2096L57.7061 355.283H57.5874V364.667H55.657V351.872H57.4437L63.9535 361.268H64.0722V351.872H65.9839ZM72.692 364.86C71.7924 364.86 71.0073 364.654 70.3368 364.242C69.6662 363.83 69.1456 363.253 68.7749 362.511C68.4042 361.77 68.2189 360.904 68.2189 359.912C68.2189 358.917 68.4042 358.047 68.7749 357.301C69.1456 356.556 69.6662 355.977 70.3368 355.564C71.0073 355.152 71.7924 354.946 72.692 354.946C73.5916 354.946 74.3767 355.152 75.0473 355.564C75.7178 355.977 76.2384 356.556 76.6091 357.301C76.9798 358.047 77.1651 358.917 77.1651 359.912C77.1651 360.904 76.9798 361.77 76.6091 362.511C76.2384 363.253 75.7178 363.83 75.0473 364.242C74.3767 364.654 73.5916 364.86 72.692 364.86ZM72.6983 363.292C73.2813 363.292 73.7645 363.138 74.1476 362.83C74.5308 362.522 74.814 362.112 74.9973 361.599C75.1847 361.087 75.2784 360.523 75.2784 359.906C75.2784 359.294 75.1847 358.732 74.9973 358.219C74.814 357.703 74.5308 357.289 74.1476 356.976C73.7645 356.664 73.2813 356.508 72.6983 356.508C72.111 356.508 71.6237 356.664 71.2364 356.976C70.8532 357.289 70.5679 357.703 70.3805 358.219C70.1972 358.732 70.1056 359.294 70.1056 359.906C70.1056 360.523 70.1972 361.087 70.3805 361.599C70.5679 362.112 70.8532 362.522 71.2364 362.83C71.6237 363.138 72.111 363.292 72.6983 363.292ZM83.7296 355.071V356.57H78.488V355.071H83.7296ZM79.8937 352.772H81.7616V361.849C81.7616 362.212 81.8158 362.484 81.9241 362.668C82.0324 362.847 82.1719 362.97 82.3426 363.036C82.5176 363.099 82.7071 363.13 82.9111 363.13C83.0611 363.13 83.1923 363.119 83.3047 363.099C83.4172 363.078 83.5046 363.061 83.5671 363.049L83.9045 364.592C83.7962 364.633 83.6421 364.675 83.4422 364.717C83.2423 364.763 82.9924 364.788 82.6925 364.792C82.201 364.8 81.7429 364.713 81.3181 364.529C80.8932 364.346 80.5496 364.063 80.2873 363.68C80.0249 363.296 79.8937 362.815 79.8937 362.237V352.772ZM85.7959 364.667V355.071H87.6638V364.667H85.7959ZM86.7392 353.59C86.4144 353.59 86.1353 353.482 85.9021 353.265C85.673 353.045 85.5585 352.782 85.5585 352.478C85.5585 352.17 85.673 351.908 85.9021 351.691C86.1353 351.47 86.4144 351.36 86.7392 351.36C87.0641 351.36 87.3411 351.47 87.5701 351.691C87.8034 351.908 87.92 352.17 87.92 352.478C87.92 352.782 87.8034 353.045 87.5701 353.265C87.3411 353.482 87.0641 353.59 86.7392 353.59ZM94.7437 355.071V356.57H89.3209V355.071H94.7437ZM90.8078 364.667V353.959C90.8078 353.359 90.939 352.861 91.2014 352.466C91.4638 352.066 91.8116 351.768 92.2447 351.572C92.6779 351.372 93.1485 351.272 93.6566 351.272C94.0315 351.272 94.3522 351.304 94.6187 351.366C94.8853 351.424 95.0831 351.479 95.2122 351.529L94.7749 353.04C94.6874 353.015 94.575 352.986 94.4375 352.953C94.3001 352.915 94.1335 352.897 93.9378 352.897C93.4838 352.897 93.1589 353.009 92.9632 353.234C92.7716 353.459 92.6758 353.784 92.6758 354.209V364.667H90.8078ZM96.671 364.667V355.071H98.5389V364.667H96.671ZM97.6143 353.59C97.2895 353.59 97.0104 353.482 96.7772 353.265C96.5481 353.045 96.4336 352.782 96.4336 352.478C96.4336 352.17 96.5481 351.908 96.7772 351.691C97.0104 351.47 97.2895 351.36 97.6143 351.36C97.9392 351.36 98.2162 351.47 98.4452 351.691C98.6785 351.908 98.7951 352.17 98.7951 352.478C98.7951 352.782 98.6785 353.045 98.4452 353.265C98.2162 353.482 97.9392 353.59 97.6143 353.59ZM105.094 364.86C104.165 364.86 103.366 364.65 102.695 364.229C102.029 363.805 101.516 363.219 101.158 362.474C100.8 361.728 100.621 360.875 100.621 359.912C100.621 358.938 100.804 358.078 101.171 357.332C101.537 356.583 102.054 355.997 102.72 355.577C103.386 355.156 104.171 354.946 105.075 354.946C105.804 354.946 106.454 355.081 107.024 355.352C107.595 355.618 108.055 355.993 108.405 356.476C108.759 356.96 108.969 357.524 109.036 358.169H107.218C107.118 357.72 106.889 357.332 106.531 357.007C106.177 356.683 105.702 356.52 105.106 356.52C104.586 356.52 104.13 356.658 103.738 356.933C103.351 357.203 103.049 357.591 102.832 358.095C102.616 358.594 102.508 359.186 102.508 359.869C102.508 360.568 102.614 361.172 102.826 361.681C103.039 362.189 103.338 362.582 103.726 362.861C104.117 363.14 104.578 363.28 105.106 363.28C105.461 363.28 105.781 363.215 106.069 363.086C106.36 362.953 106.604 362.763 106.8 362.518C106.999 362.272 107.139 361.976 107.218 361.631H109.036C108.969 362.251 108.767 362.805 108.43 363.292C108.093 363.78 107.641 364.163 107.074 364.442C106.512 364.721 105.852 364.86 105.094 364.86ZM113.826 364.879C113.218 364.879 112.668 364.767 112.177 364.542C111.685 364.313 111.296 363.982 111.009 363.548C110.725 363.115 110.584 362.584 110.584 361.955C110.584 361.414 110.688 360.968 110.896 360.618C111.104 360.269 111.386 359.992 111.74 359.788C112.094 359.583 112.489 359.429 112.927 359.325C113.364 359.221 113.81 359.142 114.264 359.088C114.838 359.021 115.305 358.967 115.663 358.925C116.021 358.88 116.281 358.807 116.444 358.707C116.606 358.607 116.688 358.444 116.688 358.219V358.176C116.688 357.63 116.533 357.207 116.225 356.908C115.921 356.608 115.467 356.458 114.863 356.458C114.234 356.458 113.739 356.597 113.376 356.876C113.018 357.151 112.77 357.457 112.633 357.795L110.877 357.395C111.086 356.812 111.39 356.341 111.79 355.983C112.194 355.621 112.658 355.358 113.183 355.196C113.708 355.029 114.259 354.946 114.838 354.946C115.221 354.946 115.628 354.992 116.057 355.083C116.49 355.171 116.894 355.333 117.269 355.571C117.648 355.808 117.958 356.147 118.199 356.589C118.441 357.026 118.562 357.595 118.562 358.294V364.667H116.738V363.355H116.663C116.542 363.596 116.361 363.834 116.119 364.067C115.877 364.3 115.567 364.494 115.188 364.648C114.809 364.802 114.355 364.879 113.826 364.879ZM114.232 363.38C114.749 363.38 115.19 363.278 115.557 363.074C115.927 362.87 116.209 362.603 116.4 362.274C116.596 361.941 116.694 361.585 116.694 361.206V359.969C116.627 360.035 116.498 360.098 116.306 360.156C116.119 360.21 115.905 360.258 115.663 360.3C115.421 360.337 115.186 360.373 114.957 360.406C114.728 360.435 114.536 360.46 114.382 360.481C114.02 360.527 113.689 360.604 113.389 360.712C113.093 360.82 112.856 360.977 112.677 361.181C112.502 361.381 112.414 361.647 112.414 361.98C112.414 362.443 112.585 362.793 112.927 363.03C113.268 363.263 113.703 363.38 114.232 363.38ZM125.529 355.071V356.57H120.288V355.071H125.529ZM121.693 352.772H123.561V361.849C123.561 362.212 123.615 362.484 123.724 362.668C123.832 362.847 123.971 362.97 124.142 363.036C124.317 363.099 124.507 363.13 124.711 363.13C124.861 363.13 124.992 363.119 125.104 363.099C125.217 363.078 125.304 363.061 125.367 363.049L125.704 364.592C125.596 364.633 125.442 364.675 125.242 364.717C125.042 364.763 124.792 364.788 124.492 364.792C124.001 364.8 123.542 364.713 123.118 364.529C122.693 364.346 122.349 364.063 122.087 363.68C121.824 363.296 121.693 362.815 121.693 362.237V352.772ZM127.595 364.667V355.071H129.463V364.667H127.595ZM128.539 353.59C128.214 353.59 127.935 353.482 127.702 353.265C127.473 353.045 127.358 352.782 127.358 352.478C127.358 352.17 127.473 351.908 127.702 351.691C127.935 351.47 128.214 351.36 128.539 351.36C128.864 351.36 129.141 351.47 129.37 351.691C129.603 351.908 129.72 352.17 129.72 352.478C129.72 352.782 129.603 353.045 129.37 353.265C129.141 353.482 128.864 353.59 128.539 353.59ZM136.018 364.86C135.119 364.86 134.334 364.654 133.663 364.242C132.993 363.83 132.472 363.253 132.101 362.511C131.731 361.77 131.545 360.904 131.545 359.912C131.545 358.917 131.731 358.047 132.101 357.301C132.472 356.556 132.993 355.977 133.663 355.564C134.334 355.152 135.119 354.946 136.018 354.946C136.918 354.946 137.703 355.152 138.374 355.564C139.044 355.977 139.565 356.556 139.936 357.301C140.306 358.047 140.492 358.917 140.492 359.912C140.492 360.904 140.306 361.77 139.936 362.511C139.565 363.253 139.044 363.83 138.374 364.242C137.703 364.654 136.918 364.86 136.018 364.86ZM136.025 363.292C136.608 363.292 137.091 363.138 137.474 362.83C137.857 362.522 138.14 362.112 138.324 361.599C138.511 361.087 138.605 360.523 138.605 359.906C138.605 359.294 138.511 358.732 138.324 358.219C138.14 357.703 137.857 357.289 137.474 356.976C137.091 356.664 136.608 356.508 136.025 356.508C135.437 356.508 134.95 356.664 134.563 356.976C134.18 357.289 133.894 357.703 133.707 358.219C133.524 358.732 133.432 359.294 133.432 359.906C133.432 360.523 133.524 361.087 133.707 361.599C133.894 362.112 134.18 362.522 134.563 362.83C134.95 363.138 135.437 363.292 136.025 363.292ZM144.445 358.969V364.667H142.577V355.071H144.37V356.633H144.488C144.709 356.125 145.055 355.716 145.525 355.408C146 355.1 146.598 354.946 147.318 354.946C147.972 354.946 148.545 355.083 149.036 355.358C149.528 355.629 149.909 356.033 150.18 356.57C150.45 357.107 150.586 357.772 150.586 358.563V364.667H148.718V358.788C148.718 358.092 148.537 357.549 148.174 357.157C147.812 356.762 147.314 356.564 146.681 356.564C146.248 356.564 145.863 356.658 145.525 356.845C145.192 357.032 144.928 357.307 144.732 357.67C144.54 358.028 144.445 358.461 144.445 358.969ZM160.282 357.414L158.589 357.713C158.518 357.497 158.405 357.291 158.251 357.095C158.101 356.899 157.897 356.739 157.639 356.614C157.381 356.489 157.058 356.426 156.671 356.426C156.142 356.426 155.7 356.545 155.346 356.783C154.992 357.016 154.815 357.318 154.815 357.688C154.815 358.009 154.934 358.267 155.171 358.463C155.409 358.659 155.792 358.819 156.321 358.944L157.845 359.294C158.728 359.498 159.386 359.813 159.819 360.237C160.253 360.662 160.469 361.214 160.469 361.893C160.469 362.468 160.303 362.98 159.969 363.43C159.64 363.875 159.18 364.225 158.589 364.479C158.001 364.733 157.32 364.86 156.546 364.86C155.471 364.86 154.595 364.631 153.916 364.173C153.237 363.711 152.82 363.055 152.666 362.205L154.472 361.93C154.584 362.401 154.815 362.757 155.165 362.999C155.515 363.236 155.971 363.355 156.533 363.355C157.146 363.355 157.635 363.228 158.001 362.974C158.368 362.715 158.551 362.401 158.551 362.03C158.551 361.73 158.439 361.479 158.214 361.274C157.993 361.07 157.654 360.916 157.195 360.812L155.571 360.456C154.676 360.252 154.014 359.927 153.585 359.481C153.16 359.036 152.947 358.471 152.947 357.788C152.947 357.222 153.106 356.726 153.422 356.302C153.739 355.877 154.176 355.546 154.734 355.308C155.292 355.067 155.931 354.946 156.652 354.946C157.689 354.946 158.505 355.171 159.101 355.621C159.697 356.066 160.09 356.664 160.282 357.414Z" fill="#212528"/>
</g>
<g filter="url(#filter2_d_386_317)">
<rect x="24.6343" y="101.481" width="351.852" height="133.704" rx="14.0741" fill="white" shape-rendering="crispEdges"/>
<rect x="25.0741" y="101.921" width="350.972" height="132.824" rx="13.6343" stroke="#212528" stroke-width="0.87963" shape-rendering="crispEdges"/>
<path d="M200.56 126.222C190.849 126.222 182.968 134.104 182.968 143.815C182.968 153.526 190.849 161.407 200.56 161.407C210.271 161.407 218.153 153.526 218.153 143.815C218.153 134.104 210.271 126.222 200.56 126.222ZM200.56 157.889C192.802 157.889 186.486 151.573 186.486 143.815C186.486 136.056 192.802 129.741 200.56 129.741C208.319 129.741 214.634 136.056 214.634 143.815C214.634 151.573 208.319 157.889 200.56 157.889ZM208.635 136.039L197.042 147.632L192.485 143.093L190.005 145.574L197.042 152.611L211.116 138.537L208.635 136.039Z" fill="#F2800D"/>
<path d="M183.847 176.168V188.963H181.91V178.105H181.835L178.774 180.104V178.255L181.966 176.168H183.847ZM191.762 189.175C190.775 189.171 189.932 188.911 189.232 188.394C188.532 187.878 187.997 187.126 187.627 186.139C187.256 185.152 187.071 183.963 187.071 182.572C187.071 181.185 187.256 180 187.627 179.017C188.001 178.034 188.539 177.284 189.238 176.768C189.942 176.252 190.784 175.993 191.762 175.993C192.741 175.993 193.58 176.254 194.28 176.774C194.98 177.291 195.515 178.04 195.886 179.023C196.26 180.002 196.448 181.185 196.448 182.572C196.448 183.967 196.263 185.158 195.892 186.145C195.521 187.128 194.986 187.88 194.286 188.401C193.587 188.917 192.745 189.175 191.762 189.175ZM191.762 187.507C192.629 187.507 193.305 187.085 193.793 186.239C194.284 185.394 194.53 184.171 194.53 182.572C194.53 181.51 194.417 180.612 194.193 179.879C193.972 179.142 193.653 178.584 193.237 178.205C192.824 177.822 192.333 177.63 191.762 177.63C190.9 177.63 190.223 178.055 189.732 178.905C189.24 179.754 188.993 180.977 188.989 182.572C188.989 183.638 189.099 184.54 189.32 185.277C189.545 186.01 189.863 186.566 190.275 186.945C190.688 187.32 191.183 187.507 191.762 187.507ZM203.119 189.175C202.131 189.171 201.288 188.911 200.588 188.394C199.889 187.878 199.353 187.126 198.983 186.139C198.612 185.152 198.427 183.963 198.427 182.572C198.427 181.185 198.612 180 198.983 179.017C199.358 178.034 199.895 177.284 200.595 176.768C201.298 176.252 202.14 175.993 203.119 175.993C204.097 175.993 204.936 176.254 205.636 176.774C206.336 177.291 206.871 178.04 207.242 179.023C207.617 180.002 207.804 181.185 207.804 182.572C207.804 183.967 207.619 185.158 207.248 186.145C206.877 187.128 206.342 187.88 205.642 188.401C204.943 188.917 204.101 189.175 203.119 189.175ZM203.119 187.507C203.985 187.507 204.662 187.085 205.149 186.239C205.64 185.394 205.886 184.171 205.886 182.572C205.886 181.51 205.774 180.612 205.549 179.879C205.328 179.142 205.009 178.584 204.593 178.205C204.181 177.822 203.689 177.63 203.119 177.63C202.256 177.63 201.58 178.055 201.088 178.905C200.597 179.754 200.349 180.977 200.345 182.572C200.345 183.638 200.455 184.54 200.676 185.277C200.901 186.01 201.219 186.566 201.632 186.945C202.044 187.32 202.54 187.507 203.119 187.507ZM216.699 186.564V185.889C216.699 185.406 216.799 184.965 216.999 184.565C217.203 184.161 217.498 183.838 217.886 183.596C218.277 183.351 218.75 183.228 219.304 183.228C219.87 183.228 220.345 183.349 220.728 183.59C221.111 183.832 221.401 184.154 221.597 184.558C221.797 184.962 221.897 185.406 221.897 185.889V186.564C221.897 187.047 221.797 187.491 221.597 187.895C221.397 188.294 221.103 188.617 220.716 188.863C220.333 189.104 219.862 189.225 219.304 189.225C218.742 189.225 218.267 189.104 217.879 188.863C217.492 188.617 217.199 188.294 216.999 187.895C216.799 187.491 216.699 187.047 216.699 186.564ZM218.154 185.889V186.564C218.154 186.922 218.24 187.247 218.41 187.538C218.581 187.83 218.879 187.976 219.304 187.976C219.725 187.976 220.018 187.83 220.185 187.538C220.351 187.247 220.435 186.922 220.435 186.564V185.889C220.435 185.531 220.353 185.206 220.191 184.915C220.033 184.623 219.737 184.477 219.304 184.477C218.887 184.477 218.592 184.623 218.417 184.915C218.242 185.206 218.154 185.531 218.154 185.889ZM210.264 179.242V178.567C210.264 178.084 210.364 177.641 210.564 177.237C210.768 176.833 211.064 176.51 211.451 176.268C211.842 176.027 212.315 175.906 212.869 175.906C213.436 175.906 213.91 176.027 214.293 176.268C214.677 176.51 214.966 176.833 215.162 177.237C215.358 177.641 215.455 178.084 215.455 178.567V179.242C215.455 179.725 215.356 180.169 215.156 180.573C214.96 180.973 214.668 181.295 214.281 181.541C213.898 181.783 213.427 181.903 212.869 181.903C212.303 181.903 211.826 181.783 211.438 181.541C211.055 181.295 210.764 180.973 210.564 180.573C210.364 180.169 210.264 179.725 210.264 179.242ZM211.726 178.567V179.242C211.726 179.6 211.809 179.925 211.976 180.217C212.146 180.508 212.444 180.654 212.869 180.654C213.286 180.654 213.577 180.508 213.744 180.217C213.914 179.925 214 179.6 214 179.242V178.567C214 178.209 213.919 177.884 213.756 177.593C213.594 177.301 213.298 177.155 212.869 177.155C212.453 177.155 212.157 177.301 211.982 177.593C211.811 177.884 211.726 178.209 211.726 178.567ZM210.857 188.963L219.654 176.168H221.147L212.351 188.963H210.857ZM165.027 209.963H162.978L167.582 197.168H169.812L174.417 209.963H172.367L168.75 199.492H168.65L165.027 209.963ZM165.37 204.953H172.018V206.577H165.37V204.953ZM180.002 210.157C179.073 210.157 178.273 209.946 177.603 209.526C176.936 209.101 176.424 208.516 176.066 207.77C175.708 207.025 175.529 206.171 175.529 205.209C175.529 204.234 175.712 203.374 176.078 202.628C176.445 201.879 176.961 201.294 177.628 200.873C178.294 200.452 179.079 200.242 179.983 200.242C180.712 200.242 181.362 200.377 181.932 200.648C182.503 200.915 182.963 201.289 183.313 201.773C183.667 202.256 183.877 202.82 183.944 203.466H182.126C182.026 203.016 181.797 202.628 181.439 202.304C181.085 201.979 180.61 201.816 180.014 201.816C179.494 201.816 179.038 201.954 178.646 202.229C178.259 202.499 177.957 202.887 177.74 203.391C177.524 203.89 177.415 204.482 177.415 205.165C177.415 205.865 177.521 206.469 177.734 206.977C177.946 207.485 178.246 207.878 178.634 208.157C179.025 208.436 179.485 208.576 180.014 208.576C180.368 208.576 180.689 208.511 180.976 208.382C181.268 208.249 181.511 208.06 181.707 207.814C181.907 207.568 182.047 207.272 182.126 206.927H183.944C183.877 207.547 183.675 208.101 183.338 208.588C183 209.076 182.549 209.459 181.982 209.738C181.42 210.017 180.76 210.157 180.002 210.157ZM189.983 210.157C189.055 210.157 188.255 209.946 187.584 209.526C186.918 209.101 186.406 208.516 186.048 207.77C185.689 207.025 185.51 206.171 185.51 205.209C185.51 204.234 185.694 203.374 186.06 202.628C186.427 201.879 186.943 201.294 187.609 200.873C188.276 200.452 189.061 200.242 189.965 200.242C190.694 200.242 191.343 200.377 191.914 200.648C192.484 200.915 192.945 201.289 193.295 201.773C193.649 202.256 193.859 202.82 193.925 203.466H192.108C192.008 203.016 191.778 202.628 191.42 202.304C191.066 201.979 190.591 201.816 189.996 201.816C189.475 201.816 189.019 201.954 188.628 202.229C188.24 202.499 187.938 202.887 187.722 203.391C187.505 203.89 187.397 204.482 187.397 205.165C187.397 205.865 187.503 206.469 187.716 206.977C187.928 207.485 188.228 207.878 188.615 208.157C189.007 208.436 189.467 208.576 189.996 208.576C190.35 208.576 190.671 208.511 190.958 208.382C191.25 208.249 191.493 208.06 191.689 207.814C191.889 207.568 192.028 207.272 192.108 206.927H193.925C193.859 207.547 193.657 208.101 193.32 208.588C192.982 209.076 192.53 209.459 191.964 209.738C191.402 210.017 190.741 210.157 189.983 210.157ZM202.002 205.983V200.367H203.876V209.963H202.039V208.301H201.939C201.719 208.813 201.365 209.24 200.877 209.582C200.394 209.919 199.792 210.088 199.072 210.088C198.455 210.088 197.91 209.952 197.435 209.682C196.964 209.407 196.594 209.001 196.323 208.464C196.056 207.926 195.923 207.262 195.923 206.471V200.367H197.791V206.246C197.791 206.9 197.972 207.42 198.335 207.808C198.697 208.195 199.168 208.389 199.747 208.389C200.096 208.389 200.444 208.301 200.79 208.126C201.14 207.951 201.429 207.687 201.658 207.333C201.891 206.979 202.006 206.529 202.002 205.983ZM206.386 209.963V200.367H208.191V201.891H208.291C208.466 201.375 208.774 200.969 209.216 200.673C209.662 200.373 210.166 200.223 210.728 200.223C210.844 200.223 210.982 200.227 211.14 200.236C211.303 200.244 211.43 200.254 211.521 200.267V202.054C211.446 202.033 211.313 202.01 211.121 201.985C210.93 201.956 210.738 201.941 210.547 201.941C210.105 201.941 209.712 202.035 209.366 202.222C209.024 202.406 208.754 202.662 208.554 202.991C208.354 203.316 208.254 203.686 208.254 204.103V209.963H206.386ZM215.844 210.175C215.236 210.175 214.687 210.063 214.195 209.838C213.704 209.609 213.314 209.278 213.027 208.845C212.744 208.411 212.602 207.88 212.602 207.252C212.602 206.71 212.706 206.264 212.914 205.915C213.123 205.565 213.404 205.288 213.758 205.084C214.112 204.88 214.507 204.726 214.945 204.621C215.382 204.517 215.828 204.438 216.282 204.384C216.856 204.317 217.323 204.263 217.681 204.222C218.039 204.176 218.3 204.103 218.462 204.003C218.624 203.903 218.706 203.741 218.706 203.516V203.472C218.706 202.926 218.552 202.504 218.243 202.204C217.939 201.904 217.485 201.754 216.881 201.754C216.253 201.754 215.757 201.893 215.395 202.172C215.036 202.447 214.789 202.753 214.651 203.091L212.896 202.691C213.104 202.108 213.408 201.637 213.808 201.279C214.212 200.917 214.676 200.654 215.201 200.492C215.726 200.325 216.278 200.242 216.856 200.242C217.24 200.242 217.646 200.288 218.075 200.379C218.508 200.467 218.912 200.629 219.287 200.867C219.666 201.104 219.976 201.444 220.218 201.885C220.459 202.322 220.58 202.891 220.58 203.591V209.963H218.756V208.651H218.681C218.56 208.893 218.379 209.13 218.137 209.363C217.896 209.596 217.585 209.79 217.206 209.944C216.827 210.098 216.373 210.175 215.844 210.175ZM216.25 208.676C216.767 208.676 217.208 208.574 217.575 208.37C217.946 208.166 218.227 207.899 218.418 207.57C218.614 207.237 218.712 206.881 218.712 206.502V205.265C218.645 205.332 218.516 205.394 218.325 205.452C218.137 205.506 217.923 205.554 217.681 205.596C217.44 205.633 217.204 205.669 216.975 205.702C216.746 205.731 216.555 205.756 216.4 205.777C216.038 205.823 215.707 205.9 215.407 206.008C215.111 206.117 214.874 206.273 214.695 206.477C214.52 206.677 214.433 206.943 214.433 207.277C214.433 207.739 214.603 208.089 214.945 208.326C215.286 208.559 215.722 208.676 216.25 208.676ZM227.547 200.367V201.866H222.306V200.367H227.547ZM223.711 198.068H225.579V207.145C225.579 207.508 225.634 207.78 225.742 207.964C225.85 208.143 225.99 208.266 226.16 208.332C226.335 208.395 226.525 208.426 226.729 208.426C226.879 208.426 227.01 208.416 227.122 208.395C227.235 208.374 227.322 208.357 227.385 208.345L227.722 209.888C227.614 209.93 227.46 209.971 227.26 210.013C227.06 210.059 226.81 210.084 226.51 210.088C226.019 210.096 225.561 210.009 225.136 209.825C224.711 209.642 224.367 209.359 224.105 208.976C223.843 208.593 223.711 208.112 223.711 207.533V198.068ZM233.646 210.157C232.701 210.157 231.887 209.955 231.204 209.551C230.525 209.142 230 208.57 229.629 207.833C229.263 207.091 229.079 206.223 229.079 205.227C229.079 204.244 229.263 203.378 229.629 202.628C230 201.879 230.516 201.294 231.179 200.873C231.845 200.452 232.624 200.242 233.515 200.242C234.057 200.242 234.581 200.332 235.089 200.511C235.598 200.69 236.054 200.971 236.458 201.354C236.862 201.737 237.18 202.235 237.413 202.847C237.647 203.455 237.763 204.194 237.763 205.065V205.727H230.135V204.328H235.933C235.933 203.836 235.833 203.401 235.633 203.022C235.433 202.639 235.152 202.337 234.79 202.116C234.431 201.895 234.011 201.785 233.528 201.785C233.003 201.785 232.545 201.914 232.153 202.172C231.766 202.426 231.466 202.76 231.254 203.172C231.045 203.58 230.941 204.024 230.941 204.503V205.596C230.941 206.237 231.054 206.783 231.279 207.233C231.508 207.683 231.826 208.026 232.234 208.264C232.643 208.497 233.119 208.613 233.665 208.613C234.019 208.613 234.342 208.563 234.633 208.464C234.925 208.359 235.177 208.205 235.389 208.001C235.602 207.797 235.764 207.545 235.877 207.245L237.645 207.564C237.503 208.085 237.249 208.541 236.882 208.932C236.52 209.319 236.064 209.621 235.514 209.838C234.969 210.05 234.346 210.157 233.646 210.157Z" fill="#212528"/>
</g>
<g filter="url(#filter3_d_386_317)">
<rect x="211.556" y="256.296" width="165.37" height="133.481" rx="14.0741" fill="white" shape-rendering="crispEdges"/>
<rect x="211.995" y="256.736" width="164.491" height="132.602" rx="13.6343" stroke="#212528" stroke-width="0.87963" shape-rendering="crispEdges"/>
<path d="M294.241 280.926L280.167 286.204V296.918C280.167 305.802 286.166 314.088 294.241 316.111C302.316 314.088 308.315 305.802 308.315 296.918V286.204L294.241 280.926ZM304.796 296.918C304.796 303.955 300.31 310.464 294.241 312.452C288.171 310.464 283.685 303.972 283.685 296.918V288.508L294.241 284.779L304.796 288.508V296.918ZM288.646 296.038L286.148 298.519L292.376 304.746L302.333 294.789L299.853 292.308L292.393 299.768L288.646 296.038Z" fill="#0080FF"/>
<path d="M265.155 334.233C265.088 333.642 264.813 333.184 264.33 332.859C263.847 332.53 263.239 332.365 262.506 332.365C261.981 332.365 261.527 332.449 261.144 332.615C260.761 332.778 260.463 333.002 260.25 333.29C260.042 333.573 259.938 333.896 259.938 334.258C259.938 334.562 260.009 334.825 260.15 335.045C260.296 335.266 260.486 335.451 260.719 335.601C260.956 335.747 261.21 335.87 261.481 335.97C261.752 336.066 262.012 336.145 262.262 336.207L263.511 336.532C263.92 336.632 264.338 336.768 264.767 336.938C265.196 337.109 265.594 337.334 265.96 337.613C266.327 337.892 266.623 338.238 266.848 338.65C267.077 339.062 267.191 339.556 267.191 340.131C267.191 340.855 267.004 341.499 266.629 342.061C266.258 342.623 265.719 343.067 265.011 343.392C264.307 343.717 263.455 343.879 262.456 343.879C261.498 343.879 260.669 343.727 259.969 343.423C259.27 343.119 258.722 342.688 258.326 342.13C257.93 341.568 257.712 340.901 257.67 340.131H259.607C259.644 340.593 259.794 340.978 260.057 341.287C260.323 341.591 260.663 341.818 261.075 341.967C261.491 342.113 261.948 342.186 262.443 342.186C262.989 342.186 263.474 342.101 263.899 341.93C264.328 341.755 264.665 341.513 264.911 341.205C265.157 340.893 265.279 340.528 265.279 340.112C265.279 339.733 265.171 339.423 264.955 339.181C264.742 338.94 264.453 338.74 264.086 338.581C263.724 338.423 263.314 338.284 262.856 338.163L261.344 337.75C260.319 337.471 259.507 337.061 258.907 336.52C258.312 335.978 258.014 335.262 258.014 334.371C258.014 333.633 258.214 332.99 258.614 332.44C259.013 331.89 259.555 331.464 260.238 331.16C260.921 330.851 261.691 330.697 262.549 330.697C263.416 330.697 264.18 330.849 264.842 331.153C265.509 331.457 266.033 331.876 266.417 332.409C266.8 332.938 267 333.546 267.016 334.233H265.155ZM273.484 343.86C272.538 343.86 271.724 343.658 271.041 343.254C270.362 342.846 269.837 342.274 269.467 341.536C269.1 340.795 268.917 339.927 268.917 338.931C268.917 337.948 269.1 337.082 269.467 336.332C269.837 335.583 270.354 334.997 271.016 334.577C271.683 334.156 272.461 333.946 273.353 333.946C273.894 333.946 274.419 334.035 274.927 334.214C275.435 334.394 275.891 334.675 276.295 335.058C276.699 335.441 277.018 335.939 277.251 336.551C277.484 337.159 277.601 337.898 277.601 338.769V339.431H269.973V338.032H275.77C275.77 337.54 275.67 337.105 275.471 336.726C275.271 336.343 274.989 336.041 274.627 335.82C274.269 335.599 273.848 335.489 273.365 335.489C272.84 335.489 272.382 335.618 271.991 335.876C271.603 336.13 271.304 336.464 271.091 336.876C270.883 337.284 270.779 337.728 270.779 338.207V339.3C270.779 339.941 270.891 340.487 271.116 340.937C271.345 341.386 271.664 341.73 272.072 341.967C272.48 342.201 272.957 342.317 273.503 342.317C273.857 342.317 274.179 342.267 274.471 342.167C274.762 342.063 275.014 341.909 275.227 341.705C275.439 341.501 275.602 341.249 275.714 340.949L277.482 341.268C277.341 341.788 277.086 342.244 276.72 342.636C276.358 343.023 275.902 343.325 275.352 343.542C274.806 343.754 274.184 343.86 273.484 343.86ZM283.715 343.86C282.787 343.86 281.987 343.65 281.316 343.229C280.65 342.805 280.138 342.219 279.78 341.474C279.421 340.728 279.242 339.875 279.242 338.912C279.242 337.938 279.426 337.078 279.792 336.332C280.159 335.583 280.675 334.997 281.341 334.577C282.008 334.156 282.793 333.946 283.697 333.946C284.426 333.946 285.075 334.081 285.646 334.352C286.217 334.618 286.677 334.993 287.027 335.476C287.381 335.96 287.591 336.524 287.658 337.169H285.84C285.74 336.72 285.511 336.332 285.152 336.007C284.798 335.683 284.324 335.52 283.728 335.52C283.207 335.52 282.751 335.658 282.36 335.933C281.972 336.203 281.67 336.591 281.454 337.095C281.237 337.594 281.129 338.186 281.129 338.869C281.129 339.568 281.235 340.172 281.448 340.681C281.66 341.189 281.96 341.582 282.347 341.861C282.739 342.14 283.199 342.28 283.728 342.28C284.082 342.28 284.403 342.215 284.69 342.086C284.982 341.953 285.225 341.763 285.421 341.518C285.621 341.272 285.76 340.976 285.84 340.631H287.658C287.591 341.251 287.389 341.805 287.052 342.292C286.714 342.78 286.262 343.163 285.696 343.442C285.134 343.721 284.473 343.86 283.715 343.86ZM295.734 339.687V334.071H297.608V343.667H295.771V342.005H295.671C295.451 342.517 295.097 342.944 294.609 343.286C294.126 343.623 293.524 343.792 292.804 343.792C292.187 343.792 291.642 343.656 291.167 343.386C290.696 343.111 290.326 342.705 290.055 342.167C289.788 341.63 289.655 340.966 289.655 340.174V334.071H291.523V339.95C291.523 340.603 291.704 341.124 292.067 341.511C292.429 341.899 292.9 342.092 293.479 342.092C293.828 342.092 294.176 342.005 294.522 341.83C294.872 341.655 295.161 341.391 295.39 341.037C295.623 340.683 295.738 340.233 295.734 339.687ZM300.118 343.667V334.071H301.923V335.595H302.023C302.198 335.079 302.507 334.673 302.948 334.377C303.394 334.077 303.898 333.927 304.46 333.927C304.576 333.927 304.714 333.931 304.872 333.94C305.035 333.948 305.162 333.958 305.253 333.971V335.758C305.178 335.737 305.045 335.714 304.853 335.689C304.662 335.66 304.47 335.645 304.279 335.645C303.837 335.645 303.444 335.739 303.098 335.926C302.756 336.11 302.486 336.366 302.286 336.695C302.086 337.02 301.986 337.39 301.986 337.807V343.667H300.118ZM310.662 343.86C309.716 343.86 308.902 343.658 308.219 343.254C307.54 342.846 307.016 342.274 306.645 341.536C306.278 340.795 306.095 339.927 306.095 338.931C306.095 337.948 306.278 337.082 306.645 336.332C307.016 335.583 307.532 334.997 308.194 334.577C308.861 334.156 309.639 333.946 310.531 333.946C311.072 333.946 311.597 334.035 312.105 334.214C312.613 334.394 313.069 334.675 313.473 335.058C313.877 335.441 314.196 335.939 314.429 336.551C314.662 337.159 314.779 337.898 314.779 338.769V339.431H307.151V338.032H312.948C312.948 337.54 312.849 337.105 312.649 336.726C312.449 336.343 312.168 336.041 311.805 335.82C311.447 335.599 311.026 335.489 310.543 335.489C310.018 335.489 309.56 335.618 309.169 335.876C308.781 336.13 308.482 336.464 308.269 336.876C308.061 337.284 307.957 337.728 307.957 338.207V339.3C307.957 339.941 308.069 340.487 308.294 340.937C308.523 341.386 308.842 341.73 309.25 341.967C309.658 342.201 310.135 342.317 310.681 342.317C311.035 342.317 311.357 342.267 311.649 342.167C311.941 342.063 312.193 341.909 312.405 341.705C312.617 341.501 312.78 341.249 312.892 340.949L314.66 341.268C314.519 341.788 314.265 342.244 313.898 342.636C313.536 343.023 313.08 343.325 312.53 343.542C311.984 343.754 311.362 343.86 310.662 343.86ZM325.231 343.848C324.373 343.848 323.634 343.692 323.013 343.379C322.397 343.067 321.922 342.642 321.589 342.105C321.255 341.563 321.089 340.951 321.089 340.268C321.089 339.748 321.197 339.285 321.414 338.881C321.63 338.473 321.932 338.096 322.32 337.75C322.707 337.405 323.155 337.057 323.663 336.707L325.724 335.252C326.074 335.022 326.347 334.781 326.543 334.527C326.738 334.269 326.836 333.95 326.836 333.571C326.836 333.271 326.707 332.984 326.449 332.709C326.191 332.434 325.845 332.297 325.412 332.297C325.112 332.297 324.848 332.369 324.619 332.515C324.394 332.661 324.217 332.848 324.088 333.077C323.963 333.302 323.9 333.54 323.9 333.79C323.9 334.081 323.979 334.375 324.138 334.671C324.3 334.966 324.508 335.272 324.762 335.589C325.016 335.901 325.283 336.226 325.562 336.563L331.503 343.667H329.392L324.475 337.888C324.063 337.401 323.679 336.942 323.325 336.514C322.971 336.08 322.684 335.643 322.463 335.202C322.247 334.756 322.138 334.275 322.138 333.758C322.138 333.171 322.272 332.651 322.538 332.197C322.809 331.738 323.186 331.38 323.669 331.122C324.152 330.864 324.719 330.735 325.368 330.735C326.026 330.735 326.591 330.864 327.061 331.122C327.536 331.376 327.901 331.716 328.155 332.14C328.413 332.561 328.542 333.021 328.542 333.521C328.542 334.129 328.39 334.666 328.086 335.133C327.786 335.595 327.372 336.02 326.843 336.407L324.275 338.3C323.775 338.667 323.427 339.029 323.232 339.387C323.04 339.741 322.944 340.018 322.944 340.218C322.944 340.585 323.038 340.924 323.225 341.237C323.417 341.549 323.684 341.799 324.025 341.986C324.371 342.174 324.775 342.267 325.237 342.267C325.712 342.267 326.174 342.165 326.624 341.961C327.078 341.753 327.488 341.455 327.855 341.068C328.225 340.681 328.519 340.216 328.736 339.675C328.952 339.133 329.06 338.527 329.06 337.857H330.747C330.747 338.681 330.654 339.379 330.466 339.95C330.279 340.516 330.052 340.978 329.785 341.336C329.523 341.69 329.275 341.967 329.042 342.167C328.967 342.234 328.896 342.301 328.829 342.367C328.763 342.434 328.692 342.501 328.617 342.567C328.184 343.005 327.659 343.327 327.043 343.536C326.43 343.744 325.826 343.848 325.231 343.848ZM262.626 364.667V351.872H267.186C268.178 351.872 269 352.043 269.654 352.384C270.312 352.726 270.804 353.199 271.129 353.803C271.453 354.402 271.616 355.096 271.616 355.883C271.616 356.666 271.451 357.355 271.122 357.951C270.797 358.542 270.306 359.002 269.648 359.331C268.994 359.661 268.171 359.825 267.18 359.825H263.725V358.163H267.005C267.63 358.163 268.138 358.074 268.53 357.895C268.925 357.716 269.215 357.455 269.398 357.114C269.581 356.772 269.673 356.362 269.673 355.883C269.673 355.4 269.579 354.981 269.392 354.627C269.209 354.273 268.919 354.002 268.523 353.815C268.132 353.623 267.618 353.528 266.98 353.528H264.556V364.667H262.626ZM268.942 358.894L272.103 364.667H269.904L266.805 358.894H268.942ZM277.83 364.86C276.885 364.86 276.071 364.658 275.388 364.254C274.709 363.846 274.184 363.274 273.813 362.536C273.447 361.795 273.264 360.927 273.264 359.931C273.264 358.948 273.447 358.082 273.813 357.332C274.184 356.583 274.701 355.997 275.363 355.577C276.029 355.156 276.808 354.946 277.699 354.946C278.241 354.946 278.765 355.035 279.274 355.214C279.782 355.394 280.238 355.675 280.642 356.058C281.046 356.441 281.364 356.939 281.598 357.551C281.831 358.159 281.947 358.898 281.947 359.769V360.431H274.319V359.032H280.117C280.117 358.54 280.017 358.105 279.817 357.726C279.617 357.343 279.336 357.041 278.974 356.82C278.616 356.599 278.195 356.489 277.712 356.489C277.187 356.489 276.729 356.618 276.337 356.876C275.95 357.13 275.65 357.464 275.438 357.876C275.229 358.284 275.125 358.728 275.125 359.207V360.3C275.125 360.941 275.238 361.487 275.463 361.937C275.692 362.386 276.01 362.73 276.419 362.967C276.827 363.201 277.304 363.317 277.849 363.317C278.203 363.317 278.526 363.267 278.818 363.167C279.109 363.063 279.361 362.909 279.573 362.705C279.786 362.501 279.948 362.249 280.061 361.949L281.829 362.268C281.687 362.788 281.433 363.244 281.067 363.636C280.704 364.023 280.248 364.325 279.698 364.542C279.153 364.754 278.53 364.86 277.83 364.86ZM285.888 351.872V364.667H284.02V351.872H285.888ZM288.401 364.667V355.071H290.269V364.667H288.401ZM289.344 353.59C289.019 353.59 288.74 353.482 288.507 353.265C288.278 353.045 288.164 352.782 288.164 352.478C288.164 352.17 288.278 351.908 288.507 351.691C288.74 351.47 289.019 351.36 289.344 351.36C289.669 351.36 289.946 351.47 290.175 351.691C290.408 351.908 290.525 352.17 290.525 352.478C290.525 352.782 290.408 353.045 290.175 353.265C289.946 353.482 289.669 353.59 289.344 353.59ZM295.575 364.879C294.966 364.879 294.417 364.767 293.925 364.542C293.434 364.313 293.044 363.982 292.757 363.548C292.474 363.115 292.332 362.584 292.332 361.955C292.332 361.414 292.436 360.968 292.645 360.618C292.853 360.269 293.134 359.992 293.488 359.788C293.842 359.583 294.238 359.429 294.675 359.325C295.112 359.221 295.558 359.142 296.012 359.088C296.587 359.021 297.053 358.967 297.411 358.925C297.769 358.88 298.03 358.807 298.192 358.707C298.355 358.607 298.436 358.444 298.436 358.219V358.176C298.436 357.63 298.282 357.207 297.974 356.908C297.669 356.608 297.216 356.458 296.612 356.458C295.983 356.458 295.487 356.597 295.125 356.876C294.767 357.151 294.519 357.457 294.381 357.795L292.626 357.395C292.834 356.812 293.138 356.341 293.538 355.983C293.942 355.621 294.406 355.358 294.931 355.196C295.456 355.029 296.008 354.946 296.587 354.946C296.97 354.946 297.376 354.992 297.805 355.083C298.238 355.171 298.642 355.333 299.017 355.571C299.396 355.808 299.706 356.147 299.948 356.589C300.189 357.026 300.31 357.595 300.31 358.294V364.667H298.486V363.355H298.411C298.29 363.596 298.109 363.834 297.867 364.067C297.626 364.3 297.315 364.494 296.936 364.648C296.557 364.802 296.103 364.879 295.575 364.879ZM295.981 363.38C296.497 363.38 296.939 363.278 297.305 363.074C297.676 362.87 297.957 362.603 298.148 362.274C298.344 361.941 298.442 361.585 298.442 361.206V359.969C298.375 360.035 298.246 360.098 298.055 360.156C297.867 360.21 297.653 360.258 297.411 360.3C297.17 360.337 296.934 360.373 296.705 360.406C296.476 360.435 296.285 360.46 296.131 360.481C295.768 360.527 295.437 360.604 295.137 360.712C294.842 360.82 294.604 360.977 294.425 361.181C294.25 361.381 294.163 361.647 294.163 361.98C294.163 362.443 294.333 362.793 294.675 363.03C295.016 363.263 295.452 363.38 295.981 363.38ZM302.948 364.667V351.872H304.816V356.626H304.928C305.037 356.426 305.193 356.195 305.397 355.933C305.601 355.671 305.884 355.441 306.247 355.246C306.609 355.046 307.088 354.946 307.683 354.946C308.458 354.946 309.15 355.142 309.758 355.533C310.366 355.925 310.843 356.489 311.188 357.226C311.538 357.963 311.713 358.85 311.713 359.888C311.713 360.925 311.54 361.814 311.195 362.555C310.849 363.292 310.374 363.861 309.77 364.261C309.166 364.656 308.477 364.854 307.702 364.854C307.119 364.854 306.642 364.756 306.272 364.561C305.905 364.365 305.618 364.136 305.409 363.873C305.201 363.611 305.041 363.378 304.928 363.174H304.772V364.667H302.948ZM304.778 359.869C304.778 360.543 304.876 361.135 305.072 361.643C305.268 362.151 305.551 362.549 305.922 362.836C306.292 363.119 306.746 363.261 307.284 363.261C307.842 363.261 308.308 363.113 308.683 362.818C309.058 362.518 309.341 362.112 309.533 361.599C309.728 361.087 309.826 360.51 309.826 359.869C309.826 359.236 309.731 358.667 309.539 358.163C309.352 357.659 309.068 357.262 308.689 356.97C308.314 356.678 307.846 356.533 307.284 356.533C306.742 356.533 306.284 356.672 305.909 356.951C305.539 357.23 305.257 357.62 305.066 358.12C304.874 358.619 304.778 359.202 304.778 359.869ZM315.679 351.872V364.667H313.811V351.872H315.679ZM322.327 364.86C321.382 364.86 320.568 364.658 319.885 364.254C319.206 363.846 318.681 363.274 318.31 362.536C317.944 361.795 317.761 360.927 317.761 359.931C317.761 358.948 317.944 358.082 318.31 357.332C318.681 356.583 319.197 355.997 319.86 355.577C320.526 355.156 321.305 354.946 322.196 354.946C322.738 354.946 323.262 355.035 323.77 355.214C324.279 355.394 324.735 355.675 325.139 356.058C325.543 356.441 325.861 356.939 326.094 357.551C326.328 358.159 326.444 358.898 326.444 359.769V360.431H318.816V359.032H324.614C324.614 358.54 324.514 358.105 324.314 357.726C324.114 357.343 323.833 357.041 323.471 356.82C323.112 356.599 322.692 356.489 322.209 356.489C321.684 356.489 321.226 356.618 320.834 356.876C320.447 357.13 320.147 357.464 319.935 357.876C319.726 358.284 319.622 358.728 319.622 359.207V360.3C319.622 360.941 319.735 361.487 319.96 361.937C320.189 362.386 320.507 362.73 320.915 362.967C321.324 363.201 321.8 363.317 322.346 363.317C322.7 363.317 323.023 363.267 323.314 363.167C323.606 363.063 323.858 362.909 324.07 362.705C324.283 362.501 324.445 362.249 324.558 361.949L326.326 362.268C326.184 362.788 325.93 363.244 325.563 363.636C325.201 364.023 324.745 364.325 324.195 364.542C323.65 364.754 323.027 364.86 322.327 364.86Z" fill="#212528"/>
</g>
<defs>
<filter id="filter0_d_386_317" x="25.0741" y="10" width="355.37" height="73.8889" filterUnits="userSpaceOnUse" color-interpolation-filters="sRGB">
<feFlood flood-opacity="0" result="BackgroundImageFix"/>
<feColorMatrix in="SourceAlpha" type="matrix" values="0 0 0 0 0 0 0 0 0 0 0 0 0 0 0 0 0 0 127 0" result="hardAlpha"/>
<feOffset dx="3.51852" dy="3.51852"/>
<feComposite in2="hardAlpha" operator="out"/>
<feColorMatrix type="matrix" values="0 0 0 0 0.690435 0 0 0 0 0.909565 0 0 0 0 0.713043 0 0 0 1 0"/>
<feBlend mode="normal" in2="BackgroundImageFix" result="effect1_dropShadow_386_317"/>
<feBlend mode="normal" in="SourceGraphic" in2="effect1_dropShadow_386_317" result="shape"/>
</filter>
<filter id="filter1_d_386_317" x="25.0741" y="256.296" width="168.889" height="137" filterUnits="userSpaceOnUse" color-interpolation-filters="sRGB">
<feFlood flood-opacity="0" result="BackgroundImageFix"/>
<feColorMatrix in="SourceAlpha" type="matrix" values="0 0 0 0 0 0 0 0 0 0 0 0 0 0 0 0 0 0 127 0" result="hardAlpha"/>
<feOffset dx="3.51852" dy="3.51852"/>
<feComposite in2="hardAlpha" operator="out"/>
<feColorMatrix type="matrix" values="0 0 0 0 0.932432 0 0 0 0 0.842378 0 0 0 0 0.667568 0 0 0 1 0"/>
<feBlend mode="normal" in2="BackgroundImageFix" result="effect1_dropShadow_386_317"/>
<feBlend mode="normal" in="SourceGraphic" in2="effect1_dropShadow_386_317" result="shape"/>
</filter>
<filter id="filter2_d_386_317" x="24.6343" y="101.481" width="355.37" height="137.222" filterUnits="userSpaceOnUse" color-interpolation-filters="sRGB">
<feFlood flood-opacity="0" result="BackgroundImageFix"/>
<feColorMatrix in="SourceAlpha" type="matrix" values="0 0 0 0 0 0 0 0 0 0 0 0 0 0 0 0 0 0 127 0" result="hardAlpha"/>
<feOffset dx="3.51852" dy="3.51852"/>
<feComposite in2="hardAlpha" operator="out"/>
<feColorMatrix type="matrix" values="0 0 0 0 0.932432 0 0 0 0 0.842378 0 0 0 0 0.667568 0 0 0 1 0"/>
<feBlend mode="normal" in2="BackgroundImageFix" result="effect1_dropShadow_386_317"/>
<feBlend mode="normal" in="SourceGraphic" in2="effect1_dropShadow_386_317" result="shape"/>
</filter>
<filter id="filter3_d_386_317" x="211.556" y="256.296" width="168.889" height="137" filterUnits="userSpaceOnUse" color-interpolation-filters="sRGB">
<feFlood flood-opacity="0" result="BackgroundImageFix"/>
<feColorMatrix in="SourceAlpha" type="matrix" values="0 0 0 0 0 0 0 0 0 0 0 0 0 0 0 0 0 0 127 0" result="hardAlpha"/>
<feOffset dx="3.51852" dy="3.51852"/>
<feComposite in2="hardAlpha" operator="out"/>
<feColorMatrix type="matrix" values="0 0 0 0 0.667568 0 0 0 0 0.8 0 0 0 0 0.932432 0 0 0 1 0"/>
<feBlend mode="normal" in2="BackgroundImageFix" result="effect1_dropShadow_386_317"/>
<feBlend mode="normal" in="SourceGraphic" in2="effect1_dropShadow_386_317" result="shape"/>
</filter>
</defs>
</svg>
