<svg width="401" height="400" viewBox="0 0 401 400" fill="none" xmlns="http://www.w3.org/2000/svg">
<g filter="url(#filter0_d_386_282)">
<rect x="25" y="10" width="351.852" height="70.3704" rx="14.0741" fill="white" shape-rendering="crispEdges"/>
<rect x="25.4398" y="10.4398" width="350.972" height="69.4907" rx="13.6343" stroke="#212528" stroke-width="0.87963" shape-rendering="crispEdges"/>
<path d="M120.231 55.1852V35.9933H131.739V38.0549H122.555V44.5397H130.877V46.6013H122.555V55.1852H120.231ZM135.42 55.1852V40.7912H137.631V55.1852H135.42ZM136.544 38.3923C136.113 38.3923 135.741 38.2454 135.429 37.9518C135.123 37.6582 134.97 37.3052 134.97 36.8929C134.97 36.4806 135.123 36.1276 135.429 35.834C135.741 35.5403 136.113 35.3935 136.544 35.3935C136.975 35.3935 137.344 35.5403 137.65 35.834C137.962 36.1276 138.118 36.4806 138.118 36.8929C138.118 37.3052 137.962 37.6582 137.65 37.9518C137.344 38.2454 136.975 38.3923 136.544 38.3923ZM143.893 35.9933V55.1852H141.682V35.9933H143.893ZM153.979 55.4851C152.592 55.4851 151.396 55.1789 150.39 54.5667C149.39 53.9482 148.619 53.0861 148.075 51.9803C147.538 50.8682 147.269 49.575 147.269 48.1007C147.269 46.6263 147.538 45.3268 148.075 44.2023C148.619 43.0715 149.375 42.1907 150.343 41.5597C151.318 40.9224 152.455 40.6038 153.754 40.6038C154.504 40.6038 155.244 40.7288 155.975 40.9787C156.706 41.2286 157.371 41.6346 157.971 42.1969C158.571 42.7529 159.049 43.4901 159.405 44.4085C159.761 45.3268 159.939 46.4576 159.939 47.8008V48.7379H148.844V46.8262H157.69C157.69 46.014 157.527 45.2893 157.203 44.6521C156.884 44.0149 156.428 43.512 155.834 43.1434C155.247 42.7748 154.554 42.5905 153.754 42.5905C152.873 42.5905 152.111 42.8091 151.467 43.2465C150.83 43.6775 150.34 44.2398 149.996 44.9332C149.653 45.6267 149.481 46.3701 149.481 47.1636V48.438C149.481 49.5251 149.668 50.4466 150.043 51.2025C150.424 51.9522 150.952 52.5238 151.627 52.9174C152.302 53.3047 153.086 53.4984 153.979 53.4984C154.56 53.4984 155.085 53.4172 155.553 53.2547C156.028 53.0861 156.437 52.8362 156.781 52.5051C157.124 52.1677 157.39 51.7491 157.577 51.2493L159.714 51.8491C159.489 52.5738 159.111 53.211 158.58 53.7608C158.049 54.3043 157.393 54.7291 156.612 55.0352C155.831 55.3351 154.954 55.4851 153.979 55.4851ZM172.149 60.5829C171.775 60.5829 171.44 60.5517 171.147 60.4892C170.853 60.433 170.65 60.3767 170.538 60.3205L171.1 58.3713C171.637 58.5088 172.112 58.5588 172.524 58.5213C172.937 58.4838 173.302 58.2995 173.621 57.9684C173.946 57.6435 174.242 57.1156 174.511 56.3847L174.923 55.2601L169.6 40.7912H171.999L175.973 52.2614H176.123L180.096 40.7912H182.495L176.385 57.2843C176.11 58.0277 175.77 58.6431 175.364 59.1304C174.958 59.6239 174.486 59.9894 173.949 60.2268C173.418 60.4642 172.818 60.5829 172.149 60.5829ZM190.746 55.4851C189.447 55.4851 188.307 55.1758 187.326 54.5573C186.351 53.9388 185.589 53.0736 185.039 51.9615C184.496 50.8495 184.224 49.5501 184.224 48.0632C184.224 46.5638 184.496 45.255 185.039 44.1367C185.589 43.0184 186.351 42.15 187.326 41.5316C188.307 40.9131 189.447 40.6038 190.746 40.6038C192.046 40.6038 193.183 40.9131 194.157 41.5316C195.138 42.15 195.9 43.0184 196.444 44.1367C196.994 45.255 197.269 46.5638 197.269 48.0632C197.269 49.5501 196.994 50.8495 196.444 51.9615C195.9 53.0736 195.138 53.9388 194.157 54.5573C193.183 55.1758 192.046 55.4851 190.746 55.4851ZM190.746 53.4984C191.733 53.4984 192.546 53.2454 193.183 52.7393C193.82 52.2333 194.292 51.568 194.598 50.7433C194.904 49.9186 195.057 49.0253 195.057 48.0632C195.057 47.1011 194.904 46.2046 194.598 45.3737C194.292 44.5428 193.82 43.8712 193.183 43.3589C192.546 42.8466 191.733 42.5905 190.746 42.5905C189.759 42.5905 188.947 42.8466 188.31 43.3589C187.673 43.8712 187.201 44.5428 186.895 45.3737C186.589 46.2046 186.436 47.1011 186.436 48.0632C186.436 49.0253 186.589 49.9186 186.895 50.7433C187.201 51.568 187.673 52.2333 188.31 52.7393C188.947 53.2454 189.759 53.4984 190.746 53.4984ZM209.716 49.3002V40.7912H211.927V55.1852H209.716V52.7487H209.566C209.228 53.4796 208.704 54.1013 207.991 54.6135C207.279 55.1196 206.38 55.3726 205.292 55.3726C204.393 55.3726 203.593 55.1758 202.894 54.7822C202.194 54.3824 201.644 53.7826 201.244 52.983C200.844 52.1771 200.644 51.1619 200.644 49.9374V40.7912H202.856V49.7875C202.856 50.837 203.15 51.6742 203.737 52.2989C204.33 52.9236 205.086 53.236 206.005 53.236C206.554 53.236 207.114 53.0954 207.682 52.8143C208.257 52.5332 208.738 52.1021 209.125 51.5211C209.519 50.9401 209.716 50.1998 209.716 49.3002ZM215.978 55.1852V40.7912H218.114V42.9653H218.264C218.527 42.2531 219.002 41.6752 219.689 41.2317C220.376 40.7881 221.151 40.5663 222.013 40.5663C222.175 40.5663 222.378 40.5695 222.622 40.5757C222.866 40.582 223.05 40.5913 223.175 40.6038V42.8529C223.1 42.8341 222.928 42.806 222.659 42.7685C222.397 42.7248 222.119 42.7029 221.825 42.7029C221.126 42.7029 220.501 42.8497 219.951 43.1434C219.408 43.4308 218.977 43.8306 218.658 44.3429C218.346 44.8489 218.189 45.4268 218.189 46.0765V55.1852H215.978Z" fill="#212528"/>
<path d="M236.08 35.9933L240.718 50.5746H240.897L245.545 35.9933H250.043L243.427 55.1852H238.198L231.572 35.9933H236.08ZM253.109 55.1852H248.761L255.387 35.9933H260.616L267.232 55.1852H262.883L258.076 40.3789H257.926L253.109 55.1852ZM252.838 47.6415H263.108V50.8089H252.838V47.6415ZM266.465 39.3387V35.9933H282.228V39.3387H276.352V55.1852H272.341V39.3387H266.465Z" fill="#212528"/>
</g>
<g filter="url(#filter1_d_386_282)">
<rect x="25" y="101.481" width="165.37" height="133.481" rx="14.0741" fill="white" shape-rendering="crispEdges"/>
<rect x="25.4398" y="101.921" width="164.491" height="132.602" rx="13.6343" stroke="#212528" stroke-width="0.87963" shape-rendering="crispEdges"/>
<path d="M111.204 126.111H97.1297C95.1945 126.111 93.6287 127.694 93.6287 129.63L93.6111 157.778C93.6111 159.713 95.1769 161.296 97.1121 161.296H118.241C120.176 161.296 121.759 159.713 121.759 157.778V136.667L111.204 126.111ZM97.1297 157.778V129.63H109.444V138.426H118.241V157.778H97.1297Z" fill="#0080FF"/>
<path d="M88.0638 188.852H83.9218V176.057H88.195C89.4486 176.057 90.5252 176.313 91.4248 176.826C92.3245 177.334 93.0138 178.065 93.4927 179.018C93.9759 179.968 94.2174 181.107 94.2174 182.436C94.2174 183.769 93.9738 184.914 93.4865 185.872C93.0033 186.83 92.3036 187.567 91.3874 188.083C90.4711 188.596 89.3632 188.852 88.0638 188.852ZM85.8522 187.165H87.9576C88.9321 187.165 89.7422 186.982 90.3878 186.615C91.0333 186.245 91.5165 185.709 91.8372 185.01C92.1579 184.306 92.3182 183.448 92.3182 182.436C92.3182 181.432 92.1579 180.58 91.8372 179.881C91.5206 179.181 91.0479 178.65 90.419 178.288C89.7901 177.925 89.0092 177.744 88.0763 177.744H85.8522V187.165ZM96.468 188.852V179.256H98.336V188.852H96.468ZM97.4114 177.775C97.0865 177.775 96.8075 177.667 96.5742 177.45C96.3452 177.23 96.2306 176.967 96.2306 176.663C96.2306 176.355 96.3452 176.093 96.5742 175.876C96.8075 175.655 97.0865 175.545 97.4114 175.545C97.7362 175.545 98.0132 175.655 98.2423 175.876C98.4755 176.093 98.5921 176.355 98.5921 176.663C98.5921 176.967 98.4755 177.23 98.2423 177.45C98.0132 177.667 97.7362 177.775 97.4114 177.775ZM100.849 188.852V179.256H102.654V180.78H102.754C102.929 180.264 103.238 179.858 103.679 179.562C104.125 179.262 104.629 179.112 105.191 179.112C105.308 179.112 105.445 179.116 105.603 179.125C105.766 179.133 105.893 179.143 105.984 179.156V180.943C105.909 180.922 105.776 180.899 105.585 180.874C105.393 180.845 105.201 180.83 105.01 180.83C104.568 180.83 104.175 180.924 103.829 181.111C103.487 181.295 103.217 181.551 103.017 181.88C102.817 182.205 102.717 182.575 102.717 182.992V188.852H100.849ZM111.393 189.045C110.448 189.045 109.633 188.843 108.95 188.439C108.271 188.031 107.747 187.459 107.376 186.721C107.009 185.98 106.826 185.112 106.826 184.116C106.826 183.133 107.009 182.267 107.376 181.517C107.747 180.768 108.263 180.183 108.925 179.762C109.592 179.341 110.371 179.131 111.262 179.131C111.803 179.131 112.328 179.22 112.836 179.4C113.344 179.579 113.8 179.86 114.204 180.243C114.608 180.626 114.927 181.124 115.16 181.736C115.393 182.344 115.51 183.083 115.51 183.954V184.616H107.882V183.217H113.68C113.68 182.725 113.58 182.29 113.38 181.911C113.18 181.528 112.899 181.226 112.536 181.005C112.178 180.784 111.757 180.674 111.274 180.674C110.75 180.674 110.291 180.803 109.9 181.061C109.513 181.315 109.213 181.649 109 182.061C108.792 182.469 108.688 182.913 108.688 183.392V184.485C108.688 185.126 108.8 185.672 109.025 186.122C109.254 186.572 109.573 186.915 109.981 187.153C110.389 187.386 110.866 187.502 111.412 187.502C111.766 187.502 112.089 187.452 112.38 187.352C112.672 187.248 112.924 187.094 113.136 186.89C113.348 186.686 113.511 186.434 113.623 186.134L115.391 186.453C115.25 186.973 114.996 187.429 114.629 187.821C114.267 188.208 113.811 188.51 113.261 188.727C112.715 188.939 112.093 189.045 111.393 189.045ZM121.625 189.045C120.696 189.045 119.896 188.835 119.226 188.414C118.559 187.99 118.047 187.404 117.689 186.659C117.331 185.913 117.152 185.06 117.152 184.098C117.152 183.123 117.335 182.263 117.701 181.517C118.068 180.768 118.584 180.183 119.251 179.762C119.917 179.341 120.702 179.131 121.606 179.131C122.335 179.131 122.984 179.266 123.555 179.537C124.126 179.804 124.586 180.178 124.936 180.662C125.29 181.145 125.5 181.709 125.567 182.355H123.749C123.649 181.905 123.42 181.517 123.062 181.193C122.708 180.868 122.233 180.705 121.637 180.705C121.117 180.705 120.66 180.843 120.269 181.118C119.882 181.388 119.58 181.776 119.363 182.28C119.147 182.779 119.038 183.371 119.038 184.054C119.038 184.754 119.144 185.357 119.357 185.866C119.569 186.374 119.869 186.767 120.256 187.046C120.648 187.325 121.108 187.465 121.637 187.465C121.991 187.465 122.312 187.4 122.599 187.271C122.891 187.138 123.134 186.948 123.33 186.703C123.53 186.457 123.67 186.161 123.749 185.816H125.567C125.5 186.436 125.298 186.99 124.961 187.477C124.623 187.965 124.171 188.348 123.605 188.627C123.043 188.906 122.383 189.045 121.625 189.045ZM132.044 179.256V180.755H126.802V179.256H132.044ZM128.208 176.957H130.076V186.034C130.076 186.397 130.13 186.669 130.238 186.853C130.346 187.032 130.486 187.155 130.657 187.221C130.832 187.284 131.021 187.315 131.225 187.315C131.375 187.315 131.506 187.305 131.619 187.284C131.731 187.263 131.819 187.246 131.881 187.234L132.219 188.777C132.11 188.818 131.956 188.86 131.756 188.902C131.556 188.948 131.306 188.973 131.007 188.977C130.515 188.985 130.057 188.898 129.632 188.714C129.207 188.531 128.864 188.248 128.601 187.865C128.339 187.482 128.208 187.001 128.208 186.422V176.957ZM84.4887 209.852V197.057H92.4229V198.719H86.4191V202.617H91.8544V204.273H86.4191V209.852H84.4887ZM94.6469 209.852V200.256H96.5149V209.852H94.6469ZM95.5903 198.775C95.2654 198.775 94.9864 198.667 94.7531 198.45C94.5241 198.23 94.4095 197.967 94.4095 197.663C94.4095 197.355 94.5241 197.093 94.7531 196.876C94.9864 196.655 95.2654 196.545 95.5903 196.545C95.9151 196.545 96.1921 196.655 96.4212 196.876C96.6544 197.093 96.771 197.355 96.771 197.663C96.771 197.967 96.6544 198.23 96.4212 198.45C96.1921 198.667 95.9151 198.775 95.5903 198.775ZM100.896 197.057V209.852H99.0279V197.057H100.896ZM105.277 197.057V209.852H103.409V197.057H105.277ZM107.79 209.852V200.256H109.658V209.852H107.79ZM108.733 198.775C108.408 198.775 108.129 198.667 107.896 198.45C107.667 198.23 107.552 197.967 107.552 197.663C107.552 197.355 107.667 197.093 107.896 196.876C108.129 196.655 108.408 196.545 108.733 196.545C109.058 196.545 109.335 196.655 109.564 196.876C109.797 197.093 109.914 197.355 109.914 197.663C109.914 197.967 109.797 198.23 109.564 198.45C109.335 198.667 109.058 198.775 108.733 198.775ZM114.039 204.154V209.852H112.171V200.256H113.964V201.818H114.082C114.303 201.31 114.649 200.901 115.12 200.593C115.594 200.285 116.192 200.131 116.913 200.131C117.566 200.131 118.139 200.268 118.631 200.543C119.122 200.814 119.503 201.218 119.774 201.755C120.045 202.292 120.18 202.957 120.18 203.748V209.852H118.312V203.973C118.312 203.277 118.131 202.734 117.768 202.342C117.406 201.947 116.908 201.749 116.275 201.749C115.842 201.749 115.457 201.843 115.12 202.03C114.786 202.218 114.522 202.492 114.326 202.855C114.135 203.213 114.039 203.646 114.039 204.154ZM126.708 213.65C125.946 213.65 125.29 213.55 124.741 213.35C124.195 213.15 123.749 212.886 123.404 212.557C123.058 212.228 122.8 211.868 122.629 211.476L124.234 210.814C124.347 210.997 124.497 211.191 124.684 211.395C124.876 211.603 125.134 211.78 125.459 211.926C125.788 212.072 126.211 212.145 126.727 212.145C127.435 212.145 128.02 211.972 128.483 211.626C128.945 211.285 129.176 210.739 129.176 209.989V208.103H129.057C128.945 208.307 128.783 208.534 128.57 208.784C128.362 209.033 128.075 209.25 127.708 209.433C127.341 209.616 126.865 209.708 126.277 209.708C125.519 209.708 124.836 209.531 124.228 209.177C123.624 208.819 123.145 208.292 122.791 207.597C122.441 206.897 122.267 206.037 122.267 205.016C122.267 203.996 122.439 203.121 122.785 202.392C123.135 201.664 123.614 201.105 124.222 200.718C124.83 200.327 125.519 200.131 126.29 200.131C126.885 200.131 127.366 200.231 127.733 200.431C128.1 200.627 128.385 200.856 128.589 201.118C128.797 201.38 128.957 201.612 129.07 201.811H129.207V200.256H131.038V210.064C131.038 210.889 130.846 211.566 130.463 212.095C130.08 212.624 129.561 213.015 128.907 213.269C128.258 213.523 127.525 213.65 126.708 213.65ZM126.69 208.159C127.227 208.159 127.681 208.034 128.052 207.784C128.426 207.53 128.71 207.168 128.901 206.697C129.097 206.222 129.195 205.654 129.195 204.991C129.195 204.346 129.099 203.777 128.907 203.286C128.716 202.794 128.435 202.411 128.064 202.136C127.693 201.857 127.235 201.718 126.69 201.718C126.127 201.718 125.659 201.864 125.284 202.155C124.909 202.442 124.626 202.834 124.434 203.33C124.247 203.825 124.153 204.379 124.153 204.991C124.153 205.62 124.249 206.172 124.441 206.647C124.632 207.122 124.915 207.492 125.29 207.759C125.669 208.025 126.136 208.159 126.69 208.159Z" fill="#212528"/>
</g>
<g filter="url(#filter2_d_386_282)">
<rect x="25" y="256.296" width="165.37" height="133.481" rx="14.0741" fill="white" shape-rendering="crispEdges"/>
<rect x="25.4398" y="256.736" width="164.491" height="132.602" rx="13.6343" stroke="#212528" stroke-width="0.87963" shape-rendering="crispEdges"/>
<path d="M107.685 315.671C109.62 315.671 111.204 314.088 111.204 312.153H104.167C104.167 314.088 105.75 315.671 107.685 315.671ZM118.241 305.116V296.319C118.241 290.918 115.373 286.397 110.324 285.201V284.005C110.324 282.544 109.145 281.366 107.685 281.366C106.225 281.366 105.046 282.544 105.046 284.005V285.201C100.015 286.397 97.1296 290.901 97.1296 296.319V305.116L93.6111 308.634V310.393H121.759V308.634L118.241 305.116ZM114.722 306.875H100.648V296.319C100.648 291.956 103.305 288.403 107.685 288.403C112.066 288.403 114.722 291.956 114.722 296.319V306.875ZM99.9093 284.145L97.3935 281.63C93.1713 284.849 90.3917 289.81 90.1454 295.44H93.6639C93.9278 290.778 96.3204 286.696 99.9093 284.145ZM121.706 295.44H125.225C124.961 289.81 122.181 284.849 117.977 281.63L115.479 284.145C119.032 286.696 121.443 290.778 121.706 295.44Z" fill="#F2800D"/>
<path d="M80.4303 332.534V330.872H90.3323V332.534H86.3403V343.667H84.4161V332.534H80.4303ZM92.3705 343.667V334.071H94.2385V343.667H92.3705ZM93.3139 332.59C92.989 332.59 92.71 332.482 92.4767 332.265C92.2477 332.044 92.1331 331.782 92.1331 331.478C92.1331 331.17 92.2477 330.907 92.4767 330.691C92.71 330.47 92.989 330.36 93.3139 330.36C93.6388 330.36 93.9157 330.47 94.1448 330.691C94.378 330.907 94.4946 331.17 94.4946 331.478C94.4946 331.782 94.378 332.044 94.1448 332.265C93.9157 332.482 93.6388 332.59 93.3139 332.59ZM96.7515 343.667V334.071H98.5445V335.633H98.6632C98.8631 335.104 99.1901 334.691 99.644 334.396C100.098 334.096 100.642 333.946 101.275 333.946C101.916 333.946 102.453 334.096 102.886 334.396C103.324 334.695 103.647 335.108 103.855 335.633H103.955C104.184 335.12 104.548 334.712 105.048 334.408C105.548 334.1 106.143 333.946 106.835 333.946C107.705 333.946 108.415 334.219 108.965 334.764C109.519 335.31 109.796 336.132 109.796 337.232V343.667H107.928V337.407C107.928 336.757 107.751 336.286 107.397 335.995C107.043 335.703 106.62 335.558 106.129 335.558C105.521 335.558 105.048 335.745 104.711 336.12C104.373 336.49 104.205 336.967 104.205 337.55V343.667H102.343V337.288C102.343 336.767 102.18 336.349 101.856 336.032C101.531 335.716 101.108 335.558 100.587 335.558C100.233 335.558 99.9064 335.651 99.6066 335.839C99.3108 336.022 99.0714 336.278 98.8881 336.607C98.709 336.936 98.6195 337.317 98.6195 337.75V343.667H96.7515ZM116.435 343.86C115.49 343.86 114.676 343.658 113.993 343.254C113.314 342.846 112.789 342.273 112.418 341.536C112.052 340.795 111.869 339.927 111.869 338.931C111.869 337.948 112.052 337.082 112.418 336.332C112.789 335.583 113.305 334.997 113.968 334.577C114.634 334.156 115.413 333.946 116.304 333.946C116.846 333.946 117.37 334.035 117.879 334.214C118.387 334.393 118.843 334.675 119.247 335.058C119.651 335.441 119.969 335.939 120.203 336.551C120.436 337.159 120.552 337.898 120.552 338.769V339.431H112.924V338.031H118.722C118.722 337.54 118.622 337.105 118.422 336.726C118.222 336.343 117.941 336.041 117.579 335.82C117.22 335.599 116.8 335.489 116.317 335.489C115.792 335.489 115.334 335.618 114.942 335.876C114.555 336.13 114.255 336.463 114.043 336.876C113.834 337.284 113.73 337.727 113.73 338.206V339.3C113.73 339.941 113.843 340.487 114.068 340.937C114.297 341.386 114.615 341.73 115.024 341.967C115.432 342.201 115.909 342.317 116.454 342.317C116.808 342.317 117.131 342.267 117.422 342.167C117.714 342.063 117.966 341.909 118.178 341.705C118.391 341.501 118.553 341.249 118.666 340.949L120.434 341.268C120.292 341.788 120.038 342.244 119.672 342.636C119.309 343.023 118.853 343.325 118.303 343.542C117.758 343.754 117.135 343.86 116.435 343.86ZM124.493 330.872V343.667H122.625V330.872H124.493ZM128.187 347.265C127.908 347.265 127.654 347.242 127.425 347.196C127.195 347.155 127.025 347.109 126.912 347.059L127.362 345.528C127.704 345.62 128.008 345.66 128.274 345.647C128.541 345.635 128.776 345.535 128.98 345.347C129.188 345.16 129.372 344.854 129.53 344.429L129.761 343.792L126.25 334.071H128.249L130.679 341.518H130.779L133.21 334.071H135.215L131.26 344.947C131.077 345.447 130.844 345.87 130.561 346.216C130.277 346.565 129.94 346.828 129.549 347.003C129.157 347.178 128.703 347.265 128.187 347.265ZM65.9098 351.872V364.667H64.1356L57.632 355.283H57.5133V364.667H55.5829V351.872H57.3697L63.8794 361.268H63.9981V351.872H65.9098ZM72.6179 364.86C71.7183 364.86 70.9332 364.654 70.2627 364.242C69.5921 363.829 69.0715 363.253 68.7008 362.511C68.3301 361.77 68.1448 360.904 68.1448 359.912C68.1448 358.917 68.3301 358.046 68.7008 357.301C69.0715 356.555 69.5921 355.977 70.2627 355.564C70.9332 355.152 71.7183 354.946 72.6179 354.946C73.5175 354.946 74.3026 355.152 74.9732 355.564C75.6437 355.977 76.1643 356.555 76.535 357.301C76.9057 358.046 77.091 358.917 77.091 359.912C77.091 360.904 76.9057 361.77 76.535 362.511C76.1643 363.253 75.6437 363.829 74.9732 364.242C74.3026 364.654 73.5175 364.86 72.6179 364.86ZM72.6242 363.292C73.2073 363.292 73.6904 363.138 74.0736 362.83C74.4567 362.522 74.7399 362.111 74.9232 361.599C75.1106 361.087 75.2043 360.523 75.2043 359.906C75.2043 359.294 75.1106 358.732 74.9232 358.219C74.7399 357.703 74.4567 357.288 74.0736 356.976C73.6904 356.664 73.2073 356.508 72.6242 356.508C72.0369 356.508 71.5496 356.664 71.1623 356.976C70.7791 357.288 70.4938 357.703 70.3064 358.219C70.1231 358.732 70.0315 359.294 70.0315 359.906C70.0315 360.523 70.1231 361.087 70.3064 361.599C70.4938 362.111 70.7791 362.522 71.1623 362.83C71.5496 363.138 72.0369 363.292 72.6242 363.292ZM83.6555 355.071V356.57H78.4139V355.071H83.6555ZM79.8196 352.772H81.6875V361.849C81.6875 362.211 81.7417 362.484 81.85 362.667C81.9583 362.847 82.0978 362.969 82.2685 363.036C82.4435 363.099 82.633 363.13 82.8371 363.13C82.987 363.13 83.1182 363.119 83.2306 363.099C83.3431 363.078 83.4306 363.061 83.493 363.049L83.8304 364.592C83.7221 364.633 83.568 364.675 83.3681 364.717C83.1682 364.762 82.9183 364.787 82.6184 364.792C82.1269 364.8 81.6688 364.712 81.244 364.529C80.8192 364.346 80.4756 364.063 80.2132 363.68C79.9508 363.296 79.8196 362.815 79.8196 362.236V352.772ZM85.7218 364.667V355.071H87.5897V364.667H85.7218ZM86.6651 353.59C86.3403 353.59 86.0612 353.482 85.828 353.265C85.5989 353.044 85.4844 352.782 85.4844 352.478C85.4844 352.17 85.5989 351.907 85.828 351.691C86.0612 351.47 86.3403 351.36 86.6651 351.36C86.99 351.36 87.267 351.47 87.496 351.691C87.7293 351.907 87.8459 352.17 87.8459 352.478C87.8459 352.782 87.7293 353.044 87.496 353.265C87.267 353.482 86.99 353.59 86.6651 353.59ZM94.6696 355.071V356.57H89.2469V355.071H94.6696ZM90.7337 364.667V353.959C90.7337 353.359 90.8649 352.861 91.1273 352.466C91.3897 352.066 91.7375 351.768 92.1706 351.572C92.6038 351.372 93.0744 351.272 93.5825 351.272C93.9574 351.272 94.2781 351.304 94.5446 351.366C94.8112 351.424 95.009 351.478 95.1381 351.528L94.7008 353.04C94.6133 353.015 94.5009 352.986 94.3635 352.953C94.226 352.915 94.0594 352.897 93.8637 352.897C93.4097 352.897 93.0848 353.009 92.8891 353.234C92.6975 353.459 92.6017 353.784 92.6017 354.209V364.667H90.7337ZM96.5969 364.667V355.071H98.4649V364.667H96.5969ZM97.5402 353.59C97.2154 353.59 96.9363 353.482 96.7031 353.265C96.474 353.044 96.3595 352.782 96.3595 352.478C96.3595 352.17 96.474 351.907 96.7031 351.691C96.9363 351.47 97.2154 351.36 97.5402 351.36C97.8651 351.36 98.1421 351.47 98.3711 351.691C98.6044 351.907 98.721 352.17 98.721 352.478C98.721 352.782 98.6044 353.044 98.3711 353.265C98.1421 353.482 97.8651 353.59 97.5402 353.59ZM105.02 364.86C104.091 364.86 103.291 364.65 102.621 364.229C101.955 363.804 101.442 363.219 101.084 362.474C100.726 361.728 100.547 360.874 100.547 359.912C100.547 358.938 100.73 358.078 101.097 357.332C101.463 356.583 101.98 355.997 102.646 355.577C103.312 355.156 104.097 354.946 105.001 354.946C105.73 354.946 106.38 355.081 106.95 355.352C107.521 355.618 107.981 355.993 108.331 356.476C108.685 356.959 108.895 357.524 108.962 358.169H107.144C107.044 357.72 106.815 357.332 106.457 357.007C106.103 356.682 105.628 356.52 105.032 356.52C104.512 356.52 104.056 356.657 103.664 356.932C103.277 357.203 102.975 357.59 102.758 358.094C102.542 358.594 102.433 359.186 102.433 359.869C102.433 360.568 102.54 361.172 102.752 361.68C102.965 362.189 103.264 362.582 103.652 362.861C104.043 363.14 104.503 363.28 105.032 363.28C105.386 363.28 105.707 363.215 105.994 363.086C106.286 362.953 106.53 362.763 106.725 362.518C106.925 362.272 107.065 361.976 107.144 361.63H108.962C108.895 362.251 108.693 362.805 108.356 363.292C108.019 363.779 107.567 364.163 107 364.442C106.438 364.721 105.778 364.86 105.02 364.86ZM113.752 364.879C113.144 364.879 112.594 364.767 112.103 364.542C111.611 364.313 111.222 363.981 110.935 363.548C110.651 363.115 110.51 362.584 110.51 361.955C110.51 361.414 110.614 360.968 110.822 360.618C111.03 360.268 111.312 359.992 111.666 359.787C112.02 359.583 112.415 359.429 112.853 359.325C113.29 359.221 113.736 359.142 114.189 359.088C114.764 359.021 115.231 358.967 115.589 358.925C115.947 358.879 116.207 358.807 116.37 358.707C116.532 358.607 116.613 358.444 116.613 358.219V358.176C116.613 357.63 116.459 357.207 116.151 356.907C115.847 356.608 115.393 356.458 114.789 356.458C114.16 356.458 113.665 356.597 113.302 356.876C112.944 357.151 112.696 357.457 112.559 357.795L110.803 357.395C111.012 356.812 111.316 356.341 111.716 355.983C112.12 355.62 112.584 355.358 113.109 355.196C113.633 355.029 114.185 354.946 114.764 354.946C115.147 354.946 115.553 354.992 115.982 355.083C116.416 355.171 116.82 355.333 117.194 355.57C117.573 355.808 117.884 356.147 118.125 356.589C118.367 357.026 118.488 357.595 118.488 358.294V364.667H116.663V363.355H116.588C116.468 363.596 116.287 363.834 116.045 364.067C115.803 364.3 115.493 364.494 115.114 364.648C114.735 364.802 114.281 364.879 113.752 364.879ZM114.158 363.38C114.675 363.38 115.116 363.278 115.483 363.074C115.853 362.869 116.134 362.603 116.326 362.274C116.522 361.941 116.62 361.585 116.62 361.206V359.969C116.553 360.035 116.424 360.098 116.232 360.156C116.045 360.21 115.83 360.258 115.589 360.3C115.347 360.337 115.112 360.373 114.883 360.406C114.654 360.435 114.462 360.46 114.308 360.481C113.946 360.527 113.615 360.604 113.315 360.712C113.019 360.82 112.782 360.977 112.603 361.181C112.428 361.381 112.34 361.647 112.34 361.98C112.34 362.443 112.511 362.792 112.853 363.03C113.194 363.263 113.629 363.38 114.158 363.38ZM125.455 355.071V356.57H120.214V355.071H125.455ZM121.619 352.772H123.487V361.849C123.487 362.211 123.541 362.484 123.65 362.667C123.758 362.847 123.897 362.969 124.068 363.036C124.243 363.099 124.433 363.13 124.637 363.13C124.787 363.13 124.918 363.119 125.03 363.099C125.143 363.078 125.23 363.061 125.293 363.049L125.63 364.592C125.522 364.633 125.368 364.675 125.168 364.717C124.968 364.762 124.718 364.787 124.418 364.792C123.927 364.8 123.468 364.712 123.044 364.529C122.619 364.346 122.275 364.063 122.013 363.68C121.75 363.296 121.619 362.815 121.619 362.236V352.772ZM127.521 364.667V355.071H129.389V364.667H127.521ZM128.465 353.59C128.14 353.59 127.861 353.482 127.628 353.265C127.398 353.044 127.284 352.782 127.284 352.478C127.284 352.17 127.398 351.907 127.628 351.691C127.861 351.47 128.14 351.36 128.465 351.36C128.79 351.36 129.067 351.47 129.296 351.691C129.529 351.907 129.645 352.17 129.645 352.478C129.645 352.782 129.529 353.044 129.296 353.265C129.067 353.482 128.79 353.59 128.465 353.59ZM135.944 364.86C135.045 364.86 134.26 364.654 133.589 364.242C132.919 363.829 132.398 363.253 132.027 362.511C131.657 361.77 131.471 360.904 131.471 359.912C131.471 358.917 131.657 358.046 132.027 357.301C132.398 356.555 132.919 355.977 133.589 355.564C134.26 355.152 135.045 354.946 135.944 354.946C136.844 354.946 137.629 355.152 138.3 355.564C138.97 355.977 139.491 356.555 139.861 357.301C140.232 358.046 140.417 358.917 140.417 359.912C140.417 360.904 140.232 361.77 139.861 362.511C139.491 363.253 138.97 363.829 138.3 364.242C137.629 364.654 136.844 364.86 135.944 364.86ZM135.951 363.292C136.534 363.292 137.017 363.138 137.4 362.83C137.783 362.522 138.066 362.111 138.25 361.599C138.437 361.087 138.531 360.523 138.531 359.906C138.531 359.294 138.437 358.732 138.25 358.219C138.066 357.703 137.783 357.288 137.4 356.976C137.017 356.664 136.534 356.508 135.951 356.508C135.363 356.508 134.876 356.664 134.489 356.976C134.106 357.288 133.82 357.703 133.633 358.219C133.45 358.732 133.358 359.294 133.358 359.906C133.358 360.523 133.45 361.087 133.633 361.599C133.82 362.111 134.106 362.522 134.489 362.83C134.876 363.138 135.363 363.292 135.951 363.292ZM144.371 358.969V364.667H142.503V355.071H144.296V356.633H144.414C144.635 356.124 144.981 355.716 145.451 355.408C145.926 355.1 146.524 354.946 147.244 354.946C147.898 354.946 148.471 355.083 148.962 355.358C149.454 355.629 149.835 356.033 150.106 356.57C150.376 357.107 150.512 357.772 150.512 358.563V364.667H148.644V358.788C148.644 358.092 148.463 357.549 148.1 357.157C147.738 356.762 147.24 356.564 146.607 356.564C146.174 356.564 145.789 356.657 145.451 356.845C145.118 357.032 144.854 357.307 144.658 357.67C144.466 358.028 144.371 358.461 144.371 358.969ZM160.208 357.413L158.515 357.713C158.444 357.497 158.331 357.291 158.177 357.095C158.027 356.899 157.823 356.739 157.565 356.614C157.307 356.489 156.984 356.426 156.597 356.426C156.068 356.426 155.626 356.545 155.272 356.782C154.918 357.016 154.741 357.318 154.741 357.688C154.741 358.009 154.86 358.267 155.097 358.463C155.335 358.659 155.718 358.819 156.247 358.944L157.771 359.294C158.654 359.498 159.312 359.812 159.745 360.237C160.178 360.662 160.395 361.214 160.395 361.893C160.395 362.468 160.228 362.98 159.895 363.43C159.566 363.875 159.106 364.225 158.515 364.479C157.927 364.733 157.246 364.86 156.472 364.86C155.397 364.86 154.52 364.631 153.842 364.173C153.163 363.711 152.746 363.055 152.592 362.205L154.398 361.93C154.51 362.401 154.741 362.757 155.091 362.999C155.441 363.236 155.897 363.355 156.459 363.355C157.071 363.355 157.561 363.228 157.927 362.974C158.294 362.715 158.477 362.401 158.477 362.03C158.477 361.73 158.365 361.478 158.14 361.274C157.919 361.07 157.58 360.916 157.121 360.812L155.497 360.456C154.602 360.252 153.939 359.927 153.51 359.481C153.086 359.036 152.873 358.471 152.873 357.788C152.873 357.222 153.031 356.726 153.348 356.301C153.665 355.877 154.102 355.545 154.66 355.308C155.218 355.067 155.857 354.946 156.578 354.946C157.615 354.946 158.431 355.171 159.027 355.62C159.622 356.066 160.016 356.664 160.208 357.413Z" fill="#212528"/>
</g>
<g filter="url(#filter3_d_386_282)">
<rect x="211.481" y="101.481" width="165.37" height="133.481" rx="14.0741" fill="white" shape-rendering="crispEdges"/>
<rect x="211.921" y="101.921" width="164.491" height="132.602" rx="13.6343" stroke="#212528" stroke-width="0.87963" shape-rendering="crispEdges"/>
<path d="M294.167 126.111C284.456 126.111 276.574 133.993 276.574 143.704C276.574 153.415 284.456 161.296 294.167 161.296C303.878 161.296 311.759 153.415 311.759 143.704C311.759 133.993 303.878 126.111 294.167 126.111ZM294.167 157.778C286.408 157.778 280.093 151.462 280.093 143.704C280.093 135.945 286.408 129.63 294.167 129.63C301.925 129.63 308.241 135.945 308.241 143.704C308.241 151.462 301.925 157.778 294.167 157.778ZM302.242 135.928L290.648 147.521L286.092 142.982L283.611 145.463L290.648 152.5L304.722 138.426L302.242 135.928Z" fill="#F2800D"/>
<path d="M277.453 176.057V188.852H275.517V177.994H275.442L272.38 179.993V178.144L275.573 176.057H277.453ZM285.369 189.064C284.382 189.06 283.538 188.8 282.839 188.283C282.139 187.767 281.604 187.015 281.233 186.028C280.862 185.041 280.677 183.852 280.677 182.461C280.677 181.074 280.862 179.889 281.233 178.906C281.608 177.923 282.145 177.173 282.845 176.657C283.549 176.14 284.39 175.882 285.369 175.882C286.348 175.882 287.187 176.143 287.886 176.663C288.586 177.18 289.121 177.929 289.492 178.912C289.867 179.891 290.054 181.074 290.054 182.461C290.054 183.856 289.869 185.047 289.498 186.034C289.128 187.017 288.592 187.769 287.893 188.29C287.193 188.806 286.352 189.064 285.369 189.064ZM285.369 187.396C286.235 187.396 286.912 186.973 287.399 186.128C287.891 185.282 288.136 184.06 288.136 182.461C288.136 181.399 288.024 180.501 287.799 179.768C287.578 179.031 287.26 178.473 286.843 178.094C286.431 177.711 285.939 177.519 285.369 177.519C284.507 177.519 283.83 177.944 283.338 178.794C282.847 179.643 282.599 180.866 282.595 182.461C282.595 183.527 282.705 184.429 282.926 185.166C283.151 185.899 283.47 186.455 283.882 186.834C284.294 187.209 284.79 187.396 285.369 187.396ZM296.725 189.064C295.738 189.06 294.894 188.8 294.195 188.283C293.495 187.767 292.96 187.015 292.589 186.028C292.218 185.041 292.033 183.852 292.033 182.461C292.033 181.074 292.218 179.889 292.589 178.906C292.964 177.923 293.501 177.173 294.201 176.657C294.905 176.14 295.746 175.882 296.725 175.882C297.704 175.882 298.543 176.143 299.243 176.663C299.942 177.18 300.478 177.929 300.848 178.912C301.223 179.891 301.41 181.074 301.41 182.461C301.41 183.856 301.225 185.047 300.854 186.034C300.484 187.017 299.949 187.769 299.249 188.29C298.549 188.806 297.708 189.064 296.725 189.064ZM296.725 187.396C297.591 187.396 298.268 186.973 298.755 186.128C299.247 185.282 299.493 184.06 299.493 182.461C299.493 181.399 299.38 180.501 299.155 179.768C298.934 179.031 298.616 178.473 298.199 178.094C297.787 177.711 297.296 177.519 296.725 177.519C295.863 177.519 295.186 177.944 294.695 178.794C294.203 179.643 293.955 180.866 293.951 182.461C293.951 183.527 294.061 184.429 294.282 185.166C294.507 185.899 294.826 186.455 295.238 186.834C295.65 187.209 296.146 187.396 296.725 187.396ZM310.305 186.453V185.778C310.305 185.295 310.405 184.853 310.605 184.454C310.809 184.05 311.105 183.727 311.492 183.485C311.884 183.24 312.356 183.117 312.91 183.117C313.477 183.117 313.952 183.238 314.335 183.479C314.718 183.721 315.007 184.043 315.203 184.447C315.403 184.851 315.503 185.295 315.503 185.778V186.453C315.503 186.936 315.403 187.38 315.203 187.784C315.003 188.183 314.71 188.506 314.322 188.752C313.939 188.993 313.468 189.114 312.91 189.114C312.348 189.114 311.873 188.993 311.486 188.752C311.099 188.506 310.805 188.183 310.605 187.784C310.405 187.38 310.305 186.936 310.305 186.453ZM311.761 185.778V186.453C311.761 186.811 311.846 187.136 312.017 187.427C312.188 187.719 312.485 187.865 312.91 187.865C313.331 187.865 313.625 187.719 313.791 187.427C313.958 187.136 314.041 186.811 314.041 186.453V185.778C314.041 185.42 313.96 185.095 313.797 184.804C313.639 184.512 313.343 184.366 312.91 184.366C312.494 184.366 312.198 184.512 312.023 184.804C311.848 185.095 311.761 185.42 311.761 185.778ZM303.87 179.131V178.456C303.87 177.973 303.97 177.529 304.17 177.125C304.374 176.721 304.67 176.399 305.057 176.157C305.449 175.916 305.922 175.795 306.476 175.795C307.042 175.795 307.517 175.916 307.9 176.157C308.283 176.399 308.573 176.721 308.768 177.125C308.964 177.529 309.062 177.973 309.062 178.456V179.131C309.062 179.614 308.962 180.058 308.762 180.462C308.566 180.861 308.275 181.184 307.887 181.43C307.504 181.671 307.034 181.792 306.476 181.792C305.909 181.792 305.432 181.671 305.045 181.43C304.662 181.184 304.37 180.861 304.17 180.462C303.97 180.058 303.87 179.614 303.87 179.131ZM305.332 178.456V179.131C305.332 179.489 305.416 179.814 305.582 180.105C305.753 180.397 306.051 180.543 306.476 180.543C306.892 180.543 307.184 180.397 307.35 180.105C307.521 179.814 307.606 179.489 307.606 179.131V178.456C307.606 178.098 307.525 177.773 307.363 177.482C307.2 177.19 306.904 177.044 306.476 177.044C306.059 177.044 305.763 177.19 305.588 177.482C305.418 177.773 305.332 178.098 305.332 178.456ZM304.464 188.852L313.26 176.057H314.753L305.957 188.852H304.464ZM258.633 209.852H256.584L261.188 197.057H263.419L268.023 209.852H265.974L262.357 199.381H262.257L258.633 209.852ZM258.977 204.841H265.624V206.466H258.977V204.841ZM273.608 210.045C272.679 210.045 271.88 209.835 271.209 209.414C270.543 208.99 270.03 208.404 269.672 207.659C269.314 206.913 269.135 206.06 269.135 205.098C269.135 204.123 269.318 203.263 269.685 202.517C270.051 201.768 270.568 201.183 271.234 200.762C271.9 200.341 272.686 200.131 273.589 200.131C274.318 200.131 274.968 200.266 275.539 200.537C276.109 200.804 276.569 201.178 276.919 201.662C277.273 202.145 277.484 202.709 277.55 203.355H275.732C275.632 202.905 275.403 202.517 275.045 202.193C274.691 201.868 274.216 201.705 273.621 201.705C273.1 201.705 272.644 201.843 272.252 202.118C271.865 202.388 271.563 202.776 271.347 203.28C271.13 203.779 271.022 204.371 271.022 205.054C271.022 205.754 271.128 206.357 271.34 206.866C271.553 207.374 271.853 207.767 272.24 208.046C272.631 208.325 273.092 208.465 273.621 208.465C273.975 208.465 274.295 208.4 274.583 208.271C274.874 208.138 275.118 207.948 275.314 207.703C275.514 207.457 275.653 207.161 275.732 206.816H277.55C277.484 207.436 277.282 207.99 276.944 208.477C276.607 208.965 276.155 209.348 275.589 209.627C275.026 209.906 274.366 210.045 273.608 210.045ZM283.59 210.045C282.661 210.045 281.861 209.835 281.191 209.414C280.524 208.99 280.012 208.404 279.654 207.659C279.296 206.913 279.117 206.06 279.117 205.098C279.117 204.123 279.3 203.263 279.666 202.517C280.033 201.768 280.549 201.183 281.216 200.762C281.882 200.341 282.667 200.131 283.571 200.131C284.3 200.131 284.95 200.266 285.52 200.537C286.091 200.804 286.551 201.178 286.901 201.662C287.255 202.145 287.465 202.709 287.532 203.355H285.714C285.614 202.905 285.385 202.517 285.027 202.193C284.673 201.868 284.198 201.705 283.602 201.705C283.082 201.705 282.626 201.843 282.234 202.118C281.847 202.388 281.545 202.776 281.328 203.28C281.112 203.779 281.003 204.371 281.003 205.054C281.003 205.754 281.11 206.357 281.322 206.866C281.534 207.374 281.834 207.767 282.222 208.046C282.613 208.325 283.073 208.465 283.602 208.465C283.956 208.465 284.277 208.4 284.564 208.271C284.856 208.138 285.1 207.948 285.295 207.703C285.495 207.457 285.635 207.161 285.714 206.816H287.532C287.465 207.436 287.263 207.99 286.926 208.477C286.589 208.965 286.137 209.348 285.57 209.627C285.008 209.906 284.348 210.045 283.59 210.045ZM295.608 205.872V200.256H297.482V209.852H295.646V208.19H295.546C295.325 208.702 294.971 209.129 294.484 209.471C294.001 209.808 293.399 209.977 292.678 209.977C292.062 209.977 291.516 209.841 291.041 209.571C290.571 209.296 290.2 208.89 289.929 208.352C289.663 207.815 289.53 207.151 289.53 206.36V200.256H291.397V206.135C291.397 206.789 291.579 207.309 291.941 207.696C292.303 208.084 292.774 208.277 293.353 208.277C293.703 208.277 294.051 208.19 294.396 208.015C294.746 207.84 295.036 207.576 295.265 207.222C295.498 206.868 295.612 206.418 295.608 205.872ZM299.992 209.852V200.256H301.798V201.78H301.898C302.073 201.264 302.381 200.858 302.822 200.562C303.268 200.262 303.772 200.112 304.334 200.112C304.451 200.112 304.588 200.116 304.747 200.125C304.909 200.133 305.036 200.143 305.128 200.156V201.943C305.053 201.922 304.919 201.899 304.728 201.874C304.536 201.845 304.345 201.83 304.153 201.83C303.712 201.83 303.318 201.924 302.972 202.111C302.631 202.295 302.36 202.551 302.16 202.88C301.96 203.205 301.86 203.575 301.86 203.992V209.852H299.992ZM309.451 210.064C308.843 210.064 308.293 209.952 307.802 209.727C307.31 209.498 306.921 209.167 306.633 208.734C306.35 208.3 306.208 207.769 306.208 207.14C306.208 206.599 306.313 206.153 306.521 205.804C306.729 205.454 307.01 205.177 307.364 204.973C307.718 204.769 308.114 204.614 308.551 204.51C308.989 204.406 309.434 204.327 309.888 204.273C310.463 204.206 310.929 204.152 311.288 204.11C311.646 204.065 311.906 203.992 312.068 203.892C312.231 203.792 312.312 203.629 312.312 203.405V203.361C312.312 202.815 312.158 202.392 311.85 202.093C311.546 201.793 311.092 201.643 310.488 201.643C309.859 201.643 309.363 201.782 309.001 202.061C308.643 202.336 308.395 202.642 308.258 202.98L306.502 202.58C306.71 201.997 307.014 201.526 307.414 201.168C307.818 200.806 308.283 200.543 308.807 200.381C309.332 200.214 309.884 200.131 310.463 200.131C310.846 200.131 311.252 200.177 311.681 200.268C312.114 200.356 312.518 200.518 312.893 200.756C313.272 200.993 313.582 201.332 313.824 201.774C314.066 202.211 314.186 202.78 314.186 203.479V209.852H312.362V208.54H312.287C312.166 208.781 311.985 209.019 311.744 209.252C311.502 209.485 311.192 209.679 310.813 209.833C310.434 209.987 309.98 210.064 309.451 210.064ZM309.857 208.565C310.373 208.565 310.815 208.463 311.181 208.259C311.552 208.055 311.833 207.788 312.025 207.459C312.22 207.126 312.318 206.77 312.318 206.391V205.154C312.252 205.22 312.123 205.283 311.931 205.341C311.744 205.395 311.529 205.443 311.288 205.485C311.046 205.522 310.811 205.558 310.582 205.591C310.353 205.62 310.161 205.645 310.007 205.666C309.644 205.712 309.313 205.789 309.014 205.897C308.718 206.006 308.48 206.162 308.301 206.366C308.126 206.566 308.039 206.832 308.039 207.165C308.039 207.628 308.21 207.978 308.551 208.215C308.893 208.448 309.328 208.565 309.857 208.565ZM321.154 200.256V201.755H315.912V200.256H321.154ZM317.318 197.957H319.186V207.034C319.186 207.397 319.24 207.669 319.348 207.853C319.457 208.032 319.596 208.155 319.767 208.221C319.942 208.284 320.131 208.315 320.335 208.315C320.485 208.315 320.616 208.305 320.729 208.284C320.841 208.263 320.929 208.246 320.991 208.234L321.329 209.777C321.22 209.818 321.066 209.86 320.866 209.902C320.666 209.948 320.417 209.973 320.117 209.977C319.625 209.985 319.167 209.898 318.742 209.714C318.317 209.531 317.974 209.248 317.711 208.865C317.449 208.482 317.318 208.001 317.318 207.422V197.957ZM327.253 210.045C326.307 210.045 325.493 209.843 324.81 209.439C324.131 209.031 323.606 208.459 323.236 207.721C322.869 206.98 322.686 206.112 322.686 205.116C322.686 204.133 322.869 203.267 323.236 202.517C323.606 201.768 324.123 201.183 324.785 200.762C325.451 200.341 326.23 200.131 327.122 200.131C327.663 200.131 328.188 200.22 328.696 200.4C329.204 200.579 329.66 200.86 330.064 201.243C330.468 201.626 330.787 202.124 331.02 202.736C331.253 203.344 331.37 204.083 331.37 204.954V205.616H323.742V204.217H329.539C329.539 203.725 329.439 203.29 329.239 202.911C329.039 202.528 328.758 202.226 328.396 202.005C328.038 201.784 327.617 201.674 327.134 201.674C326.609 201.674 326.151 201.803 325.76 202.061C325.372 202.315 325.072 202.649 324.86 203.061C324.652 203.469 324.548 203.913 324.548 204.392V205.485C324.548 206.126 324.66 206.672 324.885 207.122C325.114 207.572 325.433 207.915 325.841 208.153C326.249 208.386 326.726 208.502 327.271 208.502C327.625 208.502 327.948 208.452 328.24 208.352C328.531 208.248 328.783 208.094 328.996 207.89C329.208 207.686 329.371 207.434 329.483 207.134L331.251 207.453C331.109 207.973 330.855 208.429 330.489 208.821C330.126 209.208 329.67 209.51 329.121 209.727C328.575 209.939 327.952 210.045 327.253 210.045Z" fill="#212528"/>
</g>
<g filter="url(#filter4_d_386_282)">
<rect x="211.481" y="256.296" width="165.37" height="133.481" rx="14.0741" fill="white" shape-rendering="crispEdges"/>
<rect x="211.921" y="256.736" width="164.491" height="132.602" rx="13.6343" stroke="#212528" stroke-width="0.87963" shape-rendering="crispEdges"/>
<path d="M294.167 280.926L280.093 286.204V296.918C280.093 305.802 286.092 314.088 294.167 316.111C302.242 314.088 308.241 305.802 308.241 296.918V286.204L294.167 280.926ZM304.722 296.918C304.722 303.955 300.236 310.464 294.167 312.452C288.097 310.464 283.611 303.972 283.611 296.918V288.508L294.167 284.779L304.722 288.508V296.918ZM288.572 296.038L286.074 298.518L292.302 304.746L302.259 294.789L299.779 292.308L292.319 299.768L288.572 296.038Z" fill="#0080FF"/>
<path d="M265.08 334.233C265.014 333.642 264.739 333.184 264.256 332.859C263.773 332.53 263.165 332.365 262.432 332.365C261.907 332.365 261.453 332.448 261.07 332.615C260.686 332.777 260.389 333.002 260.176 333.29C259.968 333.573 259.864 333.896 259.864 334.258C259.864 334.562 259.935 334.825 260.076 335.045C260.222 335.266 260.412 335.451 260.645 335.601C260.882 335.747 261.136 335.87 261.407 335.97C261.678 336.066 261.938 336.145 262.188 336.207L263.437 336.532C263.846 336.632 264.264 336.767 264.693 336.938C265.122 337.109 265.52 337.334 265.886 337.613C266.253 337.892 266.549 338.238 266.773 338.65C267.003 339.062 267.117 339.556 267.117 340.131C267.117 340.855 266.93 341.499 266.555 342.061C266.184 342.623 265.645 343.067 264.937 343.392C264.233 343.717 263.381 343.879 262.382 343.879C261.424 343.879 260.595 343.727 259.895 343.423C259.195 343.119 258.648 342.688 258.252 342.13C257.856 341.568 257.638 340.901 257.596 340.131H259.533C259.57 340.593 259.72 340.978 259.983 341.286C260.249 341.59 260.589 341.817 261.001 341.967C261.417 342.113 261.873 342.186 262.369 342.186C262.915 342.186 263.4 342.101 263.825 341.93C264.254 341.755 264.591 341.513 264.837 341.205C265.083 340.893 265.205 340.528 265.205 340.112C265.205 339.733 265.097 339.423 264.881 339.181C264.668 338.939 264.379 338.74 264.012 338.581C263.65 338.423 263.24 338.283 262.781 338.163L261.27 337.75C260.245 337.471 259.433 337.061 258.833 336.52C258.237 335.978 257.94 335.262 257.94 334.371C257.94 333.633 258.14 332.99 258.539 332.44C258.939 331.89 259.481 331.463 260.164 331.159C260.847 330.851 261.617 330.697 262.475 330.697C263.342 330.697 264.106 330.849 264.768 331.153C265.434 331.457 265.959 331.876 266.342 332.409C266.726 332.938 266.926 333.546 266.942 334.233H265.08ZM273.41 343.86C272.464 343.86 271.65 343.658 270.967 343.254C270.288 342.846 269.763 342.273 269.393 341.536C269.026 340.795 268.843 339.927 268.843 338.931C268.843 337.948 269.026 337.082 269.393 336.332C269.763 335.583 270.28 334.997 270.942 334.577C271.608 334.156 272.387 333.946 273.279 333.946C273.82 333.946 274.345 334.035 274.853 334.214C275.361 334.393 275.817 334.675 276.221 335.058C276.625 335.441 276.944 335.939 277.177 336.551C277.41 337.159 277.527 337.898 277.527 338.769V339.431H269.899V338.031H275.696C275.696 337.54 275.596 337.105 275.396 336.726C275.196 336.343 274.915 336.041 274.553 335.82C274.195 335.599 273.774 335.489 273.291 335.489C272.766 335.489 272.308 335.618 271.917 335.876C271.529 336.13 271.229 336.463 271.017 336.876C270.809 337.284 270.705 337.727 270.705 338.206V339.3C270.705 339.941 270.817 340.487 271.042 340.937C271.271 341.386 271.59 341.73 271.998 341.967C272.406 342.201 272.883 342.317 273.428 342.317C273.783 342.317 274.105 342.267 274.397 342.167C274.688 342.063 274.94 341.909 275.153 341.705C275.365 341.501 275.528 341.249 275.64 340.949L277.408 341.268C277.266 341.788 277.012 342.244 276.646 342.636C276.284 343.023 275.827 343.325 275.278 343.542C274.732 343.754 274.109 343.86 273.41 343.86ZM283.641 343.86C282.713 343.86 281.913 343.65 281.242 343.229C280.576 342.804 280.064 342.219 279.706 341.474C279.347 340.728 279.168 339.874 279.168 338.912C279.168 337.938 279.352 337.078 279.718 336.332C280.085 335.583 280.601 334.997 281.267 334.577C281.934 334.156 282.719 333.946 283.623 333.946C284.351 333.946 285.001 334.081 285.572 334.352C286.142 334.618 286.603 334.993 286.952 335.476C287.307 335.959 287.517 336.524 287.583 337.169H285.765C285.666 336.72 285.436 336.332 285.078 336.007C284.724 335.682 284.249 335.52 283.654 335.52C283.133 335.52 282.677 335.657 282.286 335.932C281.898 336.203 281.596 336.59 281.38 337.094C281.163 337.594 281.055 338.186 281.055 338.869C281.055 339.568 281.161 340.172 281.374 340.68C281.586 341.189 281.886 341.582 282.273 341.861C282.665 342.14 283.125 342.28 283.654 342.28C284.008 342.28 284.329 342.215 284.616 342.086C284.908 341.953 285.151 341.763 285.347 341.518C285.547 341.272 285.686 340.976 285.765 340.63H287.583C287.517 341.251 287.315 341.805 286.977 342.292C286.64 342.779 286.188 343.163 285.622 343.442C285.06 343.721 284.399 343.86 283.641 343.86ZM295.66 339.687V334.071H297.534V343.667H295.697V342.005H295.597C295.377 342.517 295.023 342.944 294.535 343.286C294.052 343.623 293.45 343.792 292.73 343.792C292.113 343.792 291.568 343.656 291.093 343.385C290.622 343.111 290.252 342.705 289.981 342.167C289.714 341.63 289.581 340.966 289.581 340.174V334.071H291.449V339.949C291.449 340.603 291.63 341.124 291.993 341.511C292.355 341.899 292.826 342.092 293.404 342.092C293.754 342.092 294.102 342.005 294.448 341.83C294.798 341.655 295.087 341.391 295.316 341.036C295.549 340.682 295.664 340.233 295.66 339.687ZM300.044 343.667V334.071H301.849V335.595H301.949C302.124 335.079 302.432 334.672 302.874 334.377C303.32 334.077 303.824 333.927 304.386 333.927C304.502 333.927 304.64 333.931 304.798 333.939C304.961 333.948 305.088 333.958 305.179 333.971V335.757C305.104 335.737 304.971 335.714 304.779 335.689C304.588 335.66 304.396 335.645 304.205 335.645C303.763 335.645 303.37 335.739 303.024 335.926C302.682 336.109 302.412 336.366 302.212 336.695C302.012 337.019 301.912 337.39 301.912 337.807V343.667H300.044ZM310.588 343.86C309.642 343.86 308.828 343.658 308.145 343.254C307.466 342.846 306.941 342.273 306.571 341.536C306.204 340.795 306.021 339.927 306.021 338.931C306.021 337.948 306.204 337.082 306.571 336.332C306.941 335.583 307.458 334.997 308.12 334.577C308.787 334.156 309.565 333.946 310.457 333.946C310.998 333.946 311.523 334.035 312.031 334.214C312.539 334.393 312.995 334.675 313.399 335.058C313.803 335.441 314.122 335.939 314.355 336.551C314.588 337.159 314.705 337.898 314.705 338.769V339.431H307.077V338.031H312.874C312.874 337.54 312.774 337.105 312.575 336.726C312.375 336.343 312.093 336.041 311.731 335.82C311.373 335.599 310.952 335.489 310.469 335.489C309.944 335.489 309.486 335.618 309.095 335.876C308.707 336.13 308.408 336.463 308.195 336.876C307.987 337.284 307.883 337.727 307.883 338.206V339.3C307.883 339.941 307.995 340.487 308.22 340.937C308.449 341.386 308.768 341.73 309.176 341.967C309.584 342.201 310.061 342.317 310.607 342.317C310.961 342.317 311.283 342.267 311.575 342.167C311.866 342.063 312.118 341.909 312.331 341.705C312.543 341.501 312.706 341.249 312.818 340.949L314.586 341.268C314.445 341.788 314.19 342.244 313.824 342.636C313.462 343.023 313.006 343.325 312.456 343.542C311.91 343.754 311.288 343.86 310.588 343.86ZM325.157 343.848C324.299 343.848 323.559 343.692 322.939 343.379C322.322 343.067 321.848 342.642 321.514 342.105C321.181 341.563 321.015 340.951 321.015 340.268C321.015 339.747 321.123 339.285 321.34 338.881C321.556 338.473 321.858 338.096 322.245 337.75C322.633 337.405 323.081 337.057 323.589 336.707L325.65 335.251C326 335.022 326.273 334.781 326.469 334.527C326.664 334.268 326.762 333.95 326.762 333.571C326.762 333.271 326.633 332.984 326.375 332.709C326.117 332.434 325.771 332.296 325.338 332.296C325.038 332.296 324.774 332.369 324.544 332.515C324.32 332.661 324.143 332.848 324.013 333.077C323.888 333.302 323.826 333.54 323.826 333.79C323.826 334.081 323.905 334.375 324.063 334.67C324.226 334.966 324.434 335.272 324.688 335.589C324.942 335.901 325.209 336.226 325.488 336.563L331.429 343.667H329.317L324.401 337.888C323.988 337.401 323.605 336.942 323.251 336.513C322.897 336.08 322.61 335.643 322.389 335.201C322.173 334.756 322.064 334.275 322.064 333.758C322.064 333.171 322.198 332.65 322.464 332.196C322.735 331.738 323.112 331.38 323.595 331.122C324.078 330.864 324.644 330.735 325.294 330.735C325.952 330.735 326.517 330.864 326.987 331.122C327.462 331.376 327.826 331.715 328.08 332.14C328.339 332.561 328.468 333.021 328.468 333.521C328.468 334.129 328.316 334.666 328.012 335.133C327.712 335.595 327.297 336.02 326.769 336.407L324.201 338.3C323.701 338.667 323.353 339.029 323.158 339.387C322.966 339.741 322.87 340.018 322.87 340.218C322.87 340.585 322.964 340.924 323.151 341.236C323.343 341.549 323.609 341.799 323.951 341.986C324.297 342.174 324.701 342.267 325.163 342.267C325.638 342.267 326.1 342.165 326.55 341.961C327.004 341.753 327.414 341.455 327.781 341.068C328.151 340.68 328.445 340.216 328.661 339.675C328.878 339.133 328.986 338.527 328.986 337.857H330.673C330.673 338.681 330.579 339.379 330.392 339.949C330.205 340.516 329.978 340.978 329.711 341.336C329.449 341.69 329.201 341.967 328.968 342.167C328.893 342.234 328.822 342.301 328.755 342.367C328.689 342.434 328.618 342.5 328.543 342.567C328.11 343.004 327.585 343.327 326.968 343.535C326.356 343.744 325.752 343.848 325.157 343.848ZM262.552 364.667V351.872H267.112C268.104 351.872 268.926 352.043 269.58 352.384C270.238 352.726 270.73 353.199 271.054 353.802C271.379 354.402 271.542 355.096 271.542 355.883C271.542 356.666 271.377 357.355 271.048 357.951C270.723 358.542 270.232 359.002 269.574 359.331C268.92 359.66 268.097 359.825 267.106 359.825H263.651V358.163H266.931C267.556 358.163 268.064 358.074 268.456 357.894C268.851 357.715 269.141 357.455 269.324 357.114C269.507 356.772 269.599 356.362 269.599 355.883C269.599 355.4 269.505 354.981 269.318 354.627C269.134 354.273 268.845 354.002 268.449 353.815C268.058 353.623 267.543 353.528 266.906 353.528H264.482V364.667H262.552ZM268.868 358.894L272.029 364.667H269.83L266.731 358.894H268.868ZM277.756 364.86C276.811 364.86 275.997 364.658 275.314 364.254C274.635 363.846 274.11 363.273 273.739 362.536C273.373 361.795 273.19 360.927 273.19 359.931C273.19 358.948 273.373 358.082 273.739 357.332C274.11 356.583 274.626 355.997 275.289 355.577C275.955 355.156 276.734 354.946 277.625 354.946C278.167 354.946 278.691 355.035 279.199 355.214C279.708 355.393 280.164 355.675 280.568 356.058C280.972 356.441 281.29 356.939 281.524 357.551C281.757 358.159 281.873 358.898 281.873 359.769V360.431H274.245V359.031H280.043C280.043 358.54 279.943 358.105 279.743 357.726C279.543 357.343 279.262 357.041 278.9 356.82C278.541 356.599 278.121 356.489 277.638 356.489C277.113 356.489 276.655 356.618 276.263 356.876C275.876 357.13 275.576 357.463 275.364 357.876C275.155 358.284 275.051 358.727 275.051 359.206V360.3C275.051 360.941 275.164 361.487 275.389 361.937C275.618 362.386 275.936 362.73 276.344 362.967C276.753 363.201 277.229 363.317 277.775 363.317C278.129 363.317 278.452 363.267 278.743 363.167C279.035 363.063 279.287 362.909 279.499 362.705C279.712 362.501 279.874 362.249 279.987 361.949L281.755 362.268C281.613 362.788 281.359 363.244 280.992 363.636C280.63 364.023 280.174 364.325 279.624 364.542C279.079 364.754 278.456 364.86 277.756 364.86ZM285.814 351.872V364.667H283.946V351.872H285.814ZM288.327 364.667V355.071H290.195V364.667H288.327ZM289.27 353.59C288.945 353.59 288.666 353.482 288.433 353.265C288.204 353.044 288.09 352.782 288.09 352.478C288.09 352.17 288.204 351.907 288.433 351.691C288.666 351.47 288.945 351.36 289.27 351.36C289.595 351.36 289.872 351.47 290.101 351.691C290.334 351.907 290.451 352.17 290.451 352.478C290.451 352.782 290.334 353.044 290.101 353.265C289.872 353.482 289.595 353.59 289.27 353.59ZM295.5 364.879C294.892 364.879 294.343 364.767 293.851 364.542C293.36 364.313 292.97 363.981 292.683 363.548C292.4 363.115 292.258 362.584 292.258 361.955C292.258 361.414 292.362 360.968 292.57 360.618C292.779 360.268 293.06 359.992 293.414 359.787C293.768 359.583 294.164 359.429 294.601 359.325C295.038 359.221 295.484 359.142 295.938 359.088C296.513 359.021 296.979 358.967 297.337 358.925C297.695 358.879 297.956 358.807 298.118 358.707C298.281 358.607 298.362 358.444 298.362 358.219V358.176C298.362 357.63 298.208 357.207 297.899 356.907C297.595 356.608 297.141 356.458 296.538 356.458C295.909 356.458 295.413 356.597 295.051 356.876C294.692 357.151 294.445 357.457 294.307 357.795L292.552 357.395C292.76 356.812 293.064 356.341 293.464 355.983C293.868 355.62 294.332 355.358 294.857 355.196C295.382 355.029 295.934 354.946 296.513 354.946C296.896 354.946 297.302 354.992 297.731 355.083C298.164 355.171 298.568 355.333 298.943 355.57C299.322 355.808 299.632 356.147 299.874 356.589C300.115 357.026 300.236 357.595 300.236 358.294V364.667H298.412V363.355H298.337C298.216 363.596 298.035 363.834 297.793 364.067C297.552 364.3 297.241 364.494 296.862 364.648C296.483 364.802 296.029 364.879 295.5 364.879ZM295.907 363.38C296.423 363.38 296.864 363.278 297.231 363.074C297.602 362.869 297.883 362.603 298.074 362.274C298.27 361.941 298.368 361.585 298.368 361.206V359.969C298.301 360.035 298.172 360.098 297.981 360.156C297.793 360.21 297.579 360.258 297.337 360.3C297.096 360.337 296.86 360.373 296.631 360.406C296.402 360.435 296.211 360.46 296.056 360.481C295.694 360.527 295.363 360.604 295.063 360.712C294.767 360.82 294.53 360.977 294.351 361.181C294.176 361.381 294.089 361.647 294.089 361.98C294.089 362.443 294.259 362.792 294.601 363.03C294.942 363.263 295.378 363.38 295.907 363.38ZM302.874 364.667V351.872H304.742V356.626H304.854C304.963 356.426 305.119 356.195 305.323 355.933C305.527 355.67 305.81 355.441 306.173 355.246C306.535 355.046 307.014 354.946 307.609 354.946C308.384 354.946 309.075 355.141 309.684 355.533C310.292 355.924 310.768 356.489 311.114 357.226C311.464 357.963 311.639 358.85 311.639 359.887C311.639 360.924 311.466 361.814 311.12 362.555C310.775 363.292 310.3 363.861 309.696 364.261C309.092 364.656 308.403 364.854 307.628 364.854C307.045 364.854 306.568 364.756 306.198 364.56C305.831 364.365 305.544 364.136 305.335 363.873C305.127 363.611 304.967 363.378 304.854 363.174H304.698V364.667H302.874ZM304.704 359.869C304.704 360.543 304.802 361.135 304.998 361.643C305.194 362.151 305.477 362.549 305.848 362.836C306.218 363.119 306.672 363.261 307.21 363.261C307.768 363.261 308.234 363.113 308.609 362.817C308.984 362.518 309.267 362.111 309.459 361.599C309.654 361.087 309.752 360.51 309.752 359.869C309.752 359.236 309.656 358.667 309.465 358.163C309.277 357.659 308.994 357.261 308.615 356.97C308.24 356.678 307.772 356.533 307.21 356.533C306.668 356.533 306.21 356.672 305.835 356.951C305.464 357.23 305.183 357.62 304.992 358.119C304.8 358.619 304.704 359.202 304.704 359.869ZM315.604 351.872V364.667H313.737V351.872H315.604ZM322.253 364.86C321.308 364.86 320.494 364.658 319.811 364.254C319.132 363.846 318.607 363.273 318.236 362.536C317.87 361.795 317.686 360.927 317.686 359.931C317.686 358.948 317.87 358.082 318.236 357.332C318.607 356.583 319.123 355.997 319.786 355.577C320.452 355.156 321.231 354.946 322.122 354.946C322.663 354.946 323.188 355.035 323.696 355.214C324.205 355.393 324.661 355.675 325.065 356.058C325.469 356.441 325.787 356.939 326.02 357.551C326.254 358.159 326.37 358.898 326.37 359.769V360.431H318.742V359.031H324.54C324.54 358.54 324.44 358.105 324.24 357.726C324.04 357.343 323.759 357.041 323.397 356.82C323.038 356.599 322.618 356.489 322.135 356.489C321.61 356.489 321.152 356.618 320.76 356.876C320.373 357.13 320.073 357.463 319.861 357.876C319.652 358.284 319.548 358.727 319.548 359.206V360.3C319.548 360.941 319.661 361.487 319.885 361.937C320.115 362.386 320.433 362.73 320.841 362.967C321.25 363.201 321.726 363.317 322.272 363.317C322.626 363.317 322.949 363.267 323.24 363.167C323.532 363.063 323.784 362.909 323.996 362.705C324.209 362.501 324.371 362.249 324.484 361.949L326.252 362.268C326.11 362.788 325.856 363.244 325.489 363.636C325.127 364.023 324.671 364.325 324.121 364.542C323.576 364.754 322.953 364.86 322.253 364.86Z" fill="#212528"/>
</g>
<defs>
<filter id="filter0_d_386_282" x="25" y="10" width="355.37" height="73.8889" filterUnits="userSpaceOnUse" color-interpolation-filters="sRGB">
<feFlood flood-opacity="0" result="BackgroundImageFix"/>
<feColorMatrix in="SourceAlpha" type="matrix" values="0 0 0 0 0 0 0 0 0 0 0 0 0 0 0 0 0 0 127 0" result="hardAlpha"/>
<feOffset dx="3.51852" dy="3.51852"/>
<feComposite in2="hardAlpha" operator="out"/>
<feColorMatrix type="matrix" values="0 0 0 0 0.690435 0 0 0 0 0.909565 0 0 0 0 0.713043 0 0 0 1 0"/>
<feBlend mode="normal" in2="BackgroundImageFix" result="effect1_dropShadow_386_282"/>
<feBlend mode="normal" in="SourceGraphic" in2="effect1_dropShadow_386_282" result="shape"/>
</filter>
<filter id="filter1_d_386_282" x="25" y="101.481" width="168.889" height="137" filterUnits="userSpaceOnUse" color-interpolation-filters="sRGB">
<feFlood flood-opacity="0" result="BackgroundImageFix"/>
<feColorMatrix in="SourceAlpha" type="matrix" values="0 0 0 0 0 0 0 0 0 0 0 0 0 0 0 0 0 0 127 0" result="hardAlpha"/>
<feOffset dx="3.51852" dy="3.51852"/>
<feComposite in2="hardAlpha" operator="out"/>
<feColorMatrix type="matrix" values="0 0 0 0 0.667568 0 0 0 0 0.8 0 0 0 0 0.932432 0 0 0 1 0"/>
<feBlend mode="normal" in2="BackgroundImageFix" result="effect1_dropShadow_386_282"/>
<feBlend mode="normal" in="SourceGraphic" in2="effect1_dropShadow_386_282" result="shape"/>
</filter>
<filter id="filter2_d_386_282" x="25" y="256.296" width="168.889" height="137" filterUnits="userSpaceOnUse" color-interpolation-filters="sRGB">
<feFlood flood-opacity="0" result="BackgroundImageFix"/>
<feColorMatrix in="SourceAlpha" type="matrix" values="0 0 0 0 0 0 0 0 0 0 0 0 0 0 0 0 0 0 127 0" result="hardAlpha"/>
<feOffset dx="3.51852" dy="3.51852"/>
<feComposite in2="hardAlpha" operator="out"/>
<feColorMatrix type="matrix" values="0 0 0 0 0.932432 0 0 0 0 0.842378 0 0 0 0 0.667568 0 0 0 1 0"/>
<feBlend mode="normal" in2="BackgroundImageFix" result="effect1_dropShadow_386_282"/>
<feBlend mode="normal" in="SourceGraphic" in2="effect1_dropShadow_386_282" result="shape"/>
</filter>
<filter id="filter3_d_386_282" x="211.481" y="101.481" width="168.889" height="137" filterUnits="userSpaceOnUse" color-interpolation-filters="sRGB">
<feFlood flood-opacity="0" result="BackgroundImageFix"/>
<feColorMatrix in="SourceAlpha" type="matrix" values="0 0 0 0 0 0 0 0 0 0 0 0 0 0 0 0 0 0 127 0" result="hardAlpha"/>
<feOffset dx="3.51852" dy="3.51852"/>
<feComposite in2="hardAlpha" operator="out"/>
<feColorMatrix type="matrix" values="0 0 0 0 0.932432 0 0 0 0 0.842378 0 0 0 0 0.667568 0 0 0 1 0"/>
<feBlend mode="normal" in2="BackgroundImageFix" result="effect1_dropShadow_386_282"/>
<feBlend mode="normal" in="SourceGraphic" in2="effect1_dropShadow_386_282" result="shape"/>
</filter>
<filter id="filter4_d_386_282" x="211.481" y="256.296" width="168.889" height="137" filterUnits="userSpaceOnUse" color-interpolation-filters="sRGB">
<feFlood flood-opacity="0" result="BackgroundImageFix"/>
<feColorMatrix in="SourceAlpha" type="matrix" values="0 0 0 0 0 0 0 0 0 0 0 0 0 0 0 0 0 0 127 0" result="hardAlpha"/>
<feOffset dx="3.51852" dy="3.51852"/>
<feComposite in2="hardAlpha" operator="out"/>
<feColorMatrix type="matrix" values="0 0 0 0 0.667568 0 0 0 0 0.8 0 0 0 0 0.932432 0 0 0 1 0"/>
<feBlend mode="normal" in2="BackgroundImageFix" result="effect1_dropShadow_386_282"/>
<feBlend mode="normal" in="SourceGraphic" in2="effect1_dropShadow_386_282" result="shape"/>
</filter>
</defs>
</svg>
