<svg width="500" height="500" viewBox="0 0 500 500" fill="none" xmlns="http://www.w3.org/2000/svg">
<rect width="500" height="500" rx="8" fill="#E9ECFF"/>
<rect x="24.48" y="80.4918" width="451.04" height="339.017" rx="7.36993" fill="white"/>
<rect x="24.48" y="80.4918" width="451.04" height="339.017" rx="7.36993" stroke="#D5D9DC" stroke-width="0.982658"/>
<path d="M53.3898 112.971C52.4334 112.971 51.5359 112.795 50.6973 112.441C49.8719 112.074 49.1447 111.57 48.5158 110.928C47.9 110.286 47.4153 109.539 47.0615 108.687C46.7078 107.835 46.5309 106.918 46.5309 105.936C46.5309 104.953 46.7078 104.042 47.0615 103.204C47.4153 102.352 47.9066 101.605 48.5355 100.963C49.1644 100.321 49.8981 99.8235 50.7367 99.4697C51.5883 99.116 52.512 98.9391 53.5077 98.9391C54.5952 98.9391 55.5975 99.1487 56.5147 99.568C57.4318 99.9872 58.1983 100.59 58.8141 101.376L57.5366 102.654C57.1043 102.025 56.5343 101.546 55.8268 101.219C55.1193 100.878 54.3463 100.708 53.5077 100.708C52.512 100.708 51.6276 100.931 50.8546 101.376C50.0946 101.822 49.4985 102.437 49.0661 103.223C48.6469 104.01 48.4372 104.914 48.4372 105.936C48.4372 106.971 48.6534 107.881 49.0858 108.667C49.5182 109.454 50.1012 110.069 50.8349 110.515C51.5686 110.96 52.4072 111.183 53.3505 111.183C54.307 111.183 55.1324 111 55.8268 110.633C56.5343 110.266 57.0781 109.729 57.458 109.021C57.838 108.301 58.028 107.423 58.028 106.388L59.1482 107.193H53.2523V105.503H59.9343V105.778C59.9343 107.364 59.6526 108.694 59.0892 109.768C58.539 110.829 57.7659 111.628 56.7702 112.166C55.7875 112.703 54.6607 112.971 53.3898 112.971ZM62.1244 112.775V103.44H63.8932V112.775H62.1244ZM63.0088 101.573C62.6813 101.573 62.4127 101.468 62.203 101.258C61.9934 101.035 61.8886 100.76 61.8886 100.433C61.8886 100.118 61.9934 99.8562 62.203 99.6466C62.4127 99.4239 62.6813 99.3125 63.0088 99.3125C63.3364 99.3125 63.605 99.4239 63.8146 99.6466C64.0242 99.8562 64.129 100.118 64.129 100.433C64.129 100.76 64.0242 101.035 63.8146 101.258C63.605 101.468 63.3364 101.573 63.0088 101.573ZM70.4501 112.971C69.5854 112.971 68.8124 112.762 68.1311 112.343C67.4498 111.91 66.906 111.327 66.4999 110.593C66.1068 109.86 65.9103 109.034 65.9103 108.117C65.9103 107.2 66.1068 106.375 66.4999 105.641C66.906 104.907 67.4498 104.324 68.1311 103.892C68.8124 103.459 69.5854 103.243 70.4501 103.243C71.1446 103.243 71.7735 103.394 72.3369 103.695C72.9002 103.983 73.3523 104.39 73.6929 104.914C74.0467 105.425 74.2432 106.021 74.2825 106.702V109.512C74.2432 110.181 74.0532 110.777 73.7126 111.301C73.3719 111.825 72.9199 112.238 72.3565 112.539C71.7931 112.827 71.1577 112.971 70.4501 112.971ZM70.7449 111.301C71.3345 111.301 71.8455 111.163 72.2779 110.888C72.7234 110.613 73.0706 110.24 73.3195 109.768C73.5684 109.283 73.6929 108.733 73.6929 108.117C73.6929 107.475 73.5619 106.918 73.2999 106.447C73.0509 105.975 72.7037 105.602 72.2582 105.326C71.8259 105.051 71.3149 104.914 70.7253 104.914C70.1357 104.914 69.6182 105.051 69.1727 105.326C68.7272 105.602 68.3735 105.981 68.1114 106.466C67.8625 106.938 67.738 107.482 67.738 108.097C67.738 108.726 67.8625 109.283 68.1114 109.768C68.3735 110.24 68.7272 110.613 69.1727 110.888C69.6313 111.163 70.1554 111.301 70.7449 111.301ZM75.3634 112.775H73.575V110.259L73.9091 107.98L73.575 105.719V98.7425H75.3634V112.775ZM81.8889 112.971C81.0242 112.971 80.2511 112.762 79.5698 112.343C78.8885 111.91 78.3448 111.327 77.9386 110.593C77.5455 109.86 77.349 109.034 77.349 108.117C77.349 107.2 77.5455 106.375 77.9386 105.641C78.3448 104.907 78.8885 104.324 79.5698 103.892C80.2511 103.459 81.0242 103.243 81.8889 103.243C82.5833 103.243 83.2122 103.394 83.7756 103.695C84.339 103.983 84.791 104.39 85.1317 104.914C85.4854 105.425 85.682 106.021 85.7213 106.702V109.512C85.682 110.181 85.492 110.777 85.1513 111.301C84.8107 111.825 84.3586 112.238 83.7953 112.539C83.2319 112.827 82.5964 112.971 81.8889 112.971ZM82.1837 111.301C82.7733 111.301 83.2843 111.163 83.7166 110.888C84.1621 110.613 84.5093 110.24 84.7583 109.768C85.0072 109.283 85.1317 108.733 85.1317 108.117C85.1317 107.475 85.0006 106.918 84.7386 106.447C84.4897 105.975 84.1425 105.602 83.697 105.326C83.2646 105.051 82.7536 104.914 82.164 104.914C81.5744 104.914 81.0569 105.051 80.6114 105.326C80.166 105.602 79.8122 105.981 79.5502 106.466C79.3012 106.938 79.1768 107.482 79.1768 108.097C79.1768 108.726 79.3012 109.283 79.5502 109.768C79.8122 110.24 80.166 110.613 80.6114 110.888C81.07 111.163 81.5941 111.301 82.1837 111.301ZM86.8022 112.775H85.0137V110.259L85.3479 107.98L85.0137 105.719V98.7425H86.8022V112.775ZM95.9808 112.775V107.331C95.9808 106.623 95.7581 106.04 95.3126 105.582C94.8671 105.123 94.2907 104.894 93.5831 104.894C93.1115 104.894 92.6922 104.999 92.3253 105.208C91.9585 105.418 91.6702 105.706 91.4606 106.073C91.251 106.44 91.1461 106.859 91.1461 107.331L90.419 106.918C90.419 106.211 90.5762 105.582 90.8907 105.032C91.2051 104.481 91.644 104.049 92.2074 103.734C92.7708 103.407 93.4063 103.243 94.1138 103.243C94.8213 103.243 95.4436 103.4 95.9808 103.715C96.5311 104.029 96.9635 104.468 97.2779 105.032C97.5924 105.595 97.7496 106.244 97.7496 106.977V112.775H95.9808ZM89.3774 112.775V98.7425H91.1461V112.775H89.3774ZM110.718 112.971C109.761 112.971 108.864 112.795 108.025 112.441C107.2 112.074 106.473 111.57 105.844 110.928C105.228 110.286 104.743 109.539 104.39 108.687C104.036 107.835 103.859 106.918 103.859 105.936C103.859 104.953 104.036 104.042 104.39 103.204C104.743 102.352 105.235 101.605 105.864 100.963C106.492 100.321 107.226 99.8235 108.065 99.4697C108.916 99.116 109.84 98.9391 110.836 98.9391C111.923 98.9391 112.926 99.1487 113.843 99.568C114.76 99.9872 115.526 100.59 116.142 101.376L114.865 102.654C114.432 102.025 113.862 101.546 113.155 101.219C112.447 100.878 111.674 100.708 110.836 100.708C109.84 100.708 108.956 100.931 108.183 101.376C107.423 101.822 106.827 102.437 106.394 103.223C105.975 104.01 105.765 104.914 105.765 105.936C105.765 106.971 105.982 107.881 106.414 108.667C106.846 109.454 107.429 110.069 108.163 110.515C108.897 110.96 109.735 111.183 110.679 111.183C111.635 111.183 112.461 111 113.155 110.633C113.862 110.266 114.406 109.729 114.786 109.021C115.166 108.301 115.356 107.423 115.356 106.388L116.476 107.193H110.58V105.503H117.262V105.778C117.262 107.364 116.981 108.694 116.417 109.768C115.867 110.829 115.094 111.628 114.098 112.166C113.116 112.703 111.989 112.971 110.718 112.971ZM123.272 112.971C122.197 112.971 121.28 112.775 120.52 112.382C119.76 111.989 119.086 111.419 118.496 110.672L119.754 109.414C120.186 110.017 120.684 110.475 121.247 110.79C121.811 111.091 122.505 111.242 123.331 111.242C124.143 111.242 124.792 111.065 125.276 110.711C125.774 110.358 126.023 109.873 126.023 109.257C126.023 108.746 125.905 108.333 125.669 108.019C125.434 107.704 125.113 107.449 124.706 107.252C124.313 107.043 123.881 106.859 123.409 106.702C122.938 106.532 122.466 106.355 121.994 106.171C121.523 105.975 121.09 105.739 120.697 105.464C120.304 105.176 119.983 104.802 119.734 104.344C119.498 103.885 119.38 103.309 119.38 102.614C119.38 101.841 119.564 101.186 119.931 100.649C120.311 100.099 120.822 99.6793 121.464 99.3911C122.119 99.0898 122.852 98.9391 123.665 98.9391C124.556 98.9391 125.355 99.116 126.062 99.4697C126.77 99.8104 127.346 100.262 127.792 100.826L126.534 102.084C126.128 101.612 125.689 101.258 125.217 101.022C124.759 100.786 124.228 100.669 123.625 100.669C122.892 100.669 122.309 100.832 121.876 101.16C121.444 101.474 121.228 101.92 121.228 102.496C121.228 102.955 121.346 103.328 121.582 103.617C121.83 103.892 122.151 104.128 122.545 104.324C122.938 104.521 123.37 104.704 123.842 104.874C124.326 105.032 124.805 105.208 125.276 105.405C125.748 105.602 126.18 105.85 126.573 106.152C126.966 106.453 127.281 106.846 127.517 107.331C127.766 107.803 127.89 108.399 127.89 109.119C127.89 110.325 127.471 111.268 126.632 111.949C125.807 112.631 124.687 112.971 123.272 112.971ZM133.363 112.775V99.5287H135.21V112.775H133.363ZM128.725 100.826V99.1356H139.829V100.826H128.725ZM145.811 112.775V99.1356H147.658V112.775H145.811ZM157.167 112.775V107.331C157.167 106.623 156.944 106.04 156.498 105.582C156.053 105.123 155.476 104.894 154.769 104.894C154.297 104.894 153.878 104.999 153.511 105.208C153.144 105.418 152.856 105.706 152.646 106.073C152.437 106.44 152.332 106.859 152.332 107.331L151.605 106.918C151.605 106.211 151.762 105.582 152.076 105.032C152.391 104.481 152.83 104.049 153.393 103.734C153.957 103.407 154.592 103.243 155.3 103.243C156.007 103.243 156.629 103.42 157.167 103.774C157.717 104.128 158.149 104.593 158.464 105.169C158.778 105.733 158.935 106.335 158.935 106.977V112.775H157.167ZM150.563 112.775V103.44H152.332V112.775H150.563ZM164.534 112.775L160.249 103.44H162.215L165.654 111.321H164.514L167.973 103.44H169.86L165.575 112.775H164.534ZM175.268 112.971C174.351 112.971 173.525 112.755 172.792 112.323C172.058 111.891 171.475 111.307 171.043 110.574C170.61 109.827 170.394 108.995 170.394 108.078C170.394 107.174 170.61 106.361 171.043 105.641C171.475 104.907 172.058 104.324 172.792 103.892C173.525 103.459 174.351 103.243 175.268 103.243C176.172 103.243 176.991 103.459 177.725 103.892C178.471 104.311 179.061 104.887 179.493 105.621C179.926 106.355 180.142 107.174 180.142 108.078C180.142 108.995 179.926 109.827 179.493 110.574C179.061 111.307 178.471 111.891 177.725 112.323C176.991 112.755 176.172 112.971 175.268 112.971ZM175.268 111.262C175.858 111.262 176.382 111.124 176.84 110.849C177.299 110.574 177.659 110.2 177.921 109.729C178.183 109.244 178.314 108.694 178.314 108.078C178.314 107.475 178.177 106.938 177.901 106.466C177.639 105.995 177.279 105.628 176.821 105.366C176.375 105.091 175.858 104.953 175.268 104.953C174.678 104.953 174.154 105.091 173.696 105.366C173.237 105.628 172.877 105.995 172.615 106.466C172.353 106.938 172.222 107.475 172.222 108.078C172.222 108.694 172.353 109.244 172.615 109.729C172.877 110.2 173.237 110.574 173.696 110.849C174.154 111.124 174.678 111.262 175.268 111.262ZM182.155 112.775V103.44H183.923V112.775H182.155ZM183.039 101.573C182.711 101.573 182.443 101.468 182.233 101.258C182.024 101.035 181.919 100.76 181.919 100.433C181.919 100.118 182.024 99.8562 182.233 99.6466C182.443 99.4239 182.711 99.3125 183.039 99.3125C183.366 99.3125 183.635 99.4239 183.845 99.6466C184.054 99.8562 184.159 100.118 184.159 100.433C184.159 100.76 184.054 101.035 183.845 101.258C183.635 101.468 183.366 101.573 183.039 101.573ZM190.795 112.971C189.878 112.971 189.046 112.755 188.299 112.323C187.565 111.891 186.982 111.307 186.55 110.574C186.13 109.827 185.921 109.001 185.921 108.097C185.921 107.18 186.13 106.355 186.55 105.621C186.982 104.887 187.565 104.311 188.299 103.892C189.046 103.459 189.878 103.243 190.795 103.243C191.515 103.243 192.184 103.381 192.799 103.656C193.415 103.918 193.946 104.304 194.391 104.815L193.212 105.995C192.924 105.654 192.57 105.398 192.151 105.228C191.745 105.045 191.293 104.953 190.795 104.953C190.205 104.953 189.681 105.091 189.222 105.366C188.764 105.628 188.404 105.995 188.142 106.466C187.879 106.938 187.748 107.482 187.748 108.097C187.748 108.713 187.879 109.257 188.142 109.729C188.404 110.2 188.764 110.574 189.222 110.849C189.681 111.124 190.205 111.262 190.795 111.262C191.293 111.262 191.745 111.176 192.151 111.006C192.57 110.823 192.93 110.561 193.232 110.22L194.391 111.399C193.959 111.897 193.428 112.284 192.799 112.559C192.184 112.834 191.515 112.971 190.795 112.971ZM196.165 112.775V103.44H197.934V112.775H196.165ZM197.049 101.573C196.722 101.573 196.453 101.468 196.244 101.258C196.034 101.035 195.929 100.76 195.929 100.433C195.929 100.118 196.034 99.8562 196.244 99.6466C196.453 99.4239 196.722 99.3125 197.049 99.3125C197.377 99.3125 197.646 99.4239 197.855 99.6466C198.065 99.8562 198.17 100.118 198.17 100.433C198.17 100.76 198.065 101.035 197.855 101.258C197.646 101.468 197.377 101.573 197.049 101.573ZM207.144 112.775V107.331C207.144 106.623 206.921 106.04 206.476 105.582C206.03 105.123 205.454 104.894 204.746 104.894C204.275 104.894 203.855 104.999 203.488 105.208C203.122 105.418 202.833 105.706 202.624 106.073C202.414 106.44 202.309 106.859 202.309 107.331L201.582 106.918C201.582 106.211 201.739 105.582 202.054 105.032C202.368 104.481 202.807 104.049 203.371 103.734C203.934 103.407 204.569 103.243 205.277 103.243C205.984 103.243 206.607 103.42 207.144 103.774C207.694 104.128 208.127 104.593 208.441 105.169C208.756 105.733 208.913 106.335 208.913 106.977V112.775H207.144ZM200.541 112.775V103.44H202.309V112.775H200.541ZM215.179 116.882C214.223 116.882 213.371 116.706 212.624 116.352C211.891 115.998 211.301 115.5 210.856 114.858L211.995 113.699C212.375 114.183 212.827 114.55 213.351 114.799C213.876 115.061 214.498 115.192 215.219 115.192C216.175 115.192 216.928 114.937 217.479 114.426C218.042 113.928 218.324 113.253 218.324 112.401V110.082L218.638 107.98L218.324 105.896V103.44H220.092V112.401C220.092 113.292 219.883 114.072 219.464 114.74C219.057 115.408 218.481 115.933 217.734 116.312C217 116.692 216.149 116.882 215.179 116.882ZM215.179 112.618C214.328 112.618 213.561 112.415 212.88 112.008C212.212 111.602 211.681 111.045 211.288 110.338C210.895 109.617 210.698 108.812 210.698 107.921C210.698 107.03 210.895 106.237 211.288 105.543C211.681 104.835 212.212 104.278 212.88 103.872C213.561 103.453 214.328 103.243 215.179 103.243C215.913 103.243 216.561 103.387 217.125 103.675C217.688 103.964 218.134 104.37 218.461 104.894C218.802 105.405 218.985 106.008 219.012 106.702V109.178C218.972 109.86 218.782 110.462 218.442 110.986C218.114 111.497 217.669 111.897 217.105 112.185C216.542 112.474 215.9 112.618 215.179 112.618ZM215.533 110.947C216.109 110.947 216.614 110.823 217.046 110.574C217.492 110.325 217.832 109.978 218.068 109.532C218.304 109.074 218.422 108.543 218.422 107.94C218.422 107.338 218.298 106.813 218.049 106.368C217.813 105.909 217.479 105.556 217.046 105.307C216.614 105.045 216.103 104.914 215.513 104.914C214.924 104.914 214.406 105.045 213.961 105.307C213.515 105.556 213.161 105.909 212.899 106.368C212.65 106.813 212.526 107.331 212.526 107.921C212.526 108.51 212.65 109.034 212.899 109.493C213.161 109.951 213.515 110.312 213.961 110.574C214.419 110.823 214.943 110.947 215.533 110.947Z" fill="black"/>
<rect x="316.821" y="95.4482" width="137.572" height="19.6532" rx="1.96532" fill="#1A237E"/>
<path d="M345.204 108.865C344.709 108.865 344.288 108.775 343.938 108.594C343.588 108.413 343.278 108.151 343.007 107.808L343.585 107.229C343.784 107.506 344.013 107.717 344.272 107.862C344.532 108 344.851 108.07 345.231 108.07C345.604 108.07 345.903 107.988 346.126 107.826C346.355 107.663 346.469 107.44 346.469 107.157C346.469 106.922 346.415 106.732 346.307 106.587C346.198 106.442 346.05 106.325 345.864 106.235C345.683 106.138 345.484 106.054 345.267 105.981C345.05 105.903 344.833 105.822 344.616 105.737C344.399 105.647 344.2 105.538 344.019 105.412C343.839 105.279 343.691 105.107 343.576 104.897C343.468 104.686 343.414 104.42 343.414 104.101C343.414 103.745 343.498 103.444 343.667 103.197C343.842 102.944 344.077 102.751 344.372 102.618C344.673 102.48 345.011 102.41 345.384 102.41C345.794 102.41 346.162 102.492 346.487 102.655C346.813 102.811 347.078 103.019 347.283 103.278L346.704 103.857C346.518 103.64 346.316 103.477 346.099 103.369C345.888 103.26 345.644 103.206 345.366 103.206C345.029 103.206 344.761 103.281 344.562 103.432C344.363 103.577 344.263 103.782 344.263 104.047C344.263 104.258 344.318 104.429 344.426 104.562C344.541 104.689 344.688 104.797 344.869 104.888C345.05 104.978 345.249 105.062 345.466 105.141C345.689 105.213 345.909 105.294 346.126 105.385C346.343 105.475 346.542 105.59 346.722 105.728C346.903 105.867 347.048 106.048 347.156 106.271C347.271 106.488 347.328 106.762 347.328 107.093C347.328 107.648 347.135 108.082 346.75 108.395C346.37 108.709 345.855 108.865 345.204 108.865ZM348.989 108.775V102.682H349.802V108.775H348.989ZM347.931 105.222V104.481H350.86V105.222H347.931ZM353.351 108.865C352.959 108.865 352.604 108.769 352.284 108.576C351.965 108.377 351.712 108.109 351.525 107.771C351.344 107.434 351.254 107.054 351.254 106.632C351.254 106.21 351.344 105.831 351.525 105.493C351.712 105.156 351.962 104.888 352.275 104.689C352.595 104.49 352.953 104.39 353.351 104.39C353.676 104.39 353.966 104.46 354.219 104.598C354.478 104.731 354.686 104.918 354.843 105.159C354.999 105.394 355.087 105.668 355.105 105.981V107.274C355.087 107.582 354.999 107.856 354.843 108.097C354.692 108.338 354.487 108.528 354.228 108.666C353.975 108.799 353.682 108.865 353.351 108.865ZM353.487 108.097C353.89 108.097 354.216 107.961 354.463 107.69C354.71 107.413 354.834 107.06 354.834 106.632C354.834 106.337 354.776 106.081 354.662 105.864C354.553 105.641 354.397 105.469 354.192 105.349C353.987 105.222 353.749 105.159 353.477 105.159C353.206 105.159 352.965 105.222 352.754 105.349C352.549 105.475 352.387 105.65 352.266 105.873C352.152 106.09 352.094 106.34 352.094 106.623C352.094 106.913 352.152 107.169 352.266 107.392C352.387 107.609 352.552 107.78 352.763 107.907C352.974 108.034 353.215 108.097 353.487 108.097ZM354.779 108.775V107.618L354.933 106.569L354.779 105.529V104.481H355.602V108.775H354.779ZM356.787 108.775V104.481H357.6V108.775H356.787ZM357.6 106.325L357.293 106.189C357.293 105.641 357.419 105.204 357.673 104.878C357.926 104.553 358.29 104.39 358.766 104.39C358.983 104.39 359.179 104.429 359.354 104.508C359.529 104.58 359.692 104.704 359.842 104.878L359.309 105.43C359.218 105.334 359.119 105.264 359.011 105.222C358.902 105.18 358.775 105.159 358.631 105.159C358.329 105.159 358.082 105.255 357.889 105.448C357.697 105.641 357.6 105.933 357.6 106.325ZM361.057 108.775V102.682H361.871V108.775H361.057ZM360 105.222V104.481H362.929V105.222H360ZM366.836 108.775L365.136 104.481H365.986L367.216 107.826H366.944L368.165 104.481H368.635L369.855 107.826H369.584L370.814 104.481H371.663L369.973 108.775H369.494L368.255 105.529H368.553L367.306 108.775H366.836ZM372.325 108.775V104.481H373.139V108.775H372.325ZM372.732 103.622C372.581 103.622 372.458 103.574 372.361 103.477C372.265 103.375 372.217 103.248 372.217 103.097C372.217 102.953 372.265 102.832 372.361 102.736C372.458 102.633 372.581 102.582 372.732 102.582C372.883 102.582 373.006 102.633 373.103 102.736C373.199 102.832 373.247 102.953 373.247 103.097C373.247 103.248 373.199 103.375 373.103 103.477C373.006 103.574 372.883 103.622 372.732 103.622ZM374.998 108.775V102.682H375.811V108.775H374.998ZM373.94 105.222V104.481H376.869V105.222H373.94ZM380.704 108.775V106.271C380.704 105.945 380.601 105.677 380.396 105.466C380.191 105.255 379.926 105.15 379.601 105.15C379.384 105.15 379.191 105.198 379.022 105.294C378.853 105.391 378.721 105.523 378.624 105.692C378.528 105.861 378.48 106.054 378.48 106.271L378.145 106.081C378.145 105.755 378.218 105.466 378.362 105.213C378.507 104.96 378.709 104.761 378.968 104.616C379.227 104.466 379.519 104.39 379.845 104.39C380.17 104.39 380.457 104.463 380.704 104.607C380.957 104.752 381.156 104.954 381.3 105.213C381.445 105.472 381.517 105.77 381.517 106.108V108.775H380.704ZM377.666 108.775V102.32H378.48V108.775H377.666ZM386.326 108.865C385.934 108.865 385.578 108.769 385.259 108.576C384.939 108.377 384.686 108.109 384.499 107.771C384.319 107.434 384.228 107.054 384.228 106.632C384.228 106.21 384.319 105.831 384.499 105.493C384.686 105.156 384.936 104.888 385.25 104.689C385.569 104.49 385.928 104.39 386.326 104.39C386.651 104.39 386.94 104.46 387.193 104.598C387.453 104.731 387.661 104.918 387.817 105.159C387.974 105.394 388.061 105.668 388.079 105.981V107.274C388.061 107.582 387.974 107.856 387.817 108.097C387.667 108.338 387.462 108.528 387.203 108.666C386.949 108.799 386.657 108.865 386.326 108.865ZM386.461 108.097C386.865 108.097 387.19 107.961 387.438 107.69C387.685 107.413 387.808 107.06 387.808 106.632C387.808 106.337 387.751 106.081 387.636 105.864C387.528 105.641 387.371 105.469 387.166 105.349C386.961 105.222 386.723 105.159 386.452 105.159C386.181 105.159 385.94 105.222 385.729 105.349C385.524 105.475 385.361 105.65 385.241 105.873C385.126 106.09 385.069 106.34 385.069 106.623C385.069 106.913 385.126 107.169 385.241 107.392C385.361 107.609 385.527 107.78 385.738 107.907C385.949 108.034 386.19 108.097 386.461 108.097ZM387.754 108.775V107.618L387.908 106.569L387.754 105.529V104.481H388.577V108.775H387.754ZM393.309 108.775V102.682H394.158V108.775H393.309ZM391.175 103.278V102.501H396.283V103.278H391.175ZM397.948 108.865C397.52 108.865 397.134 108.769 396.791 108.576C396.447 108.377 396.176 108.109 395.977 107.771C395.778 107.434 395.679 107.051 395.679 106.623C395.679 106.201 395.775 105.822 395.968 105.484C396.167 105.147 396.432 104.881 396.764 104.689C397.101 104.49 397.478 104.39 397.894 104.39C398.291 104.39 398.641 104.481 398.942 104.661C399.25 104.842 399.488 105.092 399.656 105.412C399.831 105.731 399.919 106.093 399.919 106.497C399.919 106.557 399.916 106.623 399.91 106.696C399.904 106.762 399.892 106.84 399.873 106.931H396.248V106.253H399.439L399.141 106.515C399.141 106.225 399.09 105.981 398.987 105.783C398.885 105.578 398.74 105.421 398.554 105.312C398.367 105.198 398.141 105.141 397.875 105.141C397.598 105.141 397.354 105.201 397.143 105.321C396.932 105.442 396.77 105.611 396.655 105.828C396.541 106.045 396.483 106.301 396.483 106.596C396.483 106.898 396.544 107.163 396.664 107.392C396.785 107.615 396.956 107.789 397.179 107.916C397.402 108.037 397.659 108.097 397.948 108.097C398.189 108.097 398.409 108.055 398.608 107.97C398.813 107.886 398.987 107.759 399.132 107.591L399.656 108.124C399.452 108.365 399.198 108.549 398.897 108.675C398.602 108.802 398.285 108.865 397.948 108.865ZM400.806 108.775V104.481H401.619V108.775H400.806ZM403.708 108.775V106.18C403.708 105.861 403.608 105.611 403.409 105.43C403.217 105.243 402.972 105.15 402.677 105.15C402.478 105.15 402.3 105.192 402.144 105.276C401.987 105.361 401.861 105.478 401.764 105.629C401.668 105.779 401.619 105.96 401.619 106.171L401.285 106.009C401.285 105.683 401.354 105.4 401.493 105.159C401.638 104.918 401.833 104.731 402.08 104.598C402.328 104.46 402.605 104.39 402.912 104.39C403.214 104.39 403.485 104.457 403.726 104.589C403.973 104.722 404.166 104.909 404.304 105.15C404.449 105.391 404.521 105.677 404.521 106.009V108.775H403.708ZM406.61 108.775V106.18C406.61 105.861 406.51 105.611 406.311 105.43C406.119 105.243 405.877 105.15 405.588 105.15C405.389 105.15 405.208 105.192 405.046 105.276C404.889 105.361 404.762 105.478 404.666 105.629C404.57 105.779 404.521 105.96 404.521 106.171L404.06 106.009C404.078 105.677 404.166 105.394 404.323 105.159C404.485 104.918 404.693 104.731 404.946 104.598C405.199 104.46 405.477 104.39 405.778 104.39C406.091 104.39 406.372 104.457 406.619 104.589C406.866 104.722 407.062 104.909 407.206 105.15C407.357 105.391 407.432 105.68 407.432 106.018V108.775H406.61ZM410.8 108.865C410.474 108.865 410.179 108.799 409.914 108.666C409.655 108.528 409.447 108.338 409.29 108.097C409.133 107.856 409.046 107.582 409.028 107.274V105.981C409.046 105.668 409.133 105.394 409.29 105.159C409.453 104.918 409.664 104.731 409.923 104.598C410.188 104.46 410.48 104.39 410.8 104.39C411.191 104.39 411.544 104.49 411.857 104.689C412.177 104.888 412.427 105.156 412.608 105.493C412.789 105.831 412.879 106.21 412.879 106.632C412.879 107.054 412.789 107.434 412.608 107.771C412.427 108.109 412.177 108.377 411.857 108.576C411.544 108.769 411.191 108.865 410.8 108.865ZM408.54 110.574V104.481H409.353V105.611L409.2 106.65L409.353 107.699V110.574H408.54ZM410.664 108.097C410.935 108.097 411.173 108.034 411.378 107.907C411.583 107.78 411.746 107.609 411.867 107.392C411.987 107.169 412.047 106.913 412.047 106.623C412.047 106.34 411.987 106.087 411.867 105.864C411.746 105.641 411.583 105.469 411.378 105.349C411.173 105.222 410.938 105.159 410.673 105.159C410.402 105.159 410.164 105.222 409.959 105.349C409.754 105.469 409.594 105.641 409.48 105.864C409.365 106.087 409.308 106.343 409.308 106.632C409.308 106.916 409.362 107.169 409.471 107.392C409.585 107.609 409.745 107.78 409.95 107.907C410.161 108.034 410.399 108.097 410.664 108.097ZM413.801 108.775V102.32H414.615V108.775H413.801ZM417.632 108.865C417.24 108.865 416.884 108.769 416.565 108.576C416.245 108.377 415.992 108.109 415.806 107.771C415.625 107.434 415.534 107.054 415.534 106.632C415.534 106.21 415.625 105.831 415.806 105.493C415.992 105.156 416.242 104.888 416.556 104.689C416.875 104.49 417.234 104.39 417.632 104.39C417.957 104.39 418.246 104.46 418.5 104.598C418.759 104.731 418.967 104.918 419.123 105.159C419.28 105.394 419.367 105.668 419.386 105.981V107.274C419.367 107.582 419.28 107.856 419.123 108.097C418.973 108.338 418.768 108.528 418.509 108.666C418.255 108.799 417.963 108.865 417.632 108.865ZM417.767 108.097C418.171 108.097 418.497 107.961 418.744 107.69C418.991 107.413 419.114 107.06 419.114 106.632C419.114 106.337 419.057 106.081 418.943 105.864C418.834 105.641 418.677 105.469 418.472 105.349C418.268 105.222 418.029 105.159 417.758 105.159C417.487 105.159 417.246 105.222 417.035 105.349C416.83 105.475 416.667 105.65 416.547 105.873C416.432 106.09 416.375 106.34 416.375 106.623C416.375 106.913 416.432 107.169 416.547 107.392C416.667 107.609 416.833 107.78 417.044 107.907C417.255 108.034 417.496 108.097 417.767 108.097ZM419.06 108.775V107.618L419.214 106.569L419.06 105.529V104.481H419.883V108.775H419.06ZM421.71 108.775V102.682H422.523V108.775H421.71ZM420.652 105.222V104.481H423.581V105.222H420.652ZM426.235 108.865C425.807 108.865 425.421 108.769 425.077 108.576C424.734 108.377 424.463 108.109 424.264 107.771C424.065 107.434 423.965 107.051 423.965 106.623C423.965 106.201 424.062 105.822 424.255 105.484C424.454 105.147 424.719 104.881 425.05 104.689C425.388 104.49 425.764 104.39 426.18 104.39C426.578 104.39 426.928 104.481 427.229 104.661C427.536 104.842 427.774 105.092 427.943 105.412C428.118 105.731 428.205 106.093 428.205 106.497C428.205 106.557 428.202 106.623 428.196 106.696C428.19 106.762 428.178 106.84 428.16 106.931H424.535V106.253H427.726L427.428 106.515C427.428 106.225 427.377 105.981 427.274 105.783C427.172 105.578 427.027 105.421 426.84 105.312C426.653 105.198 426.427 105.141 426.162 105.141C425.885 105.141 425.641 105.201 425.43 105.321C425.219 105.442 425.056 105.611 424.942 105.828C424.827 106.045 424.77 106.301 424.77 106.596C424.77 106.898 424.83 107.163 424.951 107.392C425.071 107.615 425.243 107.789 425.466 107.916C425.689 108.037 425.945 108.097 426.235 108.097C426.476 108.097 426.696 108.055 426.894 107.97C427.099 107.886 427.274 107.759 427.419 107.591L427.943 108.124C427.738 108.365 427.485 108.549 427.184 108.675C426.888 108.802 426.572 108.865 426.235 108.865Z" fill="white"/>
<rect x="46.0985" y="154.625" width="92.3698" height="129.711" rx="3.4393" fill="white"/>
<rect x="46.0985" y="154.625" width="92.3698" height="129.711" rx="3.4393" stroke="#D5D9DC" stroke-width="0.982658"/>
<rect x="67.717" y="169.26" width="49.1329" height="49.1329" rx="24.5664" fill="#E9ECFF"/>
<path d="M93.1023 193.008H91.4645V195.465H89.0079V197.102H91.4645V199.559H93.1023V197.102H95.5589V195.465H93.1023V193.008ZM93.9212 185.638H87.3701C86.4694 185.638 85.7324 186.375 85.7324 187.276V200.378C85.7324 201.279 86.4612 202.016 87.3619 202.016H97.1967C98.0975 202.016 98.8345 201.279 98.8345 200.378V190.551L93.9212 185.638ZM97.1967 200.378H87.3701V187.276H93.1023V191.37H97.1967V200.378Z" fill="#1A237E"/>
<path d="M58.6747 238.318C58.1965 238.318 57.7477 238.23 57.3285 238.053C56.9158 237.869 56.5522 237.617 56.2377 237.296C55.9298 236.975 55.6874 236.602 55.5106 236.176C55.3337 235.75 55.2452 235.292 55.2452 234.8C55.2452 234.309 55.3337 233.854 55.5106 233.434C55.6874 233.009 55.9331 232.635 56.2475 232.314C56.562 231.993 56.9289 231.744 57.3481 231.567C57.7739 231.39 58.2358 231.302 58.7337 231.302C59.2774 231.302 59.7786 231.407 60.2371 231.617C60.6957 231.826 61.0789 232.127 61.3868 232.521L60.7481 233.159C60.5319 232.845 60.247 232.606 59.8932 232.442C59.5394 232.272 59.1529 232.186 58.7337 232.186C58.2358 232.186 57.7936 232.298 57.4071 232.521C57.0271 232.743 56.729 233.051 56.5129 233.444C56.3032 233.837 56.1984 234.289 56.1984 234.8C56.1984 235.318 56.3065 235.773 56.5227 236.166C56.7389 236.559 57.0304 236.867 57.3973 237.09C57.7641 237.313 58.1834 237.424 58.6551 237.424C59.1333 237.424 59.546 237.332 59.8932 237.149C60.247 236.965 60.5188 236.697 60.7088 236.343C60.8988 235.983 60.9938 235.544 60.9938 235.026L61.5539 235.429H58.6059V234.584H61.947V234.722C61.947 235.514 61.8061 236.179 61.5244 236.717C61.2493 237.247 60.8628 237.647 60.3649 237.915C59.8736 238.184 59.3102 238.318 58.6747 238.318ZM65.194 238.318C64.7289 238.318 64.3096 238.213 63.9362 238.004C63.5628 237.788 63.268 237.496 63.0518 237.129C62.8357 236.762 62.7276 236.346 62.7276 235.881C62.7276 235.423 62.8324 235.01 63.042 234.643C63.2582 234.276 63.5464 233.988 63.9067 233.778C64.2736 233.562 64.683 233.454 65.1351 233.454C65.5674 233.454 65.9474 233.552 66.275 233.749C66.6091 233.945 66.8678 234.217 67.0513 234.564C67.2412 234.912 67.3362 235.305 67.3362 235.744C67.3362 235.809 67.3329 235.881 67.3264 235.96C67.3198 236.032 67.3067 236.117 67.2871 236.215H63.3466V235.478H66.8154L66.4911 235.763C66.4911 235.449 66.4355 235.184 66.3241 234.967C66.2127 234.745 66.0555 234.574 65.8524 234.456C65.6493 234.332 65.4037 234.27 65.1154 234.27C64.8141 234.27 64.5488 234.335 64.3195 234.466C64.0902 234.597 63.9133 234.781 63.7888 235.017C63.6644 235.252 63.6021 235.531 63.6021 235.852C63.6021 236.179 63.6676 236.468 63.7987 236.717C63.9297 236.959 64.1164 237.149 64.3588 237.286C64.6012 237.417 64.8796 237.483 65.194 237.483C65.4561 237.483 65.6952 237.437 65.9114 237.345C66.1341 237.254 66.3241 237.116 66.4813 236.933L67.0513 237.512C66.8285 237.774 66.5534 237.974 66.2258 238.112C65.9048 238.249 65.5609 238.318 65.194 238.318ZM71.6023 238.22V235.498C71.6023 235.144 71.4909 234.853 71.2682 234.623C71.0454 234.394 70.7572 234.28 70.4034 234.28C70.1676 234.28 69.9579 234.332 69.7745 234.437C69.5911 234.542 69.447 234.686 69.3422 234.869C69.2373 235.053 69.1849 235.262 69.1849 235.498L68.8213 235.292C68.8213 234.938 68.9 234.623 69.0572 234.348C69.2144 234.073 69.4339 233.857 69.7156 233.7C69.9973 233.536 70.315 233.454 70.6687 233.454C71.0225 233.454 71.3337 233.543 71.6023 233.719C71.8774 233.896 72.0936 234.129 72.2508 234.417C72.408 234.699 72.4867 235 72.4867 235.321V238.22H71.6023ZM68.3005 238.22V233.552H69.1849V238.22H68.3005ZM75.8459 238.318C75.3808 238.318 74.9615 238.213 74.5881 238.004C74.2147 237.788 73.9199 237.496 73.7037 237.129C73.4875 236.762 73.3794 236.346 73.3794 235.881C73.3794 235.423 73.4842 235.01 73.6939 234.643C73.9101 234.276 74.1983 233.988 74.5586 233.778C74.9255 233.562 75.3349 233.454 75.7869 233.454C76.2193 233.454 76.5993 233.552 76.9268 233.749C77.2609 233.945 77.5197 234.217 77.7031 234.564C77.8931 234.912 77.9881 235.305 77.9881 235.744C77.9881 235.809 77.9848 235.881 77.9783 235.96C77.9717 236.032 77.9586 236.117 77.9389 236.215H73.9985V235.478H77.4673L77.143 235.763C77.143 235.449 77.0873 235.184 76.9759 234.967C76.8646 234.745 76.7074 234.574 76.5043 234.456C76.3012 234.332 76.0555 234.27 75.7673 234.27C75.4659 234.27 75.2006 234.335 74.9713 234.466C74.742 234.597 74.5652 234.781 74.4407 235.017C74.3162 235.252 74.254 235.531 74.254 235.852C74.254 236.179 74.3195 236.468 74.4505 236.717C74.5815 236.959 74.7682 237.149 75.0106 237.286C75.253 237.417 75.5314 237.483 75.8459 237.483C76.1079 237.483 76.347 237.437 76.5632 237.345C76.786 237.254 76.9759 237.116 77.1332 236.933L77.7031 237.512C77.4804 237.774 77.2052 237.974 76.8777 238.112C76.5567 238.249 76.2127 238.318 75.8459 238.318ZM78.9524 238.22V233.552H79.8368V238.22H78.9524ZM79.8368 235.557L79.5027 235.41C79.5027 234.813 79.6403 234.338 79.9154 233.985C80.1905 233.631 80.5869 233.454 81.1044 233.454C81.3402 233.454 81.5532 233.497 81.7431 233.582C81.9331 233.66 82.11 233.795 82.2738 233.985L81.694 234.584C81.5957 234.479 81.4876 234.404 81.3697 234.358C81.2518 234.312 81.1142 234.289 80.957 234.289C80.6295 234.289 80.3609 234.394 80.1512 234.604C79.9416 234.813 79.8368 235.131 79.8368 235.557ZM84.7279 238.318C84.3021 238.318 83.9156 238.213 83.5683 238.004C83.2211 237.788 82.946 237.496 82.7429 237.129C82.5464 236.762 82.4481 236.35 82.4481 235.891C82.4481 235.432 82.5464 235.02 82.7429 234.653C82.946 234.286 83.2179 233.995 83.5585 233.778C83.9057 233.562 84.2955 233.454 84.7279 233.454C85.0816 233.454 85.3961 233.529 85.6712 233.68C85.9529 233.824 86.1789 234.027 86.3493 234.289C86.5196 234.545 86.6146 234.843 86.6342 235.184V236.589C86.6146 236.923 86.5196 237.221 86.3493 237.483C86.1855 237.745 85.9628 237.951 85.6811 238.102C85.4059 238.246 85.0882 238.318 84.7279 238.318ZM84.8753 237.483C85.3142 237.483 85.668 237.336 85.9366 237.041C86.2051 236.739 86.3394 236.356 86.3394 235.891C86.3394 235.57 86.2772 235.292 86.1527 235.056C86.0348 234.813 85.8645 234.627 85.6418 234.496C85.419 234.358 85.1603 234.289 84.8655 234.289C84.5707 234.289 84.3086 234.358 84.0793 234.496C83.8566 234.633 83.6797 234.823 83.5487 235.066C83.4242 235.301 83.362 235.573 83.362 235.881C83.362 236.196 83.4242 236.474 83.5487 236.717C83.6797 236.952 83.8599 237.139 84.0892 237.277C84.3184 237.414 84.5805 237.483 84.8753 237.483ZM86.2805 238.22V236.962L86.4475 235.822L86.2805 234.692V233.552H87.1747V238.22H86.2805ZM89.1604 238.22V231.597H90.0448V238.22H89.1604ZM88.0107 234.358V233.552H91.1945V234.358H88.0107ZM94.0788 238.318C93.6137 238.318 93.1944 238.213 92.821 238.004C92.4476 237.788 92.1528 237.496 91.9366 237.129C91.7204 236.762 91.6123 236.346 91.6123 235.881C91.6123 235.423 91.7171 235.01 91.9268 234.643C92.143 234.276 92.4312 233.988 92.7915 233.778C93.1584 233.562 93.5678 233.454 94.0198 233.454C94.4522 233.454 94.8322 233.552 95.1597 233.749C95.4938 233.945 95.7526 234.217 95.936 234.564C96.126 234.912 96.221 235.305 96.221 235.744C96.221 235.809 96.2177 235.881 96.2112 235.96C96.2046 236.032 96.1915 236.117 96.1719 236.215H92.2314V235.478H95.7002L95.3759 235.763C95.3759 235.449 95.3202 235.184 95.2089 234.967C95.0975 234.745 94.9403 234.574 94.7372 234.456C94.5341 234.332 94.2884 234.27 94.0002 234.27C93.6988 234.27 93.4335 234.335 93.2042 234.466C92.9749 234.597 92.7981 234.781 92.6736 235.017C92.5491 235.252 92.4869 235.531 92.4869 235.852C92.4869 236.179 92.5524 236.468 92.6834 236.717C92.8144 236.959 93.0011 237.149 93.2435 237.286C93.4859 237.417 93.7643 237.483 94.0788 237.483C94.3408 237.483 94.58 237.437 94.7961 237.345C95.0189 237.254 95.2089 237.116 95.3661 236.933L95.936 237.512C95.7133 237.774 95.4381 237.974 95.1106 238.112C94.7896 238.249 94.4457 238.318 94.0788 238.318ZM99.3865 238.22V231.4H100.31V238.22H99.3865ZM105.064 238.22V235.498C105.064 235.144 104.953 234.853 104.73 234.623C104.508 234.394 104.219 234.28 103.866 234.28C103.63 234.28 103.42 234.332 103.237 234.437C103.053 234.542 102.909 234.686 102.804 234.869C102.7 235.053 102.647 235.262 102.647 235.498L102.284 235.292C102.284 234.938 102.362 234.623 102.519 234.348C102.677 234.073 102.896 233.857 103.178 233.7C103.459 233.536 103.777 233.454 104.131 233.454C104.485 233.454 104.796 233.543 105.064 233.719C105.34 233.896 105.556 234.129 105.713 234.417C105.87 234.699 105.949 235 105.949 235.321V238.22H105.064ZM101.763 238.22V233.552H102.647V238.22H101.763ZM108.748 238.22L106.606 233.552H107.588L109.308 237.493H108.738L110.468 233.552H111.411L109.269 238.22H108.748ZM114.115 238.318C113.657 238.318 113.244 238.21 112.877 237.994C112.51 237.778 112.219 237.486 112.002 237.119C111.786 236.746 111.678 236.33 111.678 235.871C111.678 235.419 111.786 235.013 112.002 234.653C112.219 234.286 112.51 233.995 112.877 233.778C113.244 233.562 113.657 233.454 114.115 233.454C114.567 233.454 114.977 233.562 115.343 233.778C115.717 233.988 116.012 234.276 116.228 234.643C116.444 235.01 116.552 235.419 116.552 235.871C116.552 236.33 116.444 236.746 116.228 237.119C116.012 237.486 115.717 237.778 115.343 237.994C114.977 238.21 114.567 238.318 114.115 238.318ZM114.115 237.463C114.41 237.463 114.672 237.395 114.901 237.257C115.131 237.119 115.311 236.933 115.442 236.697C115.573 236.454 115.638 236.179 115.638 235.871C115.638 235.57 115.569 235.301 115.432 235.066C115.301 234.83 115.121 234.646 114.891 234.515C114.669 234.378 114.41 234.309 114.115 234.309C113.82 234.309 113.558 234.378 113.329 234.515C113.1 234.646 112.92 234.83 112.789 235.066C112.657 235.301 112.592 235.57 112.592 235.871C112.592 236.179 112.657 236.454 112.789 236.697C112.92 236.933 113.1 237.119 113.329 237.257C113.558 237.395 113.82 237.463 114.115 237.463ZM117.558 238.22V233.552H118.443V238.22H117.558ZM118.001 232.619C117.837 232.619 117.703 232.566 117.598 232.462C117.493 232.35 117.44 232.213 117.44 232.049C117.44 231.892 117.493 231.761 117.598 231.656C117.703 231.544 117.837 231.489 118.001 231.489C118.164 231.489 118.299 231.544 118.403 231.656C118.508 231.761 118.561 231.892 118.561 232.049C118.561 232.213 118.508 232.35 118.403 232.462C118.299 232.566 118.164 232.619 118.001 232.619ZM121.878 238.318C121.42 238.318 121.004 238.21 120.631 237.994C120.264 237.778 119.972 237.486 119.756 237.119C119.546 236.746 119.441 236.333 119.441 235.881C119.441 235.423 119.546 235.01 119.756 234.643C119.972 234.276 120.264 233.988 120.631 233.778C121.004 233.562 121.42 233.454 121.878 233.454C122.239 233.454 122.573 233.523 122.881 233.66C123.189 233.791 123.454 233.985 123.677 234.24L123.087 234.83C122.943 234.659 122.766 234.532 122.557 234.447C122.353 234.355 122.127 234.309 121.878 234.309C121.584 234.309 121.322 234.378 121.092 234.515C120.863 234.646 120.683 234.83 120.552 235.066C120.421 235.301 120.355 235.573 120.355 235.881C120.355 236.189 120.421 236.461 120.552 236.697C120.683 236.933 120.863 237.119 121.092 237.257C121.322 237.395 121.584 237.463 121.878 237.463C122.127 237.463 122.353 237.421 122.557 237.336C122.766 237.244 122.946 237.113 123.097 236.943L123.677 237.532C123.461 237.781 123.195 237.974 122.881 238.112C122.573 238.249 122.239 238.318 121.878 238.318ZM126.62 238.318C126.155 238.318 125.735 238.213 125.362 238.004C124.989 237.788 124.694 237.496 124.478 237.129C124.261 236.762 124.153 236.346 124.153 235.881C124.153 235.423 124.258 235.01 124.468 234.643C124.684 234.276 124.972 233.988 125.332 233.778C125.699 233.562 126.109 233.454 126.561 233.454C126.993 233.454 127.373 233.552 127.701 233.749C128.035 233.945 128.294 234.217 128.477 234.564C128.667 234.912 128.762 235.305 128.762 235.744C128.762 235.809 128.759 235.881 128.752 235.96C128.746 236.032 128.732 236.117 128.713 236.215H124.772V235.478H128.241L127.917 235.763C127.917 235.449 127.861 235.184 127.75 234.967C127.638 234.745 127.481 234.574 127.278 234.456C127.075 234.332 126.829 234.27 126.541 234.27C126.24 234.27 125.974 234.335 125.745 234.466C125.516 234.597 125.339 234.781 125.215 235.017C125.09 235.252 125.028 235.531 125.028 235.852C125.028 236.179 125.093 236.468 125.224 236.717C125.355 236.959 125.542 237.149 125.784 237.286C126.027 237.417 126.305 237.483 126.62 237.483C126.882 237.483 127.121 237.437 127.337 237.345C127.56 237.254 127.75 237.116 127.907 236.933L128.477 237.512C128.254 237.774 127.979 237.974 127.652 238.112C127.331 238.249 126.987 238.318 126.62 238.318Z" fill="black"/>
<rect x="51.0118" y="244.151" width="82.5433" height="5.89595" rx="2.94797" fill="#F5F5F5"/>
<rect x="51.0118" y="253.977" width="82.5433" height="5.89595" rx="2.94797" fill="#F5F5F5"/>
<rect x="62.8036" y="263.804" width="58.9595" height="5.89595" rx="2.94797" fill="#F5F5F5"/>
<rect x="151.243" y="154.625" width="92.3698" height="129.711" rx="3.4393" fill="white"/>
<rect x="151.243" y="154.625" width="92.3698" height="129.711" rx="3.4393" stroke="#D5D9DC" stroke-width="0.982658"/>
<rect x="172.861" y="169.261" width="49.1329" height="49.1329" rx="24.5664" fill="#E9ECFF"/>
<path d="M197.428 189.323C200.531 189.323 203.299 191.068 204.65 193.827C203.299 196.587 200.531 198.331 197.428 198.331C194.324 198.331 191.556 196.587 190.205 193.827C191.556 191.068 194.324 189.323 197.428 189.323ZM197.428 187.686C193.333 187.686 189.837 190.232 188.42 193.827C189.837 197.422 193.333 199.969 197.428 199.969C201.522 199.969 205.019 197.422 206.435 193.827C205.019 190.232 201.522 187.686 197.428 187.686ZM197.428 191.78C198.558 191.78 199.475 192.697 199.475 193.827C199.475 194.957 198.558 195.874 197.428 195.874C196.298 195.874 195.381 194.957 195.381 193.827C195.381 192.697 196.298 191.78 197.428 191.78ZM197.428 190.142C195.397 190.142 193.743 191.796 193.743 193.827C193.743 195.858 195.397 197.512 197.428 197.512C199.459 197.512 201.113 195.858 201.113 193.827C201.113 191.796 199.459 190.142 197.428 190.142Z" fill="#1A237E"/>
<path d="M165.464 238.22L162.732 231.401H163.735L165.985 237.169H165.621L167.891 231.401H168.884L166.132 238.22H165.464ZM169.851 238.22V233.553H170.736V238.22H169.851ZM170.294 232.619C170.13 232.619 169.996 232.567 169.891 232.462C169.786 232.35 169.734 232.213 169.734 232.049C169.734 231.892 169.786 231.761 169.891 231.656C169.996 231.545 170.13 231.489 170.294 231.489C170.457 231.489 170.592 231.545 170.697 231.656C170.801 231.761 170.854 231.892 170.854 232.049C170.854 232.213 170.801 232.35 170.697 232.462C170.592 232.567 170.457 232.619 170.294 232.619ZM174.201 238.318C173.736 238.318 173.317 238.214 172.943 238.004C172.57 237.788 172.275 237.496 172.059 237.129C171.843 236.763 171.735 236.347 171.735 235.881C171.735 235.423 171.839 235.01 172.049 234.643C172.265 234.276 172.553 233.988 172.914 233.779C173.281 233.562 173.69 233.454 174.142 233.454C174.574 233.454 174.954 233.553 175.282 233.749C175.616 233.946 175.875 234.218 176.058 234.565C176.248 234.912 176.343 235.305 176.343 235.744C176.343 235.809 176.34 235.881 176.333 235.96C176.327 236.032 176.314 236.117 176.294 236.216H172.354V235.479H175.822L175.498 235.764C175.498 235.449 175.442 235.184 175.331 234.968C175.22 234.745 175.063 234.575 174.859 234.457C174.656 234.332 174.411 234.27 174.122 234.27C173.821 234.27 173.556 234.335 173.326 234.466C173.097 234.597 172.92 234.781 172.796 235.017C172.671 235.253 172.609 235.531 172.609 235.852C172.609 236.18 172.675 236.468 172.806 236.717C172.937 236.959 173.123 237.149 173.366 237.287C173.608 237.418 173.887 237.483 174.201 237.483C174.463 237.483 174.702 237.437 174.918 237.346C175.141 237.254 175.331 237.116 175.488 236.933L176.058 237.513C175.836 237.775 175.56 237.975 175.233 238.112C174.912 238.25 174.568 238.318 174.201 238.318ZM178.586 238.22L176.739 233.553H177.663L178.999 237.188H178.704L180.031 233.553H180.542L181.868 237.188H181.574L182.91 233.553H183.834L181.996 238.22H181.475L180.129 234.692H180.453L179.097 238.22H178.586ZM184.62 236.137V235.302H187.853V236.137H184.62ZM188.412 238.22L191.203 231.401H191.871L194.652 238.22H193.65L191.36 232.452H191.704L189.395 238.22H188.412ZM189.739 236.677V235.872H193.325V236.677H189.739ZM195.598 238.22V231.204H196.482V238.22H195.598ZM197.776 238.22V231.204H198.661V238.22H197.776ZM202.156 238.22V231.401H203.08V238.22H202.156ZM207.834 238.22V235.498C207.834 235.144 207.723 234.853 207.5 234.624C207.277 234.394 206.989 234.28 206.635 234.28C206.399 234.28 206.19 234.332 206.006 234.437C205.823 234.542 205.679 234.686 205.574 234.869C205.469 235.053 205.417 235.262 205.417 235.498L205.053 235.292C205.053 234.938 205.132 234.624 205.289 234.349C205.446 234.073 205.665 233.857 205.947 233.7C206.229 233.536 206.547 233.454 206.9 233.454C207.254 233.454 207.565 233.543 207.834 233.72C208.109 233.897 208.325 234.129 208.482 234.417C208.64 234.699 208.718 235 208.718 235.321V238.22H207.834ZM204.532 238.22V233.553H205.417V238.22H204.532ZM211.517 238.22L209.375 233.553H210.358L212.078 237.493H211.508L213.237 233.553H214.18L212.038 238.22H211.517ZM216.885 238.318C216.426 238.318 216.013 238.21 215.646 237.994C215.28 237.778 214.988 237.486 214.772 237.12C214.556 236.746 214.448 236.33 214.448 235.872C214.448 235.42 214.556 235.013 214.772 234.653C214.988 234.286 215.28 233.995 215.646 233.779C216.013 233.562 216.426 233.454 216.885 233.454C217.337 233.454 217.746 233.562 218.113 233.779C218.486 233.988 218.781 234.276 218.997 234.643C219.213 235.01 219.322 235.42 219.322 235.872C219.322 236.33 219.213 236.746 218.997 237.12C218.781 237.486 218.486 237.778 218.113 237.994C217.746 238.21 217.337 238.318 216.885 238.318ZM216.885 237.464C217.179 237.464 217.441 237.395 217.671 237.257C217.9 237.12 218.08 236.933 218.211 236.697C218.342 236.455 218.408 236.18 218.408 235.872C218.408 235.57 218.339 235.302 218.201 235.066C218.07 234.83 217.89 234.647 217.661 234.516C217.438 234.378 217.179 234.309 216.885 234.309C216.59 234.309 216.328 234.378 216.098 234.516C215.869 234.647 215.689 234.83 215.558 235.066C215.427 235.302 215.361 235.57 215.361 235.872C215.361 236.18 215.427 236.455 215.558 236.697C215.689 236.933 215.869 237.12 216.098 237.257C216.328 237.395 216.59 237.464 216.885 237.464ZM220.328 238.22V233.553H221.212V238.22H220.328ZM220.77 232.619C220.606 232.619 220.472 232.567 220.367 232.462C220.262 232.35 220.21 232.213 220.21 232.049C220.21 231.892 220.262 231.761 220.367 231.656C220.472 231.545 220.606 231.489 220.77 231.489C220.934 231.489 221.068 231.545 221.173 231.656C221.278 231.761 221.33 231.892 221.33 232.049C221.33 232.213 221.278 232.35 221.173 232.462C221.068 232.567 220.934 232.619 220.77 232.619ZM224.648 238.318C224.189 238.318 223.773 238.21 223.4 237.994C223.033 237.778 222.742 237.486 222.525 237.12C222.316 236.746 222.211 236.334 222.211 235.881C222.211 235.423 222.316 235.01 222.525 234.643C222.742 234.276 223.033 233.988 223.4 233.779C223.773 233.562 224.189 233.454 224.648 233.454C225.008 233.454 225.342 233.523 225.65 233.661C225.958 233.792 226.223 233.985 226.446 234.24L225.857 234.83C225.712 234.66 225.536 234.532 225.326 234.447C225.123 234.355 224.897 234.309 224.648 234.309C224.353 234.309 224.091 234.378 223.862 234.516C223.633 234.647 223.452 234.83 223.321 235.066C223.19 235.302 223.125 235.574 223.125 235.881C223.125 236.189 223.19 236.461 223.321 236.697C223.452 236.933 223.633 237.12 223.862 237.257C224.091 237.395 224.353 237.464 224.648 237.464C224.897 237.464 225.123 237.421 225.326 237.336C225.536 237.244 225.716 237.113 225.866 236.943L226.446 237.532C226.23 237.781 225.965 237.975 225.65 238.112C225.342 238.25 225.008 238.318 224.648 238.318ZM229.389 238.318C228.924 238.318 228.505 238.214 228.131 238.004C227.758 237.788 227.463 237.496 227.247 237.129C227.031 236.763 226.923 236.347 226.923 235.881C226.923 235.423 227.028 235.01 227.237 234.643C227.453 234.276 227.742 233.988 228.102 233.779C228.469 233.562 228.878 233.454 229.33 233.454C229.763 233.454 230.143 233.553 230.47 233.749C230.804 233.946 231.063 234.218 231.246 234.565C231.436 234.912 231.531 235.305 231.531 235.744C231.531 235.809 231.528 235.881 231.522 235.96C231.515 236.032 231.502 236.117 231.482 236.216H227.542V235.479H231.011L230.686 235.764C230.686 235.449 230.631 235.184 230.519 234.968C230.408 234.745 230.251 234.575 230.048 234.457C229.844 234.332 229.599 234.27 229.311 234.27C229.009 234.27 228.744 234.335 228.515 234.466C228.285 234.597 228.108 234.781 227.984 235.017C227.86 235.253 227.797 235.531 227.797 235.852C227.797 236.18 227.863 236.468 227.994 236.717C228.125 236.959 228.312 237.149 228.554 237.287C228.796 237.418 229.075 237.483 229.389 237.483C229.651 237.483 229.89 237.437 230.107 237.346C230.329 237.254 230.519 237.116 230.676 236.933L231.246 237.513C231.024 237.775 230.749 237.975 230.421 238.112C230.1 238.25 229.756 238.318 229.389 238.318Z" fill="black"/>
<rect x="156.156" y="244.151" width="82.5433" height="5.89595" rx="2.94797" fill="#F5F5F5"/>
<rect x="156.156" y="253.978" width="82.5433" height="5.89595" rx="2.94797" fill="#F5F5F5"/>
<rect x="167.948" y="263.804" width="58.9595" height="5.89595" rx="2.94797" fill="#F5F5F5"/>
<rect x="256.387" y="154.625" width="92.3698" height="129.711" rx="3.4393" fill="white"/>
<rect x="256.387" y="154.625" width="92.3698" height="129.711" rx="3.4393" stroke="#D5D9DC" stroke-width="0.982658"/>
<rect x="278.006" y="169.261" width="49.1329" height="49.1329" rx="24.5664" fill="#E9ECFF"/>
<path d="M310.352 188.504V190.142H307.895V192.599H306.257V190.142H303.801V188.504H306.257V186.048H307.895V188.504H310.352ZM307.895 199.969H296.431V188.504H301.344V186.867H296.431C295.53 186.867 294.793 187.604 294.793 188.504V199.969C294.793 200.87 295.53 201.607 296.431 201.607H307.895C308.796 201.607 309.533 200.87 309.533 199.969V195.056H307.895V199.969ZM304.62 195.056V198.331H306.257V195.056H304.62ZM301.344 198.331H302.982V191.78H301.344V198.331ZM299.706 198.331V193.418H298.068V198.331H299.706Z" fill="#1A237E"/>
<path d="M271.378 238.22V231.401H272.302V238.22H271.378ZM273.754 238.22V233.553H274.639V238.22H273.754ZM276.909 238.22V235.4C276.909 235.053 276.8 234.781 276.584 234.584C276.375 234.381 276.109 234.28 275.788 234.28C275.572 234.28 275.379 234.326 275.209 234.417C275.038 234.509 274.901 234.637 274.796 234.801C274.691 234.964 274.639 235.161 274.639 235.39L274.275 235.213C274.275 234.86 274.35 234.552 274.501 234.29C274.658 234.028 274.871 233.824 275.14 233.68C275.408 233.53 275.71 233.454 276.044 233.454C276.371 233.454 276.666 233.526 276.928 233.671C277.197 233.815 277.406 234.018 277.557 234.28C277.714 234.542 277.793 234.853 277.793 235.213V238.22H276.909ZM280.063 238.22V235.4C280.063 235.053 279.955 234.781 279.739 234.584C279.529 234.381 279.267 234.28 278.952 234.28C278.736 234.28 278.54 234.326 278.363 234.417C278.193 234.509 278.055 234.637 277.95 234.801C277.845 234.964 277.793 235.161 277.793 235.39L277.292 235.213C277.311 234.853 277.406 234.545 277.577 234.29C277.754 234.028 277.98 233.824 278.255 233.68C278.53 233.53 278.831 233.454 279.159 233.454C279.5 233.454 279.804 233.526 280.073 233.671C280.341 233.815 280.554 234.018 280.711 234.28C280.875 234.542 280.957 234.856 280.957 235.223V238.22H280.063ZM284.617 238.318C284.263 238.318 283.942 238.246 283.654 238.102C283.373 237.952 283.146 237.745 282.976 237.483C282.806 237.221 282.711 236.923 282.691 236.589V235.184C282.711 234.843 282.806 234.545 282.976 234.29C283.153 234.028 283.382 233.824 283.664 233.68C283.952 233.53 284.27 233.454 284.617 233.454C285.043 233.454 285.426 233.562 285.767 233.779C286.114 233.995 286.386 234.286 286.583 234.653C286.779 235.02 286.877 235.433 286.877 235.891C286.877 236.35 286.779 236.763 286.583 237.129C286.386 237.496 286.114 237.788 285.767 238.004C285.426 238.214 285.043 238.318 284.617 238.318ZM282.161 240.176V233.553H283.045V234.781L282.878 235.911L283.045 237.051V240.176H282.161ZM284.47 237.483C284.765 237.483 285.023 237.414 285.246 237.277C285.469 237.139 285.646 236.953 285.777 236.717C285.908 236.474 285.973 236.196 285.973 235.881C285.973 235.574 285.908 235.298 285.777 235.056C285.646 234.814 285.469 234.627 285.246 234.496C285.023 234.358 284.768 234.29 284.48 234.29C284.185 234.29 283.926 234.358 283.703 234.496C283.481 234.627 283.307 234.814 283.183 235.056C283.058 235.298 282.996 235.577 282.996 235.891C282.996 236.199 283.055 236.474 283.173 236.717C283.297 236.953 283.471 237.139 283.694 237.277C283.923 237.414 284.182 237.483 284.47 237.483ZM290.012 238.318C289.554 238.318 289.141 238.21 288.774 237.994C288.407 237.778 288.116 237.486 287.9 237.12C287.683 236.746 287.575 236.33 287.575 235.872C287.575 235.42 287.683 235.013 287.9 234.653C288.116 234.286 288.407 233.995 288.774 233.779C289.141 233.562 289.554 233.454 290.012 233.454C290.464 233.454 290.874 233.562 291.241 233.779C291.614 233.988 291.909 234.276 292.125 234.643C292.341 235.01 292.449 235.42 292.449 235.872C292.449 236.33 292.341 236.746 292.125 237.12C291.909 237.486 291.614 237.778 291.241 237.994C290.874 238.21 290.464 238.318 290.012 238.318ZM290.012 237.464C290.307 237.464 290.569 237.395 290.798 237.257C291.028 237.12 291.208 236.933 291.339 236.697C291.47 236.455 291.535 236.18 291.535 235.872C291.535 235.57 291.467 235.302 291.329 235.066C291.198 234.83 291.018 234.647 290.789 234.516C290.566 234.378 290.307 234.309 290.012 234.309C289.718 234.309 289.455 234.378 289.226 234.516C288.997 234.647 288.817 234.83 288.686 235.066C288.555 235.302 288.489 235.57 288.489 235.872C288.489 236.18 288.555 236.455 288.686 236.697C288.817 236.933 288.997 237.12 289.226 237.257C289.455 237.395 289.718 237.464 290.012 237.464ZM293.446 238.22V233.553H294.33V238.22H293.446ZM294.33 235.557L293.996 235.41C293.996 234.814 294.134 234.339 294.409 233.985C294.684 233.631 295.08 233.454 295.598 233.454C295.834 233.454 296.047 233.497 296.237 233.582C296.427 233.661 296.603 233.795 296.767 233.985L296.187 234.584C296.089 234.48 295.981 234.404 295.863 234.358C295.745 234.313 295.608 234.29 295.45 234.29C295.123 234.29 294.854 234.394 294.645 234.604C294.435 234.814 294.33 235.131 294.33 235.557ZM298.088 238.22V231.597H298.972V238.22H298.088ZM296.938 234.358V233.553H300.122V234.358H296.938ZM303.19 238.22V231.401H304.113V238.22H303.19ZM307.592 238.22V231.401H308.516V238.22H307.592ZM303.819 235.115V234.27H307.818V235.115H303.819ZM309.98 238.22V233.553H310.865V238.22H309.98ZM310.423 232.619C310.259 232.619 310.124 232.567 310.02 232.462C309.915 232.35 309.862 232.213 309.862 232.049C309.862 231.892 309.915 231.761 310.02 231.656C310.124 231.545 310.259 231.489 310.423 231.489C310.586 231.489 310.721 231.545 310.825 231.656C310.93 231.761 310.983 231.892 310.983 232.049C310.983 232.213 310.93 232.35 310.825 232.462C310.721 232.567 310.586 232.619 310.423 232.619ZM313.652 238.318C313.39 238.318 313.141 238.286 312.905 238.22C312.676 238.148 312.463 238.05 312.266 237.925C312.07 237.794 311.899 237.64 311.755 237.464L312.325 236.894C312.496 237.103 312.692 237.26 312.915 237.365C313.138 237.464 313.387 237.513 313.662 237.513C313.937 237.513 314.15 237.467 314.3 237.375C314.451 237.277 314.526 237.143 314.526 236.972C314.526 236.802 314.464 236.671 314.34 236.579C314.222 236.481 314.068 236.402 313.878 236.343C313.688 236.278 313.485 236.216 313.269 236.157C313.059 236.091 312.859 236.009 312.669 235.911C312.479 235.813 312.322 235.678 312.198 235.508C312.08 235.338 312.021 235.112 312.021 234.83C312.021 234.548 312.089 234.306 312.227 234.103C312.365 233.893 312.555 233.733 312.797 233.621C313.046 233.51 313.344 233.454 313.691 233.454C314.058 233.454 314.382 233.52 314.664 233.651C314.952 233.775 315.188 233.965 315.372 234.221L314.802 234.791C314.671 234.62 314.507 234.489 314.31 234.398C314.12 234.306 313.904 234.26 313.662 234.26C313.406 234.26 313.21 234.306 313.072 234.398C312.941 234.483 312.876 234.604 312.876 234.761C312.876 234.918 312.935 235.04 313.052 235.125C313.17 235.21 313.324 235.282 313.514 235.341C313.711 235.4 313.914 235.462 314.124 235.528C314.333 235.587 314.533 235.669 314.723 235.773C314.913 235.878 315.067 236.019 315.185 236.196C315.309 236.373 315.372 236.605 315.372 236.894C315.372 237.333 315.214 237.68 314.9 237.935C314.592 238.191 314.176 238.318 313.652 238.318ZM317.079 238.22V231.597H317.963V238.22H317.079ZM315.929 234.358V233.553H319.113V234.358H315.929ZM321.968 238.318C321.509 238.318 321.097 238.21 320.73 237.994C320.363 237.778 320.071 237.486 319.855 237.12C319.639 236.746 319.531 236.33 319.531 235.872C319.531 235.42 319.639 235.013 319.855 234.653C320.071 234.286 320.363 233.995 320.73 233.779C321.097 233.562 321.509 233.454 321.968 233.454C322.42 233.454 322.829 233.562 323.196 233.779C323.57 233.988 323.864 234.276 324.081 234.643C324.297 235.01 324.405 235.42 324.405 235.872C324.405 236.33 324.297 236.746 324.081 237.12C323.864 237.486 323.57 237.778 323.196 237.994C322.829 238.21 322.42 238.318 321.968 238.318ZM321.968 237.464C322.263 237.464 322.525 237.395 322.754 237.257C322.983 237.12 323.163 236.933 323.294 236.697C323.425 236.455 323.491 236.18 323.491 235.872C323.491 235.57 323.422 235.302 323.285 235.066C323.154 234.83 322.973 234.647 322.744 234.516C322.521 234.378 322.263 234.309 321.968 234.309C321.673 234.309 321.411 234.378 321.182 234.516C320.952 234.647 320.772 234.83 320.641 235.066C320.51 235.302 320.445 235.57 320.445 235.872C320.445 236.18 320.51 236.455 320.641 236.697C320.772 236.933 320.952 237.12 321.182 237.257C321.411 237.395 321.673 237.464 321.968 237.464ZM325.401 238.22V233.553H326.286V238.22H325.401ZM326.286 235.557L325.952 235.41C325.952 234.814 326.089 234.339 326.364 233.985C326.639 233.631 327.036 233.454 327.553 233.454C327.789 233.454 328.002 233.497 328.192 233.582C328.382 233.661 328.559 233.795 328.723 233.985L328.143 234.584C328.045 234.48 327.937 234.404 327.819 234.358C327.701 234.313 327.563 234.29 327.406 234.29C327.078 234.29 326.81 234.394 326.6 234.604C326.391 234.814 326.286 235.131 326.286 235.557ZM330.792 238.26L328.768 233.553H329.75L331.254 237.238H330.939L332.521 233.553H333.504L331.323 238.26H330.792ZM329.456 240.176L330.831 237.355L331.323 238.26L330.438 240.176H329.456Z" fill="black"/>
<rect x="261.301" y="244.151" width="82.5433" height="5.89595" rx="2.94797" fill="#F5F5F5"/>
<rect x="261.301" y="253.978" width="82.5433" height="5.89595" rx="2.94797" fill="#F5F5F5"/>
<rect x="273.093" y="263.804" width="58.9595" height="5.89595" rx="2.94797" fill="#F5F5F5"/>
<rect x="361.532" y="154.625" width="92.3698" height="129.711" rx="3.4393" fill="white"/>
<rect x="361.532" y="154.625" width="92.3698" height="129.711" rx="3.4393" stroke="#D5D9DC" stroke-width="0.982658"/>
<rect x="383.15" y="169.261" width="49.1329" height="49.1329" rx="24.5664" fill="#E9ECFF"/>
<path d="M407.651 191.78H409.289V189.323H411.745V187.685H409.289V185.229H407.651V187.685H405.194V189.323H407.651V191.78ZM404.375 199.15C403.475 199.15 402.746 199.887 402.746 200.788C402.746 201.688 403.475 202.425 404.375 202.425C405.276 202.425 406.013 201.688 406.013 200.788C406.013 199.887 405.276 199.15 404.375 199.15ZM412.564 199.15C411.663 199.15 410.935 199.887 410.935 200.788C410.935 201.688 411.663 202.425 412.564 202.425C413.465 202.425 414.202 201.688 414.202 200.788C414.202 199.887 413.465 199.15 412.564 199.15ZM405.276 195.055H411.377C411.991 195.055 412.532 194.72 412.81 194.212L415.971 188.472L414.546 187.685L411.377 193.418H405.628L402.14 186.048H399.462V187.685H401.1L404.048 193.901L402.942 195.899C402.345 196.996 403.131 198.331 404.375 198.331H414.202V196.693H404.375L405.276 195.055Z" fill="#1A237E"/>
<path d="M372.641 235.567V234.761H374.499C374.754 234.761 374.98 234.709 375.177 234.604C375.38 234.499 375.537 234.352 375.648 234.162C375.766 233.972 375.825 233.746 375.825 233.484C375.825 233.222 375.766 232.996 375.648 232.806C375.537 232.616 375.38 232.468 375.177 232.364C374.98 232.259 374.754 232.206 374.499 232.206H372.641V231.401H374.558C374.977 231.401 375.35 231.486 375.678 231.656C376.012 231.826 376.274 232.069 376.464 232.383C376.66 232.691 376.759 233.058 376.759 233.484C376.759 233.903 376.66 234.27 376.464 234.584C376.274 234.892 376.012 235.135 375.678 235.312C375.35 235.482 374.977 235.567 374.558 235.567H372.641ZM372.022 238.22V231.401H372.946V238.22H372.022ZM379.701 238.318C379.321 238.318 378.977 238.233 378.669 238.063C378.368 237.886 378.132 237.644 377.962 237.336C377.792 237.028 377.706 236.671 377.706 236.265V233.553H378.591V236.225C378.591 236.481 378.633 236.704 378.719 236.894C378.81 237.077 378.941 237.218 379.112 237.316C379.282 237.414 379.482 237.464 379.711 237.464C380.058 237.464 380.33 237.355 380.527 237.139C380.723 236.917 380.821 236.612 380.821 236.225V233.553H381.706V236.265C381.706 236.671 381.621 237.028 381.45 237.336C381.28 237.644 381.044 237.886 380.743 238.063C380.448 238.233 380.101 238.318 379.701 238.318ZM382.891 238.22V233.553H383.776V238.22H382.891ZM383.776 235.557L383.442 235.41C383.442 234.814 383.579 234.339 383.854 233.985C384.129 233.631 384.526 233.454 385.043 233.454C385.279 233.454 385.492 233.497 385.682 233.582C385.872 233.661 386.049 233.795 386.213 233.985L385.633 234.584C385.535 234.48 385.426 234.404 385.309 234.358C385.191 234.313 385.053 234.29 384.896 234.29C384.568 234.29 384.3 234.394 384.09 234.604C383.88 234.814 383.776 235.131 383.776 235.557ZM388.814 238.318C388.356 238.318 387.94 238.21 387.566 237.994C387.199 237.778 386.908 237.486 386.692 237.12C386.482 236.746 386.377 236.334 386.377 235.881C386.377 235.423 386.482 235.01 386.692 234.643C386.908 234.276 387.199 233.988 387.566 233.779C387.94 233.562 388.356 233.454 388.814 233.454C389.174 233.454 389.509 233.523 389.816 233.661C390.124 233.792 390.39 233.985 390.612 234.24L390.023 234.83C389.879 234.66 389.702 234.532 389.492 234.447C389.289 234.355 389.063 234.309 388.814 234.309C388.519 234.309 388.257 234.378 388.028 234.516C387.799 234.647 387.619 234.83 387.488 235.066C387.357 235.302 387.291 235.574 387.291 235.881C387.291 236.189 387.357 236.461 387.488 236.697C387.619 236.933 387.799 237.12 388.028 237.257C388.257 237.395 388.519 237.464 388.814 237.464C389.063 237.464 389.289 237.421 389.492 237.336C389.702 237.244 389.882 237.113 390.033 236.943L390.612 237.532C390.396 237.781 390.131 237.975 389.816 238.112C389.509 238.25 389.174 238.318 388.814 238.318ZM394.791 238.22V235.498C394.791 235.144 394.68 234.853 394.457 234.624C394.234 234.394 393.946 234.28 393.592 234.28C393.357 234.28 393.147 234.332 392.963 234.437C392.78 234.542 392.636 234.686 392.531 234.869C392.426 235.053 392.374 235.262 392.374 235.498L392.01 235.292C392.01 234.938 392.089 234.624 392.246 234.349C392.403 234.073 392.623 233.857 392.904 233.7C393.186 233.536 393.504 233.454 393.858 233.454C394.211 233.454 394.523 233.533 394.791 233.69C395.066 233.847 395.283 234.067 395.44 234.349C395.597 234.63 395.676 234.955 395.676 235.321V238.22H394.791ZM391.489 238.22V231.204H392.374V238.22H391.489ZM398.858 238.318C398.432 238.318 398.046 238.214 397.698 238.004C397.351 237.788 397.076 237.496 396.873 237.129C396.676 236.763 396.578 236.35 396.578 235.891C396.578 235.433 396.676 235.02 396.873 234.653C397.076 234.286 397.348 233.995 397.689 233.779C398.036 233.562 398.426 233.454 398.858 233.454C399.212 233.454 399.526 233.53 399.801 233.68C400.083 233.824 400.309 234.028 400.479 234.29C400.65 234.545 400.745 234.843 400.764 235.184V236.589C400.745 236.923 400.65 237.221 400.479 237.483C400.316 237.745 400.093 237.952 399.811 238.102C399.536 238.246 399.218 238.318 398.858 238.318ZM399.005 237.483C399.444 237.483 399.798 237.336 400.067 237.041C400.335 236.74 400.47 236.356 400.47 235.891C400.47 235.57 400.407 235.292 400.283 235.056C400.165 234.814 399.995 234.627 399.772 234.496C399.549 234.358 399.29 234.29 398.996 234.29C398.701 234.29 398.439 234.358 398.209 234.496C397.987 234.634 397.81 234.823 397.679 235.066C397.554 235.302 397.492 235.574 397.492 235.881C397.492 236.196 397.554 236.474 397.679 236.717C397.81 236.953 397.99 237.139 398.219 237.277C398.449 237.414 398.711 237.483 399.005 237.483ZM400.411 238.22V236.962L400.578 235.823L400.411 234.692V233.553H401.305V238.22H400.411ZM404.076 238.318C403.814 238.318 403.565 238.286 403.329 238.22C403.1 238.148 402.887 238.05 402.691 237.925C402.494 237.794 402.324 237.64 402.18 237.464L402.75 236.894C402.92 237.103 403.116 237.26 403.339 237.365C403.562 237.464 403.811 237.513 404.086 237.513C404.361 237.513 404.574 237.467 404.725 237.375C404.875 237.277 404.951 237.143 404.951 236.972C404.951 236.802 404.888 236.671 404.764 236.579C404.646 236.481 404.492 236.402 404.302 236.343C404.112 236.278 403.909 236.216 403.693 236.157C403.483 236.091 403.283 236.009 403.094 235.911C402.904 235.813 402.746 235.678 402.622 235.508C402.504 235.338 402.445 235.112 402.445 234.83C402.445 234.548 402.514 234.306 402.651 234.103C402.789 233.893 402.979 233.733 403.221 233.621C403.47 233.51 403.768 233.454 404.115 233.454C404.482 233.454 404.807 233.52 405.088 233.651C405.377 233.775 405.612 233.965 405.796 234.221L405.226 234.791C405.095 234.62 404.931 234.489 404.735 234.398C404.545 234.306 404.328 234.26 404.086 234.26C403.831 234.26 403.634 234.306 403.496 234.398C403.365 234.483 403.3 234.604 403.3 234.761C403.3 234.918 403.359 235.04 403.477 235.125C403.595 235.21 403.749 235.282 403.939 235.341C404.135 235.4 404.338 235.462 404.548 235.528C404.757 235.587 404.957 235.669 405.147 235.773C405.337 235.878 405.491 236.019 405.609 236.196C405.734 236.373 405.796 236.605 405.796 236.894C405.796 237.333 405.639 237.68 405.324 237.935C405.016 238.191 404.6 238.318 404.076 238.318ZM408.948 238.318C408.483 238.318 408.063 238.214 407.69 238.004C407.317 237.788 407.022 237.496 406.806 237.129C406.589 236.763 406.481 236.347 406.481 235.881C406.481 235.423 406.586 235.01 406.796 234.643C407.012 234.276 407.3 233.988 407.66 233.779C408.027 233.562 408.437 233.454 408.889 233.454C409.321 233.454 409.701 233.553 410.029 233.749C410.363 233.946 410.622 234.218 410.805 234.565C410.995 234.912 411.09 235.305 411.09 235.744C411.09 235.809 411.087 235.881 411.08 235.96C411.074 236.032 411.06 236.117 411.041 236.216H407.1V235.479H410.569L410.245 235.764C410.245 235.449 410.189 235.184 410.078 234.968C409.966 234.745 409.809 234.575 409.606 234.457C409.403 234.332 409.157 234.27 408.869 234.27C408.568 234.27 408.302 234.335 408.073 234.466C407.844 234.597 407.667 234.781 407.543 235.017C407.418 235.253 407.356 235.531 407.356 235.852C407.356 236.18 407.421 236.468 407.552 236.717C407.683 236.959 407.87 237.149 408.113 237.287C408.355 237.418 408.633 237.483 408.948 237.483C409.21 237.483 409.449 237.437 409.665 237.346C409.888 237.254 410.078 237.116 410.235 236.933L410.805 237.513C410.582 237.775 410.307 237.975 409.98 238.112C409.659 238.25 409.315 238.318 408.948 238.318ZM414.256 238.22V231.401H415.179V238.22H414.256ZM419.933 238.22V235.498C419.933 235.144 419.822 234.853 419.599 234.624C419.377 234.394 419.088 234.28 418.735 234.28C418.499 234.28 418.289 234.332 418.106 234.437C417.922 234.542 417.778 234.686 417.673 234.869C417.568 235.053 417.516 235.262 417.516 235.498L417.153 235.292C417.153 234.938 417.231 234.624 417.388 234.349C417.546 234.073 417.765 233.857 418.047 233.7C418.328 233.536 418.646 233.454 419 233.454C419.354 233.454 419.665 233.543 419.933 233.72C420.209 233.897 420.425 234.129 420.582 234.417C420.739 234.699 420.818 235 420.818 235.321V238.22H419.933ZM416.632 238.22V233.553H417.516V238.22H416.632ZM423.617 238.22L421.475 233.553H422.457L424.177 237.493H423.607L425.337 233.553H426.28L424.138 238.22H423.617ZM428.984 238.318C428.526 238.318 428.113 238.21 427.746 237.994C427.379 237.778 427.088 237.486 426.871 237.12C426.655 236.746 426.547 236.33 426.547 235.872C426.547 235.42 426.655 235.013 426.871 234.653C427.088 234.286 427.379 233.995 427.746 233.779C428.113 233.562 428.526 233.454 428.984 233.454C429.436 233.454 429.846 233.562 430.212 233.779C430.586 233.988 430.881 234.276 431.097 234.643C431.313 235.01 431.421 235.42 431.421 235.872C431.421 236.33 431.313 236.746 431.097 237.12C430.881 237.486 430.586 237.778 430.212 237.994C429.846 238.21 429.436 238.318 428.984 238.318ZM428.984 237.464C429.279 237.464 429.541 237.395 429.77 237.257C429.999 237.12 430.18 236.933 430.311 236.697C430.442 236.455 430.507 236.18 430.507 235.872C430.507 235.57 430.438 235.302 430.301 235.066C430.17 234.83 429.99 234.647 429.76 234.516C429.538 234.378 429.279 234.309 428.984 234.309C428.689 234.309 428.427 234.378 428.198 234.516C427.969 234.647 427.789 234.83 427.657 235.066C427.526 235.302 427.461 235.57 427.461 235.872C427.461 236.18 427.526 236.455 427.657 236.697C427.789 236.933 427.969 237.12 428.198 237.257C428.427 237.395 428.689 237.464 428.984 237.464ZM432.427 238.22V233.553H433.312V238.22H432.427ZM432.87 232.619C432.706 232.619 432.572 232.567 432.467 232.462C432.362 232.35 432.309 232.213 432.309 232.049C432.309 231.892 432.362 231.761 432.467 231.656C432.572 231.545 432.706 231.489 432.87 231.489C433.033 231.489 433.168 231.545 433.272 231.656C433.377 231.761 433.43 231.892 433.43 232.049C433.43 232.213 433.377 232.35 433.272 232.462C433.168 232.567 433.033 232.619 432.87 232.619ZM436.747 238.318C436.289 238.318 435.873 238.21 435.499 237.994C435.133 237.778 434.841 237.486 434.625 237.12C434.415 236.746 434.31 236.334 434.31 235.881C434.31 235.423 434.415 235.01 434.625 234.643C434.841 234.276 435.133 233.988 435.499 233.779C435.873 233.562 436.289 233.454 436.747 233.454C437.108 233.454 437.442 233.523 437.75 233.661C438.058 233.792 438.323 233.985 438.546 234.24L437.956 234.83C437.812 234.66 437.635 234.532 437.425 234.447C437.222 234.355 436.996 234.309 436.747 234.309C436.453 234.309 436.191 234.378 435.961 234.516C435.732 234.647 435.552 234.83 435.421 235.066C435.29 235.302 435.224 235.574 435.224 235.881C435.224 236.189 435.29 236.461 435.421 236.697C435.552 236.933 435.732 237.12 435.961 237.257C436.191 237.395 436.453 237.464 436.747 237.464C436.996 237.464 437.222 237.421 437.425 237.336C437.635 237.244 437.815 237.113 437.966 236.943L438.546 237.532C438.33 237.781 438.064 237.975 437.75 238.112C437.442 238.25 437.108 238.318 436.747 238.318ZM441.489 238.318C441.024 238.318 440.604 238.214 440.231 238.004C439.857 237.788 439.563 237.496 439.347 237.129C439.13 236.763 439.022 236.347 439.022 235.881C439.022 235.423 439.127 235.01 439.337 234.643C439.553 234.276 439.841 233.988 440.201 233.779C440.568 233.562 440.978 233.454 441.43 233.454C441.862 233.454 442.242 233.553 442.57 233.749C442.904 233.946 443.163 234.218 443.346 234.565C443.536 234.912 443.631 235.305 443.631 235.744C443.631 235.809 443.628 235.881 443.621 235.96C443.615 236.032 443.601 236.117 443.582 236.216H439.641V235.479H443.11L442.786 235.764C442.786 235.449 442.73 235.184 442.619 234.968C442.507 234.745 442.35 234.575 442.147 234.457C441.944 234.332 441.698 234.27 441.41 234.27C441.109 234.27 440.843 234.335 440.614 234.466C440.385 234.597 440.208 234.781 440.084 235.017C439.959 235.253 439.897 235.531 439.897 235.852C439.897 236.18 439.962 236.468 440.093 236.717C440.224 236.959 440.411 237.149 440.653 237.287C440.896 237.418 441.174 237.483 441.489 237.483C441.751 237.483 441.99 237.437 442.206 237.346C442.429 237.254 442.619 237.116 442.776 236.933L443.346 237.513C443.123 237.775 442.848 237.975 442.52 238.112C442.199 238.25 441.856 238.318 441.489 238.318Z" fill="black"/>
<rect x="366.445" y="244.151" width="82.5433" height="5.89595" rx="2.94797" fill="#F5F5F5"/>
<rect x="366.445" y="253.978" width="82.5433" height="5.89595" rx="2.94797" fill="#F5F5F5"/>
<rect x="378.237" y="263.804" width="58.9595" height="5.89595" rx="2.94797" fill="#F5F5F5"/>
<rect x="45.6072" y="302.515" width="335.086" height="5.89595" rx="2.94797" fill="#F5F5F5"/>
<rect x="45.6072" y="314.307" width="335.086" height="5.89595" rx="2.94797" fill="#F5F5F5"/>
<rect x="45.6072" y="326.099" width="335.086" height="5.89595" rx="2.94797" fill="#F5F5F5"/>
<circle cx="51.5031" cy="355.578" r="5.89595" fill="#F5F5F5"/>
<rect x="63.295" y="352.63" width="78.6126" height="5.89595" rx="2.94797" fill="#F5F5F5"/>
<circle cx="51.5031" cy="371.301" r="5.89595" fill="#F5F5F5"/>
<rect x="63.295" y="368.353" width="78.6126" height="5.89595" rx="2.94797" fill="#F5F5F5"/>
<circle cx="51.5031" cy="387.023" r="5.89595" fill="#F5F5F5"/>
<rect x="63.295" y="384.075" width="78.6126" height="5.89595" rx="2.94797" fill="#F5F5F5"/>
</svg>
