<svg width="500" height="500" viewBox="0 0 500 500" fill="none" xmlns="http://www.w3.org/2000/svg">
<rect width="500" height="500" rx="8" fill="#E9ECFF"/>
<path d="M250 470C371.503 470 470 371.503 470 250C470 128.497 371.503 30 250 30C128.497 30 30 128.497 30 250C30 371.503 128.497 470 250 470Z" fill="#D2D8FF"/>
<path d="M457.777 432.126H198.925C198.792 432.126 198.684 432.018 198.684 431.886V236.535C198.684 236.402 198.792 236.294 198.925 236.294H457.777C457.91 236.294 458.017 236.402 458.017 236.535V431.886C458.017 432.018 457.91 432.126 457.777 432.126ZM199.165 431.645H457.537V236.775H199.165V431.645Z" fill="#1A237E"/>
<path d="M449.656 408.134L449.656 244.62L207.046 244.62L207.046 408.134L449.656 408.134Z" fill="#E6D0BE"/>
<path d="M449.656 408.134L449.656 244.62L207.046 244.62L207.046 408.134L449.656 408.134Z" fill="#A4B1FF"/>
<path d="M439.45 370.439V263.934L218.311 263.934L218.311 370.439L439.45 370.439Z" fill="#E9ECFF"/>
<path d="M333.224 419.05C333.224 421.729 331.042 423.901 328.351 423.901C325.66 423.901 323.479 421.729 323.479 419.05C323.479 416.371 325.66 414.198 328.351 414.198C331.042 414.198 333.224 416.371 333.224 419.05Z" fill="white"/>
<path d="M437.444 457.969H196.783C185.438 457.969 176.209 448.672 176.209 437.244C176.209 437.111 176.317 437.004 176.45 437.004H457.777C457.91 437.004 458.017 437.111 458.017 437.244C458.017 448.672 448.788 457.969 437.444 457.969ZM176.692 437.485C176.82 448.536 185.784 457.488 196.783 457.488H437.444C448.443 457.488 457.407 448.536 457.536 437.485H176.692Z" fill="#1A237E"/>
<path d="M389.643 455.846C389.51 455.846 389.402 455.738 389.402 455.606C389.402 455.473 389.51 455.365 389.643 455.365C398.398 455.365 405.521 448.188 405.521 439.367C405.521 439.234 405.629 439.126 405.762 439.126C405.895 439.126 406.002 439.234 406.002 439.367C406.002 448.453 398.663 455.846 389.643 455.846Z" fill="#1A237E"/>
<path d="M294.76 442.086C294.76 446.893 290.892 450.79 286.12 450.79H255.703C250.931 450.79 247.063 446.893 247.063 442.086H294.76Z" fill="#A4B1FF"/>
<path d="M216.614 347.335H432.731L432.731 48.2415H216.614L216.614 347.335Z" fill="white"/>
<path d="M426.375 353.932H210.257C210.125 353.932 210.017 353.825 210.017 353.692V73.9646C210.017 73.8319 210.125 73.7242 210.257 73.7242C210.39 73.7242 210.498 73.8319 210.498 73.9646V353.451H426.134V54.8376L356.925 54.5851C356.793 54.5846 356.685 54.4764 356.686 54.3437C356.686 54.2112 356.794 54.1042 356.926 54.1042H356.927L426.376 54.3577C426.508 54.3581 426.615 54.4656 426.615 54.5981V353.692C426.615 353.825 426.507 353.932 426.375 353.932Z" fill="#1A237E"/>
<path d="M375.219 262.919H301.525V268.611H375.219V262.919Z" fill="#E9ECFF"/>
<path d="M403.559 277.139H312.962V282.831H403.559V277.139Z" fill="#E9ECFF"/>
<path d="M388.694 291.359H301.525V297.051H388.694V291.359Z" fill="#E9ECFF"/>
<path d="M412.191 200.303H321.027V205.995H412.191V200.303Z" fill="#E9ECFF"/>
<path d="M386.228 214.522H299.059V220.214H386.228V214.522Z" fill="#E9ECFF"/>
<path d="M401.416 228.742H299.059V234.434H401.416V228.742Z" fill="#E9ECFF"/>
<path d="M401.416 141.478H321.351V147.17H401.416V141.478Z" fill="#E9ECFF"/>
<path d="M386.228 155.698H299.383V161.39H386.228V155.698Z" fill="#E9ECFF"/>
<path d="M412.191 169.918H299.383V175.61H412.191V169.918Z" fill="#E9ECFF"/>
<path d="M282.682 310.115H236.663C236.53 310.115 236.422 310.008 236.422 309.875V263.878C236.422 263.746 236.53 263.638 236.663 263.638H282.682C282.815 263.638 282.923 263.746 282.923 263.878V309.875C282.923 310.008 282.815 310.115 282.682 310.115ZM236.903 309.635H282.442V264.119H236.903V309.635Z" fill="#1A237E"/>
<path d="M257.204 302.921L242.796 289.823L247.247 284.337L256.382 291.637L270.717 270.832L276.549 274.846L257.204 302.921Z" fill="#D2D8FF"/>
<path d="M282.682 243.788H236.663C236.53 243.788 236.422 243.68 236.422 243.548V197.551C236.422 197.418 236.53 197.311 236.663 197.311H282.682C282.815 197.311 282.923 197.418 282.923 197.551V243.548C282.923 243.681 282.815 243.788 282.682 243.788ZM236.903 243.307H282.442V197.791H236.903V243.307Z" fill="#1A237E"/>
<path d="M257.204 236.594L242.796 223.496L247.247 218.01L256.382 225.309L270.717 204.505L276.549 208.519L257.204 236.594Z" fill="#D2D8FF"/>
<path d="M282.683 184.964H236.663C236.53 184.964 236.422 184.856 236.422 184.723V138.727C236.422 138.594 236.53 138.486 236.663 138.486H282.683C282.816 138.486 282.923 138.594 282.923 138.727V184.723C282.923 184.856 282.815 184.964 282.683 184.964ZM236.903 184.483H282.442V138.967H236.903V184.483Z" fill="#1A237E"/>
<path d="M257.204 177.77L242.796 164.671L247.247 159.185L256.383 166.485L270.717 145.68L276.549 149.694L257.204 177.77Z" fill="#D2D8FF"/>
<path d="M345.758 87.1431C345.559 86.4518 345.28 85.841 344.92 85.3107C344.56 84.7709 344.12 84.3164 343.599 83.947C343.087 83.5683 342.5 83.2794 341.837 83.0806C341.184 82.8817 340.46 82.7823 339.664 82.7823C338.177 82.7823 336.871 83.1516 335.744 83.8902C334.626 84.6289 333.755 85.7037 333.13 87.1147C332.505 88.5162 332.193 90.2302 332.193 92.2567C332.193 94.2832 332.5 96.0067 333.116 97.4272C333.731 98.8476 334.603 99.9319 335.729 100.68C336.856 101.419 338.187 101.788 339.721 101.788C341.113 101.788 342.301 101.542 343.286 101.049C344.281 100.547 345.038 99.8419 345.559 98.9328C346.089 98.0237 346.354 96.9489 346.354 95.7084L347.604 95.8931H340.104V91.2624H352.278V94.9272C352.278 97.484 351.738 99.6809 350.658 101.518C349.579 103.346 348.092 104.757 346.198 105.751C344.304 106.736 342.136 107.228 339.693 107.228C336.965 107.228 334.569 106.627 332.505 105.424C330.441 104.212 328.831 102.493 327.675 100.268C326.53 98.0332 325.957 95.3817 325.957 92.3135C325.957 89.9556 326.298 87.8533 326.979 86.0067C327.671 84.1506 328.637 82.5787 329.877 81.2908C331.118 80.0029 332.562 79.0228 334.21 78.3505C335.857 77.6781 337.642 77.3419 339.565 77.3419C341.212 77.3419 342.746 77.5834 344.167 78.0664C345.587 78.5398 346.847 79.2122 347.945 80.0834C349.053 80.9546 349.958 81.9915 350.658 83.1942C351.359 84.3874 351.809 85.7037 352.008 87.1431H345.758ZM374.679 86.1061C374.565 84.9603 374.078 84.0701 373.216 83.4357C372.354 82.8012 371.185 82.484 369.707 82.484C368.704 82.484 367.856 82.626 367.165 82.9101C366.474 83.1847 365.943 83.5683 365.574 84.0607C365.214 84.5531 365.034 85.1118 365.034 85.7368C365.015 86.2576 365.124 86.7122 365.361 87.1005C365.607 87.4887 365.943 87.8249 366.369 88.109C366.795 88.3836 367.288 88.6251 367.847 88.8334C368.405 89.0323 369.002 89.2027 369.636 89.3448L372.25 89.9698C373.519 90.2539 374.684 90.6326 375.744 91.1061C376.805 91.5796 377.724 92.162 378.5 92.8533C379.277 93.5446 379.878 94.359 380.304 95.2965C380.74 96.234 380.962 97.3088 380.972 98.5209C380.962 100.301 380.508 101.845 379.608 103.152C378.718 104.449 377.43 105.457 375.744 106.177C374.068 106.887 372.046 107.242 369.679 107.242C367.331 107.242 365.285 106.883 363.543 106.163C361.81 105.443 360.456 104.378 359.48 102.967C358.514 101.546 358.008 99.7898 357.96 97.697H363.912C363.978 98.6724 364.258 99.4868 364.75 100.14C365.252 100.784 365.92 101.272 366.753 101.603C367.596 101.925 368.547 102.086 369.608 102.086C370.65 102.086 371.554 101.935 372.321 101.632C373.098 101.329 373.699 100.907 374.125 100.367C374.551 99.8277 374.764 99.2075 374.764 98.5067C374.764 97.8533 374.57 97.3041 374.182 96.859C373.803 96.4139 373.244 96.0351 372.506 95.7226C371.777 95.4101 370.882 95.126 369.821 94.8703L366.653 94.0749C364.201 93.4783 362.264 92.5455 360.844 91.2766C359.423 90.0076 358.718 88.2984 358.727 86.1487C358.718 84.3874 359.187 82.8486 360.134 81.5323C361.09 80.216 362.402 79.1885 364.068 78.4499C365.735 77.7112 367.629 77.3419 369.75 77.3419C371.909 77.3419 373.794 77.7112 375.403 78.4499C377.023 79.1885 378.282 80.216 379.182 81.5323C380.081 82.8486 380.545 84.3732 380.574 86.1061H374.679ZM386.001 82.8107V77.7397H409.893V82.8107H400.987V106.831H394.907V82.8107H386.001Z" fill="#40484C"/>
<path d="M294.124 78.6638H238.373V83.8498H294.124V78.6638Z" fill="#E9ECFF"/>
<path d="M309.268 90.6541H238.373V95.84H309.268V90.6541Z" fill="#E9ECFF"/>
<path d="M309.268 102.645H238.373V107.831H309.268V102.645Z" fill="#E9ECFF"/>
<path d="M409.001 119.398H236.814C236.681 119.398 236.573 119.29 236.573 119.158C236.573 119.025 236.681 118.917 236.814 118.917H409.001C409.134 118.917 409.242 119.025 409.242 119.158C409.242 119.29 409.134 119.398 409.001 119.398Z" fill="#1A237E"/>
<path d="M198.87 59.0247L116.986 91.6248L143.465 158.132L225.348 125.532L198.87 59.0247Z" fill="#A4B1FF"/>
<path d="M214.564 112.724L204.205 116.849L208.329 127.208L218.689 123.084L214.564 112.724Z" fill="white"/>
<path d="M198.899 59.1009L117.02 91.7039L105.084 73.0845L186.964 40.4814L198.899 59.1009Z" fill="#A4B1FF"/>
<path d="M189.097 57.6565L120.316 85.044L113.703 74.7281L182.484 47.3403L189.097 57.6565Z" fill="#D2D8FF"/>
<path d="M208.234 96.8235L197.875 100.948L201.999 111.308L212.359 107.183L208.234 96.8235Z" fill="white"/>
<path d="M201.904 80.9251L191.544 85.0496L195.669 95.4093L206.028 91.2848L201.904 80.9251Z" fill="#D2D8FF"/>
<path d="M195.574 65.0257L185.214 69.1501L189.338 79.5099L199.698 75.3854L195.574 65.0257Z" fill="#D2D8FF"/>
<path d="M199.083 118.887L188.723 123.012L192.848 133.371L203.208 129.247L199.083 118.887Z" fill="white"/>
<path d="M192.753 102.988L182.393 107.113L186.518 117.472L196.877 113.348L192.753 102.988Z" fill="white"/>
<path d="M186.423 87.0882L176.063 91.2126L180.188 101.572L190.547 97.4479L186.423 87.0882Z" fill="white"/>
<path d="M180.093 71.189L169.733 75.3135L173.857 85.6732L184.217 81.5487L180.093 71.189Z" fill="white"/>
<path d="M183.602 125.052L173.242 129.176L177.367 139.536L187.726 135.411L183.602 125.052Z" fill="white"/>
<path d="M177.272 109.151L166.912 113.276L171.037 123.636L181.396 119.511L177.272 109.151Z" fill="white"/>
<path d="M170.942 93.2525L160.582 97.377L164.706 107.737L175.066 103.612L170.942 93.2525Z" fill="white"/>
<path d="M164.612 77.3521L154.252 81.4766L158.376 91.8363L168.736 87.7118L164.612 77.3521Z" fill="white"/>
<path d="M168.121 131.215L157.761 135.339L161.886 145.699L172.245 141.575L168.121 131.215Z" fill="white"/>
<path d="M161.791 115.316L151.431 119.44L155.555 129.8L165.915 125.675L161.791 115.316Z" fill="white"/>
<path d="M155.461 99.4158L145.101 103.54L149.225 113.9L159.585 109.776L155.461 99.4158Z" fill="white"/>
<path d="M149.13 83.5164L138.771 87.6409L142.895 98.0006L153.255 93.8761L149.13 83.5164Z" fill="white"/>
<path d="M146.585 122.17L136.225 126.294L146.404 151.862L156.764 147.738L146.585 122.17Z" fill="#D2D8FF"/>
<path d="M139.979 105.579L129.62 109.704L133.744 120.064L144.104 115.939L139.979 105.579Z" fill="#D2D8FF"/>
<path d="M133.649 89.6797L123.289 93.8042L127.414 104.164L137.774 100.039L133.649 89.6797Z" fill="white"/>
<path d="M67.9826 454.753L46.2743 454.427L52.7423 426.437L74.8647 430.124L67.9826 454.753Z" fill="#E2A18D"/>
<path d="M98.313 469.164H42.0976L47.274 447.674H69.2971L85.2227 452.532C93.0275 454.646 98.3849 461.453 98.313 469.164Z" fill="#1A237E"/>
<path d="M77.7355 447.753C77.7196 447.753 77.7037 447.753 77.6879 447.752L69.1338 447.624C69.0319 447.623 68.942 447.557 68.9095 447.46C68.8768 447.364 68.9088 447.257 68.9888 447.194L75.7213 441.916C76.5049 441.301 77.5008 441.112 78.4551 441.398C79.4092 441.683 80.1384 442.387 80.4563 443.331L80.601 443.76C80.9189 444.704 80.7647 445.706 80.1778 446.51C79.6003 447.302 78.7124 447.753 77.7355 447.753ZM69.8205 447.153L77.6948 447.271C78.5299 447.283 79.2957 446.903 79.7893 446.227C80.2831 445.55 80.4127 444.707 80.1454 443.914L80.0006 443.484C79.7333 442.69 79.1197 442.098 78.3171 441.858C77.5145 441.618 76.6768 441.777 76.0178 442.294L69.8205 447.153Z" fill="#84524D"/>
<path d="M60.6649 453.511C60.3728 453.511 60.0775 453.468 59.7859 453.381C58.8318 453.096 58.1026 452.391 57.7847 451.447L57.64 451.018C57.3221 450.075 57.4762 449.072 58.0631 448.268C58.6503 447.464 59.5596 447.009 60.5528 447.026L69.1071 447.154C69.2091 447.156 69.299 447.222 69.3315 447.318C69.3642 447.415 69.3322 447.521 69.2521 447.584L62.5196 452.863C61.9755 453.29 61.3287 453.511 60.6649 453.511ZM60.5057 447.507C59.6842 447.507 58.9371 447.886 58.4517 448.552C57.9578 449.228 57.8282 450.071 58.0953 450.865L58.2401 451.294C58.5075 452.088 59.121 452.68 59.9236 452.92C60.7255 453.16 61.5636 453.001 62.2229 452.484L68.4204 447.625L60.5459 447.507C60.5324 447.507 60.5189 447.507 60.5057 447.507Z" fill="#84524D"/>
<path d="M169.309 458.941L147.601 458.615L148.271 426.437L170.394 430.124L169.309 458.941Z" fill="#E2A18D"/>
<path d="M199.205 469.164H142.989L147.83 447.674H170.189L186.114 452.532C193.919 454.646 199.277 461.453 199.205 469.164Z" fill="#1A237E"/>
<path d="M178.627 447.753C178.611 447.753 178.596 447.753 178.58 447.752L170.026 447.624C169.924 447.623 169.834 447.557 169.801 447.46C169.769 447.364 169.801 447.257 169.881 447.194L176.613 441.916C177.396 441.302 178.393 441.112 179.347 441.398C180.301 441.683 181.03 442.387 181.348 443.331L181.493 443.76C181.811 444.704 181.656 445.706 181.07 446.511C180.492 447.302 179.604 447.753 178.627 447.753ZM170.712 447.153L178.587 447.272C178.6 447.272 178.614 447.272 178.627 447.272C179.449 447.272 180.195 446.892 180.681 446.227C181.175 445.55 181.304 444.707 181.037 443.914L180.892 443.484C180.625 442.69 180.011 442.098 179.209 441.858C178.407 441.618 177.569 441.777 176.91 442.294L170.712 447.153Z" fill="#84524D"/>
<path d="M161.557 453.511C161.265 453.511 160.969 453.468 160.678 453.381C159.724 453.096 158.994 452.391 158.676 451.447L158.532 451.018C158.214 450.075 158.368 449.072 158.955 448.268C159.542 447.464 160.454 447.009 161.445 447.026L169.999 447.154C170.101 447.156 170.191 447.222 170.223 447.318C170.256 447.415 170.224 447.521 170.144 447.584L163.412 452.863C162.867 453.29 162.22 453.511 161.557 453.511ZM161.397 447.507C160.576 447.507 159.829 447.886 159.343 448.552C158.85 449.228 158.72 450.071 158.987 450.865L159.132 451.294C159.399 452.088 160.013 452.68 160.816 452.92C161.618 453.16 162.456 453.001 163.115 452.484L169.312 447.625L161.438 447.507C161.424 447.507 161.411 447.507 161.397 447.507Z" fill="#84524D"/>
<path d="M96.6521 242.418C96.6521 242.418 83.2446 272.25 74.1946 308.45C65.1445 344.651 49.0554 435.487 49.0554 435.487H73.8594C73.8594 435.487 122.797 379.51 127.154 302.752L142.238 242.083L96.6521 242.418Z" fill="#363E44"/>
<path d="M116.763 314.148C116.763 314.148 142.238 351.019 144.249 433.476H172.74C172.74 433.476 193.522 387.22 181.79 338.617C170.058 290.015 150.953 237.725 150.953 237.725H120.45L116.763 314.148Z" fill="#363E44"/>
<path d="M124.931 323.377C124.915 323.377 124.898 323.376 124.882 323.372C124.752 323.345 124.668 323.218 124.695 323.088L129.796 298.45C129.809 298.388 129.845 298.335 129.897 298.299L137.318 293.276C137.428 293.202 137.578 293.231 137.652 293.341C137.727 293.451 137.698 293.6 137.588 293.675L130.247 298.643L125.166 323.186C125.142 323.299 125.042 323.377 124.931 323.377Z" fill="#F2E6DC"/>
<path d="M134.87 205.556C147.784 208.246 184.579 218.293 188.627 202.799C191.975 189.983 155.71 181.78 143.059 178.276C140.329 187.369 137.6 196.462 134.87 205.556Z" fill="#E2A18D"/>
<path d="M165.819 191.602C165.819 191.602 194.83 174.207 204.798 169.073C215.266 163.681 231.507 157.244 232.378 159.528C232.874 160.829 230.841 162.164 225.168 165.373C225.618 165.498 226.884 166.211 227.147 167.493C227.535 169.39 226.088 170.125 225.992 170.25C226.148 170.28 227.903 170.715 228.378 171.941C228.913 173.322 228.372 174.456 227.542 175.27C227.926 175.356 229.494 175.991 229.891 177.191C230.407 178.751 229.208 180.12 227.993 180.723C225.764 181.83 219.597 184.702 216.53 186.638C210.494 190.447 190.876 206.851 180.697 210.05C181 200.82 165.819 191.602 165.819 191.602Z" fill="#E2A18D"/>
<path d="M210.951 180.544C210.892 180.544 210.833 180.522 210.786 180.478C210.69 180.387 210.685 180.234 210.777 180.138C212.519 178.299 213.106 176.323 213.577 174.735C214.063 173.097 214.448 171.803 215.917 171.69C216.872 171.617 217.993 171.046 219.158 170.041C219.477 169.766 219.487 169.389 219.39 169.128C219.292 168.864 219.035 168.581 218.606 168.581H210.951C210.818 168.581 210.711 168.474 210.711 168.341C210.711 168.208 210.818 168.101 210.951 168.101H218.606C219.162 168.101 219.647 168.438 219.841 168.961C220.034 169.479 219.889 170.045 219.472 170.405C218.211 171.493 217.027 172.087 215.954 172.17C214.865 172.253 214.548 173.154 214.038 174.872C213.552 176.509 212.947 178.546 211.126 180.469C211.079 180.519 211.015 180.544 210.951 180.544Z" fill="#363E44"/>
<path d="M223.512 181.541C223.424 181.541 223.339 181.492 223.297 181.408C222.43 179.675 222.926 177.58 224.407 176.404L223.53 176.696C222.298 177.107 220.95 176.579 220.325 175.442C219.972 174.801 219.895 174.063 220.108 173.364C220.321 172.665 220.795 172.094 221.445 171.759L222.515 171.205C221.682 171.17 220.9 170.662 220.566 169.849C220.14 168.814 220.558 167.628 221.538 167.088L223.995 165.738C224.11 165.674 224.257 165.716 224.321 165.832C224.385 165.949 224.343 166.095 224.226 166.159L221.77 167.51C221.004 167.931 220.678 168.858 221.011 169.666C221.364 170.523 222.354 170.948 223.219 170.611L225.02 169.911C225.139 169.865 225.274 169.919 225.326 170.036C225.379 170.152 225.331 170.29 225.217 170.348L221.666 172.186C221.133 172.461 220.743 172.93 220.568 173.503C220.394 174.078 220.457 174.684 220.746 175.209C221.26 176.143 222.367 176.577 223.378 176.24L226.228 175.29C226.344 175.251 226.471 175.306 226.523 175.418C226.574 175.53 226.532 175.662 226.426 175.725L225.11 176.502C223.497 177.456 222.889 179.516 223.727 181.192C223.787 181.311 223.739 181.455 223.62 181.515C223.585 181.533 223.548 181.541 223.512 181.541Z" fill="#363E44"/>
<path d="M59.2491 211.842C51.7664 222.706 28.2519 252.737 40.9689 262.47C51.4878 270.521 73.0975 240.264 81.2272 229.958C73.9011 223.919 66.5752 217.88 59.2491 211.842Z" fill="#E2A18D"/>
<path d="M51.8787 214.822C51.8787 214.822 81.4768 184.568 104.905 178.633C123.271 173.981 138.75 173.791 162.154 181.715L156.5 213.322L151.291 211.396C156.316 222.977 159.332 231.692 162.349 241.747L74.5298 247.781L76.1153 238.28L71.4239 242.559L51.8787 214.822Z" fill="white"/>
<path d="M88.1849 306.906C107.743 306.906 123.597 291.052 123.597 271.494C123.597 251.936 107.743 236.082 88.1849 236.082C68.6272 236.082 52.7726 251.936 52.7726 271.494C52.7726 291.052 68.6272 306.906 88.1849 306.906Z" fill="#EFBC73"/>
<path d="M105.888 289.199C115.667 279.42 115.667 263.566 105.888 253.787C96.109 244.008 80.2545 244.008 70.4757 253.787C60.6969 263.566 60.6969 279.42 70.4757 289.199C80.2545 298.978 96.109 298.978 105.888 289.199Z" fill="#E0AA63"/>
<path d="M94.6986 313.66C75.0397 313.66 59.0461 297.667 59.0461 278.008C59.0461 258.349 75.0399 242.355 94.6986 242.355C114.358 242.355 130.351 258.349 130.351 278.008C130.351 297.667 114.358 313.66 94.6986 313.66ZM94.6986 242.836C75.3049 242.836 59.5269 258.614 59.5269 278.008C59.5269 297.402 75.3049 313.18 94.6986 313.18C114.092 313.18 129.87 297.402 129.87 278.008C129.87 258.614 114.092 242.836 94.6986 242.836Z" fill="white"/>
<path d="M66.9446 248.359C77.584 256.86 103.631 275.641 106.1 277.575C110.716 281.192 120.769 288.624 118.993 292.236C118.403 293.437 117.013 294.194 115.415 294.287C115.904 295.933 115.383 297.693 114.109 298.731C112.434 300.096 110.369 299.471 110.218 299.423C110.761 300.637 110.67 302.015 109.934 302.977C108.919 304.304 106.8 304.674 105.087 303.602C105.053 303.978 104.885 305.311 103.788 306.279C102.572 307.353 100.706 307.546 99.0666 306.76C94.9625 303.55 87.7473 299.593 79.4058 294.333C59.815 281.981 51.5975 275.651 43.2145 267.97C39.9628 264.991 35.2505 257.978 38.255 248.64C47.8948 248.525 57.3043 248.473 66.9446 248.359Z" fill="#E2A18D"/>
<path d="M70.9804 251.791C70.9287 251.791 70.8767 251.774 70.833 251.74C68.1209 249.627 66.4239 248.3 65.4926 247.562C65.3885 247.48 65.371 247.329 65.4534 247.224C65.5359 247.121 65.6871 247.103 65.7913 247.185C66.7213 247.922 68.4173 249.249 71.1282 251.361C71.2331 251.442 71.2518 251.594 71.1703 251.698C71.1229 251.759 71.052 251.791 70.9804 251.791Z" fill="#363E44"/>
<path d="M111.339 288.83C111.281 288.83 111.224 288.81 111.178 288.769C111.079 288.68 111.071 288.528 111.159 288.429L112.881 286.506C112.969 286.407 113.122 286.399 113.22 286.488C113.319 286.576 113.327 286.728 113.239 286.827L111.518 288.75C111.47 288.803 111.404 288.83 111.339 288.83Z" fill="#363E44"/>
<path d="M106.978 293.715C106.921 293.715 106.864 293.695 106.818 293.654C106.719 293.565 106.711 293.413 106.799 293.315L108.52 291.392C108.609 291.293 108.761 291.285 108.86 291.373C108.958 291.461 108.967 291.613 108.878 291.712L107.157 293.635C107.11 293.688 107.044 293.715 106.978 293.715Z" fill="#363E44"/>
<path d="M102.593 298.739C102.536 298.739 102.479 298.718 102.433 298.677C102.334 298.589 102.326 298.437 102.414 298.338L104.135 296.415C104.224 296.316 104.376 296.308 104.475 296.396C104.574 296.485 104.582 296.637 104.494 296.736L102.773 298.659C102.725 298.712 102.659 298.739 102.593 298.739Z" fill="#363E44"/>
<path d="M98.5228 303.212C98.4656 303.212 98.4083 303.192 98.3624 303.151C98.2636 303.063 98.2552 302.911 98.3437 302.812L100.065 300.889C100.153 300.79 100.306 300.782 100.404 300.87C100.503 300.959 100.511 301.11 100.423 301.21L98.7019 303.132C98.6546 303.185 98.5889 303.212 98.5228 303.212Z" fill="#363E44"/>
<path d="M118.569 180.039C119.478 183.087 114.494 187.263 107.437 189.367C100.379 191.47 93.9223 190.705 93.0137 187.658C92.1051 184.61 97.0896 180.434 104.146 178.33C111.203 176.226 117.661 176.991 118.569 180.039Z" fill="#E2A18D"/>
<path d="M115.799 169.057C112.844 172.837 100.1 168.766 100.1 168.766L90.2634 157.899C88.335 151.431 92.0154 144.624 98.4837 142.695C104.952 140.767 111.759 144.447 113.687 150.916C113.687 150.916 118.809 165.207 115.799 169.057Z" fill="#E2A18D"/>
<path d="M104.414 153.53L90.2224 157.761L99.0497 187.37L113.241 183.139L104.414 153.53Z" fill="#E2A18D"/>
<path d="M113.259 154.397C113.259 154.397 117.57 156.859 117.666 157.82C117.781 158.967 114.319 160.719 114.319 160.719C114.319 160.719 113.349 154.379 113.259 154.397Z" fill="#E2A18D"/>
<path d="M102.54 157.046C102.54 157.046 104.186 155.407 106.55 154.703C107.053 154.553 107.304 158.86 106.759 158.774C104.361 158.398 102.54 157.046 102.54 157.046Z" fill="white"/>
<mask id="mask0_1757_460" style="mask-type:luminance" maskUnits="userSpaceOnUse" x="102" y="154" width="13" height="5">
<path d="M102.54 157.046C102.54 157.046 104.962 154.636 108.147 154.405C111.333 154.174 114.077 156.21 114.077 156.21C114.077 156.21 111.655 158.621 108.47 158.852C105.284 159.083 102.54 157.046 102.54 157.046Z" fill="white"/>
</mask>
<g mask="url(#mask0_1757_460)">
<path d="M106.619 154.569C107.717 152.54 110.251 151.784 112.28 152.882C114.31 153.979 115.065 156.514 113.968 158.543C112.871 160.572 110.336 161.328 108.307 160.23C106.278 159.133 105.522 156.599 106.619 154.569Z" fill="#363E44"/>
</g>
<path d="M111.534 163.923C111.351 163.923 111.167 163.897 110.987 163.844C110.279 163.636 109.74 163.029 109.613 162.298C109.59 162.167 109.678 162.043 109.809 162.02C109.94 161.997 110.064 162.085 110.087 162.216C110.182 162.768 110.589 163.226 111.123 163.383C111.677 163.546 112.279 163.366 112.658 162.924C112.745 162.823 112.897 162.812 112.997 162.898C113.098 162.985 113.11 163.137 113.023 163.237C112.644 163.679 112.096 163.923 111.534 163.923Z" fill="#363E44"/>
<path d="M110.798 171.108C106.13 171.108 100.359 169.283 100.087 169.197C99.9608 169.156 99.8911 169.021 99.9315 168.894C99.9719 168.768 100.106 168.698 100.234 168.739C100.307 168.762 107.65 171.084 112.371 170.544C112.503 170.529 112.622 170.624 112.637 170.756C112.652 170.888 112.558 171.007 112.426 171.022C111.907 171.081 111.36 171.108 110.798 171.108Z" fill="#363E44"/>
<path d="M89.6526 165.32C86.1629 163.648 85.0906 155.421 87.2345 150.151C89.9988 143.357 98.0157 139.347 104.493 139.893C106.086 140.027 109.724 140.806 110.933 143.076C111.874 144.843 110.081 148.515 107.043 149.571C102.772 151.055 96.7861 150.066 98.9984 154.934C105.702 169.682 93.4871 167.158 89.6526 165.32Z" fill="#363E44"/>
<path d="M85.4521 176.584C95.4658 166.57 95.4658 150.335 85.4521 140.321C75.4384 130.307 59.203 130.307 49.1893 140.321C39.1756 150.335 39.1756 166.57 49.1893 176.584C59.203 186.597 75.4384 186.597 85.4521 176.584Z" fill="#363E44"/>
<path d="M109.137 161.857C106.958 161.857 104.958 159.961 104.518 157.344C104.286 155.965 104.516 154.59 105.168 153.474C105.827 152.343 106.837 151.612 108.013 151.414C110.424 151.008 112.773 153.01 113.256 155.875C113.488 157.255 113.257 158.629 112.606 159.745C111.946 160.876 110.936 161.607 109.761 161.805C109.552 161.84 109.343 161.857 109.137 161.857ZM108.638 151.843C108.457 151.843 108.275 151.858 108.092 151.888C107.06 152.062 106.169 152.711 105.583 153.716C104.988 154.735 104.778 155.996 104.992 157.265C105.43 159.868 107.533 161.692 109.681 161.331C110.713 161.157 111.604 160.508 112.19 159.503C112.785 158.484 112.995 157.223 112.781 155.954C112.381 153.572 110.585 151.843 108.638 151.843Z" fill="white"/>
<path d="M97.9926 159.196C97.8861 159.196 97.7887 159.125 97.7604 159.017C97.7265 158.888 97.8032 158.757 97.9316 158.723L104.3 157.047C104.429 157.014 104.56 157.09 104.594 157.219C104.628 157.347 104.551 157.479 104.423 157.512L98.0542 159.188C98.0335 159.194 98.0131 159.196 97.9926 159.196Z" fill="white"/>
<path d="M113.076 155.174C113.028 155.174 112.981 155.16 112.938 155.131C112.83 155.054 112.803 154.905 112.879 154.796C113.252 154.264 114.289 153.49 115.559 154.364C115.668 154.439 115.696 154.589 115.621 154.698C115.546 154.807 115.396 154.835 115.286 154.76C114.089 153.936 113.306 155.025 113.273 155.071C113.227 155.138 113.152 155.174 113.076 155.174Z" fill="white"/>
<path d="M70.1722 170.593C58.9502 170.593 49.8204 161.463 49.8204 150.241C49.8204 139.019 58.9502 129.889 70.1722 129.889C81.3941 129.889 90.524 139.019 90.524 150.241C90.524 161.463 81.3941 170.593 70.1722 170.593ZM70.1722 130.37C59.2154 130.37 50.3012 139.284 50.3012 150.241C50.3012 161.198 59.2152 170.112 70.1722 170.112C81.1291 170.112 90.0431 161.198 90.0431 150.241C90.0431 139.284 81.1289 130.37 70.1722 130.37Z" fill="#363E44"/>
<path d="M72.6861 180.648C65.5519 180.648 58.9767 176.476 55.9344 170.02C55.8779 169.9 55.9294 169.757 56.0496 169.7C56.1695 169.643 56.3131 169.695 56.3694 169.815C59.3325 176.104 65.7373 180.167 72.6861 180.167C80.6275 180.167 87.5466 175.077 89.9031 167.501C89.9426 167.374 90.0772 167.303 90.2042 167.343C90.3309 167.382 90.4018 167.517 90.3624 167.644C87.9428 175.422 80.8391 180.648 72.6861 180.648Z" fill="white"/>
<path d="M407.412 433.359C425.473 433.359 440.115 428.724 440.115 423.006C440.115 417.289 425.473 412.654 407.412 412.654C389.351 412.654 374.709 417.289 374.709 423.006C374.709 428.724 389.351 433.359 407.412 433.359Z" fill="#E0AA63"/>
<path d="M374.709 423.359H440.115V412.693H374.709V423.359Z" fill="#E0AA63"/>
<path d="M407.412 423.248C425.473 423.248 440.115 418.613 440.115 412.895C440.115 407.178 425.473 402.543 407.412 402.543C389.351 402.543 374.709 407.178 374.709 412.895C374.709 418.613 389.351 423.248 407.412 423.248Z" fill="#EFBC73"/>
<path d="M403.559 423.489C394.8 423.489 386.562 422.408 380.362 420.445C374.077 418.456 370.616 415.774 370.616 412.895C370.616 410.016 374.077 407.335 380.362 405.346C386.562 403.383 394.8 402.302 403.559 402.302C412.318 402.302 420.557 403.383 426.756 405.346C433.041 407.335 436.503 410.017 436.503 412.895C436.503 415.774 433.041 418.456 426.756 420.445C420.557 422.408 412.319 423.489 403.559 423.489ZM403.559 402.783C394.848 402.783 386.661 403.856 380.507 405.804C374.526 407.697 371.096 410.282 371.096 412.895C371.096 415.509 374.526 418.093 380.507 419.987C386.661 421.935 394.848 423.008 403.559 423.008C412.27 423.008 420.457 421.935 426.611 419.987C432.592 418.093 436.022 415.509 436.022 412.895C436.022 410.282 432.592 407.697 426.611 405.804C420.457 403.856 412.27 402.783 403.559 402.783Z" fill="white"/>
<path d="M400.67 416.508C418.731 416.508 433.373 411.873 433.373 406.155C433.373 400.437 418.731 395.802 400.67 395.802C382.608 395.802 367.967 400.437 367.967 406.155C367.967 411.873 382.608 416.508 400.67 416.508Z" fill="#E0AA63"/>
<path d="M367.966 406.508H433.373V395.841H367.966V406.508Z" fill="#E0AA63"/>
<path d="M400.67 406.396C418.731 406.396 433.373 401.761 433.373 396.044C433.373 390.326 418.731 385.691 400.67 385.691C382.608 385.691 367.967 390.326 367.967 396.044C367.967 401.761 382.608 406.396 400.67 406.396Z" fill="#EFBC73"/>
<path d="M396.817 406.637C388.057 406.637 379.819 405.556 373.62 403.594C367.334 401.604 363.873 398.923 363.873 396.044C363.873 393.165 367.335 390.484 373.62 388.494C379.819 386.531 388.057 385.451 396.817 385.451C405.576 385.451 413.814 386.531 420.014 388.494C426.299 390.484 429.76 393.165 429.76 396.044C429.76 398.923 426.299 401.604 420.014 403.594C413.814 405.556 405.576 406.637 396.817 406.637ZM396.817 385.932C388.106 385.932 379.919 387.004 373.765 388.952C367.784 390.846 364.354 393.431 364.354 396.044C364.354 398.657 367.784 401.242 373.765 403.135C379.919 405.083 388.106 406.156 396.817 406.156C405.528 406.156 413.715 405.083 419.869 403.135C425.85 401.242 429.28 398.657 429.28 396.044C429.28 393.431 425.85 390.846 419.869 388.952C413.715 387.004 405.528 385.932 396.817 385.932Z" fill="white"/>
<path d="M407.412 399.656C425.473 399.656 440.115 395.021 440.115 389.303C440.115 383.586 425.473 378.95 407.412 378.95C389.351 378.95 374.709 383.586 374.709 389.303C374.709 395.021 389.351 399.656 407.412 399.656Z" fill="#E0AA63"/>
<path d="M374.709 389.656H440.115V378.99H374.709V389.656Z" fill="#E0AA63"/>
<path d="M407.412 389.545C425.473 389.545 440.115 384.91 440.115 379.192C440.115 373.474 425.473 368.839 407.412 368.839C389.351 368.839 374.709 373.474 374.709 379.192C374.709 384.91 389.351 389.545 407.412 389.545Z" fill="#EFBC73"/>
<path d="M403.559 389.785C394.8 389.785 386.562 388.704 380.362 386.742C374.077 384.752 370.616 382.071 370.616 379.192C370.616 376.313 374.077 373.632 380.362 371.642C386.562 369.68 394.8 368.599 403.559 368.599C412.318 368.599 420.557 369.68 426.756 371.642C433.041 373.632 436.503 376.313 436.503 379.192C436.503 382.071 433.041 384.752 426.756 386.742C420.557 388.704 412.319 389.785 403.559 389.785ZM403.559 369.08C394.848 369.08 386.661 370.153 380.507 372.101C374.526 373.994 371.096 376.579 371.096 379.192C371.096 381.805 374.526 384.39 380.507 386.283C386.661 388.232 394.848 389.304 403.559 389.304C412.27 389.304 420.457 388.232 426.611 386.283C432.592 384.39 436.022 381.805 436.022 379.192C436.022 376.579 432.592 373.994 426.611 372.101C420.457 370.153 412.27 369.08 403.559 369.08Z" fill="white"/>
<path d="M396.817 384.67C414.878 384.67 429.52 380.035 429.52 374.317C429.52 368.599 414.878 363.964 396.817 363.964C378.755 363.964 364.114 368.599 364.114 374.317C364.114 380.035 378.755 384.67 396.817 384.67Z" fill="#E0AA63"/>
<path d="M364.114 374.67H429.52V364.003H364.114V374.67Z" fill="#E0AA63"/>
<path d="M396.817 374.559C414.878 374.559 429.52 369.924 429.52 364.206C429.52 358.488 414.878 353.853 396.817 353.853C378.755 353.853 364.114 358.488 364.114 364.206C364.114 369.924 378.755 374.559 396.817 374.559Z" fill="#EFBC73"/>
<path d="M392.964 374.799C384.205 374.799 375.967 373.718 369.767 371.756C363.482 369.766 360.021 367.085 360.021 364.206C360.021 361.327 363.482 358.646 369.767 356.656C375.967 354.694 384.205 353.613 392.964 353.613C401.723 353.613 409.962 354.694 416.161 356.656C422.447 358.646 425.908 361.327 425.908 364.206C425.908 367.085 422.447 369.766 416.161 371.756C409.962 373.718 401.723 374.799 392.964 374.799ZM392.964 354.094C384.253 354.094 376.066 355.166 369.912 357.115C363.932 359.008 360.501 361.593 360.501 364.206C360.501 366.819 363.932 369.404 369.912 371.297C376.066 373.245 384.253 374.318 392.964 374.318C401.676 374.318 409.862 373.245 416.016 371.297C421.997 369.404 425.427 366.819 425.427 364.206C425.427 361.593 421.997 359.008 416.016 357.115C409.862 355.166 401.676 354.094 392.964 354.094Z" fill="white"/>
<path d="M406.243 372.942C424.305 372.942 438.946 368.307 438.946 362.589C438.946 356.871 424.305 352.236 406.243 352.236C388.182 352.236 373.54 356.871 373.54 362.589C373.54 368.307 388.182 372.942 406.243 372.942Z" fill="#E0AA63"/>
<path d="M373.54 362.942H438.946V352.275H373.54V362.942Z" fill="#E0AA63"/>
<path d="M406.243 362.831C424.305 362.831 438.946 358.196 438.946 352.478C438.946 346.76 424.305 342.125 406.243 342.125C388.182 342.125 373.54 346.76 373.54 352.478C373.54 358.196 388.182 362.831 406.243 362.831Z" fill="#EFBC73"/>
<path d="M402.391 363.071C393.631 363.071 385.393 361.99 379.194 360.028C372.908 358.038 369.447 355.357 369.447 352.478C369.447 349.599 372.909 346.918 379.194 344.928C385.393 342.966 393.631 341.885 402.391 341.885C411.15 341.885 419.388 342.966 425.588 344.928C431.873 346.918 435.334 349.599 435.334 352.478C435.334 355.357 431.873 358.038 425.588 360.028C419.388 361.99 411.15 363.071 402.391 363.071ZM402.391 342.366C393.679 342.366 385.493 343.439 379.339 345.387C373.358 347.28 369.928 349.865 369.928 352.478C369.928 355.091 373.358 357.676 379.339 359.569C385.493 361.518 393.679 362.591 402.391 362.591C411.102 362.591 419.289 361.518 425.443 359.569C431.423 357.676 434.854 355.091 434.854 352.478C434.854 349.865 431.423 347.28 425.443 345.387C419.289 343.439 411.102 342.366 402.391 342.366Z" fill="white"/>
<path d="M412.986 356.09C431.047 356.09 445.689 351.455 445.689 345.738C445.689 340.02 431.047 335.385 412.986 335.385C394.924 335.385 380.283 340.02 380.283 345.738C380.283 351.455 394.924 356.09 412.986 356.09Z" fill="#E0AA63"/>
<path d="M380.283 346.09H445.689V335.424H380.283V346.09Z" fill="#E0AA63"/>
<path d="M412.986 345.979C431.047 345.979 445.689 341.344 445.689 335.626C445.689 329.909 431.047 325.274 412.986 325.274C394.924 325.274 380.283 329.909 380.283 335.626C380.283 341.344 394.924 345.979 412.986 345.979Z" fill="#EFBC73"/>
<path d="M409.133 346.22C400.374 346.22 392.136 345.139 385.936 343.176C379.651 341.187 376.19 338.506 376.19 335.627C376.19 332.748 379.651 330.067 385.936 328.077C392.135 326.114 400.374 325.033 409.133 325.033C417.892 325.033 426.131 326.114 432.33 328.077C438.615 330.067 442.077 332.748 442.077 335.627C442.077 338.506 438.615 341.187 432.33 343.176C426.131 345.139 417.892 346.22 409.133 346.22ZM409.133 325.514C400.422 325.514 392.235 326.587 386.081 328.535C380.1 330.428 376.67 333.013 376.67 335.626C376.67 338.24 380.1 340.824 386.081 342.718C392.235 344.666 400.422 345.739 409.133 345.739C417.844 345.739 426.031 344.666 432.185 342.718C438.166 340.824 441.596 338.24 441.596 335.626C441.596 333.013 438.166 330.428 432.185 328.535C426.031 326.587 417.844 325.514 409.133 325.514Z" fill="white"/>
<path d="M408.075 340.877C426.137 340.877 440.778 336.242 440.778 330.524C440.778 324.807 426.137 320.172 408.075 320.172C390.014 320.172 375.372 324.807 375.372 330.524C375.372 336.242 390.014 340.877 408.075 340.877Z" fill="#E0AA63"/>
<path d="M375.372 330.877H440.778V320.211H375.372V330.877Z" fill="#E0AA63"/>
<path d="M408.075 330.766C426.137 330.766 440.778 326.131 440.778 320.413C440.778 314.696 426.137 310.061 408.075 310.061C390.014 310.061 375.372 314.696 375.372 320.413C375.372 326.131 390.014 330.766 408.075 330.766Z" fill="#EFBC73"/>
<path d="M404.223 331.006C395.463 331.006 387.225 329.926 381.025 327.963C374.74 325.973 371.279 323.292 371.279 320.413C371.279 317.534 374.74 314.853 381.025 312.864C387.225 310.901 395.463 309.82 404.223 309.82C412.982 309.82 421.22 310.901 427.42 312.864C433.705 314.853 437.166 317.534 437.166 320.413C437.166 323.292 433.705 325.973 427.42 327.963C421.22 329.926 412.982 331.006 404.223 331.006ZM404.223 310.301C395.511 310.301 387.325 311.374 381.171 313.322C375.19 315.215 371.76 317.8 371.76 320.413C371.76 323.027 375.19 325.611 381.171 327.505C387.325 329.453 395.511 330.526 404.223 330.526C412.934 330.526 421.121 329.453 427.275 327.505C433.255 325.611 436.685 323.027 436.685 320.413C436.685 317.8 433.255 315.215 427.275 313.322C421.121 311.374 412.934 310.301 404.223 310.301Z" fill="white"/>
<path d="M336.634 433.652C354.695 433.652 369.337 429.017 369.337 423.299C369.337 417.582 354.695 412.947 336.634 412.947C318.573 412.947 303.931 417.582 303.931 423.299C303.931 429.017 318.573 433.652 336.634 433.652Z" fill="#E0AA63"/>
<path d="M303.931 423.652H369.337V412.986H303.931V423.652Z" fill="#E0AA63"/>
<path d="M336.634 423.541C354.695 423.541 369.337 418.906 369.337 413.188C369.337 407.471 354.695 402.835 336.634 402.835C318.573 402.835 303.931 407.471 303.931 413.188C303.931 418.906 318.573 423.541 336.634 423.541Z" fill="#EFBC73"/>
<path d="M332.782 423.781C324.022 423.781 315.784 422.7 309.584 420.738C303.299 418.748 299.838 416.067 299.838 413.188C299.838 410.309 303.299 407.628 309.584 405.638C315.784 403.676 324.022 402.595 332.782 402.595C341.541 402.595 349.779 403.676 355.979 405.638C362.264 407.628 365.725 410.309 365.725 413.188C365.725 416.067 362.264 418.748 355.979 420.738C349.779 422.701 341.541 423.781 332.782 423.781ZM332.782 403.076C324.07 403.076 315.884 404.149 309.729 406.097C303.749 407.99 300.319 410.575 300.319 413.188C300.319 415.801 303.749 418.386 309.729 420.279C315.884 422.228 324.07 423.3 332.782 423.3C341.493 423.3 349.68 422.228 355.834 420.279C361.814 418.386 365.244 415.801 365.244 413.188C365.244 410.575 361.814 407.99 355.834 406.097C349.68 404.149 341.493 403.076 332.782 403.076Z" fill="white"/>
<path d="M329.892 416.715C347.953 416.715 362.595 412.093 362.595 406.391C362.595 400.689 347.953 396.067 329.892 396.067C311.831 396.067 297.189 400.689 297.189 406.391C297.189 412.093 311.831 416.715 329.892 416.715Z" fill="#E0AA63"/>
<path d="M297.189 406.743H362.595V396.106H297.189V406.743Z" fill="#E0AA63"/>
<path d="M329.892 406.632C347.953 406.632 362.595 402.01 362.595 396.308C362.595 390.606 347.953 385.984 329.892 385.984C311.831 385.984 297.189 390.606 297.189 396.308C297.189 402.01 311.831 406.632 329.892 406.632Z" fill="#EFBC73"/>
<path d="M326.039 406.873C317.28 406.873 309.042 405.795 302.842 403.838C296.557 401.854 293.096 399.18 293.096 396.308C293.096 393.437 296.557 390.763 302.842 388.779C309.042 386.822 317.28 385.744 326.039 385.744C334.799 385.744 343.037 386.822 349.236 388.779C355.522 390.763 358.983 393.437 358.983 396.308C358.983 399.18 355.522 401.854 349.236 403.838C343.037 405.795 334.799 406.873 326.039 406.873ZM326.039 386.224C317.328 386.224 309.141 387.294 302.987 389.237C297.007 391.125 293.576 393.702 293.576 396.308C293.576 398.914 297.007 401.491 302.987 403.379C309.141 405.322 317.328 406.392 326.039 406.392C334.751 406.392 342.937 405.322 349.091 403.379C355.072 401.491 358.502 398.914 358.502 396.308C358.502 393.702 355.072 391.125 349.091 389.237C342.937 387.294 334.751 386.224 326.039 386.224Z" fill="white"/>
<path d="M357.358 383.731C370.069 370.903 377.082 357.242 373.02 353.217C368.958 349.191 355.361 356.327 342.649 369.155C329.937 381.982 322.925 395.644 326.986 399.669C331.048 403.694 344.646 396.558 357.358 383.731Z" fill="#E0AA63"/>
<path d="M365.692 345.973L319.658 392.426L327.236 399.935L373.269 353.482L365.692 345.973Z" fill="#E0AA63"/>
<path d="M350.173 376.615C362.884 363.788 369.897 350.126 365.835 346.101C361.773 342.076 348.176 349.211 335.464 362.039C322.752 374.866 315.74 388.528 319.801 392.553C323.863 396.578 337.461 389.442 350.173 376.615Z" fill="#EFBC73"/>
<path d="M320.351 396.631C318.886 396.631 317.727 396.236 316.922 395.439C314.877 393.413 315.407 389.068 318.417 383.204C321.385 377.419 326.415 370.807 332.58 364.586C338.744 358.364 345.31 353.274 351.068 350.251C356.905 347.188 361.245 346.616 363.292 348.642C365.337 350.668 364.807 355.014 361.797 360.878C358.829 366.663 353.799 373.274 347.635 379.496C341.47 385.717 334.905 390.808 329.147 393.83C325.604 395.689 322.613 396.631 320.351 396.631ZM359.87 347.943C357.687 347.943 354.74 348.867 351.291 350.678C345.576 353.678 339.052 358.737 332.921 364.925C326.79 371.112 321.791 377.682 318.845 383.423C315.981 389.003 315.404 393.259 317.261 395.098C319.118 396.938 323.369 396.32 328.923 393.405C334.638 390.405 341.162 385.345 347.293 379.158C353.424 372.971 358.423 366.401 361.369 360.659C364.233 355.079 364.81 350.824 362.953 348.984C362.249 348.287 361.201 347.943 359.87 347.943Z" fill="white"/>
</svg>
