<svg width="600" height="600" viewBox="0 0 600 600" fill="none" xmlns="http://www.w3.org/2000/svg">
<path d="M300 564C445.803 564 564 445.803 564 300C564 154.197 445.803 36 300 36C154.197 36 36 154.197 36 300C36 445.803 154.197 564 300 564Z" fill="#D2D8FF"/>
<path d="M549.333 518.551H238.71C238.55 518.551 238.421 518.422 238.421 518.263V283.842C238.421 283.682 238.55 283.553 238.71 283.553H549.333C549.492 283.553 549.621 283.682 549.621 283.842V518.263C549.621 518.422 549.492 518.551 549.333 518.551ZM238.998 517.974H549.044V284.13H238.998V517.974Z" fill="#1A237E"/>
<path d="M539.587 489.761V293.545L248.455 293.545L248.455 489.761L539.587 489.761Z" fill="#E6D0BE"/>
<path d="M539.587 489.761V293.545L248.455 293.545L248.455 489.761L539.587 489.761Z" fill="#A4B1FF"/>
<path d="M527.341 444.527V316.72L261.973 316.72V444.527L527.341 444.527Z" fill="#E9ECFF"/>
<path d="M399.869 502.86C399.869 506.075 397.251 508.681 394.022 508.681C390.793 508.681 388.175 506.075 388.175 502.86C388.175 499.645 390.793 497.038 394.022 497.038C397.251 497.038 399.869 499.645 399.869 502.86Z" fill="white"/>
<path d="M524.933 549.562H236.139C222.526 549.562 211.451 538.406 211.451 524.693C211.451 524.534 211.58 524.404 211.74 524.404H549.333C549.492 524.404 549.621 524.534 549.621 524.693C549.621 538.406 538.546 549.562 524.933 549.562ZM212.03 524.981C212.184 538.244 222.941 548.985 236.14 548.985H524.933C538.132 548.985 548.888 538.244 549.043 524.981H212.03Z" fill="#1A237E"/>
<path d="M467.571 547.015C467.412 547.015 467.283 546.886 467.283 546.727C467.283 546.567 467.412 546.438 467.571 546.438C478.078 546.438 486.626 537.826 486.626 527.24C486.626 527.081 486.755 526.952 486.914 526.952C487.074 526.952 487.203 527.081 487.203 527.24C487.203 538.144 478.396 547.015 467.571 547.015Z" fill="#1A237E"/>
<path d="M353.712 530.503C353.712 536.272 349.07 540.948 343.344 540.948H306.844C301.117 540.948 296.475 536.272 296.475 530.503H353.712Z" fill="#A4B1FF"/>
<path d="M259.937 416.802L519.278 416.802V57.89L259.937 57.89L259.937 416.802Z" fill="white"/>
<path d="M511.65 424.719H252.309C252.15 424.719 252.021 424.59 252.021 424.431V88.7578C252.021 88.5986 252.15 88.4693 252.309 88.4693C252.469 88.4693 252.598 88.5986 252.598 88.7578V424.142H511.361V65.8054L428.311 65.5025C428.152 65.5019 428.023 65.372 428.023 65.2128C428.024 65.0538 428.153 64.9254 428.312 64.9254H428.313L511.651 65.2295C511.81 65.2301 511.938 65.3591 511.938 65.518V424.431C511.938 424.59 511.809 424.719 511.65 424.719Z" fill="#1A237E"/>
<path d="M450.263 315.503H361.831V322.334H450.263V315.503Z" fill="#E9ECFF"/>
<path d="M484.271 332.567H375.554V339.397H484.271V332.567Z" fill="#E9ECFF"/>
<path d="M466.433 349.631H361.831V356.461H466.433V349.631Z" fill="#E9ECFF"/>
<path d="M494.63 240.364H385.234V247.194H494.63V240.364Z" fill="#E9ECFF"/>
<path d="M463.474 257.427H358.872V264.257H463.474V257.427Z" fill="#E9ECFF"/>
<path d="M481.7 274.491H358.872V281.321H481.7V274.491Z" fill="#E9ECFF"/>
<path d="M481.7 169.774H385.621V176.604H481.7V169.774Z" fill="#E9ECFF"/>
<path d="M463.474 186.838H359.26V193.668H463.474V186.838Z" fill="#E9ECFF"/>
<path d="M494.63 203.902H359.26V210.732H494.63V203.902Z" fill="#E9ECFF"/>
<path d="M339.22 372.138H283.996C283.836 372.138 283.707 372.009 283.707 371.85V316.654C283.707 316.495 283.836 316.365 283.996 316.365H339.22C339.379 316.365 339.508 316.495 339.508 316.654V371.85C339.508 372.009 339.379 372.138 339.22 372.138ZM284.284 371.561H338.931V316.942H284.284V371.561Z" fill="#1A237E"/>
<path d="M308.646 363.506L291.356 347.787L296.698 341.204L307.66 349.964L324.862 324.998L331.86 329.815L308.646 363.506Z" fill="#D2D8FF"/>
<path d="M339.22 292.546H283.996C283.836 292.546 283.707 292.416 283.707 292.257V237.061C283.707 236.902 283.836 236.773 283.996 236.773H339.22C339.379 236.773 339.508 236.902 339.508 237.061V292.257C339.508 292.417 339.379 292.546 339.22 292.546ZM284.284 291.969H338.931V237.35H284.284V291.969Z" fill="#1A237E"/>
<path d="M308.646 283.913L291.356 268.195L296.698 261.611L307.66 270.371L324.862 245.406L331.86 250.222L308.646 283.913Z" fill="#D2D8FF"/>
<path d="M339.22 221.957H283.996C283.836 221.957 283.707 221.827 283.707 221.668V166.472C283.707 166.313 283.836 166.183 283.996 166.183H339.22C339.379 166.183 339.508 166.313 339.508 166.472V221.668C339.508 221.827 339.379 221.957 339.22 221.957ZM284.284 221.379H338.931V166.76H284.284V221.379Z" fill="#1A237E"/>
<path d="M308.646 213.323L291.356 197.605L296.697 191.022L307.66 199.782L324.861 174.816L331.86 179.633L308.646 213.323Z" fill="#D2D8FF"/>
<path d="M414.91 103.772C414.671 102.942 414.336 102.209 413.904 101.573C413.472 100.925 412.944 100.38 412.319 99.9366C411.705 99.482 411.001 99.1354 410.205 98.8968C409.421 98.6582 408.552 98.5388 407.597 98.5388C405.813 98.5388 404.245 98.982 402.893 99.8684C401.552 100.755 400.506 102.045 399.756 103.738C399.006 105.42 398.631 107.476 398.631 109.908C398.631 112.34 399.001 114.408 399.739 116.113C400.478 117.817 401.523 119.118 402.876 120.016C404.228 120.902 405.825 121.346 407.666 121.346C409.336 121.346 410.762 121.05 411.944 120.459C413.137 119.857 414.046 119.01 414.671 117.92C415.308 116.829 415.626 115.539 415.626 114.05L417.126 114.272H408.126V108.715H422.734V113.113C422.734 116.181 422.086 118.817 420.791 121.022C419.495 123.215 417.711 124.908 415.438 126.101C413.166 127.283 410.563 127.874 407.631 127.874C404.359 127.874 401.484 127.152 399.006 125.709C396.529 124.255 394.597 122.192 393.211 119.522C391.836 116.84 391.148 113.658 391.148 109.976C391.148 107.147 391.558 104.624 392.376 102.408C393.205 100.181 394.364 98.2945 395.853 96.7491C397.342 95.2036 399.075 94.0275 401.052 93.2207C403.029 92.4138 405.171 92.0104 407.478 92.0104C409.455 92.0104 411.296 92.3002 413.001 92.8797C414.705 93.4479 416.217 94.2547 417.535 95.3002C418.864 96.3457 419.95 97.59 420.791 99.0332C421.631 100.465 422.171 102.045 422.41 103.772H414.91ZM449.615 102.527C449.479 101.152 448.894 100.084 447.86 99.3229C446.825 98.5616 445.422 98.1809 443.649 98.1809C442.445 98.1809 441.428 98.3513 440.598 98.6922C439.769 99.0218 439.132 99.482 438.689 100.073C438.257 100.664 438.041 101.334 438.041 102.084C438.019 102.709 438.149 103.255 438.433 103.721C438.729 104.187 439.132 104.59 439.644 104.931C440.155 105.26 440.746 105.55 441.416 105.8C442.087 106.039 442.803 106.243 443.564 106.414L446.7 107.164C448.223 107.505 449.621 107.959 450.894 108.527C452.166 109.096 453.269 109.795 454.2 110.624C455.132 111.454 455.854 112.431 456.365 113.556C456.888 114.681 457.155 115.971 457.166 117.425C457.155 119.562 456.61 121.414 455.53 122.982C454.462 124.539 452.916 125.749 450.894 126.613C448.882 127.465 446.456 127.891 443.615 127.891C440.797 127.891 438.343 127.459 436.252 126.596C434.172 125.732 432.547 124.454 431.377 122.76C430.218 121.056 429.61 118.948 429.553 116.437H436.695C436.774 117.607 437.11 118.584 437.7 119.368C438.303 120.141 439.104 120.726 440.104 121.124C441.115 121.51 442.257 121.704 443.53 121.704C444.78 121.704 445.865 121.522 446.786 121.158C447.718 120.795 448.439 120.289 448.95 119.641C449.462 118.993 449.718 118.249 449.718 117.408C449.718 116.624 449.485 115.965 449.019 115.431C448.564 114.897 447.894 114.442 447.007 114.067C446.132 113.692 445.058 113.351 443.786 113.045L439.985 112.09C437.041 111.374 434.718 110.255 433.013 108.732C431.308 107.209 430.462 105.158 430.473 102.579C430.462 100.465 431.024 98.6184 432.161 97.0388C433.308 95.4593 434.882 94.2263 436.882 93.34C438.882 92.4536 441.155 92.0104 443.7 92.0104C446.291 92.0104 448.553 92.4536 450.485 93.34C452.428 94.2263 453.939 95.4593 455.019 97.0388C456.098 98.6184 456.655 100.448 456.689 102.527H449.615ZM463.201 98.5729V92.4877H491.872V98.5729H481.184V127.397H473.889V98.5729H463.201Z" fill="#40484C"/>
<path d="M352.949 94.3966H286.048V100.62H352.949V94.3966Z" fill="#E9ECFF"/>
<path d="M371.122 108.785H286.048V115.008H371.122V108.785Z" fill="#E9ECFF"/>
<path d="M371.122 123.174H286.048V129.397H371.122V123.174Z" fill="#E9ECFF"/>
<path d="M490.802 143.278H284.177C284.017 143.278 283.888 143.149 283.888 142.989C283.888 142.83 284.017 142.701 284.177 142.701H490.802C490.962 142.701 491.091 142.83 491.091 142.989C491.091 143.149 490.961 143.278 490.802 143.278Z" fill="#1A237E"/>
<path d="M238.644 70.8295L140.384 109.949L172.158 189.758L270.418 150.638L238.644 70.8295Z" fill="#A4B1FF"/>
<path d="M257.477 135.269L245.046 140.218L249.995 152.65L262.427 147.701L257.477 135.269Z" fill="white"/>
<path d="M238.679 70.921L140.423 110.045L126.101 87.7013L224.357 48.5777L238.679 70.921Z" fill="#A4B1FF"/>
<path d="M226.916 69.1878L144.379 102.053L136.443 89.6736L218.981 56.8084L226.916 69.1878Z" fill="#D2D8FF"/>
<path d="M249.881 116.188L237.449 121.138L242.399 133.569L254.83 128.62L249.881 116.188Z" fill="white"/>
<path d="M242.285 97.11L229.853 102.059L234.802 114.491L247.234 109.542L242.285 97.11Z" fill="#D2D8FF"/>
<path d="M234.688 78.0306L222.257 82.98L227.206 95.4116L239.638 90.4623L234.688 78.0306Z" fill="#D2D8FF"/>
<path d="M238.9 142.665L226.468 147.614L231.418 160.046L243.849 155.096L238.9 142.665Z" fill="white"/>
<path d="M231.304 123.586L218.872 128.535L223.821 140.967L236.253 136.017L231.304 123.586Z" fill="white"/>
<path d="M223.708 104.506L211.276 109.455L216.225 121.887L228.657 116.937L223.708 104.506Z" fill="white"/>
<path d="M216.111 85.4268L203.68 90.3762L208.629 102.808L221.061 97.8585L216.111 85.4268Z" fill="white"/>
<path d="M220.322 150.062L207.891 155.011L212.84 167.443L225.272 162.494L220.322 150.062Z" fill="white"/>
<path d="M212.726 130.982L200.295 135.931L205.244 148.363L217.676 143.413L212.726 130.982Z" fill="white"/>
<path d="M205.13 111.903L192.698 116.852L197.648 129.284L210.079 124.335L205.13 111.903Z" fill="white"/>
<path d="M197.534 92.8223L185.102 97.7717L190.052 110.203L202.483 105.254L197.534 92.8223Z" fill="white"/>
<path d="M201.745 157.458L189.314 162.407L194.263 174.839L206.695 169.889L201.745 157.458Z" fill="white"/>
<path d="M194.149 138.379L181.717 143.328L186.666 155.76L199.098 150.81L194.149 138.379Z" fill="white"/>
<path d="M186.553 119.299L174.121 124.248L179.07 136.68L191.502 131.73L186.553 119.299Z" fill="white"/>
<path d="M178.956 100.22L166.525 105.169L171.474 117.601L183.906 112.651L178.956 100.22Z" fill="white"/>
<path d="M175.902 146.604L163.47 151.553L175.685 182.235L188.117 177.285L175.902 146.604Z" fill="#D2D8FF"/>
<path d="M167.975 126.695L155.544 131.645L160.493 144.076L172.925 139.127L167.975 126.695Z" fill="#D2D8FF"/>
<path d="M160.379 107.616L147.947 112.565L152.897 124.997L165.328 120.047L160.379 107.616Z" fill="white"/>
<path d="M81.5791 545.703L55.5291 545.312L63.2907 511.724L89.8375 516.148L81.5791 545.703Z" fill="#E2A18D"/>
<path d="M117.976 562.996H50.5171L56.7287 537.208H83.1564L102.267 543.038C111.633 545.575 118.062 553.743 117.976 562.996Z" fill="#1A237E"/>
<path d="M93.2825 537.303C93.2634 537.303 93.2444 537.303 93.2253 537.303L82.9605 537.149C82.8382 537.147 82.7303 537.068 82.6913 536.952C82.6521 536.837 82.6904 536.709 82.7865 536.633L90.8655 530.299C91.8058 529.562 93.0009 529.335 94.146 529.677C95.2909 530.02 96.166 530.865 96.5474 531.997L96.7211 532.513C97.1025 533.645 96.9176 534.848 96.2133 535.813C95.5203 536.762 94.4547 537.303 93.2825 537.303ZM83.7845 536.584L93.2337 536.726C94.2357 536.739 95.1547 536.284 95.747 535.472C96.3397 534.661 96.4952 533.649 96.1743 532.696L96.0007 532.181C95.6798 531.229 94.9435 530.518 93.9804 530.23C93.0173 529.942 92.0121 530.133 91.2212 530.753L83.7845 536.584Z" fill="#84524D"/>
<path d="M72.7977 544.213C72.4472 544.213 72.0929 544.162 71.7429 544.057C70.598 543.715 69.7229 542.869 69.3415 541.737L69.1678 541.222C68.7864 540.09 68.9713 538.887 69.6756 537.922C70.3802 536.957 71.4714 536.411 72.6633 536.431L82.9284 536.585C83.0508 536.587 83.1587 536.666 83.1976 536.782C83.2369 536.898 83.1985 537.026 83.1024 537.101L75.0234 543.436C74.3705 543.948 73.5944 544.213 72.7977 544.213ZM72.6067 537.008C71.6209 537.008 70.7244 537.463 70.1419 538.262C69.5493 539.074 69.3937 540.086 69.7143 541.038L69.888 541.553C70.2088 542.505 70.9451 543.217 71.9082 543.505C72.8705 543.792 73.8763 543.602 74.6674 542.981L82.1044 537.15L72.6549 537.009C72.6388 537.008 72.6226 537.008 72.6067 537.008Z" fill="#84524D"/>
<path d="M203.171 550.729L177.121 550.338L177.925 511.724L204.472 516.148L203.171 550.729Z" fill="#E2A18D"/>
<path d="M239.046 562.996H171.587L177.396 537.208H204.226L223.337 543.038C232.703 545.575 239.132 553.743 239.046 562.996Z" fill="#1A237E"/>
<path d="M214.353 537.303C214.334 537.303 214.315 537.303 214.296 537.303L204.031 537.149C203.908 537.147 203.8 537.068 203.761 536.952C203.722 536.837 203.761 536.708 203.857 536.633L211.936 530.299C212.876 529.562 214.072 529.335 215.216 529.677C216.361 530.019 217.236 530.865 217.618 531.997L217.791 532.512C218.173 533.645 217.988 534.847 217.283 535.813C216.59 536.762 215.525 537.303 214.353 537.303ZM204.855 536.584L214.304 536.726C214.32 536.726 214.336 536.726 214.352 536.726C215.338 536.726 216.234 536.271 216.817 535.472C217.41 534.66 217.565 533.649 217.245 532.696L217.071 532.181C216.75 531.228 216.014 530.517 215.051 530.23C214.088 529.942 213.082 530.132 212.292 530.753L204.855 536.584Z" fill="#84524D"/>
<path d="M193.868 544.213C193.517 544.213 193.163 544.162 192.813 544.057C191.668 543.715 190.793 542.869 190.412 541.737L190.238 541.222C189.857 540.09 190.042 538.887 190.746 537.922C191.45 536.956 192.545 536.411 193.734 536.431L203.999 536.585C204.121 536.587 204.229 536.666 204.268 536.782C204.307 536.898 204.269 537.026 204.173 537.101L196.094 543.435C195.441 543.947 194.665 544.213 193.868 544.213ZM193.677 537.008C192.691 537.008 191.795 537.463 191.212 538.262C190.62 539.074 190.464 540.085 190.785 541.038L190.959 541.553C191.279 542.505 192.016 543.216 192.979 543.504C193.941 543.792 194.947 543.602 195.738 542.981L203.175 537.15L193.726 537.009C193.709 537.008 193.693 537.008 193.677 537.008Z" fill="#84524D"/>
<path d="M115.982 290.901C115.982 290.901 99.8934 326.7 89.0334 370.14C78.1733 413.581 58.8664 522.584 58.8664 522.584H88.6312C88.6312 522.584 147.356 455.412 152.585 363.302L170.686 290.499L115.982 290.901Z" fill="#363E44"/>
<path d="M140.116 376.978C140.116 376.978 170.685 421.223 173.099 520.171H207.288C207.288 520.171 232.226 464.663 218.148 406.34C204.07 348.018 181.143 285.27 181.143 285.27H144.54L140.116 376.978Z" fill="#363E44"/>
<path d="M149.917 388.053C149.897 388.053 149.878 388.051 149.858 388.047C149.702 388.014 149.602 387.862 149.634 387.706L155.755 358.14C155.77 358.066 155.814 358.001 155.876 357.959L164.782 351.931C164.914 351.842 165.093 351.877 165.183 352.009C165.272 352.141 165.237 352.32 165.105 352.409L156.296 358.372L150.199 387.823C150.171 387.959 150.051 388.053 149.917 388.053Z" fill="#F2E6DC"/>
<path d="M161.844 246.667C177.341 249.896 221.495 261.952 226.352 243.359C230.37 227.98 186.852 218.136 171.671 213.932C168.395 224.843 165.119 235.755 161.844 246.667Z" fill="#E2A18D"/>
<path d="M198.983 229.922C198.983 229.922 233.796 209.048 245.758 202.888C258.319 196.417 277.808 188.694 278.854 191.434C279.449 192.995 277.009 194.598 270.202 198.448C270.741 198.598 272.261 199.454 272.576 200.993C273.042 203.269 271.306 204.15 271.191 204.3C271.377 204.336 273.483 204.858 274.053 206.33C274.695 207.986 274.046 209.348 273.051 210.325C273.511 210.428 275.393 211.19 275.869 212.63C276.488 214.502 275.05 216.144 273.591 216.868C270.916 218.196 263.516 221.643 259.836 223.966C252.593 228.537 229.051 248.221 216.837 252.06C217.2 240.984 198.983 229.922 198.983 229.922Z" fill="#E2A18D"/>
<path d="M253.142 216.653C253.07 216.653 252.999 216.627 252.943 216.574C252.828 216.464 252.823 216.282 252.932 216.166C255.023 213.959 255.727 211.588 256.293 209.683C256.876 207.717 257.337 206.164 259.101 206.029C260.247 205.941 261.591 205.256 262.99 204.05C263.372 203.719 263.385 203.267 263.269 202.955C263.151 202.637 262.842 202.298 262.327 202.298H253.141C252.982 202.298 252.853 202.169 252.853 202.01C252.853 201.85 252.982 201.721 253.141 201.721H262.327C262.995 201.721 263.576 202.127 263.809 202.754C264.04 203.375 263.866 204.055 263.367 204.486C261.853 205.792 260.433 206.505 259.145 206.604C257.838 206.704 257.458 207.785 256.846 209.847C256.263 211.811 255.537 214.256 253.351 216.563C253.294 216.623 253.218 216.653 253.142 216.653Z" fill="#363E44"/>
<path d="M268.215 217.849C268.109 217.849 268.007 217.791 267.956 217.69C266.916 215.61 267.511 213.096 269.288 211.685L268.236 212.036C266.758 212.528 265.14 211.895 264.39 210.53C263.967 209.762 263.875 208.876 264.13 208.037C264.385 207.198 264.955 206.514 265.734 206.111L267.018 205.447C266.019 205.405 265.081 204.794 264.679 203.819C264.168 202.578 264.67 201.154 265.846 200.506L268.794 198.885C268.932 198.809 269.109 198.86 269.185 198.999C269.262 199.139 269.211 199.314 269.071 199.391L266.124 201.012C265.205 201.517 264.813 202.63 265.213 203.599C265.637 204.628 266.825 205.138 267.863 204.734L270.024 203.893C270.167 203.838 270.329 203.904 270.392 204.043C270.454 204.183 270.398 204.348 270.261 204.419L265.999 206.623C265.359 206.954 264.892 207.516 264.682 208.205C264.472 208.894 264.548 209.621 264.895 210.252C265.512 211.373 266.84 211.892 268.053 211.488L271.473 210.348C271.613 210.302 271.766 210.368 271.827 210.502C271.888 210.636 271.838 210.795 271.711 210.87L270.132 211.803C268.196 212.947 267.467 215.419 268.473 217.431C268.544 217.574 268.487 217.747 268.344 217.818C268.302 217.84 268.258 217.849 268.215 217.849Z" fill="#363E44"/>
<path d="M71.099 254.21C62.1198 267.247 33.9024 303.285 49.1628 314.965C61.7854 324.625 87.7172 288.317 97.4728 275.95C88.6814 268.703 79.8904 261.457 71.099 254.21Z" fill="#E2A18D"/>
<path d="M62.2545 257.787C62.2545 257.787 97.7721 221.481 125.886 214.36C147.925 208.778 166.5 208.549 194.585 218.059L187.8 255.987L181.55 253.676C187.579 267.572 191.199 278.03 194.819 290.097L89.4358 297.337L91.3383 285.936L85.7086 291.071L62.2545 257.787Z" fill="white"/>
<path d="M105.822 368.288C129.291 368.288 148.317 349.262 148.317 325.793C148.317 302.324 129.291 283.298 105.822 283.298C82.3527 283.298 63.3271 302.324 63.3271 325.793C63.3271 349.262 82.3527 368.288 105.822 368.288Z" fill="#EFBC73"/>
<path d="M127.065 347.039C138.8 335.304 138.8 316.279 127.065 304.544C115.331 292.81 96.3054 292.81 84.5709 304.544C72.8364 316.279 72.8364 335.304 84.5709 347.039C96.3054 358.773 115.331 358.773 127.065 347.039Z" fill="#E0AA63"/>
<path d="M113.638 376.393C90.0477 376.393 70.8553 357.2 70.8553 333.61C70.8553 310.019 90.0479 290.826 113.638 290.826C137.229 290.826 156.422 310.019 156.422 333.61C156.422 357.2 137.229 376.393 113.638 376.393ZM113.638 291.403C90.3659 291.403 71.4323 310.337 71.4323 333.61C71.4323 356.882 90.3659 375.816 113.638 375.816C136.911 375.816 155.845 356.882 155.845 333.61C155.845 310.337 136.911 291.403 113.638 291.403Z" fill="white"/>
<path d="M80.3336 298.031C93.1008 308.233 124.357 330.769 127.32 333.09C132.86 337.43 144.922 346.35 142.792 350.683C142.083 352.124 140.415 353.033 138.498 353.145C139.085 355.12 138.459 357.232 136.93 358.478C134.921 360.115 132.443 359.366 132.262 359.308C132.913 360.764 132.803 362.419 131.921 363.573C130.702 365.165 128.161 365.61 126.105 364.323C126.064 364.774 125.862 366.373 124.545 367.535C123.086 368.824 120.847 369.055 118.88 368.112C113.955 364.26 105.297 359.512 95.2869 353.2C71.7779 338.377 61.917 330.781 51.8573 321.564C47.9553 317.989 42.3005 309.574 45.9059 298.368C57.4738 298.231 68.7652 298.168 80.3336 298.031Z" fill="#E2A18D"/>
<path d="M85.1764 302.149C85.1143 302.149 85.052 302.13 84.9995 302.089C81.745 299.553 79.7086 297.96 78.5911 297.075C78.4662 296.976 78.4451 296.794 78.5441 296.67C78.643 296.545 78.8245 296.523 78.9494 296.622C80.0655 297.507 82.1007 299.099 85.3538 301.633C85.4796 301.731 85.5021 301.913 85.4043 302.038C85.3475 302.111 85.2624 302.149 85.1764 302.149Z" fill="#363E44"/>
<path d="M133.606 346.597C133.538 346.597 133.469 346.572 133.414 346.523C133.295 346.417 133.285 346.234 133.391 346.116L135.457 343.808C135.563 343.689 135.746 343.68 135.864 343.786C135.983 343.892 135.993 344.074 135.887 344.193L133.821 346.5C133.765 346.564 133.685 346.597 133.606 346.597Z" fill="#363E44"/>
<path d="M128.374 352.459C128.305 352.459 128.236 352.434 128.182 352.385C128.063 352.279 128.053 352.096 128.159 351.978L130.224 349.67C130.331 349.551 130.513 349.542 130.632 349.648C130.75 349.754 130.76 349.936 130.654 350.055L128.589 352.363C128.532 352.426 128.453 352.459 128.374 352.459Z" fill="#363E44"/>
<path d="M123.112 358.487C123.043 358.487 122.975 358.462 122.92 358.413C122.801 358.307 122.791 358.124 122.897 358.006L124.962 355.698C125.069 355.579 125.252 355.57 125.37 355.676C125.488 355.782 125.498 355.965 125.392 356.083L123.327 358.39C123.27 358.454 123.191 358.487 123.112 358.487Z" fill="#363E44"/>
<path d="M118.227 363.855C118.159 363.855 118.09 363.831 118.035 363.782C117.916 363.675 117.906 363.493 118.013 363.374L120.078 361.067C120.184 360.948 120.367 360.938 120.485 361.044C120.604 361.151 120.614 361.333 120.508 361.452L118.442 363.759C118.386 363.823 118.307 363.855 118.227 363.855Z" fill="#363E44"/>
<path d="M142.283 216.047C143.373 219.704 137.392 224.715 128.924 227.24C120.455 229.765 112.707 228.847 111.616 225.189C110.526 221.532 116.507 216.521 124.976 213.996C133.444 211.472 141.193 212.39 142.283 216.047Z" fill="#E2A18D"/>
<path d="M138.959 202.868C135.413 207.404 120.12 202.519 120.12 202.519L108.316 189.479C106.002 181.717 110.419 173.549 118.18 171.235C125.943 168.921 134.11 173.337 136.424 181.099C136.424 181.099 142.571 198.249 138.959 202.868Z" fill="#E2A18D"/>
<path d="M125.297 184.236L108.267 189.314L118.86 224.844L135.89 219.767L125.297 184.236Z" fill="#E2A18D"/>
<path d="M135.911 185.276C135.911 185.276 141.084 188.231 141.2 189.383C141.337 190.76 137.183 192.863 137.183 192.863C137.183 192.863 136.019 185.255 135.911 185.276Z" fill="#E2A18D"/>
<path d="M123.048 188.455C123.048 188.455 125.024 186.489 127.86 185.643C128.463 185.463 128.765 190.632 128.11 190.529C125.233 190.078 123.048 188.455 123.048 188.455Z" fill="white"/>
<mask id="mask0_1767_3783" style="mask-type:luminance" maskUnits="userSpaceOnUse" x="123" y="185" width="14" height="6">
<path d="M123.048 188.456C123.048 188.456 125.954 185.563 129.777 185.286C133.6 185.009 136.892 187.452 136.892 187.452C136.892 187.452 133.986 190.345 130.164 190.622C126.341 190.899 123.048 188.456 123.048 188.456Z" fill="white"/>
</mask>
<g mask="url(#mask0_1767_3783)">
<path d="M127.943 185.483C129.26 183.048 132.301 182.141 134.736 183.458C137.172 184.775 138.078 187.816 136.762 190.251C135.445 192.686 132.403 193.593 129.968 192.276C127.533 190.96 126.626 187.918 127.943 185.483Z" fill="#363E44"/>
</g>
<path d="M133.84 196.707C133.621 196.707 133.4 196.677 133.184 196.613C132.335 196.363 131.688 195.635 131.535 194.758C131.508 194.601 131.613 194.451 131.77 194.424C131.928 194.397 132.077 194.502 132.104 194.659C132.219 195.321 132.707 195.871 133.347 196.059C134.012 196.255 134.735 196.039 135.19 195.509C135.294 195.388 135.476 195.375 135.597 195.478C135.718 195.582 135.731 195.764 135.628 195.885C135.173 196.415 134.515 196.707 133.84 196.707Z" fill="#363E44"/>
<path d="M132.958 205.329C127.356 205.329 120.431 203.14 120.104 203.036C119.953 202.987 119.869 202.825 119.918 202.673C119.966 202.521 120.127 202.438 120.28 202.486C120.369 202.515 129.18 205.3 134.845 204.653C135.003 204.635 135.147 204.749 135.164 204.907C135.183 205.065 135.069 205.208 134.911 205.226C134.288 205.298 133.632 205.329 132.958 205.329Z" fill="#363E44"/>
<path d="M107.583 198.385C103.395 196.378 102.109 186.505 104.681 180.182C107.999 172.029 117.619 167.216 125.392 167.872C127.303 168.033 131.669 168.967 133.12 171.691C134.249 173.812 132.097 178.218 128.451 179.485C123.326 181.266 116.143 180.08 118.798 185.92C126.843 203.618 112.184 200.59 107.583 198.385Z" fill="#363E44"/>
<path d="M102.542 211.901C114.559 199.884 114.559 180.402 102.542 168.385C90.5261 156.369 71.0436 156.369 59.0271 168.385C47.0107 180.402 47.0107 199.884 59.0271 211.901C71.0436 223.917 90.526 223.917 102.542 211.901Z" fill="#363E44"/>
<path d="M130.965 194.228C128.35 194.228 125.949 191.953 125.421 188.813C125.143 187.158 125.419 185.508 126.201 184.169C126.992 182.812 128.205 181.934 129.615 181.697C132.508 181.21 135.328 183.612 135.907 187.05C136.185 188.705 135.908 190.355 135.127 191.694C134.336 193.051 133.123 193.929 131.713 194.166C131.462 194.208 131.212 194.228 130.965 194.228ZM130.366 182.211C130.149 182.211 129.93 182.229 129.711 182.266C128.472 182.475 127.403 183.254 126.699 184.46C125.986 185.683 125.734 187.195 125.99 188.718C126.516 191.841 129.04 194.031 131.617 193.597C132.855 193.389 133.925 192.61 134.628 191.403C135.342 190.18 135.594 188.668 135.337 187.145C134.857 184.287 132.702 182.211 130.366 182.211Z" fill="white"/>
<path d="M117.591 191.036C117.463 191.036 117.347 190.95 117.313 190.82C117.272 190.666 117.364 190.508 117.518 190.468L125.16 188.457C125.315 188.417 125.472 188.508 125.513 188.663C125.553 188.817 125.461 188.974 125.307 189.015L117.665 191.026C117.64 191.032 117.616 191.036 117.591 191.036Z" fill="white"/>
<path d="M135.691 186.209C135.634 186.209 135.577 186.192 135.526 186.157C135.396 186.065 135.364 185.885 135.455 185.755C135.902 185.117 137.148 184.188 138.671 185.236C138.802 185.327 138.835 185.506 138.745 185.638C138.655 185.769 138.475 185.802 138.343 185.712C136.907 184.723 135.967 186.03 135.928 186.086C135.872 186.166 135.783 186.209 135.691 186.209Z" fill="white"/>
<path d="M84.2066 204.711C70.7403 204.711 59.7844 193.755 59.7844 180.289C59.7844 166.823 70.7403 155.867 84.2066 155.867C97.6729 155.867 108.629 166.822 108.629 180.289C108.629 193.756 97.6729 204.711 84.2066 204.711ZM84.2066 156.444C71.0585 156.444 60.3615 167.141 60.3615 180.289C60.3615 193.438 71.0582 204.134 84.2066 204.134C97.3549 204.134 108.052 193.438 108.052 180.289C108.052 167.141 97.3547 156.444 84.2066 156.444Z" fill="#363E44"/>
<path d="M87.2235 216.778C78.6624 216.778 70.7721 211.772 67.1214 204.024C67.0536 203.88 67.1153 203.708 67.2596 203.64C67.4036 203.572 67.5758 203.634 67.6433 203.778C71.1991 211.325 78.8848 216.201 87.2235 216.201C96.7532 216.201 105.056 210.093 107.884 201.001C107.931 200.85 108.093 200.764 108.245 200.812C108.397 200.859 108.482 201.021 108.435 201.173C105.532 210.507 97.0071 216.778 87.2235 216.778Z" fill="white"/>
<path d="M488.895 520.031C510.568 520.031 528.138 514.469 528.138 507.607C528.138 500.746 510.568 495.184 488.895 495.184C467.221 495.184 449.651 500.746 449.651 507.607C449.651 514.469 467.221 520.031 488.895 520.031Z" fill="#E0AA63"/>
<path d="M449.651 508.031H528.138V495.231H449.651V508.031Z" fill="#E0AA63"/>
<path d="M488.895 507.898C510.568 507.898 528.138 502.336 528.138 495.474C528.138 488.613 510.568 483.051 488.895 483.051C467.221 483.051 449.651 488.613 449.651 495.474C449.651 502.336 467.221 507.898 488.895 507.898Z" fill="#EFBC73"/>
<path d="M484.271 508.186C473.76 508.186 463.874 506.889 456.435 504.534C448.892 502.147 444.739 498.929 444.739 495.474C444.739 492.02 448.892 488.802 456.435 486.415C463.874 484.06 473.76 482.763 484.271 482.763C494.782 482.763 504.668 484.06 512.108 486.415C519.65 488.802 523.803 492.02 523.803 495.474C523.803 498.929 519.65 502.147 512.108 504.534C504.668 506.889 494.782 508.186 484.271 508.186ZM484.271 483.34C473.818 483.34 463.993 484.627 456.609 486.965C449.432 489.237 445.316 492.338 445.316 495.474C445.316 498.61 449.432 501.712 456.609 503.984C463.994 506.322 473.818 507.609 484.271 507.609C494.725 507.609 504.549 506.322 511.934 503.984C519.11 501.712 523.227 498.61 523.227 495.474C523.227 492.338 519.11 489.237 511.934 486.965C504.549 484.627 494.725 483.34 484.271 483.34Z" fill="white"/>
<path d="M480.803 499.809C502.477 499.809 520.047 494.247 520.047 487.386C520.047 480.525 502.477 474.963 480.803 474.963C459.13 474.963 441.56 480.525 441.56 487.386C441.56 494.247 459.13 499.809 480.803 499.809Z" fill="#E0AA63"/>
<path d="M441.56 487.809H520.047V475.009H441.56V487.809Z" fill="#E0AA63"/>
<path d="M480.803 487.676C502.477 487.676 520.047 482.114 520.047 475.252C520.047 468.391 502.477 462.829 480.803 462.829C459.13 462.829 441.56 468.391 441.56 475.252C441.56 482.114 459.13 487.676 480.803 487.676Z" fill="#EFBC73"/>
<path d="M476.18 487.964C465.669 487.964 455.783 486.667 448.344 484.312C440.801 481.925 436.648 478.707 436.648 475.253C436.648 471.798 440.802 468.58 448.344 466.193C455.783 463.838 465.669 462.541 476.18 462.541C486.691 462.541 496.577 463.838 504.017 466.193C511.559 468.58 515.712 471.798 515.712 475.253C515.712 478.707 511.559 481.925 504.017 484.312C496.577 486.667 486.691 487.964 476.18 487.964ZM476.18 463.118C465.727 463.118 455.903 464.405 448.518 466.743C441.341 469.015 437.225 472.117 437.225 475.253C437.225 478.389 441.341 481.49 448.518 483.762C455.903 486.1 465.727 487.387 476.18 487.387C486.634 487.387 496.458 486.1 503.843 483.762C511.019 481.49 515.136 478.389 515.136 475.253C515.136 472.117 511.019 469.015 503.843 466.743C496.458 464.405 486.634 463.118 476.18 463.118Z" fill="white"/>
<path d="M488.895 479.587C510.568 479.587 528.138 474.025 528.138 467.164C528.138 460.302 510.568 454.74 488.895 454.74C467.221 454.74 449.651 460.302 449.651 467.164C449.651 474.025 467.221 479.587 488.895 479.587Z" fill="#E0AA63"/>
<path d="M449.651 467.587H528.138V454.788H449.651V467.587Z" fill="#E0AA63"/>
<path d="M488.895 467.454C510.568 467.454 528.138 461.892 528.138 455.03C528.138 448.169 510.568 442.607 488.895 442.607C467.221 442.607 449.651 448.169 449.651 455.03C449.651 461.892 467.221 467.454 488.895 467.454Z" fill="#EFBC73"/>
<path d="M484.271 467.742C473.76 467.742 463.874 466.445 456.435 464.09C448.892 461.702 444.739 458.485 444.739 455.03C444.739 451.576 448.892 448.358 456.435 445.971C463.874 443.615 473.76 442.319 484.271 442.319C494.782 442.319 504.668 443.615 512.108 445.971C519.65 448.358 523.803 451.576 523.803 455.03C523.803 458.485 519.65 461.702 512.108 464.09C504.668 466.445 494.782 467.742 484.271 467.742ZM484.271 442.896C473.818 442.896 463.993 444.183 456.609 446.521C449.432 448.793 445.316 451.894 445.316 455.03C445.316 458.166 449.432 461.268 456.609 463.54C463.994 465.878 473.818 467.165 484.271 467.165C494.725 467.165 504.549 465.878 511.934 463.54C519.11 461.268 523.227 458.166 523.227 455.03C523.227 451.894 519.11 448.793 511.934 446.521C504.549 444.183 494.725 442.896 484.271 442.896Z" fill="white"/>
<path d="M476.18 461.603C497.854 461.603 515.424 456.041 515.424 449.18C515.424 442.319 497.854 436.757 476.18 436.757C454.507 436.757 436.937 442.319 436.937 449.18C436.937 456.041 454.507 461.603 476.18 461.603Z" fill="#E0AA63"/>
<path d="M436.937 449.604H515.424V436.804H436.937V449.604Z" fill="#E0AA63"/>
<path d="M476.18 449.47C497.854 449.47 515.424 443.908 515.424 437.047C515.424 430.186 497.854 424.624 476.18 424.624C454.507 424.624 436.937 430.186 436.937 437.047C436.937 443.908 454.507 449.47 476.18 449.47Z" fill="#EFBC73"/>
<path d="M471.557 449.759C461.046 449.759 451.16 448.462 443.721 446.107C436.179 443.719 432.025 440.502 432.025 437.047C432.025 433.592 436.179 430.375 443.721 427.987C451.16 425.632 461.046 424.335 471.557 424.335C482.068 424.335 491.954 425.632 499.394 427.987C506.936 430.375 511.09 433.592 511.09 437.047C511.09 440.502 506.936 443.719 499.394 446.107C491.954 448.462 482.068 449.759 471.557 449.759ZM471.557 424.912C461.104 424.912 451.28 426.2 443.895 428.538C436.718 430.809 432.602 433.911 432.602 437.047C432.602 440.183 436.718 443.285 443.895 445.556C451.28 447.894 461.104 449.182 471.557 449.182C482.011 449.182 491.835 447.894 499.22 445.556C506.396 443.285 510.512 440.183 510.512 437.047C510.512 433.911 506.396 430.809 499.22 428.538C491.835 426.2 482.011 424.912 471.557 424.912Z" fill="white"/>
<path d="M487.492 447.53C509.166 447.53 526.736 441.968 526.736 435.107C526.736 428.245 509.166 422.683 487.492 422.683C465.819 422.683 448.249 428.245 448.249 435.107C448.249 441.968 465.819 447.53 487.492 447.53Z" fill="#E0AA63"/>
<path d="M448.248 435.53H526.736V422.73H448.248V435.53Z" fill="#E0AA63"/>
<path d="M487.492 435.397C509.166 435.397 526.736 429.835 526.736 422.973C526.736 416.112 509.166 410.55 487.492 410.55C465.819 410.55 448.249 416.112 448.249 422.973C448.249 429.835 465.819 435.397 487.492 435.397Z" fill="#EFBC73"/>
<path d="M482.869 435.685C472.358 435.685 462.472 434.388 455.032 432.033C447.49 429.646 443.337 426.428 443.337 422.974C443.337 419.519 447.49 416.301 455.032 413.914C462.472 411.559 472.358 410.262 482.869 410.262C493.38 410.262 503.266 411.559 510.705 413.914C518.247 416.301 522.401 419.519 522.401 422.974C522.401 426.428 518.247 429.646 510.705 432.033C503.266 434.388 493.38 435.685 482.869 435.685ZM482.869 410.839C472.415 410.839 462.591 412.126 455.207 414.464C448.03 416.736 443.914 419.838 443.914 422.974C443.914 426.11 448.03 429.211 455.207 431.483C462.591 433.821 472.415 435.108 482.869 435.108C493.322 435.108 503.146 433.821 510.531 431.483C517.708 429.211 521.824 426.11 521.824 422.974C521.824 419.838 517.708 416.736 510.531 414.464C503.146 412.126 493.322 410.839 482.869 410.839Z" fill="white"/>
<path d="M495.583 427.308C517.256 427.308 534.826 421.746 534.826 414.885C534.826 408.024 517.256 402.461 495.583 402.461C473.909 402.461 456.339 408.024 456.339 414.885C456.339 421.746 473.909 427.308 495.583 427.308Z" fill="#E0AA63"/>
<path d="M456.339 415.308H534.827V402.508H456.339V415.308Z" fill="#E0AA63"/>
<path d="M495.583 415.175C517.256 415.175 534.826 409.613 534.826 402.752C534.826 395.89 517.256 390.328 495.583 390.328C473.909 390.328 456.339 395.89 456.339 402.752C456.339 409.613 473.909 415.175 495.583 415.175Z" fill="#EFBC73"/>
<path d="M490.96 415.464C480.449 415.464 470.563 414.166 463.123 411.811C455.581 409.424 451.428 406.207 451.428 402.752C451.428 399.297 455.581 396.08 463.123 393.692C470.563 391.337 480.449 390.04 490.96 390.04C501.471 390.04 511.357 391.337 518.796 393.692C526.338 396.08 530.492 399.297 530.492 402.752C530.492 406.207 526.338 409.424 518.796 411.811C511.357 414.166 501.471 415.464 490.96 415.464ZM490.96 390.617C480.506 390.617 470.682 391.904 463.298 394.242C456.121 396.514 452.005 399.616 452.005 402.752C452.005 405.887 456.121 408.989 463.298 411.261C470.682 413.599 480.506 414.886 490.96 414.886C501.413 414.886 511.237 413.599 518.622 411.261C525.799 408.989 529.915 405.887 529.915 402.752C529.915 399.616 525.799 396.514 518.622 394.242C511.237 391.904 501.413 390.617 490.96 390.617Z" fill="white"/>
<path d="M489.69 409.052C511.364 409.052 528.934 403.49 528.934 396.629C528.934 389.768 511.364 384.206 489.69 384.206C468.017 384.206 450.447 389.768 450.447 396.629C450.447 403.49 468.017 409.052 489.69 409.052Z" fill="#E0AA63"/>
<path d="M450.447 397.053H528.934V384.253H450.447V397.053Z" fill="#E0AA63"/>
<path d="M489.69 396.919C511.364 396.919 528.934 391.357 528.934 384.496C528.934 377.634 511.364 372.072 489.69 372.072C468.017 372.072 450.447 377.634 450.447 384.496C450.447 391.357 468.017 396.919 489.69 396.919Z" fill="#EFBC73"/>
<path d="M485.067 397.207C474.556 397.207 464.67 395.911 457.231 393.555C449.688 391.168 445.535 387.95 445.535 384.496C445.535 381.041 449.689 377.824 457.231 375.436C464.67 373.081 474.556 371.784 485.067 371.784C495.579 371.784 505.464 373.081 512.904 375.436C520.446 377.824 524.6 381.041 524.6 384.496C524.6 387.95 520.446 391.168 512.904 393.555C505.464 395.911 495.578 397.207 485.067 397.207ZM485.067 372.361C474.614 372.361 464.79 373.648 457.405 375.986C450.228 378.258 446.112 381.36 446.112 384.496C446.112 387.632 450.228 390.733 457.405 393.005C464.79 395.343 474.614 396.63 485.067 396.63C495.521 396.63 505.345 395.343 512.73 393.005C519.907 390.733 524.023 387.632 524.023 384.496C524.023 381.36 519.907 378.258 512.73 375.986C505.345 373.648 495.521 372.361 485.067 372.361Z" fill="white"/>
<path d="M403.961 520.382C425.635 520.382 443.205 514.82 443.205 507.959C443.205 501.098 425.635 495.536 403.961 495.536C382.287 495.536 364.717 501.098 364.717 507.959C364.717 514.82 382.287 520.382 403.961 520.382Z" fill="#E0AA63"/>
<path d="M364.717 508.382H443.205V495.582H364.717V508.382Z" fill="#E0AA63"/>
<path d="M403.961 508.249C425.635 508.249 443.205 502.687 443.205 495.826C443.205 488.964 425.635 483.402 403.961 483.402C382.287 483.402 364.717 488.964 364.717 495.826C364.717 502.687 382.287 508.249 403.961 508.249Z" fill="#EFBC73"/>
<path d="M399.338 508.537C388.827 508.537 378.941 507.24 371.501 504.885C363.959 502.498 359.806 499.28 359.806 495.826C359.806 492.371 363.959 489.153 371.501 486.766C378.941 484.411 388.827 483.114 399.338 483.114C409.849 483.114 419.735 484.411 427.175 486.766C434.717 489.153 438.87 492.371 438.87 495.826C438.87 499.28 434.717 502.498 427.175 504.885C419.735 507.24 409.849 508.537 399.338 508.537ZM399.338 483.691C388.884 483.691 379.06 484.978 371.675 487.316C364.499 489.588 360.383 492.69 360.383 495.826C360.383 498.962 364.499 502.063 371.675 504.335C379.06 506.673 388.884 507.96 399.338 507.96C409.792 507.96 419.615 506.673 427 504.335C434.177 502.063 438.293 498.962 438.293 495.826C438.293 492.69 434.177 489.588 427 487.316C419.615 484.978 409.792 483.691 399.338 483.691Z" fill="white"/>
<path d="M395.87 500.058C417.544 500.058 435.114 494.511 435.114 487.669C435.114 480.827 417.544 475.28 395.87 475.28C374.197 475.28 356.627 480.827 356.627 487.669C356.627 494.511 374.197 500.058 395.87 500.058Z" fill="#E0AA63"/>
<path d="M356.627 488.091H435.114V475.327H356.627V488.091Z" fill="#E0AA63"/>
<path d="M395.87 487.958C417.544 487.958 435.114 482.412 435.114 475.569C435.114 468.727 417.544 463.18 395.87 463.18C374.197 463.18 356.627 468.727 356.627 475.569C356.627 482.412 374.197 487.958 395.87 487.958Z" fill="#EFBC73"/>
<path d="M391.247 488.247C380.736 488.247 370.85 486.954 363.411 484.605C355.868 482.224 351.715 479.015 351.715 475.57C351.715 472.124 355.868 468.915 363.411 466.534C370.85 464.186 380.736 462.892 391.247 462.892C401.758 462.892 411.644 464.186 419.084 466.534C426.626 468.915 430.78 472.124 430.78 475.57C430.78 479.015 426.626 482.224 419.084 484.605C411.644 486.954 401.758 488.247 391.247 488.247ZM391.247 463.469C380.794 463.469 370.969 464.753 363.585 467.084C356.408 469.35 352.292 472.443 352.292 475.569C352.292 478.696 356.408 481.789 363.585 484.055C370.969 486.386 380.794 487.67 391.247 487.67C401.701 487.67 411.525 486.386 418.91 484.055C426.086 481.789 430.203 478.696 430.203 475.569C430.203 472.443 426.086 469.35 418.91 467.084C411.525 464.753 401.701 463.469 391.247 463.469Z" fill="white"/>
<path d="M428.829 460.477C444.083 445.084 452.498 428.69 447.624 423.86C442.75 419.03 426.432 427.592 411.178 442.985C395.924 458.378 387.509 474.772 392.383 479.602C397.257 484.432 413.575 475.87 428.829 460.477Z" fill="#E0AA63"/>
<path d="M438.83 415.168L383.59 470.911L392.682 479.921L447.923 424.179L438.83 415.168Z" fill="#E0AA63"/>
<path d="M420.207 451.938C435.461 436.545 443.876 420.151 439.002 415.321C434.128 410.491 417.811 419.053 402.556 434.446C387.302 449.839 378.887 466.233 383.762 471.063C388.636 475.893 404.953 467.331 420.207 451.938Z" fill="#EFBC73"/>
<path d="M384.421 475.957C382.663 475.957 381.272 475.483 380.307 474.527C377.852 472.096 378.489 466.881 382.1 459.844C385.662 452.902 391.698 444.968 399.095 437.502C406.493 430.037 414.371 423.928 421.281 420.301C428.285 416.625 433.494 415.939 435.95 418.37C438.405 420.802 437.768 426.016 434.157 433.053C430.594 439.995 424.559 447.929 417.161 455.395C409.764 462.861 401.885 468.969 394.976 472.596C390.725 474.827 387.135 475.957 384.421 475.957ZM431.843 417.531C429.224 417.531 425.688 418.64 421.549 420.813C414.691 424.413 406.862 430.484 399.505 437.909C392.148 445.334 386.149 453.218 382.613 460.108C379.177 466.804 378.484 471.91 380.713 474.117C382.942 476.325 388.043 475.584 394.707 472.085C401.566 468.485 409.394 462.414 416.751 454.989C424.108 447.564 430.107 439.681 433.643 432.791C437.079 426.094 437.772 420.988 435.543 418.781C434.699 417.944 433.441 417.531 431.843 417.531Z" fill="white"/>
</svg>
