<svg width="500" height="500" viewBox="0 0 500 500" fill="none" xmlns="http://www.w3.org/2000/svg">
<rect width="500" height="500" rx="8" fill="#E9ECFF"/>
<path d="M392.242 321.943H48.673C45.615 321.943 43.137 319.464 43.137 316.407V91.7239C43.137 88.6659 45.616 86.1879 48.673 86.1879H392.242C395.3 86.1879 397.778 88.6669 397.778 91.7239V316.407C397.778 319.464 395.299 321.943 392.242 321.943Z" fill="#CCCCCC"/>
<path d="M397.778 289.703H43.136V91.0039C43.136 88.3439 45.292 86.1879 47.952 86.1879H392.961C395.621 86.1879 397.778 88.3449 397.778 91.0049V289.703Z" fill="#9E9E9E"/>
<path d="M228.517 308.336H214.412C212.186 308.336 210.382 306.532 210.382 304.306C210.382 302.08 212.186 300.276 214.412 300.276H228.517C230.743 300.276 232.547 302.08 232.547 304.306C232.547 306.532 230.743 308.336 228.517 308.336Z" fill="#9E9E9E"/>
<path d="M244.991 359.377V321.943H196.711V359.377C196.711 369.962 188.13 378.543 177.545 378.543V394.614H265.383V378.543H264.157C253.572 378.543 244.991 369.962 244.991 359.377Z" fill="#CCCCCC"/>
<path d="M244.991 327.367L196.711 332.79V321.943H244.991V327.367Z" fill="#B3B3B3"/>
<path d="M383.671 99.1549H56.238V272.921H383.671V99.1549Z" fill="white"/>
<path d="M386.886 97.4398H56.043V274.07H386.886V97.4398Z" fill="#DEDEDE"/>
<path d="M386.886 97.4398H56.043V120.377H386.886V97.4398Z" fill="white"/>
<path d="M330.658 113.801H67.451C66.221 113.801 65.223 112.803 65.223 111.573V105.909C65.223 104.679 66.221 103.681 67.451 103.681H330.658C331.889 103.681 332.886 104.679 332.886 105.909V111.573C332.886 112.803 331.889 113.801 330.658 113.801Z" fill="#DEDEDE"/>
<path d="M353.086 108.74C353.086 111.357 350.965 113.478 348.348 113.478C345.731 113.478 343.61 111.357 343.61 108.74C343.61 106.123 345.731 104.002 348.348 104.002C350.965 104.003 353.086 106.124 353.086 108.74Z" fill="#31BF2C"/>
<path d="M366.224 108.74C366.224 111.357 364.103 113.478 361.486 113.478C358.869 113.478 356.748 111.357 356.748 108.74C356.748 106.123 358.869 104.002 361.486 104.002C364.102 104.003 366.224 106.124 366.224 108.74Z" fill="#FFE454"/>
<path d="M379.361 108.74C379.361 111.357 377.24 113.478 374.623 113.478C372.007 113.478 369.885 111.357 369.885 108.74C369.885 106.123 372.007 104.002 374.623 104.002C377.24 104.003 379.361 106.124 379.361 108.74Z" fill="#FA2363"/>
<path d="M218.663 135.162H65.223V259.235H218.663V135.162Z" fill="white"/>
<path d="M299.83 135.162H228.552V141.132H299.83V135.162Z" fill="white"/>
<path d="M299.83 146.973H228.552V152.943H299.83V146.973Z" fill="white"/>
<path d="M299.83 158.783H228.552V164.753H299.83V158.783Z" fill="white"/>
<path d="M299.83 170.593H228.552V176.563H299.83V170.593Z" fill="white"/>
<path d="M299.83 182.404H228.552V188.374H299.83V182.404Z" fill="white"/>
<path d="M299.83 194.214H228.552V200.184H299.83V194.214Z" fill="white"/>
<path d="M299.83 206.024H228.552V211.994H299.83V206.024Z" fill="white"/>
<path d="M299.83 217.834H228.552V223.804H299.83V217.834Z" fill="white"/>
<path d="M299.83 229.645H228.552V235.615H299.83V229.645Z" fill="white"/>
<path d="M299.83 241.455H228.552V247.425H299.83V241.455Z" fill="white"/>
<path d="M299.83 253.265H228.552V259.235H299.83V253.265Z" fill="white"/>
<path d="M377.342 135.162H306.064V141.132H377.342V135.162Z" fill="white"/>
<path d="M377.342 146.973H306.064V152.943H377.342V146.973Z" fill="white"/>
<path d="M377.342 158.783H306.064V164.753H377.342V158.783Z" fill="white"/>
<path d="M377.342 170.593H306.064V176.563H377.342V170.593Z" fill="white"/>
<path d="M377.342 182.404H306.064V188.374H377.342V182.404Z" fill="white"/>
<path d="M377.342 194.214H306.064V200.184H377.342V194.214Z" fill="white"/>
<path d="M377.342 206.024H306.064V211.994H377.342V206.024Z" fill="white"/>
<path d="M377.342 217.834H306.064V223.804H377.342V217.834Z" fill="white"/>
<path d="M377.342 229.645H306.064V235.615H377.342V229.645Z" fill="white"/>
<path d="M377.342 241.455H306.064V247.425H377.342V241.455Z" fill="white"/>
<path d="M377.342 253.265H306.064V259.235H377.342V253.265Z" fill="white"/>
<path d="M103.046 146.248H134.089C135.272 146.248 136.218 147.232 136.172 148.414L134.712 185.803C134.668 186.922 133.749 187.806 132.629 187.806H80.801C79.681 187.806 78.762 186.922 78.718 185.803L77.258 148.414C77.212 147.232 78.158 146.248 79.341 146.248C80.283 146.248 102.104 146.248 103.046 146.248Z" fill="#BABABA"/>
<path d="M132.077 147.712L131.285 144.784C131.039 143.875 130.215 143.244 129.273 143.244H115.2C114.258 143.244 113.434 143.875 113.188 144.784L112.396 147.712C112.15 148.621 111.325 149.252 110.384 149.252H79.341C78.158 149.252 77.212 150.235 77.258 151.418L78.718 188.807C78.762 189.926 79.681 190.81 80.801 190.81H132.63C133.749 190.81 134.669 189.926 134.713 188.807L136.173 151.418C136.219 150.236 135.273 149.252 134.09 149.252C133.148 149.253 132.323 148.621 132.077 147.712Z" fill="#DEDEDE"/>
<path d="M128.051 186.571H109.913C108.976 186.571 108.217 185.812 108.217 184.875V183.228C108.217 182.291 108.976 181.532 109.913 181.532H128.051C128.988 181.532 129.747 182.291 129.747 183.228V184.875C129.747 185.811 128.988 186.571 128.051 186.571Z" fill="white"/>
<path d="M103.046 204.933H134.089C135.272 204.933 136.218 205.916 136.172 207.099L134.712 244.488C134.668 245.607 133.749 246.491 132.629 246.491H80.801C79.681 246.491 78.762 245.607 78.718 244.488L77.258 207.099C77.212 205.917 78.158 204.933 79.341 204.933C80.283 204.933 102.104 204.933 103.046 204.933Z" fill="#BABABA"/>
<path d="M132.077 206.397L131.285 203.469C131.039 202.56 130.215 201.929 129.273 201.929H115.2C114.258 201.929 113.434 202.56 113.188 203.469L112.396 206.397C112.15 207.306 111.325 207.937 110.384 207.937H79.341C78.158 207.937 77.212 208.92 77.258 210.103L78.718 247.492C78.762 248.611 79.681 249.495 80.801 249.495H132.63C133.749 249.495 134.669 248.611 134.713 247.492L136.173 210.103C136.219 208.921 135.273 207.937 134.09 207.937C133.148 207.937 132.323 207.306 132.077 206.397Z" fill="#DEDEDE"/>
<path d="M128.051 245.255H109.913C108.976 245.255 108.217 244.496 108.217 243.559V241.912C108.217 240.975 108.976 240.216 109.913 240.216H128.051C128.988 240.216 129.747 240.975 129.747 241.912V243.559C129.747 244.496 128.988 245.255 128.051 245.255Z" fill="white"/>
<path d="M173.501 146.248H204.544C205.727 146.248 206.673 147.232 206.627 148.414L205.167 185.803C205.123 186.922 204.204 187.806 203.084 187.806H151.255C150.135 187.806 149.216 186.922 149.172 185.803L147.712 148.414C147.666 147.232 148.612 146.248 149.795 146.248C150.739 146.248 172.56 146.248 173.501 146.248Z" fill="#BABABA"/>
<path d="M202.533 147.712L201.741 144.784C201.495 143.875 200.671 143.244 199.729 143.244H185.656C184.714 143.244 183.89 143.875 183.644 144.784L182.852 147.712C182.606 148.621 181.782 149.252 180.84 149.252H149.797C148.614 149.252 147.668 150.235 147.714 151.418L149.174 188.807C149.218 189.926 150.137 190.81 151.257 190.81H203.086C204.206 190.81 205.125 189.926 205.169 188.807L206.629 151.418C206.675 150.236 205.729 149.252 204.546 149.252C203.603 149.253 202.779 148.621 202.533 147.712Z" fill="#DEDEDE"/>
<path d="M198.507 186.571H180.369C179.432 186.571 178.673 185.812 178.673 184.875V183.228C178.673 182.291 179.432 181.532 180.369 181.532H198.507C199.444 181.532 200.203 182.291 200.203 183.228V184.875C200.203 185.811 199.444 186.571 198.507 186.571Z" fill="white"/>
<path d="M173.501 204.933H204.544C205.727 204.933 206.673 205.916 206.627 207.099L205.167 244.488C205.123 245.607 204.204 246.491 203.084 246.491H151.255C150.135 246.491 149.216 245.607 149.172 244.488L147.712 207.099C147.666 205.917 148.612 204.933 149.795 204.933C150.739 204.933 172.56 204.933 173.501 204.933Z" fill="#BABABA"/>
<path d="M202.533 206.397L201.741 203.469C201.495 202.56 200.671 201.929 199.729 201.929H185.656C184.714 201.929 183.89 202.56 183.644 203.469L182.852 206.397C182.606 207.306 181.782 207.937 180.84 207.937H149.797C148.614 207.937 147.668 208.92 147.714 210.103L149.174 247.492C149.218 248.611 150.137 249.495 151.257 249.495H203.086C204.206 249.495 205.125 248.611 205.169 247.492L206.629 210.103C206.675 208.921 205.729 207.937 204.546 207.937C203.603 207.937 202.779 207.306 202.533 206.397Z" fill="#DEDEDE"/>
<path d="M198.507 245.255H180.369C179.432 245.255 178.673 244.496 178.673 243.559V241.912C178.673 240.975 179.432 240.216 180.369 240.216H198.507C199.444 240.216 200.203 240.975 200.203 241.912V243.559C200.203 244.496 199.444 245.255 198.507 245.255Z" fill="white"/>
<path d="M338.565 155.876H233.789V394.668H338.565V155.876Z" fill="#275996"/>
<path d="M330.128 164.756H241.911V384.194H330.128V164.756Z" fill="#1C306B"/>
<path d="M327.982 222.729H244.371V272.654H327.982V222.729Z" fill="#275996"/>
<path d="M327.982 277.356H244.371V327.281H327.982V277.356Z" fill="#275996"/>
<path d="M327.982 329.196H244.371V379.121H327.982V329.196Z" fill="#275996"/>
<path d="M296.924 284.52H275.431V289.221H296.924V284.52Z" fill="#1C306B"/>
<path d="M327.982 167.12H244.371V217.045H327.982V167.12Z" fill="#275996"/>
<path d="M296.924 174.732H275.431V176.274H296.924V174.732Z" fill="#1C306B"/>
<path d="M244.535 222.729L232.748 234.147H339.606L327.819 222.729H244.535Z" fill="#123466"/>
<path opacity="0.6" d="M233.789 297.952H338.565L233.789 308.268V297.952Z" fill="#1C306B"/>
<path d="M281.259 219.413H323.339C324.943 219.413 326.225 220.746 326.162 222.349L324.183 273.031C324.124 274.547 322.877 275.746 321.36 275.746H251.105C249.587 275.746 248.341 274.547 248.282 273.031L246.304 222.349C246.241 220.747 247.524 219.413 249.127 219.413C250.403 219.413 279.982 219.413 281.259 219.413Z" fill="#F2660A"/>
<path d="M320.611 221.397L319.538 217.428C319.205 216.196 318.087 215.34 316.811 215.34H297.735C296.459 215.34 295.341 216.196 295.008 217.428L293.935 221.397C293.602 222.629 292.484 223.485 291.207 223.485H249.127C247.523 223.485 246.241 224.818 246.304 226.421L248.282 277.103C248.341 278.619 249.588 279.818 251.105 279.818H321.36C322.878 279.818 324.124 278.619 324.183 277.103L326.162 226.421C326.225 224.819 324.942 223.485 323.339 223.485C322.062 223.485 320.944 222.629 320.611 221.397Z" fill="#FFB330"/>
<path d="M315.757 274.071H289.964C289.027 274.071 288.268 273.312 288.268 272.375V268.937C288.268 268 289.027 267.241 289.964 267.241H315.757C316.694 267.241 317.453 268 317.453 268.937V272.375C317.453 273.311 316.694 274.071 315.757 274.071Z" fill="white"/>
<path d="M299.29 220.045H315.119" stroke="#123466" stroke-miterlimit="10"/>
<path d="M277.022 224.956H320.855C322.526 224.956 323.861 226.345 323.796 228.014L321.735 280.808C321.673 282.388 320.375 283.636 318.794 283.636H245.611C244.03 283.636 242.732 282.387 242.67 280.808L240.609 228.014C240.544 226.345 241.879 224.956 243.55 224.956C244.88 224.956 275.692 224.956 277.022 224.956Z" fill="#F2660A"/>
<path d="M318.014 227.023L316.896 222.889C316.549 221.606 315.384 220.714 314.055 220.714H294.184C292.854 220.714 291.69 221.605 291.343 222.889L290.225 227.023C289.878 228.307 288.713 229.198 287.384 229.198H243.551C241.881 229.198 240.545 230.587 240.61 232.256L242.671 285.05C242.733 286.629 244.031 287.878 245.612 287.878H318.795C320.376 287.878 321.674 286.629 321.736 285.05L323.797 232.256C323.862 230.587 322.527 229.198 320.856 229.198C319.525 229.198 318.361 228.306 318.014 227.023Z" fill="#FFB330"/>
<path d="M313.028 281.891H286.019C285.082 281.891 284.323 281.132 284.323 280.195V276.472C284.323 275.535 285.082 274.776 286.019 274.776H313.028C313.965 274.776 314.724 275.535 314.724 276.472V280.195C314.724 281.132 313.965 281.891 313.028 281.891Z" fill="white"/>
<path d="M339.605 234.147H232.748V297.953H339.605V234.147Z" fill="#275996"/>
<path d="M296.227 225.218H312.056" stroke="#123466" stroke-miterlimit="10"/>
<path d="M263.854 394.669L263.535 367.803L270.796 394.669H263.854Z" fill="#1C306B"/>
<path d="M291.185 359.2L325.435 351.675C326.74 351.388 328.022 352.244 328.258 353.559L335.712 395.164C335.935 396.409 335.135 397.607 333.9 397.879L276.718 410.443C275.483 410.714 274.254 409.962 273.935 408.738L263.261 367.841C262.924 366.548 263.729 365.233 265.034 364.947C266.071 364.719 290.147 359.429 291.185 359.2Z" fill="#F2660A"/>
<path d="M323.57 353.778L321.987 350.74C321.495 349.797 320.433 349.3 319.394 349.528L303.868 352.939C302.829 353.167 302.072 354.064 302.022 355.126L301.858 358.548C301.807 359.611 301.05 360.507 300.012 360.735L265.762 368.261C264.457 368.548 263.652 369.862 263.989 371.155L274.663 412.052C274.982 413.276 276.211 414.028 277.446 413.757L334.628 401.193C335.863 400.922 336.663 399.723 336.44 398.478L328.986 356.873C328.75 355.558 327.468 354.702 326.163 354.989C325.125 355.218 324.062 354.721 323.57 353.778Z" fill="#FFB330"/>
<path d="M328.763 397.578L308.322 402.069C307.407 402.27 306.503 401.691 306.302 400.776L305.808 398.53C305.607 397.615 306.186 396.711 307.101 396.51L327.542 392.019C328.457 391.818 329.361 392.397 329.562 393.312L330.056 395.558C330.257 396.473 329.678 397.377 328.763 397.578Z" fill="white"/>
<path d="M304.033 355.893L319.478 352.424" stroke="#123466" stroke-miterlimit="10"/>
<path d="M296.924 244.367H275.431V245.909H296.924V244.367Z" fill="#1C306B"/>
<path d="M296.924 338.282H275.431V339.824H296.924V338.282Z" fill="#1C306B"/>
<path d="M420.015 159.147C420.015 159.147 423.798 171.924 431.627 174.35C440.865 177.213 436.653 190.22 430.475 190.361C430.475 190.361 441.025 203.036 424.619 206.446C410.939 209.289 403.421 171.762 403.421 171.762L420.015 159.147Z" fill="#1C306B"/>
<path d="M385.554 162.185C385.554 162.185 389.509 173.011 385.458 177.761C381.407 182.511 387.011 188.99 391.089 186.639C391.089 186.639 388.049 196.723 398.268 193.754C408.487 190.785 401.344 163.835 401.344 163.835L385.554 162.185Z" fill="#1C306B"/>
<path d="M368.68 382L344.74 399.638L373.393 399.886L377.71 395.305L379.838 399.915L387.275 399.948L384.056 380.625L368.68 382Z" fill="#1A237E"/>
<path d="M355.837 391.462L356.879 397.03L376.004 397.115L373.393 399.886L344.74 399.638L355.837 391.462Z" fill="#010A62"/>
<path d="M378.605 397.244L386.831 397.281L387.275 399.948L379.838 399.915L378.605 397.244Z" fill="#010A62"/>
<path d="M380.563 382.04C380.563 382.04 374.398 389.395 362.724 386.389L371.019 379.96L380.563 382.04Z" fill="#FFBA82"/>
<path d="M373.474 250.791L334.957 254.121L333.048 232.013L363.292 229.401L384.585 195.603L400.54 211.024L373.474 250.791Z" fill="#1A237E"/>
<path d="M413.914 256.55C413.914 256.55 422.858 284.741 409.957 291.005C395.951 297.806 386.768 328.158 386.768 328.158C386.768 328.158 384.281 354.006 384.526 362.141C384.731 368.921 384.284 378.176 384.055 380.625C383.874 382.561 368.762 382.856 368.679 382C368.217 377.221 367.342 361.993 366.98 358.569C365.43 343.924 363.598 331.534 365.693 319.502C367.828 307.237 378.726 263.462 378.726 263.462L413.914 256.55Z" fill="#123466"/>
<path d="M431.463 373.71L421.17 401.608L445.237 386.055L446.323 379.855L450.635 382.534L456.864 378.472L443.548 364.105L431.463 373.71Z" fill="#1A237E"/>
<path d="M425.941 388.677L429.874 392.753L445.894 382.305L445.237 386.055L421.17 401.608L425.941 388.677Z" fill="#010A62"/>
<path d="M448.137 380.982L455.026 376.489L456.864 378.472L450.635 382.534L448.137 380.982Z" fill="#010A62"/>
<path d="M420.992 257.085C420.992 257.085 432.958 281.516 423.672 292.445C417.927 299.207 420.089 317.635 420.089 317.635C420.089 317.635 440.645 360.947 445.895 366.635L431.002 374.967C427.651 371.346 416.657 355.691 414.508 353C412.36 350.309 400.318 332.298 397.337 325.01C390.844 309.132 385.02 263.74 385.02 263.74L420.992 257.085Z" fill="#275996"/>
<path d="M397.913 187.136L420.21 192.915C431.986 196.896 435.934 204.856 434.324 211.434L423.606 248.49L425.771 270.462L378.263 265.243L381.989 234.225C373.447 217.489 384.678 195.683 390.282 189.656C390.282 189.656 395.016 187.933 396.161 187.543C397.501 187.088 397.351 187.018 397.913 187.136Z" fill="white"/>
<path d="M416.013 171.688L416.443 190.133C416.247 192.12 411.123 196.892 405.778 197.762C402.642 198.272 399.95 195.496 400.494 192.366L402.933 178.322L416.013 171.688Z" fill="#FFBA82"/>
<path d="M401.064 189.117L402.171 182.789L413.642 177.862L413.173 180.399C413.173 180.399 411.472 184.591 401.064 189.117Z" fill="#ED944C"/>
<path d="M417.029 191.919L400.424 281.866L429.508 281.101L426.036 242.419L435.515 199.546C435.515 199.546 431.358 195.626 417.029 191.919Z" fill="#1A237E"/>
<path d="M397.492 187.085C397.492 187.085 385.019 187.821 381.074 200.761C376.429 215.995 381.164 241.107 381.164 241.107L372.546 276.265L375.41 276.615L378.264 265.242C378.264 265.242 388.806 234.602 384.009 222.989C379.584 212.276 397.492 187.085 397.492 187.085Z" fill="#1A237E"/>
<path d="M417.13 192.203L416.385 187.63L402.785 197.216L404.862 203.036L417.13 192.203Z" fill="#1A237E"/>
<path d="M401.61 186.065L401.253 188.002L402.785 197.216L398.301 200.762L398.444 187.282L401.61 186.065Z" fill="#1A237E"/>
<path d="M415.473 180.525L403.429 186.085C401.073 187.262 398.391 187.068 396.289 185.806C394.644 184.818 393.564 183.105 393.095 181.244L388.056 166.338L409.157 157.804L415.473 180.525Z" fill="#FFBA82"/>
<path d="M387.286 162.366C387.103 163.451 406.746 172.65 410.032 169.34C416.476 162.851 416.142 177.214 416.142 177.214C416.142 177.214 430.873 153.902 406.788 150.146C397.507 148.698 388.815 153.31 387.286 162.366Z" fill="#1C306B"/>
<path d="M393.88 172.072C394.052 172.416 393.912 172.833 393.569 173.005C393.225 173.177 392.808 173.037 392.636 172.694C392.464 172.35 392.604 171.933 392.947 171.761C393.291 171.589 393.709 171.729 393.88 172.072Z" fill="#123466"/>
<path d="M396.776 179.061C397.391 178.507 397.972 177.69 398.389 176.487C398.418 176.404 398.373 176.312 398.29 176.283C398.207 176.254 398.115 176.297 398.086 176.383C396.743 180.251 393.73 179.895 393.603 179.879C393.516 179.868 393.434 179.929 393.423 180.016C393.411 180.104 393.472 180.184 393.56 180.197C393.582 180.201 395.28 180.409 396.776 179.061Z" fill="#123466"/>
<path d="M389.752 171.021L389.132 175.779C389.052 176.395 389.438 176.976 390.037 177.14L392.003 177.679L389.752 171.021Z" fill="#FFBA82"/>
<path d="M442.861 368.655C442.861 368.655 439.349 381.18 428.292 382.305L431 374.966L442.861 368.655Z" fill="#FFBA82"/>
<path d="M341.14 231.307L340.82 231.337L342.855 253.435L343.175 253.405L341.14 231.307Z" fill="#123466"/>
<path d="M342.477 217.037L376.518 209.557C377.815 209.272 379.09 210.123 379.324 211.43L386.732 252.782C386.954 254.019 386.158 255.21 384.931 255.48L328.097 267.968C326.869 268.238 325.648 267.489 325.331 266.273L314.722 225.625C314.387 224.34 315.187 223.033 316.484 222.748C317.515 222.522 341.444 217.264 342.477 217.037Z" fill="#F2660A"/>
<path d="M329.243 218.652L333.44 221.684C333.745 221.941 334.121 222.117 334.535 222.19C335.771 222.408 338.331 222.733 338.073 221.635C337.733 220.192 332.921 216.263 332.921 216.263" fill="#FFBA82"/>
<path d="M326.001 220.056L330.197 223.088C330.502 223.345 330.878 223.521 331.292 223.594C332.528 223.812 335.088 224.138 334.83 223.039C334.49 221.596 329.679 217.667 329.679 217.667" fill="#FFBA82"/>
<path d="M322.759 221.459L326.956 224.491C327.261 224.748 327.636 224.924 328.051 224.997C329.287 225.215 331.848 225.541 331.589 224.442C331.249 222.999 326.437 219.07 326.437 219.07" fill="#FFBA82"/>
<path d="M323.63 221.175C323.63 221.175 328.006 224.403 328.346 225.846C328.605 226.944 326.044 226.619 324.808 226.401C324.394 226.328 324.018 226.152 323.713 225.895L321.365 224.199C320.248 223.392 319.989 221.917 320.804 220.78C322.171 218.872 326.428 217.407 330.066 216.047C336.002 213.827 339.522 217.697 339.522 217.697L335.397 218.607L323.63 221.175Z" fill="#FFBA82"/>
<path d="M378.114 216.59L318.813 229.62L327.212 267.846L386.513 254.816L378.114 216.59Z" fill="white"/>
<path d="M372.331 218.721L370.757 215.701C370.268 214.763 369.212 214.27 368.18 214.497L352.748 217.888C351.715 218.115 350.963 219.006 350.913 220.062L350.75 223.463C350.699 224.519 349.947 225.41 348.915 225.637L314.874 233.117C313.577 233.402 312.777 234.708 313.112 235.994L326.054 269.57C326.371 270.786 327.593 271.534 328.821 271.265L385.655 258.777C386.883 258.507 387.678 257.316 387.456 256.079L377.715 221.8C377.481 220.493 376.207 219.642 374.909 219.927C373.876 220.152 372.82 219.658 372.331 218.721Z" fill="#FFB330"/>
<path d="M379.816 255.184L359.52 259.644C358.605 259.845 357.701 259.266 357.5 258.352L357.014 256.139C356.813 255.224 357.392 254.32 358.306 254.119L378.602 249.659C379.517 249.458 380.421 250.037 380.622 250.952L381.108 253.165C381.309 254.078 380.73 254.983 379.816 255.184Z" fill="white"/>
<path d="M377.061 256.497L365.328 256.662C364.975 256.667 364.646 256.742 364.373 256.883C363.559 257.305 361.968 258.242 362.926 258.667C364.185 259.226 376.914 259.235 376.914 259.235" fill="#FFBA82"/>
<path d="M380.11 246.789L377.424 248.4C376.948 248.685 376.395 248.897 375.791 249.024L365.775 250.601C365.775 250.601 363.251 251.803 364.484 252.602C365.717 253.401 376.946 253.316 376.946 253.316L363.392 253.507C363.107 253.511 362.842 253.57 362.62 253.682C361.757 254.118 359.67 255.279 360.824 255.791C362.26 256.428 376.778 256.438 376.778 256.438" fill="#FFBA82"/>
<path d="M365.957 259.879C366.293 259.55 367.082 259.25 368.048 259.015L375.995 259.063L376.435 252.9L380.11 246.789L386.438 246.358C386.438 246.358 393.921 251.468 386.291 258.974C385.765 259.492 385.02 259.86 384.161 260.042L376.823 261.595C376.669 261.609 376.514 261.61 376.355 261.597C374.769 261.47 366.513 261.316 365.939 261.061C365.611 260.916 365.649 260.18 365.957 259.879Z" fill="#FFBA82"/>
<path d="M377.87 248.948L378.712 247.011C379.039 246.114 377.947 245.555 377.032 244.768L373.799 242.558C373.385 242.275 373.427 241.802 373.887 241.669C374.772 241.413 376.523 240.874 378.752 242.109L387.287 246.529L377.87 248.948Z" fill="#FFBA82"/>
<path d="M426.785 265.689L384.518 264.637L386.117 242.505L413.121 244.022L416.963 231.526L435.514 199.546L437.5 201.411C442.577 206.179 445.186 213.133 444.085 220.01C443.485 223.756 442.204 227.526 440.568 231.3L426.785 265.689Z" fill="#1A237E"/>
<path d="M408.476 169.994C408.476 169.994 386.678 172.519 384.518 162.75C382.357 152.981 398.874 151.549 408.476 169.994Z" fill="#1C306B"/>
<path d="M353.398 221.286L368.807 217.661" stroke="#123466" stroke-miterlimit="10"/>
<path d="M416.853 168.022C417.945 170.207 417.059 172.863 414.874 173.954C412.689 175.046 410.033 174.16 408.942 171.975C407.85 169.79 408.736 167.134 410.921 166.043C413.105 164.951 415.761 165.837 416.853 168.022Z" fill="#FFBA82"/>
<path d="M413.217 168.484L412.24 171.412L412.545 171.514L413.522 168.585L413.217 168.484Z" fill="#123466"/>
<path d="M414.31 170.64L414.412 170.335L411.484 169.358L411.382 169.662L414.31 170.64Z" fill="#123466"/>
<path d="M412.487 173.798C412.487 174.861 413.349 175.723 414.412 175.723C415.475 175.723 416.336 174.861 416.336 173.798C416.336 172.735 415.474 171.873 414.412 171.873C413.349 171.873 412.487 172.735 412.487 173.798Z" fill="white"/>
<path d="M385.625 241.503L384.041 265.129L392.357 265.687L393.941 242.061L385.625 241.503Z" fill="#010A62"/>
<path d="M390.86 245.336C390.852 246.133 390.2 246.772 389.403 246.764C388.606 246.756 387.967 246.104 387.975 245.307C387.983 244.51 388.635 243.871 389.432 243.879C390.229 243.887 390.868 244.539 390.86 245.336Z" fill="white"/>
<path d="M136.232 376.269L161.056 395.513L130.793 395.033L126.352 390.085L123.986 394.897L116.132 394.74L120.031 374.418L136.232 376.269Z" fill="#275996"/>
<path d="M149.549 386.593L148.305 392.445L128.107 392.04L130.793 395.033L161.056 395.513L149.549 386.593Z" fill="#123466"/>
<path d="M125.357 392.109L116.67 391.935L116.132 394.74L123.986 394.897L125.357 392.109Z" fill="#123466"/>
<path d="M100.848 256.978C100.848 256.978 95.302 288.789 107.353 295.69C114.809 299.96 118.375 332.057 118.375 332.057C118.375 332.057 112.971 376.615 112.609 378.518C112.246 380.421 140.858 379.465 142.012 378.286C142.012 378.286 144.761 334.784 145.09 326.97C146.95 282.839 141.064 243.515 141.064 243.515L100.848 256.978Z" fill="#010A62"/>
<path d="M94.41 372.533L110.593 398.617L83.036 387.868L80.654 381.822L76.847 385.425L69.706 382.605L80.201 365.319L94.41 372.533Z" fill="#275996"/>
<path d="M103.092 386.527L99.958 391.463L81.595 384.212L83.036 387.868L110.593 398.617L103.092 386.527Z" fill="#123466"/>
<path d="M79.053 383.337L71.155 380.219L69.706 382.605L76.847 385.425L79.053 383.337Z" fill="#123466"/>
<path d="M95.776 250.405C95.776 250.405 81.469 279.353 91.08 289.378C97.026 295.58 90.806 327.724 90.806 327.724C90.806 327.724 75.492 368.915 74.607 370.637C73.722 372.36 98.42 379.121 99.86 378.316C99.86 378.316 118.979 334.543 121.093 327.013C129.441 297.282 134.936 254.636 134.936 254.636L95.776 250.405Z" fill="#1A237E"/>
<path d="M112.774 168.828L128.195 172.853L128.219 179.924L112.092 175.923L112.774 168.828Z" fill="#123466"/>
<path d="M176.512 167.359C176.512 167.359 175.657 166.139 178.216 164.182C180.775 162.225 183.551 159.648 184.943 160.92C186.336 162.191 186.864 162.817 188.231 163.229C189.598 163.64 189.136 165.374 190.142 166.785C191.148 168.195 191.035 167.771 191.415 169.398C191.795 171.025 193.882 170.375 193.215 172.114C192.547 173.853 191.515 179.507 184.56 181.816C184.56 181.816 181.102 181.112 177.772 177.093C174.441 173.072 176.512 167.359 176.512 167.359Z" fill="#FFBA82"/>
<path d="M178.687 172.469C178.687 172.469 180.008 173.982 180.479 173.822C180.479 173.822 180.273 174.974 180.855 175.549C181.437 176.124 182.65 177.009 183.329 176.637C183.329 176.637 183.508 178.066 184.29 178.264C185.072 178.462 186.334 178.015 188.58 176.804C190.825 175.593 191.441 174.846 191.441 174.846C191.441 174.846 189.593 176.63 187.626 178.305C185.659 179.98 184.522 180.63 183.222 179.346C181.922 178.062 182.232 177.742 180.126 176.288C178.02 174.834 176.712 174.995 175.962 172.745C175.962 172.745 177.486 173.473 178.687 172.469Z" fill="#ED944C"/>
<path d="M166.342 163.018C159.884 161.076 156.21 154.242 158.152 147.783C160.094 141.325 166.928 137.65 173.386 139.592C179.844 141.534 183.519 148.369 181.577 154.827C179.635 161.286 172.8 164.96 166.342 163.018ZM172.245 143.388C167.879 142.075 163.26 144.559 161.947 148.925C160.634 153.291 163.118 157.911 167.483 159.224C171.849 160.537 176.47 158.053 177.782 153.687C179.095 149.321 176.611 144.701 172.245 143.388Z" fill="#1A237E"/>
<path d="M180.178 175.381C179.671 175.229 179.228 174.876 178.974 174.364L172.896 162.119C172.41 161.139 172.81 159.95 173.79 159.464C174.769 158.978 175.957 159.376 176.446 160.358L182.525 172.603C183.011 173.583 182.611 174.772 181.631 175.259C181.16 175.491 180.643 175.521 180.178 175.381Z" fill="#1A237E"/>
<path d="M178.056 168.884C178.056 168.884 175.949 166.428 174.548 166.921C173.147 167.414 172.405 168.559 172.681 169.666C172.957 170.773 173.691 172.331 174.569 173.512C175.448 174.693 175.264 175.298 178.499 177.935C178.499 177.935 176.011 175.075 175.962 172.746C175.962 172.746 177.803 173.681 178.687 172.469C179.571 171.257 179.345 170.096 178.056 168.884Z" fill="#FFBA82"/>
<path d="M191.415 169.397C191.035 167.77 191.148 168.195 190.142 166.784C189.136 165.374 189.598 163.639 188.231 163.228C186.864 162.817 186.336 162.191 184.943 160.919C183.55 159.647 180.774 162.224 178.216 164.181C175.657 166.138 176.512 167.358 176.512 167.358C176.512 167.358 175.607 169.879 175.968 172.747C176.003 172.764 177.501 173.46 178.687 172.467C178.687 172.467 180.008 173.98 180.479 173.82C180.479 173.82 180.273 174.972 180.855 175.547C181.437 176.122 182.65 177.007 183.329 176.635C183.329 176.635 183.508 178.064 184.29 178.262C185.072 178.46 186.334 178.013 188.58 176.802C189.973 176.051 190.737 175.48 191.118 175.153C191.324 174.957 191.442 174.844 191.442 174.844C191.442 174.844 191.351 174.953 191.118 175.153C190.504 175.735 189.099 177.049 187.626 178.303C185.659 179.978 184.522 180.628 183.222 179.344C181.922 178.06 182.232 177.74 180.126 176.286C178.027 174.837 176.722 174.989 175.971 172.764C176.156 174.211 176.657 175.744 177.772 177.09C181.102 181.109 184.56 181.813 184.56 181.813C191.514 179.505 192.547 173.85 193.215 172.111C193.882 170.374 191.794 171.024 191.415 169.397Z" fill="#FFBA82"/>
<path d="M153.23 221.212L188.056 184.092L171.826 168.868L150.998 191.071L135.076 178.768L125.608 199.64L153.23 221.212Z" fill="#123466"/>
<path d="M124.277 176.797L99.524 180.754C87.599 184.387 85.176 192.331 86.589 198.974L94.856 230.218L93.827 260.025L117.561 263.872C128.195 265.596 142.386 265.125 150.767 258.356L150.522 252.297L146.464 208.476C146.409 200.224 145.603 189.299 140.169 183.088C139.191 181.97 137.296 180.337 135.075 178.768C133.917 177.949 126.761 176.982 124.277 176.797Z" fill="#275996"/>
<path d="M108.152 156.103L108.756 176.86C108.892 178.858 114.385 178.941 119.715 179.975C122.843 180.582 125.125 182.738 124.675 179.584L122.656 165.432L108.152 156.103Z" fill="#FFBA82"/>
<path d="M123.745 173.067L122.821 166.691L111.473 161.404L111.866 163.962C111.866 163.962 113.45 168.214 123.745 173.067Z" fill="#ED944C"/>
<path d="M109.65 165.633L125.479 170.722C127.987 171.549 130.621 170.967 132.524 169.41C134.013 168.191 134.836 166.335 135.031 164.42L135.598 144.832L112.951 140.318L109.65 165.633Z" fill="#FFBA82"/>
<path d="M134.592 151.132L137.684 157.8C138.145 158.793 137.26 159.711 136.034 159.511L133.515 159.1L134.592 151.132Z" fill="#FFBA82"/>
<path d="M131.412 154.001C131.291 154.367 131.49 154.761 131.856 154.882C132.222 155.002 132.616 154.803 132.737 154.438C132.857 154.072 132.659 153.678 132.293 153.558C131.926 153.436 131.532 153.635 131.412 154.001Z" fill="#123466"/>
<path d="M129.57 152.456C129.665 152.462 129.763 152.441 129.851 152.389L132.391 150.873C132.619 150.737 132.693 150.441 132.558 150.212C132.421 149.98 132.124 149.909 131.895 150.045L129.355 151.561C129.127 151.698 129.052 151.993 129.188 152.222C129.273 152.364 129.418 152.446 129.57 152.456Z" fill="#461C00"/>
<path d="M99.325 274.723L104.064 285.674C104.207 286.004 104.262 286.334 104.22 286.632C104.093 287.523 103.724 289.301 102.85 288.547C101.703 287.556 96.353 275.736 96.353 275.736" fill="#FFBA82"/>
<path d="M108.804 268.782L108.145 271.793C108.028 272.326 108.026 272.908 108.139 273.509L110.594 283.317C110.594 283.317 110.321 286.046 108.919 285.157C107.516 284.268 102.9 273.811 102.9 273.811L108.375 286.462C108.49 286.728 108.535 286.993 108.504 287.235C108.383 288.176 107.972 290.487 106.921 289.579C105.613 288.449 99.51 274.968 99.51 274.968" fill="#FFBA82"/>
<path d="M100.236 286.12C100.459 285.702 100.461 284.873 100.316 283.901L96.928 276.535L103.573 274.153L108.804 268.782L106.627 262.767C106.627 262.767 97.825 257.453 92.708 266.943C92.355 267.597 92.259 268.407 92.418 269.264L93.776 276.577C93.825 276.724 93.89 276.869 93.97 277.012C94.777 278.444 98.411 286.063 98.933 286.515C99.233 286.773 100.032 286.502 100.236 286.12Z" fill="#FFBA82"/>
<path d="M107.352 271.554L109.145 270.152C110.002 269.561 111.079 270.396 112.335 270.994L116.14 273.289C116.627 273.583 117.134 273.392 117.089 272.923C117.002 272.019 116.864 270.22 114.561 268.545L106.082 262.033L107.352 271.554Z" fill="#FFBA82"/>
<path d="M73.909 239.382L91.169 274.098L111.095 264.19L97.54 236.932L108.295 195.631C109.6 190.622 106.596 185.503 101.587 184.198L98.195 183.315C93.185 182.01 88.066 185.014 86.761 190.024L73.909 239.382Z" fill="#123466"/>
<path d="M128.368 160.915C127.748 160.452 127.137 159.742 126.645 158.66C126.611 158.585 126.644 158.496 126.72 158.462C126.794 158.428 126.884 158.46 126.918 158.537C128.501 162.02 131.274 161.429 131.391 161.403C131.471 161.385 131.553 161.435 131.571 161.515C131.59 161.595 131.54 161.676 131.459 161.695C131.437 161.7 129.876 162.041 128.368 160.915Z" fill="#123466"/>
<path d="M107.068 173.013L122.489 177.038L122.514 184.109L106.387 180.108L107.068 173.013Z" fill="#123466"/>
<path d="M111.849 153.371L118.8 147.303C118.8 147.303 134.531 152.705 137.753 146.829C140.975 140.954 140.596 137.921 140.596 137.921C140.596 137.921 111.393 127.581 109.374 144.555C107.355 161.529 111.849 153.371 111.849 153.371Z" fill="#461C00"/>
<path d="M106.614 153.01C105.782 155.536 107.155 158.259 109.681 159.091C112.207 159.923 114.93 158.55 115.762 156.024C116.594 153.498 115.221 150.775 112.695 149.943C110.169 149.111 107.446 150.484 106.614 153.01Z" fill="#FFBA82"/>
<path d="M111.8 156.09L112.089 155.946L110.575 152.944L110.287 153.088L111.8 156.09Z" fill="#123466"/>
<path d="M109.76 155.418L112.761 153.904L112.615 153.616L109.614 155.13L109.76 155.418Z" fill="#123466"/>
</svg>
