<svg width="500" height="500" viewBox="0 0 500 500" fill="none" xmlns="http://www.w3.org/2000/svg">
<rect width="500" height="500" rx="8" fill="#E9ECFF"/>
<rect x="34.14" y="124.66" width="431.72" height="250.68" rx="7.74" fill="white"/>
<rect x="34.14" y="124.66" width="431.72" height="250.68" rx="7.74" stroke="#C1C5C8" stroke-width="1.72"/>
<mask id="path-3-outside-1_1751_1427" maskUnits="userSpaceOnUse" x="35" y="125.52" width="430" height="38" fill="black">
<rect fill="white" x="35" y="125.52" width="430" height="38"/>
<path d="M35 125.52H465V161.28H35V125.52Z"/>
</mask>
<path d="M465 161.28V159.56H35V161.28V163H465V161.28Z" fill="#C1C5C8" mask="url(#path-3-outside-1_1751_1427)"/>
<mask id="path-5-inside-2_1751_1427" fill="white">
<path d="M35 132.4C35 128.6 38.0803 125.52 41.88 125.52H138.2V161.28H35V132.4Z"/>
</mask>
<path d="M35 132.4C35 128.6 38.0803 125.52 41.88 125.52H138.2V161.28H35V132.4Z" fill="#F5F5F5"/>
<path d="M35 125.52H138.2H35ZM138.2 161.28H35H138.2ZM35 161.28V125.52V161.28ZM139.92 125.52V161.28H136.48V125.52H139.92Z" fill="#D5D9DC" mask="url(#path-5-inside-2_1751_1427)"/>
<path d="M56.93 149.572C55.9897 149.572 55.187 149.4 54.522 149.056C53.8569 148.712 53.2664 148.213 52.7504 147.56L53.8512 146.459C54.2296 146.986 54.6653 147.388 55.1584 147.663C55.6514 147.927 56.2592 148.058 56.9816 148.058C57.6925 148.058 58.2601 147.904 58.6844 147.594C59.1201 147.284 59.338 146.86 59.338 146.321C59.338 145.874 59.2348 145.513 59.0284 145.238C58.822 144.962 58.541 144.739 58.1856 144.567C57.8416 144.383 57.4632 144.223 57.0504 144.085C56.6376 143.936 56.2248 143.781 55.812 143.621C55.3992 143.449 55.0208 143.242 54.6768 143.002C54.3328 142.749 54.0518 142.423 53.834 142.021C53.6276 141.62 53.5244 141.115 53.5244 140.508C53.5244 139.831 53.6849 139.258 54.006 138.788C54.3385 138.306 54.7857 137.939 55.3476 137.687C55.9209 137.423 56.563 137.291 57.274 137.291C58.0537 137.291 58.7532 137.446 59.3724 137.756C59.9916 138.054 60.4961 138.449 60.886 138.942L59.7852 140.043C59.4297 139.63 59.0456 139.321 58.6328 139.114C58.2314 138.908 57.767 138.805 57.2396 138.805C56.5974 138.805 56.0872 138.948 55.7088 139.235C55.3304 139.51 55.1412 139.9 55.1412 140.404C55.1412 140.806 55.2444 141.133 55.4508 141.385C55.6686 141.626 55.9496 141.832 56.2936 142.004C56.6376 142.176 57.016 142.337 57.4288 142.486C57.853 142.623 58.2716 142.778 58.6844 142.95C59.0972 143.122 59.4756 143.34 59.8196 143.604C60.1636 143.867 60.4388 144.211 60.6452 144.636C60.863 145.048 60.972 145.57 60.972 146.201C60.972 147.256 60.605 148.081 59.8712 148.678C59.1488 149.274 58.1684 149.572 56.93 149.572ZM66.161 149.572C65.4959 149.572 64.8939 149.423 64.355 149.125C63.8275 148.815 63.4147 148.391 63.1166 147.852C62.8185 147.313 62.6694 146.688 62.6694 145.977V141.23H64.2174V145.908C64.2174 146.356 64.2919 146.745 64.441 147.078C64.6015 147.399 64.8309 147.646 65.129 147.818C65.4271 147.99 65.7769 148.076 66.1782 148.076C66.7859 148.076 67.2618 147.886 67.6058 147.508C67.9498 147.118 68.1218 146.585 68.1218 145.908V141.23H69.6698V145.977C69.6698 146.688 69.5207 147.313 69.2226 147.852C68.9245 148.391 68.5117 148.815 67.9842 149.125C67.4682 149.423 66.8605 149.572 66.161 149.572ZM76.0446 149.572C75.4254 149.572 74.8635 149.446 74.359 149.194C73.8659 148.93 73.4703 148.569 73.1722 148.11C72.874 147.651 72.7078 147.13 72.6734 146.545V144.085C72.7078 143.489 72.874 142.967 73.1722 142.52C73.4818 142.061 73.8831 141.706 74.3762 141.454C74.8807 141.19 75.4368 141.058 76.0446 141.058C76.7899 141.058 77.4607 141.247 78.057 141.626C78.6647 142.004 79.1406 142.514 79.4846 143.156C79.8286 143.799 80.0006 144.521 80.0006 145.324C80.0006 146.126 79.8286 146.849 79.4846 147.491C79.1406 148.133 78.6647 148.643 78.057 149.022C77.4607 149.389 76.7899 149.572 76.0446 149.572ZM71.7446 152.823V141.23H73.2926V143.38L73.0002 145.358L73.2926 147.353V152.823H71.7446ZM75.7866 148.11C76.3026 148.11 76.7555 147.99 77.1454 147.749C77.5352 147.508 77.8448 147.181 78.0742 146.768C78.3035 146.344 78.4182 145.857 78.4182 145.306C78.4182 144.767 78.3035 144.286 78.0742 143.862C77.8448 143.437 77.5352 143.111 77.1454 142.881C76.7555 142.64 76.3083 142.52 75.8038 142.52C75.2878 142.52 74.8348 142.64 74.445 142.881C74.0551 143.111 73.7512 143.437 73.5334 143.862C73.3155 144.286 73.2066 144.773 73.2066 145.324C73.2066 145.863 73.3098 146.344 73.5162 146.768C73.734 147.181 74.0379 147.508 74.4278 147.749C74.8291 147.99 75.282 148.11 75.7866 148.11ZM86.0555 149.572C85.4363 149.572 84.8744 149.446 84.3699 149.194C83.8768 148.93 83.4812 148.569 83.1831 148.11C82.885 147.651 82.7187 147.13 82.6843 146.545V144.085C82.7187 143.489 82.885 142.967 83.1831 142.52C83.4927 142.061 83.894 141.706 84.3871 141.454C84.8916 141.19 85.4478 141.058 86.0555 141.058C86.8008 141.058 87.4716 141.247 88.0679 141.626C88.6756 142.004 89.1515 142.514 89.4955 143.156C89.8395 143.799 90.0115 144.521 90.0115 145.324C90.0115 146.126 89.8395 146.849 89.4955 147.491C89.1515 148.133 88.6756 148.643 88.0679 149.022C87.4716 149.389 86.8008 149.572 86.0555 149.572ZM81.7555 152.823V141.23H83.3035V143.38L83.0111 145.358L83.3035 147.353V152.823H81.7555ZM85.7975 148.11C86.3135 148.11 86.7664 147.99 87.1563 147.749C87.5462 147.508 87.8558 147.181 88.0851 146.768C88.3144 146.344 88.4291 145.857 88.4291 145.306C88.4291 144.767 88.3144 144.286 88.0851 143.862C87.8558 143.437 87.5462 143.111 87.1563 142.881C86.7664 142.64 86.3192 142.52 85.8147 142.52C85.2987 142.52 84.8458 142.64 84.4559 142.881C84.066 143.111 83.7622 143.437 83.5443 143.862C83.3264 144.286 83.2175 144.773 83.2175 145.324C83.2175 145.863 83.3207 146.344 83.5271 146.768C83.745 147.181 84.0488 147.508 84.4387 147.749C84.84 147.99 85.293 148.11 85.7975 148.11ZM91.7664 149.4V137.119H93.3144V149.4H91.7664ZM95.5965 149.4V141.23H97.1445V149.4H95.5965ZM96.3705 139.596C96.0839 139.596 95.8488 139.504 95.6653 139.321C95.4819 139.126 95.3901 138.885 95.3901 138.598C95.3901 138.323 95.4819 138.094 95.6653 137.91C95.8488 137.715 96.0839 137.618 96.3705 137.618C96.6572 137.618 96.8923 137.715 97.0757 137.91C97.2592 138.094 97.3509 138.323 97.3509 138.598C97.3509 138.885 97.2592 139.126 97.0757 139.321C96.8923 139.504 96.6572 139.596 96.3705 139.596ZM103.21 149.572C102.396 149.572 101.662 149.389 101.008 149.022C100.355 148.643 99.8386 148.133 99.4602 147.491C99.0818 146.849 98.8926 146.121 98.8926 145.306C98.8926 144.504 99.0761 143.781 99.443 143.139C99.8214 142.497 100.326 141.993 100.957 141.626C101.599 141.247 102.315 141.058 103.107 141.058C103.863 141.058 104.528 141.23 105.102 141.574C105.687 141.918 106.14 142.394 106.461 143.002C106.793 143.609 106.959 144.297 106.959 145.066C106.959 145.18 106.954 145.306 106.942 145.444C106.931 145.57 106.908 145.719 106.873 145.891H99.9762V144.601H106.048L105.48 145.1C105.48 144.55 105.383 144.085 105.188 143.707C104.993 143.317 104.718 143.019 104.362 142.812C104.007 142.595 103.577 142.486 103.072 142.486C102.545 142.486 102.08 142.6 101.679 142.83C101.278 143.059 100.968 143.38 100.75 143.793C100.532 144.206 100.423 144.693 100.423 145.255C100.423 145.828 100.538 146.333 100.767 146.768C100.997 147.193 101.324 147.525 101.748 147.766C102.172 147.995 102.659 148.11 103.21 148.11C103.668 148.11 104.087 148.03 104.465 147.869C104.855 147.709 105.188 147.468 105.463 147.147L106.461 148.162C106.071 148.62 105.589 148.97 105.016 149.211C104.454 149.452 103.852 149.572 103.21 149.572ZM108.647 149.4V141.23H110.195V149.4H108.647ZM110.195 144.739L109.61 144.481C109.61 143.437 109.851 142.606 110.333 141.987C110.814 141.368 111.508 141.058 112.414 141.058C112.827 141.058 113.2 141.133 113.532 141.282C113.865 141.419 114.174 141.654 114.461 141.987L113.446 143.036C113.274 142.853 113.085 142.721 112.878 142.64C112.672 142.56 112.431 142.52 112.156 142.52C111.583 142.52 111.113 142.703 110.746 143.07C110.379 143.437 110.195 143.993 110.195 144.739Z" fill="black"/>
<mask id="path-8-inside-3_1751_1427" fill="white">
<path d="M138.2 125.52H327.4V161.28H138.2V125.52Z"/>
</mask>
<path d="M138.2 125.52H327.4V161.28H138.2V125.52Z" fill="#F5F5F5"/>
<path d="M327.4 125.52H325.68V161.28H327.4H329.12V125.52H327.4Z" fill="#D5D9DC" mask="url(#path-8-inside-3_1751_1427)"/>
<path d="M156.81 149.4V137.463H157.946L163.002 145.771H162.228L167.285 137.463H168.42V149.4H166.804V140.301L167.182 140.404L163.192 146.958H162.056L158.066 140.404L158.427 140.301V149.4H156.81ZM174.438 149.572C173.693 149.572 173.016 149.389 172.409 149.022C171.801 148.643 171.319 148.133 170.964 147.491C170.62 146.849 170.448 146.126 170.448 145.324C170.448 144.521 170.62 143.799 170.964 143.156C171.319 142.514 171.795 142.004 172.391 141.626C172.999 141.247 173.681 141.058 174.438 141.058C175.057 141.058 175.608 141.19 176.089 141.454C176.582 141.706 176.978 142.061 177.276 142.52C177.574 142.967 177.741 143.489 177.775 144.085V146.545C177.741 147.13 177.574 147.651 177.276 148.11C176.989 148.569 176.6 148.93 176.107 149.194C175.625 149.446 175.069 149.572 174.438 149.572ZM174.696 148.11C175.464 148.11 176.084 147.852 176.554 147.336C177.024 146.809 177.259 146.138 177.259 145.324C177.259 144.762 177.15 144.274 176.932 143.862C176.726 143.437 176.428 143.111 176.038 142.881C175.648 142.64 175.195 142.52 174.679 142.52C174.163 142.52 173.704 142.64 173.303 142.881C172.913 143.122 172.603 143.455 172.374 143.879C172.156 144.292 172.047 144.767 172.047 145.306C172.047 145.857 172.156 146.344 172.374 146.768C172.603 147.181 172.919 147.508 173.32 147.749C173.721 147.99 174.18 148.11 174.696 148.11ZM177.156 149.4V147.198L177.448 145.203L177.156 143.225V141.23H178.721V149.4H177.156ZM182.197 149.4V137.807H183.745V149.4H182.197ZM180.184 142.64V141.23H185.757V142.64H180.184ZM190.754 149.572C189.951 149.572 189.223 149.383 188.57 149.004C187.927 148.626 187.417 148.116 187.039 147.474C186.672 146.82 186.488 146.098 186.488 145.306C186.488 144.504 186.672 143.781 187.039 143.139C187.417 142.497 187.927 141.993 188.57 141.626C189.223 141.247 189.951 141.058 190.754 141.058C191.385 141.058 191.969 141.178 192.508 141.419C193.047 141.649 193.512 141.987 193.902 142.434L192.87 143.466C192.617 143.168 192.308 142.944 191.941 142.795C191.585 142.635 191.19 142.554 190.754 142.554C190.238 142.554 189.779 142.675 189.378 142.916C188.977 143.145 188.661 143.466 188.432 143.879C188.203 144.292 188.088 144.767 188.088 145.306C188.088 145.845 188.203 146.321 188.432 146.734C188.661 147.147 188.977 147.474 189.378 147.714C189.779 147.955 190.238 148.076 190.754 148.076C191.19 148.076 191.585 148.001 191.941 147.852C192.308 147.691 192.623 147.462 192.887 147.164L193.902 148.196C193.523 148.632 193.059 148.97 192.508 149.211C191.969 149.452 191.385 149.572 190.754 149.572ZM201.216 149.4V144.636C201.216 144.016 201.021 143.506 200.631 143.105C200.241 142.703 199.737 142.503 199.118 142.503C198.705 142.503 198.338 142.595 198.017 142.778C197.696 142.961 197.443 143.214 197.26 143.535C197.077 143.856 196.985 144.223 196.985 144.636L196.348 144.274C196.348 143.655 196.486 143.105 196.761 142.623C197.036 142.142 197.421 141.763 197.914 141.488C198.407 141.201 198.963 141.058 199.582 141.058C200.201 141.058 200.746 141.196 201.216 141.471C201.698 141.746 202.076 142.13 202.351 142.623C202.626 143.116 202.764 143.684 202.764 144.326V149.4H201.216ZM195.437 149.4V137.119H196.985V149.4H195.437ZM204.877 149.4V141.23H206.425V149.4H204.877ZM205.651 139.596C205.364 139.596 205.129 139.504 204.946 139.321C204.762 139.126 204.671 138.885 204.671 138.598C204.671 138.323 204.762 138.094 204.946 137.91C205.129 137.715 205.364 137.618 205.651 137.618C205.938 137.618 206.173 137.715 206.356 137.91C206.54 138.094 206.631 138.323 206.631 138.598C206.631 138.885 206.54 139.126 206.356 139.321C206.173 139.504 205.938 139.596 205.651 139.596ZM214.486 149.4V144.636C214.486 144.016 214.291 143.506 213.901 143.105C213.511 142.703 213.006 142.503 212.387 142.503C211.974 142.503 211.607 142.595 211.286 142.778C210.965 142.961 210.713 143.214 210.53 143.535C210.346 143.856 210.254 144.223 210.254 144.636L209.618 144.274C209.618 143.655 209.756 143.105 210.031 142.623C210.306 142.142 210.69 141.763 211.183 141.488C211.676 141.201 212.232 141.058 212.852 141.058C213.471 141.058 214.015 141.213 214.486 141.522C214.967 141.832 215.346 142.239 215.621 142.744C215.896 143.237 216.034 143.764 216.034 144.326V149.4H214.486ZM208.706 149.4V141.23H210.254V149.4H208.706ZM221.518 152.995C220.681 152.995 219.935 152.84 219.282 152.53C218.64 152.221 218.124 151.785 217.734 151.223L218.731 150.208C219.064 150.633 219.46 150.954 219.918 151.172C220.377 151.401 220.922 151.516 221.552 151.516C222.389 151.516 223.049 151.292 223.53 150.845C224.023 150.409 224.27 149.819 224.27 149.073V147.044L224.545 145.203L224.27 143.38V141.23H225.818V149.073C225.818 149.853 225.634 150.535 225.267 151.12C224.912 151.705 224.407 152.163 223.754 152.496C223.112 152.829 222.366 152.995 221.518 152.995ZM221.518 149.262C220.772 149.262 220.102 149.085 219.505 148.729C218.921 148.374 218.456 147.886 218.112 147.267C217.768 146.637 217.596 145.931 217.596 145.152C217.596 144.372 217.768 143.678 218.112 143.07C218.456 142.451 218.921 141.964 219.505 141.608C220.102 141.241 220.772 141.058 221.518 141.058C222.16 141.058 222.728 141.184 223.221 141.436C223.714 141.689 224.104 142.044 224.39 142.503C224.688 142.95 224.849 143.477 224.872 144.085V146.252C224.837 146.849 224.671 147.376 224.373 147.835C224.086 148.282 223.696 148.632 223.203 148.884C222.71 149.136 222.148 149.262 221.518 149.262ZM221.827 147.8C222.332 147.8 222.773 147.691 223.152 147.474C223.542 147.256 223.84 146.952 224.046 146.562C224.253 146.161 224.356 145.696 224.356 145.169C224.356 144.641 224.247 144.183 224.029 143.793C223.823 143.391 223.53 143.082 223.152 142.864C222.773 142.635 222.326 142.52 221.81 142.52C221.294 142.52 220.841 142.635 220.451 142.864C220.062 143.082 219.752 143.391 219.523 143.793C219.305 144.183 219.196 144.636 219.196 145.152C219.196 145.668 219.305 146.126 219.523 146.528C219.752 146.929 220.062 147.244 220.451 147.474C220.853 147.691 221.311 147.8 221.827 147.8ZM235.262 149.572C234.322 149.572 233.52 149.4 232.854 149.056C232.189 148.712 231.599 148.213 231.083 147.56L232.184 146.459C232.562 146.986 232.998 147.388 233.491 147.663C233.984 147.927 234.592 148.058 235.314 148.058C236.025 148.058 236.593 147.904 237.017 147.594C237.453 147.284 237.67 146.86 237.67 146.321C237.67 145.874 237.567 145.513 237.361 145.238C237.154 144.962 236.874 144.739 236.518 144.567C236.174 144.383 235.796 144.223 235.383 144.085C234.97 143.936 234.557 143.781 234.144 143.621C233.732 143.449 233.353 143.242 233.009 143.002C232.665 142.749 232.384 142.423 232.166 142.021C231.96 141.62 231.857 141.115 231.857 140.508C231.857 139.831 232.017 139.258 232.338 138.788C232.671 138.306 233.118 137.939 233.68 137.687C234.253 137.423 234.896 137.291 235.606 137.291C236.386 137.291 237.086 137.446 237.705 137.756C238.324 138.054 238.829 138.449 239.218 138.942L238.118 140.043C237.762 139.63 237.378 139.321 236.965 139.114C236.564 138.908 236.1 138.805 235.572 138.805C234.93 138.805 234.42 138.948 234.041 139.235C233.663 139.51 233.474 139.9 233.474 140.404C233.474 140.806 233.577 141.133 233.783 141.385C234.001 141.626 234.282 141.832 234.626 142.004C234.97 142.176 235.348 142.337 235.761 142.486C236.186 142.623 236.604 142.778 237.017 142.95C237.43 143.122 237.808 143.34 238.152 143.604C238.496 143.867 238.771 144.211 238.978 144.636C239.196 145.048 239.304 145.57 239.304 146.201C239.304 147.256 238.938 148.081 238.204 148.678C237.481 149.274 236.501 149.572 235.262 149.572ZM242.464 149.4V137.807H244.012V149.4H242.464ZM240.451 142.64V141.23H246.024V142.64H240.451ZM250.763 149.572C250.018 149.572 249.341 149.389 248.734 149.022C248.126 148.643 247.644 148.133 247.289 147.491C246.945 146.849 246.773 146.126 246.773 145.324C246.773 144.521 246.945 143.799 247.289 143.156C247.644 142.514 248.12 142.004 248.716 141.626C249.324 141.247 250.006 141.058 250.763 141.058C251.382 141.058 251.933 141.19 252.414 141.454C252.907 141.706 253.303 142.061 253.601 142.52C253.899 142.967 254.066 143.489 254.1 144.085V146.545C254.066 147.13 253.899 147.651 253.601 148.11C253.314 148.569 252.925 148.93 252.432 149.194C251.95 149.446 251.394 149.572 250.763 149.572ZM251.021 148.11C251.789 148.11 252.409 147.852 252.879 147.336C253.349 146.809 253.584 146.138 253.584 145.324C253.584 144.762 253.475 144.274 253.257 143.862C253.051 143.437 252.753 143.111 252.363 142.881C251.973 142.64 251.52 142.52 251.004 142.52C250.488 142.52 250.029 142.64 249.628 142.881C249.238 143.122 248.928 143.455 248.699 143.879C248.481 144.292 248.372 144.767 248.372 145.306C248.372 145.857 248.481 146.344 248.699 146.768C248.928 147.181 249.244 147.508 249.645 147.749C250.046 147.99 250.505 148.11 251.021 148.11ZM253.481 149.4V147.198L253.773 145.203L253.481 143.225V141.23H255.046V149.4H253.481ZM258.522 149.4V137.807H260.07V149.4H258.522ZM256.509 142.64V141.23H262.082V142.64H256.509ZM266.884 149.572C266.219 149.572 265.617 149.423 265.078 149.125C264.55 148.815 264.137 148.391 263.839 147.852C263.541 147.313 263.392 146.688 263.392 145.977V141.23H264.94V145.908C264.94 146.356 265.015 146.745 265.164 147.078C265.324 147.399 265.554 147.646 265.852 147.818C266.15 147.99 266.5 148.076 266.901 148.076C267.509 148.076 267.985 147.886 268.329 147.508C268.673 147.118 268.845 146.585 268.845 145.908V141.23H270.393V145.977C270.393 146.688 270.243 147.313 269.945 147.852C269.647 148.391 269.234 148.815 268.707 149.125C268.191 149.423 267.583 149.572 266.884 149.572ZM275.064 149.572C274.606 149.572 274.17 149.515 273.757 149.4C273.356 149.274 272.983 149.102 272.639 148.884C272.295 148.655 271.997 148.385 271.745 148.076L272.742 147.078C273.041 147.445 273.385 147.72 273.774 147.904C274.164 148.076 274.6 148.162 275.082 148.162C275.563 148.162 275.936 148.081 276.2 147.921C276.463 147.749 276.595 147.514 276.595 147.216C276.595 146.917 276.486 146.688 276.268 146.528C276.062 146.356 275.793 146.218 275.46 146.115C275.128 146 274.772 145.891 274.394 145.788C274.027 145.673 273.677 145.53 273.344 145.358C273.012 145.186 272.737 144.951 272.519 144.653C272.312 144.355 272.209 143.959 272.209 143.466C272.209 142.973 272.33 142.549 272.57 142.193C272.811 141.826 273.144 141.545 273.568 141.35C274.004 141.155 274.526 141.058 275.133 141.058C275.775 141.058 276.343 141.173 276.836 141.402C277.341 141.62 277.753 141.952 278.074 142.4L277.077 143.397C276.848 143.099 276.561 142.87 276.217 142.709C275.884 142.549 275.506 142.468 275.082 142.468C274.634 142.468 274.29 142.549 274.05 142.709C273.82 142.858 273.706 143.07 273.706 143.346C273.706 143.621 273.809 143.833 274.015 143.982C274.222 144.131 274.491 144.257 274.824 144.36C275.168 144.464 275.523 144.573 275.89 144.687C276.257 144.79 276.607 144.934 276.939 145.117C277.272 145.301 277.541 145.547 277.748 145.857C277.966 146.166 278.074 146.573 278.074 147.078C278.074 147.846 277.799 148.454 277.249 148.901C276.71 149.348 275.982 149.572 275.064 149.572Z" fill="black"/>
<path d="M327.4 125.52H458.12C461.92 125.52 465 128.6 465 132.4V161.28H327.4V125.52Z" fill="#F5F5F5"/>
<path d="M346.01 149.4V137.463H347.627V149.4H346.01ZM355.949 149.4V144.636C355.949 144.016 355.754 143.506 355.364 143.105C354.974 142.703 354.47 142.503 353.85 142.503C353.438 142.503 353.071 142.595 352.75 142.778C352.429 142.961 352.176 143.214 351.993 143.535C351.809 143.856 351.718 144.223 351.718 144.636L351.081 144.274C351.081 143.655 351.219 143.105 351.494 142.623C351.769 142.142 352.153 141.763 352.646 141.488C353.139 141.201 353.696 141.058 354.315 141.058C354.934 141.058 355.479 141.213 355.949 141.522C356.43 141.832 356.809 142.239 357.084 142.744C357.359 143.237 357.497 143.764 357.497 144.326V149.4H355.949ZM350.17 149.4V141.23H351.718V149.4H350.17ZM362.396 149.4L358.647 141.23H360.367L363.377 148.127H362.379L365.406 141.23H367.057L363.308 149.4H362.396ZM368.88 149.572C368.559 149.572 368.289 149.463 368.071 149.245C367.865 149.016 367.762 148.746 367.762 148.437C367.762 148.116 367.865 147.852 368.071 147.646C368.289 147.428 368.559 147.319 368.88 147.319C369.201 147.319 369.464 147.428 369.671 147.646C369.889 147.852 369.998 148.116 369.998 148.437C369.998 148.746 369.889 149.016 369.671 149.245C369.464 149.463 369.201 149.572 368.88 149.572ZM376.362 149.4V137.463H377.498L377.979 139.338V149.4H376.362ZM384.618 149.4L377.291 139.613L377.498 137.463L384.842 147.233L384.618 149.4ZM384.618 149.4L384.137 147.628V137.463H385.754V149.4H384.618ZM392.031 149.572C391.228 149.572 390.506 149.383 389.864 149.004C389.222 148.626 388.711 148.116 388.333 147.474C387.955 146.82 387.765 146.092 387.765 145.289C387.765 144.498 387.955 143.787 388.333 143.156C388.711 142.514 389.222 142.004 389.864 141.626C390.506 141.247 391.228 141.058 392.031 141.058C392.822 141.058 393.539 141.247 394.181 141.626C394.835 141.993 395.351 142.497 395.729 143.139C396.107 143.781 396.297 144.498 396.297 145.289C396.297 146.092 396.107 146.82 395.729 147.474C395.351 148.116 394.835 148.626 394.181 149.004C393.539 149.383 392.822 149.572 392.031 149.572ZM392.031 148.076C392.547 148.076 393.006 147.955 393.407 147.714C393.808 147.474 394.124 147.147 394.353 146.734C394.582 146.31 394.697 145.828 394.697 145.289C394.697 144.762 394.577 144.292 394.336 143.879C394.106 143.466 393.791 143.145 393.39 142.916C393 142.675 392.547 142.554 392.031 142.554C391.515 142.554 391.056 142.675 390.655 142.916C390.254 143.145 389.938 143.466 389.709 143.879C389.48 144.292 389.365 144.762 389.365 145.289C389.365 145.828 389.48 146.31 389.709 146.734C389.938 147.147 390.254 147.474 390.655 147.714C391.056 147.955 391.515 148.076 392.031 148.076ZM399.064 149.572C398.743 149.572 398.473 149.463 398.255 149.245C398.049 149.016 397.946 148.746 397.946 148.437C397.946 148.116 398.049 147.852 398.255 147.646C398.473 147.428 398.743 147.319 399.064 147.319C399.385 147.319 399.648 147.428 399.855 147.646C400.073 147.852 400.182 148.116 400.182 148.437C400.182 148.746 400.073 149.016 399.855 149.245C399.648 149.463 399.385 149.572 399.064 149.572Z" fill="black"/>
<mask id="path-13-inside-4_1751_1427" fill="white">
<path d="M35 161.28H465V203.92H35V161.28Z"/>
</mask>
<path d="M465 203.92V202.2H35V203.92V205.64H465V203.92Z" fill="#D5D9DC" mask="url(#path-13-inside-4_1751_1427)"/>
<mask id="path-15-inside-5_1751_1427" fill="white">
<path d="M35 161.28H138.2V203.92H35V161.28Z"/>
</mask>
<path d="M138.2 161.28H136.48V203.92H138.2H139.92V161.28H138.2Z" fill="#D5D9DC" mask="url(#path-15-inside-5_1751_1427)"/>
<rect x="52.2" y="175.72" width="49.88" height="13.76" rx="6.88" fill="#D9D9D9"/>
<mask id="path-18-inside-6_1751_1427" fill="white">
<path d="M138.2 161.28H327.4V203.92H138.2V161.28Z"/>
</mask>
<path d="M327.4 161.28H325.68V203.92H327.4H329.12V161.28H327.4Z" fill="#D5D9DC" mask="url(#path-18-inside-6_1751_1427)"/>
<rect x="155.4" y="168.16" width="130.88" height="28.88" rx="3.44" fill="#CFF3DF"/>
<path d="M160.25 188.6V176.663H161.386L166.442 184.971H165.668L170.725 176.663H171.86V188.6H170.244V179.501L170.622 179.604L166.632 186.158H165.496L161.506 179.604L161.867 179.501V188.6H160.25ZM177.878 188.772C177.133 188.772 176.456 188.589 175.849 188.222C175.241 187.843 174.759 187.333 174.404 186.691C174.06 186.049 173.888 185.326 173.888 184.524C173.888 183.721 174.06 182.999 174.404 182.356C174.759 181.714 175.235 181.204 175.831 180.826C176.439 180.447 177.121 180.258 177.878 180.258C178.497 180.258 179.048 180.39 179.529 180.654C180.022 180.906 180.418 181.261 180.716 181.72C181.014 182.167 181.181 182.689 181.215 183.285V185.745C181.181 186.33 181.014 186.851 180.716 187.31C180.429 187.769 180.04 188.13 179.547 188.394C179.065 188.646 178.509 188.772 177.878 188.772ZM178.136 187.31C178.904 187.31 179.524 187.052 179.994 186.536C180.464 186.009 180.699 185.338 180.699 184.524C180.699 183.962 180.59 183.474 180.372 183.062C180.166 182.637 179.868 182.311 179.478 182.081C179.088 181.84 178.635 181.72 178.119 181.72C177.603 181.72 177.144 181.84 176.743 182.081C176.353 182.322 176.043 182.655 175.814 183.079C175.596 183.492 175.487 183.967 175.487 184.506C175.487 185.057 175.596 185.544 175.814 185.968C176.043 186.381 176.359 186.708 176.76 186.949C177.161 187.19 177.62 187.31 178.136 187.31ZM180.596 188.6V186.398L180.888 184.403L180.596 182.425V180.43H182.161V188.6H180.596ZM185.637 188.6V177.007H187.185V188.6H185.637ZM183.624 181.84V180.43H189.197V181.84H183.624ZM194.194 188.772C193.391 188.772 192.663 188.583 192.01 188.204C191.367 187.826 190.857 187.316 190.479 186.674C190.112 186.02 189.928 185.298 189.928 184.506C189.928 183.704 190.112 182.981 190.479 182.339C190.857 181.697 191.367 181.193 192.01 180.826C192.663 180.447 193.391 180.258 194.194 180.258C194.825 180.258 195.409 180.378 195.948 180.619C196.487 180.849 196.952 181.187 197.342 181.634L196.31 182.666C196.057 182.368 195.748 182.144 195.381 181.995C195.025 181.835 194.63 181.754 194.194 181.754C193.678 181.754 193.219 181.875 192.818 182.116C192.417 182.345 192.101 182.666 191.872 183.079C191.643 183.492 191.528 183.967 191.528 184.506C191.528 185.045 191.643 185.521 191.872 185.934C192.101 186.347 192.417 186.674 192.818 186.914C193.219 187.155 193.678 187.276 194.194 187.276C194.63 187.276 195.025 187.201 195.381 187.052C195.748 186.891 196.063 186.662 196.327 186.364L197.342 187.396C196.963 187.832 196.499 188.17 195.948 188.411C195.409 188.652 194.825 188.772 194.194 188.772ZM204.656 188.6V183.836C204.656 183.216 204.461 182.706 204.071 182.305C203.681 181.903 203.177 181.703 202.558 181.703C202.145 181.703 201.778 181.795 201.457 181.978C201.136 182.161 200.883 182.414 200.7 182.735C200.516 183.056 200.425 183.423 200.425 183.836L199.788 183.474C199.788 182.855 199.926 182.305 200.201 181.823C200.476 181.342 200.86 180.963 201.354 180.688C201.847 180.401 202.403 180.258 203.022 180.258C203.641 180.258 204.186 180.396 204.656 180.671C205.138 180.946 205.516 181.33 205.791 181.823C206.066 182.316 206.204 182.884 206.204 183.526V188.6H204.656ZM198.877 188.6V176.319H200.425V188.6H198.877ZM208.317 188.6V180.43H209.865V188.6H208.317ZM209.091 178.796C208.804 178.796 208.569 178.704 208.386 178.521C208.202 178.326 208.111 178.085 208.111 177.798C208.111 177.523 208.202 177.294 208.386 177.11C208.569 176.915 208.804 176.818 209.091 176.818C209.378 176.818 209.613 176.915 209.796 177.11C209.98 177.294 210.071 177.523 210.071 177.798C210.071 178.085 209.98 178.326 209.796 178.521C209.613 178.704 209.378 178.796 209.091 178.796ZM217.925 188.6V183.836C217.925 183.216 217.731 182.706 217.341 182.305C216.951 181.903 216.446 181.703 215.827 181.703C215.414 181.703 215.047 181.795 214.726 181.978C214.405 182.161 214.153 182.414 213.969 182.735C213.786 183.056 213.694 183.423 213.694 183.836L213.058 183.474C213.058 182.855 213.195 182.305 213.471 181.823C213.746 181.342 214.13 180.963 214.623 180.688C215.116 180.401 215.672 180.258 216.291 180.258C216.911 180.258 217.455 180.413 217.925 180.722C218.407 181.032 218.785 181.439 219.061 181.944C219.336 182.437 219.473 182.964 219.473 183.526V188.6H217.925ZM212.146 188.6V180.43H213.694V188.6H212.146ZM224.958 192.195C224.121 192.195 223.375 192.04 222.722 191.73C222.08 191.421 221.564 190.985 221.174 190.423L222.171 189.408C222.504 189.833 222.899 190.154 223.358 190.372C223.817 190.601 224.361 190.716 224.992 190.716C225.829 190.716 226.489 190.492 226.97 190.045C227.463 189.609 227.71 189.019 227.71 188.273V186.244L227.985 184.403L227.71 182.58V180.43H229.258V188.273C229.258 189.053 229.074 189.735 228.707 190.32C228.352 190.905 227.847 191.363 227.194 191.696C226.552 192.029 225.806 192.195 224.958 192.195ZM224.958 188.462C224.212 188.462 223.542 188.285 222.945 187.929C222.361 187.574 221.896 187.086 221.552 186.467C221.208 185.837 221.036 185.131 221.036 184.352C221.036 183.572 221.208 182.878 221.552 182.27C221.896 181.651 222.361 181.164 222.945 180.808C223.542 180.441 224.212 180.258 224.958 180.258C225.6 180.258 226.167 180.384 226.661 180.636C227.154 180.889 227.543 181.244 227.83 181.703C228.128 182.15 228.289 182.677 228.312 183.285V185.452C228.277 186.049 228.111 186.576 227.813 187.035C227.526 187.482 227.136 187.832 226.643 188.084C226.15 188.336 225.588 188.462 224.958 188.462ZM225.267 187C225.772 187 226.213 186.891 226.592 186.674C226.982 186.456 227.28 186.152 227.486 185.762C227.693 185.361 227.796 184.896 227.796 184.369C227.796 183.841 227.687 183.383 227.469 182.993C227.263 182.591 226.97 182.282 226.592 182.064C226.213 181.835 225.766 181.72 225.25 181.72C224.734 181.72 224.281 181.835 223.891 182.064C223.501 182.282 223.192 182.591 222.963 182.993C222.745 183.383 222.636 183.836 222.636 184.352C222.636 184.868 222.745 185.326 222.963 185.728C223.192 186.129 223.501 186.444 223.891 186.674C224.293 186.891 224.751 187 225.267 187ZM238.702 188.772C237.762 188.772 236.959 188.6 236.294 188.256C235.629 187.912 235.039 187.413 234.523 186.76L235.624 185.659C236.002 186.186 236.438 186.588 236.931 186.863C237.424 187.127 238.032 187.258 238.754 187.258C239.465 187.258 240.033 187.104 240.457 186.794C240.893 186.484 241.11 186.06 241.11 185.521C241.11 185.074 241.007 184.713 240.801 184.438C240.594 184.162 240.313 183.939 239.958 183.767C239.614 183.583 239.236 183.423 238.823 183.285C238.41 183.136 237.997 182.981 237.584 182.821C237.172 182.649 236.793 182.442 236.449 182.202C236.105 181.949 235.824 181.623 235.606 181.221C235.4 180.82 235.297 180.315 235.297 179.708C235.297 179.031 235.457 178.458 235.778 177.988C236.111 177.506 236.558 177.139 237.12 176.887C237.693 176.623 238.335 176.491 239.046 176.491C239.826 176.491 240.526 176.646 241.145 176.956C241.764 177.254 242.269 177.649 242.658 178.142L241.558 179.243C241.202 178.83 240.818 178.521 240.405 178.314C240.004 178.108 239.539 178.005 239.012 178.005C238.37 178.005 237.86 178.148 237.481 178.435C237.103 178.71 236.914 179.1 236.914 179.604C236.914 180.006 237.017 180.333 237.223 180.585C237.441 180.826 237.722 181.032 238.066 181.204C238.41 181.376 238.788 181.537 239.201 181.686C239.625 181.823 240.044 181.978 240.457 182.15C240.87 182.322 241.248 182.54 241.592 182.804C241.936 183.067 242.211 183.411 242.418 183.836C242.635 184.248 242.744 184.77 242.744 185.401C242.744 186.456 242.377 187.281 241.644 187.878C240.921 188.474 239.941 188.772 238.702 188.772ZM245.904 188.6V177.007H247.452V188.6H245.904ZM243.891 181.84V180.43H249.464V181.84H243.891ZM254.203 188.772C253.458 188.772 252.781 188.589 252.174 188.222C251.566 187.843 251.084 187.333 250.729 186.691C250.385 186.049 250.213 185.326 250.213 184.524C250.213 183.721 250.385 182.999 250.729 182.356C251.084 181.714 251.56 181.204 252.156 180.826C252.764 180.447 253.446 180.258 254.203 180.258C254.822 180.258 255.373 180.39 255.854 180.654C256.347 180.906 256.743 181.261 257.041 181.72C257.339 182.167 257.506 182.689 257.54 183.285V185.745C257.506 186.33 257.339 186.851 257.041 187.31C256.754 187.769 256.365 188.13 255.872 188.394C255.39 188.646 254.834 188.772 254.203 188.772ZM254.461 187.31C255.229 187.31 255.849 187.052 256.319 186.536C256.789 186.009 257.024 185.338 257.024 184.524C257.024 183.962 256.915 183.474 256.697 183.062C256.491 182.637 256.193 182.311 255.803 182.081C255.413 181.84 254.96 181.72 254.444 181.72C253.928 181.72 253.469 181.84 253.068 182.081C252.678 182.322 252.368 182.655 252.139 183.079C251.921 183.492 251.812 183.967 251.812 184.506C251.812 185.057 251.921 185.544 252.139 185.968C252.368 186.381 252.684 186.708 253.085 186.949C253.486 187.19 253.945 187.31 254.461 187.31ZM256.921 188.6V186.398L257.213 184.403L256.921 182.425V180.43H258.486V188.6H256.921ZM261.962 188.6V177.007H263.51V188.6H261.962ZM259.949 181.84V180.43H265.522V181.84H259.949ZM270.324 188.772C269.659 188.772 269.057 188.623 268.518 188.325C267.99 188.015 267.577 187.591 267.279 187.052C266.981 186.513 266.832 185.888 266.832 185.177V180.43H268.38V185.108C268.38 185.556 268.455 185.945 268.604 186.278C268.764 186.599 268.994 186.846 269.292 187.018C269.59 187.19 269.94 187.276 270.341 187.276C270.949 187.276 271.424 187.086 271.768 186.708C272.112 186.318 272.284 185.785 272.284 185.108V180.43H273.832V185.177C273.832 185.888 273.683 186.513 273.385 187.052C273.087 187.591 272.674 188.015 272.147 188.325C271.631 188.623 271.023 188.772 270.324 188.772ZM278.504 188.772C278.046 188.772 277.61 188.715 277.197 188.6C276.796 188.474 276.423 188.302 276.079 188.084C275.735 187.855 275.437 187.585 275.185 187.276L276.182 186.278C276.481 186.645 276.825 186.92 277.214 187.104C277.604 187.276 278.04 187.362 278.522 187.362C279.003 187.362 279.376 187.281 279.64 187.121C279.903 186.949 280.035 186.714 280.035 186.416C280.035 186.117 279.926 185.888 279.708 185.728C279.502 185.556 279.233 185.418 278.9 185.315C278.568 185.2 278.212 185.091 277.834 184.988C277.467 184.873 277.117 184.73 276.784 184.558C276.452 184.386 276.177 184.151 275.959 183.853C275.752 183.555 275.649 183.159 275.649 182.666C275.649 182.173 275.77 181.749 276.01 181.393C276.251 181.026 276.584 180.745 277.008 180.55C277.444 180.355 277.966 180.258 278.573 180.258C279.215 180.258 279.783 180.373 280.276 180.602C280.781 180.82 281.193 181.152 281.514 181.6L280.517 182.597C280.288 182.299 280.001 182.07 279.657 181.909C279.324 181.749 278.946 181.668 278.522 181.668C278.074 181.668 277.73 181.749 277.49 181.909C277.26 182.058 277.146 182.27 277.146 182.546C277.146 182.821 277.249 183.033 277.455 183.182C277.662 183.331 277.931 183.457 278.264 183.56C278.608 183.664 278.963 183.773 279.33 183.887C279.697 183.99 280.047 184.134 280.379 184.317C280.712 184.501 280.981 184.747 281.188 185.057C281.406 185.366 281.514 185.773 281.514 186.278C281.514 187.046 281.239 187.654 280.689 188.101C280.15 188.548 279.422 188.772 278.504 188.772Z" fill="#188847"/>
<rect x="344.6" y="175.72" width="61.92" height="13.76" rx="6.88" fill="#D9D9D9"/>
<mask id="path-23-inside-7_1751_1427" fill="white">
<path d="M35 203.92H465V246.56H35V203.92Z"/>
</mask>
<path d="M465 246.56V244.84H35V246.56V248.28H465V246.56Z" fill="#D5D9DC" mask="url(#path-23-inside-7_1751_1427)"/>
<mask id="path-25-inside-8_1751_1427" fill="white">
<path d="M35 203.92H138.2V246.56H35V203.92Z"/>
</mask>
<path d="M138.2 203.92H136.48V246.56H138.2H139.92V203.92H138.2Z" fill="#D5D9DC" mask="url(#path-25-inside-8_1751_1427)"/>
<rect x="52.2" y="218.36" width="49.88" height="13.76" rx="6.88" fill="#D9D9D9"/>
<mask id="path-28-inside-9_1751_1427" fill="white">
<path d="M138.2 203.92H327.4V246.56H138.2V203.92Z"/>
</mask>
<path d="M327.4 203.92H325.68V246.56H327.4H329.12V203.92H327.4Z" fill="#D5D9DC" mask="url(#path-28-inside-9_1751_1427)"/>
<rect x="155.4" y="210.8" width="139.88" height="28.88" rx="3.44" fill="#FBF0D7"/>
<path d="M163.57 231.412C162.63 231.412 161.827 231.24 161.162 230.896C160.497 230.552 159.906 230.053 159.39 229.4L160.491 228.299C160.87 228.826 161.305 229.228 161.798 229.503C162.291 229.767 162.899 229.898 163.622 229.898C164.332 229.898 164.9 229.744 165.324 229.434C165.76 229.124 165.978 228.7 165.978 228.161C165.978 227.714 165.875 227.353 165.668 227.078C165.462 226.802 165.181 226.579 164.826 226.407C164.482 226.223 164.103 226.063 163.69 225.925C163.278 225.776 162.865 225.621 162.452 225.461C162.039 225.289 161.661 225.082 161.317 224.842C160.973 224.589 160.692 224.263 160.474 223.861C160.268 223.46 160.164 222.955 160.164 222.348C160.164 221.671 160.325 221.098 160.646 220.628C160.978 220.146 161.426 219.779 161.988 219.527C162.561 219.263 163.203 219.131 163.914 219.131C164.694 219.131 165.393 219.286 166.012 219.596C166.632 219.894 167.136 220.289 167.526 220.782L166.425 221.883C166.07 221.47 165.686 221.161 165.273 220.954C164.871 220.748 164.407 220.645 163.88 220.645C163.237 220.645 162.727 220.788 162.349 221.075C161.97 221.35 161.781 221.74 161.781 222.244C161.781 222.646 161.884 222.973 162.091 223.225C162.309 223.466 162.59 223.672 162.934 223.844C163.278 224.016 163.656 224.177 164.069 224.326C164.493 224.463 164.912 224.618 165.324 224.79C165.737 224.962 166.116 225.18 166.46 225.444C166.804 225.707 167.079 226.051 167.285 226.476C167.503 226.888 167.612 227.41 167.612 228.041C167.612 229.096 167.245 229.921 166.511 230.518C165.789 231.114 164.808 231.412 163.57 231.412ZM172.801 231.412C172.136 231.412 171.534 231.263 170.995 230.965C170.468 230.655 170.055 230.231 169.757 229.692C169.458 229.153 169.309 228.528 169.309 227.817V223.07H170.857V227.748C170.857 228.196 170.932 228.585 171.081 228.918C171.242 229.239 171.471 229.486 171.769 229.658C172.067 229.83 172.417 229.916 172.818 229.916C173.426 229.916 173.902 229.726 174.246 229.348C174.59 228.958 174.762 228.425 174.762 227.748V223.07H176.31V227.817C176.31 228.528 176.161 229.153 175.863 229.692C175.564 230.231 175.152 230.655 174.624 230.965C174.108 231.263 173.5 231.412 172.801 231.412ZM181.773 234.835C180.936 234.835 180.191 234.68 179.537 234.37C178.895 234.061 178.379 233.625 177.989 233.063L178.987 232.048C179.319 232.473 179.715 232.794 180.173 233.012C180.632 233.241 181.177 233.356 181.807 233.356C182.644 233.356 183.304 233.132 183.785 232.685C184.278 232.249 184.525 231.659 184.525 230.913V228.884L184.8 227.043L184.525 225.22V223.07H186.073V230.913C186.073 231.693 185.889 232.375 185.523 232.96C185.167 233.545 184.663 234.003 184.009 234.336C183.367 234.669 182.621 234.835 181.773 234.835ZM181.773 231.102C181.028 231.102 180.357 230.925 179.761 230.569C179.176 230.214 178.711 229.726 178.367 229.107C178.023 228.477 177.851 227.771 177.851 226.992C177.851 226.212 178.023 225.518 178.367 224.91C178.711 224.291 179.176 223.804 179.761 223.448C180.357 223.081 181.028 222.898 181.773 222.898C182.415 222.898 182.983 223.024 183.476 223.276C183.969 223.529 184.359 223.884 184.645 224.343C184.943 224.79 185.104 225.317 185.127 225.925V228.092C185.093 228.689 184.926 229.216 184.628 229.675C184.341 230.122 183.952 230.472 183.459 230.724C182.965 230.976 182.404 231.102 181.773 231.102ZM182.083 229.64C182.587 229.64 183.029 229.531 183.407 229.314C183.797 229.096 184.095 228.792 184.301 228.402C184.508 228.001 184.611 227.536 184.611 227.009C184.611 226.481 184.502 226.023 184.284 225.633C184.078 225.231 183.785 224.922 183.407 224.704C183.029 224.475 182.581 224.36 182.065 224.36C181.549 224.36 181.096 224.475 180.707 224.704C180.317 224.922 180.007 225.231 179.778 225.633C179.56 226.023 179.451 226.476 179.451 226.992C179.451 227.508 179.56 227.966 179.778 228.368C180.007 228.769 180.317 229.084 180.707 229.314C181.108 229.531 181.567 229.64 182.083 229.64ZM191.733 234.835C190.896 234.835 190.151 234.68 189.497 234.37C188.855 234.061 188.339 233.625 187.949 233.063L188.947 232.048C189.28 232.473 189.675 232.794 190.134 233.012C190.593 233.241 191.137 233.356 191.768 233.356C192.605 233.356 193.264 233.132 193.746 232.685C194.239 232.249 194.485 231.659 194.485 230.913V228.884L194.761 227.043L194.485 225.22V223.07H196.033V230.913C196.033 231.693 195.85 232.375 195.483 232.96C195.128 233.545 194.623 234.003 193.969 234.336C193.327 234.669 192.582 234.835 191.733 234.835ZM191.733 231.102C190.988 231.102 190.317 230.925 189.721 230.569C189.136 230.214 188.672 229.726 188.328 229.107C187.984 228.477 187.812 227.771 187.812 226.992C187.812 226.212 187.984 225.518 188.328 224.91C188.672 224.291 189.136 223.804 189.721 223.448C190.317 223.081 190.988 222.898 191.733 222.898C192.376 222.898 192.943 223.024 193.436 223.276C193.929 223.529 194.319 223.884 194.606 224.343C194.904 224.79 195.065 225.317 195.087 225.925V228.092C195.053 228.689 194.887 229.216 194.589 229.675C194.302 230.122 193.912 230.472 193.419 230.724C192.926 230.976 192.364 231.102 191.733 231.102ZM192.043 229.64C192.548 229.64 192.989 229.531 193.367 229.314C193.757 229.096 194.055 228.792 194.262 228.402C194.468 228.001 194.571 227.536 194.571 227.009C194.571 226.481 194.463 226.023 194.245 225.633C194.038 225.231 193.746 224.922 193.367 224.704C192.989 224.475 192.542 224.36 192.026 224.36C191.51 224.36 191.057 224.475 190.667 224.704C190.277 224.922 189.968 225.231 189.738 225.633C189.52 226.023 189.411 226.476 189.411 226.992C189.411 227.508 189.52 227.966 189.738 228.368C189.968 228.769 190.277 229.084 190.667 229.314C191.068 229.531 191.527 229.64 192.043 229.64ZM202.09 231.412C201.276 231.412 200.542 231.229 199.888 230.862C199.234 230.483 198.718 229.973 198.34 229.331C197.962 228.689 197.772 227.961 197.772 227.146C197.772 226.344 197.956 225.621 198.323 224.979C198.701 224.337 199.206 223.833 199.836 223.466C200.479 223.087 201.195 222.898 201.986 222.898C202.743 222.898 203.408 223.07 203.982 223.414C204.566 223.758 205.019 224.234 205.34 224.842C205.673 225.449 205.839 226.137 205.839 226.906C205.839 227.02 205.834 227.146 205.822 227.284C205.811 227.41 205.788 227.559 205.753 227.731H198.856V226.441H204.928L204.36 226.94C204.36 226.39 204.263 225.925 204.068 225.547C203.873 225.157 203.598 224.859 203.242 224.652C202.887 224.435 202.457 224.326 201.952 224.326C201.425 224.326 200.96 224.44 200.559 224.67C200.158 224.899 199.848 225.22 199.63 225.633C199.412 226.046 199.303 226.533 199.303 227.095C199.303 227.668 199.418 228.173 199.647 228.608C199.877 229.033 200.203 229.365 200.628 229.606C201.052 229.835 201.539 229.95 202.09 229.95C202.548 229.95 202.967 229.87 203.345 229.709C203.735 229.549 204.068 229.308 204.343 228.987L205.34 230.002C204.951 230.46 204.469 230.81 203.896 231.051C203.334 231.292 202.732 231.412 202.09 231.412ZM210.124 231.412C209.666 231.412 209.23 231.355 208.817 231.24C208.416 231.114 208.043 230.942 207.699 230.724C207.355 230.495 207.057 230.225 206.805 229.916L207.802 228.918C208.1 229.285 208.444 229.56 208.834 229.744C209.224 229.916 209.66 230.002 210.142 230.002C210.623 230.002 210.996 229.921 211.26 229.761C211.523 229.589 211.655 229.354 211.655 229.056C211.655 228.757 211.546 228.528 211.328 228.368C211.122 228.196 210.852 228.058 210.52 227.955C210.187 227.84 209.832 227.731 209.454 227.628C209.087 227.513 208.737 227.37 208.404 227.198C208.072 227.026 207.797 226.791 207.579 226.493C207.372 226.195 207.269 225.799 207.269 225.306C207.269 224.813 207.39 224.389 207.63 224.033C207.871 223.666 208.204 223.385 208.628 223.19C209.064 222.995 209.585 222.898 210.193 222.898C210.835 222.898 211.403 223.013 211.896 223.242C212.4 223.46 212.813 223.792 213.134 224.24L212.137 225.237C211.907 224.939 211.621 224.71 211.277 224.549C210.944 224.389 210.566 224.308 210.142 224.308C209.694 224.308 209.35 224.389 209.11 224.549C208.88 224.698 208.766 224.91 208.766 225.186C208.766 225.461 208.869 225.673 209.075 225.822C209.282 225.971 209.551 226.097 209.884 226.2C210.228 226.304 210.583 226.413 210.95 226.527C211.317 226.63 211.667 226.774 211.999 226.957C212.332 227.141 212.601 227.387 212.808 227.697C213.025 228.006 213.134 228.413 213.134 228.918C213.134 229.686 212.859 230.294 212.309 230.741C211.77 231.188 211.042 231.412 210.124 231.412ZM216.123 231.24V219.647H217.671V231.24H216.123ZM214.111 224.48V223.07H219.683V224.48H214.111ZM224.732 231.412C223.918 231.412 223.184 231.229 222.53 230.862C221.877 230.483 221.361 229.973 220.982 229.331C220.604 228.689 220.415 227.961 220.415 227.146C220.415 226.344 220.598 225.621 220.965 224.979C221.343 224.337 221.848 223.833 222.479 223.466C223.121 223.087 223.837 222.898 224.629 222.898C225.385 222.898 226.05 223.07 226.624 223.414C227.209 223.758 227.662 224.234 227.983 224.842C228.315 225.449 228.481 226.137 228.481 226.906C228.481 227.02 228.476 227.146 228.464 227.284C228.453 227.41 228.43 227.559 228.395 227.731H221.498V226.441H227.57L227.002 226.94C227.002 226.39 226.905 225.925 226.71 225.547C226.515 225.157 226.24 224.859 225.884 224.652C225.529 224.435 225.099 224.326 224.594 224.326C224.067 224.326 223.602 224.44 223.201 224.67C222.8 224.899 222.49 225.22 222.272 225.633C222.054 226.046 221.945 226.533 221.945 227.095C221.945 227.668 222.06 228.173 222.289 228.608C222.519 229.033 222.846 229.365 223.27 229.606C223.694 229.835 224.181 229.95 224.732 229.95C225.19 229.95 225.609 229.87 225.987 229.709C226.377 229.549 226.71 229.308 226.985 228.987L227.983 230.002C227.593 230.46 227.111 230.81 226.538 231.051C225.976 231.292 225.374 231.412 224.732 231.412ZM233.627 231.412C232.87 231.412 232.193 231.229 231.597 230.862C231.001 230.483 230.525 229.973 230.169 229.331C229.825 228.689 229.653 227.966 229.653 227.164C229.653 226.361 229.825 225.639 230.169 224.996C230.525 224.354 231.001 223.844 231.597 223.466C232.193 223.087 232.87 222.898 233.627 222.898C234.234 222.898 234.785 223.03 235.278 223.294C235.771 223.546 236.166 223.901 236.465 224.36C236.774 224.807 236.946 225.329 236.981 225.925V228.385C236.946 228.97 236.78 229.491 236.482 229.95C236.184 230.409 235.788 230.77 235.295 231.034C234.802 231.286 234.246 231.412 233.627 231.412ZM233.885 229.95C234.401 229.95 234.848 229.83 235.226 229.589C235.616 229.348 235.92 229.021 236.138 228.608C236.356 228.184 236.465 227.703 236.465 227.164C236.465 226.602 236.35 226.114 236.121 225.702C235.903 225.289 235.599 224.962 235.209 224.721C234.831 224.48 234.383 224.36 233.867 224.36C233.351 224.36 232.898 224.48 232.509 224.721C232.119 224.962 231.809 225.295 231.58 225.719C231.362 226.132 231.253 226.607 231.253 227.146C231.253 227.697 231.362 228.184 231.58 228.608C231.809 229.021 232.119 229.348 232.509 229.589C232.91 229.83 233.369 229.95 233.885 229.95ZM237.927 231.24H236.361V229.038L236.654 227.043L236.361 225.065V218.959H237.927V231.24ZM244.033 231.24V219.303H245.168L250.225 227.611H249.451L254.508 219.303H255.643V231.24H254.026V222.141L254.405 222.244L250.414 228.798H249.279L245.289 222.244L245.65 222.141V231.24H244.033ZM261.661 231.412C260.916 231.412 260.239 231.229 259.631 230.862C259.024 230.483 258.542 229.973 258.187 229.331C257.843 228.689 257.671 227.966 257.671 227.164C257.671 226.361 257.843 225.639 258.187 224.996C258.542 224.354 259.018 223.844 259.614 223.466C260.222 223.087 260.904 222.898 261.661 222.898C262.28 222.898 262.831 223.03 263.312 223.294C263.805 223.546 264.201 223.901 264.499 224.36C264.797 224.807 264.963 225.329 264.998 225.925V228.385C264.963 228.97 264.797 229.491 264.499 229.95C264.212 230.409 263.822 230.77 263.329 231.034C262.848 231.286 262.292 231.412 261.661 231.412ZM261.919 229.95C262.687 229.95 263.306 229.692 263.777 229.176C264.247 228.649 264.482 227.978 264.482 227.164C264.482 226.602 264.373 226.114 264.155 225.702C263.949 225.277 263.65 224.951 263.261 224.721C262.871 224.48 262.418 224.36 261.902 224.36C261.386 224.36 260.927 224.48 260.526 224.721C260.136 224.962 259.826 225.295 259.597 225.719C259.379 226.132 259.27 226.607 259.27 227.146C259.27 227.697 259.379 228.184 259.597 228.608C259.826 229.021 260.142 229.348 260.543 229.589C260.944 229.83 261.403 229.95 261.919 229.95ZM264.379 231.24V229.038L264.671 227.043L264.379 225.065V223.07H265.944V231.24H264.379ZM269.419 231.24V219.647H270.967V231.24H269.419ZM267.407 224.48V223.07H272.98V224.48H267.407ZM277.977 231.412C277.174 231.412 276.446 231.223 275.792 230.844C275.15 230.466 274.64 229.956 274.262 229.314C273.895 228.66 273.711 227.938 273.711 227.146C273.711 226.344 273.895 225.621 274.262 224.979C274.64 224.337 275.15 223.833 275.792 223.466C276.446 223.087 277.174 222.898 277.977 222.898C278.607 222.898 279.192 223.018 279.731 223.259C280.27 223.489 280.734 223.827 281.124 224.274L280.092 225.306C279.84 225.008 279.53 224.784 279.164 224.635C278.808 224.475 278.412 224.394 277.977 224.394C277.461 224.394 277.002 224.515 276.601 224.756C276.199 224.985 275.884 225.306 275.655 225.719C275.425 226.132 275.311 226.607 275.311 227.146C275.311 227.685 275.425 228.161 275.655 228.574C275.884 228.987 276.199 229.314 276.601 229.554C277.002 229.795 277.461 229.916 277.977 229.916C278.412 229.916 278.808 229.841 279.164 229.692C279.53 229.531 279.846 229.302 280.11 229.004L281.124 230.036C280.746 230.472 280.282 230.81 279.731 231.051C279.192 231.292 278.607 231.412 277.977 231.412ZM288.439 231.24V226.476C288.439 225.856 288.244 225.346 287.854 224.945C287.464 224.543 286.96 224.343 286.34 224.343C285.928 224.343 285.561 224.435 285.24 224.618C284.918 224.801 284.666 225.054 284.483 225.375C284.299 225.696 284.208 226.063 284.208 226.476L283.571 226.114C283.571 225.495 283.709 224.945 283.984 224.463C284.259 223.982 284.643 223.603 285.136 223.328C285.629 223.041 286.186 222.898 286.805 222.898C287.424 222.898 287.969 223.036 288.439 223.311C288.92 223.586 289.299 223.97 289.574 224.463C289.849 224.956 289.987 225.524 289.987 226.166V231.24H288.439ZM282.66 231.24V218.959H284.208V231.24H282.66Z" fill="#7B5605"/>
<rect x="344.6" y="218.36" width="61.92" height="13.76" rx="6.88" fill="#D9D9D9"/>
<mask id="path-33-inside-10_1751_1427" fill="white">
<path d="M35 246.56H465V289.2H35V246.56Z"/>
</mask>
<path d="M465 289.2V287.48H35V289.2V290.92H465V289.2Z" fill="#D5D9DC" mask="url(#path-33-inside-10_1751_1427)"/>
<mask id="path-35-inside-11_1751_1427" fill="white">
<path d="M35 246.56H138.2V289.2H35V246.56Z"/>
</mask>
<path d="M138.2 246.56H136.48V289.2H138.2H139.92V246.56H138.2Z" fill="#D5D9DC" mask="url(#path-35-inside-11_1751_1427)"/>
<rect x="52.2" y="261" width="49.88" height="13.76" rx="6.88" fill="#D9D9D9"/>
<mask id="path-38-inside-12_1751_1427" fill="white">
<path d="M138.2 246.56H327.4V289.2H138.2V246.56Z"/>
</mask>
<path d="M327.4 246.56H325.68V289.2H327.4H329.12V246.56H327.4Z" fill="#D5D9DC" mask="url(#path-38-inside-12_1751_1427)"/>
<rect x="155.4" y="253.44" width="102.88" height="28.88" rx="3.44" fill="#CFF3DF"/>
<path d="M160.25 273.88V261.943H161.867V273.88H160.25ZM161.351 273.88V272.401H168.197V273.88H161.351ZM161.351 268.479V267.069H167.629V268.479H161.351ZM161.351 263.423V261.943H168.111V263.423H161.351ZM175.487 273.88L172.941 270.303L172.649 270.027L169.432 265.71H171.307L173.629 268.892L173.922 269.133L177.362 273.88H175.487ZM169.278 273.88L172.649 269.339L173.526 270.475L171.101 273.88H169.278ZM174.042 270.01L173.148 268.909L175.401 265.71H177.207L174.042 270.01ZM182.01 274.052C181.265 274.052 180.588 273.869 179.981 273.502C179.373 273.123 178.891 272.613 178.536 271.971C178.192 271.329 178.02 270.606 178.02 269.804C178.02 269.001 178.192 268.279 178.536 267.637C178.891 266.994 179.367 266.484 179.963 266.106C180.571 265.727 181.253 265.538 182.01 265.538C182.629 265.538 183.18 265.67 183.661 265.934C184.154 266.186 184.55 266.541 184.848 267C185.146 267.447 185.313 267.969 185.347 268.565V271.025C185.313 271.61 185.146 272.131 184.848 272.59C184.561 273.049 184.172 273.41 183.679 273.674C183.197 273.926 182.641 274.052 182.01 274.052ZM182.268 272.59C183.036 272.59 183.656 272.332 184.126 271.816C184.596 271.289 184.831 270.618 184.831 269.804C184.831 269.242 184.722 268.755 184.504 268.342C184.298 267.917 184 267.591 183.61 267.361C183.22 267.121 182.767 267 182.251 267C181.735 267 181.276 267.121 180.875 267.361C180.485 267.602 180.175 267.935 179.946 268.359C179.728 268.772 179.619 269.248 179.619 269.787C179.619 270.337 179.728 270.824 179.946 271.249C180.175 271.661 180.491 271.988 180.892 272.229C181.293 272.47 181.752 272.59 182.268 272.59ZM184.728 273.88V271.679L185.02 269.683L184.728 267.705V265.71H186.293V273.88H184.728ZM192.279 274.052C191.476 274.052 190.748 273.863 190.095 273.485C189.453 273.106 188.942 272.596 188.564 271.954C188.197 271.3 188.013 270.578 188.013 269.787C188.013 268.984 188.197 268.261 188.564 267.619C188.942 266.977 189.453 266.473 190.095 266.106C190.748 265.727 191.476 265.538 192.279 265.538C192.91 265.538 193.495 265.659 194.033 265.899C194.572 266.129 195.037 266.467 195.427 266.914L194.395 267.946C194.142 267.648 193.833 267.424 193.466 267.275C193.11 267.115 192.715 267.035 192.279 267.035C191.763 267.035 191.304 267.155 190.903 267.396C190.502 267.625 190.186 267.946 189.957 268.359C189.728 268.772 189.613 269.248 189.613 269.787C189.613 270.325 189.728 270.801 189.957 271.214C190.186 271.627 190.502 271.954 190.903 272.195C191.304 272.435 191.763 272.556 192.279 272.556C192.715 272.556 193.11 272.481 193.466 272.332C193.833 272.172 194.148 271.942 194.412 271.644L195.427 272.676C195.048 273.112 194.584 273.45 194.033 273.691C193.495 273.932 192.91 274.052 192.279 274.052ZM198.117 273.88V262.287H199.665V273.88H198.117ZM196.104 267.121V265.71H201.677V267.121H196.104ZM207.046 273.88V261.943H208.182L213.238 270.251H212.464L217.521 261.943H218.656V273.88H217.04V264.781L217.418 264.885L213.428 271.438H212.292L208.302 264.885L208.663 264.781V273.88H207.046ZM224.674 274.052C223.929 274.052 223.252 273.869 222.645 273.502C222.037 273.123 221.555 272.613 221.2 271.971C220.856 271.329 220.684 270.606 220.684 269.804C220.684 269.001 220.856 268.279 221.2 267.637C221.555 266.994 222.031 266.484 222.627 266.106C223.235 265.727 223.917 265.538 224.674 265.538C225.293 265.538 225.844 265.67 226.325 265.934C226.818 266.186 227.214 266.541 227.512 267C227.81 267.447 227.977 267.969 228.011 268.565V271.025C227.977 271.61 227.81 272.131 227.512 272.59C227.226 273.049 226.836 273.41 226.343 273.674C225.861 273.926 225.305 274.052 224.674 274.052ZM224.932 272.59C225.7 272.59 226.32 272.332 226.79 271.816C227.26 271.289 227.495 270.618 227.495 269.804C227.495 269.242 227.386 268.755 227.168 268.342C226.962 267.917 226.664 267.591 226.274 267.361C225.884 267.121 225.431 267 224.915 267C224.399 267 223.94 267.121 223.539 267.361C223.149 267.602 222.84 267.935 222.61 268.359C222.392 268.772 222.283 269.248 222.283 269.787C222.283 270.337 222.392 270.824 222.61 271.249C222.84 271.661 223.155 271.988 223.556 272.229C223.958 272.47 224.416 272.59 224.932 272.59ZM227.392 273.88V271.679L227.684 269.683L227.392 267.705V265.71H228.957V273.88H227.392ZM232.433 273.88V262.287H233.981V273.88H232.433ZM230.42 267.121V265.71H235.993V267.121H230.42ZM240.99 274.052C240.187 274.052 239.459 273.863 238.806 273.485C238.163 273.106 237.653 272.596 237.275 271.954C236.908 271.3 236.724 270.578 236.724 269.787C236.724 268.984 236.908 268.261 237.275 267.619C237.653 266.977 238.163 266.473 238.806 266.106C239.459 265.727 240.187 265.538 240.99 265.538C241.621 265.538 242.205 265.659 242.744 265.899C243.283 266.129 243.748 266.467 244.138 266.914L243.106 267.946C242.853 267.648 242.544 267.424 242.177 267.275C241.821 267.115 241.426 267.035 240.99 267.035C240.474 267.035 240.015 267.155 239.614 267.396C239.213 267.625 238.897 267.946 238.668 268.359C238.439 268.772 238.324 269.248 238.324 269.787C238.324 270.325 238.439 270.801 238.668 271.214C238.897 271.627 239.213 271.954 239.614 272.195C240.015 272.435 240.474 272.556 240.99 272.556C241.426 272.556 241.821 272.481 242.177 272.332C242.544 272.172 242.859 271.942 243.123 271.644L244.138 272.676C243.759 273.112 243.295 273.45 242.744 273.691C242.205 273.932 241.621 274.052 240.99 274.052ZM251.452 273.88V269.116C251.452 268.497 251.257 267.986 250.867 267.585C250.477 267.184 249.973 266.983 249.354 266.983C248.941 266.983 248.574 267.075 248.253 267.258C247.932 267.442 247.679 267.694 247.496 268.015C247.313 268.336 247.221 268.703 247.221 269.116L246.584 268.755C246.584 268.135 246.722 267.585 246.997 267.103C247.272 266.622 247.657 266.243 248.15 265.968C248.643 265.681 249.199 265.538 249.818 265.538C250.437 265.538 250.982 265.676 251.452 265.951C251.934 266.226 252.312 266.61 252.587 267.103C252.862 267.596 253 268.164 253 268.806V273.88H251.452ZM245.673 273.88V261.599H247.221V273.88H245.673Z" fill="#188847"/>
<rect x="344.6" y="261" width="73.96" height="13.76" rx="6.88" fill="#D9D9D9"/>
<mask id="path-43-inside-13_1751_1427" fill="white">
<path d="M35 289.2H465V331.84H35V289.2Z"/>
</mask>
<path d="M465 331.84V330.12H35V331.84V333.56H465V331.84Z" fill="#D5D9DC" mask="url(#path-43-inside-13_1751_1427)"/>
<mask id="path-45-inside-14_1751_1427" fill="white">
<path d="M35 289.2H138.2V331.84H35V289.2Z"/>
</mask>
<path d="M138.2 289.2H136.48V331.84H138.2H139.92V289.2H138.2Z" fill="#D5D9DC" mask="url(#path-45-inside-14_1751_1427)"/>
<rect x="52.2" y="303.64" width="49.88" height="13.76" rx="6.88" fill="#D9D9D9"/>
<mask id="path-48-inside-15_1751_1427" fill="white">
<path d="M138.2 289.2H326.48V331.84H138.2V289.2Z"/>
</mask>
<path d="M326.48 289.2H324.76V331.84H326.48H328.2V289.2H326.48Z" fill="#D5D9DC" mask="url(#path-48-inside-15_1751_1427)"/>
<rect x="155.4" y="296.08" width="153.88" height="28.88" rx="3.44" fill="#FEC2CA"/>
<path d="M160.25 316.52V304.583H161.386L166.442 312.891H165.668L170.725 304.583H171.86V316.52H170.244V307.421L170.622 307.524L166.632 314.077H165.496L161.506 307.524L161.867 307.421V316.52H160.25ZM174.421 316.52V308.35H175.969V316.52H174.421ZM175.195 306.716C174.908 306.716 174.673 306.624 174.49 306.441C174.306 306.246 174.214 306.005 174.214 305.718C174.214 305.443 174.306 305.214 174.49 305.03C174.673 304.835 174.908 304.738 175.195 304.738C175.482 304.738 175.717 304.835 175.9 305.03C176.084 305.214 176.175 305.443 176.175 305.718C176.175 306.005 176.084 306.246 175.9 306.441C175.717 306.624 175.482 306.716 175.195 306.716ZM180.847 316.692C180.389 316.692 179.953 316.635 179.54 316.52C179.139 316.394 178.766 316.222 178.422 316.004C178.078 315.775 177.78 315.505 177.528 315.195L178.525 314.198C178.824 314.565 179.168 314.84 179.557 315.023C179.947 315.195 180.383 315.281 180.865 315.281C181.346 315.281 181.719 315.201 181.983 315.041C182.246 314.869 182.378 314.634 182.378 314.335C182.378 314.037 182.269 313.808 182.051 313.647C181.845 313.475 181.576 313.338 181.243 313.235C180.91 313.12 180.555 313.011 180.177 312.908C179.81 312.793 179.46 312.65 179.127 312.478C178.795 312.306 178.52 312.071 178.302 311.773C178.095 311.475 177.992 311.079 177.992 310.586C177.992 310.093 178.113 309.669 178.353 309.313C178.594 308.946 178.927 308.665 179.351 308.47C179.787 308.275 180.308 308.178 180.916 308.178C181.558 308.178 182.126 308.293 182.619 308.522C183.124 308.74 183.536 309.072 183.857 309.519L182.86 310.517C182.63 310.219 182.344 309.99 182 309.829C181.667 309.669 181.289 309.588 180.865 309.588C180.417 309.588 180.073 309.669 179.833 309.829C179.603 309.978 179.489 310.19 179.489 310.465C179.489 310.741 179.592 310.953 179.798 311.102C180.005 311.251 180.274 311.377 180.607 311.48C180.951 311.583 181.306 311.692 181.673 311.807C182.04 311.91 182.39 312.054 182.722 312.237C183.055 312.421 183.324 312.667 183.531 312.977C183.748 313.286 183.857 313.693 183.857 314.198C183.857 314.966 183.582 315.574 183.032 316.021C182.493 316.468 181.765 316.692 180.847 316.692ZM188.188 316.692C187.729 316.692 187.293 316.635 186.88 316.52C186.479 316.394 186.106 316.222 185.762 316.004C185.418 315.775 185.12 315.505 184.868 315.195L185.866 314.198C186.164 314.565 186.508 314.84 186.898 315.023C187.287 315.195 187.723 315.281 188.205 315.281C188.686 315.281 189.059 315.201 189.323 315.041C189.587 314.869 189.718 314.634 189.718 314.335C189.718 314.037 189.609 313.808 189.392 313.647C189.185 313.475 188.916 313.338 188.583 313.235C188.251 313.12 187.895 313.011 187.517 312.908C187.15 312.793 186.8 312.65 186.468 312.478C186.135 312.306 185.86 312.071 185.642 311.773C185.436 311.475 185.332 311.079 185.332 310.586C185.332 310.093 185.453 309.669 185.694 309.313C185.934 308.946 186.267 308.665 186.691 308.47C187.127 308.275 187.649 308.178 188.256 308.178C188.899 308.178 189.466 308.293 189.959 308.522C190.464 308.74 190.877 309.072 191.198 309.519L190.2 310.517C189.971 310.219 189.684 309.99 189.34 309.829C189.007 309.669 188.629 309.588 188.205 309.588C187.758 309.588 187.414 309.669 187.173 309.829C186.943 309.978 186.829 310.19 186.829 310.465C186.829 310.741 186.932 310.953 187.138 311.102C187.345 311.251 187.614 311.377 187.947 311.48C188.291 311.583 188.646 311.692 189.013 311.807C189.38 311.91 189.73 312.054 190.062 312.237C190.395 312.421 190.664 312.667 190.871 312.977C191.089 313.286 191.198 313.693 191.198 314.198C191.198 314.966 190.922 315.574 190.372 316.021C189.833 316.468 189.105 316.692 188.188 316.692ZM192.948 316.52V308.35H194.496V316.52H192.948ZM193.722 306.716C193.435 306.716 193.2 306.624 193.017 306.441C192.833 306.246 192.741 306.005 192.741 305.718C192.741 305.443 192.833 305.214 193.017 305.03C193.2 304.835 193.435 304.738 193.722 304.738C194.009 304.738 194.244 304.835 194.427 305.03C194.611 305.214 194.702 305.443 194.702 305.718C194.702 306.005 194.611 306.246 194.427 306.441C194.244 306.624 194.009 306.716 193.722 306.716ZM202.556 316.52V311.755C202.556 311.136 202.361 310.626 201.972 310.225C201.582 309.823 201.077 309.623 200.458 309.623C200.045 309.623 199.678 309.714 199.357 309.898C199.036 310.081 198.784 310.334 198.6 310.655C198.417 310.976 198.325 311.343 198.325 311.755L197.689 311.394C197.689 310.775 197.826 310.225 198.102 309.743C198.377 309.261 198.761 308.883 199.254 308.608C199.747 308.321 200.303 308.178 200.922 308.178C201.542 308.178 202.086 308.333 202.556 308.642C203.038 308.952 203.416 309.359 203.692 309.863C203.967 310.357 204.104 310.884 204.104 311.446V316.52H202.556ZM196.777 316.52V308.35H198.325V316.52H196.777ZM209.589 320.115C208.752 320.115 208.006 319.96 207.353 319.65C206.71 319.341 206.194 318.905 205.805 318.343L206.802 317.328C207.135 317.753 207.53 318.074 207.989 318.291C208.448 318.521 208.992 318.635 209.623 318.635C210.46 318.635 211.119 318.412 211.601 317.965C212.094 317.529 212.341 316.938 212.341 316.193V314.163L212.616 312.323L212.341 310.5V308.35H213.889V316.193C213.889 316.973 213.705 317.655 213.338 318.24C212.983 318.825 212.478 319.283 211.825 319.616C211.182 319.948 210.437 320.115 209.589 320.115ZM209.589 316.382C208.843 316.382 208.172 316.205 207.576 315.849C206.991 315.494 206.527 315.006 206.183 314.387C205.839 313.756 205.667 313.051 205.667 312.271C205.667 311.492 205.839 310.798 206.183 310.19C206.527 309.571 206.991 309.084 207.576 308.728C208.172 308.361 208.843 308.178 209.589 308.178C210.231 308.178 210.798 308.304 211.291 308.556C211.784 308.809 212.174 309.164 212.461 309.623C212.759 310.07 212.92 310.597 212.943 311.205V313.372C212.908 313.969 212.742 314.496 212.444 314.955C212.157 315.402 211.767 315.752 211.274 316.004C210.781 316.256 210.219 316.382 209.589 316.382ZM209.898 314.92C210.403 314.92 210.844 314.811 211.223 314.593C211.612 314.376 211.911 314.072 212.117 313.682C212.323 313.281 212.427 312.816 212.427 312.289C212.427 311.761 212.318 311.303 212.1 310.913C211.893 310.511 211.601 310.202 211.223 309.984C210.844 309.755 210.397 309.64 209.881 309.64C209.365 309.64 208.912 309.755 208.522 309.984C208.132 310.202 207.823 310.511 207.593 310.913C207.376 311.303 207.267 311.755 207.267 312.271C207.267 312.787 207.376 313.246 207.593 313.647C207.823 314.049 208.132 314.364 208.522 314.593C208.924 314.811 209.382 314.92 209.898 314.92ZM219.756 316.52V308.35H221.304V316.52H219.756ZM220.53 306.716C220.243 306.716 220.008 306.624 219.824 306.441C219.641 306.246 219.549 306.005 219.549 305.718C219.549 305.443 219.641 305.214 219.824 305.03C220.008 304.835 220.243 304.738 220.53 304.738C220.816 304.738 221.051 304.835 221.235 305.03C221.418 305.214 221.51 305.443 221.51 305.718C221.51 306.005 221.418 306.246 221.235 306.441C221.051 306.624 220.816 306.716 220.53 306.716ZM229.364 316.52V311.755C229.364 311.136 229.169 310.626 228.779 310.225C228.389 309.823 227.885 309.623 227.266 309.623C226.853 309.623 226.486 309.714 226.165 309.898C225.844 310.081 225.592 310.334 225.408 310.655C225.225 310.976 225.133 311.343 225.133 311.755L224.497 311.394C224.497 310.775 224.634 310.225 224.909 309.743C225.185 309.261 225.569 308.883 226.062 308.608C226.555 308.321 227.111 308.178 227.73 308.178C228.349 308.178 228.894 308.333 229.364 308.642C229.846 308.952 230.224 309.359 230.499 309.863C230.775 310.357 230.912 310.884 230.912 311.446V316.52H229.364ZM223.585 316.52V308.35H225.133V316.52H223.585ZM242.262 316.692C241.425 316.692 240.639 316.537 239.905 316.227C239.183 315.906 238.547 315.465 237.996 314.903C237.457 314.341 237.033 313.688 236.723 312.942C236.414 312.197 236.259 311.394 236.259 310.534C236.259 309.674 236.414 308.877 236.723 308.143C237.033 307.398 237.463 306.745 238.013 306.183C238.564 305.621 239.206 305.185 239.94 304.875C240.685 304.566 241.493 304.411 242.365 304.411C243.317 304.411 244.194 304.595 244.997 304.961C245.799 305.328 246.47 305.856 247.009 306.544L245.891 307.662C245.513 307.111 245.014 306.693 244.395 306.406C243.775 306.108 243.099 305.959 242.365 305.959C241.493 305.959 240.719 306.154 240.043 306.544C239.378 306.934 238.856 307.473 238.478 308.161C238.111 308.849 237.927 309.64 237.927 310.534C237.927 311.44 238.117 312.237 238.495 312.925C238.873 313.613 239.384 314.152 240.026 314.542C240.668 314.932 241.402 315.127 242.227 315.127C243.064 315.127 243.787 314.966 244.395 314.645C245.014 314.324 245.49 313.854 245.822 313.235C246.155 312.604 246.321 311.836 246.321 310.93L247.301 311.635H242.141V310.156H247.989V310.397C247.989 311.784 247.743 312.948 247.25 313.888C246.768 314.817 246.092 315.517 245.22 315.987C244.36 316.457 243.374 316.692 242.262 316.692ZM253.248 316.692C252.308 316.692 251.506 316.52 250.84 316.176C250.175 315.832 249.585 315.333 249.069 314.679L250.17 313.579C250.548 314.106 250.984 314.507 251.477 314.783C251.97 315.046 252.578 315.178 253.3 315.178C254.011 315.178 254.579 315.023 255.003 314.714C255.439 314.404 255.656 313.98 255.656 313.441C255.656 312.994 255.553 312.633 255.347 312.357C255.14 312.082 254.86 311.859 254.504 311.687C254.16 311.503 253.782 311.343 253.369 311.205C252.956 311.056 252.543 310.901 252.13 310.741C251.718 310.569 251.339 310.362 250.995 310.121C250.651 309.869 250.37 309.542 250.152 309.141C249.946 308.74 249.843 308.235 249.843 307.627C249.843 306.951 250.003 306.378 250.324 305.907C250.657 305.426 251.104 305.059 251.666 304.807C252.239 304.543 252.882 304.411 253.592 304.411C254.372 304.411 255.072 304.566 255.691 304.875C256.31 305.174 256.815 305.569 257.204 306.062L256.104 307.163C255.748 306.75 255.364 306.441 254.951 306.234C254.55 306.028 254.086 305.925 253.558 305.925C252.916 305.925 252.406 306.068 252.027 306.355C251.649 306.63 251.46 307.02 251.46 307.524C251.46 307.926 251.563 308.252 251.769 308.505C251.987 308.745 252.268 308.952 252.612 309.124C252.956 309.296 253.334 309.456 253.747 309.605C254.172 309.743 254.59 309.898 255.003 310.07C255.416 310.242 255.794 310.46 256.138 310.723C256.482 310.987 256.757 311.331 256.964 311.755C257.182 312.168 257.29 312.69 257.29 313.321C257.29 314.376 256.924 315.201 256.19 315.797C255.467 316.394 254.487 316.692 253.248 316.692ZM262.08 316.52V304.927H263.697V316.52H262.08ZM258.021 306.062V304.583H267.739V306.062H258.021ZM270.749 311.325V309.967H273.982C274.682 309.967 275.221 309.789 275.599 309.433C275.978 309.078 276.167 308.596 276.167 307.989C276.167 307.415 275.978 306.939 275.599 306.561C275.232 306.183 274.699 305.993 274 305.993H270.749V304.583H274.051C274.808 304.583 275.467 304.732 276.029 305.03C276.591 305.317 277.021 305.713 277.319 306.217C277.629 306.722 277.784 307.301 277.784 307.954C277.784 308.631 277.629 309.221 277.319 309.726C277.021 310.23 276.591 310.626 276.029 310.913C275.467 311.188 274.808 311.325 274.051 311.325H270.749ZM269.665 316.52V304.583H271.282V316.52H269.665ZM276.545 316.52L272.211 311.171L273.742 310.637L278.592 316.52H276.545ZM279.183 312.873V311.411H284.841V312.873H279.183ZM286.056 315.539L290.459 310.895C290.906 310.437 291.256 310.041 291.508 309.709C291.761 309.365 291.938 309.049 292.042 308.763C292.156 308.476 292.214 308.178 292.214 307.868C292.214 307.261 292.019 306.785 291.629 306.441C291.239 306.097 290.734 305.925 290.115 305.925C289.507 305.925 288.974 306.074 288.516 306.372C288.057 306.659 287.65 307.106 287.294 307.713L286.159 306.767C286.629 305.988 287.197 305.403 287.862 305.013C288.527 304.612 289.295 304.411 290.167 304.411C290.901 304.411 291.537 304.554 292.076 304.841C292.626 305.128 293.051 305.529 293.349 306.045C293.647 306.561 293.796 307.163 293.796 307.851C293.796 308.344 293.733 308.786 293.607 309.175C293.492 309.565 293.28 309.967 292.97 310.379C292.672 310.781 292.254 311.262 291.715 311.824L288.154 315.488L286.056 315.539ZM286.056 316.52V315.539L287.432 315.075H294.071V316.52H286.056ZM297.288 316.52V315.109H300.9C301.588 315.109 302.127 314.909 302.517 314.507C302.907 314.095 303.101 313.602 303.101 313.028C303.101 312.638 303.015 312.289 302.843 311.979C302.671 311.658 302.419 311.406 302.087 311.222C301.766 311.039 301.387 310.947 300.951 310.947H297.288V309.537H300.711C301.284 309.537 301.737 309.388 302.069 309.089C302.413 308.78 302.585 308.338 302.585 307.765C302.585 307.192 302.408 306.756 302.052 306.458C301.697 306.148 301.227 305.993 300.642 305.993H297.288V304.583H300.676C301.456 304.583 302.104 304.726 302.62 305.013C303.147 305.288 303.543 305.655 303.807 306.114C304.082 306.573 304.219 307.077 304.219 307.627C304.219 308.27 304.042 308.831 303.686 309.313C303.342 309.795 302.832 310.173 302.155 310.448L302.293 309.932C303.061 310.207 303.658 310.626 304.082 311.188C304.518 311.738 304.735 312.392 304.735 313.149C304.735 313.779 304.581 314.347 304.271 314.851C303.961 315.356 303.514 315.763 302.929 316.073C302.356 316.371 301.651 316.52 300.814 316.52H297.288ZM296.204 316.52V304.583H297.821V316.52H296.204Z" fill="#B0212A"/>
<rect x="343.68" y="303.64" width="61.92" height="13.76" rx="6.88" fill="#D9D9D9"/>
<mask id="path-53-inside-16_1751_1427" fill="white">
<path d="M35 331.84H138.2V374.48H35V331.84Z"/>
</mask>
<path d="M138.2 331.84H136.48V374.48H138.2H139.92V331.84H138.2Z" fill="#D5D9DC" mask="url(#path-53-inside-16_1751_1427)"/>
<rect x="52.2" y="346.28" width="49.88" height="13.76" rx="6.88" fill="#D9D9D9"/>
<mask id="path-56-inside-17_1751_1427" fill="white">
<path d="M138.2 331.84H327.4V374.48H138.2V331.84Z"/>
</mask>
<path d="M327.4 331.84H325.68V374.48H327.4H329.12V331.84H327.4Z" fill="#D5D9DC" mask="url(#path-56-inside-17_1751_1427)"/>
<rect x="155.4" y="338.72" width="102.88" height="28.88" rx="3.44" fill="#CFF3DF"/>
<path d="M160.25 359.16V347.223H161.867V359.16H160.25ZM161.351 359.16V357.681H168.197V359.16H161.351ZM161.351 353.759V352.349H167.629V353.759H161.351ZM161.351 348.702V347.223H168.111V348.702H161.351ZM175.487 359.16L172.941 355.582L172.649 355.307L169.433 350.99H171.307L173.629 354.172L173.922 354.413L177.362 359.16H175.487ZM169.278 359.16L172.649 354.619L173.526 355.754L171.101 359.16H169.278ZM174.042 355.29L173.148 354.189L175.401 350.99H177.207L174.042 355.29ZM182.01 359.332C181.265 359.332 180.588 359.148 179.981 358.782C179.373 358.403 178.891 357.893 178.536 357.251C178.192 356.609 178.02 355.886 178.02 355.084C178.02 354.281 178.192 353.558 178.536 352.916C178.891 352.274 179.367 351.764 179.963 351.386C180.571 351.007 181.253 350.818 182.01 350.818C182.629 350.818 183.18 350.95 183.661 351.214C184.154 351.466 184.55 351.821 184.848 352.28C185.146 352.727 185.313 353.249 185.347 353.845V356.305C185.313 356.89 185.146 357.411 184.848 357.87C184.561 358.329 184.172 358.69 183.679 358.954C183.197 359.206 182.641 359.332 182.01 359.332ZM182.268 357.87C183.036 357.87 183.656 357.612 184.126 357.096C184.596 356.568 184.831 355.898 184.831 355.084C184.831 354.522 184.722 354.034 184.504 353.622C184.298 353.197 184 352.87 183.61 352.641C183.22 352.4 182.767 352.28 182.251 352.28C181.735 352.28 181.276 352.4 180.875 352.641C180.485 352.882 180.175 353.214 179.946 353.639C179.728 354.052 179.619 354.527 179.619 355.066C179.619 355.617 179.728 356.104 179.946 356.528C180.175 356.941 180.491 357.268 180.892 357.509C181.293 357.75 181.752 357.87 182.268 357.87ZM184.728 359.16V356.958L185.02 354.963L184.728 352.985V350.99H186.293V359.16H184.728ZM192.279 359.332C191.476 359.332 190.748 359.143 190.095 358.764C189.453 358.386 188.942 357.876 188.564 357.234C188.197 356.58 188.013 355.858 188.013 355.066C188.013 354.264 188.197 353.541 188.564 352.899C188.942 352.257 189.453 351.752 190.095 351.386C190.748 351.007 191.476 350.818 192.279 350.818C192.91 350.818 193.495 350.938 194.033 351.179C194.572 351.408 195.037 351.747 195.427 352.194L194.395 353.226C194.142 352.928 193.833 352.704 193.466 352.555C193.11 352.395 192.715 352.314 192.279 352.314C191.763 352.314 191.304 352.435 190.903 352.676C190.502 352.905 190.186 353.226 189.957 353.639C189.728 354.052 189.613 354.527 189.613 355.066C189.613 355.605 189.728 356.081 189.957 356.494C190.186 356.907 190.502 357.234 190.903 357.474C191.304 357.715 191.763 357.836 192.279 357.836C192.715 357.836 193.11 357.761 193.466 357.612C193.833 357.451 194.148 357.222 194.412 356.924L195.427 357.956C195.048 358.392 194.584 358.73 194.033 358.971C193.495 359.212 192.91 359.332 192.279 359.332ZM198.117 359.16V347.567H199.665V359.16H198.117ZM196.104 352.4V350.99H201.677V352.4H196.104ZM207.046 359.16V347.223H208.182L213.238 355.531H212.464L217.521 347.223H218.656V359.16H217.04V350.061L217.418 350.164L213.428 356.718H212.292L208.302 350.164L208.663 350.061V359.16H207.046ZM224.674 359.332C223.929 359.332 223.252 359.148 222.645 358.782C222.037 358.403 221.555 357.893 221.2 357.251C220.856 356.609 220.684 355.886 220.684 355.084C220.684 354.281 220.856 353.558 221.2 352.916C221.555 352.274 222.031 351.764 222.627 351.386C223.235 351.007 223.917 350.818 224.674 350.818C225.293 350.818 225.844 350.95 226.325 351.214C226.818 351.466 227.214 351.821 227.512 352.28C227.81 352.727 227.977 353.249 228.011 353.845V356.305C227.977 356.89 227.81 357.411 227.512 357.87C227.226 358.329 226.836 358.69 226.343 358.954C225.861 359.206 225.305 359.332 224.674 359.332ZM224.932 357.87C225.7 357.87 226.32 357.612 226.79 357.096C227.26 356.568 227.495 355.898 227.495 355.084C227.495 354.522 227.386 354.034 227.168 353.622C226.962 353.197 226.664 352.87 226.274 352.641C225.884 352.4 225.431 352.28 224.915 352.28C224.399 352.28 223.94 352.4 223.539 352.641C223.149 352.882 222.84 353.214 222.61 353.639C222.392 354.052 222.283 354.527 222.283 355.066C222.283 355.617 222.392 356.104 222.61 356.528C222.84 356.941 223.155 357.268 223.556 357.509C223.958 357.75 224.416 357.87 224.932 357.87ZM227.392 359.16V356.958L227.684 354.963L227.392 352.985V350.99H228.957V359.16H227.392ZM232.433 359.16V347.567H233.981V359.16H232.433ZM230.42 352.4V350.99H235.993V352.4H230.42ZM240.99 359.332C240.187 359.332 239.459 359.143 238.806 358.764C238.163 358.386 237.653 357.876 237.275 357.234C236.908 356.58 236.724 355.858 236.724 355.066C236.724 354.264 236.908 353.541 237.275 352.899C237.653 352.257 238.163 351.752 238.806 351.386C239.459 351.007 240.187 350.818 240.99 350.818C241.621 350.818 242.205 350.938 242.744 351.179C243.283 351.408 243.748 351.747 244.138 352.194L243.106 353.226C242.853 352.928 242.544 352.704 242.177 352.555C241.821 352.395 241.426 352.314 240.99 352.314C240.474 352.314 240.015 352.435 239.614 352.676C239.213 352.905 238.897 353.226 238.668 353.639C238.439 354.052 238.324 354.527 238.324 355.066C238.324 355.605 238.439 356.081 238.668 356.494C238.897 356.907 239.213 357.234 239.614 357.474C240.015 357.715 240.474 357.836 240.99 357.836C241.426 357.836 241.821 357.761 242.177 357.612C242.544 357.451 242.859 357.222 243.123 356.924L244.138 357.956C243.759 358.392 243.295 358.73 242.744 358.971C242.205 359.212 241.621 359.332 240.99 359.332ZM251.452 359.16V354.396C251.452 353.776 251.257 353.266 250.867 352.865C250.477 352.463 249.973 352.263 249.354 352.263C248.941 352.263 248.574 352.354 248.253 352.538C247.932 352.721 247.68 352.974 247.496 353.295C247.313 353.616 247.221 353.983 247.221 354.396L246.584 354.034C246.584 353.415 246.722 352.865 246.997 352.383C247.272 351.902 247.657 351.523 248.15 351.248C248.643 350.961 249.199 350.818 249.818 350.818C250.437 350.818 250.982 350.956 251.452 351.231C251.934 351.506 252.312 351.89 252.587 352.383C252.862 352.876 253 353.444 253 354.086V359.16H251.452ZM245.673 359.16V346.879H247.221V359.16H245.673Z" fill="#188847"/>
<rect x="344.6" y="346.28" width="61.92" height="13.76" rx="6.88" fill="#D9D9D9"/>
</svg>
