<svg width="500" height="500" viewBox="0 0 500 500" fill="none" xmlns="http://www.w3.org/2000/svg">
<rect width="500" height="500" rx="6.66667" fill="#E9ECFF"/>
<rect x="33.3333" y="141.174" width="433.333" height="217.652" rx="11.8182" fill="white"/>
<rect x="55" y="157.22" width="170.273" height="50.6364" rx="3.93939" fill="#1A237E"/>
<path d="M84.3996 191.038V176.434H86.4363V191.038H84.3996ZM79.2863 177.864V176.001H91.5279V177.864H79.2863ZM91.3016 191.038V180.746H93.2516V191.038H91.3016ZM93.2516 185.166L92.515 184.841C92.515 183.526 92.8183 182.479 93.425 181.699C94.0316 180.919 94.9055 180.529 96.0466 180.529C96.5666 180.529 97.0361 180.623 97.455 180.811C97.8739 180.984 98.2639 181.28 98.625 181.699L97.3466 183.021C97.13 182.79 96.8916 182.624 96.6316 182.523C96.3716 182.421 96.0683 182.371 95.7216 182.371C94.9994 182.371 94.4072 182.602 93.945 183.064C93.4827 183.526 93.2516 184.227 93.2516 185.166ZM104.036 191.254C103.097 191.254 102.245 191.023 101.479 190.561C100.714 190.084 100.107 189.441 99.6594 188.633C99.226 187.824 99.0094 186.914 99.0094 185.903C99.0094 184.891 99.226 183.981 99.6594 183.173C100.107 182.364 100.707 181.721 101.458 181.244C102.223 180.768 103.083 180.529 104.036 180.529C104.816 180.529 105.509 180.695 106.116 181.028C106.737 181.345 107.235 181.793 107.611 182.371C107.987 182.934 108.196 183.591 108.239 184.343V187.441C108.196 188.178 107.987 188.835 107.611 189.413C107.25 189.99 106.759 190.445 106.138 190.778C105.531 191.095 104.83 191.254 104.036 191.254ZM104.361 189.413C105.329 189.413 106.109 189.088 106.701 188.438C107.293 187.773 107.589 186.928 107.589 185.903C107.589 185.195 107.452 184.581 107.178 184.061C106.918 183.526 106.542 183.115 106.051 182.826C105.56 182.523 104.989 182.371 104.339 182.371C103.689 182.371 103.112 182.523 102.606 182.826C102.115 183.129 101.725 183.548 101.436 184.083C101.162 184.603 101.024 185.202 101.024 185.881C101.024 186.574 101.162 187.188 101.436 187.723C101.725 188.243 102.122 188.654 102.628 188.958C103.133 189.261 103.711 189.413 104.361 189.413ZM107.459 191.038V188.264L107.828 185.751L107.459 183.259V180.746H109.431V191.038H107.459ZM119.55 191.038V185.036C119.55 184.256 119.304 183.613 118.813 183.108C118.322 182.602 117.687 182.349 116.907 182.349C116.387 182.349 115.924 182.465 115.52 182.696C115.116 182.927 114.798 183.245 114.567 183.649C114.336 184.054 114.22 184.516 114.22 185.036L113.418 184.581C113.418 183.801 113.592 183.108 113.938 182.501C114.285 181.894 114.769 181.418 115.39 181.071C116.011 180.71 116.712 180.529 117.492 180.529C118.272 180.529 118.958 180.724 119.55 181.114C120.157 181.504 120.633 182.017 120.98 182.653C121.327 183.274 121.5 183.938 121.5 184.646V191.038H119.55ZM112.27 191.038V180.746H114.22V191.038H112.27ZM127.412 191.254C126.834 191.254 126.285 191.182 125.765 191.038C125.26 190.879 124.79 190.662 124.357 190.388C123.924 190.099 123.548 189.759 123.23 189.369L124.487 188.113C124.862 188.575 125.296 188.921 125.787 189.153C126.278 189.369 126.827 189.478 127.434 189.478C128.04 189.478 128.51 189.376 128.842 189.174C129.174 188.958 129.34 188.661 129.34 188.286C129.34 187.91 129.203 187.621 128.929 187.419C128.669 187.203 128.329 187.029 127.91 186.899C127.491 186.755 127.044 186.618 126.567 186.488C126.105 186.343 125.664 186.163 125.245 185.946C124.826 185.729 124.48 185.433 124.205 185.058C123.945 184.682 123.815 184.184 123.815 183.563C123.815 182.941 123.967 182.407 124.27 181.959C124.574 181.497 124.992 181.143 125.527 180.898C126.076 180.652 126.733 180.529 127.499 180.529C128.307 180.529 129.022 180.674 129.644 180.963C130.279 181.237 130.799 181.656 131.204 182.219L129.947 183.476C129.658 183.1 129.297 182.811 128.864 182.609C128.445 182.407 127.968 182.306 127.434 182.306C126.87 182.306 126.437 182.407 126.134 182.609C125.845 182.797 125.7 183.064 125.7 183.411C125.7 183.758 125.83 184.025 126.09 184.213C126.35 184.4 126.69 184.559 127.109 184.689C127.542 184.819 127.99 184.956 128.452 185.101C128.914 185.231 129.355 185.411 129.774 185.643C130.192 185.874 130.532 186.184 130.792 186.574C131.066 186.964 131.204 187.477 131.204 188.113C131.204 189.08 130.857 189.846 130.164 190.409C129.485 190.973 128.567 191.254 127.412 191.254ZM137.763 191.254C136.824 191.254 135.972 191.023 135.207 190.561C134.441 190.084 133.834 189.441 133.387 188.633C132.953 187.824 132.737 186.914 132.737 185.903C132.737 184.891 132.953 183.981 133.387 183.173C133.834 182.364 134.434 181.721 135.185 181.244C135.95 180.768 136.81 180.529 137.763 180.529C138.543 180.529 139.237 180.695 139.843 181.028C140.464 181.345 140.963 181.793 141.338 182.371C141.714 182.934 141.923 183.591 141.967 184.343V187.441C141.923 188.178 141.714 188.835 141.338 189.413C140.977 189.99 140.486 190.445 139.865 190.778C139.258 191.095 138.558 191.254 137.763 191.254ZM138.088 189.413C139.056 189.413 139.836 189.088 140.428 188.438C141.02 187.773 141.317 186.928 141.317 185.903C141.317 185.195 141.179 184.581 140.905 184.061C140.645 183.526 140.269 183.115 139.778 182.826C139.287 182.523 138.717 182.371 138.067 182.371C137.417 182.371 136.839 182.523 136.333 182.826C135.842 183.129 135.452 183.548 135.163 184.083C134.889 184.603 134.752 185.202 134.752 185.881C134.752 186.574 134.889 187.188 135.163 187.723C135.452 188.243 135.849 188.654 136.355 188.958C136.86 189.261 137.438 189.413 138.088 189.413ZM141.187 191.038V188.264L141.555 185.751L141.187 183.259V180.746H143.158V191.038H141.187ZM150.699 191.254C149.688 191.254 148.771 191.016 147.947 190.539C147.138 190.063 146.496 189.42 146.019 188.611C145.557 187.788 145.326 186.878 145.326 185.881C145.326 184.87 145.557 183.96 146.019 183.151C146.496 182.342 147.138 181.706 147.947 181.244C148.771 180.768 149.688 180.529 150.699 180.529C151.493 180.529 152.23 180.681 152.909 180.984C153.588 181.273 154.173 181.699 154.664 182.263L153.364 183.563C153.046 183.187 152.656 182.905 152.194 182.718C151.746 182.515 151.248 182.414 150.699 182.414C150.049 182.414 149.471 182.566 148.966 182.869C148.46 183.158 148.063 183.563 147.774 184.083C147.485 184.603 147.341 185.202 147.341 185.881C147.341 186.56 147.485 187.159 147.774 187.679C148.063 188.199 148.46 188.611 148.966 188.914C149.471 189.218 150.049 189.369 150.699 189.369C151.248 189.369 151.746 189.275 152.194 189.088C152.656 188.885 153.053 188.596 153.386 188.221L154.664 189.521C154.187 190.07 153.602 190.496 152.909 190.799C152.23 191.103 151.493 191.254 150.699 191.254ZM158.053 191.038V176.434H160.003V191.038H158.053ZM155.518 182.523V180.746H162.538V182.523H155.518ZM164.469 191.038V180.746H166.419V191.038H164.469ZM165.444 178.688C165.083 178.688 164.787 178.572 164.556 178.341C164.325 178.095 164.209 177.792 164.209 177.431C164.209 177.084 164.325 176.795 164.556 176.564C164.787 176.319 165.083 176.196 165.444 176.196C165.806 176.196 166.102 176.319 166.333 176.564C166.564 176.795 166.679 177.084 166.679 177.431C166.679 177.792 166.564 178.095 166.333 178.341C166.102 178.572 165.806 178.688 165.444 178.688ZM173.995 191.254C172.984 191.254 172.074 191.016 171.265 190.539C170.456 190.063 169.813 189.42 169.336 188.611C168.86 187.788 168.621 186.87 168.621 185.859C168.621 184.863 168.86 183.967 169.336 183.173C169.813 182.364 170.456 181.721 171.265 181.244C172.074 180.768 172.984 180.529 173.995 180.529C174.991 180.529 175.894 180.768 176.703 181.244C177.526 181.706 178.176 182.342 178.653 183.151C179.13 183.96 179.368 184.863 179.368 185.859C179.368 186.87 179.13 187.788 178.653 188.611C178.176 189.42 177.526 190.063 176.703 190.539C175.894 191.016 174.991 191.254 173.995 191.254ZM173.995 189.369C174.645 189.369 175.223 189.218 175.728 188.914C176.234 188.611 176.631 188.199 176.92 187.679C177.209 187.145 177.353 186.538 177.353 185.859C177.353 185.195 177.201 184.603 176.898 184.083C176.609 183.563 176.212 183.158 175.706 182.869C175.215 182.566 174.645 182.414 173.995 182.414C173.345 182.414 172.767 182.566 172.261 182.869C171.756 183.158 171.359 183.563 171.07 184.083C170.781 184.603 170.636 185.195 170.636 185.859C170.636 186.538 170.781 187.145 171.07 187.679C171.359 188.199 171.756 188.611 172.261 188.914C172.767 189.218 173.345 189.369 173.995 189.369ZM188.845 191.038V185.036C188.845 184.256 188.6 183.613 188.109 183.108C187.618 182.602 186.982 182.349 186.202 182.349C185.682 182.349 185.22 182.465 184.815 182.696C184.411 182.927 184.093 183.245 183.862 183.649C183.631 184.054 183.515 184.516 183.515 185.036L182.714 184.581C182.714 183.801 182.887 183.108 183.234 182.501C183.58 181.894 184.064 181.418 184.685 181.071C185.306 180.71 186.007 180.529 186.787 180.529C187.567 180.529 188.253 180.724 188.845 181.114C189.452 181.504 189.929 182.017 190.275 182.653C190.622 183.274 190.795 183.938 190.795 184.646V191.038H188.845ZM181.565 191.038V180.746H183.515V191.038H181.565ZM196.707 191.254C196.129 191.254 195.58 191.182 195.06 191.038C194.555 190.879 194.085 190.662 193.652 190.388C193.219 190.099 192.843 189.759 192.525 189.369L193.782 188.113C194.158 188.575 194.591 188.921 195.082 189.153C195.573 189.369 196.122 189.478 196.729 189.478C197.335 189.478 197.805 189.376 198.137 189.174C198.469 188.958 198.635 188.661 198.635 188.286C198.635 187.91 198.498 187.621 198.224 187.419C197.964 187.203 197.624 187.029 197.205 186.899C196.787 186.755 196.339 186.618 195.862 186.488C195.4 186.343 194.959 186.163 194.54 185.946C194.122 185.729 193.775 185.433 193.5 185.058C193.24 184.682 193.11 184.184 193.11 183.563C193.11 182.941 193.262 182.407 193.565 181.959C193.869 181.497 194.288 181.143 194.822 180.898C195.371 180.652 196.028 180.529 196.794 180.529C197.603 180.529 198.318 180.674 198.939 180.963C199.574 181.237 200.094 181.656 200.499 182.219L199.242 183.476C198.953 183.1 198.592 182.811 198.159 182.609C197.74 182.407 197.263 182.306 196.729 182.306C196.165 182.306 195.732 182.407 195.429 182.609C195.14 182.797 194.995 183.064 194.995 183.411C194.995 183.758 195.125 184.025 195.385 184.213C195.645 184.4 195.985 184.559 196.404 184.689C196.837 184.819 197.285 184.956 197.747 185.101C198.209 185.231 198.65 185.411 199.069 185.643C199.488 185.874 199.827 186.184 200.087 186.574C200.362 186.964 200.499 187.477 200.499 188.113C200.499 189.08 200.152 189.846 199.459 190.409C198.78 190.973 197.863 191.254 196.707 191.254Z" fill="#E9ECFF"/>
<rect x="244.97" y="156.932" width="51.2121" height="51.2121" rx="3.93939" fill="#E9ECFF"/>
<path d="M275.5 174.136L278.984 177.62L275.5 181.104L272.016 177.62L275.5 174.136ZM266.07 174.727V179.651H261.146V174.727H266.07ZM278.381 187.037V191.962H273.456V187.037H278.381ZM266.07 187.037V191.962H261.146V187.037H266.07ZM275.5 170.652L268.532 177.607L275.5 184.575L282.468 177.607L275.5 170.652ZM268.532 172.265H258.684V182.113H268.532V172.265ZM280.843 184.575H270.994V194.424H280.843V184.575ZM268.532 184.575H258.684V194.424H268.532V184.575Z" fill="#1A237E"/>
<rect x="315.879" y="156.932" width="51.2121" height="51.2121" rx="3.93939" fill="#E9ECFF"/>
<path d="M336.561 187.462H346.409V189.924H336.561V187.462ZM336.561 182.538H346.409V185H336.561V182.538ZM343.947 170.227H334.098C332.744 170.227 331.636 171.335 331.636 172.689V192.386C331.636 193.741 332.732 194.849 334.086 194.849H348.871C350.225 194.849 351.333 193.741 351.333 192.386V177.614L343.947 170.227ZM348.871 192.386H334.098V172.689H342.716V178.845H348.871V192.386Z" fill="#1A237E"/>
<rect x="386.788" y="156.932" width="51.2121" height="51.2121" rx="3.93939" fill="#E9ECFF"/>
<path d="M421.011 178.845L422.55 175.459L425.936 173.92L422.55 172.382L421.011 168.996L419.472 172.382L416.087 173.92L419.472 175.459L421.011 178.845Z" fill="#1A237E"/>
<path d="M421.011 186.231L419.472 189.616L416.087 191.155L419.472 192.694L421.011 196.079L422.55 192.694L425.936 191.155L422.55 189.616L421.011 186.231Z" fill="#1A237E"/>
<path d="M411.778 179.46L408.701 172.689L405.623 179.46L398.852 182.538L405.623 185.615L408.701 192.386L411.778 185.615L418.549 182.538L411.778 179.46ZM409.919 183.757L408.701 186.44L407.482 183.757L404.798 182.538L407.482 181.319L408.701 178.635L409.919 181.319L412.603 182.538L409.919 183.757Z" fill="#1A237E"/>
<rect x="55" y="230.795" width="383.106" height="51.2121" rx="3.93939" fill="#F2F2F3"/>
<path d="M74.6146 249.261V250.903H80.0231L70.5111 260.415L71.6683 261.572L81.1803 252.06V257.468H82.8217V249.261H74.6146Z" fill="#29A653"/>
<path d="M102.603 261.574C101.837 261.574 101.117 261.432 100.445 261.149C99.7828 260.854 99.1998 260.45 98.6955 259.935C98.2018 259.421 97.8131 258.822 97.5294 258.139C97.2458 257.456 97.104 256.721 97.104 255.933C97.104 255.145 97.2458 254.415 97.5294 253.743C97.8131 253.06 98.207 252.461 98.7113 251.946C99.2155 251.431 99.8038 251.032 100.476 250.749C101.159 250.465 101.9 250.323 102.698 250.323C103.57 250.323 104.373 250.491 105.109 250.827C105.844 251.164 106.459 251.647 106.952 252.277L105.928 253.301C105.582 252.797 105.125 252.414 104.557 252.151C103.99 251.878 103.37 251.741 102.698 251.741C101.9 251.741 101.19 251.92 100.571 252.277C99.9614 252.634 99.4834 253.128 99.1367 253.758C98.8006 254.389 98.6325 255.113 98.6325 255.933C98.6325 256.763 98.8058 257.493 99.1525 258.123C99.4991 258.753 99.9666 259.247 100.555 259.604C101.143 259.962 101.816 260.14 102.572 260.14C103.339 260.14 104.001 259.993 104.557 259.699C105.125 259.405 105.561 258.974 105.865 258.407C106.17 257.829 106.322 257.125 106.322 256.295L107.22 256.941H102.493V255.586H107.851V255.807C107.851 257.078 107.625 258.144 107.173 259.006C106.732 259.857 106.112 260.497 105.314 260.928C104.526 261.359 103.622 261.574 102.603 261.574ZM109.591 261.417V253.932H111.009V261.417H109.591ZM111.009 257.146L110.473 256.91C110.473 255.954 110.694 255.192 111.135 254.625C111.576 254.058 112.212 253.774 113.042 253.774C113.42 253.774 113.761 253.842 114.066 253.979C114.371 254.105 114.654 254.32 114.917 254.625L113.987 255.586C113.83 255.418 113.656 255.297 113.467 255.224C113.278 255.15 113.058 255.113 112.805 255.113C112.28 255.113 111.849 255.282 111.513 255.618C111.177 255.954 111.009 256.463 111.009 257.146ZM119.136 261.574C118.39 261.574 117.718 261.406 117.119 261.07C116.52 260.723 116.047 260.256 115.701 259.667C115.354 259.079 115.181 258.412 115.181 257.666C115.181 256.931 115.349 256.269 115.685 255.681C116.032 255.092 116.494 254.63 117.072 254.294C117.66 253.947 118.317 253.774 119.041 253.774C119.735 253.774 120.344 253.932 120.869 254.247C121.405 254.562 121.82 254.998 122.114 255.555C122.419 256.111 122.571 256.742 122.571 257.446C122.571 257.551 122.566 257.666 122.555 257.792C122.545 257.908 122.524 258.044 122.492 258.202H116.173V257.02H121.736L121.216 257.477C121.216 256.973 121.127 256.547 120.948 256.201C120.769 255.844 120.517 255.57 120.192 255.381C119.866 255.182 119.472 255.082 119.01 255.082C118.527 255.082 118.101 255.187 117.733 255.397C117.366 255.607 117.082 255.901 116.883 256.28C116.683 256.658 116.583 257.104 116.583 257.619C116.583 258.144 116.688 258.606 116.898 259.006C117.108 259.394 117.408 259.699 117.797 259.92C118.185 260.13 118.632 260.235 119.136 260.235C119.556 260.235 119.94 260.161 120.286 260.014C120.643 259.867 120.948 259.646 121.2 259.352L122.114 260.282C121.757 260.702 121.316 261.023 120.79 261.243C120.276 261.464 119.724 261.574 119.136 261.574ZM126.452 261.48L123.206 253.932H124.782L127.193 259.841H126.689L129.226 253.932H130.802L127.303 261.48H126.452ZM124.309 264.552L126.516 260.03L127.303 261.48L125.885 264.552H124.309ZM138.66 261.574C137.798 261.574 137.063 261.417 136.453 261.101C135.844 260.786 135.303 260.329 134.83 259.73L135.839 258.722C136.186 259.205 136.585 259.573 137.037 259.825C137.488 260.067 138.045 260.187 138.707 260.187C139.358 260.187 139.878 260.046 140.267 259.762C140.666 259.478 140.866 259.09 140.866 258.596C140.866 258.186 140.771 257.855 140.582 257.603C140.393 257.351 140.136 257.146 139.81 256.989C139.495 256.821 139.148 256.673 138.77 256.547C138.392 256.411 138.013 256.269 137.635 256.122C137.257 255.964 136.91 255.775 136.595 255.555C136.28 255.324 136.023 255.024 135.823 254.657C135.634 254.289 135.54 253.827 135.54 253.27C135.54 252.65 135.687 252.125 135.981 251.694C136.285 251.253 136.695 250.917 137.21 250.686C137.735 250.444 138.323 250.323 138.975 250.323C139.689 250.323 140.33 250.465 140.897 250.749C141.464 251.022 141.927 251.384 142.284 251.836L141.275 252.844C140.95 252.466 140.598 252.183 140.22 251.993C139.852 251.804 139.426 251.71 138.943 251.71C138.355 251.71 137.887 251.841 137.541 252.104C137.194 252.356 137.021 252.713 137.021 253.175C137.021 253.543 137.115 253.842 137.304 254.073C137.504 254.294 137.761 254.483 138.077 254.641C138.392 254.798 138.738 254.945 139.117 255.082C139.505 255.208 139.889 255.35 140.267 255.507C140.645 255.665 140.992 255.865 141.307 256.106C141.622 256.348 141.874 256.663 142.063 257.052C142.263 257.43 142.363 257.908 142.363 258.486C142.363 259.452 142.026 260.208 141.354 260.755C140.692 261.301 139.794 261.574 138.66 261.574ZM145.257 261.417V250.796H146.675V261.417H145.257ZM143.413 255.224V253.932H148.519V255.224H143.413ZM153.097 261.574C152.361 261.574 151.7 261.401 151.111 261.054C150.523 260.707 150.055 260.24 149.709 259.652C149.362 259.053 149.189 258.386 149.189 257.65C149.189 256.926 149.362 256.274 149.709 255.697C150.055 255.108 150.523 254.641 151.111 254.294C151.7 253.947 152.361 253.774 153.097 253.774C153.822 253.774 154.478 253.947 155.066 254.294C155.665 254.63 156.138 255.092 156.485 255.681C156.831 256.269 157.005 256.926 157.005 257.65C157.005 258.386 156.831 259.053 156.485 259.652C156.138 260.24 155.665 260.707 155.066 261.054C154.478 261.401 153.822 261.574 153.097 261.574ZM153.097 260.203C153.569 260.203 153.99 260.093 154.357 259.872C154.725 259.652 155.014 259.352 155.224 258.974C155.434 258.585 155.539 258.144 155.539 257.65C155.539 257.167 155.429 256.737 155.208 256.358C154.998 255.98 154.709 255.686 154.342 255.476C153.984 255.255 153.569 255.145 153.097 255.145C152.624 255.145 152.204 255.255 151.836 255.476C151.468 255.686 151.18 255.98 150.969 256.358C150.759 256.737 150.654 257.167 150.654 257.65C150.654 258.144 150.759 258.585 150.969 258.974C151.18 259.352 151.468 259.652 151.836 259.872C152.204 260.093 152.624 260.203 153.097 260.203ZM163.897 261.417V257.052C163.897 256.484 163.718 256.017 163.361 255.649C163.004 255.282 162.542 255.098 161.975 255.098C161.596 255.098 161.26 255.182 160.966 255.35C160.672 255.518 160.441 255.749 160.273 256.043C160.105 256.337 160.021 256.673 160.021 257.052L159.438 256.721C159.438 256.153 159.564 255.649 159.816 255.208C160.068 254.767 160.42 254.42 160.872 254.168C161.323 253.905 161.833 253.774 162.4 253.774C162.967 253.774 163.466 253.916 163.897 254.2C164.338 254.483 164.685 254.856 164.937 255.318C165.189 255.77 165.315 256.253 165.315 256.768V261.417H163.897ZM158.602 261.417V253.932H160.021V261.417H158.602ZM170.702 261.574C169.956 261.574 169.284 261.406 168.685 261.07C168.086 260.723 167.613 260.256 167.267 259.667C166.92 259.079 166.747 258.412 166.747 257.666C166.747 256.931 166.915 256.269 167.251 255.681C167.598 255.092 168.06 254.63 168.638 254.294C169.226 253.947 169.883 253.774 170.607 253.774C171.301 253.774 171.91 253.932 172.435 254.247C172.971 254.562 173.386 254.998 173.68 255.555C173.985 256.111 174.137 256.742 174.137 257.446C174.137 257.551 174.132 257.666 174.121 257.792C174.111 257.908 174.09 258.044 174.058 258.202H167.74V257.02H173.302L172.782 257.477C172.782 256.973 172.693 256.547 172.514 256.201C172.336 255.844 172.083 255.57 171.758 255.381C171.432 255.182 171.038 255.082 170.576 255.082C170.093 255.082 169.667 255.187 169.3 255.397C168.932 255.607 168.648 255.901 168.449 256.28C168.249 256.658 168.149 257.104 168.149 257.619C168.149 258.144 168.254 258.606 168.464 259.006C168.674 259.394 168.974 259.699 169.363 259.92C169.751 260.13 170.198 260.235 170.702 260.235C171.122 260.235 171.506 260.161 171.852 260.014C172.209 259.867 172.514 259.646 172.766 259.352L173.68 260.282C173.323 260.702 172.882 261.023 172.357 261.243C171.842 261.464 171.29 261.574 170.702 261.574Z" fill="#3F4346"/>
<path d="M279.97 259.917L277.736 256.017V255.497H277.996C278.414 255.497 278.765 255.457 279.048 255.378C279.34 255.3 279.568 255.17 279.734 254.988C279.899 254.807 279.998 254.559 280.029 254.244H277.736V253.487H280.017C279.962 253.196 279.852 252.96 279.686 252.778C279.521 252.589 279.296 252.451 279.013 252.365C278.737 252.278 278.398 252.235 277.996 252.235H277.736V251.478H282.629V252.235H280.396C280.577 252.384 280.726 252.562 280.845 252.767C280.963 252.971 281.038 253.212 281.069 253.487H282.629V254.244H281.093C281.038 254.819 280.817 255.268 280.431 255.591C280.053 255.906 279.549 256.107 278.918 256.194L281.176 259.917H279.97ZM283.956 259.243L286.981 256.052C287.289 255.737 287.529 255.465 287.702 255.237C287.876 255 287.998 254.783 288.069 254.587C288.147 254.39 288.187 254.185 288.187 253.972C288.187 253.554 288.053 253.227 287.785 252.991C287.517 252.755 287.17 252.637 286.745 252.637C286.327 252.637 285.961 252.739 285.646 252.944C285.331 253.141 285.051 253.448 284.807 253.866L284.027 253.216C284.35 252.68 284.74 252.278 285.197 252.01C285.654 251.734 286.182 251.597 286.78 251.597C287.285 251.597 287.722 251.695 288.092 251.892C288.47 252.089 288.762 252.365 288.967 252.719C289.172 253.074 289.274 253.487 289.274 253.96C289.274 254.299 289.231 254.602 289.144 254.87C289.065 255.138 288.92 255.414 288.707 255.697C288.502 255.973 288.214 256.304 287.844 256.69L285.398 259.207L283.956 259.243ZM283.956 259.917V259.243L284.901 258.924H289.463V259.917H283.956ZM292.879 260.035C292.343 260.035 291.855 259.936 291.413 259.739C290.98 259.534 290.614 259.239 290.314 258.853L291.071 258.097C291.252 258.372 291.5 258.593 291.815 258.758C292.13 258.916 292.481 258.995 292.867 258.995C293.229 258.995 293.541 258.928 293.801 258.794C294.069 258.652 294.277 258.455 294.427 258.203C294.585 257.951 294.663 257.659 294.663 257.328C294.663 256.99 294.585 256.698 294.427 256.454C294.277 256.202 294.065 256.009 293.789 255.875C293.513 255.741 293.186 255.674 292.808 255.674C292.666 255.674 292.524 255.686 292.382 255.709C292.241 255.725 292.103 255.753 291.969 255.792L292.442 255.154C292.591 255.083 292.753 255.028 292.926 254.988C293.099 254.949 293.273 254.929 293.446 254.929C293.887 254.929 294.281 255.032 294.628 255.237C294.982 255.441 295.262 255.729 295.467 256.099C295.68 256.47 295.786 256.899 295.786 257.387C295.786 257.907 295.66 258.368 295.408 258.77C295.164 259.164 294.825 259.475 294.392 259.704C293.958 259.924 293.454 260.035 292.879 260.035ZM291.969 255.792V255.118L294.368 252.388L295.692 252.377L293.222 255.177L291.969 255.792ZM290.704 252.707V251.715H295.692V252.377L294.722 252.707H290.704ZM296.823 261.217L297.556 259.81L297.934 259.716C297.895 259.802 297.844 259.873 297.781 259.928C297.725 259.983 297.655 260.011 297.568 260.011C297.402 260.011 297.249 259.944 297.107 259.81C296.973 259.668 296.906 259.495 296.906 259.29C296.906 259.062 296.981 258.873 297.131 258.723C297.28 258.565 297.469 258.487 297.698 258.487C297.903 258.487 298.084 258.565 298.242 258.723C298.399 258.873 298.478 259.062 298.478 259.29C298.478 259.377 298.458 259.483 298.419 259.609C298.387 259.727 298.32 259.881 298.218 260.07L297.438 261.547L296.823 261.217ZM300.353 259.917L302.823 256.548L303.225 256.336C303.13 256.493 303.016 256.631 302.882 256.749C302.748 256.867 302.583 256.958 302.386 257.021C302.197 257.084 301.964 257.116 301.688 257.116C301.216 257.116 300.778 257.001 300.377 256.773C299.983 256.544 299.667 256.229 299.431 255.827C299.195 255.418 299.077 254.957 299.077 254.445C299.077 253.917 299.207 253.44 299.467 253.015C299.727 252.581 300.073 252.239 300.507 251.987C300.94 251.727 301.42 251.597 301.948 251.597C302.484 251.597 302.969 251.723 303.402 251.975C303.835 252.227 304.178 252.566 304.43 252.991C304.682 253.409 304.808 253.881 304.808 254.409C304.808 255.134 304.556 255.855 304.052 256.572L301.641 259.917H300.353ZM301.948 256.241C302.279 256.241 302.575 256.162 302.835 256.005C303.103 255.839 303.311 255.623 303.461 255.355C303.619 255.079 303.697 254.776 303.697 254.445C303.697 254.098 303.619 253.791 303.461 253.523C303.311 253.247 303.103 253.03 302.835 252.873C302.575 252.715 302.279 252.637 301.948 252.637C301.617 252.637 301.318 252.715 301.05 252.873C300.79 253.03 300.581 253.247 300.424 253.523C300.266 253.791 300.187 254.098 300.187 254.445C300.187 254.783 300.266 255.087 300.424 255.355C300.581 255.623 300.794 255.839 301.062 256.005C301.33 256.162 301.625 256.241 301.948 256.241ZM306.549 259.917L309.621 252.365L310.72 252.4L307.719 259.917H306.549ZM305.26 252.707V251.715H310.72V252.4L310.236 252.707H305.26ZM311.378 259.243L314.403 256.052C314.711 255.737 314.951 255.465 315.124 255.237C315.298 255 315.42 254.783 315.491 254.587C315.569 254.39 315.609 254.185 315.609 253.972C315.609 253.554 315.475 253.227 315.207 252.991C314.939 252.755 314.592 252.637 314.167 252.637C313.749 252.637 313.383 252.739 313.068 252.944C312.753 253.141 312.473 253.448 312.229 253.866L311.449 253.216C311.772 252.68 312.162 252.278 312.619 252.01C313.076 251.734 313.604 251.597 314.202 251.597C314.707 251.597 315.144 251.695 315.514 251.892C315.892 252.089 316.184 252.365 316.389 252.719C316.594 253.074 316.696 253.487 316.696 253.96C316.696 254.299 316.653 254.602 316.566 254.87C316.487 255.138 316.341 255.414 316.129 255.697C315.924 255.973 315.636 256.304 315.266 256.69L312.82 259.207L311.378 259.243ZM311.378 259.917V259.243L312.323 258.924H316.885V259.917H311.378Z" fill="#3F4346"/>
<rect x="327.651" y="240.644" width="98.4848" height="29.5455" rx="3.93939" fill="#D1F4DC"/>
<path d="M351.206 249.261V250.903H356.614L347.102 260.415L348.259 261.572L357.771 252.06V257.468H359.413V249.261H351.206Z" fill="#29A653"/>
<path d="M371.954 259.917V251.715H373.065V259.917H371.954ZM378.782 259.917V256.643C378.782 256.217 378.648 255.867 378.381 255.591C378.113 255.315 377.766 255.177 377.341 255.177C377.057 255.177 376.805 255.24 376.584 255.367C376.364 255.493 376.19 255.666 376.064 255.887C375.938 256.107 375.875 256.359 375.875 256.643L375.438 256.395C375.438 255.969 375.532 255.591 375.721 255.26C375.911 254.929 376.174 254.669 376.513 254.48C376.852 254.283 377.234 254.185 377.66 254.185C378.085 254.185 378.459 254.291 378.782 254.504C379.113 254.717 379.373 254.996 379.562 255.343C379.751 255.682 379.846 256.044 379.846 256.43V259.917H378.782ZM374.811 259.917V254.303H375.875V259.917H374.811ZM383.851 260.035C383.299 260.035 382.799 259.905 382.35 259.645C381.908 259.385 381.558 259.034 381.298 258.593C381.046 258.144 380.92 257.647 380.92 257.104C380.92 256.552 381.046 256.056 381.298 255.615C381.558 255.173 381.908 254.827 382.35 254.575C382.799 254.315 383.299 254.185 383.851 254.185C384.284 254.185 384.686 254.267 385.056 254.433C385.426 254.59 385.745 254.823 386.013 255.13L385.304 255.839C385.131 255.634 384.918 255.481 384.666 255.378C384.422 255.268 384.15 255.213 383.851 255.213C383.496 255.213 383.181 255.296 382.905 255.461C382.629 255.619 382.413 255.839 382.255 256.123C382.098 256.407 382.019 256.733 382.019 257.104C382.019 257.474 382.098 257.801 382.255 258.085C382.413 258.368 382.629 258.593 382.905 258.758C383.181 258.924 383.496 259.007 383.851 259.007C384.15 259.007 384.422 258.955 384.666 258.853C384.918 258.743 385.135 258.585 385.316 258.38L386.013 259.089C385.753 259.389 385.434 259.621 385.056 259.787C384.686 259.952 384.284 260.035 383.851 260.035ZM389.517 260.035C388.966 260.035 388.469 259.905 388.028 259.645C387.587 259.385 387.236 259.034 386.976 258.593C386.716 258.144 386.586 257.643 386.586 257.092C386.586 256.548 386.716 256.06 386.976 255.627C387.236 255.185 387.587 254.835 388.028 254.575C388.469 254.315 388.966 254.185 389.517 254.185C390.061 254.185 390.553 254.315 390.995 254.575C391.444 254.827 391.798 255.173 392.058 255.615C392.318 256.056 392.448 256.548 392.448 257.092C392.448 257.643 392.318 258.144 392.058 258.593C391.798 259.034 391.444 259.385 390.995 259.645C390.553 259.905 390.061 260.035 389.517 260.035ZM389.517 259.007C389.872 259.007 390.187 258.924 390.463 258.758C390.739 258.593 390.955 258.368 391.113 258.085C391.27 257.793 391.349 257.462 391.349 257.092C391.349 256.73 391.266 256.407 391.101 256.123C390.943 255.839 390.727 255.619 390.451 255.461C390.183 255.296 389.872 255.213 389.517 255.213C389.163 255.213 388.848 255.296 388.572 255.461C388.296 255.619 388.079 255.839 387.922 256.123C387.764 256.407 387.686 256.73 387.686 257.092C387.686 257.462 387.764 257.793 387.922 258.085C388.079 258.368 388.296 258.593 388.572 258.758C388.848 258.924 389.163 259.007 389.517 259.007ZM393.647 259.917V254.303H394.71V259.917H393.647ZM397.44 259.917V256.525C397.44 256.107 397.31 255.78 397.05 255.544C396.798 255.3 396.479 255.177 396.093 255.177C395.833 255.177 395.601 255.233 395.396 255.343C395.191 255.453 395.025 255.607 394.899 255.804C394.773 256.001 394.71 256.237 394.71 256.513L394.273 256.3C394.273 255.875 394.364 255.504 394.545 255.189C394.734 254.874 394.99 254.63 395.313 254.457C395.636 254.275 395.999 254.185 396.4 254.185C396.794 254.185 397.149 254.271 397.464 254.445C397.787 254.618 398.039 254.862 398.22 255.177C398.409 255.493 398.504 255.867 398.504 256.3V259.917H397.44ZM401.234 259.917V256.525C401.234 256.107 401.104 255.78 400.844 255.544C400.592 255.3 400.277 255.177 399.899 255.177C399.639 255.177 399.402 255.233 399.189 255.343C398.985 255.453 398.819 255.607 398.693 255.804C398.567 256.001 398.504 256.237 398.504 256.513L397.901 256.3C397.925 255.867 398.039 255.497 398.244 255.189C398.457 254.874 398.729 254.63 399.059 254.457C399.39 254.275 399.753 254.185 400.147 254.185C400.556 254.185 400.923 254.271 401.246 254.445C401.569 254.618 401.825 254.862 402.014 255.177C402.211 255.493 402.309 255.871 402.309 256.312V259.917H401.234ZM406.357 260.035C405.797 260.035 405.293 259.909 404.844 259.657C404.395 259.397 404.04 259.046 403.78 258.605C403.52 258.163 403.39 257.663 403.39 257.104C403.39 256.552 403.516 256.056 403.769 255.615C404.029 255.173 404.375 254.827 404.809 254.575C405.25 254.315 405.742 254.185 406.286 254.185C406.806 254.185 407.263 254.303 407.657 254.539C408.059 254.776 408.37 255.103 408.59 255.52C408.819 255.938 408.933 256.41 408.933 256.938C408.933 257.017 408.929 257.104 408.921 257.198C408.913 257.285 408.898 257.387 408.874 257.506H404.135V256.619H408.307L407.917 256.962C407.917 256.584 407.85 256.265 407.716 256.005C407.582 255.737 407.393 255.532 407.149 255.39C406.904 255.24 406.609 255.166 406.262 255.166C405.9 255.166 405.581 255.244 405.305 255.402C405.029 255.56 404.816 255.78 404.667 256.064C404.517 256.347 404.442 256.682 404.442 257.068C404.442 257.462 404.521 257.809 404.679 258.108C404.836 258.4 405.061 258.628 405.352 258.794C405.644 258.951 405.979 259.03 406.357 259.03C406.672 259.03 406.96 258.975 407.22 258.865C407.487 258.754 407.716 258.589 407.905 258.368L408.59 259.066C408.323 259.381 407.992 259.621 407.598 259.787C407.212 259.952 406.798 260.035 406.357 260.035Z" fill="#29A653"/>
<rect x="54.9999" y="291.856" width="383.106" height="51.2121" rx="3.93939" fill="#F2F2F3"/>
<path d="M82.8218 311.479L81.6646 310.322L72.1526 319.834V314.426H70.5112V322.633H78.7183V320.991H73.3098L82.8218 311.479Z" fill="#D90404"/>
<path d="M97.6556 322.477V311.542H99.1368V322.477H97.6556ZM106.761 322.477V318.112C106.761 317.545 106.582 317.078 106.225 316.71C105.868 316.342 105.405 316.159 104.838 316.159C104.46 316.159 104.124 316.243 103.83 316.411C103.535 316.579 103.304 316.81 103.136 317.104C102.968 317.398 102.884 317.734 102.884 318.112L102.301 317.782C102.301 317.214 102.427 316.71 102.679 316.269C102.931 315.828 103.283 315.481 103.735 315.229C104.187 314.966 104.696 314.835 105.264 314.835C105.831 314.835 106.33 314.977 106.761 315.26C107.202 315.544 107.548 315.917 107.801 316.379C108.053 316.831 108.179 317.314 108.179 317.829V322.477H106.761ZM101.466 322.477V314.992H102.884V322.477H101.466ZM112.667 322.477L109.232 314.992H110.808L113.565 321.311H112.652L115.425 314.992H116.938L113.502 322.477H112.667ZM121.274 322.635C120.539 322.635 119.877 322.462 119.288 322.115C118.7 321.768 118.233 321.301 117.886 320.712C117.539 320.114 117.366 319.447 117.366 318.711C117.366 317.986 117.539 317.335 117.886 316.757C118.233 316.169 118.7 315.702 119.288 315.355C119.877 315.008 120.539 314.835 121.274 314.835C121.999 314.835 122.655 315.008 123.244 315.355C123.842 315.691 124.315 316.153 124.662 316.742C125.008 317.33 125.182 317.986 125.182 318.711C125.182 319.447 125.008 320.114 124.662 320.712C124.315 321.301 123.842 321.768 123.244 322.115C122.655 322.462 121.999 322.635 121.274 322.635ZM121.274 321.264C121.747 321.264 122.167 321.154 122.534 320.933C122.902 320.712 123.191 320.413 123.401 320.035C123.611 319.646 123.716 319.205 123.716 318.711C123.716 318.228 123.606 317.797 123.385 317.419C123.175 317.041 122.886 316.747 122.519 316.537C122.162 316.316 121.747 316.206 121.274 316.206C120.801 316.206 120.381 316.316 120.013 316.537C119.646 316.747 119.357 317.041 119.147 317.419C118.937 317.797 118.831 318.228 118.831 318.711C118.831 319.205 118.937 319.646 119.147 320.035C119.357 320.413 119.646 320.712 120.013 320.933C120.381 321.154 120.801 321.264 121.274 321.264ZM126.795 322.477V314.992H128.214V322.477H126.795ZM127.505 313.495C127.242 313.495 127.027 313.411 126.858 313.243C126.69 313.065 126.606 312.844 126.606 312.582C126.606 312.329 126.69 312.119 126.858 311.951C127.027 311.773 127.242 311.683 127.505 311.683C127.767 311.683 127.983 311.773 128.151 311.951C128.319 312.119 128.403 312.329 128.403 312.582C128.403 312.844 128.319 313.065 128.151 313.243C127.983 313.411 127.767 313.495 127.505 313.495ZM133.723 322.635C132.988 322.635 132.321 322.462 131.722 322.115C131.133 321.768 130.666 321.301 130.319 320.712C129.983 320.114 129.815 319.452 129.815 318.727C129.815 317.992 129.983 317.33 130.319 316.742C130.666 316.153 131.133 315.691 131.722 315.355C132.321 315.008 132.988 314.835 133.723 314.835C134.301 314.835 134.837 314.945 135.33 315.166C135.824 315.376 136.249 315.686 136.607 316.095L135.661 317.041C135.43 316.768 135.146 316.563 134.81 316.426C134.485 316.279 134.122 316.206 133.723 316.206C133.25 316.206 132.83 316.316 132.462 316.537C132.095 316.747 131.806 317.041 131.596 317.419C131.386 317.797 131.281 318.233 131.281 318.727C131.281 319.221 131.386 319.657 131.596 320.035C131.806 320.413 132.095 320.712 132.462 320.933C132.83 321.154 133.25 321.264 133.723 321.264C134.122 321.264 134.485 321.196 134.81 321.059C135.146 320.912 135.435 320.702 135.677 320.429L136.607 321.374C136.26 321.773 135.835 322.083 135.33 322.304C134.837 322.525 134.301 322.635 133.723 322.635ZM141.326 322.635C140.58 322.635 139.908 322.467 139.309 322.131C138.71 321.784 138.237 321.316 137.891 320.728C137.544 320.14 137.371 319.473 137.371 318.727C137.371 317.992 137.539 317.33 137.875 316.742C138.222 316.153 138.684 315.691 139.262 315.355C139.85 315.008 140.506 314.835 141.231 314.835C141.925 314.835 142.534 314.992 143.059 315.308C143.595 315.623 144.01 316.059 144.304 316.615C144.609 317.172 144.761 317.803 144.761 318.506C144.761 318.611 144.756 318.727 144.745 318.853C144.735 318.969 144.714 319.105 144.682 319.263H138.363V318.081H143.926L143.406 318.538C143.406 318.034 143.317 317.608 143.138 317.262C142.959 316.904 142.707 316.631 142.382 316.442C142.056 316.243 141.662 316.143 141.2 316.143C140.717 316.143 140.291 316.248 139.923 316.458C139.556 316.668 139.272 316.962 139.073 317.34C138.873 317.719 138.773 318.165 138.773 318.68C138.773 319.205 138.878 319.667 139.088 320.066C139.298 320.455 139.598 320.76 139.986 320.98C140.375 321.19 140.822 321.295 141.326 321.295C141.746 321.295 142.13 321.222 142.476 321.075C142.833 320.928 143.138 320.707 143.39 320.413L144.304 321.343C143.947 321.763 143.506 322.083 142.98 322.304C142.466 322.525 141.914 322.635 141.326 322.635ZM153.777 322.477L155.447 311.542H156.66L154.99 322.477H153.777ZM149.301 319.105V317.955H157.369V319.105H149.301ZM150.404 322.477L152.075 311.542H153.288L151.618 322.477H150.404ZM149.79 315.843V314.693H157.858V315.843H149.79ZM159.144 321.579L163.178 317.325C163.588 316.904 163.908 316.542 164.14 316.237C164.371 315.922 164.533 315.633 164.628 315.371C164.733 315.108 164.786 314.835 164.786 314.551C164.786 313.994 164.607 313.559 164.25 313.243C163.893 312.928 163.43 312.771 162.863 312.771C162.306 312.771 161.818 312.907 161.398 313.18C160.978 313.443 160.605 313.853 160.279 314.409L159.239 313.543C159.67 312.828 160.19 312.293 160.799 311.935C161.408 311.568 162.112 311.384 162.91 311.384C163.583 311.384 164.166 311.515 164.66 311.778C165.164 312.041 165.552 312.408 165.826 312.881C166.099 313.354 166.235 313.905 166.235 314.535C166.235 314.987 166.178 315.392 166.062 315.749C165.957 316.106 165.763 316.474 165.479 316.852C165.206 317.22 164.822 317.661 164.329 318.175L161.067 321.532L159.144 321.579ZM159.144 322.477V321.579L160.405 321.154H166.487V322.477H159.144ZM168.94 322.477L173.037 312.408L174.502 312.455L170.5 322.477H168.94ZM167.222 312.865V311.542H174.502V312.455L173.856 312.865H167.222ZM175.379 321.579L179.413 317.325C179.823 316.904 180.143 316.542 180.374 316.237C180.605 315.922 180.768 315.633 180.863 315.371C180.968 315.108 181.02 314.835 181.02 314.551C181.02 313.994 180.842 313.559 180.484 313.243C180.127 312.928 179.665 312.771 179.098 312.771C178.541 312.771 178.053 312.907 177.632 313.18C177.212 313.443 176.839 313.853 176.514 314.409L175.474 313.543C175.904 312.828 176.424 312.293 177.034 311.935C177.643 311.568 178.347 311.384 179.145 311.384C179.817 311.384 180.4 311.515 180.894 311.778C181.398 312.041 181.787 312.408 182.06 312.881C182.333 313.354 182.47 313.905 182.47 314.535C182.47 314.987 182.412 315.392 182.297 315.749C182.192 316.106 181.997 316.474 181.714 316.852C181.44 317.22 181.057 317.661 180.563 318.175L177.301 321.532L175.379 321.579ZM175.379 322.477V321.579L176.64 321.154H182.722V322.477H175.379ZM187.292 322.635C186.546 322.635 185.879 322.504 185.291 322.241C184.713 321.968 184.224 321.574 183.825 321.059L184.834 320.051C185.075 320.418 185.406 320.712 185.827 320.933C186.257 321.143 186.735 321.248 187.26 321.248C187.754 321.248 188.185 321.154 188.553 320.965C188.931 320.775 189.225 320.513 189.435 320.177C189.656 319.83 189.766 319.42 189.766 318.948C189.766 318.464 189.661 318.055 189.451 317.719C189.241 317.382 188.957 317.13 188.6 316.962C188.253 316.784 187.87 316.694 187.45 316.694C187.019 316.694 186.625 316.747 186.268 316.852C185.921 316.957 185.59 317.135 185.275 317.388L185.291 316.442C185.469 316.222 185.674 316.043 185.905 315.906C186.136 315.77 186.399 315.665 186.693 315.591C186.987 315.518 187.329 315.481 187.717 315.481C188.474 315.481 189.115 315.639 189.64 315.954C190.165 316.269 190.564 316.694 190.837 317.23C191.121 317.766 191.263 318.365 191.263 319.026C191.263 319.72 191.09 320.34 190.743 320.886C190.407 321.432 189.939 321.863 189.34 322.178C188.742 322.483 188.059 322.635 187.292 322.635ZM185.275 317.388L184.471 316.584L184.96 311.542H186.315L185.763 316.726L185.275 317.388ZM185.259 312.865L184.96 311.542H190.711V312.865H185.259Z" fill="#3F4346"/>
<path d="M279.243 320.977L277.009 317.077V316.557H277.269C277.687 316.557 278.037 316.518 278.321 316.439C278.613 316.36 278.841 316.23 279.007 316.049C279.172 315.868 279.27 315.62 279.302 315.305H277.009V314.548H279.29C279.235 314.257 279.125 314.02 278.959 313.839C278.794 313.65 278.569 313.512 278.286 313.425C278.01 313.339 277.671 313.295 277.269 313.295H277.009V312.539H281.902V313.295H279.668C279.85 313.445 279.999 313.622 280.117 313.827C280.236 314.032 280.31 314.272 280.342 314.548H281.902V315.305H280.366C280.31 315.88 280.09 316.329 279.704 316.652C279.326 316.967 278.821 317.168 278.191 317.255L280.448 320.977H279.243ZM283.229 320.304L286.254 317.113C286.561 316.798 286.802 316.526 286.975 316.297C287.148 316.061 287.271 315.844 287.341 315.647C287.42 315.45 287.46 315.245 287.46 315.033C287.46 314.615 287.326 314.288 287.058 314.052C286.79 313.815 286.443 313.697 286.018 313.697C285.6 313.697 285.234 313.8 284.919 314.005C284.604 314.202 284.324 314.509 284.08 314.926L283.3 314.276C283.623 313.741 284.013 313.339 284.47 313.071C284.927 312.795 285.455 312.657 286.053 312.657C286.558 312.657 286.995 312.756 287.365 312.953C287.743 313.15 288.035 313.425 288.24 313.78C288.445 314.135 288.547 314.548 288.547 315.021C288.547 315.36 288.504 315.663 288.417 315.931C288.338 316.199 288.192 316.475 287.98 316.758C287.775 317.034 287.487 317.365 287.117 317.751L284.671 320.268L283.229 320.304ZM283.229 320.977V320.304L284.174 319.985H288.736V320.977H283.229ZM292.152 321.095C291.616 321.095 291.127 320.997 290.686 320.8C290.253 320.595 289.887 320.3 289.587 319.914L290.343 319.157C290.525 319.433 290.773 319.654 291.088 319.819C291.403 319.977 291.754 320.055 292.14 320.055C292.502 320.055 292.813 319.989 293.073 319.855C293.341 319.713 293.55 319.516 293.7 319.264C293.857 319.012 293.936 318.72 293.936 318.389C293.936 318.05 293.857 317.759 293.7 317.515C293.55 317.262 293.337 317.069 293.062 316.935C292.786 316.802 292.459 316.735 292.081 316.735C291.939 316.735 291.797 316.746 291.655 316.77C291.513 316.786 291.376 316.813 291.242 316.853L291.714 316.215C291.864 316.144 292.026 316.089 292.199 316.049C292.372 316.01 292.546 315.99 292.719 315.99C293.16 315.99 293.554 316.092 293.901 316.297C294.255 316.502 294.535 316.79 294.74 317.16C294.953 317.53 295.059 317.96 295.059 318.448C295.059 318.968 294.933 319.429 294.681 319.831C294.437 320.225 294.098 320.536 293.664 320.765C293.231 320.985 292.727 321.095 292.152 321.095ZM291.242 316.853V316.179L293.641 313.449L294.964 313.437L292.494 316.238L291.242 316.853ZM289.977 313.768V312.775H294.964V313.437L293.995 313.768H289.977ZM296.096 322.277L296.829 320.871L297.207 320.776C297.168 320.863 297.116 320.934 297.053 320.989C296.998 321.044 296.927 321.072 296.841 321.072C296.675 321.072 296.522 321.005 296.38 320.871C296.246 320.729 296.179 320.556 296.179 320.351C296.179 320.122 296.254 319.933 296.403 319.784C296.553 319.626 296.742 319.547 296.971 319.547C297.176 319.547 297.357 319.626 297.514 319.784C297.672 319.933 297.751 320.122 297.751 320.351C297.751 320.438 297.731 320.544 297.692 320.67C297.66 320.788 297.593 320.942 297.491 321.131L296.711 322.608L296.096 322.277ZM299.626 320.977L302.096 317.609L302.498 317.396C302.403 317.554 302.289 317.692 302.155 317.81C302.021 317.928 301.855 318.019 301.658 318.082C301.469 318.145 301.237 318.176 300.961 318.176C300.488 318.176 300.051 318.062 299.649 317.834C299.255 317.605 298.94 317.29 298.704 316.888C298.468 316.479 298.349 316.018 298.349 315.505C298.349 314.978 298.479 314.501 298.739 314.075C298.999 313.642 299.346 313.299 299.779 313.047C300.213 312.787 300.693 312.657 301.221 312.657C301.757 312.657 302.242 312.783 302.675 313.035C303.108 313.288 303.451 313.626 303.703 314.052C303.955 314.469 304.081 314.942 304.081 315.47C304.081 316.195 303.829 316.916 303.325 317.633L300.914 320.977H299.626ZM301.221 317.302C301.552 317.302 301.848 317.223 302.108 317.065C302.375 316.9 302.584 316.683 302.734 316.415C302.892 316.14 302.97 315.836 302.97 315.505C302.97 315.159 302.892 314.852 302.734 314.584C302.584 314.308 302.375 314.091 302.108 313.934C301.848 313.776 301.552 313.697 301.221 313.697C300.89 313.697 300.591 313.776 300.323 313.934C300.063 314.091 299.854 314.308 299.697 314.584C299.539 314.852 299.46 315.159 299.46 315.505C299.46 315.844 299.539 316.148 299.697 316.415C299.854 316.683 300.067 316.9 300.335 317.065C300.603 317.223 300.898 317.302 301.221 317.302ZM305.821 320.977L308.894 313.425L309.993 313.461L306.991 320.977H305.821ZM304.533 313.768V312.775H309.993V313.461L309.509 313.768H304.533ZM310.651 320.304L313.676 317.113C313.983 316.798 314.224 316.526 314.397 316.297C314.57 316.061 314.692 315.844 314.763 315.647C314.842 315.45 314.882 315.245 314.882 315.033C314.882 314.615 314.748 314.288 314.48 314.052C314.212 313.815 313.865 313.697 313.44 313.697C313.022 313.697 312.656 313.8 312.341 314.005C312.025 314.202 311.746 314.509 311.502 314.926L310.722 314.276C311.045 313.741 311.435 313.339 311.892 313.071C312.349 312.795 312.876 312.657 313.475 312.657C313.979 312.657 314.417 312.756 314.787 312.953C315.165 313.15 315.457 313.425 315.662 313.78C315.866 314.135 315.969 314.548 315.969 315.021C315.969 315.36 315.925 315.663 315.839 315.931C315.76 316.199 315.614 316.475 315.402 316.758C315.197 317.034 314.909 317.365 314.539 317.751L312.092 320.268L310.651 320.304ZM310.651 320.977V320.304L311.596 319.985H316.158V320.977H310.651Z" fill="#3F4346"/>
<rect x="326.924" y="301.705" width="98.4848" height="29.5455" rx="3.93939" fill="#FFC8C8"/>
<path d="M358.685 311.479L357.528 310.322L348.016 319.834V314.426H346.375V322.633H354.582V320.991H349.173L358.685 311.479Z" fill="#D90404"/>
<path d="M371.971 317.786V316.817H374.205C374.512 316.817 374.784 316.754 375.02 316.628C375.264 316.502 375.453 316.325 375.587 316.096C375.729 315.868 375.8 315.596 375.8 315.281C375.8 314.966 375.729 314.694 375.587 314.465C375.453 314.237 375.264 314.06 375.02 313.934C374.784 313.808 374.512 313.745 374.205 313.745H371.971V312.775H374.276C374.78 312.775 375.229 312.878 375.623 313.083C376.025 313.288 376.34 313.579 376.568 313.957C376.805 314.328 376.923 314.769 376.923 315.281C376.923 315.785 376.805 316.226 376.568 316.605C376.34 316.975 376.025 317.266 375.623 317.479C375.229 317.684 374.78 317.786 374.276 317.786H371.971ZM371.226 320.977V312.775H372.337V320.977H371.226ZM380.269 321.095C379.756 321.095 379.292 320.969 378.874 320.717C378.456 320.457 378.126 320.107 377.881 319.665C377.645 319.224 377.527 318.728 377.527 318.176C377.527 317.625 377.645 317.129 377.881 316.687C378.126 316.246 378.452 315.895 378.862 315.635C379.28 315.375 379.749 315.245 380.269 315.245C380.694 315.245 381.072 315.336 381.403 315.517C381.742 315.691 382.014 315.935 382.219 316.25C382.423 316.557 382.538 316.916 382.561 317.325V319.015C382.538 319.417 382.423 319.776 382.219 320.091C382.022 320.406 381.754 320.654 381.415 320.835C381.084 321.009 380.702 321.095 380.269 321.095ZM380.446 320.091C380.974 320.091 381.399 319.914 381.722 319.559C382.045 319.197 382.207 318.736 382.207 318.176C382.207 317.79 382.132 317.455 381.982 317.172C381.84 316.88 381.636 316.656 381.368 316.498C381.1 316.333 380.789 316.25 380.434 316.25C380.079 316.25 379.764 316.333 379.489 316.498C379.221 316.664 379.008 316.892 378.85 317.184C378.701 317.467 378.626 317.794 378.626 318.165C378.626 318.543 378.701 318.878 378.85 319.169C379.008 319.453 379.225 319.677 379.5 319.843C379.776 320.008 380.091 320.091 380.446 320.091ZM382.136 320.977V319.465L382.337 318.094L382.136 316.735V315.364H383.211V320.977H382.136ZM386.603 321.025L384.169 315.364H385.351L387.159 319.795H386.781L388.683 315.364H389.865L387.242 321.025H386.603ZM384.996 323.329L386.651 319.937L387.242 321.025L386.178 323.329H384.996ZM390.692 320.977V315.364H391.756V320.977H390.692ZM391.756 317.775L391.354 317.597C391.354 316.88 391.519 316.309 391.85 315.884C392.181 315.458 392.658 315.245 393.28 315.245C393.564 315.245 393.82 315.297 394.048 315.399C394.277 315.494 394.49 315.655 394.687 315.884L393.989 316.605C393.871 316.479 393.741 316.388 393.599 316.333C393.457 316.278 393.292 316.25 393.103 316.25C392.709 316.25 392.386 316.376 392.134 316.628C391.882 316.88 391.756 317.262 391.756 317.775ZM397.815 321.095C397.264 321.095 396.767 320.965 396.326 320.705C395.885 320.445 395.534 320.095 395.274 319.654C395.014 319.205 394.884 318.704 394.884 318.153C394.884 317.609 395.014 317.121 395.274 316.687C395.534 316.246 395.885 315.895 396.326 315.635C396.767 315.375 397.264 315.245 397.815 315.245C398.359 315.245 398.851 315.375 399.293 315.635C399.742 315.888 400.096 316.234 400.356 316.675C400.616 317.117 400.746 317.609 400.746 318.153C400.746 318.704 400.616 319.205 400.356 319.654C400.096 320.095 399.742 320.445 399.293 320.705C398.851 320.965 398.359 321.095 397.815 321.095ZM397.815 320.067C398.17 320.067 398.485 319.985 398.761 319.819C399.037 319.654 399.253 319.429 399.411 319.145C399.568 318.854 399.647 318.523 399.647 318.153C399.647 317.79 399.564 317.467 399.399 317.184C399.241 316.9 399.025 316.679 398.749 316.522C398.481 316.356 398.17 316.274 397.815 316.274C397.461 316.274 397.146 316.356 396.87 316.522C396.594 316.679 396.377 316.9 396.22 317.184C396.062 317.467 395.984 317.79 395.984 318.153C395.984 318.523 396.062 318.854 396.22 319.145C396.377 319.429 396.594 319.654 396.87 319.819C397.146 319.985 397.461 320.067 397.815 320.067ZM401.945 320.977V312.539H403.008V320.977H401.945ZM404.565 320.977V312.539H405.628V320.977H404.565Z" fill="#D90404"/>
</svg>
