<svg width="516" height="500" viewBox="0 0 516 500" fill="none" xmlns="http://www.w3.org/2000/svg">
<rect x="7.67383" width="500" height="500" rx="6.66667" fill="#E9ECFF"/>
<g filter="url(#filter0_d_2007_7140)">
<rect x="26.8268" y="259.553" width="222.644" height="198.126" rx="25.5182" fill="white" stroke="#EFF0F6" stroke-width="1.30863"/>
<rect x="265.247" y="259.553" width="222.644" height="198.126" rx="25.5182" fill="white" stroke="#EFF0F6" stroke-width="1.30863"/>
<path d="M59.1468 365.193C57.4292 365.193 55.9012 364.914 54.5629 364.357C53.2319 363.792 52.1872 363.022 51.4288 362.048C50.6704 361.074 50.2912 359.97 50.2912 358.736C50.2912 357.784 50.5069 356.91 50.9381 356.115C51.3768 355.312 51.9716 354.646 52.7226 354.118C53.4736 353.583 54.3138 353.241 55.2432 353.092V352.936C54.0238 352.691 53.0349 352.099 52.2765 351.163C51.5181 350.218 51.1389 349.122 51.1389 347.872C51.1389 346.69 51.4846 345.638 52.1761 344.716C52.8676 343.787 53.8156 343.058 55.0201 342.53C56.2321 341.995 57.6076 341.727 59.1468 341.727C60.6859 341.727 62.0577 341.995 63.2622 342.53C64.4742 343.065 65.4259 343.798 66.1174 344.727C66.8089 345.649 67.1584 346.698 67.1658 347.872C67.1584 349.129 66.7717 350.226 66.0059 351.163C65.24 352.099 64.2586 352.691 63.0615 352.936V353.092C63.976 353.241 64.8051 353.583 65.5486 354.118C66.2996 354.646 66.8944 355.312 67.3331 356.115C67.7792 356.91 68.006 357.784 68.0134 358.736C68.006 359.97 67.6231 361.074 66.8647 362.048C66.1063 363.022 65.0579 363.792 63.7195 364.357C62.3886 364.914 60.8643 365.193 59.1468 365.193ZM59.1468 361.646C59.9126 361.646 60.5818 361.509 61.1543 361.234C61.7268 360.951 62.173 360.565 62.4927 360.074C62.8198 359.576 62.9834 359.003 62.9834 358.356C62.9834 357.695 62.8161 357.111 62.4815 356.605C62.1469 356.092 61.6934 355.691 61.1208 355.401C60.5483 355.103 59.8903 354.955 59.1468 354.955C58.4107 354.955 57.7526 355.103 57.1727 355.401C56.5927 355.691 56.1354 356.092 55.8008 356.605C55.4737 357.111 55.3101 357.695 55.3101 358.356C55.3101 359.003 55.47 359.576 55.7897 360.074C56.1094 360.565 56.5592 360.951 57.1392 361.234C57.7192 361.509 58.3883 361.646 59.1468 361.646ZM59.1468 351.441C59.7862 351.441 60.355 351.311 60.8532 351.051C61.3513 350.791 61.7417 350.43 62.0242 349.969C62.3068 349.508 62.4481 348.977 62.4481 348.374C62.4481 347.78 62.3068 347.259 62.0242 346.813C61.7417 346.359 61.3551 346.006 60.8643 345.753C60.3736 345.493 59.8011 345.363 59.1468 345.363C58.4999 345.363 57.9274 345.493 57.4292 345.753C56.931 346.006 56.5407 346.359 56.2581 346.813C55.983 347.259 55.8455 347.78 55.8455 348.374C55.8455 348.977 55.9867 349.508 56.2693 349.969C56.5518 350.43 56.9422 350.791 57.4403 351.051C57.9385 351.311 58.5073 351.441 59.1468 351.441ZM80.1563 365.193C78.9815 365.186 77.8476 364.989 76.7546 364.602C75.6691 364.215 74.695 363.587 73.8325 362.717C72.97 361.847 72.286 360.695 71.7804 359.26C71.2822 357.825 71.0331 356.063 71.0331 353.973C71.0406 352.055 71.2599 350.341 71.6912 348.832C72.1298 347.315 72.7544 346.028 73.5649 344.973C74.3828 343.917 75.3605 343.114 76.4981 342.564C77.6357 342.006 78.9109 341.727 80.3236 341.727C81.8479 341.727 83.1937 342.025 84.361 342.619C85.5284 343.207 86.4652 344.006 87.1716 345.017C87.8854 346.028 88.3166 347.162 88.4654 348.419H83.703C83.5171 347.623 83.1268 346.999 82.5319 346.545C81.9371 346.092 81.201 345.865 80.3236 345.865C78.8365 345.865 77.7064 346.512 76.9331 347.806C76.1672 349.099 75.7769 350.858 75.762 353.081H75.9182C76.2602 352.404 76.7212 351.828 77.3011 351.352C77.8885 350.869 78.554 350.501 79.2975 350.248C80.0485 349.988 80.8404 349.858 81.6731 349.858C83.0264 349.858 84.2309 350.177 85.2867 350.817C86.3426 351.449 87.1753 352.319 87.785 353.427C88.3947 354.535 88.6996 355.802 88.6996 357.23C88.6996 358.776 88.339 360.152 87.6177 361.356C86.9039 362.561 85.9039 363.505 84.6175 364.189C83.3387 364.866 81.8516 365.201 80.1563 365.193ZM80.134 361.401C80.8776 361.401 81.543 361.223 82.1304 360.866C82.7178 360.509 83.1788 360.026 83.5134 359.416C83.848 358.806 84.0153 358.122 84.0153 357.364C84.0153 356.605 83.848 355.925 83.5134 355.323C83.1862 354.72 82.7327 354.241 82.1527 353.884C81.5728 353.527 80.911 353.349 80.1675 353.349C79.6098 353.349 79.0931 353.453 78.6172 353.661C78.1488 353.869 77.7361 354.159 77.3792 354.531C77.0298 354.903 76.7546 355.334 76.5539 355.825C76.3531 356.308 76.2528 356.825 76.2528 357.375C76.2528 358.111 76.4201 358.784 76.7546 359.394C77.0967 360.003 77.5577 360.49 78.1376 360.855C78.725 361.219 79.3905 361.401 80.134 361.401ZM104.626 360.598V359.394C104.626 358.479 104.819 357.639 105.206 356.873C105.6 356.1 106.169 355.483 106.913 355.022C107.663 354.553 108.578 354.319 109.656 354.319C110.749 354.319 111.667 354.549 112.411 355.01C113.162 355.471 113.727 356.089 114.106 356.862C114.493 357.628 114.686 358.472 114.686 359.394V360.598C114.686 361.513 114.493 362.357 114.106 363.13C113.72 363.896 113.151 364.509 112.4 364.97C111.649 365.439 110.734 365.673 109.656 365.673C108.563 365.673 107.645 365.439 106.901 364.97C106.158 364.509 105.593 363.896 105.206 363.13C104.819 362.357 104.626 361.513 104.626 360.598ZM107.872 359.394V360.598C107.872 361.126 107.998 361.624 108.251 362.093C108.511 362.561 108.98 362.795 109.656 362.795C110.333 362.795 110.794 362.565 111.039 362.104C111.292 361.643 111.418 361.141 111.418 360.598V359.394C111.418 358.851 111.299 358.345 111.061 357.877C110.824 357.408 110.355 357.174 109.656 357.174C108.987 357.174 108.522 357.408 108.262 357.877C108.002 358.345 107.872 358.851 107.872 359.394ZM92.9043 347.527V346.322C92.9043 345.4 93.1013 344.556 93.4954 343.79C93.8895 343.017 94.4583 342.4 95.2018 341.939C95.9528 341.478 96.8599 341.248 97.9231 341.248C99.0236 341.248 99.9456 341.478 100.689 341.939C101.433 342.4 101.998 343.017 102.384 343.79C102.771 344.556 102.964 345.4 102.964 346.322V347.527C102.964 348.449 102.767 349.293 102.373 350.058C101.987 350.824 101.418 351.438 100.667 351.899C99.9233 352.352 99.0087 352.579 97.9231 352.579C96.8376 352.579 95.9193 352.349 95.1683 351.888C94.4248 351.419 93.8597 350.806 93.4731 350.047C93.0939 349.281 92.9043 348.441 92.9043 347.527ZM96.1721 346.322V347.527C96.1721 348.069 96.2985 348.571 96.5513 349.032C96.8116 349.493 97.2688 349.724 97.9231 349.724C98.6072 349.724 99.0719 349.493 99.3173 349.032C99.5701 348.571 99.6965 348.069 99.6965 347.527V346.322C99.6965 345.779 99.5775 345.274 99.3396 344.805C99.1017 344.337 98.6295 344.103 97.9231 344.103C97.2614 344.103 96.8041 344.341 96.5513 344.817C96.2985 345.292 96.1721 345.794 96.1721 346.322ZM94.3765 364.881L110.08 342.039H113.002L97.2986 364.881H94.3765Z" fill="black"/>
<path d="M56.9422 308.832C55.9773 308.832 55.0857 308.661 54.2674 308.319C53.4613 307.965 52.7529 307.47 52.1422 306.835C51.5437 306.2 51.0796 305.455 50.7498 304.6C50.42 303.745 50.2551 302.811 50.2551 301.797C50.2551 300.771 50.42 299.831 50.7498 298.976C51.0796 298.121 51.5437 297.376 52.1422 296.74C52.7407 296.105 53.4491 295.617 54.2674 295.275C55.0857 294.921 55.9773 294.743 56.9422 294.743C57.8827 294.743 58.7254 294.908 59.4705 295.238C60.2277 295.568 60.8629 295.995 61.3758 296.521C61.901 297.046 62.2736 297.608 62.4934 298.206L60.8445 298.957C60.527 298.2 60.0323 297.589 59.3606 297.125C58.6888 296.649 57.8827 296.411 56.9422 296.411C55.9895 296.411 55.1407 296.637 54.3956 297.089C53.6628 297.54 53.0887 298.169 52.6735 298.976C52.2582 299.782 52.0506 300.722 52.0506 301.797C52.0506 302.86 52.2582 303.794 52.6735 304.6C53.0887 305.406 53.6628 306.035 54.3956 306.487C55.1407 306.939 55.9895 307.165 56.9422 307.165C57.8827 307.165 58.6888 306.933 59.3606 306.469C60.0323 305.992 60.527 305.376 60.8445 304.618L62.4934 305.37C62.2736 305.968 61.901 306.53 61.3758 307.055C60.8629 307.58 60.2277 308.008 59.4705 308.337C58.7254 308.667 57.8827 308.832 56.9422 308.832ZM64.5324 308.612V298.737H66.1996V300.551L66.0164 300.295C66.2485 299.733 66.6027 299.318 67.079 299.049C67.5554 298.768 68.1355 298.627 68.8195 298.627H69.4241V300.24H68.563C67.8668 300.24 67.305 300.46 66.8775 300.899C66.45 301.327 66.2363 301.937 66.2363 302.731V308.612H64.5324ZM75.2796 308.832C74.3269 308.832 73.478 308.606 72.733 308.154C71.9879 307.702 71.4017 307.086 70.9742 306.304C70.5467 305.51 70.333 304.624 70.333 303.647C70.333 302.658 70.5406 301.779 70.9559 301.009C71.3834 300.24 71.9574 299.635 72.678 299.195C73.4109 298.744 74.2292 298.518 75.133 298.518C75.8658 298.518 76.5132 298.652 77.075 298.921C77.6491 299.177 78.1315 299.531 78.5223 299.983C78.9254 300.423 79.2307 300.93 79.4384 301.504C79.6582 302.066 79.7682 302.652 79.7682 303.263C79.7682 303.397 79.7559 303.55 79.7315 303.721C79.7193 303.879 79.701 304.032 79.6766 304.179H71.5788V302.713H78.6872L77.8811 303.373C77.991 302.737 77.93 302.17 77.6979 301.669C77.4658 301.168 77.1239 300.771 76.6719 300.478C76.22 300.185 75.7071 300.038 75.133 300.038C74.559 300.038 74.0338 300.185 73.5574 300.478C73.0811 300.771 72.7086 301.192 72.4399 301.742C72.1834 302.279 72.0795 302.921 72.1284 303.666C72.0795 304.386 72.1895 305.021 72.4582 305.571C72.7391 306.108 73.1299 306.53 73.6307 306.835C74.1437 307.128 74.6994 307.275 75.2979 307.275C75.9574 307.275 76.5132 307.122 76.9651 306.817C77.417 306.512 77.7834 306.121 78.0643 305.644L79.4933 306.377C79.2979 306.829 78.9926 307.244 78.5773 307.623C78.1742 307.989 77.6918 308.283 77.13 308.502C76.5803 308.722 75.9635 308.832 75.2796 308.832ZM86.2767 308.832C85.3485 308.832 84.5118 308.606 83.7668 308.154C83.034 307.702 82.4538 307.086 82.0263 306.304C81.5988 305.522 81.3851 304.649 81.3851 303.684C81.3851 302.695 81.5988 301.815 82.0263 301.046C82.4538 300.264 83.034 299.647 83.7668 299.195C84.5118 298.744 85.3485 298.518 86.2767 298.518C87.0951 298.518 87.8218 298.695 88.4569 299.049C89.092 299.391 89.5928 299.855 89.9592 300.441L89.6844 300.863V294.743H91.4066V308.612H89.7394V306.505L89.9592 306.799C89.6172 307.446 89.1165 307.947 88.4569 308.301C87.8096 308.655 87.0829 308.832 86.2767 308.832ZM86.4233 307.183C87.0462 307.183 87.6019 307.031 88.0905 306.725C88.5791 306.42 88.9638 306.005 89.2447 305.479C89.5378 304.942 89.6844 304.344 89.6844 303.684C89.6844 303.012 89.5378 302.414 89.2447 301.889C88.9638 301.351 88.5791 300.93 88.0905 300.624C87.6019 300.319 87.0462 300.166 86.4233 300.166C85.8126 300.166 85.2569 300.325 84.7561 300.643C84.2676 300.948 83.8828 301.363 83.6019 301.889C83.321 302.402 83.1805 303 83.1805 303.684C83.1805 304.344 83.321 304.942 83.6019 305.479C83.8828 306.005 84.2676 306.42 84.7561 306.725C85.2447 307.031 85.8004 307.183 86.4233 307.183ZM93.8422 308.612V298.737H95.546V308.612H93.8422ZM93.8422 297.162V294.963H95.546V297.162H93.8422ZM102.001 308.722C101.036 308.722 100.291 308.447 99.7654 307.898C99.2524 307.348 98.9959 306.573 98.9959 305.571V300.368H97.2005V298.737H97.5669C98.0066 298.737 98.3547 298.603 98.6112 298.334C98.8677 298.066 98.9959 297.711 98.9959 297.272V296.466H100.7V298.737H102.917V300.368H100.7V305.516C100.7 305.846 100.749 306.133 100.846 306.377C100.956 306.621 101.133 306.817 101.378 306.963C101.622 307.098 101.946 307.165 102.349 307.165C102.434 307.165 102.538 307.159 102.66 307.147C102.794 307.134 102.917 307.122 103.026 307.11V308.612C102.868 308.649 102.691 308.673 102.495 308.686C102.3 308.71 102.135 308.722 102.001 308.722ZM108.587 308.832C107.597 308.832 106.736 308.588 106.003 308.099C105.27 307.611 104.751 306.951 104.446 306.121L105.802 305.461C106.083 306.047 106.467 306.512 106.956 306.854C107.445 307.195 107.988 307.366 108.587 307.366C109.124 307.366 109.57 307.238 109.924 306.982C110.278 306.725 110.455 306.389 110.455 305.974C110.455 305.681 110.37 305.449 110.199 305.278C110.04 305.095 109.845 304.954 109.613 304.857C109.38 304.747 109.167 304.667 108.971 304.618L107.487 304.197C106.596 303.941 105.942 303.574 105.527 303.098C105.124 302.621 104.922 302.066 104.922 301.431C104.922 300.844 105.069 300.337 105.362 299.91C105.667 299.47 106.077 299.128 106.59 298.884C107.115 298.64 107.701 298.518 108.348 298.518C109.216 298.518 109.991 298.737 110.675 299.177C111.371 299.617 111.866 300.234 112.159 301.028L110.767 301.669C110.547 301.156 110.217 300.753 109.777 300.46C109.338 300.154 108.843 300.002 108.293 300.002C107.793 300.002 107.396 300.13 107.103 300.386C106.809 300.631 106.663 300.942 106.663 301.321C106.663 301.602 106.736 301.834 106.883 302.017C107.029 302.188 107.206 302.322 107.414 302.42C107.622 302.505 107.823 302.579 108.019 302.64L109.631 303.116C110.437 303.348 111.06 303.708 111.5 304.197C111.951 304.686 112.177 305.272 112.177 305.956C112.177 306.505 112.025 307 111.719 307.44C111.414 307.879 110.993 308.221 110.455 308.466C109.918 308.71 109.295 308.832 108.587 308.832Z" fill="black" fill-opacity="0.7"/>
<path opacity="0.1" fill-rule="evenodd" clip-rule="evenodd" d="M42.489 415.642C42.489 415.642 49.5716 414.604 57.6242 417.098C72.9396 421.839 73.8133 413.156 79.4924 408.969C84.6882 405.139 88.9913 407.476 94.7764 412.16C99.0432 415.615 105.262 421.415 111.701 420.481C117.588 419.628 121.761 412.826 129.92 411.096C136.387 409.725 141.643 413.491 149.089 412.16C159.191 410.355 163.703 399.725 170.923 399.725C179.834 399.725 186.108 390.734 194.214 390.734C202.273 390.734 203.367 396.021 212.182 399.725C218.921 402.556 222.164 399.725 222.164 399.725V430.067H42.489V415.642Z" fill="url(#paint0_linear_2007_7140)"/>
<path d="M42.4888 410.929C42.4888 410.929 49.5715 409.906 57.624 412.363C72.9395 417.036 73.8132 408.478 79.4923 404.352C84.6881 400.577 88.9912 402.881 94.7763 407.497C99.0431 410.902 105.261 416.617 111.701 415.697C117.588 414.856 121.761 408.153 129.92 406.448C136.387 405.097 141.642 408.809 149.089 407.497C159.191 405.718 163.703 395.242 170.923 395.242C179.834 395.242 186.108 386.36 194.214 386.36C202.273 386.36 202.701 391.591 211.516 395.242C218.256 398.032 222.164 395.242 222.164 395.242" stroke="#1A237E" stroke-width="2.61725" stroke-linecap="round" stroke-linejoin="round"/>
<path d="M305.008 342.171V365.013H300.178V346.755H300.045L294.814 350.034V345.751L300.468 342.171H305.008ZM310.091 360.998V357.194L319.627 342.171H322.906V347.435H320.965L314.953 356.949V357.127H328.504V360.998H310.091ZM321.054 365.013V359.838L321.143 358.154V342.171H325.671V365.013H321.054ZM344.225 360.73V359.525C344.225 358.611 344.418 357.771 344.805 357.005C345.199 356.232 345.767 355.614 346.511 355.153C347.262 354.685 348.176 354.451 349.255 354.451C350.348 354.451 351.266 354.681 352.009 355.142C352.76 355.603 353.325 356.22 353.705 356.994C354.091 357.759 354.285 358.603 354.285 359.525V360.73C354.285 361.644 354.091 362.488 353.705 363.262C353.318 364.028 352.749 364.641 351.998 365.102C351.247 365.57 350.333 365.805 349.255 365.805C348.162 365.805 347.243 365.57 346.5 365.102C345.756 364.641 345.191 364.028 344.805 363.262C344.418 362.488 344.225 361.644 344.225 360.73ZM347.47 359.525V360.73C347.47 361.258 347.597 361.756 347.849 362.224C348.11 362.693 348.578 362.927 349.255 362.927C349.931 362.927 350.392 362.697 350.638 362.236C350.89 361.775 351.017 361.273 351.017 360.73V359.525C351.017 358.983 350.898 358.477 350.66 358.009C350.422 357.54 349.954 357.306 349.255 357.306C348.585 357.306 348.121 357.54 347.86 358.009C347.6 358.477 347.47 358.983 347.47 359.525ZM332.503 347.659V346.454C332.503 345.532 332.7 344.688 333.094 343.922C333.488 343.149 334.057 342.532 334.8 342.071C335.551 341.61 336.458 341.379 337.522 341.379C338.622 341.379 339.544 341.61 340.288 342.071C341.031 342.532 341.596 343.149 341.983 343.922C342.369 344.688 342.563 345.532 342.563 346.454V347.659C342.563 348.581 342.366 349.424 341.972 350.19C341.585 350.956 341.016 351.57 340.265 352.031C339.522 352.484 338.607 352.711 337.522 352.711C336.436 352.711 335.518 352.48 334.767 352.019C334.023 351.551 333.458 350.938 333.072 350.179C332.692 349.413 332.503 348.573 332.503 347.659ZM335.771 346.454V347.659C335.771 348.201 335.897 348.703 336.15 349.164C336.41 349.625 336.867 349.856 337.522 349.856C338.206 349.856 338.67 349.625 338.916 349.164C339.169 348.703 339.295 348.201 339.295 347.659V346.454C339.295 345.911 339.176 345.406 338.938 344.937C338.7 344.469 338.228 344.235 337.522 344.235C336.86 344.235 336.403 344.472 336.15 344.948C335.897 345.424 335.771 345.926 335.771 346.454ZM333.975 365.013L349.678 342.171H352.601L336.897 365.013H333.975Z" fill="black"/>
<path d="M295.12 308.611V294.962H299.59C300.971 294.962 302.174 295.243 303.2 295.805C304.226 296.367 305.019 297.161 305.581 298.187C306.143 299.201 306.424 300.398 306.424 301.778C306.424 303.146 306.143 304.343 305.581 305.369C305.019 306.395 304.226 307.195 303.2 307.769C302.174 308.33 300.971 308.611 299.59 308.611H295.12ZM296.916 306.962H299.609C300.622 306.962 301.496 306.749 302.229 306.321C302.974 305.894 303.548 305.295 303.951 304.526C304.354 303.744 304.555 302.828 304.555 301.778C304.555 300.715 304.348 299.799 303.932 299.03C303.529 298.26 302.955 297.668 302.21 297.252C301.477 296.825 300.61 296.611 299.609 296.611H296.916V306.962ZM312.84 308.831C311.887 308.831 311.039 308.605 310.294 308.153C309.549 307.701 308.962 307.085 308.535 306.303C308.107 305.509 307.894 304.624 307.894 303.646C307.894 302.657 308.101 301.778 308.516 301.008C308.944 300.239 309.518 299.634 310.239 299.194C310.971 298.743 311.79 298.517 312.694 298.517C313.426 298.517 314.074 298.651 314.636 298.92C315.21 299.176 315.692 299.53 316.083 299.982C316.486 300.422 316.791 300.929 316.999 301.503C317.219 302.065 317.329 302.651 317.329 303.262C317.329 303.396 317.317 303.549 317.292 303.72C317.28 303.878 317.262 304.031 317.237 304.178H309.139V302.712H316.248L315.442 303.372C315.552 302.736 315.491 302.169 315.258 301.668C315.026 301.167 314.684 300.77 314.233 300.477C313.781 300.184 313.268 300.037 312.694 300.037C312.12 300.037 311.594 300.184 311.118 300.477C310.642 300.77 310.269 301.191 310 301.741C309.744 302.278 309.64 302.92 309.689 303.665C309.64 304.385 309.75 305.02 310.019 305.57C310.3 306.107 310.691 306.529 311.191 306.834C311.704 307.127 312.26 307.274 312.858 307.274C313.518 307.274 314.074 307.121 314.526 306.816C314.978 306.511 315.344 306.12 315.625 305.643L317.054 306.376C316.858 306.828 316.553 307.243 316.138 307.622C315.735 307.988 315.252 308.282 314.691 308.501C314.141 308.721 313.524 308.831 312.84 308.831ZM324.46 308.831C323.666 308.831 322.94 308.654 322.28 308.3C321.633 307.946 321.132 307.445 320.778 306.798L321.016 306.504V308.611H319.349V294.743H321.053V300.862L320.796 300.44C321.162 299.854 321.663 299.39 322.298 299.048C322.933 298.694 323.66 298.517 324.479 298.517C325.407 298.517 326.237 298.743 326.97 299.194C327.715 299.646 328.301 300.263 328.729 301.045C329.156 301.814 329.37 302.694 329.37 303.683C329.37 304.648 329.156 305.521 328.729 306.303C328.301 307.085 327.715 307.701 326.97 308.153C326.237 308.605 325.401 308.831 324.46 308.831ZM324.332 307.182C324.955 307.182 325.511 307.03 325.999 306.724C326.488 306.419 326.866 306.004 327.135 305.478C327.416 304.941 327.556 304.343 327.556 303.683C327.556 302.999 327.416 302.401 327.135 301.888C326.866 301.362 326.488 300.947 325.999 300.642C325.511 300.324 324.955 300.165 324.332 300.165C323.709 300.165 323.147 300.318 322.646 300.623C322.158 300.929 321.767 301.35 321.474 301.888C321.193 302.413 321.053 303.011 321.053 303.683C321.053 304.343 321.193 304.941 321.474 305.478C321.767 306.004 322.158 306.419 322.646 306.724C323.147 307.03 323.709 307.182 324.332 307.182ZM331.403 308.611V298.736H333.107V308.611H331.403ZM331.403 297.161V294.962H333.107V297.161H331.403ZM339.561 308.721C338.596 308.721 337.851 308.446 337.326 307.897C336.813 307.347 336.556 306.572 336.556 305.57V300.367H334.761V298.736H335.127C335.567 298.736 335.915 298.602 336.172 298.333C336.428 298.065 336.556 297.71 336.556 297.271V296.465H338.26V298.736H340.477V300.367H338.26V305.515C338.26 305.845 338.309 306.132 338.407 306.376C338.517 306.62 338.694 306.816 338.938 306.962C339.182 307.097 339.506 307.164 339.909 307.164C339.995 307.164 340.099 307.158 340.221 307.146C340.355 307.133 340.477 307.121 340.587 307.109V308.611C340.428 308.648 340.251 308.672 340.056 308.685C339.86 308.709 339.695 308.721 339.561 308.721ZM346.147 308.831C345.158 308.831 344.297 308.587 343.564 308.098C342.831 307.61 342.312 306.95 342.007 306.12L343.362 305.46C343.643 306.046 344.028 306.511 344.517 306.853C345.005 307.195 345.549 307.366 346.147 307.366C346.685 307.366 347.13 307.237 347.485 306.981C347.839 306.724 348.016 306.388 348.016 305.973C348.016 305.68 347.93 305.448 347.759 305.277C347.601 305.094 347.405 304.953 347.173 304.856C346.941 304.746 346.727 304.666 346.532 304.617L345.048 304.196C344.156 303.94 343.503 303.573 343.088 303.097C342.685 302.62 342.483 302.065 342.483 301.43C342.483 300.843 342.63 300.336 342.923 299.909C343.228 299.469 343.637 299.127 344.15 298.883C344.675 298.639 345.262 298.517 345.909 298.517C346.776 298.517 347.552 298.736 348.236 299.176C348.932 299.616 349.427 300.233 349.72 301.027L348.327 301.668C348.107 301.155 347.778 300.752 347.338 300.459C346.898 300.153 346.404 300.001 345.854 300.001C345.353 300.001 344.956 300.129 344.663 300.385C344.37 300.63 344.223 300.941 344.223 301.32C344.223 301.601 344.297 301.833 344.443 302.016C344.59 302.187 344.767 302.321 344.975 302.419C345.182 302.504 345.384 302.578 345.579 302.639L347.191 303.115C347.998 303.347 348.62 303.707 349.06 304.196C349.512 304.685 349.738 305.271 349.738 305.955C349.738 306.504 349.585 306.999 349.28 307.439C348.975 307.878 348.553 308.22 348.016 308.465C347.478 308.709 346.856 308.831 346.147 308.831Z" fill="black" fill-opacity="0.7"/>
<path opacity="0.1" fill-rule="evenodd" clip-rule="evenodd" d="M286.579 414.174C286.579 414.174 293.661 413.137 301.714 415.63C317.03 420.371 317.903 411.688 323.582 407.502C328.778 403.671 333.081 406.008 338.866 410.693C343.133 414.147 349.351 419.947 355.791 419.013C361.678 418.16 365.851 411.358 374.01 409.628C380.477 408.257 385.732 412.024 393.179 410.693C403.281 408.887 407.793 398.257 415.013 398.257C423.924 398.257 430.198 389.267 438.304 389.267C446.363 389.267 447.457 394.553 456.272 398.257C463.011 401.089 466.254 398.257 466.254 398.257V428.6H286.579V414.174Z" fill="url(#paint1_linear_2007_7140)"/>
<path d="M286.579 409.461C286.579 409.461 293.662 408.438 301.714 410.895C317.03 415.568 317.903 407.011 323.582 402.884C328.778 399.109 333.081 401.413 338.866 406.029C343.133 409.434 349.352 415.15 355.791 414.23C361.678 413.388 365.851 406.685 374.01 404.98C380.477 403.629 385.733 407.341 393.179 406.029C403.281 404.25 407.793 393.774 415.013 393.774C423.924 393.774 430.198 384.892 438.304 384.892C446.363 384.892 446.791 390.124 455.607 393.774C462.346 396.564 466.254 393.774 466.254 393.774" stroke="#1A237E" stroke-width="2.61725" stroke-linecap="round" stroke-linejoin="round"/>
<rect x="26.8269" y="42.3211" width="222.644" height="198.126" rx="25.5182" fill="white" stroke="#EFF0F6" stroke-width="1.30863"/>
<rect x="265.877" y="42.3213" width="222.644" height="198.126" rx="25.5182" fill="white" stroke="#EFF0F6" stroke-width="1.30863"/>
<path d="M62.6086 131.938L61.7944 135.039H46.8382L47.6412 131.938H62.6086ZM54.8349 149.114L47.2062 140.035L47.2174 137.247H50.9871C51.8273 137.247 52.5299 137.091 53.095 136.778C53.6601 136.466 54.0839 136.042 54.3665 135.507C54.649 134.972 54.794 134.362 54.8015 133.678C54.794 132.652 54.4929 131.815 53.8981 131.169C53.3107 130.514 52.3403 130.187 50.9871 130.187H46.8382L47.7527 126.272H50.9871C52.8831 126.272 54.4631 126.559 55.7272 127.131C56.9986 127.696 57.9503 128.503 58.5823 129.551C59.2218 130.6 59.5452 131.849 59.5527 133.299C59.5452 134.585 59.3296 135.708 58.9058 136.667C58.4894 137.626 57.8314 138.425 56.9317 139.065C56.0394 139.704 54.8758 140.18 53.4408 140.492L53.2623 140.559L60.088 148.913V149.114H54.8349ZM62.6309 126.272L61.7944 129.417H49.4814L50.3179 126.272H62.6309ZM65.5865 149.114V145.634L73.717 138.106C74.4085 137.437 74.9885 136.834 75.4569 136.299C75.9328 135.764 76.2934 135.239 76.5388 134.726C76.7841 134.206 76.9068 133.644 76.9068 133.042C76.9068 132.373 76.7544 131.797 76.4495 131.313C76.1447 130.823 75.7283 130.447 75.2004 130.187C74.6725 129.919 74.0739 129.786 73.4048 129.786C72.7058 129.786 72.0961 129.927 71.5757 130.209C71.0552 130.492 70.6537 130.897 70.3711 131.425C70.0886 131.953 69.9473 132.581 69.9473 133.31H65.3634C65.3634 131.815 65.7017 130.518 66.3783 129.417C67.0549 128.317 68.003 127.466 69.2224 126.863C70.4418 126.261 71.847 125.96 73.4382 125.96C75.074 125.96 76.4979 126.25 77.7098 126.83C78.9292 127.402 79.8772 128.198 80.5539 129.217C81.2305 130.235 81.5688 131.403 81.5688 132.719C81.5688 133.581 81.3978 134.433 81.0557 135.273C80.7212 136.113 80.1226 137.046 79.2601 138.072C78.3976 139.091 77.1819 140.314 75.6131 141.742L72.2783 145.009V145.166H81.8699V149.114H65.5865ZM86.2726 149.114L95.7415 130.377V130.22H84.7112V126.272H100.738V130.276L91.258 149.114H86.2726ZM104.048 149.114V145.634L112.178 138.106C112.87 137.437 113.45 136.834 113.918 136.299C114.394 135.764 114.755 135.239 115 134.726C115.245 134.206 115.368 133.644 115.368 133.042C115.368 132.373 115.216 131.797 114.911 131.313C114.606 130.823 114.19 130.447 113.662 130.187C113.134 129.919 112.535 129.786 111.866 129.786C111.167 129.786 110.557 129.927 110.037 130.209C109.516 130.492 109.115 130.897 108.832 131.425C108.55 131.953 108.409 132.581 108.409 133.31H103.825C103.825 131.815 104.163 130.518 104.84 129.417C105.516 128.317 106.464 127.466 107.684 126.863C108.903 126.261 110.308 125.96 111.9 125.96C113.535 125.96 114.959 126.25 116.171 126.83C117.391 127.402 118.339 128.198 119.015 129.217C119.692 130.235 120.03 131.403 120.03 132.719C120.03 133.581 119.859 134.433 119.517 135.273C119.182 136.113 118.584 137.046 117.721 138.072C116.859 139.091 115.643 140.314 114.074 141.742L110.74 145.009V145.166H120.331V149.114H104.048ZM132.173 149.426C130.597 149.426 129.191 149.136 127.957 148.556C126.73 147.976 125.756 147.177 125.035 146.158C124.314 145.14 123.938 143.972 123.909 142.656H128.593C128.645 143.541 129.017 144.258 129.708 144.809C130.4 145.359 131.221 145.634 132.173 145.634C132.931 145.634 133.601 145.467 134.181 145.132C134.768 144.79 135.225 144.318 135.552 143.716C135.887 143.106 136.054 142.407 136.054 141.619C136.054 140.816 135.883 140.11 135.541 139.5C135.207 138.89 134.742 138.414 134.147 138.072C133.552 137.73 132.872 137.555 132.106 137.548C131.437 137.548 130.786 137.686 130.154 137.961C129.53 138.236 129.043 138.611 128.693 139.087L124.399 138.318L125.481 126.272H139.445V130.22H129.463L128.872 135.942H129.006C129.407 135.377 130.013 134.908 130.823 134.537C131.634 134.165 132.541 133.979 133.545 133.979C134.92 133.979 136.147 134.303 137.225 134.949C138.303 135.596 139.155 136.485 139.779 137.615C140.404 138.738 140.713 140.031 140.705 141.496C140.713 143.035 140.356 144.403 139.634 145.601C138.921 146.79 137.921 147.727 136.634 148.411C135.355 149.088 133.868 149.426 132.173 149.426ZM153.029 149.616C151.111 149.608 149.46 149.136 148.077 148.199C146.702 147.262 145.642 145.905 144.899 144.128C144.163 142.351 143.798 140.214 143.806 137.715C143.806 135.224 144.174 133.102 144.91 131.347C145.653 129.592 146.713 128.258 148.088 127.343C149.471 126.421 151.118 125.96 153.029 125.96C154.94 125.96 156.583 126.421 157.959 127.343C159.342 128.265 160.405 129.603 161.149 131.358C161.892 133.105 162.26 135.224 162.253 137.715C162.253 140.221 161.881 142.362 161.137 144.14C160.401 145.917 159.346 147.274 157.97 148.21C156.594 149.147 154.948 149.616 153.029 149.616ZM153.029 145.612C154.338 145.612 155.382 144.954 156.163 143.638C156.944 142.322 157.331 140.347 157.323 137.715C157.323 135.983 157.145 134.54 156.788 133.388C156.438 132.235 155.94 131.369 155.293 130.789C154.654 130.209 153.899 129.919 153.029 129.919C151.728 129.919 150.687 130.57 149.906 131.871C149.126 133.172 148.732 135.12 148.724 137.715C148.724 139.47 148.899 140.935 149.248 142.11C149.605 143.277 150.107 144.154 150.754 144.742C151.401 145.322 152.159 145.612 153.029 145.612ZM174.652 149.616C172.734 149.608 171.083 149.136 169.7 148.199C168.325 147.262 167.265 145.905 166.522 144.128C165.786 142.351 165.421 140.214 165.429 137.715C165.429 135.224 165.797 133.102 166.533 131.347C167.276 129.592 168.336 128.258 169.711 127.343C171.094 126.421 172.741 125.96 174.652 125.96C176.563 125.96 178.206 126.421 179.582 127.343C180.965 128.265 182.028 129.603 182.772 131.358C183.515 133.105 183.883 135.224 183.876 137.715C183.876 140.221 183.504 142.362 182.76 144.14C182.024 145.917 180.969 147.274 179.593 148.21C178.217 149.147 176.571 149.616 174.652 149.616ZM174.652 145.612C175.961 145.612 177.005 144.954 177.786 143.638C178.567 142.322 178.954 140.347 178.946 137.715C178.946 135.983 178.768 134.54 178.411 133.388C178.061 132.235 177.563 131.369 176.916 130.789C176.277 130.209 175.522 129.919 174.652 129.919C173.351 129.919 172.31 130.57 171.529 131.871C170.749 133.172 170.355 135.12 170.347 137.715C170.347 139.47 170.522 140.935 170.871 142.11C171.228 143.277 171.73 144.154 172.377 144.742C173.024 145.322 173.782 145.612 174.652 145.612Z" fill="black"/>
<path d="M45.9021 91.2852L50.7937 77.6362H52.9189L57.8106 91.2852H55.8869L54.7693 88.079H48.9433L47.8258 91.2852H45.9021ZM49.5113 86.4302H54.2014L51.5998 78.937H52.1128L49.5113 86.4302ZM62.6633 91.505C61.674 91.505 60.8129 91.2607 60.0801 90.7722C59.3472 90.2836 58.8281 89.6241 58.5228 88.7935L59.8785 88.134C60.1595 88.7203 60.5442 89.1844 61.0327 89.5264C61.5213 89.8684 62.0648 90.0393 62.6633 90.0393C63.2007 90.0393 63.6465 89.9111 64.0007 89.6546C64.3549 89.3981 64.532 89.0622 64.532 88.647C64.532 88.3538 64.4465 88.1218 64.2755 87.9508C64.1167 87.7676 63.9213 87.6271 63.6893 87.5294C63.4572 87.4195 63.2434 87.3401 63.048 87.2912L61.564 86.8699C60.6724 86.6134 60.019 86.2469 59.6037 85.7706C59.2007 85.2943 58.9991 84.7385 58.9991 84.1034C58.9991 83.5172 59.1457 83.0103 59.4388 82.5828C59.7442 82.1431 60.1533 81.8011 60.6663 81.5568C61.1915 81.3126 61.7778 81.1904 62.4251 81.1904C63.2923 81.1904 64.0679 81.4103 64.7519 81.85C65.448 82.2897 65.9427 82.9065 66.2358 83.7004L64.8435 84.3416C64.6236 83.8286 64.2938 83.4256 63.8541 83.1324C63.4144 82.8271 62.9198 82.6744 62.3702 82.6744C61.8694 82.6744 61.4724 82.8026 61.1793 83.0591C60.8862 83.3034 60.7396 83.6149 60.7396 83.9935C60.7396 84.2744 60.8129 84.5065 60.9595 84.6897C61.106 84.8607 61.2831 84.995 61.4908 85.0927C61.6984 85.1782 61.8999 85.2515 62.0953 85.3126L63.7076 85.7889C64.5137 86.021 65.1366 86.3813 65.5763 86.8699C66.0282 87.3584 66.2542 87.9447 66.2542 88.6286C66.2542 89.1783 66.1015 89.6729 65.7961 90.1126C65.4908 90.5523 65.0694 90.8943 64.532 91.1386C63.9946 91.3829 63.3717 91.505 62.6633 91.505ZM71.8189 91.505C70.8296 91.505 69.9685 91.2607 69.2357 90.7722C68.5029 90.2836 67.9838 89.6241 67.6785 88.7935L69.0342 88.134C69.3151 88.7203 69.6998 89.1844 70.1884 89.5264C70.6769 89.8684 71.2205 90.0393 71.8189 90.0393C72.3564 90.0393 72.8022 89.9111 73.1564 89.6546C73.5106 89.3981 73.6877 89.0622 73.6877 88.647C73.6877 88.3538 73.6022 88.1218 73.4312 87.9508C73.2724 87.7676 73.077 87.6271 72.8449 87.5294C72.6128 87.4195 72.3991 87.3401 72.2037 87.2912L70.7197 86.8699C69.8281 86.6134 69.1746 86.2469 68.7594 85.7706C68.3563 85.2943 68.1548 84.7385 68.1548 84.1034C68.1548 83.5172 68.3014 83.0103 68.5945 82.5828C68.8998 82.1431 69.309 81.8011 69.822 81.5568C70.3472 81.3126 70.9334 81.1904 71.5808 81.1904C72.448 81.1904 73.2235 81.4103 73.9075 81.85C74.6037 82.2897 75.0984 82.9065 75.3915 83.7004L73.9991 84.3416C73.7793 83.8286 73.4495 83.4256 73.0098 83.1324C72.5701 82.8271 72.0754 82.6744 71.5258 82.6744C71.025 82.6744 70.6281 82.8026 70.335 83.0591C70.0418 83.3034 69.8953 83.6149 69.8953 83.9935C69.8953 84.2744 69.9685 84.5065 70.1151 84.6897C70.2617 84.8607 70.4388 84.995 70.6464 85.0927C70.854 85.1782 71.0556 85.2515 71.251 85.3126L72.8632 85.7889C73.6693 86.021 74.2922 86.3813 74.7319 86.8699C75.1839 87.3584 75.4098 87.9447 75.4098 88.6286C75.4098 89.1783 75.2571 89.6729 74.9518 90.1126C74.6464 90.5523 74.2251 90.8943 73.6877 91.1386C73.1502 91.3829 72.5273 91.505 71.8189 91.505ZM81.9822 91.505C81.0296 91.505 80.1807 91.279 79.4357 90.8271C78.6906 90.3752 78.1043 89.7584 77.6769 88.9767C77.2494 88.1828 77.0356 87.2973 77.0356 86.3202C77.0356 85.3309 77.2433 84.4515 77.6585 83.682C78.086 82.9126 78.6601 82.308 79.3807 81.8683C80.1135 81.4164 80.9318 81.1904 81.8357 81.1904C82.5685 81.1904 83.2158 81.3248 83.7777 81.5935C84.3517 81.85 84.8342 82.2042 85.225 82.6561C85.6281 83.0958 85.9334 83.6027 86.141 84.1767C86.3609 84.7385 86.4708 85.3248 86.4708 85.9355C86.4708 86.0698 86.4586 86.2225 86.4342 86.3935C86.422 86.5523 86.4036 86.705 86.3792 86.8515H78.2814V85.3859H85.3899L84.5838 86.0454C84.6937 85.4103 84.6326 84.8424 84.4006 84.3416C84.1685 83.8408 83.8265 83.4439 83.3746 83.1507C82.9227 82.8576 82.4097 82.711 81.8357 82.711C81.2616 82.711 80.7364 82.8576 80.2601 83.1507C79.7837 83.4439 79.4112 83.8653 79.1425 84.4149C78.886 84.9523 78.7822 85.5935 78.8311 86.3386C78.7822 87.0592 78.8921 87.6943 79.1608 88.2439C79.4418 88.7813 79.8326 89.2027 80.3334 89.508C80.8463 89.8012 81.4021 89.9477 82.0006 89.9477C82.6601 89.9477 83.2158 89.7951 83.6677 89.4897C84.1197 89.1844 84.4861 88.7935 84.767 88.3172L86.196 89.05C86.0006 89.5019 85.6952 89.9172 85.28 90.2958C84.8769 90.6623 84.3945 90.9554 83.8326 91.1752C83.283 91.3951 82.6662 91.505 81.9822 91.505ZM92.5031 91.3951C91.5382 91.3951 90.7931 91.1203 90.2679 90.5706C89.755 90.021 89.4985 89.2454 89.4985 88.2439V83.0408H87.703V81.4103H88.0695C88.5091 81.4103 88.8572 81.2759 89.1137 81.0072C89.3702 80.7385 89.4985 80.3843 89.4985 79.9446V79.1385H91.2023V81.4103H93.4191V83.0408H91.2023V88.1889C91.2023 88.5187 91.2512 88.8057 91.3489 89.05C91.4588 89.2943 91.6359 89.4897 91.8802 89.6363C92.1244 89.7706 92.4481 89.8378 92.8512 89.8378C92.9367 89.8378 93.0405 89.8317 93.1626 89.8195C93.297 89.8073 93.4191 89.7951 93.529 89.7829V91.2852C93.3703 91.3218 93.1932 91.3462 92.9977 91.3584C92.8023 91.3829 92.6374 91.3951 92.5031 91.3951ZM99.0891 91.505C98.0998 91.505 97.2387 91.2607 96.5059 90.7722C95.773 90.2836 95.254 89.6241 94.9486 88.7935L96.3043 88.134C96.5853 88.7203 96.97 89.1844 97.4585 89.5264C97.9471 89.8684 98.4906 90.0393 99.0891 90.0393C99.6265 90.0393 100.072 89.9111 100.427 89.6546C100.781 89.3981 100.958 89.0622 100.958 88.647C100.958 88.3538 100.872 88.1218 100.701 87.9508C100.543 87.7676 100.347 87.6271 100.115 87.5294C99.883 87.4195 99.6693 87.3401 99.4738 87.2912L97.9899 86.8699C97.0982 86.6134 96.4448 86.2469 96.0295 85.7706C95.6265 85.2943 95.4249 84.7385 95.4249 84.1034C95.4249 83.5172 95.5715 83.0103 95.8646 82.5828C96.17 82.1431 96.5792 81.8011 97.0921 81.5568C97.6173 81.3126 98.2036 81.1904 98.8509 81.1904C99.7181 81.1904 100.494 81.4103 101.178 81.85C101.874 82.2897 102.369 82.9065 102.662 83.7004L101.269 84.3416C101.049 83.8286 100.72 83.4256 100.28 83.1324C99.8402 82.8271 99.3456 82.6744 98.796 82.6744C98.2952 82.6744 97.8982 82.8026 97.6051 83.0591C97.312 83.3034 97.1654 83.6149 97.1654 83.9935C97.1654 84.2744 97.2387 84.5065 97.3853 84.6897C97.5318 84.8607 97.7089 84.995 97.9166 85.0927C98.1242 85.1782 98.3257 85.2515 98.5212 85.3126L100.133 85.7889C100.939 86.021 101.562 86.3813 102.002 86.8699C102.454 87.3584 102.68 87.9447 102.68 88.6286C102.68 89.1783 102.527 89.6729 102.222 90.1126C101.917 90.5523 101.495 90.8943 100.958 91.1386C100.42 91.3829 99.7975 91.505 99.0891 91.505Z" fill="black" fill-opacity="0.7"/>
<path d="M301.346 131.144L300.532 134.244H285.576L286.379 131.144H301.346ZM293.573 148.32L285.944 139.241L285.955 136.453H289.725C290.565 136.453 291.268 136.297 291.833 135.984C292.398 135.672 292.822 135.248 293.104 134.713C293.387 134.178 293.532 133.568 293.539 132.884C293.532 131.858 293.231 131.021 292.636 130.374C292.048 129.72 291.078 129.393 289.725 129.393H285.576L286.491 125.478H289.725C291.621 125.478 293.201 125.764 294.465 126.337C295.736 126.902 296.688 127.709 297.32 128.757C297.96 129.806 298.283 131.055 298.29 132.505C298.283 133.791 298.067 134.914 297.644 135.873C297.227 136.832 296.569 137.631 295.669 138.271C294.777 138.91 293.614 139.386 292.179 139.698L292 139.765L298.826 148.119V148.32H293.573ZM301.369 125.478L300.532 128.623H288.219L289.056 125.478H301.369ZM312.767 148.632C311.102 148.632 309.618 148.346 308.317 147.773C307.023 147.193 306.001 146.398 305.25 145.386C304.506 144.368 304.123 143.193 304.101 141.862H308.964C308.994 142.42 309.176 142.91 309.51 143.334C309.852 143.751 310.306 144.074 310.871 144.304C311.436 144.535 312.072 144.65 312.778 144.65C313.514 144.65 314.165 144.52 314.73 144.26C315.295 144 315.738 143.639 316.057 143.178C316.377 142.717 316.537 142.185 316.537 141.583C316.537 140.973 316.366 140.434 316.024 139.966C315.689 139.49 315.206 139.118 314.574 138.851C313.949 138.583 313.206 138.449 312.343 138.449H310.213V134.902H312.343C313.072 134.902 313.715 134.776 314.273 134.523C314.838 134.27 315.277 133.921 315.589 133.475C315.901 133.021 316.057 132.493 316.057 131.891C316.057 131.319 315.92 130.817 315.645 130.385C315.377 129.947 314.998 129.605 314.507 129.359C314.024 129.114 313.459 128.991 312.812 128.991C312.157 128.991 311.559 129.11 311.016 129.348C310.473 129.579 310.038 129.91 309.711 130.341C309.384 130.772 309.209 131.278 309.187 131.858H304.558C304.581 130.542 304.956 129.382 305.685 128.378C306.414 127.374 307.395 126.59 308.629 126.025C309.871 125.452 311.273 125.166 312.834 125.166C314.41 125.166 315.79 125.452 316.972 126.025C318.154 126.597 319.072 127.37 319.727 128.344C320.388 129.311 320.716 130.397 320.708 131.601C320.716 132.88 320.318 133.947 319.515 134.802C318.719 135.657 317.682 136.2 316.403 136.43V136.609C318.083 136.824 319.362 137.408 320.24 138.36C321.124 139.304 321.563 140.486 321.556 141.907C321.563 143.208 321.188 144.364 320.429 145.375C319.678 146.386 318.641 147.182 317.318 147.762C315.994 148.342 314.477 148.632 312.767 148.632ZM324.681 144.304V140.501L334.217 125.478H337.496V130.742H335.556L329.544 140.256V140.434H343.095V144.304H324.681ZM335.645 148.32V143.145L335.734 141.46V125.478H340.262V148.32H335.645ZM355.269 148.821C353.35 148.814 351.7 148.342 350.317 147.405C348.941 146.468 347.882 145.111 347.138 143.334C346.402 141.557 346.038 139.419 346.045 136.921C346.045 134.43 346.413 132.308 347.149 130.553C347.893 128.798 348.952 127.463 350.328 126.549C351.711 125.627 353.358 125.166 355.269 125.166C357.18 125.166 358.823 125.627 360.198 126.549C361.581 127.471 362.645 128.809 363.388 130.564C364.132 132.311 364.5 134.43 364.492 136.921C364.492 139.427 364.12 141.568 363.377 143.345C362.641 145.122 361.585 146.479 360.209 147.416C358.834 148.353 357.187 148.821 355.269 148.821ZM355.269 144.818C356.577 144.818 357.622 144.159 358.403 142.843C359.183 141.527 359.57 139.553 359.563 136.921C359.563 135.189 359.384 133.746 359.027 132.594C358.678 131.441 358.18 130.575 357.533 129.995C356.893 129.415 356.139 129.125 355.269 129.125C353.967 129.125 352.926 129.776 352.146 131.077C351.365 132.378 350.971 134.326 350.964 136.921C350.964 138.676 351.138 140.141 351.488 141.315C351.845 142.483 352.347 143.36 352.993 143.948C353.64 144.528 354.399 144.818 355.269 144.818ZM376.892 148.821C374.973 148.814 373.323 148.342 371.94 147.405C370.564 146.468 369.505 145.111 368.761 143.334C368.025 141.557 367.661 139.419 367.668 136.921C367.668 134.43 368.036 132.308 368.772 130.553C369.516 128.798 370.575 127.463 371.951 126.549C373.334 125.627 374.981 125.166 376.892 125.166C378.802 125.166 380.446 125.627 381.821 126.549C383.204 127.471 384.267 128.809 385.011 130.564C385.755 132.311 386.123 134.43 386.115 136.921C386.115 139.427 385.743 141.568 385 143.345C384.264 145.122 383.208 146.479 381.832 147.416C380.457 148.353 378.81 148.821 376.892 148.821ZM376.892 144.818C378.2 144.818 379.245 144.159 380.026 142.843C380.806 141.527 381.193 139.553 381.186 136.921C381.186 135.189 381.007 133.746 380.65 132.594C380.301 131.441 379.803 130.575 379.156 129.995C378.516 129.415 377.762 129.125 376.892 129.125C375.59 129.125 374.549 129.776 373.769 131.077C372.988 132.378 372.594 134.326 372.587 136.921C372.587 138.676 372.761 140.141 373.111 141.315C373.468 142.483 373.97 143.36 374.616 143.948C375.263 144.528 376.022 144.818 376.892 144.818ZM389.559 148.32V144.84L397.689 137.312C398.381 136.642 398.961 136.04 399.429 135.505C399.905 134.969 400.266 134.445 400.511 133.932C400.756 133.412 400.879 132.85 400.879 132.248C400.879 131.579 400.727 131.003 400.422 130.519C400.117 130.029 399.701 129.653 399.173 129.393C398.645 129.125 398.046 128.991 397.377 128.991C396.678 128.991 396.068 129.133 395.548 129.415C395.027 129.698 394.626 130.103 394.343 130.631C394.061 131.159 393.92 131.787 393.92 132.516H389.336C389.336 131.021 389.674 129.724 390.351 128.623C391.027 127.523 391.975 126.671 393.195 126.069C394.414 125.467 395.819 125.166 397.41 125.166C399.046 125.166 400.47 125.456 401.682 126.036C402.901 126.608 403.849 127.404 404.526 128.423C405.203 129.441 405.541 130.609 405.541 131.925C405.541 132.787 405.37 133.638 405.028 134.479C404.693 135.319 404.095 136.252 403.232 137.278C402.37 138.297 401.154 139.52 399.585 140.947L396.251 144.215V144.371H405.842V148.32H389.559ZM419.279 125.478V148.32H414.45V130.062H414.316L409.085 133.341V129.058L414.74 125.478H419.279Z" fill="black"/>
<path d="M285.959 91.2852V77.6362H287.754V89.6363H293.745V91.2852H285.959ZM295.36 91.2852V81.4103H297.064V91.2852H295.36ZM295.36 79.8347V77.6362H297.064V79.8347H295.36ZM302.401 91.505C301.754 91.505 301.18 91.389 300.679 91.1569C300.19 90.9126 299.806 90.5829 299.525 90.1676C299.244 89.7401 299.103 89.2516 299.103 88.7019C299.103 88.1767 299.213 87.7065 299.433 87.2912C299.665 86.8637 300.019 86.5034 300.496 86.2103C300.984 85.9172 301.595 85.7095 302.328 85.5874L305.992 84.9828V86.4118L302.713 86.9615C302.077 87.0714 301.613 87.2729 301.32 87.566C301.039 87.8592 300.899 88.2195 300.899 88.647C300.899 89.05 301.058 89.3859 301.375 89.6546C301.705 89.9233 302.114 90.0577 302.603 90.0577C303.226 90.0577 303.763 89.9294 304.215 89.6729C304.679 89.4042 305.039 89.0439 305.296 88.592C305.565 88.1401 305.699 87.6393 305.699 87.0897V84.5798C305.699 84.0424 305.497 83.6088 305.094 83.279C304.703 82.937 304.184 82.766 303.537 82.766C302.975 82.766 302.474 82.9126 302.035 83.2057C301.607 83.4866 301.29 83.8653 301.082 84.3416L299.598 83.5721C299.781 83.1202 300.074 82.7172 300.477 82.3629C300.881 81.9965 301.351 81.7095 301.888 81.5019C302.426 81.2942 302.987 81.1904 303.574 81.1904C304.331 81.1904 304.997 81.337 305.571 81.6301C306.145 81.911 306.59 82.308 306.908 82.821C307.238 83.3217 307.403 83.908 307.403 84.5798V91.2852H305.736V89.4164L306.047 89.5264C305.839 89.9172 305.558 90.2592 305.204 90.5523C304.85 90.8455 304.435 91.0775 303.958 91.2485C303.482 91.4195 302.963 91.505 302.401 91.505ZM314.954 91.505C314.161 91.505 313.434 91.3279 312.774 90.9737C312.127 90.6195 311.626 90.1187 311.272 89.4714L311.51 89.1783V91.2852H309.843V77.4163H311.547V83.5355L311.29 83.1141C311.657 82.5278 312.157 82.0637 312.793 81.7217C313.428 81.3675 314.154 81.1904 314.973 81.1904C315.901 81.1904 316.732 81.4164 317.464 81.8683C318.209 82.3202 318.796 82.937 319.223 83.7187C319.651 84.4882 319.864 85.3676 319.864 86.3569C319.864 87.3218 319.651 88.1951 319.223 88.9767C318.796 89.7584 318.209 90.3752 317.464 90.8271C316.732 91.279 315.895 91.505 314.954 91.505ZM314.826 89.8561C315.449 89.8561 316.005 89.7035 316.493 89.3981C316.982 89.0928 317.361 88.6775 317.629 88.1523C317.91 87.6149 318.051 87.0164 318.051 86.3569C318.051 85.6729 317.91 85.0744 317.629 84.5614C317.361 84.0362 316.982 83.621 316.493 83.3156C316.005 82.9981 315.449 82.8393 314.826 82.8393C314.203 82.8393 313.641 82.992 313.141 83.2973C312.652 83.6027 312.261 84.024 311.968 84.5614C311.687 85.0866 311.547 85.6851 311.547 86.3569C311.547 87.0164 311.687 87.6149 311.968 88.1523C312.261 88.6775 312.652 89.0928 313.141 89.3981C313.641 89.7035 314.203 89.8561 314.826 89.8561ZM321.897 91.2852V81.4103H323.601V91.2852H321.897ZM321.897 79.8347V77.6362H323.601V79.8347H321.897ZM326.043 91.2852V77.4163H327.747V91.2852H326.043ZM330.189 91.2852V81.4103H331.893V91.2852H330.189ZM330.189 79.8347V77.6362H331.893V79.8347H330.189ZM338.347 91.3951C337.383 91.3951 336.638 91.1203 336.112 90.5706C335.599 90.021 335.343 89.2454 335.343 88.2439V83.0408H333.547V81.4103H333.914C334.354 81.4103 334.702 81.2759 334.958 81.0072C335.215 80.7385 335.343 80.3843 335.343 79.9446V79.1385H337.047V81.4103H339.263V83.0408H337.047V88.1889C337.047 88.5187 337.096 88.8057 337.193 89.05C337.303 89.2943 337.48 89.4897 337.725 89.6363C337.969 89.7706 338.292 89.8378 338.696 89.8378C338.781 89.8378 338.885 89.8317 339.007 89.8195C339.141 89.8073 339.263 89.7951 339.373 89.7829V91.2852C339.215 91.3218 339.038 91.3462 338.842 91.3584C338.647 91.3829 338.482 91.3951 338.347 91.3951ZM341.929 95.3157C341.709 95.3157 341.489 95.2974 341.269 95.2608C341.049 95.2241 340.842 95.163 340.646 95.0776V93.5569C340.781 93.5814 340.946 93.6058 341.141 93.6302C341.349 93.6669 341.55 93.6852 341.746 93.6852C342.32 93.6852 342.753 93.5569 343.046 93.3004C343.352 93.0562 343.639 92.6287 343.908 92.018L344.53 90.534L344.494 92.018L340.28 81.4103H342.13L345.41 89.8378H344.86L348.121 81.4103H350.008L345.556 92.4577C345.349 92.9829 345.08 93.4592 344.75 93.8867C344.433 94.3264 344.042 94.6745 343.578 94.931C343.114 95.1875 342.564 95.3157 341.929 95.3157Z" fill="black" fill-opacity="0.7"/>
</g>
<defs>
<filter id="filter0_d_2007_7140" x="-1.90735e-05" y="22.0374" width="515.347" height="469.012" filterUnits="userSpaceOnUse" color-interpolation-filters="sRGB">
<feFlood flood-opacity="0" result="BackgroundImageFix"/>
<feColorMatrix in="SourceAlpha" type="matrix" values="0 0 0 0 0 0 0 0 0 0 0 0 0 0 0 0 0 0 127 0" result="hardAlpha"/>
<feOffset dy="6.54313"/>
<feGaussianBlur stdDeviation="13.0863"/>
<feComposite in2="hardAlpha" operator="out"/>
<feColorMatrix type="matrix" values="0 0 0 0 0 0 0 0 0 0 0 0 0 0 0 0 0 0 0.05 0"/>
<feBlend mode="normal" in2="BackgroundImageFix" result="effect1_dropShadow_2007_7140"/>
<feBlend mode="normal" in="SourceGraphic" in2="effect1_dropShadow_2007_7140" result="shape"/>
</filter>
<linearGradient id="paint0_linear_2007_7140" x1="74.9609" y1="410.692" x2="74.9609" y2="430.067" gradientUnits="userSpaceOnUse">
<stop stop-color="#1A237E"/>
<stop offset="1" stop-color="white" stop-opacity="0"/>
</linearGradient>
<linearGradient id="paint1_linear_2007_7140" x1="319.051" y1="409.224" x2="319.051" y2="428.6" gradientUnits="userSpaceOnUse">
<stop stop-color="#1A237E"/>
<stop offset="1" stop-color="white" stop-opacity="0"/>
</linearGradient>
</defs>
</svg>
