<svg width="500" height="500" viewBox="0 0 500 500" fill="none" xmlns="http://www.w3.org/2000/svg">
<rect width="500" height="500" rx="8" fill="#E9ECFF"/>
<rect x="24.4798" y="80.4913" width="451.04" height="339.017" rx="7.36994" fill="white"/>
<rect x="24.4798" y="80.4913" width="451.04" height="339.017" rx="7.36994" stroke="#D5D9DC" stroke-width="0.982659"/>
<path d="M53.3896 112.971C52.4331 112.971 51.5356 112.794 50.6971 112.44C49.8717 112.074 49.1445 111.569 48.5156 110.927C47.8998 110.285 47.415 109.538 47.0613 108.687C46.7075 107.835 46.5306 106.918 46.5306 105.935C46.5306 104.953 46.7075 104.042 47.0613 103.203C47.415 102.352 47.9064 101.605 48.5353 100.963C49.1642 100.321 49.8979 99.8231 50.7364 99.4693C51.5881 99.1156 52.5118 98.9387 53.5075 98.9387C54.595 98.9387 55.5973 99.1483 56.5144 99.5676C57.4316 99.9869 58.1981 100.59 58.8139 101.376L57.5364 102.653C57.104 102.024 56.5341 101.546 55.8266 101.218C55.1191 100.878 54.346 100.707 53.5075 100.707C52.5118 100.707 51.6274 100.93 50.8543 101.376C50.0944 101.821 49.4983 102.437 49.0659 103.223C48.6466 104.009 48.437 104.913 48.437 105.935C48.437 106.97 48.6532 107.881 49.0855 108.667C49.5179 109.453 50.101 110.069 50.8347 110.514C51.5684 110.96 52.4069 111.183 53.3503 111.183C54.3067 111.183 55.1322 110.999 55.8266 110.632C56.5341 110.265 57.0778 109.728 57.4578 109.021C57.8378 108.3 58.0277 107.422 58.0277 106.387L59.148 107.193H53.252V105.503H59.9341V105.778C59.9341 107.363 59.6524 108.693 59.089 109.768C58.5387 110.829 57.7657 111.628 56.7699 112.165C55.7873 112.702 54.6605 112.971 53.3896 112.971ZM62.1242 112.775V103.439H63.893V112.775H62.1242ZM63.0086 101.572C62.681 101.572 62.4124 101.467 62.2028 101.258C61.9932 101.035 61.8884 100.76 61.8884 100.432C61.8884 100.118 61.9932 99.8558 62.2028 99.6462C62.4124 99.4235 62.681 99.3121 63.0086 99.3121C63.3361 99.3121 63.6047 99.4235 63.8144 99.6462C64.024 99.8558 64.1288 100.118 64.1288 100.432C64.1288 100.76 64.024 101.035 63.8144 101.258C63.6047 101.467 63.3361 101.572 63.0086 101.572ZM70.4499 112.971C69.5852 112.971 68.8122 112.761 68.1309 112.342C67.4495 111.91 66.9058 111.327 66.4996 110.593C66.1066 109.859 65.9101 109.034 65.9101 108.117C65.9101 107.2 66.1066 106.374 66.4996 105.64C66.9058 104.907 67.4495 104.324 68.1309 103.891C68.8122 103.459 69.5852 103.243 70.4499 103.243C71.1443 103.243 71.7732 103.393 72.3366 103.695C72.9 103.983 73.3521 104.389 73.6927 104.913C74.0465 105.424 74.243 106.02 74.2823 106.702V109.512C74.243 110.18 74.053 110.776 73.7124 111.301C73.3717 111.825 72.9197 112.237 72.3563 112.539C71.7929 112.827 71.1574 112.971 70.4499 112.971ZM70.7447 111.301C71.3343 111.301 71.8453 111.163 72.2777 110.888C72.7232 110.613 73.0704 110.239 73.3193 109.768C73.5682 109.283 73.6927 108.733 73.6927 108.117C73.6927 107.475 73.5617 106.918 73.2996 106.446C73.0507 105.975 72.7035 105.601 72.258 105.326C71.8257 105.051 71.3147 104.913 70.7251 104.913C70.1355 104.913 69.618 105.051 69.1725 105.326C68.727 105.601 68.3732 105.981 68.1112 106.466C67.8623 106.938 67.7378 107.481 67.7378 108.097C67.7378 108.726 67.8623 109.283 68.1112 109.768C68.3732 110.239 68.727 110.613 69.1725 110.888C69.6311 111.163 70.1551 111.301 70.7447 111.301ZM75.3632 112.775H73.5748V110.259L73.9089 107.979L73.5748 105.719V98.7422H75.3632V112.775ZM81.8887 112.971C81.024 112.971 80.2509 112.761 79.5696 112.342C78.8883 111.91 78.3446 111.327 77.9384 110.593C77.5453 109.859 77.3488 109.034 77.3488 108.117C77.3488 107.2 77.5453 106.374 77.9384 105.64C78.3446 104.907 78.8883 104.324 79.5696 103.891C80.2509 103.459 81.024 103.243 81.8887 103.243C82.5831 103.243 83.212 103.393 83.7754 103.695C84.3388 103.983 84.7908 104.389 85.1315 104.913C85.4852 105.424 85.6818 106.02 85.7211 106.702V109.512C85.6818 110.18 85.4918 110.776 85.1511 111.301C84.8105 111.825 84.3584 112.237 83.7951 112.539C83.2317 112.827 82.5962 112.971 81.8887 112.971ZM82.1835 111.301C82.7731 111.301 83.2841 111.163 83.7164 110.888C84.1619 110.613 84.5091 110.239 84.7581 109.768C85.007 109.283 85.1315 108.733 85.1315 108.117C85.1315 107.475 85.0005 106.918 84.7384 106.446C84.4895 105.975 84.1423 105.601 83.6968 105.326C83.2644 105.051 82.7534 104.913 82.1638 104.913C81.5742 104.913 81.0567 105.051 80.6112 105.326C80.1658 105.601 79.812 105.981 79.55 106.466C79.301 106.938 79.1766 107.481 79.1766 108.097C79.1766 108.726 79.301 109.283 79.55 109.768C79.812 110.239 80.1658 110.613 80.6112 110.888C81.0698 111.163 81.5939 111.301 82.1835 111.301ZM86.802 112.775H85.0136V110.259L85.3477 107.979L85.0136 105.719V98.7422H86.802V112.775ZM95.9806 112.775V107.331C95.9806 106.623 95.7579 106.04 95.3124 105.581C94.867 105.123 94.2905 104.894 93.583 104.894C93.1113 104.894 92.692 104.998 92.3251 105.208C91.9583 105.418 91.67 105.706 91.4604 106.073C91.2508 106.44 91.146 106.859 91.146 107.331L90.4188 106.918C90.4188 106.21 90.576 105.581 90.8905 105.031C91.2049 104.481 91.6438 104.049 92.2072 103.734C92.7706 103.407 93.4061 103.243 94.1136 103.243C94.8211 103.243 95.4435 103.4 95.9806 103.714C96.5309 104.029 96.9633 104.468 97.2778 105.031C97.5922 105.595 97.7494 106.243 97.7494 106.977V112.775H95.9806ZM89.3772 112.775V98.7422H91.146V112.775H89.3772ZM100.144 108.608V106.938H106.61V108.608H100.144ZM109.518 112.775V99.1352H111.365V112.775H109.518ZM120.873 112.775V107.331C120.873 106.623 120.651 106.04 120.205 105.581C119.76 105.123 119.183 104.894 118.476 104.894C118.004 104.894 117.585 104.998 117.218 105.208C116.851 105.418 116.563 105.706 116.353 106.073C116.144 106.44 116.039 106.859 116.039 107.331L115.312 106.918C115.312 106.21 115.469 105.581 115.783 105.031C116.098 104.481 116.537 104.049 117.1 103.734C117.663 103.407 118.299 103.243 119.006 103.243C119.714 103.243 120.336 103.42 120.873 103.773C121.424 104.127 121.856 104.592 122.17 105.169C122.485 105.732 122.642 106.335 122.642 106.977V112.775H120.873ZM114.27 112.775V103.439H116.039V112.775H114.27ZM128.24 112.775L123.956 103.439H125.921L129.361 111.32H128.221L131.68 103.439H133.566L129.282 112.775H128.24ZM138.975 112.971C138.058 112.971 137.232 112.755 136.498 112.323C135.765 111.89 135.182 111.307 134.749 110.573C134.317 109.827 134.101 108.995 134.101 108.077C134.101 107.173 134.317 106.361 134.749 105.64C135.182 104.907 135.765 104.324 136.498 103.891C137.232 103.459 138.058 103.243 138.975 103.243C139.879 103.243 140.698 103.459 141.431 103.891C142.178 104.311 142.768 104.887 143.2 105.621C143.633 106.354 143.849 107.173 143.849 108.077C143.849 108.995 143.633 109.827 143.2 110.573C142.768 111.307 142.178 111.89 141.431 112.323C140.698 112.755 139.879 112.971 138.975 112.971ZM138.975 111.261C139.564 111.261 140.088 111.124 140.547 110.849C141.006 110.573 141.366 110.2 141.628 109.728C141.89 109.244 142.021 108.693 142.021 108.077C142.021 107.475 141.883 106.938 141.608 106.466C141.346 105.994 140.986 105.627 140.527 105.365C140.082 105.09 139.564 104.953 138.975 104.953C138.385 104.953 137.861 105.09 137.402 105.365C136.944 105.627 136.584 105.994 136.322 106.466C136.06 106.938 135.928 107.475 135.928 108.077C135.928 108.693 136.06 109.244 136.322 109.728C136.584 110.2 136.944 110.573 137.402 110.849C137.861 111.124 138.385 111.261 138.975 111.261ZM145.861 112.775V103.439H147.63V112.775H145.861ZM146.746 101.572C146.418 101.572 146.15 101.467 145.94 101.258C145.73 101.035 145.625 100.76 145.625 100.432C145.625 100.118 145.73 99.8558 145.94 99.6462C146.15 99.4235 146.418 99.3121 146.746 99.3121C147.073 99.3121 147.342 99.4235 147.552 99.6462C147.761 99.8558 147.866 100.118 147.866 100.432C147.866 100.76 147.761 101.035 147.552 101.258C147.342 101.467 147.073 101.572 146.746 101.572ZM154.502 112.971C153.584 112.971 152.752 112.755 152.006 112.323C151.272 111.89 150.689 111.307 150.256 110.573C149.837 109.827 149.628 109.001 149.628 108.097C149.628 107.18 149.837 106.354 150.256 105.621C150.689 104.887 151.272 104.311 152.006 103.891C152.752 103.459 153.584 103.243 154.502 103.243C155.222 103.243 155.89 103.38 156.506 103.655C157.122 103.918 157.653 104.304 158.098 104.815L156.919 105.994C156.631 105.654 156.277 105.398 155.858 105.228C155.451 105.044 154.999 104.953 154.502 104.953C153.912 104.953 153.388 105.09 152.929 105.365C152.471 105.627 152.11 105.994 151.848 106.466C151.586 106.938 151.455 107.481 151.455 108.097C151.455 108.713 151.586 109.257 151.848 109.728C152.11 110.2 152.471 110.573 152.929 110.849C153.388 111.124 153.912 111.261 154.502 111.261C154.999 111.261 155.451 111.176 155.858 111.006C156.277 110.822 156.637 110.56 156.939 110.22L158.098 111.399C157.666 111.897 157.135 112.283 156.506 112.558C155.89 112.833 155.222 112.971 154.502 112.971ZM159.872 112.775V103.439H161.641V112.775H159.872ZM160.756 101.572C160.429 101.572 160.16 101.467 159.951 101.258C159.741 101.035 159.636 100.76 159.636 100.432C159.636 100.118 159.741 99.8558 159.951 99.6462C160.16 99.4235 160.429 99.3121 160.756 99.3121C161.084 99.3121 161.352 99.4235 161.562 99.6462C161.772 99.8558 161.877 100.118 161.877 100.432C161.877 100.76 161.772 101.035 161.562 101.258C161.352 101.467 161.084 101.572 160.756 101.572ZM170.851 112.775V107.331C170.851 106.623 170.628 106.04 170.183 105.581C169.737 105.123 169.161 104.894 168.453 104.894C167.981 104.894 167.562 104.998 167.195 105.208C166.828 105.418 166.54 105.706 166.331 106.073C166.121 106.44 166.016 106.859 166.016 107.331L165.289 106.918C165.289 106.21 165.446 105.581 165.761 105.031C166.075 104.481 166.514 104.049 167.077 103.734C167.641 103.407 168.276 103.243 168.984 103.243C169.691 103.243 170.314 103.42 170.851 103.773C171.401 104.127 171.833 104.592 172.148 105.169C172.462 105.732 172.62 106.335 172.62 106.977V112.775H170.851ZM164.247 112.775V103.439H166.016V112.775H164.247ZM178.886 116.882C177.93 116.882 177.078 116.705 176.331 116.351C175.597 115.998 175.008 115.5 174.562 114.858L175.702 113.698C176.082 114.183 176.534 114.55 177.058 114.799C177.582 115.061 178.205 115.192 178.925 115.192C179.882 115.192 180.635 114.936 181.185 114.425C181.749 113.928 182.031 113.253 182.031 112.401V110.082L182.345 107.979L182.031 105.896V103.439H183.799V112.401C183.799 113.292 183.59 114.072 183.17 114.74C182.764 115.408 182.188 115.932 181.441 116.312C180.707 116.692 179.856 116.882 178.886 116.882ZM178.886 112.617C178.034 112.617 177.268 112.414 176.587 112.008C175.918 111.602 175.388 111.045 174.995 110.338C174.602 109.617 174.405 108.811 174.405 107.92C174.405 107.029 174.602 106.237 174.995 105.542C175.388 104.835 175.918 104.278 176.587 103.872C177.268 103.452 178.034 103.243 178.886 103.243C179.62 103.243 180.268 103.387 180.832 103.675C181.395 103.963 181.841 104.37 182.168 104.894C182.509 105.405 182.692 106.007 182.718 106.702V109.178C182.679 109.859 182.489 110.462 182.148 110.986C181.821 111.497 181.375 111.897 180.812 112.185C180.249 112.473 179.607 112.617 178.886 112.617ZM179.24 110.947C179.816 110.947 180.321 110.822 180.753 110.573C181.199 110.324 181.539 109.977 181.775 109.532C182.011 109.073 182.129 108.543 182.129 107.94C182.129 107.337 182.004 106.813 181.755 106.368C181.52 105.909 181.185 105.555 180.753 105.306C180.321 105.044 179.81 104.913 179.22 104.913C178.631 104.913 178.113 105.044 177.668 105.306C177.222 105.555 176.868 105.909 176.606 106.368C176.357 106.813 176.233 107.331 176.233 107.92C176.233 108.51 176.357 109.034 176.606 109.492C176.868 109.951 177.222 110.311 177.668 110.573C178.126 110.822 178.65 110.947 179.24 110.947Z" fill="black"/>
<rect x="316.821" y="95.448" width="137.572" height="19.6532" rx="1.96532" fill="#1A237E"/>
<path d="M345.204 108.865C344.71 108.865 344.288 108.775 343.938 108.594C343.589 108.413 343.278 108.151 343.007 107.807L343.586 107.229C343.784 107.506 344.013 107.717 344.273 107.861C344.532 108 344.851 108.069 345.231 108.069C345.605 108.069 345.903 107.988 346.126 107.825C346.355 107.663 346.469 107.44 346.469 107.156C346.469 106.921 346.415 106.731 346.307 106.587C346.198 106.442 346.051 106.325 345.864 106.234C345.683 106.138 345.484 106.053 345.267 105.981C345.05 105.903 344.833 105.821 344.616 105.737C344.399 105.647 344.2 105.538 344.02 105.411C343.839 105.279 343.691 105.107 343.577 104.896C343.468 104.685 343.414 104.42 343.414 104.101C343.414 103.745 343.498 103.444 343.667 103.197C343.842 102.943 344.077 102.751 344.372 102.618C344.673 102.479 345.011 102.41 345.385 102.41C345.794 102.41 346.162 102.491 346.488 102.654C346.813 102.811 347.078 103.019 347.283 103.278L346.705 103.857C346.518 103.64 346.316 103.477 346.099 103.368C345.888 103.26 345.644 103.206 345.367 103.206C345.029 103.206 344.761 103.281 344.562 103.432C344.363 103.576 344.264 103.781 344.264 104.046C344.264 104.257 344.318 104.429 344.426 104.562C344.541 104.688 344.689 104.797 344.869 104.887C345.05 104.978 345.249 105.062 345.466 105.14C345.689 105.213 345.909 105.294 346.126 105.384C346.343 105.475 346.542 105.589 346.723 105.728C346.903 105.867 347.048 106.047 347.157 106.27C347.271 106.487 347.328 106.762 347.328 107.093C347.328 107.647 347.135 108.081 346.75 108.395C346.37 108.708 345.855 108.865 345.204 108.865ZM348.989 108.775V102.681H349.803V108.775H348.989ZM347.931 105.222V104.48H350.86V105.222H347.931ZM353.351 108.865C352.959 108.865 352.604 108.769 352.284 108.576C351.965 108.377 351.712 108.109 351.525 107.771C351.344 107.434 351.254 107.054 351.254 106.632C351.254 106.21 351.344 105.83 351.525 105.493C351.712 105.155 351.962 104.887 352.275 104.688C352.595 104.489 352.953 104.39 353.351 104.39C353.677 104.39 353.966 104.459 354.219 104.598C354.478 104.73 354.686 104.917 354.843 105.158C354.999 105.393 355.087 105.668 355.105 105.981V107.274C355.087 107.581 354.999 107.855 354.843 108.097C354.692 108.338 354.487 108.527 354.228 108.666C353.975 108.799 353.683 108.865 353.351 108.865ZM353.487 108.097C353.891 108.097 354.216 107.961 354.463 107.69C354.71 107.412 354.834 107.06 354.834 106.632C354.834 106.337 354.776 106.08 354.662 105.864C354.553 105.641 354.397 105.469 354.192 105.348C353.987 105.222 353.749 105.158 353.478 105.158C353.206 105.158 352.965 105.222 352.754 105.348C352.55 105.475 352.387 105.65 352.266 105.873C352.152 106.09 352.094 106.34 352.094 106.623C352.094 106.912 352.152 107.168 352.266 107.391C352.387 107.608 352.553 107.78 352.763 107.907C352.974 108.033 353.216 108.097 353.487 108.097ZM354.78 108.775V107.617L354.933 106.569L354.78 105.529V104.48H355.602V108.775H354.78ZM356.787 108.775V104.48H357.6V108.775H356.787ZM357.6 106.325L357.293 106.189C357.293 105.641 357.42 105.204 357.673 104.878C357.926 104.553 358.29 104.39 358.767 104.39C358.984 104.39 359.179 104.429 359.354 104.507C359.529 104.58 359.692 104.703 359.842 104.878L359.309 105.43C359.219 105.333 359.119 105.264 359.011 105.222C358.902 105.179 358.776 105.158 358.631 105.158C358.33 105.158 358.083 105.255 357.89 105.448C357.697 105.641 357.6 105.933 357.6 106.325ZM361.058 108.775V102.681H361.871V108.775H361.058ZM360 105.222V104.48H362.929V105.222H360ZM366.836 108.775L365.136 104.48H365.986L367.216 107.825H366.945L368.165 104.48H368.635L369.856 107.825H369.584L370.814 104.48H371.664L369.973 108.775H369.494L368.255 105.529H368.554L367.306 108.775H366.836ZM372.325 108.775V104.48H373.139V108.775H372.325ZM372.732 103.621C372.581 103.621 372.458 103.573 372.361 103.477C372.265 103.374 372.217 103.248 372.217 103.097C372.217 102.952 372.265 102.832 372.361 102.736C372.458 102.633 372.581 102.582 372.732 102.582C372.883 102.582 373.006 102.633 373.103 102.736C373.199 102.832 373.247 102.952 373.247 103.097C373.247 103.248 373.199 103.374 373.103 103.477C373.006 103.573 372.883 103.621 372.732 103.621ZM374.998 108.775V102.681H375.812V108.775H374.998ZM373.94 105.222V104.48H376.869V105.222H373.94ZM380.704 108.775V106.27C380.704 105.945 380.601 105.677 380.397 105.466C380.192 105.255 379.926 105.149 379.601 105.149C379.384 105.149 379.191 105.198 379.022 105.294C378.854 105.39 378.721 105.523 378.625 105.692C378.528 105.86 378.48 106.053 378.48 106.27L378.145 106.08C378.145 105.755 378.218 105.466 378.362 105.213C378.507 104.959 378.709 104.761 378.968 104.616C379.227 104.465 379.52 104.39 379.845 104.39C380.171 104.39 380.457 104.462 380.704 104.607C380.957 104.752 381.156 104.953 381.301 105.213C381.445 105.472 381.518 105.77 381.518 106.108V108.775H380.704ZM377.666 108.775V102.32H378.48V108.775H377.666ZM386.326 108.865C385.934 108.865 385.578 108.769 385.259 108.576C384.94 108.377 384.687 108.109 384.5 107.771C384.319 107.434 384.228 107.054 384.228 106.632C384.228 106.21 384.319 105.83 384.5 105.493C384.687 105.155 384.937 104.887 385.25 104.688C385.569 104.489 385.928 104.39 386.326 104.39C386.651 104.39 386.941 104.459 387.194 104.598C387.453 104.73 387.661 104.917 387.818 105.158C387.974 105.393 388.062 105.668 388.08 105.981V107.274C388.062 107.581 387.974 107.855 387.818 108.097C387.667 108.338 387.462 108.527 387.203 108.666C386.95 108.799 386.657 108.865 386.326 108.865ZM386.461 108.097C386.865 108.097 387.191 107.961 387.438 107.69C387.685 107.412 387.808 107.06 387.808 106.632C387.808 106.337 387.751 106.08 387.637 105.864C387.528 105.641 387.372 105.469 387.167 105.348C386.962 105.222 386.724 105.158 386.452 105.158C386.181 105.158 385.94 105.222 385.729 105.348C385.524 105.475 385.362 105.65 385.241 105.873C385.126 106.09 385.069 106.34 385.069 106.623C385.069 106.912 385.126 107.168 385.241 107.391C385.362 107.608 385.527 107.78 385.738 107.907C385.949 108.033 386.19 108.097 386.461 108.097ZM387.754 108.775V107.617L387.908 106.569L387.754 105.529V104.48H388.577V108.775H387.754ZM393.309 108.775V102.681H394.159V108.775H393.309ZM391.175 103.278V102.5H396.283V103.278H391.175ZM397.948 108.865C397.52 108.865 397.134 108.769 396.791 108.576C396.447 108.377 396.176 108.109 395.977 107.771C395.778 107.434 395.679 107.051 395.679 106.623C395.679 106.201 395.775 105.821 395.968 105.484C396.167 105.146 396.432 104.881 396.764 104.688C397.101 104.489 397.478 104.39 397.894 104.39C398.292 104.39 398.641 104.48 398.943 104.661C399.25 104.842 399.488 105.092 399.657 105.411C399.831 105.731 399.919 106.093 399.919 106.496C399.919 106.557 399.916 106.623 399.91 106.695C399.904 106.762 399.892 106.84 399.874 106.93H396.248V106.252H399.44L399.141 106.514C399.141 106.225 399.09 105.981 398.988 105.782C398.885 105.577 398.741 105.421 398.554 105.312C398.367 105.198 398.141 105.14 397.876 105.14C397.598 105.14 397.354 105.201 397.143 105.321C396.933 105.442 396.77 105.61 396.655 105.827C396.541 106.044 396.484 106.3 396.484 106.596C396.484 106.897 396.544 107.162 396.664 107.391C396.785 107.614 396.957 107.789 397.18 107.916C397.403 108.036 397.659 108.097 397.948 108.097C398.189 108.097 398.409 108.054 398.608 107.97C398.813 107.886 398.988 107.759 399.132 107.59L399.657 108.124C399.452 108.365 399.199 108.549 398.897 108.675C398.602 108.802 398.286 108.865 397.948 108.865ZM400.806 108.775V104.48H401.62V108.775H400.806ZM403.708 108.775V106.18C403.708 105.86 403.609 105.61 403.41 105.43C403.217 105.243 402.973 105.149 402.677 105.149C402.479 105.149 402.301 105.191 402.144 105.276C401.987 105.36 401.861 105.478 401.764 105.628C401.668 105.779 401.62 105.96 401.62 106.171L401.285 106.008C401.285 105.683 401.355 105.399 401.493 105.158C401.638 104.917 401.834 104.73 402.081 104.598C402.328 104.459 402.605 104.39 402.912 104.39C403.214 104.39 403.485 104.456 403.726 104.589C403.973 104.721 404.166 104.908 404.305 105.149C404.449 105.39 404.522 105.677 404.522 106.008V108.775H403.708ZM406.61 108.775V106.18C406.61 105.86 406.511 105.61 406.312 105.43C406.119 105.243 405.878 105.149 405.588 105.149C405.39 105.149 405.209 105.191 405.046 105.276C404.889 105.36 404.763 105.478 404.666 105.628C404.57 105.779 404.522 105.96 404.522 106.171L404.061 106.008C404.079 105.677 404.166 105.393 404.323 105.158C404.486 104.917 404.693 104.73 404.947 104.598C405.2 104.459 405.477 104.39 405.778 104.39C406.092 104.39 406.372 104.456 406.619 104.589C406.866 104.721 407.062 104.908 407.207 105.149C407.357 105.39 407.433 105.68 407.433 106.017V108.775H406.61ZM410.8 108.865C410.475 108.865 410.179 108.799 409.914 108.666C409.655 108.527 409.447 108.338 409.29 108.097C409.134 107.855 409.046 107.581 409.028 107.274V105.981C409.046 105.668 409.134 105.393 409.29 105.158C409.453 104.917 409.664 104.73 409.923 104.598C410.188 104.459 410.481 104.39 410.8 104.39C411.192 104.39 411.544 104.489 411.858 104.688C412.177 104.887 412.427 105.155 412.608 105.493C412.789 105.83 412.879 106.21 412.879 106.632C412.879 107.054 412.789 107.434 412.608 107.771C412.427 108.109 412.177 108.377 411.858 108.576C411.544 108.769 411.192 108.865 410.8 108.865ZM408.54 110.574V104.48H409.354V105.61L409.2 106.65L409.354 107.699V110.574H408.54ZM410.664 108.097C410.936 108.097 411.174 108.033 411.379 107.907C411.584 107.78 411.746 107.608 411.867 107.391C411.987 107.168 412.048 106.912 412.048 106.623C412.048 106.34 411.987 106.087 411.867 105.864C411.746 105.641 411.584 105.469 411.379 105.348C411.174 105.222 410.939 105.158 410.673 105.158C410.402 105.158 410.164 105.222 409.959 105.348C409.754 105.469 409.595 105.641 409.48 105.864C409.366 106.087 409.308 106.343 409.308 106.632C409.308 106.915 409.363 107.168 409.471 107.391C409.586 107.608 409.745 107.78 409.95 107.907C410.161 108.033 410.399 108.097 410.664 108.097ZM413.802 108.775V102.32H414.615V108.775H413.802ZM417.632 108.865C417.24 108.865 416.885 108.769 416.565 108.576C416.246 108.377 415.993 108.109 415.806 107.771C415.625 107.434 415.535 107.054 415.535 106.632C415.535 106.21 415.625 105.83 415.806 105.493C415.993 105.155 416.243 104.887 416.556 104.688C416.876 104.489 417.234 104.39 417.632 104.39C417.957 104.39 418.247 104.459 418.5 104.598C418.759 104.73 418.967 104.917 419.124 105.158C419.28 105.393 419.368 105.668 419.386 105.981V107.274C419.368 107.581 419.28 107.855 419.124 108.097C418.973 108.338 418.768 108.527 418.509 108.666C418.256 108.799 417.963 108.865 417.632 108.865ZM417.768 108.097C418.171 108.097 418.497 107.961 418.744 107.69C418.991 107.412 419.115 107.06 419.115 106.632C419.115 106.337 419.057 106.08 418.943 105.864C418.834 105.641 418.678 105.469 418.473 105.348C418.268 105.222 418.03 105.158 417.759 105.158C417.487 105.158 417.246 105.222 417.035 105.348C416.83 105.475 416.668 105.65 416.547 105.873C416.433 106.09 416.375 106.34 416.375 106.623C416.375 106.912 416.433 107.168 416.547 107.391C416.668 107.608 416.833 107.78 417.044 107.907C417.255 108.033 417.496 108.097 417.768 108.097ZM419.06 108.775V107.617L419.214 106.569L419.06 105.529V104.48H419.883V108.775H419.06ZM421.71 108.775V102.681H422.524V108.775H421.71ZM420.652 105.222V104.48H423.581V105.222H420.652ZM426.235 108.865C425.807 108.865 425.421 108.769 425.078 108.576C424.734 108.377 424.463 108.109 424.264 107.771C424.065 107.434 423.966 107.051 423.966 106.623C423.966 106.201 424.062 105.821 424.255 105.484C424.454 105.146 424.719 104.881 425.051 104.688C425.388 104.489 425.765 104.39 426.181 104.39C426.578 104.39 426.928 104.48 427.229 104.661C427.537 104.842 427.775 105.092 427.943 105.411C428.118 105.731 428.206 106.093 428.206 106.496C428.206 106.557 428.203 106.623 428.197 106.695C428.191 106.762 428.179 106.84 428.16 106.93H424.535V106.252H427.727L427.428 106.514C427.428 106.225 427.377 105.981 427.274 105.782C427.172 105.577 427.027 105.421 426.841 105.312C426.654 105.198 426.428 105.14 426.163 105.14C425.885 105.14 425.641 105.201 425.43 105.321C425.219 105.442 425.057 105.61 424.942 105.827C424.828 106.044 424.77 106.3 424.77 106.596C424.77 106.897 424.831 107.162 424.951 107.391C425.072 107.614 425.243 107.789 425.466 107.916C425.689 108.036 425.946 108.097 426.235 108.097C426.476 108.097 426.696 108.054 426.895 107.97C427.1 107.886 427.274 107.759 427.419 107.59L427.943 108.124C427.739 108.365 427.485 108.549 427.184 108.675C426.889 108.802 426.572 108.865 426.235 108.865Z" fill="white"/>
<rect x="46.0983" y="154.624" width="92.3699" height="129.711" rx="3.43931" fill="white"/>
<rect x="46.0983" y="154.624" width="92.3699" height="129.711" rx="3.43931" stroke="#D5D9DC" stroke-width="0.982659"/>
<rect x="67.7168" y="169.26" width="49.1329" height="49.1329" rx="24.5665" fill="#E9ECFF"/>
<path d="M93.1021 193.008H91.4644V195.464H89.0077V197.102H91.4644V199.559H93.1021V197.102H95.5588V195.464H93.1021V193.008ZM93.921 185.638H87.3699C86.4692 185.638 85.7322 186.375 85.7322 187.276V200.378C85.7322 201.278 86.461 202.015 87.3618 202.015H97.1965C98.0973 202.015 98.8343 201.278 98.8343 200.378V190.551L93.921 185.638ZM97.1965 200.378H87.3699V187.276H93.1021V191.37H97.1965V200.378Z" fill="#1A237E"/>
<path d="M58.6746 238.318C58.1963 238.318 57.7476 238.229 57.3283 238.053C56.9156 237.869 56.552 237.617 56.2376 237.296C55.9297 236.975 55.6873 236.601 55.5104 236.176C55.3335 235.75 55.2451 235.291 55.2451 234.8C55.2451 234.309 55.3335 233.853 55.5104 233.434C55.6873 233.008 55.9329 232.635 56.2474 232.314C56.5618 231.993 56.9287 231.744 57.348 231.567C57.7738 231.39 58.2356 231.302 58.7335 231.302C59.2773 231.302 59.7784 231.407 60.237 231.616C60.6956 231.826 61.0788 232.127 61.3867 232.52L60.748 233.159C60.5318 232.844 60.2468 232.605 59.8931 232.442C59.5393 232.271 59.1528 232.186 58.7335 232.186C58.2356 232.186 57.7934 232.297 57.4069 232.52C57.027 232.743 56.7289 233.051 56.5127 233.444C56.3031 233.837 56.1983 234.289 56.1983 234.8C56.1983 235.317 56.3064 235.773 56.5225 236.166C56.7387 236.559 57.0302 236.867 57.3971 237.09C57.764 237.312 58.1832 237.424 58.6549 237.424C59.1331 237.424 59.5459 237.332 59.8931 237.149C60.2468 236.965 60.5187 236.696 60.7087 236.343C60.8986 235.982 60.9936 235.543 60.9936 235.026L61.5538 235.429H58.6058V234.584H61.9468V234.721C61.9468 235.514 61.806 236.179 61.5243 236.716C61.2491 237.247 60.8626 237.646 60.3647 237.915C59.8734 238.184 59.31 238.318 58.6746 238.318ZM65.1939 238.318C64.7288 238.318 64.3095 238.213 63.9361 238.003C63.5627 237.787 63.2679 237.496 63.0517 237.129C62.8355 236.762 62.7274 236.346 62.7274 235.881C62.7274 235.422 62.8322 235.01 63.0419 234.643C63.2581 234.276 63.5463 233.988 63.9066 233.778C64.2735 233.562 64.6829 233.454 65.1349 233.454C65.5673 233.454 65.9473 233.552 66.2748 233.749C66.6089 233.945 66.8677 234.217 67.0511 234.564C67.2411 234.911 67.3361 235.304 67.3361 235.743C67.3361 235.809 67.3328 235.881 67.3263 235.959C67.3197 236.032 67.3066 236.117 67.287 236.215H63.3465V235.478H66.8153L66.491 235.763C66.491 235.449 66.4353 235.183 66.3239 234.967C66.2126 234.744 66.0554 234.574 65.8523 234.456C65.6492 234.332 65.4035 234.269 65.1153 234.269C64.8139 234.269 64.5486 234.335 64.3193 234.466C64.09 234.597 63.9132 234.78 63.7887 235.016C63.6642 235.252 63.602 235.53 63.602 235.851C63.602 236.179 63.6675 236.467 63.7985 236.716C63.9295 236.959 64.1162 237.149 64.3586 237.286C64.601 237.417 64.8794 237.483 65.1939 237.483C65.4559 237.483 65.695 237.437 65.9112 237.345C66.134 237.253 66.3239 237.116 66.4812 236.932L67.0511 237.512C66.8284 237.774 66.5532 237.974 66.2257 238.112C65.9047 238.249 65.5608 238.318 65.1939 238.318ZM71.6021 238.22V235.498C71.6021 235.144 71.4908 234.852 71.268 234.623C71.0453 234.394 70.757 234.279 70.4033 234.279C70.1675 234.279 69.9578 234.332 69.7744 234.436C69.591 234.541 69.4468 234.685 69.342 234.869C69.2372 235.052 69.1848 235.262 69.1848 235.498L68.8212 235.291C68.8212 234.938 68.8998 234.623 69.057 234.348C69.2143 234.073 69.4337 233.857 69.7154 233.699C69.9971 233.536 70.3148 233.454 70.6686 233.454C71.0224 233.454 71.3335 233.542 71.6021 233.719C71.8773 233.896 72.0935 234.128 72.2507 234.417C72.4079 234.698 72.4865 235 72.4865 235.321V238.22H71.6021ZM68.3004 238.22V233.552H69.1848V238.22H68.3004ZM75.8458 238.318C75.3806 238.318 74.9614 238.213 74.588 238.003C74.2145 237.787 73.9197 237.496 73.7036 237.129C73.4874 236.762 73.3793 236.346 73.3793 235.881C73.3793 235.422 73.4841 235.01 73.6937 234.643C73.9099 234.276 74.1982 233.988 74.5585 233.778C74.9253 233.562 75.3348 233.454 75.7868 233.454C76.2192 233.454 76.5991 233.552 76.9267 233.749C77.2608 233.945 77.5196 234.217 77.703 234.564C77.893 234.911 77.988 235.304 77.988 235.743C77.988 235.809 77.9847 235.881 77.9781 235.959C77.9716 236.032 77.9585 236.117 77.9388 236.215H73.9984V235.478H77.4671L77.1429 235.763C77.1429 235.449 77.0872 235.183 76.9758 234.967C76.8645 234.744 76.7072 234.574 76.5041 234.456C76.3011 234.332 76.0554 234.269 75.7671 234.269C75.4658 234.269 75.2005 234.335 74.9712 234.466C74.7419 234.597 74.565 234.78 74.4406 235.016C74.3161 235.252 74.2539 235.53 74.2539 235.851C74.2539 236.179 74.3194 236.467 74.4504 236.716C74.5814 236.959 74.7681 237.149 75.0105 237.286C75.2529 237.417 75.5313 237.483 75.8458 237.483C76.1078 237.483 76.3469 237.437 76.5631 237.345C76.7858 237.253 76.9758 237.116 77.133 236.932L77.703 237.512C77.4803 237.774 77.2051 237.974 76.8776 238.112C76.5566 238.249 76.2126 238.318 75.8458 238.318ZM78.9523 238.22V233.552H79.8367V238.22H78.9523ZM79.8367 235.557L79.5026 235.409C79.5026 234.813 79.6401 234.338 79.9153 233.984C80.1904 233.631 80.5868 233.454 81.1043 233.454C81.3401 233.454 81.553 233.496 81.743 233.581C81.933 233.66 82.1099 233.794 82.2737 233.984L81.6939 234.584C81.5956 234.479 81.4875 234.404 81.3696 234.358C81.2517 234.312 81.1141 234.289 80.9569 234.289C80.6293 234.289 80.3607 234.394 80.1511 234.603C79.9415 234.813 79.8367 235.131 79.8367 235.557ZM84.7278 238.318C84.302 238.318 83.9154 238.213 83.5682 238.003C83.221 237.787 82.9459 237.496 82.7428 237.129C82.5463 236.762 82.448 236.349 82.448 235.891C82.448 235.432 82.5463 235.019 82.7428 234.653C82.9459 234.286 83.2178 233.994 83.5584 233.778C83.9056 233.562 84.2954 233.454 84.7278 233.454C85.0815 233.454 85.396 233.529 85.6711 233.68C85.9528 233.824 86.1788 234.027 86.3492 234.289C86.5195 234.544 86.6145 234.843 86.6341 235.183V236.588C86.6145 236.922 86.5195 237.221 86.3492 237.483C86.1854 237.745 85.9626 237.951 85.6809 238.102C85.4058 238.246 85.0881 238.318 84.7278 238.318ZM84.8752 237.483C85.3141 237.483 85.6678 237.335 85.9364 237.04C86.205 236.739 86.3393 236.356 86.3393 235.891C86.3393 235.57 86.2771 235.291 86.1526 235.055C86.0347 234.813 85.8644 234.626 85.6416 234.495C85.4189 234.358 85.1601 234.289 84.8653 234.289C84.5705 234.289 84.3085 234.358 84.0792 234.495C83.8565 234.633 83.6796 234.823 83.5486 235.065C83.4241 235.301 83.3619 235.573 83.3619 235.881C83.3619 236.195 83.4241 236.474 83.5486 236.716C83.6796 236.952 83.8598 237.139 84.089 237.276C84.3183 237.414 84.5804 237.483 84.8752 237.483ZM86.2804 238.22V236.962L86.4474 235.822L86.2804 234.692V233.552H87.1746V238.22H86.2804ZM89.1603 238.22V231.596H90.0447V238.22H89.1603ZM88.0106 234.358V233.552H91.1944V234.358H88.0106ZM94.0787 238.318C93.6136 238.318 93.1943 238.213 92.8209 238.003C92.4475 237.787 92.1527 237.496 91.9365 237.129C91.7203 236.762 91.6122 236.346 91.6122 235.881C91.6122 235.422 91.717 235.01 91.9267 234.643C92.1429 234.276 92.4311 233.988 92.7914 233.778C93.1583 233.562 93.5677 233.454 94.0197 233.454C94.4521 233.454 94.8321 233.552 95.1596 233.749C95.4937 233.945 95.7525 234.217 95.9359 234.564C96.1259 234.911 96.2209 235.304 96.2209 235.743C96.2209 235.809 96.2176 235.881 96.2111 235.959C96.2045 236.032 96.1914 236.117 96.1718 236.215H92.2313V235.478H95.7001L95.3758 235.763C95.3758 235.449 95.3201 235.183 95.2088 234.967C95.0974 234.744 94.9402 234.574 94.7371 234.456C94.534 234.332 94.2883 234.269 94.0001 234.269C93.6987 234.269 93.4334 234.335 93.2041 234.466C92.9748 234.597 92.798 234.78 92.6735 235.016C92.549 235.252 92.4868 235.53 92.4868 235.851C92.4868 236.179 92.5523 236.467 92.6833 236.716C92.8143 236.959 93.001 237.149 93.2434 237.286C93.4858 237.417 93.7642 237.483 94.0787 237.483C94.3407 237.483 94.5798 237.437 94.796 237.345C95.0188 237.253 95.2088 237.116 95.366 236.932L95.9359 237.512C95.7132 237.774 95.438 237.974 95.1105 238.112C94.7895 238.249 94.4456 238.318 94.0787 238.318ZM99.3864 238.22V231.4H100.31V238.22H99.3864ZM105.064 238.22V235.498C105.064 235.144 104.953 234.852 104.73 234.623C104.508 234.394 104.219 234.279 103.866 234.279C103.63 234.279 103.42 234.332 103.237 234.436C103.053 234.541 102.909 234.685 102.804 234.869C102.699 235.052 102.647 235.262 102.647 235.498L102.283 235.291C102.283 234.938 102.362 234.623 102.519 234.348C102.676 234.073 102.896 233.857 103.178 233.699C103.459 233.536 103.777 233.454 104.131 233.454C104.485 233.454 104.796 233.542 105.064 233.719C105.34 233.896 105.556 234.128 105.713 234.417C105.87 234.698 105.949 235 105.949 235.321V238.22H105.064ZM101.763 238.22V233.552H102.647V238.22H101.763ZM108.748 238.22L106.606 233.552H107.588L109.308 237.492H108.738L110.468 233.552H111.411L109.269 238.22H108.748ZM114.115 238.318C113.656 238.318 113.244 238.21 112.877 237.994C112.51 237.777 112.218 237.486 112.002 237.119C111.786 236.746 111.678 236.33 111.678 235.871C111.678 235.419 111.786 235.013 112.002 234.653C112.218 234.286 112.51 233.994 112.877 233.778C113.244 233.562 113.656 233.454 114.115 233.454C114.567 233.454 114.976 233.562 115.343 233.778C115.717 233.988 116.012 234.276 116.228 234.643C116.444 235.01 116.552 235.419 116.552 235.871C116.552 236.33 116.444 236.746 116.228 237.119C116.012 237.486 115.717 237.777 115.343 237.994C114.976 238.21 114.567 238.318 114.115 238.318ZM114.115 237.463C114.41 237.463 114.672 237.394 114.901 237.257C115.13 237.119 115.311 236.932 115.442 236.696C115.573 236.454 115.638 236.179 115.638 235.871C115.638 235.57 115.569 235.301 115.432 235.065C115.301 234.829 115.121 234.646 114.891 234.515C114.669 234.377 114.41 234.309 114.115 234.309C113.82 234.309 113.558 234.377 113.329 234.515C113.1 234.646 112.919 234.829 112.788 235.065C112.657 235.301 112.592 235.57 112.592 235.871C112.592 236.179 112.657 236.454 112.788 236.696C112.919 236.932 113.1 237.119 113.329 237.257C113.558 237.394 113.82 237.463 114.115 237.463ZM117.558 238.22V233.552H118.443V238.22H117.558ZM118.001 232.618C117.837 232.618 117.702 232.566 117.598 232.461C117.493 232.35 117.44 232.212 117.44 232.049C117.44 231.891 117.493 231.76 117.598 231.655C117.702 231.544 117.837 231.488 118.001 231.488C118.164 231.488 118.299 231.544 118.403 231.655C118.508 231.76 118.561 231.891 118.561 232.049C118.561 232.212 118.508 232.35 118.403 232.461C118.299 232.566 118.164 232.618 118.001 232.618ZM121.878 238.318C121.42 238.318 121.004 238.21 120.63 237.994C120.264 237.777 119.972 237.486 119.756 237.119C119.546 236.746 119.441 236.333 119.441 235.881C119.441 235.422 119.546 235.01 119.756 234.643C119.972 234.276 120.264 233.988 120.63 233.778C121.004 233.562 121.42 233.454 121.878 233.454C122.239 233.454 122.573 233.522 122.881 233.66C123.189 233.791 123.454 233.984 123.677 234.24L123.087 234.829C122.943 234.659 122.766 234.531 122.556 234.446C122.353 234.354 122.127 234.309 121.878 234.309C121.584 234.309 121.322 234.377 121.092 234.515C120.863 234.646 120.683 234.829 120.552 235.065C120.421 235.301 120.355 235.573 120.355 235.881C120.355 236.189 120.421 236.461 120.552 236.696C120.683 236.932 120.863 237.119 121.092 237.257C121.322 237.394 121.584 237.463 121.878 237.463C122.127 237.463 122.353 237.42 122.556 237.335C122.766 237.243 122.946 237.112 123.097 236.942L123.677 237.532C123.461 237.781 123.195 237.974 122.881 238.112C122.573 238.249 122.239 238.318 121.878 238.318ZM126.62 238.318C126.155 238.318 125.735 238.213 125.362 238.003C124.988 237.787 124.694 237.496 124.477 237.129C124.261 236.762 124.153 236.346 124.153 235.881C124.153 235.422 124.258 235.01 124.468 234.643C124.684 234.276 124.972 233.988 125.332 233.778C125.699 233.562 126.109 233.454 126.561 233.454C126.993 233.454 127.373 233.552 127.701 233.749C128.035 233.945 128.293 234.217 128.477 234.564C128.667 234.911 128.762 235.304 128.762 235.743C128.762 235.809 128.759 235.881 128.752 235.959C128.745 236.032 128.732 236.117 128.713 236.215H124.772V235.478H128.241L127.917 235.763C127.917 235.449 127.861 235.183 127.75 234.967C127.638 234.744 127.481 234.574 127.278 234.456C127.075 234.332 126.829 234.269 126.541 234.269C126.24 234.269 125.974 234.335 125.745 234.466C125.516 234.597 125.339 234.78 125.214 235.016C125.09 235.252 125.028 235.53 125.028 235.851C125.028 236.179 125.093 236.467 125.224 236.716C125.355 236.959 125.542 237.149 125.784 237.286C126.027 237.417 126.305 237.483 126.62 237.483C126.882 237.483 127.121 237.437 127.337 237.345C127.56 237.253 127.75 237.116 127.907 236.932L128.477 237.512C128.254 237.774 127.979 237.974 127.651 238.112C127.33 238.249 126.987 238.318 126.62 238.318Z" fill="black"/>
<rect x="51.0116" y="244.15" width="82.5434" height="5.89595" rx="2.94798" fill="#F5F5F5"/>
<rect x="51.0116" y="253.977" width="82.5434" height="5.89595" rx="2.94798" fill="#F5F5F5"/>
<rect x="62.8035" y="263.803" width="58.9595" height="5.89595" rx="2.94798" fill="#F5F5F5"/>
<rect x="151.243" y="154.624" width="92.3699" height="129.711" rx="3.43931" fill="white"/>
<rect x="151.243" y="154.624" width="92.3699" height="129.711" rx="3.43931" stroke="#D5D9DC" stroke-width="0.982659"/>
<rect x="172.861" y="169.26" width="49.1329" height="49.1329" rx="24.5665" fill="#E9ECFF"/>
<path d="M197.428 189.323C200.531 189.323 203.299 191.067 204.65 193.827C203.299 196.586 200.531 198.33 197.428 198.33C194.324 198.33 191.556 196.586 190.205 193.827C191.556 191.067 194.324 189.323 197.428 189.323ZM197.428 187.685C193.333 187.685 189.837 190.232 188.42 193.827C189.837 197.421 193.333 199.968 197.428 199.968C201.522 199.968 205.019 197.421 206.435 193.827C205.019 190.232 201.522 187.685 197.428 187.685ZM197.428 191.779C198.558 191.779 199.475 192.696 199.475 193.827C199.475 194.957 198.558 195.874 197.428 195.874C196.298 195.874 195.381 194.957 195.381 193.827C195.381 192.696 196.298 191.779 197.428 191.779ZM197.428 190.142C195.397 190.142 193.743 191.796 193.743 193.827C193.743 195.857 195.397 197.512 197.428 197.512C199.459 197.512 201.113 195.857 201.113 193.827C201.113 191.796 199.459 190.142 197.428 190.142Z" fill="#1A237E"/>
<path d="M165.464 238.22L162.732 231.4H163.735L165.985 237.168H165.621L167.891 231.4H168.884L166.132 238.22H165.464ZM169.852 238.22V233.552H170.736V238.22H169.852ZM170.294 232.618C170.13 232.618 169.996 232.566 169.891 232.461C169.786 232.35 169.734 232.212 169.734 232.049C169.734 231.891 169.786 231.76 169.891 231.655C169.996 231.544 170.13 231.488 170.294 231.488C170.457 231.488 170.592 231.544 170.697 231.655C170.801 231.76 170.854 231.891 170.854 232.049C170.854 232.212 170.801 232.35 170.697 232.461C170.592 232.566 170.457 232.618 170.294 232.618ZM174.201 238.318C173.736 238.318 173.317 238.213 172.943 238.003C172.57 237.787 172.275 237.496 172.059 237.129C171.843 236.762 171.735 236.346 171.735 235.881C171.735 235.422 171.839 235.01 172.049 234.643C172.265 234.276 172.554 233.988 172.914 233.778C173.281 233.562 173.69 233.454 174.142 233.454C174.575 233.454 174.954 233.552 175.282 233.749C175.616 233.945 175.875 234.217 176.058 234.564C176.248 234.911 176.343 235.304 176.343 235.743C176.343 235.809 176.34 235.881 176.333 235.959C176.327 236.032 176.314 236.117 176.294 236.215H172.354V235.478H175.822L175.498 235.763C175.498 235.449 175.443 235.183 175.331 234.967C175.22 234.744 175.063 234.574 174.859 234.456C174.656 234.332 174.411 234.269 174.122 234.269C173.821 234.269 173.556 234.335 173.327 234.466C173.097 234.597 172.92 234.78 172.796 235.016C172.671 235.252 172.609 235.53 172.609 235.851C172.609 236.179 172.675 236.467 172.806 236.716C172.937 236.959 173.123 237.149 173.366 237.286C173.608 237.417 173.887 237.483 174.201 237.483C174.463 237.483 174.702 237.437 174.918 237.345C175.141 237.253 175.331 237.116 175.488 236.932L176.058 237.512C175.836 237.774 175.56 237.974 175.233 238.112C174.912 238.249 174.568 238.318 174.201 238.318ZM178.586 238.22L176.739 233.552H177.663L178.999 237.188H178.704L180.031 233.552H180.542L181.869 237.188H181.574L182.91 233.552H183.834L181.996 238.22H181.475L180.129 234.692H180.453L179.097 238.22H178.586ZM184.62 236.136V235.301H187.853V236.136H184.62ZM188.412 238.22L191.203 231.4H191.871L194.652 238.22H193.65L191.36 232.451H191.704L189.395 238.22H188.412ZM189.739 236.677V235.871H193.325V236.677H189.739ZM195.598 238.22V231.203H196.483V238.22H195.598ZM197.776 238.22V231.203H198.661V238.22H197.776ZM202.156 238.22V231.4H203.08V238.22H202.156ZM207.834 238.22V235.498C207.834 235.144 207.723 234.852 207.5 234.623C207.277 234.394 206.989 234.279 206.635 234.279C206.399 234.279 206.19 234.332 206.006 234.436C205.823 234.541 205.679 234.685 205.574 234.869C205.469 235.052 205.417 235.262 205.417 235.498L205.053 235.291C205.053 234.938 205.132 234.623 205.289 234.348C205.446 234.073 205.666 233.857 205.947 233.699C206.229 233.536 206.547 233.454 206.9 233.454C207.254 233.454 207.565 233.542 207.834 233.719C208.109 233.896 208.325 234.128 208.483 234.417C208.64 234.698 208.718 235 208.718 235.321V238.22H207.834ZM204.532 238.22V233.552H205.417V238.22H204.532ZM211.517 238.22L209.375 233.552H210.358L212.078 237.492H211.508L213.237 233.552H214.18L212.038 238.22H211.517ZM216.885 238.318C216.426 238.318 216.013 238.21 215.647 237.994C215.28 237.777 214.988 237.486 214.772 237.119C214.556 236.746 214.448 236.33 214.448 235.871C214.448 235.419 214.556 235.013 214.772 234.653C214.988 234.286 215.28 233.994 215.647 233.778C216.013 233.562 216.426 233.454 216.885 233.454C217.337 233.454 217.746 233.562 218.113 233.778C218.486 233.988 218.781 234.276 218.997 234.643C219.214 235.01 219.322 235.419 219.322 235.871C219.322 236.33 219.214 236.746 218.997 237.119C218.781 237.486 218.486 237.777 218.113 237.994C217.746 238.21 217.337 238.318 216.885 238.318ZM216.885 237.463C217.179 237.463 217.441 237.394 217.671 237.257C217.9 237.119 218.08 236.932 218.211 236.696C218.342 236.454 218.408 236.179 218.408 235.871C218.408 235.57 218.339 235.301 218.201 235.065C218.07 234.829 217.89 234.646 217.661 234.515C217.438 234.377 217.179 234.309 216.885 234.309C216.59 234.309 216.328 234.377 216.099 234.515C215.869 234.646 215.689 234.829 215.558 235.065C215.427 235.301 215.362 235.57 215.362 235.871C215.362 236.179 215.427 236.454 215.558 236.696C215.689 236.932 215.869 237.119 216.099 237.257C216.328 237.394 216.59 237.463 216.885 237.463ZM220.328 238.22V233.552H221.212V238.22H220.328ZM220.77 232.618C220.606 232.618 220.472 232.566 220.367 232.461C220.262 232.35 220.21 232.212 220.21 232.049C220.21 231.891 220.262 231.76 220.367 231.655C220.472 231.544 220.606 231.488 220.77 231.488C220.934 231.488 221.068 231.544 221.173 231.655C221.278 231.76 221.33 231.891 221.33 232.049C221.33 232.212 221.278 232.35 221.173 232.461C221.068 232.566 220.934 232.618 220.77 232.618ZM224.648 238.318C224.189 238.318 223.773 238.21 223.4 237.994C223.033 237.777 222.742 237.486 222.525 237.119C222.316 236.746 222.211 236.333 222.211 235.881C222.211 235.422 222.316 235.01 222.525 234.643C222.742 234.276 223.033 233.988 223.4 233.778C223.773 233.562 224.189 233.454 224.648 233.454C225.008 233.454 225.342 233.522 225.65 233.66C225.958 233.791 226.224 233.984 226.446 234.24L225.857 234.829C225.713 234.659 225.536 234.531 225.326 234.446C225.123 234.354 224.897 234.309 224.648 234.309C224.353 234.309 224.091 234.377 223.862 234.515C223.633 234.646 223.452 234.829 223.321 235.065C223.19 235.301 223.125 235.573 223.125 235.881C223.125 236.189 223.19 236.461 223.321 236.696C223.452 236.932 223.633 237.119 223.862 237.257C224.091 237.394 224.353 237.463 224.648 237.463C224.897 237.463 225.123 237.42 225.326 237.335C225.536 237.243 225.716 237.112 225.867 236.942L226.446 237.532C226.23 237.781 225.965 237.974 225.65 238.112C225.342 238.249 225.008 238.318 224.648 238.318ZM229.389 238.318C228.924 238.318 228.505 238.213 228.131 238.003C227.758 237.787 227.463 237.496 227.247 237.129C227.031 236.762 226.923 236.346 226.923 235.881C226.923 235.422 227.028 235.01 227.237 234.643C227.453 234.276 227.742 233.988 228.102 233.778C228.469 233.562 228.878 233.454 229.33 233.454C229.763 233.454 230.143 233.552 230.47 233.749C230.804 233.945 231.063 234.217 231.247 234.564C231.436 234.911 231.531 235.304 231.531 235.743C231.531 235.809 231.528 235.881 231.522 235.959C231.515 236.032 231.502 236.117 231.482 236.215H227.542V235.478H231.011L230.686 235.763C230.686 235.449 230.631 235.183 230.519 234.967C230.408 234.744 230.251 234.574 230.048 234.456C229.845 234.332 229.599 234.269 229.311 234.269C229.009 234.269 228.744 234.335 228.515 234.466C228.285 234.597 228.109 234.78 227.984 235.016C227.86 235.252 227.797 235.53 227.797 235.851C227.797 236.179 227.863 236.467 227.994 236.716C228.125 236.959 228.312 237.149 228.554 237.286C228.796 237.417 229.075 237.483 229.389 237.483C229.651 237.483 229.89 237.437 230.107 237.345C230.329 237.253 230.519 237.116 230.677 236.932L231.247 237.512C231.024 237.774 230.749 237.974 230.421 238.112C230.1 238.249 229.756 238.318 229.389 238.318Z" fill="black"/>
<rect x="156.156" y="244.15" width="82.5434" height="5.89595" rx="2.94798" fill="#F5F5F5"/>
<rect x="156.156" y="253.977" width="82.5434" height="5.89595" rx="2.94798" fill="#F5F5F5"/>
<rect x="167.948" y="263.803" width="58.9595" height="5.89595" rx="2.94798" fill="#F5F5F5"/>
<rect x="256.387" y="154.624" width="92.3699" height="129.711" rx="3.43931" fill="white"/>
<rect x="256.387" y="154.624" width="92.3699" height="129.711" rx="3.43931" stroke="#D5D9DC" stroke-width="0.982659"/>
<rect x="278.006" y="169.26" width="49.1329" height="49.1329" rx="24.5665" fill="#E9ECFF"/>
<path d="M310.352 188.504V190.142H307.895V192.598H306.257V190.142H303.801V188.504H306.257V186.047H307.895V188.504H310.352ZM307.895 199.968H296.431V188.504H301.344V186.866H296.431C295.53 186.866 294.793 187.603 294.793 188.504V199.968C294.793 200.869 295.53 201.606 296.431 201.606H307.895C308.796 201.606 309.533 200.869 309.533 199.968V195.055H307.895V199.968ZM304.62 195.055V198.33H306.257V195.055H304.62ZM301.344 198.33H302.982V191.779H301.344V198.33ZM299.706 198.33V193.417H298.068V198.33H299.706Z" fill="#1A237E"/>
<path d="M271.378 238.22V231.4H272.302V238.22H271.378ZM273.754 238.22V233.552H274.639V238.22H273.754ZM276.909 238.22V235.399C276.909 235.052 276.8 234.78 276.584 234.584C276.375 234.381 276.109 234.279 275.788 234.279C275.572 234.279 275.379 234.325 275.209 234.417C275.038 234.508 274.901 234.636 274.796 234.8C274.691 234.964 274.639 235.16 274.639 235.39L274.275 235.213C274.275 234.859 274.35 234.551 274.501 234.289C274.658 234.027 274.871 233.824 275.14 233.68C275.408 233.529 275.71 233.454 276.044 233.454C276.371 233.454 276.666 233.526 276.928 233.67C277.197 233.814 277.406 234.017 277.557 234.279C277.714 234.541 277.793 234.852 277.793 235.213V238.22H276.909ZM280.063 238.22V235.399C280.063 235.052 279.955 234.78 279.739 234.584C279.529 234.381 279.267 234.279 278.953 234.279C278.736 234.279 278.54 234.325 278.363 234.417C278.193 234.508 278.055 234.636 277.95 234.8C277.845 234.964 277.793 235.16 277.793 235.39L277.292 235.213C277.311 234.852 277.406 234.544 277.577 234.289C277.754 234.027 277.98 233.824 278.255 233.68C278.53 233.529 278.831 233.454 279.159 233.454C279.5 233.454 279.804 233.526 280.073 233.67C280.341 233.814 280.554 234.017 280.711 234.279C280.875 234.541 280.957 234.856 280.957 235.222V238.22H280.063ZM284.617 238.318C284.263 238.318 283.942 238.246 283.654 238.102C283.373 237.951 283.147 237.745 282.976 237.483C282.806 237.221 282.711 236.922 282.691 236.588V235.183C282.711 234.843 282.806 234.544 282.976 234.289C283.153 234.027 283.382 233.824 283.664 233.68C283.952 233.529 284.27 233.454 284.617 233.454C285.043 233.454 285.426 233.562 285.767 233.778C286.114 233.994 286.386 234.286 286.583 234.653C286.779 235.019 286.877 235.432 286.877 235.891C286.877 236.349 286.779 236.762 286.583 237.129C286.386 237.496 286.114 237.787 285.767 238.003C285.426 238.213 285.043 238.318 284.617 238.318ZM282.161 240.175V233.552H283.045V234.78L282.878 235.91L283.045 237.05V240.175H282.161ZM284.47 237.483C284.765 237.483 285.023 237.414 285.246 237.276C285.469 237.139 285.646 236.952 285.777 236.716C285.908 236.474 285.973 236.195 285.973 235.881C285.973 235.573 285.908 235.298 285.777 235.055C285.646 234.813 285.469 234.626 285.246 234.495C285.023 234.358 284.768 234.289 284.48 234.289C284.185 234.289 283.926 234.358 283.703 234.495C283.481 234.626 283.307 234.813 283.183 235.055C283.058 235.298 282.996 235.576 282.996 235.891C282.996 236.199 283.055 236.474 283.173 236.716C283.297 236.952 283.471 237.139 283.694 237.276C283.923 237.414 284.182 237.483 284.47 237.483ZM290.012 238.318C289.554 238.318 289.141 238.21 288.774 237.994C288.407 237.777 288.116 237.486 287.9 237.119C287.683 236.746 287.575 236.33 287.575 235.871C287.575 235.419 287.683 235.013 287.9 234.653C288.116 234.286 288.407 233.994 288.774 233.778C289.141 233.562 289.554 233.454 290.012 233.454C290.464 233.454 290.874 233.562 291.241 233.778C291.614 233.988 291.909 234.276 292.125 234.643C292.341 235.01 292.449 235.419 292.449 235.871C292.449 236.33 292.341 236.746 292.125 237.119C291.909 237.486 291.614 237.777 291.241 237.994C290.874 238.21 290.464 238.318 290.012 238.318ZM290.012 237.463C290.307 237.463 290.569 237.394 290.798 237.257C291.028 237.119 291.208 236.932 291.339 236.696C291.47 236.454 291.535 236.179 291.535 235.871C291.535 235.57 291.467 235.301 291.329 235.065C291.198 234.829 291.018 234.646 290.789 234.515C290.566 234.377 290.307 234.309 290.012 234.309C289.718 234.309 289.455 234.377 289.226 234.515C288.997 234.646 288.817 234.829 288.686 235.065C288.555 235.301 288.489 235.57 288.489 235.871C288.489 236.179 288.555 236.454 288.686 236.696C288.817 236.932 288.997 237.119 289.226 237.257C289.455 237.394 289.718 237.463 290.012 237.463ZM293.446 238.22V233.552H294.33V238.22H293.446ZM294.33 235.557L293.996 235.409C293.996 234.813 294.134 234.338 294.409 233.984C294.684 233.631 295.08 233.454 295.598 233.454C295.834 233.454 296.047 233.496 296.237 233.581C296.427 233.66 296.603 233.794 296.767 233.984L296.187 234.584C296.089 234.479 295.981 234.404 295.863 234.358C295.745 234.312 295.608 234.289 295.45 234.289C295.123 234.289 294.854 234.394 294.645 234.603C294.435 234.813 294.33 235.131 294.33 235.557ZM298.088 238.22V231.596H298.972V238.22H298.088ZM296.938 234.358V233.552H300.122V234.358H296.938ZM303.19 238.22V231.4H304.113V238.22H303.19ZM307.592 238.22V231.4H308.516V238.22H307.592ZM303.819 235.114V234.269H307.818V235.114H303.819ZM309.98 238.22V233.552H310.865V238.22H309.98ZM310.423 232.618C310.259 232.618 310.125 232.566 310.02 232.461C309.915 232.35 309.863 232.212 309.863 232.049C309.863 231.891 309.915 231.76 310.02 231.655C310.125 231.544 310.259 231.488 310.423 231.488C310.586 231.488 310.721 231.544 310.826 231.655C310.93 231.76 310.983 231.891 310.983 232.049C310.983 232.212 310.93 232.35 310.826 232.461C310.721 232.566 310.586 232.618 310.423 232.618ZM313.652 238.318C313.39 238.318 313.141 238.285 312.905 238.22C312.676 238.148 312.463 238.049 312.266 237.925C312.07 237.794 311.9 237.64 311.755 237.463L312.325 236.893C312.496 237.103 312.692 237.26 312.915 237.365C313.138 237.463 313.387 237.512 313.662 237.512C313.937 237.512 314.15 237.466 314.301 237.375C314.451 237.276 314.527 237.142 314.527 236.972C314.527 236.801 314.464 236.67 314.34 236.579C314.222 236.48 314.068 236.402 313.878 236.343C313.688 236.277 313.485 236.215 313.269 236.156C313.059 236.091 312.859 236.009 312.669 235.91C312.479 235.812 312.322 235.678 312.198 235.507C312.08 235.337 312.021 235.111 312.021 234.829C312.021 234.548 312.09 234.305 312.227 234.102C312.365 233.893 312.555 233.732 312.797 233.621C313.046 233.509 313.344 233.454 313.691 233.454C314.058 233.454 314.382 233.519 314.664 233.65C314.952 233.775 315.188 233.965 315.372 234.22L314.802 234.79C314.671 234.62 314.507 234.489 314.31 234.397C314.12 234.305 313.904 234.259 313.662 234.259C313.406 234.259 313.21 234.305 313.072 234.397C312.941 234.482 312.876 234.603 312.876 234.761C312.876 234.918 312.935 235.039 313.053 235.124C313.17 235.209 313.324 235.281 313.514 235.34C313.711 235.399 313.914 235.462 314.124 235.527C314.333 235.586 314.533 235.668 314.723 235.773C314.913 235.878 315.067 236.018 315.185 236.195C315.309 236.372 315.372 236.605 315.372 236.893C315.372 237.332 315.214 237.679 314.9 237.935C314.592 238.19 314.176 238.318 313.652 238.318ZM317.079 238.22V231.596H317.963V238.22H317.079ZM315.929 234.358V233.552H319.113V234.358H315.929ZM321.968 238.318C321.509 238.318 321.097 238.21 320.73 237.994C320.363 237.777 320.071 237.486 319.855 237.119C319.639 236.746 319.531 236.33 319.531 235.871C319.531 235.419 319.639 235.013 319.855 234.653C320.071 234.286 320.363 233.994 320.73 233.778C321.097 233.562 321.509 233.454 321.968 233.454C322.42 233.454 322.829 233.562 323.196 233.778C323.57 233.988 323.864 234.276 324.081 234.643C324.297 235.01 324.405 235.419 324.405 235.871C324.405 236.33 324.297 236.746 324.081 237.119C323.864 237.486 323.57 237.777 323.196 237.994C322.829 238.21 322.42 238.318 321.968 238.318ZM321.968 237.463C322.263 237.463 322.525 237.394 322.754 237.257C322.983 237.119 323.164 236.932 323.295 236.696C323.426 236.454 323.491 236.179 323.491 235.871C323.491 235.57 323.422 235.301 323.285 235.065C323.154 234.829 322.974 234.646 322.744 234.515C322.522 234.377 322.263 234.309 321.968 234.309C321.673 234.309 321.411 234.377 321.182 234.515C320.953 234.646 320.772 234.829 320.641 235.065C320.51 235.301 320.445 235.57 320.445 235.871C320.445 236.179 320.51 236.454 320.641 236.696C320.772 236.932 320.953 237.119 321.182 237.257C321.411 237.394 321.673 237.463 321.968 237.463ZM325.401 238.22V233.552H326.286V238.22H325.401ZM326.286 235.557L325.952 235.409C325.952 234.813 326.089 234.338 326.364 233.984C326.64 233.631 327.036 233.454 327.553 233.454C327.789 233.454 328.002 233.496 328.192 233.581C328.382 233.66 328.559 233.794 328.723 233.984L328.143 234.584C328.045 234.479 327.937 234.404 327.819 234.358C327.701 234.312 327.563 234.289 327.406 234.289C327.078 234.289 326.81 234.394 326.6 234.603C326.391 234.813 326.286 235.131 326.286 235.557ZM330.792 238.259L328.768 233.552H329.75L331.254 237.237H330.939L332.522 233.552H333.504L331.323 238.259H330.792ZM329.456 240.175L330.831 237.355L331.323 238.259L330.438 240.175H329.456Z" fill="black"/>
<rect x="261.301" y="244.15" width="82.5434" height="5.89595" rx="2.94798" fill="#F5F5F5"/>
<rect x="261.301" y="253.977" width="82.5434" height="5.89595" rx="2.94798" fill="#F5F5F5"/>
<rect x="273.092" y="263.803" width="58.9595" height="5.89595" rx="2.94798" fill="#F5F5F5"/>
<rect x="361.532" y="154.624" width="92.3699" height="129.711" rx="3.43931" fill="white"/>
<rect x="361.532" y="154.624" width="92.3699" height="129.711" rx="3.43931" stroke="#D5D9DC" stroke-width="0.982659"/>
<rect x="383.15" y="169.26" width="49.1329" height="49.1329" rx="24.5665" fill="#E9ECFF"/>
<path d="M407.651 191.779H409.289V189.323H411.746V187.685H409.289V185.228H407.651V187.685H405.195V189.323H407.651V191.779ZM404.376 199.149C403.475 199.149 402.746 199.886 402.746 200.787C402.746 201.688 403.475 202.425 404.376 202.425C405.276 202.425 406.013 201.688 406.013 200.787C406.013 199.886 405.276 199.149 404.376 199.149ZM412.565 199.149C411.664 199.149 410.935 199.886 410.935 200.787C410.935 201.688 411.664 202.425 412.565 202.425C413.465 202.425 414.202 201.688 414.202 200.787C414.202 199.886 413.465 199.149 412.565 199.149ZM405.276 195.055H411.377C411.991 195.055 412.532 194.719 412.81 194.211L415.971 188.471L414.546 187.685L411.377 193.417H405.629L402.14 186.047H399.462V187.685H401.1L404.048 193.9L402.943 195.898C402.345 196.996 403.131 198.33 404.376 198.33H414.202V196.693H404.376L405.276 195.055Z" fill="#1A237E"/>
<path d="M372.642 235.566V234.761H374.499C374.754 234.761 374.98 234.708 375.177 234.603C375.38 234.499 375.537 234.351 375.649 234.161C375.766 233.971 375.825 233.745 375.825 233.483C375.825 233.221 375.766 232.995 375.649 232.805C375.537 232.615 375.38 232.468 375.177 232.363C374.98 232.258 374.754 232.206 374.499 232.206H372.642V231.4H374.558C374.977 231.4 375.35 231.485 375.678 231.655C376.012 231.826 376.274 232.068 376.464 232.383C376.661 232.691 376.759 233.057 376.759 233.483C376.759 233.902 376.661 234.269 376.464 234.584C376.274 234.892 376.012 235.134 375.678 235.311C375.35 235.481 374.977 235.566 374.558 235.566H372.642ZM372.023 238.22V231.4H372.946V238.22H372.023ZM379.701 238.318C379.322 238.318 378.978 238.233 378.67 238.062C378.368 237.886 378.133 237.643 377.962 237.335C377.792 237.027 377.707 236.67 377.707 236.264V233.552H378.591V236.225C378.591 236.48 378.634 236.703 378.719 236.893C378.811 237.076 378.942 237.217 379.112 237.316C379.282 237.414 379.482 237.463 379.711 237.463C380.059 237.463 380.33 237.355 380.527 237.139C380.723 236.916 380.822 236.611 380.822 236.225V233.552H381.706V236.264C381.706 236.67 381.621 237.027 381.451 237.335C381.28 237.643 381.044 237.886 380.743 238.062C380.448 238.233 380.101 238.318 379.701 238.318ZM382.891 238.22V233.552H383.776V238.22H382.891ZM383.776 235.557L383.442 235.409C383.442 234.813 383.579 234.338 383.854 233.984C384.13 233.631 384.526 233.454 385.043 233.454C385.279 233.454 385.492 233.496 385.682 233.581C385.872 233.66 386.049 233.794 386.213 233.984L385.633 234.584C385.535 234.479 385.427 234.404 385.309 234.358C385.191 234.312 385.053 234.289 384.896 234.289C384.569 234.289 384.3 234.394 384.09 234.603C383.881 234.813 383.776 235.131 383.776 235.557ZM388.814 238.318C388.356 238.318 387.94 238.21 387.566 237.994C387.2 237.777 386.908 237.486 386.692 237.119C386.482 236.746 386.377 236.333 386.377 235.881C386.377 235.422 386.482 235.01 386.692 234.643C386.908 234.276 387.2 233.988 387.566 233.778C387.94 233.562 388.356 233.454 388.814 233.454C389.175 233.454 389.509 233.522 389.817 233.66C390.125 233.791 390.39 233.984 390.613 234.24L390.023 234.829C389.879 234.659 389.702 234.531 389.492 234.446C389.289 234.354 389.063 234.309 388.814 234.309C388.52 234.309 388.258 234.377 388.028 234.515C387.799 234.646 387.619 234.829 387.488 235.065C387.357 235.301 387.291 235.573 387.291 235.881C387.291 236.189 387.357 236.461 387.488 236.696C387.619 236.932 387.799 237.119 388.028 237.257C388.258 237.394 388.52 237.463 388.814 237.463C389.063 237.463 389.289 237.42 389.492 237.335C389.702 237.243 389.882 237.112 390.033 236.942L390.613 237.532C390.396 237.781 390.131 237.974 389.817 238.112C389.509 238.249 389.175 238.318 388.814 238.318ZM394.791 238.22V235.498C394.791 235.144 394.68 234.852 394.457 234.623C394.235 234.394 393.946 234.279 393.593 234.279C393.357 234.279 393.147 234.332 392.964 234.436C392.78 234.541 392.636 234.685 392.531 234.869C392.427 235.052 392.374 235.262 392.374 235.498L392.011 235.291C392.011 234.938 392.089 234.623 392.246 234.348C392.404 234.073 392.623 233.857 392.905 233.699C393.186 233.536 393.504 233.454 393.858 233.454C394.212 233.454 394.523 233.532 394.791 233.69C395.067 233.847 395.283 234.066 395.44 234.348C395.597 234.63 395.676 234.954 395.676 235.321V238.22H394.791ZM391.49 238.22V231.203H392.374V238.22H391.49ZM398.858 238.318C398.432 238.318 398.046 238.213 397.699 238.003C397.351 237.787 397.076 237.496 396.873 237.129C396.677 236.762 396.578 236.349 396.578 235.891C396.578 235.432 396.677 235.019 396.873 234.653C397.076 234.286 397.348 233.994 397.689 233.778C398.036 233.562 398.426 233.454 398.858 233.454C399.212 233.454 399.526 233.529 399.802 233.68C400.083 233.824 400.309 234.027 400.48 234.289C400.65 234.544 400.745 234.843 400.765 235.183V236.588C400.745 236.922 400.65 237.221 400.48 237.483C400.316 237.745 400.093 237.951 399.811 238.102C399.536 238.246 399.219 238.318 398.858 238.318ZM399.006 237.483C399.445 237.483 399.798 237.335 400.067 237.04C400.335 236.739 400.47 236.356 400.47 235.891C400.47 235.57 400.408 235.291 400.283 235.055C400.165 234.813 399.995 234.626 399.772 234.495C399.549 234.358 399.291 234.289 398.996 234.289C398.701 234.289 398.439 234.358 398.21 234.495C397.987 234.633 397.81 234.823 397.679 235.065C397.555 235.301 397.492 235.573 397.492 235.881C397.492 236.195 397.555 236.474 397.679 236.716C397.81 236.952 397.99 237.139 398.219 237.276C398.449 237.414 398.711 237.483 399.006 237.483ZM400.411 238.22V236.962L400.578 235.822L400.411 234.692V233.552H401.305V238.22H400.411ZM404.076 238.318C403.814 238.318 403.565 238.285 403.33 238.22C403.1 238.148 402.887 238.049 402.691 237.925C402.494 237.794 402.324 237.64 402.18 237.463L402.75 236.893C402.92 237.103 403.117 237.26 403.339 237.365C403.562 237.463 403.811 237.512 404.086 237.512C404.361 237.512 404.574 237.466 404.725 237.375C404.876 237.276 404.951 237.142 404.951 236.972C404.951 236.801 404.889 236.67 404.764 236.579C404.646 236.48 404.492 236.402 404.302 236.343C404.112 236.277 403.909 236.215 403.693 236.156C403.484 236.091 403.284 236.009 403.094 235.91C402.904 235.812 402.747 235.678 402.622 235.507C402.504 235.337 402.445 235.111 402.445 234.829C402.445 234.548 402.514 234.305 402.652 234.102C402.789 233.893 402.979 233.732 403.222 233.621C403.47 233.509 403.769 233.454 404.116 233.454C404.483 233.454 404.807 233.519 405.089 233.65C405.377 233.775 405.613 233.965 405.796 234.22L405.226 234.79C405.095 234.62 404.931 234.489 404.735 234.397C404.545 234.305 404.329 234.259 404.086 234.259C403.831 234.259 403.634 234.305 403.497 234.397C403.366 234.482 403.3 234.603 403.3 234.761C403.3 234.918 403.359 235.039 403.477 235.124C403.595 235.209 403.749 235.281 403.939 235.34C404.135 235.399 404.338 235.462 404.548 235.527C404.758 235.586 404.958 235.668 405.148 235.773C405.338 235.878 405.491 236.018 405.609 236.195C405.734 236.372 405.796 236.605 405.796 236.893C405.796 237.332 405.639 237.679 405.324 237.935C405.016 238.19 404.601 238.318 404.076 238.318ZM408.948 238.318C408.483 238.318 408.064 238.213 407.69 238.003C407.317 237.787 407.022 237.496 406.806 237.129C406.59 236.762 406.482 236.346 406.482 235.881C406.482 235.422 406.586 235.01 406.796 234.643C407.012 234.276 407.3 233.988 407.661 233.778C408.028 233.562 408.437 233.454 408.889 233.454C409.321 233.454 409.701 233.552 410.029 233.749C410.363 233.945 410.622 234.217 410.805 234.564C410.995 234.911 411.09 235.304 411.09 235.743C411.09 235.809 411.087 235.881 411.08 235.959C411.074 236.032 411.061 236.117 411.041 236.215H407.101V235.478H410.569L410.245 235.763C410.245 235.449 410.189 235.183 410.078 234.967C409.967 234.744 409.809 234.574 409.606 234.456C409.403 234.332 409.158 234.269 408.869 234.269C408.568 234.269 408.303 234.335 408.073 234.466C407.844 234.597 407.667 234.78 407.543 235.016C407.418 235.252 407.356 235.53 407.356 235.851C407.356 236.179 407.422 236.467 407.553 236.716C407.684 236.959 407.87 237.149 408.113 237.286C408.355 237.417 408.634 237.483 408.948 237.483C409.21 237.483 409.449 237.437 409.665 237.345C409.888 237.253 410.078 237.116 410.235 236.932L410.805 237.512C410.583 237.774 410.307 237.974 409.98 238.112C409.659 238.249 409.315 238.318 408.948 238.318ZM414.256 238.22V231.4H415.179V238.22H414.256ZM419.934 238.22V235.498C419.934 235.144 419.822 234.852 419.6 234.623C419.377 234.394 419.089 234.279 418.735 234.279C418.499 234.279 418.289 234.332 418.106 234.436C417.923 234.541 417.778 234.685 417.674 234.869C417.569 235.052 417.516 235.262 417.516 235.498L417.153 235.291C417.153 234.938 417.231 234.623 417.389 234.348C417.546 234.073 417.765 233.857 418.047 233.699C418.329 233.536 418.646 233.454 419 233.454C419.354 233.454 419.665 233.542 419.934 233.719C420.209 233.896 420.425 234.128 420.582 234.417C420.739 234.698 420.818 235 420.818 235.321V238.22H419.934ZM416.632 238.22V233.552H417.516V238.22H416.632ZM423.617 238.22L421.475 233.552H422.458L424.177 237.492H423.607L425.337 233.552H426.28L424.138 238.22H423.617ZM428.984 238.318C428.526 238.318 428.113 238.21 427.746 237.994C427.379 237.777 427.088 237.486 426.872 237.119C426.655 236.746 426.547 236.33 426.547 235.871C426.547 235.419 426.655 235.013 426.872 234.653C427.088 234.286 427.379 233.994 427.746 233.778C428.113 233.562 428.526 233.454 428.984 233.454C429.436 233.454 429.846 233.562 430.213 233.778C430.586 233.988 430.881 234.276 431.097 234.643C431.313 235.01 431.421 235.419 431.421 235.871C431.421 236.33 431.313 236.746 431.097 237.119C430.881 237.486 430.586 237.777 430.213 237.994C429.846 238.21 429.436 238.318 428.984 238.318ZM428.984 237.463C429.279 237.463 429.541 237.394 429.77 237.257C430 237.119 430.18 236.932 430.311 236.696C430.442 236.454 430.507 236.179 430.507 235.871C430.507 235.57 430.439 235.301 430.301 235.065C430.17 234.829 429.99 234.646 429.761 234.515C429.538 234.377 429.279 234.309 428.984 234.309C428.69 234.309 428.428 234.377 428.198 234.515C427.969 234.646 427.789 234.829 427.658 235.065C427.527 235.301 427.461 235.57 427.461 235.871C427.461 236.179 427.527 236.454 427.658 236.696C427.789 236.932 427.969 237.119 428.198 237.257C428.428 237.394 428.69 237.463 428.984 237.463ZM432.428 238.22V233.552H433.312V238.22H432.428ZM432.87 232.618C432.706 232.618 432.572 232.566 432.467 232.461C432.362 232.35 432.31 232.212 432.31 232.049C432.31 231.891 432.362 231.76 432.467 231.655C432.572 231.544 432.706 231.488 432.87 231.488C433.034 231.488 433.168 231.544 433.273 231.655C433.378 231.76 433.43 231.891 433.43 232.049C433.43 232.212 433.378 232.35 433.273 232.461C433.168 232.566 433.034 232.618 432.87 232.618ZM436.748 238.318C436.289 238.318 435.873 238.21 435.5 237.994C435.133 237.777 434.841 237.486 434.625 237.119C434.416 236.746 434.311 236.333 434.311 235.881C434.311 235.422 434.416 235.01 434.625 234.643C434.841 234.276 435.133 233.988 435.5 233.778C435.873 233.562 436.289 233.454 436.748 233.454C437.108 233.454 437.442 233.522 437.75 233.66C438.058 233.791 438.323 233.984 438.546 234.24L437.956 234.829C437.812 234.659 437.635 234.531 437.426 234.446C437.223 234.354 436.997 234.309 436.748 234.309C436.453 234.309 436.191 234.377 435.962 234.515C435.732 234.646 435.552 234.829 435.421 235.065C435.29 235.301 435.225 235.573 435.225 235.881C435.225 236.189 435.29 236.461 435.421 236.696C435.552 236.932 435.732 237.119 435.962 237.257C436.191 237.394 436.453 237.463 436.748 237.463C436.997 237.463 437.223 237.42 437.426 237.335C437.635 237.243 437.816 237.112 437.966 236.942L438.546 237.532C438.33 237.781 438.065 237.974 437.75 238.112C437.442 238.249 437.108 238.318 436.748 238.318ZM441.489 238.318C441.024 238.318 440.605 238.213 440.231 238.003C439.858 237.787 439.563 237.496 439.347 237.129C439.131 236.762 439.023 236.346 439.023 235.881C439.023 235.422 439.127 235.01 439.337 234.643C439.553 234.276 439.841 233.988 440.202 233.778C440.569 233.562 440.978 233.454 441.43 233.454C441.862 233.454 442.242 233.552 442.57 233.749C442.904 233.945 443.163 234.217 443.346 234.564C443.536 234.911 443.631 235.304 443.631 235.743C443.631 235.809 443.628 235.881 443.621 235.959C443.615 236.032 443.602 236.117 443.582 236.215H439.642V235.478H443.11L442.786 235.763C442.786 235.449 442.73 235.183 442.619 234.967C442.508 234.744 442.35 234.574 442.147 234.456C441.944 234.332 441.699 234.269 441.41 234.269C441.109 234.269 440.844 234.335 440.614 234.466C440.385 234.597 440.208 234.78 440.084 235.016C439.959 235.252 439.897 235.53 439.897 235.851C439.897 236.179 439.963 236.467 440.094 236.716C440.225 236.959 440.411 237.149 440.654 237.286C440.896 237.417 441.175 237.483 441.489 237.483C441.751 237.483 441.99 237.437 442.206 237.345C442.429 237.253 442.619 237.116 442.776 236.932L443.346 237.512C443.123 237.774 442.848 237.974 442.521 238.112C442.2 238.249 441.856 238.318 441.489 238.318Z" fill="black"/>
<rect x="366.445" y="244.15" width="82.5434" height="5.89595" rx="2.94798" fill="#F5F5F5"/>
<rect x="366.445" y="253.977" width="82.5434" height="5.89595" rx="2.94798" fill="#F5F5F5"/>
<rect x="378.237" y="263.803" width="58.9595" height="5.89595" rx="2.94798" fill="#F5F5F5"/>
<rect x="45.6069" y="302.514" width="335.087" height="5.89595" rx="2.94798" fill="#F5F5F5"/>
<rect x="45.6069" y="314.306" width="335.087" height="5.89595" rx="2.94798" fill="#F5F5F5"/>
<rect x="45.6069" y="326.098" width="335.087" height="5.89595" rx="2.94798" fill="#F5F5F5"/>
<circle cx="51.5029" cy="355.578" r="5.89595" fill="#F5F5F5"/>
<rect x="63.2948" y="352.63" width="78.6127" height="5.89595" rx="2.94798" fill="#F5F5F5"/>
<circle cx="51.5029" cy="371.301" r="5.89595" fill="#F5F5F5"/>
<rect x="63.2948" y="368.353" width="78.6127" height="5.89595" rx="2.94798" fill="#F5F5F5"/>
<circle cx="51.5029" cy="387.023" r="5.89595" fill="#F5F5F5"/>
<rect x="63.2948" y="384.075" width="78.6127" height="5.89595" rx="2.94798" fill="#F5F5F5"/>
</svg>
