<svg width="119" height="57" viewBox="0 0 119 57" fill="none" xmlns="http://www.w3.org/2000/svg">
<g clip-path="url(#clip0_1_52)">
<path fill-rule="evenodd" clip-rule="evenodd" d="M52.0971 56.9977H31.7535C14.9213 56.9977 0 47.0955 0 28.6594C0 7.80889 15.2386 0 33.4286 0H52.0971V26.6372H39.6506V11.5892H32.3113C21.7804 11.5892 12.9245 16.8218 12.9245 28.0052C12.9245 40.967 21.6217 45.3948 33.1885 45.3948H52.0971V56.9977Z" fill="#1B1F6D"/>
<path fill-rule="evenodd" clip-rule="evenodd" d="M66.1141 0H86.4574C103.292 0 118.209 9.90195 118.209 28.3379C118.209 49.1908 102.97 56.9977 84.7801 56.9977H66.1118V30.3603H78.5558V45.4085H85.8951C96.426 45.4085 105.282 40.1757 105.282 28.9923C105.282 16.0305 96.5872 11.6029 85.0181 11.6029H66.1094L66.1141 0Z" fill="#1B1F6D"/>
</g>
<defs>
<clipPath id="clip0_1_52">
<rect width="119" height="57" fill="white"/>
</clipPath>
</defs>
</svg>
