<svg width="161" height="79" viewBox="0 0 161 79" fill="none" xmlns="http://www.w3.org/2000/svg">
<path d="M69.1271 30.8225C69.3908 32.0882 69.4307 33.8323 68.2002 35.1624C66.3896 37.2037 61.1153 42.119 61.1153 42.119C61.1153 42.119 58.9893 43.4038 60.0131 44.8411C60.2225 45.1591 60.5597 45.2843 60.9629 45.2891C61.363 44.7404 61.9559 44.3872 61.9559 44.3872C61.9559 44.3872 67.2302 39.4725 69.1191 37.4307C70.9298 35.3888 69.8281 32.3641 69.5128 31.5326C69.443 31.3648 69.3119 31.1203 69.1271 30.8225Z" fill="#ED1C24"/>
<path d="M58.0456 30.0984C56.944 30.6279 51.9052 34.4841 50.0157 35.9203C48.2056 37.3575 43.561 41.4406 43.561 41.4406C43.561 41.4406 41.0413 43.6332 41.908 44.7679C42.2319 45.1925 42.5563 45.3943 42.9058 45.4609C43.4353 44.5511 44.401 43.7089 44.401 43.7089C44.401 43.7089 49.0457 39.6263 50.8563 38.1896C52.7458 36.6772 57.7841 32.8961 58.8862 32.3666C59.7423 31.9559 60.4082 31.5484 61.1417 31.8094C61.4528 31.3215 61.6946 30.6545 60.9585 29.9471C59.9351 29.0399 59.1478 29.5694 58.0456 30.0984Z" fill="#ED1C24"/>
<path d="M76.9365 47.7172C75.8343 45.8272 75.7555 44.4667 74.4957 45.3739C73.2364 46.2054 66.7022 50.0616 63.2386 51.0445C59.6956 52.0278 58.83 52.4811 56.8617 52.1786C54.815 51.8009 52.6107 50.9693 51.9022 49.759C51.1154 48.5493 50.9577 48.2472 50.0916 49.0026C49.2259 49.6834 46.7063 51.6496 44.8173 51.4227C42.8495 51.1963 37.9684 50.0616 35.2921 45.0707C35.2415 44.9781 35.2037 44.8928 35.1562 44.8017C35.3629 45.5576 35.7049 46.3956 36.211 47.3395C38.8878 52.2542 43.7684 53.464 45.6579 53.691C47.5474 53.8422 50.0665 51.9522 50.9322 51.1957C51.8772 50.5155 51.9555 50.8175 52.7428 52.0278C53.5302 53.2374 55.6556 54.0691 57.7023 54.3716C59.6706 54.7499 60.5368 54.2961 64.0787 53.2374C67.5428 52.2542 74.077 48.4736 75.3363 47.5665C76.5961 46.7349 76.7532 48.0954 77.7771 49.986C78.8787 51.8765 81.4767 52.5569 83.7593 52.708C86.1213 52.9352 87.2235 52.3301 88.7193 51.7252C90.2146 51.045 94.2301 49.0788 95.4106 48.3224C96.5916 47.5664 96.8281 47.4908 97.3 48.6249C97.7726 49.8347 97.8508 50.7424 101.472 53.2374C105.015 55.6572 110.998 54.2961 112.415 53.7671C113.753 53.3127 116.351 52.1035 116.981 51.7252C117.61 51.2714 118.241 52.4056 119.579 53.7671C120.474 54.5784 121.902 54.8463 123.249 54.6488C124.285 53.3212 125.429 51.8009 125.429 51.8009C125.429 51.8009 126.296 50.5155 124.564 51.6496C122.831 52.7084 120.077 52.7844 118.738 51.4978C117.321 50.1367 116.77 49.0788 116.14 49.4565C115.51 49.8347 112.912 51.1201 111.495 51.574C110.157 52.0278 104.175 53.3888 100.632 50.9693C97.0108 48.5493 96.9319 47.5664 96.4594 46.4323C95.9869 45.222 95.751 45.2977 94.57 46.0536C93.389 46.8862 89.374 48.7762 87.8792 49.4565C86.3829 50.1367 85.2813 50.6662 82.9193 50.5155C80.6361 50.2886 78.0381 49.6083 76.9365 47.7172Z" fill="#ED1C24"/>
<path d="M156.057 33.9487C154.247 35.6129 148.106 41.0565 145.744 43.3253C143.382 45.5179 136.218 52.8526 134.96 54.2894C133.7 55.8017 130.314 58.9776 131.731 59.1284C131.981 59.1555 132.524 59.2445 133.253 59.375C134.074 58.3837 135.187 57.2565 135.8 56.5581C137.059 55.1209 144.223 47.7861 146.585 45.5179C148.947 43.3248 155.087 37.8055 156.897 36.1418C158.416 34.8106 156.728 34.0659 156.142 33.8592C156.112 33.8896 156.09 33.9178 156.057 33.9487Z" fill="#ED1C24"/>
<path d="M136.843 29.2655C134.954 31.0799 130.544 35.6174 129.599 36.751C128.655 37.8857 124.877 42.0439 124.169 43.3299C123.46 44.5396 122.515 45.9763 123.46 46.5053C123.681 46.647 123.986 46.7072 124.351 46.7029C124.552 46.3183 124.791 45.9166 125.009 45.5224C125.717 44.3127 129.496 40.1539 130.441 39.0198C131.386 37.8857 135.794 33.3486 137.683 31.4581C138.797 30.3415 138.002 29.6554 136.879 29.2218C136.865 29.2367 136.857 29.25 136.843 29.2655Z" fill="#ED1C24"/>
<path d="M8.81869 7.5662C8.81869 7.5662 10.7865 9.60751 11.6527 10.3639C12.4395 11.1955 13.8564 13.086 15.8248 12.254C17.8714 11.4224 28.1845 10.3639 31.5693 9.98572C33.0028 9.82538 34.3633 9.81579 35.4585 9.85628C36.4009 8.61508 37.0263 7.79259 37.0263 7.79259C37.0263 7.79259 34.114 7.33873 30.7287 7.71748C27.3434 8.17134 17.0308 9.15364 14.9842 10.0614C13.0158 10.8934 11.5994 8.92671 10.8121 8.17134C10.33 7.70789 9.50641 6.86995 8.8709 6.21846C8.13843 6.76128 8.81869 7.5662 8.81869 7.5662Z" fill="#ED1C24"/>
<path d="M116.3 64.1239C117.638 62.9147 115.512 63.2168 114.804 63.0656C114.095 62.9894 100.555 62.234 96.5408 62.3092C92.5253 62.3847 78.4343 62.3847 73.3955 62.6879C68.3572 63.0656 49.8575 64.7296 44.9769 65.5607C40.0958 66.3165 20.4935 69.1905 17.8172 69.7195C15.1404 70.2489 9.86664 71.1562 9.86664 71.1562C9.86664 71.1562 7.18983 71.837 4.59184 70.6265C3.63192 70.1798 2.45731 69.6704 1.53627 69.1531C-0.712685 70.2708 3.03049 71.7767 5.43244 72.8953C8.10926 74.0296 10.7067 73.4249 10.7067 73.4249C10.7067 73.4249 15.9815 72.4415 18.6578 71.9125C21.3341 71.3831 41.0153 68.5852 45.8959 67.7537C50.777 66.9973 69.1978 65.2582 74.2361 64.956C79.2743 64.6534 93.4447 64.6534 97.3808 64.5779C101.173 64.5066 113.529 65.1094 115.418 65.3039C115.76 64.7802 116.063 64.3652 116.3 64.1239Z" fill="#ED1C24"/>
<path d="M159.894 68.654C159.483 69.5132 158.444 71.5961 157.945 71.8358C157.316 72.0622 156.213 72.0622 153.773 71.0795C151.332 70.0965 140.075 67.2226 137.005 66.6936C134.014 66.0889 127.085 64.8793 127.085 64.8793C127.085 64.8793 126.22 64.3498 124.803 66.6181C123.307 68.8111 118.898 75.238 118.898 75.238C118.898 75.238 118.583 76.1459 117.797 76.1459C116.93 76.1459 113.309 75.9195 111.97 75.1629C111.967 75.1609 111.963 75.1588 111.959 75.1567C111.928 75.2093 111.893 75.2701 111.867 75.3138C111.08 76.7504 111.395 76.6753 112.812 77.4313C114.15 78.1872 117.771 78.4141 118.637 78.4141C119.425 78.4141 119.739 77.5068 119.739 77.5068C119.739 77.5068 124.226 71.0795 125.643 68.8111C127.061 66.6185 127.926 67.1474 127.926 67.1474C127.926 67.1474 134.854 68.2815 137.845 68.8862C140.916 69.4913 152.173 72.3652 154.613 73.3476C157.133 74.331 158.234 74.331 158.865 74.0284C159.415 73.8014 160.99 70.5503 160.99 70.5503C161.083 69.5696 160.518 69.0109 159.894 68.654Z" fill="#ED1C24"/>
<path d="M130.63 15.0501C128.662 16.4868 118.507 24.5018 115.751 27.4509C113.075 30.3999 107.564 36.5249 105.439 39.247C103.392 42.0442 102.053 43.3301 103.628 45.1451C103.702 45.2335 103.777 45.3123 103.852 45.3906C104.09 44.3471 105.104 43.2295 106.357 41.5152C108.405 38.7175 113.915 32.6681 116.671 29.7191C119.426 26.7701 129.503 18.7551 131.471 17.3184C133.438 15.8817 132.258 15.3522 132.258 15.3522C132.258 15.3522 131.728 15.0427 131.081 14.6874C130.951 14.8014 130.808 14.9201 130.63 15.0501Z" fill="#ED1C24"/>
<path d="M110.869 12.473C108.744 14.2118 101.344 20.4124 99.5334 22.3024C97.6439 24.1935 92.2908 29.5621 90.5585 31.5277C88.8272 33.4934 83.946 39.3158 83.2376 40.4499C82.4502 41.5846 82.0566 42.87 83.2376 43.6259C83.3196 43.6845 83.4075 43.7319 83.4986 43.7734C83.6317 43.4235 83.8363 43.0676 84.0782 42.7187C84.8655 41.5846 89.6672 35.7622 91.3991 33.796C93.1314 31.8303 98.4845 26.4617 100.374 24.5712C102.184 22.605 109.584 16.4049 111.789 14.7413C113.709 13.2257 111.866 12.228 111.359 11.9957C111.233 12.1491 111.08 12.3068 110.869 12.473Z" fill="#ED1C24"/>
<path d="M73.0039 7.18603C73.0039 7.18603 73.7907 8.62326 71.0356 8.39633C68.2804 8.1694 63.8713 8.01758 60.8013 7.79065C57.8102 7.56372 50.4888 7.03528 49.3866 7.11039C48.285 7.18603 48.0485 7.11039 47.4183 8.01758C46.7892 8.84966 43.8758 12.6302 43.1673 13.538C42.4589 14.4451 39.3889 18.4526 36.7909 21.9312C34.1929 25.4092 30.887 29.8706 27.9742 34.4832C25.0614 39.0953 22.4634 43.3303 21.3618 45.2203C20.2591 47.1109 19.7866 48.3206 19.5506 48.7745C19.3934 49.2278 19.1569 50.0599 17.8971 50.135C16.5595 50.135 10.419 49.9843 10.419 49.9843C10.419 49.9843 10.2507 49.9938 10.0232 49.9624C8.93813 52.376 11.2596 52.1769 11.2596 52.1769C11.2596 52.1769 17.4001 52.4039 18.7382 52.3284C19.9981 52.2525 20.234 51.4966 20.47 51.0433C20.6277 50.5894 21.0997 49.3791 22.2018 47.4891C23.304 45.5229 25.9808 41.2885 28.8148 36.6763C31.7276 32.0637 35.0341 27.6774 37.6315 24.1994C40.2295 20.6458 43.3 16.7134 44.0079 15.8062C44.7164 14.8234 47.6292 11.1179 48.2594 10.2107C48.8891 9.37916 49.2039 9.4548 50.2272 9.37916C51.3294 9.30351 58.6508 9.83249 61.6419 10.0594C64.7124 10.2107 69.1994 10.4376 71.8762 10.6646C74.6313 10.8159 73.8445 9.4548 73.8445 9.4548C73.8445 9.4548 74.0017 7.71553 73.2143 5.74933C73.0785 5.42226 72.9421 5.1623 72.81 4.94975C73.0902 6.22237 73.0039 7.18603 73.0039 7.18603Z" fill="#ED1C24"/>
<path fill-rule="evenodd" clip-rule="evenodd" d="M157.867 65.8646C158.496 66.2427 160.307 66.6961 160.07 68.2847C160.07 68.2847 158.575 71.5352 157.945 71.8384C157.315 72.0648 156.213 72.0648 153.773 71.082C151.332 70.099 140.075 67.2251 137.005 66.6961C134.013 66.0914 127.085 64.8818 127.085 64.8818C127.085 64.8818 126.22 64.3523 124.803 66.621C123.307 68.8136 118.898 75.2406 118.898 75.2406C118.898 75.2406 118.583 76.1484 117.796 76.1484C116.93 76.1484 113.309 75.922 111.97 75.1654C110.553 74.4842 110.239 74.5604 111.026 73.048C111.893 71.6113 115.041 65.4108 116.301 64.1252C117.639 62.9161 115.513 63.2182 114.805 63.0669C114.096 62.9907 100.556 62.2354 96.5417 62.3105C92.5262 62.3861 78.4352 62.3861 73.3964 62.6892C68.3581 63.0669 49.8585 64.731 44.9779 65.5621C40.0968 66.3178 20.4944 69.1919 17.8182 69.7209C15.1413 70.2502 9.8676 71.1575 9.8676 71.1575C9.8676 71.1575 7.19078 71.8384 4.5928 70.6279C1.99482 69.4187 -2.17708 67.7551 1.3657 66.6961C4.98593 65.5621 22.3839 62.0835 27.8159 61.2524C33.2478 60.496 50.1739 58.0004 57.3371 57.6228C64.422 57.2444 83.6307 56.1855 90.8733 56.261C98.0365 56.3372 108.035 56.791 112.286 57.0932C116.537 57.3957 119.371 57.6228 120.158 57.7734C121.024 57.9253 121.103 57.32 121.89 56.3372C122.756 55.354 125.432 51.8002 125.432 51.8002C125.432 51.8002 126.299 50.5148 124.567 51.649C122.834 52.7077 120.08 52.7837 118.741 51.4971C117.324 50.1361 116.773 49.0781 116.143 49.4558C115.513 49.834 112.915 51.1194 111.498 51.5733C110.16 52.0272 104.177 53.3882 100.634 50.9687C97.0137 48.5486 96.9349 47.5658 96.4624 46.4317C95.9898 45.2214 95.7539 45.297 94.5729 46.0529C93.3919 46.8855 89.3769 48.7756 87.8821 49.4558C86.3858 50.1361 85.2842 50.6656 82.9222 50.5148C80.639 50.2879 78.041 49.6076 76.9394 47.7166C75.8372 45.8265 75.7584 44.466 74.4986 45.3732C73.2393 46.2048 66.7052 50.061 63.2415 51.0438C59.6985 52.0272 58.8329 52.4805 56.8646 52.1779C54.8179 51.8002 52.6136 50.9687 51.9051 49.7584C51.1183 48.5486 50.9607 48.2466 50.0945 49.002C49.2289 49.6828 46.7092 51.649 44.8202 51.422C42.8524 51.1956 37.9713 50.061 35.295 45.0701C32.6182 40.1554 34.5865 38.0379 36.948 35.6189C39.3883 33.1232 43.6392 29.4934 43.6392 29.4934C43.6392 29.4934 48.914 25.6372 50.7241 24.7295C52.5348 23.8984 55.2905 22.2348 57.1799 22.0835C58.9901 22.0079 61.6669 22.1592 64.2649 24.201C66.8628 26.2423 68.2798 28.5106 68.6735 29.3426C68.9883 30.0985 70.0905 33.1232 68.201 35.1651C66.3903 37.2064 61.1161 42.1216 61.1161 42.1216C61.1161 42.1216 58.9901 43.4065 60.0139 44.8437C60.9584 46.2799 64.422 43.9365 65.5242 43.105C66.7052 42.3485 72.7673 37.1307 74.6568 35.392C76.4669 33.5766 88.2753 22.0835 89.2991 21.1002C90.3219 20.0417 100.084 10.2118 101.579 9.30458C102.996 8.39739 103.548 7.7166 106.145 8.24558C108.743 8.77508 110.317 9.68227 110.317 9.68227C110.317 9.68227 113.073 10.7407 110.869 12.4805C108.743 14.2193 101.343 20.4199 99.5328 22.3099C97.6433 24.201 92.2902 29.5696 90.5579 31.5352C88.8266 33.5009 83.9455 39.3233 83.237 40.4574C82.4497 41.5921 82.056 42.8775 83.237 43.6334C84.418 44.466 86.4652 43.5583 88.6689 41.819C90.8733 40.0041 97.2502 34.4843 99.5328 32.216C101.737 29.9473 114.018 18.303 115.12 17.3958C116.222 16.4119 121.89 11.8754 121.89 11.8754C121.89 11.8754 122.599 10.8926 124.251 10.8926C125.905 10.8926 127.558 11.1946 128.582 11.6485C129.604 12.0267 131.416 13.1608 131.416 13.1608C131.416 13.1608 132.597 13.6147 130.628 15.0514C128.66 16.488 118.505 24.5031 115.749 27.4521C113.073 30.4011 107.562 36.5261 105.437 39.2482C103.39 42.0454 102.051 43.3314 103.626 45.1463C105.2 47.0363 107.09 46.583 108.035 46.2799C108.979 45.9778 112.128 43.7096 114.411 41.3652C116.694 39.0964 123.858 31.4596 124.567 30.4768C125.354 29.5696 127.951 26.9226 127.951 26.9226C127.951 26.9226 128.503 25.8641 129.999 25.8641C131.494 25.8641 132.438 26.091 133.935 26.3936C135.43 26.7713 138.658 27.3759 136.847 29.267C134.958 31.0814 130.549 35.6189 129.604 36.7525C128.66 37.8872 124.882 42.0454 124.173 43.3314C123.465 44.5411 122.52 45.9778 123.465 46.5068C124.409 47.1119 126.849 46.2799 129.211 44.9193C131.652 43.6334 135.194 41.3652 138.264 38.6431C141.334 35.8453 146.294 31.3845 146.294 31.3845C146.294 31.3845 147.081 29.4934 150.702 30.3249C154.245 31.0814 155.111 31.5352 155.111 31.5352C155.111 31.5352 157.867 32.2917 156.056 33.9548C154.245 35.6189 148.104 41.0626 145.743 43.3314C143.381 45.524 136.217 52.8586 134.958 54.2955C133.699 55.8078 130.313 58.9836 131.73 59.1345C133.147 59.2862 143.775 61.4032 146.294 62.0835C148.814 62.6892 157.158 65.5621 157.867 65.8646ZM47.969 0.00362638H46.6671C41.1297 0.0750083 27.4606 0.860744 24.4311 1.13775C21.1246 1.44032 10.6544 3.25523 8.76491 3.70909C6.87542 4.16296 7.97811 5.29707 7.97811 5.29707C7.97811 5.29707 9.94591 7.33785 10.8121 8.17046C11.5994 8.92583 13.0159 10.8926 14.9842 10.0605C17.0308 9.15276 27.3434 8.17046 30.7287 7.7166C34.114 7.33785 37.0263 7.79171 37.0263 7.79171C37.0263 7.79171 28.0519 19.5884 26.6349 21.554C25.1396 23.4446 17.5033 34.0309 16.0075 36.2235C14.5122 38.4918 10.9692 44.3898 9.31626 47.2632C7.74213 50.1361 10.4184 49.9853 10.4184 49.9853C10.4184 49.9853 16.5589 50.1361 17.8965 50.1361C19.1563 50.061 19.3928 49.2289 19.55 48.7756C19.786 48.3217 20.2585 47.1119 21.3611 45.2214C22.4628 43.3314 25.0608 39.0964 27.9736 34.4843C30.8864 29.8716 34.1923 25.4103 36.7903 21.9322C39.3883 18.4537 42.4582 14.4462 43.1667 13.539C43.8752 12.6313 46.7886 8.85072 47.4177 8.01864C48.0479 7.11145 48.2844 7.1871 49.386 7.11145C50.4882 7.03634 57.8096 7.56478 60.8007 7.79171C63.8707 8.01864 68.2798 8.17046 71.0349 8.39739C73.7901 8.62432 73.0033 7.1871 73.0033 7.1871C73.0033 7.1871 73.1604 5.44836 72.3731 3.55728C71.5075 1.59161 70.799 1.89418 70.799 1.89418C66.8628 0.760061 52.1411 0.00362638 47.969 0.00362638ZM54.1095 39.4751C56.1561 38.0379 60.5642 32.7455 60.8007 32.2917C61.1161 31.8378 61.9817 30.9306 60.9584 29.9473C59.9351 29.0401 59.1477 29.5696 58.0456 30.0986C56.944 30.6281 51.9051 34.4843 50.0157 35.9204C48.2055 37.3577 43.5609 41.4408 43.5609 41.4408C43.5609 41.4408 41.0412 43.6334 41.908 44.7681C42.7736 45.9022 43.6392 45.4483 44.9779 45.0701C46.3949 44.6924 51.984 40.9113 54.1095 39.4751Z" fill="#231F20"/>
</svg>
