<svg width="187" height="70" viewBox="0 0 187 70" fill="none" xmlns="http://www.w3.org/2000/svg">
<g clip-path="url(#clip0_1_32)" filter="url(#filter0_d_1_32)">
<path d="M182.973 13.2031V55.7274L177.102 61.472V19.8585L182.973 13.2031Z" fill="#E79225"/>
<path d="M144.495 13.2382L138.414 19.8585L138.729 20.2788L176.86 20.1387L177.209 19.8585L182.976 13.2031L144.495 13.2382Z" fill="#FFF16D"/>
<path d="M138.414 19.8594H177.209V61.508H138.414V19.8594Z" fill="url(#paint0_linear_1_32)"/>
<path d="M171.296 34.8515C170.527 32.925 169.374 31.1736 167.871 29.6673C166.438 28.1962 164.83 27.0752 163.013 26.3397C161.231 25.6041 159.308 25.2188 157.211 25.2188C155.114 25.2188 153.157 25.6041 151.375 26.3397C149.557 27.0752 147.949 28.1962 146.516 29.6673C145.014 31.1736 143.895 32.925 143.126 34.8515C142.357 36.7781 142.008 38.8798 142.008 41.1916C142.008 43.4334 142.392 45.5351 143.161 47.4967C143.93 49.4583 145.049 51.2097 146.551 52.751C147.949 54.1871 149.557 55.273 151.34 56.0086C153.122 56.7442 155.114 57.1295 157.246 57.1295C159.308 57.1295 161.231 56.7442 163.013 56.0086C164.796 55.273 166.438 54.1871 167.871 52.751C169.374 51.2097 170.527 49.4583 171.296 47.5317C172.065 45.6052 172.45 43.4685 172.45 41.2267C172.45 38.8798 172.065 36.7781 171.296 34.8515ZM163.293 48.5826C161.79 50.369 159.798 51.2798 157.211 51.2798C154.625 51.2798 152.598 50.369 151.095 48.5826C149.592 46.7962 148.858 44.3091 148.858 41.1566C148.858 37.934 149.627 35.447 151.095 33.6255C152.598 31.8041 154.59 30.9284 157.211 30.9284C159.798 30.9284 161.79 31.8391 163.293 33.6255C164.761 35.447 165.53 37.934 165.53 41.1566C165.53 44.3091 164.796 46.7962 163.293 48.5826Z" fill="white"/>
<path d="M134.597 9.73438V9.94454L139.56 48.1604L136.659 56.2169L136.275 55.9366L131.172 19.2971L131.277 18.8067L134.457 9.94454L134.597 9.73438Z" fill="#009ADA"/>
<path d="M96.3993 15.0587L134.6 9.73438L131.385 18.9118L130.93 19.4022L95.2109 24.6564L95.3857 18.1061L96.3993 15.0587Z" fill="#91C9ED"/>
<path d="M131.385 18.9141L136.663 56.2191L99.0209 61.5084L93.9531 25.4643L96.155 23.748L131.385 18.9141Z" fill="url(#paint1_linear_1_32)"/>
<path d="M124.987 26.0542C124.812 24.8983 124.428 24.0226 123.799 23.4271C123.275 22.9718 122.645 22.7266 121.912 22.7266C121.737 22.7266 121.527 22.7266 121.317 22.7616C120.339 22.9017 119.605 23.3571 119.15 24.0927C118.801 24.6181 118.661 25.2836 118.661 26.0542C118.661 26.3345 118.696 26.6497 118.731 26.965L120.094 36.6678L109.259 38.2791L107.896 28.5763C107.722 27.4554 107.337 26.5797 106.708 25.9842C106.184 25.4938 105.555 25.2486 104.856 25.2486C104.681 25.2486 104.506 25.2486 104.331 25.2836C103.318 25.4237 102.549 25.8791 102.06 26.6147C101.71 27.1401 101.57 27.8057 101.57 28.5763C101.57 28.8565 101.605 29.1718 101.64 29.522L105.345 54.7774C105.52 55.9333 105.904 56.809 106.603 57.4045C107.127 57.8599 107.757 58.0701 108.525 58.0701C108.735 58.0701 108.945 58.0701 109.155 58.035C110.098 57.8949 110.797 57.4396 111.252 56.704C111.566 56.1785 111.706 55.548 111.706 54.8124C111.706 54.5322 111.671 54.217 111.636 53.9017L110.133 43.9187L120.968 42.3074L122.471 52.2904C122.645 53.4463 123.03 54.322 123.694 54.8825C124.218 55.3379 124.847 55.5831 125.581 55.5831C125.756 55.5831 125.966 55.5831 126.175 55.548C127.154 55.4079 127.888 54.9525 128.342 54.217C128.657 53.6915 128.832 53.061 128.832 52.2904C128.832 52.0102 128.797 51.6949 128.762 51.3797L124.987 26.0542Z" fill="white"/>
<path d="M60.6426 0L47.0469 32.3661L48.8993 46.5876L49.0041 46.5525L64.2775 12.1198L64.2076 11.3842L60.9222 0.455367L60.6426 0Z" fill="#66BF6B"/>
<path d="M60.6406 0L64.1706 11.8746L64.2405 12.1198L97.8629 27.2169L97.9678 27.1469L95.1018 15.7977L60.6406 0Z" fill="#98D0A0"/>
<path d="M64.1718 11.875L97.969 27.1473L82.6956 61.8603L48.8984 46.588L64.1718 11.875Z" fill="url(#paint2_linear_1_32)"/>
<path d="M87.7314 29.9455C86.9974 27.9839 85.9838 26.3026 84.6557 24.9015C83.3276 23.5003 81.7199 22.3794 79.8326 21.5738C77.9452 20.7681 76.0579 20.3828 74.1356 20.3828H74.0308C72.0735 20.3828 70.1513 20.8382 68.2639 21.6789C66.2718 22.5546 64.5592 23.7455 63.0913 25.3218C61.6233 26.863 60.435 28.7546 59.5263 30.9263C58.6176 33.063 58.1283 35.2348 58.0234 37.3715V38.1071C58.0234 39.9986 58.338 41.8551 59.0021 43.6766C59.7011 45.6031 60.7146 47.2495 62.0427 48.6506C63.3709 50.0517 65.0135 51.1726 66.9708 51.9783C68.8231 52.7839 70.7105 53.1693 72.6328 53.1693H72.6677C74.59 53.1693 76.5123 52.7489 78.3996 51.9433C80.3918 51.0676 82.1393 49.8416 83.6072 48.2653C85.0751 46.7241 86.2984 44.8676 87.2071 42.6958C88.1158 40.5241 88.6051 38.3873 88.71 36.2506V35.6201C88.7449 33.6935 88.4304 31.802 87.7314 29.9455ZM80.9859 40.0337C79.7277 43.0461 78.0151 45.1128 75.9531 46.2337C74.8346 46.8291 73.6813 47.1444 72.5279 47.1444C71.5143 47.1444 70.4309 46.8992 69.3474 46.4438C66.9708 45.428 65.5028 43.8167 64.8737 41.5048C64.664 40.7342 64.5592 39.9286 64.5592 39.0879C64.5592 37.4065 64.9786 35.55 65.8174 33.5534C67.1106 30.4709 68.8231 28.3693 70.8852 27.2133C72.0036 26.5828 73.157 26.3026 74.3104 26.3026C75.3589 26.3026 76.4074 26.5478 77.5258 27.0031C79.8675 28.019 81.3354 29.6303 81.9645 31.9421C82.1742 32.6777 82.2791 33.4834 82.2791 34.3241C82.2791 36.0755 81.8597 37.967 80.9859 40.0337Z" fill="white"/>
<path d="M44.359 5.5L49.8811 42.5599L47.3647 55.5904L47.0152 55.135L41.6328 19.3362V18.6356L44.0094 6.13051L44.359 5.5Z" fill="#760D16"/>
<path d="M4.02344 24.6605L6.64473 11.5599L44.3563 5.5L41.8049 18.8458V19.7215L4.47779 25.0107L4.02344 24.6605Z" fill="#EF463E"/>
<path d="M41.8049 18.8438L47.3621 55.5884L10.0349 61.4381L4.02344 24.6584L41.8049 18.8438Z" fill="url(#paint3_linear_1_32)"/>
<path d="M37.7844 49.7397C37.5048 49.3894 37.0854 49.1442 36.5961 48.9691C36.1068 48.7939 35.5127 48.7239 34.7787 48.7239C34.1146 48.7239 33.3457 48.7939 32.5069 48.934L22.6509 50.6154C22.7557 49.8448 23.1402 48.864 23.8042 47.638C24.5382 46.2719 25.6566 44.6256 27.0896 42.734C27.5789 42.0685 27.9633 41.5781 28.2429 41.2278C28.4177 40.9826 28.6973 40.6674 29.0468 40.212C31.3186 37.2346 32.6817 34.8176 33.2409 32.9261C33.5554 31.8402 33.7302 30.7544 33.8001 29.6685C33.835 29.3532 33.835 29.073 33.835 28.7928C33.835 28.0222 33.7651 27.2515 33.6253 26.4809C33.5205 25.7804 33.3457 25.2199 33.1011 24.7645C32.8564 24.3092 32.5768 23.9589 32.2273 23.7487C31.8428 23.5035 31.2487 23.3984 30.5147 23.3984C29.9206 23.3984 29.1866 23.4685 28.3128 23.6086L16.919 25.5702C15.5559 25.8154 14.5074 26.2007 13.8783 26.8312C13.354 27.3216 13.1094 27.9521 13.1094 28.6527C13.1094 28.8278 13.1094 29.038 13.1443 29.2482C13.3191 30.2289 13.8084 30.9295 14.6122 31.2798C15.1016 31.49 15.6608 31.595 16.3598 31.595C16.8141 31.595 17.3384 31.56 17.8976 31.4549L27.4041 29.7736C27.4041 29.9487 27.4391 30.1239 27.4391 30.264C27.4391 30.8595 27.3342 31.4549 27.1245 32.0154C26.8449 32.821 26.1459 33.9419 24.9925 35.3781C24.678 35.7634 24.1887 36.3939 23.5246 37.1996C20.9383 40.3171 19.1209 42.9792 18.0024 45.186C17.1986 46.7272 16.6743 48.1984 16.3598 49.7046C16.185 50.5804 16.0802 51.386 16.0802 52.1917C16.0802 52.7521 16.1151 53.3126 16.22 53.838C16.3598 54.6086 16.5345 55.2391 16.7792 55.7295C17.0238 56.2199 17.3733 56.6052 17.7578 56.8154C18.1422 57.0256 18.6665 57.0956 19.4354 57.0956C20.3791 57.0956 21.6723 56.9555 23.3149 56.6753L33.6603 54.8888C35.4777 54.5736 36.7709 54.1182 37.5048 53.5227C38.099 53.0323 38.4135 52.3668 38.4135 51.5962C38.4135 51.386 38.3786 51.1758 38.3436 50.9657C38.2737 50.5103 38.099 50.09 37.7844 49.7397Z" fill="white"/>
</g>
<defs>
<filter id="filter0_d_1_32" x="0" y="0" width="187" height="70" filterUnits="userSpaceOnUse" color-interpolation-filters="sRGB">
<feFlood flood-opacity="0" result="BackgroundImageFix"/>
<feColorMatrix in="SourceAlpha" type="matrix" values="0 0 0 0 0 0 0 0 0 0 0 0 0 0 0 0 0 0 127 0" result="hardAlpha"/>
<feOffset dy="4"/>
<feGaussianBlur stdDeviation="2"/>
<feComposite in2="hardAlpha" operator="out"/>
<feColorMatrix type="matrix" values="0 0 0 0 0 0 0 0 0 0 0 0 0 0 0 0 0 0 0.25 0"/>
<feBlend mode="normal" in2="BackgroundImageFix" result="effect1_dropShadow_1_32"/>
<feBlend mode="normal" in="SourceGraphic" in2="effect1_dropShadow_1_32" result="shape"/>
</filter>
<linearGradient id="paint0_linear_1_32" x1="2078.01" y1="79.4585" x2="2078.01" y2="4058.98" gradientUnits="userSpaceOnUse">
<stop offset="0.00562" stop-color="#FFE513"/>
<stop offset="1" stop-color="#FDB924"/>
</linearGradient>
<linearGradient id="paint1_linear_1_32" x1="286.658" y1="593.682" x2="4171.76" y2="3737.6" gradientUnits="userSpaceOnUse">
<stop offset="0.00562" stop-color="#008CD2"/>
<stop offset="1" stop-color="#00649D"/>
</linearGradient>
<linearGradient id="paint2_linear_1_32" x1="2502.52" y1="1400.42" x2="2502.52" y2="4886.89" gradientUnits="userSpaceOnUse">
<stop stop-color="#26A146"/>
<stop offset="1" stop-color="#008A52"/>
</linearGradient>
<linearGradient id="paint3_linear_1_32" x1="1899.4" y1="368.458" x2="2478.03" y2="3991.73" gradientUnits="userSpaceOnUse">
<stop stop-color="#D92231"/>
<stop offset="1" stop-color="#BA2234"/>
</linearGradient>
<clipPath id="clip0_1_32">
<rect width="179" height="62" fill="white" transform="translate(4)"/>
</clipPath>
</defs>
</svg>
