<?xml version="1.0" encoding="UTF-8"?>
<!DOCTYPE svg PUBLIC "-//W3C//DTD SVG 1.1//EN" "http://www.w3.org/Graphics/SVG/1.1/DTD/svg11.dtd">
<!-- Creator: CorelDRAW X8 -->
<svg xmlns="http://www.w3.org/2000/svg" xml:space="preserve" width="1.55959in" height="2in" version="1.1" style="shape-rendering:geometricPrecision; text-rendering:geometricPrecision; image-rendering:optimizeQuality; fill-rule:evenodd; clip-rule:evenodd"
viewBox="0 0 1970 2527"
 xmlns:xlink="http://www.w3.org/1999/xlink">
 <defs>
  <style type="text/css">
   <![CDATA[
    .fil0 {fill:#1A237E}
    .fil1 {fill:#868EE0}
   ]]>
  </style>
 </defs>
 <g id="Layer_x0020_1">
  <metadata id="CorelCorpID_0Corel-Layer"/>
  <g id="_2490707529408">
   <g>
    <path id="Path_10497" class="fil0" d="M1850 199l-289 0 0 -25c0,-11 -8,-19 -19,-20 0,0 0,0 -1,0l-122 0c-10,-88 -85,-154 -173,-154l-32 0c-89,0 -163,66 -174,154l-122 0c-10,0 -19,9 -19,19 0,0 0,0 0,1l0 221c0,10 8,19 18,19 1,0 1,0 1,0l623 0c11,0 19,-8 20,-19 0,0 0,0 0,0l0 -158 289 0c45,0 81,37 82,82l0 1540c-1,46 -37,82 -82,82 -265,0 -529,1 -793,1 -11,0 -20,8 -20,19 0,11 9,19 20,19 264,0 528,0 793,0 66,0 120,-54 120,-121l0 -1540c0,-66 -54,-120 -120,-120zm-913 176l0 -182 122 0c11,0 19,-8 20,-19 0,0 0,0 0,0 0,-75 60,-135 135,-136 0,0 0,0 0,0l32 0c75,0 135,61 135,136 0,0 0,0 0,0 0,10 8,19 19,19 0,0 0,0 0,0l122 0 0 182 -585 0z"/>
    <path id="Path_10499" class="fil0" d="M1247 629c0,-11 -9,-19 -19,-19 0,0 -1,0 -1,0l-571 0c-11,0 -19,8 -19,19 0,11 8,19 19,19 0,0 0,0 0,0l571 0c11,0 19,-8 20,-18 0,-1 0,-1 0,-1z"/>
    <path id="Path_10500" class="fil0" d="M656 760c-11,0 -19,8 -19,19 0,11 8,19 19,19l400 0c11,0 19,-8 19,-19 0,-11 -8,-19 -19,-19 0,0 0,0 0,0l-400 0z"/>
    <path id="Path_10501" class="fil0" d="M1611 915c98,0 178,-80 178,-178 0,-98 -80,-178 -178,-178 -98,0 -178,80 -178,178 0,98 80,178 178,178zm0 -318c77,0 139,63 139,139 0,77 -62,140 -139,140 -77,0 -139,-63 -139,-140l0 0c0,-76 62,-138 139,-139l0 0z"/>
    <path id="Path_10502" class="fil0" d="M1557 762l22 16c3,3 7,4 11,4 5,0 10,-2 13,-5l65 -58c8,-7 9,-19 2,-27 -7,-8 -19,-9 -27,-2 -1,0 -1,1 -1,1l-53 47 -10 -7c-8,-6 -20,-4 -26,4 0,1 0,1 -1,1 -6,8 -4,19 4,26 0,0 1,0 1,0z"/>
    <path id="Path_10504" class="fil0" d="M1610 1394c98,0 177,-80 177,-178 0,-98 -79,-178 -177,-178 -98,0 -178,80 -178,178 0,98 80,178 178,178zm139 -178c0,77 -62,139 -139,139 -76,0 -139,-62 -139,-139 0,-77 63,-139 139,-139l0 0c77,0 139,62 139,139l0 0z"/>
    <path id="Path_10505" class="fil0" d="M1565 1261c3,3 8,6 14,6 4,0 9,-2 13,-5l18 -17 18 17c3,3 8,5 12,5 6,0 11,-2 15,-6 7,-8 6,-20 -1,-27l-16 -15 16 -15c8,-7 8,-20 1,-27 -8,-8 -20,-8 -28,-1l0 0 -18 17 -18 -17c-7,-7 -19,-7 -27,1 -7,7 -7,20 1,27l16 15 -16 15c-7,7 -7,19 0,27z"/>
    <path id="Path_10508" class="fil0" d="M516 1948c87,0 172,-31 239,-87 158,-133 179,-368 46,-526 -132,-159 -367,-179 -526,-47 -158,132 -179,368 -46,526 71,85 176,134 287,134zm256 -588c118,142 99,352 -43,470 -142,118 -353,99 -471,-43 -118,-142 -98,-352 44,-470 60,-50 135,-78 213,-78 99,0 194,45 257,121l0 0 0 0z"/>
    <path id="Path_10509" class="fil0" d="M435 1316c-8,2 -15,5 -22,8 -12,5 -24,11 -36,18 -9,5 -12,17 -7,26 0,0 0,0 0,0 4,6 10,9 17,10 4,0 7,-1 10,-3 10,-6 20,-11 31,-15 6,-3 13,-5 19,-7 10,-3 16,-14 13,-24 -4,-11 -15,-16 -25,-13z"/>
    <path id="Path_10510" class="fil0" d="M317 1391c-47,49 -72,115 -72,183 -1,11 8,19 18,19 1,0 1,0 1,0l0 0c10,1 19,-8 19,-18 0,0 0,-1 0,-1 0,-58 22,-115 62,-158 7,-7 7,-19 -1,-26 0,0 0,0 0,-1 -8,-7 -20,-6 -27,2z"/>
    <path id="Path_10511" class="fil0" d="M963 1939c-4,-4 -8,-6 -13,-7 -5,0 -10,1 -14,5l-25 20 -22 -27c159,-166 188,-418 71,-617l97 0c10,0 19,-8 19,-19 0,-11 -9,-19 -19,-19l-123 0c-7,-11 -15,-21 -23,-31 -25,-30 -54,-57 -85,-81l402 0c11,0 19,-8 19,-19 0,-11 -8,-19 -19,-19l-461 0c-63,-36 -133,-57 -206,-63 -30,-3 -61,-3 -91,0l0 -743c0,-45 37,-81 82,-82l358 0c10,0 19,-8 19,-19 0,-11 -9,-19 -19,-19 0,0 0,0 0,0l-358 0c-67,0 -120,54 -121,120l0 746c-91,15 -176,54 -246,114 -219,182 -248,507 -65,726 87,104 213,170 349,182 15,2 31,2 47,2 96,0 190,-27 271,-78l24 29 -20 16c-8,7 -9,19 -2,28l364 435c3,5 9,7 14,8 5,0 9,-2 13,-5l143 -120c8,-7 9,-19 3,-27l-363 -436zm208 540l-340 -406 114 -95 340 407 -114 94zm-1022 -600c-168,-202 -141,-502 61,-671 86,-71 193,-110 304,-110 14,0 29,0 44,2 262,22 456,254 433,516 -23,262 -254,456 -516,434 -127,-12 -244,-73 -326,-171zm671 110c8,-6 17,-12 25,-20 5,-3 9,-8 15,-12l21 25 -39 33 -22 -26z"/>
   </g>
   <path class="fil1" d="M229 1814c-133,-158 -112,-394 46,-526 159,-132 394,-112 526,47 133,158 112,393 -46,526 -67,56 -152,87 -239,87 -111,0 -216,-49 -287,-134zm762 -198c23,-262 -171,-494 -433,-516 -126,-12 -251,27 -348,108 -202,169 -229,469 -61,671 82,98 199,159 326,171 262,22 493,-172 516,-434z"/>
   <path class="fil1" d="M937 375l585 0 0 -182 -122 0c-10,0 -19,-8 -19,-19 1,-74 -60,-136 -135,-136l-32 0c-76,0 -136,63 -135,136 0,11 -9,19 -20,19l-122 0 0 182z"/>
  </g>
 </g>
</svg>
