<svg xmlns="http://www.w3.org/2000/svg" width="373.334" height="101" viewBox="0 0 373.334 101"><defs><style>.a,.f{fill:#1a237e;}.b,.e{fill:#fff;}.c{fill:#26263a;font-size:9px;font-family:ArialMT, Arial;}.d{fill:none;}.d,.e,.f{stroke:#1a237e;stroke-width:2px;}.e,.f{stroke-linecap:round;}.e{stroke-miterlimit:10;}.f{stroke-linejoin:round;}</style></defs><g transform="translate(-97.804 -2393.612)"><path class="a" d="M87.447,100.447H1.323A.868.868,0,0,1,.5,99.513V1.434A.868.868,0,0,1,1.323.5H87.447a.868.868,0,0,1,.823.934V99.513A.868.868,0,0,1,87.447,100.447Z" transform="translate(109.275 2393.112)"/><path class="b" d="M82.174,95.124H1.273A.819.819,0,0,1,.5,94.24V1.384A.819.819,0,0,1,1.273.5h80.9a.819.819,0,0,1,.773.884V94.24A.819.819,0,0,1,82.174,95.124Z" transform="translate(111.91 2395.773)"/><text class="c" transform="translate(151.856 2467.844)"><tspan x="-17.758" y="0">Accurate</tspan><tspan x="-28.764" y="11">Financial Data</tspan></text><path class="a" d="M87.447,100.447H1.323A.868.868,0,0,1,.5,99.513V1.434A.868.868,0,0,1,1.323.5H87.447a.868.868,0,0,1,.823.934V99.513A.868.868,0,0,1,87.447,100.447Z" transform="translate(231.647 2393.112)"/><path class="b" d="M82.174,95.124H1.273A.819.819,0,0,1,.5,94.24V1.384A.819.819,0,0,1,1.273.5h80.9a.819.819,0,0,1,.773.884V94.24A.819.819,0,0,1,82.174,95.124Z" transform="translate(234.548 2395.773)"/><text class="c" transform="translate(274.601 2467.854)"><tspan x="-26.76" y="0">Automatically</tspan><tspan x="-14.511" y="11">Update</tspan></text><path class="a" d="M86.969,100.447H1.318A.866.866,0,0,1,.5,99.513V1.434A.866.866,0,0,1,1.318.5H86.969a.866.866,0,0,1,.818.934V99.513A.866.866,0,0,1,86.969,100.447Z" transform="translate(353.709 2393.112)"/><path class="b" d="M82.174,95.124H1.273A.819.819,0,0,1,.5,94.24V1.384A.819.819,0,0,1,1.273.5h80.9a.819.819,0,0,1,.773.884V94.24A.819.819,0,0,1,82.174,95.124Z" transform="translate(356.395 2395.826)"/><text class="c" transform="translate(398.267 2467.854)"><tspan x="-9.833" y="0">Time</tspan><tspan x="-13.759" y="11">Saving</tspan></text><line class="d" x2="34.733" transform="translate(197.545 2442.184)"/><line class="d" x2="34.209" transform="translate(319.917 2442.184)"/><line class="e" x2="348.548" transform="translate(98.804 2493.612)"/><line class="e" x2="14.347" transform="translate(455.791 2493.612)"/><path class="a" d="M0,16.706a6.365,6.365,0,0,1,2.588-2.061,2.652,2.652,0,0,1,2.785.556,7.094,7.094,0,0,1,1.751,2.6c.324.739.6,1.5.893,2.251.042.113.091.232.155.408A65.154,65.154,0,0,1,28.185,0c.359.387.668.724,1.006,1.09-.563.457-1.1.879-1.632,1.322a58.407,58.407,0,0,0-9.791,10.53,104.529,104.529,0,0,0-7.1,11.43,1.881,1.881,0,0,1-.513.542c-1.168.851-2.342,1.681-3.51,2.518-.113.077-.218.162-.352.26C5.142,23.465,3.418,19.618,0,16.706Z" transform="translate(138.915 2416.073)"/><g transform="translate(261.794 2415.766)"><path class="a" d="M2387.151,383.4c0,1.191-6.151,5.258-6.151,0,0-7.044,4.564-12.4,12-12.4.3,0,.3,0,.1.1C2391.913,371.893,2387.151,373.976,2387.151,383.4Z" transform="translate(-2376.734 -371)"/><path class="a" d="M2338,500l7.342,9.326,7.342-9.326Z" transform="translate(-2338 -487.202)"/><path class="f" d="M2338,500l7.342,9.326,7.342-9.326ZM2338,500Z" transform="translate(-2338 -487.202)"/><path class="a" d="M2485.7,541.169c0-1.19,6.151-5.258,6.151,0,0,7.044-4.564,12.4-12,12.4-.3,0-.3,0-.1-.1C2480.935,552.678,2485.7,550.594,2485.7,541.169Z" transform="translate(-2465.557 -521.922)"/><path class="a" d="M2512.684,476.326,2505.342,467,2498,476.326Z" transform="translate(-2482.126 -457.476)"/><path class="f" d="M2512.684,476.326,2505.342,467,2498,476.326ZM2512.684,476.326Z" transform="translate(-2482.126 -457.476)"/></g><path class="a" d="M117.134,214.134A13.878,13.878,0,0,1,127.5,209.9a14.45,14.45,0,0,1,10.365,4.234A13.878,13.878,0,0,1,142.1,224.5a14.45,14.45,0,0,1-4.234,10.365A13.878,13.878,0,0,1,127.5,239.1a14.45,14.45,0,0,1-10.365-4.234A13.878,13.878,0,0,1,112.9,224.5,14.208,14.208,0,0,1,117.134,214.134Zm2.044,18.541a11.284,11.284,0,0,0,8.176,3.5,11.049,11.049,0,0,0,8.176-3.5,11.284,11.284,0,0,0,3.5-8.176,10.822,10.822,0,0,0-3.5-8.176,11.284,11.284,0,0,0-8.176-3.5,11.049,11.049,0,0,0-8.176,3.5,11.285,11.285,0,0,0-3.5,8.176A12.579,12.579,0,0,0,119.178,232.675Zm9.051-15.621v7.592l6.57,3.942-1.168,1.9-7.592-4.672v-8.759Z" transform="translate(272.244 2205.787)"/></g></svg>