<svg xmlns="http://www.w3.org/2000/svg" width="415.122" height="200" viewBox="0 0 415.122 200"><defs><style>.a{fill:#fff;}.a,.b,.c{stroke:#1a237e;}.a,.b{stroke-linecap:round;stroke-miterlimit:10;stroke-width:2px;}.b{fill:none;}.c,.e{fill:#1a237e;}.d{fill:#868ee0;}.f{fill:#28283c;}</style></defs><g transform="translate(-854.001 -1526)"><line class="a" x2="377.319" transform="translate(855.001 1725)"/><line class="b" x2="23.354" transform="translate(1244.769 1725)"/><path class="c" d="M242.093,149.135a1.079,1.079,0,0,1-.739-.336,1.113,1.113,0,0,1-.336-.806,1.245,1.245,0,0,1,.269-.672l10.75-10.682H218.175a1.075,1.075,0,1,1,0-2.15h32.854l-8.868-9.675a1.071,1.071,0,0,1-.269-.806.817.817,0,0,1,.336-.672,1.079,1.079,0,0,1,.739-.336.907.907,0,0,1,.672.336l11.153,12.093a1.055,1.055,0,0,1,0,1.478L242.9,148.732A1.161,1.161,0,0,1,242.093,149.135Z" transform="translate(838.748 1527.14)"/><g transform="translate(1100.844 1615.179)"><g transform="translate(3.644 54.794)"><g transform="translate(57.159)"><rect class="d" width="3.58" height="27.429"/></g><g transform="translate(38.106)"><rect class="d" width="3.58" height="27.429"/></g><g transform="translate(19.053)"><rect class="d" width="3.58" height="27.429"/></g><rect class="d" width="3.58" height="27.429"/></g><path class="d" d="M920.641,347.983h19.565a.739.739,0,0,0,.767-.767V332.7a.739.739,0,0,0-.767-.767H920.641v-.767a.739.739,0,0,0-.767-.767h-1.406a.739.739,0,0,0-.767.767v27.109h2.877V347.983Z" transform="translate(-885.796 -330.4)"/><rect class="d" width="68.092" height="3.964" transform="translate(0 83.693)"/><rect class="d" width="68.092" height="3.964" transform="translate(0 92.772)"/><path class="d" d="M933.505,395.353a30.566,30.566,0,0,0-59.205,0Z" transform="translate(-870.144 -345.547)"/></g><path class="e" d="M687.728,85.3H411.637A11.183,11.183,0,0,0,400.6,96.58V273.949a11.183,11.183,0,0,0,11.037,11.28H687.728a11.183,11.183,0,0,0,11.037-11.28V96.58A11.183,11.183,0,0,0,687.728,85.3Zm5.64,184a11.352,11.352,0,0,1-11.357,11.28H417.195a11.352,11.352,0,0,1-11.357-11.28V100.9a11.352,11.352,0,0,1,11.357-11.28H682.171a11.352,11.352,0,0,1,11.357,11.28Z" transform="translate(493.458 1440.7)"/><g transform="translate(912.125 1601.979)"><path class="e" d="M91.775,34.89H80.75V11.136C80.75,6.09,77.224,2,72.875,2h-63C5.526,2,2,6.09,2,11.136V102.5c0,5.046,3.526,9.136,7.875,9.136h81.9c2.606-.009,4.717-2.458,4.725-5.482V40.372c-.008-3.024-2.119-5.473-4.725-5.482ZM72.875,5.654c2.606.009,4.717,2.458,4.725,5.482V34.89H74.45V22.1a1.941,1.941,0,0,0-.409-1.224L62.244,5.654ZM60.275,8.6l9.056,11.676H61.85a1.715,1.715,0,0,1-1.575-1.827ZM49.534,107.98H9.875c-2.606-.009-4.717-2.458-4.725-5.482V11.136c.008-3.024,2.119-5.473,4.725-5.482h47.25V18.445c.008,3.024,2.119,5.473,4.725,5.482H71.3V34.89H53.975c-2.606.009-4.717,2.458-4.725,5.482v65.781a6.272,6.272,0,0,0,.284,1.827Zm43.817-1.827a1.715,1.715,0,0,1-1.575,1.827h-37.8a1.715,1.715,0,0,1-1.575-1.827V40.372a1.715,1.715,0,0,1,1.575-1.827h37.8a1.715,1.715,0,0,1,1.575,1.827Z" transform="translate(-2 -2)"/><path class="e" d="M67.5,24H39.15A3.15,3.15,0,0,0,36,27.15V36.6a3.15,3.15,0,0,0,3.15,3.15H67.5a3.15,3.15,0,0,0,3.15-3.15V27.15A3.15,3.15,0,0,0,67.5,24ZM39.15,36.6V27.15H67.5V36.6Z" transform="translate(17.55 17.309)"/><rect class="e" width="2.474" height="3.298" transform="translate(75.855 47.394)"/><rect class="e" width="3.298" height="3.298" transform="translate(69.259 47.394)"/><rect class="e" width="2.474" height="3.298" transform="translate(63.487 47.394)"/><path class="e" d="M43.875,44h-6.3A1.575,1.575,0,0,0,36,45.575v6.3a1.575,1.575,0,0,0,1.575,1.575h6.3a1.575,1.575,0,0,0,1.575-1.575v-6.3A1.575,1.575,0,0,0,43.875,44ZM42.3,50.3H39.15V47.15H42.3Z" transform="translate(17.55 33.922)"/><path class="e" d="M43.875,36h-6.3A1.575,1.575,0,0,0,36,37.575v6.3a1.575,1.575,0,0,0,1.575,1.575h6.3a1.575,1.575,0,0,0,1.575-1.575v-6.3A1.575,1.575,0,0,0,43.875,36ZM42.3,42.3H39.15V39.15H42.3Z" transform="translate(17.55 27.079)"/><path class="e" d="M51.875,36h-6.3A1.575,1.575,0,0,0,44,37.575v6.3a1.575,1.575,0,0,0,1.575,1.575h6.3a1.575,1.575,0,0,0,1.575-1.575v-6.3A1.575,1.575,0,0,0,51.875,36ZM50.3,42.3H47.15V39.15H50.3Z" transform="translate(22.15 27.079)"/><path class="e" d="M59.875,36h-6.3A1.575,1.575,0,0,0,52,37.575v6.3a1.575,1.575,0,0,0,1.575,1.575h6.3a1.575,1.575,0,0,0,1.575-1.575v-6.3A1.575,1.575,0,0,0,59.875,36ZM58.3,42.3H55.15V39.15H58.3Z" transform="translate(26.75 27.079)"/><path class="e" d="M51.875,44h-6.3A1.575,1.575,0,0,0,44,45.575v6.3a1.575,1.575,0,0,0,1.575,1.575h6.3a1.575,1.575,0,0,0,1.575-1.575v-6.3A1.575,1.575,0,0,0,51.875,44ZM50.3,50.3H47.15V47.15H50.3Z" transform="translate(22.15 33.922)"/><path class="e" d="M59.875,44h-6.3A1.575,1.575,0,0,0,52,45.575v6.3a1.575,1.575,0,0,0,1.575,1.575h6.3a1.575,1.575,0,0,0,1.575-1.575v-6.3A1.575,1.575,0,0,0,59.875,44ZM58.3,50.3H55.15V47.15H58.3Z" transform="translate(26.75 33.922)"/><path class="e" d="M43.875,52h-6.3A1.575,1.575,0,0,0,36,53.575v6.3a1.575,1.575,0,0,0,1.575,1.575h6.3a1.575,1.575,0,0,0,1.575-1.575v-6.3A1.575,1.575,0,0,0,43.875,52ZM42.3,58.3H39.15V55.15H42.3Z" transform="translate(17.55 41.885)"/><path class="e" d="M51.875,52h-6.3A1.575,1.575,0,0,0,44,53.575v6.3a1.575,1.575,0,0,0,1.575,1.575h6.3a1.575,1.575,0,0,0,1.575-1.575v-6.3A1.575,1.575,0,0,0,51.875,52ZM50.3,58.3H47.15V55.15H50.3Z" transform="translate(22.15 41.885)"/><path class="e" d="M59.875,52h-6.3A1.575,1.575,0,0,0,52,53.575v6.3a1.575,1.575,0,0,0,1.575,1.575h6.3a1.575,1.575,0,0,0,1.575-1.575v-6.3A1.575,1.575,0,0,0,59.875,52ZM58.3,58.3H55.15V55.15H58.3Z" transform="translate(26.75 41.885)"/><rect class="e" width="26.729" height="3.15" transform="translate(9.912 28.811) rotate(-45)"/><path class="e" d="M12.725,17.45A4.725,4.725,0,1,0,8,12.725a4.725,4.725,0,0,0,4.725,4.725Zm0-6.3a1.575,1.575,0,1,1-1.575,1.575A1.575,1.575,0,0,1,12.725,11.15Z" transform="translate(1.45 1.45)"/><path class="e" d="M20.725,16a4.725,4.725,0,1,0,4.725,4.725A4.725,4.725,0,0,0,20.725,16Zm0,6.3A1.575,1.575,0,1,1,22.3,20.725,1.575,1.575,0,0,1,20.725,22.3Z" transform="translate(6.05 9.974)"/><rect class="e" width="16.49" height="3.298" transform="translate(35.454 9.317)"/><rect class="e" width="16.49" height="4.123" transform="translate(35.454 17.616)"/><rect class="e" width="16.49" height="4.123" transform="translate(35.454 25.316)"/><rect class="e" width="5.772" height="3.298" transform="translate(9.07 43.549)"/><rect class="e" width="22.262" height="3.298" transform="translate(18.964 43.549)"/><rect class="e" width="5.772" height="3.298" transform="translate(9.07 51.24)"/><rect class="e" width="22.262" height="3.298" transform="translate(18.964 51.24)"/><rect class="e" width="5.772" height="3.298" transform="translate(9.07 58.93)"/><rect class="e" width="22.262" height="3.298" transform="translate(18.964 58.93)"/><rect class="e" width="5.772" height="4.123" transform="translate(9.07 65.745)"/><rect class="e" width="22.262" height="4.123" transform="translate(18.964 65.745)"/><rect class="e" width="5.772" height="3.298" transform="translate(9.07 73.35)"/><rect class="e" width="22.262" height="3.298" transform="translate(18.964 73.35)"/><rect class="e" width="5.772" height="2.474" transform="translate(9.07 80.938)"/><rect class="e" width="22.262" height="2.474" transform="translate(18.964 80.938)"/></g><g transform="translate(1009.35 1670.705)"><path class="e" d="M94.764,57.1a9.413,9.413,0,0,0-.276-2.943,2.449,2.449,0,0,0,.276-1.1v-1.1A9.413,9.413,0,0,0,94.488,49a2.449,2.449,0,0,0,.276-1.1V46.8a9.413,9.413,0,0,0-.276-2.943,2.449,2.449,0,0,0,.276-1.1c0-3.587-6.714-5.15-13.336-5.15s-13.336,1.564-13.336,5.15a2.449,2.449,0,0,0,.276,1.1A6.953,6.953,0,0,0,68,46.8v1.1a2.449,2.449,0,0,0,.276,1.1A9.413,9.413,0,0,0,68,51.947v1.1a2.449,2.449,0,0,0,.276,1.1A9.413,9.413,0,0,0,68,57.1v1.1a2.449,2.449,0,0,0,.276,1.1A9.413,9.413,0,0,0,68,62.248v1.1a2.449,2.449,0,0,0,.276,1.1A10.037,10.037,0,0,0,68,67.491v1.1a2.449,2.449,0,0,0,.276,1.1A9.413,9.413,0,0,0,68,72.641v1.1a2.112,2.112,0,0,0,.368,1.288,2.6,2.6,0,0,0,.92,1.1c2.391,2.023,7.818,2.759,12.048,2.759s9.657-.736,12.048-2.759a2.94,2.94,0,0,0,.92-1.1,2.4,2.4,0,0,0,.368-1.38v-1.1a9.413,9.413,0,0,0-.276-2.943,2.449,2.449,0,0,0,.276-1.1V67.4a9.412,9.412,0,0,0-.276-2.943,2.449,2.449,0,0,0,.276-1.1v-1.1a9.413,9.413,0,0,0-.276-2.943,2.449,2.449,0,0,0,.276-1.1A4.479,4.479,0,0,0,94.764,57.1ZM81.428,39.531c6.99,0,11.22,1.839,11.312,3.127v.092c0,.184-.092.368-.368.644-1.38,1.472-5.886,2.391-10.945,2.391s-9.565-1.012-10.945-2.391a1.168,1.168,0,0,1-.368-.644v-.092C70.115,41.371,74.438,39.531,81.428,39.531ZM70.115,46.705V45.6c2.667,1.655,7.45,2.207,11.312,2.207s8.645-.552,11.312-2.207v2.3a.8.8,0,0,1-.368.644c-1.38,1.472-5.886,2.391-10.945,2.391s-9.565-1.012-10.945-2.391a1.168,1.168,0,0,1-.368-.644h0ZM92.74,72.549v1.2a.8.8,0,0,1-.368.644c-1.38,1.472-5.886,2.391-10.945,2.391s-9.565-1.012-10.945-2.391a1.168,1.168,0,0,1-.368-.644V71.629c2.667,1.564,7.45,2.207,11.312,2.207s8.645-.552,11.312-2.207Zm0-5.15v1.2a.8.8,0,0,1-.368.644c-1.38,1.472-5.886,2.391-10.945,2.391s-9.565-1.012-10.945-2.391a1.168,1.168,0,0,1-.368-.644V66.479c2.667,1.564,7.45,2.207,11.312,2.207s8.645-.552,11.312-2.207Zm0-5.15v1.2a.8.8,0,0,1-.368.644c-1.38,1.38-5.886,2.391-10.945,2.391s-9.565-1.012-10.945-2.391a1.168,1.168,0,0,1-.368-.644V61.329c2.667,1.564,7.45,2.207,11.312,2.207s8.645-.552,11.312-2.207Zm0-5.15v1.2a.8.8,0,0,1-.368.644c-1.38,1.472-5.886,2.391-10.945,2.391s-9.565-1.012-10.945-2.391a1.168,1.168,0,0,1-.368-.644V56.178c2.667,1.564,7.45,2.207,11.312,2.207s8.645-.552,11.312-2.207Zm0-5.15v1.2a.8.8,0,0,1-.368.644c-1.38,1.472-5.886,2.391-10.945,2.391s-9.565-1.012-10.945-2.391a1.168,1.168,0,0,1-.368-.644h0V51.028c2.667,1.564,7.45,2.207,11.312,2.207s8.645-.552,11.312-2.207Z" transform="translate(-38.201 -37.6)"/><path class="e" d="M62.272,63.147A9.413,9.413,0,0,0,62,60.2a2.449,2.449,0,0,0,.276-1.1V58A9.413,9.413,0,0,0,62,55.054a2.449,2.449,0,0,0,.276-1.1c0-3.587-6.714-5.15-13.336-5.15S35.6,50.364,35.6,53.95a2.449,2.449,0,0,0,.276,1.1A9.413,9.413,0,0,0,35.6,58v1.1a2.449,2.449,0,0,0,.276,1.1,9.413,9.413,0,0,0-.276,2.943v1.1a2.449,2.449,0,0,0,.276,1.1A9.413,9.413,0,0,0,35.6,68.3v1.1a2.449,2.449,0,0,0,.276,1.1,9.413,9.413,0,0,0-.276,2.943v1.1a2.112,2.112,0,0,0,.368,1.288,2.6,2.6,0,0,0,.92,1.1c2.391,2.023,7.818,2.759,12.048,2.759s9.657-.736,12.048-2.759a6.16,6.16,0,0,0,.92-1.1,2.4,2.4,0,0,0,.368-1.38v-1.1A9.413,9.413,0,0,0,62,70.413a2.449,2.449,0,0,0,.276-1.1v-1.1A9.413,9.413,0,0,0,62,65.263a2.449,2.449,0,0,0,.276-1.1A1.881,1.881,0,0,1,62.272,63.147ZM48.844,50.823c6.99,0,11.22,1.839,11.312,3.127v.092c0,.184-.092.368-.368.644-1.38,1.472-5.886,2.391-10.945,2.391S39.279,56.066,37.9,54.686a1.168,1.168,0,0,1-.368-.644V53.95C37.623,52.571,41.946,50.823,48.844,50.823ZM37.531,58v-1.1C40.2,58.549,44.981,59.1,48.844,59.1s8.645-.552,11.312-2.207v2.3a.8.8,0,0,1-.368.644c-1.38,1.472-5.886,2.391-10.945,2.391S39.279,61.216,37.9,59.837a1.168,1.168,0,0,1-.368-.644h0ZM60.156,73.448v1.2a.8.8,0,0,1-.368.644c-1.38,1.472-5.886,2.391-10.945,2.391S39.279,76.667,37.9,75.288a1.168,1.168,0,0,1-.368-.644V72.529c2.667,1.563,7.45,2.207,11.312,2.207s8.645-.552,11.312-2.207C60.156,72.713,60.156,73.08,60.156,73.448Zm0-5.15v1.2a.8.8,0,0,1-.368.644c-1.38,1.472-5.886,2.391-10.945,2.391S39.279,71.517,37.9,70.137a1.168,1.168,0,0,1-.368-.644V67.378c2.667,1.563,7.45,2.207,11.312,2.207s8.645-.552,11.312-2.207C60.156,67.562,60.156,67.93,60.156,68.3Zm0-5.15v1.2a.8.8,0,0,1-.368.644c-1.38,1.38-5.886,2.391-10.945,2.391S39.279,66.366,37.9,64.987a1.168,1.168,0,0,1-.368-.644h0V62.228c2.667,1.564,7.45,2.207,11.312,2.207s8.645-.552,11.312-2.207C60.156,62.412,60.156,62.78,60.156,63.147Z" transform="translate(-35.6 -38.499)"/></g><path class="f" d="M40.619-4.635A17.871,17.871,0,0,1,34.04.336,25.74,25.74,0,0,1,22.75,2.513q-8.675,0-14.165-5.393t-5.491-14V-26.76q0-8.577,5.28-13.987a18.168,18.168,0,0,1,13.6-5.41q8.642,0,13.24,4.207A14.586,14.586,0,0,1,39.9-30.886l-.065.195H30.9a9.1,9.1,0,0,0-2.4-5.962q-2.144-2.193-6.27-2.193a8.517,8.517,0,0,0-7.018,3.363,13.52,13.52,0,0,0-2.664,8.658v9.942A13.351,13.351,0,0,0,15.31-8.127a9.127,9.127,0,0,0,7.44,3.363,17.032,17.032,0,0,0,5.328-.682,8.072,8.072,0,0,0,3.054-1.689v-8.772H22.75v-6.563H40.619Zm33.692-5.881A5.491,5.491,0,0,0,72.378-14.9Q70.445-16.558,65.6-18.02,57.156-20.457,52.835-23.8a10.958,10.958,0,0,1-4.321-9.162,11.349,11.349,0,0,1,4.955-9.5q4.955-3.688,12.655-3.688,7.8,0,12.7,4.142A12.4,12.4,0,0,1,83.571-31.8l-.065.195H74.311a6.9,6.9,0,0,0-2.193-5.312,8.723,8.723,0,0,0-6.157-2.031,9.1,9.1,0,0,0-5.881,1.689A5.323,5.323,0,0,0,58-32.933a4.638,4.638,0,0,0,2.226,3.947,30.78,30.78,0,0,0,7.684,3.265q7.83,2.177,11.859,5.751A11.949,11.949,0,0,1,83.8-10.58,11.244,11.244,0,0,1,79.006-1Q74.214,2.513,66.351,2.513a23.1,23.1,0,0,1-13.483-3.98,12.43,12.43,0,0,1-5.588-11.16l.065-.195h9.227q0,4.224,2.583,6.189a11.648,11.648,0,0,0,7.2,1.966,9.472,9.472,0,0,0,5.913-1.592A5.118,5.118,0,0,0,74.311-10.515Zm49.352-27.649H110.277V1.831H100.79V-38.164H87.469v-7.31h36.193Z" transform="translate(1006 1596)"/></g></svg>