<svg width="76" height="81" viewBox="0 0 76 81" fill="none" xmlns="http://www.w3.org/2000/svg">
<path d="M73.681 0.33252H2.31949C1.0313 0.33252 0 1.37421 0 2.65199V29.621C0 30.9092 1.0313 31.9578 2.31949 31.9578H13.2707C13.3401 31.8501 13.4026 31.746 13.4825 31.6383C13.7568 31.2564 14.0589 30.8918 14.3714 30.555H2.31885C1.8119 30.555 1.39519 30.1383 1.39519 29.6209V2.65192C1.39519 2.14498 1.81186 1.7353 2.31885 1.7353H73.6804C74.1873 1.7353 74.604 2.14502 74.604 2.65192V29.6209C74.604 30.1383 74.1873 30.555 73.6804 30.555H61.6251C61.9376 30.9022 62.2397 31.2563 62.514 31.6383C62.5939 31.746 62.6564 31.8501 62.7258 31.9578H73.677C74.9652 31.9578 75.9965 30.9092 75.9965 29.621L76 2.65199C76 1.37421 74.9692 0.33252 73.681 0.33252ZM62.08 31.9575C61.7258 31.461 61.3231 30.9818 60.8891 30.5548C58.7918 28.4402 55.7952 27.1242 52.4897 27.1242H23.5099C20.2043 27.1242 17.2078 28.4402 15.1105 30.5548C14.6765 30.9818 14.2737 31.461 13.9196 31.9575C12.6557 33.7005 11.9369 35.8047 11.9369 38.0721V51.1557C11.9369 53.3606 13.2182 55.3328 15.2807 56.3293L30.295 63.555L29.2533 78.7631C29.236 79.1381 29.3679 79.5096 29.6353 79.7839C29.9547 80.1381 30.4339 80.3325 30.9409 80.3325H45.0557C45.5626 80.3325 46.0418 80.1381 46.3613 79.7909C46.6286 79.5061 46.7606 79.1415 46.7432 78.7701L45.7015 63.562L60.7194 56.3328C62.7819 55.3363 64.0632 53.3641 64.0632 51.1592V38.0756C64.0632 35.8082 63.3439 33.7005 62.08 31.9575ZM30.6557 78.9301L31.8814 61.0101C32.0446 58.5274 34.7356 56.5899 37.9995 56.5899C41.2635 56.5899 43.9544 58.5274 44.1142 61.0066L45.3572 78.9267L30.6557 78.9301ZM56.7288 56.6972L45.5999 62.0478L45.52 60.9194C45.3047 57.7006 41.9887 55.1868 37.9991 55.1868C33.9991 55.1868 30.6935 57.7006 30.4783 60.9194L30.3984 62.0582L19.2694 56.6972V50.3221C19.2694 47.8325 21.3146 45.7873 23.8042 45.7873H52.1965C54.6861 45.7873 56.7313 47.8325 56.7313 50.3221L56.7288 56.6972ZM62.6664 51.1589C62.6664 52.8117 61.6872 54.3048 60.1143 55.0617L58.1316 56.0304V50.322C58.1316 47.0512 55.4649 44.3914 52.1941 44.3914L23.8045 44.3949C20.5336 44.3949 17.8669 47.0512 17.8669 50.3255V56.0339L15.8842 55.0652C14.3113 54.3047 13.3321 52.8116 13.3321 51.1589V38.0753C13.3321 35.7454 14.2314 33.6135 15.7245 31.9607C16.1759 31.4329 16.6828 30.9642 17.2523 30.5545C18.978 29.2836 21.1551 28.5268 23.5094 28.5268H52.4892C54.8433 28.5268 57.024 29.2837 58.7462 30.5545C59.3156 30.9642 59.8226 31.433 60.274 31.9573C61.7671 33.6135 62.6664 35.7454 62.6664 38.0753V51.1589ZM53.6246 6.80499V14.1731H55.6246V6.80499H53.6246ZM53.6246 16.333V25.4788H55.6246V16.333H53.6246ZM31.6448 6.80499V14.1731H33.6448V6.80499H31.6448ZM31.6448 16.333V25.4788H33.6448V16.333H31.6448ZM37.9886 16.333V25.4788H40.6553V16.333H37.9886ZM37.9886 6.80499V14.1731H40.6553V6.80499H37.9886ZM56.6376 16.333V25.4788H59.3043V16.333H56.6376ZM56.6376 6.80499V14.1731H59.3043V6.80499H56.6376ZM42.3531 6.80499V14.1731H43.6864V6.80499H42.3531ZM42.3531 16.333V25.4788H43.6864V16.333H42.3531ZM48.4781 6.80499V14.1731H49.8115V6.80499H48.4781ZM48.4781 16.333V25.4788H49.8115V16.333H48.4781ZM44.676 6.80499V14.1731H47.3427V6.80499H44.676ZM44.676 16.333V25.4788H47.3427V16.333H44.676ZM34.9853 6.80499V14.1731H36.9853V6.80499H34.9853ZM34.9853 16.333V25.4788H36.9853V16.333H34.9853ZM50.8183 16.333V25.4788H52.8183V16.333H50.8183ZM50.8183 6.80499V14.1731H52.8183V6.80499H50.8183ZM63.3215 6.80499V14.1731H65.9882V6.80499H63.3215ZM63.3215 16.333V25.4788H65.9882V16.333H63.3215ZM60.9951 6.80499V14.1731H62.3284V6.80499H60.9951ZM60.9951 16.333V25.4788H62.3284V16.333H60.9951ZM69.457 16.333V25.4788H71.457V16.333H69.457ZM69.457 6.80499V14.1731H71.457V6.80499H69.457ZM67.1271 16.333V25.4788H68.4604V16.333H67.1271ZM67.1271 6.80499V14.1731H68.4604V6.80499H67.1271ZM15.8111 6.80499V14.1731H17.8111V6.80499H15.8111ZM15.8111 16.333V25.4788H17.8111V16.333H15.8111ZM23.1792 16.333V25.4788H24.5126V16.333H23.1792ZM23.1792 6.80499V14.1731H24.5126V6.80499H23.1792ZM18.8251 16.333V25.4788H21.4917V16.333H18.8251ZM18.8251 6.80499V14.1731H21.4917V6.80499H18.8251ZM4.54048 6.80499V14.1731H5.87383V6.80499H4.54048ZM4.54048 16.333V25.4788H5.87383V16.333H4.54048ZM29.3149 16.333V25.4788H30.6483V16.333H29.3149ZM29.3149 6.80499V14.1731H30.6483V6.80499H29.3149ZM25.5094 16.333V25.4788H28.1761V16.333H25.5094ZM25.5094 6.80499V14.1731H28.1761V6.80499H25.5094ZM6.86033 16.333V25.4788H9.52701V16.333H6.86033ZM6.86033 6.80499V14.1731H9.52701V6.80499H6.86033ZM13.0028 6.80499V14.1731H15.0028V6.80499H13.0028ZM13.0028 16.333V25.4788H15.0028V16.333H13.0028ZM10.666 6.80499V14.1731H11.9993V6.80499H10.666ZM10.666 16.333V25.4788H11.9993V16.333H10.666ZM2.38118 14.708V15.7914H73.6182V14.708H2.38118Z" fill="#1A237E"/>
</svg>
