<svg width="92" height="81" viewBox="0 0 92 81" fill="none" xmlns="http://www.w3.org/2000/svg">
<path d="M46.4758 80.3875C38.7783 80.379 31.504 76.8644 26.7162 70.8376C21.9328 64.8065 20.1523 56.9269 21.8906 49.429C22.0259 48.8412 22.6138 48.4774 23.1974 48.6128C23.7853 48.7481 24.149 49.3318 24.0137 49.9196C22.3515 57.0418 24.1659 64.5319 28.9028 70.1025C33.6439 75.6726 40.7455 78.667 48.0409 78.1679C55.3365 77.6688 61.9635 73.7398 65.9057 67.5776C66.2271 67.0743 66.9038 66.9263 67.4071 67.2477C67.9146 67.5734 68.0626 68.2501 67.737 68.7534C63.1101 76.0151 55.0866 80.4048 46.4758 80.3875ZM70.2869 60.2977C70.2234 60.2977 70.1642 60.2934 70.1008 60.2808C69.8174 60.2342 69.5636 60.0777 69.3945 59.8409C69.2295 59.6041 69.1619 59.3122 69.2126 59.0289C69.2337 58.8978 69.2549 58.7666 69.276 58.6355V58.6313C69.3649 58.0392 69.9189 57.6289 70.511 57.7178C71.1073 57.8108 71.5176 58.3649 71.4245 58.9569C71.4034 59.1007 71.3822 59.2445 71.3569 59.3883V59.3926C71.268 59.9128 70.8155 60.2977 70.2869 60.2977ZM26.6361 42.4664C26.2301 42.4664 25.8621 42.238 25.6718 41.8785C25.4857 41.5233 25.5111 41.0877 25.7437 40.7535C29.3175 35.6106 34.6761 31.9775 40.7794 30.5649C46.8823 29.1481 53.2945 30.0532 58.7665 33.1026C59.291 33.3944 59.4813 34.0584 59.1852 34.5829C58.8934 35.1073 58.2294 35.2934 57.705 35.0016C52.7016 32.2187 46.8486 31.394 41.2693 32.6882C35.6951 33.9781 30.7974 37.2981 27.5318 41.997C27.3288 42.2931 26.9956 42.4664 26.6361 42.4664Z" fill="#1A237E"/>
<path d="M46.4759 45.141C40.0939 45.1494 33.9446 42.7302 29.2748 38.374C28.835 37.9638 28.8138 37.2744 29.2241 36.8345C29.6343 36.3946 30.3195 36.3735 30.7594 36.7837C34.4431 40.2096 39.142 42.3369 44.145 42.8445C49.1483 43.3562 54.1812 42.2143 58.478 39.5963C58.994 39.2833 59.6623 39.4483 59.9752 39.9643C60.2881 40.4802 60.1232 41.1485 59.6072 41.4614C55.6528 43.8722 51.1114 45.1452 46.4759 45.141Z" fill="#1A237E"/>
<path d="M29.9905 73.8405C29.5464 73.8447 29.1446 73.5698 28.9796 73.1553C28.8147 72.7366 28.9204 72.2629 29.2503 71.9584C33.9195 67.5938 40.0775 65.1661 46.472 65.1619C52.8667 65.1619 59.0207 67.5895 63.698 71.95C64.1379 72.3602 64.159 73.0496 63.7488 73.4895C63.3385 73.9293 62.6491 73.9505 62.2092 73.5402C57.9376 69.5561 52.3126 67.3399 46.472 67.3399C40.627 67.3399 35.006 69.5604 30.7347 73.5487C30.5317 73.739 30.2696 73.8405 29.9905 73.8405Z" fill="#1A237E"/>
<path d="M46.4758 80.3878C43.5999 80.3878 40.9862 77.6176 39.1125 72.5931C37.2262 66.9765 36.3127 61.0763 36.4142 55.1517C36.3127 49.2263 37.2262 43.3263 39.1125 37.7102C40.9819 32.6815 43.5956 29.9155 46.4758 29.9155C49.3561 29.9155 51.9655 32.6858 53.8392 37.7102C55.7297 43.3268 56.6432 49.2271 56.5375 55.1517C56.6433 61.0771 55.7297 66.9771 53.8392 72.5931C51.9655 77.6176 49.3519 80.3878 46.4758 80.3878ZM46.4758 32.0933C42.7456 32.0933 38.5924 41.5628 38.5924 55.1562C38.5924 68.7496 42.7456 78.2191 46.4758 78.2191C50.2061 78.2191 54.3551 68.7496 54.3551 55.1562C54.3593 41.5627 50.2061 32.0933 46.4758 32.0933Z" fill="#1A237E"/>
<path d="M67.6862 56.2386H22.9062C22.6101 56.2471 22.3225 56.1371 22.1111 55.9341C21.8996 55.7269 21.7812 55.4435 21.7812 55.1517C21.7812 54.8556 21.8996 54.5723 22.1111 54.3693C22.3225 54.162 22.6101 54.0521 22.9062 54.0605H67.6862C68.2741 54.0817 68.7393 54.5638 68.7393 55.1517C68.7393 55.7395 68.2741 56.2217 67.6862 56.2386Z" fill="#1A237E"/>
<path d="M17.0271 46.2994C16.6676 46.2994 16.3335 46.1218 16.1305 45.8299C15.2465 44.54 14.1173 43.0131 12.8147 41.2495C7.4053 33.9285 0.00396729 23.9044 0.00396729 17.4081C0.00396729 11.3263 3.25211 5.70505 8.51768 2.66911C13.7833 -0.371801 20.2706 -0.371801 25.5369 2.66911C30.8067 5.70581 34.0506 11.3266 34.0506 17.4081C34.0506 23.9044 26.6493 33.9282 21.2442 41.2495C19.9459 43.0174 18.8124 44.54 17.9284 45.8299H17.9242C17.7212 46.1218 17.3866 46.2994 17.0271 46.2994ZM17.0271 2.56311C8.83061 2.57156 2.19064 9.21163 2.18198 17.4082C2.18198 23.1897 9.63409 33.2765 14.5661 39.9547C15.4458 41.1474 16.2917 42.2892 17.0275 43.3213C17.7677 42.2893 18.6093 41.1474 19.489 39.9547C24.4204 33.2765 31.8731 23.1899 31.8731 17.4082C31.8646 9.21174 25.2237 2.57177 17.0271 2.56311Z" fill="#1A237E"/>
<path d="M17.0271 27.3723C12.9034 27.3723 9.18161 24.8896 7.6041 21.0748C6.02658 17.2642 6.8978 12.8783 9.81186 9.95964C12.7301 7.04562 17.116 6.17014 20.9313 7.74766C24.742 9.3294 27.2246 13.047 27.2246 17.1706C27.2204 22.7999 22.6563 27.3639 17.0271 27.3723ZM17.0271 9.15237C13.7832 9.15237 10.8565 11.1063 9.61719 14.1007C8.3738 17.0993 9.05892 20.5504 11.3555 22.8428C13.6478 25.1393 17.099 25.8245 20.0975 24.5853C23.0919 23.3419 25.0459 20.4193 25.0459 17.1712C25.0417 12.7431 21.4552 9.15659 17.0271 9.15237Z" fill="#1A237E"/>
<path d="M17.0271 51.1035C13.1149 51.1627 9.21553 50.6764 5.44314 49.6529C0.943153 48.2953 0 46.4893 0 45.212C0 41.6721 6.8262 39.9169 13.2167 39.4559C13.8046 39.4263 14.3079 39.8746 14.3502 40.4625C14.3925 41.0504 13.9611 41.5663 13.3732 41.6255C5.55732 42.1923 2.17795 44.2731 2.17795 45.212C2.17795 46.4724 7.4224 48.9296 17.0317 48.9296C26.641 48.9296 31.8812 46.4724 31.8812 45.212C31.8812 44.2604 28.4427 42.1584 20.4997 41.6129C19.8991 41.5706 19.4465 41.0504 19.4888 40.4498C19.5269 39.8535 20.0471 39.4009 20.6477 39.439C27.1271 39.8831 34.0549 41.634 34.0549 45.212C34.0549 46.4893 33.1118 48.2953 28.6118 49.6529V49.6487C24.8392 50.6764 20.9391 51.1626 17.0271 51.1035Z" fill="#1A237E"/>
<path d="M74.0386 64.9632C73.6791 64.9632 73.345 64.7898 73.1419 64.4938C72.2538 63.2038 71.1287 61.677 69.8261 59.9133C64.421 52.5966 57.0154 42.5726 57.0154 36.0763C57.0154 29.9944 60.2594 24.3732 65.5292 21.3329C70.7947 18.2962 77.282 18.2962 82.5484 21.3329C87.8139 24.3739 91.0621 29.9947 91.0621 36.0763C91.0621 42.5726 83.6607 52.5963 78.2557 59.9177C76.9573 61.6855 75.8238 63.2081 74.9399 64.4981H74.9357C74.7327 64.7899 74.3981 64.9632 74.0386 64.9632ZM74.0386 21.2269C65.8421 21.2354 59.2021 27.8755 59.1935 36.072C59.1935 41.8535 66.6456 51.9403 71.5732 58.6185C72.4529 59.8112 73.2989 60.9531 74.0347 61.9851C74.7748 60.9532 75.6206 59.8112 76.4961 58.6185C81.4276 51.9445 88.8802 41.8537 88.8802 36.072H88.8844C88.8718 27.8798 82.2317 21.2399 74.0393 21.2313L74.0386 21.2269Z" fill="#1A237E"/>
<path d="M74.0386 46.0417C69.915 46.0417 66.1932 43.5548 64.6157 39.7442C63.0381 35.9336 63.9094 31.5477 66.8276 28.629C69.7459 25.7108 74.1318 24.8395 77.9428 26.417C81.7534 27.9988 84.2403 31.7164 84.2361 35.8442C84.2319 41.4735 79.6679 46.0375 74.0386 46.0417ZM74.0386 27.8218C70.7947 27.8218 67.868 29.7757 66.6288 32.7743C65.3854 35.7729 66.0705 39.2241 68.3671 41.5164C70.6636 43.8087 74.1148 44.4938 77.1091 43.2547C80.1077 42.0113 82.0617 39.0845 82.0617 35.8406C82.0532 31.4125 78.4668 27.826 74.0386 27.8218Z" fill="#1A237E"/>
<path d="M74.0386 69.7727C70.1264 69.8319 66.227 69.3455 62.4546 68.3221C57.9546 66.9645 57.0115 65.1585 57.0115 63.8812C57.0115 60.3413 63.8377 58.5861 70.2282 58.1251H70.224C70.5242 58.0828 70.8287 58.1631 71.0614 58.3535C71.2982 58.5438 71.442 58.8229 71.4632 59.1232C71.4843 59.4235 71.3828 59.7195 71.1756 59.9395C70.9726 60.1594 70.685 60.2863 70.3804 60.2905C62.5645 60.8573 59.1852 62.9381 59.1852 63.877C59.1852 65.1374 64.4296 67.5946 74.0389 67.5946C83.648 67.5904 88.8927 65.1416 88.8927 63.8812C88.8927 62.9296 85.4542 60.8277 77.5112 60.2821C76.9106 60.2398 76.4581 59.7238 76.5004 59.1232C76.5427 58.5227 77.0587 58.0701 77.6592 58.1082C84.1428 58.5523 91.0708 60.3032 91.0708 63.8812C91.0708 65.1585 90.1277 66.9645 85.6277 68.3221C81.8508 69.3456 77.9507 69.8319 74.0386 69.7727Z" fill="#1A237E"/>
</svg>
