<svg width="80" height="81" viewBox="0 0 80 81" fill="none" xmlns="http://www.w3.org/2000/svg">
<path d="M78.8525 66.5121L63.2665 50.9341C62.5282 50.1919 61.5399 49.7818 60.4853 49.7779H60.4814C60.0009 49.7779 59.5361 49.8639 59.0986 50.024L53.4033 44.3326C60.7275 33.3366 59.5478 18.3126 49.8564 8.62162C44.5087 3.27392 37.3994 0.33252 29.8364 0.33252C22.2734 0.33252 15.1644 3.27782 9.8164 8.62162C-0.792601 19.2386 -1.1956 36.2586 8.6094 47.3676H1.5625C0.69922 47.3676 0 48.0668 0 48.9301V78.7701C0 79.6334 0.69922 80.3326 1.5625 80.3326H33.6095C34.4728 80.3326 35.172 79.6334 35.172 78.7701V56.4421C38.9103 55.7312 42.4142 54.2976 45.535 52.2077L51.2225 57.8952C50.6991 59.2975 50.9998 60.9382 52.1248 62.0632L67.7108 77.6492C68.453 78.3914 69.4413 78.7976 70.496 78.7976C71.5507 78.7976 72.539 78.3914 73.2812 77.6492L78.8476 72.0828C80.3828 70.5516 80.3828 68.0516 78.8515 66.5125L78.8525 66.5121ZM16.5595 15.3601C23.8837 8.03983 35.7975 8.04373 43.1185 15.3601C50.4388 22.6843 50.4388 34.5981 43.1185 41.9151C39.7708 45.2628 35.4662 47.0792 31.0755 47.3643L28.6028 47.3682C24.2122 47.0792 19.9075 45.2627 16.5598 41.919C9.23951 34.5987 9.23921 22.6851 16.5595 15.3601ZM14.4697 50.4931H20.7002V59.9384L14.4697 59.9423V50.4931ZM32.0477 77.2081H3.12971V50.4931H11.3445V61.5051C11.3445 62.3684 12.0437 63.0676 12.907 63.0676H22.2664C23.1297 63.0676 23.8289 62.3684 23.8289 61.5051V50.4931H28.5359C28.9695 50.5205 29.4031 50.5322 29.8406 50.5322C30.2742 50.5322 30.7117 50.5166 31.1453 50.4931H32.0476L32.0437 77.2081H32.0477ZM35.1727 49.8801C38.8993 48.9504 42.4266 47.0363 45.3327 44.1262C53.8718 35.5871 53.8718 21.6922 45.3327 13.1462C36.7897 4.61103 22.8917 4.61103 14.3527 13.1462C5.81361 21.6892 5.81361 35.5872 14.3527 44.1232C15.6222 45.3927 17.0089 46.4709 18.4816 47.3615H13.0089C12.6847 47.0686 12.3605 46.7639 12.0362 46.4436C2.21985 36.6233 2.21985 20.6466 12.0362 10.8306C16.794 6.07276 23.1143 3.45556 29.8452 3.45556C36.5718 3.45556 42.8962 6.07276 47.6542 10.8306C57.4706 20.647 57.4706 36.6236 47.6542 46.4436C44.1933 49.9045 39.912 52.2327 35.1812 53.2483L35.1727 49.8801ZM49.8567 48.6574C50.4387 48.0754 50.9856 47.4738 51.5051 46.8566L56.634 51.9855L53.1848 55.4347L48.0598 50.3097C48.6809 49.7863 49.2786 49.2394 49.8567 48.6574ZM76.6417 69.8724L71.0753 75.4388C70.8722 75.6419 70.63 75.6732 70.5011 75.6732C70.3722 75.6732 70.13 75.642 69.9269 75.4388L54.3409 59.8568C54.0245 59.5404 54.0245 59.0209 54.3409 58.7045L59.9034 53.142C60.1104 52.9389 60.3526 52.9076 60.4815 52.9076C60.6065 52.9076 60.8487 52.9389 61.0557 53.1459L76.6377 68.7239C76.9541 69.0403 76.9542 69.5561 76.6417 69.8724ZM17.5677 36.8294V19.0834C17.5677 18.2202 18.2669 17.5209 19.1302 17.5209C19.9935 17.5209 20.6927 18.2202 20.6927 19.0834V36.8294C20.6927 37.6927 19.9935 38.3919 19.1302 38.3919C18.2669 38.3919 17.5677 37.6927 17.5677 36.8294ZM24.7083 29.8802V19.0832C24.7083 18.2199 25.4075 17.5207 26.2708 17.5207C27.1341 17.5207 27.8333 18.2199 27.8333 19.0832V29.8802C27.8333 30.7435 27.1341 31.4427 26.2708 31.4427C25.4075 31.4427 24.7083 30.7435 24.7083 29.8802ZM24.7083 36.8294V35.7942C24.7083 34.931 25.4075 34.2317 26.2708 34.2317C27.1341 34.2317 27.8333 34.931 27.8333 35.7942V36.8294C27.8333 37.6927 27.1341 38.3919 26.2708 38.3919C25.4075 38.3958 24.7083 37.6927 24.7083 36.8294ZM31.8489 29.8802V19.0832C31.8489 18.2199 32.5481 17.5207 33.4114 17.5207C34.2747 17.5207 34.9739 18.2199 34.9739 19.0832V29.8802C34.9739 30.7435 34.2747 31.4427 33.4114 31.4427C32.5481 31.4427 31.8489 30.7435 31.8489 29.8802ZM31.8489 36.8294V35.7942C31.8489 34.931 32.5481 34.2317 33.4114 34.2317C34.2747 34.2317 34.9739 34.931 34.9739 35.7942V36.8294C34.9739 37.6927 34.2747 38.3919 33.4114 38.3919C32.5481 38.3958 31.8489 37.6927 31.8489 36.8294ZM38.9856 36.8294V19.0834C38.9856 18.2202 39.6848 17.5209 40.5481 17.5209C41.4114 17.5209 42.1106 18.2202 42.1106 19.0834V36.8294C42.1106 37.6927 41.4114 38.3919 40.5481 38.3919C39.6848 38.3958 38.9856 37.6927 38.9856 36.8294Z" fill="#1A237E"/>
</svg>
