<svg width="63" height="81" viewBox="0 0 63 81" fill="none" xmlns="http://www.w3.org/2000/svg">
<path d="M8.57249 22.0894V18.6232C8.57249 18.0397 8.97823 17.5327 9.54692 17.4051L14.5629 16.2731C14.7162 15.8554 14.8888 15.4472 15.0709 15.0518L12.3264 10.7119C12.0133 10.2176 12.0868 9.57669 12.499 9.16216L17.4063 4.25784C17.8184 3.8433 18.4638 3.77315 18.959 4.08246L23.3104 6.82164C23.7193 6.6335 24.1283 6.4645 24.5372 6.31463L25.6714 1.30827C25.8024 0.737482 26.3104 0.33252 26.895 0.33252H33.8407C34.4254 0.33252 34.9333 0.73749 35.0612 1.30509L36.1953 6.31463C36.6075 6.46769 37.0196 6.63669 37.4222 6.82164L41.7736 4.07928C42.2688 3.76678 42.9141 3.84012 43.3263 4.25147L48.2336 9.15579C48.6458 9.57033 48.7192 10.2113 48.4061 10.7055L45.6617 15.0454C45.847 15.444 46.0163 15.8522 46.1697 16.2667L51.1856 17.3987C51.7575 17.5263 52.1601 18.0333 52.1601 18.6168V22.083C52.1601 22.7718 51.601 23.333 50.9077 23.333C50.2176 23.333 49.6554 22.775 49.6554 22.083V19.615L44.9334 18.5499C44.5021 18.4542 44.1506 18.1322 44.0164 17.7113C43.7768 16.9587 43.4733 16.2285 43.1154 15.5397C42.911 15.1475 42.9301 14.6755 43.1698 14.2993L45.7512 10.2145L42.256 6.72282L38.157 9.30257C37.78 9.53853 37.3071 9.56086 36.9142 9.35678C36.2113 8.99326 35.4797 8.69032 34.7417 8.45433C34.32 8.3204 34.0005 7.97283 33.9015 7.53915L32.8408 2.82936H27.8951L26.828 7.54233C26.729 7.976 26.4095 8.32358 25.9846 8.45751C25.2626 8.6871 24.5278 8.99003 23.7993 9.35996C23.4063 9.55767 22.9366 9.53853 22.5629 9.30256L18.4702 6.72608L14.9751 10.2177L17.5565 14.3026C17.7929 14.6788 17.8121 15.1476 17.6108 15.543C17.2562 16.2254 16.9527 16.9556 16.7034 17.7177C16.566 18.1355 16.221 18.4543 15.7897 18.55L11.0709 19.615V22.0863C11.0709 22.7751 10.5118 23.3362 9.81852 23.3362C9.13481 23.3362 8.57249 22.7781 8.57249 22.0894ZM18.6104 22.0894C18.6104 22.7782 19.1695 23.3394 19.8628 23.3394C20.5529 23.3394 21.1152 22.7813 21.1152 22.0894C21.1152 16.9937 25.2653 12.8519 30.3671 12.8519C35.4725 12.8519 39.6224 16.9972 39.6224 22.0894C39.6224 22.7782 40.1815 23.3394 40.8747 23.3394C41.5648 23.3394 42.1271 22.7813 42.1271 22.0894C42.1271 15.6162 36.8523 10.3515 30.3666 10.3515C23.8842 10.3515 18.6095 15.6161 18.6095 22.0894H18.6104ZM0.802534 37.571C0.569304 37.2298 0.521384 36.7961 0.67154 36.4103L5.11244 25.0936C5.30094 24.6152 5.76419 24.2995 6.27858 24.2995H54.4572C54.9716 24.2995 55.4348 24.6152 55.6233 25.0936L60.0642 36.4103C60.2144 36.7961 60.1665 37.2298 59.9332 37.571C59.7 37.9122 59.3134 38.1163 58.8981 38.1163H55.3966V43.8306C55.3966 44.5193 54.8375 45.0805 54.1442 45.0805C53.4541 45.0805 52.8919 44.5225 52.8919 43.8306V38.1163H34.8091C34.2948 38.1163 33.8315 37.8006 33.643 37.3223L31.6142 32.1565V51.1075C31.6142 51.7962 31.0551 52.3574 30.3619 52.3574C29.6718 52.3574 29.1095 51.7994 29.1095 51.1075L29.1159 32.163L27.0903 37.3224C26.9018 37.8008 26.4386 38.1164 25.9242 38.1164H8.86054V53.145C8.86054 53.8338 8.30144 54.3949 7.60819 54.3949C6.91809 54.3949 6.35583 53.8369 6.35583 53.145V38.1164H1.83511C1.42297 38.1164 1.03575 37.9122 0.802534 37.571ZM32.2021 26.8029L35.6654 35.62H57.0647L53.6046 26.8029H32.2021ZM3.67169 35.62H25.071L28.531 26.8029H7.13177L3.67169 35.62ZM62.6334 50.0934L59.5983 47.0641C58.7676 46.2319 57.5887 45.7918 56.1925 45.7918H56.1893C54.2691 45.7918 52.1925 46.624 50.905 47.9092L41.0044 57.7908C40.4741 55.2844 38.2409 53.3967 35.5763 53.3967L14.896 53.3999C10.0206 53.3999 8.29857 56.1582 6.47091 59.079C6.2888 59.3692 6.1035 59.669 5.90861 59.9719L0.196145 68.9131C-0.174457 69.4967 -0.00512958 70.2651 0.579531 70.6383C1.16419 71.0082 1.93739 70.8392 2.30798 70.2556L8.02045 61.3112C8.21853 61.0018 8.41022 60.6957 8.59553 60.3992C10.3495 57.593 11.4102 55.8966 14.8958 55.8966H35.5762C37.2535 55.8966 38.6209 57.2615 38.6209 58.9356C38.6209 59.5127 38.4548 60.0708 38.1481 60.5523C38.1481 60.5555 38.1449 60.5555 38.1449 60.5587C38.0842 60.6543 38.0203 60.7436 37.95 60.8297C37.934 60.8489 37.9212 60.868 37.9053 60.8839C37.3302 61.5695 36.4867 61.9681 35.5793 61.9681H25.9945C25.3044 61.9681 24.7421 62.5261 24.7421 63.2181C24.7421 63.9068 25.3013 64.468 25.9945 64.468H35.5761C37.1671 64.468 38.6464 63.7952 39.691 62.6376C39.6942 62.6345 39.6942 62.6345 39.6974 62.6313L52.6782 49.6754C53.4961 48.8591 54.9401 48.2915 56.1926 48.2915H56.1958C56.6973 48.2915 57.3874 48.3839 57.8315 48.8304L59.9817 50.9764L41.189 69.7331C39.8727 71.0469 38.4031 71.7484 36.5596 71.9461L14.3073 72.3032C13.8888 72.3096 13.499 72.5264 13.2722 72.8772L9.72587 78.4097C9.35207 78.99 9.5246 79.7617 10.1061 80.1348C10.3137 80.2687 10.547 80.3325 10.777 80.3325C11.1891 80.3325 11.5917 80.1284 11.8313 79.7554L15.0134 74.7873L36.649 74.4397C36.6842 74.4397 36.7193 74.4365 36.7545 74.4333C39.1922 74.1878 41.2209 73.2248 42.9525 71.4964L62.6326 51.8597C62.8658 51.627 63 51.3081 63 50.9765C63 50.6449 62.8698 50.3262 62.6334 50.0934Z" fill="#1A237E"/>
</svg>
