<svg width="76" height="77" viewBox="0 0 76 77" fill="none" xmlns="http://www.w3.org/2000/svg">
<path d="M69.5189 18.1235H68.1417C64.5622 18.1266 61.6636 21.0109 61.6575 24.5728V29.6517L61.6605 59.7584C61.6421 60.0392 61.7065 60.3169 61.8507 60.558L67.6448 70.3251C67.8932 70.7432 68.3441 70.9996 68.8318 70.9996H68.8349C69.3226 70.9996 69.7734 70.7432 70.0219 70.3251L75.8068 60.5518C75.8098 60.5457 75.8129 60.5396 75.816 60.5365C75.8313 60.5121 75.8436 60.4846 75.8558 60.4572C75.862 60.4419 75.8712 60.4266 75.8773 60.4114C75.8896 60.387 75.8988 60.3625 75.908 60.3351C75.9141 60.3168 75.9202 60.2984 75.9264 60.2832C75.9325 60.2618 75.9387 60.2374 75.9448 60.216C75.9509 60.1947 75.9571 60.1733 75.9632 60.1489C75.9663 60.1306 75.9693 60.1092 75.9755 60.0909C75.9785 60.0634 75.9847 60.039 75.9877 60.0115C75.9908 59.9932 75.9908 59.9749 75.9908 59.9597C75.9939 59.9322 75.9939 59.9017 75.9939 59.8742V59.8528L76 24.5727C75.9939 21.0138 73.0953 18.1296 69.5189 18.1235ZM64.418 31.0223H67.4485V58.4801L64.4211 58.4832L64.418 31.0223ZM68.8318 66.922L65.4517 61.2296H72.2028L68.8318 66.922ZM73.2395 58.4794L70.209 58.4824V31.0245H73.2395V58.4794ZM73.2395 28.275L64.4183 28.2781V24.5727C64.4214 22.5277 66.0869 20.8734 68.142 20.8703H69.5192C71.5743 20.8734 73.2367 22.5307 73.2398 24.5727L73.2395 28.275ZM56.5661 10.5904H41.0643C40.0337 9.38172 38.6565 8.51801 37.1167 8.11506V4.10752C37.1167 2.30062 35.6444 0.835567 33.8286 0.83252H24.1209C22.3051 0.835572 20.8328 2.29757 20.8297 4.10752V8.11506C19.29 8.521 17.9128 9.38172 16.8853 10.5904H1.38028C1.01528 10.5904 0.662538 10.7339 0.404876 10.9903C0.147229 11.2497 0 11.5976 0 11.9639V75.459C0 75.8222 0.147229 76.1732 0.404876 76.4296C0.662522 76.6891 1.01526 76.8325 1.38028 76.8325H56.5664C56.9314 76.8325 57.2811 76.6891 57.5418 76.4296C57.7995 76.1732 57.9467 75.8223 57.9467 75.459V11.9639C57.9467 11.5976 57.7995 11.2497 57.5418 10.9903C57.2811 10.7339 56.9311 10.5904 56.5661 10.5904ZM17.7801 15.5777C17.7924 13.0139 19.7615 10.8743 22.3289 10.6362C23.0405 10.5752 23.5896 9.97998 23.5896 9.26882V4.10752C23.5926 3.81757 23.8288 3.58254 24.1202 3.57949H33.8279C34.1193 3.5856 34.3524 3.81757 34.3554 4.10752V9.26882C34.3554 9.97998 34.9045 10.5752 35.6161 10.6362C38.1865 10.8743 40.1526 13.0108 40.168 15.5777V16.2644H37.9196C37.5516 16.2644 37.2019 16.4079 36.9442 16.6673C36.6835 16.9237 36.5394 17.2747 36.5394 17.6379V22.729H21.4058V17.6379C21.4058 17.2747 21.2616 16.9237 21.0009 16.6673C20.7433 16.4079 20.3905 16.2644 20.0255 16.2644H17.7803L17.7801 15.5777ZM16.3998 19.0114H18.6451V24.1024C18.6451 24.4657 18.7893 24.8136 19.05 25.0731C19.3076 25.3294 19.6604 25.476 20.0254 25.476H37.9198C38.2848 25.476 38.6375 25.3294 38.8952 25.0731C39.1528 24.8136 39.3001 24.4657 39.3001 24.1024V19.0114H41.5484C41.9165 19.0114 42.2661 18.8679 42.5238 18.6085C42.7845 18.3521 42.9287 18.0011 42.9287 17.6379V17.6318H47.6062V59.1175H38.2637C37.8956 59.1175 37.5459 59.2609 37.2883 59.5204C37.0275 59.7767 36.8834 60.1278 36.8834 60.491V69.7939L10.3421 69.7695L10.4495 17.6315H15.0228V17.6376H15.0197C15.0197 18.0008 15.1639 18.3518 15.4246 18.6082C15.6822 18.8676 16.0348 19.0114 16.3998 19.0114ZM45.6556 61.8645L39.6438 67.8499V61.8645H45.6556ZM55.1858 74.0858H2.75975V13.3379H15.3602C15.2038 13.8415 15.0995 14.3604 15.0535 14.8854H9.06923C8.30854 14.8854 7.69203 15.4989 7.68896 16.2558L7.57548 71.1403H7.57854C7.57548 71.5035 7.7227 71.8546 7.98036 72.1109C8.238 72.3704 8.59074 72.5138 8.95576 72.5169L38.2602 72.5413H38.2694C38.3124 72.5413 38.3553 72.5383 38.3982 72.5352C38.4289 72.5322 38.4565 72.526 38.4872 72.523C38.5025 72.5199 38.5179 72.5199 38.5301 72.5169C38.5639 72.5108 38.5976 72.5016 38.6314 72.4925C38.6406 72.4894 38.6498 72.4894 38.659 72.4864C38.6927 72.4772 38.7264 72.465 38.7571 72.4528C38.7663 72.4497 38.7755 72.4467 38.7847 72.4436C38.8154 72.4314 38.8461 72.4162 38.8737 72.4009C38.8859 72.3948 38.8951 72.3917 38.9074 72.3856C38.935 72.3704 38.9595 72.3551 38.9872 72.3399C38.9994 72.3338 39.0117 72.3246 39.024 72.3185C39.0516 72.3002 39.0761 72.2819 39.1006 72.2636C39.1129 72.2544 39.1221 72.2483 39.1344 72.2391C39.1681 72.2117 39.2019 72.1811 39.2356 72.1476L49.9586 61.471L49.9617 61.4619C50.0046 61.4191 50.0475 61.3734 50.0843 61.3215C50.0935 61.3123 50.0997 61.3001 50.1089 61.2909C50.1426 61.2421 50.1764 61.1902 50.204 61.1383C50.207 61.1353 50.207 61.1322 50.2101 61.1261C50.2377 61.0742 50.2592 61.0224 50.2806 60.9705C50.2837 60.9583 50.2898 60.9491 50.2929 60.9369C50.3113 60.8789 50.3297 60.8209 50.342 60.7599V60.7507V60.7538C50.3512 60.6988 50.3604 60.6408 50.3635 60.5859C50.3635 60.5706 50.3665 60.5523 50.3665 60.5371C50.3665 60.5218 50.3696 60.5065 50.3696 60.4913L50.3665 16.2591C50.3665 15.8959 50.2224 15.5449 49.9617 15.2885C49.704 15.0291 49.3543 14.8856 48.9862 14.8856H42.8977C42.8486 14.3606 42.7444 13.8418 42.5879 13.3381H55.1852L55.1858 74.0858ZM15.0909 34.4285L16.2135 35.6249L21.6027 30.8573H21.6058C22.1732 30.3568 23.0443 30.4087 23.5505 30.9733C24.0566 31.538 24.0075 32.4048 23.44 32.9115L17.0448 38.5703V38.5672C16.4835 39.0647 15.6308 39.0251 15.1186 38.4787L13.0757 36.3025C12.5543 35.75 12.585 34.8801 13.1402 34.3612C13.6984 33.8454 14.5725 33.873 15.0909 34.4285ZM25.3537 34.5017C25.3537 34.1355 25.4979 33.7875 25.7586 33.5311C26.0162 33.2717 26.369 33.1282 26.734 33.1282H43.8612C44.625 33.1282 45.2415 33.7417 45.2415 34.5017C45.2415 35.2587 44.625 35.8752 43.8612 35.8752H26.734C26.369 35.8752 26.0162 35.7287 25.7586 35.4723C25.4979 35.2159 25.3537 34.8649 25.3537 34.5017ZM23.5532 40.8228C23.7955 41.0944 23.9213 41.4515 23.8998 41.8147C23.8783 42.1779 23.7127 42.5198 23.4366 42.7609L17.0414 48.4136H17.0445C16.4832 48.9111 15.6305 48.8714 15.1183 48.3251L13.0754 46.1488C12.554 45.5964 12.5847 44.7265 13.1398 44.2076C13.6981 43.6918 14.5722 43.7192 15.0906 44.2747L16.2163 45.4712L21.6055 40.7066C21.8785 40.4655 22.2374 40.3404 22.6024 40.3617C22.9674 40.3831 23.3109 40.5481 23.5532 40.8228ZM25.3537 44.3511C25.3537 43.9879 25.4979 43.6369 25.7586 43.3805C26.0162 43.1211 26.369 42.9776 26.734 42.9776H43.8612C44.625 42.9776 45.2415 43.5911 45.2415 44.3511C45.2415 45.1111 44.625 45.7246 43.8612 45.7246H26.734C26.369 45.7246 26.0162 45.5811 25.7586 45.3217C25.4979 45.0653 25.3537 44.7143 25.3537 44.3511ZM23.5532 50.6722C23.7955 50.9438 23.9213 51.3009 23.8998 51.6641C23.8783 52.0273 23.7127 52.3692 23.4366 52.6103L17.0445 58.266C16.4832 58.7605 15.6304 58.7208 15.1182 58.1744L13.0754 56.0013C12.554 55.4458 12.5847 54.576 13.1398 54.0571C13.6981 53.5412 14.5722 53.5687 15.0906 54.1242L16.2163 55.3206L21.6055 50.5561C21.8785 50.315 22.2374 50.1929 22.6024 50.2143C22.9674 50.2356 23.3109 50.4005 23.5532 50.6722ZM25.3537 54.1975C25.3537 53.8312 25.4979 53.4832 25.7586 53.2268C26.0162 52.9674 26.369 52.824 26.734 52.824H43.8612C44.625 52.824 45.2415 53.4375 45.2415 54.1974C45.2415 54.9544 44.625 55.5709 43.8612 55.5709H26.734C26.369 55.5709 26.0162 55.4244 25.7586 55.168C25.4979 54.9116 25.3537 54.5607 25.3537 54.1975Z" fill="#1A237E"/>
</svg>
