<svg width="80" height="81" viewBox="0 0 80 81" fill="none" xmlns="http://www.w3.org/2000/svg">
<path d="M78.961 20.2222L74.9542 19.433L73.4233 15.7371L75.7001 12.3421C76.0359 11.8381 75.9696 11.17 75.5439 10.7442L70.0724 5.27064C69.6467 4.8448 68.975 4.77838 68.4751 5.11437L65.0814 7.39202L61.3869 5.86058L60.598 1.85217C60.4809 1.25833 59.9615 0.83252 59.3561 0.83252H51.6196C51.0143 0.83252 50.4949 1.25836 50.3777 1.85217L49.5888 5.86058L45.8944 7.39202L42.5006 5.11437C41.9968 4.77838 41.329 4.8448 40.9033 5.27064L35.4319 10.7442C35.0062 11.17 34.9398 11.842 35.2756 12.3421L37.5524 15.7371L36.0216 19.433L32.0147 20.2222C31.4211 20.3394 30.9954 20.859 30.9954 21.4646V25.3363C30.9954 25.6722 31.1282 25.9926 31.3664 26.2309C31.6047 26.4692 31.9249 26.6021 32.2608 26.6021H42.2312C42.9302 26.6021 43.4965 26.0356 43.4965 25.3363C43.4965 18.7181 48.8819 13.3304 55.4977 13.3304C62.1173 13.3304 67.499 18.718 67.499 25.3363C67.499 26.0356 68.0652 26.6021 68.7643 26.6021H78.7347C79.4337 26.6021 80 26.0356 80 25.3363V21.4646C80 20.859 79.5743 20.3394 78.9807 20.2222L78.961 20.2222ZM77.4536 24.0705H69.9592C69.3148 16.6435 63.0702 10.7984 55.4825 10.7984C47.8949 10.7984 41.6497 16.6431 41.0059 24.0705H33.5115V22.5038L37.1629 21.785C37.5769 21.7029 37.9245 21.4177 38.0885 21.027L40.1388 16.0771C40.299 15.6864 40.256 15.241 40.0217 14.8894L37.9479 11.7951L41.9509 7.79063L45.044 9.86514C45.3955 10.0996 45.8407 10.1464 46.2312 9.98235L51.1793 7.93124C51.5698 7.77105 51.8549 7.42335 51.9369 7.00532L52.6555 3.35246H58.3144L59.033 7.00532C59.115 7.41944 59.4001 7.76715 59.7906 7.93124L64.7387 9.98235C65.1292 10.1425 65.5745 10.0996 65.9259 9.86514L69.019 7.79063L73.022 11.7951L70.9483 14.8894C70.714 15.241 70.6671 15.6864 70.8311 16.0771L72.8814 21.027C73.0416 21.4177 73.3891 21.7029 73.807 21.785L77.4585 22.5038V24.0705H77.4536ZM55.4936 40.495C56.5364 40.495 57.3877 41.3466 57.3877 42.3897C57.3877 43.4329 56.5363 44.2845 55.4936 44.2845C54.4509 44.2845 53.5996 43.4328 53.5996 42.3897C53.5996 41.3466 54.4509 40.495 55.4936 40.495ZM77.2156 62.8143H64.7265C64.1719 62.8143 63.6604 62.9784 63.2269 63.2597C62.7934 62.9784 62.2778 62.8143 61.7272 62.8143H49.2381C48.6835 62.8143 48.1719 62.9784 47.7384 63.2597C47.3049 62.9784 46.7894 62.8143 46.2387 62.8143H33.7496C33.6637 62.8143 33.5817 62.8183 33.4997 62.8261C33.5075 62.744 33.5114 62.662 33.5114 62.576V50.0821C33.5114 48.5585 32.2695 47.3161 30.7464 47.3161H18.2573C18.1714 47.3161 18.0894 47.32 18.0073 47.3278C18.0152 47.2458 18.0191 47.1637 18.0191 47.0778V34.5839C18.0191 33.0603 16.7771 31.8179 15.2541 31.8179H2.76496C1.24191 31.8179 0 33.0603 0 34.5839V47.0778C0 47.6326 0.164022 48.1483 0.445207 48.578C0.164022 49.0117 0 49.5274 0 50.0783V62.5722C0 63.1269 0.164022 63.6387 0.445207 64.0724C0.164022 64.506 0 65.0217 0 65.5726V78.0665C0 79.5901 1.24191 80.8325 2.76496 80.8325H15.2541C15.8087 80.8325 16.3203 80.6684 16.7538 80.3871C17.1872 80.6684 17.7028 80.8325 18.2534 80.8325H30.7425C31.2971 80.8325 31.8087 80.6684 32.2422 80.3871C32.6757 80.6684 33.1912 80.8325 33.7419 80.8325H46.231C46.7856 80.8325 47.2971 80.6684 47.7306 80.3871C48.1641 80.6684 48.6796 80.8325 49.2303 80.8325H61.7194C62.274 80.8325 62.7895 80.6684 63.2191 80.3871C63.6526 80.6684 64.1681 80.8325 64.7187 80.8325H77.2079C78.7309 80.8325 79.9728 79.5901 79.9728 78.0665V65.5726C79.9728 64.049 78.7309 62.8066 77.2079 62.8066L77.2156 62.8143ZM70.0103 65.3459H71.9317V67.8229H70.0103V65.3459ZM54.5218 65.3459H56.4433V67.8229H54.5218V65.3459ZM39.0334 65.3459H40.9549V67.8229H39.0334V65.3459ZM23.545 49.8516H25.4664V52.3286H23.545V49.8516ZM18.261 49.8516H21.0181V53.5943C21.0181 54.2937 21.5844 54.8601 22.2834 54.8601H26.7316C27.4307 54.8601 27.9969 54.2936 27.9969 53.5943V49.8516H30.7541C30.883 49.8516 30.9923 49.961 30.9923 50.0899V62.5838C30.9923 62.7127 30.883 62.8221 30.7541 62.8221H18.265C18.1361 62.8221 18.0267 62.7127 18.0267 62.5838V50.0899C18.0267 49.961 18.1361 49.8516 18.265 49.8516H18.261ZM23.545 65.3459H25.4664V67.8229H23.545V65.3459ZM8.05651 65.3459H9.97797V67.8229H8.05651V65.3459ZM2.77253 62.8143C2.64365 62.8143 2.5343 62.7049 2.5343 62.576V50.0821C2.5343 49.9532 2.64366 49.8438 2.77253 49.8438H5.52969V53.5866C5.52969 54.2859 6.09597 54.8524 6.795 54.8524H11.2432C11.9422 54.8524 12.5085 54.2859 12.5085 53.5866V49.8438H15.2657C15.3945 49.8438 15.5039 49.9532 15.5039 50.0821V62.576C15.5039 62.705 15.3945 62.8143 15.2657 62.8143H2.77253ZM8.05651 49.8474H9.97797V52.3244H8.05651V49.8474ZM8.05651 34.353H9.97797V36.83H8.05651V34.353ZM2.53438 34.5913C2.53438 34.4624 2.64374 34.353 2.77261 34.353H5.52977V38.0958C5.52977 38.7951 6.09605 39.3616 6.79508 39.3616H11.2433C11.9423 39.3616 12.5086 38.7951 12.5086 38.0958V34.353H15.2657C15.3946 34.353 15.504 34.4624 15.504 34.5913V47.0852C15.504 47.2142 15.3946 47.3236 15.2657 47.3236H2.7766C2.64772 47.3236 2.53838 47.2142 2.53838 47.0852V34.5913H2.53438ZM15.2585 78.313H2.76933C2.64045 78.313 2.5311 78.2036 2.5311 78.0747V65.5808C2.5311 65.4518 2.64046 65.3425 2.76933 65.3425H5.52649V69.0852C5.52649 69.7845 6.09277 70.351 6.7918 70.351H11.24C11.939 70.351 12.5053 69.7845 12.5053 69.0852V65.3425H15.2625C15.3913 65.3425 15.5007 65.4518 15.5007 65.5808V78.0747C15.5007 78.2036 15.3913 78.313 15.2625 78.313H15.2585ZM30.7469 78.313H18.2578C18.1289 78.313 18.0195 78.2036 18.0195 78.0747V65.5808C18.0195 65.4518 18.1289 65.3425 18.2578 65.3425H21.0149V69.0852C21.0149 69.7845 21.5812 70.351 22.2802 70.351H26.7284C27.4275 70.351 27.9937 69.7845 27.9937 69.0852V65.3425H30.7509C30.8798 65.3425 30.9891 65.4518 30.9891 65.5808V78.0747C30.9891 78.2036 30.8798 78.313 30.7509 78.313H30.7469ZM46.2353 78.313H33.7462C33.6173 78.313 33.508 78.2036 33.508 78.0747V65.5808C33.508 65.4518 33.6173 65.3425 33.7462 65.3425H36.5034V69.0852C36.5034 69.7845 37.0697 70.351 37.7687 70.351H42.2169C42.9159 70.351 43.4822 69.7845 43.4822 69.0852V65.3425H46.2393C46.3682 65.3425 46.4776 65.4518 46.4776 65.5808V78.0747C46.4776 78.2036 46.3682 78.313 46.2393 78.313H46.2353ZM61.9617 78.0747C61.9617 78.2036 61.8524 78.313 61.7235 78.313H49.2344C49.1055 78.313 48.9962 78.2036 48.9962 78.0747V65.5808C48.9962 65.4518 49.1055 65.3425 49.2344 65.3425H51.9915V69.0852C51.9915 69.7845 52.5578 70.351 53.2569 70.351H57.705C58.4041 70.351 58.9703 69.7845 58.9703 69.0852V65.3425H61.7275C61.8564 65.3425 61.9657 65.4518 61.9657 65.5808V78.0747H61.9617ZM77.4502 78.0747C77.4502 78.2036 77.3408 78.313 77.212 78.313H64.7228C64.5939 78.313 64.4885 78.2036 64.4885 78.0747V65.5808C64.4885 65.4518 64.5979 65.3425 64.7228 65.3425H67.48V69.0852C67.48 69.7845 68.0463 70.351 68.7453 70.351H73.1935C73.8925 70.351 74.4588 69.7845 74.4588 69.0852V65.3425H77.216C77.3448 65.3425 77.4542 65.4518 77.4542 65.5808V78.0747H77.4502ZM78.7155 29.7233H64.7927V27.8949C64.7927 27.1956 64.2264 26.6291 63.5274 26.6291H47.4531C46.754 26.6291 46.1878 27.1956 46.1878 27.8949V29.7233H32.265C31.5659 29.7233 30.9996 30.2898 30.9996 30.9891C30.9996 31.6884 31.5659 32.2549 32.265 32.2549H46.1878V34.0833C46.1878 34.7826 46.754 35.3491 47.4531 35.3491H54.2249V37.4588C52.3308 37.9433 50.8624 39.4943 50.4914 41.436L44.9068 44.6592C44.5162 44.8858 44.2741 45.3038 44.2741 45.7532V52.8401C44.2741 53.2152 44.442 53.5707 44.7271 53.8129L47.953 56.5009C48.1834 56.6923 48.4724 56.7939 48.7614 56.7939C48.9449 56.7939 49.1246 56.7548 49.2964 56.6767C49.7416 56.4696 50.0228 56.0203 50.0228 55.532V48.3512L52.823 46.7337C53.5962 47.2104 54.5101 47.4878 55.4825 47.4878C56.4589 47.4878 57.3688 47.2104 58.1421 46.7337L60.9423 48.3512V55.532C60.9423 56.0242 61.2274 56.4696 61.6687 56.6767C61.8405 56.7548 62.0241 56.7939 62.2037 56.7939C62.4927 56.7939 62.7817 56.6923 63.0121 56.5009L66.238 53.8129C66.527 53.5746 66.691 53.2152 66.691 52.8401V45.7532C66.691 45.3 66.4489 44.8858 66.0583 44.6592L60.4737 41.436C60.1027 39.4982 58.6343 37.9472 56.7402 37.4588V35.3491H63.512C64.2111 35.3491 64.7773 34.7826 64.7773 34.0833V32.2549H78.7001C79.3992 32.2549 79.9654 31.6884 79.9654 30.9891C79.9654 30.2898 79.3992 29.7233 78.7001 29.7233H78.7155ZM48.1325 46.5229C47.742 46.7495 47.4998 47.1675 47.4998 47.6168V52.8285L46.8047 52.2503V46.4878L50.7374 44.2179C50.8233 44.4367 50.9209 44.6477 51.0342 44.8508L48.1365 46.5269L48.1325 46.5229ZM64.1758 52.2503L63.4807 52.8286V47.6169C63.4807 47.1637 63.2385 46.7495 62.848 46.5229L59.9503 44.8468C60.0635 44.6437 60.1612 44.4327 60.2471 44.2139L64.1798 46.4838V52.2464L64.1758 52.2503ZM58.0522 42.3933C58.0522 43.8038 56.9041 44.9562 55.4903 44.9562C54.0765 44.9562 52.9284 43.8077 52.9284 42.3933C52.9284 40.979 54.0765 39.8305 55.4903 39.8305C56.9041 39.8305 58.0522 40.979 58.0522 42.3933ZM62.2661 32.8216H48.7182V29.1608H62.2661V32.8216Z" fill="#1A237E"/>
</svg>
