<svg width="77" height="81" viewBox="0 0 77 81" fill="none" xmlns="http://www.w3.org/2000/svg">
<path d="M77 17.1242C77 15.8953 76.3492 14.8255 75.2551 14.2612L49.0035 0.701202C48.048 0.209625 46.9991 0.209625 46.0471 0.701202L19.7919 14.2612C18.7013 14.8255 18.047 15.8953 18.047 17.1242V28.7452C16.7315 29.164 15.7171 30.2579 15.4229 31.6254H13.7715C12.8715 31.6254 12.1271 32.2797 11.9783 33.1382H5.17908C2.32295 33.1382 0 35.461 0 38.317V75.1536C0 78.0096 2.32295 80.3325 5.17908 80.3325L33.2724 80.3256C36.1285 80.3256 38.4514 78.0027 38.4514 75.1467L38.448 54.9746H75.0404C76.1206 54.9746 76.9998 54.0953 76.9998 53.0152L77 17.1242ZM13.5807 33.4466C13.5807 33.3427 13.6673 33.2562 13.7711 33.2562H16.1529C16.603 33.2562 16.97 32.8892 16.97 32.4392C16.97 31.1964 17.9808 30.1821 19.2271 30.1821C20.4699 30.1821 21.4843 31.1929 21.4843 32.4392C21.4843 32.8892 21.8513 33.2562 22.3014 33.2562H24.6832C24.787 33.2562 24.8736 33.3427 24.8736 33.4466V37.1749C24.8736 37.2787 24.787 37.3653 24.6832 37.3653H13.7716C13.6678 37.3653 13.5812 37.2787 13.5812 37.1749L13.5807 33.4466ZM24.6314 24.2068V22.296H70.4187V24.2068H24.6314ZM26.4628 37.5524H33.2689C33.6878 37.5524 34.0305 37.8951 34.0305 38.314V75.1506C34.0305 75.5695 33.6878 75.9122 33.2689 75.9122L5.17916 75.9087C4.76027 75.9087 4.41754 75.566 4.41754 75.1471V38.3141C4.41754 37.8952 4.76027 37.5525 5.17916 37.5525H11.9853C12.1584 38.3764 12.8923 38.9995 13.7682 38.9995H24.6797C25.5556 38.9961 26.2897 38.3763 26.4628 37.5524ZM36.8177 75.1476C36.8177 77.1035 35.2287 78.6925 33.2727 78.6925H5.17943C3.22347 78.6925 1.63442 77.1035 1.63442 75.1476V38.3146C1.63442 36.3587 3.22347 34.7697 5.17943 34.7697H11.9475V35.9225H5.17943C3.86042 35.9225 2.78726 36.9956 2.78726 38.3146V75.1511C2.78726 76.4701 3.86042 77.5432 5.17943 77.5432H33.2727C34.5917 77.5432 35.6649 76.4701 35.6649 75.1511V38.3146C35.6649 36.9956 34.5917 35.9225 33.2727 35.9225H26.5047V34.7697H33.2727C35.2287 34.7697 36.8177 36.3587 36.8177 38.3146V75.1476ZM33.2727 33.1355H26.5047V25.8415H68.5431V53.3417H64.3334V44.9538C64.3334 44.0538 63.5995 43.3198 62.6994 43.3198H59.3205V34.9319C59.3205 34.0319 58.5866 33.2979 57.6865 33.2979H49.2983C48.3982 33.2979 47.6642 34.0318 47.6642 34.9319V43.3198H44.2854C43.3853 43.3198 42.6513 44.0537 42.6513 44.9538V53.3417H38.4416L38.4485 38.3141C38.4485 35.4581 36.1253 33.1355 33.2727 33.1355ZM49.3015 34.9356H51.4063V37.3865C51.4063 37.8365 51.7733 38.2035 52.2233 38.2035H54.7713C55.2213 38.2035 55.5883 37.8365 55.5883 37.3865V34.9356H57.6897V43.3235H49.3015L49.3015 34.9356ZM53.0368 34.9356H53.9543V36.5696H53.0368V34.9356ZM58.0496 44.9543H58.9671V46.5883H58.0496V44.9543ZM48.027 44.9543H48.9445V46.5883H48.027V44.9543ZM47.21 48.2222H49.758C50.208 48.2222 50.575 47.8553 50.575 47.4052V44.9543H52.6764V53.3422H44.2882V44.9543H46.393V47.4052C46.3965 47.8553 46.76 48.2222 47.21 48.2222ZM54.3138 44.9543H56.4187V47.4052C56.4187 47.8552 56.7857 48.2222 57.2357 48.2222H59.7837C60.2337 48.2222 60.6007 47.8553 60.6007 47.4052V44.9543H62.7055V53.3422H54.3174L54.3138 44.9543ZM75.0406 53.3422H70.1766V25.8419H71.2359C71.686 25.8419 72.0529 25.475 72.0529 25.0249V21.48C72.0529 21.03 71.686 20.6631 71.2359 20.6631L23.8144 20.6665C23.3643 20.6665 22.9974 21.0335 22.9974 21.4835V25.0284C22.9974 25.4784 23.3643 25.8454 23.8144 25.8454H24.8737V31.637C24.8114 31.6301 24.7456 31.6266 24.6833 31.6266H23.0285C22.6823 30.0203 21.3391 28.7914 19.6809 28.5941V17.1255C19.6809 16.5093 19.9959 15.997 20.5394 15.713L46.7946 2.153C47.2724 1.90721 47.7778 1.90721 48.2555 2.153L74.5072 15.713C75.0542 15.9969 75.3657 16.5093 75.3657 17.1255V53.0174C75.3657 53.1974 75.2206 53.3422 75.0406 53.3422ZM47.5252 6.44878C44.4752 6.44878 41.993 8.9309 41.993 11.9807C41.993 15.0306 44.4752 17.5127 47.5252 17.5127C50.5751 17.5127 53.0573 15.0306 53.0573 11.9807C53.0573 8.9309 50.5751 6.44878 47.5252 6.44878ZM47.5252 15.8852C45.3753 15.8852 43.6236 14.1335 43.6236 11.9838C43.6236 9.83413 45.3719 8.08243 47.5252 8.08243C49.675 8.08243 51.4267 9.83413 51.4267 11.9838C51.4232 14.1336 49.6749 15.8852 47.5252 15.8852ZM15.177 65.7971C15.4955 66.1156 15.4955 66.6314 15.177 66.9499L10.68 71.4467C10.5207 71.606 10.313 71.6856 10.1018 71.6856C9.89412 71.6856 9.68293 71.606 9.52369 71.4467L7.27341 69.1965C6.95491 68.8781 6.95491 68.3623 7.27341 68.0438C7.59191 67.7253 8.10774 67.7253 8.42625 68.0438L10.0983 69.7158L14.0207 65.7936C14.3427 65.4785 14.8585 65.4786 15.177 65.7971ZM26.3863 70.204C26.3863 70.654 26.0193 71.021 25.5693 71.021H18.3166C17.8665 71.021 17.4995 70.654 17.4995 70.204C17.4995 69.754 17.8665 69.387 18.3166 69.387H25.5693C26.0193 69.387 26.3863 69.754 26.3863 70.204ZM31.413 67.0434C31.413 67.4934 31.0461 67.8604 30.596 67.8604H18.317C17.8669 67.8604 17.5 67.4934 17.5 67.0434C17.5 66.5934 17.8669 66.2264 18.317 66.2264H30.596C31.0495 66.2264 31.413 66.5934 31.413 67.0434ZM15.1769 43.4549C15.4954 43.7734 15.4954 44.2892 15.1769 44.6077L10.6799 49.1045C10.5206 49.2638 10.3129 49.3434 10.1017 49.3434C9.89403 49.3434 9.68285 49.2638 9.52361 49.1045L7.27332 46.8543C6.95482 46.5359 6.95482 46.0201 7.27332 45.7015C7.59183 45.3831 8.10765 45.3831 8.42616 45.7015L10.0983 47.3736L14.0206 43.4514C14.3426 43.1363 14.8584 43.1364 15.1769 43.4549ZM18.3169 43.8842H30.5959C31.0459 43.8842 31.4129 44.2511 31.4129 44.7011C31.4129 45.1512 31.046 45.5181 30.5959 45.5181H18.3169C17.8668 45.5181 17.4999 45.1512 17.4999 44.7011C17.4999 44.2511 17.8668 43.8842 18.3169 43.8842ZM17.4999 47.8618C17.4999 47.4118 17.8668 47.0448 18.3169 47.0448H25.5696C26.0197 47.0448 26.3866 47.4117 26.3866 47.8618C26.3866 48.3118 26.0197 48.6788 25.5696 48.6788H18.3169C17.8668 48.6788 17.4999 48.3153 17.4999 47.8618ZM15.1769 54.6261C15.4954 54.9446 15.4954 55.4604 15.1769 55.7789L10.6799 60.2758C10.5276 60.4281 10.3199 60.5146 10.1018 60.5146C9.88366 60.5146 9.67594 60.4281 9.52362 60.2758L7.27334 58.0256C6.95484 57.7071 6.95484 57.1913 7.27334 56.8728C7.59184 56.5543 8.10767 56.5543 8.42618 56.8728L10.0983 58.5448L14.0206 54.6226C14.3426 54.3075 14.8584 54.3076 15.1769 54.6261ZM17.4999 59.033C17.4999 58.583 17.8668 58.216 18.3169 58.216H25.5696C26.0197 58.216 26.3866 58.583 26.3866 59.033C26.3866 59.483 26.0197 59.85 25.5696 59.85H18.3169C17.8668 59.85 17.4999 59.4865 17.4999 59.033ZM31.4131 55.8724C31.4131 56.3224 31.0462 56.6894 30.5961 56.6894H18.3171C17.8671 56.6894 17.5001 56.3224 17.5001 55.8724C17.5001 55.4224 17.867 55.0554 18.3171 55.0554H30.5961C31.0496 55.0554 31.4131 55.4224 31.4131 55.8724Z" fill="#1A237E"/>
</svg>
