<svg width="76" height="81" viewBox="0 0 76 81" fill="none" xmlns="http://www.w3.org/2000/svg">
<path d="M34.7899 25.7344C35.967 25.7344 37.1177 25.3834 38.0965 24.7259C39.0752 24.0684 39.838 23.1339 40.2885 22.0405C40.739 20.9471 40.8568 19.7439 40.6272 18.5831C40.3976 17.4224 39.8307 16.3562 38.9983 15.5193C38.166 14.6825 37.1055 14.1126 35.951 13.8817C34.7965 13.6508 33.5998 13.7693 32.5122 14.2222C31.4247 14.6751 30.4952 15.442 29.8412 16.4261C29.1872 17.4101 28.8382 18.567 28.8382 19.7505C28.84 21.337 29.4677 22.8579 30.5834 23.9797C31.6992 25.1015 33.2119 25.7325 34.7899 25.7344ZM34.7899 15.9889C35.5299 15.9889 36.2532 16.2095 36.8685 16.6228C37.4838 17.0361 37.9633 17.6236 38.2465 18.311C38.5297 18.9984 38.6038 19.7547 38.4594 20.4844C38.3151 21.2141 37.9587 21.8844 37.4355 22.4104C36.9122 22.9365 36.2456 23.2948 35.5198 23.4399C34.794 23.5851 34.0417 23.5106 33.3581 23.2259C32.6744 22.9412 32.0901 22.459 31.6789 21.8404C31.2678 21.2218 31.0484 20.4945 31.0484 19.7505C31.0496 18.7532 31.4441 17.7971 32.1455 17.0919C32.8469 16.3867 33.7979 15.99 34.7899 15.9889ZM60.4745 58.2331C59.0994 58.2331 57.7552 58.6431 56.6119 59.4111C55.4685 60.1792 54.5774 61.2709 54.0512 62.5482C53.525 63.8254 53.3873 65.2309 53.6556 66.5868C53.9238 67.9428 54.586 69.1883 55.5583 70.1658C56.5306 71.1434 57.7695 71.8092 59.1181 72.0789C60.4668 72.3486 61.8647 72.2102 63.1351 71.6811C64.4055 71.152 65.4913 70.2561 66.2553 69.1066C67.0192 67.9571 67.427 66.6056 67.427 65.2231C67.4251 63.3699 66.692 61.593 65.3886 60.2825C64.0851 58.972 62.3178 58.235 60.4745 58.2331ZM60.4745 69.991C59.5365 69.991 58.6197 69.7114 57.8398 69.1875C57.06 68.6636 56.4521 67.9189 56.0932 67.0477C55.7343 66.1765 55.6403 65.2178 55.8233 64.293C56.0063 63.3681 56.458 62.5185 57.1212 61.8517C57.7844 61.1849 58.6294 60.7309 59.5493 60.5469C60.4692 60.3629 61.4227 60.4573 62.2893 60.8182C63.1558 61.1791 63.8964 61.7902 64.4175 62.5743C64.9386 63.3583 65.2167 64.2801 65.2167 65.2231C65.2146 66.4868 64.7142 67.698 63.8253 68.5913C62.9363 69.4845 61.7313 69.9869 60.4745 69.9884V69.991ZM75.0434 62.1254L72.2214 61.7343C71.9775 60.9014 71.6462 60.0969 71.233 59.3344L72.9543 57.0518C73.1155 56.8378 73.1942 56.5724 73.1758 56.3046C73.1575 56.0367 73.0433 55.7847 72.8544 55.5949L70.0483 52.7737C69.8596 52.5838 69.6089 52.469 69.3425 52.4505C69.0761 52.4321 68.8121 52.5112 68.5993 52.6732L66.328 54.4039C65.5698 53.9882 64.7696 53.6551 63.941 53.4101L63.8694 52.891C63.8694 52.8635 63.8694 52.8368 63.8694 52.8083V26.577L67.9221 28.9227C68.0899 29.0202 68.2803 29.0715 68.4741 29.0716C68.6679 29.0717 68.8583 29.0206 69.0262 28.9233C69.1941 28.8261 69.3337 28.6861 69.4308 28.5175C69.528 28.3489 69.5793 28.1576 69.5797 27.9628V21.4989C69.5797 21.3038 69.5286 21.1122 69.4317 20.9432C69.3347 20.7743 69.1952 20.6339 69.0272 20.5363L35.3433 0.981239C35.1753 0.883808 34.9847 0.83252 34.7907 0.83252C34.5968 0.83252 34.4062 0.883808 34.2382 0.981239L0.554325 20.5363C0.386326 20.6339 0.246829 20.7743 0.149841 20.9432C0.0528519 21.1122 0.00178531 21.3038 0.00176841 21.4989V27.9628C0.00233832 28.1574 0.0537256 28.3484 0.150788 28.5167C0.247851 28.6851 0.387185 28.8248 0.554848 28.922C0.722512 29.0192 0.912625 29.0705 1.10616 29.0706C1.2997 29.0707 1.48988 29.0197 1.65767 28.9227L5.70239 26.5752V66.4542H1.10511C0.959955 66.4541 0.816199 66.4828 0.682068 66.5386C0.547937 66.5944 0.426064 66.6762 0.323421 66.7794C0.220779 66.8826 0.139381 67.0051 0.0838851 67.14C0.0283891 67.2748 -0.000115912 67.4194 3.54238e-07 67.5653V72.2621C3.54238e-07 72.5568 0.116432 72.8394 0.323681 73.0477C0.53093 73.2561 0.812019 73.3732 1.10511 73.3732H48.007L47.9929 73.3918C47.8317 73.6058 47.753 73.8711 47.7712 74.1389C47.7894 74.4066 47.9033 74.6587 48.0919 74.8487L50.9007 77.6726C51.0895 77.8624 51.3402 77.977 51.6066 77.9953C51.873 78.0136 52.1369 77.9343 52.3497 77.7722L54.6209 76.0415C55.379 76.4578 56.1793 76.7912 57.008 77.0362L57.3961 79.8725C57.4325 80.1381 57.5632 80.3815 57.764 80.5579C57.9647 80.7343 58.2222 80.8318 58.4888 80.8325H62.461C62.728 80.8324 62.986 80.7352 63.1872 80.5587C63.3884 80.3822 63.5192 80.1385 63.5555 79.8725L63.9445 77.0353C64.7731 76.7903 65.5733 76.4572 66.3316 76.0415L68.6028 77.7722C68.8156 77.9342 69.0795 78.0133 69.3458 77.995C69.6122 77.9767 69.8629 77.8622 70.0518 77.6726L72.8606 74.8487C73.0495 74.6589 73.1637 74.4069 73.182 74.1391C73.2004 73.8713 73.1217 73.6058 72.9605 73.3918L71.2356 71.1083C71.6488 70.3458 71.9801 69.5413 72.224 68.7084L75.0461 68.3182C75.3106 68.2814 75.5529 68.1497 75.7283 67.9472C75.9036 67.7448 76.0002 67.4853 76 67.2169V63.2259C76 62.9571 75.9031 62.6974 75.7272 62.4951C75.5513 62.2927 75.3083 62.1614 75.0434 62.1254ZM2.21023 22.1398L34.7899 3.22829L67.3695 22.1398V26.0384L35.3424 7.44685C35.1744 7.34942 34.9838 7.29813 34.7899 7.29813C34.5959 7.29813 34.4053 7.34942 34.2373 7.44685L2.21023 26.0384V22.1398ZM7.91261 25.2935L34.789 9.69213L61.676 25.2988C61.6703 25.3425 61.6674 25.3864 61.6671 25.4304V49.6138H59.2801V28.4961C59.2801 28.2014 59.1636 27.9188 58.9564 27.7104C58.7491 27.5021 58.468 27.385 58.175 27.385H11.4021C11.109 27.385 10.8279 27.5021 10.6207 27.7104C10.4134 27.9188 10.297 28.2014 10.297 28.4961V66.4507H7.90996L7.91261 25.2935ZM47.9902 57.0545L49.7116 59.338C49.2982 60.1003 48.9668 60.9049 48.7231 61.7379L45.9011 62.129C45.6366 62.1655 45.3942 62.2971 45.2186 62.4994C45.0431 62.7016 44.9464 62.961 44.9463 63.2294V66.4578H35.895V51.5328H39.159V58.3442C39.1592 58.5639 39.2241 58.7787 39.3456 58.9613C39.4671 59.1439 39.6397 59.2862 39.8416 59.3702C40.0435 59.4542 40.2657 59.4761 40.48 59.4332C40.6943 59.3903 40.8912 59.2845 41.0457 59.1291L43.3152 56.8474L45.5855 59.1264C45.688 59.2299 45.8098 59.3119 45.9439 59.3679C46.078 59.4239 46.2218 59.4527 46.367 59.4526C46.5124 59.4516 46.6561 59.4214 46.7896 59.3637C46.9916 59.2798 47.1642 59.1376 47.2857 58.955C47.4072 58.7724 47.4721 58.5577 47.4721 58.338V51.5293H50.7362V52.9355L48.0919 55.5976C47.9029 55.7872 47.7885 56.0391 47.7698 56.3069C47.7511 56.5747 47.8294 56.8402 47.9902 57.0545ZM32.844 34.3893H36.734V38.5154L35.5696 37.3448C35.4671 37.2413 35.3453 37.1593 35.2112 37.1033C35.0771 37.0473 34.9333 37.0185 34.7881 37.0185C34.6429 37.0185 34.4991 37.0473 34.365 37.1033C34.2309 37.1593 34.1091 37.2413 34.0066 37.3448L32.8422 38.5154L32.844 34.3893ZM31.3154 42.2246C31.5173 42.3087 31.7395 42.3306 31.9538 42.2878C32.1681 42.2449 32.365 42.1391 32.5195 41.9837L34.7899 39.7011L37.0593 41.9837C37.2139 42.1392 37.4108 42.245 37.6252 42.2879C37.8396 42.3308 38.0618 42.3088 38.2638 42.2247C38.4658 42.1406 38.6384 41.9981 38.7598 41.8154C38.8812 41.6326 38.946 41.4178 38.946 41.198V34.3893H42.21V49.3107H27.3697V34.3893H30.6337V41.198C30.6338 41.4177 30.6986 41.6324 30.8199 41.8151C30.9412 41.9978 31.1136 42.1403 31.3154 42.2246ZM41.3693 51.5328H45.2593V55.6589L44.1002 54.4874C43.8929 54.2792 43.6118 54.1623 43.3187 54.1623C43.0256 54.1623 42.7445 54.2792 42.5372 54.4874L41.3728 55.6589L41.3693 51.5328ZM28.2105 51.5328V55.6589L27.0452 54.4874C26.9427 54.3842 26.8209 54.3024 26.6869 54.2465C26.5529 54.1907 26.4092 54.162 26.2641 54.162C26.1191 54.162 25.9754 54.1907 25.8414 54.2465C25.7074 54.3024 25.5856 54.3842 25.483 54.4874L24.3178 55.6589V51.5328H28.2105ZM22.7936 59.3673C22.9955 59.4516 23.2177 59.4737 23.4321 59.4308C23.6465 59.3879 23.8434 59.282 23.9978 59.1264L26.2681 56.8447L28.5376 59.1264C28.6401 59.2299 28.7618 59.3119 28.896 59.3679C29.0301 59.4239 29.1739 59.4527 29.3191 59.4526C29.4645 59.4516 29.6081 59.4214 29.7417 59.3637C29.9436 59.2798 30.1163 59.1376 30.2378 58.955C30.3593 58.7724 30.4242 58.5577 30.4242 58.338V51.5293H33.6883V66.4542H18.8435V51.5328H22.1076V58.3442C22.1084 58.5638 22.1741 58.7783 22.2962 58.9604C22.4183 59.1425 22.5914 59.2841 22.7936 59.3673ZM51.8449 49.3107H44.4203V33.2782C44.4204 33.1322 44.3919 32.9877 44.3364 32.8529C44.2809 32.718 44.1995 32.5955 44.0968 32.4923C43.9942 32.3891 43.8723 32.3072 43.7382 32.2514C43.6041 32.1956 43.4603 32.167 43.3152 32.1671H26.2646C26.1194 32.167 25.9757 32.1956 25.8415 32.2514C25.7074 32.3072 25.5855 32.3891 25.4829 32.4923C25.3802 32.5955 25.2988 32.718 25.2433 32.8529C25.1878 32.9877 25.1593 33.1322 25.1595 33.2782V49.3107H17.7384C17.4453 49.3107 17.1642 49.4277 16.957 49.6361C16.7497 49.8445 16.6333 50.1271 16.6333 50.4217V66.4542H12.5072V29.6072H57.0725V52.8066C57.0725 52.8341 57.0725 52.8617 57.0725 52.8892L57.0018 53.4083C56.1733 53.6535 55.3731 53.9867 54.6147 54.4021L52.9403 53.1266V50.4217C52.9403 50.1281 52.8247 49.8465 52.6188 49.6383C52.4128 49.4301 52.1333 49.3123 51.8413 49.3107H51.8449ZM2.21023 71.151V68.6764H48.4181C48.4305 68.6764 48.4429 68.6764 48.4553 68.6764L48.7258 68.7137C48.969 69.5469 49.3003 70.3515 49.7142 71.1137L49.6824 71.1563L2.21023 71.151ZM73.7898 66.2551L71.1905 66.6107C70.968 66.6414 70.7601 66.7396 70.5946 66.8923C70.429 67.0449 70.3137 67.2446 70.264 67.4649C70.0133 68.5741 69.5768 69.6324 68.9732 70.5946C68.8546 70.7858 68.7966 71.0088 68.807 71.2339C68.8174 71.4591 68.8958 71.6757 69.0316 71.855L70.6168 73.9589L69.1704 75.4131L67.0778 73.8185C66.8987 73.682 66.6825 73.6037 66.458 73.594C66.2336 73.5843 66.0115 73.6437 65.8215 73.7643C64.865 74.3713 63.8126 74.8099 62.7095 75.0611C62.4903 75.111 62.2915 75.2269 62.1395 75.3934C61.9876 75.5598 61.8897 75.7689 61.859 75.9926L61.4974 78.6104H59.4516L59.0935 75.9971C59.063 75.7734 58.9652 75.5643 58.8134 75.3979C58.6616 75.2315 58.463 75.1155 58.2439 75.0656C57.1409 74.8137 56.0885 74.3748 55.1319 73.7678C54.9417 73.6473 54.7195 73.588 54.4949 73.5977C54.2703 73.6073 54.054 73.6856 53.8747 73.822L51.783 75.4167L50.3357 73.9625L51.9218 71.855C52.0575 71.675 52.1354 71.4576 52.145 71.2319C52.1547 71.0062 52.0956 70.7829 51.9757 70.5919C51.3719 69.6303 50.9357 68.5722 50.6858 67.4631C50.6356 67.2431 50.52 67.0437 50.3543 66.8915C50.1887 66.7392 49.9808 66.6412 49.7584 66.6107L47.1592 66.2551V64.1947L49.7584 63.8347C49.9812 63.804 50.1893 63.7056 50.355 63.5529C50.5207 63.4001 50.6361 63.2001 50.6858 62.9796C50.9357 61.8705 51.3719 60.8124 51.9757 59.8508C52.0956 59.6598 52.1547 59.4365 52.145 59.2108C52.1354 58.9851 52.0575 58.7678 51.9218 58.5878L50.3357 56.4838L51.783 55.0296L53.8747 56.6234C54.0539 56.7599 54.2702 56.8384 54.4948 56.8482C54.7194 56.858 54.9416 56.7988 55.1319 56.6785C56.0883 56.0714 57.1408 55.6328 58.2439 55.3816C58.463 55.3314 58.6616 55.2152 58.8134 55.0486C58.9652 54.8821 59.0629 54.673 59.0935 54.4492L59.4516 51.8359H61.4974L61.8554 54.4492C61.8862 54.673 61.9841 54.882 62.136 55.0485C62.288 55.2149 62.4868 55.3308 62.7059 55.3807C63.809 55.6326 64.8613 56.0715 65.8179 56.6785C66.008 56.7989 66.2302 56.8581 66.4546 56.8483C66.6791 56.8384 66.8953 56.76 67.0742 56.6234L69.1669 55.0296L70.6132 56.4838L69.0316 58.5869C68.8958 58.767 68.8178 58.9844 68.808 59.2103C68.7982 59.4361 68.8571 59.6595 68.9768 59.8508C69.5804 60.8127 70.0168 61.8707 70.2676 62.9796C70.3171 63.2 70.4323 63.4 70.5979 63.5528C70.7635 63.7056 70.9714 63.8039 71.1941 63.8347L73.7933 64.1947L73.7898 66.2551Z" fill="#1A237E"/>
</svg>
