<svg width="75" height="38" viewBox="0 0 75 38" fill="none" xmlns="http://www.w3.org/2000/svg">
<rect width="74.1629" height="37.9988" rx="8" fill="#171717"/>
<path fill-rule="evenodd" clip-rule="evenodd" d="M31.5808 33.9988H20.8107C11.8995 33.9988 4 28.7871 4 19.0839C4 8.10994 12.0675 4 21.6975 4H31.5808V18.0196H24.9915V10.0996H21.106C15.5308 10.0996 10.8424 12.8536 10.8424 18.7396C10.8424 25.5616 15.4468 27.892 21.5704 27.892H31.5808V33.9988Z" fill="white"/>
<path fill-rule="evenodd" clip-rule="evenodd" d="M42.5833 4H53.3533C62.2657 4 70.1629 9.21155 70.1629 18.9147C70.1629 29.8899 62.0953 33.9988 52.4653 33.9988H42.5821V19.9791H49.1701V27.8992H53.0556C58.6308 27.8992 63.3193 25.1451 63.3193 19.2591C63.3193 12.4371 58.7161 10.1068 52.5913 10.1068H42.5808L42.5833 4Z" fill="white"/>
</svg>
