<svg xmlns="http://www.w3.org/2000/svg" viewBox="0 0 364.676 289.997">
  <defs>
    <style>
      .cls-1, .cls-10, .cls-11, .cls-12, .cls-13, .cls-8 {
        fill: none;
      }

      .cls-1, .cls-10, .cls-11, .cls-12, .cls-13, .cls-2, .cls-3, .cls-5, .cls-6, .cls-7, .cls-8 {
        stroke: #26263a;
      }

      .cls-1, .cls-11, .cls-12, .cls-13, .cls-2, .cls-5, .cls-7 {
        stroke-linecap: round;
        stroke-linejoin: round;
      }

      .cls-1, .cls-10, .cls-11, .cls-12, .cls-13, .cls-2, .cls-3, .cls-5, .cls-6, .cls-7 {
        stroke-miterlimit: 2.613;
      }

      .cls-1, .cls-3, .cls-5, .cls-6 {
        stroke-width: 2px;
      }

      .cls-1, .cls-10, .cls-11, .cls-12, .cls-14, .cls-15, .cls-24, .cls-25, .cls-26, .cls-27, .cls-28, .cls-3, .cls-30, .cls-31, .cls-32, .cls-33, .cls-35, .cls-4, .cls-5, .cls-7, .cls-9 {
        fill-rule: evenodd;
      }

      .cls-2, .cls-4, .cls-5, .cls-6, .cls-9 {
        fill: #26263a;
      }

      .cls-17, .cls-3, .cls-7 {
        fill: #f3f3ff;
      }

      .cls-10, .cls-8 {
        stroke-width: 0.216px;
      }

      .cls-9 {
        opacity: 0.29;
      }

      .cls-11, .cls-13 {
        stroke-dasharray: 2 3;
      }

      .cls-14 {
        fill: #fdd6b7;
      }

      .cls-15 {
        fill: #fdcc98;
      }

      .cls-16 {
        fill: #e43626;
        font-size: 8px;
        font-family: SegoePrint, Segoe Print;
      }

      .cls-17 {
        stroke: #707070;
      }

      .cls-18, .cls-24 {
        fill: #8b8689;
      }

      .cls-19, .cls-25 {
        fill: #eba9a1;
      }

      .cls-20, .cls-26 {
        fill: #83d1f2;
      }

      .cls-21, .cls-27 {
        fill: #c9dc55;
      }

      .cls-22, .cls-28 {
        fill: #f5bf5b;
      }

      .cls-23 {
        fill: #c2c1c2;
      }

      .cls-29, .cls-32 {
        fill: #fff;
      }

      .cls-30 {
        fill: #8f9e39;
      }

      .cls-31 {
        fill: #e2a33a;
      }

      .cls-34 {
        fill: #f7f8f9;
      }

      .cls-35, .cls-36 {
        fill: #0c3553;
      }

      .cls-37 {
        font-size: 4px;
        font-family: ArialMT, Arial;
      }
    </style>
  </defs>
  <g id="Group_4478" data-name="Group 4478" transform="translate(2801.377 -3783.9)">
    <path id="Path_11418" data-name="Path 11418" class="cls-1" d="M526.318,4290.1c-8.379,10.674-14.184,13.425-30.018,12.508" transform="translate(-3250.669 -325.978)"/>
    <ellipse id="Ellipse_163" data-name="Ellipse 163" class="cls-2" cx="1.781" cy="1.768" rx="1.781" ry="1.768" transform="translate(-2726.132 3962.354)"/>
    <path id="Path_11419" data-name="Path 11419" class="cls-3" d="M448.412,4342.585c4.882,4.846,31.14,4.846,36.022,0s4.882-39.555,0-44.4-31.14-4.846-36.022,0S443.53,4337.739,448.412,4342.585Z" transform="translate(-3233.128 -327.514)"/>
    <path id="Path_11420" data-name="Path 11420" class="cls-1" d="M485.9,4397.724a153.41,153.41,0,0,0,0-24.624" transform="translate(-3247.13 -354.624)"/>
    <path id="Path_11421" data-name="Path 11421" class="cls-4" d="M484.937,4378.89a30.676,30.676,0,0,0-2.837-5.7c.792-.065,1.649-.131,2.441-.131.858-.065,1.715-.2,2.573-.262C485.926,4374.764,485.861,4376.729,484.937,4378.89Z" transform="translate(-3245.837 -354.52)"/>
    <path id="Path_11422" data-name="Path 11422" class="cls-5" d="M485.9,4402.715c.99-.72,6.4-.72,7.389,0,.99.655.99,4.388,0,5.042H485.9Z" transform="translate(-3247.13 -364.658)"/>
    <path id="Path_11423" data-name="Path 11423" class="cls-1" d="M469.3,4397.724a153.414,153.414,0,0,0,0-24.624" transform="translate(-3241.482 -354.624)"/>
    <path id="Path_11424" data-name="Path 11424" class="cls-4" d="M468.335,4378.89c.792-2.1.924-3.8,2.045-5.7-.792-.065-1.583-.131-2.441-.131-.858-.065-1.781-.2-2.639-.262A40.37,40.37,0,0,1,468.335,4378.89Z" transform="translate(-3240.121 -354.52)"/>
    <path id="Path_11425" data-name="Path 11425" class="cls-5" d="M469.3,4402.715c.99-.72,6.4-.72,7.455,0,.99.655.99,4.388,0,5.042H469.3Z" transform="translate(-3241.482 -364.658)"/>
    <path id="Path_11426" data-name="Path 11426" class="cls-3" d="M427.439,4228.881c3.5-7.466,33.185-18.205,40.772-14.734,7.521,3.471,18.341,32.94,14.844,40.471-3.5,7.466-33.185,18.206-40.772,14.735S423.876,4236.412,427.439,4228.881Z" transform="translate(-3227 -299.533)"/>
    <path id="Path_11427" data-name="Path 11427" class="cls-5" d="M427.439,4228.881c3.5-7.466,33.185-18.205,40.772-14.734,7.521,3.471,1.847,17.681-18.539,25.016,5.938,16.176.132,33.661-7.389,30.19C434.7,4265.881,423.876,4236.412,427.439,4228.881Z" transform="translate(-3227 -299.533)"/>
    <ellipse id="Ellipse_164" data-name="Ellipse 164" class="cls-6" cx="1.056" cy="1.048" rx="1.056" ry="1.048" transform="translate(-2758.327 3938.124)"/>
    <path id="Path_11428" data-name="Path 11428" class="cls-1" d="M505.88,4259.5c-1.847,2.227-2.969,7.2-11.479,6.156" transform="translate(-3250.022 -315.418)"/>
    <path id="Path_11429" data-name="Path 11429" class="cls-1" d="M479.612,4287c2.177,23.576-3.167,20.563-14.712,13.293" transform="translate(-3239.984 -324.908)"/>
    <ellipse id="Ellipse_165" data-name="Ellipse 165" class="cls-6" cx="1.781" cy="1.768" rx="1.781" ry="1.768" transform="translate(-2762.154 3960.324)"/>
    <path id="Path_11430" data-name="Path 11430" class="cls-7" d="M546.693,4259.9c.66-.524,27.775-.589,28.633.262s-2.639,32.416-3.365,33.006-27.511-4.715-28.1-5.436S545.968,4260.486,546.693,4259.9Z" transform="translate(-3266.822 -315.421)"/>
    <path id="Path_11534" data-name="Path 11534" class="cls-8" d="M0,0,3.364,0l0,3.34L0,3.34Z" transform="translate(-2715.14 3958.631) rotate(-172.681)"/>
    <path id="Path_11432" data-name="Path 11432" class="cls-9" d="M559.694,4277.7l18.143,2.03-.594,3.339-18.143-2.03Z" transform="translate(-3272.037 -321.699)"/>
    <path id="Path_11433" data-name="Path 11433" class="cls-10" d="M550.1,4283.5l3.365.393-.462,3.34-3.3-.458Z" transform="translate(-3268.838 -323.7)"/>
    <path id="Path_11434" data-name="Path 11434" class="cls-9" d="M558.694,4285l17.945,2.03-.594,3.274-17.945-2.03Z" transform="translate(-3271.697 -324.218)"/>
    <path id="Path_11435" data-name="Path 11435" class="cls-10" d="M549.162,4290.7l3.365.458-.462,3.274-3.365-.393Z" transform="translate(-3268.498 -326.186)"/>
    <path id="Path_11436" data-name="Path 11436" class="cls-9" d="M557.594,4292.2l17.879,2.227-.594,3.34L557,4295.54Z" transform="translate(-3271.323 -326.703)"/>
    <path id="Path_11437" data-name="Path 11437" class="cls-11" d="M745.823,4349.3c-7.125-18.533-73.957-44.6-95.135-44.6A47.763,47.763,0,0,0,640,4305.878" transform="translate(-3299.564 -331.017)"/>
    <path id="Path_11438" data-name="Path 11438" class="cls-12" d="M643.4,4306.24a11.686,11.686,0,0,0-1.583-.721,15.826,15.826,0,0,0-1.715-.327,10.517,10.517,0,0,0,1.385-.982,11.206,11.206,0,0,0,1.188-1.31" transform="translate(-3299.598 -330.395)"/>
    <path id="Path_11439" data-name="Path 11439" class="cls-12" d="M800.767,4368.9a14.705,14.705,0,0,0-.4,1.637,15.806,15.806,0,0,0,0,1.768,10.694,10.694,0,0,0-1.253-1.179c-.462-.327-1.056-.589-1.518-.917" transform="translate(-3353.189 -353.174)"/>
    <path id="Path_11440" data-name="Path 11440" class="cls-11" d="M738.9,4113.2c-5.41,23.837-68.877,83.693-94.739,87.295a60.258,60.258,0,0,1-13.261.458" transform="translate(-3296.468 -264.926)"/>
    <path id="Path_11441" data-name="Path 11441" class="cls-12" d="M643.827,4273.8a10.165,10.165,0,0,1-1.781,1.113c-.66.328-1.385.458-2.045.72a17.474,17.474,0,0,1,1.913.982,11.255,11.255,0,0,1,1.649,1.441" transform="translate(-3299.564 -320.352)"/>
    <path id="Path_11442" data-name="Path 11442" class="cls-12" d="M793.856,4115.625a17.477,17.477,0,0,1-.792-1.965c-.2-.72-.2-1.441-.33-2.161a16.008,16.008,0,0,1-1.32,1.637,10.829,10.829,0,0,1-1.715,1.31" transform="translate(-3350.501 -264.339)"/>
    <line id="Line_884" data-name="Line 884" class="cls-13" y1="21.611" x2="113.871" transform="translate(-2657.65 3933.932)"/>
    <path id="Path_11443" data-name="Path 11443" class="cls-12" d="M810.2,4241.1a10.049,10.049,0,0,0,1.781,1.113c.66.328,1.385.459,2.045.721a17.3,17.3,0,0,0-1.913.982,11.284,11.284,0,0,0-1.649,1.44" transform="translate(-3357.476 -309.067)"/>
    <path id="Path_11444" data-name="Path 11444" class="cls-12" d="M632.127,4244a10.108,10.108,0,0,1-1.781,1.113c-.66.327-1.385.458-2.045.72a17.469,17.469,0,0,1,1.913.982,11.262,11.262,0,0,1,1.649,1.441" transform="translate(-3295.583 -310.068)"/>
    <path id="Path_11445" data-name="Path 11445" class="cls-14" d="M833.9,4021.777c2.573,3.8,4.948,2.423,4.882,8.317-.066,3.406-.4,10.151.2,13.163l15.438,3.209.066-15.914-2.309-.786-.132-8.644c2.639.393,12.007,2.357,13.525,3.471l-10.094,5.632v15.455c1.583.066,10.424-4.977,11.545-6.025v-12.7c-.066-6.549,2.7-4.584,4.156-8.775L856.2,4014.9c-1.319,1.441-3.167,3.144-4.486,4.584l-5.674-4.453c-2.177.982-4.156,2.226-6.2,3.274l-5.938,3.471Zm6.729,5.894c.858-.982,8.181-5.566,10.49-6.156l-.066,8.12Z" transform="translate(-3365.54 -231)"/>
    <path id="Path_11446" data-name="Path 11446" class="cls-15" d="M848.366,4080.266l-.066,15.455c1.122-.262,14.646-5.3,14.976-6.614V4074.7C861.033,4075.028,849.686,4079.219,848.366,4080.266Z" transform="translate(-3370.44 -251.638)"/>
    <path id="Path_11447" data-name="Path 11447" class="cls-14" d="M823.4,4089.435c1.451,1.114,13.129,6.09,14.976,6.09V4080.2l-14.91-5.5Z" transform="translate(-3361.968 -251.639)"/>
    <path id="Path_11448" data-name="Path 11448" class="cls-14" d="M824.3,4069.288c.99.851,11.611,4.649,13.723,5.37.066-.066.2-.328.2-.262.33.655-.066-.524,1.385-1.245a.9.9,0,0,1,.2.262c.528,2.358,5.476-.327,7.191-.982,2.243-.851,5.872-1.833,7.587-3.143-.4-.524.066-.131-.66-.524l-12.8-3.733c-.99.131-.858.655-1.517,1.179-1.583-.72-.264-.2-1.583-1.31C835.45,4065.555,825.356,4067.913,824.3,4069.288Z" transform="translate(-3362.273 -248.256)"/>
    <path id="Path_11449" data-name="Path 11449" class="cls-15" d="M899.366,4071.267l-.066,15.455c1.122-.262,14.646-5.3,14.976-6.614V4065.7C912.033,4066.028,900.685,4070.219,899.366,4071.267Z" transform="translate(-3387.793 -248.532)"/>
    <path id="Path_11450" data-name="Path 11450" class="cls-14" d="M874.3,4080.435c1.451,1.113,13.129,6.09,14.976,6.09V4071.2l-14.91-5.5Z" transform="translate(-3379.286 -248.532)"/>
    <path id="Path_11451" data-name="Path 11451" class="cls-14" d="M875.2,4060.288c.99.851,11.611,4.649,13.657,5.37.066-.065.2-.328.2-.262.33.655-.066-.524,1.385-1.244a.907.907,0,0,1,.2.262c.528,2.358,5.476-.328,7.191-.982,2.243-.851,5.872-1.834,7.587-3.143-.4-.524.066-.131-.66-.524l-12.8-3.733c-.99.131-.858.655-1.517,1.179-1.583-.72-.264-.2-1.583-1.31C886.416,4056.555,876.322,4058.913,875.2,4060.288Z" transform="translate(-3379.593 -245.15)"/>
    <text id="Inventory_Checked" data-name="Inventory Checked" class="cls-16" transform="translate(-2511.701 3851.875)"><tspan x="0" y="0">Inventory Checked</tspan></text>
    <rect id="Rectangle_2497" data-name="Rectangle 2497" class="cls-17" width="48.557" height="56.45" transform="translate(-2531.838 3893.134)"/>
    <rect id="Rectangle_2498" data-name="Rectangle 2498" class="cls-18" width="20.848" height="1.244" transform="translate(-2529.067 3932.491)"/>
    <rect id="Rectangle_2499" data-name="Rectangle 2499" class="cls-18" width="20.848" height="1.244" transform="translate(-2529.067 3934.391)"/>
    <rect id="Rectangle_2500" data-name="Rectangle 2500" class="cls-18" width="20.848" height="1.244" transform="translate(-2529.067 3936.29)"/>
    <rect id="Rectangle_2501" data-name="Rectangle 2501" class="cls-18" width="20.848" height="1.244" transform="translate(-2529.067 3938.189)"/>
    <rect id="Rectangle_2502" data-name="Rectangle 2502" class="cls-18" width="20.848" height="1.244" transform="translate(-2529.067 3940.088)"/>
    <rect id="Rectangle_2503" data-name="Rectangle 2503" class="cls-18" width="20.848" height="1.244" transform="translate(-2529.067 3941.987)"/>
    <rect id="Rectangle_2504" data-name="Rectangle 2504" class="cls-18" width="20.848" height="1.244" transform="translate(-2529.067 3943.886)"/>
    <rect id="Rectangle_2505" data-name="Rectangle 2505" class="cls-18" width="20.848" height="1.244" transform="translate(-2529.067 3945.786)"/>
    <rect id="Rectangle_2506" data-name="Rectangle 2506" class="cls-18" width="20.848" height="1.244" transform="translate(-2505.91 3932.491)"/>
    <rect id="Rectangle_2507" data-name="Rectangle 2507" class="cls-18" width="20.848" height="1.244" transform="translate(-2505.91 3934.391)"/>
    <rect id="Rectangle_2508" data-name="Rectangle 2508" class="cls-18" width="20.848" height="1.244" transform="translate(-2505.91 3936.29)"/>
    <rect id="Rectangle_2509" data-name="Rectangle 2509" class="cls-18" width="20.848" height="1.244" transform="translate(-2505.91 3938.189)"/>
    <rect id="Rectangle_2510" data-name="Rectangle 2510" class="cls-18" width="20.848" height="1.244" transform="translate(-2505.91 3940.088)"/>
    <rect id="Rectangle_2511" data-name="Rectangle 2511" class="cls-18" width="20.848" height="1.244" transform="translate(-2505.91 3941.987)"/>
    <rect id="Rectangle_2512" data-name="Rectangle 2512" class="cls-18" width="20.848" height="1.244" transform="translate(-2505.91 3943.886)"/>
    <rect id="Rectangle_2513" data-name="Rectangle 2513" class="cls-18" width="20.848" height="1.244" transform="translate(-2505.91 3945.786)"/>
    <rect id="Rectangle_2514" data-name="Rectangle 2514" class="cls-19" width="3.826" height="2.816" transform="translate(-2529.067 3924.502)"/>
    <rect id="Rectangle_2515" data-name="Rectangle 2515" class="cls-20" width="3.826" height="2.816" transform="translate(-2529.067 3928.562)"/>
    <rect id="Rectangle_2516" data-name="Rectangle 2516" class="cls-21" width="3.826" height="2.816" transform="translate(-2506.57 3924.502)"/>
    <rect id="Rectangle_2517" data-name="Rectangle 2517" class="cls-22" width="3.826" height="2.816" transform="translate(-2506.57 3928.562)"/>
    <rect id="Rectangle_2518" data-name="Rectangle 2518" class="cls-23" width="4.486" height="1.113" transform="translate(-2523.129 3925.419)"/>
    <rect id="Rectangle_2519" data-name="Rectangle 2519" class="cls-23" width="4.486" height="1.048" transform="translate(-2523.129 3929.61)"/>
    <rect id="Rectangle_2520" data-name="Rectangle 2520" class="cls-23" width="4.486" height="1.113" transform="translate(-2501.094 3925.419)"/>
    <rect id="Rectangle_2521" data-name="Rectangle 2521" class="cls-23" width="4.486" height="1.048" transform="translate(-2501.094 3929.61)"/>
    <path id="Path_11452" data-name="Path 11452" class="cls-24" d="M862.592,4190.188h.264c.726,0,1.188-.328,1.188-1.048,0-.589-.4-.982-1.122-.982h-.4v2.03Zm-.792-2.423a5.4,5.4,0,0,1,1.122-.065,2.791,2.791,0,0,1,1.451.327,1.212,1.212,0,0,1,.594,1.114,1.518,1.518,0,0,1-.594,1.244,2.916,2.916,0,0,1-1.649.393,3.534,3.534,0,0,1-.924-.065Z" transform="translate(-3375.033 -290.637)"/>
    <path id="Path_11453" data-name="Path 11453" class="cls-24" d="M868.845,4189.4l-.2-.655-.2-.589h0a1.908,1.908,0,0,0-.132.589l-.2.655Zm-.924.523-.264.787H866.8l1.055-3.013h1.056l1.122,3.013h-.858l-.264-.787Z" transform="translate(-3376.735 -290.637)"/>
    <path id="Path_11454" data-name="Path 11454" class="cls-24" d="M872.324,4188.29H871.4v-.589h2.7v.589h-.924v2.423h-.858Z" transform="translate(-3378.3 -290.637)"/>
    <path id="Path_11455" data-name="Path 11455" class="cls-24" d="M877.179,4189.4l-.2-.655-.2-.589h0l-.2.589-.2.655Zm-.858.523-.264.787H875.2l1.056-3.013h1.056l1.122,3.013h-.858l-.264-.787Z" transform="translate(-3379.593 -290.637)"/>
    <path id="Path_11456" data-name="Path 11456" class="cls-24" d="M880.081,4200.88h-7.059v-3.8h7.059v3.8Zm0,4.715v.262h-7.059v-4.125h6.993v3.864Zm-.132,5.3h-6.927v-4.061h6.927v4.061Zm0,4.519h-6.927v-3.6h6.927v3.6Zm-8.511-9.562h-6.927v-4.125h6.927v4.125Zm0,4.781h0l-.066.262h-6.927v-2.03h.066v-.982h-.066v-1.047h6.993v3.8Zm0,4.781h-6.927v-3.6h6.927v3.6Zm-8.511-14.539H856v-3.8h6.927v3.8Zm0,4.977h-6.993v-4.06h6.927v4.06Zm0,5.043H856v-3.995h0v-.066h6.927v1.7h0v2.357Zm0,4.519H856v-3.6h6.927v3.6Zm-8.511-9.562H847.49v-4.06h6.927v.262h0v3.8Zm0,5.043H847.49v-1.31h0v-2.815h6.927v4.125Zm-.066,4.519h-6.927v-3.6h6.927v3.6Zm-8.51-14.539h-7.323v-3.8h7.323v3.8Zm0,4.977h-7.323v-4.125h7.323v4.125Zm0,4.715c-.066.066-.132.066-.2.131v.262h-7.125v-4.06h7.323v3.667Zm0,4.846h-7.323v-3.6h7.257v3.6Zm1.583-18.4h6.927v3.8h-6.927v-3.8Zm17.087,0h6.927v3.8h-6.927v-3.8ZM837,4196.1v20.3h44.466v-20.3Z" transform="translate(-3366.595 -293.536)"/>
    <path id="Path_11457" data-name="Path 11457" class="cls-25" d="M838.894,4217.707l-.594-.655,8.643-5.566,4.816,1.965,8.313-5.042,4.09,3.077,6.136-8.186,11.018,8.514-.66.589-10.16-7.858-6.07,8.187-4.42-3.275-8.181,4.912-4.816-1.965Z" transform="translate(-3367.037 -296.021)"/>
    <path id="Path_11458" data-name="Path 11458" class="cls-26" d="M868.35,4212.049l-9.237-5.3-6,2.162-3.563-.328L843.214,4211l-4.816.982-.2-.786,4.684-.917,6.531-2.554,3.563.393,6.268-2.292,9.17,5.3,12.667-5.632.4.721Z" transform="translate(-3367.003 -296.78)"/>
    <path id="Path_11459" data-name="Path 11459" class="cls-27" d="M850.959,4219.1l-8.247-3.995-4.816,2.03-.4-.721,5.212-2.227,8.247,4,8.643-3.6,6.927,3.013,9.17-4.519,5.212-1.179.264.786-5.146,1.178-9.434,4.65L859.6,4215.5Z" transform="translate(-3366.765 -298.989)"/>
    <path id="Path_11460" data-name="Path 11460" class="cls-28" d="M838.3,4213.82l-.4-.72,12.6-5.108,2.7.852,12.6-8.645,4.552,4.125,10.556-6.025.528.654-11.216,6.418-4.486-4.061L853.4,4209.76l-2.837-.916Z" transform="translate(-3366.901 -294.295)"/>
    <rect id="Rectangle_2522" data-name="Rectangle 2522" class="cls-18" width="1.517" height="18.075" transform="translate(-2529.595 3904.07)"/>
    <rect id="Rectangle_2523" data-name="Rectangle 2523" class="cls-18" width="1.649" height="20.301" transform="translate(-2486.712 3902.564)"/>
    <path id="Path_11461" data-name="Path 11461" class="cls-14" d="M902.212,4247.519h0c-.132-.851-.2-1.769-.264-2.947-.264-5.043.792-7.073-.066-10.675s-2.309-1.9-3.892-3.405-2.441-.59-4.618-1.113c-2.243-.589-1.583-1.965-3.563-3.471a2.81,2.81,0,0,0-3.695.2s-2.639-7.662-4.09-11.592-3.365-3.863-4.156-1.833,3.233,12.77,3.629,15.717c.33,2.947.4,9.889.4,9.889a15.865,15.865,0,0,1-2.243-5.632c-.726-2.751-3.892-4.847-5.872-3.6s.2.786.594,4.322c.33,2.947.594,2.423,1.715,5.435.2.589.462,1.244.726,2.161.066.2.132.327.2.524,1.583,4.65,2.969,4.584,6.6,8.709l2.441,3.209a2,2,0,0,0,.462.328.923.923,0,0,0,.594,0c1.847-.393,8.445-1.834,12.469-2.686a3.274,3.274,0,0,0,2.639-3.535Z" transform="translate(-3378.83 -298.786)"/>
    <text id="Invoice_Checked" data-name="Invoice Checked" class="cls-16" transform="translate(-2502.36 3964.49)"><tspan x="0" y="0">Invoice Checked</tspan></text>
    <rect id="Rectangle_2524" data-name="Rectangle 2524" class="cls-29" width="24.212" height="12.836" transform="translate(-2538.567 4031.313)"/>
    <path id="Path_11462" data-name="Path 11462" class="cls-30" d="M823.4,4407.268v3.144h3.167a2.427,2.427,0,0,0,.462-1.31,2.278,2.278,0,0,0-.66-1.572A2.253,2.253,0,0,0,823.4,4407.268Z" transform="translate(-3361.968 -366.263)"/>
    <path id="Path_11463" data-name="Path 11463" class="cls-30" d="M823.4,4395.844a2.313,2.313,0,0,0,2.969-.2,2.122,2.122,0,0,0,.66-1.572,2.457,2.457,0,0,0-.462-1.375H823.4Z" transform="translate(-3361.968 -361.388)"/>
    <path id="Path_11464" data-name="Path 11464" class="cls-30" d="M855.062,4392.7a2.046,2.046,0,0,0-.462,1.375,2.576,2.576,0,0,0,.66,1.637,2.317,2.317,0,0,0,2.969.2V4392.7Z" transform="translate(-3372.583 -361.388)"/>
    <path id="Path_11465" data-name="Path 11465" class="cls-30" d="M855.16,4407.45a2.119,2.119,0,0,0-.66,1.572,2,2,0,0,0,.462,1.31h3.233v-3.079A2.328,2.328,0,0,0,855.16,4407.45Z" transform="translate(-3372.55 -366.249)"/>
    <path id="Path_11466" data-name="Path 11466" class="cls-30" d="M835.439,4402.981a3.864,3.864,0,1,1,3.893-3.863,3.885,3.885,0,0,1-3.893,3.863Zm8.775-6.941a2.829,2.829,0,0,1-.858-1.965,2.407,2.407,0,0,1,.4-1.375h-16.56a2.562,2.562,0,0,1,.4,1.375,2.482,2.482,0,0,1-.858,1.965,2.907,2.907,0,0,1-2.045.851,2.784,2.784,0,0,1-1.385-.393v5.174a2.85,2.85,0,0,1,4.222,2.423,2.961,2.961,0,0,1-.33,1.309h16.494a2.961,2.961,0,0,1-.33-1.309,2.574,2.574,0,0,1,.858-1.965,2.913,2.913,0,0,1,3.431-.458V4396.5a2.609,2.609,0,0,1-1.385.393A2.657,2.657,0,0,1,844.214,4396.04Z" transform="translate(-3361.933 -361.388)"/>
    <path id="Path_11467" data-name="Path 11467" class="cls-30" d="M841.217,4403.111v.721h-.462v-.721a1.835,1.835,0,0,1-1.056-.327l.2-.458a2.209,2.209,0,0,0,.99.327c.462,0,.792-.262.792-.655s-.2-.59-.726-.786c-.726-.262-1.122-.589-1.122-1.178a1.135,1.135,0,0,1,1.056-1.114v-.72h.462v.655a1.718,1.718,0,0,1,.924.262l-.2.459a1.611,1.611,0,0,0-.858-.262c-.528,0-.66.328-.66.589,0,.328.2.523.792.786.726.262,1.056.655,1.056,1.245A1.387,1.387,0,0,1,841.217,4403.111Z" transform="translate(-3367.514 -363.286)"/>
    <path id="Path_11468" data-name="Path 11468" class="cls-31" d="M845.952,4348.922c-.066-.2-.066-.327-.132-.523a5.246,5.246,0,0,0-1.254-2.1,5.527,5.527,0,1,0-4.024,9.3,5.729,5.729,0,0,0,4.618-2.423,4.572,4.572,0,0,0,.792-1.833,1.106,1.106,0,0,0,.066-.458,3.44,3.44,0,0,0,.066-.852A7.231,7.231,0,0,0,845.952,4348.922Z" transform="translate(-3365.915 -344.788)"/>
    <path id="Path_11469" data-name="Path 11469" class="cls-32" d="M841.188,4346.5a4.257,4.257,0,1,0,4.288,4.257,4.264,4.264,0,0,0-4.288-4.257Zm0,.523a3.733,3.733,0,1,1-3.761,3.733A3.7,3.7,0,0,1,841.188,4347.024Z" transform="translate(-3366.561 -345.443)"/>
    <path id="Path_11470" data-name="Path 11470" class="cls-32" d="M842.222,4354.308v-.589a2.569,2.569,0,0,1-1.122-.262l.2-.72a2.5,2.5,0,0,0,1.056.262q.594,0,.594-.393c0-.263-.2-.394-.66-.524-.66-.262-1.188-.524-1.188-1.179,0-.589.4-.982,1.122-1.114v-.589h.66v.589a2.44,2.44,0,0,1,.924.2l-.2.721a2.431,2.431,0,0,0-.924-.2c-.4,0-.528.2-.528.393s.2.328.792.524c.792.262,1.056.589,1.056,1.179a1.2,1.2,0,0,1-1.122,1.178v.655h-.66Z" transform="translate(-3367.99 -346.375)"/>
    <path id="Path_11471" data-name="Path 11471" class="cls-33" d="M886.82,4364.667a26.06,26.06,0,1,1-26.06-25.868A25.977,25.977,0,0,1,886.82,4364.667Z" transform="translate(-3365.812 -342.785)"/>
    <ellipse id="Ellipse_166" data-name="Ellipse 166" class="cls-34" cx="22.563" cy="22.397" rx="22.563" ry="22.397" transform="translate(-2527.616 3999.485)"/>
    <path id="Path_11472" data-name="Path 11472" class="cls-35" d="M853.03,4376.03a1.288,1.288,0,0,1-.33-.917,1.05,1.05,0,0,1,1.188-.917l13.261,1.572a1.056,1.056,0,1,1-.264,2.1l-13.261-1.571A.984.984,0,0,1,853.03,4376.03Z" transform="translate(-3371.937 -354.999)"/>
    <path id="Path_11473" data-name="Path 11473" class="cls-35" d="M873.764,4370.354a.828.828,0,0,1-.2-.917l8.643-15.913a.737.737,0,0,1,1.056-.2.792.792,0,0,1,.33,1.047l-8.643,15.914a.737.737,0,0,1-1.056.2C873.9,4370.419,873.83,4370.419,873.764,4370.354Z" transform="translate(-3379.014 -347.751)"/>
    <path id="Path_11474" data-name="Path 11474" class="cls-35" d="M883.637,4394.415l-.066-.065-12.205-20.563a.525.525,0,0,1,.2-.72.533.533,0,0,1,.726.2l12.205,20.563a.525.525,0,0,1-.2.721A.514.514,0,0,1,883.637,4394.415Z" transform="translate(-3378.266 -354.589)"/>
    <ellipse id="Ellipse_167" data-name="Ellipse 167" class="cls-36" cx="1.188" cy="1.179" rx="1.188" ry="1.179" transform="translate(-2506.24 4003.284)"/>
    <path id="Path_11475" data-name="Path 11475" class="cls-35" d="M874.875,4404.376a1.188,1.188,0,1,1-1.187-1.179A1.178,1.178,0,0,1,874.875,4404.376Z" transform="translate(-3378.674 -365.009)"/>
    <ellipse id="Ellipse_168" data-name="Ellipse 168" class="cls-36" cx="1.188" cy="1.179" rx="1.188" ry="1.179" transform="translate(-2488.691 4021.031)"/>
    <ellipse id="Ellipse_169" data-name="Ellipse 169" class="cls-36" cx="1.188" cy="1.179" rx="1.188" ry="1.179" transform="translate(-2523.789 4021.031)"/>
    <path id="Path_11476" data-name="Path 11476" class="cls-35" d="M888.019,4355.255a.66.66,0,1,1-.66-.655A.659.659,0,0,1,888.019,4355.255Z" transform="translate(-3383.506 -348.238)"/>
    <path id="Path_11477" data-name="Path 11477" class="cls-35" d="M897.72,4365.155a.659.659,0,0,1-.66.655.621.621,0,0,1-.66-.655.659.659,0,0,1,.66-.655A.707.707,0,0,1,897.72,4365.155Z" transform="translate(-3386.806 -351.656)"/>
    <path id="Path_11478" data-name="Path 11478" class="cls-35" d="M897.62,4391.455a.66.66,0,1,1-.66-.655A.659.659,0,0,1,897.62,4391.455Z" transform="translate(-3386.772 -360.732)"/>
    <path id="Path_11479" data-name="Path 11479" class="cls-35" d="M887.82,4401.25a.66.66,0,1,1-.66-.655A.619.619,0,0,1,887.82,4401.25Z" transform="translate(-3383.438 -364.11)"/>
    <ellipse id="Ellipse_170" data-name="Ellipse 170" class="cls-36" cx="0.66" cy="0.655" rx="0.66" ry="0.655" transform="translate(-2514.223 4036.486)"/>
    <ellipse id="Ellipse_171" data-name="Ellipse 171" class="cls-36" cx="0.66" cy="0.655" rx="0.66" ry="0.655" transform="translate(-2520.688 4030.068)"/>
    <path id="Path_11480" data-name="Path 11480" class="cls-35" d="M851.82,4365.155a.66.66,0,1,1-.66-.655A.707.707,0,0,1,851.82,4365.155Z" transform="translate(-3371.189 -351.656)"/>
    <path id="Path_11481" data-name="Path 11481" class="cls-35" d="M861.619,4355.355a.66.66,0,1,1-.66-.655A.659.659,0,0,1,861.619,4355.355Z" transform="translate(-3374.523 -348.273)"/>
    <path id="Path_11482" data-name="Path 11482" class="cls-31" d="M914.552,4362.822c-.066-.2-.066-.328-.132-.524a5.253,5.253,0,0,0-1.254-2.1,5.527,5.527,0,1,0-4.024,9.3,5.728,5.728,0,0,0,4.618-2.423,4.57,4.57,0,0,0,.792-1.833c.066-.131.066-.327.132-.458a3.431,3.431,0,0,0,.066-.851C914.684,4363.608,914.618,4363.215,914.552,4362.822Z" transform="translate(-3389.256 -349.584)"/>
    <path id="Path_11483" data-name="Path 11483" class="cls-32" d="M909.688,4360.4a4.257,4.257,0,1,0,4.288,4.256,4.264,4.264,0,0,0-4.288-4.256Zm0,.524a3.733,3.733,0,1,1-3.76,3.733A3.788,3.788,0,0,1,909.688,4360.924Z" transform="translate(-3389.868 -350.24)"/>
    <path id="Path_11484" data-name="Path 11484" class="cls-32" d="M910.822,4368.173v-.589a2.569,2.569,0,0,1-1.122-.262l.2-.721a2.489,2.489,0,0,0,1.056.262q.594,0,.594-.393c0-.262-.2-.393-.66-.589-.66-.262-1.188-.524-1.188-1.179a1.136,1.136,0,0,1,1.056-1.114V4363h.66v.589a2.439,2.439,0,0,1,.924.2l-.2.721a2.431,2.431,0,0,0-.924-.2c-.4,0-.528.2-.528.327,0,.2.2.327.792.523.792.262,1.056.59,1.056,1.179a1.2,1.2,0,0,1-1.122,1.178v.656Z" transform="translate(-3391.332 -351.137)"/>
    <path id="Path_11535" data-name="Path 11535" class="cls-29" d="M0,0,24.181.068l.036,12.852L.036,12.852Z" transform="translate(-2497.126 4041.651) rotate(-24.74)"/>
    <path id="Path_11485" data-name="Path 11485" class="cls-30" d="M892.3,4421.588l1.319,2.881,2.9-1.31a2.471,2.471,0,0,0-.132-1.375,2.431,2.431,0,0,0-1.254-1.179A2.2,2.2,0,0,0,892.3,4421.588Z" transform="translate(-3385.411 -370.957)"/>
    <path id="Path_11486" data-name="Path 11486" class="cls-30" d="M887.385,4410.892a2.23,2.23,0,0,0,2.639-1.441,2.173,2.173,0,0,0-.066-1.7,2.053,2.053,0,0,0-1.056-1.047l-2.9,1.31Z" transform="translate(-3383.267 -366.22)"/>
    <path id="Path_11487" data-name="Path 11487" class="cls-30" d="M914.965,4394.709a2.185,2.185,0,0,0,.132,1.441,2.432,2.432,0,0,0,1.254,1.179,2.262,2.262,0,0,0,2.771-1.048L917.8,4393.4Z" transform="translate(-3393.1 -361.63)"/>
    <path id="Path_11488" data-name="Path 11488" class="cls-30" d="M921.527,4408.241a2.346,2.346,0,0,0,.066,1.768,2.385,2.385,0,0,0,.924,1.048l2.969-1.375-1.319-2.816A2.19,2.19,0,0,0,921.527,4408.241Z" transform="translate(-3395.308 -366.254)"/>
    <path id="Path_11489" data-name="Path 11489" class="cls-30" d="M902.223,4408.57a3.864,3.864,0,0,1-5.146-1.9,3.812,3.812,0,0,1,1.913-5.108,3.864,3.864,0,0,1,5.146,1.9,3.925,3.925,0,0,1-1.913,5.108Zm5.014-9.889a2.846,2.846,0,0,1-1.583-1.44,3.506,3.506,0,0,1-.264-1.441l-15.042,6.876a2.561,2.561,0,0,1,.924,1.113,2.727,2.727,0,0,1,.066,2.161,2.645,2.645,0,0,1-1.451,1.571,3.471,3.471,0,0,1-1.385.262l2.177,4.715a2.9,2.9,0,0,1,3.233-.982,2.845,2.845,0,0,1,1.583,1.441,3.4,3.4,0,0,1,.264,1.375l14.976-6.81a2.632,2.632,0,0,1-.858-1.048,2.727,2.727,0,0,1-.066-2.161,2.855,2.855,0,0,1,2.9-1.834l-2.177-4.715a2.571,2.571,0,0,1-1.122.917A3.534,3.534,0,0,1,907.237,4398.681Z" transform="translate(-3384.118 -362.457)"/>
    <path id="Path_11490" data-name="Path 11490" class="cls-30" d="M907.047,4410.319l.33.655-.4.2-.264-.655a2.123,2.123,0,0,1-1.056.132l-.066-.459a2.121,2.121,0,0,0,1.056-.131c.462-.2.594-.589.4-.917-.132-.327-.462-.458-.99-.458-.726.065-1.319-.065-1.517-.589a1.09,1.09,0,0,1,.462-1.441l-.264-.655.4-.2.264.589a1.657,1.657,0,0,1,.924-.131l.066.458a1.777,1.777,0,0,0-.924.131.668.668,0,0,0-.4.851c.132.328.4.394,1.056.394.792,0,1.254.131,1.517.72A1.186,1.186,0,0,1,907.047,4410.319Z" transform="translate(-3389.536 -365.909)"/>
    <rect id="Rectangle_2526" data-name="Rectangle 2526" class="cls-29" width="24.212" height="12.836" transform="translate(-2500.17 4042.183)"/>
    <path id="Path_11491" data-name="Path 11491" class="cls-30" d="M881.6,4423.869v3.143h3.167a2.425,2.425,0,0,0,.462-1.31,2.277,2.277,0,0,0-.66-1.571A2.241,2.241,0,0,0,881.6,4423.869Z" transform="translate(-3381.77 -371.993)"/>
    <path id="Path_11492" data-name="Path 11492" class="cls-30" d="M881.6,4412.443a2.309,2.309,0,0,0,2.969-.2,2.118,2.118,0,0,0,.66-1.571,2.457,2.457,0,0,0-.462-1.375H881.6Z" transform="translate(-3381.77 -367.117)"/>
    <path id="Path_11493" data-name="Path 11493" class="cls-30" d="M913.262,4409.265a2.046,2.046,0,0,0-.462,1.375,2.278,2.278,0,0,0,.66,1.571,2.316,2.316,0,0,0,2.969.2V4409.2h-3.167Z" transform="translate(-3392.387 -367.082)"/>
    <path id="Path_11494" data-name="Path 11494" class="cls-30" d="M913.46,4424.049a2.121,2.121,0,0,0-.66,1.571,1.991,1.991,0,0,0,.462,1.31h3.233v-3.078A2.323,2.323,0,0,0,913.46,4424.049Z" transform="translate(-3392.387 -371.978)"/>
    <path id="Path_11495" data-name="Path 11495" class="cls-30" d="M893.705,4419.547a3.864,3.864,0,1,1,0-7.728,3.844,3.844,0,0,1,3.892,3.864,3.928,3.928,0,0,1-3.892,3.863Zm8.709-6.941a2.864,2.864,0,0,1-.858-2.031,2.407,2.407,0,0,1,.4-1.375h-16.56a2.562,2.562,0,0,1,.4,1.375,2.715,2.715,0,0,1-.858,2.031,2.907,2.907,0,0,1-2.045.851,2.784,2.784,0,0,1-1.385-.393v5.173a2.931,2.931,0,0,1,3.365.458,2.863,2.863,0,0,1,.858,2.03,2.967,2.967,0,0,1-.33,1.31h16.493a2.807,2.807,0,0,1,.528-3.34,2.915,2.915,0,0,1,3.431-.458v-5.173a2.609,2.609,0,0,1-1.385.393A2.657,2.657,0,0,1,902.414,4412.605Z" transform="translate(-3381.737 -367.082)"/>
    <path id="Path_11496" data-name="Path 11496" class="cls-30" d="M899.517,4419.677v.72h-.462v-.72a1.835,1.835,0,0,1-1.056-.327l.2-.459a2.21,2.21,0,0,0,.99.328c.462,0,.792-.262.792-.655s-.2-.589-.726-.851c-.726-.262-1.122-.589-1.122-1.179a1.134,1.134,0,0,1,1.056-1.113v-.721h.462v.655a1.718,1.718,0,0,1,.924.262l-.2.458a1.868,1.868,0,0,0-.858-.262c-.528,0-.66.328-.66.589,0,.327.2.523.792.786.726.262,1.056.655,1.056,1.244A1.461,1.461,0,0,1,899.517,4419.677Z" transform="translate(-3387.351 -368.98)"/>
    <path id="Path_11497" data-name="Path 11497" class="cls-31" d="M867.052,4409.322c-.066-.2-.066-.327-.132-.524a5.251,5.251,0,0,0-1.254-2.1,5.527,5.527,0,1,0-4.024,9.3,5.727,5.727,0,0,0,4.618-2.423,4.572,4.572,0,0,0,.792-1.833c.066-.131.066-.327.132-.523a3.431,3.431,0,0,0,.066-.851C867.184,4410.043,867.118,4409.65,867.052,4409.322Z" transform="translate(-3373.094 -365.633)"/>
    <path id="Path_11498" data-name="Path 11498" class="cls-32" d="M862.288,4406.9a4.257,4.257,0,1,0,4.288,4.257,4.264,4.264,0,0,0-4.288-4.257Zm0,.524a3.733,3.733,0,1,1-3.761,3.733A3.7,3.7,0,0,1,862.288,4407.424Z" transform="translate(-3373.74 -366.288)"/>
    <path id="Path_11499" data-name="Path 11499" class="cls-32" d="M863.322,4414.573v-.589a2.583,2.583,0,0,1-1.122-.262l.2-.721a2.5,2.5,0,0,0,1.056.262q.594,0,.594-.393c0-.262-.2-.394-.66-.589-.66-.2-1.187-.524-1.187-1.179,0-.589.4-.983,1.122-1.114v-.589h.66v.589a2.43,2.43,0,0,1,.924.2l-.2.721a2.419,2.419,0,0,0-.923-.2c-.4,0-.528.2-.528.327,0,.2.2.328.792.524.792.262,1.056.589,1.056,1.179a1.2,1.2,0,0,1-1.122,1.178v.655Z" transform="translate(-3375.169 -367.151)"/>
    <text id="Save_Time" data-name="Save Time" class="cls-16" transform="translate(-2484.559 4069.897)"><tspan x="0" y="0">Save Time</tspan></text>
    <text id="Report" class="cls-37" transform="matrix(0.999, 0.054, -0.054, 0.999, -2717.216, 3953.313)"><tspan x="0" y="0">Report</tspan></text>
  </g>
</svg>
