<svg width="352" height="352" viewBox="0 0 352 352" fill="none" xmlns="http://www.w3.org/2000/svg">
<g filter="url(#filter0_d_425_563)">
<rect width="224" height="224" rx="16" fill="white" shape-rendering="crispEdges"/>
<rect x="1.5" y="1.5" width="221" height="221" rx="14.5" stroke="#212528" stroke-width="3" shape-rendering="crispEdges"/>
<path d="M130.667 72.1668H128V66.8335H122.667V72.1668H101.333V66.8335H96V72.1668H93.3333C90.3733 72.1668 88.0267 74.5668 88.0267 77.5002L88 114.833C88 117.767 90.3733 120.167 93.3333 120.167H130.667C133.6 120.167 136 117.767 136 114.833V77.5002C136 74.5668 133.6 72.1668 130.667 72.1668ZM130.667 114.833H93.3333V85.5002H130.667V114.833ZM98.6667 90.8335H112V104.167H98.6667V90.8335Z" fill="#0074FF"/>
<path d="M67.1364 156.5H61.2216V139.045H67.2557C68.9886 139.045 70.4773 139.395 71.7216 140.094C72.9716 140.787 73.9318 141.784 74.6023 143.085C75.2727 144.386 75.608 145.943 75.608 147.756C75.608 149.574 75.2699 151.136 74.5938 152.443C73.9233 153.75 72.9545 154.753 71.6875 155.452C70.4261 156.151 68.9091 156.5 67.1364 156.5ZM64.3835 153.764H66.983C68.1989 153.764 69.2131 153.543 70.0256 153.099C70.8381 152.651 71.4489 151.983 71.858 151.097C72.267 150.205 72.4716 149.091 72.4716 147.756C72.4716 146.42 72.267 145.312 71.858 144.432C71.4489 143.545 70.8438 142.884 70.0426 142.446C69.2472 142.003 68.2585 141.781 67.0767 141.781H64.3835V153.764ZM86.8196 150.994V143.409H89.9048V156.5H86.9134V154.173H86.777C86.4815 154.906 85.9957 155.506 85.3196 155.972C84.6491 156.437 83.8224 156.67 82.8395 156.67C81.9815 156.67 81.223 156.48 80.5639 156.099C79.9105 155.713 79.3991 155.153 79.0298 154.42C78.6605 153.682 78.4759 152.79 78.4759 151.744V143.409H81.5611V151.267C81.5611 152.097 81.7884 152.756 82.2429 153.244C82.6974 153.733 83.294 153.977 84.0327 153.977C84.4872 153.977 84.9276 153.866 85.3537 153.645C85.7798 153.423 86.1293 153.094 86.402 152.656C86.6804 152.213 86.8196 151.659 86.8196 150.994ZM98.8729 156.756C97.5604 156.756 96.4268 156.483 95.4723 155.938C94.5234 155.386 93.7933 154.608 93.282 153.602C92.7706 152.591 92.5149 151.401 92.5149 150.031C92.5149 148.685 92.7706 147.503 93.282 146.486C93.799 145.463 94.5206 144.668 95.4467 144.099C96.3729 143.526 97.4609 143.239 98.7109 143.239C99.5178 143.239 100.279 143.369 100.995 143.631C101.717 143.886 102.353 144.284 102.904 144.824C103.461 145.364 103.898 146.051 104.217 146.886C104.535 147.716 104.694 148.705 104.694 149.852V150.798H93.9638V148.719H101.737C101.731 148.128 101.603 147.602 101.353 147.142C101.103 146.676 100.754 146.31 100.305 146.043C99.8615 145.776 99.3445 145.642 98.7536 145.642C98.1229 145.642 97.5689 145.795 97.0916 146.102C96.6143 146.403 96.2422 146.801 95.9751 147.295C95.7138 147.784 95.5803 148.321 95.5746 148.906V150.722C95.5746 151.483 95.7138 152.136 95.9922 152.682C96.2706 153.222 96.6598 153.636 97.1598 153.926C97.6598 154.21 98.245 154.352 98.9155 154.352C99.3643 154.352 99.7706 154.29 100.134 154.165C100.498 154.034 100.813 153.844 101.08 153.594C101.347 153.344 101.549 153.034 101.685 152.665L104.566 152.989C104.384 153.75 104.038 154.415 103.526 154.983C103.021 155.545 102.373 155.983 101.583 156.295C100.793 156.602 99.8899 156.756 98.8729 156.756ZM118.115 156.73C117.087 156.73 116.166 156.466 115.354 155.938C114.541 155.409 113.899 154.642 113.428 153.636C112.956 152.631 112.72 151.409 112.72 149.972C112.72 148.517 112.959 147.29 113.436 146.29C113.919 145.284 114.57 144.526 115.388 144.014C116.206 143.497 117.118 143.239 118.124 143.239C118.891 143.239 119.521 143.369 120.016 143.631C120.51 143.886 120.902 144.196 121.192 144.56C121.482 144.918 121.706 145.256 121.865 145.574H121.993V139.045H125.087V156.5H122.053V154.438H121.865C121.706 154.756 121.476 155.094 121.175 155.452C120.874 155.804 120.476 156.105 119.982 156.355C119.487 156.605 118.865 156.73 118.115 156.73ZM118.976 154.199C119.629 154.199 120.186 154.023 120.646 153.67C121.107 153.312 121.456 152.815 121.695 152.179C121.933 151.543 122.053 150.801 122.053 149.955C122.053 149.108 121.933 148.372 121.695 147.747C121.462 147.122 121.115 146.636 120.655 146.29C120.2 145.943 119.641 145.77 118.976 145.77C118.288 145.77 117.714 145.949 117.254 146.307C116.794 146.665 116.447 147.159 116.214 147.79C115.982 148.42 115.865 149.142 115.865 149.955C115.865 150.773 115.982 151.503 116.214 152.145C116.453 152.781 116.803 153.284 117.263 153.653C117.729 154.017 118.3 154.199 118.976 154.199ZM132.141 156.764C131.312 156.764 130.565 156.616 129.9 156.321C129.241 156.02 128.718 155.577 128.332 154.991C127.951 154.406 127.761 153.685 127.761 152.827C127.761 152.088 127.897 151.477 128.17 150.994C128.442 150.511 128.815 150.125 129.286 149.835C129.758 149.545 130.289 149.327 130.88 149.179C131.477 149.026 132.093 148.915 132.729 148.847C133.496 148.767 134.119 148.696 134.596 148.634C135.073 148.565 135.42 148.463 135.636 148.327C135.857 148.185 135.968 147.966 135.968 147.67V147.619C135.968 146.977 135.778 146.48 135.397 146.128C135.016 145.776 134.468 145.599 133.752 145.599C132.996 145.599 132.397 145.764 131.954 146.094C131.516 146.423 131.221 146.812 131.067 147.261L128.187 146.852C128.414 146.057 128.789 145.392 129.312 144.858C129.835 144.318 130.474 143.915 131.229 143.648C131.985 143.375 132.82 143.239 133.735 143.239C134.366 143.239 134.994 143.312 135.619 143.46C136.244 143.608 136.815 143.852 137.332 144.193C137.849 144.528 138.263 144.986 138.576 145.565C138.894 146.145 139.053 146.869 139.053 147.739V156.5H136.087V154.702H135.985C135.798 155.065 135.533 155.406 135.192 155.724C134.857 156.037 134.434 156.29 133.923 156.483C133.417 156.67 132.823 156.764 132.141 156.764ZM132.942 154.497C133.562 154.497 134.099 154.375 134.553 154.131C135.008 153.881 135.357 153.551 135.602 153.142C135.852 152.733 135.977 152.287 135.977 151.804V150.261C135.88 150.341 135.715 150.415 135.482 150.483C135.255 150.551 134.999 150.611 134.715 150.662C134.431 150.713 134.15 150.759 133.871 150.798C133.593 150.838 133.352 150.872 133.147 150.901C132.687 150.963 132.275 151.065 131.911 151.207C131.548 151.349 131.261 151.548 131.05 151.804C130.84 152.054 130.735 152.378 130.735 152.776C130.735 153.344 130.942 153.773 131.357 154.062C131.772 154.352 132.3 154.497 132.942 154.497ZM148.692 143.409V145.795H141.167V143.409H148.692ZM143.025 140.273H146.11V152.562C146.11 152.977 146.173 153.295 146.298 153.517C146.428 153.733 146.599 153.881 146.809 153.96C147.019 154.04 147.252 154.08 147.508 154.08C147.701 154.08 147.877 154.065 148.036 154.037C148.201 154.009 148.326 153.983 148.411 153.96L148.931 156.372C148.766 156.429 148.531 156.491 148.224 156.56C147.923 156.628 147.553 156.668 147.116 156.679C146.343 156.702 145.647 156.585 145.028 156.33C144.408 156.068 143.917 155.665 143.553 155.119C143.195 154.574 143.019 153.892 143.025 153.074V140.273ZM156.928 156.756C155.615 156.756 154.482 156.483 153.527 155.938C152.578 155.386 151.848 154.608 151.337 153.602C150.825 152.591 150.57 151.401 150.57 150.031C150.57 148.685 150.825 147.503 151.337 146.486C151.854 145.463 152.575 144.668 153.501 144.099C154.428 143.526 155.516 143.239 156.766 143.239C157.572 143.239 158.334 143.369 159.05 143.631C159.771 143.886 160.408 144.284 160.959 144.824C161.516 145.364 161.953 146.051 162.271 146.886C162.589 147.716 162.749 148.705 162.749 149.852V150.798H152.018V148.719H159.791C159.786 148.128 159.658 147.602 159.408 147.142C159.158 146.676 158.808 146.31 158.359 146.043C157.916 145.776 157.399 145.642 156.808 145.642C156.178 145.642 155.624 145.795 155.146 146.102C154.669 146.403 154.297 146.801 154.03 147.295C153.768 147.784 153.635 148.321 153.629 148.906V150.722C153.629 151.483 153.768 152.136 154.047 152.682C154.325 153.222 154.714 153.636 155.214 153.926C155.714 154.21 156.3 154.352 156.97 154.352C157.419 154.352 157.825 154.29 158.189 154.165C158.553 154.034 158.868 153.844 159.135 153.594C159.402 153.344 159.604 153.034 159.74 152.665L162.621 152.989C162.439 153.75 162.092 154.415 161.581 154.983C161.075 155.545 160.428 155.983 159.638 156.295C158.848 156.602 157.945 156.756 156.928 156.756Z" fill="#212528"/>
</g>
<g filter="url(#filter1_d_425_563)">
<rect x="248" y="124" width="100" height="100" rx="16" fill="white" shape-rendering="crispEdges"/>
<rect x="249.5" y="125.5" width="97" height="97" rx="14.5" stroke="#212528" stroke-width="3" shape-rendering="crispEdges"/>
<path d="M309.667 160.667H308V157.333H304.667V160.667H291.333V157.333H288V160.667H286.333C284.5 160.667 283 162.167 283 164V187.333C283 189.167 284.5 190.667 286.333 190.667H309.667C311.5 190.667 313 189.167 313 187.333V164C313 162.167 311.5 160.667 309.667 160.667ZM309.667 187.333H286.333V170.667H309.667V187.333ZM286.333 167.333V164H309.667V167.333H286.333ZM289.667 174H306.333V177.333H289.667V174ZM289.667 180.667H301.333V184H289.667V180.667Z" fill="#D5732B"/>
</g>
<g filter="url(#filter2_d_425_563)">
<rect y="248" width="100" height="100" rx="16" fill="white" shape-rendering="crispEdges"/>
<rect x="1.5" y="249.5" width="97" height="97" rx="14.5" stroke="#212528" stroke-width="3" shape-rendering="crispEdges"/>
<path d="M55 280.5H45V283.833H55V280.5ZM48.3333 302.167H51.6667V292.167H48.3333V302.167ZM61.7167 291.15L64.0833 288.783C63.3667 287.933 62.5833 287.133 61.7333 286.433L59.3667 288.8C56.7833 286.733 53.5333 285.5 50 285.5C41.7167 285.5 35 292.217 35 300.5C35 308.783 41.7 315.5 50 315.5C58.3 315.5 65 308.783 65 300.5C65 296.967 63.7667 293.717 61.7167 291.15ZM50 312.167C43.55 312.167 38.3333 306.95 38.3333 300.5C38.3333 294.05 43.55 288.833 50 288.833C56.45 288.833 61.6667 294.05 61.6667 300.5C61.6667 306.95 56.45 312.167 50 312.167Z" fill="#D5732B"/>
</g>
<g filter="url(#filter3_d_425_563)">
<rect x="124" y="248" width="224" height="100" rx="16" fill="white" shape-rendering="crispEdges"/>
<rect x="125.5" y="249.5" width="221" height="97" rx="14.5" stroke="#212528" stroke-width="3" shape-rendering="crispEdges"/>
<path d="M236 314.25C237.833 314.25 239.333 312.75 239.333 310.917H232.667C232.667 312.75 234.167 314.25 236 314.25ZM246 304.25V295.917C246 290.8 243.283 286.517 238.5 285.383V284.25C238.5 282.867 237.383 281.75 236 281.75C234.617 281.75 233.5 282.867 233.5 284.25V285.383C228.733 286.517 226 290.783 226 295.917V304.25L222.667 307.583V309.25H249.333V307.583L246 304.25ZM242.667 305.917H229.333V295.917C229.333 291.783 231.85 288.417 236 288.417C240.15 288.417 242.667 291.783 242.667 295.917V305.917ZM228.633 284.383L226.25 282C222.25 285.05 219.617 289.75 219.383 295.083H222.717C222.967 290.667 225.233 286.8 228.633 284.383ZM249.283 295.083H252.617C252.367 289.75 249.733 285.05 245.75 282L243.383 284.383C246.75 286.8 249.033 290.667 249.283 295.083Z" fill="#0074FF"/>
</g>
<defs>
<filter id="filter0_d_425_563" x="0" y="0" width="228" height="228" filterUnits="userSpaceOnUse" color-interpolation-filters="sRGB">
<feFlood flood-opacity="0" result="BackgroundImageFix"/>
<feColorMatrix in="SourceAlpha" type="matrix" values="0 0 0 0 0 0 0 0 0 0 0 0 0 0 0 0 0 0 127 0" result="hardAlpha"/>
<feOffset dx="4" dy="4"/>
<feComposite in2="hardAlpha" operator="out"/>
<feColorMatrix type="matrix" values="0 0 0 0 0.667568 0 0 0 0 0.805297 0 0 0 0 0.932432 0 0 0 1 0"/>
<feBlend mode="normal" in2="BackgroundImageFix" result="effect1_dropShadow_425_563"/>
<feBlend mode="normal" in="SourceGraphic" in2="effect1_dropShadow_425_563" result="shape"/>
</filter>
<filter id="filter1_d_425_563" x="248" y="124" width="104" height="104" filterUnits="userSpaceOnUse" color-interpolation-filters="sRGB">
<feFlood flood-opacity="0" result="BackgroundImageFix"/>
<feColorMatrix in="SourceAlpha" type="matrix" values="0 0 0 0 0 0 0 0 0 0 0 0 0 0 0 0 0 0 127 0" result="hardAlpha"/>
<feOffset dx="4" dy="4"/>
<feComposite in2="hardAlpha" operator="out"/>
<feColorMatrix type="matrix" values="0 0 0 0 0.932432 0 0 0 0 0.778811 0 0 0 0 0.667568 0 0 0 1 0"/>
<feBlend mode="normal" in2="BackgroundImageFix" result="effect1_dropShadow_425_563"/>
<feBlend mode="normal" in="SourceGraphic" in2="effect1_dropShadow_425_563" result="shape"/>
</filter>
<filter id="filter2_d_425_563" x="0" y="248" width="104" height="104" filterUnits="userSpaceOnUse" color-interpolation-filters="sRGB">
<feFlood flood-opacity="0" result="BackgroundImageFix"/>
<feColorMatrix in="SourceAlpha" type="matrix" values="0 0 0 0 0 0 0 0 0 0 0 0 0 0 0 0 0 0 127 0" result="hardAlpha"/>
<feOffset dx="4" dy="4"/>
<feComposite in2="hardAlpha" operator="out"/>
<feColorMatrix type="matrix" values="0 0 0 0 0.932432 0 0 0 0 0.778811 0 0 0 0 0.667568 0 0 0 1 0"/>
<feBlend mode="normal" in2="BackgroundImageFix" result="effect1_dropShadow_425_563"/>
<feBlend mode="normal" in="SourceGraphic" in2="effect1_dropShadow_425_563" result="shape"/>
</filter>
<filter id="filter3_d_425_563" x="124" y="248" width="228" height="104" filterUnits="userSpaceOnUse" color-interpolation-filters="sRGB">
<feFlood flood-opacity="0" result="BackgroundImageFix"/>
<feColorMatrix in="SourceAlpha" type="matrix" values="0 0 0 0 0 0 0 0 0 0 0 0 0 0 0 0 0 0 127 0" result="hardAlpha"/>
<feOffset dx="4" dy="4"/>
<feComposite in2="hardAlpha" operator="out"/>
<feColorMatrix type="matrix" values="0 0 0 0 0.6 0 0 0 0 0.781961 0 0 0 0 1 0 0 0 1 0"/>
<feBlend mode="normal" in2="BackgroundImageFix" result="effect1_dropShadow_425_563"/>
<feBlend mode="normal" in="SourceGraphic" in2="effect1_dropShadow_425_563" result="shape"/>
</filter>
</defs>
</svg>
