<svg width="420" height="367" viewBox="0 0 420 367" fill="none" xmlns="http://www.w3.org/2000/svg">
<g filter="url(#filter0_d_321_384)">
<rect x="73.343" y="0.202774" width="113.559" height="46.3238" rx="7.41181" fill="white" shape-rendering="crispEdges"/>
<rect x="73.5746" y="0.434393" width="113.096" height="45.8606" rx="7.18019" stroke="#212528" stroke-width="0.463238" shape-rendering="crispEdges"/>
<path d="M111.329 19.1955H110.402V17.3426C110.402 14.7855 108.327 12.7102 105.77 12.7102C103.213 12.7102 101.137 14.7855 101.137 17.3426V19.1955H100.211C99.1917 19.1955 98.3579 20.0294 98.3579 21.0485V30.3132C98.3579 31.3324 99.1917 32.1662 100.211 32.1662H111.329C112.348 32.1662 113.182 31.3324 113.182 30.3132V21.0485C113.182 20.0294 112.348 19.1955 111.329 19.1955ZM102.99 17.3426C102.99 15.8046 104.232 14.5631 105.77 14.5631C107.308 14.5631 108.549 15.8046 108.549 17.3426V19.1955H102.99V17.3426ZM111.329 30.3132H100.211V21.0485H111.329V30.3132ZM105.77 27.5338C106.789 27.5338 107.623 26.7 107.623 25.6809C107.623 24.6617 106.789 23.8279 105.77 23.8279C104.751 23.8279 103.917 24.6617 103.917 25.6809C103.917 26.7 104.751 27.5338 105.77 27.5338Z" fill="#00FF00"/>
<path d="M140.148 14.2349V22.3205H138.928V14.2349H140.148ZM141.924 22.3205V14.2349H144.806C145.435 14.2349 145.956 14.3494 146.37 14.5784C146.783 14.8073 147.092 15.1206 147.297 15.518C147.503 15.9128 147.605 16.3576 147.605 16.8524C147.605 17.3499 147.501 17.7973 147.293 18.1948C147.088 18.5896 146.778 18.9028 146.362 19.1344C145.949 19.3634 145.429 19.4779 144.802 19.4779H142.82V18.4435H144.692C145.089 18.4435 145.412 18.3751 145.659 18.2382C145.906 18.0987 146.088 17.9092 146.204 17.6697C146.32 17.4302 146.378 17.1578 146.378 16.8524C146.378 16.5471 146.32 16.276 146.204 16.0391C146.088 15.8023 145.905 15.6167 145.655 15.4825C145.408 15.3482 145.081 15.2811 144.676 15.2811H143.144V22.3205H141.924ZM126.357 29.3589C126.315 28.9852 126.141 28.6957 125.836 28.4904C125.531 28.2824 125.146 28.1785 124.683 28.1785C124.351 28.1785 124.064 28.2311 123.822 28.3364C123.58 28.439 123.392 28.5812 123.258 28.7628C123.126 28.9418 123.06 29.1457 123.06 29.3747C123.06 29.5669 123.105 29.7327 123.195 29.8722C123.287 30.0117 123.406 30.1288 123.554 30.2236C123.704 30.3157 123.864 30.3933 124.036 30.4565C124.207 30.517 124.371 30.567 124.529 30.6065L125.319 30.8118C125.577 30.875 125.841 30.9605 126.112 31.0684C126.383 31.1764 126.635 31.3185 126.866 31.4948C127.098 31.6712 127.285 31.8896 127.427 32.1502C127.572 32.4108 127.644 32.7227 127.644 33.0859C127.644 33.5439 127.526 33.9505 127.289 34.3058C127.054 34.6612 126.714 34.9415 126.266 35.1468C125.821 35.3521 125.283 35.4547 124.651 35.4547C124.046 35.4547 123.522 35.3587 123.08 35.1665C122.638 34.9744 122.292 34.702 122.042 34.3493C121.792 33.9939 121.654 33.5728 121.627 33.0859H122.851C122.875 33.3781 122.97 33.6215 123.135 33.8163C123.304 34.0084 123.518 34.1519 123.779 34.2466C124.042 34.3387 124.33 34.3848 124.644 34.3848C124.988 34.3848 125.295 34.3309 125.563 34.2229C125.835 34.1124 126.048 33.9597 126.203 33.765C126.358 33.5676 126.436 33.3373 126.436 33.0741C126.436 32.8345 126.367 32.6385 126.231 32.4858C126.096 32.3331 125.913 32.2068 125.682 32.1068C125.453 32.0068 125.194 31.9186 124.904 31.8423L123.949 31.5817C123.301 31.4053 122.788 31.1461 122.409 30.8039C122.033 30.4618 121.844 30.009 121.844 29.4458C121.844 28.9799 121.971 28.5733 122.223 28.2258C122.476 27.8784 122.818 27.6086 123.25 27.4165C123.682 27.2217 124.168 27.1243 124.711 27.1243C125.258 27.1243 125.741 27.2204 126.16 27.4125C126.581 27.6047 126.912 27.8692 127.154 28.2061C127.397 28.5404 127.523 28.9246 127.533 29.3589H126.357ZM131.621 35.4429C131.023 35.4429 130.509 35.3152 130.077 35.0599C129.648 34.802 129.316 34.4401 129.082 33.9742C128.85 33.5057 128.735 32.9569 128.735 32.3279C128.735 31.7067 128.85 31.1592 129.082 30.6855C129.316 30.2117 129.643 29.8419 130.061 29.5761C130.482 29.3102 130.975 29.1773 131.538 29.1773C131.88 29.1773 132.212 29.2339 132.533 29.3471C132.854 29.4603 133.142 29.6379 133.397 29.8801C133.653 30.1222 133.854 30.4368 134.001 30.8237C134.149 31.2079 134.222 31.6751 134.222 32.2252V32.6437H129.402V31.7594H133.066C133.066 31.4488 133.003 31.1737 132.876 30.9342C132.75 30.6921 132.572 30.5012 132.343 30.3617C132.117 30.2222 131.851 30.1525 131.546 30.1525C131.214 30.1525 130.925 30.2341 130.677 30.3973C130.432 30.5578 130.243 30.7684 130.109 31.029C129.977 31.2869 129.911 31.5672 129.911 31.8699V32.5608C129.911 32.9661 129.982 33.3109 130.124 33.5952C130.269 33.8795 130.471 34.0966 130.728 34.2466C130.986 34.394 131.288 34.4677 131.633 34.4677C131.856 34.4677 132.06 34.4361 132.245 34.373C132.429 34.3072 132.588 34.2098 132.722 34.0808C132.856 33.9518 132.959 33.7926 133.03 33.6031L134.147 33.8044C134.058 34.1334 133.897 34.4217 133.666 34.6691C133.437 34.9138 133.149 35.1047 132.801 35.2415C132.456 35.3758 132.063 35.4429 131.621 35.4429ZM138.087 35.4429C137.5 35.4429 136.994 35.31 136.571 35.0441C136.149 34.7757 135.826 34.4059 135.599 33.9347C135.373 33.4636 135.26 32.924 135.26 32.316C135.26 31.7001 135.376 31.1566 135.607 30.6855C135.839 30.2117 136.165 29.8419 136.586 29.5761C137.008 29.3102 137.504 29.1773 138.075 29.1773C138.535 29.1773 138.946 29.2629 139.307 29.4339C139.667 29.6024 139.958 29.8393 140.179 30.1446C140.403 30.4499 140.536 30.8066 140.578 31.2145H139.429C139.366 30.9303 139.221 30.6855 138.995 30.4802C138.771 30.2749 138.471 30.1722 138.095 30.1722C137.766 30.1722 137.477 30.2591 137.23 30.4328C136.985 30.6039 136.794 30.8487 136.657 31.1671C136.521 31.483 136.452 31.8567 136.452 32.2884C136.452 32.7306 136.519 33.1122 136.653 33.4333C136.788 33.7544 136.977 34.0032 137.222 34.1795C137.469 34.3559 137.76 34.444 138.095 34.444C138.318 34.444 138.521 34.4032 138.703 34.3216C138.887 34.2374 139.041 34.1177 139.164 33.9624C139.291 33.8071 139.379 33.6202 139.429 33.4017H140.578C140.536 33.7939 140.408 34.144 140.195 34.4519C139.982 34.7599 139.696 35.002 139.338 35.1784C138.983 35.3547 138.566 35.4429 138.087 35.4429ZM145.682 32.8056V29.2563H146.866V35.3205H145.705V34.2703H145.642C145.503 34.5941 145.279 34.8638 144.971 35.0797C144.666 35.2929 144.285 35.3995 143.83 35.3995C143.441 35.3995 143.096 35.3139 142.796 35.1428C142.498 34.9691 142.264 34.7125 142.093 34.373C141.924 34.0334 141.84 33.6136 141.84 33.1135V29.2563H143.021V32.9714C143.021 33.3846 143.135 33.7136 143.364 33.9584C143.593 34.2032 143.891 34.3256 144.256 34.3256C144.478 34.3256 144.697 34.2703 144.916 34.1598C145.137 34.0492 145.32 33.8821 145.465 33.6584C145.612 33.4346 145.684 33.1504 145.682 32.8056ZM148.452 35.3205V29.2563H149.593V30.2196H149.656C149.767 29.8932 149.962 29.6366 150.241 29.4497C150.522 29.2602 150.841 29.1655 151.196 29.1655C151.27 29.1655 151.357 29.1681 151.457 29.1734C151.559 29.1786 151.64 29.1852 151.698 29.1931V30.3223C151.65 30.3091 151.566 30.2946 151.445 30.2788C151.324 30.2604 151.203 30.2512 151.082 30.2512C150.803 30.2512 150.554 30.3104 150.335 30.4289C150.12 30.5447 149.949 30.7065 149.822 30.9145C149.696 31.1198 149.633 31.354 149.633 31.6172V35.3205H148.452ZM152.719 35.3205V29.2563H153.9V35.3205H152.719ZM153.315 28.3206C153.11 28.3206 152.934 28.2522 152.786 28.1153C152.641 27.9758 152.569 27.81 152.569 27.6178C152.569 27.4231 152.641 27.2573 152.786 27.1204C152.934 26.9809 153.11 26.9111 153.315 26.9111C153.521 26.9111 153.696 26.9809 153.84 27.1204C153.988 27.2573 154.061 27.4231 154.061 27.6178C154.061 27.81 153.988 27.9758 153.84 28.1153C153.696 28.2522 153.521 28.3206 153.315 28.3206ZM158.318 29.2563V30.2038H155.006V29.2563H158.318ZM155.894 27.8034H157.075V33.5399C157.075 33.7689 157.109 33.9413 157.177 34.0571C157.246 34.1703 157.334 34.2479 157.442 34.2901C157.553 34.3295 157.672 34.3493 157.801 34.3493C157.896 34.3493 157.979 34.3427 158.05 34.3295C158.121 34.3164 158.176 34.3058 158.216 34.2979L158.429 35.2731C158.361 35.2994 158.263 35.3258 158.137 35.3521C158.01 35.381 157.853 35.3968 157.663 35.3995C157.352 35.4047 157.063 35.3494 156.794 35.2336C156.526 35.1178 156.309 34.9389 156.143 34.6967C155.977 34.4546 155.894 34.1506 155.894 33.7847V27.8034ZM160.37 37.5946C160.194 37.5946 160.034 37.5801 159.889 37.5511C159.744 37.5248 159.636 37.4959 159.565 37.4643L159.849 36.497C160.065 36.5549 160.257 36.5799 160.426 36.572C160.594 36.5641 160.743 36.501 160.872 36.3825C161.003 36.2641 161.119 36.0706 161.219 35.8022L161.365 35.3995L159.147 29.2563H160.41L161.946 33.9624H162.009L163.545 29.2563H164.812L162.313 36.1298C162.197 36.4457 162.05 36.7128 161.871 36.9313C161.692 37.1524 161.479 37.3182 161.231 37.4288C160.984 37.5393 160.697 37.5946 160.37 37.5946Z" fill="#212528"/>
</g>
<g filter="url(#filter1_d_321_384)">
<rect x="0.846313" y="57.6443" width="185.295" height="46.3238" rx="7.41181" fill="white" shape-rendering="crispEdges"/>
<rect x="1.07793" y="57.8759" width="184.832" height="45.8606" rx="7.18019" stroke="#212528" stroke-width="0.463238" shape-rendering="crispEdges"/>
<path d="M30.641 70.615L22.3027 74.3209V79.8797C22.3027 85.0217 25.8604 89.8301 30.641 90.9974C35.4216 89.8301 38.9793 85.0217 38.9793 79.8797V74.3209L30.641 70.615ZM37.1264 79.8797C37.1264 84.0674 34.3655 87.9308 30.641 89.0796C26.9166 87.9308 24.1557 84.0674 24.1557 79.8797V75.5253L30.641 72.644L37.1264 75.5253V79.8797ZM26.3885 80.4264L25.0822 81.7327L28.7881 85.4386L36.1999 78.0268L34.8935 76.7112L28.7881 82.8167L26.3885 80.4264Z" fill="#0074FF"/>
<path d="M52.529 77.8575C52.4728 77.3591 52.2412 76.9731 51.8341 76.6994C51.427 76.4221 50.9147 76.2835 50.297 76.2835C49.8548 76.2835 49.4723 76.3537 49.1494 76.4941C48.8266 76.6309 48.5757 76.8204 48.3967 77.0626C48.2212 77.3012 48.1335 77.5732 48.1335 77.8785C48.1335 78.1347 48.1931 78.3558 48.3125 78.5418C48.4353 78.7278 48.595 78.884 48.7915 79.0103C48.9915 79.1331 49.2056 79.2366 49.4337 79.3209C49.6618 79.4016 49.8812 79.4683 50.0917 79.5209L51.1445 79.7946C51.4885 79.8789 51.8411 79.9929 52.2026 80.1368C52.5641 80.2807 52.8992 80.4702 53.208 80.7053C53.5169 80.9404 53.766 81.2317 53.9555 81.5792C54.1486 81.9266 54.2451 82.3424 54.2451 82.8267C54.2451 83.4374 54.0871 83.9796 53.7713 84.4533C53.459 84.9271 53.0045 85.3009 52.4079 85.5746C51.8148 85.8483 51.0972 85.9852 50.2549 85.9852C49.4477 85.9852 48.7494 85.8571 48.1598 85.6009C47.5702 85.3447 47.1087 84.9815 46.7754 84.5112C46.442 84.0375 46.2577 83.476 46.2226 82.8267H47.8545C47.8861 83.2163 48.0124 83.5409 48.2335 83.8006C48.4581 84.0568 48.7441 84.248 49.0915 84.3744C49.4425 84.4972 49.8268 84.5586 50.2444 84.5586C50.7041 84.5586 51.1129 84.4867 51.4709 84.3428C51.8324 84.1954 52.1166 83.9919 52.3237 83.7322C52.5307 83.469 52.6343 83.1619 52.6343 82.8109C52.6343 82.4916 52.543 82.2301 52.3605 82.0266C52.1816 81.8231 51.9377 81.6546 51.6288 81.5213C51.3235 81.3879 50.9778 81.2703 50.5918 81.1686L49.3179 80.8211C48.4546 80.586 47.7703 80.2403 47.2649 79.7841C46.7631 79.3279 46.5121 78.7243 46.5121 77.9733C46.5121 77.3521 46.6806 76.8099 47.0175 76.3467C47.3544 75.8834 47.8106 75.5237 48.3862 75.2675C48.9617 75.0078 49.6109 74.878 50.3339 74.878C51.0638 74.878 51.7078 75.0061 52.2658 75.2623C52.8273 75.5185 53.2695 75.8711 53.5923 76.3204C53.9152 76.766 54.0836 77.2784 54.0977 77.8575H52.529ZM59.5473 85.9694C58.7507 85.9694 58.0646 85.7992 57.4891 85.4588C56.917 85.1149 56.4748 84.6323 56.1625 84.0112C55.8537 83.3865 55.6993 82.6548 55.6993 81.816C55.6993 80.9878 55.8537 80.2579 56.1625 79.6262C56.4748 78.9945 56.91 78.5014 57.468 78.147C58.0295 77.7925 58.6858 77.6153 59.4368 77.6153C59.893 77.6153 60.3352 77.6908 60.7633 77.8417C61.1914 77.9926 61.5757 78.2295 61.9161 78.5523C62.2565 78.8752 62.525 79.2946 62.7215 79.8104C62.9181 80.3228 63.0163 80.9457 63.0163 81.6792V82.2372H56.5889V81.058H61.474C61.474 80.6439 61.3897 80.2772 61.2213 79.9578C61.0528 79.635 60.8159 79.3805 60.5106 79.1945C60.2088 79.0085 59.8544 78.9155 59.4473 78.9155C59.0051 78.9155 58.6191 79.0243 58.2892 79.2419C57.9628 79.456 57.7101 79.7367 57.5312 80.0842C57.3557 80.4281 57.268 80.8018 57.268 81.2054V82.1266C57.268 82.6671 57.3627 83.1268 57.5522 83.5058C57.7452 83.8848 58.0137 84.1743 58.3576 84.3744C58.7015 84.5709 59.1034 84.6692 59.5631 84.6692C59.8614 84.6692 60.1334 84.6271 60.379 84.5428C60.6247 84.4551 60.837 84.3252 61.016 84.1533C61.195 83.9813 61.3318 83.769 61.4266 83.5163L62.9163 83.7848C62.797 84.2235 62.5829 84.6078 62.2741 84.9376C61.9688 85.264 61.5845 85.5184 61.1213 85.7009C60.6615 85.8799 60.1369 85.9694 59.5473 85.9694ZM68.1685 85.9694C67.3859 85.9694 66.7121 85.7922 66.1471 85.4377C65.5856 85.0798 65.154 84.5867 64.8522 83.9585C64.5504 83.3303 64.3995 82.6109 64.3995 81.8002C64.3995 80.9791 64.5539 80.2544 64.8627 79.6262C65.1715 78.9945 65.6067 78.5014 66.1682 78.147C66.7297 77.7925 67.3912 77.6153 68.1527 77.6153C68.7669 77.6153 69.3143 77.7294 69.7951 77.9575C70.2759 78.1821 70.6637 78.4979 70.9585 78.905C71.2568 79.3121 71.434 79.7876 71.4902 80.3316H69.9583C69.8741 79.9526 69.6811 79.6262 69.3793 79.3525C69.081 79.0787 68.6809 78.9419 68.1791 78.9419C67.7404 78.9419 67.3561 79.0577 67.0262 79.2893C66.6999 79.5174 66.4454 79.8438 66.2629 80.2684C66.0805 80.6895 65.9892 81.1879 65.9892 81.7634C65.9892 82.353 66.0787 82.8618 66.2577 83.29C66.4367 83.7181 66.6893 84.0498 67.0157 84.2849C67.3456 84.52 67.7334 84.6376 68.1791 84.6376C68.4774 84.6376 68.7476 84.5832 68.9897 84.4744C69.2354 84.3621 69.4407 84.2024 69.6056 83.9954C69.7741 83.7883 69.8916 83.5391 69.9583 83.2479H71.4902C71.434 83.7708 71.2638 84.2375 70.9796 84.6481C70.6953 85.0587 70.3145 85.3816 69.8372 85.6167C69.3635 85.8518 68.8072 85.9694 68.1685 85.9694ZM78.2953 82.453V77.7206H79.8745V85.8062H78.3269V84.406H78.2427C78.0567 84.8376 77.7584 85.1973 77.3478 85.4851C76.9407 85.7694 76.4336 85.9115 75.8264 85.9115C75.3071 85.9115 74.8473 85.7974 74.4473 85.5693C74.0507 85.3377 73.7384 84.9955 73.5103 84.5428C73.2857 84.0901 73.1734 83.5304 73.1734 82.8636V77.7206H74.7473V82.6741C74.7473 83.2251 74.9 83.6637 75.2053 83.9901C75.5106 84.3165 75.9072 84.4797 76.395 84.4797C76.6897 84.4797 76.9828 84.406 77.2741 84.2586C77.5688 84.1112 77.8128 83.8883 78.0058 83.59C78.2023 83.2917 78.2988 82.9127 78.2953 82.453ZM81.9894 85.8062V77.7206H83.5107V79.005H83.5949C83.7423 78.5699 84.002 78.2277 84.374 77.9785C84.7495 77.7259 85.1741 77.5995 85.6479 77.5995C85.7461 77.5995 85.862 77.603 85.9953 77.61C86.1322 77.6171 86.2392 77.6258 86.3164 77.6364V79.1419C86.2532 79.1243 86.1409 79.105 85.9795 79.084C85.8181 79.0594 85.6567 79.0471 85.4952 79.0471C85.1232 79.0471 84.7916 79.1261 84.5003 79.284C84.2125 79.4384 83.9844 79.6543 83.816 79.9315C83.6475 80.2052 83.5633 80.5176 83.5633 80.8685V85.8062H81.9894ZM90.8738 85.9694C90.0772 85.9694 89.3911 85.7992 88.8155 85.4588C88.2435 85.1149 87.8013 84.6323 87.489 84.0112C87.1802 83.3865 87.0258 82.6548 87.0258 81.816C87.0258 80.9878 87.1802 80.2579 87.489 79.6262C87.8013 78.9945 88.2365 78.5014 88.7945 78.147C89.356 77.7925 90.0122 77.6153 90.7632 77.6153C91.2195 77.6153 91.6616 77.6908 92.0898 77.8417C92.5179 77.9926 92.9022 78.2295 93.2426 78.5523C93.583 78.8752 93.8515 79.2946 94.048 79.8104C94.2445 80.3228 94.3428 80.9457 94.3428 81.6792V82.2372H87.9154V81.058H92.8004C92.8004 80.6439 92.7162 80.2772 92.5478 79.9578C92.3793 79.635 92.1424 79.3805 91.8371 79.1945C91.5353 79.0085 91.1809 78.9155 90.7738 78.9155C90.3316 78.9155 89.9456 79.0243 89.6157 79.2419C89.2893 79.456 89.0366 79.7367 88.8576 80.0842C88.6822 80.4281 88.5944 80.8018 88.5944 81.2054V82.1266C88.5944 82.6671 88.6892 83.1268 88.8787 83.5058C89.0717 83.8848 89.3402 84.1743 89.6841 84.3744C90.028 84.5709 90.4299 84.6692 90.8896 84.6692C91.1879 84.6692 91.4599 84.6271 91.7055 84.5428C91.9512 84.4551 92.1635 84.3252 92.3425 84.1533C92.5214 83.9813 92.6583 83.769 92.7531 83.5163L94.2428 83.7848C94.1235 84.2235 93.9094 84.6078 93.6006 84.9376C93.2953 85.264 92.911 85.5184 92.4477 85.7009C91.988 85.8799 91.4634 85.9694 90.8738 85.9694ZM103.15 85.9589C102.427 85.9589 101.804 85.8273 101.281 85.5641C100.761 85.3009 100.361 84.9429 100.081 84.4902C99.7999 84.034 99.6595 83.5181 99.6595 82.9426C99.6595 82.5039 99.7508 82.1143 99.9333 81.7739C100.116 81.43 100.37 81.1124 100.697 80.8211C101.023 80.5299 101.4 80.2368 101.828 79.942L103.565 78.7155C103.86 78.5225 104.09 78.3189 104.255 78.1049C104.42 77.8873 104.502 77.6188 104.502 77.2995C104.502 77.0468 104.394 76.8046 104.176 76.573C103.959 76.3414 103.667 76.2256 103.302 76.2256C103.05 76.2256 102.827 76.287 102.634 76.4098C102.444 76.5327 102.295 76.6906 102.186 76.8836C102.081 77.0731 102.028 77.2731 102.028 77.4837C102.028 77.7294 102.095 77.9768 102.228 78.2259C102.365 78.4751 102.541 78.733 102.755 78.9998C102.969 79.263 103.193 79.5367 103.429 79.821L108.435 85.8062H106.655L102.513 80.9369C102.165 80.5263 101.842 80.1403 101.544 79.7788C101.246 79.4139 101.004 79.0454 100.818 78.6734C100.635 78.2979 100.544 77.8926 100.544 77.4574C100.544 76.9626 100.656 76.5239 100.881 76.1414C101.109 75.7553 101.426 75.4535 101.834 75.236C102.241 75.0184 102.718 74.9096 103.265 74.9096C103.82 74.9096 104.295 75.0184 104.692 75.236C105.092 75.45 105.399 75.736 105.613 76.094C105.831 76.4484 105.94 76.8362 105.94 77.2574C105.94 77.7697 105.811 78.2224 105.555 78.6155C105.303 79.005 104.953 79.363 104.508 79.6894L102.344 81.2844C101.923 81.5932 101.63 81.8985 101.465 82.2003C101.304 82.4986 101.223 82.732 101.223 82.9004C101.223 83.2093 101.302 83.4953 101.46 83.7585C101.621 84.0217 101.846 84.2322 102.134 84.3902C102.425 84.5481 102.765 84.6271 103.155 84.6271C103.555 84.6271 103.944 84.5411 104.323 84.3691C104.706 84.1936 105.052 83.9427 105.361 83.6164C105.673 83.29 105.92 82.8987 106.103 82.4425C106.285 81.9862 106.376 81.4756 106.376 80.9106H107.798C107.798 81.6055 107.719 82.1933 107.561 82.6741C107.403 83.1514 107.212 83.5409 106.987 83.8427C106.766 84.141 106.557 84.3744 106.361 84.5428C106.298 84.599 106.238 84.6551 106.182 84.7113C106.126 84.7674 106.066 84.8236 106.003 84.8797C105.638 85.2482 105.196 85.5202 104.676 85.6957C104.16 85.8711 103.651 85.9589 103.15 85.9589ZM114.659 75.0254L117.66 83.8059H117.781L120.782 75.0254H122.54L118.66 85.8062H116.781L112.901 75.0254H114.659ZM126.644 85.9694C125.848 85.9694 125.162 85.7992 124.586 85.4588C124.014 85.1149 123.572 84.6323 123.26 84.0112C122.951 83.3865 122.796 82.6548 122.796 81.816C122.796 80.9878 122.951 80.2579 123.26 79.6262C123.572 78.9945 124.007 78.5014 124.565 78.147C125.127 77.7925 125.783 77.6153 126.534 77.6153C126.99 77.6153 127.432 77.6908 127.86 77.8417C128.289 77.9926 128.673 78.2295 129.013 78.5523C129.354 78.8752 129.622 79.2946 129.819 79.8104C130.015 80.3228 130.113 80.9457 130.113 81.6792V82.2372H123.686V81.058H128.571C128.571 80.6439 128.487 80.2772 128.318 79.9578C128.15 79.635 127.913 79.3805 127.608 79.1945C127.306 79.0085 126.952 78.9155 126.544 78.9155C126.102 78.9155 125.716 79.0243 125.386 79.2419C125.06 79.456 124.807 79.7367 124.628 80.0842C124.453 80.4281 124.365 80.8018 124.365 81.2054V82.1266C124.365 82.6671 124.46 83.1268 124.649 83.5058C124.842 83.8848 125.111 84.1743 125.455 84.3744C125.799 84.5709 126.201 84.6692 126.66 84.6692C126.959 84.6692 127.231 84.6271 127.476 84.5428C127.722 84.4551 127.934 84.3252 128.113 84.1533C128.292 83.9813 128.429 83.769 128.524 83.5163L130.013 83.7848C129.894 84.2235 129.68 84.6078 129.371 84.9376C129.066 85.264 128.682 85.5184 128.218 85.7009C127.759 85.8799 127.234 85.9694 126.644 85.9694ZM131.86 85.8062V77.7206H133.381V79.005H133.465C133.613 78.5699 133.872 78.2277 134.244 77.9785C134.62 77.7259 135.045 77.5995 135.518 77.5995C135.617 77.5995 135.732 77.603 135.866 77.61C136.003 77.6171 136.11 77.6258 136.187 77.6364V79.1419C136.124 79.1243 136.011 79.105 135.85 79.084C135.689 79.0594 135.527 79.0471 135.366 79.0471C134.994 79.0471 134.662 79.1261 134.371 79.284C134.083 79.4384 133.855 79.6543 133.686 79.9315C133.518 80.2052 133.434 80.5176 133.434 80.8685V85.8062H131.86ZM137.549 85.8062V77.7206H139.123V85.8062H137.549ZM138.344 76.473C138.07 76.473 137.835 76.3818 137.638 76.1993C137.445 76.0133 137.349 75.7922 137.349 75.536C137.349 75.2763 137.445 75.0552 137.638 74.8727C137.835 74.6867 138.07 74.5937 138.344 74.5937C138.618 74.5937 138.851 74.6867 139.044 74.8727C139.241 75.0552 139.339 75.2763 139.339 75.536C139.339 75.7922 139.241 76.0133 139.044 76.1993C138.851 76.3818 138.618 76.473 138.344 76.473ZM145.088 77.7206V78.984H140.519V77.7206H145.088ZM141.772 85.8062V76.7836C141.772 76.2782 141.883 75.8589 142.104 75.5255C142.325 75.1886 142.618 74.9377 142.983 74.7727C143.348 74.6043 143.744 74.52 144.173 74.52C144.488 74.52 144.759 74.5464 144.983 74.599C145.208 74.6481 145.374 74.6938 145.483 74.7359L145.115 76.0098C145.041 75.9887 144.946 75.9641 144.831 75.9361C144.715 75.9045 144.574 75.8887 144.409 75.8887C144.027 75.8887 143.753 75.9834 143.588 76.173C143.427 76.3625 143.346 76.6362 143.346 76.9942V85.8062H141.772ZM146.712 85.8062V77.7206H148.286V85.8062H146.712ZM147.507 76.473C147.234 76.473 146.998 76.3818 146.802 76.1993C146.609 76.0133 146.512 75.7922 146.512 75.536C146.512 75.2763 146.609 75.0552 146.802 74.8727C146.998 74.6867 147.234 74.5937 147.507 74.5937C147.781 74.5937 148.014 74.6867 148.207 74.8727C148.404 75.0552 148.502 75.2763 148.502 75.536C148.502 75.7922 148.404 76.0133 148.207 76.1993C148.014 76.3818 147.781 76.473 147.507 76.473ZM153.889 85.9694C153.092 85.9694 152.406 85.7992 151.83 85.4588C151.258 85.1149 150.816 84.6323 150.504 84.0112C150.195 83.3865 150.041 82.6548 150.041 81.816C150.041 80.9878 150.195 80.2579 150.504 79.6262C150.816 78.9945 151.251 78.5014 151.809 78.147C152.371 77.7925 153.027 77.6153 153.778 77.6153C154.234 77.6153 154.677 77.6908 155.105 77.8417C155.533 77.9926 155.917 78.2295 156.257 78.5523C156.598 78.8752 156.866 79.2946 157.063 79.8104C157.259 80.3228 157.358 80.9457 157.358 81.6792V82.2372H150.93V81.058H155.815C155.815 80.6439 155.731 80.2772 155.563 79.9578C155.394 79.635 155.157 79.3805 154.852 79.1945C154.55 79.0085 154.196 78.9155 153.789 78.9155C153.346 78.9155 152.96 79.0243 152.631 79.2419C152.304 79.456 152.051 79.7367 151.873 80.0842C151.697 80.4281 151.609 80.8018 151.609 81.2054V82.1266C151.609 82.6671 151.704 83.1268 151.894 83.5058C152.087 83.8848 152.355 84.1743 152.699 84.3744C153.043 84.5709 153.445 84.6692 153.904 84.6692C154.203 84.6692 154.475 84.6271 154.72 84.5428C154.966 84.4551 155.178 84.3252 155.357 84.1533C155.536 83.9813 155.673 83.769 155.768 83.5163L157.258 83.7848C157.138 84.2235 156.924 84.6078 156.615 84.9376C156.31 85.264 155.926 85.5184 155.463 85.7009C155.003 85.8799 154.478 85.9694 153.889 85.9694ZM162.131 85.9641C161.478 85.9641 160.896 85.7974 160.383 85.464C159.874 85.1271 159.474 84.6481 159.183 84.0269C158.895 83.4023 158.751 82.653 158.751 81.7792C158.751 80.9054 158.897 80.1579 159.188 79.5367C159.483 78.9155 159.887 78.44 160.399 78.1101C160.911 77.7803 161.492 77.6153 162.141 77.6153C162.643 77.6153 163.047 77.6995 163.352 77.868C163.661 78.0329 163.9 78.2259 164.068 78.447C164.24 78.6681 164.373 78.8629 164.468 79.0313H164.563V75.0254H166.137V85.8062H164.6V84.5481H164.468C164.373 84.7201 164.237 84.9166 164.058 85.1377C163.882 85.3588 163.64 85.5518 163.331 85.7167C163.022 85.8817 162.622 85.9641 162.131 85.9641ZM162.478 84.6218C162.931 84.6218 163.314 84.5025 163.626 84.2638C163.942 84.0217 164.18 83.6865 164.342 83.2584C164.507 82.8303 164.589 82.3319 164.589 81.7634C164.589 81.2019 164.508 80.7106 164.347 80.2895C164.186 79.8683 163.949 79.5402 163.636 79.3051C163.324 79.0699 162.938 78.9524 162.478 78.9524C162.005 78.9524 161.61 79.0752 161.294 79.3209C160.978 79.5665 160.739 79.9017 160.578 80.3263C160.42 80.7509 160.341 81.23 160.341 81.7634C160.341 82.3038 160.422 82.7899 160.583 83.2215C160.745 83.6532 160.983 83.9954 161.299 84.248C161.619 84.4972 162.012 84.6218 162.478 84.6218Z" fill="#212528"/>
</g>
<g filter="url(#filter2_d_321_384)">
<rect x="0.846313" y="115.086" width="87.0888" height="87.0888" rx="7.41181" fill="white" shape-rendering="crispEdges"/>
<rect x="1.07793" y="115.317" width="86.6255" height="86.6255" rx="7.18019" stroke="#212528" stroke-width="0.463238" shape-rendering="crispEdges"/>
<path d="M49.023 136.365L52.7289 140.071L49.023 143.777V140.998H45.3171V139.145H49.023V136.365ZM42.5377 139.145C42.0281 139.145 41.6112 139.562 41.6112 140.071C41.6112 140.581 42.0281 140.998 42.5377 140.998C43.0473 140.998 43.4642 140.581 43.4642 140.071C43.4642 139.562 43.0473 139.145 42.5377 139.145ZM38.8318 139.145C38.3222 139.145 37.9053 139.562 37.9053 140.071C37.9053 140.581 38.3222 140.998 38.8318 140.998C39.3414 140.998 39.7583 140.581 39.7583 140.071C39.7583 139.562 39.3414 139.145 38.8318 139.145ZM39.7583 148.41H43.4642V146.557H39.7583V143.777L36.0524 147.483L39.7583 151.189V148.41ZM46.2436 148.41C46.7532 148.41 47.1701 147.993 47.1701 147.483C47.1701 146.974 46.7532 146.557 46.2436 146.557C45.734 146.557 45.3171 146.974 45.3171 147.483C45.3171 147.993 45.734 148.41 46.2436 148.41ZM49.9495 148.41C50.4591 148.41 50.876 147.993 50.876 147.483C50.876 146.974 50.4591 146.557 49.9495 146.557C49.44 146.557 49.023 146.974 49.023 147.483C49.023 147.993 49.44 148.41 49.9495 148.41Z" fill="#F2A50D"/>
<path d="M18.9263 162.565V161.515H25.184V162.565H22.6612V169.601H21.4452V162.565H18.9263ZM27.0919 169.601L25.3073 163.537H26.5273L27.7157 167.99H27.7749L28.9672 163.537H30.1871L31.3715 167.97H31.4308L32.6112 163.537H33.8312L32.0506 169.601H30.8465L29.6147 165.223H29.5239L28.2921 169.601H27.0919ZM37.3213 169.723C36.7527 169.723 36.2566 169.593 35.8328 169.332C35.4091 169.072 35.0801 168.707 34.8458 168.239C34.6116 167.77 34.4945 167.223 34.4945 166.596C34.4945 165.967 34.6116 165.417 34.8458 164.946C35.0801 164.475 35.4091 164.109 35.8328 163.849C36.2566 163.588 36.7527 163.458 37.3213 163.458C37.8898 163.458 38.3859 163.588 38.8097 163.849C39.2334 164.109 39.5624 164.475 39.7967 164.946C40.0309 165.417 40.1481 165.967 40.1481 166.596C40.1481 167.223 40.0309 167.77 39.7967 168.239C39.5624 168.707 39.2334 169.072 38.8097 169.332C38.3859 169.593 37.8898 169.723 37.3213 169.723ZM37.3252 168.732C37.6937 168.732 37.999 168.635 38.2412 168.44C38.4833 168.245 38.6623 167.986 38.7781 167.662C38.8965 167.339 38.9558 166.982 38.9558 166.592C38.9558 166.206 38.8965 165.85 38.7781 165.527C38.6623 165.2 38.4833 164.938 38.2412 164.741C37.999 164.543 37.6937 164.445 37.3252 164.445C36.9541 164.445 36.6461 164.543 36.4014 164.741C36.1592 164.938 35.9789 165.2 35.8605 165.527C35.7447 165.85 35.6868 166.206 35.6868 166.592C35.6868 166.982 35.7447 167.339 35.8605 167.662C35.9789 167.986 36.1592 168.245 36.4014 168.44C36.6461 168.635 36.9541 168.732 37.3252 168.732ZM45.0387 165.673V166.695H41.4539V165.673H45.0387ZM47.9267 169.601L46.1422 163.537H47.3622L48.5505 167.99H48.6097L49.802 163.537H51.022L52.2064 167.97H52.2656L53.4461 163.537H54.666L52.8855 169.601H51.6813L50.4495 165.223H50.3587L49.1269 169.601H47.9267ZM57.5511 169.735C57.1668 169.735 56.8194 169.664 56.5088 169.522C56.1982 169.377 55.9521 169.168 55.7705 168.894C55.5915 168.62 55.5021 168.285 55.5021 167.887C55.5021 167.545 55.5679 167.264 55.6995 167.043C55.8311 166.821 56.0087 166.646 56.2324 166.517C56.4562 166.388 56.7062 166.291 56.9826 166.225C57.2589 166.16 57.5406 166.109 57.8275 166.075C58.1907 166.033 58.4855 165.999 58.7118 165.973C58.9382 165.944 59.1027 165.898 59.2053 165.834C59.308 165.771 59.3593 165.669 59.3593 165.527V165.499C59.3593 165.154 59.2619 164.887 59.0671 164.697C58.875 164.508 58.5881 164.413 58.2065 164.413C57.809 164.413 57.4958 164.501 57.2668 164.678C57.0405 164.851 56.8839 165.045 56.797 165.258L55.6876 165.005C55.8192 164.637 56.0113 164.339 56.264 164.113C56.5193 163.884 56.8128 163.718 57.1444 163.616C57.4761 163.51 57.8248 163.458 58.1907 163.458C58.4328 163.458 58.6894 163.487 58.9605 163.545C59.2343 163.6 59.4896 163.702 59.7265 163.853C59.966 164.003 60.1621 164.217 60.3147 164.496C60.4674 164.772 60.5437 165.132 60.5437 165.574V169.601H59.3909V168.772H59.3435C59.2672 168.924 59.1527 169.074 59 169.222C58.8474 169.369 58.6513 169.492 58.4118 169.589C58.1723 169.686 57.8854 169.735 57.5511 169.735ZM57.8077 168.788C58.1341 168.788 58.4131 168.723 58.6447 168.594C58.879 168.465 59.0566 168.297 59.1777 168.089C59.3014 167.878 59.3632 167.653 59.3632 167.414V166.632C59.3211 166.674 59.2395 166.714 59.1185 166.75C59 166.785 58.8645 166.815 58.7118 166.841C58.5592 166.865 58.4105 166.887 58.2657 166.908C58.1209 166.927 57.9999 166.943 57.9025 166.956C57.6735 166.985 57.4642 167.033 57.2747 167.102C57.0879 167.17 56.9378 167.269 56.8246 167.398C56.7141 167.524 56.6588 167.693 56.6588 167.903C56.6588 168.195 56.7667 168.416 56.9826 168.567C57.1984 168.714 57.4734 168.788 57.8077 168.788ZM62.6451 171.875C62.4687 171.875 62.3082 171.86 62.1634 171.832C62.0186 171.805 61.9107 171.776 61.8397 171.745L62.1239 170.777C62.3397 170.835 62.5319 170.86 62.7003 170.852C62.8688 170.845 63.0175 170.781 63.1465 170.663C63.2781 170.544 63.3939 170.351 63.4939 170.083L63.64 169.68L61.4212 163.537H62.6845L64.2203 168.243H64.2835L65.8193 163.537H67.0866L64.5875 170.41C64.4717 170.726 64.3243 170.993 64.1453 171.212C63.9663 171.433 63.7532 171.599 63.5057 171.709C63.2583 171.82 62.9714 171.875 62.6451 171.875ZM20.6669 176.537L18.4678 182.601H17.2045L15.0014 176.537H16.2688L17.8046 181.203H17.8677L19.3996 176.537H20.6669ZM24.1836 182.723C23.5862 182.723 23.0716 182.596 22.6399 182.34C22.2109 182.082 21.8793 181.72 21.645 181.255C21.4134 180.786 21.2976 180.237 21.2976 179.608C21.2976 178.987 21.4134 178.44 21.645 177.966C21.8793 177.492 22.2056 177.122 22.6241 176.856C23.0453 176.591 23.5375 176.458 24.1007 176.458C24.4429 176.458 24.7745 176.514 25.0956 176.627C25.4167 176.741 25.7049 176.918 25.9602 177.16C26.2156 177.403 26.4169 177.717 26.5643 178.104C26.7117 178.488 26.7854 178.956 26.7854 179.506V179.924H21.9648V179.04H25.6286C25.6286 178.729 25.5654 178.454 25.4391 178.215C25.3128 177.972 25.1351 177.782 24.9061 177.642C24.6798 177.503 24.4139 177.433 24.1086 177.433C23.777 177.433 23.4875 177.514 23.24 177.678C22.9953 177.838 22.8058 178.049 22.6715 178.309C22.5399 178.567 22.4741 178.848 22.4741 179.15V179.841C22.4741 180.247 22.5452 180.591 22.6873 180.876C22.8321 181.16 23.0334 181.377 23.2914 181.527C23.5493 181.674 23.8507 181.748 24.1955 181.748C24.4192 181.748 24.6232 181.717 24.8074 181.653C24.9917 181.588 25.1509 181.49 25.2851 181.361C25.4194 181.232 25.522 181.073 25.5931 180.883L26.7104 181.085C26.6209 181.414 26.4603 181.702 26.2287 181.949C25.9997 182.194 25.7115 182.385 25.3641 182.522C25.0193 182.656 24.6258 182.723 24.1836 182.723ZM28.0952 182.601V176.537H29.2361V177.5H29.2993C29.4099 177.174 29.6046 176.917 29.8836 176.73C30.1653 176.541 30.4837 176.446 30.8391 176.446C30.9128 176.446 30.9996 176.449 31.0996 176.454C31.2023 176.459 31.2826 176.466 31.3405 176.474V177.603C31.2931 177.589 31.2089 177.575 31.0878 177.559C30.9667 177.541 30.8456 177.532 30.7246 177.532C30.4456 177.532 30.1968 177.591 29.9784 177.709C29.7626 177.825 29.5915 177.987 29.4651 178.195C29.3388 178.4 29.2756 178.634 29.2756 178.898V182.601H28.0952ZM32.362 182.601V176.537H33.5425V182.601H32.362ZM32.9582 175.601C32.7529 175.601 32.5765 175.533 32.4291 175.396C32.2844 175.256 32.212 175.09 32.212 174.898C32.212 174.703 32.2844 174.538 32.4291 174.401C32.5765 174.261 32.7529 174.192 32.9582 174.192C33.1635 174.192 33.3385 174.261 33.4833 174.401C33.6307 174.538 33.7044 174.703 33.7044 174.898C33.7044 175.09 33.6307 175.256 33.4833 175.396C33.3385 175.533 33.1635 175.601 32.9582 175.601ZM38.0166 176.537V177.484H34.5897V176.537H38.0166ZM35.5293 182.601V175.834C35.5293 175.455 35.6123 175.14 35.7781 174.89C35.9439 174.638 36.1637 174.449 36.4374 174.326C36.7111 174.199 37.0085 174.136 37.3297 174.136C37.5665 174.136 37.7692 174.156 37.9377 174.195C38.1061 174.232 38.2311 174.267 38.3127 174.298L38.0364 175.254C37.9811 175.238 37.91 175.219 37.8232 175.198C37.7363 175.175 37.631 175.163 37.5073 175.163C37.2204 175.163 37.0151 175.234 36.8914 175.376C36.7703 175.518 36.7098 175.723 36.7098 175.992V182.601H35.5293ZM39.2346 182.601V176.537H40.4151V182.601H39.2346ZM39.8307 175.601C39.6254 175.601 39.4491 175.533 39.3017 175.396C39.1569 175.256 39.0846 175.09 39.0846 174.898C39.0846 174.703 39.1569 174.538 39.3017 174.401C39.4491 174.261 39.6254 174.192 39.8307 174.192C40.036 174.192 40.2111 174.261 40.3558 174.401C40.5032 174.538 40.5769 174.703 40.5769 174.898C40.5769 175.09 40.5032 175.256 40.3558 175.396C40.2111 175.533 40.036 175.601 39.8307 175.601ZM44.5576 182.723C43.9706 182.723 43.4653 182.59 43.0415 182.325C42.6204 182.056 42.2966 181.686 42.0703 181.215C41.8439 180.744 41.7307 180.204 41.7307 179.596C41.7307 178.981 41.8466 178.437 42.0782 177.966C42.3098 177.492 42.6362 177.122 43.0573 176.856C43.4784 176.591 43.9746 176.458 44.5457 176.458C45.0063 176.458 45.4169 176.543 45.7775 176.714C46.1381 176.883 46.4289 177.12 46.65 177.425C46.8737 177.73 47.0067 178.087 47.0488 178.495H45.8999C45.8367 178.211 45.692 177.966 45.4656 177.761C45.2419 177.555 44.9418 177.453 44.5654 177.453C44.2364 177.453 43.9482 177.539 43.7008 177.713C43.456 177.884 43.2652 178.129 43.1284 178.448C42.9915 178.763 42.9231 179.137 42.9231 179.569C42.9231 180.011 42.9902 180.393 43.1244 180.714C43.2586 181.035 43.4481 181.284 43.6929 181.46C43.9403 181.636 44.2312 181.724 44.5654 181.724C44.7892 181.724 44.9918 181.684 45.1734 181.602C45.3577 181.518 45.5117 181.398 45.6354 181.243C45.7617 181.087 45.8499 180.901 45.8999 180.682H47.0488C47.0067 181.074 46.879 181.424 46.6658 181.732C46.4526 182.04 46.167 182.282 45.8091 182.459C45.4538 182.635 45.0366 182.723 44.5576 182.723ZM50.0759 182.735C49.6917 182.735 49.3442 182.664 49.0337 182.522C48.7231 182.377 48.477 182.168 48.2954 181.894C48.1164 181.62 48.0269 181.285 48.0269 180.887C48.0269 180.545 48.0927 180.264 48.2243 180.043C48.3559 179.821 48.5336 179.646 48.7573 179.517C48.981 179.388 49.2311 179.291 49.5074 179.225C49.7838 179.16 50.0654 179.109 50.3523 179.075C50.7155 179.033 51.0103 178.999 51.2367 178.973C51.463 178.944 51.6275 178.898 51.7302 178.834C51.8328 178.771 51.8841 178.669 51.8841 178.527V178.499C51.8841 178.154 51.7868 177.887 51.592 177.697C51.3999 177.508 51.113 177.413 50.7313 177.413C50.3339 177.413 50.0207 177.501 49.7917 177.678C49.5653 177.851 49.4087 178.045 49.3219 178.258L48.2125 178.005C48.3441 177.637 48.5362 177.339 48.7889 177.113C49.0442 176.884 49.3377 176.718 49.6693 176.616C50.0009 176.51 50.3497 176.458 50.7155 176.458C50.9577 176.458 51.2143 176.487 51.4854 176.545C51.7591 176.6 52.0144 176.702 52.2513 176.853C52.4908 177.003 52.6869 177.217 52.8396 177.496C52.9922 177.772 53.0686 178.132 53.0686 178.574V182.601H51.9157V181.772H51.8684C51.792 181.924 51.6775 182.074 51.5249 182.222C51.3722 182.369 51.1761 182.492 50.9366 182.589C50.6971 182.686 50.4102 182.735 50.0759 182.735ZM50.3326 181.788C50.6589 181.788 50.9379 181.723 51.1696 181.594C51.4038 181.465 51.5815 181.297 51.7025 181.089C51.8262 180.878 51.8881 180.653 51.8881 180.414V179.632C51.846 179.674 51.7644 179.714 51.6433 179.75C51.5249 179.785 51.3893 179.815 51.2367 179.841C51.084 179.865 50.9353 179.887 50.7905 179.908C50.6458 179.927 50.5247 179.943 50.4273 179.956C50.1983 179.985 49.9891 180.033 49.7996 180.102C49.6127 180.17 49.4627 180.269 49.3495 180.398C49.239 180.524 49.1837 180.693 49.1837 180.903C49.1837 181.195 49.2916 181.416 49.5074 181.567C49.7232 181.714 49.9983 181.788 50.3326 181.788ZM57.4716 176.537V177.484H54.1592V176.537H57.4716ZM55.0475 175.084H56.228V180.82C56.228 181.049 56.2622 181.222 56.3306 181.338C56.3991 181.451 56.4873 181.528 56.5952 181.57C56.7057 181.61 56.8255 181.63 56.9544 181.63C57.0492 181.63 57.1321 181.623 57.2032 181.61C57.2742 181.597 57.3295 181.586 57.369 181.578L57.5822 182.554C57.5137 182.58 57.4164 182.606 57.29 182.632C57.1637 182.661 57.0058 182.677 56.8163 182.68C56.5057 182.685 56.2162 182.63 55.9477 182.514C55.6792 182.398 55.4621 182.219 55.2963 181.977C55.1304 181.735 55.0475 181.431 55.0475 181.065V175.084ZM58.7775 182.601V176.537H59.9579V182.601H58.7775ZM59.3736 175.601C59.1683 175.601 58.992 175.533 58.8446 175.396C58.6998 175.256 58.6274 175.09 58.6274 174.898C58.6274 174.703 58.6998 174.538 58.8446 174.401C58.992 174.261 59.1683 174.192 59.3736 174.192C59.5789 174.192 59.7539 174.261 59.8987 174.401C60.0461 174.538 60.1198 174.703 60.1198 174.898C60.1198 175.09 60.0461 175.256 59.8987 175.396C59.7539 175.533 59.5789 175.601 59.3736 175.601ZM64.1004 182.723C63.5319 182.723 63.0358 182.593 62.612 182.332C62.1882 182.072 61.8592 181.707 61.625 181.239C61.3907 180.77 61.2736 180.223 61.2736 179.596C61.2736 178.967 61.3907 178.417 61.625 177.946C61.8592 177.475 62.1882 177.109 62.612 176.849C63.0358 176.588 63.5319 176.458 64.1004 176.458C64.6689 176.458 65.1651 176.588 65.5888 176.849C66.0126 177.109 66.3416 177.475 66.5758 177.946C66.8101 178.417 66.9272 178.967 66.9272 179.596C66.9272 180.223 66.8101 180.77 66.5758 181.239C66.3416 181.707 66.0126 182.072 65.5888 182.332C65.1651 182.593 64.6689 182.723 64.1004 182.723ZM64.1044 181.732C64.4728 181.732 64.7782 181.635 65.0203 181.44C65.2625 181.245 65.4414 180.986 65.5572 180.662C65.6757 180.339 65.7349 179.982 65.7349 179.592C65.7349 179.206 65.6757 178.85 65.5572 178.527C65.4414 178.2 65.2625 177.938 65.0203 177.741C64.7782 177.543 64.4728 177.445 64.1044 177.445C63.7332 177.445 63.4253 177.543 63.1805 177.741C62.9384 177.938 62.7581 178.2 62.6396 178.527C62.5238 178.85 62.4659 179.206 62.4659 179.592C62.4659 179.982 62.5238 180.339 62.6396 180.662C62.7581 180.986 62.9384 181.245 63.1805 181.44C63.4253 181.635 63.7332 181.732 64.1044 181.732ZM69.4254 179V182.601H68.2449V176.537H69.378V177.524H69.453C69.5925 177.203 69.8109 176.945 70.1084 176.75C70.4084 176.555 70.7861 176.458 71.2415 176.458C71.6547 176.458 72.0166 176.545 72.3272 176.718C72.6378 176.889 72.8786 177.145 73.0497 177.484C73.2207 177.824 73.3063 178.244 73.3063 178.744V182.601H72.1258V178.886C72.1258 178.446 72.0113 178.103 71.7823 177.855C71.5534 177.605 71.2388 177.48 70.8388 177.48C70.565 177.48 70.3216 177.539 70.1084 177.658C69.8978 177.776 69.7307 177.95 69.607 178.179C69.4859 178.405 69.4254 178.679 69.4254 179Z" fill="#212528"/>
</g>
<g filter="url(#filter3_d_321_384)">
<rect x="245" y="55.7276" width="74.6018" height="74.6018" rx="5.96814" fill="white" shape-rendering="crispEdges"/>
<rect x="245.187" y="55.9141" width="74.2288" height="74.2288" rx="5.78164" stroke="#212528" stroke-width="0.373009" shape-rendering="crispEdges"/>
<g clip-path="url(#clip0_321_384)">
<path d="M272.029 88.3658H269.98V97.6907H272.029V88.3658Z" fill="#1A237E"/>
<path fill-rule="evenodd" clip-rule="evenodd" d="M283.329 97.6907H279.982C277.212 97.6907 274.756 96.0707 274.756 93.0545C274.756 89.6434 277.264 88.3658 280.257 88.3658H283.329V92.7237H281.281V90.2619H280.073C278.34 90.2619 276.883 91.1179 276.883 92.9475C276.883 95.0681 278.314 95.7925 280.218 95.7925H283.329V97.6907Z" fill="#1A237E"/>
<path fill-rule="evenodd" clip-rule="evenodd" d="M297.882 97.6904H299.929V93.6618H303.908V97.6904H305.956V88.3651H303.908V91.8423H299.929V88.3651H297.882V97.6904Z" fill="#1A237E"/>
<path fill-rule="evenodd" clip-rule="evenodd" d="M286.646 88.3677H289.994C292.764 88.3677 295.219 89.9877 295.219 93.0038C295.219 96.4154 292.711 97.6926 289.718 97.6926H286.645V93.3347H288.693V95.7966H289.901C291.634 95.7966 293.091 94.9405 293.091 93.1109C293.091 90.9903 291.661 90.266 289.757 90.266H286.645L286.646 88.3677Z" fill="#1A237E"/>
<path fill-rule="evenodd" clip-rule="evenodd" d="M267.129 92.2012H263.668V94.0058H265.255V95.4475C264.689 95.7456 264.058 95.8964 263.418 95.8861C261.757 95.8861 260.67 94.6832 260.67 93.0285C260.67 91.3738 261.757 90.1709 263.418 90.1709C263.816 90.1445 264.215 90.2061 264.586 90.3512C264.958 90.4963 265.293 90.7214 265.567 91.0105L266.941 89.5065C266.054 88.6792 264.818 88.3659 263.418 88.3659C260.658 88.3659 258.646 90.1836 258.646 93.0285C258.646 95.8734 260.657 97.6911 263.418 97.6911C264.706 97.7134 265.98 97.4208 267.129 96.8388V92.2012Z" fill="#1A237E"/>
</g>
</g>
<g filter="url(#filter4_d_321_384)">
<rect x="361.99" y="64.9036" width="55.9514" height="55.9514" rx="5.96814" fill="white" shape-rendering="crispEdges"/>
<rect x="362.177" y="65.0901" width="55.5784" height="55.5784" rx="5.78164" stroke="#212528" stroke-width="0.373009" shape-rendering="crispEdges"/>
<path d="M393.696 87.6412V81.6731H386.236V84.6571H383.252V95.1014H389.22V92.1173H390.712V95.1014H396.68V87.6412H393.696ZM386.236 93.6093H384.744V92.1173H386.236V93.6093ZM386.236 90.6253H384.744V89.1332H386.236V90.6253ZM386.236 87.6412H384.744V86.1492H386.236V87.6412ZM389.22 90.6253H387.728V89.1332H389.22V90.6253ZM389.22 87.6412H387.728V86.1492H389.22V87.6412ZM389.22 84.6571H387.728V83.1651H389.22V84.6571ZM392.204 90.6253H390.712V89.1332H392.204V90.6253ZM392.204 87.6412H390.712V86.1492H392.204V87.6412ZM392.204 84.6571H390.712V83.1651H392.204V84.6571ZM395.188 93.6093H393.696V92.1173H395.188V93.6093ZM395.188 90.6253H393.696V89.1332H395.188V90.6253Z" fill="#0080FF"/>
<path d="M382.841 105.324V101.526H384.295C384.569 101.526 384.797 101.569 384.979 101.655C385.162 101.741 385.298 101.858 385.389 102.006C385.48 102.154 385.526 102.322 385.526 102.51C385.526 102.665 385.496 102.797 385.437 102.907C385.378 103.016 385.298 103.104 385.198 103.172C385.098 103.24 384.986 103.289 384.862 103.319V103.356C384.997 103.363 385.126 103.405 385.25 103.48C385.374 103.554 385.476 103.659 385.556 103.795C385.635 103.931 385.674 104.096 385.674 104.289C385.674 104.485 385.627 104.662 385.531 104.819C385.436 104.975 385.293 105.098 385.101 105.188C384.91 105.278 384.669 105.324 384.378 105.324H382.841ZM383.529 104.749H384.269C384.518 104.749 384.698 104.701 384.808 104.606C384.919 104.509 384.975 104.386 384.975 104.235C384.975 104.122 384.947 104.021 384.892 103.931C384.836 103.839 384.757 103.768 384.654 103.716C384.552 103.663 384.429 103.636 384.287 103.636H383.529V104.749ZM383.529 103.141H384.209C384.328 103.141 384.435 103.119 384.53 103.076C384.625 103.031 384.7 102.969 384.754 102.889C384.81 102.807 384.838 102.711 384.838 102.599C384.838 102.452 384.786 102.331 384.682 102.236C384.58 102.141 384.427 102.093 384.224 102.093H383.529V103.141ZM386.761 105.324H386.026L387.363 101.526H388.213L389.551 105.324H388.817L387.803 102.304H387.773L386.761 105.324ZM386.785 103.834H388.787V104.387H386.785V103.834ZM393.173 101.526V105.324H392.561L390.771 102.737H390.74V105.324H390.052V101.526H390.667L392.455 104.114H392.488V101.526H393.173ZM393.922 105.324V101.526H394.61V103.271H394.657L396.138 101.526H396.979L395.51 103.23L396.991 105.324H396.164L395.031 103.695L394.61 104.192V105.324H393.922Z" fill="#0080FF"/>
</g>
<path d="M323.602 92.6293C323.464 92.6293 323.352 92.7412 323.352 92.8793C323.352 93.0173 323.464 93.1293 323.602 93.1293V92.6293ZM358.167 93.056C358.265 92.9584 358.265 92.8001 358.167 92.7025L356.576 91.1115C356.479 91.0139 356.32 91.0139 356.223 91.1115C356.125 91.2091 356.125 91.3674 356.223 91.465L357.637 92.8793L356.223 94.2935C356.125 94.3911 356.125 94.5494 356.223 94.647C356.32 94.7447 356.479 94.7447 356.576 94.647L358.167 93.056ZM323.602 93.1293H357.99V92.6293H323.602V93.1293Z" fill="#212528"/>
<g filter="url(#filter5_d_321_384)">
<rect x="361.99" width="55.9514" height="55.9514" rx="5.96814" fill="white" shape-rendering="crispEdges"/>
<rect x="362.177" y="0.186505" width="55.5784" height="55.5784" rx="5.78164" stroke="#212528" stroke-width="0.373009" shape-rendering="crispEdges"/>
<path d="M386.236 22.7376H384.744V27.9598H386.236V22.7376ZM390.712 22.7376H389.22V27.9598H390.712V22.7376ZM397.053 29.4518H382.879V30.9438H397.053V29.4518ZM395.188 22.7376H393.696V27.9598H395.188V22.7376ZM389.966 17.7095L393.853 19.7536H386.079L389.966 17.7095ZM389.966 16.0235L382.879 19.7536V21.2456H397.053V19.7536L389.966 16.0235Z" fill="#FF0000"/>
<path d="M382.841 40.4199V36.622H384.295C384.569 36.622 384.797 36.6653 384.979 36.7518C385.162 36.8371 385.298 36.954 385.389 37.1023C385.48 37.2507 385.526 37.4188 385.526 37.6067C385.526 37.7613 385.496 37.8936 385.437 38.0036C385.378 38.1124 385.298 38.2008 385.198 38.2688C385.098 38.3368 384.986 38.3856 384.862 38.4153V38.4524C384.997 38.4598 385.126 38.5012 385.25 38.5766C385.374 38.6508 385.476 38.7559 385.556 38.8919C385.635 39.0279 385.674 39.1923 385.674 39.3852C385.674 39.5817 385.627 39.7585 385.531 39.9155C385.436 40.0713 385.293 40.1943 385.101 40.2846C384.91 40.3748 384.669 40.4199 384.378 40.4199H382.841ZM383.529 39.8451H384.269C384.518 39.8451 384.698 39.7975 384.808 39.7023C384.919 39.6058 384.975 39.4822 384.975 39.3314C384.975 39.2189 384.947 39.1175 384.892 39.0272C384.836 38.9358 384.757 38.8641 384.654 38.8121C384.552 38.759 384.429 38.7324 384.287 38.7324H383.529V39.8451ZM383.529 38.2373H384.209C384.328 38.2373 384.435 38.2156 384.53 38.1723C384.625 38.1278 384.7 38.0654 384.754 37.985C384.81 37.9035 384.838 37.807 384.838 37.6958C384.838 37.5486 384.786 37.4275 384.682 37.3323C384.58 37.2371 384.427 37.1895 384.224 37.1895H383.529V38.2373ZM386.761 40.4199H386.026L387.363 36.622H388.213L389.551 40.4199H388.817L387.803 37.4009H387.773L386.761 40.4199ZM386.785 38.9308H388.787V39.4834H386.785V38.9308ZM393.173 36.622V40.4199H392.561L390.771 37.833H390.74V40.4199H390.052V36.622H390.667L392.455 39.2108H392.488V36.622H393.173ZM393.922 40.4199V36.622H394.61V38.3671H394.657L396.138 36.622H396.979L395.51 38.3263L396.991 40.4199H396.164L395.031 38.7917L394.61 39.2887V40.4199H393.922Z" fill="#FF0000"/>
</g>
<path d="M282.051 51.7276C282.051 51.8656 282.163 51.9776 282.301 51.9776C282.439 51.9776 282.551 51.8656 282.551 51.7276H282.051ZM358.167 28.1525C358.265 28.0548 358.265 27.8965 358.167 27.7989L356.576 26.2079C356.478 26.1103 356.32 26.1103 356.223 26.2079C356.125 26.3055 356.125 26.4638 356.223 26.5615L357.637 27.9757L356.223 29.3899C356.125 29.4875 356.125 29.6458 356.223 29.7434C356.32 29.8411 356.478 29.8411 356.576 29.7434L358.167 28.1525ZM282.301 51.7276H282.551H282.301ZM306.053 28.2257H357.99V27.7257H306.053V28.2257ZM282.551 51.7276C282.551 38.7478 293.073 28.2257 306.053 28.2257V27.7257C292.797 27.7257 282.051 38.4717 282.051 51.7276H282.551Z" fill="#212528"/>
<g filter="url(#filter6_d_321_384)">
<rect x="361.99" y="129.807" width="55.9514" height="55.9514" rx="5.96814" fill="white" shape-rendering="crispEdges"/>
<rect x="362.177" y="129.994" width="55.5784" height="55.5784" rx="5.78164" stroke="#212528" stroke-width="0.373009" shape-rendering="crispEdges"/>
<g clip-path="url(#clip1_321_384)">
<path d="M393.696 155.529H395.188V157.021H393.696V155.529ZM393.696 152.545H395.188V154.037H393.696V152.545ZM393.696 149.561H395.188V151.053H393.696V149.561ZM391.264 149.561L392.204 150.187V149.561H391.264Z" fill="#FF6A00"/>
<path d="M388.474 146.577V147.703L389.966 148.695V148.069H396.68V158.513H393.696V160.005H398.172V146.577H388.474Z" fill="#FF6A00"/>
<path d="M387.109 148.591L392.204 151.985V160.005H381.76V152.157L387.109 148.591ZM388.474 158.513H390.712V152.664L387.109 150.374L383.252 152.828V158.513H385.49V154.037H388.474V158.513Z" fill="#FF6A00"/>
</g>
<path d="M382.841 170.227V166.429H384.295C384.569 166.429 384.797 166.472 384.979 166.559C385.162 166.644 385.298 166.761 385.389 166.909C385.48 167.058 385.526 167.226 385.526 167.414C385.526 167.568 385.496 167.701 385.437 167.811C385.378 167.92 385.298 168.008 385.198 168.076C385.098 168.144 384.986 168.193 384.862 168.222V168.26C384.997 168.267 385.126 168.308 385.25 168.384C385.374 168.458 385.476 168.563 385.556 168.699C385.635 168.835 385.674 168.999 385.674 169.192C385.674 169.389 385.627 169.566 385.531 169.723C385.436 169.878 385.293 170.001 385.101 170.092C384.91 170.182 384.669 170.227 384.378 170.227H382.841ZM383.529 169.652H384.269C384.518 169.652 384.698 169.605 384.808 169.509C384.919 169.413 384.975 169.289 384.975 169.139C384.975 169.026 384.947 168.925 384.892 168.834C384.836 168.743 384.757 168.671 384.654 168.619C384.552 168.566 384.429 168.54 384.287 168.54H383.529V169.652ZM383.529 168.044H384.209C384.328 168.044 384.435 168.023 384.53 167.98C384.625 167.935 384.7 167.873 384.754 167.792C384.81 167.711 384.838 167.614 384.838 167.503C384.838 167.356 384.786 167.235 384.682 167.139C384.58 167.044 384.427 166.997 384.224 166.997H383.529V168.044ZM386.761 170.227H386.026L387.363 166.429H388.213L389.551 170.227H388.817L387.803 167.208H387.773L386.761 170.227ZM386.785 168.738H388.787V169.291H386.785V168.738ZM393.173 166.429V170.227H392.561L390.771 167.64H390.74V170.227H390.052V166.429H390.667L392.455 169.018H392.488V166.429H393.173ZM393.922 170.227V166.429H394.61V168.174H394.657L396.138 166.429H396.979L395.51 168.133L396.991 170.227H396.164L395.031 168.599L394.61 169.096V170.227H393.922Z" fill="#FF6A00"/>
</g>
<path d="M282.551 134.329C282.551 134.191 282.439 134.079 282.301 134.079C282.163 134.079 282.051 134.191 282.051 134.329H282.551ZM358.167 157.96C358.265 157.862 358.265 157.704 358.167 157.606L356.576 156.015C356.478 155.917 356.32 155.917 356.223 156.015C356.125 156.113 356.125 156.271 356.223 156.369L357.637 157.783L356.223 159.197C356.125 159.295 356.125 159.453 356.223 159.551C356.32 159.648 356.478 159.648 356.576 159.551L358.167 157.96ZM282.301 134.329H282.551H282.301ZM305.754 158.033H357.99V157.533H305.754V158.033ZM282.051 134.329C282.051 147.42 292.663 158.033 305.754 158.033V157.533C292.939 157.533 282.551 147.144 282.551 134.329H282.051Z" fill="#212528"/>
<g filter="url(#filter7_d_321_384)">
<rect x="116.33" y="212.128" width="94.5992" height="56.7196" rx="6.87995" fill="white" shape-rendering="crispEdges"/>
<rect x="116.545" y="212.343" width="94.1692" height="56.2896" rx="6.66495" stroke="#212528" stroke-width="0.429997" shape-rendering="crispEdges"/>
<path d="M166.859 234.707H166.179L165.938 234.475C166.781 233.494 167.289 232.222 167.289 230.837C167.289 227.75 164.786 225.247 161.699 225.247C158.611 225.247 156.109 227.75 156.109 230.837C156.109 233.924 158.611 236.427 161.699 236.427C163.083 236.427 164.356 235.92 165.336 235.077L165.569 235.318V235.997L169.869 240.288L171.15 239.007L166.859 234.707ZM161.699 234.707C159.557 234.707 157.829 232.978 157.829 230.837C157.829 228.696 159.557 226.967 161.699 226.967C163.84 226.967 165.569 228.696 165.569 230.837C165.569 232.978 163.84 234.707 161.699 234.707Z" fill="#0080FF"/>
<path d="M145.366 249.022H146.74L149.13 254.856H149.218L151.607 249.022H152.981V256.528H151.904V251.096H151.834L149.621 256.517H148.727L146.513 251.093H146.444V256.528H145.366V249.022ZM156.911 256.641C156.383 256.641 155.923 256.52 155.529 256.278C155.136 256.036 154.831 255.698 154.613 255.263C154.396 254.828 154.287 254.32 154.287 253.739C154.287 253.155 154.396 252.644 154.613 252.207C154.831 251.769 155.136 251.43 155.529 251.188C155.923 250.946 156.383 250.825 156.911 250.825C157.439 250.825 157.899 250.946 158.293 251.188C158.686 251.43 158.991 251.769 159.209 252.207C159.426 252.644 159.535 253.155 159.535 253.739C159.535 254.32 159.426 254.828 159.209 255.263C158.991 255.698 158.686 256.036 158.293 256.278C157.899 256.52 157.439 256.641 156.911 256.641ZM156.915 255.721C157.257 255.721 157.54 255.631 157.765 255.45C157.99 255.269 158.156 255.029 158.263 254.728C158.373 254.428 158.428 254.097 158.428 253.735C158.428 253.376 158.373 253.046 158.263 252.746C158.156 252.443 157.99 252.199 157.765 252.016C157.54 251.833 157.257 251.741 156.915 251.741C156.57 251.741 156.284 251.833 156.057 252.016C155.832 252.199 155.665 252.443 155.555 252.746C155.448 253.046 155.394 253.376 155.394 253.735C155.394 254.097 155.448 254.428 155.555 254.728C155.665 255.029 155.832 255.269 156.057 255.45C156.284 255.631 156.57 255.721 156.915 255.721ZM161.854 253.185V256.528H160.758V250.898H161.81V251.815H161.879C162.009 251.517 162.212 251.277 162.488 251.096C162.766 250.916 163.117 250.825 163.54 250.825C163.923 250.825 164.259 250.906 164.547 251.067C164.836 251.226 165.059 251.463 165.218 251.778C165.377 252.093 165.456 252.483 165.456 252.947V256.528H164.361V253.079C164.361 252.671 164.254 252.352 164.042 252.123C163.829 251.89 163.537 251.774 163.166 251.774C162.912 251.774 162.686 251.829 162.488 251.939C162.292 252.049 162.137 252.21 162.022 252.423C161.91 252.633 161.854 252.887 161.854 253.185ZM166.926 256.528V250.898H168.022V256.528H166.926ZM167.479 250.03C167.289 250.03 167.125 249.966 166.988 249.839C166.854 249.71 166.787 249.556 166.787 249.378C166.787 249.197 166.854 249.043 166.988 248.916C167.125 248.786 167.289 248.722 167.479 248.722C167.67 248.722 167.832 248.786 167.967 248.916C168.103 249.043 168.172 249.197 168.172 249.378C168.172 249.556 168.103 249.71 167.967 249.839C167.832 249.966 167.67 250.03 167.479 250.03ZM172.123 250.898V251.778H169.049V250.898H172.123ZM169.873 249.55H170.969V254.875C170.969 255.087 171.001 255.247 171.064 255.355C171.128 255.46 171.21 255.532 171.31 255.571C171.412 255.608 171.524 255.626 171.643 255.626C171.731 255.626 171.808 255.62 171.874 255.608C171.94 255.595 171.991 255.586 172.028 255.578L172.226 256.484C172.162 256.508 172.072 256.532 171.955 256.557C171.838 256.584 171.691 256.598 171.515 256.601C171.227 256.606 170.958 256.554 170.709 256.447C170.46 256.339 170.258 256.173 170.104 255.949C169.95 255.724 169.873 255.442 169.873 255.102V249.55ZM175.646 256.641C175.118 256.641 174.658 256.52 174.264 256.278C173.871 256.036 173.566 255.698 173.348 255.263C173.131 254.828 173.022 254.32 173.022 253.739C173.022 253.155 173.131 252.644 173.348 252.207C173.566 251.769 173.871 251.43 174.264 251.188C174.658 250.946 175.118 250.825 175.646 250.825C176.174 250.825 176.634 250.946 177.028 251.188C177.421 251.43 177.726 251.769 177.944 252.207C178.161 252.644 178.27 253.155 178.27 253.739C178.27 254.32 178.161 254.828 177.944 255.263C177.726 255.698 177.421 256.036 177.028 256.278C176.634 256.52 176.174 256.641 175.646 256.641ZM175.65 255.721C175.992 255.721 176.275 255.631 176.5 255.45C176.725 255.269 176.891 255.029 176.998 254.728C177.108 254.428 177.163 254.097 177.163 253.735C177.163 253.376 177.108 253.046 176.998 252.746C176.891 252.443 176.725 252.199 176.5 252.016C176.275 251.833 175.992 251.741 175.65 251.741C175.305 251.741 175.019 251.833 174.792 252.016C174.567 252.199 174.4 252.443 174.29 252.746C174.183 253.046 174.129 253.376 174.129 253.735C174.129 254.097 174.183 254.428 174.29 254.728C174.4 255.029 174.567 255.269 174.792 255.45C175.019 255.631 175.305 255.721 175.65 255.721ZM179.493 256.528V250.898H180.552V251.793H180.611C180.714 251.49 180.894 251.252 181.153 251.078C181.415 250.902 181.71 250.814 182.04 250.814C182.109 250.814 182.189 250.817 182.282 250.822C182.377 250.826 182.452 250.833 182.506 250.84V251.888C182.462 251.876 182.383 251.862 182.271 251.848C182.159 251.831 182.046 251.822 181.934 251.822C181.675 251.822 181.444 251.877 181.241 251.987C181.041 252.094 180.882 252.245 180.765 252.438C180.648 252.628 180.589 252.846 180.589 253.09V256.528H179.493Z" fill="#212528"/>
</g>
<g filter="url(#filter8_d_321_384)">
<rect x="130.09" y="279.637" width="80.8394" height="68.7196" rx="6.87995" fill="white" shape-rendering="crispEdges"/>
<rect x="130.305" y="279.852" width="80.4094" height="68.2896" rx="6.66495" stroke="#212528" stroke-width="0.429997" shape-rendering="crispEdges"/>
<path d="M166.209 292.537H163.629V295.117H161.909V290.817H166.209V292.537ZM179.109 295.117V290.817H174.809V292.537H177.389V295.117H179.109ZM166.209 308.017H163.629V305.437H161.909V309.737H166.209V308.017ZM177.389 305.437V308.017H174.809V309.737H179.109V305.437H177.389ZM174.809 295.117H166.209V305.437H174.809V295.117ZM176.529 305.437C176.529 306.383 175.755 307.157 174.809 307.157H166.209C165.263 307.157 164.489 306.383 164.489 305.437V295.117C164.489 294.171 165.263 293.397 166.209 293.397H174.809C175.755 293.397 176.529 294.171 176.529 295.117V305.437ZM173.089 296.837H167.929V298.557H173.089V296.837ZM173.089 299.417H167.929V301.137H173.089V299.417ZM173.089 301.997H167.929V303.717H173.089V301.997Z" fill="#F2800D"/>
<path d="M157.246 324.037H154.816V316.532H157.323C158.058 316.532 158.69 316.682 159.217 316.982C159.745 317.28 160.149 317.709 160.43 318.269C160.714 318.826 160.855 319.494 160.855 320.273C160.855 321.055 160.713 321.727 160.427 322.289C160.143 322.851 159.733 323.283 159.195 323.586C158.658 323.887 158.008 324.037 157.246 324.037ZM155.948 323.048H157.183C157.755 323.048 158.23 322.94 158.609 322.725C158.988 322.508 159.271 322.194 159.459 321.783C159.647 321.37 159.741 320.867 159.741 320.273C159.741 319.685 159.647 319.185 159.459 318.774C159.273 318.364 158.996 318.052 158.627 317.84C158.258 317.627 157.8 317.521 157.253 317.521H155.948V323.048ZM164.602 324.151C164.047 324.151 163.569 324.032 163.169 323.795C162.771 323.556 162.463 323.22 162.245 322.787C162.03 322.352 161.923 321.843 161.923 321.259C161.923 320.683 162.03 320.174 162.245 319.735C162.463 319.295 162.766 318.952 163.154 318.705C163.545 318.458 164.002 318.335 164.525 318.335C164.842 318.335 165.15 318.387 165.448 318.492C165.746 318.597 166.014 318.762 166.251 318.987C166.488 319.212 166.675 319.504 166.812 319.863C166.948 320.22 167.017 320.653 167.017 321.164V321.552H162.542V320.731H165.943C165.943 320.443 165.884 320.188 165.767 319.965C165.65 319.741 165.485 319.564 165.272 319.434C165.062 319.305 164.815 319.24 164.532 319.24C164.224 319.24 163.955 319.316 163.726 319.467C163.499 319.616 163.323 319.812 163.198 320.053C163.076 320.293 163.015 320.553 163.015 320.834V321.475C163.015 321.852 163.081 322.172 163.213 322.436C163.347 322.699 163.534 322.901 163.773 323.04C164.013 323.177 164.293 323.245 164.613 323.245C164.82 323.245 165.01 323.216 165.181 323.157C165.352 323.096 165.5 323.006 165.624 322.886C165.749 322.767 165.844 322.619 165.91 322.443L166.947 322.63C166.864 322.935 166.715 323.203 166.5 323.432C166.287 323.66 166.02 323.837 165.697 323.964C165.377 324.088 165.012 324.151 164.602 324.151ZM170.86 318.408V319.288H167.785V318.408H170.86ZM168.61 317.059H169.706V322.384C169.706 322.597 169.738 322.757 169.801 322.864C169.865 322.969 169.946 323.041 170.047 323.081C170.149 323.117 170.26 323.135 170.38 323.135C170.468 323.135 170.545 323.129 170.611 323.117C170.677 323.105 170.728 323.095 170.765 323.088L170.963 323.993C170.899 324.017 170.809 324.042 170.692 324.066C170.574 324.093 170.428 324.108 170.252 324.11C169.964 324.115 169.695 324.064 169.446 323.956C169.196 323.849 168.995 323.683 168.841 323.458C168.687 323.233 168.61 322.951 168.61 322.611V317.059ZM174.438 324.151C173.883 324.151 173.406 324.032 173.005 323.795C172.607 323.556 172.299 323.22 172.081 322.787C171.866 322.352 171.759 321.843 171.759 321.259C171.759 320.683 171.866 320.174 172.081 319.735C172.299 319.295 172.602 318.952 172.99 318.705C173.381 318.458 173.838 318.335 174.361 318.335C174.679 318.335 174.986 318.387 175.284 318.492C175.583 318.597 175.85 318.762 176.087 318.987C176.324 319.212 176.511 319.504 176.648 319.863C176.785 320.22 176.853 320.653 176.853 321.164V321.552H172.378V320.731H175.779C175.779 320.443 175.721 320.188 175.603 319.965C175.486 319.741 175.321 319.564 175.109 319.434C174.898 319.305 174.652 319.24 174.368 319.24C174.06 319.24 173.792 319.316 173.562 319.467C173.335 319.616 173.159 319.812 173.034 320.053C172.912 320.293 172.851 320.553 172.851 320.834V321.475C172.851 321.852 172.917 322.172 173.049 322.436C173.183 322.699 173.37 322.901 173.61 323.04C173.849 323.177 174.129 323.245 174.449 323.245C174.657 323.245 174.846 323.216 175.017 323.157C175.188 323.096 175.336 323.006 175.46 322.886C175.585 322.767 175.68 322.619 175.746 322.443L176.783 322.63C176.7 322.935 176.551 323.203 176.336 323.432C176.124 323.66 175.856 323.837 175.534 323.964C175.214 324.088 174.848 324.151 174.438 324.151ZM180.44 324.151C179.895 324.151 179.426 324.027 179.033 323.78C178.642 323.531 178.341 323.188 178.131 322.751C177.921 322.313 177.816 321.813 177.816 321.248C177.816 320.676 177.923 320.172 178.138 319.735C178.353 319.295 178.656 318.952 179.047 318.705C179.438 318.458 179.899 318.335 180.429 318.335C180.856 318.335 181.238 318.414 181.572 318.573C181.907 318.729 182.177 318.949 182.382 319.233C182.59 319.516 182.713 319.847 182.752 320.226H181.686C181.627 319.962 181.493 319.735 181.283 319.544C181.075 319.353 180.797 319.258 180.447 319.258C180.142 319.258 179.874 319.339 179.645 319.5C179.417 319.659 179.24 319.886 179.113 320.182C178.986 320.475 178.923 320.822 178.923 321.222C178.923 321.633 178.985 321.987 179.11 322.285C179.234 322.583 179.41 322.814 179.637 322.978C179.867 323.142 180.137 323.223 180.447 323.223C180.655 323.223 180.843 323.186 181.012 323.11C181.183 323.032 181.325 322.92 181.44 322.776C181.558 322.632 181.639 322.459 181.686 322.256H182.752C182.713 322.62 182.595 322.945 182.397 323.231C182.199 323.517 181.934 323.741 181.602 323.905C181.272 324.069 180.884 324.151 180.44 324.151ZM186.552 318.408V319.288H183.477V318.408H186.552ZM184.302 317.059H185.397V322.384C185.397 322.597 185.429 322.757 185.493 322.864C185.556 322.969 185.638 323.041 185.738 323.081C185.841 323.117 185.952 323.135 186.072 323.135C186.16 323.135 186.237 323.129 186.302 323.117C186.368 323.105 186.42 323.095 186.456 323.088L186.654 323.993C186.591 324.017 186.5 324.042 186.383 324.066C186.266 324.093 186.119 324.108 185.943 324.11C185.655 324.115 185.386 324.064 185.137 323.956C184.888 323.849 184.686 323.683 184.532 323.458C184.378 323.233 184.302 322.951 184.302 322.611V317.059ZM157.154 336.037V328.532H161.808V329.506H158.286V331.793H161.475V332.764H158.286V336.037H157.154ZM163.042 336.037V330.408H164.101V331.302H164.16C164.263 330.999 164.444 330.761 164.702 330.588C164.964 330.412 165.26 330.324 165.589 330.324C165.658 330.324 165.738 330.326 165.831 330.331C165.927 330.336 166.001 330.342 166.055 330.349V331.397C166.011 331.385 165.933 331.372 165.82 331.357C165.708 331.34 165.595 331.331 165.483 331.331C165.224 331.331 164.993 331.386 164.79 331.496C164.59 331.604 164.431 331.754 164.314 331.947C164.197 332.138 164.138 332.355 164.138 332.599V336.037H163.042ZM168.591 336.162C168.234 336.162 167.912 336.096 167.623 335.964C167.335 335.829 167.107 335.635 166.938 335.381C166.772 335.127 166.689 334.815 166.689 334.447C166.689 334.129 166.75 333.867 166.872 333.662C166.994 333.457 167.159 333.295 167.367 333.175C167.574 333.055 167.807 332.965 168.063 332.904C168.32 332.843 168.581 332.796 168.847 332.764C169.184 332.725 169.458 332.694 169.668 332.669C169.878 332.642 170.031 332.599 170.126 332.541C170.222 332.482 170.269 332.387 170.269 332.255V332.229C170.269 331.909 170.179 331.661 169.998 331.485C169.82 331.309 169.553 331.222 169.199 331.222C168.83 331.222 168.539 331.303 168.327 331.467C168.117 331.628 167.971 331.808 167.891 332.006L166.861 331.771C166.983 331.429 167.162 331.153 167.396 330.943C167.633 330.73 167.905 330.577 168.213 330.481C168.521 330.384 168.845 330.335 169.184 330.335C169.409 330.335 169.647 330.362 169.899 330.415C170.153 330.467 170.39 330.562 170.61 330.701C170.832 330.84 171.014 331.04 171.156 331.299C171.298 331.555 171.369 331.889 171.369 332.299V336.037H170.299V335.267H170.255C170.184 335.409 170.077 335.548 169.936 335.685C169.794 335.822 169.612 335.936 169.39 336.026C169.167 336.116 168.901 336.162 168.591 336.162ZM168.829 335.282C169.132 335.282 169.391 335.222 169.606 335.103C169.823 334.983 169.988 334.826 170.101 334.633C170.215 334.438 170.273 334.229 170.273 334.007V333.281C170.234 333.32 170.158 333.357 170.046 333.391C169.936 333.423 169.81 333.451 169.668 333.475C169.527 333.497 169.388 333.518 169.254 333.538C169.12 333.555 169.007 333.569 168.917 333.582C168.704 333.609 168.51 333.654 168.334 333.717C168.161 333.781 168.022 333.872 167.916 333.992C167.814 334.109 167.763 334.266 167.763 334.461C167.763 334.732 167.863 334.938 168.063 335.077C168.263 335.214 168.519 335.282 168.829 335.282ZM176.394 333.703V330.408H177.493V336.037H176.416V335.062H176.357C176.228 335.363 176.02 335.613 175.734 335.813C175.451 336.011 175.098 336.11 174.675 336.11C174.314 336.11 173.994 336.031 173.715 335.872C173.439 335.711 173.221 335.473 173.063 335.157C172.906 334.842 172.828 334.453 172.828 333.988V330.408H173.924V333.856C173.924 334.24 174.03 334.545 174.243 334.773C174.455 335 174.731 335.114 175.071 335.114C175.276 335.114 175.48 335.062 175.683 334.96C175.888 334.857 176.058 334.702 176.192 334.494C176.329 334.286 176.396 334.023 176.394 333.703ZM181.073 336.147C180.618 336.147 180.213 336.031 179.856 335.799C179.502 335.564 179.223 335.231 179.021 334.798C178.82 334.363 178.72 333.842 178.72 333.233C178.72 332.625 178.822 332.105 179.024 331.672C179.23 331.24 179.51 330.909 179.867 330.679C180.224 330.45 180.628 330.335 181.08 330.335C181.43 330.335 181.711 330.393 181.923 330.511C182.138 330.625 182.304 330.76 182.422 330.914C182.541 331.068 182.634 331.203 182.7 331.32H182.766V328.532H183.862V336.037H182.792V335.161H182.7C182.634 335.281 182.539 335.418 182.414 335.572C182.292 335.726 182.123 335.86 181.908 335.975C181.693 336.09 181.415 336.147 181.073 336.147ZM181.315 335.212C181.63 335.212 181.896 335.129 182.114 334.963C182.334 334.795 182.5 334.561 182.612 334.263C182.727 333.965 182.784 333.618 182.784 333.222C182.784 332.832 182.728 332.49 182.616 332.196C182.503 331.903 182.338 331.675 182.121 331.511C181.904 331.347 181.635 331.266 181.315 331.266C180.985 331.266 180.71 331.351 180.49 331.522C180.27 331.693 180.104 331.926 179.992 332.222C179.882 332.518 179.827 332.851 179.827 333.222C179.827 333.599 179.883 333.937 179.995 334.238C180.108 334.538 180.274 334.776 180.494 334.952C180.716 335.126 180.99 335.212 181.315 335.212Z" fill="#212528"/>
</g>
<g filter="url(#filter9_d_321_384)">
<rect x="221.249" y="199.658" width="80.8394" height="69.6594" rx="6.87995" fill="white" shape-rendering="crispEdges"/>
<rect x="221.464" y="199.873" width="80.4094" height="69.2294" rx="6.66495" stroke="#212528" stroke-width="0.429997" shape-rendering="crispEdges"/>
<path d="M253.069 233.639L259.519 227.18L262.959 230.62L269.056 223.766L270.268 224.979L262.959 233.2L259.519 229.76L254.359 234.929L253.069 233.639ZM254.359 229.769L259.519 224.6L262.959 228.04L270.268 219.819L269.056 218.606L262.959 225.46L259.519 222.02L253.069 228.479L254.359 229.769Z" fill="#F2800D"/>
<path d="M248.361 243.997V243.022H254.17V243.997H251.828V250.528H250.7V243.997H248.361ZM254.781 250.528V244.899H255.84V245.793H255.899C256.002 245.49 256.182 245.252 256.441 245.078C256.703 244.902 256.998 244.814 257.328 244.814C257.397 244.814 257.477 244.817 257.57 244.822C257.665 244.826 257.74 244.833 257.794 244.84V245.888C257.75 245.876 257.671 245.862 257.559 245.848C257.447 245.831 257.334 245.822 257.222 245.822C256.963 245.822 256.732 245.877 256.529 245.987C256.329 246.094 256.17 246.245 256.053 246.438C255.936 246.628 255.877 246.846 255.877 247.09V250.528H254.781ZM260.33 250.652C259.973 250.652 259.65 250.586 259.362 250.454C259.074 250.32 258.845 250.126 258.677 249.872C258.511 249.617 258.428 249.306 258.428 248.937C258.428 248.619 258.489 248.358 258.611 248.153C258.733 247.948 258.898 247.785 259.106 247.665C259.313 247.546 259.545 247.455 259.802 247.394C260.058 247.333 260.32 247.287 260.586 247.255C260.923 247.216 261.197 247.184 261.407 247.16C261.617 247.133 261.77 247.09 261.865 247.031C261.96 246.973 262.008 246.877 262.008 246.746V246.72C262.008 246.4 261.918 246.152 261.737 245.976C261.558 245.8 261.292 245.712 260.938 245.712C260.569 245.712 260.278 245.794 260.066 245.958C259.856 246.119 259.71 246.298 259.63 246.496L258.6 246.262C258.722 245.92 258.9 245.644 259.135 245.434C259.372 245.221 259.644 245.067 259.952 244.972C260.26 244.874 260.584 244.825 260.923 244.825C261.148 244.825 261.386 244.852 261.638 244.906C261.892 244.957 262.129 245.052 262.349 245.192C262.571 245.331 262.753 245.53 262.895 245.789C263.037 246.046 263.107 246.379 263.107 246.79V250.528H262.037V249.758H261.993C261.923 249.9 261.816 250.039 261.675 250.176C261.533 250.313 261.351 250.426 261.128 250.517C260.906 250.607 260.64 250.652 260.33 250.652ZM260.568 249.773C260.871 249.773 261.13 249.713 261.345 249.593C261.562 249.473 261.727 249.317 261.839 249.124C261.954 248.928 262.012 248.72 262.012 248.497V247.772C261.973 247.811 261.897 247.847 261.784 247.882C261.675 247.913 261.549 247.941 261.407 247.966C261.265 247.988 261.127 248.009 260.993 248.028C260.859 248.045 260.746 248.06 260.656 248.072C260.443 248.099 260.249 248.144 260.073 248.208C259.9 248.271 259.76 248.363 259.655 248.483C259.553 248.6 259.501 248.756 259.501 248.952C259.501 249.223 259.602 249.428 259.802 249.567C260.002 249.704 260.258 249.773 260.568 249.773ZM266.938 250.641C266.393 250.641 265.924 250.518 265.531 250.271C265.14 250.022 264.839 249.679 264.629 249.241C264.419 248.804 264.314 248.303 264.314 247.739C264.314 247.167 264.422 246.662 264.637 246.225C264.852 245.785 265.155 245.442 265.545 245.195C265.936 244.949 266.397 244.825 266.927 244.825C267.355 244.825 267.736 244.905 268.07 245.063C268.405 245.22 268.675 245.44 268.88 245.723C269.088 246.006 269.211 246.338 269.25 246.716H268.184C268.125 246.452 267.991 246.225 267.781 246.035C267.573 245.844 267.295 245.749 266.945 245.749C266.64 245.749 266.372 245.829 266.143 245.991C265.916 246.149 265.738 246.377 265.611 246.672C265.484 246.965 265.421 247.312 265.421 247.713C265.421 248.123 265.483 248.478 265.608 248.776C265.732 249.074 265.908 249.305 266.135 249.468C266.365 249.632 266.635 249.714 266.945 249.714C267.153 249.714 267.341 249.676 267.51 249.6C267.681 249.522 267.824 249.411 267.938 249.267C268.056 249.123 268.138 248.949 268.184 248.746H269.25C269.211 249.111 269.093 249.435 268.895 249.721C268.697 250.007 268.432 250.232 268.1 250.396C267.77 250.559 267.383 250.641 266.938 250.641ZM271.43 248.618L271.423 247.281H271.613L273.856 244.899H275.168L272.61 247.61H272.438L271.43 248.618ZM270.422 250.528V243.022H271.518V250.528H270.422ZM273.977 250.528L271.961 247.852L272.716 247.086L275.322 250.528H273.977Z" fill="#212528"/>
</g>
<g filter="url(#filter10_d_321_384)">
<rect x="221.249" y="279.637" width="80.8394" height="85.1393" rx="6.87995" fill="white" shape-rendering="crispEdges"/>
<rect x="221.464" y="279.852" width="80.4094" height="84.7093" rx="6.66495" stroke="#212528" stroke-width="0.429997" shape-rendering="crispEdges"/>
<path fill-rule="evenodd" clip-rule="evenodd" d="M242.032 350.544V350.515V298.854C242.061 296.092 244.311 293.842 247.073 293.87H275.638C278.4 293.842 280.678 296.063 280.678 298.826C280.678 298.854 280.678 298.854 280.678 298.854V350.544H242.032Z" stroke="#1A237E" stroke-width="0.82618"/>
<path d="M254.25 298.569C254.596 298.569 254.877 298.289 254.877 297.943C254.877 297.597 254.596 297.316 254.25 297.316C253.904 297.316 253.624 297.597 253.624 297.943C253.624 298.289 253.904 298.569 254.25 298.569Z" fill="#1A237E"/>
<path d="M254.307 298.228C254.449 298.228 254.564 298.113 254.564 297.971C254.564 297.83 254.449 297.715 254.307 297.715C254.166 297.715 254.051 297.83 254.051 297.971C254.051 298.113 254.166 298.228 254.307 298.228Z" fill="#1A237E"/>
<path d="M241.464 300.506H241.093V303.848H241.464V300.506Z" fill="#1A237E"/>
<path d="M241.464 307.797H241.093V312.872H241.464V307.797Z" fill="#1A237E"/>
<path d="M241.464 314.774H241.093V319.849H241.464V314.774Z" fill="#1A237E"/>
<path d="M281.732 307.683H281.361V312.758H281.732V307.683Z" fill="#1A237E"/>
<path d="M278.883 300.506H243.484V323.318H278.883V300.506Z" fill="#868EE0"/>
<path d="M245.848 305.205H268.062" stroke="#FEFEFE" stroke-width="0.259686"/>
<path d="M245.848 309.335H259.66" stroke="#FEFEFE" stroke-width="0.259686"/>
<path d="M245.848 313.492H264.445" stroke="#FEFEFE" stroke-width="0.259686"/>
<path d="M245.592 317.679H255.132" stroke="#FEFEFE" stroke-width="0.259686"/>
<path fill-rule="evenodd" clip-rule="evenodd" d="M269.401 330.922C269.401 330.551 269.258 330.181 269.002 329.925C268.433 329.384 267.55 329.384 267.009 329.925C267.009 329.925 267.009 329.925 266.98 329.925C266.724 330.181 266.581 330.551 266.581 330.922C266.581 331.007 266.581 331.093 266.581 331.149L264.873 332.175C264.616 331.918 264.275 331.776 263.904 331.776C263.506 331.776 263.164 331.918 262.908 332.175C262.338 332.744 262.338 333.627 262.879 334.168H262.908C263.164 334.453 263.506 334.595 263.904 334.595C264.275 334.595 264.616 334.453 264.901 334.168L266.61 335.108C266.581 335.222 266.581 335.336 266.581 335.45C266.581 336.219 267.208 336.845 268.005 336.845C268.774 336.845 269.401 336.219 269.401 335.45C269.401 334.652 268.774 334.026 268.005 334.026C267.607 334.026 267.265 334.168 266.98 334.425C266.98 334.453 266.98 334.453 266.952 334.453L265.271 333.542C265.3 333.428 265.3 333.314 265.3 333.172C265.3 333.058 265.271 332.915 265.243 332.801L266.895 331.805C266.923 331.861 266.952 331.89 266.98 331.918C267.55 332.488 268.433 332.488 269.002 331.918C269.258 331.662 269.401 331.292 269.401 330.922Z" fill="#1A237E"/>
<path fill-rule="evenodd" clip-rule="evenodd" d="M257.295 338.526C255.387 338.497 253.878 336.931 253.878 335.023C253.906 333.143 255.416 331.634 257.295 331.605C259.175 331.548 260.713 333.029 260.77 334.909C260.77 334.937 260.77 334.994 260.77 335.051C260.741 336.959 259.204 338.497 257.295 338.526ZM257.295 332.915C256.128 332.915 255.159 333.883 255.159 335.051C255.159 336.247 256.128 337.187 257.295 337.187C258.492 337.187 259.431 336.247 259.431 335.051C259.488 333.912 258.577 332.944 257.438 332.915C257.381 332.915 257.352 332.915 257.295 332.915Z" fill="#1A237E"/>
<path fill-rule="evenodd" clip-rule="evenodd" d="M263.391 345.93H251.201C250.86 345.93 250.575 345.645 250.546 345.275C250.518 341.601 253.48 338.554 257.154 338.526C257.211 338.526 257.268 338.526 257.296 338.526C260.998 338.497 264.017 341.43 264.046 345.133C264.046 345.19 264.046 345.218 264.046 345.275C264.103 345.617 263.846 345.902 263.504 345.93C263.476 345.959 263.447 345.959 263.391 345.93ZM252.027 344.62H262.906C262.536 341.886 260.229 339.864 257.467 339.836C254.704 339.807 252.341 341.858 252.027 344.62Z" fill="#1A237E"/>
<path d="M233.489 350.544H289.849" stroke="#1A237E" stroke-width="0.82618"/>
<path fill-rule="evenodd" clip-rule="evenodd" d="M263.562 298.456H258.777C258.72 298.456 258.692 298.399 258.692 298.342C258.692 298.313 258.72 298.256 258.777 298.256H263.562C263.619 298.256 263.676 298.285 263.676 298.342C263.676 298.399 263.619 298.456 263.562 298.456Z" fill="#1A237E"/>
<path d="M261.17 296.832C261.548 296.832 261.854 296.526 261.854 296.149C261.854 295.771 261.548 295.465 261.17 295.465C260.793 295.465 260.487 295.771 260.487 296.149C260.487 296.526 260.793 296.832 261.17 296.832Z" fill="#1A237E"/>
</g>
<defs>
<filter id="filter0_d_321_384" x="73.343" y="0.202774" width="115.412" height="48.1768" filterUnits="userSpaceOnUse" color-interpolation-filters="sRGB">
<feFlood flood-opacity="0" result="BackgroundImageFix"/>
<feColorMatrix in="SourceAlpha" type="matrix" values="0 0 0 0 0 0 0 0 0 0 0 0 0 0 0 0 0 0 127 0" result="hardAlpha"/>
<feOffset dx="1.85295" dy="1.85295"/>
<feComposite in2="hardAlpha" operator="out"/>
<feColorMatrix type="matrix" values="0 0 0 0 0.667568 0 0 0 0 0.932432 0 0 0 0 0.667568 0 0 0 1 0"/>
<feBlend mode="normal" in2="BackgroundImageFix" result="effect1_dropShadow_321_384"/>
<feBlend mode="normal" in="SourceGraphic" in2="effect1_dropShadow_321_384" result="shape"/>
</filter>
<filter id="filter1_d_321_384" x="0.846313" y="57.6443" width="187.148" height="48.1768" filterUnits="userSpaceOnUse" color-interpolation-filters="sRGB">
<feFlood flood-opacity="0" result="BackgroundImageFix"/>
<feColorMatrix in="SourceAlpha" type="matrix" values="0 0 0 0 0 0 0 0 0 0 0 0 0 0 0 0 0 0 127 0" result="hardAlpha"/>
<feOffset dx="1.85295" dy="1.85295"/>
<feComposite in2="hardAlpha" operator="out"/>
<feColorMatrix type="matrix" values="0 0 0 0 0.667568 0 0 0 0 0.789405 0 0 0 0 0.932432 0 0 0 1 0"/>
<feBlend mode="normal" in2="BackgroundImageFix" result="effect1_dropShadow_321_384"/>
<feBlend mode="normal" in="SourceGraphic" in2="effect1_dropShadow_321_384" result="shape"/>
</filter>
<filter id="filter2_d_321_384" x="0.846313" y="115.086" width="88.9417" height="88.9417" filterUnits="userSpaceOnUse" color-interpolation-filters="sRGB">
<feFlood flood-opacity="0" result="BackgroundImageFix"/>
<feColorMatrix in="SourceAlpha" type="matrix" values="0 0 0 0 0 0 0 0 0 0 0 0 0 0 0 0 0 0 127 0" result="hardAlpha"/>
<feOffset dx="1.85295" dy="1.85295"/>
<feComposite in2="hardAlpha" operator="out"/>
<feColorMatrix type="matrix" values="0 0 0 0 0.932432 0 0 0 0 0.842378 0 0 0 0 0.667568 0 0 0 1 0"/>
<feBlend mode="normal" in2="BackgroundImageFix" result="effect1_dropShadow_321_384"/>
<feBlend mode="normal" in="SourceGraphic" in2="effect1_dropShadow_321_384" result="shape"/>
</filter>
<filter id="filter3_d_321_384" x="245" y="55.7276" width="76.0938" height="76.0939" filterUnits="userSpaceOnUse" color-interpolation-filters="sRGB">
<feFlood flood-opacity="0" result="BackgroundImageFix"/>
<feColorMatrix in="SourceAlpha" type="matrix" values="0 0 0 0 0 0 0 0 0 0 0 0 0 0 0 0 0 0 127 0" result="hardAlpha"/>
<feOffset dx="1.49204" dy="1.49204"/>
<feComposite in2="hardAlpha" operator="out"/>
<feColorMatrix type="matrix" values="0 0 0 0 0.517647 0 0 0 0 0.556863 0 0 0 0 0.901961 0 0 0 1 0"/>
<feBlend mode="normal" in2="BackgroundImageFix" result="effect1_dropShadow_321_384"/>
<feBlend mode="normal" in="SourceGraphic" in2="effect1_dropShadow_321_384" result="shape"/>
</filter>
<filter id="filter4_d_321_384" x="361.99" y="64.9036" width="57.4435" height="57.4434" filterUnits="userSpaceOnUse" color-interpolation-filters="sRGB">
<feFlood flood-opacity="0" result="BackgroundImageFix"/>
<feColorMatrix in="SourceAlpha" type="matrix" values="0 0 0 0 0 0 0 0 0 0 0 0 0 0 0 0 0 0 127 0" result="hardAlpha"/>
<feOffset dx="1.49204" dy="1.49204"/>
<feComposite in2="hardAlpha" operator="out"/>
<feColorMatrix type="matrix" values="0 0 0 0 0.6 0 0 0 0 0.800784 0 0 0 0 1 0 0 0 1 0"/>
<feBlend mode="normal" in2="BackgroundImageFix" result="effect1_dropShadow_321_384"/>
<feBlend mode="normal" in="SourceGraphic" in2="effect1_dropShadow_321_384" result="shape"/>
</filter>
<filter id="filter5_d_321_384" x="361.99" y="0" width="57.4435" height="57.4434" filterUnits="userSpaceOnUse" color-interpolation-filters="sRGB">
<feFlood flood-opacity="0" result="BackgroundImageFix"/>
<feColorMatrix in="SourceAlpha" type="matrix" values="0 0 0 0 0 0 0 0 0 0 0 0 0 0 0 0 0 0 127 0" result="hardAlpha"/>
<feOffset dx="1.49204" dy="1.49204"/>
<feComposite in2="hardAlpha" operator="out"/>
<feColorMatrix type="matrix" values="0 0 0 0 1 0 0 0 0 0.6 0 0 0 0 0.6 0 0 0 1 0"/>
<feBlend mode="normal" in2="BackgroundImageFix" result="effect1_dropShadow_321_384"/>
<feBlend mode="normal" in="SourceGraphic" in2="effect1_dropShadow_321_384" result="shape"/>
</filter>
<filter id="filter6_d_321_384" x="361.99" y="129.807" width="57.4435" height="57.4434" filterUnits="userSpaceOnUse" color-interpolation-filters="sRGB">
<feFlood flood-opacity="0" result="BackgroundImageFix"/>
<feColorMatrix in="SourceAlpha" type="matrix" values="0 0 0 0 0 0 0 0 0 0 0 0 0 0 0 0 0 0 127 0" result="hardAlpha"/>
<feOffset dx="1.49204" dy="1.49204"/>
<feComposite in2="hardAlpha" operator="out"/>
<feColorMatrix type="matrix" values="0 0 0 0 1 0 0 0 0 0.766275 0 0 0 0 0.6 0 0 0 1 0"/>
<feBlend mode="normal" in2="BackgroundImageFix" result="effect1_dropShadow_321_384"/>
<feBlend mode="normal" in="SourceGraphic" in2="effect1_dropShadow_321_384" result="shape"/>
</filter>
<filter id="filter7_d_321_384" x="116.33" y="212.128" width="96.3192" height="58.4396" filterUnits="userSpaceOnUse" color-interpolation-filters="sRGB">
<feFlood flood-opacity="0" result="BackgroundImageFix"/>
<feColorMatrix in="SourceAlpha" type="matrix" values="0 0 0 0 0 0 0 0 0 0 0 0 0 0 0 0 0 0 127 0" result="hardAlpha"/>
<feOffset dx="1.71999" dy="1.71999"/>
<feComposite in2="hardAlpha" operator="out"/>
<feColorMatrix type="matrix" values="0 0 0 0 0.667568 0 0 0 0 0.8 0 0 0 0 0.932432 0 0 0 1 0"/>
<feBlend mode="normal" in2="BackgroundImageFix" result="effect1_dropShadow_321_384"/>
<feBlend mode="normal" in="SourceGraphic" in2="effect1_dropShadow_321_384" result="shape"/>
</filter>
<filter id="filter8_d_321_384" x="130.09" y="279.637" width="82.5593" height="70.4396" filterUnits="userSpaceOnUse" color-interpolation-filters="sRGB">
<feFlood flood-opacity="0" result="BackgroundImageFix"/>
<feColorMatrix in="SourceAlpha" type="matrix" values="0 0 0 0 0 0 0 0 0 0 0 0 0 0 0 0 0 0 127 0" result="hardAlpha"/>
<feOffset dx="1.71999" dy="1.71999"/>
<feComposite in2="hardAlpha" operator="out"/>
<feColorMatrix type="matrix" values="0 0 0 0 0.932432 0 0 0 0 0.842378 0 0 0 0 0.667568 0 0 0 1 0"/>
<feBlend mode="normal" in2="BackgroundImageFix" result="effect1_dropShadow_321_384"/>
<feBlend mode="normal" in="SourceGraphic" in2="effect1_dropShadow_321_384" result="shape"/>
</filter>
<filter id="filter9_d_321_384" x="221.249" y="199.658" width="82.5595" height="71.3794" filterUnits="userSpaceOnUse" color-interpolation-filters="sRGB">
<feFlood flood-opacity="0" result="BackgroundImageFix"/>
<feColorMatrix in="SourceAlpha" type="matrix" values="0 0 0 0 0 0 0 0 0 0 0 0 0 0 0 0 0 0 127 0" result="hardAlpha"/>
<feOffset dx="1.71999" dy="1.71999"/>
<feComposite in2="hardAlpha" operator="out"/>
<feColorMatrix type="matrix" values="0 0 0 0 0.932432 0 0 0 0 0.842378 0 0 0 0 0.667568 0 0 0 1 0"/>
<feBlend mode="normal" in2="BackgroundImageFix" result="effect1_dropShadow_321_384"/>
<feBlend mode="normal" in="SourceGraphic" in2="effect1_dropShadow_321_384" result="shape"/>
</filter>
<filter id="filter10_d_321_384" x="221.249" y="279.637" width="82.5595" height="86.8593" filterUnits="userSpaceOnUse" color-interpolation-filters="sRGB">
<feFlood flood-opacity="0" result="BackgroundImageFix"/>
<feColorMatrix in="SourceAlpha" type="matrix" values="0 0 0 0 0 0 0 0 0 0 0 0 0 0 0 0 0 0 127 0" result="hardAlpha"/>
<feOffset dx="1.71999" dy="1.71999"/>
<feComposite in2="hardAlpha" operator="out"/>
<feColorMatrix type="matrix" values="0 0 0 0 0.667568 0 0 0 0 0.8 0 0 0 0 0.932432 0 0 0 1 0"/>
<feBlend mode="normal" in2="BackgroundImageFix" result="effect1_dropShadow_321_384"/>
<feBlend mode="normal" in="SourceGraphic" in2="effect1_dropShadow_321_384" result="shape"/>
</filter>
<clipPath id="clip0_321_384">
<rect width="47.3099" height="9.32523" fill="white" transform="translate(258.646 88.3659)"/>
</clipPath>
<clipPath id="clip1_321_384">
<rect width="17.9044" height="17.9044" fill="white" transform="translate(381.014 144.339)"/>
</clipPath>
</defs>
</svg>
