<?xml version="1.0" encoding="UTF-8"?>
<!DOCTYPE svg PUBLIC "-//W3C//DTD SVG 1.1//EN" "http://www.w3.org/Graphics/SVG/1.1/DTD/svg11.dtd">
<!-- Creator: CorelDRAW X8 -->
<svg xmlns="http://www.w3.org/2000/svg" xml:space="preserve" width="7.45445in" height="2in" version="1.1" style="shape-rendering:geometricPrecision; text-rendering:geometricPrecision; image-rendering:optimizeQuality; fill-rule:evenodd; clip-rule:evenodd"
viewBox="0 0 7662 2056"
 xmlns:xlink="http://www.w3.org/1999/xlink">
 <defs>
  <style type="text/css">
   <![CDATA[
    .fil2 {fill:#FEFEFE}
    .fil1 {fill:#1A237E}
    .fil3 {fill:#606062;fill-rule:nonzero}
    .fil0 {fill:#1A237E;fill-rule:nonzero}
   ]]>
  </style>
 </defs>
 <g id="Layer_x0020_1">
  <metadata id="CorelCorpID_0Corel-Layer"/>
  <g>
   <polygon class="fil0" points="5668,1046 1994,1046 1994,1010 5668,1010 "/>
  </g>
  <g>
   <rect class="fil1" width="2056" height="2056"/>
   <rect class="fil2" x="61" y="61" width="1933" height="1933"/>
   <rect class="fil1" x="2803" width="2056" height="2056"/>
   <rect class="fil2" x="2865" y="61" width="1933" height="1933"/>
   <rect class="fil1" x="5606" width="2056" height="2056"/>
   <rect class="fil2" x="5668" y="61" width="1933" height="1933"/>
   <g id="_2490747987056">
    <path class="fil3" d="M765 1313l-16 0 0 -102c-4,3 -9,7 -15,11 -6,3 -12,6 -17,8l0 -15c9,-5 17,-10 23,-16 7,-6 12,-12 15,-17l10 0 0 131z"/>
    <path id="1" class="fil3" d="M806 1248c0,-15 2,-27 5,-37 3,-9 8,-17 14,-22 6,-5 14,-7 24,-7 7,0 13,1 18,4 5,3 10,7 13,12 3,6 6,12 8,20 2,7 3,18 3,30 0,16 -2,28 -5,37 -3,10 -8,17 -14,22 -6,5 -14,8 -23,8 -13,0 -23,-5 -30,-13 -9,-11 -13,-29 -13,-54zm17 0c0,22 2,36 7,43 5,7 11,11 19,11 7,0 13,-4 18,-11 5,-7 8,-21 8,-43 0,-21 -3,-35 -8,-42 -5,-7 -11,-11 -19,-11 -7,0 -13,3 -17,9 -6,8 -8,23 -8,44z"/>
    <path id="2" class="fil3" d="M964 1313l0 -131 45 0c10,0 18,1 24,2 7,2 13,5 19,10 7,5 12,13 15,22 3,9 5,19 5,31 0,10 -1,19 -3,26 -3,8 -6,14 -9,19 -4,5 -8,9 -12,12 -4,3 -10,5 -16,7 -6,1 -13,2 -21,2l-47 0zm18 -16l27 0c9,0 16,0 21,-2 5,-2 8,-4 11,-7 4,-4 8,-9 10,-16 2,-7 3,-16 3,-25 0,-14 -2,-25 -6,-32 -5,-7 -10,-12 -17,-15 -4,-1 -12,-2 -22,-2l-27 0 0 99z"/>
    <path id="3" class="fil3" d="M1156 1301c-6,5 -12,9 -18,11 -5,2 -11,3 -17,3 -11,0 -19,-3 -24,-8 -6,-5 -9,-11 -9,-19 0,-5 1,-9 4,-13 2,-4 4,-7 8,-9 3,-2 7,-4 11,-5 4,-1 8,-2 15,-3 13,-1 22,-3 28,-5 0,-2 0,-4 0,-4 0,-7 -1,-11 -4,-14 -4,-4 -10,-5 -18,-5 -8,0 -14,1 -17,4 -4,2 -6,7 -8,14l-16 -3c2,-6 4,-12 7,-16 3,-4 8,-7 14,-9 7,-3 14,-4 22,-4 8,0 15,1 20,3 5,2 8,4 11,7 2,3 4,7 5,11 0,3 1,8 1,15l0 21c0,15 0,24 1,28 0,4 2,8 3,12l-16 0c-2,-4 -3,-8 -3,-12zm-2 -36c-5,3 -14,5 -26,6 -6,1 -11,2 -14,4 -3,1 -5,3 -6,5 -2,2 -2,5 -2,7 0,5 1,8 4,11 4,3 8,4 15,4 6,0 11,-1 16,-4 5,-3 8,-6 11,-11 1,-3 2,-9 2,-16l0 -6z"/>
    <path id="4" class="fil3" d="M1194 1349l-1 -15c3,1 6,2 9,2 3,0 6,-1 8,-2 2,-1 4,-3 6,-5 1,-2 2,-6 4,-12 1,-1 1,-2 2,-4l-36 -95 17 0 20 55c2,7 5,14 7,22 2,-8 4,-15 6,-22l21 -55 16 0 -36 96c-4,11 -7,18 -9,22 -3,5 -6,9 -10,11 -4,3 -8,4 -13,4 -3,0 -7,-1 -11,-2z"/>
    <path id="5" class="fil3" d="M1280 1285l16 -3c1,6 3,11 7,15 4,3 10,5 17,5 8,0 13,-2 17,-5 3,-3 5,-6 5,-10 0,-4 -2,-7 -5,-9 -2,-1 -8,-3 -16,-5 -12,-3 -20,-6 -25,-8 -4,-2 -8,-5 -10,-9 -2,-4 -3,-8 -3,-13 0,-4 1,-8 2,-11 2,-4 5,-7 8,-9 3,-2 6,-4 10,-5 5,-1 9,-2 14,-2 8,0 14,1 20,3 5,3 9,6 12,9 3,4 5,9 6,15l-16 2c-1,-5 -3,-9 -6,-12 -4,-2 -8,-4 -15,-4 -7,0 -12,2 -15,4 -3,2 -5,5 -5,9 0,2 1,3 2,5 1,2 3,3 6,4 2,1 6,2 14,4 12,3 19,6 24,8 4,2 8,5 10,8 3,4 4,8 4,14 0,5 -1,10 -4,15 -4,5 -8,8 -14,11 -6,2 -12,4 -20,4 -12,0 -21,-3 -28,-8 -6,-5 -10,-12 -12,-22z"/>
    <path id="6" class="fil3" d="M691 1453c0,-22 6,-39 17,-51 12,-12 27,-18 45,-18 12,0 23,2 33,8 9,6 17,14 22,24 5,11 8,22 8,35 0,13 -3,25 -8,36 -6,10 -13,18 -23,23 -10,6 -21,8 -32,8 -12,0 -23,-3 -33,-9 -9,-5 -17,-14 -22,-24 -5,-10 -7,-21 -7,-32zm18 0c0,16 4,28 12,37 9,9 19,14 32,14 13,0 24,-5 32,-14 8,-9 13,-22 13,-39 0,-10 -2,-20 -6,-28 -3,-7 -9,-14 -15,-18 -7,-4 -15,-6 -24,-6 -12,0 -22,4 -31,12 -9,8 -13,22 -13,42z"/>
    <path id="7" class="fil3" d="M862 1516l-36 -94 17 0 20 56c2,6 4,13 6,19 2,-5 4,-11 6,-18l21 -57 17 0 -36 94 -15 0z"/>
    <path id="8" class="fil3" d="M991 1486l17 2c-3,9 -8,17 -15,22 -7,6 -16,8 -27,8 -13,0 -24,-4 -32,-13 -9,-8 -13,-20 -13,-35 0,-16 5,-28 13,-37 8,-9 18,-13 31,-13 13,0 23,4 31,13 8,8 12,20 12,36 0,1 0,2 0,4l-70 0c0,10 3,18 9,24 5,5 11,8 19,8 6,0 11,-1 15,-5 4,-3 8,-8 10,-14zm-52 -26l52 0c0,-8 -2,-14 -6,-18 -5,-6 -11,-9 -19,-9 -8,0 -14,2 -19,7 -5,5 -8,12 -8,20z"/>
    <path id="9" class="fil3" d="M1028 1516l0 -94 14 0 0 14c4,-7 7,-11 10,-13 4,-2 7,-3 11,-3 5,0 11,1 16,5l-6 15c-3,-3 -7,-4 -11,-4 -4,0 -7,1 -10,3 -2,2 -4,5 -5,9 -2,6 -3,12 -3,19l0 49 -16 0z"/>
    <path id="10" class="fil3" d="M1150 1516l0 -12c-6,9 -15,14 -27,14 -7,0 -14,-2 -20,-6 -7,-4 -12,-10 -15,-17 -4,-8 -5,-16 -5,-26 0,-9 1,-18 4,-26 3,-7 8,-13 14,-17 7,-4 14,-6 22,-6 5,0 10,1 15,3 4,3 8,6 11,10l0 -47 16 0 0 130 -15 0zm-51 -47c0,12 3,21 8,27 5,6 11,9 18,9 7,0 13,-3 18,-8 5,-6 7,-15 7,-27 0,-12 -2,-22 -7,-28 -5,-6 -12,-9 -19,-9 -7,0 -13,3 -18,9 -5,5 -7,15 -7,27z"/>
    <path id="11" class="fil3" d="M1252 1516l0 -14c-8,11 -18,16 -30,16 -6,0 -11,-1 -16,-3 -5,-2 -8,-5 -11,-8 -2,-3 -4,-7 -4,-12 -1,-3 -1,-8 -1,-15l0 -58 16 0 0 52c0,8 0,14 1,17 1,4 3,7 6,10 3,2 7,3 12,3 5,0 9,-1 13,-3 5,-3 8,-6 9,-10 2,-5 3,-11 3,-19l0 -50 16 0 0 94 -14 0z"/>
    <path id="12" class="fil3" d="M1356 1486l16 2c-2,9 -7,17 -14,22 -7,6 -16,8 -27,8 -14,0 -25,-4 -33,-13 -8,-8 -12,-20 -12,-35 0,-16 4,-28 12,-37 8,-9 19,-13 32,-13 12,0 23,4 31,13 8,8 12,20 12,36 0,1 0,2 0,4l-71 0c1,10 4,18 9,24 5,5 12,8 20,8 6,0 11,-1 15,-5 4,-3 7,-8 10,-14zm-53 -26l53 0c-1,-8 -3,-14 -6,-18 -5,-6 -12,-9 -20,-9 -7,0 -14,2 -19,7 -5,5 -7,12 -8,20z"/>
    <path class="fil0" d="M1406 985c0,28 -23,51 -51,51l-654 0c-28,0 -51,-23 -51,-51l0 -396 367 301c3,3 7,4 11,4 4,0 7,-1 10,-4l285 -232c7,-6 8,-16 2,-23 -6,-7 -16,-8 -23,-2l-274 224 -350 -287 728 0 0 415zm33 0l0 -431c0,-9 -8,-17 -16,-17l-790 0c-9,0 -16,8 -16,17l0 431c0,46 38,84 84,84l654 0c46,0 84,-38 84,-84z"/>
   </g>
   <g id="_2490747984976">
    <path class="fil3" d="M3592 1297l0 16 -86 0c0,-4 0,-8 2,-11 2,-6 5,-12 10,-18 5,-5 12,-12 21,-19 14,-12 24,-21 29,-28 5,-7 7,-13 7,-19 0,-7 -2,-12 -6,-16 -5,-5 -11,-7 -18,-7 -8,0 -14,2 -19,7 -4,5 -7,11 -7,19l-16 -1c1,-13 5,-22 12,-29 8,-6 18,-9 30,-9 13,0 23,3 30,10 7,7 11,16 11,26 0,5 -1,10 -3,15 -3,6 -6,11 -11,16 -5,6 -13,14 -25,23 -9,8 -16,14 -18,17 -3,3 -5,6 -7,8l64 0z"/>
    <path id="1" class="fil3" d="M3609 1248c0,-15 2,-27 5,-37 3,-9 8,-17 14,-22 6,-5 14,-7 24,-7 7,0 13,1 18,4 5,3 10,7 13,12 4,6 6,12 8,20 2,7 3,18 3,30 0,16 -1,28 -5,37 -3,10 -7,17 -14,22 -6,5 -14,8 -23,8 -13,0 -23,-5 -30,-13 -8,-11 -13,-29 -13,-54zm17 0c0,22 2,36 7,43 5,7 11,11 19,11 7,0 13,-4 18,-11 5,-7 8,-21 8,-43 0,-21 -3,-35 -8,-42 -5,-7 -11,-11 -18,-11 -8,0 -14,3 -18,9 -6,8 -8,23 -8,44z"/>
    <path id="2" class="fil3" d="M3768 1313l0 -131 44 0c11,0 18,1 24,2 7,2 14,5 19,10 7,5 12,13 15,22 4,9 5,19 5,31 0,10 -1,19 -3,26 -2,8 -5,14 -9,19 -4,5 -8,9 -12,12 -4,3 -9,5 -15,7 -7,1 -14,2 -21,2l-47 0zm17 -16l28 0c8,0 15,0 20,-2 5,-2 9,-4 12,-7 4,-4 7,-9 9,-16 2,-7 3,-16 3,-25 0,-14 -2,-25 -6,-32 -5,-7 -10,-12 -17,-15 -4,-1 -12,-2 -22,-2l-27 0 0 99z"/>
    <path id="3" class="fil3" d="M3959 1301c-6,5 -12,9 -17,11 -6,2 -12,3 -18,3 -10,0 -18,-3 -24,-8 -6,-5 -8,-11 -8,-19 0,-5 1,-9 3,-13 2,-4 5,-7 8,-9 3,-2 7,-4 12,-5 3,-1 7,-2 14,-3 13,-1 22,-3 28,-5 0,-2 0,-4 0,-4 0,-7 -1,-11 -4,-14 -4,-4 -10,-5 -18,-5 -8,0 -13,1 -17,4 -4,2 -6,7 -8,14l-16 -3c2,-6 4,-12 7,-16 4,-4 8,-7 15,-9 6,-3 13,-4 21,-4 8,0 15,1 20,3 5,2 9,4 11,7 2,3 4,7 5,11 0,3 1,8 1,15l0 21c0,15 0,24 1,28 0,4 2,8 4,12l-17 0c-2,-4 -3,-8 -3,-12zm-2 -36c-5,3 -14,5 -26,6 -6,1 -11,2 -14,4 -2,1 -5,3 -6,5 -2,2 -2,5 -2,7 0,5 1,8 5,11 3,3 8,4 14,4 6,0 11,-1 16,-4 5,-3 9,-6 11,-11 2,-3 2,-9 2,-16l0 -6z"/>
    <path id="4" class="fil3" d="M3998 1349l-2 -15c3,1 6,2 9,2 4,0 6,-1 8,-2 3,-1 4,-3 6,-5 1,-2 2,-6 5,-12 0,-1 0,-2 1,-4l-36 -95 17 0 20 55c3,7 5,14 7,22 2,-8 4,-15 7,-22l20 -55 16 0 -36 96c-4,11 -7,18 -9,22 -3,5 -6,9 -10,11 -4,3 -8,4 -13,4 -3,0 -7,-1 -10,-2z"/>
    <path id="5" class="fil3" d="M4083 1285l16 -3c1,6 3,11 7,15 4,3 10,5 17,5 8,0 13,-2 17,-5 3,-3 5,-6 5,-10 0,-4 -2,-7 -5,-9 -2,-1 -7,-3 -16,-5 -12,-3 -20,-6 -24,-8 -5,-2 -8,-5 -11,-9 -2,-4 -3,-8 -3,-13 0,-4 1,-8 3,-11 2,-4 4,-7 7,-9 3,-2 6,-4 11,-5 4,-1 9,-2 13,-2 8,0 14,1 20,3 6,3 10,6 12,9 3,4 5,9 6,15l-16 2c-1,-5 -3,-9 -6,-12 -3,-2 -8,-4 -14,-4 -8,0 -13,2 -16,4 -3,2 -5,5 -5,9 0,2 1,3 2,5 1,2 3,3 6,4 2,1 7,2 14,4 12,3 20,6 24,8 5,2 8,5 11,8 2,4 3,8 3,14 0,5 -1,10 -4,15 -3,5 -8,8 -14,11 -6,2 -12,4 -20,4 -12,0 -21,-3 -28,-8 -6,-5 -10,-12 -12,-22z"/>
    <path id="6" class="fil3" d="M3494 1453c0,-22 6,-39 17,-51 12,-12 27,-18 45,-18 12,0 23,2 33,8 10,6 17,14 22,24 5,11 8,22 8,35 0,13 -3,25 -8,36 -6,10 -13,18 -23,23 -10,6 -20,8 -32,8 -12,0 -23,-3 -33,-9 -9,-5 -17,-14 -22,-24 -5,-10 -7,-21 -7,-32zm18 0c0,16 4,28 12,37 9,9 19,14 32,14 13,0 24,-5 32,-14 9,-9 13,-22 13,-39 0,-10 -2,-20 -6,-28 -3,-7 -8,-14 -15,-18 -7,-4 -15,-6 -24,-6 -12,0 -22,4 -31,12 -9,8 -13,22 -13,42z"/>
    <path id="7" class="fil3" d="M3665 1516l-36 -94 17 0 20 56c3,6 5,13 6,19 2,-5 4,-11 6,-18l21 -57 17 0 -36 94 -15 0z"/>
    <path id="8" class="fil3" d="M3794 1486l17 2c-3,9 -7,17 -15,22 -7,6 -16,8 -27,8 -13,0 -24,-4 -32,-13 -8,-8 -12,-20 -12,-35 0,-16 4,-28 12,-37 8,-9 19,-13 32,-13 12,0 22,4 30,13 8,8 12,20 12,36 0,1 0,2 0,4l-70 0c1,10 4,18 9,24 5,5 12,8 19,8 6,0 11,-1 15,-5 5,-3 8,-8 10,-14zm-52 -26l53 0c-1,-8 -3,-14 -7,-18 -5,-6 -11,-9 -19,-9 -8,0 -14,2 -19,7 -5,5 -8,12 -8,20z"/>
    <path id="9" class="fil3" d="M3831 1516l0 -94 14 0 0 14c4,-7 7,-11 11,-13 3,-2 6,-3 10,-3 5,0 11,1 16,5l-5 15c-4,-3 -8,-4 -12,-4 -4,0 -7,1 -9,3 -3,2 -5,5 -6,9 -2,6 -3,12 -3,19l0 49 -16 0z"/>
    <path id="10" class="fil3" d="M3953 1516l0 -12c-6,9 -15,14 -27,14 -7,0 -14,-2 -20,-6 -7,-4 -12,-10 -15,-17 -3,-8 -5,-16 -5,-26 0,-9 1,-18 4,-26 4,-7 8,-13 15,-17 6,-4 13,-6 21,-6 5,0 10,1 15,3 4,3 8,6 11,10l0 -47 16 0 0 130 -15 0zm-51 -47c0,12 3,21 8,27 5,6 11,9 18,9 7,0 13,-3 18,-8 5,-6 7,-15 7,-27 0,-12 -2,-22 -7,-28 -5,-6 -11,-9 -19,-9 -7,0 -13,3 -18,9 -4,5 -7,15 -7,27z"/>
    <path id="11" class="fil3" d="M4055 1516l0 -14c-8,11 -18,16 -30,16 -6,0 -11,-1 -16,-3 -4,-2 -8,-5 -10,-8 -3,-3 -4,-7 -5,-12 -1,-3 -1,-8 -1,-15l0 -58 16 0 0 52c0,8 0,14 1,17 1,4 3,7 6,10 3,2 7,3 12,3 5,0 9,-1 14,-3 4,-3 7,-6 9,-10 1,-5 2,-11 2,-19l0 -50 16 0 0 94 -14 0z"/>
    <path id="12" class="fil3" d="M4159 1486l16 2c-2,9 -7,17 -14,22 -7,6 -16,8 -27,8 -14,0 -25,-4 -33,-13 -8,-8 -12,-20 -12,-35 0,-16 4,-28 12,-37 8,-9 19,-13 32,-13 13,0 23,4 31,13 8,8 12,20 12,36 0,1 0,2 0,4l-71 0c1,10 4,18 9,24 5,5 12,8 20,8 6,0 11,-1 15,-5 4,-3 7,-8 10,-14zm-53 -26l53 0c-1,-8 -3,-14 -6,-18 -5,-6 -12,-9 -20,-9 -7,0 -13,2 -18,7 -5,5 -8,12 -9,20z"/>
    <path class="fil0" d="M4209 985c0,28 -23,51 -51,51l-654 0c-28,0 -51,-23 -51,-51l0 -396 368 301c3,3 6,4 10,4 4,0 7,-1 10,-4l285 -232c7,-6 8,-16 2,-23 -5,-7 -16,-8 -23,-2l-274 224 -350 -287 728 0 0 415zm33 0l0 -431c0,-9 -7,-17 -16,-17l-790 0c-9,0 -16,8 -16,17l0 431c0,46 38,84 84,84l654 0c46,0 84,-38 84,-84z"/>
   </g>
   <polygon class="fil3" points="6018,1333 6018,1297 5983,1297 5983,1282 6018,1282 6018,1247 6033,1247 6033,1282 6069,1282 6069,1297 6033,1297 6033,1333 "/>
   <path id="1" class="fil3" d="M6119 1354l50 -130 19 0 53 130 -20 0 -15 -39 -55 0 -14 39 -18 0zm38 -53l44 0 -14 -37c-4,-11 -7,-20 -9,-27 -2,9 -4,17 -7,25l-14 39z"/>
   <path id="2" class="fil3" d="M6314 1354l0 -12c-6,9 -15,14 -27,14 -7,0 -14,-2 -20,-6 -7,-4 -12,-10 -15,-18 -4,-7 -5,-15 -5,-25 0,-10 1,-18 4,-26 4,-7 8,-13 15,-17 6,-4 13,-6 21,-6 5,0 10,1 15,3 4,3 8,6 11,10l0 -47 16 0 0 130 -15 0zm-51 -47c0,12 3,21 8,27 5,6 11,9 18,9 7,0 13,-3 18,-9 5,-5 7,-14 7,-26 0,-13 -2,-22 -7,-28 -5,-6 -12,-9 -19,-9 -7,0 -13,3 -18,9 -4,5 -7,14 -7,27z"/>
   <path id="3" class="fil3" d="M6415 1354l0 -12c-6,9 -15,14 -26,14 -8,0 -15,-2 -21,-6 -6,-4 -11,-10 -15,-18 -3,-7 -5,-15 -5,-25 0,-10 2,-18 5,-26 3,-7 8,-13 14,-17 6,-4 13,-6 21,-6 6,0 11,1 15,3 5,3 8,6 11,10l0 -47 16 0 0 130 -15 0zm-51 -47c0,12 3,21 8,27 5,6 11,9 18,9 7,0 13,-3 18,-9 5,-5 7,-14 7,-26 0,-13 -2,-22 -7,-28 -5,-6 -11,-9 -19,-9 -7,0 -13,3 -17,9 -5,5 -8,14 -8,27z"/>
   <path id="4" class="fil3" d="M6508 1354l0 -130 58 0c12,0 20,1 27,3 6,3 10,7 14,13 4,5 5,12 5,19 0,9 -3,17 -9,24 -6,6 -15,10 -27,12 4,2 8,4 10,6 5,5 10,11 14,18l23 35 -22 0 -17 -27c-5,-8 -9,-14 -12,-18 -4,-4 -6,-7 -9,-9 -3,-1 -5,-3 -8,-3 -2,-1 -5,-1 -9,-1l-20 0 0 58 -18 0zm18 -73l37 0c7,0 14,-1 18,-2 4,-2 8,-4 10,-8 2,-4 4,-8 4,-12 0,-6 -3,-11 -7,-15 -5,-4 -12,-6 -21,-6l-41 0 0 43z"/>
   <path id="5" class="fil3" d="M6702 1323l16 3c-2,9 -7,17 -14,22 -7,5 -16,8 -27,8 -14,0 -25,-4 -33,-13 -8,-8 -12,-20 -12,-35 0,-16 4,-29 12,-37 8,-9 19,-13 32,-13 13,0 23,4 31,12 8,9 12,21 12,37 0,1 0,2 0,4l-71 0c1,10 4,18 9,24 6,5 12,8 20,8 6,0 11,-2 15,-5 4,-3 7,-8 10,-15zm-53 -25l53 0c-1,-8 -3,-14 -6,-18 -5,-6 -12,-9 -20,-9 -7,0 -13,2 -18,7 -5,5 -8,12 -9,20z"/>
   <path id="6" class="fil3" d="M6739 1354l0 -94 14 0 0 13c3,-5 7,-8 12,-11 5,-3 10,-4 17,-4 7,0 12,1 17,4 4,3 7,7 9,12 8,-11 17,-16 30,-16 9,0 16,2 21,7 5,5 8,13 8,24l0 65 -16 0 0 -59c0,-7 -1,-11 -2,-14 -1,-3 -3,-5 -5,-7 -3,-2 -6,-3 -10,-3 -7,0 -12,3 -17,7 -4,4 -6,11 -6,21l0 55 -16 0 0 -61c0,-7 -2,-13 -4,-16 -3,-4 -7,-6 -13,-6 -4,0 -9,2 -12,4 -4,2 -7,6 -9,10 -1,5 -2,11 -2,20l0 49 -16 0z"/>
   <path id="7" class="fil3" d="M6890 1242l0 -18 16 0 0 18 -16 0zm0 112l0 -94 16 0 0 94 -16 0z"/>
   <path id="8" class="fil3" d="M6931 1354l0 -94 14 0 0 13c7,-10 17,-15 30,-15 6,0 11,1 16,3 5,2 8,4 11,8 2,3 4,7 5,11 0,3 0,9 0,16l0 58 -16 0 0 -57c0,-7 0,-12 -1,-15 -2,-3 -4,-6 -7,-8 -3,-2 -7,-3 -11,-3 -7,0 -13,3 -18,7 -5,4 -7,12 -7,24l0 52 -16 0z"/>
   <path id="9" class="fil3" d="M7093 1354l0 -12c-6,9 -15,14 -26,14 -8,0 -15,-2 -21,-6 -6,-4 -11,-10 -15,-18 -3,-7 -5,-15 -5,-25 0,-10 2,-18 5,-26 3,-7 8,-13 14,-17 6,-4 13,-6 21,-6 6,0 11,1 15,3 5,3 8,6 11,10l0 -47 16 0 0 130 -15 0zm-51 -47c0,12 3,21 8,27 5,6 11,9 18,9 7,0 13,-3 18,-9 5,-5 7,-14 7,-26 0,-13 -2,-22 -7,-28 -5,-6 -11,-9 -19,-9 -7,0 -13,3 -17,9 -5,5 -8,14 -8,27z"/>
   <path id="10" class="fil3" d="M7198 1323l16 3c-2,9 -7,17 -14,22 -7,5 -16,8 -27,8 -14,0 -25,-4 -33,-13 -8,-8 -12,-20 -12,-35 0,-16 4,-29 12,-37 8,-9 19,-13 32,-13 13,0 23,4 31,12 8,9 12,21 12,37 0,1 0,2 0,4l-71 0c1,10 4,18 9,24 5,5 12,8 20,8 6,0 11,-2 15,-5 4,-3 7,-8 10,-15zm-53 -25l53 0c-1,-8 -3,-14 -6,-18 -5,-6 -12,-9 -20,-9 -7,0 -13,2 -18,7 -5,5 -8,12 -9,20z"/>
   <path id="11" class="fil3" d="M7234 1354l0 -94 15 0 0 14c3,-7 7,-11 10,-13 3,-2 7,-3 10,-3 6,0 11,1 17,5l-6 14c-4,-2 -8,-3 -12,-3 -3,0 -6,1 -9,3 -3,2 -5,5 -6,9 -2,6 -3,12 -3,19l0 49 -16 0z"/>
   <path class="fil0" d="M6868 958c-77,-48 -73,-203 -73,-205 0,-73 -48,-134 -114,-154l0 -14c0,-26 -21,-47 -47,-47 -26,0 -47,21 -47,47l0 14c-66,20 -114,81 -114,154 2,44 -9,165 -73,205 -9,5 -13,16 -10,26 3,9 12,16 22,16l136 0c9,39 44,69 86,69 42,0 77,-30 86,-69l136 0c11,0 20,-7 22,-16 3,-10 -1,-21 -10,-26zm-254 -3l-146 0c54,-77 51,-197 51,-202 0,-64 51,-116 115,-116 64,0 116,52 116,115 0,6 -4,126 51,203l-187 0z"/>
  </g>
 </g>
</svg>
