<?xml version="1.0" encoding="UTF-8"?>
<!DOCTYPE svg PUBLIC "-//W3C//DTD SVG 1.1//EN" "http://www.w3.org/Graphics/SVG/1.1/DTD/svg11.dtd">
<!-- Creator: CorelDRAW X8 -->
<svg xmlns="http://www.w3.org/2000/svg" xml:space="preserve" width="4.21371in" height="3in" version="1.1" style="shape-rendering:geometricPrecision; text-rendering:geometricPrecision; image-rendering:optimizeQuality; fill-rule:evenodd; clip-rule:evenodd"
viewBox="0 0 1527 1087"
 xmlns:xlink="http://www.w3.org/1999/xlink">
 <defs>
  <style type="text/css">
   <![CDATA[
    .fil1 {fill:none}
    .fil5 {fill:#FEFEFE}
    .fil0 {fill:#1A237E}
    .fil3 {fill:#FEFEFE;fill-rule:nonzero}
    .fil4 {fill:#606062;fill-rule:nonzero}
    .fil2 {fill:#1A237E;fill-rule:nonzero}
   ]]>
  </style>
 </defs>
 <g id="Layer_x0020_1">
  <metadata id="CorelCorpID_0Corel-Layer"/>
  <g id="_2490688746944">
   <path class="fil0" d="M1342 171l-1290 0c-29,0 -52,24 -52,52l0 813c0,28 23,51 52,51l1290 0c29,0 52,-23 52,-51l0 -813c0,-28 -23,-52 -52,-52zm3 821c0,28 -24,51 -53,51l-1191 0c-29,0 -53,-23 -53,-51l0 -726c0,-29 24,-52 53,-52l1192 0c29,0 53,23 53,52l0 726 -1 0z"/>
   <line class="fil1" x1="104" y1="710" x2="1285" y2= "705" />
   <path class="fil2" d="M116 294l16 0c3,0 6,0 7,0 2,1 3,1 5,2 1,1 2,2 3,4 1,1 1,3 1,4 0,2 0,4 -1,6 -1,1 -3,2 -5,3 3,1 5,2 6,4 1,2 2,4 2,6 0,2 0,4 -1,6 -1,1 -2,3 -4,4 -1,1 -3,1 -5,2 -2,0 -5,0 -10,0l-14 0 0 -41zm8 7l0 9 6 0c3,0 5,0 6,0 1,0 2,-1 3,-1 1,-1 1,-2 1,-3 0,-2 0,-3 -1,-4 -1,0 -2,-1 -3,-1 -1,0 -3,0 -7,0l-5 0zm0 16l0 11 8 0c3,0 5,0 5,0 2,0 3,-1 3,-2 1,-1 2,-2 2,-3 0,-2 -1,-3 -1,-3 -1,-1 -2,-2 -3,-2 -1,-1 -3,-1 -7,-1l-7 0z"/>
   <path id="1" class="fil2" d="M163 314l-7 -1c1,-3 2,-5 4,-6 2,-2 5,-2 9,-2 3,0 6,0 7,1 2,1 3,2 4,3 1,1 1,4 1,7l0 9c0,3 0,5 0,6 1,1 1,3 2,4l-8 0c0,-1 0,-1 -1,-2 0,-1 0,-1 0,-1 -1,1 -3,2 -4,3 -2,0 -3,1 -5,1 -3,0 -6,-1 -7,-3 -2,-1 -3,-4 -3,-6 0,-2 0,-3 1,-5 1,-1 2,-2 4,-3 1,0 3,-1 6,-1 3,-1 6,-2 7,-2l0 -1c0,-2 0,-3 -1,-3 0,-1 -2,-1 -4,-1 -1,0 -2,0 -3,1 -1,0 -2,1 -2,2zm10 7c-1,0 -2,1 -4,1 -3,0 -4,1 -5,1 -1,1 -1,2 -1,3 0,1 0,2 1,3 1,1 2,1 3,1 2,0 3,0 4,-1 1,-1 2,-2 2,-3 0,0 0,-2 0,-4l0 -1z"/>
   <path id="2" class="fil2" d="M216 335l-8 0 0 -15c0,-3 0,-5 -1,-6 0,-1 0,-2 -1,-3 -1,0 -2,0 -3,0 -1,0 -3,0 -4,1 -1,1 -1,2 -2,3 0,1 0,3 0,7l0 13 -8 0 0 -30 7 0 0 5c3,-4 6,-5 10,-5 2,0 3,0 5,1 1,0 2,1 3,2 1,1 1,2 1,3 1,2 1,3 1,6l0 18z"/>
   <polygon id="3" class="fil2" points="223,335 223,294 231,294 231,316 240,305 250,305 240,316 251,335 242,335 235,322 231,325 231,335 "/>
   <path id="4" class="fil2" d="M306 335l-9 0 -3 -9 -17 0 -3 9 -9 0 16 -41 9 0 16 41zm-15 -16l-6 -15 -5 15 11 0z"/>
   <path id="5" class="fil2" d="M336 314l-7 1c-1,-1 -1,-2 -2,-3 -1,-1 -2,-1 -4,-1 -2,0 -3,1 -4,2 -2,1 -2,3 -2,7 0,3 0,6 2,7 1,2 2,2 4,2 2,0 3,0 4,-1 1,-1 2,-2 2,-4l8 1c-1,4 -3,6 -5,8 -2,2 -5,3 -9,3 -4,0 -8,-2 -10,-4 -3,-3 -4,-7 -4,-12 0,-5 1,-8 4,-11 2,-3 6,-4 10,-4 4,0 7,0 9,2 2,2 3,4 4,7z"/>
   <path id="6" class="fil2" d="M368 314l-8 1c0,-1 0,-2 -1,-3 -1,-1 -2,-1 -4,-1 -2,0 -3,1 -5,2 -1,1 -1,3 -1,7 0,3 0,6 1,7 2,2 3,2 5,2 2,0 3,0 4,-1 1,-1 1,-2 2,-4l8 1c-1,4 -3,6 -5,8 -2,2 -5,3 -9,3 -4,0 -8,-2 -11,-4 -2,-3 -3,-7 -3,-12 0,-5 1,-8 4,-11 2,-3 6,-4 10,-4 4,0 6,0 9,2 2,2 3,4 4,7z"/>
   <path id="7" class="fil2" d="M372 320c0,-3 1,-5 2,-8 2,-2 3,-4 6,-5 2,-2 5,-2 8,-2 4,0 8,1 11,4 2,3 4,7 4,11 0,5 -2,8 -4,11 -3,3 -7,5 -11,5 -3,0 -6,-1 -8,-2 -3,-1 -4,-3 -6,-6 -1,-2 -2,-5 -2,-8zm8 0c0,3 1,5 2,7 2,2 4,2 6,2 2,0 3,0 5,-2 1,-2 2,-4 2,-7 0,-3 -1,-5 -2,-7 -2,-1 -3,-2 -5,-2 -2,0 -4,1 -6,2 -1,2 -2,4 -2,7z"/>
   <path id="8" class="fil2" d="M429 335l0 -4c-1,1 -3,2 -5,3 -1,1 -3,2 -5,2 -2,0 -4,-1 -6,-2 -1,0 -2,-2 -3,-3 -1,-2 -1,-4 -1,-7l0 -19 8 0 0 14c0,4 0,7 0,8 0,1 1,1 2,2 1,0 1,1 3,1 1,0 2,-1 3,-1 1,-1 2,-2 2,-3 1,-1 1,-4 1,-8l0 -13 8 0 0 30 -7 0z"/>
   <path id="9" class="fil2" d="M471 335l-8 0 0 -15c0,-3 0,-5 0,-6 -1,-1 -1,-2 -2,-3 -1,0 -2,0 -3,0 -1,0 -2,0 -4,1 -1,1 -1,2 -2,3 0,1 0,3 0,7l0 13 -8 0 0 -30 7 0 0 5c3,-4 6,-5 10,-5 2,0 3,0 5,1 1,0 2,1 3,2 1,1 1,2 1,3 1,2 1,3 1,6l0 18z"/>
   <path id="10" class="fil2" d="M492 305l0 7 -5 0 0 12c0,2 0,3 0,4 0,0 0,1 1,1 0,0 1,0 1,0 1,0 2,0 3,-1l1 7c-2,0 -4,1 -6,1 -2,0 -3,-1 -4,-1 -1,0 -2,-1 -2,-2 -1,-1 -1,-2 -2,-3 0,-1 0,-3 0,-5l0 -13 -3 0 0 -7 3 0 0 -6 8 -4 0 10 5 0z"/>
   <rect class="fil0" x="60" y="396" width="1274.03" height="86.7935"/>
   <path class="fil3" d="M134 463l0 -35 13 0c2,0 4,1 5,1 2,0 3,1 5,1 1,1 2,2 2,4 1,1 1,3 1,4 0,3 -1,6 -2,8 -2,2 -6,3 -10,3l-9 0 0 14 -5 0zm5 -18l9 0c3,0 5,-1 6,-2 1,-1 2,-3 2,-5 0,-1 -1,-2 -1,-3 -1,-1 -2,-2 -3,-2 -1,0 -2,-1 -4,-1l-9 0 0 13z"/>
   <path id="1" class="fil3" d="M182 459c-2,2 -3,3 -5,3 -1,1 -3,1 -4,1 -3,0 -5,-1 -7,-2 -1,-1 -2,-3 -2,-5 0,-1 0,-2 1,-3 1,-1 1,-2 2,-3 1,0 2,-1 3,-1 1,0 2,0 4,-1 3,0 6,-1 7,-1 0,-1 0,-1 0,-1 0,-2 0,-3 -1,-4 -1,-1 -2,-1 -5,-1 -2,0 -3,0 -4,1 -1,0 -2,2 -2,3l-4 0c0,-2 1,-3 2,-4 1,-1 2,-2 3,-3 2,0 4,-1 6,-1 2,0 4,1 5,1 2,1 3,1 3,2 1,1 1,2 1,3 1,0 1,2 1,4l0 5c0,4 0,7 0,8 0,1 0,2 1,3l-4 0c-1,-1 -1,-2 -1,-4zm-1 -9c-1,1 -3,1 -6,2 -2,0 -3,0 -4,1 -1,0 -1,0 -2,1 0,0 0,1 0,2 0,1 0,2 1,3 1,0 2,1 4,1 1,0 3,-1 4,-1 1,-1 2,-2 3,-3 0,-1 0,-2 0,-4l0 -2z"/>
   <path id="2" class="fil3" d="M192 463l0 -25 4 0 0 4c1,-2 2,-3 2,-4 1,0 2,-1 3,-1 2,0 3,1 4,2l-1 3c-1,0 -2,0 -3,0 -1,0 -2,0 -3,0 0,1 -1,2 -1,3 -1,1 -1,3 -1,5l0 13 -4 0z"/>
   <path id="3" class="fil3" d="M217 459l1 3c-2,1 -3,1 -4,1 -1,0 -2,0 -3,-1 -1,0 -1,-1 -2,-2 0,-1 0,-2 0,-5l0 -14 -3 0 0 -3 3 0 0 -6 4 -3 0 9 4 0 0 3 -4 0 0 15c0,1 0,1 0,2 0,0 0,0 1,1 0,0 1,0 1,0 1,0 1,0 2,0z"/>
   <path id="4" class="fil3" d="M221 433l0 -5 4 0 0 5 -4 0zm0 30l0 -25 4 0 0 25 -4 0z"/>
   <path id="5" class="fil3" d="M248 453l4 1c0,3 -2,5 -3,7 -2,1 -5,2 -7,2 -4,0 -6,-1 -8,-3 -2,-2 -3,-6 -3,-10 0,-2 0,-5 1,-7 1,-2 2,-3 4,-4 2,-1 4,-2 6,-2 2,0 5,1 6,2 2,2 3,4 4,6l-4 1c-1,-2 -2,-3 -3,-4 0,-1 -2,-1 -3,-1 -2,0 -4,0 -5,2 -2,1 -2,4 -2,7 0,3 0,6 2,7 1,2 3,3 5,3 1,0 3,-1 4,-2 1,-1 2,-2 2,-5z"/>
   <path id="6" class="fil3" d="M272 463l0 -4c-2,3 -5,4 -8,4 -2,0 -3,0 -4,-1 -1,0 -2,-1 -3,-2 -1,-1 -1,-2 -1,-3 0,-1 -1,-2 -1,-4l0 -15 5 0 0 13c0,3 0,4 0,5 0,1 1,2 2,2 0,1 1,1 3,1 1,0 2,0 3,-1 1,0 2,-1 3,-2 0,-1 0,-3 0,-5l0 -13 4 0 0 25 -3 0z"/>
   <polygon id="7" class="fil3" points="282,463 282,428 286,428 286,463 "/>
   <path id="8" class="fil3" d="M309 459c-2,2 -3,3 -5,3 -1,1 -3,1 -4,1 -3,0 -5,-1 -7,-2 -1,-1 -2,-3 -2,-5 0,-1 0,-2 1,-3 1,-1 1,-2 2,-3 1,0 2,-1 3,-1 1,0 2,0 4,-1 3,0 6,-1 7,-1 0,-1 0,-1 0,-1 0,-2 0,-3 -1,-4 -1,-1 -2,-1 -5,-1 -2,0 -3,0 -4,1 -1,0 -2,2 -2,3l-4 0c0,-2 1,-3 2,-4 1,-1 2,-2 3,-3 2,0 4,-1 6,-1 2,0 4,1 5,1 2,1 3,1 3,2 1,1 1,2 1,3 1,0 1,2 1,4l0 5c0,4 0,7 0,8 0,1 0,2 1,3l-4 0c-1,-1 -1,-2 -1,-4zm-1 -9c-1,1 -3,1 -6,2 -2,0 -3,0 -4,1 -1,0 -1,0 -2,1 0,0 0,1 0,2 0,1 0,2 1,3 1,0 2,1 4,1 1,0 3,-1 4,-1 1,-1 2,-2 3,-3 0,-1 0,-2 0,-4l0 -2z"/>
   <path id="9" class="fil3" d="M319 463l0 -25 4 0 0 4c1,-2 2,-3 2,-4 1,0 2,-1 3,-1 2,0 3,1 4,2l-1 3c-1,0 -2,0 -3,0 -1,0 -2,0 -2,0 -1,1 -2,2 -2,3 -1,1 -1,3 -1,5l0 13 -4 0z"/>
   <path class="fil3" d="M758 463l0 -35 13 0c2,0 4,1 5,1 2,0 3,1 4,1 1,1 2,2 3,4 1,1 1,3 1,4 0,3 -1,6 -3,8 -2,2 -5,3 -10,3l-8 0 0 14 -5 0zm5 -18l8 0c3,0 5,-1 7,-2 1,-1 1,-3 1,-5 0,-1 0,-2 -1,-3 0,-1 -1,-2 -3,-2 0,0 -2,-1 -4,-1l-8 0 0 13z"/>
   <path id="1" class="fil3" d="M805 459c-1,2 -3,3 -4,3 -2,1 -3,1 -5,1 -2,0 -4,-1 -6,-2 -1,-1 -2,-3 -2,-5 0,-1 0,-2 1,-3 0,-1 1,-2 2,-3 1,0 2,-1 3,-1 1,0 2,0 4,-1 3,0 5,-1 7,-1 0,-1 0,-1 0,-1 0,-2 0,-3 -1,-4 -1,-1 -3,-1 -5,-1 -2,0 -3,0 -4,1 -1,0 -2,2 -2,3l-4 0c0,-2 1,-3 1,-4 1,-1 3,-2 4,-3 2,0 4,-1 6,-1 2,0 4,1 5,1 1,1 2,1 3,2 0,1 1,2 1,3 0,0 0,2 0,4l0 5c0,4 0,7 1,8 0,1 0,2 1,3l-5 0c0,-1 0,-2 -1,-4zm0 -9c-1,1 -4,1 -7,2 -1,0 -3,0 -3,1 -1,0 -2,0 -2,1 0,0 -1,1 -1,2 0,1 1,2 2,3 0,0 2,1 3,1 2,0 3,-1 5,-1 1,-1 2,-2 2,-3 1,-1 1,-2 1,-4l0 -2z"/>
   <path id="2" class="fil3" d="M816 463l0 -25 3 0 0 4c1,-2 2,-3 3,-4 1,0 2,-1 3,-1 1,0 3,1 4,2l-1 3c-1,0 -2,0 -3,0 -1,0 -2,0 -3,0 -1,1 -1,2 -1,3 -1,1 -1,3 -1,5l0 13 -4 0z"/>
   <path id="3" class="fil3" d="M841 459l0 3c-1,1 -2,1 -3,1 -1,0 -3,0 -3,-1 -1,0 -2,-1 -2,-2 0,-1 -1,-2 -1,-5l0 -14 -3 0 0 -3 3 0 0 -6 5 -3 0 9 4 0 0 3 -4 0 0 15c0,1 0,1 0,2 0,0 0,0 0,1 1,0 1,0 2,0 0,0 1,0 2,0z"/>
   <path id="4" class="fil3" d="M845 433l0 -5 4 0 0 5 -4 0zm0 30l0 -25 4 0 0 25 -4 0z"/>
   <path id="5" class="fil3" d="M872 453l4 1c-1,3 -2,5 -4,7 -2,1 -4,2 -7,2 -3,0 -6,-1 -8,-3 -2,-2 -3,-6 -3,-10 0,-2 1,-5 2,-7 0,-2 2,-3 4,-4 1,-1 3,-2 5,-2 3,0 5,1 7,2 2,2 3,4 3,6l-4 1c0,-2 -1,-3 -2,-4 -1,-1 -2,-1 -3,-1 -2,0 -4,0 -6,2 -1,1 -2,4 -2,7 0,3 1,6 2,7 2,2 3,3 5,3 2,0 3,-1 4,-2 2,-1 2,-2 3,-5z"/>
   <path id="6" class="fil3" d="M895 463l0 -4c-2,3 -4,4 -7,4 -2,0 -3,0 -4,-1 -2,0 -3,-1 -3,-2 -1,-1 -1,-2 -2,-3 0,-1 0,-2 0,-4l0 -15 4 0 0 13c0,3 0,4 1,5 0,1 0,2 1,2 1,1 2,1 3,1 2,0 3,0 4,-1 1,0 2,-1 2,-2 1,-1 1,-3 1,-5l0 -13 4 0 0 25 -4 0z"/>
   <polygon id="7" class="fil3" points="906,463 906,428 910,428 910,463 "/>
   <path id="8" class="fil3" d="M932 459c-1,2 -3,3 -4,3 -1,1 -3,1 -5,1 -2,0 -4,-1 -6,-2 -1,-1 -2,-3 -2,-5 0,-1 0,-2 1,-3 0,-1 1,-2 2,-3 1,0 2,-1 3,-1 1,0 2,0 4,-1 3,0 6,-1 7,-1 0,-1 0,-1 0,-1 0,-2 0,-3 -1,-4 -1,-1 -3,-1 -5,-1 -2,0 -3,0 -4,1 -1,0 -2,2 -2,3l-4 0c0,-2 1,-3 1,-4 1,-1 3,-2 4,-3 2,0 4,-1 6,-1 2,0 4,1 5,1 1,1 2,1 3,2 0,1 1,2 1,3 0,0 0,2 0,4l0 5c0,4 0,7 1,8 0,1 0,2 1,3l-5 0c0,-1 0,-2 -1,-4zm0 -9c-1,1 -4,1 -7,2 -1,0 -3,0 -3,1 -1,0 -2,0 -2,1 0,0 -1,1 -1,2 0,1 1,2 2,3 0,0 2,1 3,1 2,0 3,-1 5,-1 1,-1 2,-2 2,-3 1,-1 1,-2 1,-4l0 -2z"/>
   <path id="9" class="fil3" d="M943 463l0 -25 4 0 0 4c0,-2 1,-3 2,-4 1,0 2,-1 3,-1 1,0 3,1 4,2l-1 3c-1,0 -2,0 -3,0 -1,0 -2,0 -3,0 -1,1 -1,2 -1,3 -1,1 -1,3 -1,5l0 13 -4 0z"/>
   <path class="fil3" d="M1174 463l13 -34 5 0 14 34 -5 0 -4 -11 -15 0 -3 11 -5 0zm10 -14l11 0 -3 -10c-1,-3 -2,-5 -3,-7 0,2 -1,5 -1,7l-4 10z"/>
   <path id="1" class="fil3" d="M1209 463l0 -25 4 0 0 4c0,-2 2,-3 3,-3 1,-1 3,-1 4,-1 2,0 4,0 5,1 1,0 2,2 2,3 2,-3 5,-4 8,-4 2,0 4,0 5,2 2,1 2,3 2,6l0 17 -4 0 0 -16c0,-1 0,-3 0,-3 0,-1 -1,-2 -2,-2 0,-1 -1,-1 -2,-1 -2,0 -3,1 -4,2 -2,1 -2,3 -2,5l0 15 -4 0 0 -16c0,-2 -1,-3 -1,-4 -1,-1 -2,-2 -4,-2 -1,0 -2,0 -3,1 -1,1 -2,2 -2,3 -1,1 -1,3 -1,5l0 13 -4 0z"/>
   <path id="2" class="fil3" d="M1258 459l0 4c-1,0 -2,0 -3,0 -1,0 -3,0 -3,-1 -1,0 -2,-1 -2,-1 0,-1 -1,-3 -1,-5l0 -15 -3 0 0 -3 3 0 0 -6 5 -3 0 9 4 0 0 3 -4 0 0 15c0,1 0,2 0,2 0,0 0,1 0,1 1,0 1,0 2,0 0,0 1,0 2,0z"/>
   <path class="fil3" d="M597 463l13 -34 5 0 14 34 -5 0 -4 -11 -15 0 -3 11 -5 0zm10 -14l11 0 -3 -10c-1,-3 -2,-5 -3,-7 0,2 -1,5 -2,7l-3 10z"/>
   <path id="1" class="fil3" d="M632 463l0 -25 4 0 0 4c0,-2 1,-3 3,-3 1,-1 2,-1 4,-1 2,0 3,0 5,1 1,0 2,2 2,3 2,-3 5,-4 8,-4 2,0 4,0 5,2 2,1 2,3 2,6l0 17 -4 0 0 -16c0,-1 0,-3 0,-3 0,-1 -1,-2 -2,-2 0,-1 -1,-1 -2,-1 -2,0 -3,1 -5,2 -1,1 -1,3 -1,5l0 15 -4 0 0 -16c0,-2 -1,-3 -1,-4 -1,-1 -2,-2 -4,-2 -1,0 -2,0 -3,1 -1,1 -2,2 -2,3 -1,1 -1,3 -1,5l0 13 -4 0z"/>
   <path id="2" class="fil3" d="M681 459l0 4c-1,0 -2,0 -3,0 -1,0 -3,0 -3,-1 -1,0 -2,-1 -2,-1 -1,-1 -1,-3 -1,-5l0 -15 -3 0 0 -3 3 0 0 -6 4 -3 0 9 5 0 0 3 -5 0 0 15c0,1 1,2 1,2 0,0 0,1 0,1 1,0 1,0 2,0 0,0 1,0 2,0z"/>
   <path class="fil4" d="M134 565l0 -34 16 0c3,0 5,1 6,1 2,1 3,2 4,4 1,1 2,3 2,5 0,2 -1,4 -3,6 -1,1 -4,2 -7,3 1,1 2,1 3,2 1,1 2,2 4,4l5 9 -5 0 -5 -7c-1,-2 -2,-3 -3,-4 -1,-1 -2,-2 -2,-3 -1,0 -2,0 -2,-1 -1,0 -2,0 -3,0l-5 0 0 15 -5 0zm5 -19l10 0c2,0 3,0 4,0 2,-1 3,-1 3,-2 1,-1 1,-2 1,-3 0,-2 -1,-3 -2,-4 -1,-1 -3,-2 -5,-2l-11 0 0 11z"/>
   <path id="1" class="fil4" d="M184 562c-1,2 -3,3 -4,3 -2,1 -3,1 -5,1 -2,0 -5,-1 -6,-2 -1,-1 -2,-3 -2,-5 0,-1 0,-2 1,-3 0,-1 1,-2 2,-3 1,0 2,-1 3,-1 1,0 2,-1 4,-1 3,0 5,-1 7,-1 0,-1 0,-1 0,-1 0,-2 0,-3 -1,-4 -1,-1 -3,-1 -5,-1 -2,0 -3,0 -4,1 -1,0 -2,2 -2,3l-4 0c0,-2 0,-3 1,-4 1,-2 2,-2 4,-3 2,0 4,-1 6,-1 2,0 4,0 5,1 1,0 2,1 3,2 0,1 1,2 1,3 0,0 0,2 0,4l0 5c0,4 0,6 1,7 0,2 0,3 1,3l-5 0c0,0 -1,-1 -1,-3zm0 -9c-1,1 -4,1 -7,2 -2,0 -3,0 -3,0 -1,1 -2,1 -2,2 -1,0 -1,1 -1,2 0,1 1,2 2,3 0,0 2,1 3,1 2,0 3,-1 5,-1 1,-1 2,-2 2,-3 1,-1 1,-3 1,-4l0 -2z"/>
   <path id="2" class="fil4" d="M195 536l0 -5 4 0 0 5 -4 0zm-6 39l1 -4c1,1 2,1 2,1 1,0 2,0 2,-1 0,-1 1,-2 1,-4l0 -26 4 0 0 26c0,3 -1,5 -1,6 -1,2 -3,2 -5,2 -1,0 -3,0 -4,0z"/>
   <path id="3" class="fil4" d="M222 557l4 1c0,3 -1,5 -3,6 -2,1 -4,2 -7,2 -4,0 -7,-1 -9,-3 -2,-3 -3,-6 -3,-10 0,-4 1,-7 3,-9 2,-3 5,-4 8,-4 4,0 6,1 8,4 3,2 4,5 4,9 0,0 0,1 0,1l-19 0c0,3 1,5 2,6 2,2 4,3 6,3 1,0 2,-1 4,-2 1,0 2,-2 2,-4zm-14 -6l14 0c0,-2 -1,-4 -1,-5 -2,-2 -3,-2 -6,-2 -1,0 -3,0 -4,2 -2,1 -2,3 -3,5z"/>
   <path id="4" class="fil4" d="M230 558l4 -1c0,2 1,3 2,4 1,1 3,2 5,2 2,0 3,-1 4,-2 1,0 1,-1 1,-2 0,-1 0,-2 -1,-3 0,0 -2,0 -4,-1 -3,-1 -5,-1 -7,-2 -1,-1 -2,-1 -2,-2 -1,-1 -1,-2 -1,-4 0,-1 0,-2 1,-3 0,-1 1,-1 2,-2 0,-1 1,-1 2,-1 1,-1 3,-1 4,-1 2,0 4,0 5,1 1,1 3,1 3,2 1,1 1,3 2,4l-4 1c-1,-2 -1,-3 -2,-3 -1,-1 -2,-1 -4,-1 -2,0 -3,0 -4,1 -1,0 -1,1 -1,2 0,0 0,1 0,1 1,1 1,1 2,1 0,1 2,1 4,1 3,1 5,2 6,2 1,1 2,2 3,3 0,1 1,2 1,3 0,2 -1,3 -2,4 0,1 -2,2 -3,3 -2,1 -3,1 -5,1 -4,0 -6,-1 -8,-2 -1,-1 -2,-3 -3,-6z"/>
   <path id="5" class="fil4" d="M256 565l0 -34 4 0 0 13c2,-3 4,-4 7,-4 2,0 4,1 5,1 1,1 2,2 3,3 0,2 1,3 1,6l0 15 -5 0 0 -15c0,-2 0,-4 -1,-5 -1,-1 -2,-1 -4,-1 -1,0 -2,0 -3,1 -1,0 -2,1 -3,2 0,2 0,3 0,5l0 13 -4 0z"/>
   <path id="6" class="fil4" d="M294 556l4 -1c0,3 0,5 1,6 1,1 2,1 4,1 1,0 2,0 3,-1 0,0 1,-1 1,-2 1,-1 1,-2 1,-4l0 -24 4 0 0 24c0,2 0,5 -1,6 0,2 -2,3 -3,4 -2,1 -3,1 -5,1 -3,0 -6,-1 -7,-3 -2,-1 -3,-4 -2,-7z"/>
   <path id="7" class="fil4" d="M335 562c-1,2 -3,3 -4,3 -2,1 -3,1 -5,1 -3,0 -5,-1 -6,-2 -2,-1 -2,-3 -2,-5 0,-1 0,-2 1,-3 0,-1 1,-2 2,-3 1,0 2,-1 3,-1 1,0 2,-1 3,-1 4,0 6,-1 8,-1 0,-1 0,-1 0,-1 0,-2 0,-3 -1,-4 -1,-1 -3,-1 -5,-1 -2,0 -3,0 -4,1 -1,0 -2,2 -3,3l-4 0c1,-2 1,-3 2,-4 1,-2 2,-2 4,-3 2,0 3,-1 6,-1 2,0 3,0 5,1 1,0 2,1 3,2 0,1 1,2 1,3 0,0 0,2 0,4l0 5c0,4 0,6 0,7 1,2 1,3 1,3l-4 0c0,0 -1,-1 -1,-3zm0 -9c-2,1 -4,1 -7,2 -2,0 -3,0 -4,0 0,1 -1,1 -1,2 -1,0 -1,1 -1,2 0,1 1,2 1,3 1,0 3,1 4,1 2,0 3,-1 4,-1 2,-1 3,-2 3,-3 1,-1 1,-3 1,-4l0 -2z"/>
   <path id="8" class="fil4" d="M346 536l0 -5 4 0 0 5 -4 0zm0 29l0 -24 4 0 0 24 -4 0z"/>
   <path id="9" class="fil4" d="M356 565l0 -24 4 0 0 3c2,-2 4,-4 8,-4 1,0 3,0 4,1 1,1 2,1 3,2 0,1 1,2 1,3 0,1 0,2 0,4l0 15 -4 0 0 -15c0,-1 0,-3 0,-3 -1,-1 -1,-2 -2,-2 -1,-1 -2,-1 -3,-1 -2,0 -3,0 -5,2 -1,1 -2,3 -2,6l0 13 -4 0z"/>
   <polygon class="fil4" points="758,565 758,531 763,531 763,545 780,545 780,531 785,531 785,565 780,565 780,549 763,549 763,565 "/>
   <polygon id="1" class="fil4" points="801,565 801,535 790,535 790,531 817,531 817,535 806,535 806,565 "/>
   <polygon id="2" class="fil4" points="834,565 834,531 838,531 838,561 855,561 855,565 "/>
   <path id="3" class="fil4" d="M869 562l1 3c-2,1 -3,1 -4,1 -1,0 -2,0 -3,-1 -1,0 -2,-1 -2,-2 0,-1 0,-2 0,-5l0 -14 -4 0 0 -3 4 0 0 -6 4 -3 0 9 4 0 0 3 -4 0 0 14c0,2 0,2 0,3 0,0 0,0 1,1 0,0 1,0 1,0 1,0 1,0 2,0z"/>
   <path id="4" class="fil4" d="M889 565l0 -3c-2,3 -4,4 -7,4 -2,0 -4,-1 -5,-2 -2,-1 -3,-2 -4,-4 -1,-2 -1,-4 -1,-7 0,-2 0,-5 1,-7 1,-2 2,-3 3,-4 2,-1 4,-2 6,-2 1,0 3,1 4,1 1,1 2,2 3,3l0 -13 4 0 0 34 -4 0zm-13 -12c0,3 0,6 2,7 1,2 3,3 5,3 1,0 3,-1 4,-3 2,-1 2,-3 2,-7 0,-3 -1,-5 -2,-7 -1,-2 -3,-2 -5,-2 -2,0 -3,0 -4,2 -2,1 -2,4 -2,7z"/>
   <polygon id="5" class="fil4" points="901,565 901,561 906,561 906,565 "/>
   <path class="fil4" d="M159 647l4 1c-1,4 -2,6 -5,8 -2,2 -5,3 -9,3 -4,0 -7,0 -9,-2 -2,-1 -4,-4 -5,-6 -1,-3 -2,-6 -2,-10 0,-3 1,-6 2,-9 1,-3 3,-5 6,-6 2,-1 5,-2 8,-2 4,0 6,1 9,3 2,1 4,4 5,7l-5 1c-1,-2 -2,-4 -3,-5 -2,-2 -4,-2 -6,-2 -3,0 -5,1 -6,2 -2,1 -3,3 -4,5 -1,2 -1,4 -1,6 0,3 0,6 1,8 1,2 2,4 4,5 2,1 4,1 6,1 2,0 4,0 6,-2 2,-1 3,-3 4,-6z"/>
   <path id="1" class="fil4" d="M184 659l0 -4c-2,3 -4,4 -7,4 -2,0 -3,0 -5,-1 -1,0 -2,-1 -2,-2 -1,-1 -1,-2 -2,-3 0,-1 0,-2 0,-4l0 -15 4 0 0 14c0,2 0,3 1,4 0,1 0,2 1,3 1,0 2,1 3,1 2,0 3,-1 4,-1 1,-1 2,-2 2,-3 1,-1 1,-3 1,-5l0 -13 4 0 0 25 -4 0z"/>
   <path id="2" class="fil4" d="M193 651l4 0c0,1 1,3 2,3 1,1 3,2 5,2 2,0 3,-1 4,-1 1,-1 1,-2 1,-3 0,-1 0,-2 -1,-2 -1,-1 -2,-1 -4,-2 -3,-1 -5,-1 -7,-2 -1,0 -2,-1 -2,-2 -1,-1 -1,-2 -1,-3 0,-2 0,-3 1,-3 0,-1 1,-2 2,-3 0,0 1,-1 2,-1 1,0 3,-1 4,-1 2,0 3,1 5,1 1,1 2,2 3,3 1,1 1,2 2,3l-4 1c-1,-1 -1,-2 -2,-3 -1,-1 -2,-1 -4,-1 -2,0 -3,0 -4,1 -1,0 -1,1 -1,2 0,1 0,1 0,2 1,0 1,0 2,1 0,0 2,0 4,1 3,1 5,1 6,2 1,0 2,1 3,2 0,1 1,2 1,3 0,2 -1,3 -2,4 0,2 -2,3 -3,3 -2,1 -3,1 -5,1 -4,0 -6,0 -8,-2 -1,-1 -2,-3 -3,-6z"/>
   <path id="3" class="fil4" d="M228 655l0 4c-1,0 -2,0 -3,0 -1,0 -3,0 -3,-1 -1,0 -2,-1 -2,-2 -1,0 -1,-2 -1,-5l0 -14 -3 0 0 -3 3 0 0 -6 4 -3 0 9 5 0 0 3 -5 0 0 15c0,1 0,2 1,2 0,0 0,1 0,1 1,0 1,0 2,0 0,0 1,0 2,0z"/>
   <path id="4" class="fil4" d="M230 646c0,-4 1,-8 4,-10 2,-2 5,-3 8,-3 3,0 6,2 8,4 2,2 3,5 3,9 0,3 0,6 -1,7 -1,2 -2,4 -4,5 -2,1 -4,1 -6,1 -4,0 -6,-1 -9,-3 -2,-2 -3,-5 -3,-10zm4 0c0,4 1,6 3,7 1,2 3,3 5,3 2,0 4,-1 5,-3 1,-1 2,-4 2,-7 0,-3 -1,-5 -2,-7 -1,-1 -3,-2 -5,-2 -2,0 -4,1 -5,2 -2,2 -3,4 -3,7z"/>
   <path id="5" class="fil4" d="M258 659l0 -25 4 0 0 3c1,-1 2,-2 3,-2 1,-1 3,-2 4,-2 2,0 4,1 5,2 1,0 2,1 2,3 2,-3 5,-5 8,-5 3,0 4,1 6,3 1,1 2,3 2,6l0 17 -4 0 0 -16c0,-2 -1,-3 -1,-3 0,-1 -1,-2 -1,-2 -1,-1 -2,-1 -3,-1 -2,0 -3,1 -4,2 -1,1 -2,3 -2,5l0 15 -4 0 0 -16c0,-2 0,-4 -1,-5 -1,0 -2,-1 -3,-1 -2,0 -3,0 -4,1 -1,1 -1,2 -2,3 0,1 -1,3 -1,5l0 13 -4 0z"/>
   <path id="6" class="fil4" d="M315 651l4 0c-1,3 -2,5 -4,6 -2,2 -4,2 -7,2 -3,0 -6,-1 -8,-3 -2,-2 -3,-5 -3,-9 0,-5 1,-8 3,-10 2,-2 5,-4 8,-4 3,0 6,2 8,4 2,2 3,5 3,9 0,1 0,1 0,1l-18 0c0,3 1,5 2,7 1,1 3,2 5,2 2,0 3,-1 4,-1 1,-1 2,-3 3,-4zm-14 -7l14 0c0,-2 -1,-4 -2,-5 -1,-1 -3,-2 -5,-2 -2,0 -3,1 -5,2 -1,1 -2,3 -2,5z"/>
   <path id="7" class="fil4" d="M324 659l0 -25 4 0 0 4c1,-2 2,-3 3,-4 1,0 1,-1 2,-1 2,0 3,1 5,2l-2 4c-1,-1 -2,-1 -3,-1 -1,0 -1,0 -2,1 -1,0 -1,1 -2,2 0,1 0,3 0,5l0 13 -5 0z"/>
   <path class="fil4" d="M561 565l0 -8 -15 0 0 -4 16 -22 3 0 0 22 5 0 0 4 -5 0 0 8 -4 0zm0 -12l0 -15 -11 15 11 0z"/>
   <path id="1" class="fil4" d="M574 557l5 -1c0,2 1,4 2,5 1,1 2,2 4,2 2,0 4,-1 5,-3 2,-1 2,-3 2,-6 0,-2 0,-4 -2,-5 -1,-2 -3,-2 -5,-2 -1,0 -3,0 -4,0 -1,1 -2,2 -2,3l-4 -1 3 -17 17 0 0 4 -13 0 -2 9c2,-1 4,-2 6,-2 3,0 6,1 8,3 2,2 3,5 3,8 0,3 -1,6 -3,8 -2,3 -5,4 -9,4 -3,0 -6,-1 -8,-3 -1,-1 -3,-4 -3,-6z"/>
   <path id="2" class="fil4" d="M601 549c0,-4 0,-8 1,-10 1,-3 2,-4 4,-6 1,-1 3,-2 6,-2 2,0 3,1 5,1 1,1 2,2 3,4 1,1 2,3 2,5 1,2 1,4 1,8 0,4 -1,7 -1,9 -1,3 -2,5 -4,6 -2,1 -4,2 -6,2 -4,0 -6,-1 -8,-3 -2,-3 -3,-8 -3,-14zm4 0c0,5 1,9 2,11 1,2 3,3 5,3 2,0 3,-1 5,-3 1,-2 2,-6 2,-11 0,-6 -1,-10 -2,-12 -2,-1 -3,-2 -5,-2 -2,0 -4,1 -5,2 -1,2 -2,6 -2,12z"/>
   <path id="3" class="fil4" d="M627 549c0,-4 1,-8 1,-10 1,-3 2,-4 4,-6 2,-1 4,-2 6,-2 2,0 4,1 5,1 1,1 3,2 3,4 1,1 2,3 3,5 0,2 0,4 0,8 0,4 0,7 -1,9 -1,3 -2,5 -4,6 -1,1 -3,2 -6,2 -3,0 -6,-1 -8,-3 -2,-3 -3,-8 -3,-14zm4 0c0,5 1,9 2,11 2,2 3,3 5,3 2,0 4,-1 5,-3 1,-2 2,-6 2,-11 0,-6 -1,-10 -2,-12 -1,-1 -3,-2 -5,-2 -2,0 -3,1 -4,2 -2,2 -3,6 -3,12z"/>
   <path id="4" class="fil4" d="M654 549c0,-4 0,-8 1,-10 1,-3 2,-4 4,-6 1,-1 3,-2 6,-2 2,0 3,1 5,1 1,1 2,2 3,4 1,1 2,3 2,5 1,2 1,4 1,8 0,4 -1,7 -1,9 -1,3 -2,5 -4,6 -2,1 -4,2 -6,2 -4,0 -6,-1 -8,-3 -2,-3 -3,-8 -3,-14zm4 0c0,5 1,9 2,11 1,2 3,3 5,3 2,0 3,-1 5,-3 1,-2 2,-6 2,-11 0,-6 -1,-10 -2,-12 -2,-1 -3,-2 -5,-2 -2,0 -4,1 -5,2 -1,2 -2,6 -2,12z"/>
   <path class="fil4" d="M563 659l-4 0 0 -27c-1,1 -2,2 -4,3 -1,1 -3,2 -4,2l0 -4c2,-1 4,-2 6,-4 2,-2 3,-3 4,-5l2 0 0 35z"/>
   <path id="1" class="fil4" d="M574 642c0,-4 1,-7 1,-10 1,-2 2,-4 4,-6 2,-1 4,-2 6,-2 2,0 4,1 5,2 1,0 3,1 3,3 1,1 2,3 3,5 0,2 0,5 0,8 0,4 0,7 -1,10 -1,2 -2,4 -4,5 -1,2 -3,2 -6,2 -3,0 -6,-1 -7,-3 -3,-3 -4,-8 -4,-14zm4 0c0,6 1,9 2,11 2,2 3,3 5,3 2,0 4,-1 5,-3 1,-2 2,-5 2,-11 0,-6 -1,-9 -2,-11 -1,-2 -3,-3 -5,-3 -2,0 -3,1 -4,2 -2,2 -3,6 -3,12z"/>
   <path id="2" class="fil4" d="M601 642c0,-4 0,-7 1,-10 1,-2 2,-4 4,-6 1,-1 3,-2 6,-2 2,0 3,1 5,2 1,0 2,1 3,3 1,1 2,3 2,5 1,2 1,5 1,8 0,4 -1,7 -1,10 -1,2 -2,4 -4,5 -2,2 -4,2 -6,2 -4,0 -6,-1 -8,-3 -2,-3 -3,-8 -3,-14zm4 0c0,6 1,9 2,11 1,2 3,3 5,3 2,0 3,-1 5,-3 1,-2 2,-5 2,-11 0,-6 -1,-9 -2,-11 -2,-2 -3,-3 -5,-3 -2,0 -4,1 -5,2 -1,2 -2,6 -2,12z"/>
   <path id="3" class="fil4" d="M627 642c0,-4 1,-7 1,-10 1,-2 2,-4 4,-6 2,-1 4,-2 6,-2 2,0 4,1 5,2 1,0 3,1 3,3 1,1 2,3 3,5 0,2 0,5 0,8 0,4 0,7 -1,10 -1,2 -2,4 -4,5 -1,2 -3,2 -6,2 -3,0 -6,-1 -8,-3 -2,-3 -3,-8 -3,-14zm4 0c0,6 1,9 2,11 2,2 3,3 5,3 2,0 4,-1 5,-3 1,-2 2,-5 2,-11 0,-6 -1,-9 -2,-11 -1,-2 -3,-3 -5,-3 -2,0 -3,1 -4,2 -2,2 -3,6 -3,12z"/>
   <path id="4" class="fil4" d="M654 642c0,-4 0,-7 1,-10 1,-2 2,-4 4,-6 1,-1 3,-2 6,-2 2,0 3,1 5,2 1,0 2,1 3,3 1,1 2,3 2,5 1,2 1,5 1,8 0,4 -1,7 -1,10 -1,2 -2,4 -4,5 -2,2 -4,2 -6,2 -4,0 -6,-1 -8,-3 -2,-3 -3,-8 -3,-14zm4 0c0,6 1,9 2,11 1,2 3,3 5,3 2,0 3,-1 5,-3 1,-2 2,-5 2,-11 0,-6 -1,-9 -2,-11 -2,-2 -3,-3 -5,-3 -2,0 -4,1 -5,2 -1,2 -2,6 -2,12z"/>
   <path class="fil4" d="M1147 561l0 4 -23 0c0,-1 0,-2 1,-2 0,-2 1,-4 2,-5 2,-1 3,-3 6,-5 4,-3 6,-6 7,-7 2,-2 2,-4 2,-5 0,-2 0,-3 -1,-5 -2,-1 -3,-1 -5,-1 -2,0 -4,0 -5,1 -1,2 -2,3 -2,6l-4 -1c0,-3 1,-6 3,-7 2,-2 5,-3 8,-3 3,0 6,1 8,3 2,2 3,4 3,7 0,1 -1,2 -1,4 -1,1 -2,2 -3,4 -1,1 -3,3 -6,6 -3,2 -5,3 -5,4 -1,1 -2,2 -2,2l17 0z"/>
   <path id="1" class="fil4" d="M1151 549c0,-4 1,-8 1,-10 1,-3 3,-4 4,-6 2,-1 4,-2 6,-2 2,0 4,1 5,1 1,1 3,2 4,4 0,1 1,3 2,5 0,2 0,4 0,8 0,4 0,7 -1,9 -1,3 -2,5 -4,6 -1,1 -3,2 -6,2 -3,0 -6,-1 -7,-3 -3,-3 -4,-8 -4,-14zm4 0c0,5 1,9 2,11 2,2 3,3 5,3 2,0 4,-1 5,-3 1,-2 2,-6 2,-11 0,-6 -1,-10 -2,-12 -1,-1 -3,-2 -5,-2 -2,0 -3,1 -4,2 -2,2 -3,6 -3,12z"/>
   <path id="2" class="fil4" d="M1178 549c0,-4 0,-8 1,-10 1,-3 2,-4 4,-6 1,-1 3,-2 6,-2 2,0 3,1 5,1 1,1 2,2 3,4 1,1 2,3 2,5 1,2 1,4 1,8 0,4 -1,7 -1,9 -1,3 -2,5 -4,6 -2,1 -4,2 -6,2 -3,0 -6,-1 -8,-3 -2,-3 -3,-8 -3,-14zm4 0c0,5 1,9 2,11 1,2 3,3 5,3 2,0 3,-1 5,-3 1,-2 2,-6 2,-11 0,-6 -1,-10 -2,-12 -2,-1 -3,-2 -5,-2 -2,0 -4,1 -5,2 -1,2 -2,6 -2,12z"/>
   <path id="3" class="fil4" d="M1204 549c0,-4 1,-8 1,-10 1,-3 2,-4 4,-6 2,-1 4,-2 6,-2 2,0 4,1 5,1 1,1 3,2 4,4 0,1 1,3 2,5 0,2 0,4 0,8 0,4 0,7 -1,9 -1,3 -2,5 -4,6 -1,1 -3,2 -6,2 -3,0 -6,-1 -7,-3 -3,-3 -4,-8 -4,-14zm4 0c0,5 1,9 2,11 2,2 3,3 5,3 2,0 4,-1 5,-3 1,-2 2,-6 2,-11 0,-6 -1,-10 -2,-12 -1,-1 -3,-2 -5,-2 -2,0 -3,1 -4,2 -2,2 -3,6 -3,12z"/>
   <path id="4" class="fil4" d="M1231 549c0,-4 0,-8 1,-10 1,-3 2,-4 4,-6 1,-1 3,-2 6,-2 2,0 3,1 5,1 1,1 2,2 3,4 1,1 2,3 2,5 1,2 1,4 1,8 0,4 -1,7 -1,9 -1,3 -2,5 -4,6 -2,1 -4,2 -6,2 -4,0 -6,-1 -8,-3 -2,-3 -3,-8 -3,-14zm4 0c0,5 1,9 2,11 1,2 3,3 5,3 2,0 3,-1 5,-3 1,-2 2,-6 2,-11 0,-6 -1,-10 -2,-12 -2,-1 -3,-2 -5,-2 -2,0 -4,1 -5,2 -1,2 -2,6 -2,12z"/>
   <g>
    <path class="fil4" d="M229 933l0 -34 13 0c3,0 5,0 6,1 2,0 3,1 4,3 1,1 1,3 1,4 0,2 0,3 -1,4 -1,2 -2,3 -3,4 2,0 3,1 4,3 1,1 2,3 2,5 0,1 0,3 -1,4 -1,2 -1,3 -2,3 -1,1 -3,2 -4,2 -2,0 -4,1 -6,1l-13 0zm5 -20l7 0c2,0 4,0 4,0 2,-1 2,-1 3,-2 1,-1 1,-2 1,-3 0,-1 0,-2 -1,-3 0,-1 -1,-2 -2,-2 -1,0 -3,0 -5,0l-7 0 0 10zm0 16l8 0c2,0 3,0 3,0 1,-1 2,-1 3,-1 1,-1 1,-1 2,-2 0,-1 0,-2 0,-3 0,-1 0,-3 -1,-4 0,0 -1,-1 -2,-2 -1,0 -3,0 -5,0l-8 0 0 12z"/>
    <path id="1" class="fil4" d="M277 930c-2,1 -3,2 -5,2 -1,1 -3,1 -4,1 -3,0 -5,0 -7,-2 -1,-1 -2,-3 -2,-5 0,-1 1,-2 1,-3 1,-1 1,-2 2,-3 1,0 2,-1 3,-1 1,0 2,0 4,-1 3,0 6,0 7,-1 1,-1 1,-1 1,-1 0,-2 -1,-3 -2,-4 -1,-1 -2,-1 -4,-1 -2,0 -4,0 -5,1 -1,1 -1,2 -2,4l-4 -1c0,-2 1,-3 2,-4 1,-1 2,-2 4,-3 1,0 3,-1 5,-1 2,0 4,1 5,1 2,1 3,1 3,2 1,1 1,2 2,3 0,1 0,2 0,4l0 5c0,4 0,7 0,8 0,1 1,2 1,3l-4 0c-1,-1 -1,-2 -1,-3zm0 -10c-2,1 -4,1 -7,2 -2,0 -3,0 -4,1 -1,0 -1,0 -2,1 0,1 0,1 0,2 0,1 0,2 1,3 1,1 2,1 4,1 1,0 3,0 4,-1 1,-1 2,-2 3,-3 0,-1 0,-2 0,-4l1 -2z"/>
    <polygon id="2" class="fil4" points="287,933 287,899 291,899 291,933 "/>
    <path id="3" class="fil4" d="M314 930c-2,1 -3,2 -5,2 -1,1 -3,1 -4,1 -3,0 -5,0 -6,-2 -2,-1 -3,-3 -3,-5 0,-1 1,-2 1,-3 1,-1 1,-2 2,-3 1,0 2,-1 3,-1 1,0 2,0 4,-1 3,0 6,0 8,-1 0,-1 0,-1 0,-1 0,-2 -1,-3 -2,-4 -1,-1 -2,-1 -4,-1 -2,0 -4,0 -5,1 -1,1 -1,2 -2,4l-4 -1c0,-2 1,-3 2,-4 1,-1 2,-2 4,-3 1,0 3,-1 5,-1 2,0 4,1 5,1 2,1 3,1 3,2 1,1 1,2 2,3 0,1 0,2 0,4l0 5c0,4 0,7 0,8 0,1 1,2 1,3l-4 0c-1,-1 -1,-2 -1,-3zm0 -10c-2,1 -4,1 -7,2 -2,0 -3,0 -4,1 -1,0 -1,0 -2,1 0,1 0,1 0,2 0,1 0,2 1,3 1,1 2,1 4,1 1,0 3,0 4,-1 1,-1 2,-2 3,-3 0,-1 1,-2 1,-4l0 -2z"/>
    <path id="4" class="fil4" d="M324 933l0 -25 4 0 0 3c2,-2 4,-4 8,-4 1,0 3,1 4,1 1,1 2,1 3,2 0,1 1,2 1,3 0,1 0,3 0,4l0 16 -4 0 0 -15c0,-2 0,-3 0,-4 -1,-1 -1,-2 -2,-2 -1,-1 -2,-1 -3,-1 -2,0 -3,1 -5,2 -1,1 -2,3 -2,6l0 14 -4 0z"/>
    <path id="5" class="fil4" d="M367 924l4 0c0,3 -2,5 -3,7 -2,1 -5,2 -7,2 -4,0 -6,-1 -8,-3 -2,-2 -3,-5 -3,-10 0,-2 0,-5 1,-7 1,-2 2,-3 4,-4 2,-1 4,-2 6,-2 2,0 5,1 6,2 2,2 3,4 4,6l-4 1c-1,-2 -2,-3 -3,-4 0,-1 -2,-1 -3,-1 -2,0 -4,1 -5,2 -2,2 -2,4 -2,7 0,4 0,6 2,8 1,1 3,2 5,2 1,0 3,-1 4,-2 1,-1 2,-2 2,-4z"/>
    <path id="6" class="fil4" d="M391 925l5 0c-1,3 -2,5 -4,6 -2,1 -4,2 -7,2 -4,0 -7,-1 -9,-3 -2,-2 -3,-5 -3,-9 0,-5 1,-8 3,-10 3,-2 5,-4 9,-4 3,0 6,2 8,4 2,2 3,5 3,9 0,1 0,1 0,1l-19 0c1,3 1,5 3,7 1,1 3,2 5,2 1,0 3,-1 4,-1 1,-1 2,-3 2,-4zm-13 -7l13 0c0,-2 0,-4 -1,-5 -1,-1 -3,-2 -5,-2 -2,0 -4,1 -5,2 -1,1 -2,3 -2,5z"/>
    <path id="7" class="fil4" d="M430 930c-1,1 -3,2 -4,2 -2,1 -3,1 -5,1 -2,0 -5,0 -6,-2 -1,-1 -2,-3 -2,-5 0,-1 0,-2 1,-3 0,-1 1,-2 2,-3 1,0 2,-1 3,-1 1,0 2,0 4,-1 3,0 5,0 7,-1 0,-1 0,-1 0,-1 0,-2 0,-3 -1,-4 -1,-1 -3,-1 -5,-1 -2,0 -3,0 -4,1 -1,1 -2,2 -2,4l-4 -1c0,-2 1,-3 1,-4 1,-1 2,-2 4,-3 2,0 4,-1 6,-1 2,0 4,1 5,1 1,1 2,1 3,2 0,1 1,2 1,3 0,1 0,2 0,4l0 5c0,4 0,7 1,8 0,1 0,2 1,3l-5 0c0,-1 0,-2 -1,-3zm0 -10c-1,1 -4,1 -7,2 -2,0 -3,0 -3,1 -1,0 -2,0 -2,1 0,1 -1,1 -1,2 0,1 1,2 2,3 0,1 2,1 3,1 2,0 3,0 5,-1 1,-1 2,-2 2,-3 1,-1 1,-2 1,-4l0 -2z"/>
    <path id="8" class="fil4" d="M439 925l4 0c0,1 1,3 2,3 1,1 3,2 5,2 2,0 3,-1 4,-1 1,-1 1,-2 1,-3 0,-1 0,-2 -1,-2 -1,-1 -2,-1 -4,-2 -3,-1 -5,-1 -7,-2 -1,0 -2,-1 -2,-2 -1,-1 -1,-2 -1,-3 0,-2 0,-3 1,-4 0,0 1,-1 2,-2 0,0 1,-1 2,-1 1,0 3,-1 4,-1 2,0 4,1 5,1 1,1 3,2 3,3 1,1 1,2 2,3l-4 1c-1,-1 -1,-2 -2,-3 -1,-1 -2,-1 -4,-1 -2,0 -3,0 -4,1 -1,0 -1,1 -1,2 0,1 0,1 0,2 1,0 1,0 2,1 0,0 2,0 4,1 3,0 5,1 6,2 1,0 2,1 3,2 0,1 1,2 1,3 0,2 -1,3 -2,4 0,2 -2,3 -3,3 -2,1 -3,1 -5,1 -4,0 -6,0 -8,-2 -1,-1 -2,-3 -3,-6z"/>
    <path id="9" class="fil4" d="M478 942l0 -34 4 0 0 3c1,-1 2,-2 3,-3 1,0 2,-1 4,-1 2,0 4,1 5,2 2,1 3,3 4,5 1,2 1,4 1,6 0,3 0,5 -1,7 -1,2 -2,4 -4,5 -2,1 -4,1 -6,1 -1,0 -2,0 -3,-1 -1,0 -2,-1 -3,-2l0 12 -4 0zm4 -22c0,4 0,6 2,7 1,2 2,3 4,3 2,0 4,-1 5,-3 1,-1 2,-4 2,-7 0,-3 -1,-5 -2,-7 -1,-2 -3,-2 -5,-2 -1,0 -3,1 -4,2 -2,2 -2,4 -2,7z"/>
    <path id="10" class="fil4" d="M521 925l4 0c0,3 -1,5 -3,6 -2,1 -4,2 -7,2 -4,0 -7,-1 -9,-3 -2,-2 -3,-5 -3,-9 0,-5 1,-8 3,-10 2,-2 5,-4 8,-4 4,0 6,2 8,4 3,2 4,5 4,9 0,1 0,1 0,1l-19 0c0,3 1,5 2,7 2,1 4,2 6,2 1,0 2,-1 4,-1 1,-1 2,-3 2,-4zm-14 -7l14 0c0,-2 -1,-4 -1,-5 -2,-1 -3,-2 -6,-2 -1,0 -3,1 -4,2 -2,1 -2,3 -3,5z"/>
    <path id="11" class="fil4" d="M531 933l0 -25 3 0 0 4c1,-2 2,-3 3,-4 1,0 2,-1 3,-1 1,0 3,1 4,2l-1 4c-1,-1 -2,-1 -3,-1 -1,0 -2,0 -3,1 -1,0 -1,1 -1,2 -1,1 -1,3 -1,5l0 13 -4 0z"/>
    <path id="12" class="fil4" d="M560 933l0 -34 13 0c3,0 5,0 6,1 2,0 3,1 4,3 1,1 1,3 1,4 0,2 0,3 -1,4 -1,2 -2,3 -3,4 2,0 3,1 4,3 1,1 2,3 2,5 0,1 0,3 -1,4 -1,2 -2,3 -3,3 -1,1 -2,2 -3,2 -2,0 -4,1 -6,1l-13 0zm5 -20l7 0c2,0 4,0 4,0 2,-1 2,-1 3,-2 1,-1 1,-2 1,-3 0,-1 0,-2 -1,-3 0,-1 -1,-2 -2,-2 -1,0 -3,0 -5,0l-7 0 0 10zm0 16l8 0c2,0 3,0 3,0 1,-1 2,-1 3,-1 1,-1 1,-1 2,-2 0,-1 0,-2 0,-3 0,-1 0,-3 -1,-4 0,0 -1,-1 -2,-2 -2,0 -3,0 -5,0l-8 0 0 12z"/>
    <path id="13" class="fil4" d="M608 930c-2,1 -3,2 -5,2 -1,1 -3,1 -4,1 -3,0 -5,0 -7,-2 -1,-1 -2,-3 -2,-5 0,-1 0,-2 1,-3 1,-1 1,-2 2,-3 1,0 2,-1 3,-1 1,0 2,0 4,-1 3,0 6,0 7,-1 0,-1 0,-1 0,-1 0,-2 0,-3 -1,-4 -1,-1 -2,-1 -5,-1 -2,0 -3,0 -4,1 -1,1 -2,2 -2,4l-4 -1c0,-2 1,-3 2,-4 1,-1 2,-2 3,-3 2,0 4,-1 6,-1 2,0 4,1 5,1 2,1 3,1 3,2 1,1 1,2 1,3 1,1 1,2 1,4l0 5c0,4 0,7 0,8 0,1 0,2 1,3l-4 0c-1,-1 -1,-2 -1,-3zm-1 -10c-1,1 -3,1 -6,2 -2,0 -3,0 -4,1 -1,0 -1,0 -2,1 0,1 0,1 0,2 0,1 0,2 1,3 1,1 2,1 4,1 1,0 3,0 4,-1 1,-1 2,-2 3,-3 0,-1 0,-2 0,-4l0 -2z"/>
    <path id="14" class="fil4" d="M618 933l0 -25 4 0 0 3c2,-2 4,-4 8,-4 1,0 3,1 4,1 1,1 2,1 3,2 0,1 1,2 1,3 0,1 0,3 0,4l0 16 -4 0 0 -15c0,-2 0,-3 -1,-4 0,-1 0,-2 -1,-2 -1,-1 -2,-1 -3,-1 -2,0 -3,1 -5,2 -1,1 -2,3 -2,6l0 14 -4 0z"/>
    <polygon id="15" class="fil4" points="645,933 645,899 649,899 649,918 659,908 664,908 655,917 665,933 660,933 652,920 649,923 649,933 "/>
    <path class="fil4" d="M707 933l0 -34 12 0c3,0 5,0 7,1 1,0 2,1 3,3 1,1 2,3 2,4 0,2 -1,3 -1,4 -1,2 -2,3 -4,4 2,0 4,1 5,3 1,1 1,3 1,5 0,1 0,3 -1,4 0,2 -1,3 -2,3 -1,1 -2,2 -4,2 -1,0 -3,1 -5,1l-13 0zm4 -20l8 0c2,0 3,0 4,0 1,-1 2,-1 2,-2 1,-1 1,-2 1,-3 0,-1 0,-2 -1,-3 0,-1 -1,-2 -2,-2 -1,0 -3,0 -5,0l-7 0 0 10zm0 16l9 0c1,0 2,0 3,0 1,-1 2,-1 2,-1 1,-1 2,-1 2,-2 1,-1 1,-2 1,-3 0,-1 -1,-3 -1,-4 -1,0 -2,-1 -3,-2 -1,0 -3,0 -5,0l-8 0 0 12z"/>
    <path id="1" class="fil4" d="M754 930c-1,1 -3,2 -4,2 -2,1 -3,1 -5,1 -3,0 -5,0 -6,-2 -2,-1 -2,-3 -2,-5 0,-1 0,-2 0,-3 1,-1 2,-2 3,-3 1,0 2,-1 3,-1 0,0 2,0 3,-1 4,0 6,0 8,-1 0,-1 0,-1 0,-1 0,-2 -1,-3 -1,-4 -1,-1 -3,-1 -5,-1 -2,0 -4,0 -4,1 -1,1 -2,2 -3,4l-4 -1c1,-2 1,-3 2,-4 1,-1 2,-2 4,-3 2,0 3,-1 6,-1 2,0 3,1 5,1 1,1 2,1 3,2 0,1 1,2 1,3 0,1 0,2 0,4l0 5c0,4 0,7 0,8 1,1 1,2 1,3l-4 0c0,-1 -1,-2 -1,-3zm0 -10c-2,1 -4,1 -7,2 -2,0 -3,0 -4,1 0,0 -1,0 -1,1 -1,1 -1,1 -1,2 0,1 1,2 1,3 1,1 2,1 4,1 2,0 3,0 4,-1 2,-1 3,-2 3,-3 1,-1 1,-2 1,-4l0 -2z"/>
    <polygon id="2" class="fil4" points="764,933 764,899 769,899 769,933 "/>
    <path id="3" class="fil4" d="M791 930c-1,1 -3,2 -4,2 -2,1 -3,1 -5,1 -3,0 -5,0 -6,-2 -2,-1 -2,-3 -2,-5 0,-1 0,-2 1,-3 0,-1 1,-2 2,-3 1,0 2,-1 3,-1 1,0 2,0 3,-1 4,0 6,0 8,-1 0,-1 0,-1 0,-1 0,-2 0,-3 -1,-4 -1,-1 -3,-1 -5,-1 -2,0 -3,0 -4,1 -1,1 -2,2 -2,4l-5 -1c1,-2 1,-3 2,-4 1,-1 2,-2 4,-3 2,0 3,-1 6,-1 2,0 3,1 5,1 1,1 2,1 3,2 0,1 1,2 1,3 0,1 0,2 0,4l0 5c0,4 0,7 0,8 1,1 1,2 1,3l-4 0c0,-1 -1,-2 -1,-3zm0 -10c-2,1 -4,1 -7,2 -2,0 -3,0 -4,1 0,0 -1,0 -1,1 -1,1 -1,1 -1,2 0,1 1,2 1,3 1,1 3,1 4,1 2,0 3,0 4,-1 2,-1 3,-2 3,-3 1,-1 1,-2 1,-4l0 -2z"/>
    <path id="4" class="fil4" d="M802 933l0 -25 3 0 0 3c2,-2 5,-4 8,-4 2,0 3,1 4,1 2,1 3,1 3,2 1,1 1,2 1,3 1,1 1,3 1,4l0 16 -5 0 0 -15c0,-2 0,-3 0,-4 0,-1 -1,-2 -2,-2 -1,-1 -2,-1 -3,-1 -1,0 -3,1 -4,2 -2,1 -2,3 -2,6l0 14 -4 0z"/>
    <path id="5" class="fil4" d="M844 924l4 0c0,3 -1,5 -3,7 -2,1 -4,2 -7,2 -3,0 -6,-1 -8,-3 -2,-2 -3,-5 -3,-10 0,-2 0,-5 1,-7 1,-2 2,-3 4,-4 2,-1 4,-2 6,-2 3,0 5,1 7,2 1,2 2,4 3,6l-4 1c0,-2 -1,-3 -2,-4 -1,-1 -2,-1 -4,-1 -2,0 -4,1 -5,2 -1,2 -2,4 -2,7 0,4 1,6 2,8 1,1 3,2 5,2 2,0 3,-1 4,-2 1,-1 2,-2 2,-4z"/>
    <path id="6" class="fil4" d="M869 925l4 0c-1,3 -2,5 -4,6 -2,1 -4,2 -7,2 -3,0 -6,-1 -8,-3 -2,-2 -3,-5 -3,-9 0,-5 1,-8 3,-10 2,-2 5,-4 8,-4 3,0 6,2 8,4 2,2 3,5 3,9 0,1 0,1 0,1l-18 0c0,3 1,5 2,7 1,1 3,2 5,2 2,0 3,-1 4,-1 1,-1 2,-3 3,-4zm-14 -7l14 0c0,-2 -1,-4 -2,-5 -1,-1 -3,-2 -5,-2 -2,0 -3,1 -5,2 -1,1 -2,3 -2,5z"/>
    <path id="7" class="fil4" d="M908 930c-2,1 -3,2 -5,2 -1,1 -3,1 -4,1 -3,0 -5,0 -7,-2 -1,-1 -2,-3 -2,-5 0,-1 0,-2 1,-3 1,-1 1,-2 2,-3 1,0 2,-1 3,-1 1,0 2,0 4,-1 3,0 6,0 7,-1 0,-1 0,-1 0,-1 0,-2 0,-3 -1,-4 -1,-1 -2,-1 -5,-1 -2,0 -3,0 -4,1 -1,1 -2,2 -2,4l-4 -1c0,-2 1,-3 2,-4 1,-1 2,-2 3,-3 2,0 4,-1 6,-1 2,0 4,1 5,1 2,1 3,1 3,2 1,1 1,2 1,3 1,1 1,2 1,4l0 5c0,4 0,7 0,8 0,1 0,2 1,3l-4 0c-1,-1 -1,-2 -1,-3zm-1 -10c-1,1 -3,1 -6,2 -2,0 -3,0 -4,1 -1,0 -1,0 -2,1 0,1 0,1 0,2 0,1 0,2 1,3 1,1 2,1 4,1 1,0 3,0 4,-1 1,-1 2,-2 3,-3 0,-1 0,-2 0,-4l0 -2z"/>
    <path id="8" class="fil4" d="M916 925l5 0c0,1 0,3 2,3 1,1 2,2 4,2 2,0 3,-1 4,-1 1,-1 2,-2 2,-3 0,-1 -1,-2 -2,-2 0,-1 -2,-1 -4,-2 -3,-1 -5,-1 -6,-2 -1,0 -2,-1 -3,-2 -1,-1 -1,-2 -1,-3 0,-2 0,-3 1,-4 0,0 1,-1 2,-2 1,0 2,-1 3,-1 1,0 2,-1 3,-1 2,0 4,1 5,1 2,1 3,2 4,3 0,1 1,2 1,3l-4 1c0,-1 -1,-2 -2,-3 -1,-1 -2,-1 -3,-1 -2,0 -4,0 -5,1 0,0 -1,1 -1,2 0,1 0,1 1,2 0,0 1,0 1,1 1,0 2,0 4,1 3,0 5,1 6,2 1,0 2,1 3,2 1,1 1,2 1,3 0,2 0,3 -1,4 -1,2 -2,3 -4,3 -1,1 -3,1 -5,1 -3,0 -6,0 -7,-2 -2,-1 -3,-3 -4,-6z"/>
    <path id="9" class="fil4" d="M955 942l0 -34 4 0 0 3c1,-1 2,-2 3,-3 1,0 3,-1 4,-1 2,0 4,1 6,2 1,1 3,3 3,5 1,2 2,4 2,6 0,3 -1,5 -2,7 -1,2 -2,4 -4,5 -1,1 -3,1 -5,1 -2,0 -3,0 -4,-1 -1,0 -2,-1 -3,-2l0 12 -4 0zm4 -22c0,4 1,6 2,7 1,2 3,3 5,3 1,0 3,-1 4,-3 2,-1 2,-4 2,-7 0,-3 0,-5 -2,-7 -1,-2 -2,-2 -4,-2 -2,0 -4,1 -5,2 -1,2 -2,4 -2,7z"/>
    <path id="10" class="fil4" d="M999 925l4 0c-1,3 -2,5 -4,6 -2,1 -4,2 -7,2 -4,0 -6,-1 -9,-3 -2,-2 -3,-5 -3,-9 0,-5 1,-8 3,-10 3,-2 5,-4 9,-4 3,0 6,2 8,4 2,2 3,5 3,9 0,1 0,1 0,1l-18 0c0,3 0,5 2,7 1,1 3,2 5,2 2,0 3,-1 4,-1 1,-1 2,-3 3,-4zm-14 -7l14 0c-1,-2 -1,-4 -2,-5 -1,-1 -3,-2 -5,-2 -2,0 -4,1 -5,2 -1,1 -2,3 -2,5z"/>
    <path id="11" class="fil4" d="M1008 933l0 -25 4 0 0 4c1,-2 2,-3 3,-4 0,0 1,-1 2,-1 2,0 3,1 5,2l-2 4c-1,-1 -2,-1 -3,-1 -1,0 -2,0 -2,1 -1,0 -2,1 -2,2 0,1 -1,3 -1,5l0 13 -4 0z"/>
    <path id="12" class="fil4" d="M1038 933l0 -34 12 0c3,0 5,0 7,1 1,0 2,1 3,3 1,1 2,3 2,4 0,2 -1,3 -2,4 0,2 -2,3 -3,4 2,0 4,1 5,3 1,1 1,3 1,5 0,1 0,3 -1,4 0,2 -1,3 -2,3 -1,1 -2,2 -4,2 -1,0 -3,1 -5,1l-13 0zm4 -20l7 0c2,0 4,0 5,0 1,-1 2,-1 2,-2 1,-1 1,-2 1,-3 0,-1 0,-2 -1,-3 0,-1 -1,-2 -2,-2 -1,0 -3,0 -5,0l-7 0 0 10zm0 16l9 0c1,0 2,0 3,0 1,-1 2,-1 2,-1 1,-1 2,-1 2,-2 0,-1 1,-2 1,-3 0,-1 -1,-3 -1,-4 -1,0 -2,-1 -3,-2 -1,0 -3,0 -5,0l-8 0 0 12z"/>
    <path id="13" class="fil4" d="M1067 920c0,-4 2,-8 4,-10 2,-2 5,-3 8,-3 3,0 6,2 8,4 2,2 4,5 4,9 0,3 -1,6 -2,7 -1,2 -2,4 -4,5 -2,1 -4,1 -6,1 -3,0 -6,-1 -8,-3 -3,-2 -4,-6 -4,-10zm5 0c0,3 0,6 2,7 1,2 3,3 5,3 2,0 4,-1 5,-3 2,-1 2,-4 2,-7 0,-3 0,-5 -2,-7 -1,-1 -3,-2 -5,-2 -2,0 -4,1 -5,2 -2,2 -2,4 -2,7z"/>
    <path id="14" class="fil4" d="M1094 920c0,-4 1,-8 4,-10 2,-2 4,-3 7,-3 4,0 7,2 9,4 2,2 3,5 3,9 0,3 0,6 -1,7 -1,2 -3,4 -5,5 -1,1 -3,1 -6,1 -3,0 -6,-1 -8,-3 -2,-2 -3,-6 -3,-10zm4 0c0,3 1,6 2,7 2,2 3,3 5,3 3,0 4,-1 6,-3 1,-1 2,-4 2,-7 0,-3 -1,-5 -2,-7 -2,-1 -3,-2 -6,-2 -2,0 -3,1 -5,2 -1,2 -2,4 -2,7z"/>
    <polygon id="15" class="fil4" points="1122,933 1122,899 1126,899 1126,918 1136,908 1141,908 1132,917 1142,933 1137,933 1129,920 1126,923 1126,933 "/>
    <path id="16" class="fil4" d="M1144 925l4 0c0,1 1,3 2,3 1,1 3,2 5,2 2,0 3,-1 4,-1 1,-1 1,-2 1,-3 0,-1 0,-2 -1,-2 0,-1 -2,-1 -4,-2 -3,-1 -5,-1 -7,-2 -1,0 -2,-1 -2,-2 -1,-1 -1,-2 -1,-3 0,-2 0,-3 1,-4 0,0 1,-1 2,-2 0,0 1,-1 2,-1 1,0 3,-1 4,-1 2,0 4,1 5,1 1,1 3,2 3,3 1,1 1,2 2,3l-4 1c-1,-1 -1,-2 -2,-3 -1,-1 -2,-1 -4,-1 -2,0 -3,0 -4,1 -1,0 -1,1 -1,2 0,1 0,1 0,2 1,0 1,0 2,1 0,0 2,0 4,1 3,0 5,1 6,2 1,0 2,1 3,2 0,1 1,2 1,3 0,2 -1,3 -2,4 0,2 -2,3 -3,3 -2,1 -3,1 -5,1 -4,0 -6,0 -8,-2 -1,-1 -2,-3 -3,-6z"/>
    <path class="fil4" d="M451 999l5 0c0,2 1,4 2,5 1,1 3,2 4,2 2,0 4,-1 6,-3 1,-1 2,-3 2,-6 0,-2 -1,-4 -2,-5 -2,-2 -3,-2 -6,-2 -1,0 -2,0 -3,0 -1,1 -2,2 -3,3l-4 -1 4 -17 16 0 0 4 -13 0 -2 9c2,-1 4,-2 6,-2 3,0 6,1 8,3 2,2 3,5 3,8 0,3 -1,6 -3,8 -2,3 -5,4 -9,4 -3,0 -5,-1 -7,-3 -2,-1 -3,-4 -4,-7z"/>
    <path id="1" class="fil4" d="M478 999l4 0c1,2 1,4 3,5 1,1 2,2 4,2 2,0 4,-1 5,-3 1,-1 2,-3 2,-6 0,-2 -1,-4 -2,-5 -1,-2 -3,-2 -5,-2 -2,0 -3,0 -4,0 -1,1 -2,2 -2,3l-4 -1 3 -17 17 0 0 4 -14 0 -1 9c2,-1 4,-2 6,-2 3,0 5,1 7,3 3,2 4,5 4,8 0,3 -1,6 -3,8 -2,3 -5,4 -9,4 -3,0 -6,-1 -8,-3 -2,-1 -3,-4 -3,-7z"/>
    <path id="2" class="fil4" d="M507 1008l0 -4 4 0 0 4c0,2 0,4 0,5 -1,1 -2,2 -3,2l-2 -2c1,0 2,-1 2,-1 1,-1 1,-2 1,-4l-2 0z"/>
    <path id="3" class="fil4" d="M518 992c0,-4 0,-8 1,-10 1,-3 2,-4 4,-6 1,-1 3,-2 6,-2 2,0 3,1 5,1 1,1 2,2 3,4 1,1 2,3 2,5 1,2 1,4 1,8 0,4 -1,7 -1,9 -1,3 -2,5 -4,6 -2,1 -4,2 -6,2 -4,0 -6,-1 -8,-3 -2,-3 -3,-8 -3,-14zm4 0c0,5 1,9 2,11 1,2 3,3 5,3 2,0 3,-1 5,-3 1,-2 2,-6 2,-11 0,-6 -1,-10 -2,-12 -2,-1 -3,-2 -5,-2 -2,0 -4,1 -5,2 -1,2 -2,6 -2,12z"/>
    <path id="4" class="fil4" d="M544 992c0,-4 1,-8 1,-10 1,-3 2,-4 4,-6 2,-1 4,-2 6,-2 2,0 4,1 5,1 1,1 3,2 3,4 1,1 2,3 3,5 0,2 0,4 0,8 0,4 0,7 -1,9 -1,3 -2,5 -4,6 -1,1 -3,2 -6,2 -3,0 -6,-1 -7,-3 -3,-3 -4,-8 -4,-14zm4 0c0,5 1,9 2,11 2,2 3,3 5,3 2,0 4,-1 5,-3 1,-2 2,-6 2,-11 0,-6 -1,-10 -2,-12 -1,-1 -3,-2 -5,-2 -2,0 -3,1 -4,2 -2,2 -3,6 -3,12z"/>
    <path id="5" class="fil4" d="M571 992c0,-4 0,-8 1,-10 1,-3 2,-4 4,-6 1,-1 3,-2 6,-2 2,0 3,1 5,1 1,1 2,2 3,4 1,1 2,3 2,5 1,2 1,4 1,8 0,4 -1,7 -1,9 -1,3 -2,5 -4,6 -2,1 -4,2 -6,2 -4,0 -6,-1 -8,-3 -2,-3 -3,-8 -3,-14zm4 0c0,5 1,9 2,11 1,2 3,3 5,3 2,0 3,-1 5,-3 1,-2 2,-6 2,-11 0,-6 -1,-10 -2,-12 -2,-1 -3,-2 -5,-2 -2,0 -4,1 -5,2 -1,2 -2,6 -2,12z"/>
    <path id="6" class="fil4" d="M612 1008l0 -34 12 0c2,0 4,1 6,1 2,0 3,1 5,2 2,2 3,4 4,6 1,2 1,5 1,8 0,3 0,5 -1,7 0,2 -1,4 -2,5 -1,1 -2,2 -3,3 -1,1 -3,1 -4,2 -2,0 -4,0 -6,0l-12 0zm5 -4l7 0c2,0 4,0 5,0 1,-1 2,-1 3,-2 1,-1 2,-2 3,-4 0,-2 1,-4 1,-7 0,-3 -1,-6 -2,-8 -1,-2 -3,-3 -4,-4 -2,0 -4,-1 -6,-1l-7 0 0 26z"/>
    <path id="7" class="fil4" d="M646 1008l0 -24 4 0 0 4c1,-2 1,-3 2,-4 1,-1 2,-1 3,-1 1,0 3,1 4,2l-1 3c-1,0 -2,0 -3,0 -1,0 -2,0 -3,0 0,1 -1,2 -1,3 -1,1 -1,3 -1,5l0 12 -4 0z"/>
    <polygon id="8" class="fil4" points="660,1008 660,1004 665,1004 665,1008 "/>
    <path class="fil4" d="M707 999l4 0c0,2 1,4 2,5 1,1 3,2 5,2 2,0 3,-1 5,-3 1,-1 2,-3 2,-6 0,-2 -1,-4 -2,-5 -2,-2 -3,-2 -5,-2 -2,0 -3,0 -4,0 -1,1 -2,2 -3,3l-4 -1 4 -17 17 0 0 4 -14 0 -2 9c2,-1 4,-2 7,-2 3,0 5,1 7,3 2,2 3,5 3,8 0,3 -1,6 -2,8 -3,3 -6,4 -9,4 -4,0 -6,-1 -8,-3 -2,-1 -3,-4 -3,-7z"/>
    <path id="1" class="fil4" d="M755 1004l0 4 -23 0c0,-1 1,-2 1,-2 1,-2 1,-4 3,-5 1,-1 3,-3 5,-5 4,-3 6,-6 8,-7 1,-2 2,-4 2,-5 0,-2 -1,-3 -2,-5 -1,-1 -3,-1 -5,-1 -2,0 -3,0 -5,1 -1,2 -1,3 -1,5l-5 0c1,-3 2,-6 4,-7 2,-2 4,-3 7,-3 4,0 6,1 8,3 2,2 3,4 3,7 0,1 0,2 -1,4 0,1 -1,2 -3,4 -1,1 -3,3 -6,6 -3,2 -4,3 -5,4 -1,1 -1,2 -2,2l17 0z"/>
    <path id="2" class="fil4" d="M762 1008l0 -4 5 0 0 4c0,2 -1,4 -1,5 -1,1 -2,2 -3,2l-1 -2c0,0 1,-1 2,-1 0,-1 0,-2 0,-4l-2 0z"/>
    <path id="3" class="fil4" d="M773 992c0,-4 0,-8 1,-10 1,-3 2,-4 4,-6 1,-1 3,-2 6,-2 2,0 3,1 5,1 1,1 2,2 3,4 1,1 2,3 2,5 1,2 1,4 1,8 0,4 0,7 -1,9 -1,3 -2,5 -4,6 -2,1 -4,2 -6,2 -3,0 -6,-1 -8,-3 -2,-3 -3,-8 -3,-14zm4 0c0,5 1,9 2,11 1,2 3,3 5,3 2,0 3,-1 5,-3 1,-2 2,-6 2,-11 0,-6 -1,-10 -2,-12 -2,-1 -3,-2 -5,-2 -2,0 -4,1 -5,2 -1,2 -2,6 -2,12z"/>
    <path id="4" class="fil4" d="M799 992c0,-4 1,-8 2,-10 0,-3 2,-4 3,-6 2,-1 4,-2 6,-2 2,0 4,1 5,1 2,1 3,2 4,4 1,1 1,3 2,5 0,2 1,4 1,8 0,4 -1,7 -2,9 -1,3 -2,5 -3,6 -2,1 -4,2 -7,2 -3,0 -5,-1 -7,-3 -3,-3 -4,-8 -4,-14zm5 0c0,5 0,9 2,11 1,2 2,3 4,3 2,0 4,-1 5,-3 2,-2 2,-6 2,-11 0,-6 0,-10 -2,-12 -1,-1 -3,-2 -5,-2 -2,0 -3,1 -4,2 -2,2 -2,6 -2,12z"/>
    <path id="5" class="fil4" d="M826 992c0,-4 0,-8 1,-10 1,-3 2,-4 4,-6 1,-1 3,-2 6,-2 2,0 3,1 5,1 1,1 2,2 3,4 1,1 2,3 2,5 1,2 1,4 1,8 0,4 0,7 -1,9 -1,3 -2,5 -4,6 -2,1 -4,2 -6,2 -3,0 -6,-1 -8,-3 -2,-3 -3,-8 -3,-14zm4 0c0,5 1,9 2,11 1,2 3,3 5,3 2,0 3,-1 5,-3 1,-2 2,-6 2,-11 0,-6 -1,-10 -2,-12 -2,-1 -3,-2 -5,-2 -2,0 -4,1 -5,2 -1,2 -2,6 -2,12z"/>
    <path id="6" class="fil4" d="M867 1008l0 -34 12 0c3,0 5,1 6,1 2,0 4,1 5,2 2,2 3,4 4,6 1,2 1,5 1,8 0,3 0,5 -1,7 0,2 -1,4 -2,5 -1,1 -2,2 -3,3 -1,1 -2,1 -4,2 -2,0 -3,0 -6,0l-12 0zm5 -4l7 0c2,0 4,0 5,0 2,-1 3,-1 3,-2 1,-1 2,-2 3,-4 0,-2 1,-4 1,-7 0,-3 -1,-6 -2,-8 -1,-2 -3,-3 -4,-4 -2,0 -3,-1 -6,-1l-7 0 0 26z"/>
    <path id="7" class="fil4" d="M901 1008l0 -24 4 0 0 4c1,-2 2,-3 2,-4 1,-1 2,-1 3,-1 2,0 3,1 4,2l-1 3c-1,0 -2,0 -3,0 -1,0 -2,0 -3,0 0,1 -1,2 -1,3 -1,1 -1,3 -1,5l0 12 -4 0z"/>
    <polygon id="8" class="fil4" points="915,1008 915,1004 920,1004 920,1008 "/>
   </g>
   <path class="fil0" d="M457 746l472 0c7,0 12,5 12,12l0 87c0,7 -5,12 -12,12l-472 0c-6,0 -12,-5 -12,-12l0 -87c0,-7 6,-12 12,-12z"/>
   <path class="fil3" d="M520 822l0 -41 18 0c3,0 6,0 8,1 2,1 3,2 5,4 1,2 1,4 1,6 0,3 -1,5 -3,7 -1,2 -4,3 -8,4 1,1 2,1 3,2 2,2 3,3 4,6l8 11 -7 0 -6 -9c-1,-2 -3,-4 -4,-5 -1,-2 -2,-3 -2,-3 -1,-1 -2,-1 -3,-1 0,0 -1,-1 -3,-1l-6 0 0 19 -5 0zm5 -23l12 0c2,0 4,0 5,-1 2,0 3,-1 4,-2 0,-2 1,-3 1,-4 0,-2 -1,-4 -2,-5 -2,-1 -4,-2 -7,-2l-13 0 0 14z"/>
   <path id="1" class="fil3" d="M580 812l5 1c0,3 -2,5 -4,7 -2,1 -5,2 -9,2 -4,0 -7,-1 -10,-4 -2,-2 -4,-6 -4,-11 0,-5 2,-9 4,-11 3,-3 6,-5 10,-5 4,0 7,2 10,4 2,3 4,7 4,12 0,0 0,1 0,1l-22 0c0,3 1,6 2,8 2,1 4,2 6,2 2,0 4,0 5,-1 1,-1 3,-3 3,-5zm-16 -8l16 0c0,-2 -1,-4 -2,-6 -1,-2 -3,-3 -6,-3 -2,0 -4,1 -6,3 -1,1 -2,3 -2,6z"/>
   <path id="2" class="fil3" d="M611 811l5 0c0,4 -2,7 -4,8 -2,2 -5,3 -8,3 -4,0 -8,-1 -10,-4 -2,-2 -4,-6 -4,-11 0,-3 1,-6 2,-8 1,-3 3,-5 5,-6 2,-1 4,-2 7,-2 3,0 6,1 8,3 2,1 3,4 4,7l-5 0c-1,-1 -1,-3 -3,-4 -1,-1 -2,-2 -4,-2 -2,0 -5,1 -6,3 -2,2 -3,5 -3,9 0,4 1,7 3,8 1,2 3,3 6,3 2,0 3,0 5,-2 1,-1 2,-3 2,-5z"/>
   <path id="3" class="fil3" d="M619 807c0,-6 1,-10 4,-12 3,-3 6,-4 9,-4 4,0 8,2 10,4 3,3 4,7 4,11 0,4 0,7 -1,9 -2,3 -3,4 -5,5 -3,2 -5,2 -8,2 -4,0 -7,-1 -10,-4 -2,-2 -3,-6 -3,-11zm5 0c0,4 0,6 2,8 2,2 4,3 6,3 3,0 5,-1 7,-3 1,-2 2,-4 2,-8 0,-4 -1,-7 -2,-9 -2,-2 -4,-2 -7,-2 -2,0 -4,0 -6,2 -2,2 -2,5 -2,9z"/>
   <path id="4" class="fil3" d="M652 822l0 -30 5 0 0 4c2,-3 5,-5 9,-5 2,0 4,1 5,1 2,1 3,2 3,3 1,1 2,2 2,4 0,1 0,2 0,4l0 19 -5 0 0 -18c0,-2 0,-4 0,-5 -1,-1 -1,-2 -2,-2 -1,-1 -3,-1 -4,-1 -2,0 -4,0 -5,2 -2,1 -3,4 -3,7l0 17 -5 0z"/>
   <path id="5" class="fil3" d="M703 811l5 0c0,4 -2,7 -4,8 -2,2 -5,3 -8,3 -4,0 -7,-1 -10,-4 -2,-2 -4,-6 -4,-11 0,-3 1,-6 2,-8 1,-3 3,-5 5,-6 2,-1 4,-2 7,-2 3,0 6,1 8,3 2,1 3,4 4,7l-5 0c-1,-1 -1,-3 -3,-4 -1,-1 -2,-2 -4,-2 -2,0 -4,1 -6,3 -2,2 -2,5 -2,9 0,4 0,7 2,8 1,2 3,3 6,3 2,0 4,0 5,-2 1,-1 2,-3 2,-5z"/>
   <path id="6" class="fil3" d="M713 786l0 -5 5 0 0 5 -5 0zm0 36l0 -30 5 0 0 30 -5 0z"/>
   <polygon id="7" class="fil3" points="725,822 725,781 730,781 730,822 "/>
   <path id="8" class="fil3" d="M738 786l0 -5 5 0 0 5 -5 0zm0 36l0 -30 5 0 0 30 -5 0z"/>
   <path id="9" class="fil3" d="M770 818c-2,2 -4,3 -5,3 -2,1 -4,1 -6,1 -3,0 -6,0 -7,-2 -2,-2 -3,-4 -3,-6 0,-2 0,-3 1,-4 1,-1 1,-2 2,-3 2,-1 3,-1 4,-2 1,0 3,0 5,0 4,-1 7,-1 9,-2 0,-1 0,-1 0,-1 0,-2 -1,-4 -2,-5 -1,-1 -3,-1 -6,-1 -2,0 -4,0 -5,1 -1,1 -2,2 -2,4l-5 0c0,-3 1,-4 2,-6 1,-1 2,-2 4,-3 2,0 5,-1 7,-1 3,0 5,1 6,1 2,1 3,2 4,3 1,0 1,2 1,3 1,1 1,2 1,5l0 6c0,5 0,8 0,9 0,1 1,3 1,4l-5 0c-1,-1 -1,-3 -1,-4zm0 -11c-2,1 -5,1 -9,2 -2,0 -3,0 -4,1 -1,0 -2,1 -2,1 0,1 -1,2 -1,3 0,1 1,2 2,3 1,1 2,1 4,1 2,0 4,0 5,-1 2,-1 3,-2 4,-3 0,-1 1,-3 1,-5l0 -2z"/>
   <path id="10" class="fil3" d="M793 817l1 5c-1,0 -3,0 -4,0 -2,0 -3,0 -4,-1 -1,0 -2,-1 -2,-2 -1,-1 -1,-3 -1,-6l0 -17 -3 0 0 -4 3 0 0 -7 5 -3 0 10 5 0 0 4 -5 0 0 17c0,2 0,3 1,3 0,0 0,1 0,1 1,0 1,0 2,0 1,0 1,0 2,0z"/>
   <path id="11" class="fil3" d="M798 786l0 -5 5 0 0 5 -5 0zm0 36l0 -30 5 0 0 30 -5 0z"/>
   <path id="12" class="fil3" d="M809 807c0,-6 2,-10 5,-12 2,-3 5,-4 9,-4 4,0 7,2 10,4 3,3 4,7 4,11 0,4 -1,7 -2,9 -1,3 -3,4 -5,5 -2,2 -4,2 -7,2 -4,0 -8,-1 -10,-4 -3,-2 -4,-6 -4,-11zm5 0c0,4 1,6 3,8 1,2 3,3 6,3 2,0 5,-1 6,-3 2,-2 3,-4 3,-8 0,-4 -1,-7 -3,-9 -1,-2 -4,-2 -6,-2 -3,0 -5,0 -6,2 -2,2 -3,5 -3,9z"/>
   <path id="13" class="fil3" d="M843 822l0 -30 4 0 0 4c2,-3 6,-5 10,-5 1,0 3,1 5,1 1,1 2,2 3,3 1,1 1,2 2,4 0,1 0,2 0,4l0 19 -5 0 0 -18c0,-2 0,-4 -1,-5 0,-1 -1,-2 -2,-2 -1,-1 -2,-1 -3,-1 -2,0 -4,0 -6,2 -1,1 -2,4 -2,7l0 17 -5 0z"/>
   <circle class="fil0" cx="1356" cy="171" r="171"/>
   <g>
    <path class="fil5" d="M1306 245c27,18 62,20 91,5 40,-22 54,-57 46,-102 2,0 5,-1 7,-2 3,0 6,-1 8,-2 11,37 -1,77 -29,104 -37,35 -93,39 -134,10 -4,3 -7,7 -11,11 -4,-16 -6,-30 -10,-45 16,3 30,6 44,9 -3,3 -7,7 -12,12z"/>
    <path class="fil5" d="M1415 84c5,-5 9,-9 13,-13 3,15 6,29 9,44 -15,-3 -29,-6 -45,-9 4,-3 8,-6 11,-10l0 -1c-30,-16 -60,-18 -90,-1 -38,22 -52,57 -43,100 -5,2 -11,3 -16,5 -11,-39 2,-80 31,-106 37,-32 90,-36 130,-9z"/>
   </g>
  </g>
 </g>
</svg>
