<?xml version="1.0" encoding="UTF-8"?>
<!DOCTYPE svg PUBLIC "-//W3C//DTD SVG 1.1//EN" "http://www.w3.org/Graphics/SVG/1.1/DTD/svg11.dtd">
<!-- Creator: CorelDRAW X8 -->
<svg xmlns="http://www.w3.org/2000/svg" xml:space="preserve" width="4.94874in" height="3in" version="1.1" style="shape-rendering:geometricPrecision; text-rendering:geometricPrecision; image-rendering:optimizeQuality; fill-rule:evenodd; clip-rule:evenodd"
viewBox="0 0 4754 2882"
 xmlns:xlink="http://www.w3.org/1999/xlink">
 <defs>
  <style type="text/css">
   <![CDATA[
    .fil1 {fill:#1A237E}
    .fil0 {fill:#868EE0}
   ]]>
  </style>
 </defs>
 <g id="Layer_x0020_1">
  <metadata id="CorelCorpID_0Corel-Layer"/>
  <g id="_2490759028080">
   <path id="Path_11676" class="fil0" d="M309 1450c-116,0 -210,-94 -211,-210 0,-116 94,-211 211,-211 116,0 210,94 210,210 0,0 0,1 0,1 0,116 -94,210 -210,210 0,0 0,0 0,0zm0 -373c-88,0 -159,71 -160,159 0,88 72,160 160,160 88,0 159,-71 159,-159 0,-1 0,-1 0,-1 0,-87 -71,-159 -159,-159z"/>
   <g>
    <path id="Fill-70_2_" class="fil0" d="M257 1253l104 -4 -104 4zm0 0l0 0 0 0z"/>
   </g>
   <path id="Path_11678" class="fil0" d="M389 1264c-5,9 -15,14 -25,14l-104 5c-17,0 -32,-13 -33,-30 0,0 0,-1 0,-1 0,-16 13,-30 29,-31l104 -4c17,-1 32,12 33,29 0,1 0,1 0,2 4,6 0,11 -4,16z"/>
   <path id="Path_11679" class="fil0" d="M4359 1616l-19 -26c-16,-22 -162,-207 -162,-299 0,-101 81,-182 181,-182 101,0 182,81 182,182 0,92 -147,280 -162,299l-20 26zm0 -459c-71,-1 -129,56 -130,128 0,1 0,1 0,2 0,51 73,166 130,243 58,-77 131,-195 131,-243 0,-72 -59,-130 -131,-130l0 0z"/>
   <path id="Fill-82_2_" class="fil0" d="M4401 1281c0,23 -19,41 -42,41 -22,0 -41,-18 -41,-41 0,-23 19,-41 41,-41 23,1 40,19 42,41z"/>
   <path id="Path_11680" class="fil0" d="M4359 1348c-36,0 -66,-30 -66,-67 -1,-36 27,-66 63,-67 1,0 2,0 3,0 37,1 67,31 66,68 -1,36 -30,65 -66,66l0 0zm0 -80c-8,0 -15,7 -15,16 -1,9 7,16 15,16 9,0 16,-7 16,-16 0,0 0,0 0,0 1,-8 -5,-15 -14,-16 0,0 -1,0 -2,0l0 0 0 0z"/>
   <path id="Path_11681" class="fil1" d="M2347 959c-265,0 -480,-215 -480,-479 0,-265 215,-480 480,-480 265,0 480,215 480,480 0,264 -215,479 -480,479zm0 -895c-231,0 -418,186 -418,417 0,230 187,418 417,418 231,0 418,-187 418,-418 0,0 0,0 0,0 -1,-230 -187,-416 -417,-417z"/>
   <path id="Path_11682" class="fil1" d="M2484 723l-274 0c-44,1 -79,-34 -80,-78 0,0 0,-1 0,-1l0 -322c-1,-17 12,-31 29,-32 1,0 2,0 3,0l373 0c16,-1 31,12 32,28 0,1 0,3 0,4l0 322c-3,44 -39,79 -83,79zm-290 -369l0 290c0,8 6,15 14,16 1,0 1,0 2,0l274 0c8,0 15,-6 16,-14 0,-1 0,-2 0,-2l0 -290 -306 0z"/>
   <g>
    <path id="Fill-30_2_" class="fil1" d="M2389 680l0 -123 0 123zm0 0l0 0 0 0z"/>
   </g>
   <path id="Path_11683" class="fil1" d="M2389 709c-17,1 -31,-11 -32,-26 0,-1 0,-2 0,-3l0 -123c-1,-15 12,-28 28,-29 1,0 3,0 4,0 16,-1 31,10 32,26 0,1 0,2 0,3l0 120c0,17 -14,31 -32,32z"/>
   <g>
    <path id="Fill-116_6_" class="fil1" d="M2348 957l0 764 0 -764zm0 0l0 0 0 0z"/>
   </g>
   <path id="Path_11684" class="fil1" d="M2348 1752c-16,1 -31,-11 -32,-27 0,-1 0,-2 0,-4l0 -764c-1,-16 12,-29 29,-30 1,0 2,0 3,0 17,-1 31,11 32,27 0,1 0,2 0,3l0 764c-1,17 -15,30 -32,31z"/>
   <path id="Path_11685" class="fil1" d="M3793 2400c0,-266 215,-481 481,-481 265,0 481,216 480,481 0,266 -215,481 -481,481 -265,-1 -480,-216 -480,-481zm894 0c0,-231 -187,-417 -417,-417 -230,0 -417,187 -417,417 0,230 187,417 417,417 230,-1 417,-187 417,-417z"/>
   <g>
    <path id="Fill-116_5_" class="fil1" d="M3789 2399l-757 0 757 0zm0 0l0 0 0 0z"/>
   </g>
   <path id="Path_11686" class="fil1" d="M3001 2399c-1,-17 11,-31 27,-32 1,0 2,0 4,0l760 0c17,0 31,14 31,32 0,18 -14,32 -31,32l0 0 -760 0c-16,1 -30,-12 -31,-28 0,-2 0,-3 0,-4z"/>
   <path id="Path_11687" class="fil1" d="M959 2400c1,264 -212,480 -476,482 -265,2 -481,-211 -483,-476 0,-2 0,-4 0,-6 -2,-265 211,-481 476,-483 265,-2 481,211 483,476 0,2 0,4 0,7zm-895 0c0,230 187,417 417,416 231,0 417,-187 417,-417 0,-230 -187,-417 -417,-417 -230,1 -417,187 -417,418z"/>
   <g>
    <path id="Fill-116_3_" class="fil1" d="M962 2399l760 0 -760 0zm0 0l0 0 0 0z"/>
   </g>
   <path id="Path_11688" class="fil1" d="M1750 2399c1,17 -12,31 -27,32 -2,0 -3,0 -4,0l-760 0c-16,1 -30,-12 -31,-28 0,-2 0,-3 0,-4 -1,-17 11,-31 27,-32 1,0 2,0 4,0l760 0c16,-1 30,12 31,28 0,1 0,3 0,4z"/>
   <path id="Path_11689" class="fil0" d="M1720 1950c-9,0 -17,-4 -23,-9 -462,-408 -1082,-567 -1089,-571 -16,-4 -26,-22 -21,-38 4,-17 21,-26 37,-22 7,0 640,162 1115,583 13,11 15,30 4,44 -1,0 -1,0 -1,1 -5,7 -13,12 -22,12z"/>
   <path id="Path_11690" class="fil0" d="M1968 1765c-7,-3 -12,-9 -16,-16 -255,-564 -751,-962 -758,-965 -14,-11 -17,-31 -6,-45 10,-14 30,-17 44,-6 7,3 516,414 777,991 7,16 0,34 -16,41 -8,4 -17,4 -25,0z"/>
   <path id="Path_11691" class="fil0" d="M3028 2039c9,0 17,-3 23,-9 461,-408 1082,-567 1089,-570 16,-5 26,-22 21,-39 -4,-16 -21,-26 -37,-22 -7,0 -640,162 -1115,583 -13,11 -15,31 -4,44 1,0 1,0 1,1 5,7 13,12 22,12z"/>
   <path id="Path_11692" class="fil0" d="M2780 1851c7,-3 12,-9 16,-15 255,-565 751,-963 758,-966 14,-11 17,-31 6,-45 -10,-14 -30,-17 -44,-6 -7,3 -516,414 -777,991 -7,16 0,34 16,41 8,4 17,4 25,0z"/>
   <path id="Path_11693" class="fil0" d="M1162 653l-302 0c-40,1 -73,-31 -73,-71 0,0 0,-1 0,-2l0 -198c-1,-39 31,-72 70,-73 1,0 2,0 3,0l302 0c40,-1 73,31 74,71 0,1 0,2 0,2l0 198c-1,40 -33,73 -74,73zm-302 -296c-12,0 -22,9 -22,21 0,1 0,1 0,1l0 198c-1,12 9,22 21,22 0,0 0,0 1,0l302 0c12,0 22,-9 23,-21 0,0 0,-1 0,-1l0 -198c0,-12 -10,-22 -22,-22 0,0 0,0 -1,0l-302 0z"/>
   <path id="Path_11694" class="fil1" d="M659 2635l-60 0c-7,0 -14,-2 -19,-6l-42 -32 -41 32c-11,10 -27,10 -38,0l-42 -32 -41 32c-6,4 -12,6 -19,6l-58 0c-16,1 -30,-11 -32,-28 0,-1 0,-2 0,-4l0 -426c-1,-17 12,-31 29,-32 1,0 2,0 3,0l61 0c7,0 13,2 19,6l41 32 42 -32c11,-10 27,-10 38,0l41 32 42 -32c5,-4 12,-6 19,-6l60 0c17,-2 31,11 32,28 0,1 0,2 0,4l0 426c-3,18 -18,30 -35,32zm-51 -63l16 0 0 -364 -16 0 -51 42c-11,9 -27,9 -38,0l-41 -32 -42 32c-11,9 -27,9 -38,0l-48 -42 -16 0 0 364 16 0 51 -42c11,-9 27,-9 38,0l42 32 41 -32c11,-9 27,-9 38,0l48 42z"/>
   <path id="Path_11695" class="fil0" d="M3691 787c-88,0 -160,-71 -160,-159 0,-88 72,-160 160,-160 87,2 158,72 159,160 1,87 -69,158 -156,159 -1,0 -2,0 -3,0zm0 -271c-60,0 -109,49 -109,109 0,59 49,108 109,108 59,0 108,-48 108,-108 0,0 0,0 0,0 2,-59 -44,-107 -103,-109 -1,0 -3,0 -5,0l0 0z"/>
   <path id="Path_11697" class="fil1" d="M2347 2447c99,0 178,-89 178,-197l0 -48c0,-108 -79,-198 -178,-198 -99,0 -178,90 -178,198l0 48c0,108 79,197 178,197z"/>
   <path id="Path_11698" class="fil1" d="M2767 2766l-25 -156 0 0c-10,-34 -34,-63 -67,-77l0 0 -147 -79c-8,-4 -18,-3 -25,3 -42,39 -96,60 -153,60 -57,-1 -111,-22 -153,-60 -6,-7 -17,-9 -25,-3l-150 76 0 0c-32,15 -56,43 -67,77l0 0 -25 156c-1,7 1,14 6,19 3,6 9,10 16,9l796 0c7,1 13,-3 16,-9 4,-4 6,-11 3,-16z"/>
   <rect id="Rectangle_2606" class="fil0" x="812" y="395" width="398.055" height="50.987"/>
   <rect id="Rectangle_2607" class="fil0" x="920" y="491" width="178.32" height="50.987"/>
   <rect id="Rectangle_2608" class="fil0" transform="matrix(-0.726799 -0.686799 0.686799 -0.726799 3897.03 863.629)" width="178.453" height="51.0444"/>
   <path id="Path_11699" class="fil1" d="M557 2371l-156 0c-17,0 -32,-14 -32,-32 0,-18 15,-32 32,-32l156 0c18,0 32,14 32,32 0,18 -14,32 -32,32z"/>
   <path id="Path_11700" class="fil1" d="M557 2473l-156 0c-17,0 -32,-14 -32,-32 0,-18 15,-32 32,-32l156 0c18,0 32,14 32,32 0,18 -14,32 -32,32z"/>
   <path id="Path_11701" class="fil1" d="M4417 2664l-249 0c-45,-1 -82,-37 -82,-83l0 -363c0,-45 37,-82 82,-83l134 0c17,-1 31,12 32,28 0,2 0,3 0,4l0 111c1,11 9,19 19,20l112 0c16,-1 30,11 31,28 0,1 0,2 0,3l0 252c2,44 -32,81 -76,83 -1,0 -2,0 -3,0zm-249 -465c-10,1 -18,9 -19,19l0 363c1,10 9,19 19,19l249 0c10,0 18,-9 19,-19l0 -220 -80 0c-45,-1 -82,-37 -83,-83l0 -79 -105 0z"/>
   <path id="Path_11702" class="fil1" d="M4468 2361c-9,1 -17,-3 -23,-9l-162 -163c-12,-12 -12,-32 1,-44 12,-12 31,-12 44,0l162 162c12,12 13,31 1,44 0,0 -1,0 -1,1 -6,6 -14,10 -22,9z"/>
   <path id="Path_11703" class="fil1" d="M4382 2562l-93 0c-17,0 -31,-14 -31,-32 0,-17 14,-32 31,-32l93 0c16,-1 31,12 32,29 0,1 0,2 0,3 0,18 -15,32 -32,32z"/>
  </g>
 </g>
</svg>
