<svg width="357" height="357" viewBox="0 0 357 357" fill="none" xmlns="http://www.w3.org/2000/svg">
<g filter="url(#filter0_d_378_604)">
<rect y="0.643677" width="350" height="350" rx="25" fill="white" shape-rendering="crispEdges"/>
<rect x="1.5" y="2.14368" width="347" height="347" rx="23.5" stroke="#212528" stroke-width="3" shape-rendering="crispEdges"/>
<path d="M89.6747 90.1891H93.544L98.7259 102.837H98.9304L104.112 90.1891H107.982V107.644H104.947V95.6522H104.786L99.9616 107.593H97.6946L92.8707 95.6266H92.7088V107.644H89.6747V90.1891ZM115.055 107.908C114.226 107.908 113.479 107.76 112.814 107.465C112.155 107.164 111.632 106.72 111.246 106.135C110.865 105.55 110.675 104.828 110.675 103.97C110.675 103.232 110.811 102.621 111.084 102.138C111.357 101.655 111.729 101.269 112.2 100.979C112.672 100.689 113.203 100.47 113.794 100.323C114.391 100.169 115.007 100.058 115.643 99.9903C116.411 99.9107 117.033 99.8397 117.51 99.7772C117.987 99.709 118.334 99.6067 118.55 99.4704C118.771 99.3283 118.882 99.1096 118.882 98.8141V98.763C118.882 98.1209 118.692 97.6238 118.311 97.2715C117.93 96.9192 117.382 96.7431 116.666 96.7431C115.911 96.7431 115.311 96.9079 114.868 97.2374C114.43 97.567 114.135 97.9562 113.982 98.405L111.101 97.9959C111.328 97.2005 111.703 96.5357 112.226 96.0016C112.749 95.4619 113.388 95.0584 114.143 94.7914C114.899 94.5187 115.734 94.3823 116.649 94.3823C117.28 94.3823 117.908 94.4562 118.533 94.6039C119.158 94.7516 119.729 94.9959 120.246 95.3369C120.763 95.6721 121.178 96.1295 121.49 96.709C121.808 97.2886 121.967 98.013 121.967 98.8823V107.644H119.001V105.845H118.899C118.712 106.209 118.447 106.55 118.107 106.868C117.771 107.181 117.348 107.433 116.837 107.627C116.331 107.814 115.737 107.908 115.055 107.908ZM115.857 105.641C116.476 105.641 117.013 105.519 117.467 105.274C117.922 105.024 118.271 104.695 118.516 104.286C118.766 103.877 118.891 103.431 118.891 102.948V101.405C118.794 101.485 118.629 101.558 118.396 101.627C118.169 101.695 117.913 101.754 117.629 101.806C117.345 101.857 117.064 101.902 116.786 101.942C116.507 101.982 116.266 102.016 116.061 102.044C115.601 102.107 115.189 102.209 114.825 102.351C114.462 102.493 114.175 102.692 113.964 102.948C113.754 103.198 113.649 103.522 113.649 103.919C113.649 104.487 113.857 104.916 114.271 105.206C114.686 105.496 115.214 105.641 115.857 105.641ZM127.882 103.536L127.874 99.8113H128.368L133.072 94.5528H136.678L130.891 100.996H130.251L127.882 103.536ZM125.07 107.644V90.1891H128.155V107.644H125.07ZM133.286 107.644L129.024 101.686L131.104 99.513L136.976 107.644H133.286ZM138.734 107.644V94.5528H141.819V107.644H138.734ZM140.285 92.6948C139.796 92.6948 139.376 92.5329 139.023 92.209C138.671 91.8795 138.495 91.4846 138.495 91.0244C138.495 90.5584 138.671 90.1636 139.023 89.8397C139.376 89.5102 139.796 89.3454 140.285 89.3454C140.779 89.3454 141.2 89.5102 141.546 89.8397C141.898 90.1636 142.075 90.5584 142.075 91.0244C142.075 91.4846 141.898 91.8795 141.546 92.209C141.2 92.5329 140.779 92.6948 140.285 92.6948ZM148.077 99.9732V107.644H144.991V94.5528H147.94V96.7772H148.094C148.395 96.0442 148.875 95.4619 149.534 95.03C150.199 94.5982 151.02 94.3823 151.997 94.3823C152.901 94.3823 153.688 94.5755 154.358 94.9619C155.034 95.3482 155.557 95.9079 155.926 96.6408C156.301 97.3738 156.486 98.263 156.48 99.3084V107.644H153.395V99.7857C153.395 98.9107 153.168 98.2261 152.713 97.7317C152.264 97.2374 151.642 96.9903 150.847 96.9903C150.307 96.9903 149.827 97.1096 149.406 97.3482C148.991 97.5812 148.665 97.9192 148.426 98.3624C148.193 98.8056 148.077 99.3425 148.077 99.9732ZM165.31 112.825C164.202 112.825 163.25 112.675 162.455 112.374C161.659 112.078 161.02 111.681 160.537 111.181C160.054 110.681 159.719 110.127 159.531 109.519L162.31 108.845C162.435 109.101 162.616 109.354 162.855 109.604C163.094 109.86 163.415 110.07 163.818 110.235C164.227 110.405 164.741 110.49 165.361 110.49C166.236 110.49 166.96 110.277 167.534 109.851C168.108 109.431 168.395 108.737 168.395 107.772V105.291H168.241C168.082 105.61 167.849 105.936 167.543 106.272C167.241 106.607 166.841 106.888 166.341 107.115C165.847 107.343 165.224 107.456 164.474 107.456C163.469 107.456 162.557 107.22 161.739 106.749C160.926 106.272 160.278 105.561 159.795 104.618C159.318 103.669 159.08 102.482 159.08 101.056C159.08 99.6181 159.318 98.405 159.795 97.4164C160.278 96.4221 160.929 95.6692 161.747 95.1579C162.565 94.6408 163.477 94.3823 164.483 94.3823C165.25 94.3823 165.881 94.513 166.375 94.7744C166.875 95.03 167.273 95.3397 167.568 95.7033C167.864 96.0613 168.088 96.3994 168.241 96.7175H168.412V94.5528H171.455V107.857C171.455 108.976 171.188 109.902 170.653 110.635C170.119 111.368 169.389 111.916 168.463 112.28C167.537 112.644 166.486 112.825 165.31 112.825ZM165.335 105.036C165.989 105.036 166.545 104.877 167.006 104.558C167.466 104.24 167.815 103.783 168.054 103.186C168.293 102.59 168.412 101.874 168.412 101.039C168.412 100.215 168.293 99.4931 168.054 98.8738C167.821 98.2545 167.474 97.7744 167.014 97.4334C166.56 97.0869 166 96.9136 165.335 96.9136C164.648 96.9136 164.074 97.0925 163.614 97.4505C163.153 97.8084 162.807 98.2999 162.574 98.9249C162.341 99.5442 162.224 100.249 162.224 101.039C162.224 101.84 162.341 102.541 162.574 103.144C162.813 103.74 163.162 104.206 163.622 104.541C164.088 104.871 164.659 105.036 165.335 105.036ZM183.868 90.1891V107.644H180.706V90.1891H183.868ZM190.241 99.9732V107.644H187.156V94.5528H190.104V96.7772H190.258C190.559 96.0442 191.039 95.4619 191.698 95.03C192.363 94.5982 193.184 94.3823 194.161 94.3823C195.065 94.3823 195.852 94.5755 196.522 94.9619C197.198 95.3482 197.721 95.9079 198.09 96.6408C198.465 97.3738 198.65 98.263 198.644 99.3084V107.644H195.559V99.7857C195.559 98.9107 195.332 98.2261 194.877 97.7317C194.428 97.2374 193.806 96.9903 193.011 96.9903C192.471 96.9903 191.991 97.1096 191.57 97.3482C191.156 97.5812 190.829 97.9192 190.59 98.3624C190.357 98.8056 190.241 99.3425 190.241 99.9732ZM213.005 94.5528L208.343 107.644H204.934L200.272 94.5528H203.562L206.57 104.277H206.707L209.724 94.5528H213.005ZM220.405 107.899C219.126 107.899 218.018 107.618 217.081 107.056C216.143 106.493 215.416 105.706 214.899 104.695C214.388 103.683 214.132 102.502 214.132 101.149C214.132 99.7971 214.388 98.6124 214.899 97.5954C215.416 96.5783 216.143 95.7886 217.081 95.2261C218.018 94.6636 219.126 94.3823 220.405 94.3823C221.683 94.3823 222.791 94.6636 223.729 95.2261C224.666 95.7886 225.391 96.5783 225.902 97.5954C226.419 98.6124 226.678 99.7971 226.678 101.149C226.678 102.502 226.419 103.683 225.902 104.695C225.391 105.706 224.666 106.493 223.729 107.056C222.791 107.618 221.683 107.899 220.405 107.899ZM220.422 105.428C221.115 105.428 221.695 105.237 222.161 104.857C222.626 104.47 222.973 103.953 223.2 103.306C223.433 102.658 223.55 101.936 223.55 101.141C223.55 100.34 223.433 99.6153 223.2 98.9675C222.973 98.3141 222.626 97.7942 222.161 97.4079C221.695 97.0215 221.115 96.8283 220.422 96.8283C219.712 96.8283 219.121 97.0215 218.649 97.4079C218.183 97.7942 217.834 98.3141 217.601 98.9675C217.374 99.6153 217.26 100.34 217.26 101.141C217.26 101.936 217.374 102.658 217.601 103.306C217.834 103.953 218.183 104.47 218.649 104.857C219.121 105.237 219.712 105.428 220.422 105.428ZM229.296 107.644V94.5528H232.381V107.644H229.296ZM230.847 92.6948C230.359 92.6948 229.938 92.5329 229.586 92.209C229.234 91.8795 229.058 91.4846 229.058 91.0244C229.058 90.5584 229.234 90.1636 229.586 89.8397C229.938 89.5102 230.359 89.3454 230.847 89.3454C231.342 89.3454 231.762 89.5102 232.109 89.8397C232.461 90.1636 232.637 90.5584 232.637 91.0244C232.637 91.4846 232.461 91.8795 232.109 92.209C231.762 92.5329 231.342 92.6948 230.847 92.6948ZM241.264 107.899C239.957 107.899 238.835 107.612 237.898 107.039C236.966 106.465 236.247 105.672 235.741 104.661C235.241 103.644 234.991 102.473 234.991 101.149C234.991 99.8198 235.247 98.6465 235.759 97.6295C236.27 96.6067 236.991 95.8113 237.923 95.2431C238.861 94.6692 239.969 94.3823 241.247 94.3823C242.31 94.3823 243.25 94.5783 244.068 94.9704C244.892 95.3567 245.548 95.905 246.037 96.6153C246.526 97.3198 246.804 98.1437 246.872 99.0869H243.923C243.804 98.4562 243.52 97.9306 243.071 97.5102C242.628 97.084 242.034 96.8709 241.29 96.8709C240.659 96.8709 240.105 97.0414 239.628 97.3823C239.151 97.7175 238.778 98.2005 238.511 98.8312C238.25 99.4619 238.119 100.218 238.119 101.098C238.119 101.99 238.25 102.757 238.511 103.399C238.773 104.036 239.139 104.527 239.611 104.874C240.088 105.215 240.648 105.385 241.29 105.385C241.744 105.385 242.151 105.3 242.509 105.129C242.872 104.953 243.176 104.7 243.42 104.371C243.665 104.041 243.832 103.641 243.923 103.169H246.872C246.798 104.095 246.526 104.916 246.054 105.632C245.582 106.343 244.94 106.899 244.128 107.303C243.315 107.7 242.361 107.899 241.264 107.899ZM255.201 107.899C253.888 107.899 252.755 107.627 251.8 107.081C250.852 106.53 250.121 105.752 249.61 104.746C249.099 103.735 248.843 102.544 248.843 101.175C248.843 99.8283 249.099 98.6465 249.61 97.6295C250.127 96.6067 250.849 95.8113 251.775 95.2431C252.701 94.6692 253.789 94.3823 255.039 94.3823C255.846 94.3823 256.607 94.513 257.323 94.7744C258.045 95.03 258.681 95.4278 259.232 95.9675C259.789 96.5073 260.227 97.1948 260.545 98.03C260.863 98.8596 261.022 99.8482 261.022 100.996V101.942H250.292V99.8624H258.065C258.059 99.2715 257.931 98.7459 257.681 98.2857C257.431 97.8198 257.082 97.4533 256.633 97.1863C256.19 96.9192 255.673 96.7857 255.082 96.7857C254.451 96.7857 253.897 96.9391 253.42 97.2459C252.942 97.5471 252.57 97.9448 252.303 98.4391C252.042 98.9278 251.908 99.4647 251.903 100.05V101.865C251.903 102.627 252.042 103.28 252.32 103.825C252.599 104.365 252.988 104.78 253.488 105.07C253.988 105.354 254.573 105.496 255.244 105.496C255.692 105.496 256.099 105.433 256.462 105.308C256.826 105.178 257.141 104.987 257.408 104.737C257.675 104.487 257.877 104.178 258.013 103.808L260.894 104.132C260.712 104.894 260.366 105.558 259.854 106.127C259.349 106.689 258.701 107.127 257.911 107.439C257.121 107.746 256.218 107.899 255.201 107.899Z" fill="#212528"/>
<path d="M49.921 266.292H44.2669V137.782H49.921V266.292Z" fill="#070B0F"/>
<path d="M55.5747 266.292H52.0411V137.782H55.5747V266.292Z" fill="#070B0F"/>
<path d="M298.684 266.292H293.03V137.782H298.684V266.292Z" fill="#070B0F"/>
<path d="M302.616 266.292H300.408V137.782H302.616V266.292Z" fill="#070B0F"/>
<path d="M305.733 266.292H304.353V137.782H305.733V266.292Z" fill="#070B0F"/>
<path d="M63 266.644H60V137.644H63V266.644Z" fill="#070B0F"/>
<path d="M73 266.644H66V137.644H73V266.644Z" fill="#070B0F"/>
<path d="M77 266.644H75V137.644H77V266.644Z" fill="#070B0F"/>
<path d="M81 266.644H80V137.644H81V266.644Z" fill="#070B0F"/>
<path d="M101 266.644H100V137.644H101V266.644Z" fill="#070B0F"/>
<path d="M105 266.644H103V137.644H105V266.644Z" fill="#070B0F"/>
<path d="M88 266.644H86V137.644H88V266.644Z" fill="#070B0F"/>
<path d="M98 266.644H93V137.644H98V266.644Z" fill="#070B0F"/>
<path d="M112 266.644H108V137.644H112V266.644Z" fill="#070B0F"/>
<path d="M126 266.644H116V137.644H126V266.644Z" fill="#070B0F"/>
<path d="M274 266.644H264V137.644H274V266.644Z" fill="#070B0F"/>
<path d="M280 266.644H277V137.644H280V266.644Z" fill="#070B0F"/>
<path d="M285 266.644H283V137.644H285V266.644Z" fill="#070B0F"/>
<path d="M290 266.644H287V137.644H290V266.644Z" fill="#070B0F"/>
<path d="M212.974 149.705L205.431 142.162L197.888 149.705L190.345 142.162L182.802 149.705L175.259 142.162L167.716 149.705L160.172 142.162L152.629 149.705L145.086 142.162V212.564H130V227.65C130 235.998 136.739 242.737 145.086 242.737H205.431C213.779 242.737 220.517 235.998 220.517 227.65V142.162L212.974 149.705ZM210.46 227.65C210.46 230.416 208.197 232.679 205.431 232.679C202.665 232.679 200.402 230.416 200.402 227.65V212.564H155.144V157.248H210.46V227.65Z" fill="#0074FF"/>
<path d="M190.345 167.306H160.172V177.363H190.345V167.306Z" fill="#0074FF"/>
<path d="M205.431 167.306H195.374V177.363H205.431V167.306Z" fill="#0074FF"/>
<path d="M190.345 182.392H160.172V192.449H190.345V182.392Z" fill="#0074FF"/>
<path d="M205.431 182.392H195.374V192.449H205.431V182.392Z" fill="#0074FF"/>
<path d="M239 266.644H238V137.644H239V266.644Z" fill="#070B0F"/>
<path d="M244 266.644H242V137.644H244V266.644Z" fill="#070B0F"/>
<path d="M248 266.644H247V137.644H248V266.644Z" fill="#070B0F"/>
<path d="M253 266.644H252V137.644H253V266.644Z" fill="#070B0F"/>
<path d="M260 266.644H255V137.644H260V266.644Z" fill="#070B0F"/>
</g>
<defs>
<filter id="filter0_d_378_604" x="0" y="0.643677" width="356.25" height="356.25" filterUnits="userSpaceOnUse" color-interpolation-filters="sRGB">
<feFlood flood-opacity="0" result="BackgroundImageFix"/>
<feColorMatrix in="SourceAlpha" type="matrix" values="0 0 0 0 0 0 0 0 0 0 0 0 0 0 0 0 0 0 127 0" result="hardAlpha"/>
<feOffset dx="6.25" dy="6.25"/>
<feComposite in2="hardAlpha" operator="out"/>
<feColorMatrix type="matrix" values="0 0 0 0 0.667568 0 0 0 0 0.805297 0 0 0 0 0.932432 0 0 0 1 0"/>
<feBlend mode="normal" in2="BackgroundImageFix" result="effect1_dropShadow_378_604"/>
<feBlend mode="normal" in="SourceGraphic" in2="effect1_dropShadow_378_604" result="shape"/>
</filter>
</defs>
</svg>
