<svg width="324" height="324" viewBox="0 0 324 324" fill="none" xmlns="http://www.w3.org/2000/svg">
<g filter="url(#filter0_d_428_825)">
<rect width="318" height="318" rx="22.7143" fill="white" shape-rendering="crispEdges"/>
<rect x="1.36286" y="1.36286" width="315.274" height="315.274" rx="21.3514" stroke="#212528" stroke-width="2.72571" shape-rendering="crispEdges"/>
<path d="M65.9734 97.4944V81.6357H72.0443C73.1903 81.6357 74.1428 81.8164 74.9017 82.1777C75.6657 82.5339 76.2361 83.0218 76.613 83.6413C76.995 84.2607 77.186 84.9628 77.186 85.7475C77.186 86.3928 77.0621 86.9451 76.8143 87.4046C76.5665 87.8589 76.2335 88.228 75.8154 88.5119C75.3972 88.7958 74.9301 88.9998 74.4138 89.1237V89.2785C74.9765 89.3095 75.516 89.4824 76.0322 89.7973C76.5536 90.1071 76.9795 90.5459 77.3099 91.1137C77.6403 91.6816 77.8055 92.3682 77.8055 93.1735C77.8055 93.9943 77.6067 94.7325 77.2092 95.3882C76.8117 96.0386 76.2129 96.5523 75.4127 96.9291C74.6126 97.306 73.6059 97.4944 72.3928 97.4944H65.9734ZM68.8462 95.0939H71.9359C72.9787 95.0939 73.7298 94.8951 74.1893 94.4976C74.6539 94.095 74.8862 93.5788 74.8862 92.9489C74.8862 92.4792 74.77 92.0559 74.5377 91.679C74.3054 91.297 73.975 90.9976 73.5465 90.7808C73.1181 90.5588 72.607 90.4478 72.0133 90.4478H68.8462V95.0939ZM68.8462 88.3803H71.6881C72.1837 88.3803 72.6302 88.2899 73.0277 88.1093C73.4252 87.9234 73.7376 87.6627 73.9647 87.3272C74.197 86.9864 74.3132 86.5838 74.3132 86.1192C74.3132 85.5049 74.0963 84.9989 73.6627 84.6014C73.2342 84.2039 72.5967 84.0052 71.7501 84.0052H68.8462V88.3803ZM83.6034 97.7344C82.8497 97.7344 82.1709 97.6002 81.5669 97.3318C80.9681 97.0582 80.4931 96.6555 80.1421 96.1238C79.7962 95.5921 79.6233 94.9364 79.6233 94.1569C79.6233 93.4858 79.7472 92.9309 79.995 92.4921C80.2427 92.0533 80.5809 91.7022 81.0094 91.439C81.4378 91.1757 81.9205 90.9769 82.4574 90.8427C82.9994 90.7033 83.5595 90.6027 84.1377 90.5407C84.8346 90.4684 85.3999 90.4039 85.8336 90.3471C86.2672 90.2852 86.5821 90.1923 86.7783 90.0684C86.9796 89.9393 87.0803 89.7406 87.0803 89.4721V89.4257C87.0803 88.8423 86.9073 88.3906 86.5614 88.0705C86.2156 87.7505 85.7174 87.5904 85.0669 87.5904C84.3804 87.5904 83.8357 87.7401 83.4331 88.0396C83.0356 88.339 82.7671 88.6926 82.6277 89.1004L80.0104 88.7287C80.2169 88.006 80.5576 87.402 81.0326 86.9168C81.5075 86.4263 82.0883 86.0598 82.7749 85.8172C83.4615 85.5694 84.2203 85.4455 85.0515 85.4455C85.6245 85.4455 86.1949 85.5126 86.7628 85.6468C87.3306 85.781 87.8494 86.003 88.3192 86.3128C88.789 86.6173 89.1658 87.0329 89.4498 87.5595C89.7389 88.086 89.8834 88.7442 89.8834 89.5341V97.4944H87.1887V95.8605H87.0957C86.9254 96.1909 86.6853 96.5006 86.3756 96.7897C86.071 97.0737 85.6864 97.3034 85.2218 97.4789C84.7624 97.6493 84.2229 97.7344 83.6034 97.7344ZM84.3313 95.6747C84.894 95.6747 85.3819 95.5637 85.7948 95.3417C86.2078 95.1145 86.5253 94.8151 86.7473 94.4434C86.9744 94.0718 87.088 93.6665 87.088 93.2277V91.8261C87.0002 91.8984 86.8505 91.9655 86.6389 92.0275C86.4324 92.0894 86.2001 92.1436 85.942 92.1901C85.6838 92.2365 85.4283 92.2778 85.1754 92.314C84.9224 92.3501 84.703 92.3811 84.5172 92.4069C84.099 92.4637 83.7247 92.5566 83.3944 92.6857C83.064 92.8147 82.8033 92.9954 82.6123 93.2277C82.4212 93.4549 82.3257 93.7491 82.3257 94.1105C82.3257 94.6267 82.5142 95.0165 82.891 95.2797C83.2679 95.543 83.748 95.6747 84.3313 95.6747ZM92.702 97.4944V85.6004H95.42V87.5827H95.5439C95.7607 86.8961 96.1324 86.367 96.659 85.9953C97.1907 85.6184 97.7973 85.43 98.4787 85.43C98.6336 85.43 98.8065 85.4377 98.9975 85.4532C99.1937 85.4636 99.3563 85.4816 99.4854 85.5074V88.086C99.3666 88.0447 99.1782 88.0086 98.9201 87.9776C98.6671 87.9415 98.4219 87.9234 98.1844 87.9234C97.6734 87.9234 97.2139 88.0344 96.8061 88.2564C96.4034 88.4732 96.086 88.7752 95.8537 89.1624C95.6213 89.5495 95.5052 89.9961 95.5052 90.502V97.4944H92.702ZM106.046 97.7267C104.859 97.7267 103.839 97.466 102.987 96.9446C102.141 96.4232 101.488 95.7031 101.028 94.7842C100.574 93.8601 100.347 92.7967 100.347 91.5938C100.347 90.3858 100.579 89.3198 101.044 88.3958C101.508 87.4665 102.164 86.7438 103.011 86.2276C103.862 85.7062 104.869 85.4455 106.031 85.4455C106.996 85.4455 107.85 85.6236 108.594 85.9798C109.342 86.3308 109.938 86.829 110.382 87.4743C110.826 88.1144 111.079 88.863 111.141 89.7199H108.462C108.354 89.1469 108.095 88.6694 107.688 88.2874C107.285 87.9002 106.746 87.7066 106.069 87.7066C105.496 87.7066 104.993 87.8615 104.559 88.1712C104.126 88.4758 103.788 88.9146 103.545 89.4876C103.307 90.0606 103.189 90.7472 103.189 91.5474C103.189 92.3579 103.307 93.0548 103.545 93.6381C103.782 94.2163 104.115 94.6628 104.544 94.9777C104.977 95.2875 105.486 95.4424 106.069 95.4424C106.482 95.4424 106.851 95.3649 107.177 95.2101C107.507 95.05 107.783 94.8203 108.005 94.5209C108.227 94.2215 108.379 93.8575 108.462 93.429H111.141C111.074 94.2705 110.826 95.0165 110.398 95.6669C109.969 96.3122 109.386 96.8181 108.648 97.1846C107.91 97.546 107.042 97.7267 106.046 97.7267ZM118.631 97.7267C117.47 97.7267 116.463 97.4712 115.611 96.9601C114.759 96.449 114.099 95.734 113.629 94.8151C113.164 93.8962 112.932 92.8225 112.932 91.5938C112.932 90.3652 113.164 89.2888 113.629 88.3648C114.099 87.4407 114.759 86.7232 115.611 86.2121C116.463 85.701 117.47 85.4455 118.631 85.4455C119.793 85.4455 120.799 85.701 121.651 86.2121C122.503 86.7232 123.161 87.4407 123.626 88.3648C124.096 89.2888 124.33 90.3652 124.33 91.5938C124.33 92.8225 124.096 93.8962 123.626 94.8151C123.161 95.734 122.503 96.449 121.651 96.9601C120.799 97.4712 119.793 97.7267 118.631 97.7267ZM118.647 95.4811C119.276 95.4811 119.803 95.3081 120.226 94.9623C120.65 94.6112 120.965 94.1414 121.171 93.5529C121.383 92.9644 121.489 92.3088 121.489 91.5861C121.489 90.8582 121.383 90.2 121.171 89.6115C120.965 89.0178 120.65 88.5455 120.226 88.1944C119.803 87.8434 119.276 87.6679 118.647 87.6679C118.001 87.6679 117.464 87.8434 117.036 88.1944C116.613 88.5455 116.295 89.0178 116.084 89.6115C115.877 90.2 115.774 90.8582 115.774 91.5861C115.774 92.3088 115.877 92.9644 116.084 93.5529C116.295 94.1414 116.613 94.6112 117.036 94.9623C117.464 95.3081 118.001 95.4811 118.647 95.4811ZM131.123 97.7035C130.189 97.7035 129.353 97.4634 128.614 96.9833C127.876 96.5032 127.293 95.8063 126.864 94.8926C126.436 93.9788 126.222 92.8689 126.222 91.5629C126.222 90.2413 126.439 89.1262 126.872 88.2177C127.311 87.3039 127.902 86.6148 128.645 86.1501C129.389 85.6804 130.217 85.4455 131.131 85.4455C131.828 85.4455 132.401 85.5642 132.85 85.8017C133.299 86.034 133.656 86.3153 133.919 86.6457C134.182 86.971 134.386 87.2781 134.531 87.5672H134.647V81.6357H137.458V97.4944H134.701V95.6205H134.531C134.386 95.9095 134.177 96.2167 133.903 96.5419C133.63 96.862 133.268 97.1356 132.819 97.3627C132.37 97.5899 131.805 97.7035 131.123 97.7035ZM131.905 95.4036C132.499 95.4036 133.005 95.2436 133.423 94.9235C133.841 94.5983 134.159 94.1466 134.376 93.5684C134.592 92.9902 134.701 92.3166 134.701 91.5474C134.701 90.7782 134.592 90.1097 134.376 89.5418C134.164 88.9739 133.849 88.5326 133.431 88.2177C133.018 87.9028 132.509 87.7453 131.905 87.7453C131.281 87.7453 130.759 87.9079 130.341 88.2332C129.923 88.5584 129.608 89.0075 129.397 89.5805C129.185 90.1535 129.079 90.8092 129.079 91.5474C129.079 92.2907 129.185 92.9541 129.397 93.5375C129.613 94.1156 129.931 94.5725 130.349 94.9081C130.772 95.2384 131.291 95.4036 131.905 95.4036ZM145.71 97.7267C144.518 97.7267 143.488 97.4789 142.621 96.9833C141.758 96.4826 141.095 95.7753 140.63 94.8616C140.166 93.9427 139.934 92.8612 139.934 91.6171C139.934 90.3936 140.166 89.3198 140.63 88.3958C141.1 87.4665 141.756 86.7438 142.597 86.2276C143.439 85.7062 144.427 85.4455 145.563 85.4455C146.296 85.4455 146.988 85.5642 147.638 85.8017C148.294 86.034 148.872 86.3954 149.373 86.8858C149.879 87.3762 150.276 88.0008 150.565 88.7597C150.854 89.5134 150.999 90.4117 150.999 91.4544V92.314H141.25V90.4246H148.312C148.307 89.8877 148.191 89.4102 147.964 88.992C147.736 88.5687 147.419 88.2357 147.011 87.9931C146.608 87.7505 146.139 87.6292 145.602 87.6292C145.029 87.6292 144.525 87.7685 144.092 88.0473C143.658 88.3209 143.32 88.6823 143.077 89.1314C142.84 89.5754 142.719 90.0632 142.713 90.5949V92.2443C142.713 92.936 142.84 93.5297 143.093 94.0253C143.346 94.5157 143.699 94.8926 144.154 95.1558C144.608 95.414 145.14 95.543 145.749 95.543C146.157 95.543 146.526 95.4862 146.856 95.3727C147.187 95.2539 147.473 95.081 147.716 94.8538C147.958 94.6267 148.142 94.3454 148.266 94.0098L150.883 94.3041C150.718 94.9958 150.403 95.5998 149.938 96.116C149.479 96.6271 148.89 97.0246 148.173 97.3085C147.455 97.5873 146.634 97.7267 145.71 97.7267ZM168.18 88.7442L165.625 89.023C165.552 88.7649 165.426 88.5222 165.245 88.2951C165.07 88.068 164.832 87.8847 164.533 87.7453C164.233 87.6059 163.867 87.5362 163.433 87.5362C162.85 87.5362 162.359 87.6627 161.962 87.9157C161.57 88.1686 161.376 88.4964 161.381 88.8991C161.376 89.245 161.502 89.5263 161.761 89.7431C162.024 89.96 162.457 90.1381 163.061 90.2774L165.09 90.7111C166.216 90.9537 167.052 91.3383 167.599 91.8649C168.152 92.3914 168.43 93.0806 168.435 93.9324C168.43 94.6809 168.211 95.3417 167.777 95.9147C167.349 96.4826 166.753 96.9265 165.989 97.2466C165.224 97.5667 164.347 97.7267 163.356 97.7267C161.9 97.7267 160.728 97.4221 159.84 96.813C158.952 96.1986 158.423 95.3443 158.253 94.2499L160.986 93.9866C161.11 94.5235 161.373 94.9287 161.776 95.2023C162.179 95.4759 162.703 95.6127 163.348 95.6127C164.014 95.6127 164.548 95.4759 164.951 95.2023C165.359 94.9287 165.563 94.5906 165.563 94.1879C165.563 93.8472 165.431 93.5658 165.168 93.3439C164.91 93.1219 164.507 92.9515 163.96 92.8328L161.931 92.4069C160.79 92.1694 159.946 91.7694 159.399 91.2067C158.852 90.6388 158.581 89.9212 158.586 89.054C158.581 88.3209 158.779 87.6859 159.182 87.1491C159.59 86.607 160.155 86.1889 160.878 85.8946C161.606 85.5952 162.445 85.4455 163.394 85.4455C164.788 85.4455 165.885 85.7423 166.685 86.336C167.491 86.9297 167.989 87.7324 168.18 88.7442ZM175.935 97.7267C174.748 97.7267 173.728 97.466 172.876 96.9446C172.03 96.4232 171.377 95.7031 170.917 94.7842C170.463 93.8601 170.236 92.7967 170.236 91.5938C170.236 90.3858 170.468 89.3198 170.933 88.3958C171.397 87.4665 172.053 86.7438 172.9 86.2276C173.751 85.7062 174.758 85.4455 175.92 85.4455C176.885 85.4455 177.739 85.6236 178.483 85.9798C179.231 86.3308 179.827 86.829 180.271 87.4743C180.715 88.1144 180.968 88.863 181.03 89.7199H178.351C178.243 89.1469 177.984 88.6694 177.577 88.2874C177.174 87.9002 176.635 87.7066 175.958 87.7066C175.385 87.7066 174.882 87.8615 174.448 88.1712C174.015 88.4758 173.677 88.9146 173.434 89.4876C173.196 90.0606 173.078 90.7472 173.078 91.5474C173.078 92.3579 173.196 93.0548 173.434 93.6381C173.671 94.2163 174.004 94.6628 174.433 94.9777C174.866 95.2875 175.375 95.4424 175.958 95.4424C176.371 95.4424 176.74 95.3649 177.066 95.2101C177.396 95.05 177.672 94.8203 177.894 94.5209C178.116 94.2215 178.268 93.8575 178.351 93.429H181.03C180.963 94.2705 180.715 95.0165 180.287 95.6669C179.858 96.3122 179.275 96.8181 178.537 97.1846C177.799 97.546 176.931 97.7267 175.935 97.7267ZM186.755 97.7344C186.001 97.7344 185.322 97.6002 184.718 97.3318C184.119 97.0582 183.644 96.6555 183.293 96.1238C182.947 95.5921 182.774 94.9364 182.774 94.1569C182.774 93.4858 182.898 92.9309 183.146 92.4921C183.394 92.0533 183.732 91.7022 184.161 91.439C184.589 91.1757 185.072 90.9769 185.609 90.8427C186.151 90.7033 186.711 90.6027 187.289 90.5407C187.986 90.4684 188.551 90.4039 188.985 90.3471C189.418 90.2852 189.733 90.1923 189.929 90.0684C190.131 89.9393 190.231 89.7406 190.231 89.4721V89.4257C190.231 88.8423 190.059 88.3906 189.713 88.0705C189.367 87.7505 188.869 87.5904 188.218 87.5904C187.532 87.5904 186.987 87.7401 186.584 88.0396C186.187 88.339 185.918 88.6926 185.779 89.1004L183.162 88.7287C183.368 88.006 183.709 87.402 184.184 86.9168C184.659 86.4263 185.24 86.0598 185.926 85.8172C186.613 85.5694 187.372 85.4455 188.203 85.4455C188.776 85.4455 189.346 85.5126 189.914 85.6468C190.482 85.781 191.001 86.003 191.47 86.3128C191.94 86.6173 192.317 87.0329 192.601 87.5595C192.89 88.086 193.035 88.7442 193.035 89.5341V97.4944H190.34V95.8605H190.247C190.077 96.1909 189.837 96.5006 189.527 96.7897C189.222 97.0737 188.838 97.3034 188.373 97.4789C187.914 97.6493 187.374 97.7344 186.755 97.7344ZM187.483 95.6747C188.045 95.6747 188.533 95.5637 188.946 95.3417C189.359 95.1145 189.677 94.8151 189.899 94.4434C190.126 94.0718 190.239 93.6665 190.239 93.2277V91.8261C190.151 91.8984 190.002 91.9655 189.79 92.0275C189.584 92.0894 189.351 92.1436 189.093 92.1901C188.835 92.2365 188.58 92.2778 188.327 92.314C188.074 92.3501 187.854 92.3811 187.668 92.4069C187.25 92.4637 186.876 92.5566 186.546 92.6857C186.215 92.8147 185.954 92.9954 185.763 93.2277C185.572 93.4549 185.477 93.7491 185.477 94.1105C185.477 94.6267 185.665 95.0165 186.042 95.2797C186.419 95.543 186.899 95.6747 187.483 95.6747ZM198.656 90.5252V97.4944H195.853V85.6004H198.533V87.6214H198.672C198.946 86.9555 199.382 86.4263 199.981 86.034C200.585 85.6417 201.331 85.4455 202.218 85.4455C203.039 85.4455 203.754 85.621 204.363 85.972C204.978 86.3231 205.453 86.8316 205.788 87.4975C206.129 88.1635 206.297 88.9714 206.292 89.9212V97.4944H203.488V90.3549C203.488 89.5599 203.282 88.9378 202.869 88.4887C202.461 88.0396 201.896 87.815 201.173 87.815C200.683 87.815 200.246 87.9234 199.864 88.1402C199.488 88.3519 199.191 88.659 198.974 89.0617C198.762 89.4644 198.656 89.9522 198.656 90.5252ZM211.944 90.5252V97.4944H209.141V85.6004H211.82V87.6214H211.96C212.233 86.9555 212.67 86.4263 213.268 86.034C213.872 85.6417 214.618 85.4455 215.506 85.4455C216.327 85.4455 217.042 85.621 217.651 85.972C218.266 86.3231 218.741 86.8316 219.076 87.4975C219.417 88.1635 219.585 88.9714 219.579 89.9212V97.4944H216.776V90.3549C216.776 89.5599 216.57 88.9378 216.157 88.4887C215.749 88.0396 215.184 87.815 214.461 87.815C213.971 87.815 213.534 87.9234 213.152 88.1402C212.775 88.3519 212.479 88.659 212.262 89.0617C212.05 89.4644 211.944 89.9522 211.944 90.5252ZM222.429 97.4944V85.6004H225.232V97.4944H222.429ZM223.838 83.9123C223.394 83.9123 223.012 83.7651 222.692 83.4709C222.372 83.1715 222.212 82.8127 222.212 82.3945C222.212 81.9712 222.372 81.6125 222.692 81.3182C223.012 81.0188 223.394 80.8691 223.838 80.8691C224.287 80.8691 224.669 81.0188 224.984 81.3182C225.304 81.6125 225.464 81.9712 225.464 82.3945C225.464 82.8127 225.304 83.1715 224.984 83.4709C224.669 83.7651 224.287 83.9123 223.838 83.9123ZM230.918 90.5252V97.4944H228.115V85.6004H230.794V87.6214H230.933C231.207 86.9555 231.643 86.4263 232.242 86.034C232.846 85.6417 233.592 85.4455 234.48 85.4455C235.301 85.4455 236.016 85.621 236.625 85.972C237.239 86.3231 237.714 86.8316 238.05 87.4975C238.39 88.1635 238.558 88.9714 238.553 89.9212V97.4944H235.75V90.3549C235.75 89.5599 235.543 88.9378 235.13 88.4887C234.722 88.0396 234.157 87.815 233.434 87.815C232.944 87.815 232.508 87.9234 232.126 88.1402C231.749 88.3519 231.452 88.659 231.235 89.0617C231.024 89.4644 230.918 89.9522 230.918 90.5252ZM246.575 102.202C245.569 102.202 244.704 102.066 243.981 101.792C243.258 101.524 242.678 101.162 242.239 100.708C241.8 100.254 241.495 99.7503 241.325 99.198L243.849 98.5862C243.963 98.8185 244.128 99.0482 244.345 99.2754C244.562 99.5077 244.854 99.6987 245.22 99.8484C245.592 100.003 246.059 100.081 246.622 100.081C247.417 100.081 248.075 99.8871 248.596 99.5C249.118 99.1179 249.378 98.4881 249.378 97.6105V95.3572H249.239C249.094 95.6463 248.883 95.9431 248.604 96.2477C248.33 96.5523 247.966 96.8078 247.512 97.0143C247.063 97.2208 246.498 97.324 245.816 97.324C244.903 97.324 244.074 97.1098 243.331 96.6813C242.592 96.2477 242.004 95.6024 241.565 94.7454C241.131 93.8833 240.915 92.8044 240.915 91.5087C240.915 90.2026 241.131 89.1004 241.565 88.2022C242.004 87.2988 242.595 86.6148 243.338 86.1501C244.082 85.6804 244.91 85.4455 245.824 85.4455C246.521 85.4455 247.094 85.5642 247.543 85.8017C247.997 86.034 248.359 86.3153 248.627 86.6457C248.896 86.971 249.1 87.2781 249.239 87.5672H249.394V85.6004H252.158V97.688C252.158 98.705 251.916 99.5464 251.43 100.212C250.945 100.878 250.282 101.376 249.44 101.707C248.599 102.037 247.644 102.202 246.575 102.202ZM246.598 95.1249C247.192 95.1249 247.698 94.9803 248.116 94.6912C248.534 94.4021 248.852 93.9866 249.069 93.4445C249.285 92.9025 249.394 92.252 249.394 91.4932C249.394 90.7446 249.285 90.089 249.069 89.5263C248.857 88.9636 248.542 88.5274 248.124 88.2177C247.711 87.9028 247.202 87.7453 246.598 87.7453C245.974 87.7453 245.452 87.9079 245.034 88.2332C244.616 88.5584 244.301 89.0049 244.09 89.5728C243.878 90.1355 243.772 90.7756 243.772 91.4932C243.772 92.2211 243.878 92.8586 244.09 93.4058C244.306 93.9479 244.624 94.3712 245.042 94.6757C245.465 94.9752 245.984 95.1249 246.598 95.1249Z" fill="#212528"/>
<path d="M45.3568 241.186H40.2196V124.426H45.3568V241.186Z" fill="#070B0F"/>
<path d="M50.4936 241.186H47.283V124.426H50.4936V241.186Z" fill="#070B0F"/>
<path d="M271.375 241.186H266.239V124.426H271.375V241.186Z" fill="#070B0F"/>
<path d="M274.948 241.186H272.942V124.426H274.948V241.186Z" fill="#070B0F"/>
<path d="M277.78 241.186H276.526V124.426H277.78V241.186Z" fill="#070B0F"/>
<path d="M57.24 241.506H54.5143V124.3H57.24V241.506Z" fill="#070B0F"/>
<path d="M66.3257 241.506H59.9657V124.3H66.3257V241.506Z" fill="#070B0F"/>
<path d="M69.96 241.506H68.1429V124.3H69.96V241.506Z" fill="#070B0F"/>
<path d="M73.5943 241.506H72.6857V124.3H73.5943V241.506Z" fill="#070B0F"/>
<path d="M91.7657 241.506H90.8571V124.3H91.7657V241.506Z" fill="#070B0F"/>
<path d="M95.4 241.506H93.5828V124.3H95.4V241.506Z" fill="#070B0F"/>
<path d="M79.9543 241.506H78.1371V124.3H79.9543V241.506Z" fill="#070B0F"/>
<path d="M89.04 241.506H84.4971V124.3H89.04V241.506Z" fill="#070B0F"/>
<path d="M101.76 241.506H98.1257V124.3H101.76V241.506Z" fill="#070B0F"/>
<path d="M114.48 241.506H105.394V124.3H114.48V241.506Z" fill="#070B0F"/>
<path d="M248.949 241.506H239.863V124.3H248.949V241.506Z" fill="#070B0F"/>
<path d="M254.4 241.506H251.674V124.3H254.4V241.506Z" fill="#070B0F"/>
<path d="M258.943 241.506H257.126V124.3H258.943V241.506Z" fill="#070B0F"/>
<path d="M263.486 241.506H260.76V124.3H263.486V241.506Z" fill="#070B0F"/>
<path d="M217.149 241.506H216.24V124.3H217.149V241.506Z" fill="#070B0F"/>
<path d="M221.691 241.506H219.874V124.3H221.691V241.506Z" fill="#070B0F"/>
<path d="M225.326 241.506H224.417V124.3H225.326V241.506Z" fill="#070B0F"/>
<path d="M229.869 241.506H228.96V124.3H229.869V241.506Z" fill="#070B0F"/>
<path d="M236.229 241.506H231.686V124.3H236.229V241.506Z" fill="#070B0F"/>
<path d="M148.611 151.562H137.877V162.296H130.721V144.406H148.611V151.562ZM202.279 162.296V144.406H184.39V151.562H195.123V162.296H202.279ZM148.611 215.964H137.877V205.23H130.721V223.12H148.611V215.964ZM195.123 205.23V215.964H184.39V223.12H202.279V205.23H195.123ZM184.39 162.296H148.611V205.23H184.39V162.296ZM191.545 205.23C191.545 209.166 188.325 212.386 184.39 212.386H148.611C144.675 212.386 141.455 209.166 141.455 205.23V162.296C141.455 158.36 144.675 155.14 148.611 155.14H184.39C188.325 155.14 191.545 158.36 191.545 162.296V205.23ZM177.234 169.452H155.767V176.607H177.234V169.452ZM177.234 180.185H155.767V187.341H177.234V180.185ZM177.234 190.919H155.767V198.075H177.234V190.919Z" fill="#29A653"/>
</g>
<defs>
<filter id="filter0_d_428_825" x="0" y="0" width="323.679" height="323.679" filterUnits="userSpaceOnUse" color-interpolation-filters="sRGB">
<feFlood flood-opacity="0" result="BackgroundImageFix"/>
<feColorMatrix in="SourceAlpha" type="matrix" values="0 0 0 0 0 0 0 0 0 0 0 0 0 0 0 0 0 0 127 0" result="hardAlpha"/>
<feOffset dx="5.67857" dy="5.67857"/>
<feComposite in2="hardAlpha" operator="out"/>
<feColorMatrix type="matrix" values="0 0 0 0 0.667568 0 0 0 0 0.805297 0 0 0 0 0.932432 0 0 0 1 0"/>
<feBlend mode="normal" in2="BackgroundImageFix" result="effect1_dropShadow_428_825"/>
<feBlend mode="normal" in="SourceGraphic" in2="effect1_dropShadow_428_825" result="shape"/>
</filter>
</defs>
</svg>
