<svg width="342" height="298" viewBox="0 0 342 298" fill="none" xmlns="http://www.w3.org/2000/svg">
<path d="M147.5 0V259" stroke="black" stroke-width="4"/>
<path d="M0 165.5H259" stroke="black" stroke-width="4"/>
<g filter="url(#filter0_d_381_238)">
<rect x="173.5" y="187.5" width="100" height="100" rx="16" fill="white" shape-rendering="crispEdges"/>
<rect x="175" y="189" width="97" height="97" rx="14.5" stroke="#212528" stroke-width="3" shape-rendering="crispEdges"/>
<path fill-rule="evenodd" clip-rule="evenodd" d="M203.5 204.708C203.5 201.748 205.942 199.349 208.955 199.349H223.5C226.513 199.349 228.955 201.748 228.955 204.708V204.835C229.548 204.751 230.155 204.708 230.773 204.708C237.802 204.708 243.5 210.307 243.5 217.214C243.5 223.458 238.842 228.634 232.753 229.568L233.825 231.392C235.721 234.618 233.351 238.651 229.559 238.651H212.067C208.275 238.651 205.905 234.618 207.801 231.392L211.933 224.359H208.955C205.942 224.359 203.5 221.96 203.5 219V204.708ZM228.529 229.525C223.635 228.67 219.708 225.066 218.461 220.395L210.95 233.178C210.454 234.023 211.074 235.078 212.067 235.078H229.559C230.551 235.078 231.172 234.023 230.675 233.178L228.529 229.525ZM218.289 214.765C219.082 210.843 221.741 207.582 225.318 205.912V204.708C225.318 203.722 224.504 202.922 223.5 202.922H208.955C207.95 202.922 207.136 203.722 207.136 204.708V219C207.136 219.987 207.95 220.787 208.955 220.787H214.032L216.547 216.507C216.99 215.753 217.597 215.17 218.289 214.765ZM221.682 217.214C221.682 212.28 225.752 208.281 230.773 208.281C235.793 208.281 239.864 212.28 239.864 217.214C239.864 222.147 235.793 226.146 230.773 226.146C225.752 226.146 221.682 222.147 221.682 217.214Z" fill="#29A653"/>
<path d="M200.915 257.771C200.773 257.31 200.577 256.898 200.327 256.535C200.082 256.165 199.787 255.85 199.44 255.589C199.099 255.327 198.707 255.131 198.264 255.001C197.821 254.864 197.338 254.796 196.815 254.796C195.878 254.796 195.043 255.032 194.31 255.504C193.577 255.975 193 256.668 192.58 257.583C192.165 258.492 191.957 259.6 191.957 260.907C191.957 262.225 192.165 263.342 192.58 264.256C192.994 265.171 193.571 265.867 194.31 266.344C195.048 266.816 195.906 267.052 196.884 267.052C197.77 267.052 198.537 266.881 199.185 266.54C199.838 266.2 200.341 265.717 200.693 265.092C201.045 264.461 201.222 263.722 201.222 262.876L201.938 262.986H197.199V260.515H204.281V262.611C204.281 264.106 203.963 265.398 203.327 266.489C202.69 267.58 201.815 268.421 200.702 269.012C199.588 269.597 198.31 269.89 196.866 269.89C195.259 269.89 193.847 269.529 192.631 268.807C191.42 268.08 190.474 267.049 189.793 265.714C189.116 264.373 188.778 262.782 188.778 260.941C188.778 259.532 188.977 258.273 189.375 257.165C189.778 256.057 190.341 255.117 191.062 254.344C191.784 253.566 192.631 252.975 193.602 252.572C194.574 252.163 195.631 251.958 196.773 251.958C197.739 251.958 198.639 252.1 199.474 252.384C200.31 252.663 201.051 253.06 201.699 253.577C202.352 254.094 202.889 254.708 203.31 255.418C203.73 256.129 204.006 256.913 204.136 257.771H200.915ZM207.202 269.651V256.56H210.194V258.742H210.33C210.569 257.986 210.978 257.404 211.558 256.995C212.143 256.58 212.81 256.373 213.56 256.373C213.731 256.373 213.921 256.381 214.131 256.398C214.347 256.41 214.526 256.43 214.668 256.458V259.296C214.538 259.251 214.33 259.211 214.046 259.177C213.768 259.137 213.498 259.117 213.237 259.117C212.674 259.117 212.168 259.239 211.719 259.484C211.276 259.722 210.927 260.055 210.671 260.481C210.415 260.907 210.288 261.398 210.288 261.955V269.651H207.202ZM221.889 269.907C220.611 269.907 219.503 269.626 218.565 269.063C217.628 268.501 216.901 267.714 216.384 266.702C215.872 265.691 215.616 264.509 215.616 263.157C215.616 261.805 215.872 260.62 216.384 259.603C216.901 258.586 217.628 257.796 218.565 257.234C219.503 256.671 220.611 256.39 221.889 256.39C223.168 256.39 224.276 256.671 225.213 257.234C226.151 257.796 226.875 258.586 227.386 259.603C227.903 260.62 228.162 261.805 228.162 263.157C228.162 264.509 227.903 265.691 227.386 266.702C226.875 267.714 226.151 268.501 225.213 269.063C224.276 269.626 223.168 269.907 221.889 269.907ZM221.906 267.435C222.599 267.435 223.179 267.245 223.645 266.864C224.111 266.478 224.457 265.961 224.685 265.313C224.918 264.665 225.034 263.944 225.034 263.148C225.034 262.347 224.918 261.623 224.685 260.975C224.457 260.322 224.111 259.802 223.645 259.415C223.179 259.029 222.599 258.836 221.906 258.836C221.196 258.836 220.605 259.029 220.134 259.415C219.668 259.802 219.318 260.322 219.085 260.975C218.858 261.623 218.744 262.347 218.744 263.148C218.744 263.944 218.858 264.665 219.085 265.313C219.318 265.961 219.668 266.478 220.134 266.864C220.605 267.245 221.196 267.435 221.906 267.435ZM239.124 264.146V256.56H242.21V269.651H239.218V267.325H239.082C238.786 268.057 238.3 268.657 237.624 269.123C236.954 269.589 236.127 269.822 235.144 269.822C234.286 269.822 233.528 269.631 232.869 269.251C232.215 268.864 231.704 268.305 231.335 267.572C230.965 266.833 230.781 265.941 230.781 264.896V256.56H233.866V264.418C233.866 265.248 234.093 265.907 234.548 266.396C235.002 266.884 235.599 267.129 236.337 267.129C236.792 267.129 237.232 267.018 237.658 266.796C238.085 266.575 238.434 266.245 238.707 265.807C238.985 265.364 239.124 264.81 239.124 264.146ZM245.382 274.56V256.56H248.416V258.725H248.595C248.754 258.407 248.979 258.069 249.268 257.711C249.558 257.347 249.95 257.038 250.445 256.782C250.939 256.521 251.57 256.39 252.337 256.39C253.348 256.39 254.26 256.648 255.072 257.165C255.891 257.677 256.538 258.435 257.016 259.441C257.499 260.441 257.74 261.668 257.74 263.123C257.74 264.56 257.504 265.782 257.033 266.788C256.561 267.793 255.919 268.56 255.107 269.089C254.294 269.617 253.374 269.881 252.345 269.881C251.595 269.881 250.973 269.756 250.479 269.506C249.984 269.256 249.587 268.955 249.286 268.603C248.99 268.245 248.76 267.907 248.595 267.589H248.467V274.56H245.382ZM248.408 263.106C248.408 263.952 248.527 264.694 248.766 265.33C249.01 265.967 249.359 266.464 249.814 266.822C250.274 267.174 250.831 267.35 251.484 267.35C252.166 267.35 252.737 267.168 253.197 266.805C253.658 266.435 254.004 265.932 254.237 265.296C254.476 264.654 254.595 263.924 254.595 263.106C254.595 262.293 254.479 261.572 254.246 260.941C254.013 260.31 253.666 259.816 253.206 259.458C252.746 259.1 252.172 258.921 251.484 258.921C250.825 258.921 250.266 259.094 249.805 259.441C249.345 259.788 248.996 260.273 248.757 260.898C248.524 261.523 248.408 262.259 248.408 263.106Z" fill="#3F4346"/>
</g>
<g filter="url(#filter1_d_381_238)">
<rect x="173.5" y="37.5" width="164" height="100" rx="16" fill="white" shape-rendering="crispEdges"/>
<rect x="175" y="39" width="161" height="97" rx="14.5" stroke="#212528" stroke-width="3" shape-rendering="crispEdges"/>
<path fill-rule="evenodd" clip-rule="evenodd" d="M253.063 49.5271C254.615 48.8243 256.385 48.8243 257.937 49.5271L274.312 56.945C275.035 57.2722 275.5 58.0022 275.5 58.8077C275.5 59.6133 275.035 60.3433 274.312 60.6705L267.174 63.9039L274.312 67.1372C275.035 67.4644 275.5 68.1944 275.5 68.9999C275.5 69.8055 275.035 70.5355 274.312 70.8627L267.174 74.0961L274.312 77.3295C275.035 77.6566 275.5 78.3866 275.5 79.1922C275.5 79.9978 275.035 80.7278 274.312 81.0549L257.937 88.4729C256.385 89.1757 254.615 89.1757 253.063 88.4729L236.688 81.0549C235.965 80.7278 235.5 79.9978 235.5 79.1922C235.5 78.3866 235.965 77.6566 236.688 77.3295L243.826 74.0961L236.688 70.8627C235.965 70.5355 235.5 69.8055 235.5 68.9999C235.5 68.1944 235.965 67.4644 236.688 67.1372L243.826 63.9039L236.688 60.6705C235.965 60.3433 235.5 59.6133 235.5 58.8077C235.5 58.0022 235.965 57.2721 236.688 56.945L253.063 49.5271ZM248.75 66.1346L242.424 68.9999L254.688 74.5551C255.205 74.7893 255.795 74.7893 256.312 74.5551L268.576 68.9999L262.25 66.1346L257.937 68.0884C256.385 68.7912 254.615 68.7912 253.063 68.0884L248.75 66.1346ZM248.75 76.3267L242.424 79.1922L254.688 84.7474C255.205 84.9816 255.795 84.9816 256.312 84.7474L268.576 79.1922L262.25 76.3267L257.937 78.2806C256.385 78.9835 254.615 78.9835 253.063 78.2806L248.75 76.3267ZM256.312 53.2526C255.795 53.0183 255.205 53.0183 254.688 53.2526L242.424 58.8077L254.688 64.3629C255.205 64.5971 255.795 64.5971 256.312 64.3629L268.576 58.8077L256.312 53.2526Z" fill="#CC5229"/>
<path d="M211.057 102.545L215.599 116.284H215.778L220.312 102.545H223.79L217.636 120H213.733L207.588 102.545H211.057ZM228.36 120.264C227.531 120.264 226.783 120.116 226.119 119.821C225.46 119.52 224.937 119.077 224.55 118.491C224.17 117.906 223.979 117.185 223.979 116.327C223.979 115.588 224.116 114.977 224.388 114.494C224.661 114.011 225.033 113.625 225.505 113.335C225.977 113.045 226.508 112.827 227.099 112.679C227.695 112.526 228.312 112.415 228.948 112.347C229.715 112.267 230.337 112.196 230.815 112.134C231.292 112.065 231.638 111.963 231.854 111.827C232.076 111.685 232.187 111.466 232.187 111.17V111.119C232.187 110.477 231.996 109.98 231.616 109.628C231.235 109.276 230.687 109.099 229.971 109.099C229.215 109.099 228.616 109.264 228.173 109.594C227.735 109.923 227.44 110.312 227.286 110.761L224.406 110.352C224.633 109.557 225.008 108.892 225.531 108.358C226.053 107.818 226.692 107.415 227.448 107.148C228.204 106.875 229.039 106.739 229.954 106.739C230.585 106.739 231.212 106.812 231.837 106.96C232.462 107.108 233.033 107.352 233.55 107.693C234.067 108.028 234.482 108.486 234.795 109.065C235.113 109.645 235.272 110.369 235.272 111.239V120H232.306V118.202H232.204C232.016 118.565 231.752 118.906 231.411 119.224C231.076 119.537 230.653 119.79 230.141 119.983C229.636 120.17 229.042 120.264 228.36 120.264ZM229.161 117.997C229.781 117.997 230.317 117.875 230.772 117.631C231.227 117.381 231.576 117.051 231.82 116.642C232.07 116.233 232.195 115.787 232.195 115.304V113.761C232.099 113.841 231.934 113.915 231.701 113.983C231.474 114.051 231.218 114.111 230.934 114.162C230.65 114.213 230.369 114.259 230.09 114.298C229.812 114.338 229.57 114.372 229.366 114.401C228.906 114.463 228.494 114.565 228.13 114.707C227.766 114.849 227.479 115.048 227.269 115.304C227.059 115.554 226.954 115.878 226.954 116.276C226.954 116.844 227.161 117.273 227.576 117.562C227.991 117.852 228.519 117.997 229.161 117.997ZM238.374 120V106.909H241.366V109.091H241.502C241.741 108.335 242.15 107.753 242.729 107.344C243.315 106.929 243.982 106.722 244.732 106.722C244.903 106.722 245.093 106.73 245.303 106.747C245.519 106.759 245.698 106.778 245.84 106.807V109.645C245.71 109.599 245.502 109.56 245.218 109.526C244.94 109.486 244.67 109.466 244.408 109.466C243.846 109.466 243.34 109.588 242.891 109.832C242.448 110.071 242.099 110.403 241.843 110.83C241.587 111.256 241.46 111.747 241.46 112.304V120H238.374ZM247.89 120V106.909H250.975V120H247.89ZM249.441 105.051C248.952 105.051 248.532 104.889 248.18 104.565C247.827 104.236 247.651 103.841 247.651 103.381C247.651 102.915 247.827 102.52 248.18 102.196C248.532 101.866 248.952 101.702 249.441 101.702C249.935 101.702 250.356 101.866 250.702 102.196C251.055 102.52 251.231 102.915 251.231 103.381C251.231 103.841 251.055 104.236 250.702 104.565C250.356 104.889 249.935 105.051 249.441 105.051ZM257.915 120.264C257.085 120.264 256.338 120.116 255.673 119.821C255.014 119.52 254.491 119.077 254.105 118.491C253.724 117.906 253.534 117.185 253.534 116.327C253.534 115.588 253.67 114.977 253.943 114.494C254.216 114.011 254.588 113.625 255.06 113.335C255.531 113.045 256.063 112.827 256.653 112.679C257.25 112.526 257.866 112.415 258.503 112.347C259.27 112.267 259.892 112.196 260.369 112.134C260.847 112.065 261.193 111.963 261.409 111.827C261.631 111.685 261.741 111.466 261.741 111.17V111.119C261.741 110.477 261.551 109.98 261.17 109.628C260.79 109.276 260.241 109.099 259.526 109.099C258.77 109.099 258.17 109.264 257.727 109.594C257.29 109.923 256.994 110.312 256.841 110.761L253.96 110.352C254.188 109.557 254.563 108.892 255.085 108.358C255.608 107.818 256.247 107.415 257.003 107.148C257.759 106.875 258.594 106.739 259.509 106.739C260.139 106.739 260.767 106.812 261.392 106.96C262.017 107.108 262.588 107.352 263.105 107.693C263.622 108.028 264.037 108.486 264.349 109.065C264.668 109.645 264.827 110.369 264.827 111.239V120H261.861V118.202H261.759C261.571 118.565 261.307 118.906 260.966 119.224C260.631 119.537 260.207 119.79 259.696 119.983C259.19 120.17 258.597 120.264 257.915 120.264ZM258.716 117.997C259.335 117.997 259.872 117.875 260.327 117.631C260.781 117.381 261.131 117.051 261.375 116.642C261.625 116.233 261.75 115.787 261.75 115.304V113.761C261.653 113.841 261.489 113.915 261.256 113.983C261.028 114.051 260.773 114.111 260.489 114.162C260.205 114.213 259.923 114.259 259.645 114.298C259.366 114.338 259.125 114.372 258.92 114.401C258.46 114.463 258.048 114.565 257.685 114.707C257.321 114.849 257.034 115.048 256.824 115.304C256.614 115.554 256.509 115.878 256.509 116.276C256.509 116.844 256.716 117.273 257.131 117.562C257.545 117.852 258.074 117.997 258.716 117.997ZM271.014 112.33V120H267.929V106.909H270.878V109.134H271.031C271.332 108.401 271.813 107.818 272.472 107.386C273.136 106.955 273.957 106.739 274.935 106.739C275.838 106.739 276.625 106.932 277.295 107.318C277.972 107.705 278.494 108.264 278.864 108.997C279.239 109.73 279.423 110.619 279.418 111.665V120H276.332V112.142C276.332 111.267 276.105 110.582 275.651 110.088C275.202 109.594 274.58 109.347 273.784 109.347C273.244 109.347 272.764 109.466 272.344 109.705C271.929 109.937 271.602 110.276 271.364 110.719C271.131 111.162 271.014 111.699 271.014 112.33ZM289.091 106.909V109.295H281.565V106.909H289.091ZM283.423 103.773H286.509V116.062C286.509 116.477 286.571 116.795 286.696 117.017C286.827 117.233 286.997 117.381 287.207 117.46C287.418 117.54 287.651 117.58 287.906 117.58C288.099 117.58 288.276 117.565 288.435 117.537C288.599 117.509 288.724 117.483 288.81 117.46L289.33 119.872C289.165 119.929 288.929 119.991 288.622 120.06C288.321 120.128 287.952 120.168 287.514 120.179C286.741 120.202 286.045 120.085 285.426 119.83C284.807 119.568 284.315 119.165 283.952 118.619C283.594 118.074 283.418 117.392 283.423 116.574V103.773ZM301.83 110.369L299.018 110.676C298.938 110.392 298.799 110.125 298.6 109.875C298.407 109.625 298.146 109.423 297.816 109.27C297.487 109.116 297.083 109.04 296.606 109.04C295.964 109.04 295.424 109.179 294.987 109.457C294.555 109.736 294.342 110.097 294.347 110.54C294.342 110.92 294.481 111.23 294.765 111.469C295.055 111.707 295.532 111.903 296.197 112.057L298.43 112.534C299.668 112.801 300.589 113.224 301.191 113.804C301.799 114.384 302.106 115.142 302.112 116.08C302.106 116.903 301.864 117.631 301.387 118.261C300.915 118.886 300.259 119.375 299.418 119.727C298.577 120.08 297.612 120.256 296.521 120.256C294.918 120.256 293.629 119.92 292.651 119.25C291.674 118.574 291.092 117.634 290.904 116.429L293.913 116.139C294.049 116.73 294.339 117.176 294.782 117.477C295.225 117.778 295.802 117.929 296.512 117.929C297.245 117.929 297.833 117.778 298.276 117.477C298.725 117.176 298.95 116.804 298.95 116.361C298.95 115.986 298.805 115.676 298.515 115.432C298.231 115.187 297.788 115 297.185 114.869L294.952 114.401C293.697 114.139 292.768 113.699 292.165 113.08C291.563 112.455 291.265 111.665 291.271 110.71C291.265 109.903 291.484 109.205 291.927 108.614C292.376 108.017 292.998 107.557 293.793 107.233C294.594 106.903 295.518 106.739 296.563 106.739C298.097 106.739 299.305 107.065 300.185 107.719C301.072 108.372 301.62 109.256 301.83 110.369Z" fill="#3F4346"/>
</g>
<g filter="url(#filter2_d_381_238)">
<rect x="21.5" y="193.5" width="100" height="100" rx="16" fill="white" shape-rendering="crispEdges"/>
<rect x="23" y="195" width="97" height="97" rx="14.5" stroke="#212528" stroke-width="3" shape-rendering="crispEdges"/>
<path d="M83.8687 219.729C84.3872 218.71 83.9669 217.471 82.9298 216.961C81.8926 216.452 80.6317 216.865 80.1131 217.884L76.3318 225.315L71.5885 219.489C70.5356 218.195 68.4733 218.41 67.7195 219.891L64.7561 225.715L60.3325 227.164C59.2325 227.524 58.638 228.692 59.0046 229.773C59.3713 230.854 60.5603 231.438 61.6603 231.078L66.8264 229.386C67.4074 229.195 67.8878 228.786 68.1617 228.248L70.1545 224.332L74.8979 230.158C75.9508 231.451 78.0131 231.236 78.7668 229.755L83.8687 219.729Z" fill="#1A73E8"/>
<path fill-rule="evenodd" clip-rule="evenodd" d="M67.302 204.696C69.8998 203.223 73.1002 203.223 75.698 204.696L87.3003 211.276C89.899 212.75 91.5 215.474 91.5 218.422V231.578C91.5 234.526 89.899 237.25 87.3003 238.724L75.698 245.304C73.1002 246.777 69.8998 246.777 67.3019 245.304L55.6998 238.724C53.101 237.25 51.5 234.526 51.5 231.578V218.422C51.5 215.474 53.101 212.75 55.6998 211.276L67.302 204.696ZM73.599 208.269L85.2012 214.849C86.5006 215.586 87.3011 216.948 87.3011 218.422V231.578C87.3011 233.052 86.5006 234.414 85.2012 235.151L73.599 241.731C72.3001 242.468 70.6999 242.468 69.401 241.731L57.7988 235.151C56.4994 234.414 55.6989 233.052 55.6989 231.578V218.422C55.6989 216.948 56.4994 215.586 57.7988 214.849L69.401 208.269C70.6999 207.532 72.3001 207.532 73.599 208.269Z" fill="#1A73E8"/>
<path d="M49.2074 264.753C49.1278 264.009 48.7926 263.429 48.2017 263.014C47.6165 262.599 46.8551 262.392 45.9176 262.392C45.2585 262.392 44.6932 262.492 44.2216 262.69C43.75 262.889 43.3892 263.159 43.1392 263.5C42.8892 263.841 42.7614 264.23 42.7557 264.668C42.7557 265.031 42.8381 265.347 43.0028 265.614C43.1733 265.881 43.4034 266.108 43.6932 266.295C43.983 266.477 44.304 266.631 44.6562 266.756C45.0085 266.881 45.3636 266.986 45.7216 267.071L47.358 267.48C48.017 267.634 48.6506 267.841 49.2585 268.102C49.8722 268.364 50.4205 268.693 50.9034 269.091C51.392 269.489 51.7784 269.969 52.0625 270.531C52.3466 271.094 52.4886 271.753 52.4886 272.509C52.4886 273.531 52.2273 274.432 51.7045 275.21C51.1818 275.983 50.4261 276.588 49.4375 277.026C48.4545 277.457 47.2642 277.673 45.8665 277.673C44.5085 277.673 43.3295 277.463 42.3295 277.043C41.3352 276.622 40.5568 276.009 39.9943 275.202C39.4375 274.395 39.1364 273.412 39.0909 272.253H42.2017C42.2472 272.861 42.4347 273.367 42.7642 273.77C43.0938 274.173 43.5227 274.474 44.0511 274.673C44.5852 274.872 45.1818 274.972 45.8409 274.972C46.5284 274.972 47.1307 274.869 47.6477 274.665C48.1705 274.455 48.5795 274.165 48.875 273.795C49.1705 273.42 49.321 272.983 49.3267 272.483C49.321 272.028 49.1875 271.653 48.9261 271.358C48.6648 271.057 48.2983 270.807 47.8267 270.608C47.3608 270.403 46.8153 270.222 46.1903 270.063L44.2045 269.551C42.767 269.182 41.6307 268.622 40.7955 267.872C39.9659 267.117 39.5511 266.114 39.5511 264.864C39.5511 263.835 39.8295 262.935 40.3864 262.162C40.9489 261.389 41.7131 260.79 42.679 260.364C43.6449 259.932 44.7386 259.716 45.9602 259.716C47.1989 259.716 48.2841 259.932 49.2159 260.364C50.1534 260.79 50.8892 261.384 51.4233 262.145C51.9574 262.901 52.233 263.77 52.25 264.753H49.2074ZM61.7081 264.318V266.705H54.1825V264.318H61.7081ZM56.0405 261.182H59.1257V273.472C59.1257 273.886 59.1882 274.205 59.3132 274.426C59.4439 274.642 59.6143 274.79 59.8246 274.869C60.0348 274.949 60.2678 274.989 60.5234 274.989C60.7166 274.989 60.8928 274.974 61.0518 274.946C61.2166 274.918 61.3416 274.892 61.4268 274.869L61.9467 277.281C61.782 277.338 61.5462 277.401 61.2393 277.469C60.9382 277.537 60.5689 277.577 60.1314 277.588C59.3587 277.611 58.6626 277.494 58.0433 277.239C57.424 276.977 56.9325 276.574 56.5689 276.028C56.2109 275.483 56.0348 274.801 56.0405 273.983V261.182ZM69.858 277.665C68.5795 277.665 67.4716 277.384 66.5341 276.821C65.5966 276.259 64.8693 275.472 64.3523 274.46C63.8409 273.449 63.5852 272.267 63.5852 270.915C63.5852 269.563 63.8409 268.378 64.3523 267.361C64.8693 266.344 65.5966 265.554 66.5341 264.992C67.4716 264.429 68.5795 264.148 69.858 264.148C71.1364 264.148 72.2443 264.429 73.1818 264.992C74.1193 265.554 74.8438 266.344 75.3551 267.361C75.8722 268.378 76.1307 269.563 76.1307 270.915C76.1307 272.267 75.8722 273.449 75.3551 274.46C74.8438 275.472 74.1193 276.259 73.1818 276.821C72.2443 277.384 71.1364 277.665 69.858 277.665ZM69.875 275.193C70.5682 275.193 71.1477 275.003 71.6136 274.622C72.0795 274.236 72.4261 273.719 72.6534 273.071C72.8864 272.423 73.0028 271.702 73.0028 270.906C73.0028 270.105 72.8864 269.381 72.6534 268.733C72.4261 268.08 72.0795 267.56 71.6136 267.173C71.1477 266.787 70.5682 266.594 69.875 266.594C69.1648 266.594 68.5739 266.787 68.1023 267.173C67.6364 267.56 67.2869 268.08 67.054 268.733C66.8267 269.381 66.7131 270.105 66.7131 270.906C66.7131 271.702 66.8267 272.423 67.054 273.071C67.2869 273.719 67.6364 274.236 68.1023 274.622C68.5739 275.003 69.1648 275.193 69.875 275.193ZM84.4595 277.665C83.1527 277.665 82.0305 277.378 81.093 276.804C80.1612 276.23 79.4425 275.438 78.9368 274.426C78.4368 273.409 78.1868 272.239 78.1868 270.915C78.1868 269.585 78.4425 268.412 78.9538 267.395C79.4652 266.372 80.1868 265.577 81.1186 265.009C82.0561 264.435 83.1641 264.148 84.4425 264.148C85.505 264.148 86.4453 264.344 87.2635 264.736C88.0874 265.122 88.7436 265.67 89.2322 266.381C89.7209 267.085 89.9993 267.909 90.0675 268.852H87.1186C86.9993 268.222 86.7152 267.696 86.2663 267.276C85.8232 266.849 85.2294 266.636 84.4851 266.636C83.8544 266.636 83.3004 266.807 82.8232 267.148C82.3459 267.483 81.9737 267.966 81.7067 268.597C81.4453 269.227 81.3146 269.983 81.3146 270.864C81.3146 271.756 81.4453 272.523 81.7067 273.165C81.968 273.801 82.3345 274.293 82.8061 274.639C83.2834 274.98 83.843 275.151 84.4851 275.151C84.9396 275.151 85.3459 275.065 85.7038 274.895C86.0675 274.719 86.3714 274.466 86.6158 274.136C86.8601 273.807 87.0277 273.406 87.1186 272.935H90.0675C89.9936 273.861 89.7209 274.682 89.2493 275.398C88.7777 276.108 88.1357 276.665 87.3232 277.068C86.5107 277.466 85.5561 277.665 84.4595 277.665ZM95.4134 273.301L95.4048 269.577H95.8991L100.604 264.318H104.209L98.4219 270.761H97.7827L95.4134 273.301ZM92.6009 277.409V259.955H95.6861V277.409H92.6009ZM100.817 277.409L96.5554 271.452L98.6349 269.278L104.507 277.409H100.817Z" fill="#3F4346"/>
</g>
<path fill-rule="evenodd" clip-rule="evenodd" d="M94.9863 72.9415L50.7904 88.4109L42.4777 64.3987L86.6274 48.9293L94.9863 72.9415Z" fill="#0080FF"/>
<path fill-rule="evenodd" clip-rule="evenodd" d="M65.8483 126.369C66.1716 128.493 66.1254 130.663 65.6636 132.741L121.128 113.347L119.188 107.713L65.8483 126.369Z" fill="#0080FF"/>
<path fill-rule="evenodd" clip-rule="evenodd" d="M43.2174 114.316C35.3204 116.995 31.1179 125.583 33.8426 133.48C36.5211 141.376 45.1109 145.578 53.008 142.9C60.8588 140.175 65.1075 131.633 62.3828 123.736C62.3828 123.69 62.3828 123.644 62.3828 123.644C59.7505 115.794 51.2531 111.592 43.4484 114.224C43.4022 114.27 43.3098 114.27 43.2174 114.316ZM50.976 136.25C46.8196 137.682 42.2938 135.558 40.8622 131.402C39.3844 127.292 41.5549 122.767 45.7113 121.335C49.8214 119.857 54.3472 122.028 55.7789 126.138C57.1181 130.247 54.9938 134.727 50.976 136.25Z" fill="#0080FF"/>
<path fill-rule="evenodd" clip-rule="evenodd" d="M110.861 76.0814L119.543 100.925L65.8337 119.765C64.5406 117.272 62.7395 115.101 60.6151 113.346L54.6115 95.8915L110.861 76.0814ZM112.015 73.5417L51.933 94.5062L58.8602 114.316C61.4926 116.256 63.4784 118.888 64.6791 121.889L121.898 101.895L112.015 73.5417Z" fill="#0080FF"/>
<path fill-rule="evenodd" clip-rule="evenodd" d="M52.9162 111.222L23.3137 26.3948L23.4985 22.1003L0.730908 21.5L0.5 31.6128L17.9105 32.2131L45.3424 110.992L52.9162 111.222Z" fill="#0080FF"/>
<defs>
<filter id="filter0_d_381_238" x="173.5" y="187.5" width="104" height="104" filterUnits="userSpaceOnUse" color-interpolation-filters="sRGB">
<feFlood flood-opacity="0" result="BackgroundImageFix"/>
<feColorMatrix in="SourceAlpha" type="matrix" values="0 0 0 0 0 0 0 0 0 0 0 0 0 0 0 0 0 0 127 0" result="hardAlpha"/>
<feOffset dx="4" dy="4"/>
<feComposite in2="hardAlpha" operator="out"/>
<feColorMatrix type="matrix" values="0 0 0 0 0.67451 0 0 0 0 0.933333 0 0 0 0 0.666667 0 0 0 1 0"/>
<feBlend mode="normal" in2="BackgroundImageFix" result="effect1_dropShadow_381_238"/>
<feBlend mode="normal" in="SourceGraphic" in2="effect1_dropShadow_381_238" result="shape"/>
</filter>
<filter id="filter1_d_381_238" x="173.5" y="37.5" width="168" height="104" filterUnits="userSpaceOnUse" color-interpolation-filters="sRGB">
<feFlood flood-opacity="0" result="BackgroundImageFix"/>
<feColorMatrix in="SourceAlpha" type="matrix" values="0 0 0 0 0 0 0 0 0 0 0 0 0 0 0 0 0 0 127 0" result="hardAlpha"/>
<feOffset dx="4" dy="4"/>
<feComposite in2="hardAlpha" operator="out"/>
<feColorMatrix type="matrix" values="0 0 0 0 0.932432 0 0 0 0 0.778811 0 0 0 0 0.667568 0 0 0 1 0"/>
<feBlend mode="normal" in2="BackgroundImageFix" result="effect1_dropShadow_381_238"/>
<feBlend mode="normal" in="SourceGraphic" in2="effect1_dropShadow_381_238" result="shape"/>
</filter>
<filter id="filter2_d_381_238" x="21.5" y="193.5" width="104" height="104" filterUnits="userSpaceOnUse" color-interpolation-filters="sRGB">
<feFlood flood-opacity="0" result="BackgroundImageFix"/>
<feColorMatrix in="SourceAlpha" type="matrix" values="0 0 0 0 0 0 0 0 0 0 0 0 0 0 0 0 0 0 127 0" result="hardAlpha"/>
<feOffset dx="4" dy="4"/>
<feComposite in2="hardAlpha" operator="out"/>
<feColorMatrix type="matrix" values="0 0 0 0 0.6 0 0 0 0 0.781961 0 0 0 0 1 0 0 0 1 0"/>
<feBlend mode="normal" in2="BackgroundImageFix" result="effect1_dropShadow_381_238"/>
<feBlend mode="normal" in="SourceGraphic" in2="effect1_dropShadow_381_238" result="shape"/>
</filter>
</defs>
</svg>
