<svg width="288" height="373" viewBox="0 0 288 373" fill="none" xmlns="http://www.w3.org/2000/svg">
<g filter="url(#filter0_d_380_727)">
<rect x="-3.05176e-05" y="73.5874" width="103.16" height="103.16" rx="11.0037" fill="white" shape-rendering="crispEdges"/>
<rect x="1.49997" y="75.0874" width="100.16" height="100.16" rx="9.50372" stroke="#212528" stroke-width="3" shape-rendering="crispEdges"/>
<path d="M59.6034 106.312V93.4741H43.5563V99.893H37.1375V122.359H49.9752V115.94H53.1846V122.359H66.0222V106.312H59.6034ZM43.5563 119.149H40.3469V115.94H43.5563V119.149ZM43.5563 112.731H40.3469V109.521H43.5563V112.731ZM43.5563 106.312H40.3469V103.102H43.5563V106.312ZM49.9752 112.731H46.7657V109.521H49.9752V112.731ZM49.9752 106.312H46.7657V103.102H49.9752V106.312ZM49.9752 99.893H46.7657V96.6835H49.9752V99.893ZM56.394 112.731H53.1846V109.521H56.394V112.731ZM56.394 106.312H53.1846V103.102H56.394V106.312ZM56.394 99.893H53.1846V96.6835H56.394V99.893ZM62.8128 119.149H59.6034V115.94H62.8128V119.149ZM62.8128 112.731H59.6034V109.521H62.8128V112.731Z" fill="#F2800D"/>
<path d="M11.8015 155.675V138.22H18.4833C19.7447 138.22 20.793 138.419 21.6282 138.817C22.4691 139.209 23.0969 139.746 23.5117 140.428C23.9322 141.109 24.1424 141.882 24.1424 142.746C24.1424 143.456 24.006 144.064 23.7333 144.57C23.4606 145.07 23.0941 145.476 22.6339 145.788C22.1736 146.101 21.6594 146.325 21.0913 146.462V146.632C21.7106 146.666 22.3043 146.857 22.8725 147.203C23.4464 147.544 23.9151 148.027 24.2788 148.652C24.6424 149.277 24.8242 150.033 24.8242 150.919C24.8242 151.823 24.6055 152.635 24.168 153.357C23.7305 154.073 23.0714 154.638 22.1907 155.053C21.31 155.467 20.2021 155.675 18.8668 155.675H11.8015ZM14.9634 153.033H18.364C19.5117 153.033 20.3384 152.814 20.8441 152.377C21.3555 151.933 21.6111 151.365 21.6111 150.672C21.6111 150.155 21.4833 149.689 21.2276 149.274C20.9719 148.854 20.6083 148.524 20.1367 148.286C19.6651 148.041 19.1026 147.919 18.4492 147.919H14.9634V153.033ZM14.9634 145.644H18.0913C18.6367 145.644 19.1282 145.544 19.5657 145.345C20.0032 145.141 20.3469 144.854 20.5969 144.484C20.8526 144.109 20.9805 143.666 20.9805 143.155C20.9805 142.479 20.7418 141.922 20.2646 141.484C19.793 141.047 19.0913 140.828 18.1594 140.828H14.9634V145.644ZM27.4386 155.675V142.584H30.43V144.766H30.5664C30.805 144.01 31.2141 143.428 31.7937 143.019C32.3789 142.604 33.0465 142.396 33.7965 142.396C33.967 142.396 34.1573 142.405 34.3675 142.422C34.5834 142.433 34.7624 142.453 34.9045 142.482V145.32C34.7738 145.274 34.5664 145.234 34.2823 145.2C34.0039 145.161 33.734 145.141 33.4727 145.141C32.9102 145.141 32.4045 145.263 31.9556 145.507C31.5124 145.746 31.163 146.078 30.9073 146.504C30.6516 146.93 30.5238 147.422 30.5238 147.979V155.675H27.4386ZM40.4869 155.939C39.6573 155.939 38.9102 155.791 38.2454 155.496C37.5863 155.195 37.0636 154.752 36.6772 154.166C36.2965 153.581 36.1062 152.859 36.1062 152.002C36.1062 151.263 36.2425 150.652 36.5153 150.169C36.788 149.686 37.1602 149.3 37.6317 149.01C38.1033 148.72 38.6346 148.502 39.2255 148.354C39.8221 148.2 40.4386 148.09 41.0749 148.021C41.842 147.942 42.4641 147.871 42.9414 147.808C43.4187 147.74 43.7653 147.638 43.9812 147.502C44.2028 147.359 44.3136 147.141 44.3136 146.845V146.794C44.3136 146.152 44.1232 145.655 43.7425 145.303C43.3619 144.95 42.8136 144.774 42.0977 144.774C41.342 144.774 40.7425 144.939 40.2994 145.269C39.8619 145.598 39.5664 145.987 39.413 146.436L36.5323 146.027C36.7596 145.232 37.1346 144.567 37.6573 144.033C38.18 143.493 38.8192 143.09 39.5749 142.823C40.3306 142.55 41.1658 142.413 42.0806 142.413C42.7113 142.413 43.3391 142.487 43.9641 142.635C44.5891 142.783 45.1602 143.027 45.6772 143.368C46.1942 143.703 46.609 144.161 46.9215 144.74C47.2397 145.32 47.3988 146.044 47.3988 146.913V155.675H44.4329V153.877H44.3306C44.1431 154.24 43.8789 154.581 43.538 154.899C43.2028 155.212 42.7795 155.465 42.2681 155.658C41.7624 155.845 41.1687 155.939 40.4869 155.939ZM41.288 153.672C41.9073 153.672 42.4442 153.55 42.8988 153.305C43.3533 153.055 43.7028 152.726 43.9471 152.317C44.1971 151.908 44.3221 151.462 44.3221 150.979V149.436C44.2255 149.516 44.0607 149.59 43.8278 149.658C43.6005 149.726 43.3448 149.786 43.0607 149.837C42.7766 149.888 42.4954 149.933 42.217 149.973C41.9386 150.013 41.6971 150.047 41.4925 150.075C41.0323 150.138 40.6204 150.24 40.2567 150.382C39.8931 150.524 39.6062 150.723 39.3959 150.979C39.1857 151.229 39.0806 151.553 39.0806 151.95C39.0806 152.519 39.288 152.948 39.7028 153.237C40.1175 153.527 40.6459 153.672 41.288 153.672ZM53.5863 148.004V155.675H50.5011V142.584H53.4499V144.808H53.6033C53.9045 144.075 54.3846 143.493 55.0437 143.061C55.7084 142.629 56.5295 142.413 57.5067 142.413C58.4102 142.413 59.1971 142.607 59.8675 142.993C60.5437 143.379 61.0664 143.939 61.4357 144.672C61.8107 145.405 61.9954 146.294 61.9897 147.34V155.675H58.9045V147.817C58.9045 146.942 58.6772 146.257 58.2227 145.763C57.7738 145.269 57.1516 145.021 56.3562 145.021C55.8164 145.021 55.3363 145.141 54.9158 145.379C54.5011 145.612 54.1744 145.95 53.9357 146.394C53.7028 146.837 53.5863 147.374 53.5863 148.004ZM70.8363 155.93C69.5295 155.93 68.4073 155.644 67.4698 155.07C66.538 154.496 65.8192 153.703 65.3136 152.692C64.8136 151.675 64.5636 150.504 64.5636 149.18C64.5636 147.851 64.8192 146.678 65.3306 145.661C65.842 144.638 66.5636 143.842 67.4954 143.274C68.4329 142.7 69.5408 142.413 70.8192 142.413C71.8817 142.413 72.8221 142.609 73.6403 143.002C74.4641 143.388 75.1204 143.936 75.609 144.646C76.0977 145.351 76.3761 146.175 76.4442 147.118H73.4954C73.3761 146.487 73.092 145.962 72.6431 145.541C72.1999 145.115 71.6062 144.902 70.8619 144.902C70.2312 144.902 69.6772 145.073 69.1999 145.413C68.7227 145.749 68.3505 146.232 68.0834 146.862C67.8221 147.493 67.6914 148.249 67.6914 149.129C67.6914 150.021 67.8221 150.788 68.0834 151.43C68.3448 152.067 68.7113 152.558 69.1829 152.905C69.6602 153.246 70.2198 153.416 70.8619 153.416C71.3164 153.416 71.7227 153.331 72.0806 153.161C72.4442 152.984 72.7482 152.732 72.9925 152.402C73.2369 152.073 73.4045 151.672 73.4954 151.2H76.4442C76.3704 152.127 76.0977 152.948 75.6261 153.663C75.1545 154.374 74.5124 154.93 73.6999 155.334C72.8874 155.732 71.9329 155.93 70.8363 155.93ZM82.0628 148.004V155.675H78.9776V138.22H81.9947V144.808H82.1481C82.4549 144.07 82.9293 143.487 83.5714 143.061C84.2191 142.629 85.043 142.413 86.043 142.413C86.9521 142.413 87.7447 142.604 88.4208 142.984C89.0969 143.365 89.6197 143.922 89.989 144.655C90.364 145.388 90.5515 146.283 90.5515 147.34V155.675H87.4663V147.817C87.4663 146.936 87.239 146.252 86.7844 145.763C86.3356 145.269 85.7049 145.021 84.8924 145.021C84.3469 145.021 83.8583 145.141 83.4265 145.379C83.0003 145.612 82.6651 145.95 82.4208 146.394C82.1822 146.837 82.0628 147.374 82.0628 148.004Z" fill="#212528"/>
</g>
<g filter="url(#filter1_d_380_727)">
<rect x="-3.05176e-05" y="193.253" width="103.16" height="103.16" rx="11.0037" fill="white" shape-rendering="crispEdges"/>
<rect x="1.49997" y="194.753" width="100.16" height="100.16" rx="9.50372" stroke="#212528" stroke-width="3" shape-rendering="crispEdges"/>
<path d="M59.6034 225.977V213.14H43.5563V219.558H37.1375V242.024H49.9752V235.606H53.1846V242.024H66.0222V225.977H59.6034ZM43.5563 238.815H40.3469V235.606H43.5563V238.815ZM43.5563 232.396H40.3469V229.187H43.5563V232.396ZM43.5563 225.977H40.3469V222.768H43.5563V225.977ZM49.9752 232.396H46.7657V229.187H49.9752V232.396ZM49.9752 225.977H46.7657V222.768H49.9752V225.977ZM49.9752 219.558H46.7657V216.349H49.9752V219.558ZM56.394 232.396H53.1846V229.187H56.394V232.396ZM56.394 225.977H53.1846V222.768H56.394V225.977ZM56.394 219.558H53.1846V216.349H56.394V219.558ZM62.8128 238.815H59.6034V235.606H62.8128V238.815ZM62.8128 232.396H59.6034V229.187H62.8128V232.396Z" fill="#0080FF"/>
<path d="M11.8015 275.34V257.886H18.4833C19.7447 257.886 20.793 258.085 21.6282 258.482C22.4691 258.874 23.0969 259.411 23.5117 260.093C23.9322 260.775 24.1424 261.548 24.1424 262.411C24.1424 263.122 24.006 263.73 23.7333 264.235C23.4606 264.735 23.0941 265.141 22.6339 265.454C22.1736 265.766 21.6594 265.991 21.0913 266.127V266.298C21.7106 266.332 22.3043 266.522 22.8725 266.869C23.4464 267.21 23.9151 267.693 24.2788 268.318C24.6424 268.943 24.8242 269.698 24.8242 270.585C24.8242 271.488 24.6055 272.301 24.168 273.022C23.7305 273.738 23.0714 274.303 22.1907 274.718C21.31 275.133 20.2021 275.34 18.8668 275.34H11.8015ZM14.9634 272.698H18.364C19.5117 272.698 20.3384 272.48 20.8441 272.042C21.3555 271.599 21.6111 271.031 21.6111 270.337C21.6111 269.82 21.4833 269.355 21.2276 268.94C20.9719 268.519 20.6083 268.19 20.1367 267.951C19.6651 267.707 19.1026 267.585 18.4492 267.585H14.9634V272.698ZM14.9634 265.309H18.0913C18.6367 265.309 19.1282 265.21 19.5657 265.011C20.0032 264.806 20.3469 264.519 20.5969 264.15C20.8526 263.775 20.9805 263.332 20.9805 262.82C20.9805 262.144 20.7418 261.587 20.2646 261.15C19.793 260.712 19.0913 260.494 18.1594 260.494H14.9634V265.309ZM27.4386 275.34V262.249H30.43V264.431H30.5664C30.805 263.676 31.2141 263.093 31.7937 262.684C32.3789 262.269 33.0465 262.062 33.7965 262.062C33.967 262.062 34.1573 262.07 34.3675 262.087C34.5834 262.099 34.7624 262.119 34.9045 262.147V264.985C34.7738 264.94 34.5664 264.9 34.2823 264.866C34.0039 264.826 33.734 264.806 33.4727 264.806C32.9102 264.806 32.4045 264.928 31.9556 265.173C31.5124 265.411 31.163 265.744 30.9073 266.17C30.6516 266.596 30.5238 267.087 30.5238 267.644V275.34H27.4386ZM40.4869 275.605C39.6573 275.605 38.9102 275.457 38.2454 275.161C37.5863 274.86 37.0636 274.417 36.6772 273.832C36.2965 273.247 36.1062 272.525 36.1062 271.667C36.1062 270.928 36.2425 270.318 36.5153 269.835C36.788 269.352 37.1602 268.965 37.6317 268.676C38.1033 268.386 38.6346 268.167 39.2255 268.019C39.8221 267.866 40.4386 267.755 41.0749 267.687C41.842 267.607 42.4641 267.536 42.9414 267.474C43.4187 267.406 43.7653 267.303 43.9812 267.167C44.2028 267.025 44.3136 266.806 44.3136 266.511V266.46C44.3136 265.818 44.1232 265.32 43.7425 264.968C43.3619 264.616 42.8136 264.44 42.0977 264.44C41.342 264.44 40.7425 264.605 40.2994 264.934C39.8619 265.264 39.5664 265.653 39.413 266.102L36.5323 265.693C36.7596 264.897 37.1346 264.232 37.6573 263.698C38.18 263.159 38.8192 262.755 39.5749 262.488C40.3306 262.215 41.1658 262.079 42.0806 262.079C42.7113 262.079 43.3391 262.153 43.9641 262.301C44.5891 262.448 45.1602 262.693 45.6772 263.034C46.1942 263.369 46.609 263.826 46.9215 264.406C47.2397 264.985 47.3988 265.71 47.3988 266.579V275.34H44.4329V273.542H44.3306C44.1431 273.906 43.8789 274.247 43.538 274.565C43.2028 274.877 42.7795 275.13 42.2681 275.323C41.7624 275.511 41.1687 275.605 40.4869 275.605ZM41.288 273.337C41.9073 273.337 42.4442 273.215 42.8988 272.971C43.3533 272.721 43.7028 272.391 43.9471 271.982C44.1971 271.573 44.3221 271.127 44.3221 270.644V269.102C44.2255 269.181 44.0607 269.255 43.8278 269.323C43.6005 269.391 43.3448 269.451 43.0607 269.502C42.7766 269.553 42.4954 269.599 42.217 269.639C41.9386 269.678 41.6971 269.712 41.4925 269.741C41.0323 269.803 40.6204 269.906 40.2567 270.048C39.8931 270.19 39.6062 270.389 39.3959 270.644C39.1857 270.894 39.0806 271.218 39.0806 271.616C39.0806 272.184 39.288 272.613 39.7028 272.903C40.1175 273.193 40.6459 273.337 41.288 273.337ZM53.5863 267.67V275.34H50.5011V262.249H53.4499V264.474H53.6033C53.9045 263.741 54.3846 263.159 55.0437 262.727C55.7084 262.295 56.5295 262.079 57.5067 262.079C58.4102 262.079 59.1971 262.272 59.8675 262.659C60.5437 263.045 61.0664 263.605 61.4357 264.337C61.8107 265.07 61.9954 265.96 61.9897 267.005V275.34H58.9045V267.482C58.9045 266.607 58.6772 265.923 58.2227 265.428C57.7738 264.934 57.1516 264.687 56.3562 264.687C55.8164 264.687 55.3363 264.806 54.9158 265.045C54.5011 265.278 54.1744 265.616 53.9357 266.059C53.7028 266.502 53.5863 267.039 53.5863 267.67ZM70.8363 275.596C69.5295 275.596 68.4073 275.309 67.4698 274.735C66.538 274.161 65.8192 273.369 65.3136 272.357C64.8136 271.34 64.5636 270.17 64.5636 268.846C64.5636 267.516 64.8192 266.343 65.3306 265.326C65.842 264.303 66.5636 263.508 67.4954 262.94C68.4329 262.366 69.5408 262.079 70.8192 262.079C71.8817 262.079 72.8221 262.275 73.6403 262.667C74.4641 263.053 75.1204 263.602 75.609 264.312C76.0977 265.016 76.3761 265.84 76.4442 266.784H73.4954C73.3761 266.153 73.092 265.627 72.6431 265.207C72.1999 264.781 71.6062 264.568 70.8619 264.568C70.2312 264.568 69.6772 264.738 69.1999 265.079C68.7227 265.414 68.3505 265.897 68.0834 266.528C67.8221 267.159 67.6914 267.914 67.6914 268.795C67.6914 269.687 67.8221 270.454 68.0834 271.096C68.3448 271.732 68.7113 272.224 69.1829 272.57C69.6602 272.911 70.2198 273.082 70.8619 273.082C71.3164 273.082 71.7227 272.997 72.0806 272.826C72.4442 272.65 72.7482 272.397 72.9925 272.068C73.2369 271.738 73.4045 271.337 73.4954 270.866H76.4442C76.3704 271.792 76.0977 272.613 75.6261 273.329C75.1545 274.039 74.5124 274.596 73.6999 274.999C72.8874 275.397 71.9329 275.596 70.8363 275.596ZM82.0628 267.67V275.34H78.9776V257.886H81.9947V264.474H82.1481C82.4549 263.735 82.9293 263.153 83.5714 262.727C84.2191 262.295 85.043 262.079 86.043 262.079C86.9521 262.079 87.7447 262.269 88.4208 262.65C89.0969 263.031 89.6197 263.587 89.989 264.32C90.364 265.053 90.5515 265.948 90.5515 267.005V275.34H87.4663V267.482C87.4663 266.602 87.239 265.917 86.7844 265.428C86.3356 264.934 85.7049 264.687 84.8924 264.687C84.3469 264.687 83.8583 264.806 83.4265 265.045C83.0003 265.278 82.6651 265.616 82.4208 266.059C82.1822 266.502 82.0628 267.039 82.0628 267.67Z" fill="#212528"/>
</g>
<g filter="url(#filter2_d_380_727)">
<rect x="119.665" y="119.666" width="165.16" height="103.16" rx="11.0037" fill="white" shape-rendering="crispEdges"/>
<rect x="121.165" y="121.166" width="162.16" height="100.16" rx="9.50372" stroke="#212528" stroke-width="3" shape-rendering="crispEdges"/>
<path d="M215.083 148.137V165.228H211.874V152.39H192.617V165.228H189.408V148.137L202.245 143.002L215.083 148.137ZM218.293 168.437V145.971L202.245 139.552L186.198 145.971V168.437H195.827V155.599H208.664V168.437H218.293ZM200.641 165.228H197.431V168.437H200.641V165.228ZM203.85 160.413H200.641V163.623H203.85V160.413ZM207.06 165.228H203.85V168.437H207.06V165.228Z" fill="#0080FF"/>
<path d="M141.64 201.753L136.714 184.298H140.115L143.26 197.125H143.422L146.78 184.298H149.873L153.24 197.134H153.393L156.538 184.298H159.939L155.013 201.753H151.893L148.399 189.506H148.263L144.76 201.753H141.64ZM164.426 202.017C163.596 202.017 162.849 201.869 162.184 201.574C161.525 201.273 161.003 200.83 160.616 200.244C160.236 199.659 160.045 198.938 160.045 198.08C160.045 197.341 160.182 196.73 160.454 196.247C160.727 195.764 161.099 195.378 161.571 195.088C162.042 194.798 162.574 194.58 163.165 194.432C163.761 194.278 164.378 194.168 165.014 194.1C165.781 194.02 166.403 193.949 166.88 193.886C167.358 193.818 167.704 193.716 167.92 193.58C168.142 193.438 168.253 193.219 168.253 192.923V192.872C168.253 192.23 168.062 191.733 167.682 191.381C167.301 191.028 166.753 190.852 166.037 190.852C165.281 190.852 164.682 191.017 164.238 191.347C163.801 191.676 163.505 192.065 163.352 192.514L160.471 192.105C160.699 191.31 161.074 190.645 161.596 190.111C162.119 189.571 162.758 189.168 163.514 188.901C164.27 188.628 165.105 188.492 166.02 188.492C166.65 188.492 167.278 188.565 167.903 188.713C168.528 188.861 169.099 189.105 169.616 189.446C170.133 189.781 170.548 190.239 170.861 190.818C171.179 191.398 171.338 192.122 171.338 192.992V201.753H168.372V199.955H168.27C168.082 200.318 167.818 200.659 167.477 200.977C167.142 201.29 166.718 201.543 166.207 201.736C165.701 201.923 165.108 202.017 164.426 202.017ZM165.227 199.75C165.846 199.75 166.383 199.628 166.838 199.384C167.292 199.134 167.642 198.804 167.886 198.395C168.136 197.986 168.261 197.54 168.261 197.057V195.514C168.165 195.594 168 195.668 167.767 195.736C167.54 195.804 167.284 195.864 167 195.915C166.716 195.966 166.434 196.011 166.156 196.051C165.878 196.091 165.636 196.125 165.432 196.153C164.971 196.216 164.559 196.318 164.196 196.46C163.832 196.602 163.545 196.801 163.335 197.057C163.125 197.307 163.02 197.631 163.02 198.028C163.02 198.597 163.227 199.026 163.642 199.315C164.057 199.605 164.585 199.75 165.227 199.75ZM174.44 201.753V188.662H177.432V190.844H177.568C177.807 190.088 178.216 189.506 178.795 189.097C179.38 188.682 180.048 188.475 180.798 188.475C180.968 188.475 181.159 188.483 181.369 188.5C181.585 188.511 181.764 188.531 181.906 188.56V191.398C181.775 191.352 181.568 191.313 181.284 191.278C181.005 191.239 180.736 191.219 180.474 191.219C179.912 191.219 179.406 191.341 178.957 191.585C178.514 191.824 178.165 192.156 177.909 192.582C177.653 193.009 177.525 193.5 177.525 194.057V201.753H174.44ZM189.212 202.009C187.9 202.009 186.766 201.736 185.812 201.19C184.863 200.639 184.133 199.861 183.621 198.855C183.11 197.844 182.854 196.653 182.854 195.284C182.854 193.938 183.11 192.756 183.621 191.739C184.138 190.716 184.86 189.921 185.786 189.352C186.712 188.778 187.8 188.492 189.05 188.492C189.857 188.492 190.618 188.622 191.334 188.884C192.056 189.139 192.692 189.537 193.243 190.077C193.8 190.617 194.238 191.304 194.556 192.139C194.874 192.969 195.033 193.957 195.033 195.105V196.051H184.303V193.972H192.076C192.07 193.381 191.942 192.855 191.692 192.395C191.442 191.929 191.093 191.563 190.644 191.296C190.201 191.028 189.684 190.895 189.093 190.895C188.462 190.895 187.908 191.048 187.431 191.355C186.954 191.656 186.581 192.054 186.314 192.548C186.053 193.037 185.919 193.574 185.914 194.159V195.975C185.914 196.736 186.053 197.389 186.331 197.935C186.61 198.475 186.999 198.889 187.499 199.179C187.999 199.463 188.584 199.605 189.255 199.605C189.704 199.605 190.11 199.543 190.473 199.418C190.837 199.287 191.152 199.097 191.419 198.847C191.687 198.597 191.888 198.287 192.025 197.918L194.905 198.242C194.723 199.003 194.377 199.668 193.865 200.236C193.36 200.798 192.712 201.236 191.922 201.548C191.133 201.855 190.229 202.009 189.212 202.009ZM200.728 194.082V201.753H197.643V184.298H200.66V190.886H200.814C201.12 190.148 201.595 189.565 202.237 189.139C202.885 188.707 203.709 188.492 204.709 188.492C205.618 188.492 206.41 188.682 207.086 189.063C207.763 189.443 208.285 190 208.655 190.733C209.03 191.466 209.217 192.361 209.217 193.418V201.753H206.132V193.895C206.132 193.014 205.905 192.33 205.45 191.841C205.001 191.347 204.37 191.1 203.558 191.1C203.013 191.1 202.524 191.219 202.092 191.457C201.666 191.69 201.331 192.028 201.086 192.472C200.848 192.915 200.728 193.452 200.728 194.082ZM218.072 202.009C216.794 202.009 215.686 201.727 214.748 201.165C213.811 200.602 213.084 199.815 212.566 198.804C212.055 197.793 211.799 196.611 211.799 195.259C211.799 193.906 212.055 192.722 212.566 191.705C213.084 190.688 213.811 189.898 214.748 189.335C215.686 188.773 216.794 188.492 218.072 188.492C219.351 188.492 220.459 188.773 221.396 189.335C222.334 189.898 223.058 190.688 223.569 191.705C224.086 192.722 224.345 193.906 224.345 195.259C224.345 196.611 224.086 197.793 223.569 198.804C223.058 199.815 222.334 200.602 221.396 201.165C220.459 201.727 219.351 202.009 218.072 202.009ZM218.089 199.537C218.782 199.537 219.362 199.347 219.828 198.966C220.294 198.58 220.64 198.063 220.868 197.415C221.101 196.767 221.217 196.046 221.217 195.25C221.217 194.449 221.101 193.725 220.868 193.077C220.64 192.423 220.294 191.903 219.828 191.517C219.362 191.131 218.782 190.938 218.089 190.938C217.379 190.938 216.788 191.131 216.316 191.517C215.851 191.903 215.501 192.423 215.268 193.077C215.041 193.725 214.927 194.449 214.927 195.25C214.927 196.046 215.041 196.767 215.268 197.415C215.501 198.063 215.851 198.58 216.316 198.966C216.788 199.347 217.379 199.537 218.089 199.537ZM235.307 196.247V188.662H238.392V201.753H235.401V199.426H235.265C234.969 200.159 234.483 200.759 233.807 201.225C233.137 201.69 232.31 201.923 231.327 201.923C230.469 201.923 229.711 201.733 229.052 201.352C228.398 200.966 227.887 200.406 227.517 199.673C227.148 198.935 226.964 198.043 226.964 196.997V188.662H230.049V196.52C230.049 197.35 230.276 198.009 230.731 198.497C231.185 198.986 231.782 199.23 232.52 199.23C232.975 199.23 233.415 199.119 233.841 198.898C234.267 198.676 234.617 198.347 234.89 197.909C235.168 197.466 235.307 196.912 235.307 196.247ZM251.912 192.122L249.099 192.429C249.02 192.145 248.88 191.878 248.682 191.628C248.488 191.378 248.227 191.176 247.897 191.023C247.568 190.869 247.165 190.793 246.687 190.793C246.045 190.793 245.505 190.932 245.068 191.21C244.636 191.489 244.423 191.85 244.429 192.293C244.423 192.673 244.562 192.983 244.846 193.222C245.136 193.46 245.613 193.656 246.278 193.81L248.511 194.287C249.75 194.554 250.67 194.977 251.272 195.557C251.88 196.136 252.187 196.895 252.193 197.832C252.187 198.656 251.946 199.384 251.468 200.014C250.997 200.639 250.341 201.128 249.5 201.48C248.659 201.832 247.693 202.009 246.602 202.009C245 202.009 243.71 201.673 242.733 201.003C241.755 200.327 241.173 199.386 240.986 198.182L243.994 197.892C244.13 198.483 244.42 198.929 244.863 199.23C245.307 199.531 245.883 199.682 246.593 199.682C247.326 199.682 247.915 199.531 248.358 199.23C248.807 198.929 249.031 198.557 249.031 198.114C249.031 197.739 248.886 197.429 248.596 197.185C248.312 196.94 247.869 196.753 247.267 196.622L245.034 196.153C243.778 195.892 242.849 195.452 242.247 194.832C241.645 194.207 241.346 193.418 241.352 192.463C241.346 191.656 241.565 190.957 242.008 190.367C242.457 189.77 243.079 189.31 243.875 188.986C244.676 188.656 245.599 188.492 246.645 188.492C248.179 188.492 249.386 188.818 250.267 189.472C251.153 190.125 251.701 191.009 251.912 192.122ZM260.532 202.009C259.22 202.009 258.086 201.736 257.132 201.19C256.183 200.639 255.453 199.861 254.941 198.855C254.43 197.844 254.174 196.653 254.174 195.284C254.174 193.938 254.43 192.756 254.941 191.739C255.459 190.716 256.18 189.921 257.106 189.352C258.032 188.778 259.12 188.492 260.37 188.492C261.177 188.492 261.939 188.622 262.655 188.884C263.376 189.139 264.013 189.537 264.564 190.077C265.12 190.617 265.558 191.304 265.876 192.139C266.194 192.969 266.353 193.957 266.353 195.105V196.051H255.623V193.972H263.396C263.39 193.381 263.263 192.855 263.013 192.395C262.763 191.929 262.413 191.563 261.964 191.296C261.521 191.028 261.004 190.895 260.413 190.895C259.782 190.895 259.228 191.048 258.751 191.355C258.274 191.656 257.902 192.054 257.635 192.548C257.373 193.037 257.24 193.574 257.234 194.159V195.975C257.234 196.736 257.373 197.389 257.652 197.935C257.93 198.475 258.319 198.889 258.819 199.179C259.319 199.463 259.905 199.605 260.575 199.605C261.024 199.605 261.43 199.543 261.794 199.418C262.157 199.287 262.473 199.097 262.74 198.847C263.007 198.597 263.209 198.287 263.345 197.918L266.226 198.242C266.044 199.003 265.697 199.668 265.186 200.236C264.68 200.798 264.032 201.236 263.243 201.548C262.453 201.855 261.549 202.009 260.532 202.009Z" fill="#212528"/>
</g>
<path d="M107.16 244.333C106.884 244.333 106.66 244.557 106.66 244.833C106.66 245.109 106.884 245.333 107.16 245.333V244.333ZM202.599 226.472C202.404 226.276 202.087 226.276 201.892 226.472L198.71 229.654C198.515 229.849 198.515 230.165 198.71 230.361C198.905 230.556 199.222 230.556 199.417 230.361L202.245 227.532L205.074 230.361C205.269 230.556 205.586 230.556 205.781 230.361C205.976 230.165 205.976 229.849 205.781 229.654L202.599 226.472ZM202.245 226.825H202.745H202.245ZM107.16 245.333H184.238V244.333H107.16V245.333ZM184.238 245.333C194.459 245.333 202.745 237.047 202.745 226.825H201.745C201.745 236.494 193.907 244.333 184.238 244.333V245.333Z" fill="#212528"/>
<g filter="url(#filter3_d_380_727)">
<rect x="119.665" y="266.84" width="165.16" height="103.16" rx="11.0037" fill="white" shape-rendering="crispEdges"/>
<rect x="121.165" y="268.34" width="162.16" height="100.16" rx="9.50372" stroke="#212528" stroke-width="3" shape-rendering="crispEdges"/>
<path d="M215.083 295.312V312.402H211.874V299.564H192.617V312.402H189.408V295.312L202.245 290.177L215.083 295.312ZM218.293 315.612V293.146L202.245 286.727L186.198 293.146V315.612H195.827V302.774H208.664V315.612H218.293ZM200.641 312.402H197.431V315.612H200.641V312.402ZM203.85 307.588H200.641V310.797H203.85V307.588ZM207.06 312.402H203.85V315.612H207.06V312.402Z" fill="#0080FF"/>
<path d="M141.64 348.927L136.714 331.473H140.115L143.26 344.3H143.422L146.78 331.473H149.873L153.24 344.308H153.393L156.538 331.473H159.939L155.013 348.927H151.893L148.399 336.68H148.263L144.76 348.927H141.64ZM164.426 349.192C163.596 349.192 162.849 349.044 162.184 348.749C161.525 348.447 161.003 348.004 160.616 347.419C160.236 346.834 160.045 346.112 160.045 345.254C160.045 344.516 160.182 343.905 160.454 343.422C160.727 342.939 161.099 342.552 161.571 342.263C162.042 341.973 162.574 341.754 163.165 341.606C163.761 341.453 164.378 341.342 165.014 341.274C165.781 341.195 166.403 341.124 166.88 341.061C167.358 340.993 167.704 340.891 167.92 340.754C168.142 340.612 168.253 340.393 168.253 340.098V340.047C168.253 339.405 168.062 338.908 167.682 338.555C167.301 338.203 166.753 338.027 166.037 338.027C165.281 338.027 164.682 338.192 164.238 338.521C163.801 338.851 163.505 339.24 163.352 339.689L160.471 339.28C160.699 338.484 161.074 337.82 161.596 337.285C162.119 336.746 162.758 336.342 163.514 336.075C164.27 335.802 165.105 335.666 166.02 335.666C166.65 335.666 167.278 335.74 167.903 335.888C168.528 336.035 169.099 336.28 169.616 336.621C170.133 336.956 170.548 337.413 170.861 337.993C171.179 338.572 171.338 339.297 171.338 340.166V348.927H168.372V347.129H168.27C168.082 347.493 167.818 347.834 167.477 348.152C167.142 348.464 166.718 348.717 166.207 348.91C165.701 349.098 165.108 349.192 164.426 349.192ZM165.227 346.925C165.846 346.925 166.383 346.802 166.838 346.558C167.292 346.308 167.642 345.979 167.886 345.57C168.136 345.16 168.261 344.714 168.261 344.231V342.689C168.165 342.768 168 342.842 167.767 342.91C167.54 342.979 167.284 343.038 167 343.089C166.716 343.141 166.434 343.186 166.156 343.226C165.878 343.266 165.636 343.3 165.432 343.328C164.971 343.391 164.559 343.493 164.196 343.635C163.832 343.777 163.545 343.976 163.335 344.231C163.125 344.481 163.02 344.805 163.02 345.203C163.02 345.771 163.227 346.2 163.642 346.49C164.057 346.78 164.585 346.925 165.227 346.925ZM174.44 348.927V335.837H177.432V338.018H177.568C177.807 337.263 178.216 336.68 178.795 336.271C179.38 335.856 180.048 335.649 180.798 335.649C180.968 335.649 181.159 335.658 181.369 335.675C181.585 335.686 181.764 335.706 181.906 335.734V338.572C181.775 338.527 181.568 338.487 181.284 338.453C181.005 338.413 180.736 338.393 180.474 338.393C179.912 338.393 179.406 338.516 178.957 338.76C178.514 338.999 178.165 339.331 177.909 339.757C177.653 340.183 177.525 340.675 177.525 341.231V348.927H174.44ZM189.212 349.183C187.9 349.183 186.766 348.91 185.812 348.365C184.863 347.814 184.133 347.035 183.621 346.03C183.11 345.018 182.854 343.828 182.854 342.459C182.854 341.112 183.11 339.93 183.621 338.913C184.138 337.891 184.86 337.095 185.786 336.527C186.712 335.953 187.8 335.666 189.05 335.666C189.857 335.666 190.618 335.797 191.334 336.058C192.056 336.314 192.692 336.712 193.243 337.251C193.8 337.791 194.238 338.479 194.556 339.314C194.874 340.143 195.033 341.132 195.033 342.28V343.226H184.303V341.146H192.076C192.07 340.555 191.942 340.03 191.692 339.57C191.442 339.104 191.093 338.737 190.644 338.47C190.201 338.203 189.684 338.07 189.093 338.07C188.462 338.07 187.908 338.223 187.431 338.53C186.954 338.831 186.581 339.229 186.314 339.723C186.053 340.212 185.919 340.749 185.914 341.334V343.149C185.914 343.91 186.053 344.564 186.331 345.109C186.61 345.649 186.999 346.064 187.499 346.354C187.999 346.638 188.584 346.78 189.255 346.78C189.704 346.78 190.11 346.717 190.473 346.592C190.837 346.462 191.152 346.271 191.419 346.021C191.687 345.771 191.888 345.462 192.025 345.092L194.905 345.416C194.723 346.177 194.377 346.842 193.865 347.41C193.36 347.973 192.712 348.41 191.922 348.723C191.133 349.03 190.229 349.183 189.212 349.183ZM200.728 341.257V348.927H197.643V331.473H200.66V338.061H200.814C201.12 337.322 201.595 336.74 202.237 336.314C202.885 335.882 203.709 335.666 204.709 335.666C205.618 335.666 206.41 335.856 207.086 336.237C207.763 336.618 208.285 337.175 208.655 337.908C209.03 338.641 209.217 339.535 209.217 340.592V348.927H206.132V341.07C206.132 340.189 205.905 339.504 205.45 339.016C205.001 338.521 204.37 338.274 203.558 338.274C203.013 338.274 202.524 338.393 202.092 338.632C201.666 338.865 201.331 339.203 201.086 339.646C200.848 340.089 200.728 340.626 200.728 341.257ZM218.072 349.183C216.794 349.183 215.686 348.902 214.748 348.339C213.811 347.777 213.084 346.99 212.566 345.979C212.055 344.967 211.799 343.785 211.799 342.433C211.799 341.081 212.055 339.896 212.566 338.879C213.084 337.862 213.811 337.072 214.748 336.51C215.686 335.947 216.794 335.666 218.072 335.666C219.351 335.666 220.459 335.947 221.396 336.51C222.334 337.072 223.058 337.862 223.569 338.879C224.086 339.896 224.345 341.081 224.345 342.433C224.345 343.785 224.086 344.967 223.569 345.979C223.058 346.99 222.334 347.777 221.396 348.339C220.459 348.902 219.351 349.183 218.072 349.183ZM218.089 346.712C218.782 346.712 219.362 346.521 219.828 346.141C220.294 345.754 220.64 345.237 220.868 344.589C221.101 343.942 221.217 343.22 221.217 342.425C221.217 341.624 221.101 340.899 220.868 340.251C220.64 339.598 220.294 339.078 219.828 338.692C219.362 338.305 218.782 338.112 218.089 338.112C217.379 338.112 216.788 338.305 216.316 338.692C215.851 339.078 215.501 339.598 215.268 340.251C215.041 340.899 214.927 341.624 214.927 342.425C214.927 343.22 215.041 343.942 215.268 344.589C215.501 345.237 215.851 345.754 216.316 346.141C216.788 346.521 217.379 346.712 218.089 346.712ZM235.307 343.422V335.837H238.392V348.927H235.401V346.601H235.265C234.969 347.334 234.483 347.933 233.807 348.399C233.137 348.865 232.31 349.098 231.327 349.098C230.469 349.098 229.711 348.908 229.052 348.527C228.398 348.141 227.887 347.581 227.517 346.848C227.148 346.109 226.964 345.217 226.964 344.172V335.837H230.049V343.695C230.049 344.524 230.276 345.183 230.731 345.672C231.185 346.16 231.782 346.405 232.52 346.405C232.975 346.405 233.415 346.294 233.841 346.072C234.267 345.851 234.617 345.521 234.89 345.084C235.168 344.641 235.307 344.087 235.307 343.422ZM251.912 339.297L249.099 339.604C249.02 339.32 248.88 339.052 248.682 338.802C248.488 338.552 248.227 338.351 247.897 338.197C247.568 338.044 247.165 337.967 246.687 337.967C246.045 337.967 245.505 338.106 245.068 338.385C244.636 338.663 244.423 339.024 244.429 339.467C244.423 339.848 244.562 340.158 244.846 340.396C245.136 340.635 245.613 340.831 246.278 340.984L248.511 341.462C249.75 341.729 250.67 342.152 251.272 342.731C251.88 343.311 252.187 344.07 252.193 345.007C252.187 345.831 251.946 346.558 251.468 347.189C250.997 347.814 250.341 348.302 249.5 348.655C248.659 349.007 247.693 349.183 246.602 349.183C245 349.183 243.71 348.848 242.733 348.177C241.755 347.501 241.173 346.561 240.986 345.356L243.994 345.067C244.13 345.658 244.42 346.104 244.863 346.405C245.307 346.706 245.883 346.856 246.593 346.856C247.326 346.856 247.915 346.706 248.358 346.405C248.807 346.104 249.031 345.731 249.031 345.288C249.031 344.913 248.886 344.604 248.596 344.359C248.312 344.115 247.869 343.927 247.267 343.797L245.034 343.328C243.778 343.067 242.849 342.626 242.247 342.007C241.645 341.382 241.346 340.592 241.352 339.638C241.346 338.831 241.565 338.132 242.008 337.541C242.457 336.945 243.079 336.484 243.875 336.16C244.676 335.831 245.599 335.666 246.645 335.666C248.179 335.666 249.386 335.993 250.267 336.646C251.153 337.3 251.701 338.183 251.912 339.297ZM260.532 349.183C259.22 349.183 258.086 348.91 257.132 348.365C256.183 347.814 255.453 347.035 254.941 346.03C254.43 345.018 254.174 343.828 254.174 342.459C254.174 341.112 254.43 339.93 254.941 338.913C255.459 337.891 256.18 337.095 257.106 336.527C258.032 335.953 259.12 335.666 260.37 335.666C261.177 335.666 261.939 335.797 262.655 336.058C263.376 336.314 264.013 336.712 264.564 337.251C265.12 337.791 265.558 338.479 265.876 339.314C266.194 340.143 266.353 341.132 266.353 342.28V343.226H255.623V341.146H263.396C263.39 340.555 263.263 340.03 263.013 339.57C262.763 339.104 262.413 338.737 261.964 338.47C261.521 338.203 261.004 338.07 260.413 338.07C259.782 338.07 259.228 338.223 258.751 338.53C258.274 338.831 257.902 339.229 257.635 339.723C257.373 340.212 257.24 340.749 257.234 341.334V343.149C257.234 343.91 257.373 344.564 257.652 345.109C257.93 345.649 258.319 346.064 258.819 346.354C259.319 346.638 259.905 346.78 260.575 346.78C261.024 346.78 261.43 346.717 261.794 346.592C262.157 346.462 262.473 346.271 262.74 346.021C263.007 345.771 263.209 345.462 263.345 345.092L266.226 345.416C266.044 346.177 265.697 346.842 265.186 347.41C264.68 347.973 264.032 348.41 263.243 348.723C262.453 349.03 261.549 349.183 260.532 349.183Z" fill="#212528"/>
</g>
<path d="M107.16 244.333C106.884 244.333 106.66 244.557 106.66 244.833C106.66 245.109 106.884 245.333 107.16 245.333V244.333ZM201.892 263.194C202.087 263.389 202.404 263.389 202.599 263.194L205.781 260.012C205.976 259.816 205.976 259.5 205.781 259.304C205.586 259.109 205.269 259.109 205.074 259.304L202.245 262.133L199.417 259.304C199.222 259.109 198.905 259.109 198.71 259.304C198.515 259.5 198.515 259.816 198.71 260.012L201.892 263.194ZM202.245 262.84H202.745H202.245ZM107.16 245.333H184.238V244.333H107.16V245.333ZM184.238 245.333C193.907 245.333 201.745 253.171 201.745 262.84H202.745C202.745 252.619 194.46 244.333 184.238 244.333V245.333Z" fill="#212528"/>
<g filter="url(#filter4_d_380_727)">
<rect x="119.665" width="165.16" height="103.16" rx="11.0037" fill="white" shape-rendering="crispEdges"/>
<rect x="121.165" y="1.5" width="162.16" height="100.16" rx="9.50372" stroke="#212528" stroke-width="3" shape-rendering="crispEdges"/>
<path d="M215.083 28.4719V45.5621H211.874V32.7244H192.617V45.5621H189.408V28.4719L202.245 23.3368L215.083 28.4719ZM218.293 48.7715V26.3056L202.245 19.8867L186.198 26.3056V48.7715H195.827V35.9338H208.664V48.7715H218.293ZM200.641 45.5621H197.431V48.7715H200.641V45.5621ZM203.85 40.7479H200.641V43.9574H203.85V40.7479ZM207.06 45.5621H203.85V48.7715H207.06V45.5621Z" fill="#F2800D"/>
<path d="M141.64 82.0874L136.714 64.6329H140.115L143.26 77.4596H143.422L146.78 64.6329H149.873L153.24 77.4681H153.393L156.538 64.6329H159.939L155.013 82.0874H151.893L148.399 69.8402H148.263L144.76 82.0874H141.64ZM164.426 82.3516C163.596 82.3516 162.849 82.2039 162.184 81.9084C161.525 81.6073 161.003 81.1641 160.616 80.5789C160.236 79.9937 160.045 79.2721 160.045 78.4141C160.045 77.6755 160.182 77.0647 160.454 76.5817C160.727 76.0988 161.099 75.7124 161.571 75.4226C162.042 75.1329 162.574 74.9141 163.165 74.7664C163.761 74.613 164.378 74.5022 165.014 74.434C165.781 74.3544 166.403 74.2834 166.88 74.2209C167.358 74.1527 167.704 74.0505 167.92 73.9141C168.142 73.7721 168.253 73.5533 168.253 73.2579V73.2067C168.253 72.5647 168.062 72.0675 167.682 71.7152C167.301 71.363 166.753 71.1868 166.037 71.1868C165.281 71.1868 164.682 71.3516 164.238 71.6812C163.801 72.0107 163.505 72.3999 163.352 72.8488L160.471 72.4397C160.699 71.6442 161.074 70.9794 161.596 70.4454C162.119 69.9056 162.758 69.5022 163.514 69.2351C164.27 68.9624 165.105 68.826 166.02 68.826C166.65 68.826 167.278 68.8999 167.903 69.0476C168.528 69.1954 169.099 69.4397 169.616 69.7806C170.133 70.1158 170.548 70.5732 170.861 71.1527C171.179 71.7323 171.338 72.4567 171.338 73.326V82.0874H168.372V80.2891H168.27C168.082 80.6527 167.818 80.9937 167.477 81.3118C167.142 81.6243 166.718 81.8772 166.207 82.0704C165.701 82.2579 165.108 82.3516 164.426 82.3516ZM165.227 80.0846C165.846 80.0846 166.383 79.9624 166.838 79.7181C167.292 79.4681 167.642 79.1385 167.886 78.7294C168.136 78.3204 168.261 77.8743 168.261 77.3914V75.8488C168.165 75.9283 168 76.0022 167.767 76.0704C167.54 76.1385 167.284 76.1982 167 76.2493C166.716 76.3005 166.434 76.3459 166.156 76.3857C165.878 76.4255 165.636 76.4596 165.432 76.488C164.971 76.5505 164.559 76.6527 164.196 76.7948C163.832 76.9368 163.545 77.1357 163.335 77.3914C163.125 77.6414 163.02 77.9652 163.02 78.363C163.02 78.9312 163.227 79.3601 163.642 79.6499C164.057 79.9397 164.585 80.0846 165.227 80.0846ZM174.44 82.0874V68.9965H177.432V71.1783H177.568C177.807 70.4226 178.216 69.8402 178.795 69.4312C179.38 69.0164 180.048 68.809 180.798 68.809C180.968 68.809 181.159 68.8175 181.369 68.8346C181.585 68.8459 181.764 68.8658 181.906 68.8942V71.7323C181.775 71.6868 181.568 71.6471 181.284 71.613C181.005 71.5732 180.736 71.5533 180.474 71.5533C179.912 71.5533 179.406 71.6755 178.957 71.9198C178.514 72.1584 178.165 72.4908 177.909 72.9169C177.653 73.3431 177.525 73.8346 177.525 74.3914V82.0874H174.44ZM189.212 82.3431C187.9 82.3431 186.766 82.0704 185.812 81.5249C184.863 80.9738 184.133 80.1954 183.621 79.1897C183.11 78.1783 182.854 76.988 182.854 75.6187C182.854 74.2721 183.11 73.0902 183.621 72.0732C184.138 71.0505 184.86 70.255 185.786 69.6868C186.712 69.113 187.8 68.826 189.05 68.826C189.857 68.826 190.618 68.9567 191.334 69.2181C192.056 69.4738 192.692 69.8715 193.243 70.4113C193.8 70.951 194.238 71.6385 194.556 72.4738C194.874 73.3033 195.033 74.2919 195.033 75.4397V76.3857H184.303V74.3062H192.076C192.07 73.7152 191.942 73.1897 191.692 72.7294C191.442 72.2635 191.093 71.8971 190.644 71.63C190.201 71.363 189.684 71.2294 189.093 71.2294C188.462 71.2294 187.908 71.3829 187.431 71.6897C186.954 71.9908 186.581 72.3885 186.314 72.8829C186.053 73.3715 185.919 73.9084 185.914 74.4937V76.309C185.914 77.0704 186.053 77.7238 186.331 78.2692C186.61 78.809 186.999 79.2238 187.499 79.5135C187.999 79.7976 188.584 79.9397 189.255 79.9397C189.704 79.9397 190.11 79.8772 190.473 79.7522C190.837 79.6215 191.152 79.4312 191.419 79.1812C191.687 78.9312 191.888 78.6215 192.025 78.2522L194.905 78.576C194.723 79.3374 194.377 80.0022 193.865 80.5704C193.36 81.1329 192.712 81.5704 191.922 81.8829C191.133 82.1897 190.229 82.3431 189.212 82.3431ZM200.728 74.4169V82.0874H197.643V64.6329H200.66V71.2209H200.814C201.12 70.4823 201.595 69.8999 202.237 69.4738C202.885 69.0419 203.709 68.826 204.709 68.826C205.618 68.826 206.41 69.0164 207.086 69.3971C207.763 69.7777 208.285 70.3346 208.655 71.0675C209.03 71.8005 209.217 72.6954 209.217 73.7522V82.0874H206.132V74.2294C206.132 73.3488 205.905 72.6641 205.45 72.1755C205.001 71.6812 204.37 71.434 203.558 71.434C203.013 71.434 202.524 71.5533 202.092 71.7919C201.666 72.0249 201.331 72.363 201.086 72.8062C200.848 73.2493 200.728 73.7863 200.728 74.4169ZM218.072 82.3431C216.794 82.3431 215.686 82.0618 214.748 81.4993C213.811 80.9368 213.084 80.1499 212.566 79.1385C212.055 78.1272 211.799 76.9454 211.799 75.5931C211.799 74.2408 212.055 73.0562 212.566 72.0391C213.084 71.0221 213.811 70.2323 214.748 69.6698C215.686 69.1073 216.794 68.826 218.072 68.826C219.351 68.826 220.459 69.1073 221.396 69.6698C222.334 70.2323 223.058 71.0221 223.569 72.0391C224.086 73.0562 224.345 74.2408 224.345 75.5931C224.345 76.9454 224.086 78.1272 223.569 79.1385C223.058 80.1499 222.334 80.9368 221.396 81.4993C220.459 82.0618 219.351 82.3431 218.072 82.3431ZM218.089 79.8715C218.782 79.8715 219.362 79.6812 219.828 79.3005C220.294 78.9141 220.64 78.3971 220.868 77.7493C221.101 77.1016 221.217 76.38 221.217 75.5846C221.217 74.7834 221.101 74.059 220.868 73.4113C220.64 72.7579 220.294 72.238 219.828 71.8516C219.362 71.4652 218.782 71.2721 218.089 71.2721C217.379 71.2721 216.788 71.4652 216.316 71.8516C215.851 72.238 215.501 72.7579 215.268 73.4113C215.041 74.059 214.927 74.7834 214.927 75.5846C214.927 76.38 215.041 77.1016 215.268 77.7493C215.501 78.3971 215.851 78.9141 216.316 79.3005C216.788 79.6812 217.379 79.8715 218.089 79.8715ZM235.307 76.5817V68.9965H238.392V82.0874H235.401V79.7607H235.265C234.969 80.4937 234.483 81.0931 233.807 81.559C233.137 82.0249 232.31 82.2579 231.327 82.2579C230.469 82.2579 229.711 82.0675 229.052 81.6868C228.398 81.3005 227.887 80.7408 227.517 80.0079C227.148 79.2692 226.964 78.3772 226.964 77.3317V68.9965H230.049V76.8544C230.049 77.684 230.276 78.3431 230.731 78.8317C231.185 79.3204 231.782 79.5647 232.52 79.5647C232.975 79.5647 233.415 79.4539 233.841 79.2323C234.267 79.0107 234.617 78.6812 234.89 78.2437C235.168 77.8005 235.307 77.2465 235.307 76.5817ZM251.912 72.4567L249.099 72.7635C249.02 72.4794 248.88 72.2124 248.682 71.9624C248.488 71.7124 248.227 71.5107 247.897 71.3573C247.568 71.2039 247.165 71.1272 246.687 71.1272C246.045 71.1272 245.505 71.2664 245.068 71.5448C244.636 71.8232 244.423 72.184 244.429 72.6272C244.423 73.0079 244.562 73.3175 244.846 73.5562C245.136 73.7948 245.613 73.9908 246.278 74.1442L248.511 74.6215C249.75 74.8885 250.67 75.3118 251.272 75.8914C251.88 76.4709 252.187 77.2294 252.193 78.1669C252.187 78.9908 251.946 79.7181 251.468 80.3488C250.997 80.9738 250.341 81.4624 249.5 81.8147C248.659 82.1669 247.693 82.3431 246.602 82.3431C245 82.3431 243.71 82.0079 242.733 81.3374C241.755 80.6613 241.173 79.7209 240.986 78.5164L243.994 78.2266C244.13 78.8175 244.42 79.2635 244.863 79.5647C245.307 79.8658 245.883 80.0164 246.593 80.0164C247.326 80.0164 247.915 79.8658 248.358 79.5647C248.807 79.2635 249.031 78.8914 249.031 78.4482C249.031 78.0732 248.886 77.7635 248.596 77.5192C248.312 77.2749 247.869 77.0874 247.267 76.9567L245.034 76.488C243.778 76.2266 242.849 75.7863 242.247 75.1669C241.645 74.5419 241.346 73.7522 241.352 72.7976C241.346 71.9908 241.565 71.2919 242.008 70.701C242.457 70.1044 243.079 69.6442 243.875 69.3204C244.676 68.9908 245.599 68.826 246.645 68.826C248.179 68.826 249.386 69.1527 250.267 69.8062C251.153 70.4596 251.701 71.3431 251.912 72.4567ZM260.532 82.3431C259.22 82.3431 258.086 82.0704 257.132 81.5249C256.183 80.9738 255.453 80.1954 254.941 79.1897C254.43 78.1783 254.174 76.988 254.174 75.6187C254.174 74.2721 254.43 73.0902 254.941 72.0732C255.459 71.0505 256.18 70.255 257.106 69.6868C258.032 69.113 259.12 68.826 260.37 68.826C261.177 68.826 261.939 68.9567 262.655 69.2181C263.376 69.4738 264.013 69.8715 264.564 70.4113C265.12 70.951 265.558 71.6385 265.876 72.4738C266.194 73.3033 266.353 74.2919 266.353 75.4397V76.3857H255.623V74.3062H263.396C263.39 73.7152 263.263 73.1897 263.013 72.7294C262.763 72.2635 262.413 71.8971 261.964 71.63C261.521 71.363 261.004 71.2294 260.413 71.2294C259.782 71.2294 259.228 71.3829 258.751 71.6897C258.274 71.9908 257.902 72.3885 257.635 72.8829C257.373 73.3715 257.24 73.9084 257.234 74.4937V76.309C257.234 77.0704 257.373 77.7238 257.652 78.2692C257.93 78.809 258.319 79.2238 258.819 79.5135C259.319 79.7976 259.905 79.9397 260.575 79.9397C261.024 79.9397 261.43 79.8772 261.794 79.7522C262.157 79.6215 262.473 79.4312 262.74 79.1812C263.007 78.9312 263.209 78.6215 263.345 78.2522L266.226 78.576C266.044 79.3374 265.697 80.0022 265.186 80.5704C264.68 81.1329 264.032 81.5704 263.243 81.8829C262.453 82.1897 261.549 82.3431 260.532 82.3431Z" fill="#212528"/>
</g>
<path d="M51.0799 69.5872C51.0799 69.8634 51.3038 70.0872 51.5799 70.0872C51.856 70.0872 52.0799 69.8634 52.0799 69.5872H51.0799ZM116.019 51.9334C116.214 51.7381 116.214 51.4215 116.019 51.2263L112.837 48.0443C112.642 47.849 112.325 47.849 112.13 48.0443C111.935 48.2396 111.935 48.5561 112.13 48.7514L114.958 51.5798L112.13 54.4083C111.935 54.6035 111.935 54.9201 112.13 55.1154C112.325 55.3106 112.642 55.3106 112.837 55.1154L116.019 51.9334ZM51.5799 69.5872H52.0799H51.5799ZM69.5873 52.0798H115.665V51.0798H69.5873V52.0798ZM52.0799 69.5872C52.0799 59.9182 59.9182 52.0798 69.5873 52.0798V51.0798C59.3659 51.0798 51.0799 59.3659 51.0799 69.5872H52.0799Z" fill="#212528"/>
<defs>
<filter id="filter0_d_380_727" x="-3.05176e-05" y="73.5874" width="105.911" height="105.911" filterUnits="userSpaceOnUse" color-interpolation-filters="sRGB">
<feFlood flood-opacity="0" result="BackgroundImageFix"/>
<feColorMatrix in="SourceAlpha" type="matrix" values="0 0 0 0 0 0 0 0 0 0 0 0 0 0 0 0 0 0 127 0" result="hardAlpha"/>
<feOffset dx="2.75093" dy="2.75093"/>
<feComposite in2="hardAlpha" operator="out"/>
<feColorMatrix type="matrix" values="0 0 0 0 0.979608 0 0 0 0 0.800784 0 0 0 0 0.620392 0 0 0 1 0"/>
<feBlend mode="normal" in2="BackgroundImageFix" result="effect1_dropShadow_380_727"/>
<feBlend mode="normal" in="SourceGraphic" in2="effect1_dropShadow_380_727" result="shape"/>
</filter>
<filter id="filter1_d_380_727" x="-3.05176e-05" y="193.253" width="105.911" height="105.911" filterUnits="userSpaceOnUse" color-interpolation-filters="sRGB">
<feFlood flood-opacity="0" result="BackgroundImageFix"/>
<feColorMatrix in="SourceAlpha" type="matrix" values="0 0 0 0 0 0 0 0 0 0 0 0 0 0 0 0 0 0 127 0" result="hardAlpha"/>
<feOffset dx="2.75093" dy="2.75093"/>
<feComposite in2="hardAlpha" operator="out"/>
<feColorMatrix type="matrix" values="0 0 0 0 0.667568 0 0 0 0 0.805297 0 0 0 0 0.932432 0 0 0 1 0"/>
<feBlend mode="normal" in2="BackgroundImageFix" result="effect1_dropShadow_380_727"/>
<feBlend mode="normal" in="SourceGraphic" in2="effect1_dropShadow_380_727" result="shape"/>
</filter>
<filter id="filter2_d_380_727" x="119.665" y="119.666" width="167.911" height="105.911" filterUnits="userSpaceOnUse" color-interpolation-filters="sRGB">
<feFlood flood-opacity="0" result="BackgroundImageFix"/>
<feColorMatrix in="SourceAlpha" type="matrix" values="0 0 0 0 0 0 0 0 0 0 0 0 0 0 0 0 0 0 127 0" result="hardAlpha"/>
<feOffset dx="2.75093" dy="2.75093"/>
<feComposite in2="hardAlpha" operator="out"/>
<feColorMatrix type="matrix" values="0 0 0 0 0.666667 0 0 0 0 0.803922 0 0 0 0 0.933333 0 0 0 1 0"/>
<feBlend mode="normal" in2="BackgroundImageFix" result="effect1_dropShadow_380_727"/>
<feBlend mode="normal" in="SourceGraphic" in2="effect1_dropShadow_380_727" result="shape"/>
</filter>
<filter id="filter3_d_380_727" x="119.665" y="266.84" width="167.911" height="105.911" filterUnits="userSpaceOnUse" color-interpolation-filters="sRGB">
<feFlood flood-opacity="0" result="BackgroundImageFix"/>
<feColorMatrix in="SourceAlpha" type="matrix" values="0 0 0 0 0 0 0 0 0 0 0 0 0 0 0 0 0 0 127 0" result="hardAlpha"/>
<feOffset dx="2.75093" dy="2.75093"/>
<feComposite in2="hardAlpha" operator="out"/>
<feColorMatrix type="matrix" values="0 0 0 0 0.666667 0 0 0 0 0.803922 0 0 0 0 0.933333 0 0 0 1 0"/>
<feBlend mode="normal" in2="BackgroundImageFix" result="effect1_dropShadow_380_727"/>
<feBlend mode="normal" in="SourceGraphic" in2="effect1_dropShadow_380_727" result="shape"/>
</filter>
<filter id="filter4_d_380_727" x="119.665" y="0" width="167.911" height="105.911" filterUnits="userSpaceOnUse" color-interpolation-filters="sRGB">
<feFlood flood-opacity="0" result="BackgroundImageFix"/>
<feColorMatrix in="SourceAlpha" type="matrix" values="0 0 0 0 0 0 0 0 0 0 0 0 0 0 0 0 0 0 127 0" result="hardAlpha"/>
<feOffset dx="2.75093" dy="2.75093"/>
<feComposite in2="hardAlpha" operator="out"/>
<feColorMatrix type="matrix" values="0 0 0 0 0.979608 0 0 0 0 0.800784 0 0 0 0 0.620392 0 0 0 1 0"/>
<feBlend mode="normal" in2="BackgroundImageFix" result="effect1_dropShadow_380_727"/>
<feBlend mode="normal" in="SourceGraphic" in2="effect1_dropShadow_380_727" result="shape"/>
</filter>
</defs>
</svg>
