<svg width="235" height="226" viewBox="0 0 235 226" fill="none" xmlns="http://www.w3.org/2000/svg">
<g filter="url(#filter0_d_382_111)">
<rect x="129" width="103.16" height="103.16" rx="11.0037" fill="white" shape-rendering="crispEdges"/>
<rect x="130.5" y="1.5" width="100.16" height="100.16" rx="9.50372" stroke="#212528" stroke-width="3" shape-rendering="crispEdges"/>
<path d="M188.603 32.7244V19.8867H172.556V26.3056H166.138V48.7715H178.975V42.3526H182.185V48.7715H195.022V32.7244H188.603ZM172.556 45.5621H169.347V42.3526H172.556V45.5621ZM172.556 39.1432H169.347V35.9338H172.556V39.1432ZM172.556 32.7244H169.347V29.515H172.556V32.7244ZM178.975 39.1432H175.766V35.9338H178.975V39.1432ZM178.975 32.7244H175.766V29.515H178.975V32.7244ZM178.975 26.3056H175.766V23.0961H178.975V26.3056ZM185.394 39.1432H182.185V35.9338H185.394V39.1432ZM185.394 32.7244H182.185V29.515H185.394V32.7244ZM185.394 26.3056H182.185V23.0961H185.394V26.3056ZM191.813 45.5621H188.603V42.3526H191.813V45.5621ZM191.813 39.1432H188.603V35.9338H191.813V39.1432Z" fill="#F2800D"/>
<path d="M140.802 82.0874V64.6329H147.483C148.745 64.6329 149.793 64.8317 150.628 65.2294C151.469 65.6215 152.097 66.1584 152.512 66.8402C152.932 67.5221 153.142 68.2948 153.142 69.1584C153.142 69.8687 153.006 70.4766 152.733 70.9823C152.461 71.4823 152.094 71.8885 151.634 72.201C151.174 72.5135 150.659 72.738 150.091 72.8743V73.0448C150.711 73.0789 151.304 73.2692 151.873 73.6158C152.446 73.9567 152.915 74.4397 153.279 75.0647C153.642 75.6897 153.824 76.4454 153.824 77.3317C153.824 78.2351 153.605 79.0476 153.168 79.7692C152.73 80.4851 152.071 81.0505 151.191 81.4652C150.31 81.88 149.202 82.0874 147.867 82.0874H140.802ZM143.963 79.4454H147.364C148.512 79.4454 149.338 79.2266 149.844 78.7891C150.355 78.3459 150.611 77.7777 150.611 77.0846C150.611 76.5675 150.483 76.1016 150.228 75.6868C149.972 75.2664 149.608 74.9368 149.137 74.6982C148.665 74.4539 148.103 74.3317 147.449 74.3317H143.963V79.4454ZM143.963 72.0562H147.091C147.637 72.0562 148.128 71.9567 148.566 71.7579C149.003 71.5533 149.347 71.2664 149.597 70.8971C149.853 70.5221 149.98 70.0789 149.98 69.5675C149.98 68.8914 149.742 68.3346 149.265 67.8971C148.793 67.4596 148.091 67.2408 147.159 67.2408H143.963V72.0562ZM156.439 82.0874V68.9965H159.43V71.1783H159.566C159.805 70.4226 160.214 69.8402 160.794 69.4312C161.379 69.0164 162.047 68.809 162.797 68.809C162.967 68.809 163.157 68.8175 163.368 68.8346C163.583 68.8459 163.762 68.8658 163.904 68.8942V71.7323C163.774 71.6868 163.566 71.6471 163.282 71.613C163.004 71.5732 162.734 71.5533 162.473 71.5533C161.91 71.5533 161.404 71.6755 160.956 71.9198C160.512 72.1584 160.163 72.4908 159.907 72.9169C159.652 73.3431 159.524 73.8346 159.524 74.3914V82.0874H156.439ZM169.487 82.3516C168.657 82.3516 167.91 82.2039 167.245 81.9084C166.586 81.6073 166.064 81.1641 165.677 80.5789C165.297 79.9937 165.106 79.2721 165.106 78.4141C165.106 77.6755 165.243 77.0647 165.515 76.5817C165.788 76.0988 166.16 75.7124 166.632 75.4226C167.103 75.1329 167.635 74.9141 168.226 74.7664C168.822 74.613 169.439 74.5022 170.075 74.434C170.842 74.3544 171.464 74.2834 171.941 74.2209C172.419 74.1527 172.765 74.0505 172.981 73.9141C173.203 73.7721 173.314 73.5533 173.314 73.2579V73.2067C173.314 72.5647 173.123 72.0675 172.743 71.7152C172.362 71.363 171.814 71.1868 171.098 71.1868C170.342 71.1868 169.743 71.3516 169.299 71.6812C168.862 72.0107 168.566 72.3999 168.413 72.8488L165.532 72.4397C165.76 71.6442 166.135 70.9794 166.657 70.4454C167.18 69.9056 167.819 69.5022 168.575 69.2351C169.331 68.9624 170.166 68.826 171.081 68.826C171.711 68.826 172.339 68.8999 172.964 69.0476C173.589 69.1954 174.16 69.4397 174.677 69.7806C175.194 70.1158 175.609 70.5732 175.922 71.1527C176.24 71.7323 176.399 72.4567 176.399 73.326V82.0874H173.433V80.2891H173.331C173.143 80.6527 172.879 80.9937 172.538 81.3118C172.203 81.6243 171.779 81.8772 171.268 82.0704C170.762 82.2579 170.169 82.3516 169.487 82.3516ZM170.288 80.0846C170.907 80.0846 171.444 79.9624 171.899 79.7181C172.353 79.4681 172.703 79.1385 172.947 78.7294C173.197 78.3204 173.322 77.8743 173.322 77.3914V75.8488C173.226 75.9283 173.061 76.0022 172.828 76.0704C172.601 76.1385 172.345 76.1982 172.061 76.2493C171.777 76.3005 171.495 76.3459 171.217 76.3857C170.939 76.4255 170.697 76.4596 170.493 76.488C170.032 76.5505 169.62 76.6527 169.257 76.7948C168.893 76.9368 168.606 77.1357 168.396 77.3914C168.186 77.6414 168.081 77.9652 168.081 78.363C168.081 78.9312 168.288 79.3601 168.703 79.6499C169.118 79.9397 169.646 80.0846 170.288 80.0846ZM182.586 74.4169V82.0874H179.501V68.9965H182.45V71.2209H182.603C182.904 70.488 183.385 69.9056 184.044 69.4738C184.708 69.0419 185.529 68.826 186.507 68.826C187.41 68.826 188.197 69.0192 188.868 69.4056C189.544 69.7919 190.066 70.3516 190.436 71.0846C190.811 71.8175 190.995 72.7067 190.99 73.7522V82.0874H187.904V74.2294C187.904 73.3544 187.677 72.6698 187.223 72.1755C186.774 71.6812 186.152 71.434 185.356 71.434C184.816 71.434 184.336 71.5533 183.916 71.7919C183.501 72.0249 183.174 72.363 182.936 72.8062C182.703 73.2493 182.586 73.7863 182.586 74.4169ZM199.836 82.3431C198.529 82.3431 197.407 82.0562 196.47 81.4823C195.538 80.9084 194.819 80.1158 194.314 79.1044C193.814 78.0874 193.564 76.9169 193.564 75.5931C193.564 74.2635 193.819 73.0902 194.331 72.0732C194.842 71.0505 195.564 70.255 196.495 69.6868C197.433 69.113 198.541 68.826 199.819 68.826C200.882 68.826 201.822 69.0221 202.64 69.4141C203.464 69.8005 204.12 70.3488 204.609 71.059C205.098 71.7635 205.376 72.5874 205.444 73.5306H202.495C202.376 72.8999 202.092 72.3743 201.643 71.9539C201.2 71.5277 200.606 71.3147 199.862 71.3147C199.231 71.3147 198.677 71.4851 198.2 71.826C197.723 72.1613 197.351 72.6442 197.083 73.2749C196.822 73.9056 196.691 74.6613 196.691 75.5419C196.691 76.434 196.822 77.201 197.083 77.8431C197.345 78.4794 197.711 78.9709 198.183 79.3175C198.66 79.6584 199.22 79.8289 199.862 79.8289C200.316 79.8289 200.723 79.7437 201.081 79.5732C201.444 79.3971 201.748 79.1442 201.993 78.8147C202.237 78.4851 202.404 78.0846 202.495 77.613H205.444C205.37 78.5391 205.098 79.3601 204.626 80.076C204.154 80.7863 203.512 81.3431 202.7 81.7465C201.887 82.1442 200.933 82.3431 199.836 82.3431ZM211.063 74.4169V82.0874H207.978V64.6329H210.995V71.2209H211.148C211.455 70.4823 211.929 69.8999 212.571 69.4738C213.219 69.0419 214.043 68.826 215.043 68.826C215.952 68.826 216.745 69.0164 217.421 69.3971C218.097 69.7777 218.62 70.3346 218.989 71.0675C219.364 71.8005 219.552 72.6954 219.552 73.7522V82.0874H216.466V74.2294C216.466 73.3488 216.239 72.6641 215.784 72.1755C215.336 71.6812 214.705 71.434 213.892 71.434C213.347 71.434 212.858 71.5533 212.427 71.7919C212 72.0249 211.665 72.363 211.421 72.8062C211.182 73.2493 211.063 73.7863 211.063 74.4169Z" fill="#212528"/>
</g>
<g filter="url(#filter1_d_382_111)">
<rect x="129" y="119.666" width="103.16" height="103.16" rx="11.0037" fill="#1A73E8" shape-rendering="crispEdges"/>
<rect x="130.5" y="121.166" width="100.16" height="100.16" rx="9.50372" stroke="#212528" stroke-width="3" shape-rendering="crispEdges"/>
<path d="M188.603 152.39V139.552H172.556V145.971H166.138V168.437H178.975V162.018H182.185V168.437H195.022V152.39H188.603ZM172.556 165.228H169.347V162.018H172.556V165.228ZM172.556 158.809H169.347V155.599H172.556V158.809ZM172.556 152.39H169.347V149.181H172.556V152.39ZM178.975 158.809H175.766V155.599H178.975V158.809ZM178.975 152.39H175.766V149.181H178.975V152.39ZM178.975 145.971H175.766V142.762H178.975V145.971ZM185.394 158.809H182.185V155.599H185.394V158.809ZM185.394 152.39H182.185V149.181H185.394V152.39ZM185.394 145.971H182.185V142.762H185.394V145.971ZM191.813 165.228H188.603V162.018H191.813V165.228ZM191.813 158.809H188.603V155.599H191.813V158.809Z" fill="white"/>
<path d="M140.802 201.753V184.298H147.483C148.745 184.298 149.793 184.497 150.628 184.895C151.469 185.287 152.097 185.824 152.512 186.506C152.932 187.188 153.142 187.96 153.142 188.824C153.142 189.534 153.006 190.142 152.733 190.648C152.461 191.148 152.094 191.554 151.634 191.867C151.174 192.179 150.659 192.403 150.091 192.54V192.71C150.711 192.744 151.304 192.935 151.873 193.281C152.446 193.622 152.915 194.105 153.279 194.73C153.642 195.355 153.824 196.111 153.824 196.997C153.824 197.901 153.605 198.713 153.168 199.435C152.73 200.151 152.071 200.716 151.191 201.131C150.31 201.546 149.202 201.753 147.867 201.753H140.802ZM143.963 199.111H147.364C148.512 199.111 149.338 198.892 149.844 198.455C150.355 198.011 150.611 197.443 150.611 196.75C150.611 196.233 150.483 195.767 150.228 195.352C149.972 194.932 149.608 194.602 149.137 194.364C148.665 194.119 148.103 193.997 147.449 193.997H143.963V199.111ZM143.963 191.722H147.091C147.637 191.722 148.128 191.622 148.566 191.423C149.003 191.219 149.347 190.932 149.597 190.563C149.853 190.188 149.98 189.744 149.98 189.233C149.98 188.557 149.742 188 149.265 187.563C148.793 187.125 148.091 186.906 147.159 186.906H143.963V191.722ZM156.439 201.753V188.662H159.43V190.844H159.566C159.805 190.088 160.214 189.506 160.794 189.097C161.379 188.682 162.047 188.475 162.797 188.475C162.967 188.475 163.157 188.483 163.368 188.5C163.583 188.511 163.762 188.531 163.904 188.56V191.398C163.774 191.352 163.566 191.313 163.282 191.278C163.004 191.239 162.734 191.219 162.473 191.219C161.91 191.219 161.404 191.341 160.956 191.585C160.512 191.824 160.163 192.156 159.907 192.582C159.652 193.009 159.524 193.5 159.524 194.057V201.753H156.439ZM169.487 202.017C168.657 202.017 167.91 201.869 167.245 201.574C166.586 201.273 166.064 200.83 165.677 200.244C165.297 199.659 165.106 198.938 165.106 198.08C165.106 197.341 165.243 196.73 165.515 196.247C165.788 195.764 166.16 195.378 166.632 195.088C167.103 194.798 167.635 194.58 168.226 194.432C168.822 194.278 169.439 194.168 170.075 194.1C170.842 194.02 171.464 193.949 171.941 193.886C172.419 193.818 172.765 193.716 172.981 193.58C173.203 193.438 173.314 193.219 173.314 192.923V192.872C173.314 192.23 173.123 191.733 172.743 191.381C172.362 191.028 171.814 190.852 171.098 190.852C170.342 190.852 169.743 191.017 169.299 191.347C168.862 191.676 168.566 192.065 168.413 192.514L165.532 192.105C165.76 191.31 166.135 190.645 166.657 190.111C167.18 189.571 167.819 189.168 168.575 188.901C169.331 188.628 170.166 188.492 171.081 188.492C171.711 188.492 172.339 188.565 172.964 188.713C173.589 188.861 174.16 189.105 174.677 189.446C175.194 189.781 175.609 190.239 175.922 190.818C176.24 191.398 176.399 192.122 176.399 192.992V201.753H173.433V199.955H173.331C173.143 200.318 172.879 200.659 172.538 200.977C172.203 201.29 171.779 201.543 171.268 201.736C170.762 201.923 170.169 202.017 169.487 202.017ZM170.288 199.75C170.907 199.75 171.444 199.628 171.899 199.384C172.353 199.134 172.703 198.804 172.947 198.395C173.197 197.986 173.322 197.54 173.322 197.057V195.514C173.226 195.594 173.061 195.668 172.828 195.736C172.601 195.804 172.345 195.864 172.061 195.915C171.777 195.966 171.495 196.011 171.217 196.051C170.939 196.091 170.697 196.125 170.493 196.153C170.032 196.216 169.62 196.318 169.257 196.46C168.893 196.602 168.606 196.801 168.396 197.057C168.186 197.307 168.081 197.631 168.081 198.028C168.081 198.597 168.288 199.026 168.703 199.315C169.118 199.605 169.646 199.75 170.288 199.75ZM182.586 194.082V201.753H179.501V188.662H182.45V190.886H182.603C182.904 190.153 183.385 189.571 184.044 189.139C184.708 188.707 185.529 188.492 186.507 188.492C187.41 188.492 188.197 188.685 188.868 189.071C189.544 189.457 190.066 190.017 190.436 190.75C190.811 191.483 190.995 192.372 190.99 193.418V201.753H187.904V193.895C187.904 193.02 187.677 192.335 187.223 191.841C186.774 191.347 186.152 191.1 185.356 191.1C184.816 191.1 184.336 191.219 183.916 191.457C183.501 191.69 183.174 192.028 182.936 192.472C182.703 192.915 182.586 193.452 182.586 194.082ZM199.836 202.009C198.529 202.009 197.407 201.722 196.47 201.148C195.538 200.574 194.819 199.781 194.314 198.77C193.814 197.753 193.564 196.582 193.564 195.259C193.564 193.929 193.819 192.756 194.331 191.739C194.842 190.716 195.564 189.921 196.495 189.352C197.433 188.778 198.541 188.492 199.819 188.492C200.882 188.492 201.822 188.688 202.64 189.08C203.464 189.466 204.12 190.014 204.609 190.725C205.098 191.429 205.376 192.253 205.444 193.196H202.495C202.376 192.565 202.092 192.04 201.643 191.619C201.2 191.193 200.606 190.98 199.862 190.98C199.231 190.98 198.677 191.151 198.2 191.492C197.723 191.827 197.351 192.31 197.083 192.94C196.822 193.571 196.691 194.327 196.691 195.207C196.691 196.1 196.822 196.867 197.083 197.509C197.345 198.145 197.711 198.636 198.183 198.983C198.66 199.324 199.22 199.494 199.862 199.494C200.316 199.494 200.723 199.409 201.081 199.239C201.444 199.063 201.748 198.81 201.993 198.48C202.237 198.151 202.404 197.75 202.495 197.278H205.444C205.37 198.205 205.098 199.026 204.626 199.742C204.154 200.452 203.512 201.009 202.7 201.412C201.887 201.81 200.933 202.009 199.836 202.009ZM211.063 194.082V201.753H207.978V184.298H210.995V190.886H211.148C211.455 190.148 211.929 189.565 212.571 189.139C213.219 188.707 214.043 188.492 215.043 188.492C215.952 188.492 216.745 188.682 217.421 189.063C218.097 189.443 218.62 190 218.989 190.733C219.364 191.466 219.552 192.361 219.552 193.418V201.753H216.466V193.895C216.466 193.014 216.239 192.33 215.784 191.841C215.336 191.347 214.705 191.1 213.892 191.1C213.347 191.1 212.858 191.219 212.427 191.457C212 191.69 211.665 192.028 211.421 192.472C211.182 192.915 211.063 193.452 211.063 194.082Z" fill="white"/>
</g>
<path d="M29.1667 107.5C29.1667 127.917 43.8333 144.75 63.1667 148.417L50.75 136L62.5 124.167L95.8333 157.583L62.5 190.833L50.75 179.083L63.9167 165.917V165.417C35 162 12.5 137.333 12.5 107.5C12.5 75.2501 38.5833 49.1667 70.8333 49.1667H95.8333V65.8334H70.8333C47.8333 65.8334 29.1667 84.5001 29.1667 107.5Z" fill="#212528"/>
<defs>
<filter id="filter0_d_382_111" x="129" y="0" width="105.911" height="105.911" filterUnits="userSpaceOnUse" color-interpolation-filters="sRGB">
<feFlood flood-opacity="0" result="BackgroundImageFix"/>
<feColorMatrix in="SourceAlpha" type="matrix" values="0 0 0 0 0 0 0 0 0 0 0 0 0 0 0 0 0 0 127 0" result="hardAlpha"/>
<feOffset dx="2.75093" dy="2.75093"/>
<feComposite in2="hardAlpha" operator="out"/>
<feColorMatrix type="matrix" values="0 0 0 0 0.979608 0 0 0 0 0.800784 0 0 0 0 0.620392 0 0 0 1 0"/>
<feBlend mode="normal" in2="BackgroundImageFix" result="effect1_dropShadow_382_111"/>
<feBlend mode="normal" in="SourceGraphic" in2="effect1_dropShadow_382_111" result="shape"/>
</filter>
<filter id="filter1_d_382_111" x="129" y="119.666" width="105.911" height="105.911" filterUnits="userSpaceOnUse" color-interpolation-filters="sRGB">
<feFlood flood-opacity="0" result="BackgroundImageFix"/>
<feColorMatrix in="SourceAlpha" type="matrix" values="0 0 0 0 0 0 0 0 0 0 0 0 0 0 0 0 0 0 127 0" result="hardAlpha"/>
<feOffset dx="2.75093" dy="2.75093"/>
<feComposite in2="hardAlpha" operator="out"/>
<feColorMatrix type="matrix" values="0 0 0 0 0.667568 0 0 0 0 0.805297 0 0 0 0 0.932432 0 0 0 1 0"/>
<feBlend mode="normal" in2="BackgroundImageFix" result="effect1_dropShadow_382_111"/>
<feBlend mode="normal" in="SourceGraphic" in2="effect1_dropShadow_382_111" result="shape"/>
</filter>
</defs>
</svg>
