<svg width="230" height="230" viewBox="0 0 230 230" fill="none" xmlns="http://www.w3.org/2000/svg">
<g filter="url(#filter0_d_413_149)">
<rect x="-1.52588e-05" width="225.287" height="225.287" rx="16.092" fill="white" shape-rendering="crispEdges"/>
<rect x="1.49998" y="1.5" width="222.287" height="222.287" rx="14.592" stroke="#212528" stroke-width="3" shape-rendering="crispEdges"/>
<path d="M150.359 51.3765L142.816 43.8334L135.273 51.3765L127.73 43.8334L120.187 51.3765L112.644 43.8334L105.101 51.3765L97.5575 43.8334L90.0143 51.3765L82.4712 43.8334V114.236H67.385V129.322C67.385 137.67 74.1235 144.408 82.4712 144.408H142.816C151.164 144.408 157.902 137.67 157.902 129.322V43.8334L150.359 51.3765ZM147.845 129.322C147.845 132.088 145.582 134.351 142.816 134.351C140.05 134.351 137.787 132.088 137.787 129.322V114.236H92.5287V58.9196H147.845V129.322Z" fill="#0074FF"/>
<path d="M127.73 68.977H97.5575V79.0345H127.73V68.977Z" fill="#0074FF"/>
<path d="M142.816 68.977H132.759V79.0345H142.816V68.977Z" fill="#0074FF"/>
<path d="M127.73 84.0633H97.5575V94.1207H127.73V84.0633Z" fill="#0074FF"/>
<path d="M142.816 84.0633H132.759V94.1207H142.816V84.0633Z" fill="#0074FF"/>
<path d="M43.3751 185.511V167.957H50.0954C51.364 167.957 52.4183 168.157 53.2583 168.557C54.1041 168.951 54.7355 169.491 55.1527 170.177C55.5755 170.862 55.787 171.64 55.787 172.508C55.787 173.223 55.6498 173.834 55.3755 174.343C55.1012 174.845 54.7327 175.254 54.2698 175.568C53.8069 175.883 53.2898 176.108 52.7183 176.245V176.417C53.3412 176.451 53.9383 176.643 54.5098 176.991C55.087 177.334 55.5584 177.82 55.9241 178.448C56.2899 179.077 56.4727 179.837 56.4727 180.728C56.4727 181.637 56.2527 182.454 55.8127 183.18C55.3727 183.9 54.7098 184.469 53.8241 184.886C52.9383 185.303 51.824 185.511 50.4811 185.511H43.3751ZM46.5553 182.854H49.9754C51.1297 182.854 51.9611 182.634 52.4697 182.194C52.984 181.748 53.2412 181.177 53.2412 180.48C53.2412 179.96 53.1126 179.491 52.8555 179.074C52.5983 178.651 52.2326 178.32 51.7583 178.08C51.284 177.834 50.7182 177.711 50.0611 177.711H46.5553V182.854ZM46.5553 175.423H49.7011C50.2497 175.423 50.744 175.323 51.184 175.123C51.624 174.917 51.9697 174.628 52.2211 174.257C52.4783 173.88 52.6069 173.434 52.6069 172.92C52.6069 172.24 52.3669 171.68 51.8869 171.24C51.4126 170.8 50.7068 170.58 49.7696 170.58H46.5553V175.423ZM67.4938 179.974V172.345H70.5967V185.511H67.5881V183.171H67.4509C67.1538 183.909 66.6652 184.511 65.9852 184.98C65.3109 185.449 64.4794 185.683 63.4908 185.683C62.6279 185.683 61.865 185.491 61.2022 185.109C60.545 184.72 60.0307 184.157 59.6592 183.42C59.2878 182.677 59.1021 181.78 59.1021 180.728V172.345H62.205V180.248C62.205 181.083 62.4336 181.746 62.8908 182.237C63.3479 182.729 63.948 182.974 64.6908 182.974C65.148 182.974 65.5909 182.863 66.0195 182.64C66.448 182.417 66.7995 182.086 67.0738 181.646C67.3538 181.2 67.4938 180.643 67.4938 179.974ZM76.8905 167.957V185.511H73.7876V167.957H76.8905ZM82.91 181.38L82.9014 177.634H83.3986L88.1302 172.345H91.756L85.9358 178.826H85.2929L82.91 181.38ZM80.0813 185.511V167.957H83.1843V185.511H80.0813ZM88.3445 185.511L84.0586 179.52L86.1501 177.334L92.056 185.511H88.3445ZM111.014 167.957H114.195V179.426C114.195 180.683 113.897 181.788 113.303 182.743C112.715 183.697 111.886 184.443 110.817 184.98C109.749 185.511 108.5 185.777 107.072 185.777C105.637 185.777 104.386 185.511 103.317 184.98C102.248 184.443 101.42 183.697 100.831 182.743C100.243 181.788 99.9484 180.683 99.9484 179.426V167.957H103.129V179.16C103.129 179.891 103.289 180.543 103.609 181.114C103.934 181.686 104.391 182.134 104.98 182.46C105.569 182.78 106.266 182.94 107.072 182.94C107.877 182.94 108.574 182.78 109.163 182.46C109.757 182.134 110.214 181.686 110.534 181.114C110.854 180.543 111.014 179.891 111.014 179.16V167.957ZM117.514 190.449V172.345H120.566V174.523H120.746C120.906 174.203 121.131 173.863 121.423 173.503C121.714 173.137 122.108 172.825 122.606 172.568C123.103 172.305 123.737 172.174 124.509 172.174C125.526 172.174 126.443 172.434 127.26 172.954C128.083 173.468 128.734 174.231 129.214 175.243C129.7 176.248 129.943 177.483 129.943 178.946C129.943 180.391 129.706 181.62 129.232 182.631C128.757 183.643 128.111 184.414 127.294 184.946C126.477 185.477 125.551 185.743 124.517 185.743C123.763 185.743 123.137 185.617 122.64 185.366C122.143 185.114 121.743 184.811 121.44 184.457C121.143 184.097 120.911 183.757 120.746 183.437H120.617V190.449H117.514ZM120.557 178.928C120.557 179.78 120.677 180.526 120.917 181.166C121.163 181.806 121.514 182.306 121.971 182.666C122.434 183.02 122.994 183.197 123.651 183.197C124.337 183.197 124.911 183.014 125.374 182.649C125.837 182.277 126.186 181.771 126.42 181.131C126.66 180.486 126.78 179.751 126.78 178.928C126.78 178.111 126.663 177.385 126.429 176.751C126.194 176.117 125.846 175.62 125.383 175.26C124.92 174.9 124.343 174.72 123.651 174.72C122.988 174.72 122.426 174.894 121.963 175.243C121.5 175.591 121.148 176.08 120.908 176.708C120.674 177.337 120.557 178.077 120.557 178.928ZM137.486 185.743C136.452 185.743 135.526 185.477 134.709 184.946C133.892 184.414 133.246 183.643 132.772 182.631C132.297 181.62 132.06 180.391 132.06 178.946C132.06 177.483 132.3 176.248 132.78 175.243C133.266 174.231 133.92 173.468 134.743 172.954C135.566 172.434 136.483 172.174 137.495 172.174C138.266 172.174 138.9 172.305 139.398 172.568C139.895 172.825 140.289 173.137 140.58 173.503C140.872 173.863 141.098 174.203 141.258 174.523H141.386V167.957H144.498V185.511H141.446V183.437H141.258C141.098 183.757 140.866 184.097 140.563 184.457C140.26 184.811 139.86 185.114 139.363 185.366C138.866 185.617 138.24 185.743 137.486 185.743ZM138.352 183.197C139.009 183.197 139.569 183.02 140.032 182.666C140.495 182.306 140.846 181.806 141.086 181.166C141.326 180.526 141.446 179.78 141.446 178.928C141.446 178.077 141.326 177.337 141.086 176.708C140.852 176.08 140.503 175.591 140.04 175.243C139.583 174.894 139.02 174.72 138.352 174.72C137.66 174.72 137.083 174.9 136.62 175.26C136.157 175.62 135.809 176.117 135.575 176.751C135.34 177.385 135.223 178.111 135.223 178.928C135.223 179.751 135.34 180.486 135.575 181.131C135.815 181.771 136.166 182.277 136.629 182.649C137.097 183.014 137.672 183.197 138.352 183.197ZM151.593 185.777C150.759 185.777 150.007 185.629 149.339 185.331C148.676 185.029 148.15 184.583 147.761 183.994C147.379 183.406 147.187 182.68 147.187 181.817C147.187 181.074 147.324 180.46 147.599 179.974C147.873 179.488 148.247 179.1 148.721 178.808C149.196 178.517 149.73 178.297 150.324 178.148C150.924 177.994 151.544 177.883 152.184 177.814C152.956 177.734 153.582 177.663 154.062 177.6C154.542 177.531 154.89 177.428 155.107 177.291C155.33 177.148 155.442 176.928 155.442 176.631V176.58C155.442 175.934 155.25 175.434 154.867 175.08C154.484 174.725 153.933 174.548 153.213 174.548C152.453 174.548 151.85 174.714 151.404 175.045C150.964 175.377 150.667 175.768 150.513 176.22L147.616 175.808C147.844 175.008 148.221 174.34 148.747 173.803C149.273 173.26 149.916 172.854 150.676 172.585C151.436 172.311 152.276 172.174 153.196 172.174C153.83 172.174 154.462 172.248 155.09 172.397C155.719 172.545 156.293 172.791 156.813 173.134C157.333 173.471 157.75 173.931 158.065 174.514C158.385 175.097 158.545 175.825 158.545 176.7V185.511H155.562V183.703H155.459C155.27 184.069 155.005 184.411 154.662 184.731C154.324 185.046 153.899 185.3 153.384 185.494C152.876 185.683 152.279 185.777 151.593 185.777ZM152.399 183.497C153.022 183.497 153.562 183.374 154.019 183.129C154.476 182.877 154.827 182.546 155.073 182.134C155.325 181.723 155.45 181.274 155.45 180.788V179.237C155.353 179.317 155.187 179.391 154.953 179.46C154.724 179.528 154.467 179.588 154.182 179.64C153.896 179.691 153.613 179.737 153.333 179.777C153.053 179.817 152.81 179.851 152.604 179.88C152.142 179.943 151.727 180.046 151.362 180.188C150.996 180.331 150.707 180.531 150.496 180.788C150.284 181.04 150.179 181.366 150.179 181.766C150.179 182.337 150.387 182.769 150.804 183.06C151.222 183.351 151.753 183.497 152.399 183.497ZM168.239 172.345V174.745H160.67V172.345H168.239ZM162.539 169.191H165.642V181.551C165.642 181.969 165.705 182.289 165.831 182.511C165.962 182.729 166.133 182.877 166.345 182.957C166.556 183.037 166.791 183.077 167.048 183.077C167.242 183.077 167.419 183.063 167.579 183.034C167.745 183.006 167.871 182.98 167.956 182.957L168.479 185.383C168.314 185.44 168.076 185.503 167.768 185.571C167.465 185.64 167.093 185.68 166.653 185.691C165.876 185.714 165.176 185.597 164.553 185.34C163.931 185.077 163.436 184.671 163.07 184.123C162.71 183.574 162.533 182.889 162.539 182.066V169.191ZM176.522 185.769C175.202 185.769 174.062 185.494 173.102 184.946C172.147 184.391 171.413 183.609 170.899 182.597C170.384 181.58 170.127 180.383 170.127 179.006C170.127 177.651 170.384 176.463 170.899 175.44C171.419 174.411 172.144 173.611 173.076 173.04C174.007 172.462 175.102 172.174 176.359 172.174C177.17 172.174 177.936 172.305 178.656 172.568C179.382 172.825 180.022 173.225 180.576 173.768C181.136 174.311 181.576 175.003 181.896 175.843C182.216 176.677 182.376 177.671 182.376 178.826V179.777H171.584V177.686H179.402C179.396 177.091 179.267 176.563 179.016 176.1C178.765 175.631 178.413 175.263 177.962 174.994C177.516 174.725 176.996 174.591 176.402 174.591C175.767 174.591 175.21 174.745 174.73 175.054C174.25 175.357 173.876 175.757 173.607 176.254C173.344 176.745 173.21 177.285 173.204 177.874V179.7C173.204 180.466 173.344 181.123 173.624 181.671C173.904 182.214 174.296 182.631 174.799 182.923C175.302 183.209 175.89 183.351 176.564 183.351C177.016 183.351 177.425 183.289 177.79 183.163C178.156 183.031 178.473 182.84 178.742 182.589C179.01 182.337 179.213 182.026 179.35 181.654L182.248 181.98C182.065 182.746 181.716 183.414 181.202 183.986C180.693 184.551 180.042 184.991 179.247 185.306C178.453 185.614 177.545 185.769 176.522 185.769Z" fill="#212528"/>
</g>
<defs>
<filter id="filter0_d_413_149" x="-1.52588e-05" y="0" width="229.31" height="229.31" filterUnits="userSpaceOnUse" color-interpolation-filters="sRGB">
<feFlood flood-opacity="0" result="BackgroundImageFix"/>
<feColorMatrix in="SourceAlpha" type="matrix" values="0 0 0 0 0 0 0 0 0 0 0 0 0 0 0 0 0 0 127 0" result="hardAlpha"/>
<feOffset dx="4.02299" dy="4.02299"/>
<feComposite in2="hardAlpha" operator="out"/>
<feColorMatrix type="matrix" values="0 0 0 0 0.667568 0 0 0 0 0.805297 0 0 0 0 0.932432 0 0 0 1 0"/>
<feBlend mode="normal" in2="BackgroundImageFix" result="effect1_dropShadow_413_149"/>
<feBlend mode="normal" in="SourceGraphic" in2="effect1_dropShadow_413_149" result="shape"/>
</filter>
</defs>
</svg>
