<svg width="530" height="142" viewBox="0 0 530 142" fill="none" xmlns="http://www.w3.org/2000/svg">
<path d="M142 71H387.242" stroke="#1A237E" stroke-width="0.0354308"/>
<path d="M142 0H0V142H142V0Z" fill="#1A237E"/>
<path d="M137.768 4.25439H4.25415V137.768H137.768V4.25439Z" fill="#FEFEFE"/>
<path d="M335.632 0H193.632V142H335.632V0Z" fill="#1A237E"/>
<path d="M331.378 4.25439H197.864V137.768H331.378V4.25439Z" fill="#FEFEFE"/>
<path d="M529.242 0H387.242V142H529.242V0Z" fill="#1A237E"/>
<path d="M525.01 4.25439H391.496V137.768H525.01V4.25439Z" fill="#FEFEFE"/>
<path d="M55.4163 103.309L56.5358 103.22C56.5806 103.668 56.7149 104.026 56.9164 104.317C57.0955 104.608 57.409 104.854 57.812 105.033C58.2151 105.213 58.6853 105.302 59.2002 105.302C59.648 105.302 60.0511 105.235 60.3869 105.101C60.7452 104.966 60.9915 104.765 61.1706 104.541C61.3497 104.295 61.4169 104.048 61.4169 103.757C61.4169 103.488 61.3497 103.242 61.193 103.018C61.0139 102.817 60.7452 102.638 60.3645 102.503C60.1406 102.414 59.6033 102.257 58.7748 102.055C57.9464 101.854 57.3642 101.675 57.0284 101.496C56.603 101.272 56.2895 100.981 56.0656 100.667C55.8641 100.331 55.7521 99.9508 55.7521 99.5254C55.7521 99.0776 55.8865 98.6521 56.1328 98.2491C56.4014 97.8685 56.7821 97.555 57.2747 97.3535C57.7673 97.152 58.327 97.04 58.9316 97.04C59.5809 97.04 60.1854 97.152 60.7004 97.3759C61.193 97.5774 61.596 97.9133 61.8647 98.3163C62.1334 98.7417 62.2901 99.2119 62.3125 99.7493L61.1706 99.8388C61.1034 99.2567 60.9019 98.8313 60.5437 98.5402C60.1854 98.2491 59.6704 98.1148 58.9763 98.1148C58.2598 98.1148 57.7225 98.2267 57.3866 98.4954C57.0732 98.7641 56.894 99.0776 56.894 99.4582C56.894 99.7717 57.0284 100.04 57.2523 100.264C57.4762 100.466 58.0807 100.69 59.0435 100.891C60.0063 101.115 60.678 101.317 61.0363 101.473C61.5512 101.72 61.9543 102.011 62.2006 102.391C62.4468 102.75 62.5812 103.175 62.5812 103.668C62.5812 104.138 62.4468 104.586 62.1558 105.011C61.8871 105.436 61.4841 105.772 60.9915 105.996C60.4765 106.243 59.8943 106.354 59.245 106.354C58.439 106.354 57.7449 106.243 57.2075 105.996C56.6477 105.772 56.2223 105.414 55.9088 104.921C55.5954 104.451 55.4387 103.914 55.4163 103.309Z" fill="black"/>
<path d="M68.3132 105.392C67.9101 105.728 67.5071 105.974 67.1265 106.131C66.7458 106.265 66.3428 106.355 65.9174 106.355C65.2009 106.355 64.6411 106.175 64.2605 105.817C63.8799 105.481 63.6783 105.034 63.6783 104.474C63.6783 104.16 63.7455 103.869 63.9022 103.601C64.0366 103.354 64.2381 103.13 64.462 102.974C64.7083 102.817 64.977 102.705 65.2681 102.615C65.492 102.548 65.8054 102.503 66.2532 102.436C67.1489 102.347 67.7982 102.212 68.2236 102.078C68.2236 101.921 68.2236 101.832 68.2236 101.787C68.2236 101.339 68.134 101.026 67.9101 100.824C67.6415 100.578 67.216 100.466 66.6563 100.466C66.1413 100.466 65.7383 100.555 65.492 100.735C65.2457 100.914 65.0666 101.227 64.9546 101.697L63.8575 101.563C63.9694 101.093 64.1262 100.712 64.3501 100.421C64.574 100.152 64.9098 99.9285 65.3352 99.7718C65.7607 99.615 66.2532 99.5479 66.813 99.5479C67.3728 99.5479 67.8206 99.615 68.1788 99.727C68.5371 99.8613 68.7834 100.04 68.9401 100.242C69.1192 100.421 69.2312 100.69 69.2983 100.981C69.3431 101.182 69.3431 101.518 69.3431 102.011V103.466C69.3431 104.496 69.3655 105.145 69.4103 105.414C69.4551 105.683 69.567 105.952 69.7014 106.198H68.5371C68.4251 105.974 68.3579 105.705 68.3132 105.392ZM68.2236 102.929C67.8206 103.108 67.216 103.242 66.41 103.354C65.9622 103.421 65.6487 103.489 65.4472 103.578C65.2681 103.645 65.1113 103.78 65.0218 103.936C64.9098 104.093 64.865 104.25 64.865 104.451C64.865 104.742 64.977 104.989 65.2009 105.19C65.4248 105.369 65.7383 105.481 66.1861 105.481C66.6115 105.481 66.9921 105.392 67.3056 105.19C67.6415 105.011 67.8877 104.765 68.0445 104.429C68.1564 104.183 68.2236 103.824 68.2236 103.332V102.929Z" fill="black"/>
<path d="M71.0224 106.198V97.1968H72.1419V106.198H71.0224Z" fill="black"/>
<path d="M78.2993 104.093L79.4412 104.25C79.2621 104.899 78.9262 105.437 78.4336 105.795C77.9634 106.153 77.3365 106.355 76.5752 106.355C75.6348 106.355 74.8736 106.041 74.3138 105.459C73.754 104.877 73.4854 104.048 73.4854 102.996C73.4854 101.899 73.754 101.048 74.3362 100.443C74.8959 99.8389 75.6124 99.5479 76.5304 99.5479C77.3813 99.5479 78.0978 99.8389 78.6575 100.421C79.1949 101.026 79.486 101.854 79.486 102.929C79.486 102.996 79.486 103.086 79.4636 103.22H74.6049C74.6497 103.936 74.8512 104.496 75.2094 104.877C75.59 105.257 76.0379 105.437 76.5752 105.437C76.9783 105.437 77.3365 105.325 77.6276 105.123C77.8963 104.899 78.1202 104.563 78.2993 104.093ZM74.672 102.324H78.2993C78.2545 101.765 78.1202 101.361 77.8963 101.093C77.538 100.667 77.0902 100.443 76.5304 100.443C76.0155 100.443 75.59 100.623 75.2542 100.958C74.8959 101.294 74.7168 101.742 74.672 102.324Z" fill="black"/>
<path d="M80.404 104.25L81.5011 104.071C81.5459 104.519 81.725 104.854 82.0161 105.078C82.2848 105.325 82.6878 105.437 83.1804 105.437C83.6954 105.437 84.076 105.325 84.3223 105.123C84.5686 104.922 84.6806 104.675 84.6806 104.407C84.6806 104.16 84.5686 103.959 84.3671 103.802C84.2104 103.712 83.8297 103.601 83.2252 103.444C82.4191 103.242 81.8594 103.063 81.5459 102.906C81.2324 102.75 80.9861 102.548 80.8294 102.279C80.6727 102.033 80.5831 101.742 80.5831 101.406C80.5831 101.115 80.6503 100.846 80.7846 100.6C80.919 100.354 81.0981 100.152 81.322 99.9957C81.5011 99.8613 81.7474 99.7494 82.0385 99.6822C82.3296 99.5926 82.643 99.5479 82.9789 99.5479C83.4939 99.5479 83.9417 99.615 84.3223 99.7718C84.7253 99.9061 85.0164 100.108 85.1955 100.354C85.3747 100.623 85.509 100.958 85.5762 101.384L84.479 101.518C84.4343 101.182 84.2999 100.914 84.0536 100.735C83.8297 100.533 83.4939 100.443 83.0684 100.443C82.5535 100.443 82.1952 100.533 81.9937 100.69C81.7698 100.869 81.6579 101.07 81.6579 101.294C81.6579 101.429 81.7026 101.563 81.7922 101.675C81.8818 101.787 82.0161 101.899 82.2176 101.966C82.3296 102.011 82.643 102.1 83.1804 102.257C83.9641 102.459 84.5238 102.638 84.8149 102.772C85.1284 102.884 85.3747 103.086 85.5538 103.332C85.7329 103.601 85.8225 103.914 85.8225 104.295C85.8225 104.653 85.7105 104.989 85.509 105.325C85.2851 105.638 84.9716 105.907 84.5686 106.086C84.1656 106.265 83.6954 106.355 83.1804 106.355C82.352 106.355 81.7026 106.175 81.2548 105.817C80.807 105.459 80.5159 104.944 80.404 104.25Z" fill="black"/>
<path d="M38.6906 120.259V111.258H41.7805C42.4746 111.258 43.012 111.303 43.3926 111.37C43.9076 111.504 44.333 111.706 44.7136 112.019C45.1838 112.422 45.5421 112.937 45.766 113.564C46.0123 114.191 46.1242 114.907 46.1242 115.714C46.1242 116.385 46.0571 116.99 45.8779 117.527C45.7212 118.042 45.5197 118.49 45.2734 118.826C45.0271 119.184 44.7584 119.453 44.4449 119.654C44.1539 119.856 43.7956 119.99 43.3702 120.102C42.9672 120.214 42.4746 120.259 41.9372 120.259H38.6906ZM39.8773 119.206H41.8029C42.385 119.206 42.8552 119.139 43.1911 119.027C43.5269 118.915 43.7956 118.759 43.9971 118.557C44.2882 118.288 44.4897 117.908 44.6465 117.415C44.8256 116.945 44.8928 116.363 44.8928 115.691C44.8928 114.751 44.736 114.012 44.4226 113.519C44.1315 113.004 43.7508 112.668 43.303 112.489C42.9896 112.377 42.4746 112.31 41.7581 112.31H39.8773V119.206Z" fill="black"/>
<path d="M52.0801 118.154L53.222 118.288C53.0429 118.96 52.707 119.475 52.2145 119.833C51.7443 120.214 51.1173 120.393 50.3561 120.393C49.4157 120.393 48.6544 120.102 48.0946 119.52C47.5349 118.938 47.2662 118.109 47.2662 117.057C47.2662 115.96 47.5349 115.109 48.117 114.504C48.6768 113.9 49.3933 113.586 50.3113 113.586C51.1621 113.586 51.8786 113.878 52.4384 114.482C52.9757 115.064 53.2668 115.915 53.2668 116.99C53.2668 117.057 53.2668 117.147 53.2444 117.281H48.3857C48.4305 117.997 48.632 118.535 48.9902 118.915C49.3709 119.296 49.8187 119.497 50.3561 119.497C50.7591 119.497 51.1173 119.386 51.386 119.162C51.6771 118.96 51.901 118.602 52.0801 118.154ZM48.4529 116.363H52.0801C52.0353 115.825 51.901 115.4 51.6771 115.131C51.3188 114.706 50.871 114.504 50.3113 114.504C49.7963 114.504 49.3709 114.661 49.035 114.997C48.6768 115.355 48.4976 115.803 48.4529 116.363Z" fill="black"/>
<path d="M54.6102 122.767V113.721H55.6178V114.594C55.8641 114.258 56.1328 114.012 56.4239 113.833C56.7373 113.676 57.0956 113.586 57.521 113.586C58.0807 113.586 58.5733 113.743 58.9988 114.012C59.4242 114.303 59.7376 114.706 59.9615 115.221C60.1631 115.758 60.275 116.318 60.275 116.945C60.275 117.617 60.1631 118.199 59.9168 118.736C59.6929 119.274 59.3346 119.677 58.8868 119.968C58.4166 120.259 57.9464 120.393 57.4314 120.393C57.0732 120.393 56.7373 120.326 56.4462 120.169C56.1552 120.012 55.9089 119.811 55.7298 119.565V122.767H54.6102ZM55.6178 117.035C55.6178 117.863 55.7969 118.49 56.1328 118.893C56.4686 119.296 56.8941 119.497 57.3643 119.497C57.8568 119.497 58.2823 119.274 58.6181 118.871C58.9764 118.445 59.1555 117.818 59.1555 116.945C59.1555 116.117 58.9764 115.49 58.6405 115.087C58.3046 114.661 57.8792 114.46 57.409 114.46C56.9388 114.46 56.5358 114.684 56.1776 115.109C55.7969 115.557 55.6178 116.184 55.6178 117.035Z" fill="black"/>
<path d="M65.8726 119.43C65.4696 119.789 65.0666 120.035 64.6859 120.169C64.3053 120.326 63.9023 120.393 63.4768 120.393C62.7603 120.393 62.2006 120.214 61.8199 119.878C61.4393 119.52 61.2378 119.072 61.2378 118.535C61.2378 118.221 61.305 117.93 61.4617 117.661C61.596 117.393 61.7976 117.191 62.0215 117.035C62.2678 116.878 62.5364 116.743 62.8275 116.654C63.0514 116.609 63.3649 116.542 63.8127 116.497C64.7083 116.385 65.3576 116.273 65.783 116.117C65.783 115.96 65.783 115.87 65.783 115.825C65.783 115.378 65.6935 115.064 65.4696 114.885C65.2009 114.639 64.7755 114.504 64.2157 114.504C63.7007 114.504 63.2977 114.594 63.0514 114.773C62.8051 114.975 62.626 115.288 62.514 115.758L61.4169 115.602C61.5289 115.131 61.6856 114.773 61.9095 114.482C62.1334 114.191 62.4693 113.967 62.8947 113.81C63.3201 113.676 63.8127 113.586 64.3725 113.586C64.9322 113.586 65.38 113.654 65.7383 113.788C66.0965 113.922 66.3428 114.079 66.4995 114.281C66.6787 114.482 66.7906 114.728 66.8578 115.042C66.9026 115.221 66.9026 115.557 66.9026 116.049V117.527C66.9026 118.535 66.925 119.184 66.9697 119.475C67.0145 119.744 67.1265 120.012 67.2608 120.259H66.0965C65.9846 120.012 65.9174 119.744 65.8726 119.43ZM65.783 116.99C65.38 117.147 64.7755 117.281 63.9694 117.393C63.5216 117.46 63.2081 117.55 63.0066 117.617C62.8275 117.706 62.6708 117.818 62.5812 117.975C62.4693 118.132 62.4245 118.311 62.4245 118.512C62.4245 118.803 62.5364 119.027 62.7603 119.229C62.9842 119.43 63.2977 119.52 63.7455 119.52C64.1709 119.52 64.5516 119.43 64.865 119.251C65.2009 119.072 65.4472 118.803 65.6039 118.49C65.7159 118.244 65.783 117.863 65.783 117.393V116.99Z" fill="black"/>
<path d="M68.6042 120.259V113.721H69.5894V114.728C69.8357 114.258 70.082 113.967 70.3059 113.81C70.5074 113.654 70.7537 113.586 71 113.586C71.3807 113.586 71.7613 113.698 72.1419 113.945L71.7613 114.952C71.4926 114.818 71.2239 114.728 70.9552 114.728C70.7089 114.728 70.485 114.818 70.3059 114.952C70.1044 115.087 69.9701 115.288 69.8805 115.557C69.7685 115.937 69.7014 116.385 69.7014 116.855V120.259H68.6042Z" fill="black"/>
<path d="M75.2094 119.274L75.3437 120.237C75.0527 120.304 74.7616 120.348 74.5153 120.348C74.1123 120.348 73.7988 120.281 73.5973 120.147C73.3734 120.035 73.2167 119.856 73.1271 119.654C73.0375 119.453 72.9928 119.005 72.9928 118.356V114.594H72.1643V113.721H72.9928V112.109L74.0899 111.459V113.721H75.2094V114.594H74.0899V118.401C74.0899 118.714 74.1123 118.938 74.1571 119.027C74.1794 119.117 74.2466 119.184 74.3362 119.229C74.4257 119.296 74.5601 119.319 74.7168 119.319C74.8512 119.319 75.0079 119.296 75.2094 119.274Z" fill="black"/>
<path d="M76.2841 120.259V113.721H77.2917V114.661C77.4932 114.325 77.7619 114.079 78.0977 113.878C78.4336 113.676 78.8366 113.586 79.262 113.586C79.7322 113.586 80.1353 113.698 80.4487 113.9C80.7622 114.101 80.9637 114.37 81.0981 114.728C81.613 113.967 82.2847 113.586 83.1132 113.586C83.7625 113.586 84.2775 113.766 84.6134 114.124C84.9716 114.482 85.1507 115.042 85.1507 115.781V120.259H84.0312V116.139C84.0312 115.714 84.0088 115.378 83.9416 115.199C83.8521 114.997 83.7401 114.84 83.5386 114.728C83.3595 114.594 83.1356 114.549 82.8669 114.549C82.4191 114.549 82.0385 114.706 81.725 114.997C81.4339 115.31 81.2772 115.803 81.2772 116.475V120.259H80.1577V116.027C80.1577 115.534 80.0681 115.154 79.889 114.907C79.7099 114.661 79.4188 114.549 79.0157 114.549C78.7023 114.549 78.4112 114.639 78.1425 114.796C77.8962 114.952 77.6947 115.199 77.5828 115.512C77.4484 115.825 77.4036 116.273 77.4036 116.878V120.259H76.2841Z" fill="black"/>
<path d="M91.2185 118.154L92.3604 118.288C92.1813 118.96 91.8455 119.475 91.3753 119.833C90.8827 120.214 90.2558 120.393 89.4945 120.393C88.5541 120.393 87.7928 120.102 87.233 119.52C86.6733 118.938 86.4046 118.109 86.4046 117.057C86.4046 115.96 86.6957 115.109 87.2554 114.504C87.8152 113.9 88.5541 113.586 89.4497 113.586C90.3229 113.586 91.017 113.878 91.5768 114.482C92.1365 115.064 92.4052 115.915 92.4052 116.99C92.4052 117.057 92.4052 117.147 92.4052 117.281H87.5465C87.5689 117.997 87.7704 118.535 88.1511 118.915C88.5093 119.296 88.9571 119.497 89.4945 119.497C89.9199 119.497 90.2558 119.386 90.5468 119.162C90.8379 118.96 91.0618 118.602 91.2185 118.154ZM87.5913 116.363H91.2409C91.1961 115.825 91.0394 115.4 90.8155 115.131C90.4573 114.706 90.0095 114.504 89.4497 114.504C88.9347 114.504 88.5093 114.661 88.1734 114.997C87.8376 115.355 87.6361 115.803 87.5913 116.363Z" fill="black"/>
<path d="M93.7711 120.259V113.721H94.7562V114.661C95.2264 113.945 95.9205 113.586 96.8385 113.586C97.2192 113.586 97.5774 113.654 97.9133 113.81C98.2491 113.945 98.4954 114.124 98.6522 114.348C98.8089 114.594 98.9432 114.863 98.988 115.176C99.0328 115.378 99.0552 115.736 99.0552 116.251V120.259H97.9581V116.296C97.9581 115.848 97.9133 115.512 97.8237 115.288C97.7342 115.064 97.5774 114.885 97.3759 114.751C97.152 114.616 96.8833 114.549 96.5922 114.549C96.122 114.549 95.719 114.706 95.3832 114.997C95.0473 115.288 94.8682 115.87 94.8682 116.699V120.259H93.7711Z" fill="black"/>
<path d="M103.153 119.274L103.309 120.237C102.996 120.304 102.727 120.348 102.481 120.348C102.078 120.348 101.764 120.281 101.541 120.147C101.317 120.035 101.182 119.856 101.093 119.654C101.003 119.453 100.958 119.005 100.958 118.356V114.594H100.13V113.721H100.958V112.109L102.056 111.459V113.721H103.153V114.594H102.056V118.401C102.056 118.714 102.078 118.938 102.123 119.027C102.145 119.117 102.212 119.184 102.302 119.229C102.391 119.296 102.526 119.319 102.682 119.319C102.794 119.319 102.974 119.296 103.153 119.274Z" fill="black"/>
<path d="M242.846 106.198V97.1968H248.937V98.2491H244.056V101.07H248.265V102.123H244.056V106.198H242.846Z" fill="black"/>
<path d="M250.325 98.4506V97.1968H251.444V98.4506H250.325ZM250.325 106.198V99.6821H251.444V106.198H250.325Z" fill="black"/>
<path d="M253.124 106.198V99.6822H254.131V100.6C254.601 99.8837 255.295 99.5479 256.191 99.5479C256.594 99.5479 256.952 99.615 257.288 99.7494C257.602 99.8837 257.848 100.085 258.027 100.309C258.184 100.533 258.296 100.802 258.363 101.115C258.408 101.317 258.43 101.675 258.43 102.19V106.198H257.311V102.235C257.311 101.787 257.266 101.451 257.199 101.227C257.109 101.003 256.952 100.824 256.728 100.69C256.505 100.555 256.258 100.488 255.967 100.488C255.497 100.488 255.094 100.645 254.736 100.936C254.4 101.25 254.243 101.809 254.243 102.638V106.198H253.124Z" fill="black"/>
<path d="M264.386 105.392C263.983 105.728 263.58 105.974 263.199 106.131C262.819 106.265 262.416 106.355 261.968 106.355C261.251 106.355 260.714 106.175 260.333 105.817C259.93 105.481 259.751 105.034 259.751 104.474C259.751 104.16 259.818 103.869 259.953 103.601C260.109 103.354 260.311 103.13 260.535 102.974C260.781 102.817 261.027 102.705 261.341 102.615C261.542 102.548 261.878 102.503 262.326 102.436C263.199 102.347 263.871 102.212 264.296 102.078C264.296 101.921 264.296 101.832 264.296 101.787C264.296 101.339 264.185 101.026 263.983 100.824C263.692 100.578 263.289 100.466 262.729 100.466C262.192 100.466 261.811 100.555 261.565 100.735C261.319 100.914 261.139 101.227 261.005 101.697L259.93 101.563C260.042 101.093 260.199 100.712 260.423 100.421C260.647 100.152 260.983 99.9285 261.408 99.7718C261.834 99.615 262.326 99.5479 262.886 99.5479C263.446 99.5479 263.893 99.615 264.252 99.727C264.588 99.8613 264.856 100.04 265.013 100.242C265.17 100.421 265.304 100.69 265.371 100.981C265.394 101.182 265.416 101.518 265.416 102.011V103.466C265.416 104.496 265.438 105.145 265.483 105.414C265.528 105.683 265.618 105.952 265.752 106.198H264.61C264.498 105.974 264.408 105.705 264.386 105.392ZM264.296 102.929C263.893 103.108 263.289 103.242 262.483 103.354C262.035 103.421 261.699 103.489 261.52 103.578C261.319 103.645 261.184 103.78 261.072 103.936C260.983 104.093 260.938 104.25 260.938 104.451C260.938 104.742 261.027 104.989 261.251 105.19C261.498 105.369 261.811 105.481 262.237 105.481C262.662 105.481 263.043 105.392 263.378 105.19C263.714 105.011 263.961 104.765 264.117 104.429C264.229 104.183 264.296 103.824 264.296 103.332V102.929Z" fill="black"/>
<path d="M267.118 106.198V99.6822H268.103V100.6C268.595 99.8837 269.29 99.5479 270.185 99.5479C270.588 99.5479 270.946 99.615 271.26 99.7494C271.596 99.8837 271.842 100.085 271.999 100.309C272.178 100.533 272.29 100.802 272.357 101.115C272.402 101.317 272.402 101.675 272.402 102.19V106.198H271.305V102.235C271.305 101.787 271.26 101.451 271.17 101.227C271.081 101.003 270.946 100.824 270.723 100.69C270.499 100.555 270.252 100.488 269.961 100.488C269.491 100.488 269.088 100.645 268.73 100.936C268.394 101.25 268.215 101.809 268.215 102.638V106.198H267.118Z" fill="black"/>
<path d="M278.38 103.824L279.455 103.959C279.343 104.72 279.029 105.302 278.537 105.705C278.066 106.131 277.462 106.355 276.745 106.355C275.85 106.355 275.133 106.063 274.596 105.459C274.059 104.877 273.79 104.048 273.79 102.974C273.79 102.257 273.902 101.653 274.126 101.115C274.372 100.6 274.73 100.197 275.201 99.9285C275.671 99.6822 276.186 99.5479 276.745 99.5479C277.462 99.5479 278.044 99.727 278.492 100.085C278.94 100.443 279.231 100.936 279.365 101.608L278.29 101.765C278.178 101.317 277.999 101.003 277.753 100.779C277.484 100.555 277.171 100.443 276.79 100.443C276.23 100.443 275.783 100.645 275.447 101.048C275.089 101.451 274.909 102.078 274.909 102.929C274.909 103.802 275.089 104.451 275.424 104.832C275.76 105.235 276.186 105.437 276.723 105.437C277.171 105.437 277.529 105.302 277.82 105.034C278.111 104.787 278.29 104.362 278.38 103.824Z" fill="black"/>
<path d="M284.851 104.093L285.993 104.25C285.814 104.899 285.478 105.437 285.008 105.795C284.515 106.153 283.888 106.355 283.127 106.355C282.186 106.355 281.425 106.041 280.865 105.459C280.306 104.877 280.037 104.048 280.037 102.996C280.037 101.899 280.306 101.048 280.888 100.443C281.447 99.8389 282.186 99.5479 283.082 99.5479C283.955 99.5479 284.649 99.8389 285.209 100.421C285.769 101.026 286.037 101.854 286.037 102.929C286.037 102.996 286.037 103.086 286.037 103.22H281.156C281.201 103.936 281.403 104.496 281.783 104.877C282.142 105.257 282.589 105.437 283.127 105.437C283.53 105.437 283.888 105.325 284.179 105.123C284.448 104.899 284.694 104.563 284.851 104.093ZM281.224 102.324H284.873C284.806 101.765 284.672 101.361 284.448 101.093C284.09 100.667 283.642 100.443 283.082 100.443C282.567 100.443 282.142 100.623 281.806 100.958C281.47 101.294 281.268 101.742 281.224 102.324Z" fill="black"/>
<path d="M232.301 120.259V111.258H235.413C236.107 111.258 236.644 111.303 237.003 111.37C237.518 111.504 237.965 111.706 238.324 112.019C238.816 112.422 239.152 112.937 239.398 113.564C239.645 114.191 239.757 114.907 239.757 115.714C239.757 116.385 239.667 116.99 239.51 117.527C239.354 118.042 239.152 118.49 238.906 118.826C238.637 119.184 238.368 119.453 238.077 119.654C237.786 119.856 237.428 119.99 237.003 120.102C236.577 120.214 236.107 120.259 235.547 120.259H232.301ZM233.51 119.206H235.413C236.017 119.206 236.488 119.139 236.823 119.027C237.159 118.915 237.428 118.759 237.629 118.557C237.898 118.288 238.122 117.908 238.279 117.415C238.436 116.945 238.525 116.363 238.525 115.691C238.525 114.751 238.368 114.012 238.055 113.519C237.741 113.004 237.383 112.668 236.935 112.489C236.622 112.377 236.107 112.31 235.39 112.31H233.51V119.206Z" fill="black"/>
<path d="M245.712 118.154L246.854 118.288C246.675 118.96 246.339 119.475 245.847 119.833C245.354 120.214 244.75 120.393 243.988 120.393C243.026 120.393 242.287 120.102 241.727 119.52C241.167 118.938 240.876 118.109 240.876 117.057C240.876 115.96 241.167 115.109 241.727 114.504C242.287 113.9 243.026 113.586 243.921 113.586C244.794 113.586 245.511 113.878 246.048 114.482C246.608 115.064 246.877 115.915 246.877 116.99C246.877 117.057 246.877 117.147 246.877 117.281H242.018C242.063 117.997 242.264 118.535 242.622 118.915C242.981 119.296 243.451 119.497 243.988 119.497C244.391 119.497 244.727 119.386 245.018 119.162C245.309 118.96 245.533 118.602 245.712 118.154ZM242.085 116.363H245.712C245.668 115.825 245.533 115.4 245.287 115.131C244.951 114.706 244.481 114.504 243.921 114.504C243.429 114.504 243.003 114.661 242.645 114.997C242.309 115.355 242.108 115.803 242.085 116.363Z" fill="black"/>
<path d="M248.243 122.767V113.721H249.25V114.594C249.496 114.258 249.765 114.012 250.056 113.833C250.347 113.676 250.706 113.586 251.131 113.586C251.691 113.586 252.183 113.743 252.609 114.012C253.034 114.303 253.37 114.706 253.571 115.221C253.795 115.758 253.907 116.318 253.907 116.945C253.907 117.617 253.795 118.199 253.549 118.736C253.303 119.274 252.967 119.677 252.497 119.968C252.049 120.259 251.579 120.393 251.064 120.393C250.706 120.393 250.37 120.326 250.079 120.169C249.787 120.012 249.541 119.811 249.362 119.565V122.767H248.243ZM249.25 117.035C249.25 117.863 249.429 118.49 249.765 118.893C250.101 119.296 250.504 119.497 250.997 119.497C251.489 119.497 251.892 119.274 252.25 118.871C252.609 118.445 252.765 117.818 252.765 116.945C252.765 116.117 252.609 115.49 252.25 115.087C251.915 114.661 251.512 114.46 251.041 114.46C250.571 114.46 250.146 114.684 249.787 115.109C249.429 115.557 249.25 116.184 249.25 117.035Z" fill="black"/>
<path d="M259.505 119.43C259.102 119.789 258.699 120.035 258.318 120.169C257.938 120.326 257.535 120.393 257.087 120.393C256.37 120.393 255.833 120.214 255.452 119.878C255.049 119.52 254.87 119.072 254.87 118.535C254.87 118.221 254.937 117.93 255.072 117.661C255.228 117.393 255.407 117.191 255.654 117.035C255.9 116.878 256.146 116.743 256.46 116.654C256.661 116.609 256.997 116.542 257.445 116.497C258.318 116.385 258.99 116.273 259.415 116.117C259.415 115.96 259.415 115.87 259.415 115.825C259.415 115.378 259.303 115.064 259.102 114.885C258.811 114.639 258.408 114.504 257.848 114.504C257.311 114.504 256.93 114.594 256.684 114.773C256.437 114.975 256.258 115.288 256.124 115.758L255.049 115.602C255.161 115.131 255.318 114.773 255.542 114.482C255.766 114.191 256.102 113.967 256.527 113.81C256.952 113.676 257.445 113.586 258.005 113.586C258.564 113.586 259.012 113.654 259.371 113.788C259.706 113.922 259.975 114.079 260.132 114.281C260.289 114.482 260.423 114.728 260.49 115.042C260.512 115.221 260.535 115.557 260.535 116.049V117.527C260.535 118.535 260.557 119.184 260.602 119.475C260.647 119.744 260.736 120.012 260.871 120.259H259.706C259.617 120.012 259.527 119.744 259.505 119.43ZM259.415 116.99C259.012 117.147 258.408 117.281 257.602 117.393C257.154 117.46 256.818 117.55 256.639 117.617C256.437 117.706 256.303 117.818 256.191 117.975C256.102 118.132 256.034 118.311 256.034 118.512C256.034 118.803 256.146 119.027 256.37 119.229C256.594 119.43 256.93 119.52 257.355 119.52C257.781 119.52 258.161 119.43 258.497 119.251C258.833 119.072 259.079 118.803 259.236 118.49C259.348 118.244 259.415 117.863 259.415 117.393V116.99Z" fill="black"/>
<path d="M262.214 120.259V113.721H263.222V114.728C263.468 114.258 263.714 113.967 263.916 113.81C264.14 113.654 264.364 113.586 264.632 113.586C265.013 113.586 265.394 113.698 265.774 113.945L265.371 114.952C265.102 114.818 264.834 114.728 264.565 114.728C264.319 114.728 264.117 114.818 263.916 114.952C263.737 115.087 263.602 115.288 263.513 115.557C263.401 115.937 263.334 116.385 263.334 116.855V120.259H262.214Z" fill="black"/>
<path d="M268.819 119.274L268.976 120.237C268.662 120.304 268.394 120.348 268.147 120.348C267.744 120.348 267.431 120.281 267.207 120.147C266.983 120.035 266.826 119.856 266.737 119.654C266.647 119.453 266.603 119.005 266.603 118.356V114.594H265.797V113.721H266.603V112.109L267.722 111.459V113.721H268.819V114.594H267.722V118.401C267.722 118.714 267.744 118.938 267.767 119.027C267.812 119.117 267.879 119.184 267.968 119.229C268.058 119.296 268.17 119.319 268.349 119.319C268.461 119.319 268.618 119.296 268.819 119.274Z" fill="black"/>
<path d="M269.916 120.259V113.721H270.902V114.661C271.125 114.325 271.394 114.079 271.73 113.878C272.066 113.676 272.446 113.586 272.894 113.586C273.365 113.586 273.768 113.698 274.081 113.9C274.372 114.101 274.596 114.37 274.73 114.728C275.245 113.967 275.917 113.586 276.745 113.586C277.395 113.586 277.887 113.766 278.246 114.124C278.604 114.482 278.761 115.042 278.761 115.781V120.259H277.663V116.139C277.663 115.714 277.619 115.378 277.552 115.199C277.484 114.997 277.35 114.84 277.171 114.728C276.969 114.594 276.745 114.549 276.499 114.549C276.029 114.549 275.648 114.706 275.357 114.997C275.044 115.31 274.887 115.803 274.887 116.475V120.259H273.79V116.027C273.79 115.534 273.7 115.154 273.521 114.907C273.342 114.661 273.051 114.549 272.626 114.549C272.335 114.549 272.043 114.639 271.775 114.796C271.506 114.952 271.327 115.199 271.193 115.512C271.081 115.825 271.014 116.273 271.014 116.878V120.259H269.916Z" fill="black"/>
<path d="M284.851 118.154L285.993 118.288C285.814 118.96 285.478 119.475 284.985 119.833C284.515 120.214 283.888 120.393 283.127 120.393C282.186 120.393 281.425 120.102 280.865 119.52C280.306 118.938 280.037 118.109 280.037 117.057C280.037 115.96 280.306 115.109 280.865 114.504C281.447 113.9 282.164 113.586 283.06 113.586C283.933 113.586 284.649 113.878 285.209 114.482C285.746 115.064 286.037 115.915 286.037 116.99C286.037 117.057 286.037 117.147 286.015 117.281H281.156C281.201 117.997 281.403 118.535 281.761 118.915C282.142 119.296 282.589 119.497 283.127 119.497C283.53 119.497 283.888 119.386 284.157 119.162C284.448 118.96 284.672 118.602 284.851 118.154ZM281.224 116.363H284.851C284.806 115.825 284.672 115.4 284.448 115.131C284.09 114.706 283.642 114.504 283.082 114.504C282.567 114.504 282.142 114.661 281.806 114.997C281.447 115.355 281.268 115.803 281.224 116.363Z" fill="black"/>
<path d="M287.381 120.259V113.721H288.389V114.661C288.859 113.945 289.553 113.586 290.448 113.586C290.851 113.586 291.21 113.654 291.546 113.81C291.859 113.945 292.105 114.124 292.284 114.348C292.441 114.594 292.553 114.863 292.62 115.176C292.665 115.378 292.687 115.736 292.687 116.251V120.259H291.568V116.296C291.568 115.848 291.546 115.512 291.456 115.288C291.366 115.064 291.21 114.885 290.986 114.751C290.784 114.616 290.516 114.549 290.225 114.549C289.754 114.549 289.351 114.706 289.015 114.997C288.657 115.288 288.5 115.87 288.5 116.699V120.259H287.381Z" fill="black"/>
<path d="M296.785 119.274L296.942 120.237C296.628 120.304 296.359 120.348 296.113 120.348C295.71 120.348 295.397 120.281 295.173 120.147C294.949 120.035 294.792 119.856 294.703 119.654C294.613 119.453 294.568 119.005 294.568 118.356V114.594H293.762V113.721H294.568V112.109L295.688 111.459V113.721H296.785V114.594H295.688V118.401C295.688 118.714 295.688 118.938 295.733 119.027C295.777 119.117 295.845 119.184 295.934 119.229C296.024 119.296 296.136 119.319 296.315 119.319C296.427 119.319 296.583 119.296 296.785 119.274Z" fill="black"/>
<path d="M450.943 106.198V98.2491H447.987V97.1968H455.107V98.2491H452.152V106.198H450.943Z" fill="black"/>
<path d="M454.391 102.951C454.391 101.742 454.727 100.846 455.399 100.264C455.958 99.7718 456.652 99.5479 457.458 99.5479C458.354 99.5479 459.093 99.8389 459.653 100.421C460.212 101.003 460.504 101.809 460.504 102.839C460.504 103.69 460.392 104.339 460.123 104.832C459.877 105.302 459.518 105.683 459.026 105.952C458.556 106.22 458.018 106.355 457.458 106.355C456.54 106.355 455.802 106.063 455.242 105.459C454.682 104.877 454.391 104.048 454.391 102.951ZM455.533 102.951C455.533 103.78 455.712 104.407 456.07 104.81C456.451 105.235 456.899 105.437 457.458 105.437C457.996 105.437 458.466 105.235 458.824 104.81C459.183 104.407 459.384 103.757 459.384 102.906C459.384 102.1 459.183 101.496 458.824 101.07C458.466 100.667 457.996 100.466 457.458 100.466C456.899 100.466 456.451 100.667 456.07 101.07C455.712 101.496 455.533 102.123 455.533 102.951Z" fill="black"/>
<path d="M461.802 108.706V99.6822H462.81V100.533C463.056 100.197 463.325 99.9509 463.616 99.7941C463.907 99.615 464.265 99.5479 464.691 99.5479C465.25 99.5479 465.743 99.6822 466.168 99.9733C466.594 100.264 466.93 100.667 467.131 101.182C467.355 101.697 467.467 102.279 467.467 102.884C467.467 103.556 467.355 104.16 467.109 104.698C466.862 105.235 466.527 105.638 466.056 105.929C465.609 106.198 465.116 106.355 464.623 106.355C464.265 106.355 463.929 106.265 463.638 106.108C463.347 105.952 463.101 105.772 462.922 105.526V108.706H461.802ZM462.81 102.974C462.81 103.824 462.989 104.429 463.325 104.832C463.661 105.235 464.064 105.437 464.556 105.437C465.049 105.437 465.452 105.235 465.81 104.81C466.168 104.407 466.325 103.757 466.325 102.884C466.325 102.056 466.168 101.429 465.81 101.026C465.474 100.623 465.071 100.399 464.601 100.399C464.131 100.399 463.705 100.623 463.347 101.07C462.989 101.496 462.81 102.145 462.81 102.974Z" fill="black"/>
<path d="M422.059 120.259V111.258H423.851L425.978 117.617C426.179 118.221 426.313 118.669 426.403 118.96C426.515 118.624 426.672 118.154 426.896 117.505L429.068 111.258H430.657V120.259H429.515V112.713L426.873 120.259H425.821L423.201 112.579V120.259H422.059Z" fill="black"/>
<path d="M436.703 119.43C436.277 119.789 435.897 120.035 435.516 120.169C435.135 120.326 434.732 120.393 434.284 120.393C433.568 120.393 433.008 120.214 432.628 119.878C432.247 119.52 432.045 119.072 432.045 118.535C432.045 118.221 432.135 117.93 432.269 117.661C432.426 117.393 432.605 117.191 432.851 117.035C433.075 116.878 433.344 116.743 433.635 116.654C433.859 116.609 434.195 116.542 434.62 116.497C435.516 116.385 436.188 116.273 436.591 116.117C436.613 115.96 436.613 115.87 436.613 115.825C436.613 115.378 436.501 115.064 436.3 114.885C436.009 114.639 435.583 114.504 435.023 114.504C434.508 114.504 434.128 114.594 433.881 114.773C433.635 114.975 433.434 115.288 433.322 115.758L432.247 115.602C432.336 115.131 432.493 114.773 432.74 114.482C432.963 114.191 433.277 113.967 433.702 113.81C434.128 113.676 434.643 113.586 435.202 113.586C435.762 113.586 436.21 113.654 436.546 113.788C436.904 113.922 437.173 114.079 437.33 114.281C437.486 114.482 437.598 114.728 437.665 115.042C437.71 115.221 437.733 115.557 437.733 116.049V117.527C437.733 118.535 437.755 119.184 437.8 119.475C437.845 119.744 437.934 120.012 438.068 120.259H436.904C436.792 120.012 436.725 119.744 436.703 119.43ZM436.613 116.99C436.21 117.147 435.605 117.281 434.799 117.393C434.329 117.46 434.016 117.55 433.837 117.617C433.635 117.706 433.501 117.818 433.389 117.975C433.299 118.132 433.232 118.311 433.232 118.512C433.232 118.803 433.344 119.027 433.568 119.229C433.792 119.43 434.128 119.52 434.553 119.52C434.979 119.52 435.359 119.43 435.695 119.251C436.031 119.072 436.277 118.803 436.412 118.49C436.546 118.244 436.591 117.863 436.591 117.393L436.613 116.99Z" fill="black"/>
<path d="M439.434 120.259V113.721H440.419V114.661C440.89 113.945 441.584 113.586 442.502 113.586C442.882 113.586 443.241 113.654 443.576 113.81C443.912 113.945 444.159 114.124 444.315 114.348C444.472 114.594 444.584 114.863 444.651 115.176C444.696 115.378 444.718 115.736 444.718 116.251V120.259H443.621V116.296C443.621 115.848 443.576 115.512 443.487 115.288C443.397 115.064 443.241 114.885 443.039 114.751C442.815 114.616 442.546 114.549 442.255 114.549C441.785 114.549 441.382 114.706 441.046 114.997C440.71 115.288 440.531 115.87 440.531 116.699V120.259H439.434Z" fill="black"/>
<path d="M450.674 119.43C450.271 119.789 449.868 120.035 449.488 120.169C449.129 120.326 448.704 120.393 448.278 120.393C447.562 120.393 447.002 120.214 446.622 119.878C446.241 119.52 446.039 119.072 446.039 118.535C446.039 118.221 446.107 117.93 446.263 117.661C446.398 117.393 446.599 117.191 446.823 117.035C447.069 116.878 447.338 116.743 447.629 116.654C447.853 116.609 448.167 116.542 448.614 116.497C449.51 116.385 450.159 116.273 450.585 116.117C450.585 115.96 450.607 115.87 450.607 115.825C450.607 115.378 450.495 115.064 450.271 114.885C450.003 114.639 449.577 114.504 449.017 114.504C448.502 114.504 448.122 114.594 447.875 114.773C447.607 114.975 447.428 115.288 447.316 115.758L446.241 115.602C446.331 115.131 446.487 114.773 446.711 114.482C446.935 114.191 447.271 113.967 447.696 113.81C448.122 113.676 448.614 113.586 449.174 113.586C449.734 113.586 450.204 113.654 450.54 113.788C450.898 113.922 451.144 114.079 451.324 114.281C451.48 114.482 451.592 114.728 451.659 115.042C451.704 115.221 451.727 115.557 451.727 116.049V117.527C451.727 118.535 451.749 119.184 451.794 119.475C451.839 119.744 451.928 120.012 452.062 120.259H450.898C450.786 120.012 450.719 119.744 450.674 119.43ZM450.607 116.99C450.204 117.147 449.6 117.281 448.793 117.393C448.323 117.46 448.01 117.55 447.808 117.617C447.629 117.706 447.472 117.818 447.383 117.975C447.271 118.132 447.226 118.311 447.226 118.512C447.226 118.803 447.338 119.027 447.562 119.229C447.786 119.43 448.122 119.52 448.547 119.52C448.973 119.52 449.353 119.43 449.689 119.251C450.003 119.072 450.249 118.803 450.406 118.49C450.54 118.244 450.585 117.863 450.585 117.393L450.607 116.99Z" fill="black"/>
<path d="M453.204 120.796L454.279 120.953C454.324 121.289 454.458 121.513 454.66 121.669C454.928 121.871 455.309 121.983 455.779 121.983C456.294 121.983 456.697 121.871 456.966 121.669C457.257 121.468 457.436 121.177 457.526 120.819C457.593 120.595 457.615 120.124 457.615 119.408C457.123 119.968 456.518 120.259 455.802 120.259C454.906 120.259 454.212 119.923 453.719 119.296C453.227 118.647 452.98 117.863 452.98 116.967C452.98 116.34 453.092 115.758 453.316 115.243C453.54 114.706 453.876 114.303 454.302 114.012C454.727 113.743 455.242 113.586 455.802 113.586C456.585 113.586 457.212 113.9 457.705 114.527V113.721H458.735V119.363C458.735 120.393 458.623 121.11 458.421 121.535C458.22 121.938 457.884 122.274 457.436 122.52C456.988 122.766 456.451 122.901 455.779 122.901C455.018 122.901 454.391 122.722 453.898 122.363C453.428 122.028 453.204 121.49 453.204 120.796ZM454.122 116.878C454.122 117.729 454.279 118.356 454.637 118.759C454.973 119.139 455.399 119.341 455.914 119.341C456.406 119.341 456.832 119.139 457.19 118.759C457.526 118.356 457.705 117.751 457.705 116.923C457.705 116.117 457.526 115.512 457.167 115.109C456.809 114.706 456.384 114.504 455.891 114.504C455.399 114.504 454.973 114.706 454.637 115.109C454.279 115.512 454.122 116.094 454.122 116.878Z" fill="black"/>
<path d="M464.87 118.154L466.012 118.288C465.833 118.96 465.497 119.475 465.004 119.833C464.534 120.214 463.907 120.393 463.146 120.393C462.205 120.393 461.444 120.102 460.884 119.52C460.325 118.938 460.056 118.109 460.056 117.057C460.056 115.96 460.325 115.109 460.884 114.504C461.444 113.9 462.183 113.586 463.079 113.586C463.952 113.586 464.668 113.878 465.206 114.482C465.765 115.064 466.034 115.915 466.034 116.99C466.034 117.057 466.034 117.147 466.034 117.281H461.175C461.22 117.997 461.422 118.535 461.78 118.915C462.138 119.296 462.608 119.497 463.146 119.497C463.549 119.497 463.907 119.386 464.176 119.162C464.467 118.96 464.691 118.602 464.87 118.154ZM461.243 116.363H464.87C464.825 115.825 464.691 115.4 464.467 115.131C464.109 114.706 463.661 114.504 463.101 114.504C462.586 114.504 462.161 114.661 461.802 114.997C461.466 115.355 461.287 115.803 461.243 116.363Z" fill="black"/>
<path d="M467.4 120.259V113.721H468.407V114.661C468.609 114.325 468.878 114.079 469.214 113.878C469.549 113.676 469.93 113.586 470.378 113.586C470.848 113.586 471.251 113.698 471.565 113.9C471.878 114.101 472.079 114.37 472.214 114.728C472.729 113.967 473.401 113.586 474.229 113.586C474.878 113.586 475.393 113.766 475.729 114.124C476.087 114.482 476.267 115.042 476.267 115.781V120.259H475.147V116.139C475.147 115.714 475.125 115.378 475.035 115.199C474.968 114.997 474.834 114.84 474.654 114.728C474.453 114.594 474.251 114.549 473.983 114.549C473.535 114.549 473.154 114.706 472.841 114.997C472.527 115.31 472.393 115.803 472.393 116.475V120.259H471.273V116.027C471.273 115.534 471.184 115.154 471.005 114.907C470.826 114.661 470.535 114.549 470.132 114.549C469.818 114.549 469.527 114.639 469.258 114.796C468.99 114.952 468.81 115.199 468.699 115.512C468.564 115.825 468.519 116.273 468.519 116.878V120.259H467.4Z" fill="black"/>
<path d="M482.334 118.154L483.476 118.288C483.297 118.96 482.961 119.475 482.491 119.833C481.998 120.214 481.371 120.393 480.61 120.393C479.67 120.393 478.908 120.102 478.349 119.52C477.789 118.938 477.52 118.109 477.52 117.057C477.52 115.96 477.789 115.109 478.371 114.504C478.931 113.9 479.647 113.586 480.565 113.586C481.416 113.586 482.133 113.878 482.692 114.482C483.23 115.064 483.521 115.915 483.521 116.99C483.521 117.057 483.521 117.147 483.521 117.281H478.64C478.685 117.997 478.886 118.535 479.267 118.915C479.625 119.296 480.073 119.497 480.61 119.497C481.013 119.497 481.371 119.386 481.662 119.162C481.931 118.96 482.177 118.602 482.334 118.154ZM478.707 116.363H482.357C482.289 115.825 482.155 115.4 481.931 115.131C481.573 114.706 481.125 114.504 480.565 114.504C480.05 114.504 479.625 114.661 479.289 114.997C478.931 115.355 478.752 115.803 478.707 116.363Z" fill="black"/>
<path d="M484.887 120.259V113.721H485.872V114.661C486.342 113.945 487.036 113.586 487.954 113.586C488.335 113.586 488.693 113.654 489.029 113.81C489.365 113.945 489.611 114.124 489.768 114.348C489.925 114.594 490.037 114.863 490.104 115.176C490.148 115.378 490.171 115.736 490.171 116.251V120.259H489.074V116.296C489.074 115.848 489.029 115.512 488.939 115.288C488.85 115.064 488.693 114.885 488.469 114.751C488.268 114.616 487.999 114.549 487.708 114.549C487.238 114.549 486.835 114.706 486.499 114.997C486.163 115.288 485.984 115.87 485.984 116.699V120.259H484.887Z" fill="black"/>
<path d="M494.268 119.274L494.425 120.237C494.112 120.304 493.843 120.348 493.597 120.348C493.194 120.348 492.88 120.281 492.656 120.147C492.432 120.035 492.276 119.856 492.186 119.654C492.096 119.453 492.052 119.005 492.052 118.356V114.594H491.246V113.721H492.052V112.109L493.171 111.459V113.721H494.268V114.594H493.171V118.401C493.171 118.714 493.194 118.938 493.216 119.027C493.261 119.117 493.328 119.184 493.417 119.229C493.507 119.296 493.619 119.319 493.798 119.319C493.91 119.319 494.067 119.296 494.268 119.274Z" fill="black"/>
<path d="M53.737 66.0964V72.5672C53.737 72.9702 54.0505 73.3061 54.4535 73.3061H59.4466C59.8496 73.3061 60.1854 72.9702 60.1854 72.5672V61.1929L56.5358 64.8201C55.7745 65.5814 54.7893 66.0292 53.737 66.0964Z" fill="#1A237E"/>
<path d="M62.6708 61.1035V72.5674C62.6708 72.9704 62.9842 73.3063 63.3873 73.3063H68.4027C68.8057 73.3063 69.1192 72.9704 69.1192 72.5674V65.8279C67.9773 65.8055 66.925 65.3353 66.1189 64.5516L62.6708 61.1035Z" fill="#1A237E"/>
<path d="M71.627 65.111V72.567C71.627 72.97 71.9404 73.3059 72.3434 73.3059H77.3589C77.7395 73.3059 78.0754 72.97 78.0754 72.567V58.7969L72.3434 64.5288C72.1195 64.7527 71.8732 64.9542 71.627 65.111Z" fill="#1A237E"/>
<path d="M86.539 50.3335L80.5607 56.2893V72.5672C80.5607 72.9702 80.8966 73.3061 81.2996 73.3061H86.2927C86.6957 73.3061 87.0316 72.9702 87.0316 72.5672V50.7813C86.8524 50.6246 86.7405 50.5126 86.6509 50.4231L86.539 50.3335Z" fill="#1A237E"/>
<path d="M90.6364 39.7429C90.3901 39.4966 90.0319 39.3623 89.5841 39.3623H89.4497C87.1211 39.4743 84.7925 39.5862 82.4639 39.6982C82.1505 39.6982 81.725 39.7206 81.3892 40.0564C81.2772 40.1684 81.1877 40.3027 81.1205 40.437C80.7846 41.1759 81.2772 41.6685 81.5011 41.8924L82.0833 42.497C82.4863 42.9 82.8893 43.303 83.3148 43.706L69.2088 57.812L62.8947 51.4755C62.5141 51.0949 61.9991 50.8934 61.4617 50.8934C60.9243 50.8934 60.4094 51.0949 60.0511 51.4755L51.6099 59.8943C51.2069 60.2973 51.0278 60.8123 51.0278 61.3273C51.0278 61.8423 51.2069 62.3573 51.6099 62.7603L51.9906 63.1185C52.3712 63.4992 52.8638 63.7231 53.4235 63.7231C53.9609 63.7231 54.4535 63.4992 54.8341 63.1185L61.4617 56.5134L67.7982 62.8275C68.1564 63.2081 68.6714 63.432 69.2088 63.432C69.7686 63.432 70.2611 63.2081 70.6418 62.8275L86.539 46.9303L88.3302 48.7215C88.5541 48.9454 88.8452 49.2365 89.293 49.2365C89.4945 49.2365 89.6736 49.1917 89.8751 49.0797C90.0095 49.0126 90.1214 48.923 90.211 48.8334C90.5692 48.4752 90.6364 48.0274 90.6588 47.6691C90.726 46.169 90.7932 44.6464 90.8603 43.1239L90.9723 40.8625C90.9947 40.3923 90.8827 40.0116 90.6364 39.7429Z" fill="#1A237E"/>
<path fill-rule="evenodd" clip-rule="evenodd" d="M278.571 41.9111C274.742 38.1047 269.659 36 264.263 36C258.845 36 253.762 38.1047 249.933 41.9111C246.105 45.7398 244 50.8225 244 56.2409C244 61.637 246.105 66.742 249.933 70.5484C253.762 74.3772 258.845 76.4819 264.263 76.4819C269.659 76.4819 274.742 74.3772 278.571 70.5484C282.4 66.742 284.504 61.637 284.504 56.2409C284.504 50.8225 282.4 45.7398 278.571 41.9111Z" fill="#1A237E"/>
<path d="M265.487 48C266.263 48 266.998 48.0863 267.691 48.2589C268.391 48.4316 269.02 48.6401 269.58 48.8847L268.604 51.3661C268.114 51.1576 267.624 50.9921 267.135 50.8699C266.652 50.7404 266.19 50.6757 265.749 50.6757C265.287 50.6757 264.888 50.8159 264.552 51.0964C264.217 51.3697 264.049 51.8481 264.049 52.5314V54.6136H267.985V56.9764H264.049V58.5192C264.049 59.0443 263.968 59.4794 263.807 59.8247C263.646 60.1699 263.443 60.4504 263.198 60.6662C262.961 60.882 262.716 61.0582 262.464 61.1949H270V64H259V61.3243C259.399 61.1445 259.738 60.9503 260.018 60.7417C260.298 60.526 260.511 60.2454 260.658 59.9002C260.812 59.555 260.889 59.1018 260.889 58.5408V56.9764H259.021V54.6136H260.889V52.5098C260.889 51.4237 261.096 50.5534 261.509 49.8989C261.928 49.2371 262.485 48.7552 263.177 48.4531C263.877 48.151 264.647 48 265.487 48Z" fill="white"/>
<path fill-rule="evenodd" clip-rule="evenodd" d="M436.21 54.9011C437.441 53.7592 439.345 53.7592 440.599 54.9011L448.793 63.096C450.025 64.2379 451.95 64.2379 453.182 63.096L475.886 40.4145C477.117 39.2726 479.02 39.2726 480.274 40.4145L480.453 40.5937C481.595 41.8251 481.595 43.7507 480.453 44.9822C471.676 53.9383 462.34 63.2975 453.361 72.2537C452.13 73.3956 450.226 73.3956 448.995 72.2537L436.008 59.2897C434.844 58.0582 434.911 56.1102 436.143 54.9683C436.165 54.9459 436.188 54.9235 436.21 54.9011Z" fill="#1A237E"/>
</svg>
