<svg width="344" height="278" viewBox="0 0 344 278" fill="none" xmlns="http://www.w3.org/2000/svg">
<g filter="url(#filter0_d_425_761)">
<rect x="0.752808" y="198.725" width="339.494" height="75.2759" rx="12.0441" fill="white" shape-rendering="crispEdges"/>
<rect x="2.25281" y="200.225" width="336.494" height="72.2759" rx="10.5441" stroke="#212528" stroke-width="3" shape-rendering="crispEdges"/>
<path d="M69.2803 223.566L67.0221 221.308L64.7638 223.566L62.5055 221.308L60.2472 223.566L57.9889 221.308L55.7307 223.566L53.4724 221.308L51.2141 223.566L48.9558 221.308L46.6975 223.566L44.4393 221.308V251.418L46.6975 249.16L48.9558 251.418L51.2141 249.16L53.4724 251.418L55.7307 249.16L57.9889 251.418L60.2472 249.16L62.5055 251.418L64.7638 249.16L67.0221 251.418L69.2803 249.16L71.5386 251.418V221.308L69.2803 223.566ZM68.5276 247.037H47.4503V225.689H68.5276V247.037ZM48.9558 240.879H67.0221V243.89H48.9558V240.879ZM48.9558 234.857H67.0221V237.868H48.9558V234.857ZM48.9558 228.835H67.0221V231.846H48.9558V228.835Z" fill="#00FF00"/>
<path d="M98.0088 234.464H94.587C94.5245 234.022 94.3969 233.628 94.2042 233.285C94.0115 232.936 93.7641 232.639 93.462 232.394C93.1599 232.149 92.8109 231.962 92.4151 231.832C92.0245 231.701 91.6 231.636 91.1417 231.636C90.3135 231.636 89.5922 231.842 88.9776 232.253C88.363 232.66 87.8865 233.253 87.5479 234.035C87.2094 234.811 87.0401 235.753 87.0401 236.863C87.0401 238.003 87.2094 238.962 87.5479 239.738C87.8917 240.514 88.3708 241.1 88.9854 241.496C89.6 241.891 90.3109 242.089 91.1182 242.089C91.5714 242.089 91.9906 242.029 92.376 241.91C92.7667 241.79 93.113 241.615 93.4151 241.386C93.7172 241.152 93.9672 240.868 94.1651 240.535C94.3682 240.201 94.5089 239.821 94.587 239.394L98.0088 239.41C97.9203 240.144 97.699 240.852 97.3448 241.535C96.9958 242.212 96.5245 242.819 95.9307 243.355C95.3422 243.886 94.6391 244.308 93.8214 244.621C93.0089 244.928 92.0896 245.082 91.0635 245.082C89.6365 245.082 88.3604 244.759 87.2354 244.113C86.1156 243.467 85.2302 242.532 84.5792 241.308C83.9333 240.084 83.6104 238.602 83.6104 236.863C83.6104 235.118 83.9385 233.634 84.5948 232.41C85.251 231.186 86.1417 230.253 87.2667 229.613C88.3917 228.967 89.6573 228.644 91.0635 228.644C91.9906 228.644 92.85 228.774 93.6417 229.035C94.4385 229.295 95.1443 229.675 95.7589 230.175C96.3734 230.67 96.8734 231.277 97.2589 231.996C97.6495 232.714 97.8995 233.537 98.0088 234.464ZM103.7 228.863V244.863H100.372V228.863H103.7ZM111.788 245.097C110.575 245.097 109.525 244.839 108.64 244.324C107.76 243.803 107.08 243.079 106.601 242.152C106.121 241.22 105.882 240.139 105.882 238.91C105.882 237.67 106.121 236.587 106.601 235.66C107.08 234.727 107.76 234.003 108.64 233.488C109.525 232.967 110.575 232.707 111.788 232.707C113.002 232.707 114.049 232.967 114.929 233.488C115.814 234.003 116.496 234.727 116.976 235.66C117.455 236.587 117.694 237.67 117.694 238.91C117.694 240.139 117.455 241.22 116.976 242.152C116.496 243.079 115.814 243.803 114.929 244.324C114.049 244.839 113.002 245.097 111.788 245.097ZM111.804 242.519C112.356 242.519 112.817 242.363 113.187 242.05C113.556 241.733 113.835 241.3 114.023 240.753C114.215 240.207 114.312 239.584 114.312 238.886C114.312 238.188 114.215 237.566 114.023 237.019C113.835 236.472 113.556 236.04 113.187 235.722C112.817 235.404 112.356 235.246 111.804 235.246C111.246 235.246 110.778 235.404 110.398 235.722C110.023 236.04 109.739 236.472 109.546 237.019C109.358 237.566 109.265 238.188 109.265 238.886C109.265 239.584 109.358 240.207 109.546 240.753C109.739 241.3 110.023 241.733 110.398 242.05C110.778 242.363 111.246 242.519 111.804 242.519ZM127.554 239.753V232.863H130.882V244.863H127.687V242.683H127.562C127.291 243.386 126.84 243.951 126.21 244.378C125.585 244.806 124.822 245.019 123.921 245.019C123.119 245.019 122.413 244.837 121.804 244.472C121.194 244.108 120.718 243.589 120.374 242.917C120.036 242.246 119.864 241.441 119.858 240.503V232.863H123.187V239.91C123.192 240.618 123.382 241.178 123.757 241.589C124.132 242.001 124.635 242.207 125.265 242.207C125.666 242.207 126.041 242.115 126.39 241.933C126.739 241.746 127.02 241.47 127.233 241.105C127.452 240.74 127.559 240.29 127.554 239.753ZM137.966 245.058C137.054 245.058 136.229 244.824 135.489 244.355C134.755 243.881 134.172 243.186 133.739 242.269C133.312 241.347 133.099 240.217 133.099 238.878C133.099 237.503 133.32 236.36 133.763 235.449C134.205 234.532 134.794 233.847 135.528 233.394C136.268 232.936 137.078 232.707 137.958 232.707C138.63 232.707 139.19 232.821 139.638 233.05C140.091 233.274 140.455 233.556 140.732 233.894C141.013 234.227 141.226 234.556 141.372 234.878H141.474V228.863H144.794V244.863H141.513V242.941H141.372C141.216 243.274 140.995 243.605 140.708 243.933C140.427 244.256 140.06 244.524 139.607 244.738C139.159 244.951 138.612 245.058 137.966 245.058ZM139.021 242.41C139.557 242.41 140.01 242.264 140.38 241.972C140.755 241.675 141.041 241.261 141.239 240.73C141.442 240.199 141.544 239.576 141.544 238.863C141.544 238.149 141.445 237.529 141.247 237.003C141.049 236.477 140.763 236.071 140.388 235.785C140.013 235.498 139.557 235.355 139.021 235.355C138.474 235.355 138.013 235.503 137.638 235.8C137.263 236.097 136.979 236.509 136.786 237.035C136.593 237.561 136.497 238.17 136.497 238.863C136.497 239.561 136.593 240.178 136.786 240.714C136.984 241.246 137.268 241.662 137.638 241.964C138.013 242.261 138.474 242.41 139.021 242.41ZM152.685 244.863V228.863H159.091C160.268 228.863 161.25 229.037 162.036 229.386C162.823 229.735 163.414 230.22 163.81 230.839C164.205 231.454 164.403 232.162 164.403 232.964C164.403 233.589 164.278 234.139 164.028 234.613C163.778 235.082 163.435 235.467 162.997 235.769C162.565 236.066 162.07 236.277 161.513 236.402V236.558C162.122 236.584 162.692 236.756 163.224 237.074C163.76 237.391 164.195 237.837 164.528 238.41C164.862 238.977 165.028 239.654 165.028 240.441C165.028 241.29 164.817 242.048 164.396 242.714C163.979 243.376 163.362 243.899 162.544 244.285C161.726 244.67 160.718 244.863 159.521 244.863H152.685ZM156.067 242.097H158.825C159.768 242.097 160.455 241.917 160.888 241.558C161.32 241.194 161.536 240.709 161.536 240.105C161.536 239.662 161.429 239.272 161.216 238.933C161.002 238.595 160.698 238.329 160.302 238.136C159.911 237.944 159.445 237.847 158.903 237.847H156.067V242.097ZM156.067 235.558H158.575C159.039 235.558 159.45 235.477 159.81 235.316C160.174 235.149 160.461 234.915 160.669 234.613C160.883 234.311 160.989 233.949 160.989 233.527C160.989 232.949 160.784 232.483 160.372 232.128C159.966 231.774 159.388 231.597 158.638 231.597H156.067V235.558ZM170.589 245.089C169.823 245.089 169.141 244.957 168.542 244.691C167.943 244.42 167.469 244.022 167.12 243.496C166.776 242.964 166.605 242.303 166.605 241.511C166.605 240.845 166.727 240.285 166.972 239.832C167.217 239.378 167.55 239.014 167.972 238.738C168.394 238.462 168.873 238.253 169.409 238.113C169.951 237.972 170.519 237.873 171.112 237.816C171.81 237.743 172.373 237.675 172.8 237.613C173.227 237.545 173.537 237.446 173.73 237.316C173.922 237.186 174.019 236.993 174.019 236.738V236.691C174.019 236.196 173.862 235.813 173.55 235.542C173.243 235.272 172.805 235.136 172.237 235.136C171.638 235.136 171.162 235.269 170.808 235.535C170.454 235.795 170.219 236.123 170.105 236.519L167.026 236.269C167.183 235.54 167.49 234.91 167.948 234.378C168.407 233.842 168.998 233.431 169.722 233.144C170.451 232.852 171.295 232.707 172.253 232.707C172.92 232.707 173.558 232.785 174.167 232.941C174.782 233.097 175.326 233.339 175.8 233.667C176.279 233.996 176.657 234.417 176.933 234.933C177.209 235.444 177.347 236.056 177.347 236.769V244.863H174.19V243.199H174.097C173.904 243.574 173.646 243.904 173.323 244.191C173 244.472 172.612 244.694 172.159 244.855C171.706 245.011 171.183 245.089 170.589 245.089ZM171.542 242.792C172.032 242.792 172.464 242.696 172.839 242.503C173.214 242.306 173.508 242.04 173.722 241.707C173.935 241.373 174.042 240.996 174.042 240.574V239.3C173.938 239.368 173.795 239.431 173.612 239.488C173.435 239.54 173.235 239.589 173.011 239.636C172.787 239.678 172.563 239.717 172.339 239.753C172.115 239.785 171.912 239.813 171.73 239.839C171.339 239.897 170.998 239.988 170.706 240.113C170.414 240.238 170.188 240.407 170.026 240.621C169.865 240.829 169.784 241.089 169.784 241.402C169.784 241.855 169.948 242.201 170.276 242.441C170.61 242.675 171.032 242.792 171.542 242.792ZM189.913 236.285L186.866 236.472C186.814 236.212 186.702 235.977 186.53 235.769C186.358 235.556 186.132 235.386 185.851 235.261C185.575 235.131 185.244 235.066 184.858 235.066C184.343 235.066 183.908 235.175 183.554 235.394C183.2 235.608 183.023 235.894 183.023 236.253C183.023 236.54 183.137 236.782 183.366 236.98C183.595 237.178 183.989 237.337 184.546 237.457L186.718 237.894C187.885 238.134 188.754 238.519 189.327 239.05C189.9 239.582 190.187 240.279 190.187 241.144C190.187 241.931 189.955 242.621 189.491 243.214C189.033 243.808 188.403 244.272 187.601 244.605C186.804 244.933 185.885 245.097 184.843 245.097C183.254 245.097 181.989 244.766 181.046 244.105C180.108 243.438 179.559 242.532 179.398 241.386L182.671 241.214C182.77 241.699 183.01 242.069 183.39 242.324C183.77 242.574 184.257 242.699 184.851 242.699C185.434 242.699 185.903 242.587 186.257 242.363C186.616 242.134 186.799 241.839 186.804 241.48C186.799 241.178 186.671 240.931 186.421 240.738C186.171 240.54 185.786 240.389 185.265 240.285L183.187 239.871C182.015 239.636 181.142 239.23 180.569 238.652C180.002 238.074 179.718 237.337 179.718 236.441C179.718 235.67 179.926 235.006 180.343 234.449C180.765 233.891 181.356 233.462 182.116 233.16C182.882 232.858 183.778 232.707 184.804 232.707C186.319 232.707 187.512 233.027 188.382 233.667C189.257 234.308 189.767 235.181 189.913 236.285ZM197.751 245.097C196.517 245.097 195.454 244.847 194.564 244.347C193.678 243.842 192.996 243.128 192.517 242.207C192.037 241.279 191.798 240.183 191.798 238.917C191.798 237.683 192.037 236.6 192.517 235.667C192.996 234.735 193.67 234.009 194.54 233.488C195.415 232.967 196.441 232.707 197.618 232.707C198.41 232.707 199.147 232.834 199.829 233.089C200.517 233.339 201.116 233.717 201.626 234.222C202.142 234.727 202.543 235.363 202.829 236.128C203.116 236.889 203.259 237.779 203.259 238.8V239.714H193.126V237.652H200.126C200.126 237.173 200.022 236.748 199.814 236.378C199.605 236.009 199.316 235.72 198.946 235.511C198.582 235.298 198.157 235.191 197.673 235.191C197.168 235.191 196.72 235.308 196.329 235.542C195.944 235.772 195.642 236.082 195.423 236.472C195.204 236.858 195.092 237.287 195.087 237.761V239.722C195.087 240.316 195.196 240.829 195.415 241.261C195.639 241.694 195.954 242.027 196.36 242.261C196.767 242.496 197.248 242.613 197.806 242.613C198.176 242.613 198.514 242.561 198.821 242.457C199.129 242.352 199.392 242.196 199.61 241.988C199.829 241.779 199.996 241.524 200.11 241.222L203.189 241.425C203.032 242.165 202.712 242.811 202.228 243.363C201.748 243.91 201.129 244.337 200.368 244.644C199.613 244.946 198.741 245.097 197.751 245.097ZM209.853 245.058C208.941 245.058 208.116 244.824 207.376 244.355C206.642 243.881 206.058 243.186 205.626 242.269C205.199 241.347 204.985 240.217 204.985 238.878C204.985 237.503 205.207 236.36 205.649 235.449C206.092 234.532 206.681 233.847 207.415 233.394C208.155 232.936 208.965 232.707 209.845 232.707C210.517 232.707 211.077 232.821 211.524 233.05C211.978 233.274 212.342 233.556 212.618 233.894C212.899 234.227 213.113 234.556 213.259 234.878H213.36V228.863H216.681V244.863H213.399V242.941H213.259C213.103 243.274 212.881 243.605 212.595 243.933C212.314 244.256 211.946 244.524 211.493 244.738C211.045 244.951 210.498 245.058 209.853 245.058ZM210.907 242.41C211.444 242.41 211.897 242.264 212.267 241.972C212.642 241.675 212.928 241.261 213.126 240.73C213.329 240.199 213.431 239.576 213.431 238.863C213.431 238.149 213.332 237.529 213.134 237.003C212.936 236.477 212.649 236.071 212.274 235.785C211.899 235.498 211.444 235.355 210.907 235.355C210.36 235.355 209.899 235.503 209.524 235.8C209.149 236.097 208.866 236.509 208.673 237.035C208.48 237.561 208.384 238.17 208.384 238.863C208.384 239.561 208.48 240.178 208.673 240.714C208.871 241.246 209.155 241.662 209.524 241.964C209.899 242.261 210.36 242.41 210.907 242.41ZM227.954 228.863V244.863H224.571V228.863H227.954ZM234.003 237.925V244.863H230.675V232.863H233.847V234.98H233.987C234.253 234.282 234.698 233.73 235.323 233.324C235.948 232.912 236.706 232.707 237.597 232.707C238.43 232.707 239.157 232.889 239.776 233.253C240.396 233.618 240.878 234.139 241.222 234.816C241.565 235.488 241.737 236.29 241.737 237.222V244.863H238.409V237.816C238.414 237.082 238.227 236.509 237.847 236.097C237.467 235.681 236.943 235.472 236.276 235.472C235.829 235.472 235.433 235.569 235.089 235.761C234.75 235.954 234.485 236.235 234.292 236.605C234.105 236.97 234.008 237.41 234.003 237.925ZM255.118 232.863L250.923 244.863H247.173L242.978 232.863H246.493L248.985 241.449H249.11L251.595 232.863H255.118ZM261.857 245.097C260.643 245.097 259.593 244.839 258.708 244.324C257.828 243.803 257.148 243.079 256.669 242.152C256.19 241.22 255.95 240.139 255.95 238.91C255.95 237.67 256.19 236.587 256.669 235.66C257.148 234.727 257.828 234.003 258.708 233.488C259.593 232.967 260.643 232.707 261.857 232.707C263.07 232.707 264.117 232.967 264.997 233.488C265.883 234.003 266.565 234.727 267.044 235.66C267.523 236.587 267.763 237.67 267.763 238.91C267.763 240.139 267.523 241.22 267.044 242.152C266.565 243.079 265.883 243.803 264.997 244.324C264.117 244.839 263.07 245.097 261.857 245.097ZM261.872 242.519C262.424 242.519 262.885 242.363 263.255 242.05C263.625 241.733 263.903 241.3 264.091 240.753C264.284 240.207 264.38 239.584 264.38 238.886C264.38 238.188 264.284 237.566 264.091 237.019C263.903 236.472 263.625 236.04 263.255 235.722C262.885 235.404 262.424 235.246 261.872 235.246C261.315 235.246 260.846 235.404 260.466 235.722C260.091 236.04 259.807 236.472 259.614 237.019C259.427 237.566 259.333 238.188 259.333 238.886C259.333 239.584 259.427 240.207 259.614 240.753C259.807 241.3 260.091 241.733 260.466 242.05C260.846 242.363 261.315 242.519 261.872 242.519ZM269.927 244.863V232.863H273.255V244.863H269.927ZM271.599 231.316C271.104 231.316 270.679 231.152 270.325 230.824C269.976 230.49 269.802 230.092 269.802 229.628C269.802 229.17 269.976 228.777 270.325 228.449C270.679 228.115 271.104 227.949 271.599 227.949C272.093 227.949 272.515 228.115 272.864 228.449C273.218 228.777 273.396 229.17 273.396 229.628C273.396 230.092 273.218 230.49 272.864 230.824C272.515 231.152 272.093 231.316 271.599 231.316ZM281.343 245.097C280.114 245.097 279.056 244.837 278.171 244.316C277.291 243.79 276.614 243.061 276.14 242.128C275.671 241.196 275.437 240.123 275.437 238.91C275.437 237.681 275.674 236.602 276.148 235.675C276.627 234.743 277.306 234.016 278.187 233.496C279.067 232.97 280.114 232.707 281.327 232.707C282.374 232.707 283.291 232.897 284.077 233.277C284.864 233.657 285.486 234.191 285.944 234.878C286.403 235.566 286.655 236.373 286.702 237.3H283.562C283.473 236.701 283.239 236.22 282.858 235.855C282.483 235.485 281.991 235.3 281.382 235.3C280.866 235.3 280.416 235.441 280.03 235.722C279.65 235.998 279.353 236.402 279.14 236.933C278.926 237.464 278.819 238.108 278.819 238.863C278.819 239.628 278.924 240.279 279.132 240.816C279.345 241.352 279.645 241.761 280.03 242.042C280.416 242.324 280.866 242.464 281.382 242.464C281.762 242.464 282.103 242.386 282.405 242.23C282.713 242.074 282.965 241.847 283.163 241.55C283.366 241.248 283.499 240.886 283.562 240.464H286.702C286.65 241.381 286.4 242.188 285.952 242.886C285.51 243.579 284.898 244.121 284.116 244.511C283.335 244.902 282.411 245.097 281.343 245.097ZM294.302 245.097C293.067 245.097 292.005 244.847 291.114 244.347C290.229 243.842 289.547 243.128 289.067 242.207C288.588 241.279 288.349 240.183 288.349 238.917C288.349 237.683 288.588 236.6 289.067 235.667C289.547 234.735 290.221 234.009 291.091 233.488C291.966 232.967 292.992 232.707 294.169 232.707C294.961 232.707 295.698 232.834 296.38 233.089C297.067 233.339 297.666 233.717 298.177 234.222C298.692 234.727 299.093 235.363 299.38 236.128C299.666 236.889 299.81 237.779 299.81 238.8V239.714H289.677V237.652H296.677C296.677 237.173 296.573 236.748 296.364 236.378C296.156 236.009 295.867 235.72 295.497 235.511C295.133 235.298 294.708 235.191 294.224 235.191C293.718 235.191 293.271 235.308 292.88 235.542C292.495 235.772 292.192 236.082 291.974 236.472C291.755 236.858 291.643 237.287 291.638 237.761V239.722C291.638 240.316 291.747 240.829 291.966 241.261C292.19 241.694 292.505 242.027 292.911 242.261C293.317 242.496 293.799 242.613 294.357 242.613C294.726 242.613 295.065 242.561 295.372 242.457C295.679 242.352 295.942 242.196 296.161 241.988C296.38 241.779 296.547 241.524 296.661 241.222L299.739 241.425C299.583 242.165 299.263 242.811 298.778 243.363C298.299 243.91 297.679 244.337 296.919 244.644C296.164 244.946 295.291 245.097 294.302 245.097Z" fill="#212528"/>
</g>
<g filter="url(#filter1_d_425_761)">
<rect x="159.961" y="-0.00195312" width="180.662" height="180.662" rx="12.0441" fill="white" shape-rendering="crispEdges"/>
<rect x="161.461" y="1.49805" width="177.662" height="177.662" rx="10.5441" stroke="#212528" stroke-width="3" shape-rendering="crispEdges"/>
<g clip-path="url(#clip0_425_761)">
<path d="M279.748 82.4743C277.022 68.6485 264.88 58.269 250.292 58.269C238.711 58.269 228.652 64.8413 223.643 74.4593C211.58 75.7417 202.202 85.9609 202.202 98.344C202.202 111.609 212.983 122.389 226.247 122.389H278.345C289.406 122.389 298.382 113.412 298.382 102.352C298.382 91.7717 290.167 83.1957 279.748 82.4743ZM278.345 114.374H226.247C217.391 114.374 210.217 107.201 210.217 98.344C210.217 89.4875 217.391 82.314 226.247 82.314H229.093C231.738 73.0567 240.194 66.284 250.292 66.284C262.475 66.284 272.334 76.1425 272.334 88.3253V90.329H278.345C284.997 90.329 290.367 95.6991 290.367 102.352C290.367 109.004 284.997 114.374 278.345 114.374Z" fill="#0074FF"/>
</g>
</g>
<g filter="url(#filter2_d_425_761)">
<rect x="0.376343" y="39.1406" width="141.519" height="141.519" rx="12.0441" fill="white" shape-rendering="crispEdges"/>
<rect x="1.87634" y="40.6406" width="138.519" height="138.519" rx="10.5441" stroke="#212528" stroke-width="3" shape-rendering="crispEdges"/>
<path d="M90.3295 79.1899L105.685 94.5449L90.3295 109.9V98.3837H74.9745V90.7062H90.3295V79.1899ZM63.4583 90.7062C61.3469 90.7062 59.6195 92.4336 59.6195 94.5449C59.6195 96.6563 61.3469 98.3837 63.4583 98.3837C65.5696 98.3837 67.297 96.6563 67.297 94.5449C67.297 92.4336 65.5696 90.7062 63.4583 90.7062ZM48.1033 90.7062C45.9919 90.7062 44.2645 92.4336 44.2645 94.5449C44.2645 96.6563 45.9919 98.3837 48.1033 98.3837C50.2146 98.3837 51.942 96.6563 51.942 94.5449C51.942 92.4336 50.2146 90.7062 48.1033 90.7062ZM51.942 129.094H67.297V121.416H51.942V109.9L36.587 125.255L51.942 140.61V129.094ZM78.8133 129.094C80.9246 129.094 82.652 127.366 82.652 125.255C82.652 123.144 80.9246 121.416 78.8133 121.416C76.7019 121.416 74.9745 123.144 74.9745 125.255C74.9745 127.366 76.7019 129.094 78.8133 129.094ZM94.1683 129.094C96.2796 129.094 98.007 127.366 98.007 125.255C98.007 123.144 96.2796 121.416 94.1683 121.416C92.0569 121.416 90.3295 123.144 90.3295 125.255C90.3295 127.366 92.0569 129.094 94.1683 129.094Z" fill="#F2A50D"/>
</g>
<defs>
<filter id="filter0_d_425_761" x="0.752808" y="198.725" width="342.505" height="78.2869" filterUnits="userSpaceOnUse" color-interpolation-filters="sRGB">
<feFlood flood-opacity="0" result="BackgroundImageFix"/>
<feColorMatrix in="SourceAlpha" type="matrix" values="0 0 0 0 0 0 0 0 0 0 0 0 0 0 0 0 0 0 127 0" result="hardAlpha"/>
<feOffset dx="3.01104" dy="3.01104"/>
<feComposite in2="hardAlpha" operator="out"/>
<feColorMatrix type="matrix" values="0 0 0 0 0.667568 0 0 0 0 0.932432 0 0 0 0 0.667568 0 0 0 1 0"/>
<feBlend mode="normal" in2="BackgroundImageFix" result="effect1_dropShadow_425_761"/>
<feBlend mode="normal" in="SourceGraphic" in2="effect1_dropShadow_425_761" result="shape"/>
</filter>
<filter id="filter1_d_425_761" x="159.961" y="-0.00195312" width="183.673" height="183.673" filterUnits="userSpaceOnUse" color-interpolation-filters="sRGB">
<feFlood flood-opacity="0" result="BackgroundImageFix"/>
<feColorMatrix in="SourceAlpha" type="matrix" values="0 0 0 0 0 0 0 0 0 0 0 0 0 0 0 0 0 0 127 0" result="hardAlpha"/>
<feOffset dx="3.01104" dy="3.01104"/>
<feComposite in2="hardAlpha" operator="out"/>
<feColorMatrix type="matrix" values="0 0 0 0 0.667568 0 0 0 0 0.789405 0 0 0 0 0.932432 0 0 0 1 0"/>
<feBlend mode="normal" in2="BackgroundImageFix" result="effect1_dropShadow_425_761"/>
<feBlend mode="normal" in="SourceGraphic" in2="effect1_dropShadow_425_761" result="shape"/>
</filter>
<filter id="filter2_d_425_761" x="0.376343" y="39.1406" width="144.53" height="144.53" filterUnits="userSpaceOnUse" color-interpolation-filters="sRGB">
<feFlood flood-opacity="0" result="BackgroundImageFix"/>
<feColorMatrix in="SourceAlpha" type="matrix" values="0 0 0 0 0 0 0 0 0 0 0 0 0 0 0 0 0 0 127 0" result="hardAlpha"/>
<feOffset dx="3.01104" dy="3.01104"/>
<feComposite in2="hardAlpha" operator="out"/>
<feColorMatrix type="matrix" values="0 0 0 0 0.932432 0 0 0 0 0.842378 0 0 0 0 0.667568 0 0 0 1 0"/>
<feBlend mode="normal" in2="BackgroundImageFix" result="effect1_dropShadow_425_761"/>
<feBlend mode="normal" in="SourceGraphic" in2="effect1_dropShadow_425_761" result="shape"/>
</filter>
<clipPath id="clip0_425_761">
<rect width="96.18" height="96.18" fill="white" transform="translate(202.202 42.2393)"/>
</clipPath>
</defs>
</svg>
