<svg width="330" height="329" viewBox="0 0 330 329" fill="none" xmlns="http://www.w3.org/2000/svg">
<g filter="url(#filter0_d_393_219)">
<rect width="103.16" height="103.16" rx="11.0037" fill="white" shape-rendering="crispEdges"/>
<rect x="1.5" y="1.5" width="100.16" height="100.16" rx="9.50372" stroke="#212528" stroke-width="3" shape-rendering="crispEdges"/>
<path d="M37.8015 60.0798V42.6253H40.9634V50.6452H41.1765L47.9862 42.6253H51.847L45.097 50.4577L51.9066 60.0798H48.1055L42.8981 52.5969L40.9634 54.881V60.0798H37.8015ZM58.6396 65.2617C57.5316 65.2617 56.5799 65.1111 55.7845 64.8099C54.989 64.5145 54.3498 64.1168 53.8669 63.6168C53.3839 63.1168 53.0487 62.5628 52.8612 61.9548L55.6396 61.2815C55.7646 61.5372 55.9464 61.7901 56.185 62.0401C56.4237 62.2957 56.7447 62.506 57.1481 62.6707C57.5572 62.8412 58.0714 62.9264 58.6907 62.9264C59.5657 62.9264 60.2902 62.7134 60.864 62.2872C61.4379 61.8668 61.7248 61.1736 61.7248 60.2077V57.7276H61.5714C61.4123 58.0457 61.1794 58.3724 60.8725 58.7077C60.5714 59.0429 60.1708 59.3242 59.6708 59.5514C59.1765 59.7787 58.5544 59.8923 57.8044 59.8923C56.7987 59.8923 55.8867 59.6565 55.0686 59.1849C54.2561 58.7077 53.6083 57.9974 53.1254 57.0543C52.6481 56.1054 52.4095 54.9179 52.4095 53.4918C52.4095 52.0543 52.6481 50.8412 53.1254 49.8526C53.6083 48.8582 54.2589 48.1054 55.0771 47.594C55.8953 47.077 56.8072 46.8185 57.8129 46.8185C58.5799 46.8185 59.2106 46.9492 59.7049 47.2105C60.2049 47.4662 60.6027 47.7759 60.8981 48.1395C61.1936 48.4974 61.418 48.8355 61.5714 49.1537H61.7419V46.9889H64.7845V60.2929C64.7845 61.4122 64.5174 62.3384 63.9833 63.0713C63.4492 63.8043 62.7191 64.3526 61.793 64.7162C60.8669 65.0798 59.8157 65.2617 58.6396 65.2617ZM58.6652 57.4719C59.3186 57.4719 59.8754 57.3128 60.3356 56.9946C60.7958 56.6764 61.1453 56.219 61.3839 55.6224C61.6225 55.0259 61.7419 54.3099 61.7419 53.4747C61.7419 52.6509 61.6225 51.9293 61.3839 51.3099C61.1509 50.6906 60.8044 50.2105 60.3441 49.8696C59.8896 49.523 59.3299 49.3497 58.6652 49.3497C57.9777 49.3497 57.4038 49.5287 56.9436 49.8867C56.4833 50.2446 56.1367 50.7361 55.9038 51.3611C55.6708 51.9804 55.5544 52.6849 55.5544 53.4747C55.5544 54.2759 55.6708 54.9776 55.9038 55.5798C56.1424 56.1764 56.4919 56.6423 56.9521 56.9776C57.418 57.3071 57.989 57.4719 58.6652 57.4719Z" fill="#212528"/>
</g>
<g filter="url(#filter1_d_393_219)">
<rect x="111.16" width="103.16" height="103.16" rx="11.0037" fill="white" shape-rendering="crispEdges"/>
<rect x="112.66" y="1.5" width="100.16" height="100.16" rx="9.50372" stroke="#212528" stroke-width="3" shape-rendering="crispEdges"/>
<path d="M150.461 60.0798V42.6253H153.623V50.0145H161.711V42.6253H164.882V60.0798H161.711V52.6651H153.623V60.0798H150.461ZM168.184 60.0798V46.9889H171.176V49.1707H171.312C171.551 48.4151 171.96 47.8327 172.539 47.4236C173.125 47.0088 173.792 46.8014 174.542 46.8014C174.713 46.8014 174.903 46.8099 175.113 46.827C175.329 46.8384 175.508 46.8582 175.65 46.8867V49.7247C175.52 49.6793 175.312 49.6395 175.028 49.6054C174.75 49.5656 174.48 49.5457 174.218 49.5457C173.656 49.5457 173.15 49.6679 172.701 49.9122C172.258 50.1509 171.909 50.4832 171.653 50.9094C171.397 51.3355 171.27 51.827 171.27 52.3838V60.0798H168.184Z" fill="#212528"/>
</g>
<g filter="url(#filter2_d_393_219)">
<rect x="222.32" width="103.16" height="103.16" rx="11.0037" fill="white" shape-rendering="crispEdges"/>
<rect x="223.82" y="1.5" width="100.16" height="100.16" rx="9.50372" stroke="#212528" stroke-width="3" shape-rendering="crispEdges"/>
<path d="M266.965 42.6253V60.0798H264.152L255.928 48.1906H255.783V60.0798H252.621V42.6253H255.451L263.667 54.523H263.82V42.6253H266.965ZM275.984 60.3355C274.706 60.3355 273.598 60.0543 272.66 59.4918C271.723 58.9293 270.995 58.1423 270.478 57.131C269.967 56.1196 269.711 54.9378 269.711 53.5855C269.711 52.2332 269.967 51.0486 270.478 50.0315C270.995 49.0145 271.723 48.2247 272.66 47.6622C273.598 47.0997 274.706 46.8185 275.984 46.8185C277.262 46.8185 278.37 47.0997 279.308 47.6622C280.245 48.2247 280.97 49.0145 281.481 50.0315C281.998 51.0486 282.257 52.2332 282.257 53.5855C282.257 54.9378 281.998 56.1196 281.481 57.131C280.97 58.1423 280.245 58.9293 279.308 59.4918C278.37 60.0543 277.262 60.3355 275.984 60.3355ZM276.001 57.8639C276.694 57.8639 277.274 57.6736 277.74 57.2929C278.206 56.9065 278.552 56.3895 278.78 55.7418C279.012 55.094 279.129 54.3724 279.129 53.577C279.129 52.7759 279.012 52.0514 278.78 51.4037C278.552 50.7503 278.206 50.2304 277.74 49.844C277.274 49.4577 276.694 49.2645 276.001 49.2645C275.291 49.2645 274.7 49.4577 274.228 49.844C273.762 50.2304 273.413 50.7503 273.18 51.4037C272.953 52.0514 272.839 52.7759 272.839 53.577C272.839 54.3724 272.953 55.094 273.18 55.7418C273.413 56.3895 273.762 56.9065 274.228 57.2929C274.7 57.6736 275.291 57.8639 276.001 57.8639ZM295.222 50.4492L292.41 50.756C292.33 50.4719 292.191 50.2048 291.992 49.9548C291.799 49.7048 291.537 49.5031 291.208 49.3497C290.878 49.1963 290.475 49.1196 289.998 49.1196C289.356 49.1196 288.816 49.2588 288.378 49.5372C287.946 49.8156 287.733 50.1764 287.739 50.6196C287.733 51.0003 287.873 51.3099 288.157 51.5486C288.446 51.7872 288.924 51.9832 289.588 52.1367L291.821 52.6139C293.06 52.881 293.981 53.3043 294.583 53.8838C295.191 54.4634 295.498 55.2219 295.503 56.1594C295.498 56.9832 295.256 57.7105 294.779 58.3412C294.307 58.9662 293.651 59.4548 292.81 59.8071C291.969 60.1594 291.003 60.3355 289.912 60.3355C288.31 60.3355 287.02 60.0003 286.043 59.3298C285.066 58.6537 284.483 57.7134 284.296 56.5088L287.304 56.219C287.441 56.8099 287.731 57.256 288.174 57.5571C288.617 57.8582 289.194 58.0088 289.904 58.0088C290.637 58.0088 291.225 57.8582 291.668 57.5571C292.117 57.256 292.341 56.8838 292.341 56.4406C292.341 56.0656 292.196 55.756 291.907 55.5117C291.623 55.2673 291.179 55.0798 290.577 54.9492L288.344 54.4804C287.088 54.219 286.16 53.7787 285.557 53.1594C284.955 52.5344 284.657 51.7446 284.662 50.7901C284.657 49.9832 284.875 49.2844 285.319 48.6935C285.767 48.0969 286.39 47.6367 287.185 47.3128C287.986 46.9832 288.91 46.8185 289.955 46.8185C291.489 46.8185 292.696 47.1452 293.577 47.7986C294.463 48.452 295.012 49.3355 295.222 50.4492Z" fill="#212528"/>
</g>
<g filter="url(#filter3_d_393_219)">
<rect y="111.16" width="103.16" height="103.16" rx="11.0037" fill="white" shape-rendering="crispEdges"/>
<rect x="1.5" y="112.66" width="100.16" height="100.16" rx="9.50372" stroke="#212528" stroke-width="3" shape-rendering="crispEdges"/>
<path d="M42.3044 165.376H45.168L46.864 167.575L48.0742 169.007L50.9805 172.74H47.9123L45.935 170.234L45.0913 169.041L42.3044 165.376ZM51.3981 162.512C51.3981 164.393 51.0458 166.004 50.3413 167.345C49.6424 168.68 48.6879 169.703 47.4777 170.413C46.2731 171.123 44.9066 171.478 43.3782 171.478C41.8498 171.478 40.4805 171.123 39.2703 170.413C38.0657 169.697 37.1112 168.672 36.4066 167.336C35.7078 165.995 35.3583 164.387 35.3583 162.512C35.3583 160.632 35.7078 159.024 36.4066 157.689C37.1112 156.348 38.0657 155.322 39.2703 154.612C40.4805 153.902 41.8498 153.547 43.3782 153.547C44.9066 153.547 46.2731 153.902 47.4777 154.612C48.6879 155.322 49.6424 156.348 50.3413 157.689C51.0458 159.024 51.3981 160.632 51.3981 162.512ZM48.2191 162.512C48.2191 161.189 48.0117 160.072 47.597 159.163C47.1879 158.248 46.6197 157.558 45.8924 157.092C45.1652 156.62 44.3271 156.385 43.3782 156.385C42.4294 156.385 41.5913 156.62 40.864 157.092C40.1367 157.558 39.5657 158.248 39.1509 159.163C38.7419 160.072 38.5373 161.189 38.5373 162.512C38.5373 163.836 38.7419 164.956 39.1509 165.87C39.5657 166.78 40.1367 167.47 40.864 167.941C41.5913 168.407 42.4294 168.64 43.3782 168.64C44.3271 168.64 45.1652 168.407 45.8924 167.941C46.6197 167.47 47.1879 166.78 47.597 165.87C48.0117 164.956 48.2191 163.836 48.2191 162.512ZM60.8115 158.149V160.535H53.2859V158.149H60.8115ZM55.1438 155.012H58.2291V167.302C58.2291 167.717 58.2916 168.035 58.4166 168.257C58.5473 168.473 58.7177 168.62 58.9279 168.7C59.1382 168.78 59.3711 168.819 59.6268 168.819C59.82 168.819 59.9961 168.805 60.1552 168.777C60.32 168.748 60.445 168.723 60.5302 168.7L61.0501 171.112C60.8853 171.169 60.6495 171.231 60.3427 171.299C60.0416 171.368 59.6723 171.407 59.2348 171.419C58.462 171.441 57.766 171.325 57.1467 171.069C56.5274 170.808 56.0359 170.405 55.6723 169.859C55.3143 169.314 55.1382 168.632 55.1438 167.814V155.012ZM66.7582 153.785V171.24H63.673V153.785H66.7582Z" fill="#212528"/>
</g>
<g filter="url(#filter4_d_393_219)">
<rect x="111.16" y="111.16" width="103.16" height="103.16" rx="11.0037" fill="white" shape-rendering="crispEdges"/>
<rect x="112.66" y="112.66" width="100.16" height="100.16" rx="9.50372" stroke="#212528" stroke-width="3" shape-rendering="crispEdges"/>
<path d="M139.703 171.24H136.328L142.473 153.785H146.376L152.53 171.24H149.155L144.493 157.365H144.356L139.703 171.24ZM139.814 164.396H149.018V166.936H139.814V164.396ZM154.692 171.24V158.149H157.641V160.373H157.794C158.067 159.623 158.519 159.038 159.15 158.618C159.78 158.191 160.533 157.978 161.408 157.978C162.294 157.978 163.042 158.194 163.65 158.626C164.263 159.052 164.695 159.635 164.945 160.373H165.081C165.371 159.646 165.86 159.066 166.547 158.635C167.24 158.197 168.061 157.978 169.01 157.978C170.215 157.978 171.198 158.359 171.959 159.12C172.721 159.882 173.101 160.993 173.101 162.453V171.24H170.007V162.93C170.007 162.118 169.792 161.524 169.36 161.149C168.928 160.768 168.4 160.578 167.775 160.578C167.03 160.578 166.448 160.811 166.027 161.277C165.613 161.737 165.405 162.336 165.405 163.075V171.24H162.38V162.802C162.38 162.126 162.175 161.586 161.766 161.183C161.363 160.78 160.834 160.578 160.181 160.578C159.738 160.578 159.334 160.691 158.971 160.919C158.607 161.14 158.317 161.456 158.101 161.865C157.885 162.268 157.777 162.74 157.777 163.28V171.24H154.692ZM176.231 176.149V158.149H179.265V160.314H179.444C179.603 159.995 179.828 159.657 180.118 159.299C180.407 158.936 180.799 158.626 181.294 158.37C181.788 158.109 182.419 157.978 183.186 157.978C184.197 157.978 185.109 158.237 185.922 158.754C186.74 159.265 187.387 160.024 187.865 161.03C188.348 162.03 188.589 163.257 188.589 164.711C188.589 166.149 188.353 167.37 187.882 168.376C187.41 169.382 186.768 170.149 185.956 170.677C185.143 171.206 184.223 171.47 183.194 171.47C182.444 171.47 181.822 171.345 181.328 171.095C180.833 170.845 180.436 170.544 180.135 170.191C179.839 169.833 179.609 169.495 179.444 169.177H179.316V176.149H176.231ZM179.257 164.694C179.257 165.541 179.376 166.282 179.615 166.919C179.859 167.555 180.208 168.052 180.663 168.41C181.123 168.762 181.68 168.939 182.333 168.939C183.015 168.939 183.586 168.757 184.047 168.393C184.507 168.024 184.853 167.521 185.086 166.885C185.325 166.243 185.444 165.512 185.444 164.694C185.444 163.882 185.328 163.16 185.095 162.53C184.862 161.899 184.515 161.405 184.055 161.047C183.595 160.689 183.021 160.51 182.333 160.51C181.674 160.51 181.115 160.683 180.655 161.03C180.194 161.376 179.845 161.862 179.606 162.487C179.373 163.112 179.257 163.848 179.257 164.694Z" fill="#212528"/>
</g>
<g filter="url(#filter5_d_393_219)">
<rect x="222.32" y="111.16" width="103.16" height="103.16" rx="11.0037" fill="white" shape-rendering="crispEdges"/>
<rect x="223.82" y="112.66" width="100.16" height="100.16" rx="9.50372" stroke="#212528" stroke-width="3" shape-rendering="crispEdges"/>
<path d="M263.107 158.583C263.027 157.839 262.692 157.26 262.101 156.845C261.516 156.43 260.755 156.223 259.817 156.223C259.158 156.223 258.593 156.322 258.121 156.521C257.65 156.72 257.289 156.99 257.039 157.331C256.789 157.672 256.661 158.061 256.655 158.498C256.655 158.862 256.738 159.177 256.902 159.444C257.073 159.711 257.303 159.939 257.593 160.126C257.883 160.308 258.204 160.461 258.556 160.586C258.908 160.711 259.263 160.816 259.621 160.902L261.258 161.311C261.917 161.464 262.55 161.672 263.158 161.933C263.772 162.194 264.32 162.524 264.803 162.922C265.292 163.319 265.678 163.799 265.962 164.362C266.246 164.924 266.388 165.583 266.388 166.339C266.388 167.362 266.127 168.262 265.604 169.041C265.081 169.814 264.326 170.419 263.337 170.856C262.354 171.288 261.164 171.504 259.766 171.504C258.408 171.504 257.229 171.294 256.229 170.873C255.235 170.453 254.456 169.839 253.894 169.032C253.337 168.226 253.036 167.243 252.99 166.083H256.101C256.147 166.691 256.334 167.197 256.664 167.601C256.993 168.004 257.422 168.305 257.951 168.504C258.485 168.703 259.081 168.802 259.74 168.802C260.428 168.802 261.03 168.7 261.547 168.495C262.07 168.285 262.479 167.995 262.775 167.626C263.07 167.251 263.221 166.814 263.226 166.314C263.221 165.859 263.087 165.484 262.826 165.189C262.564 164.887 262.198 164.637 261.726 164.439C261.26 164.234 260.715 164.052 260.09 163.893L258.104 163.382C256.667 163.012 255.53 162.453 254.695 161.703C253.865 160.947 253.451 159.944 253.451 158.694C253.451 157.666 253.729 156.765 254.286 155.993C254.848 155.22 255.613 154.62 256.579 154.194C257.544 153.762 258.638 153.547 259.86 153.547C261.098 153.547 262.184 153.762 263.115 154.194C264.053 154.62 264.789 155.214 265.323 155.976C265.857 156.731 266.133 157.601 266.15 158.583H263.107ZM274.866 171.495C273.554 171.495 272.42 171.223 271.466 170.677C270.517 170.126 269.787 169.348 269.275 168.342C268.764 167.331 268.508 166.14 268.508 164.771C268.508 163.424 268.764 162.243 269.275 161.226C269.792 160.203 270.514 159.407 271.44 158.839C272.366 158.265 273.454 157.978 274.704 157.978C275.511 157.978 276.272 158.109 276.988 158.37C277.71 158.626 278.346 159.024 278.897 159.564C279.454 160.103 279.892 160.791 280.21 161.626C280.528 162.456 280.687 163.444 280.687 164.592V165.538H269.957V163.458H277.73C277.724 162.868 277.596 162.342 277.346 161.882C277.096 161.416 276.747 161.049 276.298 160.782C275.855 160.515 275.338 160.382 274.747 160.382C274.116 160.382 273.562 160.535 273.085 160.842C272.608 161.143 272.236 161.541 271.968 162.035C271.707 162.524 271.574 163.061 271.568 163.646V165.461C271.568 166.223 271.707 166.876 271.986 167.422C272.264 167.961 272.653 168.376 273.153 168.666C273.653 168.95 274.238 169.092 274.909 169.092C275.358 169.092 275.764 169.03 276.128 168.905C276.491 168.774 276.807 168.583 277.074 168.333C277.341 168.083 277.542 167.774 277.679 167.405L280.559 167.728C280.378 168.49 280.031 169.155 279.52 169.723C279.014 170.285 278.366 170.723 277.576 171.035C276.787 171.342 275.883 171.495 274.866 171.495ZM289.008 171.495C287.701 171.495 286.579 171.208 285.641 170.635C284.709 170.061 283.99 169.268 283.485 168.257C282.985 167.24 282.735 166.069 282.735 164.745C282.735 163.416 282.99 162.243 283.502 161.226C284.013 160.203 284.735 159.407 285.667 158.839C286.604 158.265 287.712 157.978 288.99 157.978C290.053 157.978 290.993 158.174 291.811 158.566C292.635 158.953 293.292 159.501 293.78 160.211C294.269 160.916 294.547 161.74 294.615 162.683H291.667C291.547 162.052 291.263 161.527 290.814 161.106C290.371 160.68 289.777 160.467 289.033 160.467C288.402 160.467 287.848 160.637 287.371 160.978C286.894 161.314 286.522 161.797 286.255 162.427C285.993 163.058 285.863 163.814 285.863 164.694C285.863 165.586 285.993 166.353 286.255 166.995C286.516 167.632 286.883 168.123 287.354 168.47C287.831 168.811 288.391 168.981 289.033 168.981C289.488 168.981 289.894 168.896 290.252 168.726C290.615 168.549 290.919 168.297 291.164 167.967C291.408 167.637 291.576 167.237 291.667 166.765H294.615C294.542 167.691 294.269 168.512 293.797 169.228C293.326 169.939 292.684 170.495 291.871 170.899C291.059 171.297 290.104 171.495 289.008 171.495Z" fill="#212528"/>
</g>
<g filter="url(#filter6_d_393_219)">
<rect y="222.32" width="103.16" height="103.16" rx="11.0037" fill="white" shape-rendering="crispEdges"/>
<rect x="1.5" y="223.82" width="100.16" height="100.16" rx="9.50372" stroke="#212528" stroke-width="3" shape-rendering="crispEdges"/>
<path d="M31.8015 264.945H35.6708L40.8527 277.593H41.0572L46.239 264.945H50.1083V282.399H47.0742V270.408H46.9123L42.0884 282.348H39.8214L34.9975 270.382H34.8356V282.399H31.8015V264.945ZM59.1254 282.655C57.847 282.655 56.739 282.374 55.8015 281.811C54.864 281.249 54.1367 280.462 53.6197 279.451C53.1083 278.439 52.8527 277.257 52.8527 275.905C52.8527 274.553 53.1083 273.368 53.6197 272.351C54.1367 271.334 54.864 270.544 55.8015 269.982C56.739 269.419 57.847 269.138 59.1254 269.138C60.4038 269.138 61.5117 269.419 62.4492 269.982C63.3867 270.544 64.1112 271.334 64.6225 272.351C65.1396 273.368 65.3981 274.553 65.3981 275.905C65.3981 277.257 65.1396 278.439 64.6225 279.451C64.1112 280.462 63.3867 281.249 62.4492 281.811C61.5117 282.374 60.4038 282.655 59.1254 282.655ZM59.1424 280.184C59.8356 280.184 60.4152 279.993 60.8811 279.612C61.347 279.226 61.6936 278.709 61.9208 278.061C62.1538 277.414 62.2703 276.692 62.2703 275.897C62.2703 275.095 62.1538 274.371 61.9208 273.723C61.6936 273.07 61.347 272.55 60.8811 272.164C60.4152 271.777 59.8356 271.584 59.1424 271.584C58.4322 271.584 57.8413 271.777 57.3697 272.164C56.9038 272.55 56.5544 273.07 56.3214 273.723C56.0941 274.371 55.9805 275.095 55.9805 275.897C55.9805 276.692 56.0941 277.414 56.3214 278.061C56.5544 278.709 56.9038 279.226 57.3697 279.612C57.8413 279.993 58.4322 280.184 59.1424 280.184ZM71.1019 264.945V282.399H68.0167V264.945H71.1019Z" fill="#212528"/>
</g>
<g filter="url(#filter7_d_393_219)">
<rect x="111.16" y="222.32" width="103.16" height="103.16" rx="11.0037" fill="white" shape-rendering="crispEdges"/>
<rect x="112.66" y="223.82" width="100.16" height="100.16" rx="9.50372" stroke="#212528" stroke-width="3" shape-rendering="crispEdges"/>
<path d="M169.74 257.649H163.74V263.649H161.74V257.649H155.74V255.649H161.74V249.649H163.74V255.649H169.74V257.649Z" fill="black"/>
<path d="M142.703 297.15H139.328L145.473 279.696H149.376L155.53 297.15H152.155L147.493 283.275H147.356L142.703 297.15ZM142.814 290.307H152.018V292.846H142.814V290.307ZM162.152 297.381C161.123 297.381 160.203 297.116 159.39 296.588C158.578 296.059 157.936 295.292 157.464 294.287C156.993 293.281 156.757 292.059 156.757 290.622C156.757 289.167 156.995 287.94 157.473 286.94C157.956 285.934 158.606 285.176 159.424 284.665C160.243 284.148 161.155 283.889 162.16 283.889C162.927 283.889 163.558 284.02 164.052 284.281C164.547 284.537 164.939 284.846 165.228 285.21C165.518 285.568 165.743 285.906 165.902 286.224H166.03V279.696H169.123V297.15H166.089V295.088H165.902C165.743 295.406 165.512 295.744 165.211 296.102C164.91 296.454 164.512 296.756 164.018 297.006C163.524 297.256 162.902 297.381 162.152 297.381ZM163.012 294.849C163.666 294.849 164.223 294.673 164.683 294.321C165.143 293.963 165.493 293.466 165.731 292.829C165.97 292.193 166.089 291.452 166.089 290.605C166.089 289.758 165.97 289.023 165.731 288.398C165.498 287.773 165.152 287.287 164.691 286.94C164.237 286.594 163.677 286.42 163.012 286.42C162.325 286.42 161.751 286.599 161.291 286.957C160.831 287.315 160.484 287.809 160.251 288.44C160.018 289.071 159.902 289.792 159.902 290.605C159.902 291.423 160.018 292.153 160.251 292.795C160.49 293.432 160.839 293.934 161.299 294.304C161.765 294.667 162.336 294.849 163.012 294.849ZM177.269 297.381C176.24 297.381 175.32 297.116 174.507 296.588C173.695 296.059 173.053 295.292 172.581 294.287C172.11 293.281 171.874 292.059 171.874 290.622C171.874 289.167 172.113 287.94 172.59 286.94C173.073 285.934 173.723 285.176 174.542 284.665C175.36 284.148 176.272 283.889 177.277 283.889C178.044 283.889 178.675 284.02 179.169 284.281C179.664 284.537 180.056 284.846 180.346 285.21C180.635 285.568 180.86 285.906 181.019 286.224H181.147V279.696H184.24V297.15H181.206V295.088H181.019C180.86 295.406 180.63 295.744 180.329 296.102C180.027 296.454 179.63 296.756 179.135 297.006C178.641 297.256 178.019 297.381 177.269 297.381ZM178.13 294.849C178.783 294.849 179.34 294.673 179.8 294.321C180.26 293.963 180.61 293.466 180.848 292.829C181.087 292.193 181.206 291.452 181.206 290.605C181.206 289.758 181.087 289.023 180.848 288.398C180.615 287.773 180.269 287.287 179.809 286.94C179.354 286.594 178.794 286.42 178.13 286.42C177.442 286.42 176.868 286.599 176.408 286.957C175.948 287.315 175.601 287.809 175.368 288.44C175.135 289.071 175.019 289.792 175.019 290.605C175.019 291.423 175.135 292.153 175.368 292.795C175.607 293.432 175.956 293.934 176.417 294.304C176.882 294.667 177.454 294.849 178.13 294.849Z" fill="#212528"/>
</g>
<defs>
<filter id="filter0_d_393_219" x="0" y="0" width="105.911" height="105.911" filterUnits="userSpaceOnUse" color-interpolation-filters="sRGB">
<feFlood flood-opacity="0" result="BackgroundImageFix"/>
<feColorMatrix in="SourceAlpha" type="matrix" values="0 0 0 0 0 0 0 0 0 0 0 0 0 0 0 0 0 0 127 0" result="hardAlpha"/>
<feOffset dx="2.75093" dy="2.75093"/>
<feComposite in2="hardAlpha" operator="out"/>
<feColorMatrix type="matrix" values="0 0 0 0 0.979608 0 0 0 0 0.800784 0 0 0 0 0.620392 0 0 0 1 0"/>
<feBlend mode="normal" in2="BackgroundImageFix" result="effect1_dropShadow_393_219"/>
<feBlend mode="normal" in="SourceGraphic" in2="effect1_dropShadow_393_219" result="shape"/>
</filter>
<filter id="filter1_d_393_219" x="111.16" y="0" width="105.911" height="105.911" filterUnits="userSpaceOnUse" color-interpolation-filters="sRGB">
<feFlood flood-opacity="0" result="BackgroundImageFix"/>
<feColorMatrix in="SourceAlpha" type="matrix" values="0 0 0 0 0 0 0 0 0 0 0 0 0 0 0 0 0 0 127 0" result="hardAlpha"/>
<feOffset dx="2.75093" dy="2.75093"/>
<feComposite in2="hardAlpha" operator="out"/>
<feColorMatrix type="matrix" values="0 0 0 0 0.979608 0 0 0 0 0.800784 0 0 0 0 0.620392 0 0 0 1 0"/>
<feBlend mode="normal" in2="BackgroundImageFix" result="effect1_dropShadow_393_219"/>
<feBlend mode="normal" in="SourceGraphic" in2="effect1_dropShadow_393_219" result="shape"/>
</filter>
<filter id="filter2_d_393_219" x="222.32" y="0" width="105.911" height="105.911" filterUnits="userSpaceOnUse" color-interpolation-filters="sRGB">
<feFlood flood-opacity="0" result="BackgroundImageFix"/>
<feColorMatrix in="SourceAlpha" type="matrix" values="0 0 0 0 0 0 0 0 0 0 0 0 0 0 0 0 0 0 127 0" result="hardAlpha"/>
<feOffset dx="2.75093" dy="2.75093"/>
<feComposite in2="hardAlpha" operator="out"/>
<feColorMatrix type="matrix" values="0 0 0 0 0.979608 0 0 0 0 0.800784 0 0 0 0 0.620392 0 0 0 1 0"/>
<feBlend mode="normal" in2="BackgroundImageFix" result="effect1_dropShadow_393_219"/>
<feBlend mode="normal" in="SourceGraphic" in2="effect1_dropShadow_393_219" result="shape"/>
</filter>
<filter id="filter3_d_393_219" x="0" y="111.16" width="105.911" height="105.911" filterUnits="userSpaceOnUse" color-interpolation-filters="sRGB">
<feFlood flood-opacity="0" result="BackgroundImageFix"/>
<feColorMatrix in="SourceAlpha" type="matrix" values="0 0 0 0 0 0 0 0 0 0 0 0 0 0 0 0 0 0 127 0" result="hardAlpha"/>
<feOffset dx="2.75093" dy="2.75093"/>
<feComposite in2="hardAlpha" operator="out"/>
<feColorMatrix type="matrix" values="0 0 0 0 0.979608 0 0 0 0 0.800784 0 0 0 0 0.620392 0 0 0 1 0"/>
<feBlend mode="normal" in2="BackgroundImageFix" result="effect1_dropShadow_393_219"/>
<feBlend mode="normal" in="SourceGraphic" in2="effect1_dropShadow_393_219" result="shape"/>
</filter>
<filter id="filter4_d_393_219" x="111.16" y="111.16" width="105.911" height="105.911" filterUnits="userSpaceOnUse" color-interpolation-filters="sRGB">
<feFlood flood-opacity="0" result="BackgroundImageFix"/>
<feColorMatrix in="SourceAlpha" type="matrix" values="0 0 0 0 0 0 0 0 0 0 0 0 0 0 0 0 0 0 127 0" result="hardAlpha"/>
<feOffset dx="2.75093" dy="2.75093"/>
<feComposite in2="hardAlpha" operator="out"/>
<feColorMatrix type="matrix" values="0 0 0 0 0.979608 0 0 0 0 0.800784 0 0 0 0 0.620392 0 0 0 1 0"/>
<feBlend mode="normal" in2="BackgroundImageFix" result="effect1_dropShadow_393_219"/>
<feBlend mode="normal" in="SourceGraphic" in2="effect1_dropShadow_393_219" result="shape"/>
</filter>
<filter id="filter5_d_393_219" x="222.32" y="111.16" width="105.911" height="105.911" filterUnits="userSpaceOnUse" color-interpolation-filters="sRGB">
<feFlood flood-opacity="0" result="BackgroundImageFix"/>
<feColorMatrix in="SourceAlpha" type="matrix" values="0 0 0 0 0 0 0 0 0 0 0 0 0 0 0 0 0 0 127 0" result="hardAlpha"/>
<feOffset dx="2.75093" dy="2.75093"/>
<feComposite in2="hardAlpha" operator="out"/>
<feColorMatrix type="matrix" values="0 0 0 0 0.979608 0 0 0 0 0.800784 0 0 0 0 0.620392 0 0 0 1 0"/>
<feBlend mode="normal" in2="BackgroundImageFix" result="effect1_dropShadow_393_219"/>
<feBlend mode="normal" in="SourceGraphic" in2="effect1_dropShadow_393_219" result="shape"/>
</filter>
<filter id="filter6_d_393_219" x="0" y="222.32" width="105.911" height="105.911" filterUnits="userSpaceOnUse" color-interpolation-filters="sRGB">
<feFlood flood-opacity="0" result="BackgroundImageFix"/>
<feColorMatrix in="SourceAlpha" type="matrix" values="0 0 0 0 0 0 0 0 0 0 0 0 0 0 0 0 0 0 127 0" result="hardAlpha"/>
<feOffset dx="2.75093" dy="2.75093"/>
<feComposite in2="hardAlpha" operator="out"/>
<feColorMatrix type="matrix" values="0 0 0 0 0.979608 0 0 0 0 0.800784 0 0 0 0 0.620392 0 0 0 1 0"/>
<feBlend mode="normal" in2="BackgroundImageFix" result="effect1_dropShadow_393_219"/>
<feBlend mode="normal" in="SourceGraphic" in2="effect1_dropShadow_393_219" result="shape"/>
</filter>
<filter id="filter7_d_393_219" x="111.16" y="222.32" width="105.911" height="105.911" filterUnits="userSpaceOnUse" color-interpolation-filters="sRGB">
<feFlood flood-opacity="0" result="BackgroundImageFix"/>
<feColorMatrix in="SourceAlpha" type="matrix" values="0 0 0 0 0 0 0 0 0 0 0 0 0 0 0 0 0 0 127 0" result="hardAlpha"/>
<feOffset dx="2.75093" dy="2.75093"/>
<feComposite in2="hardAlpha" operator="out"/>
<feColorMatrix type="matrix" values="0 0 0 0 0.979608 0 0 0 0 0.800784 0 0 0 0 0.620392 0 0 0 1 0"/>
<feBlend mode="normal" in2="BackgroundImageFix" result="effect1_dropShadow_393_219"/>
<feBlend mode="normal" in="SourceGraphic" in2="effect1_dropShadow_393_219" result="shape"/>
</filter>
</defs>
</svg>
