<svg width="348" height="203" viewBox="0 0 348 203" fill="none" xmlns="http://www.w3.org/2000/svg">
<g filter="url(#filter0_d_425_516)">
<rect width="161.68" height="114.56" rx="13.76" fill="white" shape-rendering="crispEdges"/>
<rect x="1.5" y="1.5" width="158.68" height="111.56" rx="12.26" stroke="#212528" stroke-width="3" shape-rendering="crispEdges"/>
<path d="M66.3367 66.4401H61.7567V52.7001H57.1767V48.1201H66.3367V66.4401ZM86.1833 61.8601H77.0233V58.8068H83.13C84.8093 58.8068 86.1833 57.4328 86.1833 55.7535V51.1735C86.1833 49.4941 84.8093 48.1201 83.13 48.1201H72.4433V52.7001H81.6033V55.7535H75.4967C73.8173 55.7535 72.4433 57.1274 72.4433 58.8068V66.4401H86.1833V61.8601ZM104.503 63.3868V51.1735C104.503 49.4941 103.129 48.1201 101.45 48.1201H90.7633V52.7001H99.9233V55.7535H93.8167V58.8068H99.9233V61.8601H90.7633V66.4401H101.45C103.129 66.4401 104.503 65.0661 104.503 63.3868Z" fill="black"/>
</g>
<g filter="url(#filter1_d_425_516)">
<rect x="182.68" width="161.68" height="114.56" rx="13.76" fill="white" shape-rendering="crispEdges"/>
<rect x="184.18" y="1.5" width="158.68" height="111.56" rx="12.26" stroke="#212528" stroke-width="3" shape-rendering="crispEdges"/>
<path d="M291 54.2268H286.42V52.7001H280.313V61.8601H286.42V60.3335H291V63.3868C291 65.0661 289.626 66.4401 287.947 66.4401H278.787C277.107 66.4401 275.733 65.0661 275.733 63.3868V51.1735C275.733 49.4941 277.107 48.1201 278.787 48.1201H287.947C289.626 48.1201 291 49.4941 291 51.1735V54.2268ZM251.307 51.1735V66.4401H246.727V61.8601H240.62V66.4401H236.04V51.1735C236.04 49.4941 237.414 48.1201 239.093 48.1201H248.253C249.933 48.1201 251.307 49.4941 251.307 51.1735ZM246.727 52.7001H240.62V57.2801H246.727V52.7001ZM268.1 57.2801C269.779 57.2801 271.153 58.6541 271.153 60.3335V63.3868C271.153 65.0661 269.779 66.4401 268.1 66.4401H255.887V48.1201H268.1C269.779 48.1201 271.153 49.4941 271.153 51.1735V54.2268C271.153 55.9061 269.779 57.2801 268.1 57.2801ZM260.467 52.7001V54.9901H266.573V52.7001H260.467ZM266.573 59.5701H260.467V61.8601H266.573V59.5701Z" fill="black"/>
</g>
<g filter="url(#filter2_d_425_516)">
<rect y="130.56" width="68.8" height="68.8" rx="13.76" fill="white" shape-rendering="crispEdges"/>
<rect x="1.5" y="132.06" width="65.8" height="65.8" rx="12.26" stroke="#212528" stroke-width="3" shape-rendering="crispEdges"/>
<path d="M47.3 150.34L44.72 147.76L42.14 150.34L39.56 147.76L36.98 150.34L34.4 147.76L31.82 150.34L29.24 147.76L26.66 150.34L24.08 147.76V171.84H18.92V177C18.92 179.855 21.2248 182.16 24.08 182.16H44.72C47.5752 182.16 49.88 179.855 49.88 177V147.76L47.3 150.34ZM39.56 178.72H24.08C23.134 178.72 22.36 177.946 22.36 177V175.28H39.56V178.72ZM46.44 177C46.44 177.946 45.666 178.72 44.72 178.72C43.774 178.72 43 177.946 43 177V171.84H27.52V152.92H46.44V177Z" fill="#0080FF"/>
<path d="M39.56 156.36H29.24V159.8H39.56V156.36Z" fill="#0080FF"/>
<path d="M44.72 156.36H41.28V159.8H44.72V156.36Z" fill="#0080FF"/>
<path d="M39.56 161.52H29.24V164.96H39.56V161.52Z" fill="#0080FF"/>
<path d="M44.72 161.52H41.28V164.96H44.72V161.52Z" fill="#0080FF"/>
</g>
<g filter="url(#filter3_d_425_516)">
<rect x="89.8" y="130.56" width="254.56" height="68.8" rx="13.76" fill="white" shape-rendering="crispEdges"/>
<rect x="91.3" y="132.06" width="251.56" height="65.8" rx="12.26" stroke="#212528" stroke-width="3" shape-rendering="crispEdges"/>
<path d="M141.508 154.444L139.456 152.393C138.134 151.07 135.981 151.07 134.658 152.393L115.381 171.67V178.519H122.231L141.508 159.242C142.847 157.92 142.847 155.767 141.508 154.444ZM120.824 175.128H118.772V173.077L133.454 158.394L135.506 160.446L120.824 175.128ZM128.945 178.519L135.726 171.737H145.899V178.519H128.945Z" fill="#3F4346"/>
<path d="M174.783 162.116H171.05C170.981 161.633 170.842 161.204 170.632 160.829C170.422 160.449 170.152 160.125 169.822 159.858C169.493 159.591 169.112 159.386 168.68 159.244C168.254 159.102 167.791 159.031 167.291 159.031C166.388 159.031 165.601 159.255 164.93 159.704C164.26 160.147 163.74 160.795 163.371 161.647C163.001 162.494 162.817 163.522 162.817 164.733C162.817 165.977 163.001 167.022 163.371 167.869C163.746 168.716 164.268 169.355 164.939 169.787C165.609 170.218 166.385 170.434 167.266 170.434C167.76 170.434 168.217 170.369 168.638 170.238C169.064 170.108 169.442 169.917 169.771 169.667C170.101 169.412 170.373 169.102 170.589 168.738C170.811 168.375 170.964 167.96 171.05 167.494L174.783 167.511C174.686 168.312 174.445 169.085 174.058 169.829C173.677 170.568 173.163 171.23 172.516 171.815C171.873 172.395 171.106 172.855 170.214 173.196C169.328 173.531 168.325 173.699 167.206 173.699C165.649 173.699 164.257 173.346 163.03 172.642C161.808 171.937 160.842 170.917 160.132 169.582C159.427 168.247 159.075 166.63 159.075 164.733C159.075 162.829 159.433 161.21 160.149 159.875C160.865 158.54 161.837 157.522 163.064 156.824C164.291 156.119 165.672 155.767 167.206 155.767C168.217 155.767 169.155 155.909 170.018 156.193C170.888 156.477 171.658 156.892 172.328 157.437C172.998 157.977 173.544 158.639 173.964 159.423C174.391 160.207 174.663 161.105 174.783 162.116ZM185.756 167.886V160.369H189.386V173.46H185.9V171.082H185.764C185.469 171.849 184.977 172.466 184.29 172.932C183.608 173.397 182.775 173.63 181.793 173.63C180.918 173.63 180.148 173.432 179.483 173.034C178.818 172.636 178.298 172.071 177.923 171.338C177.554 170.605 177.366 169.727 177.361 168.704V160.369H180.991V168.057C180.997 168.829 181.204 169.44 181.614 169.889C182.023 170.338 182.571 170.562 183.258 170.562C183.696 170.562 184.105 170.463 184.486 170.264C184.866 170.059 185.173 169.758 185.406 169.361C185.645 168.963 185.761 168.471 185.756 167.886ZM203.182 164.102L199.859 164.307C199.802 164.022 199.68 163.767 199.492 163.54C199.305 163.307 199.057 163.122 198.751 162.986C198.449 162.843 198.089 162.772 197.668 162.772C197.106 162.772 196.631 162.892 196.245 163.13C195.859 163.363 195.665 163.676 195.665 164.068C195.665 164.38 195.79 164.645 196.04 164.861C196.29 165.076 196.719 165.25 197.327 165.38L199.697 165.858C200.969 166.119 201.918 166.54 202.543 167.119C203.168 167.699 203.481 168.46 203.481 169.403C203.481 170.261 203.228 171.014 202.722 171.662C202.222 172.309 201.535 172.815 200.66 173.179C199.79 173.537 198.788 173.716 197.651 173.716C195.918 173.716 194.538 173.355 193.509 172.633C192.486 171.906 191.887 170.917 191.711 169.667L195.282 169.48C195.39 170.008 195.651 170.412 196.066 170.69C196.481 170.963 197.012 171.099 197.66 171.099C198.296 171.099 198.807 170.977 199.194 170.733C199.586 170.483 199.785 170.162 199.79 169.77C199.785 169.44 199.646 169.17 199.373 168.96C199.1 168.744 198.68 168.579 198.111 168.466L195.844 168.014C194.566 167.758 193.614 167.315 192.989 166.684C192.37 166.054 192.06 165.25 192.06 164.272C192.06 163.432 192.288 162.707 192.742 162.099C193.202 161.491 193.847 161.022 194.677 160.693C195.512 160.363 196.489 160.199 197.609 160.199C199.262 160.199 200.563 160.548 201.512 161.247C202.467 161.946 203.023 162.897 203.182 164.102ZM212.73 160.369V163.096H204.847V160.369H212.73ZM206.636 157.233H210.267V169.437C210.267 169.772 210.318 170.034 210.42 170.221C210.523 170.403 210.665 170.531 210.847 170.605C211.034 170.679 211.25 170.716 211.494 170.716C211.665 170.716 211.835 170.701 212.006 170.673C212.176 170.639 212.307 170.613 212.398 170.596L212.969 173.298C212.787 173.355 212.531 173.42 212.202 173.494C211.872 173.574 211.472 173.622 211 173.639C210.125 173.673 209.358 173.557 208.699 173.29C208.045 173.022 207.537 172.608 207.173 172.045C206.81 171.483 206.631 170.772 206.636 169.915V157.233ZM220.869 173.716C219.545 173.716 218.4 173.434 217.435 172.872C216.474 172.304 215.733 171.514 215.21 170.503C214.687 169.486 214.426 168.307 214.426 166.966C214.426 165.613 214.687 164.432 215.21 163.42C215.733 162.403 216.474 161.613 217.435 161.051C218.4 160.483 219.545 160.199 220.869 160.199C222.193 160.199 223.335 160.483 224.295 161.051C225.261 161.613 226.006 162.403 226.528 163.42C227.051 164.432 227.312 165.613 227.312 166.966C227.312 168.307 227.051 169.486 226.528 170.503C226.006 171.514 225.261 172.304 224.295 172.872C223.335 173.434 222.193 173.716 220.869 173.716ZM220.886 170.903C221.489 170.903 221.991 170.733 222.395 170.392C222.798 170.045 223.102 169.574 223.307 168.977C223.517 168.38 223.622 167.701 223.622 166.94C223.622 166.179 223.517 165.5 223.307 164.903C223.102 164.307 222.798 163.835 222.395 163.488C221.991 163.142 221.489 162.968 220.886 162.968C220.278 162.968 219.767 163.142 219.352 163.488C218.943 163.835 218.633 164.307 218.423 164.903C218.219 165.5 218.116 166.179 218.116 166.94C218.116 167.701 218.219 168.38 218.423 168.977C218.633 169.574 218.943 170.045 219.352 170.392C219.767 170.733 220.278 170.903 220.886 170.903ZM229.673 173.46V160.369H233.133V162.679H233.287C233.56 161.912 234.014 161.307 234.65 160.863C235.287 160.42 236.048 160.199 236.935 160.199C237.832 160.199 238.597 160.423 239.227 160.872C239.858 161.315 240.278 161.917 240.489 162.679H240.625C240.892 161.929 241.375 161.329 242.074 160.88C242.778 160.426 243.611 160.199 244.571 160.199C245.793 160.199 246.784 160.588 247.545 161.366C248.312 162.139 248.696 163.236 248.696 164.656V173.46H245.074V165.372C245.074 164.645 244.881 164.099 244.494 163.736C244.108 163.372 243.625 163.19 243.045 163.19C242.386 163.19 241.872 163.4 241.503 163.821C241.133 164.236 240.949 164.784 240.949 165.466V173.46H237.429V165.295C237.429 164.653 237.244 164.142 236.875 163.761C236.511 163.38 236.031 163.19 235.435 163.19C235.031 163.19 234.668 163.292 234.344 163.497C234.025 163.696 233.773 163.977 233.585 164.341C233.398 164.699 233.304 165.119 233.304 165.602V173.46H229.673ZM271.786 156.005V173.46H268.599L261.005 162.474H260.877V173.46H257.187V156.005H260.425L267.959 166.983H268.113V156.005H271.786ZM278.5 173.707C277.665 173.707 276.92 173.562 276.267 173.272C275.614 172.977 275.097 172.542 274.716 171.968C274.341 171.389 274.153 170.667 274.153 169.804C274.153 169.076 274.287 168.466 274.554 167.971C274.821 167.477 275.185 167.079 275.645 166.778C276.105 166.477 276.628 166.25 277.213 166.096C277.804 165.943 278.423 165.835 279.071 165.772C279.832 165.693 280.446 165.619 280.912 165.551C281.378 165.477 281.716 165.369 281.926 165.227C282.136 165.085 282.241 164.875 282.241 164.596V164.545C282.241 164.005 282.071 163.588 281.73 163.292C281.395 162.997 280.918 162.849 280.298 162.849C279.645 162.849 279.125 162.994 278.739 163.284C278.352 163.568 278.097 163.926 277.972 164.358L274.614 164.085C274.784 163.29 275.119 162.602 275.619 162.022C276.119 161.437 276.764 160.988 277.554 160.676C278.349 160.358 279.27 160.199 280.315 160.199C281.043 160.199 281.739 160.284 282.403 160.454C283.074 160.625 283.668 160.889 284.185 161.247C284.707 161.605 285.119 162.065 285.42 162.628C285.722 163.184 285.872 163.852 285.872 164.63V173.46H282.429V171.645H282.327C282.116 172.054 281.835 172.415 281.483 172.727C281.131 173.034 280.707 173.275 280.213 173.451C279.719 173.622 279.148 173.707 278.5 173.707ZM279.54 171.201C280.074 171.201 280.545 171.096 280.954 170.886C281.364 170.67 281.685 170.38 281.918 170.017C282.15 169.653 282.267 169.241 282.267 168.781V167.392C282.153 167.466 281.997 167.534 281.798 167.596C281.605 167.653 281.386 167.707 281.142 167.758C280.898 167.804 280.653 167.846 280.409 167.886C280.165 167.92 279.943 167.951 279.744 167.98C279.318 168.042 278.946 168.142 278.628 168.278C278.31 168.415 278.062 168.599 277.886 168.832C277.71 169.059 277.622 169.343 277.622 169.684C277.622 170.179 277.801 170.557 278.159 170.818C278.523 171.074 278.983 171.201 279.54 171.201ZM288.689 173.46V160.369H292.149V162.679H292.302C292.575 161.912 293.03 161.307 293.666 160.863C294.302 160.42 295.064 160.199 295.95 160.199C296.848 160.199 297.612 160.423 298.243 160.872C298.873 161.315 299.294 161.917 299.504 162.679H299.641C299.908 161.929 300.391 161.329 301.089 160.88C301.794 160.426 302.626 160.199 303.587 160.199C304.808 160.199 305.8 160.588 306.561 161.366C307.328 162.139 307.712 163.236 307.712 164.656V173.46H304.089V165.372C304.089 164.645 303.896 164.099 303.51 163.736C303.123 163.372 302.641 163.19 302.061 163.19C301.402 163.19 300.888 163.4 300.518 163.821C300.149 164.236 299.964 164.784 299.964 165.466V173.46H296.445V165.295C296.445 164.653 296.26 164.142 295.891 163.761C295.527 163.38 295.047 163.19 294.45 163.19C294.047 163.19 293.683 163.292 293.359 163.497C293.041 163.696 292.788 163.977 292.601 164.341C292.413 164.699 292.32 165.119 292.32 165.602V173.46H288.689ZM316.545 173.716C315.199 173.716 314.04 173.443 313.068 172.897C312.102 172.346 311.358 171.568 310.835 170.562C310.312 169.551 310.051 168.355 310.051 166.974C310.051 165.628 310.312 164.446 310.835 163.429C311.358 162.412 312.094 161.619 313.043 161.051C313.997 160.483 315.116 160.199 316.4 160.199C317.264 160.199 318.068 160.338 318.812 160.616C319.562 160.889 320.216 161.301 320.773 161.852C321.335 162.403 321.773 163.096 322.085 163.932C322.398 164.761 322.554 165.733 322.554 166.846V167.843H311.5V165.593H319.136C319.136 165.071 319.023 164.608 318.795 164.204C318.568 163.801 318.253 163.486 317.849 163.258C317.452 163.025 316.989 162.909 316.46 162.909C315.909 162.909 315.42 163.037 314.994 163.292C314.574 163.542 314.244 163.88 314.006 164.307C313.767 164.727 313.645 165.196 313.639 165.713V167.852C313.639 168.5 313.758 169.059 313.997 169.531C314.241 170.003 314.585 170.366 315.028 170.622C315.472 170.878 315.997 171.005 316.605 171.005C317.008 171.005 317.378 170.949 317.713 170.835C318.048 170.721 318.335 170.551 318.574 170.324C318.812 170.096 318.994 169.818 319.119 169.488L322.477 169.71C322.307 170.517 321.957 171.221 321.429 171.824C320.906 172.42 320.23 172.886 319.4 173.221C318.577 173.551 317.625 173.716 316.545 173.716Z" fill="#212528"/>
</g>
<defs>
<filter id="filter0_d_425_516" x="0" y="0" width="165.12" height="118" filterUnits="userSpaceOnUse" color-interpolation-filters="sRGB">
<feFlood flood-opacity="0" result="BackgroundImageFix"/>
<feColorMatrix in="SourceAlpha" type="matrix" values="0 0 0 0 0 0 0 0 0 0 0 0 0 0 0 0 0 0 127 0" result="hardAlpha"/>
<feOffset dx="3.44" dy="3.44"/>
<feComposite in2="hardAlpha" operator="out"/>
<feColorMatrix type="matrix" values="0 0 0 0 0.667568 0 0 0 0 0.8 0 0 0 0 0.932432 0 0 0 1 0"/>
<feBlend mode="normal" in2="BackgroundImageFix" result="effect1_dropShadow_425_516"/>
<feBlend mode="normal" in="SourceGraphic" in2="effect1_dropShadow_425_516" result="shape"/>
</filter>
<filter id="filter1_d_425_516" x="182.68" y="0" width="165.12" height="118" filterUnits="userSpaceOnUse" color-interpolation-filters="sRGB">
<feFlood flood-opacity="0" result="BackgroundImageFix"/>
<feColorMatrix in="SourceAlpha" type="matrix" values="0 0 0 0 0 0 0 0 0 0 0 0 0 0 0 0 0 0 127 0" result="hardAlpha"/>
<feOffset dx="3.44" dy="3.44"/>
<feComposite in2="hardAlpha" operator="out"/>
<feColorMatrix type="matrix" values="0 0 0 0 0.932432 0 0 0 0 0.842378 0 0 0 0 0.667568 0 0 0 1 0"/>
<feBlend mode="normal" in2="BackgroundImageFix" result="effect1_dropShadow_425_516"/>
<feBlend mode="normal" in="SourceGraphic" in2="effect1_dropShadow_425_516" result="shape"/>
</filter>
<filter id="filter2_d_425_516" x="0" y="130.56" width="72.24" height="72.2398" filterUnits="userSpaceOnUse" color-interpolation-filters="sRGB">
<feFlood flood-opacity="0" result="BackgroundImageFix"/>
<feColorMatrix in="SourceAlpha" type="matrix" values="0 0 0 0 0 0 0 0 0 0 0 0 0 0 0 0 0 0 127 0" result="hardAlpha"/>
<feOffset dx="3.44" dy="3.44"/>
<feComposite in2="hardAlpha" operator="out"/>
<feColorMatrix type="matrix" values="0 0 0 0 0.690435 0 0 0 0 0.909565 0 0 0 0 0.713043 0 0 0 1 0"/>
<feBlend mode="normal" in2="BackgroundImageFix" result="effect1_dropShadow_425_516"/>
<feBlend mode="normal" in="SourceGraphic" in2="effect1_dropShadow_425_516" result="shape"/>
</filter>
<filter id="filter3_d_425_516" x="89.8" y="130.56" width="258" height="72.2398" filterUnits="userSpaceOnUse" color-interpolation-filters="sRGB">
<feFlood flood-opacity="0" result="BackgroundImageFix"/>
<feColorMatrix in="SourceAlpha" type="matrix" values="0 0 0 0 0 0 0 0 0 0 0 0 0 0 0 0 0 0 127 0" result="hardAlpha"/>
<feOffset dx="3.44" dy="3.44"/>
<feComposite in2="hardAlpha" operator="out"/>
<feColorMatrix type="matrix" values="0 0 0 0 0.690435 0 0 0 0 0.909565 0 0 0 0 0.713043 0 0 0 1 0"/>
<feBlend mode="normal" in2="BackgroundImageFix" result="effect1_dropShadow_425_516"/>
<feBlend mode="normal" in="SourceGraphic" in2="effect1_dropShadow_425_516" result="shape"/>
</filter>
</defs>
</svg>
