<svg width="348" height="203" viewBox="0 0 348 203" fill="none" xmlns="http://www.w3.org/2000/svg">
<g filter="url(#filter0_d_425_516)">
<rect width="161.68" height="114.56" rx="13.76" fill="white" shape-rendering="crispEdges"/>
<rect x="1.5" y="1.5" width="158.68" height="111.56" rx="12.26" stroke="#212528" stroke-width="3" shape-rendering="crispEdges"/>
<path d="M66.3367 66.4401H61.7567V52.7001H57.1767V48.1201H66.3367V66.4401ZM86.1833 61.8601H77.0233V58.8068H83.13C84.8093 58.8068 86.1833 57.4328 86.1833 55.7535V51.1735C86.1833 49.4941 84.8093 48.1201 83.13 48.1201H72.4433V52.7001H81.6033V55.7535H75.4967C73.8173 55.7535 72.4433 57.1274 72.4433 58.8068V66.4401H86.1833V61.8601ZM104.503 63.3868V51.1735C104.503 49.4941 103.129 48.1201 101.45 48.1201H90.7633V52.7001H99.9233V55.7535H93.8167V58.8068H99.9233V61.8601H90.7633V66.4401H101.45C103.129 66.4401 104.503 65.0661 104.503 63.3868Z" fill="black"/>
</g>
<g filter="url(#filter1_d_425_516)">
<rect x="182.68" width="161.68" height="114.56" rx="13.76" fill="white" shape-rendering="crispEdges"/>
<rect x="184.18" y="1.5" width="158.68" height="111.56" rx="12.26" stroke="#212528" stroke-width="3" shape-rendering="crispEdges"/>
<path d="M291 54.2268H286.42V52.7001H280.313V61.8601H286.42V60.3335H291V63.3868C291 65.0661 289.626 66.4401 287.947 66.4401H278.787C277.107 66.4401 275.733 65.0661 275.733 63.3868V51.1735C275.733 49.4941 277.107 48.1201 278.787 48.1201H287.947C289.626 48.1201 291 49.4941 291 51.1735V54.2268ZM251.307 51.1735V66.4401H246.727V61.8601H240.62V66.4401H236.04V51.1735C236.04 49.4941 237.414 48.1201 239.093 48.1201H248.253C249.933 48.1201 251.307 49.4941 251.307 51.1735ZM246.727 52.7001H240.62V57.2801H246.727V52.7001ZM268.1 57.2801C269.779 57.2801 271.153 58.6541 271.153 60.3335V63.3868C271.153 65.0661 269.779 66.4401 268.1 66.4401H255.887V48.1201H268.1C269.779 48.1201 271.153 49.4941 271.153 51.1735V54.2268C271.153 55.9061 269.779 57.2801 268.1 57.2801ZM260.467 52.7001V54.9901H266.573V52.7001H260.467ZM266.573 59.5701H260.467V61.8601H266.573V59.5701Z" fill="black"/>
</g>
<g filter="url(#filter2_d_425_516)">
<rect y="130.56" width="68.8" height="68.8" rx="13.76" fill="white" shape-rendering="crispEdges"/>
<rect x="1.5" y="132.06" width="65.8" height="65.8" rx="12.26" stroke="#212528" stroke-width="3" shape-rendering="crispEdges"/>
<path d="M47.3 150.34L44.72 147.76L42.14 150.34L39.56 147.76L36.98 150.34L34.4 147.76L31.82 150.34L29.24 147.76L26.66 150.34L24.08 147.76V171.84H18.92V177C18.92 179.855 21.2248 182.16 24.08 182.16H44.72C47.5752 182.16 49.88 179.855 49.88 177V147.76L47.3 150.34ZM39.56 178.72H24.08C23.134 178.72 22.36 177.946 22.36 177V175.28H39.56V178.72ZM46.44 177C46.44 177.946 45.666 178.72 44.72 178.72C43.774 178.72 43 177.946 43 177V171.84H27.52V152.92H46.44V177Z" fill="#0080FF"/>
<path d="M39.56 156.36H29.24V159.8H39.56V156.36Z" fill="#0080FF"/>
<path d="M44.72 156.36H41.28V159.8H44.72V156.36Z" fill="#0080FF"/>
<path d="M39.56 161.52H29.24V164.96H39.56V161.52Z" fill="#0080FF"/>
<path d="M44.72 161.52H41.28V164.96H44.72V161.52Z" fill="#0080FF"/>
</g>
<g filter="url(#filter3_d_425_516)">
<rect x="89.8" y="130.56" width="254.56" height="68.8" rx="13.76" fill="white" shape-rendering="crispEdges"/>
<rect x="91.3" y="132.06" width="251.56" height="65.8" rx="12.26" stroke="#212528" stroke-width="3" shape-rendering="crispEdges"/>
<path d="M155.508 154.444L153.456 152.393C152.134 151.07 149.981 151.07 148.658 152.393L129.381 171.67V178.519H136.231L155.508 159.242C156.847 157.92 156.847 155.767 155.508 154.444ZM134.824 175.128H132.772V173.077L147.454 158.394L149.506 160.446L134.824 175.128ZM142.945 178.519L149.726 171.737H159.899V178.519H142.945Z" fill="#3F4346"/>
<path d="M188.783 162.116H185.05C184.981 161.633 184.842 161.204 184.632 160.829C184.422 160.449 184.152 160.125 183.822 159.858C183.493 159.591 183.112 159.386 182.68 159.244C182.254 159.102 181.791 159.031 181.291 159.031C180.388 159.031 179.601 159.255 178.93 159.704C178.26 160.147 177.74 160.795 177.371 161.647C177.001 162.494 176.817 163.522 176.817 164.733C176.817 165.977 177.001 167.022 177.371 167.869C177.746 168.716 178.268 169.355 178.939 169.787C179.609 170.218 180.385 170.434 181.266 170.434C181.76 170.434 182.217 170.369 182.638 170.238C183.064 170.108 183.442 169.917 183.771 169.667C184.101 169.412 184.373 169.102 184.589 168.738C184.811 168.375 184.964 167.96 185.05 167.494L188.783 167.511C188.686 168.312 188.445 169.085 188.058 169.829C187.677 170.568 187.163 171.23 186.516 171.815C185.873 172.395 185.106 172.855 184.214 173.196C183.328 173.531 182.325 173.699 181.206 173.699C179.649 173.699 178.257 173.346 177.03 172.642C175.808 171.937 174.842 170.917 174.132 169.582C173.427 168.247 173.075 166.63 173.075 164.733C173.075 162.829 173.433 161.21 174.149 159.875C174.865 158.54 175.837 157.522 177.064 156.824C178.291 156.119 179.672 155.767 181.206 155.767C182.217 155.767 183.155 155.909 184.018 156.193C184.888 156.477 185.658 156.892 186.328 157.437C186.998 157.977 187.544 158.639 187.964 159.423C188.391 160.207 188.663 161.105 188.783 162.116ZM199.756 167.886V160.369H203.386V173.46H199.9V171.082H199.764C199.469 171.849 198.977 172.466 198.29 172.932C197.608 173.397 196.775 173.63 195.793 173.63C194.918 173.63 194.148 173.432 193.483 173.034C192.818 172.636 192.298 172.071 191.923 171.338C191.554 170.605 191.366 169.727 191.361 168.704V160.369H194.991V168.057C194.997 168.829 195.204 169.44 195.614 169.889C196.023 170.338 196.571 170.562 197.258 170.562C197.696 170.562 198.105 170.463 198.486 170.264C198.866 170.059 199.173 169.758 199.406 169.361C199.645 168.963 199.761 168.471 199.756 167.886ZM217.182 164.102L213.859 164.307C213.802 164.022 213.68 163.767 213.492 163.54C213.305 163.307 213.057 163.122 212.751 162.986C212.449 162.843 212.089 162.772 211.668 162.772C211.106 162.772 210.631 162.892 210.245 163.13C209.859 163.363 209.665 163.676 209.665 164.068C209.665 164.38 209.79 164.645 210.04 164.861C210.29 165.076 210.719 165.25 211.327 165.38L213.697 165.858C214.969 166.119 215.918 166.54 216.543 167.119C217.168 167.699 217.481 168.46 217.481 169.403C217.481 170.261 217.228 171.014 216.722 171.662C216.222 172.309 215.535 172.815 214.66 173.179C213.79 173.537 212.788 173.716 211.651 173.716C209.918 173.716 208.538 173.355 207.509 172.633C206.486 171.906 205.887 170.917 205.711 169.667L209.282 169.48C209.39 170.008 209.651 170.412 210.066 170.69C210.481 170.963 211.012 171.099 211.66 171.099C212.296 171.099 212.807 170.977 213.194 170.733C213.586 170.483 213.785 170.162 213.79 169.77C213.785 169.44 213.646 169.17 213.373 168.96C213.1 168.744 212.68 168.579 212.111 168.466L209.844 168.014C208.566 167.758 207.614 167.315 206.989 166.684C206.37 166.054 206.06 165.25 206.06 164.272C206.06 163.432 206.288 162.707 206.742 162.099C207.202 161.491 207.847 161.022 208.677 160.693C209.512 160.363 210.489 160.199 211.609 160.199C213.262 160.199 214.563 160.548 215.512 161.247C216.467 161.946 217.023 162.897 217.182 164.102ZM226.73 160.369V163.096H218.847V160.369H226.73ZM220.636 157.233H224.267V169.437C224.267 169.772 224.318 170.034 224.42 170.221C224.523 170.403 224.665 170.531 224.847 170.605C225.034 170.679 225.25 170.716 225.494 170.716C225.665 170.716 225.835 170.701 226.006 170.673C226.176 170.639 226.307 170.613 226.398 170.596L226.969 173.298C226.787 173.355 226.531 173.42 226.202 173.494C225.872 173.574 225.472 173.622 225 173.639C224.125 173.673 223.358 173.557 222.699 173.29C222.045 173.022 221.537 172.608 221.173 172.045C220.81 171.483 220.631 170.772 220.636 169.915V157.233ZM234.869 173.716C233.545 173.716 232.4 173.434 231.435 172.872C230.474 172.304 229.733 171.514 229.21 170.503C228.687 169.486 228.426 168.307 228.426 166.966C228.426 165.613 228.687 164.432 229.21 163.42C229.733 162.403 230.474 161.613 231.435 161.051C232.4 160.483 233.545 160.199 234.869 160.199C236.193 160.199 237.335 160.483 238.295 161.051C239.261 161.613 240.006 162.403 240.528 163.42C241.051 164.432 241.312 165.613 241.312 166.966C241.312 168.307 241.051 169.486 240.528 170.503C240.006 171.514 239.261 172.304 238.295 172.872C237.335 173.434 236.193 173.716 234.869 173.716ZM234.886 170.903C235.489 170.903 235.991 170.733 236.395 170.392C236.798 170.045 237.102 169.574 237.307 168.977C237.517 168.38 237.622 167.701 237.622 166.94C237.622 166.179 237.517 165.5 237.307 164.903C237.102 164.307 236.798 163.835 236.395 163.488C235.991 163.142 235.489 162.968 234.886 162.968C234.278 162.968 233.767 163.142 233.352 163.488C232.943 163.835 232.633 164.307 232.423 164.903C232.219 165.5 232.116 166.179 232.116 166.94C232.116 167.701 232.219 168.38 232.423 168.977C232.633 169.574 232.943 170.045 233.352 170.392C233.767 170.733 234.278 170.903 234.886 170.903ZM243.673 173.46V160.369H247.133V162.679H247.287C247.56 161.912 248.014 161.307 248.65 160.863C249.287 160.42 250.048 160.199 250.935 160.199C251.832 160.199 252.597 160.423 253.227 160.872C253.858 161.315 254.278 161.917 254.489 162.679H254.625C254.892 161.929 255.375 161.329 256.074 160.88C256.778 160.426 257.611 160.199 258.571 160.199C259.793 160.199 260.784 160.588 261.545 161.366C262.312 162.139 262.696 163.236 262.696 164.656V173.46H259.074V165.372C259.074 164.645 258.881 164.099 258.494 163.736C258.108 163.372 257.625 163.19 257.045 163.19C256.386 163.19 255.872 163.4 255.503 163.821C255.133 164.236 254.949 164.784 254.949 165.466V173.46H251.429V165.295C251.429 164.653 251.244 164.142 250.875 163.761C250.511 163.38 250.031 163.19 249.435 163.19C249.031 163.19 248.668 163.292 248.344 163.497C248.025 163.696 247.773 163.977 247.585 164.341C247.398 164.699 247.304 165.119 247.304 165.602V173.46H243.673ZM285.786 156.005V173.46H282.599L275.005 162.474H274.877V173.46H271.187V156.005H274.425L281.959 166.983H282.113V156.005H285.786ZM294.682 173.716C293.358 173.716 292.213 173.434 291.247 172.872C290.287 172.304 289.545 171.514 289.023 170.503C288.5 169.486 288.239 168.307 288.239 166.966C288.239 165.613 288.5 164.432 289.023 163.42C289.545 162.403 290.287 161.613 291.247 161.051C292.213 160.483 293.358 160.199 294.682 160.199C296.006 160.199 297.148 160.483 298.108 161.051C299.074 161.613 299.818 162.403 300.341 163.42C300.864 164.432 301.125 165.613 301.125 166.966C301.125 168.307 300.864 169.486 300.341 170.503C299.818 171.514 299.074 172.304 298.108 172.872C297.148 173.434 296.006 173.716 294.682 173.716ZM294.699 170.903C295.301 170.903 295.804 170.733 296.207 170.392C296.611 170.045 296.915 169.574 297.119 168.977C297.329 168.38 297.435 167.701 297.435 166.94C297.435 166.179 297.329 165.5 297.119 164.903C296.915 164.307 296.611 163.835 296.207 163.488C295.804 163.142 295.301 162.968 294.699 162.968C294.091 162.968 293.579 163.142 293.165 163.488C292.756 163.835 292.446 164.307 292.236 164.903C292.031 165.5 291.929 166.179 291.929 166.94C291.929 167.701 292.031 168.38 292.236 168.977C292.446 169.574 292.756 170.045 293.165 170.392C293.579 170.733 294.091 170.903 294.699 170.903ZM305.608 173.682C305.045 173.682 304.562 173.483 304.159 173.085C303.761 172.682 303.562 172.199 303.562 171.636C303.562 171.079 303.761 170.602 304.159 170.204C304.562 169.807 305.045 169.608 305.608 169.608C306.153 169.608 306.631 169.807 307.04 170.204C307.449 170.602 307.653 171.079 307.653 171.636C307.653 172.011 307.557 172.355 307.364 172.667C307.176 172.974 306.929 173.221 306.622 173.409C306.315 173.591 305.977 173.682 305.608 173.682Z" fill="#212528"/>
</g>
<defs>
<filter id="filter0_d_425_516" x="0" y="0" width="165.12" height="118" filterUnits="userSpaceOnUse" color-interpolation-filters="sRGB">
<feFlood flood-opacity="0" result="BackgroundImageFix"/>
<feColorMatrix in="SourceAlpha" type="matrix" values="0 0 0 0 0 0 0 0 0 0 0 0 0 0 0 0 0 0 127 0" result="hardAlpha"/>
<feOffset dx="3.44" dy="3.44"/>
<feComposite in2="hardAlpha" operator="out"/>
<feColorMatrix type="matrix" values="0 0 0 0 0.667568 0 0 0 0 0.8 0 0 0 0 0.932432 0 0 0 1 0"/>
<feBlend mode="normal" in2="BackgroundImageFix" result="effect1_dropShadow_425_516"/>
<feBlend mode="normal" in="SourceGraphic" in2="effect1_dropShadow_425_516" result="shape"/>
</filter>
<filter id="filter1_d_425_516" x="182.68" y="0" width="165.12" height="118" filterUnits="userSpaceOnUse" color-interpolation-filters="sRGB">
<feFlood flood-opacity="0" result="BackgroundImageFix"/>
<feColorMatrix in="SourceAlpha" type="matrix" values="0 0 0 0 0 0 0 0 0 0 0 0 0 0 0 0 0 0 127 0" result="hardAlpha"/>
<feOffset dx="3.44" dy="3.44"/>
<feComposite in2="hardAlpha" operator="out"/>
<feColorMatrix type="matrix" values="0 0 0 0 0.932432 0 0 0 0 0.842378 0 0 0 0 0.667568 0 0 0 1 0"/>
<feBlend mode="normal" in2="BackgroundImageFix" result="effect1_dropShadow_425_516"/>
<feBlend mode="normal" in="SourceGraphic" in2="effect1_dropShadow_425_516" result="shape"/>
</filter>
<filter id="filter2_d_425_516" x="0" y="130.56" width="72.24" height="72.2398" filterUnits="userSpaceOnUse" color-interpolation-filters="sRGB">
<feFlood flood-opacity="0" result="BackgroundImageFix"/>
<feColorMatrix in="SourceAlpha" type="matrix" values="0 0 0 0 0 0 0 0 0 0 0 0 0 0 0 0 0 0 127 0" result="hardAlpha"/>
<feOffset dx="3.44" dy="3.44"/>
<feComposite in2="hardAlpha" operator="out"/>
<feColorMatrix type="matrix" values="0 0 0 0 0.690435 0 0 0 0 0.909565 0 0 0 0 0.713043 0 0 0 1 0"/>
<feBlend mode="normal" in2="BackgroundImageFix" result="effect1_dropShadow_425_516"/>
<feBlend mode="normal" in="SourceGraphic" in2="effect1_dropShadow_425_516" result="shape"/>
</filter>
<filter id="filter3_d_425_516" x="89.8" y="130.56" width="258" height="72.2398" filterUnits="userSpaceOnUse" color-interpolation-filters="sRGB">
<feFlood flood-opacity="0" result="BackgroundImageFix"/>
<feColorMatrix in="SourceAlpha" type="matrix" values="0 0 0 0 0 0 0 0 0 0 0 0 0 0 0 0 0 0 127 0" result="hardAlpha"/>
<feOffset dx="3.44" dy="3.44"/>
<feComposite in2="hardAlpha" operator="out"/>
<feColorMatrix type="matrix" values="0 0 0 0 0.690435 0 0 0 0 0.909565 0 0 0 0 0.713043 0 0 0 1 0"/>
<feBlend mode="normal" in2="BackgroundImageFix" result="effect1_dropShadow_425_516"/>
<feBlend mode="normal" in="SourceGraphic" in2="effect1_dropShadow_425_516" result="shape"/>
</filter>
</defs>
</svg>
