<svg width="323" height="222" viewBox="0 0 323 222" fill="none" xmlns="http://www.w3.org/2000/svg">
<g clip-path="url(#clip0_10651_89022)">
<path d="M251.04 135.812H110.333C106.599 135.812 103.576 132.759 103.576 128.996V38.0621C103.576 34.2959 106.599 31.243 110.333 31.243H251.04C254.77 31.243 257.796 34.2959 257.796 38.0621V128.996C257.796 132.759 254.77 135.812 251.04 135.812Z" fill="white"/>
<path d="M171.768 3.87742C152.318 -7.27137 131.507 7.03375 120.635 28.9462C109.756 50.8586 105.39 69.7216 61.2087 61.3119C17.0276 52.8986 -2.42891 75.535 0.240482 112.591C2.90987 149.646 48.7032 227.456 170.049 221.7C291.399 215.94 327.84 140.363 322.498 105.825C317.156 71.2838 250.184 79.8255 223.854 51.2295C197.524 22.6335 185.694 11.8628 171.768 3.87742Z" fill="#868EE0"/>
<path d="M195.018 197.419H127.268V179.034H195.018V197.419Z" fill="#1A237E"/>
<path d="M266.236 185.036H56.7644C49.7497 185.036 44.0645 179.302 44.0645 172.229V27.3983C44.0645 20.326 49.7497 14.5911 56.7644 14.5911H266.236C273.25 14.5911 278.936 20.326 278.936 27.3983V172.229C278.936 179.302 273.25 185.036 266.236 185.036Z" fill="#4B55C2"/>
<path d="M263.856 168.684H58.4262C54.1198 168.684 50.6266 165.16 50.6266 160.813V28.6751C50.6266 24.3276 54.1198 20.8075 58.4262 20.8075H263.856C268.166 20.8075 271.659 24.3276 271.659 28.6751V160.813C271.659 165.16 268.166 168.684 263.856 168.684Z" fill="#E0E5F7"/>
<path d="M224.141 207.412H98.1453V205.811C98.1453 200.294 102.579 195.821 108.049 195.821H214.237C219.707 195.821 224.141 200.294 224.141 205.811V207.412Z" fill="#4B55C2"/>
<path d="M233 57C233 49.8203 227.18 44 220 44H206V81H233V57Z" fill="#CBCFD2"/>
<path d="M110.562 65C110.562 53.402 119.964 44 131.562 44H213.5L206.325 53V186C206.325 197.598 196.923 207 185.325 207H110.562V65Z" fill="white"/>
<path fill-rule="evenodd" clip-rule="evenodd" d="M204.454 57C204.454 48.9919 210.946 42.5 218.954 42.5H219.812C227.82 42.5 234.312 48.9919 234.312 57V82.5454H207.454V186C207.454 198.426 197.38 208.5 184.954 208.5H176.317V205.5H184.954C195.723 205.5 204.454 196.769 204.454 186V57ZM207.454 79.5454H231.312V57C231.312 50.6487 226.163 45.5 219.812 45.5H218.954C212.602 45.5 207.454 50.6487 207.454 57V79.5454Z" fill="#1A237E"/>
<path fill-rule="evenodd" clip-rule="evenodd" d="M123.5 114C123.5 113.172 124.172 112.5 125 112.5H193C193.828 112.5 194.5 113.172 194.5 114C194.5 114.828 193.828 115.5 193 115.5H125C124.172 115.5 123.5 114.828 123.5 114Z" fill="#868EE0"/>
<path fill-rule="evenodd" clip-rule="evenodd" d="M123.5 130C123.5 129.172 124.172 128.5 125 128.5H193C193.828 128.5 194.5 129.172 194.5 130C194.5 130.828 193.828 131.5 193 131.5H125C124.172 131.5 123.5 130.828 123.5 130Z" fill="#868EE0"/>
<path fill-rule="evenodd" clip-rule="evenodd" d="M123.5 146C123.5 145.172 124.172 144.5 125 144.5H193C193.828 144.5 194.5 145.172 194.5 146C194.5 146.828 193.828 147.5 193 147.5H125C124.172 147.5 123.5 146.828 123.5 146Z" fill="#868EE0"/>
<path fill-rule="evenodd" clip-rule="evenodd" d="M109.158 65C109.158 52.5734 119.234 42.5 131.66 42.5H219V45.5H131.66C120.89 45.5 112.158 54.2306 112.158 65V169.954H109.158V65Z" fill="#1A237E"/>
<path d="M161.5 169.955H80V184.773C80 199.591 91.1136 207 102.227 207H183.727C172.613 207 161.5 199.591 161.5 184.773V169.955Z" fill="#CBCFD2"/>
<path fill-rule="evenodd" clip-rule="evenodd" d="M78.5 168.455H163V184.773C163 191.775 165.611 196.916 169.442 200.322C173.302 203.753 178.49 205.5 183.727 205.5V208.5H102.227C96.3508 208.5 90.4254 206.543 85.9495 202.564C81.446 198.561 78.5 192.589 78.5 184.773V168.455ZM171.641 205.5C170.147 204.688 168.738 203.71 167.449 202.564C162.946 198.561 160 192.589 160 184.773V171.455H81.5V184.773C81.5 191.775 84.1109 196.916 87.9426 200.322C91.8019 203.753 96.99 205.5 102.227 205.5H171.641Z" fill="#1A237E"/>
<path d="M130.132 89V87.125H125.182V84.86H130.027V82.985H125.182V80.87H130.132V78.995H123.052V89H130.132ZM134.857 86.18V84.56H131.257V86.18H134.857ZM138.424 89V78.995H136.294V89H138.424ZM149.365 89V78.995H147.235V85.28L142.6 78.995H140.41V89H142.54V82.475L147.31 89H149.365ZM156.813 89L160.668 78.995H158.238L155.478 86.69L152.703 78.995H150.273L154.143 89H156.813ZM166.039 89.18C169.069 89.18 171.274 87.02 171.274 84.005C171.274 80.99 169.069 78.83 166.039 78.83C163.024 78.83 160.819 80.99 160.819 84.005C160.819 87.02 163.024 89.18 166.039 89.18ZM166.039 87.29C164.194 87.29 163.009 85.865 163.009 84.005C163.009 82.13 164.194 80.72 166.039 80.72C167.884 80.72 169.084 82.13 169.084 84.005C169.084 85.865 167.884 87.29 166.039 87.29ZM174.899 89V78.995H172.769V89H174.899ZM181.73 89.18C183.935 89.18 185.195 87.965 185.915 86.72L184.085 85.835C183.665 86.66 182.765 87.29 181.73 87.29C179.915 87.29 178.595 85.895 178.595 84.005C178.595 82.115 179.915 80.72 181.73 80.72C182.765 80.72 183.665 81.365 184.085 82.175L185.915 81.275C185.21 80.03 183.935 78.83 181.73 78.83C178.73 78.83 176.405 80.93 176.405 84.005C176.405 87.08 178.73 89.18 181.73 89.18ZM194.263 89V87.125H189.313V84.86H194.158V82.985H189.313V80.87H194.263V78.995H187.183V89H194.263Z" fill="#1A237E"/>
</g>
<defs>
<clipPath id="clip0_10651_89022">
<rect width="323" height="222" fill="white"/>
</clipPath>
</defs>
</svg>
