<svg width="305" height="348" viewBox="0 0 305 348" fill="none" xmlns="http://www.w3.org/2000/svg">
<g filter="url(#filter0_d_435_170)">
<rect width="296.286" height="59.2572" rx="11.8514" fill="white" shape-rendering="crispEdges"/>
<rect x="1.42445" y="1.42445" width="293.437" height="56.4083" rx="10.427" stroke="#212528" stroke-width="2.8489" shape-rendering="crispEdges"/>
<path d="M19.5336 38.1284V22.1284H30.3148V24.9175H22.9164V28.73H29.7601V31.519H22.9164V35.3394H30.3461V38.1284H19.5336ZM39.3949 26.1284V28.6284H31.9886V26.1284H39.3949ZM33.684 38.1284V25.2612C33.684 24.3914 33.8532 23.6701 34.1918 23.0972C34.5355 22.5243 35.0043 22.0946 35.598 21.8081C36.1918 21.5216 36.8663 21.3784 37.6215 21.3784C38.1319 21.3784 38.598 21.4175 39.0199 21.4956C39.447 21.5737 39.7647 21.644 39.973 21.7065L39.3793 24.2065C39.2491 24.1649 39.0876 24.1258 38.8949 24.0894C38.7074 24.0529 38.5147 24.0347 38.3168 24.0347C37.8272 24.0347 37.486 24.1493 37.2933 24.3784C37.1006 24.6024 37.0043 24.9175 37.0043 25.3237V38.1284H33.684ZM47.8812 26.1284V28.6284H40.475V26.1284H47.8812ZM42.1703 38.1284V25.2612C42.1703 24.3914 42.3396 23.6701 42.6781 23.0972C43.0219 22.5243 43.4906 22.0946 44.0844 21.8081C44.6781 21.5216 45.3526 21.3784 46.1078 21.3784C46.6182 21.3784 47.0844 21.4175 47.5062 21.4956C47.9333 21.5737 48.251 21.644 48.4594 21.7065L47.8656 24.2065C47.7354 24.1649 47.5739 24.1258 47.3812 24.0894C47.1937 24.0529 47.001 24.0347 46.8031 24.0347C46.3135 24.0347 45.9724 24.1493 45.7797 24.3784C45.587 24.6024 45.4906 24.9175 45.4906 25.3237V38.1284H42.1703ZM54.9066 38.3628C53.6931 38.3628 52.6436 38.105 51.7582 37.5894C50.878 37.0685 50.1983 36.3446 49.7191 35.4175C49.2399 34.4852 49.0004 33.4045 49.0004 32.1753C49.0004 30.9357 49.2399 29.8524 49.7191 28.9253C50.1983 27.993 50.878 27.269 51.7582 26.7534C52.6436 26.2326 53.6931 25.9722 54.9066 25.9722C56.1202 25.9722 57.167 26.2326 58.0472 26.7534C58.9327 27.269 59.6149 27.993 60.0941 28.9253C60.5733 29.8524 60.8129 30.9357 60.8129 32.1753C60.8129 33.4045 60.5733 34.4852 60.0941 35.4175C59.6149 36.3446 58.9327 37.0685 58.0472 37.5894C57.167 38.105 56.1202 38.3628 54.9066 38.3628ZM54.9222 35.7847C55.4743 35.7847 55.9353 35.6284 56.3051 35.3159C56.6748 34.9982 56.9535 34.5659 57.141 34.019C57.3337 33.4722 57.4301 32.8498 57.4301 32.1519C57.4301 31.4539 57.3337 30.8315 57.141 30.2847C56.9535 29.7378 56.6748 29.3055 56.3051 28.9878C55.9353 28.6701 55.4743 28.5112 54.9222 28.5112C54.3649 28.5112 53.8962 28.6701 53.516 28.9878C53.141 29.3055 52.8571 29.7378 52.6644 30.2847C52.4769 30.8315 52.3832 31.4539 52.3832 32.1519C52.3832 32.8498 52.4769 33.4722 52.6644 34.019C52.8571 34.5659 53.141 34.9982 53.516 35.3159C53.8962 35.6284 54.3649 35.7847 54.9222 35.7847ZM62.9769 38.1284V26.1284H66.2035V28.2222H66.3285C66.5472 27.4774 66.9144 26.9149 67.4301 26.5347C67.9457 26.1493 68.5394 25.9565 69.2113 25.9565C69.378 25.9565 69.5577 25.967 69.7504 25.9878C69.9431 26.0086 70.1123 26.0373 70.2582 26.0737V29.0269C70.1019 28.98 69.8858 28.9383 69.6097 28.9019C69.3337 28.8654 69.0811 28.8472 68.8519 28.8472C68.3623 28.8472 67.9248 28.9539 67.5394 29.1675C67.1592 29.3758 66.8571 29.6675 66.6332 30.0425C66.4144 30.4175 66.3051 30.8498 66.3051 31.3394V38.1284H62.9769ZM78.9633 26.1284V28.6284H71.7367V26.1284H78.9633ZM73.3773 23.2534H76.7054V34.4409C76.7054 34.7482 76.7523 34.9878 76.8461 35.1597C76.9398 35.3263 77.07 35.4435 77.2367 35.5112C77.4086 35.5789 77.6065 35.6128 77.8304 35.6128C77.9867 35.6128 78.1429 35.5998 78.2992 35.5737C78.4554 35.5425 78.5752 35.519 78.6586 35.5034L79.182 37.98C79.0153 38.0321 78.781 38.092 78.4789 38.1597C78.1768 38.2326 77.8096 38.2769 77.3773 38.2925C76.5752 38.3237 75.8721 38.217 75.2679 37.9722C74.669 37.7274 74.2028 37.3472 73.8695 36.8315C73.5362 36.3159 73.3721 35.6649 73.3773 34.8784V23.2534ZM84.7172 22.1284V38.1284H81.389V22.1284H84.7172ZM92.8519 38.3628C91.6176 38.3628 90.5551 38.1128 89.6644 37.6128C88.779 37.1076 88.0967 36.394 87.6176 35.4722C87.1384 34.5451 86.8988 33.4487 86.8988 32.1831C86.8988 30.9487 87.1384 29.8654 87.6176 28.9331C88.0967 28.0008 88.7712 27.2743 89.641 26.7534C90.516 26.2326 91.542 25.9722 92.7191 25.9722C93.5108 25.9722 94.2478 26.0998 94.9301 26.355C95.6176 26.605 96.2165 26.9826 96.7269 27.4878C97.2426 27.993 97.6436 28.6284 97.9301 29.394C98.2165 30.1545 98.3597 31.0451 98.3597 32.0659V32.98H88.2269V30.9175H95.2269C95.2269 30.4383 95.1228 30.0138 94.9144 29.644C94.7061 29.2743 94.417 28.9852 94.0472 28.7769C93.6827 28.5633 93.2582 28.4565 92.7738 28.4565C92.2686 28.4565 91.8207 28.5737 91.4301 28.8081C91.0446 29.0373 90.7426 29.3472 90.5238 29.7378C90.3051 30.1232 90.1931 30.5529 90.1879 31.0269V32.9878C90.1879 33.5815 90.2972 34.0946 90.516 34.5269C90.7399 34.9591 91.0551 35.2925 91.4613 35.5269C91.8676 35.7612 92.3493 35.8784 92.9066 35.8784C93.2764 35.8784 93.6149 35.8263 93.9222 35.7222C94.2295 35.618 94.4926 35.4618 94.7113 35.2534C94.9301 35.0451 95.0967 34.7899 95.2113 34.4878L98.2894 34.6909C98.1332 35.4305 97.8129 36.0763 97.3285 36.6284C96.8493 37.1753 96.2295 37.6024 95.4691 37.9097C94.7139 38.2118 93.8415 38.3628 92.8519 38.3628ZM110.516 29.5503L107.469 29.7378C107.417 29.4774 107.305 29.243 107.133 29.0347C106.961 28.8211 106.735 28.6519 106.453 28.5269C106.177 28.3966 105.847 28.3315 105.461 28.3315C104.946 28.3315 104.511 28.4409 104.157 28.6597C103.802 28.8732 103.625 29.1597 103.625 29.519C103.625 29.8055 103.74 30.0477 103.969 30.2456C104.198 30.4435 104.592 30.6024 105.149 30.7222L107.321 31.1597C108.487 31.3993 109.357 31.7847 109.93 32.3159C110.503 32.8472 110.789 33.5451 110.789 34.4097C110.789 35.1961 110.558 35.8862 110.094 36.48C109.636 37.0737 109.006 37.5373 108.203 37.8706C107.407 38.1987 106.487 38.3628 105.446 38.3628C103.857 38.3628 102.592 38.0321 101.649 37.3706C100.711 36.7039 100.162 35.7977 100 34.6519L103.274 34.48C103.373 34.9644 103.612 35.3341 103.993 35.5894C104.373 35.8394 104.86 35.9644 105.453 35.9644C106.037 35.9644 106.506 35.8524 106.86 35.6284C107.219 35.3993 107.401 35.105 107.407 34.7456C107.401 34.4435 107.274 34.1961 107.024 34.0034C106.774 33.8055 106.388 33.6545 105.868 33.5503L103.789 33.1362C102.618 32.9019 101.745 32.4956 101.172 31.9175C100.605 31.3394 100.321 30.6024 100.321 29.7065C100.321 28.9357 100.529 28.2716 100.946 27.7144C101.368 27.1571 101.959 26.7274 102.719 26.4253C103.485 26.1232 104.381 25.9722 105.407 25.9722C106.922 25.9722 108.115 26.2925 108.985 26.9331C109.86 27.5737 110.37 28.4461 110.516 29.5503ZM122.87 29.5503L119.823 29.7378C119.771 29.4774 119.659 29.243 119.487 29.0347C119.315 28.8211 119.088 28.6519 118.807 28.5269C118.531 28.3966 118.2 28.3315 117.815 28.3315C117.299 28.3315 116.864 28.4409 116.51 28.6597C116.156 28.8732 115.979 29.1597 115.979 29.519C115.979 29.8055 116.093 30.0477 116.323 30.2456C116.552 30.4435 116.945 30.6024 117.502 30.7222L119.674 31.1597C120.841 31.3993 121.711 31.7847 122.284 32.3159C122.856 32.8472 123.143 33.5451 123.143 34.4097C123.143 35.1961 122.911 35.8862 122.448 36.48C121.989 37.0737 121.359 37.5373 120.557 37.8706C119.76 38.1987 118.841 38.3628 117.799 38.3628C116.211 38.3628 114.945 38.0321 114.002 37.3706C113.065 36.7039 112.515 35.7977 112.354 34.6519L115.627 34.48C115.726 34.9644 115.966 35.3341 116.346 35.5894C116.726 35.8394 117.213 35.9644 117.807 35.9644C118.39 35.9644 118.859 35.8524 119.213 35.6284C119.573 35.3993 119.755 35.105 119.76 34.7456C119.755 34.4435 119.627 34.1961 119.377 34.0034C119.127 33.8055 118.742 33.6545 118.221 33.5503L116.143 33.1362C114.971 32.9019 114.099 32.4956 113.526 31.9175C112.958 31.3394 112.674 30.6024 112.674 29.7065C112.674 28.9357 112.883 28.2716 113.299 27.7144C113.721 27.1571 114.312 26.7274 115.073 26.4253C115.838 26.1232 116.734 25.9722 117.76 25.9722C119.276 25.9722 120.468 26.2925 121.338 26.9331C122.213 27.5737 122.724 28.4461 122.87 29.5503ZM141.002 27.3003C140.893 26.9201 140.739 26.5841 140.541 26.2925C140.343 25.9956 140.101 25.7456 139.815 25.5425C139.534 25.3341 139.211 25.1753 138.846 25.0659C138.487 24.9565 138.088 24.9019 137.651 24.9019C136.833 24.9019 136.114 25.105 135.495 25.5112C134.88 25.9175 134.401 26.5086 134.057 27.2847C133.713 28.0555 133.541 28.9982 133.541 30.1128C133.541 31.2274 133.711 32.1753 134.049 32.9565C134.388 33.7378 134.867 34.3341 135.487 34.7456C136.106 35.1519 136.838 35.355 137.682 35.355C138.448 35.355 139.101 35.2196 139.643 34.9487C140.19 34.6727 140.606 34.2847 140.893 33.7847C141.185 33.2847 141.33 32.6935 141.33 32.0112L142.018 32.1128H137.893V29.5659H144.588V31.5815C144.588 32.9878 144.291 34.1961 143.698 35.2065C143.104 36.2118 142.286 36.9878 141.245 37.5347C140.203 38.0763 139.01 38.3472 137.666 38.3472C136.166 38.3472 134.849 38.0164 133.713 37.355C132.578 36.6883 131.692 35.743 131.057 34.519C130.427 33.2899 130.112 31.8315 130.112 30.144C130.112 28.8472 130.299 27.6909 130.674 26.6753C131.054 25.6545 131.586 24.7899 132.268 24.0815C132.95 23.3732 133.745 22.8341 134.651 22.4644C135.557 22.0946 136.539 21.9097 137.596 21.9097C138.502 21.9097 139.346 22.0425 140.127 22.3081C140.909 22.5685 141.601 22.9383 142.205 23.4175C142.815 23.8966 143.312 24.467 143.698 25.1284C144.083 25.7847 144.33 26.5086 144.44 27.3003H141.002ZM155.809 26.73C155.746 26.0998 155.478 25.6102 155.004 25.2612C154.53 24.9123 153.887 24.7378 153.075 24.7378C152.523 24.7378 152.056 24.8159 151.676 24.9722C151.296 25.1232 151.004 25.3341 150.801 25.605C150.603 25.8758 150.504 26.1831 150.504 26.5269C150.494 26.8133 150.554 27.0633 150.684 27.2769C150.819 27.4904 151.004 27.6753 151.239 27.8315C151.473 27.9826 151.744 28.1154 152.051 28.23C152.358 28.3394 152.687 28.4331 153.036 28.5112L154.473 28.855C155.171 29.0112 155.812 29.2196 156.395 29.48C156.978 29.7404 157.483 30.0607 157.911 30.4409C158.338 30.8211 158.668 31.269 158.903 31.7847C159.142 32.3003 159.265 32.8914 159.27 33.5581C159.265 34.5373 159.015 35.3862 158.52 36.105C158.03 36.8185 157.322 37.3732 156.395 37.769C155.473 38.1597 154.361 38.355 153.059 38.355C151.767 38.355 150.642 38.1571 149.684 37.7612C148.731 37.3654 147.986 36.7795 147.45 36.0034C146.918 35.2222 146.64 34.256 146.614 33.105H149.887C149.924 33.6414 150.077 34.0894 150.348 34.4487C150.624 34.8029 150.991 35.0711 151.45 35.2534C151.913 35.4305 152.437 35.519 153.02 35.519C153.593 35.519 154.09 35.4357 154.512 35.269C154.939 35.1024 155.27 34.8706 155.504 34.5737C155.739 34.2769 155.856 33.9357 155.856 33.5503C155.856 33.1909 155.749 32.8888 155.536 32.644C155.327 32.3993 155.02 32.1909 154.614 32.019C154.213 31.8472 153.72 31.6909 153.137 31.5503L151.395 31.1128C150.046 30.7847 148.981 30.2716 148.2 29.5737C147.418 28.8758 147.03 27.9357 147.036 26.7534C147.03 25.7847 147.288 24.9383 147.809 24.2144C148.335 23.4904 149.056 22.9253 149.973 22.519C150.89 22.1128 151.931 21.9097 153.098 21.9097C154.286 21.9097 155.322 22.1128 156.207 22.519C157.098 22.9253 157.791 23.4904 158.286 24.2144C158.78 24.9383 159.036 25.7769 159.051 26.73H155.809ZM160.936 24.9175V22.1284H174.077V24.9175H169.178V38.1284H165.834V24.9175H160.936ZM184.715 22.1284V38.1284H181.332V22.1284H184.715ZM190.764 31.1909V38.1284H187.436V26.1284H190.608V28.2456H190.748C191.014 27.5477 191.459 26.9956 192.084 26.5894C192.709 26.1779 193.467 25.9722 194.358 25.9722C195.191 25.9722 195.918 26.1545 196.537 26.519C197.157 26.8836 197.639 27.4045 197.983 28.0815C198.327 28.7534 198.498 29.5555 198.498 30.4878V38.1284H195.17V31.0815C195.175 30.3472 194.988 29.7743 194.608 29.3628C194.228 28.9461 193.704 28.7378 193.037 28.7378C192.59 28.7378 192.194 28.8341 191.85 29.0269C191.511 29.2196 191.246 29.5008 191.053 29.8706C190.866 30.2352 190.769 30.6753 190.764 31.1909ZM211.879 26.1284L207.684 38.1284H203.934L199.739 26.1284H203.254L205.746 34.7144H205.871L208.356 26.1284H211.879ZM218.618 38.3628C217.404 38.3628 216.355 38.105 215.469 37.5894C214.589 37.0685 213.909 36.3446 213.43 35.4175C212.951 34.4852 212.711 33.4045 212.711 32.1753C212.711 30.9357 212.951 29.8524 213.43 28.9253C213.909 27.993 214.589 27.269 215.469 26.7534C216.355 26.2326 217.404 25.9722 218.618 25.9722C219.831 25.9722 220.878 26.2326 221.758 26.7534C222.644 27.269 223.326 27.993 223.805 28.9253C224.284 29.8524 224.524 30.9357 224.524 32.1753C224.524 33.4045 224.284 34.4852 223.805 35.4175C223.326 36.3446 222.644 37.0685 221.758 37.5894C220.878 38.105 219.831 38.3628 218.618 38.3628ZM218.633 35.7847C219.185 35.7847 219.646 35.6284 220.016 35.3159C220.386 34.9982 220.664 34.5659 220.852 34.019C221.045 33.4722 221.141 32.8498 221.141 32.1519C221.141 31.4539 221.045 30.8315 220.852 30.2847C220.664 29.7378 220.386 29.3055 220.016 28.9878C219.646 28.6701 219.185 28.5112 218.633 28.5112C218.076 28.5112 217.607 28.6701 217.227 28.9878C216.852 29.3055 216.568 29.7378 216.375 30.2847C216.188 30.8315 216.094 31.4539 216.094 32.1519C216.094 32.8498 216.188 33.4722 216.375 34.019C216.568 34.5659 216.852 34.9982 217.227 35.3159C217.607 35.6284 218.076 35.7847 218.633 35.7847ZM226.688 38.1284V26.1284H230.016V38.1284H226.688ZM228.36 24.5815C227.865 24.5815 227.44 24.4175 227.086 24.0894C226.737 23.756 226.563 23.3576 226.563 22.894C226.563 22.4357 226.737 22.0425 227.086 21.7144C227.44 21.381 227.865 21.2144 228.36 21.2144C228.855 21.2144 229.276 21.381 229.625 21.7144C229.98 22.0425 230.157 22.4357 230.157 22.894C230.157 23.3576 229.98 23.756 229.625 24.0894C229.276 24.4175 228.855 24.5815 228.36 24.5815ZM238.104 38.3628C236.875 38.3628 235.817 38.1024 234.932 37.5815C234.052 37.0555 233.375 36.3263 232.901 35.394C232.432 34.4618 232.198 33.3888 232.198 32.1753C232.198 30.9461 232.435 29.868 232.909 28.9409C233.388 28.0086 234.067 27.2821 234.948 26.7612C235.828 26.2352 236.875 25.9722 238.088 25.9722C239.135 25.9722 240.052 26.1623 240.838 26.5425C241.625 26.9227 242.247 27.4565 242.705 28.144C243.164 28.8315 243.416 29.6388 243.463 30.5659H240.323C240.234 29.967 240 29.4852 239.62 29.1206C239.245 28.7508 238.752 28.5659 238.143 28.5659C237.627 28.5659 237.177 28.7065 236.791 28.9878C236.411 29.2638 236.114 29.6675 235.901 30.1987C235.687 30.73 235.58 31.3732 235.58 32.1284C235.58 32.894 235.685 33.5451 235.893 34.0815C236.106 34.618 236.406 35.0269 236.791 35.3081C237.177 35.5894 237.627 35.73 238.143 35.73C238.523 35.73 238.864 35.6519 239.166 35.4956C239.474 35.3394 239.726 35.1128 239.924 34.8159C240.127 34.5138 240.26 34.1519 240.323 33.73H243.463C243.411 34.6466 243.161 35.4539 242.713 36.1519C242.271 36.8446 241.659 37.3862 240.877 37.7769C240.096 38.1675 239.172 38.3628 238.104 38.3628ZM245.594 38.1284V26.1284H248.922V38.1284H245.594ZM247.266 24.5815C246.771 24.5815 246.347 24.4175 245.993 24.0894C245.644 23.756 245.469 23.3576 245.469 22.894C245.469 22.4357 245.644 22.0425 245.993 21.7144C246.347 21.381 246.771 21.2144 247.266 21.2144C247.761 21.2144 248.183 21.381 248.532 21.7144C248.886 22.0425 249.063 22.4357 249.063 22.894C249.063 23.3576 248.886 23.756 248.532 24.0894C248.183 24.4175 247.761 24.5815 247.266 24.5815ZM254.916 31.1909V38.1284H251.588V26.1284H254.76V28.2456H254.901C255.166 27.5477 255.612 26.9956 256.237 26.5894C256.862 26.1779 257.62 25.9722 258.51 25.9722C259.343 25.9722 260.07 26.1545 260.69 26.519C261.31 26.8836 261.791 27.4045 262.135 28.0815C262.479 28.7534 262.651 29.5555 262.651 30.4878V38.1284H259.323V31.0815C259.328 30.3472 259.14 29.7743 258.76 29.3628C258.38 28.9461 257.856 28.7378 257.19 28.7378C256.742 28.7378 256.346 28.8341 256.002 29.0269C255.664 29.2196 255.398 29.5008 255.205 29.8706C255.018 30.2352 254.922 30.6753 254.916 31.1909ZM270.68 42.8784C269.602 42.8784 268.677 42.73 267.907 42.4331C267.141 42.1414 266.532 41.743 266.078 41.2378C265.625 40.7326 265.331 40.1649 265.196 39.5347L268.274 39.1206C268.368 39.3602 268.516 39.5841 268.719 39.7925C268.922 40.0008 269.19 40.1675 269.524 40.2925C269.862 40.4227 270.274 40.4878 270.758 40.4878C271.482 40.4878 272.078 40.3107 272.547 39.9565C273.021 39.6076 273.258 39.0216 273.258 38.1987V36.0034H273.118C272.972 36.3368 272.753 36.6519 272.461 36.9487C272.17 37.2456 271.795 37.4878 271.336 37.6753C270.878 37.8628 270.331 37.9565 269.696 37.9565C268.795 37.9565 267.974 37.7482 267.235 37.3315C266.5 36.9097 265.914 36.2664 265.477 35.4019C265.045 34.5321 264.828 33.4331 264.828 32.105C264.828 30.7456 265.05 29.6102 265.493 28.6987C265.935 27.7873 266.524 27.105 267.258 26.6519C267.998 26.1987 268.808 25.9722 269.688 25.9722C270.36 25.9722 270.922 26.0868 271.375 26.3159C271.828 26.5399 272.193 26.8211 272.469 27.1597C272.75 27.493 272.967 27.8211 273.118 28.144H273.243V26.1284H276.547V38.2456C276.547 39.2664 276.297 40.1206 275.797 40.8081C275.297 41.4956 274.605 42.0112 273.719 42.355C272.839 42.7039 271.826 42.8784 270.68 42.8784ZM270.75 35.4565C271.287 35.4565 271.74 35.3237 272.11 35.0581C272.485 34.7873 272.771 34.4019 272.969 33.9019C273.172 33.3966 273.274 32.7925 273.274 32.0894C273.274 31.3862 273.175 30.7769 272.977 30.2612C272.779 29.7404 272.493 29.3368 272.118 29.0503C271.743 28.7638 271.287 28.6206 270.75 28.6206C270.203 28.6206 269.743 28.769 269.368 29.0659C268.993 29.3576 268.709 29.7638 268.516 30.2847C268.323 30.8055 268.227 31.4071 268.227 32.0894C268.227 32.7821 268.323 33.381 268.516 33.8862C268.714 34.3862 268.998 34.7743 269.368 35.0503C269.743 35.3211 270.203 35.4565 270.75 35.4565Z" fill="#212528"/>
</g>
<g filter="url(#filter1_d_435_170)">
<rect y="82.0488" width="296.286" height="143.324" rx="11.8514" fill="white" shape-rendering="crispEdges"/>
<rect x="1.42445" y="83.4733" width="293.437" height="140.475" rx="10.427" stroke="#212528" stroke-width="2.8489" shape-rendering="crispEdges"/>
<path fill-rule="evenodd" clip-rule="evenodd" d="M134.905 100.188C134.502 100.39 133.958 100.878 133.695 101.271C133.22 101.982 133.217 102.031 133.218 109.691C133.219 117.008 133.24 117.43 133.637 118.082C134.919 120.185 137.942 120.092 139.059 117.915C139.523 117.009 139.532 116.847 139.532 109.713C139.532 102.579 139.523 102.416 139.059 101.511C138.258 99.9502 136.496 99.3888 134.905 100.188ZM118.272 110.159C116.784 110.751 115.965 112.392 116.383 113.945C116.659 114.968 119.71 118.268 121.173 119.126C123.635 120.569 126.556 118.377 125.806 115.649C125.549 114.715 121.708 110.669 120.646 110.213C119.866 109.879 119.025 109.86 118.272 110.159ZM151.975 110.249C151.049 110.651 147.609 114.01 147.091 115.019C146.33 116.499 146.768 118.211 148.141 119.128C148.976 119.686 150.406 119.767 151.278 119.305C152.119 118.86 155.894 114.964 156.151 114.277C156.707 112.789 156.135 111.182 154.772 110.4C153.824 109.857 152.984 109.812 151.975 110.249ZM174.11 111.09C171.444 111.808 171.749 111.533 154.228 129.031C139.416 143.823 137.652 145.519 137.544 145.062C137.478 144.78 136.999 142.703 136.479 140.446C135.251 135.115 134.477 133.446 132.171 131.161C130.41 129.416 128.459 128.295 126.174 127.714C124.566 127.305 121.453 127.304 119.842 127.712C117.115 128.403 113.725 130.637 113.087 132.165C112.85 132.732 112.799 136.4 112.799 152.808V172.761L107.952 177.601C102.777 182.768 102.492 183.164 102.787 184.789C102.918 185.509 104.109 186.778 113.603 196.303C119.694 202.415 124.561 207.133 124.948 207.301C125.508 207.545 128.356 207.596 141.386 207.596C159.113 207.596 158.715 207.627 161.908 205.987C163.305 205.271 164.539 204.096 177.661 190.983C190.665 177.989 191.954 176.639 192.55 175.389C195.109 170.028 192.726 163.895 187.221 161.679L186.369 161.336L186.369 159.258C186.369 156.749 185.93 155.226 184.681 153.392C183.674 151.913 181.657 150.304 180.142 149.769L179.076 149.392L179.214 148.009C179.568 144.463 177.839 140.871 174.753 138.738C174.269 138.404 173.772 138.13 173.648 138.13C173.524 138.13 173.423 138.063 173.423 137.981C173.423 137.898 175.969 135.27 179.082 132.139C185.162 126.023 185.548 125.517 186.182 122.818C187.825 115.826 181.032 109.226 174.11 111.09ZM175.317 117.324C174.736 117.487 170.97 121.138 157.441 134.653L140.302 151.776L141.317 152.899C144.368 156.274 146.02 160.401 146.214 165.132C146.347 168.359 146.071 170.319 145.103 173.031C143.974 176.193 141.325 180.04 139.698 180.88C137.586 181.97 135.112 180.517 135.112 178.186C135.112 177.053 135.309 176.662 136.63 175.178C138.908 172.62 140.082 169.121 139.903 165.419C139.718 161.575 138.499 159.072 135.043 155.442L132.891 153.181L131.142 145.603C129.971 140.523 129.231 137.743 128.899 137.168C128.222 136 127.211 135.042 125.955 134.38C125.058 133.907 124.635 133.824 123.098 133.82C121.621 133.816 121.094 133.908 120.203 134.325L119.114 134.834V154.782C119.114 168.209 119.041 174.92 118.893 175.312C118.771 175.631 116.808 177.771 114.531 180.067L110.39 184.24L118.909 192.765L127.428 201.29L142.374 201.233L157.32 201.175L158.477 200.603C159.406 200.144 161.134 198.525 167.213 192.423C171.552 188.067 174.678 184.773 174.527 184.715C173.897 184.476 171.771 182.752 171.179 181.999C170.033 180.544 169.002 178.006 169.002 176.641C169.002 176.107 168.933 176.067 167.772 175.936C166.309 175.77 164.005 174.708 162.762 173.627C161.108 172.188 159.848 169.863 159.563 167.722L159.425 166.687L157.626 166.249C155.51 165.734 153.744 164.741 152.507 163.373C149.678 160.242 149.074 155.974 150.911 152.077C151.276 151.304 154.61 147.835 165.529 136.867C178.492 123.846 179.696 122.578 179.934 121.694C180.441 119.811 179.343 117.82 177.518 117.314C176.55 117.045 176.312 117.046 175.317 117.324ZM168.16 143.632C167.618 143.794 166.043 145.221 162.189 149.043C156.866 154.321 156.176 155.188 156.166 156.608C156.152 158.722 158.201 160.444 160.356 160.129C161.277 159.995 161.56 159.75 166.755 154.585C169.745 151.613 172.342 148.897 172.527 148.55C172.713 148.203 172.859 147.466 172.852 146.913C172.824 144.563 170.497 142.936 168.16 143.632ZM175.002 155.793C173.983 156.268 166.4 163.846 166.069 164.72C165.215 166.976 166.577 169.392 168.848 169.648C170.554 169.84 170.946 169.566 175.465 165.02C179.053 161.411 179.737 160.622 179.938 159.864C180.381 158.194 179.569 156.519 177.965 155.79C176.878 155.297 176.065 155.297 175.002 155.793ZM182.159 167.717C181.251 168.184 176.205 173.244 175.723 174.17C174.337 176.838 176.867 179.946 179.79 179.166C180.519 178.971 181.227 178.393 183.605 176.053C186.889 172.82 187.447 171.948 187.217 170.409C186.878 168.152 184.144 166.697 182.159 167.717Z" fill="#AA50F6"/>
</g>
<g filter="url(#filter2_d_435_170)">
<rect y="248.163" width="139.254" height="96.3309" rx="11.8514" fill="white" shape-rendering="crispEdges"/>
<rect x="1.42445" y="249.588" width="136.405" height="93.482" rx="10.427" stroke="#212528" stroke-width="2.8489" shape-rendering="crispEdges"/>
<path d="M78.4904 293.796C80.5883 293.796 82.289 292.095 82.289 289.998C82.289 287.9 80.5883 286.199 78.4904 286.199C76.3926 286.199 74.6919 287.9 74.6919 289.998C74.6919 292.095 76.3926 293.796 78.4904 293.796Z" fill="#29A653"/>
<path d="M60.7639 293.796C62.8618 293.796 64.5625 292.095 64.5625 289.998C64.5625 287.9 62.8618 286.199 60.7639 286.199C58.6661 286.199 56.9654 287.9 56.9654 289.998C56.9654 292.095 58.6661 293.796 60.7639 293.796Z" fill="#29A653"/>
<path d="M69.6272 306.458C65.8793 306.458 62.6632 304.407 60.8906 301.393H56.6615C58.6874 306.585 63.7268 310.256 69.6272 310.256C75.5276 310.256 80.567 306.585 82.5929 301.393H78.3638C76.5912 304.407 73.3751 306.458 69.6272 306.458ZM69.6019 271.005C55.6233 271.005 44.3036 282.35 44.3036 296.328C44.3036 310.307 55.6233 321.652 69.6019 321.652C83.6058 321.652 94.9508 310.307 94.9508 296.328C94.9508 282.35 83.6058 271.005 69.6019 271.005ZM69.6272 316.587C58.4342 316.587 49.3683 307.521 49.3683 296.328C49.3683 285.135 58.4342 276.07 69.6272 276.07C80.8202 276.07 89.8861 285.135 89.8861 296.328C89.8861 307.521 80.8202 316.587 69.6272 316.587Z" fill="#29A653"/>
</g>
<g filter="url(#filter3_d_435_170)">
<rect x="162.046" y="248.163" width="139.254" height="96.3309" rx="11.8514" fill="white" shape-rendering="crispEdges"/>
<rect x="163.47" y="249.588" width="136.405" height="93.482" rx="10.427" stroke="#212528" stroke-width="2.8489" shape-rendering="crispEdges"/>
<path d="M223.569 306.205L212.933 295.569L209.388 299.114L223.569 313.295L253.958 282.907L250.412 279.362L223.569 306.205Z" fill="#0080FF"/>
</g>
<defs>
<filter id="filter0_d_435_170" x="0" y="0" width="299.249" height="62.2202" filterUnits="userSpaceOnUse" color-interpolation-filters="sRGB">
<feFlood flood-opacity="0" result="BackgroundImageFix"/>
<feColorMatrix in="SourceAlpha" type="matrix" values="0 0 0 0 0 0 0 0 0 0 0 0 0 0 0 0 0 0 127 0" result="hardAlpha"/>
<feOffset dx="2.96286" dy="2.96286"/>
<feComposite in2="hardAlpha" operator="out"/>
<feColorMatrix type="matrix" values="0 0 0 0 0.859888 0 0 0 0 0.859888 0 0 0 0 0.859888 0 0 0 1 0"/>
<feBlend mode="normal" in2="BackgroundImageFix" result="effect1_dropShadow_435_170"/>
<feBlend mode="normal" in="SourceGraphic" in2="effect1_dropShadow_435_170" result="shape"/>
</filter>
<filter id="filter1_d_435_170" x="0" y="82.0488" width="299.249" height="146.287" filterUnits="userSpaceOnUse" color-interpolation-filters="sRGB">
<feFlood flood-opacity="0" result="BackgroundImageFix"/>
<feColorMatrix in="SourceAlpha" type="matrix" values="0 0 0 0 0 0 0 0 0 0 0 0 0 0 0 0 0 0 127 0" result="hardAlpha"/>
<feOffset dx="2.96286" dy="2.96286"/>
<feComposite in2="hardAlpha" operator="out"/>
<feColorMatrix type="matrix" values="0 0 0 0 0.933333 0 0 0 0 0.666667 0 0 0 0 0.905882 0 0 0 1 0"/>
<feBlend mode="normal" in2="BackgroundImageFix" result="effect1_dropShadow_435_170"/>
<feBlend mode="normal" in="SourceGraphic" in2="effect1_dropShadow_435_170" result="shape"/>
</filter>
<filter id="filter2_d_435_170" x="0" y="248.163" width="142.217" height="99.2939" filterUnits="userSpaceOnUse" color-interpolation-filters="sRGB">
<feFlood flood-opacity="0" result="BackgroundImageFix"/>
<feColorMatrix in="SourceAlpha" type="matrix" values="0 0 0 0 0 0 0 0 0 0 0 0 0 0 0 0 0 0 127 0" result="hardAlpha"/>
<feOffset dx="2.96286" dy="2.96286"/>
<feComposite in2="hardAlpha" operator="out"/>
<feColorMatrix type="matrix" values="0 0 0 0 0.690435 0 0 0 0 0.909565 0 0 0 0 0.713043 0 0 0 1 0"/>
<feBlend mode="normal" in2="BackgroundImageFix" result="effect1_dropShadow_435_170"/>
<feBlend mode="normal" in="SourceGraphic" in2="effect1_dropShadow_435_170" result="shape"/>
</filter>
<filter id="filter3_d_435_170" x="162.046" y="248.163" width="142.217" height="99.2939" filterUnits="userSpaceOnUse" color-interpolation-filters="sRGB">
<feFlood flood-opacity="0" result="BackgroundImageFix"/>
<feColorMatrix in="SourceAlpha" type="matrix" values="0 0 0 0 0 0 0 0 0 0 0 0 0 0 0 0 0 0 127 0" result="hardAlpha"/>
<feOffset dx="2.96286" dy="2.96286"/>
<feComposite in2="hardAlpha" operator="out"/>
<feColorMatrix type="matrix" values="0 0 0 0 0.667568 0 0 0 0 0.8 0 0 0 0 0.932432 0 0 0 1 0"/>
<feBlend mode="normal" in2="BackgroundImageFix" result="effect1_dropShadow_435_170"/>
<feBlend mode="normal" in="SourceGraphic" in2="effect1_dropShadow_435_170" result="shape"/>
</filter>
</defs>
</svg>
