<svg width="305" height="348" viewBox="0 0 305 348" fill="none" xmlns="http://www.w3.org/2000/svg">
<g filter="url(#filter0_d_435_194)">
<rect width="296.286" height="59.2572" rx="11.8514" fill="white" shape-rendering="crispEdges"/>
<rect x="1.42445" y="1.42445" width="293.437" height="56.4083" rx="10.427" stroke="#212528" stroke-width="2.8489" shape-rendering="crispEdges"/>
<path d="M20.5336 38.1284V22.1284H31.3148V24.9175H23.9164V28.73H30.7601V31.519H23.9164V35.3394H31.3461V38.1284H20.5336ZM40.3949 26.1284V28.6284H32.9886V26.1284H40.3949ZM34.6839 38.1284V25.2612C34.6839 24.3914 34.8532 23.6701 35.1918 23.0972C35.5355 22.5243 36.0043 22.0946 36.598 21.8081C37.1918 21.5216 37.8662 21.3784 38.6214 21.3784C39.1319 21.3784 39.598 21.4175 40.0199 21.4956C40.447 21.5737 40.7647 21.644 40.973 21.7065L40.3793 24.2065C40.249 24.1649 40.0876 24.1258 39.8949 24.0894C39.7074 24.0529 39.5147 24.0347 39.3168 24.0347C38.8272 24.0347 38.486 24.1493 38.2933 24.3784C38.1006 24.6024 38.0043 24.9175 38.0043 25.3237V38.1284H34.6839ZM48.8812 26.1284V28.6284H41.475V26.1284H48.8812ZM43.1703 38.1284V25.2612C43.1703 24.3914 43.3395 23.6701 43.6781 23.0972C44.0218 22.5243 44.4906 22.0946 45.0843 21.8081C45.6781 21.5216 46.3526 21.3784 47.1078 21.3784C47.6182 21.3784 48.0843 21.4175 48.5062 21.4956C48.9333 21.5737 49.251 21.644 49.4593 21.7065L48.8656 24.2065C48.7354 24.1649 48.5739 24.1258 48.3812 24.0894C48.1937 24.0529 48.001 24.0347 47.8031 24.0347C47.3135 24.0347 46.9724 24.1493 46.7796 24.3784C46.5869 24.6024 46.4906 24.9175 46.4906 25.3237V38.1284H43.1703ZM55.9066 38.3628C54.6931 38.3628 53.6436 38.105 52.7582 37.5894C51.878 37.0685 51.1983 36.3446 50.7191 35.4175C50.2399 34.4852 50.0004 33.4045 50.0004 32.1753C50.0004 30.9357 50.2399 29.8524 50.7191 28.9253C51.1983 27.993 51.878 27.269 52.7582 26.7534C53.6436 26.2326 54.6931 25.9722 55.9066 25.9722C57.1201 25.9722 58.167 26.2326 59.0472 26.7534C59.9326 27.269 60.6149 27.993 61.0941 28.9253C61.5733 29.8524 61.8129 30.9357 61.8129 32.1753C61.8129 33.4045 61.5733 34.4852 61.0941 35.4175C60.6149 36.3446 59.9326 37.0685 59.0472 37.5894C58.167 38.105 57.1201 38.3628 55.9066 38.3628ZM55.9222 35.7847C56.4743 35.7847 56.9352 35.6284 57.305 35.3159C57.6748 34.9982 57.9535 34.5659 58.141 34.019C58.3337 33.4722 58.43 32.8498 58.43 32.1519C58.43 31.4539 58.3337 30.8315 58.141 30.2847C57.9535 29.7378 57.6748 29.3055 57.305 28.9878C56.9352 28.6701 56.4743 28.5112 55.9222 28.5112C55.3649 28.5112 54.8962 28.6701 54.516 28.9878C54.141 29.3055 53.8571 29.7378 53.6644 30.2847C53.4769 30.8315 53.3832 31.4539 53.3832 32.1519C53.3832 32.8498 53.4769 33.4722 53.6644 34.019C53.8571 34.5659 54.141 34.9982 54.516 35.3159C54.8962 35.6284 55.3649 35.7847 55.9222 35.7847ZM63.9769 38.1284V26.1284H67.2035V28.2222H67.3285C67.5472 27.4774 67.9144 26.9149 68.43 26.5347C68.9457 26.1493 69.5394 25.9565 70.2113 25.9565C70.378 25.9565 70.5576 25.967 70.7504 25.9878C70.9431 26.0086 71.1123 26.0373 71.2582 26.0737V29.0269C71.1019 28.98 70.8858 28.9383 70.6097 28.9019C70.3337 28.8654 70.0811 28.8472 69.8519 28.8472C69.3623 28.8472 68.9248 28.9539 68.5394 29.1675C68.1592 29.3758 67.8571 29.6675 67.6332 30.0425C67.4144 30.4175 67.305 30.8498 67.305 31.3394V38.1284H63.9769ZM79.9632 26.1284V28.6284H72.7367V26.1284H79.9632ZM74.3773 23.2534H77.7054V34.4409C77.7054 34.7482 77.7523 34.9878 77.8461 35.1597C77.9398 35.3263 78.07 35.4435 78.2367 35.5112C78.4086 35.5789 78.6065 35.6128 78.8304 35.6128C78.9867 35.6128 79.1429 35.5998 79.2992 35.5737C79.4554 35.5425 79.5752 35.519 79.6586 35.5034L80.182 37.98C80.0153 38.0321 79.781 38.092 79.4789 38.1597C79.1768 38.2326 78.8096 38.2769 78.3773 38.2925C77.5752 38.3237 76.8721 38.217 76.2679 37.9722C75.669 37.7274 75.2028 37.3472 74.8695 36.8315C74.5362 36.3159 74.3721 35.6649 74.3773 34.8784V23.2534ZM85.7171 22.1284V38.1284H82.389V22.1284H85.7171ZM93.8519 38.3628C92.6175 38.3628 91.555 38.1128 90.6644 37.6128C89.779 37.1076 89.0967 36.394 88.6175 35.4722C88.1384 34.5451 87.8988 33.4487 87.8988 32.1831C87.8988 30.9487 88.1384 29.8654 88.6175 28.9331C89.0967 28.0008 89.7712 27.2743 90.641 26.7534C91.516 26.2326 92.542 25.9722 93.7191 25.9722C94.5108 25.9722 95.2477 26.0998 95.93 26.355C96.6175 26.605 97.2165 26.9826 97.7269 27.4878C98.2425 27.993 98.6436 28.6284 98.93 29.394C99.2165 30.1545 99.3597 31.0451 99.3597 32.0659V32.98H89.2269V30.9175H96.2269C96.2269 30.4383 96.1227 30.0138 95.9144 29.644C95.7061 29.2743 95.417 28.9852 95.0472 28.7769C94.6826 28.5633 94.2582 28.4565 93.7738 28.4565C93.2686 28.4565 92.8207 28.5737 92.43 28.8081C92.0446 29.0373 91.7425 29.3472 91.5238 29.7378C91.305 30.1232 91.1931 30.5529 91.1879 31.0269V32.9878C91.1879 33.5815 91.2972 34.0946 91.516 34.5269C91.7399 34.9591 92.055 35.2925 92.4613 35.5269C92.8675 35.7612 93.3493 35.8784 93.9066 35.8784C94.2764 35.8784 94.6149 35.8263 94.9222 35.7222C95.2295 35.618 95.4925 35.4618 95.7113 35.2534C95.93 35.0451 96.0967 34.7899 96.2113 34.4878L99.2894 34.6909C99.1332 35.4305 98.8129 36.0763 98.3285 36.6284C97.8493 37.1753 97.2295 37.6024 96.4691 37.9097C95.7139 38.2118 94.8415 38.3628 93.8519 38.3628ZM111.516 29.5503L108.469 29.7378C108.417 29.4774 108.305 29.243 108.133 29.0347C107.961 28.8211 107.735 28.6519 107.453 28.5269C107.177 28.3966 106.847 28.3315 106.461 28.3315C105.946 28.3315 105.511 28.4409 105.157 28.6597C104.802 28.8732 104.625 29.1597 104.625 29.519C104.625 29.8055 104.74 30.0477 104.969 30.2456C105.198 30.4435 105.591 30.6024 106.149 30.7222L108.321 31.1597C109.487 31.3993 110.357 31.7847 110.93 32.3159C111.503 32.8472 111.789 33.5451 111.789 34.4097C111.789 35.1961 111.558 35.8862 111.094 36.48C110.636 37.0737 110.006 37.5373 109.203 37.8706C108.407 38.1987 107.487 38.3628 106.446 38.3628C104.857 38.3628 103.591 38.0321 102.649 37.3706C101.711 36.7039 101.162 35.7977 101 34.6519L104.274 34.48C104.373 34.9644 104.612 35.3341 104.993 35.5894C105.373 35.8394 105.86 35.9644 106.453 35.9644C107.037 35.9644 107.506 35.8524 107.86 35.6284C108.219 35.3993 108.401 35.105 108.407 34.7456C108.401 34.4435 108.274 34.1961 108.024 34.0034C107.774 33.8055 107.388 33.6545 106.868 33.5503L104.789 33.1362C103.618 32.9019 102.745 32.4956 102.172 31.9175C101.605 31.3394 101.321 30.6024 101.321 29.7065C101.321 28.9357 101.529 28.2716 101.946 27.7144C102.368 27.1571 102.959 26.7274 103.719 26.4253C104.485 26.1232 105.381 25.9722 106.407 25.9722C107.922 25.9722 109.115 26.2925 109.985 26.9331C110.86 27.5737 111.37 28.4461 111.516 29.5503ZM123.869 29.5503L120.823 29.7378C120.771 29.4774 120.659 29.243 120.487 29.0347C120.315 28.8211 120.088 28.6519 119.807 28.5269C119.531 28.3966 119.2 28.3315 118.815 28.3315C118.299 28.3315 117.864 28.4409 117.51 28.6597C117.156 28.8732 116.979 29.1597 116.979 29.519C116.979 29.8055 117.093 30.0477 117.323 30.2456C117.552 30.4435 117.945 30.6024 118.502 30.7222L120.674 31.1597C121.841 31.3993 122.711 31.7847 123.284 32.3159C123.856 32.8472 124.143 33.5451 124.143 34.4097C124.143 35.1961 123.911 35.8862 123.448 36.48C122.989 37.0737 122.359 37.5373 121.557 37.8706C120.76 38.1987 119.841 38.3628 118.799 38.3628C117.211 38.3628 115.945 38.0321 115.002 37.3706C114.065 36.7039 113.515 35.7977 113.354 34.6519L116.627 34.48C116.726 34.9644 116.966 35.3341 117.346 35.5894C117.726 35.8394 118.213 35.9644 118.807 35.9644C119.39 35.9644 119.859 35.8524 120.213 35.6284C120.573 35.3993 120.755 35.105 120.76 34.7456C120.755 34.4435 120.627 34.1961 120.377 34.0034C120.127 33.8055 119.742 33.6545 119.221 33.5503L117.143 33.1362C115.971 32.9019 115.099 32.4956 114.526 31.9175C113.958 31.3394 113.674 30.6024 113.674 29.7065C113.674 28.9357 113.883 28.2716 114.299 27.7144C114.721 27.1571 115.312 26.7274 116.073 26.4253C116.838 26.1232 117.734 25.9722 118.76 25.9722C120.276 25.9722 121.468 26.2925 122.338 26.9331C123.213 27.5737 123.724 28.4461 123.869 29.5503ZM134.284 22.1284L138.151 34.2847H138.299L142.174 22.1284H145.924L140.409 38.1284H136.049L130.526 22.1284H134.284ZM148.481 38.1284H144.856L150.379 22.1284H154.739L160.254 38.1284H156.629L152.621 25.7847H152.496L148.481 38.1284ZM148.254 31.8394H156.817V34.48H148.254V31.8394ZM159.616 24.9175V22.1284H172.756V24.9175H167.858V38.1284H164.514V24.9175H159.616ZM183.395 22.1284V38.1284H180.012V22.1284H183.395ZM189.444 31.1909V38.1284H186.116V26.1284H189.287V28.2456H189.428C189.694 27.5477 190.139 26.9956 190.764 26.5894C191.389 26.1779 192.147 25.9722 193.037 25.9722C193.871 25.9722 194.597 26.1545 195.217 26.519C195.837 26.8836 196.319 27.4045 196.662 28.0815C197.006 28.7534 197.178 29.5555 197.178 30.4878V38.1284H193.85V31.0815C193.855 30.3472 193.668 29.7743 193.287 29.3628C192.907 28.9461 192.384 28.7378 191.717 28.7378C191.269 28.7378 190.873 28.8341 190.53 29.0269C190.191 29.2196 189.925 29.5008 189.733 29.8706C189.545 30.2352 189.449 30.6753 189.444 31.1909ZM210.559 26.1284L206.364 38.1284H202.614L198.418 26.1284H201.934L204.426 34.7144H204.551L207.036 26.1284H210.559ZM217.297 38.3628C216.084 38.3628 215.034 38.105 214.149 37.5894C213.269 37.0685 212.589 36.3446 212.11 35.4175C211.631 34.4852 211.391 33.4045 211.391 32.1753C211.391 30.9357 211.631 29.8524 212.11 28.9253C212.589 27.993 213.269 27.269 214.149 26.7534C215.034 26.2326 216.084 25.9722 217.297 25.9722C218.511 25.9722 219.558 26.2326 220.438 26.7534C221.323 27.269 222.006 27.993 222.485 28.9253C222.964 29.8524 223.203 30.9357 223.203 32.1753C223.203 33.4045 222.964 34.4852 222.485 35.4175C222.006 36.3446 221.323 37.0685 220.438 37.5894C219.558 38.105 218.511 38.3628 217.297 38.3628ZM217.313 35.7847C217.865 35.7847 218.326 35.6284 218.696 35.3159C219.065 34.9982 219.344 34.5659 219.532 34.019C219.724 33.4722 219.821 32.8498 219.821 32.1519C219.821 31.4539 219.724 30.8315 219.532 30.2847C219.344 29.7378 219.065 29.3055 218.696 28.9878C218.326 28.6701 217.865 28.5112 217.313 28.5112C216.756 28.5112 216.287 28.6701 215.907 28.9878C215.532 29.3055 215.248 29.7378 215.055 30.2847C214.868 30.8315 214.774 31.4539 214.774 32.1519C214.774 32.8498 214.868 33.4722 215.055 34.019C215.248 34.5659 215.532 34.9982 215.907 35.3159C216.287 35.6284 216.756 35.7847 217.313 35.7847ZM225.368 38.1284V26.1284H228.696V38.1284H225.368ZM227.039 24.5815C226.545 24.5815 226.12 24.4175 225.766 24.0894C225.417 23.756 225.243 23.3576 225.243 22.894C225.243 22.4357 225.417 22.0425 225.766 21.7144C226.12 21.381 226.545 21.2144 227.039 21.2144C227.534 21.2144 227.956 21.381 228.305 21.7144C228.659 22.0425 228.836 22.4357 228.836 22.894C228.836 23.3576 228.659 23.756 228.305 24.0894C227.956 24.4175 227.534 24.5815 227.039 24.5815ZM236.784 38.3628C235.554 38.3628 234.497 38.1024 233.612 37.5815C232.731 37.0555 232.054 36.3263 231.58 35.394C231.112 34.4618 230.877 33.3888 230.877 32.1753C230.877 30.9461 231.114 29.868 231.588 28.9409C232.067 28.0086 232.747 27.2821 233.627 26.7612C234.508 26.2352 235.554 25.9722 236.768 25.9722C237.815 25.9722 238.731 26.1623 239.518 26.5425C240.304 26.9227 240.927 27.4565 241.385 28.144C241.843 28.8315 242.096 29.6388 242.143 30.5659H239.002C238.914 29.967 238.679 29.4852 238.299 29.1206C237.924 28.7508 237.432 28.5659 236.823 28.5659C236.307 28.5659 235.856 28.7065 235.471 28.9878C235.091 29.2638 234.794 29.6675 234.58 30.1987C234.367 30.73 234.26 31.3732 234.26 32.1284C234.26 32.894 234.364 33.5451 234.573 34.0815C234.786 34.618 235.086 35.0269 235.471 35.3081C235.856 35.5894 236.307 35.73 236.823 35.73C237.203 35.73 237.544 35.6519 237.846 35.4956C238.153 35.3394 238.406 35.1128 238.604 34.8159C238.807 34.5138 238.94 34.1519 239.002 33.73H242.143C242.091 34.6466 241.841 35.4539 241.393 36.1519C240.95 36.8446 240.338 37.3862 239.557 37.7769C238.776 38.1675 237.851 38.3628 236.784 38.3628ZM244.274 38.1284V26.1284H247.602V38.1284H244.274ZM245.946 24.5815C245.451 24.5815 245.026 24.4175 244.672 24.0894C244.323 23.756 244.149 23.3576 244.149 22.894C244.149 22.4357 244.323 22.0425 244.672 21.7144C245.026 21.381 245.451 21.2144 245.946 21.2144C246.44 21.2144 246.862 21.381 247.211 21.7144C247.565 22.0425 247.743 22.4357 247.743 22.894C247.743 23.3576 247.565 23.756 247.211 24.0894C246.862 24.4175 246.44 24.5815 245.946 24.5815ZM253.596 31.1909V38.1284H250.268V26.1284H253.44V28.2456H253.58C253.846 27.5477 254.291 26.9956 254.916 26.5894C255.541 26.1779 256.299 25.9722 257.19 25.9722C258.023 25.9722 258.75 26.1545 259.369 26.519C259.989 26.8836 260.471 27.4045 260.815 28.0815C261.159 28.7534 261.33 29.5555 261.33 30.4878V38.1284H258.002V31.0815C258.008 30.3472 257.82 29.7743 257.44 29.3628C257.06 28.9461 256.536 28.7378 255.869 28.7378C255.422 28.7378 255.026 28.8341 254.682 29.0269C254.343 29.2196 254.078 29.5008 253.885 29.8706C253.698 30.2352 253.601 30.6753 253.596 31.1909ZM269.36 42.8784C268.282 42.8784 267.357 42.73 266.586 42.4331C265.821 42.1414 265.211 41.743 264.758 41.2378C264.305 40.7326 264.011 40.1649 263.875 39.5347L266.953 39.1206C267.047 39.3602 267.196 39.5841 267.399 39.7925C267.602 40.0008 267.87 40.1675 268.203 40.2925C268.542 40.4227 268.953 40.4878 269.438 40.4878C270.162 40.4878 270.758 40.3107 271.227 39.9565C271.701 39.6076 271.938 39.0216 271.938 38.1987V36.0034H271.797C271.651 36.3368 271.433 36.6519 271.141 36.9487C270.849 37.2456 270.474 37.4878 270.016 37.6753C269.558 37.8628 269.011 37.9565 268.375 37.9565C267.474 37.9565 266.654 37.7482 265.914 37.3315C265.18 36.9097 264.594 36.2664 264.157 35.4019C263.724 34.5321 263.508 33.4331 263.508 32.105C263.508 30.7456 263.73 29.6102 264.172 28.6987C264.615 27.7873 265.203 27.105 265.938 26.6519C266.677 26.1987 267.487 25.9722 268.368 25.9722C269.039 25.9722 269.602 26.0868 270.055 26.3159C270.508 26.5399 270.873 26.8211 271.149 27.1597C271.43 27.493 271.646 27.8211 271.797 28.144H271.922V26.1284H275.227V38.2456C275.227 39.2664 274.977 40.1206 274.477 40.8081C273.977 41.4956 273.284 42.0112 272.399 42.355C271.519 42.7039 270.506 42.8784 269.36 42.8784ZM269.43 35.4565C269.966 35.4565 270.42 35.3237 270.789 35.0581C271.164 34.7873 271.451 34.4019 271.649 33.9019C271.852 33.3966 271.953 32.7925 271.953 32.0894C271.953 31.3862 271.855 30.7769 271.657 30.2612C271.459 29.7404 271.172 29.3368 270.797 29.0503C270.422 28.7638 269.966 28.6206 269.43 28.6206C268.883 28.6206 268.422 28.769 268.047 29.0659C267.672 29.3576 267.388 29.7638 267.196 30.2847C267.003 30.8055 266.907 31.4071 266.907 32.0894C266.907 32.7821 267.003 33.381 267.196 33.8862C267.394 34.3862 267.677 34.7743 268.047 35.0503C268.422 35.3211 268.883 35.4565 269.43 35.4565Z" fill="#212528"/>
</g>
<g filter="url(#filter1_d_435_194)">
<rect x="-7.62939e-06" y="82.0488" width="296.286" height="143.324" rx="11.8514" fill="white" shape-rendering="crispEdges"/>
<rect x="1.42444" y="83.4733" width="293.437" height="140.475" rx="10.427" stroke="#212528" stroke-width="2.8489" shape-rendering="crispEdges"/>
<path fill-rule="evenodd" clip-rule="evenodd" d="M134.905 100.188C134.502 100.39 133.958 100.878 133.695 101.271C133.22 101.982 133.217 102.031 133.218 109.691C133.219 117.008 133.24 117.43 133.637 118.082C134.919 120.185 137.942 120.092 139.059 117.915C139.523 117.009 139.532 116.847 139.532 109.713C139.532 102.579 139.523 102.416 139.059 101.511C138.258 99.9502 136.496 99.3888 134.905 100.188ZM118.272 110.159C116.784 110.751 115.965 112.392 116.383 113.945C116.659 114.968 119.71 118.268 121.173 119.126C123.635 120.569 126.556 118.377 125.806 115.649C125.549 114.715 121.708 110.669 120.646 110.213C119.866 109.879 119.025 109.86 118.272 110.159ZM151.975 110.249C151.049 110.651 147.609 114.01 147.091 115.019C146.33 116.499 146.768 118.211 148.141 119.128C148.976 119.686 150.406 119.767 151.278 119.305C152.119 118.86 155.894 114.964 156.151 114.277C156.707 112.789 156.135 111.182 154.772 110.4C153.824 109.857 152.984 109.812 151.975 110.249ZM174.11 111.09C171.444 111.808 171.749 111.533 154.228 129.031C139.416 143.823 137.652 145.519 137.544 145.062C137.478 144.78 136.999 142.703 136.479 140.446C135.251 135.115 134.477 133.446 132.171 131.161C130.41 129.416 128.459 128.295 126.174 127.714C124.566 127.305 121.453 127.304 119.842 127.712C117.115 128.403 113.725 130.637 113.087 132.165C112.85 132.732 112.799 136.4 112.799 152.808V172.761L107.952 177.601C102.777 182.768 102.492 183.164 102.787 184.789C102.918 185.509 104.109 186.778 113.603 196.303C119.694 202.415 124.561 207.133 124.948 207.301C125.508 207.545 128.356 207.596 141.386 207.596C159.113 207.596 158.715 207.627 161.908 205.987C163.305 205.271 164.539 204.096 177.661 190.983C190.665 177.989 191.954 176.639 192.55 175.389C195.109 170.028 192.726 163.895 187.221 161.679L186.369 161.336L186.369 159.258C186.369 156.749 185.93 155.226 184.681 153.392C183.674 151.913 181.657 150.304 180.142 149.769L179.076 149.392L179.214 148.009C179.568 144.463 177.839 140.871 174.753 138.738C174.269 138.404 173.772 138.13 173.648 138.13C173.524 138.13 173.423 138.063 173.423 137.981C173.423 137.898 175.969 135.27 179.082 132.139C185.162 126.023 185.548 125.517 186.182 122.818C187.825 115.826 181.032 109.226 174.11 111.09ZM175.317 117.324C174.736 117.487 170.97 121.138 157.441 134.653L140.302 151.776L141.317 152.899C144.368 156.274 146.02 160.401 146.214 165.132C146.347 168.359 146.071 170.319 145.103 173.031C143.974 176.193 141.325 180.04 139.698 180.88C137.586 181.97 135.112 180.517 135.112 178.186C135.112 177.053 135.309 176.662 136.63 175.178C138.908 172.62 140.082 169.121 139.903 165.419C139.718 161.575 138.499 159.072 135.043 155.442L132.891 153.181L131.142 145.603C129.971 140.523 129.231 137.743 128.899 137.168C128.222 136 127.211 135.042 125.955 134.38C125.058 133.907 124.635 133.824 123.098 133.82C121.621 133.816 121.094 133.908 120.203 134.325L119.114 134.834V154.782C119.114 168.209 119.041 174.92 118.893 175.312C118.771 175.631 116.808 177.771 114.531 180.067L110.39 184.24L118.909 192.765L127.428 201.29L142.374 201.233L157.32 201.175L158.477 200.603C159.406 200.144 161.134 198.525 167.213 192.423C171.552 188.067 174.678 184.773 174.527 184.715C173.897 184.476 171.771 182.752 171.179 181.999C170.033 180.544 169.002 178.006 169.002 176.641C169.002 176.107 168.933 176.067 167.772 175.936C166.309 175.77 164.005 174.708 162.762 173.627C161.108 172.188 159.848 169.863 159.563 167.722L159.425 166.687L157.626 166.249C155.51 165.734 153.744 164.741 152.507 163.373C149.678 160.242 149.074 155.974 150.911 152.077C151.276 151.304 154.61 147.835 165.529 136.867C178.492 123.846 179.696 122.578 179.934 121.694C180.441 119.811 179.343 117.82 177.518 117.314C176.55 117.045 176.312 117.046 175.317 117.324ZM168.16 143.632C167.618 143.794 166.043 145.221 162.189 149.043C156.866 154.321 156.176 155.188 156.166 156.608C156.152 158.722 158.201 160.444 160.356 160.129C161.277 159.995 161.56 159.75 166.755 154.585C169.745 151.613 172.342 148.897 172.527 148.55C172.713 148.203 172.859 147.466 172.852 146.913C172.824 144.563 170.497 142.936 168.16 143.632ZM175.002 155.793C173.983 156.268 166.4 163.846 166.069 164.72C165.215 166.976 166.577 169.392 168.848 169.648C170.554 169.84 170.946 169.566 175.465 165.02C179.053 161.411 179.737 160.622 179.938 159.864C180.381 158.194 179.569 156.519 177.965 155.79C176.878 155.297 176.065 155.297 175.002 155.793ZM182.159 167.717C181.251 168.184 176.205 173.244 175.723 174.17C174.337 176.838 176.867 179.946 179.79 179.166C180.519 178.971 181.227 178.393 183.605 176.053C186.889 172.82 187.447 171.948 187.217 170.409C186.878 168.152 184.144 166.697 182.159 167.717Z" fill="#AA50F6"/>
</g>
<g filter="url(#filter2_d_435_194)">
<rect x="-7.62939e-06" y="248.163" width="139.254" height="96.3309" rx="11.8514" fill="white" shape-rendering="crispEdges"/>
<rect x="1.42444" y="249.588" width="136.405" height="93.482" rx="10.427" stroke="#212528" stroke-width="2.8489" shape-rendering="crispEdges"/>
<path d="M78.4904 293.796C80.5883 293.796 82.289 292.095 82.289 289.998C82.289 287.9 80.5883 286.199 78.4904 286.199C76.3926 286.199 74.6919 287.9 74.6919 289.998C74.6919 292.095 76.3926 293.796 78.4904 293.796Z" fill="#29A653"/>
<path d="M60.7639 293.796C62.8618 293.796 64.5625 292.095 64.5625 289.998C64.5625 287.9 62.8618 286.199 60.7639 286.199C58.6661 286.199 56.9654 287.9 56.9654 289.998C56.9654 292.095 58.6661 293.796 60.7639 293.796Z" fill="#29A653"/>
<path d="M69.6272 306.458C65.8793 306.458 62.6632 304.407 60.8906 301.393H56.6615C58.6874 306.585 63.7268 310.256 69.6272 310.256C75.5276 310.256 80.567 306.585 82.5929 301.393H78.3638C76.5912 304.407 73.3751 306.458 69.6272 306.458ZM69.6019 271.005C55.6233 271.005 44.3036 282.35 44.3036 296.328C44.3036 310.307 55.6233 321.652 69.6019 321.652C83.6058 321.652 94.9508 310.307 94.9508 296.328C94.9508 282.35 83.6058 271.005 69.6019 271.005ZM69.6272 316.587C58.4342 316.587 49.3683 307.521 49.3683 296.328C49.3683 285.135 58.4342 276.07 69.6272 276.07C80.8202 276.07 89.8861 285.135 89.8861 296.328C89.8861 307.521 80.8202 316.587 69.6272 316.587Z" fill="#29A653"/>
</g>
<g filter="url(#filter3_d_435_194)">
<rect x="162.046" y="248.163" width="139.254" height="96.3309" rx="11.8514" fill="white" shape-rendering="crispEdges"/>
<rect x="163.47" y="249.588" width="136.405" height="93.482" rx="10.427" stroke="#212528" stroke-width="2.8489" shape-rendering="crispEdges"/>
<path d="M223.569 306.205L212.933 295.569L209.388 299.114L223.569 313.295L253.958 282.907L250.412 279.362L223.569 306.205Z" fill="#0080FF"/>
</g>
<defs>
<filter id="filter0_d_435_194" x="0" y="0" width="299.249" height="62.2202" filterUnits="userSpaceOnUse" color-interpolation-filters="sRGB">
<feFlood flood-opacity="0" result="BackgroundImageFix"/>
<feColorMatrix in="SourceAlpha" type="matrix" values="0 0 0 0 0 0 0 0 0 0 0 0 0 0 0 0 0 0 127 0" result="hardAlpha"/>
<feOffset dx="2.96286" dy="2.96286"/>
<feComposite in2="hardAlpha" operator="out"/>
<feColorMatrix type="matrix" values="0 0 0 0 0.859888 0 0 0 0 0.859888 0 0 0 0 0.859888 0 0 0 1 0"/>
<feBlend mode="normal" in2="BackgroundImageFix" result="effect1_dropShadow_435_194"/>
<feBlend mode="normal" in="SourceGraphic" in2="effect1_dropShadow_435_194" result="shape"/>
</filter>
<filter id="filter1_d_435_194" x="-7.62939e-06" y="82.0488" width="299.249" height="146.287" filterUnits="userSpaceOnUse" color-interpolation-filters="sRGB">
<feFlood flood-opacity="0" result="BackgroundImageFix"/>
<feColorMatrix in="SourceAlpha" type="matrix" values="0 0 0 0 0 0 0 0 0 0 0 0 0 0 0 0 0 0 127 0" result="hardAlpha"/>
<feOffset dx="2.96286" dy="2.96286"/>
<feComposite in2="hardAlpha" operator="out"/>
<feColorMatrix type="matrix" values="0 0 0 0 0.933333 0 0 0 0 0.666667 0 0 0 0 0.905882 0 0 0 1 0"/>
<feBlend mode="normal" in2="BackgroundImageFix" result="effect1_dropShadow_435_194"/>
<feBlend mode="normal" in="SourceGraphic" in2="effect1_dropShadow_435_194" result="shape"/>
</filter>
<filter id="filter2_d_435_194" x="-7.62939e-06" y="248.163" width="142.217" height="99.2939" filterUnits="userSpaceOnUse" color-interpolation-filters="sRGB">
<feFlood flood-opacity="0" result="BackgroundImageFix"/>
<feColorMatrix in="SourceAlpha" type="matrix" values="0 0 0 0 0 0 0 0 0 0 0 0 0 0 0 0 0 0 127 0" result="hardAlpha"/>
<feOffset dx="2.96286" dy="2.96286"/>
<feComposite in2="hardAlpha" operator="out"/>
<feColorMatrix type="matrix" values="0 0 0 0 0.690435 0 0 0 0 0.909565 0 0 0 0 0.713043 0 0 0 1 0"/>
<feBlend mode="normal" in2="BackgroundImageFix" result="effect1_dropShadow_435_194"/>
<feBlend mode="normal" in="SourceGraphic" in2="effect1_dropShadow_435_194" result="shape"/>
</filter>
<filter id="filter3_d_435_194" x="162.046" y="248.163" width="142.217" height="99.2939" filterUnits="userSpaceOnUse" color-interpolation-filters="sRGB">
<feFlood flood-opacity="0" result="BackgroundImageFix"/>
<feColorMatrix in="SourceAlpha" type="matrix" values="0 0 0 0 0 0 0 0 0 0 0 0 0 0 0 0 0 0 127 0" result="hardAlpha"/>
<feOffset dx="2.96286" dy="2.96286"/>
<feComposite in2="hardAlpha" operator="out"/>
<feColorMatrix type="matrix" values="0 0 0 0 0.667568 0 0 0 0 0.8 0 0 0 0 0.932432 0 0 0 1 0"/>
<feBlend mode="normal" in2="BackgroundImageFix" result="effect1_dropShadow_435_194"/>
<feBlend mode="normal" in="SourceGraphic" in2="effect1_dropShadow_435_194" result="shape"/>
</filter>
</defs>
</svg>
