<?xml version="1.0" encoding="UTF-8"?>
<!DOCTYPE svg PUBLIC "-//W3C//DTD SVG 1.1//EN" "http://www.w3.org/Graphics/SVG/1.1/DTD/svg11.dtd">
<!-- Creator: CorelDRAW X8 -->
<svg xmlns="http://www.w3.org/2000/svg" xml:space="preserve" width="4.45305in" height="3in" version="1.1" style="shape-rendering:geometricPrecision; text-rendering:geometricPrecision; image-rendering:optimizeQuality; fill-rule:evenodd; clip-rule:evenodd"
viewBox="0 0 5723 3855"
 xmlns:xlink="http://www.w3.org/1999/xlink">
 <defs>
  <style type="text/css">
   <![CDATA[
    .str0 {stroke:#1A237E;stroke-width:3.85183}
    .str4 {stroke:#1A237E;stroke-width:21.5591}
    .str5 {stroke:#1A237E;stroke-width:21.5591}
    .str3 {stroke:#1A237E;stroke-width:21.5591}
    .str1 {stroke:#1A237E;stroke-width:21.5591}
    .str6 {stroke:#1A237E;stroke-width:21.5591}
    .str7 {stroke:#1A237E;stroke-width:21.5591}
    .str10 {stroke:#1A237E;stroke-width:21.5591}
    .str8 {stroke:#1A237E;stroke-width:21.5591}
    .str11 {stroke:#1A237E;stroke-width:21.5591}
    .str9 {stroke:#1A237E;stroke-width:21.5591}
    .str2 {stroke:#1A237E;stroke-width:21.5591}
    .fil2 {fill:none}
    .fil0 {fill:#1A237E}
    .fil4 {fill:#4B55C2}
    .fil3 {fill:#FEFEFE;fill-rule:nonzero}
    .fil1 {fill:#1A237E;fill-rule:nonzero}
   ]]>
  </style>
 </defs>
 <g id="Layer_x0020_1">
  <metadata id="CorelCorpID_0Corel-Layer"/>
  <g id="_2490746900480">
   <path class="fil0" d="M5023 428l-4830 0c-107,0 -193,86 -193,193l0 3041c0,107 86,193 193,193l4830 0c107,0 193,-86 193,-193l0 -3041c0,-107 -86,-193 -193,-193zm11 3069c-2,108 -90,194 -198,193l-4458 0c-108,1 -197,-85 -199,-193l0 -2716c2,-108 91,-195 199,-194l4460 0c108,-1 197,86 199,194l0 2716 -3 0z"/>
   <polygon class="fil1" points="495,1003 495,849 610,849 610,875 527,875 527,909 604,909 604,935 527,935 527,977 613,977 613,1003 "/>
   <polygon id="1" class="fil1" points="625,1003 665,945 626,891 662,891 682,922 703,891 738,891 700,944 741,1003 705,1003 682,968 659,1003 "/>
   <path id="2" class="fil1" d="M758 891l28 0 0 17c3,-6 8,-11 14,-14 6,-4 13,-5 20,-5 13,0 24,5 33,15 9,10 14,24 14,43 0,18 -5,33 -14,43 -9,11 -20,16 -33,16 -6,0 -12,-1 -17,-4 -5,-2 -10,-7 -16,-13l0 56 -29 0 0 -154zm29 54c0,13 3,22 8,28 4,6 11,9 18,9 7,0 12,-2 17,-8 4,-6 7,-15 7,-27 0,-12 -3,-21 -7,-26 -5,-6 -11,-9 -18,-9 -7,0 -13,3 -18,8 -5,6 -7,14 -7,25z"/>
   <path id="3" class="fil1" d="M955 968l30 5c-4,10 -10,19 -18,24 -8,6 -19,9 -31,9 -19,0 -34,-7 -43,-19 -7,-11 -11,-23 -11,-39 0,-18 5,-33 14,-44 10,-10 22,-15 37,-15 17,0 30,5 39,16 10,11 15,28 14,51l-74 0c0,9 3,15 7,20 5,5 11,8 17,8 5,0 9,-2 12,-4 3,-3 6,-7 7,-12zm2 -30c0,-9 -3,-15 -7,-20 -4,-4 -9,-7 -15,-7 -7,0 -12,3 -16,7 -4,5 -6,12 -6,20l44 0z"/>
   <path id="4" class="fil1" d="M1112 1003l-29 0 0 -57c0,-12 -1,-20 -2,-23 -2,-4 -4,-7 -7,-9 -2,-2 -6,-3 -10,-3 -5,0 -10,2 -14,5 -4,2 -7,6 -8,11 -2,4 -3,13 -3,25l0 51 -29 0 0 -112 27 0 0 17c10,-13 22,-19 37,-19 7,0 13,1 18,3 6,3 10,6 13,9 2,4 4,8 5,13 2,4 2,11 2,20l0 69z"/>
   <path id="5" class="fil1" d="M1131 972l30 -5c1,6 4,10 8,13 4,3 9,4 16,4 8,0 14,-1 17,-4 3,-2 4,-4 4,-8 0,-2 0,-4 -2,-5 -1,-2 -5,-3 -10,-4 -24,-5 -39,-10 -45,-15 -9,-6 -13,-14 -13,-25 0,-10 3,-18 11,-24 8,-7 20,-10 36,-10 15,0 26,2 34,7 7,5 12,13 15,22l-28 6c-1,-5 -3,-8 -6,-10 -4,-3 -9,-4 -15,-4 -8,0 -13,1 -17,3 -2,2 -3,4 -3,6 0,2 1,4 3,6 3,2 12,4 28,8 15,4 26,8 33,13 6,5 9,13 9,22 0,11 -4,19 -13,27 -8,7 -21,11 -38,11 -15,0 -27,-3 -36,-9 -9,-7 -15,-15 -18,-25z"/>
   <path id="6" class="fil1" d="M1327 968l29 5c-4,10 -10,19 -18,24 -8,6 -18,9 -30,9 -20,0 -34,-7 -44,-19 -7,-11 -11,-23 -11,-39 0,-18 5,-33 15,-44 10,-10 22,-15 37,-15 16,0 29,5 39,16 9,11 14,28 14,51l-74 0c0,9 2,15 7,20 4,5 10,8 17,8 4,0 8,-2 11,-4 4,-3 6,-7 8,-12zm1 -30c0,-9 -2,-15 -6,-20 -4,-4 -10,-7 -16,-7 -6,0 -11,3 -16,7 -4,5 -6,12 -6,20l44 0z"/>
   <path id="7" class="fil1" d="M1442 1003l0 -154 66 0c16,0 28,1 36,4 7,3 13,7 18,15 4,7 6,15 6,24 0,11 -3,21 -10,29 -7,7 -17,12 -30,14 6,4 12,8 16,13 5,4 11,13 18,25l19 30 -37 0 -23 -34c-8,-12 -13,-19 -16,-22 -3,-3 -6,-6 -10,-7 -3,-1 -8,-1 -15,-1l-7 0 0 64 -31 0zm31 -89l23 0c15,0 25,-1 28,-2 4,-1 7,-3 9,-7 2,-3 3,-6 3,-11 0,-5 -1,-9 -4,-13 -3,-3 -7,-5 -12,-6 -2,0 -10,0 -22,0l-25 0 0 39z"/>
   <path id="8" class="fil1" d="M1662 968l30 5c-4,10 -10,19 -18,24 -8,6 -19,9 -31,9 -19,0 -34,-7 -43,-19 -7,-11 -11,-23 -11,-39 0,-18 5,-33 14,-44 10,-10 22,-15 37,-15 17,0 30,5 39,16 10,11 15,28 14,51l-74 0c0,9 3,15 7,20 5,5 11,8 17,8 5,0 9,-2 12,-4 3,-3 5,-7 7,-12zm2 -30c0,-9 -3,-15 -7,-20 -4,-4 -9,-7 -15,-7 -7,0 -12,3 -16,7 -4,5 -6,12 -6,20l44 0z"/>
   <path id="9" class="fil1" d="M1716 891l28 0 0 17c4,-6 8,-11 15,-14 6,-4 12,-5 20,-5 13,0 24,5 33,15 9,10 14,24 14,43 0,18 -5,33 -14,43 -9,11 -20,16 -33,16 -7,0 -12,-1 -17,-4 -5,-2 -10,-7 -16,-13l0 56 -30 0 0 -154zm30 54c0,13 2,22 7,28 5,6 11,9 18,9 7,0 13,-2 17,-8 5,-6 7,-15 7,-27 0,-12 -2,-21 -7,-26 -5,-6 -10,-9 -17,-9 -8,0 -14,3 -18,8 -5,6 -7,14 -7,25z"/>
   <path id="10" class="fil1" d="M1842 946c0,-10 3,-20 7,-29 5,-9 12,-16 21,-21 9,-5 19,-7 30,-7 17,0 30,5 41,16 11,11 16,25 16,42 0,17 -5,31 -16,42 -11,11 -25,17 -41,17 -10,0 -20,-3 -29,-7 -10,-5 -17,-12 -22,-21 -4,-9 -7,-19 -7,-32zm30 1c0,11 3,20 8,26 6,6 12,9 20,9 8,0 14,-3 19,-9 5,-6 8,-15 8,-26 0,-11 -3,-19 -8,-25 -5,-6 -11,-9 -19,-9 -8,0 -14,3 -20,9 -5,6 -8,14 -8,25z"/>
   <path id="11" class="fil1" d="M2009 1003l-30 0 0 -112 28 0 0 16c4,-8 9,-12 12,-15 4,-2 9,-3 13,-3 7,0 14,2 20,5l-9 26c-5,-3 -10,-5 -14,-5 -4,0 -8,1 -11,4 -3,2 -5,6 -7,12 -1,6 -2,18 -2,37l0 35z"/>
   <path id="12" class="fil1" d="M2116 891l0 24 -21 0 0 45c0,9 1,14 1,16 0,1 1,3 3,4 1,1 3,1 5,1 2,0 6,-1 12,-3l2 23c-7,3 -15,5 -23,5 -6,0 -10,-1 -15,-3 -4,-2 -7,-4 -9,-7 -2,-3 -3,-7 -4,-11 -1,-4 -1,-11 -1,-21l0 -49 -14 0 0 -24 14 0 0 -22 29 -18 0 40 21 0z"/>
   <ellipse class="fil0" cx="5081" cy="642" rx="641" ry="642"/>
   <line class="fil2 str0" x1="495" y1="1130" x2="4915" y2= "1111" />
   <polygon class="fil3" points="5010,926 5010,715 4797,715 4797,569 5010,569 5010,358 5152,358 5152,569 5366,569 5366,715 5152,715 5152,926 "/>
   <path class="fil1" d="M1068 3447l47 -123 18 0 50 123 -18 0 -15 -37 -52 0 -13 37 -17 0zm35 -50l42 0 -13 -35c-3,-10 -6,-19 -8,-25 -2,8 -4,16 -7,23l-14 37z"/>
   <path id="1" class="fil1" d="M1194 3482l0 -124 14 0 0 12c3,-5 7,-8 11,-11 4,-2 9,-3 15,-3 8,0 15,2 20,6 6,4 11,9 14,16 3,8 4,15 4,24 0,9 -2,17 -5,25 -3,7 -8,12 -14,16 -6,4 -13,6 -20,6 -5,0 -10,-1 -14,-3 -4,-2 -7,-5 -9,-8l0 44 -16 0zm14 -79c0,12 3,20 7,26 5,5 10,8 17,8 7,0 13,-3 17,-9 5,-5 8,-14 8,-26 0,-12 -3,-20 -8,-26 -4,-5 -10,-8 -16,-8 -7,0 -12,3 -17,9 -5,6 -8,15 -8,26z"/>
   <path id="2" class="fil1" d="M1290 3447l0 -89 14 0 0 14c3,-7 6,-11 9,-13 3,-2 7,-3 10,-3 5,0 11,2 16,5l-6 14c-3,-2 -7,-3 -11,-3 -3,0 -6,1 -9,3 -2,2 -4,4 -5,8 -2,5 -3,11 -3,18l0 46 -15 0z"/>
   <path class="fil1" d="M1735 3447l0 -123 25 0 29 87c3,8 5,15 6,19 1,-5 3,-12 6,-20l30 -86 22 0 0 123 -16 0 0 -103 -36 103 -14 0 -36 -105 0 105 -16 0z"/>
   <path id="1" class="fil1" d="M1936 3436c-6,5 -11,8 -16,10 -6,2 -11,3 -17,3 -10,0 -18,-2 -23,-7 -5,-5 -8,-11 -8,-18 0,-5 1,-9 3,-12 2,-4 5,-7 8,-9 3,-2 7,-4 11,-5 3,-1 7,-1 13,-2 13,-2 22,-3 27,-5 1,-2 1,-4 1,-4 0,-6 -2,-11 -5,-13 -4,-4 -9,-5 -17,-5 -7,0 -12,1 -16,3 -3,3 -6,7 -7,14l-15 -2c1,-7 3,-12 6,-16 3,-4 8,-7 14,-9 6,-2 12,-3 20,-3 8,0 14,1 19,3 5,1 8,4 10,6 3,3 4,7 5,11 1,2 1,7 1,14l0 20c0,14 0,23 1,27 0,3 2,7 4,10l-16 0c-2,-3 -3,-7 -3,-11zm-1 -33c-6,2 -14,4 -25,5 -7,1 -11,2 -14,3 -2,1 -4,3 -6,5 -1,2 -2,5 -2,7 0,4 2,8 5,10 3,3 8,4 13,4 6,0 11,-1 16,-3 5,-3 8,-6 10,-11 2,-3 2,-8 2,-15l1 -5z"/>
   <path id="2" class="fil1" d="M1973 3482l-2 -14c3,1 6,1 8,1 4,0 7,-1 9,-2 2,-1 3,-2 5,-4 1,-2 2,-6 4,-12 1,0 1,-2 2,-3l-34 -90 16 0 19 52c2,6 4,13 6,20 2,-7 4,-13 6,-20l19 -52 15 0 -33 91c-4,10 -7,16 -9,20 -3,5 -6,9 -9,11 -4,2 -8,4 -13,4 -3,0 -6,-1 -9,-2z"/>
   <path class="fil1" d="M2448 3412l15 -2c0,10 2,16 5,20 3,3 7,5 13,5 4,0 7,-1 10,-3 3,-2 5,-4 7,-8 1,-3 1,-8 1,-15l0 -85 17 0 0 84c0,10 -2,18 -4,24 -3,6 -7,10 -12,13 -5,3 -12,4 -19,4 -11,0 -19,-3 -25,-9 -6,-6 -8,-15 -8,-28z"/>
   <path id="1" class="fil1" d="M2599 3447l0 -13c-7,10 -16,15 -28,15 -6,0 -11,-1 -15,-3 -5,-2 -8,-4 -10,-7 -2,-3 -4,-7 -5,-12 -1,-3 -1,-7 -1,-14l0 -55 15 0 0 49c0,8 1,14 1,16 1,4 3,7 6,10 3,2 7,3 12,3 4,0 9,-1 12,-3 4,-3 7,-6 9,-10 2,-4 2,-10 2,-17l0 -48 16 0 0 89 -14 0z"/>
   <path id="2" class="fil1" d="M2636 3447l0 -89 14 0 0 13c7,-10 16,-15 28,-15 6,0 11,1 15,3 5,2 8,4 10,7 3,4 4,7 5,12 1,2 1,7 1,14l0 55 -15 0 0 -54c0,-6 -1,-11 -2,-14 -1,-3 -3,-5 -6,-7 -3,-2 -7,-3 -11,-3 -6,0 -12,2 -16,6 -5,4 -7,12 -7,24l0 48 -16 0z"/>
   <path class="fil1" d="M3164 3412l15 -2c0,10 2,16 5,20 3,3 8,5 13,5 4,0 8,-1 11,-3 3,-2 5,-4 6,-8 1,-3 2,-8 2,-15l0 -85 16 0 0 84c0,10 -1,18 -4,24 -2,6 -6,10 -11,13 -6,3 -12,4 -20,4 -10,0 -19,-3 -24,-9 -6,-6 -9,-15 -9,-28z"/>
   <path id="1" class="fil1" d="M3315 3447l0 -13c-7,10 -16,15 -28,15 -5,0 -10,-1 -15,-3 -4,-2 -8,-4 -10,-7 -2,-3 -4,-7 -4,-12 -1,-3 -1,-7 -1,-14l0 -55 15 0 0 49c0,8 0,14 1,16 1,4 3,7 6,10 3,2 7,3 11,3 5,0 9,-1 13,-3 4,-3 7,-6 8,-10 2,-4 3,-10 3,-17l0 -48 15 0 0 89 -14 0z"/>
   <polygon id="2" class="fil1" points="3353,3447 3353,3324 3368,3324 3368,3447 "/>
   <path class="fil1" d="M3806 3447l47 -123 18 0 50 123 -18 0 -14 -37 -52 0 -14 37 -17 0zm35 -50l42 0 -12 -35c-4,-10 -7,-19 -9,-25 -2,8 -4,16 -7,23l-14 37z"/>
   <path id="1" class="fil1" d="M3991 3447l0 -13c-7,10 -16,15 -28,15 -6,0 -11,-1 -15,-3 -5,-2 -8,-4 -10,-7 -2,-3 -4,-7 -5,-12 -1,-3 -1,-7 -1,-14l0 -55 15 0 0 49c0,8 1,14 1,16 1,4 3,7 6,10 3,2 7,3 12,3 4,0 9,-1 12,-3 4,-3 7,-6 9,-10 2,-4 2,-10 2,-17l0 -48 16 0 0 89 -14 0z"/>
   <path id="2" class="fil1" d="M4026 3455l14 2c1,4 3,8 5,10 4,3 9,4 16,4 7,0 12,-1 16,-4 4,-3 7,-7 8,-12 1,-3 1,-10 1,-19 -7,7 -15,11 -25,11 -12,0 -22,-4 -28,-13 -7,-9 -10,-19 -10,-32 0,-8 1,-16 4,-23 3,-8 8,-13 14,-17 5,-4 12,-6 20,-6 11,0 20,4 26,13l0 -11 14 0 0 77c0,14 -1,24 -4,30 -3,6 -7,10 -13,14 -7,3 -14,5 -23,5 -11,0 -19,-3 -26,-8 -6,-4 -10,-12 -9,-21zm12 -54c0,12 2,20 7,26 5,5 11,8 18,8 7,0 12,-3 17,-8 5,-6 7,-14 7,-25 0,-11 -2,-20 -7,-25 -5,-6 -11,-8 -18,-8 -6,0 -12,2 -17,8 -5,5 -7,13 -7,24z"/>
   <path class="fil1" d="M4495 3408l16 -2c0,7 2,12 5,16 2,4 6,7 12,9 6,3 12,4 19,4 6,0 12,-1 16,-3 5,-2 9,-4 11,-8 2,-3 4,-6 4,-10 0,-4 -1,-7 -4,-10 -2,-3 -6,-6 -11,-8 -3,-1 -11,-3 -22,-6 -11,-2 -19,-5 -24,-7 -6,-3 -10,-7 -13,-12 -3,-4 -4,-9 -4,-15 0,-6 2,-12 5,-18 4,-5 9,-9 16,-12 6,-3 14,-4 22,-4 9,0 18,1 25,4 6,3 12,7 16,13 3,6 5,12 6,20l-16 1c-1,-8 -4,-14 -9,-18 -4,-4 -12,-6 -21,-6 -10,0 -17,2 -22,6 -4,3 -6,8 -6,13 0,4 1,8 4,11 3,3 12,6 25,9 13,3 22,5 27,7 7,4 13,8 16,13 4,5 5,11 5,18 0,6 -2,12 -5,18 -4,6 -9,10 -17,14 -7,3 -14,4 -23,4 -11,0 -21,-1 -28,-4 -8,-4 -14,-9 -18,-15 -4,-7 -7,-14 -7,-22z"/>
   <path id="1" class="fil1" d="M4675 3418l15 2c-2,10 -7,17 -13,22 -7,5 -15,7 -26,7 -13,0 -23,-4 -31,-12 -8,-8 -11,-19 -11,-34 0,-15 4,-26 11,-35 8,-8 18,-12 30,-12 12,0 22,4 30,12 7,8 11,20 11,34 0,1 0,3 0,4l-67 0c1,10 4,18 9,23 4,5 11,8 18,8 6,0 10,-2 14,-5 4,-3 7,-7 10,-14zm-50 -24l50 0c-1,-7 -3,-13 -6,-17 -5,-6 -11,-9 -19,-9 -7,0 -12,3 -17,7 -5,5 -7,11 -8,19z"/>
   <path id="2" class="fil1" d="M4710 3482l0 -124 13 0 0 12c4,-5 7,-8 11,-11 4,-2 9,-3 15,-3 8,0 15,2 21,6 5,4 10,9 13,16 3,8 4,15 4,24 0,9 -1,17 -5,25 -3,7 -8,12 -14,16 -6,4 -13,6 -20,6 -5,0 -9,-1 -13,-3 -4,-2 -8,-5 -10,-8l0 44 -15 0zm13 -79c0,12 3,20 7,26 5,5 11,8 17,8 7,0 13,-3 17,-9 5,-5 8,-14 8,-26 0,-12 -3,-20 -7,-26 -5,-5 -11,-8 -17,-8 -7,0 -12,3 -17,9 -5,6 -8,15 -8,26z"/>
   <line class="fil2 str1" x1="1203" y1="3264" x2="1203" y2= "3200" />
   <line class="fil2 str2" x1="716" y1="3114" x2="780" y2= "3114" />
   <line class="fil2 str3" x1="1891" y1="3264" x2="1891" y2= "3200" />
   <line class="fil2 str4" x1="2578" y1="3264" x2="2578" y2= "3200" />
   <line class="fil2 str5" x1="3266" y1="3264" x2="3266" y2= "3200" />
   <line class="fil2 str6" x1="3954" y1="3264" x2="3954" y2= "3200" />
   <line class="fil2 str7" x1="4641" y1="3264" x2="4641" y2= "3200" />
   <line class="fil2 str1" x1="780" y1="3506" x2="780" y2= "1284" />
   <line class="fil2 str8" x1="716" y1="2705" x2="780" y2= "2705" />
   <line class="fil2 str9" x1="716" y1="2296" x2="780" y2= "2296" />
   <line class="fil2 str10" x1="716" y1="1886" x2="780" y2= "1886" />
   <line class="fil2 str11" x1="716" y1="1477" x2="780" y2= "1477" />
   <path class="fil1" d="M544 3142l0 8 -49 0c0,-2 1,-4 1,-6 2,-3 4,-6 6,-10 3,-3 7,-7 12,-11 8,-6 14,-12 17,-15 2,-4 4,-8 4,-11 0,-4 -1,-7 -4,-10 -3,-2 -6,-3 -10,-3 -5,0 -8,1 -11,4 -2,2 -4,6 -4,11l-9 -1c1,-7 3,-13 7,-16 4,-4 10,-6 17,-6 7,0 13,2 17,6 4,4 6,9 6,15 0,3 0,6 -2,8 -1,3 -3,6 -6,10 -3,3 -7,7 -14,13 -5,4 -9,7 -10,9 -2,1 -3,3 -4,5l36 0z"/>
   <path id="1" class="fil1" d="M554 3114c0,-9 1,-16 3,-21 2,-5 4,-10 8,-12 3,-3 8,-5 13,-5 4,0 8,1 11,3 3,1 5,4 7,7 2,3 3,6 4,11 2,4 2,10 2,17 0,9 -1,16 -3,21 -1,5 -4,9 -8,12 -3,3 -8,5 -13,5 -7,0 -13,-3 -17,-8 -5,-6 -7,-16 -7,-30zm9 0c0,12 2,20 5,24 2,4 6,6 10,6 4,0 8,-2 11,-6 2,-4 4,-12 4,-24 0,-12 -2,-20 -4,-24 -3,-4 -7,-6 -11,-6 -4,0 -8,2 -10,5 -3,5 -5,13 -5,25z"/>
   <polygon id="2" class="fil1" points="614,3150 614,3077 623,3077 623,3119 644,3097 656,3097 636,3117 658,3150 647,3150 629,3123 623,3129 623,3150 "/>
   <path class="fil1" d="M526 2741l0 -17 -32 0 0 -9 33 -48 8 0 0 48 10 0 0 9 -10 0 0 17 -9 0zm0 -26l0 -33 -23 33 23 0z"/>
   <path id="1" class="fil1" d="M554 2705c0,-9 1,-16 3,-21 2,-6 4,-10 8,-13 3,-3 8,-4 13,-4 4,0 8,1 11,2 3,2 5,4 7,7 2,3 3,7 4,11 2,5 2,10 2,18 0,8 -1,15 -3,21 -1,5 -4,9 -8,12 -3,3 -8,4 -13,4 -7,0 -13,-2 -17,-7 -5,-6 -7,-16 -7,-30zm9 0c0,12 2,20 5,24 2,4 6,6 10,6 4,0 8,-2 11,-6 2,-4 4,-12 4,-24 0,-12 -2,-20 -4,-24 -3,-4 -7,-6 -11,-6 -4,0 -8,1 -10,5 -3,4 -5,13 -5,25z"/>
   <polygon id="2" class="fil1" points="614,2741 614,2667 623,2667 623,2709 644,2688 656,2688 636,2708 658,2741 647,2741 629,2714 623,2720 623,2741 "/>
   <path class="fil1" d="M544 2276l-9 1c-1,-4 -2,-6 -4,-8 -2,-2 -5,-4 -9,-4 -3,0 -5,1 -7,3 -3,2 -6,5 -7,9 -2,4 -3,9 -3,17 2,-3 5,-6 8,-8 3,-1 7,-2 10,-2 6,0 11,2 16,7 4,4 6,10 6,17 0,5 -1,9 -3,13 -2,4 -5,7 -8,9 -4,2 -8,3 -12,3 -8,0 -14,-3 -19,-8 -4,-6 -7,-15 -7,-28 0,-14 3,-24 8,-31 5,-5 11,-8 19,-8 6,0 10,1 14,5 4,3 6,7 7,13zm-37 32c0,3 0,6 2,9 1,3 3,5 5,7 3,1 5,2 8,2 4,0 7,-2 10,-5 2,-3 4,-7 4,-12 0,-6 -2,-10 -4,-12 -3,-3 -6,-5 -11,-5 -4,0 -7,2 -10,5 -3,2 -4,6 -4,11z"/>
   <path id="1" class="fil1" d="M554 2296c0,-9 1,-16 3,-22 2,-5 4,-9 8,-12 3,-3 8,-4 13,-4 4,0 8,1 11,2 3,2 5,4 7,7 2,3 3,7 4,11 2,4 2,10 2,18 0,8 -1,15 -3,21 -1,5 -4,9 -8,12 -3,3 -8,4 -13,4 -7,0 -13,-2 -17,-7 -5,-7 -7,-17 -7,-30zm9 0c0,12 2,20 5,24 2,4 6,6 10,6 4,0 8,-2 11,-6 2,-4 4,-12 4,-24 0,-13 -2,-21 -4,-25 -3,-4 -7,-6 -11,-6 -4,0 -8,2 -10,6 -3,4 -5,12 -5,25z"/>
   <polygon id="2" class="fil1" points="614,2332 614,2258 623,2258 623,2300 644,2278 656,2278 636,2298 658,2332 647,2332 629,2305 623,2311 623,2332 "/>
   <path class="fil1" d="M511 1883c-4,-2 -7,-4 -9,-6 -2,-3 -2,-6 -2,-9 0,-6 1,-10 5,-14 4,-4 9,-5 16,-5 6,0 11,1 15,5 4,4 6,9 6,14 0,3 -1,6 -3,9 -1,2 -4,4 -8,6 5,1 8,4 11,7 2,3 3,7 3,12 0,6 -2,11 -7,16 -4,4 -10,6 -17,6 -7,0 -13,-2 -18,-6 -4,-5 -6,-10 -6,-17 0,-4 1,-8 3,-12 3,-3 6,-5 11,-6zm-2 -16c0,4 1,7 3,9 2,2 5,3 9,3 3,0 6,-1 9,-3 2,-2 3,-5 3,-8 0,-3 -1,-6 -4,-9 -2,-2 -5,-3 -8,-3 -4,0 -6,1 -9,3 -2,3 -3,5 -3,8zm-3 34c0,3 0,6 2,8 1,2 3,4 5,6 3,1 5,2 8,2 4,0 8,-2 11,-5 2,-2 4,-6 4,-10 0,-5 -2,-8 -4,-11 -3,-3 -7,-4 -11,-4 -5,0 -8,1 -11,4 -3,3 -4,6 -4,10z"/>
   <path id="1" class="fil1" d="M554 1886c0,-8 1,-15 3,-21 2,-5 4,-9 8,-12 3,-3 8,-4 13,-4 4,0 8,0 11,2 3,2 5,4 7,7 2,3 3,7 4,11 2,4 2,10 2,17 0,9 -1,16 -3,21 -1,6 -4,10 -8,13 -3,3 -8,4 -13,4 -7,0 -13,-2 -17,-8 -5,-6 -7,-16 -7,-30zm9 0c0,13 2,21 5,25 2,4 6,6 10,6 4,0 8,-2 11,-6 2,-4 4,-13 4,-25 0,-12 -2,-20 -4,-24 -3,-4 -7,-6 -11,-6 -4,0 -8,2 -10,5 -3,5 -5,13 -5,25z"/>
   <polygon id="2" class="fil1" points="614,1923 614,1849 623,1849 623,1891 644,1869 656,1869 636,1889 658,1923 647,1923 629,1895 623,1902 623,1923 "/>
   <path class="fil1" d="M531 1514l-9 0 0 -58c-3,2 -5,4 -9,6 -4,2 -7,4 -10,5l0 -9c6,-2 10,-5 14,-9 4,-3 6,-6 8,-10l6 0 0 75z"/>
   <path id="1" class="fil1" d="M554 1477c0,-9 1,-16 3,-21 2,-5 4,-9 8,-12 3,-3 8,-5 13,-5 4,0 8,1 11,3 3,1 5,4 7,7 2,3 3,6 4,11 2,4 2,10 2,17 0,9 -1,16 -3,21 -1,5 -4,10 -8,12 -3,3 -8,5 -13,5 -7,0 -13,-3 -17,-8 -5,-6 -7,-16 -7,-30zm9 0c0,12 2,20 5,24 2,4 6,6 10,6 4,0 8,-2 11,-6 2,-4 4,-12 4,-24 0,-12 -2,-20 -4,-24 -3,-4 -7,-6 -11,-6 -4,0 -8,2 -10,5 -3,5 -5,13 -5,25z"/>
   <path id="2" class="fil1" d="M611 1477c0,-9 1,-16 3,-21 2,-5 5,-9 8,-12 4,-3 8,-5 13,-5 4,0 8,1 11,3 3,1 5,4 7,7 2,3 4,6 5,11 1,4 1,10 1,17 0,9 0,16 -2,21 -2,5 -5,10 -8,12 -4,3 -8,5 -14,5 -7,0 -12,-3 -16,-8 -5,-6 -8,-16 -8,-30zm10 0c0,12 1,20 4,24 3,4 6,6 10,6 5,0 8,-2 11,-6 3,-4 4,-12 4,-24 0,-12 -1,-20 -4,-24 -3,-4 -6,-6 -11,-6 -4,0 -7,2 -10,5 -3,5 -4,13 -4,25z"/>
   <polygon id="3" class="fil1" points="671,1514 671,1440 680,1440 680,1482 702,1460 714,1460 693,1480 716,1514 704,1514 687,1486 680,1492 680,1514 "/>
   <rect class="fil4" x="1122" y="2543" width="162" height="660"/>
   <rect class="fil4" x="1810" y="2367" width="162" height="837"/>
   <rect class="fil4" x="2498" y="1644" width="162" height="1559"/>
   <rect class="fil4" x="3185" y="2226" width="162" height="977"/>
   <rect class="fil0" x="3873" y="2543" width="162" height="660"/>
   <rect class="fil4" x="4560" y="2011" width="162" height="1193"/>
   <line class="fil2 str1" x1="495" y1="3204" x2="4915" y2= "3204" />
  </g>
 </g>
</svg>
