<svg width="329" height="352" viewBox="0 0 329 352" fill="none" xmlns="http://www.w3.org/2000/svg">
<g filter="url(#filter0_d_140_659)">
<rect x="0.5" y="24" width="150" height="150" rx="16" fill="white" shape-rendering="crispEdges"/>
<rect x="1" y="24.5" width="149" height="149" rx="15.5" stroke="#212528" shape-rendering="crispEdges"/>
<path d="M76.41 82.9333C71.1133 81.5567 69.41 80.1333 69.41 77.9167C69.41 75.3733 71.7667 73.6 75.71 73.6C79.8633 73.6 81.4033 75.5833 81.5433 78.5H86.7C86.5367 74.4867 84.0867 70.8 79.21 69.61V64.5H72.21V69.54C67.6833 70.52 64.0433 73.46 64.0433 77.9633C64.0433 83.3533 68.5 86.0367 75.01 87.6C80.8433 89 82.01 91.0533 82.01 93.2233C82.01 94.8333 80.8667 97.4 75.71 97.4C70.9033 97.4 69.0133 95.2533 68.7567 92.5H63.6233C63.9033 97.61 67.73 100.48 72.21 101.437V106.5H79.21V101.483C83.76 100.62 87.3767 97.9833 87.3767 93.2C87.3767 86.5733 81.7067 84.31 76.41 82.9333Z" fill="#212528"/>
<path d="M66.983 124.864H69.0909V132.466C69.0909 133.299 68.8939 134.032 68.5 134.665C68.1098 135.297 67.5606 135.792 66.8523 136.148C66.1439 136.5 65.3163 136.676 64.3693 136.676C63.4186 136.676 62.589 136.5 61.8807 136.148C61.1723 135.792 60.6231 135.297 60.233 134.665C59.8428 134.032 59.6477 133.299 59.6477 132.466V124.864H61.7557V132.29C61.7557 132.775 61.8617 133.206 62.0739 133.585C62.2898 133.964 62.5928 134.261 62.983 134.477C63.3731 134.689 63.8352 134.795 64.3693 134.795C64.9034 134.795 65.3655 134.689 65.7557 134.477C66.1496 134.261 66.4527 133.964 66.6648 133.585C66.8769 133.206 66.983 132.775 66.983 132.29V124.864ZM77.706 128.062C77.6529 127.566 77.4295 127.18 77.0355 126.903C76.6454 126.627 76.1378 126.489 75.5128 126.489C75.0734 126.489 74.6965 126.555 74.3821 126.688C74.0677 126.82 73.8272 127 73.6605 127.227C73.4938 127.455 73.4086 127.714 73.4048 128.006C73.4048 128.248 73.4598 128.458 73.5696 128.636C73.6832 128.814 73.8366 128.966 74.0298 129.091C74.223 129.212 74.437 129.314 74.6719 129.398C74.9067 129.481 75.1435 129.551 75.3821 129.608L76.473 129.881C76.9124 129.983 77.3348 130.121 77.7401 130.295C78.1491 130.47 78.5147 130.689 78.8366 130.955C79.1624 131.22 79.42 131.54 79.6094 131.915C79.7988 132.29 79.8935 132.729 79.8935 133.233C79.8935 133.915 79.7192 134.515 79.3707 135.034C79.0223 135.549 78.5185 135.953 77.8594 136.244C77.2041 136.532 76.4105 136.676 75.4787 136.676C74.5734 136.676 73.7874 136.536 73.1207 136.256C72.4579 135.975 71.9389 135.566 71.5639 135.028C71.1927 134.491 70.992 133.835 70.9616 133.062H73.0355C73.0658 133.468 73.1908 133.805 73.4105 134.074C73.6302 134.343 73.9162 134.544 74.2685 134.676C74.6245 134.809 75.0223 134.875 75.4616 134.875C75.92 134.875 76.3215 134.807 76.6662 134.67C77.0147 134.53 77.2874 134.337 77.4844 134.091C77.6813 133.841 77.7817 133.549 77.7855 133.216C77.7817 132.913 77.6927 132.663 77.5185 132.466C77.3442 132.265 77.0999 132.098 76.7855 131.966C76.4749 131.83 76.1113 131.708 75.6946 131.602L74.3707 131.261C73.4124 131.015 72.6548 130.642 72.098 130.142C71.545 129.638 71.2685 128.97 71.2685 128.136C71.2685 127.451 71.4541 126.85 71.8253 126.335C72.2003 125.82 72.7098 125.42 73.3537 125.136C73.9976 124.848 74.7268 124.705 75.5412 124.705C76.367 124.705 77.0904 124.848 77.7116 125.136C78.3366 125.42 78.8272 125.816 79.1832 126.324C79.5393 126.828 79.723 127.407 79.7344 128.062H77.706ZM85.7159 136.5H81.7727V124.864H85.7955C86.9508 124.864 87.9432 125.097 88.7727 125.562C89.6061 126.025 90.2462 126.689 90.6932 127.557C91.1402 128.424 91.3636 129.462 91.3636 130.67C91.3636 131.883 91.1383 132.924 90.6875 133.795C90.2405 134.667 89.5947 135.335 88.75 135.801C87.9091 136.267 86.8977 136.5 85.7159 136.5ZM83.8807 134.676H85.6136C86.4242 134.676 87.1004 134.528 87.642 134.233C88.1837 133.934 88.5909 133.489 88.8636 132.898C89.1364 132.303 89.2727 131.561 89.2727 130.67C89.2727 129.78 89.1364 129.042 88.8636 128.455C88.5909 127.864 88.1875 127.422 87.6534 127.131C87.1231 126.835 86.464 126.688 85.6761 126.688H83.8807V134.676Z" fill="#212528"/>
</g>
<g filter="url(#filter1_d_140_659)">
<rect x="174.5" width="150" height="150" rx="16" fill="white" shape-rendering="crispEdges"/>
<rect x="175" y="0.5" width="149" height="149" rx="15.5" stroke="#212528" shape-rendering="crispEdges"/>
<path d="M253.373 49.8333C252.067 47.08 249.267 45.1667 246 45.1667H235.5V40.5H263.5V45.1667H255.893C257.013 46.52 257.853 48.1067 258.343 49.8333H263.5V54.5H258.787C258.203 61.0333 252.697 66.1667 246 66.1667H244.297L260 82.5H253.537L237.833 66.1667V61.5H246C250.107 61.5 253.513 58.4667 254.073 54.5H235.5V49.8333H253.373Z" fill="#212528"/>
<path d="M239.256 100.864V112.5H237.148V100.864H239.256ZM251.101 100.864V112.5H249.226L243.743 104.574H243.646V112.5H241.538V100.864H243.425L248.902 108.795H249.004V100.864H251.101ZM253.398 112.5V100.864H257.761C258.655 100.864 259.405 101.019 260.011 101.33C260.621 101.64 261.081 102.076 261.392 102.636C261.706 103.193 261.864 103.843 261.864 104.585C261.864 105.331 261.705 105.979 261.386 106.528C261.072 107.074 260.608 107.496 259.994 107.795C259.381 108.091 258.627 108.239 257.733 108.239H254.625V106.489H257.449C257.972 106.489 258.4 106.417 258.733 106.273C259.066 106.125 259.313 105.911 259.472 105.631C259.634 105.347 259.716 104.998 259.716 104.585C259.716 104.172 259.634 103.82 259.472 103.528C259.309 103.233 259.061 103.009 258.727 102.858C258.394 102.703 257.964 102.625 257.438 102.625H255.506V112.5H253.398ZM259.409 107.227L262.29 112.5H259.938L257.108 107.227H259.409Z" fill="#212528"/>
</g>
<g filter="url(#filter2_d_140_659)">
<rect x="0.5" y="198" width="150" height="150" rx="16" fill="white" shape-rendering="crispEdges"/>
<rect x="1" y="198.5" width="149" height="149" rx="15.5" stroke="#212528" shape-rendering="crispEdges"/>
<path d="M80.1667 281.083C84.67 281.083 88.6133 278.353 89.5 274.083L85.4167 272.03C84.8333 274.573 83.27 276.417 80.1667 276.417H68.7333C70.67 274.083 72.2333 270.957 72.2333 267.083C72.2333 266.267 72.1633 265.473 72.0467 264.75H80.1667V260.083H70.4133C68.5 256.397 66.1667 254.483 66.1667 250.75C66.1667 246.247 69.83 242.583 74.3333 242.583C77.8333 242.583 80.8433 244.8 81.9867 247.903L86.3033 246.083C84.4367 241.3 79.7933 237.917 74.3333 237.917C67.24 237.917 61.5 243.657 61.5 250.75C61.5 254.903 63.3433 257.517 64.9767 260.083H61.5V264.75H67.2633C67.45 265.473 67.5667 266.243 67.5667 267.083C67.5667 273.383 61.5 276.417 61.5 276.417V281.083H80.1667Z" fill="#212528"/>
<path d="M67.9432 302.58C67.8485 302.273 67.7178 301.998 67.5511 301.756C67.3883 301.509 67.1913 301.299 66.9602 301.125C66.733 300.951 66.4716 300.82 66.1761 300.733C65.8807 300.642 65.5587 300.597 65.2102 300.597C64.5852 300.597 64.0284 300.754 63.5398 301.068C63.0511 301.383 62.6667 301.845 62.3864 302.455C62.1098 303.061 61.9716 303.799 61.9716 304.67C61.9716 305.549 62.1098 306.294 62.3864 306.903C62.6629 307.513 63.0473 307.977 63.5398 308.295C64.0322 308.61 64.6042 308.767 65.2557 308.767C65.8466 308.767 66.358 308.653 66.7898 308.426C67.2254 308.199 67.5606 307.877 67.7955 307.46C68.0303 307.04 68.1477 306.547 68.1477 305.983L68.625 306.057H65.4659V304.409H70.1875V305.807C70.1875 306.803 69.9754 307.665 69.5511 308.392C69.1269 309.119 68.5436 309.68 67.8011 310.074C67.0587 310.464 66.2064 310.659 65.2443 310.659C64.1723 310.659 63.2311 310.419 62.4205 309.938C61.6136 309.453 60.983 308.765 60.5284 307.875C60.0777 306.981 59.8523 305.92 59.8523 304.693C59.8523 303.754 59.9848 302.915 60.25 302.176C60.5189 301.438 60.8939 300.811 61.375 300.295C61.8561 299.777 62.4205 299.383 63.0682 299.114C63.7159 298.841 64.4205 298.705 65.1818 298.705C65.8258 298.705 66.4261 298.799 66.983 298.989C67.5398 299.174 68.0341 299.439 68.4659 299.784C68.9015 300.129 69.2595 300.538 69.5398 301.011C69.8201 301.485 70.0038 302.008 70.0909 302.58H67.9432ZM72.2259 310.5V298.864H76.6804C77.5213 298.864 78.2202 298.996 78.777 299.261C79.3376 299.523 79.7562 299.881 80.0327 300.335C80.313 300.79 80.4531 301.305 80.4531 301.881C80.4531 302.354 80.3622 302.759 80.1804 303.097C79.9986 303.43 79.7543 303.701 79.4474 303.909C79.1406 304.117 78.7978 304.267 78.419 304.358V304.472C78.8319 304.494 79.2277 304.621 79.6065 304.852C79.9891 305.08 80.3016 305.402 80.544 305.818C80.7865 306.235 80.9077 306.739 80.9077 307.33C80.9077 307.932 80.7618 308.473 80.4702 308.955C80.1785 309.432 79.7391 309.809 79.152 310.085C78.5649 310.362 77.8262 310.5 76.9361 310.5H72.2259ZM74.3338 308.739H76.6009C77.366 308.739 77.9171 308.593 78.2543 308.301C78.5952 308.006 78.7656 307.627 78.7656 307.165C78.7656 306.82 78.6804 306.509 78.5099 306.233C78.3395 305.953 78.0971 305.733 77.7827 305.574C77.4683 305.411 77.0933 305.33 76.6577 305.33H74.3338V308.739ZM74.3338 303.812H76.419C76.7827 303.812 77.1103 303.746 77.402 303.614C77.6937 303.477 77.9228 303.286 78.0895 303.04C78.2599 302.79 78.3452 302.494 78.3452 302.153C78.3452 301.703 78.1861 301.331 77.8679 301.04C77.5535 300.748 77.0857 300.602 76.4645 300.602H74.3338V303.812ZM82.7415 310.5V298.864H87.1051C87.9991 298.864 88.7491 299.03 89.3551 299.364C89.965 299.697 90.4252 300.155 90.7358 300.739C91.0502 301.318 91.2074 301.977 91.2074 302.716C91.2074 303.462 91.0502 304.125 90.7358 304.705C90.4214 305.284 89.9574 305.741 89.3438 306.074C88.7301 306.403 87.9744 306.568 87.0767 306.568H84.1847V304.835H86.7926C87.3153 304.835 87.7434 304.744 88.0767 304.562C88.41 304.381 88.6563 304.131 88.8153 303.812C88.9782 303.494 89.0597 303.129 89.0597 302.716C89.0597 302.303 88.9782 301.939 88.8153 301.625C88.6563 301.311 88.4081 301.066 88.071 300.892C87.7377 300.714 87.3078 300.625 86.7812 300.625H84.8494V310.5H82.7415Z" fill="#212528"/>
</g>
<g filter="url(#filter3_d_140_659)">
<rect x="174.5" y="174" width="150" height="150" rx="16" fill="white" shape-rendering="crispEdges"/>
<rect x="175" y="174.5" width="149" height="149" rx="15.5" stroke="#212528" shape-rendering="crispEdges"/>
<path d="M256.5 250.667C250.643 250.667 245.58 247.353 243.06 242.5H256.5V237.833H241.52C241.403 237.063 241.333 236.293 241.333 235.5C241.333 234.707 241.403 233.937 241.52 233.167H256.5V228.5H243.06C245.58 223.647 250.667 220.333 256.5 220.333C260.257 220.333 263.71 221.71 266.37 223.997L270.5 219.867C266.79 216.53 261.867 214.5 256.5 214.5C247.353 214.5 239.607 220.357 236.713 228.5H228.5V233.167H235.64C235.547 233.937 235.5 234.707 235.5 235.5C235.5 236.293 235.547 237.063 235.64 237.833H228.5V242.5H236.713C239.607 250.643 247.353 256.5 256.5 256.5C261.89 256.5 266.79 254.47 270.5 251.133L266.347 247.003C263.71 249.29 260.28 250.667 256.5 250.667Z" fill="#212528"/>
<path d="M234.648 286.5V274.864H242.216V276.631H236.756V279.79H241.824V281.557H236.756V284.733H242.261V286.5H234.648ZM251.702 274.864H253.81V282.466C253.81 283.299 253.613 284.032 253.219 284.665C252.829 285.297 252.279 285.792 251.571 286.148C250.863 286.5 250.035 286.676 249.088 286.676C248.137 286.676 247.308 286.5 246.599 286.148C245.891 285.792 245.342 285.297 244.952 284.665C244.562 284.032 244.366 283.299 244.366 282.466V274.864H246.474V282.29C246.474 282.775 246.58 283.206 246.793 283.585C247.009 283.964 247.312 284.261 247.702 284.477C248.092 284.689 248.554 284.795 249.088 284.795C249.622 284.795 250.084 284.689 250.474 284.477C250.868 284.261 251.171 283.964 251.384 283.585C251.596 283.206 251.702 282.775 251.702 282.29V274.864ZM256.101 286.5V274.864H260.464C261.358 274.864 262.108 275.019 262.714 275.33C263.324 275.64 263.785 276.076 264.095 276.636C264.41 277.193 264.567 277.843 264.567 278.585C264.567 279.331 264.408 279.979 264.089 280.528C263.775 281.074 263.311 281.496 262.697 281.795C262.084 282.091 261.33 282.239 260.436 282.239H257.328V280.489H260.152C260.675 280.489 261.103 280.417 261.436 280.273C261.769 280.125 262.016 279.911 262.175 279.631C262.338 279.347 262.419 278.998 262.419 278.585C262.419 278.172 262.338 277.82 262.175 277.528C262.012 277.233 261.764 277.009 261.43 276.858C261.097 276.703 260.667 276.625 260.141 276.625H258.209V286.5H256.101ZM262.112 281.227L264.993 286.5H262.641L259.811 281.227H262.112Z" fill="#212528"/>
</g>
<defs>
<filter id="filter0_d_140_659" x="0.5" y="24" width="154" height="154" filterUnits="userSpaceOnUse" color-interpolation-filters="sRGB">
<feFlood flood-opacity="0" result="BackgroundImageFix"/>
<feColorMatrix in="SourceAlpha" type="matrix" values="0 0 0 0 0 0 0 0 0 0 0 0 0 0 0 0 0 0 127 0" result="hardAlpha"/>
<feOffset dx="4" dy="4"/>
<feComposite in2="hardAlpha" operator="out"/>
<feColorMatrix type="matrix" values="0 0 0 0 0.667568 0 0 0 0 0.805297 0 0 0 0 0.932432 0 0 0 1 0"/>
<feBlend mode="normal" in2="BackgroundImageFix" result="effect1_dropShadow_140_659"/>
<feBlend mode="normal" in="SourceGraphic" in2="effect1_dropShadow_140_659" result="shape"/>
</filter>
<filter id="filter1_d_140_659" x="174.5" y="0" width="154" height="154" filterUnits="userSpaceOnUse" color-interpolation-filters="sRGB">
<feFlood flood-opacity="0" result="BackgroundImageFix"/>
<feColorMatrix in="SourceAlpha" type="matrix" values="0 0 0 0 0 0 0 0 0 0 0 0 0 0 0 0 0 0 127 0" result="hardAlpha"/>
<feOffset dx="4" dy="4"/>
<feComposite in2="hardAlpha" operator="out"/>
<feColorMatrix type="matrix" values="0 0 0 0 0.932432 0 0 0 0 0.778811 0 0 0 0 0.667568 0 0 0 1 0"/>
<feBlend mode="normal" in2="BackgroundImageFix" result="effect1_dropShadow_140_659"/>
<feBlend mode="normal" in="SourceGraphic" in2="effect1_dropShadow_140_659" result="shape"/>
</filter>
<filter id="filter2_d_140_659" x="0.5" y="198" width="154" height="154" filterUnits="userSpaceOnUse" color-interpolation-filters="sRGB">
<feFlood flood-opacity="0" result="BackgroundImageFix"/>
<feColorMatrix in="SourceAlpha" type="matrix" values="0 0 0 0 0 0 0 0 0 0 0 0 0 0 0 0 0 0 127 0" result="hardAlpha"/>
<feOffset dx="4" dy="4"/>
<feComposite in2="hardAlpha" operator="out"/>
<feColorMatrix type="matrix" values="0 0 0 0 0.672865 0 0 0 0 0.932432 0 0 0 0 0.667568 0 0 0 1 0"/>
<feBlend mode="normal" in2="BackgroundImageFix" result="effect1_dropShadow_140_659"/>
<feBlend mode="normal" in="SourceGraphic" in2="effect1_dropShadow_140_659" result="shape"/>
</filter>
<filter id="filter3_d_140_659" x="174.5" y="174" width="154" height="154" filterUnits="userSpaceOnUse" color-interpolation-filters="sRGB">
<feFlood flood-opacity="0" result="BackgroundImageFix"/>
<feColorMatrix in="SourceAlpha" type="matrix" values="0 0 0 0 0 0 0 0 0 0 0 0 0 0 0 0 0 0 127 0" result="hardAlpha"/>
<feOffset dx="4" dy="4"/>
<feComposite in2="hardAlpha" operator="out"/>
<feColorMatrix type="matrix" values="0 0 0 0 0.932432 0 0 0 0 0.667568 0 0 0 0 0.905946 0 0 0 1 0"/>
<feBlend mode="normal" in2="BackgroundImageFix" result="effect1_dropShadow_140_659"/>
<feBlend mode="normal" in="SourceGraphic" in2="effect1_dropShadow_140_659" result="shape"/>
</filter>
</defs>
</svg>
