<svg width="353" height="352" viewBox="0 0 353 352" fill="none" xmlns="http://www.w3.org/2000/svg">
<g filter="url(#filter0_d_242_276)">
<rect x="0.5" width="224" height="224" rx="16" fill="white" shape-rendering="crispEdges"/>
<rect x="1" y="0.5" width="223" height="223" rx="15.5" stroke="#212528" shape-rendering="crispEdges"/>
<path d="M132.5 70.8333L128.5 66.8333L124.5 70.8333L120.5 66.8333L116.5 70.8333L112.5 66.8333L108.5 70.8333L104.5 66.8333L100.5 70.8333L96.5 66.8333V104.167H88.5V112.167C88.5 116.593 92.0733 120.167 96.5 120.167H128.5C132.927 120.167 136.5 116.593 136.5 112.167V66.8333L132.5 70.8333ZM131.167 112.167C131.167 113.633 129.967 114.833 128.5 114.833C127.033 114.833 125.833 113.633 125.833 112.167V104.167H101.833V74.8333H131.167V112.167Z" fill="#0074FF"/>
<path d="M120.5 80.1667H104.5V85.5H120.5V80.1667Z" fill="#0074FF"/>
<path d="M128.5 80.1667H123.167V85.5H128.5V80.1667Z" fill="#0074FF"/>
<path d="M120.5 88.1667H104.5V93.5H120.5V88.1667Z" fill="#0074FF"/>
<path d="M128.5 88.1667H123.167V93.5H128.5V88.1667Z" fill="#0074FF"/>
<path d="M64.8835 139.045V156.5H61.7216V139.045H64.8835ZM71.2564 148.83V156.5H68.1712V143.409H71.12V145.634H71.2734C71.5746 144.901 72.0547 144.318 72.7138 143.886C73.3786 143.455 74.1996 143.239 75.1768 143.239C76.0803 143.239 76.8672 143.432 77.5376 143.818C78.2138 144.205 78.7365 144.764 79.1058 145.497C79.4808 146.23 79.6655 147.119 79.6598 148.165V156.5H76.5746V148.642C76.5746 147.767 76.3473 147.082 75.8928 146.588C75.4439 146.094 74.8217 145.847 74.0263 145.847C73.4865 145.847 73.0064 145.966 72.5859 146.205C72.1712 146.437 71.8445 146.776 71.6058 147.219C71.3729 147.662 71.2564 148.199 71.2564 148.83ZM94.0206 143.409L89.3587 156.5H85.9496L81.2876 143.409H84.5774L87.5859 153.134H87.7223L90.7393 143.409H94.0206ZM101.42 156.756C100.142 156.756 99.0341 156.474 98.0966 155.912C97.1591 155.349 96.4318 154.562 95.9148 153.551C95.4034 152.54 95.1477 151.358 95.1477 150.006C95.1477 148.653 95.4034 147.469 95.9148 146.452C96.4318 145.435 97.1591 144.645 98.0966 144.082C99.0341 143.52 100.142 143.239 101.42 143.239C102.699 143.239 103.807 143.52 104.744 144.082C105.682 144.645 106.406 145.435 106.918 146.452C107.435 147.469 107.693 148.653 107.693 150.006C107.693 151.358 107.435 152.54 106.918 153.551C106.406 154.562 105.682 155.349 104.744 155.912C103.807 156.474 102.699 156.756 101.42 156.756ZM101.438 154.284C102.131 154.284 102.71 154.094 103.176 153.713C103.642 153.327 103.989 152.81 104.216 152.162C104.449 151.514 104.565 150.793 104.565 149.997C104.565 149.196 104.449 148.472 104.216 147.824C103.989 147.17 103.642 146.651 103.176 146.264C102.71 145.878 102.131 145.685 101.438 145.685C100.727 145.685 100.136 145.878 99.6648 146.264C99.1989 146.651 98.8494 147.17 98.6165 147.824C98.3892 148.472 98.2756 149.196 98.2756 149.997C98.2756 150.793 98.3892 151.514 98.6165 152.162C98.8494 152.81 99.1989 153.327 99.6648 153.713C100.136 154.094 100.727 154.284 101.438 154.284ZM110.312 156.5V143.409H113.397V156.5H110.312ZM111.863 141.551C111.374 141.551 110.954 141.389 110.602 141.065C110.249 140.736 110.073 140.341 110.073 139.881C110.073 139.415 110.249 139.02 110.602 138.696C110.954 138.366 111.374 138.202 111.863 138.202C112.357 138.202 112.778 138.366 113.124 138.696C113.477 139.02 113.653 139.415 113.653 139.881C113.653 140.341 113.477 140.736 113.124 141.065C112.778 141.389 112.357 141.551 111.863 141.551ZM122.28 156.756C120.973 156.756 119.851 156.469 118.913 155.895C117.982 155.321 117.263 154.528 116.757 153.517C116.257 152.5 116.007 151.33 116.007 150.006C116.007 148.676 116.263 147.503 116.774 146.486C117.286 145.463 118.007 144.668 118.939 144.099C119.876 143.526 120.984 143.239 122.263 143.239C123.325 143.239 124.266 143.435 125.084 143.827C125.908 144.213 126.564 144.761 127.053 145.472C127.541 146.176 127.82 147 127.888 147.943H124.939C124.82 147.312 124.536 146.787 124.087 146.366C123.643 145.94 123.05 145.727 122.305 145.727C121.675 145.727 121.121 145.898 120.643 146.239C120.166 146.574 119.794 147.057 119.527 147.688C119.266 148.318 119.135 149.074 119.135 149.955C119.135 150.847 119.266 151.614 119.527 152.256C119.788 152.892 120.155 153.384 120.626 153.73C121.104 154.071 121.663 154.241 122.305 154.241C122.76 154.241 123.166 154.156 123.524 153.986C123.888 153.81 124.192 153.557 124.436 153.227C124.68 152.898 124.848 152.497 124.939 152.026H127.888C127.814 152.952 127.541 153.773 127.07 154.489C126.598 155.199 125.956 155.756 125.143 156.159C124.331 156.557 123.376 156.756 122.28 156.756ZM130.421 156.5V143.409H133.506V156.5H130.421ZM131.972 141.551C131.484 141.551 131.063 141.389 130.711 141.065C130.359 140.736 130.183 140.341 130.183 139.881C130.183 139.415 130.359 139.02 130.711 138.696C131.063 138.366 131.484 138.202 131.972 138.202C132.467 138.202 132.887 138.366 133.234 138.696C133.586 139.02 133.762 139.415 133.762 139.881C133.762 140.341 133.586 140.736 133.234 141.065C132.887 141.389 132.467 141.551 131.972 141.551ZM139.764 148.83V156.5H136.679V143.409H139.628V145.634H139.781C140.082 144.901 140.563 144.318 141.222 143.886C141.886 143.455 142.707 143.239 143.685 143.239C144.588 143.239 145.375 143.432 146.045 143.818C146.722 144.205 147.244 144.764 147.614 145.497C147.989 146.23 148.173 147.119 148.168 148.165V156.5H145.082V148.642C145.082 147.767 144.855 147.082 144.401 146.588C143.952 146.094 143.33 145.847 142.534 145.847C141.994 145.847 141.514 145.966 141.094 146.205C140.679 146.437 140.352 146.776 140.114 147.219C139.881 147.662 139.764 148.199 139.764 148.83ZM156.997 161.682C155.889 161.682 154.938 161.531 154.142 161.23C153.347 160.935 152.707 160.537 152.224 160.037C151.741 159.537 151.406 158.983 151.219 158.375L153.997 157.702C154.122 157.957 154.304 158.21 154.543 158.46C154.781 158.716 155.102 158.926 155.506 159.091C155.915 159.261 156.429 159.347 157.048 159.347C157.923 159.347 158.648 159.134 159.222 158.707C159.795 158.287 160.082 157.594 160.082 156.628V154.148H159.929C159.77 154.466 159.537 154.793 159.23 155.128C158.929 155.463 158.528 155.744 158.028 155.972C157.534 156.199 156.912 156.312 156.162 156.312C155.156 156.312 154.244 156.077 153.426 155.605C152.614 155.128 151.966 154.418 151.483 153.474C151.006 152.526 150.767 151.338 150.767 149.912C150.767 148.474 151.006 147.261 151.483 146.273C151.966 145.278 152.616 144.526 153.435 144.014C154.253 143.497 155.165 143.239 156.17 143.239C156.938 143.239 157.568 143.369 158.062 143.631C158.562 143.886 158.96 144.196 159.256 144.56C159.551 144.918 159.776 145.256 159.929 145.574H160.099V143.409H163.142V156.713C163.142 157.832 162.875 158.759 162.341 159.491C161.807 160.224 161.077 160.773 160.151 161.136C159.224 161.5 158.173 161.682 156.997 161.682ZM157.023 153.892C157.676 153.892 158.233 153.733 158.693 153.415C159.153 153.097 159.503 152.639 159.741 152.043C159.98 151.446 160.099 150.73 160.099 149.895C160.099 149.071 159.98 148.349 159.741 147.73C159.509 147.111 159.162 146.631 158.702 146.29C158.247 145.943 157.688 145.77 157.023 145.77C156.335 145.77 155.761 145.949 155.301 146.307C154.841 146.665 154.494 147.156 154.261 147.781C154.028 148.401 153.912 149.105 153.912 149.895C153.912 150.696 154.028 151.398 154.261 152C154.5 152.597 154.849 153.062 155.31 153.398C155.776 153.727 156.347 153.892 157.023 153.892Z" fill="#212528"/>
</g>
<g filter="url(#filter1_d_242_276)">
<rect x="248.5" y="124" width="100" height="100" rx="16" fill="white" shape-rendering="crispEdges"/>
<rect x="249" y="124.5" width="99" height="99" rx="15.5" stroke="#212528" shape-rendering="crispEdges"/>
<path d="M284.4 171H280.976C279.397 171 278.171 170.563 277.296 169.688C276.443 168.813 276.016 167.597 276.016 166.04V155.384C276.016 153.805 276.443 152.589 277.296 151.736C278.171 150.861 279.397 150.424 280.976 150.424H284.4C285.979 150.424 287.195 150.861 288.048 151.736C288.923 152.589 289.36 153.805 289.36 155.384V156.536C289.36 156.92 289.179 157.112 288.816 157.112H286.8C286.437 157.112 286.256 156.92 286.256 156.536V155.512C286.256 153.933 285.488 153.144 283.952 153.144H281.424C279.888 153.144 279.12 153.933 279.12 155.512V165.912C279.12 167.491 279.888 168.28 281.424 168.28H283.952C285.488 168.28 286.256 167.491 286.256 165.912V163.032C286.256 162.819 286.139 162.712 285.904 162.712H283.312C282.949 162.712 282.768 162.531 282.768 162.168V160.536C282.768 160.173 282.949 159.992 283.312 159.992H288.688C289.136 159.992 289.36 160.216 289.36 160.664V166.04C289.36 167.597 288.923 168.813 288.048 169.688C287.173 170.563 285.957 171 284.4 171ZM293.327 166.008V165.176C293.327 164.813 293.508 164.632 293.871 164.632H295.919C296.282 164.632 296.463 164.813 296.463 165.176V165.752C296.463 166.648 296.655 167.299 297.039 167.704C297.444 168.088 298.106 168.28 299.023 168.28H301.231C302.148 168.28 302.81 168.077 303.215 167.672C303.62 167.245 303.823 166.563 303.823 165.624V164.888C303.823 164.205 303.556 163.672 303.023 163.288C302.511 162.883 301.871 162.627 301.103 162.52C300.335 162.392 299.492 162.221 298.575 162.008C297.658 161.795 296.815 161.549 296.047 161.272C295.279 160.995 294.628 160.472 294.095 159.704C293.583 158.936 293.327 157.955 293.327 156.76V155.416C293.327 153.859 293.764 152.643 294.639 151.768C295.535 150.872 296.762 150.424 298.319 150.424H301.711C303.29 150.424 304.516 150.872 305.391 151.768C306.287 152.643 306.735 153.859 306.735 155.416V156.12C306.735 156.483 306.554 156.664 306.191 156.664H304.143C303.78 156.664 303.599 156.483 303.599 156.12V155.704C303.599 154.787 303.396 154.136 302.991 153.752C302.607 153.347 301.956 153.144 301.039 153.144H299.023C298.106 153.144 297.444 153.357 297.039 153.784C296.655 154.189 296.463 154.893 296.463 155.896V156.888C296.463 157.848 297.156 158.499 298.543 158.84C299.162 158.989 299.834 159.117 300.559 159.224C301.306 159.331 302.052 159.491 302.799 159.704C303.546 159.917 304.228 160.205 304.847 160.568C305.466 160.909 305.967 161.443 306.351 162.168C306.735 162.872 306.927 163.736 306.927 164.76V166.008C306.927 167.565 306.479 168.792 305.583 169.688C304.708 170.563 303.492 171 301.935 171H298.351C296.794 171 295.567 170.563 294.671 169.688C293.775 168.792 293.327 167.565 293.327 166.008ZM316.874 171H314.858C314.474 171 314.282 170.819 314.282 170.456V153.464C314.282 153.251 314.176 153.144 313.962 153.144H309.93C309.546 153.144 309.354 152.963 309.354 152.6V150.968C309.354 150.605 309.546 150.424 309.93 150.424H321.802C322.186 150.424 322.378 150.605 322.378 150.968V152.6C322.378 152.963 322.186 153.144 321.802 153.144H317.77C317.536 153.144 317.418 153.251 317.418 153.464V170.456C317.418 170.819 317.237 171 316.874 171Z" fill="#D4732B"/>
<path d="M273.219 197.254H271.36C271.307 196.949 271.209 196.679 271.067 196.443C270.924 196.205 270.747 196.002 270.535 195.837C270.323 195.671 270.081 195.547 269.809 195.464C269.54 195.378 269.25 195.335 268.939 195.335C268.385 195.335 267.895 195.474 267.467 195.752C267.04 196.027 266.705 196.432 266.463 196.965C266.221 197.496 266.1 198.143 266.1 198.909C266.1 199.688 266.221 200.344 266.463 200.878C266.708 201.408 267.043 201.809 267.467 202.081C267.895 202.349 268.384 202.484 268.934 202.484C269.239 202.484 269.524 202.444 269.789 202.364C270.058 202.281 270.298 202.161 270.51 202.001C270.725 201.842 270.906 201.647 271.052 201.415C271.201 201.183 271.304 200.918 271.36 200.619L273.219 200.629C273.15 201.113 272.999 201.567 272.767 201.991C272.538 202.416 272.238 202.79 271.867 203.115C271.496 203.437 271.062 203.688 270.565 203.871C270.067 204.05 269.516 204.139 268.909 204.139C268.014 204.139 267.215 203.932 266.513 203.518C265.81 203.103 265.257 202.505 264.852 201.723C264.448 200.941 264.246 200.003 264.246 198.909C264.246 197.812 264.45 196.874 264.857 196.095C265.265 195.313 265.82 194.715 266.523 194.3C267.225 193.886 268.021 193.679 268.909 193.679C269.476 193.679 270.003 193.759 270.49 193.918C270.977 194.077 271.411 194.31 271.793 194.619C272.174 194.924 272.487 195.298 272.732 195.742C272.981 196.183 273.143 196.687 273.219 197.254ZM278.16 204.149C277.414 204.149 276.768 203.985 276.221 203.657C275.674 203.329 275.25 202.87 274.948 202.28C274.65 201.69 274.501 201 274.501 200.212C274.501 199.423 274.65 198.732 274.948 198.138C275.25 197.545 275.674 197.085 276.221 196.756C276.768 196.428 277.414 196.264 278.16 196.264C278.906 196.264 279.552 196.428 280.099 196.756C280.646 197.085 281.068 197.545 281.367 198.138C281.668 198.732 281.819 199.423 281.819 200.212C281.819 201 281.668 201.69 281.367 202.28C281.068 202.87 280.646 203.329 280.099 203.657C279.552 203.985 278.906 204.149 278.16 204.149ZM278.17 202.707C278.574 202.707 278.912 202.596 279.184 202.374C279.456 202.149 279.658 201.847 279.791 201.469C279.927 201.092 279.994 200.671 279.994 200.207C279.994 199.739 279.927 199.317 279.791 198.939C279.658 198.558 279.456 198.254 279.184 198.029C278.912 197.804 278.574 197.691 278.17 197.691C277.756 197.691 277.411 197.804 277.136 198.029C276.864 198.254 276.66 198.558 276.524 198.939C276.392 199.317 276.325 199.739 276.325 200.207C276.325 200.671 276.392 201.092 276.524 201.469C276.66 201.847 276.864 202.149 277.136 202.374C277.411 202.596 277.756 202.707 278.17 202.707ZM283.347 204V196.364H285.067V197.661H285.156C285.315 197.224 285.579 196.882 285.947 196.637C286.315 196.388 286.754 196.264 287.264 196.264C287.781 196.264 288.217 196.39 288.572 196.642C288.93 196.891 289.182 197.23 289.327 197.661H289.407C289.576 197.237 289.861 196.899 290.262 196.647C290.666 196.392 291.145 196.264 291.699 196.264C292.402 196.264 292.975 196.486 293.419 196.93C293.863 197.375 294.085 198.022 294.085 198.874V204H292.281V199.153C292.281 198.679 292.155 198.332 291.903 198.114C291.651 197.892 291.343 197.781 290.978 197.781C290.544 197.781 290.204 197.916 289.959 198.188C289.717 198.457 289.596 198.806 289.596 199.237V204H287.831V199.078C287.831 198.684 287.712 198.369 287.473 198.134C287.238 197.898 286.929 197.781 286.548 197.781C286.29 197.781 286.054 197.847 285.842 197.979C285.63 198.109 285.461 198.293 285.335 198.531C285.209 198.767 285.146 199.042 285.146 199.357V204H283.347ZM295.911 206.864V196.364H297.681V197.626H297.785C297.878 197.441 298.009 197.244 298.178 197.035C298.347 196.823 298.576 196.642 298.864 196.493C299.153 196.34 299.52 196.264 299.968 196.264C300.558 196.264 301.09 196.415 301.564 196.717C302.041 197.015 302.419 197.457 302.697 198.044C302.979 198.627 303.12 199.343 303.12 200.192C303.12 201.03 302.982 201.743 302.707 202.33C302.432 202.916 302.058 203.364 301.584 203.672C301.11 203.98 300.573 204.134 299.973 204.134C299.535 204.134 299.172 204.061 298.884 203.915C298.596 203.77 298.364 203.594 298.188 203.388C298.016 203.18 297.881 202.982 297.785 202.797H297.711V206.864H295.911ZM297.676 200.182C297.676 200.676 297.746 201.108 297.885 201.479C298.027 201.851 298.231 202.141 298.496 202.349C298.765 202.555 299.09 202.658 299.471 202.658C299.868 202.658 300.202 202.552 300.47 202.339C300.738 202.124 300.941 201.831 301.077 201.46C301.216 201.085 301.285 200.659 301.285 200.182C301.285 199.708 301.217 199.287 301.081 198.919C300.946 198.551 300.743 198.263 300.475 198.054C300.206 197.845 299.872 197.741 299.471 197.741C299.086 197.741 298.76 197.842 298.491 198.044C298.223 198.246 298.019 198.53 297.88 198.894C297.744 199.259 297.676 199.688 297.676 200.182ZM306.461 193.818V204H304.661V193.818H306.461ZM308.311 204V196.364H310.111V204H308.311ZM309.216 195.28C308.931 195.28 308.686 195.185 308.48 194.996C308.275 194.804 308.172 194.574 308.172 194.305C308.172 194.034 308.275 193.803 308.48 193.614C308.686 193.422 308.931 193.326 309.216 193.326C309.505 193.326 309.75 193.422 309.952 193.614C310.158 193.803 310.26 194.034 310.26 194.305C310.26 194.574 310.158 194.804 309.952 194.996C309.75 195.185 309.505 195.28 309.216 195.28ZM314.159 204.154C313.675 204.154 313.24 204.068 312.852 203.896C312.467 203.72 312.162 203.461 311.937 203.12C311.715 202.779 311.604 202.358 311.604 201.857C311.604 201.426 311.683 201.07 311.843 200.788C312.002 200.507 312.219 200.281 312.494 200.112C312.769 199.943 313.079 199.816 313.423 199.729C313.771 199.64 314.131 199.575 314.502 199.536C314.95 199.489 315.313 199.448 315.591 199.411C315.869 199.371 316.072 199.312 316.198 199.232C316.327 199.149 316.392 199.022 316.392 198.849V198.82C316.392 198.445 316.28 198.155 316.058 197.95C315.836 197.744 315.517 197.641 315.099 197.641C314.658 197.641 314.308 197.737 314.05 197.93C313.795 198.122 313.622 198.349 313.533 198.611L311.852 198.372C311.985 197.908 312.204 197.52 312.509 197.209C312.814 196.894 313.186 196.659 313.627 196.503C314.068 196.344 314.555 196.264 315.089 196.264C315.457 196.264 315.823 196.307 316.188 196.393C316.552 196.48 316.885 196.622 317.187 196.821C317.489 197.017 317.731 197.283 317.913 197.621C318.098 197.96 318.191 198.382 318.191 198.889V204H316.461V202.951H316.401C316.292 203.163 316.138 203.362 315.939 203.548C315.744 203.73 315.497 203.877 315.198 203.99C314.903 204.099 314.557 204.154 314.159 204.154ZM314.627 202.832C314.988 202.832 315.301 202.76 315.566 202.618C315.831 202.472 316.035 202.28 316.178 202.041C316.324 201.803 316.396 201.542 316.396 201.261V200.361C316.34 200.407 316.244 200.45 316.108 200.49C315.976 200.53 315.826 200.565 315.661 200.594C315.495 200.624 315.331 200.651 315.169 200.674C315.006 200.697 314.865 200.717 314.746 200.734C314.477 200.77 314.237 200.83 314.025 200.913C313.813 200.996 313.646 201.112 313.523 201.261C313.4 201.406 313.339 201.595 313.339 201.827C313.339 202.159 313.46 202.409 313.702 202.578C313.944 202.747 314.252 202.832 314.627 202.832ZM321.801 199.526V204H320.001V196.364H321.721V197.661H321.811C321.986 197.234 322.266 196.894 322.651 196.642C323.039 196.39 323.517 196.264 324.088 196.264C324.615 196.264 325.074 196.377 325.465 196.602C325.859 196.828 326.164 197.154 326.379 197.582C326.598 198.009 326.706 198.528 326.703 199.138V204H324.903V199.416C324.903 198.906 324.77 198.506 324.505 198.218C324.243 197.93 323.88 197.786 323.416 197.786C323.102 197.786 322.821 197.855 322.576 197.994C322.334 198.13 322.144 198.327 322.004 198.586C321.869 198.844 321.801 199.158 321.801 199.526ZM332.345 196.364V197.756H327.955V196.364H332.345ZM329.039 194.534H330.839V201.703C330.839 201.945 330.875 202.131 330.948 202.26C331.025 202.386 331.124 202.472 331.247 202.518C331.369 202.565 331.505 202.588 331.654 202.588C331.767 202.588 331.87 202.58 331.963 202.563C332.059 202.547 332.132 202.532 332.181 202.518L332.485 203.925C332.388 203.959 332.251 203.995 332.072 204.035C331.896 204.075 331.681 204.098 331.426 204.104C330.975 204.118 330.569 204.05 330.208 203.901C329.846 203.748 329.56 203.513 329.347 203.195C329.139 202.876 329.036 202.479 329.039 202.001V194.534Z" fill="#212528"/>
</g>
<g filter="url(#filter2_d_242_276)">
<rect x="0.5" y="248" width="100" height="100" rx="16" fill="white" shape-rendering="crispEdges"/>
<rect x="1" y="248.5" width="99" height="99" rx="15.5" stroke="#212528" shape-rendering="crispEdges"/>
<path d="M62.1667 270.5H38.8333C37 270.5 35.5 272 35.5 273.833V297.167C35.5 299 37 300.5 38.8333 300.5H62.1667C64 300.5 65.5 299 65.5 297.167V273.833C65.5 272 64 270.5 62.1667 270.5ZM38.8333 297.167V273.833H48.8333V297.167H38.8333ZM62.1667 297.167H52.1667V285.5H62.1667V297.167ZM62.1667 282.167H52.1667V273.833H62.1667V282.167Z" fill="#D5732B"/>
<path d="M15.5568 318.864V317.318H23.6804V318.864H20.5334V327.5H18.7038V318.864H15.5568ZM27.4402 327.649C26.6745 327.649 26.0133 327.49 25.4565 327.172C24.903 326.85 24.4771 326.396 24.1788 325.81C23.8805 325.22 23.7314 324.525 23.7314 323.727C23.7314 322.941 23.8805 322.252 24.1788 321.658C24.4804 321.062 24.9013 320.598 25.4416 320.266C25.9818 319.932 26.6165 319.764 27.3457 319.764C27.8163 319.764 28.2605 319.84 28.6781 319.993C29.099 320.142 29.4702 320.374 29.7917 320.689C30.1165 321.004 30.3717 321.405 30.5574 321.892C30.743 322.376 30.8358 322.953 30.8358 323.622V324.174H24.5765V322.961H29.1106C29.1073 322.616 29.0327 322.31 28.8869 322.041C28.7411 321.769 28.5372 321.556 28.2754 321.4C28.0169 321.244 27.7153 321.166 27.3706 321.166C27.0027 321.166 26.6795 321.256 26.4011 321.435C26.1227 321.61 25.9056 321.842 25.7498 322.131C25.5974 322.416 25.5195 322.729 25.5162 323.07V324.129C25.5162 324.573 25.5974 324.955 25.7598 325.273C25.9222 325.588 26.1492 325.83 26.4409 325.999C26.7325 326.164 27.0739 326.247 27.465 326.247C27.7269 326.247 27.9638 326.211 28.176 326.138C28.3881 326.062 28.572 325.951 28.7278 325.805C28.8836 325.659 29.0012 325.478 29.0808 325.263L30.7612 325.452C30.6551 325.896 30.4529 326.284 30.1547 326.615C29.8597 326.943 29.4818 327.198 29.0211 327.381C28.5604 327.56 28.0334 327.649 27.4402 327.649ZM32.3583 327.5V319.864H34.0785V321.161H34.168C34.3271 320.724 34.5906 320.382 34.9585 320.137C35.3263 319.888 35.7655 319.764 36.2759 319.764C36.793 319.764 37.2288 319.89 37.5835 320.142C37.9414 320.391 38.1933 320.73 38.3391 321.161H38.4187C38.5877 320.737 38.8728 320.399 39.2738 320.147C39.6781 319.892 40.1571 319.764 40.7106 319.764C41.4132 319.764 41.9866 319.986 42.4308 320.43C42.8749 320.875 43.0969 321.522 43.0969 322.374V327.5H41.2923V322.653C41.2923 322.179 41.1663 321.832 40.9144 321.614C40.6625 321.392 40.3543 321.281 39.9897 321.281C39.5555 321.281 39.2158 321.416 38.9705 321.688C38.7286 321.957 38.6076 322.306 38.6076 322.737V327.5H36.8427V322.578C36.8427 322.184 36.7234 321.869 36.4847 321.634C36.2494 321.398 35.9412 321.281 35.56 321.281C35.3015 321.281 35.0662 321.347 34.854 321.479C34.6419 321.609 34.4729 321.793 34.3469 322.031C34.221 322.267 34.158 322.542 34.158 322.857V327.5H32.3583ZM44.9228 330.364V319.864H46.6926V321.126H46.7971C46.8899 320.941 47.0208 320.744 47.1898 320.535C47.3588 320.323 47.5875 320.142 47.8759 319.993C48.1642 319.84 48.5321 319.764 48.9796 319.764C49.5695 319.764 50.1015 319.915 50.5755 320.217C51.0527 320.515 51.4306 320.957 51.709 321.544C51.9907 322.127 52.1316 322.843 52.1316 323.692C52.1316 324.53 51.994 325.243 51.7189 325.83C51.4438 326.416 51.0693 326.864 50.5953 327.172C50.1214 327.48 49.5845 327.634 48.9846 327.634C48.5471 327.634 48.1841 327.561 47.8958 327.415C47.6074 327.27 47.3754 327.094 47.1998 326.888C47.0274 326.68 46.8932 326.482 46.7971 326.297H46.7225V330.364H44.9228ZM46.6877 323.682C46.6877 324.176 46.7573 324.608 46.8965 324.979C47.039 325.351 47.2428 325.641 47.508 325.849C47.7765 326.055 48.1013 326.158 48.4824 326.158C48.8801 326.158 49.2132 326.052 49.4817 325.839C49.7502 325.624 49.9524 325.331 50.0882 324.96C50.2275 324.585 50.2971 324.159 50.2971 323.682C50.2971 323.208 50.2291 322.787 50.0932 322.419C49.9573 322.051 49.7551 321.763 49.4867 321.554C49.2182 321.345 48.8835 321.241 48.4824 321.241C48.098 321.241 47.7715 321.342 47.503 321.544C47.2346 321.746 47.0307 322.03 46.8915 322.394C46.7556 322.759 46.6877 323.188 46.6877 323.682ZM55.4725 317.318V327.5H53.6728V317.318H55.4725ZM59.5206 327.654C59.0367 327.654 58.6009 327.568 58.2131 327.396C57.8286 327.22 57.5237 326.961 57.2983 326.62C57.0762 326.279 56.9652 325.858 56.9652 325.357C56.9652 324.926 57.0447 324.57 57.2038 324.288C57.3629 324.007 57.58 323.781 57.8551 323.612C58.1302 323.443 58.4401 323.316 58.7848 323.229C59.1328 323.14 59.4924 323.075 59.8636 323.036C60.3111 322.989 60.674 322.948 60.9524 322.911C61.2308 322.871 61.433 322.812 61.5589 322.732C61.6882 322.649 61.7528 322.522 61.7528 322.349V322.32C61.7528 321.945 61.6418 321.655 61.4197 321.45C61.1977 321.244 60.8778 321.141 60.4602 321.141C60.0194 321.141 59.6697 321.237 59.4112 321.43C59.156 321.622 58.9837 321.849 58.8942 322.111L57.2138 321.872C57.3464 321.408 57.5651 321.02 57.87 320.709C58.175 320.394 58.5478 320.159 58.9886 320.003C59.4295 319.844 59.9167 319.764 60.4503 319.764C60.8182 319.764 61.1844 319.807 61.549 319.893C61.9136 319.98 62.2467 320.122 62.5483 320.321C62.8499 320.517 63.0919 320.783 63.2741 321.121C63.4598 321.46 63.5526 321.882 63.5526 322.389V327.5H61.8224V326.451H61.7628C61.6534 326.663 61.4993 326.862 61.3004 327.048C61.1049 327.23 60.858 327.377 60.5597 327.49C60.2647 327.599 59.9183 327.654 59.5206 327.654ZM59.9879 326.332C60.3492 326.332 60.6624 326.26 60.9276 326.118C61.1927 325.972 61.3965 325.78 61.5391 325.541C61.6849 325.303 61.7578 325.042 61.7578 324.761V323.861C61.7015 323.907 61.6054 323.95 61.4695 323.99C61.3369 324.03 61.1877 324.065 61.022 324.094C60.8563 324.124 60.6922 324.151 60.5298 324.174C60.3674 324.197 60.2266 324.217 60.1072 324.234C59.8388 324.27 59.5985 324.33 59.3864 324.413C59.1742 324.496 59.0069 324.612 58.8842 324.761C58.7616 324.906 58.7003 325.095 58.7003 325.327C58.7003 325.659 58.8213 325.909 59.0632 326.078C59.3052 326.247 59.6134 326.332 59.9879 326.332ZM69.1754 319.864V321.256H64.7855V319.864H69.1754ZM65.8693 318.034H67.669V325.203C67.669 325.445 67.7055 325.631 67.7784 325.76C67.8546 325.886 67.9541 325.972 68.0767 326.018C68.1993 326.065 68.3352 326.088 68.4844 326.088C68.5971 326.088 68.6998 326.08 68.7926 326.063C68.8887 326.047 68.9616 326.032 69.0114 326.018L69.3146 327.425C69.2185 327.459 69.081 327.495 68.902 327.535C68.7263 327.575 68.5109 327.598 68.2557 327.604C67.8049 327.618 67.3989 327.55 67.0376 327.401C66.6764 327.248 66.3897 327.013 66.1776 326.695C65.9688 326.376 65.866 325.979 65.8693 325.501V318.034ZM73.9792 327.649C73.2136 327.649 72.5524 327.49 71.9956 327.172C71.4421 326.85 71.0162 326.396 70.7179 325.81C70.4196 325.22 70.2704 324.525 70.2704 323.727C70.2704 322.941 70.4196 322.252 70.7179 321.658C71.0195 321.062 71.4404 320.598 71.9806 320.266C72.5209 319.932 73.1556 319.764 73.8848 319.764C74.3554 319.764 74.7995 319.84 75.2172 319.993C75.6381 320.142 76.0093 320.374 76.3308 320.689C76.6556 321.004 76.9108 321.405 77.0964 321.892C77.282 322.376 77.3748 322.953 77.3748 323.622V324.174H71.1156V322.961H75.6497C75.6464 322.616 75.5718 322.31 75.426 322.041C75.2801 321.769 75.0763 321.556 74.8145 321.4C74.5559 321.244 74.2543 321.166 73.9096 321.166C73.5417 321.166 73.2186 321.256 72.9402 321.435C72.6618 321.61 72.4447 321.842 72.2889 322.131C72.1364 322.416 72.0585 322.729 72.0552 323.07V324.129C72.0552 324.573 72.1364 324.955 72.2988 325.273C72.4612 325.588 72.6883 325.83 72.9799 325.999C73.2716 326.164 73.613 326.247 74.0041 326.247C74.2659 326.247 74.5029 326.211 74.715 326.138C74.9271 326.062 75.1111 325.951 75.2669 325.805C75.4226 325.659 75.5403 325.478 75.6199 325.263L77.3002 325.452C77.1942 325.896 76.992 326.284 76.6937 326.615C76.3987 326.943 76.0209 327.198 75.5602 327.381C75.0995 327.56 74.5725 327.649 73.9792 327.649ZM84.9329 321.882L83.2923 322.061C83.2459 321.895 83.1647 321.74 83.0487 321.594C82.936 321.448 82.7835 321.33 82.5913 321.241C82.399 321.151 82.1637 321.107 81.8853 321.107C81.5108 321.107 81.1959 321.188 80.9407 321.35C80.6888 321.513 80.5645 321.723 80.5678 321.982C80.5645 322.204 80.6457 322.384 80.8114 322.523C80.9805 322.663 81.2589 322.777 81.6467 322.866L82.9492 323.145C83.6718 323.301 84.2087 323.548 84.56 323.886C84.9147 324.224 85.0936 324.666 85.0969 325.213C85.0936 325.694 84.9528 326.118 84.6744 326.486C84.3993 326.85 84.0165 327.135 83.5259 327.341C83.0354 327.546 82.4719 327.649 81.8356 327.649C80.9009 327.649 80.1486 327.454 79.5785 327.062C79.0084 326.668 78.6687 326.12 78.5593 325.417L80.3143 325.248C80.3938 325.593 80.5629 325.853 80.8214 326.028C81.0799 326.204 81.4163 326.292 81.8306 326.292C82.2582 326.292 82.6012 326.204 82.8597 326.028C83.1216 325.853 83.2525 325.636 83.2525 325.377C83.2525 325.158 83.168 324.978 82.9989 324.835C82.8332 324.693 82.5747 324.583 82.2234 324.507L80.9208 324.234C80.1883 324.081 79.6464 323.824 79.2951 323.463C78.9438 323.098 78.7698 322.638 78.7731 322.081C78.7698 321.61 78.8974 321.203 79.1559 320.858C79.4177 320.51 79.7807 320.241 80.2447 320.053C80.712 319.86 81.2506 319.764 81.8604 319.764C82.7553 319.764 83.4596 319.955 83.9734 320.336C84.4904 320.717 84.8103 321.232 84.9329 321.882Z" fill="#212528"/>
</g>
<g filter="url(#filter3_d_242_276)">
<rect x="124.5" y="248" width="224" height="100" rx="16" fill="white" shape-rendering="crispEdges"/>
<rect x="125" y="248.5" width="223" height="99" rx="15.5" stroke="#212528" shape-rendering="crispEdges"/>
<path d="M236.5 301.75C238.333 301.75 239.833 300.25 239.833 298.417H233.167C233.167 300.25 234.667 301.75 236.5 301.75ZM246.5 291.75V283.417C246.5 278.3 243.783 274.017 239 272.883V271.75C239 270.367 237.883 269.25 236.5 269.25C235.117 269.25 234 270.367 234 271.75V272.883C229.233 274.017 226.5 278.283 226.5 283.417V291.75L223.167 295.083V296.75H249.833V295.083L246.5 291.75ZM243.167 293.417H229.833V283.417C229.833 279.283 232.35 275.917 236.5 275.917C240.65 275.917 243.167 279.283 243.167 283.417V293.417ZM229.133 271.883L226.75 269.5C222.75 272.55 220.117 277.25 219.883 282.583H223.217C223.467 278.167 225.733 274.3 229.133 271.883ZM249.783 282.583H253.117C252.867 277.25 250.233 272.55 246.25 269.5L243.883 271.883C247.25 274.3 249.533 278.167 249.783 282.583Z" fill="#0074FF"/>
<path d="M201.004 327.5V317.318H204.822C205.605 317.318 206.261 317.454 206.791 317.726C207.325 317.998 207.728 318.379 207.999 318.869C208.274 319.357 208.412 319.925 208.412 320.575C208.412 321.228 208.273 321.794 207.994 322.275C207.719 322.752 207.313 323.122 206.776 323.384C206.239 323.642 205.58 323.771 204.798 323.771H202.078V322.24H204.549C205.006 322.24 205.381 322.177 205.673 322.051C205.964 321.922 206.18 321.735 206.319 321.489C206.461 321.241 206.533 320.936 206.533 320.575C206.533 320.213 206.461 319.905 206.319 319.65C206.176 319.391 205.959 319.196 205.668 319.063C205.376 318.927 205 318.859 204.539 318.859H202.849V327.5H201.004ZM206.264 322.886L208.785 327.5H206.727L204.251 322.886H206.264ZM213.301 327.649C212.536 327.649 211.875 327.49 211.318 327.172C210.764 326.85 210.338 326.396 210.04 325.81C209.742 325.22 209.593 324.525 209.593 323.727C209.593 322.941 209.742 322.252 210.04 321.658C210.342 321.062 210.763 320.598 211.303 320.266C211.843 319.932 212.478 319.764 213.207 319.764C213.678 319.764 214.122 319.84 214.539 319.993C214.96 320.142 215.332 320.374 215.653 320.689C215.978 321.004 216.233 321.405 216.419 321.892C216.604 322.376 216.697 322.953 216.697 323.622V324.174H210.438V322.961H214.972C214.969 322.616 214.894 322.31 214.748 322.041C214.602 321.769 214.399 321.556 214.137 321.4C213.878 321.244 213.577 321.166 213.232 321.166C212.864 321.166 212.541 321.256 212.262 321.435C211.984 321.61 211.767 321.842 211.611 322.131C211.459 322.416 211.381 322.729 211.377 323.07V324.129C211.377 324.573 211.459 324.955 211.621 325.273C211.783 325.588 212.011 325.83 212.302 325.999C212.594 326.164 212.935 326.247 213.326 326.247C213.588 326.247 213.825 326.211 214.037 326.138C214.249 326.062 214.433 325.951 214.589 325.805C214.745 325.659 214.863 325.478 214.942 325.263L216.623 325.452C216.516 325.896 216.314 326.284 216.016 326.615C215.721 326.943 215.343 327.198 214.882 327.381C214.422 327.56 213.895 327.649 213.301 327.649ZM218.22 327.5V319.864H219.94V321.161H220.029C220.188 320.724 220.452 320.382 220.82 320.137C221.188 319.888 221.627 319.764 222.137 319.764C222.654 319.764 223.09 319.89 223.445 320.142C223.803 320.391 224.055 320.73 224.2 321.161H224.28C224.449 320.737 224.734 320.399 225.135 320.147C225.539 319.892 226.018 319.764 226.572 319.764C227.275 319.764 227.848 319.986 228.292 320.43C228.736 320.875 228.958 321.522 228.958 322.374V327.5H227.154V322.653C227.154 322.179 227.028 321.832 226.776 321.614C226.524 321.392 226.216 321.281 225.851 321.281C225.417 321.281 225.077 321.416 224.832 321.688C224.59 321.957 224.469 322.306 224.469 322.737V327.5H222.704V322.578C222.704 322.184 222.585 321.869 222.346 321.634C222.111 321.398 221.802 321.281 221.421 321.281C221.163 321.281 220.927 321.347 220.715 321.479C220.503 321.609 220.334 321.793 220.208 322.031C220.082 322.267 220.019 322.542 220.019 322.857V327.5H218.22ZM230.784 327.5V319.864H232.584V327.5H230.784ZM231.689 318.78C231.404 318.78 231.159 318.685 230.953 318.496C230.748 318.304 230.645 318.074 230.645 317.805C230.645 317.534 230.748 317.303 230.953 317.114C231.159 316.922 231.404 316.826 231.689 316.826C231.977 316.826 232.223 316.922 232.425 317.114C232.63 317.303 232.733 317.534 232.733 317.805C232.733 318.074 232.63 318.304 232.425 318.496C232.223 318.685 231.977 318.78 231.689 318.78ZM236.234 323.026V327.5H234.434V319.864H236.155V321.161H236.244C236.42 320.734 236.7 320.394 237.084 320.142C237.472 319.89 237.951 319.764 238.521 319.764C239.048 319.764 239.507 319.877 239.898 320.102C240.293 320.328 240.598 320.654 240.813 321.082C241.032 321.509 241.14 322.028 241.136 322.638V327.5H239.336V322.916C239.336 322.406 239.204 322.006 238.939 321.718C238.677 321.43 238.314 321.286 237.85 321.286C237.535 321.286 237.255 321.355 237.01 321.494C236.768 321.63 236.577 321.827 236.438 322.086C236.302 322.344 236.234 322.658 236.234 323.026ZM245.8 327.634C245.2 327.634 244.663 327.48 244.189 327.172C243.715 326.864 243.34 326.416 243.065 325.83C242.79 325.243 242.653 324.53 242.653 323.692C242.653 322.843 242.792 322.127 243.07 321.544C243.352 320.957 243.731 320.515 244.209 320.217C244.686 319.915 245.218 319.764 245.805 319.764C246.252 319.764 246.62 319.84 246.908 319.993C247.197 320.142 247.425 320.323 247.594 320.535C247.763 320.744 247.894 320.941 247.987 321.126H248.062V317.318H249.866V327.5H248.096V326.297H247.987C247.894 326.482 247.76 326.68 247.584 326.888C247.409 327.094 247.177 327.27 246.888 327.415C246.6 327.561 246.237 327.634 245.8 327.634ZM246.302 326.158C246.683 326.158 247.008 326.055 247.276 325.849C247.545 325.641 247.748 325.351 247.888 324.979C248.027 324.608 248.096 324.176 248.096 323.682C248.096 323.188 248.027 322.759 247.888 322.394C247.752 322.03 247.55 321.746 247.281 321.544C247.016 321.342 246.689 321.241 246.302 321.241C245.901 321.241 245.566 321.345 245.297 321.554C245.029 321.763 244.827 322.051 244.691 322.419C244.555 322.787 244.487 323.208 244.487 323.682C244.487 324.159 244.555 324.585 244.691 324.96C244.83 325.331 245.034 325.624 245.302 325.839C245.574 326.052 245.907 326.158 246.302 326.158ZM255.165 327.649C254.399 327.649 253.738 327.49 253.181 327.172C252.628 326.85 252.202 326.396 251.903 325.81C251.605 325.22 251.456 324.525 251.456 323.727C251.456 322.941 251.605 322.252 251.903 321.658C252.205 321.062 252.626 320.598 253.166 320.266C253.706 319.932 254.341 319.764 255.07 319.764C255.541 319.764 255.985 319.84 256.403 319.993C256.824 320.142 257.195 320.374 257.516 320.689C257.841 321.004 258.096 321.405 258.282 321.892C258.468 322.376 258.56 322.953 258.56 323.622V324.174H252.301V322.961H256.835C256.832 322.616 256.757 322.31 256.612 322.041C256.466 321.769 256.262 321.556 256 321.4C255.741 321.244 255.44 321.166 255.095 321.166C254.727 321.166 254.404 321.256 254.126 321.435C253.847 321.61 253.63 321.842 253.474 322.131C253.322 322.416 253.244 322.729 253.241 323.07V324.129C253.241 324.573 253.322 324.955 253.484 325.273C253.647 325.588 253.874 325.83 254.165 325.999C254.457 326.164 254.799 326.247 255.19 326.247C255.451 326.247 255.688 326.211 255.901 326.138C256.113 326.062 256.297 325.951 256.452 325.805C256.608 325.659 256.726 325.478 256.805 325.263L258.486 325.452C258.38 325.896 258.178 326.284 257.879 326.615C257.584 326.943 257.206 327.198 256.746 327.381C256.285 327.56 255.758 327.649 255.165 327.649ZM260.083 327.5V319.864H261.828V321.136H261.907C262.047 320.696 262.285 320.356 262.623 320.117C262.965 319.875 263.354 319.754 263.792 319.754C263.891 319.754 264.002 319.759 264.125 319.769C264.251 319.776 264.355 319.787 264.438 319.804V321.46C264.362 321.433 264.241 321.41 264.075 321.39C263.913 321.367 263.755 321.355 263.603 321.355C263.275 321.355 262.98 321.426 262.718 321.569C262.459 321.708 262.256 321.902 262.106 322.151C261.957 322.399 261.883 322.686 261.883 323.011V327.5H260.083ZM271.669 321.882L270.029 322.061C269.982 321.895 269.901 321.74 269.785 321.594C269.672 321.448 269.52 321.33 269.328 321.241C269.135 321.151 268.9 321.107 268.622 321.107C268.247 321.107 267.932 321.188 267.677 321.35C267.425 321.513 267.301 321.723 267.304 321.982C267.301 322.204 267.382 322.384 267.548 322.523C267.717 322.663 267.995 322.777 268.383 322.866L269.686 323.145C270.408 323.301 270.945 323.548 271.296 323.886C271.651 324.224 271.83 324.666 271.833 325.213C271.83 325.694 271.689 326.118 271.411 326.486C271.136 326.85 270.753 327.135 270.262 327.341C269.772 327.546 269.208 327.649 268.572 327.649C267.637 327.649 266.885 327.454 266.315 327.062C265.745 326.668 265.405 326.12 265.296 325.417L267.051 325.248C267.13 325.593 267.299 325.853 267.558 326.028C267.816 326.204 268.153 326.292 268.567 326.292C268.994 326.292 269.338 326.204 269.596 326.028C269.858 325.853 269.989 325.636 269.989 325.377C269.989 325.158 269.904 324.978 269.735 324.835C269.57 324.693 269.311 324.583 268.96 324.507L267.657 324.234C266.925 324.081 266.383 323.824 266.031 323.463C265.68 323.098 265.506 322.638 265.509 322.081C265.506 321.61 265.634 321.203 265.892 320.858C266.154 320.51 266.517 320.241 266.981 320.053C267.448 319.86 267.987 319.764 268.597 319.764C269.492 319.764 270.196 319.955 270.71 320.336C271.227 320.717 271.547 321.232 271.669 321.882Z" fill="#212528"/>
</g>
<defs>
<filter id="filter0_d_242_276" x="0.5" y="0" width="228" height="228" filterUnits="userSpaceOnUse" color-interpolation-filters="sRGB">
<feFlood flood-opacity="0" result="BackgroundImageFix"/>
<feColorMatrix in="SourceAlpha" type="matrix" values="0 0 0 0 0 0 0 0 0 0 0 0 0 0 0 0 0 0 127 0" result="hardAlpha"/>
<feOffset dx="4" dy="4"/>
<feComposite in2="hardAlpha" operator="out"/>
<feColorMatrix type="matrix" values="0 0 0 0 0.667568 0 0 0 0 0.805297 0 0 0 0 0.932432 0 0 0 1 0"/>
<feBlend mode="normal" in2="BackgroundImageFix" result="effect1_dropShadow_242_276"/>
<feBlend mode="normal" in="SourceGraphic" in2="effect1_dropShadow_242_276" result="shape"/>
</filter>
<filter id="filter1_d_242_276" x="248.5" y="124" width="104" height="104" filterUnits="userSpaceOnUse" color-interpolation-filters="sRGB">
<feFlood flood-opacity="0" result="BackgroundImageFix"/>
<feColorMatrix in="SourceAlpha" type="matrix" values="0 0 0 0 0 0 0 0 0 0 0 0 0 0 0 0 0 0 127 0" result="hardAlpha"/>
<feOffset dx="4" dy="4"/>
<feComposite in2="hardAlpha" operator="out"/>
<feColorMatrix type="matrix" values="0 0 0 0 0.932432 0 0 0 0 0.778811 0 0 0 0 0.667568 0 0 0 1 0"/>
<feBlend mode="normal" in2="BackgroundImageFix" result="effect1_dropShadow_242_276"/>
<feBlend mode="normal" in="SourceGraphic" in2="effect1_dropShadow_242_276" result="shape"/>
</filter>
<filter id="filter2_d_242_276" x="0.5" y="248" width="104" height="104" filterUnits="userSpaceOnUse" color-interpolation-filters="sRGB">
<feFlood flood-opacity="0" result="BackgroundImageFix"/>
<feColorMatrix in="SourceAlpha" type="matrix" values="0 0 0 0 0 0 0 0 0 0 0 0 0 0 0 0 0 0 127 0" result="hardAlpha"/>
<feOffset dx="4" dy="4"/>
<feComposite in2="hardAlpha" operator="out"/>
<feColorMatrix type="matrix" values="0 0 0 0 0.932432 0 0 0 0 0.778811 0 0 0 0 0.667568 0 0 0 1 0"/>
<feBlend mode="normal" in2="BackgroundImageFix" result="effect1_dropShadow_242_276"/>
<feBlend mode="normal" in="SourceGraphic" in2="effect1_dropShadow_242_276" result="shape"/>
</filter>
<filter id="filter3_d_242_276" x="124.5" y="248" width="228" height="104" filterUnits="userSpaceOnUse" color-interpolation-filters="sRGB">
<feFlood flood-opacity="0" result="BackgroundImageFix"/>
<feColorMatrix in="SourceAlpha" type="matrix" values="0 0 0 0 0 0 0 0 0 0 0 0 0 0 0 0 0 0 127 0" result="hardAlpha"/>
<feOffset dx="4" dy="4"/>
<feComposite in2="hardAlpha" operator="out"/>
<feColorMatrix type="matrix" values="0 0 0 0 0.6 0 0 0 0 0.781961 0 0 0 0 1 0 0 0 1 0"/>
<feBlend mode="normal" in2="BackgroundImageFix" result="effect1_dropShadow_242_276"/>
<feBlend mode="normal" in="SourceGraphic" in2="effect1_dropShadow_242_276" result="shape"/>
</filter>
</defs>
</svg>
