<svg width="405" height="377" viewBox="0 0 405 377" fill="none" xmlns="http://www.w3.org/2000/svg">
<g filter="url(#filter0_d_140_740)">
<rect x="0.5" y="293" width="80" height="80" rx="16" fill="white" shape-rendering="crispEdges"/>
<rect x="1" y="293.5" width="79" height="79" rx="15.5" stroke="#212528" shape-rendering="crispEdges"/>
<path d="M50.5 316.333H30.5C28.6667 316.333 27.1667 317.833 27.1667 319.667V346.333C27.1667 348.167 28.6667 349.667 30.5 349.667H50.5C52.3333 349.667 53.8333 348.167 53.8333 346.333V319.667C53.8333 317.833 52.3333 316.333 50.5 316.333ZM30.5 319.667H38.8333V333L34.6667 330.5L30.5 333V319.667Z" fill="#4BCA5A"/>
</g>
<g filter="url(#filter1_d_140_740)">
<rect x="104.5" y="293" width="296" height="80" rx="16" fill="white" shape-rendering="crispEdges"/>
<rect x="105" y="293.5" width="295" height="79" rx="15.5" stroke="#212528" shape-rendering="crispEdges"/>
<path d="M170.415 329.722H167.756C167.653 329.153 167.463 328.653 167.185 328.222C166.906 327.79 166.565 327.423 166.162 327.122C165.759 326.821 165.307 326.594 164.807 326.44C164.313 326.287 163.787 326.21 163.23 326.21C162.224 326.21 161.324 326.463 160.528 326.969C159.739 327.474 159.114 328.216 158.653 329.193C158.199 330.17 157.972 331.364 157.972 332.773C157.972 334.193 158.199 335.392 158.653 336.369C159.114 337.347 159.741 338.085 160.537 338.585C161.332 339.085 162.227 339.335 163.222 339.335C163.773 339.335 164.295 339.261 164.79 339.114C165.29 338.96 165.741 338.736 166.145 338.44C166.548 338.145 166.889 337.784 167.168 337.358C167.452 336.926 167.648 336.432 167.756 335.875L170.415 335.884C170.273 336.741 169.997 337.531 169.588 338.253C169.185 338.969 168.665 339.588 168.028 340.111C167.398 340.628 166.676 341.028 165.864 341.312C165.051 341.597 164.165 341.739 163.205 341.739C161.693 341.739 160.347 341.381 159.165 340.665C157.983 339.943 157.051 338.912 156.369 337.571C155.693 336.23 155.355 334.631 155.355 332.773C155.355 330.909 155.696 329.31 156.378 327.974C157.06 326.634 157.991 325.605 159.173 324.889C160.355 324.168 161.699 323.807 163.205 323.807C164.131 323.807 164.994 323.94 165.795 324.207C166.602 324.469 167.327 324.855 167.969 325.366C168.611 325.872 169.142 326.491 169.562 327.224C169.983 327.952 170.267 328.784 170.415 329.722ZM178.876 341.764C177.648 341.764 176.577 341.483 175.663 340.92C174.748 340.358 174.038 339.571 173.532 338.56C173.026 337.548 172.773 336.366 172.773 335.014C172.773 333.656 173.026 332.469 173.532 331.452C174.038 330.435 174.748 329.645 175.663 329.082C176.577 328.52 177.648 328.239 178.876 328.239C180.103 328.239 181.174 328.52 182.089 329.082C183.004 329.645 183.714 330.435 184.219 331.452C184.725 332.469 184.978 333.656 184.978 335.014C184.978 336.366 184.725 337.548 184.219 338.56C183.714 339.571 183.004 340.358 182.089 340.92C181.174 341.483 180.103 341.764 178.876 341.764ZM178.884 339.625C179.68 339.625 180.339 339.415 180.862 338.994C181.384 338.574 181.771 338.014 182.021 337.315C182.276 336.616 182.404 335.847 182.404 335.006C182.404 334.17 182.276 333.403 182.021 332.705C181.771 332 181.384 331.435 180.862 331.009C180.339 330.582 179.68 330.369 178.884 330.369C178.083 330.369 177.418 330.582 176.89 331.009C176.367 331.435 175.978 332 175.722 332.705C175.472 333.403 175.347 334.17 175.347 335.006C175.347 335.847 175.472 336.616 175.722 337.315C175.978 338.014 176.367 338.574 176.89 338.994C177.418 339.415 178.083 339.625 178.884 339.625ZM187.822 341.5V328.409H190.268V330.54H190.43C190.703 329.818 191.149 329.256 191.768 328.852C192.388 328.443 193.129 328.239 193.993 328.239C194.868 328.239 195.601 328.443 196.192 328.852C196.788 329.261 197.229 329.824 197.513 330.54H197.649C197.962 329.841 198.459 329.284 199.141 328.869C199.822 328.449 200.635 328.239 201.578 328.239C202.766 328.239 203.734 328.611 204.484 329.355C205.24 330.099 205.618 331.222 205.618 332.722V341.5H203.07V332.96C203.07 332.074 202.828 331.432 202.345 331.034C201.862 330.636 201.286 330.438 200.615 330.438C199.786 330.438 199.141 330.693 198.68 331.205C198.22 331.71 197.99 332.361 197.99 333.156V341.5H195.45V332.798C195.45 332.088 195.229 331.517 194.786 331.085C194.342 330.653 193.766 330.438 193.055 330.438C192.572 330.438 192.126 330.565 191.717 330.821C191.314 331.071 190.987 331.42 190.737 331.869C190.493 332.318 190.371 332.838 190.371 333.429V341.5H187.822ZM209.033 346.409V328.409H211.522V330.531H211.735C211.883 330.259 212.096 329.943 212.374 329.585C212.653 329.227 213.039 328.915 213.533 328.648C214.028 328.375 214.681 328.239 215.494 328.239C216.55 328.239 217.494 328.506 218.323 329.04C219.153 329.574 219.803 330.344 220.275 331.349C220.752 332.355 220.991 333.565 220.991 334.98C220.991 336.395 220.755 337.608 220.283 338.619C219.812 339.625 219.164 340.401 218.34 340.946C217.516 341.486 216.576 341.756 215.519 341.756C214.724 341.756 214.073 341.622 213.567 341.355C213.067 341.088 212.675 340.776 212.391 340.418C212.107 340.06 211.888 339.741 211.735 339.463H211.582V346.409H209.033ZM211.531 334.955C211.531 335.875 211.664 336.682 211.931 337.375C212.198 338.068 212.585 338.611 213.09 339.003C213.596 339.389 214.215 339.582 214.948 339.582C215.71 339.582 216.346 339.381 216.857 338.977C217.369 338.568 217.755 338.014 218.016 337.315C218.283 336.616 218.417 335.83 218.417 334.955C218.417 334.091 218.286 333.315 218.025 332.628C217.769 331.94 217.383 331.398 216.866 331C216.354 330.602 215.715 330.403 214.948 330.403C214.21 330.403 213.585 330.594 213.073 330.974C212.567 331.355 212.184 331.886 211.923 332.568C211.661 333.25 211.531 334.045 211.531 334.955ZM227.656 341.79C226.826 341.79 226.076 341.636 225.406 341.33C224.735 341.017 224.204 340.565 223.812 339.974C223.425 339.384 223.232 338.659 223.232 337.801C223.232 337.062 223.374 336.455 223.658 335.977C223.942 335.5 224.326 335.122 224.809 334.844C225.292 334.565 225.832 334.355 226.428 334.213C227.025 334.071 227.633 333.963 228.252 333.889C229.036 333.798 229.673 333.724 230.161 333.668C230.65 333.605 231.005 333.506 231.227 333.369C231.448 333.233 231.559 333.011 231.559 332.705V332.645C231.559 331.901 231.349 331.324 230.928 330.915C230.513 330.506 229.894 330.301 229.07 330.301C228.212 330.301 227.536 330.491 227.042 330.872C226.553 331.247 226.215 331.665 226.028 332.125L223.633 331.58C223.917 330.784 224.332 330.142 224.877 329.653C225.428 329.159 226.062 328.801 226.778 328.58C227.494 328.352 228.246 328.239 229.036 328.239C229.559 328.239 230.113 328.301 230.698 328.426C231.289 328.545 231.84 328.767 232.352 329.091C232.869 329.415 233.292 329.878 233.621 330.48C233.951 331.077 234.116 331.852 234.116 332.807V341.5H231.627V339.71H231.525C231.36 340.04 231.113 340.364 230.783 340.682C230.454 341 230.031 341.264 229.513 341.474C228.996 341.685 228.377 341.79 227.656 341.79ZM228.21 339.744C228.914 339.744 229.516 339.605 230.016 339.327C230.522 339.048 230.906 338.685 231.167 338.236C231.434 337.781 231.567 337.295 231.567 336.778V335.091C231.477 335.182 231.3 335.267 231.039 335.347C230.783 335.42 230.491 335.486 230.161 335.543C229.832 335.594 229.511 335.642 229.198 335.688C228.886 335.727 228.624 335.761 228.414 335.79C227.92 335.852 227.468 335.957 227.059 336.105C226.656 336.253 226.332 336.466 226.087 336.744C225.849 337.017 225.729 337.381 225.729 337.835C225.729 338.466 225.962 338.943 226.428 339.267C226.894 339.585 227.488 339.744 228.21 339.744ZM240.058 333.727V341.5H237.51V328.409H239.956V330.54H240.118C240.419 329.847 240.891 329.29 241.533 328.869C242.18 328.449 242.996 328.239 243.979 328.239C244.871 328.239 245.652 328.426 246.322 328.801C246.993 329.17 247.513 329.722 247.882 330.455C248.251 331.187 248.436 332.094 248.436 333.173V341.5H245.888V333.48C245.888 332.531 245.641 331.79 245.146 331.256C244.652 330.716 243.973 330.446 243.109 330.446C242.518 330.446 241.993 330.574 241.533 330.83C241.078 331.085 240.717 331.46 240.45 331.955C240.189 332.443 240.058 333.034 240.058 333.727ZM252.996 346.409C252.615 346.409 252.268 346.378 251.956 346.315C251.643 346.259 251.411 346.196 251.257 346.128L251.871 344.04C252.337 344.165 252.751 344.219 253.115 344.202C253.479 344.185 253.8 344.048 254.078 343.793C254.362 343.537 254.612 343.119 254.828 342.54L255.143 341.67L250.354 328.409H253.081L256.396 338.568H256.533L259.848 328.409H262.584L257.189 343.247C256.939 343.929 256.621 344.506 256.234 344.977C255.848 345.455 255.388 345.813 254.854 346.051C254.32 346.29 253.7 346.409 252.996 346.409ZM271.535 341.5V324.045H274.168V339.233H282.077V341.5H271.535ZM290.519 341.764C289.229 341.764 288.119 341.489 287.187 340.938C286.261 340.381 285.545 339.599 285.039 338.594C284.539 337.582 284.289 336.398 284.289 335.04C284.289 333.699 284.539 332.517 285.039 331.494C285.545 330.472 286.249 329.673 287.153 329.099C288.062 328.526 289.124 328.239 290.34 328.239C291.079 328.239 291.795 328.361 292.488 328.605C293.181 328.849 293.803 329.233 294.354 329.756C294.906 330.278 295.34 330.957 295.658 331.793C295.977 332.622 296.136 333.631 296.136 334.818V335.722H285.729V333.812H293.638C293.638 333.142 293.502 332.548 293.229 332.031C292.957 331.509 292.573 331.097 292.079 330.795C291.59 330.494 291.016 330.344 290.357 330.344C289.641 330.344 289.016 330.52 288.482 330.872C287.954 331.219 287.545 331.673 287.255 332.236C286.971 332.793 286.829 333.398 286.829 334.051V335.543C286.829 336.418 286.982 337.162 287.289 337.776C287.602 338.389 288.036 338.858 288.593 339.182C289.15 339.5 289.8 339.659 290.545 339.659C291.028 339.659 291.468 339.591 291.866 339.455C292.263 339.312 292.607 339.102 292.897 338.824C293.187 338.545 293.408 338.202 293.562 337.793L295.974 338.227C295.781 338.937 295.434 339.56 294.934 340.094C294.44 340.622 293.817 341.034 293.067 341.33C292.323 341.619 291.474 341.764 290.519 341.764ZM303.864 341.756C302.807 341.756 301.864 341.486 301.034 340.946C300.21 340.401 299.563 339.625 299.091 338.619C298.625 337.608 298.392 336.395 298.392 334.98C298.392 333.565 298.628 332.355 299.099 331.349C299.577 330.344 300.23 329.574 301.06 329.04C301.889 328.506 302.83 328.239 303.881 328.239C304.693 328.239 305.347 328.375 305.841 328.648C306.341 328.915 306.727 329.227 307 329.585C307.278 329.943 307.494 330.259 307.648 330.531H307.801V324.045H310.349V341.5H307.861V339.463H307.648C307.494 339.741 307.273 340.06 306.983 340.418C306.699 340.776 306.307 341.088 305.807 341.355C305.307 341.622 304.659 341.756 303.864 341.756ZM304.426 339.582C305.159 339.582 305.778 339.389 306.284 339.003C306.795 338.611 307.182 338.068 307.443 337.375C307.71 336.682 307.844 335.875 307.844 334.955C307.844 334.045 307.713 333.25 307.452 332.568C307.19 331.886 306.807 331.355 306.301 330.974C305.795 330.594 305.17 330.403 304.426 330.403C303.659 330.403 303.02 330.602 302.509 331C301.997 331.398 301.611 331.94 301.349 332.628C301.094 333.315 300.966 334.091 300.966 334.955C300.966 335.83 301.097 336.616 301.358 337.315C301.619 338.014 302.006 338.568 302.517 338.977C303.034 339.381 303.67 339.582 304.426 339.582ZM319.475 346.682C318.435 346.682 317.54 346.545 316.79 346.273C316.046 346 315.438 345.639 314.967 345.19C314.495 344.741 314.143 344.25 313.91 343.716L316.1 342.812C316.254 343.062 316.458 343.327 316.714 343.605C316.975 343.889 317.327 344.131 317.771 344.33C318.219 344.528 318.796 344.628 319.501 344.628C320.467 344.628 321.265 344.392 321.896 343.92C322.526 343.455 322.842 342.71 322.842 341.688V339.114H322.68C322.526 339.392 322.305 339.702 322.015 340.043C321.731 340.384 321.339 340.679 320.839 340.929C320.339 341.179 319.688 341.304 318.887 341.304C317.853 341.304 316.921 341.062 316.092 340.58C315.268 340.091 314.614 339.372 314.131 338.423C313.654 337.469 313.415 336.295 313.415 334.903C313.415 333.511 313.651 332.318 314.123 331.324C314.6 330.33 315.254 329.568 316.083 329.04C316.913 328.506 317.853 328.239 318.904 328.239C319.717 328.239 320.373 328.375 320.873 328.648C321.373 328.915 321.762 329.227 322.04 329.585C322.325 329.943 322.543 330.259 322.697 330.531H322.884V328.409H325.381V341.79C325.381 342.915 325.12 343.838 324.597 344.56C324.075 345.281 323.367 345.815 322.475 346.162C321.589 346.509 320.589 346.682 319.475 346.682ZM319.45 339.19C320.183 339.19 320.802 339.02 321.308 338.679C321.819 338.332 322.205 337.838 322.467 337.196C322.734 336.548 322.867 335.773 322.867 334.869C322.867 333.989 322.737 333.213 322.475 332.543C322.214 331.872 321.83 331.349 321.325 330.974C320.819 330.594 320.194 330.403 319.45 330.403C318.683 330.403 318.043 330.602 317.532 331C317.021 331.392 316.634 331.926 316.373 332.602C316.117 333.278 315.989 334.034 315.989 334.869C315.989 335.727 316.12 336.48 316.381 337.128C316.643 337.776 317.029 338.281 317.54 338.645C318.058 339.009 318.694 339.19 319.45 339.19ZM334.441 341.764C333.151 341.764 332.04 341.489 331.109 340.938C330.183 340.381 329.467 339.599 328.961 338.594C328.461 337.582 328.211 336.398 328.211 335.04C328.211 333.699 328.461 332.517 328.961 331.494C329.467 330.472 330.171 329.673 331.075 329.099C331.984 328.526 333.046 328.239 334.262 328.239C335.001 328.239 335.717 328.361 336.41 328.605C337.103 328.849 337.725 329.233 338.276 329.756C338.827 330.278 339.262 330.957 339.58 331.793C339.898 332.622 340.058 333.631 340.058 334.818V335.722H329.651V333.812H337.56C337.56 333.142 337.424 332.548 337.151 332.031C336.879 331.509 336.495 331.097 336.001 330.795C335.512 330.494 334.938 330.344 334.279 330.344C333.563 330.344 332.938 330.52 332.404 330.872C331.876 331.219 331.467 331.673 331.177 332.236C330.893 332.793 330.751 333.398 330.751 334.051V335.543C330.751 336.418 330.904 337.162 331.211 337.776C331.523 338.389 331.958 338.858 332.515 339.182C333.072 339.5 333.722 339.659 334.467 339.659C334.95 339.659 335.39 339.591 335.788 339.455C336.185 339.312 336.529 339.102 336.819 338.824C337.109 338.545 337.33 338.202 337.484 337.793L339.896 338.227C339.702 338.937 339.356 339.56 338.856 340.094C338.362 340.622 337.739 341.034 336.989 341.33C336.245 341.619 335.396 341.764 334.441 341.764ZM342.885 341.5V328.409H345.348V330.489H345.484C345.723 329.784 346.143 329.23 346.746 328.827C347.354 328.418 348.041 328.213 348.808 328.213C348.967 328.213 349.155 328.219 349.371 328.23C349.592 328.241 349.766 328.256 349.891 328.273V330.71C349.788 330.682 349.607 330.651 349.345 330.616C349.084 330.577 348.822 330.557 348.561 330.557C347.959 330.557 347.422 330.685 346.95 330.94C346.484 331.19 346.115 331.54 345.842 331.989C345.57 332.432 345.433 332.937 345.433 333.506V341.5H342.885Z" fill="#4BCA5A"/>
</g>
<g filter="url(#filter2_d_140_740)">
<rect x="0.5" width="296" height="80" rx="16" fill="white" shape-rendering="crispEdges"/>
<rect x="1" y="0.5" width="295" height="79" rx="15.5" stroke="#212528" shape-rendering="crispEdges"/>
<path d="M40.4176 48.5V31.0455H46.6392C47.9915 31.0455 49.1136 31.2784 50.0057 31.7443C50.9034 32.2102 51.5739 32.8551 52.017 33.679C52.4602 34.4972 52.6818 35.4432 52.6818 36.517C52.6818 37.5852 52.4574 38.5256 52.0085 39.3381C51.5653 40.1449 50.8949 40.7727 49.9972 41.2216C49.1051 41.6705 47.983 41.8949 46.6307 41.8949H41.9176V39.6278H46.392C47.2443 39.6278 47.9375 39.5057 48.4716 39.2614C49.0114 39.017 49.4062 38.6619 49.6562 38.196C49.9062 37.7301 50.0312 37.1705 50.0312 36.517C50.0312 35.858 49.9034 35.2869 49.6477 34.804C49.3977 34.321 49.0028 33.9517 48.4631 33.696C47.929 33.4347 47.2273 33.304 46.358 33.304H43.0511V48.5H40.4176ZM49.0341 40.625L53.3466 48.5H50.3466L46.1193 40.625H49.0341ZM61.1598 48.7642C59.87 48.7642 58.7592 48.4886 57.8274 47.9375C56.9013 47.3807 56.1854 46.5994 55.6797 45.5938C55.1797 44.5824 54.9297 43.3977 54.9297 42.0398C54.9297 40.6989 55.1797 39.517 55.6797 38.4943C56.1854 37.4716 56.8899 36.6733 57.7933 36.0994C58.7024 35.5256 59.7649 35.2386 60.9808 35.2386C61.7195 35.2386 62.4354 35.3608 63.1286 35.6051C63.8217 35.8494 64.4439 36.233 64.995 36.7557C65.5462 37.2784 65.9808 37.9574 66.299 38.7926C66.6172 39.6222 66.7763 40.6307 66.7763 41.8182V42.7216H56.37V40.8125H64.2791C64.2791 40.142 64.1428 39.5483 63.87 39.0312C63.5973 38.5085 63.2138 38.0966 62.7195 37.7955C62.2308 37.4943 61.657 37.3438 60.9979 37.3438C60.282 37.3438 59.657 37.5199 59.1229 37.8722C58.5945 38.2187 58.1854 38.6733 57.8956 39.2358C57.6115 39.7926 57.4695 40.3977 57.4695 41.0511V42.5426C57.4695 43.4176 57.6229 44.1619 57.9297 44.7756C58.2422 45.3892 58.6768 45.858 59.2337 46.1818C59.7905 46.5 60.4411 46.6591 61.1854 46.6591C61.6683 46.6591 62.1087 46.5909 62.5064 46.4545C62.9041 46.3125 63.2479 46.1023 63.5376 45.8239C63.8274 45.5455 64.049 45.2017 64.2024 44.7926L66.6143 45.2273C66.4212 45.9375 66.0746 46.5597 65.5746 47.0938C65.0803 47.6222 64.4581 48.0341 63.7081 48.3295C62.9638 48.6193 62.1143 48.7642 61.1598 48.7642ZM73.4134 48.7898C72.5838 48.7898 71.8338 48.6364 71.1634 48.3295C70.4929 48.017 69.9616 47.5653 69.5696 46.9744C69.1832 46.3835 68.9901 45.6591 68.9901 44.8011C68.9901 44.0625 69.1321 43.4545 69.4162 42.9773C69.7003 42.5 70.0838 42.1222 70.5668 41.8438C71.0497 41.5653 71.5895 41.3551 72.1861 41.2131C72.7827 41.071 73.3906 40.9631 74.0099 40.8892C74.794 40.7983 75.4304 40.7244 75.919 40.6676C76.4077 40.6051 76.7628 40.5057 76.9844 40.3693C77.206 40.233 77.3168 40.0114 77.3168 39.7045V39.6449C77.3168 38.9006 77.1065 38.3239 76.6861 37.9148C76.2713 37.5057 75.652 37.3011 74.8281 37.3011C73.9702 37.3011 73.294 37.4915 72.7997 37.8722C72.3111 38.2472 71.973 38.6648 71.7855 39.125L69.3906 38.5795C69.6747 37.7841 70.0895 37.142 70.6349 36.6534C71.1861 36.1591 71.8196 35.8011 72.5355 35.5795C73.2514 35.3523 74.0043 35.2386 74.794 35.2386C75.3168 35.2386 75.8707 35.3011 76.456 35.4261C77.0469 35.5455 77.598 35.767 78.1094 36.0909C78.6264 36.4148 79.0497 36.8778 79.3793 37.4801C79.7088 38.0767 79.8736 38.8523 79.8736 39.8068V48.5H77.3849V46.7102H77.2827C77.1179 47.0398 76.8707 47.3636 76.5412 47.6818C76.2116 48 75.7884 48.2642 75.2713 48.4744C74.7543 48.6847 74.1349 48.7898 73.4134 48.7898ZM73.9673 46.7443C74.6719 46.7443 75.2741 46.6051 75.7741 46.3267C76.2798 46.0483 76.6634 45.6847 76.9247 45.2358C77.1918 44.7812 77.3253 44.2955 77.3253 43.7784V42.0909C77.2344 42.1818 77.0582 42.267 76.7969 42.3466C76.5412 42.4205 76.2486 42.4858 75.919 42.5426C75.5895 42.5937 75.2685 42.642 74.956 42.6875C74.6435 42.7273 74.3821 42.7614 74.1719 42.7898C73.6776 42.8523 73.2259 42.9574 72.8168 43.1051C72.4134 43.2528 72.0895 43.4659 71.8452 43.7443C71.6065 44.017 71.4872 44.3807 71.4872 44.8352C71.4872 45.4659 71.7202 45.9432 72.1861 46.267C72.652 46.5852 73.2457 46.7443 73.9673 46.7443ZM85.8161 31.0455V48.5H83.2678V31.0455H85.8161ZM96.9574 40.0199V42.2273H89.2188V40.0199H96.9574ZM112.816 35.4091V37.4545H105.665V35.4091H112.816ZM107.583 32.2727H110.131V44.6562C110.131 45.1506 110.205 45.5227 110.353 45.7727C110.501 46.017 110.691 46.1847 110.924 46.2756C111.163 46.3608 111.421 46.4034 111.7 46.4034C111.904 46.4034 112.083 46.3892 112.237 46.3608C112.39 46.3324 112.509 46.3097 112.594 46.2926L113.055 48.3977C112.907 48.4545 112.697 48.5114 112.424 48.5682C112.151 48.6307 111.81 48.6648 111.401 48.6705C110.731 48.6818 110.106 48.5625 109.526 48.3125C108.947 48.0625 108.478 47.6761 108.12 47.1534C107.762 46.6307 107.583 45.9744 107.583 45.1847V32.2727ZM115.635 48.5V35.4091H118.183V48.5H115.635ZM116.922 33.3892C116.479 33.3892 116.098 33.2415 115.78 32.946C115.467 32.6449 115.311 32.2869 115.311 31.8722C115.311 31.4517 115.467 31.0937 115.78 30.7983C116.098 30.4972 116.479 30.3466 116.922 30.3466C117.365 30.3466 117.743 30.4972 118.055 30.7983C118.374 31.0937 118.533 31.4517 118.533 31.8722C118.533 32.2869 118.374 32.6449 118.055 32.946C117.743 33.2415 117.365 33.3892 116.922 33.3892ZM121.612 48.5V35.4091H124.058V37.5398H124.219C124.492 36.8182 124.938 36.2557 125.558 35.8523C126.177 35.4432 126.918 35.2386 127.782 35.2386C128.657 35.2386 129.39 35.4432 129.981 35.8523C130.577 36.2614 131.018 36.8239 131.302 37.5398H131.438C131.751 36.8409 132.248 36.2841 132.93 35.8693C133.612 35.4489 134.424 35.2386 135.367 35.2386C136.555 35.2386 137.523 35.6108 138.273 36.3551C139.029 37.0994 139.407 38.2216 139.407 39.7216V48.5H136.859V39.9602C136.859 39.0739 136.617 38.4318 136.134 38.0341C135.651 37.6364 135.075 37.4375 134.404 37.4375C133.575 37.4375 132.93 37.6932 132.469 38.2045C132.009 38.7102 131.779 39.3608 131.779 40.1562V48.5H129.239V39.7983C129.239 39.0881 129.018 38.517 128.575 38.0852C128.131 37.6534 127.555 37.4375 126.844 37.4375C126.362 37.4375 125.915 37.5653 125.506 37.821C125.103 38.071 124.776 38.4205 124.526 38.8693C124.282 39.3182 124.16 39.8381 124.16 40.429V48.5H121.612ZM148.464 48.7642C147.175 48.7642 146.064 48.4886 145.132 47.9375C144.206 47.3807 143.49 46.5994 142.984 45.5938C142.484 44.5824 142.234 43.3977 142.234 42.0398C142.234 40.6989 142.484 39.517 142.984 38.4943C143.49 37.4716 144.195 36.6733 145.098 36.0994C146.007 35.5256 147.07 35.2386 148.286 35.2386C149.024 35.2386 149.74 35.3608 150.433 35.6051C151.126 35.8494 151.749 36.233 152.3 36.7557C152.851 37.2784 153.286 37.9574 153.604 38.7926C153.922 39.6222 154.081 40.6307 154.081 41.8182V42.7216H143.675V40.8125H151.584C151.584 40.142 151.447 39.5483 151.175 39.0312C150.902 38.5085 150.518 38.0966 150.024 37.7955C149.536 37.4943 148.962 37.3438 148.303 37.3438C147.587 37.3438 146.962 37.5199 146.428 37.8722C145.899 38.2187 145.49 38.6733 145.2 39.2358C144.916 39.7926 144.774 40.3977 144.774 41.0511V42.5426C144.774 43.4176 144.928 44.1619 145.234 44.7756C145.547 45.3892 145.982 45.858 146.538 46.1818C147.095 46.5 147.746 46.6591 148.49 46.6591C148.973 46.6591 149.413 46.5909 149.811 46.4545C150.209 46.3125 150.553 46.1023 150.842 45.8239C151.132 45.5455 151.354 45.2017 151.507 44.7926L153.919 45.2273C153.726 45.9375 153.379 46.5597 152.879 47.0938C152.385 47.6222 151.763 48.0341 151.013 48.3295C150.268 48.6193 149.419 48.7642 148.464 48.7642ZM174.689 31.0455H177.331V42.5256C177.331 43.7472 177.044 44.8295 176.47 45.7727C175.896 46.7102 175.089 47.4489 174.05 47.9886C173.01 48.5227 171.791 48.7898 170.393 48.7898C169.001 48.7898 167.786 48.5227 166.746 47.9886C165.706 47.4489 164.899 46.7102 164.325 45.7727C163.751 44.8295 163.464 43.7472 163.464 42.5256V31.0455H166.098V42.3125C166.098 43.1023 166.271 43.804 166.618 44.4176C166.97 45.0312 167.467 45.5142 168.109 45.8665C168.751 46.2131 169.513 46.3864 170.393 46.3864C171.28 46.3864 172.044 46.2131 172.686 45.8665C173.334 45.5142 173.828 45.0312 174.169 44.4176C174.516 43.804 174.689 43.1023 174.689 42.3125V31.0455ZM180.955 53.4091V35.4091H183.444V37.5312H183.657C183.805 37.2585 184.018 36.9432 184.296 36.5852C184.575 36.2273 184.961 35.9148 185.455 35.6477C185.95 35.375 186.603 35.2386 187.415 35.2386C188.472 35.2386 189.415 35.5057 190.245 36.0398C191.075 36.5739 191.725 37.3437 192.197 38.3494C192.674 39.3551 192.913 40.5653 192.913 41.9801C192.913 43.3949 192.677 44.608 192.205 45.6193C191.734 46.625 191.086 47.4006 190.262 47.946C189.438 48.4858 188.498 48.7557 187.441 48.7557C186.646 48.7557 185.995 48.6222 185.489 48.3551C184.989 48.0881 184.597 47.7756 184.313 47.4176C184.029 47.0597 183.81 46.7415 183.657 46.4631H183.504V53.4091H180.955ZM183.452 41.9545C183.452 42.875 183.586 43.6818 183.853 44.375C184.12 45.0682 184.506 45.6108 185.012 46.0028C185.518 46.3892 186.137 46.5824 186.87 46.5824C187.631 46.5824 188.268 46.3807 188.779 45.9773C189.29 45.5682 189.677 45.0142 189.938 44.3153C190.205 43.6165 190.339 42.8295 190.339 41.9545C190.339 41.0909 190.208 40.3153 189.947 39.6278C189.691 38.9403 189.305 38.3977 188.788 38C188.276 37.6023 187.637 37.4034 186.87 37.4034C186.131 37.4034 185.506 37.5937 184.995 37.9744C184.489 38.3551 184.106 38.8864 183.844 39.5682C183.583 40.25 183.452 41.0455 183.452 41.9545ZM200.668 48.7557C199.612 48.7557 198.668 48.4858 197.839 47.946C197.015 47.4006 196.367 46.625 195.896 45.6193C195.43 44.608 195.197 43.3949 195.197 41.9801C195.197 40.5653 195.433 39.3551 195.904 38.3494C196.381 37.3437 197.035 36.5739 197.864 36.0398C198.694 35.5057 199.634 35.2386 200.685 35.2386C201.498 35.2386 202.151 35.375 202.646 35.6477C203.146 35.9148 203.532 36.2273 203.805 36.5852C204.083 36.9432 204.299 37.2585 204.452 37.5312H204.606V31.0455H207.154V48.5H204.665V46.4631H204.452C204.299 46.7415 204.077 47.0597 203.788 47.4176C203.504 47.7756 203.112 48.0881 202.612 48.3551C202.112 48.6222 201.464 48.7557 200.668 48.7557ZM201.231 46.5824C201.964 46.5824 202.583 46.3892 203.089 46.0028C203.6 45.6108 203.987 45.0682 204.248 44.375C204.515 43.6818 204.648 42.875 204.648 41.9545C204.648 41.0455 204.518 40.25 204.256 39.5682C203.995 38.8864 203.612 38.3551 203.106 37.9744C202.6 37.5937 201.975 37.4034 201.231 37.4034C200.464 37.4034 199.825 37.6023 199.313 38C198.802 38.3977 198.415 38.9403 198.154 39.6278C197.898 40.3153 197.771 41.0909 197.771 41.9545C197.771 42.8295 197.901 43.6165 198.163 44.3153C198.424 45.0142 198.81 45.5682 199.322 45.9773C199.839 46.3807 200.475 46.5824 201.231 46.5824ZM214.601 48.7898C213.771 48.7898 213.021 48.6364 212.351 48.3295C211.68 48.017 211.149 47.5653 210.757 46.9744C210.371 46.3835 210.178 45.6591 210.178 44.8011C210.178 44.0625 210.32 43.4545 210.604 42.9773C210.888 42.5 211.271 42.1222 211.754 41.8438C212.237 41.5653 212.777 41.3551 213.374 41.2131C213.97 41.071 214.578 40.9631 215.197 40.8892C215.982 40.7983 216.618 40.7244 217.107 40.6676C217.595 40.6051 217.95 40.5057 218.172 40.3693C218.393 40.233 218.504 40.0114 218.504 39.7045V39.6449C218.504 38.9006 218.294 38.3239 217.874 37.9148C217.459 37.5057 216.839 37.3011 216.016 37.3011C215.158 37.3011 214.482 37.4915 213.987 37.8722C213.499 38.2472 213.161 38.6648 212.973 39.125L210.578 38.5795C210.862 37.7841 211.277 37.142 211.822 36.6534C212.374 36.1591 213.007 35.8011 213.723 35.5795C214.439 35.3523 215.192 35.2386 215.982 35.2386C216.504 35.2386 217.058 35.3011 217.643 35.4261C218.234 35.5455 218.786 35.767 219.297 36.0909C219.814 36.4148 220.237 36.8778 220.567 37.4801C220.896 38.0767 221.061 38.8523 221.061 39.8068V48.5H218.572V46.7102H218.47C218.305 47.0398 218.058 47.3636 217.729 47.6818C217.399 48 216.976 48.2642 216.459 48.4744C215.942 48.6847 215.322 48.7898 214.601 48.7898ZM215.155 46.7443C215.859 46.7443 216.462 46.6051 216.962 46.3267C217.467 46.0483 217.851 45.6847 218.112 45.2358C218.379 44.7812 218.513 44.2955 218.513 43.7784V42.0909C218.422 42.1818 218.246 42.267 217.984 42.3466C217.729 42.4205 217.436 42.4858 217.107 42.5426C216.777 42.5937 216.456 42.642 216.143 42.6875C215.831 42.7273 215.57 42.7614 215.359 42.7898C214.865 42.8523 214.413 42.9574 214.004 43.1051C213.601 43.2528 213.277 43.4659 213.033 43.7443C212.794 44.017 212.675 44.3807 212.675 44.8352C212.675 45.4659 212.908 45.9432 213.374 46.267C213.839 46.5852 214.433 46.7443 215.155 46.7443ZM230.566 35.4091V37.4545H223.415V35.4091H230.566ZM225.333 32.2727H227.881V44.6562C227.881 45.1506 227.955 45.5227 228.103 45.7727C228.251 46.017 228.441 46.1847 228.674 46.2756C228.913 46.3608 229.171 46.4034 229.45 46.4034C229.654 46.4034 229.833 46.3892 229.987 46.3608C230.14 46.3324 230.259 46.3097 230.344 46.2926L230.805 48.3977C230.657 48.4545 230.447 48.5114 230.174 48.5682C229.901 48.6307 229.56 48.6648 229.151 48.6705C228.481 48.6818 227.856 48.5625 227.276 48.3125C226.697 48.0625 226.228 47.6761 225.87 47.1534C225.512 46.6307 225.333 45.9744 225.333 45.1847V32.2727ZM238.886 48.7642C237.597 48.7642 236.486 48.4886 235.554 47.9375C234.628 47.3807 233.912 46.5994 233.406 45.5938C232.906 44.5824 232.656 43.3977 232.656 42.0398C232.656 40.6989 232.906 39.517 233.406 38.4943C233.912 37.4716 234.616 36.6733 235.52 36.0994C236.429 35.5256 237.491 35.2386 238.707 35.2386C239.446 35.2386 240.162 35.3608 240.855 35.6051C241.548 35.8494 242.17 36.233 242.722 36.7557C243.273 37.2784 243.707 37.9574 244.026 38.7926C244.344 39.6222 244.503 40.6307 244.503 41.8182V42.7216H234.097V40.8125H242.006C242.006 40.142 241.869 39.5483 241.597 39.0312C241.324 38.5085 240.94 38.0966 240.446 37.7955C239.957 37.4943 239.384 37.3438 238.724 37.3438C238.009 37.3438 237.384 37.5199 236.849 37.8722C236.321 38.2187 235.912 38.6733 235.622 39.2358C235.338 39.7926 235.196 40.3977 235.196 41.0511V42.5426C235.196 43.4176 235.349 44.1619 235.656 44.7756C235.969 45.3892 236.403 45.858 236.96 46.1818C237.517 46.5 238.168 46.6591 238.912 46.6591C239.395 46.6591 239.835 46.5909 240.233 46.4545C240.631 46.3125 240.974 46.1023 241.264 45.8239C241.554 45.5455 241.776 45.2017 241.929 44.7926L244.341 45.2273C244.148 45.9375 243.801 46.5597 243.301 47.0938C242.807 47.6222 242.185 48.0341 241.435 48.3295C240.69 48.6193 239.841 48.7642 238.886 48.7642ZM257.14 38.6051L254.83 39.0142C254.734 38.7187 254.58 38.4375 254.37 38.1705C254.165 37.9034 253.887 37.6847 253.535 37.5142C253.183 37.3437 252.742 37.2585 252.214 37.2585C251.492 37.2585 250.89 37.4205 250.407 37.7443C249.924 38.0625 249.683 38.4744 249.683 38.9801C249.683 39.4176 249.844 39.7699 250.168 40.0369C250.492 40.304 251.015 40.5227 251.737 40.6932L253.816 41.1705C255.021 41.4489 255.918 41.8778 256.509 42.4574C257.1 43.0369 257.396 43.7898 257.396 44.7159C257.396 45.5 257.168 46.1989 256.714 46.8125C256.265 47.4205 255.637 47.8977 254.83 48.2443C254.029 48.5909 253.1 48.7642 252.043 48.7642C250.577 48.7642 249.381 48.4517 248.455 47.8267C247.529 47.196 246.961 46.3011 246.751 45.142L249.214 44.767C249.367 45.4091 249.683 45.8949 250.16 46.2244C250.637 46.5483 251.259 46.7102 252.026 46.7102C252.862 46.7102 253.529 46.5369 254.029 46.1903C254.529 45.8381 254.779 45.4091 254.779 44.9034C254.779 44.4943 254.626 44.1506 254.319 43.8722C254.018 43.5937 253.555 43.3835 252.93 43.2415L250.714 42.7557C249.492 42.4773 248.589 42.0341 248.004 41.4261C247.424 40.8182 247.134 40.0483 247.134 39.1165C247.134 38.3437 247.35 37.6676 247.782 37.0881C248.214 36.5085 248.81 36.0568 249.572 35.733C250.333 35.4034 251.205 35.2386 252.188 35.2386C253.603 35.2386 254.717 35.5455 255.529 36.1591C256.342 36.767 256.879 37.5824 257.14 38.6051Z" fill="#FF6A00"/>
</g>
<g filter="url(#filter3_d_140_740)">
<rect x="320.5" width="80" height="80" rx="16" fill="white" shape-rendering="crispEdges"/>
<rect x="321" y="0.5" width="79" height="79" rx="15.5" stroke="#212528" shape-rendering="crispEdges"/>
<path d="M360.483 23.3335C351.283 23.3335 343.833 30.8002 343.833 40.0002C343.833 49.2002 351.283 56.6668 360.483 56.6668C369.7 56.6668 377.167 49.2002 377.167 40.0002C377.167 30.8002 369.7 23.3335 360.483 23.3335ZM360.5 53.3335C353.133 53.3335 347.167 47.3668 347.167 40.0002C347.167 32.6335 353.133 26.6668 360.5 26.6668C367.867 26.6668 373.833 32.6335 373.833 40.0002C373.833 47.3668 367.867 53.3335 360.5 53.3335ZM361.333 31.6668H358.833V41.6668L367.583 46.9168L368.833 44.8668L361.333 40.4168V31.6668Z" fill="#FF6A00"/>
</g>
<g filter="url(#filter4_d_140_740)">
<rect x="0.5" y="104" width="400" height="165" rx="16" fill="white" shape-rendering="crispEdges"/>
<rect x="1" y="104.5" width="399" height="164" rx="15.5" stroke="#212528" shape-rendering="crispEdges"/>
<path d="M230.5 141.333C226.8 140.167 222.733 139.667 218.833 139.667C212.333 139.667 205.333 141 200.5 144.667C195.667 141 188.667 139.667 182.167 139.667C175.667 139.667 168.667 141 163.833 144.667V193.5C163.833 194.333 164.667 195.167 165.5 195.167C165.833 195.167 166 195 166.333 195C170.833 192.833 177.333 191.333 182.167 191.333C188.667 191.333 195.667 192.667 200.5 196.333C205 193.5 213.167 191.333 218.833 191.333C224.333 191.333 230 192.333 234.667 194.833C235 195 235.167 195 235.5 195C236.333 195 237.167 194.167 237.167 193.333V144.667C235.167 143.167 233 142.167 230.5 141.333ZM230.5 186.333C226.833 185.167 222.833 184.667 218.833 184.667C213.167 184.667 205 186.833 200.5 189.667V151.333C205 148.5 213.167 146.333 218.833 146.333C222.833 146.333 226.833 146.833 230.5 148V186.333Z" fill="#0D4680"/>
<path d="M218.833 159.667C221.767 159.667 224.6 159.967 227.167 160.533V155.467C224.533 154.967 221.7 154.667 218.833 154.667C213.167 154.667 208.033 155.633 203.833 157.433V162.967C207.6 160.833 212.833 159.667 218.833 159.667Z" fill="#0D4680"/>
<path d="M203.833 166.3V171.833C207.6 169.7 212.833 168.533 218.833 168.533C221.767 168.533 224.6 168.833 227.167 169.4V164.333C224.533 163.833 221.7 163.533 218.833 163.533C213.167 163.533 208.033 164.533 203.833 166.3Z" fill="#0D4680"/>
<path d="M218.833 172.433C213.167 172.433 208.033 173.4 203.833 175.2V180.733C207.6 178.6 212.833 177.433 218.833 177.433C221.767 177.433 224.6 177.733 227.167 178.3V173.233C224.533 172.7 221.7 172.433 218.833 172.433Z" fill="#0D4680"/>
<path d="M123.202 221.545H125.827V233.92C125.827 235.04 125.605 235.997 125.162 236.793C124.724 237.588 124.108 238.196 123.312 238.616C122.517 239.031 121.585 239.239 120.517 239.239C119.534 239.239 118.651 239.06 117.866 238.702C117.088 238.344 116.472 237.824 116.017 237.142C115.568 236.455 115.344 235.619 115.344 234.636H117.96C117.96 235.119 118.071 235.537 118.293 235.889C118.52 236.241 118.83 236.517 119.222 236.716C119.619 236.909 120.074 237.006 120.585 237.006C121.142 237.006 121.614 236.889 122 236.656C122.392 236.418 122.69 236.068 122.895 235.608C123.099 235.148 123.202 234.585 123.202 233.92V221.545ZM134.969 239.264C133.742 239.264 132.671 238.983 131.756 238.42C130.842 237.858 130.131 237.071 129.626 236.06C129.12 235.048 128.867 233.866 128.867 232.514C128.867 231.156 129.12 229.969 129.626 228.952C130.131 227.935 130.842 227.145 131.756 226.582C132.671 226.02 133.742 225.739 134.969 225.739C136.197 225.739 137.268 226.02 138.183 226.582C139.097 227.145 139.808 227.935 140.313 228.952C140.819 229.969 141.072 231.156 141.072 232.514C141.072 233.866 140.819 235.048 140.313 236.06C139.808 237.071 139.097 237.858 138.183 238.42C137.268 238.983 136.197 239.264 134.969 239.264ZM134.978 237.125C135.773 237.125 136.433 236.915 136.955 236.494C137.478 236.074 137.864 235.514 138.114 234.815C138.37 234.116 138.498 233.347 138.498 232.506C138.498 231.67 138.37 230.903 138.114 230.205C137.864 229.5 137.478 228.935 136.955 228.509C136.433 228.082 135.773 227.869 134.978 227.869C134.177 227.869 133.512 228.082 132.984 228.509C132.461 228.935 132.072 229.5 131.816 230.205C131.566 230.903 131.441 231.67 131.441 232.506C131.441 233.347 131.566 234.116 131.816 234.815C132.072 235.514 132.461 236.074 132.984 236.494C133.512 236.915 134.177 237.125 134.978 237.125ZM152.209 233.571V225.909H154.766V239H152.26V236.733H152.124C151.822 237.432 151.339 238.014 150.675 238.48C150.016 238.94 149.195 239.17 148.212 239.17C147.371 239.17 146.626 238.986 145.979 238.616C145.337 238.241 144.831 237.688 144.462 236.955C144.098 236.222 143.916 235.315 143.916 234.236V225.909H146.464V233.929C146.464 234.821 146.712 235.531 147.206 236.06C147.7 236.588 148.342 236.852 149.132 236.852C149.609 236.852 150.084 236.733 150.555 236.494C151.033 236.256 151.428 235.895 151.74 235.412C152.058 234.929 152.214 234.315 152.209 233.571ZM158.19 239V225.909H160.653V227.989H160.789C161.028 227.284 161.448 226.73 162.05 226.327C162.658 225.918 163.346 225.713 164.113 225.713C164.272 225.713 164.46 225.719 164.675 225.73C164.897 225.741 165.07 225.756 165.195 225.773V228.21C165.093 228.182 164.911 228.151 164.65 228.116C164.388 228.077 164.127 228.057 163.866 228.057C163.263 228.057 162.727 228.185 162.255 228.44C161.789 228.69 161.42 229.04 161.147 229.489C160.874 229.932 160.738 230.437 160.738 231.006V239H158.19ZM169.949 231.227V239H167.401V225.909H169.847V228.04H170.009C170.31 227.347 170.781 226.79 171.423 226.369C172.071 225.949 172.886 225.739 173.869 225.739C174.761 225.739 175.543 225.926 176.213 226.301C176.884 226.67 177.403 227.222 177.773 227.955C178.142 228.687 178.327 229.594 178.327 230.673V239H175.778V230.98C175.778 230.031 175.531 229.29 175.037 228.756C174.543 228.216 173.864 227.946 173 227.946C172.409 227.946 171.884 228.074 171.423 228.33C170.969 228.585 170.608 228.96 170.341 229.455C170.08 229.943 169.949 230.534 169.949 231.227ZM185.554 239.29C184.724 239.29 183.974 239.136 183.304 238.83C182.634 238.517 182.102 238.065 181.71 237.474C181.324 236.884 181.131 236.159 181.131 235.301C181.131 234.562 181.273 233.955 181.557 233.477C181.841 233 182.224 232.622 182.707 232.344C183.19 232.065 183.73 231.855 184.327 231.713C184.923 231.571 185.531 231.463 186.151 231.389C186.935 231.298 187.571 231.224 188.06 231.168C188.548 231.105 188.903 231.006 189.125 230.869C189.347 230.733 189.457 230.511 189.457 230.205V230.145C189.457 229.401 189.247 228.824 188.827 228.415C188.412 228.006 187.793 227.801 186.969 227.801C186.111 227.801 185.435 227.991 184.94 228.372C184.452 228.747 184.114 229.165 183.926 229.625L181.531 229.08C181.815 228.284 182.23 227.642 182.776 227.153C183.327 226.659 183.96 226.301 184.676 226.08C185.392 225.852 186.145 225.739 186.935 225.739C187.457 225.739 188.011 225.801 188.597 225.926C189.188 226.045 189.739 226.267 190.25 226.591C190.767 226.915 191.19 227.378 191.52 227.98C191.849 228.577 192.014 229.352 192.014 230.307V239H189.526V237.21H189.423C189.259 237.54 189.011 237.864 188.682 238.182C188.352 238.5 187.929 238.764 187.412 238.974C186.895 239.185 186.276 239.29 185.554 239.29ZM186.108 237.244C186.813 237.244 187.415 237.105 187.915 236.827C188.42 236.548 188.804 236.185 189.065 235.736C189.332 235.281 189.466 234.795 189.466 234.278V232.591C189.375 232.682 189.199 232.767 188.938 232.847C188.682 232.92 188.389 232.986 188.06 233.043C187.73 233.094 187.409 233.142 187.097 233.188C186.784 233.227 186.523 233.261 186.312 233.29C185.818 233.352 185.366 233.457 184.957 233.605C184.554 233.753 184.23 233.966 183.986 234.244C183.747 234.517 183.628 234.881 183.628 235.335C183.628 235.966 183.861 236.443 184.327 236.767C184.793 237.085 185.386 237.244 186.108 237.244ZM197.957 221.545V239H195.408V221.545H197.957ZM207.941 239V221.545H218.884V223.812H210.575V229.131H218.313V231.389H210.575V236.733H218.987V239H207.941ZM224.746 231.227V239H222.197V225.909H224.643V228.04H224.805C225.107 227.347 225.578 226.79 226.22 226.369C226.868 225.949 227.683 225.739 228.666 225.739C229.558 225.739 230.339 225.926 231.01 226.301C231.68 226.67 232.2 227.222 232.57 227.955C232.939 228.687 233.124 229.594 233.124 230.673V239H230.575V230.98C230.575 230.031 230.328 229.29 229.834 228.756C229.339 228.216 228.661 227.946 227.797 227.946C227.206 227.946 226.68 228.074 226.22 228.33C225.766 228.585 225.405 228.96 225.138 229.455C224.876 229.943 224.746 230.534 224.746 231.227ZM242.652 225.909V227.955H235.501V225.909H242.652ZM237.419 222.773H239.967V235.156C239.967 235.651 240.041 236.023 240.189 236.273C240.337 236.517 240.527 236.685 240.76 236.776C240.999 236.861 241.257 236.903 241.536 236.903C241.74 236.903 241.919 236.889 242.072 236.861C242.226 236.832 242.345 236.81 242.43 236.793L242.891 238.898C242.743 238.955 242.533 239.011 242.26 239.068C241.987 239.131 241.646 239.165 241.237 239.17C240.567 239.182 239.942 239.062 239.362 238.812C238.783 238.562 238.314 238.176 237.956 237.653C237.598 237.131 237.419 236.474 237.419 235.685V222.773ZM245.471 239V225.909H247.934V227.989H248.07C248.309 227.284 248.729 226.73 249.332 226.327C249.94 225.918 250.627 225.713 251.394 225.713C251.553 225.713 251.741 225.719 251.957 225.73C252.178 225.741 252.352 225.756 252.477 225.773V228.21C252.374 228.182 252.192 228.151 251.931 228.116C251.67 228.077 251.408 228.057 251.147 228.057C250.545 228.057 250.008 228.185 249.536 228.44C249.07 228.69 248.701 229.04 248.428 229.489C248.156 229.932 248.019 230.437 248.019 231.006V239H245.471ZM254.682 239V225.909H257.23V239H254.682ZM255.969 223.889C255.526 223.889 255.145 223.741 254.827 223.446C254.514 223.145 254.358 222.787 254.358 222.372C254.358 221.952 254.514 221.594 254.827 221.298C255.145 220.997 255.526 220.847 255.969 220.847C256.412 220.847 256.79 220.997 257.102 221.298C257.42 221.594 257.58 221.952 257.58 222.372C257.58 222.787 257.42 223.145 257.102 223.446C256.79 223.741 256.412 223.889 255.969 223.889ZM266.3 239.264C265.011 239.264 263.9 238.989 262.968 238.438C262.042 237.881 261.326 237.099 260.82 236.094C260.32 235.082 260.07 233.898 260.07 232.54C260.07 231.199 260.32 230.017 260.82 228.994C261.326 227.972 262.031 227.173 262.934 226.599C263.843 226.026 264.906 225.739 266.121 225.739C266.86 225.739 267.576 225.861 268.269 226.105C268.962 226.349 269.585 226.733 270.136 227.256C270.687 227.778 271.121 228.457 271.44 229.293C271.758 230.122 271.917 231.131 271.917 232.318V233.222H261.511V231.312H269.42C269.42 230.642 269.283 230.048 269.011 229.531C268.738 229.009 268.354 228.597 267.86 228.295C267.371 227.994 266.798 227.844 266.138 227.844C265.423 227.844 264.798 228.02 264.263 228.372C263.735 228.719 263.326 229.173 263.036 229.736C262.752 230.293 262.61 230.898 262.61 231.551V233.043C262.61 233.918 262.763 234.662 263.07 235.276C263.383 235.889 263.817 236.358 264.374 236.682C264.931 237 265.582 237.159 266.326 237.159C266.809 237.159 267.249 237.091 267.647 236.955C268.045 236.812 268.388 236.602 268.678 236.324C268.968 236.045 269.19 235.702 269.343 235.293L271.755 235.727C271.562 236.437 271.215 237.06 270.715 237.594C270.221 238.122 269.599 238.534 268.849 238.83C268.104 239.119 267.255 239.264 266.3 239.264ZM284.554 229.105L282.244 229.514C282.148 229.219 281.994 228.937 281.784 228.67C281.58 228.403 281.301 228.185 280.949 228.014C280.597 227.844 280.156 227.759 279.628 227.759C278.906 227.759 278.304 227.92 277.821 228.244C277.338 228.562 277.097 228.974 277.097 229.48C277.097 229.918 277.259 230.27 277.582 230.537C277.906 230.804 278.429 231.023 279.151 231.193L281.23 231.67C282.435 231.949 283.332 232.378 283.923 232.957C284.514 233.537 284.81 234.29 284.81 235.216C284.81 236 284.582 236.699 284.128 237.312C283.679 237.92 283.051 238.398 282.244 238.744C281.443 239.091 280.514 239.264 279.457 239.264C277.991 239.264 276.795 238.952 275.869 238.327C274.943 237.696 274.375 236.801 274.165 235.642L276.628 235.267C276.781 235.909 277.097 236.395 277.574 236.724C278.051 237.048 278.673 237.21 279.44 237.21C280.276 237.21 280.943 237.037 281.443 236.69C281.943 236.338 282.193 235.909 282.193 235.403C282.193 234.994 282.04 234.651 281.733 234.372C281.432 234.094 280.969 233.884 280.344 233.741L278.128 233.256C276.906 232.977 276.003 232.534 275.418 231.926C274.838 231.318 274.548 230.548 274.548 229.616C274.548 228.844 274.764 228.168 275.196 227.588C275.628 227.009 276.224 226.557 276.986 226.233C277.747 225.903 278.619 225.739 279.602 225.739C281.017 225.739 282.131 226.045 282.943 226.659C283.756 227.267 284.293 228.082 284.554 229.105Z" fill="#0D4680"/>
</g>
<defs>
<filter id="filter0_d_140_740" x="0.5" y="293" width="84" height="84" filterUnits="userSpaceOnUse" color-interpolation-filters="sRGB">
<feFlood flood-opacity="0" result="BackgroundImageFix"/>
<feColorMatrix in="SourceAlpha" type="matrix" values="0 0 0 0 0 0 0 0 0 0 0 0 0 0 0 0 0 0 127 0" result="hardAlpha"/>
<feOffset dx="4" dy="4"/>
<feComposite in2="hardAlpha" operator="out"/>
<feColorMatrix type="matrix" values="0 0 0 0 0.690435 0 0 0 0 0.909565 0 0 0 0 0.713043 0 0 0 1 0"/>
<feBlend mode="normal" in2="BackgroundImageFix" result="effect1_dropShadow_140_740"/>
<feBlend mode="normal" in="SourceGraphic" in2="effect1_dropShadow_140_740" result="shape"/>
</filter>
<filter id="filter1_d_140_740" x="104.5" y="293" width="300" height="84" filterUnits="userSpaceOnUse" color-interpolation-filters="sRGB">
<feFlood flood-opacity="0" result="BackgroundImageFix"/>
<feColorMatrix in="SourceAlpha" type="matrix" values="0 0 0 0 0 0 0 0 0 0 0 0 0 0 0 0 0 0 127 0" result="hardAlpha"/>
<feOffset dx="4" dy="4"/>
<feComposite in2="hardAlpha" operator="out"/>
<feColorMatrix type="matrix" values="0 0 0 0 0.690435 0 0 0 0 0.909565 0 0 0 0 0.713043 0 0 0 1 0"/>
<feBlend mode="normal" in2="BackgroundImageFix" result="effect1_dropShadow_140_740"/>
<feBlend mode="normal" in="SourceGraphic" in2="effect1_dropShadow_140_740" result="shape"/>
</filter>
<filter id="filter2_d_140_740" x="0.5" y="0" width="300" height="84" filterUnits="userSpaceOnUse" color-interpolation-filters="sRGB">
<feFlood flood-opacity="0" result="BackgroundImageFix"/>
<feColorMatrix in="SourceAlpha" type="matrix" values="0 0 0 0 0 0 0 0 0 0 0 0 0 0 0 0 0 0 127 0" result="hardAlpha"/>
<feOffset dx="4" dy="4"/>
<feComposite in2="hardAlpha" operator="out"/>
<feColorMatrix type="matrix" values="0 0 0 0 0.933061 0 0 0 0 0.733878 0 0 0 0 0.666939 0 0 0 1 0"/>
<feBlend mode="normal" in2="BackgroundImageFix" result="effect1_dropShadow_140_740"/>
<feBlend mode="normal" in="SourceGraphic" in2="effect1_dropShadow_140_740" result="shape"/>
</filter>
<filter id="filter3_d_140_740" x="320.5" y="0" width="84" height="84" filterUnits="userSpaceOnUse" color-interpolation-filters="sRGB">
<feFlood flood-opacity="0" result="BackgroundImageFix"/>
<feColorMatrix in="SourceAlpha" type="matrix" values="0 0 0 0 0 0 0 0 0 0 0 0 0 0 0 0 0 0 127 0" result="hardAlpha"/>
<feOffset dx="4" dy="4"/>
<feComposite in2="hardAlpha" operator="out"/>
<feColorMatrix type="matrix" values="0 0 0 0 0.933061 0 0 0 0 0.733878 0 0 0 0 0.666939 0 0 0 1 0"/>
<feBlend mode="normal" in2="BackgroundImageFix" result="effect1_dropShadow_140_740"/>
<feBlend mode="normal" in="SourceGraphic" in2="effect1_dropShadow_140_740" result="shape"/>
</filter>
<filter id="filter4_d_140_740" x="0.5" y="104" width="404" height="169" filterUnits="userSpaceOnUse" color-interpolation-filters="sRGB">
<feFlood flood-opacity="0" result="BackgroundImageFix"/>
<feColorMatrix in="SourceAlpha" type="matrix" values="0 0 0 0 0 0 0 0 0 0 0 0 0 0 0 0 0 0 127 0" result="hardAlpha"/>
<feOffset dx="4" dy="4"/>
<feComposite in2="hardAlpha" operator="out"/>
<feColorMatrix type="matrix" values="0 0 0 0 0.6 0 0 0 0 0.827451 0 0 0 0 1 0 0 0 1 0"/>
<feBlend mode="normal" in2="BackgroundImageFix" result="effect1_dropShadow_140_740"/>
<feBlend mode="normal" in="SourceGraphic" in2="effect1_dropShadow_140_740" result="shape"/>
</filter>
</defs>
</svg>
