<svg width="437" height="388" viewBox="0 0 437 388" fill="none" xmlns="http://www.w3.org/2000/svg">
<g filter="url(#filter0_d_140_846)">
<rect x="0.5" y="29" width="220" height="133" rx="16" fill="white" shape-rendering="crispEdges"/>
<rect x="1" y="29.5" width="219" height="132" rx="15.5" stroke="#212528" shape-rendering="crispEdges"/>
<path d="M118.01 81.5098H116.43L115.87 80.9698C117.83 78.6898 119.01 75.7298 119.01 72.5098C119.01 65.3298 113.19 59.5098 106.01 59.5098C98.83 59.5098 93.01 65.3298 93.01 72.5098C93.01 79.6898 98.83 85.5098 106.01 85.5098C109.23 85.5098 112.19 84.3298 114.47 82.3698L115.01 82.9298V84.5098L125.01 94.4898L127.99 91.5098L118.01 81.5098ZM106.01 81.5098C101.03 81.5098 97.01 77.4898 97.01 72.5098C97.01 67.5298 101.03 63.5098 106.01 63.5098C110.99 63.5098 115.01 67.5298 115.01 72.5098C115.01 77.4898 110.99 81.5098 106.01 81.5098Z" fill="#0080FF"/>
<path d="M68.027 114.545H71.223L76.7798 128.114H76.9844L82.5412 114.545H85.7372V132H83.2315V119.369H83.0696L77.9219 131.974H75.8423L70.6946 119.361H70.5327V132H68.027V114.545ZM94.8757 132.264C93.6484 132.264 92.5774 131.983 91.6626 131.42C90.7479 130.858 90.0376 130.071 89.532 129.06C89.0263 128.048 88.7734 126.866 88.7734 125.514C88.7734 124.156 89.0263 122.969 89.532 121.952C90.0376 120.935 90.7479 120.145 91.6626 119.582C92.5774 119.02 93.6484 118.739 94.8757 118.739C96.103 118.739 97.174 119.02 98.0888 119.582C99.0036 120.145 99.7138 120.935 100.219 121.952C100.725 122.969 100.978 124.156 100.978 125.514C100.978 126.866 100.725 128.048 100.219 129.06C99.7138 130.071 99.0036 130.858 98.0888 131.42C97.174 131.983 96.103 132.264 94.8757 132.264ZM94.8842 130.125C95.6797 130.125 96.3388 129.915 96.8615 129.494C97.3842 129.074 97.7706 128.514 98.0206 127.815C98.2763 127.116 98.4041 126.347 98.4041 125.506C98.4041 124.67 98.2763 123.903 98.0206 123.205C97.7706 122.5 97.3842 121.935 96.8615 121.509C96.3388 121.082 95.6797 120.869 94.8842 120.869C94.0831 120.869 93.4183 121.082 92.8899 121.509C92.3672 121.935 91.978 122.5 91.7223 123.205C91.4723 123.903 91.3473 124.67 91.3473 125.506C91.3473 126.347 91.4723 127.116 91.7223 127.815C91.978 128.514 92.3672 129.074 92.8899 129.494C93.4183 129.915 94.0831 130.125 94.8842 130.125ZM106.371 124.227V132H103.822V118.909H106.268V121.04H106.43C106.732 120.347 107.203 119.79 107.845 119.369C108.493 118.949 109.308 118.739 110.291 118.739C111.183 118.739 111.964 118.926 112.635 119.301C113.305 119.67 113.825 120.222 114.195 120.955C114.564 121.687 114.749 122.594 114.749 123.673V132H112.2V123.98C112.2 123.031 111.953 122.29 111.459 121.756C110.964 121.216 110.286 120.946 109.422 120.946C108.831 120.946 108.305 121.074 107.845 121.33C107.391 121.585 107.03 121.96 106.763 122.455C106.501 122.943 106.371 123.534 106.371 124.227ZM118.166 132V118.909H120.714V132H118.166ZM119.453 116.889C119.01 116.889 118.629 116.741 118.311 116.446C117.999 116.145 117.842 115.787 117.842 115.372C117.842 114.952 117.999 114.594 118.311 114.298C118.629 113.997 119.01 113.847 119.453 113.847C119.896 113.847 120.274 113.997 120.587 114.298C120.905 114.594 121.064 114.952 121.064 115.372C121.064 115.787 120.905 116.145 120.587 116.446C120.274 116.741 119.896 116.889 119.453 116.889ZM130.254 118.909V120.955H123.103V118.909H130.254ZM125.021 115.773H127.569V128.156C127.569 128.651 127.643 129.023 127.79 129.273C127.938 129.517 128.129 129.685 128.362 129.776C128.6 129.861 128.859 129.903 129.137 129.903C129.342 129.903 129.521 129.889 129.674 129.861C129.827 129.832 129.947 129.81 130.032 129.793L130.492 131.898C130.344 131.955 130.134 132.011 129.862 132.068C129.589 132.131 129.248 132.165 128.839 132.17C128.168 132.182 127.543 132.062 126.964 131.812C126.384 131.562 125.915 131.176 125.558 130.653C125.2 130.131 125.021 129.474 125.021 128.685V115.773ZM138.446 132.264C137.219 132.264 136.148 131.983 135.233 131.42C134.318 130.858 133.608 130.071 133.102 129.06C132.597 128.048 132.344 126.866 132.344 125.514C132.344 124.156 132.597 122.969 133.102 121.952C133.608 120.935 134.318 120.145 135.233 119.582C136.148 119.02 137.219 118.739 138.446 118.739C139.673 118.739 140.744 119.02 141.659 119.582C142.574 120.145 143.284 120.935 143.79 121.952C144.295 122.969 144.548 124.156 144.548 125.514C144.548 126.866 144.295 128.048 143.79 129.06C143.284 130.071 142.574 130.858 141.659 131.42C140.744 131.983 139.673 132.264 138.446 132.264ZM138.455 130.125C139.25 130.125 139.909 129.915 140.432 129.494C140.955 129.074 141.341 128.514 141.591 127.815C141.847 127.116 141.974 126.347 141.974 125.506C141.974 124.67 141.847 123.903 141.591 123.205C141.341 122.5 140.955 121.935 140.432 121.509C139.909 121.082 139.25 120.869 138.455 120.869C137.653 120.869 136.989 121.082 136.46 121.509C135.938 121.935 135.548 122.5 135.293 123.205C135.043 123.903 134.918 124.67 134.918 125.506C134.918 126.347 135.043 127.116 135.293 127.815C135.548 128.514 135.938 129.074 136.46 129.494C136.989 129.915 137.653 130.125 138.455 130.125ZM147.393 132V118.909H149.856V120.989H149.992C150.231 120.284 150.651 119.73 151.254 119.327C151.862 118.918 152.549 118.713 153.316 118.713C153.475 118.713 153.663 118.719 153.879 118.73C154.1 118.741 154.273 118.756 154.398 118.773V121.21C154.296 121.182 154.114 121.151 153.853 121.116C153.592 121.077 153.33 121.057 153.069 121.057C152.467 121.057 151.93 121.185 151.458 121.44C150.992 121.69 150.623 122.04 150.35 122.489C150.077 122.932 149.941 123.437 149.941 124.006V132H147.393Z" fill="#212528"/>
</g>
<g filter="url(#filter1_d_140_846)">
<rect x="32.5" y="186" width="188" height="162" rx="16" fill="white" shape-rendering="crispEdges"/>
<rect x="33" y="186.5" width="187" height="161" rx="15.5" stroke="#212528" shape-rendering="crispEdges"/>
<path d="M116.5 216H110.5V222H106.5V212H116.5V216ZM146.5 222V212H136.5V216H142.5V222H146.5ZM116.5 252H110.5V246H106.5V256H116.5V252ZM142.5 246V252H136.5V256H146.5V246H142.5ZM136.5 222H116.5V246H136.5V222ZM140.5 246C140.5 248.2 138.7 250 136.5 250H116.5C114.3 250 112.5 248.2 112.5 246V222C112.5 219.8 114.3 218 116.5 218H136.5C138.7 218 140.5 219.8 140.5 222V246ZM132.5 226H120.5V230H132.5V226ZM132.5 232H120.5V236H132.5V232ZM132.5 238H120.5V242H132.5V238Z" fill="#F2800D"/>
<path d="M95.6541 289H90.0036V271.545H95.8331C97.5433 271.545 99.0121 271.895 100.239 272.594C101.467 273.287 102.407 274.284 103.06 275.585C103.719 276.881 104.049 278.435 104.049 280.247C104.049 282.065 103.717 283.628 103.052 284.935C102.393 286.241 101.438 287.247 100.188 287.952C98.9382 288.651 97.4268 289 95.6541 289ZM92.6371 286.699H95.5092C96.8388 286.699 97.9439 286.449 98.8246 285.949C99.7053 285.443 100.364 284.713 100.802 283.759C101.239 282.798 101.458 281.628 101.458 280.247C101.458 278.878 101.239 277.716 100.802 276.761C100.37 275.807 99.7251 275.082 98.8672 274.588C98.0092 274.094 96.9439 273.847 95.6712 273.847H92.6371V286.699ZM112.761 289.264C111.472 289.264 110.361 288.989 109.429 288.438C108.503 287.881 107.787 287.099 107.281 286.094C106.781 285.082 106.531 283.898 106.531 282.54C106.531 281.199 106.781 280.017 107.281 278.994C107.787 277.972 108.491 277.173 109.395 276.599C110.304 276.026 111.366 275.739 112.582 275.739C113.321 275.739 114.037 275.861 114.73 276.105C115.423 276.349 116.045 276.733 116.597 277.256C117.148 277.778 117.582 278.457 117.901 279.293C118.219 280.122 118.378 281.131 118.378 282.318V283.222H107.972V281.312H115.881C115.881 280.642 115.744 280.048 115.472 279.531C115.199 279.009 114.815 278.597 114.321 278.295C113.832 277.994 113.259 277.844 112.599 277.844C111.884 277.844 111.259 278.02 110.724 278.372C110.196 278.719 109.787 279.173 109.497 279.736C109.213 280.293 109.071 280.898 109.071 281.551V283.043C109.071 283.918 109.224 284.662 109.531 285.276C109.844 285.889 110.278 286.358 110.835 286.682C111.392 287 112.043 287.159 112.787 287.159C113.27 287.159 113.71 287.091 114.108 286.955C114.506 286.812 114.849 286.602 115.139 286.324C115.429 286.045 115.651 285.702 115.804 285.293L118.216 285.727C118.023 286.437 117.676 287.06 117.176 287.594C116.682 288.122 116.06 288.534 115.31 288.83C114.565 289.119 113.716 289.264 112.761 289.264ZM127.316 275.909V277.955H120.165V275.909H127.316ZM122.083 272.773H124.631V285.156C124.631 285.651 124.705 286.023 124.853 286.273C125.001 286.517 125.191 286.685 125.424 286.776C125.663 286.861 125.921 286.903 126.2 286.903C126.404 286.903 126.583 286.889 126.737 286.861C126.89 286.832 127.009 286.81 127.094 286.793L127.555 288.898C127.407 288.955 127.197 289.011 126.924 289.068C126.651 289.131 126.31 289.165 125.901 289.17C125.231 289.182 124.606 289.062 124.026 288.812C123.447 288.562 122.978 288.176 122.62 287.653C122.262 287.131 122.083 286.474 122.083 285.685V272.773ZM135.636 289.264C134.347 289.264 133.236 288.989 132.304 288.438C131.378 287.881 130.662 287.099 130.156 286.094C129.656 285.082 129.406 283.898 129.406 282.54C129.406 281.199 129.656 280.017 130.156 278.994C130.662 277.972 131.366 277.173 132.27 276.599C133.179 276.026 134.241 275.739 135.457 275.739C136.196 275.739 136.912 275.861 137.605 276.105C138.298 276.349 138.92 276.733 139.472 277.256C140.023 277.778 140.457 278.457 140.776 279.293C141.094 280.122 141.253 281.131 141.253 282.318V283.222H130.847V281.312H138.756C138.756 280.642 138.619 280.048 138.347 279.531C138.074 279.009 137.69 278.597 137.196 278.295C136.707 277.994 136.134 277.844 135.474 277.844C134.759 277.844 134.134 278.02 133.599 278.372C133.071 278.719 132.662 279.173 132.372 279.736C132.088 280.293 131.946 280.898 131.946 281.551V283.043C131.946 283.918 132.099 284.662 132.406 285.276C132.719 285.889 133.153 286.358 133.71 286.682C134.267 287 134.918 287.159 135.662 287.159C136.145 287.159 136.585 287.091 136.983 286.955C137.381 286.812 137.724 286.602 138.014 286.324C138.304 286.045 138.526 285.702 138.679 285.293L141.091 285.727C140.898 286.437 140.551 287.06 140.051 287.594C139.557 288.122 138.935 288.534 138.185 288.83C137.44 289.119 136.591 289.264 135.636 289.264ZM149.594 289.264C148.327 289.264 147.237 288.977 146.322 288.403C145.413 287.824 144.714 287.026 144.225 286.009C143.737 284.991 143.492 283.827 143.492 282.514C143.492 281.185 143.742 280.011 144.242 278.994C144.742 277.972 145.447 277.173 146.356 276.599C147.265 276.026 148.336 275.739 149.569 275.739C150.563 275.739 151.45 275.923 152.228 276.293C153.006 276.656 153.634 277.168 154.112 277.827C154.594 278.486 154.881 279.256 154.972 280.136H152.492C152.356 279.523 152.043 278.994 151.555 278.551C151.072 278.108 150.424 277.886 149.612 277.886C148.901 277.886 148.279 278.074 147.745 278.449C147.217 278.818 146.805 279.347 146.509 280.034C146.214 280.716 146.066 281.523 146.066 282.455C146.066 283.409 146.211 284.233 146.501 284.926C146.79 285.619 147.2 286.156 147.728 286.537C148.262 286.918 148.89 287.108 149.612 287.108C150.094 287.108 150.532 287.02 150.924 286.844C151.322 286.662 151.654 286.403 151.921 286.068C152.194 285.733 152.384 285.33 152.492 284.858H154.972C154.881 285.705 154.606 286.46 154.146 287.125C153.685 287.79 153.069 288.312 152.296 288.693C151.529 289.074 150.629 289.264 149.594 289.264ZM163.808 275.909V277.955H156.658V275.909H163.808ZM158.575 272.773H161.124V285.156C161.124 285.651 161.197 286.023 161.345 286.273C161.493 286.517 161.683 286.685 161.916 286.776C162.155 286.861 162.413 286.903 162.692 286.903C162.896 286.903 163.075 286.889 163.229 286.861C163.382 286.832 163.501 286.81 163.587 286.793L164.047 288.898C163.899 288.955 163.689 289.011 163.416 289.068C163.143 289.131 162.803 289.165 162.393 289.17C161.723 289.182 161.098 289.062 160.518 288.812C159.939 288.562 159.47 288.176 159.112 287.653C158.754 287.131 158.575 286.474 158.575 285.685V272.773ZM95.4411 318V300.545H106.265V302.812H98.0746V308.131H105.489V310.389H98.0746V318H95.4411ZM109.135 318V304.909H111.598V306.989H111.734C111.973 306.284 112.393 305.73 112.996 305.327C113.604 304.918 114.291 304.713 115.058 304.713C115.217 304.713 115.405 304.719 115.621 304.73C115.842 304.741 116.016 304.756 116.141 304.773V307.21C116.038 307.182 115.857 307.151 115.595 307.116C115.334 307.077 115.072 307.057 114.811 307.057C114.209 307.057 113.672 307.185 113.2 307.44C112.734 307.69 112.365 308.04 112.092 308.489C111.82 308.932 111.683 309.437 111.683 310.006V318H109.135ZM122.038 318.29C121.209 318.29 120.459 318.136 119.788 317.83C119.118 317.517 118.587 317.065 118.195 316.474C117.808 315.884 117.615 315.159 117.615 314.301C117.615 313.562 117.757 312.955 118.041 312.477C118.325 312 118.709 311.622 119.192 311.344C119.675 311.065 120.214 310.855 120.811 310.713C121.408 310.571 122.016 310.463 122.635 310.389C123.419 310.298 124.055 310.224 124.544 310.168C125.033 310.105 125.388 310.006 125.609 309.869C125.831 309.733 125.942 309.511 125.942 309.205V309.145C125.942 308.401 125.732 307.824 125.311 307.415C124.896 307.006 124.277 306.801 123.453 306.801C122.595 306.801 121.919 306.991 121.425 307.372C120.936 307.747 120.598 308.165 120.411 308.625L118.016 308.08C118.3 307.284 118.714 306.642 119.26 306.153C119.811 305.659 120.445 305.301 121.161 305.08C121.876 304.852 122.629 304.739 123.419 304.739C123.942 304.739 124.496 304.801 125.081 304.926C125.672 305.045 126.223 305.267 126.734 305.591C127.251 305.915 127.675 306.378 128.004 306.98C128.334 307.577 128.499 308.352 128.499 309.307V318H126.01V316.21H125.908C125.743 316.54 125.496 316.864 125.166 317.182C124.837 317.5 124.413 317.764 123.896 317.974C123.379 318.185 122.76 318.29 122.038 318.29ZM122.592 316.244C123.297 316.244 123.899 316.105 124.399 315.827C124.905 315.548 125.288 315.185 125.55 314.736C125.817 314.281 125.95 313.795 125.95 313.278V311.591C125.859 311.682 125.683 311.767 125.422 311.847C125.166 311.92 124.874 311.986 124.544 312.043C124.214 312.094 123.893 312.142 123.581 312.188C123.268 312.227 123.007 312.261 122.797 312.29C122.303 312.352 121.851 312.457 121.442 312.605C121.038 312.753 120.714 312.966 120.47 313.244C120.232 313.517 120.112 313.881 120.112 314.335C120.112 314.966 120.345 315.443 120.811 315.767C121.277 316.085 121.871 316.244 122.592 316.244ZM140.185 312.571V304.909H142.742V318H140.237V315.733H140.1C139.799 316.432 139.316 317.014 138.651 317.48C137.992 317.94 137.171 318.17 136.188 318.17C135.347 318.17 134.603 317.986 133.955 317.616C133.313 317.241 132.808 316.688 132.438 315.955C132.075 315.222 131.893 314.315 131.893 313.236V304.909H134.441V312.929C134.441 313.821 134.688 314.531 135.183 315.06C135.677 315.588 136.319 315.852 137.109 315.852C137.586 315.852 138.06 315.733 138.532 315.494C139.009 315.256 139.404 314.895 139.717 314.412C140.035 313.929 140.191 313.315 140.185 312.571ZM151.067 318.256C150.01 318.256 149.067 317.986 148.237 317.446C147.413 316.901 146.766 316.125 146.294 315.119C145.828 314.108 145.595 312.895 145.595 311.48C145.595 310.065 145.831 308.855 146.303 307.849C146.78 306.844 147.433 306.074 148.263 305.54C149.092 305.006 150.033 304.739 151.084 304.739C151.896 304.739 152.55 304.875 153.044 305.148C153.544 305.415 153.93 305.727 154.203 306.085C154.482 306.443 154.697 306.759 154.851 307.031H155.004V300.545H157.553V318H155.064V315.963H154.851C154.697 316.241 154.476 316.56 154.186 316.918C153.902 317.276 153.51 317.588 153.01 317.855C152.51 318.122 151.862 318.256 151.067 318.256ZM151.629 316.082C152.362 316.082 152.982 315.889 153.487 315.503C153.999 315.111 154.385 314.568 154.646 313.875C154.913 313.182 155.047 312.375 155.047 311.455C155.047 310.545 154.916 309.75 154.655 309.068C154.393 308.386 154.01 307.855 153.504 307.474C152.999 307.094 152.374 306.903 151.629 306.903C150.862 306.903 150.223 307.102 149.712 307.5C149.2 307.898 148.814 308.44 148.553 309.128C148.297 309.815 148.169 310.591 148.169 311.455C148.169 312.33 148.3 313.116 148.561 313.815C148.822 314.514 149.209 315.068 149.72 315.477C150.237 315.881 150.874 316.082 151.629 316.082Z" fill="#212528"/>
</g>
<g filter="url(#filter2_d_140_846)">
<rect x="244.5" width="188" height="162" rx="16" fill="white" shape-rendering="crispEdges"/>
<rect x="245" y="0.5" width="187" height="161" rx="15.5" stroke="#212528" shape-rendering="crispEdges"/>
<path d="M318.5 78.48L333.5 63.46L341.5 71.46L355.68 55.52L358.5 58.34L341.5 77.46L333.5 69.46L321.5 81.48L318.5 78.48ZM321.5 69.48L333.5 57.46L341.5 65.46L358.5 46.34L355.68 43.52L341.5 59.46L333.5 51.46L318.5 66.48L321.5 69.48Z" fill="#F2800D"/>
<path d="M307.553 102.312V100.045H321.061V102.312H315.615V117.5H312.99V102.312H307.553ZM322.483 117.5V104.409H324.946V106.489H325.082C325.321 105.784 325.741 105.23 326.343 104.827C326.951 104.418 327.639 104.213 328.406 104.213C328.565 104.213 328.752 104.219 328.968 104.23C329.19 104.241 329.363 104.256 329.488 104.273V106.71C329.386 106.682 329.204 106.651 328.943 106.616C328.681 106.577 328.42 106.557 328.159 106.557C327.556 106.557 327.02 106.685 326.548 106.94C326.082 107.19 325.713 107.54 325.44 107.989C325.167 108.432 325.031 108.937 325.031 109.506V117.5H322.483ZM335.386 117.79C334.556 117.79 333.806 117.636 333.136 117.33C332.466 117.017 331.934 116.565 331.542 115.974C331.156 115.384 330.963 114.659 330.963 113.801C330.963 113.062 331.105 112.455 331.389 111.977C331.673 111.5 332.056 111.122 332.539 110.844C333.022 110.565 333.562 110.355 334.159 110.213C334.755 110.071 335.363 109.963 335.983 109.889C336.767 109.798 337.403 109.724 337.892 109.668C338.38 109.605 338.735 109.506 338.957 109.369C339.179 109.233 339.289 109.011 339.289 108.705V108.645C339.289 107.901 339.079 107.324 338.659 106.915C338.244 106.506 337.625 106.301 336.801 106.301C335.943 106.301 335.267 106.491 334.772 106.872C334.284 107.247 333.946 107.665 333.758 108.125L331.363 107.58C331.647 106.784 332.062 106.142 332.608 105.653C333.159 105.159 333.792 104.801 334.508 104.58C335.224 104.352 335.977 104.239 336.767 104.239C337.289 104.239 337.843 104.301 338.429 104.426C339.02 104.545 339.571 104.767 340.082 105.091C340.599 105.415 341.022 105.878 341.352 106.48C341.681 107.077 341.846 107.852 341.846 108.807V117.5H339.358V115.71H339.255C339.091 116.04 338.843 116.364 338.514 116.682C338.184 117 337.761 117.264 337.244 117.474C336.727 117.685 336.108 117.79 335.386 117.79ZM335.94 115.744C336.645 115.744 337.247 115.605 337.747 115.327C338.252 115.048 338.636 114.685 338.897 114.236C339.164 113.781 339.298 113.295 339.298 112.778V111.091C339.207 111.182 339.031 111.267 338.77 111.347C338.514 111.42 338.221 111.486 337.892 111.543C337.562 111.594 337.241 111.642 336.929 111.688C336.616 111.727 336.355 111.761 336.145 111.79C335.65 111.852 335.199 111.957 334.789 112.105C334.386 112.253 334.062 112.466 333.818 112.744C333.579 113.017 333.46 113.381 333.46 113.835C333.46 114.466 333.693 114.943 334.159 115.267C334.625 115.585 335.218 115.744 335.94 115.744ZM350.755 117.764C349.488 117.764 348.397 117.477 347.482 116.903C346.573 116.324 345.874 115.526 345.385 114.509C344.897 113.491 344.652 112.327 344.652 111.014C344.652 109.685 344.902 108.511 345.402 107.494C345.902 106.472 346.607 105.673 347.516 105.099C348.425 104.526 349.496 104.239 350.729 104.239C351.723 104.239 352.61 104.423 353.388 104.793C354.167 105.156 354.794 105.668 355.272 106.327C355.755 106.986 356.042 107.756 356.132 108.636H353.652C353.516 108.023 353.203 107.494 352.715 107.051C352.232 106.608 351.584 106.386 350.772 106.386C350.061 106.386 349.439 106.574 348.905 106.949C348.377 107.318 347.965 107.847 347.669 108.534C347.374 109.216 347.226 110.023 347.226 110.955C347.226 111.909 347.371 112.733 347.661 113.426C347.951 114.119 348.36 114.656 348.888 115.037C349.422 115.418 350.05 115.608 350.772 115.608C351.255 115.608 351.692 115.52 352.084 115.344C352.482 115.162 352.814 114.903 353.081 114.568C353.354 114.233 353.544 113.83 353.652 113.358H356.132C356.042 114.205 355.766 114.96 355.306 115.625C354.846 116.29 354.229 116.812 353.456 117.193C352.689 117.574 351.789 117.764 350.755 117.764ZM361.201 113.06L361.184 109.949H361.627L366.843 104.409H369.895L363.946 110.716H363.545L361.201 113.06ZM358.858 117.5V100.045H361.406V117.5H358.858ZM367.125 117.5L362.437 111.278L364.193 109.497L370.252 117.5H367.125Z" fill="#212528"/>
</g>
<g filter="url(#filter3_d_140_846)">
<rect x="244.5" y="186" width="188" height="198" rx="16" fill="white" shape-rendering="crispEdges"/>
<rect x="245" y="186.5" width="187" height="197" rx="15.5" stroke="#212528" shape-rendering="crispEdges"/>
<path fill-rule="evenodd" clip-rule="evenodd" d="M292.834 350.9V350.834V230.691C292.9 224.267 298.132 219.034 304.556 219.101H370.986C377.411 219.034 382.709 224.201 382.709 230.625C382.709 230.691 382.709 230.691 382.709 230.691V350.9H292.834Z" stroke="#1A237E" stroke-width="1.92136"/>
<path d="M321.248 230.029C322.052 230.029 322.705 229.377 322.705 228.572C322.705 227.767 322.052 227.115 321.248 227.115C320.443 227.115 319.791 227.767 319.791 228.572C319.791 229.377 320.443 230.029 321.248 230.029Z" fill="#1A237E"/>
<path d="M321.381 229.234C321.71 229.234 321.977 228.967 321.977 228.638C321.977 228.309 321.71 228.042 321.381 228.042C321.052 228.042 320.785 228.309 320.785 228.638C320.785 228.967 321.052 229.234 321.381 229.234Z" fill="#1A237E"/>
<path d="M291.513 234.532H290.65V242.304H291.513V234.532Z" fill="#1A237E"/>
<path d="M291.513 251.488H290.65V263.29H291.513V251.488Z" fill="#1A237E"/>
<path d="M291.513 267.714H290.65V279.516H291.513V267.714Z" fill="#1A237E"/>
<path d="M385.16 251.223H384.298V263.025H385.16V251.223Z" fill="#1A237E"/>
<path d="M378.535 234.532H296.21V287.583H378.535V234.532Z" fill="#868EE0"/>
<path d="M301.708 245.46H353.368" stroke="#FEFEFE" stroke-width="0.603926"/>
<path d="M301.708 255.064H333.83" stroke="#FEFEFE" stroke-width="0.603926"/>
<path d="M301.708 264.734H344.956" stroke="#FEFEFE" stroke-width="0.603926"/>
<path d="M301.112 274.47H323.299" stroke="#FEFEFE" stroke-width="0.603926"/>
<path fill-rule="evenodd" clip-rule="evenodd" d="M356.482 305.267C356.482 304.406 356.151 303.545 355.555 302.949C354.23 301.691 352.177 301.691 350.919 302.949C350.919 302.949 350.919 302.949 350.852 302.949C350.256 303.545 349.925 304.406 349.925 305.267C349.925 305.466 349.925 305.665 349.925 305.797L345.951 308.181C345.355 307.585 344.561 307.254 343.7 307.254C342.772 307.254 341.977 307.585 341.381 308.181C340.057 309.506 340.057 311.559 341.315 312.818H341.381C341.977 313.48 342.772 313.811 343.7 313.811C344.561 313.811 345.355 313.48 346.018 312.818L349.991 315.003C349.925 315.268 349.925 315.533 349.925 315.798C349.925 317.586 351.382 319.043 353.237 319.043C355.025 319.043 356.482 317.586 356.482 315.798C356.482 313.943 355.025 312.486 353.237 312.486C352.31 312.486 351.515 312.818 350.852 313.414C350.852 313.48 350.852 313.48 350.786 313.48L346.879 311.36C346.945 311.096 346.945 310.831 346.945 310.499C346.945 310.235 346.879 309.903 346.812 309.638L350.654 307.32C350.72 307.453 350.786 307.519 350.852 307.585C352.177 308.91 354.23 308.91 355.555 307.585C356.151 306.989 356.482 306.128 356.482 305.267Z" fill="#1A237E"/>
<path fill-rule="evenodd" clip-rule="evenodd" d="M328.33 322.951C323.892 322.885 320.382 319.242 320.382 314.804C320.448 310.433 323.958 306.923 328.33 306.857C332.701 306.724 336.277 310.168 336.41 314.54C336.41 314.606 336.41 314.738 336.41 314.871C336.344 319.308 332.767 322.885 328.33 322.951ZM328.33 309.903C325.614 309.903 323.362 312.155 323.362 314.871C323.362 317.652 325.614 319.838 328.33 319.838C331.111 319.838 333.297 317.652 333.297 314.871C333.429 312.221 331.31 309.97 328.661 309.903C328.528 309.903 328.462 309.903 328.33 309.903Z" fill="#1A237E"/>
<path fill-rule="evenodd" clip-rule="evenodd" d="M342.505 340.171H314.158C313.363 340.171 312.701 339.508 312.634 338.647C312.568 330.104 319.456 323.017 328 322.951C328.132 322.951 328.265 322.951 328.331 322.951C336.941 322.884 343.962 329.706 344.028 338.316C344.028 338.449 344.028 338.515 344.028 338.647C344.16 339.442 343.564 340.104 342.769 340.171C342.703 340.237 342.637 340.237 342.505 340.171ZM316.078 337.124H341.379C340.518 330.766 335.153 326.064 328.729 325.997C322.304 325.931 316.807 330.7 316.078 337.124Z" fill="#1A237E"/>
<path d="M272.964 350.9H404.036" stroke="#1A237E" stroke-width="1.92136"/>
<path fill-rule="evenodd" clip-rule="evenodd" d="M342.903 229.764H331.776C331.644 229.764 331.578 229.631 331.578 229.499C331.578 229.433 331.644 229.3 331.776 229.3H342.903C343.035 229.3 343.168 229.367 343.168 229.499C343.168 229.631 343.035 229.764 342.903 229.764Z" fill="#1A237E"/>
<path d="M337.341 225.989C338.219 225.989 338.93 225.277 338.93 224.399C338.93 223.521 338.219 222.81 337.341 222.81C336.463 222.81 335.751 223.521 335.751 224.399C335.751 225.277 336.463 225.989 337.341 225.989Z" fill="#1A237E"/>
</g>
<defs>
<filter id="filter0_d_140_846" x="0.5" y="29" width="224" height="137" filterUnits="userSpaceOnUse" color-interpolation-filters="sRGB">
<feFlood flood-opacity="0" result="BackgroundImageFix"/>
<feColorMatrix in="SourceAlpha" type="matrix" values="0 0 0 0 0 0 0 0 0 0 0 0 0 0 0 0 0 0 127 0" result="hardAlpha"/>
<feOffset dx="4" dy="4"/>
<feComposite in2="hardAlpha" operator="out"/>
<feColorMatrix type="matrix" values="0 0 0 0 0.667568 0 0 0 0 0.8 0 0 0 0 0.932432 0 0 0 1 0"/>
<feBlend mode="normal" in2="BackgroundImageFix" result="effect1_dropShadow_140_846"/>
<feBlend mode="normal" in="SourceGraphic" in2="effect1_dropShadow_140_846" result="shape"/>
</filter>
<filter id="filter1_d_140_846" x="32.5" y="186" width="192" height="166" filterUnits="userSpaceOnUse" color-interpolation-filters="sRGB">
<feFlood flood-opacity="0" result="BackgroundImageFix"/>
<feColorMatrix in="SourceAlpha" type="matrix" values="0 0 0 0 0 0 0 0 0 0 0 0 0 0 0 0 0 0 127 0" result="hardAlpha"/>
<feOffset dx="4" dy="4"/>
<feComposite in2="hardAlpha" operator="out"/>
<feColorMatrix type="matrix" values="0 0 0 0 0.932432 0 0 0 0 0.842378 0 0 0 0 0.667568 0 0 0 1 0"/>
<feBlend mode="normal" in2="BackgroundImageFix" result="effect1_dropShadow_140_846"/>
<feBlend mode="normal" in="SourceGraphic" in2="effect1_dropShadow_140_846" result="shape"/>
</filter>
<filter id="filter2_d_140_846" x="244.5" y="0" width="192" height="166" filterUnits="userSpaceOnUse" color-interpolation-filters="sRGB">
<feFlood flood-opacity="0" result="BackgroundImageFix"/>
<feColorMatrix in="SourceAlpha" type="matrix" values="0 0 0 0 0 0 0 0 0 0 0 0 0 0 0 0 0 0 127 0" result="hardAlpha"/>
<feOffset dx="4" dy="4"/>
<feComposite in2="hardAlpha" operator="out"/>
<feColorMatrix type="matrix" values="0 0 0 0 0.932432 0 0 0 0 0.842378 0 0 0 0 0.667568 0 0 0 1 0"/>
<feBlend mode="normal" in2="BackgroundImageFix" result="effect1_dropShadow_140_846"/>
<feBlend mode="normal" in="SourceGraphic" in2="effect1_dropShadow_140_846" result="shape"/>
</filter>
<filter id="filter3_d_140_846" x="244.5" y="186" width="192" height="202" filterUnits="userSpaceOnUse" color-interpolation-filters="sRGB">
<feFlood flood-opacity="0" result="BackgroundImageFix"/>
<feColorMatrix in="SourceAlpha" type="matrix" values="0 0 0 0 0 0 0 0 0 0 0 0 0 0 0 0 0 0 127 0" result="hardAlpha"/>
<feOffset dx="4" dy="4"/>
<feComposite in2="hardAlpha" operator="out"/>
<feColorMatrix type="matrix" values="0 0 0 0 0.667568 0 0 0 0 0.8 0 0 0 0 0.932432 0 0 0 1 0"/>
<feBlend mode="normal" in2="BackgroundImageFix" result="effect1_dropShadow_140_846"/>
<feBlend mode="normal" in="SourceGraphic" in2="effect1_dropShadow_140_846" result="shape"/>
</filter>
</defs>
</svg>
