<svg width="405" height="440" viewBox="0 0 405 440" fill="none" xmlns="http://www.w3.org/2000/svg">
<g filter="url(#filter0_d_241_272)">
<rect x="157" width="244" height="100" rx="16" fill="white" shape-rendering="crispEdges"/>
<rect x="157.5" y="0.5" width="243" height="99" rx="15.5" stroke="#212528" shape-rendering="crispEdges"/>
<path d="M239 41H237V37C237 31.48 232.52 27 227 27C221.48 27 217 31.48 217 37V41H215C212.8 41 211 42.8 211 45V65C211 67.2 212.8 69 215 69H239C241.2 69 243 67.2 243 65V45C243 42.8 241.2 41 239 41ZM221 37C221 33.68 223.68 31 227 31C230.32 31 233 33.68 233 37V41H221V37ZM239 65H215V45H239V65ZM227 59C229.2 59 231 57.2 231 55C231 52.8 229.2 51 227 51C224.8 51 223 52.8 223 55C223 57.2 224.8 59 227 59Z" fill="#00FF00"/>
<path d="M300.641 29.5455V47H298.007V29.5455H300.641ZM304.476 47V29.5455H310.698C312.056 29.5455 313.181 29.7926 314.073 30.2869C314.965 30.7812 315.632 31.4574 316.076 32.3153C316.519 33.1676 316.74 34.1278 316.74 35.196C316.74 36.2699 316.516 37.2358 316.067 38.0938C315.624 38.946 314.953 39.6222 314.056 40.1222C313.164 40.6165 312.042 40.8636 310.689 40.8636H306.411V38.6307H310.451C311.309 38.6307 312.005 38.483 312.539 38.1875C313.073 37.8864 313.465 37.4773 313.715 36.9602C313.965 36.4432 314.09 35.8551 314.09 35.196C314.09 34.5369 313.965 33.9517 313.715 33.4403C313.465 32.929 313.07 32.5284 312.53 32.2386C311.996 31.9489 311.292 31.804 310.417 31.804H307.11V47H304.476ZM270.871 63.1307C270.78 62.3239 270.405 61.6989 269.746 61.2557C269.087 60.8068 268.257 60.5824 267.257 60.5824C266.542 60.5824 265.922 60.696 265.4 60.9233C264.877 61.1449 264.471 61.4517 264.181 61.8438C263.897 62.2301 263.755 62.6705 263.755 63.1648C263.755 63.5795 263.851 63.9375 264.044 64.2386C264.243 64.5398 264.502 64.7926 264.82 64.9972C265.144 65.196 265.49 65.3636 265.86 65.5C266.229 65.6307 266.584 65.7386 266.925 65.8239L268.63 66.267C269.186 66.4034 269.757 66.5881 270.343 66.821C270.928 67.054 271.471 67.3608 271.971 67.7415C272.471 68.1222 272.874 68.5938 273.181 69.1562C273.493 69.7188 273.65 70.392 273.65 71.1761C273.65 72.1648 273.394 73.0426 272.882 73.8097C272.377 74.5767 271.641 75.1818 270.675 75.625C269.715 76.0682 268.553 76.2898 267.189 76.2898C265.882 76.2898 264.752 76.0824 263.797 75.6676C262.843 75.2528 262.096 74.6648 261.556 73.9034C261.016 73.1364 260.718 72.2273 260.661 71.1761H263.303C263.354 71.8068 263.559 72.3324 263.917 72.7528C264.28 73.1676 264.743 73.4773 265.306 73.6818C265.874 73.8807 266.496 73.9801 267.172 73.9801C267.917 73.9801 268.578 73.8636 269.158 73.6307C269.743 73.392 270.203 73.0625 270.539 72.642C270.874 72.2159 271.042 71.7187 271.042 71.1506C271.042 70.6335 270.894 70.2102 270.598 69.8807C270.309 69.5511 269.914 69.2784 269.414 69.0625C268.919 68.8466 268.36 68.6562 267.735 68.4915L265.672 67.929C264.275 67.5483 263.167 66.9886 262.348 66.25C261.536 65.5114 261.13 64.5341 261.13 63.3182C261.13 62.3125 261.402 61.4347 261.948 60.6847C262.493 59.9347 263.232 59.3523 264.164 58.9375C265.096 58.517 266.147 58.3068 267.317 58.3068C268.499 58.3068 269.542 58.5142 270.445 58.929C271.354 59.3438 272.07 59.9148 272.593 60.642C273.115 61.3636 273.388 62.1932 273.411 63.1307H270.871ZM282.234 76.2642C280.944 76.2642 279.833 75.9886 278.902 75.4375C277.975 74.8807 277.26 74.0994 276.754 73.0938C276.254 72.0824 276.004 70.8977 276.004 69.5398C276.004 68.1989 276.254 67.017 276.754 65.9943C277.26 64.9716 277.964 64.1733 278.868 63.5994C279.777 63.0256 280.839 62.7386 282.055 62.7386C282.794 62.7386 283.51 62.8608 284.203 63.1051C284.896 63.3494 285.518 63.733 286.069 64.2557C286.62 64.7784 287.055 65.4574 287.373 66.2926C287.691 67.1222 287.85 68.1307 287.85 69.3182V70.2216H277.444V68.3125H285.353C285.353 67.642 285.217 67.0483 284.944 66.5312C284.672 66.0085 284.288 65.5966 283.794 65.2955C283.305 64.9943 282.731 64.8438 282.072 64.8438C281.356 64.8438 280.731 65.0199 280.197 65.3722C279.669 65.7187 279.26 66.1733 278.97 66.7358C278.686 67.2926 278.544 67.8977 278.544 68.5511V70.0426C278.544 70.9176 278.697 71.6619 279.004 72.2756C279.316 72.8892 279.751 73.358 280.308 73.6818C280.865 74 281.515 74.1591 282.26 74.1591C282.743 74.1591 283.183 74.0909 283.581 73.9545C283.978 73.8125 284.322 73.6023 284.612 73.3239C284.902 73.0455 285.123 72.7017 285.277 72.2926L287.689 72.7273C287.495 73.4375 287.149 74.0597 286.649 74.5938C286.154 75.1222 285.532 75.5341 284.782 75.8295C284.038 76.1193 283.189 76.2642 282.234 76.2642ZM296.192 76.2642C294.925 76.2642 293.834 75.9773 292.919 75.4034C292.01 74.8239 291.311 74.0256 290.823 73.0085C290.334 71.9915 290.09 70.8267 290.09 69.5142C290.09 68.1847 290.34 67.0114 290.84 65.9943C291.34 64.9716 292.044 64.1733 292.953 63.5994C293.863 63.0256 294.934 62.7386 296.167 62.7386C297.161 62.7386 298.047 62.9233 298.826 63.2926C299.604 63.6562 300.232 64.1676 300.709 64.8267C301.192 65.4858 301.479 66.2557 301.57 67.1364H299.09C298.953 66.5227 298.641 65.9943 298.152 65.5511C297.669 65.108 297.022 64.8864 296.209 64.8864C295.499 64.8864 294.877 65.0739 294.343 65.4489C293.814 65.8182 293.402 66.3466 293.107 67.0341C292.811 67.7159 292.664 68.5227 292.664 69.4545C292.664 70.4091 292.809 71.233 293.098 71.9261C293.388 72.6193 293.797 73.1562 294.326 73.5369C294.86 73.9176 295.488 74.108 296.209 74.108C296.692 74.108 297.13 74.0199 297.522 73.8438C297.919 73.6619 298.252 73.4034 298.519 73.0682C298.792 72.733 298.982 72.3295 299.09 71.858H301.57C301.479 72.7045 301.203 73.4602 300.743 74.125C300.283 74.7898 299.667 75.3125 298.894 75.6932C298.127 76.0739 297.226 76.2642 296.192 76.2642ZM312.588 70.571V62.9091H315.145V76H312.639V73.733H312.502C312.201 74.4318 311.718 75.0142 311.054 75.4801C310.395 75.9403 309.574 76.1705 308.591 76.1705C307.75 76.1705 307.005 75.9858 306.358 75.6165C305.716 75.2415 305.21 74.6875 304.841 73.9545C304.477 73.2216 304.295 72.3153 304.295 71.2358V62.9091H306.843V70.929C306.843 71.821 307.091 72.5312 307.585 73.0597C308.079 73.5881 308.721 73.8523 309.511 73.8523C309.988 73.8523 310.463 73.733 310.934 73.4943C311.412 73.2557 311.806 72.8949 312.119 72.4119C312.437 71.929 312.593 71.3153 312.588 70.571ZM318.569 76V62.9091H321.032V64.9886H321.168C321.407 64.2841 321.827 63.7301 322.429 63.3267C323.037 62.9176 323.725 62.7131 324.492 62.7131C324.651 62.7131 324.838 62.7187 325.054 62.7301C325.276 62.7415 325.449 62.7557 325.574 62.7727V65.2102C325.472 65.1818 325.29 65.1506 325.029 65.1165C324.767 65.0767 324.506 65.0568 324.245 65.0568C323.642 65.0568 323.105 65.1847 322.634 65.4403C322.168 65.6903 321.799 66.0398 321.526 66.4886C321.253 66.9318 321.117 67.4375 321.117 68.0057V76H318.569ZM327.779 76V62.9091H330.328V76H327.779ZM329.066 60.8892C328.623 60.8892 328.243 60.7415 327.924 60.446C327.612 60.1449 327.456 59.7869 327.456 59.3722C327.456 58.9517 327.612 58.5937 327.924 58.2983C328.243 57.9972 328.623 57.8466 329.066 57.8466C329.51 57.8466 329.887 57.9972 330.2 58.2983C330.518 58.5937 330.677 58.9517 330.677 59.3722C330.677 59.7869 330.518 60.1449 330.2 60.446C329.887 60.7415 329.51 60.8892 329.066 60.8892ZM339.867 62.9091V64.9545H332.716V62.9091H339.867ZM334.634 59.7727H337.182V72.1562C337.182 72.6506 337.256 73.0227 337.404 73.2727C337.551 73.517 337.742 73.6847 337.975 73.7756C338.213 73.8608 338.472 73.9034 338.75 73.9034C338.955 73.9034 339.134 73.8892 339.287 73.8608C339.441 73.8324 339.56 73.8097 339.645 73.7926L340.105 75.8977C339.958 75.9545 339.748 76.0114 339.475 76.0682C339.202 76.1307 338.861 76.1648 338.452 76.1705C337.782 76.1818 337.157 76.0625 336.577 75.8125C335.998 75.5625 335.529 75.1761 335.171 74.6534C334.813 74.1307 334.634 73.4744 334.634 72.6847V59.7727ZM344.297 80.9091C343.916 80.9091 343.569 80.8778 343.257 80.8153C342.944 80.7585 342.711 80.696 342.558 80.6278L343.172 78.5398C343.637 78.6648 344.052 78.7188 344.416 78.7017C344.779 78.6847 345.1 78.5483 345.379 78.2926C345.663 78.0369 345.913 77.6193 346.129 77.0398L346.444 76.1705L341.654 62.9091H344.382L347.697 73.0682H347.833L351.149 62.9091H353.885L348.49 77.7472C348.24 78.429 347.922 79.0057 347.535 79.4773C347.149 79.9545 346.689 80.3125 346.154 80.5511C345.62 80.7898 345.001 80.9091 344.297 80.9091Z" fill="#212528"/>
</g>
<g filter="url(#filter1_d_241_272)">
<rect x="0.5" y="124" width="400" height="100" rx="16" fill="white" shape-rendering="crispEdges"/>
<rect x="1" y="124.5" width="399" height="99" rx="15.5" stroke="#212528" shape-rendering="crispEdges"/>
<path d="M64.5 152L46.5 160V172C46.5 183.1 54.18 193.48 64.5 196C74.82 193.48 82.5 183.1 82.5 172V160L64.5 152ZM78.5 172C78.5 181.04 72.54 189.38 64.5 191.86C56.46 189.38 50.5 181.04 50.5 172V162.6L64.5 156.38L78.5 162.6V172ZM55.32 173.18L52.5 176L60.5 184L76.5 168L73.68 165.16L60.5 178.34L55.32 173.18Z" fill="#0074FF"/>
<path d="M111.75 168.341C111.629 167.265 111.129 166.432 110.25 165.841C109.371 165.242 108.265 164.943 106.932 164.943C105.977 164.943 105.152 165.095 104.455 165.398C103.758 165.693 103.216 166.102 102.83 166.625C102.451 167.14 102.261 167.727 102.261 168.386C102.261 168.939 102.39 169.417 102.648 169.818C102.913 170.22 103.258 170.557 103.682 170.83C104.114 171.095 104.576 171.318 105.068 171.5C105.561 171.674 106.034 171.818 106.489 171.932L108.761 172.523C109.504 172.705 110.265 172.951 111.045 173.261C111.826 173.572 112.549 173.981 113.216 174.489C113.883 174.996 114.42 175.625 114.83 176.375C115.246 177.125 115.455 178.023 115.455 179.068C115.455 180.386 115.114 181.557 114.432 182.58C113.758 183.602 112.777 184.409 111.489 185C110.208 185.591 108.659 185.886 106.841 185.886C105.098 185.886 103.591 185.61 102.318 185.057C101.045 184.504 100.049 183.72 99.3295 182.705C98.6098 181.682 98.2121 180.47 98.1364 179.068H101.659C101.727 179.909 102 180.61 102.477 181.17C102.962 181.723 103.58 182.136 104.33 182.409C105.087 182.674 105.917 182.807 106.818 182.807C107.811 182.807 108.693 182.652 109.466 182.341C110.246 182.023 110.86 181.583 111.307 181.023C111.754 180.455 111.977 179.792 111.977 179.034C111.977 178.345 111.78 177.78 111.386 177.341C111 176.902 110.473 176.538 109.807 176.25C109.148 175.962 108.402 175.708 107.568 175.489L104.818 174.739C102.955 174.231 101.477 173.485 100.386 172.5C99.303 171.515 98.7614 170.212 98.7614 168.591C98.7614 167.25 99.125 166.08 99.8523 165.08C100.58 164.08 101.564 163.303 102.807 162.75C104.049 162.189 105.451 161.909 107.011 161.909C108.587 161.909 109.977 162.186 111.182 162.739C112.394 163.292 113.348 164.053 114.045 165.023C114.742 165.985 115.106 167.091 115.136 168.341H111.75ZM126.901 185.852C125.181 185.852 123.7 185.485 122.457 184.75C121.223 184.008 120.268 182.966 119.594 181.625C118.927 180.277 118.594 178.697 118.594 176.886C118.594 175.098 118.927 173.523 119.594 172.159C120.268 170.795 121.207 169.731 122.412 168.966C123.624 168.201 125.041 167.818 126.662 167.818C127.647 167.818 128.601 167.981 129.526 168.307C130.45 168.633 131.279 169.144 132.014 169.841C132.749 170.538 133.329 171.443 133.753 172.557C134.177 173.663 134.389 175.008 134.389 176.591V177.795H120.514V175.25H131.06C131.06 174.356 130.878 173.564 130.514 172.875C130.151 172.178 129.639 171.629 128.98 171.227C128.329 170.826 127.563 170.625 126.685 170.625C125.73 170.625 124.897 170.86 124.185 171.33C123.48 171.792 122.935 172.398 122.548 173.148C122.17 173.89 121.98 174.697 121.98 175.568V177.557C121.98 178.723 122.185 179.716 122.594 180.534C123.01 181.352 123.59 181.977 124.332 182.409C125.075 182.833 125.942 183.045 126.935 183.045C127.579 183.045 128.166 182.955 128.696 182.773C129.226 182.583 129.685 182.303 130.071 181.932C130.457 181.561 130.753 181.102 130.957 180.557L134.173 181.136C133.916 182.083 133.454 182.913 132.787 183.625C132.128 184.33 131.298 184.879 130.298 185.273C129.306 185.659 128.173 185.852 126.901 185.852ZM145.511 185.852C143.822 185.852 142.367 185.47 141.148 184.705C139.936 183.932 139.004 182.867 138.352 181.511C137.701 180.155 137.375 178.602 137.375 176.852C137.375 175.08 137.708 173.515 138.375 172.159C139.042 170.795 139.981 169.731 141.193 168.966C142.405 168.201 143.833 167.818 145.477 167.818C146.803 167.818 147.985 168.064 149.023 168.557C150.061 169.042 150.898 169.723 151.534 170.602C152.178 171.481 152.561 172.508 152.682 173.682H149.375C149.193 172.864 148.777 172.159 148.125 171.568C147.481 170.977 146.617 170.682 145.534 170.682C144.587 170.682 143.758 170.932 143.045 171.432C142.341 171.924 141.792 172.629 141.398 173.545C141.004 174.455 140.807 175.53 140.807 176.773C140.807 178.045 141 179.144 141.386 180.068C141.773 180.992 142.318 181.708 143.023 182.216C143.735 182.723 144.572 182.977 145.534 182.977C146.178 182.977 146.761 182.86 147.284 182.625C147.814 182.383 148.258 182.038 148.614 181.591C148.977 181.144 149.231 180.606 149.375 179.977H152.682C152.561 181.106 152.193 182.114 151.58 183C150.966 183.886 150.144 184.583 149.114 185.091C148.091 185.598 146.89 185.852 145.511 185.852ZM167.372 178.261V168.045H170.781V185.5H167.44V182.477H167.259C166.857 183.409 166.213 184.186 165.327 184.807C164.448 185.42 163.353 185.727 162.043 185.727C160.921 185.727 159.929 185.481 159.065 184.989C158.209 184.489 157.535 183.75 157.043 182.773C156.558 181.795 156.315 180.587 156.315 179.148V168.045H159.713V178.739C159.713 179.928 160.043 180.875 160.702 181.58C161.361 182.284 162.217 182.636 163.27 182.636C163.906 182.636 164.539 182.477 165.168 182.159C165.804 181.841 166.33 181.36 166.747 180.716C167.171 180.072 167.38 179.254 167.372 178.261ZM175.347 185.5V168.045H178.631V170.818H178.812C179.131 169.879 179.691 169.14 180.494 168.602C181.305 168.057 182.222 167.784 183.244 167.784C183.456 167.784 183.706 167.792 183.994 167.807C184.29 167.822 184.521 167.841 184.688 167.864V171.114C184.551 171.076 184.309 171.034 183.96 170.989C183.612 170.936 183.263 170.909 182.915 170.909C182.112 170.909 181.396 171.08 180.767 171.42C180.146 171.754 179.653 172.22 179.29 172.818C178.926 173.409 178.744 174.083 178.744 174.841V185.5H175.347ZM194.526 185.852C192.806 185.852 191.325 185.485 190.082 184.75C188.848 184.008 187.893 182.966 187.219 181.625C186.552 180.277 186.219 178.697 186.219 176.886C186.219 175.098 186.552 173.523 187.219 172.159C187.893 170.795 188.832 169.731 190.037 168.966C191.249 168.201 192.666 167.818 194.287 167.818C195.272 167.818 196.226 167.981 197.151 168.307C198.075 168.633 198.904 169.144 199.639 169.841C200.374 170.538 200.954 171.443 201.378 172.557C201.802 173.663 202.014 175.008 202.014 176.591V177.795H188.139V175.25H198.685C198.685 174.356 198.503 173.564 198.139 172.875C197.776 172.178 197.264 171.629 196.605 171.227C195.954 170.826 195.188 170.625 194.31 170.625C193.355 170.625 192.522 170.86 191.81 171.33C191.105 171.792 190.56 172.398 190.173 173.148C189.795 173.89 189.605 174.697 189.605 175.568V177.557C189.605 178.723 189.81 179.716 190.219 180.534C190.635 181.352 191.215 181.977 191.957 182.409C192.7 182.833 193.567 183.045 194.56 183.045C195.204 183.045 195.791 182.955 196.321 182.773C196.851 182.583 197.31 182.303 197.696 181.932C198.082 181.561 198.378 181.102 198.582 180.557L201.798 181.136C201.541 182.083 201.079 182.913 200.412 183.625C199.753 184.33 198.923 184.879 197.923 185.273C196.931 185.659 195.798 185.852 194.526 185.852ZM221.026 185.83C219.465 185.83 218.12 185.545 216.991 184.977C215.87 184.409 215.007 183.636 214.401 182.659C213.795 181.674 213.491 180.561 213.491 179.318C213.491 178.371 213.688 177.53 214.082 176.795C214.476 176.053 215.026 175.367 215.73 174.739C216.435 174.11 217.249 173.477 218.173 172.841L221.923 170.193C222.56 169.777 223.056 169.337 223.412 168.875C223.768 168.405 223.946 167.826 223.946 167.136C223.946 166.591 223.711 166.068 223.241 165.568C222.772 165.068 222.143 164.818 221.355 164.818C220.81 164.818 220.329 164.951 219.912 165.216C219.503 165.481 219.181 165.822 218.946 166.239C218.719 166.648 218.605 167.08 218.605 167.534C218.605 168.064 218.749 168.598 219.037 169.136C219.332 169.674 219.711 170.231 220.173 170.807C220.635 171.375 221.12 171.966 221.628 172.58L232.435 185.5H228.594L219.651 174.989C218.901 174.102 218.204 173.269 217.56 172.489C216.916 171.701 216.393 170.905 215.991 170.102C215.598 169.292 215.401 168.417 215.401 167.477C215.401 166.409 215.643 165.462 216.128 164.636C216.62 163.803 217.306 163.152 218.185 162.682C219.063 162.212 220.094 161.977 221.276 161.977C222.473 161.977 223.499 162.212 224.355 162.682C225.219 163.144 225.882 163.761 226.344 164.534C226.813 165.299 227.048 166.136 227.048 167.045C227.048 168.152 226.772 169.129 226.219 169.977C225.673 170.818 224.92 171.591 223.957 172.295L219.287 175.739C218.378 176.405 217.745 177.064 217.389 177.716C217.041 178.36 216.866 178.864 216.866 179.227C216.866 179.894 217.037 180.511 217.378 181.08C217.726 181.648 218.211 182.102 218.832 182.443C219.461 182.784 220.196 182.955 221.037 182.955C221.901 182.955 222.741 182.769 223.56 182.398C224.385 182.019 225.132 181.477 225.798 180.773C226.473 180.068 227.007 179.223 227.401 178.239C227.795 177.254 227.991 176.152 227.991 174.932H231.06C231.06 176.432 230.889 177.701 230.548 178.739C230.207 179.769 229.795 180.61 229.31 181.261C228.832 181.905 228.382 182.409 227.957 182.773C227.821 182.894 227.692 183.015 227.571 183.136C227.45 183.258 227.321 183.379 227.185 183.5C226.397 184.295 225.442 184.883 224.321 185.261C223.207 185.64 222.109 185.83 221.026 185.83ZM245.872 162.227L252.349 181.182H252.611L259.088 162.227H262.884L254.509 185.5H250.452L242.077 162.227H245.872ZM271.744 185.852C270.025 185.852 268.544 185.485 267.301 184.75C266.066 184.008 265.112 182.966 264.438 181.625C263.771 180.277 263.438 178.697 263.438 176.886C263.438 175.098 263.771 173.523 264.438 172.159C265.112 170.795 266.051 169.731 267.256 168.966C268.468 168.201 269.884 167.818 271.506 167.818C272.491 167.818 273.445 167.981 274.369 168.307C275.294 168.633 276.123 169.144 276.858 169.841C277.593 170.538 278.172 171.443 278.597 172.557C279.021 173.663 279.233 175.008 279.233 176.591V177.795H265.358V175.25H275.903C275.903 174.356 275.722 173.564 275.358 172.875C274.994 172.178 274.483 171.629 273.824 171.227C273.172 170.826 272.407 170.625 271.528 170.625C270.574 170.625 269.741 170.86 269.028 171.33C268.324 171.792 267.778 172.398 267.392 173.148C267.013 173.89 266.824 174.697 266.824 175.568V177.557C266.824 178.723 267.028 179.716 267.438 180.534C267.854 181.352 268.434 181.977 269.176 182.409C269.919 182.833 270.786 183.045 271.778 183.045C272.422 183.045 273.009 182.955 273.54 182.773C274.07 182.583 274.528 182.303 274.915 181.932C275.301 181.561 275.597 181.102 275.801 180.557L279.017 181.136C278.759 182.083 278.297 182.913 277.631 183.625C276.972 184.33 276.142 184.879 275.142 185.273C274.15 185.659 273.017 185.852 271.744 185.852ZM283.003 185.5V168.045H286.287V170.818H286.469C286.787 169.879 287.348 169.14 288.151 168.602C288.961 168.057 289.878 167.784 290.901 167.784C291.113 167.784 291.363 167.792 291.651 167.807C291.946 167.822 292.177 167.841 292.344 167.864V171.114C292.207 171.076 291.965 171.034 291.616 170.989C291.268 170.936 290.92 170.909 290.571 170.909C289.768 170.909 289.052 171.08 288.423 171.42C287.802 171.754 287.31 172.22 286.946 172.818C286.582 173.409 286.401 174.083 286.401 174.841V185.5H283.003ZM295.284 185.5V168.045H298.682V185.5H295.284ZM297 165.352C296.409 165.352 295.902 165.155 295.477 164.761C295.061 164.36 294.852 163.883 294.852 163.33C294.852 162.769 295.061 162.292 295.477 161.898C295.902 161.496 296.409 161.295 297 161.295C297.591 161.295 298.095 161.496 298.511 161.898C298.936 162.292 299.148 162.769 299.148 163.33C299.148 163.883 298.936 164.36 298.511 164.761C298.095 165.155 297.591 165.352 297 165.352ZM311.56 168.045V170.773H301.696V168.045H311.56ZM304.401 185.5V166.023C304.401 164.932 304.639 164.027 305.116 163.307C305.594 162.58 306.226 162.038 307.014 161.682C307.802 161.318 308.658 161.136 309.582 161.136C310.264 161.136 310.848 161.193 311.332 161.307C311.817 161.413 312.177 161.511 312.412 161.602L311.616 164.352C311.457 164.307 311.253 164.254 311.003 164.193C310.753 164.125 310.45 164.091 310.094 164.091C309.268 164.091 308.677 164.295 308.321 164.705C307.973 165.114 307.798 165.705 307.798 166.477V185.5H304.401ZM315.065 185.5V168.045H318.463V185.5H315.065ZM316.781 165.352C316.19 165.352 315.683 165.155 315.259 164.761C314.842 164.36 314.634 163.883 314.634 163.33C314.634 162.769 314.842 162.292 315.259 161.898C315.683 161.496 316.19 161.295 316.781 161.295C317.372 161.295 317.876 161.496 318.293 161.898C318.717 162.292 318.929 162.769 318.929 163.33C318.929 163.883 318.717 164.36 318.293 164.761C317.876 165.155 317.372 165.352 316.781 165.352ZM330.557 185.852C328.837 185.852 327.356 185.485 326.114 184.75C324.879 184.008 323.924 182.966 323.25 181.625C322.583 180.277 322.25 178.697 322.25 176.886C322.25 175.098 322.583 173.523 323.25 172.159C323.924 170.795 324.864 169.731 326.068 168.966C327.28 168.201 328.697 167.818 330.318 167.818C331.303 167.818 332.258 167.981 333.182 168.307C334.106 168.633 334.936 169.144 335.67 169.841C336.405 170.538 336.985 171.443 337.409 172.557C337.833 173.663 338.045 175.008 338.045 176.591V177.795H324.17V175.25H334.716C334.716 174.356 334.534 173.564 334.17 172.875C333.807 172.178 333.295 171.629 332.636 171.227C331.985 170.826 331.22 170.625 330.341 170.625C329.386 170.625 328.553 170.86 327.841 171.33C327.136 171.792 326.591 172.398 326.205 173.148C325.826 173.89 325.636 174.697 325.636 175.568V177.557C325.636 178.723 325.841 179.716 326.25 180.534C326.667 181.352 327.246 181.977 327.989 182.409C328.731 182.833 329.598 183.045 330.591 183.045C331.235 183.045 331.822 182.955 332.352 182.773C332.883 182.583 333.341 182.303 333.727 181.932C334.114 181.561 334.409 181.102 334.614 180.557L337.83 181.136C337.572 182.083 337.11 182.913 336.443 183.625C335.784 184.33 334.955 184.879 333.955 185.273C332.962 185.659 331.83 185.852 330.557 185.852ZM348.349 185.841C346.94 185.841 345.683 185.481 344.577 184.761C343.478 184.034 342.615 183 341.986 181.659C341.365 180.311 341.054 178.693 341.054 176.807C341.054 174.92 341.368 173.307 341.997 171.966C342.634 170.625 343.505 169.598 344.611 168.886C345.717 168.174 346.971 167.818 348.372 167.818C349.455 167.818 350.327 168 350.986 168.364C351.652 168.72 352.168 169.136 352.531 169.614C352.902 170.091 353.19 170.511 353.395 170.875H353.599V162.227H356.997V185.5H353.679V182.784H353.395C353.19 183.155 352.895 183.58 352.509 184.057C352.13 184.534 351.607 184.951 350.94 185.307C350.274 185.663 349.41 185.841 348.349 185.841ZM349.099 182.943C350.077 182.943 350.902 182.686 351.577 182.17C352.259 181.648 352.774 180.924 353.122 180C353.478 179.076 353.656 178 353.656 176.773C353.656 175.561 353.482 174.5 353.134 173.591C352.785 172.682 352.274 171.973 351.599 171.466C350.925 170.958 350.092 170.705 349.099 170.705C348.077 170.705 347.224 170.97 346.543 171.5C345.861 172.03 345.346 172.754 344.997 173.67C344.656 174.587 344.486 175.621 344.486 176.773C344.486 177.939 344.66 178.989 345.009 179.92C345.357 180.852 345.872 181.591 346.554 182.136C347.243 182.674 348.092 182.943 349.099 182.943Z" fill="#212528"/>
</g>
<g filter="url(#filter2_d_241_272)">
<rect x="0.5" y="248" width="188" height="188" rx="16" fill="white" shape-rendering="crispEdges"/>
<rect x="1" y="248.5" width="187" height="187" rx="15.5" stroke="#212528" shape-rendering="crispEdges"/>
<path d="M104.5 293L112.5 301L104.5 309V303H96.5V299H104.5V293ZM90.5 299C89.4 299 88.5 299.9 88.5 301C88.5 302.1 89.4 303 90.5 303C91.6 303 92.5 302.1 92.5 301C92.5 299.9 91.6 299 90.5 299ZM82.5 299C81.4 299 80.5 299.9 80.5 301C80.5 302.1 81.4 303 82.5 303C83.6 303 84.5 302.1 84.5 301C84.5 299.9 83.6 299 82.5 299ZM84.5 319H92.5V315H84.5V309L76.5 317L84.5 325V319ZM98.5 319C99.6 319 100.5 318.1 100.5 317C100.5 315.9 99.6 315 98.5 315C97.4 315 96.5 315.9 96.5 317C96.5 318.1 97.4 319 98.5 319ZM106.5 319C107.6 319 108.5 318.1 108.5 317C108.5 315.9 107.6 315 106.5 315C105.4 315 104.5 315.9 104.5 317C104.5 318.1 105.4 319 106.5 319Z" fill="#F2A50D"/>
<path d="M39.5295 348.812V346.545H53.038V348.812H47.592V364H44.967V348.812H39.5295ZM57.1566 364L53.3043 350.909H55.9379L58.5032 360.523H58.631L61.2049 350.909H63.8384L66.3952 360.48H66.5231L69.0714 350.909H71.7049L67.8612 364H65.2617L62.6026 354.548H62.4066L59.7475 364H57.1566ZM79.239 364.264C78.0117 364.264 76.9407 363.983 76.0259 363.42C75.1112 362.858 74.4009 362.071 73.8952 361.06C73.3896 360.048 73.1367 358.866 73.1367 357.514C73.1367 356.156 73.3896 354.969 73.8952 353.952C74.4009 352.935 75.1112 352.145 76.0259 351.582C76.9407 351.02 78.0117 350.739 79.239 350.739C80.4663 350.739 81.5373 351.02 82.4521 351.582C83.3668 352.145 84.0771 352.935 84.5827 353.952C85.0884 354.969 85.3413 356.156 85.3413 357.514C85.3413 358.866 85.0884 360.048 84.5827 361.06C84.0771 362.071 83.3668 362.858 82.4521 363.42C81.5373 363.983 80.4663 364.264 79.239 364.264ZM79.2475 362.125C80.043 362.125 80.7021 361.915 81.2248 361.494C81.7475 361.074 82.1339 360.514 82.3839 359.815C82.6396 359.116 82.7674 358.347 82.7674 357.506C82.7674 356.67 82.6396 355.903 82.3839 355.205C82.1339 354.5 81.7475 353.935 81.2248 353.509C80.7021 353.082 80.043 352.869 79.2475 352.869C78.4464 352.869 77.7816 353.082 77.2532 353.509C76.7305 353.935 76.3413 354.5 76.0856 355.205C75.8356 355.903 75.7106 356.67 75.7106 357.506C75.7106 358.347 75.8356 359.116 76.0856 359.815C76.3413 360.514 76.7305 361.074 77.2532 361.494C77.7816 361.915 78.4464 362.125 79.2475 362.125ZM95.8988 355.52V357.727H88.1602V355.52H95.8988ZM102.133 364L98.2809 350.909H100.914L103.48 360.523H103.608L106.181 350.909H108.815L111.372 360.48H111.5L114.048 350.909H116.681L112.838 364H110.238L107.579 354.548H107.383L104.724 364H102.133ZM122.909 364.29C122.08 364.29 121.33 364.136 120.659 363.83C119.989 363.517 119.458 363.065 119.066 362.474C118.679 361.884 118.486 361.159 118.486 360.301C118.486 359.562 118.628 358.955 118.912 358.477C119.196 358 119.58 357.622 120.063 357.344C120.546 357.065 121.086 356.855 121.682 356.713C122.279 356.571 122.887 356.463 123.506 356.389C124.29 356.298 124.926 356.224 125.415 356.168C125.904 356.105 126.259 356.006 126.48 355.869C126.702 355.733 126.813 355.511 126.813 355.205V355.145C126.813 354.401 126.603 353.824 126.182 353.415C125.767 353.006 125.148 352.801 124.324 352.801C123.466 352.801 122.79 352.991 122.296 353.372C121.807 353.747 121.469 354.165 121.282 354.625L118.887 354.08C119.171 353.284 119.586 352.642 120.131 352.153C120.682 351.659 121.316 351.301 122.032 351.08C122.748 350.852 123.5 350.739 124.29 350.739C124.813 350.739 125.367 350.801 125.952 350.926C126.543 351.045 127.094 351.267 127.605 351.591C128.123 351.915 128.546 352.378 128.875 352.98C129.205 353.577 129.37 354.352 129.37 355.307V364H126.881V362.21H126.779C126.614 362.54 126.367 362.864 126.037 363.182C125.708 363.5 125.284 363.764 124.767 363.974C124.25 364.185 123.631 364.29 122.909 364.29ZM123.463 362.244C124.168 362.244 124.77 362.105 125.27 361.827C125.776 361.548 126.159 361.185 126.421 360.736C126.688 360.281 126.821 359.795 126.821 359.278V357.591C126.73 357.682 126.554 357.767 126.293 357.847C126.037 357.92 125.745 357.986 125.415 358.043C125.086 358.094 124.765 358.142 124.452 358.188C124.14 358.227 123.878 358.261 123.668 358.29C123.174 358.352 122.722 358.457 122.313 358.605C121.909 358.753 121.586 358.966 121.341 359.244C121.103 359.517 120.983 359.881 120.983 360.335C120.983 360.966 121.216 361.443 121.682 361.767C122.148 362.085 122.742 362.244 123.463 362.244ZM133.906 368.909C133.525 368.909 133.179 368.878 132.866 368.815C132.554 368.759 132.321 368.696 132.167 368.628L132.781 366.54C133.247 366.665 133.662 366.719 134.025 366.702C134.389 366.685 134.71 366.548 134.988 366.293C135.272 366.037 135.522 365.619 135.738 365.04L136.054 364.17L131.264 350.909H133.991L137.306 361.068H137.443L140.758 350.909H143.494L138.099 365.747C137.849 366.429 137.531 367.006 137.145 367.477C136.758 367.955 136.298 368.313 135.764 368.551C135.23 368.79 134.61 368.909 133.906 368.909ZM43.2869 379.909L38.5398 393H35.8125L31.0568 379.909H33.7926L37.108 389.983H37.2443L40.5511 379.909H43.2869ZM50.8786 393.264C49.5888 393.264 48.478 392.989 47.5462 392.438C46.62 391.881 45.9041 391.099 45.3984 390.094C44.8984 389.082 44.6484 387.898 44.6484 386.54C44.6484 385.199 44.8984 384.017 45.3984 382.994C45.9041 381.972 46.6087 381.173 47.5121 380.599C48.4212 380.026 49.4837 379.739 50.6996 379.739C51.4382 379.739 52.1541 379.861 52.8473 380.105C53.5405 380.349 54.1626 380.733 54.7138 381.256C55.2649 381.778 55.6996 382.457 56.0178 383.293C56.3359 384.122 56.495 385.131 56.495 386.318V387.222H46.0888V385.312H53.9979C53.9979 384.642 53.8615 384.048 53.5888 383.531C53.3161 383.009 52.9325 382.597 52.4382 382.295C51.9496 381.994 51.3757 381.844 50.7166 381.844C50.0007 381.844 49.3757 382.02 48.8416 382.372C48.3132 382.719 47.9041 383.173 47.6143 383.736C47.3303 384.293 47.1882 384.898 47.1882 385.551V387.043C47.1882 387.918 47.3416 388.662 47.6484 389.276C47.9609 389.889 48.3956 390.358 48.9524 390.682C49.5092 391 50.1598 391.159 50.9041 391.159C51.3871 391.159 51.8274 391.091 52.2251 390.955C52.6229 390.812 52.9666 390.602 53.2564 390.324C53.5462 390.045 53.7678 389.702 53.9212 389.293L56.3331 389.727C56.1399 390.437 55.7933 391.06 55.2933 391.594C54.799 392.122 54.1768 392.534 53.4268 392.83C52.6825 393.119 51.8331 393.264 50.8786 393.264ZM59.3224 393V379.909H61.7855V381.989H61.9219C62.1605 381.284 62.581 380.73 63.1832 380.327C63.7912 379.918 64.4787 379.713 65.2457 379.713C65.4048 379.713 65.5923 379.719 65.8082 379.73C66.0298 379.741 66.2031 379.756 66.3281 379.773V382.21C66.2259 382.182 66.044 382.151 65.7827 382.116C65.5213 382.077 65.2599 382.057 64.9986 382.057C64.3963 382.057 63.8594 382.185 63.3878 382.44C62.9219 382.69 62.5526 383.04 62.2798 383.489C62.0071 383.932 61.8707 384.437 61.8707 385.006V393H59.3224ZM68.5334 393V379.909H71.0817V393H68.5334ZM69.8203 377.889C69.3771 377.889 68.9964 377.741 68.6783 377.446C68.3658 377.145 68.2095 376.787 68.2095 376.372C68.2095 375.952 68.3658 375.594 68.6783 375.298C68.9964 374.997 69.3771 374.847 69.8203 374.847C70.2635 374.847 70.6413 374.997 70.9538 375.298C71.272 375.594 71.4311 375.952 71.4311 376.372C71.4311 376.787 71.272 377.145 70.9538 377.446C70.6413 377.741 70.2635 377.889 69.8203 377.889ZM80.7401 379.909V381.955H73.3423V379.909H80.7401ZM75.3707 393V378.392C75.3707 377.574 75.5497 376.895 75.9077 376.355C76.2656 375.81 76.7401 375.403 77.331 375.136C77.9219 374.864 78.5639 374.727 79.2571 374.727C79.7685 374.727 80.206 374.77 80.5696 374.855C80.9332 374.935 81.2031 375.009 81.3793 375.077L80.7827 377.139C80.6634 377.105 80.5099 377.065 80.3224 377.02C80.1349 376.969 79.9077 376.943 79.6406 376.943C79.0213 376.943 78.5781 377.097 78.3111 377.403C78.0497 377.71 77.919 378.153 77.919 378.733V393H75.3707ZM83.3693 393V379.909H85.9176V393H83.3693ZM84.6562 377.889C84.2131 377.889 83.8324 377.741 83.5142 377.446C83.2017 377.145 83.0455 376.787 83.0455 376.372C83.0455 375.952 83.2017 375.594 83.5142 375.298C83.8324 374.997 84.2131 374.847 84.6562 374.847C85.0994 374.847 85.4773 374.997 85.7898 375.298C86.108 375.594 86.267 375.952 86.267 376.372C86.267 376.787 86.108 377.145 85.7898 377.446C85.4773 377.741 85.0994 377.889 84.6562 377.889ZM94.8601 393.264C93.593 393.264 92.5021 392.977 91.5874 392.403C90.6783 391.824 89.9794 391.026 89.4908 390.009C89.0021 388.991 88.7578 387.827 88.7578 386.514C88.7578 385.185 89.0078 384.011 89.5078 382.994C90.0078 381.972 90.7124 381.173 91.6214 380.599C92.5305 380.026 93.6016 379.739 94.8345 379.739C95.8288 379.739 96.7152 379.923 97.4936 380.293C98.272 380.656 98.8999 381.168 99.3771 381.827C99.8601 382.486 100.147 383.256 100.238 384.136H97.7578C97.6214 383.523 97.3089 382.994 96.8203 382.551C96.3374 382.108 95.6896 381.886 94.8771 381.886C94.1669 381.886 93.5447 382.074 93.0107 382.449C92.4822 382.818 92.0703 383.347 91.7749 384.034C91.4794 384.716 91.3317 385.523 91.3317 386.455C91.3317 387.409 91.4766 388.233 91.7663 388.926C92.0561 389.619 92.4652 390.156 92.9936 390.537C93.5277 390.918 94.1555 391.108 94.8771 391.108C95.3601 391.108 95.7976 391.02 96.1896 390.844C96.5874 390.662 96.9197 390.403 97.1868 390.068C97.4595 389.733 97.6499 389.33 97.7578 388.858H100.238C100.147 389.705 99.8714 390.46 99.4112 391.125C98.951 391.79 98.3345 392.312 97.5618 392.693C96.7947 393.074 95.8942 393.264 94.8601 393.264ZM106.773 393.29C105.943 393.29 105.193 393.136 104.523 392.83C103.852 392.517 103.321 392.065 102.929 391.474C102.543 390.884 102.349 390.159 102.349 389.301C102.349 388.562 102.491 387.955 102.776 387.477C103.06 387 103.443 386.622 103.926 386.344C104.409 386.065 104.949 385.855 105.545 385.713C106.142 385.571 106.75 385.463 107.369 385.389C108.153 385.298 108.79 385.224 109.278 385.168C109.767 385.105 110.122 385.006 110.344 384.869C110.565 384.733 110.676 384.511 110.676 384.205V384.145C110.676 383.401 110.466 382.824 110.045 382.415C109.631 382.006 109.011 381.801 108.188 381.801C107.33 381.801 106.653 381.991 106.159 382.372C105.67 382.747 105.332 383.165 105.145 383.625L102.75 383.08C103.034 382.284 103.449 381.642 103.994 381.153C104.545 380.659 105.179 380.301 105.895 380.08C106.611 379.852 107.364 379.739 108.153 379.739C108.676 379.739 109.23 379.801 109.815 379.926C110.406 380.045 110.957 380.267 111.469 380.591C111.986 380.915 112.409 381.378 112.739 381.98C113.068 382.577 113.233 383.352 113.233 384.307V393H110.744V391.21H110.642C110.477 391.54 110.23 391.864 109.901 392.182C109.571 392.5 109.148 392.764 108.631 392.974C108.114 393.185 107.494 393.29 106.773 393.29ZM107.327 391.244C108.031 391.244 108.634 391.105 109.134 390.827C109.639 390.548 110.023 390.185 110.284 389.736C110.551 389.281 110.685 388.795 110.685 388.278V386.591C110.594 386.682 110.418 386.767 110.156 386.847C109.901 386.92 109.608 386.986 109.278 387.043C108.949 387.094 108.628 387.142 108.315 387.188C108.003 387.227 107.741 387.261 107.531 387.29C107.037 387.352 106.585 387.457 106.176 387.605C105.773 387.753 105.449 387.966 105.205 388.244C104.966 388.517 104.847 388.881 104.847 389.335C104.847 389.966 105.08 390.443 105.545 390.767C106.011 391.085 106.605 391.244 107.327 391.244ZM122.738 379.909V381.955H115.587V379.909H122.738ZM117.505 376.773H120.053V389.156C120.053 389.651 120.127 390.023 120.275 390.273C120.423 390.517 120.613 390.685 120.846 390.776C121.085 390.861 121.343 390.903 121.621 390.903C121.826 390.903 122.005 390.889 122.158 390.861C122.312 390.832 122.431 390.81 122.516 390.793L122.977 392.898C122.829 392.955 122.619 393.011 122.346 393.068C122.073 393.131 121.732 393.165 121.323 393.17C120.653 393.182 120.028 393.062 119.448 392.812C118.869 392.562 118.4 392.176 118.042 391.653C117.684 391.131 117.505 390.474 117.505 389.685V376.773ZM125.557 393V379.909H128.105V393H125.557ZM126.844 377.889C126.401 377.889 126.02 377.741 125.702 377.446C125.389 377.145 125.233 376.787 125.233 376.372C125.233 375.952 125.389 375.594 125.702 375.298C126.02 374.997 126.401 374.847 126.844 374.847C127.287 374.847 127.665 374.997 127.977 375.298C128.295 375.594 128.455 375.952 128.455 376.372C128.455 376.787 128.295 377.145 127.977 377.446C127.665 377.741 127.287 377.889 126.844 377.889ZM137.048 393.264C135.82 393.264 134.749 392.983 133.835 392.42C132.92 391.858 132.21 391.071 131.704 390.06C131.198 389.048 130.945 387.866 130.945 386.514C130.945 385.156 131.198 383.969 131.704 382.952C132.21 381.935 132.92 381.145 133.835 380.582C134.749 380.02 135.82 379.739 137.048 379.739C138.275 379.739 139.346 380.02 140.261 380.582C141.175 381.145 141.886 381.935 142.391 382.952C142.897 383.969 143.15 385.156 143.15 386.514C143.15 387.866 142.897 389.048 142.391 390.06C141.886 391.071 141.175 391.858 140.261 392.42C139.346 392.983 138.275 393.264 137.048 393.264ZM137.056 391.125C137.852 391.125 138.511 390.915 139.033 390.494C139.556 390.074 139.942 389.514 140.192 388.815C140.448 388.116 140.576 387.347 140.576 386.506C140.576 385.67 140.448 384.903 140.192 384.205C139.942 383.5 139.556 382.935 139.033 382.509C138.511 382.082 137.852 381.869 137.056 381.869C136.255 381.869 135.59 382.082 135.062 382.509C134.539 382.935 134.15 383.5 133.894 384.205C133.644 384.903 133.519 385.67 133.519 386.506C133.519 387.347 133.644 388.116 133.894 388.815C134.15 389.514 134.539 390.074 135.062 390.494C135.59 390.915 136.255 391.125 137.056 391.125ZM148.543 385.227V393H145.994V379.909H148.44V382.04H148.602C148.903 381.347 149.375 380.79 150.017 380.369C150.665 379.949 151.48 379.739 152.463 379.739C153.355 379.739 154.136 379.926 154.807 380.301C155.477 380.67 155.997 381.222 156.366 381.955C156.736 382.687 156.92 383.594 156.92 384.673V393H154.372V384.98C154.372 384.031 154.125 383.29 153.631 382.756C153.136 382.216 152.457 381.946 151.594 381.946C151.003 381.946 150.477 382.074 150.017 382.33C149.563 382.585 149.202 382.96 148.935 383.455C148.673 383.943 148.543 384.534 148.543 385.227Z" fill="#212528"/>
</g>
<defs>
<filter id="filter0_d_241_272" x="157" y="0" width="248" height="104" filterUnits="userSpaceOnUse" color-interpolation-filters="sRGB">
<feFlood flood-opacity="0" result="BackgroundImageFix"/>
<feColorMatrix in="SourceAlpha" type="matrix" values="0 0 0 0 0 0 0 0 0 0 0 0 0 0 0 0 0 0 127 0" result="hardAlpha"/>
<feOffset dx="4" dy="4"/>
<feComposite in2="hardAlpha" operator="out"/>
<feColorMatrix type="matrix" values="0 0 0 0 0.667568 0 0 0 0 0.932432 0 0 0 0 0.667568 0 0 0 1 0"/>
<feBlend mode="normal" in2="BackgroundImageFix" result="effect1_dropShadow_241_272"/>
<feBlend mode="normal" in="SourceGraphic" in2="effect1_dropShadow_241_272" result="shape"/>
</filter>
<filter id="filter1_d_241_272" x="0.5" y="124" width="404" height="104" filterUnits="userSpaceOnUse" color-interpolation-filters="sRGB">
<feFlood flood-opacity="0" result="BackgroundImageFix"/>
<feColorMatrix in="SourceAlpha" type="matrix" values="0 0 0 0 0 0 0 0 0 0 0 0 0 0 0 0 0 0 127 0" result="hardAlpha"/>
<feOffset dx="4" dy="4"/>
<feComposite in2="hardAlpha" operator="out"/>
<feColorMatrix type="matrix" values="0 0 0 0 0.667568 0 0 0 0 0.789405 0 0 0 0 0.932432 0 0 0 1 0"/>
<feBlend mode="normal" in2="BackgroundImageFix" result="effect1_dropShadow_241_272"/>
<feBlend mode="normal" in="SourceGraphic" in2="effect1_dropShadow_241_272" result="shape"/>
</filter>
<filter id="filter2_d_241_272" x="0.5" y="248" width="192" height="192" filterUnits="userSpaceOnUse" color-interpolation-filters="sRGB">
<feFlood flood-opacity="0" result="BackgroundImageFix"/>
<feColorMatrix in="SourceAlpha" type="matrix" values="0 0 0 0 0 0 0 0 0 0 0 0 0 0 0 0 0 0 127 0" result="hardAlpha"/>
<feOffset dx="4" dy="4"/>
<feComposite in2="hardAlpha" operator="out"/>
<feColorMatrix type="matrix" values="0 0 0 0 0.932432 0 0 0 0 0.842378 0 0 0 0 0.667568 0 0 0 1 0"/>
<feBlend mode="normal" in2="BackgroundImageFix" result="effect1_dropShadow_241_272"/>
<feBlend mode="normal" in="SourceGraphic" in2="effect1_dropShadow_241_272" result="shape"/>
</filter>
</defs>
</svg>
