<svg width="405" height="398" viewBox="0 0 405 398" fill="none" xmlns="http://www.w3.org/2000/svg">
<g filter="url(#filter0_d_140_789)">
<rect x="0.5" y="157" width="80" height="80" rx="16" fill="white" shape-rendering="crispEdges"/>
<rect x="1" y="157.5" width="79" height="79" rx="15.5" stroke="#212528" shape-rendering="crispEdges"/>
<path fill-rule="evenodd" clip-rule="evenodd" d="M49.972 219.753L49.865 178.624C49.588 178.346 49.0477 178.43 48.8365 178.492L47.4294 178.928C47.2557 178.356 47.0303 177.802 46.756 177.271C45.7576 175.365 44.2984 174.357 42.532 174.354H42.5265C42.4086 174.354 42.292 174.365 42.1741 174.375L42.1603 174.376C42.1093 174.313 42.0562 174.252 42.0013 174.192C41.2333 173.37 40.2458 172.968 39.0637 173.002C36.7843 173.068 34.5146 174.716 32.6728 177.644C31.3768 179.706 30.3935 182.293 30.1123 184.297L25.6237 185.689C24.303 186.105 24.2618 186.146 24.0877 187.392C23.9574 188.336 20.5 215.105 20.5 215.105L49.4755 220.122L49.972 219.751V219.753ZM40.479 174.882C40.0936 174.629 39.6424 174.511 39.1075 174.522C35.5885 174.623 32.5192 180.127 31.7361 183.794L35.1071 182.749L35.7091 182.562C36.1507 180.234 37.2589 177.817 38.7085 176.262C39.2153 175.705 39.8136 175.238 40.4776 174.882H40.479ZM37.3754 182.045L42.2138 180.545C42.2289 179.283 42.0918 177.418 41.4609 176.101C40.7889 176.378 40.2239 176.864 39.8179 177.299C38.7304 178.469 37.8431 180.253 37.3768 182.045H37.3754ZM43.7293 180.076L45.9784 179.378C45.6191 178.209 44.7661 176.251 43.0367 175.922C43.5743 177.311 43.7128 178.92 43.7293 180.076Z" fill="#95BF47"/>
<path d="M56.4644 181.683C56.2916 181.669 52.9426 181.617 52.9426 181.617C52.9426 181.617 50.1407 178.894 49.8637 178.615C49.7564 178.516 49.6206 178.454 49.4756 178.437V220.115L62.031 216.989C62.031 216.989 56.9074 182.304 56.8744 182.067C56.8586 181.966 56.8095 181.874 56.7349 181.804C56.6603 181.735 56.5646 181.692 56.463 181.683H56.4644Z" fill="#5E8E3E"/>
<path d="M42.5169 188.155L41.0577 193.619C41.0577 193.619 39.4312 192.877 37.5016 192.999C34.6737 193.177 34.6435 194.964 34.6723 195.413C34.8259 197.854 41.2456 198.389 41.6062 204.111C41.8901 208.614 39.2213 211.695 35.3758 211.937C30.761 212.229 28.2197 209.503 28.2197 209.503L29.1976 205.336C29.1976 205.336 31.7553 207.269 33.8014 207.138C35.14 207.055 35.6172 205.966 35.5692 205.195C35.3676 202.009 30.1397 202.196 29.8092 196.959C29.5322 192.55 32.4218 188.086 38.8003 187.683C41.2579 187.527 42.5169 188.156 42.5169 188.156" fill="white"/>
</g>
<g filter="url(#filter1_d_140_789)">
<rect x="104.5" y="157" width="296" height="80" rx="16" fill="white" shape-rendering="crispEdges"/>
<rect x="105" y="157.5" width="295" height="79" rx="15.5" stroke="#212528" shape-rendering="crispEdges"/>
<g clip-path="url(#clip0_140_789)">
<path d="M144.054 199.206C142.846 198.551 142.226 197.998 142.226 197.239C142.226 196.274 143.088 195.653 144.434 195.653C146 195.653 147.399 196.308 147.399 196.308L148.502 192.928C148.502 192.928 147.488 192.135 144.502 192.135C140.347 192.135 137.467 194.514 137.467 197.86C137.467 199.757 138.811 201.205 140.605 202.239C142.054 203.066 142.571 203.653 142.571 204.515C142.571 205.411 141.847 206.135 140.503 206.135C138.499 206.135 136.606 205.1 136.606 205.1L135.434 208.48C135.434 208.48 137.182 209.653 140.124 209.653C144.4 209.653 147.469 207.549 147.469 203.756C147.468 201.723 145.917 200.274 144.054 199.206Z" fill="black"/>
<path d="M161.09 192.101C158.986 192.101 157.331 193.102 156.055 194.619L155.986 194.584L157.814 185.032H153.054L148.434 209.344H153.193L154.779 201.033C155.399 197.895 157.02 195.964 158.538 195.964C159.606 195.964 160.021 196.689 160.021 197.724C160.021 198.379 159.952 199.172 159.814 199.827L158.021 209.345H162.781L164.643 199.516C164.85 198.481 164.988 197.241 164.988 196.412C164.986 193.722 163.572 192.101 161.09 192.101Z" fill="black"/>
<path d="M175.746 192.102C170.021 192.102 166.229 197.274 166.229 203.033C166.229 206.723 168.504 209.688 172.781 209.688C178.402 209.688 182.195 204.654 182.195 198.757C182.195 195.343 180.194 192.102 175.746 192.102ZM173.401 206.034C171.78 206.034 171.09 204.655 171.09 202.93C171.09 200.206 172.505 195.758 175.091 195.758C176.781 195.758 177.331 197.206 177.331 198.62C177.331 201.551 175.919 206.034 173.401 206.034Z" fill="black"/>
<path d="M194.368 192.102C191.156 192.102 189.333 194.929 189.333 194.929H189.265L189.541 192.378H185.334C185.127 194.102 184.747 196.722 184.368 198.688L181.058 216.103H185.817L187.126 209.068H187.231C187.231 209.068 188.207 209.688 190.024 209.688C195.61 209.688 199.265 203.964 199.265 198.17C199.265 194.964 197.851 192.102 194.368 192.102ZM189.816 206.102C188.581 206.102 187.85 205.413 187.85 205.413L188.643 200.964C189.195 197.999 190.747 196.033 192.403 196.033C193.851 196.033 194.299 197.377 194.299 198.654C194.299 201.723 192.471 206.102 189.816 206.102Z" fill="black"/>
<path d="M206.059 185.273C204.542 185.273 203.335 186.48 203.335 188.032C203.335 189.445 204.231 190.411 205.576 190.411H205.645C207.128 190.411 208.404 189.411 208.439 187.653C208.439 186.273 207.507 185.273 206.059 185.273Z" fill="black"/>
<path d="M199.403 209.344H204.161L207.404 192.481H202.61L199.403 209.344Z" fill="black"/>
<path d="M219.509 192.447H216.198L216.37 191.653C216.646 190.032 217.612 188.584 219.198 188.584C220.044 188.584 220.715 188.825 220.715 188.825L221.646 185.101C221.646 185.101 220.818 184.688 219.059 184.688C217.369 184.688 215.68 185.17 214.404 186.274C212.783 187.653 212.024 189.652 211.645 191.653L211.508 192.447H209.3L208.61 196.034H210.818L208.301 209.345H213.06L215.578 196.034H218.854L219.509 192.447Z" fill="black"/>
<path d="M230.957 192.482C230.957 192.482 227.982 199.977 226.646 204.068H226.577C226.486 202.75 225.404 192.482 225.404 192.482H220.404L223.267 207.964C223.337 208.309 223.302 208.517 223.164 208.758C222.611 209.827 221.68 210.862 220.577 211.621C219.68 212.275 218.68 212.689 217.888 212.965L219.198 217C220.164 216.793 222.163 216 223.853 214.414C226.026 212.379 228.025 209.241 230.094 204.964L235.922 192.48H230.957V192.482Z" fill="black"/>
</g>
<path d="M249.051 188.045V205.5H246.418V188.045H249.051ZM255.23 197.727V205.5H252.682V192.409H255.128V194.54H255.29C255.591 193.847 256.063 193.29 256.705 192.869C257.352 192.449 258.168 192.239 259.151 192.239C260.043 192.239 260.824 192.426 261.494 192.801C262.165 193.17 262.685 193.722 263.054 194.455C263.423 195.187 263.608 196.094 263.608 197.173V205.5H261.06V197.48C261.06 196.531 260.813 195.79 260.318 195.256C259.824 194.716 259.145 194.446 258.281 194.446C257.69 194.446 257.165 194.574 256.705 194.83C256.25 195.085 255.889 195.46 255.622 195.955C255.361 196.443 255.23 197.034 255.23 197.727ZM273.136 192.409V194.455H265.986V192.409H273.136ZM267.903 189.273H270.452V201.656C270.452 202.151 270.526 202.523 270.673 202.773C270.821 203.017 271.011 203.185 271.244 203.276C271.483 203.361 271.741 203.403 272.02 203.403C272.224 203.403 272.403 203.389 272.557 203.361C272.71 203.332 272.83 203.31 272.915 203.293L273.375 205.398C273.227 205.455 273.017 205.511 272.744 205.568C272.472 205.631 272.131 205.665 271.722 205.67C271.051 205.682 270.426 205.562 269.847 205.312C269.267 205.062 268.798 204.676 268.44 204.153C268.082 203.631 267.903 202.974 267.903 202.185V189.273ZM281.457 205.764C280.167 205.764 279.056 205.489 278.124 204.938C277.198 204.381 276.482 203.599 275.977 202.594C275.477 201.582 275.227 200.398 275.227 199.04C275.227 197.699 275.477 196.517 275.977 195.494C276.482 194.472 277.187 193.673 278.09 193.099C278.999 192.526 280.062 192.239 281.278 192.239C282.016 192.239 282.732 192.361 283.425 192.605C284.119 192.849 284.741 193.233 285.292 193.756C285.843 194.278 286.278 194.957 286.596 195.793C286.914 196.622 287.073 197.631 287.073 198.818V199.722H276.667V197.812H284.576C284.576 197.142 284.44 196.548 284.167 196.031C283.894 195.509 283.511 195.097 283.016 194.795C282.528 194.494 281.954 194.344 281.295 194.344C280.579 194.344 279.954 194.52 279.42 194.872C278.891 195.219 278.482 195.673 278.192 196.236C277.908 196.793 277.766 197.398 277.766 198.051V199.543C277.766 200.418 277.92 201.162 278.227 201.776C278.539 202.389 278.974 202.858 279.531 203.182C280.087 203.5 280.738 203.659 281.482 203.659C281.965 203.659 282.406 203.591 282.803 203.455C283.201 203.312 283.545 203.102 283.835 202.824C284.124 202.545 284.346 202.202 284.499 201.793L286.911 202.227C286.718 202.937 286.371 203.56 285.871 204.094C285.377 204.622 284.755 205.034 284.005 205.33C283.261 205.619 282.411 205.764 281.457 205.764ZM295.389 210.682C294.349 210.682 293.455 210.545 292.705 210.273C291.96 210 291.352 209.639 290.881 209.19C290.409 208.741 290.057 208.25 289.824 207.716L292.014 206.812C292.168 207.062 292.372 207.327 292.628 207.605C292.889 207.889 293.241 208.131 293.685 208.33C294.134 208.528 294.71 208.628 295.415 208.628C296.381 208.628 297.179 208.392 297.81 207.92C298.44 207.455 298.756 206.71 298.756 205.688V203.114H298.594C298.44 203.392 298.219 203.702 297.929 204.043C297.645 204.384 297.253 204.679 296.753 204.929C296.253 205.179 295.602 205.304 294.801 205.304C293.767 205.304 292.835 205.062 292.006 204.58C291.182 204.091 290.528 203.372 290.045 202.423C289.568 201.469 289.33 200.295 289.33 198.903C289.33 197.511 289.565 196.318 290.037 195.324C290.514 194.33 291.168 193.568 291.997 193.04C292.827 192.506 293.767 192.239 294.818 192.239C295.631 192.239 296.287 192.375 296.787 192.648C297.287 192.915 297.676 193.227 297.955 193.585C298.239 193.943 298.457 194.259 298.611 194.531H298.798V192.409H301.295V205.79C301.295 206.915 301.034 207.838 300.511 208.56C299.989 209.281 299.281 209.815 298.389 210.162C297.503 210.509 296.503 210.682 295.389 210.682ZM295.364 203.19C296.097 203.19 296.716 203.02 297.222 202.679C297.733 202.332 298.119 201.838 298.381 201.196C298.648 200.548 298.781 199.773 298.781 198.869C298.781 197.989 298.651 197.213 298.389 196.543C298.128 195.872 297.744 195.349 297.239 194.974C296.733 194.594 296.108 194.403 295.364 194.403C294.597 194.403 293.957 194.602 293.446 195C292.935 195.392 292.548 195.926 292.287 196.602C292.031 197.278 291.903 198.034 291.903 198.869C291.903 199.727 292.034 200.48 292.295 201.128C292.557 201.776 292.943 202.281 293.455 202.645C293.972 203.009 294.608 203.19 295.364 203.19ZM304.713 205.5V192.409H307.176V194.489H307.312C307.551 193.784 307.972 193.23 308.574 192.827C309.182 192.418 309.869 192.213 310.636 192.213C310.795 192.213 310.983 192.219 311.199 192.23C311.42 192.241 311.594 192.256 311.719 192.273V194.71C311.616 194.682 311.435 194.651 311.173 194.616C310.912 194.577 310.651 194.557 310.389 194.557C309.787 194.557 309.25 194.685 308.778 194.94C308.313 195.19 307.943 195.54 307.67 195.989C307.398 196.432 307.261 196.937 307.261 197.506V205.5H304.713ZM317.616 205.79C316.787 205.79 316.037 205.636 315.366 205.33C314.696 205.017 314.165 204.565 313.773 203.974C313.386 203.384 313.193 202.659 313.193 201.801C313.193 201.062 313.335 200.455 313.619 199.977C313.903 199.5 314.287 199.122 314.77 198.844C315.253 198.565 315.793 198.355 316.389 198.213C316.986 198.071 317.594 197.963 318.213 197.889C318.997 197.798 319.634 197.724 320.122 197.668C320.611 197.605 320.966 197.506 321.188 197.369C321.409 197.233 321.52 197.011 321.52 196.705V196.645C321.52 195.901 321.31 195.324 320.889 194.915C320.474 194.506 319.855 194.301 319.031 194.301C318.173 194.301 317.497 194.491 317.003 194.872C316.514 195.247 316.176 195.665 315.989 196.125L313.594 195.58C313.878 194.784 314.293 194.142 314.838 193.653C315.389 193.159 316.023 192.801 316.739 192.58C317.455 192.352 318.207 192.239 318.997 192.239C319.52 192.239 320.074 192.301 320.659 192.426C321.25 192.545 321.801 192.767 322.312 193.091C322.83 193.415 323.253 193.878 323.582 194.48C323.912 195.077 324.077 195.852 324.077 196.807V205.5H321.588V203.71H321.486C321.321 204.04 321.074 204.364 320.744 204.682C320.415 205 319.991 205.264 319.474 205.474C318.957 205.685 318.338 205.79 317.616 205.79ZM318.17 203.744C318.875 203.744 319.477 203.605 319.977 203.327C320.483 203.048 320.866 202.685 321.128 202.236C321.395 201.781 321.528 201.295 321.528 200.778V199.091C321.438 199.182 321.261 199.267 321 199.347C320.744 199.42 320.452 199.486 320.122 199.543C319.793 199.594 319.472 199.642 319.159 199.688C318.847 199.727 318.585 199.761 318.375 199.79C317.881 199.852 317.429 199.957 317.02 200.105C316.616 200.253 316.293 200.466 316.048 200.744C315.81 201.017 315.69 201.381 315.69 201.835C315.69 202.466 315.923 202.943 316.389 203.267C316.855 203.585 317.449 203.744 318.17 203.744ZM333.582 192.409V194.455H326.431V192.409H333.582ZM328.349 189.273H330.897V201.656C330.897 202.151 330.971 202.523 331.119 202.773C331.266 203.017 331.457 203.185 331.69 203.276C331.928 203.361 332.187 203.403 332.465 203.403C332.67 203.403 332.849 203.389 333.002 203.361C333.156 203.332 333.275 203.31 333.36 203.293L333.82 205.398C333.673 205.455 333.462 205.511 333.19 205.568C332.917 205.631 332.576 205.665 332.167 205.67C331.496 205.682 330.871 205.562 330.292 205.312C329.712 205.062 329.244 204.676 328.886 204.153C328.528 203.631 328.349 202.974 328.349 202.185V189.273ZM336.401 205.5V192.409H338.949V205.5H336.401ZM337.688 190.389C337.244 190.389 336.864 190.241 336.545 189.946C336.233 189.645 336.077 189.287 336.077 188.872C336.077 188.452 336.233 188.094 336.545 187.798C336.864 187.497 337.244 187.347 337.688 187.347C338.131 187.347 338.509 187.497 338.821 187.798C339.139 188.094 339.298 188.452 339.298 188.872C339.298 189.287 339.139 189.645 338.821 189.946C338.509 190.241 338.131 190.389 337.688 190.389ZM347.891 205.764C346.664 205.764 345.593 205.483 344.678 204.92C343.763 204.358 343.053 203.571 342.548 202.56C342.042 201.548 341.789 200.366 341.789 199.014C341.789 197.656 342.042 196.469 342.548 195.452C343.053 194.435 343.763 193.645 344.678 193.082C345.593 192.52 346.664 192.239 347.891 192.239C349.119 192.239 350.19 192.52 351.104 193.082C352.019 193.645 352.729 194.435 353.235 195.452C353.741 196.469 353.994 197.656 353.994 199.014C353.994 200.366 353.741 201.548 353.235 202.56C352.729 203.571 352.019 204.358 351.104 204.92C350.19 205.483 349.119 205.764 347.891 205.764ZM347.9 203.625C348.695 203.625 349.354 203.415 349.877 202.994C350.4 202.574 350.786 202.014 351.036 201.315C351.292 200.616 351.42 199.847 351.42 199.006C351.42 198.17 351.292 197.403 351.036 196.705C350.786 196 350.4 195.435 349.877 195.009C349.354 194.582 348.695 194.369 347.9 194.369C347.099 194.369 346.434 194.582 345.906 195.009C345.383 195.435 344.994 196 344.738 196.705C344.488 197.403 344.363 198.17 344.363 199.006C344.363 199.847 344.488 200.616 344.738 201.315C344.994 202.014 345.383 202.574 345.906 202.994C346.434 203.415 347.099 203.625 347.9 203.625ZM359.386 197.727V205.5H356.838V192.409H359.284V194.54H359.446C359.747 193.847 360.219 193.29 360.861 192.869C361.509 192.449 362.324 192.239 363.307 192.239C364.199 192.239 364.98 192.426 365.651 192.801C366.321 193.17 366.841 193.722 367.21 194.455C367.58 195.187 367.764 196.094 367.764 197.173V205.5H365.216V197.48C365.216 196.531 364.969 195.79 364.474 195.256C363.98 194.716 363.301 194.446 362.438 194.446C361.847 194.446 361.321 194.574 360.861 194.83C360.406 195.085 360.045 195.46 359.778 195.955C359.517 196.443 359.386 197.034 359.386 197.727Z" fill="#212528"/>
</g>
<g filter="url(#filter2_d_140_789)">
<rect x="0.5" width="188" height="133" rx="16" fill="white" shape-rendering="crispEdges"/>
<rect x="1" y="0.5" width="187" height="132" rx="15.5" stroke="#212528" shape-rendering="crispEdges"/>
<path d="M109.5 31L106.5 28L103.5 31L100.5 28L97.5 31L94.5 28L91.5 31L88.5 28L85.5 31L82.5 28V56H76.5V62C76.5 65.32 79.18 68 82.5 68H106.5C109.82 68 112.5 65.32 112.5 62V28L109.5 31ZM100.5 64H82.5C81.4 64 80.5 63.1 80.5 62V60H100.5V64ZM108.5 62C108.5 63.1 107.6 64 106.5 64C105.4 64 104.5 63.1 104.5 62V56H86.5V34H108.5V62Z" fill="#0080FF"/>
<path d="M100.5 38H88.5V42H100.5V38Z" fill="#0080FF"/>
<path d="M106.5 38H102.5V42H106.5V38Z" fill="#0080FF"/>
<path d="M100.5 44H88.5V48H100.5V44Z" fill="#0080FF"/>
<path d="M106.5 44H102.5V48H106.5V44Z" fill="#0080FF"/>
<path d="M58.2347 85.5455V103H55.6012V85.5455H58.2347ZM64.4137 95.2273V103H61.8654V89.9091H64.3114V92.0398H64.4734C64.7745 91.3466 65.2461 90.7898 65.8881 90.3693C66.5359 89.9489 67.3512 89.7386 68.3342 89.7386C69.2262 89.7386 70.0075 89.9261 70.6779 90.3011C71.3484 90.6705 71.8683 91.2216 72.2376 91.9545C72.6069 92.6875 72.7915 93.5937 72.7915 94.6733V103H70.2433V94.9801C70.2433 94.0312 69.9961 93.2898 69.5018 92.7557C69.0075 92.2159 68.3285 91.946 67.4648 91.946C66.8739 91.946 66.3484 92.0739 65.8881 92.3295C65.4336 92.5852 65.0728 92.9602 64.8058 93.4545C64.5444 93.9432 64.4137 94.5341 64.4137 95.2273ZM86.9393 89.9091L82.1921 103H79.4648L74.7092 89.9091H77.445L80.7603 99.983H80.8967L84.2035 89.9091H86.9393ZM94.4031 103.264C93.1758 103.264 92.1048 102.983 91.19 102.42C90.2752 101.858 89.565 101.071 89.0593 100.06C88.5536 99.0483 88.3008 97.8665 88.3008 96.5142C88.3008 95.1562 88.5536 93.9687 89.0593 92.9517C89.565 91.9347 90.2752 91.1449 91.19 90.5824C92.1048 90.0199 93.1758 89.7386 94.4031 89.7386C95.6303 89.7386 96.7013 90.0199 97.6161 90.5824C98.5309 91.1449 99.2411 91.9347 99.7468 92.9517C100.252 93.9687 100.505 95.1562 100.505 96.5142C100.505 97.8665 100.252 99.0483 99.7468 100.06C99.2411 101.071 98.5309 101.858 97.6161 102.42C96.7013 102.983 95.6303 103.264 94.4031 103.264ZM94.4116 101.125C95.207 101.125 95.8661 100.915 96.3888 100.494C96.9116 100.074 97.2979 99.5142 97.5479 98.8153C97.8036 98.1165 97.9315 97.3466 97.9315 96.5057C97.9315 95.6705 97.8036 94.9034 97.5479 94.2045C97.2979 93.5 96.9116 92.9347 96.3888 92.5085C95.8661 92.0824 95.207 91.8693 94.4116 91.8693C93.6104 91.8693 92.9457 92.0824 92.4173 92.5085C91.8945 92.9347 91.5053 93.5 91.2496 94.2045C90.9996 94.9034 90.8746 95.6705 90.8746 96.5057C90.8746 97.3466 90.9996 98.1165 91.2496 98.8153C91.5053 99.5142 91.8945 100.074 92.4173 100.494C92.9457 100.915 93.6104 101.125 94.4116 101.125ZM103.35 103V89.9091H105.898V103H103.35ZM104.637 87.8892C104.194 87.8892 103.813 87.7415 103.495 87.446C103.182 87.1449 103.026 86.7869 103.026 86.3722C103.026 85.9517 103.182 85.5937 103.495 85.2983C103.813 84.9972 104.194 84.8466 104.637 84.8466C105.08 84.8466 105.458 84.9972 105.77 85.2983C106.088 85.5937 106.248 85.9517 106.248 86.3722C106.248 86.7869 106.088 87.1449 105.77 87.446C105.458 87.7415 105.08 87.8892 104.637 87.8892ZM114.841 103.264C113.574 103.264 112.483 102.977 111.568 102.403C110.659 101.824 109.96 101.026 109.471 100.009C108.983 98.9915 108.738 97.8267 108.738 96.5142C108.738 95.1847 108.988 94.0114 109.488 92.9943C109.988 91.9716 110.693 91.1733 111.602 90.5994C112.511 90.0256 113.582 89.7386 114.815 89.7386C115.809 89.7386 116.696 89.9233 117.474 90.2926C118.252 90.6562 118.88 91.1676 119.358 91.8267C119.841 92.4858 120.127 93.2557 120.218 94.1364H117.738C117.602 93.5227 117.289 92.9943 116.801 92.5511C116.318 92.108 115.67 91.8864 114.858 91.8864C114.147 91.8864 113.525 92.0739 112.991 92.4489C112.463 92.8182 112.051 93.3466 111.755 94.0341C111.46 94.7159 111.312 95.5227 111.312 96.4545C111.312 97.4091 111.457 98.233 111.747 98.9261C112.037 99.6193 112.446 100.156 112.974 100.537C113.508 100.918 114.136 101.108 114.858 101.108C115.341 101.108 115.778 101.02 116.17 100.844C116.568 100.662 116.9 100.403 117.167 100.068C117.44 99.733 117.63 99.3295 117.738 98.858H120.218C120.127 99.7045 119.852 100.46 119.392 101.125C118.931 101.79 118.315 102.312 117.542 102.693C116.775 103.074 115.875 103.264 114.841 103.264ZM128.586 103.264C127.296 103.264 126.185 102.989 125.253 102.438C124.327 101.881 123.611 101.099 123.105 100.094C122.605 99.0824 122.355 97.8977 122.355 96.5398C122.355 95.1989 122.605 94.017 123.105 92.9943C123.611 91.9716 124.316 91.1733 125.219 90.5994C126.128 90.0256 127.191 89.7386 128.407 89.7386C129.145 89.7386 129.861 89.8608 130.554 90.1051C131.248 90.3494 131.87 90.733 132.421 91.2557C132.972 91.7784 133.407 92.4574 133.725 93.2926C134.043 94.1222 134.202 95.1307 134.202 96.3182V97.2216H123.796V95.3125H131.705C131.705 94.642 131.569 94.0483 131.296 93.5312C131.023 93.0085 130.64 92.5966 130.145 92.2955C129.657 91.9943 129.083 91.8438 128.424 91.8438C127.708 91.8438 127.083 92.0199 126.549 92.3722C126.02 92.7187 125.611 93.1733 125.321 93.7358C125.037 94.2926 124.895 94.8977 124.895 95.5511V97.0426C124.895 97.9176 125.049 98.6619 125.355 99.2756C125.668 99.8892 126.103 100.358 126.659 100.682C127.216 101 127.867 101.159 128.611 101.159C129.094 101.159 129.534 101.091 129.932 100.955C130.33 100.812 130.674 100.602 130.963 100.324C131.253 100.045 131.475 99.7017 131.628 99.2926L134.04 99.7273C133.847 100.437 133.5 101.06 133 101.594C132.506 102.122 131.884 102.534 131.134 102.83C130.39 103.119 129.54 103.264 128.586 103.264Z" fill="#212528"/>
</g>
<g filter="url(#filter3_d_140_789)">
<rect x="0.5" y="261" width="188" height="133" rx="16" fill="white" shape-rendering="crispEdges"/>
<rect x="1" y="261.5" width="187" height="132" rx="15.5" stroke="#212528" shape-rendering="crispEdges"/>
<path d="M110.5 293H78.5C76.28 293 74.52 294.78 74.52 297L74.5 321C74.5 323.22 76.28 325 78.5 325H110.5C112.72 325 114.5 323.22 114.5 321V297C114.5 294.78 112.72 293 110.5 293ZM110.5 321H78.5V309H110.5V321ZM110.5 301H78.5V297H110.5V301Z" fill="#F2800D"/>
<path d="M39.7926 364V346.545H46.0142C47.3722 346.545 48.4972 346.793 49.3892 347.287C50.2813 347.781 50.9489 348.457 51.392 349.315C51.8352 350.168 52.0568 351.128 52.0568 352.196C52.0568 353.27 51.8324 354.236 51.3835 355.094C50.9403 355.946 50.2699 356.622 49.3722 357.122C48.4801 357.616 47.358 357.864 46.0057 357.864H41.7273V355.631H45.767C46.625 355.631 47.321 355.483 47.8551 355.188C48.3892 354.886 48.7812 354.477 49.0312 353.96C49.2812 353.443 49.4062 352.855 49.4062 352.196C49.4062 351.537 49.2812 350.952 49.0312 350.44C48.7812 349.929 48.3864 349.528 47.8466 349.239C47.3125 348.949 46.608 348.804 45.733 348.804H42.4261V364H39.7926ZM58.6321 364.29C57.8026 364.29 57.0526 364.136 56.3821 363.83C55.7116 363.517 55.1804 363.065 54.7884 362.474C54.402 361.884 54.2088 361.159 54.2088 360.301C54.2088 359.562 54.3509 358.955 54.6349 358.477C54.919 358 55.3026 357.622 55.7855 357.344C56.2685 357.065 56.8082 356.855 57.4048 356.713C58.0014 356.571 58.6094 356.463 59.2287 356.389C60.0128 356.298 60.6491 356.224 61.1378 356.168C61.6264 356.105 61.9815 356.006 62.2031 355.869C62.4247 355.733 62.5355 355.511 62.5355 355.205V355.145C62.5355 354.401 62.3253 353.824 61.9048 353.415C61.4901 353.006 60.8707 352.801 60.0469 352.801C59.1889 352.801 58.5128 352.991 58.0185 353.372C57.5298 353.747 57.1918 354.165 57.0043 354.625L54.6094 354.08C54.8935 353.284 55.3082 352.642 55.8537 352.153C56.4048 351.659 57.0384 351.301 57.7543 351.08C58.4702 350.852 59.223 350.739 60.0128 350.739C60.5355 350.739 61.0895 350.801 61.6747 350.926C62.2656 351.045 62.8168 351.267 63.3281 351.591C63.8452 351.915 64.2685 352.378 64.598 352.98C64.9276 353.577 65.0923 354.352 65.0923 355.307V364H62.6037V362.21H62.5014C62.3366 362.54 62.0895 362.864 61.7599 363.182C61.4304 363.5 61.0071 363.764 60.4901 363.974C59.973 364.185 59.3537 364.29 58.6321 364.29ZM59.1861 362.244C59.8906 362.244 60.4929 362.105 60.9929 361.827C61.4986 361.548 61.8821 361.185 62.1435 360.736C62.4105 360.281 62.544 359.795 62.544 359.278V357.591C62.4531 357.682 62.277 357.767 62.0156 357.847C61.7599 357.92 61.4673 357.986 61.1378 358.043C60.8082 358.094 60.4872 358.142 60.1747 358.188C59.8622 358.227 59.6009 358.261 59.3906 358.29C58.8963 358.352 58.4446 358.457 58.0355 358.605C57.6321 358.753 57.3082 358.966 57.0639 359.244C56.8253 359.517 56.706 359.881 56.706 360.335C56.706 360.966 56.9389 361.443 57.4048 361.767C57.8707 362.085 58.4645 362.244 59.1861 362.244ZM69.6286 368.909C69.2479 368.909 68.9013 368.878 68.5888 368.815C68.2763 368.759 68.0433 368.696 67.8899 368.628L68.5036 366.54C68.9695 366.665 69.3842 366.719 69.7479 366.702C70.1115 366.685 70.4325 366.548 70.7109 366.293C70.995 366.037 71.245 365.619 71.4609 365.04L71.7763 364.17L66.9865 350.909H69.7138L73.0291 361.068H73.1655L76.4808 350.909H79.2166L73.8217 365.747C73.5717 366.429 73.2536 367.006 72.8672 367.477C72.4808 367.955 72.0206 368.313 71.4865 368.551C70.9524 368.79 70.3331 368.909 69.6286 368.909ZM81.6115 364V350.909H84.0575V353.04H84.2195C84.4922 352.318 84.9382 351.756 85.5575 351.352C86.1768 350.943 86.9183 350.739 87.782 350.739C88.657 350.739 89.3899 350.943 89.9808 351.352C90.5774 351.761 91.0178 352.324 91.3018 353.04H91.4382C91.7507 352.341 92.2479 351.784 92.9297 351.369C93.6115 350.949 94.424 350.739 95.3672 350.739C96.5547 350.739 97.5234 351.111 98.2734 351.855C99.0291 352.599 99.407 353.722 99.407 355.222V364H96.8587V355.46C96.8587 354.574 96.6172 353.932 96.1342 353.534C95.6513 353.136 95.0746 352.938 94.4041 352.938C93.5746 352.938 92.9297 353.193 92.4695 353.705C92.0092 354.21 91.7791 354.861 91.7791 355.656V364H89.2393V355.298C89.2393 354.588 89.0178 354.017 88.5746 353.585C88.1314 353.153 87.5547 352.938 86.8445 352.938C86.3615 352.938 85.9155 353.065 85.5064 353.321C85.103 353.571 84.7763 353.92 84.5263 354.369C84.282 354.818 84.1598 355.338 84.1598 355.929V364H81.6115ZM108.464 364.264C107.175 364.264 106.064 363.989 105.132 363.438C104.206 362.881 103.49 362.099 102.984 361.094C102.484 360.082 102.234 358.898 102.234 357.54C102.234 356.199 102.484 355.017 102.984 353.994C103.49 352.972 104.195 352.173 105.098 351.599C106.007 351.026 107.07 350.739 108.286 350.739C109.024 350.739 109.74 350.861 110.433 351.105C111.126 351.349 111.749 351.733 112.3 352.256C112.851 352.778 113.286 353.457 113.604 354.293C113.922 355.122 114.081 356.131 114.081 357.318V358.222H103.675V356.312H111.584C111.584 355.642 111.447 355.048 111.175 354.531C110.902 354.009 110.518 353.597 110.024 353.295C109.536 352.994 108.962 352.844 108.303 352.844C107.587 352.844 106.962 353.02 106.428 353.372C105.899 353.719 105.49 354.173 105.2 354.736C104.916 355.293 104.774 355.898 104.774 356.551V358.043C104.774 358.918 104.928 359.662 105.234 360.276C105.547 360.889 105.982 361.358 106.538 361.682C107.095 362 107.746 362.159 108.49 362.159C108.973 362.159 109.413 362.091 109.811 361.955C110.209 361.812 110.553 361.602 110.842 361.324C111.132 361.045 111.354 360.702 111.507 360.293L113.919 360.727C113.726 361.437 113.379 362.06 112.879 362.594C112.385 363.122 111.763 363.534 111.013 363.83C110.268 364.119 109.419 364.264 108.464 364.264ZM119.457 356.227V364H116.908V350.909H119.354V353.04H119.516C119.817 352.347 120.289 351.79 120.931 351.369C121.579 350.949 122.394 350.739 123.377 350.739C124.269 350.739 125.05 350.926 125.721 351.301C126.391 351.67 126.911 352.222 127.281 352.955C127.65 353.687 127.835 354.594 127.835 355.673V364H125.286V355.98C125.286 355.031 125.039 354.29 124.545 353.756C124.05 353.216 123.371 352.946 122.508 352.946C121.917 352.946 121.391 353.074 120.931 353.33C120.477 353.585 120.116 353.96 119.849 354.455C119.587 354.943 119.457 355.534 119.457 356.227ZM137.363 350.909V352.955H130.212V350.909H137.363ZM132.13 347.773H134.678V360.156C134.678 360.651 134.752 361.023 134.9 361.273C135.048 361.517 135.238 361.685 135.471 361.776C135.71 361.861 135.968 361.903 136.246 361.903C136.451 361.903 136.63 361.889 136.783 361.861C136.937 361.832 137.056 361.81 137.141 361.793L137.602 363.898C137.454 363.955 137.244 364.011 136.971 364.068C136.698 364.131 136.357 364.165 135.948 364.17C135.278 364.182 134.653 364.062 134.073 363.812C133.494 363.562 133.025 363.176 132.667 362.653C132.309 362.131 132.13 361.474 132.13 360.685V347.773ZM149.781 354.105L147.471 354.514C147.374 354.219 147.221 353.937 147.011 353.67C146.806 353.403 146.528 353.185 146.175 353.014C145.823 352.844 145.383 352.759 144.854 352.759C144.133 352.759 143.531 352.92 143.048 353.244C142.565 353.562 142.323 353.974 142.323 354.48C142.323 354.918 142.485 355.27 142.809 355.537C143.133 355.804 143.656 356.023 144.377 356.193L146.457 356.67C147.661 356.949 148.559 357.378 149.15 357.957C149.741 358.537 150.036 359.29 150.036 360.216C150.036 361 149.809 361.699 149.354 362.312C148.906 362.92 148.278 363.398 147.471 363.744C146.67 364.091 145.741 364.264 144.684 364.264C143.218 364.264 142.022 363.952 141.096 363.327C140.17 362.696 139.602 361.801 139.391 360.642L141.854 360.267C142.008 360.909 142.323 361.395 142.8 361.724C143.278 362.048 143.9 362.21 144.667 362.21C145.502 362.21 146.17 362.037 146.67 361.69C147.17 361.338 147.42 360.909 147.42 360.403C147.42 359.994 147.266 359.651 146.96 359.372C146.658 359.094 146.195 358.884 145.57 358.741L143.354 358.256C142.133 357.977 141.229 357.534 140.644 356.926C140.065 356.318 139.775 355.548 139.775 354.616C139.775 353.844 139.991 353.168 140.423 352.588C140.854 352.009 141.451 351.557 142.212 351.233C142.974 350.903 143.846 350.739 144.829 350.739C146.244 350.739 147.357 351.045 148.17 351.659C148.982 352.267 149.519 353.082 149.781 354.105Z" fill="#212528"/>
</g>
<g filter="url(#filter4_d_140_789)">
<rect x="212.5" width="188" height="133" rx="16" fill="white" shape-rendering="crispEdges"/>
<rect x="213" y="0.5" width="187" height="132" rx="15.5" stroke="#212528" shape-rendering="crispEdges"/>
<path d="M291 36H295V42H315V36H319V46H323V36C323 33.8 321.2 32 319 32H310.64C309.8 29.68 307.6 28 305 28C302.4 28 300.2 29.68 299.36 32H291C288.8 32 287 33.8 287 36V64C287 66.2 288.8 68 291 68H303V64H291V36ZM305 32C306.1 32 307 32.9 307 34C307 35.1 306.1 36 305 36C303.9 36 303 35.1 303 34C303 32.9 303.9 32 305 32Z" fill="#F2800D"/>
<path d="M323 49L312.02 60L306 54L303 57L312.02 66L326 52L323 49Z" fill="#F2800D"/>
<path d="M256.864 85.5455V103H254.23V85.5455H256.864ZM263.043 95.2273V103H260.494V89.9091H262.94V92.0398H263.102C263.403 91.3466 263.875 90.7898 264.517 90.3693C265.165 89.9489 265.98 89.7386 266.963 89.7386C267.855 89.7386 268.636 89.9261 269.307 90.3011C269.977 90.6705 270.497 91.2216 270.866 91.9545C271.236 92.6875 271.42 93.5937 271.42 94.6733V103H268.872V94.9801C268.872 94.0312 268.625 93.2898 268.131 92.7557C267.636 92.2159 266.957 91.946 266.094 91.946C265.503 91.946 264.977 92.0739 264.517 92.3295C264.063 92.5852 263.702 92.9602 263.435 93.4545C263.173 93.9432 263.043 94.5341 263.043 95.2273ZM285.568 89.9091L280.821 103H278.094L273.338 89.9091H276.074L279.389 99.983H279.526L282.832 89.9091H285.568ZM293.16 103.264C291.87 103.264 290.759 102.989 289.827 102.438C288.901 101.881 288.185 101.099 287.68 100.094C287.18 99.0824 286.93 97.8977 286.93 96.5398C286.93 95.1989 287.18 94.017 287.68 92.9943C288.185 91.9716 288.89 91.1733 289.793 90.5994C290.702 90.0256 291.765 89.7386 292.981 89.7386C293.719 89.7386 294.435 89.8608 295.129 90.1051C295.822 90.3494 296.444 90.733 296.995 91.2557C297.546 91.7784 297.981 92.4574 298.299 93.2926C298.617 94.1222 298.776 95.1307 298.776 96.3182V97.2216H288.37V95.3125H296.279C296.279 94.642 296.143 94.0483 295.87 93.5312C295.597 93.0085 295.214 92.5966 294.719 92.2955C294.231 91.9943 293.657 91.8438 292.998 91.8438C292.282 91.8438 291.657 92.0199 291.123 92.3722C290.594 92.7187 290.185 93.1733 289.896 93.7358C289.612 94.2926 289.469 94.8977 289.469 95.5511V97.0426C289.469 97.9176 289.623 98.6619 289.93 99.2756C290.242 99.8892 290.677 100.358 291.234 100.682C291.79 101 292.441 101.159 293.185 101.159C293.668 101.159 294.109 101.091 294.506 100.955C294.904 100.812 295.248 100.602 295.538 100.324C295.827 100.045 296.049 99.7017 296.202 99.2926L298.614 99.7273C298.421 100.437 298.075 101.06 297.575 101.594C297.08 102.122 296.458 102.534 295.708 102.83C294.964 103.119 294.114 103.264 293.16 103.264ZM304.152 95.2273V103H301.604V89.9091H304.05V92.0398H304.212C304.513 91.3466 304.984 90.7898 305.626 90.3693C306.274 89.9489 307.089 89.7386 308.072 89.7386C308.964 89.7386 309.746 89.9261 310.416 90.3011C311.087 90.6705 311.607 91.2216 311.976 91.9545C312.345 92.6875 312.53 93.5937 312.53 94.6733V103H309.982V94.9801C309.982 94.0312 309.734 93.2898 309.24 92.7557C308.746 92.2159 308.067 91.946 307.203 91.946C306.612 91.946 306.087 92.0739 305.626 92.3295C305.172 92.5852 304.811 92.9602 304.544 93.4545C304.283 93.9432 304.152 94.5341 304.152 95.2273ZM322.058 89.9091V91.9545H314.908V89.9091H322.058ZM316.825 86.7727H319.374V99.1562C319.374 99.6506 319.447 100.023 319.595 100.273C319.743 100.517 319.933 100.685 320.166 100.776C320.405 100.861 320.663 100.903 320.942 100.903C321.146 100.903 321.325 100.889 321.479 100.861C321.632 100.832 321.751 100.81 321.837 100.793L322.297 102.898C322.149 102.955 321.939 103.011 321.666 103.068C321.393 103.131 321.053 103.165 320.643 103.17C319.973 103.182 319.348 103.062 318.768 102.812C318.189 102.562 317.72 102.176 317.362 101.653C317.004 101.131 316.825 100.474 316.825 99.6847V86.7727ZM330.251 103.264C329.023 103.264 327.952 102.983 327.038 102.42C326.123 101.858 325.413 101.071 324.907 100.06C324.401 99.0483 324.148 97.8665 324.148 96.5142C324.148 95.1562 324.401 93.9687 324.907 92.9517C325.413 91.9347 326.123 91.1449 327.038 90.5824C327.952 90.0199 329.023 89.7386 330.251 89.7386C331.478 89.7386 332.549 90.0199 333.464 90.5824C334.379 91.1449 335.089 91.9347 335.594 92.9517C336.1 93.9687 336.353 95.1562 336.353 96.5142C336.353 97.8665 336.1 99.0483 335.594 100.06C335.089 101.071 334.379 101.858 333.464 102.42C332.549 102.983 331.478 103.264 330.251 103.264ZM330.259 101.125C331.055 101.125 331.714 100.915 332.237 100.494C332.759 100.074 333.146 99.5142 333.396 98.8153C333.651 98.1165 333.779 97.3466 333.779 96.5057C333.779 95.6705 333.651 94.9034 333.396 94.2045C333.146 93.5 332.759 92.9347 332.237 92.5085C331.714 92.0824 331.055 91.8693 330.259 91.8693C329.458 91.8693 328.793 92.0824 328.265 92.5085C327.742 92.9347 327.353 93.5 327.097 94.2045C326.847 94.9034 326.722 95.6705 326.722 96.5057C326.722 97.3466 326.847 98.1165 327.097 98.8153C327.353 99.5142 327.742 100.074 328.265 100.494C328.793 100.915 329.458 101.125 330.259 101.125ZM339.197 103V89.9091H341.661V91.9886H341.797C342.036 91.2841 342.456 90.7301 343.058 90.3267C343.666 89.9176 344.354 89.7131 345.121 89.7131C345.28 89.7131 345.467 89.7187 345.683 89.7301C345.905 89.7415 346.078 89.7557 346.203 89.7727V92.2102C346.101 92.1818 345.919 92.1506 345.658 92.1165C345.396 92.0767 345.135 92.0568 344.874 92.0568C344.271 92.0568 343.734 92.1847 343.263 92.4403C342.797 92.6903 342.428 93.0398 342.155 93.4886C341.882 93.9318 341.746 94.4375 341.746 95.0057V103H339.197ZM350.418 107.909C350.037 107.909 349.69 107.878 349.378 107.815C349.065 107.759 348.832 107.696 348.679 107.628L349.293 105.54C349.759 105.665 350.173 105.719 350.537 105.702C350.901 105.685 351.222 105.548 351.5 105.293C351.784 105.037 352.034 104.619 352.25 104.04L352.565 103.17L347.776 89.9091H350.503L353.818 100.068H353.955L357.27 89.9091H360.006L354.611 104.747C354.361 105.429 354.043 106.006 353.656 106.477C353.27 106.955 352.81 107.313 352.276 107.551C351.741 107.79 351.122 107.909 350.418 107.909Z" fill="#212528"/>
</g>
<g filter="url(#filter5_d_140_789)">
<rect x="212.5" y="261" width="188" height="133" rx="16" fill="white" shape-rendering="crispEdges"/>
<rect x="213" y="261.5" width="187" height="132" rx="15.5" stroke="#212528" shape-rendering="crispEdges"/>
<path d="M306.5 289C298.76 289 292.5 295.26 292.5 303C292.5 313.5 306.5 329 306.5 329C306.5 329 320.5 313.5 320.5 303C320.5 295.26 314.24 289 306.5 289ZM296.5 303C296.5 297.48 300.98 293 306.5 293C312.02 293 316.5 297.48 316.5 303C316.5 308.76 310.74 317.38 306.5 322.76C302.34 317.42 296.5 308.7 296.5 303Z" fill="#0080FF"/>
<path d="M306.5 308C309.261 308 311.5 305.761 311.5 303C311.5 300.239 309.261 298 306.5 298C303.739 298 301.5 300.239 301.5 303C301.5 305.761 303.739 308 306.5 308Z" fill="#0080FF"/>
<path d="M252.484 364V346.545H255.118V361.733H263.027V364H252.484ZM271.341 364.264C270.113 364.264 269.042 363.983 268.127 363.42C267.213 362.858 266.502 362.071 265.997 361.06C265.491 360.048 265.238 358.866 265.238 357.514C265.238 356.156 265.491 354.969 265.997 353.952C266.502 352.935 267.213 352.145 268.127 351.582C269.042 351.02 270.113 350.739 271.341 350.739C272.568 350.739 273.639 351.02 274.554 351.582C275.468 352.145 276.179 352.935 276.684 353.952C277.19 354.969 277.443 356.156 277.443 357.514C277.443 358.866 277.19 360.048 276.684 361.06C276.179 362.071 275.468 362.858 274.554 363.42C273.639 363.983 272.568 364.264 271.341 364.264ZM271.349 362.125C272.145 362.125 272.804 361.915 273.326 361.494C273.849 361.074 274.235 360.514 274.485 359.815C274.741 359.116 274.869 358.347 274.869 357.506C274.869 356.67 274.741 355.903 274.485 355.205C274.235 354.5 273.849 353.935 273.326 353.509C272.804 353.082 272.145 352.869 271.349 352.869C270.548 352.869 269.883 353.082 269.355 353.509C268.832 353.935 268.443 354.5 268.187 355.205C267.937 355.903 267.812 356.67 267.812 357.506C267.812 358.347 267.937 359.116 268.187 359.815C268.443 360.514 268.832 361.074 269.355 361.494C269.883 361.915 270.548 362.125 271.349 362.125ZM285.801 364.264C284.534 364.264 283.444 363.977 282.529 363.403C281.62 362.824 280.921 362.026 280.432 361.009C279.944 359.991 279.699 358.827 279.699 357.514C279.699 356.185 279.949 355.011 280.449 353.994C280.949 352.972 281.654 352.173 282.563 351.599C283.472 351.026 284.543 350.739 285.776 350.739C286.77 350.739 287.657 350.923 288.435 351.293C289.213 351.656 289.841 352.168 290.319 352.827C290.801 353.486 291.088 354.256 291.179 355.136H288.699C288.563 354.523 288.25 353.994 287.762 353.551C287.279 353.108 286.631 352.886 285.819 352.886C285.108 352.886 284.486 353.074 283.952 353.449C283.424 353.818 283.012 354.347 282.716 355.034C282.421 355.716 282.273 356.523 282.273 357.455C282.273 358.409 282.418 359.233 282.708 359.926C282.998 360.619 283.407 361.156 283.935 361.537C284.469 361.918 285.097 362.108 285.819 362.108C286.301 362.108 286.739 362.02 287.131 361.844C287.529 361.662 287.861 361.403 288.128 361.068C288.401 360.733 288.591 360.33 288.699 359.858H291.179C291.088 360.705 290.813 361.46 290.353 362.125C289.892 362.79 289.276 363.312 288.503 363.693C287.736 364.074 286.836 364.264 285.801 364.264ZM297.714 364.29C296.885 364.29 296.135 364.136 295.464 363.83C294.794 363.517 294.262 363.065 293.87 362.474C293.484 361.884 293.291 361.159 293.291 360.301C293.291 359.562 293.433 358.955 293.717 358.477C294.001 358 294.385 357.622 294.868 357.344C295.35 357.065 295.89 356.855 296.487 356.713C297.083 356.571 297.691 356.463 298.311 356.389C299.095 356.298 299.731 356.224 300.22 356.168C300.708 356.105 301.064 356.006 301.285 355.869C301.507 355.733 301.618 355.511 301.618 355.205V355.145C301.618 354.401 301.407 353.824 300.987 353.415C300.572 353.006 299.953 352.801 299.129 352.801C298.271 352.801 297.595 352.991 297.1 353.372C296.612 353.747 296.274 354.165 296.086 354.625L293.691 354.08C293.975 353.284 294.39 352.642 294.936 352.153C295.487 351.659 296.12 351.301 296.836 351.08C297.552 350.852 298.305 350.739 299.095 350.739C299.618 350.739 300.172 350.801 300.757 350.926C301.348 351.045 301.899 351.267 302.41 351.591C302.927 351.915 303.35 352.378 303.68 352.98C304.01 353.577 304.174 354.352 304.174 355.307V364H301.686V362.21H301.583C301.419 362.54 301.172 362.864 300.842 363.182C300.512 363.5 300.089 363.764 299.572 363.974C299.055 364.185 298.436 364.29 297.714 364.29ZM298.268 362.244C298.973 362.244 299.575 362.105 300.075 361.827C300.581 361.548 300.964 361.185 301.225 360.736C301.493 360.281 301.626 359.795 301.626 359.278V357.591C301.535 357.682 301.359 357.767 301.098 357.847C300.842 357.92 300.549 357.986 300.22 358.043C299.89 358.094 299.569 358.142 299.257 358.188C298.944 358.227 298.683 358.261 298.473 358.29C297.978 358.352 297.527 358.457 297.118 358.605C296.714 358.753 296.39 358.966 296.146 359.244C295.907 359.517 295.788 359.881 295.788 360.335C295.788 360.966 296.021 361.443 296.487 361.767C296.953 362.085 297.547 362.244 298.268 362.244ZM313.679 350.909V352.955H306.529V350.909H313.679ZM308.446 347.773H310.995V360.156C310.995 360.651 311.069 361.023 311.216 361.273C311.364 361.517 311.554 361.685 311.787 361.776C312.026 361.861 312.284 361.903 312.563 361.903C312.767 361.903 312.946 361.889 313.1 361.861C313.253 361.832 313.373 361.81 313.458 361.793L313.918 363.898C313.77 363.955 313.56 364.011 313.287 364.068C313.015 364.131 312.674 364.165 312.265 364.17C311.594 364.182 310.969 364.062 310.39 363.812C309.81 363.562 309.341 363.176 308.983 362.653C308.625 362.131 308.446 361.474 308.446 360.685V347.773ZM316.498 364V350.909H319.047V364H316.498ZM317.785 348.889C317.342 348.889 316.961 348.741 316.643 348.446C316.331 348.145 316.174 347.787 316.174 347.372C316.174 346.952 316.331 346.594 316.643 346.298C316.961 345.997 317.342 345.847 317.785 345.847C318.228 345.847 318.606 345.997 318.919 346.298C319.237 346.594 319.396 346.952 319.396 347.372C319.396 347.787 319.237 348.145 318.919 348.446C318.606 348.741 318.228 348.889 317.785 348.889ZM327.989 364.264C326.762 364.264 325.691 363.983 324.776 363.42C323.861 362.858 323.151 362.071 322.645 361.06C322.14 360.048 321.887 358.866 321.887 357.514C321.887 356.156 322.14 354.969 322.645 353.952C323.151 352.935 323.861 352.145 324.776 351.582C325.691 351.02 326.762 350.739 327.989 350.739C329.216 350.739 330.287 351.02 331.202 351.582C332.117 352.145 332.827 352.935 333.333 353.952C333.838 354.969 334.091 356.156 334.091 357.514C334.091 358.866 333.838 360.048 333.333 361.06C332.827 362.071 332.117 362.858 331.202 363.42C330.287 363.983 329.216 364.264 327.989 364.264ZM327.998 362.125C328.793 362.125 329.452 361.915 329.975 361.494C330.498 361.074 330.884 360.514 331.134 359.815C331.39 359.116 331.517 358.347 331.517 357.506C331.517 356.67 331.39 355.903 331.134 355.205C330.884 354.5 330.498 353.935 329.975 353.509C329.452 353.082 328.793 352.869 327.998 352.869C327.196 352.869 326.532 353.082 326.003 353.509C325.48 353.935 325.091 354.5 324.836 355.205C324.586 355.903 324.461 356.67 324.461 357.506C324.461 358.347 324.586 359.116 324.836 359.815C325.091 360.514 325.48 361.074 326.003 361.494C326.532 361.915 327.196 362.125 327.998 362.125ZM339.484 356.227V364H336.936V350.909H339.382V353.04H339.544C339.845 352.347 340.316 351.79 340.958 351.369C341.606 350.949 342.422 350.739 343.404 350.739C344.297 350.739 345.078 350.926 345.748 351.301C346.419 351.67 346.939 352.222 347.308 352.955C347.677 353.687 347.862 354.594 347.862 355.673V364H345.314V355.98C345.314 355.031 345.066 354.29 344.572 353.756C344.078 353.216 343.399 352.946 342.535 352.946C341.944 352.946 341.419 353.074 340.958 353.33C340.504 353.585 340.143 353.96 339.876 354.455C339.615 354.943 339.484 355.534 339.484 356.227ZM361.089 354.105L358.779 354.514C358.683 354.219 358.529 353.937 358.319 353.67C358.115 353.403 357.836 353.185 357.484 353.014C357.132 352.844 356.691 352.759 356.163 352.759C355.441 352.759 354.839 352.92 354.356 353.244C353.873 353.562 353.632 353.974 353.632 354.48C353.632 354.918 353.794 355.27 354.118 355.537C354.441 355.804 354.964 356.023 355.686 356.193L357.765 356.67C358.97 356.949 359.868 357.378 360.458 357.957C361.049 358.537 361.345 359.29 361.345 360.216C361.345 361 361.118 361.699 360.663 362.312C360.214 362.92 359.586 363.398 358.779 363.744C357.978 364.091 357.049 364.264 355.993 364.264C354.527 364.264 353.331 363.952 352.404 363.327C351.478 362.696 350.91 361.801 350.7 360.642L353.163 360.267C353.316 360.909 353.632 361.395 354.109 361.724C354.586 362.048 355.208 362.21 355.975 362.21C356.811 362.21 357.478 362.037 357.978 361.69C358.478 361.338 358.728 360.909 358.728 360.403C358.728 359.994 358.575 359.651 358.268 359.372C357.967 359.094 357.504 358.884 356.879 358.741L354.663 358.256C353.441 357.977 352.538 357.534 351.953 356.926C351.373 356.318 351.083 355.548 351.083 354.616C351.083 353.844 351.299 353.168 351.731 352.588C352.163 352.009 352.76 351.557 353.521 351.233C354.282 350.903 355.154 350.739 356.137 350.739C357.552 350.739 358.666 351.045 359.478 351.659C360.291 352.267 360.828 353.082 361.089 354.105Z" fill="#212528"/>
</g>
<defs>
<filter id="filter0_d_140_789" x="0.5" y="157" width="84" height="84" filterUnits="userSpaceOnUse" color-interpolation-filters="sRGB">
<feFlood flood-opacity="0" result="BackgroundImageFix"/>
<feColorMatrix in="SourceAlpha" type="matrix" values="0 0 0 0 0 0 0 0 0 0 0 0 0 0 0 0 0 0 127 0" result="hardAlpha"/>
<feOffset dx="4" dy="4"/>
<feComposite in2="hardAlpha" operator="out"/>
<feColorMatrix type="matrix" values="0 0 0 0 0.690435 0 0 0 0 0.909565 0 0 0 0 0.713043 0 0 0 1 0"/>
<feBlend mode="normal" in2="BackgroundImageFix" result="effect1_dropShadow_140_789"/>
<feBlend mode="normal" in="SourceGraphic" in2="effect1_dropShadow_140_789" result="shape"/>
</filter>
<filter id="filter1_d_140_789" x="104.5" y="157" width="300" height="84" filterUnits="userSpaceOnUse" color-interpolation-filters="sRGB">
<feFlood flood-opacity="0" result="BackgroundImageFix"/>
<feColorMatrix in="SourceAlpha" type="matrix" values="0 0 0 0 0 0 0 0 0 0 0 0 0 0 0 0 0 0 127 0" result="hardAlpha"/>
<feOffset dx="4" dy="4"/>
<feComposite in2="hardAlpha" operator="out"/>
<feColorMatrix type="matrix" values="0 0 0 0 0.690435 0 0 0 0 0.909565 0 0 0 0 0.713043 0 0 0 1 0"/>
<feBlend mode="normal" in2="BackgroundImageFix" result="effect1_dropShadow_140_789"/>
<feBlend mode="normal" in="SourceGraphic" in2="effect1_dropShadow_140_789" result="shape"/>
</filter>
<filter id="filter2_d_140_789" x="0.5" y="0" width="192" height="137" filterUnits="userSpaceOnUse" color-interpolation-filters="sRGB">
<feFlood flood-opacity="0" result="BackgroundImageFix"/>
<feColorMatrix in="SourceAlpha" type="matrix" values="0 0 0 0 0 0 0 0 0 0 0 0 0 0 0 0 0 0 127 0" result="hardAlpha"/>
<feOffset dx="4" dy="4"/>
<feComposite in2="hardAlpha" operator="out"/>
<feColorMatrix type="matrix" values="0 0 0 0 0.667568 0 0 0 0 0.8 0 0 0 0 0.932432 0 0 0 1 0"/>
<feBlend mode="normal" in2="BackgroundImageFix" result="effect1_dropShadow_140_789"/>
<feBlend mode="normal" in="SourceGraphic" in2="effect1_dropShadow_140_789" result="shape"/>
</filter>
<filter id="filter3_d_140_789" x="0.5" y="261" width="192" height="137" filterUnits="userSpaceOnUse" color-interpolation-filters="sRGB">
<feFlood flood-opacity="0" result="BackgroundImageFix"/>
<feColorMatrix in="SourceAlpha" type="matrix" values="0 0 0 0 0 0 0 0 0 0 0 0 0 0 0 0 0 0 127 0" result="hardAlpha"/>
<feOffset dx="4" dy="4"/>
<feComposite in2="hardAlpha" operator="out"/>
<feColorMatrix type="matrix" values="0 0 0 0 0.932432 0 0 0 0 0.842378 0 0 0 0 0.667568 0 0 0 1 0"/>
<feBlend mode="normal" in2="BackgroundImageFix" result="effect1_dropShadow_140_789"/>
<feBlend mode="normal" in="SourceGraphic" in2="effect1_dropShadow_140_789" result="shape"/>
</filter>
<filter id="filter4_d_140_789" x="212.5" y="0" width="192" height="137" filterUnits="userSpaceOnUse" color-interpolation-filters="sRGB">
<feFlood flood-opacity="0" result="BackgroundImageFix"/>
<feColorMatrix in="SourceAlpha" type="matrix" values="0 0 0 0 0 0 0 0 0 0 0 0 0 0 0 0 0 0 127 0" result="hardAlpha"/>
<feOffset dx="4" dy="4"/>
<feComposite in2="hardAlpha" operator="out"/>
<feColorMatrix type="matrix" values="0 0 0 0 0.932432 0 0 0 0 0.842378 0 0 0 0 0.667568 0 0 0 1 0"/>
<feBlend mode="normal" in2="BackgroundImageFix" result="effect1_dropShadow_140_789"/>
<feBlend mode="normal" in="SourceGraphic" in2="effect1_dropShadow_140_789" result="shape"/>
</filter>
<filter id="filter5_d_140_789" x="212.5" y="261" width="192" height="137" filterUnits="userSpaceOnUse" color-interpolation-filters="sRGB">
<feFlood flood-opacity="0" result="BackgroundImageFix"/>
<feColorMatrix in="SourceAlpha" type="matrix" values="0 0 0 0 0 0 0 0 0 0 0 0 0 0 0 0 0 0 127 0" result="hardAlpha"/>
<feOffset dx="4" dy="4"/>
<feComposite in2="hardAlpha" operator="out"/>
<feColorMatrix type="matrix" values="0 0 0 0 0.667568 0 0 0 0 0.8 0 0 0 0 0.932432 0 0 0 1 0"/>
<feBlend mode="normal" in2="BackgroundImageFix" result="effect1_dropShadow_140_789"/>
<feBlend mode="normal" in="SourceGraphic" in2="effect1_dropShadow_140_789" result="shape"/>
</filter>
<clipPath id="clip0_140_789">
<rect width="101" height="40" fill="white" transform="translate(135.5 177)"/>
</clipPath>
</defs>
</svg>
