<svg width="405" height="436" viewBox="0 0 405 436" fill="none" xmlns="http://www.w3.org/2000/svg">
<g filter="url(#filter0_d_242_317)">
<rect x="0.5" width="400" height="80" rx="16" fill="white" shape-rendering="crispEdges"/>
<rect x="1" y="0.5" width="399" height="79" rx="15.5" stroke="#212528" shape-rendering="crispEdges"/>
<path d="M108.642 51V29.1818H121.724V31.5256H111.284V38.8977H120.744V41.2415H111.284V51H108.642ZM125.909 51V34.6364H128.423V51H125.909ZM127.187 31.9091C126.697 31.9091 126.274 31.7422 125.919 31.4084C125.571 31.0746 125.397 30.6733 125.397 30.2045C125.397 29.7358 125.571 29.3345 125.919 29.0007C126.274 28.6669 126.697 28.5 127.187 28.5C127.677 28.5 128.096 28.6669 128.444 29.0007C128.799 29.3345 128.977 29.7358 128.977 30.2045C128.977 30.6733 128.799 31.0746 128.444 31.4084C128.096 31.7422 127.677 31.9091 127.187 31.9091ZM135.542 29.1818V51H133.028V29.1818H135.542ZM147.008 51.3409C145.431 51.3409 144.071 50.9929 142.927 50.2969C141.791 49.5938 140.914 48.6136 140.296 47.3565C139.685 46.0923 139.38 44.6222 139.38 42.946C139.38 41.2699 139.685 39.7926 140.296 38.5142C140.914 37.2287 141.773 36.2273 142.874 35.5099C143.982 34.7855 145.275 34.4233 146.752 34.4233C147.604 34.4233 148.446 34.5653 149.277 34.8494C150.108 35.1335 150.864 35.5952 151.546 36.2344C152.228 36.8665 152.771 37.7045 153.176 38.7486C153.581 39.7926 153.783 41.0781 153.783 42.6051V43.6705H141.17V41.4972H151.226C151.226 40.5739 151.042 39.75 150.672 39.0256C150.31 38.3011 149.792 37.7294 149.117 37.3104C148.449 36.8913 147.661 36.6818 146.752 36.6818C145.751 36.6818 144.884 36.9304 144.153 37.4276C143.428 37.9176 142.871 38.5568 142.48 39.3452C142.089 40.1335 141.894 40.9787 141.894 41.8807V43.3295C141.894 44.5653 142.107 45.6129 142.533 46.4723C142.966 47.3246 143.567 47.9744 144.334 48.4219C145.101 48.8622 145.992 49.0824 147.008 49.0824C147.668 49.0824 148.265 48.9901 148.797 48.8054C149.337 48.6136 149.802 48.3295 150.193 47.9531C150.584 47.5696 150.885 47.0937 151.099 46.5256L153.528 47.2074C153.272 48.0312 152.842 48.7557 152.238 49.3807C151.635 49.9986 150.889 50.4815 150.001 50.8295C149.113 51.1705 148.116 51.3409 147.008 51.3409ZM167.665 57.1364C167.238 57.1364 166.858 57.1009 166.525 57.0298C166.191 56.9659 165.96 56.902 165.832 56.8381L166.471 54.6222C167.082 54.7784 167.622 54.8352 168.091 54.7926C168.559 54.75 168.975 54.5405 169.337 54.1641C169.706 53.7947 170.044 53.1946 170.349 52.3636L170.818 51.0852L164.767 34.6364H167.494L172.011 47.6761H172.182L176.699 34.6364H179.426L172.48 53.3864C172.167 54.2315 171.78 54.9311 171.319 55.4851C170.857 56.0462 170.321 56.4616 169.71 56.7315C169.106 57.0014 168.425 57.1364 167.665 57.1364ZM188.806 51.3409C187.329 51.3409 186.033 50.9893 184.918 50.2862C183.81 49.5831 182.943 48.5994 182.318 47.3352C181.7 46.071 181.392 44.5937 181.392 42.9034C181.392 41.1989 181.7 39.7109 182.318 38.4396C182.943 37.1683 183.81 36.1811 184.918 35.478C186.033 34.7749 187.329 34.4233 188.806 34.4233C190.284 34.4233 191.576 34.7749 192.684 35.478C193.799 36.1811 194.666 37.1683 195.284 38.4396C195.909 39.7109 196.221 41.1989 196.221 42.9034C196.221 44.5937 195.909 46.071 195.284 47.3352C194.666 48.5994 193.799 49.5831 192.684 50.2862C191.576 50.9893 190.284 51.3409 188.806 51.3409ZM188.806 49.0824C189.928 49.0824 190.852 48.7947 191.576 48.2195C192.301 47.6442 192.837 46.8878 193.185 45.9503C193.533 45.0128 193.707 43.9972 193.707 42.9034C193.707 41.8097 193.533 40.7905 193.185 39.8459C192.837 38.9013 192.301 38.1378 191.576 37.5554C190.852 36.973 189.928 36.6818 188.806 36.6818C187.684 36.6818 186.761 36.973 186.036 37.5554C185.312 38.1378 184.776 38.9013 184.428 39.8459C184.08 40.7905 183.906 41.8097 183.906 42.9034C183.906 43.9972 184.08 45.0128 184.428 45.9503C184.776 46.8878 185.312 47.6442 186.036 48.2195C186.761 48.7947 187.684 49.0824 188.806 49.0824ZM210.371 44.3097V34.6364H212.886V51H210.371V48.2301H210.201C209.817 49.0611 209.221 49.7678 208.411 50.3501C207.602 50.9254 206.579 51.2131 205.343 51.2131C204.32 51.2131 203.411 50.9893 202.616 50.5419C201.82 50.0874 201.195 49.4055 200.741 48.4964C200.286 47.5803 200.059 46.4261 200.059 45.0341V34.6364H202.573V44.8636C202.573 46.0568 202.907 47.0085 203.575 47.7188C204.249 48.429 205.109 48.7841 206.153 48.7841C206.778 48.7841 207.413 48.6243 208.06 48.3047C208.713 47.9851 209.26 47.495 209.7 46.8345C210.148 46.174 210.371 45.3324 210.371 44.3097ZM217.491 51V34.6364H219.92V37.108H220.09C220.388 36.2983 220.928 35.6413 221.709 35.1371C222.491 34.6328 223.371 34.3807 224.351 34.3807C224.536 34.3807 224.767 34.3842 225.044 34.3913C225.321 34.3984 225.53 34.4091 225.672 34.4233V36.9801C225.587 36.9588 225.392 36.9268 225.086 36.8842C224.788 36.8345 224.472 36.8097 224.138 36.8097C223.343 36.8097 222.633 36.9766 222.008 37.3104C221.39 37.6371 220.9 38.0916 220.537 38.674C220.182 39.2493 220.005 39.9062 220.005 40.6449V51H217.491Z" fill="#212528"/>
<path d="M240.838 29.1818L246.112 45.7585H246.314L251.598 29.1818H256.712L249.19 51H243.246L235.714 29.1818H240.838ZM260.198 51H255.255L262.787 29.1818H268.731L276.253 51H271.309L265.844 34.1676H265.674L260.198 51ZM259.889 42.424H271.565V46.0249H259.889V42.424ZM275.382 32.9851V29.1818H293.301V32.9851H286.621V51H282.061V32.9851H275.382Z" fill="#212528"/>
</g>
<g filter="url(#filter1_d_242_317)">
<rect x="0.5" y="280" width="188" height="152" rx="16" fill="white" shape-rendering="crispEdges"/>
<rect x="1" y="280.5" width="187" height="151" rx="15.5" stroke="#212528" shape-rendering="crispEdges"/>
<path d="M94.5 347.5C96.7 347.5 98.5 345.7 98.5 343.5H90.5C90.5 345.7 92.3 347.5 94.5 347.5ZM106.5 335.5V325.5C106.5 319.36 103.24 314.22 97.5 312.86V311.5C97.5 309.84 96.16 308.5 94.5 308.5C92.84 308.5 91.5 309.84 91.5 311.5V312.86C85.78 314.22 82.5 319.34 82.5 325.5V335.5L78.5 339.5V341.5H110.5V339.5L106.5 335.5ZM102.5 337.5H86.5V325.5C86.5 320.54 89.52 316.5 94.5 316.5C99.48 316.5 102.5 320.54 102.5 325.5V337.5ZM85.66 311.66L82.8 308.8C78 312.46 74.84 318.1 74.56 324.5H78.56C78.86 319.2 81.58 314.56 85.66 311.66ZM110.44 324.5H114.44C114.14 318.1 110.98 312.46 106.2 308.8L103.36 311.66C107.4 314.56 110.14 319.2 110.44 324.5Z" fill="#F2800D"/>
<path d="M63.5154 366.344V364.455H74.7726V366.344H70.2342V379H68.0467V366.344H63.5154ZM77.0897 379V368.091H79.2132V379H77.0897ZM78.1621 366.408C77.7928 366.408 77.4756 366.285 77.2104 366.038C76.95 365.787 76.8198 365.489 76.8198 365.143C76.8198 364.793 76.95 364.495 77.2104 364.249C77.4756 363.998 77.7928 363.872 78.1621 363.872C78.5314 363.872 78.8463 363.998 79.1067 364.249C79.3719 364.495 79.5044 364.793 79.5044 365.143C79.5044 365.489 79.3719 365.787 79.1067 366.038C78.8463 366.285 78.5314 366.408 78.1621 366.408ZM82.0701 379V368.091H84.1085V369.866H84.2434C84.4707 369.265 84.8424 368.796 85.3585 368.46C85.8746 368.119 86.4925 367.949 87.2122 367.949C87.9413 367.949 88.5521 368.119 89.0446 368.46C89.5417 368.801 89.9087 369.27 90.1454 369.866H90.2591C90.5195 369.284 90.9338 368.82 91.502 368.474C92.0701 368.124 92.7472 367.949 93.5332 367.949C94.5228 367.949 95.3301 368.259 95.9551 368.879C96.5848 369.5 96.8997 370.435 96.8997 371.685V379H94.7761V371.884C94.7761 371.145 94.5749 370.61 94.1724 370.278C93.7699 369.947 93.2894 369.781 92.7306 369.781C92.0394 369.781 91.502 369.994 91.1184 370.42C90.7349 370.842 90.5431 371.384 90.5431 372.047V379H88.4267V371.749C88.4267 371.157 88.242 370.681 87.8727 370.321C87.5034 369.961 87.0228 369.781 86.4309 369.781C86.0285 369.781 85.6568 369.888 85.3159 370.101C84.9797 370.309 84.7074 370.6 84.4991 370.974C84.2955 371.348 84.1937 371.782 84.1937 372.274V379H82.0701ZM104.448 379.22C103.373 379.22 102.447 378.991 101.671 378.531C100.899 378.067 100.302 377.416 99.8809 376.578C99.4642 375.735 99.2559 374.748 99.2559 373.616C99.2559 372.499 99.4642 371.514 99.8809 370.662C100.302 369.81 100.889 369.144 101.642 368.666C102.4 368.188 103.285 367.949 104.298 367.949C104.914 367.949 105.511 368.051 106.088 368.254C106.666 368.458 107.184 368.777 107.644 369.213C108.103 369.649 108.465 370.214 108.73 370.911C108.995 371.602 109.128 372.442 109.128 373.432V374.185H100.456V372.594H107.047C107.047 372.035 106.933 371.54 106.706 371.109C106.479 370.674 106.159 370.33 105.747 370.08C105.34 369.829 104.862 369.703 104.313 369.703C103.716 369.703 103.195 369.85 102.75 370.143C102.31 370.432 101.969 370.811 101.727 371.28C101.491 371.744 101.372 372.248 101.372 372.793V374.036C101.372 374.765 101.5 375.385 101.756 375.896C102.016 376.408 102.378 376.798 102.843 377.068C103.307 377.333 103.849 377.466 104.469 377.466C104.871 377.466 105.238 377.409 105.57 377.295C105.901 377.177 106.188 377.002 106.429 376.77C106.671 376.538 106.855 376.251 106.983 375.911L108.993 376.273C108.832 376.865 108.543 377.383 108.127 377.828C107.715 378.268 107.196 378.612 106.571 378.858C105.951 379.099 105.243 379.22 104.448 379.22ZM113.608 364.455V379H111.484V364.455H113.608ZM117.807 383.091C117.49 383.091 117.201 383.065 116.941 383.013C116.68 382.965 116.486 382.913 116.358 382.857L116.869 381.116C117.258 381.221 117.603 381.266 117.906 381.251C118.209 381.237 118.477 381.124 118.709 380.911C118.946 380.697 119.154 380.349 119.334 379.866L119.597 379.142L115.605 368.091H117.878L120.641 376.557H120.754L123.517 368.091H125.797L121.301 380.456C121.093 381.024 120.828 381.505 120.506 381.898C120.184 382.295 119.8 382.594 119.355 382.793C118.91 382.991 118.394 383.091 117.807 383.091ZM47.008 388.455V403H44.9909L37.5975 392.332H37.4625V403H35.2679V388.455H37.2992L44.6998 399.136H44.8347V388.455H47.008ZM54.6341 403.22C53.6113 403.22 52.7188 402.986 51.9565 402.517C51.1942 402.048 50.6023 401.393 50.1809 400.55C49.7595 399.707 49.5488 398.722 49.5488 397.595C49.5488 396.464 49.7595 395.474 50.1809 394.626C50.6023 393.779 51.1942 393.121 51.9565 392.652C52.7188 392.183 53.6113 391.949 54.6341 391.949C55.6568 391.949 56.5493 392.183 57.3116 392.652C58.0739 393.121 58.6658 393.779 59.0872 394.626C59.5086 395.474 59.7193 396.464 59.7193 397.595C59.7193 398.722 59.5086 399.707 59.0872 400.55C58.6658 401.393 58.0739 402.048 57.3116 402.517C56.5493 402.986 55.6568 403.22 54.6341 403.22ZM54.6412 401.438C55.304 401.438 55.8533 401.262 56.2889 400.912C56.7245 400.562 57.0465 400.095 57.2548 399.513C57.4679 398.93 57.5744 398.289 57.5744 397.588C57.5744 396.892 57.4679 396.253 57.2548 395.67C57.0465 395.083 56.7245 394.612 56.2889 394.257C55.8533 393.902 55.304 393.724 54.6412 393.724C53.9735 393.724 53.4196 393.902 52.9792 394.257C52.5436 394.612 52.2193 395.083 52.0062 395.67C51.7979 396.253 51.6937 396.892 51.6937 397.588C51.6937 398.289 51.7979 398.93 52.0062 399.513C52.2193 400.095 52.5436 400.562 52.9792 400.912C53.4196 401.262 53.9735 401.438 54.6412 401.438ZM67.182 392.091V393.795H61.2232V392.091H67.182ZM62.8212 389.477H64.9448V399.797C64.9448 400.209 65.0063 400.519 65.1294 400.727C65.2525 400.931 65.4112 401.071 65.6053 401.146C65.8042 401.217 66.0196 401.253 66.2516 401.253C66.4221 401.253 66.5712 401.241 66.699 401.217C66.8269 401.194 66.9263 401.175 66.9973 401.161L67.3809 402.915C67.2578 402.962 67.0826 403.009 66.8553 403.057C66.628 403.109 66.3439 403.137 66.003 403.142C65.4443 403.152 64.9235 403.052 64.4405 402.844C63.9576 402.635 63.5669 402.313 63.2686 401.878C62.9703 401.442 62.8212 400.895 62.8212 400.237V389.477ZM69.5311 403V392.091H71.6547V403H69.5311ZM70.6035 390.408C70.2342 390.408 69.917 390.285 69.6518 390.038C69.3914 389.787 69.2612 389.489 69.2612 389.143C69.2612 388.793 69.3914 388.495 69.6518 388.249C69.917 387.998 70.2342 387.872 70.6035 387.872C70.9728 387.872 71.2877 387.998 71.5481 388.249C71.8133 388.495 71.9458 388.793 71.9458 389.143C71.9458 389.489 71.8133 389.787 71.5481 390.038C71.2877 390.285 70.9728 390.408 70.6035 390.408ZM79.7033 392.091V393.795H73.5385V392.091H79.7033ZM75.2289 403V390.827C75.2289 390.145 75.378 389.579 75.6763 389.129C75.9746 388.675 76.37 388.336 76.8624 388.114C77.3548 387.886 77.8899 387.773 78.4675 387.773C78.8936 387.773 79.2582 387.808 79.5613 387.879C79.8643 387.946 80.0892 388.007 80.236 388.064L79.7388 389.783C79.6394 389.754 79.5115 389.721 79.3553 389.683C79.199 389.641 79.0096 389.619 78.7871 389.619C78.271 389.619 77.9017 389.747 77.6792 390.003C77.4614 390.259 77.3525 390.628 77.3525 391.111V403H75.2289ZM81.8944 403V392.091H84.0179V403H81.8944ZM82.9668 390.408C82.5975 390.408 82.2802 390.285 82.0151 390.038C81.7547 389.787 81.6245 389.489 81.6245 389.143C81.6245 388.793 81.7547 388.495 82.0151 388.249C82.2802 387.998 82.5975 387.872 82.9668 387.872C83.3361 387.872 83.651 387.998 83.9114 388.249C84.1766 388.495 84.3091 388.793 84.3091 389.143C84.3091 389.489 84.1766 389.787 83.9114 390.038C83.651 390.285 83.3361 390.408 82.9668 390.408ZM91.47 403.22C90.4141 403.22 89.505 402.981 88.7427 402.503C87.9851 402.02 87.4028 401.355 86.9956 400.507C86.5884 399.66 86.3848 398.689 86.3848 397.595C86.3848 396.487 86.5931 395.509 87.0098 394.662C87.4264 393.81 88.0136 393.144 88.7711 392.666C89.5287 392.188 90.4212 391.949 91.4487 391.949C92.2773 391.949 93.0159 392.103 93.6646 392.411C94.3133 392.714 94.8365 393.14 95.2342 393.689C95.6367 394.238 95.8758 394.88 95.9515 395.614H93.8848C93.7711 395.102 93.5107 394.662 93.1035 394.293C92.7011 393.923 92.1613 393.739 91.4842 393.739C90.8923 393.739 90.3739 393.895 89.9288 394.207C89.4885 394.515 89.1452 394.955 88.899 395.528C88.6528 396.097 88.5297 396.769 88.5297 397.545C88.5297 398.341 88.6504 399.027 88.8919 399.605C89.1333 400.183 89.4743 400.63 89.9146 400.947C90.3597 401.265 90.8829 401.423 91.4842 401.423C91.8867 401.423 92.2512 401.35 92.5779 401.203C92.9094 401.052 93.1864 400.836 93.4089 400.557C93.6362 400.277 93.7948 399.941 93.8848 399.548H95.9515C95.8758 400.254 95.6461 400.884 95.2626 401.438C94.8791 401.991 94.3654 402.427 93.7214 402.744C93.0822 403.062 92.3317 403.22 91.47 403.22ZM101.397 403.241C100.706 403.241 100.081 403.114 99.5222 402.858C98.9635 402.598 98.5208 402.221 98.1941 401.729C97.8721 401.236 97.7111 400.633 97.7111 399.918C97.7111 399.302 97.8295 398.795 98.0662 398.398C98.303 398 98.6226 397.685 99.025 397.453C99.4275 397.221 99.8773 397.046 100.374 396.928C100.872 396.809 101.378 396.719 101.894 396.658C102.548 396.582 103.078 396.52 103.485 396.473C103.892 396.421 104.188 396.338 104.373 396.224C104.558 396.111 104.65 395.926 104.65 395.67V395.621C104.65 395 104.475 394.52 104.124 394.179C103.779 393.838 103.263 393.668 102.576 393.668C101.861 393.668 101.298 393.826 100.886 394.143C100.479 394.456 100.197 394.804 100.041 395.188L98.0449 394.733C98.2817 394.07 98.6273 393.535 99.0819 393.128C99.5411 392.716 100.069 392.418 100.666 392.233C101.262 392.044 101.89 391.949 102.548 391.949C102.983 391.949 103.445 392.001 103.933 392.105C104.425 392.205 104.884 392.389 105.311 392.659C105.741 392.929 106.094 393.315 106.369 393.817C106.643 394.314 106.781 394.96 106.781 395.756V403H104.707V401.509H104.622C104.484 401.783 104.278 402.053 104.004 402.318C103.729 402.583 103.376 402.804 102.945 402.979C102.515 403.154 101.999 403.241 101.397 403.241ZM101.859 401.537C102.446 401.537 102.948 401.421 103.365 401.189C103.786 400.957 104.106 400.654 104.323 400.28C104.546 399.901 104.657 399.496 104.657 399.065V397.659C104.581 397.735 104.435 397.806 104.217 397.872C104.004 397.934 103.76 397.988 103.485 398.036C103.211 398.078 102.943 398.118 102.683 398.156C102.422 398.189 102.204 398.218 102.029 398.241C101.617 398.294 101.241 398.381 100.9 398.504C100.564 398.627 100.294 398.805 100.09 399.037C99.8915 399.264 99.7921 399.567 99.7921 399.946C99.7921 400.472 99.9862 400.869 100.374 401.139C100.763 401.404 101.258 401.537 101.859 401.537ZM114.702 392.091V393.795H108.743V392.091H114.702ZM110.341 389.477H112.464V399.797C112.464 400.209 112.526 400.519 112.649 400.727C112.772 400.931 112.931 401.071 113.125 401.146C113.324 401.217 113.539 401.253 113.771 401.253C113.942 401.253 114.091 401.241 114.219 401.217C114.346 401.194 114.446 401.175 114.517 401.161L114.9 402.915C114.777 402.962 114.602 403.009 114.375 403.057C114.148 403.109 113.863 403.137 113.523 403.142C112.964 403.152 112.443 403.052 111.96 402.844C111.477 402.635 111.086 402.313 110.788 401.878C110.49 401.442 110.341 400.895 110.341 400.237V389.477ZM117.051 403V392.091H119.174V403H117.051ZM118.123 390.408C117.754 390.408 117.436 390.285 117.171 390.038C116.911 389.787 116.781 389.489 116.781 389.143C116.781 388.793 116.911 388.495 117.171 388.249C117.436 387.998 117.754 387.872 118.123 387.872C118.492 387.872 118.807 387.998 119.068 388.249C119.333 388.495 119.465 388.793 119.465 389.143C119.465 389.489 119.333 389.787 119.068 390.038C118.807 390.285 118.492 390.408 118.123 390.408ZM126.626 403.22C125.604 403.22 124.711 402.986 123.949 402.517C123.186 402.048 122.595 401.393 122.173 400.55C121.752 399.707 121.541 398.722 121.541 397.595C121.541 396.464 121.752 395.474 122.173 394.626C122.595 393.779 123.186 393.121 123.949 392.652C124.711 392.183 125.604 391.949 126.626 391.949C127.649 391.949 128.541 392.183 129.304 392.652C130.066 393.121 130.658 393.779 131.079 394.626C131.501 395.474 131.711 396.464 131.711 397.595C131.711 398.722 131.501 399.707 131.079 400.55C130.658 401.393 130.066 402.048 129.304 402.517C128.541 402.986 127.649 403.22 126.626 403.22ZM126.633 401.438C127.296 401.438 127.845 401.262 128.281 400.912C128.717 400.562 129.039 400.095 129.247 399.513C129.46 398.93 129.567 398.289 129.567 397.588C129.567 396.892 129.46 396.253 129.247 395.67C129.039 395.083 128.717 394.612 128.281 394.257C127.845 393.902 127.296 393.724 126.633 393.724C125.966 393.724 125.412 393.902 124.971 394.257C124.536 394.612 124.211 395.083 123.998 395.67C123.79 396.253 123.686 396.892 123.686 397.588C123.686 398.289 123.79 398.93 123.998 399.513C124.211 400.095 124.536 400.562 124.971 400.912C125.412 401.262 125.966 401.438 126.633 401.438ZM136.205 396.523V403H134.082V392.091H136.12V393.866H136.255C136.506 393.289 136.899 392.825 137.434 392.474C137.974 392.124 138.653 391.949 139.472 391.949C140.216 391.949 140.867 392.105 141.426 392.418C141.984 392.725 142.418 393.185 142.725 393.795C143.033 394.406 143.187 395.161 143.187 396.061V403H141.063V396.317C141.063 395.526 140.857 394.908 140.445 394.463C140.034 394.013 139.468 393.788 138.748 393.788C138.256 393.788 137.818 393.895 137.434 394.108C137.055 394.321 136.755 394.634 136.532 395.045C136.314 395.453 136.205 395.945 136.205 396.523ZM154.21 394.754L152.285 395.095C152.204 394.849 152.077 394.615 151.901 394.392C151.731 394.17 151.499 393.987 151.205 393.845C150.912 393.703 150.545 393.632 150.105 393.632C149.503 393.632 149.001 393.767 148.599 394.037C148.196 394.302 147.995 394.645 147.995 395.067C147.995 395.431 148.13 395.725 148.4 395.947C148.67 396.17 149.106 396.352 149.707 396.494L151.44 396.892C152.444 397.124 153.192 397.482 153.684 397.964C154.177 398.447 154.423 399.075 154.423 399.847C154.423 400.5 154.233 401.082 153.855 401.594C153.481 402.1 152.957 402.498 152.285 402.787C151.617 403.076 150.843 403.22 149.963 403.22C148.741 403.22 147.744 402.96 146.972 402.439C146.201 401.913 145.727 401.168 145.552 400.202L147.605 399.889C147.732 400.424 147.995 400.829 148.393 401.104C148.791 401.374 149.309 401.509 149.948 401.509C150.644 401.509 151.201 401.364 151.617 401.075C152.034 400.782 152.242 400.424 152.242 400.003C152.242 399.662 152.115 399.375 151.859 399.143C151.608 398.911 151.222 398.736 150.701 398.618L148.855 398.213C147.837 397.981 147.084 397.612 146.596 397.105C146.113 396.598 145.872 395.957 145.872 395.18C145.872 394.536 146.052 393.973 146.411 393.49C146.771 393.007 147.268 392.631 147.903 392.361C148.537 392.086 149.264 391.949 150.083 391.949C151.262 391.949 152.19 392.205 152.867 392.716C153.544 393.223 153.992 393.902 154.21 394.754Z" fill="#212528"/>
</g>
<g filter="url(#filter2_d_242_317)">
<rect y="104" width="400" height="152" rx="16" fill="white" shape-rendering="crispEdges"/>
<rect x="0.5" y="104.5" width="399" height="151" rx="15.5" stroke="#212528" shape-rendering="crispEdges"/>
<path d="M200 132C188.96 132 180 140.96 180 152C180 163.04 188.96 172 200 172C211.04 172 220 163.04 220 152C220 140.96 211.04 132 200 132ZM200 168C191.18 168 184 160.82 184 152C184 143.18 191.18 136 200 136C208.82 136 216 143.18 216 152C216 160.82 208.82 168 200 168ZM209.18 143.16L196 156.34L190.82 151.18L188 154L196 162L212 146L209.18 143.16Z" fill="#F2800D"/>
<path d="M181 188.455V203H178.798V190.656H178.713L175.233 192.929V190.827L178.862 188.455H181ZM189.998 203.241C188.876 203.237 187.917 202.941 187.122 202.354C186.326 201.767 185.718 200.912 185.297 199.79C184.875 198.668 184.664 197.316 184.664 195.734C184.664 194.158 184.875 192.811 185.297 191.693C185.723 190.576 186.333 189.723 187.129 189.136C187.929 188.549 188.886 188.256 189.998 188.256C191.111 188.256 192.065 188.552 192.86 189.143C193.656 189.731 194.264 190.583 194.686 191.7C195.112 192.813 195.325 194.158 195.325 195.734C195.325 197.321 195.114 198.675 194.693 199.797C194.271 200.914 193.663 201.769 192.868 202.361C192.072 202.948 191.116 203.241 189.998 203.241ZM189.998 201.345C190.983 201.345 191.752 200.865 192.306 199.903C192.865 198.942 193.145 197.553 193.145 195.734C193.145 194.527 193.017 193.507 192.761 192.673C192.51 191.835 192.148 191.201 191.674 190.77C191.206 190.334 190.647 190.116 189.998 190.116C189.018 190.116 188.249 190.599 187.69 191.565C187.131 192.531 186.85 193.921 186.845 195.734C186.845 196.946 186.97 197.972 187.221 198.81C187.477 199.643 187.839 200.275 188.308 200.706C188.777 201.132 189.34 201.345 189.998 201.345ZM202.908 203.241C201.786 203.237 200.827 202.941 200.032 202.354C199.237 201.767 198.628 200.912 198.207 199.79C197.785 198.668 197.575 197.316 197.575 195.734C197.575 194.158 197.785 192.811 198.207 191.693C198.633 190.576 199.244 189.723 200.039 189.136C200.839 188.549 201.796 188.256 202.908 188.256C204.021 188.256 204.975 188.552 205.771 189.143C206.566 189.731 207.174 190.583 207.596 191.7C208.022 192.813 208.235 194.158 208.235 195.734C208.235 197.321 208.024 198.675 207.603 199.797C207.182 200.914 206.573 201.769 205.778 202.361C204.982 202.948 204.026 203.241 202.908 203.241ZM202.908 201.345C203.893 201.345 204.663 200.865 205.217 199.903C205.775 198.942 206.055 197.553 206.055 195.734C206.055 194.527 205.927 193.507 205.671 192.673C205.42 191.835 205.058 191.201 204.585 190.77C204.116 190.334 203.557 190.116 202.908 190.116C201.928 190.116 201.159 190.599 200.6 191.565C200.041 192.531 199.76 193.921 199.755 195.734C199.755 196.946 199.88 197.972 200.131 198.81C200.387 199.643 200.749 200.275 201.218 200.706C201.687 201.132 202.25 201.345 202.908 201.345ZM218.347 200.273V199.506C218.347 198.956 218.461 198.455 218.688 198C218.92 197.541 219.256 197.174 219.696 196.899C220.141 196.62 220.679 196.48 221.309 196.48C221.953 196.48 222.492 196.617 222.928 196.892C223.364 197.167 223.693 197.534 223.915 197.993C224.142 198.452 224.256 198.956 224.256 199.506V200.273C224.256 200.822 224.142 201.326 223.915 201.786C223.688 202.24 223.354 202.607 222.914 202.886C222.478 203.161 221.943 203.298 221.309 203.298C220.669 203.298 220.13 203.161 219.689 202.886C219.249 202.607 218.915 202.24 218.688 201.786C218.461 201.326 218.347 200.822 218.347 200.273ZM220.002 199.506V200.273C220.002 200.68 220.099 201.049 220.293 201.381C220.487 201.712 220.826 201.878 221.309 201.878C221.787 201.878 222.121 201.712 222.31 201.381C222.499 201.049 222.594 200.68 222.594 200.273V199.506C222.594 199.098 222.502 198.729 222.317 198.398C222.137 198.066 221.801 197.901 221.309 197.901C220.835 197.901 220.499 198.066 220.3 198.398C220.101 198.729 220.002 199.098 220.002 199.506ZM211.032 191.949V191.182C211.032 190.633 211.145 190.128 211.373 189.669C211.605 189.21 211.941 188.843 212.381 188.568C212.826 188.294 213.364 188.156 213.993 188.156C214.637 188.156 215.177 188.294 215.613 188.568C216.048 188.843 216.377 189.21 216.6 189.669C216.822 190.128 216.934 190.633 216.934 191.182V191.949C216.934 192.498 216.82 193.002 216.593 193.462C216.37 193.916 216.039 194.283 215.598 194.562C215.163 194.837 214.628 194.974 213.993 194.974C213.349 194.974 212.807 194.837 212.367 194.562C211.931 194.283 211.6 193.916 211.373 193.462C211.145 193.002 211.032 192.498 211.032 191.949ZM212.694 191.182V191.949C212.694 192.356 212.788 192.725 212.978 193.057C213.172 193.388 213.51 193.554 213.993 193.554C214.467 193.554 214.798 193.388 214.988 193.057C215.182 192.725 215.279 192.356 215.279 191.949V191.182C215.279 190.775 215.186 190.405 215.002 190.074C214.817 189.742 214.481 189.577 213.993 189.577C213.52 189.577 213.184 189.742 212.985 190.074C212.791 190.405 212.694 190.775 212.694 191.182ZM211.706 203L221.706 188.455H223.404L213.404 203H211.706ZM159.604 227H157.275L162.509 212.455H165.044L170.279 227H167.949L163.837 215.097H163.723L159.604 227ZM159.995 221.304H167.551V223.151H159.995V221.304ZM176.628 227.22C175.572 227.22 174.663 226.981 173.901 226.503C173.143 226.02 172.561 225.355 172.154 224.507C171.747 223.66 171.543 222.689 171.543 221.595C171.543 220.487 171.751 219.509 172.168 218.662C172.585 217.81 173.172 217.144 173.929 216.666C174.687 216.188 175.579 215.949 176.607 215.949C177.435 215.949 178.174 216.103 178.823 216.411C179.471 216.714 179.995 217.14 180.392 217.689C180.795 218.238 181.034 218.88 181.11 219.614H179.043C178.929 219.102 178.669 218.662 178.262 218.293C177.859 217.923 177.319 217.739 176.642 217.739C176.051 217.739 175.532 217.895 175.087 218.207C174.647 218.515 174.303 218.955 174.057 219.528C173.811 220.097 173.688 220.769 173.688 221.545C173.688 222.341 173.809 223.027 174.05 223.605C174.292 224.183 174.632 224.63 175.073 224.947C175.518 225.265 176.041 225.423 176.642 225.423C177.045 225.423 177.409 225.35 177.736 225.203C178.068 225.052 178.345 224.836 178.567 224.557C178.794 224.277 178.953 223.941 179.043 223.548H181.11C181.034 224.254 180.804 224.884 180.421 225.438C180.037 225.991 179.524 226.427 178.88 226.744C178.24 227.062 177.49 227.22 176.628 227.22ZM187.976 227.22C186.92 227.22 186.011 226.981 185.249 226.503C184.491 226.02 183.909 225.355 183.501 224.507C183.094 223.66 182.891 222.689 182.891 221.595C182.891 220.487 183.099 219.509 183.516 218.662C183.932 217.81 184.519 217.144 185.277 216.666C186.035 216.188 186.927 215.949 187.955 215.949C188.783 215.949 189.522 216.103 190.17 216.411C190.819 216.714 191.342 217.14 191.74 217.689C192.143 218.238 192.382 218.88 192.457 219.614H190.391C190.277 219.102 190.017 218.662 189.609 218.293C189.207 217.923 188.667 217.739 187.99 217.739C187.398 217.739 186.88 217.895 186.435 218.207C185.994 218.515 185.651 218.955 185.405 219.528C185.159 220.097 185.036 220.769 185.036 221.545C185.036 222.341 185.156 223.027 185.398 223.605C185.639 224.183 185.98 224.63 186.42 224.947C186.866 225.265 187.389 225.423 187.99 225.423C188.393 225.423 188.757 225.35 189.084 225.203C189.415 225.052 189.692 224.836 189.915 224.557C190.142 224.277 190.301 223.941 190.391 223.548H192.457C192.382 224.254 192.152 224.884 191.768 225.438C191.385 225.991 190.871 226.427 190.227 226.744C189.588 227.062 188.838 227.22 187.976 227.22ZM201.639 222.476V216.091H203.77V227H201.681V225.111H201.568C201.317 225.693 200.914 226.179 200.36 226.567C199.811 226.95 199.127 227.142 198.308 227.142C197.607 227.142 196.987 226.988 196.447 226.68C195.912 226.368 195.491 225.906 195.183 225.295C194.88 224.685 194.728 223.929 194.728 223.03V216.091H196.852V222.774C196.852 223.518 197.058 224.109 197.47 224.55C197.882 224.99 198.417 225.21 199.075 225.21C199.473 225.21 199.868 225.111 200.261 224.912C200.659 224.713 200.988 224.412 201.248 224.01C201.513 223.607 201.644 223.096 201.639 222.476ZM206.623 227V216.091H208.675V217.824H208.789C208.988 217.237 209.338 216.775 209.84 216.439C210.347 216.098 210.92 215.928 211.559 215.928C211.692 215.928 211.848 215.932 212.028 215.942C212.212 215.951 212.357 215.963 212.461 215.977V218.009C212.376 217.985 212.224 217.959 212.006 217.93C211.789 217.897 211.571 217.881 211.353 217.881C210.851 217.881 210.404 217.987 210.011 218.2C209.622 218.409 209.315 218.7 209.087 219.074C208.86 219.443 208.746 219.865 208.746 220.338V227H206.623ZM217.376 227.241C216.684 227.241 216.059 227.114 215.501 226.858C214.942 226.598 214.499 226.221 214.173 225.729C213.851 225.236 213.69 224.633 213.69 223.918C213.69 223.302 213.808 222.795 214.045 222.398C214.281 222 214.601 221.685 215.004 221.453C215.406 221.221 215.856 221.046 216.353 220.928C216.85 220.809 217.357 220.719 217.873 220.658C218.526 220.582 219.057 220.52 219.464 220.473C219.871 220.421 220.167 220.338 220.352 220.224C220.536 220.111 220.629 219.926 220.629 219.67V219.621C220.629 219 220.453 218.52 220.103 218.179C219.757 217.838 219.241 217.668 218.555 217.668C217.84 217.668 217.276 217.826 216.864 218.143C216.457 218.456 216.175 218.804 216.019 219.188L214.023 218.733C214.26 218.07 214.606 217.535 215.06 217.128C215.52 216.716 216.048 216.418 216.644 216.233C217.241 216.044 217.868 215.949 218.526 215.949C218.962 215.949 219.424 216.001 219.911 216.105C220.404 216.205 220.863 216.389 221.289 216.659C221.72 216.929 222.073 217.315 222.347 217.817C222.622 218.314 222.759 218.96 222.759 219.756V227H220.685V225.509H220.6C220.463 225.783 220.257 226.053 219.982 226.318C219.708 226.583 219.355 226.804 218.924 226.979C218.493 227.154 217.977 227.241 217.376 227.241ZM217.837 225.537C218.424 225.537 218.926 225.421 219.343 225.189C219.764 224.957 220.084 224.654 220.302 224.28C220.524 223.901 220.636 223.496 220.636 223.065V221.659C220.56 221.735 220.413 221.806 220.195 221.872C219.982 221.934 219.738 221.988 219.464 222.036C219.189 222.078 218.922 222.118 218.661 222.156C218.401 222.189 218.183 222.218 218.008 222.241C217.596 222.294 217.219 222.381 216.879 222.504C216.542 222.627 216.272 222.805 216.069 223.037C215.87 223.264 215.771 223.567 215.771 223.946C215.771 224.472 215.965 224.869 216.353 225.139C216.741 225.404 217.236 225.537 217.837 225.537ZM230.68 216.091V217.795H224.721V216.091H230.68ZM226.319 213.477H228.443V223.797C228.443 224.209 228.504 224.519 228.627 224.727C228.751 224.931 228.909 225.071 229.103 225.146C229.302 225.217 229.518 225.253 229.75 225.253C229.92 225.253 230.069 225.241 230.197 225.217C230.325 225.194 230.424 225.175 230.495 225.161L230.879 226.915C230.756 226.962 230.581 227.009 230.353 227.057C230.126 227.109 229.842 227.137 229.501 227.142C228.942 227.152 228.422 227.052 227.939 226.844C227.456 226.635 227.065 226.313 226.767 225.878C226.468 225.442 226.319 224.895 226.319 224.237V213.477ZM237.614 227.22C236.539 227.22 235.613 226.991 234.837 226.531C234.065 226.067 233.468 225.416 233.047 224.578C232.63 223.735 232.422 222.748 232.422 221.616C232.422 220.499 232.63 219.514 233.047 218.662C233.468 217.81 234.055 217.144 234.808 216.666C235.566 216.188 236.451 215.949 237.464 215.949C238.08 215.949 238.677 216.051 239.254 216.254C239.832 216.458 240.35 216.777 240.81 217.213C241.269 217.649 241.631 218.214 241.896 218.911C242.161 219.602 242.294 220.442 242.294 221.432V222.185H233.622V220.594H240.213C240.213 220.035 240.099 219.54 239.872 219.109C239.645 218.674 239.325 218.33 238.913 218.08C238.506 217.829 238.028 217.703 237.479 217.703C236.882 217.703 236.361 217.85 235.916 218.143C235.476 218.432 235.135 218.811 234.893 219.28C234.657 219.744 234.538 220.248 234.538 220.793V222.036C234.538 222.765 234.666 223.385 234.922 223.896C235.182 224.408 235.545 224.798 236.009 225.068C236.473 225.333 237.015 225.466 237.635 225.466C238.037 225.466 238.404 225.409 238.736 225.295C239.067 225.177 239.354 225.002 239.595 224.77C239.837 224.538 240.021 224.251 240.149 223.911L242.159 224.273C241.998 224.865 241.709 225.383 241.293 225.828C240.881 226.268 240.362 226.612 239.737 226.858C239.117 227.099 238.409 227.22 237.614 227.22Z" fill="#212528"/>
</g>
<g filter="url(#filter3_d_242_317)">
<rect x="212.5" y="280" width="188" height="152" rx="16" fill="white" shape-rendering="crispEdges"/>
<rect x="213" y="280.5" width="187" height="151" rx="15.5" stroke="#212528" shape-rendering="crispEdges"/>
<path d="M306.5 308L290.5 314V326.18C290.5 336.28 297.32 345.7 306.5 348C315.68 345.7 322.5 336.28 322.5 326.18V314L306.5 308ZM318.5 326.18C318.5 334.18 313.4 341.58 306.5 343.84C299.6 341.58 294.5 334.2 294.5 326.18V316.62L306.5 312.38L318.5 316.62V326.18ZM300.14 325.18L297.3 328L304.38 335.08L315.7 323.76L312.88 320.94L304.4 329.42L300.14 325.18Z" fill="#0080FF"/>
<path d="M273.434 368.276C273.358 367.603 273.045 367.082 272.496 366.713C271.947 366.339 271.256 366.152 270.422 366.152C269.826 366.152 269.31 366.247 268.874 366.436C268.438 366.621 268.1 366.876 267.858 367.203C267.622 367.525 267.503 367.892 267.503 368.304C267.503 368.65 267.584 368.948 267.745 369.199C267.91 369.45 268.126 369.661 268.391 369.831C268.661 369.997 268.95 370.136 269.257 370.25C269.565 370.359 269.861 370.449 270.145 370.52L271.566 370.889C272.03 371.003 272.506 371.157 272.993 371.351C273.481 371.545 273.933 371.801 274.35 372.118C274.766 372.435 275.103 372.828 275.358 373.297C275.619 373.766 275.749 374.327 275.749 374.98C275.749 375.804 275.536 376.536 275.11 377.175C274.688 377.814 274.075 378.318 273.27 378.688C272.47 379.057 271.502 379.241 270.365 379.241C269.276 379.241 268.334 379.069 267.539 378.723C266.743 378.377 266.121 377.887 265.671 377.253C265.221 376.614 264.972 375.856 264.925 374.98H267.127C267.169 375.506 267.34 375.944 267.638 376.294C267.941 376.64 268.327 376.898 268.796 377.068C269.269 377.234 269.788 377.317 270.351 377.317C270.971 377.317 271.523 377.22 272.006 377.026C272.494 376.827 272.877 376.552 273.157 376.202C273.436 375.847 273.576 375.432 273.576 374.959C273.576 374.528 273.453 374.175 273.206 373.901C272.965 373.626 272.636 373.399 272.219 373.219C271.807 373.039 271.341 372.88 270.82 372.743L269.101 372.274C267.936 371.957 267.013 371.491 266.331 370.875C265.654 370.259 265.316 369.445 265.316 368.432C265.316 367.594 265.543 366.862 265.998 366.237C266.452 365.612 267.068 365.127 267.844 364.781C268.621 364.431 269.497 364.256 270.472 364.256C271.457 364.256 272.326 364.429 273.078 364.774C273.836 365.12 274.433 365.596 274.868 366.202C275.304 366.803 275.531 367.494 275.55 368.276H273.434ZM282.903 379.22C281.828 379.22 280.902 378.991 280.126 378.531C279.354 378.067 278.757 377.416 278.336 376.578C277.919 375.735 277.711 374.748 277.711 373.616C277.711 372.499 277.919 371.514 278.336 370.662C278.757 369.81 279.344 369.144 280.097 368.666C280.855 368.188 281.74 367.949 282.754 367.949C283.369 367.949 283.966 368.051 284.543 368.254C285.121 368.458 285.639 368.777 286.099 369.213C286.558 369.649 286.92 370.214 287.185 370.911C287.451 371.602 287.583 372.442 287.583 373.432V374.185H278.911V372.594H285.502C285.502 372.035 285.388 371.54 285.161 371.109C284.934 370.674 284.614 370.33 284.202 370.08C283.795 369.829 283.317 369.703 282.768 369.703C282.171 369.703 281.65 369.85 281.205 370.143C280.765 370.432 280.424 370.811 280.183 371.28C279.946 371.744 279.827 372.248 279.827 372.793V374.036C279.827 374.765 279.955 375.385 280.211 375.896C280.471 376.408 280.834 376.798 281.298 377.068C281.762 377.333 282.304 377.466 282.924 377.466C283.326 377.466 283.693 377.409 284.025 377.295C284.356 377.177 284.643 377.002 284.884 376.77C285.126 376.538 285.31 376.251 285.438 375.911L287.448 376.273C287.287 376.865 286.998 377.383 286.582 377.828C286.17 378.268 285.651 378.612 285.026 378.858C284.406 379.099 283.698 379.22 282.903 379.22ZM294.534 379.22C293.479 379.22 292.569 378.981 291.807 378.503C291.05 378.02 290.467 377.355 290.06 376.507C289.653 375.66 289.449 374.689 289.449 373.595C289.449 372.487 289.658 371.509 290.074 370.662C290.491 369.81 291.078 369.144 291.836 368.666C292.593 368.188 293.486 367.949 294.513 367.949C295.342 367.949 296.08 368.103 296.729 368.411C297.378 368.714 297.901 369.14 298.299 369.689C298.701 370.238 298.94 370.88 299.016 371.614H296.949C296.836 371.102 296.575 370.662 296.168 370.293C295.766 369.923 295.226 369.739 294.549 369.739C293.957 369.739 293.438 369.895 292.993 370.207C292.553 370.515 292.21 370.955 291.963 371.528C291.717 372.097 291.594 372.769 291.594 373.545C291.594 374.341 291.715 375.027 291.956 375.605C292.198 376.183 292.539 376.63 292.979 376.947C293.424 377.265 293.947 377.423 294.549 377.423C294.951 377.423 295.316 377.35 295.642 377.203C295.974 377.052 296.251 376.836 296.473 376.557C296.701 376.277 296.859 375.941 296.949 375.548H299.016C298.94 376.254 298.711 376.884 298.327 377.438C297.944 377.991 297.43 378.427 296.786 378.744C296.147 379.062 295.396 379.22 294.534 379.22ZM308.197 374.476V368.091H310.328V379H308.24V377.111H308.126C307.875 377.693 307.473 378.179 306.919 378.567C306.37 378.95 305.686 379.142 304.866 379.142C304.166 379.142 303.545 378.988 303.006 378.68C302.471 378.368 302.049 377.906 301.741 377.295C301.438 376.685 301.287 375.929 301.287 375.03V368.091H303.411V374.774C303.411 375.518 303.616 376.109 304.028 376.55C304.44 376.99 304.975 377.21 305.634 377.21C306.031 377.21 306.427 377.111 306.82 376.912C307.217 376.713 307.546 376.412 307.807 376.01C308.072 375.607 308.202 375.096 308.197 374.476ZM313.181 379V368.091H315.234V369.824H315.348C315.547 369.237 315.897 368.775 316.399 368.439C316.905 368.098 317.478 367.928 318.118 367.928C318.25 367.928 318.406 367.932 318.586 367.942C318.771 367.951 318.915 367.963 319.02 367.977V370.009C318.934 369.985 318.783 369.959 318.565 369.93C318.347 369.897 318.129 369.881 317.912 369.881C317.41 369.881 316.962 369.987 316.569 370.2C316.181 370.409 315.873 370.7 315.646 371.074C315.419 371.443 315.305 371.865 315.305 372.338V379H313.181ZM325.168 379.22C324.094 379.22 323.168 378.991 322.391 378.531C321.62 378.067 321.023 377.416 320.602 376.578C320.185 375.735 319.977 374.748 319.977 373.616C319.977 372.499 320.185 371.514 320.602 370.662C321.023 369.81 321.61 369.144 322.363 368.666C323.121 368.188 324.006 367.949 325.019 367.949C325.635 367.949 326.231 368.051 326.809 368.254C327.387 368.458 327.905 368.777 328.364 369.213C328.824 369.649 329.186 370.214 329.451 370.911C329.716 371.602 329.849 372.442 329.849 373.432V374.185H321.177V372.594H327.768C327.768 372.035 327.654 371.54 327.427 371.109C327.2 370.674 326.88 370.33 326.468 370.08C326.061 369.829 325.583 369.703 325.033 369.703C324.437 369.703 323.916 369.85 323.471 370.143C323.031 370.432 322.69 370.811 322.448 371.28C322.211 371.744 322.093 372.248 322.093 372.793V374.036C322.093 374.765 322.221 375.385 322.477 375.896C322.737 376.408 323.099 376.798 323.563 377.068C324.027 377.333 324.569 377.466 325.19 377.466C325.592 377.466 325.959 377.409 326.29 377.295C326.622 377.177 326.908 377.002 327.15 376.77C327.391 376.538 327.576 376.251 327.704 375.911L329.714 376.273C329.553 376.865 329.264 377.383 328.847 377.828C328.435 378.268 327.917 378.612 327.292 378.858C326.672 379.099 325.964 379.22 325.168 379.22ZM341.731 379.206C340.755 379.206 339.915 379.028 339.21 378.673C338.509 378.318 337.969 377.835 337.59 377.224C337.211 376.609 337.022 375.913 337.022 375.136C337.022 374.545 337.145 374.019 337.391 373.56C337.638 373.096 337.981 372.667 338.421 372.274C338.862 371.881 339.371 371.486 339.948 371.088L342.292 369.433C342.69 369.173 343 368.898 343.222 368.609C343.445 368.316 343.556 367.954 343.556 367.523C343.556 367.182 343.409 366.855 343.116 366.543C342.822 366.23 342.429 366.074 341.937 366.074C341.596 366.074 341.295 366.157 341.035 366.322C340.779 366.488 340.578 366.701 340.431 366.962C340.289 367.217 340.218 367.487 340.218 367.771C340.218 368.103 340.308 368.437 340.488 368.773C340.673 369.109 340.909 369.457 341.198 369.817C341.487 370.172 341.79 370.541 342.107 370.925L348.862 379H346.461L340.871 372.43C340.403 371.876 339.967 371.356 339.565 370.868C339.162 370.375 338.835 369.878 338.585 369.376C338.338 368.87 338.215 368.323 338.215 367.736C338.215 367.068 338.367 366.476 338.67 365.96C338.978 365.439 339.406 365.032 339.955 364.739C340.504 364.445 341.148 364.298 341.887 364.298C342.635 364.298 343.277 364.445 343.812 364.739C344.352 365.027 344.766 365.413 345.055 365.896C345.348 366.375 345.495 366.898 345.495 367.466C345.495 368.157 345.322 368.768 344.977 369.298C344.636 369.824 344.165 370.307 343.563 370.747L340.644 372.899C340.076 373.316 339.681 373.728 339.458 374.135C339.24 374.537 339.131 374.852 339.131 375.08C339.131 375.496 339.238 375.882 339.451 376.237C339.669 376.592 339.972 376.876 340.36 377.089C340.753 377.303 341.212 377.409 341.738 377.409C342.278 377.409 342.803 377.293 343.315 377.061C343.831 376.824 344.297 376.486 344.714 376.045C345.135 375.605 345.469 375.077 345.715 374.462C345.961 373.846 346.085 373.157 346.085 372.395H348.002C348.002 373.332 347.896 374.125 347.683 374.774C347.469 375.418 347.211 375.944 346.908 376.351C346.61 376.753 346.328 377.068 346.063 377.295C345.978 377.371 345.897 377.447 345.822 377.523C345.746 377.598 345.665 377.674 345.58 377.75C345.088 378.247 344.491 378.614 343.79 378.851C343.094 379.088 342.408 379.206 341.731 379.206ZM270.559 403V388.455H275.744C276.871 388.455 277.806 388.649 278.549 389.037C279.297 389.425 279.856 389.963 280.225 390.649C280.594 391.331 280.779 392.119 280.779 393.014C280.779 393.904 280.592 394.688 280.218 395.365C279.849 396.037 279.29 396.561 278.542 396.935C277.799 397.309 276.863 397.496 275.737 397.496H271.809V395.607H275.538C276.248 395.607 276.826 395.505 277.271 395.301C277.72 395.098 278.049 394.802 278.258 394.413C278.466 394.025 278.57 393.559 278.57 393.014C278.57 392.465 278.464 391.989 278.251 391.587C278.042 391.184 277.713 390.876 277.263 390.663C276.818 390.446 276.234 390.337 275.509 390.337H272.754V403H270.559ZM277.739 396.438L281.333 403H278.833L275.31 396.438H277.739ZM287.844 403.22C286.769 403.22 285.844 402.991 285.067 402.531C284.295 402.067 283.699 401.416 283.277 400.578C282.861 399.735 282.652 398.748 282.652 397.616C282.652 396.499 282.861 395.514 283.277 394.662C283.699 393.81 284.286 393.144 285.039 392.666C285.796 392.188 286.682 391.949 287.695 391.949C288.31 391.949 288.907 392.051 289.485 392.254C290.062 392.458 290.581 392.777 291.04 393.213C291.499 393.649 291.862 394.214 292.127 394.911C292.392 395.602 292.525 396.442 292.525 397.432V398.185H283.853V396.594H290.444C290.444 396.035 290.33 395.54 290.103 395.109C289.875 394.674 289.556 394.33 289.144 394.08C288.737 393.829 288.258 393.703 287.709 393.703C287.113 393.703 286.592 393.85 286.147 394.143C285.706 394.432 285.365 394.811 285.124 395.28C284.887 395.744 284.769 396.248 284.769 396.793V398.036C284.769 398.765 284.897 399.385 285.152 399.896C285.413 400.408 285.775 400.798 286.239 401.068C286.703 401.333 287.245 401.466 287.865 401.466C288.268 401.466 288.635 401.409 288.966 401.295C289.298 401.177 289.584 401.002 289.826 400.77C290.067 400.538 290.252 400.251 290.38 399.911L292.39 400.273C292.229 400.865 291.94 401.383 291.523 401.828C291.111 402.268 290.593 402.612 289.968 402.858C289.347 403.099 288.64 403.22 287.844 403.22ZM297.004 388.455V403H294.881V388.455H297.004ZM299.861 403V392.091H301.985V403H299.861ZM300.934 390.408C300.564 390.408 300.247 390.285 299.982 390.038C299.721 389.787 299.591 389.489 299.591 389.143C299.591 388.793 299.721 388.495 299.982 388.249C300.247 387.998 300.564 387.872 300.934 387.872C301.303 387.872 301.618 387.998 301.878 388.249C302.143 388.495 302.276 388.793 302.276 389.143C302.276 389.489 302.143 389.787 301.878 390.038C301.618 390.285 301.303 390.408 300.934 390.408ZM308.016 403.241C307.325 403.241 306.7 403.114 306.141 402.858C305.583 402.598 305.14 402.221 304.813 401.729C304.491 401.236 304.33 400.633 304.33 399.918C304.33 399.302 304.449 398.795 304.685 398.398C304.922 398 305.242 397.685 305.644 397.453C306.047 397.221 306.496 397.046 306.994 396.928C307.491 396.809 307.997 396.719 308.513 396.658C309.167 396.582 309.697 396.52 310.104 396.473C310.512 396.421 310.808 396.338 310.992 396.224C311.177 396.111 311.269 395.926 311.269 395.67V395.621C311.269 395 311.094 394.52 310.744 394.179C310.398 393.838 309.882 393.668 309.195 393.668C308.48 393.668 307.917 393.826 307.505 394.143C307.098 394.456 306.816 394.804 306.66 395.188L304.664 394.733C304.901 394.07 305.246 393.535 305.701 393.128C306.16 392.716 306.688 392.418 307.285 392.233C307.881 392.044 308.509 391.949 309.167 391.949C309.603 391.949 310.064 392.001 310.552 392.105C311.044 392.205 311.504 392.389 311.93 392.659C312.361 392.929 312.713 393.315 312.988 393.817C313.263 394.314 313.4 394.96 313.4 395.756V403H311.326V401.509H311.241C311.103 401.783 310.897 402.053 310.623 402.318C310.348 402.583 309.996 402.804 309.565 402.979C309.134 403.154 308.618 403.241 308.016 403.241ZM308.478 401.537C309.065 401.537 309.567 401.421 309.984 401.189C310.405 400.957 310.725 400.654 310.942 400.28C311.165 399.901 311.276 399.496 311.276 399.065V397.659C311.201 397.735 311.054 397.806 310.836 397.872C310.623 397.934 310.379 397.988 310.104 398.036C309.83 398.078 309.562 398.118 309.302 398.156C309.041 398.189 308.824 398.218 308.648 398.241C308.237 398.294 307.86 398.381 307.519 398.504C307.183 398.627 306.913 398.805 306.71 399.037C306.511 399.264 306.411 399.567 306.411 399.946C306.411 400.472 306.605 400.869 306.994 401.139C307.382 401.404 307.877 401.537 308.478 401.537ZM316.399 403V388.455H318.522V393.859H318.65C318.773 393.632 318.951 393.369 319.183 393.071C319.415 392.773 319.737 392.512 320.149 392.29C320.561 392.062 321.105 391.949 321.782 391.949C322.663 391.949 323.449 392.171 324.14 392.616C324.832 393.062 325.374 393.703 325.767 394.541C326.164 395.379 326.363 396.388 326.363 397.567C326.363 398.746 326.167 399.757 325.774 400.599C325.381 401.437 324.841 402.084 324.154 402.538C323.468 402.988 322.684 403.213 321.804 403.213C321.141 403.213 320.599 403.102 320.177 402.879C319.761 402.657 319.434 402.396 319.197 402.098C318.96 401.8 318.778 401.535 318.65 401.303H318.473V403H316.399ZM318.48 397.545C318.48 398.312 318.591 398.985 318.814 399.562C319.036 400.14 319.358 400.592 319.779 400.919C320.201 401.241 320.717 401.402 321.328 401.402C321.962 401.402 322.493 401.234 322.919 400.898C323.345 400.557 323.667 400.095 323.885 399.513C324.107 398.93 324.218 398.275 324.218 397.545C324.218 396.826 324.109 396.179 323.892 395.607C323.679 395.034 323.357 394.581 322.926 394.25C322.5 393.919 321.967 393.753 321.328 393.753C320.712 393.753 320.191 393.911 319.765 394.229C319.344 394.546 319.024 394.989 318.806 395.557C318.589 396.125 318.48 396.788 318.48 397.545ZM330.871 388.455V403H328.748V388.455H330.871ZM338.43 403.22C337.355 403.22 336.43 402.991 335.653 402.531C334.881 402.067 334.285 401.416 333.863 400.578C333.447 399.735 333.238 398.748 333.238 397.616C333.238 396.499 333.447 395.514 333.863 394.662C334.285 393.81 334.872 393.144 335.625 392.666C336.382 392.188 337.268 391.949 338.281 391.949C338.896 391.949 339.493 392.051 340.071 392.254C340.648 392.458 341.167 392.777 341.626 393.213C342.085 393.649 342.448 394.214 342.713 394.911C342.978 395.602 343.11 396.442 343.11 397.432V398.185H334.439V396.594H341.029C341.029 396.035 340.916 395.54 340.689 395.109C340.461 394.674 340.142 394.33 339.73 394.08C339.323 393.829 338.844 393.703 338.295 393.703C337.699 393.703 337.178 393.85 336.733 394.143C336.292 394.432 335.951 394.811 335.71 395.28C335.473 395.744 335.355 396.248 335.355 396.793V398.036C335.355 398.765 335.483 399.385 335.738 399.896C335.999 400.408 336.361 400.798 336.825 401.068C337.289 401.333 337.831 401.466 338.451 401.466C338.854 401.466 339.221 401.409 339.552 401.295C339.884 401.177 340.17 401.002 340.412 400.77C340.653 400.538 340.838 400.251 340.966 399.911L342.975 400.273C342.815 400.865 342.526 401.383 342.109 401.828C341.697 402.268 341.179 402.612 340.554 402.858C339.933 403.099 339.225 403.22 338.43 403.22Z" fill="#212528"/>
</g>
<defs>
<filter id="filter0_d_242_317" x="0.5" y="0" width="404" height="84" filterUnits="userSpaceOnUse" color-interpolation-filters="sRGB">
<feFlood flood-opacity="0" result="BackgroundImageFix"/>
<feColorMatrix in="SourceAlpha" type="matrix" values="0 0 0 0 0 0 0 0 0 0 0 0 0 0 0 0 0 0 127 0" result="hardAlpha"/>
<feOffset dx="4" dy="4"/>
<feComposite in2="hardAlpha" operator="out"/>
<feColorMatrix type="matrix" values="0 0 0 0 0.690435 0 0 0 0 0.909565 0 0 0 0 0.713043 0 0 0 1 0"/>
<feBlend mode="normal" in2="BackgroundImageFix" result="effect1_dropShadow_242_317"/>
<feBlend mode="normal" in="SourceGraphic" in2="effect1_dropShadow_242_317" result="shape"/>
</filter>
<filter id="filter1_d_242_317" x="0.5" y="280" width="192" height="156" filterUnits="userSpaceOnUse" color-interpolation-filters="sRGB">
<feFlood flood-opacity="0" result="BackgroundImageFix"/>
<feColorMatrix in="SourceAlpha" type="matrix" values="0 0 0 0 0 0 0 0 0 0 0 0 0 0 0 0 0 0 127 0" result="hardAlpha"/>
<feOffset dx="4" dy="4"/>
<feComposite in2="hardAlpha" operator="out"/>
<feColorMatrix type="matrix" values="0 0 0 0 0.932432 0 0 0 0 0.842378 0 0 0 0 0.667568 0 0 0 1 0"/>
<feBlend mode="normal" in2="BackgroundImageFix" result="effect1_dropShadow_242_317"/>
<feBlend mode="normal" in="SourceGraphic" in2="effect1_dropShadow_242_317" result="shape"/>
</filter>
<filter id="filter2_d_242_317" x="0" y="104" width="404" height="156" filterUnits="userSpaceOnUse" color-interpolation-filters="sRGB">
<feFlood flood-opacity="0" result="BackgroundImageFix"/>
<feColorMatrix in="SourceAlpha" type="matrix" values="0 0 0 0 0 0 0 0 0 0 0 0 0 0 0 0 0 0 127 0" result="hardAlpha"/>
<feOffset dx="4" dy="4"/>
<feComposite in2="hardAlpha" operator="out"/>
<feColorMatrix type="matrix" values="0 0 0 0 0.932432 0 0 0 0 0.842378 0 0 0 0 0.667568 0 0 0 1 0"/>
<feBlend mode="normal" in2="BackgroundImageFix" result="effect1_dropShadow_242_317"/>
<feBlend mode="normal" in="SourceGraphic" in2="effect1_dropShadow_242_317" result="shape"/>
</filter>
<filter id="filter3_d_242_317" x="212.5" y="280" width="192" height="156" filterUnits="userSpaceOnUse" color-interpolation-filters="sRGB">
<feFlood flood-opacity="0" result="BackgroundImageFix"/>
<feColorMatrix in="SourceAlpha" type="matrix" values="0 0 0 0 0 0 0 0 0 0 0 0 0 0 0 0 0 0 127 0" result="hardAlpha"/>
<feOffset dx="4" dy="4"/>
<feComposite in2="hardAlpha" operator="out"/>
<feColorMatrix type="matrix" values="0 0 0 0 0.667568 0 0 0 0 0.8 0 0 0 0 0.932432 0 0 0 1 0"/>
<feBlend mode="normal" in2="BackgroundImageFix" result="effect1_dropShadow_242_317"/>
<feBlend mode="normal" in="SourceGraphic" in2="effect1_dropShadow_242_317" result="shape"/>
</filter>
</defs>
</svg>
