<svg width="329" height="542" viewBox="0 0 329 542" fill="none" xmlns="http://www.w3.org/2000/svg">
<g filter="url(#filter0_d_140_996)">
<rect x="0.5" y="107" width="150" height="150" rx="16" fill="white" shape-rendering="crispEdges"/>
<rect x="1" y="107.5" width="149" height="149" rx="15.5" stroke="#212528" shape-rendering="crispEdges"/>
<path d="M87.1667 166.167V147.5H63.8333V156.833H54.5V189.5H73.1667V180.167H77.8333V189.5H96.5V166.167H87.1667ZM63.8333 184.833H59.1667V180.167H63.8333V184.833ZM63.8333 175.5H59.1667V170.833H63.8333V175.5ZM63.8333 166.167H59.1667V161.5H63.8333V166.167ZM73.1667 175.5H68.5V170.833H73.1667V175.5ZM73.1667 166.167H68.5V161.5H73.1667V166.167ZM73.1667 156.833H68.5V152.167H73.1667V156.833ZM82.5 175.5H77.8333V170.833H82.5V175.5ZM82.5 166.167H77.8333V161.5H82.5V166.167ZM82.5 156.833H77.8333V152.167H82.5V156.833ZM91.8333 184.833H87.1667V180.167H91.8333V184.833ZM91.8333 175.5H87.1667V170.833H91.8333V175.5Z" fill="#F2800D"/>
<path d="M49.1477 219.5V207.864H53.6023C54.4432 207.864 55.142 207.996 55.6989 208.261C56.2595 208.523 56.678 208.881 56.9545 209.335C57.2348 209.79 57.375 210.305 57.375 210.881C57.375 211.354 57.2841 211.759 57.1023 212.097C56.9205 212.43 56.6761 212.701 56.3693 212.909C56.0625 213.117 55.7197 213.267 55.3409 213.358V213.472C55.7538 213.494 56.1496 213.621 56.5284 213.852C56.911 214.08 57.2235 214.402 57.4659 214.818C57.7083 215.235 57.8295 215.739 57.8295 216.33C57.8295 216.932 57.6837 217.473 57.392 217.955C57.1004 218.432 56.661 218.809 56.0739 219.085C55.4867 219.362 54.7481 219.5 53.858 219.5H49.1477ZM51.2557 217.739H53.5227C54.2879 217.739 54.839 217.593 55.1761 217.301C55.517 217.006 55.6875 216.627 55.6875 216.165C55.6875 215.82 55.6023 215.509 55.4318 215.233C55.2614 214.953 55.0189 214.733 54.7045 214.574C54.3902 214.411 54.0152 214.33 53.5795 214.33H51.2557V217.739ZM51.2557 212.812H53.3409C53.7045 212.812 54.0322 212.746 54.3239 212.614C54.6155 212.477 54.8447 212.286 55.0114 212.04C55.1818 211.79 55.267 211.494 55.267 211.153C55.267 210.703 55.108 210.331 54.7898 210.04C54.4754 209.748 54.0076 209.602 53.3864 209.602H51.2557V212.812ZM59.5724 219.5V210.773H61.5668V212.227H61.6577C61.8168 211.723 62.0895 211.335 62.4759 211.062C62.866 210.786 63.3111 210.648 63.8111 210.648C63.9247 210.648 64.0516 210.653 64.1918 210.665C64.3357 210.672 64.455 210.686 64.5497 210.705V212.597C64.4626 212.566 64.3243 212.54 64.1349 212.517C63.9493 212.491 63.7694 212.477 63.5952 212.477C63.2202 212.477 62.883 212.559 62.5838 212.722C62.2884 212.881 62.0554 213.102 61.8849 213.386C61.7145 213.67 61.6293 213.998 61.6293 214.369V219.5H59.5724ZM68.2713 219.676C67.7183 219.676 67.2202 219.578 66.777 219.381C66.3376 219.18 65.9891 218.884 65.7315 218.494C65.4777 218.104 65.3509 217.623 65.3509 217.051C65.3509 216.559 65.4418 216.152 65.6236 215.83C65.8054 215.508 66.0535 215.25 66.3679 215.057C66.6823 214.864 67.0365 214.718 67.4304 214.619C67.8281 214.517 68.2391 214.443 68.6634 214.398C69.1747 214.345 69.5895 214.297 69.9077 214.256C70.2259 214.21 70.4569 214.142 70.6009 214.051C70.7486 213.956 70.8224 213.811 70.8224 213.614V213.58C70.8224 213.152 70.6955 212.82 70.4418 212.585C70.188 212.35 69.8224 212.233 69.3452 212.233C68.8414 212.233 68.4418 212.343 68.1463 212.562C67.8546 212.782 67.6577 213.042 67.5554 213.341L65.6349 213.068C65.7865 212.538 66.0365 212.095 66.3849 211.739C66.7334 211.379 67.1596 211.11 67.6634 210.932C68.1671 210.75 68.724 210.659 69.3338 210.659C69.7543 210.659 70.1728 210.708 70.5895 210.807C71.0062 210.905 71.3868 211.068 71.7315 211.295C72.0762 211.519 72.3527 211.824 72.5611 212.21C72.7732 212.597 72.8793 213.08 72.8793 213.659V219.5H70.902V218.301H70.8338C70.7088 218.544 70.5327 218.771 70.3054 218.983C70.0819 219.191 69.7997 219.36 69.4588 219.489C69.1217 219.614 68.7259 219.676 68.2713 219.676ZM68.8054 218.165C69.2183 218.165 69.5762 218.083 69.8793 217.92C70.1823 217.754 70.4152 217.534 70.5781 217.261C70.7448 216.989 70.8281 216.691 70.8281 216.369V215.341C70.7637 215.394 70.6539 215.443 70.4986 215.489C70.3471 215.534 70.1766 215.574 69.9872 215.608C69.7978 215.642 69.6103 215.672 69.4247 215.699C69.2391 215.725 69.0781 215.748 68.9418 215.767C68.6349 215.809 68.3603 215.877 68.1179 215.972C67.8755 216.066 67.6842 216.199 67.544 216.369C67.4039 216.536 67.3338 216.752 67.3338 217.017C67.3338 217.396 67.4721 217.682 67.7486 217.875C68.0251 218.068 68.3774 218.165 68.8054 218.165ZM77.0043 214.386V219.5H74.9474V210.773H76.9134V212.256H77.0156C77.2164 211.767 77.5365 211.379 77.9759 211.091C78.419 210.803 78.9664 210.659 79.6179 210.659C80.2202 210.659 80.7448 210.788 81.1918 211.045C81.6425 211.303 81.991 211.676 82.2372 212.165C82.4872 212.653 82.6103 213.246 82.6065 213.943V219.5H80.5497V214.261C80.5497 213.678 80.3982 213.222 80.0952 212.892C79.7959 212.562 79.3812 212.398 78.8509 212.398C78.491 212.398 78.1709 212.477 77.8906 212.636C77.6141 212.792 77.3963 213.017 77.2372 213.312C77.0819 213.608 77.0043 213.966 77.0043 214.386ZM88.5043 219.67C87.633 219.67 86.8849 219.479 86.2599 219.097C85.6387 218.714 85.1596 218.186 84.8224 217.511C84.4891 216.833 84.3224 216.053 84.3224 215.17C84.3224 214.284 84.4929 213.502 84.8338 212.824C85.1747 212.142 85.6558 211.612 86.277 211.233C86.902 210.85 87.6406 210.659 88.4929 210.659C89.2012 210.659 89.8281 210.79 90.3736 211.051C90.9228 211.309 91.3603 211.674 91.6861 212.148C92.0118 212.617 92.1974 213.167 92.2429 213.795H90.277C90.1974 213.375 90.008 213.025 89.7088 212.744C89.4134 212.46 89.0175 212.318 88.5213 212.318C88.1009 212.318 87.7315 212.432 87.4134 212.659C87.0952 212.883 86.8471 213.205 86.669 213.625C86.4948 214.045 86.4077 214.549 86.4077 215.136C86.4077 215.731 86.4948 216.242 86.669 216.67C86.8433 217.095 87.0876 217.422 87.402 217.653C87.7202 217.881 88.0933 217.994 88.5213 217.994C88.8243 217.994 89.0952 217.937 89.3338 217.824C89.5762 217.706 89.7789 217.538 89.9418 217.318C90.1046 217.098 90.2164 216.831 90.277 216.517H92.2429C92.1937 217.134 92.0118 217.682 91.6974 218.159C91.383 218.633 90.955 219.004 90.4134 219.273C89.8717 219.538 89.2353 219.67 88.5043 219.67ZM95.9886 214.386V219.5H93.9318V207.864H95.9432V212.256H96.0455C96.25 211.763 96.5663 211.375 96.9943 211.091C97.4261 210.803 97.9754 210.659 98.642 210.659C99.2481 210.659 99.7765 210.786 100.227 211.04C100.678 211.294 101.027 211.665 101.273 212.153C101.523 212.642 101.648 213.239 101.648 213.943V219.5H99.5909V214.261C99.5909 213.674 99.4394 213.218 99.1364 212.892C98.8371 212.562 98.4167 212.398 97.875 212.398C97.5114 212.398 97.1856 212.477 96.8977 212.636C96.6136 212.792 96.3902 213.017 96.2273 213.312C96.0682 213.608 95.9886 213.966 95.9886 214.386Z" fill="#212528"/>
</g>
<g filter="url(#filter1_d_140_996)">
<rect x="0.5" y="281" width="150" height="150" rx="16" fill="white" shape-rendering="crispEdges"/>
<rect x="1" y="281.5" width="149" height="149" rx="15.5" stroke="#212528" shape-rendering="crispEdges"/>
<path d="M87.1667 340.167V321.5H63.8333V330.833H54.5V363.5H73.1667V354.167H77.8333V363.5H96.5V340.167H87.1667ZM63.8333 358.833H59.1667V354.167H63.8333V358.833ZM63.8333 349.5H59.1667V344.833H63.8333V349.5ZM63.8333 340.167H59.1667V335.5H63.8333V340.167ZM73.1667 349.5H68.5V344.833H73.1667V349.5ZM73.1667 340.167H68.5V335.5H73.1667V340.167ZM73.1667 330.833H68.5V326.167H73.1667V330.833ZM82.5 349.5H77.8333V344.833H82.5V349.5ZM82.5 340.167H77.8333V335.5H82.5V340.167ZM82.5 330.833H77.8333V326.167H82.5V330.833ZM91.8333 358.833H87.1667V354.167H91.8333V358.833ZM91.8333 349.5H87.1667V344.833H91.8333V349.5Z" fill="#0080FF"/>
<path d="M49.1477 393.5V381.864H53.6023C54.4432 381.864 55.142 381.996 55.6989 382.261C56.2595 382.523 56.678 382.881 56.9545 383.335C57.2348 383.79 57.375 384.305 57.375 384.881C57.375 385.354 57.2841 385.759 57.1023 386.097C56.9205 386.43 56.6761 386.701 56.3693 386.909C56.0625 387.117 55.7197 387.267 55.3409 387.358V387.472C55.7538 387.494 56.1496 387.621 56.5284 387.852C56.911 388.08 57.2235 388.402 57.4659 388.818C57.7083 389.235 57.8295 389.739 57.8295 390.33C57.8295 390.932 57.6837 391.473 57.392 391.955C57.1004 392.432 56.661 392.809 56.0739 393.085C55.4867 393.362 54.7481 393.5 53.858 393.5H49.1477ZM51.2557 391.739H53.5227C54.2879 391.739 54.839 391.593 55.1761 391.301C55.517 391.006 55.6875 390.627 55.6875 390.165C55.6875 389.82 55.6023 389.509 55.4318 389.233C55.2614 388.953 55.0189 388.733 54.7045 388.574C54.3902 388.411 54.0152 388.33 53.5795 388.33H51.2557V391.739ZM51.2557 386.812H53.3409C53.7045 386.812 54.0322 386.746 54.3239 386.614C54.6155 386.477 54.8447 386.286 55.0114 386.04C55.1818 385.79 55.267 385.494 55.267 385.153C55.267 384.703 55.108 384.331 54.7898 384.04C54.4754 383.748 54.0076 383.602 53.3864 383.602H51.2557V386.812ZM59.5724 393.5V384.773H61.5668V386.227H61.6577C61.8168 385.723 62.0895 385.335 62.4759 385.062C62.866 384.786 63.3111 384.648 63.8111 384.648C63.9247 384.648 64.0516 384.653 64.1918 384.665C64.3357 384.672 64.455 384.686 64.5497 384.705V386.597C64.4626 386.566 64.3243 386.54 64.1349 386.517C63.9493 386.491 63.7694 386.477 63.5952 386.477C63.2202 386.477 62.883 386.559 62.5838 386.722C62.2884 386.881 62.0554 387.102 61.8849 387.386C61.7145 387.67 61.6293 387.998 61.6293 388.369V393.5H59.5724ZM68.2713 393.676C67.7183 393.676 67.2202 393.578 66.777 393.381C66.3376 393.18 65.9891 392.884 65.7315 392.494C65.4777 392.104 65.3509 391.623 65.3509 391.051C65.3509 390.559 65.4418 390.152 65.6236 389.83C65.8054 389.508 66.0535 389.25 66.3679 389.057C66.6823 388.864 67.0365 388.718 67.4304 388.619C67.8281 388.517 68.2391 388.443 68.6634 388.398C69.1747 388.345 69.5895 388.297 69.9077 388.256C70.2259 388.21 70.4569 388.142 70.6009 388.051C70.7486 387.956 70.8224 387.811 70.8224 387.614V387.58C70.8224 387.152 70.6955 386.82 70.4418 386.585C70.188 386.35 69.8224 386.233 69.3452 386.233C68.8414 386.233 68.4418 386.343 68.1463 386.562C67.8546 386.782 67.6577 387.042 67.5554 387.341L65.6349 387.068C65.7865 386.538 66.0365 386.095 66.3849 385.739C66.7334 385.379 67.1596 385.11 67.6634 384.932C68.1671 384.75 68.724 384.659 69.3338 384.659C69.7543 384.659 70.1728 384.708 70.5895 384.807C71.0062 384.905 71.3868 385.068 71.7315 385.295C72.0762 385.519 72.3527 385.824 72.5611 386.21C72.7732 386.597 72.8793 387.08 72.8793 387.659V393.5H70.902V392.301H70.8338C70.7088 392.544 70.5327 392.771 70.3054 392.983C70.0819 393.191 69.7997 393.36 69.4588 393.489C69.1217 393.614 68.7259 393.676 68.2713 393.676ZM68.8054 392.165C69.2183 392.165 69.5762 392.083 69.8793 391.92C70.1823 391.754 70.4152 391.534 70.5781 391.261C70.7448 390.989 70.8281 390.691 70.8281 390.369V389.341C70.7637 389.394 70.6539 389.443 70.4986 389.489C70.3471 389.534 70.1766 389.574 69.9872 389.608C69.7978 389.642 69.6103 389.672 69.4247 389.699C69.2391 389.725 69.0781 389.748 68.9418 389.767C68.6349 389.809 68.3603 389.877 68.1179 389.972C67.8755 390.066 67.6842 390.199 67.544 390.369C67.4039 390.536 67.3338 390.752 67.3338 391.017C67.3338 391.396 67.4721 391.682 67.7486 391.875C68.0251 392.068 68.3774 392.165 68.8054 392.165ZM77.0043 388.386V393.5H74.9474V384.773H76.9134V386.256H77.0156C77.2164 385.767 77.5365 385.379 77.9759 385.091C78.419 384.803 78.9664 384.659 79.6179 384.659C80.2202 384.659 80.7448 384.788 81.1918 385.045C81.6425 385.303 81.991 385.676 82.2372 386.165C82.4872 386.653 82.6103 387.246 82.6065 387.943V393.5H80.5497V388.261C80.5497 387.678 80.3982 387.222 80.0952 386.892C79.7959 386.562 79.3812 386.398 78.8509 386.398C78.491 386.398 78.1709 386.477 77.8906 386.636C77.6141 386.792 77.3963 387.017 77.2372 387.312C77.0819 387.608 77.0043 387.966 77.0043 388.386ZM88.5043 393.67C87.633 393.67 86.8849 393.479 86.2599 393.097C85.6387 392.714 85.1596 392.186 84.8224 391.511C84.4891 390.833 84.3224 390.053 84.3224 389.17C84.3224 388.284 84.4929 387.502 84.8338 386.824C85.1747 386.142 85.6558 385.612 86.277 385.233C86.902 384.85 87.6406 384.659 88.4929 384.659C89.2012 384.659 89.8281 384.79 90.3736 385.051C90.9228 385.309 91.3603 385.674 91.6861 386.148C92.0118 386.617 92.1974 387.167 92.2429 387.795H90.277C90.1974 387.375 90.008 387.025 89.7088 386.744C89.4134 386.46 89.0175 386.318 88.5213 386.318C88.1009 386.318 87.7315 386.432 87.4134 386.659C87.0952 386.883 86.8471 387.205 86.669 387.625C86.4948 388.045 86.4077 388.549 86.4077 389.136C86.4077 389.731 86.4948 390.242 86.669 390.67C86.8433 391.095 87.0876 391.422 87.402 391.653C87.7202 391.881 88.0933 391.994 88.5213 391.994C88.8243 391.994 89.0952 391.937 89.3338 391.824C89.5762 391.706 89.7789 391.538 89.9418 391.318C90.1046 391.098 90.2164 390.831 90.277 390.517H92.2429C92.1937 391.134 92.0118 391.682 91.6974 392.159C91.383 392.633 90.955 393.004 90.4134 393.273C89.8717 393.538 89.2353 393.67 88.5043 393.67ZM95.9886 388.386V393.5H93.9318V381.864H95.9432V386.256H96.0455C96.25 385.763 96.5663 385.375 96.9943 385.091C97.4261 384.803 97.9754 384.659 98.642 384.659C99.2481 384.659 99.7765 384.786 100.227 385.04C100.678 385.294 101.027 385.665 101.273 386.153C101.523 386.642 101.648 387.239 101.648 387.943V393.5H99.5909V388.261C99.5909 387.674 99.4394 387.218 99.1364 386.892C98.8371 386.562 98.4167 386.398 97.875 386.398C97.5114 386.398 97.1856 386.477 96.8977 386.636C96.6136 386.792 96.3902 387.017 96.2273 387.312C96.0682 387.608 95.9886 387.966 95.9886 388.386Z" fill="#212528"/>
</g>
<g filter="url(#filter2_d_140_996)">
<rect x="174.5" y="174" width="150" height="150" rx="16" fill="white" shape-rendering="crispEdges"/>
<rect x="175" y="174.5" width="149" height="149" rx="15.5" stroke="#212528" shape-rendering="crispEdges"/>
<path d="M268.167 226.983V251.833H263.5V233.167H235.5V251.833H230.833V226.983L249.5 219.517L268.167 226.983ZM272.833 256.5V223.833L249.5 214.5L226.167 223.833V256.5H240.167V237.833H258.833V256.5H272.833ZM247.167 251.833H242.5V256.5H247.167V251.833ZM251.833 244.833H247.167V249.5H251.833V244.833ZM256.5 251.833H251.833V256.5H256.5V251.833Z" fill="#0080FF"/>
<path d="M209.097 286.5L205.812 274.864H208.08L210.176 283.415H210.284L212.523 274.864H214.585L216.83 283.42H216.932L219.028 274.864H221.295L218.011 286.5H215.932L213.602 278.335H213.511L211.176 286.5H209.097ZM224.287 286.676C223.734 286.676 223.236 286.578 222.793 286.381C222.353 286.18 222.005 285.884 221.747 285.494C221.493 285.104 221.366 284.623 221.366 284.051C221.366 283.559 221.457 283.152 221.639 282.83C221.821 282.508 222.069 282.25 222.384 282.057C222.698 281.864 223.052 281.718 223.446 281.619C223.844 281.517 224.255 281.443 224.679 281.398C225.19 281.345 225.605 281.297 225.923 281.256C226.241 281.21 226.473 281.142 226.616 281.051C226.764 280.956 226.838 280.811 226.838 280.614V280.58C226.838 280.152 226.711 279.82 226.457 279.585C226.204 279.35 225.838 279.233 225.361 279.233C224.857 279.233 224.457 279.343 224.162 279.562C223.87 279.782 223.673 280.042 223.571 280.341L221.651 280.068C221.802 279.538 222.052 279.095 222.401 278.739C222.749 278.379 223.175 278.11 223.679 277.932C224.183 277.75 224.74 277.659 225.349 277.659C225.77 277.659 226.188 277.708 226.605 277.807C227.022 277.905 227.402 278.068 227.747 278.295C228.092 278.519 228.368 278.824 228.577 279.21C228.789 279.597 228.895 280.08 228.895 280.659V286.5H226.918V285.301H226.849C226.724 285.544 226.548 285.771 226.321 285.983C226.098 286.191 225.815 286.36 225.474 286.489C225.137 286.614 224.741 286.676 224.287 286.676ZM224.821 285.165C225.234 285.165 225.592 285.083 225.895 284.92C226.198 284.754 226.431 284.534 226.594 284.261C226.76 283.989 226.844 283.691 226.844 283.369V282.341C226.779 282.394 226.67 282.443 226.514 282.489C226.363 282.534 226.192 282.574 226.003 282.608C225.813 282.642 225.626 282.672 225.44 282.699C225.255 282.725 225.094 282.748 224.957 282.767C224.651 282.809 224.376 282.877 224.134 282.972C223.891 283.066 223.7 283.199 223.56 283.369C223.42 283.536 223.349 283.752 223.349 284.017C223.349 284.396 223.488 284.682 223.764 284.875C224.041 285.068 224.393 285.165 224.821 285.165ZM230.963 286.5V277.773H232.957V279.227H233.048C233.207 278.723 233.48 278.335 233.866 278.062C234.257 277.786 234.702 277.648 235.202 277.648C235.315 277.648 235.442 277.653 235.582 277.665C235.726 277.672 235.846 277.686 235.94 277.705V279.597C235.853 279.566 235.715 279.54 235.526 279.517C235.34 279.491 235.16 279.477 234.986 279.477C234.611 279.477 234.274 279.559 233.974 279.722C233.679 279.881 233.446 280.102 233.276 280.386C233.105 280.67 233.02 280.998 233.02 281.369V286.5H230.963ZM240.811 286.67C239.936 286.67 239.18 286.489 238.544 286.125C237.911 285.758 237.425 285.239 237.084 284.568C236.743 283.894 236.572 283.1 236.572 282.188C236.572 281.29 236.743 280.502 237.084 279.824C237.429 279.142 237.91 278.612 238.527 278.233C239.144 277.85 239.87 277.659 240.703 277.659C241.241 277.659 241.749 277.746 242.226 277.92C242.707 278.091 243.131 278.356 243.499 278.716C243.87 279.076 244.161 279.534 244.374 280.091C244.586 280.644 244.692 281.303 244.692 282.068V282.699H237.538V281.312H242.72C242.716 280.919 242.631 280.568 242.464 280.261C242.298 279.951 242.065 279.706 241.766 279.528C241.47 279.35 241.125 279.261 240.732 279.261C240.311 279.261 239.942 279.364 239.624 279.568C239.305 279.769 239.057 280.034 238.879 280.364C238.705 280.689 238.616 281.047 238.612 281.438V282.648C238.612 283.155 238.705 283.591 238.891 283.955C239.076 284.314 239.336 284.591 239.669 284.784C240.002 284.973 240.393 285.068 240.839 285.068C241.139 285.068 241.41 285.027 241.652 284.943C241.894 284.856 242.105 284.729 242.283 284.562C242.461 284.396 242.595 284.189 242.686 283.943L244.607 284.159C244.485 284.667 244.254 285.11 243.913 285.489C243.576 285.864 243.144 286.155 242.618 286.364C242.091 286.568 241.489 286.67 240.811 286.67ZM248.489 281.386V286.5H246.432V274.864H248.443V279.256H248.545C248.75 278.763 249.066 278.375 249.494 278.091C249.926 277.803 250.475 277.659 251.142 277.659C251.748 277.659 252.277 277.786 252.727 278.04C253.178 278.294 253.527 278.665 253.773 279.153C254.023 279.642 254.148 280.239 254.148 280.943V286.5H252.091V281.261C252.091 280.674 251.939 280.218 251.636 279.892C251.337 279.562 250.917 279.398 250.375 279.398C250.011 279.398 249.686 279.477 249.398 279.636C249.114 279.792 248.89 280.017 248.727 280.312C248.568 280.608 248.489 280.966 248.489 281.386ZM260.051 286.67C259.199 286.67 258.46 286.483 257.835 286.108C257.21 285.733 256.725 285.208 256.381 284.534C256.04 283.86 255.869 283.072 255.869 282.17C255.869 281.269 256.04 280.479 256.381 279.801C256.725 279.123 257.21 278.597 257.835 278.222C258.46 277.847 259.199 277.659 260.051 277.659C260.903 277.659 261.642 277.847 262.267 278.222C262.892 278.597 263.375 279.123 263.716 279.801C264.061 280.479 264.233 281.269 264.233 282.17C264.233 283.072 264.061 283.86 263.716 284.534C263.375 285.208 262.892 285.733 262.267 286.108C261.642 286.483 260.903 286.67 260.051 286.67ZM260.062 285.023C260.525 285.023 260.911 284.896 261.222 284.642C261.532 284.384 261.763 284.04 261.915 283.608C262.07 283.176 262.148 282.695 262.148 282.165C262.148 281.631 262.07 281.148 261.915 280.716C261.763 280.28 261.532 279.934 261.222 279.676C260.911 279.419 260.525 279.29 260.062 279.29C259.589 279.29 259.195 279.419 258.881 279.676C258.57 279.934 258.337 280.28 258.182 280.716C258.03 281.148 257.955 281.631 257.955 282.165C257.955 282.695 258.03 283.176 258.182 283.608C258.337 284.04 258.57 284.384 258.881 284.642C259.195 284.896 259.589 285.023 260.062 285.023ZM271.541 282.83V277.773H273.598V286.5H271.604V284.949H271.513C271.316 285.437 270.992 285.837 270.541 286.148C270.094 286.458 269.543 286.614 268.888 286.614C268.316 286.614 267.81 286.487 267.371 286.233C266.935 285.975 266.594 285.602 266.348 285.114C266.102 284.621 265.979 284.027 265.979 283.33V277.773H268.036V283.011C268.036 283.564 268.187 284.004 268.49 284.33C268.793 284.655 269.191 284.818 269.683 284.818C269.986 284.818 270.28 284.744 270.564 284.597C270.848 284.449 271.081 284.229 271.263 283.938C271.448 283.642 271.541 283.273 271.541 282.83ZM282.611 280.08L280.736 280.284C280.683 280.095 280.59 279.917 280.457 279.75C280.329 279.583 280.154 279.449 279.935 279.347C279.715 279.244 279.446 279.193 279.128 279.193C278.7 279.193 278.34 279.286 278.048 279.472C277.76 279.657 277.618 279.898 277.622 280.193C277.618 280.447 277.711 280.653 277.901 280.812C278.094 280.972 278.412 281.102 278.855 281.205L280.344 281.523C281.17 281.701 281.783 281.983 282.185 282.369C282.59 282.756 282.795 283.261 282.798 283.886C282.795 284.436 282.634 284.92 282.315 285.341C282.001 285.758 281.563 286.083 281.003 286.318C280.442 286.553 279.798 286.67 279.071 286.67C278.003 286.67 277.143 286.447 276.491 286C275.84 285.549 275.452 284.922 275.327 284.119L277.332 283.926C277.423 284.32 277.616 284.617 277.912 284.818C278.207 285.019 278.592 285.119 279.065 285.119C279.554 285.119 279.946 285.019 280.241 284.818C280.541 284.617 280.69 284.369 280.69 284.074C280.69 283.824 280.594 283.617 280.401 283.455C280.211 283.292 279.916 283.167 279.514 283.08L278.026 282.767C277.188 282.593 276.569 282.299 276.168 281.886C275.766 281.47 275.567 280.943 275.571 280.307C275.567 279.769 275.713 279.303 276.009 278.909C276.308 278.511 276.723 278.205 277.253 277.989C277.787 277.769 278.402 277.659 279.099 277.659C280.122 277.659 280.927 277.877 281.514 278.312C282.105 278.748 282.471 279.337 282.611 280.08ZM288.358 286.67C287.483 286.67 286.727 286.489 286.091 286.125C285.458 285.758 284.972 285.239 284.631 284.568C284.29 283.894 284.119 283.1 284.119 282.188C284.119 281.29 284.29 280.502 284.631 279.824C284.975 279.142 285.456 278.612 286.074 278.233C286.691 277.85 287.417 277.659 288.25 277.659C288.788 277.659 289.295 277.746 289.773 277.92C290.254 278.091 290.678 278.356 291.045 278.716C291.417 279.076 291.708 279.534 291.92 280.091C292.133 280.644 292.239 281.303 292.239 282.068V282.699H285.085V281.312H290.267C290.263 280.919 290.178 280.568 290.011 280.261C289.845 279.951 289.612 279.706 289.312 279.528C289.017 279.35 288.672 279.261 288.278 279.261C287.858 279.261 287.489 279.364 287.17 279.568C286.852 279.769 286.604 280.034 286.426 280.364C286.252 280.689 286.163 281.047 286.159 281.438V282.648C286.159 283.155 286.252 283.591 286.438 283.955C286.623 284.314 286.883 284.591 287.216 284.784C287.549 284.973 287.939 285.068 288.386 285.068C288.686 285.068 288.956 285.027 289.199 284.943C289.441 284.856 289.652 284.729 289.83 284.562C290.008 284.396 290.142 284.189 290.233 283.943L292.153 284.159C292.032 284.667 291.801 285.11 291.46 285.489C291.123 285.864 290.691 286.155 290.165 286.364C289.638 286.568 289.036 286.67 288.358 286.67Z" fill="#212528"/>
</g>
<path d="M154.5 355C153.948 355 153.5 355.448 153.5 356C153.5 356.552 153.948 357 154.5 357V355ZM250.207 327.293C249.817 326.902 249.183 326.902 248.793 327.293L242.429 333.657C242.038 334.047 242.038 334.681 242.429 335.071C242.819 335.462 243.453 335.462 243.843 335.071L249.5 329.414L255.157 335.071C255.547 335.462 256.181 335.462 256.571 335.071C256.962 334.681 256.962 334.047 256.571 333.657L250.207 327.293ZM154.5 357H225.5V355H154.5V357ZM250.5 332V328H248.5V332H250.5ZM225.5 357C239.307 357 250.5 345.807 250.5 332H248.5C248.5 344.703 238.203 355 225.5 355V357Z" fill="#212528"/>
<g filter="url(#filter3_d_140_996)">
<rect x="174.5" y="388" width="150" height="150" rx="16" fill="white" shape-rendering="crispEdges"/>
<rect x="175" y="388.5" width="149" height="149" rx="15.5" stroke="#212528" shape-rendering="crispEdges"/>
<path d="M268.167 440.983V465.833H263.5V447.167H235.5V465.833H230.833V440.983L249.5 433.517L268.167 440.983ZM272.833 470.5V437.833L249.5 428.5L226.167 437.833V470.5H240.167V451.833H258.833V470.5H272.833ZM247.167 465.833H242.5V470.5H247.167V465.833ZM251.833 458.833H247.167V463.5H251.833V458.833ZM256.5 465.833H251.833V470.5H256.5V465.833Z" fill="#0080FF"/>
<path d="M209.097 500.5L205.812 488.864H208.08L210.176 497.415H210.284L212.523 488.864H214.585L216.83 497.42H216.932L219.028 488.864H221.295L218.011 500.5H215.932L213.602 492.335H213.511L211.176 500.5H209.097ZM224.287 500.676C223.734 500.676 223.236 500.578 222.793 500.381C222.353 500.18 222.005 499.884 221.747 499.494C221.493 499.104 221.366 498.623 221.366 498.051C221.366 497.559 221.457 497.152 221.639 496.83C221.821 496.508 222.069 496.25 222.384 496.057C222.698 495.864 223.052 495.718 223.446 495.619C223.844 495.517 224.255 495.443 224.679 495.398C225.19 495.345 225.605 495.297 225.923 495.256C226.241 495.21 226.473 495.142 226.616 495.051C226.764 494.956 226.838 494.811 226.838 494.614V494.58C226.838 494.152 226.711 493.82 226.457 493.585C226.204 493.35 225.838 493.233 225.361 493.233C224.857 493.233 224.457 493.343 224.162 493.562C223.87 493.782 223.673 494.042 223.571 494.341L221.651 494.068C221.802 493.538 222.052 493.095 222.401 492.739C222.749 492.379 223.175 492.11 223.679 491.932C224.183 491.75 224.74 491.659 225.349 491.659C225.77 491.659 226.188 491.708 226.605 491.807C227.022 491.905 227.402 492.068 227.747 492.295C228.092 492.519 228.368 492.824 228.577 493.21C228.789 493.597 228.895 494.08 228.895 494.659V500.5H226.918V499.301H226.849C226.724 499.544 226.548 499.771 226.321 499.983C226.098 500.191 225.815 500.36 225.474 500.489C225.137 500.614 224.741 500.676 224.287 500.676ZM224.821 499.165C225.234 499.165 225.592 499.083 225.895 498.92C226.198 498.754 226.431 498.534 226.594 498.261C226.76 497.989 226.844 497.691 226.844 497.369V496.341C226.779 496.394 226.67 496.443 226.514 496.489C226.363 496.534 226.192 496.574 226.003 496.608C225.813 496.642 225.626 496.672 225.44 496.699C225.255 496.725 225.094 496.748 224.957 496.767C224.651 496.809 224.376 496.877 224.134 496.972C223.891 497.066 223.7 497.199 223.56 497.369C223.42 497.536 223.349 497.752 223.349 498.017C223.349 498.396 223.488 498.682 223.764 498.875C224.041 499.068 224.393 499.165 224.821 499.165ZM230.963 500.5V491.773H232.957V493.227H233.048C233.207 492.723 233.48 492.335 233.866 492.062C234.257 491.786 234.702 491.648 235.202 491.648C235.315 491.648 235.442 491.653 235.582 491.665C235.726 491.672 235.846 491.686 235.94 491.705V493.597C235.853 493.566 235.715 493.54 235.526 493.517C235.34 493.491 235.16 493.477 234.986 493.477C234.611 493.477 234.274 493.559 233.974 493.722C233.679 493.881 233.446 494.102 233.276 494.386C233.105 494.67 233.02 494.998 233.02 495.369V500.5H230.963ZM240.811 500.67C239.936 500.67 239.18 500.489 238.544 500.125C237.911 499.758 237.425 499.239 237.084 498.568C236.743 497.894 236.572 497.1 236.572 496.188C236.572 495.29 236.743 494.502 237.084 493.824C237.429 493.142 237.91 492.612 238.527 492.233C239.144 491.85 239.87 491.659 240.703 491.659C241.241 491.659 241.749 491.746 242.226 491.92C242.707 492.091 243.131 492.356 243.499 492.716C243.87 493.076 244.161 493.534 244.374 494.091C244.586 494.644 244.692 495.303 244.692 496.068V496.699H237.538V495.312H242.72C242.716 494.919 242.631 494.568 242.464 494.261C242.298 493.951 242.065 493.706 241.766 493.528C241.47 493.35 241.125 493.261 240.732 493.261C240.311 493.261 239.942 493.364 239.624 493.568C239.305 493.769 239.057 494.034 238.879 494.364C238.705 494.689 238.616 495.047 238.612 495.438V496.648C238.612 497.155 238.705 497.591 238.891 497.955C239.076 498.314 239.336 498.591 239.669 498.784C240.002 498.973 240.393 499.068 240.839 499.068C241.139 499.068 241.41 499.027 241.652 498.943C241.894 498.856 242.105 498.729 242.283 498.562C242.461 498.396 242.595 498.189 242.686 497.943L244.607 498.159C244.485 498.667 244.254 499.11 243.913 499.489C243.576 499.864 243.144 500.155 242.618 500.364C242.091 500.568 241.489 500.67 240.811 500.67ZM248.489 495.386V500.5H246.432V488.864H248.443V493.256H248.545C248.75 492.763 249.066 492.375 249.494 492.091C249.926 491.803 250.475 491.659 251.142 491.659C251.748 491.659 252.277 491.786 252.727 492.04C253.178 492.294 253.527 492.665 253.773 493.153C254.023 493.642 254.148 494.239 254.148 494.943V500.5H252.091V495.261C252.091 494.674 251.939 494.218 251.636 493.892C251.337 493.562 250.917 493.398 250.375 493.398C250.011 493.398 249.686 493.477 249.398 493.636C249.114 493.792 248.89 494.017 248.727 494.312C248.568 494.608 248.489 494.966 248.489 495.386ZM260.051 500.67C259.199 500.67 258.46 500.483 257.835 500.108C257.21 499.733 256.725 499.208 256.381 498.534C256.04 497.86 255.869 497.072 255.869 496.17C255.869 495.269 256.04 494.479 256.381 493.801C256.725 493.123 257.21 492.597 257.835 492.222C258.46 491.847 259.199 491.659 260.051 491.659C260.903 491.659 261.642 491.847 262.267 492.222C262.892 492.597 263.375 493.123 263.716 493.801C264.061 494.479 264.233 495.269 264.233 496.17C264.233 497.072 264.061 497.86 263.716 498.534C263.375 499.208 262.892 499.733 262.267 500.108C261.642 500.483 260.903 500.67 260.051 500.67ZM260.062 499.023C260.525 499.023 260.911 498.896 261.222 498.642C261.532 498.384 261.763 498.04 261.915 497.608C262.07 497.176 262.148 496.695 262.148 496.165C262.148 495.631 262.07 495.148 261.915 494.716C261.763 494.28 261.532 493.934 261.222 493.676C260.911 493.419 260.525 493.29 260.062 493.29C259.589 493.29 259.195 493.419 258.881 493.676C258.57 493.934 258.337 494.28 258.182 494.716C258.03 495.148 257.955 495.631 257.955 496.165C257.955 496.695 258.03 497.176 258.182 497.608C258.337 498.04 258.57 498.384 258.881 498.642C259.195 498.896 259.589 499.023 260.062 499.023ZM271.541 496.83V491.773H273.598V500.5H271.604V498.949H271.513C271.316 499.437 270.992 499.837 270.541 500.148C270.094 500.458 269.543 500.614 268.888 500.614C268.316 500.614 267.81 500.487 267.371 500.233C266.935 499.975 266.594 499.602 266.348 499.114C266.102 498.621 265.979 498.027 265.979 497.33V491.773H268.036V497.011C268.036 497.564 268.187 498.004 268.49 498.33C268.793 498.655 269.191 498.818 269.683 498.818C269.986 498.818 270.28 498.744 270.564 498.597C270.848 498.449 271.081 498.229 271.263 497.938C271.448 497.642 271.541 497.273 271.541 496.83ZM282.611 494.08L280.736 494.284C280.683 494.095 280.59 493.917 280.457 493.75C280.329 493.583 280.154 493.449 279.935 493.347C279.715 493.244 279.446 493.193 279.128 493.193C278.7 493.193 278.34 493.286 278.048 493.472C277.76 493.657 277.618 493.898 277.622 494.193C277.618 494.447 277.711 494.653 277.901 494.812C278.094 494.972 278.412 495.102 278.855 495.205L280.344 495.523C281.17 495.701 281.783 495.983 282.185 496.369C282.59 496.756 282.795 497.261 282.798 497.886C282.795 498.436 282.634 498.92 282.315 499.341C282.001 499.758 281.563 500.083 281.003 500.318C280.442 500.553 279.798 500.67 279.071 500.67C278.003 500.67 277.143 500.447 276.491 500C275.84 499.549 275.452 498.922 275.327 498.119L277.332 497.926C277.423 498.32 277.616 498.617 277.912 498.818C278.207 499.019 278.592 499.119 279.065 499.119C279.554 499.119 279.946 499.019 280.241 498.818C280.541 498.617 280.69 498.369 280.69 498.074C280.69 497.824 280.594 497.617 280.401 497.455C280.211 497.292 279.916 497.167 279.514 497.08L278.026 496.767C277.188 496.593 276.569 496.299 276.168 495.886C275.766 495.47 275.567 494.943 275.571 494.307C275.567 493.769 275.713 493.303 276.009 492.909C276.308 492.511 276.723 492.205 277.253 491.989C277.787 491.769 278.402 491.659 279.099 491.659C280.122 491.659 280.927 491.877 281.514 492.312C282.105 492.748 282.471 493.337 282.611 494.08ZM288.358 500.67C287.483 500.67 286.727 500.489 286.091 500.125C285.458 499.758 284.972 499.239 284.631 498.568C284.29 497.894 284.119 497.1 284.119 496.188C284.119 495.29 284.29 494.502 284.631 493.824C284.975 493.142 285.456 492.612 286.074 492.233C286.691 491.85 287.417 491.659 288.25 491.659C288.788 491.659 289.295 491.746 289.773 491.92C290.254 492.091 290.678 492.356 291.045 492.716C291.417 493.076 291.708 493.534 291.92 494.091C292.133 494.644 292.239 495.303 292.239 496.068V496.699H285.085V495.312H290.267C290.263 494.919 290.178 494.568 290.011 494.261C289.845 493.951 289.612 493.706 289.312 493.528C289.017 493.35 288.672 493.261 288.278 493.261C287.858 493.261 287.489 493.364 287.17 493.568C286.852 493.769 286.604 494.034 286.426 494.364C286.252 494.689 286.163 495.047 286.159 495.438V496.648C286.159 497.155 286.252 497.591 286.438 497.955C286.623 498.314 286.883 498.591 287.216 498.784C287.549 498.973 287.939 499.068 288.386 499.068C288.686 499.068 288.956 499.027 289.199 498.943C289.441 498.856 289.652 498.729 289.83 498.562C290.008 498.396 290.142 498.189 290.233 497.943L292.153 498.159C292.032 498.667 291.801 499.11 291.46 499.489C291.123 499.864 290.691 500.155 290.165 500.364C289.638 500.568 289.036 500.67 288.358 500.67Z" fill="#212528"/>
</g>
<path d="M154.5 355C153.948 355 153.5 355.448 153.5 356C153.5 356.552 153.948 357 154.5 357V355ZM248.793 384.707C249.183 385.098 249.817 385.098 250.207 384.707L256.571 378.343C256.962 377.953 256.962 377.319 256.571 376.929C256.181 376.538 255.547 376.538 255.157 376.929L249.5 382.586L243.843 376.929C243.453 376.538 242.819 376.538 242.429 376.929C242.038 377.319 242.038 377.953 242.429 378.343L248.793 384.707ZM154.5 357H225.5V355H154.5V357ZM248.5 380V384H250.5V380H248.5ZM225.5 357C238.203 357 248.5 367.297 248.5 380H250.5C250.5 366.193 239.307 355 225.5 355V357Z" fill="#212528"/>
<g filter="url(#filter4_d_140_996)">
<rect x="174.5" width="150" height="150" rx="16" fill="white" shape-rendering="crispEdges"/>
<rect x="175" y="0.5" width="149" height="149" rx="15.5" stroke="#212528" shape-rendering="crispEdges"/>
<path d="M268.167 52.9833V77.8333H263.5V59.1667H235.5V77.8333H230.833V52.9833L249.5 45.5167L268.167 52.9833ZM272.833 82.5V49.8333L249.5 40.5L226.167 49.8333V82.5H240.167V63.8333H258.833V82.5H272.833ZM247.167 77.8333H242.5V82.5H247.167V77.8333ZM251.833 70.8333H247.167V75.5H251.833V70.8333ZM256.5 77.8333H251.833V82.5H256.5V77.8333Z" fill="#F2800D"/>
<path d="M209.097 112.5L205.812 100.864H208.08L210.176 109.415H210.284L212.523 100.864H214.585L216.83 109.42H216.932L219.028 100.864H221.295L218.011 112.5H215.932L213.602 104.335H213.511L211.176 112.5H209.097ZM224.287 112.676C223.734 112.676 223.236 112.578 222.793 112.381C222.353 112.18 222.005 111.884 221.747 111.494C221.493 111.104 221.366 110.623 221.366 110.051C221.366 109.559 221.457 109.152 221.639 108.83C221.821 108.508 222.069 108.25 222.384 108.057C222.698 107.864 223.052 107.718 223.446 107.619C223.844 107.517 224.255 107.443 224.679 107.398C225.19 107.345 225.605 107.297 225.923 107.256C226.241 107.21 226.473 107.142 226.616 107.051C226.764 106.956 226.838 106.811 226.838 106.614V106.58C226.838 106.152 226.711 105.82 226.457 105.585C226.204 105.35 225.838 105.233 225.361 105.233C224.857 105.233 224.457 105.343 224.162 105.562C223.87 105.782 223.673 106.042 223.571 106.341L221.651 106.068C221.802 105.538 222.052 105.095 222.401 104.739C222.749 104.379 223.175 104.11 223.679 103.932C224.183 103.75 224.74 103.659 225.349 103.659C225.77 103.659 226.188 103.708 226.605 103.807C227.022 103.905 227.402 104.068 227.747 104.295C228.092 104.519 228.368 104.824 228.577 105.21C228.789 105.597 228.895 106.08 228.895 106.659V112.5H226.918V111.301H226.849C226.724 111.544 226.548 111.771 226.321 111.983C226.098 112.191 225.815 112.36 225.474 112.489C225.137 112.614 224.741 112.676 224.287 112.676ZM224.821 111.165C225.234 111.165 225.592 111.083 225.895 110.92C226.198 110.754 226.431 110.534 226.594 110.261C226.76 109.989 226.844 109.691 226.844 109.369V108.341C226.779 108.394 226.67 108.443 226.514 108.489C226.363 108.534 226.192 108.574 226.003 108.608C225.813 108.642 225.626 108.672 225.44 108.699C225.255 108.725 225.094 108.748 224.957 108.767C224.651 108.809 224.376 108.877 224.134 108.972C223.891 109.066 223.7 109.199 223.56 109.369C223.42 109.536 223.349 109.752 223.349 110.017C223.349 110.396 223.488 110.682 223.764 110.875C224.041 111.068 224.393 111.165 224.821 111.165ZM230.963 112.5V103.773H232.957V105.227H233.048C233.207 104.723 233.48 104.335 233.866 104.062C234.257 103.786 234.702 103.648 235.202 103.648C235.315 103.648 235.442 103.653 235.582 103.665C235.726 103.672 235.846 103.686 235.94 103.705V105.597C235.853 105.566 235.715 105.54 235.526 105.517C235.34 105.491 235.16 105.477 234.986 105.477C234.611 105.477 234.274 105.559 233.974 105.722C233.679 105.881 233.446 106.102 233.276 106.386C233.105 106.67 233.02 106.998 233.02 107.369V112.5H230.963ZM240.811 112.67C239.936 112.67 239.18 112.489 238.544 112.125C237.911 111.758 237.425 111.239 237.084 110.568C236.743 109.894 236.572 109.1 236.572 108.188C236.572 107.29 236.743 106.502 237.084 105.824C237.429 105.142 237.91 104.612 238.527 104.233C239.144 103.85 239.87 103.659 240.703 103.659C241.241 103.659 241.749 103.746 242.226 103.92C242.707 104.091 243.131 104.356 243.499 104.716C243.87 105.076 244.161 105.534 244.374 106.091C244.586 106.644 244.692 107.303 244.692 108.068V108.699H237.538V107.312H242.72C242.716 106.919 242.631 106.568 242.464 106.261C242.298 105.951 242.065 105.706 241.766 105.528C241.47 105.35 241.125 105.261 240.732 105.261C240.311 105.261 239.942 105.364 239.624 105.568C239.305 105.769 239.057 106.034 238.879 106.364C238.705 106.689 238.616 107.047 238.612 107.438V108.648C238.612 109.155 238.705 109.591 238.891 109.955C239.076 110.314 239.336 110.591 239.669 110.784C240.002 110.973 240.393 111.068 240.839 111.068C241.139 111.068 241.41 111.027 241.652 110.943C241.894 110.856 242.105 110.729 242.283 110.562C242.461 110.396 242.595 110.189 242.686 109.943L244.607 110.159C244.485 110.667 244.254 111.11 243.913 111.489C243.576 111.864 243.144 112.155 242.618 112.364C242.091 112.568 241.489 112.67 240.811 112.67ZM248.489 107.386V112.5H246.432V100.864H248.443V105.256H248.545C248.75 104.763 249.066 104.375 249.494 104.091C249.926 103.803 250.475 103.659 251.142 103.659C251.748 103.659 252.277 103.786 252.727 104.04C253.178 104.294 253.527 104.665 253.773 105.153C254.023 105.642 254.148 106.239 254.148 106.943V112.5H252.091V107.261C252.091 106.674 251.939 106.218 251.636 105.892C251.337 105.562 250.917 105.398 250.375 105.398C250.011 105.398 249.686 105.477 249.398 105.636C249.114 105.792 248.89 106.017 248.727 106.312C248.568 106.608 248.489 106.966 248.489 107.386ZM260.051 112.67C259.199 112.67 258.46 112.483 257.835 112.108C257.21 111.733 256.725 111.208 256.381 110.534C256.04 109.86 255.869 109.072 255.869 108.17C255.869 107.269 256.04 106.479 256.381 105.801C256.725 105.123 257.21 104.597 257.835 104.222C258.46 103.847 259.199 103.659 260.051 103.659C260.903 103.659 261.642 103.847 262.267 104.222C262.892 104.597 263.375 105.123 263.716 105.801C264.061 106.479 264.233 107.269 264.233 108.17C264.233 109.072 264.061 109.86 263.716 110.534C263.375 111.208 262.892 111.733 262.267 112.108C261.642 112.483 260.903 112.67 260.051 112.67ZM260.062 111.023C260.525 111.023 260.911 110.896 261.222 110.642C261.532 110.384 261.763 110.04 261.915 109.608C262.07 109.176 262.148 108.695 262.148 108.165C262.148 107.631 262.07 107.148 261.915 106.716C261.763 106.28 261.532 105.934 261.222 105.676C260.911 105.419 260.525 105.29 260.062 105.29C259.589 105.29 259.195 105.419 258.881 105.676C258.57 105.934 258.337 106.28 258.182 106.716C258.03 107.148 257.955 107.631 257.955 108.165C257.955 108.695 258.03 109.176 258.182 109.608C258.337 110.04 258.57 110.384 258.881 110.642C259.195 110.896 259.589 111.023 260.062 111.023ZM271.541 108.83V103.773H273.598V112.5H271.604V110.949H271.513C271.316 111.437 270.992 111.837 270.541 112.148C270.094 112.458 269.543 112.614 268.888 112.614C268.316 112.614 267.81 112.487 267.371 112.233C266.935 111.975 266.594 111.602 266.348 111.114C266.102 110.621 265.979 110.027 265.979 109.33V103.773H268.036V109.011C268.036 109.564 268.187 110.004 268.49 110.33C268.793 110.655 269.191 110.818 269.683 110.818C269.986 110.818 270.28 110.744 270.564 110.597C270.848 110.449 271.081 110.229 271.263 109.938C271.448 109.642 271.541 109.273 271.541 108.83ZM282.611 106.08L280.736 106.284C280.683 106.095 280.59 105.917 280.457 105.75C280.329 105.583 280.154 105.449 279.935 105.347C279.715 105.244 279.446 105.193 279.128 105.193C278.7 105.193 278.34 105.286 278.048 105.472C277.76 105.657 277.618 105.898 277.622 106.193C277.618 106.447 277.711 106.653 277.901 106.812C278.094 106.972 278.412 107.102 278.855 107.205L280.344 107.523C281.17 107.701 281.783 107.983 282.185 108.369C282.59 108.756 282.795 109.261 282.798 109.886C282.795 110.436 282.634 110.92 282.315 111.341C282.001 111.758 281.563 112.083 281.003 112.318C280.442 112.553 279.798 112.67 279.071 112.67C278.003 112.67 277.143 112.447 276.491 112C275.84 111.549 275.452 110.922 275.327 110.119L277.332 109.926C277.423 110.32 277.616 110.617 277.912 110.818C278.207 111.019 278.592 111.119 279.065 111.119C279.554 111.119 279.946 111.019 280.241 110.818C280.541 110.617 280.69 110.369 280.69 110.074C280.69 109.824 280.594 109.617 280.401 109.455C280.211 109.292 279.916 109.167 279.514 109.08L278.026 108.767C277.188 108.593 276.569 108.299 276.168 107.886C275.766 107.47 275.567 106.943 275.571 106.307C275.567 105.769 275.713 105.303 276.009 104.909C276.308 104.511 276.723 104.205 277.253 103.989C277.787 103.769 278.402 103.659 279.099 103.659C280.122 103.659 280.927 103.877 281.514 104.312C282.105 104.748 282.471 105.337 282.611 106.08ZM288.358 112.67C287.483 112.67 286.727 112.489 286.091 112.125C285.458 111.758 284.972 111.239 284.631 110.568C284.29 109.894 284.119 109.1 284.119 108.188C284.119 107.29 284.29 106.502 284.631 105.824C284.975 105.142 285.456 104.612 286.074 104.233C286.691 103.85 287.417 103.659 288.25 103.659C288.788 103.659 289.295 103.746 289.773 103.92C290.254 104.091 290.678 104.356 291.045 104.716C291.417 105.076 291.708 105.534 291.92 106.091C292.133 106.644 292.239 107.303 292.239 108.068V108.699H285.085V107.312H290.267C290.263 106.919 290.178 106.568 290.011 106.261C289.845 105.951 289.612 105.706 289.312 105.528C289.017 105.35 288.672 105.261 288.278 105.261C287.858 105.261 287.489 105.364 287.17 105.568C286.852 105.769 286.604 106.034 286.426 106.364C286.252 106.689 286.163 107.047 286.159 107.438V108.648C286.159 109.155 286.252 109.591 286.438 109.955C286.623 110.314 286.883 110.591 287.216 110.784C287.549 110.973 287.939 111.068 288.386 111.068C288.686 111.068 288.956 111.027 289.199 110.943C289.441 110.856 289.652 110.729 289.83 110.562C290.008 110.396 290.142 110.189 290.233 109.943L292.153 110.159C292.032 110.667 291.801 111.11 291.46 111.489C291.123 111.864 290.691 112.155 290.165 112.364C289.638 112.568 289.036 112.67 288.358 112.67Z" fill="#212528"/>
</g>
<path d="M74.5 103C74.5 103.552 74.9477 104 75.5 104C76.0523 104 76.5 103.552 76.5 103H74.5ZM171.207 75.7071C171.598 75.3166 171.598 74.6834 171.207 74.2929L164.843 67.9289C164.453 67.5384 163.819 67.5384 163.429 67.9289C163.038 68.3195 163.038 68.9526 163.429 69.3431L169.086 75L163.429 80.6569C163.038 81.0474 163.038 81.6805 163.429 82.0711C163.819 82.4616 164.453 82.4616 164.843 82.0711L171.207 75.7071ZM76.5 103V99H74.5V103H76.5ZM99.5 76H170.5V74H99.5V76ZM76.5 99C76.5 86.2975 86.7975 76 99.5 76V74C85.6929 74 74.5 85.1929 74.5 99H76.5Z" fill="#212528"/>
<defs>
<filter id="filter0_d_140_996" x="0.5" y="107" width="154" height="154" filterUnits="userSpaceOnUse" color-interpolation-filters="sRGB">
<feFlood flood-opacity="0" result="BackgroundImageFix"/>
<feColorMatrix in="SourceAlpha" type="matrix" values="0 0 0 0 0 0 0 0 0 0 0 0 0 0 0 0 0 0 127 0" result="hardAlpha"/>
<feOffset dx="4" dy="4"/>
<feComposite in2="hardAlpha" operator="out"/>
<feColorMatrix type="matrix" values="0 0 0 0 0.979608 0 0 0 0 0.800784 0 0 0 0 0.620392 0 0 0 1 0"/>
<feBlend mode="normal" in2="BackgroundImageFix" result="effect1_dropShadow_140_996"/>
<feBlend mode="normal" in="SourceGraphic" in2="effect1_dropShadow_140_996" result="shape"/>
</filter>
<filter id="filter1_d_140_996" x="0.5" y="281" width="154" height="154" filterUnits="userSpaceOnUse" color-interpolation-filters="sRGB">
<feFlood flood-opacity="0" result="BackgroundImageFix"/>
<feColorMatrix in="SourceAlpha" type="matrix" values="0 0 0 0 0 0 0 0 0 0 0 0 0 0 0 0 0 0 127 0" result="hardAlpha"/>
<feOffset dx="4" dy="4"/>
<feComposite in2="hardAlpha" operator="out"/>
<feColorMatrix type="matrix" values="0 0 0 0 0.667568 0 0 0 0 0.805297 0 0 0 0 0.932432 0 0 0 1 0"/>
<feBlend mode="normal" in2="BackgroundImageFix" result="effect1_dropShadow_140_996"/>
<feBlend mode="normal" in="SourceGraphic" in2="effect1_dropShadow_140_996" result="shape"/>
</filter>
<filter id="filter2_d_140_996" x="174.5" y="174" width="154" height="154" filterUnits="userSpaceOnUse" color-interpolation-filters="sRGB">
<feFlood flood-opacity="0" result="BackgroundImageFix"/>
<feColorMatrix in="SourceAlpha" type="matrix" values="0 0 0 0 0 0 0 0 0 0 0 0 0 0 0 0 0 0 127 0" result="hardAlpha"/>
<feOffset dx="4" dy="4"/>
<feComposite in2="hardAlpha" operator="out"/>
<feColorMatrix type="matrix" values="0 0 0 0 0.666667 0 0 0 0 0.803922 0 0 0 0 0.933333 0 0 0 1 0"/>
<feBlend mode="normal" in2="BackgroundImageFix" result="effect1_dropShadow_140_996"/>
<feBlend mode="normal" in="SourceGraphic" in2="effect1_dropShadow_140_996" result="shape"/>
</filter>
<filter id="filter3_d_140_996" x="174.5" y="388" width="154" height="154" filterUnits="userSpaceOnUse" color-interpolation-filters="sRGB">
<feFlood flood-opacity="0" result="BackgroundImageFix"/>
<feColorMatrix in="SourceAlpha" type="matrix" values="0 0 0 0 0 0 0 0 0 0 0 0 0 0 0 0 0 0 127 0" result="hardAlpha"/>
<feOffset dx="4" dy="4"/>
<feComposite in2="hardAlpha" operator="out"/>
<feColorMatrix type="matrix" values="0 0 0 0 0.666667 0 0 0 0 0.803922 0 0 0 0 0.933333 0 0 0 1 0"/>
<feBlend mode="normal" in2="BackgroundImageFix" result="effect1_dropShadow_140_996"/>
<feBlend mode="normal" in="SourceGraphic" in2="effect1_dropShadow_140_996" result="shape"/>
</filter>
<filter id="filter4_d_140_996" x="174.5" y="0" width="154" height="154" filterUnits="userSpaceOnUse" color-interpolation-filters="sRGB">
<feFlood flood-opacity="0" result="BackgroundImageFix"/>
<feColorMatrix in="SourceAlpha" type="matrix" values="0 0 0 0 0 0 0 0 0 0 0 0 0 0 0 0 0 0 127 0" result="hardAlpha"/>
<feOffset dx="4" dy="4"/>
<feComposite in2="hardAlpha" operator="out"/>
<feColorMatrix type="matrix" values="0 0 0 0 0.979608 0 0 0 0 0.800784 0 0 0 0 0.620392 0 0 0 1 0"/>
<feBlend mode="normal" in2="BackgroundImageFix" result="effect1_dropShadow_140_996"/>
<feBlend mode="normal" in="SourceGraphic" in2="effect1_dropShadow_140_996" result="shape"/>
</filter>
</defs>
</svg>
