<svg width="329" height="368" viewBox="0 0 329 368" fill="none" xmlns="http://www.w3.org/2000/svg">
<g filter="url(#filter0_d_140_631)">
<rect x="0.5" width="150" height="150" rx="16" fill="white" shape-rendering="crispEdges"/>
<rect x="1" y="0.5" width="149" height="149" rx="15.5" stroke="#212528" shape-rendering="crispEdges"/>
<path d="M75.5 61.5C80.6567 61.5 84.8333 57.3233 84.8333 52.1666C84.8333 47.01 80.6567 42.8333 75.5 42.8333C70.3433 42.8333 66.1667 47.01 66.1667 52.1666C66.1667 57.3233 70.3433 61.5 75.5 61.5ZM75.5 66.1666C69.27 66.1666 56.8333 69.2933 56.8333 75.5V80.1666H94.1667V75.5C94.1667 69.2933 81.73 66.1666 75.5 66.1666Z" fill="#0074FF"/>
<path d="M61.0455 106.682C61.0455 107.936 60.8106 109.009 60.3409 109.903C59.875 110.794 59.2386 111.475 58.4318 111.949C57.6288 112.422 56.7178 112.659 55.6989 112.659C54.6799 112.659 53.767 112.422 52.9602 111.949C52.1572 111.472 51.5208 110.788 51.0511 109.898C50.5852 109.004 50.3523 107.932 50.3523 106.682C50.3523 105.428 50.5852 104.356 51.0511 103.466C51.5208 102.572 52.1572 101.888 52.9602 101.415C53.767 100.941 54.6799 100.705 55.6989 100.705C56.7178 100.705 57.6288 100.941 58.4318 101.415C59.2386 101.888 59.875 102.572 60.3409 103.466C60.8106 104.356 61.0455 105.428 61.0455 106.682ZM58.9261 106.682C58.9261 105.799 58.7879 105.055 58.5114 104.449C58.2386 103.839 57.8598 103.379 57.375 103.068C56.8902 102.754 56.3314 102.597 55.6989 102.597C55.0663 102.597 54.5076 102.754 54.0227 103.068C53.5379 103.379 53.1572 103.839 52.8807 104.449C52.608 105.055 52.4716 105.799 52.4716 106.682C52.4716 107.564 52.608 108.311 52.8807 108.92C53.1572 109.527 53.5379 109.987 54.0227 110.301C54.5076 110.612 55.0663 110.767 55.6989 110.767C56.3314 110.767 56.8902 110.612 57.375 110.301C57.8598 109.987 58.2386 109.527 58.5114 108.92C58.7879 108.311 58.9261 107.564 58.9261 106.682ZM64.7486 112.5L62.2827 103.773H64.3793L65.9134 109.909H65.9929L67.5611 103.773H69.6349L71.2031 109.875H71.2884L72.7997 103.773H74.902L72.4304 112.5H70.2884L68.652 106.602H68.5327L66.8963 112.5H64.7486ZM78.3949 107.386V112.5H76.3381V103.773H78.304V105.256H78.4062C78.607 104.767 78.9271 104.379 79.3665 104.091C79.8097 103.803 80.357 103.659 81.0085 103.659C81.6108 103.659 82.1354 103.788 82.5824 104.045C83.0331 104.303 83.3816 104.676 83.6278 105.165C83.8778 105.653 84.0009 106.246 83.9972 106.943V112.5H81.9403V107.261C81.9403 106.678 81.7888 106.222 81.4858 105.892C81.1866 105.562 80.7718 105.398 80.2415 105.398C79.8816 105.398 79.5616 105.477 79.2812 105.636C79.0047 105.792 78.7869 106.017 78.6278 106.312C78.4725 106.608 78.3949 106.966 78.3949 107.386ZM89.9517 112.67C89.0767 112.67 88.321 112.489 87.6847 112.125C87.0521 111.758 86.5653 111.239 86.2244 110.568C85.8835 109.894 85.7131 109.1 85.7131 108.188C85.7131 107.29 85.8835 106.502 86.2244 105.824C86.5691 105.142 87.0502 104.612 87.6676 104.233C88.285 103.85 89.0104 103.659 89.8438 103.659C90.3816 103.659 90.8892 103.746 91.3665 103.92C91.8475 104.091 92.2718 104.356 92.6392 104.716C93.0104 105.076 93.3021 105.534 93.5142 106.091C93.7263 106.644 93.8324 107.303 93.8324 108.068V108.699H86.679V107.312H91.8608C91.857 106.919 91.7718 106.568 91.6051 106.261C91.4384 105.951 91.2055 105.706 90.9062 105.528C90.6108 105.35 90.2661 105.261 89.8722 105.261C89.4517 105.261 89.0824 105.364 88.7642 105.568C88.446 105.769 88.1979 106.034 88.0199 106.364C87.8456 106.689 87.7566 107.047 87.7528 107.438V108.648C87.7528 109.155 87.8456 109.591 88.0312 109.955C88.2169 110.314 88.4763 110.591 88.8097 110.784C89.143 110.973 89.5331 111.068 89.9801 111.068C90.2794 111.068 90.5502 111.027 90.7926 110.943C91.035 110.856 91.2453 110.729 91.4233 110.562C91.6013 110.396 91.7358 110.189 91.8267 109.943L93.7472 110.159C93.6259 110.667 93.3949 111.11 93.054 111.489C92.7169 111.864 92.285 112.155 91.7585 112.364C91.232 112.568 90.6297 112.67 89.9517 112.67ZM95.5724 112.5V103.773H97.5668V105.227H97.6577C97.8168 104.723 98.0895 104.335 98.4759 104.062C98.866 103.786 99.3111 103.648 99.8111 103.648C99.9247 103.648 100.052 103.653 100.192 103.665C100.336 103.672 100.455 103.686 100.55 103.705V105.597C100.463 105.566 100.324 105.54 100.135 105.517C99.9493 105.491 99.7694 105.477 99.5952 105.477C99.2202 105.477 98.883 105.559 98.5838 105.722C98.2884 105.881 98.0554 106.102 97.8849 106.386C97.7145 106.67 97.6293 106.998 97.6293 107.369V112.5H95.5724Z" fill="#212528"/>
</g>
<g filter="url(#filter1_d_140_631)">
<rect x="174.5" y="40" width="150" height="150" rx="16" fill="white" shape-rendering="crispEdges"/>
<rect x="175" y="40.5" width="149" height="149" rx="15.5" stroke="#212528" shape-rendering="crispEdges"/>
<path d="M265.833 85.1667V117.833H233.167V85.1667H265.833ZM265.833 80.5H233.167C230.577 80.5 228.5 82.6 228.5 85.1667V117.833C228.5 120.4 230.577 122.5 233.167 122.5H265.833C268.4 122.5 270.5 120.4 270.5 117.833V85.1667C270.5 82.6 268.4 80.5 265.833 80.5ZM249.5 101.5C245.65 101.5 242.5 98.35 242.5 94.5C242.5 90.65 245.65 87.5 249.5 87.5C253.35 87.5 256.5 90.65 256.5 94.5C256.5 98.35 253.35 101.5 249.5 101.5ZM249.5 92.1667C248.217 92.1667 247.167 93.2167 247.167 94.5C247.167 95.7833 248.217 96.8333 249.5 96.8333C250.783 96.8333 251.833 95.7833 251.833 94.5C251.833 93.2167 250.783 92.1667 249.5 92.1667ZM263.5 115.5H235.5V111.93C235.5 106.097 244.763 103.577 249.5 103.577C254.237 103.577 263.5 106.097 263.5 111.93V115.5ZM240.89 110.833H258.11C256.5 109.527 252.557 108.22 249.5 108.22C246.443 108.22 242.477 109.527 240.89 110.833Z" fill="#D4732B"/>
<path d="M227.142 152.5H224.892L228.989 140.864H231.591L235.693 152.5H233.443L230.335 143.25H230.244L227.142 152.5ZM227.216 147.938H233.352V149.631H227.216V147.938ZM240.108 152.653C239.422 152.653 238.809 152.477 238.267 152.125C237.725 151.773 237.297 151.261 236.983 150.591C236.669 149.92 236.511 149.106 236.511 148.148C236.511 147.178 236.67 146.36 236.989 145.693C237.311 145.023 237.744 144.517 238.29 144.176C238.835 143.831 239.443 143.659 240.114 143.659C240.625 143.659 241.045 143.746 241.375 143.92C241.705 144.091 241.966 144.297 242.159 144.54C242.352 144.778 242.502 145.004 242.608 145.216H242.693V140.864H244.756V152.5H242.733V151.125H242.608C242.502 151.337 242.348 151.562 242.148 151.801C241.947 152.036 241.682 152.237 241.352 152.403C241.023 152.57 240.608 152.653 240.108 152.653ZM240.682 150.966C241.117 150.966 241.489 150.848 241.795 150.614C242.102 150.375 242.335 150.044 242.494 149.619C242.653 149.195 242.733 148.701 242.733 148.136C242.733 147.572 242.653 147.081 242.494 146.665C242.339 146.248 242.108 145.924 241.801 145.693C241.498 145.462 241.125 145.347 240.682 145.347C240.223 145.347 239.841 145.466 239.534 145.705C239.227 145.943 238.996 146.273 238.841 146.693C238.686 147.114 238.608 147.595 238.608 148.136C238.608 148.682 238.686 149.169 238.841 149.597C239 150.021 239.233 150.356 239.54 150.602C239.85 150.845 240.231 150.966 240.682 150.966ZM246.947 152.5V143.773H248.913V145.256H249.016C249.197 144.756 249.499 144.366 249.919 144.085C250.339 143.801 250.841 143.659 251.425 143.659C252.016 143.659 252.514 143.803 252.919 144.091C253.328 144.375 253.616 144.763 253.783 145.256H253.874C254.067 144.771 254.393 144.384 254.851 144.097C255.313 143.805 255.86 143.659 256.493 143.659C257.296 143.659 257.951 143.913 258.459 144.42C258.966 144.928 259.22 145.669 259.22 146.642V152.5H257.158V146.96C257.158 146.419 257.014 146.023 256.726 145.773C256.438 145.519 256.086 145.392 255.669 145.392C255.173 145.392 254.785 145.547 254.504 145.858C254.228 146.165 254.089 146.564 254.089 147.057V152.5H252.072V146.875C252.072 146.424 251.936 146.064 251.663 145.795C251.394 145.527 251.042 145.392 250.607 145.392C250.311 145.392 250.042 145.468 249.8 145.619C249.557 145.767 249.364 145.977 249.22 146.25C249.076 146.519 249.004 146.833 249.004 147.193V152.5H246.947ZM261.307 152.5V143.773H263.364V152.5H261.307ZM262.341 142.534C262.015 142.534 261.735 142.426 261.5 142.21C261.265 141.991 261.148 141.727 261.148 141.42C261.148 141.11 261.265 140.847 261.5 140.631C261.735 140.411 262.015 140.301 262.341 140.301C262.67 140.301 262.951 140.411 263.182 140.631C263.417 140.847 263.534 141.11 263.534 141.42C263.534 141.727 263.417 141.991 263.182 142.21C262.951 142.426 262.67 142.534 262.341 142.534ZM267.536 147.386V152.5H265.479V143.773H267.445V145.256H267.547C267.748 144.767 268.068 144.379 268.507 144.091C268.95 143.803 269.498 143.659 270.149 143.659C270.751 143.659 271.276 143.788 271.723 144.045C272.174 144.303 272.522 144.676 272.768 145.165C273.018 145.653 273.142 146.246 273.138 146.943V152.5H271.081V147.261C271.081 146.678 270.929 146.222 270.626 145.892C270.327 145.562 269.912 145.398 269.382 145.398C269.022 145.398 268.702 145.477 268.422 145.636C268.145 145.792 267.928 146.017 267.768 146.312C267.613 146.608 267.536 146.966 267.536 147.386Z" fill="#212528"/>
</g>
<g filter="url(#filter2_d_140_631)">
<rect x="174.5" y="214" width="150" height="150" rx="16" fill="white" shape-rendering="crispEdges"/>
<rect x="175" y="214.5" width="149" height="149" rx="15.5" stroke="#212528" shape-rendering="crispEdges"/>
<path d="M251.833 266.167C251.833 261.01 247.657 256.833 242.5 256.833C237.343 256.833 233.167 261.01 233.167 266.167C233.167 271.323 237.343 275.5 242.5 275.5C247.657 275.5 251.833 271.323 251.833 266.167ZM256.5 270.833V275.5H263.5V282.5H268.167V275.5H275.167V270.833H268.167V263.833H263.5V270.833H256.5ZM223.833 289.5V294.167H261.167V289.5C261.167 283.293 248.73 280.167 242.5 280.167C236.27 280.167 223.833 283.293 223.833 289.5Z" fill="#D52BC3"/>
<path d="M216.142 326.5H213.892L217.989 314.864H220.591L224.693 326.5H222.443L219.335 317.25H219.244L216.142 326.5ZM216.216 321.938H222.352V323.631H216.216V321.938ZM229.108 326.653C228.422 326.653 227.809 326.477 227.267 326.125C226.725 325.773 226.297 325.261 225.983 324.591C225.669 323.92 225.511 323.106 225.511 322.148C225.511 321.178 225.67 320.36 225.989 319.693C226.311 319.023 226.744 318.517 227.29 318.176C227.835 317.831 228.443 317.659 229.114 317.659C229.625 317.659 230.045 317.746 230.375 317.92C230.705 318.091 230.966 318.297 231.159 318.54C231.352 318.778 231.502 319.004 231.608 319.216H231.693V314.864H233.756V326.5H231.733V325.125H231.608C231.502 325.337 231.348 325.562 231.148 325.801C230.947 326.036 230.682 326.237 230.352 326.403C230.023 326.57 229.608 326.653 229.108 326.653ZM229.682 324.966C230.117 324.966 230.489 324.848 230.795 324.614C231.102 324.375 231.335 324.044 231.494 323.619C231.653 323.195 231.733 322.701 231.733 322.136C231.733 321.572 231.653 321.081 231.494 320.665C231.339 320.248 231.108 319.924 230.801 319.693C230.498 319.462 230.125 319.347 229.682 319.347C229.223 319.347 228.841 319.466 228.534 319.705C228.227 319.943 227.996 320.273 227.841 320.693C227.686 321.114 227.608 321.595 227.608 322.136C227.608 322.682 227.686 323.169 227.841 323.597C228 324.021 228.233 324.356 228.54 324.602C228.85 324.845 229.231 324.966 229.682 324.966ZM239.186 326.653C238.5 326.653 237.887 326.477 237.345 326.125C236.804 325.773 236.375 325.261 236.061 324.591C235.747 323.92 235.589 323.106 235.589 322.148C235.589 321.178 235.749 320.36 236.067 319.693C236.389 319.023 236.822 318.517 237.368 318.176C237.913 317.831 238.521 317.659 239.192 317.659C239.703 317.659 240.124 317.746 240.453 317.92C240.783 318.091 241.044 318.297 241.237 318.54C241.43 318.778 241.58 319.004 241.686 319.216H241.771V314.864H243.834V326.5H241.811V325.125H241.686C241.58 325.337 241.427 325.562 241.226 325.801C241.025 326.036 240.76 326.237 240.43 326.403C240.101 326.57 239.686 326.653 239.186 326.653ZM239.76 324.966C240.196 324.966 240.567 324.848 240.874 324.614C241.18 324.375 241.413 324.044 241.572 323.619C241.732 323.195 241.811 322.701 241.811 322.136C241.811 321.572 241.732 321.081 241.572 320.665C241.417 320.248 241.186 319.924 240.879 319.693C240.576 319.462 240.203 319.347 239.76 319.347C239.302 319.347 238.919 319.466 238.612 319.705C238.305 319.943 238.074 320.273 237.919 320.693C237.764 321.114 237.686 321.595 237.686 322.136C237.686 322.682 237.764 323.169 237.919 323.597C238.078 324.021 238.311 324.356 238.618 324.602C238.929 324.845 239.309 324.966 239.76 324.966ZM257.42 314.864H259.528V322.466C259.528 323.299 259.331 324.032 258.938 324.665C258.547 325.297 257.998 325.792 257.29 326.148C256.581 326.5 255.754 326.676 254.807 326.676C253.856 326.676 253.027 326.5 252.318 326.148C251.61 325.792 251.061 325.297 250.67 324.665C250.28 324.032 250.085 323.299 250.085 322.466V314.864H252.193V322.29C252.193 322.775 252.299 323.206 252.511 323.585C252.727 323.964 253.03 324.261 253.42 324.477C253.811 324.689 254.273 324.795 254.807 324.795C255.341 324.795 255.803 324.689 256.193 324.477C256.587 324.261 256.89 323.964 257.102 323.585C257.314 323.206 257.42 322.775 257.42 322.29V314.864ZM268.626 320.08L266.751 320.284C266.698 320.095 266.606 319.917 266.473 319.75C266.344 319.583 266.17 319.449 265.95 319.347C265.731 319.244 265.462 319.193 265.143 319.193C264.715 319.193 264.356 319.286 264.064 319.472C263.776 319.657 263.634 319.898 263.638 320.193C263.634 320.447 263.727 320.653 263.916 320.812C264.109 320.972 264.428 321.102 264.871 321.205L266.359 321.523C267.185 321.701 267.799 321.983 268.2 322.369C268.606 322.756 268.81 323.261 268.814 323.886C268.81 324.436 268.649 324.92 268.331 325.341C268.017 325.758 267.579 326.083 267.018 326.318C266.458 326.553 265.814 326.67 265.087 326.67C264.018 326.67 263.159 326.447 262.507 326C261.856 325.549 261.467 324.922 261.342 324.119L263.348 323.926C263.439 324.32 263.632 324.617 263.928 324.818C264.223 325.019 264.607 325.119 265.081 325.119C265.57 325.119 265.962 325.019 266.257 324.818C266.556 324.617 266.706 324.369 266.706 324.074C266.706 323.824 266.609 323.617 266.416 323.455C266.227 323.292 265.931 323.167 265.53 323.08L264.041 322.767C263.204 322.593 262.585 322.299 262.183 321.886C261.782 321.47 261.583 320.943 261.587 320.307C261.583 319.769 261.729 319.303 262.024 318.909C262.323 318.511 262.738 318.205 263.268 317.989C263.803 317.769 264.418 317.659 265.115 317.659C266.138 317.659 266.943 317.877 267.53 318.312C268.121 318.748 268.486 319.337 268.626 320.08ZM274.374 326.67C273.499 326.67 272.743 326.489 272.107 326.125C271.474 325.758 270.987 325.239 270.646 324.568C270.305 323.894 270.135 323.1 270.135 322.188C270.135 321.29 270.305 320.502 270.646 319.824C270.991 319.142 271.472 318.612 272.089 318.233C272.707 317.85 273.432 317.659 274.266 317.659C274.804 317.659 275.311 317.746 275.788 317.92C276.269 318.091 276.694 318.356 277.061 318.716C277.432 319.076 277.724 319.534 277.936 320.091C278.148 320.644 278.254 321.303 278.254 322.068V322.699H271.101V321.312H276.283C276.279 320.919 276.194 320.568 276.027 320.261C275.86 319.951 275.627 319.706 275.328 319.528C275.033 319.35 274.688 319.261 274.294 319.261C273.874 319.261 273.504 319.364 273.186 319.568C272.868 319.769 272.62 320.034 272.442 320.364C272.268 320.689 272.179 321.047 272.175 321.438V322.648C272.175 323.155 272.268 323.591 272.453 323.955C272.639 324.314 272.898 324.591 273.232 324.784C273.565 324.973 273.955 325.068 274.402 325.068C274.701 325.068 274.972 325.027 275.214 324.943C275.457 324.856 275.667 324.729 275.845 324.562C276.023 324.396 276.158 324.189 276.249 323.943L278.169 324.159C278.048 324.667 277.817 325.11 277.476 325.489C277.139 325.864 276.707 326.155 276.18 326.364C275.654 326.568 275.052 326.67 274.374 326.67ZM279.994 326.5V317.773H281.989V319.227H282.08C282.239 318.723 282.511 318.335 282.898 318.062C283.288 317.786 283.733 317.648 284.233 317.648C284.347 317.648 284.473 317.653 284.614 317.665C284.758 317.672 284.877 317.686 284.972 317.705V319.597C284.884 319.566 284.746 319.54 284.557 319.517C284.371 319.491 284.191 319.477 284.017 319.477C283.642 319.477 283.305 319.559 283.006 319.722C282.71 319.881 282.477 320.102 282.307 320.386C282.136 320.67 282.051 320.998 282.051 321.369V326.5H279.994Z" fill="#212528"/>
</g>
<g filter="url(#filter3_d_140_631)">
<rect x="0.5" y="174" width="63" height="63" rx="16" fill="white" shape-rendering="crispEdges"/>
<rect x="1" y="174.5" width="62" height="62" rx="15.5" stroke="#212528" shape-rendering="crispEdges"/>
<path d="M32 192.167C24.64 192.167 18.6667 198.14 18.6667 205.5C18.6667 212.86 24.64 218.833 32 218.833C39.36 218.833 45.3333 212.86 45.3333 205.5C45.3333 198.14 39.36 192.167 32 192.167ZM25.4267 213.873C26 212.673 29.4933 211.5 32 211.5C34.5067 211.5 38.0133 212.673 38.5733 213.873C36.76 215.313 34.48 216.167 32 216.167C29.52 216.167 27.24 215.313 25.4267 213.873ZM40.48 211.94C38.5733 209.62 33.9467 208.833 32 208.833C30.0533 208.833 25.4267 209.62 23.52 211.94C22.16 210.153 21.3333 207.927 21.3333 205.5C21.3333 199.62 26.12 194.833 32 194.833C37.88 194.833 42.6667 199.62 42.6667 205.5C42.6667 207.927 41.84 210.153 40.48 211.94ZM32 197.5C29.4133 197.5 27.3333 199.58 27.3333 202.167C27.3333 204.753 29.4133 206.833 32 206.833C34.5867 206.833 36.6667 204.753 36.6667 202.167C36.6667 199.58 34.5867 197.5 32 197.5ZM32 204.167C30.8933 204.167 30 203.273 30 202.167C30 201.06 30.8933 200.167 32 200.167C33.1067 200.167 34 201.06 34 202.167C34 203.273 33.1067 204.167 32 204.167Z" fill="#30D42B"/>
</g>
<g filter="url(#filter4_d_140_631)">
<rect x="87.5" y="174" width="63" height="63" rx="16" fill="white" shape-rendering="crispEdges"/>
<rect x="88" y="174.5" width="62" height="62" rx="15.5" stroke="#212528" shape-rendering="crispEdges"/>
<path d="M119 192.167C111.64 192.167 105.667 198.14 105.667 205.5C105.667 212.86 111.64 218.833 119 218.833C126.36 218.833 132.333 212.86 132.333 205.5C132.333 198.14 126.36 192.167 119 192.167ZM112.427 213.873C113 212.673 116.493 211.5 119 211.5C121.507 211.5 125.013 212.673 125.573 213.873C123.76 215.313 121.48 216.167 119 216.167C116.52 216.167 114.24 215.313 112.427 213.873ZM127.48 211.94C125.573 209.62 120.947 208.833 119 208.833C117.053 208.833 112.427 209.62 110.52 211.94C109.16 210.153 108.333 207.927 108.333 205.5C108.333 199.62 113.12 194.833 119 194.833C124.88 194.833 129.667 199.62 129.667 205.5C129.667 207.927 128.84 210.153 127.48 211.94ZM119 197.5C116.413 197.5 114.333 199.58 114.333 202.167C114.333 204.753 116.413 206.833 119 206.833C121.587 206.833 123.667 204.753 123.667 202.167C123.667 199.58 121.587 197.5 119 197.5ZM119 204.167C117.893 204.167 117 203.273 117 202.167C117 201.06 117.893 200.167 119 200.167C120.107 200.167 121 201.06 121 202.167C121 203.273 120.107 204.167 119 204.167Z" fill="#30D42B"/>
</g>
<g filter="url(#filter5_d_140_631)">
<rect x="0.5" y="261" width="63" height="63" rx="16" fill="white" shape-rendering="crispEdges"/>
<rect x="1" y="261.5" width="62" height="62" rx="15.5" stroke="#212528" shape-rendering="crispEdges"/>
<path d="M32 279.167C24.64 279.167 18.6667 285.14 18.6667 292.5C18.6667 299.86 24.64 305.833 32 305.833C39.36 305.833 45.3333 299.86 45.3333 292.5C45.3333 285.14 39.36 279.167 32 279.167ZM25.4267 300.873C26 299.673 29.4933 298.5 32 298.5C34.5067 298.5 38.0133 299.673 38.5733 300.873C36.76 302.313 34.48 303.167 32 303.167C29.52 303.167 27.24 302.313 25.4267 300.873ZM40.48 298.94C38.5733 296.62 33.9467 295.833 32 295.833C30.0533 295.833 25.4267 296.62 23.52 298.94C22.16 297.153 21.3333 294.927 21.3333 292.5C21.3333 286.62 26.12 281.833 32 281.833C37.88 281.833 42.6667 286.62 42.6667 292.5C42.6667 294.927 41.84 297.153 40.48 298.94ZM32 284.5C29.4133 284.5 27.3333 286.58 27.3333 289.167C27.3333 291.753 29.4133 293.833 32 293.833C34.5867 293.833 36.6667 291.753 36.6667 289.167C36.6667 286.58 34.5867 284.5 32 284.5ZM32 291.167C30.8933 291.167 30 290.273 30 289.167C30 288.06 30.8933 287.167 32 287.167C33.1067 287.167 34 288.06 34 289.167C34 290.273 33.1067 291.167 32 291.167Z" fill="#30D42B"/>
</g>
<g filter="url(#filter6_d_140_631)">
<rect x="87.5" y="261" width="63" height="63" rx="16" fill="white" shape-rendering="crispEdges"/>
<rect x="88" y="261.5" width="62" height="62" rx="15.5" stroke="#212528" shape-rendering="crispEdges"/>
<path d="M119 279.167C111.64 279.167 105.667 285.14 105.667 292.5C105.667 299.86 111.64 305.833 119 305.833C126.36 305.833 132.333 299.86 132.333 292.5C132.333 285.14 126.36 279.167 119 279.167ZM112.427 300.873C113 299.673 116.493 298.5 119 298.5C121.507 298.5 125.013 299.673 125.573 300.873C123.76 302.313 121.48 303.167 119 303.167C116.52 303.167 114.24 302.313 112.427 300.873ZM127.48 298.94C125.573 296.62 120.947 295.833 119 295.833C117.053 295.833 112.427 296.62 110.52 298.94C109.16 297.153 108.333 294.927 108.333 292.5C108.333 286.62 113.12 281.833 119 281.833C124.88 281.833 129.667 286.62 129.667 292.5C129.667 294.927 128.84 297.153 127.48 298.94ZM119 284.5C116.413 284.5 114.333 286.58 114.333 289.167C114.333 291.753 116.413 293.833 119 293.833C121.587 293.833 123.667 291.753 123.667 289.167C123.667 286.58 121.587 284.5 119 284.5ZM119 291.167C117.893 291.167 117 290.273 117 289.167C117 288.06 117.893 287.167 119 287.167C120.107 287.167 121 288.06 121 289.167C121 290.273 120.107 291.167 119 291.167Z" fill="#30D42B"/>
</g>
<defs>
<filter id="filter0_d_140_631" x="0.5" y="0" width="154" height="154" filterUnits="userSpaceOnUse" color-interpolation-filters="sRGB">
<feFlood flood-opacity="0" result="BackgroundImageFix"/>
<feColorMatrix in="SourceAlpha" type="matrix" values="0 0 0 0 0 0 0 0 0 0 0 0 0 0 0 0 0 0 127 0" result="hardAlpha"/>
<feOffset dx="4" dy="4"/>
<feComposite in2="hardAlpha" operator="out"/>
<feColorMatrix type="matrix" values="0 0 0 0 0.667568 0 0 0 0 0.805297 0 0 0 0 0.932432 0 0 0 1 0"/>
<feBlend mode="normal" in2="BackgroundImageFix" result="effect1_dropShadow_140_631"/>
<feBlend mode="normal" in="SourceGraphic" in2="effect1_dropShadow_140_631" result="shape"/>
</filter>
<filter id="filter1_d_140_631" x="174.5" y="40" width="154" height="154" filterUnits="userSpaceOnUse" color-interpolation-filters="sRGB">
<feFlood flood-opacity="0" result="BackgroundImageFix"/>
<feColorMatrix in="SourceAlpha" type="matrix" values="0 0 0 0 0 0 0 0 0 0 0 0 0 0 0 0 0 0 127 0" result="hardAlpha"/>
<feOffset dx="4" dy="4"/>
<feComposite in2="hardAlpha" operator="out"/>
<feColorMatrix type="matrix" values="0 0 0 0 0.932432 0 0 0 0 0.778811 0 0 0 0 0.667568 0 0 0 1 0"/>
<feBlend mode="normal" in2="BackgroundImageFix" result="effect1_dropShadow_140_631"/>
<feBlend mode="normal" in="SourceGraphic" in2="effect1_dropShadow_140_631" result="shape"/>
</filter>
<filter id="filter2_d_140_631" x="174.5" y="214" width="154" height="154" filterUnits="userSpaceOnUse" color-interpolation-filters="sRGB">
<feFlood flood-opacity="0" result="BackgroundImageFix"/>
<feColorMatrix in="SourceAlpha" type="matrix" values="0 0 0 0 0 0 0 0 0 0 0 0 0 0 0 0 0 0 127 0" result="hardAlpha"/>
<feOffset dx="4" dy="4"/>
<feComposite in2="hardAlpha" operator="out"/>
<feColorMatrix type="matrix" values="0 0 0 0 0.932432 0 0 0 0 0.667568 0 0 0 0 0.905946 0 0 0 1 0"/>
<feBlend mode="normal" in2="BackgroundImageFix" result="effect1_dropShadow_140_631"/>
<feBlend mode="normal" in="SourceGraphic" in2="effect1_dropShadow_140_631" result="shape"/>
</filter>
<filter id="filter3_d_140_631" x="0.5" y="174" width="67" height="67" filterUnits="userSpaceOnUse" color-interpolation-filters="sRGB">
<feFlood flood-opacity="0" result="BackgroundImageFix"/>
<feColorMatrix in="SourceAlpha" type="matrix" values="0 0 0 0 0 0 0 0 0 0 0 0 0 0 0 0 0 0 127 0" result="hardAlpha"/>
<feOffset dx="4" dy="4"/>
<feComposite in2="hardAlpha" operator="out"/>
<feColorMatrix type="matrix" values="0 0 0 0 0.672865 0 0 0 0 0.932432 0 0 0 0 0.667568 0 0 0 1 0"/>
<feBlend mode="normal" in2="BackgroundImageFix" result="effect1_dropShadow_140_631"/>
<feBlend mode="normal" in="SourceGraphic" in2="effect1_dropShadow_140_631" result="shape"/>
</filter>
<filter id="filter4_d_140_631" x="87.5" y="174" width="67" height="67" filterUnits="userSpaceOnUse" color-interpolation-filters="sRGB">
<feFlood flood-opacity="0" result="BackgroundImageFix"/>
<feColorMatrix in="SourceAlpha" type="matrix" values="0 0 0 0 0 0 0 0 0 0 0 0 0 0 0 0 0 0 127 0" result="hardAlpha"/>
<feOffset dx="4" dy="4"/>
<feComposite in2="hardAlpha" operator="out"/>
<feColorMatrix type="matrix" values="0 0 0 0 0.672865 0 0 0 0 0.932432 0 0 0 0 0.667568 0 0 0 1 0"/>
<feBlend mode="normal" in2="BackgroundImageFix" result="effect1_dropShadow_140_631"/>
<feBlend mode="normal" in="SourceGraphic" in2="effect1_dropShadow_140_631" result="shape"/>
</filter>
<filter id="filter5_d_140_631" x="0.5" y="261" width="67" height="67" filterUnits="userSpaceOnUse" color-interpolation-filters="sRGB">
<feFlood flood-opacity="0" result="BackgroundImageFix"/>
<feColorMatrix in="SourceAlpha" type="matrix" values="0 0 0 0 0 0 0 0 0 0 0 0 0 0 0 0 0 0 127 0" result="hardAlpha"/>
<feOffset dx="4" dy="4"/>
<feComposite in2="hardAlpha" operator="out"/>
<feColorMatrix type="matrix" values="0 0 0 0 0.672865 0 0 0 0 0.932432 0 0 0 0 0.667568 0 0 0 1 0"/>
<feBlend mode="normal" in2="BackgroundImageFix" result="effect1_dropShadow_140_631"/>
<feBlend mode="normal" in="SourceGraphic" in2="effect1_dropShadow_140_631" result="shape"/>
</filter>
<filter id="filter6_d_140_631" x="87.5" y="261" width="67" height="67" filterUnits="userSpaceOnUse" color-interpolation-filters="sRGB">
<feFlood flood-opacity="0" result="BackgroundImageFix"/>
<feColorMatrix in="SourceAlpha" type="matrix" values="0 0 0 0 0 0 0 0 0 0 0 0 0 0 0 0 0 0 127 0" result="hardAlpha"/>
<feOffset dx="4" dy="4"/>
<feComposite in2="hardAlpha" operator="out"/>
<feColorMatrix type="matrix" values="0 0 0 0 0.672865 0 0 0 0 0.932432 0 0 0 0 0.667568 0 0 0 1 0"/>
<feBlend mode="normal" in2="BackgroundImageFix" result="effect1_dropShadow_140_631"/>
<feBlend mode="normal" in="SourceGraphic" in2="effect1_dropShadow_140_631" result="shape"/>
</filter>
</defs>
</svg>
