<svg width="379" height="502" viewBox="0 0 379 502" fill="none" xmlns="http://www.w3.org/2000/svg">
<g filter="url(#filter0_d_155_537)">
<rect x="0.5" y="149" width="200" height="200" rx="16" fill="white" shape-rendering="crispEdges"/>
<rect x="1" y="149.5" width="199" height="199" rx="15.5" stroke="#212528" shape-rendering="crispEdges"/>
<g clip-path="url(#clip0_155_537)">
<path d="M72.9615 236.5H67.4705V261.499H72.9615V236.5Z" fill="#1A237E"/>
<path fill-rule="evenodd" clip-rule="evenodd" d="M103.258 261.499H94.2824C86.8564 261.499 80.2735 257.156 80.2735 249.07C80.2735 239.925 86.9965 236.5 95.0215 236.5H103.258V248.183H97.7664V241.583H94.5285C89.8825 241.583 85.9756 243.878 85.9756 248.783C85.9756 254.468 89.8125 256.41 94.9155 256.41H103.258V261.499Z" fill="#1A237E"/>
<path fill-rule="evenodd" clip-rule="evenodd" d="M142.271 261.498H147.76V250.698H158.426V261.498H163.917V236.498H158.426V245.82H147.76V236.498H142.271V261.498Z" fill="#1A237E"/>
<path fill-rule="evenodd" clip-rule="evenodd" d="M112.149 236.505H121.124C128.551 236.505 135.132 240.848 135.132 248.934C135.132 258.08 128.409 261.504 120.384 261.504H112.148V249.821H117.638V256.421H120.875C125.521 256.421 129.429 254.126 129.429 249.221C129.429 243.536 125.592 241.594 120.488 241.594H112.146L112.149 236.505Z" fill="#1A237E"/>
<path fill-rule="evenodd" clip-rule="evenodd" d="M59.8255 246.782H50.5475V251.62H54.8015V255.485C53.285 256.284 51.5916 256.689 49.8775 256.661C45.4225 256.661 42.5095 253.436 42.5095 249C42.5095 244.564 45.4235 241.339 49.8775 241.339C50.9441 241.268 52.0132 241.433 53.0088 241.823C54.0045 242.212 54.9023 242.815 55.6385 243.59L59.3225 239.558C56.9445 237.34 53.6285 236.5 49.8775 236.5C42.4775 236.5 37.0825 241.373 37.0825 249C37.0825 256.627 42.4745 261.5 49.8775 261.5C53.3301 261.56 56.7451 260.775 59.8255 259.215V246.782Z" fill="#1A237E"/>
</g>
</g>
<g filter="url(#filter1_d_155_537)">
<rect x="224.5" y="174" width="150" height="150" rx="16" fill="white" shape-rendering="crispEdges"/>
<rect x="225" y="174.5" width="149" height="149" rx="15.5" stroke="#212528" shape-rendering="crispEdges"/>
<path d="M309.5 234.5V218.5H289.5V226.5H281.5V254.5H297.5V246.5H301.5V254.5H317.5V234.5H309.5ZM289.5 250.5H285.5V246.5H289.5V250.5ZM289.5 242.5H285.5V238.5H289.5V242.5ZM289.5 234.5H285.5V230.5H289.5V234.5ZM297.5 242.5H293.5V238.5H297.5V242.5ZM297.5 234.5H293.5V230.5H297.5V234.5ZM297.5 226.5H293.5V222.5H297.5V226.5ZM305.5 242.5H301.5V238.5H305.5V242.5ZM305.5 234.5H301.5V230.5H305.5V234.5ZM305.5 226.5H301.5V222.5H305.5V226.5ZM313.5 250.5H309.5V246.5H313.5V250.5ZM313.5 242.5H309.5V238.5H313.5V242.5Z" fill="#0080FF"/>
<path d="M280.504 282.5V272.318H284.402C285.138 272.318 285.749 272.434 286.237 272.666C286.727 272.895 287.093 273.208 287.335 273.606C287.58 274.004 287.703 274.454 287.703 274.958C287.703 275.372 287.624 275.727 287.464 276.022C287.305 276.314 287.092 276.551 286.823 276.733C286.555 276.915 286.255 277.046 285.923 277.126V277.225C286.285 277.245 286.631 277.356 286.962 277.558C287.297 277.757 287.571 278.039 287.783 278.403C287.995 278.768 288.101 279.209 288.101 279.726C288.101 280.253 287.973 280.727 287.718 281.148C287.463 281.565 287.078 281.895 286.565 282.137C286.051 282.379 285.405 282.5 284.626 282.5H280.504ZM282.349 280.959H284.332C285.002 280.959 285.484 280.831 285.779 280.576C286.077 280.317 286.227 279.986 286.227 279.582C286.227 279.28 286.152 279.008 286.003 278.766C285.854 278.521 285.642 278.329 285.366 278.19C285.091 278.047 284.763 277.976 284.382 277.976H282.349V280.959ZM282.349 276.648H284.173C284.491 276.648 284.778 276.59 285.033 276.474C285.289 276.355 285.489 276.188 285.635 275.972C285.784 275.754 285.859 275.495 285.859 275.197C285.859 274.802 285.719 274.478 285.441 274.222C285.166 273.967 284.757 273.839 284.213 273.839H282.349V276.648ZM291.013 282.5H289.044L292.629 272.318H294.906L298.495 282.5H296.526L293.807 274.406H293.727L291.013 282.5ZM291.078 278.508H296.447V279.989H291.078V278.508ZM308.203 272.318V282.5H306.563L301.765 275.565H301.681V282.5H299.836V272.318H301.487L306.279 279.259H306.369V272.318H308.203ZM310.213 282.5V272.318H312.058V276.996H312.182L316.154 272.318H318.406L314.469 276.887L318.441 282.5H316.224L313.186 278.135L312.058 279.467V282.5H310.213Z" fill="#0080FF"/>
</g>
<path d="M204.5 248C203.948 248 203.5 248.448 203.5 249C203.5 249.552 203.948 250 204.5 250V248ZM221.207 249.707C221.598 249.317 221.598 248.683 221.207 248.293L214.843 241.929C214.453 241.538 213.819 241.538 213.429 241.929C213.038 242.319 213.038 242.953 213.429 243.343L219.086 249L213.429 254.657C213.038 255.047 213.038 255.681 213.429 256.071C213.819 256.462 214.453 256.462 214.843 256.071L221.207 249.707ZM204.5 250H220.5V248H204.5V250Z" fill="#212528"/>
<g filter="url(#filter2_d_155_537)">
<rect x="224.5" width="150" height="150" rx="16" fill="white" shape-rendering="crispEdges"/>
<rect x="225" y="0.5" width="149" height="149" rx="15.5" stroke="#212528" shape-rendering="crispEdges"/>
<path d="M289.5 60.5H285.5V74.5H289.5V60.5ZM301.5 60.5H297.5V74.5H301.5V60.5ZM318.5 78.5H280.5V82.5H318.5V78.5ZM313.5 60.5H309.5V74.5H313.5V60.5ZM299.5 47.02L309.92 52.5H289.08L299.5 47.02ZM299.5 42.5L280.5 52.5V56.5H318.5V52.5L299.5 42.5Z" fill="#FF0000"/>
<path d="M280.504 108.5V98.3182H284.402C285.138 98.3182 285.749 98.4342 286.237 98.6662C286.727 98.8949 287.093 99.2081 287.335 99.6058C287.58 100.004 287.703 100.454 287.703 100.958C287.703 101.372 287.624 101.727 287.464 102.022C287.305 102.314 287.092 102.551 286.823 102.733C286.555 102.915 286.255 103.046 285.923 103.126V103.225C286.285 103.245 286.631 103.356 286.962 103.558C287.297 103.757 287.571 104.039 287.783 104.403C287.995 104.768 288.101 105.209 288.101 105.726C288.101 106.253 287.973 106.727 287.718 107.148C287.463 107.565 287.078 107.895 286.565 108.137C286.051 108.379 285.405 108.5 284.626 108.5H280.504ZM282.349 106.959H284.332C285.002 106.959 285.484 106.831 285.779 106.576C286.077 106.317 286.227 105.986 286.227 105.582C286.227 105.28 286.152 105.008 286.003 104.766C285.854 104.521 285.642 104.329 285.366 104.19C285.091 104.047 284.763 103.976 284.382 103.976H282.349V106.959ZM282.349 102.648H284.173C284.491 102.648 284.778 102.59 285.033 102.474C285.289 102.355 285.489 102.188 285.635 101.972C285.784 101.754 285.859 101.495 285.859 101.197C285.859 100.802 285.719 100.478 285.441 100.222C285.166 99.9671 284.757 99.8395 284.213 99.8395H282.349V102.648ZM291.013 108.5H289.044L292.629 98.3182H294.906L298.495 108.5H296.526L293.807 100.406H293.727L291.013 108.5ZM291.078 104.508H296.447V105.989H291.078V104.508ZM308.203 98.3182V108.5H306.563L301.765 101.565H301.681V108.5H299.836V98.3182H301.487L306.279 105.259H306.369V98.3182H308.203ZM310.213 108.5V98.3182H312.058V102.996H312.182L316.154 98.3182H318.406L314.469 102.887L318.441 108.5H316.224L313.186 104.135L312.058 105.467V108.5H310.213Z" fill="#FF0000"/>
</g>
<path d="M99.5 145C99.5 145.552 99.9477 146 100.5 146C101.052 146 101.5 145.552 101.5 145H99.5ZM221.207 75.7071C221.598 75.3166 221.598 74.6834 221.207 74.2929L214.843 67.9289C214.453 67.5384 213.819 67.5384 213.429 67.9289C213.038 68.3195 213.038 68.9526 213.429 69.3431L219.086 75L213.429 80.6569C213.038 81.0474 213.038 81.6805 213.429 82.0711C213.819 82.4616 214.453 82.4616 214.843 82.0711L221.207 75.7071ZM101.5 145V99H99.5V145H101.5ZM124.5 76H220.5V74H124.5V76ZM101.5 99C101.5 86.2975 111.797 76 124.5 76V74C110.693 74 99.5 85.1929 99.5 99H101.5Z" fill="#212528"/>
<g filter="url(#filter3_d_155_537)">
<rect x="224.5" y="348" width="150" height="150" rx="16" fill="white" shape-rendering="crispEdges"/>
<rect x="225" y="348.5" width="149" height="149" rx="15.5" stroke="#212528" shape-rendering="crispEdges"/>
<path d="M309.5 416.5H313.5V420.5H309.5V416.5ZM309.5 408.5H313.5V412.5H309.5V408.5ZM309.5 400.5H313.5V404.5H309.5V400.5ZM302.98 400.5L305.5 402.18V400.5H302.98Z" fill="#FF6A00"/>
<path d="M295.5 392.5V395.52L299.5 398.18V396.5H317.5V424.5H309.5V428.5H321.5V392.5H295.5Z" fill="#FF6A00"/>
<path d="M291.84 397.9L305.5 407V428.5H277.5V407.46L291.84 397.9ZM295.5 424.5H301.5V408.82L291.84 402.68L281.5 409.26V424.5H287.5V412.5H295.5V424.5Z" fill="#FF6A00"/>
<path d="M280.504 456.5V446.318H284.402C285.138 446.318 285.749 446.434 286.237 446.666C286.727 446.895 287.093 447.208 287.335 447.606C287.58 448.004 287.703 448.454 287.703 448.958C287.703 449.372 287.624 449.727 287.464 450.022C287.305 450.314 287.092 450.551 286.823 450.733C286.555 450.915 286.255 451.046 285.923 451.126V451.225C286.285 451.245 286.631 451.356 286.962 451.558C287.297 451.757 287.571 452.039 287.783 452.403C287.995 452.768 288.101 453.209 288.101 453.726C288.101 454.253 287.973 454.727 287.718 455.148C287.463 455.565 287.078 455.895 286.565 456.137C286.051 456.379 285.405 456.5 284.626 456.5H280.504ZM282.349 454.959H284.332C285.002 454.959 285.484 454.831 285.779 454.576C286.077 454.317 286.227 453.986 286.227 453.582C286.227 453.28 286.152 453.008 286.003 452.766C285.854 452.521 285.642 452.329 285.366 452.19C285.091 452.047 284.763 451.976 284.382 451.976H282.349V454.959ZM282.349 450.648H284.173C284.491 450.648 284.778 450.59 285.033 450.474C285.289 450.355 285.489 450.188 285.635 449.972C285.784 449.754 285.859 449.495 285.859 449.197C285.859 448.802 285.719 448.478 285.441 448.222C285.166 447.967 284.757 447.839 284.213 447.839H282.349V450.648ZM291.013 456.5H289.044L292.629 446.318H294.906L298.495 456.5H296.526L293.807 448.406H293.727L291.013 456.5ZM291.078 452.508H296.447V453.989H291.078V452.508ZM308.203 446.318V456.5H306.563L301.765 449.565H301.681V456.5H299.836V446.318H301.487L306.279 453.259H306.369V446.318H308.203ZM310.213 456.5V446.318H312.058V450.996H312.182L316.154 446.318H318.406L314.469 450.887L318.441 456.5H316.224L313.186 452.135L312.058 453.467V456.5H310.213Z" fill="#FF6A00"/>
</g>
<path d="M101.5 353C101.5 352.448 101.052 352 100.5 352C99.9477 352 99.5 352.448 99.5 353H101.5ZM221.207 423.707C221.598 423.317 221.598 422.683 221.207 422.293L214.843 415.929C214.453 415.538 213.819 415.538 213.429 415.929C213.038 416.319 213.038 416.953 213.429 417.343L219.086 423L213.429 428.657C213.038 429.047 213.038 429.681 213.429 430.071C213.819 430.462 214.453 430.462 214.843 430.071L221.207 423.707ZM99.5 353V399H101.5V353H99.5ZM124.5 424H220.5V422H124.5V424ZM99.5 399C99.5 412.807 110.693 424 124.5 424V422C111.797 422 101.5 411.703 101.5 399H99.5Z" fill="#212528"/>
<defs>
<filter id="filter0_d_155_537" x="0.5" y="149" width="204" height="204" filterUnits="userSpaceOnUse" color-interpolation-filters="sRGB">
<feFlood flood-opacity="0" result="BackgroundImageFix"/>
<feColorMatrix in="SourceAlpha" type="matrix" values="0 0 0 0 0 0 0 0 0 0 0 0 0 0 0 0 0 0 127 0" result="hardAlpha"/>
<feOffset dx="4" dy="4"/>
<feComposite in2="hardAlpha" operator="out"/>
<feColorMatrix type="matrix" values="0 0 0 0 0.517647 0 0 0 0 0.556863 0 0 0 0 0.901961 0 0 0 1 0"/>
<feBlend mode="normal" in2="BackgroundImageFix" result="effect1_dropShadow_155_537"/>
<feBlend mode="normal" in="SourceGraphic" in2="effect1_dropShadow_155_537" result="shape"/>
</filter>
<filter id="filter1_d_155_537" x="224.5" y="174" width="154" height="154" filterUnits="userSpaceOnUse" color-interpolation-filters="sRGB">
<feFlood flood-opacity="0" result="BackgroundImageFix"/>
<feColorMatrix in="SourceAlpha" type="matrix" values="0 0 0 0 0 0 0 0 0 0 0 0 0 0 0 0 0 0 127 0" result="hardAlpha"/>
<feOffset dx="4" dy="4"/>
<feComposite in2="hardAlpha" operator="out"/>
<feColorMatrix type="matrix" values="0 0 0 0 0.6 0 0 0 0 0.800784 0 0 0 0 1 0 0 0 1 0"/>
<feBlend mode="normal" in2="BackgroundImageFix" result="effect1_dropShadow_155_537"/>
<feBlend mode="normal" in="SourceGraphic" in2="effect1_dropShadow_155_537" result="shape"/>
</filter>
<filter id="filter2_d_155_537" x="224.5" y="0" width="154" height="154" filterUnits="userSpaceOnUse" color-interpolation-filters="sRGB">
<feFlood flood-opacity="0" result="BackgroundImageFix"/>
<feColorMatrix in="SourceAlpha" type="matrix" values="0 0 0 0 0 0 0 0 0 0 0 0 0 0 0 0 0 0 127 0" result="hardAlpha"/>
<feOffset dx="4" dy="4"/>
<feComposite in2="hardAlpha" operator="out"/>
<feColorMatrix type="matrix" values="0 0 0 0 1 0 0 0 0 0.6 0 0 0 0 0.6 0 0 0 1 0"/>
<feBlend mode="normal" in2="BackgroundImageFix" result="effect1_dropShadow_155_537"/>
<feBlend mode="normal" in="SourceGraphic" in2="effect1_dropShadow_155_537" result="shape"/>
</filter>
<filter id="filter3_d_155_537" x="224.5" y="348" width="154" height="154" filterUnits="userSpaceOnUse" color-interpolation-filters="sRGB">
<feFlood flood-opacity="0" result="BackgroundImageFix"/>
<feColorMatrix in="SourceAlpha" type="matrix" values="0 0 0 0 0 0 0 0 0 0 0 0 0 0 0 0 0 0 127 0" result="hardAlpha"/>
<feOffset dx="4" dy="4"/>
<feComposite in2="hardAlpha" operator="out"/>
<feColorMatrix type="matrix" values="0 0 0 0 1 0 0 0 0 0.766275 0 0 0 0 0.6 0 0 0 1 0"/>
<feBlend mode="normal" in2="BackgroundImageFix" result="effect1_dropShadow_155_537"/>
<feBlend mode="normal" in="SourceGraphic" in2="effect1_dropShadow_155_537" result="shape"/>
</filter>
<clipPath id="clip0_155_537">
<rect width="126.833" height="25" fill="white" transform="translate(37.0835 236.5)"/>
</clipPath>
</defs>
</svg>
