<svg width="405" height="436" viewBox="0 0 405 436" fill="none" xmlns="http://www.w3.org/2000/svg">
<g filter="url(#filter0_d_140_824)">
<rect x="0.5" width="400" height="80" rx="16" fill="white" shape-rendering="crispEdges"/>
<rect x="1" y="0.5" width="399" height="79" rx="15.5" stroke="#212528" shape-rendering="crispEdges"/>
<path d="M97.142 51V29.1818H110.224V31.5256H99.7841V38.8977H109.244V41.2415H99.7841V51H97.142ZM114.409 51V34.6364H116.923V51H114.409ZM115.687 31.9091C115.197 31.9091 114.774 31.7422 114.419 31.4084C114.071 31.0746 113.897 30.6733 113.897 30.2045C113.897 29.7358 114.071 29.3345 114.419 29.0007C114.774 28.6669 115.197 28.5 115.687 28.5C116.177 28.5 116.596 28.6669 116.944 29.0007C117.299 29.3345 117.477 29.7358 117.477 30.2045C117.477 30.6733 117.299 31.0746 116.944 31.4084C116.596 31.7422 116.177 31.9091 115.687 31.9091ZM124.042 29.1818V51H121.528V29.1818H124.042ZM135.508 51.3409C133.931 51.3409 132.571 50.9929 131.427 50.2969C130.291 49.5938 129.414 48.6136 128.796 47.3565C128.185 46.0923 127.88 44.6222 127.88 42.946C127.88 41.2699 128.185 39.7926 128.796 38.5142C129.414 37.2287 130.273 36.2273 131.374 35.5099C132.482 34.7855 133.775 34.4233 135.252 34.4233C136.104 34.4233 136.946 34.5653 137.777 34.8494C138.608 35.1335 139.364 35.5952 140.046 36.2344C140.728 36.8665 141.271 37.7045 141.676 38.7486C142.081 39.7926 142.283 41.0781 142.283 42.6051V43.6705H129.67V41.4972H139.726C139.726 40.5739 139.542 39.75 139.172 39.0256C138.81 38.3011 138.292 37.7294 137.617 37.3104C136.949 36.8913 136.161 36.6818 135.252 36.6818C134.251 36.6818 133.384 36.9304 132.653 37.4276C131.928 37.9176 131.371 38.5568 130.98 39.3452C130.589 40.1335 130.394 40.9787 130.394 41.8807V43.3295C130.394 44.5653 130.607 45.6129 131.033 46.4723C131.466 47.3246 132.067 47.9744 132.834 48.4219C133.601 48.8622 134.492 49.0824 135.508 49.0824C136.168 49.0824 136.765 48.9901 137.297 48.8054C137.837 48.6136 138.302 48.3295 138.693 47.9531C139.084 47.5696 139.385 47.0937 139.599 46.5256L142.028 47.2074C141.772 48.0312 141.342 48.7557 140.738 49.3807C140.135 49.9986 139.389 50.4815 138.501 50.8295C137.613 51.1705 136.616 51.3409 135.508 51.3409ZM156.165 57.1364C155.738 57.1364 155.358 57.1009 155.025 57.0298C154.691 56.9659 154.46 56.902 154.332 56.8381L154.971 54.6222C155.582 54.7784 156.122 54.8352 156.591 54.7926C157.059 54.75 157.475 54.5405 157.837 54.1641C158.206 53.7947 158.544 53.1946 158.849 52.3636L159.318 51.0852L153.267 34.6364H155.994L160.511 47.6761H160.682L165.199 34.6364H167.926L160.98 53.3864C160.667 54.2315 160.28 54.9311 159.819 55.4851C159.357 56.0462 158.821 56.4616 158.21 56.7315C157.606 57.0014 156.925 57.1364 156.165 57.1364ZM177.306 51.3409C175.829 51.3409 174.533 50.9893 173.418 50.2862C172.31 49.5831 171.443 48.5994 170.818 47.3352C170.2 46.071 169.892 44.5937 169.892 42.9034C169.892 41.1989 170.2 39.7109 170.818 38.4396C171.443 37.1683 172.31 36.1811 173.418 35.478C174.533 34.7749 175.829 34.4233 177.306 34.4233C178.784 34.4233 180.076 34.7749 181.184 35.478C182.299 36.1811 183.166 37.1683 183.784 38.4396C184.409 39.7109 184.721 41.1989 184.721 42.9034C184.721 44.5937 184.409 46.071 183.784 47.3352C183.166 48.5994 182.299 49.5831 181.184 50.2862C180.076 50.9893 178.784 51.3409 177.306 51.3409ZM177.306 49.0824C178.428 49.0824 179.352 48.7947 180.076 48.2195C180.801 47.6442 181.337 46.8878 181.685 45.9503C182.033 45.0128 182.207 43.9972 182.207 42.9034C182.207 41.8097 182.033 40.7905 181.685 39.8459C181.337 38.9013 180.801 38.1378 180.076 37.5554C179.352 36.973 178.428 36.6818 177.306 36.6818C176.184 36.6818 175.261 36.973 174.536 37.5554C173.812 38.1378 173.276 38.9013 172.928 39.8459C172.58 40.7905 172.406 41.8097 172.406 42.9034C172.406 43.9972 172.58 45.0128 172.928 45.9503C173.276 46.8878 173.812 47.6442 174.536 48.2195C175.261 48.7947 176.184 49.0824 177.306 49.0824ZM198.871 44.3097V34.6364H201.386V51H198.871V48.2301H198.701C198.317 49.0611 197.721 49.7678 196.911 50.3501C196.102 50.9254 195.079 51.2131 193.843 51.2131C192.82 51.2131 191.911 50.9893 191.116 50.5419C190.32 50.0874 189.695 49.4055 189.241 48.4964C188.786 47.5803 188.559 46.4261 188.559 45.0341V34.6364H191.073V44.8636C191.073 46.0568 191.407 47.0085 192.075 47.7188C192.749 48.429 193.609 48.7841 194.653 48.7841C195.278 48.7841 195.913 48.6243 196.56 48.3047C197.213 47.9851 197.76 47.495 198.2 46.8345C198.648 46.174 198.871 45.3324 198.871 44.3097ZM205.991 51V34.6364H208.42V37.108H208.59C208.888 36.2983 209.428 35.6413 210.209 35.1371C210.991 34.6328 211.871 34.3807 212.851 34.3807C213.036 34.3807 213.267 34.3842 213.544 34.3913C213.821 34.3984 214.03 34.4091 214.172 34.4233V36.9801C214.087 36.9588 213.892 36.9268 213.586 36.8842C213.288 36.8345 212.972 36.8097 212.638 36.8097C211.843 36.8097 211.133 36.9766 210.508 37.3104C209.89 37.6371 209.4 38.0916 209.037 38.674C208.682 39.2493 208.505 39.9062 208.505 40.6449V51H205.991Z" fill="#212528"/>
<path d="M239.864 36.2344C239.714 35.7159 239.505 35.2578 239.235 34.8601C238.965 34.4553 238.635 34.1143 238.244 33.8374C237.861 33.5533 237.42 33.3366 236.923 33.1875C236.433 33.0384 235.89 32.9638 235.293 32.9638C234.178 32.9638 233.198 33.2408 232.353 33.7947C231.515 34.3487 230.862 35.1548 230.393 36.2131C229.924 37.2642 229.69 38.5497 229.69 40.0696C229.69 41.5895 229.92 42.8821 230.382 43.9474C230.844 45.0128 231.497 45.826 232.342 46.3871C233.188 46.9411 234.185 47.218 235.336 47.218C236.38 47.218 237.271 47.0334 238.01 46.6641C238.756 46.2876 239.324 45.7585 239.714 45.0767C240.112 44.3949 240.311 43.5888 240.311 42.6584L241.249 42.7969H235.624V39.3239H244.754V42.0724C244.754 43.9901 244.349 45.6378 243.539 47.0156C242.729 48.3864 241.614 49.4446 240.194 50.1903C238.773 50.929 237.147 51.2983 235.315 51.2983C233.269 51.2983 231.472 50.8473 229.924 49.9453C228.376 49.0362 227.168 47.7472 226.302 46.0781C225.442 44.402 225.013 42.4134 225.013 40.1122C225.013 38.3437 225.268 36.767 225.78 35.3821C226.298 33.9901 227.023 32.8111 227.953 31.8452C228.884 30.8793 229.967 30.1442 231.202 29.6399C232.438 29.1357 233.777 28.8835 235.219 28.8835C236.455 28.8835 237.605 29.0646 238.67 29.4268C239.736 29.782 240.68 30.2862 241.504 30.9396C242.335 31.593 243.013 32.3707 243.539 33.2727C244.065 34.1676 244.402 35.1548 244.551 36.2344H239.864ZM260.055 35.4567C259.969 34.5973 259.604 33.9297 258.957 33.4538C258.311 32.978 257.434 32.7401 256.326 32.7401C255.573 32.7401 254.937 32.8466 254.419 33.0597C253.9 33.2656 253.503 33.5533 253.226 33.9226C252.956 34.2919 252.821 34.7109 252.821 35.1797C252.807 35.5703 252.888 35.9112 253.066 36.2024C253.251 36.4936 253.503 36.7457 253.822 36.9588C254.142 37.1648 254.511 37.3459 254.93 37.5021C255.349 37.6513 255.797 37.7791 256.273 37.8857L258.233 38.3544C259.184 38.5675 260.058 38.8516 260.854 39.2067C261.649 39.5618 262.338 39.9986 262.92 40.517C263.503 41.0355 263.954 41.6463 264.273 42.3494C264.6 43.0526 264.767 43.8587 264.774 44.7678C264.767 46.103 264.426 47.2607 263.751 48.2408C263.084 49.2138 262.118 49.9702 260.854 50.5099C259.596 51.0426 258.08 51.3089 256.305 51.3089C254.543 51.3089 253.009 51.0391 251.702 50.4993C250.403 49.9595 249.387 49.1605 248.655 48.1023C247.931 47.0369 247.551 45.7195 247.515 44.1499H251.979C252.029 44.8814 252.238 45.4922 252.608 45.9822C252.984 46.4652 253.485 46.831 254.11 47.0795C254.742 47.321 255.456 47.4418 256.251 47.4418C257.032 47.4418 257.711 47.3281 258.286 47.1009C258.868 46.8736 259.319 46.5575 259.639 46.1527C259.959 45.7479 260.118 45.2827 260.118 44.7571C260.118 44.267 259.973 43.8551 259.682 43.5213C259.398 43.1875 258.979 42.9034 258.425 42.669C257.878 42.4347 257.206 42.2216 256.411 42.0298L254.035 41.4332C252.196 40.9858 250.743 40.2862 249.678 39.3345C248.613 38.3828 248.084 37.1009 248.091 35.4886C248.084 34.1676 248.435 33.0135 249.145 32.0263C249.863 31.0391 250.846 30.2685 252.096 29.7145C253.346 29.1605 254.767 28.8835 256.358 28.8835C257.977 28.8835 259.39 29.1605 260.598 29.7145C261.812 30.2685 262.757 31.0391 263.432 32.0263C264.106 33.0135 264.454 34.157 264.476 35.4567H260.055ZM267.046 32.9851V29.1818H284.965V32.9851H278.285V51H273.725V32.9851H267.046ZM287.916 51V29.1818H296.524C298.172 29.1818 299.578 29.4766 300.743 30.0661C301.914 30.6484 302.806 31.4759 303.417 32.5483C304.034 33.6136 304.343 34.8672 304.343 36.3089C304.343 37.7578 304.031 39.0043 303.406 40.0483C302.781 41.0852 301.875 41.8807 300.689 42.4347C299.51 42.9886 298.083 43.2656 296.407 43.2656H290.643V39.5582H295.661C296.542 39.5582 297.273 39.4375 297.855 39.196C298.438 38.9545 298.871 38.5923 299.155 38.1094C299.446 37.6264 299.592 37.0263 299.592 36.3089C299.592 35.5845 299.446 34.9737 299.155 34.4766C298.871 33.9794 298.434 33.603 297.845 33.3473C297.262 33.0845 296.527 32.9531 295.64 32.9531H292.529V51H287.916ZM299.699 41.071L305.121 51H300.029L294.723 41.071H299.699Z" fill="#212528"/>
</g>
<g filter="url(#filter1_d_140_824)">
<rect x="0.5" y="104" width="188" height="152" rx="16" fill="white" shape-rendering="crispEdges"/>
<rect x="1" y="104.5" width="187" height="151" rx="15.5" stroke="#212528" shape-rendering="crispEdges"/>
<path d="M98.5 132H82.5C80.3 132 78.52 133.8 78.52 136L78.5 168C78.5 170.2 80.28 172 82.48 172H106.5C108.7 172 110.5 170.2 110.5 168V144L98.5 132ZM82.5 168V136H96.5V146H106.5V168H82.5Z" fill="#0080FF"/>
<path d="M72.1935 203H67.4847V188.455H72.3427C73.7679 188.455 74.9918 188.746 76.0146 189.328C77.0373 189.906 77.8209 190.737 78.3654 191.821C78.9147 192.901 79.1893 194.196 79.1893 195.706C79.1893 197.221 78.9123 198.523 78.3583 199.612C77.8091 200.701 77.0136 201.539 75.9719 202.126C74.9303 202.709 73.6708 203 72.1935 203ZM69.6793 201.082H72.0728C73.1808 201.082 74.1017 200.874 74.8356 200.457C75.5695 200.036 76.1187 199.428 76.4833 198.632C76.8479 197.832 77.0302 196.857 77.0302 195.706C77.0302 194.565 76.8479 193.597 76.4833 192.801C76.1235 192.006 75.5861 191.402 74.8711 190.99C74.1561 190.578 73.2683 190.372 72.2077 190.372H69.6793V201.082ZM81.7479 203V192.091H83.8714V203H81.7479ZM82.8203 190.408C82.451 190.408 82.1338 190.285 81.8686 190.038C81.6082 189.787 81.478 189.489 81.478 189.143C81.478 188.793 81.6082 188.495 81.8686 188.249C82.1338 187.998 82.451 187.872 82.8203 187.872C83.1896 187.872 83.5045 187.998 83.7649 188.249C84.0301 188.495 84.1626 188.793 84.1626 189.143C84.1626 189.489 84.0301 189.787 83.7649 190.038C83.5045 190.285 83.1896 190.408 82.8203 190.408ZM86.7283 203V192.091H88.7809V193.824H88.8945C89.0934 193.237 89.4438 192.775 89.9457 192.439C90.4523 192.098 91.0252 191.928 91.6644 191.928C91.797 191.928 91.9532 191.932 92.1332 191.942C92.3178 191.951 92.4622 191.963 92.5664 191.977V194.009C92.4812 193.985 92.3297 193.959 92.1119 193.93C91.8941 193.897 91.6763 193.881 91.4585 193.881C90.9566 193.881 90.5091 193.987 90.1161 194.2C89.7279 194.409 89.4201 194.7 89.1928 195.074C88.9656 195.443 88.8519 195.865 88.8519 196.338V203H86.7283ZM98.7152 203.22C97.6404 203.22 96.7147 202.991 95.9382 202.531C95.1664 202.067 94.5698 201.416 94.1484 200.578C93.7318 199.735 93.5234 198.748 93.5234 197.616C93.5234 196.499 93.7318 195.514 94.1484 194.662C94.5698 193.81 95.157 193.144 95.9098 192.666C96.6674 192.188 97.5528 191.949 98.5661 191.949C99.1816 191.949 99.7782 192.051 100.356 192.254C100.933 192.458 101.452 192.777 101.911 193.213C102.371 193.649 102.733 194.214 102.998 194.911C103.263 195.602 103.396 196.442 103.396 197.432V198.185H94.7237V196.594H101.315C101.315 196.035 101.201 195.54 100.974 195.109C100.746 194.674 100.427 194.33 100.015 194.08C99.6077 193.829 99.1295 193.703 98.5803 193.703C97.9837 193.703 97.4628 193.85 97.0178 194.143C96.5774 194.432 96.2365 194.811 95.995 195.28C95.7583 195.744 95.6399 196.248 95.6399 196.793V198.036C95.6399 198.765 95.7678 199.385 96.0234 199.896C96.2839 200.408 96.6461 200.798 97.1101 201.068C97.5741 201.333 98.1162 201.466 98.7365 201.466C99.139 201.466 99.5059 201.409 99.8374 201.295C100.169 201.177 100.455 201.002 100.697 200.77C100.938 200.538 101.123 200.251 101.251 199.911L103.261 200.273C103.1 200.865 102.811 201.383 102.394 201.828C101.982 202.268 101.464 202.612 100.839 202.858C100.219 203.099 99.5107 203.22 98.7152 203.22ZM110.347 203.22C109.291 203.22 108.382 202.981 107.62 202.503C106.862 202.02 106.28 201.355 105.873 200.507C105.465 199.66 105.262 198.689 105.262 197.595C105.262 196.487 105.47 195.509 105.887 194.662C106.303 193.81 106.891 193.144 107.648 192.666C108.406 192.188 109.298 191.949 110.326 191.949C111.154 191.949 111.893 192.103 112.542 192.411C113.19 192.714 113.713 193.14 114.111 193.689C114.514 194.238 114.753 194.88 114.828 195.614H112.762C112.648 195.102 112.388 194.662 111.98 194.293C111.578 193.923 111.038 193.739 110.361 193.739C109.769 193.739 109.251 193.895 108.806 194.207C108.365 194.515 108.022 194.955 107.776 195.528C107.53 196.097 107.407 196.769 107.407 197.545C107.407 198.341 107.527 199.027 107.769 199.605C108.01 200.183 108.351 200.63 108.792 200.947C109.237 201.265 109.76 201.423 110.361 201.423C110.764 201.423 111.128 201.35 111.455 201.203C111.786 201.052 112.063 200.836 112.286 200.557C112.513 200.277 112.672 199.941 112.762 199.548H114.828C114.753 200.254 114.523 200.884 114.14 201.438C113.756 201.991 113.242 202.427 112.598 202.744C111.959 203.062 111.209 203.22 110.347 203.22ZM122.192 192.091V193.795H116.233V192.091H122.192ZM117.831 189.477H119.955V199.797C119.955 200.209 120.016 200.519 120.139 200.727C120.262 200.931 120.421 201.071 120.615 201.146C120.814 201.217 121.029 201.253 121.261 201.253C121.432 201.253 121.581 201.241 121.709 201.217C121.837 201.194 121.936 201.175 122.007 201.161L122.391 202.915C122.268 202.962 122.092 203.009 121.865 203.057C121.638 203.109 121.354 203.137 121.013 203.142C120.454 203.152 119.933 203.052 119.45 202.844C118.967 202.635 118.577 202.313 118.278 201.878C117.98 201.442 117.831 200.895 117.831 200.237V189.477ZM68.1293 227V212.455H77.1491V214.344H70.3239V218.776H76.5028V220.658H70.3239V227H68.1293ZM79.6776 227V216.091H81.8011V227H79.6776ZM80.75 214.408C80.3807 214.408 80.0634 214.285 79.7983 214.038C79.5379 213.787 79.4077 213.489 79.4077 213.143C79.4077 212.793 79.5379 212.495 79.7983 212.249C80.0634 211.998 80.3807 211.872 80.75 211.872C81.1193 211.872 81.4342 211.998 81.6946 212.249C81.9598 212.495 82.0923 212.793 82.0923 213.143C82.0923 213.489 81.9598 213.787 81.6946 214.038C81.4342 214.285 81.1193 214.408 80.75 214.408ZM86.7816 212.455V227H84.658V212.455H86.7816ZM91.7621 212.455V227H89.6385V212.455H91.7621ZM94.619 227V216.091H96.7425V227H94.619ZM95.6914 214.408C95.3221 214.408 95.0049 214.285 94.7397 214.038C94.4793 213.787 94.3491 213.489 94.3491 213.143C94.3491 212.793 94.4793 212.495 94.7397 212.249C95.0049 211.998 95.3221 211.872 95.6914 211.872C96.0607 211.872 96.3756 211.998 96.636 212.249C96.9012 212.495 97.0337 212.793 97.0337 213.143C97.0337 213.489 96.9012 213.787 96.636 214.038C96.3756 214.285 96.0607 214.408 95.6914 214.408ZM101.723 220.523V227H99.5994V216.091H101.638V217.866H101.773C102.024 217.289 102.417 216.825 102.952 216.474C103.491 216.124 104.171 215.949 104.99 215.949C105.733 215.949 106.384 216.105 106.943 216.418C107.502 216.725 107.935 217.185 108.243 217.795C108.551 218.406 108.705 219.161 108.705 220.061V227H106.581V220.317C106.581 219.526 106.375 218.908 105.963 218.463C105.551 218.013 104.985 217.788 104.266 217.788C103.773 217.788 103.335 217.895 102.952 218.108C102.573 218.321 102.272 218.634 102.05 219.045C101.832 219.453 101.723 219.945 101.723 220.523ZM116.126 231.318C115.26 231.318 114.514 231.205 113.889 230.977C113.269 230.75 112.762 230.449 112.369 230.075C111.976 229.701 111.683 229.292 111.489 228.847L113.314 228.094C113.442 228.302 113.612 228.522 113.825 228.754C114.043 228.991 114.337 229.192 114.706 229.358C115.08 229.524 115.561 229.607 116.148 229.607C116.953 229.607 117.618 229.41 118.143 229.017C118.669 228.629 118.932 228.009 118.932 227.156V225.011H118.797C118.669 225.243 118.484 225.501 118.243 225.786C118.006 226.07 117.679 226.316 117.263 226.524C116.846 226.732 116.304 226.837 115.636 226.837C114.775 226.837 113.998 226.635 113.307 226.233C112.62 225.826 112.076 225.227 111.673 224.436C111.276 223.641 111.077 222.663 111.077 221.503C111.077 220.343 111.273 219.348 111.666 218.52C112.064 217.691 112.608 217.057 113.3 216.616C113.991 216.171 114.775 215.949 115.651 215.949C116.328 215.949 116.875 216.062 117.291 216.29C117.708 216.512 118.032 216.773 118.264 217.071C118.501 217.369 118.683 217.632 118.811 217.859H118.967V216.091H121.048V227.241C121.048 228.179 120.83 228.948 120.395 229.55C119.959 230.151 119.37 230.596 118.626 230.885C117.888 231.174 117.054 231.318 116.126 231.318ZM116.105 225.075C116.716 225.075 117.232 224.933 117.653 224.649C118.08 224.36 118.402 223.948 118.619 223.413C118.842 222.874 118.953 222.227 118.953 221.474C118.953 220.741 118.844 220.094 118.626 219.536C118.409 218.977 118.089 218.541 117.668 218.229C117.246 217.911 116.725 217.753 116.105 217.753C115.466 217.753 114.933 217.919 114.507 218.25C114.081 218.577 113.759 219.022 113.541 219.585C113.328 220.149 113.222 220.778 113.222 221.474C113.222 222.189 113.33 222.817 113.548 223.357C113.766 223.896 114.088 224.318 114.514 224.621C114.945 224.924 115.475 225.075 116.105 225.075Z" fill="#212528"/>
</g>
<g filter="url(#filter2_d_140_824)">
<rect x="0.5" y="280" width="188" height="152" rx="16" fill="white" shape-rendering="crispEdges"/>
<rect x="1" y="280.5" width="187" height="151" rx="15.5" stroke="#212528" shape-rendering="crispEdges"/>
<path d="M94.5 347.5C96.7 347.5 98.5 345.7 98.5 343.5H90.5C90.5 345.7 92.3 347.5 94.5 347.5ZM106.5 335.5V325.5C106.5 319.36 103.24 314.22 97.5 312.86V311.5C97.5 309.84 96.16 308.5 94.5 308.5C92.84 308.5 91.5 309.84 91.5 311.5V312.86C85.78 314.22 82.5 319.34 82.5 325.5V335.5L78.5 339.5V341.5H110.5V339.5L106.5 335.5ZM102.5 337.5H86.5V325.5C86.5 320.54 89.52 316.5 94.5 316.5C99.48 316.5 102.5 320.54 102.5 325.5V337.5ZM85.66 311.66L82.8 308.8C78 312.46 74.84 318.1 74.56 324.5H78.56C78.86 319.2 81.58 314.56 85.66 311.66ZM110.44 324.5H114.44C114.14 318.1 110.98 312.46 106.2 308.8L103.36 311.66C107.4 314.56 110.14 319.2 110.44 324.5Z" fill="#F2800D"/>
<path d="M63.5154 366.344V364.455H74.7726V366.344H70.2342V379H68.0467V366.344H63.5154ZM77.0897 379V368.091H79.2132V379H77.0897ZM78.1621 366.408C77.7928 366.408 77.4756 366.285 77.2104 366.038C76.95 365.787 76.8198 365.489 76.8198 365.143C76.8198 364.793 76.95 364.495 77.2104 364.249C77.4756 363.998 77.7928 363.872 78.1621 363.872C78.5314 363.872 78.8463 363.998 79.1067 364.249C79.3719 364.495 79.5044 364.793 79.5044 365.143C79.5044 365.489 79.3719 365.787 79.1067 366.038C78.8463 366.285 78.5314 366.408 78.1621 366.408ZM82.0701 379V368.091H84.1085V369.866H84.2434C84.4707 369.265 84.8424 368.796 85.3585 368.46C85.8746 368.119 86.4925 367.949 87.2122 367.949C87.9413 367.949 88.5521 368.119 89.0446 368.46C89.5417 368.801 89.9087 369.27 90.1454 369.866H90.2591C90.5195 369.284 90.9338 368.82 91.502 368.474C92.0701 368.124 92.7472 367.949 93.5332 367.949C94.5228 367.949 95.3301 368.259 95.9551 368.879C96.5848 369.5 96.8997 370.435 96.8997 371.685V379H94.7761V371.884C94.7761 371.145 94.5749 370.61 94.1724 370.278C93.7699 369.947 93.2894 369.781 92.7306 369.781C92.0394 369.781 91.502 369.994 91.1184 370.42C90.7349 370.842 90.5431 371.384 90.5431 372.047V379H88.4267V371.749C88.4267 371.157 88.242 370.681 87.8727 370.321C87.5034 369.961 87.0228 369.781 86.4309 369.781C86.0285 369.781 85.6568 369.888 85.3159 370.101C84.9797 370.309 84.7074 370.6 84.4991 370.974C84.2955 371.348 84.1937 371.782 84.1937 372.274V379H82.0701ZM104.448 379.22C103.373 379.22 102.447 378.991 101.671 378.531C100.899 378.067 100.302 377.416 99.8809 376.578C99.4642 375.735 99.2559 374.748 99.2559 373.616C99.2559 372.499 99.4642 371.514 99.8809 370.662C100.302 369.81 100.889 369.144 101.642 368.666C102.4 368.188 103.285 367.949 104.298 367.949C104.914 367.949 105.511 368.051 106.088 368.254C106.666 368.458 107.184 368.777 107.644 369.213C108.103 369.649 108.465 370.214 108.73 370.911C108.995 371.602 109.128 372.442 109.128 373.432V374.185H100.456V372.594H107.047C107.047 372.035 106.933 371.54 106.706 371.109C106.479 370.674 106.159 370.33 105.747 370.08C105.34 369.829 104.862 369.703 104.313 369.703C103.716 369.703 103.195 369.85 102.75 370.143C102.31 370.432 101.969 370.811 101.727 371.28C101.491 371.744 101.372 372.248 101.372 372.793V374.036C101.372 374.765 101.5 375.385 101.756 375.896C102.016 376.408 102.378 376.798 102.843 377.068C103.307 377.333 103.849 377.466 104.469 377.466C104.871 377.466 105.238 377.409 105.57 377.295C105.901 377.177 106.188 377.002 106.429 376.77C106.671 376.538 106.855 376.251 106.983 375.911L108.993 376.273C108.832 376.865 108.543 377.383 108.127 377.828C107.715 378.268 107.196 378.612 106.571 378.858C105.951 379.099 105.243 379.22 104.448 379.22ZM113.608 364.455V379H111.484V364.455H113.608ZM117.807 383.091C117.49 383.091 117.201 383.065 116.941 383.013C116.68 382.965 116.486 382.913 116.358 382.857L116.869 381.116C117.258 381.221 117.603 381.266 117.906 381.251C118.209 381.237 118.477 381.124 118.709 380.911C118.946 380.697 119.154 380.349 119.334 379.866L119.597 379.142L115.605 368.091H117.878L120.641 376.557H120.754L123.517 368.091H125.797L121.301 380.456C121.093 381.024 120.828 381.505 120.506 381.898C120.184 382.295 119.8 382.594 119.355 382.793C118.91 382.991 118.394 383.091 117.807 383.091ZM47.008 388.455V403H44.9909L37.5975 392.332H37.4625V403H35.2679V388.455H37.2992L44.6998 399.136H44.8347V388.455H47.008ZM54.6341 403.22C53.6113 403.22 52.7188 402.986 51.9565 402.517C51.1942 402.048 50.6023 401.393 50.1809 400.55C49.7595 399.707 49.5488 398.722 49.5488 397.595C49.5488 396.464 49.7595 395.474 50.1809 394.626C50.6023 393.779 51.1942 393.121 51.9565 392.652C52.7188 392.183 53.6113 391.949 54.6341 391.949C55.6568 391.949 56.5493 392.183 57.3116 392.652C58.0739 393.121 58.6658 393.779 59.0872 394.626C59.5086 395.474 59.7193 396.464 59.7193 397.595C59.7193 398.722 59.5086 399.707 59.0872 400.55C58.6658 401.393 58.0739 402.048 57.3116 402.517C56.5493 402.986 55.6568 403.22 54.6341 403.22ZM54.6412 401.438C55.304 401.438 55.8533 401.262 56.2889 400.912C56.7245 400.562 57.0465 400.095 57.2548 399.513C57.4679 398.93 57.5744 398.289 57.5744 397.588C57.5744 396.892 57.4679 396.253 57.2548 395.67C57.0465 395.083 56.7245 394.612 56.2889 394.257C55.8533 393.902 55.304 393.724 54.6412 393.724C53.9735 393.724 53.4196 393.902 52.9792 394.257C52.5436 394.612 52.2193 395.083 52.0062 395.67C51.7979 396.253 51.6937 396.892 51.6937 397.588C51.6937 398.289 51.7979 398.93 52.0062 399.513C52.2193 400.095 52.5436 400.562 52.9792 400.912C53.4196 401.262 53.9735 401.438 54.6412 401.438ZM67.182 392.091V393.795H61.2232V392.091H67.182ZM62.8212 389.477H64.9448V399.797C64.9448 400.209 65.0063 400.519 65.1294 400.727C65.2525 400.931 65.4112 401.071 65.6053 401.146C65.8042 401.217 66.0196 401.253 66.2516 401.253C66.4221 401.253 66.5712 401.241 66.699 401.217C66.8269 401.194 66.9263 401.175 66.9973 401.161L67.3809 402.915C67.2578 402.962 67.0826 403.009 66.8553 403.057C66.628 403.109 66.3439 403.137 66.003 403.142C65.4443 403.152 64.9235 403.052 64.4405 402.844C63.9576 402.635 63.5669 402.313 63.2686 401.878C62.9703 401.442 62.8212 400.895 62.8212 400.237V389.477ZM69.5311 403V392.091H71.6547V403H69.5311ZM70.6035 390.408C70.2342 390.408 69.917 390.285 69.6518 390.038C69.3914 389.787 69.2612 389.489 69.2612 389.143C69.2612 388.793 69.3914 388.495 69.6518 388.249C69.917 387.998 70.2342 387.872 70.6035 387.872C70.9728 387.872 71.2877 387.998 71.5481 388.249C71.8133 388.495 71.9458 388.793 71.9458 389.143C71.9458 389.489 71.8133 389.787 71.5481 390.038C71.2877 390.285 70.9728 390.408 70.6035 390.408ZM79.7033 392.091V393.795H73.5385V392.091H79.7033ZM75.2289 403V390.827C75.2289 390.145 75.378 389.579 75.6763 389.129C75.9746 388.675 76.37 388.336 76.8624 388.114C77.3548 387.886 77.8899 387.773 78.4675 387.773C78.8936 387.773 79.2582 387.808 79.5613 387.879C79.8643 387.946 80.0892 388.007 80.236 388.064L79.7388 389.783C79.6394 389.754 79.5115 389.721 79.3553 389.683C79.199 389.641 79.0096 389.619 78.7871 389.619C78.271 389.619 77.9017 389.747 77.6792 390.003C77.4614 390.259 77.3525 390.628 77.3525 391.111V403H75.2289ZM81.8944 403V392.091H84.0179V403H81.8944ZM82.9668 390.408C82.5975 390.408 82.2802 390.285 82.0151 390.038C81.7547 389.787 81.6245 389.489 81.6245 389.143C81.6245 388.793 81.7547 388.495 82.0151 388.249C82.2802 387.998 82.5975 387.872 82.9668 387.872C83.3361 387.872 83.651 387.998 83.9114 388.249C84.1766 388.495 84.3091 388.793 84.3091 389.143C84.3091 389.489 84.1766 389.787 83.9114 390.038C83.651 390.285 83.3361 390.408 82.9668 390.408ZM91.47 403.22C90.4141 403.22 89.505 402.981 88.7427 402.503C87.9851 402.02 87.4028 401.355 86.9956 400.507C86.5884 399.66 86.3848 398.689 86.3848 397.595C86.3848 396.487 86.5931 395.509 87.0098 394.662C87.4264 393.81 88.0136 393.144 88.7711 392.666C89.5287 392.188 90.4212 391.949 91.4487 391.949C92.2773 391.949 93.0159 392.103 93.6646 392.411C94.3133 392.714 94.8365 393.14 95.2342 393.689C95.6367 394.238 95.8758 394.88 95.9515 395.614H93.8848C93.7711 395.102 93.5107 394.662 93.1035 394.293C92.7011 393.923 92.1613 393.739 91.4842 393.739C90.8923 393.739 90.3739 393.895 89.9288 394.207C89.4885 394.515 89.1452 394.955 88.899 395.528C88.6528 396.097 88.5297 396.769 88.5297 397.545C88.5297 398.341 88.6504 399.027 88.8919 399.605C89.1333 400.183 89.4743 400.63 89.9146 400.947C90.3597 401.265 90.8829 401.423 91.4842 401.423C91.8867 401.423 92.2512 401.35 92.5779 401.203C92.9094 401.052 93.1864 400.836 93.4089 400.557C93.6362 400.277 93.7948 399.941 93.8848 399.548H95.9515C95.8758 400.254 95.6461 400.884 95.2626 401.438C94.8791 401.991 94.3654 402.427 93.7214 402.744C93.0822 403.062 92.3317 403.22 91.47 403.22ZM101.397 403.241C100.706 403.241 100.081 403.114 99.5222 402.858C98.9635 402.598 98.5208 402.221 98.1941 401.729C97.8721 401.236 97.7111 400.633 97.7111 399.918C97.7111 399.302 97.8295 398.795 98.0662 398.398C98.303 398 98.6226 397.685 99.025 397.453C99.4275 397.221 99.8773 397.046 100.374 396.928C100.872 396.809 101.378 396.719 101.894 396.658C102.548 396.582 103.078 396.52 103.485 396.473C103.892 396.421 104.188 396.338 104.373 396.224C104.558 396.111 104.65 395.926 104.65 395.67V395.621C104.65 395 104.475 394.52 104.124 394.179C103.779 393.838 103.263 393.668 102.576 393.668C101.861 393.668 101.298 393.826 100.886 394.143C100.479 394.456 100.197 394.804 100.041 395.188L98.0449 394.733C98.2817 394.07 98.6273 393.535 99.0819 393.128C99.5411 392.716 100.069 392.418 100.666 392.233C101.262 392.044 101.89 391.949 102.548 391.949C102.983 391.949 103.445 392.001 103.933 392.105C104.425 392.205 104.884 392.389 105.311 392.659C105.741 392.929 106.094 393.315 106.369 393.817C106.643 394.314 106.781 394.96 106.781 395.756V403H104.707V401.509H104.622C104.484 401.783 104.278 402.053 104.004 402.318C103.729 402.583 103.376 402.804 102.945 402.979C102.515 403.154 101.999 403.241 101.397 403.241ZM101.859 401.537C102.446 401.537 102.948 401.421 103.365 401.189C103.786 400.957 104.106 400.654 104.323 400.28C104.546 399.901 104.657 399.496 104.657 399.065V397.659C104.581 397.735 104.435 397.806 104.217 397.872C104.004 397.934 103.76 397.988 103.485 398.036C103.211 398.078 102.943 398.118 102.683 398.156C102.422 398.189 102.204 398.218 102.029 398.241C101.617 398.294 101.241 398.381 100.9 398.504C100.564 398.627 100.294 398.805 100.09 399.037C99.8915 399.264 99.7921 399.567 99.7921 399.946C99.7921 400.472 99.9862 400.869 100.374 401.139C100.763 401.404 101.258 401.537 101.859 401.537ZM114.702 392.091V393.795H108.743V392.091H114.702ZM110.341 389.477H112.464V399.797C112.464 400.209 112.526 400.519 112.649 400.727C112.772 400.931 112.931 401.071 113.125 401.146C113.324 401.217 113.539 401.253 113.771 401.253C113.942 401.253 114.091 401.241 114.219 401.217C114.346 401.194 114.446 401.175 114.517 401.161L114.9 402.915C114.777 402.962 114.602 403.009 114.375 403.057C114.148 403.109 113.863 403.137 113.523 403.142C112.964 403.152 112.443 403.052 111.96 402.844C111.477 402.635 111.086 402.313 110.788 401.878C110.49 401.442 110.341 400.895 110.341 400.237V389.477ZM117.051 403V392.091H119.174V403H117.051ZM118.123 390.408C117.754 390.408 117.436 390.285 117.171 390.038C116.911 389.787 116.781 389.489 116.781 389.143C116.781 388.793 116.911 388.495 117.171 388.249C117.436 387.998 117.754 387.872 118.123 387.872C118.492 387.872 118.807 387.998 119.068 388.249C119.333 388.495 119.465 388.793 119.465 389.143C119.465 389.489 119.333 389.787 119.068 390.038C118.807 390.285 118.492 390.408 118.123 390.408ZM126.626 403.22C125.604 403.22 124.711 402.986 123.949 402.517C123.186 402.048 122.595 401.393 122.173 400.55C121.752 399.707 121.541 398.722 121.541 397.595C121.541 396.464 121.752 395.474 122.173 394.626C122.595 393.779 123.186 393.121 123.949 392.652C124.711 392.183 125.604 391.949 126.626 391.949C127.649 391.949 128.541 392.183 129.304 392.652C130.066 393.121 130.658 393.779 131.079 394.626C131.501 395.474 131.711 396.464 131.711 397.595C131.711 398.722 131.501 399.707 131.079 400.55C130.658 401.393 130.066 402.048 129.304 402.517C128.541 402.986 127.649 403.22 126.626 403.22ZM126.633 401.438C127.296 401.438 127.845 401.262 128.281 400.912C128.717 400.562 129.039 400.095 129.247 399.513C129.46 398.93 129.567 398.289 129.567 397.588C129.567 396.892 129.46 396.253 129.247 395.67C129.039 395.083 128.717 394.612 128.281 394.257C127.845 393.902 127.296 393.724 126.633 393.724C125.966 393.724 125.412 393.902 124.971 394.257C124.536 394.612 124.211 395.083 123.998 395.67C123.79 396.253 123.686 396.892 123.686 397.588C123.686 398.289 123.79 398.93 123.998 399.513C124.211 400.095 124.536 400.562 124.971 400.912C125.412 401.262 125.966 401.438 126.633 401.438ZM136.205 396.523V403H134.082V392.091H136.12V393.866H136.255C136.506 393.289 136.899 392.825 137.434 392.474C137.974 392.124 138.653 391.949 139.472 391.949C140.216 391.949 140.867 392.105 141.426 392.418C141.984 392.725 142.418 393.185 142.725 393.795C143.033 394.406 143.187 395.161 143.187 396.061V403H141.063V396.317C141.063 395.526 140.857 394.908 140.445 394.463C140.034 394.013 139.468 393.788 138.748 393.788C138.256 393.788 137.818 393.895 137.434 394.108C137.055 394.321 136.755 394.634 136.532 395.045C136.314 395.453 136.205 395.945 136.205 396.523ZM154.21 394.754L152.285 395.095C152.204 394.849 152.077 394.615 151.901 394.392C151.731 394.17 151.499 393.987 151.205 393.845C150.912 393.703 150.545 393.632 150.105 393.632C149.503 393.632 149.001 393.767 148.599 394.037C148.196 394.302 147.995 394.645 147.995 395.067C147.995 395.431 148.13 395.725 148.4 395.947C148.67 396.17 149.106 396.352 149.707 396.494L151.44 396.892C152.444 397.124 153.192 397.482 153.684 397.964C154.177 398.447 154.423 399.075 154.423 399.847C154.423 400.5 154.233 401.082 153.855 401.594C153.481 402.1 152.957 402.498 152.285 402.787C151.617 403.076 150.843 403.22 149.963 403.22C148.741 403.22 147.744 402.96 146.972 402.439C146.201 401.913 145.727 401.168 145.552 400.202L147.605 399.889C147.732 400.424 147.995 400.829 148.393 401.104C148.791 401.374 149.309 401.509 149.948 401.509C150.644 401.509 151.201 401.364 151.617 401.075C152.034 400.782 152.242 400.424 152.242 400.003C152.242 399.662 152.115 399.375 151.859 399.143C151.608 398.911 151.222 398.736 150.701 398.618L148.855 398.213C147.837 397.981 147.084 397.612 146.596 397.105C146.113 396.598 145.872 395.957 145.872 395.18C145.872 394.536 146.052 393.973 146.411 393.49C146.771 393.007 147.268 392.631 147.903 392.361C148.537 392.086 149.264 391.949 150.083 391.949C151.262 391.949 152.19 392.205 152.867 392.716C153.544 393.223 153.992 393.902 154.21 394.754Z" fill="#212528"/>
</g>
<g filter="url(#filter3_d_140_824)">
<rect x="212.5" y="104" width="188" height="152" rx="16" fill="white" shape-rendering="crispEdges"/>
<rect x="213" y="104.5" width="187" height="151" rx="15.5" stroke="#212528" shape-rendering="crispEdges"/>
<path d="M306.5 132C295.46 132 286.5 140.96 286.5 152C286.5 163.04 295.46 172 306.5 172C317.54 172 326.5 163.04 326.5 152C326.5 140.96 317.54 132 306.5 132ZM306.5 168C297.68 168 290.5 160.82 290.5 152C290.5 143.18 297.68 136 306.5 136C315.32 136 322.5 143.18 322.5 152C322.5 160.82 315.32 168 306.5 168ZM315.68 143.16L302.5 156.34L297.32 151.18L294.5 154L302.5 162L318.5 146L315.68 143.16Z" fill="#F2800D"/>
<path d="M287.5 188.455V203H285.298V190.656H285.213L281.733 192.929V190.827L285.362 188.455H287.5ZM296.498 203.241C295.376 203.237 294.417 202.941 293.622 202.354C292.826 201.767 292.218 200.912 291.797 199.79C291.375 198.668 291.164 197.316 291.164 195.734C291.164 194.158 291.375 192.811 291.797 191.693C292.223 190.576 292.833 189.723 293.629 189.136C294.429 188.549 295.386 188.256 296.498 188.256C297.611 188.256 298.565 188.552 299.36 189.143C300.156 189.731 300.764 190.583 301.186 191.7C301.612 192.813 301.825 194.158 301.825 195.734C301.825 197.321 301.614 198.675 301.193 199.797C300.771 200.914 300.163 201.769 299.368 202.361C298.572 202.948 297.616 203.241 296.498 203.241ZM296.498 201.345C297.483 201.345 298.252 200.865 298.806 199.903C299.365 198.942 299.645 197.553 299.645 195.734C299.645 194.527 299.517 193.507 299.261 192.673C299.01 191.835 298.648 191.201 298.174 190.77C297.706 190.334 297.147 190.116 296.498 190.116C295.518 190.116 294.749 190.599 294.19 191.565C293.631 192.531 293.35 193.921 293.345 195.734C293.345 196.946 293.47 197.972 293.721 198.81C293.977 199.643 294.339 200.275 294.808 200.706C295.277 201.132 295.84 201.345 296.498 201.345ZM309.408 203.241C308.286 203.237 307.327 202.941 306.532 202.354C305.737 201.767 305.128 200.912 304.707 199.79C304.285 198.668 304.075 197.316 304.075 195.734C304.075 194.158 304.285 192.811 304.707 191.693C305.133 190.576 305.744 189.723 306.539 189.136C307.339 188.549 308.296 188.256 309.408 188.256C310.521 188.256 311.475 188.552 312.271 189.143C313.066 189.731 313.674 190.583 314.096 191.7C314.522 192.813 314.735 194.158 314.735 195.734C314.735 197.321 314.524 198.675 314.103 199.797C313.682 200.914 313.073 201.769 312.278 202.361C311.482 202.948 310.526 203.241 309.408 203.241ZM309.408 201.345C310.393 201.345 311.163 200.865 311.717 199.903C312.275 198.942 312.555 197.553 312.555 195.734C312.555 194.527 312.427 193.507 312.171 192.673C311.92 191.835 311.558 191.201 311.085 190.77C310.616 190.334 310.057 190.116 309.408 190.116C308.428 190.116 307.659 190.599 307.1 191.565C306.541 192.531 306.26 193.921 306.255 195.734C306.255 196.946 306.38 197.972 306.631 198.81C306.887 199.643 307.249 200.275 307.718 200.706C308.187 201.132 308.75 201.345 309.408 201.345ZM324.847 200.273V199.506C324.847 198.956 324.961 198.455 325.188 198C325.42 197.541 325.756 197.174 326.196 196.899C326.641 196.62 327.179 196.48 327.809 196.48C328.453 196.48 328.992 196.617 329.428 196.892C329.864 197.167 330.193 197.534 330.415 197.993C330.642 198.452 330.756 198.956 330.756 199.506V200.273C330.756 200.822 330.642 201.326 330.415 201.786C330.188 202.24 329.854 202.607 329.414 202.886C328.978 203.161 328.443 203.298 327.809 203.298C327.169 203.298 326.63 203.161 326.189 202.886C325.749 202.607 325.415 202.24 325.188 201.786C324.961 201.326 324.847 200.822 324.847 200.273ZM326.502 199.506V200.273C326.502 200.68 326.599 201.049 326.793 201.381C326.987 201.712 327.326 201.878 327.809 201.878C328.287 201.878 328.621 201.712 328.81 201.381C328.999 201.049 329.094 200.68 329.094 200.273V199.506C329.094 199.098 329.002 198.729 328.817 198.398C328.637 198.066 328.301 197.901 327.809 197.901C327.335 197.901 326.999 198.066 326.8 198.398C326.601 198.729 326.502 199.098 326.502 199.506ZM317.532 191.949V191.182C317.532 190.633 317.645 190.128 317.873 189.669C318.105 189.21 318.441 188.843 318.881 188.568C319.326 188.294 319.864 188.156 320.493 188.156C321.137 188.156 321.677 188.294 322.113 188.568C322.548 188.843 322.877 189.21 323.1 189.669C323.322 190.128 323.434 190.633 323.434 191.182V191.949C323.434 192.498 323.32 193.002 323.093 193.462C322.87 193.916 322.539 194.283 322.098 194.562C321.663 194.837 321.128 194.974 320.493 194.974C319.849 194.974 319.307 194.837 318.867 194.562C318.431 194.283 318.1 193.916 317.873 193.462C317.645 193.002 317.532 192.498 317.532 191.949ZM319.194 191.182V191.949C319.194 192.356 319.288 192.725 319.478 193.057C319.672 193.388 320.01 193.554 320.493 193.554C320.967 193.554 321.298 193.388 321.488 193.057C321.682 192.725 321.779 192.356 321.779 191.949V191.182C321.779 190.775 321.686 190.405 321.502 190.074C321.317 189.742 320.981 189.577 320.493 189.577C320.02 189.577 319.684 189.742 319.485 190.074C319.291 190.405 319.194 190.775 319.194 191.182ZM318.206 203L328.206 188.455H329.904L319.904 203H318.206ZM266.104 227H263.775L269.009 212.455H271.544L276.779 227H274.449L270.337 215.097H270.223L266.104 227ZM266.495 221.304H274.051V223.151H266.495V221.304ZM283.128 227.22C282.072 227.22 281.163 226.981 280.401 226.503C279.643 226.02 279.061 225.355 278.654 224.507C278.247 223.66 278.043 222.689 278.043 221.595C278.043 220.487 278.251 219.509 278.668 218.662C279.085 217.81 279.672 217.144 280.429 216.666C281.187 216.188 282.079 215.949 283.107 215.949C283.935 215.949 284.674 216.103 285.323 216.411C285.971 216.714 286.495 217.14 286.892 217.689C287.295 218.238 287.534 218.88 287.61 219.614H285.543C285.429 219.102 285.169 218.662 284.762 218.293C284.359 217.923 283.819 217.739 283.142 217.739C282.551 217.739 282.032 217.895 281.587 218.207C281.147 218.515 280.803 218.955 280.557 219.528C280.311 220.097 280.188 220.769 280.188 221.545C280.188 222.341 280.309 223.027 280.55 223.605C280.792 224.183 281.132 224.63 281.573 224.947C282.018 225.265 282.541 225.423 283.142 225.423C283.545 225.423 283.909 225.35 284.236 225.203C284.568 225.052 284.845 224.836 285.067 224.557C285.294 224.277 285.453 223.941 285.543 223.548H287.61C287.534 224.254 287.304 224.884 286.921 225.438C286.537 225.991 286.024 226.427 285.38 226.744C284.74 227.062 283.99 227.22 283.128 227.22ZM294.476 227.22C293.42 227.22 292.511 226.981 291.749 226.503C290.991 226.02 290.409 225.355 290.001 224.507C289.594 223.66 289.391 222.689 289.391 221.595C289.391 220.487 289.599 219.509 290.016 218.662C290.432 217.81 291.019 217.144 291.777 216.666C292.535 216.188 293.427 215.949 294.455 215.949C295.283 215.949 296.022 216.103 296.67 216.411C297.319 216.714 297.842 217.14 298.24 217.689C298.643 218.238 298.882 218.88 298.957 219.614H296.891C296.777 219.102 296.517 218.662 296.109 218.293C295.707 217.923 295.167 217.739 294.49 217.739C293.898 217.739 293.38 217.895 292.935 218.207C292.494 218.515 292.151 218.955 291.905 219.528C291.659 220.097 291.536 220.769 291.536 221.545C291.536 222.341 291.656 223.027 291.898 223.605C292.139 224.183 292.48 224.63 292.92 224.947C293.366 225.265 293.889 225.423 294.49 225.423C294.893 225.423 295.257 225.35 295.584 225.203C295.915 225.052 296.192 224.836 296.415 224.557C296.642 224.277 296.801 223.941 296.891 223.548H298.957C298.882 224.254 298.652 224.884 298.268 225.438C297.885 225.991 297.371 226.427 296.727 226.744C296.088 227.062 295.338 227.22 294.476 227.22ZM308.139 222.476V216.091H310.27V227H308.181V225.111H308.068C307.817 225.693 307.414 226.179 306.86 226.567C306.311 226.95 305.627 227.142 304.808 227.142C304.107 227.142 303.487 226.988 302.947 226.68C302.412 226.368 301.991 225.906 301.683 225.295C301.38 224.685 301.228 223.929 301.228 223.03V216.091H303.352V222.774C303.352 223.518 303.558 224.109 303.97 224.55C304.382 224.99 304.917 225.21 305.575 225.21C305.973 225.21 306.368 225.111 306.761 224.912C307.159 224.713 307.488 224.412 307.748 224.01C308.013 223.607 308.144 223.096 308.139 222.476ZM313.123 227V216.091H315.175V217.824H315.289C315.488 217.237 315.838 216.775 316.34 216.439C316.847 216.098 317.42 215.928 318.059 215.928C318.192 215.928 318.348 215.932 318.528 215.942C318.712 215.951 318.857 215.963 318.961 215.977V218.009C318.876 217.985 318.724 217.959 318.506 217.93C318.289 217.897 318.071 217.881 317.853 217.881C317.351 217.881 316.904 217.987 316.511 218.2C316.122 218.409 315.815 218.7 315.587 219.074C315.36 219.443 315.246 219.865 315.246 220.338V227H313.123ZM323.876 227.241C323.184 227.241 322.559 227.114 322.001 226.858C321.442 226.598 320.999 226.221 320.673 225.729C320.351 225.236 320.19 224.633 320.19 223.918C320.19 223.302 320.308 222.795 320.545 222.398C320.781 222 321.101 221.685 321.504 221.453C321.906 221.221 322.356 221.046 322.853 220.928C323.35 220.809 323.857 220.719 324.373 220.658C325.026 220.582 325.557 220.52 325.964 220.473C326.371 220.421 326.667 220.338 326.852 220.224C327.036 220.111 327.129 219.926 327.129 219.67V219.621C327.129 219 326.953 218.52 326.603 218.179C326.257 217.838 325.741 217.668 325.055 217.668C324.34 217.668 323.776 217.826 323.364 218.143C322.957 218.456 322.675 218.804 322.519 219.188L320.523 218.733C320.76 218.07 321.106 217.535 321.56 217.128C322.02 216.716 322.548 216.418 323.144 216.233C323.741 216.044 324.368 215.949 325.026 215.949C325.462 215.949 325.924 216.001 326.411 216.105C326.904 216.205 327.363 216.389 327.789 216.659C328.22 216.929 328.573 217.315 328.847 217.817C329.122 218.314 329.259 218.96 329.259 219.756V227H327.185V225.509H327.1C326.963 225.783 326.757 226.053 326.482 226.318C326.208 226.583 325.855 226.804 325.424 226.979C324.993 227.154 324.477 227.241 323.876 227.241ZM324.337 225.537C324.924 225.537 325.426 225.421 325.843 225.189C326.264 224.957 326.584 224.654 326.802 224.28C327.024 223.901 327.136 223.496 327.136 223.065V221.659C327.06 221.735 326.913 221.806 326.695 221.872C326.482 221.934 326.238 221.988 325.964 222.036C325.689 222.078 325.422 222.118 325.161 222.156C324.901 222.189 324.683 222.218 324.508 222.241C324.096 222.294 323.719 222.381 323.379 222.504C323.042 222.627 322.772 222.805 322.569 223.037C322.37 223.264 322.271 223.567 322.271 223.946C322.271 224.472 322.465 224.869 322.853 225.139C323.241 225.404 323.736 225.537 324.337 225.537ZM337.18 216.091V217.795H331.221V216.091H337.18ZM332.819 213.477H334.943V223.797C334.943 224.209 335.004 224.519 335.127 224.727C335.251 224.931 335.409 225.071 335.603 225.146C335.802 225.217 336.018 225.253 336.25 225.253C336.42 225.253 336.569 225.241 336.697 225.217C336.825 225.194 336.924 225.175 336.995 225.161L337.379 226.915C337.256 226.962 337.081 227.009 336.853 227.057C336.626 227.109 336.342 227.137 336.001 227.142C335.442 227.152 334.922 227.052 334.439 226.844C333.956 226.635 333.565 226.313 333.267 225.878C332.968 225.442 332.819 224.895 332.819 224.237V213.477ZM344.114 227.22C343.039 227.22 342.113 226.991 341.337 226.531C340.565 226.067 339.968 225.416 339.547 224.578C339.13 223.735 338.922 222.748 338.922 221.616C338.922 220.499 339.13 219.514 339.547 218.662C339.968 217.81 340.555 217.144 341.308 216.666C342.066 216.188 342.951 215.949 343.964 215.949C344.58 215.949 345.177 216.051 345.754 216.254C346.332 216.458 346.85 216.777 347.31 217.213C347.769 217.649 348.131 218.214 348.396 218.911C348.661 219.602 348.794 220.442 348.794 221.432V222.185H340.122V220.594H346.713C346.713 220.035 346.599 219.54 346.372 219.109C346.145 218.674 345.825 218.33 345.413 218.08C345.006 217.829 344.528 217.703 343.979 217.703C343.382 217.703 342.861 217.85 342.416 218.143C341.976 218.432 341.635 218.811 341.393 219.28C341.157 219.744 341.038 220.248 341.038 220.793V222.036C341.038 222.765 341.166 223.385 341.422 223.896C341.682 224.408 342.045 224.798 342.509 225.068C342.973 225.333 343.515 225.466 344.135 225.466C344.537 225.466 344.904 225.409 345.236 225.295C345.567 225.177 345.854 225.002 346.095 224.77C346.337 224.538 346.521 224.251 346.649 223.911L348.659 224.273C348.498 224.865 348.209 225.383 347.793 225.828C347.381 226.268 346.862 226.612 346.237 226.858C345.617 227.099 344.909 227.22 344.114 227.22Z" fill="#212528"/>
</g>
<g filter="url(#filter4_d_140_824)">
<rect x="212.5" y="280" width="188" height="152" rx="16" fill="white" shape-rendering="crispEdges"/>
<rect x="213" y="280.5" width="187" height="151" rx="15.5" stroke="#212528" shape-rendering="crispEdges"/>
<path d="M306.5 308L290.5 314V326.18C290.5 336.28 297.32 345.7 306.5 348C315.68 345.7 322.5 336.28 322.5 326.18V314L306.5 308ZM318.5 326.18C318.5 334.18 313.4 341.58 306.5 343.84C299.6 341.58 294.5 334.2 294.5 326.18V316.62L306.5 312.38L318.5 316.62V326.18ZM300.14 325.18L297.3 328L304.38 335.08L315.7 323.76L312.88 320.94L304.4 329.42L300.14 325.18Z" fill="#0080FF"/>
<path d="M273.434 368.276C273.358 367.603 273.045 367.082 272.496 366.713C271.947 366.339 271.256 366.152 270.422 366.152C269.826 366.152 269.31 366.247 268.874 366.436C268.438 366.621 268.1 366.876 267.858 367.203C267.622 367.525 267.503 367.892 267.503 368.304C267.503 368.65 267.584 368.948 267.745 369.199C267.91 369.45 268.126 369.661 268.391 369.831C268.661 369.997 268.95 370.136 269.257 370.25C269.565 370.359 269.861 370.449 270.145 370.52L271.566 370.889C272.03 371.003 272.506 371.157 272.993 371.351C273.481 371.545 273.933 371.801 274.35 372.118C274.766 372.435 275.103 372.828 275.358 373.297C275.619 373.766 275.749 374.327 275.749 374.98C275.749 375.804 275.536 376.536 275.11 377.175C274.688 377.814 274.075 378.318 273.27 378.688C272.47 379.057 271.502 379.241 270.365 379.241C269.276 379.241 268.334 379.069 267.539 378.723C266.743 378.377 266.121 377.887 265.671 377.253C265.221 376.614 264.972 375.856 264.925 374.98H267.127C267.169 375.506 267.34 375.944 267.638 376.294C267.941 376.64 268.327 376.898 268.796 377.068C269.269 377.234 269.788 377.317 270.351 377.317C270.971 377.317 271.523 377.22 272.006 377.026C272.494 376.827 272.877 376.552 273.157 376.202C273.436 375.847 273.576 375.432 273.576 374.959C273.576 374.528 273.453 374.175 273.206 373.901C272.965 373.626 272.636 373.399 272.219 373.219C271.807 373.039 271.341 372.88 270.82 372.743L269.101 372.274C267.936 371.957 267.013 371.491 266.331 370.875C265.654 370.259 265.316 369.445 265.316 368.432C265.316 367.594 265.543 366.862 265.998 366.237C266.452 365.612 267.068 365.127 267.844 364.781C268.621 364.431 269.497 364.256 270.472 364.256C271.457 364.256 272.326 364.429 273.078 364.774C273.836 365.12 274.433 365.596 274.868 366.202C275.304 366.803 275.531 367.494 275.55 368.276H273.434ZM282.903 379.22C281.828 379.22 280.902 378.991 280.126 378.531C279.354 378.067 278.757 377.416 278.336 376.578C277.919 375.735 277.711 374.748 277.711 373.616C277.711 372.499 277.919 371.514 278.336 370.662C278.757 369.81 279.344 369.144 280.097 368.666C280.855 368.188 281.74 367.949 282.754 367.949C283.369 367.949 283.966 368.051 284.543 368.254C285.121 368.458 285.639 368.777 286.099 369.213C286.558 369.649 286.92 370.214 287.185 370.911C287.451 371.602 287.583 372.442 287.583 373.432V374.185H278.911V372.594H285.502C285.502 372.035 285.388 371.54 285.161 371.109C284.934 370.674 284.614 370.33 284.202 370.08C283.795 369.829 283.317 369.703 282.768 369.703C282.171 369.703 281.65 369.85 281.205 370.143C280.765 370.432 280.424 370.811 280.183 371.28C279.946 371.744 279.827 372.248 279.827 372.793V374.036C279.827 374.765 279.955 375.385 280.211 375.896C280.471 376.408 280.834 376.798 281.298 377.068C281.762 377.333 282.304 377.466 282.924 377.466C283.326 377.466 283.693 377.409 284.025 377.295C284.356 377.177 284.643 377.002 284.884 376.77C285.126 376.538 285.31 376.251 285.438 375.911L287.448 376.273C287.287 376.865 286.998 377.383 286.582 377.828C286.17 378.268 285.651 378.612 285.026 378.858C284.406 379.099 283.698 379.22 282.903 379.22ZM294.534 379.22C293.479 379.22 292.569 378.981 291.807 378.503C291.05 378.02 290.467 377.355 290.06 376.507C289.653 375.66 289.449 374.689 289.449 373.595C289.449 372.487 289.658 371.509 290.074 370.662C290.491 369.81 291.078 369.144 291.836 368.666C292.593 368.188 293.486 367.949 294.513 367.949C295.342 367.949 296.08 368.103 296.729 368.411C297.378 368.714 297.901 369.14 298.299 369.689C298.701 370.238 298.94 370.88 299.016 371.614H296.949C296.836 371.102 296.575 370.662 296.168 370.293C295.766 369.923 295.226 369.739 294.549 369.739C293.957 369.739 293.438 369.895 292.993 370.207C292.553 370.515 292.21 370.955 291.963 371.528C291.717 372.097 291.594 372.769 291.594 373.545C291.594 374.341 291.715 375.027 291.956 375.605C292.198 376.183 292.539 376.63 292.979 376.947C293.424 377.265 293.947 377.423 294.549 377.423C294.951 377.423 295.316 377.35 295.642 377.203C295.974 377.052 296.251 376.836 296.473 376.557C296.701 376.277 296.859 375.941 296.949 375.548H299.016C298.94 376.254 298.711 376.884 298.327 377.438C297.944 377.991 297.43 378.427 296.786 378.744C296.147 379.062 295.396 379.22 294.534 379.22ZM308.197 374.476V368.091H310.328V379H308.24V377.111H308.126C307.875 377.693 307.473 378.179 306.919 378.567C306.37 378.95 305.686 379.142 304.866 379.142C304.166 379.142 303.545 378.988 303.006 378.68C302.471 378.368 302.049 377.906 301.741 377.295C301.438 376.685 301.287 375.929 301.287 375.03V368.091H303.411V374.774C303.411 375.518 303.616 376.109 304.028 376.55C304.44 376.99 304.975 377.21 305.634 377.21C306.031 377.21 306.427 377.111 306.82 376.912C307.217 376.713 307.546 376.412 307.807 376.01C308.072 375.607 308.202 375.096 308.197 374.476ZM313.181 379V368.091H315.234V369.824H315.348C315.547 369.237 315.897 368.775 316.399 368.439C316.905 368.098 317.478 367.928 318.118 367.928C318.25 367.928 318.406 367.932 318.586 367.942C318.771 367.951 318.915 367.963 319.02 367.977V370.009C318.934 369.985 318.783 369.959 318.565 369.93C318.347 369.897 318.129 369.881 317.912 369.881C317.41 369.881 316.962 369.987 316.569 370.2C316.181 370.409 315.873 370.7 315.646 371.074C315.419 371.443 315.305 371.865 315.305 372.338V379H313.181ZM325.168 379.22C324.094 379.22 323.168 378.991 322.391 378.531C321.62 378.067 321.023 377.416 320.602 376.578C320.185 375.735 319.977 374.748 319.977 373.616C319.977 372.499 320.185 371.514 320.602 370.662C321.023 369.81 321.61 369.144 322.363 368.666C323.121 368.188 324.006 367.949 325.019 367.949C325.635 367.949 326.231 368.051 326.809 368.254C327.387 368.458 327.905 368.777 328.364 369.213C328.824 369.649 329.186 370.214 329.451 370.911C329.716 371.602 329.849 372.442 329.849 373.432V374.185H321.177V372.594H327.768C327.768 372.035 327.654 371.54 327.427 371.109C327.2 370.674 326.88 370.33 326.468 370.08C326.061 369.829 325.583 369.703 325.033 369.703C324.437 369.703 323.916 369.85 323.471 370.143C323.031 370.432 322.69 370.811 322.448 371.28C322.211 371.744 322.093 372.248 322.093 372.793V374.036C322.093 374.765 322.221 375.385 322.477 375.896C322.737 376.408 323.099 376.798 323.563 377.068C324.027 377.333 324.569 377.466 325.19 377.466C325.592 377.466 325.959 377.409 326.29 377.295C326.622 377.177 326.908 377.002 327.15 376.77C327.391 376.538 327.576 376.251 327.704 375.911L329.714 376.273C329.553 376.865 329.264 377.383 328.847 377.828C328.435 378.268 327.917 378.612 327.292 378.858C326.672 379.099 325.964 379.22 325.168 379.22ZM341.731 379.206C340.755 379.206 339.915 379.028 339.21 378.673C338.509 378.318 337.969 377.835 337.59 377.224C337.211 376.609 337.022 375.913 337.022 375.136C337.022 374.545 337.145 374.019 337.391 373.56C337.638 373.096 337.981 372.667 338.421 372.274C338.862 371.881 339.371 371.486 339.948 371.088L342.292 369.433C342.69 369.173 343 368.898 343.222 368.609C343.445 368.316 343.556 367.954 343.556 367.523C343.556 367.182 343.409 366.855 343.116 366.543C342.822 366.23 342.429 366.074 341.937 366.074C341.596 366.074 341.295 366.157 341.035 366.322C340.779 366.488 340.578 366.701 340.431 366.962C340.289 367.217 340.218 367.487 340.218 367.771C340.218 368.103 340.308 368.437 340.488 368.773C340.673 369.109 340.909 369.457 341.198 369.817C341.487 370.172 341.79 370.541 342.107 370.925L348.862 379H346.461L340.871 372.43C340.403 371.876 339.967 371.356 339.565 370.868C339.162 370.375 338.835 369.878 338.585 369.376C338.338 368.87 338.215 368.323 338.215 367.736C338.215 367.068 338.367 366.476 338.67 365.96C338.978 365.439 339.406 365.032 339.955 364.739C340.504 364.445 341.148 364.298 341.887 364.298C342.635 364.298 343.277 364.445 343.812 364.739C344.352 365.027 344.766 365.413 345.055 365.896C345.348 366.375 345.495 366.898 345.495 367.466C345.495 368.157 345.322 368.768 344.977 369.298C344.636 369.824 344.165 370.307 343.563 370.747L340.644 372.899C340.076 373.316 339.681 373.728 339.458 374.135C339.24 374.537 339.131 374.852 339.131 375.08C339.131 375.496 339.238 375.882 339.451 376.237C339.669 376.592 339.972 376.876 340.36 377.089C340.753 377.303 341.212 377.409 341.738 377.409C342.278 377.409 342.803 377.293 343.315 377.061C343.831 376.824 344.297 376.486 344.714 376.045C345.135 375.605 345.469 375.077 345.715 374.462C345.961 373.846 346.085 373.157 346.085 372.395H348.002C348.002 373.332 347.896 374.125 347.683 374.774C347.469 375.418 347.211 375.944 346.908 376.351C346.61 376.753 346.328 377.068 346.063 377.295C345.978 377.371 345.897 377.447 345.822 377.523C345.746 377.598 345.665 377.674 345.58 377.75C345.088 378.247 344.491 378.614 343.79 378.851C343.094 379.088 342.408 379.206 341.731 379.206ZM270.559 403V388.455H275.744C276.871 388.455 277.806 388.649 278.549 389.037C279.297 389.425 279.856 389.963 280.225 390.649C280.594 391.331 280.779 392.119 280.779 393.014C280.779 393.904 280.592 394.688 280.218 395.365C279.849 396.037 279.29 396.561 278.542 396.935C277.799 397.309 276.863 397.496 275.737 397.496H271.809V395.607H275.538C276.248 395.607 276.826 395.505 277.271 395.301C277.72 395.098 278.049 394.802 278.258 394.413C278.466 394.025 278.57 393.559 278.57 393.014C278.57 392.465 278.464 391.989 278.251 391.587C278.042 391.184 277.713 390.876 277.263 390.663C276.818 390.446 276.234 390.337 275.509 390.337H272.754V403H270.559ZM277.739 396.438L281.333 403H278.833L275.31 396.438H277.739ZM287.844 403.22C286.769 403.22 285.844 402.991 285.067 402.531C284.295 402.067 283.699 401.416 283.277 400.578C282.861 399.735 282.652 398.748 282.652 397.616C282.652 396.499 282.861 395.514 283.277 394.662C283.699 393.81 284.286 393.144 285.039 392.666C285.796 392.188 286.682 391.949 287.695 391.949C288.31 391.949 288.907 392.051 289.485 392.254C290.062 392.458 290.581 392.777 291.04 393.213C291.499 393.649 291.862 394.214 292.127 394.911C292.392 395.602 292.525 396.442 292.525 397.432V398.185H283.853V396.594H290.444C290.444 396.035 290.33 395.54 290.103 395.109C289.875 394.674 289.556 394.33 289.144 394.08C288.737 393.829 288.258 393.703 287.709 393.703C287.113 393.703 286.592 393.85 286.147 394.143C285.706 394.432 285.365 394.811 285.124 395.28C284.887 395.744 284.769 396.248 284.769 396.793V398.036C284.769 398.765 284.897 399.385 285.152 399.896C285.413 400.408 285.775 400.798 286.239 401.068C286.703 401.333 287.245 401.466 287.865 401.466C288.268 401.466 288.635 401.409 288.966 401.295C289.298 401.177 289.584 401.002 289.826 400.77C290.067 400.538 290.252 400.251 290.38 399.911L292.39 400.273C292.229 400.865 291.94 401.383 291.523 401.828C291.111 402.268 290.593 402.612 289.968 402.858C289.347 403.099 288.64 403.22 287.844 403.22ZM297.004 388.455V403H294.881V388.455H297.004ZM299.861 403V392.091H301.985V403H299.861ZM300.934 390.408C300.564 390.408 300.247 390.285 299.982 390.038C299.721 389.787 299.591 389.489 299.591 389.143C299.591 388.793 299.721 388.495 299.982 388.249C300.247 387.998 300.564 387.872 300.934 387.872C301.303 387.872 301.618 387.998 301.878 388.249C302.143 388.495 302.276 388.793 302.276 389.143C302.276 389.489 302.143 389.787 301.878 390.038C301.618 390.285 301.303 390.408 300.934 390.408ZM308.016 403.241C307.325 403.241 306.7 403.114 306.141 402.858C305.583 402.598 305.14 402.221 304.813 401.729C304.491 401.236 304.33 400.633 304.33 399.918C304.33 399.302 304.449 398.795 304.685 398.398C304.922 398 305.242 397.685 305.644 397.453C306.047 397.221 306.496 397.046 306.994 396.928C307.491 396.809 307.997 396.719 308.513 396.658C309.167 396.582 309.697 396.52 310.104 396.473C310.512 396.421 310.808 396.338 310.992 396.224C311.177 396.111 311.269 395.926 311.269 395.67V395.621C311.269 395 311.094 394.52 310.744 394.179C310.398 393.838 309.882 393.668 309.195 393.668C308.48 393.668 307.917 393.826 307.505 394.143C307.098 394.456 306.816 394.804 306.66 395.188L304.664 394.733C304.901 394.07 305.246 393.535 305.701 393.128C306.16 392.716 306.688 392.418 307.285 392.233C307.881 392.044 308.509 391.949 309.167 391.949C309.603 391.949 310.064 392.001 310.552 392.105C311.044 392.205 311.504 392.389 311.93 392.659C312.361 392.929 312.713 393.315 312.988 393.817C313.263 394.314 313.4 394.96 313.4 395.756V403H311.326V401.509H311.241C311.103 401.783 310.897 402.053 310.623 402.318C310.348 402.583 309.996 402.804 309.565 402.979C309.134 403.154 308.618 403.241 308.016 403.241ZM308.478 401.537C309.065 401.537 309.567 401.421 309.984 401.189C310.405 400.957 310.725 400.654 310.942 400.28C311.165 399.901 311.276 399.496 311.276 399.065V397.659C311.201 397.735 311.054 397.806 310.836 397.872C310.623 397.934 310.379 397.988 310.104 398.036C309.83 398.078 309.562 398.118 309.302 398.156C309.041 398.189 308.824 398.218 308.648 398.241C308.237 398.294 307.86 398.381 307.519 398.504C307.183 398.627 306.913 398.805 306.71 399.037C306.511 399.264 306.411 399.567 306.411 399.946C306.411 400.472 306.605 400.869 306.994 401.139C307.382 401.404 307.877 401.537 308.478 401.537ZM316.399 403V388.455H318.522V393.859H318.65C318.773 393.632 318.951 393.369 319.183 393.071C319.415 392.773 319.737 392.512 320.149 392.29C320.561 392.062 321.105 391.949 321.782 391.949C322.663 391.949 323.449 392.171 324.14 392.616C324.832 393.062 325.374 393.703 325.767 394.541C326.164 395.379 326.363 396.388 326.363 397.567C326.363 398.746 326.167 399.757 325.774 400.599C325.381 401.437 324.841 402.084 324.154 402.538C323.468 402.988 322.684 403.213 321.804 403.213C321.141 403.213 320.599 403.102 320.177 402.879C319.761 402.657 319.434 402.396 319.197 402.098C318.96 401.8 318.778 401.535 318.65 401.303H318.473V403H316.399ZM318.48 397.545C318.48 398.312 318.591 398.985 318.814 399.562C319.036 400.14 319.358 400.592 319.779 400.919C320.201 401.241 320.717 401.402 321.328 401.402C321.962 401.402 322.493 401.234 322.919 400.898C323.345 400.557 323.667 400.095 323.885 399.513C324.107 398.93 324.218 398.275 324.218 397.545C324.218 396.826 324.109 396.179 323.892 395.607C323.679 395.034 323.357 394.581 322.926 394.25C322.5 393.919 321.967 393.753 321.328 393.753C320.712 393.753 320.191 393.911 319.765 394.229C319.344 394.546 319.024 394.989 318.806 395.557C318.589 396.125 318.48 396.788 318.48 397.545ZM330.871 388.455V403H328.748V388.455H330.871ZM338.43 403.22C337.355 403.22 336.43 402.991 335.653 402.531C334.881 402.067 334.285 401.416 333.863 400.578C333.447 399.735 333.238 398.748 333.238 397.616C333.238 396.499 333.447 395.514 333.863 394.662C334.285 393.81 334.872 393.144 335.625 392.666C336.382 392.188 337.268 391.949 338.281 391.949C338.896 391.949 339.493 392.051 340.071 392.254C340.648 392.458 341.167 392.777 341.626 393.213C342.085 393.649 342.448 394.214 342.713 394.911C342.978 395.602 343.11 396.442 343.11 397.432V398.185H334.439V396.594H341.029C341.029 396.035 340.916 395.54 340.689 395.109C340.461 394.674 340.142 394.33 339.73 394.08C339.323 393.829 338.844 393.703 338.295 393.703C337.699 393.703 337.178 393.85 336.733 394.143C336.292 394.432 335.951 394.811 335.71 395.28C335.473 395.744 335.355 396.248 335.355 396.793V398.036C335.355 398.765 335.483 399.385 335.738 399.896C335.999 400.408 336.361 400.798 336.825 401.068C337.289 401.333 337.831 401.466 338.451 401.466C338.854 401.466 339.221 401.409 339.552 401.295C339.884 401.177 340.17 401.002 340.412 400.77C340.653 400.538 340.838 400.251 340.966 399.911L342.975 400.273C342.815 400.865 342.526 401.383 342.109 401.828C341.697 402.268 341.179 402.612 340.554 402.858C339.933 403.099 339.225 403.22 338.43 403.22Z" fill="#212528"/>
</g>
<defs>
<filter id="filter0_d_140_824" x="0.5" y="0" width="404" height="84" filterUnits="userSpaceOnUse" color-interpolation-filters="sRGB">
<feFlood flood-opacity="0" result="BackgroundImageFix"/>
<feColorMatrix in="SourceAlpha" type="matrix" values="0 0 0 0 0 0 0 0 0 0 0 0 0 0 0 0 0 0 127 0" result="hardAlpha"/>
<feOffset dx="4" dy="4"/>
<feComposite in2="hardAlpha" operator="out"/>
<feColorMatrix type="matrix" values="0 0 0 0 0.690435 0 0 0 0 0.909565 0 0 0 0 0.713043 0 0 0 1 0"/>
<feBlend mode="normal" in2="BackgroundImageFix" result="effect1_dropShadow_140_824"/>
<feBlend mode="normal" in="SourceGraphic" in2="effect1_dropShadow_140_824" result="shape"/>
</filter>
<filter id="filter1_d_140_824" x="0.5" y="104" width="192" height="156" filterUnits="userSpaceOnUse" color-interpolation-filters="sRGB">
<feFlood flood-opacity="0" result="BackgroundImageFix"/>
<feColorMatrix in="SourceAlpha" type="matrix" values="0 0 0 0 0 0 0 0 0 0 0 0 0 0 0 0 0 0 127 0" result="hardAlpha"/>
<feOffset dx="4" dy="4"/>
<feComposite in2="hardAlpha" operator="out"/>
<feColorMatrix type="matrix" values="0 0 0 0 0.667568 0 0 0 0 0.8 0 0 0 0 0.932432 0 0 0 1 0"/>
<feBlend mode="normal" in2="BackgroundImageFix" result="effect1_dropShadow_140_824"/>
<feBlend mode="normal" in="SourceGraphic" in2="effect1_dropShadow_140_824" result="shape"/>
</filter>
<filter id="filter2_d_140_824" x="0.5" y="280" width="192" height="156" filterUnits="userSpaceOnUse" color-interpolation-filters="sRGB">
<feFlood flood-opacity="0" result="BackgroundImageFix"/>
<feColorMatrix in="SourceAlpha" type="matrix" values="0 0 0 0 0 0 0 0 0 0 0 0 0 0 0 0 0 0 127 0" result="hardAlpha"/>
<feOffset dx="4" dy="4"/>
<feComposite in2="hardAlpha" operator="out"/>
<feColorMatrix type="matrix" values="0 0 0 0 0.932432 0 0 0 0 0.842378 0 0 0 0 0.667568 0 0 0 1 0"/>
<feBlend mode="normal" in2="BackgroundImageFix" result="effect1_dropShadow_140_824"/>
<feBlend mode="normal" in="SourceGraphic" in2="effect1_dropShadow_140_824" result="shape"/>
</filter>
<filter id="filter3_d_140_824" x="212.5" y="104" width="192" height="156" filterUnits="userSpaceOnUse" color-interpolation-filters="sRGB">
<feFlood flood-opacity="0" result="BackgroundImageFix"/>
<feColorMatrix in="SourceAlpha" type="matrix" values="0 0 0 0 0 0 0 0 0 0 0 0 0 0 0 0 0 0 127 0" result="hardAlpha"/>
<feOffset dx="4" dy="4"/>
<feComposite in2="hardAlpha" operator="out"/>
<feColorMatrix type="matrix" values="0 0 0 0 0.932432 0 0 0 0 0.842378 0 0 0 0 0.667568 0 0 0 1 0"/>
<feBlend mode="normal" in2="BackgroundImageFix" result="effect1_dropShadow_140_824"/>
<feBlend mode="normal" in="SourceGraphic" in2="effect1_dropShadow_140_824" result="shape"/>
</filter>
<filter id="filter4_d_140_824" x="212.5" y="280" width="192" height="156" filterUnits="userSpaceOnUse" color-interpolation-filters="sRGB">
<feFlood flood-opacity="0" result="BackgroundImageFix"/>
<feColorMatrix in="SourceAlpha" type="matrix" values="0 0 0 0 0 0 0 0 0 0 0 0 0 0 0 0 0 0 127 0" result="hardAlpha"/>
<feOffset dx="4" dy="4"/>
<feComposite in2="hardAlpha" operator="out"/>
<feColorMatrix type="matrix" values="0 0 0 0 0.667568 0 0 0 0 0.8 0 0 0 0 0.932432 0 0 0 1 0"/>
<feBlend mode="normal" in2="BackgroundImageFix" result="effect1_dropShadow_140_824"/>
<feBlend mode="normal" in="SourceGraphic" in2="effect1_dropShadow_140_824" result="shape"/>
</filter>
</defs>
</svg>
