<?xml version="1.0" encoding="UTF-8"?>
<!DOCTYPE svg PUBLIC "-//W3C//DTD SVG 1.1//EN" "http://www.w3.org/Graphics/SVG/1.1/DTD/svg11.dtd">
<!-- Creator: CorelDRAW X8 -->
<svg xmlns="http://www.w3.org/2000/svg" xml:space="preserve" width="7.45445in" height="2in" version="1.1" style="shape-rendering:geometricPrecision; text-rendering:geometricPrecision; image-rendering:optimizeQuality; fill-rule:evenodd; clip-rule:evenodd"
viewBox="0 0 12562 3370"
 xmlns:xlink="http://www.w3.org/1999/xlink">
 <defs>
  <style type="text/css">
   <![CDATA[
    .fil5 {fill:none}
    .fil2 {fill:#FEFEFE}
    .fil1 {fill:#1A237E}
    .fil4 {fill:#4B55C2}
    .fil3 {fill:#606062;fill-rule:nonzero}
    .fil0 {fill:#1A237E;fill-rule:nonzero}
   ]]>
  </style>
   <clipPath id="id0">
    <path d="M1685 546c391,0 708,317 708,708 0,391 -317,707 -708,707 -391,0 -707,-316 -707,-707 0,-391 316,-708 707,-708zm0 157c305,0 551,246 551,551 0,304 -246,551 -551,551 -304,0 -551,-247 -551,-551 0,-305 247,-551 551,-551z"/>
   </clipPath>
   <clipPath id="id1">
    <path d="M6635 1867c-339,195 -772,79 -967,-259 -195,-339 -79,-772 259,-967 338,-195 771,-79 966,259 196,338 80,771 -258,967zm-79 -136c-263,152 -600,62 -753,-202 -152,-263 -61,-600 202,-752 264,-153 601,-62 753,201 152,264 62,601 -202,753z"/>
   </clipPath>
   <clipPath id="id2">
    <path d="M11377 754c276,276 276,724 0,1000 -277,276 -725,276 -1001,0 -276,-276 -276,-724 0,-1000 276,-277 724,-277 1001,0zm-111 110c215,215 215,564 0,780 -215,215 -564,215 -779,0 -215,-216 -215,-565 0,-780 215,-215 564,-215 779,0z"/>
   </clipPath>
 </defs>
 <g id="Layer_x0020_1">
  <metadata id="CorelCorpID_0Corel-Layer"/>
  <g>
   <polygon class="fil0" points="9292,1715 3269,1715 3269,1655 9292,1655 "/>
  </g>
  <rect class="fil1" width="3370" height="3370"/>
  <rect class="fil2" x="101" y="101" width="3169" height="3169"/>
  <rect class="fil1" x="4596" width="3370" height="3370"/>
  <rect class="fil2" x="4696" y="101" width="3169" height="3169"/>
  <rect class="fil1" x="9191" width="3370" height="3370"/>
  <rect class="fil2" x="9292" y="101" width="3169" height="3169"/>
  <path class="fil3" d="M1368 2446l29 7c-6,23 -17,41 -32,53 -16,12 -35,18 -57,18 -23,0 -42,-4 -56,-14 -14,-9 -25,-23 -33,-40 -7,-18 -11,-37 -11,-58 0,-22 4,-41 13,-58 8,-16 20,-29 36,-38 16,-8 33,-13 52,-13 21,0 39,6 54,17 14,11 24,26 30,46l-28 6c-5,-15 -12,-27 -21,-34 -10,-7 -22,-10 -36,-10 -16,0 -30,4 -41,11 -11,8 -19,19 -23,32 -5,13 -7,27 -7,41 0,18 3,34 8,48 5,13 14,23 25,30 11,7 23,10 36,10 16,0 29,-4 40,-13 11,-10 18,-23 22,-41z"/>
  <path id="1" class="fil3" d="M1529 2521l0 -23c-12,17 -28,26 -49,26 -9,0 -17,-2 -25,-5 -8,-4 -14,-8 -18,-13 -4,-6 -6,-12 -8,-20 -1,-5 -1,-13 -1,-24l0 -96 26 0 0 86c0,13 0,23 2,27 1,7 5,13 10,16 5,4 12,6 20,6 8,0 15,-2 22,-6 7,-4 12,-9 14,-16 3,-7 5,-17 5,-30l0 -83 26 0 0 155 -24 0z"/>
  <path id="2" class="fil3" d="M1594 2521l0 -155 24 0 0 24c6,-11 11,-19 16,-22 5,-4 11,-5 17,-5 9,0 18,2 27,8l-9 24c-7,-3 -13,-5 -19,-5 -6,0 -11,1 -16,5 -4,3 -7,8 -9,14 -3,10 -5,20 -5,31l0 81 -26 0z"/>
  <path id="3" class="fil3" d="M1693 2521l0 -155 24 0 0 24c6,-11 12,-19 17,-22 5,-4 10,-5 17,-5 8,0 17,2 27,8l-10 24c-6,-3 -13,-5 -19,-5 -6,0 -11,1 -15,5 -5,3 -8,8 -10,14 -3,10 -4,20 -4,31l0 81 -27 0z"/>
  <path id="4" class="fil3" d="M1899 2471l27 3c-4,16 -12,28 -24,37 -11,9 -26,13 -44,13 -23,0 -40,-7 -54,-21 -13,-14 -20,-33 -20,-58 0,-26 7,-47 20,-61 14,-14 31,-21 53,-21 20,0 37,7 50,21 13,14 20,34 20,59 0,2 0,4 0,7l-116 0c1,17 6,30 15,39 8,9 19,14 32,14 10,0 18,-3 25,-8 6,-5 12,-13 16,-24zm-86 -42l86 0c-1,-13 -4,-23 -10,-30 -8,-10 -19,-15 -32,-15 -12,0 -22,4 -31,12 -8,8 -12,19 -13,33z"/>
  <path id="5" class="fil3" d="M1959 2521l0 -155 24 0 0 22c11,-17 27,-25 49,-25 9,0 18,1 26,5 7,3 13,7 17,13 4,5 7,12 8,19 1,5 2,14 2,26l0 95 -26 0 0 -94c0,-11 -1,-19 -4,-24 -2,-6 -5,-10 -10,-13 -6,-3 -12,-5 -19,-5 -11,0 -20,4 -28,11 -9,7 -13,20 -13,40l0 85 -26 0z"/>
  <path id="6" class="fil3" d="M2182 2497l4 24c-8,1 -14,2 -20,2 -10,0 -17,-2 -22,-5 -5,-3 -9,-7 -11,-12 -2,-4 -3,-15 -3,-31l0 -89 -20 0 0 -20 20 0 0 -38 26 -16 0 54 26 0 0 20 -26 0 0 91c0,7 0,12 1,14 1,3 3,4 5,6 2,1 5,1 9,1 3,0 6,0 11,-1z"/>
  <path id="7" class="fil3" d="M1366 2854l0 -213 95 0c19,0 33,1 43,5 10,4 18,11 24,21 6,9 9,20 9,32 0,15 -5,28 -15,38 -10,11 -25,17 -46,20 8,4 14,7 17,11 9,7 17,17 24,28l37 58 -35 0 -29 -44c-8,-13 -15,-23 -20,-30 -5,-7 -10,-11 -14,-14 -5,-3 -9,-5 -13,-6 -4,0 -9,-1 -16,-1l-33 0 0 95 -28 0zm28 -119l61 0c13,0 23,-1 30,-4 7,-3 13,-7 17,-13 3,-6 5,-12 5,-19 0,-10 -3,-19 -11,-25 -7,-7 -18,-10 -34,-10l-68 0 0 71z"/>
  <path id="8" class="fil3" d="M1679 2835c-10,8 -19,14 -28,17 -9,4 -19,6 -29,6 -17,0 -31,-5 -40,-13 -9,-8 -13,-19 -13,-32 0,-7 1,-14 5,-20 3,-7 8,-12 13,-15 6,-4 12,-7 19,-9 5,-1 13,-3 24,-4 21,-2 36,-5 46,-9 1,-4 1,-6 1,-7 0,-10 -3,-18 -8,-22 -7,-6 -17,-9 -30,-9 -12,0 -21,2 -27,6 -6,5 -10,12 -13,23l-26 -3c2,-11 6,-20 12,-27 5,-7 13,-12 23,-15 10,-4 22,-6 35,-6 13,0 24,2 32,5 9,3 15,7 19,11 4,5 6,11 8,18 1,5 1,13 1,25l0 34c0,25 1,40 2,47 1,6 3,12 6,18l-27 0c-3,-5 -5,-12 -5,-19zm-2 -58c-10,4 -24,7 -43,10 -11,1 -19,3 -23,5 -5,2 -8,5 -11,8 -2,4 -3,8 -3,13 0,7 2,12 8,17 5,5 13,7 23,7 10,0 19,-2 27,-7 8,-4 14,-10 17,-18 3,-6 4,-14 4,-26l1 -9z"/>
  <path id="9" class="fil3" d="M1801 2831l3 23c-7,2 -14,2 -20,2 -9,0 -16,-1 -22,-4 -5,-3 -9,-7 -11,-12 -2,-5 -3,-15 -3,-31l0 -89 -19 0 0 -21 19 0 0 -38 26 -16 0 54 27 0 0 21 -27 0 0 90c0,8 1,13 2,15 1,2 2,4 4,5 2,1 5,2 9,2 3,0 7,0 12,-1z"/>
  <path id="10" class="fil3" d="M1826 2670l0 -29 27 0 0 29 -27 0zm0 184l0 -155 27 0 0 155 -27 0z"/>
  <path id="11" class="fil3" d="M1883 2777c0,-29 8,-50 24,-64 13,-11 29,-17 49,-17 21,0 38,7 52,21 13,14 20,33 20,58 0,20 -3,35 -9,47 -6,11 -15,20 -26,26 -11,6 -24,10 -37,10 -22,0 -40,-7 -53,-21 -13,-14 -20,-34 -20,-60zm27 0c0,20 4,34 13,44 9,10 19,15 33,15 13,0 23,-5 32,-15 9,-10 13,-25 13,-45 0,-19 -4,-34 -13,-43 -9,-10 -19,-15 -32,-15 -14,0 -24,5 -33,15 -9,9 -13,24 -13,44z"/>
  <path class="fil3" d="M5534 2521l0 -214 73 0c17,0 30,1 38,3 13,3 23,8 32,15 11,10 20,22 25,37 6,15 9,32 9,51 0,16 -2,30 -6,43 -4,12 -9,23 -15,31 -6,8 -12,15 -19,19 -7,5 -16,9 -26,11 -10,3 -21,4 -34,4l-77 0zm28 -25l46 0c14,0 25,-2 33,-4 8,-3 14,-7 19,-11 7,-7 12,-16 16,-27 3,-12 5,-26 5,-42 0,-22 -3,-39 -11,-51 -7,-12 -16,-20 -26,-24 -8,-3 -20,-5 -37,-5l-45 0 0 164z"/>
  <path id="1" class="fil3" d="M5852 2471l27 3c-4,16 -12,28 -24,37 -11,9 -26,13 -44,13 -23,0 -40,-7 -54,-21 -13,-14 -20,-33 -20,-58 0,-26 7,-47 20,-61 14,-14 31,-21 53,-21 20,0 37,7 50,21 13,14 20,34 20,59 0,2 0,4 0,7l-116 0c1,17 6,30 15,39 8,9 19,14 32,14 10,0 18,-3 25,-8 6,-5 12,-13 16,-24zm-86 -42l86 0c-1,-13 -4,-23 -10,-30 -8,-10 -19,-15 -32,-15 -12,0 -22,4 -31,12 -8,8 -12,19 -13,33z"/>
  <path id="2" class="fil3" d="M5936 2521l-24 0 0 -214 26 0 0 76c11,-14 25,-20 43,-20 9,0 18,1 27,5 8,4 15,10 21,16 5,7 9,16 12,26 4,9 5,20 5,31 0,26 -6,47 -19,61 -14,15 -29,22 -48,22 -18,0 -32,-8 -43,-23l0 20zm0 -79c0,19 3,32 8,40 8,14 19,21 33,21 12,0 21,-5 30,-15 8,-10 12,-25 12,-45 0,-20 -4,-35 -12,-45 -8,-9 -17,-14 -29,-14 -11,0 -21,5 -29,15 -9,10 -13,24 -13,43z"/>
  <path id="3" class="fil3" d="M6135 2497l4 24c-8,1 -14,2 -20,2 -10,0 -17,-2 -22,-5 -5,-3 -9,-7 -11,-12 -2,-4 -3,-15 -3,-31l0 -89 -20 0 0 -20 20 0 0 -38 26 -16 0 54 26 0 0 20 -26 0 0 91c0,7 0,12 1,14 1,3 3,4 5,6 2,1 5,1 9,1 3,0 6,0 11,-1z"/>
  <polygon id="4" class="fil3" points="6248,2521 6248,2307 6402,2307 6402,2332 6276,2332 6276,2398 6394,2398 6394,2423 6276,2423 6276,2496 6407,2496 6407,2521 "/>
  <path id="5" class="fil3" d="M6542 2580l0 -76c-4,6 -10,11 -17,14 -8,4 -15,6 -24,6 -18,0 -34,-7 -47,-22 -13,-15 -20,-35 -20,-60 0,-16 3,-30 8,-42 5,-12 13,-22 24,-28 10,-6 21,-9 33,-9 19,0 34,8 45,24l0 -21 24 0 0 214 -26 0zm-81 -137c0,20 4,35 12,45 9,10 19,15 30,15 12,0 21,-5 29,-15 8,-9 12,-23 12,-43 0,-20 -4,-36 -12,-46 -9,-11 -19,-16 -30,-16 -12,0 -21,5 -29,15 -8,9 -12,24 -12,45z"/>
  <path id="6" class="fil3" d="M6710 2521l0 -23c-12,17 -28,26 -49,26 -9,0 -17,-2 -25,-5 -8,-4 -14,-8 -18,-13 -4,-6 -6,-12 -8,-20 -1,-5 -1,-13 -1,-24l0 -96 26 0 0 86c0,13 0,23 1,27 2,7 6,13 11,16 5,4 12,6 20,6 8,0 15,-2 22,-6 7,-4 11,-9 14,-16 3,-7 5,-17 5,-30l0 -83 26 0 0 155 -24 0z"/>
  <path id="7" class="fil3" d="M6775 2337l0 -30 26 0 0 30 -26 0zm0 184l0 -155 26 0 0 155 -26 0z"/>
  <path id="8" class="fil3" d="M6899 2497l3 24c-7,1 -14,2 -20,2 -9,0 -17,-2 -22,-5 -5,-3 -9,-7 -11,-12 -2,-4 -3,-15 -3,-31l0 -89 -19 0 0 -20 19 0 0 -38 26 -16 0 54 27 0 0 20 -27 0 0 91c0,7 1,12 2,14 1,3 2,4 4,6 2,1 5,1 9,1 3,0 7,0 12,-1z"/>
  <path id="9" class="fil3" d="M6923 2580l-3 -24c6,2 11,2 15,2 6,0 11,-1 14,-3 4,-1 7,-4 9,-8 2,-2 4,-9 8,-19 0,-2 1,-4 2,-7l-59 -155 29 0 32 89c4,12 8,24 11,36 3,-12 7,-23 11,-35l33 -90 26 0 -58 157c-7,17 -12,29 -15,36 -5,8 -10,14 -16,18 -6,4 -13,6 -22,6 -5,0 -11,-1 -17,-3z"/>
  <path id="10" class="fil3" d="M5958 2854l0 -213 94 0c19,0 34,1 44,5 10,4 18,11 23,21 6,9 9,20 9,32 0,15 -5,28 -14,38 -10,11 -25,17 -46,20 8,4 13,7 17,11 8,7 16,17 24,28l37 58 -36 0 -28 -44c-8,-13 -15,-23 -20,-30 -6,-7 -11,-11 -15,-14 -4,-3 -8,-5 -13,-6 -3,0 -8,-1 -15,-1l-33 0 0 95 -28 0zm28 -119l61 0c13,0 23,-1 30,-4 7,-3 13,-7 16,-13 4,-6 6,-12 6,-19 0,-10 -4,-19 -11,-25 -7,-7 -19,-10 -35,-10l-67 0 0 71z"/>
  <path id="11" class="fil3" d="M6270 2835c-9,8 -19,14 -28,17 -9,4 -18,6 -29,6 -17,0 -30,-5 -39,-13 -9,-8 -14,-19 -14,-32 0,-7 2,-14 5,-20 4,-7 8,-12 14,-15 6,-4 12,-7 19,-9 5,-1 13,-3 23,-4 22,-2 37,-5 47,-9 0,-4 0,-6 0,-7 0,-10 -2,-18 -7,-22 -7,-6 -17,-9 -30,-9 -12,0 -22,2 -27,6 -6,5 -11,12 -14,23l-25 -3c2,-11 6,-20 11,-27 6,-7 13,-12 24,-15 10,-4 21,-6 35,-6 13,0 24,2 32,5 8,3 15,7 18,11 4,5 7,11 9,18 0,5 1,13 1,25l0 34c0,25 0,40 2,47 1,6 3,12 6,18l-27 0c-3,-5 -5,-12 -6,-19zm-2 -58c-9,4 -24,7 -43,10 -10,1 -18,3 -23,5 -4,2 -8,5 -10,8 -2,4 -4,8 -4,13 0,7 3,12 8,17 6,5 13,7 24,7 10,0 19,-2 27,-7 7,-4 13,-10 17,-18 3,-6 4,-14 4,-26l0 -9z"/>
  <path id="12" class="fil3" d="M6392 2831l4 23c-7,2 -14,2 -20,2 -9,0 -17,-1 -22,-4 -5,-3 -9,-7 -11,-12 -2,-5 -3,-15 -3,-31l0 -89 -20 0 0 -21 20 0 0 -38 26 -16 0 54 26 0 0 21 -26 0 0 90c0,8 0,13 1,15 1,2 3,4 5,5 2,1 5,2 9,2 3,0 7,0 11,-1z"/>
  <path id="13" class="fil3" d="M6418 2670l0 -29 26 0 0 29 -26 0zm0 184l0 -155 26 0 0 155 -26 0z"/>
  <path id="14" class="fil3" d="M6475 2777c0,-29 8,-50 24,-64 13,-11 29,-17 48,-17 22,0 39,7 52,21 14,14 21,33 21,58 0,20 -3,35 -9,47 -6,11 -15,20 -26,26 -12,6 -24,10 -38,10 -21,0 -39,-7 -52,-21 -14,-14 -20,-34 -20,-60zm27 0c0,20 4,34 13,44 8,10 19,15 32,15 13,0 24,-5 33,-15 9,-10 13,-25 13,-45 0,-19 -4,-34 -13,-43 -9,-10 -20,-15 -33,-15 -13,0 -24,5 -32,15 -9,9 -13,24 -13,44z"/>
  <path class="fil3" d="M10171 2521l0 -214 81 0c14,0 25,1 32,2 11,2 20,5 27,10 7,5 13,12 17,21 4,8 6,18 6,29 0,18 -5,33 -17,46 -12,12 -32,19 -63,19l-55 0 0 87 -28 0zm28 -112l56 0c18,0 31,-4 39,-11 7,-6 11,-16 11,-28 0,-9 -2,-17 -7,-23 -4,-7 -10,-11 -18,-13 -4,-1 -13,-2 -26,-2l-55 0 0 77z"/>
  <path id="1" class="fil3" d="M10367 2521l0 -155 23 0 0 24c6,-11 12,-19 17,-22 5,-4 11,-5 17,-5 9,0 18,2 27,8l-10 24c-6,-3 -12,-5 -19,-5 -5,0 -11,1 -15,5 -5,3 -8,8 -10,14 -3,10 -4,20 -4,31l0 81 -26 0z"/>
  <path id="2" class="fil3" d="M10456 2443c0,-28 8,-49 24,-63 14,-12 30,-17 49,-17 21,0 39,7 52,20 14,14 21,34 21,58 0,20 -3,36 -9,47 -6,11 -15,20 -27,27 -11,6 -23,9 -37,9 -22,0 -39,-7 -52,-21 -14,-14 -21,-34 -21,-60zm27 0c0,20 5,35 13,45 9,10 20,15 33,15 13,0 24,-5 33,-15 8,-10 13,-25 13,-45 0,-20 -5,-34 -13,-44 -9,-10 -20,-15 -33,-15 -13,0 -24,5 -33,15 -8,10 -13,25 -13,44z"/>
  <path id="3" class="fil3" d="M10632 2580l0 -214 24 0 0 20c6,-8 12,-14 19,-18 7,-3 16,-5 26,-5 13,0 25,3 35,10 10,7 18,16 23,28 5,13 8,26 8,41 0,16 -3,30 -9,43 -6,13 -14,22 -25,29 -10,7 -22,10 -34,10 -8,0 -16,-2 -23,-5 -7,-4 -13,-9 -17,-14l0 75 -27 0zm24 -136c0,20 4,35 12,44 8,10 18,15 30,15 11,0 21,-5 29,-15 9,-10 13,-25 13,-46 0,-20 -4,-34 -12,-44 -8,-10 -18,-15 -29,-15 -11,0 -21,5 -30,16 -9,10 -13,25 -13,45z"/>
  <path id="4" class="fil3" d="M10798 2521l0 -155 24 0 0 24c6,-11 11,-19 16,-22 5,-4 11,-5 17,-5 9,0 18,2 27,8l-9 24c-6,-3 -13,-5 -19,-5 -6,0 -11,1 -16,5 -4,3 -7,8 -9,14 -3,10 -5,20 -5,31l0 81 -26 0z"/>
  <path id="5" class="fil3" d="M10898 2337l0 -30 26 0 0 30 -26 0zm0 184l0 -155 26 0 0 155 -26 0z"/>
  <path id="6" class="fil3" d="M11070 2471l27 3c-4,16 -12,28 -24,37 -11,9 -26,13 -44,13 -23,0 -40,-7 -54,-21 -13,-14 -20,-33 -20,-58 0,-26 7,-47 20,-61 14,-14 31,-21 53,-21 20,0 37,7 50,21 13,14 20,34 20,59 0,2 0,4 0,7l-116 0c1,17 6,30 15,39 8,9 19,14 32,14 10,0 18,-3 25,-8 6,-5 12,-13 16,-24zm-86 -42l86 0c-1,-13 -4,-23 -10,-30 -8,-10 -19,-15 -32,-15 -12,0 -22,4 -31,12 -8,8 -12,19 -13,33z"/>
  <path id="7" class="fil3" d="M11187 2497l4 24c-8,1 -14,2 -20,2 -10,0 -17,-2 -22,-5 -5,-3 -9,-7 -11,-12 -2,-4 -3,-15 -3,-31l0 -89 -20 0 0 -20 20 0 0 -38 26 -16 0 54 26 0 0 20 -26 0 0 91c0,7 0,12 1,14 1,3 3,4 5,6 2,1 5,1 9,1 3,0 6,0 11,-1z"/>
  <path id="8" class="fil3" d="M11314 2501c-9,9 -19,15 -28,18 -9,3 -19,5 -29,5 -17,0 -30,-4 -39,-12 -9,-9 -14,-19 -14,-32 0,-8 2,-15 5,-21 4,-6 8,-11 14,-15 5,-4 12,-7 19,-8 5,-2 13,-3 23,-4 21,-3 37,-6 47,-9 0,-4 0,-6 0,-7 0,-11 -2,-18 -7,-23 -7,-6 -17,-9 -30,-9 -13,0 -22,3 -28,7 -6,4 -10,12 -13,23l-25 -4c2,-11 6,-20 11,-26 5,-7 13,-12 23,-16 11,-4 22,-5 36,-5 13,0 24,1 32,4 8,3 14,7 18,12 4,5 7,11 8,18 1,4 2,12 2,24l0 35c0,24 0,40 1,46 1,7 4,13 7,19l-28 0c-2,-6 -4,-12 -5,-20zm-2 -58c-9,4 -24,7 -43,10 -11,2 -18,3 -23,5 -4,2 -8,5 -10,9 -3,3 -4,8 -4,12 0,7 3,13 8,18 5,4 13,6 23,6 11,0 20,-2 27,-6 8,-5 14,-11 18,-18 3,-6 4,-15 4,-26l0 -10z"/>
  <path id="9" class="fil3" d="M11379 2521l0 -155 23 0 0 24c6,-11 12,-19 17,-22 5,-4 11,-5 17,-5 9,0 18,2 27,8l-9 24c-7,-3 -13,-5 -19,-5 -6,0 -11,1 -16,5 -4,3 -8,8 -10,14 -3,10 -4,20 -4,31l0 81 -26 0z"/>
  <path id="10" class="fil3" d="M11477 2580l-3 -24c6,2 11,2 15,2 6,0 11,-1 14,-3 4,-1 7,-4 9,-8 2,-2 4,-9 8,-19 1,-2 1,-4 2,-7l-58 -155 28 0 32 89c4,12 8,24 11,36 3,-12 7,-23 11,-35l33 -90 26 0 -58 157c-7,17 -11,29 -15,36 -5,8 -10,14 -16,18 -6,4 -13,6 -22,6 -5,0 -10,-1 -17,-3z"/>
  <path id="11" class="fil3" d="M10553 2854l0 -213 95 0c19,0 33,1 43,5 10,4 18,11 24,21 6,9 9,20 9,32 0,15 -5,28 -15,38 -10,11 -25,17 -45,20 7,4 13,7 17,11 8,7 16,17 23,28l37 58 -35 0 -28 -44c-9,-13 -15,-23 -21,-30 -5,-7 -10,-11 -14,-14 -4,-3 -9,-5 -13,-6 -3,0 -8,-1 -16,-1l-32 0 0 95 -29 0zm29 -119l60 0c13,0 23,-1 31,-4 7,-3 12,-7 16,-13 4,-6 6,-12 6,-19 0,-10 -4,-19 -11,-25 -8,-7 -19,-10 -35,-10l-67 0 0 71z"/>
  <path id="12" class="fil3" d="M10866 2835c-10,8 -19,14 -28,17 -9,4 -19,6 -29,6 -17,0 -30,-5 -39,-13 -9,-8 -14,-19 -14,-32 0,-7 2,-14 5,-20 4,-7 8,-12 14,-15 5,-4 12,-7 19,-9 5,-1 13,-3 23,-4 21,-2 37,-5 47,-9 0,-4 0,-6 0,-7 0,-10 -2,-18 -7,-22 -7,-6 -17,-9 -30,-9 -13,0 -22,2 -28,6 -6,5 -10,12 -13,23l-26 -3c3,-11 7,-20 12,-27 5,-7 13,-12 23,-15 10,-4 22,-6 35,-6 14,0 25,2 33,5 8,3 14,7 18,11 4,5 7,11 8,18 1,5 2,13 2,25l0 34c0,25 0,40 1,47 1,6 3,12 7,18l-28 0c-2,-5 -4,-12 -5,-19zm-2 -58c-10,4 -24,7 -43,10 -11,1 -18,3 -23,5 -4,2 -8,5 -10,8 -3,4 -4,8 -4,13 0,7 3,12 8,17 5,5 13,7 23,7 10,0 19,-2 27,-7 8,-4 14,-10 18,-18 2,-6 4,-14 4,-26l0 -9z"/>
  <path id="13" class="fil3" d="M10988 2831l4 23c-8,2 -14,2 -20,2 -10,0 -17,-1 -22,-4 -6,-3 -9,-7 -11,-12 -3,-5 -4,-15 -4,-31l0 -89 -19 0 0 -21 19 0 0 -38 27 -16 0 54 26 0 0 21 -26 0 0 90c0,8 0,13 1,15 1,2 2,4 5,5 2,1 5,2 9,2 2,0 6,0 11,-1z"/>
  <path id="14" class="fil3" d="M11014 2670l0 -29 26 0 0 29 -26 0zm0 184l0 -155 26 0 0 155 -26 0z"/>
  <path id="15" class="fil3" d="M11070 2777c0,-29 8,-50 24,-64 14,-11 30,-17 49,-17 21,0 39,7 52,21 14,14 20,33 20,58 0,20 -3,35 -9,47 -6,11 -14,20 -26,26 -11,6 -24,10 -37,10 -22,0 -39,-7 -53,-21 -13,-14 -20,-34 -20,-60zm27 0c0,20 5,34 13,44 9,10 20,15 33,15 13,0 24,-5 33,-15 8,-10 13,-25 13,-45 0,-19 -5,-34 -14,-43 -8,-10 -19,-15 -32,-15 -13,0 -24,5 -33,15 -8,9 -13,24 -13,44z"/>
  <path class="fil1" d="M1685 546c391,0 708,317 708,708 0,391 -317,707 -708,707 -391,0 -707,-316 -707,-707 0,-391 316,-708 707,-708zm0 157c305,0 551,246 551,551 0,304 -246,551 -551,551 -304,0 -551,-247 -551,-551 0,-305 247,-551 551,-551z"/>
  <g style="clip-path:url(#id0)">
   <g>
    <polygon id="1" class="fil4" points="1685,1254 2185,754 2587,925 2587,1832 1821,2257 "/>
   </g>
  </g>
  <path class="fil5" d="M1685 546c391,0 708,317 708,708 0,391 -317,707 -708,707 -391,0 -707,-316 -707,-707 0,-391 316,-708 707,-708zm0 157c305,0 551,246 551,551 0,304 -246,551 -551,551 -304,0 -551,-247 -551,-551 0,-305 247,-551 551,-551z"/>
  <path class="fil0" d="M1538 1359l-33 0 0 -123c-12,11 -26,19 -42,24l0 -29c8,-3 17,-8 27,-16 11,-8 17,-17 21,-28l27 0 0 172z"/>
  <polygon id="1" class="fil0" points="1594,1359 1594,1327 1626,1327 1626,1359 "/>
  <path id="2" class="fil0" d="M1653 1315l33 -3c1,7 4,13 8,18 5,4 10,6 16,6 7,0 13,-3 18,-8 5,-6 7,-14 7,-26 0,-10 -2,-18 -7,-23 -5,-6 -11,-8 -19,-8 -9,0 -17,4 -25,12l-26 -4 16 -88 87 0 0 30 -62 0 -5 29c7,-3 15,-5 22,-5 15,0 27,5 37,16 11,10 16,24 16,41 0,14 -5,27 -13,38 -11,15 -26,22 -46,22 -16,0 -29,-4 -39,-12 -10,-9 -16,-20 -18,-35z"/>
  <path id="3" class="fil0" d="M1841 1187c17,0 30,6 39,18 11,14 17,37 17,70 0,32 -6,56 -17,70 -9,12 -22,17 -39,17 -16,0 -30,-6 -40,-19 -10,-13 -15,-35 -15,-68 0,-33 5,-56 17,-70 9,-12 22,-18 38,-18zm0 28c-4,0 -7,1 -10,3 -3,3 -6,7 -7,14 -2,9 -4,23 -4,43 0,20 1,34 3,41 2,8 5,13 8,15 3,3 6,4 10,4 4,0 8,-1 11,-4 3,-2 5,-7 7,-13 2,-9 3,-23 3,-43 0,-20 -1,-34 -3,-41 -2,-8 -4,-13 -7,-16 -3,-2 -7,-3 -11,-3z"/>
  <path class="fil1" d="M6635 1867c-339,195 -772,79 -967,-259 -195,-339 -79,-772 259,-967 338,-195 771,-79 966,259 196,338 80,771 -258,967zm-79 -136c-263,152 -600,62 -753,-202 -152,-263 -61,-600 202,-752 264,-153 601,-62 753,201 152,264 62,601 -202,753z"/>
  <g style="clip-path:url(#id1)">
   <g>
    <polygon id="1" class="fil4" points="6281,1254 6098,1937 5664,1990 5210,1204 5662,453 "/>
   </g>
  </g>
  <path class="fil5" d="M6635 1867c-339,195 -772,79 -967,-259 -195,-339 -79,-772 259,-967 338,-195 771,-79 966,259 196,338 80,771 -258,967zm-79 -136c-263,152 -600,62 -753,-202 -152,-263 -61,-600 202,-752 264,-153 601,-62 753,201 152,264 62,601 -202,753z"/>
  <path class="fil0" d="M6110 1187c17,0 30,6 39,18 11,14 17,37 17,70 0,32 -6,56 -17,70 -9,12 -22,17 -39,17 -16,0 -30,-6 -40,-19 -10,-13 -15,-35 -15,-68 0,-33 5,-56 17,-70 9,-12 22,-18 38,-18zm0 28c-4,0 -7,1 -10,3 -3,3 -6,7 -7,14 -2,9 -4,23 -4,43 0,20 1,34 3,41 2,8 5,13 8,15 3,3 6,4 10,4 4,0 8,-1 11,-4 3,-2 5,-7 7,-13 2,-9 3,-23 3,-43 0,-20 -1,-34 -3,-41 -2,-8 -4,-13 -7,-16 -3,-2 -7,-3 -11,-3z"/>
  <polygon id="1" class="fil0" points="6195,1359 6195,1327 6227,1327 6227,1359 "/>
  <path id="2" class="fil0" d="M6338 1359l-33 0 0 -123c-12,11 -26,19 -42,24l0 -29c8,-3 18,-8 28,-16 10,-8 17,-17 20,-28l27 0 0 172z"/>
  <path id="3" class="fil0" d="M6386 1314l32 -4c1,8 3,14 8,19 4,4 10,6 16,6 6,0 12,-2 17,-8 4,-5 7,-12 7,-20 0,-9 -3,-15 -7,-20 -4,-5 -10,-7 -16,-7 -4,0 -9,1 -15,2l4 -26c8,0 15,-2 20,-6 4,-4 7,-10 7,-16 0,-6 -2,-11 -5,-14 -4,-4 -8,-5 -14,-5 -6,0 -10,2 -14,5 -4,4 -7,10 -8,18l-30 -6c2,-10 6,-18 10,-25 4,-6 10,-11 17,-14 8,-4 17,-6 26,-6 16,0 29,6 39,16 8,8 12,18 12,28 0,16 -9,28 -25,37 10,2 18,6 24,14 5,7 8,16 8,26 0,15 -5,28 -16,39 -11,10 -25,15 -41,15 -15,0 -28,-4 -38,-13 -11,-9 -16,-21 -18,-35z"/>
  <path class="fil1" d="M11377 754c276,276 276,724 0,1000 -277,276 -725,276 -1001,0 -276,-276 -276,-724 0,-1000 276,-277 724,-277 1001,0zm-111 110c215,215 215,564 0,780 -215,215 -564,215 -779,0 -215,-216 -215,-565 0,-780 215,-215 564,-215 779,0z"/>
  <g style="clip-path:url(#id2)">
   <g>
    <polygon id="1" class="fil4" points="10876,1254 11584,1254 11747,1659 11105,2301 10263,2059 "/>
   </g>
  </g>
  <path class="fil5" d="M11377 754c276,276 276,724 0,1000 -277,276 -725,276 -1001,0 -276,-276 -276,-724 0,-1000 276,-277 724,-277 1001,0zm-111 110c215,215 215,564 0,780 -215,215 -564,215 -779,0 -215,-216 -215,-565 0,-780 215,-215 564,-215 779,0z"/>
  <path class="fil0" d="M10738 1359l-33 0 0 -123c-12,11 -26,19 -42,24l0 -29c9,-3 18,-8 28,-16 10,-8 17,-17 21,-28l26 0 0 172z"/>
  <polygon id="1" class="fil0" points="10794,1359 10794,1327 10827,1327 10827,1359 "/>
  <path id="2" class="fil0" d="M10937 1359l-32 0 0 -123c-12,11 -27,19 -43,24l0 -29c9,-3 18,-8 28,-16 10,-8 17,-17 21,-28l26 0 0 172z"/>
  <path id="3" class="fil0" d="M10985 1314l32 -4c1,8 4,14 8,19 5,4 10,6 16,6 7,0 13,-2 17,-8 5,-5 7,-12 7,-20 0,-9 -2,-15 -7,-20 -4,-5 -9,-7 -16,-7 -4,0 -9,1 -15,2l4 -26c9,0 15,-2 20,-6 5,-4 7,-10 7,-16 0,-6 -2,-11 -5,-14 -3,-4 -8,-5 -14,-5 -5,0 -10,2 -14,5 -4,4 -6,10 -7,18l-30 -6c2,-10 5,-18 9,-25 4,-6 10,-11 18,-14 7,-4 16,-6 25,-6 16,0 29,6 39,16 8,8 12,18 12,28 0,16 -8,28 -25,37 10,2 18,6 24,14 6,7 9,16 9,26 0,15 -6,28 -17,39 -11,10 -24,15 -41,15 -15,0 -28,-4 -38,-13 -10,-9 -16,-21 -18,-35z"/>
 </g>
</svg>
