<svg width="328" height="368" viewBox="0 0 328 368" fill="none" xmlns="http://www.w3.org/2000/svg">
<g filter="url(#filter0_d_420_562)">
<rect width="150" height="150" rx="16" fill="white" shape-rendering="crispEdges"/>
<rect x="1.5" y="1.5" width="147" height="147" rx="14.5" stroke="#212528" stroke-width="3" shape-rendering="crispEdges"/>
<path d="M54 96H96V91.3333H54V96ZM54 86.6667H96V82H54V86.6667ZM54 77.3333H96V72.6667H54V77.3333ZM54 68H96V63.3333H54V68ZM54 54V58.6667H96V54H54Z" fill="#0074FF"/>
</g>
<g filter="url(#filter1_d_420_562)">
<rect x="174" y="40" width="150" height="150" rx="16" fill="white" shape-rendering="crispEdges"/>
<rect x="175.5" y="41.5" width="147" height="147" rx="14.5" stroke="#212528" stroke-width="3" shape-rendering="crispEdges"/>
<path d="M266.5 95.1667L263 91.6667L259.5 95.1667L256 91.6667L252.5 95.1667L249 91.6667L245.5 95.1667L242 91.6667L238.5 95.1667L235 91.6667L231.5 95.1667L228 91.6667V138.333L231.5 134.833L235 138.333L238.5 134.833L242 138.333L245.5 134.833L249 138.333L252.5 134.833L256 138.333L259.5 134.833L263 138.333L266.5 134.833L270 138.333V91.6667L266.5 95.1667ZM265.333 131.543H232.667V98.4567H265.333V131.543ZM235 122H263V126.667H235V122ZM235 112.667H263V117.333H235V112.667ZM235 103.333H263V108H235V103.333Z" fill="#D4732B"/>
</g>
<g filter="url(#filter2_d_420_562)">
<rect x="174" y="214" width="150" height="150" rx="16" fill="white" shape-rendering="crispEdges"/>
<rect x="175.5" y="215.5" width="147" height="147" rx="14.5" stroke="#212528" stroke-width="3" shape-rendering="crispEdges"/>
<path d="M264.167 300.667H268.833V301.833H266.5V304.167H268.833V305.333H264.167V307.667H271.167V298.333H264.167V300.667ZM266.5 279.667H268.833V270.333H264.167V272.667H266.5V279.667ZM264.167 286.667H268.367L264.167 291.567V293.667H271.167V291.333H266.967L271.167 286.433V284.333H264.167V286.667ZM226.833 272.667H259.5V277.333H226.833V272.667ZM226.833 300.667H259.5V305.333H226.833V300.667ZM226.833 286.667H259.5V291.333H226.833V286.667Z" fill="#D52BC3"/>
</g>
<g filter="url(#filter3_d_420_562)">
<rect y="174" width="63" height="63" rx="16" fill="white" shape-rendering="crispEdges"/>
<rect x="1.5" y="175.5" width="60" height="60" rx="14.5" stroke="#212528" stroke-width="3" shape-rendering="crispEdges"/>
<path d="M41.5 194.167L39.5 192.167L37.5 194.167L35.5 192.167L33.5 194.167L31.5 192.167L29.5 194.167L27.5 192.167L25.5 194.167L23.5 192.167V210.833H19.5V214.833C19.5 217.047 21.2867 218.833 23.5 218.833H39.5C41.7133 218.833 43.5 217.047 43.5 214.833V192.167L41.5 194.167ZM40.8333 214.833C40.8333 215.567 40.2333 216.167 39.5 216.167C38.7667 216.167 38.1667 215.567 38.1667 214.833V210.833H26.1667V196.167H40.8333V214.833Z" fill="#0074FF"/>
<path d="M35.5 198.833H27.5V201.5H35.5V198.833Z" fill="#0074FF"/>
<path d="M39.5 198.833H36.8333V201.5H39.5V198.833Z" fill="#0074FF"/>
<path d="M35.5 202.833H27.5V205.5H35.5V202.833Z" fill="#0074FF"/>
<path d="M39.5 202.833H36.8333V205.5H39.5V202.833Z" fill="#0074FF"/>
</g>
<g filter="url(#filter4_d_420_562)">
<rect x="87" y="174" width="63" height="63" rx="16" fill="white" shape-rendering="crispEdges"/>
<rect x="88.5" y="175.5" width="60" height="60" rx="14.5" stroke="#212528" stroke-width="3" shape-rendering="crispEdges"/>
<path d="M128.5 194.167L126.5 192.167L124.5 194.167L122.5 192.167L120.5 194.167L118.5 192.167L116.5 194.167L114.5 192.167L112.5 194.167L110.5 192.167V210.833H106.5V214.833C106.5 217.047 108.287 218.833 110.5 218.833H126.5C128.713 218.833 130.5 217.047 130.5 214.833V192.167L128.5 194.167ZM127.833 214.833C127.833 215.567 127.233 216.167 126.5 216.167C125.767 216.167 125.167 215.567 125.167 214.833V210.833H113.167V196.167H127.833V214.833Z" fill="#0074FF"/>
<path d="M122.5 198.833H114.5V201.5H122.5V198.833Z" fill="#0074FF"/>
<path d="M126.5 198.833H123.833V201.5H126.5V198.833Z" fill="#0074FF"/>
<path d="M122.5 202.833H114.5V205.5H122.5V202.833Z" fill="#0074FF"/>
<path d="M126.5 202.833H123.833V205.5H126.5V202.833Z" fill="#0074FF"/>
</g>
<g filter="url(#filter5_d_420_562)">
<rect y="261" width="63" height="63" rx="16" fill="white" shape-rendering="crispEdges"/>
<rect x="1.5" y="262.5" width="60" height="60" rx="14.5" stroke="#212528" stroke-width="3" shape-rendering="crispEdges"/>
<path d="M41.5 281.167L39.5 279.167L37.5 281.167L35.5 279.167L33.5 281.167L31.5 279.167L29.5 281.167L27.5 279.167L25.5 281.167L23.5 279.167V297.833H19.5V301.833C19.5 304.047 21.2867 305.833 23.5 305.833H39.5C41.7133 305.833 43.5 304.047 43.5 301.833V279.167L41.5 281.167ZM40.8333 301.833C40.8333 302.567 40.2333 303.167 39.5 303.167C38.7667 303.167 38.1667 302.567 38.1667 301.833V297.833H26.1667V283.167H40.8333V301.833Z" fill="#0074FF"/>
<path d="M35.5 285.833H27.5V288.5H35.5V285.833Z" fill="#0074FF"/>
<path d="M39.5 285.833H36.8333V288.5H39.5V285.833Z" fill="#0074FF"/>
<path d="M35.5 289.833H27.5V292.5H35.5V289.833Z" fill="#0074FF"/>
<path d="M39.5 289.833H36.8333V292.5H39.5V289.833Z" fill="#0074FF"/>
</g>
<g filter="url(#filter6_d_420_562)">
<rect x="87" y="261" width="63" height="63" rx="16" fill="white" shape-rendering="crispEdges"/>
<rect x="88.5" y="262.5" width="60" height="60" rx="14.5" stroke="#212528" stroke-width="3" shape-rendering="crispEdges"/>
<path d="M128.5 281.167L126.5 279.167L124.5 281.167L122.5 279.167L120.5 281.167L118.5 279.167L116.5 281.167L114.5 279.167L112.5 281.167L110.5 279.167V297.833H106.5V301.833C106.5 304.047 108.287 305.833 110.5 305.833H126.5C128.713 305.833 130.5 304.047 130.5 301.833V279.167L128.5 281.167ZM127.833 301.833C127.833 302.567 127.233 303.167 126.5 303.167C125.767 303.167 125.167 302.567 125.167 301.833V297.833H113.167V283.167H127.833V301.833Z" fill="#0074FF"/>
<path d="M122.5 285.833H114.5V288.5H122.5V285.833Z" fill="#0074FF"/>
<path d="M126.5 285.833H123.833V288.5H126.5V285.833Z" fill="#0074FF"/>
<path d="M122.5 289.833H114.5V292.5H122.5V289.833Z" fill="#0074FF"/>
<path d="M126.5 289.833H123.833V292.5H126.5V289.833Z" fill="#0074FF"/>
</g>
<defs>
<filter id="filter0_d_420_562" x="0" y="0" width="154" height="154" filterUnits="userSpaceOnUse" color-interpolation-filters="sRGB">
<feFlood flood-opacity="0" result="BackgroundImageFix"/>
<feColorMatrix in="SourceAlpha" type="matrix" values="0 0 0 0 0 0 0 0 0 0 0 0 0 0 0 0 0 0 127 0" result="hardAlpha"/>
<feOffset dx="4" dy="4"/>
<feComposite in2="hardAlpha" operator="out"/>
<feColorMatrix type="matrix" values="0 0 0 0 0.667568 0 0 0 0 0.805297 0 0 0 0 0.932432 0 0 0 1 0"/>
<feBlend mode="normal" in2="BackgroundImageFix" result="effect1_dropShadow_420_562"/>
<feBlend mode="normal" in="SourceGraphic" in2="effect1_dropShadow_420_562" result="shape"/>
</filter>
<filter id="filter1_d_420_562" x="174" y="40" width="154" height="154" filterUnits="userSpaceOnUse" color-interpolation-filters="sRGB">
<feFlood flood-opacity="0" result="BackgroundImageFix"/>
<feColorMatrix in="SourceAlpha" type="matrix" values="0 0 0 0 0 0 0 0 0 0 0 0 0 0 0 0 0 0 127 0" result="hardAlpha"/>
<feOffset dx="4" dy="4"/>
<feComposite in2="hardAlpha" operator="out"/>
<feColorMatrix type="matrix" values="0 0 0 0 0.932432 0 0 0 0 0.778811 0 0 0 0 0.667568 0 0 0 1 0"/>
<feBlend mode="normal" in2="BackgroundImageFix" result="effect1_dropShadow_420_562"/>
<feBlend mode="normal" in="SourceGraphic" in2="effect1_dropShadow_420_562" result="shape"/>
</filter>
<filter id="filter2_d_420_562" x="174" y="214" width="154" height="154" filterUnits="userSpaceOnUse" color-interpolation-filters="sRGB">
<feFlood flood-opacity="0" result="BackgroundImageFix"/>
<feColorMatrix in="SourceAlpha" type="matrix" values="0 0 0 0 0 0 0 0 0 0 0 0 0 0 0 0 0 0 127 0" result="hardAlpha"/>
<feOffset dx="4" dy="4"/>
<feComposite in2="hardAlpha" operator="out"/>
<feColorMatrix type="matrix" values="0 0 0 0 0.932432 0 0 0 0 0.667568 0 0 0 0 0.905946 0 0 0 1 0"/>
<feBlend mode="normal" in2="BackgroundImageFix" result="effect1_dropShadow_420_562"/>
<feBlend mode="normal" in="SourceGraphic" in2="effect1_dropShadow_420_562" result="shape"/>
</filter>
<filter id="filter3_d_420_562" x="0" y="174" width="67" height="67" filterUnits="userSpaceOnUse" color-interpolation-filters="sRGB">
<feFlood flood-opacity="0" result="BackgroundImageFix"/>
<feColorMatrix in="SourceAlpha" type="matrix" values="0 0 0 0 0 0 0 0 0 0 0 0 0 0 0 0 0 0 127 0" result="hardAlpha"/>
<feOffset dx="4" dy="4"/>
<feComposite in2="hardAlpha" operator="out"/>
<feColorMatrix type="matrix" values="0 0 0 0 0.666667 0 0 0 0 0.803922 0 0 0 0 0.933333 0 0 0 1 0"/>
<feBlend mode="normal" in2="BackgroundImageFix" result="effect1_dropShadow_420_562"/>
<feBlend mode="normal" in="SourceGraphic" in2="effect1_dropShadow_420_562" result="shape"/>
</filter>
<filter id="filter4_d_420_562" x="87" y="174" width="67" height="67" filterUnits="userSpaceOnUse" color-interpolation-filters="sRGB">
<feFlood flood-opacity="0" result="BackgroundImageFix"/>
<feColorMatrix in="SourceAlpha" type="matrix" values="0 0 0 0 0 0 0 0 0 0 0 0 0 0 0 0 0 0 127 0" result="hardAlpha"/>
<feOffset dx="4" dy="4"/>
<feComposite in2="hardAlpha" operator="out"/>
<feColorMatrix type="matrix" values="0 0 0 0 0.666667 0 0 0 0 0.803922 0 0 0 0 0.933333 0 0 0 1 0"/>
<feBlend mode="normal" in2="BackgroundImageFix" result="effect1_dropShadow_420_562"/>
<feBlend mode="normal" in="SourceGraphic" in2="effect1_dropShadow_420_562" result="shape"/>
</filter>
<filter id="filter5_d_420_562" x="0" y="261" width="67" height="67" filterUnits="userSpaceOnUse" color-interpolation-filters="sRGB">
<feFlood flood-opacity="0" result="BackgroundImageFix"/>
<feColorMatrix in="SourceAlpha" type="matrix" values="0 0 0 0 0 0 0 0 0 0 0 0 0 0 0 0 0 0 127 0" result="hardAlpha"/>
<feOffset dx="4" dy="4"/>
<feComposite in2="hardAlpha" operator="out"/>
<feColorMatrix type="matrix" values="0 0 0 0 0.666667 0 0 0 0 0.803922 0 0 0 0 0.933333 0 0 0 1 0"/>
<feBlend mode="normal" in2="BackgroundImageFix" result="effect1_dropShadow_420_562"/>
<feBlend mode="normal" in="SourceGraphic" in2="effect1_dropShadow_420_562" result="shape"/>
</filter>
<filter id="filter6_d_420_562" x="87" y="261" width="67" height="67" filterUnits="userSpaceOnUse" color-interpolation-filters="sRGB">
<feFlood flood-opacity="0" result="BackgroundImageFix"/>
<feColorMatrix in="SourceAlpha" type="matrix" values="0 0 0 0 0 0 0 0 0 0 0 0 0 0 0 0 0 0 127 0" result="hardAlpha"/>
<feOffset dx="4" dy="4"/>
<feComposite in2="hardAlpha" operator="out"/>
<feColorMatrix type="matrix" values="0 0 0 0 0.666667 0 0 0 0 0.803922 0 0 0 0 0.933333 0 0 0 1 0"/>
<feBlend mode="normal" in2="BackgroundImageFix" result="effect1_dropShadow_420_562"/>
<feBlend mode="normal" in="SourceGraphic" in2="effect1_dropShadow_420_562" result="shape"/>
</filter>
</defs>
</svg>
