<svg xmlns="http://www.w3.org/2000/svg" xmlns:xlink="http://www.w3.org/1999/xlink" width="354.044" height="201" viewBox="0 0 354.044 201"><defs><style>.a,.b,.e{fill:#fff;}.a{stroke:#707070;}.b,.c,.l{stroke:#1a237e;stroke-miterlimit:10;}.b,.c{stroke-linecap:round;stroke-width:2px;}.c{fill:none;}.d{clip-path:url(#a);}.f{fill:#1a237e;}.g{fill:#eef;}.h,.i,.k,.m{fill:#26263a;}.h{font-size:14px;}.h,.k{font-family:Roboto-Bold, Roboto;font-weight:700;}.i{font-size:12px;font-family:Roboto-Regular, Roboto;}.j{clip-path:url(#b);}.k{font-size:11px;}.l{fill:#b8bced;stroke-width:0.5px;}</style><clipPath id="a"><rect class="a" width="154.181" height="185.659"/></clipPath><clipPath id="b"><rect class="a" width="123.721" height="148.178"/></clipPath></defs><g transform="translate(-98 -835)"><g transform="translate(-816 -2656)"><line class="b" x2="323.48" transform="translate(915 3691)"/><line class="c" x2="18.632" transform="translate(1248.412 3691)"/><g class="d" transform="translate(1045.359 3504.346)"><g transform="translate(6.963 11.077)"><path class="e" d="M252.345,407.142h-103.3c-10,0-17.943-8.776-17.943-19.817V158.017c0-11.041,7.946-19.817,17.943-19.817h103.3c10,0,17.943,8.776,17.943,19.817V387.325C270.289,398.366,262.343,407.142,252.345,407.142Z" transform="translate(-131.1 -138.2)"/><path class="f" d="M119.945,266.057H17.751a16.848,16.848,0,0,1-12.584-5.706A20.591,20.591,0,0,1,0,246.453V19.6a20.59,20.59,0,0,1,5.167-13.9A16.848,16.848,0,0,1,17.751,0H119.945a16.849,16.849,0,0,1,12.585,5.706A20.59,20.59,0,0,1,137.7,19.6V246.453a20.59,20.59,0,0,1-5.167,13.9A16.849,16.849,0,0,1,119.945,266.057ZM22.2,5.95a14.84,14.84,0,0,0-11.334,5.426A20.226,20.226,0,0,0,6.217,24.592V240.3a20.225,20.225,0,0,0,4.654,13.215A14.84,14.84,0,0,0,22.2,258.94h92.047a14.841,14.841,0,0,0,11.335-5.426A20.225,20.225,0,0,0,130.24,240.3V24.592a20.225,20.225,0,0,0-4.654-13.215A14.841,14.841,0,0,0,114.251,5.95Z" transform="translate(0 0.962)"/><ellipse class="g" cx="3.447" cy="3.807" rx="3.447" ry="3.807" transform="translate(65.652 246.175)"/><text class="h" transform="translate(69.789 104.085)"><tspan x="-22.62" y="0">Update</tspan></text><text class="i" transform="translate(72.91 128.735)"><tspan x="-38.027" y="0">a new feature </tspan><tspan x="-35.317" y="15">added to the </tspan><tspan x="-15.832" y="30">Giddh</tspan></text></g></g><g class="j" transform="translate(958.819 3541.827)"><path class="e" d="M224.322,343.867H144.9c-7.686,0-13.8-6.711-13.8-15.154V153.354c0-8.443,6.11-15.154,13.8-15.154h79.426c7.686,0,13.8,6.711,13.8,15.154V328.713C238.118,337.156,232.008,343.867,224.322,343.867Z" transform="translate(-123.376 -125.252)"/><path class="f" d="M96.249,212.345h-82a13.551,13.551,0,0,1-10.1-4.554A16.382,16.382,0,0,1,0,196.7V15.646A16.382,16.382,0,0,1,4.146,4.554,13.551,13.551,0,0,1,14.244,0h82a13.552,13.552,0,0,1,10.1,4.554,16.381,16.381,0,0,1,4.146,11.092V196.7a16.382,16.382,0,0,1-4.146,11.092A13.552,13.552,0,0,1,96.249,212.345ZM18.684,5.681c-7.122,0-12.7,6.5-12.7,14.809V191.855c0,8.3,5.579,14.809,12.7,14.809H91.809c7.122,0,12.7-6.5,12.7-14.809V20.49c0-8.3-5.579-14.809-12.7-14.809Z" transform="translate(5.587 9.609)"/><ellipse class="g" cx="2.766" cy="3.038" rx="2.766" ry="3.038" transform="translate(58.269 205.318)"/><path class="e" d="M4.416-.066a3.438,3.438,0,0,0,.042.627A.78.78,0,0,0,4.608.9a.7.7,0,0,0,.31.208,2.338,2.338,0,0,0,.509.115q.307.039.809.054V1.8H1.415V1.281a8.162,8.162,0,0,0,1.034-.1A1.171,1.171,0,0,0,2.922,1,.691.691,0,0,0,3.16.658a2.485,2.485,0,0,0,.075-.724V-5.878A.753.753,0,0,0,3.144-6.3a.3.3,0,0,0-.267-.133,1.291,1.291,0,0,0-.594.236q-.385.236-.952.652l-.287-.552,3.053-2h.359q-.039.688-.039,1.906Z" transform="translate(72.489 58.342)"/><text class="k" transform="translate(59.528 91.546)"><tspan x="-14.215" y="0">Quick</tspan></text><text class="i" transform="translate(62.354 121.211)"><tspan x="-38.326" y="0">Quick Support</tspan></text><g transform="translate(46.526 31.704)"><path class="l" d="M26.183,55.512c2-1.012,2.627-2.044,2.355-4.068a3.377,3.377,0,0,0,3.036-.993,3.227,3.227,0,0,0,.837-3.036,11.454,11.454,0,0,0,1.693-.234,3.227,3.227,0,0,0,1.3-5.391c-1.09-1.09-2.238-2.141-3.367-3.211q-4.437-4.262-8.914-8.5c-.389-.37-.8-.74-1.168-1.109a2.34,2.34,0,0,1-.058-3.25,2.3,2.3,0,0,1,3.25-.1c1.421,1.3,2.822,2.647,4.223,3.97,2.044,1.946,4.087,3.873,6.15,5.819a6.273,6.273,0,0,0,1.907,1.265,2.337,2.337,0,0,0,2.666-.428A6.389,6.389,0,0,0,41.13,35c.681-1.051,1.265-2.16,1.966-3.211a2.767,2.767,0,0,1,4.107-.623,2.8,2.8,0,0,1,.584,3.678c-1.07,1.791-2.16,3.581-3.231,5.372-.525.876-1.051,1.771-1.6,2.627a.555.555,0,0,0-.019.662c.506,1.012.973,2.044,1.479,3.056a6.36,6.36,0,0,1-2.939,8.719q-3.386,1.664-6.831,3.27a6.359,6.359,0,0,1-8.155-2.511A2.079,2.079,0,0,1,26.183,55.512Z" transform="translate(-17.224 -20.207)"/><path class="l" d="M17.573,99.3a2.068,2.068,0,0,1,1.323.6c2.277,2.141,4.574,4.282,6.831,6.442a2.327,2.327,0,0,1-3.211,3.367c-2-1.868-3.97-3.756-5.975-5.625-.272-.253-.564-.506-.837-.778a2.372,2.372,0,0,1-.545-2.608A2.529,2.529,0,0,1,17.573,99.3Z" transform="translate(-12.156 -80.052)"/><path class="l" d="M46.629,87.217a2.1,2.1,0,0,1-1.343,1.791,2.186,2.186,0,0,1-2.452-.311c-1.07-.954-2.082-1.946-3.114-2.939C38.475,84.59,37.249,83.422,36,82.235a2.189,2.189,0,0,1-.7-2.219,2.312,2.312,0,0,1,3.892-1.168c.856.8,1.693,1.6,2.55,2.413,1.285,1.226,2.569,2.452,3.873,3.659A2.742,2.742,0,0,1,46.629,87.217Z" transform="translate(-28.464 -63.045)"/><path class="l" d="M2.885,125.3a2.383,2.383,0,0,1,1.654.759l4.613,4.379c.311.292.642.584.954.9A2.328,2.328,0,1,1,6.895,134.7c-1.81-1.713-3.6-3.425-5.43-5.119a2.5,2.5,0,0,1-.954-2.394A2.321,2.321,0,0,1,2.885,125.3Z" transform="translate(-0.465 -100.992)"/><path class="f" d="M117.522,26.28a1.047,1.047,0,0,1-.934-.545.854.854,0,0,1,.156-1.012,1.644,1.644,0,0,1,.35-.292c.817-.6,1.654-1.226,2.491-1.81a.941.941,0,0,1,1.382.136.925.925,0,0,1-.272,1.362c-.856.642-1.732,1.285-2.608,1.907C117.911,26.125,117.658,26.2,117.522,26.28Z" transform="translate(-93.908 -18.106)"/><path class="f" d="M65.834,12.5a1.013,1.013,0,0,1-.564.973.922.922,0,0,1-1.051-.234c-.74-.973-1.46-1.946-2.141-2.958a.89.89,0,0,1,.272-1.246.927.927,0,0,1,1.265.214c.7.934,1.382,1.868,2.063,2.822C65.756,12.229,65.795,12.424,65.834,12.5Z" transform="translate(-49.965 -7.227)"/><path class="f" d="M105.284,10.346a.907.907,0,0,1-.837-1.323c.156-.389.331-.759.506-1.148.292-.642.564-1.3.856-1.946a.909.909,0,0,1,1.148-.545.9.9,0,0,1,.584,1.207c-.448,1.109-.954,2.2-1.44,3.289A.86.86,0,0,1,105.284,10.346Z" transform="translate(-84.142 -4.371)"/><path class="f" d="M88.479,4.584c.019.681-.311,1.07-.837,1.129a.944.944,0,0,1-1.032-.9c-.136-1.09-.234-2.18-.331-3.27a1.406,1.406,0,0,1,.117-.7.825.825,0,0,1,.934-.428.868.868,0,0,1,.759.759c.1.8.195,1.6.272,2.374C88.421,3.922,88.46,4.292,88.479,4.584Z" transform="translate(-69.574 -0.399)"/></g></g><circle class="f" cx="35" cy="35" r="35" transform="translate(1152.524 3491)"/><g transform="translate(1170.009 3508.009)"><path class="e" d="M56.091,180.6a14.42,14.42,0,0,0,15.082.9c6.66-3.73,9.006-9.534,7.653-17,.392-.1.833-.224,1.281-.344.432-.12.873-.232,1.3-.352a17.412,17.412,0,0,1-4.851,17.331,17.67,17.67,0,0,1-22.39,1.649c-.592.6-1.185,1.2-1.857,1.889-.512-2.578-1.009-5.035-1.513-7.549,2.506.5,4.947.985,7.333,1.465C57.476,179.226,56.8,179.9,56.091,180.6Z" transform="translate(-46.741 -150.696)"/><path class="e" d="M27.505,2.97c.712-.72,1.417-1.425,2.169-2.185.5,2.5.993,4.947,1.5,7.469-2.49-.5-4.947-.985-7.485-1.489.632-.584,1.217-1.121,1.793-1.657l-.1-.168c-4.907-2.706-9.958-3.074-14.857-.224C4.1,8.462,1.889,14.233,3.242,21.51c-.833.224-1.721.464-2.6.7A17.428,17.428,0,0,1,5.884,4.515,17.656,17.656,0,0,1,27.505,2.97Z" transform="translate(0)"/></g></g><g transform="translate(-12597 -439)"><path class="m" d="M45.348,36.439a11.514,11.514,0,0,1-8-3.253l-.269-.239H.507A.523.523,0,0,1,0,32.44V.567H0V.507C0,.448.03.418.06.358A.029.029,0,0,1,.09.328c.03-.03.06-.06.06-.09l.06-.06a.029.029,0,0,0,.03-.03A.092.092,0,0,1,.3.119.562.562,0,0,1,.537.06L25.956,0,51.4.03h.06A.483.483,0,0,1,51.881.6V15.429l.358.269a11.515,11.515,0,0,1-6.892,20.741Zm-10.5-11.37a9.719,9.719,0,0,0,.179,1.85,7.688,7.688,0,0,0,.358,1.253v.03c.03.06.03.119.06.179a3.62,3.62,0,0,0,.149.418,9.188,9.188,0,0,0,.776,1.522v.03l.09.179a10.987,10.987,0,0,0,1.074,1.4h0a.651.651,0,0,0,.119.149,10.407,10.407,0,0,0,7.667,3.342A10.55,10.55,0,0,0,51.2,16.145l-.06-.03-.06-.03c-.03,0-.03-.03-.06-.03a8.273,8.273,0,0,0-1.432-.776l-.448-.179c-.06-.03-.119-.03-.179-.06a7.777,7.777,0,0,0-1.283-.388l-.09-.03c-.119-.03-.269-.06-.388-.09a11.1,11.1,0,0,0-1.909-.179,10.451,10.451,0,0,0-8.712,4.626l-.03.06v.03a10.781,10.781,0,0,0-.925,1.731l-.09.239h0a11.518,11.518,0,0,0-.507,1.731,10.01,10.01,0,0,0-.209,2.119v.149C34.846,25.009,34.846,25.038,34.846,25.068ZM1.014,31.932H36.159l-.776-1.343a11.379,11.379,0,0,1-1.4-4.029v-.03a7.541,7.541,0,0,1-.149-1.612V24.8h0a10.883,10.883,0,0,1,.239-2.208v-.03a10.867,10.867,0,0,1,.656-2.119l.089-.239a16.63,16.63,0,0,1,.955-1.731l.209-.3v-.03a11.521,11.521,0,0,1,9.338-4.8c.09,0,.209.03.358.03.06,0,.149.03.209.03h.06a11.98,11.98,0,0,1,3.67.776l1.223.507V1.462L26.224,16.891a.447.447,0,0,1-.537,0L1.014,1.462ZM25.956,15.877l23.658-14.8H2.267Z" transform="translate(12876.908 1341.398)"/><path class="f" d="M116.728,58.124a9.094,9.094,0,0,0,.167,1.731,7.194,7.194,0,0,0,.335,1.173v.028c.028.056.028.112.056.168a3.392,3.392,0,0,0,.14.391,8.6,8.6,0,0,0,.726,1.424v.028l.084.168a10.28,10.28,0,0,0,1,1.312h0a.609.609,0,0,0,.112.14,9.738,9.738,0,0,0,7.174,3.127,9.871,9.871,0,0,0,5.5-18.038l-.056-.028-.056-.028c-.028,0-.028-.028-.056-.028a7.74,7.74,0,0,0-1.34-.726L130.1,48.8c-.056-.028-.112-.028-.167-.056a7.276,7.276,0,0,0-1.2-.363l-.084-.028c-.112-.028-.251-.056-.363-.084A10.385,10.385,0,0,0,126.5,48.1a9.778,9.778,0,0,0-8.151,4.328l-.028.056v.028a10.086,10.086,0,0,0-.865,1.62l-.084.223h0a10.777,10.777,0,0,0-.475,1.62,9.365,9.365,0,0,0-.2,1.983v.14C116.728,58.068,116.728,58.1,116.728,58.124Z" transform="translate(12795.7 1308.33)"/><path class="e" d="M5.246,1.016a3.561,3.561,0,0,0,.053.712.848.848,0,0,0,.187.39.885.885,0,0,0,.386.236,3.157,3.157,0,0,0,.634.13q.382.045,1.008.061v.594H1.506V2.545a11.14,11.14,0,0,0,1.289-.11,1.544,1.544,0,0,0,.589-.207.788.788,0,0,0,.3-.39,2.581,2.581,0,0,0,.093-.821v-6.6a.793.793,0,0,0-.114-.476.392.392,0,0,0-.333-.15,1.707,1.707,0,0,0-.74.268q-.48.268-1.187.74l-.358-.626,3.8-2.269h.447q-.049.781-.049,2.163Z" transform="translate(12918.046 1368.963)"/></g></g></svg>