<svg xmlns="http://www.w3.org/2000/svg" xmlns:xlink="http://www.w3.org/1999/xlink" width="354.044" height="201" viewBox="0 0 354.044 201"><defs><style>.a,.b,.e{fill:#fff;}.a{stroke:#707070;}.b,.c{stroke:#1a237e;stroke-linecap:round;stroke-miterlimit:10;stroke-width:2px;}.c{fill:none;}.d{clip-path:url(#a);}.f{fill:#1a237e;}.g{fill:#eef;}.h,.i,.k{fill:#26263a;}.h{font-size:14px;}.h,.k{font-family:Roboto-Bold, Roboto;font-weight:700;}.i{font-size:12px;font-family:Roboto-Regular, Roboto;}.j{clip-path:url(#b);}.k{font-size:11px;}</style><clipPath id="a"><rect class="a" width="154.181" height="185.659"/></clipPath><clipPath id="b"><rect class="a" width="123.721" height="148.178"/></clipPath></defs><g transform="translate(-12719 -1995)"><line class="b" x2="323.48" transform="translate(12720 2195)"/><line class="c" x2="18.632" transform="translate(13053.412 2195)"/><g class="d" transform="translate(12850.359 2008.346)"><g transform="translate(6.963 11.077)"><path class="e" d="M252.345,407.142h-103.3c-10,0-17.943-8.776-17.943-19.817V158.017c0-11.041,7.946-19.817,17.943-19.817h103.3c10,0,17.943,8.776,17.943,19.817V387.325C270.289,398.366,262.343,407.142,252.345,407.142Z" transform="translate(-131.1 -138.2)"/><path class="f" d="M119.945,266.057H17.751a16.848,16.848,0,0,1-12.584-5.706A20.591,20.591,0,0,1,0,246.453V19.6a20.59,20.59,0,0,1,5.167-13.9A16.848,16.848,0,0,1,17.751,0H119.945a16.849,16.849,0,0,1,12.585,5.706A20.59,20.59,0,0,1,137.7,19.6V246.453a20.59,20.59,0,0,1-5.167,13.9A16.849,16.849,0,0,1,119.945,266.057ZM22.2,5.95a14.84,14.84,0,0,0-11.334,5.426A20.226,20.226,0,0,0,6.217,24.592V240.3a20.225,20.225,0,0,0,4.654,13.215A14.84,14.84,0,0,0,22.2,258.94h92.047a14.841,14.841,0,0,0,11.335-5.426A20.225,20.225,0,0,0,130.24,240.3V24.592a20.225,20.225,0,0,0-4.654-13.215A14.841,14.841,0,0,0,114.251,5.95Z" transform="translate(0 0.962)"/><ellipse class="g" cx="3.447" cy="3.807" rx="3.447" ry="3.807" transform="translate(65.652 246.175)"/><text class="h" transform="translate(69.789 104.085)"><tspan x="-32.58" y="0">Automatic</tspan></text><text class="i" transform="translate(72.91 128.735)"><tspan x="-33.542" y="0">Update Data</tspan><tspan x="-37.433" y="15">Automatically</tspan><tspan x="-23.918" y="30">On cloud</tspan></text></g></g><g class="j" transform="translate(12763.819 2045.827)"><path class="e" d="M224.322,343.867H144.9c-7.686,0-13.8-6.711-13.8-15.154V153.354c0-8.443,6.11-15.154,13.8-15.154h79.426c7.686,0,13.8,6.711,13.8,15.154V328.713C238.118,337.156,232.008,343.867,224.322,343.867Z" transform="translate(-123.376 -125.252)"/><path class="f" d="M96.249,212.345h-82a13.551,13.551,0,0,1-10.1-4.554A16.382,16.382,0,0,1,0,196.7V15.646A16.382,16.382,0,0,1,4.146,4.554,13.551,13.551,0,0,1,14.244,0h82a13.552,13.552,0,0,1,10.1,4.554,16.381,16.381,0,0,1,4.146,11.092V196.7a16.382,16.382,0,0,1-4.146,11.092A13.552,13.552,0,0,1,96.249,212.345ZM18.684,5.681c-7.122,0-12.7,6.5-12.7,14.809V191.855c0,8.3,5.579,14.809,12.7,14.809H91.809c7.122,0,12.7-6.5,12.7-14.809V20.49c0-8.3-5.579-14.809-12.7-14.809Z" transform="translate(5.587 9.609)"/><ellipse class="g" cx="2.766" cy="3.038" rx="2.766" ry="3.038" transform="translate(58.269 205.318)"/><path class="e" d="M4.416-.066a3.438,3.438,0,0,0,.042.627A.78.78,0,0,0,4.608.9a.7.7,0,0,0,.31.208,2.338,2.338,0,0,0,.509.115q.307.039.809.054V1.8H1.415V1.281a8.162,8.162,0,0,0,1.034-.1A1.171,1.171,0,0,0,2.922,1,.691.691,0,0,0,3.16.658a2.485,2.485,0,0,0,.075-.724V-5.878A.753.753,0,0,0,3.144-6.3a.3.3,0,0,0-.267-.133,1.291,1.291,0,0,0-.594.236q-.385.236-.952.652l-.287-.552,3.053-2h.359q-.039.688-.039,1.906Z" transform="translate(72.489 58.342)"/><text class="k" transform="translate(59.528 91.546)"><tspan x="-17.797" y="0">Access</tspan></text><text class="i" transform="translate(60.354 116.211)"><tspan x="-26.61" y="0">Anywhere</tspan><tspan x="-43.509" y="15">Anytime Access</tspan></text><path class="f" d="M773.553,350a3.42,3.42,0,0,1,3.335,3.335v23.347a3.42,3.42,0,0,1-3.335,3.335H761.879v-3.335h11.673V353.335H743.535v5H740.2v-5A3.42,3.42,0,0,1,743.535,350ZM740.2,361.673a18.29,18.29,0,0,1,13.007,5.336,17.366,17.366,0,0,1,5.336,13.007h-3.335a15,15,0,0,0-4.336-10.673,14.34,14.34,0,0,0-10.673-4.336Zm0,6.671a12.01,12.01,0,0,1,8.338,3.335,10.848,10.848,0,0,1,3.5,8.171H748.7a7.57,7.57,0,0,0-2.5-5.837,8.819,8.819,0,0,0-5.837-2.5v-3.169Zm0,6.671a5.129,5.129,0,0,1,5,5h-5Z" transform="translate(-697.163 -311.836)"/></g><circle class="f" cx="35" cy="35" r="35" transform="translate(12957.524 1995)"/><g transform="translate(12975.009 2012.009)"><path class="e" d="M56.091,180.6a14.42,14.42,0,0,0,15.082.9c6.66-3.73,9.006-9.534,7.653-17,.392-.1.833-.224,1.281-.344.432-.12.873-.232,1.3-.352a17.412,17.412,0,0,1-4.851,17.331,17.67,17.67,0,0,1-22.39,1.649c-.592.6-1.185,1.2-1.857,1.889-.512-2.578-1.009-5.035-1.513-7.549,2.506.5,4.947.985,7.333,1.465C57.476,179.226,56.8,179.9,56.091,180.6Z" transform="translate(-46.741 -150.696)"/><path class="e" d="M27.505,2.97c.712-.72,1.417-1.425,2.169-2.185.5,2.5.993,4.947,1.5,7.469-2.49-.5-4.947-.985-7.485-1.489.632-.584,1.217-1.121,1.793-1.657l-.1-.168c-4.907-2.706-9.958-3.074-14.857-.224C4.1,8.462,1.889,14.233,3.242,21.51c-.833.224-1.721.464-2.6.7A17.428,17.428,0,0,1,5.884,4.515,17.656,17.656,0,0,1,27.505,2.97Z" transform="translate(0)"/></g><path class="f" d="M774.482,570.738a8.638,8.638,0,0,1,6.016,2.917,9,9,0,0,1,2.552,6.2,8.275,8.275,0,0,1-2.734,6.38,9.641,9.641,0,0,1-6.38,2.734h-23.7a9.93,9.93,0,0,1-7.656-3.281,11.255,11.255,0,0,1-3.281-7.656,10.667,10.667,0,0,1,2.734-7.292,10.193,10.193,0,0,1,6.927-3.464,16.244,16.244,0,0,1,5.1-5.469,12.387,12.387,0,0,1,7.109-2.005,13.861,13.861,0,0,1,8.75,3.1A13.29,13.29,0,0,1,774.482,570.738Zm-.729,14.583a5.469,5.469,0,0,0,0-10.937h-2.734v-.911a9.959,9.959,0,0,0-10.026-10.026,9.452,9.452,0,0,0-8.021,4.01,11.337,11.337,0,0,1,5.833,3.828,9.717,9.717,0,0,1,2.188,6.745h-3.646a7.219,7.219,0,1,0-7.292,7.292Z" transform="translate(12168.125 1503.417)"/></g></svg>