<svg xmlns="http://www.w3.org/2000/svg" width="471.323" height="127.388" viewBox="0 0 471.323 127.388"><defs><style>.a,.f{fill:#1a237e;}.b,.e{fill:#fff;}.c{fill:#26263a;font-size:12px;font-family:ArialMT, Arial;}.d{fill:none;}.d,.e,.f{stroke:#1a237e;stroke-width:2px;}.e,.f{stroke-linecap:round;}.e{stroke-miterlimit:10;}.f{stroke-linejoin:round;}</style></defs><g transform="translate(-97.804 -2393.612)"><path class="a" d="M110.391,126.822H1.54A1.1,1.1,0,0,1,.5,125.641V1.681A1.1,1.1,0,0,1,1.54.5H110.391a1.1,1.1,0,0,1,1.04,1.181v123.96A1.1,1.1,0,0,1,110.391,126.822Z" transform="translate(112.17 2393.112)"/><path class="b" d="M103.726,120.094H1.477A1.035,1.035,0,0,1,.5,118.976V1.618A1.035,1.035,0,0,1,1.477.5H103.726a1.035,1.035,0,0,1,.977,1.118V118.976A1.035,1.035,0,0,1,103.726,120.094Z" transform="translate(115.5 2396.476)"/><text class="c" transform="translate(167.203 2488.321)"><tspan x="-26.01" y="0">One Time</tspan><tspan x="-23.678" y="15">Payment</tspan></text><path class="a" d="M110.391,126.822H1.54A1.1,1.1,0,0,1,.5,125.641V1.681A1.1,1.1,0,0,1,1.54.5H110.391a1.1,1.1,0,0,1,1.04,1.181v123.96A1.1,1.1,0,0,1,110.391,126.822Z" transform="translate(266.833 2393.112)"/><path class="b" d="M103.726,120.094H1.477A1.035,1.035,0,0,1,.5,118.976V1.618A1.035,1.035,0,0,1,1.477.5H103.726a1.035,1.035,0,0,1,.977,1.118V118.976A1.035,1.035,0,0,1,103.726,120.094Z" transform="translate(270.5 2396.476)"/><text class="c" transform="translate(322.866 2488.334)"><tspan x="-35.681" y="0">Automatically</tspan><tspan x="-19.348" y="15">Update</tspan></text><path class="a" d="M109.787,126.822H1.534A1.1,1.1,0,0,1,.5,125.641V1.681A1.1,1.1,0,0,1,1.534.5H109.787a1.1,1.1,0,0,1,1.034,1.181v123.96A1.1,1.1,0,0,1,109.787,126.822Z" transform="translate(421.106 2393.112)"/><path class="b" d="M103.726,120.094H1.477A1.035,1.035,0,0,1,.5,118.976V1.618A1.035,1.035,0,0,1,1.477.5H103.726a1.035,1.035,0,0,1,.977,1.118V118.976A1.035,1.035,0,0,1,103.726,120.094Z" transform="translate(424.5 2396.542)"/><text class="c" transform="translate(477.596 2488.334)"><tspan x="-12.337" y="0">Cost</tspan><tspan x="-18.346" y="15">Saving</tspan></text><line class="d" x2="43.899" transform="translate(223.601 2455.001)"/><line class="d" x2="43.236" transform="translate(378.264 2455.001)"/><line class="e" x2="440.523" transform="translate(98.804 2520)"/><line class="e" x2="18.133" transform="translate(549.994 2520)"/><path class="a" d="M0,21.114a8.044,8.044,0,0,1,3.272-2.6,3.352,3.352,0,0,1,3.52.7A8.966,8.966,0,0,1,9.006,22.5c.409.933.756,1.894,1.129,2.845.053.142.116.293.2.516C16.98,15.451,25.159,6.641,35.622,0c.453.489.845.916,1.271,1.378-.711.578-1.4,1.111-2.062,1.671A73.819,73.819,0,0,0,22.456,16.358,132.113,132.113,0,0,0,13.486,30.8a2.377,2.377,0,0,1-.649.685c-1.476,1.076-2.96,2.125-4.436,3.183-.142.1-.276.2-.445.329C6.5,29.657,4.321,24.794,0,21.114Z" transform="translate(149.5 2422)"/><path class="a" d="M13.814,37.187c-.047,0-.076,0-.171-.123-.587-.7-1.184-1.4-1.772-2.094-1.838-2.179-3.743-4.434-5.647-6.623C4.291,26.139,2.292,23.95.35,21.828a1.029,1.029,0,0,1-.36-.834c.028-.644.028-1.289.019-1.914,0-.3-.009-.625,0-.929a.463.463,0,0,1,.009-.123c.028,0,.076-.009.133-.009.474-.009.948-.009,1.412-.009C2.652,18,3.77,18,4.888,17.924A9.889,9.889,0,0,0,10.318,16.1a6.048,6.048,0,0,0,2.208-3.079,1.4,1.4,0,0,0,.066-.294c.009-.028.009-.057.019-.085l.227-1.137H.255a1.542,1.542,0,0,1-.227-.009c0-.047-.009-.114-.009-.208V8.837h12.9l-.767-1.4c-.028-.057-.057-.1-.085-.152-.057-.114-.123-.227-.2-.351A6.011,6.011,0,0,0,8.83,4.592a13.913,13.913,0,0,0-5.069-.767H.264c-.114,0-.2-.009-.256-.009A1.918,1.918,0,0,1,0,3.55V2.631C0,1.92.009,1.191-.01.461A.678.678,0,0,1,0,.3H22.787A.589.589,0,0,1,22.8.452c-.009.5-.009.995-.009,1.478v.843a1.036,1.036,0,0,1-.009.19c-.047,0-.1.009-.18.009H14.714l.929,1.459c.085.142.18.265.256.379a2.785,2.785,0,0,1,.3.493c.313.749.635,1.573.995,2.587a1.3,1.3,0,0,0,1.317.966h.019c.616-.009,1.279-.009,2.075-.009h2.208v2.539a.5.5,0,0,1-.009.123c-.038,0-.076.009-.133.009H20.664c-.805,0-1.459,0-2.075-.009H18.57a1.25,1.25,0,0,0-1.317,1.1,9.166,9.166,0,0,1-3.108,5.524A11.876,11.876,0,0,1,8.754,20.7c-.379.085-.777.152-1.194.227-.2.038-.407.076-.616.114l-1.639.3,1.1,1.251c.038.047.076.085.114.133l.237.265c4.226,4.576,8.262,9.485,12.166,14.222-.862,0-1.715-.009-2.568-.009-.881-.019-1.724-.019-2.539-.019Z" transform="translate(465.512 2421.2)"/><g transform="translate(-2033.196 2050.612)"><path class="a" d="M2388.774,386.674c0,1.5-7.774,6.646-7.774,0,0-8.9,5.768-15.674,15.172-15.674.376,0,.376,0,.125.125C2394.793,372.129,2388.774,374.762,2388.774,386.674Z" transform="translate(-37.608)"/><path class="a" d="M2338,500l9.279,11.787L2356.558,500Z" transform="translate(0 -112.824)"/><path class="f" d="M2338,500l9.279,11.787L2356.558,500ZM2338,500Z" transform="translate(0 -112.824)"/><path class="a" d="M2487.3,541.862c0-1.5,7.774-6.646,7.774,0,0,8.9-5.768,15.674-15.172,15.674-.376,0-.376,0-.125-.125C2481.286,556.407,2487.3,553.774,2487.3,541.862Z" transform="translate(-123.85 -146.536)"/><path class="a" d="M2516.558,478.787,2507.279,467,2498,478.787Z" transform="translate(-139.937 -83.962)"/><path class="f" d="M2516.558,478.787,2507.279,467,2498,478.787ZM2516.558,478.787Z" transform="translate(-139.937 -83.962)"/></g></g></svg>