<svg width="279" height="277" viewBox="0 0 279 277" fill="none" xmlns="http://www.w3.org/2000/svg">
<g filter="url(#filter0_d_412_147)">
<rect x="3" y="3" width="225.287" height="225.287" rx="16.092" fill="white" shape-rendering="crispEdges"/>
<rect x="1.5" y="1.5" width="228.287" height="228.287" rx="17.592" stroke="#212528" stroke-width="3" shape-rendering="crispEdges"/>
<path d="M153.359 54.3764L145.816 46.8333L138.273 54.3764L130.73 46.8333L123.187 54.3764L115.644 46.8333L108.101 54.3764L100.557 46.8333L93.0144 54.3764L85.4713 46.8333V117.236H70.3851V132.322C70.3851 140.67 77.1236 147.408 85.4713 147.408H145.816C154.164 147.408 160.902 140.67 160.902 132.322V46.8333L153.359 54.3764ZM150.845 132.322C150.845 135.088 148.582 137.351 145.816 137.351C143.05 137.351 140.787 135.088 140.787 132.322V117.236H95.5287V61.9195H150.845V132.322Z" fill="#0074FF"/>
<path d="M130.73 71.977H100.557V82.0345H130.73V71.977Z" fill="#0074FF"/>
<path d="M145.816 71.977H135.759V82.0345H145.816V71.977Z" fill="#0074FF"/>
<path d="M130.73 87.0632H100.557V97.1207H130.73V87.0632Z" fill="#0074FF"/>
<path d="M145.816 87.0632H135.759V97.1207H145.816V87.0632Z" fill="#0074FF"/>
<path d="M67.5553 170.957V188.511H64.3752V170.957H67.5553ZM73.9648 180.797V188.511H70.8618V175.345H73.8276V177.583H73.9819C74.2848 176.845 74.7676 176.26 75.4305 175.825C76.0991 175.391 76.9249 175.174 77.9077 175.174C78.8163 175.174 79.6078 175.368 80.2821 175.757C80.9621 176.145 81.4879 176.708 81.8593 177.445C82.2365 178.183 82.4222 179.077 82.4165 180.128V188.511H79.3135V180.608C79.3135 179.728 79.0849 179.04 78.6278 178.543C78.1763 178.045 77.5506 177.797 76.7506 177.797C76.2077 177.797 75.7248 177.917 75.3019 178.157C74.8848 178.391 74.5562 178.731 74.3162 179.177C74.0819 179.623 73.9648 180.163 73.9648 180.797ZM96.8598 175.345L92.1711 188.511H88.7424L84.0537 175.345H87.3623L90.3882 185.126H90.5253L93.5597 175.345H96.8598ZM104.302 188.769C103.016 188.769 101.902 188.486 100.959 187.92C100.016 187.354 99.2849 186.563 98.7649 185.546C98.2506 184.528 97.9934 183.34 97.9934 181.98C97.9934 180.62 98.2506 179.428 98.7649 178.405C99.2849 177.383 100.016 176.588 100.959 176.022C101.902 175.457 103.016 175.174 104.302 175.174C105.588 175.174 106.702 175.457 107.645 176.022C108.588 176.588 109.317 177.383 109.831 178.405C110.351 179.428 110.611 180.62 110.611 181.98C110.611 183.34 110.351 184.528 109.831 185.546C109.317 186.563 108.588 187.354 107.645 187.92C106.702 188.486 105.588 188.769 104.302 188.769ZM104.319 186.283C105.016 186.283 105.599 186.091 106.068 185.709C106.537 185.32 106.885 184.8 107.114 184.148C107.348 183.497 107.465 182.771 107.465 181.971C107.465 181.166 107.348 180.437 107.114 179.785C106.885 179.128 106.537 178.605 106.068 178.217C105.599 177.828 105.016 177.634 104.319 177.634C103.605 177.634 103.011 177.828 102.536 178.217C102.068 178.605 101.716 179.128 101.482 179.785C101.254 180.437 101.139 181.166 101.139 181.971C101.139 182.771 101.254 183.497 101.482 184.148C101.716 184.8 102.068 185.32 102.536 185.709C103.011 186.091 103.605 186.283 104.319 186.283ZM113.245 188.511V175.345H116.348V188.511H113.245ZM114.805 173.477C114.313 173.477 113.89 173.314 113.536 172.988C113.182 172.657 113.005 172.26 113.005 171.797C113.005 171.328 113.182 170.931 113.536 170.605C113.89 170.274 114.313 170.108 114.805 170.108C115.302 170.108 115.725 170.274 116.073 170.605C116.428 170.931 116.605 171.328 116.605 171.797C116.605 172.26 116.428 172.657 116.073 172.988C115.725 173.314 115.302 173.477 114.805 173.477ZM125.281 188.769C123.967 188.769 122.838 188.48 121.896 187.903C120.958 187.326 120.236 186.529 119.727 185.511C119.224 184.488 118.973 183.311 118.973 181.98C118.973 180.643 119.23 179.463 119.744 178.44C120.258 177.411 120.984 176.611 121.921 176.04C122.864 175.462 123.979 175.174 125.264 175.174C126.333 175.174 127.279 175.371 128.102 175.765C128.93 176.154 129.59 176.705 130.082 177.42C130.573 178.128 130.853 178.957 130.922 179.905H127.956C127.836 179.271 127.55 178.743 127.099 178.32C126.653 177.891 126.056 177.677 125.307 177.677C124.673 177.677 124.116 177.848 123.636 178.191C123.156 178.528 122.781 179.014 122.513 179.648C122.25 180.283 122.118 181.043 122.118 181.928C122.118 182.826 122.25 183.597 122.513 184.243C122.776 184.883 123.144 185.377 123.619 185.726C124.099 186.069 124.661 186.24 125.307 186.24C125.764 186.24 126.173 186.154 126.533 185.983C126.899 185.806 127.204 185.551 127.45 185.22C127.696 184.888 127.864 184.486 127.956 184.011H130.922C130.847 184.943 130.573 185.769 130.099 186.489C129.624 187.203 128.979 187.763 128.162 188.169C127.344 188.569 126.384 188.769 125.281 188.769ZM133.47 188.511V175.345H136.573V188.511H133.47ZM135.03 173.477C134.538 173.477 134.115 173.314 133.761 172.988C133.407 172.657 133.23 172.26 133.23 171.797C133.23 171.328 133.407 170.931 133.761 170.605C134.115 170.274 134.538 170.108 135.03 170.108C135.527 170.108 135.95 170.274 136.298 170.605C136.653 170.931 136.83 171.328 136.83 171.797C136.83 172.26 136.653 172.657 136.298 172.988C135.95 173.314 135.527 173.477 135.03 173.477ZM142.866 180.797V188.511H139.763V175.345H142.729V177.583H142.883C143.186 176.845 143.669 176.26 144.332 175.825C145.001 175.391 145.826 175.174 146.809 175.174C147.718 175.174 148.509 175.368 149.184 175.757C149.864 176.145 150.389 176.708 150.761 177.445C151.138 178.183 151.324 179.077 151.318 180.128V188.511H148.215V180.608C148.215 179.728 147.986 179.04 147.529 178.543C147.078 178.045 146.452 177.797 145.652 177.797C145.109 177.797 144.626 177.917 144.203 178.157C143.786 178.391 143.458 178.731 143.218 179.177C142.983 179.623 142.866 180.163 142.866 180.797ZM160.198 193.723C159.084 193.723 158.127 193.572 157.327 193.269C156.527 192.972 155.884 192.572 155.398 192.069C154.912 191.566 154.575 191.009 154.387 190.397L157.181 189.72C157.307 189.977 157.49 190.232 157.73 190.483C157.97 190.74 158.293 190.952 158.698 191.117C159.11 191.289 159.627 191.374 160.25 191.374C161.13 191.374 161.858 191.16 162.435 190.732C163.013 190.309 163.301 189.612 163.301 188.64V186.146H163.147C162.987 186.466 162.753 186.794 162.444 187.131C162.141 187.469 161.738 187.751 161.235 187.98C160.738 188.209 160.113 188.323 159.358 188.323C158.347 188.323 157.43 188.086 156.607 187.611C155.79 187.131 155.138 186.417 154.652 185.469C154.172 184.514 153.932 183.32 153.932 181.886C153.932 180.44 154.172 179.22 154.652 178.225C155.138 177.225 155.792 176.468 156.615 175.954C157.438 175.434 158.355 175.174 159.367 175.174C160.138 175.174 160.773 175.305 161.27 175.568C161.773 175.825 162.173 176.137 162.47 176.503C162.767 176.863 162.993 177.203 163.147 177.523H163.318V175.345H166.378V188.726C166.378 189.852 166.11 190.783 165.573 191.52C165.036 192.257 164.301 192.809 163.37 193.174C162.438 193.54 161.381 193.723 160.198 193.723ZM160.224 185.889C160.881 185.889 161.441 185.729 161.904 185.409C162.367 185.089 162.718 184.628 162.958 184.028C163.198 183.428 163.318 182.708 163.318 181.868C163.318 181.04 163.198 180.314 162.958 179.691C162.724 179.068 162.375 178.585 161.913 178.243C161.455 177.894 160.893 177.72 160.224 177.72C159.533 177.72 158.955 177.9 158.493 178.26C158.03 178.62 157.681 179.114 157.447 179.743C157.212 180.365 157.095 181.074 157.095 181.868C157.095 182.674 157.212 183.38 157.447 183.986C157.687 184.586 158.038 185.054 158.501 185.391C158.97 185.723 159.544 185.889 160.224 185.889Z" fill="#212528"/>
</g>
<g filter="url(#filter1_d_412_147)">
<rect x="49.4253" y="47" width="225.287" height="225.287" rx="16.092" fill="white" shape-rendering="crispEdges"/>
<rect x="50.9253" y="48.5" width="222.287" height="222.287" rx="14.592" stroke="#212528" stroke-width="3" shape-rendering="crispEdges"/>
<path d="M199.784 98.3764L192.241 90.8333L184.698 98.3764L177.155 90.8333L169.612 98.3764L162.069 90.8333L154.526 98.3764L146.983 90.8333L139.44 98.3764L131.897 90.8333V161.236H116.81V176.322C116.81 184.67 123.549 191.408 131.897 191.408H192.241C200.589 191.408 207.328 184.67 207.328 176.322V90.8333L199.784 98.3764ZM197.27 176.322C197.27 179.088 195.007 181.351 192.241 181.351C189.476 181.351 187.213 179.088 187.213 176.322V161.236H141.954V105.92H197.27V176.322Z" fill="#0074FF"/>
<path d="M177.155 115.977H146.983V126.034H177.155V115.977Z" fill="#0074FF"/>
<path d="M192.241 115.977H182.184V126.034H192.241V115.977Z" fill="#0074FF"/>
<path d="M177.155 131.063H146.983V141.121H177.155V131.063Z" fill="#0074FF"/>
<path d="M192.241 131.063H182.184V141.121H192.241V131.063Z" fill="#0074FF"/>
<path d="M114.249 232.511H108.3V214.957H114.369C116.112 214.957 117.609 215.308 118.861 216.011C120.118 216.708 121.084 217.711 121.758 219.02C122.432 220.328 122.769 221.894 122.769 223.717C122.769 225.546 122.429 227.117 121.749 228.431C121.075 229.746 120.101 230.754 118.827 231.457C117.558 232.16 116.032 232.511 114.249 232.511ZM111.481 229.76H114.095C115.318 229.76 116.338 229.537 117.155 229.091C117.972 228.64 118.587 227.968 118.998 227.077C119.409 226.18 119.615 225.06 119.615 223.717C119.615 222.374 119.409 221.26 118.998 220.374C118.587 219.482 117.978 218.817 117.172 218.377C116.372 217.931 115.378 217.708 114.189 217.708H111.481V229.76ZM134.046 226.974V219.345H137.149V232.511H134.14V230.171H134.003C133.706 230.909 133.217 231.511 132.537 231.98C131.863 232.449 131.031 232.683 130.043 232.683C129.18 232.683 128.417 232.491 127.754 232.109C127.097 231.72 126.582 231.157 126.211 230.42C125.84 229.677 125.654 228.78 125.654 227.728V219.345H128.757V227.248C128.757 228.083 128.985 228.746 129.443 229.237C129.9 229.729 130.5 229.974 131.243 229.974C131.7 229.974 132.143 229.863 132.571 229.64C133 229.417 133.351 229.086 133.626 228.646C133.906 228.2 134.046 227.643 134.046 226.974ZM140.339 237.449V219.345H143.391V221.523H143.571C143.731 221.203 143.957 220.863 144.248 220.503C144.539 220.137 144.934 219.825 145.431 219.568C145.928 219.305 146.562 219.174 147.334 219.174C148.351 219.174 149.268 219.434 150.085 219.954C150.908 220.468 151.56 221.231 152.04 222.243C152.525 223.248 152.768 224.483 152.768 225.946C152.768 227.391 152.531 228.62 152.057 229.631C151.583 230.643 150.937 231.414 150.12 231.946C149.303 232.477 148.377 232.743 147.342 232.743C146.588 232.743 145.962 232.617 145.465 232.366C144.968 232.114 144.568 231.811 144.265 231.457C143.968 231.097 143.737 230.757 143.571 230.437H143.442V237.449H140.339ZM143.382 225.928C143.382 226.78 143.502 227.526 143.742 228.166C143.988 228.806 144.339 229.306 144.797 229.666C145.26 230.02 145.82 230.197 146.477 230.197C147.162 230.197 147.737 230.014 148.2 229.649C148.662 229.277 149.011 228.771 149.245 228.131C149.485 227.486 149.605 226.751 149.605 225.928C149.605 225.111 149.488 224.385 149.254 223.751C149.02 223.117 148.671 222.62 148.208 222.26C147.745 221.9 147.168 221.72 146.477 221.72C145.814 221.72 145.251 221.894 144.788 222.243C144.325 222.591 143.974 223.08 143.734 223.708C143.499 224.337 143.382 225.077 143.382 225.928ZM158.529 214.957V232.511H155.426V214.957H158.529ZM161.719 232.511V219.345H164.822V232.511H161.719ZM163.279 217.477C162.788 217.477 162.365 217.314 162.011 216.988C161.656 216.657 161.479 216.26 161.479 215.797C161.479 215.328 161.656 214.931 162.011 214.605C162.365 214.274 162.788 214.108 163.279 214.108C163.777 214.108 164.199 214.274 164.548 214.605C164.902 214.931 165.079 215.328 165.079 215.797C165.079 216.26 164.902 216.657 164.548 216.988C164.199 217.314 163.777 217.477 163.279 217.477ZM173.756 232.769C172.442 232.769 171.313 232.48 170.37 231.903C169.433 231.326 168.71 230.529 168.202 229.511C167.699 228.488 167.447 227.311 167.447 225.98C167.447 224.643 167.705 223.463 168.219 222.44C168.733 221.411 169.459 220.611 170.396 220.04C171.339 219.462 172.453 219.174 173.739 219.174C174.808 219.174 175.753 219.371 176.576 219.765C177.405 220.154 178.065 220.705 178.556 221.42C179.048 222.128 179.328 222.957 179.396 223.905H176.431C176.311 223.271 176.025 222.743 175.573 222.32C175.128 221.891 174.53 221.677 173.782 221.677C173.148 221.677 172.59 221.848 172.11 222.191C171.63 222.528 171.256 223.014 170.987 223.648C170.725 224.283 170.593 225.043 170.593 225.928C170.593 226.826 170.725 227.597 170.987 228.243C171.25 228.883 171.619 229.377 172.093 229.726C172.573 230.069 173.136 230.24 173.782 230.24C174.239 230.24 174.648 230.154 175.008 229.983C175.373 229.806 175.679 229.551 175.925 229.22C176.171 228.888 176.339 228.486 176.431 228.011H179.396C179.322 228.943 179.048 229.769 178.573 230.489C178.099 231.203 177.453 231.763 176.636 232.169C175.819 232.569 174.859 232.769 173.756 232.769ZM185.733 232.777C184.899 232.777 184.147 232.629 183.479 232.331C182.816 232.029 182.29 231.583 181.901 230.994C181.519 230.406 181.327 229.68 181.327 228.817C181.327 228.074 181.464 227.46 181.739 226.974C182.013 226.488 182.387 226.1 182.861 225.808C183.336 225.517 183.87 225.297 184.464 225.148C185.064 224.994 185.684 224.883 186.324 224.814C187.096 224.734 187.722 224.663 188.202 224.6C188.682 224.531 189.03 224.428 189.247 224.291C189.47 224.148 189.582 223.928 189.582 223.631V223.58C189.582 222.934 189.39 222.434 189.007 222.08C188.625 221.725 188.073 221.548 187.353 221.548C186.593 221.548 185.99 221.714 185.544 222.045C185.104 222.377 184.807 222.768 184.653 223.22L181.756 222.808C181.984 222.008 182.361 221.34 182.887 220.803C183.413 220.26 184.056 219.854 184.816 219.585C185.576 219.311 186.416 219.174 187.336 219.174C187.97 219.174 188.602 219.248 189.23 219.397C189.859 219.545 190.433 219.791 190.953 220.134C191.473 220.471 191.89 220.931 192.205 221.514C192.525 222.097 192.685 222.825 192.685 223.7V232.511H189.702V230.703H189.599C189.41 231.069 189.145 231.411 188.802 231.731C188.464 232.046 188.039 232.3 187.524 232.494C187.016 232.683 186.419 232.777 185.733 232.777ZM186.539 230.497C187.162 230.497 187.702 230.374 188.159 230.129C188.616 229.877 188.967 229.546 189.213 229.134C189.465 228.723 189.59 228.274 189.59 227.788V226.237C189.493 226.317 189.327 226.391 189.093 226.46C188.865 226.528 188.607 226.588 188.322 226.64C188.036 226.691 187.753 226.737 187.473 226.777C187.193 226.817 186.95 226.851 186.744 226.88C186.282 226.943 185.867 227.046 185.502 227.188C185.136 227.331 184.847 227.531 184.636 227.788C184.424 228.04 184.319 228.366 184.319 228.766C184.319 229.337 184.527 229.769 184.944 230.06C185.362 230.351 185.893 230.497 186.539 230.497ZM202.379 219.345V221.745H194.81V219.345H202.379ZM196.679 216.191H199.782V228.551C199.782 228.969 199.845 229.289 199.971 229.511C200.102 229.729 200.273 229.877 200.485 229.957C200.696 230.037 200.931 230.077 201.188 230.077C201.382 230.077 201.559 230.063 201.719 230.034C201.885 230.006 202.011 229.98 202.096 229.957L202.619 232.383C202.454 232.44 202.216 232.503 201.908 232.571C201.605 232.64 201.233 232.68 200.793 232.691C200.016 232.714 199.316 232.597 198.693 232.34C198.071 232.077 197.576 231.671 197.21 231.123C196.85 230.574 196.673 229.889 196.679 229.066V216.191ZM210.662 232.769C209.342 232.769 208.202 232.494 207.242 231.946C206.287 231.391 205.553 230.609 205.039 229.597C204.524 228.58 204.267 227.383 204.267 226.006C204.267 224.651 204.524 223.463 205.039 222.44C205.559 221.411 206.284 220.611 207.216 220.04C208.147 219.462 209.242 219.174 210.499 219.174C211.31 219.174 212.076 219.305 212.796 219.568C213.522 219.825 214.162 220.225 214.716 220.768C215.276 221.311 215.716 222.003 216.036 222.843C216.356 223.677 216.516 224.671 216.516 225.826V226.777H205.724V224.686H213.542C213.536 224.091 213.407 223.563 213.156 223.1C212.905 222.631 212.553 222.263 212.102 221.994C211.656 221.725 211.136 221.591 210.542 221.591C209.907 221.591 209.35 221.745 208.87 222.054C208.39 222.357 208.016 222.757 207.747 223.254C207.484 223.745 207.35 224.285 207.344 224.874V226.7C207.344 227.466 207.484 228.123 207.764 228.671C208.044 229.214 208.436 229.631 208.939 229.923C209.442 230.209 210.03 230.351 210.705 230.351C211.156 230.351 211.565 230.289 211.93 230.163C212.296 230.031 212.613 229.84 212.882 229.589C213.15 229.337 213.353 229.026 213.49 228.654L216.388 228.98C216.205 229.746 215.856 230.414 215.342 230.986C214.833 231.551 214.182 231.991 213.387 232.306C212.593 232.614 211.685 232.769 210.662 232.769Z" fill="#212528"/>
</g>
<rect x="7" y="16" width="120.69" height="120.69" rx="8" fill="white"/>
<path d="M83.6882 41.1437H61.0589L86.2026 76.3448L61.0589 111.546H83.6882L108.832 76.3448L83.6882 41.1437Z" fill="#F2CA55"/>
<path d="M48.4871 41.1437H25.8578L51.0014 76.3448L25.8578 111.546H48.4871L73.6307 76.3448L48.4871 41.1437Z" fill="#F2CA55"/>
<defs>
<filter id="filter0_d_412_147" x="0" y="0" width="235.31" height="235.31" filterUnits="userSpaceOnUse" color-interpolation-filters="sRGB">
<feFlood flood-opacity="0" result="BackgroundImageFix"/>
<feColorMatrix in="SourceAlpha" type="matrix" values="0 0 0 0 0 0 0 0 0 0 0 0 0 0 0 0 0 0 127 0" result="hardAlpha"/>
<feOffset dx="4.02299" dy="4.02299"/>
<feComposite in2="hardAlpha" operator="out"/>
<feColorMatrix type="matrix" values="0 0 0 0 0.667568 0 0 0 0 0.805297 0 0 0 0 0.932432 0 0 0 1 0"/>
<feBlend mode="normal" in2="BackgroundImageFix" result="effect1_dropShadow_412_147"/>
<feBlend mode="normal" in="SourceGraphic" in2="effect1_dropShadow_412_147" result="shape"/>
</filter>
<filter id="filter1_d_412_147" x="49.4253" y="47" width="229.31" height="229.31" filterUnits="userSpaceOnUse" color-interpolation-filters="sRGB">
<feFlood flood-opacity="0" result="BackgroundImageFix"/>
<feColorMatrix in="SourceAlpha" type="matrix" values="0 0 0 0 0 0 0 0 0 0 0 0 0 0 0 0 0 0 127 0" result="hardAlpha"/>
<feOffset dx="4.02299" dy="4.02299"/>
<feComposite in2="hardAlpha" operator="out"/>
<feColorMatrix type="matrix" values="0 0 0 0 0.667568 0 0 0 0 0.805297 0 0 0 0 0.932432 0 0 0 1 0"/>
<feBlend mode="normal" in2="BackgroundImageFix" result="effect1_dropShadow_412_147"/>
<feBlend mode="normal" in="SourceGraphic" in2="effect1_dropShadow_412_147" result="shape"/>
</filter>
</defs>
</svg>
