<svg xmlns="http://www.w3.org/2000/svg" width="391.296" height="201" viewBox="0 0 391.296 201"><defs><style>.a,.d{fill:#1a237e;}.b,.e,.g{fill:#fff;}.b,.c{stroke:#1a237e;stroke-linecap:round;stroke-miterlimit:10;stroke-width:2px;}.c,.j{fill:none;}.d{font-size:19px;font-family:Roboto-Medium, Roboto;font-weight:500;}.f{font-size:13px;font-family:Calibri;}.g{stroke:#707070;stroke-width:0.5px;}.h{fill:#5a5a5a;}.i{stroke:none;}</style></defs><g transform="translate(-13176 -1422)"><path class="a" d="M687.728,85.3H411.637A10.848,10.848,0,0,0,400.6,95.9V262.63a10.848,10.848,0,0,0,11.037,10.6H687.728a10.848,10.848,0,0,0,11.037-10.6V95.9A10.848,10.848,0,0,0,687.728,85.3Zm.64,168.263c0,5.839-5.119,10.6-11.357,10.6H422.195c-6.238,0-11.357-4.764-11.357-10.6v-148.9c0-5.839,5.119-10.6,11.357-10.6H677.171c6.239,0,11.357,4.764,11.357,10.6v148.9Z" transform="translate(12814.457 1348.696)"/><line class="b" x2="353.493" transform="translate(13177 1622)"/><line class="c" x2="23.354" transform="translate(13542.941 1622)"/><circle class="a" cx="35" cy="35" r="35" transform="translate(13471.524 1422)"/><text class="d" transform="translate(13239 1474)"><tspan x="0" y="0">Invite User</tspan></text><g transform="translate(13493.057 1441.916)"><g transform="translate(0.4 0.6)"><g transform="translate(0 0)"><path class="e" d="M26.015,6a5.253,5.253,0,0,0-1.524-3.815,5.08,5.08,0,0,0-7.38,0A5.335,5.335,0,0,0,15.571,6a8.528,8.528,0,0,0,.06.858L9.309,10.786A4.98,4.98,0,0,0,5.631,9.214,4.979,4.979,0,0,0,1.941,10.8,5.325,5.325,0,0,0,.4,14.622a5.3,5.3,0,0,0,1.541,3.815,4.932,4.932,0,0,0,3.69,1.572,4.943,4.943,0,0,0,3.7-1.572.276.276,0,0,0,.044-.066l6.36,3.562a6.231,6.231,0,0,0-.154,1.3,5.312,5.312,0,0,0,1.541,3.815,5.116,5.116,0,0,0,7.38,0,5.536,5.536,0,0,0,0-7.63,5.068,5.068,0,0,0-7.38,0,.9.9,0,0,1-.11.093L10.7,15.986a5.265,5.265,0,0,0,.154-1.369,5.439,5.439,0,0,0-.186-1.479l6.064-3.754c.121.148.252.291.384.429a5.116,5.116,0,0,0,7.38,0A5.232,5.232,0,0,0,26.015,6Z" transform="translate(-0.4 -0.6)"/></g></g></g><text class="f" transform="translate(13261.536 1506.576)"><tspan x="0" y="0">Read Only</tspan></text><g class="g" transform="translate(13239 1497)"><rect class="i" width="12" height="12" rx="1"/><rect class="j" x="0.25" y="0.25" width="11.5" height="11.5" rx="0.75"/></g><text class="f" transform="translate(13261.536 1537.384)"><tspan x="0" y="0">Edit</tspan></text><g class="g" transform="translate(13239 1528)"><rect class="i" width="12" height="12" rx="1"/><rect class="j" x="0.25" y="0.25" width="11.5" height="11.5" rx="0.75"/></g><text class="f" transform="translate(13261.536 1568.192)"><tspan x="0" y="0">Admin</tspan></text><g class="g" transform="translate(13239 1559)"><rect class="i" width="12" height="12" rx="1"/><rect class="j" x="0.25" y="0.25" width="11.5" height="11.5" rx="0.75"/></g><text class="f" transform="translate(13261.536 1599)"><tspan x="0" y="0">Super Admin</tspan></text><g class="g" transform="translate(13239 1590)"><rect class="i" width="12" height="12" rx="1"/><rect class="j" x="0.25" y="0.25" width="11.5" height="11.5" rx="0.75"/></g><path class="h" d="M10.847,3.216a.884.884,0,0,1,.173.288.141.141,0,0,1-.073.169.8.8,0,0,1-.33.082q-.229.021-.609.021-.358,0-.559-.012a1.588,1.588,0,0,1-.319-.045.562.562,0,0,1-.179-.078.407.407,0,0,1-.106-.119L5.625-.722,2.371,3.521a.6.6,0,0,1-.123.124.52.52,0,0,1-.184.078,1.879,1.879,0,0,1-.319.041q-.2.012-.537.012-.369,0-.581-.021a.626.626,0,0,1-.3-.082A.146.146,0,0,1,.275,3.5a.884.884,0,0,1,.173-.288L4.4-1.685.627-6.422a1.228,1.228,0,0,1-.173-.292A.135.135,0,0,1,.5-6.888a.668.668,0,0,1,.313-.078q.224-.016.615-.016.335,0,.548.012a2.064,2.064,0,0,1,.335.041.384.384,0,0,1,.179.082l.123.119L5.726-2.74,8.812-6.727a1.585,1.585,0,0,1,.112-.119.371.371,0,0,1,.162-.082,1.58,1.58,0,0,1,.3-.041q.19-.012.514-.012.347,0,.565.021a.777.777,0,0,1,.313.078.147.147,0,0,1,.073.169.823.823,0,0,1-.157.292l-3.757,4.7Z" transform="translate(13366.867 1504.065)"/><path class="h" d="M10.847,3.216a.884.884,0,0,1,.173.288.141.141,0,0,1-.073.169.8.8,0,0,1-.33.082q-.229.021-.609.021-.358,0-.559-.012a1.588,1.588,0,0,1-.319-.045.562.562,0,0,1-.179-.078.407.407,0,0,1-.106-.119L5.625-.722,2.371,3.521a.6.6,0,0,1-.123.124.52.52,0,0,1-.184.078,1.879,1.879,0,0,1-.319.041q-.2.012-.537.012-.369,0-.581-.021a.626.626,0,0,1-.3-.082A.146.146,0,0,1,.275,3.5a.884.884,0,0,1,.173-.288L4.4-1.685.627-6.422a1.228,1.228,0,0,1-.173-.292A.135.135,0,0,1,.5-6.888a.668.668,0,0,1,.313-.078q.224-.016.615-.016.335,0,.548.012a2.064,2.064,0,0,1,.335.041.384.384,0,0,1,.179.082l.123.119L5.726-2.74,8.812-6.727a1.585,1.585,0,0,1,.112-.119.371.371,0,0,1,.162-.082,1.58,1.58,0,0,1,.3-.041q.19-.012.514-.012.347,0,.565.021a.777.777,0,0,1,.313.078.147.147,0,0,1,.073.169.823.823,0,0,1-.157.292l-3.757,4.7Z" transform="translate(13438.123 1504.065)"/><path class="h" d="M10.847,3.216a.884.884,0,0,1,.173.288.141.141,0,0,1-.073.169.8.8,0,0,1-.33.082q-.229.021-.609.021-.358,0-.559-.012a1.588,1.588,0,0,1-.319-.045.562.562,0,0,1-.179-.078.407.407,0,0,1-.106-.119L5.625-.722,2.371,3.521a.6.6,0,0,1-.123.124.52.52,0,0,1-.184.078,1.879,1.879,0,0,1-.319.041q-.2.012-.537.012-.369,0-.581-.021a.626.626,0,0,1-.3-.082A.146.146,0,0,1,.275,3.5a.884.884,0,0,1,.173-.288L4.4-1.685.627-6.422a1.228,1.228,0,0,1-.173-.292A.135.135,0,0,1,.5-6.888a.668.668,0,0,1,.313-.078q.224-.016.615-.016.335,0,.548.012a2.064,2.064,0,0,1,.335.041.384.384,0,0,1,.179.082l.123.119L5.726-2.74,8.812-6.727a1.585,1.585,0,0,1,.112-.119.371.371,0,0,1,.162-.082,1.58,1.58,0,0,1,.3-.041q.19-.012.514-.012.347,0,.565.021a.777.777,0,0,1,.313.078.147.147,0,0,1,.073.169.823.823,0,0,1-.157.292l-3.757,4.7Z" transform="translate(13471.594 1504.065)"/><path class="h" d="M0,6.49a2.371,2.371,0,0,1,.954-.8.94.94,0,0,1,1.027.216,2.769,2.769,0,0,1,.646,1.011c.119.287.22.582.329.874.016.044.034.09.057.158A24.746,24.746,0,0,1,10.388,0l.371.424c-.207.178-.407.342-.6.514A22.273,22.273,0,0,0,6.548,5.028,41.031,41.031,0,0,0,3.933,9.469a.716.716,0,0,1-.189.21c-.43.331-.863.653-1.294.978-.041.03-.08.063-.13.1A8.232,8.232,0,0,0,0,6.49Z" transform="translate(13401.634 1497.083)"/><path class="h" d="M10.847,3.216a.884.884,0,0,1,.173.288.141.141,0,0,1-.073.169.8.8,0,0,1-.33.082q-.229.021-.609.021-.358,0-.559-.012a1.588,1.588,0,0,1-.319-.045.562.562,0,0,1-.179-.078.407.407,0,0,1-.106-.119L5.625-.722,2.371,3.521a.6.6,0,0,1-.123.124.52.52,0,0,1-.184.078,1.879,1.879,0,0,1-.319.041q-.2.012-.537.012-.369,0-.581-.021a.626.626,0,0,1-.3-.082A.146.146,0,0,1,.275,3.5a.884.884,0,0,1,.173-.288L4.4-1.685.627-6.422a1.228,1.228,0,0,1-.173-.292A.135.135,0,0,1,.5-6.888a.668.668,0,0,1,.313-.078q.224-.016.615-.016.335,0,.548.012a2.064,2.064,0,0,1,.335.041.384.384,0,0,1,.179.082l.123.119L5.726-2.74,8.812-6.727a1.585,1.585,0,0,1,.112-.119.371.371,0,0,1,.162-.082,1.58,1.58,0,0,1,.3-.041q.19-.012.514-.012.347,0,.565.021a.777.777,0,0,1,.313.078.147.147,0,0,1,.073.169.823.823,0,0,1-.157.292l-3.757,4.7Z" transform="translate(13438.123 1534.866)"/><path class="h" d="M10.847,3.216a.884.884,0,0,1,.173.288.141.141,0,0,1-.073.169.8.8,0,0,1-.33.082q-.229.021-.609.021-.358,0-.559-.012a1.588,1.588,0,0,1-.319-.045.562.562,0,0,1-.179-.078.407.407,0,0,1-.106-.119L5.625-.722,2.371,3.521a.6.6,0,0,1-.123.124.52.52,0,0,1-.184.078,1.879,1.879,0,0,1-.319.041q-.2.012-.537.012-.369,0-.581-.021a.626.626,0,0,1-.3-.082A.146.146,0,0,1,.275,3.5a.884.884,0,0,1,.173-.288L4.4-1.685.627-6.422a1.228,1.228,0,0,1-.173-.292A.135.135,0,0,1,.5-6.888a.668.668,0,0,1,.313-.078q.224-.016.615-.016.335,0,.548.012a2.064,2.064,0,0,1,.335.041.384.384,0,0,1,.179.082l.123.119L5.726-2.74,8.812-6.727a1.585,1.585,0,0,1,.112-.119.371.371,0,0,1,.162-.082,1.58,1.58,0,0,1,.3-.041q.19-.012.514-.012.347,0,.565.021a.777.777,0,0,1,.313.078.147.147,0,0,1,.073.169.823.823,0,0,1-.157.292l-3.757,4.7Z" transform="translate(13471.594 1534.866)"/><path class="h" d="M0,6.49a2.371,2.371,0,0,1,.954-.8.94.94,0,0,1,1.027.216,2.769,2.769,0,0,1,.646,1.011c.119.287.22.582.329.874.016.044.034.09.057.158A24.746,24.746,0,0,1,10.388,0l.371.424c-.207.178-.407.342-.6.514A22.273,22.273,0,0,0,6.548,5.028,41.031,41.031,0,0,0,3.933,9.469a.716.716,0,0,1-.189.21c-.43.331-.863.653-1.294.978-.041.03-.08.063-.13.1A8.232,8.232,0,0,0,0,6.49Z" transform="translate(13401.634 1527.884)"/><path class="h" d="M0,6.49a2.371,2.371,0,0,1,.954-.8.94.94,0,0,1,1.027.216,2.769,2.769,0,0,1,.646,1.011c.119.287.22.582.329.874.016.044.034.09.057.158A24.746,24.746,0,0,1,10.388,0l.371.424c-.207.178-.407.342-.6.514A22.273,22.273,0,0,0,6.548,5.028,41.031,41.031,0,0,0,3.933,9.469a.716.716,0,0,1-.189.21c-.43.331-.863.653-1.294.978-.041.03-.08.063-.13.1A8.232,8.232,0,0,0,0,6.49Z" transform="translate(13367.135 1527.884)"/><path class="h" d="M10.847,3.216a.884.884,0,0,1,.173.288.141.141,0,0,1-.073.169.8.8,0,0,1-.33.082q-.229.021-.609.021-.358,0-.559-.012a1.588,1.588,0,0,1-.319-.045.562.562,0,0,1-.179-.078.407.407,0,0,1-.106-.119L5.625-.722,2.371,3.521a.6.6,0,0,1-.123.124.52.52,0,0,1-.184.078,1.879,1.879,0,0,1-.319.041q-.2.012-.537.012-.369,0-.581-.021a.626.626,0,0,1-.3-.082A.146.146,0,0,1,.275,3.5a.884.884,0,0,1,.173-.288L4.4-1.685.627-6.422a1.228,1.228,0,0,1-.173-.292A.135.135,0,0,1,.5-6.888a.668.668,0,0,1,.313-.078q.224-.016.615-.016.335,0,.548.012a2.064,2.064,0,0,1,.335.041.384.384,0,0,1,.179.082l.123.119L5.726-2.74,8.812-6.727a1.585,1.585,0,0,1,.112-.119.371.371,0,0,1,.162-.082,1.58,1.58,0,0,1,.3-.041q.19-.012.514-.012.347,0,.565.021a.777.777,0,0,1,.313.078.147.147,0,0,1,.073.169.823.823,0,0,1-.157.292l-3.757,4.7Z" transform="translate(13471.594 1565.652)"/><path class="h" d="M0,6.49a2.371,2.371,0,0,1,.954-.8.94.94,0,0,1,1.027.216,2.769,2.769,0,0,1,.646,1.011c.119.287.22.582.329.874.016.044.034.09.057.158A24.746,24.746,0,0,1,10.388,0l.371.424c-.207.178-.407.342-.6.514A22.273,22.273,0,0,0,6.548,5.028,41.031,41.031,0,0,0,3.933,9.469a.716.716,0,0,1-.189.21c-.43.331-.863.653-1.294.978-.041.03-.08.063-.13.1A8.232,8.232,0,0,0,0,6.49Z" transform="translate(13401.634 1558.669)"/><path class="h" d="M0,6.49a2.371,2.371,0,0,1,.954-.8.94.94,0,0,1,1.027.216,2.769,2.769,0,0,1,.646,1.011c.119.287.22.582.329.874.016.044.034.09.057.158A24.746,24.746,0,0,1,10.388,0l.371.424c-.207.178-.407.342-.6.514A22.273,22.273,0,0,0,6.548,5.028,41.031,41.031,0,0,0,3.933,9.469a.716.716,0,0,1-.189.21c-.43.331-.863.653-1.294.978-.041.03-.08.063-.13.1A8.232,8.232,0,0,0,0,6.49Z" transform="translate(13401.634 1589.507)"/><path class="h" d="M0,6.49a2.371,2.371,0,0,1,.954-.8.94.94,0,0,1,1.027.216,2.769,2.769,0,0,1,.646,1.011c.119.287.22.582.329.874.016.044.034.09.057.158A24.746,24.746,0,0,1,10.388,0l.371.424c-.207.178-.407.342-.6.514A22.273,22.273,0,0,0,6.548,5.028,41.031,41.031,0,0,0,3.933,9.469a.716.716,0,0,1-.189.21c-.43.331-.863.653-1.294.978-.041.03-.08.063-.13.1A8.232,8.232,0,0,0,0,6.49Z" transform="translate(13438.391 1558.669)"/><path class="h" d="M0,6.49a2.371,2.371,0,0,1,.954-.8.94.94,0,0,1,1.027.216,2.769,2.769,0,0,1,.646,1.011c.119.287.22.582.329.874.016.044.034.09.057.158A24.746,24.746,0,0,1,10.388,0l.371.424c-.207.178-.407.342-.6.514A22.273,22.273,0,0,0,6.548,5.028,41.031,41.031,0,0,0,3.933,9.469a.716.716,0,0,1-.189.21c-.43.331-.863.653-1.294.978-.041.03-.08.063-.13.1A8.232,8.232,0,0,0,0,6.49Z" transform="translate(13438.391 1589.507)"/><path class="h" d="M0,6.49a2.371,2.371,0,0,1,.954-.8.94.94,0,0,1,1.027.216,2.769,2.769,0,0,1,.646,1.011c.119.287.22.582.329.874.016.044.034.09.057.158A24.746,24.746,0,0,1,10.388,0l.371.424c-.207.178-.407.342-.6.514A22.273,22.273,0,0,0,6.548,5.028,41.031,41.031,0,0,0,3.933,9.469a.716.716,0,0,1-.189.21c-.43.331-.863.653-1.294.978-.041.03-.08.063-.13.1A8.232,8.232,0,0,0,0,6.49Z" transform="translate(13471.861 1589.507)"/><path class="h" d="M0,6.49a2.371,2.371,0,0,1,.954-.8.94.94,0,0,1,1.027.216,2.769,2.769,0,0,1,.646,1.011c.119.287.22.582.329.874.016.044.034.09.057.158A24.746,24.746,0,0,1,10.388,0l.371.424c-.207.178-.407.342-.6.514A22.273,22.273,0,0,0,6.548,5.028,41.031,41.031,0,0,0,3.933,9.469a.716.716,0,0,1-.189.21c-.43.331-.863.653-1.294.978-.041.03-.08.063-.13.1A8.232,8.232,0,0,0,0,6.49Z" transform="translate(13367.135 1558.669)"/><path class="h" d="M0,6.49a2.371,2.371,0,0,1,.954-.8.94.94,0,0,1,1.027.216,2.769,2.769,0,0,1,.646,1.011c.119.287.22.582.329.874.016.044.034.09.057.158A24.746,24.746,0,0,1,10.388,0l.371.424c-.207.178-.407.342-.6.514A22.273,22.273,0,0,0,6.548,5.028,41.031,41.031,0,0,0,3.933,9.469a.716.716,0,0,1-.189.21c-.43.331-.863.653-1.294.978-.041.03-.08.063-.13.1A8.232,8.232,0,0,0,0,6.49Z" transform="translate(13367.135 1589.507)"/></g></svg>