<?xml version="1.0" encoding="UTF-8"?>
<!DOCTYPE svg PUBLIC "-//W3C//DTD SVG 1.1//EN" "http://www.w3.org/Graphics/SVG/1.1/DTD/svg11.dtd">
<!-- Creator: CorelDRAW X8 -->
<svg xmlns="http://www.w3.org/2000/svg" xml:space="preserve" width="4.45305in" height="3in" version="1.1" style="shape-rendering:geometricPrecision; text-rendering:geometricPrecision; image-rendering:optimizeQuality; fill-rule:evenodd; clip-rule:evenodd"
viewBox="0 0 3670 2473"
 xmlns:xlink="http://www.w3.org/1999/xlink">
 <defs>
  <style type="text/css">
   <![CDATA[
    .str0 {stroke:#1A237E;stroke-width:6.91175}
    .fil5 {fill:none}
    .fil0 {fill:#1A237E}
    .fil3 {fill:#868EE0}
    .fil4 {fill:#FEFEFE;fill-rule:nonzero}
    .fil2 {fill:#606062;fill-rule:nonzero}
    .fil1 {fill:#1A237E;fill-rule:nonzero}
   ]]>
  </style>
 </defs>
 <g id="Layer_x0020_1">
  <metadata id="CorelCorpID_0Corel-Layer"/>
  <g id="_2490747953232">
   <path class="fil0" d="M3221 274l-3097 0c-69,1 -124,56 -124,124l0 1951c0,68 55,123 124,124l3097 0c69,-1 124,-56 124,-124l0 -1951c0,-68 -55,-123 -124,-124zm8 1969c-2,69 -58,124 -128,124l-2859 0c-69,0 -126,-55 -127,-124l0 -1742c1,-70 58,-125 127,-124l2861 0c69,-1 126,54 127,124l0 1742 -1 0z"/>
   <path class="fil1" d="M364 607l0 -17 43 0 0 40c-4,4 -11,7 -18,10 -8,4 -16,5 -25,5 -10,0 -19,-2 -27,-6 -7,-5 -13,-11 -17,-19 -4,-8 -6,-17 -6,-27 0,-10 2,-19 7,-27 4,-8 10,-14 19,-19 6,-3 14,-5 23,-5 13,0 22,3 29,8 7,5 11,13 13,22l-19 3c-2,-4 -4,-8 -8,-11 -4,-3 -9,-4 -15,-4 -8,0 -15,2 -20,8 -6,5 -8,14 -8,25 0,11 2,20 8,26 5,6 12,9 20,9 4,0 9,-1 13,-3 4,-1 8,-3 11,-6l0 -12 -23 0z"/>
   <path id="1" class="fil1" d="M420 611l19 -2c2,7 4,12 8,15 3,3 8,4 14,4 6,0 11,-1 14,-4 4,-3 5,-6 5,-9 0,-3 0,-5 -2,-6 -1,-2 -3,-3 -7,-5 -2,-1 -7,-2 -16,-4 -10,-3 -18,-6 -22,-10 -6,-5 -9,-12 -9,-20 0,-5 1,-10 4,-14 3,-4 7,-8 12,-10 6,-2 12,-4 20,-4 12,0 21,3 28,9 6,5 9,13 10,22l-21 0c0,-5 -2,-8 -5,-11 -3,-2 -7,-3 -13,-3 -5,0 -10,1 -13,4 -2,1 -3,3 -3,6 0,2 1,4 3,6 2,2 8,4 18,6 10,3 17,5 22,8 4,2 8,5 10,10 3,4 4,9 4,15 0,6 -1,11 -4,16 -3,5 -8,9 -14,11 -5,3 -13,4 -21,4 -13,0 -22,-3 -29,-9 -7,-5 -11,-14 -12,-25z"/>
   <polygon id="2" class="fil1" points="540,643 540,561 510,561 510,544 589,544 589,561 560,561 560,643 "/>
   <polygon id="3" class="fil1" points="640,643 640,544 660,544 660,643 "/>
   <path id="4" class="fil1" d="M744 643l-19 0 0 -36c0,-8 -1,-13 -1,-15 -1,-3 -2,-4 -4,-6 -2,-1 -4,-2 -7,-2 -3,0 -6,1 -9,3 -3,2 -4,4 -5,7 -1,3 -2,9 -2,17l0 32 -19 0 0 -72 18 0 0 11c6,-8 14,-12 24,-12 4,0 8,1 11,2 4,2 6,4 8,6 2,2 3,5 4,8 0,3 1,7 1,13l0 44z"/>
   <path id="5" class="fil1" d="M783 643l-29 -72 20 0 13 37 4 12c1,-3 2,-5 2,-6 1,-2 1,-4 2,-6l14 -37 19 0 -28 72 -17 0z"/>
   <path id="6" class="fil1" d="M835 606c0,-6 2,-12 5,-18 3,-6 8,-10 13,-13 6,-3 12,-5 19,-5 11,0 20,4 27,11 7,7 10,16 10,26 0,11 -3,20 -10,27 -7,7 -16,11 -26,11 -7,0 -13,-1 -19,-4 -6,-3 -11,-8 -14,-14 -3,-5 -5,-12 -5,-21zm20 2c0,7 2,12 5,16 3,4 8,6 13,6 4,0 9,-2 12,-6 3,-4 5,-9 5,-17 0,-7 -2,-12 -5,-16 -3,-4 -8,-6 -12,-6 -5,0 -10,2 -13,6 -3,4 -5,9 -5,17z"/>
   <path id="7" class="fil1" d="M924 562l0 -18 19 0 0 18 -19 0zm0 81l0 -72 19 0 0 72 -19 0z"/>
   <path id="8" class="fil1" d="M1025 593l-18 3c-1,-4 -2,-6 -5,-8 -2,-2 -5,-3 -8,-3 -5,0 -9,2 -12,5 -2,3 -4,9 -4,16 0,9 2,15 4,18 3,4 7,6 12,6 3,0 6,-1 9,-4 2,-2 4,-5 5,-10l18 3c-2,9 -5,15 -11,19 -5,5 -13,7 -22,7 -10,0 -19,-3 -25,-10 -6,-7 -9,-16 -9,-27 0,-12 3,-22 9,-28 6,-7 15,-10 25,-10 9,0 16,2 21,6 5,3 9,9 11,17z"/>
   <path id="9" class="fil1" d="M1081 621l19 3c-2,7 -6,12 -11,16 -6,3 -12,5 -20,5 -13,0 -22,-4 -28,-12 -4,-7 -7,-15 -7,-25 0,-12 3,-21 9,-28 7,-7 15,-10 24,-10 11,0 19,4 25,11 6,7 9,17 9,32l-47 0c0,6 1,10 4,13 3,3 7,5 11,5 3,0 6,-1 8,-3 2,-1 3,-4 4,-7zm1 -20c0,-5 -1,-9 -4,-12 -3,-3 -6,-5 -10,-5 -4,0 -7,2 -10,5 -3,3 -4,7 -4,12l28 0z"/>
   <ellipse class="fil0" cx="3259" cy="412" rx="411" ry="412"/>
   <polygon class="fil2" points="343,886 343,816 317,816 317,806 380,806 380,816 354,816 354,886 "/>
   <path id="1" class="fil2" d="M373 857c0,-11 3,-19 9,-24 5,-4 11,-6 18,-6 8,0 15,3 20,8 5,5 7,12 7,21 0,7 -1,13 -3,17 -2,5 -6,8 -10,10 -4,3 -9,4 -14,4 -8,0 -14,-3 -19,-8 -5,-5 -8,-12 -8,-22zm10 0c0,7 2,13 5,16 3,4 7,6 12,6 5,0 9,-2 12,-6 4,-3 5,-9 5,-16 0,-7 -1,-13 -5,-16 -3,-4 -7,-6 -12,-6 -5,0 -9,2 -12,5 -3,4 -5,10 -5,17z"/>
   <path id="2" class="fil2" d="M441 886l0 -11 11 0 0 11c0,4 -1,7 -2,9 -1,3 -4,5 -7,6l-3 -4c3,-1 4,-2 5,-4 1,-2 1,-4 2,-7l-6 0z"/>
   <path id="3" class="fil2" d="M314 1009l31 -79 11 0 32 79 -12 0 -9 -24 -33 0 -9 24 -11 0zm23 -32l27 0 -8 -22c-3,-7 -5,-12 -6,-17 -1,5 -2,10 -4,15l-9 24z"/>
   <path id="4" class="fil2" d="M396 1009l0 -79 30 0c6,0 11,1 15,2 3,2 6,4 8,8 2,3 3,7 3,10 0,4 -1,7 -2,10 -2,3 -5,5 -9,7 5,1 9,4 11,7 3,4 4,8 4,12 0,4 -1,7 -2,11 -2,3 -4,5 -6,7 -2,2 -5,3 -9,4 -3,1 -7,1 -13,1l-30 0zm11 -46l17 0c5,0 8,0 10,-1 3,0 5,-2 6,-4 1,-1 2,-4 2,-7 0,-2 -1,-5 -2,-7 -1,-2 -3,-3 -5,-4 -3,0 -7,-1 -12,-1l-16 0 0 24zm0 37l20 0c3,0 5,0 7,-1 2,0 4,-1 6,-2 1,-1 3,-2 4,-4 1,-2 1,-4 1,-7 0,-3 0,-5 -2,-8 -2,-2 -4,-3 -6,-4 -3,-1 -7,-1 -12,-1l-18 0 0 27z"/>
   <path id="5" class="fil2" d="M527 981l10 3c-2,9 -6,15 -11,20 -6,4 -13,6 -21,6 -9,0 -16,-1 -21,-5 -5,-3 -10,-8 -12,-15 -3,-6 -4,-13 -4,-21 0,-8 1,-15 4,-22 3,-6 8,-10 14,-14 5,-3 12,-4 19,-4 8,0 14,2 20,6 5,4 9,9 11,17l-10 2c-2,-6 -5,-10 -8,-12 -4,-3 -8,-4 -13,-4 -6,0 -11,1 -16,4 -4,3 -7,7 -8,12 -2,5 -3,10 -3,15 0,7 1,13 3,18 2,5 5,8 9,11 5,2 9,4 14,4 6,0 11,-2 15,-6 4,-3 6,-8 8,-15z"/>
   <polygon id="6" class="fil2" points="581,1009 581,930 591,930 591,1000 630,1000 630,1009 "/>
   <path id="7" class="fil2" d="M663 1000l1 9c-3,1 -5,1 -7,1 -4,0 -7,-1 -9,-2 -2,-1 -3,-2 -4,-4 -1,-2 -1,-6 -1,-12l0 -33 -7 0 0 -7 7 0 0 -14 10 -6 0 20 10 0 0 7 -10 0 0 34c0,3 0,4 0,5 1,1 1,2 2,2 1,1 2,1 3,1 1,0 3,0 5,-1z"/>
   <path id="8" class="fil2" d="M709 1009l0 -7c-3,6 -9,8 -16,8 -4,0 -9,-1 -12,-3 -4,-3 -7,-6 -9,-11 -2,-4 -4,-10 -4,-15 0,-6 1,-11 3,-16 2,-5 5,-8 9,-11 4,-2 8,-3 13,-3 3,0 6,0 9,2 3,1 5,3 7,5l0 -28 9 0 0 79 -9 0zm-31 -28c0,7 2,12 5,16 3,4 7,5 11,5 4,0 8,-1 11,-5 3,-3 4,-9 4,-16 0,-7 -1,-13 -4,-17 -3,-4 -7,-5 -11,-5 -5,0 -8,1 -11,5 -3,3 -5,9 -5,17z"/>
   <polygon id="9" class="fil2" points="325,1133 325,1054 335,1054 335,1133 "/>
   <path id="10" class="fil2" d="M352 1133l0 -58 9 0 0 8c4,-6 10,-9 18,-9 4,0 7,1 10,2 3,1 5,3 6,5 2,2 3,4 3,7 1,2 1,5 1,9l0 36 -10 0 0 -35c0,-4 0,-7 -1,-9 -1,-2 -2,-4 -4,-5 -2,-1 -4,-1 -7,-1 -4,0 -7,1 -10,3 -3,3 -5,8 -5,15l0 32 -10 0z"/>
   <path id="11" class="fil2" d="M451 1133l0 -8c-4,6 -9,9 -16,9 -5,0 -9,-1 -13,-4 -3,-2 -6,-6 -9,-10 -2,-5 -3,-10 -3,-16 0,-6 1,-11 3,-15 2,-5 5,-9 9,-11 4,-3 8,-4 13,-4 3,0 6,1 9,2 2,2 5,4 6,6l0 -28 10 0 0 79 -9 0zm-31 -29c0,7 2,13 5,17 3,3 7,5 11,5 4,0 8,-2 11,-5 3,-4 4,-9 4,-16 0,-8 -1,-14 -4,-17 -3,-4 -7,-6 -12,-6 -4,0 -7,2 -10,5 -3,4 -5,10 -5,17z"/>
   <path id="12" class="fil2" d="M472 1104c0,-11 3,-18 9,-24 5,-4 11,-6 18,-6 8,0 14,3 19,8 5,5 8,12 8,21 0,8 -2,13 -4,18 -2,4 -5,7 -9,9 -5,3 -9,4 -14,4 -8,0 -15,-3 -20,-8 -5,-5 -7,-12 -7,-22zm10 0c0,7 1,13 5,17 3,3 7,5 12,5 5,0 9,-2 12,-6 3,-3 5,-9 5,-16 0,-7 -2,-13 -5,-16 -3,-4 -7,-6 -12,-6 -5,0 -9,2 -12,6 -4,3 -5,9 -5,16z"/>
   <path id="13" class="fil2" d="M537 1133l0 -58 9 0 0 9c2,-4 4,-7 6,-8 2,-1 4,-2 6,-2 3,0 7,1 10,3l-3 9c-3,-1 -5,-2 -7,-2 -3,0 -4,1 -6,2 -2,1 -3,3 -4,5 -1,4 -1,8 -1,12l0 30 -10 0z"/>
   <path id="14" class="fil2" d="M613 1114l10 1c-2,6 -4,11 -9,14 -4,3 -9,5 -16,5 -8,0 -15,-3 -20,-8 -5,-5 -7,-12 -7,-21 0,-10 2,-18 7,-23 5,-5 11,-8 19,-8 8,0 14,3 19,8 5,5 7,12 7,22 0,1 0,1 0,3l-42 0c0,6 2,11 5,14 3,3 7,5 12,5 3,0 7,-1 9,-3 3,-2 5,-5 6,-9zm-32 -15l32 0c0,-5 -2,-9 -4,-11 -3,-4 -7,-6 -12,-6 -4,0 -8,2 -11,5 -3,3 -5,7 -5,12z"/>
   <rect class="fil3" x="317" y="1295" width="302" height="868"/>
   <rect class="fil3" x="786" y="1295" width="1027" height="868"/>
   <rect class="fil3" x="1980" y="1295" width="463" height="868"/>
   <rect class="fil3" x="2610" y="1295" width="463" height="868"/>
   <path class="fil4" d="M3168 349l0 -17 43 0 0 39c-4,5 -10,8 -18,11 -8,3 -16,5 -24,5 -11,0 -20,-2 -28,-7 -7,-4 -13,-10 -17,-18 -4,-8 -6,-17 -6,-27 0,-10 3,-19 7,-27 4,-8 10,-15 19,-19 6,-3 14,-5 23,-5 13,0 22,3 29,8 7,5 12,12 14,21l-20 4c-2,-5 -4,-9 -8,-11 -4,-3 -9,-5 -15,-5 -8,0 -15,3 -20,9 -5,5 -8,13 -8,24 0,12 3,21 8,27 5,6 12,9 20,9 4,0 9,-1 13,-3 4,-1 8,-3 11,-6l0 -12 -23 0z"/>
   <path id="1" class="fil4" d="M3224 353l20 -2c1,7 3,11 7,14 3,3 8,5 14,5 7,0 11,-1 15,-4 3,-3 5,-6 5,-10 0,-2 -1,-4 -3,-6 -1,-1 -3,-3 -7,-4 -2,-1 -7,-2 -16,-4 -10,-3 -18,-6 -22,-10 -6,-6 -9,-12 -9,-20 0,-5 1,-10 4,-14 3,-5 7,-8 12,-10 6,-3 12,-4 20,-4 12,0 22,3 28,8 6,6 9,13 10,23l-20 0c-1,-5 -3,-9 -6,-11 -3,-2 -7,-3 -12,-3 -6,0 -11,1 -14,3 -2,2 -3,4 -3,7 0,2 1,4 3,6 2,2 9,4 18,6 10,3 17,5 22,7 4,3 8,6 11,10 2,5 4,10 4,16 0,6 -2,11 -5,16 -3,5 -8,9 -14,11 -5,3 -12,4 -21,4 -13,0 -22,-3 -29,-9 -7,-6 -11,-14 -12,-25z"/>
   <polygon id="2" class="fil4" points="3344,385 3344,303 3315,303 3315,286 3393,286 3393,303 3364,303 3364,385 "/>
   <path id="3" class="fil4" d="M3022 539l0 -99 42 0c11,0 18,1 23,3 5,2 9,5 12,10 2,4 4,9 4,15 0,8 -2,14 -7,19 -4,4 -10,8 -19,9 4,2 8,5 11,8 2,3 6,8 11,16l12 19 -24 0 -14 -21c-5,-8 -9,-13 -11,-15 -2,-2 -4,-3 -6,-4 -2,0 -5,-1 -10,-1l-4 0 0 41 -20 0zm20 -57l15 0c9,0 15,0 18,-1 2,-1 4,-2 5,-4 2,-2 2,-5 2,-7 0,-4 -1,-6 -2,-9 -2,-2 -5,-3 -8,-3 -1,-1 -6,-1 -14,-1l-16 0 0 25z"/>
   <polygon id="4" class="fil4" points="3122,539 3122,440 3195,440 3195,457 3142,457 3142,479 3191,479 3191,496 3142,496 3142,523 3197,523 3197,539 "/>
   <path id="5" class="fil4" d="M3303 539l-21 0 -9 -22 -40 0 -8 22 -21 0 38 -99 22 0 39 99zm-36 -39l-14 -36 -14 36 28 0z"/>
   <path id="6" class="fil4" d="M3314 440l36 0c9,0 15,1 19,2 6,2 11,5 15,10 4,4 7,9 9,16 3,6 4,14 4,23 0,8 -1,15 -3,21 -3,7 -6,13 -11,17 -3,4 -8,6 -14,8 -4,2 -10,2 -18,2l-37 0 0 -99zm20 17l0 66 15 0c5,0 9,-1 12,-1 3,-1 6,-2 8,-4 2,-2 4,-5 5,-10 1,-4 2,-10 2,-18 0,-8 -1,-13 -2,-18 -1,-4 -3,-7 -6,-9 -2,-2 -5,-4 -9,-5 -3,0 -8,-1 -16,-1l-9 0z"/>
   <polygon id="7" class="fil4" points="3440,539 3440,498 3403,440 3427,440 3450,480 3473,440 3496,440 3460,498 3460,539 "/>
   <rect class="fil3" x="2496" y="935" width="578" height="198"/>
   <path class="fil4" d="M2536 1073l0 -79 28 0c6,0 11,0 14,1 4,1 8,3 11,6 5,3 8,8 10,13 2,6 3,12 3,19 0,6 -1,11 -2,16 -2,5 -3,8 -6,11 -2,3 -4,6 -7,8 -2,1 -6,3 -9,4 -4,1 -8,1 -13,1l-29 0zm11 -9l17 0c5,0 9,-1 12,-2 3,-1 5,-2 7,-4 3,-2 5,-6 6,-10 1,-4 2,-9 2,-15 0,-9 -1,-15 -4,-19 -3,-5 -6,-8 -10,-9 -3,-1 -7,-2 -14,-2l-16 0 0 61z"/>
   <path id="1" class="fil4" d="M2653 1073l0 -9c-5,7 -11,10 -19,10 -3,0 -6,0 -9,-2 -3,-1 -5,-3 -7,-5 -1,-2 -2,-4 -3,-7 0,-2 0,-5 0,-9l0 -35 10 0 0 31c0,5 0,9 0,11 1,2 2,4 4,6 2,1 4,2 7,2 3,0 6,-1 9,-2 2,-2 4,-4 5,-7 1,-2 2,-6 2,-11l0 -30 9 0 0 57 -8 0z"/>
   <path id="2" class="fil4" d="M2716 1054l10 2c-2,6 -5,10 -9,13 -4,4 -10,5 -16,5 -9,0 -15,-2 -20,-8 -5,-5 -8,-12 -8,-21 0,-10 3,-17 8,-23 5,-5 11,-8 19,-8 8,0 14,3 19,8 5,5 7,13 7,22 0,1 0,2 0,3l-43 0c1,6 2,11 6,14 3,4 7,5 12,5 3,0 6,-1 9,-3 2,-1 4,-4 6,-9zm-32 -15l32 0c-1,-5 -2,-9 -4,-11 -3,-4 -7,-6 -12,-6 -4,0 -8,2 -11,5 -3,3 -5,7 -5,12z"/>
   <path id="3" class="fil4" d="M2741 1027l0 -11 11 0 0 11 -11 0zm0 46l0 -11 11 0 0 11 -11 0z"/>
   <path id="4" class="fil4" d="M2828 1073l0 -19 -34 0 0 -9 36 -51 8 0 0 51 10 0 0 9 -10 0 0 19 -10 0zm0 -28l0 -36 -25 36 25 0z"/>
   <path id="5" class="fil4" d="M2858 1034c0,-9 1,-17 3,-23 2,-5 5,-10 9,-13 4,-3 8,-5 14,-5 4,0 8,1 11,3 4,2 6,4 8,7 2,4 4,8 5,12 1,5 2,11 2,19 0,9 -1,17 -3,22 -2,6 -5,11 -8,14 -4,3 -9,4 -15,4 -7,0 -13,-2 -18,-8 -5,-7 -8,-17 -8,-32zm10 0c0,13 2,22 5,26 3,4 7,6 11,6 5,0 8,-2 11,-6 3,-4 5,-13 5,-26 0,-13 -2,-22 -5,-26 -3,-4 -6,-6 -11,-6 -4,0 -8,1 -11,5 -3,5 -5,14 -5,27z"/>
   <path id="6" class="fil4" d="M2920 1034c0,-9 1,-17 3,-23 2,-5 5,-10 8,-13 4,-3 9,-5 15,-5 4,0 8,1 11,3 3,2 6,4 8,7 2,4 3,8 5,12 1,5 1,11 1,19 0,9 -1,17 -2,22 -2,6 -5,11 -9,14 -4,3 -9,4 -14,4 -8,0 -14,-2 -18,-8 -6,-7 -8,-17 -8,-32zm10 0c0,13 1,22 4,26 3,4 7,6 12,6 4,0 8,-2 11,-6 3,-4 4,-13 4,-26 0,-13 -1,-22 -4,-26 -3,-4 -7,-6 -11,-6 -5,0 -8,1 -11,5 -3,5 -5,14 -5,27z"/>
   <path id="7" class="fil4" d="M2981 1034c0,-9 1,-17 3,-23 2,-5 5,-10 9,-13 4,-3 8,-5 14,-5 4,0 8,1 11,3 4,2 6,4 8,7 2,4 4,8 5,12 1,5 2,11 2,19 0,9 -1,17 -3,22 -2,6 -5,11 -8,14 -4,3 -9,4 -15,4 -7,0 -13,-2 -18,-8 -5,-7 -8,-17 -8,-32zm10 0c0,13 2,22 5,26 3,4 7,6 11,6 5,0 8,-2 11,-6 3,-4 5,-13 5,-26 0,-13 -2,-22 -5,-26 -3,-4 -6,-6 -11,-6 -4,0 -8,1 -11,5 -3,5 -5,14 -5,27z"/>
   <path class="fil2" d="M1018 855l0 -10 34 0 0 30c-5,4 -10,7 -16,9 -5,2 -11,3 -17,3 -8,0 -15,-2 -21,-5 -6,-3 -11,-8 -14,-15 -4,-6 -5,-13 -5,-21 0,-7 1,-15 5,-21 3,-7 7,-12 13,-15 7,-3 13,-5 21,-5 6,0 11,1 16,3 5,2 8,4 11,8 2,3 4,7 6,13l-10 2c-1,-4 -2,-7 -4,-9 -2,-3 -4,-4 -8,-6 -3,-1 -7,-2 -11,-2 -4,0 -8,1 -12,2 -3,2 -6,4 -8,6 -3,2 -4,5 -5,8 -2,5 -3,10 -3,16 0,7 1,13 3,18 3,4 6,8 11,10 4,2 9,4 15,4 4,0 9,-1 13,-3 4,-2 7,-4 10,-6l0 -14 -24 0z"/>
   <path id="1" class="fil2" d="M1064 860l10 -1c0,4 1,8 3,10 2,3 4,5 8,6 4,2 8,3 12,3 4,0 8,-1 11,-2 3,-1 5,-3 7,-5 1,-2 2,-4 2,-7 0,-2 -1,-4 -2,-6 -2,-2 -4,-4 -7,-5 -3,-1 -7,-2 -15,-4 -7,-2 -12,-3 -15,-5 -4,-2 -6,-4 -8,-7 -2,-3 -3,-6 -3,-10 0,-4 1,-8 3,-11 3,-4 6,-6 10,-8 5,-2 10,-3 15,-3 6,0 11,1 15,3 5,2 8,5 11,8 2,4 3,8 4,13l-10 1c-1,-5 -3,-9 -6,-12 -3,-2 -8,-4 -14,-4 -6,0 -11,2 -14,4 -2,2 -4,5 -4,8 0,3 1,5 3,7 2,2 7,4 16,6 8,2 14,4 17,5 5,2 8,5 11,8 2,3 3,7 3,11 0,4 -1,8 -4,12 -2,4 -6,7 -10,9 -5,2 -10,3 -15,3 -7,0 -13,-1 -18,-3 -5,-2 -9,-5 -12,-10 -2,-4 -4,-9 -4,-14z"/>
   <polygon id="2" class="fil2" points="1161,886 1161,816 1135,816 1135,806 1198,806 1198,816 1172,816 1172,886 "/>
   <polygon id="3" class="fil2" points="1211,886 1211,806 1221,806 1221,886 "/>
   <polygon id="4" class="fil2" points="1239,886 1239,806 1250,806 1292,869 1292,806 1302,806 1302,886 1291,886 1249,823 1249,886 "/>
   <path id="5" class="fil2" d="M1321 839l0 -11 11 0 0 11 -11 0zm0 47l0 -11 11 0 0 11 -11 0z"/>
   <path id="6" class="fil2" d="M1383 886l-10 0 0 -62c-2,2 -5,4 -9,6 -4,3 -7,4 -10,5l0 -9c5,-3 10,-6 14,-9 4,-4 7,-7 8,-11l7 0 0 80z"/>
   <path id="7" class="fil2" d="M1436 886l-10 0 0 -62c-2,2 -5,4 -9,6 -4,3 -7,4 -10,5l0 -9c5,-3 10,-6 14,-9 4,-4 7,-7 9,-11l6 0 0 80z"/>
   <path id="8" class="fil2" d="M1456 886l31 -80 11 0 32 80 -12 0 -9 -24 -33 0 -9 24 -11 0zm23 -33l27 0 -8 -22c-3,-7 -5,-12 -6,-16 -1,5 -2,10 -4,15l-9 23z"/>
   <path id="9" class="fil2" d="M1530 886l30 -80 12 0 32 80 -12 0 -9 -24 -33 0 -9 24 -11 0zm23 -33l27 0 -8 -22c-3,-7 -5,-12 -6,-16 -1,5 -3,10 -5,15l-8 23z"/>
   <path id="10" class="fil2" d="M1604 886l30 -80 12 0 32 80 -12 0 -9 -24 -34 0 -8 24 -11 0zm23 -33l27 0 -9 -22c-2,-7 -4,-12 -5,-16 -1,5 -3,10 -5,15l-8 23z"/>
   <path id="11" class="fil2" d="M1678 886l30 -80 11 0 33 80 -12 0 -9 -24 -34 0 -8 24 -11 0zm22 -33l27 0 -8 -22c-2,-7 -4,-12 -6,-16 -1,5 -2,10 -4,15l-9 23z"/>
   <path id="12" class="fil2" d="M1751 886l31 -80 11 0 32 80 -11 0 -10 -24 -33 0 -9 24 -11 0zm23 -33l27 0 -8 -22c-3,-7 -5,-12 -6,-16 -1,5 -2,10 -4,15l-9 23z"/>
   <path id="13" class="fil2" d="M1825 886l30 -80 12 0 32 80 -12 0 -9 -24 -33 0 -9 24 -11 0zm23 -33l27 0 -8 -22c-3,-7 -5,-12 -6,-16 -1,5 -3,10 -4,15l-9 23z"/>
   <path id="14" class="fil2" d="M1904 847c0,-10 1,-17 3,-23 2,-6 4,-10 8,-13 4,-3 9,-5 14,-5 5,0 8,1 12,3 3,1 6,4 8,7 2,3 3,7 4,12 2,4 2,11 2,19 0,9 -1,16 -3,22 -2,6 -4,10 -8,13 -4,3 -9,5 -15,5 -7,0 -13,-3 -17,-8 -6,-7 -8,-18 -8,-32zm10 0c0,13 1,21 4,26 3,4 7,6 11,6 5,0 9,-2 12,-6 3,-5 4,-13 4,-26 0,-13 -1,-22 -4,-26 -3,-5 -7,-7 -12,-7 -4,0 -8,2 -10,6 -4,5 -5,14 -5,27z"/>
   <path id="15" class="fil2" d="M1965 847c0,-10 1,-17 3,-23 2,-6 5,-10 9,-13 3,-3 8,-5 14,-5 4,0 8,1 11,3 3,1 6,4 8,7 2,3 4,7 5,12 1,4 2,11 2,19 0,9 -1,16 -3,22 -2,6 -5,10 -9,13 -3,3 -8,5 -14,5 -8,0 -14,-3 -18,-8 -5,-7 -8,-18 -8,-32zm10 0c0,13 2,21 5,26 3,4 7,6 11,6 4,0 8,-2 11,-6 3,-5 5,-13 5,-26 0,-13 -2,-22 -5,-26 -3,-5 -7,-7 -11,-7 -5,0 -8,2 -11,6 -3,5 -5,14 -5,27z"/>
   <path id="16" class="fil2" d="M2027 847c0,-10 1,-17 3,-23 2,-6 4,-10 8,-13 4,-3 9,-5 14,-5 5,0 8,1 12,3 3,1 6,4 8,7 2,3 3,7 4,12 2,4 2,11 2,19 0,9 -1,16 -3,22 -1,6 -4,10 -8,13 -4,3 -9,5 -15,5 -7,0 -13,-3 -17,-8 -6,-7 -8,-18 -8,-32zm10 0c0,13 1,21 4,26 3,4 7,6 11,6 5,0 9,-2 12,-6 3,-5 4,-13 4,-26 0,-13 -1,-22 -4,-26 -3,-5 -7,-7 -12,-7 -4,0 -8,2 -10,6 -4,5 -5,14 -5,27z"/>
   <path id="17" class="fil2" d="M2083 886l31 -80 11 0 33 80 -12 0 -10 -24 -33 0 -8 24 -12 0zm23 -33l27 0 -8 -22c-3,-7 -4,-12 -6,-16 -1,5 -2,10 -4,15l-9 23z"/>
   <path id="18" class="fil2" d="M2199 886l-10 0 0 -62c-3,2 -6,4 -9,6 -4,3 -8,4 -11,5l0 -9c6,-3 11,-6 15,-9 4,-4 7,-7 8,-11l7 0 0 80z"/>
   <path id="19" class="fil2" d="M2221 886l0 -10 41 -51c3,-3 5,-7 8,-9l-44 0 0 -10 56 0 0 10 -44 55 -5 5 51 0 0 10 -63 0z"/>
   <path id="20" class="fil2" d="M2291 847c0,-10 1,-17 3,-23 2,-6 5,-10 9,-13 3,-3 8,-5 14,-5 4,0 8,1 11,3 3,1 6,4 8,7 2,3 4,7 5,12 1,4 2,11 2,19 0,9 -1,16 -3,22 -2,6 -5,10 -9,13 -4,3 -8,5 -14,5 -8,0 -14,-3 -18,-8 -5,-7 -8,-18 -8,-32zm10 0c0,13 2,21 5,26 3,4 6,6 11,6 4,0 8,-2 11,-6 3,-5 5,-13 5,-26 0,-13 -2,-22 -5,-26 -3,-5 -7,-7 -11,-7 -5,0 -8,2 -11,6 -3,5 -5,14 -5,27z"/>
   <polygon id="21" class="fil2" points="983,1009 983,930 994,930 994,1009 "/>
   <path id="22" class="fil2" d="M1011 1009l0 -57 9 0 0 8c4,-6 10,-9 18,-9 3,0 7,0 9,1 3,2 5,3 7,5 1,2 2,5 3,7 0,2 0,5 0,10l0 35 -9 0 0 -35c0,-4 -1,-7 -1,-9 -1,-2 -2,-3 -4,-4 -2,-1 -5,-2 -7,-2 -4,0 -8,1 -11,4 -3,3 -4,8 -4,15l0 31 -10 0z"/>
   <path id="23" class="fil2" d="M1088 1009l-22 -57 11 0 12 34c1,4 3,8 4,12 1,-3 2,-7 3,-11l13 -35 10 0 -22 57 -9 0z"/>
   <path id="24" class="fil2" d="M1126 1010l5 -23 -9 0 0 -8 10 0 4 -19 -14 0 0 -8 16 0 5 -23 8 0 -5 23 17 0 5 -23 8 0 -5 23 9 0 0 8 -11 0 -4 19 15 0 0 8 -16 0 -5 23 -8 0 5 -23 -17 0 -5 23 -8 0zm14 -31l17 0 4 -19 -17 0 -4 19z"/>
   <path id="25" class="fil2" d="M1248 1009l0 -19 -34 0 0 -9 36 -51 8 0 0 51 11 0 0 9 -11 0 0 19 -10 0zm0 -28l0 -35 -24 35 24 0z"/>
   <path id="26" class="fil2" d="M1279 988l10 -1c1,5 3,9 5,12 3,2 6,3 10,3 5,0 9,-1 12,-4 3,-4 4,-7 4,-12 0,-5 -1,-8 -4,-11 -3,-3 -7,-5 -11,-5 -2,0 -4,1 -7,2l1 -9c1,0 1,0 2,0 4,0 8,-1 11,-3 3,-2 5,-6 5,-10 0,-4 -1,-7 -4,-9 -2,-2 -5,-3 -9,-3 -4,0 -7,1 -10,3 -2,3 -4,6 -4,11l-10 -2c1,-6 4,-11 8,-15 4,-4 9,-5 16,-5 4,0 8,1 12,2 3,2 6,5 8,8 2,3 3,7 3,10 0,4 -1,7 -3,9 -2,3 -4,6 -8,7 5,1 8,3 11,7 2,3 4,8 4,13 0,7 -3,12 -8,17 -5,5 -11,7 -19,7 -7,0 -13,-2 -17,-6 -5,-4 -8,-9 -8,-16z"/>
   <path id="27" class="fil2" d="M1391 1000l0 9 -52 0c0,-2 0,-4 1,-7 1,-3 4,-7 7,-10 2,-4 7,-8 12,-12 9,-7 15,-13 18,-17 3,-4 4,-8 4,-12 0,-3 -1,-7 -4,-9 -3,-3 -6,-4 -11,-4 -4,0 -8,1 -11,4 -3,3 -4,7 -4,12l-10 -1c0,-8 3,-14 8,-17 4,-4 10,-6 18,-6 7,0 13,2 18,6 4,4 6,9 6,16 0,3 0,6 -2,9 -1,3 -3,6 -6,10 -3,3 -8,8 -15,14 -6,5 -10,8 -11,10 -2,1 -3,3 -5,5l39 0z"/>
   <path id="28" class="fil2" d="M1402 988l10 -1c1,5 3,9 5,12 3,2 6,3 10,3 5,0 9,-1 12,-4 3,-4 4,-7 4,-12 0,-5 -1,-8 -4,-11 -3,-3 -7,-5 -11,-5 -2,0 -4,1 -7,2l1 -9c1,0 1,0 2,0 4,0 8,-1 11,-3 3,-2 5,-6 5,-10 0,-4 -1,-7 -4,-9 -2,-2 -5,-3 -9,-3 -4,0 -7,1 -10,3 -2,3 -4,6 -4,11l-10 -2c1,-6 4,-11 8,-15 4,-4 9,-5 16,-5 4,0 8,1 12,2 3,2 6,5 8,8 2,3 3,7 3,10 0,4 -1,7 -3,9 -2,3 -4,6 -8,7 5,1 8,3 11,7 2,3 4,8 4,13 0,7 -3,12 -8,17 -5,5 -11,7 -19,7 -7,0 -13,-2 -17,-6 -5,-4 -7,-9 -8,-16z"/>
   <path id="29" class="fil2" d="M981 1133l0 -79 28 0c6,0 11,0 14,1 4,1 8,3 11,5 5,4 8,8 10,14 2,5 3,12 3,19 0,6 -1,11 -2,16 -2,4 -3,8 -6,11 -2,3 -4,6 -7,7 -2,2 -6,3 -9,4 -4,1 -8,2 -13,2l-29 0zm11 -10l17 0c5,0 9,0 12,-1 3,-1 5,-2 7,-4 3,-3 5,-6 6,-10 1,-4 2,-9 2,-15 0,-9 -1,-15 -4,-20 -3,-4 -6,-7 -10,-9 -3,-1 -7,-1 -13,-1l-17 0 0 60z"/>
   <path id="30" class="fil2" d="M1098 1133l0 -9c-5,7 -11,10 -19,10 -3,0 -6,-1 -9,-2 -3,-1 -5,-3 -7,-5 -1,-2 -2,-4 -3,-7 0,-2 0,-5 0,-9l0 -36 10 0 0 32c0,5 0,9 0,10 1,3 2,5 4,6 2,2 4,3 7,3 3,0 6,-1 9,-3 2,-1 4,-3 5,-6 1,-2 2,-6 2,-11l0 -31 9 0 0 58 -8 0z"/>
   <path id="31" class="fil2" d="M1161 1114l10 1c-2,6 -5,11 -9,14 -4,3 -10,5 -16,5 -9,0 -15,-3 -20,-8 -5,-5 -8,-12 -8,-21 0,-10 3,-18 8,-23 5,-5 11,-8 19,-8 8,0 14,3 19,8 5,5 7,12 7,22 0,1 0,1 0,3l-43 0c1,6 2,11 6,14 3,3 7,5 12,5 3,0 6,-1 9,-3 2,-2 4,-5 6,-9zm-32 -15l32 0c-1,-5 -2,-9 -4,-11 -3,-4 -7,-6 -12,-6 -4,0 -8,2 -11,5 -3,3 -5,7 -5,12z"/>
   <path id="32" class="fil2" d="M1215 1133l0 -79 27 0c6,0 11,0 14,1 5,1 9,3 12,5 4,4 7,8 9,14 2,5 4,12 4,19 0,6 -1,11 -3,16 -1,4 -3,8 -5,11 -2,3 -5,6 -7,7 -3,2 -6,3 -10,4 -3,1 -8,2 -12,2l-29 0zm11 -10l16 0c6,0 10,0 13,-1 3,-1 5,-2 7,-4 2,-3 4,-6 6,-10 1,-4 2,-9 2,-15 0,-9 -2,-15 -4,-20 -3,-4 -6,-7 -10,-9 -3,-1 -8,-1 -14,-1l-16 0 0 60z"/>
   <path id="33" class="fil2" d="M1331 1126c-3,3 -7,5 -10,6 -4,1 -7,2 -11,2 -6,0 -11,-2 -15,-5 -3,-3 -5,-7 -5,-11 0,-3 1,-6 2,-8 2,-2 3,-4 5,-6 2,-1 5,-2 7,-3 2,0 5,-1 9,-1 8,-1 14,-2 17,-4 0,-1 0,-2 0,-2 0,-4 -1,-7 -2,-9 -3,-2 -7,-3 -11,-3 -5,0 -8,1 -11,3 -2,1 -3,4 -4,8l-10 -1c1,-4 2,-8 4,-10 2,-3 5,-5 9,-6 4,-1 8,-2 13,-2 5,0 9,1 12,2 3,1 5,2 7,4 1,2 2,4 3,7 0,1 0,4 0,9l0 13c0,9 0,14 1,17 0,2 1,5 2,7l-10 0c-1,-2 -2,-5 -2,-7zm-1 -22c-3,1 -8,3 -16,4 -4,0 -6,1 -8,2 -2,0 -3,1 -4,3 -1,1 -1,3 -1,4 0,3 1,5 3,7 2,1 5,2 8,2 4,0 7,0 10,-2 3,-2 5,-4 7,-7 1,-2 1,-5 1,-9l0 -4z"/>
   <path id="34" class="fil2" d="M1376 1124l2 9c-3,0 -6,1 -8,1 -3,0 -6,-1 -8,-2 -2,-1 -3,-3 -4,-5 -1,-1 -1,-5 -1,-11l0 -33 -7 0 0 -8 7 0 0 -14 10 -6 0 20 9 0 0 8 -9 0 0 33c0,3 0,5 0,6 0,1 1,1 2,2 1,0 2,0 3,0 1,0 3,0 4,0z"/>
   <path id="35" class="fil2" d="M1425 1114l10 1c-1,6 -4,11 -9,14 -4,3 -9,5 -16,5 -8,0 -15,-3 -20,-8 -5,-5 -7,-12 -7,-21 0,-10 2,-18 7,-23 5,-5 12,-8 19,-8 8,0 14,3 19,8 5,5 7,12 7,22 0,1 0,1 0,3l-42 0c0,6 2,11 5,14 3,3 7,5 12,5 4,0 7,-1 9,-3 3,-2 5,-5 6,-9zm-32 -15l32 0c0,-5 -1,-9 -3,-11 -4,-4 -8,-6 -12,-6 -5,0 -9,2 -12,5 -3,3 -4,7 -5,12z"/>
   <path id="36" class="fil2" d="M1450 1086l0 -11 11 0 0 11 -11 0zm0 47l0 -11 11 0 0 11 -11 0z"/>
   <line class="fil5 str0" x1="255" y1="1208" x2="3090" y2= "1208" />
  </g>
 </g>
</svg>
