<?xml version="1.0" encoding="UTF-8"?>
<!DOCTYPE svg PUBLIC "-//W3C//DTD SVG 1.1//EN" "http://www.w3.org/Graphics/SVG/1.1/DTD/svg11.dtd">
<!-- Creator: CorelDRAW X8 -->
<svg xmlns="http://www.w3.org/2000/svg" xml:space="preserve" width="4.29561in" height="3in" version="1.1" style="shape-rendering:geometricPrecision; text-rendering:geometricPrecision; image-rendering:optimizeQuality; fill-rule:evenodd; clip-rule:evenodd"
viewBox="0 0 2951 2061"
 xmlns:xlink="http://www.w3.org/1999/xlink">
 <defs>
  <style type="text/css">
   <![CDATA[
    .str0 {stroke:#1A237E;stroke-width:4.583}
    .fil4 {fill:none}
    .fil0 {fill:#1A237E}
    .fil1 {fill:#E8E8E8}
    .fil3 {fill:#FEFEFE;fill-rule:nonzero}
    .fil6 {fill:#606062;fill-rule:nonzero}
    .fil2 {fill:black;fill-rule:nonzero}
    .fil5 {fill:#1A237E;fill-rule:nonzero}
   ]]>
  </style>
 </defs>
 <g id="Layer_x0020_1">
  <metadata id="CorelCorpID_0Corel-Layer"/>
  <g id="_1410454608448">
   <path class="fil0" d="M1906 920l572 0c12,0 22,7 22,16l0 138c0,9 -10,16 -22,16l-572 0c-13,0 -23,-7 -23,-16l0 -138c0,-9 10,-16 23,-16z"/>
   <rect class="fil1" x="154" y="1180" width="2355" height="140"/>
   <path class="fil0" d="M2602 298l-2502 0c-55,0 -100,45 -100,100l0 1563c0,55 45,100 100,100l2502 0c55,0 100,-45 100,-100l0 -1563c0,-55 -45,-100 -100,-100zm6 1578c-1,56 -47,101 -103,100l-2309 0c-56,0 -102,-44 -103,-100l0 -1396c1,-56 47,-100 103,-100l2310 0c56,0 102,44 103,100l0 1396 -1 0z"/>
   <polygon class="fil2" points="218,810 218,752 196,752 196,744 248,744 248,752 227,752 227,810 "/>
   <path id="1" class="fil2" d="M243 786c0,-9 3,-15 7,-20 5,-3 10,-5 16,-5 6,0 12,2 16,7 4,4 6,10 6,17 0,6 -1,11 -3,15 -2,3 -4,6 -8,8 -3,2 -7,3 -11,3 -7,0 -13,-2 -17,-7 -4,-4 -6,-10 -6,-18zm8 0c0,6 2,11 4,14 3,3 6,4 11,4 4,0 7,-1 10,-4 2,-3 4,-8 4,-14 0,-6 -2,-11 -4,-14 -3,-3 -6,-4 -10,-4 -5,0 -8,1 -11,4 -2,3 -4,8 -4,14z"/>
   <path id="2" class="fil2" d="M300 810l0 -9 9 0 0 9c0,3 -1,6 -2,8 -1,2 -3,4 -6,5l-2 -4c2,-1 3,-2 4,-3 1,-1 1,-4 1,-6l-4 0z"/>
   <path class="fil2" d="M196 922l25 -66 10 0 27 66 -10 0 -8 -20 -28 0 -7 20 -9 0zm19 -27l23 0 -7 -18c-2,-6 -4,-10 -5,-14 -1,4 -2,9 -4,13l-7 19z"/>
   <path id="1" class="fil2" d="M264 922l0 -66 25 0c5,0 9,1 12,2 3,2 6,4 8,6 1,3 2,6 2,9 0,3 -1,5 -2,8 -2,2 -4,4 -7,6 4,1 7,3 9,6 2,3 3,6 3,10 0,3 0,6 -2,8 -1,3 -2,5 -4,7 -2,1 -5,2 -8,3 -3,1 -6,1 -10,1l-26 0zm9 -38l15 0c3,0 6,0 8,-1 2,-1 4,-2 5,-3 1,-2 2,-4 2,-6 0,-2 -1,-4 -2,-6 -1,-1 -3,-3 -5,-3 -1,-1 -5,-1 -10,-1l-13 0 0 20zm0 30l17 0c3,0 5,0 6,0 2,0 3,-1 5,-2 1,-1 2,-2 3,-4 1,-1 1,-3 1,-5 0,-3 0,-5 -2,-7 -1,-1 -3,-3 -5,-3 -2,-1 -5,-1 -9,-1l-16 0 0 22z"/>
   <path id="2" class="fil2" d="M373 899l9 2c-2,7 -5,13 -10,16 -4,4 -10,6 -17,6 -7,0 -13,-1 -17,-4 -5,-3 -8,-7 -11,-13 -2,-5 -3,-11 -3,-17 0,-7 1,-13 4,-18 2,-5 6,-9 11,-12 5,-3 10,-4 16,-4 7,0 12,2 17,5 4,4 7,8 9,14l-8 2c-2,-5 -4,-8 -7,-10 -3,-2 -7,-3 -11,-3 -5,0 -9,1 -13,3 -3,3 -6,6 -7,10 -1,4 -2,8 -2,13 0,5 1,10 2,14 2,4 5,7 8,9 3,3 7,4 11,4 5,0 9,-2 13,-5 3,-2 5,-7 6,-12z"/>
   <polygon id="3" class="fil2" points="418,922 418,856 427,856 427,914 460,914 460,922 "/>
   <path id="4" class="fil2" d="M487 915l1 7c-2,0 -5,1 -6,1 -3,0 -6,-1 -7,-2 -2,-1 -3,-2 -4,-4 0,-1 -1,-4 -1,-9l0 -27 -6 0 0 -7 6 0 0 -11 9 -5 0 16 8 0 0 7 -8 0 0 27c0,3 0,4 0,5 0,1 1,1 1,1 1,1 2,1 3,1 1,0 2,0 4,0z"/>
   <path id="5" class="fil2" d="M526 922l0 -6c-3,5 -8,7 -14,7 -4,0 -7,-1 -10,-3 -3,-2 -6,-5 -8,-9 -1,-4 -2,-8 -2,-13 0,-5 0,-9 2,-13 2,-4 4,-7 7,-9 3,-2 7,-3 11,-3 3,0 5,1 8,2 2,1 4,3 5,5l0 -24 8 0 0 66 -7 0zm-26 -24c0,6 1,11 4,14 2,3 6,4 9,4 4,0 7,-1 9,-4 3,-3 4,-7 4,-13 0,-7 -1,-11 -4,-14 -3,-3 -6,-5 -9,-5 -4,0 -7,1 -9,4 -3,3 -4,8 -4,14z"/>
   <polygon id="6" class="fil2" points="548,922 548,913 558,913 558,922 "/>
   <polygon class="fil2" points="196,1034 196,968 205,968 205,1034 "/>
   <path id="1" class="fil2" d="M219 1034l0 -48 7 0 0 7c4,-5 9,-8 16,-8 3,0 5,1 8,2 2,1 4,2 5,4 1,2 2,4 3,6 0,2 0,4 0,8l0 29 -8 0 0 -29c0,-3 0,-6 -1,-7 -1,-2 -2,-3 -3,-4 -2,-1 -4,-2 -6,-2 -3,0 -6,2 -9,4 -2,2 -4,6 -4,12l0 26 -8 0z"/>
   <path id="2" class="fil2" d="M301 1034l0 -6c-3,5 -7,7 -13,7 -4,0 -7,-1 -10,-3 -4,-2 -6,-5 -8,-9 -2,-4 -3,-8 -3,-13 0,-4 1,-9 3,-13 1,-3 4,-6 7,-8 3,-2 7,-4 11,-4 3,0 5,1 7,2 3,2 4,3 6,5l0 -24 8 0 0 66 -8 0zm-25 -24c0,6 1,11 4,14 2,3 5,4 9,4 3,0 6,-1 9,-4 2,-3 4,-7 4,-13 0,-6 -2,-11 -4,-14 -3,-3 -6,-5 -10,-5 -3,0 -6,2 -9,5 -2,2 -3,7 -3,13z"/>
   <path id="3" class="fil2" d="M319 1010c0,-9 2,-15 7,-19 4,-4 9,-6 15,-6 7,0 12,3 16,7 5,4 7,10 7,18 0,6 -1,11 -3,14 -2,4 -5,6 -8,8 -4,2 -8,3 -12,3 -6,0 -12,-2 -16,-6 -4,-5 -6,-11 -6,-19zm8 0c0,6 1,11 4,14 3,3 6,4 10,4 4,0 8,-1 10,-4 3,-3 4,-8 4,-14 0,-6 -1,-10 -4,-13 -2,-3 -6,-5 -10,-5 -4,0 -7,2 -10,5 -3,3 -4,7 -4,13z"/>
   <path id="4" class="fil2" d="M373 1034l0 -48 7 0 0 8c2,-4 4,-6 6,-7 1,-1 3,-2 5,-2 3,0 5,1 8,3l-3 7c-2,-1 -4,-1 -6,-1 -1,0 -3,0 -4,1 -2,1 -3,3 -3,5 -1,3 -2,6 -2,9l0 25 -8 0z"/>
   <path id="5" class="fil2" d="M437 1019l8 1c-1,5 -4,8 -7,11 -4,3 -8,4 -14,4 -7,0 -13,-2 -17,-6 -4,-5 -6,-11 -6,-18 0,-8 2,-15 6,-19 5,-4 10,-7 17,-7 6,0 11,3 15,7 4,4 6,10 6,18 0,1 0,1 0,2l-35 0c0,6 1,10 4,12 3,3 6,4 10,4 3,0 6,0 8,-2 2,-1 3,-4 5,-7zm-27 -13l27 0c-1,-4 -2,-7 -3,-9 -3,-3 -6,-5 -10,-5 -4,0 -7,1 -10,4 -2,2 -4,6 -4,10z"/>
   <polygon class="fil2" points="675,932 675,866 684,866 684,932 "/>
   <path id="1" class="fil2" d="M699 932l0 -48 7 0 0 7c3,-5 8,-8 15,-8 3,0 6,1 8,2 2,1 4,2 6,4 1,2 2,4 2,6 0,1 0,4 0,8l0 29 -8 0 0 -29c0,-3 0,-6 -1,-7 0,-2 -1,-3 -3,-4 -2,-1 -3,-2 -6,-2 -3,0 -6,1 -9,4 -2,2 -3,6 -3,12l0 26 -8 0z"/>
   <path id="2" class="fil2" d="M763 932l-18 -48 9 0 10 29c1,3 2,6 3,9 1,-2 2,-5 3,-9l11 -29 8 0 -18 48 -8 0z"/>
   <path id="3" class="fil2" d="M795 933l4 -19 -8 0 0 -7 9 0 3 -16 -12 0 0 -7 14 0 4 -19 6 0 -4 19 14 0 4 -19 7 0 -4 19 8 0 0 7 -9 0 -3 16 12 0 0 7 -14 0 -4 19 -7 0 4 -19 -14 0 -4 19 -6 0zm12 -26l14 0 3 -16 -14 0 -3 16z"/>
   <path id="4" class="fil2" d="M871 932l0 -16 -29 0 0 -7 31 -43 6 0 0 43 9 0 0 7 -9 0 0 16 -8 0zm0 -23l0 -30 -21 30 21 0z"/>
   <path id="5" class="fil2" d="M897 915l8 -2c1,5 2,8 4,10 3,2 5,3 9,3 4,0 7,-1 9,-4 3,-2 4,-5 4,-9 0,-4 -1,-7 -3,-9 -3,-3 -6,-4 -10,-4 -1,0 -3,0 -5,1l1 -7c0,0 0,0 1,0 3,0 6,-1 9,-3 3,-2 4,-4 4,-8 0,-3 -1,-5 -3,-7 -2,-2 -4,-3 -7,-3 -4,0 -6,1 -8,3 -3,2 -4,5 -4,9l-9 -2c1,-5 4,-9 7,-12 4,-3 8,-5 13,-5 4,0 7,1 10,2 3,2 6,4 7,7 2,2 3,5 3,8 0,3 -1,5 -3,8 -1,2 -3,4 -6,5 3,1 6,3 9,6 2,3 3,6 3,11 0,5 -2,10 -6,14 -5,4 -10,6 -16,6 -6,0 -11,-2 -15,-5 -4,-4 -6,-8 -6,-13z"/>
   <path id="6" class="fil2" d="M974 932l0 -16 -29 0 0 -7 30 -43 7 0 0 43 9 0 0 7 -9 0 0 16 -8 0zm0 -23l0 -30 -21 30 21 0z"/>
   <path class="fil2" d="M675 1044l0 -65 23 0c5,0 9,0 12,0 4,1 7,3 10,5 3,3 6,7 8,11 1,5 2,10 2,16 0,5 0,9 -2,13 -1,4 -2,7 -4,10 -2,2 -4,4 -6,6 -2,1 -5,2 -8,3 -3,1 -7,1 -11,1l-24 0zm9 -8l14 0c5,0 8,0 11,-1 2,-1 4,-2 6,-3 2,-2 3,-5 4,-8 1,-4 2,-8 2,-13 0,-7 -1,-12 -3,-16 -3,-4 -5,-6 -9,-7 -2,-1 -6,-2 -11,-2l-14 0 0 50z"/>
   <path id="1" class="fil2" d="M772 1044l0 -7c-3,5 -8,8 -15,8 -3,0 -5,0 -8,-1 -2,-2 -4,-3 -5,-4 -1,-2 -2,-4 -3,-6 0,-2 0,-5 0,-8l0 -29 8 0 0 26c0,4 0,7 1,8 0,3 1,4 3,5 1,2 3,2 6,2 2,0 5,0 7,-2 2,-1 3,-3 4,-5 1,-2 2,-5 2,-9l0 -25 8 0 0 47 -8 0z"/>
   <path id="2" class="fil2" d="M825 1029l9 1c-2,5 -4,8 -8,11 -3,3 -8,4 -13,4 -7,0 -13,-2 -17,-6 -4,-5 -6,-11 -6,-18 0,-8 2,-14 6,-19 4,-4 9,-6 16,-6 6,0 12,2 16,6 4,4 6,10 6,18 0,1 0,1 0,2l-36 0c0,6 2,10 5,12 2,3 6,5 10,5 3,0 5,-1 7,-3 2,-1 4,-4 5,-7zm-26 -13l26 0c0,-4 -1,-7 -3,-9 -2,-3 -6,-5 -10,-5 -4,0 -7,1 -9,4 -3,2 -4,6 -4,10z"/>
   <path id="3" class="fil2" d="M870 1044l0 -65 23 0c5,0 9,0 12,0 4,1 7,3 10,5 3,3 6,7 8,11 1,5 2,10 2,16 0,5 0,9 -2,13 -1,4 -2,7 -4,10 -2,2 -4,4 -6,6 -2,1 -5,2 -8,3 -3,1 -7,1 -11,1l-24 0zm9 -8l14 0c5,0 8,0 11,-1 2,-1 4,-2 6,-3 2,-2 3,-5 4,-8 1,-4 2,-8 2,-13 0,-7 -1,-12 -3,-16 -3,-4 -5,-6 -9,-7 -2,-1 -6,-2 -11,-2l-14 0 0 50z"/>
   <path id="4" class="fil2" d="M967 1038c-3,3 -6,5 -8,6 -3,1 -6,1 -9,1 -6,0 -10,-1 -12,-4 -3,-2 -5,-5 -5,-9 0,-3 1,-5 2,-7 1,-2 2,-3 4,-4 2,-2 4,-2 6,-3 2,0 4,-1 7,-1 7,-1 12,-2 15,-3 0,-1 0,-2 0,-2 0,-3 -1,-6 -3,-7 -2,-2 -5,-3 -9,-3 -4,0 -6,1 -8,2 -2,2 -3,4 -4,7l-8 -1c0,-3 2,-6 3,-8 2,-2 4,-4 8,-5 3,-1 6,-1 10,-1 4,0 8,0 10,1 3,1 5,2 6,4 1,1 2,3 3,5 0,1 0,4 0,8l0 10c0,8 0,12 0,14 1,2 1,4 2,6l-8 0c-1,-2 -1,-4 -2,-6zm0 -18c-3,2 -8,3 -14,3 -3,1 -5,1 -7,2 -1,1 -2,1 -3,3 -1,1 -1,2 -1,3 0,2 1,4 2,6 2,1 5,2 8,2 3,0 6,-1 8,-2 2,-2 4,-3 5,-6 1,-2 2,-4 2,-8l0 -3z"/>
   <path id="5" class="fil2" d="M1005 1037l1 7c-2,1 -4,1 -6,1 -3,0 -5,-1 -7,-2 -1,-1 -3,-2 -3,-3 -1,-2 -1,-5 -1,-10l0 -27 -6 0 0 -6 6 0 0 -12 8 -5 0 17 8 0 0 6 -8 0 0 28c0,2 0,3 0,4 1,1 1,1 2,2 0,0 1,0 3,0 0,0 2,0 3,0z"/>
   <path id="6" class="fil2" d="M1046 1029l8 1c-1,5 -4,8 -7,11 -4,3 -8,4 -14,4 -7,0 -12,-2 -16,-6 -5,-5 -7,-11 -7,-18 0,-8 2,-14 7,-19 4,-4 9,-6 16,-6 6,0 11,2 15,6 4,4 6,10 6,18 0,1 0,1 0,2l-35 0c0,6 2,10 4,12 3,3 6,5 10,5 3,0 6,-1 8,-3 2,-1 4,-4 5,-7zm-27 -13l27 0c0,-4 -2,-7 -3,-9 -3,-3 -6,-5 -10,-5 -4,0 -7,1 -10,4 -2,2 -4,6 -4,10z"/>
   <path id="7" class="fil2" d="M1088 1012c0,-8 1,-14 2,-19 2,-5 4,-8 7,-11 4,-2 8,-4 12,-4 4,0 7,1 10,2 2,2 5,4 6,7 2,2 3,5 4,9 1,4 2,9 2,16 0,7 -1,14 -2,18 -2,5 -4,9 -8,11 -3,3 -7,4 -12,4 -6,0 -11,-2 -15,-7 -4,-5 -6,-14 -6,-26zm8 0c0,11 1,18 4,21 3,4 6,6 9,6 4,0 7,-2 10,-6 2,-3 4,-10 4,-21 0,-11 -2,-18 -4,-22 -3,-3 -6,-5 -10,-5 -3,0 -6,2 -9,5 -2,4 -4,11 -4,22z"/>
   <path id="8" class="fil2" d="M1139 1027l9 -1c0,4 2,7 4,10 2,2 5,3 8,3 4,0 8,-2 10,-5 3,-3 4,-7 4,-11 0,-5 -1,-9 -3,-11 -3,-3 -6,-4 -11,-4 -2,0 -5,0 -7,2 -2,1 -3,2 -5,4l-7 -1 6 -34 33 0 0 8 -26 0 -4 18c4,-3 8,-4 12,-4 6,0 11,2 15,6 4,4 6,9 6,15 0,6 -2,11 -5,15 -4,6 -10,8 -18,8 -6,0 -10,-1 -14,-5 -4,-3 -6,-8 -7,-13z"/>
   <polygon id="9" class="fil2" points="1187,1045 1206,977 1212,977 1193,1045 "/>
   <path id="10" class="fil2" d="M1247 1044l-8 0 0 -51c-2,2 -5,4 -8,5 -3,2 -6,4 -9,5l0 -8c5,-2 9,-5 12,-8 4,-3 6,-6 7,-9l6 0 0 66z"/>
   <path id="11" class="fil2" d="M1268 1012c0,-8 0,-14 2,-19 2,-5 4,-8 7,-11 3,-2 7,-4 12,-4 4,0 7,1 9,2 3,2 5,4 7,7 2,2 3,5 4,9 1,4 2,9 2,16 0,7 -1,14 -3,18 -1,5 -4,9 -7,11 -3,3 -7,4 -12,4 -6,0 -11,-2 -15,-7 -4,-5 -6,-14 -6,-26zm8 0c0,11 1,18 4,21 2,4 5,6 9,6 4,0 7,-2 9,-6 3,-3 4,-10 4,-21 0,-11 -1,-18 -4,-22 -2,-3 -5,-5 -9,-5 -4,0 -7,2 -9,5 -3,4 -4,11 -4,22z"/>
   <polygon id="12" class="fil2" points="1315,1045 1334,977 1341,977 1322,1045 "/>
   <polygon id="13" class="fil2" points="1341,1045 1360,977 1366,977 1347,1045 "/>
   <path id="14" class="fil2" d="M1401 1044l-8 0 0 -51c-2,2 -5,4 -8,5 -3,2 -6,4 -9,5l0 -8c5,-2 9,-5 12,-8 4,-3 6,-6 7,-9l6 0 0 66z"/>
   <path id="15" class="fil2" d="M1434 1009c-3,-2 -6,-3 -7,-6 -2,-2 -3,-5 -3,-8 0,-5 2,-9 5,-12 4,-3 8,-5 14,-5 6,0 10,2 14,5 3,4 5,8 5,12 0,3 -1,6 -2,8 -2,3 -4,4 -7,6 4,1 7,3 9,6 2,3 3,6 3,10 0,6 -2,11 -6,15 -4,3 -9,5 -16,5 -6,0 -12,-2 -16,-5 -4,-4 -6,-9 -6,-15 0,-4 2,-8 4,-11 2,-2 5,-4 9,-5zm-2 -14c0,3 1,6 3,8 2,1 5,2 8,2 3,0 6,-1 8,-2 2,-2 3,-5 3,-8 0,-3 -1,-5 -3,-7 -2,-2 -5,-3 -8,-3 -3,0 -6,1 -8,3 -2,2 -3,4 -3,7zm-2 30c0,3 0,5 1,7 1,2 3,4 5,5 2,1 5,2 7,2 4,0 7,-2 10,-4 2,-3 4,-6 4,-10 0,-3 -2,-7 -4,-9 -3,-3 -6,-4 -10,-4 -4,0 -7,1 -10,4 -2,2 -3,5 -3,9z"/>
   <path class="fil3" d="M1979 972l24 0c6,0 10,0 13,1 4,1 7,3 10,6 3,3 5,7 6,11 2,4 2,9 2,15 0,6 0,10 -2,14 -1,5 -4,9 -7,12 -2,2 -5,4 -9,5 -3,1 -7,1 -12,1l-25 0 0 -65zm14 11l0 43 9 0c4,0 7,0 8,0 3,-1 4,-2 6,-3 1,-1 2,-3 3,-6 1,-3 2,-7 2,-12 0,-5 -1,-9 -2,-12 -1,-3 -2,-5 -3,-6 -2,-2 -4,-3 -7,-3 -1,-1 -5,-1 -11,-1l-5 0z"/>
   <path id="1" class="fil3" d="M2077 1037l0 -7c-1,3 -4,5 -7,6 -2,2 -5,3 -9,3 -3,0 -6,-1 -8,-2 -3,-2 -5,-4 -6,-6 -1,-3 -1,-6 -1,-11l0 -30 12 0 0 22c0,6 0,11 1,12 0,2 1,3 2,4 2,1 3,1 5,1 2,0 4,-1 6,-2 2,-1 3,-2 3,-4 1,-2 1,-6 1,-13l0 -20 13 0 0 47 -12 0z"/>
   <path id="2" class="fil3" d="M2130 1022l12 3c-1,4 -4,8 -7,10 -4,2 -8,4 -13,4 -9,0 -15,-3 -19,-8 -3,-5 -5,-10 -5,-17 0,-8 2,-14 7,-18 4,-5 9,-7 15,-7 7,0 13,2 17,7 4,5 6,12 6,21l-32 0c1,4 2,7 3,9 2,2 5,3 8,3 2,0 3,0 5,-1 1,-1 2,-3 3,-6zm1 -12c-1,-4 -1,-7 -3,-9 -2,-2 -4,-3 -7,-3 -3,0 -5,2 -7,4 -1,2 -2,4 -2,8l19 0z"/>
   <path id="3" class="fil3" d="M2156 1002l0 -12 12 0 0 12 -12 0zm0 35l0 -12 12 0 0 12 -12 0z"/>
   <path id="4" class="fil3" d="M2232 1037l0 -13 -27 0 0 -11 29 -41 10 0 0 41 8 0 0 11 -8 0 0 13 -12 0zm0 -24l0 -22 -15 22 15 0z"/>
   <path id="5" class="fil3" d="M2280 971c6,0 11,3 15,7 4,6 6,15 6,27 0,13 -2,21 -6,27 -4,4 -9,7 -15,7 -7,0 -12,-3 -16,-8 -4,-5 -6,-13 -6,-26 0,-12 3,-21 7,-27 3,-4 8,-7 15,-7zm0 11c-2,0 -3,0 -4,1 -1,1 -2,3 -3,6 -1,3 -1,8 -1,16 0,8 0,13 1,16 1,3 2,5 3,6 1,1 2,1 4,1 1,0 3,0 4,-1 1,-1 2,-3 3,-6 1,-3 1,-8 1,-16 0,-8 0,-13 -1,-16 -1,-3 -2,-5 -3,-6 -1,-1 -3,-1 -4,-1z"/>
   <path id="6" class="fil3" d="M2331 971c7,0 12,3 15,7 5,6 7,15 7,27 0,13 -2,21 -7,27 -3,4 -8,7 -15,7 -6,0 -11,-3 -15,-8 -4,-5 -6,-13 -6,-26 0,-12 2,-21 6,-27 4,-4 9,-7 15,-7zm0 11c-1,0 -3,0 -4,1 -1,1 -2,3 -3,6 0,3 -1,8 -1,16 0,8 1,13 1,16 1,3 2,5 3,6 1,1 3,1 4,1 2,0 3,0 4,-1 1,-1 2,-3 3,-6 1,-3 1,-8 1,-16 0,-8 0,-13 -1,-16 -1,-3 -2,-5 -3,-6 -1,-1 -2,-1 -4,-1z"/>
   <path id="7" class="fil3" d="M2383 971c6,0 11,3 15,7 4,6 6,15 6,27 0,13 -2,21 -6,27 -4,4 -9,7 -15,7 -7,0 -12,-3 -16,-8 -4,-5 -6,-13 -6,-26 0,-12 2,-21 7,-27 3,-4 8,-7 15,-7zm0 11c-2,0 -3,0 -4,1 -2,1 -3,3 -3,6 -1,3 -2,8 -2,16 0,8 1,13 2,16 0,3 1,5 3,6 1,1 2,1 4,1 1,0 2,0 4,-1 1,-1 2,-3 2,-6 1,-3 2,-8 2,-16 0,-8 -1,-13 -2,-16 0,-3 -1,-5 -2,-6 -2,-1 -3,-1 -4,-1z"/>
   <line class="fil4" x1="199" y1="1099" x2="2488" y2= "1089" />
   <path class="fil5" d="M239 584l0 -13 34 0 0 31c-3,3 -8,6 -14,9 -7,2 -13,3 -20,3 -8,0 -15,-1 -21,-5 -6,-3 -11,-8 -14,-15 -3,-6 -5,-13 -5,-21 0,-8 2,-15 5,-22 4,-6 9,-11 16,-14 5,-3 11,-4 19,-4 9,0 17,2 23,6 5,4 9,10 10,17l-16 3c-1,-4 -3,-7 -6,-9 -3,-3 -7,-4 -11,-4 -7,0 -13,3 -17,7 -4,4 -6,11 -6,20 0,9 2,16 6,21 4,4 10,7 16,7 4,0 7,-1 10,-2 4,-2 7,-3 9,-5l0 -10 -18 0z"/>
   <path id="1" class="fil5" d="M284 587l16 -1c0,5 2,9 5,11 3,3 7,4 12,4 5,0 9,-1 11,-3 3,-2 4,-5 4,-8 0,-2 0,-3 -1,-5 -1,-1 -3,-2 -6,-3 -2,-1 -6,-2 -13,-4 -8,-2 -14,-4 -18,-7 -5,-5 -7,-10 -7,-16 0,-4 1,-8 3,-12 3,-3 6,-6 10,-8 5,-1 10,-2 16,-2 10,0 17,2 22,6 5,5 8,11 8,18l-16 0c-1,-4 -2,-7 -4,-8 -3,-2 -6,-3 -10,-3 -5,0 -9,1 -11,3 -2,1 -3,3 -3,5 0,2 1,3 3,4 2,2 7,4 14,6 8,2 14,4 17,5 4,2 7,5 9,8 2,4 3,8 3,13 0,5 -1,9 -3,13 -3,4 -6,7 -11,8 -5,2 -10,3 -17,3 -10,0 -18,-2 -23,-7 -6,-4 -9,-11 -10,-20z"/>
   <polygon id="2" class="fil5" points="380,613 380,547 356,547 356,534 419,534 419,547 396,547 396,613 "/>
   <polygon id="3" class="fil5" points="460,613 460,534 476,534 476,613 "/>
   <polygon id="4" class="fil5" points="491,613 491,534 507,534 539,587 539,534 554,534 554,613 538,613 506,561 506,613 "/>
   <polygon id="5" class="fil5" points="592,613 563,534 581,534 601,592 620,534 637,534 609,613 "/>
   <path id="6" class="fil5" d="M642 574c0,-8 1,-15 3,-20 2,-4 5,-8 8,-11 3,-3 6,-6 10,-7 5,-2 11,-3 17,-3 12,0 21,3 28,11 7,7 11,17 11,30 0,12 -4,22 -11,30 -7,7 -16,10 -28,10 -11,0 -21,-3 -28,-10 -7,-8 -10,-17 -10,-30zm16 -1c0,9 2,16 7,21 4,4 9,7 15,7 7,0 12,-3 16,-7 4,-5 6,-12 6,-21 0,-9 -2,-16 -6,-20 -4,-4 -9,-7 -16,-7 -6,0 -12,3 -16,7 -4,5 -6,11 -6,20z"/>
   <polygon id="7" class="fil5" points="731,613 731,534 747,534 747,613 "/>
   <path id="8" class="fil5" d="M813 584l15 5c-2,8 -6,15 -12,19 -5,4 -12,6 -21,6 -10,0 -19,-3 -26,-10 -6,-8 -10,-17 -10,-30 0,-13 4,-23 10,-30 7,-8 16,-11 27,-11 10,0 18,3 24,8 4,4 6,9 8,15l-16 4c-1,-4 -3,-8 -6,-10 -3,-2 -6,-4 -10,-4 -6,0 -11,2 -15,7 -3,4 -5,11 -5,20 0,10 2,17 5,21 4,4 8,7 14,7 4,0 8,-2 11,-4 3,-3 5,-7 7,-13z"/>
   <polygon id="9" class="fil5" points="842,613 842,534 901,534 901,547 858,547 858,565 898,565 898,578 858,578 858,600 902,600 902,613 "/>
   <path class="fil2" d="M709 784l0 -8 28 0 0 25c-5,3 -9,6 -14,7 -4,2 -9,3 -14,3 -6,0 -12,-2 -17,-4 -6,-3 -10,-7 -12,-12 -3,-6 -5,-11 -5,-18 0,-6 2,-12 4,-18 3,-5 7,-9 12,-12 5,-3 11,-4 18,-4 4,0 9,1 12,2 4,2 7,4 10,7 2,2 3,6 5,10l-8 3c-1,-4 -3,-6 -4,-8 -1,-2 -4,-4 -6,-5 -3,-1 -6,-2 -9,-2 -4,0 -8,1 -11,2 -3,1 -5,3 -7,5 -2,2 -3,4 -4,6 -2,5 -2,9 -2,14 0,6 1,10 3,14 2,4 5,7 8,9 4,2 8,3 13,3 4,0 7,-1 11,-2 3,-2 6,-3 8,-5l0 -12 -19 0z"/>
   <path id="1" class="fil2" d="M747 789l8 -1c0,3 1,6 3,8 1,2 3,4 6,5 3,1 7,2 10,2 4,0 7,0 9,-1 3,-1 5,-3 6,-4 1,-2 2,-4 2,-6 0,-2 -1,-4 -2,-5 -1,-2 -3,-3 -6,-4 -2,-1 -6,-2 -12,-4 -6,-1 -10,-2 -13,-4 -3,-1 -5,-3 -7,-6 -1,-2 -2,-5 -2,-8 0,-3 1,-6 3,-9 2,-3 5,-5 8,-7 4,-1 8,-2 12,-2 5,0 10,1 13,2 4,2 7,4 9,7 2,3 3,7 3,11l-8 0c-1,-4 -2,-7 -5,-9 -2,-2 -6,-3 -11,-3 -6,0 -9,1 -12,3 -2,1 -3,4 -3,7 0,2 0,4 2,5 2,2 6,3 13,5 7,2 12,3 15,4 4,2 7,4 8,7 2,3 3,6 3,9 0,4 -1,7 -3,10 -2,3 -5,6 -9,7 -3,2 -8,3 -12,3 -6,0 -11,-1 -15,-3 -4,-2 -7,-4 -10,-8 -2,-3 -3,-7 -3,-11z"/>
   <polygon id="2" class="fil2" points="828,810 828,752 806,752 806,744 858,744 858,752 837,752 837,810 "/>
   <polygon id="3" class="fil2" points="869,810 869,744 878,744 878,810 "/>
   <polygon id="4" class="fil2" points="893,810 893,744 902,744 937,796 937,744 945,744 945,810 936,810 901,758 901,810 "/>
   <path id="5" class="fil2" d="M961 771l0 -9 9 0 0 9 -9 0zm0 39l0 -9 9 0 0 9 -9 0z"/>
   <path id="6" class="fil2" d="M1013 810l-8 0 0 -52c-2,2 -5,4 -8,6 -3,2 -6,3 -9,4l0 -8c5,-2 9,-4 12,-7 4,-3 6,-6 7,-9l6 0 0 66z"/>
   <path id="7" class="fil2" d="M1057 810l-8 0 0 -52c-2,2 -5,4 -8,6 -3,2 -6,3 -8,4l0 -8c4,-2 8,-4 12,-7 3,-3 5,-6 7,-9l5 0 0 66z"/>
   <path id="8" class="fil2" d="M1074 810l25 -66 10 0 27 66 -10 0 -8 -20 -28 0 -7 20 -9 0zm19 -27l23 0 -7 -18c-2,-6 -4,-11 -5,-14 -1,4 -2,8 -4,12l-7 20z"/>
   <path id="9" class="fil2" d="M1136 810l25 -66 10 0 26 66 -9 0 -8 -20 -28 0 -7 20 -9 0zm19 -27l22 0 -7 -18c-2,-6 -3,-11 -5,-14 0,4 -2,8 -3,12l-7 20z"/>
   <path id="10" class="fil2" d="M1197 810l26 -66 9 0 27 66 -10 0 -8 -20 -27 0 -8 20 -9 0zm19 -27l23 0 -7 -18c-2,-6 -4,-11 -5,-14 -1,4 -2,8 -4,12l-7 20z"/>
   <path id="11" class="fil2" d="M1259 810l25 -66 10 0 27 66 -10 0 -8 -20 -28 0 -7 20 -9 0zm19 -27l22 0 -7 -18c-2,-6 -3,-11 -4,-14 -1,4 -2,8 -4,12l-7 20z"/>
   <path id="12" class="fil2" d="M1320 810l26 -66 9 0 27 66 -10 0 -7 -20 -28 0 -7 20 -10 0zm19 -27l23 0 -7 -18c-2,-6 -4,-11 -5,-14 -1,4 -2,8 -3,12l-8 20z"/>
   <path id="13" class="fil2" d="M1382 810l25 -66 10 0 27 66 -10 0 -8 -20 -28 0 -7 20 -9 0zm19 -27l22 0 -6 -18c-3,-6 -4,-11 -5,-14 -1,4 -2,8 -4,12l-7 20z"/>
   <path id="14" class="fil2" d="M1447 777c0,-7 1,-14 3,-18 1,-5 4,-9 7,-11 3,-3 7,-4 12,-4 4,0 7,1 9,2 3,1 5,3 7,6 2,3 3,6 4,10 1,4 1,9 1,15 0,8 0,14 -2,19 -1,5 -4,8 -7,11 -3,3 -7,4 -12,4 -6,0 -11,-2 -15,-7 -4,-5 -7,-14 -7,-27zm9 0c0,11 1,18 4,22 2,3 5,5 9,5 4,0 7,-2 9,-5 3,-4 4,-11 4,-22 0,-10 -1,-18 -4,-21 -2,-4 -5,-6 -9,-6 -4,0 -7,2 -9,5 -3,4 -4,12 -4,22z"/>
   <path id="15" class="fil2" d="M1499 777c0,-7 1,-14 2,-18 2,-5 4,-9 7,-11 4,-3 8,-4 12,-4 4,0 7,1 10,2 2,1 5,3 6,6 2,3 3,6 4,10 1,4 2,9 2,15 0,8 -1,14 -3,19 -1,5 -4,8 -7,11 -3,3 -7,4 -12,4 -6,0 -11,-2 -15,-7 -4,-5 -6,-14 -6,-27zm8 0c0,11 1,18 4,22 2,3 6,5 9,5 4,0 7,-2 10,-5 2,-4 4,-11 4,-22 0,-10 -2,-18 -4,-21 -3,-4 -6,-6 -10,-6 -4,0 -6,2 -9,5 -3,4 -4,12 -4,22z"/>
   <path id="16" class="fil2" d="M1550 777c0,-7 1,-14 3,-18 1,-5 4,-9 7,-11 3,-3 7,-4 12,-4 3,0 6,1 9,2 3,1 5,3 7,6 1,3 3,6 4,10 1,4 1,9 1,15 0,8 -1,14 -2,19 -2,5 -4,8 -7,11 -4,3 -8,4 -12,4 -7,0 -12,-2 -15,-7 -5,-5 -7,-14 -7,-27zm8 0c0,11 2,18 4,22 3,3 6,5 10,5 3,0 7,-2 9,-5 3,-4 4,-11 4,-22 0,-10 -1,-18 -4,-21 -2,-4 -6,-6 -9,-6 -4,0 -7,2 -9,5 -3,4 -5,12 -5,22z"/>
   <path id="17" class="fil2" d="M1597 810l26 -66 9 0 27 66 -10 0 -7 -20 -28 0 -7 20 -10 0zm19 -27l23 0 -7 -18c-2,-6 -4,-11 -5,-14 -1,4 -2,8 -3,12l-8 20z"/>
   <path id="18" class="fil2" d="M1694 810l-9 0 0 -52c-2,2 -4,4 -7,6 -3,2 -6,3 -9,4l0 -8c5,-2 9,-4 12,-7 3,-3 6,-6 7,-9l6 0 0 66z"/>
   <path id="19" class="fil2" d="M1712 810l0 -8 34 -42c3,-3 5,-6 7,-8l-37 0 0 -8 48 0 0 8 -38 45 -4 5 43 0 0 8 -53 0z"/>
   <path id="20" class="fil2" d="M1771 777c0,-7 1,-14 2,-18 2,-5 4,-9 7,-11 4,-3 8,-4 12,-4 4,0 7,1 10,2 2,1 5,3 6,6 2,3 3,6 4,10 1,4 2,9 2,15 0,8 -1,14 -3,19 -1,5 -4,8 -7,11 -3,3 -7,4 -12,4 -6,0 -11,-2 -15,-7 -4,-5 -6,-14 -6,-27zm8 0c0,11 1,18 4,22 2,3 6,5 9,5 4,0 7,-2 10,-5 2,-4 4,-11 4,-22 0,-10 -2,-18 -4,-21 -3,-4 -6,-6 -10,-6 -4,0 -6,2 -9,5 -3,4 -4,12 -4,22z"/>
   <g>
    <path class="fil6" d="M272 1275l0 -53 20 0c3,0 6,0 8,1 2,0 5,1 6,2 2,1 4,3 5,5 1,2 1,5 1,7 0,5 -1,9 -4,12 -3,3 -8,4 -16,4l-13 0 0 22 -7 0zm7 -28l14 0c4,0 7,-1 9,-2 2,-2 3,-4 3,-7 0,-3 -1,-5 -2,-6 -1,-2 -2,-3 -4,-3 -1,-1 -3,-1 -7,-1l-13 0 0 19z"/>
    <path id="1" class="fil6" d="M320 1275l0 -38 6 0 0 5c2,-2 3,-4 4,-5 1,-1 3,-1 4,-1 3,0 5,0 7,2l-2 6c-2,-1 -3,-2 -5,-2 -1,0 -3,1 -4,2 -1,1 -2,2 -2,3 -1,3 -1,5 -1,8l0 20 -7 0z"/>
    <path id="2" class="fil6" d="M342 1256c0,-7 2,-13 6,-16 4,-3 8,-4 12,-4 6,0 10,1 13,5 4,3 5,8 5,14 0,5 0,9 -2,12 -1,2 -3,5 -6,6 -3,2 -6,2 -10,2 -5,0 -9,-1 -13,-5 -3,-3 -5,-8 -5,-14zm7 0c0,4 1,8 3,11 2,2 5,3 8,3 4,0 6,-1 9,-3 2,-3 3,-7 3,-12 0,-4 -1,-8 -4,-10 -2,-3 -4,-4 -8,-4 -3,0 -6,1 -8,4 -2,2 -3,6 -3,11z"/>
    <path id="3" class="fil6" d="M411 1275l0 -5c-3,4 -6,5 -11,5 -3,0 -6,0 -8,-2 -3,-2 -5,-4 -6,-7 -2,-3 -2,-6 -2,-10 0,-4 0,-8 1,-11 2,-3 4,-5 6,-7 3,-1 6,-2 9,-2 2,0 4,0 6,1 2,1 3,2 4,4l0 -19 7 0 0 53 -6 0zm-21 -19c0,5 1,8 3,11 2,2 5,3 8,3 2,0 5,-1 7,-3 2,-3 3,-6 3,-11 0,-5 -1,-9 -3,-11 -2,-3 -5,-4 -8,-4 -3,0 -5,1 -7,4 -2,2 -3,6 -3,11z"/>
    <path id="4" class="fil6" d="M452 1275l0 -6c-3,4 -7,6 -12,6 -2,0 -4,0 -6,-1 -2,-1 -4,-2 -5,-3 -1,-1 -1,-3 -2,-5 0,-1 0,-3 0,-6l0 -23 6 0 0 21c0,3 1,5 1,6 0,2 1,3 2,4 2,1 3,2 5,2 2,0 4,-1 6,-2 1,-1 3,-2 3,-4 1,-1 1,-4 1,-7l0 -20 7 0 0 38 -6 0z"/>
    <path id="5" class="fil6" d="M493 1261l7 1c-1,4 -3,7 -6,10 -3,2 -6,3 -10,3 -6,0 -10,-1 -13,-5 -3,-3 -5,-8 -5,-14 0,-4 1,-8 2,-11 2,-3 4,-5 7,-7 2,-1 5,-2 9,-2 4,0 7,1 10,3 2,2 4,5 5,9l-6 1c-1,-3 -2,-5 -4,-6 -1,-1 -3,-2 -5,-2 -3,0 -6,1 -8,4 -2,2 -3,6 -3,11 0,5 1,8 3,11 2,2 4,3 8,3 2,0 4,-1 6,-2 2,-2 3,-4 3,-7z"/>
    <path id="6" class="fil6" d="M519 1269l1 6c-2,0 -3,0 -5,0 -2,0 -4,0 -5,-1 -2,-1 -3,-2 -3,-3 -1,-1 -1,-4 -1,-8l0 -21 -5 0 0 -5 5 0 0 -10 7 -4 0 14 6 0 0 5 -6 0 0 22c0,2 0,3 0,3 0,1 1,1 1,2 1,0 1,0 2,0 1,0 2,0 3,0z"/>
    <path class="fil6" d="M272 1411l6 0c1,2 1,5 3,6 1,2 3,3 5,4 2,1 5,2 8,2 3,0 5,0 7,-1 2,-1 4,-2 5,-4 1,-1 1,-2 1,-4 0,-2 0,-3 -1,-4 -1,-2 -3,-3 -5,-3 -1,-1 -5,-2 -9,-3 -5,-1 -9,-2 -11,-3 -2,-2 -4,-3 -5,-5 -2,-2 -2,-4 -2,-7 0,-2 1,-5 2,-7 2,-2 4,-4 7,-5 3,-2 6,-2 9,-2 4,0 8,0 11,2 3,1 5,3 7,5 1,3 2,5 2,9l-6 0c-1,-3 -2,-6 -4,-7 -2,-2 -5,-3 -9,-3 -4,0 -8,1 -10,2 -1,2 -2,4 -2,6 0,2 0,3 2,5 1,1 5,2 10,3 6,2 10,3 12,4 3,1 5,3 7,5 1,2 2,5 2,7 0,3 -1,6 -3,8 -1,3 -3,5 -6,6 -3,1 -7,2 -11,2 -4,0 -8,-1 -12,-2 -3,-1 -5,-3 -7,-6 -2,-3 -3,-6 -3,-10z"/>
    <path id="1" class="fil6" d="M348 1423c-3,2 -5,4 -7,5 -3,1 -5,1 -7,1 -5,0 -8,-1 -10,-3 -2,-2 -4,-5 -4,-8 0,-2 1,-3 2,-5 1,-1 2,-3 3,-4 1,-1 3,-1 5,-2 1,0 3,0 5,-1 6,0 10,-1 12,-2 0,-1 0,-1 0,-2 0,-2 0,-4 -2,-5 -1,-2 -4,-2 -7,-2 -3,0 -5,0 -7,1 -1,1 -2,3 -3,6l-6 -1c0,-3 1,-5 2,-6 2,-2 4,-3 6,-4 3,-1 6,-2 9,-2 3,0 6,1 8,1 2,1 3,2 4,3 1,2 2,3 2,5 1,1 1,3 1,6l0 8c0,6 0,10 0,12 0,1 1,3 2,4l-7 0c-1,-1 -1,-3 -1,-5zm-1 -14c-2,1 -6,2 -11,3 -2,0 -4,0 -5,1 -1,0 -2,1 -3,2 0,1 -1,2 -1,3 0,2 1,3 2,4 2,1 4,2 6,2 3,0 5,-1 7,-2 2,-1 3,-2 4,-4 1,-2 1,-4 1,-7l0 -2z"/>
    <path id="2" class="fil6" d="M364 1428l0 -38 6 0 0 6c1,-2 2,-4 4,-5 2,-1 5,-2 7,-2 3,0 5,1 7,2 2,1 3,3 4,5 3,-4 7,-7 12,-7 4,0 7,1 9,3 2,3 3,6 3,10l0 26 -7 0 0 -24c0,-2 0,-4 0,-5 -1,-1 -2,-2 -3,-3 -1,-1 -2,-1 -4,-1 -2,0 -5,1 -6,3 -2,1 -3,4 -3,8l0 22 -7 0 0 -24c0,-3 0,-6 -1,-7 -1,-1 -3,-2 -5,-2 -2,0 -4,0 -5,1 -2,1 -3,3 -4,5 0,1 -1,4 -1,7l0 20 -6 0z"/>
    <path id="3" class="fil6" d="M425 1443l0 -53 6 0 0 5c2,-2 3,-3 5,-4 2,-1 4,-2 6,-2 3,0 6,1 9,3 2,2 4,4 6,7 1,3 1,6 1,10 0,4 0,7 -2,10 -1,3 -3,6 -6,8 -2,1 -5,2 -8,2 -2,0 -4,0 -6,-1 -2,-1 -3,-2 -4,-4l0 19 -7 0zm6 -34c0,5 1,9 3,11 2,3 4,4 7,4 3,0 6,-1 8,-4 2,-2 3,-6 3,-11 0,-5 -1,-9 -3,-11 -2,-2 -5,-4 -7,-4 -3,0 -6,2 -8,4 -2,3 -3,7 -3,11z"/>
    <polygon id="4" class="fil6" points="466,1428 466,1376 473,1376 473,1428 "/>
    <path id="5" class="fil6" d="M509 1416l7 1c-1,4 -3,7 -6,9 -3,2 -7,3 -11,3 -6,0 -10,-2 -14,-5 -3,-4 -4,-8 -4,-15 0,-6 1,-11 5,-14 3,-4 7,-6 12,-6 5,0 10,2 13,6 3,3 5,8 5,14 0,0 0,1 0,2l-29 0c0,4 2,7 4,9 2,3 5,4 8,4 2,0 4,-1 6,-2 2,-1 3,-3 4,-6zm-21 -10l21 0c0,-4 -1,-6 -3,-8 -2,-2 -4,-3 -8,-3 -3,0 -5,1 -7,3 -2,2 -3,4 -3,8z"/>
    <path id="6" class="fil6" d="M567 1428l-7 0 0 -41c-1,2 -3,3 -6,5 -2,1 -5,2 -7,3l0 -6c4,-2 7,-4 10,-6 3,-3 5,-5 6,-8l4 0 0 53z"/>
    <path class="fil6" d="M272 1564l6 0c1,2 1,5 3,6 1,2 3,3 5,4 2,1 5,2 8,2 3,0 5,0 7,-1 2,-1 4,-2 5,-4 1,-1 1,-2 1,-4 0,-2 0,-3 -1,-4 -1,-2 -3,-3 -5,-3 -1,-1 -5,-2 -9,-3 -5,-1 -9,-2 -11,-3 -2,-2 -4,-3 -5,-5 -2,-2 -2,-4 -2,-7 0,-2 1,-5 2,-7 2,-2 4,-4 7,-5 3,-2 6,-2 9,-2 4,0 8,0 11,2 3,1 5,3 7,5 1,3 2,5 2,9l-6 0c-1,-3 -2,-6 -4,-7 -2,-2 -5,-3 -9,-3 -4,0 -8,1 -10,2 -1,2 -2,4 -2,6 0,2 0,3 2,5 1,1 5,2 10,3 6,2 10,3 12,4 3,1 5,3 7,5 1,2 2,5 2,7 0,3 -1,6 -3,8 -1,3 -3,5 -6,6 -3,1 -7,2 -11,2 -4,0 -8,-1 -12,-2 -3,-1 -5,-3 -7,-6 -2,-3 -3,-6 -3,-10z"/>
    <path id="1" class="fil6" d="M348 1576c-3,2 -5,4 -7,5 -3,1 -5,1 -7,1 -5,0 -8,-1 -10,-3 -2,-2 -4,-5 -4,-8 0,-2 1,-3 2,-5 1,-1 2,-3 3,-4 1,-1 3,-1 5,-2 1,0 3,0 5,-1 6,0 10,-1 12,-2 0,-1 0,-1 0,-2 0,-2 0,-4 -2,-5 -1,-2 -4,-2 -7,-2 -3,0 -5,0 -7,1 -1,1 -2,3 -3,6l-6 -1c0,-3 1,-5 2,-6 2,-2 4,-3 6,-4 3,-1 6,-2 9,-2 3,0 6,1 8,1 2,1 3,2 4,3 1,2 2,3 2,5 1,1 1,3 1,6l0 8c0,6 0,10 0,12 0,1 1,3 2,4l-7 0c-1,-1 -1,-3 -1,-5zm-1 -14c-2,1 -6,2 -11,3 -2,0 -4,0 -5,1 -1,0 -2,1 -3,2 0,1 -1,2 -1,3 0,2 1,3 2,4 2,1 4,2 6,2 3,0 5,-1 7,-2 2,-1 3,-2 4,-4 1,-2 1,-4 1,-7l0 -2z"/>
    <path id="2" class="fil6" d="M364 1581l0 -38 6 0 0 6c1,-2 2,-4 4,-5 2,-1 5,-2 7,-2 3,0 5,1 7,2 2,1 3,3 4,5 3,-4 7,-7 12,-7 4,0 7,1 9,3 2,3 3,6 3,10l0 26 -7 0 0 -24c0,-2 0,-4 0,-5 -1,-1 -2,-2 -3,-3 -1,-1 -2,-1 -4,-1 -2,0 -5,1 -6,3 -2,1 -3,4 -3,8l0 22 -7 0 0 -24c0,-3 0,-6 -1,-7 -1,-1 -3,-2 -5,-2 -2,0 -4,0 -5,1 -2,1 -3,3 -4,5 0,1 -1,4 -1,7l0 20 -6 0z"/>
    <path id="3" class="fil6" d="M425 1596l0 -53 6 0 0 5c2,-2 3,-3 5,-4 2,-1 4,-2 6,-2 3,0 6,1 9,3 2,2 4,4 6,7 1,3 1,6 1,10 0,4 0,7 -2,10 -1,3 -3,6 -6,8 -2,1 -5,2 -8,2 -2,0 -4,0 -6,-1 -2,-1 -3,-2 -4,-4l0 19 -7 0zm6 -34c0,5 1,9 3,11 2,3 4,4 7,4 3,0 6,-1 8,-4 2,-2 3,-6 3,-11 0,-5 -1,-9 -3,-11 -2,-2 -5,-4 -7,-4 -3,0 -6,2 -8,4 -2,3 -3,7 -3,11z"/>
    <polygon id="4" class="fil6" points="466,1581 466,1529 473,1529 473,1581 "/>
    <path id="5" class="fil6" d="M509 1569l7 1c-1,4 -3,7 -6,9 -3,2 -7,3 -11,3 -6,0 -10,-2 -14,-5 -3,-4 -4,-8 -4,-15 0,-6 1,-11 5,-14 3,-4 7,-6 12,-6 5,0 10,2 13,6 3,3 5,8 5,14 0,0 0,1 0,2l-29 0c0,4 2,7 4,9 2,3 5,4 8,4 2,0 4,-1 6,-2 2,-1 3,-3 4,-6zm-21 -10l21 0c0,-4 -1,-6 -3,-8 -2,-2 -4,-3 -8,-3 -3,0 -5,1 -7,3 -2,2 -3,4 -3,8z"/>
    <path id="6" class="fil6" d="M577 1575l0 6 -35 0c-1,-1 0,-3 0,-4 1,-3 3,-5 5,-7 2,-3 4,-5 8,-8 6,-5 10,-9 12,-11 2,-3 3,-6 3,-8 0,-3 -1,-5 -3,-7 -2,-1 -4,-2 -7,-2 -3,0 -6,1 -8,3 -2,1 -3,4 -3,7l-6 0c0,-5 2,-9 5,-12 3,-2 7,-4 12,-4 5,0 9,2 12,5 3,2 4,6 4,10 0,2 0,4 -1,6 -1,2 -2,4 -4,7 -2,2 -5,5 -10,9 -4,3 -7,5 -8,7 -1,1 -2,2 -2,3l26 0z"/>
    <path class="fil6" d="M272 1706l6 0c1,2 1,4 3,6 1,2 3,3 5,4 2,1 5,2 8,2 3,0 5,-1 7,-1 2,-1 4,-2 5,-4 1,-1 1,-3 1,-4 0,-2 0,-3 -1,-5 -1,-1 -3,-2 -5,-3 -1,0 -5,-1 -9,-2 -5,-1 -9,-2 -11,-3 -2,-2 -4,-3 -5,-5 -2,-2 -2,-4 -2,-7 0,-3 1,-5 2,-7 2,-3 4,-4 7,-6 3,-1 6,-1 9,-1 4,0 8,0 11,1 3,2 5,4 7,6 1,2 2,5 2,8l-6 1c-1,-4 -2,-6 -4,-8 -2,-1 -5,-2 -9,-2 -4,0 -8,1 -10,2 -1,2 -2,3 -2,6 0,2 0,3 2,4 1,2 5,3 10,4 6,1 10,2 12,3 3,2 5,4 7,6 1,2 2,4 2,7 0,3 -1,6 -3,8 -1,3 -3,4 -6,6 -3,1 -7,2 -11,2 -4,0 -8,-1 -12,-2 -3,-2 -5,-4 -7,-6 -2,-3 -3,-6 -3,-10z"/>
    <path id="1" class="fil6" d="M348 1718c-3,2 -5,4 -7,5 -3,0 -5,1 -7,1 -5,0 -8,-1 -10,-3 -2,-2 -4,-5 -4,-8 0,-2 1,-4 2,-5 1,-2 2,-3 3,-4 1,-1 3,-1 5,-2 1,0 3,-1 5,-1 6,-1 10,-1 12,-2 0,-1 0,-2 0,-2 0,-2 0,-4 -2,-5 -1,-2 -4,-3 -7,-3 -3,0 -5,1 -7,2 -1,1 -2,3 -3,6l-6 -1c0,-3 1,-5 2,-7 2,-1 4,-3 6,-4 3,0 6,-1 9,-1 3,0 6,1 8,1 2,1 3,2 4,3 1,1 2,3 2,5 1,1 1,3 1,5l0 9c0,6 0,10 0,11 0,2 1,4 2,5l-7 0c-1,-1 -1,-3 -1,-5zm-1 -14c-2,1 -6,2 -11,2 -2,1 -4,1 -5,2 -1,0 -2,1 -3,2 0,1 -1,2 -1,3 0,1 1,3 2,4 2,1 4,2 6,2 3,0 5,-1 7,-2 2,-1 3,-2 4,-4 1,-2 1,-4 1,-7l0 -2z"/>
    <path id="2" class="fil6" d="M364 1723l0 -38 6 0 0 5c1,-2 2,-3 4,-4 2,-1 5,-2 7,-2 3,0 5,1 7,2 2,1 3,3 4,5 3,-5 7,-7 12,-7 4,0 7,1 9,3 2,2 3,6 3,10l0 26 -7 0 0 -24c0,-3 0,-4 0,-6 -1,-1 -2,-2 -3,-2 -1,-1 -2,-1 -4,-1 -2,0 -5,1 -6,2 -2,2 -3,5 -3,9l0 22 -7 0 0 -25c0,-3 0,-5 -1,-6 -1,-2 -3,-2 -5,-2 -2,0 -4,0 -5,1 -2,1 -3,2 -4,4 0,2 -1,5 -1,8l0 20 -6 0z"/>
    <path id="3" class="fil6" d="M425 1738l0 -53 6 0 0 5c2,-2 3,-3 5,-4 2,-1 4,-2 6,-2 3,0 6,1 9,3 2,1 4,4 6,7 1,3 1,6 1,10 0,4 0,7 -2,10 -1,3 -3,6 -6,7 -2,2 -5,3 -8,3 -2,0 -4,-1 -6,-2 -2,0 -3,-2 -4,-3l0 19 -7 0zm6 -34c0,5 1,9 3,11 2,2 4,4 7,4 3,0 6,-2 8,-4 2,-3 3,-6 3,-11 0,-5 -1,-9 -3,-11 -2,-3 -5,-4 -7,-4 -3,0 -6,1 -8,4 -2,3 -3,6 -3,11z"/>
    <polygon id="4" class="fil6" points="466,1723 466,1670 473,1670 473,1723 "/>
    <path id="5" class="fil6" d="M509 1711l7 1c-1,3 -3,6 -6,9 -3,2 -7,3 -11,3 -6,0 -10,-2 -14,-5 -3,-4 -4,-9 -4,-15 0,-6 1,-11 5,-15 3,-3 7,-5 12,-5 5,0 10,2 13,5 3,4 5,9 5,15 0,0 0,1 0,2l-29 0c0,4 2,7 4,9 2,2 5,4 8,4 2,0 4,-1 6,-2 2,-2 3,-4 4,-6zm-21 -11l21 0c0,-3 -1,-5 -3,-7 -2,-2 -4,-4 -8,-4 -3,0 -5,1 -7,3 -2,2 -3,5 -3,8z"/>
    <path id="6" class="fil6" d="M543 1709l6 -1c1,4 2,6 4,8 2,2 4,3 6,3 3,0 6,-2 8,-4 2,-2 3,-4 3,-7 0,-3 -1,-6 -3,-8 -2,-2 -4,-3 -7,-3 -1,0 -3,1 -5,1l1 -6c0,0 1,0 1,0 3,0 5,0 8,-2 2,-1 3,-3 3,-6 0,-3 -1,-5 -3,-6 -1,-2 -3,-2 -6,-2 -2,0 -4,0 -6,2 -2,2 -3,4 -3,7l-7 -1c1,-4 3,-8 6,-10 2,-3 6,-4 10,-4 3,0 6,1 8,2 2,1 4,3 6,5 1,2 2,4 2,7 0,2 -1,4 -2,6 -2,2 -3,3 -6,4 3,1 6,3 8,5 1,2 2,5 2,8 0,5 -2,9 -5,12 -3,3 -8,5 -13,5 -4,0 -8,-2 -11,-4 -3,-3 -5,-7 -5,-11z"/>
    <path class="fil6" d="M272 1859l6 0c1,2 1,4 3,6 1,2 3,3 5,4 2,1 5,2 8,2 3,0 5,-1 7,-1 2,-1 4,-2 5,-4 1,-1 1,-3 1,-4 0,-2 0,-3 -1,-5 -1,-1 -3,-2 -5,-3 -1,0 -5,-1 -9,-2 -5,-1 -9,-2 -11,-3 -2,-2 -4,-3 -5,-5 -2,-2 -2,-4 -2,-7 0,-3 1,-5 2,-7 2,-3 4,-4 7,-6 3,-1 6,-1 9,-1 4,0 8,0 11,1 3,2 5,4 7,6 1,2 2,5 2,8l-6 1c-1,-3 -2,-6 -4,-8 -2,-1 -5,-2 -9,-2 -4,0 -8,1 -10,2 -1,2 -2,3 -2,6 0,2 0,3 2,4 1,2 5,3 10,4 6,1 10,2 12,3 3,2 5,4 7,6 1,2 2,4 2,7 0,3 -1,6 -3,8 -1,3 -3,4 -6,6 -3,1 -7,2 -11,2 -4,0 -8,-1 -12,-2 -3,-2 -5,-4 -7,-6 -2,-3 -3,-6 -3,-10z"/>
    <path id="1" class="fil6" d="M348 1871c-3,2 -5,4 -7,5 -3,0 -5,1 -7,1 -5,0 -8,-1 -10,-3 -2,-2 -4,-5 -4,-8 0,-2 1,-4 2,-5 1,-2 2,-3 3,-4 1,-1 3,-1 5,-2 1,0 3,-1 5,-1 6,-1 10,-1 12,-2 0,-1 0,-2 0,-2 0,-2 0,-4 -2,-5 -1,-2 -4,-3 -7,-3 -3,0 -5,1 -7,2 -1,1 -2,3 -3,6l-6 -1c0,-3 1,-5 2,-7 2,-1 4,-3 6,-4 3,0 6,-1 9,-1 3,0 6,1 8,1 2,1 3,2 4,3 1,1 2,3 2,5 1,1 1,3 1,5l0 9c0,6 0,10 0,11 0,2 1,4 2,5l-7 0c-1,-1 -1,-3 -1,-5zm-1 -14c-2,1 -6,2 -11,2 -2,1 -4,1 -5,2 -1,0 -2,1 -3,2 0,1 -1,2 -1,3 0,1 1,3 2,4 2,1 4,2 6,2 3,0 5,-1 7,-2 2,-1 3,-2 4,-4 1,-2 1,-4 1,-7l0 -2z"/>
    <path id="2" class="fil6" d="M364 1876l0 -38 6 0 0 5c1,-2 2,-3 4,-4 2,-1 5,-2 7,-2 3,0 5,1 7,2 2,1 3,3 4,5 3,-5 7,-7 12,-7 4,0 7,1 9,3 2,2 3,6 3,10l0 26 -7 0 0 -24c0,-3 0,-4 0,-6 -1,-1 -2,-2 -3,-2 -1,-1 -2,-1 -4,-1 -2,0 -5,1 -6,2 -2,2 -3,5 -3,9l0 22 -7 0 0 -25c0,-3 0,-5 -1,-6 -1,-2 -3,-2 -5,-2 -2,0 -4,0 -5,1 -2,1 -3,2 -4,4 0,2 -1,5 -1,8l0 20 -6 0z"/>
    <path id="3" class="fil6" d="M425 1891l0 -53 6 0 0 5c2,-2 3,-3 5,-4 2,-1 4,-2 6,-2 3,0 6,1 9,3 2,1 4,4 6,7 1,3 1,6 1,10 0,4 0,7 -2,10 -1,3 -3,6 -6,7 -2,2 -5,3 -8,3 -2,0 -4,-1 -6,-2 -2,0 -3,-2 -4,-3l0 19 -7 0zm6 -34c0,5 1,9 3,11 2,2 4,4 7,4 3,0 6,-2 8,-4 2,-3 3,-6 3,-11 0,-5 -1,-9 -3,-11 -2,-3 -5,-4 -7,-4 -3,0 -6,1 -8,4 -2,3 -3,6 -3,11z"/>
    <polygon id="4" class="fil6" points="466,1876 466,1823 473,1823 473,1876 "/>
    <path id="5" class="fil6" d="M509 1864l7 1c-1,3 -3,6 -6,9 -3,2 -7,3 -11,3 -6,0 -10,-2 -14,-5 -3,-4 -4,-9 -4,-15 0,-6 1,-11 5,-15 3,-3 7,-5 12,-5 5,0 10,2 13,5 3,4 5,9 5,15 0,0 0,1 0,2l-29 0c0,4 2,7 4,9 2,2 5,4 8,4 2,0 4,-1 6,-2 2,-2 3,-4 4,-6zm-21 -11l21 0c0,-3 -1,-5 -3,-7 -2,-2 -4,-4 -8,-4 -3,0 -5,1 -7,3 -2,2 -3,5 -3,8z"/>
    <path id="6" class="fil6" d="M563 1876l0 -13 -23 0 0 -5 24 -35 6 0 0 35 7 0 0 5 -7 0 0 13 -7 0zm0 -18l0 -24 -16 24 16 0z"/>
   </g>
   <g>
    <polygon class="fil6" points="864,1275 864,1222 871,1222 871,1244 898,1244 898,1222 905,1222 905,1275 898,1275 898,1250 871,1250 871,1275 "/>
    <path id="1" class="fil6" d="M915 1258l6 -1c1,3 1,5 3,7 1,1 3,3 5,4 2,1 5,1 8,1 3,0 5,0 7,-1 2,-1 4,-2 5,-3 1,-1 1,-3 1,-5 0,-1 0,-3 -1,-4 -1,-1 -3,-2 -5,-3 -1,-1 -5,-1 -9,-3 -5,-1 -9,-2 -11,-3 -2,-1 -4,-3 -5,-5 -2,-2 -2,-4 -2,-6 0,-3 1,-5 2,-8 2,-2 4,-4 7,-5 3,-1 6,-2 9,-2 4,0 8,1 11,2 3,1 5,3 7,6 1,2 2,5 2,8l-6 0c-1,-3 -2,-5 -4,-7 -2,-2 -5,-3 -9,-3 -5,0 -8,1 -10,3 -1,1 -2,3 -2,5 0,2 0,4 2,5 1,1 4,2 10,4 6,1 10,2 12,3 3,1 5,3 7,5 1,3 2,5 2,8 0,3 -1,5 -3,8 -1,2 -3,4 -6,5 -3,2 -7,3 -11,3 -4,0 -8,-1 -12,-3 -3,-1 -5,-3 -7,-6 -2,-3 -3,-6 -3,-9z"/>
    <polygon id="2" class="fil6" points="966,1275 966,1222 974,1222 1001,1263 1001,1222 1008,1222 1008,1275 1001,1275 973,1233 973,1275 "/>
    <path class="fil6" d="M803 1428l-7 0 0 -41c-1,2 -4,3 -6,5 -3,1 -5,2 -7,3l0 -6c4,-2 7,-4 10,-6 2,-3 4,-5 5,-8l5 0 0 53z"/>
    <path id="1" class="fil6" d="M853 1422l0 6 -35 0c0,-1 1,-3 1,-4 1,-3 2,-5 4,-7 2,-3 5,-5 9,-8 6,-5 10,-9 12,-11 2,-3 3,-6 3,-8 0,-3 -1,-5 -3,-7 -2,-1 -4,-2 -7,-2 -4,0 -6,1 -8,3 -2,1 -3,4 -3,7l-6 0c0,-5 2,-9 5,-12 3,-2 7,-4 12,-4 5,0 9,2 12,5 3,2 4,6 4,10 0,2 0,4 -1,6 -1,2 -2,4 -4,7 -2,2 -6,5 -10,9 -4,3 -7,5 -8,7 -1,1 -2,2 -3,3l26 0z"/>
    <path id="2" class="fil6" d="M860 1414l7 -1c1,4 2,7 4,8 1,2 4,3 6,3 3,0 6,-1 8,-3 2,-3 3,-5 3,-8 0,-3 -1,-6 -3,-8 -2,-1 -4,-2 -7,-2 -1,0 -3,0 -5,0l1 -5c0,0 1,0 1,0 3,0 5,-1 7,-2 3,-2 4,-4 4,-7 0,-2 -1,-4 -3,-6 -1,-1 -3,-2 -6,-2 -2,0 -5,1 -6,2 -2,2 -3,4 -3,7l-7 -1c1,-4 3,-8 5,-10 3,-2 7,-4 11,-4 3,0 5,1 8,2 2,2 4,3 5,5 2,2 2,5 2,7 0,2 0,4 -1,6 -2,2 -3,4 -6,5 3,0 6,2 7,4 2,2 3,5 3,9 0,4 -2,8 -5,11 -3,3 -8,5 -13,5 -4,0 -8,-1 -11,-4 -3,-3 -5,-6 -6,-11z"/>
    <path id="3" class="fil6" d="M926 1428l-7 0 0 -41c-1,2 -3,3 -6,5 -2,1 -5,2 -7,3l0 -6c4,-2 7,-4 10,-6 3,-3 5,-5 6,-8l4 0 0 53z"/>
    <path id="4" class="fil6" d="M963 1428l0 -12 -23 0 0 -6 24 -34 6 0 0 34 7 0 0 6 -7 0 0 12 -7 0zm0 -18l0 -24 -16 24 16 0z"/>
    <path id="5" class="fil6" d="M1008 1428l-7 0 0 -41c-1,2 -3,3 -6,5 -2,1 -5,2 -7,3l0 -6c4,-2 7,-4 10,-6 3,-3 5,-5 6,-8l4 0 0 53z"/>
    <path class="fil6" d="M803 1581l-7 0 0 -41c-1,2 -4,3 -6,5 -3,1 -5,2 -7,3l0 -6c4,-2 7,-4 10,-6 2,-3 4,-5 5,-8l5 0 0 53z"/>
    <path id="1" class="fil6" d="M853 1575l0 6 -35 0c0,-1 1,-3 1,-4 1,-3 2,-5 4,-7 2,-3 5,-5 9,-8 6,-5 10,-9 12,-11 2,-3 3,-6 3,-8 0,-3 -1,-5 -3,-7 -2,-1 -4,-2 -7,-2 -4,0 -6,1 -8,3 -2,1 -3,4 -3,7l-6 0c0,-5 2,-9 5,-12 3,-2 7,-4 12,-4 5,0 9,2 12,5 3,2 4,6 4,10 0,2 0,4 -1,6 -1,2 -2,4 -4,7 -2,2 -6,5 -10,9 -4,3 -7,5 -8,7 -1,1 -2,2 -3,3l26 0z"/>
    <path id="2" class="fil6" d="M860 1567l7 -1c1,4 2,7 4,8 1,2 4,3 6,3 3,0 6,-1 8,-3 2,-3 3,-5 3,-8 0,-3 -1,-6 -3,-8 -2,-1 -4,-2 -7,-2 -1,0 -3,0 -5,0l1 -5c0,0 1,0 1,0 3,0 5,-1 7,-2 3,-2 4,-4 4,-7 0,-2 -1,-4 -3,-6 -1,-1 -3,-2 -6,-2 -2,0 -5,1 -6,2 -2,2 -3,4 -3,7l-7 -1c1,-4 3,-8 5,-10 3,-2 7,-4 11,-4 3,0 5,1 8,2 2,2 4,3 5,5 2,2 2,5 2,7 0,2 0,4 -1,6 -2,2 -3,4 -6,5 3,0 6,2 7,4 2,2 3,5 3,9 0,4 -2,8 -5,11 -3,3 -8,5 -13,5 -4,0 -8,-1 -11,-4 -3,-3 -5,-6 -6,-11z"/>
    <path id="3" class="fil6" d="M926 1581l-7 0 0 -41c-1,2 -3,3 -6,5 -2,1 -5,2 -7,3l0 -6c4,-2 7,-4 10,-6 3,-3 5,-5 6,-8l4 0 0 53z"/>
    <path id="4" class="fil6" d="M963 1581l0 -12 -23 0 0 -6 24 -34 6 0 0 34 7 0 0 6 -7 0 0 12 -7 0zm0 -18l0 -24 -16 24 16 0z"/>
    <path id="5" class="fil6" d="M1008 1581l-7 0 0 -41c-1,2 -3,3 -6,5 -2,1 -5,2 -7,3l0 -6c4,-2 7,-4 10,-6 3,-3 5,-5 6,-8l4 0 0 53z"/>
    <path class="fil6" d="M803 1734l-7 0 0 -41c-1,2 -4,3 -6,5 -3,1 -5,2 -7,3l0 -6c4,-2 7,-4 10,-6 2,-3 4,-5 5,-8l5 0 0 53z"/>
    <path id="1" class="fil6" d="M853 1728l0 6 -35 0c0,-1 1,-3 1,-4 1,-3 2,-5 4,-7 2,-3 5,-5 9,-8 6,-5 10,-9 12,-11 2,-3 3,-6 3,-8 0,-3 -1,-5 -3,-7 -2,-1 -4,-2 -7,-2 -4,0 -6,1 -8,3 -2,1 -3,4 -3,7l-6 0c0,-5 2,-9 5,-12 3,-2 7,-4 12,-4 5,0 9,2 12,5 3,2 4,6 4,10 0,2 0,4 -1,6 -1,2 -2,4 -4,7 -2,2 -6,5 -10,9 -4,3 -7,5 -8,7 -1,1 -2,2 -3,3l26 0z"/>
    <path id="2" class="fil6" d="M860 1720l7 -1c1,4 2,7 4,8 1,2 4,3 6,3 3,0 6,-1 8,-3 2,-3 3,-5 3,-8 0,-3 -1,-6 -3,-8 -2,-1 -4,-2 -7,-2 -1,0 -3,0 -5,0l1 -5c0,0 1,0 1,0 3,0 5,-1 7,-2 3,-2 4,-4 4,-7 0,-2 -1,-4 -3,-6 -1,-1 -3,-2 -6,-2 -2,0 -5,1 -6,2 -2,2 -3,4 -3,7l-7 -1c1,-4 3,-8 5,-10 3,-2 7,-4 11,-4 3,0 5,1 8,2 2,2 4,3 5,5 2,2 2,5 2,7 0,2 0,4 -1,6 -2,2 -3,4 -6,5 3,0 6,2 7,4 2,2 3,5 3,9 0,4 -2,8 -5,11 -3,4 -8,5 -13,5 -4,0 -8,-1 -11,-4 -3,-3 -5,-6 -6,-11z"/>
    <path id="3" class="fil6" d="M926 1734l-7 0 0 -41c-1,2 -3,3 -6,5 -2,1 -5,2 -7,3l0 -6c4,-2 7,-4 10,-6 3,-3 5,-5 6,-8l4 0 0 53z"/>
    <path id="4" class="fil6" d="M963 1734l0 -12 -23 0 0 -6 24 -34 6 0 0 34 7 0 0 6 -7 0 0 12 -7 0zm0 -18l0 -24 -16 24 16 0z"/>
    <path id="5" class="fil6" d="M1008 1734l-7 0 0 -41c-1,2 -3,3 -6,5 -2,1 -5,2 -7,3l0 -6c4,-2 7,-4 10,-6 3,-3 5,-5 6,-8l4 0 0 53z"/>
    <path class="fil6" d="M803 1887l-7 0 0 -41c-1,2 -4,3 -6,5 -3,1 -5,2 -7,3l0 -6c4,-2 7,-4 10,-6 2,-3 4,-5 5,-8l5 0 0 53z"/>
    <path id="1" class="fil6" d="M853 1881l0 6 -35 0c0,-1 1,-3 1,-4 1,-3 2,-5 4,-7 2,-3 5,-5 9,-8 6,-5 10,-9 12,-11 2,-3 3,-6 3,-8 0,-3 -1,-5 -3,-7 -2,-1 -4,-2 -7,-2 -4,0 -6,1 -8,3 -2,1 -3,4 -3,7l-6 0c0,-5 2,-9 5,-12 3,-2 7,-4 12,-4 5,0 9,2 12,5 3,2 4,6 4,10 0,2 0,4 -1,6 -1,2 -2,4 -4,7 -2,2 -6,5 -10,9 -4,3 -7,5 -8,7 -1,1 -2,2 -3,3l26 0z"/>
    <path id="2" class="fil6" d="M860 1873l7 -1c1,4 2,7 4,8 1,2 4,3 6,3 3,0 6,-1 8,-3 2,-3 3,-5 3,-8 0,-3 -1,-6 -3,-8 -2,-1 -4,-2 -7,-2 -1,0 -3,0 -5,0l1 -5c0,0 1,0 1,0 3,0 5,-1 7,-2 3,-2 4,-4 4,-7 0,-2 -1,-4 -3,-6 -1,-1 -3,-2 -6,-2 -2,0 -5,1 -6,2 -2,2 -3,4 -3,7l-7 -1c1,-4 3,-8 5,-10 3,-2 7,-4 11,-4 3,0 5,1 8,2 2,2 4,3 5,5 2,2 2,5 2,7 0,2 0,4 -1,6 -2,2 -3,4 -6,5 3,0 6,2 7,4 2,2 3,5 3,9 0,4 -2,8 -5,11 -3,4 -8,5 -13,5 -4,0 -8,-1 -11,-4 -3,-3 -5,-6 -6,-11z"/>
    <path id="3" class="fil6" d="M926 1887l-7 0 0 -41c-1,2 -3,3 -6,5 -2,1 -5,2 -7,3l0 -6c4,-2 7,-4 10,-6 3,-3 5,-5 6,-8l4 0 0 53z"/>
    <path id="4" class="fil6" d="M963 1887l0 -12 -23 0 0 -6 24 -34 6 0 0 34 7 0 0 6 -7 0 0 12 -7 0zm0 -18l0 -24 -16 24 16 0z"/>
    <path id="5" class="fil6" d="M1008 1887l-7 0 0 -41c-1,2 -3,3 -6,5 -2,1 -5,2 -7,3l0 -6c4,-2 7,-4 10,-6 3,-3 5,-5 6,-8l4 0 0 53z"/>
   </g>
   <g>
    <polygon class="fil6" points="2272,1275 2272,1228 2255,1228 2255,1222 2297,1222 2297,1228 2279,1228 2279,1275 "/>
    <path id="1" class="fil6" d="M2293 1256c0,-7 2,-13 6,-16 3,-3 7,-4 12,-4 5,0 9,1 12,5 4,3 5,8 5,14 0,5 0,9 -2,12 -1,2 -3,5 -6,6 -3,2 -6,2 -9,2 -6,0 -10,-1 -13,-5 -4,-3 -5,-8 -5,-14zm6 0c0,4 1,8 3,11 3,2 5,3 9,3 3,0 5,-1 8,-3 2,-3 3,-7 3,-12 0,-4 -1,-8 -3,-10 -3,-3 -5,-4 -8,-4 -4,0 -6,1 -9,4 -2,2 -3,6 -3,11z"/>
    <path id="2" class="fil6" d="M2350 1269l1 6c-2,0 -3,0 -5,0 -2,0 -4,0 -5,-1 -2,-1 -2,-2 -3,-3 -1,-1 -1,-4 -1,-8l0 -21 -5 0 0 -5 5 0 0 -10 7 -4 0 14 6 0 0 5 -6 0 0 22c0,2 0,3 0,3 0,1 1,1 1,2 1,0 1,0 2,0 1,0 2,0 3,0z"/>
    <path id="3" class="fil6" d="M2382 1270c-3,2 -5,3 -7,4 -3,1 -5,1 -7,1 -5,0 -8,-1 -10,-3 -2,-2 -4,-4 -4,-7 0,-2 1,-4 2,-6 1,-1 2,-2 3,-3 1,-1 3,-2 5,-2 1,-1 3,-1 6,-1 5,-1 9,-2 11,-2 0,-1 0,-2 0,-2 0,-3 0,-5 -2,-6 -1,-1 -4,-2 -7,-2 -3,0 -5,1 -7,2 -1,1 -2,3 -3,5l-6 0c0,-3 1,-5 2,-7 2,-2 4,-3 6,-4 3,-1 6,-1 9,-1 3,0 6,0 8,1 2,1 3,2 4,3 1,1 2,2 2,4 1,1 1,3 1,6l0 9c0,6 0,9 0,11 0,2 1,3 2,5l-7 0c-1,-2 -1,-3 -1,-5zm-1 -14c-2,1 -6,1 -10,2 -3,0 -5,1 -6,1 -1,1 -2,1 -3,2 0,1 -1,2 -1,3 0,2 1,4 2,5 2,1 4,1 6,1 3,0 5,0 7,-1 2,-1 3,-3 4,-5 1,-1 1,-3 1,-6l0 -2z"/>
    <polygon id="4" class="fil6" points="2398,1275 2398,1222 2404,1222 2404,1275 "/>
    <path class="fil6" d="M2287 1403l7 0c1,3 2,5 4,7 2,2 4,3 6,3 4,0 6,-2 8,-4 3,-2 4,-5 4,-9 0,-4 -1,-7 -3,-9 -3,-2 -5,-3 -9,-3 -2,0 -4,0 -5,1 -2,1 -3,2 -4,4l-6 -1 5 -27 26 0 0 6 -21 0 -3 14c3,-2 7,-3 10,-3 5,0 9,2 12,5 3,3 5,7 5,12 0,5 -2,9 -5,12 -3,5 -8,7 -14,7 -4,0 -8,-1 -11,-4 -3,-3 -5,-6 -6,-11z"/>
    <path id="1" class="fil6" d="M2329 1391c0,-6 0,-11 1,-15 2,-4 4,-7 6,-9 3,-2 6,-3 10,-3 3,0 5,1 7,2 2,1 4,3 6,5 1,2 2,5 3,8 1,3 1,7 1,12 0,6 -1,11 -2,15 -1,4 -3,7 -6,9 -2,2 -5,3 -9,3 -5,0 -9,-2 -12,-6 -4,-4 -5,-11 -5,-21zm6 0c0,9 1,14 3,17 2,3 5,5 8,5 3,0 5,-2 7,-5 2,-3 3,-8 3,-17 0,-9 -1,-14 -3,-17 -2,-3 -4,-4 -7,-4 -3,0 -6,1 -7,3 -3,4 -4,9 -4,18z"/>
    <path id="2" class="fil6" d="M2370 1391c0,-6 0,-11 2,-15 1,-4 3,-7 5,-9 3,-2 6,-3 10,-3 3,0 5,1 7,2 2,1 4,3 6,5 1,2 2,5 3,8 1,3 1,7 1,12 0,6 -1,11 -2,15 -1,4 -3,7 -6,9 -2,2 -5,3 -9,3 -5,0 -9,-2 -12,-6 -4,-4 -5,-11 -5,-21zm6 0c0,9 1,14 3,17 2,3 5,5 8,5 3,0 5,-2 7,-5 2,-3 3,-8 3,-17 0,-9 -1,-14 -3,-17 -2,-3 -4,-4 -7,-4 -3,0 -6,1 -7,3 -3,4 -4,9 -4,18z"/>
    <path class="fil6" d="M2312 1570l-7 0 0 -41c-1,1 -3,3 -6,4 -2,2 -5,3 -7,4l0 -7c4,-1 7,-3 10,-6 3,-2 5,-4 6,-7l4 0 0 53z"/>
    <path id="1" class="fil6" d="M2329 1544c0,-6 0,-11 1,-15 2,-4 4,-7 6,-9 3,-2 6,-3 10,-3 3,0 5,1 7,2 2,1 4,3 6,5 1,2 2,5 3,8 1,3 1,7 1,12 0,6 -1,11 -2,15 -1,4 -3,7 -6,9 -2,2 -5,3 -9,3 -5,0 -9,-2 -12,-6 -4,-4 -5,-11 -5,-21zm6 0c0,9 1,14 3,17 2,3 5,5 8,5 3,0 5,-2 7,-5 2,-3 3,-8 3,-17 0,-9 -1,-14 -3,-17 -2,-3 -4,-4 -7,-4 -3,0 -6,1 -7,3 -3,4 -4,9 -4,18z"/>
    <path id="2" class="fil6" d="M2370 1544c0,-6 0,-11 2,-15 1,-4 3,-7 5,-9 3,-2 6,-3 10,-3 3,0 5,1 7,2 2,1 4,3 6,5 1,2 2,5 3,8 1,3 1,7 1,12 0,6 -1,11 -2,15 -1,4 -3,7 -6,9 -2,2 -5,3 -9,3 -5,0 -9,-2 -12,-6 -4,-4 -5,-11 -5,-21zm6 0c0,9 1,14 3,17 2,3 5,5 8,5 3,0 5,-2 7,-5 2,-3 3,-8 3,-17 0,-9 -1,-14 -3,-17 -2,-3 -4,-4 -7,-4 -3,0 -6,1 -7,3 -3,4 -4,9 -4,18z"/>
    <path class="fil6" d="M2271 1734l-7 0 0 -41c-1,2 -3,3 -6,5 -2,1 -5,2 -7,3l0 -6c4,-2 7,-4 10,-6 3,-3 4,-5 6,-8l4 0 0 53z"/>
    <path id="1" class="fil6" d="M2287 1708c0,-6 1,-11 2,-15 2,-3 4,-6 6,-8 3,-2 6,-4 10,-4 3,0 5,1 7,2 2,1 4,3 5,5 2,2 3,5 4,8 1,3 1,7 1,12 0,6 -1,11 -2,15 -1,4 -3,7 -6,9 -2,2 -5,3 -9,3 -5,0 -9,-2 -12,-5 -4,-5 -6,-12 -6,-22zm7 0c0,9 1,15 3,18 2,2 5,4 8,4 3,0 5,-2 7,-4 2,-3 3,-9 3,-18 0,-8 -1,-14 -3,-17 -2,-3 -4,-4 -7,-4 -3,0 -6,1 -8,4 -2,3 -3,9 -3,17z"/>
    <path id="2" class="fil6" d="M2329 1708c0,-6 0,-11 1,-15 2,-3 4,-6 6,-8 3,-2 6,-4 10,-4 3,0 5,1 7,2 2,1 4,3 6,5 1,2 2,5 3,8 1,3 1,7 1,12 0,6 -1,11 -2,15 -1,4 -3,7 -6,9 -2,2 -5,3 -9,3 -5,0 -9,-2 -12,-5 -4,-5 -5,-12 -5,-22zm6 0c0,9 1,15 3,18 2,2 5,4 8,4 3,0 5,-2 7,-4 2,-3 3,-9 3,-18 0,-8 -1,-14 -3,-17 -2,-3 -4,-4 -7,-4 -3,0 -6,1 -7,4 -3,3 -4,9 -4,17z"/>
    <path id="3" class="fil6" d="M2370 1708c0,-6 0,-11 2,-15 1,-3 3,-6 5,-8 3,-2 6,-4 10,-4 3,0 5,1 7,2 2,1 4,3 6,5 1,2 2,5 3,8 1,3 1,7 1,12 0,6 -1,11 -2,15 -1,4 -3,7 -6,9 -2,2 -5,3 -9,3 -5,0 -9,-2 -12,-5 -4,-5 -5,-12 -5,-22zm6 0c0,9 1,15 3,18 2,2 5,4 8,4 3,0 5,-2 7,-4 2,-3 3,-9 3,-18 0,-8 -1,-14 -3,-17 -2,-3 -4,-4 -7,-4 -3,0 -6,1 -7,4 -3,3 -4,9 -4,17z"/>
    <path class="fil6" d="M2287 1862l7 0c1,3 2,5 4,7 2,2 4,3 6,3 4,0 6,-2 8,-4 3,-2 4,-5 4,-9 0,-4 -1,-7 -3,-9 -3,-2 -5,-3 -9,-3 -2,0 -4,0 -5,1 -2,1 -3,2 -4,4l-6 -1 5 -27 26 0 0 6 -21 0 -3 14c3,-2 7,-3 10,-3 5,0 9,2 12,5 3,3 5,7 5,12 0,5 -2,9 -5,12 -3,5 -8,7 -14,7 -4,0 -8,-1 -11,-4 -3,-3 -5,-6 -6,-11z"/>
    <path id="1" class="fil6" d="M2329 1850c0,-6 0,-11 1,-15 2,-4 4,-7 6,-9 3,-2 6,-3 10,-3 3,0 5,1 7,2 2,1 4,3 6,5 1,2 2,5 3,8 1,3 1,7 1,12 0,6 -1,11 -2,15 -1,4 -3,7 -6,9 -2,2 -5,3 -9,3 -5,0 -9,-2 -12,-6 -4,-4 -5,-11 -5,-21zm6 0c0,9 1,14 3,17 2,3 5,5 8,5 3,0 5,-2 7,-5 2,-3 3,-8 3,-17 0,-9 -1,-14 -3,-17 -2,-3 -4,-4 -7,-4 -3,0 -6,1 -7,3 -3,4 -4,9 -4,18z"/>
    <path id="2" class="fil6" d="M2370 1850c0,-6 0,-11 2,-15 1,-4 3,-7 5,-9 3,-2 6,-3 10,-3 3,0 5,1 7,2 2,1 4,3 6,5 1,2 2,5 3,8 1,3 1,7 1,12 0,6 -1,11 -2,15 -1,4 -3,7 -6,9 -2,2 -5,3 -9,3 -5,0 -9,-2 -12,-6 -4,-4 -5,-11 -5,-21zm6 0c0,9 1,14 3,17 2,3 5,5 8,5 3,0 5,-2 7,-5 2,-3 3,-8 3,-17 0,-9 -1,-14 -3,-17 -2,-3 -4,-4 -7,-4 -3,0 -6,1 -7,3 -3,4 -4,9 -4,18z"/>
   </g>
   <g>
    <path class="fil6" d="M1546 1275l0 -53 23 0c5,0 9,1 11,2 3,0 5,2 6,5 1,2 2,5 2,7 0,4 -1,7 -3,10 -3,2 -7,4 -12,5 2,1 4,1 5,2 2,2 4,5 5,7l9 15 -8 0 -7 -11c-2,-3 -4,-6 -5,-8 -2,-1 -3,-2 -4,-3 -1,-1 -2,-1 -3,-1 -1,-1 -2,-1 -4,-1l-8 0 0 24 -7 0zm7 -30l15 0c3,0 6,0 7,-1 2,0 4,-1 5,-3 0,-1 1,-3 1,-5 0,-2 -1,-4 -3,-6 -2,-1 -4,-2 -8,-2l-17 0 0 17z"/>
    <path id="1" class="fil6" d="M1623 1270c-2,2 -4,3 -7,4 -2,1 -4,1 -7,1 -4,0 -7,-1 -9,-3 -3,-2 -4,-4 -4,-7 0,-2 1,-4 1,-6 1,-1 2,-2 4,-3 1,-1 3,-2 4,-2 2,-1 4,-1 6,-1 5,-1 9,-2 12,-2 0,-1 0,-2 0,-2 0,-3 -1,-5 -2,-6 -2,-1 -4,-2 -7,-2 -3,0 -6,1 -7,2 -2,1 -3,3 -3,5l-7 0c1,-3 2,-5 3,-7 1,-2 3,-3 6,-4 2,-1 5,-1 9,-1 3,0 5,0 8,1 2,1 3,2 4,3 1,1 2,2 2,4 0,1 0,3 0,6l0 9c0,6 1,9 1,11 0,2 1,3 1,5l-6 0c-1,-2 -1,-3 -2,-5zm0 -14c-3,1 -6,1 -11,2 -2,0 -4,1 -5,1 -2,1 -2,1 -3,2 -1,1 -1,2 -1,3 0,2 1,4 2,5 1,1 3,1 6,1 2,0 5,0 6,-1 2,-1 4,-3 5,-5 0,-1 1,-3 1,-6l0 -2z"/>
    <path id="2" class="fil6" d="M1654 1269l0 6c-1,0 -3,0 -4,0 -3,0 -5,0 -6,-1 -1,-1 -2,-2 -3,-3 0,-1 0,-4 0,-8l0 -21 -5 0 0 -5 5 0 0 -10 6 -4 0 14 7 0 0 5 -7 0 0 22c0,2 0,3 0,3 1,1 1,1 1,2 1,0 2,0 3,0 0,0 1,0 3,0z"/>
    <path id="3" class="fil6" d="M1686 1262l7 1c-1,4 -3,7 -6,9 -3,2 -7,3 -11,3 -6,0 -10,-1 -13,-5 -4,-3 -5,-8 -5,-14 0,-6 1,-11 5,-15 3,-3 7,-5 13,-5 5,0 9,2 12,5 3,3 5,8 5,15 0,0 0,1 0,1l-29 0c1,4 2,8 4,10 2,2 5,3 8,3 2,0 4,0 6,-2 2,-1 3,-3 4,-6zm-21 -10l21 0c0,-3 -1,-6 -2,-7 -2,-3 -5,-4 -8,-4 -3,0 -6,1 -8,3 -2,2 -3,5 -3,8z"/>
    <path class="fil6" d="M1601 1417l-7 0 0 -41c-1,1 -3,3 -6,4 -2,2 -5,3 -7,4l0 -7c4,-1 7,-3 10,-6 3,-2 4,-4 6,-7l4 0 0 53z"/>
    <path id="1" class="fil6" d="M1618 1391c0,-6 0,-11 1,-15 2,-4 4,-7 6,-9 3,-2 6,-3 10,-3 3,0 5,1 7,2 2,1 4,3 5,5 2,2 3,5 4,8 1,3 1,7 1,12 0,6 -1,11 -2,15 -1,4 -3,7 -6,9 -2,2 -5,3 -9,3 -5,0 -9,-2 -12,-6 -4,-4 -5,-11 -5,-21zm6 0c0,9 1,14 3,17 2,3 5,5 8,5 3,0 5,-2 7,-5 2,-3 3,-8 3,-17 0,-9 -1,-14 -3,-17 -2,-3 -4,-4 -7,-4 -3,0 -6,1 -8,3 -2,4 -3,9 -3,18z"/>
    <path id="2" class="fil6" d="M1659 1391c0,-6 0,-11 2,-15 1,-4 3,-7 5,-9 3,-2 6,-3 10,-3 3,0 5,1 7,2 2,1 4,3 6,5 1,2 2,5 3,8 1,3 1,7 1,12 0,6 -1,11 -2,15 -1,4 -3,7 -6,9 -2,2 -5,3 -9,3 -5,0 -9,-2 -12,-6 -4,-4 -5,-11 -5,-21zm6 0c0,9 1,14 3,17 2,3 5,5 8,5 3,0 5,-2 7,-5 2,-3 3,-8 3,-17 0,-9 -1,-14 -3,-17 -2,-3 -4,-4 -7,-4 -3,0 -6,1 -7,3 -3,4 -4,9 -4,18z"/>
    <path class="fil6" d="M1618 1567l6 0c1,3 2,6 4,7 2,2 4,3 6,3 4,0 6,-1 8,-4 3,-2 4,-5 4,-9 0,-4 -1,-7 -3,-9 -2,-2 -5,-3 -9,-3 -2,0 -4,1 -5,2 -2,0 -3,2 -4,3l-6 -1 5 -27 26 0 0 7 -21 0 -3 14c3,-3 7,-4 10,-4 5,0 9,2 12,5 3,3 5,7 5,12 0,5 -2,9 -5,13 -3,4 -8,6 -14,6 -4,0 -8,-1 -11,-4 -3,-3 -5,-6 -5,-11z"/>
    <path id="1" class="fil6" d="M1659 1555c0,-6 0,-11 2,-15 1,-3 3,-6 5,-8 3,-2 6,-4 10,-4 3,0 5,1 7,2 2,1 4,3 6,5 1,2 2,5 3,8 1,3 1,7 1,12 0,6 -1,11 -2,15 -1,4 -3,7 -6,9 -2,2 -5,3 -9,3 -5,0 -9,-2 -12,-5 -4,-5 -5,-12 -5,-22zm6 0c0,9 1,15 3,18 2,2 5,4 8,4 3,0 5,-2 7,-4 2,-3 3,-9 3,-18 0,-8 -1,-14 -3,-17 -2,-3 -4,-4 -7,-4 -3,0 -6,1 -7,4 -3,3 -4,9 -4,17z"/>
    <path class="fil6" d="M1560 1734l-7 0 0 -41c-1,2 -3,3 -6,5 -2,1 -5,2 -7,3l0 -6c4,-2 7,-4 10,-6 2,-3 4,-5 6,-8l4 0 0 53z"/>
    <path id="1" class="fil6" d="M1576 1708c0,-6 1,-11 2,-15 2,-3 4,-6 6,-8 3,-2 6,-4 10,-4 2,0 5,1 7,2 2,1 4,3 5,5 2,2 3,5 4,8 0,3 1,7 1,12 0,6 -1,11 -2,15 -1,4 -3,7 -6,9 -2,2 -5,3 -9,3 -5,0 -9,-2 -12,-5 -4,-5 -6,-12 -6,-22zm7 0c0,9 1,15 3,18 2,2 5,4 8,4 3,0 5,-2 7,-4 2,-3 3,-9 3,-18 0,-8 -1,-14 -3,-17 -2,-3 -4,-4 -7,-4 -3,0 -6,1 -8,4 -2,3 -3,9 -3,17z"/>
    <path id="2" class="fil6" d="M1618 1708c0,-6 0,-11 1,-15 2,-3 4,-6 6,-8 3,-2 6,-4 10,-4 3,0 5,1 7,2 2,1 4,3 5,5 2,2 3,5 4,8 1,3 1,7 1,12 0,6 -1,11 -2,15 -1,4 -3,7 -6,9 -2,2 -5,3 -9,3 -5,0 -9,-2 -12,-5 -4,-5 -5,-12 -5,-22zm6 0c0,9 1,15 3,18 2,2 5,4 8,4 3,0 5,-2 7,-4 2,-3 3,-9 3,-18 0,-8 -1,-14 -3,-17 -2,-3 -4,-4 -7,-4 -3,0 -6,1 -8,4 -2,3 -3,9 -3,17z"/>
    <path id="3" class="fil6" d="M1659 1708c0,-6 0,-11 2,-15 1,-3 3,-6 5,-8 3,-2 6,-4 10,-4 3,0 5,1 7,2 2,1 4,3 6,5 1,2 2,5 3,8 1,3 1,7 1,12 0,6 -1,11 -2,15 -1,4 -3,7 -6,9 -2,2 -5,3 -9,3 -5,0 -9,-2 -12,-5 -4,-5 -5,-12 -5,-22zm6 0c0,9 1,15 3,18 2,2 5,4 8,4 3,0 5,-2 7,-4 2,-3 3,-9 3,-18 0,-8 -1,-14 -3,-17 -2,-3 -4,-4 -7,-4 -3,0 -6,1 -7,4 -3,3 -4,9 -4,17z"/>
    <path class="fil6" d="M1601 1876l-7 0 0 -41c-1,1 -3,3 -6,4 -2,2 -5,3 -7,4l0 -7c4,-1 7,-3 10,-6 3,-2 4,-4 6,-7l4 0 0 53z"/>
    <path id="1" class="fil6" d="M1618 1850c0,-6 0,-11 1,-15 2,-4 4,-7 6,-9 3,-2 6,-3 10,-3 3,0 5,1 7,2 2,1 4,3 5,5 2,2 3,5 4,8 1,3 1,7 1,12 0,6 -1,11 -2,15 -1,4 -3,7 -6,9 -2,2 -5,3 -9,3 -5,0 -9,-2 -12,-6 -4,-4 -5,-11 -5,-21zm6 0c0,9 1,14 3,17 2,3 5,5 8,5 3,0 5,-2 7,-5 2,-3 3,-8 3,-17 0,-9 -1,-14 -3,-17 -2,-3 -4,-4 -7,-4 -3,0 -6,1 -8,3 -2,4 -3,9 -3,18z"/>
    <path id="2" class="fil6" d="M1659 1850c0,-6 0,-11 2,-15 1,-4 3,-7 5,-9 3,-2 6,-3 10,-3 3,0 5,1 7,2 2,1 4,3 6,5 1,2 2,5 3,8 1,3 1,7 1,12 0,6 -1,11 -2,15 -1,4 -3,7 -6,9 -2,2 -5,3 -9,3 -5,0 -9,-2 -12,-6 -4,-4 -5,-11 -5,-21zm6 0c0,9 1,14 3,17 2,3 5,5 8,5 3,0 5,-2 7,-5 2,-3 3,-8 3,-17 0,-9 -1,-14 -3,-17 -2,-3 -4,-4 -7,-4 -3,0 -6,1 -7,3 -3,4 -4,9 -4,18z"/>
   </g>
   <g>
    <path class="fil6" d="M1925 1254l0 -6 23 0 0 19c-4,3 -7,5 -11,6 -3,2 -7,3 -11,3 -5,0 -10,-2 -14,-4 -4,-2 -8,-5 -10,-9 -2,-5 -3,-9 -3,-14 0,-5 1,-10 3,-15 2,-4 5,-7 9,-10 5,-2 9,-3 14,-3 4,0 8,1 11,2 3,1 5,3 7,5 2,2 3,5 4,9l-6 2c-1,-3 -2,-5 -3,-7 -1,-1 -3,-3 -5,-3 -2,-1 -5,-2 -8,-2 -3,0 -5,1 -8,2 -2,1 -4,2 -5,3 -2,2 -3,4 -4,6 -1,3 -2,6 -2,10 0,5 1,9 3,12 1,3 4,6 7,7 3,2 6,2 10,2 3,0 6,0 8,-1 3,-2 6,-3 7,-4l0 -10 -16 0z"/>
    <path id="1" class="fil6" d="M1956 1258l6 -1c1,3 2,5 3,7 1,1 3,3 5,4 2,1 5,1 8,1 3,0 5,0 7,-1 2,-1 4,-2 5,-3 1,-1 1,-3 1,-5 0,-1 0,-3 -1,-4 -1,-1 -3,-2 -5,-3 -1,-1 -5,-1 -9,-3 -5,-1 -9,-2 -11,-3 -2,-1 -4,-3 -5,-5 -1,-2 -2,-4 -2,-6 0,-3 1,-5 2,-8 2,-2 4,-4 7,-5 3,-1 6,-2 9,-2 4,0 8,1 11,2 3,1 5,3 7,6 1,2 2,5 2,8l-6 0c-1,-3 -2,-5 -4,-7 -2,-2 -5,-3 -9,-3 -4,0 -8,1 -9,3 -2,1 -3,3 -3,5 0,2 0,4 2,5 1,1 5,2 10,4 6,1 10,2 12,3 3,1 5,3 7,5 1,3 2,5 2,8 0,3 -1,5 -2,8 -2,2 -4,4 -7,5 -3,2 -7,3 -11,3 -4,0 -8,-1 -12,-3 -3,-1 -5,-3 -7,-6 -2,-3 -3,-6 -3,-9z"/>
    <polygon id="2" class="fil6" points="2021,1275 2021,1228 2003,1228 2003,1222 2045,1222 2045,1228 2028,1228 2028,1275 "/>
    <path class="fil6" d="M1994 1417l-6 0 0 -41c-2,1 -4,3 -6,4 -3,2 -5,3 -7,4l0 -7c3,-1 7,-3 9,-6 3,-2 5,-4 6,-7l4 0 0 53z"/>
    <path id="1" class="fil6" d="M2011 1391c0,-6 1,-11 2,-15 1,-4 3,-7 6,-9 2,-2 5,-3 9,-3 3,0 5,1 8,2 2,1 4,3 5,5 1,2 2,5 3,8 1,3 1,7 1,12 0,6 0,11 -2,15 -1,4 -3,7 -5,9 -3,2 -6,3 -10,3 -5,0 -9,-2 -12,-6 -3,-4 -5,-11 -5,-21zm7 0c0,9 1,14 3,17 2,3 4,5 7,5 3,0 6,-2 8,-5 2,-3 3,-8 3,-17 0,-9 -1,-14 -3,-17 -2,-3 -5,-4 -8,-4 -3,0 -5,1 -7,3 -2,4 -3,9 -3,18z"/>
    <path class="fil6" d="M2012 1569l6 0c0,2 1,5 3,6 1,1 3,2 6,2 2,0 3,-1 5,-2 1,0 3,-2 3,-3 1,-2 2,-4 3,-6 1,-3 1,-6 1,-8 0,-1 0,-1 0,-2 -1,3 -3,4 -5,5 -3,2 -5,2 -8,2 -4,0 -8,-1 -11,-4 -3,-3 -4,-8 -4,-13 0,-5 1,-9 4,-13 4,-3 7,-5 12,-5 4,0 7,1 10,3 2,2 5,5 6,8 2,4 2,8 2,15 0,7 0,12 -2,16 -1,4 -4,7 -6,9 -3,2 -7,3 -11,3 -4,0 -7,-1 -10,-3 -2,-3 -4,-6 -4,-10zm26 -23c0,-4 -1,-7 -3,-9 -2,-2 -4,-3 -7,-3 -3,0 -5,1 -8,3 -2,3 -3,6 -3,9 0,4 1,6 3,9 2,2 5,3 8,3 3,0 5,-1 7,-3 2,-3 3,-5 3,-9z"/>
    <path class="fil6" d="M1963 1728l0 6 -35 0c0,-1 0,-3 1,-4 0,-3 2,-5 4,-7 2,-3 5,-5 8,-8 6,-5 10,-9 12,-11 2,-3 3,-6 3,-8 0,-3 -1,-5 -3,-7 -2,-1 -4,-2 -7,-2 -3,0 -6,1 -7,3 -2,1 -3,4 -3,7l-7 0c1,-5 2,-9 5,-12 3,-2 7,-4 12,-4 5,0 9,2 12,5 3,2 5,6 5,10 0,2 -1,4 -2,6 0,2 -2,4 -4,7 -2,2 -5,5 -10,9 -4,3 -6,5 -7,7 -2,1 -2,2 -3,3l26 0z"/>
    <path id="1" class="fil6" d="M1970 1720l6 -1c1,4 2,7 4,8 2,2 4,3 7,3 3,0 5,-1 7,-3 3,-3 4,-5 4,-8 0,-3 -1,-6 -3,-8 -2,-1 -5,-2 -8,-2 -1,0 -3,0 -4,0l0 -5c1,0 1,0 1,0 3,0 6,-1 8,-2 2,-2 3,-4 3,-7 0,-2 -1,-4 -2,-6 -2,-1 -4,-2 -6,-2 -3,0 -5,1 -7,2 -1,2 -3,4 -3,7l-6 -1c0,-4 2,-8 5,-10 3,-2 6,-4 10,-4 3,0 6,1 8,2 3,2 5,3 6,5 1,2 2,5 2,7 0,2 -1,4 -2,6 -1,2 -3,4 -5,5 3,0 5,2 7,4 2,2 2,5 2,9 0,4 -1,8 -5,11 -3,4 -7,5 -12,5 -5,0 -9,-1 -12,-4 -3,-3 -5,-6 -5,-11z"/>
    <path id="2" class="fil6" d="M2011 1708c0,-6 1,-11 2,-15 1,-3 3,-6 6,-8 2,-2 5,-4 9,-4 3,0 5,1 8,2 2,1 4,3 5,5 1,2 2,5 3,8 1,3 1,7 1,12 0,6 0,11 -2,15 -1,4 -3,7 -5,9 -3,2 -6,3 -10,3 -5,0 -9,-2 -12,-5 -3,-5 -5,-12 -5,-22zm7 0c0,9 1,15 3,18 2,2 4,4 7,4 3,0 6,-2 8,-4 2,-3 3,-9 3,-18 0,-8 -1,-14 -3,-17 -2,-3 -5,-4 -8,-4 -3,0 -5,1 -7,4 -2,3 -3,9 -3,17z"/>
    <path class="fil6" d="M1994 1876l-7 0 0 -41c-1,1 -3,3 -6,4 -2,2 -5,3 -7,4l0 -7c4,-1 7,-3 10,-6 3,-2 5,-4 6,-7l4 0 0 53z"/>
    <path id="1" class="fil6" d="M2021 1848c-3,-1 -5,-3 -6,-5 -2,-1 -2,-4 -2,-6 0,-4 1,-7 4,-10 3,-2 6,-4 11,-4 4,0 8,2 11,4 3,3 4,6 4,10 0,2 0,5 -2,6 -1,2 -3,4 -6,5 4,1 6,2 8,5 1,2 2,5 2,8 0,4 -1,8 -4,11 -4,3 -8,5 -13,5 -5,0 -9,-2 -13,-5 -3,-3 -4,-7 -4,-11 0,-4 0,-6 2,-9 2,-2 4,-4 8,-4zm-2 -11c0,2 1,4 3,6 1,1 3,2 6,2 3,0 5,-1 6,-2 2,-2 3,-4 3,-6 0,-2 -1,-4 -3,-6 -2,-2 -4,-2 -6,-2 -3,0 -5,0 -6,2 -2,1 -3,3 -3,6zm-2 24c0,2 1,3 1,5 1,2 3,3 4,4 2,1 4,2 6,2 3,0 6,-1 8,-3 2,-2 3,-5 3,-8 0,-3 -1,-6 -3,-8 -2,-2 -5,-3 -8,-3 -3,0 -6,1 -8,3 -2,2 -3,5 -3,8z"/>
   </g>
   <g>
    <path class="fil6" d="M1256 1269c4,2 7,4 9,5l-2 5c-3,-2 -7,-4 -11,-7 -4,2 -8,4 -13,4 -5,0 -9,-2 -13,-4 -4,-2 -7,-5 -9,-10 -2,-4 -3,-8 -3,-14 0,-5 1,-9 3,-14 2,-4 5,-7 9,-9 4,-3 8,-4 13,-4 5,0 9,1 13,4 4,2 7,5 9,9 2,5 3,9 3,14 0,5 0,9 -2,12 -1,3 -3,6 -6,9zm-15 -9c4,1 7,3 10,5 4,-4 6,-9 6,-17 0,-4 -1,-8 -2,-11 -1,-3 -4,-5 -6,-7 -3,-2 -6,-3 -10,-3 -5,0 -9,2 -13,6 -3,3 -5,8 -5,15 0,7 2,12 5,16 4,4 8,6 13,6 3,0 5,-1 7,-2 -2,-1 -4,-2 -7,-3l2 -5z"/>
    <path id="1" class="fil6" d="M1287 1269l1 6c-2,0 -3,0 -5,0 -2,0 -4,0 -5,-1 -2,-1 -2,-2 -3,-3 -1,-1 -1,-4 -1,-8l0 -21 -5 0 0 -5 5 0 0 -10 7 -4 0 14 6 0 0 5 -6 0 0 22c0,2 0,3 0,3 0,1 1,1 1,2 1,0 1,0 2,0 1,0 2,0 3,0z"/>
    <path id="2" class="fil6" d="M1293 1289l0 -6c1,1 2,1 3,1 2,0 3,0 4,-1 1,0 1,-1 2,-2 0,0 1,-2 2,-5 0,0 0,-1 0,-1l-14 -38 7 0 8 22c1,2 2,5 3,8 0,-3 1,-5 2,-8l8 -22 7 0 -15 38c-1,4 -2,7 -3,9 -1,2 -3,4 -4,5 -2,1 -3,1 -6,1 -1,0 -2,0 -4,-1z"/>
    <polygon id="3" class="fil6" points="1327,1275 1327,1267 1334,1267 1334,1275 "/>
    <path class="fil6" d="M1299 1414l7 0c1,3 2,6 4,7 1,2 4,3 6,3 3,0 6,-1 8,-4 2,-2 3,-5 3,-9 0,-4 -1,-7 -3,-9 -2,-2 -4,-3 -8,-3 -2,0 -4,1 -5,2 -2,0 -3,2 -4,3l-7 -1 6 -27 26 0 0 7 -21 0 -3 14c3,-3 6,-4 10,-4 4,0 8,2 12,5 3,3 4,7 4,12 0,5 -1,9 -4,13 -3,4 -8,6 -14,6 -5,0 -8,-1 -12,-4 -3,-3 -4,-6 -5,-11z"/>
    <path class="fil6" d="M1334 1575l0 6 -35 0c0,-1 0,-3 1,-4 1,-3 2,-5 4,-7 2,-3 5,-5 9,-8 6,-5 9,-9 11,-11 3,-3 4,-6 4,-8 0,-3 -1,-5 -3,-7 -2,-1 -4,-2 -7,-2 -4,0 -6,1 -8,3 -2,1 -3,4 -3,7l-6 0c0,-5 2,-9 5,-12 3,-2 7,-4 12,-4 5,0 9,2 12,5 3,2 4,6 4,10 0,2 0,4 -1,6 -1,2 -2,4 -4,7 -2,2 -6,5 -10,9 -4,3 -7,5 -8,7 -1,1 -2,2 -3,3l26 0z"/>
    <path class="fil6" d="M1334 1734l-6 0 0 -41c-2,2 -4,3 -6,5 -3,1 -5,2 -7,3l0 -6c3,-2 7,-4 9,-6 3,-3 5,-5 6,-8l4 0 0 53z"/>
    <path class="fil6" d="M1299 1873l7 0c1,3 2,6 4,7 1,2 4,3 6,3 3,0 6,-1 8,-4 2,-2 3,-5 3,-9 0,-4 -1,-7 -3,-9 -2,-2 -4,-3 -8,-3 -2,0 -4,1 -5,2 -2,0 -3,2 -4,3l-7 -1 6 -27 26 0 0 7 -21 0 -3 14c3,-3 6,-4 10,-4 4,0 8,2 12,5 3,3 4,7 4,12 0,5 -1,9 -4,13 -3,4 -8,6 -14,6 -5,0 -8,-1 -12,-4 -3,-3 -4,-6 -5,-11z"/>
   </g>
   <circle class="fil0" cx="2632" cy="319" r="319"/>
   <path class="fil3" d="M2559 269l0 -13 35 0 0 31c-4,3 -9,6 -15,9 -6,2 -13,3 -19,3 -9,0 -16,-1 -22,-5 -6,-3 -11,-8 -14,-15 -3,-6 -4,-13 -4,-21 0,-8 1,-15 5,-22 3,-6 8,-11 15,-14 5,-3 11,-4 19,-4 10,0 17,2 23,6 6,4 9,10 11,17l-16 3c-1,-4 -3,-7 -7,-9 -3,-3 -6,-4 -11,-4 -7,0 -13,3 -17,7 -4,4 -6,11 -6,20 0,9 2,16 6,21 5,4 10,7 17,7 3,0 6,-1 10,-2 3,-2 6,-3 9,-5l0 -10 -19 0z"/>
   <path id="1" class="fil3" d="M2604 272l16 -1c1,5 3,9 6,11 2,3 6,4 11,4 5,0 9,-1 12,-3 2,-3 4,-5 4,-8 0,-2 -1,-3 -2,-5 -1,-1 -3,-2 -6,-3 -2,-1 -6,-2 -12,-4 -9,-2 -15,-4 -18,-7 -5,-5 -8,-10 -8,-16 0,-4 1,-8 4,-12 2,-3 5,-6 10,-8 4,-1 9,-2 15,-2 10,0 18,2 23,6 5,5 7,10 7,18l-16 0c0,-4 -2,-7 -4,-8 -2,-2 -6,-3 -10,-3 -5,0 -8,1 -11,3 -2,1 -2,3 -2,5 0,2 0,3 2,4 2,2 7,4 15,6 7,2 13,3 17,5 4,2 7,5 9,8 2,4 3,8 3,13 0,4 -1,9 -4,13 -3,4 -6,7 -11,8 -4,2 -10,3 -17,3 -10,0 -18,-2 -23,-7 -5,-4 -9,-11 -10,-20z"/>
   <polygon id="2" class="fil3" points="2700,298 2700,232 2677,232 2677,219 2740,219 2740,232 2716,232 2716,298 "/>
   <path id="3" class="fil3" d="M2442 421l0 -79 34 0c9,0 15,1 19,2 3,2 6,4 9,8 2,3 3,7 3,12 0,6 -2,11 -5,15 -3,4 -9,6 -16,7 4,2 7,4 9,7 2,2 5,6 9,12l10 16 -19 0 -12 -17c-4,-7 -7,-10 -8,-12 -2,-2 -4,-3 -5,-3 -2,-1 -5,-1 -8,-1l-4 0 0 33 -16 0zm16 -46l12 0c8,0 13,0 15,-1 2,0 3,-1 4,-3 1,-2 2,-4 2,-6 0,-3 -1,-5 -2,-6 -2,-2 -4,-3 -6,-3 -2,-1 -6,-1 -12,-1l-13 0 0 20z"/>
   <polygon id="4" class="fil3" points="2522,421 2522,342 2581,342 2581,355 2538,355 2538,373 2578,373 2578,386 2538,386 2538,407 2583,407 2583,421 "/>
   <path id="5" class="fil3" d="M2668 421l-18 0 -6 -18 -32 0 -7 18 -17 0 31 -79 17 0 32 79zm-30 -31l-11 -30 -10 30 21 0z"/>
   <path id="6" class="fil3" d="M2676 342l29 0c7,0 12,1 15,2 5,1 9,3 12,7 4,3 6,7 8,13 2,5 3,11 3,18 0,7 -1,12 -3,17 -2,6 -5,10 -8,14 -3,2 -7,5 -12,6 -3,1 -8,2 -14,2l-30 0 0 -79zm16 13l0 52 12 0c5,0 8,0 10,0 2,-1 5,-2 6,-4 2,-1 3,-4 4,-7 2,-4 2,-9 2,-15 0,-6 0,-10 -2,-14 -1,-3 -2,-5 -4,-7 -2,-2 -4,-3 -7,-4 -3,0 -7,-1 -14,-1l-7 0z"/>
   <polygon id="7" class="fil3" points="2777,421 2777,388 2748,342 2767,342 2785,373 2804,342 2822,342 2793,388 2793,421 "/>
  </g>
  <line class="fil4 str0" x1="180" y1="670" x2="2542" y2= "670" />
 </g>
</svg>
