<svg width="409" height="288" viewBox="0 0 409 288" fill="none" xmlns="http://www.w3.org/2000/svg">
<g clip-path="url(#clip0_1_118)">
<path d="M35.707 127.412V121.17H36.9489V127.412H35.707ZM33.2095 124.91V123.673H39.451V124.91H33.2095ZM44.7115 119.416C45.1331 119.419 45.5486 119.496 45.9579 119.647C46.3672 119.798 46.7366 120.044 47.0659 120.386C47.3983 120.727 47.6629 121.189 47.8599 121.771C48.06 122.349 48.1615 123.069 48.1646 123.931C48.1646 124.759 48.0815 125.496 47.9153 126.142C47.7491 126.786 47.5106 127.329 47.1998 127.772C46.892 128.215 46.5181 128.552 46.0779 128.783C45.6378 129.014 45.1423 129.129 44.5914 129.129C44.0282 129.129 43.5281 129.018 43.0911 128.797C42.6541 128.575 42.2986 128.269 42.0247 127.878C41.7508 127.484 41.58 127.032 41.5123 126.521H42.9203C43.0126 126.927 43.2003 127.257 43.4835 127.509C43.7697 127.758 44.139 127.883 44.5914 127.883C45.2839 127.883 45.824 127.581 46.2118 126.978C46.5996 126.372 46.795 125.525 46.7981 124.439H46.7243C46.5642 124.704 46.3642 124.931 46.1241 125.122C45.8871 125.313 45.6209 125.461 45.3255 125.565C45.03 125.67 44.7145 125.722 44.3791 125.722C43.8343 125.722 43.3388 125.588 42.8926 125.321C42.4463 125.053 42.0908 124.685 41.8262 124.217C41.5615 123.75 41.4292 123.216 41.4292 122.615C41.4292 122.018 41.5646 121.477 41.8354 120.99C42.1093 120.504 42.4909 120.119 42.9803 119.836C43.4727 119.55 44.0498 119.41 44.7115 119.416ZM44.7161 120.616C44.356 120.616 44.0313 120.706 43.742 120.884C43.4558 121.06 43.2296 121.298 43.0634 121.6C42.8972 121.898 42.8141 122.231 42.8141 122.597C42.8141 122.963 42.8941 123.296 43.0542 123.594C43.2173 123.89 43.4389 124.125 43.7189 124.3C44.0021 124.473 44.3252 124.559 44.6884 124.559C44.9592 124.559 45.2116 124.507 45.4455 124.402C45.6794 124.297 45.8841 124.153 46.0595 123.968C46.2349 123.78 46.3719 123.568 46.4703 123.331C46.5688 123.094 46.6181 122.845 46.6181 122.583C46.6181 122.235 46.535 121.912 46.3688 121.614C46.2057 121.315 45.981 121.075 45.6948 120.893C45.4086 120.709 45.0823 120.616 44.7161 120.616ZM53.4193 119.545V129H51.9882V120.977H51.9328L49.6707 122.454V121.087L52.0297 119.545H53.4193ZM62.6119 129.129C61.9502 129.129 61.3654 129.015 60.8576 128.788C60.3529 128.56 59.9574 128.246 59.6712 127.846C59.3849 127.446 59.2434 126.99 59.2464 126.479C59.2434 126.079 59.3249 125.712 59.4911 125.376C59.6604 125.038 59.8897 124.756 60.179 124.531C60.4683 124.304 60.7914 124.159 61.1484 124.097V124.042C60.6776 123.928 60.3005 123.676 60.0174 123.285C59.7343 122.894 59.5942 122.445 59.5973 121.937C59.5942 121.454 59.7219 121.023 59.9805 120.644C60.2421 120.263 60.6006 119.962 61.0561 119.744C61.5116 119.525 62.0302 119.416 62.6119 119.416C63.1874 119.416 63.7013 119.527 64.1538 119.749C64.6093 119.967 64.9678 120.267 65.2294 120.649C65.491 121.027 65.6233 121.457 65.6264 121.937C65.6233 122.445 65.4787 122.894 65.1925 123.285C64.9063 123.676 64.5339 123.928 64.0753 124.042V124.097C64.4292 124.159 64.7478 124.304 65.0309 124.531C65.3171 124.756 65.5449 125.038 65.7141 125.376C65.8865 125.712 65.9742 126.079 65.9773 126.479C65.9742 126.99 65.8295 127.446 65.5433 127.846C65.2571 128.246 64.8601 128.56 64.3523 128.788C63.8475 129.015 63.2674 129.129 62.6119 129.129ZM62.6119 127.961C63.0027 127.961 63.3413 127.897 63.6275 127.767C63.9137 127.635 64.1353 127.452 64.2923 127.218C64.4492 126.981 64.5292 126.704 64.5323 126.387C64.5292 126.058 64.4431 125.767 64.2738 125.515C64.1076 125.262 63.8814 125.064 63.5952 124.919C63.3089 124.774 62.9812 124.702 62.6119 124.702C62.2395 124.702 61.9086 124.774 61.6193 124.919C61.33 125.064 61.1023 125.262 60.9361 125.515C60.7699 125.767 60.6883 126.058 60.6914 126.387C60.6883 126.704 60.7637 126.981 60.9176 127.218C61.0746 127.452 61.2977 127.635 61.587 127.767C61.8763 127.897 62.2179 127.961 62.6119 127.961ZM62.6119 123.562C62.9258 123.562 63.2043 123.499 63.4474 123.373C63.6906 123.246 63.8814 123.071 64.0199 122.846C64.1615 122.622 64.2338 122.358 64.2369 122.057C64.2338 121.761 64.163 121.503 64.0245 121.281C63.8891 121.06 63.6998 120.889 63.4567 120.769C63.2135 120.646 62.9319 120.584 62.6119 120.584C62.2856 120.584 61.9994 120.646 61.7532 120.769C61.5101 120.889 61.3208 121.06 61.1854 121.281C61.05 121.503 60.9838 121.761 60.9869 122.057C60.9838 122.358 61.0515 122.622 61.19 122.846C61.3285 123.071 61.5193 123.246 61.7624 123.373C62.0086 123.499 62.2918 123.562 62.6119 123.562ZM70.8257 129.129C70.164 129.129 69.5793 129.015 69.0715 128.788C68.5667 128.56 68.1713 128.246 67.885 127.846C67.5988 127.446 67.4572 126.99 67.4603 126.479C67.4572 126.079 67.5388 125.712 67.705 125.376C67.8743 125.038 68.1035 124.756 68.3928 124.531C68.6821 124.304 69.0053 124.159 69.3623 124.097V124.042C68.8914 123.928 68.5144 123.676 68.2313 123.285C67.9481 122.894 67.8081 122.445 67.8112 121.937C67.8081 121.454 67.9358 121.023 68.1943 120.644C68.4559 120.263 68.8145 119.962 69.27 119.744C69.7255 119.525 70.2441 119.416 70.8257 119.416C71.4012 119.416 71.9152 119.527 72.3676 119.749C72.8231 119.967 73.1817 120.267 73.4433 120.649C73.7049 121.027 73.8372 121.457 73.8403 121.937C73.8372 122.445 73.6926 122.894 73.4063 123.285C73.1201 123.676 72.7477 123.928 72.2892 124.042V124.097C72.6431 124.159 72.9616 124.304 73.2448 124.531C73.531 124.756 73.7587 125.038 73.928 125.376C74.1003 125.712 74.1881 126.079 74.1911 126.479C74.1881 126.99 74.0434 127.446 73.7572 127.846C73.471 128.246 73.074 128.56 72.5661 128.788C72.0614 129.015 71.4813 129.129 70.8257 129.129ZM70.8257 127.961C71.2166 127.961 71.5551 127.897 71.8414 127.767C72.1276 127.635 72.3492 127.452 72.5061 127.218C72.6631 126.981 72.7431 126.704 72.7462 126.387C72.7431 126.058 72.6569 125.767 72.4877 125.515C72.3215 125.262 72.0953 125.064 71.809 124.919C71.5228 124.774 71.195 124.702 70.8257 124.702C70.4533 124.702 70.1225 124.774 69.8332 124.919C69.5439 125.064 69.3161 125.262 69.1499 125.515C68.9838 125.767 68.9022 126.058 68.9053 126.387C68.9022 126.704 68.9776 126.981 69.1315 127.218C69.2884 127.452 69.5116 127.635 69.8009 127.767C70.0902 127.897 70.4318 127.961 70.8257 127.961ZM70.8257 123.562C71.1396 123.562 71.4182 123.499 71.6613 123.373C71.9044 123.246 72.0953 123.071 72.2338 122.846C72.3753 122.622 72.4477 122.358 72.4507 122.057C72.4477 121.761 72.3769 121.503 72.2384 121.281C72.103 121.06 71.9137 120.889 71.6705 120.769C71.4274 120.646 71.1458 120.584 70.8257 120.584C70.4995 120.584 70.2133 120.646 69.9671 120.769C69.7239 120.889 69.5347 121.06 69.3992 121.281C69.2638 121.503 69.1977 121.761 69.2007 122.057C69.1977 122.358 69.2654 122.622 69.4039 122.846C69.5423 123.071 69.7332 123.246 69.9763 123.373C70.2225 123.499 70.5057 123.562 70.8257 123.562ZM79.0396 129.129C78.3779 129.129 77.7931 129.015 77.2853 128.788C76.7806 128.56 76.3851 128.246 76.0989 127.846C75.8127 127.446 75.6711 126.99 75.6742 126.479C75.6711 126.079 75.7527 125.712 75.9189 125.376C76.0881 125.038 76.3174 124.756 76.6067 124.531C76.896 124.304 77.2192 124.159 77.5762 124.097V124.042C77.1053 123.928 76.7283 123.676 76.4451 123.285C76.162 122.894 76.022 122.445 76.025 121.937C76.022 121.454 76.1497 121.023 76.4082 120.644C76.6698 120.263 77.0283 119.962 77.4838 119.744C77.9393 119.525 78.4579 119.416 79.0396 119.416C79.6151 119.416 80.1291 119.527 80.5815 119.749C81.037 119.967 81.3955 120.267 81.6571 120.649C81.9187 121.027 82.0511 121.457 82.0542 121.937C82.0511 122.445 81.9064 122.894 81.6202 123.285C81.334 123.676 80.9616 123.928 80.503 124.042V124.097C80.8569 124.159 81.1755 124.304 81.4586 124.531C81.7449 124.756 81.9726 125.038 82.1419 125.376C82.3142 125.712 82.4019 126.079 82.405 126.479C82.4019 126.99 82.2573 127.446 81.9711 127.846C81.6848 128.246 81.2878 128.56 80.78 128.788C80.2753 129.015 79.6951 129.129 79.0396 129.129ZM79.0396 127.961C79.4305 127.961 79.769 127.897 80.0552 127.767C80.3414 127.635 80.563 127.452 80.72 127.218C80.877 126.981 80.957 126.704 80.96 126.387C80.957 126.058 80.8708 125.767 80.7015 125.515C80.5353 125.262 80.3091 125.064 80.0229 124.919C79.7367 124.774 79.4089 124.702 79.0396 124.702C78.6672 124.702 78.3364 124.774 78.0471 124.919C77.7578 125.064 77.53 125.262 77.3638 125.515C77.1976 125.767 77.1161 126.058 77.1191 126.387C77.1161 126.704 77.1915 126.981 77.3453 127.218C77.5023 127.452 77.7254 127.635 78.0147 127.767C78.304 127.897 78.6457 127.961 79.0396 127.961ZM79.0396 123.562C79.3535 123.562 79.632 123.499 79.8752 123.373C80.1183 123.246 80.3091 123.071 80.4476 122.846C80.5892 122.622 80.6615 122.358 80.6646 122.057C80.6615 121.761 80.5907 121.503 80.4522 121.281C80.3168 121.06 80.1275 120.889 79.8844 120.769C79.6413 120.646 79.3597 120.584 79.0396 120.584C78.7134 120.584 78.4271 120.646 78.1809 120.769C77.9378 120.889 77.7485 121.06 77.6131 121.281C77.4777 121.503 77.4115 121.761 77.4146 122.057C77.4115 122.358 77.4792 122.622 77.6177 122.846C77.7562 123.071 77.947 123.246 78.1902 123.373C78.4364 123.499 78.7195 123.562 79.0396 123.562ZM87.2027 119.416C87.6243 119.419 88.0398 119.496 88.4491 119.647C88.8585 119.798 89.2278 120.044 89.5571 120.386C89.8895 120.727 90.1541 121.189 90.3511 121.771C90.5512 122.349 90.6527 123.069 90.6558 123.931C90.6558 124.759 90.5727 125.496 90.4065 126.142C90.2403 126.786 90.0018 127.329 89.691 127.772C89.3832 128.215 89.0093 128.552 88.5692 128.783C88.1291 129.014 87.6336 129.129 87.0827 129.129C86.5194 129.129 86.0193 129.018 85.5823 128.797C85.1453 128.575 84.7898 128.269 84.5159 127.878C84.242 127.484 84.0712 127.032 84.0035 126.521H85.4115C85.5038 126.927 85.6916 127.257 85.9747 127.509C86.2609 127.758 86.6302 127.883 87.0827 127.883C87.7751 127.883 88.3153 127.581 88.703 126.978C89.0908 126.372 89.2863 125.525 89.2893 124.439H89.2155C89.0554 124.704 88.8554 124.931 88.6153 125.122C88.3783 125.313 88.1121 125.461 87.8167 125.565C87.5212 125.67 87.2058 125.722 86.8703 125.722C86.3256 125.722 85.83 125.588 85.3838 125.321C84.9375 125.053 84.5821 124.685 84.3174 124.217C84.0527 123.75 83.9204 123.216 83.9204 122.615C83.9204 122.018 84.0558 121.477 84.3266 120.99C84.6005 120.504 84.9822 120.119 85.4715 119.836C85.9639 119.55 86.541 119.41 87.2027 119.416ZM87.2073 120.616C86.8472 120.616 86.5225 120.706 86.2332 120.884C85.947 121.06 85.7208 121.298 85.5546 121.6C85.3884 121.898 85.3053 122.231 85.3053 122.597C85.3053 122.963 85.3853 123.296 85.5454 123.594C85.7085 123.89 85.9301 124.125 86.2101 124.3C86.4933 124.473 86.8164 124.559 87.1796 124.559C87.4504 124.559 87.7028 124.507 87.9367 124.402C88.1706 124.297 88.3753 124.153 88.5507 123.968C88.7261 123.78 88.8631 123.568 88.9616 123.331C89.06 123.094 89.1093 122.845 89.1093 122.583C89.1093 122.235 89.0262 121.912 88.86 121.614C88.6969 121.315 88.4722 121.075 88.186 120.893C87.8998 120.709 87.5735 120.616 87.2073 120.616ZM95.4442 129.129C94.8656 129.129 94.3455 129.018 93.8839 128.797C93.4253 128.572 93.0591 128.264 92.7852 127.874C92.5112 127.483 92.3651 127.036 92.3466 126.535H93.7315C93.7654 126.941 93.9454 127.275 94.2717 127.537C94.5979 127.798 94.9888 127.929 95.4442 127.929C95.8074 127.929 96.129 127.846 96.4091 127.68C96.6922 127.51 96.9138 127.278 97.0739 126.983C97.237 126.687 97.3185 126.35 97.3185 125.972C97.3185 125.587 97.2354 125.244 97.0692 124.942C96.9031 124.641 96.6738 124.404 96.3814 124.231C96.0921 124.059 95.7597 123.971 95.3842 123.968C95.098 123.968 94.8103 124.017 94.521 124.116C94.2317 124.214 93.9978 124.344 93.8192 124.504L92.5128 124.31L93.0437 119.545H98.2418V120.769H94.2301L93.93 123.414H93.9854C94.1701 123.236 94.4148 123.086 94.7195 122.966C95.0272 122.846 95.3565 122.786 95.7074 122.786C96.2829 122.786 96.7953 122.923 97.2447 123.197C97.6971 123.471 98.0526 123.845 98.3111 124.319C98.5727 124.79 98.7019 125.331 98.6989 125.944C98.7019 126.556 98.5634 127.103 98.2834 127.583C98.0064 128.063 97.6217 128.441 97.1293 128.718C96.6399 128.992 96.0782 129.129 95.4442 129.129ZM107.117 129.157C106.388 129.154 105.764 128.962 105.247 128.58C104.73 128.198 104.335 127.643 104.061 126.913C103.787 126.184 103.65 125.305 103.65 124.277C103.65 123.252 103.787 122.377 104.061 121.651C104.338 120.924 104.735 120.37 105.252 119.989C105.772 119.607 106.394 119.416 107.117 119.416C107.84 119.416 108.46 119.609 108.977 119.993C109.494 120.375 109.89 120.929 110.164 121.655C110.441 122.378 110.579 123.252 110.579 124.277C110.579 125.308 110.442 126.189 110.169 126.918C109.895 127.644 109.499 128.2 108.982 128.585C108.465 128.966 107.843 129.157 107.117 129.157ZM107.117 127.924C107.757 127.924 108.257 127.612 108.617 126.987C108.981 126.362 109.162 125.459 109.162 124.277C109.162 123.493 109.079 122.829 108.913 122.288C108.75 121.743 108.514 121.33 108.206 121.05C107.902 120.767 107.539 120.626 107.117 120.626C106.48 120.626 105.98 120.94 105.617 121.567C105.253 122.195 105.07 123.099 105.067 124.277C105.067 125.065 105.149 125.732 105.312 126.276C105.478 126.818 105.714 127.229 106.018 127.509C106.323 127.786 106.689 127.924 107.117 127.924ZM115.509 129.157C114.779 129.154 114.156 128.962 113.639 128.58C113.122 128.198 112.726 127.643 112.453 126.913C112.179 126.184 112.042 125.305 112.042 124.277C112.042 123.252 112.179 122.377 112.453 121.651C112.729 120.924 113.127 120.37 113.644 119.989C114.164 119.607 114.785 119.416 115.509 119.416C116.232 119.416 116.852 119.609 117.369 119.993C117.886 120.375 118.282 120.929 118.555 121.655C118.832 122.378 118.971 123.252 118.971 124.277C118.971 125.308 118.834 126.189 118.56 126.918C118.286 127.644 117.891 128.2 117.374 128.585C116.857 128.966 116.235 129.157 115.509 129.157ZM115.509 127.924C116.149 127.924 116.649 127.612 117.009 126.987C117.372 126.362 117.554 125.459 117.554 124.277C117.554 123.493 117.471 122.829 117.304 122.288C117.141 121.743 116.906 121.33 116.598 121.05C116.293 120.767 115.93 120.626 115.509 120.626C114.872 120.626 114.371 120.94 114.008 121.567C113.645 122.195 113.462 123.099 113.459 124.277C113.459 125.065 113.54 125.732 113.704 126.276C113.87 126.818 114.105 127.229 114.41 127.509C114.715 127.786 115.081 127.924 115.509 127.924ZM120.41 127.153V125.999L124.496 119.545H125.405V121.244H124.828L121.906 125.87V125.944H127.506V127.153H120.41ZM124.893 129V126.803L124.902 126.276V119.545H126.255V129H124.893ZM132.575 119.545V129H131.143V120.977H131.088L128.826 122.454V121.087L131.185 119.545H132.575ZM138.719 119.545V129H137.288V120.977H137.233L134.971 122.454V121.087L137.33 119.545H138.719Z" fill="#606062"/>
<path d="M33.054 153.888L34.3814 153.674C34.4573 154.205 34.6641 154.615 35.0054 154.898C35.3468 155.181 35.826 155.322 36.4362 155.322C37.0534 155.322 37.5119 155.198 37.8119 154.946C38.1084 154.698 38.2601 154.402 38.2601 154.064C38.2601 153.76 38.1256 153.523 37.8567 153.35C37.6671 153.229 37.212 153.081 36.4845 152.895C35.5019 152.647 34.8227 152.433 34.44 152.254C34.0608 152.071 33.7746 151.823 33.5781 151.502C33.3816 151.182 33.285 150.83 33.285 150.444C33.285 150.089 33.3643 149.765 33.5264 149.465C33.6884 149.165 33.9056 148.913 34.1849 148.716C34.3918 148.565 34.6779 148.434 35.0365 148.327C35.3985 148.22 35.7812 148.168 36.1949 148.168C36.8155 148.168 37.3568 148.254 37.8257 148.437C38.298 148.613 38.6428 148.858 38.8669 149.165C39.0875 149.472 39.2427 149.882 39.3254 150.395L38.0153 150.578C37.9567 150.164 37.7843 149.844 37.4981 149.613C37.212 149.378 36.812 149.265 36.2914 149.265C35.6777 149.265 35.2364 149.368 34.9744 149.571C34.7124 149.775 34.5814 150.013 34.5814 150.285C34.5814 150.458 34.6331 150.616 34.7434 150.754C34.8537 150.899 35.0227 151.016 35.2571 151.113C35.3916 151.164 35.7846 151.278 36.4397 151.454C37.3878 151.706 38.0463 151.916 38.4256 152.075C38.8014 152.237 39.0944 152.471 39.3082 152.778C39.5254 153.085 39.6323 153.467 39.6323 153.926C39.6323 154.371 39.5012 154.788 39.2392 155.184C38.9772 155.577 38.6014 155.884 38.1118 156.098C37.6188 156.315 37.0603 156.422 36.4397 156.422C35.4123 156.422 34.6262 156.208 34.0884 155.784C33.5471 155.357 33.2057 154.726 33.054 153.888Z" fill="#606062"/>
<path d="M46.3932 156.253V155.077C45.776 155.974 44.9417 156.422 43.8867 156.422C43.4213 156.422 42.9869 156.332 42.5835 156.157C42.1767 155.974 41.8767 155.75 41.6836 155.481C41.4871 155.208 41.3492 154.877 41.2699 154.488C41.2182 154.222 41.1872 153.805 41.1872 153.236V148.334H42.5318V152.716C42.5318 153.416 42.5593 153.888 42.6145 154.129C42.6973 154.484 42.8765 154.76 43.1489 154.96C43.4213 155.16 43.7557 155.264 44.1591 155.264C44.5625 155.264 44.9383 155.16 45.2899 154.953C45.6381 154.75 45.8898 154.467 46.0346 154.112C46.1829 153.76 46.2553 153.243 46.2553 152.568V148.334H47.5964V156.253H46.3932Z" fill="#606062"/>
<path d="M49.7064 159.291V148.334H50.9269V149.375C51.2131 148.972 51.5406 148.672 51.9026 148.468C52.2646 148.268 52.7059 148.168 53.2196 148.168C53.8988 148.168 54.4918 148.341 55.009 148.689C55.5261 149.034 55.9157 149.523 56.1777 150.154C56.4398 150.789 56.5742 151.482 56.5742 152.237C56.5742 153.043 56.4294 153.771 56.1398 154.419C55.8468 155.064 55.4262 155.56 54.8711 155.905C54.3194 156.25 53.7368 156.422 53.1265 156.422C52.6783 156.422 52.2784 156.329 51.9233 156.139C51.5682 155.953 51.2786 155.715 51.0476 155.429V159.291H49.7064ZM50.9269 152.343C50.9269 153.357 51.1338 154.109 51.544 154.595C51.9543 155.077 52.4542 155.322 53.0369 155.322C53.6333 155.322 54.1402 155.071 54.5642 154.567C54.9883 154.064 55.1986 153.285 55.1986 152.23C55.1986 151.223 54.9952 150.471 54.578 149.971C54.1643 149.468 53.6713 149.22 53.0955 149.22C52.5266 149.22 52.0233 149.485 51.5854 150.02C51.1441 150.551 50.9269 151.326 50.9269 152.343Z" fill="#606062"/>
<path d="M58.1947 159.291V148.334H59.4152V149.375C59.7013 148.972 60.0254 148.672 60.3909 148.468C60.7529 148.268 61.1907 148.168 61.7079 148.168C62.3836 148.168 62.9801 148.341 63.4972 148.689C64.0109 149.034 64.4005 149.523 64.666 150.154C64.928 150.789 65.059 151.482 65.059 152.237C65.059 153.043 64.9142 153.771 64.6246 154.419C64.335 155.064 63.9144 155.56 63.3593 155.905C62.8077 156.25 62.225 156.422 61.6148 156.422C61.1666 156.422 60.7632 156.329 60.4115 156.139C60.0564 155.953 59.7634 155.715 59.5358 155.429V159.291H58.1947ZM59.4152 152.343C59.4152 153.357 59.6186 154.109 60.0288 154.595C60.4426 155.077 60.939 155.322 61.5251 155.322C62.1216 155.322 62.6284 155.071 63.0525 154.567C63.4765 154.064 63.6869 153.285 63.6869 152.23C63.6869 151.223 63.48 150.471 63.0663 149.971C62.6525 149.468 62.1595 149.22 61.5838 149.22C61.0149 149.22 60.5115 149.485 60.0737 150.02C59.6324 150.551 59.4152 151.326 59.4152 152.343Z" fill="#606062"/>
<path d="M66.1761 152.295C66.1761 150.833 66.5829 149.747 67.4 149.044C68.0792 148.458 68.9101 148.168 69.8893 148.168C70.9753 148.168 71.8648 148.523 72.5578 149.234C73.2473 149.944 73.5921 150.93 73.5921 152.181C73.5921 153.198 73.4404 153.998 73.1335 154.581C72.8301 155.164 72.3854 155.615 71.7993 155.939C71.2166 156.263 70.5788 156.422 69.8893 156.422C68.7825 156.422 67.8861 156.067 67.2001 155.36C66.5174 154.65 66.1761 153.626 66.1761 152.295ZM67.5483 152.299C67.5483 153.309 67.7724 154.067 68.2137 154.567C68.6584 155.071 69.217 155.322 69.8893 155.322C70.5547 155.322 71.1097 155.071 71.5545 154.564C71.9992 154.06 72.2199 153.288 72.2199 152.254C72.2199 151.278 71.9958 150.537 71.551 150.037C71.1063 149.534 70.5512 149.282 69.8893 149.282C69.217 149.282 68.6584 149.53 68.2137 150.03C67.7724 150.533 67.5483 151.288 67.5483 152.299Z" fill="#606062"/>
<path d="M75.1505 156.253V148.334H76.3571V149.547C76.664 148.985 76.9501 148.613 77.2122 148.437C77.4742 148.254 77.7604 148.168 78.0741 148.168C78.5257 148.168 78.9877 148.31 79.4566 148.592L78.9774 149.83C78.6499 149.647 78.3258 149.554 78.0017 149.554C77.7086 149.554 77.4466 149.644 77.2156 149.82C76.9846 149.996 76.8191 150.24 76.7192 150.551C76.5675 151.026 76.4951 151.55 76.4951 152.116V156.253H75.1505Z" fill="#606062"/>
<path d="M83.1629 155.057L83.3456 156.243C82.9698 156.319 82.6319 156.36 82.3354 156.36C81.8493 156.36 81.4735 156.284 81.2046 156.129C80.9391 155.974 80.7495 155.774 80.6392 155.522C80.5323 155.271 80.4771 154.74 80.4771 153.936V149.372H79.4842V148.334H80.4771V146.375L81.8217 145.569V148.334H83.1629V149.372H81.8217V154.012C81.8217 154.395 81.8424 154.643 81.8907 154.75C81.939 154.86 82.0148 154.946 82.1217 155.012C82.2286 155.077 82.3803 155.108 82.5768 155.108C82.725 155.108 82.9215 155.091 83.1629 155.057Z" fill="#606062"/>
<path d="M92.1648 155.029C91.8407 155.405 91.4787 155.705 91.0788 155.932C90.6789 156.157 90.2755 156.27 89.8756 156.27C89.4343 156.27 89.0033 156.139 88.5827 155.884C88.1655 155.622 87.8276 155.226 87.5656 154.691C87.3036 154.153 87.1726 153.564 87.1726 152.923C87.1726 152.133 87.376 151.34 87.7828 150.547C88.1862 149.758 88.6896 149.161 89.2895 148.761C89.8894 148.365 90.4755 148.168 91.0409 148.168C91.4718 148.168 91.8856 148.279 92.2786 148.506C92.6716 148.73 93.0095 149.078 93.2922 149.537L93.5543 148.379H94.8816L93.8059 153.385C93.6577 154.081 93.5818 154.467 93.5818 154.54C93.5818 154.674 93.6336 154.791 93.737 154.888C93.837 154.984 93.9611 155.033 94.1059 155.033C94.3679 155.033 94.7161 154.884 95.1436 154.581C95.7091 154.185 96.1607 153.654 96.4917 152.985C96.8192 152.316 96.9847 151.63 96.9847 150.92C96.9847 150.092 96.771 149.32 96.3469 148.603C95.9228 147.882 95.2884 147.306 94.4438 146.875C93.6025 146.444 92.6682 146.227 91.6477 146.227C90.4824 146.227 89.417 146.5 88.4551 147.041C87.4932 147.586 86.7451 148.365 86.2141 149.378C85.6832 150.395 85.4177 151.482 85.4177 152.647C85.4177 153.86 85.6832 154.905 86.2141 155.784C86.7451 156.663 87.5104 157.312 88.5103 157.732C89.5136 158.153 90.6237 158.36 91.8407 158.36C93.1474 158.36 94.2369 158.142 95.1161 157.701C95.9952 157.263 96.6537 156.729 97.0916 156.101H98.4362C98.1811 156.622 97.7467 157.156 97.1295 157.698C96.5158 158.239 95.7815 158.67 94.9333 158.987C94.0852 159.301 93.0578 159.459 91.8649 159.459C90.7616 159.459 89.7445 159.318 88.8102 159.035C87.8793 158.753 87.0864 158.329 86.4279 157.76C85.7728 157.191 85.2798 156.536 84.9454 155.798C84.5282 154.86 84.3213 153.847 84.3213 152.764C84.3213 151.554 84.5696 150.399 85.066 149.303C85.6728 147.961 86.5347 146.931 87.6518 146.217C88.7688 145.5 90.1203 145.145 91.7132 145.145C92.9475 145.145 94.0576 145.396 95.0368 145.9C96.0194 146.403 96.7951 147.155 97.3605 148.151C97.8432 149.01 98.0845 149.94 98.0845 150.951C98.0845 152.388 97.5777 153.664 96.5675 154.781C95.6608 155.784 94.6748 156.284 93.6025 156.284C93.2578 156.284 92.9819 156.232 92.7716 156.126C92.5613 156.022 92.4062 155.874 92.3062 155.677C92.2407 155.553 92.1959 155.336 92.1648 155.029ZM88.5482 153.016C88.5482 153.698 88.7102 154.226 89.0343 154.605C89.355 154.981 89.7239 155.171 90.1445 155.171C90.4203 155.171 90.7134 155.088 91.0236 154.922C91.3339 154.753 91.627 154.509 91.9063 154.178C92.189 153.85 92.42 153.433 92.5958 152.93C92.7785 152.426 92.8647 151.919 92.8647 151.413C92.8647 150.737 92.6992 150.213 92.3614 149.84C92.0269 149.465 91.6166 149.282 91.1374 149.282C90.8202 149.282 90.5203 149.361 90.2376 149.523C89.9549 149.685 89.6859 149.944 89.4205 150.302C89.1584 150.658 88.9447 151.095 88.7861 151.609C88.6275 152.119 88.5482 152.588 88.5482 153.016Z" fill="#606062"/>
<path d="M99.7325 156.912L101.029 157.094C101.084 157.494 101.236 157.787 101.484 157.974C101.818 158.222 102.273 158.346 102.853 158.346C103.47 158.346 103.953 158.222 104.29 157.974C104.628 157.725 104.856 157.377 104.976 156.932C105.045 156.66 105.08 156.088 105.073 155.215C104.487 155.908 103.756 156.253 102.88 156.253C101.794 156.253 100.95 155.864 100.353 155.077C99.7567 154.295 99.4567 153.354 99.4567 152.257C99.4567 151.502 99.5946 150.802 99.867 150.164C100.139 149.527 100.536 149.037 101.056 148.689C101.574 148.341 102.184 148.168 102.887 148.168C103.822 148.168 104.59 148.548 105.197 149.309V148.334H106.431V155.174C106.431 156.408 106.307 157.281 106.056 157.794C105.807 158.308 105.407 158.715 104.866 159.011C104.321 159.308 103.653 159.459 102.86 159.459C101.915 159.459 101.156 159.249 100.574 158.822C99.9911 158.401 99.7119 157.763 99.7325 156.912ZM100.832 152.161C100.832 153.195 101.039 153.95 101.449 154.426C101.863 154.902 102.38 155.14 103.001 155.14C103.618 155.14 104.135 154.905 104.556 154.429C104.973 153.957 105.18 153.216 105.18 152.202C105.18 151.237 104.966 150.506 104.535 150.016C104.104 149.523 103.587 149.282 102.98 149.282C102.384 149.282 101.877 149.523 101.456 150.006C101.039 150.489 100.832 151.206 100.832 152.161Z" fill="#606062"/>
<path d="M108.466 146.855V145.327H109.81V146.855H108.466ZM108.466 156.253V148.334H109.81V156.253H108.466Z" fill="#606062"/>
<path d="M116.968 156.253V155.25C116.468 156.029 115.73 156.422 114.758 156.422C114.127 156.422 113.544 156.25 113.02 155.901C112.489 155.553 112.082 155.071 111.789 154.45C111.5 153.826 111.355 153.112 111.355 152.302C111.355 151.513 111.486 150.799 111.748 150.154C112.013 149.513 112.406 149.02 112.934 148.682C113.458 148.337 114.047 148.168 114.696 148.168C115.175 148.168 115.599 148.268 115.968 148.468C116.34 148.672 116.644 148.934 116.878 149.258V145.327H118.219V156.253H116.968ZM112.727 152.306C112.727 153.316 112.941 154.071 113.372 154.574C113.796 155.074 114.303 155.322 114.885 155.322C115.475 155.322 115.971 155.084 116.385 154.605C116.792 154.129 116.999 153.398 116.999 152.416C116.999 151.337 116.792 150.544 116.371 150.037C115.954 149.534 115.437 149.282 114.827 149.282C114.227 149.282 113.73 149.523 113.327 150.009C112.927 150.492 112.727 151.261 112.727 152.306Z" fill="#606062"/>
<path d="M125.456 156.253V155.25C124.956 156.029 124.218 156.422 123.242 156.422C122.611 156.422 122.032 156.25 121.505 155.901C120.977 155.553 120.567 155.071 120.274 154.45C119.984 153.826 119.839 153.112 119.839 152.302C119.839 151.513 119.974 150.799 120.236 150.154C120.498 149.513 120.894 149.02 121.419 148.682C121.943 148.337 122.532 148.168 123.18 148.168C123.66 148.168 124.084 148.268 124.456 148.468C124.828 148.672 125.132 148.934 125.363 149.258V145.327H126.707V156.253H125.456ZM121.215 152.306C121.215 153.316 121.429 154.071 121.856 154.574C122.284 155.074 122.791 155.322 123.373 155.322C123.959 155.322 124.459 155.084 124.87 154.605C125.28 154.129 125.487 153.398 125.487 152.416C125.487 151.337 125.276 150.544 124.859 150.037C124.442 149.534 123.925 149.282 123.311 149.282C122.715 149.282 122.215 149.523 121.815 150.009C121.415 150.492 121.215 151.261 121.215 152.306Z" fill="#606062"/>
<path d="M128.831 156.253V145.327H130.172V149.261C130.796 148.53 131.582 148.168 132.534 148.168C133.117 148.168 133.623 148.282 134.054 148.513C134.485 148.744 134.792 149.061 134.978 149.468C135.165 149.875 135.254 150.468 135.254 151.24V156.253H133.913V151.247C133.913 150.578 133.768 150.089 133.479 149.785C133.189 149.478 132.782 149.327 132.255 149.327C131.858 149.327 131.489 149.427 131.141 149.634C130.793 149.84 130.545 150.12 130.396 150.475C130.248 150.823 130.172 151.309 130.172 151.93V156.253H128.831Z" fill="#606062"/>
<path d="M137.699 156.253V154.729H139.226V156.253H137.699Z" fill="#606062"/>
<path d="M146.732 153.354L148.042 153.54C147.897 154.44 147.531 155.146 146.938 155.657C146.345 156.167 145.618 156.422 144.756 156.422C143.673 156.422 142.805 156.067 142.146 155.36C141.488 154.653 141.16 153.643 141.16 152.326C141.16 151.471 141.301 150.726 141.584 150.085C141.867 149.447 142.298 148.965 142.877 148.648C143.456 148.327 144.084 148.168 144.763 148.168C145.621 148.168 146.325 148.382 146.869 148.816C147.418 149.251 147.769 149.871 147.921 150.668L146.625 150.868C146.501 150.337 146.28 149.937 145.963 149.668C145.646 149.399 145.266 149.265 144.818 149.265C144.142 149.265 143.591 149.506 143.167 149.989C142.746 150.475 142.532 151.24 142.532 152.288C142.532 153.35 142.739 154.119 143.146 154.602C143.553 155.081 144.084 155.322 144.739 155.322C145.27 155.322 145.708 155.164 146.059 154.84C146.411 154.519 146.635 154.022 146.732 153.354Z" fill="#606062"/>
<path d="M148.683 152.295C148.683 150.833 149.09 149.747 149.907 149.044C150.586 148.458 151.417 148.168 152.396 148.168C153.482 148.168 154.372 148.523 155.065 149.234C155.754 149.944 156.099 150.93 156.099 152.181C156.099 153.198 155.947 153.998 155.644 154.581C155.337 155.164 154.892 155.615 154.306 155.939C153.723 156.263 153.086 156.422 152.396 156.422C151.289 156.422 150.393 156.067 149.71 155.36C149.024 154.65 148.683 153.626 148.683 152.295ZM150.059 152.299C150.059 153.309 150.279 154.067 150.721 154.567C151.165 155.071 151.724 155.322 152.396 155.322C153.065 155.322 153.617 155.071 154.061 154.564C154.506 154.06 154.727 153.288 154.727 152.254C154.727 151.278 154.503 150.537 154.058 150.037C153.613 149.534 153.058 149.282 152.396 149.282C151.724 149.282 151.165 149.53 150.721 150.03C150.279 150.533 150.059 151.288 150.059 152.299Z" fill="#606062"/>
<path d="M157.675 156.253V148.334H158.881V149.454C159.126 149.068 159.457 148.754 159.871 148.52C160.281 148.282 160.75 148.168 161.277 148.168C161.86 148.168 162.343 148.289 162.715 148.53C163.087 148.775 163.353 149.113 163.505 149.551C164.136 148.627 164.953 148.168 165.959 148.168C166.749 148.168 167.356 148.382 167.78 148.816C168.204 149.251 168.418 149.923 168.418 150.823V156.253H167.073V151.268C167.073 150.737 167.028 150.347 166.942 150.113C166.856 149.875 166.697 149.689 166.466 149.544C166.239 149.399 165.97 149.327 165.659 149.327C165.101 149.327 164.639 149.513 164.27 149.882C163.901 150.251 163.718 150.844 163.718 151.657V156.253H162.374V151.113C162.374 150.52 162.263 150.071 162.046 149.775C161.829 149.475 161.47 149.327 160.974 149.327C160.598 149.327 160.247 149.427 159.929 149.623C159.609 149.823 159.374 150.113 159.229 150.495C159.088 150.878 159.016 151.43 159.016 152.15V156.253H157.675Z" fill="#606062"/>
<path d="M34.1194 203.58V192.654H41.4906V193.936H35.5709V197.339H40.6976V198.622H35.5709V203.58H34.1194Z" fill="#606062"/>
<path d="M41.3251 203.58L45.5175 192.654H47.1069L51.5544 203.58H49.9098L48.6445 200.27H44.0453L42.8593 203.58H41.3251ZM44.4694 199.094H48.1929L47.0551 196.064C46.7104 195.143 46.4518 194.385 46.2691 193.781C46.1208 194.495 45.9209 195.195 45.6692 195.888L44.4694 199.094Z" fill="#606062"/>
<path d="M60.9701 202.407C61.6458 202.869 62.2664 203.207 62.8353 203.421L62.4043 204.428C61.6182 204.145 60.8356 203.7 60.0564 203.09C59.2462 203.538 58.3533 203.762 57.3776 203.762C56.3915 203.762 55.4951 203.525 54.6918 203.049C53.8885 202.573 53.2679 201.901 52.8335 201.039C52.3991 200.173 52.1819 199.201 52.1819 198.119C52.1819 197.043 52.4025 196.064 52.8404 195.178C53.2748 194.295 53.8988 193.626 54.7022 193.164C55.5089 192.702 56.4122 192.471 57.4086 192.471C58.4153 192.471 59.3255 192.709 60.1323 193.188C60.9425 193.668 61.5596 194.336 61.9837 195.198C62.4112 196.06 62.6215 197.029 62.6215 198.112C62.6215 199.011 62.4836 199.818 62.2078 200.535C61.9354 201.252 61.5217 201.877 60.9701 202.407ZM57.7982 200.559C58.6291 200.794 59.3152 201.142 59.853 201.604C60.7011 200.832 61.1252 199.667 61.1252 198.115C61.1252 197.236 60.977 196.464 60.677 195.805C60.3771 195.143 59.9392 194.633 59.36 194.267C58.7842 193.905 58.1361 193.723 57.4189 193.723C56.3433 193.723 55.4503 194.092 54.7435 194.826C54.0333 195.564 53.6782 196.664 53.6782 198.125C53.6782 199.542 54.0299 200.628 54.7297 201.39C55.4296 202.149 56.326 202.528 57.4189 202.528C57.9326 202.528 58.4153 202.432 58.8739 202.239C58.4222 201.945 57.9464 201.735 57.4465 201.611L57.7982 200.559Z" fill="#606062"/>
<path d="M63.8696 201.215L65.1969 201.001C65.2728 201.532 65.4796 201.939 65.821 202.225C66.1623 202.507 66.6381 202.649 67.2483 202.649C67.8689 202.649 68.3274 202.525 68.6274 202.273C68.9239 202.025 69.0721 201.728 69.0721 201.39C69.0721 201.087 68.9377 200.849 68.6722 200.677C68.4826 200.556 68.024 200.404 67.2966 200.222C66.3174 199.973 65.6382 199.76 65.2555 199.58C64.8763 199.398 64.5901 199.146 64.3936 198.825C64.1971 198.508 64.0971 198.156 64.0971 197.767C64.0971 197.415 64.1799 197.088 64.3419 196.788C64.5039 196.488 64.7211 196.24 65.0004 196.04C65.2073 195.888 65.4934 195.76 65.852 195.653C66.2106 195.547 66.5967 195.491 67.007 195.491C67.6276 195.491 68.1723 195.581 68.6412 195.76C69.1135 195.94 69.4583 196.184 69.6824 196.488C69.903 196.798 70.0582 197.205 70.1409 197.719L68.8308 197.901C68.7722 197.491 68.5964 197.167 68.3137 196.936C68.0275 196.705 67.6276 196.591 67.1035 196.591C66.4933 196.591 66.052 196.691 65.7899 196.895C65.5279 197.098 65.3969 197.339 65.3969 197.612C65.3969 197.784 65.4486 197.943 65.5589 198.081C65.6693 198.222 65.8382 198.343 66.0726 198.436C66.2071 198.487 66.6001 198.601 67.2552 198.78C68.1999 199.032 68.8618 199.239 69.2376 199.401C69.6169 199.56 69.9099 199.798 70.1237 200.104C70.3409 200.411 70.4478 200.79 70.4478 201.249C70.4478 201.694 70.3168 202.114 70.0547 202.507C69.7927 202.904 69.4169 203.207 68.9273 203.425C68.4343 203.642 67.8758 203.749 67.2552 203.749C66.2278 203.749 65.4417 203.535 64.9039 203.111C64.3626 202.683 64.0213 202.052 63.8696 201.215Z" fill="#606062"/>
<path d="M74.5506 200.894C74.5471 200.715 74.5437 200.58 74.5437 200.494C74.5437 199.966 74.6195 199.511 74.7678 199.132C74.8781 198.843 75.0539 198.553 75.2987 198.26C75.4745 198.046 75.7986 197.736 76.2606 197.326C76.7261 196.915 77.026 196.591 77.1674 196.346C77.3053 196.102 77.3742 195.836 77.3742 195.547C77.3742 195.022 77.1708 194.56 76.764 194.164C76.3572 193.768 75.8607 193.571 75.2677 193.571C74.6954 193.571 74.223 193.75 73.8403 194.109C73.4542 194.471 73.206 195.033 73.0887 195.798L71.7131 195.629C71.8372 194.609 72.2061 193.826 72.8164 193.285C73.4301 192.744 74.2403 192.471 75.247 192.471C76.3123 192.471 77.1605 192.761 77.7983 193.343C78.4292 193.926 78.7499 194.629 78.7499 195.457C78.7499 195.936 78.6361 196.374 78.412 196.777C78.1879 197.181 77.75 197.67 77.1019 198.246C76.664 198.632 76.3778 198.918 76.2434 199.101C76.1089 199.284 76.0089 199.494 75.9469 199.735C75.8814 199.97 75.8434 200.356 75.8331 200.894H74.5506ZM74.3092 203.58V202.052H75.8331V203.58H74.3092Z" fill="#606062"/>
<path d="M36.4397 248.562V239.484H33.2057V237.636H41.8733V239.484H38.6531V248.562H36.4397Z" fill="#606062"/>
<path d="M43.7143 243.083L41.8215 242.749C42.0353 241.977 42.4042 241.404 42.9248 241.032C43.4489 240.66 44.2246 240.477 45.252 240.477C46.1829 240.477 46.8793 240.584 47.3379 240.804C47.793 241.029 48.117 241.308 48.3032 241.649C48.4894 241.987 48.5825 242.611 48.5825 243.521L48.5515 245.962C48.5515 246.659 48.5859 247.172 48.6514 247.503C48.7169 247.834 48.8411 248.186 49.0238 248.562H46.9483C46.8966 248.424 46.8276 248.22 46.7483 247.952C46.7138 247.827 46.6897 247.745 46.6759 247.707C46.3173 248.058 45.9381 248.32 45.5313 248.496C45.1244 248.672 44.69 248.762 44.2315 248.762C43.4213 248.762 42.78 248.541 42.3111 248.096C41.8422 247.658 41.6078 247.097 41.6078 246.421C41.6078 245.976 41.7147 245.576 41.9284 245.224C42.1422 244.876 42.4387 244.607 42.8283 244.421C43.211 244.238 43.766 244.073 44.4901 243.935C45.4658 243.752 46.145 243.576 46.5208 243.421V243.208C46.5208 242.801 46.4242 242.511 46.2243 242.335C46.0243 242.163 45.6485 242.077 45.0969 242.077C44.7211 242.077 44.4315 242.153 44.2246 242.301C44.0108 242.449 43.8453 242.711 43.7143 243.083ZM46.5208 244.78C46.2553 244.866 45.8312 244.973 45.2486 245.1C44.6693 245.224 44.2866 245.345 44.1074 245.462C43.835 245.659 43.7005 245.904 43.7005 246.2C43.7005 246.497 43.8074 246.748 44.0281 246.962C44.2453 247.176 44.5245 247.283 44.8624 247.283C45.2382 247.283 45.6002 247.155 45.9415 246.91C46.1932 246.721 46.3622 246.49 46.4415 246.214C46.4932 246.038 46.5208 245.697 46.5208 245.197V244.78Z" fill="#606062"/>
<path d="M50.6442 248.562V237.636H52.737V248.562H50.6442Z" fill="#606062"/>
<path d="M54.809 248.562V237.636H56.8983V243.432L59.3496 240.642H61.9285L59.2255 243.538L62.125 248.562H59.8668L57.8671 244.99L56.8983 246.028V248.562H54.809Z" fill="#606062"/>
<path d="M71.227 240.642V242.308H69.7927V245.514C69.7927 246.166 69.8065 246.545 69.8341 246.652C69.8617 246.759 69.9237 246.845 70.0237 246.917C70.1203 246.986 70.2375 247.021 70.3754 247.021C70.5719 247.021 70.8512 246.955 71.2201 246.821L71.3959 248.448C70.9098 248.658 70.3616 248.762 69.7445 248.762C69.3687 248.762 69.0308 248.696 68.7274 248.569C68.424 248.445 68.2033 248.279 68.0654 248.076C67.9206 247.872 67.8241 247.6 67.7689 247.255C67.7241 247.01 67.7034 246.517 67.7034 245.773V242.308H66.7415V240.642H67.7034V239.07L69.7927 237.836V240.642H71.227Z" fill="#606062"/>
<path d="M72.2061 244.507C72.2061 243.811 72.3751 243.135 72.7198 242.483C73.0611 241.832 73.5473 241.335 74.1748 240.991C74.8057 240.649 75.5021 240.477 76.2778 240.477C77.4776 240.477 78.4568 240.863 79.2222 241.642C79.9876 242.425 80.3703 243.404 80.3703 244.593C80.3703 245.797 79.9807 246.79 79.2118 247.579C78.4396 248.369 77.4673 248.762 76.2951 248.762C75.5711 248.762 74.8781 248.596 74.2196 248.269C73.5645 247.941 73.0611 247.459 72.7198 246.824C72.3751 246.19 72.2061 245.417 72.2061 244.507ZM74.3575 244.618C74.3575 245.404 74.5437 246.007 74.9126 246.424C75.2884 246.845 75.7469 247.052 76.2916 247.052C76.8364 247.052 77.2949 246.845 77.6638 246.424C78.0327 246.007 78.2189 245.4 78.2189 244.604C78.2189 243.828 78.0327 243.228 77.6638 242.811C77.2949 242.394 76.8364 242.184 76.2916 242.184C75.7469 242.184 75.2884 242.394 74.9126 242.811C74.5437 243.228 74.3575 243.832 74.3575 244.618Z" fill="#606062"/>
<path d="M85.6901 245.021L87.8414 244.807C87.969 245.528 88.231 246.055 88.6241 246.393C89.0171 246.731 89.5515 246.9 90.2203 246.9C90.9271 246.9 91.4615 246.748 91.8201 246.448C92.1786 246.148 92.3579 245.797 92.3579 245.397C92.3579 245.138 92.2821 244.918 92.1304 244.735C91.9821 244.556 91.7166 244.397 91.3408 244.266C91.0823 244.173 90.4996 244.014 89.5825 243.787C88.4068 243.49 87.5794 243.132 87.1036 242.701C86.4348 242.097 86.1003 241.363 86.1003 240.494C86.1003 239.939 86.2589 239.415 86.5727 238.929C86.8864 238.443 87.3415 238.074 87.9311 237.819C88.5241 237.567 89.2377 237.44 90.0755 237.44C91.4408 237.44 92.4717 237.739 93.1612 238.35C93.8542 238.957 94.2162 239.767 94.2507 240.78L92.0373 240.856C91.9442 240.291 91.7442 239.887 91.4339 239.639C91.1271 239.394 90.6651 239.27 90.048 239.27C89.4136 239.27 88.9137 239.401 88.5551 239.667C88.3241 239.836 88.2069 240.063 88.2069 240.349C88.2069 240.608 88.3172 240.829 88.5344 241.011C88.8137 241.249 89.486 241.494 90.5582 241.746C91.627 241.997 92.42 242.263 92.9302 242.532C93.4439 242.804 93.8473 243.173 94.1369 243.645C94.4265 244.114 94.5713 244.693 94.5713 245.383C94.5713 246.01 94.3989 246.597 94.0507 247.145C93.6991 247.69 93.2095 248.096 92.5751 248.362C91.9373 248.627 91.1443 248.762 90.1962 248.762C88.8137 248.762 87.7552 248.445 87.014 247.803C86.2727 247.169 85.8349 246.241 85.6901 245.021Z" fill="#606062"/>
<path d="M97.988 243.083L96.0952 242.749C96.309 241.977 96.6779 241.404 97.2019 241.032C97.7225 240.66 98.4983 240.477 99.5257 240.477C100.46 240.477 101.156 240.584 101.612 240.804C102.067 241.029 102.391 241.308 102.577 241.649C102.763 241.987 102.856 242.611 102.856 243.521L102.825 245.962C102.825 246.659 102.86 247.172 102.925 247.503C102.991 247.834 103.115 248.186 103.301 248.562H101.225C101.17 248.424 101.101 248.22 101.022 247.952C100.991 247.827 100.963 247.745 100.95 247.707C100.594 248.058 100.212 248.32 99.805 248.496C99.3981 248.672 98.9637 248.762 98.5052 248.762C97.695 248.762 97.0537 248.541 96.5848 248.096C96.1159 247.658 95.8815 247.097 95.8815 246.421C95.8815 245.976 95.9883 245.576 96.2021 245.224C96.4159 244.876 96.7158 244.607 97.102 244.421C97.4846 244.238 98.0397 244.073 98.7637 243.935C99.7394 243.752 100.419 243.576 100.798 243.421V243.208C100.798 242.801 100.698 242.511 100.498 242.335C100.298 242.163 99.9222 242.077 99.3705 242.077C98.9947 242.077 98.7051 242.153 98.4983 242.301C98.2845 242.449 98.119 242.711 97.988 243.083ZM100.798 244.78C100.529 244.866 100.105 244.973 99.5222 245.1C98.943 245.224 98.5603 245.345 98.3845 245.462C98.1121 245.659 97.9742 245.904 97.9742 246.2C97.9742 246.497 98.0845 246.748 98.3018 246.962C98.519 247.176 98.7982 247.283 99.1361 247.283C99.5119 247.283 99.8739 247.155 100.215 246.91C100.467 246.721 100.636 246.49 100.715 246.214C100.77 246.038 100.798 245.697 100.798 245.197V244.78Z" fill="#606062"/>
<path d="M104.918 248.562V237.636H107.011V248.562H104.918Z" fill="#606062"/>
<path d="M113.737 246.059L115.826 246.41C115.561 247.176 115.137 247.758 114.558 248.162C113.978 248.562 113.254 248.762 112.386 248.762C111.01 248.762 109.989 248.31 109.331 247.41C108.81 246.69 108.548 245.779 108.548 244.676C108.548 243.366 108.893 242.335 109.576 241.591C110.262 240.846 111.127 240.477 112.175 240.477C113.351 240.477 114.278 240.863 114.961 241.642C115.64 242.421 115.964 243.614 115.933 245.221H110.7C110.717 245.842 110.882 246.324 111.206 246.669C111.527 247.017 111.927 247.19 112.406 247.19C112.734 247.19 113.01 247.1 113.23 246.921C113.454 246.745 113.623 246.455 113.737 246.059ZM113.858 243.938C113.844 243.332 113.689 242.87 113.392 242.552C113.092 242.235 112.734 242.077 112.306 242.077C111.851 242.077 111.472 242.246 111.175 242.577C110.879 242.911 110.734 243.366 110.738 243.938H113.858Z" fill="#606062"/>
<path d="M116.899 246.335L119.005 246.014C119.095 246.417 119.274 246.728 119.546 246.934C119.819 247.145 120.205 247.252 120.695 247.252C121.236 247.252 121.643 247.152 121.918 246.952C122.101 246.814 122.194 246.624 122.194 246.39C122.194 246.235 122.143 246.1 122.043 245.997C121.939 245.897 121.705 245.804 121.343 245.721C119.653 245.345 118.581 245.004 118.129 244.697C117.502 244.266 117.188 243.673 117.188 242.911C117.188 242.221 117.461 241.646 118.002 241.177C118.543 240.708 119.384 240.477 120.519 240.477C121.605 240.477 122.408 240.653 122.936 241.008C123.463 241.363 123.825 241.887 124.025 242.58L122.056 242.945C121.974 242.639 121.808 242.397 121.574 242.232C121.336 242.066 120.998 241.987 120.557 241.987C120.005 241.987 119.609 242.063 119.364 242.218C119.205 242.328 119.126 242.47 119.126 242.642C119.126 242.79 119.195 242.918 119.336 243.025C119.526 243.163 120.177 243.359 121.298 243.614C122.418 243.869 123.198 244.18 123.639 244.545C124.08 244.918 124.301 245.438 124.301 246.107C124.301 246.831 123.997 247.455 123.387 247.979C122.784 248.5 121.884 248.762 120.695 248.762C119.615 248.762 118.764 248.541 118.133 248.107C117.502 247.672 117.092 247.083 116.899 246.335Z" fill="#606062"/>
<path fill-rule="evenodd" clip-rule="evenodd" d="M32.8713 248.562H125.035V249.258H32.8713V248.562Z" fill="#606062"/>
<path fill-rule="evenodd" clip-rule="evenodd" d="M358.427 43.4134H13.778C6.16891 43.4341 0.0113197 49.6055 0.000976562 57.2145V274.199C0.0113197 281.808 6.17236 287.976 13.778 288H358.427C366.036 287.976 372.194 281.808 372.204 274.199V57.2145C372.194 49.6055 366.036 43.4341 358.427 43.4134ZM359.227 262.404C359.099 270.12 352.766 276.285 345.05 276.205H26.9585C19.2426 276.285 12.9092 270.12 12.7816 262.404V68.6126C12.9092 60.8967 19.2426 54.7322 26.9585 54.8115L345.25 54.815C352.966 54.7322 359.299 60.8967 359.427 68.6126V262.404H359.227Z" fill="#1A237E"/>
<path d="M21.6077 95.3806L336.958 93.9808" stroke="#1A237E" stroke-width="0.635869"/>
<path d="M22.8592 80.4451L25.0106 80.2314C25.1416 80.9485 25.4001 81.476 25.7966 81.8139C26.1897 82.1517 26.7206 82.3207 27.3895 82.3207C28.0962 82.3207 28.6306 82.169 28.9892 81.869C29.3478 81.5691 29.5305 81.2209 29.5305 80.8175C29.5305 80.5589 29.4512 80.3383 29.3029 80.1555C29.1512 79.9762 28.8892 79.8177 28.51 79.6866C28.2548 79.5936 27.6687 79.435 26.7551 79.2074C25.576 78.9109 24.7485 78.5523 24.2762 78.1214C23.6073 77.518 23.2729 76.7837 23.2729 75.9149C23.2729 75.3598 23.4315 74.8357 23.7418 74.3496C24.059 73.8635 24.5106 73.4946 25.1036 73.2394C25.6966 72.9878 26.4069 72.8602 27.2481 72.8602C28.6134 72.8602 29.6443 73.1636 30.3338 73.7704C31.0233 74.3772 31.3853 75.1874 31.4198 76.201L29.2099 76.2769C29.1133 75.7149 28.9133 75.3081 28.6065 75.0633C28.2962 74.815 27.8342 74.6909 27.2205 74.6909C26.5827 74.6909 26.0862 74.8219 25.7277 75.0874C25.4967 75.2563 25.3795 75.4839 25.3795 75.7701C25.3795 76.0286 25.4863 76.2493 25.707 76.432C25.9828 76.6699 26.6586 76.9147 27.7273 77.1664C28.7996 77.4181 29.5891 77.6835 30.1028 77.9524C30.6165 78.2248 31.0164 78.5937 31.3061 79.0661C31.5957 79.5349 31.7405 80.1142 31.7405 80.8037C31.7405 81.4312 31.5681 82.0173 31.2199 82.5655C30.8716 83.1102 30.3821 83.517 29.7442 83.7825C29.1099 84.0514 28.3169 84.1824 27.3688 84.1824C25.9863 84.1824 24.9244 83.8653 24.1866 83.2274C23.4453 82.5896 23.004 81.6622 22.8592 80.4451Z" fill="#1A237E"/>
<path d="M38.8359 83.9825V82.7999C38.5463 83.2205 38.167 83.5584 37.6981 83.8066C37.2258 84.0583 36.7328 84.1824 36.2087 84.1824C35.6743 84.1824 35.1985 84.0652 34.7745 83.8308C34.3504 83.5963 34.047 83.2654 33.8574 82.8447C33.6678 82.4207 33.5712 81.8346 33.5712 81.0864V76.0631H35.664V79.7108C35.664 80.8278 35.7019 81.5105 35.7812 81.7622C35.8571 82.0138 35.995 82.2138 36.2018 82.3586C36.4052 82.5069 36.6638 82.5793 36.981 82.5793C37.3396 82.5793 37.6602 82.4793 37.9464 82.2862C38.2291 82.0897 38.4221 81.8449 38.5256 81.5518C38.6324 81.2588 38.6842 80.5486 38.6842 79.4108V76.0631H40.7769V83.9825H38.8359Z" fill="#1A237E"/>
<path d="M42.8628 76.0631H44.8176V77.225C45.0693 76.8285 45.4106 76.5079 45.845 76.2631C46.276 76.0183 46.7587 75.8976 47.2827 75.8976C48.2032 75.8976 48.9824 76.2562 49.6237 76.9802C50.265 77.7008 50.5856 78.7075 50.5856 79.9935C50.5856 81.3174 50.2615 82.3448 49.6168 83.0792C48.9686 83.817 48.186 84.1824 47.2655 84.1824C46.8276 84.1824 46.4311 84.0962 46.076 83.9204C45.7209 83.748 45.3451 83.4481 44.9555 83.0275V86.9889H42.8628V76.0631ZM44.9245 79.9004C44.9245 80.7934 45.1003 81.4519 45.452 81.8794C45.8036 82.3034 46.2346 82.5172 46.738 82.5172C47.2241 82.5172 47.6275 82.3241 47.9516 81.9311C48.2722 81.5415 48.4342 80.9002 48.4342 80.0073C48.4342 79.1729 48.2688 78.5558 47.9343 78.149C47.6033 77.7456 47.1931 77.5456 46.7001 77.5456C46.1898 77.5456 45.7657 77.7421 45.4313 78.1386C45.09 78.5351 44.9245 79.1247 44.9245 79.9004Z" fill="#1A237E"/>
<path d="M52.1853 76.0631H54.1367V77.225C54.3919 76.8285 54.7332 76.5079 55.1641 76.2631C55.5986 76.0183 56.0778 75.8976 56.6053 75.8976C57.5224 75.8976 58.3015 76.2562 58.9428 76.9802C59.5841 77.7008 59.9047 78.7075 59.9047 79.9935C59.9047 81.3174 59.5841 82.3448 58.9359 83.0792C58.2912 83.817 57.5086 84.1824 56.588 84.1824C56.1502 84.1824 55.7537 84.0962 55.3951 83.9204C55.0435 83.748 54.6677 83.4481 54.2746 83.0275V86.9889H52.1853V76.0631ZM54.2436 79.9004C54.2436 80.7934 54.4194 81.4519 54.7746 81.8794C55.1228 82.3034 55.5537 82.5172 56.0571 82.5172C56.5432 82.5172 56.9466 82.3241 57.2707 81.9311C57.5948 81.5415 57.7534 80.9002 57.7534 80.0073C57.7534 79.1729 57.5879 78.5558 57.2569 78.149C56.9259 77.7456 56.5122 77.5456 56.0226 77.5456C55.5089 77.5456 55.0848 77.7421 54.7504 78.1386C54.4125 78.5351 54.2436 79.1247 54.2436 79.9004Z" fill="#1A237E"/>
<path d="M61.0769 79.928C61.0769 79.2315 61.2493 78.5558 61.5906 77.9042C61.9354 77.2526 62.4215 76.7561 63.049 76.4113C63.6765 76.07 64.3764 75.8976 65.1521 75.8976C66.3485 75.8976 67.3276 76.2838 68.093 77.0629C68.8618 77.8456 69.2411 78.8247 69.2411 80.0176C69.2411 81.2174 68.8549 82.2104 68.0861 82.9999C67.3104 83.7894 66.3381 84.1824 65.1659 84.1824C64.4419 84.1824 63.7523 84.017 63.0904 83.6894C62.4353 83.3619 61.9354 82.8792 61.5906 82.2448C61.2493 81.6105 61.0769 80.8382 61.0769 79.928ZM63.2283 80.0383C63.2283 80.8244 63.4145 81.4277 63.7868 81.8449C64.1592 82.2655 64.6177 82.4724 65.1659 82.4724C65.7106 82.4724 66.1657 82.2655 66.5346 81.8449C66.9035 81.4277 67.0897 80.8209 67.0897 80.0245C67.0897 79.2488 66.9035 78.6523 66.5346 78.2352C66.1657 77.8145 65.7106 77.6042 65.1659 77.6042C64.6177 77.6042 64.1592 77.8145 63.7868 78.2352C63.4145 78.6523 63.2283 79.2522 63.2283 80.0383Z" fill="#1A237E"/>
<path d="M72.8853 83.9825H70.796V76.0631H72.7336V77.1871C73.0681 76.6561 73.368 76.3079 73.6335 76.1424C73.9024 75.9769 74.2023 75.8976 74.5437 75.8976C75.0195 75.8976 75.4814 76.0286 75.9227 76.2907L75.2746 78.1179C74.9195 77.8869 74.5919 77.7732 74.2885 77.7732C73.9955 77.7732 73.7473 77.8559 73.5438 78.0145C73.3404 78.1765 73.1784 78.4662 73.0612 78.8902C72.9439 79.3108 72.8853 80.1969 72.8853 81.5415V83.9825Z" fill="#1A237E"/>
<path d="M80.4427 76.0631V77.7283H79.0084V80.9347C79.0084 81.5863 79.0222 81.9656 79.0498 82.0724C79.0774 82.1793 79.136 82.269 79.236 82.3379C79.3325 82.4069 79.4497 82.4414 79.5911 82.4414C79.7876 82.4414 80.0669 82.3758 80.4358 82.2414L80.6116 83.8687C80.1255 84.079 79.5738 84.1824 78.9602 84.1824C78.5844 84.1824 78.2465 84.1204 77.9431 83.9928C77.6397 83.8652 77.419 83.6998 77.2777 83.4963C77.1363 83.2929 77.0398 83.024 76.9846 82.6758C76.9398 82.431 76.9191 81.938 76.9191 81.1933V77.7283H75.9572V76.0631H76.9191V74.491L79.0084 73.2567V76.0631H80.4427Z" fill="#1A237E"/>
<path d="M363.868 88.5852C388.292 88.5852 408.091 68.7547 408.091 44.2926C408.091 19.8305 388.292 0 363.868 0C339.444 0 319.644 19.8305 319.644 44.2926C319.644 68.7547 339.444 88.5852 363.868 88.5852Z" fill="#1A237E"/>
<path fill-rule="evenodd" clip-rule="evenodd" d="M363.871 18.79C354.879 18.79 347.591 26.0784 347.591 35.0665V40.4932H347.053C343.161 40.4967 340.003 43.6513 339.996 47.5438V51.8879C340.003 55.7803 343.157 58.935 347.05 58.9384H352.476C353.359 58.9039 354.069 58.1971 354.104 57.3111V42.1171C354.069 41.2345 353.359 40.5277 352.476 40.4932H350.846V35.0665C350.846 27.8746 356.676 22.0446 363.868 22.0411C371.059 22.0411 376.893 27.8712 376.893 35.0631V35.0665V40.4932H375.262C374.386 40.5415 373.687 41.2414 373.635 42.1171V57.3111C373.669 58.1971 374.38 58.9074 375.262 58.9384H376.621C376.245 60.0348 375.535 60.9829 374.593 61.6552C372.611 63.0136 370.27 63.7583 367.867 63.7859C366.943 61.5793 364.402 60.5381 362.195 61.4621C359.989 62.3861 358.948 64.9236 359.872 67.1336C360.796 69.3401 363.333 70.3813 365.54 69.4573C366.622 69.0057 367.474 68.1334 367.901 67.0439C371.015 67.0129 374.042 66.0338 376.583 64.241C378.32 62.9446 379.53 61.0622 379.986 58.9384H380.689C384.581 58.935 387.736 55.7803 387.743 51.8879V47.5438C387.736 43.6513 384.581 40.4967 380.689 40.4932H380.151V35.0665C380.151 26.0749 372.863 18.79 363.871 18.79Z" fill="#FEFEFE"/>
</g>
<defs>
<clipPath id="clip0_1_118">
<rect width="408.092" height="288" fill="white"/>
</clipPath>
</defs>
</svg>
