<?xml version="1.0" encoding="UTF-8"?>
<!DOCTYPE svg PUBLIC "-//W3C//DTD SVG 1.1//EN" "http://www.w3.org/Graphics/SVG/1.1/DTD/svg11.dtd">
<!-- Creator: CorelDRAW X8 -->
<svg xmlns="http://www.w3.org/2000/svg" xml:space="preserve" width="4.25096in" height="3in" version="1.1" style="shape-rendering:geometricPrecision; text-rendering:geometricPrecision; image-rendering:optimizeQuality; fill-rule:evenodd; clip-rule:evenodd"
viewBox="0 0 118366 83534"
 xmlns:xlink="http://www.w3.org/1999/xlink">
 <defs>
  <style type="text/css">
   <![CDATA[
    .str0 {stroke:#1A237E;stroke-width:184.433}
    .fil1 {fill:none}
    .fil3 {fill:#FEFEFE}
    .fil0 {fill:#1A237E}
    .fil4 {fill:#FEFEFE;fill-rule:nonzero}
    .fil2 {fill:#1A237E;fill-rule:nonzero}
   ]]>
  </style>
 </defs>
 <g id="Layer_x0020_1">
  <metadata id="CorelCorpID_0Corel-Layer"/>
  <g id="_2490759047120">
   <path class="fil0" d="M103961 12592l-99965 0c-2207,6 -3993,1796 -3996,4003l0 62936c3,2207 1790,3996 3996,4003l99965 0c2207,-7 3993,-1796 3996,-4003l0 -62936c-3,-2207 -1789,-3997 -3996,-4003zm232 63518c-37,2238 -1874,4026 -4112,4003l-92262 0c-2238,23 -4075,-1765 -4112,-4003l0 -56209c37,-2238 1874,-4026 4112,-4003l92320 1c2238,-24 4075,1764 4112,4002l0 56209 -58 0z"/>
   <line class="fil1 str0" x1="6267" y1="27665" x2="97734" y2= "27259" />
   <polygon class="fil2" points="6776,24359 6776,21190 7418,21190 7418,24359 "/>
   <path id="1" class="fil2" d="M7980 22062l557 0 0 314c200,-241 439,-362 715,-362 147,0 275,30 382,90 109,61 197,152 266,275 101,-123 210,-214 327,-275 116,-60 241,-90 374,-90 168,0 310,34 427,102 117,69 204,169 262,302 42,97 62,256 62,475l0 1466 -606 0 0 -1310c0,-228 -21,-375 -63,-441 -56,-86 -143,-130 -259,-130 -85,0 -166,26 -241,78 -74,52 -129,128 -162,228 -33,100 -50,258 -50,474l0 1101 -606 0 0 -1257c0,-222 -11,-367 -33,-431 -21,-65 -54,-114 -100,-145 -45,-32 -107,-48 -184,-48 -94,0 -178,25 -253,76 -75,50 -128,123 -160,218 -33,95 -49,253 -49,473l0 1114 -606 0 0 -2297z"/>
   <path id="2" class="fil2" d="M11942 22062l566 0 0 337c74,-115 173,-208 298,-279 126,-71 265,-106 418,-106 266,0 493,104 678,314 186,209 279,501 279,874 0,384 -93,682 -281,895 -187,214 -414,320 -681,320 -127,0 -242,-25 -346,-76 -102,-50 -211,-137 -325,-259l0 1149 -606 0 0 -3169zm597 1113c0,259 51,450 154,574 101,123 226,185 372,185 141,0 258,-56 352,-170 94,-113 140,-299 140,-558 0,-242 -48,-421 -144,-539 -96,-117 -216,-175 -358,-175 -148,0 -272,57 -369,172 -98,115 -147,286 -147,511z"/>
   <path id="3" class="fil2" d="M14521 23183c0,-202 50,-398 149,-587 100,-189 241,-333 423,-433 182,-99 385,-149 610,-149 347,0 631,112 853,338 223,227 333,511 333,857 0,348 -112,636 -335,865 -225,229 -507,343 -847,343 -210,0 -410,-48 -602,-143 -190,-95 -335,-235 -435,-419 -99,-184 -149,-408 -149,-672zm624 32c0,228 54,403 162,524 108,122 241,182 400,182 157,0 290,-60 397,-182 107,-121 161,-297 161,-528 0,-225 -54,-398 -161,-519 -107,-122 -240,-183 -397,-183 -159,0 -292,61 -400,183 -108,121 -162,295 -162,523z"/>
   <path id="4" class="fil2" d="M17946 24359l-606 0 0 -2297 562 0 0 326c97,-154 184,-255 261,-303 78,-48 165,-71 263,-71 139,0 273,38 401,114l-188 530c-103,-67 -198,-100 -286,-100 -85,0 -157,24 -216,70 -60,47 -106,131 -140,254 -34,122 -51,379 -51,769l0 708z"/>
   <path id="5" class="fil2" d="M20138 22062l0 483 -416 0 0 930c0,189 4,299 12,330 8,31 25,57 54,77 28,20 62,30 103,30 57,0 138,-19 245,-58l51 472c-141,61 -301,91 -479,91 -109,0 -207,-18 -295,-55 -88,-37 -152,-85 -193,-144 -41,-59 -69,-137 -85,-238 -13,-71 -20,-214 -20,-430l0 -1005 -278 0 0 -483 278 0 0 -456 607 -358 0 814 416 0z"/>
   <path id="6" class="fil2" d="M21797 21190l1167 0c263,0 464,20 602,61 185,54 344,152 477,292 132,139 233,310 302,513 69,202 103,453 103,749 0,261 -32,486 -97,674 -79,231 -192,418 -339,560 -110,109 -260,193 -448,253 -141,45 -329,67 -565,67l-1202 0 0 -3169zm642 536l0 2098 476 0c177,0 306,-10 385,-30 104,-26 189,-70 257,-132 69,-62 124,-164 167,-306 43,-141 65,-336 65,-580 0,-245 -22,-433 -65,-564 -43,-131 -103,-233 -181,-307 -77,-73 -175,-123 -295,-149 -88,-20 -263,-30 -523,-30l-286 0z"/>
   <path id="7" class="fil2" d="M25440 22770l-548 -97c61,-224 168,-390 320,-498 151,-108 376,-161 674,-161 271,0 473,31 606,96 132,64 225,145 279,244 54,99 81,279 81,543l-8 708c0,202 9,351 28,447 19,96 56,198 109,307l-602 0c-16,-39 -36,-98 -59,-177 -9,-36 -17,-59 -21,-70 -103,101 -214,177 -332,228 -118,51 -243,77 -377,77 -235,0 -421,-64 -557,-193 -136,-127 -203,-290 -203,-486 0,-129 31,-245 93,-346 62,-101 148,-180 260,-234 111,-53 272,-101 482,-141 284,-53 481,-103 590,-149l0 -61c0,-118 -29,-203 -86,-253 -59,-51 -168,-76 -328,-76 -108,0 -193,22 -253,65 -61,43 -110,119 -148,227zm815 492c-78,26 -201,57 -370,93 -168,36 -279,71 -330,105 -79,57 -119,128 -119,214 0,86 32,159 95,221 64,62 144,93 242,93 109,0 214,-37 314,-108 73,-55 121,-122 144,-201 16,-52 24,-151 24,-296l0 -121z"/>
   <path id="8" class="fil2" d="M28500 22062l0 483 -416 0 0 930c0,189 3,299 11,330 8,31 26,57 55,77 28,20 62,30 102,30 57,0 138,-19 245,-58l51 472c-141,61 -300,91 -478,91 -110,0 -208,-18 -296,-55 -87,-37 -152,-85 -192,-144 -41,-59 -69,-137 -86,-238 -12,-71 -19,-214 -19,-430l0 -1005 -279 0 0 -483 279 0 0 -456 607 -358 0 814 416 0z"/>
   <path id="9" class="fil2" d="M29376 22770l-549 -97c62,-224 169,-390 320,-498 151,-108 376,-161 674,-161 271,0 473,31 606,96 132,64 226,145 280,244 54,99 81,279 81,543l-9 708c0,202 10,351 29,447 19,96 55,198 108,307l-602 0c-15,-39 -35,-98 -58,-177 -10,-36 -17,-59 -21,-70 -104,101 -214,177 -332,228 -118,51 -244,77 -377,77 -236,0 -422,-64 -557,-193 -136,-127 -204,-290 -204,-486 0,-129 31,-245 93,-346 62,-101 148,-180 260,-234 112,-53 273,-101 483,-141 283,-53 480,-103 589,-149l0 -61c0,-118 -28,-203 -86,-253 -58,-51 -167,-76 -328,-76 -108,0 -192,22 -253,65 -61,43 -109,119 -147,227zm814 492c-77,26 -200,57 -369,93 -168,36 -279,71 -331,105 -79,57 -118,128 -118,214 0,86 31,159 95,221 63,62 144,93 242,93 109,0 214,-37 313,-108 73,-55 122,-122 145,-201 15,-52 23,-151 23,-296l0 -121z"/>
   <g>
    <path class="fil3" d="M11543 32017l23024 0c499,0 903,362 903,810l0 15236c0,447 -404,810 -903,810l-23024 0c-499,0 -903,-363 -903,-810l0 -15236c0,-448 404,-810 903,-810z"/>
    <path id="1" class="fil2" d="M34567 32201l-23024 0 0 -369 23024 0 0 0 0 369zm1088 626l-370 0 0 0 -1 -32 -3 -31 -4 -30 -6 -30 -8 -29 -9 -29 -10 -28 -13 -28 -13 -28 -16 -26 -16 -26 -18 -25 -20 -25 -21 -24 -22 -23 -23 -22 -25 -21 -26 -20 -27 -19 -28 -18 -30 -17 -30 -16 -31 -14 -33 -13 -33 -12 -33 -10 -35 -9 -36 -7 -36 -6 -37 -4 -37 -3 -38 -1 0 -369 55 2 54 3 53 6 53 9 52 11 51 12 50 16 49 17 48 19 46 22 46 23 44 25 43 28 41 29 39 30 38 33 37 34 34 36 33 37 31 39 29 40 26 42 25 44 22 44 21 46 17 47 15 47 13 49 10 51 7 50 4 51 2 53 0 0zm-370 15236l0 -15236 370 0 0 15236 0 0 -370 0zm-718 994l0 -369 0 0 38 0 37 -3 37 -4 36 -6 36 -7 35 -9 34 -11 32 -11 33 -13 31 -15 30 -15 30 -17 28 -18 27 -19 26 -21 25 -21 23 -22 22 -23 21 -23 20 -25 18 -26 16 -25 16 -27 13 -27 13 -28 10 -29 9 -29 8 -29 6 -29 4 -31 3 -31 1 -31 370 0 -2 52 -4 51 -7 51 -10 50 -13 49 -15 48 -17 47 -21 46 -22 44 -25 43 -27 42 -28 40 -31 39 -33 37 -34 36 -37 35 -38 32 -39 31 -41 29 -43 27 -44 25 -45 24 -47 21 -48 19 -49 18 -50 15 -51 13 -52 11 -52 8 -54 6 -54 4 -55 1 0 0zm-23024 -369l23024 0 0 369 -23024 0 0 0 0 -369zm-1088 -625l370 0 0 0 1 31 3 31 4 31 6 29 8 29 9 29 11 29 12 28 14 27 15 27 16 25 18 26 20 25 21 23 22 23 23 22 25 21 26 21 27 19 29 18 29 17 30 15 32 15 32 13 32 11 34 11 35 9 36 7 36 6 37 4 37 3 38 0 0 369 -55 -1 -54 -4 -54 -6 -52 -8 -52 -11 -51 -13 -50 -15 -49 -18 -48 -19 -47 -21 -45 -24 -44 -25 -42 -27 -42 -29 -39 -31 -38 -32 -37 -35 -34 -36 -33 -37 -30 -39 -29 -40 -27 -42 -25 -43 -22 -44 -20 -46 -18 -47 -15 -48 -13 -49 -10 -50 -7 -51 -4 -51 -2 -52 0 0zm370 -15236l0 15236 -370 0 0 -15236 0 0 370 0zm718 -995l0 369 0 0 -38 1 -37 3 -37 4 -36 6 -36 7 -35 9 -33 10 -33 12 -33 13 -31 14 -30 16 -29 17 -29 18 -27 19 -26 20 -24 21 -24 22 -22 23 -21 24 -19 24 -19 26 -16 26 -16 27 -13 27 -12 27 -11 29 -9 29 -8 29 -6 30 -4 30 -3 31 -1 32 -370 0 2 -53 4 -51 7 -50 10 -51 13 -49 15 -47 18 -47 20 -46 22 -45 25 -43 27 -42 28 -40 31 -39 33 -37 34 -36 37 -34 38 -33 39 -30 42 -29 42 -28 44 -25 46 -23 46 -22 48 -19 49 -17 50 -16 51 -12 52 -11 52 -9 54 -6 54 -3 55 -2 0 0z"/>
   </g>
   <ellipse class="fil0" cx="105539" cy="12847" rx="12827" ry="12847"/>
   <polygon class="fil4" points="104325,17706 104325,14091 100671,14091 100671,11603 104325,11603 104325,7988 106754,7988 106754,11603 110408,11603 110408,14091 106754,14091 106754,17706 "/>
   <path class="fil0" d="M40489 53225l23023 0c499,0 903,362 903,810l0 15236c0,447 -404,810 -903,810l-23023 0c-499,0 -903,-363 -903,-810l0 -15236c0,-448 404,-810 903,-810z"/>
   <path class="fil2" d="M15537 41745l1013 -2641 384 0 1075 2641 -398 0 -305 -800 -1112 0 -287 800 -370 0zm759 -1084l900 0 -275 -733c-83,-222 -146,-406 -189,-551 -37,172 -85,341 -146,508l-290 776z"/>
   <path id="1" class="fil2" d="M19496 41044l317 44c-35,219 -123,389 -266,512 -144,124 -320,186 -529,186 -261,0 -471,-86 -630,-257 -159,-171 -238,-415 -238,-734 0,-206 34,-386 103,-541 68,-155 172,-271 312,-348 139,-77 291,-116 456,-116 207,0 377,52 509,157 132,106 217,255 254,448l-314 48c-30,-129 -83,-225 -160,-290 -76,-65 -168,-97 -276,-97 -164,0 -296,58 -399,175 -102,117 -153,302 -153,555 0,257 49,443 147,559 99,117 228,175 386,175 128,0 234,-39 319,-117 85,-77 139,-197 162,-359z"/>
   <path id="2" class="fil2" d="M21340 41044l318 44c-36,219 -124,389 -267,512 -143,124 -320,186 -528,186 -262,0 -472,-86 -630,-257 -160,-171 -239,-415 -239,-734 0,-206 34,-386 103,-541 68,-155 172,-271 312,-348 140,-77 291,-116 456,-116 207,0 378,52 509,157 132,106 217,255 254,448l-313 48c-31,-129 -83,-225 -160,-290 -76,-65 -169,-97 -277,-97 -163,0 -296,58 -399,175 -102,117 -153,302 -153,555 0,257 49,443 148,559 99,117 227,175 385,175 128,0 234,-39 319,-117 86,-77 140,-197 162,-359z"/>
   <path id="3" class="fil2" d="M21812 40788c0,-354 99,-616 296,-786 164,-141 365,-212 602,-212 262,0 478,86 645,258 167,172 250,410 250,713 0,246 -37,439 -111,579 -73,141 -181,251 -322,329 -141,78 -295,117 -462,117 -268,0 -484,-86 -650,-257 -165,-172 -248,-419 -248,-741zm332 0c0,245 54,428 161,549 108,122 242,183 405,183 161,0 295,-61 403,-183 107,-123 160,-309 160,-559 0,-236 -54,-415 -162,-536 -107,-122 -241,-183 -401,-183 -163,0 -297,61 -405,182 -107,121 -161,303 -161,547z"/>
   <path id="4" class="fil2" d="M25236 41745l0 -285c-149,217 -351,326 -606,326 -112,0 -217,-22 -315,-65 -98,-44 -170,-98 -218,-163 -47,-66 -80,-146 -99,-240 -13,-64 -20,-165 -20,-303l0 -1184 325 0 0 1059c0,169 6,283 19,342 21,85 64,152 130,200 66,49 147,73 244,73 97,0 188,-24 273,-74 85,-50 145,-118 181,-204 35,-85 53,-210 53,-373l0 -1023 324 0 0 1914 -291 0z"/>
   <path id="5" class="fil2" d="M26037 41745l0 -1914 291 0 0 271c140,-208 343,-312 608,-312 116,0 221,21 318,62 96,41 169,96 217,163 48,67 82,147 101,239 12,60 18,166 18,316l0 1175 -325 0 0 -1163c0,-132 -12,-231 -37,-296 -26,-66 -71,-118 -135,-157 -63,-39 -139,-59 -225,-59 -138,0 -256,44 -357,132 -100,87 -150,254 -150,498l0 1045 -324 0z"/>
   <path id="6" class="fil2" d="M28793 41455l44 287c-91,19 -173,29 -244,29 -118,0 -209,-19 -274,-56 -64,-38 -110,-86 -136,-147 -27,-61 -39,-189 -39,-384l0 -1103 -240 0 0 -250 240 0 0 -474 324 -195 0 669 325 0 0 250 -325 0 0 1122c0,93 6,152 17,179 11,26 30,47 56,63 25,15 62,23 110,23 36,0 83,-4 142,-13z"/>
   <path id="7" class="fil2" d="M28984 41173l321 -51c17,128 68,226 150,295 83,69 198,103 346,103 149,0 260,-30 332,-91 72,-60 109,-132 109,-213 0,-73 -33,-131 -98,-173 -45,-29 -156,-65 -332,-110 -237,-60 -401,-111 -493,-155 -92,-44 -161,-105 -209,-182 -47,-77 -71,-162 -71,-256 0,-85 20,-164 58,-236 40,-73 93,-133 160,-181 50,-37 119,-68 206,-94 87,-26 180,-39 279,-39 150,0 282,22 395,65 114,43 197,102 252,176 53,74 90,173 111,298l-317 44c-15,-100 -56,-178 -125,-234 -69,-56 -166,-83 -292,-83 -148,0 -255,24 -318,73 -63,50 -95,107 -95,173 0,42 13,80 39,114 26,34 68,63 124,86 33,12 127,40 286,83 229,61 388,111 480,150 91,39 162,96 213,170 53,74 78,166 78,277 0,107 -31,209 -94,304 -64,95 -154,169 -273,221 -119,53 -254,79 -404,79 -248,0 -438,-52 -569,-155 -130,-103 -213,-256 -249,-458z"/>
   <g>
    <path class="fil3" d="M40489 32017l23023 0c499,0 903,362 903,810l0 15236c0,447 -404,810 -903,810l-23023 0c-499,0 -903,-363 -903,-810l0 -15236c0,-448 404,-810 903,-810z"/>
    <path id="1" class="fil2" d="M63512 32201l-23023 0 0 -369 23023 0 0 0 0 369zm1088 626l-370 0 0 0 -1 -32 -2 -31 -5 -30 -5 -30 -8 -29 -9 -29 -11 -28 -12 -28 -14 -28 -15 -26 -17 -26 -18 -25 -19 -25 -21 -24 -22 -23 -24 -22 -24 -21 -27 -20 -27 -19 -28 -18 -29 -17 -30 -16 -32 -14 -32 -13 -33 -12 -34 -10 -35 -9 -35 -7 -36 -6 -37 -4 -37 -3 -39 -1 0 -369 55 2 55 3 53 6 53 9 52 11 51 12 50 16 49 17 48 19 46 22 45 23 45 25 42 28 41 29 40 30 38 33 36 34 35 36 32 37 31 39 29 40 27 42 25 44 22 44 20 46 18 47 15 47 13 49 10 51 7 50 4 51 1 53 0 0zm-370 15236l0 -15236 370 0 0 15236 0 0 -370 0zm-718 994l0 -369 0 0 39 0 37 -3 37 -4 36 -6 35 -7 35 -9 34 -11 33 -11 32 -13 32 -15 30 -15 29 -17 28 -18 27 -19 27 -21 24 -21 24 -22 22 -23 21 -23 19 -25 18 -26 17 -25 15 -27 14 -27 12 -28 11 -29 9 -29 8 -29 5 -29 5 -31 2 -31 1 -31 370 0 -1 52 -4 51 -7 51 -10 50 -13 49 -15 48 -18 47 -20 46 -22 44 -25 43 -27 42 -29 40 -31 39 -32 37 -35 36 -36 35 -38 32 -40 31 -41 29 -42 27 -45 25 -45 24 -46 21 -48 19 -49 18 -50 15 -51 13 -52 11 -53 8 -53 6 -55 4 -55 1 0 0zm-23023 -369l23023 0 0 369 -23023 0 0 0 0 -369zm-1088 -625l370 0 0 0 1 31 2 31 5 31 6 29 7 29 9 29 11 29 12 28 14 27 15 27 17 25 18 26 20 25 21 23 22 23 23 22 25 21 26 21 27 19 28 18 29 17 31 15 31 15 32 13 33 11 34 11 35 9 35 7 37 6 36 4 38 3 38 0 0 369 -55 -1 -54 -4 -54 -6 -53 -8 -52 -11 -51 -13 -50 -15 -49 -18 -48 -19 -46 -21 -45 -24 -44 -25 -43 -27 -41 -29 -40 -31 -38 -32 -36 -35 -35 -36 -32 -37 -31 -39 -29 -40 -27 -42 -24 -43 -23 -44 -20 -46 -18 -47 -15 -48 -12 -49 -10 -50 -7 -51 -5 -51 -1 -52 0 0zm370 -15236l0 15236 -370 0 0 -15236 0 0 370 0zm718 -995l0 369 0 0 -38 1 -38 3 -37 4 -36 6 -35 7 -35 9 -34 10 -33 12 -32 13 -32 14 -30 16 -29 17 -28 18 -27 19 -26 20 -25 21 -23 22 -23 23 -20 24 -20 24 -18 26 -17 26 -15 27 -14 27 -12 27 -11 29 -9 29 -7 29 -6 30 -5 30 -2 31 -1 32 -370 0 1 -53 5 -51 7 -50 10 -51 12 -49 15 -47 18 -47 20 -46 23 -45 24 -43 27 -42 29 -40 31 -39 33 -37 34 -36 36 -34 38 -33 40 -30 41 -29 43 -28 44 -25 45 -23 47 -22 47 -19 49 -17 50 -16 51 -12 52 -11 53 -9 54 -6 54 -3 55 -2 0 0z"/>
   </g>
   <path class="fil2" d="M47445 40384l0 -310 1117 0 0 979c-171,136 -348,240 -531,308 -182,69 -370,104 -562,104 -259,0 -494,-56 -707,-167 -211,-111 -371,-272 -479,-481 -108,-211 -162,-445 -162,-704 0,-257 53,-497 161,-720 107,-223 262,-388 463,-495 202,-109 434,-163 697,-163 191,0 364,31 518,93 154,62 275,148 363,258 88,111 154,255 200,433l-316 86c-40,-134 -89,-240 -147,-317 -59,-77 -143,-138 -252,-184 -109,-47 -230,-70 -364,-70 -159,0 -297,25 -413,73 -117,49 -210,113 -282,193 -71,79 -127,166 -166,261 -67,164 -101,341 -101,532 0,236 41,434 121,593 81,158 199,276 354,353 155,77 319,116 493,116 151,0 299,-30 442,-88 144,-59 253,-121 327,-188l0 -495 -774 0z"/>
   <path id="1" class="fil2" d="M49034 41420l0 -1914 291 0 0 293c75,-136 144,-225 207,-268 63,-44 133,-65 208,-65 110,0 221,34 334,102l-115 300c-79,-45 -158,-67 -237,-67 -70,0 -134,22 -190,64 -55,43 -95,102 -119,177 -37,115 -54,241 -54,378l0 1000 -325 0z"/>
   <path id="2" class="fil2" d="M50144 40463c0,-353 99,-615 296,-785 164,-142 365,-212 602,-212 262,0 477,86 645,258 166,171 250,409 250,712 0,246 -37,439 -111,580 -74,141 -181,250 -323,328 -140,78 -295,117 -461,117 -268,0 -485,-85 -650,-257 -165,-171 -248,-419 -248,-741zm332 1c0,245 54,428 161,549 107,122 242,182 405,182 161,0 295,-60 402,-183 107,-122 161,-308 161,-559 0,-236 -54,-414 -162,-536 -107,-121 -241,-182 -401,-182 -163,0 -298,60 -405,181 -107,121 -161,304 -161,548z"/>
   <path id="3" class="fil2" d="M53568 41420l0 -284c-149,217 -351,325 -606,325 -112,0 -217,-22 -315,-65 -98,-43 -171,-97 -218,-162 -47,-66 -80,-146 -99,-241 -13,-64 -20,-165 -20,-302l0 -1185 324 0 0 1059c0,169 7,284 20,342 20,86 63,152 130,200 66,49 147,74 244,74 97,0 188,-25 273,-75 85,-50 145,-118 181,-203 35,-86 52,-210 52,-373l0 -1024 325 0 0 1914 -291 0z"/>
   <path id="4" class="fil2" d="M54368 42154l0 -2648 296 0 0 252c69,-98 148,-171 236,-219 87,-49 193,-73 318,-73 164,0 307,41 432,126 125,83 219,202 283,354 63,153 95,321 95,503 0,195 -35,371 -105,528 -70,156 -172,276 -306,359 -133,83 -274,125 -422,125 -108,0 -205,-23 -290,-68 -87,-46 -157,-103 -212,-172l0 933 -325 0zm296 -1679c0,245 49,427 148,544 100,117 220,176 362,176 144,0 267,-60 369,-182 102,-122 153,-310 153,-565 0,-244 -49,-425 -150,-547 -100,-121 -219,-181 -358,-181 -138,0 -259,65 -365,193 -107,129 -159,316 -159,562z"/>
   <path id="5" class="fil2" d="M56291 40849l321 -52c17,129 68,227 150,296 83,68 198,102 346,102 149,0 260,-30 332,-91 72,-60 108,-131 108,-213 0,-73 -32,-131 -97,-173 -45,-29 -156,-65 -332,-110 -237,-59 -401,-111 -493,-155 -92,-44 -161,-104 -209,-182 -47,-76 -71,-162 -71,-255 0,-86 20,-164 58,-237 40,-73 93,-133 160,-181 50,-37 119,-68 206,-94 87,-26 180,-38 279,-38 150,0 282,21 395,65 114,43 197,102 251,175 54,75 91,174 112,298l-317 44c-15,-99 -56,-177 -125,-233 -69,-56 -166,-84 -292,-84 -148,0 -255,25 -318,74 -63,49 -95,107 -95,173 0,41 13,80 39,113 26,35 68,64 124,86 33,13 127,40 286,83 229,61 388,112 480,150 91,39 162,96 213,170 53,74 78,167 78,277 0,108 -31,209 -94,305 -64,95 -154,169 -273,221 -119,52 -254,78 -404,78 -248,0 -438,-52 -569,-154 -130,-104 -213,-256 -249,-458z"/>
   <g>
    <path class="fil3" d="M69434 32017l23024 0c499,0 903,362 903,810l0 15236c0,447 -404,810 -903,810l-23024 0c-498,0 -903,-363 -903,-810l0 -15236c0,-448 404,-810 903,-810z"/>
    <path id="1" class="fil2" d="M92458 32201l-23024 0 0 -369 23024 0 0 0 0 369zm1088 626l-370 0 0 0 -1 -32 -3 -31 -4 -30 -6 -30 -7 -29 -10 -29 -10 -28 -13 -28 -13 -28 -16 -26 -16 -26 -18 -25 -20 -25 -21 -24 -22 -23 -23 -22 -25 -21 -26 -20 -27 -19 -28 -18 -30 -17 -30 -16 -31 -14 -32 -13 -33 -12 -34 -10 -35 -9 -36 -7 -36 -6 -36 -4 -38 -3 -38 -1 0 -369 55 2 54 3 54 6 53 9 51 11 51 12 51 16 49 17 47 19 47 22 45 23 44 25 43 28 41 29 39 30 38 33 37 34 34 36 33 37 31 39 29 40 27 42 24 44 22 44 21 46 17 47 15 47 13 49 10 51 7 50 5 51 1 53 0 0zm-370 15236l0 -15236 370 0 0 15236 0 0 -370 0zm-718 994l0 -369 0 0 38 0 38 -3 36 -4 36 -6 36 -7 35 -9 34 -11 33 -11 32 -13 31 -15 30 -15 30 -17 28 -18 27 -19 26 -21 25 -21 23 -22 22 -23 21 -23 20 -25 18 -26 17 -25 15 -27 13 -27 13 -28 10 -29 10 -29 7 -29 6 -29 4 -31 3 -31 1 -31 370 0 -1 52 -5 51 -7 51 -10 50 -13 49 -15 48 -17 47 -21 46 -22 44 -24 43 -27 42 -29 40 -31 39 -33 37 -34 36 -37 35 -38 32 -39 31 -41 29 -43 27 -44 25 -45 24 -47 21 -47 19 -50 18 -50 15 -51 13 -51 11 -53 8 -54 6 -54 4 -55 1 0 0zm-23024 -369l23024 0 0 369 -23024 0 0 0 0 -369zm-1088 -625l370 0 0 0 1 31 3 31 4 31 6 29 8 29 9 29 11 29 12 28 14 27 15 27 16 25 19 26 19 25 21 23 22 23 24 22 24 21 26 21 27 19 29 18 29 17 30 15 32 15 32 13 33 11 34 11 34 9 36 7 36 6 37 4 37 3 38 0 0 369 -54 -1 -55 -4 -53 -6 -53 -8 -52 -11 -51 -13 -50 -15 -49 -18 -48 -19 -46 -21 -46 -24 -44 -25 -42 -27 -41 -29 -40 -31 -38 -32 -36 -35 -35 -36 -33 -37 -30 -39 -29 -40 -27 -42 -25 -43 -22 -44 -20 -46 -18 -47 -15 -48 -13 -49 -10 -50 -7 -51 -4 -51 -2 -52 0 0zm370 -15236l0 15236 -370 0 0 -15236 0 0 370 0zm718 -995l0 369 0 0 -38 1 -37 3 -37 4 -36 6 -36 7 -34 9 -34 10 -33 12 -33 13 -31 14 -30 16 -29 17 -29 18 -27 19 -26 20 -24 21 -24 22 -22 23 -21 24 -19 24 -19 26 -16 26 -16 27 -13 27 -12 27 -11 29 -9 29 -8 29 -6 30 -4 30 -3 31 -1 32 -370 0 2 -53 4 -51 7 -50 10 -51 13 -49 15 -47 18 -47 20 -46 22 -45 25 -43 27 -42 29 -40 30 -39 33 -37 35 -36 36 -34 38 -33 39 -30 42 -29 42 -28 44 -25 46 -23 46 -22 48 -19 49 -17 50 -16 51 -12 52 -11 53 -9 53 -6 54 -3 55 -2 0 0z"/>
   </g>
   <polygon class="fil2" points="78327,39685 78327,37354 77457,37354 77457,37044 79548,37044 79548,37354 78678,37354 78678,39685 "/>
   <path id="1" class="fil2" d="M79728 39685l0 -1915 291 0 0 294c74,-136 143,-226 207,-269 63,-44 133,-65 208,-65 109,0 221,34 334,103l-116 299c-78,-44 -157,-67 -236,-67 -70,0 -134,22 -190,64 -56,43 -96,102 -120,177 -36,115 -54,241 -54,379l0 1000 -324 0z"/>
   <path id="2" class="fil2" d="M80960 37413l0 -369 324 0 0 369 -324 0zm0 2272l0 -1915 324 0 0 1915 -324 0z"/>
   <path id="3" class="fil2" d="M83030 39445c-121,103 -237,175 -348,217 -112,42 -231,63 -359,63 -210,0 -372,-51 -485,-153 -113,-102 -169,-233 -169,-393 0,-93 21,-178 63,-256 44,-77 99,-139 168,-186 70,-46 147,-82 234,-106 64,-16 160,-32 289,-48 262,-31 455,-69 579,-112 1,-44 2,-72 2,-84 0,-132 -31,-224 -92,-278 -83,-74 -207,-110 -371,-110 -153,0 -266,27 -338,81 -73,53 -127,148 -162,284l-317 -44c29,-136 76,-246 142,-329 67,-84 163,-148 288,-194 125,-44 271,-67 435,-67 164,0 297,19 400,58 102,38 178,86 226,145 48,58 81,132 101,221 10,55 16,155 16,298l0 430c0,301 7,491 20,572 13,80 40,157 80,231l-340 0c-32,-69 -53,-148 -62,-240zm-26 -719c-118,48 -295,88 -531,121 -134,19 -229,41 -284,65 -56,24 -98,59 -128,105 -30,46 -46,97 -46,153 0,86 33,158 99,215 65,57 161,86 287,86 125,0 236,-27 334,-82 97,-54 169,-128 215,-223 35,-73 52,-180 52,-322l2 -118z"/>
   <polygon id="4" class="fil2" points="83823,39685 83823,37044 84148,37044 84148,39685 "/>
   <path id="5" class="fil2" d="M74494 43805l0 -2641 991 0c202,0 363,27 485,80 122,54 218,136 286,247 70,111 104,227 104,349 0,112 -30,219 -91,318 -61,100 -153,181 -277,242 160,47 283,127 368,240 86,112 129,246 129,399 0,125 -26,239 -78,346 -53,106 -117,188 -194,246 -77,57 -173,100 -289,130 -116,30 -258,44 -427,44l-1007 0zm350 -1530l571 0c155,0 267,-11 334,-31 89,-27 156,-71 201,-132 45,-62 67,-139 67,-231 0,-88 -21,-166 -63,-232 -42,-67 -102,-113 -180,-138 -78,-25 -212,-37 -402,-37l-528 0 0 801zm0 1221l658 0c113,0 192,-5 239,-13 80,-15 147,-39 201,-72 54,-34 99,-83 134,-148 35,-64 52,-139 52,-223 0,-99 -25,-184 -76,-258 -51,-73 -121,-124 -211,-153 -89,-30 -218,-45 -386,-45l-611 0 0 912z"/>
   <path id="6" class="fil2" d="M78179 43566c-121,102 -237,174 -348,217 -112,42 -231,63 -359,63 -210,0 -372,-51 -485,-154 -113,-102 -169,-233 -169,-392 0,-93 21,-179 63,-256 44,-78 99,-139 168,-186 70,-47 147,-82 234,-106 64,-17 160,-33 289,-49 262,-31 455,-68 579,-111 1,-44 2,-73 2,-84 0,-132 -31,-225 -92,-279 -83,-73 -207,-109 -370,-109 -154,0 -267,27 -339,80 -73,54 -127,148 -162,285l-317 -44c29,-136 76,-246 143,-330 66,-84 162,-147 287,-193 125,-45 271,-68 435,-68 164,0 297,19 400,58 102,39 178,87 226,145 48,59 81,132 101,222 10,55 16,154 16,298l0 430c0,301 7,491 20,571 13,81 40,157 80,231l-340 0c-32,-68 -53,-148 -62,-239zm-26 -720c-118,48 -295,89 -531,122 -134,19 -229,41 -284,65 -56,24 -98,59 -128,104 -30,46 -46,97 -46,154 0,85 33,157 99,214 65,58 161,86 287,86 125,0 236,-27 334,-81 97,-55 169,-129 215,-223 35,-73 52,-181 52,-323l2 -118z"/>
   <polygon id="7" class="fil2" points="78972,43805 78972,41164 79297,41164 79297,43805 "/>
   <path id="8" class="fil2" d="M81050 43566c-121,102 -237,174 -348,217 -112,42 -231,63 -359,63 -210,0 -372,-51 -485,-154 -113,-102 -170,-233 -170,-392 0,-93 22,-179 64,-256 43,-78 99,-139 168,-186 70,-47 147,-82 234,-106 64,-17 160,-33 289,-49 262,-31 455,-68 579,-111 1,-44 2,-73 2,-84 0,-132 -31,-225 -93,-279 -83,-73 -206,-109 -370,-109 -153,0 -266,27 -338,80 -73,54 -127,148 -162,285l-317 -44c29,-136 76,-246 142,-330 67,-84 163,-147 288,-193 125,-45 271,-68 435,-68 164,0 297,19 400,58 102,39 178,87 225,145 48,59 82,132 102,222 10,55 16,154 16,298l0 430c0,301 7,491 20,571 13,81 40,157 80,231l-340 0c-32,-68 -53,-148 -62,-239zm-26 -720c-118,48 -295,89 -531,122 -134,19 -229,41 -285,65 -55,24 -97,59 -127,104 -31,46 -46,97 -46,154 0,85 33,157 99,214 65,58 161,86 287,86 125,0 236,-27 334,-81 97,-55 169,-129 215,-223 35,-73 52,-181 52,-323l2 -118z"/>
   <path id="9" class="fil2" d="M81850 43805l0 -1914 292 0 0 272c140,-209 343,-313 608,-313 115,0 221,21 318,63 96,41 169,95 217,162 48,67 81,147 100,240 12,60 18,165 18,315l0 1175 -324 0 0 -1163c0,-132 -13,-231 -38,-296 -25,-65 -70,-117 -134,-157 -64,-39 -139,-58 -225,-58 -138,0 -257,43 -357,131 -100,88 -150,254 -150,499l0 1044 -325 0z"/>
   <path id="10" class="fil2" d="M85152 43104l317 45c-35,218 -123,388 -266,512 -144,123 -320,185 -528,185 -262,0 -472,-86 -631,-257 -159,-170 -238,-415 -238,-733 0,-207 34,-387 103,-542 68,-154 172,-271 312,-347 139,-78 291,-117 456,-117 207,0 377,53 509,158 132,105 217,254 254,447l-314 48c-30,-128 -83,-225 -159,-290 -77,-64 -169,-97 -277,-97 -164,0 -296,58 -399,175 -102,118 -153,302 -153,555 0,257 49,444 147,560 99,116 228,174 386,174 128,0 234,-38 319,-116 85,-78 139,-198 162,-360z"/>
   <path id="11" class="fil2" d="M87052 43186l335 44c-52,195 -150,347 -292,454 -143,108 -325,162 -547,162 -279,0 -500,-86 -664,-258 -163,-172 -245,-413 -245,-724 0,-321 82,-570 248,-747 165,-178 380,-267 643,-267 256,0 464,87 626,261 161,174 242,419 242,734 0,19 0,48 -1,86l-1426 0c12,210 71,371 178,482 107,111 240,167 399,167 119,0 220,-31 304,-94 84,-62 151,-163 200,-300zm-1063 -520l1066 0c-14,-161 -55,-282 -122,-363 -103,-124 -237,-187 -401,-187 -148,0 -273,50 -375,149 -101,100 -156,233 -168,401z"/>
   <g>
    <path class="fil3" d="M11543 53225l23024 0c499,0 903,362 903,810l0 15236c0,447 -404,810 -903,810l-23024 0c-499,0 -903,-363 -903,-810l0 -15236c0,-448 404,-810 903,-810z"/>
    <path id="1" class="fil2" d="M34567 53409l-23024 0 0 -369 23024 0 0 0 0 369zm1088 626l-370 0 0 0 -1 -32 -3 -30 -4 -31 -6 -29 -8 -30 -9 -29 -10 -28 -13 -28 -13 -27 -16 -27 -16 -26 -18 -25 -20 -25 -21 -24 -22 -23 -23 -22 -25 -21 -26 -20 -27 -19 -28 -18 -30 -17 -30 -16 -31 -14 -33 -13 -33 -12 -33 -10 -35 -9 -36 -7 -36 -6 -37 -4 -37 -3 -38 -1 0 -369 55 2 54 3 53 6 53 9 52 11 51 13 50 15 49 17 48 19 46 22 46 23 44 26 43 27 41 29 39 30 38 33 37 34 34 36 33 37 31 39 29 41 26 42 25 43 22 44 21 46 17 47 15 48 13 49 10 50 7 50 4 52 2 52 0 0zm-370 15236l0 -15236 370 0 0 15236 0 0 -370 0zm-718 994l0 -368 0 0 38 -1 37 -3 37 -4 36 -6 36 -7 35 -9 34 -10 32 -12 33 -13 31 -15 30 -15 30 -17 28 -18 27 -19 26 -20 25 -22 23 -22 22 -22 21 -24 20 -25 18 -25 16 -26 16 -27 13 -27 13 -28 10 -28 9 -29 8 -30 6 -29 4 -31 3 -31 1 -31 370 0 -2 52 -4 51 -7 51 -10 50 -13 49 -15 48 -17 47 -21 46 -22 44 -25 43 -27 42 -28 41 -31 38 -33 38 -34 36 -37 34 -38 32 -39 31 -41 29 -43 27 -44 26 -45 23 -47 21 -48 20 -49 17 -50 15 -51 13 -52 11 -52 8 -54 6 -54 4 -55 1 0 0zm-23024 -368l23024 0 0 368 -23024 0 0 0 0 -368zm-1088 -626l370 0 0 0 1 31 3 31 4 31 6 29 8 30 9 29 11 28 12 28 14 27 15 27 16 26 18 25 20 25 21 24 22 22 23 22 25 22 26 20 27 19 29 18 29 17 30 15 32 15 32 13 32 12 34 10 35 9 36 7 36 6 37 4 37 3 38 1 0 368 -55 -1 -54 -4 -54 -6 -52 -8 -52 -11 -51 -13 -50 -15 -49 -17 -48 -20 -47 -21 -45 -23 -44 -26 -42 -27 -42 -29 -39 -31 -38 -32 -37 -34 -34 -36 -33 -38 -30 -38 -29 -41 -27 -42 -25 -43 -22 -44 -20 -46 -18 -47 -15 -48 -13 -49 -10 -50 -7 -51 -4 -51 -2 -52 0 0zm370 -15236l0 15236 -370 0 0 -15236 0 0 370 0zm718 -995l0 369 0 0 -38 1 -37 3 -37 4 -36 6 -36 7 -35 9 -33 10 -33 12 -33 13 -31 14 -30 16 -29 17 -29 18 -27 19 -26 20 -24 21 -24 22 -22 23 -21 24 -19 25 -19 25 -16 26 -16 27 -13 27 -12 28 -11 28 -9 29 -8 30 -6 29 -4 31 -3 30 -1 32 -370 0 2 -52 4 -52 7 -50 10 -50 13 -49 15 -48 18 -47 20 -46 22 -44 25 -44 27 -41 28 -41 31 -39 33 -37 34 -36 37 -34 38 -32 39 -31 42 -29 42 -27 44 -26 46 -23 46 -22 48 -19 49 -17 50 -15 51 -13 52 -11 52 -9 54 -6 54 -3 55 -2 0 0z"/>
   </g>
   <polygon class="fil2" points="17531,62953 17531,60312 19438,60312 19438,60622 17881,60622 17881,61433 19338,61433 19338,61743 17881,61743 17881,62643 19501,62643 19501,62953 "/>
   <path id="1" class="fil2" d="M19943 62953l0 -1914 292 0 0 272c140,-209 343,-313 608,-313 115,0 221,21 317,62 97,41 170,96 218,163 47,67 81,147 100,239 12,61 18,166 18,316l0 1175 -324 0 0 -1163c0,-132 -13,-231 -38,-296 -25,-66 -70,-118 -134,-157 -64,-39 -139,-58 -226,-58 -137,0 -256,43 -356,131 -100,87 -150,254 -150,499l0 1044 -325 0z"/>
   <path id="2" class="fil2" d="M22699 62664l44 286c-91,19 -172,29 -244,29 -117,0 -208,-18 -273,-56 -65,-38 -110,-86 -137,-147 -26,-61 -39,-189 -39,-384l0 -1102 -240 0 0 -251 240 0 0 -474 325 -194 0 668 324 0 0 251 -324 0 0 1121c0,93 5,152 17,179 11,26 29,47 55,63 26,16 63,23 111,23 35,0 83,-4 141,-12z"/>
   <path id="3" class="fil2" d="M23016 62953l0 -1914 291 0 0 293c74,-136 143,-226 207,-269 63,-43 132,-65 208,-65 109,0 221,35 334,103l-116 299c-78,-44 -157,-66 -236,-66 -71,0 -134,21 -190,64 -56,42 -96,101 -120,177 -36,115 -54,241 -54,378l0 1000 -324 0z"/>
   <path id="4" class="fil2" d="M24248 60681l0 -369 324 0 0 369 -324 0zm0 2272l0 -1914 324 0 0 1914 -324 0z"/>
   <path id="5" class="fil2" d="M26373 62333l335 45c-52,195 -150,346 -292,454 -143,108 -325,162 -547,162 -279,0 -500,-86 -664,-258 -163,-172 -245,-414 -245,-724 0,-321 83,-571 248,-748 165,-177 380,-266 643,-266 256,0 464,87 626,261 161,174 243,419 243,734 0,19 -1,48 -2,86l-1426 0c12,210 71,371 178,482 107,111 240,167 399,167 119,0 220,-31 304,-94 84,-63 151,-163 200,-301zm-1062 -520l1065 0c-14,-161 -55,-281 -122,-362 -103,-125 -237,-187 -401,-187 -148,0 -273,50 -375,149 -100,100 -156,233 -167,400z"/>
   <path id="6" class="fil2" d="M26989 62381l321 -51c18,128 68,227 151,295 82,69 198,103 345,103 150,0 260,-30 333,-91 72,-60 108,-131 108,-213 0,-73 -32,-131 -97,-173 -46,-29 -156,-65 -332,-110 -237,-60 -401,-111 -494,-155 -91,-44 -161,-104 -208,-182 -47,-77 -71,-162 -71,-256 0,-85 19,-164 58,-236 39,-73 92,-133 159,-181 51,-37 120,-68 206,-94 88,-26 180,-39 280,-39 150,0 281,22 395,65 113,43 197,102 251,176 53,75 91,174 111,298l-317 44c-14,-100 -56,-178 -125,-234 -69,-56 -166,-83 -292,-83 -148,0 -254,24 -318,74 -63,49 -95,106 -95,172 0,42 13,80 40,114 26,34 67,63 124,86 32,12 127,40 285,83 229,61 389,111 480,150 91,39 162,96 214,170 52,74 78,166 78,277 0,108 -31,209 -95,304 -63,96 -154,169 -273,222 -119,52 -253,78 -404,78 -248,0 -438,-52 -568,-155 -130,-103 -213,-255 -250,-458z"/>
   <polygon class="fil4" points="42376,62949 42376,60309 42911,60309 42911,62949 "/>
   <path id="1" class="fil4" d="M45156 62949l-505 0 0 -975c0,-207 -11,-340 -32,-400 -23,-61 -58,-108 -107,-142 -49,-34 -108,-50 -177,-50 -88,0 -168,24 -238,72 -70,48 -118,112 -144,190 -27,80 -39,226 -39,440l0 865 -506 0 0 -1914 469 0 0 281c167,-214 378,-321 633,-321 112,0 215,20 308,60 93,40 163,91 211,154 48,62 81,133 99,212 19,80 28,193 28,340l0 1188z"/>
   <path id="2" class="fil4" d="M46195 62949l-772 -1914 531 0 361 977 104 326c28,-83 46,-137 52,-164 18,-54 35,-108 55,-162l365 -977 520 0 -760 1914 -456 0z"/>
   <path id="3" class="fil4" d="M48826 62344l506 85c-65,185 -167,326 -307,423 -140,97 -315,145 -525,145 -333,0 -579,-108 -738,-326 -126,-175 -190,-395 -190,-661 0,-317 83,-566 249,-746 165,-180 375,-269 628,-269 284,0 508,94 673,282 164,188 243,476 236,865l-1266 0c4,150 45,266 123,350 77,84 174,125 290,125 79,0 146,-21 199,-64 54,-43 95,-113 122,-209zm30 -512c-4,-147 -41,-259 -113,-335 -72,-77 -159,-115 -263,-115 -110,0 -201,40 -273,121 -71,80 -107,191 -105,329l754 0z"/>
   <path id="4" class="fil4" d="M51512 62949l-505 0 0 -975c0,-207 -11,-340 -33,-400 -22,-61 -57,-108 -106,-142 -49,-34 -108,-50 -177,-50 -89,0 -168,24 -238,72 -71,48 -119,112 -144,190 -27,80 -40,226 -40,440l0 865 -505 0 0 -1914 468 0 0 281c168,-214 379,-321 634,-321 112,0 215,20 307,60 94,40 164,91 211,154 48,62 81,133 100,212 19,80 28,193 28,340l0 1188z"/>
   <path id="5" class="fil4" d="M52898 61035l0 402 -346 0 0 775c0,158 3,249 9,275 7,26 22,47 46,65 23,16 52,25 85,25 48,0 115,-16 204,-49l43 394c-117,50 -250,75 -399,75 -91,0 -173,-15 -246,-46 -73,-30 -127,-70 -160,-119 -35,-49 -58,-115 -72,-199 -10,-59 -16,-178 -16,-358l0 -838 -232 0 0 -402 232 0 0 -380 506 -298 0 678 346 0z"/>
   <path id="6" class="fil4" d="M53134 61969c0,-169 42,-331 125,-489 83,-158 200,-278 352,-361 152,-83 321,-124 508,-124 290,0 526,94 712,282 185,188 277,426 277,713 0,291 -94,531 -280,722 -187,190 -422,285 -705,285 -175,0 -342,-40 -502,-119 -158,-79 -279,-195 -362,-349 -83,-153 -125,-340 -125,-560zm520 27c0,190 45,336 135,436 90,102 201,152 333,152 132,0 243,-50 332,-152 89,-100 134,-247 134,-440 0,-187 -45,-332 -134,-432 -89,-102 -200,-152 -332,-152 -132,0 -243,50 -333,152 -90,100 -135,246 -135,436z"/>
   <path id="7" class="fil4" d="M55989 62949l-506 0 0 -1914 469 0 0 272c80,-129 153,-213 217,-253 65,-40 138,-59 220,-59 115,0 227,31 334,95l-157 441c-86,-55 -165,-83 -238,-83 -71,0 -131,20 -181,59 -49,39 -88,109 -116,211 -28,102 -42,316 -42,641l0 590z"/>
   <path id="8" class="fil4" d="M56941 60777l0 -468 505 0 0 468 -505 0zm0 2172l0 -1914 505 0 0 1914 -505 0z"/>
   <path id="9" class="fil4" d="M59072 62344l506 85c-65,185 -168,326 -307,423 -140,97 -316,145 -525,145 -333,0 -579,-108 -739,-326 -125,-175 -189,-395 -189,-661 0,-317 83,-566 248,-746 166,-180 375,-269 629,-269 284,0 508,94 673,282 164,188 243,476 235,865l-1265 0c4,150 44,266 123,350 77,84 174,125 290,125 79,0 145,-21 199,-64 54,-43 95,-113 122,-209zm30 -512c-4,-147 -41,-259 -113,-335 -72,-77 -160,-115 -263,-115 -110,0 -201,40 -273,121 -72,80 -107,191 -106,329l755 0z"/>
   <path id="10" class="fil4" d="M59836 62411l509 -77c22,97 65,172 132,222 66,51 158,76 277,76 131,0 229,-24 296,-72 44,-33 66,-79 66,-136 0,-38 -12,-70 -36,-95 -25,-24 -82,-47 -169,-67 -409,-90 -668,-173 -777,-247 -152,-104 -228,-248 -228,-432 0,-166 66,-306 197,-419 131,-113 334,-169 609,-169 262,0 456,43 584,128 127,86 215,213 263,381l-476 88c-20,-75 -60,-133 -117,-173 -57,-40 -139,-59 -245,-59 -134,0 -230,18 -288,56 -39,26 -58,60 -58,102 0,37 16,67 50,93 46,33 204,81 475,142 270,62 459,137 566,226 106,89 159,216 159,377 0,175 -73,326 -220,452 -146,126 -363,189 -651,189 -261,0 -467,-52 -620,-158 -151,-105 -251,-247 -298,-428z"/>
   <g>
    <path class="fil3" d="M69434 53225l23024 0c499,0 903,362 903,810l0 15236c0,447 -404,810 -903,810l-23024 0c-498,0 -903,-363 -903,-810l0 -15236c0,-448 404,-810 903,-810z"/>
    <path id="1" class="fil2" d="M92458 53409l-23024 0 0 -369 23024 0 0 0 0 369zm1088 626l-370 0 0 0 -1 -32 -3 -30 -4 -31 -6 -29 -7 -30 -10 -29 -10 -28 -13 -28 -13 -27 -16 -27 -16 -26 -18 -25 -20 -25 -21 -24 -22 -23 -23 -22 -25 -21 -26 -20 -27 -19 -28 -18 -30 -17 -30 -16 -31 -14 -32 -13 -33 -12 -34 -10 -35 -9 -36 -7 -36 -6 -36 -4 -38 -3 -38 -1 0 -369 55 2 54 3 54 6 53 9 51 11 51 13 51 15 49 17 47 19 47 22 45 23 44 26 43 27 41 29 39 30 38 33 37 34 34 36 33 37 31 39 29 41 27 42 24 43 22 44 21 46 17 47 15 48 13 49 10 50 7 50 5 52 1 52 0 0zm-370 15236l0 -15236 370 0 0 15236 0 0 -370 0zm-718 994l0 -368 0 0 38 -1 38 -3 36 -4 36 -6 36 -7 35 -9 34 -10 33 -12 32 -13 31 -15 30 -15 30 -17 28 -18 27 -19 26 -20 25 -22 23 -22 22 -22 21 -24 20 -25 18 -25 17 -26 15 -27 13 -27 13 -28 10 -28 10 -29 7 -30 6 -29 4 -31 3 -31 1 -31 370 0 -1 52 -5 51 -7 51 -10 50 -13 49 -15 48 -17 47 -21 46 -22 44 -24 43 -27 42 -29 41 -31 38 -33 38 -34 36 -37 34 -38 32 -39 31 -41 29 -43 27 -44 26 -45 23 -47 21 -47 20 -50 17 -50 15 -51 13 -51 11 -53 8 -54 6 -54 4 -55 1 0 0zm-23024 -368l23024 0 0 368 -23024 0 0 0 0 -368zm-1088 -626l370 0 0 0 1 31 3 31 4 31 6 29 8 30 9 29 11 28 12 28 14 27 15 27 16 26 19 25 19 25 21 24 22 22 24 22 24 22 26 20 27 19 29 18 29 17 30 15 32 15 32 13 33 12 34 10 34 9 36 7 36 6 37 4 37 3 38 1 0 368 -54 -1 -55 -4 -53 -6 -53 -8 -52 -11 -51 -13 -50 -15 -49 -17 -48 -20 -46 -21 -46 -23 -44 -26 -42 -27 -41 -29 -40 -31 -38 -32 -36 -34 -35 -36 -33 -38 -30 -38 -29 -41 -27 -42 -25 -43 -22 -44 -20 -46 -18 -47 -15 -48 -13 -49 -10 -50 -7 -51 -4 -51 -2 -52 0 0zm370 -15236l0 15236 -370 0 0 -15236 0 0 370 0zm718 -995l0 369 0 0 -38 1 -37 3 -37 4 -36 6 -36 7 -34 9 -34 10 -33 12 -33 13 -31 14 -30 16 -29 17 -29 18 -27 19 -26 20 -24 21 -24 22 -22 23 -21 24 -19 25 -19 25 -16 26 -16 27 -13 27 -12 28 -11 28 -9 29 -8 30 -6 29 -4 31 -3 30 -1 32 -370 0 2 -52 4 -52 7 -50 10 -50 13 -49 15 -48 18 -47 20 -46 22 -44 25 -44 27 -41 29 -41 30 -39 33 -37 35 -36 36 -34 38 -32 39 -31 42 -29 42 -27 44 -26 46 -23 46 -22 48 -19 49 -17 50 -15 51 -13 52 -11 53 -9 53 -6 54 -3 55 -2 0 0z"/>
   </g>
   <path class="fil2" d="M74564 62953l1013 -2641 384 0 1075 2641 -398 0 -305 -800 -1112 0 -287 800 -370 0zm759 -1084l900 0 -275 -732c-83,-223 -146,-407 -189,-552 -37,172 -85,341 -146,509l-290 775z"/>
   <polygon id="1" class="fil2" points="77265,62953 77265,60312 77590,60312 77590,62953 "/>
   <polygon id="2" class="fil2" points="78085,62953 78085,60312 78409,60312 78409,62953 "/>
   <path id="3" class="fil2" d="M79977 62953l0 -2641 910 0c205,0 362,13 470,38 151,35 280,98 387,189 140,118 244,268 313,451 69,183 104,393 104,628 0,201 -24,379 -70,533 -47,155 -107,284 -181,385 -73,102 -153,182 -241,239 -86,59 -191,103 -314,133 -124,30 -265,45 -425,45l-953 0zm350 -310l564 0c174,0 310,-16 409,-48 99,-33 178,-78 237,-137 82,-83 147,-195 193,-335 46,-141 69,-310 69,-510 0,-277 -45,-489 -136,-638 -90,-149 -200,-248 -330,-299 -93,-36 -244,-54 -452,-54l-554 0 0 2021z"/>
   <path id="4" class="fil2" d="M83851 62713c-121,103 -237,175 -348,217 -112,43 -231,64 -359,64 -210,0 -372,-51 -485,-154 -113,-102 -169,-233 -169,-392 0,-94 21,-179 63,-257 43,-77 99,-139 168,-185 70,-47 147,-83 234,-107 64,-16 160,-32 289,-48 262,-31 455,-68 579,-111 1,-45 2,-73 2,-85 0,-131 -31,-224 -93,-278 -83,-73 -206,-110 -370,-110 -153,0 -266,28 -338,81 -73,54 -127,148 -162,285l-317 -45c29,-135 76,-246 142,-329 67,-84 163,-148 288,-193 125,-45 271,-68 435,-68 164,0 297,19 400,58 102,39 178,87 225,145 48,59 82,132 102,221 10,56 16,155 16,299l0 430c0,300 7,490 20,571 13,80 40,157 80,231l-340 0c-32,-68 -53,-148 -62,-240zm-26 -719c-118,48 -295,89 -531,122 -134,19 -229,40 -285,64 -55,24 -97,59 -127,105 -31,46 -46,97 -46,154 0,85 33,157 99,214 65,57 161,86 287,86 125,0 236,-27 334,-82 97,-54 169,-128 215,-222 35,-73 52,-181 52,-323l2 -118z"/>
   <path id="5" class="fil2" d="M85356 62664l44 286c-91,19 -173,29 -244,29 -117,0 -208,-18 -273,-56 -65,-38 -110,-86 -137,-147 -26,-61 -39,-189 -39,-384l0 -1102 -240 0 0 -251 240 0 0 -474 324 -194 0 668 325 0 0 251 -325 0 0 1121c0,93 6,152 18,179 11,26 29,47 55,63 26,16 63,23 111,23 35,0 83,-4 141,-12z"/>
   <path id="6" class="fil2" d="M86927 62713c-121,103 -237,175 -348,217 -112,43 -231,64 -359,64 -210,0 -372,-51 -485,-154 -113,-102 -169,-233 -169,-392 0,-94 21,-179 63,-257 43,-77 99,-139 168,-185 70,-47 147,-83 234,-107 64,-16 160,-32 289,-48 262,-31 455,-68 579,-111 1,-45 2,-73 2,-85 0,-131 -31,-224 -92,-278 -83,-73 -207,-110 -371,-110 -153,0 -266,28 -338,81 -73,54 -127,148 -162,285l-317 -45c29,-135 76,-246 142,-329 67,-84 163,-148 288,-193 125,-45 271,-68 435,-68 164,0 297,19 400,58 102,39 178,87 226,145 48,59 81,132 101,221 10,56 16,155 16,299l0 430c0,300 7,490 20,571 13,80 40,157 80,231l-340 0c-32,-68 -53,-148 -62,-240zm-26 -719c-118,48 -295,89 -531,122 -134,19 -229,40 -284,64 -56,24 -98,59 -128,105 -30,46 -46,97 -46,154 0,85 33,157 99,214 65,57 161,86 287,86 125,0 236,-27 334,-82 97,-54 169,-128 215,-222 35,-73 52,-181 52,-323l2 -118z"/>
  </g>
 </g>
</svg>
