<?xml version="1.0" encoding="UTF-8"?>
<!DOCTYPE svg PUBLIC "-//W3C//DTD SVG 1.1//EN" "http://www.w3.org/Graphics/SVG/1.1/DTD/svg11.dtd">
<!-- Creator: CorelDRAW X8 -->
<svg xmlns="http://www.w3.org/2000/svg" xml:space="preserve" width="4.25096in" height="3in" version="1.1" style="shape-rendering:geometricPrecision; text-rendering:geometricPrecision; image-rendering:optimizeQuality; fill-rule:evenodd; clip-rule:evenodd"
viewBox="0 0 118366 83534"
 xmlns:xlink="http://www.w3.org/1999/xlink">
 <defs>
  <style type="text/css">
   <![CDATA[
    .fil3 {fill:none}
    .fil6 {fill:#FEFEFE}
    .fil4 {fill:#E6E7E8}
    .fil0 {fill:#1A237E}
    .fil5 {fill:#FEFEFE;fill-rule:nonzero}
    .fil2 {fill:#606062;fill-rule:nonzero}
    .fil1 {fill:#1A237E;fill-rule:nonzero}
   ]]>
  </style>
 </defs>
 <g id="Layer_x0020_1">
  <metadata id="CorelCorpID_0Corel-Layer"/>
  <g id="_2490759030224">
   <path class="fil0" d="M103961 12592l-99965 0c-2207,6 -3993,1796 -3996,4003l0 62936c3,2207 1790,3996 3996,4003l99965 0c2207,-7 3993,-1796 3996,-4003l0 -62936c-3,-2207 -1789,-3997 -3996,-4003zm232 63518c-37,2238 -1874,4026 -4112,4003l-92262 0c-2238,23 -4075,-1765 -4112,-4003l0 -56209c37,-2238 1874,-4026 4112,-4003l92320 1c2238,-24 4075,1764 4112,4002l0 56209 -58 0z"/>
   <polygon class="fil1" points="6776,24359 6776,21190 7418,21190 7418,24359 "/>
   <path id="1" class="fil1" d="M7980 22062l557 0 0 314c200,-241 439,-362 715,-362 147,0 275,30 382,90 109,61 197,152 266,275 101,-123 210,-214 327,-275 116,-60 241,-90 374,-90 168,0 310,34 427,102 117,69 204,169 262,302 42,97 62,256 62,475l0 1466 -606 0 0 -1310c0,-228 -21,-375 -63,-441 -56,-86 -143,-130 -259,-130 -85,0 -166,26 -241,78 -74,52 -129,128 -162,228 -33,100 -50,258 -50,474l0 1101 -606 0 0 -1257c0,-222 -11,-367 -33,-431 -21,-65 -54,-114 -100,-145 -45,-32 -107,-48 -184,-48 -94,0 -178,25 -253,76 -75,50 -128,123 -160,218 -33,95 -49,253 -49,473l0 1114 -606 0 0 -2297z"/>
   <path id="2" class="fil1" d="M11942 22062l566 0 0 337c74,-115 173,-208 298,-279 126,-71 265,-106 418,-106 266,0 493,104 678,314 186,209 279,501 279,874 0,384 -93,682 -281,895 -187,214 -414,320 -681,320 -127,0 -242,-25 -346,-76 -102,-50 -211,-137 -325,-259l0 1149 -606 0 0 -3169zm597 1113c0,259 51,450 154,574 101,123 226,185 372,185 141,0 258,-56 352,-170 94,-113 140,-299 140,-558 0,-242 -48,-421 -144,-539 -96,-117 -216,-175 -358,-175 -148,0 -272,57 -369,172 -98,115 -147,286 -147,511z"/>
   <path id="3" class="fil1" d="M14521 23183c0,-202 50,-398 149,-587 100,-189 241,-333 423,-433 182,-99 385,-149 610,-149 347,0 631,112 853,338 223,227 333,511 333,857 0,348 -112,636 -335,865 -225,229 -507,343 -847,343 -210,0 -410,-48 -602,-143 -190,-95 -335,-235 -435,-419 -99,-184 -149,-408 -149,-672zm624 32c0,228 54,403 162,524 108,122 241,182 400,182 157,0 290,-60 397,-182 107,-121 161,-297 161,-528 0,-225 -54,-398 -161,-519 -107,-122 -240,-183 -397,-183 -159,0 -292,61 -400,183 -108,121 -162,295 -162,523z"/>
   <path id="4" class="fil1" d="M17946 24359l-606 0 0 -2297 562 0 0 326c97,-154 184,-255 261,-303 78,-48 165,-71 263,-71 139,0 273,38 401,114l-188 530c-103,-67 -198,-100 -286,-100 -85,0 -157,24 -216,70 -60,47 -106,131 -140,254 -34,122 -51,379 -51,769l0 708z"/>
   <path id="5" class="fil1" d="M20138 22062l0 483 -416 0 0 930c0,189 4,299 12,330 8,31 25,57 54,77 28,20 62,30 103,30 57,0 138,-19 245,-58l51 472c-141,61 -301,91 -479,91 -109,0 -207,-18 -295,-55 -88,-37 -152,-85 -193,-144 -41,-59 -69,-137 -85,-238 -13,-71 -20,-214 -20,-430l0 -1005 -278 0 0 -483 278 0 0 -456 607 -358 0 814 416 0z"/>
   <polygon id="6" class="fil1" points="21797,24359 21797,21190 24143,21190 24143,21726 22439,21726 22439,22430 24023,22430 24023,22965 22439,22965 22439,23824 24205,23824 24205,24359 "/>
   <polygon id="7" class="fil1" points="24450,24359 25278,23176 24486,22062 25226,22062 25632,22694 26063,22062 26774,22062 25996,23150 26845,24359 26105,24359 25632,23647 25162,24359 "/>
   <path id="8" class="fil1" d="M29207 22744l-597 106c-20,-119 -66,-208 -138,-268 -71,-60 -163,-90 -277,-90 -151,0 -272,52 -362,157 -90,104 -135,279 -135,525 0,273 45,465 137,578 91,113 214,169 367,169 115,0 210,-33 283,-99 74,-65 125,-178 155,-339l598 102c-62,274 -181,482 -356,622 -176,140 -411,210 -707,210 -335,0 -603,-106 -802,-318 -200,-212 -299,-506 -299,-882 0,-379 100,-675 300,-886 200,-212 471,-317 812,-317 279,0 501,60 666,180 165,121 283,304 355,550z"/>
   <path id="9" class="fil1" d="M30996 23633l606 102c-77,222 -200,391 -368,508 -168,116 -378,174 -630,174 -399,0 -695,-131 -886,-392 -151,-209 -227,-473 -227,-793 0,-380 100,-679 298,-895 198,-216 450,-323 754,-323 341,0 610,112 808,338 197,226 291,572 282,1038l-1518 0c4,180 53,320 147,421 93,100 209,150 348,150 95,0 175,-26 239,-77 65,-52 114,-135 147,-251zm35 -615c-4,-176 -49,-310 -136,-402 -86,-92 -191,-138 -314,-138 -132,0 -242,49 -328,146 -86,96 -128,228 -127,394l905 0z"/>
   <polygon id="10" class="fil1" points="32130,24359 32130,21190 32736,21190 32736,24359 "/>
   <path class="fil2" d="M6469 35841l1216 -3169 461 0 1290 3169 -478 0 -366 -960 -1335 0 -343 960 -445 0zm912 -1301l1080 0 -331 -879c-100,-267 -175,-487 -227,-661 -44,206 -102,409 -175,610l-347 930z"/>
   <path id="1" class="fil2" d="M11220 35000l381 53c-42,262 -148,467 -320,615 -172,148 -384,222 -634,222 -314,0 -566,-103 -756,-308 -191,-205 -286,-498 -286,-881 0,-247 41,-464 123,-649 82,-186 206,-325 375,-417 167,-93 349,-140 547,-140 249,0 453,63 611,189 158,126 260,306 304,537l-376 58c-36,-154 -99,-270 -192,-348 -91,-78 -202,-117 -332,-117 -196,0 -355,70 -478,210 -123,141 -184,363 -184,666 0,309 59,532 177,672 119,139 273,209 463,209 153,0 281,-46 382,-140 103,-93 168,-237 195,-431z"/>
   <path id="2" class="fil2" d="M13433 35000l381 53c-42,262 -148,467 -320,615 -172,148 -384,222 -634,222 -313,0 -566,-103 -756,-308 -191,-205 -286,-498 -286,-881 0,-247 41,-464 123,-649 82,-186 206,-325 375,-417 167,-93 349,-140 547,-140 249,0 453,63 611,189 158,126 260,306 305,537l-377 58c-36,-154 -99,-270 -192,-348 -91,-78 -202,-117 -331,-117 -197,0 -356,70 -479,210 -123,141 -184,363 -184,666 0,309 59,532 177,672 119,139 273,209 463,209 153,0 281,-46 383,-140 102,-93 167,-237 194,-431z"/>
   <path id="3" class="fil2" d="M14000 34693c0,-424 118,-739 355,-943 197,-170 438,-255 722,-255 315,0 573,104 774,310 199,206 300,492 300,855 0,295 -44,527 -133,696 -88,169 -218,300 -387,394 -169,93 -354,140 -554,140 -322,0 -581,-103 -780,-309 -198,-205 -297,-502 -297,-888zm398 0c0,294 64,514 193,659 129,146 290,219 486,219 193,0 354,-73 483,-220 128,-146 193,-370 193,-670 0,-283 -65,-498 -195,-643 -129,-147 -289,-219 -481,-219 -196,0 -357,72 -486,217 -129,145 -193,365 -193,657z"/>
   <path id="4" class="fil2" d="M18108 35841l0 -341c-179,260 -421,390 -727,390 -135,0 -261,-26 -378,-78 -117,-52 -205,-117 -261,-195 -57,-79 -97,-175 -120,-289 -15,-76 -23,-197 -23,-362l0 -1422 389 0 0 1271c0,203 8,340 24,410 24,103 76,182 155,241 79,58 177,87 293,87 117,0 226,-29 328,-89 101,-60 174,-141 217,-244 42,-102 63,-252 63,-448l0 -1228 390 0 0 2297 -350 0z"/>
   <path id="5" class="fil2" d="M19069 35841l0 -2297 350 0 0 326c168,-250 411,-375 729,-375 139,0 266,25 382,75 116,49 203,115 260,195 58,81 98,177 121,287 14,73 21,199 21,379l0 1410 -389 0 0 -1395c0,-159 -15,-278 -45,-356 -30,-78 -84,-141 -161,-188 -77,-47 -167,-70 -271,-70 -165,0 -307,52 -427,158 -121,104 -180,304 -180,598l0 1253 -390 0z"/>
   <path id="6" class="fil2" d="M22376 35494l53 344c-109,22 -207,34 -293,34 -141,0 -250,-22 -328,-67 -77,-45 -132,-103 -164,-176 -31,-73 -47,-227 -47,-461l0 -1323 -288 0 0 -301 288 0 0 -568 390 -234 0 802 389 0 0 301 -389 0 0 1346c0,111 6,183 20,214 14,32 36,57 67,76 31,19 75,28 132,28 43,0 100,-5 170,-15z"/>
   <polygon id="7" class="fil2" points="24110,35841 24110,32672 24530,32672 24530,35841 "/>
   <path id="8" class="fil2" d="M25220 35841l0 -2297 350 0 0 325c71,-112 167,-203 287,-271 119,-69 255,-103 408,-103 169,0 309,36 417,106 108,71 185,169 229,296 183,-268 420,-402 712,-402 229,0 405,63 528,189 123,126 185,320 185,582l0 1575 -390 0 0 -1446c0,-155 -13,-267 -38,-335 -25,-69 -71,-123 -138,-165 -66,-43 -144,-63 -234,-63 -162,0 -296,54 -403,161 -107,107 -160,279 -160,515l0 1333 -390 0 0 -1491c0,-172 -32,-302 -95,-388 -63,-87 -167,-130 -311,-130 -109,0 -210,29 -303,86 -93,58 -161,142 -203,253 -41,111 -62,271 -62,480l0 1190 -389 0z"/>
   <path id="9" class="fil2" d="M28907 36722l0 -3178 354 0 0 302c83,-117 178,-205 283,-263 105,-58 233,-88 382,-88 197,0 369,51 519,152 150,100 263,242 339,425 76,184 115,385 115,604 0,234 -42,445 -127,633 -84,187 -206,331 -367,431 -160,100 -329,150 -506,150 -130,0 -246,-27 -349,-82 -103,-55 -187,-123 -254,-207l0 1121 -389 0zm354 -2015c0,294 60,512 178,653 120,140 265,211 434,211 173,0 320,-73 443,-219 123,-146 184,-372 184,-678 0,-292 -60,-510 -180,-656 -120,-145 -263,-217 -430,-217 -165,0 -311,77 -438,231 -128,155 -191,380 -191,675z"/>
   <path id="10" class="fil2" d="M31222 34693c0,-424 118,-739 355,-943 197,-170 438,-255 722,-255 315,0 574,104 774,310 200,206 301,492 301,855 0,295 -45,527 -133,696 -89,169 -218,300 -388,394 -168,93 -354,140 -554,140 -321,0 -581,-103 -779,-309 -199,-205 -298,-502 -298,-888zm399 0c0,294 64,514 192,659 129,146 291,219 486,219 194,0 355,-73 484,-220 128,-146 192,-370 192,-670 0,-283 -65,-498 -194,-643 -129,-147 -290,-219 -482,-219 -195,0 -357,72 -486,217 -128,145 -192,365 -192,657z"/>
   <path id="11" class="fil2" d="M33826 35841l0 -2297 349 0 0 352c90,-163 172,-271 248,-322 76,-53 160,-79 250,-79 132,0 265,42 401,124l-139 359c-94,-53 -189,-80 -283,-80 -85,0 -161,26 -228,77 -67,51 -115,122 -144,212 -43,138 -65,289 -65,454l0 1200 -389 0z"/>
   <path id="12" class="fil2" d="M36149 35494l54 344c-110,22 -208,34 -293,34 -141,0 -250,-22 -329,-67 -77,-45 -132,-103 -163,-176 -32,-73 -48,-227 -48,-461l0 -1323 -287 0 0 -301 287 0 0 -568 390 -234 0 802 389 0 0 301 -389 0 0 1346c0,111 7,183 21,214 13,32 35,57 66,76 31,19 75,28 133,28 43,0 99,-5 169,-15z"/>
   <path class="fil3" d="M7373 42210l92094 0c499,0 903,404 903,903l0 9931c0,499 -404,903 -903,903l-92094 0c-499,0 -903,-404 -903,-903l0 -9931c0,-499 404,-903 903,-903z"/>
   <path class="fil4" d="M7373 43826l92094 0c405,0 734,245 734,547l0 7410c0,303 -329,548 -734,548l-92094 0c-406,0 -734,-245 -734,-548l0 -7410c0,-302 328,-547 734,-547z"/>
   <path class="fil0" d="M7373 60757l23023 0c499,0 903,362 903,810l0 6883c0,447 -404,810 -903,810l-23023 0c-499,0 -903,-363 -903,-810l0 -6883c0,-448 404,-810 903,-810z"/>
   <path class="fil3" d="M36716 60268l20315 0c499,0 903,404 903,903l0 7675c0,498 -404,903 -903,903l-20315 0c-499,0 -903,-405 -903,-903l0 -7675c0,-499 404,-903 903,-903z"/>
   <path class="fil2" d="M10075 49639l1215 -3169 461 0 1290 3169 -477 0 -367 -961 -1334 0 -344 961 -444 0zm911 -1302l1080 0 -330 -878c-100,-267 -175,-488 -228,-662 -43,207 -101,410 -174,610l-348 930z"/>
   <path id="1" class="fil2" d="M14171 49291l53 344c-109,23 -207,35 -293,35 -141,0 -250,-22 -328,-67 -78,-45 -132,-104 -164,-177 -32,-73 -47,-226 -47,-460l0 -1323 -288 0 0 -301 288 0 0 -568 389 -234 0 802 390 0 0 301 -390 0 0 1345c0,111 7,183 21,215 13,32 35,57 66,76 31,18 76,28 133,28 43,0 100,-5 170,-16z"/>
   <path id="2" class="fil2" d="M15400 49291l54 344c-110,23 -208,35 -293,35 -141,0 -250,-22 -329,-67 -77,-45 -132,-104 -163,-177 -32,-73 -47,-226 -47,-460l0 -1323 -288 0 0 -301 288 0 0 -568 389 -234 0 802 389 0 0 301 -389 0 0 1345c0,111 7,183 21,215 13,32 35,57 66,76 31,18 75,28 133,28 43,0 99,-5 169,-16z"/>
   <path id="3" class="fil2" d="M17285 49351c-144,123 -284,210 -417,260 -134,51 -277,77 -430,77 -253,0 -447,-62 -582,-185 -136,-122 -204,-280 -204,-471 0,-112 26,-214 77,-307 51,-93 119,-167 201,-223 83,-56 176,-99 280,-128 77,-20 193,-39 347,-58 314,-37 547,-82 695,-133 1,-54 2,-87 2,-101 0,-158 -37,-270 -110,-335 -100,-87 -248,-131 -444,-131 -184,0 -320,32 -407,97 -88,64 -152,177 -194,341l-381 -53c35,-163 92,-295 172,-395 79,-101 194,-177 345,-232 150,-54 324,-81 522,-81 196,0 356,23 480,69 122,47 213,104 270,174 58,70 98,159 122,266 13,66 19,186 19,358l0 516c0,361 8,589 25,685 15,97 48,189 95,278l-407 0c-40,-82 -65,-178 -76,-288zm-31 -863c-141,58 -354,106 -637,146 -161,23 -274,49 -341,77 -66,29 -117,71 -153,126 -36,55 -55,116 -55,184 0,103 39,189 118,258 79,68 194,103 345,103 150,0 284,-32 401,-98 116,-65 203,-154 257,-267 42,-88 63,-217 63,-387l2 -142z"/>
   <path id="4" class="fil2" d="M19747 48798l381 53c-43,262 -149,466 -321,614 -172,149 -383,223 -633,223 -314,0 -566,-103 -756,-308 -192,-205 -287,-499 -287,-881 0,-248 42,-464 124,-650 81,-185 206,-324 374,-417 168,-93 350,-139 548,-139 248,0 453,63 610,189 159,126 261,305 305,537l-376 57c-36,-154 -100,-270 -192,-348 -91,-77 -202,-116 -332,-116 -196,0 -355,70 -479,210 -122,141 -183,362 -183,666 0,308 59,532 177,671 119,140 273,210 462,210 154,0 281,-47 383,-140 103,-93 168,-237 195,-431z"/>
   <path id="5" class="fil2" d="M20460 49639l0 -3169 389 0 0 1140c181,-212 409,-317 685,-317 168,0 315,33 441,100 124,67 214,160 267,278 54,118 81,290 81,514l0 1454 -390 0 0 -1453c0,-194 -42,-335 -125,-424 -84,-88 -202,-133 -356,-133 -114,0 -222,30 -323,90 -101,59 -172,140 -216,243 -43,102 -64,243 -64,423l0 1254 -389 0z"/>
   <polygon id="6" class="fil2" points="24222,49639 24222,46470 26360,46470 26360,46842 24642,46842 24642,47829 26129,47829 26129,48200 24642,48200 24642,49639 "/>
   <path id="7" class="fil2" d="M26854 46912l0 -442 390 0 0 442 -390 0zm0 2727l0 -2297 390 0 0 2297 -390 0z"/>
   <polygon id="8" class="fil2" points="27829,49639 27829,46470 28218,46470 28218,49639 "/>
   <path id="9" class="fil2" d="M30388 48895l403 53c-63,234 -180,416 -351,545 -172,130 -390,195 -656,195 -335,0 -601,-104 -797,-310 -196,-206 -294,-496 -294,-869 0,-385 99,-684 297,-897 199,-213 456,-319 772,-319 307,0 557,104 751,313 194,209 291,502 291,880 0,23 -1,58 -2,104l-1711 0c15,251 86,445 214,578 128,134 288,201 479,201 142,0 264,-38 364,-113 101,-75 181,-196 240,-361zm-1275 -624l1279 0c-17,-193 -66,-338 -146,-434 -124,-150 -284,-225 -481,-225 -179,0 -329,59 -450,179 -121,119 -188,279 -202,480z"/>
   <polygon class="fil5" points="10962,66593 10962,63424 11383,63424 11383,66593 "/>
   <path id="1" class="fil5" d="M12073 66593l0 -2297 349 0 0 324c72,-112 168,-203 287,-271 120,-68 255,-102 408,-102 170,0 309,35 418,105 108,71 185,169 229,296 183,-268 420,-401 712,-401 228,0 405,63 527,189 123,126 185,320 185,582l0 1575 -389 0 0 -1446c0,-155 -13,-267 -38,-336 -26,-68 -71,-123 -138,-165 -67,-42 -145,-63 -234,-63 -163,0 -297,54 -404,161 -107,108 -160,280 -160,516l0 1333 -389 0 0 -1491c0,-173 -32,-303 -96,-389 -63,-86 -167,-130 -311,-130 -109,0 -210,29 -303,87 -93,57 -160,141 -202,253 -41,110 -62,270 -62,479l0 1191 -389 0z"/>
   <path id="2" class="fil5" d="M15759 67473l0 -3177 354 0 0 301c84,-116 178,-204 284,-262 104,-59 232,-88 382,-88 196,0 369,50 518,151 150,100 263,243 340,426 76,183 114,384 114,603 0,234 -42,445 -126,633 -84,187 -207,331 -367,432 -160,99 -329,149 -506,149 -130,0 -247,-27 -349,-81 -104,-55 -188,-124 -254,-207l0 1120 -390 0zm354 -2015c0,295 60,512 179,653 119,141 264,212 434,212 172,0 320,-73 442,-219 123,-146 185,-372 185,-678 0,-292 -60,-511 -180,-656 -121,-145 -264,-218 -430,-218 -166,0 -312,78 -439,232 -127,155 -191,379 -191,674z"/>
   <path id="3" class="fil5" d="M18075 65444c0,-424 118,-738 355,-943 197,-169 438,-254 722,-254 315,0 573,103 774,310 200,206 300,491 300,855 0,295 -44,526 -133,695 -88,169 -217,301 -387,394 -169,94 -354,140 -554,140 -322,0 -581,-102 -780,-308 -198,-206 -297,-502 -297,-889zm398 1c0,294 64,513 193,659 129,146 290,219 486,219 193,0 354,-73 483,-220 128,-147 193,-370 193,-671 0,-283 -65,-498 -194,-643 -129,-146 -290,-219 -482,-219 -196,0 -357,72 -486,218 -129,145 -193,364 -193,657z"/>
   <path id="4" class="fil5" d="M20678 66593l0 -2297 350 0 0 352c89,-164 172,-271 248,-323 76,-52 159,-78 250,-78 131,0 265,41 400,123l-138 359c-95,-53 -189,-79 -284,-79 -85,0 -160,26 -228,76 -67,51 -115,122 -143,213 -44,138 -65,289 -65,454l0 1200 -390 0z"/>
   <path id="5" class="fil5" d="M23002 66245l53 344c-109,23 -207,35 -293,35 -141,0 -250,-22 -328,-67 -78,-45 -132,-104 -164,-177 -32,-73 -47,-226 -47,-460l0 -1323 -288 0 0 -301 288 0 0 -568 389 -234 0 802 390 0 0 301 -390 0 0 1345c0,111 7,183 21,215 13,32 35,57 66,76 31,18 76,28 133,28 43,0 100,-5 170,-16z"/>
   <ellipse class="fil0" cx="105539" cy="12847" rx="12827" ry="12847"/>
   <g>
    <path class="fil1" d="M60271 60849l-23024 0 0 -185 23024 0 0 0 0 185zm995 718l-185 0 0 0 -1 -37 -3 -36 -5 -35 -7 -35 -9 -35 -10 -33 -13 -33 -14 -33 -16 -31 -18 -31 -19 -30 -21 -29 -22 -28 -24 -27 -25 -26 -27 -26 -28 -24 -29 -22 -31 -22 -32 -20 -33 -19 -33 -18 -36 -16 -36 -15 -37 -13 -38 -11 -39 -10 -39 -8 -40 -7 -41 -4 -42 -3 -42 -1 0 -185 50 2 50 3 50 6 49 7 47 10 47 12 46 14 45 16 44 18 43 19 41 22 41 23 39 25 37 26 36 29 35 29 33 31 32 33 29 34 28 35 27 37 24 38 22 39 20 40 19 41 16 43 13 43 12 44 9 45 6 45 4 47 1 47 0 0zm-185 6883l0 -6883 185 0 0 6883 0 0 -185 0zm-810 902l0 -184 0 0 42 -1 42 -3 41 -5 40 -6 39 -9 39 -10 38 -11 37 -13 36 -15 35 -16 34 -17 33 -19 32 -21 31 -21 29 -23 28 -24 27 -25 25 -26 24 -28 22 -28 21 -29 19 -30 18 -31 16 -31 14 -33 13 -33 10 -33 9 -34 7 -35 5 -36 3 -36 1 -36 185 0 -1 47 -4 46 -6 46 -9 45 -12 44 -13 43 -16 42 -19 41 -20 40 -22 39 -24 38 -27 37 -28 35 -29 34 -32 33 -33 31 -35 30 -36 28 -37 26 -39 25 -41 23 -41 22 -43 20 -44 17 -45 16 -46 14 -47 12 -47 10 -49 8 -50 5 -50 4 -50 1 0 0zm-23024 -184l23024 0 0 184 -23024 0 0 0 0 -184zm-996 -718l186 0 0 0 1 36 3 36 5 36 7 35 8 34 11 33 13 33 14 33 16 31 17 31 19 30 21 29 23 28 23 28 26 26 26 25 28 24 30 23 30 21 32 21 33 19 34 17 35 16 36 15 37 13 38 11 39 10 40 9 40 6 41 5 42 3 42 1 0 184 -51 -1 -50 -4 -49 -5 -49 -8 -48 -10 -46 -12 -46 -14 -46 -16 -43 -17 -43 -20 -42 -22 -40 -23 -39 -25 -38 -26 -36 -28 -34 -30 -34 -31 -31 -33 -30 -34 -28 -35 -26 -37 -24 -38 -23 -39 -20 -40 -18 -41 -16 -42 -14 -43 -11 -44 -9 -45 -6 -46 -4 -46 -2 -47 0 0zm186 -6883l0 6883 -186 0 0 -6883 0 0 186 0zm810 -903l0 185 0 0 -42 1 -42 3 -41 4 -40 7 -40 8 -39 10 -38 11 -37 13 -36 15 -35 16 -34 18 -33 19 -32 20 -30 22 -30 22 -28 24 -26 26 -26 26 -23 27 -23 28 -21 29 -19 30 -17 31 -16 31 -14 33 -13 33 -11 33 -8 35 -7 35 -5 35 -3 36 -1 37 -186 0 2 -47 4 -47 6 -45 9 -45 11 -44 14 -43 16 -43 18 -41 20 -40 23 -39 24 -38 26 -37 28 -35 30 -34 31 -33 34 -31 34 -29 36 -28 38 -27 39 -25 40 -23 42 -22 43 -19 43 -18 45 -16 46 -14 47 -12 48 -10 49 -7 49 -6 50 -3 51 -2 0 0z"/>
   </g>
   <path class="fil1" d="M44513 65481l420 106c-87,345 -245,607 -473,787 -228,181 -507,272 -837,272 -341,0 -618,-69 -832,-209 -214,-139 -376,-340 -488,-603 -111,-264 -167,-547 -167,-849 0,-330 63,-618 189,-864 126,-245 305,-432 538,-559 232,-128 488,-191 767,-191 317,0 583,80 799,242 216,161 366,388 451,680l-412 97c-72,-230 -179,-398 -319,-503 -139,-106 -315,-158 -527,-158 -242,0 -446,58 -609,175 -163,116 -278,274 -344,470 -66,197 -99,400 -99,608 0,270 39,505 117,706 78,201 200,351 365,450 165,100 344,149 536,149 235,0 433,-68 595,-203 162,-135 272,-336 330,-603z"/>
   <path id="1" class="fil1" d="M46904 66305c-145,123 -285,210 -418,260 -134,51 -277,76 -430,76 -252,0 -446,-61 -582,-184 -136,-122 -204,-280 -204,-471 0,-112 26,-214 77,-307 52,-93 119,-167 201,-223 84,-56 177,-99 281,-128 76,-20 192,-39 346,-58 315,-37 547,-82 695,-133 2,-54 3,-87 3,-101 0,-158 -37,-270 -111,-335 -100,-87 -248,-131 -444,-131 -184,0 -320,32 -407,97 -87,64 -152,177 -194,341l-380 -53c34,-163 91,-295 171,-395 80,-101 195,-177 345,-232 150,-54 325,-81 522,-81 197,0 357,23 480,69 122,47 213,104 271,174 57,70 98,159 121,266 13,66 19,186 19,358l0 516c0,361 9,589 25,685 15,97 48,189 95,278l-407 0c-39,-82 -64,-178 -75,-288zm-31 -863c-142,58 -355,106 -638,146 -161,23 -274,49 -341,77 -66,29 -117,71 -153,126 -36,55 -55,116 -55,184 0,103 39,189 118,258 79,68 194,103 346,103 149,0 283,-32 400,-98 117,-65 203,-154 258,-267 42,-88 62,-217 62,-387l3 -142z"/>
   <path id="2" class="fil1" d="M47865 66593l0 -2297 349 0 0 326c169,-250 412,-375 730,-375 139,0 265,25 381,74 116,50 203,116 261,196 57,80 98,176 121,287 14,72 21,198 21,378l0 1411 -389 0 0 -1396c0,-159 -15,-277 -45,-356 -31,-78 -85,-140 -161,-188 -77,-46 -168,-70 -271,-70 -165,0 -308,53 -428,158 -120,105 -180,305 -180,598l0 1254 -389 0z"/>
   <path id="3" class="fil1" d="M51827 65752l380 53c-42,262 -148,466 -320,614 -172,149 -383,222 -633,222 -314,0 -566,-102 -757,-307 -191,-205 -286,-499 -286,-881 0,-248 42,-464 123,-650 82,-185 207,-324 375,-417 168,-93 350,-139 548,-139 248,0 452,63 610,189 159,126 261,305 305,537l-376 57c-36,-154 -100,-270 -192,-348 -92,-77 -202,-116 -332,-116 -196,0 -356,70 -479,210 -122,141 -183,362 -183,666 0,308 59,532 177,671 118,140 273,210 462,210 154,0 281,-47 383,-140 103,-93 167,-237 195,-431z"/>
   <path id="4" class="fil1" d="M54106 65849l403 53c-63,234 -180,416 -351,545 -171,130 -390,194 -656,194 -335,0 -600,-103 -797,-309 -196,-206 -294,-496 -294,-869 0,-385 99,-684 297,-897 199,-213 456,-319 773,-319 306,0 556,104 750,313 194,208 291,502 291,880 0,23 0,58 -2,104l-1711 0c15,251 86,445 214,578 128,134 288,201 479,201 142,0 264,-38 365,-113 101,-75 180,-196 239,-361zm-1274 -624l1279 0c-17,-193 -67,-338 -147,-434 -123,-150 -284,-225 -481,-225 -179,0 -328,59 -450,179 -121,119 -188,279 -201,480z"/>
   <polygon id="5" class="fil1" points="54992,66593 54992,63424 55382,63424 55382,66593 "/>
   <g id="_2490759029200">
    <path class="fil6" d="M100884 12355l-1332 5861c-39,230 115,448 345,488 15,3 31,4 46,5l11192 0c231,-12 409,-208 397,-439 -1,-18 -3,-36 -6,-54l-1332 -5861c-46,-179 -206,-305 -391,-307l-1865 0c-221,0 -400,179 -400,400 0,221 179,400 400,400l1546 0 1152 5063 -10186 0 1151 -5064 1540 1c221,0 400,-179 400,-400 0,-221 -179,-400 -400,-400l0 0 -1865 0c-184,5 -343,129 -391,307l-1 0 0 0z"/>
    <path class="fil6" d="M105539 17110c-101,-5 -197,-43 -275,-106l-2265 -2132c-149,-161 -164,-404 -36,-582 162,-159 422,-157 582,5l1591 1501 0 -8412c0,-221 179,-400 399,-400 221,0 400,179 400,400l0 8407 1590 -1501c165,-148 415,-150 582,-4 134,175 119,423 -36,582l-2265 2131c-69,74 -166,115 -267,111l0 0z"/>
   </g>
   <g>
    <polygon class="fil1" points="100201,27383 6776,27383 6776,27199 100201,27199 "/>
   </g>
  </g>
 </g>
</svg>
