<?xml version="1.0" encoding="UTF-8"?>
<!DOCTYPE svg PUBLIC "-//W3C//DTD SVG 1.1//EN" "http://www.w3.org/Graphics/SVG/1.1/DTD/svg11.dtd">
<!-- Creator: CorelDRAW X8 -->
<svg xmlns="http://www.w3.org/2000/svg" xml:space="preserve" width="7.11065in" height="2in" version="1.1" style="shape-rendering:geometricPrecision; text-rendering:geometricPrecision; image-rendering:optimizeQuality; fill-rule:evenodd; clip-rule:evenodd"
viewBox="0 0 247646 69655"
 xmlns:xlink="http://www.w3.org/1999/xlink">
 <defs>
  <style type="text/css">
   <![CDATA[
    .fil3 {fill:#FEFEFE}
    .fil2 {fill:#FEFEFE}
    .fil6 {fill:#347954}
    .fil1 {fill:#1A237E}
    .fil4 {fill:white}
    .fil0 {fill:#1A237E;fill-rule:nonzero}
    .fil5 {fill:#26263A;fill-rule:nonzero}
   ]]>
  </style>
 </defs>
 <g id="Layer_x0020_1">
  <metadata id="CorelCorpID_0Corel-Layer"/>
  <g id="_2490697029520">
   <g>
    <polygon class="fil0" points="179528,35445 69655,35445 69655,34211 179528,34211 "/>
   </g>
   <g id="_2490697042896">
    <rect class="fil1" x="89732" width="69655" height="69655"/>
    <rect class="fil2" x="91814" y="2082" width="65491" height="65491"/>
   </g>
   <g id="_2490697041808">
    <rect class="fil1" x="177991" width="69655" height="69655"/>
    <rect class="fil2" x="180073" y="2082" width="65491" height="65491"/>
   </g>
   <g id="_2490697039856">
    <rect class="fil1" width="69655" height="69655"/>
    <rect class="fil2" x="2082" y="2082" width="65491" height="65491"/>
   </g>
   <path class="fil3" d="M243979 65842l-62320 0c-3,0 -7,0 -10,0 -323,0 -585,-262 -585,-585 0,-4 0,-8 0,-12l0 -62667c0,-4 0,-8 0,-11 0,-324 262,-586 585,-586 3,0 7,0 10,0l62320 0c3,0 6,0 10,0 323,0 585,262 585,586 0,3 0,7 0,11l0 62667c0,4 0,8 0,12 0,323 -262,585 -585,585 -4,0 -7,0 -10,0l0 0z"/>
   <g id="_2490697034160">
    <path class="fil1" d="M213098 34513c186,-58 371,-107 564,-164 3169,-819 6068,-2486 8372,-4815 1268,-1255 2141,-2859 2506,-4605 97,-502 146,-1014 146,-1526 0,-1594 -472,-3154 -1354,-4481 -1739,-2668 -4362,-4645 -7407,-5578 -1130,-392 -2322,-592 -3518,-592 -339,0 -680,17 -1016,48 -1932,224 -3716,1160 -4999,2621 -2452,2602 -4070,5894 -4629,9427 -151,742 -229,1502 -229,2261 0,670 60,1343 179,2002 373,1688 1291,3210 2607,4330 2311,2176 5371,3391 8546,3391 108,0 218,-4 324,-5 1742,-6 3435,-579 4822,-1629 212,-146 458,-237 715,-264 219,-15 440,-24 660,-24 141,0 286,3 426,10 -151,121 -243,199 -336,271 -1467,1032 -3180,1669 -4964,1842 -804,112 -1615,173 -2427,173 -2034,0 -4059,-366 -5966,-1073 -1937,-664 -3626,-1914 -4828,-3571 -1035,-1521 -1590,-3321 -1590,-5161 0,-268 14,-537 36,-804 201,-4578 2300,-8872 5790,-11841 1656,-1426 3732,-2277 5913,-2421 521,-53 1050,-81 1576,-81 3295,0 6506,1062 9152,3024 2082,1401 3519,3580 3986,6045 117,590 177,1194 177,1797 0,2390 -933,4689 -2599,6403 -1897,1953 -4256,3412 -6851,4236 -993,345 -2029,571 -3057,828 -129,15 -259,24 -389,24 -111,0 -222,-6 -332,-18 -5,-20 -7,-40 -7,-61 0,-6 0,-13 1,-19z"/>
    <path class="fil1" d="M209098 29478c-550,-36 -1393,-93 -2235,-150 -528,-25 -989,-362 -1172,-857 -200,-451 -21,-686 471,-650 986,57 1972,157 2957,150 119,1 241,5 362,5 2014,0 4007,-452 5824,-1320 1133,-561 2123,-1381 2885,-2392 321,-428 685,-457 1164,-100 492,372 593,786 278,1209 -1383,1782 -3343,3034 -5543,3536 -1515,379 -3075,572 -4639,572 -116,0 -237,-2 -352,-2l0 -1z"/>
    <path class="fil1" d="M217898 18114c235,14 478,21 707,50 588,62 1043,545 1069,1136 36,393 -142,564 -542,550 -273,-21 -548,-31 -822,-31 -152,0 -307,4 -458,9 -873,55 -1659,556 -2077,1325 -215,357 -429,385 -743,115 -316,-227 -503,-593 -503,-982 0,-283 100,-558 281,-775 674,-885 1723,-1406 2836,-1406 84,0 168,3 252,9l0 0z"/>
    <path class="fil1" d="M206627 24135c-204,-66 -403,-150 -593,-250 -187,-100 -303,-295 -303,-507 0,-94 23,-188 68,-271 656,-1486 1692,-2528 3378,-2714 45,-2 90,-4 135,-4 329,0 655,64 959,189 223,94 368,312 368,554 0,66 -11,132 -32,195 -63,291 -321,500 -619,500 -3,0 -7,0 -10,0 -1092,32 -2051,734 -2414,1764 -148,334 -478,549 -843,549 -31,0 -63,-2 -94,-5l0 0z"/>
   </g>
   <path class="fil4" d="M155514 65842l-62664 0c-4,0 -8,0 -11,0 -325,0 -588,-263 -588,-587 0,-3 0,-7 0,-10l0 -62667c0,-3 0,-6 0,-10 0,-324 263,-587 588,-587 3,0 7,0 11,0l62664 0c3,0 8,0 12,0 324,0 587,263 587,587 0,4 0,7 0,10l-1 62667c1,3 1,7 1,10 0,324 -263,587 -587,587 -4,0 -9,0 -12,0l0 0z"/>
   <polygon class="fil5" points="104011,48610 104011,43664 104550,43664 104550,48610 "/>
   <path id="1" class="fil5" d="M105413 48610l0 -3585 449 0 0 507c99,-187 225,-331 379,-431 155,-101 323,-152 508,-152 206,0 380,53 521,160 142,106 243,261 304,466 118,-208 252,-365 404,-469 152,-105 320,-157 505,-157 282,0 504,96 666,287 162,191 243,496 243,916l0 2458 -497 0 0 -2256c0,-256 -19,-438 -56,-545 -38,-106 -97,-189 -180,-247 -84,-59 -178,-88 -281,-88 -214,0 -388,85 -524,255 -135,170 -203,436 -203,801l0 2080 -497 0 0 -2326c0,-298 -45,-506 -136,-628 -91,-121 -216,-182 -375,-182 -226,0 -404,92 -536,275 -131,183 -197,517 -197,1003l0 1858 -497 0z"/>
   <path id="2" class="fil5" d="M110132 49985l0 -4960 463 0 0 471c112,-193 236,-333 373,-418 137,-86 294,-129 470,-129 231,0 440,69 625,206 187,137 335,346 449,625 113,280 169,617 169,1011 0,609 -128,1079 -382,1408 -255,330 -554,494 -898,494 -153,0 -295,-39 -428,-117 -133,-79 -247,-190 -343,-333l0 1742 -498 0zm457 -3142c0,463 78,805 232,1023 154,221 341,330 559,330 210,0 394,-114 552,-341 159,-227 238,-578 238,-1052 0,-469 -77,-815 -231,-1040 -154,-224 -341,-337 -562,-337 -199,0 -380,121 -544,362 -162,242 -244,593 -244,1055z"/>
   <path id="3" class="fil5" d="M113096 46821c0,-618 130,-1084 389,-1400 259,-314 588,-472 985,-472 392,0 718,158 981,472 263,316 394,769 394,1363 0,643 -129,1122 -388,1437 -258,314 -587,472 -987,472 -392,0 -720,-158 -982,-474 -261,-316 -392,-782 -392,-1398zm511 -2c0,465 84,810 252,1037 168,227 377,340 625,340 233,0 433,-114 600,-343 167,-229 250,-574 250,-1034 0,-462 -84,-806 -252,-1033 -168,-227 -377,-339 -625,-339 -235,0 -435,114 -601,341 -166,227 -249,571 -249,1031z"/>
   <path id="4" class="fil5" d="M116432 48610l0 -3585 449 0 0 549c115,-252 220,-419 316,-502 95,-81 202,-123 322,-123 166,0 336,65 509,194l-166 566c-124,-87 -244,-131 -361,-131 -106,0 -203,37 -290,111 -89,74 -151,178 -187,310 -63,232 -94,477 -94,738l0 1873 -498 0z"/>
   <path id="5" class="fil5" d="M119430 48065l69 538c-138,37 -262,56 -373,56 -173,0 -313,-35 -420,-104 -106,-68 -178,-162 -217,-282 -41,-119 -60,-357 -60,-713l0 -2065 -366 0 0 -470 366 0 0 -884 497 -366 0 1250 504 0 0 470 -504 0 0 2100c0,194 15,319 44,375 42,82 123,122 240,122 57,0 130,-9 220,-27z"/>
   <polygon id="6" class="fil5" points="121641,48610 121641,43664 122180,43664 122180,48610 "/>
   <path id="7" class="fil5" d="M123043 48610l0 -3585 449 0 0 514c109,-198 240,-346 395,-444 157,-97 335,-146 537,-146 157,0 302,31 436,93 134,61 241,142 322,242 82,100 143,230 183,390 41,159 61,405 61,735l0 2201 -497 0 0 -2178c0,-264 -22,-456 -67,-577 -45,-121 -115,-215 -210,-282 -96,-65 -205,-99 -332,-99 -237,0 -426,89 -567,266 -142,179 -212,483 -212,914l0 1956 -498 0z"/>
   <path id="8" class="fil5" d="M127021 48610l-1110 -3585 517 0 630 2145c72,243 134,484 189,722 42,-189 103,-416 183,-682l656 -2185 518 0 -1114 3585 -469 0z"/>
   <path id="9" class="fil5" d="M131037 47464l511 76c-85,381 -241,669 -464,862 -225,194 -502,291 -832,291 -417,0 -753,-158 -1011,-474 -258,-316 -387,-772 -387,-1368 0,-618 130,-1089 390,-1415 260,-325 588,-487 988,-487 380,0 698,159 952,478 253,319 381,780 381,1385l-3 161 -2197 0c21,404 114,709 281,914 167,206 369,309 609,309 374,0 635,-244 782,-732zm-1642 -988l1642 0c-23,-311 -89,-542 -200,-696 -160,-222 -363,-333 -611,-333 -223,0 -413,93 -571,278 -158,186 -244,435 -260,751z"/>
   <path id="10" class="fil5" d="M132176 48610l0 -3585 450 0 0 514c108,-198 239,-346 394,-444 157,-97 335,-146 537,-146 158,0 303,31 436,93 134,61 241,142 323,242 81,100 142,230 183,390 40,159 61,405 61,735l0 2201 -498 0 0 -2178c0,-264 -22,-456 -66,-577 -45,-121 -116,-215 -211,-282 -96,-65 -205,-99 -332,-99 -237,0 -426,89 -567,266 -142,179 -212,483 -212,914l0 1956 -498 0z"/>
   <path id="11" class="fil5" d="M136439 48065l69 538c-138,37 -263,56 -373,56 -174,0 -314,-35 -421,-104 -106,-68 -178,-162 -217,-282 -41,-119 -60,-357 -60,-713l0 -2065 -366 0 0 -470 366 0 0 -884 497 -366 0 1250 505 0 0 470 -505 0 0 2100c0,194 15,319 44,375 43,82 123,122 241,122 56,0 130,-9 220,-27z"/>
   <path id="12" class="fil5" d="M136715 46821c0,-618 130,-1084 389,-1400 259,-314 588,-472 986,-472 391,0 717,158 981,472 262,316 393,769 393,1363 0,643 -129,1122 -388,1437 -258,314 -587,472 -986,472 -393,0 -721,-158 -982,-474 -262,-316 -393,-782 -393,-1398zm511 -2c0,465 84,810 252,1037 168,227 377,340 625,340 233,0 433,-114 600,-343 167,-229 250,-574 250,-1034 0,-462 -84,-806 -252,-1033 -168,-227 -377,-339 -625,-339 -235,0 -435,114 -601,341 -166,227 -249,571 -249,1031z"/>
   <path id="13" class="fil5" d="M140051 48610l0 -3585 449 0 0 549c116,-252 220,-419 316,-502 95,-81 202,-123 322,-123 166,0 336,65 509,194l-166 566c-124,-87 -244,-131 -361,-131 -106,0 -203,37 -290,111 -89,74 -151,178 -187,310 -63,232 -94,477 -94,738l0 1873 -498 0z"/>
   <path id="14" class="fil5" d="M141923 49985l-55 -567c110,37 204,56 282,56 105,0 193,-22 260,-65 68,-42 125,-109 170,-199 16,-32 80,-236 194,-614l-1106 -3571 536 0 611 2061c75,257 146,531 210,823 57,-276 124,-547 203,-810l627 -2074 500 0 -1117 3646c-146,471 -261,786 -345,944 -84,158 -180,272 -287,341 -107,70 -228,105 -363,105 -94,0 -200,-25 -320,-76z"/>
   <path id="15" class="fil5" d="M113754 52184l0 -698 498 0 0 698 -498 0zm0 4248l0 -3585 498 0 0 3585 -498 0z"/>
   <path id="16" class="fil5" d="M115013 56432l0 -3585 449 0 0 514c108,-199 239,-346 395,-444 156,-97 335,-146 536,-146 158,0 303,31 437,93 133,61 240,142 322,242 82,100 143,230 183,390 40,159 61,405 61,735l0 2201 -497 0 0 -2178c0,-264 -22,-456 -67,-577 -45,-121 -115,-215 -211,-282 -95,-65 -205,-99 -331,-99 -238,0 -426,89 -568,266 -142,179 -212,482 -212,914l0 1956 -497 0z"/>
   <path id="17" class="fil5" d="M121720 54491l0 -580 1714 0 0 1834c-263,255 -536,448 -817,577 -281,129 -570,193 -867,193 -396,0 -748,-99 -1059,-297 -310,-198 -556,-486 -737,-866 -181,-380 -271,-837 -271,-1369 0,-539 90,-1009 273,-1410 182,-400 421,-695 715,-885 295,-190 644,-285 1047,-285 297,0 556,56 780,166 222,111 406,267 550,470 144,204 251,481 323,836l-483 159c-66,-280 -148,-489 -247,-627 -99,-138 -229,-247 -391,-325 -162,-80 -344,-119 -547,-119 -295,0 -548,71 -761,214 -213,143 -383,365 -512,667 -130,301 -195,669 -195,1103 0,662 138,1157 416,1487 276,329 636,494 1080,494 212,0 428,-51 649,-152 222,-101 398,-222 529,-361l0 -924 -1189 0z"/>
   <path id="18" class="fil5" d="M124146 52184l0 -698 497 0 0 698 -497 0zm0 4248l0 -3585 497 0 0 3585 -497 0z"/>
   <path id="19" class="fil5" d="M127311 56432l0 -448c-90,173 -206,304 -348,395 -141,91 -294,136 -459,136 -347,0 -646,-163 -899,-490 -253,-327 -380,-788 -380,-1382 0,-407 56,-752 169,-1035 112,-283 263,-494 450,-631 188,-137 396,-206 626,-206 164,0 317,43 458,129 140,86 256,207 348,361l0 -1775 498 0 0 4946 -463 0zm-1575 -1785c0,464 81,808 241,1033 161,225 348,338 562,338 211,0 394,-109 550,-325 155,-215 232,-542 232,-979 0,-503 -77,-869 -232,-1099 -156,-231 -351,-347 -587,-347 -210,0 -390,111 -540,333 -151,222 -226,570 -226,1046z"/>
   <path id="20" class="fil5" d="M130461 56432l0 -448c-90,173 -206,304 -348,395 -141,91 -294,136 -459,136 -347,0 -646,-163 -899,-490 -254,-327 -380,-788 -380,-1382 0,-407 56,-752 169,-1035 112,-283 262,-494 450,-631 188,-137 396,-206 626,-206 164,0 317,43 458,129 140,86 256,207 348,361l0 -1775 498 0 0 4946 -463 0zm-1575 -1785c0,464 80,808 241,1033 161,225 348,338 561,338 212,0 395,-109 551,-325 155,-215 232,-542 232,-979 0,-503 -77,-869 -232,-1099 -156,-231 -351,-347 -587,-347 -210,0 -390,111 -540,333 -151,222 -226,570 -226,1046z"/>
   <path id="21" class="fil5" d="M131704 56432l0 -4946 498 0 0 1780c116,-166 248,-289 396,-372 146,-81 308,-123 486,-123 312,0 559,99 740,298 181,199 270,564 270,1094l0 2269 -497 0 0 -2267c0,-309 -55,-532 -165,-666 -110,-135 -261,-203 -453,-203 -215,0 -399,87 -551,259 -150,173 -226,480 -226,920l0 1957 -498 0z"/>
   <g id="_2490697029680">
    <path class="fil1" d="M115417 22312l-2616 11514c-8,46 -12,94 -12,142 0,438 342,801 779,826l21981 0c437,-23 781,-384 781,-822 0,-49 -5,-98 -13,-146l-2617 -11514c-90,-351 -405,-598 -767,-602l-3664 0c-7,0 -14,0 -21,0 -434,0 -786,352 -786,785 0,434 352,786 786,786 7,0 14,-1 21,-1l3036 0 2258 9945 -19999 0 2259 -9944 3027 0c7,0 15,1 22,1 433,0 785,-352 785,-786 0,-433 -352,-785 -785,-785 -7,0 -15,0 -22,0l-3665 0c-360,10 -672,254 -767,602l-1 -1z"/>
    <path class="fil1" d="M124556 31654c-197,-12 -387,-85 -540,-210l-4448 -4187c-154,-167 -240,-387 -240,-614 0,-190 60,-375 170,-529 151,-148 355,-231 567,-231 216,0 424,86 576,240l3122 2948 0 -16522c12,-425 360,-764 785,-764 425,0 774,339 785,764l0 16512 3123 -2948c158,-142 363,-221 576,-221 208,0 409,76 566,212 117,152 180,339 180,531 0,229 -90,448 -249,612l-4449 4187c-129,139 -311,218 -501,218 -7,0 -15,0 -22,0l-1 2z"/>
   </g>
   <path class="fil5" d="M20196 47015l511 -49c27,272 88,484 184,636 95,152 231,274 408,366 178,92 378,138 599,138 319,0 566,-78 742,-234 177,-156 264,-359 264,-608 0,-146 -32,-272 -97,-382 -63,-108 -160,-198 -290,-267 -129,-70 -408,-168 -838,-293 -382,-113 -654,-227 -816,-341 -162,-115 -289,-262 -379,-438 -91,-176 -136,-376 -136,-598 0,-401 129,-728 388,-983 258,-254 607,-381 1045,-381 301,0 565,60 790,179 226,120 401,291 527,513 124,223 191,485 200,787l-511 48c-27,-321 -123,-560 -289,-714 -165,-155 -397,-232 -697,-232 -304,0 -535,68 -695,203 -160,136 -240,311 -240,527 0,200 59,355 177,465 116,110 379,221 789,332 401,109 682,204 844,284 248,125 434,290 559,496 125,206 187,451 187,737 0,283 -67,541 -199,773 -132,234 -313,410 -541,532 -228,121 -502,182 -824,182 -501,0 -901,-151 -1198,-452 -298,-302 -452,-711 -464,-1226z"/>
   <path id="1" class="fil5" d="M25998 48169c-167,174 -340,304 -520,392 -180,88 -367,132 -560,132 -307,0 -551,-92 -732,-277 -183,-185 -274,-433 -274,-746 0,-207 42,-391 128,-551 86,-160 203,-285 352,-375 148,-90 374,-156 675,-199 406,-58 704,-127 893,-207l3 -156c0,-246 -44,-419 -131,-519 -123,-144 -313,-216 -569,-216 -231,0 -404,48 -519,143 -114,96 -198,277 -252,540l-498 -89c71,-381 211,-658 424,-832 213,-173 518,-260 914,-260 309,0 551,58 727,174 175,115 286,259 332,430 46,171 70,420 70,748l0 809c0,567 10,924 32,1071 21,146 63,290 126,429l-518 0c-53,-123 -87,-270 -103,-441zm-38 -1355c-182,90 -454,166 -814,228 -210,36 -356,77 -439,123 -84,47 -148,112 -195,196 -46,84 -69,182 -69,293 0,170 53,307 159,409 106,103 252,154 439,154 178,0 340,-47 485,-139 145,-92 254,-215 325,-369 73,-153 109,-378 109,-673l0 -222z"/>
   <path id="2" class="fil5" d="M28062 48610l-1110 -3585 517 0 630 2145c72,243 134,484 189,722 42,-189 103,-416 183,-682l656 -2185 518 0 -1114 3585 -469 0z"/>
   <path id="3" class="fil5" d="M32078 47464l511 76c-85,381 -241,669 -464,862 -224,194 -502,291 -832,291 -417,0 -753,-158 -1011,-474 -258,-316 -387,-772 -387,-1368 0,-618 130,-1089 390,-1415 260,-325 588,-487 988,-487 380,0 698,159 952,478 253,319 381,780 381,1385l-3 161 -2197 0c21,404 114,709 281,914 167,206 369,309 609,309 374,0 635,-244 782,-732zm-1642 -988l1642 0c-23,-311 -89,-542 -200,-696 -160,-222 -363,-333 -611,-333 -223,0 -413,93 -571,278 -158,186 -244,435 -260,751z"/>
   <path id="4" class="fil5" d="M36699 48610l0 -448c-90,173 -206,304 -348,395 -141,91 -294,136 -459,136 -346,0 -646,-163 -899,-490 -253,-327 -380,-788 -380,-1382 0,-407 56,-752 169,-1035 112,-283 263,-494 450,-631 188,-137 396,-206 627,-206 163,0 316,43 457,129 140,86 256,207 348,362l0 -1776 498 0 0 4946 -463 0zm-1575 -1785c0,464 81,808 241,1033 161,225 349,338 562,338 211,0 395,-108 550,-325 155,-215 232,-542 232,-978 0,-504 -77,-870 -232,-1100 -155,-231 -351,-346 -587,-346 -210,0 -389,110 -540,332 -151,222 -226,570 -226,1046z"/>
   <path id="5" class="fil5" d="M39856 48169c-167,174 -340,304 -519,392 -181,88 -368,132 -561,132 -306,0 -550,-92 -732,-277 -183,-185 -274,-433 -274,-746 0,-207 42,-391 129,-551 85,-160 202,-285 351,-375 148,-90 374,-156 676,-199 405,-58 703,-127 892,-207l3 -156c0,-246 -43,-419 -131,-519 -123,-144 -313,-216 -569,-216 -231,0 -404,48 -519,143 -114,96 -198,277 -252,540l-497 -89c70,-381 210,-658 423,-832 213,-173 518,-260 914,-260 309,0 551,58 727,174 175,115 287,259 333,430 46,171 69,420 69,748l0 809c0,567 10,924 32,1071 21,146 63,290 127,429l-518 0c-53,-123 -88,-270 -104,-441zm-38 -1355c-182,90 -454,166 -814,228 -210,36 -356,77 -439,123 -84,47 -148,112 -194,196 -46,84 -69,182 -69,293 0,170 53,307 159,409 105,103 252,154 438,154 179,0 340,-47 485,-139 145,-92 254,-215 326,-369 72,-153 108,-378 108,-673l0 -222z"/>
   <path id="6" class="fil5" d="M42205 48065l69 538c-138,37 -263,56 -373,56 -174,0 -314,-35 -421,-104 -106,-68 -178,-162 -217,-282 -41,-119 -60,-357 -60,-713l0 -2065 -366 0 0 -470 366 0 0 -884 497 -366 0 1250 505 0 0 470 -505 0 0 2100c0,194 15,319 44,375 43,82 123,122 241,122 56,0 130,-9 220,-27z"/>
   <path id="7" class="fil5" d="M44581 48169c-167,174 -340,304 -519,392 -181,88 -368,132 -561,132 -306,0 -550,-92 -732,-277 -183,-185 -274,-433 -274,-746 0,-207 42,-391 129,-551 85,-160 202,-285 351,-375 148,-90 374,-156 676,-199 405,-58 703,-127 892,-207l3 -156c0,-246 -43,-419 -131,-519 -123,-144 -313,-216 -569,-216 -231,0 -404,48 -519,143 -114,96 -198,277 -252,540l-497 -89c70,-381 210,-658 423,-832 213,-173 518,-260 914,-260 309,0 551,58 727,174 175,115 287,259 333,430 46,171 69,420 69,748l0 809c0,567 10,924 32,1071 21,146 63,290 127,429l-518 0c-53,-123 -88,-270 -104,-441zm-38 -1355c-182,90 -454,166 -814,228 -210,36 -356,77 -439,123 -84,47 -148,112 -194,196 -46,84 -69,182 -69,293 0,170 53,307 159,409 105,103 252,154 438,154 179,0 340,-47 485,-139 145,-92 254,-215 326,-369 72,-153 108,-378 108,-673l0 -222z"/>
   <path id="8" class="fil5" d="M45817 44362l0 -698 498 0 0 698 -498 0zm0 4248l0 -3585 498 0 0 3585 -498 0z"/>
   <path id="9" class="fil5" d="M47076 48610l0 -3585 449 0 0 514c108,-198 239,-346 395,-444 156,-97 335,-146 536,-146 158,0 303,31 436,93 134,61 241,142 323,242 82,100 143,230 183,390 40,159 61,405 61,735l0 2201 -498 0 0 -2178c0,-264 -21,-456 -66,-577 -45,-121 -115,-215 -211,-282 -96,-65 -205,-99 -331,-99 -238,0 -427,89 -568,266 -142,179 -212,483 -212,914l0 1956 -497 0z"/>
   <polygon id="10" class="fil5" points="21102,56432 21102,55741 21668,55741 21668,56432 "/>
   <path id="11" class="fil5" d="M24438 55127l498 76c-57,426 -198,751 -424,976 -227,224 -498,336 -815,336 -386,0 -702,-158 -951,-474 -249,-316 -373,-783 -373,-1401 0,-623 125,-1091 376,-1401 252,-312 575,-468 969,-468 305,0 560,95 769,283 208,189 342,472 400,850l-483 90c-48,-243 -129,-425 -247,-545 -117,-121 -258,-181 -422,-181 -245,0 -448,109 -609,326 -161,218 -242,563 -242,1035 0,490 77,843 230,1061 153,218 349,328 589,328 188,0 348,-73 482,-217 132,-145 218,-369 253,-674z"/>
   <path id="12" class="fil5" d="M25158 55362l497 -90c29,252 108,440 239,562 130,123 301,184 517,184 215,0 381,-54 498,-161 118,-108 176,-243 176,-408 0,-142 -49,-252 -148,-332 -69,-54 -238,-120 -505,-202 -386,-119 -645,-220 -777,-303 -131,-83 -233,-195 -306,-334 -73,-139 -108,-298 -108,-475 0,-305 98,-554 293,-745 196,-191 468,-287 814,-287 218,0 410,39 576,119 165,78 291,185 380,317 87,134 148,324 182,573l-484 89c-45,-400 -259,-601 -640,-601 -217,0 -379,44 -486,131 -106,86 -159,196 -159,331 0,133 51,237 153,313 62,45 243,118 546,217 414,125 680,228 800,306 120,77 213,184 280,318 67,134 100,294 100,480 0,343 -108,620 -326,832 -216,213 -512,319 -888,319 -704,0 -1111,-384 -1224,-1153z"/>
   <path id="13" class="fil5" d="M29013 56432l-1110 -3585 517 0 629 2145c73,243 135,484 189,722 43,-189 104,-416 183,-682l656 -2185 518 0 -1114 3585 -468 0z"/>
   <path id="14" class="fil5" d="M33546 57883c-247,-387 -472,-864 -675,-1430 -204,-565 -306,-1172 -306,-1817 0,-1092 327,-2170 981,-3233l360 0c-253,529 -425,939 -521,1229 -95,291 -170,611 -225,959 -56,349 -83,699 -83,1052 0,1079 276,2159 829,3240l-360 0z"/>
   <path id="15" class="fil5" d="M36489 55285l511 77c-85,381 -240,669 -464,862 -224,194 -502,291 -832,291 -417,0 -753,-158 -1011,-474 -258,-316 -387,-772 -387,-1368 0,-618 130,-1089 391,-1415 260,-325 588,-487 987,-487 380,0 698,159 953,478 253,319 381,780 381,1385l-4 161 -2197 0c21,404 115,709 281,914 167,206 370,309 609,309 375,0 636,-244 782,-733zm-1642 -987l1642 0c-23,-311 -89,-542 -199,-696 -160,-222 -364,-334 -611,-334 -224,0 -414,94 -571,279 -158,185 -245,435 -261,751z"/>
   <path id="16" class="fil5" d="M37304 56432l1073 -1858 -990 -1727 618 0 456 841c84,155 151,285 202,393 84,-146 158,-274 222,-384l490 -850 596 0 -1007 1680 1089 1905 -610 0 -606 -1112 -156 -302 -774 1414 -603 0z"/>
   <path id="17" class="fil5" d="M42383 55127l497 76c-56,426 -198,751 -424,976 -227,224 -498,336 -815,336 -385,0 -702,-158 -951,-474 -248,-316 -373,-783 -373,-1401 0,-623 126,-1091 377,-1401 252,-312 574,-468 968,-468 305,0 561,95 769,283 208,189 342,472 401,850l-484 90c-47,-243 -129,-425 -246,-545 -118,-121 -258,-181 -423,-181 -245,0 -448,109 -609,326 -161,218 -242,563 -242,1035 0,490 78,843 231,1061 153,218 348,328 588,328 189,0 349,-73 482,-217 133,-145 218,-369 254,-674z"/>
   <path id="18" class="fil5" d="M45306 55285l511 77c-85,381 -241,669 -464,862 -224,194 -502,291 -832,291 -417,0 -753,-158 -1011,-474 -258,-316 -387,-772 -387,-1368 0,-618 130,-1089 390,-1415 260,-325 588,-487 988,-487 380,0 698,159 952,478 253,319 381,780 381,1385l-3 161 -2197 0c21,404 114,709 281,914 167,206 370,309 609,309 374,0 636,-244 782,-733zm-1642 -987l1642 0c-23,-311 -89,-542 -199,-696 -160,-222 -364,-334 -612,-334 -223,0 -413,94 -571,279 -157,185 -244,435 -260,751z"/>
   <polygon id="19" class="fil5" points="46432,56432 46432,51486 46929,51486 46929,56432 "/>
   <path id="20" class="fil5" d="M47904 57883l-359 0c553,-1081 829,-2161 829,-3240 0,-353 -28,-703 -83,-1052 -55,-348 -130,-668 -224,-959 -96,-290 -270,-700 -522,-1229l359 0c654,1063 981,2141 981,3233 0,628 -98,1224 -293,1789 -196,566 -425,1051 -688,1458z"/>
   <polygon class="fil5" points="205938,48610 205938,43664 208867,43664 208867,44245 206477,44245 206477,45764 208722,45764 208722,46345 206477,46345 206477,48030 208964,48030 208964,48610 "/>
   <path id="1" class="fil5" d="M209633 48610l0 -3585 449 0 0 514c108,-198 239,-346 395,-444 156,-97 335,-146 536,-146 158,0 303,31 437,93 133,61 240,142 322,242 82,100 143,230 183,390 41,159 61,405 61,735l0 2201 -497 0 0 -2178c0,-264 -22,-456 -67,-577 -45,-121 -115,-215 -211,-282 -95,-65 -205,-99 -331,-99 -237,0 -426,89 -568,266 -141,179 -212,483 -212,914l0 1956 -497 0z"/>
   <path id="2" class="fil5" d="M212783 44362l0 -698 497 0 0 698 -497 0zm-635 5637l96 -517c99,31 177,47 234,47 106,0 184,-41 232,-124 49,-84 73,-288 73,-615l0 -3765 497 0 0 3778c0,488 -62,819 -187,994 -126,176 -310,264 -552,264 -136,0 -267,-21 -393,-62z"/>
   <path id="3" class="fil5" d="M213855 46821c0,-618 130,-1084 389,-1400 259,-314 588,-472 985,-472 392,0 718,158 981,472 263,316 394,769 394,1363 0,643 -129,1122 -388,1437 -258,314 -587,472 -987,472 -392,0 -720,-158 -982,-474 -261,-316 -392,-782 -392,-1398zm511 -2c0,465 84,810 252,1037 168,227 377,340 625,340 233,0 433,-114 600,-343 167,-229 250,-574 250,-1034 0,-462 -84,-806 -252,-1033 -168,-227 -377,-339 -625,-339 -235,0 -436,114 -601,341 -166,227 -249,571 -249,1031z"/>
   <path id="4" class="fil5" d="M217177 49985l-55 -567c110,37 204,56 282,56 105,0 193,-22 260,-65 68,-42 125,-109 170,-199 16,-32 80,-236 194,-614l-1106 -3571 536 0 611 2061c75,257 146,531 210,823 57,-276 124,-547 203,-810l627 -2074 500 0 -1117 3646c-146,471 -261,786 -345,944 -84,158 -180,272 -287,341 -107,70 -228,105 -363,105 -94,0 -200,-25 -320,-76z"/>
   <path id="5" class="fil5" d="M198554 56432l1562 -4946 575 0 1655 4946 -614 0 -466 -1499 -1710 0 -438 1499 -564 0zm1159 -2031l1388 0 -424 -1370c-132,-420 -229,-762 -290,-1026 -53,318 -126,632 -222,946l-452 1450z"/>
   <path id="6" class="fil5" d="M204624 55127l498 76c-57,426 -198,751 -424,976 -227,224 -499,336 -815,336 -386,0 -702,-158 -951,-474 -249,-316 -373,-783 -373,-1401 0,-623 125,-1091 376,-1401 252,-312 575,-468 969,-468 305,0 560,95 769,283 208,189 341,472 400,850l-483 90c-48,-243 -129,-425 -247,-545 -117,-121 -258,-181 -422,-181 -245,0 -448,109 -609,326 -161,218 -242,563 -242,1035 0,490 77,843 230,1061 153,218 349,328 589,328 188,0 348,-73 482,-217 132,-145 218,-369 253,-674z"/>
   <path id="7" class="fil5" d="M207458 55127l497 76c-56,426 -198,751 -424,976 -227,224 -498,336 -815,336 -385,0 -702,-158 -951,-474 -248,-316 -373,-783 -373,-1401 0,-623 126,-1091 377,-1401 252,-312 574,-468 968,-468 305,0 561,95 769,283 208,189 342,472 401,850l-484 90c-47,-243 -129,-425 -246,-545 -118,-121 -258,-181 -423,-181 -245,0 -448,109 -609,326 -161,218 -242,563 -242,1035 0,490 78,843 231,1061 153,218 348,328 588,328 189,0 349,-73 482,-217 133,-145 218,-369 254,-674z"/>
   <path id="8" class="fil5" d="M208184 54643c0,-618 130,-1084 389,-1400 259,-314 589,-472 986,-472 391,0 717,158 981,472 262,316 393,769 393,1363 0,643 -128,1122 -387,1437 -258,314 -588,472 -987,472 -393,0 -721,-158 -982,-474 -262,-316 -393,-782 -393,-1398zm511 -2c0,465 84,810 252,1037 169,227 377,340 626,340 232,0 432,-114 599,-343 167,-230 250,-574 250,-1034 0,-462 -84,-806 -252,-1033 -168,-227 -376,-340 -625,-340 -235,0 -435,115 -601,342 -166,227 -249,571 -249,1031z"/>
   <path id="9" class="fil5" d="M213441 56432l0 -526c-114,203 -250,355 -404,457 -156,101 -331,152 -526,152 -232,0 -429,-62 -593,-188 -164,-124 -273,-283 -328,-474 -56,-191 -83,-452 -83,-784l0 -2222 497 0 0 1988c0,370 19,616 55,742 37,124 106,224 205,300 101,75 214,113 342,113 237,0 432,-98 585,-294 130,-169 195,-478 195,-929l0 -1920 497 0 0 3585 -442 0z"/>
   <path id="10" class="fil5" d="M214670 56432l0 -3585 450 0 0 514c108,-199 239,-346 394,-444 157,-97 335,-146 537,-146 158,0 303,31 436,93 134,61 241,142 323,242 81,100 142,230 183,390 40,159 61,405 61,735l0 2201 -498 0 0 -2178c0,-264 -22,-456 -66,-577 -45,-121 -116,-215 -211,-282 -96,-65 -205,-99 -332,-99 -237,0 -426,89 -567,266 -142,179 -212,482 -212,914l0 1956 -498 0z"/>
   <path id="11" class="fil5" d="M218933 55887l69 538c-138,37 -263,55 -373,55 -174,0 -313,-34 -421,-103 -106,-68 -178,-162 -217,-282 -40,-119 -60,-357 -60,-713l0 -2065 -366 0 0 -470 366 0 0 -884 497 -366 0 1250 505 0 0 470 -505 0 0 2100c0,194 15,319 44,375 43,82 123,122 241,122 56,0 130,-9 220,-27z"/>
   <path id="12" class="fil5" d="M219395 52184l0 -698 498 0 0 698 -498 0zm0 4248l0 -3585 498 0 0 3585 -498 0z"/>
   <path id="13" class="fil5" d="M220654 56432l0 -3585 449 0 0 514c108,-199 239,-346 395,-444 156,-97 335,-146 536,-146 158,0 303,31 437,93 133,61 240,142 322,242 82,100 143,230 183,390 40,159 61,405 61,735l0 2201 -497 0 0 -2178c0,-264 -22,-456 -67,-577 -45,-121 -115,-215 -211,-282 -95,-65 -205,-99 -331,-99 -238,0 -426,89 -568,266 -142,179 -212,482 -212,914l0 1956 -497 0z"/>
   <path id="14" class="fil5" d="M223707 56729l484 90c23,191 91,333 203,426 114,93 271,141 474,141 219,0 394,-52 525,-157 130,-105 218,-260 267,-466 28,-126 43,-391 43,-795 -108,153 -230,270 -366,348 -134,77 -285,116 -450,116 -352,0 -644,-148 -877,-445 -266,-341 -400,-798 -400,-1372 0,-384 59,-720 177,-1008 117,-288 270,-499 461,-633 190,-135 404,-203 641,-203 173,0 332,43 475,127 144,85 270,211 381,381l0 -432 456 0 0 3096c0,551 -45,944 -135,1179 -91,235 -238,421 -443,557 -205,136 -451,204 -740,204 -380,0 -674,-103 -879,-306 -205,-204 -304,-486 -297,-848zm414 -2151c0,472 79,816 234,1032 156,217 346,325 571,325 226,0 417,-106 575,-318 158,-212 237,-549 237,-1012 0,-451 -81,-786 -243,-1006 -162,-220 -360,-331 -593,-331 -207,0 -389,111 -546,331 -156,220 -235,546 -235,979z"/>
  </g>
  <g>
   <path class="fil6" d="M44685 32269l-8039 0 -13 -1471 1937 0 0 -1713 -1952 0 -9 -1013 1961 0 0 -1713 -1976 0 -9 -1013 1985 0 0 -1713 -1992 0 0 -1013 1992 0 0 -1713 -1992 0 0 -1013 1992 0 0 -1713 -1992 0 0 -1557 8107 0 0 15645zm-8012 -18310l-5 0 -12962 2001 0 17542 12967 2233 0 -2755 7888 0c524,0 949,-382 949,-853l0 -15456c0,-471 -425,-853 -949,-853l-7888 0 0 -1859z"/>
   <polygon class="fil6" points="39660,19894 43026,19894 43026,18181 39660,18181 "/>
   <polygon class="fil6" points="39660,22620 43026,22620 43026,20907 39660,20907 "/>
   <polygon class="fil6" points="39660,25346 43026,25346 43026,23633 39660,23633 "/>
   <polygon class="fil6" points="39660,28072 43026,28072 43026,26359 39660,26359 "/>
   <polygon class="fil6" points="39660,30798 43026,30798 43026,29085 39660,29085 "/>
   <polygon class="fil3" points="27092,20698 28763,20603 29813,23491 31054,20484 32725,20388 30696,24489 32725,28600 30959,28480 29765,25347 28572,28361 26949,28218 28834,24586 "/>
  </g>
 </g>
</svg>
