<svg width="352" height="352" viewBox="0 0 352 352" fill="none" xmlns="http://www.w3.org/2000/svg">
<g filter="url(#filter0_d_381_184)">
<rect width="224" height="224" rx="16" fill="white" shape-rendering="crispEdges"/>
<rect x="1.5" y="1.5" width="221" height="221" rx="14.5" stroke="#212528" stroke-width="3" shape-rendering="crispEdges"/>
<path fill-rule="evenodd" clip-rule="evenodd" d="M145.787 83.8379L101.591 99.3073L93.2787 75.2951L137.428 59.8257L145.787 83.8379Z" fill="#0080FF"/>
<path fill-rule="evenodd" clip-rule="evenodd" d="M116.649 137.265C116.973 139.389 116.926 141.559 116.465 143.637L171.929 124.243L169.989 118.609L116.649 137.265Z" fill="#0080FF"/>
<path fill-rule="evenodd" clip-rule="evenodd" d="M94.0184 125.213C86.1213 127.891 81.9188 136.48 84.6435 144.376C87.322 152.273 95.9118 156.475 103.809 153.796C111.66 151.072 115.908 142.529 113.184 134.633C113.184 134.587 113.184 134.54 113.184 134.54C110.551 126.69 102.054 122.488 94.2493 125.12C94.2031 125.166 94.1107 125.166 94.0184 125.213ZM101.777 147.147C97.6205 148.578 93.0947 146.454 91.6631 142.298C90.1853 138.188 92.3558 133.663 96.5122 132.232C100.622 130.754 105.148 132.924 106.58 137.034C107.919 141.144 105.795 145.623 101.777 147.147Z" fill="#0080FF"/>
<path fill-rule="evenodd" clip-rule="evenodd" d="M161.662 86.9779L170.344 111.821L116.635 130.662C115.342 128.168 113.54 125.998 111.416 124.243L105.412 106.788L161.662 86.9779ZM162.816 84.4381L102.734 105.403L109.661 125.213C112.294 127.152 114.279 129.784 115.48 132.786L172.699 112.791L162.816 84.4381Z" fill="#0080FF"/>
<path fill-rule="evenodd" clip-rule="evenodd" d="M103.717 122.119L74.1147 37.2912L74.2994 32.9967L51.5318 32.3964L51.3009 42.5092L68.7114 43.1095L96.1433 121.888L103.717 122.119Z" fill="#0080FF"/>
<path d="M17.8835 168.149V185.604H14.7216V168.149H17.8835ZM24.2564 177.933V185.604H21.1712V172.513H24.12V174.737H24.2734C24.5746 174.004 25.0547 173.422 25.7138 172.99C26.3786 172.558 27.1996 172.342 28.1768 172.342C29.0803 172.342 29.8672 172.535 30.5376 172.922C31.2138 173.308 31.7365 173.868 32.1058 174.601C32.4808 175.334 32.6655 176.223 32.6598 177.268V185.604H29.5746V177.746C29.5746 176.871 29.3473 176.186 28.8928 175.692C28.4439 175.197 27.8217 174.95 27.0263 174.95C26.4865 174.95 26.0064 175.069 25.5859 175.308C25.1712 175.541 24.8445 175.879 24.6058 176.322C24.3729 176.766 24.2564 177.302 24.2564 177.933ZM47.0206 172.513L42.3587 185.604H38.9496L34.2876 172.513H37.5774L40.5859 182.237H40.7223L43.7393 172.513H47.0206ZM54.5057 185.859C53.1932 185.859 52.0597 185.587 51.1051 185.041C50.1563 184.49 49.4261 183.712 48.9148 182.706C48.4034 181.694 48.1477 180.504 48.1477 179.135C48.1477 177.788 48.4034 176.606 48.9148 175.589C49.4318 174.567 50.1534 173.771 51.0795 173.203C52.0057 172.629 53.0938 172.342 54.3438 172.342C55.1506 172.342 55.9119 172.473 56.6278 172.734C57.3494 172.99 57.9858 173.388 58.5369 173.927C59.0938 174.467 59.5313 175.155 59.8494 175.99C60.1676 176.819 60.3267 177.808 60.3267 178.956V179.902H49.5966V177.822H57.3693C57.3636 177.231 57.2358 176.706 56.9858 176.246C56.7358 175.78 56.3864 175.413 55.9375 175.146C55.4943 174.879 54.9773 174.746 54.3864 174.746C53.7557 174.746 53.2017 174.899 52.7244 175.206C52.2472 175.507 51.875 175.905 51.608 176.399C51.3466 176.888 51.2131 177.425 51.2074 178.01V179.825C51.2074 180.587 51.3466 181.24 51.625 181.785C51.9034 182.325 52.2926 182.74 52.7926 183.03C53.2926 183.314 53.8778 183.456 54.5483 183.456C54.9972 183.456 55.4034 183.393 55.767 183.268C56.1307 183.138 56.446 182.947 56.7131 182.697C56.9801 182.447 57.1818 182.138 57.3182 181.768L60.1989 182.092C60.017 182.854 59.6705 183.518 59.1591 184.087C58.6534 184.649 58.0057 185.087 57.2159 185.399C56.4261 185.706 55.5227 185.859 54.5057 185.859ZM66.022 177.933V185.604H62.9368V172.513H65.8857V174.737H66.0391C66.3402 174.004 66.8203 173.422 67.4794 172.99C68.1442 172.558 68.9652 172.342 69.9425 172.342C70.8459 172.342 71.6328 172.535 72.3033 172.922C72.9794 173.308 73.5021 173.868 73.8714 174.601C74.2464 175.334 74.4311 176.223 74.4254 177.268V185.604H71.3402V177.746C71.3402 176.871 71.1129 176.186 70.6584 175.692C70.2095 175.197 69.5874 174.95 68.7919 174.95C68.2521 174.95 67.772 175.069 67.3516 175.308C66.9368 175.541 66.6101 175.879 66.3714 176.322C66.1385 176.766 66.022 177.302 66.022 177.933ZM84.0987 172.513V174.899H76.5732V172.513H84.0987ZM78.4311 169.376H81.5163V181.666C81.5163 182.081 81.5788 182.399 81.7038 182.621C81.8345 182.837 82.005 182.984 82.2152 183.064C82.4254 183.143 82.6584 183.183 82.9141 183.183C83.1072 183.183 83.2834 183.169 83.4425 183.141C83.6072 183.112 83.7322 183.087 83.8175 183.064L84.3374 185.476C84.1726 185.533 83.9368 185.595 83.63 185.663C83.3288 185.731 82.9595 185.771 82.522 185.783C81.7493 185.805 81.0533 185.689 80.4339 185.433C79.8146 185.172 79.3232 184.768 78.9595 184.223C78.6016 183.677 78.4254 182.996 78.4311 182.177V169.376ZM92.2486 185.859C90.9702 185.859 89.8622 185.578 88.9247 185.016C87.9872 184.453 87.2599 183.666 86.7429 182.655C86.2315 181.643 85.9759 180.462 85.9759 179.109C85.9759 177.757 86.2315 176.572 86.7429 175.555C87.2599 174.538 87.9872 173.748 88.9247 173.186C89.8622 172.623 90.9702 172.342 92.2486 172.342C93.527 172.342 94.6349 172.623 95.5724 173.186C96.5099 173.748 97.2344 174.538 97.7457 175.555C98.2628 176.572 98.5213 177.757 98.5213 179.109C98.5213 180.462 98.2628 181.643 97.7457 182.655C97.2344 183.666 96.5099 184.453 95.5724 185.016C94.6349 185.578 93.527 185.859 92.2486 185.859ZM92.2656 183.388C92.9588 183.388 93.5384 183.197 94.0043 182.817C94.4702 182.43 94.8168 181.913 95.044 181.266C95.277 180.618 95.3935 179.896 95.3935 179.101C95.3935 178.3 95.277 177.575 95.044 176.927C94.8168 176.274 94.4702 175.754 94.0043 175.368C93.5384 174.981 92.9588 174.788 92.2656 174.788C91.5554 174.788 90.9645 174.981 90.4929 175.368C90.027 175.754 89.6776 176.274 89.4446 176.927C89.2173 177.575 89.1037 178.3 89.1037 179.101C89.1037 179.896 89.2173 180.618 89.4446 181.266C89.6776 181.913 90.027 182.43 90.4929 182.817C90.9645 183.197 91.5554 183.388 92.2656 183.388ZM101.14 185.604V172.513H104.131V174.694H104.268C104.506 173.939 104.915 173.356 105.495 172.947C106.08 172.533 106.748 172.325 107.498 172.325C107.668 172.325 107.859 172.334 108.069 172.351C108.285 172.362 108.464 172.382 108.606 172.41V175.248C108.475 175.203 108.268 175.163 107.984 175.129C107.705 175.089 107.435 175.069 107.174 175.069C106.612 175.069 106.106 175.192 105.657 175.436C105.214 175.675 104.864 176.007 104.609 176.433C104.353 176.859 104.225 177.351 104.225 177.908V185.604H101.14ZM112.972 190.513C112.551 190.513 112.162 190.479 111.804 190.41C111.452 190.348 111.17 190.274 110.96 190.189L111.676 187.785C112.125 187.916 112.526 187.979 112.878 187.973C113.23 187.967 113.54 187.856 113.807 187.641C114.08 187.43 114.31 187.078 114.497 186.584L114.761 185.876L110.014 172.513H113.287L116.304 182.399H116.44L119.466 172.513H122.747L117.506 187.189C117.261 187.882 116.938 188.476 116.534 188.97C116.131 189.47 115.636 189.851 115.051 190.112C114.472 190.379 113.778 190.513 112.972 190.513ZM130.972 168.149H134.841L140.023 180.797H140.227L145.409 168.149H149.278V185.604H146.244V173.612H146.082L141.259 185.552H138.991L134.168 173.587H134.006V185.604H130.972V168.149ZM156.352 185.868C155.523 185.868 154.776 185.72 154.111 185.425C153.452 185.123 152.929 184.68 152.543 184.095C152.162 183.51 151.972 182.788 151.972 181.93C151.972 181.192 152.108 180.581 152.381 180.098C152.653 179.615 153.026 179.229 153.497 178.939C153.969 178.649 154.5 178.43 155.091 178.283C155.688 178.129 156.304 178.018 156.94 177.95C157.707 177.871 158.33 177.8 158.807 177.737C159.284 177.669 159.631 177.567 159.847 177.43C160.068 177.288 160.179 177.069 160.179 176.774V176.723C160.179 176.081 159.989 175.584 159.608 175.231C159.227 174.879 158.679 174.703 157.963 174.703C157.207 174.703 156.608 174.868 156.165 175.197C155.727 175.527 155.432 175.916 155.278 176.365L152.398 175.956C152.625 175.16 153 174.496 153.523 173.962C154.045 173.422 154.685 173.018 155.44 172.751C156.196 172.479 157.031 172.342 157.946 172.342C158.577 172.342 159.205 172.416 159.83 172.564C160.455 172.712 161.026 172.956 161.543 173.297C162.06 173.632 162.474 174.089 162.787 174.669C163.105 175.248 163.264 175.973 163.264 176.842V185.604H160.298V183.805H160.196C160.009 184.169 159.744 184.51 159.403 184.828C159.068 185.141 158.645 185.393 158.134 185.587C157.628 185.774 157.034 185.868 156.352 185.868ZM157.153 183.601C157.773 183.601 158.31 183.479 158.764 183.234C159.219 182.984 159.568 182.655 159.812 182.246C160.062 181.837 160.188 181.391 160.188 180.908V179.365C160.091 179.444 159.926 179.518 159.693 179.587C159.466 179.655 159.21 179.714 158.926 179.766C158.642 179.817 158.361 179.862 158.082 179.902C157.804 179.942 157.563 179.976 157.358 180.004C156.898 180.067 156.486 180.169 156.122 180.311C155.759 180.453 155.472 180.652 155.261 180.908C155.051 181.158 154.946 181.481 154.946 181.879C154.946 182.447 155.153 182.876 155.568 183.166C155.983 183.456 156.511 183.601 157.153 183.601ZM176.713 175.973L173.901 176.28C173.821 175.996 173.682 175.729 173.483 175.479C173.29 175.229 173.028 175.027 172.699 174.873C172.369 174.72 171.966 174.643 171.489 174.643C170.847 174.643 170.307 174.783 169.869 175.061C169.438 175.339 169.224 175.7 169.23 176.143C169.224 176.524 169.364 176.834 169.648 177.072C169.938 177.311 170.415 177.507 171.08 177.66L173.312 178.138C174.551 178.405 175.472 178.828 176.074 179.408C176.682 179.987 176.989 180.746 176.994 181.683C176.989 182.507 176.747 183.234 176.27 183.865C175.798 184.49 175.142 184.979 174.301 185.331C173.46 185.683 172.494 185.859 171.403 185.859C169.801 185.859 168.511 185.524 167.534 184.854C166.557 184.177 165.974 183.237 165.787 182.033L168.795 181.743C168.932 182.334 169.222 182.78 169.665 183.081C170.108 183.382 170.685 183.533 171.395 183.533C172.128 183.533 172.716 183.382 173.159 183.081C173.608 182.78 173.832 182.408 173.832 181.964C173.832 181.589 173.688 181.28 173.398 181.035C173.114 180.791 172.67 180.604 172.068 180.473L169.835 180.004C168.58 179.743 167.651 179.302 167.048 178.683C166.446 178.058 166.148 177.268 166.153 176.314C166.148 175.507 166.366 174.808 166.81 174.217C167.259 173.621 167.881 173.16 168.676 172.837C169.477 172.507 170.401 172.342 171.446 172.342C172.98 172.342 174.188 172.669 175.068 173.322C175.955 173.976 176.503 174.859 176.713 175.973ZM186.075 172.513V174.899H178.55V172.513H186.075ZM180.408 169.376H183.493V181.666C183.493 182.081 183.555 182.399 183.68 182.621C183.811 182.837 183.982 182.984 184.192 183.064C184.402 183.143 184.635 183.183 184.891 183.183C185.084 183.183 185.26 183.169 185.419 183.141C185.584 183.112 185.709 183.087 185.794 183.064L186.314 185.476C186.149 185.533 185.913 185.595 185.607 185.663C185.305 185.731 184.936 185.771 184.499 185.783C183.726 185.805 183.03 185.689 182.411 185.433C181.791 185.172 181.3 184.768 180.936 184.223C180.578 183.677 180.402 182.996 180.408 182.177V169.376ZM194.31 185.859C192.998 185.859 191.864 185.587 190.91 185.041C189.961 184.49 189.231 183.712 188.719 182.706C188.208 181.694 187.952 180.504 187.952 179.135C187.952 177.788 188.208 176.606 188.719 175.589C189.237 174.567 189.958 173.771 190.884 173.203C191.81 172.629 192.898 172.342 194.148 172.342C194.955 172.342 195.717 172.473 196.433 172.734C197.154 172.99 197.79 173.388 198.342 173.927C198.898 174.467 199.336 175.155 199.654 175.99C199.972 176.819 200.131 177.808 200.131 178.956V179.902H189.401V177.822H197.174C197.168 177.231 197.04 176.706 196.79 176.246C196.54 175.78 196.191 175.413 195.742 175.146C195.299 174.879 194.782 174.746 194.191 174.746C193.56 174.746 193.006 174.899 192.529 175.206C192.052 175.507 191.68 175.905 191.413 176.399C191.151 176.888 191.018 177.425 191.012 178.01V179.825C191.012 180.587 191.151 181.24 191.43 181.785C191.708 182.325 192.097 182.74 192.597 183.03C193.097 183.314 193.683 183.456 194.353 183.456C194.802 183.456 195.208 183.393 195.572 183.268C195.935 183.138 196.251 182.947 196.518 182.697C196.785 182.447 196.987 182.138 197.123 181.768L200.004 182.092C199.822 182.854 199.475 183.518 198.964 184.087C198.458 184.649 197.81 185.087 197.021 185.399C196.231 185.706 195.327 185.859 194.31 185.859ZM202.741 185.604V172.513H205.733V174.694H205.869C206.108 173.939 206.517 173.356 207.097 172.947C207.682 172.533 208.349 172.325 209.099 172.325C209.27 172.325 209.46 172.334 209.67 172.351C209.886 172.362 210.065 172.382 210.207 172.41V175.248C210.077 175.203 209.869 175.163 209.585 175.129C209.307 175.089 209.037 175.069 208.776 175.069C208.213 175.069 207.707 175.192 207.259 175.436C206.815 175.675 206.466 176.007 206.21 176.433C205.955 176.859 205.827 177.351 205.827 177.908V185.604H202.741Z" fill="#3F4346"/>
</g>
<g filter="url(#filter1_d_381_184)">
<rect x="248" y="124" width="100" height="100" rx="16" fill="white" shape-rendering="crispEdges"/>
<rect x="249.5" y="125.5" width="97" height="97" rx="14.5" stroke="#212528" stroke-width="3" shape-rendering="crispEdges"/>
<path d="M310.369 150.229C310.887 149.21 310.467 147.971 309.43 147.461C308.393 146.952 307.132 147.365 306.613 148.384L302.832 155.815L298.089 149.989C297.036 148.696 294.973 148.91 294.22 150.391L291.256 156.215L286.832 157.664C285.732 158.024 285.138 159.192 285.505 160.273C285.871 161.354 287.06 161.938 288.16 161.578L293.326 159.886C293.907 159.695 294.388 159.286 294.662 158.748L296.654 154.832L301.398 160.658C302.451 161.951 304.513 161.736 305.267 160.255L310.369 150.229Z" fill="#1A73E8"/>
<path fill-rule="evenodd" clip-rule="evenodd" d="M293.802 135.196C296.4 133.723 299.6 133.723 302.198 135.196L313.8 141.776C316.399 143.25 318 145.974 318 148.922V162.078C318 165.026 316.399 167.75 313.8 169.224L302.198 175.804C299.6 177.277 296.4 177.277 293.802 175.804L282.2 169.224C279.601 167.75 278 165.026 278 162.078V148.922C278 145.974 279.601 143.25 282.2 141.776L293.802 135.196ZM300.099 138.769L311.701 145.349C313.001 146.086 313.801 147.448 313.801 148.922V162.078C313.801 163.552 313.001 164.914 311.701 165.651L300.099 172.231C298.8 172.968 297.2 172.968 295.901 172.231L284.299 165.651C282.999 164.914 282.199 163.552 282.199 162.078V148.922C282.199 147.448 282.999 146.086 284.299 145.349L295.901 138.769C297.2 138.032 298.8 138.032 300.099 138.769Z" fill="#1A73E8"/>
<path d="M275.707 195.253C275.628 194.509 275.293 193.929 274.702 193.514C274.116 193.099 273.355 192.892 272.418 192.892C271.759 192.892 271.193 192.991 270.722 193.19C270.25 193.389 269.889 193.659 269.639 194C269.389 194.341 269.261 194.73 269.256 195.168C269.256 195.531 269.338 195.847 269.503 196.114C269.673 196.381 269.903 196.608 270.193 196.795C270.483 196.977 270.804 197.131 271.156 197.256C271.509 197.381 271.864 197.486 272.222 197.571L273.858 197.98C274.517 198.134 275.151 198.341 275.759 198.602C276.372 198.864 276.92 199.193 277.403 199.591C277.892 199.989 278.278 200.469 278.562 201.031C278.847 201.594 278.989 202.253 278.989 203.009C278.989 204.031 278.727 204.932 278.205 205.71C277.682 206.483 276.926 207.088 275.938 207.526C274.955 207.957 273.764 208.173 272.366 208.173C271.009 208.173 269.83 207.963 268.83 207.543C267.835 207.122 267.057 206.509 266.494 205.702C265.938 204.895 265.636 203.912 265.591 202.753H268.702C268.747 203.361 268.935 203.866 269.264 204.27C269.594 204.673 270.023 204.974 270.551 205.173C271.085 205.372 271.682 205.472 272.341 205.472C273.028 205.472 273.631 205.369 274.148 205.165C274.67 204.955 275.08 204.665 275.375 204.295C275.67 203.92 275.821 203.483 275.827 202.983C275.821 202.528 275.688 202.153 275.426 201.858C275.165 201.557 274.798 201.307 274.327 201.108C273.861 200.903 273.315 200.722 272.69 200.562L270.705 200.051C269.267 199.682 268.131 199.122 267.295 198.372C266.466 197.616 266.051 196.614 266.051 195.364C266.051 194.335 266.33 193.435 266.886 192.662C267.449 191.889 268.213 191.29 269.179 190.864C270.145 190.432 271.239 190.216 272.46 190.216C273.699 190.216 274.784 190.432 275.716 190.864C276.653 191.29 277.389 191.884 277.923 192.645C278.457 193.401 278.733 194.27 278.75 195.253H275.707ZM288.208 194.818V197.205H280.683V194.818H288.208ZM282.54 191.682H285.626V203.972C285.626 204.386 285.688 204.705 285.813 204.926C285.944 205.142 286.114 205.29 286.325 205.369C286.535 205.449 286.768 205.489 287.023 205.489C287.217 205.489 287.393 205.474 287.552 205.446C287.717 205.418 287.842 205.392 287.927 205.369L288.447 207.781C288.282 207.838 288.046 207.901 287.739 207.969C287.438 208.037 287.069 208.077 286.631 208.088C285.859 208.111 285.163 207.994 284.543 207.739C283.924 207.477 283.433 207.074 283.069 206.528C282.711 205.983 282.535 205.301 282.54 204.483V191.682ZM296.358 208.165C295.08 208.165 293.972 207.884 293.034 207.321C292.097 206.759 291.369 205.972 290.852 204.96C290.341 203.949 290.085 202.767 290.085 201.415C290.085 200.062 290.341 198.878 290.852 197.861C291.369 196.844 292.097 196.054 293.034 195.491C293.972 194.929 295.08 194.648 296.358 194.648C297.636 194.648 298.744 194.929 299.682 195.491C300.619 196.054 301.344 196.844 301.855 197.861C302.372 198.878 302.631 200.062 302.631 201.415C302.631 202.767 302.372 203.949 301.855 204.96C301.344 205.972 300.619 206.759 299.682 207.321C298.744 207.884 297.636 208.165 296.358 208.165ZM296.375 205.693C297.068 205.693 297.648 205.503 298.114 205.122C298.58 204.736 298.926 204.219 299.153 203.571C299.386 202.923 299.503 202.202 299.503 201.406C299.503 200.605 299.386 199.881 299.153 199.233C298.926 198.58 298.58 198.06 298.114 197.673C297.648 197.287 297.068 197.094 296.375 197.094C295.665 197.094 295.074 197.287 294.602 197.673C294.136 198.06 293.787 198.58 293.554 199.233C293.327 199.881 293.213 200.605 293.213 201.406C293.213 202.202 293.327 202.923 293.554 203.571C293.787 204.219 294.136 204.736 294.602 205.122C295.074 205.503 295.665 205.693 296.375 205.693ZM310.96 208.165C309.653 208.165 308.531 207.878 307.593 207.304C306.661 206.73 305.942 205.937 305.437 204.926C304.937 203.909 304.687 202.739 304.687 201.415C304.687 200.085 304.942 198.912 305.454 197.895C305.965 196.872 306.687 196.077 307.619 195.509C308.556 194.935 309.664 194.648 310.942 194.648C312.005 194.648 312.945 194.844 313.763 195.236C314.587 195.622 315.244 196.17 315.732 196.881C316.221 197.585 316.499 198.409 316.567 199.352H313.619C313.499 198.722 313.215 198.196 312.766 197.776C312.323 197.349 311.729 197.136 310.985 197.136C310.354 197.136 309.8 197.307 309.323 197.648C308.846 197.983 308.474 198.466 308.207 199.097C307.945 199.727 307.815 200.483 307.815 201.364C307.815 202.256 307.945 203.023 308.207 203.665C308.468 204.301 308.835 204.793 309.306 205.139C309.783 205.48 310.343 205.651 310.985 205.651C311.44 205.651 311.846 205.565 312.204 205.395C312.567 205.219 312.871 204.966 313.116 204.636C313.36 204.307 313.528 203.906 313.619 203.435H316.567C316.494 204.361 316.221 205.182 315.749 205.898C315.278 206.608 314.636 207.165 313.823 207.568C313.011 207.966 312.056 208.165 310.96 208.165ZM321.913 203.801L321.905 200.077H322.399L327.104 194.818H330.709L324.922 201.261H324.283L321.913 203.801ZM319.101 207.909V190.455H322.186V207.909H319.101ZM327.317 207.909L323.055 201.952L325.135 199.778L331.007 207.909H327.317Z" fill="#3F4346"/>
</g>
<g filter="url(#filter2_d_381_184)">
<rect y="248" width="100" height="100" rx="16" fill="white" shape-rendering="crispEdges"/>
<rect x="1.5" y="249.5" width="97" height="97" rx="14.5" stroke="#212528" stroke-width="3" shape-rendering="crispEdges"/>
<path fill-rule="evenodd" clip-rule="evenodd" d="M30 265.208C30 262.248 32.4421 259.849 35.4545 259.849H50C53.0125 259.849 55.4545 262.248 55.4545 265.208V265.335C56.0484 265.251 56.6555 265.208 57.2727 265.208C64.3018 265.208 70 270.807 70 277.714C70 283.958 65.3416 289.134 59.2533 290.068L60.3245 291.892C62.2205 295.118 59.8507 299.151 56.0589 299.151H38.5666C34.7749 299.151 32.405 295.118 34.3009 291.892L38.433 284.859H35.4545C32.4421 284.859 30 282.46 30 279.5V265.208ZM55.0289 290.025C50.1347 289.17 46.208 285.566 44.9611 280.895L37.4501 293.678C36.9539 294.523 37.5741 295.578 38.5666 295.578H56.0589C57.0515 295.578 57.6716 294.523 57.1755 293.678L55.0289 290.025ZM44.7893 275.265C45.5815 271.343 48.2405 268.082 51.8182 266.412V265.208C51.8182 264.222 51.0042 263.422 50 263.422H35.4545C34.4504 263.422 33.6364 264.222 33.6364 265.208V279.5C33.6364 280.487 34.4504 281.287 35.4545 281.287H40.5325L43.0471 277.007C43.49 276.253 44.0967 275.67 44.7893 275.265ZM48.1818 277.714C48.1818 272.78 52.252 268.781 57.2727 268.781C62.2935 268.781 66.3636 272.78 66.3636 277.714C66.3636 282.647 62.2935 286.646 57.2727 286.646C52.252 286.646 48.1818 282.647 48.1818 277.714Z" fill="#29A653"/>
<path d="M27.4148 318.271C27.2727 317.81 27.0767 317.398 26.8267 317.035C26.5824 316.665 26.2869 316.35 25.9403 316.089C25.5994 315.827 25.2074 315.631 24.7642 315.501C24.321 315.364 23.8381 315.296 23.3153 315.296C22.3778 315.296 21.5426 315.532 20.8097 316.004C20.0767 316.475 19.5 317.168 19.0795 318.083C18.6648 318.992 18.4574 320.1 18.4574 321.407C18.4574 322.725 18.6648 323.842 19.0795 324.756C19.4943 325.671 20.071 326.367 20.8097 326.844C21.5483 327.316 22.4063 327.552 23.3835 327.552C24.2699 327.552 25.0369 327.381 25.6847 327.04C26.3381 326.7 26.8409 326.217 27.1932 325.592C27.5455 324.961 27.7216 324.222 27.7216 323.376L28.4375 323.486H23.6989V321.015H30.7812V323.111C30.7812 324.606 30.4631 325.898 29.8267 326.989C29.1903 328.08 28.3153 328.921 27.2017 329.512C26.0881 330.097 24.8097 330.39 23.3665 330.39C21.7585 330.39 20.3466 330.029 19.1307 329.307C17.9205 328.58 16.9744 327.549 16.2926 326.214C15.6165 324.873 15.2784 323.282 15.2784 321.441C15.2784 320.032 15.4773 318.773 15.875 317.665C16.2784 316.557 16.8409 315.617 17.5625 314.844C18.2841 314.066 19.1307 313.475 20.1023 313.072C21.0739 312.663 22.1307 312.458 23.2727 312.458C24.2386 312.458 25.1392 312.6 25.9744 312.884C26.8097 313.163 27.5511 313.56 28.1989 314.077C28.8523 314.594 29.3892 315.208 29.8097 315.918C30.2301 316.629 30.5057 317.413 30.6364 318.271H27.4148ZM33.7024 330.151V317.06H36.6939V319.242H36.8303C37.0689 318.486 37.478 317.904 38.0575 317.495C38.6428 317.08 39.3104 316.873 40.0604 316.873C40.2308 316.873 40.4212 316.881 40.6314 316.898C40.8473 316.91 41.0263 316.93 41.1683 316.958V319.796C41.0376 319.751 40.8303 319.711 40.5462 319.677C40.2678 319.637 39.9979 319.617 39.7365 319.617C39.174 319.617 38.6683 319.739 38.2195 319.984C37.7763 320.222 37.4268 320.555 37.1712 320.981C36.9155 321.407 36.7876 321.898 36.7876 322.455V330.151H33.7024ZM48.3892 330.407C47.1108 330.407 46.0028 330.126 45.0653 329.563C44.1278 329.001 43.4006 328.214 42.8835 327.202C42.3722 326.191 42.1165 325.009 42.1165 323.657C42.1165 322.305 42.3722 321.12 42.8835 320.103C43.4006 319.086 44.1278 318.296 45.0653 317.734C46.0028 317.171 47.1108 316.89 48.3892 316.89C49.6676 316.89 50.7756 317.171 51.7131 317.734C52.6506 318.296 53.375 319.086 53.8864 320.103C54.4034 321.12 54.6619 322.305 54.6619 323.657C54.6619 325.009 54.4034 326.191 53.8864 327.202C53.375 328.214 52.6506 329.001 51.7131 329.563C50.7756 330.126 49.6676 330.407 48.3892 330.407ZM48.4062 327.935C49.0994 327.935 49.679 327.745 50.1449 327.364C50.6108 326.978 50.9574 326.461 51.1847 325.813C51.4176 325.165 51.5341 324.444 51.5341 323.648C51.5341 322.847 51.4176 322.123 51.1847 321.475C50.9574 320.822 50.6108 320.302 50.1449 319.915C49.679 319.529 49.0994 319.336 48.4062 319.336C47.696 319.336 47.1051 319.529 46.6335 319.915C46.1676 320.302 45.8182 320.822 45.5852 321.475C45.358 322.123 45.2443 322.847 45.2443 323.648C45.2443 324.444 45.358 325.165 45.5852 325.813C45.8182 326.461 46.1676 326.978 46.6335 327.364C47.1051 327.745 47.696 327.935 48.4062 327.935ZM65.6243 324.646V317.06H68.7095V330.151H65.718V327.825H65.5817C65.2862 328.557 64.8004 329.157 64.1243 329.623C63.4538 330.089 62.6271 330.322 61.6442 330.322C60.7862 330.322 60.0277 330.131 59.3686 329.751C58.7152 329.364 58.2038 328.805 57.8345 328.072C57.4652 327.333 57.2805 326.441 57.2805 325.396V317.06H60.3658V324.918C60.3658 325.748 60.593 326.407 61.0476 326.896C61.5021 327.384 62.0987 327.629 62.8374 327.629C63.2919 327.629 63.7322 327.518 64.1584 327.296C64.5845 327.075 64.9339 326.745 65.2067 326.307C65.4851 325.864 65.6243 325.31 65.6243 324.646ZM71.8821 335.06V317.06H74.9162V319.225H75.0952C75.2543 318.907 75.4787 318.569 75.7685 318.211C76.0582 317.847 76.4503 317.538 76.9446 317.282C77.4389 317.021 78.0696 316.89 78.8366 316.89C79.848 316.89 80.7599 317.148 81.5724 317.665C82.3906 318.177 83.0384 318.935 83.5156 319.941C83.9986 320.941 84.2401 322.168 84.2401 323.623C84.2401 325.06 84.0043 326.282 83.5327 327.288C83.0611 328.293 82.419 329.06 81.6065 329.589C80.794 330.117 79.8736 330.381 78.8452 330.381C78.0952 330.381 77.473 330.256 76.9787 330.006C76.4844 329.756 76.0866 329.455 75.7855 329.103C75.4901 328.745 75.2599 328.407 75.0952 328.089H74.9673V335.06H71.8821ZM74.9077 323.606C74.9077 324.452 75.027 325.194 75.2656 325.83C75.5099 326.467 75.8594 326.964 76.3139 327.322C76.7741 327.674 77.331 327.85 77.9844 327.85C78.6662 327.85 79.2372 327.668 79.6974 327.305C80.1577 326.935 80.5043 326.432 80.7372 325.796C80.9759 325.154 81.0952 324.424 81.0952 323.606C81.0952 322.793 80.9787 322.072 80.7457 321.441C80.5128 320.81 80.1662 320.316 79.706 319.958C79.2457 319.6 78.6719 319.421 77.9844 319.421C77.3253 319.421 76.7656 319.594 76.3054 319.941C75.8452 320.288 75.4957 320.773 75.2571 321.398C75.0241 322.023 74.9077 322.759 74.9077 323.606Z" fill="#3F4346"/>
</g>
<g filter="url(#filter3_d_381_184)">
<rect x="124" y="248" width="224" height="100" rx="16" fill="white" shape-rendering="crispEdges"/>
<rect x="125.5" y="249.5" width="221" height="97" rx="14.5" stroke="#212528" stroke-width="3" shape-rendering="crispEdges"/>
<path fill-rule="evenodd" clip-rule="evenodd" d="M233.563 260.027C235.115 259.324 236.885 259.324 238.437 260.027L254.812 267.445C255.535 267.772 256 268.502 256 269.308C256 270.113 255.535 270.843 254.812 271.171L247.674 274.404L254.812 277.637C255.535 277.964 256 278.694 256 279.5C256 280.306 255.535 281.036 254.812 281.363L247.674 284.596L254.812 287.829C255.535 288.157 256 288.887 256 289.692C256 290.498 255.535 291.228 254.812 291.555L238.437 298.973C236.885 299.676 235.115 299.676 233.563 298.973L217.188 291.555C216.465 291.228 216 290.498 216 289.692C216 288.887 216.465 288.157 217.188 287.829L224.326 284.596L217.188 281.363C216.465 281.036 216 280.306 216 279.5C216 278.694 216.465 277.964 217.188 277.637L224.326 274.404L217.188 271.171C216.465 270.843 216 270.113 216 269.308C216 268.502 216.465 267.772 217.188 267.445L233.563 260.027ZM229.25 276.635L222.924 279.5L235.188 285.055C235.705 285.289 236.295 285.289 236.812 285.055L249.076 279.5L242.75 276.635L238.437 278.588C236.885 279.291 235.115 279.291 233.563 278.588L229.25 276.635ZM229.25 286.827L222.924 289.692L235.188 295.247C235.705 295.482 236.295 295.482 236.812 295.247L249.076 289.692L242.75 286.827L238.437 288.781C236.885 289.483 235.115 289.483 233.563 288.781L229.25 286.827ZM236.812 263.753C236.295 263.518 235.705 263.518 235.188 263.753L222.924 269.308L235.188 274.863C235.705 275.097 236.295 275.097 236.812 274.863L249.076 269.308L236.812 263.753Z" fill="#CC5229"/>
<path d="M191.557 313.045L196.099 326.784H196.278L200.812 313.045H204.29L198.136 330.5H194.233L188.088 313.045H191.557ZM208.86 330.764C208.031 330.764 207.283 330.616 206.619 330.321C205.96 330.02 205.437 329.577 205.05 328.991C204.67 328.406 204.479 327.685 204.479 326.827C204.479 326.088 204.616 325.477 204.888 324.994C205.161 324.511 205.533 324.125 206.005 323.835C206.477 323.545 207.008 323.327 207.599 323.179C208.195 323.026 208.812 322.915 209.448 322.847C210.215 322.767 210.837 322.696 211.315 322.634C211.792 322.565 212.138 322.463 212.354 322.327C212.576 322.185 212.687 321.966 212.687 321.67V321.619C212.687 320.977 212.496 320.48 212.116 320.128C211.735 319.776 211.187 319.599 210.471 319.599C209.715 319.599 209.116 319.764 208.673 320.094C208.235 320.423 207.94 320.812 207.786 321.261L204.906 320.852C205.133 320.057 205.508 319.392 206.031 318.858C206.553 318.318 207.192 317.915 207.948 317.648C208.704 317.375 209.539 317.239 210.454 317.239C211.085 317.239 211.712 317.312 212.337 317.46C212.962 317.608 213.533 317.852 214.05 318.193C214.567 318.528 214.982 318.986 215.295 319.565C215.613 320.145 215.772 320.869 215.772 321.739V330.5H212.806V328.702H212.704C212.516 329.065 212.252 329.406 211.911 329.724C211.576 330.037 211.153 330.29 210.641 330.483C210.136 330.67 209.542 330.764 208.86 330.764ZM209.661 328.497C210.281 328.497 210.817 328.375 211.272 328.131C211.727 327.881 212.076 327.551 212.32 327.142C212.57 326.733 212.695 326.287 212.695 325.804V324.261C212.599 324.341 212.434 324.415 212.201 324.483C211.974 324.551 211.718 324.611 211.434 324.662C211.15 324.713 210.869 324.759 210.59 324.798C210.312 324.838 210.07 324.872 209.866 324.901C209.406 324.963 208.994 325.065 208.63 325.207C208.266 325.349 207.979 325.548 207.769 325.804C207.559 326.054 207.454 326.378 207.454 326.776C207.454 327.344 207.661 327.773 208.076 328.062C208.491 328.352 209.019 328.497 209.661 328.497ZM218.874 330.5V317.409H221.866V319.591H222.002C222.241 318.835 222.65 318.253 223.229 317.844C223.815 317.429 224.482 317.222 225.232 317.222C225.403 317.222 225.593 317.23 225.803 317.247C226.019 317.259 226.198 317.278 226.34 317.307V320.145C226.21 320.099 226.002 320.06 225.718 320.026C225.44 319.986 225.17 319.966 224.908 319.966C224.346 319.966 223.84 320.088 223.391 320.332C222.948 320.571 222.599 320.903 222.343 321.33C222.087 321.756 221.96 322.247 221.96 322.804V330.5H218.874ZM228.39 330.5V317.409H231.475V330.5H228.39ZM229.941 315.551C229.452 315.551 229.032 315.389 228.68 315.065C228.327 314.736 228.151 314.341 228.151 313.881C228.151 313.415 228.327 313.02 228.68 312.696C229.032 312.366 229.452 312.202 229.941 312.202C230.435 312.202 230.856 312.366 231.202 312.696C231.555 313.02 231.731 313.415 231.731 313.881C231.731 314.341 231.555 314.736 231.202 315.065C230.856 315.389 230.435 315.551 229.941 315.551ZM238.415 330.764C237.585 330.764 236.838 330.616 236.173 330.321C235.514 330.02 234.991 329.577 234.605 328.991C234.224 328.406 234.034 327.685 234.034 326.827C234.034 326.088 234.17 325.477 234.443 324.994C234.716 324.511 235.088 324.125 235.56 323.835C236.031 323.545 236.563 323.327 237.153 323.179C237.75 323.026 238.366 322.915 239.003 322.847C239.77 322.767 240.392 322.696 240.869 322.634C241.347 322.565 241.693 322.463 241.909 322.327C242.131 322.185 242.241 321.966 242.241 321.67V321.619C242.241 320.977 242.051 320.48 241.67 320.128C241.29 319.776 240.741 319.599 240.026 319.599C239.27 319.599 238.67 319.764 238.227 320.094C237.79 320.423 237.494 320.812 237.341 321.261L234.46 320.852C234.688 320.057 235.063 319.392 235.585 318.858C236.108 318.318 236.747 317.915 237.503 317.648C238.259 317.375 239.094 317.239 240.009 317.239C240.639 317.239 241.267 317.312 241.892 317.46C242.517 317.608 243.088 317.852 243.605 318.193C244.122 318.528 244.537 318.986 244.849 319.565C245.168 320.145 245.327 320.869 245.327 321.739V330.5H242.361V328.702H242.259C242.071 329.065 241.807 329.406 241.466 329.724C241.131 330.037 240.707 330.29 240.196 330.483C239.69 330.67 239.097 330.764 238.415 330.764ZM239.216 328.497C239.835 328.497 240.372 328.375 240.827 328.131C241.281 327.881 241.631 327.551 241.875 327.142C242.125 326.733 242.25 326.287 242.25 325.804V324.261C242.153 324.341 241.989 324.415 241.756 324.483C241.528 324.551 241.273 324.611 240.989 324.662C240.705 324.713 240.423 324.759 240.145 324.798C239.866 324.838 239.625 324.872 239.42 324.901C238.96 324.963 238.548 325.065 238.185 325.207C237.821 325.349 237.534 325.548 237.324 325.804C237.114 326.054 237.009 326.378 237.009 326.776C237.009 327.344 237.216 327.773 237.631 328.062C238.045 328.352 238.574 328.497 239.216 328.497ZM251.514 322.83V330.5H248.429V317.409H251.378V319.634H251.531C251.832 318.901 252.313 318.318 252.972 317.886C253.636 317.455 254.457 317.239 255.435 317.239C256.338 317.239 257.125 317.432 257.795 317.818C258.472 318.205 258.994 318.764 259.364 319.497C259.739 320.23 259.923 321.119 259.918 322.165V330.5H256.832V322.642C256.832 321.767 256.605 321.082 256.151 320.588C255.702 320.094 255.08 319.847 254.284 319.847C253.744 319.847 253.264 319.966 252.844 320.205C252.429 320.437 252.102 320.776 251.864 321.219C251.631 321.662 251.514 322.199 251.514 322.83ZM269.591 317.409V319.795H262.065V317.409H269.591ZM263.923 314.273H267.009V326.562C267.009 326.977 267.071 327.295 267.196 327.517C267.327 327.733 267.497 327.881 267.707 327.96C267.918 328.04 268.151 328.08 268.406 328.08C268.599 328.08 268.776 328.065 268.935 328.037C269.099 328.009 269.224 327.983 269.31 327.96L269.83 330.372C269.665 330.429 269.429 330.491 269.122 330.56C268.821 330.628 268.452 330.668 268.014 330.679C267.241 330.702 266.545 330.585 265.926 330.33C265.307 330.068 264.815 329.665 264.452 329.119C264.094 328.574 263.918 327.892 263.923 327.074V314.273ZM282.33 320.869L279.518 321.176C279.438 320.892 279.299 320.625 279.1 320.375C278.907 320.125 278.646 319.923 278.316 319.77C277.987 319.616 277.583 319.54 277.106 319.54C276.464 319.54 275.924 319.679 275.487 319.957C275.055 320.236 274.842 320.597 274.847 321.04C274.842 321.42 274.981 321.73 275.265 321.969C275.555 322.207 276.032 322.403 276.697 322.557L278.93 323.034C280.168 323.301 281.089 323.724 281.691 324.304C282.299 324.884 282.606 325.642 282.612 326.58C282.606 327.403 282.364 328.131 281.887 328.761C281.415 329.386 280.759 329.875 279.918 330.227C279.077 330.58 278.112 330.756 277.021 330.756C275.418 330.756 274.129 330.42 273.151 329.75C272.174 329.074 271.592 328.134 271.404 326.929L274.413 326.639C274.549 327.23 274.839 327.676 275.282 327.977C275.725 328.278 276.302 328.429 277.012 328.429C277.745 328.429 278.333 328.278 278.776 327.977C279.225 327.676 279.45 327.304 279.45 326.861C279.45 326.486 279.305 326.176 279.015 325.932C278.731 325.687 278.288 325.5 277.685 325.369L275.452 324.901C274.197 324.639 273.268 324.199 272.665 323.58C272.063 322.955 271.765 322.165 271.771 321.21C271.765 320.403 271.984 319.705 272.427 319.114C272.876 318.517 273.498 318.057 274.293 317.733C275.094 317.403 276.018 317.239 277.063 317.239C278.597 317.239 279.805 317.565 280.685 318.219C281.572 318.872 282.12 319.756 282.33 320.869Z" fill="#3F4346"/>
</g>
<defs>
<filter id="filter0_d_381_184" x="0" y="0" width="228" height="228" filterUnits="userSpaceOnUse" color-interpolation-filters="sRGB">
<feFlood flood-opacity="0" result="BackgroundImageFix"/>
<feColorMatrix in="SourceAlpha" type="matrix" values="0 0 0 0 0 0 0 0 0 0 0 0 0 0 0 0 0 0 127 0" result="hardAlpha"/>
<feOffset dx="4" dy="4"/>
<feComposite in2="hardAlpha" operator="out"/>
<feColorMatrix type="matrix" values="0 0 0 0 0.667568 0 0 0 0 0.805297 0 0 0 0 0.932432 0 0 0 1 0"/>
<feBlend mode="normal" in2="BackgroundImageFix" result="effect1_dropShadow_381_184"/>
<feBlend mode="normal" in="SourceGraphic" in2="effect1_dropShadow_381_184" result="shape"/>
</filter>
<filter id="filter1_d_381_184" x="248" y="124" width="104" height="104" filterUnits="userSpaceOnUse" color-interpolation-filters="sRGB">
<feFlood flood-opacity="0" result="BackgroundImageFix"/>
<feColorMatrix in="SourceAlpha" type="matrix" values="0 0 0 0 0 0 0 0 0 0 0 0 0 0 0 0 0 0 127 0" result="hardAlpha"/>
<feOffset dx="4" dy="4"/>
<feComposite in2="hardAlpha" operator="out"/>
<feColorMatrix type="matrix" values="0 0 0 0 0.6 0 0 0 0 0.781961 0 0 0 0 1 0 0 0 1 0"/>
<feBlend mode="normal" in2="BackgroundImageFix" result="effect1_dropShadow_381_184"/>
<feBlend mode="normal" in="SourceGraphic" in2="effect1_dropShadow_381_184" result="shape"/>
</filter>
<filter id="filter2_d_381_184" x="0" y="248" width="104" height="104" filterUnits="userSpaceOnUse" color-interpolation-filters="sRGB">
<feFlood flood-opacity="0" result="BackgroundImageFix"/>
<feColorMatrix in="SourceAlpha" type="matrix" values="0 0 0 0 0 0 0 0 0 0 0 0 0 0 0 0 0 0 127 0" result="hardAlpha"/>
<feOffset dx="4" dy="4"/>
<feComposite in2="hardAlpha" operator="out"/>
<feColorMatrix type="matrix" values="0 0 0 0 0.67451 0 0 0 0 0.933333 0 0 0 0 0.666667 0 0 0 1 0"/>
<feBlend mode="normal" in2="BackgroundImageFix" result="effect1_dropShadow_381_184"/>
<feBlend mode="normal" in="SourceGraphic" in2="effect1_dropShadow_381_184" result="shape"/>
</filter>
<filter id="filter3_d_381_184" x="124" y="248" width="228" height="104" filterUnits="userSpaceOnUse" color-interpolation-filters="sRGB">
<feFlood flood-opacity="0" result="BackgroundImageFix"/>
<feColorMatrix in="SourceAlpha" type="matrix" values="0 0 0 0 0 0 0 0 0 0 0 0 0 0 0 0 0 0 127 0" result="hardAlpha"/>
<feOffset dx="4" dy="4"/>
<feComposite in2="hardAlpha" operator="out"/>
<feColorMatrix type="matrix" values="0 0 0 0 0.932432 0 0 0 0 0.778811 0 0 0 0 0.667568 0 0 0 1 0"/>
<feBlend mode="normal" in2="BackgroundImageFix" result="effect1_dropShadow_381_184"/>
<feBlend mode="normal" in="SourceGraphic" in2="effect1_dropShadow_381_184" result="shape"/>
</filter>
</defs>
</svg>
