<svg width="355" height="230" viewBox="0 0 355 230" fill="none" xmlns="http://www.w3.org/2000/svg">
<g filter="url(#filter0_d_378_370)">
<rect width="225.287" height="225.287" rx="16.092" fill="white" shape-rendering="crispEdges"/>
<rect x="1.5" y="1.5" width="222.287" height="222.287" rx="14.592" stroke="#212528" stroke-width="3" shape-rendering="crispEdges"/>
<path d="M150.359 51.3764L142.816 43.8333L135.273 51.3764L127.73 43.8333L120.187 51.3764L112.644 43.8333L105.101 51.3764L97.5575 43.8333L90.0144 51.3764L82.4713 43.8333V114.236H67.3851V129.322C67.3851 137.67 74.1236 144.408 82.4713 144.408H142.816C151.164 144.408 157.902 137.67 157.902 129.322V43.8333L150.359 51.3764ZM147.845 129.322C147.845 132.088 145.582 134.351 142.816 134.351C140.05 134.351 137.787 132.088 137.787 129.322V114.236H92.5287V58.9195H147.845V129.322Z" fill="#0074FF"/>
<path d="M127.73 68.977H97.5575V79.0345H127.73V68.977Z" fill="#0074FF"/>
<path d="M142.816 68.977H132.759V79.0345H142.816V68.977Z" fill="#0074FF"/>
<path d="M127.73 84.0632H97.5575V94.1207H127.73V84.0632Z" fill="#0074FF"/>
<path d="M142.816 84.0632H132.759V94.1207H142.816V84.0632Z" fill="#0074FF"/>
<path d="M64.5553 167.957V185.511H61.3752V167.957H64.5553ZM70.9648 177.797V185.511H67.8618V172.345H70.8276V174.583H70.9819C71.2848 173.845 71.7676 173.26 72.4305 172.825C73.0991 172.391 73.9249 172.174 74.9077 172.174C75.8163 172.174 76.6078 172.368 77.2821 172.757C77.9621 173.145 78.4879 173.708 78.8593 174.445C79.2365 175.183 79.4222 176.077 79.4165 177.128V185.511H76.3135V177.608C76.3135 176.728 76.0849 176.04 75.6278 175.543C75.1763 175.045 74.5506 174.797 73.7506 174.797C73.2077 174.797 72.7248 174.917 72.3019 175.157C71.8848 175.391 71.5562 175.731 71.3162 176.177C71.0819 176.623 70.9648 177.163 70.9648 177.797ZM93.8598 172.345L89.1711 185.511H85.7424L81.0537 172.345H84.3623L87.3882 182.126H87.5253L90.5597 172.345H93.8598ZM101.302 185.769C100.016 185.769 98.9021 185.486 97.9592 184.92C97.0163 184.354 96.2849 183.563 95.7649 182.546C95.2506 181.529 94.9934 180.34 94.9934 178.98C94.9934 177.62 95.2506 176.428 95.7649 175.405C96.2849 174.383 97.0163 173.588 97.9592 173.023C98.9021 172.457 100.016 172.174 101.302 172.174C102.588 172.174 103.702 172.457 104.645 173.023C105.588 173.588 106.317 174.383 106.831 175.405C107.351 176.428 107.611 177.62 107.611 178.98C107.611 180.34 107.351 181.529 106.831 182.546C106.317 183.563 105.588 184.354 104.645 184.92C103.702 185.486 102.588 185.769 101.302 185.769ZM101.319 183.283C102.016 183.283 102.599 183.091 103.068 182.709C103.537 182.32 103.885 181.8 104.114 181.148C104.348 180.497 104.465 179.771 104.465 178.971C104.465 178.166 104.348 177.437 104.114 176.785C103.885 176.128 103.537 175.605 103.068 175.217C102.599 174.828 102.016 174.634 101.319 174.634C100.605 174.634 100.011 174.828 99.5364 175.217C99.0678 175.605 98.7164 176.128 98.4821 176.785C98.2535 177.437 98.1392 178.166 98.1392 178.971C98.1392 179.771 98.2535 180.497 98.4821 181.148C98.7164 181.8 99.0678 182.32 99.5364 182.709C100.011 183.091 100.605 183.283 101.319 183.283ZM110.245 185.511V172.345H113.348V185.511H110.245ZM111.805 170.477C111.313 170.477 110.89 170.314 110.536 169.988C110.182 169.657 110.005 169.26 110.005 168.797C110.005 168.328 110.182 167.931 110.536 167.605C110.89 167.274 111.313 167.108 111.805 167.108C112.302 167.108 112.725 167.274 113.073 167.605C113.428 167.931 113.605 168.328 113.605 168.797C113.605 169.26 113.428 169.657 113.073 169.988C112.725 170.314 112.302 170.477 111.805 170.477ZM122.281 185.769C120.967 185.769 119.838 185.48 118.896 184.903C117.958 184.326 117.236 183.529 116.727 182.511C116.224 181.489 115.973 180.311 115.973 178.98C115.973 177.643 116.23 176.463 116.744 175.44C117.258 174.411 117.984 173.611 118.921 173.04C119.864 172.462 120.979 172.174 122.264 172.174C123.333 172.174 124.279 172.371 125.102 172.765C125.93 173.154 126.59 173.705 127.082 174.42C127.573 175.128 127.853 175.957 127.922 176.905H124.956C124.836 176.271 124.55 175.743 124.099 175.32C123.653 174.891 123.056 174.677 122.307 174.677C121.673 174.677 121.116 174.848 120.636 175.191C120.156 175.528 119.781 176.014 119.513 176.648C119.25 177.283 119.118 178.043 119.118 178.928C119.118 179.826 119.25 180.597 119.513 181.243C119.776 181.883 120.144 182.377 120.619 182.726C121.099 183.069 121.661 183.24 122.307 183.24C122.764 183.24 123.173 183.154 123.533 182.983C123.899 182.806 124.204 182.551 124.45 182.22C124.696 181.889 124.864 181.486 124.956 181.011H127.922C127.847 181.943 127.573 182.769 127.099 183.489C126.624 184.203 125.979 184.763 125.162 185.169C124.344 185.569 123.384 185.769 122.281 185.769ZM130.47 185.511V172.345H133.573V185.511H130.47ZM132.03 170.477C131.538 170.477 131.115 170.314 130.761 169.988C130.407 169.657 130.23 169.26 130.23 168.797C130.23 168.328 130.407 167.931 130.761 167.605C131.115 167.274 131.538 167.108 132.03 167.108C132.527 167.108 132.95 167.274 133.298 167.605C133.653 167.931 133.83 168.328 133.83 168.797C133.83 169.26 133.653 169.657 133.298 169.988C132.95 170.314 132.527 170.477 132.03 170.477ZM139.866 177.797V185.511H136.763V172.345H139.729V174.583H139.883C140.186 173.845 140.669 173.26 141.332 172.825C142.001 172.391 142.826 172.174 143.809 172.174C144.718 172.174 145.509 172.368 146.184 172.757C146.864 173.145 147.389 173.708 147.761 174.445C148.138 175.183 148.324 176.077 148.318 177.128V185.511H145.215V177.608C145.215 176.728 144.986 176.04 144.529 175.543C144.078 175.045 143.452 174.797 142.652 174.797C142.109 174.797 141.626 174.917 141.203 175.157C140.786 175.391 140.458 175.731 140.218 176.177C139.983 176.623 139.866 177.163 139.866 177.797ZM157.198 190.723C156.084 190.723 155.127 190.572 154.327 190.269C153.527 189.972 152.884 189.572 152.398 189.069C151.912 188.566 151.575 188.009 151.387 187.397L154.181 186.72C154.307 186.977 154.49 187.232 154.73 187.483C154.97 187.74 155.293 187.952 155.698 188.117C156.11 188.289 156.627 188.374 157.25 188.374C158.13 188.374 158.858 188.16 159.435 187.732C160.013 187.309 160.301 186.612 160.301 185.64V183.146H160.147C159.987 183.466 159.753 183.794 159.444 184.131C159.141 184.469 158.738 184.751 158.235 184.98C157.738 185.209 157.113 185.323 156.358 185.323C155.347 185.323 154.43 185.086 153.607 184.611C152.79 184.131 152.138 183.417 151.652 182.469C151.172 181.514 150.932 180.32 150.932 178.886C150.932 177.44 151.172 176.22 151.652 175.225C152.138 174.225 152.792 173.468 153.615 172.954C154.438 172.434 155.355 172.174 156.367 172.174C157.138 172.174 157.773 172.305 158.27 172.568C158.773 172.825 159.173 173.137 159.47 173.503C159.767 173.863 159.993 174.203 160.147 174.523H160.318V172.345H163.378V185.726C163.378 186.852 163.11 187.783 162.573 188.52C162.036 189.257 161.301 189.809 160.37 190.174C159.438 190.54 158.381 190.723 157.198 190.723ZM157.224 182.889C157.881 182.889 158.441 182.729 158.904 182.409C159.367 182.089 159.718 181.629 159.958 181.028C160.198 180.428 160.318 179.708 160.318 178.868C160.318 178.04 160.198 177.314 159.958 176.691C159.724 176.068 159.375 175.585 158.913 175.243C158.455 174.894 157.893 174.72 157.224 174.72C156.533 174.72 155.955 174.9 155.493 175.26C155.03 175.62 154.681 176.114 154.447 176.743C154.212 177.366 154.095 178.074 154.095 178.868C154.095 179.674 154.212 180.38 154.447 180.986C154.687 181.586 155.038 182.054 155.501 182.391C155.97 182.723 156.544 182.889 157.224 182.889Z" fill="#212528"/>
</g>
<g filter="url(#filter1_d_378_370)">
<rect x="249.425" width="100.575" height="100.575" rx="16.092" fill="white" shape-rendering="crispEdges"/>
<rect x="250.925" y="1.5" width="97.5747" height="97.5747" rx="14.592" stroke="#212528" stroke-width="3" shape-rendering="crispEdges"/>
<path d="M292.666 48.8567H306.759V34.7642H316.154L299.713 18.323L283.271 34.7642H292.666V48.8567ZM283.271 53.5542H316.154V58.2517H283.271V53.5542Z" fill="#0074FF"/>
<path d="M271.282 70.9269V85.4724H268.647V70.9269H271.282ZM274.022 85.4724V74.5633H276.479V76.417H276.607C276.834 75.792 277.211 75.3043 277.736 74.9539C278.262 74.5988 278.889 74.4212 279.619 74.4212C280.357 74.4212 280.98 74.6011 281.486 74.961C281.998 75.3161 282.358 75.8014 282.566 76.417H282.68C282.921 75.8109 283.328 75.3279 283.901 74.9681C284.479 74.6035 285.163 74.4212 285.954 74.4212C286.958 74.4212 287.777 74.7385 288.411 75.3729C289.046 76.0074 289.363 76.9331 289.363 78.1499V85.4724H286.785V78.5476C286.785 77.8706 286.605 77.3758 286.245 77.0633C285.885 76.746 285.445 76.5874 284.924 76.5874C284.304 76.5874 283.818 76.7815 283.468 77.1698C283.122 77.5533 282.95 78.0529 282.95 78.6684V85.4724H280.428V78.4411C280.428 77.8777 280.258 77.4279 279.917 77.0917C279.581 76.7555 279.14 76.5874 278.596 76.5874C278.226 76.5874 277.89 76.6821 277.587 76.8715C277.284 77.0562 277.043 77.3189 276.863 77.6599C276.683 77.996 276.593 78.389 276.593 78.8388V85.4724H274.022ZM291.971 89.5633V74.5633H294.5V76.3672H294.649C294.781 76.1021 294.968 75.8204 295.21 75.5221C295.451 75.219 295.778 74.961 296.19 74.7479C296.602 74.5301 297.127 74.4212 297.767 74.4212C298.609 74.4212 299.369 74.6367 300.046 75.0675C300.728 75.4937 301.268 76.1258 301.666 76.9638C302.068 77.7972 302.269 78.8199 302.269 80.032C302.269 81.2299 302.073 82.2479 301.68 83.086C301.287 83.9241 300.752 84.5633 300.075 85.0036C299.398 85.4439 298.631 85.6641 297.774 85.6641C297.149 85.6641 296.63 85.56 296.218 85.3516C295.806 85.1433 295.475 84.8923 295.224 84.5988C294.978 84.3005 294.786 84.0188 294.649 83.7536H294.542V89.5633H291.971ZM294.492 80.0178C294.492 80.7233 294.592 81.3412 294.791 81.8715C294.994 82.4018 295.286 82.8161 295.664 83.1144C296.048 83.408 296.512 83.5547 297.056 83.5547C297.625 83.5547 298.1 83.4032 298.484 83.1002C298.867 82.7924 299.156 82.3734 299.35 81.8431C299.549 81.3081 299.649 80.6996 299.649 80.0178C299.649 79.3407 299.552 78.7394 299.358 78.2138C299.163 77.6883 298.875 77.2763 298.491 76.978C298.108 76.6797 297.629 76.5306 297.056 76.5306C296.507 76.5306 296.041 76.675 295.657 76.9638C295.274 77.2527 294.983 77.6575 294.784 78.1783C294.59 78.6992 294.492 79.3123 294.492 80.0178ZM309.23 85.6854C308.164 85.6854 307.241 85.4511 306.46 84.9823C305.679 84.5136 305.072 83.8578 304.642 83.015C304.215 82.1722 304.002 81.1873 304.002 80.0604C304.002 78.9335 304.215 77.9463 304.642 77.0988C305.072 76.2512 305.679 75.5931 306.46 75.1243C307.241 74.6556 308.164 74.4212 309.23 74.4212C310.295 74.4212 311.218 74.6556 312 75.1243C312.781 75.5931 313.385 76.2512 313.811 77.0988C314.242 77.9463 314.457 78.9335 314.457 80.0604C314.457 81.1873 314.242 82.1722 313.811 83.015C313.385 83.8578 312.781 84.5136 312 84.9823C311.218 85.4511 310.295 85.6854 309.23 85.6854ZM309.244 83.6258C309.822 83.6258 310.305 83.4672 310.693 83.1499C311.081 82.8279 311.37 82.3971 311.559 81.8573C311.753 81.3175 311.85 80.7162 311.85 80.0533C311.85 79.3857 311.753 78.782 311.559 78.2422C311.37 77.6977 311.081 77.2645 310.693 76.9425C310.305 76.6206 309.822 76.4596 309.244 76.4596C308.652 76.4596 308.16 76.6206 307.767 76.9425C307.378 77.2645 307.087 77.6977 306.893 78.2422C306.704 78.782 306.609 79.3857 306.609 80.0533C306.609 80.7162 306.704 81.3175 306.893 81.8573C307.087 82.3971 307.378 82.8279 307.767 83.1499C308.16 83.4672 308.652 83.6258 309.244 83.6258ZM316.639 85.4724V74.5633H319.132V76.3814H319.246C319.445 75.7517 319.785 75.2664 320.268 74.9255C320.756 74.5798 321.312 74.407 321.937 74.407C322.079 74.407 322.238 74.4141 322.413 74.4283C322.593 74.4378 322.742 74.4544 322.861 74.478V76.8431C322.752 76.8052 322.579 76.7721 322.342 76.7437C322.11 76.7105 321.885 76.6939 321.668 76.6939C321.199 76.6939 320.777 76.7957 320.403 76.9993C320.034 77.1982 319.743 77.4752 319.53 77.8303C319.317 78.1854 319.21 78.595 319.21 79.059V85.4724H316.639ZM330.602 74.5633V76.5519H324.331V74.5633H330.602ZM325.879 71.9496H328.45V82.1911C328.45 82.5368 328.502 82.8019 328.606 82.9866C328.715 83.1665 328.857 83.2896 329.033 83.3559C329.208 83.4222 329.402 83.4553 329.615 83.4553C329.776 83.4553 329.923 83.4435 330.055 83.4198C330.193 83.3961 330.297 83.3748 330.368 83.3559L330.801 85.3658C330.664 85.4132 330.467 85.4653 330.212 85.5221C329.961 85.5789 329.653 85.612 329.288 85.6215C328.644 85.6404 328.064 85.5434 327.548 85.3303C327.032 85.1125 326.623 84.7763 326.32 84.3218C326.021 83.8672 325.874 83.2991 325.879 82.6172V71.9496Z" fill="#212528"/>
</g>
<g filter="url(#filter2_d_378_370)">
<rect x="249.425" y="124.713" width="100.575" height="100.575" rx="16.092" fill="white" shape-rendering="crispEdges"/>
<rect x="250.925" y="126.213" width="97.5747" height="97.5747" rx="14.592" stroke="#212528" stroke-width="3" shape-rendering="crispEdges"/>
<path d="M316.154 157.128H306.759V143.036H292.666V157.128H283.271L299.713 173.569L316.154 157.128ZM283.271 178.267V182.964H316.154V178.267H283.271Z" fill="#0074FF"/>
<path d="M268.647 210.185V195.64H278.108V197.848H271.282V201.797H277.617V204.006H271.282V207.976H278.164V210.185H268.647ZM282.784 199.276L284.986 203.303L287.223 199.276H289.943L286.655 204.73L290 210.185H287.294L284.986 206.257L282.699 210.185H279.972L283.296 204.73L280.057 199.276H282.784ZM291.932 214.276V199.276H294.461V201.08H294.61C294.742 200.815 294.929 200.533 295.171 200.235C295.412 199.932 295.739 199.674 296.151 199.461C296.563 199.243 297.088 199.134 297.728 199.134C298.57 199.134 299.33 199.349 300.007 199.78C300.689 200.206 301.229 200.838 301.627 201.676C302.029 202.51 302.23 203.533 302.23 204.745C302.23 205.943 302.034 206.961 301.641 207.799C301.248 208.637 300.713 209.276 300.036 209.716C299.359 210.157 298.592 210.377 297.735 210.377C297.11 210.377 296.591 210.273 296.179 210.064C295.767 209.856 295.436 209.605 295.185 209.311C294.939 209.013 294.747 208.731 294.61 208.466H294.503V214.276H291.932ZM294.453 204.73C294.453 205.436 294.553 206.054 294.752 206.584C294.955 207.114 295.247 207.529 295.625 207.827C296.009 208.121 296.473 208.267 297.017 208.267C297.586 208.267 298.061 208.116 298.445 207.813C298.828 207.505 299.117 207.086 299.311 206.556C299.51 206.021 299.61 205.412 299.61 204.73C299.61 204.053 299.513 203.452 299.318 202.926C299.124 202.401 298.836 201.989 298.452 201.691C298.068 201.392 297.59 201.243 297.017 201.243C296.468 201.243 296.002 201.388 295.618 201.676C295.235 201.965 294.943 202.37 294.745 202.891C294.55 203.412 294.453 204.025 294.453 204.73ZM309.191 210.398C308.125 210.398 307.202 210.164 306.421 209.695C305.639 209.226 305.033 208.57 304.603 207.728C304.176 206.885 303.963 205.9 303.963 204.773C303.963 203.646 304.176 202.659 304.603 201.811C305.033 200.964 305.639 200.306 306.421 199.837C307.202 199.368 308.125 199.134 309.191 199.134C310.256 199.134 311.179 199.368 311.961 199.837C312.742 200.306 313.345 200.964 313.772 201.811C314.202 202.659 314.418 203.646 314.418 204.773C314.418 205.9 314.202 206.885 313.772 207.728C313.345 208.57 312.742 209.226 311.961 209.695C311.179 210.164 310.256 210.398 309.191 210.398ZM309.205 208.338C309.782 208.338 310.265 208.18 310.654 207.863C311.042 207.541 311.331 207.11 311.52 206.57C311.714 206.03 311.811 205.429 311.811 204.766C311.811 204.098 311.714 203.495 311.52 202.955C311.331 202.41 311.042 201.977 310.654 201.655C310.265 201.333 309.782 201.172 309.205 201.172C308.613 201.172 308.121 201.333 307.728 201.655C307.339 201.977 307.048 202.41 306.854 202.955C306.665 203.495 306.57 204.098 306.57 204.766C306.57 205.429 306.665 206.03 306.854 206.57C307.048 207.11 307.339 207.541 307.728 207.863C308.121 208.18 308.613 208.338 309.205 208.338ZM316.6 210.185V199.276H319.093V201.094H319.207C319.405 200.464 319.746 199.979 320.229 199.638C320.717 199.292 321.273 199.12 321.898 199.12C322.04 199.12 322.199 199.127 322.374 199.141C322.554 199.15 322.703 199.167 322.822 199.191V201.556C322.713 201.518 322.54 201.485 322.303 201.456C322.071 201.423 321.846 201.407 321.628 201.407C321.16 201.407 320.738 201.508 320.364 201.712C319.995 201.911 319.704 202.188 319.491 202.543C319.278 202.898 319.171 203.308 319.171 203.772V210.185H316.6ZM330.563 199.276V201.265H324.292V199.276H330.563ZM325.84 196.662H328.411V206.904C328.411 207.249 328.463 207.515 328.567 207.699C328.676 207.879 328.818 208.002 328.994 208.069C329.169 208.135 329.363 208.168 329.576 208.168C329.737 208.168 329.884 208.156 330.016 208.132C330.154 208.109 330.258 208.087 330.329 208.069L330.762 210.078C330.625 210.126 330.428 210.178 330.173 210.235C329.922 210.292 329.614 210.325 329.249 210.334C328.605 210.353 328.025 210.256 327.509 210.043C326.993 209.825 326.584 209.489 326.28 209.034C325.982 208.58 325.835 208.012 325.84 207.33V196.662Z" fill="#212528"/>
</g>
<defs>
<filter id="filter0_d_378_370" x="0" y="0" width="229.31" height="229.31" filterUnits="userSpaceOnUse" color-interpolation-filters="sRGB">
<feFlood flood-opacity="0" result="BackgroundImageFix"/>
<feColorMatrix in="SourceAlpha" type="matrix" values="0 0 0 0 0 0 0 0 0 0 0 0 0 0 0 0 0 0 127 0" result="hardAlpha"/>
<feOffset dx="4.02299" dy="4.02299"/>
<feComposite in2="hardAlpha" operator="out"/>
<feColorMatrix type="matrix" values="0 0 0 0 0.667568 0 0 0 0 0.805297 0 0 0 0 0.932432 0 0 0 1 0"/>
<feBlend mode="normal" in2="BackgroundImageFix" result="effect1_dropShadow_378_370"/>
<feBlend mode="normal" in="SourceGraphic" in2="effect1_dropShadow_378_370" result="shape"/>
</filter>
<filter id="filter1_d_378_370" x="249.425" y="0" width="104.598" height="104.598" filterUnits="userSpaceOnUse" color-interpolation-filters="sRGB">
<feFlood flood-opacity="0" result="BackgroundImageFix"/>
<feColorMatrix in="SourceAlpha" type="matrix" values="0 0 0 0 0 0 0 0 0 0 0 0 0 0 0 0 0 0 127 0" result="hardAlpha"/>
<feOffset dx="4.02299" dy="4.02299"/>
<feComposite in2="hardAlpha" operator="out"/>
<feColorMatrix type="matrix" values="0 0 0 0 0.932432 0 0 0 0 0.778811 0 0 0 0 0.667568 0 0 0 1 0"/>
<feBlend mode="normal" in2="BackgroundImageFix" result="effect1_dropShadow_378_370"/>
<feBlend mode="normal" in="SourceGraphic" in2="effect1_dropShadow_378_370" result="shape"/>
</filter>
<filter id="filter2_d_378_370" x="249.425" y="124.713" width="104.598" height="104.598" filterUnits="userSpaceOnUse" color-interpolation-filters="sRGB">
<feFlood flood-opacity="0" result="BackgroundImageFix"/>
<feColorMatrix in="SourceAlpha" type="matrix" values="0 0 0 0 0 0 0 0 0 0 0 0 0 0 0 0 0 0 127 0" result="hardAlpha"/>
<feOffset dx="4.02299" dy="4.02299"/>
<feComposite in2="hardAlpha" operator="out"/>
<feColorMatrix type="matrix" values="0 0 0 0 0.932432 0 0 0 0 0.778811 0 0 0 0 0.667568 0 0 0 1 0"/>
<feBlend mode="normal" in2="BackgroundImageFix" result="effect1_dropShadow_378_370"/>
<feBlend mode="normal" in="SourceGraphic" in2="effect1_dropShadow_378_370" result="shape"/>
</filter>
</defs>
</svg>
