<svg width="355" height="230" viewBox="0 0 355 230" fill="none" xmlns="http://www.w3.org/2000/svg">
<g filter="url(#filter0_d_379_494)">
<rect width="225.287" height="225.287" rx="16.092" fill="white" shape-rendering="crispEdges"/>
<rect x="1.5" y="1.5" width="222.287" height="222.287" rx="14.592" stroke="#212528" stroke-width="3" shape-rendering="crispEdges"/>
<path d="M142.816 76.5202H137.787V66.4628C137.787 52.5835 126.523 41.3191 112.644 41.3191C98.7644 41.3191 87.5 52.5835 87.5 66.4628V76.5202H82.4713C76.9396 76.5202 72.4138 81.0461 72.4138 86.5777V136.865C72.4138 142.397 76.9396 146.923 82.4713 146.923H142.816C148.348 146.923 152.874 142.397 152.874 136.865V86.5777C152.874 81.0461 148.348 76.5202 142.816 76.5202ZM112.644 121.779C107.112 121.779 102.586 117.253 102.586 111.721C102.586 106.19 107.112 101.664 112.644 101.664C118.175 101.664 122.701 106.19 122.701 111.721C122.701 117.253 118.175 121.779 112.644 121.779ZM128.233 76.5202H97.0546V66.4628C97.0546 57.8636 104.045 50.8737 112.644 50.8737C121.243 50.8737 128.233 57.8636 128.233 66.4628V76.5202Z" fill="#0074FF"/>
<path d="M71.3752 185.511V167.957H77.9582C79.3068 167.957 80.4383 168.208 81.3526 168.711C82.2727 169.214 82.967 169.905 83.4356 170.785C83.9099 171.66 84.147 172.654 84.147 173.768C84.147 174.894 83.9099 175.894 83.4356 176.768C82.9613 177.643 82.2612 178.331 81.3355 178.834C80.4097 179.331 79.2697 179.58 77.9154 179.58H73.5524V176.965H77.4868C78.2754 176.965 78.9211 176.828 79.424 176.554C79.9269 176.28 80.2983 175.903 80.5383 175.423C80.784 174.943 80.9069 174.391 80.9069 173.768C80.9069 173.145 80.784 172.597 80.5383 172.122C80.2983 171.648 79.924 171.28 79.4154 171.017C78.9126 170.748 78.264 170.614 77.4696 170.614H74.5553V185.511H71.3752ZM86.7721 185.511V172.345H89.7808V174.54H89.9179C90.1579 173.78 90.5694 173.194 91.1522 172.782C91.7408 172.365 92.4123 172.157 93.1666 172.157C93.338 172.157 93.5295 172.165 93.7409 172.182C93.958 172.194 94.138 172.214 94.2809 172.242V175.097C94.1495 175.051 93.9409 175.011 93.6552 174.977C93.3752 174.937 93.1037 174.917 92.8409 174.917C92.2751 174.917 91.7665 175.04 91.3151 175.285C90.8694 175.525 90.5179 175.86 90.2608 176.288C90.0036 176.717 89.8751 177.211 89.8751 177.771V185.511H86.7721ZM101.543 185.769C100.258 185.769 99.1432 185.486 98.2003 184.92C97.2574 184.354 96.526 183.563 96.006 182.546C95.4917 181.528 95.2345 180.34 95.2345 178.98C95.2345 177.62 95.4917 176.428 96.006 175.405C96.526 174.383 97.2574 173.588 98.2003 173.022C99.1432 172.457 100.258 172.174 101.543 172.174C102.829 172.174 103.943 172.457 104.886 173.022C105.829 173.588 106.558 174.383 107.072 175.405C107.592 176.428 107.852 177.62 107.852 178.98C107.852 180.34 107.592 181.528 107.072 182.546C106.558 183.563 105.829 184.354 104.886 184.92C103.943 185.486 102.829 185.769 101.543 185.769ZM101.56 183.283C102.258 183.283 102.84 183.091 103.309 182.709C103.778 182.32 104.126 181.8 104.355 181.148C104.589 180.497 104.706 179.771 104.706 178.971C104.706 178.166 104.589 177.437 104.355 176.785C104.126 176.128 103.778 175.605 103.309 175.217C102.84 174.828 102.258 174.634 101.56 174.634C100.846 174.634 100.252 174.828 99.7775 175.217C99.3089 175.605 98.9575 176.128 98.7232 176.785C98.4946 177.437 98.3803 178.166 98.3803 178.971C98.3803 179.771 98.4946 180.497 98.7232 181.148C98.9575 181.8 99.3089 182.32 99.7775 182.709C100.252 183.091 100.846 183.283 101.56 183.283ZM117.06 172.345V174.745H109.491V172.345H117.06ZM111.36 169.191H114.463V181.551C114.463 181.969 114.526 182.289 114.652 182.511C114.783 182.729 114.954 182.877 115.166 182.957C115.377 183.037 115.612 183.077 115.869 183.077C116.063 183.077 116.24 183.063 116.4 183.034C116.566 183.006 116.692 182.98 116.777 182.957L117.3 185.383C117.135 185.44 116.897 185.503 116.589 185.571C116.286 185.64 115.914 185.68 115.474 185.691C114.697 185.714 113.997 185.597 113.374 185.34C112.752 185.077 112.257 184.671 111.891 184.123C111.531 183.574 111.354 182.889 111.36 182.066V169.191ZM125.343 185.769C124.023 185.769 122.883 185.494 121.923 184.946C120.968 184.391 120.234 183.609 119.72 182.597C119.205 181.58 118.948 180.383 118.948 179.006C118.948 177.651 119.205 176.463 119.72 175.44C120.24 174.411 120.965 173.611 121.897 173.04C122.828 172.462 123.923 172.174 125.18 172.174C125.991 172.174 126.757 172.305 127.477 172.568C128.203 172.825 128.843 173.225 129.397 173.768C129.957 174.311 130.397 175.003 130.717 175.843C131.037 176.677 131.197 177.671 131.197 178.826V179.777H120.405V177.686H128.223C128.217 177.091 128.088 176.563 127.837 176.1C127.586 175.631 127.234 175.263 126.783 174.994C126.337 174.725 125.817 174.591 125.223 174.591C124.588 174.591 124.031 174.745 123.551 175.054C123.071 175.357 122.697 175.757 122.428 176.254C122.165 176.745 122.031 177.285 122.025 177.874V179.7C122.025 180.466 122.165 181.123 122.445 181.671C122.725 182.214 123.117 182.631 123.62 182.923C124.123 183.209 124.711 183.351 125.385 183.351C125.837 183.351 126.246 183.289 126.611 183.163C126.977 183.031 127.294 182.84 127.563 182.589C127.831 182.337 128.034 182.026 128.171 181.654L131.069 181.98C130.886 182.746 130.537 183.414 130.023 183.986C129.514 184.551 128.863 184.991 128.068 185.306C127.274 185.614 126.366 185.769 125.343 185.769ZM139.565 185.769C138.251 185.769 137.122 185.48 136.179 184.903C135.242 184.326 134.519 183.529 134.011 182.511C133.508 181.488 133.256 180.311 133.256 178.98C133.256 177.643 133.514 176.463 134.028 175.44C134.542 174.411 135.268 173.611 136.205 173.04C137.148 172.462 138.262 172.174 139.548 172.174C140.617 172.174 141.562 172.371 142.385 172.765C143.214 173.154 143.874 173.705 144.365 174.42C144.857 175.128 145.137 175.957 145.205 176.905H142.24C142.12 176.271 141.834 175.743 141.382 175.32C140.937 174.891 140.34 174.677 139.591 174.677C138.957 174.677 138.399 174.848 137.919 175.191C137.439 175.528 137.065 176.014 136.797 176.648C136.534 177.283 136.402 178.043 136.402 178.928C136.402 179.826 136.534 180.597 136.797 181.243C137.059 181.883 137.428 182.377 137.902 182.726C138.382 183.069 138.945 183.24 139.591 183.24C140.048 183.24 140.457 183.154 140.817 182.983C141.182 182.806 141.488 182.551 141.734 182.22C141.98 181.888 142.148 181.486 142.24 181.011H145.205C145.131 181.943 144.857 182.769 144.383 183.489C143.908 184.203 143.263 184.763 142.445 185.169C141.628 185.569 140.668 185.769 139.565 185.769ZM154.328 172.345V174.745H146.759V172.345H154.328ZM148.628 169.191H151.731V181.551C151.731 181.969 151.793 182.289 151.919 182.511C152.051 182.729 152.222 182.877 152.434 182.957C152.645 183.037 152.879 183.077 153.136 183.077C153.331 183.077 153.508 183.063 153.668 183.034C153.834 183.006 153.959 182.98 154.045 182.957L154.568 185.383C154.402 185.44 154.165 185.503 153.856 185.571C153.554 185.64 153.182 185.68 152.742 185.691C151.965 185.714 151.265 185.597 150.642 185.34C150.019 185.077 149.525 184.671 149.159 184.123C148.799 183.574 148.622 182.889 148.628 182.066V169.191Z" fill="#212528"/>
</g>
<g filter="url(#filter1_d_379_494)">
<rect x="249.425" width="100.575" height="100.575" rx="16.092" fill="white" shape-rendering="crispEdges"/>
<rect x="250.925" y="1.5" width="97.5747" height="97.5747" rx="14.592" stroke="#212528" stroke-width="3" shape-rendering="crispEdges"/>
<path d="M317.328 30.3229L313.805 26.7998L310.282 30.3229L306.759 26.7998L303.236 30.3229L299.713 26.7998L296.19 30.3229L292.666 26.7998L289.143 30.3229L285.62 26.7998V59.6823H278.574V66.7285C278.574 70.6275 281.721 73.7748 285.62 73.7748H313.805C317.704 73.7748 320.851 70.6275 320.851 66.7285V26.7998L317.328 30.3229ZM316.154 66.7285C316.154 68.0204 315.097 69.0773 313.805 69.0773C312.513 69.0773 311.456 68.0204 311.456 66.7285V59.6823H290.318V33.8461H316.154V66.7285Z" fill="#0074FF"/>
<path d="M306.759 38.5436H292.666V43.2411H306.759V38.5436Z" fill="#0074FF"/>
<path d="M313.805 38.5436H309.108V43.2411H313.805V38.5436Z" fill="#0074FF"/>
<path d="M306.759 45.5898H292.666V50.2873H306.759V45.5898Z" fill="#0074FF"/>
<path d="M313.805 45.5898H309.108V50.2873H313.805V45.5898Z" fill="#0074FF"/>
</g>
<g filter="url(#filter2_d_379_494)">
<rect x="249.425" y="124.713" width="100.575" height="100.575" rx="16.092" fill="white" shape-rendering="crispEdges"/>
<rect x="250.925" y="126.213" width="97.5747" height="97.5747" rx="14.592" stroke="#212528" stroke-width="3" shape-rendering="crispEdges"/>
<path d="M317.328 155.036L313.805 151.512L310.282 155.036L306.759 151.512L303.236 155.036L299.713 151.512L296.19 155.036L292.666 151.512L289.143 155.036L285.62 151.512V184.395H278.574V191.441C278.574 195.34 281.721 198.487 285.62 198.487H313.805C317.704 198.487 320.851 195.34 320.851 191.441V151.512L317.328 155.036ZM316.154 191.441C316.154 192.733 315.097 193.79 313.805 193.79C312.513 193.79 311.456 192.733 311.456 191.441V184.395H290.318V158.559H316.154V191.441Z" fill="#0074FF"/>
<path d="M306.759 163.256H292.666V167.954H306.759V163.256Z" fill="#0074FF"/>
<path d="M313.805 163.256H309.108V167.954H313.805V163.256Z" fill="#0074FF"/>
<path d="M306.759 170.302H292.666V175H306.759V170.302Z" fill="#0074FF"/>
<path d="M313.805 170.302H309.108V175H313.805V170.302Z" fill="#0074FF"/>
</g>
<defs>
<filter id="filter0_d_379_494" x="0" y="0" width="229.31" height="229.31" filterUnits="userSpaceOnUse" color-interpolation-filters="sRGB">
<feFlood flood-opacity="0" result="BackgroundImageFix"/>
<feColorMatrix in="SourceAlpha" type="matrix" values="0 0 0 0 0 0 0 0 0 0 0 0 0 0 0 0 0 0 127 0" result="hardAlpha"/>
<feOffset dx="4.02299" dy="4.02299"/>
<feComposite in2="hardAlpha" operator="out"/>
<feColorMatrix type="matrix" values="0 0 0 0 0.667568 0 0 0 0 0.805297 0 0 0 0 0.932432 0 0 0 1 0"/>
<feBlend mode="normal" in2="BackgroundImageFix" result="effect1_dropShadow_379_494"/>
<feBlend mode="normal" in="SourceGraphic" in2="effect1_dropShadow_379_494" result="shape"/>
</filter>
<filter id="filter1_d_379_494" x="249.425" y="0" width="104.598" height="104.598" filterUnits="userSpaceOnUse" color-interpolation-filters="sRGB">
<feFlood flood-opacity="0" result="BackgroundImageFix"/>
<feColorMatrix in="SourceAlpha" type="matrix" values="0 0 0 0 0 0 0 0 0 0 0 0 0 0 0 0 0 0 127 0" result="hardAlpha"/>
<feOffset dx="4.02299" dy="4.02299"/>
<feComposite in2="hardAlpha" operator="out"/>
<feColorMatrix type="matrix" values="0 0 0 0 0.932432 0 0 0 0 0.778811 0 0 0 0 0.667568 0 0 0 1 0"/>
<feBlend mode="normal" in2="BackgroundImageFix" result="effect1_dropShadow_379_494"/>
<feBlend mode="normal" in="SourceGraphic" in2="effect1_dropShadow_379_494" result="shape"/>
</filter>
<filter id="filter2_d_379_494" x="249.425" y="124.713" width="104.598" height="104.598" filterUnits="userSpaceOnUse" color-interpolation-filters="sRGB">
<feFlood flood-opacity="0" result="BackgroundImageFix"/>
<feColorMatrix in="SourceAlpha" type="matrix" values="0 0 0 0 0 0 0 0 0 0 0 0 0 0 0 0 0 0 127 0" result="hardAlpha"/>
<feOffset dx="4.02299" dy="4.02299"/>
<feComposite in2="hardAlpha" operator="out"/>
<feColorMatrix type="matrix" values="0 0 0 0 0.932432 0 0 0 0 0.778811 0 0 0 0 0.667568 0 0 0 1 0"/>
<feBlend mode="normal" in2="BackgroundImageFix" result="effect1_dropShadow_379_494"/>
<feBlend mode="normal" in="SourceGraphic" in2="effect1_dropShadow_379_494" result="shape"/>
</filter>
</defs>
</svg>
