<svg width="303" height="305" viewBox="0 0 303 305" fill="none" xmlns="http://www.w3.org/2000/svg">
<path d="M75.4502 127.89L85.8102 105.69L71.4418 91.3214L62.8085 91.3214L48.4402 105.69L58.8002 127.89C59.9102 130.233 58.8619 132.946 56.5802 134.056C54.2369 135.166 51.5235 134.118 50.4135 131.836L39.1285 107.663C38.0185 105.32 38.5118 102.545 40.3618 100.695L51.0918 89.9647C49.6118 88.8547 48.6252 87.128 48.6252 85.1547C48.6252 81.763 51.4002 78.988 54.7918 78.988L60.9585 78.988L60.9585 59.378C53.8052 56.788 48.6252 50.0047 48.6252 41.988C48.6252 31.7514 56.8885 23.488 67.1252 23.488C73.9085 23.488 79.7668 27.188 83.0352 32.6147L134.959 48.648L134.959 41.988C134.959 35.2047 140.509 29.6547 147.292 29.6547L153.459 29.6547L153.459 109.821L147.292 109.821C140.509 109.821 134.959 104.271 134.959 97.488L134.959 87.498L78.0402 56.8497C76.5602 57.898 75.0185 58.7614 73.2918 59.378L73.2918 78.988L79.4585 78.988C82.8502 78.988 85.6252 81.763 85.6252 85.1547C85.6252 87.128 84.6385 88.8547 83.1585 89.9647L93.8885 100.695C95.7385 102.545 96.2319 105.32 95.1219 107.663L83.8369 131.836C82.7269 134.18 80.0135 135.166 77.6702 134.056C75.3885 132.946 74.3402 130.233 75.4502 127.89ZM73.2918 41.988C73.2918 38.5964 70.5168 35.8214 67.1252 35.8214C63.7335 35.8214 60.9585 38.5964 60.9585 41.988C60.9585 45.3797 63.7335 48.1547 67.1252 48.1547C70.5168 48.1547 73.2918 45.3797 73.2918 41.988ZM134.959 73.4997L134.959 61.5364L85.6252 46.3664L85.6252 46.983L134.959 73.4997Z" fill="black"/>
<g filter="url(#filter0_d_383_474)">
<rect y="173" width="128" height="128" rx="9.14286" fill="white" shape-rendering="crispEdges"/>
<rect x="1.5" y="174.5" width="125" height="125" rx="7.64286" stroke="#212528" stroke-width="3" shape-rendering="crispEdges"/>
<path fill-rule="evenodd" clip-rule="evenodd" d="M83.307 231.479L58.0522 240.319L53.3021 226.597L78.5305 217.758L83.307 231.479Z" fill="#0080FF"/>
<path fill-rule="evenodd" clip-rule="evenodd" d="M66.6567 262.009C66.8415 263.222 66.8151 264.463 66.5512 265.65L98.245 254.567L97.1366 251.348L66.6567 262.009Z" fill="#0080FF"/>
<path fill-rule="evenodd" clip-rule="evenodd" d="M53.7248 255.122C49.2122 256.652 46.8107 261.56 48.3677 266.072C49.8983 270.584 54.8067 272.986 59.3194 271.455C63.8056 269.898 66.2334 265.017 64.6764 260.504C64.6764 260.478 64.6764 260.452 64.6764 260.452C63.1722 255.966 58.3166 253.565 53.8567 255.069C53.8303 255.095 53.7776 255.095 53.7248 255.122ZM58.1582 267.655C55.7832 268.473 53.197 267.26 52.3789 264.885C51.5344 262.536 52.7748 259.95 55.1498 259.132C57.4985 258.288 60.0846 259.528 60.9027 261.877C61.668 264.225 60.4541 266.785 58.1582 267.655Z" fill="#0080FF"/>
<path fill-rule="evenodd" clip-rule="evenodd" d="M92.3781 233.273L97.3393 247.469L66.6483 258.235C65.9094 256.81 64.8803 255.57 63.6663 254.567L60.2357 244.593L92.3781 233.273ZM93.0378 231.822L58.7051 243.802L62.6635 255.122C64.1677 256.23 65.3025 257.734 65.9886 259.449L98.6852 248.024L93.0378 231.822Z" fill="#0080FF"/>
<path fill-rule="evenodd" clip-rule="evenodd" d="M59.2669 253.354L42.3512 204.881L42.4568 202.427L29.4468 202.084L29.3148 207.862L39.2637 208.206L54.939 253.222L59.2669 253.354Z" fill="#0080FF"/>
</g>
<g filter="url(#filter1_d_383_474)">
<rect x="149" width="150" height="301" rx="14.36" fill="white" shape-rendering="crispEdges"/>
<rect x="150.5" y="1.5" width="147" height="298" rx="12.86" stroke="#182383" stroke-width="3" shape-rendering="crispEdges"/>
<path d="M211.083 33.9999H214.417V38.9999H231.083V33.9999H234.417V42.3333H237.75V33.9999C237.75 32.1666 236.25 30.6666 234.417 30.6666H227.45C226.75 28.7333 224.917 27.3333 222.75 27.3333C220.583 27.3333 218.75 28.7333 218.05 30.6666H211.083C209.25 30.6666 207.75 32.1666 207.75 33.9999V57.3333C207.75 59.1666 209.25 60.6666 211.083 60.6666H221.083V57.3333H211.083V33.9999ZM222.75 30.6666C223.667 30.6666 224.417 31.4166 224.417 32.3333C224.417 33.2499 223.667 33.9999 222.75 33.9999C221.833 33.9999 221.083 33.2499 221.083 32.3333C221.083 31.4166 221.833 30.6666 222.75 30.6666Z" fill="#F2800D"/>
<path d="M237.75 44.8333L228.6 53.9999L223.583 48.9999L221.083 51.4999L228.6 58.9999L240.25 47.3333L237.75 44.8333Z" fill="#F2800D"/>
<path d="M236.369 104.138C236.887 103.119 236.467 101.88 235.43 101.371C234.393 100.861 233.132 101.274 232.613 102.293L228.832 109.724L224.089 103.898C223.036 102.605 220.973 102.819 220.22 104.301L217.256 110.124L212.832 111.573C211.732 111.933 211.138 113.101 211.505 114.182C211.871 115.263 213.06 115.847 214.16 115.487L219.326 113.795C219.907 113.605 220.388 113.195 220.662 112.657L222.654 108.741L227.398 114.567C228.451 115.86 230.513 115.645 231.267 114.164L236.369 104.138Z" fill="#505159"/>
<path fill-rule="evenodd" clip-rule="evenodd" d="M219.802 89.105C222.4 87.6317 225.6 87.6317 228.198 89.105L239.8 95.6849C242.399 97.1587 244 99.883 244 102.831V115.987C244 118.935 242.399 121.659 239.8 123.133L228.198 129.713C225.6 131.187 222.4 131.187 219.802 129.713L208.2 123.133C205.601 121.659 204 118.935 204 115.987V102.831C204 99.883 205.601 97.1587 208.2 95.6849L219.802 89.105ZM226.099 92.6782L237.701 99.2581C239.001 99.995 239.801 101.357 239.801 102.831V115.987C239.801 117.461 239.001 118.823 237.701 119.56L226.099 126.14C224.8 126.877 223.2 126.877 221.901 126.14L210.299 119.56C208.999 118.823 208.199 117.461 208.199 115.987V102.831C208.199 101.357 208.999 99.995 210.299 99.2581L221.901 92.6782C223.2 91.9415 224.8 91.9415 226.099 92.6782Z" fill="#505159"/>
<path fill-rule="evenodd" clip-rule="evenodd" d="M204 160.178C204 157.218 206.442 154.818 209.455 154.818H224C227.013 154.818 229.455 157.218 229.455 160.178V160.304C230.048 160.221 230.655 160.178 231.273 160.178C238.302 160.178 244 165.777 244 172.683C244 178.928 239.342 184.103 233.253 185.038L234.325 186.861C236.221 190.088 233.851 194.121 230.059 194.121H212.567C208.775 194.121 206.405 190.088 208.301 186.861L212.433 179.829H209.455C206.442 179.829 204 177.43 204 174.47V160.178ZM229.029 184.995C224.135 184.139 220.208 180.535 218.961 175.865L211.45 188.648C210.954 189.492 211.574 190.548 212.567 190.548H230.059C231.051 190.548 231.672 189.492 231.175 188.648L229.029 184.995ZM218.789 170.235C219.582 166.313 222.241 163.051 225.818 161.381V160.178C225.818 159.191 225.004 158.391 224 158.391H209.455C208.45 158.391 207.636 159.191 207.636 160.178V174.47C207.636 175.456 208.45 176.256 209.455 176.256H214.532L217.047 171.977C217.49 171.223 218.097 170.639 218.789 170.235ZM222.182 172.683C222.182 167.75 226.252 163.751 231.273 163.751C236.293 163.751 240.364 167.75 240.364 172.683C240.364 177.616 236.293 181.615 231.273 181.615C226.252 181.615 222.182 177.616 222.182 172.683Z" fill="#505159"/>
<path fill-rule="evenodd" clip-rule="evenodd" d="M221.563 218.648C223.115 217.945 224.885 217.945 226.437 218.648L242.812 226.066C243.535 226.393 244 227.123 244 227.928C244 228.734 243.535 229.464 242.812 229.791L235.674 233.025L242.812 236.258C243.535 236.585 244 237.315 244 238.121C244 238.926 243.535 239.656 242.812 239.983L235.674 243.217L242.812 246.45C243.535 246.777 244 247.507 244 248.313C244 249.119 243.535 249.848 242.812 250.176L226.437 257.594C224.885 258.296 223.115 258.296 221.563 257.594L205.188 250.176C204.465 249.848 204 249.119 204 248.313C204 247.507 204.465 246.777 205.188 246.45L212.326 243.217L205.188 239.983C204.465 239.656 204 238.926 204 238.121C204 237.315 204.465 236.585 205.188 236.258L212.326 233.025L205.188 229.791C204.465 229.464 204 228.734 204 227.928C204 227.123 204.465 226.393 205.188 226.066L221.563 218.648ZM217.25 235.255L210.924 238.121L223.188 243.676C223.705 243.91 224.295 243.91 224.812 243.676L237.076 238.121L230.75 235.255L226.437 237.209C224.885 237.912 223.115 237.912 221.563 237.209L217.25 235.255ZM217.25 245.447L210.924 248.313L223.188 253.868C223.705 254.102 224.295 254.102 224.812 253.868L237.076 248.313L230.75 245.447L226.437 247.401C224.885 248.104 223.115 248.104 221.563 247.401L217.25 245.447ZM224.812 222.373C224.295 222.139 223.705 222.139 223.188 222.373L210.924 227.928L223.188 233.484C223.705 233.718 224.295 233.718 224.812 233.484L237.076 227.928L224.812 222.373Z" fill="#505159"/>
</g>
<defs>
<filter id="filter0_d_383_474" x="0" y="173" width="130.286" height="130.286" filterUnits="userSpaceOnUse" color-interpolation-filters="sRGB">
<feFlood flood-opacity="0" result="BackgroundImageFix"/>
<feColorMatrix in="SourceAlpha" type="matrix" values="0 0 0 0 0 0 0 0 0 0 0 0 0 0 0 0 0 0 127 0" result="hardAlpha"/>
<feOffset dx="2.28571" dy="2.28571"/>
<feComposite in2="hardAlpha" operator="out"/>
<feColorMatrix type="matrix" values="0 0 0 0 0.667568 0 0 0 0 0.805297 0 0 0 0 0.932432 0 0 0 1 0"/>
<feBlend mode="normal" in2="BackgroundImageFix" result="effect1_dropShadow_383_474"/>
<feBlend mode="normal" in="SourceGraphic" in2="effect1_dropShadow_383_474" result="shape"/>
</filter>
<filter id="filter1_d_383_474" x="149" y="0" width="153.59" height="304.59" filterUnits="userSpaceOnUse" color-interpolation-filters="sRGB">
<feFlood flood-opacity="0" result="BackgroundImageFix"/>
<feColorMatrix in="SourceAlpha" type="matrix" values="0 0 0 0 0 0 0 0 0 0 0 0 0 0 0 0 0 0 127 0" result="hardAlpha"/>
<feOffset dx="3.59" dy="3.59"/>
<feComposite in2="hardAlpha" operator="out"/>
<feColorMatrix type="matrix" values="0 0 0 0 0.979608 0 0 0 0 0.800784 0 0 0 0 0.620392 0 0 0 1 0"/>
<feBlend mode="normal" in2="BackgroundImageFix" result="effect1_dropShadow_383_474"/>
<feBlend mode="normal" in="SourceGraphic" in2="effect1_dropShadow_383_474" result="shape"/>
</filter>
</defs>
</svg>
