<svg width="420" height="288" viewBox="0 0 420 288" fill="none" xmlns="http://www.w3.org/2000/svg">
<g clip-path="url(#clip0_10734_88880)">
<path fill-rule="evenodd" clip-rule="evenodd" d="M369.929 36.7424H14.3042C6.38189 36.7424 0 43.1229 0 51.0434V273.699C0 281.619 6.38189 287.78 14.3042 288H369.929C377.852 287.78 384.014 281.619 384.014 273.699V51.0434C384.014 43.1229 377.852 36.7424 369.929 36.7424ZM370.81 261.598C370.59 269.519 363.988 275.899 356.065 275.899H27.7282C19.8059 275.899 13.424 269.519 13.2039 261.598V62.7042C13.424 54.7837 19.8059 48.4032 27.7282 48.6233H356.285C364.208 48.4032 370.81 54.7837 371.03 62.7042V261.598H370.81Z" fill="#1A237E"/>
<path d="M32.5696 74.585L34.7703 75.245C34.3302 76.3451 33.89 77.4452 33.0098 77.8852C32.3496 78.5452 31.2492 78.7653 30.1489 78.7653C28.6085 78.7653 27.2881 78.3252 26.4078 77.2251C25.5275 76.3451 25.0874 74.805 25.0874 73.0449C25.0874 71.2847 25.5275 69.7446 26.4078 68.8646C27.2881 67.7645 28.6085 67.3245 30.1489 67.3245C31.6894 67.3245 32.7897 67.7645 33.67 68.4245C34.1101 68.8646 34.5502 69.5246 34.7703 70.6247L32.5696 71.0647C32.3496 70.4047 32.1295 69.9646 31.6894 69.7446C31.2492 69.3046 30.8091 69.0846 30.1489 69.0846C29.2687 69.0846 28.6085 69.5246 28.1683 70.1847C27.5081 70.6247 27.2881 71.7248 27.2881 73.0449C27.2881 74.3649 27.5081 75.465 28.1683 75.9051C28.6085 76.5651 29.2687 76.7851 30.1489 76.7851C30.589 76.7851 31.2492 76.7851 31.6894 76.3451C32.1295 75.9051 32.3496 75.245 32.5696 74.585Z" fill="#1A237E"/>
<path d="M38.7315 78.5453H36.5308V70.6248H38.5114V71.7249C38.9515 71.0648 39.1716 70.8448 39.3917 70.6248C39.8318 70.4048 40.0518 70.4048 40.492 70.4048C40.9321 70.4048 41.3722 70.4048 41.8124 70.8448L41.1522 72.6049C40.712 72.3849 40.492 72.3849 40.0518 72.3849C39.8318 72.3849 39.6117 72.3849 39.3917 72.6049C39.1716 72.6049 38.9515 73.045 38.9515 73.485C38.7315 73.925 38.7315 74.8051 38.7315 76.1252V78.5453Z" fill="#1A237E"/>
<path d="M47.534 76.1252L49.5146 76.3452C49.2946 77.2253 48.8544 77.8853 48.1942 78.3253C47.7541 78.5454 46.8739 78.7654 45.9936 78.7654C44.6732 78.7654 43.5729 78.3253 42.9127 77.4453C42.4726 76.7852 42.0324 75.6852 42.0324 74.5851C42.0324 73.265 42.4726 72.1649 43.1327 71.5049C43.7929 70.8448 44.6732 70.4048 45.7735 70.4048C47.0939 70.4048 47.9742 70.8448 48.6344 71.5049C49.2946 72.3849 49.7347 73.485 49.7347 75.2451H44.2331C44.4531 75.9052 44.4531 76.3452 44.8933 76.7852C45.1133 77.0052 45.5535 77.2253 45.9936 77.2253C46.4337 77.2253 46.6538 77.2253 46.8739 77.0052C47.0939 76.7852 47.314 76.5652 47.534 76.1252ZM47.534 73.925C47.534 73.265 47.314 72.825 47.0939 72.3849C46.8739 72.1649 46.4337 71.9449 45.9936 71.9449C45.5535 71.9449 45.1133 72.1649 44.8933 72.6049C44.4531 72.825 44.4531 73.265 44.4531 73.925H47.534Z" fill="#1A237E"/>
<path d="M53.0357 73.045L51.0551 72.6049C51.2752 71.9449 51.7153 71.2848 52.1554 70.8448C52.8156 70.6248 53.4758 70.4048 54.5761 70.4048C55.6765 70.4048 56.3366 70.4048 56.7768 70.6248C57.2169 70.8448 57.657 71.2848 57.657 71.5049C57.8771 71.9449 58.0972 72.6049 58.0972 73.485V75.9052C58.0972 76.7852 58.0972 77.2253 58.0972 77.6653C58.0972 77.8853 58.3172 78.3253 58.5373 78.5454H56.3366C56.3366 78.5454 56.3366 78.3253 56.1166 78.1053C56.1166 77.8853 56.1166 77.8853 56.1166 77.6653C55.6765 78.1053 55.2363 78.3253 54.7962 78.5454C54.5761 78.7654 54.136 78.7654 53.4758 78.7654C52.8156 78.7654 52.1554 78.5454 51.4952 78.1053C51.0551 77.6653 50.835 77.2253 50.835 76.3452C50.835 75.9052 51.0551 75.6852 51.2752 75.2451C51.4952 74.8051 51.7153 74.5851 52.1554 74.3651C52.5955 74.145 53.0357 74.145 53.9159 73.925C54.7962 73.705 55.4564 73.485 55.8965 73.485V73.265C55.8965 72.825 55.8965 72.3849 55.6765 72.1649C55.4564 72.1649 55.0163 71.9449 54.3561 71.9449C54.136 71.9449 53.6959 72.1649 53.4758 72.1649C53.2557 72.3849 53.2557 72.6049 53.0357 73.045ZM55.8965 74.8051C55.6765 74.8051 55.2363 75.0251 54.5761 75.0251C53.9159 75.2451 53.6959 75.2451 53.4758 75.4651C53.2557 75.6852 53.0357 75.9052 53.0357 76.1252C53.0357 76.5652 53.0357 76.7852 53.2557 77.0052C53.6959 77.2253 53.9159 77.2253 54.136 77.2253C54.5761 77.2253 55.0163 77.2253 55.2363 77.0052C55.6765 76.7852 55.6765 76.5652 55.8965 76.3452C55.8965 76.1252 55.8965 75.6852 55.8965 75.2451V74.8051Z" fill="#1A237E"/>
<path d="M63.8189 70.6248V72.165H62.2784V75.4652C62.2784 76.1252 62.4985 76.5653 62.4985 76.7853C62.4985 76.7853 62.4985 76.7853 62.7185 77.0053H62.9386C63.1587 77.0053 63.3787 77.0053 63.8189 76.7853L64.0389 78.5454C63.5988 78.7654 62.9386 78.7654 62.2784 78.7654C61.8383 78.7654 61.6182 78.7654 61.1781 78.5454C60.958 78.5454 60.7379 78.3254 60.5179 78.1054C60.5179 77.8853 60.2978 77.6653 60.2978 77.2253C60.2978 77.0053 60.2978 76.5653 60.2978 75.6852V72.165H59.1975V70.6248H60.2978V68.8647L62.2784 67.7646V70.6248H63.8189Z" fill="#1A237E"/>
<path d="M69.9807 76.1252L72.1813 76.3452C71.9613 77.2253 71.5211 77.8853 70.8609 78.3253C70.2007 78.5454 69.5405 78.7654 68.6603 78.7654C67.3399 78.7654 66.2396 78.3253 65.5794 77.4453C64.9192 76.7852 64.6991 75.6852 64.6991 74.5851C64.6991 73.265 65.1393 72.1649 65.7995 71.5049C66.4596 70.8448 67.3399 70.4048 68.4402 70.4048C69.5405 70.4048 70.6409 70.8448 71.3011 71.5049C71.9613 72.3849 72.4014 73.485 72.4014 75.2451H66.8998C66.8998 75.9052 67.1198 76.3452 67.3399 76.7852C67.78 77.0052 68.2202 77.2253 68.6603 77.2253C69.1004 77.2253 69.3205 77.2253 69.5405 77.0052C69.7606 76.7852 69.9807 76.5652 69.9807 76.1252ZM70.2007 73.925C70.2007 73.265 69.9807 72.825 69.7606 72.3849C69.3205 72.1649 69.1004 71.9449 68.6603 71.9449C68.0001 71.9449 67.78 72.1649 67.3399 72.6049C67.1198 72.825 66.8998 73.265 66.8998 73.925H70.2007Z" fill="#1A237E"/>
<path d="M87.806 78.5454H85.3852L84.505 76.1253H80.1037L79.0034 78.5454H76.5826L80.9839 67.5447H83.4047L87.806 78.5454ZM83.8448 74.1451L82.3043 69.9648L80.7639 74.1451H83.8448Z" fill="#1A237E"/>
<path d="M96.1684 73.045L93.9678 73.265C93.9678 72.825 93.7477 72.6049 93.5276 72.3849C93.3076 72.1649 93.0875 71.9449 92.6474 71.9449C91.9872 71.9449 91.5471 72.1649 91.327 72.6049C90.8869 73.045 90.8869 73.485 90.8869 74.3651C90.8869 75.4651 90.8869 76.1252 91.327 76.5652C91.5471 77.0052 91.9872 77.0052 92.6474 77.0052C93.0875 77.0052 93.3076 77.0052 93.5276 76.7852C93.9678 76.5652 93.9678 76.1252 94.1878 75.4651L96.1684 75.9052C95.9484 76.7852 95.7283 77.6653 95.0681 78.1053C94.4079 78.5454 93.5276 78.7654 92.4273 78.7654C91.327 78.7654 90.4467 78.5454 89.7865 77.6653C88.9063 77.0052 88.6862 75.9052 88.6862 74.5851C88.6862 73.265 88.9063 72.1649 89.7865 71.5049C90.4467 70.6248 91.327 70.4048 92.6474 70.4048C93.5276 70.4048 94.4079 70.6248 94.848 71.0648C95.5082 71.5049 95.9484 72.1649 96.1684 73.045Z" fill="#1A237E"/>
<path d="M104.971 73.045L102.77 73.265C102.77 72.825 102.55 72.6049 102.33 72.3849C102.11 72.1649 101.67 71.9449 101.23 71.9449C100.79 71.9449 100.35 72.1649 99.9095 72.6049C99.6895 73.045 99.4694 73.485 99.4694 74.3651C99.4694 75.4651 99.6895 76.1252 99.9095 76.5652C100.35 77.0052 100.79 77.0052 101.23 77.0052C101.67 77.0052 102.11 77.0052 102.33 76.7852C102.55 76.5652 102.77 76.1252 102.77 75.4651L104.971 75.9052C104.751 76.7852 104.311 77.6653 103.651 78.1053C102.99 78.5454 102.33 78.7654 101.23 78.7654C100.13 78.7654 99.0293 78.5454 98.3691 77.6653C97.7089 77.0052 97.2688 75.9052 97.2688 74.5851C97.2688 73.265 97.7089 72.1649 98.3691 71.5049C99.0293 70.6248 100.13 70.4048 101.23 70.4048C102.33 70.4048 102.99 70.6248 103.651 71.0648C104.091 71.5049 104.531 72.1649 104.971 73.045Z" fill="#1A237E"/>
<path d="M106.071 74.5851C106.071 73.705 106.071 73.045 106.511 72.3849C106.952 71.7249 107.392 71.2848 108.052 70.8448C108.712 70.6248 109.372 70.4048 110.253 70.4048C111.353 70.4048 112.453 70.8448 113.113 71.5049C113.994 72.3849 114.434 73.265 114.434 74.5851C114.434 75.9052 113.994 76.7852 113.113 77.6653C112.453 78.5454 111.353 78.7654 110.253 78.7654C109.372 78.7654 108.712 78.7654 108.052 78.3253C107.392 78.1053 106.952 77.4453 106.511 76.7852C106.071 76.1252 106.071 75.4651 106.071 74.5851ZM108.272 74.5851C108.272 75.4651 108.492 76.1252 108.712 76.3452C109.152 76.7852 109.592 77.0052 110.253 77.0052C110.693 77.0052 111.133 76.7852 111.573 76.3452C112.013 76.1252 112.233 75.4651 112.233 74.5851C112.233 73.705 112.013 73.265 111.573 72.825C111.133 72.3849 110.693 72.1649 110.253 72.1649C109.592 72.1649 109.152 72.3849 108.712 72.825C108.492 73.265 108.272 73.705 108.272 74.5851Z" fill="#1A237E"/>
<path d="M121.476 78.5453V77.4452C121.036 77.8853 120.816 78.1053 120.156 78.5453C119.715 78.7653 119.275 78.7653 118.615 78.7653C118.175 78.7653 117.735 78.7653 117.295 78.5453C116.855 78.3253 116.414 77.8853 116.194 77.4452C116.194 77.0052 115.974 76.3452 115.974 75.6851V70.6248H118.175V74.365C118.175 75.4651 118.175 76.1251 118.175 76.3452C118.395 76.5652 118.395 76.7852 118.615 77.0052C118.835 77.2252 119.275 77.2252 119.495 77.2252C119.935 77.2252 120.156 77.0052 120.596 77.0052C120.816 76.7852 121.036 76.3452 121.036 76.1251C121.256 75.9051 121.256 75.0251 121.256 73.925V70.6248H123.456V78.5453H121.476Z" fill="#1A237E"/>
<path d="M132.919 78.5453H130.719V74.5851C130.719 73.705 130.719 73.045 130.719 72.825C130.499 72.6049 130.499 72.3849 130.279 72.1649C130.058 72.1649 129.838 71.9449 129.398 71.9449C129.178 71.9449 128.738 72.1649 128.518 72.3849C128.078 72.6049 128.078 72.825 127.858 73.045C127.858 73.485 127.638 74.145 127.638 75.0251V78.5453H125.657V70.6248H127.638V71.7249C128.298 70.8448 129.178 70.4048 130.279 70.4048C130.719 70.4048 131.159 70.4048 131.599 70.6248C132.039 70.8448 132.259 71.0648 132.479 71.2848C132.699 71.5049 132.699 71.7249 132.919 72.1649C132.919 72.6049 132.919 73.045 132.919 73.705V78.5453Z" fill="#1A237E"/>
<path d="M138.861 70.6248V72.165H137.321V75.4652C137.321 76.1252 137.321 76.5653 137.321 76.7853C137.541 76.7853 137.541 76.7853 137.541 77.0053C137.761 77.0053 137.761 77.0053 137.981 77.0053C138.201 77.0053 138.421 77.0053 138.861 76.7853L139.081 78.5454C138.421 78.7654 137.981 78.7654 137.321 78.7654C136.88 78.7654 136.66 78.7654 136.22 78.5454C136 78.5454 135.78 78.3254 135.56 78.1054C135.56 77.8853 135.34 77.6653 135.34 77.2253C135.34 77.0053 135.34 76.5653 135.34 75.6852V72.165H134.24V70.6248H135.34V68.8647L137.321 67.7646V70.6248H138.861Z" fill="#1A237E"/>
<path d="M25.0874 115.068L28.6085 105.827H29.9288L33.67 115.068H32.3496L31.2492 112.208H27.2881L26.4078 115.068H25.0874ZM27.7282 111.328H30.8091L29.9288 108.687C29.4887 108.027 29.2687 107.367 29.2687 106.707C29.0486 107.367 28.8285 108.027 28.6085 108.467L27.7282 111.328Z" fill="#606062"/>
<path d="M38.9515 112.648L40.0518 112.868C40.0518 113.528 39.6117 114.188 39.1716 114.628C38.7314 115.068 38.0712 115.288 37.191 115.288C36.3107 115.288 35.6505 115.068 34.9903 114.408C34.5502 113.748 34.3301 112.868 34.3301 111.768C34.3301 111.108 34.3301 110.447 34.5502 109.787C34.7703 109.347 35.2104 108.907 35.6505 108.687C36.0907 108.467 36.7509 108.247 37.191 108.247C38.0712 108.247 38.7314 108.467 39.1716 108.687C39.6117 109.127 39.8318 109.787 40.0518 110.447H38.9515C38.7314 110.007 38.5114 109.787 38.2913 109.567C38.0712 109.347 37.6311 109.127 37.4111 109.127C36.7509 109.127 36.3107 109.347 35.8706 109.787C35.6505 110.227 35.4305 110.887 35.4305 111.768C35.4305 112.648 35.6505 113.308 35.8706 113.748C36.3107 114.188 36.7509 114.408 37.191 114.408C37.6311 114.408 38.0712 114.188 38.5114 113.968C38.7314 113.748 38.9515 113.308 38.9515 112.648Z" fill="#606062"/>
<path d="M45.5535 112.648L46.6538 112.868C46.4337 113.528 46.2137 114.188 45.7735 114.628C45.1133 115.068 44.4531 115.288 43.7929 115.288C42.9127 115.288 42.0324 115.068 41.5923 114.408C40.9321 113.748 40.712 112.868 40.712 111.768C40.712 111.108 40.9321 110.447 41.1522 109.787C41.3722 109.347 41.8124 108.907 42.2525 108.687C42.6926 108.467 43.1328 108.247 43.7929 108.247C44.4531 108.247 45.1133 108.467 45.5535 108.687C45.9936 109.127 46.4337 109.787 46.4337 110.447H45.3334C45.3334 110.007 45.1133 109.787 44.8933 109.567C44.6732 109.347 44.2331 109.127 43.7929 109.127C43.3528 109.127 42.9127 109.347 42.4726 109.787C42.0324 110.227 41.8124 110.887 41.8124 111.768C41.8124 112.648 42.0324 113.308 42.4726 113.748C42.6926 114.188 43.1328 114.408 43.7929 114.408C44.2331 114.408 44.6732 114.188 44.8933 113.968C45.1133 113.748 45.3334 113.308 45.5535 112.648Z" fill="#606062"/>
<path d="M47.0939 111.768C47.0939 110.447 47.534 109.567 48.1942 108.907C48.8544 108.467 49.5146 108.247 50.3949 108.247C51.2752 108.247 51.9353 108.467 52.5955 109.127C53.2557 109.787 53.4758 110.667 53.4758 111.548C53.4758 112.428 53.2557 113.308 53.0357 113.748C52.8156 114.188 52.3755 114.628 51.9353 114.848C51.4952 115.068 50.835 115.288 50.3949 115.288C49.2946 115.288 48.6344 115.068 47.9742 114.408C47.534 113.748 47.0939 112.868 47.0939 111.768ZM48.4143 111.768C48.4143 112.648 48.4143 113.308 48.8544 113.748C49.2946 114.188 49.7347 114.408 50.3949 114.408C50.835 114.408 51.2752 114.188 51.7153 113.748C52.1554 113.308 52.3755 112.648 52.3755 111.768C52.3755 110.887 52.1554 110.227 51.7153 109.787C51.2752 109.347 50.835 109.127 50.3949 109.127C49.7347 109.127 49.2946 109.347 48.8544 109.787C48.4143 110.227 48.4143 110.887 48.4143 111.768Z" fill="#606062"/>
<path d="M59.1975 115.068V114.188C58.7574 114.848 58.0972 115.288 57.2169 115.288C56.7768 115.288 56.3367 115.288 55.8965 115.068C55.6765 114.848 55.4564 114.628 55.2363 114.408C55.0163 114.188 55.0163 113.968 54.7962 113.528C54.7962 113.308 54.7962 113.088 54.7962 112.648V108.468H55.8965V112.208C55.8965 112.648 55.8965 113.088 56.1166 113.308C56.1166 113.528 56.3367 113.748 56.5567 113.968C56.7768 114.188 56.9969 114.188 57.437 114.188C57.657 114.188 58.0972 114.188 58.3172 113.968C58.5373 113.748 58.7574 113.528 58.9774 113.308C58.9774 113.088 59.1975 112.648 59.1975 111.988V108.468H60.2978V115.068H59.1975Z" fill="#606062"/>
<path d="M62.0583 115.068V108.467H63.1587V109.347C63.5988 108.687 64.259 108.247 65.3593 108.247C65.5794 108.247 66.0195 108.247 66.4596 108.467C66.6797 108.687 66.8998 108.687 67.1198 109.127C67.3399 109.347 67.3399 109.567 67.56 109.787C67.56 110.007 67.56 110.447 67.56 110.887V115.068H66.4596V111.108C66.4596 110.667 66.4596 110.227 66.2396 110.007C66.2396 109.787 66.0195 109.567 65.7994 109.347C65.5794 109.347 65.3593 109.127 64.9192 109.127C64.4791 109.127 64.0389 109.347 63.8189 109.787C63.3787 110.007 63.1587 110.667 63.1587 111.548V115.068H62.0583Z" fill="#606062"/>
<path d="M71.7412 114.188L71.9613 115.068C71.7412 115.288 71.3011 115.288 71.081 115.288C70.6409 115.288 70.4208 115.068 70.2008 115.068C69.9807 114.848 69.7606 114.628 69.7606 114.408C69.5406 114.188 69.5406 113.748 69.5406 113.088V109.348H68.6603V108.468H69.5406V106.707L70.6409 106.047V108.468H71.7412V109.348H70.6409V113.308C70.6409 113.528 70.6409 113.748 70.6409 113.748C70.861 113.968 70.861 113.968 70.861 113.968C71.081 114.188 71.081 114.188 71.3011 114.188C71.5211 114.188 71.5211 114.188 71.7412 114.188Z" fill="#606062"/>
<path d="M76.8027 115.068V105.827H77.903L82.9645 113.088V105.827H84.0648V115.068H82.7445L77.903 107.807V115.068H76.8027Z" fill="#606062"/>
<path d="M90.4468 114.188C90.0066 114.628 89.5665 114.848 89.1264 115.068C88.6862 115.288 88.2461 115.288 87.806 115.288C87.1458 115.288 86.4856 115.068 86.2655 114.628C85.8254 114.408 85.6053 113.968 85.6053 113.308C85.6053 113.088 85.6053 112.648 85.8254 112.428C86.0454 112.208 86.2655 111.988 86.4856 111.768C86.7056 111.548 86.9257 111.548 87.1458 111.328C87.3658 111.328 87.806 111.328 88.2461 111.328C89.1264 111.108 89.7866 111.108 90.2267 110.887C90.2267 110.667 90.2267 110.667 90.2267 110.447C90.2267 110.007 90.2267 109.787 90.0066 109.567C89.7866 109.347 89.3464 109.127 88.6862 109.127C88.026 109.127 87.806 109.347 87.3658 109.567C87.1458 109.567 86.9257 110.007 86.9257 110.447L85.8254 110.227C85.8254 109.787 86.0454 109.347 86.2655 109.127C86.4856 108.907 86.9257 108.687 87.3658 108.467C87.806 108.247 88.2461 108.247 88.9063 108.247C89.3464 108.247 89.7866 108.247 90.2267 108.467C90.6668 108.467 90.8869 108.687 91.1069 108.907C91.1069 109.127 91.327 109.347 91.327 109.787C91.5471 110.007 91.5471 110.227 91.5471 110.887V112.208C91.5471 113.308 91.5471 113.968 91.5471 114.408C91.5471 114.628 91.7671 114.848 91.7671 115.068H90.6668C90.4468 114.848 90.4468 114.628 90.4468 114.188ZM90.2267 111.768C89.7866 111.988 89.3464 111.988 88.4662 112.208C88.026 112.208 87.5859 112.428 87.3658 112.428C87.1458 112.428 87.1458 112.648 86.9257 112.868C86.9257 112.868 86.7056 113.088 86.7056 113.308C86.7056 113.528 86.9257 113.968 87.1458 113.968C87.3658 114.188 87.806 114.408 88.2461 114.408C88.6862 114.408 88.9063 114.188 89.3464 114.188C89.7866 113.968 90.0066 113.528 90.0066 113.308C90.2267 113.088 90.2267 112.648 90.2267 112.208V111.768Z" fill="#606062"/>
<path d="M93.3076 115.068V108.467H94.1878V109.347C94.4079 108.907 94.848 108.687 95.0681 108.467C95.5082 108.247 95.9484 108.247 96.3885 108.247C96.8286 108.247 97.2688 108.247 97.4888 108.467C97.929 108.687 98.149 109.127 98.149 109.347C98.8092 108.687 99.4694 108.247 100.35 108.247C101.01 108.247 101.45 108.467 101.89 108.687C102.11 109.127 102.33 109.787 102.33 110.447V115.068H101.23V110.887C101.23 110.447 101.23 110.007 101.23 109.787C101.01 109.787 101.01 109.567 100.79 109.347C100.57 109.347 100.35 109.127 100.13 109.127C99.4694 109.127 99.2493 109.347 98.8092 109.787C98.5891 110.007 98.3691 110.447 98.3691 111.108V115.068H97.2688V110.667C97.2688 110.227 97.0487 109.787 97.0487 109.567C96.8286 109.347 96.3885 109.127 95.9484 109.127C95.7283 109.127 95.5082 109.347 95.0681 109.567C94.848 109.567 94.628 109.787 94.628 110.227C94.4079 110.447 94.4079 111.108 94.4079 111.548V115.068H93.3076Z" fill="#606062"/>
<path d="M108.712 112.868L109.812 113.088C109.592 113.748 109.372 114.408 108.932 114.628C108.272 115.068 107.612 115.288 106.952 115.288C105.851 115.288 105.191 115.068 104.531 114.408C104.091 113.748 103.651 112.868 103.651 111.768C103.651 110.667 104.091 109.787 104.531 109.127C105.191 108.467 105.851 108.247 106.952 108.247C107.832 108.247 108.492 108.467 109.152 109.127C109.592 109.787 109.812 110.667 109.812 111.768V111.988H104.971C104.971 112.868 105.191 113.308 105.411 113.748C105.851 114.188 106.291 114.408 106.952 114.408C107.392 114.408 107.612 114.188 108.052 113.968C108.272 113.748 108.492 113.528 108.712 112.868ZM104.971 111.108H108.712C108.712 110.447 108.492 110.007 108.272 109.787C107.832 109.347 107.392 109.127 106.952 109.127C106.291 109.127 105.851 109.347 105.631 109.787C105.191 110.007 104.971 110.447 104.971 111.108Z" fill="#606062"/>
<path fill-rule="evenodd" clip-rule="evenodd" d="M28.3884 232.776H86.7056C87.806 232.776 88.9063 233.656 88.9063 234.756V252.357C88.9063 253.458 87.806 254.338 86.7056 254.338H28.3884C27.068 254.338 25.9677 253.458 25.9677 252.357V234.756C25.9677 233.656 27.068 232.776 28.3884 232.776Z" fill="#1A237E"/>
<path d="M45.1133 245.097L46.2137 244.877C46.2137 245.317 46.4337 245.757 46.4337 245.977C46.6538 246.197 46.8739 246.417 47.314 246.637C47.7541 246.637 48.1943 246.857 48.6344 246.857C48.8544 246.857 49.2946 246.637 49.7347 246.637C49.9548 246.417 50.1748 246.417 50.3949 246.197C50.3949 245.977 50.615 245.757 50.615 245.317C50.615 245.097 50.3949 244.877 50.3949 244.877C50.1748 244.657 49.9548 244.437 49.5146 244.217C49.2946 244.217 48.8544 243.997 48.1943 243.997C47.5341 243.777 46.8739 243.557 46.6538 243.337C46.2137 243.117 45.9936 242.897 45.7735 242.677C45.5535 242.457 45.5535 242.017 45.5535 241.577C45.5535 241.137 45.5535 240.917 45.7735 240.477C45.9936 240.257 46.4337 239.817 46.8739 239.817C47.314 239.597 47.7541 239.377 48.4143 239.377C48.8544 239.377 49.5146 239.597 49.9548 239.817C50.3949 239.817 50.615 240.257 50.835 240.477C51.2752 240.917 51.2752 241.357 51.2752 241.797L50.3949 242.017C50.1748 241.357 50.1748 240.917 49.7347 240.697C49.5146 240.477 49.0745 240.477 48.4143 240.477C47.7541 240.477 47.314 240.477 46.8739 240.697C46.6538 240.917 46.4337 241.357 46.4337 241.577C46.4337 241.797 46.6538 242.017 46.8739 242.237C47.0939 242.457 47.5341 242.677 48.4143 242.897C49.2946 243.117 49.9548 243.337 50.1748 243.337C50.615 243.557 51.0551 243.777 51.2752 244.217C51.4952 244.437 51.4952 244.877 51.4952 245.317C51.4952 245.757 51.4952 246.197 51.2752 246.637C51.0551 246.857 50.615 247.297 50.1748 247.517C49.7347 247.737 49.0745 247.737 48.6344 247.737C47.9742 247.737 47.314 247.737 46.8739 247.517C46.2137 247.297 45.9936 246.857 45.5535 246.417C45.3334 245.977 45.1133 245.537 45.1133 245.097Z" fill="#FEFEFE"/>
<path d="M56.7768 246.857C56.3367 247.077 55.8965 247.297 55.6765 247.517C55.2363 247.737 55.0163 247.737 54.5761 247.737C53.9159 247.737 53.4758 247.517 53.0357 247.297C52.8156 246.857 52.5956 246.637 52.5956 245.977C52.5956 245.757 52.5956 245.537 52.8156 245.317C52.8156 245.097 53.0357 244.877 53.2557 244.657C53.4758 244.657 53.6959 244.437 53.9159 244.437C54.136 244.437 54.3561 244.217 54.7962 244.217C55.6765 244.217 56.3367 243.997 56.5567 243.997C56.5567 243.777 56.5567 243.777 56.5567 243.557C56.5567 243.337 56.5567 242.897 56.3367 242.897C56.1166 242.677 55.6765 242.457 55.2363 242.457C54.7962 242.457 54.3561 242.457 54.136 242.677C53.9159 242.897 53.6959 243.117 53.6959 243.557H52.8156C52.8156 243.117 53.0357 242.677 53.2557 242.457C53.2557 242.237 53.6959 242.017 54.136 241.797C54.3561 241.797 54.7962 241.577 55.4564 241.577C55.8965 241.577 56.3367 241.797 56.5567 241.797C56.7768 242.017 57.2169 242.017 57.2169 242.237C57.437 242.457 57.437 242.677 57.6571 242.897C57.6571 243.117 57.6571 243.337 57.6571 243.777V245.097C57.6571 245.977 57.6571 246.637 57.6571 246.857C57.6571 247.077 57.8771 247.297 57.8771 247.517H56.7768C56.7768 247.297 56.7768 247.077 56.7768 246.857ZM56.5567 244.657C56.3367 244.877 55.6765 244.877 55.0163 245.097C54.5761 245.097 54.3561 245.097 54.136 245.317C53.9159 245.317 53.9159 245.537 53.6959 245.537C53.6959 245.757 53.6959 245.757 53.6959 245.977C53.6959 246.197 53.6959 246.417 53.9159 246.637C54.136 246.857 54.3561 246.857 54.7962 246.857C55.2363 246.857 55.4564 246.857 55.8965 246.637C56.1166 246.637 56.3367 246.417 56.5567 245.977C56.5567 245.757 56.5567 245.537 56.5567 245.097V244.657Z" fill="#FEFEFE"/>
<path d="M60.738 247.517L58.5373 241.797H59.6376L60.738 245.317C60.958 245.537 61.1781 245.977 61.1781 246.417C61.1781 246.197 61.3982 245.757 61.6182 245.317L62.9386 241.797H63.8189L61.6182 247.517H60.738Z" fill="#FEFEFE"/>
<path d="M68.6603 245.757H69.7606C69.5406 246.417 69.3205 246.857 68.8804 247.297C68.4402 247.517 67.78 247.737 67.1198 247.737C66.2396 247.737 65.5794 247.517 65.1393 246.857C64.6991 246.417 64.4791 245.757 64.4791 244.657C64.4791 243.777 64.6991 242.897 65.1393 242.457C65.5794 242.017 66.2396 241.577 67.1198 241.577C68.0001 241.577 68.4402 242.017 69.1004 242.457C69.5406 242.897 69.7606 243.777 69.7606 244.657V244.877H65.3593C65.3593 245.537 65.5794 245.977 66.0195 246.417C66.2396 246.857 66.6797 246.857 67.1198 246.857C67.56 246.857 67.78 246.857 68.0001 246.637C68.4402 246.417 68.6603 246.197 68.6603 245.757ZM65.5794 244.217H68.6603C68.6603 243.557 68.6603 243.337 68.4402 243.117C68.0001 242.677 67.56 242.457 67.1198 242.457C66.6797 242.457 66.2396 242.677 66.0195 242.897C65.5794 243.117 65.5794 243.557 65.5794 244.217Z" fill="#FEFEFE"/>
<path d="M162.408 233.216H104.091V232.556H162.408V233.216ZM165.049 234.756H164.389V234.536H164.169V234.316V234.096L163.948 233.876L163.728 233.656L163.508 233.436H163.288V233.216H163.068H162.848H162.628H162.408V232.556H162.628H162.848H163.068H163.288V232.776H163.508H163.728L163.948 232.996H164.169V233.216H164.389V233.436H164.609V233.656V233.876H164.829V234.096V234.316L165.049 234.536V234.756ZM164.389 252.358V234.756H165.049V252.358H164.389ZM162.408 254.778V254.118H162.628L162.848 253.898H163.068H163.288V253.678H163.508H163.728V253.458H163.948V253.238L164.169 253.018V252.798L164.389 252.578V252.358H165.049V252.578L164.829 252.798V253.018V253.238L164.609 253.458V253.678H164.389V253.898H164.169V254.118H163.948L163.728 254.338H163.508V254.558H163.288H163.068H162.848L162.628 254.778H162.408ZM104.091 254.118H162.408V254.778H104.091V254.118ZM101.45 252.358H102.11V252.578V252.798V253.018H102.33V253.238L102.55 253.458L102.77 253.678H102.99V253.898H103.211H103.431H103.651V254.118H103.871H104.091V254.778H103.871H103.651V254.558H103.431H103.211H102.99L102.77 254.338H102.55V254.118H102.33L102.11 253.898L101.89 253.678V253.458H101.67V253.238H101.45V253.018V252.798V252.578V252.358ZM102.11 234.756V252.358H101.45V234.756H102.11ZM104.091 232.556V233.216H103.871H103.651H103.431H103.211L102.99 233.436H102.77V233.656H102.55V233.876H102.33V234.096L102.11 234.316V234.536V234.756H101.45V234.536V234.316V234.096L101.67 233.876V233.656H101.89V233.436H102.11V233.216L102.33 232.996H102.55V232.776H102.77H102.99L103.211 232.556H103.431H103.651H103.871H104.091Z" fill="#1A237E"/>
<path d="M122.356 244.877L123.456 245.097C123.236 245.977 122.796 246.637 122.356 247.077C121.696 247.517 121.036 247.737 120.156 247.737C119.275 247.737 118.615 247.517 117.955 247.297C117.515 246.857 117.075 246.417 116.855 245.757C116.634 245.097 116.414 244.217 116.414 243.557C116.414 242.677 116.634 242.017 116.855 241.357C117.295 240.697 117.735 240.257 118.175 239.817C118.835 239.597 119.495 239.377 120.156 239.377C121.036 239.377 121.696 239.597 122.136 240.037C122.796 240.477 123.236 241.137 123.456 241.797L122.356 242.017C122.136 241.357 121.916 240.917 121.476 240.697C121.256 240.477 120.596 240.257 120.156 240.257C119.495 240.257 119.055 240.477 118.615 240.697C118.175 241.137 117.955 241.577 117.735 242.017C117.515 242.457 117.515 242.897 117.515 243.557C117.515 244.217 117.515 244.877 117.735 245.317C117.955 245.757 118.395 246.197 118.615 246.417C119.055 246.637 119.495 246.857 120.156 246.857C120.596 246.857 121.256 246.637 121.696 246.417C121.916 245.977 122.356 245.537 122.356 244.877Z" fill="#1A237E"/>
<path d="M128.518 246.857C128.078 247.077 127.858 247.297 127.418 247.517C126.978 247.737 126.757 247.737 126.317 247.737C125.657 247.737 125.217 247.517 124.777 247.297C124.557 246.857 124.337 246.637 124.337 245.977C124.337 245.757 124.337 245.537 124.557 245.317C124.777 245.097 124.777 244.877 124.997 244.657C125.217 244.657 125.437 244.437 125.657 244.437C125.877 244.437 126.317 244.217 126.537 244.217C127.418 244.217 128.078 243.997 128.298 243.997C128.298 243.777 128.298 243.777 128.298 243.557C128.298 243.337 128.298 242.897 128.078 242.897C127.858 242.677 127.418 242.457 126.978 242.457C126.537 242.457 126.097 242.457 125.877 242.677C125.657 242.897 125.657 243.117 125.437 243.557H124.557C124.557 243.117 124.777 242.677 124.997 242.457C125.217 242.237 125.437 242.017 125.877 241.797C126.097 241.797 126.537 241.577 127.198 241.577C127.638 241.577 128.078 241.797 128.298 241.797C128.738 242.017 128.958 242.017 128.958 242.237C129.178 242.457 129.398 242.677 129.398 242.897C129.398 243.117 129.398 243.337 129.398 243.777V245.097C129.398 245.977 129.398 246.637 129.398 246.857C129.398 247.077 129.618 247.297 129.618 247.517H128.738C128.518 247.297 128.518 247.077 128.518 246.857ZM128.298 244.657C128.078 244.877 127.418 244.877 126.757 245.097C126.317 245.097 126.097 245.097 125.877 245.317C125.657 245.317 125.657 245.537 125.437 245.537C125.437 245.757 125.437 245.757 125.437 245.977C125.437 246.197 125.437 246.417 125.657 246.637C125.877 246.857 126.097 246.857 126.537 246.857C126.978 246.857 127.198 246.857 127.638 246.637C127.858 246.637 128.078 246.417 128.298 245.977C128.298 245.757 128.298 245.537 128.298 245.097V244.657Z" fill="#1A237E"/>
<path d="M130.939 247.517V241.797H131.819V242.677C132.259 242.017 132.919 241.577 133.58 241.577C134.02 241.577 134.24 241.797 134.68 241.797C134.9 242.017 135.12 242.237 135.34 242.237C135.34 242.457 135.56 242.897 135.56 243.117C135.56 243.337 135.56 243.557 135.56 243.997V247.517H134.68V243.997C134.68 243.557 134.68 243.337 134.46 243.117C134.46 242.897 134.24 242.897 134.24 242.677C134.02 242.677 133.8 242.457 133.359 242.457C132.919 242.457 132.699 242.677 132.259 242.897C132.039 243.117 131.819 243.777 131.819 244.437V247.517H130.939Z" fill="#1A237E"/>
<path d="M141.062 245.537H141.942C141.722 246.197 141.502 246.857 141.062 247.077C140.622 247.517 140.181 247.737 139.521 247.737C138.641 247.737 137.981 247.517 137.541 246.857C137.101 246.417 136.88 245.757 136.88 244.657C136.88 243.997 136.88 243.557 137.101 243.117C137.321 242.677 137.761 242.237 138.201 242.017C138.641 241.797 139.081 241.577 139.521 241.577C140.181 241.577 140.622 241.797 141.062 242.237C141.502 242.457 141.722 242.897 141.942 243.557H140.842C140.842 243.337 140.622 242.897 140.402 242.677C140.181 242.457 139.961 242.457 139.521 242.457C139.081 242.457 138.641 242.677 138.421 242.897C137.981 243.337 137.981 243.997 137.981 244.657C137.981 245.537 137.981 245.977 138.421 246.417C138.641 246.637 139.081 246.857 139.521 246.857C139.961 246.857 140.181 246.857 140.402 246.637C140.622 246.417 140.842 245.977 141.062 245.537Z" fill="#1A237E"/>
<path d="M146.783 245.757H147.664C147.664 246.417 147.224 246.857 146.783 247.297C146.343 247.517 145.903 247.737 145.243 247.737C144.363 247.737 143.702 247.517 143.262 246.857C142.602 246.417 142.382 245.757 142.382 244.657C142.382 243.777 142.602 242.897 143.262 242.457C143.702 242.017 144.363 241.577 145.243 241.577C145.903 241.577 146.563 242.017 147.003 242.457C147.444 242.897 147.884 243.777 147.884 244.657V244.877H143.482C143.482 245.537 143.702 245.977 143.923 246.417C144.363 246.857 144.803 246.857 145.243 246.857C145.463 246.857 145.903 246.857 146.123 246.637C146.343 246.417 146.563 246.197 146.783 245.757ZM143.482 244.217H146.783C146.783 243.557 146.563 243.337 146.343 243.117C146.123 242.677 145.683 242.457 145.243 242.457C144.803 242.457 144.363 242.677 143.923 242.897C143.702 243.117 143.482 243.557 143.482 244.217Z" fill="#1A237E"/>
<path d="M148.984 247.517V239.597H149.864V247.517H148.984Z" fill="#1A237E"/>
<path d="M32.5696 169.192L33.89 169.632C33.67 170.512 33.2298 171.392 32.5696 171.832C31.9094 172.492 31.0292 172.712 29.9289 172.712C29.0486 172.712 28.1683 172.492 27.5081 172.052C27.068 171.612 26.4078 170.952 26.1877 170.292C25.7476 169.412 25.7476 168.752 25.7476 167.872C25.7476 166.772 25.7476 165.891 26.1877 165.231C26.6279 164.571 27.068 163.911 27.7282 163.691C28.3884 163.251 29.2687 163.031 30.1489 163.031C31.0292 163.031 31.6894 163.251 32.3496 163.691C33.0098 164.131 33.4499 164.791 33.67 165.671L32.5696 166.111C32.3496 165.451 31.9094 164.791 31.6894 164.571C31.2492 164.351 30.589 164.131 29.9289 164.131C29.2687 164.131 28.8285 164.351 28.1683 164.571C27.7282 165.011 27.5081 165.451 27.2881 165.891C27.068 166.551 26.8479 167.212 26.8479 167.872C26.8479 168.532 27.068 169.192 27.2881 169.852C27.5081 170.512 27.9483 170.952 28.3884 171.172C28.8285 171.392 29.2687 171.612 29.9289 171.612C30.589 171.612 31.2492 171.392 31.6894 170.952C32.1295 170.732 32.5696 170.072 32.5696 169.192Z" fill="#606062"/>
<path d="M34.7703 169.192C34.7703 167.872 35.2104 166.991 35.8706 166.331C36.5308 165.891 37.191 165.671 38.0713 165.671C38.9515 165.671 39.6117 165.891 40.2719 166.551C40.9321 167.211 41.1522 167.872 41.1522 168.972C41.1522 169.852 41.1522 170.512 40.712 171.172C40.492 171.612 40.0518 172.052 39.6117 172.272C39.1716 172.492 38.5114 172.712 38.0713 172.712C36.9709 172.712 36.3107 172.272 35.6505 171.832C35.2104 171.172 34.7703 170.292 34.7703 169.192ZM36.0907 169.192C36.0907 170.072 36.3107 170.732 36.5308 171.172C36.9709 171.612 37.4111 171.832 38.0713 171.832C38.5114 171.832 39.1716 171.612 39.3916 171.172C39.8318 170.732 40.0518 170.072 40.0518 169.192C40.0518 168.312 39.8318 167.652 39.3916 167.211C38.9515 166.771 38.5114 166.551 38.0713 166.551C37.4111 166.551 36.9709 166.771 36.5308 167.211C36.3107 167.652 36.0907 168.312 36.0907 169.192Z" fill="#606062"/>
<path d="M46.8739 172.492V171.612C46.4337 172.272 45.7735 172.712 44.8933 172.712C44.4531 172.712 44.013 172.492 43.7929 172.492C43.3528 172.272 43.1327 172.052 42.9127 171.832C42.6926 171.612 42.6926 171.392 42.4725 170.952C42.4725 170.732 42.4725 170.512 42.4725 169.852V165.671H43.5729V169.412C43.5729 170.072 43.5729 170.512 43.7929 170.732C43.7929 170.952 44.013 171.172 44.2331 171.392C44.4531 171.612 44.6732 171.612 45.1133 171.612C45.3334 171.612 45.7735 171.612 45.9936 171.392C46.2137 171.172 46.4337 170.952 46.6538 170.732C46.6538 170.292 46.8739 169.852 46.8739 169.412V165.671H47.9742V172.492H46.8739Z" fill="#606062"/>
<path d="M40.8516 188.434V193.977C40.8516 194.574 40.7246 195.109 40.4707 195.582C40.2207 196.055 39.8418 196.43 39.334 196.707C38.8262 196.98 38.1875 197.117 37.418 197.117C36.3203 197.117 35.4844 196.83 34.9102 196.256C34.3398 195.678 34.0547 194.91 34.0547 193.953V188.434H35.4609V193.83C35.4609 194.545 35.6289 195.072 35.9648 195.412C36.3008 195.752 36.8027 195.922 37.4707 195.922C37.9316 195.922 38.3066 195.842 38.5957 195.682C38.8887 195.518 39.1035 195.279 39.2402 194.967C39.3809 194.65 39.4512 194.27 39.4512 193.824V188.434H40.8516ZM46.2832 190.391C47.0137 190.391 47.582 190.58 47.9883 190.959C48.3984 191.334 48.6035 191.938 48.6035 192.77V197H47.2266V193.027C47.2266 192.523 47.123 192.146 46.916 191.896C46.709 191.643 46.3887 191.516 45.9551 191.516C45.3262 191.516 44.8887 191.709 44.6426 192.096C44.4004 192.482 44.2793 193.043 44.2793 193.777V197H42.9023V190.514H43.9746L44.168 191.393H44.2441C44.3848 191.166 44.5586 190.98 44.7656 190.836C44.9766 190.688 45.2109 190.576 45.4688 190.502C45.7305 190.428 46.002 190.391 46.2832 190.391ZM51.9082 190.514V197H50.5312V190.514H51.9082ZM51.2285 188.029C51.4395 188.029 51.6211 188.086 51.7734 188.199C51.9297 188.312 52.0078 188.508 52.0078 188.785C52.0078 189.059 51.9297 189.254 51.7734 189.371C51.6211 189.484 51.4395 189.541 51.2285 189.541C51.0098 189.541 50.8242 189.484 50.6719 189.371C50.5234 189.254 50.4492 189.059 50.4492 188.785C50.4492 188.508 50.5234 188.312 50.6719 188.199C50.8242 188.086 51.0098 188.029 51.2285 188.029ZM56.2969 196.004C56.4766 196.004 56.6543 195.988 56.8301 195.957C57.0059 195.922 57.166 195.881 57.3105 195.834V196.877C57.1582 196.943 56.9609 197 56.7188 197.047C56.4766 197.094 56.2246 197.117 55.9629 197.117C55.5957 197.117 55.2656 197.057 54.9727 196.936C54.6797 196.811 54.4473 196.598 54.2754 196.297C54.1035 195.996 54.0176 195.58 54.0176 195.049V191.562H53.1328V190.947L54.082 190.461L54.5332 189.072H55.4004V190.514H57.2578V191.562H55.4004V195.031C55.4004 195.359 55.4824 195.604 55.6465 195.764C55.8105 195.924 56.0273 196.004 56.2969 196.004ZM61.2129 190.391C61.791 190.391 62.2871 190.51 62.7012 190.748C63.1152 190.986 63.4336 191.324 63.6562 191.762C63.8789 192.199 63.9902 192.723 63.9902 193.332V194.07H59.6602C59.6758 194.699 59.8438 195.184 60.1641 195.523C60.4883 195.863 60.9414 196.033 61.5234 196.033C61.9375 196.033 62.3086 195.994 62.6367 195.916C62.9688 195.834 63.3105 195.715 63.6621 195.559V196.678C63.3379 196.83 63.0078 196.941 62.6719 197.012C62.3359 197.082 61.9336 197.117 61.4648 197.117C60.8281 197.117 60.2676 196.994 59.7832 196.748C59.3027 196.498 58.9258 196.127 58.6523 195.635C58.3828 195.143 58.248 194.531 58.248 193.801C58.248 193.074 58.3711 192.457 58.6172 191.949C58.8633 191.441 59.209 191.055 59.6543 190.789C60.0996 190.523 60.6191 190.391 61.2129 190.391ZM61.2129 191.428C60.7793 191.428 60.4277 191.568 60.1582 191.85C59.8926 192.131 59.7363 192.543 59.6895 193.086H62.6426C62.6387 192.762 62.584 192.475 62.4785 192.225C62.377 191.975 62.2207 191.779 62.0098 191.639C61.8027 191.498 61.5371 191.428 61.2129 191.428ZM67.7227 197.117C66.9492 197.117 66.3281 196.836 65.8594 196.273C65.3945 195.707 65.1621 194.873 65.1621 193.771C65.1621 192.658 65.3984 191.816 65.8711 191.246C66.3477 190.676 66.9746 190.391 67.752 190.391C68.0801 190.391 68.3672 190.436 68.6133 190.525C68.8594 190.611 69.0703 190.729 69.2461 190.877C69.4258 191.025 69.5781 191.191 69.7031 191.375H69.7676C69.748 191.254 69.7246 191.08 69.6973 190.854C69.6738 190.623 69.6621 190.41 69.6621 190.215V187.883H71.0449V197H69.9668L69.7207 196.115H69.6621C69.5449 196.303 69.3965 196.473 69.2168 196.625C69.041 196.773 68.8301 196.893 68.584 196.982C68.3418 197.072 68.0547 197.117 67.7227 197.117ZM68.1094 195.998C68.6992 195.998 69.1152 195.828 69.3574 195.488C69.5996 195.148 69.7246 194.639 69.7324 193.959V193.777C69.7324 193.051 69.6152 192.494 69.3809 192.107C69.1465 191.717 68.7188 191.521 68.0977 191.521C67.6016 191.521 67.2227 191.723 66.9609 192.125C66.7031 192.523 66.5742 193.08 66.5742 193.795C66.5742 194.51 66.7031 195.057 66.9609 195.436C67.2227 195.811 67.6055 195.998 68.1094 195.998ZM82.8105 197H81.1934L78.5273 193.109L77.6836 193.795V197H76.2773V188.434H77.6836V192.529C77.8555 192.318 78.0293 192.107 78.2051 191.896C78.3809 191.686 78.5566 191.475 78.7324 191.264L81.1465 188.434H82.7344L79.5352 192.184L82.8105 197ZM85.1777 190.514V197H83.8008V190.514H85.1777ZM84.498 188.029C84.709 188.029 84.8906 188.086 85.043 188.199C85.1992 188.312 85.2773 188.508 85.2773 188.785C85.2773 189.059 85.1992 189.254 85.043 189.371C84.8906 189.484 84.709 189.541 84.498 189.541C84.2793 189.541 84.0938 189.484 83.9414 189.371C83.793 189.254 83.7188 189.059 83.7188 188.785C83.7188 188.508 83.793 188.312 83.9414 188.199C84.0938 188.086 84.2793 188.029 84.498 188.029ZM90.5332 190.391C91.2637 190.391 91.832 190.58 92.2383 190.959C92.6484 191.334 92.8535 191.938 92.8535 192.77V197H91.4766V193.027C91.4766 192.523 91.373 192.146 91.166 191.896C90.959 191.643 90.6387 191.516 90.2051 191.516C89.5762 191.516 89.1387 191.709 88.8926 192.096C88.6504 192.482 88.5293 193.043 88.5293 193.777V197H87.1523V190.514H88.2246L88.418 191.393H88.4941C88.6348 191.166 88.8086 190.98 89.0156 190.836C89.2266 190.688 89.4609 190.576 89.7188 190.502C89.9805 190.428 90.252 190.391 90.5332 190.391ZM96.6328 199.883C95.7539 199.883 95.0801 199.725 94.6113 199.408C94.1426 199.092 93.9082 198.648 93.9082 198.078C93.9082 197.68 94.0332 197.342 94.2832 197.064C94.5332 196.791 94.8906 196.602 95.3555 196.496C95.1797 196.418 95.0273 196.297 94.8984 196.133C94.7734 195.965 94.7109 195.779 94.7109 195.576C94.7109 195.334 94.7793 195.127 94.916 194.955C95.0527 194.783 95.2578 194.617 95.5312 194.457C95.1914 194.312 94.918 194.078 94.7109 193.754C94.5078 193.426 94.4062 193.041 94.4062 192.6C94.4062 192.131 94.5059 191.732 94.7051 191.404C94.9043 191.072 95.1953 190.82 95.5781 190.648C95.9609 190.473 96.4238 190.385 96.9668 190.385C97.084 190.385 97.2109 190.393 97.3477 190.408C97.4883 190.42 97.6172 190.436 97.7344 190.455C97.8555 190.471 97.9473 190.488 98.0098 190.508H100.254V191.275L99.1523 191.48C99.2578 191.629 99.3418 191.799 99.4043 191.99C99.4668 192.178 99.498 192.383 99.498 192.605C99.498 193.277 99.2656 193.807 98.8008 194.193C98.3398 194.576 97.7031 194.768 96.8906 194.768C96.6953 194.76 96.5059 194.744 96.3223 194.721C96.1816 194.807 96.0742 194.902 96 195.008C95.9258 195.109 95.8887 195.225 95.8887 195.354C95.8887 195.459 95.9258 195.545 96 195.611C96.0742 195.674 96.1836 195.721 96.3281 195.752C96.4766 195.783 96.6562 195.799 96.8672 195.799H97.9863C98.6973 195.799 99.2402 195.949 99.6152 196.25C99.9902 196.551 100.178 196.992 100.178 197.574C100.178 198.312 99.873 198.881 99.2637 199.279C98.6543 199.682 97.7773 199.883 96.6328 199.883ZM96.6855 198.916C97.166 198.916 97.5703 198.869 97.8984 198.775C98.2266 198.682 98.4746 198.547 98.6426 198.371C98.8105 198.199 98.8945 197.994 98.8945 197.756C98.8945 197.545 98.8418 197.383 98.7363 197.27C98.6309 197.156 98.4727 197.078 98.2617 197.035C98.0508 196.992 97.7891 196.971 97.4766 196.971H96.457C96.2031 196.971 95.9785 197.01 95.7832 197.088C95.5879 197.17 95.4355 197.287 95.3262 197.439C95.2207 197.592 95.168 197.775 95.168 197.99C95.168 198.287 95.2988 198.516 95.5605 198.676C95.8262 198.836 96.2012 198.916 96.6855 198.916ZM96.9551 193.865C97.3574 193.865 97.6562 193.756 97.8516 193.537C98.0469 193.314 98.1445 193.002 98.1445 192.6C98.1445 192.162 98.043 191.834 97.8398 191.615C97.6406 191.396 97.3438 191.287 96.9492 191.287C96.5625 191.287 96.2676 191.398 96.0645 191.621C95.8652 191.844 95.7656 192.174 95.7656 192.611C95.7656 193.006 95.8652 193.314 96.0645 193.537C96.2676 193.756 96.5645 193.865 96.9551 193.865ZM103.617 197.117C102.844 197.117 102.223 196.836 101.754 196.273C101.289 195.707 101.057 194.873 101.057 193.771C101.057 192.658 101.293 191.816 101.766 191.246C102.242 190.676 102.869 190.391 103.646 190.391C103.975 190.391 104.262 190.436 104.508 190.525C104.754 190.611 104.965 190.729 105.141 190.877C105.32 191.025 105.473 191.191 105.598 191.375H105.662C105.643 191.254 105.619 191.08 105.592 190.854C105.568 190.623 105.557 190.41 105.557 190.215V187.883H106.939V197H105.861L105.615 196.115H105.557C105.439 196.303 105.291 196.473 105.111 196.625C104.936 196.773 104.725 196.893 104.479 196.982C104.236 197.072 103.949 197.117 103.617 197.117ZM104.004 195.998C104.594 195.998 105.01 195.828 105.252 195.488C105.494 195.148 105.619 194.639 105.627 193.959V193.777C105.627 193.051 105.51 192.494 105.275 192.107C105.041 191.717 104.613 191.521 103.992 191.521C103.496 191.521 103.117 191.723 102.855 192.125C102.598 192.523 102.469 193.08 102.469 193.795C102.469 194.51 102.598 195.057 102.855 195.436C103.117 195.811 103.5 195.998 104.004 195.998ZM114.656 193.742C114.656 194.281 114.586 194.76 114.445 195.178C114.305 195.596 114.1 195.949 113.83 196.238C113.561 196.523 113.236 196.742 112.857 196.895C112.479 197.043 112.051 197.117 111.574 197.117C111.129 197.117 110.721 197.043 110.35 196.895C109.979 196.742 109.656 196.523 109.383 196.238C109.113 195.949 108.904 195.596 108.756 195.178C108.607 194.76 108.533 194.281 108.533 193.742C108.533 193.027 108.656 192.422 108.902 191.926C109.152 191.426 109.508 191.045 109.969 190.783C110.43 190.521 110.979 190.391 111.615 190.391C112.213 190.391 112.74 190.521 113.197 190.783C113.654 191.045 114.012 191.426 114.27 191.926C114.527 192.426 114.656 193.031 114.656 193.742ZM109.951 193.742C109.951 194.215 110.008 194.619 110.121 194.955C110.238 195.291 110.418 195.549 110.66 195.729C110.902 195.904 111.215 195.992 111.598 195.992C111.98 195.992 112.293 195.904 112.535 195.729C112.777 195.549 112.955 195.291 113.068 194.955C113.182 194.619 113.238 194.215 113.238 193.742C113.238 193.27 113.182 192.869 113.068 192.541C112.955 192.209 112.777 191.957 112.535 191.785C112.293 191.609 111.979 191.521 111.592 191.521C111.021 191.521 110.605 191.713 110.344 192.096C110.082 192.479 109.951 193.027 109.951 193.742ZM123.568 190.391C124.295 190.391 124.842 190.578 125.209 190.953C125.58 191.328 125.766 191.93 125.766 192.758V197H124.389V193.004C124.389 192.512 124.293 192.141 124.102 191.891C123.91 191.641 123.619 191.516 123.229 191.516C122.682 191.516 122.287 191.691 122.045 192.043C121.807 192.391 121.688 192.896 121.688 193.561V197H120.311V193.004C120.311 192.676 120.268 192.402 120.182 192.184C120.1 191.961 119.973 191.795 119.801 191.686C119.629 191.572 119.412 191.516 119.15 191.516C118.771 191.516 118.469 191.602 118.242 191.773C118.02 191.945 117.859 192.199 117.762 192.535C117.664 192.867 117.615 193.275 117.615 193.76V197H116.238V190.514H117.311L117.504 191.387H117.58C117.713 191.16 117.877 190.975 118.072 190.83C118.271 190.682 118.492 190.572 118.734 190.502C118.977 190.428 119.229 190.391 119.49 190.391C119.975 190.391 120.383 190.477 120.715 190.648C121.047 190.816 121.295 191.074 121.459 191.422H121.564C121.768 191.07 122.051 190.811 122.414 190.643C122.777 190.475 123.162 190.391 123.568 190.391Z" fill="#616163"/>
<path d="M49.7347 172.492V165.671H50.835V166.771C51.2752 165.891 51.9353 165.671 53.0357 165.671C53.2557 165.671 53.6959 165.671 54.136 165.891C54.3561 165.891 54.5761 166.111 54.7962 166.331C55.0163 166.551 55.0163 166.991 55.2363 167.211C55.2363 167.432 55.2363 167.872 55.2363 168.312V172.492H54.136V168.312C54.136 167.872 54.136 167.652 53.9159 167.432C53.9159 167.211 53.6959 166.991 53.4758 166.771C53.2557 166.771 53.0357 166.551 52.8156 166.551C52.1554 166.551 51.7153 166.771 51.4952 166.991C51.0551 167.432 50.835 167.872 50.835 168.752V172.492H49.7347Z" fill="#606062"/>
<path d="M59.4176 171.392L59.6376 172.492C59.4176 172.492 58.9774 172.712 58.7574 172.712C58.3172 172.712 58.0972 172.492 57.8771 172.492C57.657 172.272 57.437 172.052 57.437 171.832C57.2169 171.612 57.2169 171.172 57.2169 170.512V166.551H56.3367V165.671H57.2169V164.131L58.3172 163.471V165.671H59.4176V166.551H58.3172V170.512C58.3172 170.952 58.3172 171.172 58.3172 171.172C58.5373 171.392 58.5373 171.392 58.5373 171.392C58.7574 171.612 58.7574 171.612 58.9774 171.612C59.1975 171.612 59.1975 171.612 59.4176 171.392Z" fill="#606062"/>
<path d="M60.5179 172.492V165.671H61.6182V166.771C61.8383 166.331 62.0584 165.891 62.2784 165.891C62.4985 165.671 62.9386 165.671 63.1587 165.671C63.5988 165.671 63.8189 165.671 64.259 165.891L63.8189 166.991C63.5988 166.771 63.3787 166.771 63.1587 166.771C62.7185 166.771 62.4985 166.771 62.2784 166.991C62.2784 167.211 62.0584 167.432 62.0584 167.652C61.8383 168.092 61.8383 168.532 61.8383 168.972V172.492H60.5179Z" fill="#606062"/>
<path d="M64.9192 175.132L64.6991 174.032C65.1392 174.032 65.3593 174.252 65.3593 174.252C65.7994 174.252 66.0195 174.032 66.0195 174.032C66.2396 174.032 66.2396 173.812 66.4596 173.592C66.4596 173.592 66.6797 173.372 66.6797 172.712C66.8998 172.712 66.8998 172.712 66.8998 172.492L64.259 165.671H65.5794L66.8998 169.632C67.1198 170.072 67.3399 170.732 67.56 171.172C67.56 170.732 67.78 170.292 68.0001 169.632L69.3205 165.671H70.4208L68.0001 172.712C67.78 173.372 67.56 173.812 67.3399 174.252C67.1198 174.472 66.8998 174.912 66.6797 174.912C66.2396 175.132 66.0195 175.352 65.5794 175.352C65.3593 175.352 65.1392 175.132 64.9192 175.132Z" fill="#606062"/>
<path d="M242.512 169.412L243.832 169.632C243.392 170.732 242.952 171.612 242.292 172.052C241.631 172.492 240.751 172.932 239.871 172.932C238.991 172.932 238.11 172.712 237.45 172.272C236.79 171.832 236.35 171.172 235.91 170.512C235.69 169.632 235.47 168.752 235.47 167.872C235.47 166.991 235.69 166.111 236.13 165.451C236.35 164.571 237.01 164.131 237.67 163.691C238.33 163.471 238.991 163.251 239.871 163.251C240.751 163.251 241.631 163.471 242.292 163.911C242.952 164.351 243.392 165.011 243.612 165.891L242.292 166.111C242.072 165.451 241.851 165.011 241.411 164.791C240.971 164.351 240.531 164.351 239.871 164.351C239.211 164.351 238.55 164.351 238.11 164.791C237.67 165.011 237.23 165.671 237.01 166.111C236.79 166.771 236.79 167.432 236.79 167.872C236.79 168.752 237.01 169.412 237.23 170.072C237.45 170.512 237.67 170.952 238.11 171.392C238.771 171.612 239.211 171.832 239.871 171.832C240.531 171.832 240.971 171.612 241.631 171.172C242.072 170.732 242.292 170.292 242.512 169.412Z" fill="#1A237E"/>
<path d="M249.554 172.712V171.612C249.114 172.492 248.233 172.712 247.353 172.712C246.913 172.712 246.693 172.712 246.253 172.492C246.033 172.492 245.593 172.272 245.593 172.052C245.373 171.832 245.152 171.612 245.152 171.172C245.152 170.952 245.152 170.512 245.152 170.072V165.891H246.253V169.632C246.253 170.292 246.253 170.732 246.253 170.952C246.473 171.172 246.473 171.392 246.693 171.612C246.913 171.832 247.353 171.832 247.573 171.832C248.013 171.832 248.233 171.832 248.674 171.612C248.894 171.392 249.114 171.172 249.334 170.952C249.334 170.512 249.334 170.072 249.334 169.632V165.891H250.654V172.712H249.554Z" fill="#1A237E"/>
<path d="M252.415 172.712V165.891H253.295V166.991C253.735 166.551 253.955 166.111 254.175 166.111C254.395 165.891 254.615 165.671 254.835 165.671C255.275 165.671 255.716 165.891 255.936 166.111L255.716 167.211C255.275 166.991 255.055 166.991 254.835 166.991C254.615 166.991 254.395 166.991 254.175 167.211C253.955 167.432 253.735 167.652 253.735 167.872C253.515 168.312 253.515 168.752 253.515 169.192V172.712H252.415Z" fill="#1A237E"/>
<path d="M256.596 172.712V165.891H257.696V166.991C257.916 166.551 258.136 166.111 258.356 166.111C258.576 165.891 259.017 165.671 259.237 165.671C259.677 165.671 259.897 165.891 260.337 166.111L259.897 167.211C259.677 166.991 259.457 166.991 259.237 166.991C258.796 166.991 258.576 166.991 258.356 167.211C258.356 167.432 258.136 167.652 258.136 167.872C257.916 168.312 257.916 168.752 257.916 169.192V172.712H256.596Z" fill="#1A237E"/>
<path d="M265.619 170.512L266.939 170.732C266.719 171.392 266.279 171.832 265.839 172.272C265.398 172.712 264.738 172.712 263.858 172.712C262.978 172.712 262.097 172.492 261.437 171.832C260.997 171.392 260.777 170.512 260.777 169.412C260.777 168.312 260.997 167.432 261.657 166.771C262.097 166.111 262.978 165.671 263.858 165.671C264.738 165.671 265.398 166.111 266.059 166.771C266.499 167.211 266.939 168.092 266.939 169.192C266.939 169.412 266.939 169.412 266.939 169.632H261.877C261.877 170.292 262.097 170.952 262.538 171.392C262.758 171.612 263.418 171.832 263.858 171.832C264.298 171.832 264.738 171.832 264.958 171.612C265.178 171.392 265.398 170.952 265.619 170.512ZM261.877 168.752H265.619C265.619 168.092 265.398 167.652 265.178 167.432C264.958 166.991 264.298 166.771 263.858 166.771C263.198 166.771 262.758 166.991 262.538 167.211C262.097 167.652 261.877 168.092 261.877 168.752Z" fill="#1A237E"/>
<path d="M268.259 172.712V165.891H269.36V166.771C269.8 166.111 270.46 165.671 271.56 165.671C271.78 165.671 272.22 165.891 272.661 165.891C272.881 166.111 273.101 166.331 273.321 166.551C273.541 166.771 273.761 166.991 273.761 167.432C273.761 167.652 273.761 168.092 273.761 168.532V172.712H272.661V168.532C272.661 168.092 272.661 167.652 272.441 167.432C272.441 167.211 272.22 167.211 272 166.991C271.78 166.771 271.56 166.771 271.34 166.771C270.68 166.771 270.24 166.991 270.02 167.211C269.58 167.432 269.36 168.092 269.36 168.972V172.712H268.259Z" fill="#1A237E"/>
<path d="M279.923 170.292H281.023C281.023 171.172 280.583 171.832 280.143 172.272C279.703 172.712 279.042 172.712 278.382 172.712C277.282 172.712 276.622 172.492 275.962 171.832C275.521 171.392 275.301 170.512 275.301 169.412C275.301 168.532 275.301 167.872 275.521 167.432C275.742 166.771 276.182 166.551 276.622 166.111C277.062 165.891 277.722 165.671 278.382 165.671C279.042 165.671 279.703 165.891 280.143 166.331C280.583 166.771 280.803 167.211 281.023 167.872L279.923 168.092C279.703 167.652 279.483 167.211 279.263 166.991C279.042 166.771 278.602 166.771 278.382 166.771C277.722 166.771 277.282 166.991 276.842 167.432C276.622 167.652 276.402 168.312 276.402 169.192C276.402 170.292 276.622 170.952 276.842 171.172C277.282 171.612 277.722 171.832 278.162 171.832C278.602 171.832 279.042 171.832 279.483 171.392C279.703 171.172 279.923 170.732 279.923 170.292Z" fill="#1A237E"/>
<path d="M281.903 175.352V174.252C282.123 174.252 282.343 174.252 282.564 174.252C282.784 174.252 283.004 174.252 283.224 174.252C283.224 174.032 283.444 174.032 283.444 173.812C283.664 173.812 283.664 173.372 283.884 172.932V172.712L281.463 165.891H282.564L284.104 169.852C284.324 170.292 284.324 170.732 284.544 171.392C284.764 170.952 284.764 170.292 284.984 169.852L286.525 165.891H287.625L284.984 172.712C284.764 173.592 284.544 174.032 284.324 174.252C284.104 174.692 283.884 174.912 283.664 175.132C283.444 175.352 283.004 175.352 282.784 175.352C282.564 175.352 282.343 175.352 281.903 175.352Z" fill="#1A237E"/>
<path d="M343.742 179.752H238.33V179.092H343.742V179.752ZM347.043 182.393H346.382V182.173V181.952H346.162V181.732V181.512V181.292H345.942V181.072V180.852H345.722V180.632H345.502V180.412H345.282V180.192H345.062L344.842 179.972H344.622H344.402V179.752H344.182H343.962H343.742V179.092H343.962H344.182H344.402L344.622 179.312H344.842H345.062V179.532H345.282H345.502V179.752H345.722L345.942 179.972L346.162 180.192L346.382 180.412V180.632L346.602 180.852V181.072L346.823 181.292V181.512V181.732V181.952L347.043 182.173V182.393ZM346.382 202.854V182.393H347.043V202.854H346.382ZM343.742 205.934V205.274H343.962H344.182H344.402H344.622L344.842 205.054H345.062L345.282 204.834L345.502 204.614H345.722V204.394L345.942 204.174V203.954L346.162 203.734V203.514V203.294L346.382 203.074V202.854H347.043V203.074H346.823V203.294V203.514V203.734V203.954H346.602V204.174V204.394H346.382V204.614V204.834H346.162V205.054H345.942V205.274H345.722L345.502 205.494L345.282 205.714H345.062H344.842L344.622 205.934H344.402H344.182H343.962H343.742ZM238.33 205.274H343.742V205.934H238.33V205.274ZM235.25 202.854H235.91V203.074V203.294V203.514V203.734H236.13V203.954V204.174H236.35V204.394L236.57 204.614L236.79 204.834H237.01V205.054H237.23H237.45V205.274H237.67H237.89H238.11H238.33V205.934H238.11H237.89H237.67H237.45L237.23 205.714H237.01H236.79V205.494H236.57V205.274H236.35H236.13V205.054H235.91V204.834L235.69 204.614V204.394H235.47V204.174V203.954L235.25 203.734V203.514V203.294V203.074V202.854ZM235.91 182.393V202.854H235.25V182.393H235.91ZM238.33 179.092V179.752H238.11H237.89H237.67V179.972H237.45H237.23V180.192H237.01H236.79V180.412H236.57V180.632H236.35V180.852L236.13 181.072V181.292L235.91 181.512V181.732V181.952V182.173V182.393H235.25V182.173V181.952V181.732V181.512V181.292H235.47V181.072V180.852L235.69 180.632L235.91 180.412V180.192L236.13 179.972L236.35 179.752H236.57L236.79 179.532H237.01L237.23 179.312H237.45H237.67V179.092H237.89H238.11H238.33Z" fill="#1A237E"/>
<path d="M218.305 179.532H31.2492C28.3323 179.532 25.9677 180.813 25.9677 182.392V202.854C25.9677 204.434 28.3323 205.714 31.2492 205.714H218.305C221.221 205.714 223.586 204.434 223.586 202.854V182.392C223.586 180.813 221.221 179.532 218.305 179.532Z" stroke="#A9ABAE" stroke-width="0.0101736"/>
<path d="M217.424 123.868H30.369C27.4521 123.868 25.0874 125.149 25.0874 126.729V147.19C25.0874 148.77 27.4521 150.05 30.369 150.05H217.424C220.341 150.05 222.706 148.77 222.706 147.19V126.729C222.706 125.149 220.341 123.868 217.424 123.868Z" stroke="#A9ABAE" stroke-width="0.0101736"/>
<path d="M36.3107 137.729V136.849H39.6117V139.71C39.1716 140.15 38.5114 140.37 38.0713 140.59C37.6311 140.81 36.9709 140.81 36.5308 140.81C35.6505 140.81 34.9903 140.59 34.5502 140.37C33.89 140.15 33.4499 139.49 33.0098 139.05C32.7897 138.389 32.5696 137.729 32.5696 137.069C32.5696 136.189 32.7897 135.529 33.0098 134.869C33.4499 134.429 33.89 133.989 34.3301 133.549C34.9903 133.329 35.6505 133.109 36.3107 133.109C36.9709 133.109 37.4111 133.109 37.8512 133.329C38.2913 133.549 38.7314 133.769 38.9515 134.209C39.1716 134.429 39.3916 134.869 39.3916 135.309L38.5114 135.529C38.5114 135.089 38.2913 134.869 38.0713 134.649C38.0713 134.429 37.6311 134.209 37.4111 134.209C37.191 133.989 36.7509 133.989 36.3107 133.989C35.8706 133.989 35.6505 133.989 35.2104 134.209C34.9903 134.209 34.5502 134.429 34.3301 134.649C34.3301 134.869 34.1101 135.089 33.89 135.529C33.67 135.969 33.67 136.409 33.67 136.849C33.67 137.729 33.89 138.169 34.1101 138.61C34.3301 139.05 34.5502 139.49 34.9903 139.71C35.4305 139.93 35.8706 139.93 36.3107 139.93C36.7509 139.93 37.191 139.93 37.6311 139.71C38.0713 139.49 38.2913 139.27 38.5114 139.27V137.729H36.3107Z" fill="#606062"/>
<path d="M44.6732 139.05H45.5535C45.3334 139.71 45.1133 140.15 44.6732 140.37C44.2331 140.59 43.7929 140.81 43.1328 140.81C42.4726 140.81 41.8124 140.59 41.3722 140.15C40.9321 139.71 40.492 138.83 40.492 137.95C40.492 137.069 40.9321 136.409 41.3722 135.969C41.8124 135.529 42.4726 135.089 43.1328 135.089C43.7929 135.089 44.4531 135.529 44.8933 135.969C45.3334 136.409 45.5535 137.069 45.5535 137.95V138.17H41.5923C41.5923 138.83 41.8124 139.27 42.0324 139.49C42.2525 139.93 42.6926 140.15 43.1328 140.15C43.5729 140.15 43.7929 139.93 44.013 139.71C44.2331 139.71 44.4531 139.27 44.6732 139.05ZM41.5923 137.51H44.6732C44.4531 137.069 44.4531 136.629 44.2331 136.409C44.013 136.189 43.5729 135.969 43.1328 135.969C42.6926 135.969 42.2525 135.969 42.0324 136.409C41.8124 136.629 41.5923 137.069 41.5923 137.51Z" fill="#606062"/>
<path d="M46.4337 137.95C46.4337 137.069 46.6538 136.189 47.0939 135.749C47.7541 135.309 48.1943 135.089 48.8544 135.089C49.7347 135.089 50.1748 135.529 50.615 135.969C51.2752 136.409 51.4952 137.069 51.4952 137.95C51.4952 138.61 51.2752 139.27 51.0551 139.49C50.835 139.93 50.615 140.37 50.1748 140.59C49.7347 140.81 49.2946 140.81 48.8544 140.81C48.1943 140.81 47.5341 140.59 47.0939 140.15C46.6538 139.71 46.4337 138.83 46.4337 137.95ZM47.314 137.95C47.314 138.61 47.5341 139.27 47.7541 139.49C47.9742 139.93 48.4143 140.15 48.8544 140.15C49.2946 140.15 49.7347 139.93 49.9548 139.49C50.3949 139.27 50.3949 138.61 50.3949 137.95C50.3949 137.29 50.3949 136.849 49.9548 136.409C49.7347 136.189 49.2946 135.969 48.8544 135.969C48.4143 135.969 47.9742 136.189 47.7541 136.409C47.5341 136.849 47.314 137.29 47.314 137.95Z" fill="#606062"/>
<path d="M52.5956 140.81V135.309H53.2557V136.189C53.4758 135.749 53.6959 135.529 53.9159 135.309C54.136 135.309 54.3561 135.089 54.5761 135.089C54.7962 135.089 55.0163 135.309 55.4564 135.529L55.0163 136.409C54.7962 136.189 54.5761 136.189 54.3561 136.189C54.136 136.189 54.136 136.189 53.9159 136.409C53.6959 136.409 53.6959 136.629 53.4758 136.849C53.4758 137.069 53.4758 137.51 53.4758 137.95V140.81H52.5956Z" fill="#606062"/>
<path d="M55.8965 141.25H56.7768C56.7768 141.47 56.7768 141.69 56.9969 141.91C57.2169 142.13 57.437 142.13 57.8771 142.13C58.3172 142.13 58.7574 142.13 58.9774 141.91C59.1975 141.69 59.1975 141.47 59.4176 141.25C59.4176 141.03 59.4176 140.59 59.4176 139.93C58.9774 140.37 58.5373 140.81 57.8771 140.81C57.2169 140.81 56.5567 140.37 56.1166 139.93C55.8965 139.27 55.6765 138.83 55.6765 137.95C55.6765 137.51 55.6765 137.069 55.8965 136.629C56.1166 136.189 56.3367 135.749 56.7768 135.529C56.9969 135.309 57.437 135.089 57.8771 135.089C58.5373 135.089 59.1975 135.529 59.6376 135.969V135.309H60.2978V139.93C60.2978 140.81 60.2978 141.47 60.0778 141.69C59.8577 142.13 59.6376 142.35 59.1975 142.57C58.9774 142.79 58.5373 142.79 57.8771 142.79C57.2169 142.79 56.7768 142.79 56.3367 142.57C55.8965 142.13 55.6765 141.69 55.8965 141.25ZM56.5567 137.95C56.5567 138.61 56.7768 139.05 56.9969 139.49C57.2169 139.71 57.6571 139.93 58.0972 139.93C58.5373 139.93 58.7574 139.71 59.1975 139.49C59.4176 139.05 59.4176 138.61 59.4176 137.95C59.4176 137.29 59.4176 136.849 58.9774 136.409C58.7574 136.189 58.5373 135.969 58.0972 135.969C57.6571 135.969 57.2169 136.189 56.9969 136.409C56.7768 136.849 56.5567 137.29 56.5567 137.95Z" fill="#606062"/>
<path d="M65.3593 139.05H66.4597C66.2396 139.71 66.0195 140.15 65.5794 140.37C65.1393 140.59 64.6991 140.81 64.0389 140.81C63.1587 140.81 62.7186 140.59 62.0584 140.15C61.6182 139.71 61.3982 138.83 61.3982 137.95C61.3982 137.069 61.6182 136.409 62.0584 135.969C62.7186 135.529 63.1587 135.089 64.0389 135.089C64.6991 135.089 65.3593 135.529 65.7995 135.969C66.2396 136.409 66.4597 137.069 66.4597 137.95V138.17H62.4985C62.4985 138.83 62.4985 139.27 62.9386 139.49C63.1587 139.93 63.5988 140.15 64.0389 140.15C64.259 140.15 64.6991 139.93 64.9192 139.71C65.1393 139.71 65.3593 139.27 65.3593 139.05ZM62.4985 137.51H65.3593C65.3593 137.069 65.3593 136.629 65.1393 136.409C64.9192 136.189 64.4791 135.969 64.0389 135.969C63.5988 135.969 63.1587 135.969 62.9386 136.409C62.7186 136.629 62.4985 137.069 62.4985 137.51Z" fill="#606062"/>
<path d="M70.2007 137.069C70.2007 135.749 70.6409 134.869 71.3011 134.209C71.9613 133.549 72.8415 133.109 73.9419 133.109C74.602 133.109 75.2622 133.329 75.7024 133.549C76.3626 133.989 76.5826 134.429 77.0228 135.089C77.2428 135.529 77.4629 136.189 77.4629 137.069C77.4629 137.729 77.2428 138.389 77.0228 139.05C76.5826 139.71 76.1425 140.15 75.7024 140.37C75.0422 140.59 74.382 140.81 73.9419 140.81C73.0616 140.81 72.4014 140.59 71.9613 140.37C71.3011 139.93 71.081 139.49 70.6409 138.83C70.4208 138.389 70.2007 137.729 70.2007 137.069ZM71.3011 137.069C71.3011 137.949 71.5211 138.61 71.9613 139.27C72.4014 139.71 73.0616 139.93 73.9419 139.93C74.602 139.93 75.2622 139.71 75.7024 139.27C76.1425 138.61 76.3626 137.949 76.3626 137.069C76.3626 136.409 76.3626 135.749 76.1425 135.309C75.9224 134.869 75.4823 134.649 75.2622 134.429C74.8221 133.989 74.382 133.989 73.9419 133.989C73.0616 133.989 72.6215 134.209 71.9613 134.649C71.5211 135.089 71.3011 135.969 71.3011 137.069Z" fill="#606062"/>
<path d="M78.5632 140.81V135.309H79.4435V136.189C79.6636 135.749 79.8836 135.529 79.8836 135.309C80.1037 135.309 80.3238 135.089 80.5438 135.089C80.7639 135.089 81.204 135.309 81.4241 135.529L81.204 136.409C80.9839 136.189 80.7639 136.189 80.5438 136.189C80.3238 136.189 80.1037 136.189 79.8836 136.409C79.8836 136.409 79.6636 136.629 79.6636 136.849C79.4435 137.069 79.4435 137.51 79.4435 137.95V140.81H78.5632Z" fill="#606062"/>
<path d="M82.9645 140.81L81.4241 135.309H82.3043L83.1846 138.39L83.4047 139.49C83.4047 139.49 83.6247 139.05 83.8448 138.39L84.7251 135.309H85.6053L86.4856 138.39L86.7056 139.49L86.9257 138.39L87.806 135.309H88.6862L87.1458 140.81H86.0454L85.3852 137.509L85.1652 136.629L84.0649 140.81H82.9645Z" fill="#606062"/>
<path d="M93.3076 139.05H94.1878C93.9678 139.71 93.7477 140.15 93.3076 140.37C92.8674 140.59 92.4273 140.81 91.7671 140.81C91.1069 140.81 90.4467 140.59 90.0066 140.15C89.5665 139.71 89.3464 138.83 89.3464 137.95C89.3464 137.069 89.5665 136.409 90.0066 135.969C90.4467 135.529 91.1069 135.089 91.7671 135.089C92.4273 135.089 93.0875 135.529 93.5276 135.969C93.9678 136.409 94.1878 137.069 94.1878 137.95V138.17H90.2267C90.2267 138.83 90.4467 139.27 90.6668 139.49C91.1069 139.93 91.327 140.15 91.7671 140.15C92.2072 140.15 92.4273 139.93 92.6474 139.71C92.8674 139.71 93.0875 139.27 93.3076 139.05ZM90.2267 137.51H93.3076C93.3076 137.069 93.0875 136.629 92.8674 136.409C92.6474 136.189 92.2072 135.969 91.7671 135.969C91.327 135.969 91.1069 135.969 90.6668 136.409C90.4467 136.629 90.2267 137.069 90.2267 137.51Z" fill="#606062"/>
<path d="M95.2882 140.81V133.329H96.1684V140.81H95.2882Z" fill="#606062"/>
<path d="M97.7089 140.81V133.329H98.5891V140.81H97.7089Z" fill="#606062"/>
<path d="M23.547 93.0664H346.602" stroke="#1A237E" stroke-width="0.00678115"/>
<path d="M374.234 90.6463C399.271 90.6463 419.567 70.3544 419.567 45.3231C419.567 20.2919 399.271 0 374.234 0C349.197 0 328.901 20.2919 328.901 45.3231C328.901 70.3544 349.197 90.6463 374.234 90.6463Z" fill="#1A237E"/>
<path d="M376.835 26C378.732 26 380.525 26.205 382.216 26.615C383.925 27.0249 385.462 27.5203 386.829 28.1011L384.446 33.9946C383.25 33.4992 382.054 33.1063 380.858 32.8159C379.68 32.5084 378.552 32.3547 377.476 32.3547C376.349 32.3547 375.375 32.6878 374.555 33.354C373.735 34.0031 373.325 35.1391 373.325 36.762V41.7074H382.934V47.3189H373.325V50.9831C373.325 52.2302 373.129 53.2637 372.736 54.0836C372.343 54.9036 371.847 55.5698 371.249 56.0823C370.669 56.5947 370.071 57.0133 369.456 57.3378H387.854V64H361V57.6453C361.974 57.2183 362.802 56.757 363.486 56.2616C364.169 55.7492 364.69 55.0829 365.049 54.263C365.424 53.443 365.612 52.3668 365.612 51.0344V47.3189H361.051V41.7074H365.612V36.7107C365.612 34.1313 366.116 32.0643 367.124 30.5098C368.149 28.9382 369.507 27.7937 371.198 27.0762C372.906 26.3587 374.786 26 376.835 26Z" fill="white"/>
<path d="M246.582 192.348H249.781V196.648C249.332 196.797 248.867 196.912 248.387 196.994C247.906 197.076 247.367 197.117 246.77 197.117C245.898 197.117 245.16 196.945 244.555 196.602C243.953 196.254 243.496 195.752 243.184 195.096C242.871 194.436 242.715 193.641 242.715 192.711C242.715 191.816 242.889 191.041 243.236 190.385C243.584 189.725 244.09 189.215 244.754 188.855C245.418 188.492 246.223 188.311 247.168 188.311C247.633 188.311 248.082 188.357 248.516 188.451C248.953 188.541 249.354 188.666 249.717 188.826L249.225 189.986C248.936 189.85 248.611 189.734 248.252 189.641C247.893 189.547 247.52 189.5 247.133 189.5C246.52 189.5 245.99 189.633 245.545 189.898C245.104 190.164 244.764 190.539 244.525 191.023C244.287 191.504 244.168 192.072 244.168 192.729C244.168 193.365 244.264 193.924 244.455 194.404C244.646 194.885 244.945 195.26 245.352 195.529C245.762 195.795 246.291 195.928 246.939 195.928C247.264 195.928 247.539 195.91 247.766 195.875C247.992 195.84 248.201 195.801 248.393 195.758V193.549H246.582V192.348ZM251.832 188.434H254.381C255.486 188.434 256.32 188.594 256.883 188.914C257.445 189.234 257.727 189.787 257.727 190.572C257.727 190.9 257.668 191.197 257.551 191.463C257.438 191.725 257.271 191.941 257.053 192.113C256.834 192.281 256.564 192.395 256.244 192.453V192.512C256.576 192.57 256.871 192.674 257.129 192.822C257.391 192.971 257.596 193.184 257.744 193.461C257.896 193.738 257.973 194.098 257.973 194.539C257.973 195.062 257.848 195.508 257.598 195.875C257.352 196.242 256.998 196.521 256.537 196.713C256.08 196.904 255.537 197 254.908 197H251.832V188.434ZM253.238 191.967H254.586C255.223 191.967 255.664 191.863 255.91 191.656C256.156 191.449 256.279 191.146 256.279 190.748C256.279 190.342 256.133 190.049 255.84 189.869C255.551 189.689 255.09 189.6 254.457 189.6H253.238V191.967ZM253.238 193.104V195.822H254.721C255.377 195.822 255.838 195.695 256.104 195.441C256.369 195.188 256.502 194.844 256.502 194.41C256.502 194.145 256.441 193.914 256.32 193.719C256.203 193.523 256.01 193.373 255.74 193.268C255.471 193.158 255.107 193.104 254.65 193.104H253.238ZM262.232 188.434C263.338 188.434 264.145 188.66 264.652 189.113C265.16 189.566 265.414 190.201 265.414 191.018C265.414 191.389 265.355 191.742 265.238 192.078C265.125 192.41 264.938 192.705 264.676 192.963C264.414 193.217 264.068 193.418 263.639 193.566C263.213 193.715 262.688 193.789 262.062 193.789H261.148V197H259.742V188.434H262.232ZM262.139 189.6H261.148V192.617H261.916C262.357 192.617 262.732 192.566 263.041 192.465C263.35 192.359 263.584 192.193 263.744 191.967C263.904 191.74 263.984 191.441 263.984 191.07C263.984 190.574 263.834 190.205 263.533 189.963C263.236 189.721 262.771 189.6 262.139 189.6Z" fill="#1A237E"/>
</g>
<defs>
<clipPath id="clip0_10734_88880">
<rect width="419.643" height="288" fill="white"/>
</clipPath>
</defs>
</svg>
