<svg width="328" height="352" viewBox="0 0 328 352" fill="none" xmlns="http://www.w3.org/2000/svg">
<g filter="url(#filter0_d_378_512)">
<rect y="24" width="150" height="150" rx="16" fill="white" shape-rendering="crispEdges"/>
<rect x="1.5" y="25.5" width="147" height="147" rx="14.5" stroke="#212528" stroke-width="3" shape-rendering="crispEdges"/>
<path d="M75.91 77.9333C70.6133 76.5567 68.91 75.1333 68.91 72.9167C68.91 70.3733 71.2667 68.6 75.21 68.6C79.3633 68.6 80.9033 70.5833 81.0433 73.5H86.2C86.0367 69.4867 83.5867 65.8 78.71 64.61V59.5H71.71V64.54C67.1833 65.52 63.5433 68.46 63.5433 72.9633C63.5433 78.3533 68 81.0367 74.51 82.6C80.3433 84 81.51 86.0533 81.51 88.2233C81.51 89.8333 80.3667 92.4 75.21 92.4C70.4033 92.4 68.5133 90.2533 68.2567 87.5H63.1233C63.4033 92.61 67.23 95.48 71.71 96.4367V101.5H78.71V96.4833C83.26 95.62 86.8767 92.9833 86.8767 88.2C86.8767 81.5733 81.2067 79.31 75.91 77.9333Z" fill="#212528"/>
<path d="M62.2244 122.045H65.3864V133.449C65.3864 134.699 65.0909 135.798 64.5 136.747C63.9148 137.696 63.0909 138.437 62.0284 138.972C60.9659 139.5 59.7244 139.764 58.304 139.764C56.8778 139.764 55.6335 139.5 54.571 138.972C53.5085 138.437 52.6847 137.696 52.0994 136.747C51.5142 135.798 51.2216 134.699 51.2216 133.449V122.045H54.3835V133.185C54.3835 133.912 54.5426 134.56 54.8608 135.128C55.1847 135.696 55.6392 136.142 56.2244 136.466C56.8097 136.784 57.5028 136.943 58.304 136.943C59.1051 136.943 59.7983 136.784 60.3835 136.466C60.9744 136.142 61.429 135.696 61.7472 135.128C62.0653 134.56 62.2244 133.912 62.2244 133.185V122.045ZM78.3089 126.844C78.2294 126.099 77.8942 125.52 77.3033 125.105C76.718 124.69 75.9567 124.483 75.0192 124.483C74.3601 124.483 73.7947 124.582 73.3232 124.781C72.8516 124.98 72.4908 125.25 72.2408 125.591C71.9908 125.932 71.8629 126.321 71.8572 126.759C71.8572 127.122 71.9396 127.437 72.1044 127.705C72.2749 127.972 72.505 128.199 72.7947 128.386C73.0845 128.568 73.4055 128.722 73.7578 128.847C74.1101 128.972 74.4652 129.077 74.8232 129.162L76.4595 129.571C77.1186 129.724 77.7521 129.932 78.3601 130.193C78.9737 130.455 79.522 130.784 80.005 131.182C80.4936 131.58 80.88 132.06 81.1641 132.622C81.4482 133.185 81.5902 133.844 81.5902 134.599C81.5902 135.622 81.3288 136.523 80.8061 137.301C80.2834 138.074 79.5277 138.679 78.5391 139.116C77.5561 139.548 76.3658 139.764 74.968 139.764C73.6101 139.764 72.4311 139.554 71.4311 139.134C70.4368 138.713 69.6584 138.099 69.0959 137.293C68.5391 136.486 68.2379 135.503 68.1925 134.344H71.3033C71.3487 134.952 71.5362 135.457 71.8658 135.861C72.1953 136.264 72.6243 136.565 73.1527 136.764C73.6868 136.963 74.2834 137.062 74.9425 137.062C75.63 137.062 76.2322 136.96 76.7493 136.756C77.272 136.545 77.6811 136.256 77.9766 135.886C78.272 135.511 78.4226 135.074 78.4283 134.574C78.4226 134.119 78.2891 133.744 78.0277 133.449C77.7663 133.148 77.3999 132.898 76.9283 132.699C76.4624 132.494 75.9169 132.312 75.2919 132.153L73.3061 131.642C71.8686 131.273 70.7322 130.713 69.897 129.963C69.0675 129.207 68.6527 128.205 68.6527 126.955C68.6527 125.926 68.9311 125.026 69.4879 124.253C70.0504 123.48 70.8146 122.881 71.7805 122.455C72.7464 122.023 73.8402 121.807 75.0618 121.807C76.3004 121.807 77.3857 122.023 78.3175 122.455C79.255 122.881 79.9908 123.474 80.5249 124.236C81.0589 124.991 81.3345 125.861 81.3516 126.844H78.3089ZM90.3239 139.5H84.4091V122.045H90.4432C92.1761 122.045 93.6648 122.395 94.9091 123.094C96.1591 123.787 97.1193 124.784 97.7898 126.085C98.4602 127.386 98.7955 128.943 98.7955 130.756C98.7955 132.574 98.4574 134.136 97.7812 135.443C97.1108 136.75 96.142 137.753 94.875 138.452C93.6136 139.151 92.0966 139.5 90.3239 139.5ZM87.571 136.764H90.1705C91.3864 136.764 92.4006 136.543 93.2131 136.099C94.0256 135.651 94.6364 134.983 95.0455 134.097C95.4545 133.205 95.6591 132.091 95.6591 130.756C95.6591 129.42 95.4545 128.312 95.0455 127.432C94.6364 126.545 94.0313 125.884 93.2301 125.446C92.4347 125.003 91.446 124.781 90.2642 124.781H87.571V136.764Z" fill="#212528"/>
</g>
<g filter="url(#filter1_d_378_512)">
<rect x="174" width="150" height="150" rx="16" fill="white" shape-rendering="crispEdges"/>
<rect x="175.5" y="1.5" width="147" height="147" rx="14.5" stroke="#212528" stroke-width="3" shape-rendering="crispEdges"/>
<path d="M252.873 44.8333C251.567 42.08 248.767 40.1667 245.5 40.1667H235V35.5H263V40.1667H255.393C256.513 41.52 257.353 43.1067 257.843 44.8333H263V49.5H258.287C257.703 56.0333 252.197 61.1667 245.5 61.1667H243.797L259.5 77.5H253.037L237.333 61.1667V56.5H245.5C249.607 56.5 253.013 53.4667 253.573 49.5H235V44.8333H252.873Z" fill="#212528"/>
<path d="M233.884 98.0455V115.5H230.722V98.0455H233.884ZM251.651 98.0455V115.5H248.839L240.614 103.611H240.469V115.5H237.308V98.0455H240.137L248.353 109.943H248.506V98.0455H251.651ZM255.097 115.5V98.0455H261.642C262.983 98.0455 264.108 98.2784 265.017 98.7443C265.932 99.2102 266.622 99.8636 267.088 100.705C267.56 101.54 267.795 102.514 267.795 103.628C267.795 104.747 267.557 105.719 267.08 106.543C266.608 107.361 265.912 107.994 264.991 108.443C264.071 108.886 262.94 109.108 261.599 109.108H256.938V106.483H261.173C261.957 106.483 262.599 106.375 263.099 106.159C263.599 105.937 263.969 105.616 264.207 105.196C264.452 104.77 264.574 104.247 264.574 103.628C264.574 103.009 264.452 102.48 264.207 102.043C263.963 101.599 263.591 101.264 263.091 101.037C262.591 100.804 261.946 100.688 261.156 100.688H258.259V115.5H255.097ZM264.114 107.591L268.435 115.5H264.906L260.662 107.591H264.114Z" fill="#212528"/>
</g>
<g filter="url(#filter2_d_378_512)">
<rect y="198" width="150" height="150" rx="16" fill="white" shape-rendering="crispEdges"/>
<rect x="1.5" y="199.5" width="147" height="147" rx="14.5" stroke="#212528" stroke-width="3" shape-rendering="crispEdges"/>
<path d="M79.6667 276.083C84.17 276.083 88.1133 273.353 89 269.083L84.9167 267.03C84.3333 269.573 82.77 271.417 79.6667 271.417H68.2333C70.17 269.083 71.7333 265.957 71.7333 262.083C71.7333 261.267 71.6633 260.473 71.5467 259.75H79.6667V255.083H69.9133C68 251.397 65.6667 249.483 65.6667 245.75C65.6667 241.247 69.33 237.583 73.8333 237.583C77.3333 237.583 80.3433 239.8 81.4867 242.903L85.8033 241.083C83.9367 236.3 79.2933 232.917 73.8333 232.917C66.74 232.917 61 238.657 61 245.75C61 249.903 62.8433 252.517 64.4767 255.083H61V259.75H66.7633C66.95 260.473 67.0667 261.243 67.0667 262.083C67.0667 268.383 61 271.417 61 271.417V276.083H79.6667Z" fill="#212528"/>
<path d="M63.4148 301.619C63.2727 301.159 63.0767 300.747 62.8267 300.384C62.5824 300.014 62.2869 299.699 61.9403 299.438C61.5994 299.176 61.2074 298.98 60.7642 298.849C60.321 298.713 59.8381 298.645 59.3153 298.645C58.3778 298.645 57.5426 298.881 56.8097 299.352C56.0767 299.824 55.5 300.517 55.0795 301.432C54.6648 302.341 54.4574 303.449 54.4574 304.756C54.4574 306.074 54.6648 307.19 55.0795 308.105C55.4943 309.02 56.071 309.716 56.8097 310.193C57.5483 310.665 58.4063 310.901 59.3835 310.901C60.2699 310.901 61.0369 310.73 61.6847 310.389C62.3381 310.048 62.8409 309.565 63.1932 308.94C63.5455 308.31 63.7216 307.571 63.7216 306.724L64.4375 306.835H59.6989V304.364H66.7812V306.46C66.7812 307.955 66.4631 309.247 65.8267 310.338C65.1903 311.429 64.3153 312.27 63.2017 312.861C62.0881 313.446 60.8097 313.739 59.3665 313.739C57.7585 313.739 56.3466 313.378 55.1307 312.656C53.9205 311.929 52.9744 310.898 52.2926 309.562C51.6165 308.222 51.2784 306.631 51.2784 304.79C51.2784 303.381 51.4773 302.122 51.875 301.014C52.2784 299.906 52.8409 298.966 53.5625 298.193C54.2841 297.415 55.1307 296.824 56.1023 296.42C57.0739 296.011 58.1307 295.807 59.2727 295.807C60.2386 295.807 61.1392 295.949 61.9744 296.233C62.8097 296.511 63.5511 296.909 64.1989 297.426C64.8523 297.943 65.3892 298.557 65.8097 299.267C66.2301 299.977 66.5057 300.761 66.6364 301.619H63.4148ZM69.8388 313.5V296.045H76.5206C77.782 296.045 78.8303 296.244 79.6655 296.642C80.5064 297.034 81.1342 297.571 81.549 298.253C81.9695 298.935 82.1797 299.707 82.1797 300.571C82.1797 301.281 82.0433 301.889 81.7706 302.395C81.4979 302.895 81.1314 303.301 80.6712 303.614C80.2109 303.926 79.6967 304.151 79.1286 304.287V304.457C79.7479 304.491 80.3416 304.682 80.9098 305.028C81.4837 305.369 81.9524 305.852 82.3161 306.477C82.6797 307.102 82.8615 307.858 82.8615 308.744C82.8615 309.648 82.6428 310.46 82.2053 311.182C81.7678 311.898 81.1087 312.463 80.228 312.878C79.3473 313.293 78.2393 313.5 76.9041 313.5H69.8388ZM73.0007 310.858H76.4013C77.549 310.858 78.3757 310.639 78.8814 310.202C79.3928 309.759 79.6484 309.19 79.6484 308.497C79.6484 307.98 79.5206 307.514 79.2649 307.099C79.0092 306.679 78.6456 306.349 78.174 306.111C77.7024 305.866 77.1399 305.744 76.4865 305.744H73.0007V310.858ZM73.0007 303.469H76.1286C76.674 303.469 77.1655 303.369 77.603 303.17C78.0405 302.966 78.3842 302.679 78.6342 302.31C78.8899 301.935 79.0178 301.491 79.0178 300.98C79.0178 300.304 78.7791 299.747 78.3018 299.31C77.8303 298.872 77.1286 298.653 76.1967 298.653H73.0007V303.469ZM85.6122 313.5V296.045H92.1577C93.4986 296.045 94.6236 296.295 95.5327 296.795C96.4474 297.295 97.1378 297.983 97.6037 298.858C98.0753 299.727 98.3111 300.716 98.3111 301.824C98.3111 302.943 98.0753 303.937 97.6037 304.807C97.1321 305.676 96.4361 306.361 95.5156 306.861C94.5952 307.355 93.4616 307.602 92.1151 307.602H87.777V305.003H91.6889C92.473 305.003 93.1151 304.866 93.6151 304.594C94.1151 304.321 94.4844 303.946 94.723 303.469C94.9673 302.991 95.0895 302.443 95.0895 301.824C95.0895 301.205 94.9673 300.659 94.723 300.188C94.4844 299.716 94.1122 299.349 93.6065 299.088C93.1065 298.821 92.4616 298.688 91.6719 298.688H88.7741V313.5H85.6122Z" fill="#212528"/>
</g>
<g filter="url(#filter3_d_378_512)">
<rect x="174" y="174" width="150" height="150" rx="16" fill="white" shape-rendering="crispEdges"/>
<rect x="175.5" y="175.5" width="147" height="147" rx="14.5" stroke="#212528" stroke-width="3" shape-rendering="crispEdges"/>
<path d="M256 245.667C250.143 245.667 245.08 242.353 242.56 237.5H256V232.833H241.02C240.903 232.063 240.833 231.293 240.833 230.5C240.833 229.707 240.903 228.937 241.02 228.167H256V223.5H242.56C245.08 218.647 250.167 215.333 256 215.333C259.757 215.333 263.21 216.71 265.87 218.997L270 214.867C266.29 211.53 261.367 209.5 256 209.5C246.853 209.5 239.107 215.357 236.213 223.5H228V228.167H235.14C235.047 228.937 235 229.707 235 230.5C235 231.293 235.047 232.063 235.14 232.833H228V237.5H236.213C239.107 245.643 246.853 251.5 256 251.5C261.39 251.5 266.29 249.47 270 246.133L265.847 242.003C263.21 244.29 259.78 245.667 256 245.667Z" fill="#212528"/>
<path d="M226.722 289.5V272.045H238.074V274.696H229.884V279.435H237.486V282.085H229.884V286.849H238.142V289.5H226.722ZM252.303 272.045H255.464V283.449C255.464 284.699 255.169 285.798 254.578 286.747C253.993 287.696 253.169 288.437 252.107 288.972C251.044 289.5 249.803 289.764 248.382 289.764C246.956 289.764 245.712 289.5 244.649 288.972C243.587 288.437 242.763 287.696 242.178 286.747C241.592 285.798 241.3 284.699 241.3 283.449V272.045H244.462V283.185C244.462 283.912 244.621 284.56 244.939 285.128C245.263 285.696 245.717 286.142 246.303 286.466C246.888 286.784 247.581 286.943 248.382 286.943C249.183 286.943 249.876 286.784 250.462 286.466C251.053 286.142 251.507 285.696 251.825 285.128C252.143 284.56 252.303 283.912 252.303 283.185V272.045ZM258.901 289.5V272.045H265.447C266.788 272.045 267.913 272.278 268.822 272.744C269.737 273.21 270.427 273.864 270.893 274.705C271.364 275.54 271.6 276.514 271.6 277.628C271.6 278.747 271.362 279.719 270.884 280.543C270.413 281.361 269.717 281.994 268.796 282.443C267.876 282.886 266.745 283.108 265.404 283.108H260.742V280.483H264.978C265.762 280.483 266.404 280.375 266.904 280.159C267.404 279.937 267.773 279.616 268.012 279.196C268.256 278.77 268.379 278.247 268.379 277.628C268.379 277.009 268.256 276.48 268.012 276.043C267.768 275.599 267.396 275.264 266.896 275.037C266.396 274.804 265.751 274.688 264.961 274.688H262.063V289.5H258.901ZM267.918 281.591L272.239 289.5H268.711L264.467 281.591H267.918Z" fill="#212528"/>
</g>
<defs>
<filter id="filter0_d_378_512" x="0" y="24" width="154" height="154" filterUnits="userSpaceOnUse" color-interpolation-filters="sRGB">
<feFlood flood-opacity="0" result="BackgroundImageFix"/>
<feColorMatrix in="SourceAlpha" type="matrix" values="0 0 0 0 0 0 0 0 0 0 0 0 0 0 0 0 0 0 127 0" result="hardAlpha"/>
<feOffset dx="4" dy="4"/>
<feComposite in2="hardAlpha" operator="out"/>
<feColorMatrix type="matrix" values="0 0 0 0 0.667568 0 0 0 0 0.805297 0 0 0 0 0.932432 0 0 0 1 0"/>
<feBlend mode="normal" in2="BackgroundImageFix" result="effect1_dropShadow_378_512"/>
<feBlend mode="normal" in="SourceGraphic" in2="effect1_dropShadow_378_512" result="shape"/>
</filter>
<filter id="filter1_d_378_512" x="174" y="0" width="154" height="154" filterUnits="userSpaceOnUse" color-interpolation-filters="sRGB">
<feFlood flood-opacity="0" result="BackgroundImageFix"/>
<feColorMatrix in="SourceAlpha" type="matrix" values="0 0 0 0 0 0 0 0 0 0 0 0 0 0 0 0 0 0 127 0" result="hardAlpha"/>
<feOffset dx="4" dy="4"/>
<feComposite in2="hardAlpha" operator="out"/>
<feColorMatrix type="matrix" values="0 0 0 0 0.932432 0 0 0 0 0.778811 0 0 0 0 0.667568 0 0 0 1 0"/>
<feBlend mode="normal" in2="BackgroundImageFix" result="effect1_dropShadow_378_512"/>
<feBlend mode="normal" in="SourceGraphic" in2="effect1_dropShadow_378_512" result="shape"/>
</filter>
<filter id="filter2_d_378_512" x="0" y="198" width="154" height="154" filterUnits="userSpaceOnUse" color-interpolation-filters="sRGB">
<feFlood flood-opacity="0" result="BackgroundImageFix"/>
<feColorMatrix in="SourceAlpha" type="matrix" values="0 0 0 0 0 0 0 0 0 0 0 0 0 0 0 0 0 0 127 0" result="hardAlpha"/>
<feOffset dx="4" dy="4"/>
<feComposite in2="hardAlpha" operator="out"/>
<feColorMatrix type="matrix" values="0 0 0 0 0.672865 0 0 0 0 0.932432 0 0 0 0 0.667568 0 0 0 1 0"/>
<feBlend mode="normal" in2="BackgroundImageFix" result="effect1_dropShadow_378_512"/>
<feBlend mode="normal" in="SourceGraphic" in2="effect1_dropShadow_378_512" result="shape"/>
</filter>
<filter id="filter3_d_378_512" x="174" y="174" width="154" height="154" filterUnits="userSpaceOnUse" color-interpolation-filters="sRGB">
<feFlood flood-opacity="0" result="BackgroundImageFix"/>
<feColorMatrix in="SourceAlpha" type="matrix" values="0 0 0 0 0 0 0 0 0 0 0 0 0 0 0 0 0 0 127 0" result="hardAlpha"/>
<feOffset dx="4" dy="4"/>
<feComposite in2="hardAlpha" operator="out"/>
<feColorMatrix type="matrix" values="0 0 0 0 0.932432 0 0 0 0 0.667568 0 0 0 0 0.905946 0 0 0 1 0"/>
<feBlend mode="normal" in2="BackgroundImageFix" result="effect1_dropShadow_378_512"/>
<feBlend mode="normal" in="SourceGraphic" in2="effect1_dropShadow_378_512" result="shape"/>
</filter>
</defs>
</svg>
