<?xml version="1.0" encoding="UTF-8"?>
<!DOCTYPE svg PUBLIC "-//W3C//DTD SVG 1.1//EN" "http://www.w3.org/Graphics/SVG/1.1/DTD/svg11.dtd">
<!-- Creator: CorelDRAW X8 -->
<svg xmlns="http://www.w3.org/2000/svg" xml:space="preserve" width="4.37068in" height="3in" version="1.1" style="shape-rendering:geometricPrecision; text-rendering:geometricPrecision; image-rendering:optimizeQuality; fill-rule:evenodd; clip-rule:evenodd"
viewBox="0 0 1518 1042"
 xmlns:xlink="http://www.w3.org/1999/xlink">
 <defs>
  <style type="text/css">
   <![CDATA[
    .str0 {stroke:#1A237E;stroke-width:2.35794}
    .fil1 {fill:none}
    .fil7 {fill:#FEFEFE}
    .fil0 {fill:#1A237E}
    .fil6 {fill:#E8E8E8}
    .fil8 {fill:#FEFEFE;fill-rule:nonzero}
    .fil5 {fill:#A9ABAE;fill-rule:nonzero}
    .fil4 {fill:#606062;fill-rule:nonzero}
    .fil3 {fill:#373435;fill-rule:nonzero}
    .fil2 {fill:#1A237E;fill-rule:nonzero}
   ]]>
  </style>
 </defs>
 <g id="Layer_x0020_1">
  <metadata id="CorelCorpID_0Corel-Layer"/>
  <g id="_2490753832944">
   <path class="fil0" d="M1339 133l-1288 0c-28,0 -51,23 -51,51l0 807c0,28 23,51 51,51l1288 0c28,0 51,-23 51,-51l0 -807c0,-28 -23,-51 -51,-51zm3 814c-1,29 -24,52 -53,51l-1188 0c-29,1 -53,-22 -53,-51l0 -720c0,-29 24,-52 53,-51l1189 0c28,-1 52,22 52,51l0 720 0 0z"/>
   <line class="fil1 str0" x1="85" y1="327" x2="1254" y2= "322" />
   <path class="fil2" d="M90 272l8 -1c0,2 1,4 3,6 1,1 3,1 6,1 2,0 4,0 5,-1 2,-1 2,-3 2,-4 0,-1 0,-2 0,-3 -1,0 -2,-1 -3,-1 -1,-1 -3,-1 -7,-2 -4,-1 -7,-3 -9,-4 -2,-2 -4,-5 -4,-8 0,-2 1,-4 2,-6 1,-2 3,-3 5,-4 2,-1 5,-2 8,-2 5,0 9,2 11,4 3,2 4,5 4,9l-8 0c0,-2 -1,-4 -2,-4 -1,-1 -3,-2 -5,-2 -2,0 -4,1 -6,2 0,0 -1,1 -1,2 0,1 0,2 1,3 1,1 4,1 8,2 4,1 7,2 9,3 2,1 3,3 4,4 1,2 2,4 2,7 0,2 -1,4 -2,6 -2,2 -3,4 -6,5 -2,1 -5,1 -9,1 -5,0 -9,-1 -11,-3 -3,-3 -5,-6 -5,-10z"/>
   <path id="1" class="fil2" d="M147 275l7 2c-1,2 -2,5 -4,6 -3,2 -5,2 -8,2 -6,0 -9,-1 -12,-5 -2,-2 -3,-6 -3,-10 0,-5 2,-8 4,-11 3,-3 6,-4 10,-4 4,0 8,1 10,4 3,3 4,7 4,13l-20 0c0,3 1,4 2,6 1,1 3,2 5,2 1,0 2,-1 3,-1 1,-1 1,-2 2,-4zm0 -8c0,-2 -1,-3 -2,-5 -1,-1 -2,-1 -4,-1 -1,0 -3,0 -4,1 -1,2 -2,3 -2,5l12 0z"/>
   <path id="2" class="fil2" d="M174 255l0 6 -5 0 0 12c0,3 0,4 0,5 0,0 1,0 1,1 0,0 1,0 1,0 1,0 2,0 3,-1l1 6c-2,1 -4,1 -6,1 -1,0 -3,0 -4,0 -1,-1 -2,-1 -2,-2 -1,-1 -1,-2 -1,-3 -1,-1 -1,-3 -1,-6l0 -13 -3 0 0 -6 3 0 0 -6 8 -4 0 10 5 0z"/>
   <path id="3" class="fil2" d="M193 255l0 6 -5 0 0 12c0,3 0,4 0,5 0,0 0,0 1,1 0,0 1,0 1,0 1,0 2,0 3,-1l1 6c-2,1 -4,1 -6,1 -2,0 -3,0 -4,0 -1,-1 -2,-1 -2,-2 -1,-1 -1,-2 -2,-3 0,-1 0,-3 0,-6l0 -13 -3 0 0 -6 3 0 0 -6 8 -4 0 10 5 0z"/>
   <path id="4" class="fil2" d="M199 251l0 -7 7 0 0 7 -7 0zm0 34l0 -30 7 0 0 30 -7 0z"/>
   <path id="5" class="fil2" d="M241 285l-8 0 0 -15c0,-3 0,-6 0,-6 0,-1 -1,-2 -2,-3 0,0 -1,0 -2,0 -2,0 -3,0 -4,1 -1,0 -2,1 -2,3 -1,1 -1,3 -1,6l0 14 -8 0 0 -30 8 0 0 5c2,-4 5,-5 9,-5 2,0 4,0 5,1 1,0 2,1 3,2 1,1 1,2 2,3 0,1 0,3 0,5l0 19z"/>
   <path id="6" class="fil2" d="M248 287l9 1c0,1 1,1 1,2 1,0 2,1 4,1 2,0 3,-1 4,-1 1,-1 1,-1 2,-2 0,-1 0,-2 0,-4l0 -4c-2,3 -5,5 -9,5 -4,0 -7,-2 -9,-5 -2,-3 -3,-6 -3,-10 0,-5 1,-9 4,-11 2,-3 5,-4 9,-4 3,0 6,1 9,4l0 -4 7 0 0 27c0,3 0,6 -1,7 -1,2 -1,3 -2,4 -1,1 -3,2 -4,3 -2,0 -4,1 -7,1 -5,0 -9,-1 -11,-3 -2,-2 -3,-4 -3,-7 0,0 0,0 0,0zm7 -18c0,3 1,6 2,7 1,2 3,2 5,2 1,0 3,0 4,-2 2,-1 2,-4 2,-6 0,-3 0,-6 -2,-7 -1,-2 -2,-2 -4,-2 -2,0 -4,0 -5,2 -1,1 -2,3 -2,6z"/>
   <path id="7" class="fil2" d="M281 276l8 -1c0,2 1,3 2,4 1,0 2,1 4,1 2,0 3,-1 4,-1 1,-1 1,-2 1,-2 0,-1 0,-1 0,-2 0,0 -1,-1 -3,-1 -6,-1 -10,-3 -12,-4 -2,-1 -3,-3 -3,-6 0,-3 1,-5 3,-7 2,-1 5,-2 9,-2 4,0 7,0 9,2 2,1 4,3 4,5l-7 2c0,-1 -1,-2 -2,-3 -1,0 -2,-1 -4,-1 -2,0 -3,1 -4,1 -1,1 -1,1 -1,2 0,0 0,1 1,1 1,1 3,1 7,2 4,1 7,2 9,4 1,1 2,3 2,6 0,2 -1,5 -3,6 -2,2 -6,3 -10,3 -4,0 -7,0 -10,-2 -2,-2 -3,-4 -4,-7z"/>
   <path class="fil3" d="M253 444l0 -37 7 0 9 26c1,2 2,4 2,6 0,-2 1,-4 2,-6l9 -26 6 0 0 37 -4 0 0 -31 -11 31 -5 0 -10 -32 0 32 -5 0z"/>
   <path id="1" class="fil3" d="M313 444l0 -4c-2,3 -5,4 -8,4 -2,0 -3,0 -5,0 -1,-1 -2,-2 -3,-3 0,-1 -1,-2 -1,-3 0,-1 0,-2 0,-4l0 -17 4 0 0 15c0,2 0,4 1,5 0,1 0,2 1,2 1,1 2,2 4,2 1,0 2,-1 4,-2 1,0 2,-1 2,-2 1,-2 1,-3 1,-6l0 -14 4 0 0 27 -4 0z"/>
   <polygon id="2" class="fil3" points="325,444 325,407 329,407 329,444 "/>
   <path id="3" class="fil3" d="M346 440l1 4c-2,0 -3,0 -4,0 -1,0 -3,0 -4,-1 -1,0 -1,-1 -2,-2 0,0 0,-2 0,-5l0 -16 -3 0 0 -3 3 0 0 -7 4 -2 0 9 5 0 0 3 -5 0 0 16c0,2 1,2 1,3 0,0 0,0 1,1 0,0 0,0 1,0 1,0 1,0 2,0z"/>
   <path id="4" class="fil3" d="M351 412l0 -5 4 0 0 5 -4 0zm0 32l0 -27 4 0 0 27 -4 0z"/>
   <path id="5" class="fil3" d="M362 454l0 -37 4 0 0 3c1,-1 2,-2 4,-3 1,0 2,-1 4,-1 2,0 4,1 6,2 2,1 3,3 4,5 1,2 1,5 1,7 0,3 0,5 -1,8 -1,2 -2,4 -4,5 -2,1 -4,1 -6,1 -2,0 -3,0 -4,-1 -2,0 -3,-1 -3,-2l0 13 -5 0zm4 -23c0,3 1,6 2,7 2,2 3,3 5,3 2,0 4,-1 6,-3 1,-2 2,-4 2,-8 0,-3 -1,-6 -2,-7 -2,-2 -3,-3 -5,-3 -2,0 -4,1 -6,3 -1,1 -2,4 -2,8z"/>
   <polygon id="6" class="fil3" points="391,444 391,407 395,407 395,444 "/>
   <path id="7" class="fil3" d="M421 435l5 1c-1,3 -3,5 -5,6 -2,2 -4,2 -7,2 -4,0 -7,-1 -10,-3 -2,-3 -3,-6 -3,-10 0,-5 1,-8 3,-11 3,-2 6,-4 9,-4 4,0 7,2 9,4 3,2 4,6 4,10 0,1 0,1 0,2l-20 0c0,3 1,5 2,6 2,2 3,3 6,3 1,0 3,-1 4,-2 1,0 2,-2 3,-4zm-15 -7l15 0c0,-2 -1,-4 -2,-5 -1,-2 -3,-3 -5,-3 -3,0 -4,1 -6,2 -1,2 -2,3 -2,6z"/>
   <path id="8" class="fil3" d="M473 431l5 1c-1,4 -3,7 -6,9 -3,2 -6,4 -10,4 -4,0 -7,-1 -9,-3 -3,-2 -5,-4 -6,-7 -1,-3 -2,-6 -2,-10 0,-4 1,-7 2,-10 2,-3 4,-5 6,-7 3,-1 6,-2 9,-2 4,0 7,1 10,3 2,2 4,4 5,8l-5 1c-1,-3 -2,-5 -4,-6 -1,-1 -3,-2 -6,-2 -3,0 -5,1 -7,2 -2,2 -3,4 -4,6 -1,2 -1,5 -1,7 0,3 0,6 1,8 1,3 3,4 5,6 2,1 4,1 6,1 3,0 5,0 7,-2 2,-2 3,-4 4,-7z"/>
   <path id="9" class="fil3" d="M501 444l0 -4c-2,3 -5,4 -9,4 -1,0 -3,0 -4,0 -2,-1 -3,-2 -3,-3 -1,-1 -1,-2 -2,-3 0,-1 0,-2 0,-4l0 -17 5 0 0 15c0,2 0,4 0,5 0,1 1,2 2,2 1,1 2,2 3,2 2,0 3,-1 4,-2 1,0 2,-1 3,-2 0,-2 0,-3 0,-6l0 -14 5 0 0 27 -4 0z"/>
   <path id="10" class="fil3" d="M512 444l0 -27 4 0 0 4c1,-2 2,-3 3,-4 1,0 2,-1 3,-1 1,0 3,1 5,2l-2 4c-1,-1 -2,-1 -3,-1 -1,0 -2,0 -3,1 -1,1 -1,1 -2,2 0,2 0,4 0,6l0 14 -5 0z"/>
   <path id="11" class="fil3" d="M529 444l0 -27 4 0 0 4c1,-2 2,-3 3,-4 1,0 2,-1 3,-1 2,0 3,1 5,2l-2 4c-1,-1 -2,-1 -3,-1 -1,0 -2,0 -3,1 -1,1 -1,1 -1,2 -1,2 -1,4 -1,6l0 14 -5 0z"/>
   <path id="12" class="fil3" d="M565 435l5 1c-1,3 -2,5 -4,6 -2,2 -5,2 -8,2 -4,0 -7,-1 -9,-3 -3,-3 -4,-6 -4,-10 0,-5 1,-8 4,-11 2,-2 5,-4 9,-4 3,0 6,2 8,4 3,2 4,6 4,10 0,1 0,1 0,2l-20 0c0,3 1,5 2,6 2,2 4,3 6,3 2,0 3,-1 4,-2 1,0 2,-2 3,-4zm-15 -7l15 0c0,-2 -1,-4 -2,-5 -1,-2 -3,-3 -5,-3 -2,0 -4,1 -6,2 -1,2 -2,3 -2,6z"/>
   <path id="13" class="fil3" d="M575 444l0 -27 5 0 0 4c1,-3 4,-5 8,-5 2,0 3,1 5,1 1,1 2,2 3,3 0,0 1,2 1,3 0,1 0,2 0,4l0 17 -4 0 0 -16c0,-2 0,-4 -1,-5 0,-1 -1,-1 -2,-2 -1,0 -2,-1 -3,-1 -2,0 -4,1 -5,2 -1,1 -2,4 -2,7l0 15 -5 0z"/>
   <path id="14" class="fil3" d="M622 434l4 1c0,3 -1,5 -3,7 -2,2 -5,2 -8,2 -4,0 -6,-1 -9,-3 -2,-3 -3,-6 -3,-10 0,-3 0,-6 1,-8 1,-2 3,-4 5,-5 2,-1 4,-2 6,-2 3,0 5,1 7,3 2,1 3,3 4,6l-5 1c0,-2 -1,-4 -2,-5 -1,0 -2,-1 -4,-1 -2,0 -4,1 -5,3 -2,1 -2,4 -2,7 0,4 0,7 2,8 1,2 3,3 5,3 2,0 3,-1 5,-2 1,-1 2,-3 2,-5z"/>
   <path id="15" class="fil3" d="M630 454l-1 -4c1,0 2,0 3,0 1,0 2,0 3,0 0,0 1,-1 1,-2 0,0 1,-1 1,-3 1,0 1,-1 1,-1l-10 -27 4 0 6 16c1,1 1,4 2,6 1,-2 1,-4 2,-6l6 -16 4 0 -10 27c-1,3 -2,5 -3,6 0,2 -1,3 -2,4 -1,0 -3,1 -4,1 -1,0 -2,0 -3,-1z"/>
   <path class="fil4" d="M118 817l5 2c-1,3 -3,6 -5,8 -3,2 -6,3 -9,3 -4,0 -7,-1 -9,-2 -2,-2 -4,-4 -5,-7 -2,-3 -2,-6 -2,-9 0,-3 1,-6 2,-9 1,-3 3,-5 6,-6 2,-1 5,-2 8,-2 3,0 6,1 8,3 3,1 4,4 5,7l-4 1c-1,-3 -2,-4 -4,-6 -1,-1 -3,-1 -5,-1 -3,0 -5,0 -7,2 -2,1 -3,3 -3,5 -1,2 -2,4 -2,6 0,3 1,5 2,8 1,2 2,3 4,4 1,1 3,2 5,2 3,0 5,-1 7,-2 1,-2 3,-4 3,-7z"/>
   <path id="1" class="fil4" d="M144 829l0 -3c-2,2 -5,4 -8,4 -2,0 -3,0 -4,-1 -1,-1 -2,-1 -3,-2 0,-1 -1,-2 -1,-3 0,-1 0,-2 0,-4l0 -15 4 0 0 13c0,3 0,4 0,5 0,1 1,2 2,2 0,1 2,1 3,1 1,0 2,0 3,-1 1,0 2,-1 3,-2 0,-1 0,-3 0,-5l0 -13 4 0 0 24 -3 0z"/>
   <path id="2" class="fil4" d="M154 829l0 -24 4 0 0 4c1,-2 1,-3 2,-4 1,0 2,-1 3,-1 1,0 3,1 4,2l-1 3c-1,0 -2,0 -3,0 -1,0 -2,0 -3,0 0,1 -1,2 -1,3 -1,1 -1,3 -1,4l0 13 -4 0z"/>
   <path id="3" class="fil4" d="M170 829l0 -24 3 0 0 4c1,-2 2,-3 3,-4 1,0 2,-1 3,-1 1,0 2,1 4,2l-2 3c-1,0 -2,0 -3,0 -1,0 -1,0 -2,0 -1,1 -1,2 -2,3 0,1 0,3 0,4l0 13 -4 0z"/>
   <path id="4" class="fil4" d="M202 821l4 1c0,2 -2,4 -3,6 -2,1 -5,2 -7,2 -4,0 -7,-1 -9,-4 -2,-2 -3,-5 -3,-9 0,-4 1,-7 3,-9 2,-3 5,-4 8,-4 4,0 6,1 8,4 2,2 3,5 3,9 0,0 0,1 0,1l-18 0c0,3 1,5 2,6 2,2 4,2 6,2 1,0 2,0 3,-1 2,-1 2,-2 3,-4zm-14 -6l14 0c0,-2 -1,-4 -2,-5 -1,-2 -3,-2 -5,-2 -2,0 -3,0 -4,2 -2,1 -2,3 -3,5z"/>
   <path id="5" class="fil4" d="M212 829l0 -24 3 0 0 3c2,-2 5,-4 8,-4 2,0 3,1 4,1 1,1 2,1 3,2 0,1 1,2 1,3 0,1 0,2 0,4l0 15 -4 0 0 -15c0,-1 0,-3 0,-3 -1,-1 -1,-2 -2,-2 -1,-1 -2,-1 -3,-1 -2,0 -3,0 -4,2 -2,1 -2,3 -2,6l0 13 -4 0z"/>
   <path id="6" class="fil4" d="M254 820l4 1c-1,3 -2,5 -4,6 -1,2 -4,3 -6,3 -4,0 -6,-1 -8,-3 -2,-3 -3,-6 -3,-10 0,-3 0,-5 1,-7 1,-2 2,-3 4,-4 2,-1 4,-2 6,-2 2,0 5,1 6,2 2,2 3,4 3,6l-4 1c0,-2 -1,-3 -2,-4 -1,-1 -2,-1 -3,-1 -2,0 -4,0 -5,2 -2,1 -2,4 -2,7 0,3 0,6 2,7 1,2 3,2 5,2 1,0 3,0 4,-1 1,-1 1,-3 2,-5z"/>
   <path id="7" class="fil4" d="M261 839l0 -4c1,0 1,0 2,0 1,0 2,0 2,0 1,-1 1,-1 2,-2 0,0 0,-1 1,-3 0,0 0,0 0,-1l-9 -24 4 0 6 14c0,2 1,4 1,6 1,-2 1,-4 2,-6l5 -14 4 0 -9 25c-1,2 -2,4 -2,5 -1,2 -2,3 -3,3 -1,1 -2,1 -3,1 -1,0 -2,0 -3,0z"/>
   <path id="8" class="fil4" d="M292 829l13 -33 5 0 14 33 -5 0 -4 -10 -14 0 -4 10 -5 0zm10 -14l11 0 -3 -9c-1,-3 -2,-5 -2,-7 -1,2 -2,4 -2,7l-4 9z"/>
   <path id="9" class="fil4" d="M343 820l4 1c-1,3 -2,5 -3,6 -2,2 -5,3 -7,3 -4,0 -6,-1 -8,-3 -2,-3 -3,-6 -3,-10 0,-3 0,-5 1,-7 1,-2 2,-3 4,-4 2,-1 4,-2 6,-2 2,0 5,1 6,2 2,2 3,4 4,6l-4 1c-1,-2 -2,-3 -3,-4 0,-1 -2,-1 -3,-1 -2,0 -4,0 -5,2 -1,1 -2,4 -2,7 0,3 1,6 2,7 1,2 3,2 5,2 1,0 3,0 4,-1 1,-1 2,-3 2,-5z"/>
   <path id="10" class="fil4" d="M366 820l4 1c0,3 -1,5 -3,6 -2,2 -4,3 -7,3 -3,0 -6,-1 -8,-3 -2,-3 -3,-6 -3,-10 0,-3 1,-5 2,-7 0,-2 2,-3 4,-4 1,-1 3,-2 5,-2 3,0 5,1 7,2 2,2 3,4 3,6l-4 1c0,-2 -1,-3 -2,-4 -1,-1 -2,-1 -3,-1 -3,0 -4,0 -6,2 -1,1 -2,4 -2,7 0,3 1,6 2,7 2,2 3,2 5,2 2,0 3,0 4,-1 1,-1 2,-3 2,-5z"/>
   <path id="11" class="fil4" d="M372 817c0,-4 2,-8 4,-10 2,-2 5,-3 8,-3 3,0 6,1 8,4 2,2 3,5 3,9 0,3 0,5 -1,7 -1,2 -2,3 -4,4 -2,1 -4,2 -6,2 -3,0 -6,-1 -8,-3 -2,-3 -4,-6 -4,-10zm5 0c0,3 0,6 2,7 1,2 3,2 5,2 2,0 4,0 5,-2 1,-2 2,-4 2,-7 0,-3 -1,-5 -2,-7 -1,-1 -3,-2 -5,-2 -2,0 -4,0 -5,2 -2,2 -2,4 -2,7z"/>
   <path id="12" class="fil4" d="M416 829l0 -3c-2,2 -4,4 -7,4 -2,0 -3,0 -5,-1 -1,-1 -2,-1 -2,-2 -1,-1 -1,-2 -2,-3 0,-1 0,-2 0,-4l0 -15 4 0 0 13c0,3 0,4 1,5 0,1 0,2 1,2 1,1 2,1 3,1 2,0 3,0 4,-1 1,0 2,-1 2,-2 1,-1 1,-3 1,-5l0 -13 4 0 0 24 -4 0z"/>
   <path id="13" class="fil4" d="M426 829l0 -24 4 0 0 3c2,-2 5,-4 8,-4 1,0 3,1 4,1 1,1 2,1 3,2 0,1 1,2 1,3 0,1 0,2 0,4l0 15 -4 0 0 -15c0,-1 0,-3 0,-3 -1,-1 -1,-2 -2,-2 -1,-1 -2,-1 -3,-1 -2,0 -3,0 -4,2 -2,1 -2,3 -2,6l0 13 -5 0z"/>
   <path id="14" class="fil4" d="M462 826l0 3c-1,0 -2,1 -3,1 -1,0 -3,-1 -3,-1 -1,-1 -2,-1 -2,-2 0,-1 -1,-2 -1,-5l0 -14 -3 0 0 -3 3 0 0 -6 5 -3 0 9 4 0 0 3 -4 0 0 14c0,2 0,2 0,3 0,0 0,0 0,0 1,1 1,1 2,1 0,0 1,0 2,0z"/>
   <g>
    <path class="fil5" d="M1244 771l-695 0 0 -2 695 0 0 0 0 2zm12 9l-3 0 0 0 0 0 0 -1 0 0 0 -1 0 0 0 0 0 -1 0 0 -1 -1 0 0 0 -1 0 0 -1 0 0 -1 0 0 0 0 -1 -1 0 0 0 0 -1 0 0 -1 -1 0 0 0 0 0 -1 0 0 -1 -1 0 0 0 0 0 -1 0 0 0 -1 0 0 -2 1 0 0 0 1 0 0 0 1 0 1 0 0 0 1 1 0 0 1 0 0 0 1 1 0 0 0 0 1 1 0 0 1 0 0 1 0 0 1 1 0 0 0 1 1 0 0 1 0 0 0 1 0 0 0 1 1 0 0 1 0 1 0 0 0 0zm-3 74l0 -74 3 0 0 74 0 0 -3 0zm-9 12l0 -2 0 0 1 0 0 0 1 0 0 -1 0 0 1 0 0 0 1 0 0 0 0 0 1 -1 0 0 1 0 0 0 0 -1 1 0 0 0 0 -1 0 0 1 0 0 -1 0 0 0 -1 1 0 0 0 0 -1 0 0 0 -1 0 0 0 -1 0 0 0 -1 3 0 0 1 0 1 0 0 -1 1 0 0 0 1 0 0 0 1 0 0 -1 1 0 0 0 1 -1 0 0 1 0 0 -1 1 0 0 -1 0 0 1 0 0 -1 0 0 1 -1 0 0 0 -1 0 0 0 -1 1 -1 0 0 0 -1 0 0 0 -1 0 0 0zm-695 -2l695 0 0 2 -695 0 0 0 0 -2zm-11 -10l2 0 0 0 0 1 0 0 0 1 0 0 1 1 0 0 0 1 0 0 0 0 0 1 1 0 0 1 0 0 0 0 1 1 0 0 0 0 1 1 0 0 0 0 1 0 0 1 0 0 1 0 0 0 1 0 0 0 1 0 0 1 0 0 1 0 0 0 0 2 0 0 -1 0 0 0 -1 0 0 0 -1 -1 -1 0 0 0 -1 0 0 0 -1 -1 0 0 -1 0 0 -1 0 0 -1 0 0 -1 -1 0 0 -1 0 0 0 -1 -1 0 0 -1 0 0 0 -1 -1 0 0 -1 0 0 0 -1 0 0 0 -1 0 -1 0 0zm2 -74l0 74 -2 0 0 -74 0 0 2 0zm9 -11l0 2 0 0 0 0 -1 0 0 0 0 0 -1 0 0 0 -1 1 0 0 -1 0 0 0 0 0 -1 1 0 0 0 0 -1 0 0 1 0 0 -1 0 0 1 0 0 0 0 -1 1 0 0 0 1 0 0 0 1 0 0 -1 0 0 1 0 0 0 1 0 0 -2 0 0 0 0 -1 0 -1 0 0 0 -1 0 0 1 -1 0 0 0 -1 0 0 1 -1 0 0 0 -1 0 0 1 -1 0 0 1 0 0 -1 0 0 1 0 0 -1 1 0 0 0 1 0 0 -1 1 0 1 0 0 0 1 0 0 0 1 0 0 0 0 0z"/>
   </g>
   <path class="fil3" d="M561 831l10 -27 4 0 11 27 -4 0 -3 -8 -11 0 -3 8 -4 0zm8 -11l9 0 -3 -8c-1,-2 -1,-4 -2,-5 0,1 -1,3 -1,5l-3 8z"/>
   <polygon id="1" class="fil3" points="589,831 589,804 609,804 609,807 593,807 593,815 608,815 608,818 593,818 593,828 609,828 609,831 "/>
   <path id="2" class="fil3" d="M614 831l0 -27 10 0c2,0 3,0 4,0 2,1 3,1 4,2 2,1 3,3 4,5 0,2 1,4 1,6 0,2 -1,4 -1,6 -1,1 -1,3 -2,4 -1,1 -1,1 -2,2 -1,1 -2,1 -4,1 -1,1 -2,1 -4,1l-10 0zm4 -3l6 0c1,0 3,0 4,-1 1,0 2,-1 2,-1 1,-1 2,-2 2,-4 1,-1 1,-3 1,-5 0,-3 -1,-5 -1,-6 -1,-2 -2,-3 -4,-3 -1,-1 -2,-1 -4,-1l-6 0 0 21z"/>
   <path id="3" class="fil3" d="M658 839c-2,-3 -3,-5 -5,-8 -1,-3 -2,-7 -2,-10 0,-3 1,-6 2,-8 1,-3 3,-7 5,-10l2 0c-1,3 -2,5 -3,6 0,2 -1,3 -1,5 -1,2 -1,5 -1,7 0,6 2,12 5,18l-2 0z"/>
   <path id="4" class="fil3" d="M662 831l10 -27 4 0 11 27 -4 0 -3 -8 -12 0 -3 8 -3 0zm7 -11l10 0 -3 -8c-1,-2 -2,-4 -2,-5 -1,1 -1,3 -2,5l-3 8z"/>
   <path id="5" class="fil3" d="M689 831l0 -20 3 0 0 3c1,-1 2,-2 2,-2 1,-1 2,-1 3,-1 1,0 2,0 3,1l-1 3c-1,0 -2,-1 -3,-1 0,0 -1,1 -2,1 0,0 -1,1 -1,2 0,1 0,2 0,4l0 10 -4 0z"/>
   <path id="6" class="fil3" d="M715 828c-2,1 -3,2 -4,3 -1,0 -2,0 -4,0 -2,0 -3,0 -4,-1 -2,-1 -2,-3 -2,-4 0,-1 0,-2 0,-3 1,-1 1,-1 2,-2 1,0 2,-1 3,-1 0,0 1,0 2,0 3,-1 5,-1 6,-2 0,0 0,0 0,0 0,-2 0,-3 -1,-3 0,-1 -2,-1 -3,-1 -2,0 -3,0 -4,0 -1,1 -1,2 -1,3l-4 0c1,-1 1,-3 2,-3 0,-1 1,-2 3,-2 1,-1 3,-1 4,-1 2,0 3,0 4,0 1,1 2,1 3,2 0,1 0,1 1,2 0,1 0,2 0,3l0 5c0,3 0,5 0,5 0,1 0,2 1,3l-4 0c0,-1 0,-2 0,-3zm-1 -7c-1,1 -3,1 -5,1 -1,0 -2,1 -3,1 0,0 -1,1 -1,1 -1,0 -1,1 -1,2 0,0 1,1 1,2 1,0 2,1 3,1 2,0 3,-1 4,-1 1,-1 1,-1 2,-2 0,-1 0,-2 0,-4l0 -1z"/>
   <path id="7" class="fil3" d="M726 831l-3 0 0 -27 3 0 0 9c2,-1 3,-2 6,-2 1,0 2,0 3,1 1,0 2,1 3,2 0,1 1,2 1,3 1,1 1,2 1,4 0,3 -1,6 -3,8 -1,1 -3,2 -6,2 -2,0 -4,-1 -5,-3l0 3zm0 -10c0,2 0,4 1,5 1,2 2,3 4,3 2,0 3,-1 4,-2 1,-2 1,-3 1,-6 0,-3 0,-4 -1,-6 -1,-1 -2,-1 -4,-1 -1,0 -2,0 -4,1 -1,2 -1,4 -1,6z"/>
   <polygon id="8" class="fil3" points="755,831 755,804 774,804 774,807 758,807 758,815 773,815 773,818 758,818 758,828 775,828 775,831 "/>
   <path id="9" class="fil3" d="M780 831l0 -20 2 0 0 3c1,-1 2,-2 3,-2 1,-1 2,-1 3,-1 2,0 3,0 4,1 1,0 2,1 2,2 1,-2 4,-3 6,-3 2,0 3,0 4,1 2,2 2,3 2,5l0 14 -3 0 0 -12c0,-2 0,-3 -1,-3 0,-1 0,-1 -1,-2 0,0 -1,0 -2,0 -1,0 -2,0 -3,1 -1,1 -2,2 -2,4l0 12 -3 0 0 -13c0,-1 0,-2 -1,-3 0,-1 -1,-1 -2,-1 -1,0 -2,0 -3,0 -1,1 -1,2 -2,3 0,1 0,2 0,4l0 10 -3 0z"/>
   <path id="10" class="fil3" d="M811 808l0 -4 3 0 0 4 -3 0zm0 23l0 -20 3 0 0 20 -3 0z"/>
   <path id="11" class="fil3" d="M819 831l0 -20 3 0 0 3c1,-1 2,-2 2,-2 1,-1 2,-1 3,-1 1,0 2,0 3,1l-1 3c-1,0 -2,-1 -3,-1 0,0 -1,1 -2,1 0,0 -1,1 -1,2 0,1 0,2 0,4l0 10 -4 0z"/>
   <path id="12" class="fil3" d="M845 828c-2,1 -3,2 -4,3 -1,0 -2,0 -4,0 -2,0 -3,0 -5,-1 -1,-1 -1,-3 -1,-4 0,-1 0,-2 0,-3 1,-1 1,-1 2,-2 1,0 2,-1 3,-1 0,0 1,0 2,0 3,-1 5,-1 6,-2 0,0 0,0 0,0 0,-2 0,-3 -1,-3 0,-1 -2,-1 -3,-1 -2,0 -3,0 -4,0 -1,1 -1,2 -1,3l-4 0c1,-1 1,-3 2,-3 0,-1 1,-2 3,-2 1,-1 2,-1 4,-1 2,0 3,0 4,0 1,1 2,1 3,2 0,1 0,1 1,2 0,1 0,2 0,3l0 5c0,3 0,5 0,5 0,1 0,2 1,3l-4 0c0,-1 0,-2 0,-3zm-1 -7c-1,1 -3,1 -5,1 -1,0 -2,1 -3,1 0,0 -1,1 -1,1 -1,0 -1,1 -1,2 0,0 1,1 1,2 1,0 2,1 3,1 2,0 3,-1 4,-1 1,-1 1,-1 2,-2 0,-1 0,-2 0,-4l0 -1z"/>
   <path id="13" class="fil3" d="M860 828l1 3c-1,0 -2,0 -3,0 -1,0 -2,0 -3,0 0,-1 -1,-1 -1,-2 0,-1 -1,-2 -1,-4l0 -11 -2 0 0 -3 2 0 0 -5 4 -2 0 7 3 0 0 3 -3 0 0 11c0,1 0,2 0,2 0,0 0,1 0,1 1,0 1,0 2,0 0,0 0,0 1,0z"/>
   <path id="14" class="fil3" d="M877 825l3 0c0,2 -1,4 -3,5 -1,1 -3,1 -5,1 -3,0 -6,-1 -7,-2 -2,-2 -3,-5 -3,-8 0,-3 1,-6 3,-7 1,-2 4,-3 6,-3 3,0 5,1 7,3 1,1 2,4 2,7 0,0 0,1 0,1l-14 0c0,2 0,4 1,5 2,1 3,2 5,2 1,0 2,-1 3,-1 1,-1 1,-2 2,-3zm-11 -6l11 0c0,-1 -1,-3 -2,-4 -1,-1 -2,-1 -4,-1 -1,0 -2,0 -3,1 -1,1 -2,2 -2,4z"/>
   <path id="15" class="fil3" d="M883 825l3 -1c0,2 1,3 2,4 1,0 2,1 3,1 2,0 3,-1 4,-1 1,-1 1,-2 1,-3 0,0 0,-1 -1,-1 -1,-1 -2,-1 -4,-1 -2,-1 -4,-2 -5,-2 -1,0 -1,-1 -2,-2 0,-1 0,-2 0,-3 0,0 0,-1 0,-2 1,-1 1,-1 2,-2 0,0 1,0 2,-1 1,0 2,0 3,0 1,0 3,0 4,1 1,0 2,1 2,1 1,1 1,2 2,3l-4 1c0,-1 0,-2 -1,-3 -1,0 -2,0 -3,0 -2,0 -3,0 -3,0 -1,1 -1,1 -1,2 0,1 0,1 0,1 0,1 1,1 1,1 1,0 2,1 3,1 3,1 4,1 5,2 1,0 2,1 2,1 1,1 1,2 1,3 0,1 0,2 -1,3 0,1 -1,2 -2,2 -2,1 -3,1 -5,1 -2,0 -4,0 -5,-1 -2,-1 -3,-3 -3,-5z"/>
   <path id="16" class="fil3" d="M914 831l0 -27 9 0c2,0 4,0 5,0 2,1 3,1 4,2 2,1 3,3 3,5 1,2 1,4 1,6 0,2 0,4 0,6 -1,1 -1,3 -2,4 -1,1 -2,1 -3,2 0,1 -2,1 -3,1 -1,1 -3,1 -4,1l-10 0zm4 -3l5 0c2,0 4,0 5,-1 1,0 1,-1 2,-1 1,-1 2,-2 2,-4 0,-1 1,-3 1,-5 0,-3 -1,-5 -2,-6 -1,-2 -2,-3 -3,-3 -1,-1 -3,-1 -5,-1l-5 0 0 21z"/>
   <path id="17" class="fil3" d="M941 808l0 -4 3 0 0 4 -3 0zm0 23l0 -20 3 0 0 20 -3 0z"/>
   <path id="18" class="fil3" d="M949 831l0 -20 3 0 0 3c1,-1 2,-2 2,-2 1,-1 2,-1 2,-1 2,0 3,0 4,1l-1 3c-1,0 -2,-1 -3,-1 0,0 -1,1 -2,1 0,0 -1,1 -1,2 0,1 0,2 0,4l0 10 -4 0z"/>
   <path id="19" class="fil3" d="M962 831l0 -27 3 0 0 10c2,-2 4,-3 6,-3 1,0 3,0 4,1 1,0 2,1 2,2 1,1 1,3 1,4l0 13 -4 0 0 -13c0,-1 0,-2 -1,-3 0,-1 -1,-1 -3,-1 -1,0 -2,0 -2,0 -1,1 -2,2 -2,3 -1,0 -1,2 -1,3l0 11 -3 0z"/>
   <path id="20" class="fil3" d="M996 828c-2,1 -3,2 -4,3 -1,0 -2,0 -4,0 -2,0 -3,0 -5,-1 -1,-1 -1,-3 -1,-4 0,-1 0,-2 0,-3 1,-1 1,-1 2,-2 1,0 2,-1 2,-1 1,0 2,0 3,0 3,-1 5,-1 6,-2 0,0 0,0 0,0 0,-2 0,-3 -1,-3 0,-1 -2,-1 -3,-1 -2,0 -3,0 -4,0 -1,1 -1,2 -1,3l-4 0c1,-1 1,-3 2,-3 0,-1 1,-2 3,-2 1,-1 2,-1 4,-1 2,0 3,0 4,0 1,1 2,1 3,2 0,1 0,1 1,2 0,1 0,2 0,3l0 5c0,3 0,5 0,5 0,1 0,2 1,3l-4 0c0,-1 0,-2 0,-3zm-1 -7c-1,1 -3,1 -5,1 -1,0 -2,1 -3,1 -1,0 -1,1 -1,1 -1,0 -1,1 -1,2 0,0 1,1 1,2 1,0 2,1 3,1 1,0 3,-1 4,-1 1,-1 1,-1 2,-2 0,-1 0,-2 0,-4l0 -1z"/>
   <path id="21" class="fil3" d="M1004 831l0 -20 3 0 0 3c0,-1 1,-2 2,-2 1,-1 2,-1 4,-1 1,0 2,0 3,1 1,0 2,1 2,2 2,-2 4,-3 6,-3 2,0 4,0 5,1 1,2 1,3 1,5l0 14 -3 0 0 -12c0,-2 0,-3 0,-3 0,-1 -1,-1 -1,-2 -1,0 -2,0 -2,0 -2,0 -3,0 -4,1 -1,1 -1,2 -1,4l0 12 -4 0 0 -13c0,-1 0,-2 0,-3 -1,-1 -2,-1 -3,-1 -1,0 -2,0 -3,0 0,1 -1,2 -1,3 -1,1 -1,2 -1,4l0 10 -3 0z"/>
   <path id="22" class="fil3" d="M1037 839l-2 0c4,-6 6,-12 6,-18 0,-2 -1,-5 -1,-7 -1,-2 -1,-3 -2,-5 0,-1 -1,-3 -3,-6l2 0c3,3 4,7 6,10 0,2 1,5 1,8 0,3 -1,7 -2,10 -1,3 -3,5 -5,8z"/>
   <rect class="fil6" x="539" y="608" width="715.454" height="94.9602" rx="19" ry="10"/>
   <path class="fil4" d="M118 655l5 2c-1,3 -3,6 -5,8 -3,2 -6,3 -9,3 -4,0 -7,-1 -9,-2 -2,-2 -4,-4 -5,-7 -2,-3 -2,-6 -2,-9 0,-3 1,-6 2,-9 1,-3 3,-5 6,-6 2,-1 5,-2 8,-2 3,0 6,1 8,2 3,2 4,5 5,8l-4 1c-1,-3 -2,-4 -4,-6 -1,-1 -3,-1 -5,-1 -3,0 -5,0 -7,2 -2,1 -3,3 -3,5 -1,2 -2,4 -2,6 0,3 1,5 2,8 1,2 2,3 4,4 1,1 3,2 5,2 3,0 5,-1 7,-2 1,-2 3,-4 3,-7z"/>
   <path id="1" class="fil4" d="M144 667l0 -3c-2,2 -5,4 -8,4 -2,0 -3,-1 -4,-1 -1,-1 -2,-1 -3,-2 0,-1 -1,-2 -1,-3 0,-1 0,-2 0,-4l0 -15 4 0 0 13c0,2 0,4 0,5 0,1 1,2 2,2 0,1 2,1 3,1 1,0 2,0 3,-1 1,0 2,-1 3,-2 0,-1 0,-3 0,-5l0 -13 4 0 0 24 -3 0z"/>
   <path id="2" class="fil4" d="M154 667l0 -24 4 0 0 4c1,-2 1,-3 2,-4 1,0 2,-1 3,-1 1,0 3,1 4,2l-1 3c-1,0 -2,0 -3,0 -1,0 -2,0 -3,0 0,1 -1,2 -1,3 -1,1 -1,3 -1,4l0 13 -4 0z"/>
   <path id="3" class="fil4" d="M170 667l0 -24 3 0 0 4c1,-2 2,-3 3,-4 1,0 2,-1 3,-1 1,0 2,1 4,2l-2 3c-1,0 -2,0 -3,0 -1,0 -1,0 -2,0 -1,1 -1,2 -2,3 0,1 0,3 0,4l0 13 -4 0z"/>
   <path id="4" class="fil4" d="M202 659l4 1c0,2 -2,4 -3,6 -2,1 -5,2 -7,2 -4,0 -7,-1 -9,-4 -2,-2 -3,-5 -3,-9 0,-4 1,-7 3,-9 2,-3 5,-4 8,-4 4,0 6,1 8,4 2,2 3,5 3,9 0,0 0,1 0,1l-18 0c0,3 1,5 2,6 2,2 4,2 6,2 1,0 2,0 3,-1 2,-1 2,-2 3,-4zm-14 -6l14 0c0,-2 -1,-4 -2,-5 -1,-2 -3,-2 -5,-2 -2,0 -3,0 -4,2 -2,1 -2,3 -3,5z"/>
   <path id="5" class="fil4" d="M212 667l0 -24 3 0 0 3c2,-2 5,-4 8,-4 2,0 3,1 4,1 1,1 2,1 3,2 0,1 1,2 1,3 0,1 0,2 0,4l0 15 -4 0 0 -15c0,-1 0,-3 0,-3 -1,-1 -1,-2 -2,-2 -1,-1 -2,-1 -3,-1 -2,0 -3,0 -4,2 -2,1 -2,3 -2,6l0 13 -4 0z"/>
   <path id="6" class="fil4" d="M254 658l4 1c-1,3 -2,5 -4,6 -1,2 -4,3 -6,3 -4,0 -6,-1 -8,-4 -2,-2 -3,-5 -3,-9 0,-3 0,-5 1,-7 1,-2 2,-3 4,-4 2,-1 4,-2 6,-2 2,0 5,1 6,2 2,2 3,4 3,6l-4 1c0,-2 -1,-3 -2,-4 -1,-1 -2,-1 -3,-1 -2,0 -4,0 -5,2 -2,1 -2,4 -2,7 0,3 0,6 2,7 1,2 3,2 5,2 1,0 3,0 4,-1 1,-1 1,-3 2,-5z"/>
   <path id="7" class="fil4" d="M261 677l0 -4c1,0 1,0 2,0 1,0 2,0 2,0 1,-1 1,-1 2,-2 0,0 0,-1 1,-3 0,0 0,0 0,-1l-9 -24 4 0 6 14c0,2 1,4 1,6 1,-2 1,-4 2,-6l5 -14 4 0 -9 25c-1,2 -2,4 -2,5 -1,2 -2,3 -3,3 -1,1 -2,1 -3,1 -1,0 -2,0 -3,0z"/>
   <path id="8" class="fil4" d="M323 655l4 2c-1,3 -3,6 -5,8 -2,2 -5,3 -9,3 -4,0 -6,-1 -9,-2 -2,-2 -4,-4 -5,-7 -1,-3 -2,-6 -2,-9 0,-3 1,-6 2,-9 2,-3 4,-5 6,-6 2,-1 5,-2 8,-2 4,0 6,1 9,2 2,2 4,5 5,8l-5 1c-1,-3 -2,-4 -3,-6 -2,-1 -4,-1 -6,-1 -2,0 -5,0 -6,2 -2,1 -3,3 -4,5 -1,2 -1,4 -1,6 0,3 0,5 1,8 1,2 2,3 4,4 2,1 4,2 6,2 2,0 4,-1 6,-2 2,-2 3,-4 4,-7z"/>
   <path id="9" class="fil4" d="M331 655c0,-5 1,-8 3,-10 2,-2 5,-3 8,-3 3,0 6,1 8,4 2,2 3,5 3,9 0,3 0,5 -1,7 -1,2 -2,3 -4,4 -2,1 -4,2 -6,2 -3,0 -6,-1 -8,-4 -2,-2 -3,-5 -3,-9zm4 0c0,3 0,5 2,7 1,2 3,2 5,2 2,0 4,0 5,-2 2,-2 2,-4 2,-7 0,-3 0,-5 -2,-7 -1,-2 -3,-2 -5,-2 -2,0 -4,0 -5,2 -2,2 -2,4 -2,7z"/>
   <path id="10" class="fil4" d="M358 667l0 -24 4 0 0 3c1,-1 2,-2 3,-3 1,0 3,-1 4,-1 2,0 4,1 5,1 1,1 2,2 2,4 2,-3 5,-5 8,-5 2,0 4,1 6,2 1,2 2,4 2,6l0 17 -5 0 0 -15c0,-2 0,-3 0,-4 0,0 -1,-1 -2,-2 0,0 -1,0 -2,0 -2,0 -3,0 -4,2 -1,1 -2,3 -2,5l0 14 -4 0 0 -16c0,-1 -1,-3 -1,-4 -1,-1 -2,-1 -4,-1 -1,0 -2,0 -3,1 -1,0 -1,1 -2,2 0,2 -1,3 -1,6l0 12 -4 0z"/>
   <path id="11" class="fil4" d="M398 677l0 -34 3 0 0 3c1,-1 2,-2 3,-3 1,0 3,-1 4,-1 3,0 4,1 6,2 2,1 3,2 4,4 0,2 1,4 1,7 0,2 -1,5 -2,7 0,2 -2,3 -3,4 -2,1 -4,2 -6,2 -1,0 -2,-1 -4,-1 -1,-1 -2,-1 -2,-2l0 12 -4 0zm3 -22c0,3 1,6 2,7 2,2 3,2 5,2 2,0 3,0 5,-2 1,-2 2,-4 2,-7 0,-3 -1,-6 -2,-7 -2,-2 -3,-2 -5,-2 -2,0 -3,0 -5,2 -1,2 -2,4 -2,7z"/>
   <path id="12" class="fil4" d="M440 664c-2,1 -3,2 -5,3 -1,0 -3,1 -4,1 -3,0 -5,-1 -6,-2 -2,-2 -3,-3 -3,-5 0,-1 1,-3 1,-3 1,-1 1,-2 2,-3 1,0 2,-1 3,-1 1,0 2,-1 4,-1 3,0 6,-1 7,-1 0,-1 0,-1 0,-1 0,-2 0,-3 -1,-4 -1,-1 -2,-1 -4,-1 -2,0 -4,0 -5,1 -1,0 -1,2 -2,3l-4 0c0,-2 1,-3 2,-4 1,-1 2,-2 4,-3 1,0 3,-1 5,-1 2,0 4,0 5,1 2,0 3,1 3,2 1,1 1,2 1,3 1,0 1,2 1,3l0 6c0,4 0,6 0,7 0,1 0,2 1,3l-4 0c-1,-1 -1,-2 -1,-3zm-1 -9c-1,1 -3,1 -6,2 -2,0 -3,0 -4,0 -1,1 -1,1 -2,2 0,0 0,1 0,2 0,1 0,2 1,2 1,1 2,2 4,2 1,0 3,-1 4,-2 1,0 2,-1 3,-2 0,-1 0,-3 0,-5l0 -1z"/>
   <path id="13" class="fil4" d="M450 667l0 -24 4 0 0 3c2,-2 4,-4 8,-4 1,0 2,1 4,1 1,1 2,1 2,2 1,1 1,2 2,3 0,1 0,2 0,4l0 15 -4 0 0 -15c0,-1 0,-3 -1,-3 0,-1 -1,-2 -1,-2 -1,-1 -2,-1 -3,-1 -2,0 -4,0 -5,2 -1,1 -2,3 -2,6l0 13 -4 0z"/>
   <path id="14" class="fil4" d="M476 677l0 -4c1,0 1,0 2,0 1,0 2,0 2,0 1,-1 1,-1 2,-2 0,0 0,-1 1,-3 0,0 0,0 0,-1l-9 -24 4 0 5 14c1,2 2,4 2,6 1,-2 1,-4 2,-6l5 -14 4 0 -9 25c-1,2 -2,4 -2,5 -1,2 -2,3 -3,3 -1,1 -2,1 -3,1 -1,0 -2,0 -3,0z"/>
   <polygon class="fil3" points="565,665 565,638 568,638 568,665 "/>
   <polygon id="1" class="fil3" points="574,665 574,638 578,638 592,659 592,638 596,638 596,665 592,665 578,644 578,665 "/>
   <path id="2" class="fil3" d="M602 665l0 -27 12 0c2,0 4,0 5,1 2,0 3,1 3,2 1,1 1,3 1,4 0,2 0,4 -1,5 -2,1 -4,2 -6,2 1,1 1,1 2,2 1,1 2,2 3,3l5 8 -5 0 -3 -6c-2,-1 -2,-3 -3,-4 -1,0 -1,-1 -2,-1 0,-1 -1,-1 -1,-1 -1,0 -2,0 -2,0l-5 0 0 12 -3 0zm3 -15l8 0c2,0 3,0 4,-1 1,0 1,-1 2,-1 0,-1 1,-2 1,-3 0,-1 -1,-2 -2,-3 -1,-1 -2,-1 -4,-1l-9 0 0 9z"/>
   <path id="3" class="fil3" d="M645 673c-1,-3 -3,-5 -4,-8 -2,-3 -2,-7 -2,-10 0,-3 0,-6 1,-8 1,-3 3,-7 5,-10l3 0c-2,3 -3,5 -3,6 -1,1 -2,3 -2,5 -1,2 -1,5 -1,7 0,6 2,12 6,18l-3 0z"/>
   <polygon id="4" class="fil3" points="653,665 653,638 656,638 656,665 "/>
   <path id="5" class="fil3" d="M662 665l0 -20 3 0 0 3c1,-2 4,-3 6,-3 1,0 3,0 4,0 1,1 1,1 2,2 0,1 1,2 1,3 0,0 0,1 0,3l0 12 -3 0 0 -12c0,-1 0,-2 -1,-3 0,-1 0,-1 -1,-2 -1,0 -2,0 -2,0 -2,0 -3,0 -4,1 -1,1 -2,3 -2,5l0 11 -3 0z"/>
   <path id="6" class="fil3" d="M696 665l0 -3c-2,2 -3,3 -6,3 -1,0 -3,0 -4,-1 -1,-1 -2,-2 -3,-4 -1,-1 -1,-3 -1,-5 0,-2 0,-4 1,-5 0,-2 1,-3 3,-4 1,-1 2,-1 4,-1 1,0 2,0 3,1 1,0 2,1 2,1l0 -9 4 0 0 27 -3 0zm-11 -10c0,3 1,4 2,6 1,1 2,1 4,1 1,0 2,0 3,-1 1,-1 2,-3 2,-6 0,-2 -1,-4 -2,-6 -1,-1 -2,-1 -4,-1 -1,0 -2,0 -3,1 -1,2 -2,3 -2,6z"/>
   <path id="7" class="fil3" d="M704 642l0 -4 3 0 0 4 -3 0zm0 23l0 -20 3 0 0 20 -3 0z"/>
   <path id="8" class="fil3" d="M725 662c-1,1 -2,2 -3,3 -1,0 -3,0 -4,0 -2,0 -4,0 -5,-1 -1,-1 -2,-3 -2,-4 0,-1 1,-2 1,-3 0,-1 1,-1 2,-2 0,0 1,-1 2,-1 1,0 2,0 3,0 3,-1 5,-1 6,-2 0,0 0,0 0,0 0,-2 0,-3 -1,-3 -1,-1 -2,-1 -4,-1 -1,0 -3,0 -3,0 -1,1 -2,2 -2,3l-3 0c0,-2 1,-3 1,-4 1,0 2,-1 3,-2 2,0 3,0 5,0 1,0 3,0 4,0 1,1 2,1 2,2 1,0 1,1 1,2 0,1 0,2 0,3l0 5c0,3 0,5 1,5 0,1 0,2 0,3l-3 0c0,-1 -1,-2 -1,-3zm0 -7c-1,0 -3,1 -5,1 -2,0 -3,1 -3,1 -1,0 -1,0 -2,1 0,0 0,1 0,2 0,0 0,1 1,2 1,0 1,1 3,1 1,0 2,-1 3,-1 1,-1 2,-2 2,-3 1,0 1,-1 1,-3l0 -1z"/>
   <path id="9" class="fil3" d="M733 665l0 -20 3 0 0 3c2,-2 4,-3 7,-3 1,0 2,0 3,0 1,1 2,1 2,2 1,1 1,2 1,3 0,0 0,1 0,3l0 12 -3 0 0 -12c0,-1 0,-2 0,-3 -1,-1 -1,-1 -2,-2 0,0 -1,0 -2,0 -2,0 -3,0 -4,1 -1,1 -1,3 -1,5l0 11 -4 0z"/>
   <path id="10" class="fil3" d="M765 665l0 -27 12 0c3,0 5,0 6,1 1,0 2,1 3,2 1,1 1,3 1,4 0,2 -1,4 -2,5 -1,1 -3,2 -6,2 1,1 2,1 2,2 2,1 3,2 3,3l5 8 -4 0 -4 -6c-1,-1 -2,-3 -2,-4 -1,0 -2,-1 -2,-1 -1,-1 -1,-1 -2,-1 0,0 -1,0 -2,0l-4 0 0 12 -4 0zm4 -15l8 0c1,0 3,0 3,-1 1,0 2,-1 3,-1 0,-1 0,-2 0,-3 0,-1 0,-2 -1,-3 -1,-1 -3,-1 -5,-1l-8 0 0 9z"/>
   <path id="11" class="fil3" d="M805 665l0 -3c-2,2 -4,3 -6,3 -1,0 -3,0 -4,0 -1,-1 -1,-1 -2,-2 0,-1 -1,-2 -1,-3 0,0 0,-1 0,-3l0 -12 3 0 0 11c0,2 0,3 1,4 0,0 0,1 1,2 1,0 1,0 2,0 1,0 2,0 3,0 1,-1 2,-2 2,-2 0,-1 1,-3 1,-4l0 -11 3 0 0 20 -3 0z"/>
   <path id="12" class="fil3" d="M813 672l0 -27 3 0 0 3c1,-1 2,-2 3,-2 0,-1 1,-1 3,-1 1,0 3,0 4,1 1,1 2,2 3,4 1,1 1,3 1,5 0,2 0,4 -1,5 -1,2 -2,3 -3,4 -2,1 -3,1 -4,1 -2,0 -3,0 -3,0 -1,-1 -2,-2 -3,-2l0 9 -3 0zm3 -17c0,3 1,4 2,6 1,1 2,1 3,1 2,0 3,0 4,-1 1,-2 2,-4 2,-6 0,-3 -1,-5 -2,-6 -1,-1 -2,-2 -4,-2 -1,0 -2,1 -3,2 -1,2 -2,4 -2,6z"/>
   <path id="13" class="fil3" d="M847 658l4 1c-1,2 -2,3 -3,5 -2,1 -3,1 -6,1 -3,0 -5,-1 -7,-2 -1,-2 -2,-5 -2,-8 0,-3 1,-6 3,-7 1,-2 3,-3 6,-3 3,0 5,1 6,2 2,2 3,5 3,8 0,0 0,0 0,1l-15 0c0,2 1,4 2,5 1,1 3,1 4,1 1,0 3,0 3,0 1,-1 2,-2 2,-4zm-10 -5l10 0c0,-2 0,-3 -1,-4 -1,-1 -2,-1 -4,-1 -1,0 -3,0 -4,1 -1,1 -1,2 -1,4z"/>
   <path id="14" class="fil3" d="M868 658l4 1c-1,2 -2,3 -3,5 -2,1 -3,1 -6,1 -3,0 -5,-1 -7,-2 -1,-2 -2,-5 -2,-8 0,-3 1,-6 2,-7 2,-2 4,-3 7,-3 3,0 5,1 6,2 2,2 3,5 3,8 0,0 0,0 0,1l-15 0c0,2 1,4 2,5 1,1 3,1 4,1 1,0 2,0 3,0 1,-1 2,-2 2,-4zm-10 -5l10 0c0,-2 0,-3 -1,-4 -1,-1 -2,-1 -4,-1 -1,0 -3,0 -4,1 -1,1 -1,2 -1,4z"/>
   <path id="15" class="fil3" d="M878 673l-2 0c4,-6 5,-12 5,-18 0,-2 0,-5 0,-7 -1,-2 -1,-3 -2,-5 -1,-1 -2,-3 -3,-6l2 0c3,3 4,7 5,10 1,2 2,5 2,8 0,3 -1,7 -2,10 -1,3 -3,5 -5,8z"/>
   <g>
    <path class="fil7" d="M101 383l85 0c6,0 10,5 10,10l0 75c0,5 -4,10 -10,10l-85 0c-6,0 -11,-5 -11,-10l0 -75c0,-5 5,-10 11,-10z"/>
    <path id="1" class="fil2" d="M186 384l-85 0 0 -2 85 0 0 0 0 2zm11 9l-2 0 0 0 0 0 0 -1 0 0 0 -1 0 0 0 0 -1 -1 0 0 0 -1 0 0 0 0 -1 -1 0 0 0 0 0 -1 -1 0 0 0 0 -1 -1 0 0 0 0 -1 -1 0 0 0 -1 0 0 0 0 0 -1 -1 0 0 -1 0 0 0 -1 0 0 0 0 -2 0 0 1 0 1 0 0 0 1 0 0 0 1 0 0 1 1 0 0 0 1 0 0 1 1 0 0 0 1 1 0 0 0 1 1 0 0 0 0 1 1 0 0 1 0 0 0 1 1 0 0 1 0 0 0 1 0 1 0 0 0 1 0 0 0 0zm-2 75l0 -75 2 0 0 75 0 0 -2 0zm-9 11l0 -2 0 0 0 0 1 0 0 0 1 0 0 -1 1 0 0 0 0 0 1 0 0 0 1 -1 0 0 0 0 1 0 0 -1 0 0 1 0 0 -1 0 0 0 0 1 -1 0 0 0 0 0 -1 0 0 1 -1 0 0 0 -1 0 0 0 -1 0 0 0 0 2 0 0 0 0 1 0 0 0 1 0 0 0 1 0 1 -1 0 0 1 0 0 0 1 -1 0 0 0 0 1 -1 0 0 1 0 0 -1 0 0 1 -1 0 0 0 -1 1 0 0 -1 0 0 0 -1 1 0 0 -1 0 0 0 -1 0 -1 0 0 0 0 0zm-85 -2l85 0 0 2 -85 0 0 0 0 -2zm-12 -9l3 0 0 0 0 0 0 0 0 1 0 0 0 1 0 0 0 1 0 0 1 1 0 0 0 0 0 1 0 0 1 0 0 1 0 0 1 0 0 1 0 0 1 0 0 0 0 1 1 0 0 0 1 0 0 0 1 0 0 1 0 0 1 0 0 0 1 0 0 2 -1 0 0 0 -1 0 -1 0 0 0 -1 0 0 -1 -1 0 0 0 -1 0 0 -1 -1 0 0 0 -1 -1 0 0 0 0 -1 -1 0 0 0 -1 -1 0 0 0 0 -1 -1 0 0 -1 0 0 0 -1 0 -1 0 0 -1 -1 0 0 0 -1 0 0 0 0zm3 -75l0 75 -3 0 0 -75 0 0 3 0zm9 -11l0 2 0 0 -1 0 0 0 -1 0 0 0 0 0 -1 1 0 0 -1 0 0 0 -1 0 0 0 0 1 -1 0 0 0 0 1 -1 0 0 0 0 1 -1 0 0 0 0 1 0 0 0 0 -1 1 0 0 0 1 0 0 0 0 0 1 0 0 0 1 0 0 -3 0 0 0 0 -1 0 0 1 -1 0 -1 0 0 0 -1 0 0 0 -1 1 0 0 -1 0 0 1 -1 0 0 0 0 1 -1 0 0 0 -1 1 0 0 0 1 -1 0 0 1 0 0 0 1 -1 0 0 1 0 0 0 1 0 1 0 0 0 1 0 0 0z"/>
   </g>
   <polygon class="fil2" points="172,409 134,446 115,426 112,430 134,452 175,412 "/>
  </g>
  <g>
   <circle class="fil0" cx="1354" cy="164" r="164"/>
   <path class="fil8" d="M1402 123c-1,-1 -2,-1 -3,-1l-18 0c-1,-6 -4,-11 -7,-16l25 0c1,0 2,0 2,-1 1,0 1,-1 1,-2l0 -11c0,-1 0,-2 -1,-3 0,0 -1,-1 -2,-1l-90 0c-1,0 -1,1 -2,1 -1,1 -1,2 -1,3l0 14c0,1 0,2 1,3 1,0 1,1 2,1l16 0c15,0 25,4 29,12l-45 0c-1,0 -1,0 -2,1 -1,0 -1,1 -1,2l0 11c0,1 0,2 1,3 1,0 1,1 2,1l46 0c-1,6 -5,10 -11,13 -5,3 -13,5 -23,5l-12 0c-1,0 -1,0 -2,1 -1,0 -1,1 -1,2l0 14c0,1 0,2 1,2 14,15 32,35 54,62 0,0 1,1 2,1l21 0c2,0 3,-1 3,-2 1,-1 1,-3 0,-4 -21,-25 -38,-45 -49,-57 12,-2 22,-6 29,-12 8,-7 12,-15 14,-25l18 0c1,0 2,-1 3,-1 0,-1 1,-2 1,-3l0 -11c0,-1 -1,-2 -1,-2z"/>
  </g>
 </g>
</svg>
