<?xml version="1.0" encoding="UTF-8"?>
<!DOCTYPE svg PUBLIC "-//W3C//DTD SVG 1.1//EN" "http://www.w3.org/Graphics/SVG/1.1/DTD/svg11.dtd">
<!-- Creator: CorelDRAW X8 -->
<svg xmlns="http://www.w3.org/2000/svg" xml:space="preserve" width="4.37029in" height="3in" version="1.1" style="shape-rendering:geometricPrecision; text-rendering:geometricPrecision; image-rendering:optimizeQuality; fill-rule:evenodd; clip-rule:evenodd"
viewBox="0 0 869 596"
 xmlns:xlink="http://www.w3.org/1999/xlink">
 <defs>
  <style type="text/css">
   <![CDATA[
    .fil6 {fill:#FEFEFE}
    .fil0 {fill:#1A237E}
    .fil3 {fill:#E8E8E8}
    .fil5 {fill:#FEFEFE;fill-rule:nonzero}
    .fil4 {fill:#A9ABAE;fill-rule:nonzero}
    .fil2 {fill:#606062;fill-rule:nonzero}
    .fil1 {fill:#1A237E;fill-rule:nonzero}
   ]]>
  </style>
 </defs>
 <g id="Layer_x0020_1">
  <metadata id="CorelCorpID_0Corel-Layer"/>
  <g id="_2490692084912">
   <path class="fil0" d="M766 76l-737 0c-16,0 -29,13 -29,30l0 461c0,16 13,29 29,29l737 0c16,0 29,-13 29,-29l0 -461c0,-17 -13,-30 -29,-30zm2 466c-1,16 -14,29 -31,29l-679 0c-17,0 -30,-13 -31,-29l0 -412c1,-17 14,-30 31,-30l680 0c16,0 30,13 30,30l0 412 0 0z"/>
   <g>
    <polygon class="fil1" points="742,196 49,198 49,197 742,194 "/>
   </g>
   <polygon class="fil1" points="57,163 57,147 51,147 51,144 66,144 66,147 60,147 60,163 "/>
   <path id="1" class="fil1" d="M71 163l-4 0 0 -14 3 0 0 2c1,-1 2,-2 2,-2 0,0 1,0 2,0 0,0 1,0 2,0l-1 4c-1,-1 -1,-1 -2,-1 0,0 -1,0 -1,0 -1,1 -1,1 -1,2 0,1 0,2 0,5l0 4z"/>
   <path id="2" class="fil1" d="M78 147l0 -3 3 0 0 3 -3 0zm0 16l0 -14 3 0 0 14 -3 0z"/>
   <path id="3" class="fil1" d="M88 153l-3 0c0,-2 1,-3 2,-3 0,-1 2,-1 4,-1 1,0 3,0 3,0 1,1 2,1 2,2 0,0 1,1 1,3l-1 4c0,2 1,2 1,3 0,1 0,1 0,2l-3 0c0,0 -1,-1 -1,-1 0,0 0,-1 0,-1 0,1 -1,1 -2,2 -1,0 -1,0 -2,0 -2,0 -3,0 -4,-1 0,-1 -1,-2 -1,-3 0,-1 0,-1 1,-2 0,-1 1,-1 1,-1 1,-1 2,-1 3,-1 2,-1 3,-1 4,-1l0 -1c0,0 0,-1 -1,-1 0,0 -1,-1 -2,-1 0,0 -1,1 -1,1 -1,0 -1,1 -1,1zm5 3c-1,0 -1,1 -2,1 -1,0 -2,0 -2,0 -1,1 -1,1 -1,2 0,0 0,1 0,1 1,0 1,1 2,1 1,0 1,-1 2,-1 0,0 1,-1 1,-1 0,-1 0,-1 0,-2l0 -1z"/>
   <polygon id="4" class="fil1" points="100,163 100,144 104,144 104,163 "/>
   <path id="5" class="fil1" d="M115 144l8 0c1,0 3,0 3,0 1,0 2,0 2,1 1,0 1,1 2,1 0,1 0,2 0,2 0,1 0,2 0,3 -1,1 -1,1 -2,2 1,0 2,1 2,1 1,1 1,2 1,3 0,1 0,2 0,3 -1,1 -1,1 -2,2 -1,0 -1,1 -3,1 0,0 -2,0 -4,0l-7 0 0 -19zm4 3l0 4 3 0c1,0 2,0 2,0 1,0 2,0 2,-1 0,0 1,0 1,-1 0,-1 -1,-1 -1,-1 0,-1 -1,-1 -1,-1 -1,0 -2,0 -4,0l-2 0zm0 7l0 6 4 0c1,0 2,0 2,0 1,-1 1,-1 2,-1 0,-1 0,-1 0,-2 0,0 0,-1 0,-1 0,-1 -1,-1 -1,-1 -1,0 -2,-1 -4,-1l-3 0z"/>
   <path id="6" class="fil1" d="M137 153l-3 0c0,-2 1,-3 2,-3 1,-1 2,-1 4,-1 2,0 3,0 4,0 1,1 1,1 2,2 0,0 0,1 0,3l0 4c0,2 0,2 0,3 0,1 0,1 1,2l-4 0c0,0 0,-1 0,-1 0,0 0,-1 0,-1 -1,1 -2,1 -2,2 -1,0 -2,0 -3,0 -1,0 -2,0 -3,-1 -1,-1 -1,-2 -1,-3 0,-1 0,-1 0,-2 1,-1 1,-1 2,-1 1,-1 1,-1 3,-1 1,-1 3,-1 3,-1l0 -1c0,0 0,-1 0,-1 -1,0 -1,-1 -2,-1 -1,0 -1,1 -2,1 0,0 0,1 -1,1zm5 3c0,0 -1,1 -2,1 -1,0 -2,0 -2,0 0,1 -1,1 -1,2 0,0 1,1 1,1 0,0 1,1 1,1 1,0 2,-1 2,-1 1,0 1,-1 1,-1 0,-1 0,-1 0,-2l0 -1z"/>
   <polygon id="7" class="fil1" points="150,163 150,144 153,144 153,163 "/>
   <path id="8" class="fil1" d="M160 153l-3 0c0,-2 1,-3 2,-3 0,-1 2,-1 4,-1 1,0 3,0 3,0 1,1 2,1 2,2 0,0 1,1 1,3l-1 4c0,2 1,2 1,3 0,1 0,1 0,2l-3 0c0,0 -1,-1 -1,-1 0,0 0,-1 0,-1 0,1 -1,1 -2,2 -1,0 -1,0 -2,0 -2,0 -3,0 -4,-1 0,-1 -1,-2 -1,-3 0,-1 0,-1 1,-2 0,-1 1,-1 1,-1 1,-1 2,-1 3,-1 2,-1 3,-1 4,-1l0 -1c0,0 0,-1 -1,-1 0,0 -1,-1 -2,-1 0,0 -1,1 -1,1 -1,0 -1,1 -1,1zm5 3c-1,0 -1,1 -2,1 -1,0 -2,0 -2,0 -1,1 -1,1 -1,2 0,0 0,1 0,1 1,0 1,1 2,1 1,0 1,-1 2,-1 0,0 1,-1 1,-1 0,-1 0,-1 0,-2l0 -1z"/>
   <path id="9" class="fil1" d="M185 163l-4 0 0 -7c0,-2 0,-3 0,-3 0,-1 0,-1 -1,-1 0,0 -1,-1 -1,-1 -1,0 -1,1 -2,1 0,0 -1,1 -1,1 0,1 0,2 0,4l0 6 -4 0 0 -14 4 0 0 2c1,-2 2,-2 4,-2 1,0 2,0 2,0 1,0 2,1 2,1 0,1 1,1 1,2 0,0 0,1 0,2l0 9z"/>
   <path id="10" class="fil1" d="M201 153l-4 1c0,-1 0,-2 -1,-2 0,0 -1,0 -1,0 -1,0 -2,0 -3,0 0,1 0,2 0,4 0,1 0,3 0,3 1,1 2,1 3,1 0,0 1,0 1,0 1,-1 1,-1 1,-2l4 0c0,2 -1,3 -2,4 -1,1 -3,1 -4,1 -2,0 -4,0 -5,-2 -2,-1 -2,-3 -2,-5 0,-2 0,-4 2,-5 1,-2 3,-2 5,-2 1,0 3,0 4,1 1,0 1,2 2,3z"/>
   <path id="11" class="fil1" d="M212 158l3 1c0,1 -1,2 -2,3 -1,1 -2,1 -4,1 -2,0 -4,-1 -5,-2 -1,-1 -1,-3 -1,-5 0,-2 0,-4 1,-5 2,-2 3,-2 5,-2 2,0 4,0 5,2 1,1 2,3 2,6l-10 0c0,1 1,2 1,3 1,0 2,0 2,0 1,0 1,0 2,0 0,0 1,-1 1,-2zm0 -3c0,-1 0,-2 -1,-3 0,0 -1,-1 -2,-1 -1,0 -1,1 -2,1 0,1 -1,2 -1,3l6 0z"/>
   <path class="fil2" d="M240 163l0 -19 7 0c2,0 3,0 3,0 1,0 2,1 3,1 0,0 1,1 1,2 1,1 1,2 1,3 0,1 -1,3 -2,4 -1,1 -3,1 -5,1l-5 0 0 8 -3 0zm3 -10l5 0c1,0 2,0 3,-1 1,0 1,-1 1,-2 0,-1 0,-2 0,-2 -1,-1 -1,-1 -2,-2 0,0 -1,0 -2,0l-5 0 0 7z"/>
   <path id="1" class="fil2" d="M258 163l0 -14 2 0 0 2c0,-1 1,-1 1,-2 1,0 1,0 2,0 1,0 2,0 2,1l-1 2c0,0 -1,-1 -1,-1 -1,0 -1,1 -2,1 0,0 0,1 -1,1 0,1 0,2 0,3l0 7 -2 0z"/>
   <path id="2" class="fil2" d="M266 156c0,-2 1,-4 2,-5 1,-2 3,-2 4,-2 2,0 4,1 5,2 1,1 2,3 2,5 0,2 0,3 -1,4 0,1 -1,2 -2,3 -1,0 -2,1 -4,1 -2,0 -3,-1 -4,-2 -2,-2 -2,-3 -2,-6zm2 0c0,2 1,3 1,4 1,1 2,2 3,2 2,0 3,-1 3,-2 1,-1 2,-2 2,-4 0,-2 -1,-3 -2,-4 0,-1 -1,-1 -3,-1 -1,0 -2,0 -3,1 0,1 -1,2 -1,4z"/>
   <path id="3" class="fil2" d="M282 163l0 -12 -2 0 0 -2 2 0 0 -1c0,-1 1,-3 1,-3 1,-1 2,-1 3,-1 1,0 2,0 3,0l-1 2c0,0 -1,0 -1,0 -1,0 -2,0 -2,0 0,1 0,1 0,2l0 1 2 0 0 2 -2 0 0 12 -3 0zm7 -16l0 -3 3 0 0 3 -3 0zm0 16l0 -14 3 0 0 14 -3 0z"/>
   <path id="4" class="fil2" d="M300 161l1 2c-1,0 -2,0 -2,0 -1,0 -2,0 -2,0 -1,0 -1,-1 -1,-1 0,0 0,-1 0,-3l0 -8 -2 0 0 -2 2 0 0 -3 2 -2 0 5 2 0 0 2 -2 0 0 8c0,1 0,1 0,2 0,0 0,0 1,0 0,0 0,0 0,0 1,0 1,0 1,0z"/>
   <path id="5" class="fil2" d="M321 161c0,1 -1,1 -2,2 -1,0 -2,1 -3,1 -2,0 -4,-1 -5,-2 -1,-2 -1,-3 -1,-4 0,-1 0,-2 1,-3 1,-1 2,-2 3,-3 -1,-1 -1,-2 -2,-2 0,-1 0,-1 0,-2 0,-1 0,-2 1,-3 1,-1 2,-1 4,-1 1,0 2,0 3,1 1,1 1,2 1,3 0,2 -1,3 -3,4l3 5c1,-1 1,-2 1,-3l3 1c-1,1 -1,3 -2,4 1,1 2,2 3,3l-2 2c-1,-1 -2,-2 -3,-3zm-5 -10c1,-1 2,-1 2,-2 1,0 1,-1 1,-1 0,-1 0,-1 -1,-2 0,0 -1,0 -1,0 -1,0 -1,0 -2,0 0,1 -1,1 -1,2 0,0 1,0 1,1 0,0 0,0 0,1l1 1zm4 8l-5 -5c-1,0 -2,1 -2,2 -1,0 -1,1 -1,2 0,1 0,1 1,2 1,1 2,1 3,1 0,0 1,0 2,0 1,-1 1,-1 2,-2z"/>
   <polygon id="6" class="fil2" points="336,163 336,144 338,144 338,161 348,161 348,163 "/>
   <path id="7" class="fil2" d="M350 156c0,-2 1,-4 2,-5 1,-2 3,-2 4,-2 2,0 4,1 5,2 1,1 2,3 2,5 0,2 0,3 -1,4 0,1 -1,2 -2,3 -1,0 -2,1 -4,1 -2,0 -3,-1 -4,-2 -2,-2 -2,-3 -2,-6zm2 0c0,2 1,3 1,4 1,1 2,2 3,2 2,0 3,-1 3,-2 1,-1 2,-2 2,-4 0,-2 -1,-3 -2,-4 0,-1 -1,-1 -3,-1 -1,0 -2,0 -3,1 0,1 -1,2 -1,4z"/>
   <path id="8" class="fil2" d="M365 159l2 0c0,1 1,1 1,2 1,0 2,1 3,1 1,0 2,-1 2,-1 1,0 1,-1 1,-2 0,0 0,-1 -1,-1 0,0 -1,0 -2,-1 -2,0 -3,0 -4,-1 0,0 -1,-1 -1,-1 -1,-1 -1,-1 -1,-2 0,-1 0,-1 1,-2 0,0 0,-1 1,-1 0,0 1,-1 1,-1 1,0 2,0 2,0 1,0 2,0 3,0 1,1 2,1 2,2 0,0 1,1 1,2l-2 0c-1,-1 -1,-1 -1,-1 -1,-1 -2,-1 -2,-1 -2,0 -2,0 -3,0 0,1 -1,1 -1,2 0,0 1,0 1,1 0,0 0,0 1,0 0,0 1,0 2,1 1,0 3,1 3,1 1,0 1,1 2,1 0,1 0,1 0,2 0,1 0,2 0,2 -1,1 -1,2 -2,2 -1,0 -2,1 -3,1 -2,0 -3,-1 -4,-2 -1,0 -2,-1 -2,-3z"/>
   <path id="9" class="fil2" d="M378 159l3 0c0,1 0,1 1,2 0,0 1,1 2,1 1,0 2,-1 3,-1 0,0 0,-1 0,-2 0,0 0,-1 0,-1 -1,0 -1,0 -3,-1 -1,0 -3,0 -3,-1 -1,0 -1,-1 -2,-1 0,-1 0,-1 0,-2 0,-1 0,-1 0,-2 0,0 1,-1 1,-1 1,0 1,-1 2,-1 0,0 1,0 2,0 1,0 2,0 3,0 1,1 1,1 2,2 0,0 0,1 0,2l-2 0c0,-1 0,-1 -1,-1 0,-1 -1,-1 -2,-1 -1,0 -2,0 -2,0 -1,1 -1,1 -1,2 0,0 0,0 0,1 0,0 1,0 1,0 0,0 1,0 2,1 2,0 3,1 4,1 0,0 1,1 1,1 1,1 1,1 1,2 0,1 0,2 -1,2 0,1 -1,2 -2,2 -1,0 -2,1 -3,1 -2,0 -3,-1 -4,-2 -1,0 -1,-1 -2,-3z"/>
   <path class="fil2" d="M414 163l0 -19 8 0c1,0 2,0 3,1 1,0 2,1 2,1 1,1 1,2 1,3 0,1 0,1 -1,2 0,1 -1,2 -2,2 1,0 2,1 3,2 1,1 1,2 1,3 0,1 0,1 -1,2 0,1 -1,2 -1,2 -1,0 -1,1 -2,1 -1,0 -2,0 -3,0l-8 0zm3 -11l4 0c1,0 2,0 2,0 1,0 2,-1 2,-1 0,-1 0,-1 0,-2 0,0 0,-1 0,-2 0,0 -1,0 -1,-1 -1,0 -2,0 -3,0l-4 0 0 6zm0 9l5 0c0,0 1,0 1,0 1,0 1,0 2,-1 0,0 1,0 1,-1 0,0 0,-1 0,-1 0,-1 0,-2 0,-2 -1,-1 -1,-1 -2,-1 -1,-1 -1,-1 -3,-1l-4 0 0 7z"/>
   <path id="1" class="fil2" d="M441 162c-1,0 -1,1 -2,1 -1,0 -2,1 -3,1 -1,0 -3,-1 -3,-2 -1,0 -2,-1 -2,-2 0,-1 0,-2 1,-2 0,-1 0,-1 1,-2 0,0 1,0 2,0 0,-1 1,-1 2,-1 2,0 3,0 4,-1 0,0 0,0 0,0 0,-1 0,-2 -1,-2 0,-1 -1,-1 -2,-1 -1,0 -2,0 -3,1 0,0 -1,1 -1,2l-2 -1c0,-1 0,-2 1,-2 0,-1 1,-1 2,-2 1,0 2,0 3,0 1,0 2,0 3,0 1,1 1,1 2,1 0,1 0,1 0,2 0,0 0,1 0,2l0 3c0,3 1,4 1,5 0,0 0,1 0,1l-2 0c-1,0 -1,-1 -1,-1zm0 -6c-1,1 -2,1 -4,1 -1,0 -1,0 -2,1 0,0 -1,0 -1,0 0,1 0,1 0,1 0,1 0,2 1,2 0,0 1,1 2,1 1,0 1,-1 2,-1 1,0 1,-1 2,-2 0,0 0,-1 0,-2l0 -1z"/>
   <polygon id="2" class="fil2" points="447,163 447,144 449,144 449,163 "/>
   <path id="3" class="fil2" d="M462 162c-1,0 -1,1 -2,1 -1,0 -2,1 -3,1 -1,0 -3,-1 -3,-2 -1,0 -2,-1 -2,-2 0,-1 0,-2 1,-2 0,-1 0,-1 1,-2 0,0 1,0 2,0 0,-1 1,-1 2,-1 2,0 3,0 4,-1 0,0 0,0 0,0 0,-1 0,-2 -1,-2 0,-1 -1,-1 -2,-1 -1,0 -2,0 -3,1 0,0 -1,1 -1,2l-2 -1c0,-1 0,-2 1,-2 0,-1 1,-1 2,-2 1,0 2,0 3,0 1,0 2,0 3,0 1,1 1,1 2,1 0,1 0,1 0,2 0,0 0,1 0,2l0 3c0,3 1,4 1,5 0,0 0,1 0,1l-2 0c-1,0 -1,-1 -1,-1zm0 -6c-1,1 -2,1 -4,1 -1,0 -1,0 -2,1 0,0 -1,0 -1,0 0,1 0,1 0,1 0,1 0,2 1,2 0,0 1,1 2,1 1,0 1,-1 2,-1 1,0 1,-1 2,-2 0,0 0,-1 0,-2l0 -1z"/>
   <path id="4" class="fil2" d="M468 163l0 -14 2 0 0 2c1,-1 3,-2 5,-2 1,0 1,0 2,0 1,1 1,1 2,2 0,0 0,1 0,1 0,1 0,2 0,3l0 8 -2 0 0 -8c0,-1 0,-2 0,-2 0,-1 -1,-1 -1,-2 -1,0 -1,0 -2,0 -1,0 -2,0 -2,1 -1,1 -2,2 -2,4l0 7 -2 0z"/>
   <path id="5" class="fil2" d="M492 158l3 0c-1,2 -1,3 -2,4 -1,1 -3,2 -4,2 -2,0 -4,-1 -5,-2 -1,-2 -2,-3 -2,-6 0,-1 1,-3 1,-4 1,-1 1,-2 2,-2 1,-1 3,-1 4,-1 1,0 3,0 4,1 0,1 1,2 1,3l-2 1c0,-1 -1,-2 -1,-2 -1,-1 -1,-1 -2,-1 -1,0 -2,0 -3,1 -1,1 -1,2 -1,4 0,2 0,3 1,4 1,1 2,2 3,2 1,0 1,-1 2,-1 1,-1 1,-2 1,-3z"/>
   <path id="6" class="fil2" d="M506 159l3 0c-1,1 -1,3 -3,3 -1,1 -2,2 -4,2 -2,0 -3,-1 -4,-2 -2,-2 -2,-3 -2,-6 0,-2 0,-4 2,-5 1,-1 2,-2 4,-2 2,0 4,1 5,2 1,1 2,3 2,5 0,0 0,1 0,1l-11 0c0,1 1,3 2,3 0,1 1,2 2,2 1,0 2,-1 3,-1 0,-1 1,-1 1,-2zm-8 -4l8 0c0,-1 0,-2 -1,-3 0,-1 -1,-1 -3,-1 -1,0 -2,0 -2,1 -1,1 -2,2 -2,3z"/>
   <path id="7" class="fil2" d="M519 157l2 0c0,1 0,2 1,2 0,1 1,1 2,2 1,0 2,0 3,0 1,0 2,0 2,0 1,0 2,-1 2,-1 0,-1 0,-1 0,-2 0,-1 0,-1 0,-2 0,0 -1,0 -2,-1 0,0 -1,0 -3,-1 -2,0 -3,0 -4,-1 -1,0 -2,-1 -2,-2 0,0 -1,-1 -1,-2 0,-1 1,-2 1,-3 1,-1 1,-1 3,-2 1,0 2,0 3,0 2,0 3,0 4,0 1,1 2,1 2,2 1,1 1,2 1,3l-2 1c0,-2 -1,-3 -1,-3 -1,-1 -2,-1 -4,-1 -1,0 -2,0 -3,1 -1,0 -1,1 -1,2 0,0 0,1 1,1 0,1 1,1 3,2 2,0 4,1 5,1 1,1 2,1 2,2 1,1 1,2 1,3 0,1 0,2 -1,3 -1,1 -1,1 -2,2 -2,0 -3,1 -4,1 -2,0 -3,-1 -5,-1 -1,-1 -2,-1 -2,-2 -1,-1 -1,-3 -1,-4z"/>
   <path id="8" class="fil2" d="M537 163l0 -19 2 0 0 7c2,-1 3,-2 5,-2 1,0 2,0 2,1 1,0 2,1 2,1 0,1 0,2 0,3l0 9 -2 0 0 -9c0,-1 0,-2 -1,-2 0,-1 -1,-1 -2,-1 -1,0 -1,0 -2,1 0,0 -1,0 -1,1 0,1 -1,2 -1,3l0 7 -2 0z"/>
   <path id="9" class="fil2" d="M562 159l2 0c0,1 -1,3 -2,3 -1,1 -2,2 -4,2 -2,0 -4,-1 -5,-2 -1,-2 -2,-3 -2,-6 0,-2 1,-4 2,-5 1,-1 3,-2 5,-2 2,0 3,1 4,2 2,1 2,3 2,5 0,0 0,1 0,1l-10 0c0,1 0,3 1,3 1,1 2,2 3,2 1,0 2,-1 2,-1 1,-1 1,-1 2,-2zm-8 -4l8 0c0,-1 -1,-2 -1,-3 -1,-1 -2,-1 -3,-1 -1,0 -2,0 -3,1 -1,1 -1,2 -1,3z"/>
   <path id="10" class="fil2" d="M577 159l2 0c0,1 -1,3 -2,3 -1,1 -2,2 -4,2 -2,0 -4,-1 -5,-2 -1,-2 -2,-3 -2,-6 0,-2 1,-4 2,-5 1,-1 3,-2 5,-2 2,0 3,1 4,2 2,1 2,3 2,5 0,0 0,1 0,1l-10 0c0,1 0,3 1,3 1,1 2,2 3,2 1,0 2,-1 2,-1 1,-1 1,-1 2,-2zm-8 -4l8 0c0,-1 -1,-2 -1,-3 -1,-1 -2,-1 -3,-1 -1,0 -2,0 -3,1 -1,1 -1,2 -1,3z"/>
   <path id="11" class="fil2" d="M587 161l1 2c-1,0 -2,0 -2,0 -1,0 -2,0 -2,0 -1,0 -1,-1 -1,-1 0,0 0,-1 0,-3l0 -8 -2 0 0 -2 2 0 0 -3 2 -2 0 5 2 0 0 2 -2 0 0 8c0,1 0,1 0,2 0,0 0,0 0,0 1,0 1,0 1,0 1,0 1,0 1,0z"/>
   <rect class="fil3" x="49" y="297" width="693.276" height="41.3178"/>
   <path class="fil2" d="M60 325l0 -15 6 0c1,0 2,0 2,0 1,0 2,0 2,1 1,0 1,1 1,1 1,1 1,2 1,2 0,2 -1,3 -1,4 -1,1 -3,1 -5,1l-4 0 0 6 -2 0zm2 -8l4 0c1,0 2,0 3,-1 0,0 1,-1 1,-2 0,0 0,-1 -1,-1 0,-1 -1,-1 -1,-1 0,0 -1,0 -2,0l-4 0 0 5z"/>
   <path id="1" class="fil2" d="M81 324c0,0 -1,1 -2,1 0,0 -1,1 -2,1 -1,0 -2,-1 -2,-1 -1,-1 -1,-2 -1,-3 0,0 0,-1 0,-1 0,-1 0,-1 1,-1 0,-1 1,-1 1,-1 1,0 1,0 2,0 1,0 3,-1 3,-1 0,0 0,0 0,0 0,-1 0,-2 0,-2 -1,0 -1,-1 -2,-1 -1,0 -2,1 -2,1 -1,0 -1,1 -1,2l-2 -1c0,-1 0,-1 1,-2 0,0 1,0 1,-1 1,0 2,0 3,0 1,0 2,0 2,0 1,0 1,1 2,1 0,0 0,1 0,1 0,1 0,1 0,2l0 3c0,1 0,2 0,3 0,0 1,1 1,1l-2 0c0,0 0,-1 -1,-1zm0 -4c0,0 -1,0 -3,0 -1,0 -1,1 -1,1 -1,0 -1,0 -1,0 0,1 0,1 0,1 0,1 0,1 0,2 0,0 1,0 2,0 1,0 1,0 2,0 0,-1 1,-1 1,-2 0,0 0,-1 0,-2l0 0z"/>
   <path id="2" class="fil2" d="M86 325l0 -11 2 0 0 2c0,-1 1,-2 1,-2 0,0 1,0 1,0 1,0 2,0 2,0l0 2c-1,0 -1,0 -2,0 0,0 -1,0 -1,0 0,0 -1,1 -1,1 0,1 0,2 0,2l0 6 -2 0z"/>
   <path id="3" class="fil2" d="M97 324l1 1c-1,0 -1,0 -2,0 0,0 -1,0 -1,0 -1,0 -1,0 -1,-1 0,0 0,-1 0,-2l0 -6 -2 0 0 -2 2 0 0 -3 2 -1 0 4 1 0 0 2 -1 0 0 6c0,1 0,1 0,1 0,0 0,0 0,1 0,0 0,0 1,0 0,0 0,0 0,0z"/>
   <path id="4" class="fil2" d="M99 312l0 -2 2 0 0 2 -2 0zm0 13l0 -11 2 0 0 11 -2 0z"/>
   <path id="5" class="fil2" d="M111 321l2 0c0,2 0,3 -1,3 -1,1 -2,2 -3,2 -2,0 -3,-1 -4,-2 -1,-1 -1,-2 -1,-4 0,-1 0,-3 0,-3 1,-1 1,-2 2,-2 1,-1 2,-1 3,-1 1,0 2,0 3,1 0,0 1,1 1,2l-2 1c0,-1 0,-2 -1,-2 0,0 -1,-1 -1,-1 -1,0 -2,1 -3,1 0,1 0,2 0,4 0,1 0,2 0,3 1,1 2,1 3,1 0,0 1,0 2,-1 0,0 0,-1 0,-2z"/>
   <path id="6" class="fil2" d="M122 325l0 -1c-1,1 -2,2 -3,2 -1,0 -2,-1 -2,-1 -1,0 -1,0 -1,-1 -1,0 -1,-1 -1,-1 0,-1 0,-1 0,-2l0 -7 2 0 0 6c0,1 0,2 0,2 0,1 0,1 1,1 0,1 1,1 1,1 1,0 1,0 2,-1 0,0 1,0 1,-1 0,0 0,-1 0,-2l0 -6 2 0 0 11 -2 0z"/>
   <polygon id="7" class="fil2" points="127,325 127,310 129,310 129,325 "/>
   <path id="8" class="fil2" d="M139 324c-1,0 -1,1 -2,1 -1,0 -1,1 -2,1 -1,0 -2,-1 -3,-1 -1,-1 -1,-2 -1,-3 0,0 0,-1 0,-1 1,-1 1,-1 1,-1 1,-1 1,-1 2,-1 0,0 1,0 2,0 1,0 2,-1 3,-1 0,0 0,0 0,0 0,-1 0,-2 -1,-2 0,0 -1,-1 -2,-1 -1,0 -1,1 -2,1 0,0 -1,1 -1,2l-2 -1c1,-1 1,-1 1,-2 1,0 1,0 2,-1 1,0 2,0 2,0 1,0 2,0 3,0 0,0 1,1 1,1 0,0 1,1 1,1 0,1 0,1 0,2l0 3c0,1 0,2 0,3 0,0 0,1 0,1l-2 0c0,0 0,-1 0,-1zm0 -4c-1,0 -2,0 -3,0 -1,0 -2,1 -2,1 0,0 0,0 -1,0 0,1 0,1 0,1 0,1 0,1 1,2 0,0 1,0 1,0 1,0 2,0 2,0 1,-1 1,-1 2,-2 0,0 0,-1 0,-2l0 0z"/>
   <path id="9" class="fil2" d="M144 325l0 -11 1 0 0 2c1,-1 1,-2 2,-2 0,0 0,0 1,0 0,0 1,0 2,0l-1 2c0,0 -1,0 -1,0 -1,0 -1,0 -1,0 -1,0 -1,1 -1,1 0,1 0,2 0,2l0 6 -2 0z"/>
   <path class="fil2" d="M301 318c0,-2 0,-4 2,-6 1,-1 3,-2 5,-2 2,0 3,0 4,1 1,1 2,2 3,3 0,1 0,2 0,4 0,2 0,3 0,4 -1,1 -2,2 -3,3 -1,1 -3,1 -4,1 -1,0 -3,0 -4,-1 -1,-1 -2,-2 -2,-3 -1,-1 -1,-3 -1,-4zm2 0c0,2 0,3 1,5 1,1 3,1 4,1 2,0 3,0 4,-1 1,-2 1,-3 1,-5 0,-1 0,-2 0,-3 -1,-1 -1,-2 -2,-3 -1,0 -2,0 -3,0 -1,0 -3,0 -4,1 -1,1 -1,3 -1,5z"/>
   <path id="1" class="fil2" d="M318 330l0 -16 2 0 0 2c0,-1 0,-1 1,-1 0,-1 1,-1 2,-1 1,0 2,0 2,1 1,0 2,1 2,2 0,1 1,2 1,3 0,1 -1,2 -1,3 0,1 -1,2 -2,2 -1,1 -1,1 -2,1 -1,0 -1,0 -2,-1 0,0 -1,0 -1,-1l0 6 -2 0zm2 -10c0,2 0,3 0,3 1,1 2,1 3,1 0,0 1,0 2,-1 0,0 1,-2 1,-3 0,-1 -1,-3 -1,-3 -1,-1 -2,-1 -2,-1 -1,0 -2,0 -2,1 -1,1 -1,2 -1,3z"/>
   <polygon id="2" class="fil2" points="330,326 330,324 333,324 333,326 "/>
   <path id="3" class="fil2" d="M342 326l0 -16 6 0c1,0 2,0 3,1 0,0 1,0 1,1 1,1 1,1 1,2 0,1 0,1 -1,2 0,1 0,1 -1,1 1,1 1,1 2,2 0,0 1,1 1,2 0,1 0,2 -1,2 0,1 0,1 -1,2 0,0 -1,0 -2,0 0,1 -1,1 -2,1l-6 0zm2 -9l3 0c1,0 2,0 2,0 1,-1 1,-1 2,-1 0,-1 0,-1 0,-2 0,0 0,-1 0,-1 -1,0 -1,-1 -1,-1 -1,0 -2,0 -3,0l-3 0 0 5zm0 7l4 0c1,0 1,0 1,0 1,0 1,0 1,-1 1,0 1,0 1,-1 0,0 1,0 1,-1 0,0 -1,-1 -1,-1 0,-1 -1,-1 -1,-1 -1,0 -1,0 -2,0l-4 0 0 5z"/>
   <path id="4" class="fil2" d="M364 324c-1,1 -2,1 -2,2 -1,0 -2,0 -3,0 -1,0 -2,0 -2,-1 -1,-1 -1,-1 -1,-2 0,-1 0,-1 0,-2 0,0 1,-1 1,-1 0,0 1,0 1,-1 1,0 1,0 2,0 2,0 3,0 3,0 0,-1 0,-1 0,-1 0,-1 0,-1 0,-2 -1,0 -1,0 -2,0 -1,0 -2,0 -2,0 -1,1 -1,1 -1,2l-2 0c0,-1 0,-2 1,-2 0,-1 1,-1 1,-1 1,-1 2,-1 3,-1 1,0 2,0 2,1 1,0 1,0 2,0 0,1 0,1 0,2 0,0 0,1 0,1l0 3c0,2 0,3 0,3 1,1 1,1 1,2l-2 0c0,-1 0,-1 0,-2zm-1 -4c0,0 -1,1 -3,1 0,0 -1,0 -1,0 -1,0 -1,0 -1,1 0,0 0,0 0,1 0,0 0,1 0,1 1,0 1,0 2,0 1,0 1,0 2,0 0,0 1,-1 1,-1 0,-1 0,-1 0,-2l0 -1z"/>
   <polygon id="5" class="fil2" points="368,326 368,310 370,310 370,326 "/>
   <polygon id="6" class="fil2" points="374,326 374,324 376,324 376,326 "/>
   <path class="fil2" d="M451 326l0 -16 6 0c1,0 2,0 2,0 1,1 2,1 3,1 0,1 1,2 1,3 1,1 1,2 1,4 0,1 0,2 0,3 -1,1 -1,2 -1,2 -1,1 -1,1 -2,2 0,0 -1,0 -2,0 0,1 -1,1 -2,1l-6 0zm2 -2l4 0c1,0 1,0 2,0 1,-1 1,-1 1,-1 1,-1 1,-1 1,-2 1,-1 1,-2 1,-3 0,-2 0,-3 -1,-4 0,-1 -1,-1 -2,-2 0,0 -1,0 -2,0l-4 0 0 12z"/>
   <path id="1" class="fil2" d="M467 326l0 -12 1 0 0 2c1,-1 1,-1 1,-1 1,-1 1,-1 2,-1 0,0 1,0 2,1l-1 2c0,-1 -1,-1 -1,-1 -1,0 -1,0 -2,0 0,1 0,1 0,2 0,0 -1,1 -1,2l0 6 -1 0z"/>
   <polygon id="2" class="fil2" points="473,326 473,323 475,323 475,326 "/>
   <path class="fil2" d="M575 320l2 1c-1,1 -1,3 -2,3 -2,1 -3,2 -5,2 -1,0 -3,-1 -4,-1 -1,-1 -1,-2 -2,-3 0,-2 -1,-3 -1,-4 0,-2 1,-3 1,-5 1,-1 2,-2 3,-2 1,-1 2,-1 4,-1 1,0 2,0 3,1 1,1 2,2 3,3l-2 1c-1,-1 -1,-2 -2,-3 -1,0 -1,-1 -3,-1 -1,0 -2,1 -2,1 -1,1 -2,2 -2,3 0,1 -1,2 -1,3 0,1 1,2 1,3 0,1 1,2 2,2 1,1 1,1 2,1 1,0 2,0 3,-1 1,-1 2,-2 2,-3z"/>
   <path id="1" class="fil2" d="M579 325l0 -11 2 0 0 2c0,-1 1,-1 1,-2 0,0 1,0 1,0 1,0 2,0 2,1l0 1c-1,0 -1,0 -2,0 0,0 -1,0 -1,0 0,1 -1,1 -1,1 0,1 0,2 0,3l0 5 -2 0z"/>
   <polygon id="2" class="fil2" points="586,325 586,323 588,323 588,325 "/>
   <path class="fil2" d="M665 320l2 1c-1,1 -2,3 -3,4 -1,0 -2,1 -4,1 -1,0 -3,0 -4,-1 -1,-1 -2,-2 -2,-3 -1,-1 -1,-3 -1,-4 0,-2 0,-3 1,-4 1,-2 1,-3 3,-3 1,-1 2,-1 3,-1 2,0 3,0 4,1 1,1 2,2 2,3l-2 1c0,-1 -1,-2 -1,-3 -1,0 -2,0 -3,0 -1,0 -2,0 -3,1 -1,0 -1,1 -1,2 -1,1 -1,2 -1,3 0,1 0,2 1,3 0,1 1,2 1,2 1,1 2,1 3,1 1,0 2,0 3,-1 1,0 1,-1 2,-3z"/>
   <polygon id="1" class="fil2" points="669,326 669,310 671,310 671,326 "/>
   <path id="2" class="fil2" d="M673 322l2 0c0,1 0,1 1,2 0,0 1,0 2,0 1,0 1,0 2,0 0,-1 0,-1 0,-1 0,-1 0,-1 0,-1 -1,-1 -1,-1 -2,-1 -2,0 -3,-1 -3,-1 -1,0 -1,-1 -1,-1 -1,-1 -1,-1 -1,-2 0,0 0,-1 1,-1 0,0 0,-1 1,-1 0,0 0,0 1,-1 0,0 1,0 1,0 1,0 2,0 3,1 0,0 1,0 1,1 0,0 1,1 1,1l-2 1c0,-1 0,-1 -1,-2 0,0 -1,0 -1,0 -1,0 -2,0 -2,0 -1,0 -1,1 -1,1 0,0 0,1 0,1 0,0 1,0 1,0 0,0 1,1 2,1 1,0 2,1 3,1 0,0 0,0 1,1 0,0 0,1 0,1 0,1 0,2 0,2 -1,1 -1,1 -2,1 -1,1 -1,1 -2,1 -2,0 -3,0 -4,-1 0,-1 -1,-2 -1,-3z"/>
   <polygon id="3" class="fil2" points="685,326 685,324 687,324 687,326 "/>
   <path id="4" class="fil2" d="M691 326l0 -16 5 0c2,0 3,0 3,1 1,0 2,0 2,1 0,1 1,1 1,2 0,1 -1,1 -1,2 0,1 -1,1 -2,1 1,1 2,1 3,2 0,0 0,1 0,2 0,1 0,2 0,2 0,1 -1,1 -1,2 -1,0 -1,0 -2,0 -1,1 -1,1 -2,1l-6 0zm2 -9l3 0c1,0 2,0 2,0 1,-1 1,-1 1,-1 0,-1 1,-1 1,-2 0,0 -1,-1 -1,-1 0,0 0,-1 -1,-1 0,0 -1,0 -2,0l-3 0 0 5zm0 7l4 0c0,0 1,0 1,0 0,0 1,0 1,-1 0,0 1,0 1,-1 0,0 0,0 0,-1 0,0 0,-1 0,-1 -1,-1 -1,-1 -1,-1 -1,0 -2,0 -3,0l-3 0 0 5z"/>
   <path id="5" class="fil2" d="M712 324c-1,1 -1,1 -2,2 0,0 -1,0 -2,0 -1,0 -2,0 -3,-1 0,-1 -1,-1 -1,-2 0,-1 0,-1 1,-2 0,0 0,-1 1,-1 0,0 0,0 1,-1 0,0 1,0 2,0 1,0 2,0 3,0 0,-1 0,-1 0,-1 0,-1 0,-1 0,-2 -1,0 -2,0 -3,0 -1,0 -1,0 -2,0 0,1 0,1 -1,2l-1 0c0,-1 0,-2 0,-2 1,-1 1,-1 2,-1 1,-1 2,-1 3,-1 1,0 1,0 2,1 1,0 1,0 1,0 1,1 1,1 1,2 0,0 0,1 0,1l0 3c0,2 0,3 0,3 0,1 0,1 1,2l-2 0c-1,-1 -1,-1 -1,-2zm0 -4c-1,0 -2,1 -3,1 -1,0 -1,0 -2,0 0,0 0,0 0,1 -1,0 -1,0 -1,1 0,0 0,1 1,1 0,0 1,0 2,0 0,0 1,0 1,0 1,0 1,-1 2,-1 0,-1 0,-1 0,-2l0 -1z"/>
   <polygon id="6" class="fil2" points="717,326 717,310 719,310 719,326 "/>
   <polygon id="7" class="fil2" points="722,326 722,324 724,324 724,326 "/>
   <path class="fil1" d="M650 271l0 -3 2 0 0 3 -2 0zm0 15l0 -13 2 0 0 13 -2 0z"/>
   <path id="1" class="fil1" d="M656 286l0 -13 2 0 0 2c1,-1 2,-2 4,-2 0,0 1,0 2,0 0,1 1,1 1,1 1,1 1,1 1,2 0,0 0,1 0,2l0 8 -2 0 0 -8c0,-1 0,-1 0,-2 -1,0 -1,-1 -1,-1 -1,0 -1,0 -2,0 -1,0 -1,0 -2,1 -1,0 -1,1 -1,3l0 7 -2 0z"/>
   <path id="2" class="fil1" d="M688 268l2 0 0 10c0,2 0,4 -1,5 0,1 -1,1 -2,2 -1,1 -2,1 -4,1 -1,0 -3,0 -4,-1 -1,0 -2,-1 -2,-2 0,-1 -1,-3 -1,-5l0 -10 3 0 0 10c0,2 0,3 0,4 0,0 1,1 1,1 1,1 2,1 3,1 2,0 3,0 4,-1 0,-1 1,-2 1,-5l0 -10z"/>
   <path id="3" class="fil1" d="M693 280l2 0c0,1 1,2 1,2 0,1 1,1 2,1 0,1 1,1 2,1 1,0 2,0 3,0 0,-1 1,-1 1,-1 1,-1 1,-1 1,-2 0,-1 0,-1 -1,-1 0,-1 -1,-1 -1,-1 -1,-1 -2,-1 -3,-1 -2,-1 -3,-1 -4,-1 -1,-1 -1,-1 -2,-2 0,-1 0,-1 0,-2 0,-1 0,-2 0,-3 1,0 2,-1 3,-1 1,-1 2,-1 3,-1 1,0 2,0 3,1 1,0 2,1 3,2 0,0 0,1 0,2l-2 0c0,-1 0,-1 -1,-2 -1,-1 -2,-1 -3,-1 -1,0 -2,0 -3,1 -1,0 -1,1 -1,2 0,0 0,1 1,1 0,1 1,1 3,1 2,1 3,1 4,2 1,0 2,1 2,1 1,1 1,2 1,3 0,1 0,2 -1,2 0,1 -1,2 -2,2 -1,1 -2,1 -4,1 -1,0 -2,0 -3,-1 -2,0 -2,-1 -3,-2 -1,-1 -1,-2 -1,-3z"/>
   <path id="4" class="fil1" d="M710 286l0 -18 6 0c1,0 2,0 3,1 1,0 2,0 3,1 1,1 1,2 2,3 0,1 0,2 0,4 0,1 0,2 0,3 0,1 -1,2 -1,3 -1,1 -1,1 -2,2 0,0 -1,0 -2,0 -1,1 -2,1 -3,1l-6 0zm2 -2l4 0c1,0 2,0 3,-1 0,0 1,0 1,-1 1,0 1,-1 2,-2 0,-1 0,-2 0,-3 0,-2 0,-3 -1,-4 0,-1 -1,-2 -2,-2 -1,0 -2,-1 -3,-1l-4 0 0 14z"/>
   <path class="fil2" d="M60 376l2 0c0,1 0,2 1,2 0,1 0,1 1,1 1,1 2,1 2,1 1,0 2,0 3,0 0,-1 1,-1 1,-1 0,-1 0,-1 0,-2 0,0 0,-1 0,-1 0,0 -1,-1 -1,-1 -1,0 -2,0 -3,-1 -2,0 -3,0 -3,-1 -1,0 -2,-1 -2,-1 0,-1 0,-1 0,-2 0,-1 0,-2 0,-2 1,-1 1,-1 2,-2 1,0 2,0 3,0 1,0 2,0 3,0 1,1 2,1 2,2 1,1 1,1 1,2l-2 0c0,-1 -1,-1 -1,-2 -1,0 -2,0 -3,0 -1,0 -2,0 -3,0 0,1 0,1 0,2 0,0 0,1 0,1 1,1 2,1 3,1 2,1 3,1 4,1 1,1 1,1 2,2 0,0 0,1 0,2 0,1 0,2 0,2 -1,1 -2,2 -2,2 -1,0 -2,1 -3,1 -2,0 -3,-1 -4,-1 -1,0 -2,-1 -2,-2 -1,-1 -1,-2 -1,-3z"/>
   <path id="1" class="fil2" d="M75 381l0 -15 2 0 0 6c1,-2 2,-2 3,-2 1,0 2,0 2,0 1,1 1,1 2,2 0,0 0,1 0,2l0 7 -2 0 0 -7c0,-1 0,-1 -1,-2 0,0 -1,0 -1,0 -1,0 -1,0 -2,0 0,0 -1,1 -1,1 0,1 0,1 0,2l0 6 -2 0z"/>
   <path id="2" class="fil2" d="M94 380c-1,1 -1,1 -2,1 -1,1 -1,1 -2,1 -1,0 -2,-1 -3,-1 0,-1 -1,-2 -1,-3 0,0 0,-1 1,-1 0,-1 0,-1 1,-1 0,0 0,-1 1,-1 0,0 1,0 2,0 1,0 2,0 3,-1 0,0 0,0 0,0 0,-1 0,-2 -1,-2 0,0 -1,0 -2,0 -1,0 -1,0 -2,0 0,0 0,1 -1,2l-1 -1c0,0 0,-1 0,-2 1,0 1,0 2,-1 1,0 2,0 3,0 1,0 1,0 2,0 1,1 1,1 1,1 1,0 1,1 1,1 0,1 0,1 0,2l0 3c0,1 0,3 0,3 0,1 0,1 1,1l-2 0c-1,0 -1,0 -1,-1zm0 -4c-1,0 -2,0 -3,1 -1,0 -1,0 -2,0 0,0 0,0 -1,0 0,1 0,1 0,1 0,1 0,1 1,2 0,0 1,0 1,0 1,0 2,0 2,0 1,-1 1,-1 2,-2 0,0 0,-1 0,-2l0 0z"/>
   <path id="3" class="fil2" d="M99 381l0 -11 2 0 0 2c0,-1 0,-1 1,-2 0,0 1,0 1,0 1,0 1,0 2,1l-1 1c0,0 -1,0 -1,0 -1,0 -1,0 -1,0 -1,1 -1,1 -1,1 0,1 0,2 0,3l0 5 -2 0z"/>
   <path id="4" class="fil2" d="M114 378l2 0c-1,1 -1,2 -2,3 -1,0 -2,1 -3,1 -2,0 -3,-1 -4,-2 -1,-1 -2,-2 -2,-4 0,-2 1,-3 2,-4 1,-2 2,-2 4,-2 1,0 2,0 3,1 1,2 2,3 2,5 0,0 0,0 0,0l-9 0c0,2 1,2 1,3 1,1 2,1 3,1 0,0 1,0 1,0 1,-1 1,-1 2,-2zm-7 -3l7 0c0,-1 -1,-2 -1,-2 -1,-1 -1,-1 -2,-1 -1,0 -2,0 -3,0 0,1 0,2 -1,3z"/>
   <path id="5" class="fil2" d="M118 381l0 -15 2 0 0 6c1,-2 2,-2 3,-2 1,0 2,0 2,0 1,1 1,1 2,2 0,0 0,1 0,2l0 7 -2 0 0 -7c0,-1 0,-1 0,-2 -1,0 -1,0 -2,0 -1,0 -1,0 -2,0 0,0 -1,1 -1,1 0,1 0,1 0,2l0 6 -2 0z"/>
   <path id="6" class="fil2" d="M129 376c0,-2 1,-4 2,-5 1,-1 2,-1 4,-1 1,0 2,0 3,1 1,1 2,3 2,5 0,1 0,2 -1,3 0,1 -1,2 -2,2 -1,0 -1,1 -2,1 -2,0 -3,-1 -4,-2 -1,-1 -2,-2 -2,-4zm2 0c0,1 1,2 1,3 1,1 2,1 3,1 1,0 1,0 2,-1 1,-1 1,-2 1,-3 0,-2 0,-3 -1,-3 -1,-1 -1,-1 -2,-1 -1,0 -2,0 -3,1 0,0 -1,1 -1,3z"/>
   <polygon id="7" class="fil2" points="142,381 142,366 144,366 144,381 "/>
   <path id="8" class="fil2" d="M154 381l0 -1c-1,1 -2,2 -3,2 -1,0 -2,-1 -3,-1 0,-1 -1,-1 -1,-2 -1,-1 -1,-2 -1,-3 0,-1 0,-2 1,-3 0,-1 1,-2 1,-2 1,-1 2,-1 3,-1 1,0 1,0 2,0 0,1 1,1 1,2l0 -6 2 0 0 15 -2 0zm-6 -5c0,1 0,2 1,3 1,1 1,1 2,1 1,0 2,0 2,-1 1,-1 1,-2 1,-3 0,-2 0,-3 -1,-3 0,-1 -1,-1 -2,-1 -1,0 -2,0 -2,1 -1,0 -1,1 -1,3z"/>
   <path id="9" class="fil2" d="M166 378l2 0c0,1 0,2 -1,3 -1,0 -2,1 -3,1 -2,0 -3,-1 -4,-2 -1,-1 -2,-2 -2,-4 0,-2 1,-3 2,-4 1,-2 2,-2 3,-2 2,0 3,0 4,1 1,2 2,3 2,5 0,0 0,0 0,0l-9 0c0,2 1,2 1,3 1,1 2,1 3,1 0,0 1,0 1,0 1,-1 1,-1 1,-2zm-6 -3l7 0c-1,-1 -1,-2 -1,-2 -1,-1 -2,-1 -3,-1 0,0 -1,0 -2,0 0,1 -1,2 -1,3z"/>
   <path id="10" class="fil2" d="M171 381l0 -11 2 0 0 2c0,-1 0,-1 1,-2 0,0 1,0 1,0 1,0 1,0 2,1l-1 1c0,0 -1,0 -1,0 -1,0 -1,0 -1,0 -1,1 -1,1 -1,1 0,1 0,2 0,3l0 5 -2 0z"/>
   <polygon id="11" class="fil2" points="184,381 184,366 195,366 195,368 186,368 186,373 194,373 194,374 186,374 186,381 "/>
   <path id="12" class="fil2" d="M205 381l0 -1c-1,1 -3,2 -4,2 -1,0 -1,0 -2,-1 0,0 -1,0 -1,-1 0,0 -1,-1 -1,-1 0,0 0,-1 0,-2l0 -7 2 0 0 6c0,1 0,2 0,2 0,1 1,1 1,2 0,0 1,0 1,0 1,0 1,0 2,0 0,-1 1,-1 1,-2 0,0 0,-1 0,-2l0 -6 2 0 0 11 -1 0z"/>
   <path id="13" class="fil2" d="M209 381l0 -11 2 0 0 2c1,-1 2,-2 3,-2 1,0 2,0 2,0 1,1 1,1 2,1 0,1 0,1 0,2 0,0 0,1 0,2l0 6 -2 0 0 -6c0,-1 0,-2 0,-2 0,-1 0,-1 -1,-1 0,0 0,0 -1,0 -1,0 -1,0 -2,0 -1,1 -1,2 -1,3l0 6 -2 0z"/>
   <path id="14" class="fil2" d="M228 381l0 -1c0,1 -1,2 -3,2 -1,0 -1,-1 -2,-1 -1,-1 -1,-1 -2,-2 0,-1 0,-2 0,-3 0,-1 0,-2 0,-3 0,-1 1,-2 2,-2 0,-1 1,-1 2,-1 1,0 2,0 2,0 1,1 1,1 1,2l0 -6 2 0 0 15 -2 0zm-6 -5c0,1 1,2 1,3 1,1 2,1 3,1 0,0 1,0 2,-1 0,-1 1,-2 1,-3 0,-2 -1,-3 -1,-3 -1,-1 -2,-1 -3,-1 0,0 -1,0 -2,1 0,0 -1,1 -1,3z"/>
   <path class="fil2" d="M72 426l2 1c-1,2 -2,3 -3,4 -1,1 -2,1 -4,1 -1,0 -3,0 -4,-1 -1,-1 -2,-2 -2,-3 -1,-1 -1,-3 -1,-4 0,-2 0,-3 1,-4 1,-1 1,-2 3,-3 1,-1 2,-1 3,-1 2,0 3,0 4,1 1,1 2,2 2,4l-2 0c0,-1 -1,-2 -1,-2 -1,-1 -2,-1 -3,-1 -1,0 -2,0 -3,1 -1,0 -1,1 -1,2 -1,1 -1,2 -1,3 0,1 0,2 1,3 0,1 1,2 1,3 1,0 2,0 3,0 1,0 2,0 3,-1 1,0 1,-1 2,-3z"/>
   <path id="1" class="fil2" d="M83 432l0 -2c-1,1 -2,2 -3,2 -1,0 -2,0 -2,0 -1,-1 -1,-1 -1,-1 -1,-1 -1,-1 -1,-2 0,0 0,-1 0,-1l0 -7 2 0 0 6c0,1 0,1 0,2 0,0 0,1 1,1 0,0 1,0 1,0 1,0 1,0 2,0 0,0 1,-1 1,-1 0,-1 0,-1 0,-2l0 -6 2 0 0 11 -2 0z"/>
   <path id="2" class="fil2" d="M88 432l0 -11 2 0 0 1c0,-1 0,-1 1,-1 0,-1 1,-1 1,-1 1,0 1,1 2,1l-1 2c0,-1 -1,-1 -1,-1 0,0 -1,0 -1,1 0,0 -1,0 -1,1 0,0 0,1 0,2l0 6 -2 0z"/>
   <path id="3" class="fil2" d="M95 432l0 -11 2 0 0 1c0,-1 1,-1 1,-1 0,-1 1,-1 1,-1 1,0 2,1 2,1l0 2c-1,-1 -1,-1 -2,-1 0,0 -1,0 -1,1 0,0 -1,0 -1,1 0,0 0,1 0,2l0 6 -2 0z"/>
   <path id="4" class="fil2" d="M110 428l2 0c0,2 -1,2 -2,3 -1,1 -2,1 -3,1 -2,0 -3,0 -4,-1 -1,-1 -1,-3 -1,-5 0,-2 0,-3 1,-4 1,-1 2,-2 4,-2 1,0 3,1 4,2 1,1 1,2 1,4 0,0 0,0 0,1l-8 0c0,1 0,2 1,2 0,1 1,1 2,1 1,0 1,0 2,0 0,0 1,-1 1,-2zm-6 -3l6 0c0,-1 0,-2 -1,-2 0,-1 -1,-1 -2,-1 -1,0 -2,0 -2,1 -1,0 -1,1 -1,2z"/>
   <path id="5" class="fil2" d="M114 432l0 -11 2 0 0 1c1,-1 2,-2 4,-2 0,0 1,0 1,1 1,0 1,0 2,1 0,0 0,1 0,1 0,0 0,1 0,2l0 7 -1 0 0 -7c0,-1 -1,-1 -1,-2 0,0 0,0 0,-1 -1,0 -1,0 -2,0 -1,0 -1,0 -2,1 0,0 -1,1 -1,3l0 6 -2 0z"/>
   <path id="6" class="fil2" d="M130 430l1 2c-1,0 -1,0 -2,0 0,0 -1,0 -1,0 -1,-1 -1,-1 -1,-1 0,-1 0,-1 0,-3l0 -6 -2 0 0 -1 2 0 0 -3 2 -1 0 4 1 0 0 1 -1 0 0 7c0,0 0,0 0,1 0,0 0,0 0,0 0,0 0,0 1,0 0,0 0,0 0,0z"/>
   <polygon id="7" class="fil2" points="138,432 138,416 141,416 141,430 148,430 148,432 "/>
   <path id="8" class="fil2" d="M150 418l0 -2 2 0 0 2 -2 0zm0 14l0 -11 2 0 0 11 -2 0z"/>
   <path id="9" class="fil2" d="M162 430c0,1 -1,1 -2,2 0,0 -1,0 -2,0 -1,0 -2,0 -3,-1 0,0 -1,-1 -1,-2 0,-1 1,-1 1,-2 0,0 0,0 1,-1 0,0 1,0 1,0 1,0 1,-1 2,-1 1,0 3,0 3,0 0,-1 0,-1 0,-1 0,-1 0,-1 0,-1 -1,-1 -1,-1 -2,-1 -1,0 -2,0 -2,0 -1,1 -1,1 -1,2l-2 0c0,-1 0,-2 1,-2 0,-1 1,-1 1,-1 1,-1 2,-1 3,-1 1,0 2,0 2,1 1,0 1,0 2,1 0,0 0,0 0,1 0,0 0,1 0,2l0 2c0,2 0,3 0,3 0,1 1,1 1,2l-2 0c0,-1 -1,-1 -1,-2zm0 -4c0,0 -1,1 -3,1 -1,0 -1,0 -1,0 -1,0 -1,1 -1,1 0,0 0,0 0,1 0,0 0,1 0,1 0,0 1,1 2,1 0,0 1,-1 2,-1 0,0 1,-1 1,-1 0,-1 0,-1 0,-2l0 -1z"/>
   <path id="10" class="fil2" d="M169 432l-2 0 0 -16 2 0 0 6c1,-1 2,-2 3,-2 1,0 1,0 2,1 1,0 1,0 2,1 0,0 0,1 0,2 1,0 1,1 1,2 0,2 -1,3 -2,4 -1,1 -2,2 -3,2 -1,0 -2,-1 -3,-2l0 2zm0 -6c0,1 0,2 0,3 1,1 2,1 3,1 1,0 1,0 2,-1 1,0 1,-1 1,-3 0,-1 0,-2 -1,-3 -1,-1 -1,-1 -2,-1 -1,0 -2,0 -2,1 -1,1 -1,2 -1,3z"/>
   <path id="11" class="fil2" d="M179 418l0 -2 2 0 0 2 -2 0zm0 14l0 -11 2 0 0 11 -2 0z"/>
   <polygon id="12" class="fil2" points="184,432 184,416 186,416 186,432 "/>
   <path id="13" class="fil2" d="M189 418l0 -2 2 0 0 2 -2 0zm0 14l0 -11 2 0 0 11 -2 0z"/>
   <path id="14" class="fil2" d="M198 430l0 2c-1,0 -1,0 -2,0 0,0 -1,0 -1,0 -1,-1 -1,-1 -1,-1 0,-1 0,-1 0,-3l0 -6 -2 0 0 -1 2 0 0 -3 2 -1 0 4 2 0 0 1 -2 0 0 7c0,0 0,0 0,1 0,0 0,0 0,0 0,0 1,0 1,0 0,0 0,0 1,0z"/>
   <path id="15" class="fil2" d="M200 418l0 -2 1 0 0 2 -1 0zm0 14l0 -11 1 0 0 11 -1 0z"/>
   <path id="16" class="fil2" d="M212 428l2 0c0,2 -1,2 -2,3 -1,1 -2,1 -3,1 -2,0 -3,0 -4,-1 -1,-1 -1,-3 -1,-5 0,-2 0,-3 1,-4 1,-1 2,-2 4,-2 1,0 3,1 4,2 1,1 1,2 1,4 0,0 0,0 0,1l-8 0c0,1 0,2 1,2 0,1 1,1 2,1 1,0 1,0 2,0 0,0 1,-1 1,-2zm-6 -3l6 0c0,-1 0,-2 -1,-2 0,-1 -1,-1 -2,-1 -1,0 -2,0 -2,1 -1,0 -1,1 -1,2z"/>
   <path id="17" class="fil2" d="M216 428l1 0c1,1 1,1 1,2 1,0 1,0 2,0 1,0 2,0 2,0 1,0 1,-1 1,-1 0,-1 0,-1 -1,-1 0,0 -1,-1 -2,-1 -1,0 -2,-1 -2,-1 -1,0 -1,0 -2,-1 0,0 0,-1 0,-1 0,-1 0,-1 0,-2 0,0 1,-1 1,-1 0,0 1,0 1,0 1,-1 1,-1 2,-1 1,0 2,0 2,1 1,0 1,0 2,1 0,0 0,1 0,1l-1 1c-1,-1 -1,-1 -1,-2 -1,0 -1,0 -2,0 -1,0 -1,0 -2,0 0,1 0,1 0,1 0,1 0,1 0,1 0,0 0,0 1,1 0,0 0,0 1,0 2,0 3,1 3,1 1,0 1,0 1,1 1,0 1,1 1,1 0,1 0,2 -1,2 0,1 -1,1 -1,2 -1,0 -2,0 -3,0 -1,0 -2,0 -3,-1 -1,0 -1,-1 -1,-3z"/>
   <path class="fil2" d="M72 475l2 1c-1,2 -2,3 -3,4 -1,1 -2,1 -4,1 -1,0 -3,0 -4,-1 -1,-1 -2,-2 -2,-3 -1,-1 -1,-3 -1,-4 0,-2 0,-3 1,-4 1,-1 1,-2 3,-3 1,-1 2,-1 3,-1 2,0 3,0 4,1 1,1 2,2 2,4l-2 0c0,-1 -1,-2 -1,-2 -1,-1 -2,-1 -3,-1 -1,0 -2,0 -3,1 -1,0 -1,1 -1,2 -1,1 -1,2 -1,3 0,1 0,2 1,3 0,1 1,2 1,3 1,0 2,0 3,0 1,0 2,0 3,-1 1,0 1,-1 2,-3z"/>
   <path id="1" class="fil2" d="M83 481l0 -2c-1,1 -2,2 -3,2 -1,0 -2,0 -2,0 -1,-1 -1,-1 -1,-1 -1,-1 -1,-1 -1,-2 0,0 0,-1 0,-1l0 -7 2 0 0 6c0,1 0,1 0,2 0,0 0,1 1,1 0,0 1,0 1,0 1,0 1,0 2,0 0,0 1,-1 1,-1 0,-1 0,-1 0,-2l0 -6 2 0 0 11 -2 0z"/>
   <path id="2" class="fil2" d="M88 481l0 -11 2 0 0 1c0,0 0,-1 1,-1 0,0 1,-1 1,-1 1,0 1,1 2,1l-1 2c0,-1 -1,-1 -1,-1 0,0 -1,0 -1,1 0,0 -1,0 -1,1 0,0 0,1 0,2l0 6 -2 0z"/>
   <path id="3" class="fil2" d="M95 481l0 -11 2 0 0 1c0,0 1,-1 1,-1 0,0 1,-1 1,-1 1,0 2,1 2,1l0 2c-1,-1 -1,-1 -2,-1 0,0 -1,0 -1,1 0,0 -1,0 -1,1 0,0 0,1 0,2l0 6 -2 0z"/>
   <path id="4" class="fil2" d="M110 477l2 0c0,2 -1,2 -2,3 -1,1 -2,1 -3,1 -2,0 -3,0 -4,-1 -1,-1 -1,-3 -1,-5 0,-2 0,-3 1,-4 1,-1 2,-2 4,-2 1,0 3,1 4,2 1,1 1,2 1,4 0,0 0,0 0,1l-8 0c0,1 0,2 1,3 0,0 1,1 2,1 1,0 1,-1 2,-1 0,0 1,-1 1,-2zm-6 -3l6 0c0,-1 0,-1 -1,-2 0,-1 -1,-1 -2,-1 -1,0 -2,0 -2,1 -1,0 -1,1 -1,2z"/>
   <path id="5" class="fil2" d="M114 481l0 -11 2 0 0 1c1,-1 2,-2 4,-2 0,0 1,1 1,1 1,0 1,0 2,1 0,0 0,1 0,1 0,0 0,1 0,2l0 7 -1 0 0 -7c0,-1 -1,-1 -1,-2 0,0 0,0 0,-1 -1,0 -1,0 -2,0 -1,0 -1,0 -2,1 0,0 -1,1 -1,3l0 6 -2 0z"/>
   <path id="6" class="fil2" d="M130 479l1 2c-1,0 -1,0 -2,0 0,0 -1,0 -1,0 -1,-1 -1,-1 -1,-1 0,-1 0,-1 0,-2l0 -7 -2 0 0 -1 2 0 0 -3 2 -1 0 4 1 0 0 1 -1 0 0 7c0,0 0,1 0,1 0,0 0,0 0,0 0,0 0,0 1,0 0,0 0,0 0,0z"/>
   <path id="7" class="fil2" d="M136 481l6 -16 2 0 6 16 -2 0 -2 -5 -6 0 -2 5 -2 0zm4 -7l5 0 -1 -4c-1,-1 -1,-2 -1,-3 -1,1 -1,2 -1,3l-2 4z"/>
   <path id="8" class="fil2" d="M151 477l2 0c0,1 0,2 1,2 0,0 1,1 2,1 0,0 1,-1 1,-1 1,0 1,-1 1,-1 0,-1 0,-1 0,-1 -1,0 -1,-1 -2,-1 -2,0 -3,-1 -3,-1 -1,0 -1,0 -1,-1 -1,0 -1,-1 -1,-1 0,-1 0,-1 0,-2 1,0 1,-1 1,-1 1,0 1,0 2,0 0,-1 1,-1 1,-1 1,0 2,1 3,1 0,0 1,0 1,1 0,0 1,1 1,2l-2 0c0,-1 -1,-1 -1,-2 0,0 -1,0 -2,0 -1,0 -1,0 -2,0 0,1 0,1 0,1 0,1 0,1 0,1 0,0 1,0 1,1 0,0 1,0 2,0 1,0 2,1 2,1 1,0 1,0 2,1 0,0 0,1 0,2 0,0 0,1 0,1 -1,1 -1,1 -2,2 -1,0 -2,0 -2,0 -2,0 -3,0 -4,-1 -1,0 -1,-1 -1,-3z"/>
   <path id="9" class="fil2" d="M162 477l1 0c1,1 1,2 1,2 1,0 1,1 2,1 1,0 2,-1 2,-1 1,0 1,-1 1,-1 0,-1 0,-1 -1,-1 0,0 -1,-1 -2,-1 -1,0 -2,-1 -2,-1 -1,0 -1,0 -2,-1 0,0 0,-1 0,-1 0,-1 0,-1 0,-2 0,0 1,-1 1,-1 0,0 1,0 1,0 1,-1 1,-1 2,-1 1,0 2,1 2,1 1,0 1,0 2,1 0,0 0,1 0,2l-1 0c-1,-1 -1,-1 -1,-2 -1,0 -1,0 -2,0 -1,0 -1,0 -2,0 0,1 0,1 0,1 0,1 0,1 0,1 0,0 0,0 1,1 0,0 0,0 1,0 2,0 3,1 3,1 1,0 1,0 1,1 1,0 1,1 1,2 0,0 0,1 -1,1 0,1 -1,1 -1,2 -1,0 -2,0 -3,0 -1,0 -2,0 -3,-1 -1,0 -1,-1 -1,-3z"/>
   <path id="10" class="fil2" d="M181 477l2 0c-1,2 -1,2 -2,3 -1,1 -2,1 -3,1 -2,0 -3,0 -4,-1 -1,-1 -2,-3 -2,-5 0,-2 1,-3 2,-4 1,-1 2,-2 4,-2 1,0 2,1 3,2 1,1 2,2 2,4 0,0 0,0 0,1l-9 0c1,1 1,2 1,3 1,0 2,1 3,1 1,0 1,-1 2,-1 0,0 0,-1 1,-2zm-6 -3l6 0c0,-1 -1,-1 -1,-2 -1,-1 -1,-1 -2,-1 -1,0 -2,0 -2,1 -1,0 -1,1 -1,2z"/>
   <path id="11" class="fil2" d="M189 479l1 2c-1,0 -2,0 -2,0 -1,0 -1,0 -2,0 0,-1 0,-1 0,-1 0,-1 -1,-1 -1,-2l0 -7 -1 0 0 -1 1 0 0 -3 2 -1 0 4 2 0 0 1 -2 0 0 7c0,0 0,1 0,1 1,0 1,0 1,0 0,0 0,0 0,0 1,0 1,0 1,0z"/>
   <path id="12" class="fil2" d="M190 477l2 0c0,1 1,2 1,2 1,0 1,1 2,1 1,0 2,-1 2,-1 1,0 1,-1 1,-1 0,-1 0,-1 -1,-1 0,0 -1,-1 -2,-1 -1,0 -2,-1 -3,-1 0,0 -1,0 -1,-1 0,0 0,-1 0,-1 0,-1 0,-1 0,-2 0,0 1,-1 1,-1 0,0 1,0 1,0 1,-1 1,-1 2,-1 1,0 1,1 2,1 1,0 1,0 2,1 0,0 0,1 0,2l-2 0c0,-1 0,-1 0,-2 -1,0 -1,0 -2,0 -1,0 -2,0 -2,0 0,1 0,1 0,1 0,1 0,1 0,1 0,0 0,0 0,1 1,0 1,0 2,0 1,0 2,1 3,1 0,0 1,0 1,1 1,0 1,1 1,2 0,0 -1,1 -1,1 0,1 -1,1 -1,2 -1,0 -2,0 -3,0 -1,0 -2,0 -3,-1 -1,0 -1,-1 -2,-3z"/>
   <path class="fil2" d="M60 521l2 0c0,1 0,1 0,2 1,0 1,1 2,1 1,0 2,0 2,0 1,0 2,0 2,0 1,0 1,-1 2,-1 0,0 0,-1 0,-1 0,-1 0,-1 0,-2 0,0 -1,0 -2,0 0,-1 -1,-1 -2,-1 -2,-1 -3,-1 -3,-1 -1,-1 -2,-1 -2,-2 0,0 -1,-1 -1,-1 0,-1 1,-2 1,-3 1,0 1,-1 2,-1 1,-1 2,-1 3,-1 1,0 2,0 3,1 1,0 2,1 2,1 0,1 1,2 1,3l-2 0c0,-1 -1,-2 -1,-2 -1,-1 -2,-1 -3,-1 -1,0 -2,0 -3,1 0,0 -1,1 -1,1 0,1 1,1 1,2 0,0 1,0 3,1 2,0 3,1 4,1 0,0 1,1 2,1 0,1 0,2 0,3 0,0 0,1 -1,2 0,1 -1,1 -2,2 0,0 -1,0 -3,0 -1,0 -2,0 -3,0 -1,-1 -2,-1 -2,-2 -1,-1 -1,-2 -1,-3z"/>
   <path id="1" class="fil2" d="M82 525c-1,0 -1,1 -2,1 -1,0 -1,0 -2,0 -1,0 -2,0 -3,-1 -1,0 -1,-1 -1,-2 0,-1 0,-1 0,-2 1,0 1,0 1,-1 1,0 1,0 2,0 0,0 1,0 2,-1 1,0 2,0 3,0 0,0 0,-1 0,-1 0,0 0,-1 -1,-1 0,-1 -1,-1 -2,-1 -1,0 -1,0 -2,1 0,0 -1,0 -1,1l-2 0c1,-1 1,-1 1,-2 1,0 1,-1 2,-1 1,0 2,0 2,0 1,0 2,0 3,0 0,0 1,0 1,1 0,0 1,0 1,1 0,0 0,1 0,2l0 2c0,2 0,3 0,4 0,0 0,1 0,1l-2 0c0,0 0,-1 0,-1zm0 -5c-1,1 -2,1 -3,1 -1,0 -2,0 -2,0 0,1 0,1 -1,1 0,0 0,1 0,1 0,0 0,1 1,1 0,1 1,1 1,1 1,0 2,0 2,-1 1,0 1,-1 2,-1 0,-1 0,-1 0,-2l0 -1z"/>
   <path id="2" class="fil2" d="M87 526l0 -11 1 0 0 1c1,0 1,-1 2,-1 0,0 1,0 2,0 1,0 1,0 2,0 0,0 1,1 1,1 1,-1 2,-1 3,-1 2,0 2,0 3,0 1,1 1,2 1,3l0 8 -2 0 0 -7c0,-1 0,-1 0,-2 0,0 0,0 -1,-1 0,0 -1,0 -1,0 -1,0 -1,0 -2,1 0,0 -1,1 -1,2l0 7 -2 0 0 -7c0,-1 0,-2 0,-2 0,-1 -1,-1 -2,-1 0,0 -1,0 -1,1 -1,0 -1,0 -1,1 0,0 0,1 0,2l0 6 -2 0z"/>
   <path id="3" class="fil2" d="M105 530l0 -15 1 0 0 1c1,0 1,-1 2,-1 0,0 1,0 2,0 1,0 1,0 2,0 1,1 2,1 2,2 0,1 0,2 0,3 0,1 0,2 0,3 -1,1 -1,2 -2,2 -1,1 -2,1 -2,1 -1,0 -2,0 -2,0 -1,0 -1,-1 -1,-1l0 5 -2 0zm1 -10c0,2 1,3 1,4 1,0 2,1 2,1 1,0 2,-1 3,-1 0,-1 0,-2 0,-4 0,-1 0,-2 0,-3 -1,-1 -2,-1 -2,-1 -1,0 -2,0 -3,1 0,1 -1,2 -1,3z"/>
   <polygon id="4" class="fil2" points="117,526 117,510 119,510 119,526 "/>
   <path id="5" class="fil2" d="M129 522l2 1c0,1 -1,2 -2,2 0,1 -1,1 -3,1 -1,0 -3,0 -4,-1 -1,-1 -1,-3 -1,-5 0,-1 0,-3 1,-4 1,-1 3,-1 4,-1 2,0 3,0 4,1 1,1 1,2 1,4 0,0 0,1 0,1l-8 0c0,1 0,2 1,3 1,0 1,1 2,1 1,0 2,-1 2,-1 0,0 1,-1 1,-2zm-6 -3l6 0c0,-1 0,-1 -1,-2 0,-1 -1,-1 -2,-1 -1,0 -1,0 -2,1 -1,1 -1,1 -1,2z"/>
   <path id="6" class="fil2" d="M149 524l0 2 -10 0c0,-1 0,-1 0,-1 0,-1 1,-2 1,-2 1,-1 2,-2 3,-3 1,-1 3,-2 3,-3 1,-1 1,-2 1,-2 0,-1 0,-2 -1,-2 0,-1 -1,-1 -2,-1 -1,0 -2,0 -2,1 -1,0 -1,1 -1,2l-2 0c0,-2 1,-3 2,-3 0,-1 2,-2 3,-2 2,0 3,1 4,2 1,0 1,2 1,3 0,0 0,1 0,2 -1,0 -1,1 -2,1 0,1 -1,2 -3,3 -1,1 -1,2 -2,2 0,0 0,1 -1,1l8 0z"/>
   <g id="_2490692094608">
    <path class="fil2" d="M312 377l2 0c0,1 0,2 1,2 0,1 1,1 2,1 1,0 1,0 2,-1 1,-1 1,-2 1,-3 0,-1 0,-2 -1,-2 -1,-1 -1,-1 -2,-1 -1,0 -2,0 -2,0 -1,1 -1,1 -1,1l-2 0 2 -8 7 0 0 2 -6 0 -1 4c1,-1 2,-1 3,-1 1,0 3,1 4,2 0,0 1,2 1,3 0,2 0,3 -1,4 -1,1 -3,2 -4,2 -2,0 -3,-1 -4,-2 -1,0 -1,-1 -1,-3z"/>
    <path id="1" class="fil2" d="M324 374c0,-2 0,-4 0,-5 1,-1 1,-2 2,-2 1,-1 2,-1 3,-1 1,0 1,0 2,0 1,1 1,1 1,2 1,0 1,1 1,2 1,1 1,2 1,4 0,2 0,3 -1,4 0,1 -1,2 -1,3 -1,0 -2,1 -3,1 -2,0 -3,-1 -4,-2 -1,-1 -1,-3 -1,-6zm2 0c0,2 0,4 1,5 0,1 1,1 2,1 1,0 1,0 2,-1 1,-1 1,-3 1,-5 0,-3 0,-4 -1,-5 -1,-1 -1,-2 -2,-2 -1,0 -2,1 -2,2 -1,1 -1,2 -1,5z"/>
    <path id="2" class="fil2" d="M337 381l0 -2 2 0 0 2c0,1 0,2 -1,2 0,1 0,1 -1,1l0 0c0,-1 0,-1 0,-1 1,0 1,-1 1,-2l-1 0z"/>
    <path id="3" class="fil2" d="M342 377l2 0c0,1 0,2 1,2 0,1 1,1 2,1 1,0 1,0 2,-1 1,-1 1,-2 1,-3 0,-1 0,-2 -1,-2 -1,-1 -1,-1 -2,-1 -1,0 -2,0 -2,0 -1,1 -1,1 -1,1l-2 0 2 -8 7 0 0 2 -6 0 -1 4c1,-1 2,-1 3,-1 1,0 3,1 4,2 0,0 1,2 1,3 0,2 0,3 -1,4 -1,1 -3,2 -4,2 -2,0 -3,-1 -4,-2 -1,0 -1,-1 -1,-3z"/>
    <path id="4" class="fil2" d="M354 374c0,-2 0,-4 0,-5 1,-1 1,-2 2,-2 1,-1 2,-1 3,-1 1,0 1,0 2,0 1,1 1,1 1,2 1,0 1,1 1,2 1,1 1,2 1,4 0,2 0,3 -1,4 0,1 -1,2 -1,3 -1,0 -2,1 -3,1 -2,0 -3,-1 -4,-2 -1,-1 -1,-3 -1,-6zm2 0c0,2 0,4 1,5 0,1 1,1 2,1 1,0 1,0 2,-1 1,-1 1,-3 1,-5 0,-3 0,-4 -1,-5 -1,-1 -1,-2 -2,-2 -1,0 -2,1 -2,2 -1,1 -1,2 -1,5z"/>
    <path id="5" class="fil2" d="M366 374c0,-2 0,-4 0,-5 1,-1 1,-2 2,-2 1,-1 2,-1 3,-1 1,0 1,0 2,0 1,1 1,1 1,2 1,0 1,1 1,2 1,1 1,2 1,4 0,2 0,3 -1,4 0,1 -1,2 -1,3 -1,0 -2,1 -3,1 -2,0 -3,-1 -4,-2 -1,-1 -1,-3 -1,-6zm2 0c0,2 0,4 1,5 0,1 1,1 2,1 1,0 1,0 2,-1 1,-1 1,-3 1,-5 0,-3 0,-4 -1,-5 -1,-1 -1,-2 -2,-2 -1,0 -2,1 -2,2 -1,1 -1,2 -1,5z"/>
    <path class="fil2" d="M330 428l2 0c0,1 0,1 1,2 0,0 1,0 2,0 1,0 1,0 2,-1 1,0 1,-1 1,-2 0,-1 0,-2 -1,-3 -1,0 -1,-1 -2,-1 -1,0 -2,0 -2,1 -1,0 -1,0 -1,1l-2 -1 2 -7 7 0 0 1 -6 0 -1 5c1,-1 2,-1 3,-1 1,0 3,0 4,1 0,1 1,2 1,4 0,1 0,2 -1,3 -1,1 -3,2 -4,2 -2,0 -3,0 -4,-1 -1,-1 -1,-2 -1,-3z"/>
    <path id="1" class="fil2" d="M342 424c0,-2 0,-3 0,-4 1,-1 1,-2 2,-3 1,0 2,-1 3,-1 1,0 1,0 2,1 1,0 1,1 1,1 1,1 1,2 1,3 1,0 1,2 1,3 0,2 0,3 -1,5 0,1 -1,2 -1,2 -1,1 -2,1 -3,1 -2,0 -3,0 -4,-2 -1,-1 -1,-3 -1,-6zm2 0c0,3 0,4 1,5 0,1 1,1 2,1 1,0 1,0 2,-1 1,-1 1,-2 1,-5 0,-2 0,-4 -1,-5 -1,-1 -1,-1 -2,-1 -1,0 -2,0 -2,1 -1,1 -1,3 -1,5z"/>
    <path id="2" class="fil2" d="M354 424c0,-2 0,-3 0,-4 1,-1 1,-2 2,-3 1,0 2,-1 3,-1 1,0 1,0 2,1 1,0 1,1 1,1 1,1 1,2 1,3 1,0 1,2 1,3 0,2 0,3 -1,5 0,1 -1,2 -1,2 -1,1 -2,1 -3,1 -2,0 -3,0 -4,-2 -1,-1 -1,-3 -1,-6zm2 0c0,3 0,4 1,5 0,1 1,1 2,1 1,0 1,0 2,-1 1,-1 1,-2 1,-5 0,-2 0,-4 -1,-5 -1,-1 -1,-1 -2,-1 -1,0 -2,0 -2,1 -1,1 -1,3 -1,5z"/>
    <path id="3" class="fil2" d="M366 424c0,-2 0,-3 0,-4 1,-1 1,-2 2,-3 1,0 2,-1 3,-1 1,0 1,0 2,1 1,0 1,1 1,1 1,1 1,2 1,3 1,0 1,2 1,3 0,2 0,3 -1,5 0,1 -1,2 -1,2 -1,1 -2,1 -3,1 -2,0 -3,0 -4,-2 -1,-1 -1,-3 -1,-6zm2 0c0,3 0,4 1,5 0,1 1,1 2,1 1,0 1,0 2,-1 1,-1 1,-2 1,-5 0,-2 0,-4 -1,-5 -1,-1 -1,-1 -2,-1 -1,0 -2,0 -2,1 -1,1 -1,3 -1,5z"/>
    <path class="fil2" d="M319 481l-2 0 0 -12c-1,0 -1,1 -2,1 -1,0 -1,1 -2,1l0 -2c1,0 2,-1 3,-2 1,0 1,-1 2,-2l1 0 0 16z"/>
    <path id="1" class="fil2" d="M334 479l0 2 -11 0c0,-1 0,-1 1,-1 0,-1 0,-2 1,-3 0,0 1,-1 2,-2 2,-1 3,-2 4,-3 0,-1 1,-2 1,-2 0,-1 -1,-2 -1,-2 -1,-1 -1,-1 -2,-1 -1,0 -2,0 -2,1 -1,0 -1,1 -1,2l-2 0c0,-2 0,-3 1,-4 1,0 2,-1 4,-1 1,0 2,1 3,2 1,0 2,1 2,3 0,0 -1,1 -1,1 0,1 0,2 -1,2 -1,1 -2,2 -3,3 -1,1 -2,2 -2,2 0,0 -1,1 -1,1l8 0z"/>
    <path id="2" class="fil2" d="M337 481l0 -2 2 0 0 2c0,1 0,1 -1,2 0,0 0,1 -1,1l0 -1c0,0 0,0 0,-1 1,0 1,-1 1,-1l-1 0z"/>
    <path id="3" class="fil2" d="M352 469l-2 0c0,0 -1,-1 -1,-1 -1,-1 -1,-1 -2,-1 -1,0 -1,0 -2,0 0,1 -1,1 -1,2 0,1 0,2 -1,4 1,-1 2,-1 2,-2 1,0 2,0 2,0 2,0 3,0 3,1 1,1 2,2 2,4 0,1 0,2 -1,3 0,0 -1,1 -2,1 0,1 -1,1 -2,1 -2,0 -3,-1 -4,-2 -1,-1 -1,-3 -1,-5 0,-3 0,-6 1,-7 1,-1 3,-2 4,-2 1,0 2,1 3,1 1,1 1,2 2,3zm-8 7c0,0 0,1 0,2 0,0 1,1 1,1 1,0 1,1 2,1 1,0 1,-1 2,-1 1,-1 1,-2 1,-3 0,-1 0,-2 -1,-3 -1,0 -1,-1 -2,-1 -1,0 -2,1 -2,1 -1,1 -1,2 -1,3z"/>
    <path id="4" class="fil2" d="M354 477l2 0c0,1 0,1 1,2 0,0 1,1 2,1 1,0 1,-1 2,-2 1,0 1,-1 1,-2 0,-1 0,-2 -1,-3 -1,0 -1,-1 -2,-1 -1,0 -2,0 -2,1 0,0 -1,0 -1,1l-2 0 2 -8 7 0 0 1 -6 0 -1 5c1,-1 2,-1 3,-1 1,0 3,0 4,1 0,1 1,2 1,4 0,1 0,2 -1,3 -1,1 -3,2 -4,2 -2,0 -3,0 -4,-1 -1,-1 -1,-2 -1,-3z"/>
    <path id="5" class="fil2" d="M372 481l0 -4 -7 0 0 -2 7 -10 2 0 0 10 2 0 0 2 -2 0 0 4 -2 0zm0 -6l0 -7 -5 7 5 0z"/>
    <path class="fil2" d="M319 526l-2 0 0 -12c-1,0 -1,1 -2,1 -1,1 -1,1 -2,1l0 -2c1,0 2,-1 3,-2 1,0 1,-1 2,-2l1 0 0 16z"/>
    <path id="1" class="fil2" d="M324 522l2 0c0,1 0,1 1,2 0,0 1,1 2,1 1,0 1,-1 2,-1 1,-1 1,-2 1,-3 0,0 0,-1 -1,-2 -1,0 -1,-1 -2,-1 -1,0 -1,0 -2,1l1 -2c0,0 0,0 0,0 1,0 1,0 2,-1 1,0 1,-1 1,-2 0,0 0,-1 -1,-1 0,-1 -1,-1 -1,-1 -1,0 -2,0 -2,1 -1,0 -1,1 -1,2l-2 -1c0,-1 1,-2 1,-3 1,0 2,-1 4,-1 0,0 1,1 2,1 1,0 1,1 1,1 1,1 1,2 1,2 0,1 0,2 0,2 -1,1 -1,1 -2,2 1,0 2,0 2,1 1,1 1,1 1,2 0,2 -1,3 -2,4 -1,1 -2,1 -3,1 -2,0 -3,0 -4,-1 -1,-1 -1,-2 -1,-3z"/>
    <path id="2" class="fil2" d="M337 526l0 -2 2 0 0 2c0,1 0,1 -1,2 0,0 0,1 -1,1l0 -1c0,0 0,0 0,-1 1,0 1,0 1,-1l-1 0z"/>
    <path id="3" class="fil2" d="M342 518c0,-2 0,-3 0,-4 1,-1 1,-2 2,-3 1,0 2,-1 3,-1 1,0 1,1 2,1 1,0 1,1 1,1 1,1 1,2 1,3 1,1 1,2 1,3 0,2 0,4 -1,5 0,1 -1,2 -1,2 -1,1 -2,1 -3,1 -2,0 -3,0 -4,-1 -1,-2 -1,-4 -1,-7zm2 0c0,3 0,5 1,5 0,1 1,2 2,2 1,0 1,-1 2,-2 1,0 1,-2 1,-5 0,-2 0,-4 -1,-5 -1,-1 -1,-1 -2,-1 -1,0 -2,0 -2,1 -1,1 -1,3 -1,5z"/>
    <path id="4" class="fil2" d="M354 518c0,-2 0,-3 0,-4 1,-1 1,-2 2,-3 1,0 2,-1 3,-1 1,0 1,1 2,1 1,0 1,1 1,1 1,1 1,2 1,3 1,1 1,2 1,3 0,2 0,4 -1,5 0,1 -1,2 -1,2 -1,1 -2,1 -3,1 -2,0 -3,0 -4,-1 -1,-2 -1,-4 -1,-7zm2 0c0,3 0,5 1,5 0,1 1,2 2,2 1,0 1,-1 2,-2 1,0 1,-2 1,-5 0,-2 0,-4 -1,-5 -1,-1 -1,-1 -2,-1 -1,0 -2,0 -2,1 -1,1 -1,3 -1,5z"/>
    <path id="5" class="fil2" d="M366 518c0,-2 0,-3 0,-4 1,-1 1,-2 2,-3 1,0 2,-1 3,-1 1,0 1,1 2,1 1,0 1,1 1,1 1,1 1,2 1,3 1,1 1,2 1,3 0,2 0,4 -1,5 0,1 -1,2 -1,2 -1,1 -2,1 -3,1 -2,0 -3,0 -4,-1 -1,-2 -1,-4 -1,-7zm2 0c0,3 0,5 1,5 0,1 1,2 2,2 1,0 1,-1 2,-2 1,0 1,-2 1,-5 0,-2 0,-4 -1,-5 -1,-1 -1,-1 -2,-1 -1,0 -2,0 -2,1 -1,1 -1,3 -1,5z"/>
   </g>
   <path class="fil2" d="M429 377l2 0c0,1 1,2 1,2 1,1 1,1 2,1 1,0 2,0 2,-1 1,-1 1,-2 1,-3 0,-1 0,-2 0,-2 -1,-1 -2,-1 -3,-1 0,0 -1,0 -2,0 0,1 0,1 -1,1l-1 0 1 -8 8 0 0 2 -6 0 -1 4c1,-1 2,-1 3,-1 1,0 2,1 3,2 1,0 1,2 1,3 0,2 0,3 -1,4 -1,1 -2,2 -4,2 -1,0 -2,-1 -3,-2 -1,0 -2,-1 -2,-3z"/>
   <path id="1" class="fil2" d="M441 374c0,-2 0,-4 1,-5 0,-1 1,-2 1,-2 1,-1 2,-1 3,-1 1,0 2,0 2,0 1,1 2,1 2,2 0,0 1,1 1,2 0,1 0,2 0,4 0,2 0,3 0,4 -1,1 -1,2 -2,3 -1,0 -2,1 -3,1 -1,0 -2,-1 -3,-2 -1,-1 -2,-3 -2,-6zm2 0c0,2 0,4 1,5 1,1 1,1 2,1 1,0 2,0 2,-1 1,-1 1,-3 1,-5 0,-3 0,-4 -1,-5 0,-1 -1,-2 -2,-2 -1,0 -1,1 -2,2 -1,1 -1,2 -1,5z"/>
   <path id="2" class="fil2" d="M453 374c0,-2 0,-4 1,-5 0,-1 1,-2 1,-2 1,-1 2,-1 3,-1 1,0 2,0 2,0 1,1 2,1 2,2 0,0 1,1 1,2 0,1 0,2 0,4 0,2 0,3 0,4 -1,1 -1,2 -2,3 -1,0 -2,1 -3,1 -1,0 -2,-1 -3,-2 -1,-1 -2,-3 -2,-6zm2 0c0,2 0,4 1,5 1,1 1,1 2,1 1,0 2,0 2,-1 1,-1 1,-3 1,-5 0,-3 0,-4 -1,-5 0,-1 -1,-2 -2,-2 -1,0 -1,1 -2,2 -1,1 -1,2 -1,5z"/>
   <path id="3" class="fil2" d="M465 374c0,-2 0,-4 1,-5 0,-1 1,-2 1,-2 1,-1 2,-1 3,-1 1,0 2,0 2,0 1,1 2,1 2,2 0,0 1,1 1,2 0,1 0,2 0,4 0,2 0,3 0,4 -1,1 -1,2 -2,3 -1,0 -2,1 -3,1 -1,0 -2,-1 -3,-2 -1,-1 -2,-3 -2,-6zm2 0c0,2 0,4 1,5 1,1 1,1 2,1 1,0 2,0 2,-1 1,-1 1,-3 1,-5 0,-3 0,-4 -1,-5 0,-1 -1,-2 -2,-2 -1,0 -1,1 -2,2 -1,1 -1,2 -1,5z"/>
   <path class="fil2" d="M465 424c0,-2 0,-3 1,-4 0,-1 1,-2 1,-3 1,0 2,-1 3,-1 1,0 2,0 2,1 1,0 2,1 2,1 0,1 1,2 1,3 0,0 0,2 0,3 0,2 0,3 0,5 -1,1 -1,2 -2,2 -1,1 -2,1 -3,1 -1,0 -2,0 -3,-2 -1,-1 -2,-3 -2,-6zm2 0c0,3 0,4 1,5 1,1 1,1 2,1 1,0 2,0 2,-1 1,-1 1,-2 1,-5 0,-2 0,-4 -1,-5 0,-1 -1,-1 -2,-1 -1,0 -1,0 -2,1 -1,1 -1,3 -1,5z"/>
   <path class="fil2" d="M435 481l0 -4 -6 0 0 -2 7 -10 1 0 0 10 2 0 0 2 -2 0 0 4 -2 0zm0 -6l0 -7 -5 7 5 0z"/>
   <path id="1" class="fil2" d="M441 473c0,-2 0,-3 1,-4 0,-1 1,-2 1,-3 1,0 2,-1 3,-1 1,0 2,0 2,1 1,0 2,1 2,1 0,1 1,2 1,3 0,0 0,2 0,3 0,2 0,3 0,5 -1,1 -1,2 -2,2 -1,1 -2,1 -3,1 -1,0 -2,0 -3,-2 -1,-1 -2,-3 -2,-6zm2 0c0,3 0,4 1,5 1,1 1,2 2,2 1,0 2,-1 2,-2 1,-1 1,-2 1,-5 0,-2 0,-4 -1,-5 0,-1 -1,-1 -2,-1 -1,0 -1,0 -2,1 -1,1 -1,3 -1,5z"/>
   <path id="2" class="fil2" d="M453 473c0,-2 0,-3 1,-4 0,-1 1,-2 1,-3 1,0 2,-1 3,-1 1,0 2,0 2,1 1,0 2,1 2,1 0,1 1,2 1,3 0,0 0,2 0,3 0,2 0,3 0,5 -1,1 -1,2 -2,2 -1,1 -2,1 -3,1 -1,0 -2,0 -3,-2 -1,-1 -2,-3 -2,-6zm2 0c0,3 0,4 1,5 1,1 1,2 2,2 1,0 2,-1 2,-2 1,-1 1,-2 1,-5 0,-2 0,-4 -1,-5 0,-1 -1,-1 -2,-1 -1,0 -1,0 -2,1 -1,1 -1,3 -1,5z"/>
   <path id="3" class="fil2" d="M465 473c0,-2 0,-3 1,-4 0,-1 1,-2 1,-3 1,0 2,-1 3,-1 1,0 2,0 2,1 1,0 2,1 2,1 0,1 1,2 1,3 0,0 0,2 0,3 0,2 0,3 0,5 -1,1 -1,2 -2,2 -1,1 -2,1 -3,1 -1,0 -2,0 -3,-2 -1,-1 -2,-3 -2,-6zm2 0c0,3 0,4 1,5 1,1 1,2 2,2 1,0 2,-1 2,-2 1,-1 1,-2 1,-5 0,-2 0,-4 -1,-5 0,-1 -1,-1 -2,-1 -1,0 -1,0 -2,1 -1,1 -1,3 -1,5z"/>
   <path class="fil2" d="M465 518c0,-2 0,-3 1,-4 0,-1 1,-2 1,-3 1,0 2,-1 3,-1 1,0 2,1 2,1 1,0 2,1 2,1 0,1 1,2 1,3 0,1 0,2 0,3 0,2 0,4 0,5 -1,1 -1,2 -2,2 -1,1 -2,1 -3,1 -1,0 -2,0 -3,-1 -1,-2 -2,-4 -2,-7zm2 0c0,3 0,5 1,5 1,1 1,2 2,2 1,0 2,-1 2,-2 1,0 1,-2 1,-5 0,-2 0,-4 -1,-5 0,-1 -1,-1 -2,-1 -1,0 -1,0 -2,1 -1,1 -1,3 -1,5z"/>
   <path class="fil2" d="M552 380l0 1 -10 0c-1,0 0,0 0,-1 0,-1 0,-1 1,-2 1,-1 1,-1 2,-2 2,-2 3,-3 4,-4 0,0 1,-1 1,-2 0,-1 -1,-1 -1,-2 -1,0 -1,-1 -2,-1 -1,0 -2,1 -2,1 -1,1 -1,2 -1,3l-2 -1c0,-1 1,-2 1,-3 1,-1 2,-1 4,-1 1,0 3,0 3,1 1,1 2,2 2,3 0,1 0,1 -1,2 0,1 0,1 -1,2 -1,1 -1,1 -3,3 -1,1 -2,1 -2,2 0,0 -1,0 -1,1l8 0z"/>
   <path id="1" class="fil2" d="M554 374c0,-2 0,-4 0,-5 1,-1 1,-2 2,-2 1,-1 2,-1 3,-1 1,0 1,0 2,0 1,1 1,1 2,2 0,0 0,1 0,2 1,1 1,2 1,4 0,2 0,3 -1,4 0,1 -1,2 -1,3 -1,0 -2,1 -3,1 -2,0 -3,-1 -4,-2 -1,-1 -1,-3 -1,-6zm2 0c0,2 0,4 1,5 0,1 1,1 2,1 1,0 1,0 2,-1 1,-1 1,-3 1,-5 0,-3 0,-4 -1,-5 -1,-1 -1,-2 -2,-2 -1,0 -2,1 -2,2 -1,1 -1,2 -1,5z"/>
   <path id="2" class="fil2" d="M566 374c0,-2 0,-4 0,-5 1,-1 1,-2 2,-2 1,-1 2,-1 3,-1 1,0 1,0 2,0 1,1 1,1 2,2 0,0 0,1 1,2 0,1 0,2 0,4 0,2 0,3 -1,4 0,1 -1,2 -1,3 -1,0 -2,1 -3,1 -2,0 -3,-1 -4,-2 -1,-1 -1,-3 -1,-6zm2 0c0,2 0,4 1,5 0,1 1,1 2,1 1,0 1,0 2,-1 1,-1 1,-3 1,-5 0,-3 0,-4 -1,-5 -1,-1 -1,-2 -2,-2 -1,0 -2,1 -2,2 -1,1 -1,2 -1,5z"/>
   <path id="3" class="fil2" d="M578 374c0,-2 0,-4 0,-5 1,-1 1,-2 2,-2 1,-1 2,-1 3,-1 1,0 1,0 2,0 1,1 1,1 2,2 0,0 0,1 1,2 0,1 0,2 0,4 0,2 0,3 -1,4 0,1 -1,2 -1,3 -1,0 -2,1 -3,1 -2,0 -3,-1 -4,-2 -1,-1 -1,-3 -1,-6zm2 0c0,2 0,4 1,5 0,1 1,1 2,1 1,0 1,0 2,-1 1,-1 1,-3 1,-5 0,-3 0,-4 -1,-5 -1,-1 -1,-2 -2,-2 -1,0 -2,1 -2,2 -1,1 -1,2 -1,5z"/>
   <path class="fil2" d="M578 424c0,-2 0,-3 0,-4 1,-1 1,-2 2,-3 1,0 2,-1 3,-1 1,0 1,0 2,1 1,0 1,1 2,1 0,1 0,2 1,3 0,0 0,2 0,3 0,2 0,3 -1,5 0,1 -1,2 -1,2 -1,1 -2,1 -3,1 -2,0 -3,0 -4,-2 -1,-1 -1,-3 -1,-6zm2 0c0,3 0,4 1,5 0,1 1,1 2,1 1,0 1,0 2,-1 1,-1 1,-2 1,-5 0,-2 0,-4 -1,-5 -1,-1 -1,-1 -2,-1 -1,0 -2,0 -2,1 -1,1 -1,3 -1,5z"/>
   <path class="fil2" d="M578 473c0,-2 0,-3 0,-4 1,-1 1,-2 2,-3 1,0 2,-1 3,-1 1,0 1,0 2,1 1,0 1,1 2,1 0,1 0,2 1,3 0,0 0,2 0,3 0,2 0,3 -1,5 0,1 -1,2 -1,2 -1,1 -2,1 -3,1 -2,0 -3,0 -4,-2 -1,-1 -1,-3 -1,-6zm2 0c0,3 0,4 1,5 0,1 1,2 2,2 1,0 1,-1 2,-2 1,-1 1,-2 1,-5 0,-2 0,-4 -1,-5 -1,-1 -1,-1 -2,-1 -1,0 -2,0 -2,1 -1,1 -1,3 -1,5z"/>
   <path class="fil2" d="M578 518c0,-2 0,-3 0,-4 1,-1 1,-2 2,-3 1,0 2,-1 3,-1 1,0 1,1 2,1 1,0 1,1 2,1 0,1 0,2 1,3 0,1 0,2 0,3 0,2 0,4 -1,5 0,1 -1,2 -1,2 -1,1 -2,1 -3,1 -2,0 -3,0 -4,-1 -1,-2 -1,-4 -1,-7zm2 0c0,3 0,5 1,5 0,1 1,2 2,2 1,0 1,-1 2,-2 1,0 1,-2 1,-5 0,-2 0,-4 -1,-5 -1,-1 -1,-1 -2,-1 -1,0 -2,0 -2,1 -1,1 -1,3 -1,5z"/>
   <path class="fil2" d="M669 381l-2 0 0 -12c0,1 -1,1 -2,2 0,0 -1,0 -2,1l0 -2c1,-1 2,-1 3,-2 1,-1 1,-1 2,-2l1 0 0 15z"/>
   <path id="1" class="fil2" d="M679 381l-1 0 0 -12c-1,1 -2,1 -2,2 -1,0 -2,0 -2,1l0 -2c1,-1 2,-1 3,-2 0,-1 1,-1 1,-2l1 0 0 15z"/>
   <path id="2" class="fil2" d="M685 381l0 -2 2 0 0 2c0,1 0,2 0,2 0,1 -1,1 -1,1l-1 0c1,-1 1,-1 1,-1 0,0 0,-1 0,-2l-1 0z"/>
   <path id="3" class="fil2" d="M690 377l2 0c0,1 1,2 1,2 1,1 2,1 2,1 1,0 2,0 3,-1 0,-1 1,-2 1,-3 0,-1 -1,-2 -1,-2 -1,-1 -2,-1 -3,-1 0,0 -1,0 -1,0 -1,1 -1,1 -2,1l-1 0 1 -8 8 0 0 2 -6 0 -1 4c1,-1 2,-1 3,-1 1,0 2,1 3,2 1,0 2,2 2,3 0,2 -1,3 -2,4 -1,1 -2,2 -4,2 -1,0 -2,-1 -3,-2 -1,0 -2,-1 -2,-3z"/>
   <path id="4" class="fil2" d="M702 374c0,-2 1,-4 1,-5 0,-1 1,-2 2,-2 0,-1 1,-1 2,-1 1,0 2,0 3,0 0,1 1,1 1,2 0,0 1,1 1,2 0,1 0,2 0,4 0,2 0,3 0,4 -1,1 -1,2 -2,3 -1,0 -2,1 -3,1 -1,0 -2,-1 -3,-2 -1,-1 -2,-3 -2,-6zm2 0c0,2 1,4 1,5 1,1 1,1 2,1 1,0 2,0 3,-1 0,-1 0,-3 0,-5 0,-3 0,-4 0,-5 -1,-1 -2,-2 -3,-2 -1,0 -1,1 -2,2 0,1 -1,2 -1,5z"/>
   <path id="5" class="fil2" d="M714 374c0,-2 1,-4 1,-5 0,-1 1,-2 2,-2 0,-1 1,-1 2,-1 1,0 2,0 3,0 0,1 1,1 1,2 0,0 1,1 1,2 0,1 0,2 0,4 0,2 0,3 0,4 -1,1 -1,2 -2,3 -1,0 -2,1 -3,1 -1,0 -2,-1 -3,-2 -1,-1 -2,-3 -2,-6zm2 0c0,2 1,4 1,5 1,1 1,1 2,1 1,0 2,0 3,-1 0,-1 0,-3 0,-5 0,-3 0,-4 0,-5 -1,-1 -2,-2 -3,-2 -1,0 -1,1 -2,2 0,1 -1,2 -1,5z"/>
   <path class="fil2" d="M678 428l2 0c0,1 1,1 1,2 1,0 2,0 2,0 1,0 2,0 3,-1 0,0 1,-1 1,-2 0,-1 -1,-2 -1,-3 -1,0 -2,-1 -3,-1 0,0 -1,0 -1,1 -1,0 -1,0 -2,1l-1 -1 1 -7 8 0 0 1 -6 0 -1 5c1,-1 2,-1 3,-1 1,0 2,0 3,1 1,1 2,2 2,4 0,1 -1,2 -2,3 -1,1 -2,2 -4,2 -1,0 -2,0 -3,-1 -1,-1 -2,-2 -2,-3z"/>
   <path id="1" class="fil2" d="M700 420l-2 0c0,0 0,-1 0,-1 -1,-1 -2,-1 -2,-1 -1,0 -1,0 -2,0 -1,1 -1,1 -1,2 -1,1 -1,2 -1,4 1,-1 1,-1 2,-2 0,0 1,0 2,0 1,0 2,0 3,1 1,1 1,2 1,4 0,1 0,2 0,2 -1,1 -1,2 -2,2 -1,1 -1,1 -2,1 -2,0 -3,-1 -4,-2 -1,-1 -2,-3 -2,-5 0,-3 1,-6 2,-7 1,-1 2,-2 4,-2 1,0 2,1 3,1 1,1 1,2 1,3zm-8 7c0,0 1,1 1,2 0,0 0,1 1,1 0,0 1,0 2,0 0,0 1,0 2,0 0,-1 0,-2 0,-3 0,-1 0,-2 0,-3 -1,0 -2,-1 -3,-1 0,0 -1,1 -2,1 0,1 -1,2 -1,3z"/>
   <path id="2" class="fil2" d="M702 424c0,-2 1,-3 1,-4 0,-1 1,-2 2,-3 0,0 1,-1 2,-1 1,0 2,0 3,1 0,0 1,1 1,1 0,1 1,2 1,3 0,0 0,2 0,3 0,2 0,3 0,5 -1,1 -1,2 -2,2 -1,1 -2,1 -3,1 -1,0 -2,0 -3,-2 -1,-1 -2,-3 -2,-6zm2 0c0,3 1,4 1,5 1,1 1,1 2,1 1,0 2,0 3,-1 0,-1 0,-2 0,-5 0,-2 0,-4 0,-5 -1,-1 -2,-1 -3,-1 -1,0 -1,0 -2,1 0,1 -1,3 -1,5z"/>
   <path id="3" class="fil2" d="M714 424c0,-2 1,-3 1,-4 0,-1 1,-2 2,-3 0,0 1,-1 2,-1 1,0 2,0 3,1 0,0 1,1 1,1 0,1 1,2 1,3 0,0 0,2 0,3 0,2 0,3 0,5 -1,1 -1,2 -2,2 -1,1 -2,1 -3,1 -1,0 -2,0 -3,-2 -1,-1 -2,-3 -2,-6zm2 0c0,3 1,4 1,5 1,1 1,1 2,1 1,0 2,0 3,-1 0,-1 0,-2 0,-5 0,-2 0,-4 0,-5 -1,-1 -2,-1 -3,-1 -1,0 -1,0 -2,1 0,1 -1,3 -1,5z"/>
   <path class="fil2" d="M660 477l2 0c0,1 1,1 1,2 1,0 1,1 2,1 1,0 2,-1 3,-2 0,0 1,-1 1,-2 0,-1 -1,-2 -1,-3 -1,0 -2,-1 -3,-1 0,0 -1,0 -1,1 -1,0 -1,0 -2,1l-1 0 1 -8 8 0 0 1 -6 0 -1 5c1,-1 2,-1 3,-1 1,0 2,0 3,1 1,1 2,2 2,4 0,1 -1,2 -2,3 -1,1 -2,2 -4,2 -1,0 -2,0 -3,-1 -1,-1 -2,-2 -2,-3z"/>
   <path id="1" class="fil2" d="M682 469l-2 0c0,0 0,-1 0,-1 -1,-1 -2,-1 -2,-1 -1,0 -1,0 -2,0 -1,1 -1,1 -1,2 -1,1 -1,2 -1,4 1,-1 1,-1 2,-2 0,0 1,0 2,0 1,0 2,0 3,1 1,1 1,2 1,4 0,1 0,2 0,3 -1,0 -1,1 -2,1 -1,1 -1,1 -2,1 -2,0 -3,-1 -4,-2 -1,-1 -2,-3 -2,-5 0,-3 1,-6 2,-7 1,-1 2,-2 4,-2 1,0 2,1 3,1 1,1 1,2 1,3zm-8 7c0,0 1,1 1,2 0,0 0,1 1,1 0,0 1,1 2,1 0,0 1,-1 2,-1 0,-1 0,-2 0,-3 0,-1 0,-2 0,-3 -1,0 -2,-1 -3,-1 0,0 -1,1 -2,1 0,1 -1,2 -1,3z"/>
   <path id="2" class="fil2" d="M685 481l0 -2 2 0 0 2c0,1 0,1 0,2 0,0 -1,1 -1,1l-1 -1c1,0 1,0 1,-1 0,0 0,-1 0,-1l-1 0z"/>
   <path id="3" class="fil2" d="M700 469l-2 0c0,0 0,-1 0,-1 -1,-1 -2,-1 -2,-1 -1,0 -1,0 -2,0 -1,1 -1,1 -1,2 -1,1 -1,2 -1,4 1,-1 1,-1 2,-2 0,0 1,0 2,0 1,0 2,0 3,1 1,1 1,2 1,4 0,1 0,2 0,3 -1,0 -1,1 -2,1 -1,1 -1,1 -2,1 -2,0 -3,-1 -4,-2 -1,-1 -2,-3 -2,-5 0,-3 1,-6 2,-7 1,-1 2,-2 4,-2 1,0 2,1 3,1 1,1 1,2 1,3zm-8 7c0,0 1,1 1,2 0,0 0,1 1,1 0,0 1,1 2,1 0,0 1,-1 2,-1 0,-1 0,-2 0,-3 0,-1 0,-2 0,-3 -1,0 -2,-1 -3,-1 0,0 -1,1 -2,1 0,1 -1,2 -1,3z"/>
   <path id="4" class="fil2" d="M702 477l2 0c0,1 1,1 1,2 1,0 2,1 2,1 1,0 2,-1 3,-2 0,0 1,-1 1,-2 0,-1 -1,-2 -1,-3 -1,0 -2,-1 -3,-1 0,0 -1,0 -1,1 -1,0 -1,0 -2,1l-1 0 1 -8 8 0 0 1 -6 0 -1 5c1,-1 2,-1 3,-1 1,0 2,0 3,1 1,1 2,2 2,4 0,1 -1,2 -2,3 -1,1 -2,2 -4,2 -1,0 -2,0 -3,-1 -1,-1 -2,-2 -2,-3z"/>
   <path id="5" class="fil2" d="M720 481l0 -4 -6 0 0 -2 7 -10 1 0 0 10 2 0 0 2 -2 0 0 4 -2 0zm0 -6l0 -7 -4 7 4 0z"/>
   <path class="fil2" d="M670 524l0 2 -10 0c0,-1 0,-1 0,-1 1,-1 1,-2 2,-2 0,-1 1,-2 2,-3 2,-1 3,-2 3,-3 1,-1 1,-2 1,-2 0,-1 0,-2 -1,-2 0,-1 -1,-1 -2,-1 -1,0 -1,0 -2,1 0,0 -1,1 -1,2l-2 0c1,-2 1,-3 2,-3 1,-1 2,-2 3,-2 2,0 3,1 4,2 1,0 1,2 1,3 0,0 0,1 0,2 0,0 -1,1 -1,1 -1,1 -2,2 -3,3 -1,1 -2,2 -3,2 0,0 0,1 0,1l7 0z"/>
   <path id="1" class="fil2" d="M672 522l2 0c0,1 1,1 1,2 1,0 1,1 2,1 1,0 2,-1 3,-1 0,-1 0,-2 0,-3 0,0 0,-1 0,-2 -1,0 -2,-1 -3,-1 0,0 0,0 -1,1l0 -2c0,0 0,0 1,0 0,0 1,0 2,-1 0,0 1,-1 1,-2 0,0 0,-1 -1,-1 0,-1 -1,-1 -2,-1 -1,0 -1,0 -2,1 0,0 0,1 -1,2l-1 -1c0,-1 0,-2 1,-3 1,0 2,-1 3,-1 1,0 2,1 2,1 1,0 2,1 2,1 0,1 1,2 1,2 0,1 0,2 -1,2 0,1 -1,1 -1,2 0,0 1,0 2,1 0,1 0,1 0,2 0,2 0,3 -1,4 -1,1 -2,1 -4,1 -1,0 -2,0 -3,-1 -1,-1 -2,-2 -2,-3z"/>
   <path id="2" class="fil2" d="M685 526l0 -2 2 0 0 2c0,1 0,1 0,2 0,0 -1,1 -1,1l-1 -1c1,0 1,0 1,-1 0,0 0,0 0,-1l-1 0z"/>
   <path id="3" class="fil2" d="M690 518c0,-2 1,-3 1,-4 0,-1 1,-2 2,-3 0,0 1,-1 2,-1 1,0 2,1 3,1 0,0 1,1 1,1 0,1 1,2 1,3 0,1 0,2 0,3 0,2 0,4 0,5 -1,1 -1,2 -2,2 -1,1 -2,1 -3,1 -1,0 -2,0 -3,-1 -1,-2 -2,-4 -2,-7zm2 0c0,3 1,5 1,5 1,1 1,2 2,2 1,0 2,-1 3,-2 0,0 0,-2 0,-5 0,-2 0,-4 0,-5 -1,-1 -2,-1 -3,-1 -1,0 -1,0 -2,1 0,1 -1,3 -1,5z"/>
   <path id="4" class="fil2" d="M702 518c0,-2 1,-3 1,-4 0,-1 1,-2 2,-3 0,0 1,-1 2,-1 1,0 2,1 3,1 0,0 1,1 1,1 0,1 1,2 1,3 0,1 0,2 0,3 0,2 0,4 0,5 -1,1 -1,2 -2,2 -1,1 -2,1 -3,1 -1,0 -2,0 -3,-1 -1,-2 -2,-4 -2,-7zm2 0c0,3 1,5 1,5 1,1 1,2 2,2 1,0 2,-1 3,-2 0,0 0,-2 0,-5 0,-2 0,-4 0,-5 -1,-1 -2,-1 -3,-1 -1,0 -1,0 -2,1 0,1 -1,3 -1,5z"/>
   <path id="5" class="fil2" d="M714 518c0,-2 1,-3 1,-4 0,-1 1,-2 2,-3 0,0 1,-1 2,-1 1,0 2,1 3,1 0,0 1,1 1,1 0,1 1,2 1,3 0,1 0,2 0,3 0,2 0,4 0,5 -1,1 -1,2 -2,2 -1,1 -2,1 -3,1 -1,0 -2,0 -3,-1 -1,-2 -2,-4 -2,-7zm2 0c0,3 1,5 1,5 1,1 1,2 2,2 1,0 2,-1 3,-2 0,0 0,-2 0,-5 0,-2 0,-4 0,-5 -1,-1 -2,-1 -3,-1 -1,0 -1,0 -2,1 0,1 -1,3 -1,5z"/>
   <g id="_2490692084592">
    <g>
     <path class="fil4" d="M209 232l-152 0 0 -1 152 0 0 0 0 1zm6 6l-1 0 0 0 0 -1 0 0 0 0 0 0 0 -1 0 0 0 0 0 0 -1 -1 0 0 0 0 0 0 0 -1 0 0 0 0 -1 0 0 0 0 0 0 -1 0 0 -1 0 0 0 0 0 0 0 0 0 -1 0 0 0 0 -1 0 0 -1 0 0 0 0 0 0 -1 0 0 0 0 1 0 0 0 0 0 1 0 0 0 0 1 1 0 0 0 0 0 0 0 1 0 0 1 0 0 0 0 1 0 0 0 0 1 0 0 0 0 1 0 0 1 0 0 0 0 0 1 0 0 0 0 0 1 0 0 0 0 0 1 0 0zm-1 42l0 -42 1 0 0 42 0 0 -1 0zm-5 7l0 -2 0 0 0 0 0 0 1 0 0 0 0 0 0 0 1 0 0 0 0 0 0 0 0 0 1 -1 0 0 0 0 0 0 0 0 1 0 0 -1 0 0 0 0 0 0 0 0 0 -1 1 0 0 0 0 0 0 -1 0 0 0 0 0 0 0 -1 0 0 1 0 0 0 0 1 0 0 0 0 0 1 0 0 0 0 0 1 0 0 0 0 -1 1 0 0 0 0 0 0 0 1 -1 0 0 0 0 0 0 0 -1 1 0 0 0 0 0 0 -1 0 0 0 0 0 -1 1 0 0 0 0 -1 0 0 0 0 0 0 0zm-152 -2l152 0 0 2 -152 0 0 0 0 -2zm-7 -5l1 0 0 0 0 0 1 1 0 0 0 0 0 0 0 1 0 0 0 0 0 0 0 1 0 0 0 0 1 0 0 0 0 1 0 0 0 0 0 0 1 0 0 0 0 1 0 0 0 0 1 0 0 0 0 0 0 0 1 0 0 0 0 0 0 0 1 0 0 2 -1 0 0 0 0 0 -1 0 0 0 0 -1 -1 0 0 0 0 0 0 0 -1 0 0 0 0 -1 0 0 -1 0 0 0 0 0 0 -1 -1 0 0 0 0 0 0 -1 0 0 0 0 0 -1 -1 0 0 0 0 -1 0 0 0 0 0 -1 0 0 0 0zm1 -42l0 42 -1 0 0 -42 0 0 1 0zm6 -7l0 1 0 0 -1 0 0 0 0 0 0 0 -1 1 0 0 0 0 0 0 -1 0 0 0 0 0 0 0 0 0 -1 1 0 0 0 0 0 0 0 0 0 0 -1 1 0 0 0 0 0 0 0 1 0 0 0 0 0 0 0 1 0 0 0 0 -1 0 0 1 -1 0 0 -1 0 0 0 0 0 -1 0 0 0 0 1 -1 0 0 0 0 0 -1 0 0 0 0 0 0 1 -1 0 0 0 0 0 0 1 0 0 -1 0 0 0 0 1 0 0 0 0 0 0 -1 1 0 0 0 0 0 1 0 0 0 0 0 1 0 0 0z"/>
    </g>
    <g>
     <path class="fil4" d="M380 232l-152 0 0 -1 152 0 0 0 0 1zm7 6l-2 0 0 0 0 -1 0 0 0 0 0 0 0 -1 0 0 0 0 0 0 0 -1 0 0 0 0 -1 0 0 -1 0 0 0 0 0 0 0 0 -1 0 0 -1 0 0 0 0 0 0 -1 0 0 0 0 0 0 0 -1 0 0 -1 0 0 0 0 -1 0 0 0 0 -1 0 0 1 0 0 0 0 0 1 0 0 0 0 0 1 1 0 0 0 0 1 0 0 0 0 0 0 1 1 0 0 0 0 0 0 0 0 1 1 0 0 0 0 0 0 1 0 0 0 0 0 1 0 0 1 0 0 1 0 0 0 0 0 1 0 0zm-2 42l0 -42 2 0 0 42 0 0 -2 0zm-5 7l0 -2 0 0 0 0 1 0 0 0 0 0 0 0 1 0 0 0 0 0 0 0 1 0 0 0 0 -1 0 0 0 0 1 0 0 0 0 0 0 -1 0 0 0 0 1 0 0 0 0 -1 0 0 0 0 0 0 0 -1 0 0 0 0 0 0 0 -1 0 0 2 0 0 0 0 1 0 0 0 0 -1 1 0 0 0 0 0 1 0 0 0 0 0 1 0 0 -1 0 0 0 0 1 0 0 0 0 -1 0 0 0 0 1 0 0 -1 0 0 0 0 0 -1 0 0 0 0 1 -1 0 0 0 0 0 -1 0 0 0 0 0zm-152 -2l152 0 0 2 -152 0 0 0 0 -2zm-6 -5l1 0 0 0 0 0 0 1 0 0 0 0 0 0 0 1 0 0 0 0 0 0 0 1 1 0 0 0 0 0 0 0 0 1 0 0 1 0 0 0 0 0 0 0 0 1 1 0 0 0 0 0 0 0 1 0 0 0 0 0 0 0 1 0 0 0 0 0 0 2 0 0 -1 0 0 0 0 0 -1 0 0 -1 0 0 0 0 -1 0 0 0 0 0 -1 0 0 -1 0 0 0 0 -1 0 0 0 0 -1 0 0 0 0 -1 0 0 -1 0 0 0 0 0 -1 0 0 0 0 0 -1 0 0 0 0 0 -1 0 0 0 0zm1 -42l0 42 -1 0 0 -42 0 0 1 0zm5 -7l0 1 0 0 0 0 0 0 -1 0 0 0 0 1 0 0 -1 0 0 0 0 0 0 0 -1 0 0 0 0 0 0 1 0 0 -1 0 0 0 0 0 0 0 0 1 0 0 -1 0 0 0 0 1 0 0 0 0 0 0 0 1 0 0 0 0 0 0 0 1 -1 0 0 -1 0 0 0 0 0 -1 0 0 0 0 0 -1 0 0 0 0 0 -1 0 0 1 0 0 0 0 -1 0 0 0 0 1 0 0 0 0 -1 0 0 1 0 0 0 0 0 1 0 0 -1 0 0 0 0 1 0 0 0 0 0 1 0 0 0 0 0z"/>
    </g>
    <rect class="fil0" x="394" y="232" width="163.846" height="54.3383" rx="4" ry="6"/>
    <path class="fil2" d="M76 266l0 -15 6 0c1,0 2,0 2,0 1,0 2,1 3,1 1,1 1,2 2,3 0,1 0,2 0,4 0,1 0,2 0,3 0,1 -1,1 -1,2 -1,1 -1,1 -2,1 0,1 -1,1 -2,1 0,0 -1,0 -2,0l-6 0zm2 -1l4 0c1,0 2,0 2,-1 1,0 1,0 2,0 0,-1 0,-2 1,-2 0,-1 0,-2 0,-3 0,-2 0,-3 -1,-4 0,-1 -1,-2 -2,-2 0,0 -1,0 -2,0l-4 0 0 12z"/>
    <path id="1" class="fil2" d="M99 265c-1,1 -1,1 -2,1 -1,1 -1,1 -2,1 -1,0 -2,-1 -3,-1 -1,-1 -1,-2 -1,-3 0,0 0,-1 1,-1 0,0 0,-1 0,-1 1,0 1,-1 2,-1 0,0 1,0 2,0 1,0 2,0 3,-1 0,0 0,0 0,0 0,-1 0,-1 -1,-2 0,0 -1,0 -2,0 -1,0 -1,0 -2,0 0,0 0,1 -1,2l-2 -1c1,0 1,-1 1,-1 1,-1 1,-1 2,-2 1,0 2,0 3,0 0,0 1,0 2,0 0,1 1,1 1,1 0,1 1,1 1,1 0,1 0,1 0,2l0 3c0,1 0,3 0,3 0,1 0,1 0,1l-2 0c0,0 0,0 0,-1zm0 -4c-1,0 -2,0 -3,1 -1,0 -2,0 -2,0 0,0 0,0 -1,1 0,0 0,0 0,0 0,1 0,1 1,2 0,0 1,0 1,0 1,0 2,0 2,0 1,-1 1,-1 2,-2 0,0 0,-1 0,-1l0 -1z"/>
    <path id="2" class="fil2" d="M108 265l0 1c0,1 -1,1 -1,1 -1,0 -1,-1 -2,-1 0,0 -1,0 -1,-1 0,0 0,-1 0,-2l0 -6 -1 0 0 -2 1 0 0 -3 2 -1 0 4 2 0 0 2 -2 0 0 6c0,1 0,1 0,1 0,0 0,1 0,1 1,0 1,0 1,0 0,0 1,0 1,0z"/>
    <path id="3" class="fil2" d="M117 265c-1,1 -1,1 -2,1 -1,1 -1,1 -2,1 -1,0 -2,-1 -3,-1 -1,-1 -1,-2 -1,-3 0,0 0,-1 1,-1 0,0 0,-1 0,-1 1,0 1,-1 2,-1 0,0 1,0 2,0 1,0 2,0 3,-1 0,0 0,0 0,0 0,-1 0,-1 -1,-2 0,0 -1,0 -2,0 -1,0 -1,0 -2,0 0,0 0,1 -1,2l-2 -1c1,0 1,-1 1,-1 1,-1 1,-1 2,-2 1,0 2,0 3,0 0,0 1,0 2,0 0,1 1,1 1,1 0,1 1,1 1,1 0,1 0,1 0,2l0 3c0,1 0,3 0,3 0,1 0,1 0,1l-2 0c0,0 0,0 0,-1zm0 -4c-1,0 -2,0 -3,1 -1,0 -2,0 -2,0 0,0 0,0 -1,1 0,0 0,0 0,0 0,1 0,1 1,2 0,0 1,0 1,0 1,0 2,0 2,0 1,-1 1,-1 2,-2 0,0 0,-1 0,-1l0 -1z"/>
    <path id="4" class="fil2" d="M128 266l0 -15 7 0c1,0 2,0 3,0 1,1 1,1 2,2 0,1 0,1 0,2 0,1 0,2 -1,3 0,1 -1,1 -3,1 1,1 1,1 1,1 1,1 1,1 2,2l3 4 -3 0 -2 -3c-1,-1 -1,-1 -1,-2 -1,0 -1,-1 -1,-1 -1,0 -1,0 -1,0 -1,0 -1,0 -2,0l-2 0 0 6 -2 0zm2 -8l5 0c0,0 1,0 2,0 0,-1 1,-1 1,-1 0,-1 0,-1 0,-2 0,-1 0,-1 0,-2 -1,0 -2,0 -3,0l-5 0 0 5z"/>
    <path id="5" class="fil2" d="M151 265c-1,1 -2,1 -2,1 -1,1 -2,1 -2,1 -2,0 -3,-1 -3,-1 -1,-1 -1,-2 -1,-3 0,0 0,-1 0,-1 0,0 1,-1 1,-1 0,0 1,-1 1,-1 1,0 1,0 2,0 2,0 3,0 4,-1 0,0 0,0 0,0 0,-1 -1,-1 -1,-2 0,0 -1,0 -2,0 -1,0 -2,0 -2,0 -1,0 -1,1 -1,2l-2 -1c0,0 0,-1 1,-1 0,-1 1,-1 2,-2 0,0 1,0 2,0 1,0 2,0 2,0 1,1 1,1 2,1 0,1 0,1 0,1 0,1 0,1 0,2l0 3c0,1 0,3 1,3 0,1 0,1 0,1l-2 0c0,0 0,0 0,-1zm0 -4c-1,0 -2,0 -4,1 0,0 -1,0 -1,0 -1,0 -1,0 -1,1 0,0 0,0 0,0 0,1 0,1 0,2 1,0 1,0 2,0 1,0 1,0 2,0 1,-1 1,-1 1,-2 0,0 1,-1 1,-1l0 -1z"/>
    <path id="6" class="fil2" d="M155 266l0 -11 2 0 0 2c1,-1 2,-2 4,-2 0,0 1,0 1,0 1,1 1,1 2,1 0,1 0,1 0,2 0,0 0,1 0,2l0 6 -1 0 0 -6c0,-1 -1,-2 -1,-2 0,0 0,-1 0,-1 -1,0 -1,0 -2,0 -1,0 -1,0 -2,0 0,1 -1,2 -1,3l0 6 -2 0z"/>
    <path id="7" class="fil2" d="M167 267l2 1c0,0 0,1 1,1 0,0 1,0 1,0 1,0 2,0 2,0 1,0 1,-1 1,-2 1,0 1,-1 1,-2 -1,1 -2,1 -4,1 -1,0 -2,0 -3,-1 -1,-1 -1,-3 -1,-4 0,-1 0,-2 0,-3 1,-1 1,-2 2,-2 1,-1 2,-1 2,-1 2,0 3,1 4,2l0 -2 2 0 0 10c0,2 -1,3 -1,4 0,0 -1,1 -2,1 0,1 -1,1 -3,1 -1,0 -2,0 -3,-1 -1,-1 -1,-1 -1,-3zm2 -6c0,1 0,2 0,3 1,1 2,1 3,1 1,0 1,0 2,-1 0,-1 1,-2 1,-3 0,-2 -1,-3 -1,-3 -1,-1 -2,-1 -2,-1 -1,0 -2,0 -3,1 0,0 0,1 0,3z"/>
    <path id="8" class="fil2" d="M187 263l2 0c0,1 -1,2 -2,3 -1,0 -2,1 -3,1 -2,0 -3,-1 -4,-2 -1,-1 -1,-2 -1,-4 0,-2 0,-3 1,-4 1,-1 2,-2 4,-2 1,0 3,0 4,2 1,1 1,2 1,4 0,0 0,0 0,0l-8 0c0,2 0,2 1,3 0,1 1,1 2,1 1,0 1,0 2,0 0,-1 1,-1 1,-2zm-6 -3l6 0c0,-1 0,-2 -1,-2 0,-1 -1,-1 -2,-1 -1,0 -2,0 -2,0 -1,1 -1,2 -1,3z"/>
    <polygon class="fil2" points="243,266 243,251 245,251 245,265 253,265 253,266 "/>
    <path id="1" class="fil2" d="M262 265c0,1 -1,1 -2,1 0,1 -1,1 -2,1 -1,0 -2,-1 -3,-1 0,-1 -1,-2 -1,-2 0,-1 1,-2 1,-2 0,0 0,-1 1,-1 0,0 1,-1 1,-1 1,0 1,0 2,0 1,0 3,0 3,-1 0,0 0,0 0,0 0,-1 0,-1 0,-2 -1,0 -1,0 -2,0 -1,0 -2,0 -2,0 -1,0 -1,1 -1,2l-2 0c0,-1 0,-2 1,-2 0,-1 1,-1 1,-2 1,0 2,0 3,0 1,0 2,0 2,0 1,1 1,1 1,1 1,1 1,1 1,2 0,0 0,0 0,1l0 3c0,2 0,3 0,3 0,1 1,1 1,1l-2 0c0,0 -1,0 -1,-1zm0 -4c0,0 -1,0 -3,1 -1,0 -1,0 -2,0 0,0 0,0 0,1 0,0 -1,0 -1,0 0,1 1,1 1,2 0,0 1,0 2,0 0,0 1,0 2,0 0,-1 1,-1 1,-2 0,0 0,-1 0,-1l0 -1z"/>
    <path id="2" class="fil2" d="M266 263l2 0c0,1 1,1 1,2 1,0 1,0 2,0 1,0 2,0 2,0 0,-1 1,-1 1,-2 0,0 0,0 -1,-1 0,0 -1,0 -2,0 -1,-1 -2,-1 -3,-1 0,0 -1,-1 -1,-1 0,-1 0,-1 0,-2 0,0 0,-1 0,-1 0,-1 1,-1 1,-1 0,0 1,-1 1,-1 1,0 1,0 2,0 1,0 1,0 2,0 1,1 1,1 2,1 0,1 0,1 0,2l-2 0c0,0 0,-1 0,-1 -1,0 -1,0 -2,0 -1,0 -2,0 -2,0 0,0 -1,1 -1,1 0,0 1,1 1,1 0,0 0,0 0,0 1,0 1,0 2,1 1,0 2,0 3,1 0,0 1,0 1,1 0,0 1,1 1,1 0,1 -1,1 -1,2 0,1 -1,1 -2,1 0,1 -1,1 -2,1 -1,0 -2,-1 -3,-1 -1,-1 -1,-2 -2,-3z"/>
    <path id="3" class="fil2" d="M282 265l0 1c0,1 -1,1 -1,1 -1,0 -1,0 -2,-1 0,0 0,0 -1,-1 0,0 0,-1 0,-2l0 -6 -1 0 0 -2 1 0 0 -2 2 -2 0 4 2 0 0 2 -2 0 0 6c0,1 0,1 0,1 0,1 0,1 1,1 0,0 0,0 0,0 0,0 1,0 1,0z"/>
    <path id="4" class="fil2" d="M299 255l-2 0c0,-1 0,-1 0,-2 -1,0 -2,0 -2,0 -1,0 -1,0 -2,0 0,0 -1,1 -1,2 -1,1 -1,2 -1,4 1,-1 1,-2 2,-2 0,0 1,-1 2,-1 1,0 2,1 3,2 1,1 1,2 1,3 0,1 0,2 0,3 -1,1 -1,2 -2,2 -1,1 -1,1 -2,1 -2,0 -3,-1 -4,-2 -1,-1 -2,-3 -2,-6 0,-3 1,-5 2,-6 1,-1 2,-2 4,-2 1,0 2,0 3,1 1,1 1,2 1,3zm-8 6c0,1 1,2 1,2 0,1 1,1 1,2 1,0 1,0 2,0 0,0 1,0 2,-1 0,0 1,-1 1,-2 0,-1 -1,-2 -1,-3 -1,-1 -2,-1 -2,-1 -1,0 -2,0 -3,1 0,1 -1,1 -1,2z"/>
    <path id="5" class="fil2" d="M308 266l0 -15 3 0 4 11c0,1 0,2 1,2 0,0 0,-1 0,-2l4 -11 3 0 0 15 -2 0 0 -12 -5 12 -1 0 -5 -13 0 13 -2 0z"/>
    <path id="6" class="fil2" d="M325 261c0,-2 1,-4 2,-5 1,-1 2,-1 3,-1 2,0 3,1 4,2 1,1 2,2 2,4 0,1 -1,2 -1,3 0,1 -1,2 -2,2 -1,1 -2,1 -3,1 -1,0 -2,-1 -3,-2 -1,-1 -2,-2 -2,-4zm2 0c0,1 0,2 1,3 1,1 1,1 2,1 1,0 2,0 3,-1 0,-1 1,-2 1,-3 0,-2 -1,-3 -1,-3 -1,-1 -2,-1 -3,-1 -1,0 -1,0 -2,1 -1,0 -1,1 -1,3z"/>
    <path id="7" class="fil2" d="M338 266l0 -11 2 0 0 2c0,-1 2,-2 3,-2 1,0 1,0 2,0 1,1 1,1 1,1 1,1 1,1 1,2 0,0 0,1 0,2l0 6 -2 0 0 -6c0,-1 0,-2 0,-2 0,0 -1,-1 -1,-1 0,0 -1,0 -1,0 -1,0 -2,0 -2,0 -1,1 -1,2 -1,3l0 6 -2 0z"/>
    <path id="8" class="fil2" d="M354 265l0 1c0,1 -1,1 -1,1 -1,0 -1,0 -2,-1 0,0 0,0 -1,-1 0,0 0,-1 0,-2l0 -6 -1 0 0 -2 1 0 0 -2 2 -2 0 4 2 0 0 2 -2 0 0 6c0,1 0,1 0,1 0,1 0,1 1,1 0,0 0,0 0,0 0,0 1,0 1,0z"/>
    <path id="9" class="fil2" d="M356 266l0 -15 2 0 0 6c1,-1 2,-2 3,-2 1,0 2,0 2,1 1,0 1,0 2,1 0,0 0,1 0,2l0 7 -2 0 0 -7c0,-1 0,-1 -1,-2 0,0 -1,0 -1,0 -1,0 -1,0 -2,0 0,0 -1,1 -1,1 0,1 0,2 0,2l0 6 -2 0z"/>
    <path class="fil5" d="M445 265l7 -17 2 0 7 17 -2 0 -2 -5 -7 0 -2 5 -3 0zm5 -7l6 0 -2 -5c0,-1 -1,-3 -1,-4 0,2 -1,3 -1,4l-2 5z"/>
    <path id="1" class="fil5" d="M463 270l0 -18 2 0 0 2c0,-1 1,-1 2,-1 0,-1 1,-1 2,-1 1,0 2,0 2,1 1,1 2,1 2,2 1,1 1,2 1,4 0,1 0,2 -1,3 0,1 -1,2 -2,2 -1,1 -2,1 -3,1 0,0 -1,0 -1,0 -1,0 -1,-1 -2,-1l0 6 -2 0zm2 -11c0,1 0,3 1,3 1,1 1,2 2,2 1,0 2,-1 3,-2 0,0 1,-2 1,-3 0,-2 -1,-3 -1,-4 -1,-1 -2,-1 -3,-1 0,0 -1,0 -2,1 -1,1 -1,2 -1,4z"/>
    <path id="2" class="fil5" d="M477 270l0 -18 1 0 0 2c1,-1 1,-1 2,-1 1,-1 1,-1 2,-1 1,0 2,0 3,1 1,1 1,1 2,2 0,1 0,2 0,4 0,1 0,2 0,3 -1,1 -1,2 -2,2 -1,1 -2,1 -3,1 -1,0 -1,0 -2,0 -1,0 -1,-1 -1,-1l0 6 -2 0zm1 -11c0,1 1,3 1,3 1,1 2,2 3,2 1,0 2,-1 2,-2 1,0 1,-2 1,-3 0,-2 0,-3 -1,-4 0,-1 -1,-1 -2,-1 -1,0 -2,0 -2,1 -1,1 -2,2 -2,4z"/>
    <polygon id="3" class="fil5" points="490,265 490,248 492,248 492,265 "/>
    <path id="4" class="fil5" d="M495 270l0 -2c1,0 1,0 1,0 1,0 1,0 1,0 1,0 1,-1 1,-1 0,0 1,-1 1,-1 0,-1 0,-1 0,-1l-5 -13 2 0 3 8c0,1 1,2 1,3 0,-1 1,-2 1,-3l3 -8 2 0 -5 13c-1,2 -1,3 -1,3 -1,1 -1,1 -2,2 0,0 -1,0 -1,0 -1,0 -1,0 -2,0z"/>
   </g>
  </g>
  <g>
   <circle class="fil0" cx="775" cy="94" r="94"/>
   <g>
    <path class="fil6" d="M775 40c-1,0 -1,0 -2,1 -4,7 -19,12 -36,13l0 0c-1,0 -2,0 -3,2 -1,8 -3,16 -3,25 -2,14 -2,30 4,40 4,8 14,14 22,19 6,3 11,5 16,7 1,1 1,1 2,1 1,0 1,0 2,-1l0 0c1,0 7,-3 16,-7 8,-5 18,-11 22,-19 6,-10 5,-26 4,-40 0,-9 -2,-17 -3,-25 -1,-2 -2,-2 -3,-2l0 0c-16,0 -31,-6 -35,-12 -1,-1 -2,-2 -3,-2l0 0zm0 7c7,7 21,11 36,12 2,7 3,15 3,22 2,14 1,29 -3,38 -3,5 -12,12 -21,16 -5,3 -10,6 -15,8 -5,-2 -10,-5 -15,-8 -9,-4 -18,-11 -21,-16 -4,-9 -5,-24 -3,-38 0,-7 1,-15 3,-22 15,-1 29,-5 36,-12l0 0z"/>
    <path class="fil6" d="M795 93c0,-1 0,-1 0,-2 0,-1 -1,-2 -2,-3 -1,-1 -2,-1 -4,-1l0 0c0,-1 0,-2 0,-3 0,0 0,-1 0,-2 0,-1 0,-2 -1,-3 0,-3 -2,-5 -3,-7 -2,-1 -3,-2 -4,-2 -2,-1 -3,-1 -5,-1 0,0 0,0 0,-1l-2 0c0,1 0,1 0,1 -1,0 -1,0 -1,0 -1,0 -2,0 -3,0 -3,2 -6,4 -7,7 -2,2 -2,5 -2,8 0,1 0,2 0,3l0 0c-1,0 -1,0 -1,0 -2,0 -3,1 -4,2 -1,1 -2,3 -2,4 0,7 0,13 0,20 0,1 1,1 1,1 0,2 1,3 2,4 1,1 2,1 4,1l28 0c0,0 0,0 1,0 1,0 1,0 2,0 2,-1 3,-3 3,-6 0,-7 0,-13 0,-20zm-17 11c0,0 -1,0 -1,1 0,0 0,0 0,0 0,1 0,3 0,4 0,1 -1,2 -2,2 -1,0 -2,0 -2,-1 0,0 0,0 0,0 0,-1 0,-2 0,-3l0 0c0,-1 0,-2 0,-2 0,0 0,0 0,-1 -1,0 -2,-1 -2,-2 0,-1 0,-3 1,-4 0,0 1,-1 2,-1 2,0 3,0 4,1 1,2 1,4 0,6l0 0zm-3 -17l-8 0 0 -2c0,-2 0,-3 0,-4 0,-1 1,-3 2,-4 1,-1 2,-1 3,-2 0,0 1,0 2,0 1,0 2,0 3,0 1,0 2,0 3,1 1,1 2,2 2,3 1,2 1,4 1,5 0,1 0,2 0,3l0 0c-3,0 -5,0 -8,0z"/>
   </g>
  </g>
 </g>
</svg>
