<?xml version="1.0" encoding="UTF-8"?>
<!DOCTYPE svg PUBLIC "-//W3C//DTD SVG 1.1//EN" "http://www.w3.org/Graphics/SVG/1.1/DTD/svg11.dtd">
<!-- Creator: CorelDRAW X8 -->
<svg xmlns="http://www.w3.org/2000/svg" xml:space="preserve" width="5.26003in" height="6in" version="1.1" style="shape-rendering:geometricPrecision; text-rendering:geometricPrecision; image-rendering:optimizeQuality; fill-rule:evenodd; clip-rule:evenodd"
viewBox="0 0 9254 10555"
 xmlns:xlink="http://www.w3.org/1999/xlink">
 <defs>
  <style type="text/css">
   <![CDATA[
    .fil4 {fill:#868EE0}
    .fil2 {fill:#FEFEFE;fill-rule:nonzero}
    .fil0 {fill:#1A237E;fill-rule:nonzero}
    .fil1 {fill:#868EE0;fill-rule:nonzero}
    .fil3 {fill:white;fill-rule:nonzero}
   ]]>
  </style>
 </defs>
 <g id="Layer_x0020_1">
  <metadata id="CorelCorpID_0Corel-Layer"/>
  <g id="_2490753839856">
   <path class="fil0" d="M7670 1262c-5,-5 -9,-10 -14,-15l-1 0c-774,-770 -1842,-1247 -3021,-1247 -6,0 -13,0 -20,0l0 1854c7,0 14,0 20,0 668,0 1273,269 1712,705l0 0c4,4 9,9 14,13 472,472 709,1090 711,1709l1853 4c-1,-1094 -419,-2188 -1254,-3023z"/>
   <path class="fil1" d="M7663 7341c5,-5 10,-9 14,-14l0 0c771,-775 1248,-1843 1248,-3021 0,-7 -1,-14 -1,-21l-1853 0c0,7 0,14 0,21 0,667 -269,1272 -705,1711l0 0c-5,4 -9,9 -14,14 -472,472 -1090,709 -1708,711l-4 1853c1094,-1 2188,-419 3023,-1254z"/>
   <path class="fil0" d="M1583 7334c5,5 10,9 15,14l0 0c775,771 1842,1247 3021,1247 7,0 14,0 20,0l0 -1853c-6,0 -13,0 -20,0 -667,0 -1272,-269 -1711,-705l0 0c-5,-5 -9,-9 -14,-14 -472,-472 -709,-1090 -711,-1708l-1854 -5c1,1095 419,2189 1254,3024z"/>
   <path class="fil1" d="M1590 1254c-4,5 -9,10 -14,15l0 0c-771,774 -1247,1842 -1247,3021 0,7 0,14 0,20l1854 0c0,-6 -1,-13 -1,-20 0,-668 270,-1272 706,-1711l0 0c4,-5 9,-10 13,-14 472,-472 1090,-709 1709,-712l4 -1853c-1094,1 -2189,419 -3024,1254z"/>
   <path class="fil0" d="M2590 8119c-723,0 -1309,-586 -1309,-1309 0,-722 586,-1308 1309,-1308 722,0 1308,586 1308,1308 0,723 -586,1309 -1308,1309z"/>
   <path class="fil1" d="M2590 7735c-511,0 -925,-414 -925,-925 0,-510 414,-924 925,-924 510,0 924,414 924,924 0,511 -414,925 -924,925z"/>
   <path class="fil1" d="M2127 3264c-723,0 -1309,-586 -1309,-1309 0,-723 586,-1309 1309,-1309 723,0 1309,586 1309,1309 0,723 -586,1309 -1309,1309z"/>
   <path class="fil2" d="M2127 2880c-511,0 -925,-414 -925,-925 0,-511 414,-925 925,-925 510,0 924,414 924,925 0,511 -414,925 -924,925z"/>
   <path class="fil0" d="M6749 3011c-722,0 -1308,-586 -1308,-1308 0,-723 586,-1309 1308,-1309 723,0 1309,586 1309,1309 0,722 -586,1308 -1309,1308z"/>
   <path class="fil1" d="M6749 2627c-510,0 -924,-414 -924,-924 0,-511 414,-925 924,-925 511,0 925,414 925,925 0,510 -414,924 -925,924z"/>
   <path class="fil1" d="M7316 7533c-723,0 -1309,-586 -1309,-1309 0,-722 586,-1308 1309,-1308 723,0 1309,586 1309,1308 0,723 -586,1309 -1309,1309z"/>
   <path class="fil0" d="M7316 7149c-511,0 -925,-414 -925,-925 0,-510 414,-924 925,-924 511,0 925,414 925,924 0,511 -414,925 -925,925z"/>
   <path class="fil0" d="M2102 2078l253 371 -190 0 -250 -370 -1 0 0 -156 154 0c95,0 154,-40 178,-92 6,-11 10,-23 12,-35l-502 0 0 -113 474 0c-30,-39 -84,-66 -162,-66l-312 0 0 -156 742 0 0 113 -155 0c18,21 33,44 44,68 6,14 11,27 16,41l95 0 0 113 -83 0c-3,35 -13,69 -28,102 -45,94 -140,170 -285,180z"/>
   <path class="fil3" d="M6592 1736c-149,-65 -272,-145 -272,-296 0,-67 20,-127 56,-177 41,-60 102,-104 174,-134 14,-5 28,-10 42,-14l0 193c-30,15 -54,35 -70,57 -14,21 -22,46 -22,75 0,36 37,68 92,97l0 199zm0 555c-77,-23 -155,-59 -232,-111l101 -148c43,30 87,52 131,69l0 190zm315 -1006c-30,-8 -61,-13 -92,-16l0 363c31,12 62,24 92,37l0 199c-27,-15 -59,-29 -92,-43l0 310c31,-4 59,-11 84,-22 2,-1 5,-2 8,-4l0 191c-30,8 -60,13 -92,15l0 76 -131 0 0 -80c-30,-5 -61,-11 -92,-20l0 -190c31,12 62,21 92,27l0 -355c-31,-12 -62,-24 -92,-37l0 -199c27,15 58,29 92,43l0 -304c-24,5 -46,12 -66,20 -9,4 -18,8 -26,12l0 -193c29,-10 60,-16 92,-21l0 -80 131 0 0 75c30,2 61,6 92,12l0 184zm0 384c149,65 272,145 272,296 0,72 -21,136 -57,189 -36,54 -88,95 -150,123 -21,9 -43,17 -65,23l0 -191c28,-14 51,-32 67,-55 16,-24 25,-54 25,-89 0,-36 -37,-67 -92,-97l0 -199zm130 -324c-39,-27 -84,-47 -130,-60l0 -184c82,16 163,48 233,97l-103 147 0 0z"/>
   <path class="fil3" d="M7769 6772c-83,28 -168,41 -249,41 -121,0 -236,-30 -332,-91 -97,-63 -174,-156 -215,-281 -6,-20 -12,-41 -17,-63l-93 0 0 -127 78 0c0,-8 0,-15 0,-23 0,-7 0,-14 0,-22l-78 0 0 -127 95 0c6,-29 15,-57 26,-84 44,-114 120,-204 215,-265 95,-62 207,-95 324,-95 78,0 159,15 238,46l-63 163c-58,-23 -118,-34 -175,-34 -84,0 -163,23 -229,66 -65,42 -117,104 -148,182 -3,7 -5,14 -8,21l373 0 0 127 -395 0c0,8 0,15 0,22 0,8 0,16 0,23l395 0 0 127 -375 0c1,3 2,6 3,10 28,83 78,146 143,187 67,43 149,64 238,64 64,0 130,-11 195,-32l54 165z"/>
   <path class="fil3" d="M2856 6390l57 52 -104 114 -57 -52c-24,-23 -49,-40 -77,-52 -26,-11 -57,-17 -94,-17 -16,1 -30,3 -42,7 -32,10 -56,32 -71,59 -17,31 -25,68 -25,102 1,18 3,34 7,48 10,29 31,66 55,102l332 0 0 113 -259 0c18,31 31,61 32,88 3,75 -60,151 -138,231l477 0 0 155 -662 0 -56 -130c34,-37 60,-63 86,-89 72,-72 139,-139 139,-161 -1,-3 -24,-38 -51,-78l-11 -16 -131 0 0 -113 63 0c-9,-19 -17,-38 -23,-57 -8,-27 -13,-58 -14,-90 -1,-60 13,-125 44,-181 34,-59 86,-108 160,-131 26,-8 54,-12 85,-13 60,-1 111,10 157,29 45,19 84,46 121,80z"/>
  </g>
  <ellipse class="fil4" cx="4627" cy="10218" rx="4627" ry="337"/>
 </g>
</svg>
