<svg width="420" height="288" viewBox="0 0 420 288" fill="none" xmlns="http://www.w3.org/2000/svg">
<g clip-path="url(#clip0_10734_89330)">
<path fill-rule="evenodd" clip-rule="evenodd" d="M370.15 36.76H14.1094C6.36935 36.76 0.0114746 43.117 0.0114746 50.856V273.904C0.0114746 281.643 6.36935 288 14.1094 288H370.15C377.89 288 384.248 281.643 384.248 273.904V50.856C384.248 43.117 377.89 36.76 370.15 36.76ZM370.98 261.743C370.703 269.758 364.345 276.115 356.329 275.839H27.9308C19.9144 276.115 13.2801 269.758 13.2801 261.743V62.7408C13.2801 54.7255 19.9144 48.3685 27.9308 48.6448H356.605C364.345 48.3685 370.98 54.7255 370.98 62.7408V261.743Z" fill="#1A237E"/>
<path d="M23.5079 90.38L346.654 88.998" stroke="#1A237E" stroke-width="0.00678869"/>
<path d="M24.8901 75.1784L27.1015 74.902C27.1015 75.4548 27.3779 76.0076 27.9308 76.5604C28.2072 76.8368 28.7601 76.8368 29.5894 76.8368C30.1422 76.8368 30.6951 76.8368 30.9715 76.5604C31.5244 76.284 31.5244 75.7312 31.5244 75.4548C31.5244 75.1784 31.5244 74.902 31.5244 74.6257C31.248 74.6257 30.9715 74.3493 30.6951 74.3493C30.4187 74.0729 29.8658 74.0729 28.7601 73.7965C27.6544 73.5201 26.8251 72.9673 26.2722 72.6909C25.7194 72.1381 25.1665 71.309 25.1665 70.4798C25.1665 69.927 25.4429 69.3742 25.7194 68.8214C25.9958 68.2687 26.5487 67.9923 27.1015 67.7159C27.6544 67.4395 28.4837 67.1631 29.3129 67.1631C30.6951 67.1631 31.8008 67.7159 32.3537 68.2687C33.183 68.8214 33.4594 69.6506 33.4594 70.7562H31.248C31.248 70.2034 30.9715 69.6506 30.6951 69.6506C30.4187 69.3742 29.8658 69.0978 29.3129 69.0978C28.7601 69.0978 28.2072 69.3742 27.6544 69.6506C27.6544 69.6506 27.3779 69.927 27.3779 70.2034C27.3779 70.4798 27.3779 70.7562 27.6544 71.0326C27.9308 71.309 28.7601 71.309 29.8658 71.5853C30.9715 71.8617 31.8008 72.1381 32.3537 72.4145C32.9065 72.6909 33.183 73.2437 33.4594 73.5201C33.7358 74.0729 34.0122 74.6257 34.0122 75.4548C34.0122 76.0076 33.7358 76.5604 33.4594 77.1132C32.9065 77.666 32.6301 78.2187 31.8008 78.4951C31.248 78.7715 30.4187 78.7715 29.3129 78.7715C27.9308 78.7715 26.8251 78.4951 26.2722 77.9423C25.4429 77.1132 24.8901 76.284 24.8901 75.1784Z" fill="#1A237E"/>
<path d="M40.6466 76.0076L42.5816 76.5604C42.3051 77.1131 42.0287 77.9423 41.4759 78.2187C40.6466 78.7715 40.0937 78.7715 39.2644 78.7715C37.6058 78.7715 36.7766 78.4951 35.9473 77.3895C35.3944 76.8367 35.118 75.7312 35.118 74.6256C35.118 73.2437 35.6708 72.4145 36.2237 71.5853C37.053 70.7561 37.8823 70.4797 38.988 70.4797C40.0937 70.4797 41.1994 70.7561 41.7523 71.5853C42.5816 72.4145 42.858 73.52 42.858 75.1784H37.3294C37.3294 76.0076 37.6058 76.284 37.8823 76.8367C38.1587 77.1131 38.7116 77.3895 39.2644 77.3895C39.5409 77.3895 39.8173 77.1131 40.0937 77.1131C40.3701 76.8367 40.3701 76.5604 40.6466 76.0076ZM40.6466 73.7964C40.6466 73.2437 40.3701 72.9673 40.0937 72.4145C39.8173 72.1381 39.5409 72.1381 38.988 72.1381C38.7116 72.1381 38.1587 72.1381 37.8823 72.4145C37.6058 72.9673 37.3294 73.2437 37.3294 73.7964H40.6466Z" fill="#1A237E"/>
<path d="M48.1102 70.4797V72.1381H46.728V75.4548C46.728 76.2839 46.728 76.5603 46.728 76.8367C46.728 76.8367 47.0045 76.8367 47.0045 77.1131H47.2809C47.5573 77.1131 47.8338 77.1131 48.1102 76.8367L48.3866 78.4951C47.8338 78.7715 47.2809 78.7715 46.728 78.7715C46.4516 78.7715 45.8988 78.7715 45.6223 78.7715C45.3459 78.4951 45.0695 78.4951 45.0695 78.2187C44.793 77.9423 44.793 77.6659 44.793 77.3895C44.5166 77.1131 44.5166 76.5603 44.5166 75.7312V72.1381H43.6873V70.4797H44.5166V68.8214L46.728 67.7158V70.4797H48.1102Z" fill="#1A237E"/>
<path d="M53.3623 70.4797V72.1381H51.9802V75.4548C51.9802 76.2839 51.9802 76.5603 51.9802 76.8367C51.9802 76.8367 51.9802 76.8367 52.2566 77.1131H52.533C52.8095 77.1131 53.0859 77.1131 53.3623 76.8367L53.6387 78.4951C53.0859 78.7715 52.533 78.7715 51.9802 78.7715C51.4273 78.7715 51.1509 78.7715 50.8745 78.7715C50.598 78.4951 50.3216 78.4951 50.3216 78.2187C50.0452 77.9423 50.0452 77.6659 49.7687 77.3895C49.7687 77.1131 49.7687 76.5603 49.7687 75.7312V72.1381H48.9395V70.4797H49.7687V68.8214L51.9802 67.7158V70.4797H53.3623Z" fill="#1A237E"/>
<path d="M55.0209 69.3742V67.4395H56.9559V69.3742H55.0209ZM55.0209 78.7715V70.4798H56.9559V78.7715H55.0209Z" fill="#1A237E"/>
<path d="M66.631 78.7715H64.4195V74.6256C64.4195 73.7964 64.4195 72.9673 64.4195 72.9673C64.4195 72.6909 64.1431 72.4145 63.8667 72.1381C63.8667 72.1381 63.5902 72.1381 63.3138 72.1381C62.7609 72.1381 62.4845 72.1381 62.2081 72.4145C61.9317 72.4145 61.6552 72.6909 61.6552 73.2437C61.3788 73.52 61.3788 74.0728 61.3788 74.902V78.7715H59.1674V70.4797H61.3788V71.8617C61.9317 70.7561 62.7609 70.4797 63.8667 70.4797C64.4195 70.4797 64.9724 70.4797 65.2488 70.7561C65.5252 70.7561 65.8017 71.0325 66.0781 71.3089C66.3545 71.5853 66.3545 71.8617 66.631 72.1381C66.631 72.4145 66.631 72.9673 66.631 73.52V78.7715Z" fill="#1A237E"/>
<path d="M68.566 79.3243L71.0538 79.6007C71.0538 79.877 71.3303 79.877 71.3303 80.1534C71.6067 80.1534 71.8831 80.4298 72.436 80.4298C72.9888 80.4298 73.2653 80.1534 73.5417 80.1534C73.8181 79.877 73.8181 79.877 74.0946 79.6007C74.0946 79.3243 74.0946 79.0479 74.0946 78.4951V77.3895C73.5417 78.2187 72.7124 78.7715 71.6067 78.7715C70.501 78.7715 69.6717 78.2187 69.1188 77.3895C68.566 76.5603 68.2896 75.7312 68.2896 74.6256C68.2896 73.2437 68.566 72.1381 69.3953 71.5853C69.9481 70.7561 70.7774 70.4797 71.8831 70.4797C72.7124 70.4797 73.5417 70.7561 74.371 71.5853V70.4797H76.306V77.9423C76.306 78.7715 76.306 79.6007 76.0296 79.877C75.7531 80.4298 75.7531 80.7062 75.4767 80.9826C75.2003 81.259 74.6474 81.5354 74.371 81.8118C73.8181 81.8118 73.2653 82.0882 72.436 82.0882C71.0538 82.0882 69.9481 81.8118 69.3953 81.259C68.8424 80.7062 68.566 80.1534 68.566 79.3243ZM70.501 74.3492C70.501 75.1784 70.7774 76.0076 71.0538 76.284C71.3303 76.8367 71.8831 76.8367 72.436 76.8367C72.7124 76.8367 73.2653 76.8367 73.5417 76.284C74.0946 76.0076 74.0946 75.1784 74.0946 74.6256C74.0946 73.7964 74.0946 72.9673 73.5417 72.6909C73.2653 72.1381 72.9888 72.1381 72.436 72.1381C71.8831 72.1381 71.3303 72.1381 71.0538 72.6909C70.7774 72.9673 70.501 73.52 70.501 74.3492Z" fill="#1A237E"/>
<path d="M77.6881 76.284L79.8995 76.0076C79.8995 76.5604 80.176 76.8367 80.4524 77.1131C80.7288 77.1131 81.0053 77.3895 81.5581 77.3895C82.111 77.3895 82.3874 77.1131 82.6638 77.1131C82.9403 76.8367 82.9403 76.5604 82.9403 76.5604C82.9403 76.284 82.9403 76.284 82.9403 76.0076C82.9403 76.0076 82.6638 75.7312 82.111 75.7312C80.4524 75.4548 79.3467 74.902 78.7938 74.6256C78.241 74.3492 77.9645 73.7964 77.9645 72.9673C77.9645 72.1381 78.241 71.5853 78.7938 71.0325C79.3467 70.7561 80.176 70.4797 81.2817 70.4797C82.3874 70.4797 83.2167 70.4797 83.7695 71.0325C84.3224 71.3089 84.8753 71.8617 84.8753 72.4145L82.9403 72.9673C82.9403 72.6909 82.6638 72.4145 82.3874 72.1381C82.111 72.1381 81.8345 71.8617 81.2817 71.8617C80.7288 71.8617 80.4524 72.1381 80.176 72.1381C79.8995 72.4145 79.8995 72.4145 79.8995 72.6909C79.8995 72.6909 79.8995 72.9673 80.176 72.9673C80.4524 73.2437 81.0053 73.2437 82.111 73.52C83.2167 73.7964 84.046 74.0728 84.5988 74.6256C84.8753 74.902 85.1517 75.4548 85.1517 76.284C85.1517 76.8367 84.8753 77.6659 84.3224 77.9423C83.7695 78.4951 82.6638 78.7715 81.5581 78.7715C80.4524 78.7715 79.6231 78.7715 78.7938 78.2187C78.241 77.6659 77.9645 77.1131 77.6881 76.284Z" fill="#1A237E"/>
<path d="M32.6301 195.812L34.0122 196.365C33.7358 197.194 33.183 198.023 32.6301 198.576C31.8008 199.129 30.9715 199.405 30.1422 199.405C29.0365 199.405 28.2072 199.129 27.6544 198.852C27.1015 198.299 26.5486 197.747 26.2722 196.917C25.7194 196.088 25.7194 195.259 25.7194 194.43C25.7194 193.601 25.9958 192.772 26.2722 191.942C26.5486 191.113 27.1015 190.56 27.9308 190.284C28.4837 190.008 29.3129 189.731 30.1422 189.731C30.9715 189.731 31.8008 190.008 32.3537 190.56C33.183 190.837 33.4594 191.666 33.7358 192.495L32.6301 192.772C32.3537 191.942 32.0772 191.666 31.5244 191.113C31.2479 190.837 30.6951 190.837 30.1422 190.837C29.3129 190.837 28.7601 190.837 28.2072 191.39C27.6544 191.666 27.3779 192.219 27.3779 192.772C27.1015 193.324 26.8251 193.877 26.8251 194.43C26.8251 195.259 27.1015 195.812 27.3779 196.641C27.6544 197.194 27.9308 197.47 28.4837 197.747C28.7601 198.023 29.3129 198.299 29.8658 198.299C30.6951 198.299 31.2479 198.023 31.8008 197.747C32.0772 197.194 32.6301 196.641 32.6301 195.812Z" fill="#606062"/>
<path d="M39.8173 199.129V198.299C39.2644 198.852 38.4351 199.405 37.6058 199.405C37.053 199.405 36.7766 199.405 36.5001 199.129C36.2237 198.852 35.9473 198.852 35.6708 198.576C35.6708 198.299 35.3944 198.023 35.3944 197.747C35.3944 197.47 35.3944 197.194 35.3944 196.641V192.495H36.5001V196.088C36.5001 196.917 36.5001 197.194 36.5001 197.47C36.5001 197.747 36.7766 198.023 37.053 198.023C37.053 198.299 37.6058 198.299 37.8823 198.299C38.1587 198.299 38.4351 198.299 38.7116 198.023C38.988 198.023 39.2644 197.747 39.5409 197.47C39.5409 197.194 39.5409 196.641 39.5409 196.088V192.495H40.6466V199.129H39.8173Z" fill="#606062"/>
<path d="M42.5815 199.129V192.495H43.6873V193.601C43.9637 193.048 43.9637 192.772 44.2401 192.495C44.5166 192.495 44.793 192.219 45.0694 192.219C45.3458 192.219 45.8987 192.495 46.1751 192.772L45.8987 193.601C45.6223 193.601 45.3458 193.601 45.0694 193.601C44.793 193.601 44.5166 193.601 44.2401 193.601C44.2401 193.877 43.9637 194.153 43.9637 194.43C43.6873 194.706 43.6873 195.259 43.6873 195.535V199.129H42.5815Z" fill="#606062"/>
<path d="M47.0044 199.129V192.495H47.8337V193.601C48.1101 193.048 48.3865 192.772 48.663 192.495C48.9394 192.495 49.2158 192.219 49.4923 192.219C49.7687 192.219 50.0451 192.495 50.598 192.772L50.0451 193.601C49.7687 193.601 49.4923 193.601 49.2158 193.601C48.9394 193.601 48.9394 193.601 48.663 193.601C48.3865 193.877 48.3865 194.153 48.1101 194.43C48.1101 194.706 48.1101 195.259 48.1101 195.535V199.129H47.0044Z" fill="#606062"/>
<path d="M55.8502 196.917L56.956 197.194C56.956 197.747 56.4031 198.299 56.1267 198.852C55.5738 199.129 54.7445 199.405 54.1917 199.405C53.0859 199.405 52.2567 199.129 51.7038 198.299C51.1509 197.747 50.8745 196.917 50.8745 195.812C50.8745 194.706 51.1509 193.877 51.7038 193.324C52.2567 192.495 53.0859 192.219 53.9152 192.219C55.0209 192.219 55.5738 192.495 56.1267 193.324C56.6795 193.877 56.956 194.706 56.956 195.812V196.088H51.9802C51.9802 196.917 52.2567 197.47 52.5331 197.747C53.0859 198.299 53.6388 198.299 54.1917 198.299C54.4681 198.299 54.7445 198.299 55.0209 198.023C55.5738 197.747 55.5738 197.47 55.8502 196.917ZM51.9802 195.259H55.8502C55.8502 194.706 55.5738 194.154 55.2974 193.877C55.0209 193.324 54.4681 193.324 53.9152 193.324C53.3624 193.324 53.0859 193.324 52.8095 193.877C52.2567 194.154 52.2567 194.706 51.9802 195.259Z" fill="#606062"/>
<path d="M58.6145 199.129V192.495H59.4438V193.324C59.9966 192.772 60.8259 192.219 61.6552 192.219C62.2081 192.219 62.4845 192.495 62.7609 192.495C63.0374 192.772 63.3138 192.772 63.5902 193.048C63.5902 193.324 63.8667 193.601 63.8667 193.877C63.8667 194.153 63.8667 194.43 63.8667 194.983V199.129H62.7609V194.983C62.7609 194.706 62.7609 194.153 62.7609 194.153C62.4845 193.877 62.4845 193.601 62.2081 193.601C61.9317 193.324 61.6552 193.324 61.3788 193.324C60.8259 193.324 60.5495 193.324 60.2731 193.877C59.7202 194.153 59.7202 194.706 59.7202 195.535V199.129H58.6145Z" fill="#606062"/>
<path d="M70.2246 196.641L71.3303 196.917C71.0539 197.747 70.7774 198.299 70.2246 198.576C69.9481 199.129 69.1188 199.405 68.566 199.405C67.4603 199.405 66.9074 199.129 66.3546 198.576C65.8017 197.747 65.5253 196.917 65.5253 195.812C65.5253 194.983 65.5253 194.43 65.8017 193.877C66.0781 193.324 66.3546 193.048 66.9074 192.772C67.4603 192.495 68.0131 192.219 68.566 192.219C69.1188 192.219 69.9481 192.495 70.2246 192.772C70.7774 193.324 71.0539 193.877 71.0539 194.43L69.9481 194.706C69.9481 194.154 69.6717 193.877 69.3953 193.601C69.1188 193.324 68.8424 193.324 68.566 193.324C68.0131 193.324 67.4603 193.324 67.1838 193.877C66.631 194.154 66.631 194.983 66.631 195.812C66.631 196.641 66.631 197.47 67.1838 197.747C67.4603 198.299 68.0131 198.299 68.566 198.299C68.8424 198.299 69.3953 198.299 69.6717 198.023C69.9481 197.747 69.9481 197.194 70.2246 196.641Z" fill="#606062"/>
<path d="M72.1595 201.892V200.787C72.436 200.787 72.436 200.787 72.7124 200.787C72.9888 200.787 73.2653 200.787 73.2653 200.787C73.5417 200.51 73.5417 200.51 73.8181 200.234C73.8181 200.234 73.8181 199.958 74.0946 199.405C74.0946 199.405 74.0946 199.405 74.0946 199.129L71.6067 192.495H72.7124L74.371 196.365C74.371 196.917 74.6474 197.47 74.6474 198.023C74.9238 197.47 74.9238 196.917 75.2003 196.365L76.5824 192.495H77.6881L75.2003 199.405C74.9238 199.958 74.6474 200.51 74.6474 200.787C74.371 201.34 74.0946 201.616 73.8181 201.616C73.5417 201.892 73.2653 201.892 72.9888 201.892C72.7124 201.892 72.436 201.892 72.1595 201.892Z" fill="#606062"/>
<path d="M80.7288 199.128L84.3223 190.008H85.7045L89.5745 199.128H88.1924L87.0866 196.365H83.2166L82.1109 199.128H80.7288ZM83.4931 195.259H86.5338L85.7045 192.771C85.4281 191.942 85.1516 191.39 85.1516 190.837C84.8752 191.39 84.5988 191.942 84.5988 192.771L83.4931 195.259Z" fill="#606062"/>
<path d="M94.8267 196.641L95.9324 196.917C95.656 197.747 95.3796 198.299 95.1032 198.576C94.5503 199.129 93.721 199.405 93.1682 199.405C92.0624 199.405 91.5096 199.129 90.9567 198.576C90.4039 197.747 90.1274 196.917 90.1274 195.812C90.1274 194.983 90.1274 194.43 90.4039 193.877C90.6803 193.324 90.9567 193.048 91.5096 192.772C92.0624 192.495 92.6153 192.219 93.1682 192.219C93.721 192.219 94.5503 192.495 94.8267 192.772C95.3796 193.324 95.656 193.877 95.9324 194.43L94.8267 194.706C94.5503 194.154 94.2739 193.877 93.9974 193.601C93.9974 193.324 93.4446 193.324 93.1682 193.324C92.6153 193.324 92.0624 193.324 91.786 193.877C91.5096 194.154 91.2332 194.983 91.2332 195.812C91.2332 196.641 91.5096 197.47 91.786 197.747C92.0624 198.299 92.6153 198.299 93.1682 198.299C93.4446 198.299 93.9974 198.299 94.2739 198.023C94.5503 197.747 94.8267 197.194 94.8267 196.641Z" fill="#606062"/>
<path d="M101.185 196.641L102.29 196.917C102.29 197.747 102.014 198.299 101.461 198.576C100.908 199.129 100.355 199.405 99.5261 199.405C98.6968 199.405 97.8675 199.129 97.3146 198.576C96.7618 197.747 96.4854 196.917 96.4854 195.812C96.4854 194.983 96.7618 194.43 97.0382 193.877C97.0382 193.324 97.5911 193.048 98.1439 192.772C98.4204 192.495 98.9732 192.219 99.5261 192.219C100.355 192.219 100.908 192.495 101.461 192.772C102.014 193.324 102.29 193.877 102.29 194.43L101.185 194.706C101.185 194.154 100.908 193.877 100.632 193.601C100.355 193.324 100.079 193.324 99.8025 193.324C98.9732 193.324 98.6968 193.324 98.1439 193.877C97.8675 194.154 97.5911 194.983 97.5911 195.812C97.5911 196.641 97.8675 197.47 98.1439 197.747C98.6968 198.299 98.9732 198.299 99.5261 198.299C100.079 198.299 100.355 198.299 100.632 198.023C100.908 197.747 101.185 197.194 101.185 196.641Z" fill="#606062"/>
<path d="M102.843 195.812C102.843 194.706 103.396 193.601 103.949 193.048C104.502 192.495 105.331 192.219 106.16 192.219C106.99 192.219 107.819 192.495 108.372 193.324C108.925 193.877 109.201 194.706 109.201 195.812C109.201 196.641 109.201 197.194 108.925 197.747C108.648 198.299 108.372 198.576 107.819 198.852C107.266 199.129 106.713 199.405 106.16 199.405C105.331 199.405 104.502 199.129 103.949 198.576C103.396 197.747 102.843 196.917 102.843 195.812ZM104.225 195.812C104.225 196.641 104.225 197.47 104.778 197.747C105.055 198.299 105.607 198.299 106.16 198.299C106.713 198.299 107.266 198.299 107.542 197.747C107.819 197.194 108.095 196.641 108.095 195.812C108.095 194.983 107.819 194.43 107.542 193.877C107.266 193.601 106.713 193.324 106.16 193.324C105.607 193.324 105.055 193.324 104.778 193.877C104.225 194.43 104.225 194.983 104.225 195.812Z" fill="#606062"/>
<path d="M115.006 199.129V198.299C114.453 198.852 113.9 199.405 113.071 199.405C112.518 199.405 112.242 199.405 111.689 199.129C111.413 198.852 111.136 198.852 111.136 198.576C110.86 198.299 110.86 198.023 110.583 197.747C110.583 197.47 110.583 197.194 110.583 196.641V192.495H111.689V196.088C111.689 196.917 111.689 197.194 111.965 197.47C111.965 197.747 111.965 198.023 112.242 198.023C112.518 198.299 112.795 198.299 113.071 198.299C113.624 198.299 113.9 198.299 114.177 198.023C114.453 198.023 114.73 197.747 114.73 197.47C115.006 197.194 115.006 196.641 115.006 196.088V192.495H116.112V199.129H115.006Z" fill="#606062"/>
<path d="M117.77 199.129V192.495H118.876V193.324C119.429 192.772 120.258 192.219 121.088 192.219C121.364 192.219 121.917 192.495 122.193 192.495C122.47 192.772 122.746 192.772 123.023 193.048C123.023 193.324 123.299 193.601 123.299 193.877C123.299 194.153 123.299 194.43 123.299 194.983V199.129H122.193V194.983C122.193 194.706 122.193 194.153 122.193 194.153C121.917 193.877 121.917 193.601 121.64 193.601C121.364 193.324 121.088 193.324 120.811 193.324C120.258 193.324 119.982 193.324 119.705 193.877C119.153 194.153 119.153 194.706 119.153 195.535V199.129H117.77Z" fill="#606062"/>
<path d="M127.722 198.299V199.128C127.445 199.128 127.169 199.405 126.893 199.405C126.616 199.405 126.063 199.128 126.063 199.128C125.787 198.852 125.51 198.852 125.51 198.576C125.51 198.299 125.234 198.023 125.234 197.194V193.324H124.405V192.495H125.234V190.837L126.616 190.008V192.495H127.722V193.324H126.616V197.194C126.616 197.747 126.616 197.747 126.616 198.023C126.893 198.299 126.893 198.299 127.169 198.299C127.169 198.299 127.445 198.299 127.722 198.299Z" fill="#606062"/>
<path d="M343.89 183.553H151.771V183H343.89V183.553ZM347.207 186.04H346.378V185.764V185.488V185.211L346.101 184.935V184.658H345.825V184.382L345.548 184.106H345.272V183.829H344.995H344.719V183.553H344.442H344.166H343.89V183H344.166H344.442H344.719H344.995L345.272 183.276H345.548L345.825 183.553L346.101 183.829H346.378V184.106L346.654 184.382V184.658H346.93V184.935V185.211V185.488H347.207V185.764V186.04ZM346.378 206.493V186.04H347.207V206.493H346.378ZM343.89 209.81V209.257H344.166H344.442V208.981H344.719H344.995L345.272 208.704H345.548V208.428H345.825V208.152H346.101V207.875V207.599H346.378V207.322V207.046V206.77V206.493H347.207V206.77V207.046L346.93 207.322V207.599V207.875L346.654 208.152V208.428H346.378V208.704L346.101 208.981H345.825V209.257H345.548V209.534H345.272H344.995L344.719 209.81H344.442H344.166H343.89ZM151.771 209.257H343.89V209.81H151.771V209.257ZM148.73 206.493H149.283V206.77V207.046L149.56 207.322V207.599V207.875H149.836V208.152L150.113 208.428L150.389 208.704H150.665V208.981H150.942H151.218H151.495V209.257H151.771V209.81H151.495H151.218L150.942 209.534H150.665H150.389L150.113 209.257H149.836V208.981H149.56V208.704H149.283V208.428V208.152H149.007V207.875V207.599H148.73V207.322V207.046V206.77V206.493ZM149.283 186.04V206.493H148.73V186.04H149.283ZM151.771 183V183.553H151.495H151.218L150.942 183.829H150.665L150.389 184.106H150.113V184.382H149.836V184.658L149.56 184.935V185.211V185.488H149.283V185.764V186.04H148.73V185.764V185.488V185.211L149.007 184.935V184.658L149.283 184.382V184.106L149.56 183.829H149.836V183.553H150.113V183.276H150.389H150.665V183H150.942H151.218H151.495H151.771Z" fill="#A9ABAE"/>
<path d="M341.527 138H154.259C151.358 138 149.007 139.237 149.007 140.764V161.482C149.007 163.009 151.358 164.246 154.259 164.246H341.527C344.428 164.246 346.779 163.009 346.779 161.482V140.764C346.779 139.237 344.428 138 341.527 138Z" fill="#E8E8E8"/>
<path d="M32.6301 151.036L34.0122 151.589C33.7358 152.418 33.183 153.248 32.6301 153.8C31.8008 154.353 30.9715 154.63 30.1422 154.63C29.0365 154.63 28.2072 154.353 27.6544 154.077C27.1015 153.524 26.5486 152.971 26.2722 152.142C25.7194 151.313 25.7194 150.484 25.7194 149.654C25.7194 148.825 25.9958 147.996 26.2722 147.167C26.5486 146.338 27.1015 145.785 27.9308 145.509C28.4837 145.232 29.3129 144.956 30.1422 144.956C30.9715 144.956 31.8008 145.232 32.3537 145.509C33.183 146.061 33.4594 146.891 33.7358 147.72L32.6301 147.996C32.3537 147.167 32.0772 146.891 31.5244 146.338C31.2479 146.061 30.6951 146.061 30.1422 146.061C29.3129 146.061 28.7601 146.061 28.2072 146.614C27.6544 146.891 27.3779 147.443 27.3779 147.996C27.1015 148.549 26.8251 149.102 26.8251 149.654C26.8251 150.484 27.1015 151.036 27.3779 151.866C27.6544 152.418 27.9308 152.695 28.4837 152.971C28.7601 153.248 29.3129 153.524 29.8658 153.524C30.6951 153.524 31.2479 153.248 31.8008 152.971C32.0772 152.418 32.6301 151.866 32.6301 151.036Z" fill="#606062"/>
<path d="M39.8173 154.353V153.524C39.2644 154.077 38.4351 154.63 37.6058 154.63C37.053 154.63 36.7766 154.353 36.5001 154.353C36.2237 154.077 35.9473 154.077 35.6708 153.8C35.6708 153.524 35.3944 153.248 35.3944 152.971C35.3944 152.695 35.3944 152.418 35.3944 151.866V147.72H36.5001V151.313C36.5001 151.866 36.5001 152.418 36.5001 152.695C36.5001 152.971 36.7766 153.248 37.053 153.248C37.053 153.524 37.6058 153.524 37.8823 153.524C38.1587 153.524 38.4351 153.524 38.7116 153.248C38.988 153.248 39.2644 152.971 39.5409 152.695C39.5409 152.418 39.5409 151.866 39.5409 151.313V147.72H40.6466V154.353H39.8173Z" fill="#606062"/>
<path d="M42.5815 154.353V147.72H43.6873V148.825C43.9637 148.273 43.9637 147.996 44.2401 147.72C44.5166 147.72 44.793 147.443 45.0694 147.443C45.3458 147.443 45.8987 147.72 46.1751 147.996L45.8987 148.825C45.6223 148.825 45.3458 148.825 45.0694 148.825C44.793 148.825 44.5166 148.825 44.2401 148.825C44.2401 149.102 43.9637 149.378 43.9637 149.654C43.6873 149.931 43.6873 150.484 43.6873 150.76V154.353H42.5815Z" fill="#606062"/>
<path d="M47.0044 154.353V147.72H47.8337V148.825C48.1101 148.273 48.3865 147.996 48.663 147.72C48.9394 147.72 49.2158 147.443 49.4923 147.443C49.7687 147.443 50.0451 147.72 50.598 147.996L50.0451 148.825C49.7687 148.825 49.4923 148.825 49.2158 148.825C48.9394 148.825 48.9394 148.825 48.663 148.825C48.3865 149.102 48.3865 149.378 48.1101 149.654C48.1101 149.931 48.1101 150.484 48.1101 150.76V154.353H47.0044Z" fill="#606062"/>
<path d="M55.8502 152.142L56.956 152.418C56.956 152.971 56.4031 153.524 56.1267 154.077C55.5738 154.353 54.7445 154.63 54.1917 154.63C53.0859 154.63 52.2567 154.353 51.7038 153.524C51.1509 152.971 50.8745 152.142 50.8745 151.036C50.8745 149.931 51.1509 149.102 51.7038 148.549C52.2567 147.72 53.0859 147.443 53.9152 147.443C55.0209 147.443 55.5738 147.72 56.1267 148.549C56.6795 149.102 56.956 149.931 56.956 151.036V151.313H51.9802C51.9802 152.142 52.2567 152.695 52.5331 152.971C53.0859 153.524 53.6388 153.524 54.1917 153.524C54.4681 153.524 54.7445 153.524 55.0209 153.248C55.5738 152.971 55.5738 152.695 55.8502 152.142ZM51.9802 150.484H55.8502C55.8502 149.931 55.5738 149.378 55.2974 149.102C55.0209 148.549 54.4681 148.549 53.9152 148.549C53.3624 148.549 53.0859 148.549 52.8095 149.102C52.2567 149.378 52.2567 149.931 51.9802 150.484Z" fill="#606062"/>
<path d="M58.6145 154.353V147.72H59.4438V148.549C59.9966 147.996 60.8259 147.443 61.6552 147.443C62.2081 147.443 62.4845 147.72 62.7609 147.72C63.0374 147.996 63.3138 147.996 63.5902 148.273C63.5902 148.549 63.8667 148.825 63.8667 149.102C63.8667 149.378 63.8667 149.654 63.8667 150.207V154.353H62.7609V150.207C62.7609 149.931 62.7609 149.378 62.7609 149.378C62.4845 149.102 62.4845 148.825 62.2081 148.825C61.9317 148.549 61.6552 148.549 61.3788 148.549C60.8259 148.549 60.5495 148.549 60.2731 149.102C59.7202 149.378 59.7202 149.931 59.7202 150.76V154.353H58.6145Z" fill="#606062"/>
<path d="M70.2246 151.866L71.3303 152.142C71.0539 152.971 70.7774 153.524 70.2246 153.8C69.9481 154.353 69.1188 154.63 68.566 154.63C67.4603 154.63 66.9074 154.353 66.3546 153.524C65.8017 152.971 65.5253 152.142 65.5253 151.036C65.5253 150.207 65.5253 149.654 65.8017 149.102C66.0781 148.549 66.3546 148.273 66.9074 147.996C67.4603 147.72 68.0131 147.443 68.566 147.443C69.1188 147.443 69.9481 147.72 70.2246 147.996C70.7774 148.549 71.0539 149.102 71.0539 149.654L69.9481 149.931C69.9481 149.378 69.6717 149.102 69.3953 148.825C69.1188 148.549 68.8424 148.549 68.566 148.549C68.0131 148.549 67.4603 148.549 67.1838 149.102C66.631 149.378 66.631 150.207 66.631 151.036C66.631 151.866 66.631 152.695 67.1838 152.971C67.4603 153.524 68.0131 153.524 68.566 153.524C68.8424 153.524 69.3953 153.524 69.6717 153.248C69.9481 152.971 69.9481 152.418 70.2246 151.866Z" fill="#606062"/>
<path d="M72.1595 157.117V156.011C72.436 156.011 72.436 156.011 72.7124 156.011C72.9888 156.011 73.2653 156.011 73.2653 156.011C73.5417 155.735 73.5417 155.735 73.8181 155.459C73.8181 155.459 73.8181 155.182 74.0946 154.63C74.0946 154.63 74.0946 154.63 74.0946 154.353L71.6067 147.72H72.7124L74.371 151.589C74.371 152.142 74.6474 152.695 74.6474 153.248C74.9238 152.695 74.9238 152.142 75.2003 151.589L76.5824 147.72H77.6881L75.2003 154.63C74.9238 155.182 74.6474 155.735 74.6474 156.011C74.371 156.564 74.0946 156.841 73.8181 156.841C73.5417 157.117 73.2653 157.117 72.9888 157.117C72.7124 157.117 72.436 157.117 72.1595 157.117Z" fill="#606062"/>
<path d="M89.2981 151.036L90.4038 151.589C90.1274 152.418 89.5745 153.248 89.0217 153.8C88.4688 154.353 87.6395 154.63 86.5338 154.63C85.4281 154.63 84.8753 154.353 84.046 154.077C83.4931 153.524 82.9402 152.971 82.6638 152.142C82.3874 151.313 82.111 150.484 82.111 149.654C82.111 148.825 82.3874 147.996 82.6638 147.167C83.2167 146.338 83.7695 145.785 84.3224 145.509C84.8753 145.232 85.7045 144.956 86.5338 144.956C87.6395 144.956 88.1924 145.232 89.0217 145.509C89.5745 146.061 90.1274 146.891 90.4038 147.72L89.0217 147.996C88.7453 147.167 88.4688 146.891 88.1924 146.338C87.6395 146.061 87.0867 146.061 86.5338 146.061C85.981 146.061 85.1517 146.061 84.8753 146.614C84.3224 146.891 84.046 147.443 83.7695 147.996C83.4931 148.549 83.4931 149.102 83.4931 149.654C83.4931 150.484 83.4931 151.036 83.7695 151.866C84.046 152.418 84.3224 152.695 84.8753 152.971C85.4281 153.248 85.981 153.524 86.5338 153.524C87.0867 153.524 87.6395 153.248 88.1924 152.971C88.7453 152.418 89.0217 151.866 89.2981 151.036Z" fill="#606062"/>
<path d="M91.5095 151.036C91.5095 149.654 91.786 148.825 92.3388 148.273C92.8917 147.72 93.721 147.443 94.5502 147.443C95.3795 147.443 96.2088 147.72 96.7617 148.549C97.3145 149.102 97.591 149.931 97.591 151.036C97.591 151.866 97.591 152.418 97.3145 152.971C97.0381 153.524 96.7617 153.8 96.2088 154.077C95.656 154.353 95.1031 154.63 94.5502 154.63C93.721 154.63 92.8917 154.353 92.3388 153.524C91.786 152.971 91.5095 152.142 91.5095 151.036ZM92.6152 151.036C92.6152 151.866 92.6152 152.418 93.1681 152.971C93.4445 153.524 93.9974 153.524 94.5502 153.524C95.1031 153.524 95.656 153.524 95.9324 152.971C96.4852 152.418 96.4852 151.866 96.4852 151.036C96.4852 150.207 96.4852 149.654 95.9324 149.102C95.656 148.549 95.1031 148.549 94.5502 148.549C93.9974 148.549 93.4445 148.549 93.1681 149.102C92.6152 149.654 92.6152 150.207 92.6152 151.036Z" fill="#606062"/>
<path d="M98.9731 154.353V147.72H100.079V148.549C100.355 148.273 100.632 147.996 100.908 147.72C101.185 147.72 101.737 147.443 102.014 147.443C102.567 147.443 103.12 147.72 103.396 147.72C103.672 147.996 103.949 148.273 103.949 148.825C104.502 147.996 105.331 147.443 106.16 147.443C106.713 147.443 107.266 147.72 107.819 147.996C108.095 148.549 108.372 149.102 108.372 149.654V154.353H106.99V150.207C106.99 149.654 106.99 149.378 106.99 149.102C106.99 149.102 106.713 148.825 106.437 148.549C106.437 148.549 106.16 148.549 105.884 148.549C105.331 148.549 105.055 148.549 104.778 149.102C104.502 149.378 104.225 149.931 104.225 150.484V154.353H103.12V149.931C103.12 149.654 102.843 149.102 102.843 148.825C102.567 148.549 102.29 148.549 101.737 148.549C101.461 148.549 101.185 148.549 100.908 148.825C100.632 148.825 100.632 149.102 100.355 149.378C100.355 149.931 100.079 150.207 100.079 151.036V154.353H98.9731Z" fill="#606062"/>
<path d="M110.03 157.117V147.72H110.86V148.549C111.136 148.273 111.413 147.996 111.689 147.72C111.965 147.72 112.518 147.443 112.795 147.443C113.624 147.443 113.9 147.72 114.453 147.996C115.006 148.273 115.283 148.549 115.559 149.102C115.559 149.654 115.835 150.207 115.835 151.036C115.835 151.589 115.559 152.418 115.283 152.971C115.283 153.524 114.73 153.8 114.453 154.077C113.9 154.353 113.348 154.63 112.795 154.63C112.518 154.63 112.242 154.353 111.689 154.353C111.413 154.077 111.136 154.077 111.136 153.8V157.117H110.03ZM110.86 151.036C110.86 151.866 111.136 152.695 111.413 152.971C111.965 153.524 112.242 153.524 112.795 153.524C113.348 153.524 113.624 153.524 114.177 152.971C114.453 152.418 114.73 151.866 114.73 151.036C114.73 150.207 114.453 149.378 114.177 149.102C113.624 148.549 113.348 148.549 112.795 148.549C112.242 148.549 111.965 148.549 111.413 149.102C111.136 149.654 110.86 150.207 110.86 151.036Z" fill="#606062"/>
<path d="M121.64 153.524C121.088 153.8 120.811 154.077 120.258 154.353C119.982 154.353 119.429 154.63 119.153 154.63C118.323 154.63 117.77 154.353 117.494 154.077C116.941 153.524 116.665 153.248 116.665 152.695C116.665 152.418 116.941 151.866 116.941 151.866C117.218 151.589 117.218 151.313 117.494 151.036C117.77 151.036 118.047 150.76 118.323 150.76C118.6 150.76 118.876 150.484 119.429 150.484C120.258 150.484 121.088 150.207 121.364 150.207C121.364 149.931 121.364 149.931 121.364 149.931C121.364 149.378 121.364 149.102 121.088 148.825C120.811 148.549 120.535 148.549 119.982 148.549C119.429 148.549 118.876 148.549 118.6 148.825C118.323 148.825 118.323 149.378 118.047 149.654H116.941C116.941 149.102 117.218 148.825 117.494 148.549C117.77 148.273 118.047 147.996 118.6 147.72C118.876 147.72 119.429 147.443 119.982 147.443C120.535 147.443 121.088 147.443 121.364 147.72C121.917 147.72 122.193 147.996 122.193 148.273C122.47 148.549 122.47 148.825 122.47 149.102C122.746 149.102 122.746 149.654 122.746 149.931V151.589C122.746 152.695 122.746 153.248 122.746 153.524C122.746 153.8 122.746 154.077 123.023 154.353H121.917C121.64 154.077 121.64 153.8 121.64 153.524ZM121.364 151.036C121.088 151.313 120.535 151.313 119.705 151.589C119.153 151.589 118.876 151.589 118.6 151.589C118.323 151.866 118.323 151.866 118.047 152.142C118.047 152.142 118.047 152.418 118.047 152.695C118.047 152.971 118.047 153.248 118.323 153.248C118.6 153.524 118.876 153.8 119.429 153.8C119.705 153.8 120.258 153.524 120.535 153.248C120.811 153.248 121.088 152.971 121.364 152.695C121.364 152.418 121.364 151.866 121.364 151.313V151.036Z" fill="#606062"/>
<path d="M124.405 154.353V147.72H125.51V148.549C126.063 147.996 126.616 147.443 127.722 147.443C127.998 147.443 128.275 147.72 128.828 147.72C129.104 147.996 129.38 147.996 129.38 148.273C129.657 148.549 129.657 148.825 129.933 149.102C129.933 149.378 129.933 149.654 129.933 150.207V154.353H128.828V150.207C128.828 149.931 128.828 149.378 128.551 149.378C128.551 149.102 128.275 148.825 128.275 148.825C127.998 148.549 127.722 148.549 127.445 148.549C126.893 148.549 126.34 148.549 126.063 149.102C125.787 149.378 125.51 149.931 125.51 150.76V154.353H124.405Z" fill="#606062"/>
<path d="M131.592 157.117V156.011C131.868 156.011 131.868 156.011 132.145 156.011C132.421 156.011 132.698 156.011 132.698 156.011C132.974 155.735 132.974 155.735 133.25 155.459C133.25 155.459 133.25 155.182 133.527 154.63C133.527 154.63 133.527 154.63 133.527 154.353L131.039 147.72H132.145L133.527 151.589C133.803 152.142 134.08 152.695 134.08 153.248C134.356 152.695 134.356 152.142 134.633 151.589L136.015 147.72H137.12L134.633 154.63C134.356 155.182 134.08 155.735 134.08 156.011C133.803 156.564 133.527 156.841 133.25 156.841C132.974 157.117 132.698 157.117 132.421 157.117C132.145 157.117 131.868 157.117 131.592 157.117Z" fill="#606062"/>
<path fill-rule="evenodd" clip-rule="evenodd" d="M27.9308 105.858H51.4273C53.0859 105.858 54.1916 107.24 54.1916 108.622V129.351C54.1916 130.733 53.0859 132.115 51.4273 132.115H27.9308C26.2722 132.115 24.8901 130.733 24.8901 129.351V108.622C24.8901 107.24 26.2722 105.858 27.9308 105.858Z" fill="#FEFEFE"/>
<path d="M374.334 90.6564C399.372 90.6564 419.669 70.3623 419.669 45.3282C419.669 20.2941 399.372 0 374.334 0C349.297 0 329 20.2941 329 45.3282C329 70.3623 349.297 90.6564 374.334 90.6564Z" fill="#1A237E"/>
<path d="M376.835 26C378.732 26 380.525 26.205 382.216 26.615C383.925 27.0249 385.462 27.5203 386.829 28.1011L384.446 33.9946C383.25 33.4992 382.054 33.1063 380.858 32.8159C379.68 32.5084 378.552 32.3547 377.476 32.3547C376.349 32.3547 375.375 32.6878 374.555 33.354C373.735 34.0031 373.325 35.1391 373.325 36.762V41.7074H382.934V47.3189H373.325V50.9831C373.325 52.2302 373.129 53.2637 372.736 54.0836C372.343 54.9036 371.847 55.5698 371.249 56.0823C370.669 56.5947 370.071 57.0133 369.456 57.3378H387.854V64H361V57.6453C361.974 57.2183 362.802 56.757 363.486 56.2616C364.169 55.7492 364.69 55.0829 365.049 54.263C365.424 53.443 365.612 52.3668 365.612 51.0344V47.3189H361.051V41.7074H365.612V36.7107C365.612 34.1313 366.116 32.0643 367.124 30.5098C368.149 28.9382 369.507 27.7937 371.198 27.0762C372.906 26.3587 374.786 26 376.835 26Z" fill="white"/>
<path d="M160.582 151.348H163.781V155.648C163.332 155.797 162.867 155.912 162.387 155.994C161.906 156.076 161.367 156.117 160.77 156.117C159.898 156.117 159.16 155.945 158.555 155.602C157.953 155.254 157.496 154.752 157.184 154.096C156.871 153.436 156.715 152.641 156.715 151.711C156.715 150.816 156.889 150.041 157.236 149.385C157.584 148.725 158.09 148.215 158.754 147.855C159.418 147.492 160.223 147.311 161.168 147.311C161.633 147.311 162.082 147.357 162.516 147.451C162.953 147.541 163.354 147.666 163.717 147.826L163.225 148.986C162.936 148.85 162.611 148.734 162.252 148.641C161.893 148.547 161.52 148.5 161.133 148.5C160.52 148.5 159.99 148.633 159.545 148.898C159.104 149.164 158.764 149.539 158.525 150.023C158.287 150.504 158.168 151.072 158.168 151.729C158.168 152.365 158.264 152.924 158.455 153.404C158.646 153.885 158.945 154.26 159.352 154.529C159.762 154.795 160.291 154.928 160.939 154.928C161.264 154.928 161.539 154.91 161.766 154.875C161.992 154.84 162.201 154.801 162.393 154.758V152.549H160.582V151.348ZM165.832 147.434H168.381C169.486 147.434 170.32 147.594 170.883 147.914C171.445 148.234 171.727 148.787 171.727 149.572C171.727 149.9 171.668 150.197 171.551 150.463C171.438 150.725 171.271 150.941 171.053 151.113C170.834 151.281 170.564 151.395 170.244 151.453V151.512C170.576 151.57 170.871 151.674 171.129 151.822C171.391 151.971 171.596 152.184 171.744 152.461C171.896 152.738 171.973 153.098 171.973 153.539C171.973 154.062 171.848 154.508 171.598 154.875C171.352 155.242 170.998 155.521 170.537 155.713C170.08 155.904 169.537 156 168.908 156H165.832V147.434ZM167.238 150.967H168.586C169.223 150.967 169.664 150.863 169.91 150.656C170.156 150.449 170.279 150.146 170.279 149.748C170.279 149.342 170.133 149.049 169.84 148.869C169.551 148.689 169.09 148.6 168.457 148.6H167.238V150.967ZM167.238 152.104V154.822H168.721C169.377 154.822 169.838 154.695 170.104 154.441C170.369 154.188 170.502 153.844 170.502 153.41C170.502 153.145 170.441 152.914 170.32 152.719C170.203 152.523 170.01 152.373 169.74 152.268C169.471 152.158 169.107 152.104 168.65 152.104H167.238ZM176.232 147.434C177.338 147.434 178.145 147.66 178.652 148.113C179.16 148.566 179.414 149.201 179.414 150.018C179.414 150.389 179.355 150.742 179.238 151.078C179.125 151.41 178.938 151.705 178.676 151.963C178.414 152.217 178.068 152.418 177.639 152.566C177.213 152.715 176.688 152.789 176.062 152.789H175.148V156H173.742V147.434H176.232ZM176.139 148.6H175.148V151.617H175.916C176.357 151.617 176.732 151.566 177.041 151.465C177.35 151.359 177.584 151.193 177.744 150.967C177.904 150.74 177.984 150.441 177.984 150.07C177.984 149.574 177.834 149.205 177.533 148.963C177.236 148.721 176.771 148.6 176.139 148.6ZM183.598 152.713C183.598 152.057 183.66 151.416 183.785 150.791C183.914 150.166 184.109 149.57 184.371 149.004C184.633 148.438 184.963 147.914 185.361 147.434H186.562C186.004 148.18 185.582 149.006 185.297 149.912C185.016 150.818 184.875 151.748 184.875 152.701C184.875 153.322 184.938 153.938 185.062 154.547C185.188 155.156 185.375 155.742 185.625 156.305C185.875 156.871 186.184 157.402 186.551 157.898H185.361C184.963 157.43 184.633 156.918 184.371 156.363C184.109 155.809 183.914 155.223 183.785 154.605C183.66 153.988 183.598 153.357 183.598 152.713ZM188.051 147.434H190.6C191.705 147.434 192.539 147.594 193.102 147.914C193.664 148.234 193.945 148.787 193.945 149.572C193.945 149.9 193.887 150.197 193.77 150.463C193.656 150.725 193.49 150.941 193.271 151.113C193.053 151.281 192.783 151.395 192.463 151.453V151.512C192.795 151.57 193.09 151.674 193.348 151.822C193.609 151.971 193.814 152.184 193.963 152.461C194.115 152.738 194.191 153.098 194.191 153.539C194.191 154.062 194.066 154.508 193.816 154.875C193.57 155.242 193.217 155.521 192.756 155.713C192.299 155.904 191.756 156 191.127 156H188.051V147.434ZM189.457 150.967H190.805C191.441 150.967 191.883 150.863 192.129 150.656C192.375 150.449 192.498 150.146 192.498 149.748C192.498 149.342 192.352 149.049 192.059 148.869C191.77 148.689 191.309 148.6 190.676 148.6H189.457V150.967ZM189.457 152.104V154.822H190.939C191.596 154.822 192.057 154.695 192.322 154.441C192.588 154.188 192.721 153.844 192.721 153.41C192.721 153.145 192.66 152.914 192.539 152.719C192.422 152.523 192.229 152.373 191.959 152.268C191.689 152.158 191.326 152.104 190.869 152.104H189.457ZM199.107 149.391C199.217 149.391 199.336 149.396 199.465 149.408C199.594 149.42 199.705 149.436 199.799 149.455L199.67 150.744C199.588 150.721 199.486 150.703 199.365 150.691C199.248 150.68 199.143 150.674 199.049 150.674C198.803 150.674 198.568 150.715 198.346 150.797C198.123 150.875 197.926 150.996 197.754 151.16C197.582 151.32 197.447 151.521 197.35 151.764C197.252 152.006 197.203 152.287 197.203 152.607V156H195.82V149.514H196.898L197.086 150.656H197.15C197.279 150.426 197.439 150.215 197.631 150.023C197.822 149.832 198.041 149.68 198.287 149.566C198.537 149.449 198.811 149.391 199.107 149.391ZM202.377 149.514V156H201V149.514H202.377ZM201.697 147.029C201.908 147.029 202.09 147.086 202.242 147.199C202.398 147.312 202.477 147.508 202.477 147.785C202.477 148.059 202.398 148.254 202.242 148.371C202.09 148.484 201.908 148.541 201.697 148.541C201.479 148.541 201.293 148.484 201.141 148.371C200.992 148.254 200.918 148.059 200.918 147.785C200.918 147.508 200.992 147.312 201.141 147.199C201.293 147.086 201.479 147.029 201.697 147.029ZM206.766 155.004C206.945 155.004 207.123 154.988 207.299 154.957C207.475 154.922 207.635 154.881 207.779 154.834V155.877C207.627 155.943 207.43 156 207.188 156.047C206.945 156.094 206.693 156.117 206.432 156.117C206.064 156.117 205.734 156.057 205.441 155.936C205.148 155.811 204.916 155.598 204.744 155.297C204.572 154.996 204.486 154.58 204.486 154.049V150.562H203.602V149.947L204.551 149.461L205.002 148.072H205.869V149.514H207.727V150.562H205.869V154.031C205.869 154.359 205.951 154.604 206.115 154.764C206.279 154.924 206.496 155.004 206.766 155.004ZM210.475 149.514V156H209.098V149.514H210.475ZM209.795 147.029C210.006 147.029 210.188 147.086 210.34 147.199C210.496 147.312 210.574 147.508 210.574 147.785C210.574 148.059 210.496 148.254 210.34 148.371C210.188 148.484 210.006 148.541 209.795 148.541C209.576 148.541 209.391 148.484 209.238 148.371C209.09 148.254 209.016 148.059 209.016 147.785C209.016 147.508 209.09 147.312 209.238 147.199C209.391 147.086 209.576 147.029 209.795 147.029ZM216.809 154.148C216.809 154.574 216.705 154.934 216.498 155.227C216.291 155.52 215.988 155.742 215.59 155.895C215.195 156.043 214.711 156.117 214.137 156.117C213.684 156.117 213.293 156.084 212.965 156.018C212.641 155.955 212.334 155.857 212.045 155.725V154.535C212.354 154.68 212.699 154.805 213.082 154.91C213.469 155.016 213.834 155.068 214.178 155.068C214.631 155.068 214.957 154.998 215.156 154.857C215.355 154.713 215.455 154.521 215.455 154.283C215.455 154.143 215.414 154.018 215.332 153.908C215.254 153.795 215.105 153.68 214.887 153.562C214.672 153.441 214.355 153.297 213.938 153.129C213.527 152.965 213.182 152.801 212.9 152.637C212.619 152.473 212.406 152.275 212.262 152.045C212.117 151.811 212.045 151.512 212.045 151.148C212.045 150.574 212.271 150.139 212.725 149.842C213.182 149.541 213.785 149.391 214.535 149.391C214.934 149.391 215.309 149.432 215.66 149.514C216.016 149.592 216.363 149.707 216.703 149.859L216.27 150.896C215.977 150.768 215.682 150.662 215.385 150.58C215.092 150.494 214.793 150.451 214.488 150.451C214.133 150.451 213.861 150.506 213.674 150.615C213.49 150.725 213.398 150.881 213.398 151.084C213.398 151.236 213.443 151.365 213.533 151.471C213.623 151.576 213.777 151.682 213.996 151.787C214.219 151.893 214.527 152.023 214.922 152.18C215.309 152.328 215.643 152.484 215.924 152.648C216.209 152.809 216.428 153.006 216.58 153.24C216.732 153.475 216.809 153.777 216.809 154.148ZM219.674 146.883V149.174C219.674 149.412 219.666 149.645 219.65 149.871C219.639 150.098 219.625 150.273 219.609 150.398H219.686C219.822 150.172 219.99 149.986 220.189 149.842C220.389 149.693 220.611 149.582 220.857 149.508C221.107 149.434 221.373 149.396 221.654 149.396C222.15 149.396 222.572 149.48 222.92 149.648C223.268 149.812 223.533 150.068 223.717 150.416C223.904 150.764 223.998 151.215 223.998 151.77V156H222.621V152.027C222.621 151.523 222.518 151.146 222.311 150.896C222.104 150.643 221.783 150.516 221.35 150.516C220.932 150.516 220.6 150.604 220.354 150.779C220.111 150.951 219.938 151.207 219.832 151.547C219.727 151.883 219.674 152.293 219.674 152.777V156H218.297V146.883H219.674ZM231.674 147.434C232.779 147.434 233.586 147.66 234.094 148.113C234.602 148.566 234.855 149.201 234.855 150.018C234.855 150.389 234.797 150.742 234.68 151.078C234.566 151.41 234.379 151.705 234.117 151.963C233.855 152.217 233.51 152.418 233.08 152.566C232.654 152.715 232.129 152.789 231.504 152.789H230.59V156H229.184V147.434H231.674ZM231.58 148.6H230.59V151.617H231.357C231.799 151.617 232.174 151.566 232.482 151.465C232.791 151.359 233.025 151.193 233.186 150.967C233.346 150.74 233.426 150.441 233.426 150.07C233.426 149.574 233.275 149.205 232.975 148.963C232.678 148.721 232.213 148.6 231.58 148.6ZM242.168 152.742C242.168 153.281 242.098 153.76 241.957 154.178C241.816 154.596 241.611 154.949 241.342 155.238C241.072 155.523 240.748 155.742 240.369 155.895C239.99 156.043 239.562 156.117 239.086 156.117C238.641 156.117 238.232 156.043 237.861 155.895C237.49 155.742 237.168 155.523 236.895 155.238C236.625 154.949 236.416 154.596 236.268 154.178C236.119 153.76 236.045 153.281 236.045 152.742C236.045 152.027 236.168 151.422 236.414 150.926C236.664 150.426 237.02 150.045 237.48 149.783C237.941 149.521 238.49 149.391 239.127 149.391C239.725 149.391 240.252 149.521 240.709 149.783C241.166 150.045 241.523 150.426 241.781 150.926C242.039 151.426 242.168 152.031 242.168 152.742ZM237.463 152.742C237.463 153.215 237.52 153.619 237.633 153.955C237.75 154.291 237.93 154.549 238.172 154.729C238.414 154.904 238.727 154.992 239.109 154.992C239.492 154.992 239.805 154.904 240.047 154.729C240.289 154.549 240.467 154.291 240.58 153.955C240.693 153.619 240.75 153.215 240.75 152.742C240.75 152.27 240.693 151.869 240.58 151.541C240.467 151.209 240.289 150.957 240.047 150.785C239.805 150.609 239.49 150.521 239.104 150.521C238.533 150.521 238.117 150.713 237.855 151.096C237.594 151.479 237.463 152.027 237.463 152.742ZM249.404 149.514V156H248.32L248.133 155.127H248.057C247.92 155.35 247.746 155.535 247.535 155.684C247.324 155.828 247.09 155.936 246.832 156.006C246.574 156.08 246.303 156.117 246.018 156.117C245.529 156.117 245.111 156.035 244.764 155.871C244.42 155.703 244.156 155.445 243.973 155.098C243.789 154.75 243.697 154.301 243.697 153.75V149.514H245.08V153.492C245.08 153.996 245.182 154.373 245.385 154.623C245.592 154.873 245.912 154.998 246.346 154.998C246.764 154.998 247.096 154.912 247.342 154.74C247.588 154.568 247.762 154.314 247.863 153.979C247.969 153.643 248.021 153.23 248.021 152.742V149.514H249.404ZM254.76 149.391C255.49 149.391 256.059 149.58 256.465 149.959C256.875 150.334 257.08 150.938 257.08 151.77V156H255.703V152.027C255.703 151.523 255.6 151.146 255.393 150.896C255.186 150.643 254.865 150.516 254.432 150.516C253.803 150.516 253.365 150.709 253.119 151.096C252.877 151.482 252.756 152.043 252.756 152.777V156H251.379V149.514H252.451L252.645 150.393H252.721C252.861 150.166 253.035 149.98 253.242 149.836C253.453 149.688 253.688 149.576 253.945 149.502C254.207 149.428 254.479 149.391 254.76 149.391ZM261.188 156.117C260.414 156.117 259.793 155.836 259.324 155.273C258.859 154.707 258.627 153.873 258.627 152.771C258.627 151.658 258.863 150.816 259.336 150.246C259.812 149.676 260.439 149.391 261.217 149.391C261.545 149.391 261.832 149.436 262.078 149.525C262.324 149.611 262.535 149.729 262.711 149.877C262.891 150.025 263.043 150.191 263.168 150.375H263.232C263.213 150.254 263.189 150.08 263.162 149.854C263.139 149.623 263.127 149.41 263.127 149.215V146.883H264.51V156H263.432L263.186 155.115H263.127C263.01 155.303 262.861 155.473 262.682 155.625C262.506 155.773 262.295 155.893 262.049 155.982C261.807 156.072 261.52 156.117 261.188 156.117ZM261.574 154.998C262.164 154.998 262.58 154.828 262.822 154.488C263.064 154.148 263.189 153.639 263.197 152.959V152.777C263.197 152.051 263.08 151.494 262.846 151.107C262.611 150.717 262.184 150.521 261.562 150.521C261.066 150.521 260.688 150.723 260.426 151.125C260.168 151.523 260.039 152.08 260.039 152.795C260.039 153.51 260.168 154.057 260.426 154.436C260.688 154.811 261.07 154.998 261.574 154.998ZM268.822 152.707C268.822 153.355 268.76 153.988 268.635 154.605C268.51 155.223 268.316 155.809 268.055 156.363C267.797 156.918 267.465 157.43 267.059 157.898H265.875C266.242 157.402 266.551 156.871 266.801 156.305C267.051 155.738 267.238 155.15 267.363 154.541C267.488 153.932 267.551 153.316 267.551 152.695C267.551 152.062 267.486 151.438 267.357 150.82C267.232 150.203 267.045 149.609 266.795 149.039C266.545 148.465 266.234 147.93 265.863 147.434H267.059C267.465 147.914 267.797 148.438 268.055 149.004C268.316 149.57 268.51 150.166 268.635 150.791C268.76 151.412 268.822 152.051 268.822 152.707Z" fill="#616163"/>
<path d="M157.125 201V192.434H158.531V201H157.125ZM167.941 201H166.213L162.018 194.162H161.965C161.98 194.393 161.994 194.637 162.006 194.895C162.021 195.152 162.033 195.418 162.041 195.691C162.053 195.965 162.062 196.242 162.07 196.523V201H160.793V192.434H162.51L166.699 199.225H166.74C166.732 199.025 166.723 198.797 166.711 198.539C166.699 198.281 166.688 198.016 166.676 197.742C166.668 197.465 166.662 197.197 166.658 196.939V192.434H167.941V201ZM172.6 192.434C173.338 192.434 173.947 192.523 174.428 192.703C174.912 192.883 175.271 193.156 175.506 193.523C175.744 193.891 175.863 194.357 175.863 194.924C175.863 195.346 175.785 195.705 175.629 196.002C175.473 196.299 175.268 196.545 175.014 196.74C174.76 196.936 174.488 197.092 174.199 197.209L176.631 201H175.043L172.975 197.566H171.598V201H170.191V192.434H172.6ZM172.506 193.605H171.598V196.406H172.57C173.223 196.406 173.695 196.285 173.988 196.043C174.285 195.801 174.434 195.443 174.434 194.971C174.434 194.475 174.275 194.123 173.959 193.916C173.646 193.709 173.162 193.605 172.506 193.605ZM180.328 197.713C180.328 197.057 180.391 196.416 180.516 195.791C180.645 195.166 180.84 194.57 181.102 194.004C181.363 193.438 181.693 192.914 182.092 192.434H183.293C182.734 193.18 182.312 194.006 182.027 194.912C181.746 195.818 181.605 196.748 181.605 197.701C181.605 198.322 181.668 198.938 181.793 199.547C181.918 200.156 182.105 200.742 182.355 201.305C182.605 201.871 182.914 202.402 183.281 202.898H182.092C181.693 202.43 181.363 201.918 181.102 201.363C180.84 200.809 180.645 200.223 180.516 199.605C180.391 198.988 180.328 198.357 180.328 197.713ZM184.781 201V192.434H186.188V201H184.781ZM191.689 194.391C192.42 194.391 192.988 194.58 193.395 194.959C193.805 195.334 194.01 195.938 194.01 196.77V201H192.633V197.027C192.633 196.523 192.529 196.146 192.322 195.896C192.115 195.643 191.795 195.516 191.361 195.516C190.732 195.516 190.295 195.709 190.049 196.096C189.807 196.482 189.686 197.043 189.686 197.777V201H188.309V194.514H189.381L189.574 195.393H189.65C189.791 195.166 189.965 194.98 190.172 194.836C190.383 194.688 190.617 194.576 190.875 194.502C191.137 194.428 191.408 194.391 191.689 194.391ZM198.117 201.117C197.344 201.117 196.723 200.836 196.254 200.273C195.789 199.707 195.557 198.873 195.557 197.771C195.557 196.658 195.793 195.816 196.266 195.246C196.742 194.676 197.369 194.391 198.146 194.391C198.475 194.391 198.762 194.436 199.008 194.525C199.254 194.611 199.465 194.729 199.641 194.877C199.82 195.025 199.973 195.191 200.098 195.375H200.162C200.143 195.254 200.119 195.08 200.092 194.854C200.068 194.623 200.057 194.41 200.057 194.215V191.883H201.439V201H200.361L200.115 200.115H200.057C199.939 200.303 199.791 200.473 199.611 200.625C199.436 200.773 199.225 200.893 198.979 200.982C198.736 201.072 198.449 201.117 198.117 201.117ZM198.504 199.998C199.094 199.998 199.51 199.828 199.752 199.488C199.994 199.148 200.119 198.639 200.127 197.959V197.777C200.127 197.051 200.01 196.494 199.775 196.107C199.541 195.717 199.113 195.521 198.492 195.521C197.996 195.521 197.617 195.723 197.355 196.125C197.098 196.523 196.969 197.08 196.969 197.795C196.969 198.51 197.098 199.057 197.355 199.436C197.617 199.811 198 199.998 198.504 199.998ZM204.791 194.514V201H203.414V194.514H204.791ZM204.111 192.029C204.322 192.029 204.504 192.086 204.656 192.199C204.812 192.312 204.891 192.508 204.891 192.785C204.891 193.059 204.812 193.254 204.656 193.371C204.504 193.484 204.322 193.541 204.111 193.541C203.893 193.541 203.707 193.484 203.555 193.371C203.406 193.254 203.332 193.059 203.332 192.785C203.332 192.508 203.406 192.312 203.555 192.199C203.707 192.086 203.893 192.029 204.111 192.029ZM209.309 194.391C210.129 194.391 210.748 194.572 211.166 194.936C211.588 195.299 211.799 195.865 211.799 196.635V201H210.82L210.557 200.08H210.51C210.326 200.314 210.137 200.508 209.941 200.66C209.746 200.812 209.52 200.926 209.262 201C209.008 201.078 208.697 201.117 208.33 201.117C207.943 201.117 207.598 201.047 207.293 200.906C206.988 200.762 206.748 200.543 206.572 200.25C206.396 199.957 206.309 199.586 206.309 199.137C206.309 198.469 206.557 197.967 207.053 197.631C207.553 197.295 208.307 197.109 209.314 197.074L210.439 197.033V196.693C210.439 196.244 210.334 195.924 210.123 195.732C209.916 195.541 209.623 195.445 209.244 195.445C208.92 195.445 208.605 195.492 208.301 195.586C207.996 195.68 207.699 195.795 207.41 195.932L206.965 194.959C207.281 194.791 207.641 194.654 208.043 194.549C208.449 194.443 208.871 194.391 209.309 194.391ZM210.434 197.9L209.596 197.93C208.908 197.953 208.426 198.07 208.148 198.281C207.871 198.492 207.732 198.781 207.732 199.148C207.732 199.469 207.828 199.703 208.02 199.852C208.211 199.996 208.463 200.068 208.775 200.068C209.252 200.068 209.646 199.934 209.959 199.664C210.275 199.391 210.434 198.99 210.434 198.463V197.9ZM217.107 194.391C217.838 194.391 218.406 194.58 218.812 194.959C219.223 195.334 219.428 195.938 219.428 196.77V201H218.051V197.027C218.051 196.523 217.947 196.146 217.74 195.896C217.533 195.643 217.213 195.516 216.779 195.516C216.15 195.516 215.713 195.709 215.467 196.096C215.225 196.482 215.104 197.043 215.104 197.777V201H213.727V194.514H214.799L214.992 195.393H215.068C215.209 195.166 215.383 194.98 215.59 194.836C215.801 194.688 216.035 194.576 216.293 194.502C216.555 194.428 216.826 194.391 217.107 194.391ZM227.021 192.434C227.76 192.434 228.369 192.523 228.85 192.703C229.334 192.883 229.693 193.156 229.928 193.523C230.166 193.891 230.285 194.357 230.285 194.924C230.285 195.346 230.207 195.705 230.051 196.002C229.895 196.299 229.689 196.545 229.436 196.74C229.182 196.936 228.91 197.092 228.621 197.209L231.053 201H229.465L227.396 197.566H226.02V201H224.613V192.434H227.021ZM226.928 193.605H226.02V196.406H226.992C227.645 196.406 228.117 196.285 228.41 196.043C228.707 195.801 228.855 195.443 228.855 194.971C228.855 194.475 228.697 194.123 228.381 193.916C228.068 193.709 227.584 193.605 226.928 193.605ZM237.791 194.514V201H236.707L236.52 200.127H236.443C236.307 200.35 236.133 200.535 235.922 200.684C235.711 200.828 235.477 200.936 235.219 201.006C234.961 201.08 234.689 201.117 234.404 201.117C233.916 201.117 233.498 201.035 233.15 200.871C232.807 200.703 232.543 200.445 232.359 200.098C232.176 199.75 232.084 199.301 232.084 198.75V194.514H233.467V198.492C233.467 198.996 233.568 199.373 233.771 199.623C233.979 199.873 234.299 199.998 234.732 199.998C235.15 199.998 235.482 199.912 235.729 199.74C235.975 199.568 236.148 199.314 236.25 198.979C236.355 198.643 236.408 198.23 236.408 197.742V194.514H237.791ZM243.094 194.391C243.863 194.391 244.48 194.672 244.945 195.234C245.414 195.797 245.648 196.633 245.648 197.742C245.648 198.477 245.539 199.096 245.32 199.6C245.105 200.1 244.803 200.479 244.412 200.736C244.025 200.99 243.574 201.117 243.059 201.117C242.73 201.117 242.445 201.074 242.203 200.988C241.961 200.902 241.754 200.791 241.582 200.654C241.41 200.514 241.266 200.361 241.148 200.197H241.066C241.086 200.354 241.104 200.527 241.119 200.719C241.139 200.906 241.148 201.078 241.148 201.234V203.877H239.766V194.514H240.891L241.084 195.41H241.148C241.27 195.227 241.416 195.057 241.588 194.9C241.764 194.744 241.975 194.621 242.221 194.531C242.471 194.438 242.762 194.391 243.094 194.391ZM242.725 195.516C242.346 195.516 242.041 195.592 241.811 195.744C241.584 195.893 241.418 196.117 241.312 196.418C241.211 196.719 241.156 197.096 241.148 197.549V197.742C241.148 198.223 241.197 198.631 241.295 198.967C241.396 199.299 241.562 199.553 241.793 199.729C242.027 199.9 242.344 199.986 242.742 199.986C243.078 199.986 243.355 199.895 243.574 199.711C243.797 199.527 243.963 199.266 244.072 198.926C244.182 198.586 244.236 198.186 244.236 197.725C244.236 197.025 244.111 196.482 243.861 196.096C243.615 195.709 243.236 195.516 242.725 195.516ZM249.826 194.391C250.404 194.391 250.9 194.51 251.314 194.748C251.729 194.986 252.047 195.324 252.27 195.762C252.492 196.199 252.604 196.723 252.604 197.332V198.07H248.273C248.289 198.699 248.457 199.184 248.777 199.523C249.102 199.863 249.555 200.033 250.137 200.033C250.551 200.033 250.922 199.994 251.25 199.916C251.582 199.834 251.924 199.715 252.275 199.559V200.678C251.951 200.83 251.621 200.941 251.285 201.012C250.949 201.082 250.547 201.117 250.078 201.117C249.441 201.117 248.881 200.994 248.396 200.748C247.916 200.498 247.539 200.127 247.266 199.635C246.996 199.143 246.861 198.531 246.861 197.801C246.861 197.074 246.984 196.457 247.23 195.949C247.477 195.441 247.822 195.055 248.268 194.789C248.713 194.523 249.232 194.391 249.826 194.391ZM249.826 195.428C249.393 195.428 249.041 195.568 248.771 195.85C248.506 196.131 248.35 196.543 248.303 197.086H251.256C251.252 196.762 251.197 196.475 251.092 196.225C250.99 195.975 250.834 195.779 250.623 195.639C250.416 195.498 250.15 195.428 249.826 195.428ZM256.74 194.391C257.318 194.391 257.814 194.51 258.229 194.748C258.643 194.986 258.961 195.324 259.184 195.762C259.406 196.199 259.518 196.723 259.518 197.332V198.07H255.188C255.203 198.699 255.371 199.184 255.691 199.523C256.016 199.863 256.469 200.033 257.051 200.033C257.465 200.033 257.836 199.994 258.164 199.916C258.496 199.834 258.838 199.715 259.189 199.559V200.678C258.865 200.83 258.535 200.941 258.199 201.012C257.863 201.082 257.461 201.117 256.992 201.117C256.355 201.117 255.795 200.994 255.311 200.748C254.83 200.498 254.453 200.127 254.18 199.635C253.91 199.143 253.775 198.531 253.775 197.801C253.775 197.074 253.898 196.457 254.145 195.949C254.391 195.441 254.736 195.055 255.182 194.789C255.627 194.523 256.146 194.391 256.74 194.391ZM256.74 195.428C256.307 195.428 255.955 195.568 255.686 195.85C255.42 196.131 255.264 196.543 255.217 197.086H258.17C258.166 196.762 258.111 196.475 258.006 196.225C257.904 195.975 257.748 195.779 257.537 195.639C257.33 195.498 257.064 195.428 256.74 195.428ZM263.408 197.707C263.408 198.355 263.346 198.988 263.221 199.605C263.096 200.223 262.902 200.809 262.641 201.363C262.383 201.918 262.051 202.43 261.645 202.898H260.461C260.828 202.402 261.137 201.871 261.387 201.305C261.637 200.738 261.824 200.15 261.949 199.541C262.074 198.932 262.137 198.316 262.137 197.695C262.137 197.062 262.072 196.438 261.943 195.82C261.818 195.203 261.631 194.609 261.381 194.039C261.131 193.465 260.82 192.93 260.449 192.434H261.645C262.051 192.914 262.383 193.438 262.641 194.004C262.902 194.57 263.096 195.166 263.221 195.791C263.346 196.412 263.408 197.051 263.408 197.707Z" fill="#616163"/>
</g>
<defs>
<clipPath id="clip0_10734_89330">
<rect width="419.643" height="288" fill="white"/>
</clipPath>
</defs>
</svg>
