<svg width="420" height="288" viewBox="0 0 420 288" fill="none" xmlns="http://www.w3.org/2000/svg">
<g clip-path="url(#clip0_10734_88981)">
<path fill-rule="evenodd" clip-rule="evenodd" d="M369.548 36.8086H14.2102C6.35588 36.8443 0.00100708 43.1697 0.00100708 50.996V273.813C0.00100708 281.639 6.35588 287.964 14.2102 288H369.548C377.402 287.964 383.757 281.639 383.757 273.813V50.996C383.757 43.1697 377.402 36.8443 369.548 36.8086ZM370.369 261.698C370.262 269.632 363.728 275.957 355.767 275.885H27.7768C19.8511 275.957 13.3177 269.632 13.1749 261.698V62.7175C13.3177 54.784 19.8511 48.4587 27.7768 48.5301H355.981C363.943 48.4587 370.476 54.784 370.583 62.7175V261.698H370.369Z" fill="#1A237E"/>
<path d="M32.9536 81.8724V70.6511H35.2385V81.8724H32.9536Z" fill="#1A237E"/>
<path d="M37.3806 81.8724V70.6511H39.5941L44.1639 78.1558V70.6511H46.2702V81.8724H44.021L39.4869 74.5107V81.8724H37.3806Z" fill="#1A237E"/>
<path d="M51.5184 81.8724L47.5198 70.6511H49.9832L52.8036 78.942L55.5526 70.6511H57.9446L53.9818 81.8724H51.5184Z" fill="#1A237E"/>
<path d="M58.623 76.3332C58.623 75.1896 58.8015 74.2247 59.1228 73.4385C59.3727 72.8668 59.7297 72.3664 60.1581 71.9019C60.6223 71.473 61.0864 71.1157 61.6219 70.9012C62.3002 70.6154 63.1214 70.4724 64.0139 70.4724C65.6919 70.4724 67.0128 70.9727 67.9768 72.0091C68.9764 73.0097 69.4763 74.4392 69.4763 76.2617C69.4763 78.0843 68.9764 79.5137 68.0125 80.5143C67.0128 81.5507 65.6919 82.051 64.0496 82.051C62.4073 82.051 61.0864 81.5507 60.0867 80.5501C59.1228 79.5137 58.623 78.12 58.623 76.3332ZM60.9436 76.2617C60.9436 77.5125 61.2292 78.4774 61.8361 79.1564C62.4073 79.7996 63.1571 80.1212 64.0496 80.1212C64.9422 80.1212 65.6919 79.7996 66.2631 79.1564C66.87 78.5131 67.1557 77.5125 67.1557 76.226C67.1557 74.9395 66.87 73.9746 66.2988 73.3313C65.7276 72.7238 64.9779 72.4022 64.0496 72.4022C63.1214 72.4022 62.3716 72.7238 61.8004 73.3671C61.2292 74.0103 60.9436 74.9752 60.9436 76.2617Z" fill="#1A237E"/>
<path d="M71.1542 81.8724V70.6511H73.4391V81.8724H71.1542Z" fill="#1A237E"/>
<path d="M82.7215 77.7269L84.8993 78.4059C84.578 79.6209 84.0068 80.5501 83.2571 81.1576C82.4716 81.7294 81.472 82.051 80.2581 82.051C78.7944 82.051 77.5448 81.5507 76.6166 80.5143C75.6526 79.5137 75.1528 78.12 75.1528 76.3689C75.1528 74.4749 75.6526 73.0454 76.6166 72.0091C77.5805 70.9727 78.8301 70.4724 80.4009 70.4724C81.7576 70.4724 82.9 70.8655 83.7569 71.6875C84.2567 72.152 84.6137 72.831 84.8993 73.7602L82.6501 74.2605C82.5073 73.6887 82.2574 73.2241 81.829 72.9025C81.4006 72.5809 80.9008 72.4022 80.2938 72.4022C79.4727 72.4022 78.7944 72.6881 78.2588 73.2956C77.759 73.9031 77.5091 74.868 77.5091 76.1902C77.5091 77.584 77.759 78.6203 78.2588 79.1921C78.7587 79.7996 79.437 80.1212 80.2581 80.1212C80.8651 80.1212 81.3649 79.9068 81.7933 79.5495C82.2217 79.1564 82.543 78.5488 82.7215 77.7269Z" fill="#1A237E"/>
<path d="M86.8629 81.8724V70.6511H95.1457V72.5452H89.1121V75.0467H94.7173V76.9407H89.1121V79.9783H95.3599V81.8724H86.8629Z" fill="#1A237E"/>
<path d="M365.906 98.6685H17.6733V122.433H365.906V98.6685Z" fill="#1A237E"/>
<path d="M38.0946 115.143V105.816H41.629C42.236 105.816 42.7001 105.851 43.0214 105.887C43.4855 105.959 43.8782 106.102 44.1995 106.316C44.4852 106.53 44.7351 106.852 44.9493 107.245C45.1278 107.602 45.2349 108.031 45.2349 108.496C45.2349 109.282 44.985 109.961 44.4495 110.497C43.9496 111.069 43.0571 111.319 41.7361 111.319H39.3441V115.143H38.0946ZM39.3441 110.247H41.7361C42.5573 110.247 43.0928 110.104 43.4498 109.782C43.7711 109.497 43.9496 109.068 43.9496 108.532C43.9496 108.139 43.8425 107.817 43.664 107.531C43.4498 107.245 43.1999 107.066 42.8786 106.995C42.6644 106.924 42.2717 106.888 41.7361 106.888H39.3441V110.247Z" fill="#FEFEFE"/>
<path d="M46.6273 115.143V108.389H47.6626V109.425C47.9125 108.925 48.1624 108.603 48.3766 108.46C48.5908 108.317 48.8408 108.246 49.1264 108.246C49.5191 108.246 49.9118 108.353 50.3045 108.603L49.8761 109.64C49.6262 109.497 49.3406 109.425 49.055 109.425C48.8051 109.425 48.5908 109.497 48.3766 109.64C48.1981 109.783 48.0553 109.997 47.9482 110.283C47.8411 110.676 47.7697 111.105 47.7697 111.605V115.143H46.6273Z" fill="#FEFEFE"/>
<path d="M50.5544 111.748C50.5544 110.497 50.8757 109.568 51.5898 108.996C52.161 108.496 52.875 108.246 53.6962 108.246C54.6244 108.246 55.4098 108.532 55.9811 109.139C56.588 109.747 56.8736 110.604 56.8736 111.677C56.8736 112.534 56.7308 113.213 56.4809 113.714C56.231 114.214 55.8383 114.607 55.3384 114.857C54.8386 115.143 54.3031 115.286 53.6962 115.286C52.7679 115.286 52.0182 114.964 51.4113 114.357C50.84 113.749 50.5544 112.892 50.5544 111.748ZM51.7326 111.748C51.7326 112.606 51.9111 113.285 52.2681 113.714C52.6608 114.142 53.1249 114.357 53.6962 114.357C54.2674 114.357 54.7672 114.142 55.1242 113.678C55.5169 113.249 55.6955 112.606 55.6955 111.712C55.6955 110.89 55.5169 110.247 55.1242 109.818C54.7672 109.389 54.2674 109.175 53.6962 109.175C53.1249 109.175 52.6608 109.389 52.2681 109.818C51.9111 110.247 51.7326 110.89 51.7326 111.748Z" fill="#FEFEFE"/>
<path d="M62.5859 115.143V114.285C62.1574 114.928 61.5148 115.286 60.6937 115.286C60.1581 115.286 59.6583 115.143 59.1942 114.821C58.7658 114.535 58.4088 114.142 58.1589 113.606C57.909 113.07 57.8018 112.463 57.8018 111.748C57.8018 111.105 57.909 110.461 58.1232 109.925C58.3374 109.389 58.6944 108.96 59.1228 108.675C59.5869 108.389 60.0867 108.246 60.6223 108.246C61.0507 108.246 61.4077 108.317 61.729 108.496C62.0503 108.675 62.3002 108.889 62.5145 109.175V105.816H63.6569V115.143H62.5859ZM58.9443 111.748C58.9443 112.641 59.1228 113.285 59.5155 113.713C59.8725 114.142 60.301 114.357 60.8008 114.357C61.3006 114.357 61.729 114.142 62.086 113.713C62.443 113.32 62.5859 112.713 62.5859 111.855C62.5859 110.926 62.4073 110.247 62.0503 109.818C61.6933 109.389 61.2649 109.175 60.7651 109.175C60.2296 109.175 59.8011 109.389 59.4798 109.818C59.1228 110.211 58.9443 110.855 58.9443 111.748Z" fill="#FEFEFE"/>
<path d="M69.869 115.143V114.142C69.3334 114.893 68.6194 115.286 67.7269 115.286C67.3341 115.286 66.9771 115.214 66.6201 115.036C66.2631 114.893 66.0132 114.714 65.8347 114.464C65.6919 114.249 65.5491 113.964 65.5134 113.642C65.442 113.392 65.442 113.034 65.442 112.57V108.389H66.5844V112.105C66.5844 112.713 66.5844 113.106 66.6558 113.32C66.7272 113.642 66.87 113.856 67.0842 114.035C67.3341 114.214 67.6198 114.285 67.9768 114.285C68.2981 114.285 68.6194 114.214 68.9407 114.035C69.2263 113.856 69.4405 113.606 69.5476 113.32C69.6905 112.999 69.7619 112.57 69.7619 111.998V108.389H70.9043V115.143H69.869Z" fill="#FEFEFE"/>
<path d="M77.1164 112.677L78.2232 112.82C78.116 113.606 77.7947 114.178 77.2949 114.643C76.7951 115.072 76.1525 115.286 75.4384 115.286C74.5102 115.286 73.7605 114.964 73.1892 114.357C72.6537 113.785 72.3681 112.892 72.3681 111.784C72.3681 111.069 72.4752 110.426 72.7251 109.854C72.975 109.318 73.332 108.925 73.8319 108.639C74.296 108.353 74.8672 108.246 75.4384 108.246C76.1525 108.246 76.7594 108.425 77.2235 108.782C77.6876 109.175 78.0089 109.675 78.116 110.354L77.0093 110.533C76.9022 110.068 76.7237 109.747 76.4381 109.497C76.1882 109.282 75.8669 109.175 75.4741 109.175C74.9029 109.175 74.4388 109.389 74.0818 109.783C73.7248 110.211 73.5106 110.855 73.5106 111.748C73.5106 112.641 73.6891 113.32 74.0461 113.714C74.4031 114.142 74.8672 114.357 75.4027 114.357C75.8669 114.357 76.2239 114.214 76.5452 113.928C76.8308 113.642 77.045 113.249 77.1164 112.677Z" fill="#FEFEFE"/>
<path d="M81.6862 114.106L81.829 115.143C81.5434 115.179 81.2221 115.214 80.9722 115.214C80.5794 115.214 80.2581 115.179 80.0082 115.036C79.794 114.893 79.6155 114.714 79.5441 114.5C79.437 114.285 79.4013 113.856 79.4013 113.142V109.246H78.5444V108.389H79.4013V106.709L80.5437 106.03V108.389H81.6862V109.246H80.5437V113.213C80.5437 113.535 80.5794 113.749 80.6151 113.856C80.6508 113.964 80.7222 114.035 80.7936 114.071C80.9007 114.142 81.0079 114.142 81.1864 114.142C81.3292 114.142 81.472 114.142 81.6862 114.106Z" fill="#FEFEFE"/>
<path d="M257.802 115.143V106.888H254.732V105.816H262.122V106.888H259.052V115.143H257.802Z" fill="#FEFEFE"/>
<path d="M266.228 114.285C265.799 114.643 265.406 114.893 265.014 115.072C264.621 115.214 264.193 115.286 263.728 115.286C262.979 115.286 262.407 115.107 262.015 114.75C261.622 114.393 261.408 113.928 261.408 113.356C261.408 113.035 261.515 112.713 261.658 112.463C261.801 112.177 261.979 111.962 262.229 111.784C262.479 111.641 262.764 111.498 263.05 111.426C263.3 111.355 263.621 111.283 264.085 111.248C265.014 111.14 265.692 110.998 266.12 110.855C266.12 110.676 266.12 110.604 266.12 110.569C266.12 110.104 266.013 109.747 265.799 109.568C265.513 109.318 265.085 109.175 264.514 109.175C263.978 109.175 263.55 109.282 263.3 109.461C263.05 109.64 262.872 109.997 262.729 110.462L261.622 110.319C261.729 109.818 261.872 109.461 262.122 109.139C262.372 108.853 262.693 108.639 263.122 108.46C263.586 108.317 264.085 108.246 264.657 108.246C265.264 108.246 265.728 108.282 266.085 108.425C266.442 108.567 266.692 108.746 266.87 108.961C267.049 109.139 267.156 109.425 267.227 109.747C267.263 109.925 267.299 110.283 267.299 110.783V112.32C267.299 113.356 267.334 114.035 267.37 114.321C267.406 114.607 267.513 114.893 267.656 115.143H266.442C266.335 114.893 266.263 114.607 266.228 114.285ZM266.12 111.748C265.728 111.927 265.085 112.07 264.264 112.177C263.8 112.248 263.443 112.32 263.264 112.391C263.05 112.498 262.907 112.606 262.8 112.784C262.693 112.927 262.657 113.106 262.657 113.32C262.657 113.606 262.764 113.892 262.979 114.071C263.229 114.285 263.55 114.393 264.014 114.393C264.442 114.393 264.835 114.285 265.192 114.107C265.513 113.892 265.799 113.642 265.942 113.32C266.085 113.035 266.12 112.677 266.12 112.177V111.748Z" fill="#FEFEFE"/>
<path d="M268.263 115.143L270.726 111.641L268.441 108.389H269.869L270.94 109.961C271.119 110.283 271.297 110.497 271.404 110.712C271.583 110.426 271.761 110.175 271.904 109.961L273.047 108.389H274.439L272.154 111.641L274.582 115.143H273.189L271.797 113.034L271.476 112.534L269.655 115.143H268.263Z" fill="#FEFEFE"/>
<path d="M325.671 115.143V106.888H322.6V105.816H329.991V106.888H326.92V115.143H325.671Z" fill="#FEFEFE"/>
<path d="M329.241 111.748C329.241 110.497 329.598 109.568 330.276 108.996C330.847 108.496 331.561 108.246 332.418 108.246C333.346 108.246 334.096 108.532 334.667 109.139C335.274 109.747 335.56 110.604 335.56 111.677C335.56 112.534 335.417 113.213 335.167 113.714C334.917 114.214 334.525 114.607 334.025 114.857C333.525 115.143 332.989 115.286 332.418 115.286C331.454 115.286 330.705 114.964 330.098 114.357C329.526 113.749 329.241 112.892 329.241 111.748ZM330.419 111.748C330.419 112.606 330.597 113.285 330.99 113.714C331.347 114.142 331.811 114.357 332.418 114.357C332.989 114.357 333.454 114.142 333.811 113.678C334.203 113.249 334.382 112.606 334.382 111.712C334.382 110.89 334.203 110.247 333.811 109.818C333.454 109.389 332.954 109.175 332.418 109.175C331.811 109.175 331.347 109.389 330.99 109.818C330.597 110.247 330.419 110.89 330.419 111.748Z" fill="#FEFEFE"/>
<path d="M339.38 114.106L339.559 115.143C339.237 115.179 338.952 115.214 338.702 115.214C338.273 115.214 337.952 115.179 337.738 115.036C337.488 114.893 337.345 114.714 337.238 114.5C337.131 114.285 337.095 113.856 337.095 113.142V109.246H336.238V108.389H337.095V106.709L338.238 106.03V108.389H339.38V109.246H338.238V113.213C338.238 113.535 338.273 113.749 338.309 113.856C338.345 113.964 338.416 114.035 338.488 114.071C338.595 114.142 338.737 114.142 338.88 114.142C339.023 114.142 339.202 114.142 339.38 114.106Z" fill="#FEFEFE"/>
<path d="M344.949 114.285C344.521 114.643 344.093 114.893 343.7 115.072C343.307 115.214 342.879 115.286 342.45 115.286C341.701 115.286 341.129 115.107 340.737 114.75C340.344 114.393 340.13 113.928 340.13 113.356C340.13 113.035 340.201 112.713 340.344 112.463C340.522 112.177 340.701 111.962 340.951 111.784C341.201 111.641 341.451 111.498 341.772 111.426C341.986 111.355 342.343 111.283 342.807 111.248C343.7 111.14 344.414 110.998 344.842 110.855C344.842 110.676 344.842 110.604 344.842 110.569C344.842 110.104 344.735 109.747 344.521 109.568C344.235 109.318 343.771 109.175 343.2 109.175C342.665 109.175 342.272 109.282 342.022 109.461C341.772 109.64 341.558 109.997 341.451 110.462L340.344 110.319C340.415 109.818 340.594 109.461 340.844 109.139C341.058 108.853 341.415 108.639 341.843 108.46C342.272 108.317 342.807 108.246 343.379 108.246C343.95 108.246 344.414 108.282 344.807 108.425C345.164 108.567 345.414 108.746 345.592 108.961C345.771 109.139 345.878 109.425 345.949 109.747C345.985 109.925 345.985 110.283 345.985 110.783V112.32C345.985 113.356 346.021 114.035 346.056 114.321C346.128 114.607 346.199 114.893 346.342 115.143H345.164C345.057 114.893 344.949 114.607 344.949 114.285ZM344.842 111.748C344.414 111.927 343.807 112.07 342.986 112.177C342.486 112.248 342.165 112.32 341.951 112.391C341.772 112.498 341.629 112.606 341.522 112.784C341.415 112.927 341.344 113.106 341.344 113.32C341.344 113.606 341.486 113.892 341.701 114.071C341.951 114.285 342.272 114.393 342.7 114.393C343.164 114.393 343.557 114.285 343.878 114.107C344.235 113.892 344.485 113.642 344.664 113.32C344.771 113.035 344.842 112.677 344.842 112.177V111.748Z" fill="#FEFEFE"/>
<path d="M347.734 115.143V105.816H348.877V115.143H347.734Z" fill="#FEFEFE"/>
<path d="M194.575 115.143V105.816H198.716C199.537 105.816 200.18 105.887 200.608 106.066C201.037 106.209 201.358 106.53 201.643 106.959C201.893 107.352 202 107.853 202 108.353C202 108.996 201.786 109.568 201.358 110.033C200.929 110.461 200.287 110.747 199.394 110.89C199.716 111.033 199.965 111.212 200.144 111.355C200.501 111.676 200.822 112.105 201.144 112.606L202.786 115.143H201.215L200.001 113.213C199.644 112.641 199.359 112.212 199.109 111.891C198.859 111.605 198.68 111.391 198.466 111.283C198.287 111.176 198.109 111.069 197.93 111.033C197.788 110.997 197.538 110.997 197.252 110.997H195.824V115.143H194.575ZM195.824 109.925H198.466C199.002 109.925 199.466 109.854 199.787 109.747C200.073 109.639 200.322 109.461 200.501 109.175C200.644 108.925 200.751 108.639 200.751 108.353C200.751 107.924 200.572 107.531 200.251 107.245C199.93 106.995 199.43 106.852 198.752 106.852H195.824V109.925Z" fill="#FEFEFE"/>
<path d="M208.213 114.285C207.784 114.643 207.391 114.893 206.999 115.072C206.606 115.214 206.178 115.286 205.713 115.286C204.964 115.286 204.392 115.107 204 114.75C203.607 114.393 203.429 113.928 203.429 113.356C203.429 113.035 203.5 112.713 203.643 112.463C203.786 112.177 204 111.962 204.214 111.784C204.464 111.641 204.749 111.498 205.071 111.426C205.285 111.355 205.606 111.283 206.07 111.248C206.999 111.14 207.677 110.998 208.105 110.855C208.105 110.676 208.141 110.604 208.141 110.569C208.141 110.104 207.998 109.747 207.784 109.568C207.499 109.318 207.07 109.175 206.499 109.175C205.963 109.175 205.571 109.282 205.285 109.461C205.035 109.64 204.857 109.997 204.714 110.462L203.607 110.319C203.714 109.818 203.893 109.461 204.107 109.139C204.357 108.853 204.678 108.639 205.142 108.46C205.571 108.317 206.07 108.246 206.677 108.246C207.249 108.246 207.713 108.282 208.07 108.425C208.427 108.567 208.712 108.746 208.855 108.961C209.034 109.139 209.141 109.425 209.212 109.747C209.248 109.925 209.284 110.283 209.284 110.783V112.32C209.284 113.356 209.319 114.035 209.355 114.321C209.391 114.607 209.498 114.893 209.641 115.143H208.427C208.32 114.893 208.248 114.607 208.213 114.285ZM208.141 111.748C207.713 111.927 207.07 112.07 206.249 112.177C205.785 112.248 205.428 112.32 205.249 112.391C205.035 112.498 204.892 112.606 204.785 112.784C204.678 112.927 204.642 113.106 204.642 113.32C204.642 113.606 204.749 113.892 204.999 114.071C205.214 114.285 205.571 114.393 205.999 114.393C206.427 114.393 206.82 114.285 207.177 114.107C207.534 113.892 207.784 113.642 207.927 113.32C208.07 113.035 208.105 112.677 208.105 112.177L208.141 111.748Z" fill="#FEFEFE"/>
<path d="M213.532 114.106L213.675 115.143C213.354 115.179 213.068 115.214 212.818 115.214C212.425 115.214 212.104 115.179 211.854 115.036C211.64 114.893 211.461 114.714 211.39 114.5C211.283 114.285 211.247 113.856 211.247 113.142V109.246H210.39V108.389H211.247V106.709L212.39 106.03V108.389H213.532V109.246H212.39V113.213C212.39 113.535 212.39 113.749 212.461 113.856C212.497 113.964 212.532 114.035 212.64 114.071C212.747 114.142 212.854 114.142 213.032 114.142C213.139 114.142 213.318 114.142 213.532 114.106Z" fill="#FEFEFE"/>
<path d="M219.28 112.963L220.458 113.106C220.28 113.785 219.923 114.321 219.423 114.714C218.923 115.072 218.28 115.286 217.495 115.286C216.495 115.286 215.71 114.964 215.139 114.357C214.567 113.749 214.282 112.892 214.282 111.819C214.282 110.676 214.567 109.783 215.139 109.175C215.746 108.532 216.495 108.246 217.424 108.246C218.316 108.246 219.066 108.532 219.637 109.139C220.208 109.783 220.494 110.64 220.494 111.748C220.494 111.819 220.494 111.927 220.494 112.034H215.46C215.496 112.784 215.71 113.356 216.067 113.749C216.46 114.142 216.924 114.357 217.495 114.357C217.923 114.357 218.28 114.214 218.566 113.999C218.852 113.785 219.101 113.428 219.28 112.963ZM215.531 111.105H219.28C219.244 110.533 219.101 110.104 218.852 109.818C218.495 109.389 218.03 109.175 217.424 109.175C216.924 109.175 216.46 109.354 216.103 109.711C215.746 110.033 215.567 110.533 215.531 111.105Z" fill="#FEFEFE"/>
<path d="M37.7019 141.909L38.8443 141.802C38.9157 142.303 39.0228 142.66 39.237 142.982C39.4512 143.267 39.7368 143.518 40.1653 143.696C40.5937 143.875 41.0935 143.982 41.5933 143.982C42.0932 143.982 42.4859 143.911 42.8429 143.768C43.1999 143.625 43.4855 143.446 43.664 143.196C43.8425 142.946 43.9139 142.696 43.9139 142.41C43.9139 142.088 43.8425 141.838 43.664 141.624C43.4855 141.409 43.1999 141.23 42.8429 141.088C42.593 140.98 42.0217 140.837 41.1649 140.623C40.3081 140.409 39.7011 140.23 39.3798 140.051C38.9157 139.801 38.5944 139.515 38.3802 139.158C38.166 138.836 38.0589 138.443 38.0589 138.014C38.0589 137.55 38.166 137.085 38.4516 136.692C38.7015 136.263 39.0942 135.977 39.6297 135.763C40.1296 135.548 40.7008 135.441 41.3434 135.441C42.0217 135.441 42.6287 135.548 43.1642 135.763C43.6997 135.977 44.0924 136.335 44.3781 136.763C44.6637 137.192 44.8065 137.693 44.8422 138.229L43.664 138.3C43.5926 137.728 43.3784 137.264 42.9857 136.978C42.6287 136.692 42.0932 136.513 41.3791 136.513C40.6294 136.513 40.0939 136.656 39.7368 136.942C39.4155 137.228 39.237 137.55 39.237 137.943C39.237 138.264 39.3441 138.55 39.594 138.765C39.844 138.979 40.4509 139.193 41.4505 139.408C42.4502 139.658 43.1285 139.837 43.5212 140.015C44.0567 140.266 44.4495 140.587 44.7351 140.98C44.985 141.338 45.0921 141.802 45.0921 142.303C45.0921 142.803 44.9493 143.267 44.6637 143.696C44.3781 144.125 43.9853 144.482 43.4498 144.697C42.9143 144.947 42.3431 145.09 41.6647 145.09C40.8079 145.09 40.1296 144.947 39.5583 144.697C38.9871 144.447 38.523 144.089 38.2017 143.589C37.8804 143.089 37.7019 142.553 37.7019 141.909Z" fill="#606062"/>
<path d="M51.0542 144.089C50.6258 144.447 50.2331 144.697 49.8404 144.84C49.4477 144.983 49.0193 145.054 48.5551 145.054C47.8054 145.054 47.2342 144.876 46.8415 144.518C46.4487 144.161 46.2345 143.696 46.2345 143.124C46.2345 142.803 46.3416 142.517 46.4844 142.231C46.6272 141.945 46.8415 141.731 47.0557 141.588C47.3056 141.409 47.5912 141.266 47.8768 141.195C48.1267 141.123 48.448 141.087 48.9121 141.016C49.8404 140.909 50.5187 140.802 50.9471 140.623C50.9471 140.48 50.9471 140.373 50.9471 140.337C50.9471 139.872 50.84 139.551 50.6258 139.336C50.3402 139.086 49.9118 138.979 49.3406 138.979C48.805 138.979 48.3766 139.051 48.1267 139.265C47.8768 139.444 47.6983 139.765 47.5555 140.266L46.4487 140.087C46.5558 139.622 46.6986 139.229 46.9486 138.943C47.1985 138.657 47.5198 138.407 47.9482 138.264C48.4123 138.086 48.9121 138.014 49.4834 138.014C50.0903 138.014 50.5544 138.086 50.9114 138.229C51.2684 138.372 51.5541 138.514 51.6969 138.729C51.8754 138.943 51.9825 139.193 52.0539 139.515C52.0896 139.694 52.1253 140.051 52.1253 140.551V142.088C52.1253 143.16 52.161 143.803 52.1967 144.089C52.2324 144.375 52.3395 144.661 52.4823 144.911H51.2684C51.1613 144.697 51.0899 144.411 51.0542 144.089ZM50.9471 141.516C50.5544 141.695 49.9118 141.838 49.0907 141.945C48.6265 142.017 48.2695 142.124 48.091 142.195C47.8768 142.267 47.734 142.41 47.6269 142.553C47.5198 142.731 47.4841 142.91 47.4841 143.089C47.4841 143.41 47.5912 143.661 47.8054 143.875C48.0553 144.054 48.3766 144.161 48.8407 144.161C49.2692 144.161 49.6619 144.054 50.0189 143.875C50.3402 143.696 50.6258 143.41 50.7686 143.089C50.9114 142.839 50.9471 142.445 50.9471 141.945V141.516Z" fill="#606062"/>
<path d="M53.8747 144.911V138.157H54.91V139.122C55.1242 138.8 55.4098 138.514 55.7669 138.3C56.0882 138.121 56.5166 138.014 56.945 138.014C57.4448 138.014 57.8733 138.121 58.1946 138.336C58.5159 138.55 58.7301 138.836 58.8729 139.193C59.4084 138.407 60.0868 138.014 60.9436 138.014C61.6219 138.014 62.1574 138.193 62.5145 138.586C62.8715 138.943 63.05 139.515 63.05 140.301V144.911H61.9075V140.659C61.9075 140.194 61.8718 139.872 61.8004 139.694C61.729 139.479 61.5862 139.301 61.372 139.193C61.1935 139.051 60.9436 139.015 60.6937 139.015C60.2296 139.015 59.8368 139.158 59.5155 139.479C59.1942 139.801 59.0514 140.301 59.0514 140.98V144.911H57.8733V140.516C57.8733 140.015 57.8019 139.658 57.6233 139.372C57.4091 139.122 57.1235 139.015 56.6951 139.015C56.3738 139.015 56.0882 139.086 55.8026 139.265C55.517 139.444 55.3384 139.694 55.1956 140.015C55.0885 140.337 55.0171 140.802 55.0171 141.409V144.911H53.8747Z" fill="#606062"/>
<path d="M64.7279 147.52V138.157H65.7633V139.051C66.0132 138.693 66.2988 138.443 66.5844 138.264C66.9057 138.086 67.2985 138.014 67.7269 138.014C68.2981 138.014 68.7979 138.157 69.262 138.443C69.6905 138.765 70.0118 139.158 70.2617 139.73C70.4759 140.266 70.583 140.837 70.583 141.481C70.583 142.195 70.4759 142.803 70.226 143.339C69.9761 143.911 69.6191 144.34 69.1192 144.625C68.6551 144.911 68.1553 145.054 67.6555 145.054C67.2628 145.054 66.9057 144.983 66.6201 144.84C66.2988 144.661 66.0489 144.447 65.8704 144.232V147.52H64.7279ZM65.7633 141.588C65.7633 142.445 65.9418 143.089 66.2988 143.518C66.6558 143.911 67.0842 144.125 67.5841 144.125C68.0839 144.125 68.5123 143.911 68.8693 143.482C69.2263 143.053 69.4048 142.374 69.4048 141.481C69.4048 140.623 69.2263 139.98 68.8693 139.551C68.5123 139.122 68.1196 138.908 67.6198 138.908C67.1199 138.908 66.6915 139.158 66.3345 139.587C65.9418 140.051 65.7633 140.694 65.7633 141.588Z" fill="#606062"/>
<path d="M71.9397 144.911V135.584H73.0821V144.911H71.9397Z" fill="#606062"/>
<path d="M79.4727 142.731L80.6509 142.874C80.4723 143.589 80.1153 144.125 79.6155 144.482C79.1157 144.876 78.4731 145.054 77.6876 145.054C76.688 145.054 75.9383 144.768 75.3313 144.161C74.7601 143.553 74.4745 142.696 74.4745 141.588C74.4745 140.48 74.7601 139.587 75.367 138.943C75.9383 138.336 76.688 138.014 77.6162 138.014C78.5088 138.014 79.2585 138.336 79.8297 138.943C80.4009 139.551 80.6866 140.409 80.6866 141.516C80.6866 141.588 80.6866 141.695 80.6866 141.838H75.6526C75.6883 142.588 75.9025 143.124 76.2953 143.518C76.6523 143.911 77.1164 144.125 77.6876 144.125C78.116 144.125 78.4731 144.018 78.7587 143.803C79.0443 143.589 79.2942 143.232 79.4727 142.731ZM75.724 140.909H79.4727C79.437 140.337 79.2942 139.908 79.0443 139.622C78.6873 139.158 78.2231 138.943 77.6162 138.943C77.1164 138.943 76.6523 139.122 76.2953 139.479C75.9383 139.837 75.7597 140.301 75.724 140.909Z" fill="#606062"/>
<path d="M89.6833 144.911H88.5409V137.621C88.291 137.871 87.8983 138.157 87.4699 138.407C87.0057 138.657 86.613 138.872 86.256 139.015V137.907C86.8986 137.585 87.4699 137.228 87.934 136.799C88.4338 136.37 88.7551 135.941 88.9693 135.548H89.6833V144.911Z" fill="#606062"/>
<path d="M254.196 144.911H253.054V137.621C252.768 137.871 252.411 138.157 251.947 138.407C251.519 138.657 251.09 138.872 250.733 139.015V137.907C251.376 137.585 251.947 137.228 252.411 136.799C252.911 136.37 253.232 135.941 253.446 135.548H254.196V144.911Z" fill="#606062"/>
<path d="M257.124 140.301C257.124 139.229 257.231 138.336 257.481 137.657C257.695 136.978 258.016 136.442 258.48 136.084C258.909 135.727 259.48 135.548 260.158 135.548C260.658 135.548 261.087 135.656 261.479 135.87C261.836 136.049 262.158 136.335 262.408 136.728C262.657 137.121 262.836 137.585 262.979 138.121C263.122 138.657 263.193 139.408 263.193 140.301C263.193 141.409 263.086 142.303 262.872 142.982C262.622 143.661 262.3 144.161 261.836 144.518C261.408 144.911 260.837 145.09 260.158 145.09C259.266 145.09 258.552 144.768 258.052 144.125C257.445 143.339 257.124 142.052 257.124 140.301ZM258.302 140.337C258.302 141.874 258.48 142.874 258.837 143.375C259.194 143.875 259.623 144.125 260.158 144.125C260.694 144.125 261.122 143.875 261.479 143.375C261.836 142.874 262.015 141.838 262.015 140.337C262.015 138.8 261.836 137.764 261.479 137.264C261.122 136.763 260.694 136.513 260.158 136.513C259.623 136.513 259.194 136.728 258.873 137.156C258.48 137.728 258.302 138.8 258.302 140.337Z" fill="#606062"/>
<path d="M264.585 137.836C264.585 137.157 264.728 136.585 265.085 136.12C265.406 135.656 265.906 135.441 266.549 135.441C267.12 135.441 267.62 135.656 267.977 136.049C268.37 136.478 268.584 137.085 268.584 137.907C268.584 138.693 268.37 139.301 267.977 139.73C267.584 140.158 267.12 140.373 266.549 140.373C265.978 140.373 265.514 140.158 265.121 139.73C264.764 139.301 264.585 138.693 264.585 137.836ZM266.585 136.227C266.299 136.227 266.049 136.335 265.871 136.585C265.656 136.835 265.585 137.299 265.585 137.943C265.585 138.55 265.656 138.943 265.871 139.193C266.049 139.444 266.299 139.551 266.585 139.551C266.87 139.551 267.084 139.444 267.299 139.193C267.477 138.943 267.584 138.514 267.584 137.871C267.584 137.264 267.477 136.835 267.299 136.585C267.084 136.335 266.87 136.227 266.585 136.227ZM266.585 145.269L271.654 135.441H272.582L267.513 145.269H266.585ZM270.583 142.731C270.583 142.052 270.762 141.481 271.083 141.016C271.44 140.551 271.904 140.337 272.547 140.337C273.154 140.337 273.618 140.551 274.01 140.945C274.403 141.373 274.582 141.981 274.582 142.803C274.582 143.589 274.403 144.197 274.01 144.625C273.618 145.054 273.118 145.269 272.547 145.269C272.011 145.269 271.511 145.054 271.154 144.625C270.762 144.197 270.583 143.589 270.583 142.731ZM272.582 141.123C272.297 141.123 272.047 141.266 271.868 141.481C271.69 141.731 271.583 142.195 271.583 142.839C271.583 143.446 271.69 143.839 271.868 144.089C272.083 144.34 272.297 144.482 272.582 144.482C272.868 144.482 273.118 144.34 273.296 144.089C273.475 143.839 273.582 143.41 273.582 142.767C273.582 142.16 273.475 141.731 273.296 141.481C273.118 141.266 272.868 141.123 272.582 141.123Z" fill="#606062"/>
<path d="M185.506 144.911V142.696H181.472V141.624L185.721 135.584H186.649V141.624H187.898V142.696H186.649V144.911H185.506ZM185.506 141.624V137.443L182.579 141.624H185.506Z" fill="#606062"/>
<path d="M189.076 142.481L190.29 142.374C190.362 142.982 190.576 143.41 190.897 143.696C191.219 143.982 191.611 144.125 192.075 144.125C192.647 144.125 193.111 143.947 193.468 143.518C193.86 143.089 194.039 142.553 194.039 141.874C194.039 141.195 193.86 140.695 193.503 140.301C193.146 139.944 192.647 139.765 192.075 139.765C191.683 139.765 191.361 139.837 191.076 140.016C190.79 140.158 190.54 140.373 190.362 140.659L189.291 140.516L190.183 135.691H194.824V136.799H191.111L190.612 139.337C191.183 138.943 191.754 138.729 192.361 138.729C193.182 138.729 193.86 139.015 194.432 139.587C194.967 140.158 195.253 140.873 195.253 141.767C195.253 142.589 195.003 143.339 194.539 143.947C193.932 144.697 193.111 145.09 192.075 145.09C191.219 145.09 190.54 144.84 190.005 144.375C189.469 143.875 189.148 143.268 189.076 142.481Z" fill="#606062"/>
<path d="M196.324 140.301C196.324 139.229 196.431 138.336 196.681 137.657C196.895 136.978 197.216 136.442 197.681 136.084C198.109 135.727 198.68 135.548 199.359 135.548C199.858 135.548 200.287 135.656 200.68 135.87C201.072 136.049 201.358 136.335 201.608 136.728C201.858 137.121 202.036 137.585 202.179 138.121C202.322 138.657 202.393 139.408 202.393 140.301C202.393 141.409 202.286 142.303 202.072 142.982C201.822 143.661 201.501 144.161 201.037 144.518C200.608 144.911 200.037 145.09 199.359 145.09C198.466 145.09 197.752 144.768 197.252 144.125C196.645 143.339 196.324 142.052 196.324 140.301ZM197.502 140.337C197.502 141.874 197.681 142.874 198.038 143.375C198.395 143.875 198.823 144.125 199.359 144.125C199.894 144.125 200.322 143.875 200.68 143.375C201.037 142.874 201.215 141.838 201.215 140.337C201.215 138.8 201.037 137.764 200.68 137.264C200.322 136.763 199.894 136.513 199.359 136.513C198.823 136.513 198.395 136.728 198.073 137.156C197.681 137.728 197.502 138.8 197.502 140.337Z" fill="#606062"/>
<path d="M207.177 140.301C207.177 139.229 207.284 138.336 207.534 137.657C207.748 136.978 208.07 136.442 208.534 136.084C208.962 135.727 209.533 135.548 210.212 135.548C210.712 135.548 211.14 135.656 211.533 135.87C211.926 136.049 212.211 136.335 212.461 136.728C212.711 137.121 212.889 137.585 213.032 138.121C213.175 138.657 213.246 139.408 213.246 140.301C213.246 141.409 213.139 142.303 212.925 142.982C212.675 143.661 212.354 144.161 211.926 144.518C211.461 144.911 210.89 145.09 210.212 145.09C209.319 145.09 208.605 144.768 208.105 144.125C207.498 143.339 207.177 142.052 207.177 140.301ZM208.355 140.337C208.355 141.874 208.534 142.874 208.891 143.375C209.248 143.875 209.676 144.125 210.212 144.125C210.747 144.125 211.176 143.875 211.533 143.375C211.89 142.874 212.068 141.838 212.068 140.337C212.068 138.8 211.89 137.764 211.533 137.264C211.176 136.763 210.747 136.513 210.212 136.513C209.676 136.513 209.248 136.728 208.927 137.156C208.534 137.728 208.355 138.8 208.355 140.337Z" fill="#606062"/>
<path d="M214.425 140.301C214.425 139.229 214.532 138.336 214.746 137.657C214.996 136.978 215.317 136.442 215.781 136.084C216.21 135.727 216.781 135.548 217.459 135.548C217.959 135.548 218.387 135.656 218.78 135.87C219.137 136.049 219.459 136.335 219.708 136.728C219.958 137.121 220.137 137.585 220.28 138.121C220.422 138.657 220.494 139.408 220.494 140.301C220.494 141.409 220.387 142.303 220.137 142.982C219.923 143.661 219.601 144.161 219.137 144.518C218.709 144.911 218.138 145.09 217.459 145.09C216.567 145.09 215.853 144.768 215.353 144.125C214.746 143.339 214.425 142.052 214.425 140.301ZM215.603 140.337C215.603 141.874 215.781 142.874 216.138 143.375C216.495 143.875 216.924 144.125 217.459 144.125C217.995 144.125 218.423 143.875 218.78 143.375C219.137 142.874 219.316 141.838 219.316 140.337C219.316 138.8 219.137 137.764 218.78 137.264C218.423 136.763 217.995 136.513 217.459 136.513C216.924 136.513 216.495 136.728 216.174 137.156C215.781 137.728 215.603 138.8 215.603 140.337Z" fill="#606062"/>
<path d="M204.214 144.911V143.625H205.499V144.911H204.214Z" fill="#606062"/>
<path d="M181.472 168.283L182.65 168.212C182.757 168.783 182.936 169.248 183.257 169.534C183.578 169.82 183.971 169.963 184.435 169.963C185.007 169.963 185.471 169.748 185.863 169.355C186.22 168.926 186.435 168.39 186.435 167.675C186.435 167.032 186.22 166.532 185.863 166.139C185.506 165.781 185.042 165.567 184.435 165.567C184.078 165.567 183.721 165.674 183.436 165.817C183.15 165.996 182.9 166.21 182.757 166.496L181.651 166.317L182.579 161.529H187.184V162.637H183.471L182.972 165.138C183.543 164.745 184.114 164.566 184.721 164.566C185.542 164.566 186.22 164.852 186.792 165.424C187.363 165.96 187.613 166.711 187.613 167.568C187.613 168.426 187.399 169.141 186.899 169.784C186.292 170.534 185.471 170.892 184.435 170.892C183.614 170.892 182.9 170.677 182.365 170.177C181.829 169.712 181.543 169.069 181.472 168.283Z" fill="#606062"/>
<path d="M203.821 170.749V169.462H205.106V170.749H203.821Z" fill="#606062"/>
<path d="M188.684 166.139C188.684 165.031 188.827 164.137 189.041 163.494C189.255 162.815 189.612 162.279 190.04 161.922C190.505 161.564 191.04 161.386 191.718 161.386C192.218 161.386 192.682 161.493 193.039 161.672C193.432 161.886 193.753 162.172 193.968 162.565C194.218 162.922 194.432 163.387 194.539 163.959C194.682 164.495 194.753 165.21 194.753 166.139C194.753 167.247 194.646 168.14 194.432 168.783C194.218 169.462 193.861 169.998 193.432 170.356C192.968 170.713 192.397 170.892 191.718 170.892C190.826 170.892 190.112 170.57 189.612 169.962C189.005 169.176 188.684 167.89 188.684 166.139ZM189.862 166.139C189.862 167.675 190.04 168.712 190.397 169.212C190.754 169.712 191.219 169.962 191.718 169.962C192.254 169.962 192.682 169.712 193.039 169.212C193.396 168.712 193.575 167.675 193.575 166.139C193.575 164.602 193.396 163.601 193.039 163.101C192.718 162.601 192.254 162.315 191.718 162.315C191.183 162.315 190.754 162.565 190.469 162.994C190.076 163.566 189.862 164.602 189.862 166.139Z" fill="#606062"/>
<path d="M195.931 166.139C195.931 165.031 196.038 164.137 196.288 163.494C196.502 162.815 196.824 162.279 197.288 161.922C197.716 161.564 198.287 161.386 198.966 161.386C199.466 161.386 199.894 161.493 200.287 161.672C200.679 161.886 200.965 162.172 201.215 162.565C201.465 162.922 201.643 163.387 201.786 163.959C201.929 164.495 202 165.21 202 166.139C202 167.247 201.893 168.14 201.679 168.783C201.429 169.462 201.108 169.998 200.644 170.356C200.215 170.713 199.644 170.892 198.966 170.892C198.073 170.892 197.359 170.57 196.859 169.962C196.252 169.176 195.931 167.89 195.931 166.139ZM197.109 166.139C197.109 167.675 197.288 168.712 197.645 169.212C198.002 169.712 198.43 169.962 198.966 169.962C199.501 169.962 199.93 169.712 200.287 169.212C200.644 168.712 200.822 167.675 200.822 166.139C200.822 164.602 200.644 163.601 200.287 163.101C199.93 162.601 199.501 162.315 198.966 162.315C198.43 162.315 198.002 162.565 197.681 162.994C197.288 163.566 197.109 164.602 197.109 166.139Z" fill="#606062"/>
<path d="M206.784 166.139C206.784 165.031 206.892 164.137 207.141 163.494C207.356 162.815 207.713 162.279 208.141 161.922C208.605 161.564 209.141 161.386 209.819 161.386C210.319 161.386 210.747 161.493 211.14 161.672C211.533 161.886 211.818 162.172 212.068 162.565C212.318 162.922 212.497 163.387 212.64 163.959C212.782 164.495 212.854 165.21 212.854 166.139C212.854 167.247 212.747 168.14 212.532 168.783C212.282 169.462 211.961 169.998 211.533 170.356C211.069 170.713 210.497 170.892 209.819 170.892C208.927 170.892 208.213 170.57 207.713 169.962C207.106 169.176 206.784 167.89 206.784 166.139ZM207.963 166.139C207.963 167.675 208.141 168.712 208.498 169.212C208.855 169.712 209.319 169.962 209.819 169.962C210.355 169.962 210.783 169.712 211.14 169.212C211.497 168.712 211.676 167.675 211.676 166.139C211.676 164.602 211.497 163.601 211.14 163.101C210.783 162.601 210.355 162.315 209.819 162.315C209.284 162.315 208.855 162.565 208.57 162.994C208.177 163.566 207.963 164.602 207.963 166.139Z" fill="#606062"/>
<path d="M214.032 166.139C214.032 165.031 214.139 164.137 214.389 163.494C214.603 162.815 214.924 162.279 215.389 161.922C215.817 161.564 216.388 161.386 217.066 161.386C217.566 161.386 217.995 161.493 218.387 161.672C218.744 161.886 219.066 162.172 219.316 162.565C219.566 162.922 219.744 163.387 219.887 163.959C220.03 164.495 220.101 165.21 220.101 166.139C220.101 167.247 219.994 168.14 219.78 168.783C219.53 169.462 219.209 169.998 218.744 170.356C218.316 170.713 217.745 170.892 217.066 170.892C216.174 170.892 215.46 170.57 214.96 169.962C214.353 169.176 214.032 167.89 214.032 166.139ZM215.21 166.139C215.21 167.675 215.389 168.712 215.746 169.212C216.103 169.712 216.531 169.962 217.066 169.962C217.602 169.962 218.03 169.712 218.387 169.212C218.744 168.712 218.923 167.675 218.923 166.139C218.923 164.602 218.744 163.601 218.387 163.101C218.03 162.601 217.602 162.315 217.066 162.315C216.531 162.315 216.103 162.565 215.781 162.994C215.389 163.566 215.21 164.602 215.21 166.139Z" fill="#606062"/>
<path d="M317.531 144.911V142.696H313.461V141.624L317.709 135.584H318.673V141.624H319.923V142.696H318.673V144.911H317.531ZM317.531 141.624V137.443L314.603 141.624H317.531Z" fill="#606062"/>
<path d="M321.279 142.767L322.35 142.66C322.458 143.196 322.636 143.553 322.886 143.803C323.172 144.018 323.493 144.125 323.886 144.125C324.243 144.125 324.564 144.054 324.814 143.911C325.099 143.732 325.314 143.518 325.492 143.232C325.635 142.982 325.778 142.624 325.921 142.16C326.028 141.695 326.063 141.23 326.063 140.766C326.063 140.694 326.063 140.623 326.063 140.516C325.849 140.873 325.528 141.195 325.135 141.409C324.742 141.659 324.314 141.766 323.85 141.766C323.064 141.766 322.422 141.481 321.886 140.909C321.351 140.373 321.101 139.622 321.101 138.693C321.101 137.764 321.386 136.978 321.922 136.406C322.493 135.834 323.172 135.548 324.028 135.548C324.635 135.548 325.171 135.727 325.671 136.049C326.17 136.37 326.563 136.835 326.813 137.442C327.099 138.05 327.206 138.908 327.206 140.051C327.206 141.266 327.099 142.195 326.813 142.91C326.563 143.625 326.17 144.161 325.671 144.518C325.171 144.876 324.564 145.09 323.886 145.09C323.136 145.09 322.565 144.876 322.101 144.482C321.636 144.054 321.351 143.482 321.279 142.767ZM325.921 138.657C325.921 137.978 325.778 137.478 325.421 137.085C325.064 136.692 324.635 136.513 324.171 136.513C323.636 136.513 323.207 136.728 322.815 137.121C322.458 137.55 322.279 138.086 322.279 138.729C322.279 139.336 322.458 139.801 322.815 140.194C323.172 140.551 323.6 140.73 324.135 140.73C324.635 140.73 325.099 140.551 325.421 140.194C325.778 139.801 325.921 139.301 325.921 138.657Z" fill="#606062"/>
<path d="M328.348 142.481L329.526 142.374C329.634 142.982 329.812 143.41 330.133 143.696C330.455 143.982 330.847 144.125 331.312 144.125C331.883 144.125 332.347 143.947 332.74 143.518C333.097 143.089 333.311 142.553 333.311 141.874C333.311 141.195 333.132 140.695 332.74 140.301C332.383 139.944 331.918 139.765 331.312 139.765C330.954 139.765 330.597 139.837 330.312 140.016C330.026 140.158 329.776 140.373 329.634 140.659L328.527 140.516L329.455 135.691H334.061V136.799H330.348L329.848 139.337C330.419 138.943 330.99 138.729 331.597 138.729C332.418 138.729 333.097 139.015 333.668 139.587C334.239 140.158 334.489 140.873 334.489 141.767C334.489 142.589 334.275 143.339 333.775 143.947C333.168 144.697 332.347 145.09 331.312 145.09C330.49 145.09 329.776 144.84 329.241 144.375C328.705 143.875 328.42 143.268 328.348 142.481Z" fill="#606062"/>
<path d="M336.203 144.911V143.625H337.524V144.911H336.203Z" fill="#606062"/>
<path d="M339.202 140.301C339.202 139.229 339.309 138.336 339.523 137.657C339.773 136.978 340.094 136.442 340.558 136.084C340.987 135.727 341.558 135.548 342.236 135.548C342.736 135.548 343.164 135.656 343.557 135.87C343.914 136.049 344.235 136.335 344.485 136.728C344.7 137.121 344.914 137.585 345.057 138.121C345.199 138.657 345.271 139.408 345.271 140.301C345.271 141.409 345.128 142.303 344.914 142.982C344.7 143.661 344.378 144.161 343.914 144.518C343.486 144.911 342.914 145.09 342.236 145.09C341.344 145.09 340.63 144.768 340.094 144.125C339.487 143.339 339.202 142.052 339.202 140.301ZM340.38 140.337C340.38 141.874 340.558 142.874 340.915 143.375C341.272 143.875 341.701 144.125 342.236 144.125C342.736 144.125 343.2 143.875 343.557 143.375C343.914 142.874 344.093 141.838 344.093 140.337C344.093 138.8 343.914 137.764 343.557 137.264C343.2 136.763 342.736 136.513 342.2 136.513C341.701 136.513 341.272 136.728 340.951 137.156C340.558 137.728 340.38 138.8 340.38 140.337Z" fill="#606062"/>
<path d="M346.449 140.301C346.449 139.229 346.556 138.336 346.77 137.657C346.984 136.978 347.341 136.442 347.77 136.084C348.234 135.727 348.805 135.548 349.448 135.548C349.948 135.548 350.412 135.656 350.769 135.87C351.162 136.049 351.483 136.335 351.697 136.728C351.947 137.121 352.161 137.585 352.304 138.121C352.411 138.657 352.483 139.408 352.483 140.301C352.483 141.409 352.375 142.303 352.161 142.982C351.947 143.661 351.59 144.161 351.162 144.518C350.697 144.911 350.162 145.09 349.448 145.09C348.555 145.09 347.877 144.768 347.341 144.125C346.735 143.339 346.449 142.052 346.449 140.301ZM347.591 140.337C347.591 141.874 347.77 142.874 348.127 143.375C348.484 143.875 348.948 144.125 349.448 144.125C349.983 144.125 350.448 143.875 350.805 143.375C351.162 142.874 351.34 141.838 351.34 140.337C351.34 138.8 351.162 137.764 350.805 137.264C350.448 136.763 349.983 136.513 349.448 136.513C348.912 136.513 348.52 136.728 348.198 137.156C347.806 137.728 347.591 138.8 347.591 140.337Z" fill="#606062"/>
<path d="M37.7376 167.425L38.9157 167.354C38.9514 167.818 39.0942 168.176 39.3084 168.497C39.4869 168.783 39.8083 169.033 40.2367 169.212C40.6651 169.391 41.1292 169.498 41.6647 169.498C42.1289 169.498 42.5573 169.427 42.9143 169.284C43.2713 169.141 43.5212 168.962 43.6997 168.712C43.8782 168.462 43.9853 168.212 43.9853 167.926C43.9853 167.604 43.8782 167.354 43.7354 167.139C43.5569 166.925 43.2713 166.746 42.8786 166.603C42.6287 166.496 42.0932 166.353 41.2006 166.139C40.3795 165.924 39.7726 165.746 39.4155 165.567C38.9871 165.317 38.6301 165.031 38.4159 164.674C38.2017 164.352 38.0946 163.959 38.0946 163.53C38.0946 163.065 38.2374 162.601 38.4873 162.208C38.7729 161.779 39.1656 161.493 39.6654 161.279C40.201 161.064 40.7365 160.957 41.3791 160.957C42.0575 160.957 42.6644 161.064 43.1999 161.279C43.7354 161.493 44.1281 161.85 44.4138 162.279C44.6994 162.708 44.8779 163.208 44.8779 163.744L43.6997 163.816C43.6283 163.244 43.4141 162.815 43.0571 162.494C42.7001 162.208 42.1289 162.065 41.4148 162.065C40.6651 162.065 40.1296 162.172 39.8083 162.458C39.4512 162.744 39.2727 163.065 39.2727 163.459C39.2727 163.78 39.4155 164.066 39.6654 164.281C39.8797 164.495 40.5223 164.709 41.5219 164.924C42.5216 165.174 43.1999 165.353 43.5569 165.531C44.1281 165.781 44.5209 166.103 44.7708 166.496C45.0207 166.854 45.1635 167.318 45.1635 167.818C45.1635 168.319 45.0207 168.783 44.7351 169.212C44.4495 169.641 44.0567 169.998 43.5212 170.213C42.9857 170.463 42.3788 170.606 41.7004 170.606C40.8793 170.606 40.1653 170.463 39.594 170.213C39.0228 169.963 38.5944 169.605 38.2731 169.105C37.9518 168.64 37.7733 168.069 37.7376 167.425Z" fill="#606062"/>
<path d="M51.09 169.605C50.6972 169.963 50.2688 170.213 49.8761 170.356C49.4834 170.499 49.055 170.57 48.6265 170.57C47.8768 170.57 47.3056 170.391 46.9129 170.034C46.4844 169.677 46.3059 169.212 46.3059 168.64C46.3059 168.319 46.3773 168.033 46.5201 167.747C46.663 167.461 46.8772 167.247 47.1271 167.104C47.377 166.925 47.6269 166.818 47.9482 166.711C48.1624 166.675 48.5194 166.603 48.9479 166.532C49.8761 166.425 50.5544 166.317 51.0186 166.139C51.0186 165.996 51.0186 165.889 51.0186 165.853C51.0186 165.388 50.9114 165.067 50.6972 164.888C50.4116 164.602 49.9475 164.495 49.3763 164.495C48.8408 164.495 48.448 164.566 48.1981 164.781C47.9125 164.959 47.734 165.281 47.6269 165.781L46.4844 165.603C46.5916 165.138 46.7701 164.745 46.9843 164.459C47.2342 164.173 47.5555 163.923 48.0196 163.78C48.448 163.602 48.9836 163.53 49.5548 163.53C50.126 163.53 50.5901 163.602 50.9471 163.744C51.3399 163.887 51.5898 164.03 51.7683 164.245C51.9111 164.459 52.0539 164.709 52.1253 165.031C52.161 165.21 52.161 165.567 52.161 166.067V167.604C52.161 168.676 52.1967 169.355 52.2324 169.605C52.3038 169.891 52.3752 170.177 52.518 170.427H51.3399C51.1971 170.213 51.1257 169.927 51.09 169.605ZM51.0186 167.068C50.5901 167.211 49.9832 167.354 49.1264 167.497C48.6622 167.532 48.3409 167.64 48.1267 167.711C47.9482 167.783 47.8054 167.926 47.6983 168.069C47.5912 168.247 47.5198 168.426 47.5198 168.605C47.5198 168.926 47.6269 169.176 47.8768 169.391C48.091 169.569 48.448 169.677 48.8765 169.677C49.3406 169.677 49.7333 169.569 50.0546 169.391C50.4116 169.212 50.6615 168.926 50.84 168.605C50.9471 168.354 51.0186 167.961 51.0186 167.461V167.068Z" fill="#606062"/>
<path d="M53.9461 170.427V163.673H54.9457V164.638C55.1599 164.316 55.4455 164.03 55.8026 163.852C56.1596 163.637 56.5523 163.53 57.0164 163.53C57.5162 163.53 57.909 163.637 58.2303 163.852C58.5516 164.066 58.7658 164.352 58.9086 164.709C59.4441 163.923 60.1581 163.53 61.015 163.53C61.6576 163.53 62.1931 163.709 62.5502 164.102C62.9072 164.459 63.0857 165.031 63.0857 165.817V170.427H61.9432V166.175C61.9432 165.71 61.9075 165.388 61.8361 165.21C61.7647 164.995 61.6219 164.817 61.4434 164.709C61.2292 164.566 61.015 164.531 60.7294 164.531C60.2653 164.531 59.8725 164.674 59.5512 164.995C59.2299 165.317 59.0871 165.817 59.0871 166.496V170.427H57.9447V166.032C57.9447 165.531 57.8375 165.174 57.659 164.888C57.4805 164.638 57.1592 164.531 56.7308 164.531C56.4095 164.531 56.1239 164.602 55.8383 164.781C55.5883 164.959 55.3741 165.21 55.267 165.531C55.1242 165.853 55.0885 166.317 55.0885 166.925V170.427H53.9461Z" fill="#606062"/>
<path d="M64.7636 173.036V163.673H65.8347V164.566C66.0489 164.209 66.3345 163.959 66.6558 163.78C66.9414 163.637 67.3342 163.53 67.7626 163.53C68.3695 163.53 68.8693 163.673 69.2977 163.995C69.7262 164.28 70.0832 164.709 70.2974 165.245C70.5116 165.781 70.6187 166.353 70.6187 166.996C70.6187 167.711 70.5116 168.319 70.2617 168.855C70.0118 169.427 69.6548 169.855 69.1906 170.141C68.7265 170.427 68.2267 170.57 67.6912 170.57C67.2985 170.57 66.9771 170.499 66.6558 170.356C66.3702 170.177 66.1203 169.963 65.9061 169.748V173.036H64.7636ZM65.8347 167.104C65.8347 167.961 65.9775 168.605 66.3345 169.033C66.6915 169.427 67.1199 169.641 67.6198 169.641C68.1196 169.641 68.548 169.427 68.905 168.998C69.2977 168.569 69.4763 167.89 69.4763 166.996C69.4763 166.139 69.2977 165.496 68.9407 165.067C68.5837 164.638 68.1553 164.423 67.6555 164.423C67.1914 164.423 66.7629 164.674 66.3702 165.102C66.0132 165.567 65.8347 166.246 65.8347 167.104Z" fill="#606062"/>
<path d="M71.9754 170.427V161.1H73.1178V170.427H71.9754Z" fill="#606062"/>
<path d="M79.5084 168.247L80.6865 168.39C80.508 169.105 80.1867 169.641 79.6512 169.998C79.1514 170.391 78.5087 170.57 77.7233 170.57C76.7594 170.57 75.9739 170.284 75.4027 169.677C74.8315 169.069 74.5459 168.211 74.5459 167.104C74.5459 165.996 74.8315 165.102 75.4027 164.459C75.9739 163.852 76.7594 163.53 77.6876 163.53C78.5801 163.53 79.3299 163.852 79.8654 164.459C80.4366 165.067 80.7579 165.924 80.7579 167.032C80.7579 167.104 80.7222 167.211 80.7222 167.354H75.6883C75.7597 168.104 75.9382 168.676 76.3309 169.069C76.7237 169.462 77.1878 169.641 77.7233 169.641C78.1517 169.641 78.5087 169.534 78.7944 169.319C79.1157 169.105 79.3299 168.748 79.5084 168.247ZM75.7597 166.425H79.5441C79.4727 165.853 79.3299 165.424 79.1157 165.138C78.723 164.709 78.2588 164.459 77.6876 164.459C77.1521 164.459 76.7237 164.638 76.3666 164.995C76.0096 165.353 75.7954 165.817 75.7597 166.425Z" fill="#606062"/>
<path d="M91.4684 169.355V170.427H85.2921C85.2921 170.177 85.3278 169.891 85.4349 169.641C85.5777 169.212 85.8276 168.819 86.1846 168.39C86.5416 167.997 87.0414 167.533 87.6841 166.996C88.6837 166.175 89.362 165.496 89.719 165.031C90.0761 164.531 90.2546 164.066 90.2546 163.637C90.2546 163.173 90.1118 162.815 89.7904 162.494C89.4691 162.172 89.0407 162.029 88.5052 162.029C87.9697 162.029 87.5055 162.172 87.1842 162.529C86.8629 162.851 86.6844 163.316 86.6844 163.887L85.5063 163.78C85.5777 162.887 85.899 162.208 86.3988 161.743C86.9343 161.314 87.6484 161.064 88.5409 161.064C89.4334 161.064 90.1475 161.314 90.6473 161.815C91.1828 162.315 91.4327 162.923 91.4327 163.673C91.4327 164.03 91.3613 164.388 91.2185 164.781C91.0757 165.138 90.7901 165.496 90.4688 165.889C90.1118 166.317 89.5048 166.854 88.6837 167.533C88.0054 168.14 87.5413 168.533 87.3627 168.712C87.1842 168.926 87.0057 169.141 86.8629 169.355H91.4684Z" fill="#606062"/>
<path d="M313.853 167.854L315.067 167.783C315.139 168.354 315.353 168.819 315.674 169.105C315.996 169.391 316.388 169.534 316.852 169.534C317.388 169.534 317.852 169.319 318.245 168.926C318.637 168.497 318.816 167.961 318.816 167.247C318.816 166.603 318.637 166.103 318.28 165.71C317.923 165.352 317.424 165.138 316.817 165.138C316.46 165.138 316.138 165.245 315.853 165.388C315.531 165.567 315.317 165.781 315.139 166.067L314.068 165.889L314.96 161.1H319.566V162.208H315.888L315.389 164.709C315.924 164.316 316.531 164.137 317.138 164.137C317.959 164.137 318.637 164.423 319.173 164.995C319.744 165.531 320.03 166.282 320.03 167.139C320.03 167.997 319.78 168.712 319.28 169.355C318.709 170.105 317.888 170.463 316.852 170.463C315.996 170.463 315.317 170.248 314.782 169.748C314.246 169.283 313.925 168.64 313.853 167.854Z" fill="#606062"/>
<path d="M321.101 167.854L322.279 167.783C322.386 168.354 322.6 168.819 322.922 169.105C323.243 169.391 323.636 169.534 324.1 169.534C324.635 169.534 325.099 169.319 325.492 168.926C325.849 168.497 326.063 167.961 326.063 167.247C326.063 166.603 325.885 166.103 325.528 165.71C325.135 165.352 324.671 165.138 324.064 165.138C323.707 165.138 323.386 165.245 323.064 165.388C322.779 165.567 322.565 165.781 322.386 166.067L321.315 165.889L322.208 161.1H326.813V162.208H323.1L322.6 164.709C323.172 164.316 323.778 164.137 324.385 164.137C325.171 164.137 325.885 164.423 326.42 164.995C326.992 165.531 327.277 166.282 327.277 167.139C327.277 167.997 327.027 168.712 326.528 169.355C325.921 170.105 325.135 170.463 324.1 170.463C323.243 170.463 322.565 170.248 322.029 169.748C321.494 169.283 321.172 168.64 321.101 167.854Z" fill="#606062"/>
<path d="M328.348 165.71C328.348 164.602 328.455 163.709 328.67 163.065C328.884 162.386 329.241 161.85 329.669 161.493C330.133 161.136 330.705 160.957 331.383 160.957C331.883 160.957 332.311 161.064 332.668 161.243C333.061 161.457 333.382 161.743 333.632 162.136C333.846 162.494 334.06 162.958 334.203 163.53C334.346 164.066 334.418 164.781 334.418 165.71C334.418 166.818 334.275 167.711 334.06 168.354C333.846 169.033 333.489 169.569 333.061 169.927C332.597 170.284 332.061 170.463 331.383 170.463C330.455 170.463 329.776 170.141 329.241 169.534C328.634 168.748 328.348 167.461 328.348 165.71ZM329.491 165.71C329.491 167.247 329.669 168.283 330.026 168.783C330.383 169.284 330.847 169.534 331.383 169.534C331.883 169.534 332.347 169.284 332.704 168.783C333.061 168.283 333.239 167.247 333.239 165.71C333.239 164.173 333.061 163.173 332.704 162.672C332.347 162.172 331.883 161.886 331.347 161.886C330.847 161.886 330.419 162.136 330.098 162.565C329.705 163.137 329.491 164.173 329.491 165.71Z" fill="#606062"/>
<path d="M336.203 170.32V169.033H337.524V170.32H336.203Z" fill="#606062"/>
<path d="M339.202 165.71C339.202 164.602 339.309 163.709 339.523 163.065C339.773 162.386 340.094 161.85 340.558 161.493C340.987 161.136 341.558 160.957 342.236 160.957C342.736 160.957 343.164 161.064 343.557 161.243C343.914 161.457 344.235 161.743 344.485 162.136C344.7 162.494 344.914 162.958 345.057 163.53C345.199 164.066 345.271 164.781 345.271 165.71C345.271 166.818 345.128 167.711 344.914 168.354C344.7 169.033 344.378 169.569 343.914 169.927C343.486 170.284 342.914 170.463 342.236 170.463C341.344 170.463 340.63 170.141 340.094 169.534C339.487 168.748 339.202 167.461 339.202 165.71ZM340.38 165.71C340.38 167.247 340.558 168.283 340.915 168.783C341.272 169.284 341.701 169.534 342.236 169.534C342.736 169.534 343.2 169.284 343.557 168.783C343.914 168.283 344.093 167.247 344.093 165.71C344.093 164.173 343.914 163.173 343.557 162.672C343.2 162.172 342.736 161.886 342.2 161.886C341.701 161.886 341.272 162.136 340.951 162.565C340.558 163.137 340.38 164.173 340.38 165.71Z" fill="#606062"/>
<path d="M346.449 165.71C346.449 164.602 346.556 163.709 346.77 163.065C346.984 162.386 347.341 161.85 347.77 161.493C348.234 161.136 348.805 160.957 349.448 160.957C349.948 160.957 350.412 161.064 350.769 161.243C351.162 161.457 351.483 161.743 351.697 162.136C351.947 162.494 352.161 162.958 352.304 163.53C352.411 164.066 352.483 164.781 352.483 165.71C352.483 166.818 352.375 167.711 352.161 168.354C351.947 169.033 351.59 169.569 351.162 169.927C350.697 170.284 350.162 170.463 349.448 170.463C348.555 170.463 347.877 170.141 347.341 169.534C346.735 168.748 346.449 167.461 346.449 165.71ZM347.591 165.71C347.591 167.247 347.77 168.283 348.127 168.783C348.484 169.284 348.948 169.534 349.448 169.534C349.983 169.534 350.448 169.284 350.805 168.783C351.162 168.283 351.34 167.247 351.34 165.71C351.34 164.173 351.162 163.173 350.805 162.672C350.448 162.172 349.983 161.886 349.448 161.886C348.912 161.886 348.52 162.136 348.198 162.565C347.806 163.137 347.591 164.173 347.591 165.71Z" fill="#606062"/>
<path d="M254.196 170.427H253.054V163.137C252.768 163.387 252.411 163.673 251.947 163.923C251.519 164.173 251.09 164.388 250.733 164.531V163.423C251.376 163.101 251.947 162.744 252.411 162.315C252.911 161.886 253.232 161.457 253.446 161.064H254.196V170.427Z" fill="#606062"/>
<path d="M257.124 165.817C257.124 164.745 257.231 163.852 257.481 163.173C257.695 162.494 258.016 161.993 258.48 161.6C258.909 161.243 259.48 161.064 260.158 161.064C260.658 161.064 261.087 161.171 261.479 161.386C261.836 161.565 262.158 161.85 262.408 162.244C262.657 162.637 262.836 163.101 262.979 163.637C263.122 164.173 263.193 164.924 263.193 165.817C263.193 166.925 263.086 167.818 262.872 168.497C262.622 169.176 262.3 169.677 261.836 170.034C261.408 170.427 260.837 170.606 260.158 170.606C259.266 170.606 258.552 170.284 258.052 169.641C257.445 168.855 257.124 167.604 257.124 165.817ZM258.302 165.853C258.302 167.39 258.48 168.39 258.837 168.89C259.194 169.391 259.623 169.641 260.158 169.641C260.694 169.641 261.122 169.391 261.479 168.89C261.836 168.39 262.015 167.354 262.015 165.853C262.015 164.316 261.836 163.28 261.479 162.78C261.122 162.279 260.694 162.029 260.158 162.029C259.623 162.029 259.194 162.244 258.873 162.672C258.48 163.244 258.302 164.316 258.302 165.853Z" fill="#606062"/>
<path d="M264.585 163.351C264.585 162.672 264.728 162.101 265.085 161.636C265.406 161.171 265.906 160.957 266.549 160.957C267.12 160.957 267.62 161.171 267.977 161.565C268.37 161.993 268.584 162.601 268.584 163.423C268.584 164.209 268.37 164.817 267.977 165.245C267.584 165.674 267.12 165.889 266.549 165.889C265.978 165.889 265.514 165.674 265.121 165.245C264.764 164.817 264.585 164.209 264.585 163.351ZM266.585 161.743C266.299 161.743 266.049 161.886 265.871 162.101C265.656 162.351 265.585 162.815 265.585 163.459C265.585 164.066 265.656 164.495 265.871 164.709C266.049 164.96 266.299 165.067 266.585 165.067C266.87 165.067 267.084 164.96 267.299 164.709C267.477 164.459 267.584 164.03 267.584 163.387C267.584 162.78 267.477 162.351 267.299 162.101C267.084 161.886 266.87 161.743 266.585 161.743ZM266.585 170.785L271.654 160.957H272.582L267.513 170.785H266.585ZM270.583 168.247C270.583 167.568 270.762 166.996 271.083 166.532C271.44 166.067 271.904 165.853 272.547 165.853C273.154 165.853 273.618 166.067 274.01 166.46C274.403 166.889 274.582 167.497 274.582 168.319C274.582 169.105 274.403 169.712 274.01 170.141C273.618 170.57 273.118 170.785 272.547 170.785C272.011 170.785 271.511 170.57 271.154 170.141C270.762 169.712 270.583 169.105 270.583 168.247ZM272.582 166.639C272.297 166.639 272.047 166.782 271.868 166.996C271.69 167.247 271.583 167.711 271.583 168.354C271.583 168.962 271.69 169.355 271.868 169.605C272.083 169.855 272.297 169.998 272.582 169.998C272.868 169.998 273.118 169.855 273.296 169.605C273.475 169.355 273.582 168.926 273.582 168.283C273.582 167.675 273.475 167.247 273.296 166.996C273.118 166.782 272.868 166.639 272.582 166.639Z" fill="#606062"/>
<path d="M253.518 196.765V189.332H250.733V188.367H257.374V189.332H254.625V196.765H253.518Z" fill="#606062"/>
<path d="M256.731 193.727C256.731 192.584 257.017 191.762 257.659 191.226C258.195 190.761 258.802 190.547 259.587 190.547C260.408 190.547 261.087 190.797 261.622 191.369C262.158 191.905 262.408 192.655 262.408 193.62C262.408 194.406 262.3 195.014 262.05 195.479C261.836 195.907 261.479 196.265 261.051 196.515C260.587 196.765 260.087 196.872 259.587 196.872C258.73 196.872 258.016 196.622 257.516 196.086C256.981 195.514 256.731 194.728 256.731 193.727ZM257.766 193.727C257.766 194.478 257.945 195.085 258.302 195.479C258.623 195.836 259.052 196.05 259.587 196.05C260.087 196.05 260.515 195.836 260.837 195.443C261.194 195.085 261.372 194.478 261.372 193.692C261.372 192.941 261.194 192.369 260.837 191.976C260.515 191.583 260.087 191.405 259.587 191.405C259.052 191.405 258.623 191.583 258.302 191.976C257.945 192.369 257.766 192.941 257.766 193.727Z" fill="#606062"/>
<path d="M265.871 195.836L266.013 196.729C265.728 196.801 265.442 196.836 265.228 196.836C264.835 196.836 264.55 196.765 264.371 196.658C264.157 196.55 264.014 196.372 263.907 196.193C263.836 196.014 263.8 195.585 263.8 194.978V191.476H263.05V190.654H263.8V189.153L264.835 188.545V190.654H265.871V191.476H264.835V195.049C264.835 195.335 264.835 195.514 264.871 195.585C264.907 195.693 264.978 195.764 265.049 195.8C265.156 195.836 265.264 195.871 265.406 195.871C265.513 195.871 265.692 195.871 265.871 195.836Z" fill="#606062"/>
<path d="M270.833 195.979C270.476 196.336 270.083 196.551 269.762 196.694C269.405 196.836 269.012 196.872 268.62 196.872C267.941 196.872 267.441 196.729 267.049 196.408C266.692 196.086 266.513 195.657 266.513 195.157C266.513 194.835 266.585 194.585 266.727 194.335C266.87 194.085 267.049 193.906 267.263 193.727C267.477 193.584 267.727 193.477 268.013 193.406C268.191 193.37 268.512 193.299 268.905 193.263C269.762 193.156 270.369 193.048 270.762 192.905C270.762 192.763 270.762 192.655 270.762 192.62C270.762 192.226 270.655 191.905 270.476 191.762C270.226 191.512 269.833 191.405 269.298 191.405C268.798 191.405 268.441 191.476 268.227 191.655C267.977 191.833 267.834 192.119 267.727 192.548L266.692 192.405C266.799 191.976 266.942 191.619 267.156 191.369C267.37 191.119 267.656 190.904 268.084 190.761C268.477 190.618 268.941 190.547 269.441 190.547C269.976 190.547 270.405 190.618 270.726 190.726C271.047 190.833 271.297 191.011 271.44 191.19C271.583 191.369 271.69 191.619 271.761 191.905C271.797 192.048 271.797 192.369 271.797 192.834V194.192C271.797 195.157 271.833 195.764 271.868 196.015C271.904 196.265 272.011 196.515 272.118 196.765H271.047C270.94 196.551 270.869 196.3 270.833 195.979ZM270.762 193.692C270.405 193.87 269.833 193.978 269.084 194.085C268.655 194.156 268.37 194.228 268.191 194.299C268.013 194.371 267.87 194.478 267.763 194.621C267.691 194.764 267.62 194.942 267.62 195.121C267.62 195.407 267.727 195.621 267.941 195.8C268.155 195.979 268.441 196.086 268.869 196.086C269.262 196.086 269.619 195.979 269.905 195.8C270.226 195.657 270.44 195.407 270.583 195.121C270.69 194.871 270.762 194.549 270.762 194.085V193.692Z" fill="#606062"/>
<path d="M273.368 196.765V188.367H274.403V196.765H273.368Z" fill="#606062"/>
<path d="M250.733 219.029L253.946 210.631H255.196L258.587 219.029H257.338L256.374 216.491H252.839L251.911 219.029H250.733ZM253.161 215.598H256.017L255.16 213.239C254.874 212.56 254.696 211.953 254.553 211.488C254.41 212.06 254.268 212.596 254.089 213.132L253.161 215.598Z" fill="#606062"/>
<path d="M263.264 219.029V218.242C262.907 218.85 262.336 219.172 261.586 219.172C261.087 219.172 260.658 219.029 260.23 218.743C259.837 218.493 259.516 218.135 259.301 217.635C259.087 217.17 258.98 216.599 258.98 215.991C258.98 215.384 259.052 214.848 259.266 214.347C259.48 213.847 259.766 213.454 260.194 213.204C260.587 212.953 261.015 212.811 261.515 212.811C261.908 212.811 262.229 212.882 262.515 213.061C262.8 213.204 263.014 213.418 263.193 213.668V210.631H264.228V219.029H263.264ZM260.015 215.991C260.015 216.777 260.194 217.349 260.515 217.742C260.837 218.135 261.229 218.314 261.693 218.314C262.122 218.314 262.515 218.135 262.836 217.778C263.157 217.385 263.3 216.849 263.3 216.063C263.3 215.241 263.122 214.633 262.8 214.24C262.479 213.847 262.086 213.668 261.622 213.668C261.158 213.668 260.801 213.847 260.48 214.24C260.158 214.597 260.015 215.205 260.015 215.991Z" fill="#606062"/>
<path d="M267.513 219.029L265.228 212.954H266.335L267.62 216.599C267.763 216.992 267.906 217.385 268.013 217.814C268.12 217.492 268.263 217.099 268.405 216.67L269.762 212.954H270.833L268.512 219.029H267.513Z" fill="#606062"/>
<path d="M275.688 218.278C275.296 218.6 274.939 218.814 274.582 218.957C274.225 219.1 273.868 219.172 273.439 219.172C272.797 219.172 272.261 218.993 271.904 218.671C271.547 218.35 271.369 217.921 271.369 217.421C271.369 217.135 271.44 216.849 271.583 216.599C271.726 216.348 271.904 216.17 272.118 216.027C272.333 215.884 272.582 215.741 272.868 215.669C273.047 215.634 273.368 215.562 273.761 215.527C274.617 215.419 275.224 215.312 275.617 215.169C275.617 215.026 275.617 214.955 275.617 214.919C275.617 214.49 275.51 214.204 275.331 214.026C275.046 213.775 274.653 213.668 274.153 213.668C273.653 213.668 273.296 213.74 273.082 213.918C272.832 214.097 272.654 214.383 272.547 214.848L271.547 214.705C271.654 214.24 271.797 213.918 272.011 213.632C272.225 213.382 272.511 213.168 272.904 213.025C273.296 212.882 273.761 212.811 274.296 212.811C274.832 212.811 275.224 212.882 275.581 212.989C275.903 213.132 276.117 213.275 276.295 213.454C276.438 213.632 276.545 213.883 276.617 214.169C276.652 214.347 276.652 214.669 276.652 215.098V216.491C276.652 217.421 276.688 218.028 276.724 218.278C276.76 218.564 276.831 218.779 276.974 219.029H275.903C275.796 218.814 275.724 218.564 275.688 218.278ZM275.617 215.991C275.224 216.134 274.689 216.277 273.939 216.384C273.511 216.42 273.189 216.491 273.011 216.563C272.832 216.634 272.725 216.742 272.618 216.92C272.511 217.063 272.475 217.206 272.475 217.385C272.475 217.671 272.582 217.885 272.797 218.064C273.011 218.242 273.296 218.35 273.689 218.35C274.082 218.35 274.439 218.278 274.76 218.1C275.082 217.921 275.296 217.671 275.439 217.385C275.546 217.135 275.617 216.813 275.617 216.348V215.991Z" fill="#606062"/>
<path d="M278.223 219.029V212.953H279.152V213.811C279.616 213.132 280.258 212.811 281.079 212.811C281.472 212.811 281.793 212.882 282.115 213.025C282.4 213.132 282.65 213.311 282.793 213.525C282.936 213.74 283.043 213.99 283.114 214.276C283.15 214.49 283.186 214.812 283.186 215.276V219.029H282.15V215.348C282.15 214.919 282.115 214.597 282.008 214.383C281.936 214.169 281.793 214.026 281.579 213.883C281.401 213.775 281.151 213.704 280.865 213.704C280.437 213.704 280.08 213.847 279.758 214.133C279.437 214.383 279.259 214.919 279.259 215.705V219.029H278.223Z" fill="#606062"/>
<path d="M288.72 216.813L289.719 216.956C289.612 217.635 289.326 218.171 288.898 218.564C288.434 218.957 287.863 219.172 287.22 219.172C286.363 219.172 285.721 218.886 285.221 218.35C284.721 217.814 284.435 217.027 284.435 215.991C284.435 215.348 284.578 214.776 284.792 214.276C285.007 213.811 285.328 213.418 285.756 213.168C286.22 212.953 286.685 212.811 287.22 212.811C287.863 212.811 288.434 212.989 288.827 213.311C289.255 213.632 289.541 214.133 289.648 214.74L288.648 214.883C288.541 214.49 288.398 214.169 288.148 213.954C287.898 213.775 287.613 213.668 287.256 213.668C286.756 213.668 286.328 213.847 286.006 214.204C285.685 214.597 285.506 215.169 285.506 215.991C285.506 216.813 285.649 217.385 285.971 217.742C286.292 218.135 286.685 218.314 287.184 218.314C287.613 218.314 287.934 218.207 288.22 217.957C288.47 217.706 288.648 217.313 288.72 216.813Z" fill="#606062"/>
<path d="M294.753 217.063L295.824 217.206C295.646 217.814 295.36 218.314 294.896 218.636C294.432 218.993 293.861 219.172 293.147 219.172C292.29 219.172 291.576 218.886 291.04 218.35C290.54 217.778 290.29 217.027 290.29 216.027C290.29 215.026 290.54 214.24 291.076 213.668C291.576 213.096 292.254 212.811 293.111 212.811C293.932 212.811 294.575 213.096 295.074 213.632C295.61 214.204 295.86 214.99 295.86 215.991C295.86 216.027 295.86 216.134 295.86 216.241H291.326C291.361 216.92 291.54 217.421 291.897 217.778C292.218 218.135 292.647 218.314 293.147 218.314C293.539 218.314 293.861 218.207 294.11 218.028C294.396 217.814 294.61 217.492 294.753 217.063ZM291.397 215.419H294.789C294.717 214.883 294.61 214.526 294.396 214.24C294.075 213.847 293.646 213.668 293.111 213.668C292.647 213.668 292.254 213.811 291.933 214.133C291.611 214.454 291.433 214.883 291.397 215.419Z" fill="#606062"/>
<path d="M310.926 197.73H309.783V190.44C309.498 190.69 309.141 190.94 308.677 191.226C308.248 191.476 307.82 191.69 307.463 191.798V190.69C308.106 190.404 308.677 190.047 309.141 189.618C309.641 189.189 309.962 188.76 310.176 188.367H310.926V197.73Z" fill="#606062"/>
<path d="M313.853 193.12C313.853 192.012 313.961 191.119 314.21 190.475C314.425 189.796 314.746 189.26 315.21 188.903C315.639 188.546 316.21 188.367 316.888 188.367C317.388 188.367 317.816 188.474 318.209 188.653C318.566 188.867 318.887 189.153 319.137 189.546C319.387 189.904 319.566 190.368 319.709 190.904C319.851 191.476 319.923 192.191 319.923 193.12C319.923 194.228 319.816 195.121 319.601 195.764C319.352 196.443 319.03 196.979 318.566 197.337C318.138 197.694 317.566 197.873 316.888 197.873C315.996 197.873 315.281 197.551 314.782 196.908C314.175 196.157 313.853 194.871 313.853 193.12ZM315.032 193.12C315.032 194.657 315.21 195.693 315.567 196.193C315.924 196.694 316.353 196.944 316.888 196.944C317.424 196.944 317.852 196.694 318.209 196.193C318.566 195.693 318.745 194.657 318.745 193.12C318.745 191.583 318.566 190.583 318.209 190.082C317.852 189.546 317.424 189.296 316.888 189.296C316.353 189.296 315.924 189.546 315.603 189.975C315.21 190.547 315.032 191.583 315.032 193.12Z" fill="#606062"/>
<path d="M324.742 197.73V195.514H320.708V194.442L324.957 188.403H325.885V194.442H327.17V195.514H325.885V197.73H324.742ZM324.742 194.442V190.261L321.815 194.442H324.742Z" fill="#606062"/>
<path d="M328.348 195.264L329.526 195.192C329.634 195.764 329.812 196.193 330.133 196.515C330.455 196.801 330.847 196.944 331.312 196.944C331.883 196.944 332.347 196.729 332.74 196.336C333.097 195.907 333.311 195.371 333.311 194.656C333.311 194.013 333.132 193.513 332.74 193.12C332.383 192.727 331.918 192.548 331.312 192.548C330.954 192.548 330.597 192.655 330.312 192.798C330.026 192.977 329.776 193.191 329.634 193.477L328.527 193.298L329.455 188.51H334.061V189.618H330.348L329.848 192.119C330.419 191.726 330.99 191.547 331.597 191.547C332.418 191.547 333.097 191.833 333.668 192.369C334.239 192.941 334.489 193.692 334.489 194.549C334.489 195.407 334.275 196.122 333.775 196.765C333.168 197.515 332.347 197.873 331.312 197.873C330.49 197.873 329.776 197.658 329.241 197.158C328.705 196.693 328.42 196.05 328.348 195.264Z" fill="#606062"/>
<path d="M336.203 197.73V196.407H337.524V197.73H336.203Z" fill="#606062"/>
<path d="M339.202 193.12C339.202 192.012 339.309 191.119 339.523 190.475C339.773 189.796 340.094 189.26 340.558 188.903C340.987 188.546 341.558 188.367 342.236 188.367C342.736 188.367 343.164 188.474 343.557 188.653C343.914 188.867 344.235 189.153 344.485 189.546C344.7 189.904 344.914 190.368 345.057 190.904C345.199 191.476 345.271 192.191 345.271 193.12C345.271 194.228 345.128 195.121 344.914 195.764C344.7 196.443 344.378 196.979 343.914 197.337C343.486 197.694 342.914 197.873 342.236 197.873C341.344 197.873 340.63 197.551 340.094 196.908C339.487 196.157 339.202 194.871 339.202 193.12ZM340.38 193.12C340.38 194.657 340.558 195.693 340.915 196.193C341.272 196.694 341.701 196.944 342.236 196.944C342.736 196.944 343.2 196.694 343.557 196.193C343.914 195.693 344.093 194.657 344.093 193.12C344.093 191.583 343.914 190.583 343.557 190.082C343.2 189.546 342.736 189.296 342.2 189.296C341.701 189.296 341.272 189.546 340.951 189.975C340.558 190.547 340.38 191.583 340.38 193.12Z" fill="#606062"/>
<path d="M346.449 193.12C346.449 192.012 346.556 191.119 346.77 190.475C346.984 189.796 347.341 189.26 347.77 188.903C348.234 188.546 348.805 188.367 349.448 188.367C349.948 188.367 350.412 188.474 350.769 188.653C351.162 188.867 351.483 189.153 351.697 189.546C351.947 189.904 352.161 190.368 352.304 190.904C352.411 191.476 352.483 192.191 352.483 193.12C352.483 194.228 352.375 195.121 352.161 195.764C351.947 196.443 351.59 196.979 351.162 197.337C350.697 197.694 350.162 197.873 349.448 197.873C348.555 197.873 347.877 197.551 347.341 196.908C346.735 196.157 346.449 194.871 346.449 193.12ZM347.591 193.12C347.591 194.657 347.77 195.693 348.127 196.193C348.484 196.694 348.948 196.944 349.448 196.944C349.983 196.944 350.448 196.694 350.805 196.193C351.162 195.693 351.34 194.657 351.34 193.12C351.34 191.583 351.162 190.583 350.805 190.082C350.448 189.546 349.983 189.296 349.448 189.296C348.912 189.296 348.52 189.546 348.198 189.975C347.806 190.547 347.591 191.583 347.591 193.12Z" fill="#606062"/>
<path d="M313.853 217.564L315.067 217.456C315.139 218.028 315.353 218.493 315.674 218.779C315.996 219.065 316.388 219.207 316.852 219.207C317.388 219.207 317.852 218.993 318.245 218.6C318.637 218.171 318.816 217.635 318.816 216.956C318.816 216.277 318.637 215.777 318.28 215.384C317.923 215.026 317.424 214.812 316.817 214.812C316.46 214.812 316.138 214.919 315.853 215.098C315.531 215.241 315.317 215.455 315.139 215.741L314.068 215.598L314.96 210.774H319.566V211.882H315.888L315.389 214.383C315.924 213.99 316.531 213.811 317.138 213.811C317.959 213.811 318.637 214.097 319.173 214.669C319.744 215.241 320.03 215.955 320.03 216.849C320.03 217.671 319.78 218.421 319.28 219.029C318.709 219.779 317.888 220.172 316.852 220.172C315.996 220.172 315.317 219.922 314.782 219.458C314.246 218.957 313.925 218.35 313.853 217.564Z" fill="#606062"/>
<path d="M321.101 215.384C321.101 214.311 321.208 213.418 321.422 212.739C321.672 212.06 321.993 211.524 322.458 211.167C322.886 210.809 323.457 210.631 324.136 210.631C324.635 210.631 325.064 210.738 325.456 210.917C325.813 211.131 326.135 211.417 326.385 211.81C326.635 212.167 326.813 212.632 326.956 213.204C327.099 213.74 327.17 214.49 327.17 215.384C327.17 216.491 327.063 217.385 326.813 218.064C326.599 218.743 326.278 219.243 325.813 219.6C325.385 219.958 324.814 220.172 324.136 220.172C323.243 220.172 322.529 219.851 322.029 219.207C321.386 218.421 321.101 217.135 321.101 215.384ZM322.279 215.384C322.279 216.92 322.458 217.957 322.815 218.457C323.172 218.957 323.6 219.207 324.136 219.207C324.635 219.207 325.099 218.957 325.456 218.457C325.813 217.957 325.992 216.92 325.992 215.384C325.992 213.883 325.813 212.846 325.456 212.346C325.099 211.846 324.635 211.595 324.1 211.595C323.6 211.595 323.172 211.81 322.85 212.239C322.458 212.811 322.279 213.883 322.279 215.384Z" fill="#606062"/>
<path d="M328.348 215.384C328.348 214.311 328.455 213.418 328.67 212.739C328.884 212.06 329.241 211.524 329.669 211.167C330.133 210.809 330.705 210.631 331.383 210.631C331.883 210.631 332.311 210.738 332.668 210.917C333.061 211.131 333.382 211.417 333.632 211.81C333.846 212.167 334.06 212.632 334.203 213.204C334.346 213.74 334.418 214.49 334.418 215.384C334.418 216.491 334.275 217.385 334.06 218.064C333.846 218.743 333.489 219.243 333.061 219.6C332.597 219.958 332.061 220.172 331.383 220.172C330.455 220.172 329.776 219.851 329.241 219.207C328.634 218.421 328.348 217.135 328.348 215.384ZM329.491 215.384C329.491 216.92 329.669 217.957 330.026 218.457C330.383 218.957 330.847 219.207 331.383 219.207C331.883 219.207 332.347 218.957 332.704 218.457C333.061 217.957 333.239 216.92 333.239 215.384C333.239 213.883 333.061 212.846 332.704 212.346C332.347 211.846 331.883 211.595 331.347 211.595C330.847 211.595 330.419 211.81 330.098 212.239C329.705 212.811 329.491 213.883 329.491 215.384Z" fill="#606062"/>
<path d="M336.203 219.994V218.707H337.524V219.994H336.203Z" fill="#606062"/>
<path d="M339.202 215.384C339.202 214.311 339.309 213.418 339.523 212.739C339.773 212.06 340.094 211.524 340.558 211.167C340.987 210.809 341.558 210.631 342.236 210.631C342.736 210.631 343.164 210.738 343.557 210.917C343.914 211.131 344.235 211.417 344.485 211.81C344.7 212.167 344.914 212.632 345.057 213.204C345.199 213.74 345.271 214.49 345.271 215.384C345.271 216.491 345.128 217.385 344.914 218.064C344.7 218.743 344.378 219.243 343.914 219.6C343.486 219.958 342.914 220.172 342.236 220.172C341.344 220.172 340.63 219.851 340.094 219.207C339.487 218.421 339.202 217.135 339.202 215.384ZM340.38 215.384C340.38 216.92 340.558 217.957 340.915 218.457C341.272 218.957 341.701 219.207 342.236 219.207C342.736 219.207 343.2 218.957 343.557 218.457C343.914 217.957 344.093 216.92 344.093 215.384C344.093 213.883 343.914 212.846 343.557 212.346C343.2 211.846 342.736 211.595 342.2 211.595C341.701 211.595 341.272 211.81 340.951 212.239C340.558 212.811 340.38 213.883 340.38 215.384Z" fill="#606062"/>
<path d="M346.449 215.384C346.449 214.311 346.556 213.418 346.77 212.739C346.984 212.06 347.341 211.524 347.77 211.167C348.234 210.809 348.805 210.631 349.448 210.631C349.948 210.631 350.412 210.738 350.769 210.917C351.162 211.131 351.483 211.417 351.697 211.81C351.947 212.167 352.161 212.632 352.304 213.204C352.411 213.74 352.483 214.49 352.483 215.384C352.483 216.491 352.375 217.385 352.161 218.064C351.947 218.743 351.59 219.243 351.162 219.6C350.697 219.958 350.162 220.172 349.448 220.172C348.555 220.172 347.877 219.851 347.341 219.207C346.735 218.421 346.449 217.135 346.449 215.384ZM347.591 215.384C347.591 216.92 347.77 217.957 348.127 218.457C348.484 218.957 348.948 219.207 349.448 219.207C349.983 219.207 350.448 218.957 350.805 218.457C351.162 217.957 351.34 216.92 351.34 215.384C351.34 213.883 351.162 212.846 350.805 212.346C350.448 211.846 349.983 211.595 349.448 211.595C348.912 211.595 348.52 211.81 348.198 212.239C347.806 212.811 347.591 213.883 347.591 215.384Z" fill="#606062"/>
<path d="M17.6733 178.146H365.906" stroke="#DEDEDE" stroke-width="0.0101768"/>
<path d="M230.419 225.426H365.906" stroke="#DEDEDE" stroke-width="0.0101768"/>
<path d="M250.733 242.293V233.895H253.625C254.303 233.895 254.767 233.931 255.124 234.002C255.624 234.145 256.017 234.324 256.374 234.61C256.802 235.003 257.124 235.467 257.338 236.039C257.588 236.647 257.695 237.29 257.695 238.04C257.695 238.684 257.623 239.255 257.445 239.756C257.302 240.256 257.124 240.649 256.874 240.971C256.66 241.292 256.41 241.543 256.124 241.721C255.838 241.9 255.517 242.043 255.124 242.15C254.732 242.257 254.268 242.293 253.768 242.293H250.733ZM251.876 241.328H253.661C254.196 241.328 254.625 241.257 254.946 241.149C255.267 241.042 255.517 240.899 255.696 240.721C255.946 240.471 256.16 240.113 256.303 239.649C256.445 239.22 256.517 238.684 256.517 238.04C256.517 237.147 256.374 236.468 256.088 236.003C255.803 235.539 255.481 235.217 255.053 235.074C254.767 234.931 254.268 234.896 253.625 234.896H251.876V241.328Z" fill="#606062"/>
<path d="M263.05 242.293V241.4C262.586 242.079 261.943 242.436 261.122 242.436C260.765 242.436 260.444 242.365 260.123 242.222C259.801 242.079 259.587 241.9 259.444 241.686C259.266 241.507 259.194 241.257 259.123 240.935C259.087 240.721 259.052 240.399 259.052 239.97V236.218H260.087V239.577C260.087 240.113 260.123 240.471 260.158 240.649C260.194 240.935 260.337 241.15 260.551 241.293C260.765 241.471 261.015 241.543 261.336 241.543C261.658 241.543 261.943 241.471 262.193 241.293C262.479 241.15 262.657 240.935 262.764 240.649C262.872 240.363 262.943 239.97 262.943 239.47V236.218H263.978V242.293H263.05Z" fill="#606062"/>
<path d="M269.726 240.328L270.797 240.471C270.655 241.078 270.333 241.578 269.869 241.9C269.441 242.257 268.834 242.436 268.155 242.436C267.263 242.436 266.549 242.15 266.049 241.614C265.514 241.042 265.264 240.292 265.264 239.291C265.264 238.291 265.514 237.504 266.049 236.933C266.549 236.361 267.263 236.075 268.084 236.075C268.905 236.075 269.548 236.361 270.083 236.897C270.583 237.469 270.833 238.255 270.833 239.255C270.833 239.291 270.833 239.398 270.833 239.506H266.299C266.335 240.185 266.549 240.685 266.87 241.042C267.227 241.4 267.62 241.578 268.155 241.578C268.512 241.578 268.834 241.471 269.119 241.292C269.369 241.078 269.583 240.756 269.726 240.328ZM266.37 238.684H269.762C269.691 238.148 269.583 237.79 269.369 237.504C269.048 237.111 268.62 236.933 268.084 236.933C267.62 236.933 267.227 237.076 266.906 237.397C266.585 237.719 266.406 238.148 266.37 238.684Z" fill="#606062"/>
<path d="M230.419 250.906H365.906" stroke="#DEDEDE" stroke-width="0.0101768"/>
<path d="M318.212 240.077L319.283 240.006C319.354 240.542 319.533 240.935 319.818 241.185C320.139 241.471 320.461 241.578 320.889 241.578C321.389 241.578 321.817 241.4 322.174 241.042C322.496 240.649 322.674 240.149 322.674 239.541C322.674 238.97 322.496 238.505 322.174 238.148C321.853 237.826 321.425 237.647 320.889 237.647C320.568 237.647 320.247 237.719 319.997 237.862C319.711 238.005 319.533 238.219 319.354 238.469L318.39 238.326L319.211 234.002H323.353V235.003H320.032L319.568 237.254C320.068 236.897 320.604 236.718 321.139 236.718C321.889 236.718 322.496 236.968 322.996 237.504C323.495 238.005 323.745 238.648 323.745 239.434C323.745 240.22 323.531 240.864 323.103 241.4C322.567 242.114 321.817 242.436 320.889 242.436C320.139 242.436 319.497 242.222 319.033 241.793C318.533 241.364 318.283 240.792 318.212 240.077Z" fill="#1A237E"/>
<path d="M327.994 242.293V240.292H324.352V239.327L328.208 233.895H329.029V239.327H330.172V240.292H329.029V242.293H327.994ZM327.994 239.327V235.575L325.388 239.327H327.994Z" fill="#1A237E"/>
<path d="M331.243 240.077L332.314 240.006C332.385 240.542 332.564 240.935 332.885 241.185C333.17 241.471 333.528 241.578 333.92 241.578C334.42 241.578 334.848 241.4 335.205 241.042C335.527 240.649 335.705 240.149 335.705 239.541C335.705 238.97 335.527 238.505 335.205 238.148C334.884 237.826 334.456 237.647 333.92 237.647C333.599 237.647 333.278 237.719 333.028 237.862C332.742 238.005 332.564 238.219 332.385 238.469L331.421 238.326L332.242 234.002H336.384V235.003H333.063L332.599 237.254C333.099 236.897 333.635 236.718 334.17 236.718C334.92 236.718 335.527 236.968 336.027 237.504C336.526 238.005 336.776 238.648 336.776 239.434C336.776 240.22 336.562 240.864 336.134 241.4C335.598 242.114 334.848 242.436 333.92 242.436C333.17 242.436 332.528 242.222 332.064 241.793C331.564 241.364 331.314 240.792 331.243 240.077Z" fill="#1A237E"/>
<path d="M337.845 242.293V241.114H339.023V242.293H337.845Z" fill="#1A237E"/>
<path d="M340.523 238.148C340.523 237.147 340.63 236.361 340.844 235.753C341.022 235.146 341.344 234.681 341.736 234.36C342.129 234.038 342.629 233.859 343.236 233.859C343.7 233.859 344.093 233.967 344.45 234.145C344.771 234.324 345.057 234.574 345.271 234.931C345.485 235.253 345.664 235.682 345.806 236.182C345.913 236.647 345.985 237.326 345.985 238.148C345.985 239.148 345.878 239.935 345.664 240.542C345.485 241.15 345.164 241.614 344.771 241.936C344.378 242.257 343.878 242.436 343.236 242.436C342.45 242.436 341.808 242.15 341.344 241.578C340.808 240.864 340.523 239.72 340.523 238.148ZM341.594 238.148C341.594 239.541 341.736 240.471 342.058 240.899C342.379 241.364 342.772 241.578 343.236 241.578C343.736 241.578 344.128 241.364 344.45 240.899C344.771 240.435 344.914 239.541 344.914 238.148C344.914 236.79 344.771 235.861 344.45 235.396C344.128 234.931 343.736 234.717 343.236 234.717C342.772 234.717 342.379 234.931 342.093 235.325C341.736 235.825 341.594 236.79 341.594 238.148Z" fill="#1A237E"/>
<path d="M347.056 238.148C347.056 237.147 347.127 236.361 347.341 235.753C347.556 235.146 347.841 234.681 348.27 234.36C348.662 234.038 349.162 233.859 349.769 233.859C350.233 233.859 350.626 233.967 350.947 234.145C351.304 234.324 351.59 234.574 351.804 234.931C352.018 235.253 352.197 235.682 352.304 236.182C352.447 236.647 352.483 237.326 352.483 238.148C352.483 239.148 352.411 239.935 352.197 240.542C351.983 241.15 351.697 241.614 351.304 241.936C350.876 242.257 350.376 242.436 349.769 242.436C348.948 242.436 348.341 242.15 347.877 241.578C347.306 240.864 347.056 239.72 347.056 238.148ZM348.091 238.148C348.091 239.541 348.27 240.471 348.591 240.899C348.912 241.364 349.305 241.578 349.769 241.578C350.233 241.578 350.626 241.364 350.947 240.899C351.269 240.435 351.447 239.541 351.447 238.148C351.447 236.79 351.269 235.861 350.947 235.396C350.626 234.931 350.233 234.717 349.769 234.717C349.269 234.717 348.912 234.931 348.627 235.325C348.27 235.825 348.091 236.79 348.091 238.148Z" fill="#1A237E"/>
<path d="M373.868 90.7706C398.87 90.7706 419.137 70.4509 419.137 45.3853C419.137 20.3197 398.87 0 373.868 0C348.866 0 328.598 20.3197 328.598 45.3853C328.598 70.4509 348.866 90.7706 373.868 90.7706Z" fill="#1A237E"/>
<path fill-rule="evenodd" clip-rule="evenodd" d="M362.622 61.8598C368.655 66.041 376.545 66.5413 383.007 63.0749C392.004 58.036 395.182 50.2455 393.361 40.2036C393.861 40.0606 394.468 39.8819 395.075 39.739C395.646 39.5603 396.253 39.4174 396.824 39.2744C399.145 47.6367 396.645 56.6423 390.291 62.5746C382.008 70.4009 369.369 71.33 360.051 64.7902C359.23 65.6122 358.445 66.3984 357.516 67.3275C356.838 63.8611 356.16 60.5733 355.482 57.1784C358.873 57.8574 362.158 58.5006 365.407 59.1439C364.514 60.0016 363.586 60.9307 362.622 61.8598Z" fill="#FEFEFE"/>
<path fill-rule="evenodd" clip-rule="evenodd" d="M387.149 25.6231C388.113 24.6582 389.077 23.7291 390.076 22.6927C390.755 26.052 391.433 29.3397 392.111 32.7347C388.755 32.0557 385.435 31.4124 382.008 30.7334C382.865 29.9472 383.65 29.2325 384.435 28.5178L384.293 28.2676C377.652 24.6582 370.833 24.1579 364.228 27.9817C355.553 33.0206 352.554 40.7754 354.41 50.5672C353.268 50.853 352.054 51.2104 350.876 51.4963C348.484 42.8838 351.233 33.6281 357.945 27.6958C366.085 20.4413 378.081 19.5837 387.149 25.6231Z" fill="#FEFEFE"/>
<rect width="9" height="15" transform="translate(308 228.5)" fill="white"/>
<path d="M312.764 242.5L310.307 238.21V237.638H310.593C311.053 237.638 311.438 237.595 311.75 237.508C312.071 237.421 312.322 237.278 312.504 237.079C312.686 236.88 312.795 236.607 312.829 236.26H310.307V235.428H312.816C312.756 235.107 312.634 234.847 312.452 234.648C312.27 234.44 312.023 234.288 311.711 234.193C311.408 234.098 311.035 234.05 310.593 234.05H310.307V233.218H315.689V234.05H313.232C313.432 234.215 313.596 234.41 313.726 234.635C313.856 234.86 313.939 235.125 313.973 235.428H315.689V236.26H313.999C313.939 236.893 313.696 237.387 313.271 237.742C312.855 238.089 312.301 238.31 311.607 238.405L314.09 242.5H312.764Z" fill="#1A237E"/>
</g>
<defs>
<clipPath id="clip0_10734_88981">
<rect width="419.138" height="288" fill="white"/>
</clipPath>
</defs>
</svg>
