<?xml version="1.0" encoding="UTF-8"?>
<!DOCTYPE svg PUBLIC "-//W3C//DTD SVG 1.1//EN" "http://www.w3.org/Graphics/SVG/1.1/DTD/svg11.dtd">
<!-- Creator: CorelDRAW X8 -->
<svg xmlns="http://www.w3.org/2000/svg" xml:space="preserve" width="4.37029in" height="3in" version="1.1" style="shape-rendering:geometricPrecision; text-rendering:geometricPrecision; image-rendering:optimizeQuality; fill-rule:evenodd; clip-rule:evenodd"
viewBox="0 0 1906 1309"
 xmlns:xlink="http://www.w3.org/1999/xlink">
 <defs>
  <style type="text/css">
   <![CDATA[
    .str0 {stroke:#A9ABAE;stroke-width:4.4391}
    .str1 {stroke:#1A237E;stroke-width:2.95884}
    .fil4 {fill:none}
    .fil0 {fill:#1A237E}
    .fil3 {fill:#FEFEFE;fill-rule:nonzero}
    .fil2 {fill:#606062;fill-rule:nonzero}
    .fil1 {fill:#1A237E;fill-rule:nonzero}
   ]]>
  </style>
 </defs>
 <g id="Layer_x0020_1">
  <metadata id="CorelCorpID_0Corel-Layer"/>
  <g id="_2490753816656">
   <path class="fil0" d="M1681 167l-1616 0c-36,0 -65,29 -65,65l0 1012c0,36 29,64 65,65l1616 0c36,-1 64,-29 64,-65l0 -1012c0,-36 -28,-65 -64,-65zm4 1022c-1,36 -31,65 -67,65l-1492 0c-36,0 -65,-29 -66,-65l0 -904c1,-36 30,-65 66,-64l1493 0c36,-1 66,28 67,64l0 904 -1 0z"/>
   <path class="fil1" d="M148 339l10 3c-2,5 -4,10 -8,12 -3,3 -8,4 -13,4 -7,0 -13,-2 -17,-7 -4,-4 -6,-11 -6,-19 0,-8 2,-15 6,-19 4,-5 10,-7 17,-7 7,0 12,2 16,5 2,2 4,5 5,10l-10 2c-1,-3 -2,-5 -4,-6 -2,-2 -4,-3 -7,-3 -4,0 -7,2 -9,5 -3,2 -4,7 -4,13 0,6 1,11 4,13 2,3 5,4 9,4 2,0 5,0 7,-2 2,-2 3,-5 4,-8z"/>
   <path id="1" class="fil1" d="M176 357l-10 0 0 -36 9 0 0 5c2,-3 3,-4 4,-5 2,-1 3,-1 5,-1 2,0 4,0 6,2l-3 8c-2,-1 -3,-1 -5,-1 -1,0 -2,0 -3,1 -1,0 -2,2 -2,4 -1,2 -1,6 -1,12l0 11z"/>
   <path id="2" class="fil1" d="M216 346l9 1c-1,4 -3,7 -6,9 -2,1 -6,2 -10,2 -6,0 -11,-2 -14,-6 -2,-3 -4,-8 -4,-13 0,-6 2,-11 5,-14 3,-3 7,-5 12,-5 6,0 10,2 13,5 3,4 5,9 5,17l-25 0c1,3 1,5 3,7 1,1 3,2 5,2 2,0 3,0 4,-1 1,-1 2,-2 3,-4zm0 -10c0,-3 -1,-5 -2,-7 -1,-1 -3,-2 -5,-2 -2,0 -4,1 -5,3 -2,1 -2,3 -2,6l14 0z"/>
   <path id="3" class="fil1" d="M241 332l-9 -2c1,-3 3,-6 5,-8 3,-1 6,-2 11,-2 5,0 8,0 10,1 2,1 4,3 4,4 1,2 2,5 2,9l0 11c0,4 0,6 0,8 0,1 1,3 2,4l-10 0c0,0 0,-1 -1,-2 0,-1 0,-1 0,-2 -2,2 -4,3 -6,4 -1,1 -3,1 -6,1 -3,0 -6,-1 -9,-3 -2,-2 -3,-4 -3,-8 0,-2 1,-3 2,-5 1,-2 2,-3 4,-4 2,-1 4,-1 8,-2 4,-1 7,-2 9,-2l0 -1c0,-2 0,-4 -1,-5 -1,0 -3,-1 -6,-1 -1,0 -3,1 -4,1 -1,1 -1,2 -2,4zm13 8c-1,0 -3,1 -6,1 -3,1 -4,1 -5,2 -1,1 -2,2 -2,3 0,2 0,3 1,4 2,1 3,1 4,1 2,0 4,0 5,-1 2,-1 2,-2 3,-3 0,-1 0,-3 0,-5l0 -2z"/>
   <path id="4" class="fil1" d="M290 321l0 7 -7 0 0 15c0,3 1,5 1,6 0,0 0,0 1,1 0,0 1,0 1,0 1,0 2,0 4,-1l1 8c-2,1 -5,1 -8,1 -2,0 -3,0 -5,-1 -1,0 -2,-1 -3,-2 0,-1 -1,-2 -1,-4 0,-1 0,-3 0,-7l0 -16 -5 0 0 -7 5 0 0 -8 9 -5 0 13 7 0z"/>
   <path id="5" class="fil1" d="M318 346l10 1c-1,4 -3,7 -6,9 -3,1 -6,2 -10,2 -6,0 -11,-2 -14,-6 -3,-3 -4,-8 -4,-13 0,-6 2,-11 5,-14 3,-3 7,-5 12,-5 5,0 10,2 13,5 3,4 5,9 5,17l-25 0c0,3 1,5 2,7 2,1 4,2 6,2 2,0 3,0 4,-1 1,-1 2,-2 2,-4zm1 -10c0,-3 -1,-5 -2,-7 -2,-1 -3,-2 -5,-2 -3,0 -4,1 -6,3 -1,1 -2,3 -2,6l15 0z"/>
   <path id="6" class="fil1" d="M399 357l-11 0 -4 -11 -20 0 -5 11 -11 0 20 -50 11 0 20 50zm-18 -20l-7 -19 -7 19 14 0z"/>
   <path id="7" class="fil1" d="M437 332l-10 1c0,-2 -1,-3 -2,-4 -1,-1 -2,-2 -4,-2 -3,0 -5,1 -6,3 -2,2 -2,4 -2,8 0,5 0,8 2,10 1,2 3,2 6,2 2,0 3,0 4,-1 2,-1 2,-3 3,-6l9 2c-1,4 -2,8 -5,10 -3,2 -7,3 -12,3 -5,0 -9,-1 -12,-5 -4,-3 -5,-8 -5,-14 0,-6 1,-11 5,-14 3,-4 7,-5 13,-5 4,0 8,1 10,3 3,2 5,5 6,9z"/>
   <path id="8" class="fil1" d="M477 332l-10 1c0,-2 -1,-3 -2,-4 -1,-1 -3,-2 -5,-2 -2,0 -4,1 -6,3 -1,2 -2,4 -2,8 0,5 1,8 2,10 2,2 4,2 6,2 2,0 4,0 5,-1 1,-1 2,-3 2,-6l10 2c-1,4 -3,8 -6,10 -3,2 -6,3 -11,3 -5,0 -10,-1 -13,-5 -3,-3 -5,-8 -5,-14 0,-6 2,-11 5,-14 3,-4 8,-5 13,-5 5,0 8,1 11,3 2,2 4,5 6,9z"/>
   <path id="9" class="fil1" d="M482 339c0,-4 0,-7 2,-10 2,-3 4,-5 7,-7 3,-1 6,-2 10,-2 5,0 10,2 13,5 4,4 6,8 6,14 0,6 -2,10 -6,14 -3,4 -8,5 -13,5 -4,0 -7,0 -10,-2 -3,-1 -5,-4 -7,-7 -2,-3 -2,-6 -2,-10zm10 0c0,4 1,7 2,8 2,2 4,3 7,3 2,0 4,-1 6,-3 2,-1 3,-4 3,-8 0,-4 -1,-6 -3,-8 -2,-2 -4,-3 -6,-3 -3,0 -5,1 -7,3 -1,2 -2,4 -2,8z"/>
   <path id="10" class="fil1" d="M552 357l0 -5c-2,2 -3,3 -6,5 -2,1 -4,1 -7,1 -2,0 -4,0 -6,-1 -2,-1 -4,-3 -5,-5 0,-2 -1,-5 -1,-8l0 -23 10 0 0 17c0,5 0,8 0,9 1,1 1,2 2,3 1,1 3,1 4,1 2,0 3,-1 5,-1 1,-1 2,-3 2,-4 1,-1 1,-5 1,-10l0 -15 10 0 0 36 -9 0z"/>
   <path id="11" class="fil1" d="M604 357l-10 0 0 -18c0,-4 0,-7 0,-8 -1,-1 -1,-2 -2,-3 -1,0 -2,-1 -4,-1 -1,0 -3,1 -4,2 -2,1 -2,2 -3,3 0,2 -1,5 -1,9l0 16 -9 0 0 -36 9 0 0 5c3,-4 7,-6 12,-6 2,0 4,0 6,1 2,1 3,2 4,3 1,1 1,2 2,4 0,2 0,4 0,7l0 22z"/>
   <path id="12" class="fil1" d="M631 321l0 7 -7 0 0 15c0,3 0,5 0,6 1,0 1,0 1,1 1,0 1,0 2,0 1,0 2,0 4,-1l1 8c-3,1 -5,1 -8,1 -2,0 -3,0 -5,-1 -1,0 -2,-1 -3,-2 0,-1 -1,-2 -1,-4 0,-1 0,-3 0,-7l0 -16 -5 0 0 -7 5 0 0 -8 9 -5 0 13 7 0z"/>
   <path class="fil2" d="M114 523l16 -42 6 0 17 42 -6 0 -5 -13 -18 0 -4 13 -6 0zm12 -17l14 0 -4 -12c-2,-3 -3,-6 -3,-9 -1,3 -2,6 -3,8l-4 13z"/>
   <path id="1" class="fil2" d="M177 512l5 1c0,3 -2,6 -4,8 -2,2 -5,3 -9,3 -4,0 -7,-1 -10,-4 -2,-3 -3,-7 -3,-12 0,-3 0,-6 1,-9 1,-2 3,-4 5,-5 2,-1 5,-2 7,-2 4,0 7,1 9,2 2,2 3,5 4,8l-5 0c-1,-2 -2,-3 -3,-4 -1,-1 -3,-2 -4,-2 -3,0 -5,1 -7,3 -1,2 -2,5 -2,9 0,4 1,7 2,9 2,2 4,3 6,3 2,0 4,-1 6,-2 1,-1 2,-3 2,-6z"/>
   <path id="2" class="fil2" d="M207 512l5 1c-1,3 -2,6 -4,8 -3,2 -6,3 -9,3 -4,0 -8,-1 -10,-4 -3,-3 -4,-7 -4,-12 0,-3 1,-6 2,-9 1,-2 3,-4 5,-5 2,-1 4,-2 7,-2 3,0 6,1 8,2 2,2 4,5 4,8l-5 0c0,-2 -1,-3 -2,-4 -1,-1 -3,-2 -5,-2 -2,0 -4,1 -6,3 -2,2 -3,5 -3,9 0,4 1,7 3,9 1,2 3,3 6,3 2,0 4,-1 5,-2 1,-1 2,-3 3,-6z"/>
   <path id="3" class="fil2" d="M214 508c0,-6 2,-10 5,-13 3,-2 6,-3 10,-3 4,0 7,1 10,4 3,3 4,7 4,11 0,4 -1,8 -2,10 -1,2 -3,4 -5,5 -2,1 -5,2 -7,2 -5,0 -8,-1 -11,-4 -2,-3 -4,-7 -4,-12zm6 0c0,4 0,7 2,9 2,2 4,3 7,3 2,0 4,-1 6,-3 2,-2 3,-5 3,-9 0,-4 -1,-7 -3,-9 -2,-2 -4,-3 -6,-3 -3,0 -5,1 -7,3 -2,2 -2,5 -2,9z"/>
   <path id="4" class="fil2" d="M269 523l0 -4c-2,3 -5,5 -9,5 -2,0 -4,0 -6,-1 -1,-1 -2,-2 -3,-3 -1,-1 -1,-2 -2,-4 0,-1 0,-2 0,-4l0 -19 5 0 0 17c0,2 0,4 1,5 0,1 1,2 2,3 1,1 2,1 4,1 1,0 3,0 4,-1 1,-1 2,-2 3,-3 0,-1 1,-3 1,-6l0 -16 5 0 0 30 -5 0z"/>
   <path id="5" class="fil2" d="M282 523l0 -30 5 0 0 4c2,-3 5,-5 10,-5 1,0 3,0 5,1 1,1 2,1 3,3 1,1 1,2 2,3 0,1 0,3 0,5l0 19 -5 0 0 -18c0,-2 0,-4 -1,-5 0,-1 -1,-2 -2,-3 -1,0 -2,-1 -4,-1 -2,0 -4,1 -5,3 -2,1 -3,4 -3,8l0 16 -5 0z"/>
   <path id="6" class="fil2" d="M326 519l1 4c-1,1 -3,1 -4,1 -2,0 -3,-1 -4,-1 -1,-1 -2,-2 -2,-3 -1,-1 -1,-3 -1,-6l0 -17 -4 0 0 -4 4 0 0 -8 5 -3 0 11 5 0 0 4 -5 0 0 18c0,1 0,2 0,2 1,1 1,1 1,1 1,1 1,1 2,1 1,0 1,0 2,0z"/>
   <polygon id="7" class="fil2" points="349,523 349,481 354,481 377,514 377,481 382,481 382,523 376,523 354,490 354,523 "/>
   <path id="8" class="fil2" d="M411 519c-2,2 -4,3 -6,4 -2,1 -4,1 -6,1 -3,0 -6,-1 -7,-3 -2,-1 -3,-3 -3,-6 0,-1 0,-3 1,-4 1,-1 2,-2 3,-3 1,-1 2,-1 3,-2 1,0 3,0 5,0 4,-1 7,-1 9,-2 0,-1 0,-1 0,-2 0,-2 0,-3 -1,-4 -1,-1 -3,-2 -6,-2 -3,0 -4,1 -6,2 -1,0 -2,2 -2,4l-5 -1c0,-2 1,-4 2,-5 1,-1 3,-2 5,-3 2,-1 4,-1 7,-1 2,0 4,0 6,1 2,0 3,1 4,2 0,1 1,2 1,4 1,1 1,2 1,5l0 6c0,5 0,8 0,10 0,1 1,2 1,3l-5 0c-1,-1 -1,-2 -1,-4zm-1 -11c-2,1 -4,1 -8,2 -2,0 -4,1 -5,1 -1,0 -1,1 -2,2 0,0 -1,1 -1,2 0,1 1,3 2,3 1,1 3,2 5,2 2,0 3,-1 5,-1 2,-1 3,-3 3,-4 1,-1 1,-3 1,-5l0 -2z"/>
   <path id="9" class="fil2" d="M424 523l0 -30 4 0 0 4c1,-2 3,-3 4,-4 2,-1 4,-1 6,-1 2,0 4,0 5,1 2,1 3,3 3,4 3,-3 6,-5 10,-5 3,0 5,1 7,2 1,2 2,5 2,8l0 21 -5 0 0 -19c0,-2 0,-4 0,-5 -1,0 -1,-1 -2,-2 -1,0 -2,-1 -3,-1 -3,0 -4,1 -6,3 -1,1 -2,3 -2,6l0 18 -5 0 0 -20c0,-2 -1,-4 -1,-5 -1,-1 -3,-2 -5,-2 -1,0 -2,1 -4,2 -1,0 -2,1 -2,3 -1,1 -1,4 -1,6l0 16 -5 0z"/>
   <path id="10" class="fil2" d="M494 513l5 1c-1,3 -2,6 -4,7 -3,2 -6,3 -9,3 -5,0 -8,-1 -11,-4 -2,-3 -4,-7 -4,-12 0,-5 2,-9 4,-12 3,-3 6,-4 11,-4 4,0 7,1 10,4 2,3 3,7 3,12 0,0 0,1 0,1l-22 0c0,4 1,6 2,8 2,2 4,3 7,3 2,0 3,-1 5,-2 1,-1 2,-2 3,-5zm-17 -8l17 0c0,-3 -1,-5 -2,-6 -2,-2 -4,-3 -6,-3 -3,0 -5,1 -6,3 -2,1 -3,3 -3,6z"/>
   <g>
    <path class="fil0" d="M129 1058l265 0c5,0 10,4 10,9l0 80c0,5 -5,9 -10,9l-265 0c-6,0 -11,-4 -11,-9l0 -80c0,-5 5,-9 11,-9z"/>
    <path class="fil3" d="M205 1114l5 -1c0,2 1,4 1,5 1,1 2,2 4,3 2,0 4,1 6,1 1,0 3,-1 5,-1 1,-1 2,-1 3,-2 0,-1 1,-2 1,-4 0,-1 -1,-2 -1,-2 -1,-1 -2,-2 -4,-3 -1,0 -3,-1 -6,-1 -3,-1 -6,-2 -7,-3 -2,-1 -3,-2 -4,-3 -1,-1 -1,-3 -1,-5 0,-2 0,-3 1,-5 1,-1 3,-3 5,-3 2,-1 4,-2 7,-2 2,0 5,1 7,2 2,0 3,2 4,3 2,2 2,4 2,6l-4 1c-1,-3 -1,-5 -3,-6 -1,-1 -3,-1 -6,-1 -3,0 -5,0 -7,1 -1,1 -2,3 -2,4 0,1 1,2 2,3 1,1 3,2 7,3 4,1 7,2 8,2 2,1 4,2 5,4 1,1 1,3 1,5 0,2 0,4 -1,6 -1,1 -3,3 -5,4 -2,1 -5,1 -7,1 -3,0 -6,0 -8,-1 -3,-1 -4,-3 -6,-5 -1,-2 -2,-4 -2,-6z"/>
    <path id="1" class="fil3" d="M258 1122c-2,1 -4,2 -5,3 -2,1 -3,1 -5,1 -3,0 -5,-1 -7,-2 -1,-2 -2,-3 -2,-6 0,-1 0,-2 1,-3 0,-1 1,-2 2,-3 1,0 2,-1 3,-1 1,0 2,-1 4,-1 4,0 7,-1 8,-1 0,-1 0,-1 0,-2 0,-1 0,-3 -1,-3 -1,-1 -3,-2 -5,-2 -2,0 -4,0 -5,1 -1,1 -2,2 -2,4l-4 0c0,-2 1,-4 2,-5 0,-1 2,-2 4,-3 1,0 3,-1 6,-1 2,0 4,1 5,1 1,1 3,1 3,2 1,1 1,2 2,3 0,1 0,2 0,4l0 6c0,4 0,7 0,8 0,1 1,2 1,3l-5 0c0,-1 0,-2 0,-3zm-1 -10c-1,1 -4,1 -7,2 -2,0 -3,0 -4,1 -1,0 -1,1 -2,1 0,1 0,1 0,2 0,1 0,2 1,3 1,1 2,1 4,1 2,0 3,0 5,-1 1,0 2,-1 3,-3 0,-1 0,-2 0,-4l0 -2z"/>
    <path id="2" class="fil3" d="M276 1125l-10 -26 5 0 5 16c1,1 2,3 2,5 0,-1 1,-3 2,-5l6 -16 4 0 -10 26 -4 0z"/>
    <path id="3" class="fil3" d="M312 1117l5 0c-1,3 -2,5 -4,7 -2,1 -5,2 -8,2 -4,0 -7,-1 -9,-4 -2,-2 -3,-5 -3,-10 0,-4 1,-8 3,-10 2,-2 5,-4 9,-4 4,0 6,2 9,4 2,2 3,6 3,10 0,0 0,1 0,1l-20 0c0,3 1,5 3,7 1,2 3,2 5,2 2,0 3,0 4,-1 2,-1 3,-2 3,-4zm-14 -7l14 0c0,-3 0,-4 -1,-5 -2,-2 -4,-3 -6,-3 -2,0 -4,1 -5,2 -2,1 -2,3 -2,6z"/>
    <g>
     <path class="fil1" d="M738 1060l-265 0 0 -3 265 0 0 0 0 3zm12 7l-3 0 0 0 0 0 0 0 0 -1 0 0 -1 0 0 -1 0 0 0 0 0 -1 0 0 -1 -1 0 0 0 0 0 0 -1 -1 0 0 0 0 -1 -1 0 0 0 0 -1 0 0 0 0 -1 -1 0 0 0 -1 0 0 0 0 0 -1 0 0 0 -1 0 0 0 0 -3 0 0 1 0 1 0 0 0 1 0 0 0 1 0 0 1 1 0 0 0 1 0 0 0 1 1 0 0 1 0 0 1 1 0 0 1 0 0 1 0 0 1 0 0 0 1 1 0 0 1 0 0 0 1 0 0 1 1 0 0 0 1 0 0 0 0zm-3 80l0 -80 3 0 0 80 0 0 -3 0zm-9 11l0 -3 0 0 0 0 1 0 0 0 1 -1 0 0 0 0 1 0 0 0 1 0 0 0 0 -1 1 0 0 0 0 0 1 0 0 -1 0 0 1 0 0 -1 0 0 0 0 1 -1 0 0 0 0 0 -1 0 0 0 0 1 -1 0 0 0 0 0 -1 0 0 3 0 0 0 0 1 0 0 -1 1 0 1 0 0 0 1 0 0 -1 1 0 0 0 0 0 1 -1 0 0 1 0 0 -1 0 0 1 -1 0 0 0 -1 1 0 0 -1 0 0 1 -1 0 0 0 -1 0 0 0 -1 0 0 0 -1 1 -1 0 0 0 0 0zm-265 -3l265 0 0 3 -265 0 0 0 0 -3zm-12 -8l3 0 0 0 0 0 0 1 0 0 0 0 0 1 0 0 0 0 0 1 1 0 0 0 0 1 0 0 0 0 1 1 0 0 0 0 1 1 0 0 0 0 1 0 0 0 0 1 1 0 0 0 1 0 0 0 0 0 1 0 0 1 1 0 0 0 1 0 0 3 -1 0 -1 0 0 -1 -1 0 0 0 -1 0 0 0 -1 0 0 0 -1 -1 0 0 -1 0 0 -1 -1 0 0 0 -1 -1 0 0 0 0 -1 -1 0 0 0 -1 -1 0 0 0 0 -1 -1 0 0 -1 0 0 0 -1 0 -1 0 0 0 -1 0 0 0 0zm3 -80l0 80 -3 0 0 -80 0 0 3 0zm9 -10l0 3 0 0 -1 0 0 0 -1 0 0 0 -1 0 0 0 0 0 -1 0 0 0 -1 1 0 0 0 0 -1 0 0 0 0 1 -1 0 0 0 0 1 -1 0 0 0 0 0 0 1 0 0 -1 1 0 0 0 0 0 1 0 0 0 0 0 1 0 0 0 0 -3 0 0 0 0 -1 0 0 0 -1 0 0 0 -1 0 0 1 -1 0 0 0 -1 1 0 0 -1 0 0 1 0 0 -1 0 0 1 -1 0 0 1 0 0 -1 1 0 0 0 1 0 0 0 1 -1 0 0 1 0 0 0 1 0 0 0 1 0 1 0 0 0z"/>
    </g>
    <path class="fil1" d="M556 1113l5 1c-1,4 -3,7 -5,9 -3,2 -6,3 -10,3 -4,0 -7,-1 -10,-2 -2,-2 -4,-4 -5,-7 -1,-3 -2,-7 -2,-10 0,-4 1,-7 2,-10 2,-3 4,-5 6,-7 3,-1 6,-2 9,-2 4,0 7,1 9,3 3,2 5,5 6,8l-5 1c-1,-3 -2,-5 -4,-6 -1,-1 -4,-2 -6,-2 -3,0 -5,1 -7,2 -2,2 -3,4 -4,6 -1,2 -1,4 -1,7 0,3 0,6 1,8 1,2 3,4 4,5 2,1 4,2 7,2 2,0 5,-1 7,-2 1,-2 3,-4 3,-7z"/>
    <path id="1" class="fil1" d="M584 1122c-2,1 -3,2 -5,3 -2,1 -3,1 -5,1 -3,0 -5,-1 -7,-2 -1,-2 -2,-3 -2,-6 0,-1 0,-2 1,-3 1,-1 1,-2 2,-3 1,0 2,-1 3,-1 1,0 3,-1 4,-1 4,0 7,-1 8,-1 0,-1 0,-1 0,-2 0,-1 0,-3 -1,-3 -1,-1 -3,-2 -5,-2 -2,0 -4,0 -5,1 -1,1 -1,2 -2,4l-4 0c0,-2 1,-4 2,-5 1,-1 2,-2 4,-3 1,0 3,-1 6,-1 2,0 4,1 5,1 2,1 3,1 3,2 1,1 2,2 2,3 0,1 0,2 0,4l0 6c0,4 0,7 0,8 0,1 1,2 1,3l-4 0c-1,-1 -1,-2 -1,-3zm-1 -10c-1,1 -4,1 -7,2 -2,0 -3,0 -4,1 -1,0 -1,1 -2,1 0,1 0,1 0,2 0,1 0,2 1,3 1,1 2,1 4,1 2,0 3,0 5,-1 1,0 2,-1 3,-3 0,-1 0,-2 0,-4l0 -2z"/>
    <path id="2" class="fil1" d="M595 1125l0 -26 4 0 0 4c2,-3 5,-5 8,-5 2,0 3,1 5,1 1,1 2,2 3,2 0,1 1,3 1,4 0,1 0,2 0,4l0 16 -4 0 0 -16c0,-2 0,-3 -1,-4 0,-1 -1,-1 -1,-2 -1,0 -2,-1 -4,-1 -2,0 -3,1 -5,2 -1,1 -2,4 -2,7l0 14 -4 0z"/>
    <path id="3" class="fil1" d="M641 1116l4 0c-1,3 -2,6 -4,7 -2,2 -4,3 -7,3 -4,0 -7,-1 -9,-4 -2,-2 -3,-5 -3,-10 0,-3 0,-5 1,-7 1,-2 3,-4 5,-5 2,-1 4,-2 6,-2 3,0 5,1 7,3 2,1 3,3 4,6l-5 0c0,-1 -1,-3 -2,-4 -1,-1 -2,-1 -4,-1 -2,0 -4,1 -5,2 -2,2 -2,5 -2,8 0,4 0,6 2,8 1,1 3,2 5,2 2,0 3,0 4,-1 1,-1 2,-3 3,-5z"/>
    <path id="4" class="fil1" d="M667 1117l4 0c0,3 -2,5 -4,7 -2,1 -4,2 -7,2 -4,0 -7,-1 -9,-4 -3,-2 -4,-5 -4,-10 0,-4 1,-8 4,-10 2,-2 5,-4 9,-4 3,0 6,2 8,4 2,2 4,6 4,10 0,0 0,1 0,1l-20 0c0,3 1,5 2,7 2,2 4,2 6,2 1,0 3,0 4,-1 1,-1 2,-2 3,-4zm-15 -7l15 0c0,-3 -1,-4 -2,-5 -1,-2 -3,-3 -5,-3 -2,0 -4,1 -6,2 -1,1 -2,3 -2,6z"/>
    <polygon id="5" class="fil1" points="677,1125 677,1089 681,1089 681,1125 "/>
   </g>
   <path class="fil2" d="M148 769l6 2c-1,4 -3,8 -6,10 -3,3 -7,4 -12,4 -4,0 -8,-1 -11,-3 -2,-2 -5,-5 -6,-8 -2,-4 -2,-7 -2,-11 0,-5 0,-9 2,-12 2,-3 4,-6 7,-7 3,-2 7,-3 11,-3 4,0 7,1 10,3 3,2 5,5 6,9l-5 2c-1,-3 -3,-6 -4,-7 -2,-1 -5,-2 -8,-2 -3,0 -5,1 -8,2 -2,2 -3,4 -4,6 -1,3 -2,6 -2,9 0,3 1,6 2,9 1,3 3,5 5,6 2,1 4,2 7,2 3,0 6,-1 8,-3 2,-1 4,-4 4,-8z"/>
   <path id="1" class="fil2" d="M158 769c0,-6 2,-10 5,-13 3,-2 6,-3 10,-3 4,0 7,1 10,4 3,3 4,6 4,11 0,4 0,7 -2,10 -1,2 -3,4 -5,5 -2,1 -5,2 -7,2 -5,0 -8,-2 -11,-4 -2,-3 -4,-7 -4,-12zm6 0c0,4 1,7 2,9 2,2 4,3 7,3 2,0 5,-1 6,-3 2,-2 3,-5 3,-9 0,-4 -1,-7 -3,-9 -2,-2 -4,-3 -6,-3 -3,0 -5,1 -7,3 -1,2 -2,5 -2,9z"/>
   <path id="2" class="fil2" d="M213 784l0 -4c-2,3 -5,5 -9,5 -2,0 -4,-1 -5,-1 -2,-1 -3,-2 -4,-3 -1,-1 -1,-2 -2,-4 0,-1 0,-2 0,-5l0 -19 5 0 0 17c0,3 0,5 1,6 0,1 1,2 2,3 1,1 2,1 4,1 1,0 3,0 4,-1 1,-1 2,-2 3,-3 0,-2 1,-4 1,-6l0 -17 5 0 0 31 -5 0z"/>
   <path id="3" class="fil2" d="M226 784l0 -31 5 0 0 5c2,-4 5,-5 10,-5 1,0 3,0 5,1 1,0 2,1 3,2 1,1 1,3 2,4 0,1 0,3 0,5l0 19 -5 0 0 -19c0,-2 0,-3 -1,-4 0,-1 -1,-2 -2,-3 -1,0 -2,-1 -3,-1 -3,0 -5,1 -6,2 -2,2 -3,4 -3,8l0 17 -5 0z"/>
   <path id="4" class="fil2" d="M270 779l1 5c-1,0 -3,1 -4,1 -2,0 -3,-1 -4,-1 -1,-1 -2,-2 -2,-3 -1,-1 -1,-3 -1,-6l0 -18 -4 0 0 -4 4 0 0 -7 5 -3 0 10 5 0 0 4 -5 0 0 18c0,2 0,3 0,3 1,1 1,1 1,1 1,1 1,1 2,1 1,0 1,0 2,-1z"/>
   <path id="5" class="fil2" d="M275 784l0 -31 5 0 0 5c1,-2 2,-4 3,-4 1,-1 3,-1 4,-1 2,0 3,0 5,1l-2 5c-1,-1 -2,-1 -3,-1 -2,0 -3,0 -4,1 0,1 -1,2 -1,3 -1,2 -1,4 -1,6l0 16 -6 0z"/>
   <path id="6" class="fil2" d="M295 796l-1 -5c2,0 3,1 3,1 2,0 3,-1 3,-1 1,0 1,-1 2,-2 0,0 1,-1 1,-4 1,0 1,0 1,-1l-12 -31 6 0 6 18c1,2 2,5 3,7 0,-2 1,-4 2,-7l6 -18 5 0 -11 32c-1,3 -2,5 -3,7 -1,1 -2,3 -3,3 -2,1 -3,2 -5,2 -1,0 -2,-1 -3,-1z"/>
   <path class="fil1" d="M1102 770l6 1c-2,5 -4,9 -7,11 -3,2 -7,4 -11,4 -4,0 -8,-1 -11,-3 -3,-2 -5,-5 -7,-8 -1,-4 -2,-8 -2,-12 0,-4 1,-8 3,-11 1,-4 4,-6 7,-8 3,-1 6,-2 10,-2 4,0 8,1 11,3 3,2 5,5 6,9l-6 1c-1,-3 -2,-5 -4,-6 -2,-2 -4,-2 -7,-2 -3,0 -6,0 -8,2 -2,1 -4,4 -5,6 -1,3 -1,6 -1,8 0,4 1,7 2,10 1,2 2,4 4,6 3,1 5,2 8,2 3,0 5,-1 8,-3 2,-2 3,-4 4,-8z"/>
   <path id="1" class="fil1" d="M1134 785l0 -5c-2,4 -6,5 -10,5 -2,0 -3,0 -5,-1 -1,0 -3,-1 -3,-2 -1,-1 -2,-2 -2,-4 0,-1 0,-3 0,-5l0 -19 5 0 0 17c0,3 0,5 0,6 1,1 1,2 2,3 1,1 3,1 4,1 2,0 3,0 5,-1 1,-1 2,-2 3,-3 0,-2 0,-4 0,-6l0 -17 6 0 0 31 -5 0z"/>
   <path id="2" class="fil1" d="M1147 785l0 -31 4 0 0 5c2,-2 3,-4 4,-4 1,-1 2,-2 3,-2 2,0 4,1 5,2l-1 5c-2,-1 -3,-1 -4,-1 -1,0 -2,0 -3,1 -1,1 -2,2 -2,3 -1,2 -1,4 -1,6l0 16 -5 0z"/>
   <path id="3" class="fil1" d="M1166 785l0 -31 5 0 0 5c1,-2 2,-4 3,-4 1,-1 3,-2 4,-2 2,0 3,1 5,2l-2 5c-1,-1 -2,-1 -3,-1 -2,0 -3,0 -4,1 0,1 -1,2 -1,3 -1,2 -1,4 -1,6l0 16 -6 0z"/>
   <path id="4" class="fil1" d="M1207 775l6 1c-1,3 -3,5 -5,7 -2,2 -5,2 -9,2 -4,0 -8,-1 -11,-4 -2,-2 -3,-6 -3,-11 0,-5 1,-9 4,-12 2,-3 6,-5 10,-5 4,0 7,2 10,5 2,2 4,6 4,11 0,1 0,1 0,2l-23 0c0,3 1,6 3,8 1,1 4,2 6,2 2,0 4,0 5,-1 1,-1 2,-3 3,-5zm-17 -8l17 0c0,-3 -1,-5 -2,-6 -1,-2 -4,-3 -6,-3 -3,0 -5,1 -6,2 -2,2 -3,4 -3,7z"/>
   <path id="5" class="fil1" d="M1219 785l0 -31 5 0 0 4c2,-3 5,-5 10,-5 1,0 3,1 5,1 1,1 2,2 3,3 1,1 2,2 2,4 0,1 0,3 0,5l0 19 -5 0 0 -19c0,-2 0,-4 -1,-5 0,-1 -1,-1 -2,-2 -1,-1 -2,-1 -3,-1 -3,0 -5,1 -6,2 -2,1 -3,4 -3,8l0 17 -5 0z"/>
   <path id="6" class="fil1" d="M1272 774l5 0c0,4 -2,7 -4,9 -2,2 -5,2 -8,2 -5,0 -8,-1 -11,-4 -2,-2 -3,-6 -3,-11 0,-4 0,-7 1,-9 1,-3 3,-4 5,-6 2,-1 5,-2 8,-2 3,0 6,1 8,3 2,2 3,4 4,7l-5 1c-1,-2 -2,-4 -3,-5 -1,-1 -3,-1 -4,-1 -3,0 -5,1 -7,3 -1,1 -2,4 -2,8 0,5 1,8 2,9 2,2 4,3 6,3 2,0 4,0 6,-2 1,-1 2,-3 2,-5z"/>
   <path id="7" class="fil1" d="M1281 797l0 -5c1,0 2,0 3,0 1,0 2,0 3,0 0,-1 1,-1 1,-2 1,0 1,-2 2,-4 0,0 0,-1 0,-1l-11 -31 5 0 7 18c1,2 1,4 2,7 1,-2 1,-5 2,-7l7 -18 5 0 -12 31c-1,4 -2,6 -3,7 -1,2 -2,3 -3,4 -1,1 -3,1 -4,1 -1,0 -2,0 -4,0z"/>
   <g>
    <path class="fil1" d="M1562 817l-479 0 0 -3 479 0 0 0 0 3zm15 12l-3 0 0 0 0 -1 0 -1 -1 0 0 -1 0 0 0 -1 0 0 0 -1 -1 0 0 -1 0 0 0 -1 -1 0 0 -1 0 0 -1 0 0 -1 -1 0 0 -1 -1 0 0 0 0 0 -1 -1 0 0 -1 0 -1 0 0 -1 -1 0 0 0 -1 0 0 0 -1 0 0 -3 1 0 1 0 0 0 1 0 1 1 0 0 1 0 1 0 0 1 1 0 1 0 0 1 1 0 0 0 1 1 0 0 1 1 0 0 1 1 0 1 0 0 1 1 0 0 0 1 1 1 0 0 0 1 0 1 0 0 0 1 1 1 0 1 0 0zm-3 93l0 -93 3 0 0 93 0 0 -3 0zm-12 14l0 -3 0 0 1 0 0 0 1 0 0 0 1 0 0 0 1 0 1 -1 0 0 1 0 0 0 1 -1 0 0 0 0 1 -1 0 0 1 0 0 -1 0 0 1 -1 0 0 0 -1 0 0 1 -1 0 0 0 -1 0 0 0 -1 0 0 1 -1 0 -1 0 0 3 0 0 1 -1 0 0 1 0 1 0 0 0 1 0 1 -1 0 0 1 0 1 -1 0 0 1 0 1 -1 0 0 1 -1 0 0 1 -1 0 0 0 -1 1 0 0 -1 1 -1 0 0 0 -1 0 -1 1 0 0 -1 0 -1 0 0 0 -1 0 -1 0 0 0zm-479 -3l479 0 0 3 -479 0 0 0 0 -3zm-14 -11l3 0 0 0 0 0 0 1 0 1 0 0 0 1 0 0 0 1 1 0 0 1 0 0 0 1 1 0 0 1 0 0 1 1 0 0 0 0 1 1 0 0 1 0 0 1 1 0 0 0 1 0 0 1 1 0 0 0 1 0 0 0 1 0 1 0 0 0 0 3 -1 0 0 0 -1 0 -1 0 0 0 -1 0 -1 -1 0 0 -1 0 -1 0 0 -1 -1 0 0 -1 -1 0 -1 0 0 -1 -1 0 0 -1 0 0 -1 -1 0 -1 -1 0 0 -1 0 -1 0 0 -1 -1 0 -1 0 0 0 -1 0 -1 0 0 0 -1 0 0zm3 -93l0 93 -3 0 0 -93 0 0 3 0zm11 -15l0 3 0 0 0 0 -1 0 -1 0 0 0 -1 0 0 1 -1 0 0 0 -1 0 0 1 -1 0 0 0 -1 0 0 1 -1 0 0 1 0 0 -1 0 0 1 0 0 -1 1 0 0 0 1 0 0 -1 1 0 0 0 1 0 0 0 1 0 0 0 1 0 1 -3 0 0 -1 0 -1 0 -1 0 0 0 -1 0 -1 1 0 0 -1 0 -1 0 0 1 -1 0 0 1 -1 0 -1 0 0 1 -1 0 0 1 -1 1 0 0 0 1 -1 0 0 1 0 1 -1 0 0 1 0 1 0 0 -1 1 0 1 0 0 0 1 0 0 0z"/>
   </g>
   <rect class="fil4 str0" x="118" y="816" width="898" height="119" rx="24" ry="13"/>
   <path class="fil2" d="M172 858l4 0 0 20c0,3 0,6 -1,8 -1,2 -2,4 -4,5 -2,1 -5,2 -8,2 -3,0 -6,-1 -8,-2 -2,-1 -3,-3 -4,-5 -1,-2 -1,-5 -1,-8l0 -20 4 0 0 20c0,3 0,5 1,6 1,2 1,3 3,4 1,0 3,1 5,1 3,0 5,-1 7,-2 1,-2 2,-5 2,-9l0 -20z"/>
   <path id="1" class="fil2" d="M183 892l0 -24 4 0 0 3c2,-3 4,-4 8,-4 1,0 3,0 4,1 1,0 2,1 3,2 0,1 1,2 1,3 0,1 0,2 0,4l0 15 -4 0 0 -15c0,-1 0,-3 0,-4 -1,0 -1,-1 -2,-2 -1,0 -2,0 -3,0 -2,0 -3,0 -5,1 -1,2 -2,4 -2,7l0 13 -4 0z"/>
   <path id="2" class="fil2" d="M210 863l0 -5 4 0 0 5 -4 0zm0 29l0 -24 4 0 0 24 -4 0z"/>
   <path id="3" class="fil2" d="M229 888l1 4c-1,0 -3,1 -3,1 -2,0 -3,-1 -4,-1 -1,-1 -1,-1 -2,-2 0,-1 0,-2 0,-5l0 -14 -3 0 0 -3 3 0 0 -6 4 -3 0 9 4 0 0 3 -4 0 0 14c0,1 0,2 0,3 0,0 1,0 1,0 0,1 1,1 1,1 1,0 1,0 2,-1z"/>
   <path id="4" class="fil2" d="M250 884l4 1c0,2 -2,4 -3,6 -2,1 -5,2 -7,2 -4,0 -7,-1 -9,-4 -2,-2 -3,-5 -3,-9 0,-4 1,-7 3,-9 2,-3 5,-4 8,-4 4,0 6,1 8,3 2,3 3,6 3,10 0,0 0,0 0,1l-18 0c0,3 1,5 2,6 2,2 4,2 6,2 1,0 2,0 3,-1 2,-1 2,-2 3,-4zm-14 -6l14 0c0,-3 -1,-4 -2,-5 -1,-2 -3,-2 -5,-2 -2,0 -3,0 -4,1 -2,2 -2,3 -3,6z"/>
   <path id="5" class="fil2" d="M275 892l0 -3c-1,3 -3,4 -6,4 -2,0 -4,-1 -6,-2 -1,-1 -3,-2 -4,-4 -1,-2 -1,-5 -1,-7 0,-3 0,-5 1,-7 1,-2 2,-3 4,-4 2,-1 3,-2 5,-2 2,0 3,0 4,1 2,1 2,1 3,2l0 -12 4 0 0 34 -4 0zm-13 -12c0,3 1,5 2,7 2,2 3,2 5,2 2,0 3,0 5,-2 1,-1 2,-4 2,-7 0,-3 -1,-6 -2,-7 -2,-2 -3,-2 -5,-2 -2,0 -4,0 -5,2 -1,1 -2,4 -2,7z"/>
   <path id="6" class="fil2" d="M298 881l4 0c1,2 1,3 2,4 0,1 2,2 3,3 2,0 3,1 5,1 2,0 4,0 5,-1 1,0 2,-1 3,-2 0,-1 1,-2 1,-3 0,-1 -1,-2 -1,-3 -1,-1 -2,-1 -3,-2 -1,0 -3,-1 -6,-1 -3,-1 -6,-2 -7,-3 -1,0 -3,-1 -3,-3 -1,-1 -2,-2 -2,-4 0,-2 1,-3 2,-5 1,-1 2,-2 4,-3 2,-1 4,-1 6,-1 3,0 5,0 7,1 2,1 3,2 4,4 1,1 2,3 2,5l-4 0c0,-2 -1,-4 -3,-5 -1,-1 -3,-1 -5,-1 -3,0 -5,0 -6,1 -2,1 -2,2 -2,4 0,1 0,2 1,3 1,1 3,1 7,2 3,1 6,2 7,2 2,1 4,2 5,4 1,1 1,3 1,5 0,1 0,3 -1,5 -1,1 -3,3 -5,3 -2,1 -4,2 -6,2 -3,0 -6,-1 -8,-2 -2,0 -4,-2 -5,-4 -1,-1 -2,-3 -2,-6z"/>
   <path id="7" class="fil2" d="M340 888l0 4c-1,0 -2,1 -3,1 -1,0 -3,-1 -3,-1 -1,-1 -2,-1 -2,-2 0,-1 -1,-2 -1,-5l0 -14 -3 0 0 -3 3 0 0 -6 5 -3 0 9 4 0 0 3 -4 0 0 14c0,1 0,2 0,3 0,0 0,0 0,0 1,1 1,1 2,1 0,0 1,0 2,-1z"/>
   <path id="8" class="fil2" d="M360 889c-2,1 -3,2 -5,3 -1,0 -3,1 -4,1 -3,0 -5,-1 -6,-2 -2,-2 -3,-3 -3,-5 0,-1 1,-3 1,-4 1,-1 2,-1 2,-2 1,-1 2,-1 3,-1 1,-1 2,-1 4,-1 3,0 6,-1 8,-1 0,-1 0,-1 0,-1 0,-2 -1,-3 -2,-4 -1,-1 -2,-1 -4,-1 -2,0 -4,0 -5,1 -1,0 -1,1 -2,3l-4 0c1,-2 1,-3 2,-5 1,-1 2,-1 4,-2 1,-1 3,-1 5,-1 2,0 4,0 5,1 2,0 3,1 3,2 1,0 1,1 2,3 0,0 0,2 0,3l0 6c0,4 0,6 0,7 0,1 1,2 1,3l-4 0c-1,-1 -1,-2 -1,-3zm0 -9c-2,1 -4,1 -7,1 -2,1 -3,1 -4,1 -1,1 -1,1 -2,2 0,0 0,1 0,2 0,1 0,2 1,2 1,1 2,1 4,1 1,0 3,0 4,-1 1,0 2,-1 3,-2 0,-1 1,-3 1,-5l0 -1z"/>
   <path id="9" class="fil2" d="M379 888l1 4c-1,0 -2,1 -3,1 -2,0 -3,-1 -4,-1 -1,-1 -1,-1 -2,-2 0,-1 0,-2 0,-5l0 -14 -3 0 0 -3 3 0 0 -6 4 -3 0 9 4 0 0 3 -4 0 0 14c0,1 0,2 0,3 0,0 1,0 1,0 0,1 1,1 1,1 1,0 1,0 2,-1z"/>
   <path id="10" class="fil2" d="M400 884l4 1c0,2 -1,4 -3,6 -2,1 -4,2 -7,2 -4,0 -7,-1 -9,-4 -2,-2 -3,-5 -3,-9 0,-4 1,-7 3,-9 2,-3 5,-4 8,-4 4,0 6,1 8,3 3,3 4,6 4,10 0,0 0,0 0,1l-19 0c0,3 1,5 3,6 1,2 3,2 5,2 1,0 2,0 4,-1 1,-1 1,-2 2,-4zm-14 -6l14 0c0,-3 -1,-4 -1,-5 -2,-2 -3,-2 -6,-2 -1,0 -3,0 -4,1 -2,2 -2,3 -3,6z"/>
   <path id="11" class="fil2" d="M408 885l4 -1c0,2 1,3 2,4 1,1 3,1 5,1 1,0 3,0 4,-1 1,-1 1,-2 1,-3 0,-1 0,-1 -1,-2 -1,0 -2,-1 -4,-1 -3,-1 -5,-2 -7,-2 -1,-1 -2,-2 -2,-3 -1,-1 -1,-2 -1,-3 0,-1 0,-2 0,-3 1,-1 2,-2 3,-2 0,-1 1,-1 2,-1 1,-1 2,-1 4,-1 2,0 3,0 5,1 1,0 2,1 3,2 1,1 1,2 2,4l-5 1c0,-2 0,-3 -1,-3 -1,-1 -2,-1 -4,-1 -2,0 -3,0 -4,0 -1,1 -1,2 -1,3 0,0 0,1 0,1 1,1 1,1 2,1 0,0 2,1 4,1 2,1 5,2 6,2 1,1 2,1 2,2 1,1 1,3 1,4 0,1 0,3 -1,4 -1,1 -2,2 -3,3 -2,0 -4,1 -5,1 -4,0 -6,-1 -8,-2 -1,-2 -3,-4 -3,-6z"/>
   <path id="12" class="fil2" d="M445 880c0,-5 1,-8 4,-10 2,-2 4,-3 7,-3 4,0 7,1 9,3 2,3 3,6 3,10 0,3 0,5 -1,7 -1,2 -3,3 -5,4 -1,1 -3,2 -6,2 -3,0 -6,-1 -8,-4 -2,-2 -3,-5 -3,-9zm4 0c0,3 1,5 2,7 2,2 3,2 5,2 3,0 4,0 6,-2 1,-2 2,-4 2,-7 0,-3 -1,-6 -2,-7 -2,-2 -3,-2 -6,-2 -2,0 -3,0 -5,2 -1,1 -2,4 -2,7z"/>
   <path id="13" class="fil2" d="M474 892l0 -21 -4 0 0 -3 4 0 0 -3c0,-2 0,-3 0,-4 1,-1 1,-2 2,-2 1,-1 3,-1 5,-1 1,0 2,0 4,0l-1 4c-1,0 -2,0 -3,0 -1,0 -2,0 -2,0 -1,1 -1,2 -1,3l0 3 5 0 0 3 -5 0 0 21 -4 0z"/>
   <path id="14" class="fil2" d="M493 892l13 -34 5 0 14 34 -5 0 -4 -10 -14 0 -4 10 -5 0zm10 -14l12 0 -4 -9c-1,-3 -2,-5 -2,-7 -1,2 -1,4 -2,6l-4 10z"/>
   <path id="15" class="fil2" d="M528 892l0 -24 4 0 0 3c1,-1 2,-2 3,-3 1,-1 3,-1 4,-1 2,0 4,0 5,1 1,1 2,2 2,3 2,-2 5,-4 8,-4 2,0 4,1 6,2 1,1 2,4 2,6l0 17 -5 0 0 -15c0,-2 0,-3 0,-4 0,-1 -1,-1 -2,-2 0,0 -1,0 -2,0 -2,0 -3,0 -4,1 -2,2 -2,3 -2,6l0 14 -4 0 0 -16c0,-2 -1,-3 -1,-4 -1,-1 -2,-1 -4,-1 -1,0 -2,0 -3,1 -1,0 -2,1 -2,2 0,2 -1,3 -1,5l0 13 -4 0z"/>
   <path id="16" class="fil2" d="M584 884l5 1c-1,2 -2,4 -4,6 -2,1 -4,2 -7,2 -4,0 -6,-1 -9,-4 -2,-2 -3,-5 -3,-9 0,-4 1,-7 3,-9 3,-3 5,-4 9,-4 3,0 6,1 8,3 2,3 3,6 3,10 0,0 0,0 0,1l-18 0c0,3 0,5 2,6 1,2 3,2 5,2 1,0 3,0 4,-1 1,-1 2,-2 2,-4zm-13 -6l13 0c0,-3 0,-4 -1,-5 -1,-2 -3,-2 -5,-2 -2,0 -4,0 -5,1 -1,2 -2,3 -2,6z"/>
   <path id="17" class="fil2" d="M594 892l0 -24 4 0 0 3c1,-1 2,-3 2,-3 1,-1 2,-1 3,-1 1,0 3,1 4,1l-1 4c-1,0 -2,-1 -3,-1 -1,0 -2,1 -3,1 0,1 -1,2 -1,3 -1,1 -1,3 -1,4l0 13 -4 0z"/>
   <path id="18" class="fil2" d="M610 863l0 -5 4 0 0 5 -4 0zm0 29l0 -24 4 0 0 24 -4 0z"/>
   <path id="19" class="fil2" d="M636 883l4 1c0,3 -1,5 -3,6 -2,2 -4,3 -7,3 -3,0 -6,-1 -8,-4 -2,-2 -3,-5 -3,-9 0,-3 0,-5 1,-7 1,-2 3,-3 4,-4 2,-1 4,-2 6,-2 3,0 5,1 7,2 1,1 3,3 3,6l-4 0c0,-1 -1,-2 -2,-3 -1,-1 -2,-1 -4,-1 -2,0 -3,0 -5,2 -1,1 -2,4 -2,7 0,3 1,6 2,7 1,2 3,2 5,2 2,0 3,0 4,-1 1,-1 2,-3 2,-5z"/>
   <path id="20" class="fil2" d="M660 889c-2,1 -3,2 -4,3 -2,0 -3,1 -5,1 -3,0 -5,-1 -6,-2 -2,-2 -2,-3 -2,-5 0,-1 0,-3 0,-4 1,-1 2,-1 3,-2 0,-1 1,-1 3,-1 0,-1 2,-1 3,-1 4,0 6,-1 8,-1 0,-1 0,-1 0,-1 0,-2 -1,-3 -2,-4 -1,-1 -2,-1 -4,-1 -2,0 -4,0 -5,1 -1,0 -1,1 -2,3l-4 0c1,-2 1,-3 2,-5 1,-1 2,-1 4,-2 1,-1 3,-1 5,-1 2,0 4,0 5,1 2,0 3,1 3,2 1,0 1,1 2,3 0,0 0,2 0,3l0 6c0,4 0,6 0,7 0,1 1,2 1,3l-4 0c-1,-1 -1,-2 -1,-3zm0 -9c-2,1 -4,1 -7,1 -2,1 -3,1 -4,1 -1,1 -1,1 -1,2 -1,0 -1,1 -1,2 0,1 0,2 1,2 1,1 2,1 4,1 2,0 3,0 4,-1 1,0 2,-1 3,-2 0,-1 1,-3 1,-5l0 -1z"/>
   <path class="fil1" d="M1094 858l7 0 0 19c0,3 0,4 0,5 0,2 1,3 2,4 1,1 2,1 4,1 2,0 4,0 5,-1 1,-1 1,-2 1,-3 1,-1 1,-3 1,-6l0 -19 7 0 0 18c0,4 -1,7 -1,9 0,1 -1,3 -2,4 -1,1 -2,2 -4,3 -2,0 -4,1 -6,1 -4,0 -6,-1 -8,-1 -1,-1 -3,-2 -4,-3 -1,-1 -1,-3 -2,-4 0,-2 0,-5 0,-9l0 -18z"/>
   <path id="1" class="fil1" d="M1126 881l7 0c0,2 1,3 2,4 1,2 3,2 5,2 2,0 4,0 5,-1 1,-1 2,-2 2,-4 0,0 0,-1 -1,-2 0,0 -1,-1 -2,-1 -1,0 -3,-1 -6,-2 -3,-1 -6,-2 -8,-3 -2,-2 -3,-4 -3,-7 0,-2 1,-3 2,-5 1,-1 2,-2 4,-3 2,-1 4,-1 7,-1 4,0 7,1 9,2 2,2 4,5 4,8l-7 0c0,-1 -1,-3 -2,-3 -1,-1 -2,-2 -4,-2 -2,0 -4,1 -5,2 -1,0 -1,1 -1,2 0,1 0,1 1,2 1,0 3,1 6,2 4,1 6,2 8,2 1,1 2,2 3,4 1,1 2,3 2,5 0,2 -1,4 -2,6 -1,1 -3,3 -5,4 -1,0 -4,1 -7,1 -4,0 -7,-1 -10,-3 -2,-2 -3,-5 -4,-9z"/>
   <path id="2" class="fil1" d="M1160 858l12 0c3,0 5,1 6,1 2,1 4,2 6,3 1,2 2,3 3,6 1,2 1,4 1,8 0,2 0,5 -1,7 -1,2 -2,4 -4,6 -1,1 -3,2 -5,2 -1,1 -3,1 -6,1l-12 0 0 -34zm6 6l0 22 5 0c2,0 4,0 5,0 1,0 2,-1 2,-1 1,-1 2,-2 2,-4 1,-1 1,-3 1,-6 0,-2 0,-4 -1,-6 0,-1 -1,-2 -2,-3 -1,-1 -2,-1 -3,-2 -1,0 -3,0 -6,0l-3 0z"/>
   <rect class="fil4 str0" x="114" y="563" width="898" height="119" rx="24" ry="13"/>
   <path class="fil2" d="M165 626l0 -4 15 0 0 13c-2,2 -5,3 -7,4 -2,1 -5,1 -7,1 -4,0 -7,-1 -9,-2 -3,-1 -5,-4 -7,-6 -1,-3 -2,-6 -2,-9 0,-4 1,-7 2,-10 2,-2 4,-4 6,-6 3,-1 6,-2 9,-2 3,0 5,0 7,1 2,1 4,2 5,4 1,1 2,3 2,5l-4 1c0,-2 -1,-3 -2,-4 0,-1 -2,-2 -3,-2 -1,-1 -3,-1 -5,-1 -2,0 -3,0 -5,1 -1,0 -3,1 -4,2 0,1 -1,2 -2,4 -1,2 -1,4 -1,6 0,4 1,6 2,8 1,2 2,4 4,5 2,1 4,1 6,1 2,0 4,0 6,-1 2,-1 3,-2 4,-2l0 -7 -10 0z"/>
   <path id="1" class="fil2" d="M203 632l4 0c-1,3 -2,5 -4,6 -2,1 -4,2 -7,2 -3,0 -6,-1 -8,-3 -2,-2 -4,-6 -4,-10 0,-4 2,-7 4,-9 2,-2 5,-4 8,-4 3,0 6,2 8,4 2,2 3,5 3,9 0,0 0,1 0,1l-18 0c0,3 1,5 2,6 1,2 3,3 5,3 2,0 3,-1 4,-2 1,0 2,-2 3,-3zm-14 -7l14 0c-1,-2 -1,-4 -2,-5 -1,-1 -3,-2 -5,-2 -2,0 -4,0 -5,2 -1,1 -2,3 -2,5z"/>
   <path id="2" class="fil2" d="M211 627c0,-4 1,-8 3,-10 3,-2 5,-3 8,-3 4,0 6,2 8,4 3,2 4,5 4,9 0,3 -1,6 -2,7 -1,2 -2,4 -4,5 -2,1 -4,1 -6,1 -3,0 -6,-1 -8,-3 -2,-2 -3,-6 -3,-10zm4 0c0,3 1,6 2,7 1,2 3,3 5,3 2,0 4,-1 5,-3 2,-1 2,-4 2,-7 0,-3 0,-5 -2,-7 -1,-1 -3,-2 -5,-2 -2,0 -4,1 -5,2 -1,2 -2,4 -2,7z"/>
   <path id="3" class="fil2" d="M239 640l0 -25 3 0 0 4c1,-2 2,-3 3,-4 1,0 2,-1 3,-1 1,0 2,1 4,2l-2 4c-1,-1 -2,-1 -3,-1 -1,0 -1,0 -2,1 -1,0 -1,1 -2,2 0,1 0,3 0,5l0 13 -4 0z"/>
   <path id="4" class="fil2" d="M254 642l4 0c0,1 0,2 1,3 1,1 2,1 4,1 2,0 4,0 5,-1 1,-1 1,-2 2,-3 0,-1 0,-3 0,-6 -2,2 -4,4 -7,4 -3,0 -6,-2 -8,-4 -1,-3 -2,-5 -2,-9 0,-2 0,-4 1,-6 1,-2 2,-4 4,-5 1,-1 3,-2 5,-2 3,0 6,2 8,4l0 -3 3 0 0 21c0,4 0,7 -1,8 -1,2 -2,3 -4,4 -1,1 -3,1 -6,1 -3,0 -5,0 -7,-1 -2,-2 -3,-4 -2,-6zm3 -15c0,3 1,5 2,7 1,1 3,2 5,2 2,0 3,-1 5,-2 1,-2 1,-4 1,-7 0,-3 0,-5 -2,-7 -1,-1 -2,-2 -4,-2 -2,0 -4,1 -5,2 -1,2 -2,4 -2,7z"/>
   <path id="5" class="fil2" d="M297 632l5 0c-1,3 -2,5 -4,6 -2,1 -4,2 -7,2 -4,0 -6,-1 -9,-3 -2,-2 -3,-6 -3,-10 0,-4 1,-7 3,-9 3,-2 5,-4 9,-4 3,0 6,2 8,4 2,2 3,5 3,9 0,0 0,1 0,1l-18 0c0,3 0,5 2,6 1,2 3,3 5,3 1,0 3,-1 4,-2 1,0 2,-2 2,-3zm-13 -7l13 0c0,-2 0,-4 -1,-5 -1,-1 -3,-2 -5,-2 -2,0 -4,0 -5,2 -1,1 -2,3 -2,5z"/>
   <path id="6" class="fil2" d="M319 623c0,-6 2,-10 5,-13 3,-3 7,-5 12,-5 3,0 6,1 8,2 3,2 4,4 6,7 1,2 2,5 2,9 0,3 -1,6 -2,9 -2,3 -4,5 -6,6 -3,1 -6,2 -8,2 -4,0 -7,-1 -9,-2 -3,-2 -4,-4 -6,-7 -1,-2 -2,-5 -2,-8zm5 0c0,4 1,7 3,10 2,2 5,3 9,3 3,0 6,-1 8,-3 2,-3 3,-6 3,-10 0,-3 0,-6 -1,-8 -1,-2 -3,-3 -4,-4 -2,-2 -4,-2 -6,-2 -4,0 -6,1 -9,3 -2,2 -3,6 -3,11z"/>
   <path id="7" class="fil2" d="M357 640l0 -25 4 0 0 4c1,-2 2,-3 2,-4 1,0 2,-1 3,-1 1,0 3,1 4,2l-1 4c-1,-1 -2,-1 -3,-1 -1,0 -2,0 -3,1 0,0 -1,1 -1,2 -1,1 -1,3 -1,5l0 13 -4 0z"/>
   <path id="8" class="fil2" d="M377 640l-7 -25 4 0 4 14 1 5c0,0 1,-2 2,-5l4 -14 4 0 4 14 1 5 1 -5 4 -14 4 0 -7 25 -5 0 -3 -15 -1 -4 -5 19 -5 0z"/>
   <path id="9" class="fil2" d="M424 632l4 0c-1,3 -2,5 -4,6 -2,1 -4,2 -7,2 -3,0 -6,-1 -8,-3 -2,-2 -3,-6 -3,-10 0,-4 1,-7 3,-9 2,-2 5,-4 8,-4 3,0 6,2 8,4 2,2 3,5 3,9 0,0 0,1 0,1l-18 0c0,3 1,5 2,6 2,2 3,3 5,3 2,0 3,-1 4,-2 1,0 2,-2 3,-3zm-14 -7l14 0c0,-2 -1,-4 -2,-5 -1,-1 -3,-2 -5,-2 -2,0 -3,0 -5,2 -1,1 -2,3 -2,5z"/>
   <polygon id="10" class="fil2" points="433,640 433,606 437,606 437,640 "/>
   <polygon id="11" class="fil2" points="444,640 444,606 448,606 448,640 "/>
   <line class="fil4 str1" x1="107" y1="423" x2="1575" y2= "423" />
  </g>
  <g>
   <circle class="fil0" cx="1700" cy="206" r="206"/>
   <path class="fil3" d="M1690 114l0 21c-25,5 -38,21 -38,41 0,21 16,33 40,41 17,6 24,11 24,20 0,9 -9,14 -22,14 -15,0 -28,-5 -37,-10l-7 26c9,5 23,9 38,10l0 22 23 0 0 -24c25,-5 40,-22 40,-41 0,-21 -11,-33 -37,-43 -20,-6 -28,-11 -28,-19 0,-6 5,-13 20,-13 17,0 26,5 32,8l7 -26c-8,-4 -18,-7 -32,-8l0 -19 -23 0z"/>
  </g>
 </g>
</svg>
