<svg width="357" height="357" viewBox="0 0 357 357" fill="none" xmlns="http://www.w3.org/2000/svg">
<g filter="url(#filter0_d_379_381)">
<rect width="350" height="350" rx="25" fill="white" shape-rendering="crispEdges"/>
<rect x="1.5" y="1.5" width="347" height="347" rx="23.5" stroke="#212528" stroke-width="3" shape-rendering="crispEdges"/>
<path d="M121.994 102.428C121.994 104.309 121.642 105.919 120.937 107.26C120.238 108.596 119.284 109.618 118.074 110.329C116.869 111.039 115.502 111.394 113.974 111.394C112.446 111.394 111.076 111.039 109.866 110.329C108.662 109.613 107.707 108.587 107.002 107.252C106.304 105.911 105.954 104.303 105.954 102.428C105.954 100.547 106.304 98.9394 107.002 97.6041C107.707 96.2632 108.662 95.2377 109.866 94.5274C111.076 93.8172 112.446 93.4621 113.974 93.4621C115.502 93.4621 116.869 93.8172 118.074 94.5274C119.284 95.2377 120.238 96.2632 120.937 97.6041C121.642 98.9394 121.994 100.547 121.994 102.428ZM118.815 102.428C118.815 101.104 118.608 99.9877 118.193 99.0786C117.784 98.1638 117.216 97.4735 116.488 97.0075C115.761 96.536 114.923 96.3002 113.974 96.3002C113.025 96.3002 112.187 96.536 111.46 97.0075C110.733 97.4735 110.162 98.1638 109.747 99.0786C109.338 99.9877 109.133 101.104 109.133 102.428C109.133 103.752 109.338 104.871 109.747 105.786C110.162 106.695 110.733 107.385 111.46 107.857C112.187 108.323 113.025 108.556 113.974 108.556C114.923 108.556 115.761 108.323 116.488 107.857C117.216 107.385 117.784 106.695 118.193 105.786C118.608 104.871 118.815 103.752 118.815 102.428ZM131.384 98.0644V100.451H123.858V98.0644H131.384ZM125.716 94.928H128.801V107.218C128.801 107.633 128.864 107.951 128.989 108.172C129.12 108.388 129.29 108.536 129.5 108.616C129.711 108.695 129.944 108.735 130.199 108.735C130.392 108.735 130.569 108.721 130.728 108.692C130.892 108.664 131.017 108.638 131.103 108.616L131.623 111.027C131.458 111.084 131.222 111.147 130.915 111.215C130.614 111.283 130.245 111.323 129.807 111.334C129.034 111.357 128.338 111.241 127.719 110.985C127.1 110.723 126.608 110.32 126.245 109.775C125.887 109.229 125.711 108.547 125.716 107.729V94.928ZM137.331 103.485V111.155H134.245V93.7007H137.262V100.289H137.416C137.723 99.5502 138.197 98.9678 138.839 98.5416C139.487 98.1098 140.311 97.8939 141.311 97.8939C142.22 97.8939 143.012 98.0843 143.689 98.4649C144.365 98.8456 144.887 99.4024 145.257 100.135C145.632 100.868 145.819 101.763 145.819 102.82V111.155H142.734V103.297C142.734 102.417 142.507 101.732 142.052 101.243C141.603 100.749 140.973 100.502 140.16 100.502C139.615 100.502 139.126 100.621 138.694 100.86C138.268 101.093 137.933 101.431 137.689 101.874C137.45 102.317 137.331 102.854 137.331 103.485ZM154.76 111.411C153.447 111.411 152.314 111.138 151.359 110.593C150.41 110.042 149.68 109.263 149.169 108.258C148.657 107.246 148.402 106.056 148.402 104.687C148.402 103.34 148.657 102.158 149.169 101.141C149.686 100.118 150.407 99.3229 151.333 98.7547C152.26 98.1808 153.348 97.8939 154.598 97.8939C155.404 97.8939 156.166 98.0246 156.882 98.286C157.603 98.5416 158.24 98.9394 158.791 99.4791C159.348 100.019 159.785 100.706 160.103 101.542C160.422 102.371 160.581 103.36 160.581 104.508V105.454H149.85V103.374H157.623C157.618 102.783 157.49 102.258 157.24 101.797C156.99 101.331 156.64 100.965 156.191 100.698C155.748 100.431 155.231 100.297 154.64 100.297C154.01 100.297 153.456 100.451 152.978 100.758C152.501 101.059 152.129 101.456 151.862 101.951C151.6 102.439 151.467 102.976 151.461 103.562V105.377C151.461 106.138 151.6 106.792 151.879 107.337C152.157 107.877 152.547 108.292 153.047 108.581C153.547 108.866 154.132 109.008 154.802 109.008C155.251 109.008 155.657 108.945 156.021 108.82C156.385 108.689 156.7 108.499 156.967 108.249C157.234 107.999 157.436 107.689 157.572 107.32L160.453 107.644C160.271 108.405 159.924 109.07 159.413 109.638C158.907 110.201 158.26 110.638 157.47 110.951C156.68 111.258 155.777 111.411 154.76 111.411ZM163.191 111.155V98.0644H166.182V100.246H166.319C166.557 99.4905 166.966 98.9081 167.546 98.499C168.131 98.0843 168.799 97.8769 169.549 97.8769C169.719 97.8769 169.909 97.8854 170.12 97.9024C170.336 97.9138 170.515 97.9337 170.657 97.9621V100.8C170.526 100.755 170.319 100.715 170.034 100.681C169.756 100.641 169.486 100.621 169.225 100.621C168.662 100.621 168.157 100.743 167.708 100.988C167.265 101.226 166.915 101.559 166.659 101.985C166.404 102.411 166.276 102.902 166.276 103.459V111.155H163.191ZM178.029 96.3513V93.7007H191.955V96.3513H186.56V111.155H183.424V96.3513H178.029ZM196.489 111.419C195.659 111.419 194.912 111.272 194.248 110.976C193.588 110.675 193.066 110.232 192.679 109.647C192.299 109.062 192.108 108.34 192.108 107.482C192.108 106.743 192.245 106.133 192.517 105.65C192.79 105.167 193.162 104.78 193.634 104.491C194.105 104.201 194.637 103.982 195.228 103.834C195.824 103.681 196.441 103.57 197.077 103.502C197.844 103.422 198.466 103.351 198.944 103.289C199.421 103.221 199.767 103.118 199.983 102.982C200.205 102.84 200.316 102.621 200.316 102.326V102.275C200.316 101.633 200.125 101.135 199.745 100.783C199.364 100.431 198.816 100.255 198.1 100.255C197.344 100.255 196.745 100.419 196.301 100.749C195.864 101.079 195.569 101.468 195.415 101.917L192.534 101.508C192.762 100.712 193.137 100.047 193.659 99.5132C194.182 98.9735 194.821 98.57 195.577 98.303C196.333 98.0303 197.168 97.8939 198.083 97.8939C198.713 97.8939 199.341 97.9678 199.966 98.1155C200.591 98.2632 201.162 98.5075 201.679 98.8485C202.196 99.1837 202.611 99.6411 202.924 100.221C203.242 100.8 203.401 101.525 203.401 102.394V111.155H200.435V109.357H200.333C200.145 109.721 199.881 110.062 199.54 110.38C199.205 110.692 198.782 110.945 198.27 111.138C197.765 111.326 197.171 111.419 196.489 111.419ZM197.29 109.152C197.909 109.152 198.446 109.03 198.901 108.786C199.355 108.536 199.705 108.206 199.949 107.797C200.199 107.388 200.324 106.942 200.324 106.459V104.917C200.228 104.996 200.063 105.07 199.83 105.138C199.603 105.206 199.347 105.266 199.063 105.317C198.779 105.368 198.498 105.414 198.219 105.454C197.941 105.493 197.699 105.527 197.495 105.556C197.034 105.618 196.623 105.721 196.259 105.863C195.895 106.005 195.608 106.204 195.398 106.459C195.188 106.709 195.083 107.033 195.083 107.431C195.083 107.999 195.29 108.428 195.705 108.718C196.12 109.008 196.648 109.152 197.29 109.152ZM209.026 98.0644L211.668 102.897L214.353 98.0644H217.617L213.671 104.61L217.685 111.155H214.438L211.668 106.442L208.924 111.155H205.651L209.64 104.61L205.753 98.0644H209.026ZM225.306 111.411C223.994 111.411 222.86 111.138 221.906 110.593C220.957 110.042 220.227 109.263 219.716 108.258C219.204 107.246 218.949 106.056 218.949 104.687C218.949 103.34 219.204 102.158 219.716 101.141C220.233 100.118 220.954 99.3229 221.88 98.7547C222.806 98.1808 223.895 97.8939 225.145 97.8939C225.951 97.8939 226.713 98.0246 227.429 98.286C228.15 98.5416 228.787 98.9394 229.338 99.4791C229.895 100.019 230.332 100.706 230.65 101.542C230.968 102.371 231.127 103.36 231.127 104.508V105.454H220.397V103.374H228.17C228.164 102.783 228.037 102.258 227.787 101.797C227.537 101.331 227.187 100.965 226.738 100.698C226.295 100.431 225.778 100.297 225.187 100.297C224.556 100.297 224.002 100.451 223.525 100.758C223.048 101.059 222.676 101.456 222.409 101.951C222.147 102.439 222.014 102.976 222.008 103.562V105.377C222.008 106.138 222.147 106.792 222.426 107.337C222.704 107.877 223.093 108.292 223.593 108.581C224.093 108.866 224.679 109.008 225.349 109.008C225.798 109.008 226.204 108.945 226.568 108.82C226.931 108.689 227.247 108.499 227.514 108.249C227.781 107.999 227.983 107.689 228.119 107.32L231 107.644C230.818 108.405 230.471 109.07 229.96 109.638C229.454 110.201 228.806 110.638 228.017 110.951C227.227 111.258 226.324 111.411 225.306 111.411ZM244.084 101.525L241.272 101.831C241.192 101.547 241.053 101.28 240.854 101.03C240.661 100.78 240.4 100.579 240.07 100.425C239.74 100.272 239.337 100.195 238.86 100.195C238.218 100.195 237.678 100.334 237.24 100.613C236.809 100.891 236.596 101.252 236.601 101.695C236.596 102.076 236.735 102.385 237.019 102.624C237.309 102.863 237.786 103.059 238.451 103.212L240.684 103.689C241.922 103.956 242.843 104.38 243.445 104.959C244.053 105.539 244.36 106.297 244.365 107.235C244.36 108.059 244.118 108.786 243.641 109.417C243.169 110.042 242.513 110.53 241.672 110.883C240.831 111.235 239.865 111.411 238.775 111.411C237.172 111.411 235.882 111.076 234.905 110.405C233.928 109.729 233.346 108.789 233.158 107.584L236.167 107.294C236.303 107.885 236.593 108.331 237.036 108.633C237.479 108.934 238.056 109.084 238.766 109.084C239.499 109.084 240.087 108.934 240.53 108.633C240.979 108.331 241.203 107.959 241.203 107.516C241.203 107.141 241.059 106.831 240.769 106.587C240.485 106.343 240.042 106.155 239.439 106.025L237.206 105.556C235.951 105.294 235.022 104.854 234.419 104.235C233.817 103.61 233.519 102.82 233.525 101.866C233.519 101.059 233.738 100.36 234.181 99.7689C234.63 99.1723 235.252 98.7121 236.047 98.3882C236.848 98.0587 237.772 97.8939 238.817 97.8939C240.351 97.8939 241.559 98.2206 242.439 98.874C243.326 99.5274 243.874 100.411 244.084 101.525Z" fill="#212528"/>
<path d="M175 151.213C147.241 151.213 124.713 173.741 124.713 201.5C124.713 229.259 147.241 251.787 175 251.787C202.759 251.787 225.287 229.259 225.287 201.5C225.287 173.741 202.759 151.213 175 151.213ZM179.425 230.466V236.701H170.625V230.214C166.904 229.309 158.606 226.342 155.438 215.329L163.736 211.96C164.037 213.066 166.652 222.47 175.805 222.47C180.481 222.47 185.761 220.056 185.761 214.374C185.761 209.546 182.241 207.032 174.296 204.165C168.764 202.204 157.45 198.986 157.45 187.52C157.45 187.017 157.5 175.451 170.625 172.635V166.299H179.425V172.534C188.678 174.144 192.047 181.536 192.802 183.749L184.856 187.118C184.303 185.358 181.889 180.379 175.302 180.379C171.782 180.379 166.2 182.24 166.2 187.369C166.2 192.147 170.524 193.957 179.476 196.924C191.545 201.098 194.612 207.233 194.612 214.273C194.612 227.499 182.04 230.013 179.425 230.466Z" fill="#0074FF"/>
</g>
<defs>
<filter id="filter0_d_379_381" x="0" y="0" width="356.25" height="356.25" filterUnits="userSpaceOnUse" color-interpolation-filters="sRGB">
<feFlood flood-opacity="0" result="BackgroundImageFix"/>
<feColorMatrix in="SourceAlpha" type="matrix" values="0 0 0 0 0 0 0 0 0 0 0 0 0 0 0 0 0 0 127 0" result="hardAlpha"/>
<feOffset dx="6.25" dy="6.25"/>
<feComposite in2="hardAlpha" operator="out"/>
<feColorMatrix type="matrix" values="0 0 0 0 0.667568 0 0 0 0 0.805297 0 0 0 0 0.932432 0 0 0 1 0"/>
<feBlend mode="normal" in2="BackgroundImageFix" result="effect1_dropShadow_379_381"/>
<feBlend mode="normal" in="SourceGraphic" in2="effect1_dropShadow_379_381" result="shape"/>
</filter>
</defs>
</svg>
