<svg width="363" height="364" viewBox="0 0 363 364" fill="none" xmlns="http://www.w3.org/2000/svg">
<g filter="url(#filter0_d_380_610)">
<rect y="0.5" width="168.73" height="168.73" rx="14.36" fill="white" shape-rendering="crispEdges"/>
<rect x="1.5" y="2" width="165.73" height="165.73" rx="12.86" stroke="#182383" stroke-width="3" shape-rendering="crispEdges"/>
<path fill-rule="evenodd" clip-rule="evenodd" d="M118.152 75.203L73.9563 90.6724L65.6436 66.6602L109.793 51.1908L118.152 75.203Z" fill="#0080FF"/>
<path fill-rule="evenodd" clip-rule="evenodd" d="M89.0143 128.63C89.3375 130.754 89.2913 132.925 88.8295 135.002L144.294 115.608L142.354 109.974L89.0143 128.63Z" fill="#0080FF"/>
<path fill-rule="evenodd" clip-rule="evenodd" d="M66.3833 116.578C58.4863 119.256 54.2838 127.845 57.0085 135.741C59.687 143.638 68.2768 147.84 76.1738 145.161C84.0247 142.437 88.2734 133.894 85.5487 125.998C85.5487 125.952 85.5487 125.905 85.5487 125.905C82.9164 118.055 74.4189 113.853 66.6143 116.485C66.5681 116.532 66.4757 116.532 66.3833 116.578ZM74.1419 138.512C69.9855 139.943 65.4597 137.819 64.0281 133.663C62.5503 129.553 64.7208 125.028 68.8772 123.597C72.9873 122.119 77.5131 124.289 78.9447 128.399C80.284 132.509 78.1597 136.988 74.1419 138.512Z" fill="#0080FF"/>
<path fill-rule="evenodd" clip-rule="evenodd" d="M134.027 78.3429L142.709 103.186L88.9996 122.027C87.7065 119.533 85.9054 117.363 83.7811 115.608L77.7774 98.1529L134.027 78.3429ZM135.181 75.8031L75.0989 96.7676L82.0262 116.578C84.6585 118.517 86.6443 121.149 87.845 124.151L145.064 104.156L135.181 75.8031Z" fill="#0080FF"/>
<path fill-rule="evenodd" clip-rule="evenodd" d="M76.0821 113.484L46.4797 28.6562L46.6644 24.3618L23.8968 23.7615L23.6659 33.8743L41.0764 34.4746L68.5083 113.253L76.0821 113.484Z" fill="#0080FF"/>
</g>
<g filter="url(#filter1_d_380_610)">
<rect y="190.77" width="168.73" height="168.73" rx="14.36" fill="white" shape-rendering="crispEdges"/>
<rect x="1.5" y="192.27" width="165.73" height="165.73" rx="12.86" stroke="#182383" stroke-width="3" shape-rendering="crispEdges"/>
<path d="M49.5143 331.702C49.5803 337.64 64.6498 342.447 83.2309 342.447C101.854 342.447 116.951 337.619 116.951 331.663C116.951 325.707 101.854 320.877 83.2309 320.877C64.6498 320.877 49.5803 325.684 49.5143 331.623V331.702Z" fill="#F2F2F3"/>
<path d="M88.9721 243.274C88.9721 243.274 96.0434 256.31 107.928 254.937L103.652 263.029C103.652 263.029 88.2785 260.601 84.1538 243.274H88.9721Z" fill="#FABFA5"/>
<path d="M84.0062 323.568L86.2608 323.741C86.2608 323.741 89.0337 327.903 95.0155 328.597C96.4043 329.03 96.4896 330.069 95.9698 331.198C95.45 332.324 84.9605 331.198 83.1388 329.984C82.0992 328.856 84.0062 323.568 84.0062 323.568Z" fill="#4B332F"/>
<path d="M68.9041 324.868L71.1587 325.042C71.1587 325.042 73.9316 329.204 79.9134 329.898C81.3006 330.33 81.3875 331.372 80.8677 332.498C80.3479 333.625 69.8568 332.498 68.0367 331.285C66.9971 330.157 68.9041 324.868 68.9041 324.868Z" fill="#4B332F"/>
<path d="M83.2365 282.359C83.2365 282.359 82.7731 306.402 72.488 326.516L68.1525 327.036C68.1525 327.036 73.5276 304.841 71.4468 286.636C70.0595 277.39 73.2959 272.996 73.2959 272.996L83.2365 282.359Z" fill="#3F4346"/>
<path d="M96.9285 275.191C96.9285 275.191 101.349 298.254 87.6525 325.475H83.4039C83.4039 325.475 88.779 304.321 86.1784 286.462L84.6173 282.128L96.9285 275.191Z" fill="#3F4346"/>
<path d="M94.3251 276.752L91.203 286.983C91.203 286.983 84.9622 285.422 78.1998 285.942L77.3324 276.752H94.3251Z" fill="#3F4346"/>
<path d="M92.0597 254.748L97.6118 248.936C97.3061 248.225 89.7102 241.526 87.4748 240.785C85.8897 240.26 82.6308 240.443 82.6308 240.443L92.0597 254.748Z" fill="#868EE0"/>
<path d="M93.8526 252.683L92.0582 254.748L83.4339 241.665C83.4452 241.617 83.4516 241.567 83.4613 241.519C87.0919 241.528 92.1451 248.128 93.8526 252.683Z" fill="#1A237E"/>
<path d="M81.9875 236.352C81.9875 236.352 81.4854 238.446 81.6817 240.218C82.385 241.182 82.1259 242.127 82.8999 242.485C82.8999 242.485 84.918 245.614 82.43 245.585C79.942 245.555 75.8319 240.594 75.8319 240.594C75.8319 240.594 77.8435 239.873 75.65 233.84L81.9875 236.352Z" fill="#FABFA5"/>
<path d="M70.8702 243.113L75.5919 240.582C75.5919 240.582 80.1382 244.496 81.8103 244.116C83.484 243.736 83.1524 241.242 83.1154 241.11C83.1154 241.11 85.008 240.315 86.8394 242.666C88.9363 245.359 92.5395 250.554 94.5125 257.933C96.3488 264.808 97.6089 277.379 97.6089 277.379C91.0187 281.161 70.9249 277.738 70.9249 277.738C73.9021 266.449 70.8702 243.113 70.8702 243.113Z" fill="#868EE0"/>
<path d="M77.007 254.218C77.007 254.218 79.1893 261.4 81.3683 261.294C83.5489 261.19 83.6503 253.666 83.6503 253.666L88.7373 254.705C88.7373 254.705 88.3044 266.8 81.7159 267.645C75.1274 268.49 71.0526 253.233 71.0526 253.233L77.007 254.218Z" fill="#FABFA5"/>
<path d="M68.759 244.872C69.0439 243.145 70.7288 242.181 72.2544 241.653C73.0832 243.179 74.1035 244.616 75.2155 245.95L75.2606 246.554C76.0057 248.768 81.112 257.837 81.112 257.837C78.0978 260.354 70.8736 259.149 70.8736 259.149C70.8736 259.149 68.2199 248.138 68.759 244.872Z" fill="#1A237E"/>
<path d="M81.6344 239.521C80.0605 240.142 78.052 238.823 76.5667 237.252C76.4331 236.362 76.1579 235.251 75.6445 233.84L81.982 236.352C81.982 236.352 81.6022 237.941 81.6344 239.521Z" fill="#F7986C"/>
<path d="M90.6181 218.448C90.6181 218.448 95.0195 234.223 85.9318 237.164C76.844 240.104 64.1901 228.827 67.3089 217.082L90.6181 218.448Z" fill="#FABFA5"/>
<path d="M66.1706 220.794C66.1706 220.794 65.6476 228.255 72.9731 233.904C73.5493 234.339 74.885 231.152 73.5525 228.197C72.22 225.242 71.7549 219.368 71.7549 219.368L66.1706 220.794Z" fill="#7A3C38"/>
<path d="M72.5378 226.12C72.5378 226.12 69.6057 223.818 68.764 226.316C67.9223 228.814 71.6479 231.45 75.0869 231.051L72.5378 226.12Z" fill="#FABFA5"/>
<path d="M73.3777 220.043C73.3777 220.043 72.94 227.058 75.325 231.157C76.7476 233.599 69.9531 225.133 70.349 220.339L73.3777 220.043Z" fill="#7A3C38"/>
<path d="M75.2241 223.202C75.3915 223.202 75.5557 223.121 75.657 222.972C77.0861 220.841 79.3118 221.266 80.5107 221.71C80.7811 221.81 81.0788 221.671 81.1786 221.402C81.2784 221.134 81.1416 220.834 80.8712 220.735C79.6739 220.292 76.6886 219.569 74.7929 222.392C74.6319 222.63 74.6963 222.954 74.9345 223.115C75.023 223.174 75.1244 223.202 75.2241 223.202Z" fill="#7A3C38"/>
<path d="M90.5591 213.494C90.5591 213.494 83.1418 220.007 72.4673 219.903C72.4673 219.903 84.6256 224.349 95.0651 219.577C105.505 214.806 90.5591 213.494 90.5591 213.494Z" fill="#1A237E"/>
<path d="M90.5741 213.494C90.5741 213.494 87.5599 208.125 79.7934 207.823H78.4158C77.5275 207.856 76.5828 207.953 75.5818 208.128C64.6707 210.035 65.992 221.987 65.992 221.987C65.992 221.987 82.4648 221.443 90.5741 213.494Z" fill="#868EE0"/>
<path d="M85.7063 225.26C85.8383 226.478 86.7186 227.381 87.6729 227.277C88.6256 227.172 89.2902 226.1 89.1567 224.884C89.0247 223.664 88.1444 222.762 87.1901 222.865C86.2374 222.97 85.5727 224.042 85.7063 225.26Z" fill="#7A3C38"/>
<path d="M77.0676 226.203C77.1996 227.42 78.0815 228.323 79.0342 228.218C79.9869 228.115 80.6516 227.043 80.518 225.825C80.386 224.607 79.5057 223.704 78.5514 223.809C77.5987 223.912 76.9341 224.985 77.0676 226.203Z" fill="#7A3C38"/>
<path d="M85.8192 230.399C85.8192 230.399 85.8144 230.494 85.808 230.658C85.7983 230.825 85.7709 231.065 85.7195 231.34C85.668 231.616 85.573 231.929 85.4121 232.198C85.2528 232.473 85.0162 232.67 84.7152 232.731C84.7072 232.733 84.6541 232.742 84.6831 232.739L84.609 232.749L84.4594 232.768C84.3515 232.786 84.3033 232.765 84.2228 232.77C84.0683 232.762 83.9042 232.724 83.7561 232.675C83.4584 232.565 83.188 232.403 82.9804 232.227C82.7696 232.053 82.6038 231.889 82.5008 231.765C82.3995 231.645 82.3431 231.577 82.3431 231.577L82.3303 231.561C82.2353 231.448 82.0679 231.432 81.9553 231.527C81.8571 231.608 81.833 231.743 81.8877 231.852C81.8909 231.857 81.9408 231.957 82.047 232.113C82.1564 232.266 82.3142 232.486 82.5572 232.708C82.7986 232.927 83.114 233.175 83.5244 233.323C83.732 233.392 83.9476 233.445 84.1874 233.46C84.3033 233.46 84.4561 233.471 84.5447 233.454L84.6927 233.436L84.7684 233.428C84.8456 233.412 84.8408 233.41 84.881 233.4C85.3735 233.285 85.779 232.897 85.9705 232.509C86.1733 232.118 86.2312 231.735 86.265 231.418C86.3165 230.777 86.2248 230.36 86.2248 230.36C86.2022 230.249 86.0912 230.178 85.9818 230.203C85.8868 230.224 85.8241 230.304 85.8192 230.394V230.399Z" fill="#AB3B37"/>
<path d="M74.1278 241.19C74.1278 241.19 68.5821 241.739 68.043 245.004C67.5039 248.271 70.1593 259.283 70.1593 259.283C70.1593 259.283 77.3818 260.486 80.3961 257.971C80.3961 257.971 76.3969 249.399 75.6518 247.185L74.1278 241.19Z" fill="#868EE0"/>
<path d="M76.0905 240.001C76.0905 240.001 79.137 242.741 82.2252 244.138C82.2864 244.576 79.2351 243.627 78.7057 244.507C78.1778 245.387 77.6339 246.91 77.6339 246.91C77.6339 246.91 74.0306 243.181 73.2791 241.182C73.2791 241.182 74.713 240.659 76.0905 240.001Z" fill="#1A237E"/>
<path d="M82.0048 244.212C82.0048 244.212 82.5278 243.351 82.3637 242.159C82.2832 241.579 81.9082 240.964 81.6942 240.182C81.6942 240.182 82.4232 240.041 83.1393 240.414C83.8555 240.787 86.028 242.997 86.2807 244.236C86.2662 244.552 84.2707 243.303 83.5224 243.477C82.7756 243.649 82.0048 244.212 82.0048 244.212Z" fill="#1A237E"/>
<path d="M94.7287 263.22C94.3859 264.332 95.0538 265.526 96.2189 265.886L109.681 270.045C110.848 270.407 112.072 269.797 112.415 268.687L118.402 249.314C118.744 248.204 118.077 247.01 116.911 246.649L103.448 242.489C102.283 242.129 101.058 242.739 100.715 243.851L94.7287 263.22Z" fill="#2F394A"/>
<path d="M96.3792 263.713L110.736 268.149L116.708 248.822L102.351 244.386L96.3792 263.713Z" fill="#FEFEFE"/>
<path d="M102.475 248.53L114.291 252.182L114.63 251.083L102.815 247.431L102.475 248.53Z" fill="#868EE0"/>
<path d="M101.516 251.678L113.332 255.33L113.671 254.229L101.856 250.579L101.516 251.678Z" fill="#868EE0"/>
<path d="M100.547 254.826L112.364 258.478L112.704 257.377L100.888 253.726L100.547 254.826Z" fill="#868EE0"/>
<path d="M99.5368 257.974L111.352 261.626L111.692 260.523L99.8764 256.873L99.5368 257.974Z" fill="#868EE0"/>
<path d="M98.5637 261.122L103.588 262.673L103.929 261.573L98.9049 260.021L98.5637 261.122Z" fill="#868EE0"/>
<path d="M104.201 244.948C104.024 245.519 104.344 246.126 104.917 246.303L113.567 248.976C114.138 249.151 114.747 248.833 114.924 248.26C115.099 247.688 114.78 247.082 114.209 246.905L105.556 244.232C104.985 244.055 104.378 244.375 104.201 244.948Z" fill="#1A237E"/>
<path d="M108.215 244.561C107.961 245.385 108.551 246.3 109.536 246.604C110.521 246.908 111.525 246.486 111.78 245.664C112.035 244.84 111.443 243.927 110.458 243.622C109.475 243.317 108.469 243.739 108.215 244.561Z" fill="#1A237E"/>
<path d="M111.359 256.853C109.885 259.053 110.248 261.879 112.168 263.163C114.088 264.449 116.839 263.705 118.311 261.505C119.784 259.305 119.42 256.479 117.5 255.195C115.582 253.909 112.831 254.652 111.359 256.853Z" fill="#FABFA5"/>
<path d="M92.5874 249.076C92.972 249.163 94.607 249.857 94.5201 250.241C94.4348 250.626 92.6598 250.555 92.2751 250.47L82.7046 248.328C82.32 248.243 82.0786 247.861 82.1639 247.476C82.2508 247.092 82.6322 246.849 83.0168 246.936L92.5874 249.076Z" fill="#373859"/>
<path d="M86.4924 248.262C83.9063 248.502 81.9815 250.562 82.1956 252.861C82.408 255.161 84.6771 256.832 87.2649 256.592C89.8511 256.352 91.7742 254.294 91.5618 251.992C91.3477 249.694 89.0786 248.022 86.4924 248.262Z" fill="#FABFA5"/>
</g>
<g filter="url(#filter2_d_380_610)">
<rect x="190.27" y="0.5" width="168.73" height="359" rx="14.36" fill="white" shape-rendering="crispEdges"/>
<rect x="191.77" y="2" width="165.73" height="356" rx="12.86" stroke="#182383" stroke-width="3" shape-rendering="crispEdges"/>
<path d="M218.167 31.015H221.159V35.5025H236.117V31.015H239.109V38.4942H242.101V31.015C242.101 29.3696 240.754 28.0234 239.109 28.0234H232.856C232.228 26.2882 230.583 25.0317 228.638 25.0317C226.694 25.0317 225.048 26.2882 224.42 28.0234H218.167C216.522 28.0234 215.176 29.3696 215.176 31.015V51.9567C215.176 53.6021 216.522 54.9484 218.167 54.9484H227.142V51.9567H218.167V31.015ZM228.638 28.0234C229.461 28.0234 230.134 28.6965 230.134 29.5192C230.134 30.3419 229.461 31.015 228.638 31.015C227.815 31.015 227.142 30.3419 227.142 29.5192C227.142 28.6965 227.815 28.0234 228.638 28.0234Z" fill="#F2800D"/>
<path d="M242.101 40.7379L233.889 48.965L229.386 44.4775L227.142 46.7213L233.889 53.4525L244.344 42.9817L242.101 40.7379Z" fill="#F2800D"/>
<path d="M216.484 77.6345V93.3H213.172V77.6345H216.484ZM222.406 86.5076V93.3H219.147V81.5509H222.253V83.6238H222.391C222.651 82.9405 223.087 82.4 223.699 82.0022C224.311 81.5994 225.053 81.3979 225.925 81.3979C226.74 81.3979 227.452 81.5764 228.059 81.9334C228.666 82.2903 229.137 82.8003 229.474 83.4632C229.81 84.121 229.979 84.9063 229.979 85.8191V93.3H226.72V86.4005C226.725 85.6815 226.542 85.1205 226.169 84.7177C225.797 84.3097 225.285 84.1057 224.632 84.1057C224.193 84.1057 223.806 84.2001 223.469 84.3887C223.138 84.5774 222.878 84.8528 222.689 85.2149C222.505 85.5718 222.411 86.0027 222.406 86.5076ZM243.08 81.5509L238.972 93.3H235.301L231.193 81.5509H234.635L237.075 89.9573H237.197L239.63 81.5509H243.08ZM249.723 93.5295C248.514 93.5295 247.474 93.2847 246.602 92.7952C245.735 92.3005 245.067 91.6019 244.598 90.6993C244.129 89.7916 243.894 88.7182 243.894 87.479C243.894 86.2704 244.129 85.2098 244.598 84.297C245.067 83.3842 245.728 82.6728 246.579 82.1628C247.436 81.6529 248.44 81.3979 249.593 81.3979C250.368 81.3979 251.09 81.5229 251.758 81.7727C252.431 82.0175 253.017 82.3872 253.517 82.8819C254.022 83.3765 254.414 83.9986 254.695 84.7483C254.975 85.4928 255.116 86.3648 255.116 87.3643V88.2592H245.195V86.2398H252.048C252.048 85.7707 251.946 85.3551 251.742 84.993C251.538 84.631 251.255 84.3479 250.893 84.144C250.536 83.9349 250.121 83.8304 249.646 83.8304C249.152 83.8304 248.713 83.9451 248.331 84.1746C247.953 84.3989 247.658 84.7024 247.444 85.0848C247.229 85.4622 247.12 85.8829 247.115 86.3469V88.2669C247.115 88.8482 247.222 89.3505 247.436 89.7737C247.655 90.197 247.964 90.5234 248.361 90.7528C248.759 90.9823 249.231 91.097 249.777 91.097C250.139 91.097 250.47 91.0461 250.771 90.9441C251.072 90.8421 251.329 90.6891 251.543 90.4851C251.758 90.2811 251.921 90.0313 252.033 89.7355L255.047 89.9344C254.894 90.6585 254.58 91.2908 254.106 91.8314C253.637 92.3668 253.03 92.785 252.285 93.0858C251.546 93.3816 250.692 93.5295 249.723 93.5295ZM260.501 86.5076V93.3H257.242V81.5509H260.348V83.6238H260.485C260.745 82.9405 261.181 82.4 261.793 82.0022C262.405 81.5994 263.147 81.3979 264.019 81.3979C264.835 81.3979 265.547 81.5764 266.153 81.9334C266.76 82.2903 267.232 82.8003 267.568 83.4632C267.905 84.121 268.073 84.9063 268.073 85.8191V93.3H264.815V86.4005C264.82 85.6815 264.636 85.1205 264.264 84.7177C263.892 84.3097 263.379 84.1057 262.727 84.1057C262.288 84.1057 261.9 84.2001 261.564 84.3887C261.232 84.5774 260.972 84.8528 260.784 85.2149C260.6 85.5718 260.506 86.0027 260.501 86.5076ZM276.891 81.5509V83.9986H269.815V81.5509H276.891ZM271.422 78.736H274.68V89.6896C274.68 89.9905 274.726 90.225 274.818 90.3933C274.91 90.5565 275.037 90.6712 275.2 90.7375C275.369 90.8038 275.562 90.837 275.782 90.837C275.935 90.837 276.088 90.8242 276.241 90.7987C276.394 90.7681 276.511 90.7452 276.593 90.7299L277.105 93.1547C276.942 93.2057 276.712 93.2643 276.417 93.3306C276.121 93.402 275.761 93.4453 275.338 93.4606C274.553 93.4912 273.864 93.3867 273.273 93.147C272.686 92.9073 272.23 92.5351 271.904 92.0302C271.577 91.5254 271.417 90.888 271.422 90.118V78.736ZM284.196 93.5295C283.008 93.5295 281.98 93.2771 281.113 92.7722C280.251 92.2623 279.586 91.5534 279.117 90.6457C278.648 89.733 278.413 88.6748 278.413 87.4714C278.413 86.2577 278.648 85.197 279.117 84.2893C279.586 83.3765 280.251 82.6677 281.113 82.1628C281.98 81.6529 283.008 81.3979 284.196 81.3979C285.384 81.3979 286.409 81.6529 287.271 82.1628C288.138 82.6677 288.806 83.3765 289.275 84.2893C289.744 85.197 289.979 86.2577 289.979 87.4714C289.979 88.6748 289.744 89.733 289.275 90.6457C288.806 91.5534 288.138 92.2623 287.271 92.7722C286.409 93.2771 285.384 93.5295 284.196 93.5295ZM284.211 91.0053C284.752 91.0053 285.203 90.8523 285.565 90.5463C285.927 90.2352 286.2 89.812 286.383 89.2766C286.572 88.7411 286.666 88.1317 286.666 87.4484C286.666 86.7651 286.572 86.1557 286.383 85.6203C286.2 85.0848 285.927 84.6616 285.565 84.3505C285.203 84.0394 284.752 83.8839 284.211 83.8839C283.665 83.8839 283.206 84.0394 282.834 84.3505C282.467 84.6616 282.189 85.0848 282 85.6203C281.817 86.1557 281.725 86.7651 281.725 87.4484C281.725 88.1317 281.817 88.7411 282 89.2766C282.189 89.812 282.467 90.2352 282.834 90.5463C283.206 90.8523 283.665 91.0053 284.211 91.0053ZM292.097 93.3V81.5509H295.256V83.6009H295.379C295.593 82.8717 295.953 82.3209 296.457 81.9487C296.962 81.5713 297.544 81.3826 298.201 81.3826C298.365 81.3826 298.54 81.3928 298.729 81.4132C298.918 81.4336 299.084 81.4617 299.226 81.4974V84.3887C299.073 84.3429 298.862 84.3021 298.591 84.2664C298.321 84.2307 298.074 84.2128 297.849 84.2128C297.37 84.2128 296.942 84.3174 296.564 84.5264C296.192 84.7304 295.896 85.016 295.677 85.3831C295.463 85.7503 295.356 86.1735 295.356 86.6529V93.3H292.097ZM303.28 97.7059C302.867 97.7059 302.48 97.6728 302.118 97.6065C301.761 97.5453 301.465 97.4662 301.23 97.3693L301.965 94.9369C302.347 95.0542 302.691 95.118 302.997 95.1281C303.308 95.1383 303.576 95.067 303.801 94.914C304.03 94.761 304.216 94.5009 304.359 94.1338L304.55 93.6366L300.335 81.5509H303.762L306.195 90.1792H306.317L308.772 81.5509H312.222L307.656 94.5698C307.436 95.2021 307.138 95.7528 306.761 96.222C306.388 96.6962 305.917 97.0608 305.346 97.3158C304.775 97.5759 304.086 97.7059 303.28 97.7059Z" fill="#3F4346"/>
<path d="M221.599 127.091C221.599 127.622 222.038 128.053 222.579 128.053C223.119 128.053 223.558 127.622 223.558 127.091V124.205H226.495C227.036 124.205 227.474 123.774 227.474 123.243C227.474 122.711 227.036 122.281 226.495 122.281H223.558V119.395C223.558 118.863 223.119 118.433 222.579 118.433C222.038 118.433 221.599 118.863 221.599 119.395V122.281H218.662C218.121 122.281 217.683 122.711 217.683 123.243C217.683 123.774 218.121 124.205 218.662 124.205H221.599V127.091Z" fill="#505159"/>
<path fill-rule="evenodd" clip-rule="evenodd" d="M222.58 133.824C228.528 133.824 233.35 129.087 233.35 123.242C233.35 117.398 228.528 112.66 222.58 112.66C216.632 112.66 211.81 117.398 211.81 123.242C211.81 129.087 216.632 133.824 222.58 133.824ZM231.392 123.242C231.392 128.024 227.447 131.9 222.58 131.9C217.713 131.9 213.768 128.024 213.768 123.242C213.768 118.46 217.713 114.584 222.58 114.584C227.447 114.584 231.392 118.46 231.392 123.242Z" fill="#505159"/>
<path d="M249.124 121.576H247.732C247.678 121.278 247.578 121.016 247.433 120.79C247.287 120.564 247.108 120.372 246.897 120.215C246.686 120.057 246.45 119.938 246.188 119.858C245.929 119.778 245.654 119.737 245.362 119.737C244.836 119.737 244.364 119.87 243.948 120.135C243.534 120.399 243.207 120.787 242.966 121.299C242.728 121.811 242.609 122.435 242.609 123.173C242.609 123.917 242.728 124.544 242.966 125.056C243.207 125.568 243.536 125.954 243.952 126.216C244.369 126.478 244.837 126.609 245.358 126.609C245.646 126.609 245.92 126.57 246.179 126.493C246.441 126.413 246.677 126.295 246.888 126.14C247.1 125.986 247.278 125.797 247.424 125.574C247.572 125.348 247.675 125.089 247.732 124.797L249.124 124.802C249.049 125.251 248.905 125.664 248.691 126.042C248.48 126.417 248.208 126.741 247.874 127.015C247.544 127.286 247.166 127.495 246.741 127.644C246.316 127.793 245.852 127.867 245.349 127.867C244.558 127.867 243.853 127.68 243.234 127.305C242.615 126.927 242.127 126.387 241.77 125.685C241.416 124.983 241.239 124.146 241.239 123.173C241.239 122.197 241.418 121.36 241.775 120.661C242.132 119.959 242.62 119.421 243.238 119.046C243.857 118.668 244.561 118.479 245.349 118.479C245.834 118.479 246.286 118.549 246.705 118.689C247.128 118.826 247.507 119.028 247.843 119.296C248.179 119.56 248.457 119.885 248.678 120.268C248.898 120.649 249.046 121.085 249.124 121.576ZM250.667 127.742V120.889H251.956V121.977H252.027C252.152 121.608 252.372 121.318 252.688 121.107C253.006 120.893 253.366 120.786 253.768 120.786C253.851 120.786 253.949 120.789 254.062 120.795C254.178 120.801 254.269 120.808 254.334 120.817V122.093C254.281 122.078 254.186 122.062 254.049 122.044C253.912 122.023 253.775 122.013 253.638 122.013C253.323 122.013 253.042 122.08 252.795 122.214C252.551 122.345 252.358 122.528 252.215 122.763C252.072 122.995 252.001 123.259 252.001 123.557V127.742H250.667ZM258.197 127.881C257.522 127.881 256.94 127.736 256.453 127.448C255.968 127.156 255.593 126.747 255.328 126.221C255.066 125.691 254.936 125.071 254.936 124.36C254.936 123.658 255.066 123.039 255.328 122.504C255.593 121.968 255.962 121.55 256.435 121.25C256.911 120.95 257.467 120.799 258.104 120.799C258.49 120.799 258.865 120.863 259.228 120.991C259.591 121.119 259.917 121.32 260.205 121.594C260.494 121.867 260.721 122.223 260.888 122.66C261.054 123.094 261.138 123.622 261.138 124.244V124.717H255.69V123.717H259.83C259.83 123.366 259.759 123.056 259.616 122.785C259.473 122.511 259.273 122.296 259.014 122.138C258.758 121.98 258.458 121.901 258.112 121.901C257.738 121.901 257.41 121.994 257.131 122.178C256.854 122.36 256.64 122.598 256.488 122.892C256.34 123.184 256.265 123.5 256.265 123.842V124.623C256.265 125.081 256.346 125.471 256.506 125.792C256.67 126.114 256.897 126.359 257.189 126.529C257.48 126.695 257.821 126.778 258.211 126.778C258.464 126.778 258.694 126.743 258.902 126.671C259.11 126.597 259.29 126.487 259.442 126.341C259.594 126.195 259.71 126.015 259.79 125.801L261.053 126.029C260.952 126.401 260.77 126.726 260.509 127.006C260.25 127.283 259.924 127.498 259.531 127.653C259.142 127.805 258.697 127.881 258.197 127.881ZM264.613 127.894C264.178 127.894 263.786 127.814 263.435 127.653C263.084 127.489 262.805 127.253 262.6 126.944C262.398 126.634 262.297 126.255 262.297 125.806C262.297 125.419 262.371 125.101 262.52 124.851C262.669 124.601 262.869 124.403 263.122 124.257C263.375 124.112 263.658 124.002 263.97 123.927C264.282 123.853 264.601 123.796 264.925 123.758C265.335 123.71 265.669 123.671 265.924 123.642C266.18 123.609 266.366 123.557 266.482 123.485C266.598 123.414 266.656 123.298 266.656 123.137V123.106C266.656 122.717 266.546 122.415 266.326 122.2C266.109 121.986 265.785 121.879 265.353 121.879C264.904 121.879 264.55 121.979 264.291 122.178C264.035 122.374 263.858 122.593 263.76 122.834L262.506 122.548C262.655 122.132 262.872 121.796 263.158 121.54C263.446 121.281 263.778 121.094 264.153 120.978C264.528 120.859 264.922 120.799 265.335 120.799C265.609 120.799 265.899 120.832 266.205 120.898C266.515 120.96 266.803 121.076 267.071 121.246C267.342 121.415 267.563 121.658 267.736 121.973C267.908 122.285 267.995 122.691 267.995 123.191V127.742H266.692V126.805H266.638C266.552 126.978 266.423 127.147 266.25 127.314C266.078 127.48 265.856 127.619 265.585 127.729C265.315 127.839 264.99 127.894 264.613 127.894ZM264.903 126.823C265.271 126.823 265.587 126.75 265.848 126.604C266.113 126.459 266.314 126.268 266.451 126.033C266.591 125.795 266.661 125.541 266.661 125.27V124.387C266.613 124.434 266.521 124.479 266.384 124.521C266.25 124.559 266.097 124.594 265.924 124.623C265.752 124.65 265.584 124.675 265.42 124.699C265.257 124.72 265.12 124.738 265.01 124.753C264.751 124.785 264.514 124.84 264.3 124.918C264.089 124.995 263.919 125.107 263.792 125.252C263.667 125.395 263.604 125.586 263.604 125.824C263.604 126.154 263.726 126.404 263.97 126.573C264.214 126.74 264.525 126.823 264.903 126.823ZM272.971 120.889V121.959H269.227V120.889H272.971ZM270.231 119.247H271.565V125.73C271.565 125.989 271.604 126.183 271.681 126.314C271.759 126.442 271.858 126.53 271.98 126.578C272.105 126.622 272.241 126.645 272.386 126.645C272.494 126.645 272.587 126.637 272.668 126.622C272.748 126.607 272.81 126.595 272.855 126.587L273.096 127.689C273.019 127.718 272.908 127.748 272.766 127.778C272.623 127.811 272.444 127.828 272.23 127.831C271.879 127.837 271.552 127.775 271.249 127.644C270.945 127.513 270.7 127.311 270.512 127.037C270.325 126.764 270.231 126.42 270.231 126.006V119.247ZM277.327 127.881C276.652 127.881 276.07 127.736 275.582 127.448C275.097 127.156 274.723 126.747 274.458 126.221C274.196 125.691 274.065 125.071 274.065 124.36C274.065 123.658 274.196 123.039 274.458 122.504C274.723 121.968 275.092 121.55 275.565 121.25C276.04 120.95 276.597 120.799 277.233 120.799C277.62 120.799 277.995 120.863 278.358 120.991C278.721 121.119 279.046 121.32 279.335 121.594C279.623 121.867 279.851 122.223 280.018 122.66C280.184 123.094 280.267 123.622 280.267 124.244V124.717H274.819V123.717H278.96C278.96 123.366 278.889 123.056 278.746 122.785C278.603 122.511 278.402 122.296 278.144 122.138C277.888 121.98 277.587 121.901 277.242 121.901C276.867 121.901 276.54 121.994 276.261 122.178C275.984 122.36 275.77 122.598 275.618 122.892C275.469 123.184 275.395 123.5 275.395 123.842V124.623C275.395 125.081 275.475 125.471 275.636 125.792C275.8 126.114 276.027 126.359 276.319 126.529C276.61 126.695 276.951 126.778 277.34 126.778C277.593 126.778 277.824 126.743 278.032 126.671C278.24 126.597 278.42 126.487 278.572 126.341C278.724 126.195 278.84 126.015 278.92 125.801L280.183 126.029C280.082 126.401 279.9 126.726 279.638 127.006C279.38 127.283 279.054 127.498 278.661 127.653C278.271 127.805 277.827 127.881 277.327 127.881ZM292.556 118.604V127.742H291.289L286.644 121.04H286.559V127.742H285.18V118.604H286.456L291.106 125.315H291.19V118.604H292.556ZM297.414 127.881C296.739 127.881 296.157 127.736 295.669 127.448C295.184 127.156 294.809 126.747 294.545 126.221C294.283 125.691 294.152 125.071 294.152 124.36C294.152 123.658 294.283 123.039 294.545 122.504C294.809 121.968 295.178 121.55 295.651 121.25C296.127 120.95 296.684 120.799 297.32 120.799C297.707 120.799 298.082 120.863 298.445 120.991C298.807 121.119 299.133 121.32 299.422 121.594C299.71 121.867 299.938 122.223 300.104 122.66C300.271 123.094 300.354 123.622 300.354 124.244V124.717H294.906V123.717H299.047C299.047 123.366 298.976 123.056 298.833 122.785C298.69 122.511 298.489 122.296 298.23 122.138C297.975 121.98 297.674 121.901 297.329 121.901C296.954 121.901 296.627 121.994 296.347 122.178C296.071 122.36 295.857 122.598 295.705 122.892C295.556 123.184 295.482 123.5 295.482 123.842V124.623C295.482 125.081 295.562 125.471 295.723 125.792C295.886 126.114 296.114 126.359 296.405 126.529C296.697 126.695 297.038 126.778 297.427 126.778C297.68 126.778 297.911 126.743 298.119 126.671C298.327 126.597 298.507 126.487 298.659 126.341C298.81 126.195 298.926 126.015 299.007 125.801L300.269 126.029C300.168 126.401 299.987 126.726 299.725 127.006C299.466 127.283 299.141 127.498 298.748 127.653C298.358 127.805 297.914 127.881 297.414 127.881ZM303.308 127.742L301.291 120.889H302.67L304.013 125.922H304.08L305.428 120.889H306.806L308.145 125.899H308.212L309.546 120.889H310.925L308.912 127.742H307.551L306.159 122.794H306.057L304.665 127.742H303.308Z" fill="#3F4346"/>
<path d="M229.24 156.875C229.52 156.326 229.293 155.659 228.735 155.385C228.176 155.11 227.497 155.333 227.218 155.881L225.182 159.883L222.628 156.745C222.061 156.049 220.95 156.165 220.544 156.962L218.948 160.098L216.566 160.878C215.974 161.072 215.654 161.702 215.851 162.284C216.049 162.866 216.689 163.18 217.281 162.986L220.063 162.075C220.376 161.972 220.635 161.752 220.782 161.462L221.855 159.353L224.41 162.491C224.977 163.187 226.087 163.071 226.493 162.274L229.24 156.875Z" fill="#505159"/>
<path fill-rule="evenodd" clip-rule="evenodd" d="M220.319 148.779C221.718 147.986 223.442 147.986 224.841 148.779L231.088 152.323C232.488 153.116 233.35 154.583 233.35 156.171V163.255C233.35 164.843 232.488 166.31 231.088 167.104L224.841 170.647C223.442 171.44 221.718 171.44 220.319 170.647L214.072 167.104C212.672 166.31 211.81 164.843 211.81 163.255V156.171C211.81 154.583 212.672 153.116 214.072 152.323L220.319 148.779ZM223.71 150.704L229.958 154.247C230.658 154.644 231.089 155.377 231.089 156.171V163.255C231.089 164.049 230.658 164.783 229.958 165.18L223.71 168.723C223.011 169.12 222.149 169.12 221.45 168.723L215.202 165.18C214.502 164.783 214.071 164.049 214.071 163.255V156.171C214.071 155.377 214.502 154.644 215.202 154.247L221.45 150.704C222.149 150.307 223.011 150.307 223.71 150.704Z" fill="#505159"/>
<path d="M242.913 155.075V164.213H241.534V155.075H242.913ZM248.013 157.36V158.43H244.269V157.36H248.013ZM245.273 155.718H246.607V162.201C246.607 162.46 246.646 162.655 246.723 162.785C246.801 162.913 246.9 163.001 247.022 163.049C247.147 163.093 247.282 163.116 247.428 163.116C247.535 163.116 247.629 163.108 247.709 163.093C247.79 163.078 247.852 163.067 247.897 163.058L248.138 164.16C248.06 164.189 247.95 164.219 247.807 164.249C247.665 164.282 247.486 164.3 247.272 164.302C246.921 164.308 246.594 164.246 246.29 164.115C245.987 163.984 245.742 163.782 245.554 163.508C245.367 163.235 245.273 162.891 245.273 162.478V155.718ZM252.369 164.352C251.694 164.352 251.112 164.207 250.624 163.919C250.139 163.627 249.764 163.218 249.5 162.692C249.238 162.162 249.107 161.542 249.107 160.831C249.107 160.129 249.238 159.51 249.5 158.975C249.764 158.439 250.133 158.021 250.606 157.721C251.082 157.421 251.638 157.27 252.275 157.27C252.662 157.27 253.037 157.334 253.4 157.462C253.762 157.59 254.088 157.791 254.377 158.065C254.665 158.338 254.893 158.694 255.059 159.131C255.226 159.565 255.309 160.093 255.309 160.715V161.188H249.861V160.189H254.002C254.002 159.838 253.93 159.527 253.788 159.256C253.645 158.982 253.444 158.767 253.185 158.609C252.93 158.451 252.629 158.372 252.284 158.372C251.909 158.372 251.582 158.465 251.302 158.649C251.026 158.831 250.812 159.069 250.66 159.363C250.511 159.655 250.437 159.971 250.437 160.313V161.094C250.437 161.552 250.517 161.942 250.678 162.263C250.841 162.585 251.069 162.83 251.36 163C251.652 163.166 251.992 163.249 252.382 163.249C252.635 163.249 252.866 163.214 253.074 163.142C253.282 163.068 253.462 162.958 253.614 162.812C253.765 162.666 253.881 162.486 253.962 162.272L255.224 162.5C255.123 162.872 254.942 163.197 254.68 163.477C254.421 163.754 254.096 163.969 253.703 164.124C253.313 164.276 252.869 164.352 252.369 164.352ZM256.79 164.213V157.36H258.07V158.475H258.155C258.298 158.097 258.531 157.803 258.855 157.592C259.18 157.377 259.568 157.27 260.02 157.27C260.478 157.27 260.862 157.377 261.171 157.592C261.484 157.806 261.714 158.1 261.863 158.475H261.934C262.098 158.109 262.358 157.818 262.715 157.601C263.072 157.38 263.497 157.27 263.991 157.27C264.613 157.27 265.12 157.465 265.513 157.855C265.908 158.245 266.106 158.832 266.106 159.617V164.213H264.772V159.742C264.772 159.278 264.646 158.942 264.393 158.734C264.14 158.526 263.838 158.422 263.487 158.422C263.053 158.422 262.715 158.555 262.474 158.823C262.233 159.088 262.113 159.428 262.113 159.845V164.213H260.783V159.658C260.783 159.286 260.667 158.987 260.435 158.761C260.203 158.535 259.901 158.422 259.529 158.422C259.276 158.422 259.043 158.488 258.829 158.622C258.617 158.753 258.446 158.936 258.316 159.171C258.188 159.406 258.124 159.678 258.124 159.988V164.213H256.79ZM271.932 159.774V160.929H267.881V159.774H271.932ZM275.092 164.213L272.557 155.075H274.007L275.788 162.152H275.872L277.724 155.075H279.161L281.013 162.156H281.097L282.873 155.075H284.328L281.789 164.213H280.401L278.478 157.369H278.407L276.484 164.213H275.092ZM285.478 164.213V157.36H286.812V164.213H285.478ZM286.152 156.302C285.92 156.302 285.72 156.225 285.554 156.07C285.39 155.912 285.308 155.725 285.308 155.508C285.308 155.288 285.39 155.1 285.554 154.946C285.72 154.788 285.92 154.709 286.152 154.709C286.384 154.709 286.582 154.788 286.745 154.946C286.912 155.1 286.995 155.288 286.995 155.508C286.995 155.725 286.912 155.912 286.745 156.07C286.582 156.225 286.384 156.302 286.152 156.302ZM293.743 159.033L292.533 159.247C292.483 159.092 292.403 158.945 292.293 158.805C292.185 158.665 292.04 158.551 291.855 158.462C291.671 158.372 291.44 158.328 291.164 158.328C290.786 158.328 290.471 158.413 290.218 158.582C289.965 158.749 289.838 158.964 289.838 159.229C289.838 159.458 289.923 159.643 290.093 159.782C290.262 159.922 290.536 160.037 290.914 160.126L292.003 160.376C292.633 160.522 293.103 160.746 293.413 161.05C293.722 161.353 293.877 161.747 293.877 162.232C293.877 162.643 293.758 163.008 293.52 163.33C293.285 163.648 292.956 163.898 292.533 164.079C292.114 164.261 291.628 164.352 291.074 164.352C290.307 164.352 289.681 164.188 289.196 163.861C288.711 163.531 288.414 163.062 288.304 162.455L289.593 162.259C289.673 162.595 289.838 162.849 290.088 163.022C290.338 163.191 290.664 163.276 291.065 163.276C291.503 163.276 291.852 163.185 292.114 163.004C292.376 162.82 292.507 162.595 292.507 162.33C292.507 162.116 292.426 161.936 292.266 161.79C292.108 161.645 291.866 161.535 291.538 161.46L290.378 161.206C289.739 161.06 289.266 160.828 288.959 160.51C288.656 160.191 288.504 159.788 288.504 159.301C288.504 158.896 288.617 158.542 288.843 158.239C289.069 157.935 289.382 157.699 289.78 157.529C290.179 157.357 290.636 157.27 291.15 157.27C291.891 157.27 292.474 157.431 292.899 157.752C293.325 158.071 293.606 158.497 293.743 159.033ZM298.297 164.352C297.622 164.352 297.04 164.207 296.553 163.919C296.068 163.627 295.693 163.218 295.428 162.692C295.166 162.162 295.036 161.542 295.036 160.831C295.036 160.129 295.166 159.51 295.428 158.975C295.693 158.439 296.062 158.021 296.535 157.721C297.011 157.421 297.567 157.27 298.204 157.27C298.59 157.27 298.965 157.334 299.328 157.462C299.691 157.59 300.017 157.791 300.305 158.065C300.594 158.338 300.821 158.694 300.988 159.131C301.154 159.565 301.238 160.093 301.238 160.715V161.188H295.79V160.189H299.93C299.93 159.838 299.859 159.527 299.716 159.256C299.573 158.982 299.373 158.767 299.114 158.609C298.858 158.451 298.558 158.372 298.213 158.372C297.838 158.372 297.51 158.465 297.231 158.649C296.954 158.831 296.74 159.069 296.588 159.363C296.44 159.655 296.365 159.971 296.365 160.313V161.094C296.365 161.552 296.446 161.942 296.606 162.263C296.77 162.585 296.997 162.83 297.289 163C297.58 163.166 297.921 163.249 298.311 163.249C298.564 163.249 298.794 163.214 299.002 163.142C299.211 163.068 299.39 162.958 299.542 162.812C299.694 162.666 299.81 162.486 299.89 162.272L301.153 162.5C301.052 162.872 300.87 163.197 300.609 163.477C300.35 163.754 300.024 163.969 299.631 164.124C299.242 164.276 298.797 164.352 298.297 164.352Z" fill="#3F4346"/>
<path fill-rule="evenodd" clip-rule="evenodd" d="M211.81 188.488C211.81 186.894 213.125 185.602 214.747 185.602H222.58C224.202 185.602 225.517 186.894 225.517 188.488V188.556C225.837 188.511 226.164 188.488 226.496 188.488C230.281 188.488 233.35 191.503 233.35 195.222C233.35 198.585 230.841 201.372 227.563 201.875L228.14 202.857C229.161 204.595 227.885 206.766 225.843 206.766H216.423C214.381 206.766 213.105 204.595 214.126 202.857L216.351 199.07H214.747C213.125 199.07 211.81 197.778 211.81 196.184V188.488ZM225.288 201.852C222.653 201.391 220.538 199.451 219.867 196.936L215.822 203.819C215.555 204.274 215.889 204.842 216.423 204.842H225.843C226.377 204.842 226.711 204.274 226.444 203.819L225.288 201.852ZM219.774 193.904C220.201 191.792 221.633 190.035 223.559 189.136V188.488C223.559 187.957 223.121 187.526 222.58 187.526H214.747C214.207 187.526 213.768 187.957 213.768 188.488V196.184C213.768 196.716 214.207 197.146 214.747 197.146H217.482L218.836 194.842C219.074 194.436 219.401 194.122 219.774 193.904ZM221.601 195.222C221.601 192.566 223.793 190.412 226.496 190.412C229.2 190.412 231.392 192.566 231.392 195.222C231.392 197.879 229.2 200.032 226.496 200.032C223.793 200.032 221.601 197.879 221.601 195.222Z" fill="#505159"/>
<path d="M247.718 194.433C247.632 194.162 247.516 193.92 247.37 193.706C247.227 193.489 247.056 193.304 246.857 193.152C246.658 192.998 246.43 192.88 246.174 192.8C245.922 192.72 245.643 192.679 245.34 192.679C244.825 192.679 244.361 192.812 243.948 193.077C243.534 193.341 243.207 193.729 242.966 194.241C242.728 194.75 242.609 195.373 242.609 196.111C242.609 196.851 242.73 197.478 242.971 197.989C243.212 198.501 243.542 198.889 243.961 199.154C244.381 199.419 244.858 199.551 245.394 199.551C245.89 199.551 246.323 199.45 246.692 199.247C247.064 199.045 247.351 198.76 247.553 198.391C247.758 198.019 247.861 197.582 247.861 197.079L248.218 197.146H245.603V196.008H249.195V197.048C249.195 197.815 249.032 198.482 248.704 199.047C248.38 199.609 247.931 200.043 247.357 200.35C246.786 200.656 246.131 200.809 245.394 200.809C244.567 200.809 243.841 200.619 243.216 200.238C242.594 199.857 242.11 199.317 241.761 198.618C241.413 197.916 241.239 197.083 241.239 196.12C241.239 195.391 241.341 194.736 241.543 194.156C241.745 193.576 242.029 193.084 242.395 192.679C242.764 192.272 243.197 191.961 243.694 191.747C244.193 191.53 244.739 191.421 245.331 191.421C245.825 191.421 246.284 191.494 246.71 191.64C247.138 191.786 247.519 191.992 247.852 192.26C248.188 192.528 248.466 192.846 248.687 193.215C248.907 193.581 249.055 193.987 249.133 194.433H247.718ZM250.838 200.684V193.831H252.128V194.919H252.199C252.324 194.55 252.544 194.26 252.86 194.049C253.178 193.835 253.538 193.728 253.939 193.728C254.023 193.728 254.121 193.731 254.234 193.737C254.35 193.743 254.441 193.75 254.506 193.759V195.035C254.453 195.02 254.357 195.004 254.221 194.986C254.084 194.965 253.947 194.955 253.81 194.955C253.495 194.955 253.214 195.022 252.967 195.156C252.723 195.287 252.529 195.47 252.387 195.705C252.244 195.937 252.172 196.201 252.172 196.499V200.684H250.838ZM258.302 200.823C257.66 200.823 257.099 200.675 256.62 200.381C256.141 200.086 255.769 199.674 255.504 199.145C255.24 198.615 255.107 197.997 255.107 197.289C255.107 196.578 255.24 195.956 255.504 195.424C255.769 194.891 256.141 194.478 256.62 194.183C257.099 193.889 257.66 193.741 258.302 193.741C258.945 193.741 259.505 193.889 259.984 194.183C260.463 194.478 260.835 194.891 261.1 195.424C261.365 195.956 261.497 196.578 261.497 197.289C261.497 197.997 261.365 198.615 261.1 199.145C260.835 199.674 260.463 200.086 259.984 200.381C259.505 200.675 258.945 200.823 258.302 200.823ZM258.307 199.703C258.723 199.703 259.068 199.593 259.342 199.372C259.615 199.152 259.818 198.859 259.949 198.493C260.082 198.128 260.149 197.724 260.149 197.284C260.149 196.847 260.082 196.445 259.949 196.079C259.818 195.711 259.615 195.415 259.342 195.192C259.068 194.968 258.723 194.857 258.307 194.857C257.887 194.857 257.539 194.968 257.262 195.192C256.989 195.415 256.785 195.711 256.651 196.079C256.52 196.445 256.455 196.847 256.455 197.284C256.455 197.724 256.52 198.128 256.651 198.493C256.785 198.859 256.989 199.152 257.262 199.372C257.539 199.593 257.887 199.703 258.307 199.703ZM267.328 197.842V193.831H268.666V200.684H267.354V199.497H267.283C267.125 199.863 266.873 200.168 266.524 200.412C266.179 200.653 265.75 200.773 265.235 200.773C264.795 200.773 264.405 200.677 264.066 200.483C263.73 200.287 263.465 199.997 263.272 199.613C263.081 199.23 262.986 198.755 262.986 198.19V193.831H264.32V198.029C264.32 198.496 264.45 198.868 264.708 199.145C264.967 199.422 265.303 199.56 265.717 199.56C265.967 199.56 266.215 199.497 266.462 199.372C266.712 199.247 266.919 199.059 267.082 198.806C267.249 198.553 267.331 198.232 267.328 197.842ZM270.459 203.254V193.831H271.762V194.942H271.873C271.951 194.799 272.062 194.634 272.208 194.446C272.354 194.259 272.556 194.095 272.815 193.956C273.074 193.813 273.416 193.741 273.841 193.741C274.394 193.741 274.888 193.881 275.322 194.161C275.757 194.44 276.097 194.843 276.344 195.37C276.594 195.897 276.719 196.53 276.719 197.271C276.719 198.012 276.596 198.647 276.349 199.176C276.102 199.703 275.763 200.109 275.331 200.394C274.9 200.677 274.408 200.818 273.854 200.818C273.438 200.818 273.097 200.748 272.833 200.608C272.571 200.469 272.366 200.305 272.217 200.118C272.068 199.93 271.954 199.764 271.873 199.618H271.793V203.254H270.459ZM271.766 197.257C271.766 197.739 271.836 198.162 271.976 198.525C272.116 198.888 272.318 199.172 272.583 199.377C272.848 199.579 273.172 199.68 273.555 199.68C273.954 199.68 274.287 199.575 274.555 199.364C274.823 199.149 275.025 198.859 275.162 198.493C275.302 198.128 275.372 197.716 275.372 197.257C275.372 196.805 275.303 196.399 275.166 196.039C275.032 195.679 274.83 195.395 274.559 195.187C274.292 194.979 273.957 194.875 273.555 194.875C273.169 194.875 272.842 194.974 272.574 195.174C272.309 195.373 272.108 195.651 271.971 196.008C271.835 196.365 271.766 196.781 271.766 197.257ZM282.252 196.245V197.4H278.2V196.245H282.252ZM285.411 200.684L282.877 191.546H284.327L286.107 198.623H286.192L288.044 191.546H289.48L291.332 198.627H291.417L293.193 191.546H294.647L292.108 200.684H290.721L288.798 193.84H288.726L286.803 200.684H285.411ZM295.797 200.684V193.831H297.132V200.684H295.797ZM296.471 192.773C296.239 192.773 296.04 192.696 295.873 192.541C295.71 192.383 295.628 192.196 295.628 191.979C295.628 191.759 295.71 191.571 295.873 191.417C296.04 191.259 296.239 191.18 296.471 191.18C296.703 191.18 296.901 191.259 297.065 191.417C297.231 191.571 297.315 191.759 297.315 191.979C297.315 192.196 297.231 192.383 297.065 192.541C296.901 192.696 296.703 192.773 296.471 192.773ZM304.062 195.504L302.853 195.718C302.802 195.563 302.722 195.416 302.612 195.276C302.505 195.136 302.359 195.022 302.175 194.933C301.99 194.843 301.76 194.799 301.483 194.799C301.105 194.799 300.79 194.884 300.537 195.053C300.284 195.22 300.158 195.435 300.158 195.7C300.158 195.929 300.243 196.114 300.412 196.253C300.582 196.393 300.856 196.508 301.233 196.597L302.322 196.847C302.953 196.993 303.423 197.217 303.732 197.521C304.041 197.824 304.196 198.218 304.196 198.703C304.196 199.114 304.077 199.48 303.839 199.801C303.604 200.119 303.275 200.369 302.853 200.55C302.434 200.732 301.947 200.823 301.394 200.823C300.626 200.823 300 200.659 299.515 200.332C299.031 200.002 298.733 199.533 298.623 198.926L299.913 198.73C299.993 199.066 300.158 199.32 300.408 199.493C300.658 199.662 300.983 199.747 301.385 199.747C301.822 199.747 302.172 199.657 302.434 199.475C302.695 199.291 302.826 199.066 302.826 198.801C302.826 198.587 302.746 198.407 302.585 198.261C302.428 198.116 302.185 198.006 301.858 197.931L300.698 197.677C300.058 197.531 299.585 197.299 299.279 196.981C298.976 196.663 298.824 196.259 298.824 195.772C298.824 195.367 298.937 195.013 299.163 194.71C299.389 194.406 299.701 194.17 300.1 194C300.499 193.828 300.955 193.741 301.47 193.741C302.21 193.741 302.794 193.902 303.219 194.223C303.644 194.542 303.925 194.968 304.062 195.504ZM308.617 200.823C307.942 200.823 307.36 200.678 306.872 200.39C306.387 200.098 306.012 199.689 305.748 199.163C305.486 198.633 305.355 198.013 305.355 197.302C305.355 196.6 305.486 195.981 305.748 195.446C306.012 194.91 306.381 194.492 306.854 194.192C307.33 193.892 307.887 193.741 308.523 193.741C308.91 193.741 309.285 193.805 309.648 193.933C310.01 194.061 310.336 194.262 310.625 194.536C310.913 194.809 311.141 195.165 311.307 195.602C311.474 196.036 311.557 196.564 311.557 197.186V197.659H306.109V196.66H310.25C310.25 196.309 310.178 195.998 310.036 195.727C309.893 195.453 309.692 195.238 309.433 195.08C309.178 194.922 308.877 194.843 308.532 194.843C308.157 194.843 307.83 194.936 307.55 195.12C307.274 195.302 307.06 195.54 306.908 195.834C306.759 196.126 306.685 196.442 306.685 196.784V197.565C306.685 198.023 306.765 198.413 306.926 198.734C307.089 199.056 307.317 199.301 307.608 199.471C307.9 199.637 308.24 199.72 308.63 199.72C308.883 199.72 309.114 199.685 309.322 199.613C309.53 199.539 309.71 199.429 309.862 199.283C310.013 199.137 310.129 198.957 310.21 198.743L311.472 198.971C311.371 199.343 311.19 199.668 310.928 199.948C310.669 200.225 310.344 200.44 309.951 200.595C309.561 200.747 309.117 200.823 308.617 200.823Z" fill="#3F4346"/>
<path fill-rule="evenodd" clip-rule="evenodd" d="M221.268 221.41C222.103 221.032 223.057 221.032 223.892 221.41L232.71 225.405C233.099 225.581 233.35 225.974 233.35 226.408C233.35 226.842 233.099 227.235 232.71 227.411L228.867 229.152L232.71 230.893C233.099 231.07 233.35 231.463 233.35 231.896C233.35 232.33 233.099 232.723 232.71 232.9L228.867 234.641L232.71 236.382C233.099 236.558 233.35 236.951 233.35 237.385C233.35 237.819 233.099 238.212 232.71 238.388L223.892 242.383C223.057 242.761 222.103 242.761 221.268 242.383L212.45 238.388C212.061 238.212 211.81 237.819 211.81 237.385C211.81 236.951 212.061 236.558 212.45 236.382L216.293 234.641L212.45 232.9C212.061 232.723 211.81 232.33 211.81 231.896C211.81 231.463 212.061 231.07 212.45 230.893L216.293 229.152L212.45 227.411C212.061 227.235 211.81 226.842 211.81 226.408C211.81 225.974 212.061 225.581 212.45 225.405L221.268 221.41ZM218.945 230.353L215.539 231.896L222.143 234.888C222.421 235.014 222.739 235.014 223.017 234.888L229.621 231.896L226.215 230.353L223.892 231.406C223.057 231.784 222.103 231.784 221.268 231.406L218.945 230.353ZM218.945 235.842L215.539 237.385L222.143 240.376C222.421 240.503 222.739 240.503 223.017 240.376L229.621 237.385L226.215 235.842L223.892 236.894C223.057 237.273 222.103 237.273 221.268 236.894L218.945 235.842ZM223.017 223.416C222.739 223.29 222.421 223.29 222.143 223.416L215.539 226.408L222.143 229.399C222.421 229.526 222.739 229.526 223.017 229.399L229.621 226.408L223.017 223.416Z" fill="#505159"/>
<path d="M242.333 227.258L244.876 234.701H244.979L247.522 227.258H249.012L245.724 236.396H244.131L240.842 227.258H242.333ZM251.544 236.548C251.11 236.548 250.717 236.468 250.366 236.307C250.015 236.144 249.737 235.907 249.532 235.598C249.33 235.288 249.229 234.909 249.229 234.46C249.229 234.073 249.303 233.755 249.452 233.505C249.6 233.255 249.801 233.057 250.054 232.912C250.307 232.766 250.59 232.656 250.902 232.581C251.214 232.507 251.533 232.451 251.857 232.412C252.267 232.364 252.6 232.326 252.856 232.296C253.112 232.263 253.298 232.211 253.414 232.14C253.53 232.068 253.588 231.952 253.588 231.792V231.76C253.588 231.371 253.478 231.069 253.258 230.855C253.041 230.64 252.716 230.533 252.285 230.533C251.836 230.533 251.482 230.633 251.223 230.832C250.967 231.029 250.79 231.247 250.692 231.488L249.438 231.203C249.587 230.786 249.804 230.45 250.09 230.194C250.378 229.935 250.71 229.748 251.085 229.632C251.46 229.513 251.854 229.454 252.267 229.454C252.541 229.454 252.831 229.486 253.137 229.552C253.447 229.614 253.735 229.73 254.003 229.9C254.274 230.069 254.495 230.312 254.668 230.627C254.84 230.939 254.927 231.345 254.927 231.845V236.396H253.624V235.459H253.57C253.484 235.632 253.355 235.802 253.182 235.968C253.009 236.135 252.788 236.273 252.517 236.383C252.246 236.493 251.922 236.548 251.544 236.548ZM251.834 235.477C252.203 235.477 252.519 235.404 252.78 235.259C253.045 235.113 253.246 234.923 253.383 234.688C253.523 234.45 253.592 234.195 253.592 233.925V233.041C253.545 233.089 253.453 233.133 253.316 233.175C253.182 233.214 253.029 233.248 252.856 233.278C252.684 233.304 252.516 233.33 252.352 233.353C252.188 233.374 252.052 233.392 251.942 233.407C251.683 233.44 251.446 233.495 251.232 233.572C251.021 233.649 250.851 233.761 250.723 233.907C250.598 234.049 250.536 234.24 250.536 234.478C250.536 234.808 250.658 235.058 250.902 235.227C251.146 235.394 251.457 235.477 251.834 235.477ZM256.704 236.396V229.543H257.993V230.632H258.065C258.189 230.263 258.41 229.973 258.725 229.761C259.043 229.547 259.403 229.44 259.805 229.44C259.888 229.44 259.986 229.443 260.099 229.449C260.215 229.455 260.306 229.463 260.371 229.471V230.748C260.318 230.733 260.223 230.716 260.086 230.698C259.949 230.678 259.812 230.667 259.675 230.667C259.36 230.667 259.079 230.734 258.832 230.868C258.588 230.999 258.395 231.182 258.252 231.417C258.109 231.649 258.038 231.914 258.038 232.211V236.396H256.704ZM261.526 236.396V229.543H262.86V236.396H261.526ZM262.2 228.485C261.968 228.485 261.768 228.408 261.602 228.253C261.438 228.096 261.356 227.908 261.356 227.691C261.356 227.471 261.438 227.284 261.602 227.129C261.768 226.971 261.968 226.892 262.2 226.892C262.432 226.892 262.63 226.971 262.793 227.129C262.96 227.284 263.043 227.471 263.043 227.691C263.043 227.908 262.96 228.096 262.793 228.253C262.63 228.408 262.432 228.485 262.2 228.485ZM266.649 236.548C266.215 236.548 265.822 236.468 265.471 236.307C265.12 236.144 264.842 235.907 264.637 235.598C264.435 235.288 264.334 234.909 264.334 234.46C264.334 234.073 264.408 233.755 264.557 233.505C264.705 233.255 264.906 233.057 265.159 232.912C265.412 232.766 265.695 232.656 266.007 232.581C266.319 232.507 266.638 232.451 266.962 232.412C267.372 232.364 267.705 232.326 267.961 232.296C268.217 232.263 268.403 232.211 268.519 232.14C268.635 232.068 268.693 231.952 268.693 231.792V231.76C268.693 231.371 268.583 231.069 268.363 230.855C268.146 230.64 267.821 230.533 267.39 230.533C266.941 230.533 266.587 230.633 266.328 230.832C266.072 231.029 265.895 231.247 265.797 231.488L264.543 231.203C264.692 230.786 264.909 230.45 265.195 230.194C265.483 229.935 265.815 229.748 266.19 229.632C266.565 229.513 266.959 229.454 267.372 229.454C267.646 229.454 267.936 229.486 268.242 229.552C268.552 229.614 268.84 229.73 269.108 229.9C269.379 230.069 269.6 230.312 269.773 230.627C269.945 230.939 270.032 231.345 270.032 231.845V236.396H268.729V235.459H268.675C268.589 235.632 268.46 235.802 268.287 235.968C268.114 236.135 267.893 236.273 267.622 236.383C267.351 236.493 267.027 236.548 266.649 236.548ZM266.939 235.477C267.308 235.477 267.624 235.404 267.885 235.259C268.15 235.113 268.351 234.923 268.488 234.688C268.628 234.45 268.697 234.195 268.697 233.925V233.041C268.65 233.089 268.558 233.133 268.421 233.175C268.287 233.214 268.134 233.248 267.961 233.278C267.789 233.304 267.621 233.33 267.457 233.353C267.293 233.374 267.157 233.392 267.047 233.407C266.788 233.44 266.551 233.495 266.337 233.572C266.126 233.649 265.956 233.761 265.828 233.907C265.703 234.049 265.641 234.24 265.641 234.478C265.641 234.808 265.763 235.058 266.007 235.227C266.251 235.394 266.562 235.477 266.939 235.477ZM273.143 232.327V236.396H271.809V229.543H273.089V230.658H273.174C273.332 230.295 273.579 230.004 273.915 229.784C274.254 229.564 274.681 229.454 275.195 229.454C275.662 229.454 276.071 229.552 276.422 229.748C276.773 229.941 277.046 230.23 277.239 230.614C277.432 230.997 277.529 231.472 277.529 232.037V236.396H276.195V232.198C276.195 231.701 276.065 231.313 275.807 231.033C275.548 230.751 275.192 230.609 274.74 230.609C274.431 230.609 274.156 230.676 273.915 230.81C273.677 230.944 273.488 231.14 273.348 231.399C273.211 231.655 273.143 231.964 273.143 232.327ZM282.517 229.543V230.614H278.774V229.543H282.517ZM279.778 227.901H281.112V234.384C281.112 234.643 281.151 234.838 281.228 234.969C281.305 235.097 281.405 235.184 281.527 235.232C281.652 235.277 281.787 235.299 281.933 235.299C282.04 235.299 282.134 235.291 282.214 235.277C282.294 235.262 282.357 235.25 282.401 235.241L282.642 236.343C282.565 236.373 282.455 236.402 282.312 236.432C282.169 236.465 281.991 236.483 281.777 236.486C281.426 236.492 281.099 236.429 280.795 236.298C280.492 236.167 280.246 235.965 280.059 235.691C279.871 235.418 279.778 235.074 279.778 234.661V227.901ZM287.798 231.957V233.112H283.747V231.957H287.798ZM290.957 236.396L288.423 227.258H289.873L291.653 234.335H291.738L293.59 227.258H295.027L296.878 234.339H296.963L298.739 227.258H300.194L297.655 236.396H296.267L294.344 229.552H294.273L292.349 236.396H290.957ZM301.344 236.396V229.543H302.678V236.396H301.344ZM302.017 228.485C301.785 228.485 301.586 228.408 301.42 228.253C301.256 228.096 301.174 227.908 301.174 227.691C301.174 227.471 301.256 227.284 301.42 227.129C301.586 226.971 301.785 226.892 302.017 226.892C302.25 226.892 302.447 226.971 302.611 227.129C302.778 227.284 302.861 227.471 302.861 227.691C302.861 227.908 302.778 228.096 302.611 228.253C302.447 228.408 302.25 228.485 302.017 228.485ZM309.608 231.216L308.399 231.43C308.349 231.276 308.268 231.128 308.158 230.989C308.051 230.849 307.905 230.734 307.721 230.645C307.537 230.556 307.306 230.511 307.029 230.511C306.652 230.511 306.336 230.596 306.083 230.765C305.831 230.932 305.704 231.148 305.704 231.412C305.704 231.641 305.789 231.826 305.959 231.966C306.128 232.106 306.402 232.22 306.78 232.309L307.868 232.559C308.499 232.705 308.969 232.929 309.278 233.233C309.588 233.536 309.742 233.93 309.742 234.415C309.742 234.826 309.623 235.192 309.385 235.513C309.15 235.831 308.822 236.081 308.399 236.263C307.98 236.444 307.493 236.535 306.94 236.535C306.173 236.535 305.547 236.371 305.062 236.044C304.577 235.714 304.279 235.245 304.169 234.638L305.459 234.442C305.539 234.778 305.704 235.033 305.954 235.205C306.204 235.375 306.53 235.459 306.931 235.459C307.369 235.459 307.718 235.369 307.98 235.187C308.242 235.003 308.372 234.778 308.372 234.514C308.372 234.299 308.292 234.119 308.132 233.974C307.974 233.828 307.731 233.718 307.404 233.643L306.244 233.389C305.605 233.243 305.132 233.011 304.825 232.693C304.522 232.375 304.37 231.972 304.37 231.484C304.37 231.079 304.483 230.725 304.709 230.422C304.935 230.118 305.248 229.882 305.646 229.712C306.045 229.54 306.501 229.454 307.016 229.454C307.757 229.454 308.34 229.614 308.765 229.935C309.191 230.254 309.472 230.681 309.608 231.216ZM314.163 236.535C313.488 236.535 312.906 236.391 312.418 236.102C311.934 235.81 311.559 235.401 311.294 234.875C311.032 234.345 310.901 233.725 310.901 233.014C310.901 232.312 311.032 231.694 311.294 231.158C311.559 230.623 311.928 230.205 312.401 229.904C312.877 229.604 313.433 229.454 314.069 229.454C314.456 229.454 314.831 229.518 315.194 229.645C315.557 229.773 315.882 229.974 316.171 230.248C316.46 230.521 316.687 230.877 316.854 231.314C317.02 231.749 317.104 232.277 317.104 232.898V233.371H311.655V232.372H315.796C315.796 232.021 315.725 231.71 315.582 231.439C315.439 231.166 315.238 230.95 314.98 230.792C314.724 230.635 314.423 230.556 314.078 230.556C313.703 230.556 313.376 230.648 313.097 230.832C312.82 231.014 312.606 231.252 312.454 231.546C312.305 231.838 312.231 232.155 312.231 232.497V233.278C312.231 233.736 312.311 234.125 312.472 234.447C312.636 234.768 312.863 235.013 313.155 235.183C313.446 235.349 313.787 235.433 314.176 235.433C314.429 235.433 314.66 235.397 314.868 235.326C315.076 235.251 315.256 235.141 315.408 234.995C315.56 234.85 315.676 234.67 315.756 234.455L317.019 234.683C316.918 235.055 316.736 235.381 316.474 235.66C316.216 235.937 315.89 236.153 315.497 236.307C315.108 236.459 314.663 236.535 314.163 236.535Z" fill="#3F4346"/>
<path fill-rule="evenodd" clip-rule="evenodd" d="M229.922 258.02C230.33 257.898 230.771 258.053 231.008 258.401L233.186 261.59C233.484 262.026 233.365 262.617 232.921 262.91C232.477 263.203 231.876 263.086 231.578 262.65L231.172 262.056L231.172 272.249C231.172 275.401 228.571 277.957 225.363 277.957H221.49C220.955 277.957 220.521 277.531 220.521 277.005C220.521 276.48 220.955 276.054 221.49 276.054H225.363C227.501 276.054 229.235 274.35 229.235 272.249L229.236 258.93C229.236 258.512 229.515 258.142 229.922 258.02Z" fill="#505159"/>
<path fill-rule="evenodd" clip-rule="evenodd" d="M213.988 262.734C213.988 259.582 216.589 257.026 219.797 257.026L223.67 257.026C224.205 257.026 224.639 257.452 224.639 257.978C224.639 258.503 224.205 258.929 223.67 258.929H219.797C217.659 258.929 215.925 260.633 215.925 262.734L215.924 276.053C215.924 276.471 215.645 276.841 215.238 276.963C214.83 277.084 214.389 276.93 214.152 276.582L211.974 273.393C211.676 272.957 211.795 272.366 212.239 272.073C212.683 271.78 213.284 271.897 213.582 272.333L213.988 272.927L213.988 262.734Z" fill="#505159"/>
<path fill-rule="evenodd" clip-rule="evenodd" d="M222.704 261.926C223.159 261.926 223.527 262.288 223.527 262.734V263.531C224.444 263.662 225.161 264.431 225.161 265.377C225.161 265.823 224.792 266.185 224.338 266.185C223.883 266.185 223.515 265.823 223.515 265.377C223.515 265.249 223.405 265.128 223.249 265.128H222.16C221.702 265.128 221.349 265.486 221.349 265.905C221.349 266.325 221.702 266.682 222.16 266.682H223.249C224.596 266.682 225.706 267.745 225.706 269.076C225.706 270.315 224.745 271.321 223.527 271.455V272.247C223.527 272.694 223.159 273.056 222.704 273.056C222.25 273.056 221.881 272.694 221.881 272.247V271.47H221.615C220.569 271.47 219.703 270.645 219.703 269.605C219.703 269.158 220.071 268.796 220.526 268.796C220.98 268.796 221.349 269.158 221.349 269.605C221.349 269.733 221.458 269.853 221.615 269.853H223.249C223.706 269.853 224.06 269.496 224.06 269.076C224.06 268.657 223.706 268.299 223.249 268.299H222.16C220.812 268.299 219.703 267.237 219.703 265.905C219.703 264.667 220.663 263.661 221.881 263.527V262.734C221.881 262.288 222.25 261.926 222.704 261.926Z" fill="#505159"/>
<path d="M241.083 264.04V262.853H248.156V264.04H245.304V271.992H243.93V264.04H241.083ZM248.9 271.992V265.138H250.189V266.227H250.26C250.385 265.858 250.606 265.568 250.921 265.357C251.239 265.142 251.599 265.035 252.001 265.035C252.084 265.035 252.182 265.038 252.295 265.044C252.411 265.05 252.502 265.058 252.567 265.066V266.343C252.514 266.328 252.419 266.311 252.282 266.294C252.145 266.273 252.008 266.262 251.871 266.262C251.556 266.262 251.275 266.329 251.028 266.463C250.784 266.594 250.591 266.777 250.448 267.012C250.305 267.244 250.234 267.509 250.234 267.806V271.992H248.9ZM255.655 272.143C255.221 272.143 254.828 272.063 254.477 271.902C254.126 271.739 253.848 271.502 253.643 271.193C253.44 270.883 253.339 270.504 253.339 270.055C253.339 269.668 253.414 269.35 253.562 269.1C253.711 268.85 253.912 268.652 254.165 268.507C254.418 268.361 254.7 268.251 255.013 268.176C255.325 268.102 255.643 268.046 255.967 268.007C256.378 267.959 256.711 267.921 256.967 267.891C257.223 267.858 257.409 267.806 257.525 267.735C257.641 267.663 257.699 267.547 257.699 267.387V267.355C257.699 266.966 257.589 266.664 257.368 266.45C257.151 266.236 256.827 266.128 256.396 266.128C255.947 266.128 255.593 266.228 255.334 266.427C255.078 266.624 254.901 266.842 254.803 267.083L253.549 266.798C253.698 266.381 253.915 266.045 254.2 265.789C254.489 265.531 254.821 265.343 255.195 265.227C255.57 265.108 255.964 265.049 256.378 265.049C256.652 265.049 256.942 265.081 257.248 265.147C257.557 265.209 257.846 265.325 258.114 265.495C258.384 265.664 258.606 265.907 258.778 266.222C258.951 266.534 259.037 266.941 259.037 267.44V271.992H257.734V271.054H257.681C257.595 271.227 257.465 271.397 257.293 271.563C257.12 271.73 256.898 271.868 256.628 271.978C256.357 272.088 256.033 272.143 255.655 272.143ZM255.945 271.072C256.314 271.072 256.629 270.999 256.891 270.854C257.156 270.708 257.357 270.518 257.493 270.283C257.633 270.045 257.703 269.79 257.703 269.52V268.636C257.656 268.684 257.563 268.728 257.426 268.77C257.293 268.809 257.139 268.843 256.967 268.873C256.794 268.899 256.626 268.925 256.463 268.948C256.299 268.969 256.162 268.987 256.052 269.002C255.793 269.035 255.557 269.09 255.343 269.167C255.132 269.244 254.962 269.356 254.834 269.502C254.709 269.644 254.647 269.835 254.647 270.073C254.647 270.403 254.769 270.653 255.013 270.822C255.256 270.989 255.567 271.072 255.945 271.072ZM262.148 267.922V271.992H260.814V265.138H262.095V266.253H262.18C262.337 265.89 262.584 265.599 262.92 265.379C263.259 265.159 263.686 265.049 264.201 265.049C264.668 265.049 265.077 265.147 265.428 265.343C265.779 265.536 266.051 265.825 266.244 266.209C266.438 266.592 266.535 267.067 266.535 267.632V271.992H265.2V267.793C265.2 267.296 265.071 266.908 264.812 266.628C264.553 266.346 264.198 266.204 263.746 266.204C263.436 266.204 263.161 266.271 262.92 266.405C262.682 266.539 262.493 266.735 262.354 266.994C262.217 267.25 262.148 267.559 262.148 267.922ZM273.46 266.811L272.25 267.025C272.2 266.871 272.119 266.723 272.009 266.584C271.902 266.444 271.757 266.329 271.572 266.24C271.388 266.151 271.157 266.106 270.881 266.106C270.503 266.106 270.187 266.191 269.935 266.36C269.682 266.527 269.555 266.743 269.555 267.007C269.555 267.236 269.64 267.421 269.81 267.561C269.979 267.701 270.253 267.815 270.631 267.904L271.719 268.154C272.35 268.3 272.82 268.525 273.129 268.828C273.439 269.131 273.593 269.526 273.593 270.01C273.593 270.421 273.474 270.787 273.236 271.108C273.001 271.426 272.673 271.676 272.25 271.858C271.831 272.039 271.345 272.13 270.791 272.13C270.024 272.13 269.398 271.966 268.913 271.639C268.428 271.309 268.13 270.84 268.02 270.233L269.31 270.037C269.39 270.373 269.555 270.628 269.805 270.8C270.055 270.97 270.381 271.054 270.782 271.054C271.22 271.054 271.569 270.964 271.831 270.782C272.093 270.598 272.224 270.373 272.224 270.109C272.224 269.894 272.143 269.714 271.983 269.569C271.825 269.423 271.583 269.313 271.255 269.238L270.095 268.984C269.456 268.838 268.983 268.606 268.676 268.288C268.373 267.97 268.221 267.567 268.221 267.079C268.221 266.674 268.334 266.32 268.56 266.017C268.786 265.713 269.099 265.477 269.497 265.307C269.896 265.135 270.353 265.049 270.867 265.049C271.608 265.049 272.191 265.209 272.616 265.531C273.042 265.849 273.323 266.276 273.46 266.811ZM277.055 272.143C276.621 272.143 276.228 272.063 275.877 271.902C275.526 271.739 275.248 271.502 275.042 271.193C274.84 270.883 274.739 270.504 274.739 270.055C274.739 269.668 274.813 269.35 274.962 269.1C275.111 268.85 275.312 268.652 275.565 268.507C275.817 268.361 276.1 268.251 276.412 268.176C276.725 268.102 277.043 268.046 277.367 268.007C277.778 267.959 278.111 267.921 278.367 267.891C278.622 267.858 278.808 267.806 278.924 267.735C279.04 267.663 279.098 267.547 279.098 267.387V267.355C279.098 266.966 278.988 266.664 278.768 266.45C278.551 266.236 278.227 266.128 277.796 266.128C277.346 266.128 276.992 266.228 276.734 266.427C276.478 266.624 276.301 266.842 276.203 267.083L274.949 266.798C275.097 266.381 275.315 266.045 275.6 265.789C275.889 265.531 276.22 265.343 276.595 265.227C276.97 265.108 277.364 265.049 277.778 265.049C278.051 265.049 278.341 265.081 278.648 265.147C278.957 265.209 279.246 265.325 279.513 265.495C279.784 265.664 280.006 265.907 280.178 266.222C280.351 266.534 280.437 266.941 280.437 267.44V271.992H279.134V271.054H279.081C278.994 271.227 278.865 271.397 278.692 271.563C278.52 271.73 278.298 271.868 278.028 271.978C277.757 272.088 277.433 272.143 277.055 272.143ZM277.345 271.072C277.714 271.072 278.029 270.999 278.291 270.854C278.556 270.708 278.756 270.518 278.893 270.283C279.033 270.045 279.103 269.79 279.103 269.52V268.636C279.055 268.684 278.963 268.728 278.826 268.77C278.692 268.809 278.539 268.843 278.367 268.873C278.194 268.899 278.026 268.925 277.862 268.948C277.699 268.969 277.562 268.987 277.452 269.002C277.193 269.035 276.957 269.09 276.742 269.167C276.531 269.244 276.362 269.356 276.234 269.502C276.109 269.644 276.046 269.835 276.046 270.073C276.046 270.403 276.168 270.653 276.412 270.822C276.656 270.989 276.967 271.072 277.345 271.072ZM285.101 272.13C284.438 272.13 283.866 271.98 283.388 271.679C282.912 271.376 282.546 270.958 282.29 270.425C282.034 269.893 281.906 269.283 281.906 268.596C281.906 267.9 282.037 267.286 282.299 266.753C282.561 266.218 282.929 265.8 283.405 265.499C283.881 265.199 284.442 265.049 285.088 265.049C285.608 265.049 286.072 265.145 286.48 265.339C286.887 265.529 287.216 265.797 287.466 266.142C287.719 266.487 287.869 266.89 287.916 267.351H286.618C286.547 267.03 286.383 266.753 286.127 266.521C285.874 266.289 285.535 266.173 285.11 266.173C284.738 266.173 284.412 266.271 284.133 266.468C283.856 266.661 283.64 266.938 283.486 267.297C283.331 267.654 283.254 268.077 283.254 268.565C283.254 269.064 283.33 269.496 283.481 269.859C283.633 270.222 283.847 270.503 284.124 270.702C284.403 270.901 284.732 271.001 285.11 271.001C285.363 271.001 285.592 270.955 285.797 270.863C286.005 270.767 286.179 270.632 286.319 270.457C286.462 270.281 286.561 270.07 286.618 269.823H287.916C287.869 270.266 287.725 270.662 287.484 271.01C287.243 271.358 286.92 271.632 286.515 271.831C286.114 272.03 285.642 272.13 285.101 272.13ZM292.542 265.138V266.209H288.799V265.138H292.542ZM289.803 263.496H291.137V269.979C291.137 270.238 291.176 270.433 291.253 270.564C291.33 270.692 291.43 270.779 291.552 270.827C291.677 270.872 291.812 270.894 291.958 270.894C292.065 270.894 292.159 270.886 292.239 270.872C292.319 270.857 292.382 270.845 292.426 270.836L292.667 271.938C292.59 271.968 292.48 271.997 292.337 272.027C292.194 272.06 292.016 272.078 291.802 272.081C291.451 272.087 291.124 272.024 290.82 271.893C290.517 271.762 290.271 271.56 290.084 271.287C289.896 271.013 289.803 270.669 289.803 270.256V263.496ZM294.018 271.992V265.138H295.352V271.992H294.018ZM294.692 264.08C294.46 264.08 294.261 264.003 294.094 263.848C293.93 263.691 293.849 263.503 293.849 263.286C293.849 263.066 293.93 262.879 294.094 262.724C294.261 262.566 294.46 262.487 294.692 262.487C294.924 262.487 295.122 262.566 295.285 262.724C295.452 262.879 295.535 263.066 295.535 263.286C295.535 263.503 295.452 263.691 295.285 263.848C295.122 264.003 294.924 264.08 294.692 264.08ZM300.034 272.13C299.392 272.13 298.831 271.983 298.352 271.688C297.873 271.394 297.501 270.982 297.236 270.452C296.972 269.923 296.839 269.304 296.839 268.596C296.839 267.885 296.972 267.263 297.236 266.731C297.501 266.198 297.873 265.785 298.352 265.49C298.831 265.196 299.392 265.049 300.034 265.049C300.677 265.049 301.237 265.196 301.716 265.49C302.195 265.785 302.567 266.198 302.832 266.731C303.097 267.263 303.229 267.885 303.229 268.596C303.229 269.304 303.097 269.923 302.832 270.452C302.567 270.982 302.195 271.394 301.716 271.688C301.237 271.983 300.677 272.13 300.034 272.13ZM300.039 271.01C300.455 271.01 300.8 270.9 301.074 270.68C301.347 270.46 301.55 270.167 301.681 269.801C301.814 269.435 301.881 269.032 301.881 268.591C301.881 268.154 301.814 267.753 301.681 267.387C301.55 267.018 301.347 266.722 301.074 266.499C300.8 266.276 300.455 266.164 300.039 266.164C299.619 266.164 299.271 266.276 298.994 266.499C298.721 266.722 298.517 267.018 298.383 267.387C298.252 267.753 298.187 268.154 298.187 268.591C298.187 269.032 298.252 269.435 298.383 269.801C298.517 270.167 298.721 270.46 298.994 270.68C299.271 270.9 299.619 271.01 300.039 271.01ZM306.052 267.922V271.992H304.718V265.138H305.999V266.253H306.083C306.241 265.89 306.488 265.599 306.824 265.379C307.163 265.159 307.59 265.049 308.105 265.049C308.572 265.049 308.981 265.147 309.332 265.343C309.683 265.536 309.955 265.825 310.148 266.209C310.342 266.592 310.438 267.067 310.438 267.632V271.992H309.104V267.793C309.104 267.296 308.975 266.908 308.716 266.628C308.457 266.346 308.102 266.204 307.65 266.204C307.34 266.204 307.065 266.271 306.824 266.405C306.586 266.539 306.397 266.735 306.258 266.994C306.121 267.25 306.052 267.559 306.052 267.922ZM317.363 266.811L316.154 267.025C316.104 266.871 316.023 266.723 315.913 266.584C315.806 266.444 315.66 266.329 315.476 266.24C315.292 266.151 315.061 266.106 314.784 266.106C314.407 266.106 314.091 266.191 313.838 266.36C313.586 266.527 313.459 266.743 313.459 267.007C313.459 267.236 313.544 267.421 313.714 267.561C313.883 267.701 314.157 267.815 314.535 267.904L315.623 268.154C316.254 268.3 316.724 268.525 317.033 268.828C317.343 269.131 317.497 269.526 317.497 270.01C317.497 270.421 317.378 270.787 317.14 271.108C316.905 271.426 316.577 271.676 316.154 271.858C315.735 272.039 315.248 272.13 314.695 272.13C313.928 272.13 313.302 271.966 312.817 271.639C312.332 271.309 312.034 270.84 311.924 270.233L313.214 270.037C313.294 270.373 313.459 270.628 313.709 270.8C313.959 270.97 314.285 271.054 314.686 271.054C315.124 271.054 315.473 270.964 315.735 270.782C315.997 270.598 316.127 270.373 316.127 270.109C316.127 269.894 316.047 269.714 315.887 269.569C315.729 269.423 315.486 269.313 315.159 269.238L313.999 268.984C313.36 268.838 312.887 268.606 312.58 268.288C312.277 267.97 312.125 267.567 312.125 267.079C312.125 266.674 312.238 266.32 312.464 266.017C312.69 265.713 313.003 265.477 313.401 265.307C313.8 265.135 314.256 265.049 314.771 265.049C315.512 265.049 316.095 265.209 316.52 265.531C316.945 265.849 317.227 266.276 317.363 266.811Z" fill="#3F4346"/>
</g>
<defs>
<filter id="filter0_d_380_610" x="0" y="0.5" width="172.32" height="172.32" filterUnits="userSpaceOnUse" color-interpolation-filters="sRGB">
<feFlood flood-opacity="0" result="BackgroundImageFix"/>
<feColorMatrix in="SourceAlpha" type="matrix" values="0 0 0 0 0 0 0 0 0 0 0 0 0 0 0 0 0 0 127 0" result="hardAlpha"/>
<feOffset dx="3.59" dy="3.59"/>
<feComposite in2="hardAlpha" operator="out"/>
<feColorMatrix type="matrix" values="0 0 0 0 0.6 0 0 0 0 0.800784 0 0 0 0 1 0 0 0 1 0"/>
<feBlend mode="normal" in2="BackgroundImageFix" result="effect1_dropShadow_380_610"/>
<feBlend mode="normal" in="SourceGraphic" in2="effect1_dropShadow_380_610" result="shape"/>
</filter>
<filter id="filter1_d_380_610" x="0" y="190.77" width="172.32" height="172.32" filterUnits="userSpaceOnUse" color-interpolation-filters="sRGB">
<feFlood flood-opacity="0" result="BackgroundImageFix"/>
<feColorMatrix in="SourceAlpha" type="matrix" values="0 0 0 0 0 0 0 0 0 0 0 0 0 0 0 0 0 0 127 0" result="hardAlpha"/>
<feOffset dx="3.59" dy="3.59"/>
<feComposite in2="hardAlpha" operator="out"/>
<feColorMatrix type="matrix" values="0 0 0 0 0.667568 0 0 0 0 0.694595 0 0 0 0 0.932432 0 0 0 1 0"/>
<feBlend mode="normal" in2="BackgroundImageFix" result="effect1_dropShadow_380_610"/>
<feBlend mode="normal" in="SourceGraphic" in2="effect1_dropShadow_380_610" result="shape"/>
</filter>
<filter id="filter2_d_380_610" x="190.27" y="0.5" width="172.32" height="362.59" filterUnits="userSpaceOnUse" color-interpolation-filters="sRGB">
<feFlood flood-opacity="0" result="BackgroundImageFix"/>
<feColorMatrix in="SourceAlpha" type="matrix" values="0 0 0 0 0 0 0 0 0 0 0 0 0 0 0 0 0 0 127 0" result="hardAlpha"/>
<feOffset dx="3.59" dy="3.59"/>
<feComposite in2="hardAlpha" operator="out"/>
<feColorMatrix type="matrix" values="0 0 0 0 0.979608 0 0 0 0 0.800784 0 0 0 0 0.620392 0 0 0 1 0"/>
<feBlend mode="normal" in2="BackgroundImageFix" result="effect1_dropShadow_380_610"/>
<feBlend mode="normal" in="SourceGraphic" in2="effect1_dropShadow_380_610" result="shape"/>
</filter>
</defs>
</svg>
