<?xml version="1.0" encoding="UTF-8"?>
<!DOCTYPE svg PUBLIC "-//W3C//DTD SVG 1.1//EN" "http://www.w3.org/Graphics/SVG/1.1/DTD/svg11.dtd">
<!-- Creator: CorelDRAW X8 -->
<svg xmlns="http://www.w3.org/2000/svg" xml:space="preserve" width="4.21371in" height="3in" version="1.1" style="shape-rendering:geometricPrecision; text-rendering:geometricPrecision; image-rendering:optimizeQuality; fill-rule:evenodd; clip-rule:evenodd"
viewBox="0 0 10037 7146"
 xmlns:xlink="http://www.w3.org/1999/xlink">
 <defs>
  <style type="text/css">
   <![CDATA[
    .fil0 {fill:#1A237E}
    .fil1 {fill:#FEFEFE;fill-rule:nonzero}
    .fil4 {fill:#606062;fill-rule:nonzero}
    .fil2 {fill:black;fill-rule:nonzero}
    .fil3 {fill:#1A237E;fill-rule:nonzero}
   ]]>
  </style>
 </defs>
 <g id="Layer_x0020_1">
  <metadata id="CorelCorpID_0Corel-Layer"/>
  <g id="_2490746905952">
   <path class="fil0" d="M8822 1126l-8483 0c-187,1 -339,153 -339,340l0 5341c0,187 152,339 339,339l8483 0c187,0 339,-152 339,-339l0 -5341c0,-187 -152,-339 -339,-340zm19 5390c-3,190 -159,342 -349,340l-7829 0c-189,2 -345,-150 -348,-340l0 -4769c3,-190 159,-342 348,-340l7834 0c190,-2 346,150 349,340l0 4769 -5 0z"/>
   <rect class="fil0" x="392" y="3528" width="8373" height="570"/>
   <path class="fil1" d="M864 3884l30 8c-6,24 -18,43 -34,55 -16,13 -36,20 -59,20 -24,0 -44,-5 -59,-15 -15,-10 -26,-24 -34,-43 -8,-19 -12,-39 -12,-60 0,-23 4,-44 13,-61 9,-17 22,-31 38,-40 17,-9 35,-13 55,-13 22,0 41,6 56,17 15,11 26,27 32,48l-29 7c-5,-16 -13,-28 -23,-36 -10,-7 -22,-11 -37,-11 -17,0 -32,4 -43,13 -12,8 -20,19 -24,33 -5,14 -7,28 -7,43 0,19 2,36 8,50 5,14 14,25 26,32 11,7 24,10 38,10 16,0 30,-5 42,-14 11,-10 19,-24 23,-43z"/>
   <path id="1" class="fil1" d="M1033 3963l0 -24c-13,18 -30,27 -51,27 -10,0 -19,-2 -27,-5 -8,-4 -15,-9 -19,-14 -4,-6 -6,-12 -8,-20 -1,-6 -2,-14 -2,-26l0 -101 28 0 0 90c0,15 0,24 2,29 1,7 5,13 11,17 5,4 12,6 20,6 9,0 16,-2 23,-6 8,-4 13,-10 16,-17 3,-7 4,-18 4,-32l0 -87 28 0 0 163 -25 0z"/>
   <path id="2" class="fil1" d="M1090 3914l27 -4c2,11 6,19 13,25 7,6 17,9 29,9 13,0 22,-3 29,-8 6,-5 9,-11 9,-18 0,-6 -3,-11 -8,-15 -4,-2 -14,-5 -29,-9 -20,-5 -34,-10 -41,-13 -8,-4 -14,-9 -18,-16 -4,-6 -6,-13 -6,-21 0,-8 1,-14 5,-20 3,-7 8,-12 13,-16 5,-3 10,-6 18,-8 7,-2 15,-3 23,-3 13,0 24,2 34,5 10,4 17,9 21,15 5,7 8,15 10,26l-27 3c-1,-8 -5,-15 -11,-19 -6,-5 -14,-8 -25,-8 -12,0 -21,3 -27,7 -5,4 -8,9 -8,14 0,4 1,7 4,10 2,3 5,5 10,7 3,1 11,4 25,7 19,6 32,10 40,13 8,3 14,8 18,14 5,7 7,15 7,24 0,9 -3,18 -8,26 -5,8 -13,14 -23,19 -10,4 -22,6 -34,6 -22,0 -38,-4 -49,-13 -11,-9 -18,-22 -21,-39z"/>
   <path id="3" class="fil1" d="M1317 3938l4 25c-8,1 -15,2 -21,2 -10,0 -17,-2 -23,-5 -5,-3 -9,-7 -11,-12 -3,-5 -4,-16 -4,-33l0 -93 -20 0 0 -22 20 0 0 -40 28 -16 0 56 27 0 0 22 -27 0 0 95c0,8 0,13 1,15 1,2 3,4 5,5 2,2 5,2 9,2 3,0 7,0 12,-1z"/>
   <path id="4" class="fil1" d="M1334 3882c0,-30 9,-53 25,-67 14,-12 31,-18 51,-18 23,0 41,7 55,22 14,14 21,35 21,60 0,21 -3,38 -9,49 -6,12 -15,22 -27,28 -12,7 -26,10 -40,10 -22,0 -41,-7 -55,-22 -14,-14 -21,-35 -21,-62zm28 0c0,20 5,36 14,46 9,11 21,16 34,16 14,0 25,-5 34,-16 10,-10 14,-26 14,-47 0,-20 -4,-35 -14,-46 -9,-10 -20,-15 -34,-15 -13,0 -25,5 -34,15 -9,10 -14,26 -14,47z"/>
   <path id="5" class="fil1" d="M1519 3963l0 -163 24 0 0 23c5,-8 12,-14 21,-19 8,-5 18,-7 28,-7 12,0 22,2 30,7 8,5 13,12 16,21 13,-19 30,-28 51,-28 16,0 28,4 37,13 9,9 13,23 13,41l0 112 -28 0 0 -102c0,-11 -1,-19 -2,-24 -2,-5 -5,-9 -10,-12 -5,-3 -10,-4 -17,-4 -11,0 -21,3 -28,11 -8,8 -11,20 -11,37l0 94 -28 0 0 -106c0,-12 -2,-21 -7,-27 -4,-6 -12,-9 -22,-9 -7,0 -15,2 -21,6 -7,4 -12,10 -15,18 -2,8 -4,19 -4,34l0 84 -27 0z"/>
   <path id="6" class="fil1" d="M1890 3910l29 4c-5,16 -13,29 -25,39 -12,9 -28,13 -47,13 -23,0 -42,-7 -56,-22 -14,-14 -21,-35 -21,-61 0,-27 7,-48 21,-64 14,-15 32,-22 55,-22 22,0 39,7 53,22 14,15 21,36 21,62 0,2 -1,4 -1,8l-121 0c1,17 6,31 16,40 9,10 20,15 33,15 10,0 19,-3 26,-8 7,-6 13,-14 17,-26zm-90 -44l90 0c-1,-14 -4,-24 -10,-31 -9,-10 -20,-16 -34,-16 -13,0 -23,5 -32,13 -8,9 -13,20 -14,34z"/>
   <path id="7" class="fil1" d="M1953 3963l0 -163 25 0 0 25c6,-11 12,-19 17,-23 6,-3 12,-5 18,-5 9,0 19,3 28,9l-9 25c-7,-4 -14,-6 -21,-6 -6,0 -11,2 -16,6 -4,3 -8,8 -10,15 -3,10 -4,20 -4,32l0 85 -28 0z"/>
   <polygon id="8" class="fil1" points="2148,3963 2148,3739 2178,3739 2296,3915 2296,3739 2324,3739 2324,3963 2294,3963 2176,3787 2176,3963 "/>
   <path id="9" class="fil1" d="M2477 3942c-11,9 -20,15 -30,19 -9,3 -19,5 -30,5 -18,0 -32,-4 -41,-13 -10,-8 -15,-20 -15,-33 0,-8 2,-15 6,-22 3,-6 8,-12 14,-16 6,-4 12,-7 20,-9 5,-1 13,-2 24,-4 22,-2 39,-6 49,-9 0,-4 1,-6 1,-7 0,-12 -3,-19 -8,-24 -7,-6 -18,-9 -32,-9 -13,0 -22,2 -28,7 -7,4 -11,12 -14,24l-27 -4c2,-12 6,-21 12,-28 6,-7 14,-13 24,-16 11,-4 23,-6 37,-6 14,0 26,2 34,5 9,3 15,7 19,12 4,5 7,11 9,19 1,5 1,13 1,25l0 37c0,25 1,41 2,48 1,7 3,14 7,20l-29 0c-3,-6 -5,-13 -5,-21zm-2 -61c-11,4 -26,8 -46,11 -11,1 -19,3 -24,5 -4,2 -8,5 -11,9 -2,4 -3,8 -3,13 0,7 2,13 8,18 6,5 14,8 24,8 11,0 20,-3 29,-7 8,-5 14,-11 18,-19 3,-6 4,-16 4,-28l1 -10z"/>
   <path id="10" class="fil1" d="M2545 3963l0 -163 24 0 0 23c5,-8 12,-14 21,-19 8,-5 18,-7 29,-7 12,0 21,2 29,7 8,5 13,12 16,21 13,-19 30,-28 51,-28 16,0 28,4 37,13 9,9 13,23 13,41l0 112 -28 0 0 -102c0,-11 0,-19 -2,-24 -2,-5 -5,-9 -10,-12 -5,-3 -10,-4 -17,-4 -11,0 -21,3 -28,11 -8,8 -11,20 -11,37l0 94 -28 0 0 -106c0,-12 -2,-21 -7,-27 -4,-6 -12,-9 -22,-9 -7,0 -15,2 -21,6 -7,4 -11,10 -14,18 -3,8 -5,19 -5,34l0 84 -27 0z"/>
   <path id="11" class="fil1" d="M2916 3910l29 4c-5,16 -13,29 -25,39 -12,9 -28,13 -47,13 -23,0 -42,-7 -56,-22 -14,-14 -21,-35 -21,-61 0,-27 7,-48 21,-64 14,-15 33,-22 55,-22 22,0 39,7 53,22 14,15 21,36 21,62 0,2 0,4 -1,8l-121 0c2,17 7,31 16,40 9,10 20,15 33,15 11,0 19,-3 26,-8 7,-6 13,-14 17,-26zm-90 -44l90 0c-1,-14 -4,-24 -10,-31 -9,-10 -20,-16 -34,-16 -13,0 -23,5 -32,13 -8,9 -13,20 -14,34z"/>
   <polygon class="fil1" points="5380,3963 5380,3739 5531,3739 5531,3765 5410,3765 5410,3835 5515,3835 5515,3861 5410,3861 5410,3963 "/>
   <path id="1" class="fil1" d="M5672 3963l0 -24c-12,18 -29,27 -51,27 -10,0 -18,-2 -27,-5 -8,-4 -14,-9 -18,-14 -4,-6 -7,-12 -9,-20 -1,-6 -1,-14 -1,-26l0 -101 27 0 0 90c0,15 1,24 2,29 2,7 5,13 11,17 5,4 12,6 21,6 8,0 16,-2 23,-6 7,-4 12,-10 15,-17 3,-7 5,-18 5,-32l0 -87 27 0 0 163 -25 0z"/>
   <path id="2" class="fil1" d="M5800 3938l4 25c-8,1 -15,2 -21,2 -10,0 -18,-2 -23,-5 -6,-3 -9,-7 -12,-12 -2,-5 -3,-16 -3,-33l0 -93 -20 0 0 -22 20 0 0 -40 28 -16 0 56 27 0 0 22 -27 0 0 95c0,8 0,13 1,15 1,2 3,4 5,5 2,2 5,2 9,2 3,0 7,0 12,-1z"/>
   <path id="3" class="fil1" d="M5933 3963l0 -24c-12,18 -29,27 -51,27 -10,0 -18,-2 -27,-5 -8,-4 -14,-9 -18,-14 -4,-6 -7,-12 -9,-20 -1,-6 -1,-14 -1,-26l0 -101 27 0 0 90c0,15 1,24 2,29 2,7 5,13 11,17 5,4 12,6 21,6 8,0 16,-2 23,-6 7,-4 12,-10 15,-17 3,-7 5,-18 5,-32l0 -87 27 0 0 163 -25 0z"/>
   <path id="4" class="fil1" d="M6001 3963l0 -163 25 0 0 25c6,-11 12,-19 17,-23 6,-3 12,-5 18,-5 9,0 19,3 28,9l-9 25c-7,-4 -14,-6 -21,-6 -5,0 -11,2 -16,6 -4,3 -8,8 -10,15 -3,10 -4,20 -4,32l0 85 -28 0z"/>
   <path id="5" class="fil1" d="M6216 3910l29 4c-5,16 -13,29 -25,39 -12,9 -27,13 -46,13 -24,0 -43,-7 -57,-22 -14,-14 -20,-35 -20,-61 0,-27 7,-48 21,-64 14,-15 32,-22 54,-22 22,0 40,7 53,22 14,15 21,36 21,62 0,2 0,4 0,8l-121 0c1,17 6,31 15,40 9,10 20,15 34,15 10,0 18,-3 25,-8 8,-6 13,-14 17,-26zm-90 -44l91 0c-1,-14 -5,-24 -11,-31 -8,-10 -20,-16 -34,-16 -12,0 -23,5 -31,13 -9,9 -14,20 -15,34z"/>
   <path id="6" class="fil1" d="M6370 3963l0 -224 77 0c18,0 31,1 40,3 13,3 24,8 33,16 12,10 21,23 27,38 5,16 8,34 8,54 0,17 -2,32 -6,45 -4,13 -9,24 -15,32 -6,9 -13,16 -20,21 -8,5 -17,8 -27,11 -10,3 -22,4 -36,4l-81 0zm30 -27l48 0c14,0 26,-1 34,-4 9,-2 15,-6 20,-11 7,-7 13,-17 17,-29 4,-12 6,-26 6,-43 0,-23 -4,-41 -12,-54 -7,-13 -17,-21 -28,-25 -8,-4 -21,-5 -38,-5l-47 0 0 171z"/>
   <path id="7" class="fil1" d="M6699 3963l0 -24c-13,18 -30,27 -52,27 -9,0 -18,-2 -26,-5 -9,-4 -15,-9 -19,-14 -4,-6 -7,-12 -8,-20 -1,-6 -2,-14 -2,-26l0 -101 28 0 0 90c0,15 0,24 1,29 2,7 6,13 11,17 6,4 13,6 21,6 8,0 16,-2 23,-6 7,-4 12,-10 15,-17 3,-7 5,-18 5,-32l0 -87 28 0 0 163 -25 0z"/>
   <path id="8" class="fil1" d="M6878 3910l28 4c-4,16 -13,29 -25,39 -12,9 -27,13 -46,13 -24,0 -43,-7 -57,-22 -13,-14 -20,-35 -20,-61 0,-27 7,-48 21,-64 14,-15 32,-22 54,-22 22,0 40,7 53,22 14,15 21,36 21,62 0,2 0,4 0,8l-121 0c1,17 6,31 15,40 9,10 20,15 34,15 10,0 18,-3 26,-8 7,-6 12,-14 17,-26zm-91 -44l91 0c-1,-14 -5,-24 -11,-31 -8,-10 -20,-16 -34,-16 -12,0 -23,5 -31,13 -9,9 -14,20 -15,34z"/>
   <path class="fil1" d="M7473 3856c0,-38 10,-67 30,-88 20,-21 46,-31 78,-31 20,0 39,5 56,15 16,9 29,23 38,41 8,18 13,38 13,60 0,23 -5,43 -14,61 -9,18 -22,31 -39,41 -17,9 -35,13 -55,13 -21,0 -39,-5 -56,-15 -17,-10 -29,-24 -38,-42 -8,-17 -13,-36 -13,-55zm31 0c0,27 7,48 22,64 14,15 32,23 54,23 23,0 41,-8 55,-23 15,-16 22,-38 22,-67 0,-18 -3,-34 -9,-48 -6,-13 -15,-24 -27,-31 -12,-8 -25,-12 -40,-12 -21,0 -39,8 -54,22 -15,14 -23,38 -23,72z"/>
   <polygon id="1" class="fil1" points="7722,3965 7722,3741 7749,3741 7749,3965 "/>
   <path id="2" class="fil1" d="M7897 3965l0 -21c-11,16 -26,24 -46,24 -13,0 -24,-3 -35,-11 -11,-7 -20,-17 -26,-29 -5,-13 -8,-28 -8,-44 0,-17 2,-31 8,-44 5,-14 13,-24 24,-31 11,-7 23,-10 36,-10 10,0 19,2 26,6 8,4 14,9 19,16l0 -80 27 0 0 224 -25 0zm-87 -81c0,20 4,36 13,46 9,10 19,16 31,16 12,0 22,-5 31,-15 8,-10 12,-25 12,-45 0,-22 -4,-38 -13,-49 -8,-10 -19,-15 -31,-15 -12,0 -23,5 -31,14 -8,10 -12,26 -12,48z"/>
   <path id="3" class="fil1" d="M8056 3965l0 -224 78 0c17,0 30,1 39,3 13,3 24,8 33,16 12,10 21,23 27,38 6,16 9,33 9,53 0,17 -2,32 -6,46 -4,13 -9,24 -16,32 -6,9 -13,16 -20,21 -7,4 -16,8 -27,11 -10,2 -22,4 -36,4l-81 0zm30 -27l48 0c15,0 26,-1 35,-4 8,-3 15,-6 20,-11 7,-7 12,-17 16,-29 4,-12 6,-26 6,-43 0,-24 -4,-42 -12,-54 -7,-13 -17,-21 -28,-26 -7,-3 -20,-4 -38,-4l-47 0 0 171z"/>
   <path id="4" class="fil1" d="M8385 3965l0 -25c-13,19 -30,28 -51,28 -10,0 -19,-2 -27,-5 -8,-4 -15,-9 -19,-14 -4,-6 -6,-13 -8,-21 -1,-5 -2,-14 -2,-25l0 -101 28 0 0 90c0,14 0,24 2,29 1,7 5,13 11,17 5,4 12,6 20,6 9,0 16,-2 23,-6 8,-4 13,-10 16,-17 3,-8 4,-18 4,-32l0 -87 28 0 0 163 -25 0z"/>
   <path id="5" class="fil1" d="M8564 3912l28 4c-4,16 -12,29 -25,38 -12,9 -27,14 -46,14 -24,0 -42,-7 -56,-22 -14,-14 -21,-35 -21,-61 0,-27 7,-49 21,-64 14,-15 32,-22 55,-22 21,0 39,7 53,22 13,15 20,35 20,62 0,2 0,4 0,7l-121 0c1,18 6,32 15,41 9,10 21,15 34,15 10,0 19,-3 26,-8 7,-6 13,-14 17,-26zm-90 -44l90 0c-1,-14 -5,-24 -10,-31 -9,-10 -20,-16 -34,-16 -13,0 -23,4 -32,13 -9,8 -13,20 -14,34z"/>
   <polygon class="fil1" points="3586,3965 3586,3767 3512,3767 3512,3741 3689,3741 3689,3767 3615,3767 3615,3965 "/>
   <path id="1" class="fil1" d="M3672 3883c0,-30 8,-52 25,-66 14,-12 31,-18 51,-18 22,0 40,7 54,22 15,14 22,34 22,60 0,21 -3,37 -10,49 -6,12 -15,22 -27,28 -12,7 -25,10 -39,10 -23,0 -41,-7 -55,-22 -14,-14 -21,-35 -21,-63zm28 0c0,21 4,37 13,47 9,10 21,16 35,16 13,0 25,-6 34,-16 9,-10 13,-26 13,-47 0,-20 -4,-36 -13,-46 -9,-10 -21,-15 -34,-15 -14,0 -26,5 -35,15 -9,10 -13,26 -13,46z"/>
   <path id="2" class="fil1" d="M3916 3940l3 24c-7,2 -14,3 -20,3 -10,0 -18,-2 -23,-5 -6,-3 -10,-7 -12,-12 -2,-6 -3,-16 -3,-33l0 -94 -21 0 0 -21 21 0 0 -40 27 -17 0 57 28 0 0 21 -28 0 0 96c0,7 1,13 2,15 1,2 2,4 4,5 3,1 6,2 10,2 3,0 7,0 12,-1z"/>
   <path id="3" class="fil1" d="M4049 3944c-10,9 -20,15 -30,19 -9,3 -19,5 -30,5 -18,0 -32,-4 -41,-13 -10,-9 -15,-20 -15,-33 0,-8 2,-15 6,-22 4,-7 8,-12 14,-16 6,-4 13,-7 20,-9 5,-1 14,-3 24,-4 23,-3 39,-6 50,-9 0,-4 0,-7 0,-8 0,-11 -3,-19 -8,-23 -7,-6 -18,-9 -31,-9 -13,0 -23,2 -29,6 -6,5 -11,13 -14,25l-27 -4c3,-12 7,-21 12,-28 6,-7 14,-13 25,-17 10,-3 23,-5 37,-5 14,0 25,1 34,5 8,3 15,7 19,12 4,5 7,11 8,19 1,4 2,13 2,25l0 37c0,25 0,41 1,48 1,7 4,13 7,20l-29 0c-2,-6 -4,-13 -5,-21zm-2 -61c-10,4 -25,8 -45,11 -12,1 -20,3 -24,5 -5,2 -9,5 -11,9 -3,4 -4,8 -4,13 0,7 3,13 8,18 6,5 14,7 25,7 10,0 20,-2 28,-6 8,-5 14,-11 18,-19 3,-7 5,-16 5,-28l0 -10z"/>
   <polygon id="4" class="fil1" points="4116,3965 4116,3741 4144,3741 4144,3965 "/>
   <path id="5" class="fil1" d="M4277 3965l0 -224 77 0c18,0 31,1 40,3 13,3 24,8 33,16 12,10 21,23 26,38 6,16 9,33 9,53 0,17 -2,32 -6,46 -4,13 -9,24 -15,32 -6,9 -13,16 -20,21 -8,4 -17,8 -27,11 -11,2 -23,4 -36,4l-81 0zm30 -27l47 0c15,0 27,-1 35,-4 9,-3 15,-6 20,-11 7,-7 13,-17 17,-29 4,-12 6,-26 6,-43 0,-24 -4,-42 -12,-54 -8,-13 -17,-21 -28,-26 -8,-3 -21,-4 -38,-4l-47 0 0 171z"/>
   <path id="6" class="fil1" d="M4606 3965l0 -25c-13,19 -30,28 -52,28 -9,0 -18,-2 -27,-5 -8,-4 -14,-9 -18,-14 -4,-6 -7,-13 -8,-21 -2,-5 -2,-14 -2,-25l0 -101 27 0 0 90c0,14 1,24 2,29 2,7 5,13 11,17 6,4 13,6 21,6 8,0 16,-2 23,-6 7,-4 12,-10 15,-17 3,-8 5,-18 5,-32l0 -87 27 0 0 163 -24 0z"/>
   <path id="7" class="fil1" d="M4784 3912l29 4c-5,16 -13,29 -25,38 -12,9 -28,14 -46,14 -24,0 -43,-7 -57,-22 -14,-14 -21,-35 -21,-61 0,-27 7,-49 22,-64 14,-15 32,-22 54,-22 22,0 39,7 53,22 14,15 21,35 21,62 0,2 0,4 0,7l-121 0c1,18 6,32 15,41 9,10 20,15 34,15 10,0 18,-3 25,-8 8,-6 13,-14 17,-26zm-90 -44l91 0c-2,-14 -5,-24 -11,-31 -8,-10 -20,-16 -34,-16 -12,0 -23,4 -32,13 -8,8 -13,20 -14,34z"/>
   <path class="fil2" d="M696 4639l0 -224 99 0c20,0 35,2 46,6 10,4 18,11 25,21 6,11 9,22 9,34 0,16 -5,30 -15,40 -11,11 -27,18 -48,21 8,4 14,8 18,11 8,8 17,18 24,30l39 61 -37 0 -30 -46c-8,-14 -15,-24 -21,-31 -6,-7 -11,-12 -15,-15 -4,-3 -9,-5 -14,-6 -3,-1 -8,-1 -16,-1l-34 0 0 99 -30 0zm30 -125l63 0c14,0 24,-1 32,-4 8,-3 13,-7 17,-14 4,-6 6,-12 6,-20 0,-10 -4,-19 -11,-26 -8,-7 -20,-10 -36,-10l-71 0 0 74z"/>
   <path id="1" class="fil2" d="M1024 4619c-10,9 -20,15 -30,18 -9,4 -19,6 -30,6 -18,0 -32,-5 -41,-13 -10,-9 -15,-20 -15,-34 0,-8 2,-15 6,-21 4,-7 8,-12 14,-16 6,-4 13,-7 20,-9 5,-2 14,-3 25,-4 22,-3 38,-6 49,-10 0,-4 0,-6 0,-7 0,-11 -3,-19 -8,-24 -7,-6 -18,-9 -31,-9 -13,0 -23,2 -29,7 -6,5 -11,13 -14,24l-27 -4c3,-11 7,-20 12,-28 6,-7 14,-12 25,-16 10,-4 23,-6 37,-6 14,0 25,2 34,5 8,4 15,8 19,13 4,5 7,11 8,18 1,5 2,13 2,26l0 36c0,26 0,42 1,49 1,6 4,13 7,19l-29 0c-2,-6 -4,-12 -5,-20zm-2 -61c-10,4 -25,7 -45,10 -12,2 -20,4 -24,6 -5,2 -9,5 -11,9 -3,3 -4,8 -4,13 0,7 3,13 8,18 6,5 14,7 25,7 10,0 20,-2 28,-7 8,-4 14,-11 18,-19 3,-6 5,-15 5,-27l0 -10z"/>
   <path id="2" class="fil2" d="M1092 4447l0 -32 27 0 0 32 -27 0zm-35 255l5 -23c6,1 10,2 13,2 6,0 10,-2 13,-6 2,-3 4,-13 4,-28l0 -170 27 0 0 171c0,20 -2,34 -7,42 -7,10 -18,15 -33,15 -8,0 -15,-1 -22,-3z"/>
   <path id="3" class="fil2" d="M1272 4587l29 3c-5,17 -13,30 -25,39 -12,9 -28,14 -46,14 -24,0 -43,-8 -57,-22 -14,-15 -21,-35 -21,-62 0,-27 7,-48 21,-63 14,-15 33,-23 55,-23 22,0 39,8 53,22 14,15 21,36 21,63 0,1 0,4 0,7l-121 0c1,18 6,31 15,41 9,9 20,14 34,14 10,0 18,-3 25,-8 7,-5 13,-14 17,-25zm-90 -44l91 0c-2,-14 -5,-24 -11,-31 -8,-11 -20,-16 -34,-16 -12,0 -23,4 -32,13 -8,8 -13,19 -14,34z"/>
   <path id="4" class="fil2" d="M1325 4591l27 -5c1,11 6,20 13,25 7,6 16,9 29,9 13,0 22,-2 28,-8 6,-5 9,-11 9,-18 0,-6 -2,-11 -8,-14 -4,-3 -13,-6 -28,-10 -20,-5 -34,-9 -42,-13 -8,-4 -14,-9 -18,-15 -4,-7 -6,-14 -6,-22 0,-7 2,-14 5,-20 4,-6 8,-11 14,-15 4,-4 10,-6 17,-8 8,-3 16,-4 24,-4 13,0 24,2 33,6 10,4 17,9 22,15 4,6 8,15 9,25l-27 4c-1,-9 -4,-15 -10,-20 -6,-5 -14,-7 -25,-7 -13,0 -22,2 -27,6 -5,4 -8,9 -8,15 0,3 1,7 3,9 2,3 6,6 11,8 3,1 11,3 24,7 19,5 33,9 41,13 7,3 14,8 18,14 4,6 7,14 7,23 0,10 -3,18 -9,26 -5,8 -13,15 -23,19 -10,4 -21,7 -34,7 -21,0 -37,-5 -48,-13 -11,-9 -18,-22 -21,-39z"/>
   <path id="5" class="fil2" d="M1492 4639l0 -224 28 0 0 81c12,-15 29,-23 48,-23 12,0 22,3 31,7 9,5 15,12 19,20 4,8 6,21 6,36l0 103 -28 0 0 -102c0,-14 -3,-24 -9,-30 -6,-7 -14,-10 -25,-10 -8,0 -15,2 -23,6 -7,5 -12,10 -15,18 -3,7 -4,17 -4,30l0 88 -28 0z"/>
   <path id="6" class="fil2" d="M1742 4576l26 -4c1,17 4,29 10,35 5,7 13,10 23,10 8,0 14,-2 20,-5 5,-4 9,-9 11,-14 2,-6 3,-16 3,-28l0 -155 30 0 0 153c0,19 -3,33 -7,43 -5,11 -12,18 -22,24 -10,5 -21,8 -34,8 -20,0 -35,-6 -45,-17 -11,-11 -16,-28 -15,-50z"/>
   <path id="7" class="fil2" d="M2016 4619c-11,9 -20,15 -30,18 -9,4 -19,6 -30,6 -18,0 -32,-5 -41,-13 -10,-9 -15,-20 -15,-34 0,-8 2,-15 6,-21 3,-7 8,-12 14,-16 6,-4 12,-7 20,-9 5,-2 13,-3 24,-4 22,-3 39,-6 49,-10 0,-4 1,-6 1,-7 0,-11 -3,-19 -8,-24 -7,-6 -18,-9 -32,-9 -13,0 -22,2 -28,7 -7,5 -11,13 -14,24l-27 -4c2,-11 6,-20 12,-28 6,-7 14,-12 24,-16 11,-4 23,-6 37,-6 14,0 26,2 34,5 9,4 15,8 19,13 4,5 7,11 9,18 1,5 1,13 1,26l0 36c0,26 1,42 2,49 1,6 3,13 7,19l-29 0c-3,-6 -5,-12 -5,-20zm-2 -61c-10,4 -26,7 -46,10 -11,2 -19,4 -24,6 -4,2 -8,5 -11,9 -2,3 -3,8 -3,13 0,7 2,13 8,18 6,5 14,7 24,7 11,0 20,-2 29,-7 8,-4 14,-11 18,-19 3,-6 4,-15 4,-27l1 -10z"/>
   <path id="8" class="fil2" d="M2084 4446l0 -31 27 0 0 31 -27 0zm0 193l0 -162 27 0 0 162 -27 0z"/>
   <path id="9" class="fil2" d="M2153 4639l0 -162 25 0 0 23c12,-18 29,-27 52,-27 9,0 18,2 27,6 8,3 14,8 18,13 4,6 7,13 8,21 1,5 2,14 2,26l0 100 -28 0 0 -98c0,-12 -1,-20 -3,-26 -2,-5 -6,-10 -11,-13 -6,-3 -12,-5 -19,-5 -12,0 -22,4 -31,11 -8,8 -12,22 -12,43l0 88 -28 0z"/>
   <path class="fil2" d="M6383 4613l0 26 -148 0c0,-6 1,-13 3,-19 4,-10 10,-20 18,-30 9,-9 21,-21 36,-34 25,-19 41,-35 50,-47 8,-12 13,-23 13,-33 0,-11 -4,-20 -12,-28 -8,-7 -18,-11 -31,-11 -13,0 -24,4 -32,12 -8,8 -12,19 -12,33l-28 -3c2,-21 9,-37 22,-48 13,-11 30,-17 51,-17 21,0 39,6 51,18 13,12 19,27 19,44 0,9 -2,18 -6,27 -3,9 -9,18 -18,27 -8,10 -23,23 -42,40 -17,14 -28,23 -32,28 -5,5 -9,10 -12,15l110 0z"/>
   <path id="1" class="fil2" d="M6413 4529c0,-27 3,-48 8,-64 6,-17 14,-29 24,-38 11,-8 25,-13 41,-13 12,0 22,3 32,7 9,5 16,12 22,21 6,9 10,21 14,34 3,13 5,30 5,53 0,26 -3,47 -8,63 -6,17 -14,29 -24,38 -11,9 -25,13 -41,13 -22,0 -39,-8 -51,-23 -15,-19 -22,-49 -22,-91zm28 0c0,37 4,61 13,73 9,12 19,18 32,18 13,0 23,-6 32,-18 8,-12 13,-36 13,-73 0,-37 -5,-62 -13,-74 -9,-12 -20,-18 -32,-18 -13,0 -23,5 -31,16 -9,14 -14,39 -14,76z"/>
   <path id="2" class="fil2" d="M6587 4529c0,-27 3,-48 8,-64 6,-17 14,-29 24,-38 11,-8 25,-13 41,-13 12,0 22,3 32,7 9,5 16,12 22,21 6,9 10,21 14,34 3,13 5,30 5,53 0,26 -3,47 -8,63 -6,17 -14,29 -24,38 -11,9 -25,13 -41,13 -22,0 -39,-8 -51,-23 -15,-19 -22,-49 -22,-91zm28 0c0,37 4,61 13,73 9,12 19,18 32,18 13,0 23,-6 32,-18 8,-12 13,-36 13,-73 0,-37 -5,-62 -13,-74 -9,-12 -19,-18 -32,-18 -13,0 -23,5 -31,16 -9,14 -14,39 -14,76z"/>
   <path id="3" class="fil2" d="M6761 4529c0,-27 3,-48 8,-64 6,-17 14,-29 25,-38 10,-8 24,-13 40,-13 12,0 23,3 32,7 9,5 16,12 22,21 6,9 11,21 14,34 3,13 5,30 5,53 0,26 -3,47 -8,63 -5,17 -14,29 -24,38 -11,9 -25,13 -41,13 -22,0 -38,-8 -51,-23 -15,-19 -22,-49 -22,-91zm28 0c0,37 5,61 13,73 9,12 19,18 32,18 13,0 23,-6 32,-18 9,-12 13,-36 13,-73 0,-37 -4,-62 -13,-74 -9,-12 -19,-18 -32,-18 -13,0 -23,5 -31,16 -9,14 -14,39 -14,76z"/>
   <path class="fil2" d="M768 5252l-86 -224 32 0 58 163c5,13 9,25 12,37 3,-13 7,-25 12,-37l60 -163 30 0 -87 224 -31 0z"/>
   <path id="1" class="fil2" d="M904 5059l0 -31 28 0 0 31 -28 0zm0 193l0 -162 28 0 0 162 -28 0z"/>
   <path id="2" class="fil2" d="M973 5060l0 -32 28 0 0 32 -28 0zm-34 255l5 -23c5,1 10,2 13,2 5,0 10,-2 12,-6 3,-3 4,-13 4,-28l0 -170 28 0 0 171c0,20 -3,34 -8,42 -6,10 -17,15 -33,15 -7,0 -14,-1 -21,-3z"/>
   <path id="3" class="fil2" d="M1149 5232c-10,9 -20,15 -29,18 -10,4 -20,6 -31,6 -18,0 -31,-5 -41,-13 -9,-9 -14,-20 -14,-34 0,-8 2,-15 5,-21 4,-7 9,-12 14,-16 6,-4 13,-7 20,-9 6,-2 14,-3 25,-4 22,-3 38,-6 49,-10 0,-4 0,-6 0,-7 0,-11 -3,-19 -8,-24 -7,-6 -17,-9 -31,-9 -13,0 -23,2 -29,7 -6,5 -11,13 -14,24l-27 -4c3,-11 7,-21 13,-28 5,-7 13,-12 24,-16 11,-4 23,-6 37,-6 14,0 25,2 34,5 8,3 15,8 19,12 4,5 7,12 9,19 0,5 1,13 1,26l0 36c0,26 0,42 2,49 1,6 3,13 6,19l-28 0c-3,-6 -5,-12 -6,-20zm-2 -61c-10,4 -25,7 -45,10 -11,2 -19,4 -24,6 -5,2 -8,5 -11,8 -3,4 -4,9 -4,13 0,8 3,14 9,19 5,5 13,7 24,7 11,0 20,-2 28,-7 8,-5 15,-11 18,-19 3,-6 5,-15 5,-27l0 -10z"/>
   <path id="4" class="fil2" d="M1216 5315l-3 -26c6,2 11,3 16,3 6,0 11,-1 14,-3 4,-3 7,-5 9,-9 2,-3 5,-10 9,-21 0,-1 1,-3 2,-6l-61 -163 29 0 34 94c4,11 8,24 12,37 3,-12 7,-25 11,-37l35 -94 27 0 -61 165c-7,18 -12,30 -16,37 -5,9 -10,15 -17,20 -6,4 -13,6 -22,6 -6,0 -12,-1 -18,-3z"/>
   <path id="5" class="fil2" d="M1528 5252l-87 -224 32 0 59 163c4,13 8,25 11,37 4,-13 8,-25 12,-37l61 -163 30 0 -87 224 -31 0z"/>
   <path id="6" class="fil2" d="M1657 5315l-4 -26c6,2 12,3 16,3 6,0 11,-1 15,-3 4,-3 7,-5 9,-9 2,-3 4,-10 8,-21 1,-1 2,-3 3,-6l-62 -163 30 0 33 94c5,11 9,24 12,37 3,-12 7,-25 12,-37l34 -94 28 0 -62 165c-6,18 -11,30 -15,37 -5,9 -11,15 -17,20 -6,4 -14,6 -23,6 -5,0 -11,-1 -17,-3z"/>
   <path id="7" class="fil2" d="M1920 5232c-10,9 -20,15 -29,18 -10,4 -20,6 -31,6 -17,0 -31,-5 -41,-13 -9,-9 -14,-20 -14,-34 0,-8 2,-15 5,-21 4,-7 9,-12 15,-16 5,-4 12,-7 19,-9 6,-2 14,-3 25,-4 22,-3 39,-6 49,-10 0,-4 0,-6 0,-7 0,-11 -2,-19 -8,-24 -7,-6 -17,-9 -31,-9 -13,0 -23,2 -29,7 -6,5 -11,13 -13,24l-27 -4c2,-11 6,-21 12,-28 5,-7 13,-12 24,-16 11,-4 23,-6 37,-6 14,0 25,2 34,5 9,3 15,8 19,12 4,5 7,12 9,19 1,5 1,13 1,26l0 36c0,26 1,42 2,49 1,6 3,13 7,19l-29 0c-3,-6 -5,-12 -6,-20zm-2 -61c-10,4 -25,7 -45,10 -11,2 -19,4 -24,6 -5,2 -8,5 -11,8 -2,4 -4,9 -4,13 0,8 3,14 9,19 5,5 13,7 24,7 11,0 20,-2 28,-7 9,-5 15,-11 19,-19 3,-6 4,-15 4,-27l0 -10z"/>
   <path id="8" class="fil2" d="M1977 5204l28 -5c1,11 5,20 12,25 7,6 17,9 30,9 12,0 22,-2 28,-8 6,-5 9,-11 9,-18 0,-6 -3,-11 -8,-14 -4,-3 -13,-6 -28,-10 -20,-5 -34,-9 -42,-13 -8,-4 -14,-9 -18,-15 -4,-7 -6,-14 -6,-22 0,-7 2,-14 5,-20 3,-6 8,-11 14,-15 4,-4 10,-6 17,-8 7,-3 15,-4 24,-4 13,0 24,2 33,6 10,3 17,8 22,15 4,6 7,14 9,25l-27 4c-1,-9 -5,-15 -10,-20 -6,-5 -15,-7 -25,-7 -13,0 -22,2 -27,6 -6,4 -8,9 -8,15 0,3 1,7 3,9 2,3 6,6 11,8 2,1 10,3 24,7 19,5 33,9 41,12 7,4 13,9 18,15 4,6 6,14 6,23 0,10 -2,18 -8,26 -5,8 -13,15 -23,19 -10,4 -21,7 -34,7 -21,0 -37,-5 -48,-13 -11,-9 -19,-22 -22,-39z"/>
   <path class="fil2" d="M3973 4639l0 -53 -98 0 0 -26 103 -145 22 0 0 145 31 0 0 26 -31 0 0 53 -27 0zm0 -79l0 -100 -71 100 71 0z"/>
   <path id="1" class="fil2" d="M4059 4580l29 -2c2,14 7,25 14,32 8,7 18,10 29,10 13,0 24,-5 33,-15 9,-10 14,-23 14,-39 0,-16 -4,-28 -13,-37 -9,-9 -20,-14 -35,-14 -9,0 -17,2 -24,6 -7,4 -12,9 -16,16l-26 -4 21 -115 111 0 0 26 -89 0 -12 61c14,-10 28,-14 43,-14 19,0 36,6 49,20 13,13 20,31 20,52 0,20 -6,38 -18,53 -14,18 -34,27 -58,27 -21,0 -37,-6 -50,-17 -13,-12 -20,-27 -22,-46z"/>
   <path id="2" class="fil2" d="M4248 4639l0 -31 31 0 0 31c0,12 -2,21 -6,28 -4,7 -11,13 -20,17l-7 -12c5,-3 10,-7 12,-11 3,-5 5,-12 5,-22l-15 0z"/>
   <path id="3" class="fil2" d="M4320 4529c0,-27 2,-48 8,-64 5,-17 13,-29 24,-38 11,-8 24,-13 41,-13 12,0 22,3 31,7 9,5 17,12 23,21 6,9 10,21 14,34 3,13 5,30 5,53 0,26 -3,47 -8,63 -6,17 -14,29 -25,38 -10,9 -24,13 -40,13 -22,0 -39,-8 -51,-23 -15,-19 -22,-49 -22,-91zm28 0c0,37 4,61 13,73 8,12 19,18 32,18 12,0 23,-6 32,-18 8,-12 12,-36 12,-73 0,-37 -4,-62 -12,-74 -9,-12 -20,-18 -33,-18 -12,0 -22,5 -30,16 -9,14 -14,39 -14,76z"/>
   <path id="4" class="fil2" d="M4494 4529c0,-27 3,-48 8,-64 5,-17 14,-29 24,-38 11,-8 25,-13 41,-13 12,0 22,3 31,7 10,5 17,12 23,21 6,9 10,21 14,34 3,13 5,30 5,53 0,26 -3,47 -8,63 -6,17 -14,29 -25,38 -10,9 -24,13 -40,13 -22,0 -39,-8 -51,-23 -15,-19 -22,-49 -22,-91zm28 0c0,37 4,61 13,73 9,12 19,18 32,18 12,0 23,-6 32,-18 8,-12 13,-36 13,-73 0,-37 -5,-62 -13,-74 -9,-12 -20,-18 -33,-18 -12,0 -22,5 -30,16 -9,14 -14,39 -14,76z"/>
   <path id="5" class="fil2" d="M4668 4529c0,-27 3,-48 8,-64 6,-17 14,-29 24,-38 11,-8 25,-13 41,-13 12,0 22,3 32,7 9,5 16,12 22,21 6,9 10,21 14,34 3,13 5,30 5,53 0,26 -3,47 -8,63 -6,17 -14,29 -25,38 -10,9 -24,13 -40,13 -22,0 -39,-8 -51,-23 -15,-19 -22,-49 -22,-91zm28 0c0,37 4,61 13,73 9,12 19,18 32,18 12,0 23,-6 32,-18 8,-12 13,-36 13,-73 0,-37 -5,-62 -13,-74 -9,-12 -20,-18 -32,-18 -13,0 -23,5 -31,16 -9,14 -14,39 -14,76z"/>
   <path class="fil2" d="M4059 5193l29 -2c2,14 7,25 14,32 8,7 18,10 29,10 13,0 24,-5 33,-15 9,-10 14,-23 14,-39 0,-16 -4,-28 -13,-37 -9,-10 -20,-14 -35,-14 -9,0 -17,2 -24,6 -7,4 -12,9 -16,16l-26 -4 21 -115 111 0 0 26 -89 0 -12 61c14,-10 28,-15 43,-15 19,0 36,7 49,21 13,13 20,31 20,52 0,20 -6,38 -18,53 -14,18 -34,27 -58,27 -21,0 -37,-6 -50,-17 -13,-12 -20,-27 -22,-46z"/>
   <path id="1" class="fil2" d="M4248 5252l0 -31 31 0 0 31c0,12 -2,21 -6,28 -4,7 -11,13 -20,17l-7 -12c5,-3 10,-7 12,-12 3,-4 5,-12 5,-21l-15 0z"/>
   <path id="2" class="fil2" d="M4463 5083l-27 2c-3,-11 -6,-19 -11,-24 -7,-7 -17,-11 -28,-11 -8,0 -16,2 -23,7 -9,6 -15,16 -20,28 -5,12 -8,29 -8,51 6,-10 15,-17 24,-22 10,-5 20,-7 30,-7 19,0 34,6 47,20 13,13 20,31 20,52 0,14 -3,27 -10,40 -6,12 -14,21 -25,27 -10,7 -22,10 -36,10 -23,0 -41,-9 -56,-25 -14,-17 -21,-45 -21,-84 0,-43 8,-75 24,-94 14,-17 32,-26 56,-26 18,0 32,5 44,15 11,10 18,23 20,41zm-113 97c0,9 2,18 6,27 4,8 10,15 17,20 7,4 15,6 23,6 12,0 22,-4 30,-14 8,-9 12,-22 12,-38 0,-15 -4,-28 -12,-37 -8,-8 -19,-13 -31,-13 -13,0 -23,5 -32,13 -9,9 -13,21 -13,36z"/>
   <path id="3" class="fil2" d="M4494 5142c0,-27 3,-48 8,-64 5,-17 14,-29 24,-38 11,-9 24,-13 41,-13 12,0 22,3 31,7 10,5 17,12 23,21 6,9 10,21 14,34 3,13 5,30 5,53 0,26 -3,47 -8,63 -6,17 -14,29 -25,38 -10,9 -24,13 -40,13 -22,0 -39,-8 -51,-23 -15,-19 -22,-49 -22,-91zm28 0c0,37 4,61 13,73 9,12 19,18 32,18 12,0 23,-6 32,-18 8,-12 13,-37 13,-73 0,-37 -5,-62 -13,-74 -9,-12 -20,-18 -33,-18 -12,0 -22,5 -30,16 -9,14 -14,39 -14,76z"/>
   <path id="4" class="fil2" d="M4668 5142c0,-27 3,-48 8,-64 6,-17 14,-29 24,-38 11,-9 25,-13 41,-13 12,0 22,3 32,7 9,5 16,12 22,21 6,9 10,21 14,34 3,13 5,30 5,53 0,26 -3,47 -8,63 -6,17 -14,29 -25,38 -10,9 -24,13 -40,13 -22,0 -39,-8 -51,-23 -15,-19 -22,-49 -22,-91zm28 0c0,37 4,61 13,73 9,12 19,18 32,18 12,0 23,-6 32,-18 8,-12 13,-37 13,-73 0,-37 -5,-62 -13,-74 -9,-12 -20,-18 -32,-18 -13,0 -23,5 -31,16 -9,14 -14,39 -14,76z"/>
   <path class="fil2" d="M7895 4613l0 26 -148 0c0,-6 1,-13 3,-19 4,-10 10,-20 19,-30 8,-9 20,-21 36,-34 24,-19 40,-35 49,-47 9,-12 13,-23 13,-33 0,-11 -4,-20 -12,-28 -8,-7 -18,-11 -30,-11 -14,0 -24,4 -32,12 -8,8 -12,19 -12,33l-29 -3c2,-21 10,-37 22,-48 13,-11 30,-17 51,-17 22,0 39,6 51,18 13,12 19,27 19,44 0,9 -2,18 -5,27 -4,9 -10,18 -19,27 -8,10 -22,23 -42,40 -17,14 -27,23 -32,28 -5,5 -9,10 -12,15l110 0z"/>
   <path id="1" class="fil2" d="M7925 4529c0,-27 3,-48 8,-64 6,-17 14,-29 25,-38 10,-8 24,-13 40,-13 12,0 23,3 32,7 9,5 16,12 22,21 6,9 11,21 14,34 3,13 5,30 5,53 0,26 -3,47 -8,63 -5,17 -14,29 -24,38 -11,9 -25,13 -41,13 -21,0 -38,-8 -51,-23 -14,-19 -22,-49 -22,-91zm28 0c0,37 5,61 13,73 9,12 19,18 32,18 13,0 23,-6 32,-18 9,-12 13,-36 13,-73 0,-37 -4,-62 -13,-74 -9,-12 -19,-18 -32,-18 -13,0 -23,5 -31,16 -9,14 -14,39 -14,76z"/>
   <path id="2" class="fil2" d="M8099 4529c0,-27 3,-48 8,-64 6,-17 14,-29 25,-38 10,-8 24,-13 40,-13 12,0 23,3 32,7 9,5 16,12 22,21 6,9 11,21 14,34 3,13 5,30 5,53 0,26 -3,47 -8,63 -5,17 -13,29 -24,38 -11,9 -24,13 -41,13 -21,0 -38,-8 -51,-23 -14,-19 -22,-49 -22,-91zm28 0c0,37 5,61 13,73 9,12 20,18 32,18 13,0 23,-6 32,-18 9,-12 13,-36 13,-73 0,-37 -4,-62 -13,-74 -8,-12 -19,-18 -32,-18 -13,0 -23,5 -30,16 -10,14 -15,39 -15,76z"/>
   <path id="3" class="fil2" d="M8273 4529c0,-27 3,-48 8,-64 6,-17 14,-29 25,-38 10,-8 24,-13 40,-13 12,0 23,3 32,7 9,5 17,12 22,21 6,9 11,21 14,34 4,13 5,30 5,53 0,26 -3,47 -8,63 -5,17 -13,29 -24,38 -11,9 -24,13 -41,13 -21,0 -38,-8 -51,-23 -14,-19 -22,-49 -22,-91zm29 0c0,37 4,61 12,73 9,12 20,18 32,18 13,0 24,-6 32,-18 9,-12 13,-36 13,-73 0,-37 -4,-62 -13,-74 -8,-12 -19,-18 -32,-18 -13,0 -23,5 -30,16 -10,14 -14,39 -14,76z"/>
   <path id="4" class="fil2" d="M8447 4529c0,-27 3,-48 9,-64 5,-17 13,-29 24,-38 11,-8 24,-13 40,-13 12,0 23,3 32,7 9,5 17,12 22,21 6,9 11,21 14,34 4,13 5,30 5,53 0,26 -2,47 -8,63 -5,17 -13,29 -24,38 -11,9 -24,13 -41,13 -21,0 -38,-8 -50,-23 -15,-19 -23,-49 -23,-91zm29 0c0,37 4,61 12,73 9,12 20,18 32,18 13,0 24,-6 32,-18 9,-12 13,-36 13,-73 0,-37 -4,-62 -13,-74 -8,-12 -19,-18 -32,-18 -13,0 -23,5 -30,16 -10,14 -14,39 -14,76z"/>
   <ellipse class="fil0" cx="8913" cy="1126" rx="1125" ry="1126"/>
   <ellipse class="fil0" cx="8913" cy="1126" rx="1125" ry="1126"/>
   <path class="fil1" d="M8887 1253l261 383 -196 0 -258 -381 -1 0 0 -161 159 0c98,0 159,-42 184,-95 6,-12 10,-24 12,-37l-518 0 0 -117 490 0c-31,-40 -87,-68 -168,-68l-322 0 0 -161 766 0 0 117 -160 0c18,22 34,46 45,71 7,13 12,27 17,41l98 0 0 117 -86 0c-3,36 -13,72 -29,105 -46,98 -144,176 -294,186z"/>
   <g>
    <polygon class="fil3" points="8765,2475 626,2475 626,2456 8765,2456 "/>
   </g>
   <path class="fil3" d="M898 2279l-60 0 -23 -62 -109 0 -22 62 -58 0 105 -271 58 0 109 271zm-101 -108l-37 -100 -37 100 74 0z"/>
   <path id="1" class="fil3" d="M921 2291l60 7c1,7 3,12 7,15 5,3 12,5 23,5 13,0 24,-2 30,-6 5,-2 8,-7 11,-13 1,-4 2,-12 2,-24l0 -28c-15,21 -35,32 -59,32 -26,0 -47,-11 -62,-34 -12,-17 -18,-39 -18,-65 0,-33 8,-58 23,-76 16,-17 36,-26 59,-26 25,0 45,11 61,32l0 -28 48 0 0 176c0,24 -2,41 -6,52 -4,12 -9,21 -16,27 -7,7 -16,12 -28,16 -11,3 -26,5 -43,5 -33,0 -57,-6 -71,-17 -14,-12 -21,-26 -21,-44 0,-1 0,-3 0,-6zm47 -114c0,20 4,36 12,45 8,10 18,15 30,15 12,0 23,-5 32,-15 9,-10 13,-25 13,-44 0,-20 -4,-35 -13,-45 -8,-10 -19,-15 -31,-15 -13,0 -23,5 -31,14 -8,10 -12,25 -12,45z"/>
   <path id="2" class="fil3" d="M1157 2056l0 -48 52 0 0 48 -52 0zm0 223l0 -197 52 0 0 197 -52 0z"/>
   <path id="3" class="fil3" d="M1441 2279l-52 0 0 -100c0,-22 -1,-35 -3,-41 -3,-7 -6,-11 -11,-15 -5,-3 -11,-5 -18,-5 -9,0 -18,2 -25,7 -7,5 -12,12 -15,20 -2,8 -4,23 -4,45l0 89 -51 0 0 -197 48 0 0 29c17,-22 38,-33 65,-33 11,0 22,2 31,6 10,5 17,10 22,16 5,7 8,14 10,22 2,8 3,20 3,35l0 122z"/>
   <path id="4" class="fil3" d="M1488 2291l60 7c1,7 3,12 7,15 5,3 12,5 23,5 13,0 24,-2 30,-6 5,-2 8,-7 11,-13 1,-4 2,-12 2,-24l0 -28c-15,21 -35,32 -59,32 -26,0 -47,-11 -62,-34 -12,-17 -18,-39 -18,-65 0,-33 7,-58 23,-76 16,-17 36,-26 59,-26 25,0 45,11 60,32l0 -28 49 0 0 176c0,24 -2,41 -6,52 -4,12 -9,21 -16,27 -7,7 -16,12 -28,16 -11,3 -26,5 -43,5 -33,0 -57,-6 -71,-17 -14,-12 -21,-26 -21,-44 0,-1 0,-3 0,-6zm47 -114c0,20 4,36 12,45 8,10 18,15 30,15 12,0 23,-5 32,-15 8,-10 13,-25 13,-44 0,-20 -4,-35 -13,-45 -8,-10 -19,-15 -31,-15 -13,0 -23,5 -31,14 -8,10 -12,25 -12,45z"/>
   <path id="5" class="fil3" d="M1830 2279l0 -271 115 0c29,0 50,2 63,7 13,5 24,14 31,26 8,13 12,27 12,43 0,20 -6,37 -18,50 -12,13 -29,22 -53,25 12,7 22,15 29,23 8,8 18,23 31,44l33 53 -65 0 -39 -59c-14,-21 -24,-35 -29,-40 -5,-6 -11,-9 -17,-11 -6,-2 -15,-3 -27,-3l-12 0 0 113 -54 0zm54 -156l41 0c26,0 42,-2 49,-4 7,-2 12,-6 15,-11 4,-6 6,-13 6,-21 0,-9 -3,-16 -7,-22 -5,-5 -12,-9 -21,-10 -4,-1 -18,-1 -40,-1l-43 0 0 69z"/>
   <path id="6" class="fil3" d="M2216 2217l52 8c-7,19 -18,34 -32,44 -14,10 -32,15 -54,15 -34,0 -59,-12 -75,-34 -13,-18 -20,-40 -20,-68 0,-32 9,-58 26,-76 17,-19 38,-28 64,-28 29,0 52,10 69,29 17,19 25,49 24,89l-129 0c0,15 4,27 12,36 8,8 18,13 30,13 8,0 15,-3 20,-7 6,-4 10,-11 13,-21zm3 -53c-1,-15 -4,-26 -12,-34 -7,-8 -16,-12 -27,-12 -11,0 -20,4 -28,12 -7,9 -11,20 -11,34l78 0z"/>
   <path id="7" class="fil3" d="M2311 2082l49 0 0 29c6,-10 14,-18 25,-24 11,-6 23,-9 36,-9 22,0 42,9 58,27 16,18 23,43 23,75 0,33 -8,58 -24,76 -16,19 -35,28 -58,28 -11,0 -20,-3 -29,-7 -9,-4 -18,-12 -28,-22l0 98 -52 0 0 -271zm51 96c0,22 5,38 13,49 9,10 20,15 32,15 12,0 22,-4 30,-14 8,-10 12,-26 12,-48 0,-21 -4,-36 -12,-46 -8,-10 -19,-15 -31,-15 -12,0 -23,5 -31,15 -9,10 -13,24 -13,44z"/>
   <path id="8" class="fil3" d="M2532 2178c0,-17 4,-34 12,-50 9,-16 21,-28 36,-37 16,-8 33,-13 52,-13 30,0 54,10 73,29 19,20 29,44 29,73 0,30 -10,55 -29,74 -19,20 -43,30 -72,30 -18,0 -35,-5 -52,-13 -16,-8 -28,-20 -37,-35 -8,-16 -12,-35 -12,-58zm53 3c0,19 4,34 14,45 9,10 20,15 34,15 13,0 25,-5 34,-15 9,-11 13,-26 13,-45 0,-20 -4,-34 -13,-45 -9,-10 -21,-15 -34,-15 -14,0 -25,5 -34,15 -10,11 -14,25 -14,45z"/>
   <path id="9" class="fil3" d="M2824 2279l-52 0 0 -197 48 0 0 28c9,-13 16,-22 23,-26 6,-4 14,-6 22,-6 12,0 23,4 34,10l-16 45c-8,-5 -17,-8 -24,-8 -7,0 -14,2 -19,6 -5,4 -9,11 -12,21 -2,11 -4,33 -4,66l0 61z"/>
   <path id="10" class="fil3" d="M3011 2082l0 42 -35 0 0 79c0,16 0,26 1,28 0,3 2,5 4,7 3,2 6,2 9,2 5,0 12,-1 21,-4l4 40c-12,5 -25,8 -40,8 -10,0 -18,-2 -26,-5 -7,-3 -13,-7 -16,-12 -4,-5 -6,-12 -7,-21 -1,-6 -2,-18 -2,-36l0 -86 -24 0 0 -42 24 0 0 -39 52 -30 0 69 35 0z"/>
   <path class="fil2" d="M6761 5142c0,-27 3,-48 8,-64 6,-17 14,-29 25,-38 10,-9 24,-13 40,-13 12,0 23,3 32,7 9,5 16,12 22,21 6,9 11,21 14,34 3,13 5,30 5,53 0,26 -3,47 -8,63 -6,17 -14,29 -24,38 -11,9 -25,13 -41,13 -22,0 -38,-8 -51,-23 -15,-19 -22,-49 -22,-91zm28 0c0,37 5,61 13,73 9,12 19,18 32,18 13,0 23,-6 32,-18 9,-12 13,-37 13,-73 0,-37 -4,-62 -13,-74 -9,-12 -19,-18 -32,-18 -13,0 -23,5 -31,16 -9,14 -14,39 -14,76z"/>
   <path class="fil2" d="M7925 5193l29 -2c2,14 7,25 15,32 8,7 17,10 28,10 13,0 25,-5 34,-15 9,-10 13,-23 13,-39 0,-16 -4,-28 -13,-37 -8,-10 -20,-14 -34,-14 -9,0 -17,2 -24,6 -7,4 -13,9 -17,16l-26 -4 22 -115 111 0 0 26 -89 0 -12 61c13,-10 27,-15 42,-15 20,0 36,7 49,21 14,13 21,31 21,52 0,20 -6,38 -18,53 -14,18 -34,27 -59,27 -20,0 -37,-6 -50,-17 -13,-12 -20,-27 -22,-46z"/>
   <path id="1" class="fil2" d="M8242 5083l-27 2c-2,-11 -6,-19 -10,-24 -8,-7 -17,-11 -28,-11 -9,0 -17,2 -23,7 -9,6 -16,16 -21,28 -5,12 -8,29 -8,51 7,-10 15,-17 25,-22 9,-5 19,-7 30,-7 18,0 34,6 47,20 13,13 19,31 19,52 0,14 -3,27 -9,40 -6,12 -14,21 -25,27 -11,7 -23,10 -36,10 -23,0 -42,-9 -56,-25 -15,-17 -22,-45 -22,-84 0,-43 8,-75 24,-94 14,-17 33,-26 57,-26 17,0 32,5 43,15 11,10 18,23 20,41zm-112 97c0,9 2,18 6,27 4,8 9,15 16,20 8,4 15,6 23,6 12,0 22,-4 30,-14 9,-9 13,-22 13,-38 0,-15 -4,-28 -12,-37 -9,-8 -19,-13 -32,-13 -12,0 -23,5 -31,13 -9,9 -13,21 -13,36z"/>
   <path id="2" class="fil2" d="M8273 5142c0,-27 3,-48 8,-64 6,-17 14,-29 25,-38 10,-9 24,-13 40,-13 12,0 23,3 32,7 9,5 17,12 22,21 6,9 11,21 14,34 4,13 5,30 5,53 0,26 -3,47 -8,63 -5,17 -13,29 -24,38 -11,9 -24,13 -41,13 -21,0 -38,-8 -51,-23 -14,-19 -22,-49 -22,-91zm29 0c0,37 4,61 12,73 9,12 20,18 32,18 13,0 24,-6 32,-18 9,-12 13,-37 13,-73 0,-37 -4,-62 -13,-74 -8,-12 -19,-18 -32,-18 -13,0 -23,5 -30,16 -10,14 -14,39 -14,76z"/>
   <path id="3" class="fil2" d="M8447 5142c0,-27 3,-48 9,-64 5,-17 13,-29 24,-38 11,-9 24,-13 40,-13 12,0 23,3 32,7 9,5 17,12 22,21 6,9 11,21 14,34 4,13 5,30 5,53 0,26 -2,47 -8,63 -5,17 -13,29 -24,38 -11,9 -24,13 -41,13 -21,0 -38,-8 -50,-23 -15,-19 -23,-49 -23,-91zm29 0c0,37 4,61 12,73 9,12 20,18 32,18 13,0 24,-6 32,-18 9,-12 13,-37 13,-73 0,-37 -4,-62 -13,-74 -8,-12 -19,-18 -32,-18 -13,0 -23,5 -30,16 -10,14 -14,39 -14,76z"/>
   <path class="fil2" d="M696 5928l0 -224 99 0c20,0 35,2 46,6 10,4 18,11 25,21 6,10 9,22 9,34 0,16 -5,29 -15,40 -11,11 -27,18 -48,21 8,4 14,7 18,11 8,8 17,18 24,30l39 61 -37 0 -30 -47c-8,-13 -15,-23 -21,-31 -6,-7 -11,-12 -15,-15 -4,-2 -9,-4 -14,-5 -3,-1 -8,-2 -16,-2l-34 0 0 100 -30 0zm30 -125l63 0c14,0 24,-2 32,-4 8,-3 13,-8 17,-14 4,-6 6,-13 6,-20 0,-11 -4,-19 -11,-26 -8,-7 -20,-10 -36,-10l-71 0 0 74z"/>
   <path id="1" class="fil2" d="M908 5847c0,-30 8,-52 25,-67 14,-12 31,-18 51,-18 22,0 40,7 54,22 15,15 22,35 22,60 0,21 -3,38 -10,50 -6,12 -15,21 -27,28 -12,6 -25,9 -39,9 -23,0 -41,-7 -55,-21 -14,-15 -21,-36 -21,-63zm28 0c0,21 4,36 13,46 9,11 21,16 35,16 13,0 25,-5 34,-16 9,-10 14,-26 14,-47 0,-20 -5,-35 -14,-46 -9,-10 -21,-15 -34,-15 -14,0 -26,5 -35,15 -9,11 -13,26 -13,47z"/>
   <path id="2" class="fil2" d="M1092 5928l0 -162 25 0 0 23c12,-18 29,-27 51,-27 10,0 19,2 27,5 8,4 15,9 19,14 4,6 7,13 8,21 1,5 2,14 2,26l0 100 -28 0 0 -99c0,-11 -1,-19 -3,-25 -2,-5 -6,-10 -11,-13 -6,-3 -12,-5 -20,-5 -11,0 -21,4 -30,11 -8,7 -12,22 -12,42l0 89 -28 0z"/>
   <path id="3" class="fil2" d="M1266 5735l0 -31 28 0 0 31 -28 0zm0 193l0 -162 28 0 0 162 -28 0z"/>
   <path id="4" class="fil2" d="M1395 5903l4 25c-8,1 -15,2 -21,2 -10,0 -17,-1 -23,-5 -5,-3 -9,-7 -11,-12 -3,-5 -4,-16 -4,-33l0 -93 -20 0 0 -21 20 0 0 -41 28 -16 0 57 27 0 0 21 -27 0 0 95c0,8 0,13 1,15 1,2 3,4 5,6 2,1 5,2 9,2 3,0 7,-1 12,-2z"/>
   <path id="5" class="fil2" d="M1618 5840l0 -26 95 0 0 83c-15,11 -30,20 -45,26 -16,6 -32,9 -48,9 -22,0 -42,-5 -60,-14 -18,-10 -32,-23 -41,-41 -9,-18 -14,-38 -14,-60 0,-22 5,-42 14,-61 9,-19 22,-33 39,-42 18,-9 37,-14 60,-14 16,0 30,3 44,8 13,5 23,13 30,22 8,9 13,22 17,37l-27 7c-3,-11 -7,-20 -12,-27 -5,-6 -12,-12 -21,-16 -10,-4 -20,-5 -31,-5 -14,0 -25,2 -35,6 -10,4 -18,9 -24,16 -6,7 -11,14 -14,22 -6,14 -9,29 -9,45 0,20 4,37 10,51 7,13 17,23 30,30 14,6 27,9 42,9 13,0 26,-2 38,-7 12,-5 21,-10 28,-16l0 -42 -66 0z"/>
   <path id="6" class="fil2" d="M1859 5908c-10,8 -20,14 -29,18 -10,4 -20,5 -31,5 -18,0 -31,-4 -41,-13 -10,-8 -14,-19 -14,-33 0,-8 1,-15 5,-22 4,-6 8,-11 14,-15 6,-4 13,-7 20,-9 5,-2 14,-3 25,-5 22,-2 38,-5 49,-9 0,-4 0,-6 0,-7 0,-11 -3,-19 -8,-24 -7,-6 -17,-9 -31,-9 -13,0 -23,2 -29,7 -6,4 -11,12 -14,24l-27 -4c3,-11 7,-21 12,-28 6,-7 14,-12 25,-16 10,-4 23,-6 37,-6 14,0 25,2 34,5 8,3 15,7 19,12 4,5 7,12 8,19 1,5 2,13 2,25l0 37c0,25 0,42 1,48 2,7 4,14 7,20l-29 0c-2,-6 -4,-13 -5,-20zm-2 -61c-10,4 -25,7 -45,10 -12,2 -20,3 -24,5 -5,2 -9,5 -11,9 -3,4 -4,9 -4,13 0,8 3,14 8,19 6,4 14,7 25,7 10,0 20,-2 28,-7 8,-5 14,-11 18,-19 3,-6 5,-15 5,-27l0 -10z"/>
   <path id="7" class="fil2" d="M1927 5928l0 -162 24 0 0 24c7,-11 13,-19 18,-22 5,-4 11,-6 18,-6 9,0 18,3 28,9l-10 25c-7,-4 -13,-5 -20,-5 -6,0 -11,1 -16,5 -5,4 -8,9 -10,15 -3,10 -5,20 -5,32l0 85 -27 0z"/>
   <path id="8" class="fil2" d="M2026 5941l27 4c1,8 4,14 9,18 7,5 16,8 28,8 13,0 23,-3 30,-8 7,-5 11,-12 14,-21 1,-6 2,-17 2,-35 -12,14 -27,21 -45,21 -23,0 -40,-8 -52,-24 -12,-16 -18,-36 -18,-58 0,-15 2,-30 8,-43 6,-13 14,-23 24,-30 11,-7 23,-11 38,-11 19,0 35,8 47,24l0 -20 26 0 0 140c0,25 -3,43 -8,54 -5,10 -13,18 -25,25 -11,6 -24,9 -41,9 -19,0 -35,-5 -47,-13 -11,-9 -17,-22 -17,-40zm23 -97c0,21 4,37 12,47 9,9 19,14 32,14 13,0 23,-5 32,-14 9,-10 13,-25 13,-46 0,-20 -5,-35 -13,-45 -9,-10 -20,-15 -32,-15 -12,0 -23,5 -31,15 -9,10 -13,24 -13,44z"/>
   <path class="fil2" d="M6383 5902l0 26 -148 0c0,-7 1,-13 3,-19 4,-10 10,-20 18,-30 9,-10 21,-21 36,-34 25,-20 41,-36 50,-47 8,-12 13,-23 13,-33 0,-11 -4,-20 -12,-28 -8,-7 -18,-11 -31,-11 -13,0 -24,4 -32,12 -8,8 -12,19 -12,33l-28 -3c2,-21 9,-37 22,-48 13,-12 30,-17 51,-17 21,0 39,6 51,18 13,12 19,27 19,44 0,9 -2,18 -6,27 -3,8 -9,18 -18,27 -8,10 -23,23 -42,40 -17,13 -28,23 -32,28 -5,5 -9,10 -12,15l110 0z"/>
   <path id="1" class="fil2" d="M6413 5817c0,-26 3,-47 8,-64 6,-16 14,-28 24,-37 11,-9 25,-13 41,-13 12,0 22,2 32,7 9,5 16,12 22,21 6,9 10,20 14,33 3,14 5,31 5,53 0,27 -3,48 -8,64 -6,16 -14,29 -24,38 -11,8 -25,13 -41,13 -22,0 -39,-8 -51,-23 -15,-19 -22,-49 -22,-92zm28 1c0,36 4,61 13,73 9,12 19,18 32,18 13,0 23,-6 32,-18 8,-12 13,-37 13,-73 0,-37 -5,-62 -13,-74 -9,-12 -20,-18 -32,-18 -13,0 -23,5 -31,16 -9,13 -14,39 -14,76z"/>
   <path id="2" class="fil2" d="M6587 5817c0,-26 3,-47 8,-64 6,-16 14,-28 24,-37 11,-9 25,-13 41,-13 12,0 22,2 32,7 9,5 16,12 22,21 6,9 10,20 14,33 3,14 5,31 5,53 0,27 -3,48 -8,64 -6,16 -14,29 -24,38 -11,8 -25,13 -41,13 -22,0 -39,-8 -51,-23 -15,-19 -22,-49 -22,-92zm28 1c0,36 4,61 13,73 9,12 19,18 32,18 13,0 23,-6 32,-18 8,-12 13,-37 13,-73 0,-37 -5,-62 -13,-74 -9,-12 -19,-18 -32,-18 -13,0 -23,5 -31,16 -9,13 -14,39 -14,76z"/>
   <path id="3" class="fil2" d="M6761 5817c0,-26 3,-47 8,-64 6,-16 14,-28 25,-37 10,-9 24,-13 40,-13 12,0 23,2 32,7 9,5 16,12 22,21 6,9 11,20 14,33 3,14 5,31 5,53 0,27 -3,48 -8,64 -5,16 -14,29 -24,38 -11,8 -25,13 -41,13 -22,0 -38,-8 -51,-23 -15,-19 -22,-49 -22,-92zm28 1c0,36 5,61 13,73 9,12 19,18 32,18 13,0 23,-6 32,-18 9,-12 13,-37 13,-73 0,-37 -4,-62 -13,-74 -9,-12 -19,-18 -32,-18 -13,0 -23,5 -31,16 -9,13 -14,39 -14,76z"/>
   <path class="fil2" d="M3988 5928l-28 0 0 -175c-6,6 -15,12 -26,19 -10,6 -20,11 -29,14l0 -27c16,-7 29,-16 41,-26 11,-10 19,-20 24,-30l18 0 0 225z"/>
   <path id="1" class="fil2" d="M4101 5807c-11,-5 -20,-11 -25,-18 -6,-8 -8,-17 -8,-28 0,-17 5,-30 17,-41 12,-11 27,-17 47,-17 19,0 35,6 47,17 12,11 18,25 18,42 0,10 -3,19 -8,27 -6,7 -14,13 -25,18 14,4 24,11 31,21 7,10 11,22 11,36 0,19 -7,35 -20,48 -14,13 -32,20 -54,20 -22,0 -40,-7 -53,-20 -14,-13 -21,-29 -21,-49 0,-14 4,-27 12,-36 7,-10 17,-17 31,-20zm-5 -47c0,10 3,19 10,26 7,7 15,10 26,10 11,0 20,-3 27,-10 6,-7 10,-15 10,-25 0,-10 -4,-18 -11,-25 -7,-7 -15,-10 -26,-10 -10,0 -19,3 -26,10 -7,6 -10,14 -10,24zm-9 103c0,8 1,16 5,23 4,7 9,13 17,17 7,4 15,6 23,6 14,0 24,-4 33,-12 8,-9 13,-20 13,-33 0,-13 -5,-24 -13,-33 -9,-8 -20,-13 -34,-13 -13,0 -23,5 -32,13 -8,9 -12,20 -12,32z"/>
   <path id="2" class="fil2" d="M4248 5928l0 -31 31 0 0 31c0,12 -2,21 -6,28 -4,7 -11,13 -20,16l-7 -11c5,-3 10,-7 12,-12 3,-5 5,-12 5,-21l-15 0z"/>
   <path id="3" class="fil2" d="M4320 5817c0,-26 2,-47 8,-64 5,-16 13,-28 24,-37 11,-9 24,-13 41,-13 12,0 22,2 31,7 9,5 17,12 23,21 6,9 10,20 14,33 3,14 5,31 5,53 0,27 -3,48 -8,64 -6,16 -14,29 -25,38 -10,8 -24,13 -40,13 -22,0 -39,-8 -51,-23 -15,-19 -22,-49 -22,-92zm28 1c0,36 4,61 13,73 8,12 19,18 32,18 12,0 23,-6 32,-18 8,-12 12,-37 12,-73 0,-37 -4,-62 -12,-74 -9,-12 -20,-18 -33,-18 -12,0 -22,5 -30,16 -9,13 -14,39 -14,76z"/>
   <path id="4" class="fil2" d="M4494 5817c0,-26 3,-47 8,-64 5,-16 14,-28 24,-37 11,-9 25,-13 41,-13 12,0 22,2 31,7 10,5 17,12 23,21 6,9 10,20 14,33 3,14 5,31 5,53 0,27 -3,48 -8,64 -6,16 -14,29 -25,38 -10,8 -24,13 -40,13 -22,0 -39,-8 -51,-23 -15,-19 -22,-49 -22,-92zm28 1c0,36 4,61 13,73 9,12 19,18 32,18 12,0 23,-6 32,-18 8,-12 13,-37 13,-73 0,-37 -5,-62 -13,-74 -9,-12 -20,-18 -33,-18 -12,0 -22,5 -30,16 -9,13 -14,39 -14,76z"/>
   <path id="5" class="fil2" d="M4668 5817c0,-26 3,-47 8,-64 6,-16 14,-28 24,-37 11,-9 25,-13 41,-13 12,0 22,2 32,7 9,5 16,12 22,21 6,9 10,20 14,33 3,14 5,31 5,53 0,27 -3,48 -8,64 -6,16 -14,29 -25,38 -10,8 -24,13 -40,13 -22,0 -39,-8 -51,-23 -15,-19 -22,-49 -22,-92zm28 1c0,36 4,61 13,73 9,12 19,18 32,18 12,0 23,-6 32,-18 8,-12 13,-37 13,-73 0,-37 -5,-62 -13,-74 -9,-12 -20,-18 -32,-18 -13,0 -23,5 -31,16 -9,13 -14,39 -14,76z"/>
   <path class="fil2" d="M7895 5902l0 26 -148 0c0,-7 1,-13 3,-19 4,-10 10,-20 19,-30 8,-10 20,-21 36,-34 24,-20 40,-36 49,-47 9,-12 13,-23 13,-33 0,-11 -4,-20 -12,-28 -8,-7 -18,-11 -30,-11 -14,0 -24,4 -32,12 -8,8 -12,19 -12,33l-29 -3c2,-21 10,-37 22,-48 13,-12 30,-17 51,-17 22,0 39,6 51,18 13,12 19,27 19,44 0,9 -2,18 -5,27 -4,8 -10,18 -19,27 -8,10 -22,23 -42,40 -17,13 -27,23 -32,28 -5,5 -9,10 -12,15l110 0z"/>
   <path id="1" class="fil2" d="M7925 5817c0,-26 3,-47 8,-64 6,-16 14,-28 25,-37 10,-9 24,-13 40,-13 12,0 23,2 32,7 9,5 16,12 22,21 6,9 11,20 14,33 3,14 5,31 5,53 0,27 -3,48 -8,64 -5,16 -14,29 -24,38 -11,8 -25,13 -41,13 -21,0 -38,-8 -51,-23 -14,-19 -22,-49 -22,-92zm28 1c0,36 5,61 13,73 9,12 19,18 32,18 13,0 23,-6 32,-18 9,-12 13,-37 13,-73 0,-37 -4,-62 -13,-74 -9,-12 -19,-18 -32,-18 -13,0 -23,5 -31,16 -9,13 -14,39 -14,76z"/>
   <path id="2" class="fil2" d="M8099 5817c0,-26 3,-47 8,-64 6,-16 14,-28 25,-37 10,-9 24,-13 40,-13 12,0 23,2 32,7 9,5 16,12 22,21 6,9 11,20 14,33 3,14 5,31 5,53 0,27 -3,48 -8,64 -5,16 -13,29 -24,38 -11,8 -24,13 -41,13 -21,0 -38,-8 -51,-23 -14,-19 -22,-49 -22,-92zm28 1c0,36 5,61 13,73 9,12 20,18 32,18 13,0 23,-6 32,-18 9,-12 13,-37 13,-73 0,-37 -4,-62 -13,-74 -8,-12 -19,-18 -32,-18 -13,0 -23,5 -30,16 -10,13 -15,39 -15,76z"/>
   <path id="3" class="fil2" d="M8273 5817c0,-26 3,-47 8,-64 6,-16 14,-28 25,-37 10,-9 24,-13 40,-13 12,0 23,2 32,7 9,5 17,12 22,21 6,9 11,20 14,33 4,14 5,31 5,53 0,27 -3,48 -8,64 -5,16 -13,29 -24,38 -11,8 -24,13 -41,13 -21,0 -38,-8 -51,-23 -14,-19 -22,-49 -22,-92zm29 1c0,36 4,61 12,73 9,12 20,18 32,18 13,0 24,-6 32,-18 9,-12 13,-37 13,-73 0,-37 -4,-62 -13,-74 -8,-12 -19,-18 -32,-18 -13,0 -23,5 -30,16 -10,13 -14,39 -14,76z"/>
   <path id="4" class="fil2" d="M8447 5817c0,-26 3,-47 9,-64 5,-16 13,-28 24,-37 11,-9 24,-13 40,-13 12,0 23,2 32,7 9,5 17,12 22,21 6,9 11,20 14,33 4,14 5,31 5,53 0,27 -2,48 -8,64 -5,16 -13,29 -24,38 -11,8 -24,13 -41,13 -21,0 -38,-8 -50,-23 -15,-19 -23,-49 -23,-92zm29 1c0,36 4,61 12,73 9,12 20,18 32,18 13,0 24,-6 32,-18 9,-12 13,-37 13,-73 0,-37 -4,-62 -13,-74 -8,-12 -19,-18 -32,-18 -13,0 -23,5 -30,16 -10,13 -14,39 -14,76z"/>
   <g>
    <path class="fil4" d="M2641 2767l-1883 0 0 -16 1883 0 0 0 0 16zm70 38l-15 0 0 0 0 -1 -1 -2 0 -2 0 -2 -1 -2 -1 -1 0 -2 -1 -2 -1 -1 -1 -2 -2 -2 -1 -1 -1 -2 -2 -1 -2 -2 -1 -1 -2 -1 -2 -2 -2 -1 -2 -1 -3 -1 -2 -1 -2 -1 -3 -1 -2 -1 -3 0 -3 -1 -2 0 -3 -1 -3 0 -3 0 -3 0 0 -16 4 0 3 1 4 0 3 0 3 1 4 1 3 0 3 1 3 1 3 1 3 2 3 1 2 1 3 2 3 2 2 1 2 2 3 2 2 2 2 2 2 2 1 3 2 2 1 3 2 2 1 3 1 2 1 3 0 3 1 3 0 3 0 2 0 0zm-15 360l0 -360 15 0 0 360 0 0 -15 0zm-55 55l0 -16 0 0 3 0 3 0 3 0 3 -1 2 0 3 -1 3 0 2 -1 3 -1 2 -1 2 -1 3 -1 2 -1 2 -1 2 -2 2 -1 1 -1 2 -2 2 -1 1 -2 1 -1 2 -2 1 -2 1 -1 1 -2 0 -2 1 -1 1 -2 0 -2 0 -2 1 -2 0 -2 15 0 0 3 0 3 -1 3 0 3 -1 3 -1 2 -1 3 -2 2 -1 3 -2 2 -1 2 -2 3 -2 2 -2 2 -3 2 -2 2 -2 1 -3 2 -3 1 -2 2 -3 1 -3 1 -3 2 -3 1 -3 1 -3 0 -4 1 -3 1 -3 0 -4 0 -3 1 -4 0 0 0zm-1883 -16l1883 0 0 16 -1883 0 0 0 0 -16zm-70 -39l16 0 0 0 0 2 0 2 0 2 1 2 0 2 1 1 1 2 1 2 1 1 1 2 1 2 1 1 2 2 1 1 2 2 2 1 2 1 2 2 2 1 2 1 2 1 2 1 3 1 2 1 3 1 2 0 3 1 3 0 3 1 2 0 3 0 3 0 0 16 -3 0 -4 -1 -3 0 -4 0 -3 -1 -3 -1 -3 0 -3 -1 -4 -1 -3 -2 -2 -1 -3 -1 -3 -2 -3 -1 -2 -2 -3 -1 -2 -2 -2 -2 -2 -2 -2 -2 -2 -3 -2 -2 -2 -2 -1 -3 -1 -2 -2 -3 -1 -2 0 -3 -1 -3 -1 -3 0 -3 0 -3 0 0zm16 -360l0 360 -16 0 0 -360 0 0 16 0zm54 -54l0 16 0 0 -3 0 -3 0 -2 0 -3 1 -3 0 -3 1 -2 0 -3 1 -2 1 -3 1 -2 1 -2 1 -2 1 -2 1 -2 2 -2 1 -2 1 -2 2 -1 1 -2 2 -1 1 -1 2 -1 2 -1 1 -1 2 -1 2 -1 1 0 2 -1 2 0 2 0 2 0 1 -16 0 0 -2 0 -3 1 -3 1 -3 0 -3 1 -2 2 -3 1 -2 1 -3 2 -2 2 -3 2 -2 2 -2 2 -2 2 -2 2 -2 3 -1 2 -2 3 -2 3 -1 3 -1 2 -2 3 -1 4 -1 3 -1 3 0 3 -1 3 -1 4 0 3 0 4 -1 3 0 0 0z"/>
   </g>
   <path class="fil4" d="M802 3098l86 -225 32 0 91 225 -33 0 -26 -68 -95 0 -24 68 -31 0zm64 -93l76 0 -23 -62c-7,-19 -12,-34 -16,-46 -3,14 -7,29 -12,43l-25 65z"/>
   <polygon id="1" class="fil4" points="1031,3098 1031,2873 1058,2873 1058,3098 "/>
   <polygon id="2" class="fil4" points="1100,3098 1100,2873 1128,2873 1128,3098 "/>
   <path id="3" class="fil4" d="M1421 3019l29 7c-6,25 -17,43 -33,56 -16,13 -36,19 -59,19 -24,0 -44,-5 -59,-14 -15,-10 -27,-25 -35,-43 -8,-19 -12,-39 -12,-60 0,-24 5,-44 14,-61 9,-18 21,-31 38,-40 16,-9 34,-13 54,-13 23,0 41,5 57,17 15,11 26,27 32,48l-30 7c-5,-17 -12,-28 -22,-36 -10,-7 -22,-11 -37,-11 -18,0 -32,4 -43,12 -12,9 -20,20 -25,34 -5,14 -7,28 -7,43 0,19 3,35 8,50 6,14 15,24 26,31 12,7 25,11 38,11 17,0 31,-5 42,-14 12,-10 19,-24 24,-43z"/>
   <path id="4" class="fil4" d="M1590 3098l0 -25c-13,19 -30,28 -52,28 -9,0 -18,-2 -27,-6 -8,-3 -14,-8 -18,-13 -4,-6 -7,-13 -8,-21 -2,-5 -2,-14 -2,-25l0 -101 27 0 0 90c0,14 1,24 2,29 2,7 5,13 11,17 6,4 13,6 21,6 8,0 16,-2 23,-6 7,-4 12,-10 15,-17 3,-8 5,-18 5,-32l0 -87 27 0 0 163 -24 0z"/>
   <path id="5" class="fil4" d="M1647 3049l27 -4c1,11 6,19 13,25 7,6 16,8 29,8 13,0 22,-2 28,-7 6,-5 9,-11 9,-18 0,-7 -2,-12 -8,-15 -4,-3 -13,-6 -28,-9 -20,-5 -34,-10 -42,-14 -8,-3 -14,-8 -18,-15 -4,-6 -6,-14 -6,-22 0,-7 2,-14 5,-20 4,-6 8,-11 14,-15 4,-3 10,-6 17,-8 8,-2 16,-3 24,-3 13,0 24,1 33,5 10,4 17,9 22,15 4,6 8,15 9,25l-27 4c-1,-8 -4,-15 -10,-20 -6,-4 -14,-7 -25,-7 -13,0 -22,2 -27,6 -5,5 -8,10 -8,15 0,4 1,7 3,10 3,3 6,5 11,7 3,1 11,3 24,7 19,5 33,10 41,13 7,3 14,8 18,14 4,7 7,14 7,24 0,9 -3,17 -9,26 -5,8 -13,14 -23,18 -10,5 -21,7 -34,7 -21,0 -37,-4 -48,-13 -11,-9 -18,-22 -21,-39z"/>
   <path id="6" class="fil4" d="M1874 3073l4 24c-8,2 -15,3 -21,3 -10,0 -18,-2 -23,-5 -6,-3 -10,-7 -12,-12 -2,-6 -3,-17 -3,-33l0 -94 -21 0 0 -21 21 0 0 -40 27 -17 0 57 28 0 0 21 -28 0 0 96c0,7 1,12 2,15 1,2 2,4 4,5 3,1 6,2 10,2 3,0 7,0 12,-1z"/>
   <path id="7" class="fil4" d="M1891 3016c0,-30 8,-52 25,-66 14,-12 31,-18 51,-18 22,0 40,7 55,22 14,14 21,34 21,60 0,21 -3,37 -10,49 -6,12 -15,21 -27,28 -12,7 -25,10 -39,10 -23,0 -41,-7 -55,-22 -14,-14 -21,-35 -21,-63zm28 0c0,21 4,37 14,47 9,10 20,15 34,15 14,0 25,-5 34,-15 9,-11 14,-26 14,-48 0,-20 -5,-35 -14,-45 -9,-10 -21,-16 -34,-16 -14,0 -25,6 -34,16 -10,10 -14,26 -14,46z"/>
   <path id="8" class="fil4" d="M2075 3098l0 -163 25 0 0 23c5,-8 12,-14 20,-19 9,-5 18,-7 29,-7 12,0 22,2 30,7 7,5 13,12 16,21 13,-19 29,-28 50,-28 16,0 29,4 37,13 9,9 13,23 13,41l0 112 -27 0 0 -103c0,-11 -1,-19 -3,-23 -2,-5 -5,-9 -10,-12 -4,-3 -10,-5 -16,-5 -12,0 -21,4 -29,12 -7,7 -11,20 -11,36l0 95 -27 0 0 -106c0,-12 -3,-21 -7,-27 -5,-6 -12,-10 -22,-10 -8,0 -15,2 -22,7 -6,4 -11,10 -14,17 -3,8 -4,20 -4,34l0 85 -28 0z"/>
   <path id="9" class="fil4" d="M2447 3045l28 4c-4,16 -13,29 -25,38 -12,9 -27,14 -46,14 -24,0 -43,-7 -56,-22 -14,-14 -21,-35 -21,-61 0,-28 7,-49 21,-64 14,-15 32,-22 54,-22 22,0 40,7 53,22 14,15 21,35 21,62 0,2 0,4 0,7l-121 0c1,18 6,32 15,41 9,10 20,14 34,14 10,0 19,-2 26,-8 7,-5 12,-13 17,-25zm-90 -44l90 0c-1,-14 -5,-24 -10,-31 -9,-11 -21,-16 -34,-16 -13,0 -24,4 -32,13 -9,8 -14,20 -14,34z"/>
   <path id="10" class="fil4" d="M2510 3098l0 -163 24 0 0 25c7,-12 12,-19 18,-23 5,-4 11,-5 18,-5 9,0 18,3 28,8l-10 26c-7,-4 -13,-6 -20,-6 -6,0 -11,2 -16,6 -5,3 -8,8 -10,15 -3,9 -5,20 -5,32l0 85 -27 0z"/>
   <path class="fil0" d="M2964 2759l1336 0c35,0 62,21 62,46l0 360c0,26 -27,47 -62,47l-1336 0c-35,0 -62,-21 -62,-47l0 -360c0,-25 27,-46 62,-46z"/>
   <path class="fil1" d="M3242 3065l86 -224 32 0 92 224 -34 0 -26 -68 -94 0 -25 68 -31 0zm64 -92l77 0 -24 -62c-7,-19 -12,-35 -16,-47 -3,14 -7,29 -12,43l-25 66z"/>
   <path id="1" class="fil1" d="M3472 3127l0 -225 25 0 0 22c6,-9 12,-15 20,-19 7,-4 16,-6 27,-6 14,0 26,3 36,10 11,8 19,18 24,31 6,13 8,27 8,42 0,17 -2,32 -8,45 -6,13 -15,23 -26,31 -12,7 -24,10 -36,10 -9,0 -18,-2 -25,-6 -7,-4 -13,-8 -18,-14l0 79 -27 0zm25 -143c0,21 4,37 12,47 9,10 19,15 31,15 12,0 23,-6 31,-16 9,-10 13,-26 13,-48 0,-21 -4,-36 -12,-46 -9,-11 -19,-16 -31,-16 -12,0 -22,6 -31,17 -9,11 -13,27 -13,47z"/>
   <path id="2" class="fil1" d="M3646 3127l0 -225 25 0 0 22c6,-9 12,-15 20,-19 7,-4 16,-6 27,-6 14,0 26,3 36,10 11,8 19,18 24,31 6,13 9,27 9,42 0,17 -3,32 -9,45 -6,13 -15,23 -26,31 -12,7 -24,10 -36,10 -9,0 -18,-2 -25,-6 -7,-4 -13,-8 -18,-14l0 79 -27 0zm25 -143c0,21 4,37 12,47 9,10 19,15 31,15 12,0 23,-6 31,-16 9,-10 13,-26 13,-48 0,-21 -4,-36 -12,-46 -9,-11 -19,-16 -31,-16 -11,0 -22,6 -31,17 -9,11 -13,27 -13,47z"/>
   <polygon id="3" class="fil1" points="3819,3065 3819,2841 3847,2841 3847,3065 "/>
   <path id="4" class="fil1" d="M3888 3127l-3 -25c6,1 11,2 16,2 6,0 11,-1 14,-3 4,-2 7,-5 9,-9 2,-2 5,-9 9,-20 0,-2 1,-4 2,-7l-61 -163 29 0 34 94c4,12 8,24 12,38 3,-13 7,-25 11,-37l35 -95 27 0 -61 165c-7,18 -12,30 -16,37 -5,9 -10,16 -16,20 -7,4 -14,6 -23,6 -5,0 -11,-1 -18,-3z"/>
  </g>
 </g>
</svg>
