<?xml version="1.0" encoding="UTF-8"?>
<!DOCTYPE svg PUBLIC "-//W3C//DTD SVG 1.1//EN" "http://www.w3.org/Graphics/SVG/1.1/DTD/svg11.dtd">
<!-- Creator: CorelDRAW X8 -->
<svg xmlns="http://www.w3.org/2000/svg" xml:space="preserve" width="2.79688in" height="3in" version="1.1" style="shape-rendering:geometricPrecision; text-rendering:geometricPrecision; image-rendering:optimizeQuality; fill-rule:evenodd; clip-rule:evenodd"
viewBox="0 0 3899 4182"
 xmlns:xlink="http://www.w3.org/1999/xlink">
 <defs>
  <style type="text/css">
   <![CDATA[
    .str0 {stroke:#1A237E;stroke-width:168.602}
    .fil6 {fill:none}
    .fil1 {fill:#FEFEFE}
    .fil2 {fill:#1A237E}
    .fil4 {fill:#4B55C2}
    .fil0 {fill:#868EE0}
    .fil3 {fill:#373435;fill-rule:nonzero}
    .fil5 {fill:#1A237E;fill-rule:nonzero}
   ]]>
  </style>
    <clipPath id="id0">
     <path d="M3272 185c244,0 442,198 442,443 0,244 -198,442 -442,442 -244,0 -443,-198 -443,-442 0,-245 199,-443 443,-443zm0 98c190,0 345,154 345,345 0,190 -155,345 -345,345 -190,0 -345,-155 -345,-345 0,-191 155,-345 345,-345z"/>
    </clipPath>
 </defs>
 <g id="Layer_x0020_1">
  <metadata id="CorelCorpID_0Corel-Layer"/>
  <g id="_2490715269488">
   <rect class="fil0" y="393" width="3089" height="3325"/>
   <polygon class="fil1 str0" points="1273,628 601,1300 601,4098 3272,4098 3272,628 "/>
   <ellipse class="fil2" cx="3272" cy="628" rx="627" ry="628"/>
   <path class="fil3" d="M951 1799l22 -2c1,9 4,16 8,22 3,6 10,11 18,14 8,4 17,6 28,6 9,0 17,-2 24,-5 7,-2 12,-6 15,-11 4,-5 5,-10 5,-15 0,-6 -1,-11 -4,-15 -4,-4 -9,-8 -17,-11 -5,-2 -15,-5 -32,-9 -17,-4 -28,-7 -35,-11 -9,-4 -15,-10 -19,-17 -4,-7 -7,-14 -7,-22 0,-10 3,-18 8,-26 5,-8 13,-14 23,-18 10,-4 21,-6 33,-6 14,0 25,2 36,6 10,4 18,11 23,19 6,9 9,18 9,29l-23 2c-1,-12 -5,-21 -12,-26 -7,-6 -18,-9 -32,-9 -14,0 -25,3 -32,8 -6,5 -10,12 -10,19 0,7 3,12 7,16 5,4 17,9 37,13 19,4 32,8 40,12 10,4 18,11 23,18 5,7 7,16 7,26 0,9 -2,18 -8,27 -5,8 -13,15 -24,20 -10,4 -21,7 -34,7 -17,0 -30,-3 -41,-7 -12,-5 -20,-12 -26,-22 -7,-9 -10,-20 -10,-32z"/>
   <path id="1" class="fil3" d="M1210 1840c-8,7 -16,12 -24,15 -7,3 -16,5 -24,5 -15,0 -26,-4 -34,-11 -7,-7 -11,-16 -11,-27 0,-6 1,-12 4,-17 3,-6 7,-10 12,-13 4,-3 10,-6 16,-8 4,-1 11,-2 19,-3 18,-2 32,-5 40,-7 0,-4 0,-5 0,-6 0,-9 -2,-16 -6,-19 -6,-5 -14,-8 -25,-8 -11,0 -19,2 -24,6 -5,3 -8,10 -11,19l-21 -3c2,-9 5,-17 9,-22 5,-6 11,-11 20,-14 9,-3 19,-4 30,-4 11,0 20,1 27,4 7,2 12,6 16,10 3,4 5,9 7,15 0,4 1,10 1,20l0 30c0,20 0,33 1,39 1,5 3,11 6,16l-24 0c-2,-5 -3,-10 -4,-17zm-2 -49c-8,3 -20,6 -36,8 -9,2 -16,3 -20,5 -3,1 -6,4 -8,7 -2,3 -3,7 -3,10 0,6 2,11 6,15 5,4 11,6 20,6 9,0 16,-2 23,-6 7,-3 11,-8 15,-15 2,-5 3,-12 3,-22l0 -8z"/>
   <polygon id="2" class="fil3" points="1264,1857 1264,1676 1287,1676 1287,1857 "/>
   <path id="3" class="fil3" d="M1411 1814l23 3c-4,14 -11,24 -20,31 -10,8 -23,12 -38,12 -19,0 -34,-6 -45,-18 -12,-12 -17,-29 -17,-50 0,-22 5,-39 17,-51 11,-12 26,-18 44,-18 17,0 32,6 43,18 11,12 16,28 16,50 0,1 0,3 0,6l-97 0c0,14 4,25 12,33 7,7 16,11 27,11 8,0 15,-2 21,-6 6,-4 10,-11 14,-21zm-73 -35l73 0c-1,-11 -4,-20 -8,-25 -7,-9 -17,-13 -28,-13 -10,0 -19,3 -26,10 -7,7 -10,16 -11,28z"/>
   <path id="4" class="fil3" d="M1453 1818l22 -4c1,9 5,16 10,20 6,5 14,7 24,7 10,0 18,-2 23,-6 5,-4 7,-9 7,-15 0,-5 -2,-9 -6,-11 -4,-2 -11,-5 -23,-8 -16,-4 -28,-8 -34,-11 -6,-3 -11,-7 -14,-12 -4,-5 -5,-11 -5,-18 0,-5 1,-11 4,-16 2,-5 6,-9 11,-12 3,-3 8,-5 14,-7 6,-1 12,-2 19,-2 10,0 19,1 27,4 8,3 14,7 17,12 4,5 7,12 8,21l-22 3c-1,-7 -4,-13 -8,-16 -5,-4 -12,-6 -20,-6 -11,0 -18,2 -22,5 -5,3 -7,7 -7,12 0,3 1,5 3,8 2,2 5,4 8,6 3,0 9,2 20,5 16,4 27,8 33,10 6,3 11,7 15,12 3,5 5,12 5,19 0,8 -2,14 -7,21 -4,7 -10,12 -18,15 -8,4 -18,6 -28,6 -17,0 -30,-4 -39,-11 -9,-7 -15,-18 -17,-31z"/>
   <path id="5" class="fil3" d="M1746 1786l0 -22 77 0 0 68c-12,9 -24,16 -37,21 -12,4 -25,7 -38,7 -18,0 -34,-4 -49,-12 -14,-7 -25,-18 -33,-33 -7,-14 -11,-30 -11,-48 0,-18 4,-34 11,-49 8,-16 18,-27 32,-34 14,-8 30,-11 48,-11 13,0 25,2 35,6 11,4 19,10 25,18 6,7 11,17 14,29l-22 6c-2,-9 -6,-16 -10,-21 -4,-6 -10,-10 -17,-13 -8,-3 -16,-5 -25,-5 -11,0 -20,2 -28,5 -8,3 -15,8 -20,13 -5,6 -8,12 -11,18 -5,11 -7,24 -7,37 0,16 3,29 8,40 6,11 14,19 25,25 10,5 21,8 33,8 11,0 21,-2 31,-6 10,-5 17,-9 22,-13l0 -34 -53 0z"/>
   <path id="6" class="fil3" d="M1855 1857l0 -132 20 0 0 21c5,-10 10,-16 14,-19 4,-3 9,-4 14,-4 8,0 16,2 23,7l-8 20c-5,-3 -10,-4 -16,-4 -5,0 -9,1 -13,4 -4,3 -6,7 -8,12 -3,8 -4,17 -4,26l0 69 -22 0z"/>
   <path id="7" class="fil3" d="M2025 1840c-8,7 -16,12 -24,15 -7,3 -15,5 -24,5 -15,0 -26,-4 -33,-11 -8,-7 -12,-16 -12,-27 0,-6 1,-12 4,-17 3,-6 7,-10 12,-13 5,-3 10,-6 16,-8 4,-1 11,-2 20,-3 18,-2 31,-5 39,-7 0,-4 0,-5 0,-6 0,-9 -2,-16 -6,-19 -6,-5 -14,-8 -25,-8 -11,0 -18,2 -23,6 -5,3 -9,10 -12,19l-21 -3c2,-9 5,-17 9,-22 5,-6 12,-11 20,-14 9,-3 19,-4 30,-4 11,0 20,1 27,4 7,2 13,6 16,10 3,4 6,9 7,15 1,4 1,10 1,20l0 30c0,20 0,33 1,39 1,5 3,11 6,16l-23 0c-3,-5 -4,-10 -5,-17zm-2 -49c-8,3 -20,6 -36,8 -9,2 -16,3 -19,5 -4,1 -7,4 -9,7 -2,3 -3,7 -3,10 0,6 2,11 6,15 5,4 12,6 20,6 9,0 16,-2 23,-6 7,-3 12,-8 15,-15 2,-5 3,-12 3,-22l0 -8z"/>
   <path id="8" class="fil3" d="M2080 1907l0 -182 20 0 0 18c5,-7 11,-12 17,-15 6,-4 13,-5 21,-5 12,0 21,3 30,8 9,6 15,14 19,25 5,10 7,22 7,34 0,14 -2,26 -7,36 -5,11 -12,19 -21,25 -9,6 -19,9 -29,9 -8,0 -14,-2 -20,-5 -6,-3 -11,-7 -15,-12l0 64 -22 0zm20 -115c0,17 4,29 11,37 6,8 15,12 24,12 10,0 19,-4 26,-12 7,-9 10,-21 10,-39 0,-17 -3,-29 -10,-37 -7,-9 -15,-13 -25,-13 -9,0 -17,5 -25,13 -7,9 -11,22 -11,39z"/>
   <path id="9" class="fil3" d="M2221 1857l0 -181 22 0 0 65c10,-12 23,-18 39,-18 10,0 18,2 25,5 7,4 13,10 16,16 3,7 4,17 4,30l0 83 -22 0 0 -83c0,-11 -2,-19 -7,-24 -5,-6 -12,-8 -20,-8 -7,0 -13,2 -19,5 -6,3 -10,8 -12,14 -3,6 -4,14 -4,24l0 72 -22 0z"/>
   <rect class="fil4" x="1027" y="3072" width="158" height="646"/>
   <rect class="fil4" x="1359" y="3395" width="158" height="323"/>
   <rect class="fil4" x="1691" y="3072" width="158" height="646"/>
   <rect class="fil4" x="2023" y="2874" width="158" height="844"/>
   <rect class="fil4" x="2355" y="3072" width="158" height="646"/>
   <rect class="fil4" x="2687" y="2974" width="158" height="744"/>
   <rect class="fil2" x="2355" y="2621" width="158" height="452"/>
   <g>
    <polygon class="fil5" points="2988,3723 885,3723 885,3713 2988,3713 "/>
   </g>
   <path class="fil1" d="M3272 185c244,0 442,198 442,443 0,244 -198,442 -442,442 -244,0 -443,-198 -443,-442 0,-245 199,-443 443,-443zm0 98c190,0 345,154 345,345 0,190 -155,345 -345,345 -190,0 -345,-155 -345,-345 0,-191 155,-345 345,-345z"/>
   <g style="clip-path:url(#id0)">
    <g id="_2490715270448">
     <polygon id="1" class="fil4" points="3272,628 3585,315 3836,422 3836,990 3357,1255 "/>
    </g>
   </g>
   <path class="fil6" d="M3272 185c244,0 442,198 442,443 0,244 -198,442 -442,442 -244,0 -443,-198 -443,-442 0,-245 199,-443 443,-443zm0 98c190,0 345,154 345,345 0,190 -155,345 -345,345 -190,0 -345,-155 -345,-345 0,-191 155,-345 345,-345z"/>
  </g>
 </g>
</svg>
