<svg width="328" height="352" viewBox="0 0 328 352" fill="none" xmlns="http://www.w3.org/2000/svg">
<g filter="url(#filter0_d_381_517)">
<rect y="24" width="150" height="150" rx="16" fill="white" shape-rendering="crispEdges"/>
<rect x="1.5" y="25.5" width="147" height="147" rx="14.5" stroke="#212528" stroke-width="3" shape-rendering="crispEdges"/>
<path d="M49.0987 101.724H34.8583V134.803H49.0987V101.724Z" fill="#F8A04A"/>
<path d="M71.1143 85.537H56.8738V134.803H71.1143V85.537Z" fill="#F03A93"/>
<path d="M93.1272 63.1966H78.8875V134.803H93.1272V63.1966Z" fill="#52C4B0"/>
<path d="M115.142 94.5151H100.901V134.803H115.142V94.5151Z" fill="#5772C1"/>
</g>
<g filter="url(#filter1_d_381_517)">
<rect x="174" width="150" height="150" rx="16" fill="white" shape-rendering="crispEdges"/>
<rect x="175.5" y="1.5" width="147" height="147" rx="14.5" stroke="#212528" stroke-width="3" shape-rendering="crispEdges"/>
<path d="M300.964 74.9999C300.964 46.5371 277.699 23.4649 249 23.4649C220.301 23.4649 197.036 46.5371 197.036 74.9999C197.036 103.463 220.301 126.535 249 126.535C277.699 126.535 300.964 103.463 300.964 74.9999Z" fill="white"/>
<path d="M247.767 75.7948L207.24 61.7743C205.654 66.2813 204.845 71.0214 204.845 75.7948C204.845 99.1472 224.221 118.363 247.767 118.363C255.546 118.363 263.182 116.265 269.853 112.295L247.767 75.7948Z" fill="#52C4B0"/>
<path d="M249.992 74.9999L272.361 111.331C278.638 107.529 283.826 102.191 287.425 95.8289C291.024 89.4672 292.915 82.2939 292.915 74.9999H249.992Z" fill="#F03A93"/>
<path d="M250.242 72.9496L293.159 72.3614C293.079 66.5698 291.807 60.8545 289.422 55.5664C287.037 50.2797 283.588 45.5299 279.288 41.6097L250.242 72.9496Z" fill="#F8A04A"/>
</g>
<g filter="url(#filter2_d_381_517)">
<rect y="198" width="150" height="150" rx="16" fill="white" shape-rendering="crispEdges"/>
<rect x="1.5" y="199.5" width="147" height="147" rx="14.5" stroke="#212528" stroke-width="3" shape-rendering="crispEdges"/>
<path d="M87.3928 289.081L68.9678 266.124L52.9444 286.657L39.0539 271.648L40.8691 269.968L52.7832 282.841L68.9397 262.139L86.8842 284.495L97.2991 263.23L119.286 259.341L119.718 261.778L98.9683 265.446L87.3928 289.081Z" fill="#CFCFCF"/>
<path d="M122.676 260.559C122.676 258.805 121.253 257.383 119.5 257.383C117.746 257.383 116.323 258.805 116.323 260.559C116.323 262.313 117.746 263.736 119.5 263.736C121.253 263.736 122.676 262.313 122.676 260.559Z" fill="#F03A93"/>
<path d="M90.4463 286.788C90.4463 285.034 89.0249 283.612 87.2706 283.612C85.5172 283.612 84.095 285.034 84.095 286.788C84.095 288.542 85.5172 289.963 87.2706 289.963C89.0249 289.963 90.4463 288.542 90.4463 286.788Z" fill="#5772C1"/>
<path d="M100.947 264.338C100.947 262.583 99.525 261.162 97.7707 261.162C96.0172 261.162 94.5951 262.583 94.5951 264.338C94.5951 266.091 96.0172 267.513 97.7707 267.513C99.525 267.513 100.947 266.091 100.947 264.338Z" fill="#F8A04A"/>
<path d="M72.0121 264.338C72.0121 262.583 70.5899 261.162 68.8364 261.162C67.0822 261.162 65.6608 262.583 65.6608 264.338C65.6608 266.091 67.0822 267.513 68.8364 267.513C70.5899 267.513 72.0121 266.091 72.0121 264.338Z" fill="#F8A04A"/>
<path d="M56.4257 284.37C56.4257 282.616 55.0035 281.194 53.2492 281.194C51.4958 281.194 50.0736 282.616 50.0736 284.37C50.0736 286.124 51.4958 287.546 53.2492 287.546C55.0035 287.546 56.4257 286.124 56.4257 284.37Z" fill="#F03A93"/>
<path d="M43.826 271.41C43.826 269.656 42.4038 268.234 40.6503 268.234C38.8961 268.234 37.4739 269.656 37.4739 271.41C37.4739 273.164 38.8961 274.586 40.6503 274.586C42.4038 274.586 43.826 273.164 43.826 271.41Z" fill="#52C4B0"/>
<path d="M26.68 251.346V294.654H123.32" stroke="#454970" stroke-width="3" stroke-miterlimit="10"/>
</g>
<path d="M182.004 322V311.818H185.822C186.605 311.818 187.261 311.954 187.791 312.226C188.325 312.498 188.728 312.879 188.999 313.369C189.274 313.857 189.412 314.425 189.412 315.075C189.412 315.728 189.273 316.294 188.994 316.775C188.719 317.252 188.313 317.622 187.776 317.884C187.239 318.142 186.58 318.271 185.798 318.271H183.078V316.74H185.549C186.006 316.74 186.381 316.677 186.673 316.551C186.964 316.422 187.18 316.235 187.319 315.989C187.461 315.741 187.533 315.436 187.533 315.075C187.533 314.713 187.461 314.405 187.319 314.15C187.176 313.891 186.959 313.696 186.668 313.563C186.376 313.427 186 313.359 185.539 313.359H183.849V322H182.004ZM187.264 317.386L189.785 322H187.727L185.251 317.386H187.264ZM194.301 322.149C193.536 322.149 192.875 321.99 192.318 321.672C191.764 321.35 191.338 320.896 191.04 320.31C190.742 319.72 190.593 319.025 190.593 318.227C190.593 317.441 190.742 316.752 191.04 316.158C191.342 315.562 191.763 315.098 192.303 314.766C192.843 314.432 193.478 314.264 194.207 314.264C194.678 314.264 195.122 314.34 195.539 314.493C195.96 314.642 196.332 314.874 196.653 315.189C196.978 315.504 197.233 315.905 197.419 316.392C197.604 316.876 197.697 317.453 197.697 318.122V318.674H191.438V317.461H195.972C195.969 317.116 195.894 316.81 195.748 316.541C195.602 316.269 195.399 316.056 195.137 315.9C194.878 315.744 194.577 315.666 194.232 315.666C193.864 315.666 193.541 315.756 193.262 315.935C192.984 316.11 192.767 316.342 192.611 316.631C192.459 316.916 192.381 317.229 192.377 317.57V318.629C192.377 319.073 192.459 319.455 192.621 319.773C192.783 320.088 193.011 320.33 193.302 320.499C193.594 320.664 193.935 320.747 194.326 320.747C194.588 320.747 194.825 320.711 195.037 320.638C195.249 320.562 195.433 320.451 195.589 320.305C195.745 320.159 195.863 319.978 195.942 319.763L197.623 319.952C197.516 320.396 197.314 320.784 197.016 321.115C196.721 321.443 196.343 321.698 195.882 321.881C195.422 322.06 194.895 322.149 194.301 322.149ZM201.417 322.154C200.933 322.154 200.497 322.068 200.11 321.896C199.725 321.72 199.42 321.461 199.195 321.12C198.973 320.779 198.862 320.358 198.862 319.857C198.862 319.426 198.941 319.07 199.1 318.788C199.259 318.507 199.477 318.281 199.752 318.112C200.027 317.943 200.337 317.816 200.681 317.729C201.029 317.64 201.389 317.575 201.76 317.536C202.208 317.489 202.57 317.448 202.849 317.411C203.127 317.371 203.329 317.312 203.455 317.232C203.585 317.149 203.649 317.022 203.649 316.849V316.82C203.649 316.445 203.538 316.155 203.316 315.95C203.094 315.744 202.774 315.641 202.357 315.641C201.916 315.641 201.566 315.737 201.308 315.93C201.052 316.122 200.88 316.349 200.791 316.611L199.11 316.372C199.243 315.908 199.462 315.52 199.767 315.209C200.071 314.894 200.444 314.659 200.885 314.503C201.326 314.344 201.813 314.264 202.347 314.264C202.715 314.264 203.081 314.307 203.445 314.393C203.81 314.48 204.143 314.622 204.445 314.821C204.746 315.017 204.988 315.283 205.171 315.621C205.356 315.96 205.449 316.382 205.449 316.889V322H203.719V320.951H203.659C203.55 321.163 203.396 321.362 203.197 321.548C203.001 321.73 202.754 321.877 202.456 321.99C202.161 322.099 201.815 322.154 201.417 322.154ZM201.884 320.832C202.246 320.832 202.559 320.76 202.824 320.618C203.089 320.472 203.293 320.28 203.436 320.041C203.581 319.803 203.654 319.542 203.654 319.261V318.361C203.598 318.407 203.502 318.45 203.366 318.49C203.233 318.53 203.084 318.565 202.919 318.594C202.753 318.624 202.589 318.651 202.426 318.674C202.264 318.697 202.123 318.717 202.004 318.734C201.735 318.77 201.495 318.83 201.283 318.913C201.071 318.996 200.903 319.112 200.781 319.261C200.658 319.406 200.597 319.595 200.597 319.827C200.597 320.159 200.718 320.409 200.96 320.578C201.202 320.747 201.51 320.832 201.884 320.832ZM209.058 311.818V322H207.259V311.818H209.058ZM215.538 317.018V318.5H210.954V317.018H215.538ZM216.434 313.364V311.818H224.557V313.364H221.41V322H219.581V313.364H216.434ZM226.044 322V314.364H227.844V322H226.044ZM226.949 313.28C226.664 313.28 226.418 313.185 226.213 312.996C226.007 312.804 225.905 312.574 225.905 312.305C225.905 312.034 226.007 311.803 226.213 311.614C226.418 311.422 226.664 311.326 226.949 311.326C227.237 311.326 227.482 311.422 227.684 311.614C227.89 311.803 227.993 312.034 227.993 312.305C227.993 312.574 227.89 312.804 227.684 312.996C227.482 313.185 227.237 313.28 226.949 313.28ZM229.694 322V314.364H231.414V315.661H231.504C231.663 315.224 231.926 314.882 232.294 314.637C232.662 314.388 233.101 314.264 233.612 314.264C234.129 314.264 234.565 314.39 234.919 314.642C235.277 314.891 235.529 315.23 235.675 315.661H235.755C235.924 315.237 236.209 314.899 236.61 314.647C237.014 314.392 237.493 314.264 238.047 314.264C238.749 314.264 239.323 314.486 239.767 314.93C240.211 315.375 240.433 316.022 240.433 316.874V322H238.628V317.153C238.628 316.679 238.502 316.332 238.25 316.114C237.998 315.892 237.69 315.781 237.326 315.781C236.891 315.781 236.552 315.916 236.306 316.188C236.065 316.457 235.944 316.806 235.944 317.237V322H234.179V317.078C234.179 316.684 234.059 316.369 233.821 316.134C233.585 315.898 233.277 315.781 232.896 315.781C232.637 315.781 232.402 315.847 232.19 315.979C231.978 316.109 231.809 316.293 231.683 316.531C231.557 316.767 231.494 317.042 231.494 317.357V322H229.694ZM245.639 322.149C244.874 322.149 244.213 321.99 243.656 321.672C243.102 321.35 242.676 320.896 242.378 320.31C242.08 319.72 241.931 319.025 241.931 318.227C241.931 317.441 242.08 316.752 242.378 316.158C242.68 315.562 243.101 315.098 243.641 314.766C244.181 314.432 244.816 314.264 245.545 314.264C246.016 314.264 246.46 314.34 246.877 314.493C247.298 314.642 247.669 314.874 247.991 315.189C248.316 315.504 248.571 315.905 248.757 316.392C248.942 316.876 249.035 317.453 249.035 318.122V318.674H242.776V317.461H247.31C247.307 317.116 247.232 316.81 247.086 316.541C246.94 316.269 246.736 316.056 246.475 315.9C246.216 315.744 245.914 315.666 245.57 315.666C245.202 315.666 244.879 315.756 244.6 315.935C244.322 316.11 244.105 316.342 243.949 316.631C243.797 316.916 243.719 317.229 243.715 317.57V318.629C243.715 319.073 243.797 319.455 243.959 319.773C244.121 320.088 244.348 320.33 244.64 320.499C244.932 320.664 245.273 320.747 245.664 320.747C245.926 320.747 246.163 320.711 246.375 320.638C246.587 320.562 246.771 320.451 246.927 320.305C247.083 320.159 247.2 319.978 247.28 319.763L248.96 319.952C248.854 320.396 248.652 320.784 248.354 321.115C248.059 321.443 247.681 321.698 247.22 321.881C246.76 322.06 246.233 322.149 245.639 322.149ZM254.11 322V311.818H257.928C258.71 311.818 259.366 311.954 259.897 312.226C260.43 312.498 260.833 312.879 261.105 313.369C261.38 313.857 261.517 314.425 261.517 315.075C261.517 315.728 261.378 316.294 261.1 316.775C260.825 317.252 260.419 317.622 259.882 317.884C259.345 318.142 258.685 318.271 257.903 318.271H255.184V316.74H257.654C258.112 316.74 258.486 316.677 258.778 316.551C259.07 316.422 259.285 316.235 259.424 315.989C259.567 315.741 259.638 315.436 259.638 315.075C259.638 314.713 259.567 314.405 259.424 314.15C259.282 313.891 259.065 313.696 258.773 313.563C258.481 313.427 258.105 313.359 257.645 313.359H255.954V322H254.11ZM259.37 317.386L261.89 322H259.832L257.356 317.386H259.37ZM266.407 322.149C265.641 322.149 264.98 321.99 264.423 321.672C263.87 321.35 263.444 320.896 263.146 320.31C262.847 319.72 262.698 319.025 262.698 318.227C262.698 317.441 262.847 316.752 263.146 316.158C263.447 315.562 263.868 315.098 264.408 314.766C264.949 314.432 265.583 314.264 266.312 314.264C266.783 314.264 267.227 314.34 267.645 314.493C268.066 314.642 268.437 314.874 268.759 315.189C269.083 315.504 269.339 315.905 269.524 316.392C269.71 316.876 269.803 317.453 269.803 318.122V318.674H263.543V317.461H268.077C268.074 317.116 268 316.81 267.854 316.541C267.708 316.269 267.504 316.056 267.242 315.9C266.984 315.744 266.682 315.666 266.337 315.666C265.969 315.666 265.646 315.756 265.368 315.935C265.089 316.11 264.872 316.342 264.717 316.631C264.564 316.916 264.486 317.229 264.483 317.57V318.629C264.483 319.073 264.564 319.455 264.727 319.773C264.889 320.088 265.116 320.33 265.408 320.499C265.699 320.664 266.041 320.747 266.432 320.747C266.694 320.747 266.931 320.711 267.143 320.638C267.355 320.562 267.539 320.451 267.695 320.305C267.85 320.159 267.968 319.978 268.048 319.763L269.728 319.952C269.622 320.396 269.42 320.784 269.121 321.115C268.826 321.443 268.449 321.698 267.988 321.881C267.527 322.06 267 322.149 266.407 322.149ZM271.325 324.864V314.364H273.095V315.626H273.199C273.292 315.441 273.423 315.244 273.592 315.035C273.761 314.823 273.99 314.642 274.278 314.493C274.567 314.34 274.934 314.264 275.382 314.264C275.972 314.264 276.504 314.415 276.978 314.717C277.455 315.015 277.833 315.457 278.111 316.044C278.393 316.627 278.534 317.343 278.534 318.192C278.534 319.03 278.396 319.743 278.121 320.33C277.846 320.916 277.472 321.364 276.998 321.672C276.524 321.98 275.987 322.134 275.387 322.134C274.949 322.134 274.586 322.061 274.298 321.915C274.01 321.77 273.778 321.594 273.602 321.388C273.43 321.18 273.296 320.982 273.199 320.797H273.125V324.864H271.325ZM273.09 318.182C273.09 318.676 273.16 319.108 273.299 319.479C273.441 319.851 273.645 320.141 273.91 320.349C274.179 320.555 274.504 320.658 274.885 320.658C275.282 320.658 275.616 320.552 275.884 320.339C276.153 320.124 276.355 319.831 276.491 319.46C276.63 319.085 276.699 318.659 276.699 318.182C276.699 317.708 276.631 317.287 276.496 316.919C276.36 316.551 276.157 316.263 275.889 316.054C275.621 315.845 275.286 315.741 274.885 315.741C274.5 315.741 274.174 315.842 273.905 316.044C273.637 316.246 273.433 316.53 273.294 316.894C273.158 317.259 273.09 317.688 273.09 318.182ZM283.406 322.149C282.66 322.149 282.014 321.985 281.467 321.657C280.92 321.329 280.496 320.87 280.194 320.28C279.896 319.69 279.747 319 279.747 318.212C279.747 317.423 279.896 316.732 280.194 316.138C280.496 315.545 280.92 315.085 281.467 314.756C282.014 314.428 282.66 314.264 283.406 314.264C284.152 314.264 284.798 314.428 285.345 314.756C285.892 315.085 286.314 315.545 286.613 316.138C286.914 316.732 287.065 317.423 287.065 318.212C287.065 319 286.914 319.69 286.613 320.28C286.314 320.87 285.892 321.329 285.345 321.657C284.798 321.985 284.152 322.149 283.406 322.149ZM283.416 320.707C283.82 320.707 284.158 320.596 284.43 320.374C284.702 320.149 284.904 319.847 285.037 319.469C285.173 319.092 285.241 318.671 285.241 318.207C285.241 317.739 285.173 317.317 285.037 316.939C284.904 316.558 284.702 316.254 284.43 316.029C284.158 315.804 283.82 315.691 283.416 315.691C283.002 315.691 282.657 315.804 282.382 316.029C282.11 316.254 281.906 316.558 281.77 316.939C281.638 317.317 281.572 317.739 281.572 318.207C281.572 318.671 281.638 319.092 281.77 319.469C281.906 319.847 282.11 320.149 282.382 320.374C282.657 320.596 283.002 320.707 283.416 320.707ZM288.593 322V314.364H290.338V315.636H290.417C290.556 315.196 290.795 314.856 291.133 314.617C291.475 314.375 291.864 314.254 292.301 314.254C292.401 314.254 292.512 314.259 292.635 314.269C292.761 314.276 292.865 314.287 292.948 314.304V315.96C292.872 315.933 292.751 315.91 292.585 315.89C292.422 315.867 292.265 315.855 292.113 315.855C291.784 315.855 291.489 315.926 291.228 316.069C290.969 316.208 290.765 316.402 290.616 316.651C290.467 316.899 290.392 317.186 290.392 317.511V322H288.593ZM298.367 314.364V315.756H293.977V314.364H298.367ZM295.061 312.534H296.86V319.703C296.86 319.945 296.897 320.131 296.97 320.26C297.046 320.386 297.145 320.472 297.268 320.518C297.391 320.565 297.527 320.588 297.676 320.588C297.788 320.588 297.891 320.58 297.984 320.563C298.08 320.547 298.153 320.532 298.203 320.518L298.506 321.925C298.41 321.959 298.272 321.995 298.093 322.035C297.918 322.075 297.702 322.098 297.447 322.104C296.996 322.118 296.59 322.05 296.229 321.901C295.868 321.748 295.581 321.513 295.369 321.195C295.16 320.876 295.057 320.479 295.061 320.001V312.534ZM305.798 316.382L304.157 316.561C304.111 316.395 304.03 316.24 303.914 316.094C303.801 315.948 303.649 315.83 303.456 315.741C303.264 315.651 303.029 315.607 302.751 315.607C302.376 315.607 302.061 315.688 301.806 315.85C301.554 316.013 301.43 316.223 301.433 316.482C301.43 316.704 301.511 316.884 301.677 317.023C301.846 317.163 302.124 317.277 302.512 317.366L303.814 317.645C304.537 317.801 305.074 318.048 305.425 318.386C305.78 318.724 305.959 319.166 305.962 319.713C305.959 320.194 305.818 320.618 305.54 320.986C305.265 321.35 304.882 321.635 304.391 321.841C303.901 322.046 303.337 322.149 302.701 322.149C301.766 322.149 301.014 321.954 300.444 321.562C299.874 321.168 299.534 320.62 299.425 319.917L301.18 319.748C301.259 320.093 301.428 320.353 301.687 320.528C301.945 320.704 302.282 320.792 302.696 320.792C303.123 320.792 303.466 320.704 303.725 320.528C303.987 320.353 304.118 320.136 304.118 319.877C304.118 319.658 304.033 319.478 303.864 319.335C303.698 319.193 303.44 319.083 303.089 319.007L301.786 318.734C301.054 318.581 300.512 318.324 300.16 317.963C299.809 317.598 299.635 317.138 299.638 316.581C299.635 316.11 299.763 315.703 300.021 315.358C300.283 315.01 300.646 314.741 301.11 314.553C301.577 314.36 302.116 314.264 302.726 314.264C303.621 314.264 304.325 314.455 304.839 314.836C305.356 315.217 305.675 315.732 305.798 316.382Z" fill="#3F4346"/>
<defs>
<filter id="filter0_d_381_517" x="0" y="24" width="154" height="154" filterUnits="userSpaceOnUse" color-interpolation-filters="sRGB">
<feFlood flood-opacity="0" result="BackgroundImageFix"/>
<feColorMatrix in="SourceAlpha" type="matrix" values="0 0 0 0 0 0 0 0 0 0 0 0 0 0 0 0 0 0 127 0" result="hardAlpha"/>
<feOffset dx="4" dy="4"/>
<feComposite in2="hardAlpha" operator="out"/>
<feColorMatrix type="matrix" values="0 0 0 0 0.667568 0 0 0 0 0.805297 0 0 0 0 0.932432 0 0 0 1 0"/>
<feBlend mode="normal" in2="BackgroundImageFix" result="effect1_dropShadow_381_517"/>
<feBlend mode="normal" in="SourceGraphic" in2="effect1_dropShadow_381_517" result="shape"/>
</filter>
<filter id="filter1_d_381_517" x="174" y="0" width="154" height="154" filterUnits="userSpaceOnUse" color-interpolation-filters="sRGB">
<feFlood flood-opacity="0" result="BackgroundImageFix"/>
<feColorMatrix in="SourceAlpha" type="matrix" values="0 0 0 0 0 0 0 0 0 0 0 0 0 0 0 0 0 0 127 0" result="hardAlpha"/>
<feOffset dx="4" dy="4"/>
<feComposite in2="hardAlpha" operator="out"/>
<feColorMatrix type="matrix" values="0 0 0 0 0.932432 0 0 0 0 0.778811 0 0 0 0 0.667568 0 0 0 1 0"/>
<feBlend mode="normal" in2="BackgroundImageFix" result="effect1_dropShadow_381_517"/>
<feBlend mode="normal" in="SourceGraphic" in2="effect1_dropShadow_381_517" result="shape"/>
</filter>
<filter id="filter2_d_381_517" x="0" y="198" width="154" height="154" filterUnits="userSpaceOnUse" color-interpolation-filters="sRGB">
<feFlood flood-opacity="0" result="BackgroundImageFix"/>
<feColorMatrix in="SourceAlpha" type="matrix" values="0 0 0 0 0 0 0 0 0 0 0 0 0 0 0 0 0 0 127 0" result="hardAlpha"/>
<feOffset dx="4" dy="4"/>
<feComposite in2="hardAlpha" operator="out"/>
<feColorMatrix type="matrix" values="0 0 0 0 0.672865 0 0 0 0 0.932432 0 0 0 0 0.667568 0 0 0 1 0"/>
<feBlend mode="normal" in2="BackgroundImageFix" result="effect1_dropShadow_381_517"/>
<feBlend mode="normal" in="SourceGraphic" in2="effect1_dropShadow_381_517" result="shape"/>
</filter>
</defs>
</svg>
