<svg width="355" height="230" viewBox="0 0 355 230" fill="none" xmlns="http://www.w3.org/2000/svg">
<g filter="url(#filter0_d_419_479)">
<rect width="225.287" height="225.287" rx="16.092" fill="white" shape-rendering="crispEdges"/>
<rect x="1.5" y="1.5" width="222.287" height="222.287" rx="14.592" stroke="#212528" stroke-width="3" shape-rendering="crispEdges"/>
<path d="M152.515 76.3071L134.412 84.7554L122.695 73.7424V66.7022L134.412 55.6893L152.515 64.1375C154.426 65.0427 156.639 64.1878 157.544 62.3272C158.449 60.4163 157.594 58.2036 155.734 57.2985L136.021 48.0959C134.11 47.1907 131.847 47.593 130.339 49.1016L121.589 57.1476C120.683 55.9407 119.275 55.1361 117.666 55.1361C114.9 55.1361 112.638 57.399 112.638 60.1648V65.1936H96.6461C94.2323 58.4048 87.3933 53.7783 79.4479 55.4881C73.6145 56.7453 68.6361 61.774 67.5801 67.7079C66.4737 74.3459 69.8933 80.1289 75.0226 83.1964L87.8961 125.538H72.4076V140.625H137.781V125.538H119.577L94.5844 79.1232C95.4392 77.9163 96.1433 76.6591 96.6461 75.251H112.638V80.2798C112.638 83.0456 114.9 85.3085 117.666 85.3085C119.275 85.3085 120.683 84.5039 121.589 83.297L130.339 91.343C131.847 92.8516 134.11 93.2539 136.021 92.3487L155.734 83.1462C157.645 82.241 158.449 80.0283 157.544 78.1174C156.639 76.2568 154.426 75.4019 152.515 76.3071ZM82.4651 75.251C79.6993 75.251 77.4364 72.9881 77.4364 70.2223C77.4364 67.4565 79.6993 65.1936 82.4651 65.1936C85.2309 65.1936 87.4938 67.4565 87.4938 70.2223C87.4938 72.9881 85.2309 75.251 82.4651 75.251Z" fill="#F2CA55"/>
<path d="M48.1295 185.512H44.7351L50.9153 167.957H54.8412L61.0299 185.512H57.6355L52.9468 171.557H52.8097L48.1295 185.512ZM48.241 178.629H57.4984V181.183H48.241V178.629ZM71.5967 179.974V172.346H74.6997V185.512H71.691V183.172H71.5539C71.2567 183.909 70.7681 184.512 70.0881 184.98C69.4138 185.449 68.5823 185.683 67.5937 185.683C66.7308 185.683 65.968 185.492 65.3051 185.109C64.6479 184.72 64.1336 184.157 63.7622 183.42C63.3907 182.677 63.205 181.78 63.205 180.729V172.346H66.308V180.249C66.308 181.083 66.5366 181.746 66.9937 182.237C67.4509 182.729 68.0509 182.974 68.7938 182.974C69.2509 182.974 69.6938 182.863 70.1224 182.64C70.551 182.417 70.9024 182.086 71.1767 181.646C71.4567 181.2 71.5967 180.643 71.5967 179.974ZM84.465 172.346V174.746H76.8962V172.346H84.465ZM78.7648 169.191H81.8678V181.552C81.8678 181.969 81.9306 182.289 82.0563 182.512C82.1878 182.729 82.3592 182.877 82.5706 182.957C82.7821 183.037 83.0164 183.077 83.2735 183.077C83.4678 183.077 83.645 183.063 83.805 183.034C83.9707 183.006 84.0964 182.98 84.1821 182.957L84.705 185.383C84.5393 185.44 84.3021 185.503 83.9935 185.572C83.6907 185.64 83.3192 185.68 82.8792 185.692C82.1021 185.715 81.402 185.597 80.7792 185.34C80.1563 185.077 79.662 184.672 79.2963 184.123C78.9362 183.575 78.7591 182.889 78.7648 182.066V169.191ZM92.6617 185.769C91.3759 185.769 90.2616 185.486 89.3187 184.92C88.3758 184.355 87.6444 183.563 87.1244 182.546C86.6101 181.529 86.3529 180.34 86.3529 178.98C86.3529 177.62 86.6101 176.429 87.1244 175.406C87.6444 174.383 88.3758 173.588 89.3187 173.023C90.2616 172.457 91.3759 172.174 92.6617 172.174C93.9474 172.174 95.0618 172.457 96.0047 173.023C96.9475 173.588 97.6761 174.383 98.1904 175.406C98.7105 176.429 98.9705 177.62 98.9705 178.98C98.9705 180.34 98.7105 181.529 98.1904 182.546C97.6761 183.563 96.9475 184.355 96.0047 184.92C95.0618 185.486 93.9474 185.769 92.6617 185.769ZM92.6788 183.283C93.376 183.283 93.9589 183.092 94.4275 182.709C94.896 182.32 95.2446 181.8 95.4732 181.149C95.7075 180.497 95.8246 179.772 95.8246 178.972C95.8246 178.166 95.7075 177.437 95.4732 176.786C95.2446 176.129 94.896 175.606 94.4275 175.217C93.9589 174.829 93.376 174.634 92.6788 174.634C91.9645 174.634 91.3702 174.829 90.8959 175.217C90.4273 175.606 90.0759 176.129 89.8416 176.786C89.613 177.437 89.4987 178.166 89.4987 178.972C89.4987 179.772 89.613 180.497 89.8416 181.149C90.0759 181.8 90.4273 182.32 90.8959 182.709C91.3702 183.092 91.9645 183.283 92.6788 183.283ZM101.604 185.512V172.346H104.57V174.583H104.724C104.999 173.828 105.453 173.24 106.087 172.817C106.721 172.388 107.479 172.174 108.359 172.174C109.25 172.174 110.002 172.391 110.613 172.826C111.23 173.254 111.664 173.84 111.916 174.583H112.053C112.344 173.851 112.836 173.268 113.527 172.834C114.225 172.394 115.05 172.174 116.005 172.174C117.216 172.174 118.205 172.557 118.97 173.323C119.736 174.088 120.119 175.206 120.119 176.674V185.512H117.007V177.154C117.007 176.337 116.79 175.74 116.356 175.363C115.922 174.98 115.39 174.789 114.762 174.789C114.013 174.789 113.427 175.023 113.004 175.491C112.587 175.954 112.379 176.557 112.379 177.3V185.512H109.336V177.026C109.336 176.346 109.13 175.803 108.719 175.397C108.313 174.991 107.781 174.789 107.124 174.789C106.679 174.789 106.273 174.903 105.907 175.131C105.541 175.354 105.25 175.671 105.033 176.083C104.816 176.489 104.707 176.963 104.707 177.506V185.512H101.604ZM127.056 185.777C126.221 185.777 125.47 185.629 124.801 185.332C124.138 185.029 123.613 184.583 123.224 183.995C122.841 183.406 122.65 182.68 122.65 181.817C122.65 181.074 122.787 180.46 123.061 179.974C123.336 179.489 123.71 179.1 124.184 178.809C124.658 178.517 125.193 178.297 125.787 178.149C126.387 177.994 127.007 177.883 127.647 177.814C128.419 177.734 129.044 177.663 129.524 177.6C130.004 177.531 130.353 177.429 130.57 177.291C130.793 177.149 130.904 176.929 130.904 176.631V176.58C130.904 175.934 130.713 175.434 130.33 175.08C129.947 174.726 129.396 174.549 128.676 174.549C127.916 174.549 127.313 174.714 126.867 175.046C126.427 175.377 126.13 175.769 125.976 176.22L123.078 175.809C123.307 175.009 123.684 174.34 124.21 173.803C124.736 173.26 125.378 172.854 126.138 172.586C126.899 172.311 127.739 172.174 128.659 172.174C129.293 172.174 129.924 172.248 130.553 172.397C131.182 172.546 131.756 172.791 132.276 173.134C132.796 173.471 133.213 173.931 133.527 174.514C133.847 175.097 134.007 175.826 134.007 176.7V185.512H131.024V183.703H130.922C130.733 184.069 130.467 184.412 130.124 184.732C129.787 185.046 129.361 185.3 128.847 185.495C128.339 185.683 127.741 185.777 127.056 185.777ZM127.861 183.497C128.484 183.497 129.024 183.375 129.481 183.129C129.939 182.877 130.29 182.546 130.536 182.134C130.787 181.723 130.913 181.274 130.913 180.789V179.237C130.816 179.317 130.65 179.392 130.416 179.46C130.187 179.529 129.93 179.589 129.644 179.64C129.359 179.692 129.076 179.737 128.796 179.777C128.516 179.817 128.273 179.852 128.067 179.88C127.604 179.943 127.19 180.046 126.824 180.189C126.459 180.332 126.17 180.532 125.958 180.789C125.747 181.04 125.641 181.366 125.641 181.766C125.641 182.337 125.85 182.769 126.267 183.06C126.684 183.352 127.216 183.497 127.861 183.497ZM143.702 172.346V174.746H136.133V172.346H143.702ZM138.002 169.191H141.105V181.552C141.105 181.969 141.168 182.289 141.293 182.512C141.425 182.729 141.596 182.877 141.808 182.957C142.019 183.037 142.253 183.077 142.51 183.077C142.705 183.077 142.882 183.063 143.042 183.034C143.208 183.006 143.333 182.98 143.419 182.957L143.942 185.383C143.776 185.44 143.539 185.503 143.23 185.572C142.928 185.64 142.556 185.68 142.116 185.692C141.339 185.715 140.639 185.597 140.016 185.34C139.393 185.077 138.899 184.672 138.533 184.123C138.173 183.575 137.996 182.889 138.002 182.066V169.191ZM146.297 185.512V172.346H149.4V185.512H146.297ZM147.857 170.477C147.366 170.477 146.943 170.314 146.588 169.988C146.234 169.657 146.057 169.26 146.057 168.797C146.057 168.328 146.234 167.931 146.588 167.605C146.943 167.274 147.366 167.108 147.857 167.108C148.354 167.108 148.777 167.274 149.126 167.605C149.48 167.931 149.657 168.328 149.657 168.797C149.657 169.26 149.48 169.657 149.126 169.988C148.777 170.314 148.354 170.477 147.857 170.477ZM158.334 185.769C157.048 185.769 155.934 185.486 154.991 184.92C154.048 184.355 153.317 183.563 152.797 182.546C152.282 181.529 152.025 180.34 152.025 178.98C152.025 177.62 152.282 176.429 152.797 175.406C153.317 174.383 154.048 173.588 154.991 173.023C155.934 172.457 157.048 172.174 158.334 172.174C159.62 172.174 160.734 172.457 161.677 173.023C162.62 173.588 163.348 174.383 163.863 175.406C164.383 176.429 164.643 177.62 164.643 178.98C164.643 180.34 164.383 181.529 163.863 182.546C163.348 183.563 162.62 184.355 161.677 184.92C160.734 185.486 159.62 185.769 158.334 185.769ZM158.351 183.283C159.048 183.283 159.631 183.092 160.1 182.709C160.568 182.32 160.917 181.8 161.145 181.149C161.38 180.497 161.497 179.772 161.497 178.972C161.497 178.166 161.38 177.437 161.145 176.786C160.917 176.129 160.568 175.606 160.1 175.217C159.631 174.829 159.048 174.634 158.351 174.634C157.637 174.634 157.042 174.829 156.568 175.217C156.099 175.606 155.748 176.129 155.514 176.786C155.285 177.437 155.171 178.166 155.171 178.972C155.171 179.772 155.285 180.497 155.514 181.149C155.748 181.8 156.099 182.32 156.568 182.709C157.042 183.092 157.637 183.283 158.351 183.283ZM170.379 177.797V185.512H167.276V172.346H170.242V174.583H170.396C170.699 173.846 171.182 173.26 171.845 172.826C172.514 172.391 173.339 172.174 174.322 172.174C175.231 172.174 176.022 172.368 176.697 172.757C177.377 173.146 177.902 173.708 178.274 174.446C178.651 175.183 178.837 176.077 178.831 177.129V185.512H175.728V177.609C175.728 176.729 175.499 176.04 175.042 175.543C174.591 175.046 173.965 174.797 173.165 174.797C172.622 174.797 172.139 174.917 171.716 175.157C171.299 175.391 170.971 175.731 170.731 176.177C170.496 176.623 170.379 177.163 170.379 177.797Z" fill="#212528"/>
</g>
<g filter="url(#filter1_d_419_479)">
<rect x="249.425" width="100.575" height="100.575" rx="16.092" fill="white" shape-rendering="crispEdges"/>
<rect x="250.925" y="1.5" width="97.5747" height="97.5747" rx="14.592" stroke="#212528" stroke-width="3" shape-rendering="crispEdges"/>
<path d="M316.154 43.2412L319.09 36.7821L325.549 33.8462L319.09 30.9102L316.154 24.4512L313.218 30.9102L306.759 33.8462L313.218 36.7821L316.154 43.2412ZM298.538 44.4155L292.666 31.4974L286.795 44.4155L273.876 50.2874L286.795 56.1593L292.666 69.0774L298.538 56.1593L311.456 50.2874L298.538 44.4155ZM316.154 57.3337L313.218 63.7927L306.759 66.7287L313.218 69.6646L316.154 76.1237L319.09 69.6646L325.549 66.7287L319.09 63.7927L316.154 57.3337Z" fill="#AA50F6"/>
</g>
<g filter="url(#filter2_d_419_479)">
<rect x="249.425" y="124.712" width="100.575" height="100.575" rx="16.092" fill="white" shape-rendering="crispEdges"/>
<rect x="250.925" y="126.212" width="97.5747" height="97.5747" rx="14.592" stroke="#212528" stroke-width="3" shape-rendering="crispEdges"/>
<path d="M311.456 162.293L305.796 159.733L311.456 157.173L314.017 151.513L316.577 157.173L322.237 159.733L316.577 162.293L314.017 167.954L311.456 162.293ZM320.546 176.691L318.714 172.651L316.882 176.691L312.842 178.523L316.882 180.355L318.714 184.395L320.546 180.355L324.586 178.523L320.546 176.691ZM308.708 180.567L313.265 184.019L307.393 194.189L302.132 191.982C301.662 192.287 301.145 192.592 300.629 192.851L299.924 198.488H288.18L287.476 192.827C286.959 192.569 286.466 192.287 285.972 191.958L280.711 194.166L274.839 183.996L279.396 180.543C279.372 180.285 279.372 179.98 279.372 179.698C279.372 179.416 279.372 179.111 279.396 178.829L274.839 175.376L280.711 165.206L285.972 167.414C286.442 167.108 286.959 166.803 287.476 166.545L288.18 160.908H299.924L300.629 166.568C301.145 166.827 301.639 167.108 302.132 167.437L307.393 165.229L313.265 175.399L308.708 178.852C308.732 179.134 308.732 179.416 308.732 179.721C308.732 180.027 308.732 180.285 308.708 180.567ZM301.098 179.698C301.098 175.799 297.951 172.651 294.052 172.651C290.153 172.651 287.006 175.799 287.006 179.698C287.006 183.597 290.153 186.744 294.052 186.744C297.951 186.744 301.098 183.597 301.098 179.698Z" fill="#29A653"/>
</g>
<defs>
<filter id="filter0_d_419_479" x="0" y="0" width="229.31" height="229.31" filterUnits="userSpaceOnUse" color-interpolation-filters="sRGB">
<feFlood flood-opacity="0" result="BackgroundImageFix"/>
<feColorMatrix in="SourceAlpha" type="matrix" values="0 0 0 0 0 0 0 0 0 0 0 0 0 0 0 0 0 0 127 0" result="hardAlpha"/>
<feOffset dx="4.02299" dy="4.02299"/>
<feComposite in2="hardAlpha" operator="out"/>
<feColorMatrix type="matrix" values="0 0 0 0 0.933333 0 0 0 0 0.843137 0 0 0 0 0.666667 0 0 0 1 0"/>
<feBlend mode="normal" in2="BackgroundImageFix" result="effect1_dropShadow_419_479"/>
<feBlend mode="normal" in="SourceGraphic" in2="effect1_dropShadow_419_479" result="shape"/>
</filter>
<filter id="filter1_d_419_479" x="249.425" y="0" width="104.598" height="104.598" filterUnits="userSpaceOnUse" color-interpolation-filters="sRGB">
<feFlood flood-opacity="0" result="BackgroundImageFix"/>
<feColorMatrix in="SourceAlpha" type="matrix" values="0 0 0 0 0 0 0 0 0 0 0 0 0 0 0 0 0 0 127 0" result="hardAlpha"/>
<feOffset dx="4.02299" dy="4.02299"/>
<feComposite in2="hardAlpha" operator="out"/>
<feColorMatrix type="matrix" values="0 0 0 0 0.933333 0 0 0 0 0.666667 0 0 0 0 0.905882 0 0 0 1 0"/>
<feBlend mode="normal" in2="BackgroundImageFix" result="effect1_dropShadow_419_479"/>
<feBlend mode="normal" in="SourceGraphic" in2="effect1_dropShadow_419_479" result="shape"/>
</filter>
<filter id="filter2_d_419_479" x="249.425" y="124.712" width="104.598" height="104.598" filterUnits="userSpaceOnUse" color-interpolation-filters="sRGB">
<feFlood flood-opacity="0" result="BackgroundImageFix"/>
<feColorMatrix in="SourceAlpha" type="matrix" values="0 0 0 0 0 0 0 0 0 0 0 0 0 0 0 0 0 0 127 0" result="hardAlpha"/>
<feOffset dx="4.02299" dy="4.02299"/>
<feComposite in2="hardAlpha" operator="out"/>
<feColorMatrix type="matrix" values="0 0 0 0 0.690196 0 0 0 0 0.909804 0 0 0 0 0.713726 0 0 0 1 0"/>
<feBlend mode="normal" in2="BackgroundImageFix" result="effect1_dropShadow_419_479"/>
<feBlend mode="normal" in="SourceGraphic" in2="effect1_dropShadow_419_479" result="shape"/>
</filter>
</defs>
</svg>
