<svg width="581" height="156" viewBox="0 0 581 156" fill="none" xmlns="http://www.w3.org/2000/svg">
<g clip-path="url(#clip0_10756_88922)">
<path d="M429.779 79.3414H151.186V76.6582H429.779V79.3414Z" fill="#1A237E"/>
<path d="M155.849 0.0107422H1.52588e-05V155.989H155.849V0.0107422Z" fill="#1A237E"/>
<path d="M151.186 4.67725H4.66266V151.322H151.186V4.67725Z" fill="#FEFEFE"/>
<path d="M368.349 0.0107422H212.5V155.989H368.349V0.0107422Z" fill="#1A237E"/>
<path d="M363.686 4.67725H217.163V151.322H363.686V4.67725Z" fill="#FEFEFE"/>
<path d="M580.966 0.0107422H425.117V155.989H580.966V0.0107422Z" fill="#1A237E"/>
<path d="M576.524 4.67725H430V151.322H576.524V4.67725Z" fill="#FEFEFE"/>
<path d="M48.9578 111.89C48.9578 110.257 49.424 108.974 50.24 108.041C51.1725 107.107 52.2216 106.641 53.6204 106.641C54.553 106.641 55.3689 106.874 56.1849 107.341C56.8843 107.691 57.4671 108.391 57.8168 109.091C58.1665 109.907 58.3996 110.724 58.3996 111.774C58.3996 112.824 58.1665 113.64 57.8168 114.457C57.3505 115.274 56.7677 115.857 56.0683 116.207C55.3689 116.674 54.553 116.907 53.6204 116.907C52.6879 116.907 51.8719 116.674 51.1725 116.207C50.4731 115.74 49.8903 115.157 49.5406 114.34C49.0743 113.524 48.9578 112.707 48.9578 111.89ZM50.24 111.89C50.24 113.057 50.5897 113.99 51.2891 114.69C51.8719 115.39 52.6879 115.74 53.6204 115.74C54.6695 115.74 55.4855 115.39 56.0683 114.69C56.7677 113.99 57.0008 113.057 57.0008 111.774C57.0008 110.957 56.8843 110.257 56.6511 109.674C56.3014 109.091 55.9517 108.624 55.4855 108.274C54.9026 107.924 54.3198 107.807 53.6204 107.807C52.8045 107.807 51.9885 108.041 51.2891 108.741C50.5897 109.324 50.24 110.374 50.24 111.89Z" fill="#606062"/>
<path d="M59.915 116.673V109.557H60.9641V110.49C61.5469 109.79 62.2463 109.324 63.2954 109.324C63.7617 109.324 64.1114 109.44 64.4611 109.557C64.8108 109.79 65.1605 109.907 65.277 110.257C65.5102 110.49 65.6267 110.724 65.6267 111.074C65.7433 111.307 65.7433 111.774 65.7433 112.24V116.673H64.4611V112.357C64.4611 111.89 64.4611 111.424 64.3445 111.19C64.2279 110.957 64.1114 110.84 63.8782 110.607C63.6451 110.49 63.2954 110.374 63.0623 110.374C62.4794 110.374 62.0132 110.607 61.6635 110.957C61.3138 111.19 61.0807 111.89 61.0807 112.824V116.673H59.915Z" fill="#606062"/>
<path d="M72.5041 114.34L73.7864 114.574C73.5532 115.274 73.2035 115.857 72.6207 116.207C72.1544 116.673 71.455 116.907 70.6391 116.907C69.59 116.907 68.774 116.557 68.0746 115.857C67.4918 115.274 67.1421 114.34 67.1421 113.174C67.1421 112.007 67.4918 111.074 68.0746 110.374C68.774 109.674 69.59 109.324 70.5225 109.324C71.455 109.324 72.271 109.674 72.8538 110.374C73.4367 110.957 73.7864 111.89 73.7864 113.057C73.7864 113.174 73.7864 113.29 73.7864 113.407H68.4243C68.5409 114.224 68.6574 114.807 69.1237 115.274C69.4734 115.624 70.0562 115.857 70.6391 115.857C70.9888 115.857 71.455 115.74 71.6882 115.507C72.0379 115.274 72.271 114.924 72.5041 114.34ZM68.5409 112.474H72.5041C72.5041 111.774 72.271 111.424 72.0379 111.074C71.6882 110.607 71.1053 110.374 70.5225 110.374C69.9397 110.374 69.4734 110.607 69.1237 110.957C68.774 111.307 68.5409 111.774 68.5409 112.474Z" fill="#606062"/>
<path d="M81.4797 116.674V107.924H78.2159V106.757H86.1424V107.924H82.8785V116.674H81.4797Z" fill="#606062"/>
<path d="M86.8418 108.157V106.757H88.0074V108.157H86.8418ZM86.8418 116.674V109.557H88.0074V116.674H86.8418Z" fill="#606062"/>
<path d="M89.8725 116.673V109.557H90.9216V110.49C91.1547 110.14 91.5044 109.907 91.8541 109.674C92.2038 109.44 92.6701 109.324 93.1363 109.324C93.6026 109.324 94.0689 109.44 94.4186 109.674C94.7683 109.907 95.0014 110.257 95.118 110.607C95.7008 109.79 96.4002 109.324 97.3327 109.324C98.0321 109.324 98.6149 109.557 98.9646 109.907C99.4309 110.374 99.5475 110.957 99.5475 111.774V116.673H98.3818V112.24C98.3818 111.657 98.2653 111.307 98.2653 111.19C98.1487 110.957 98.0321 110.724 97.799 110.607C97.5659 110.49 97.3327 110.374 97.0996 110.374C96.5168 110.374 96.1671 110.607 95.8174 110.957C95.4677 111.307 95.3511 111.774 95.3511 112.59V116.673H94.0689V112.007C94.0689 111.54 93.9523 111.074 93.8357 110.84C93.6026 110.607 93.2529 110.374 92.7866 110.374C92.5535 110.374 92.2038 110.49 91.8541 110.724C91.621 110.84 91.3879 111.19 91.2713 111.54C91.1547 111.774 91.0382 112.357 91.0382 112.94V116.673H89.8725Z" fill="#606062"/>
<path d="M106.192 114.34L107.474 114.574C107.357 115.274 106.891 115.857 106.425 116.207C105.842 116.673 105.143 116.907 104.327 116.907C103.278 116.907 102.462 116.557 101.879 115.857C101.296 115.274 100.946 114.34 100.946 113.174C100.946 112.007 101.296 111.074 101.879 110.374C102.462 109.674 103.278 109.324 104.327 109.324C105.259 109.324 106.075 109.674 106.658 110.374C107.241 110.957 107.591 111.89 107.591 113.057C107.591 113.174 107.591 113.29 107.591 113.407H102.229C102.229 114.224 102.462 114.807 102.811 115.274C103.278 115.624 103.744 115.857 104.327 115.857C104.793 115.857 105.143 115.74 105.492 115.507C105.842 115.274 106.075 114.924 106.192 114.34ZM102.229 112.474H106.308C106.192 111.774 106.075 111.424 105.842 111.074C105.376 110.607 104.91 110.374 104.327 110.374C103.744 110.374 103.278 110.607 102.928 110.957C102.462 111.307 102.345 111.774 102.229 112.474Z" fill="#606062"/>
<path d="M51.9885 132.19V122.273H55.7186C56.418 122.273 56.8843 122.273 57.234 122.39C57.7002 122.39 58.1665 122.623 58.5162 122.74C58.7493 122.973 59.099 123.323 59.2156 123.79C59.4487 124.14 59.5653 124.607 59.5653 125.073C59.5653 125.89 59.3322 126.59 58.7493 127.173C58.2831 127.757 57.234 128.107 55.8352 128.107H53.2707V132.19H51.9885ZM53.2707 126.94H55.8352C56.7677 126.94 57.3505 126.823 57.7002 126.473C58.0499 126.123 58.1665 125.657 58.1665 125.19C58.1665 124.723 58.1665 124.373 57.9334 124.023C57.7002 123.79 57.4671 123.557 57.1174 123.44C56.8843 123.44 56.418 123.44 55.8352 123.44H53.2707V126.94Z" fill="#606062"/>
<path d="M65.7433 131.256C65.277 131.606 64.8108 131.84 64.4611 132.073C63.9948 132.19 63.6451 132.306 63.0623 132.306C62.3629 132.306 61.6635 132.073 61.3138 131.723C60.8475 131.373 60.6144 130.79 60.6144 130.206C60.6144 129.856 60.731 129.623 60.8475 129.273C61.0807 129.04 61.3138 128.806 61.5469 128.573C61.7801 128.456 62.1298 128.223 62.3629 128.223C62.596 128.106 62.9457 128.106 63.5285 127.99C64.4611 127.873 65.1605 127.756 65.6267 127.64C65.6267 127.406 65.6267 127.29 65.6267 127.29C65.6267 126.823 65.5102 126.473 65.277 126.24C65.0439 126.006 64.5776 125.773 63.8782 125.773C63.2954 125.773 62.9457 125.89 62.7126 126.123C62.3629 126.356 62.1298 126.706 62.0132 127.173L60.8475 127.056C60.9641 126.473 61.1972 126.123 61.4304 125.773C61.6635 125.423 62.0132 125.19 62.4795 125.073C62.9457 124.84 63.5285 124.84 64.1114 124.84C64.6942 124.84 65.1605 124.84 65.6267 125.073C65.9764 125.19 66.2096 125.306 66.4427 125.54C66.6758 125.773 66.7924 126.123 66.7924 126.356C66.909 126.59 66.909 126.94 66.909 127.523V129.156C66.909 130.206 66.909 131.023 66.909 131.256C67.0255 131.606 67.1421 131.84 67.2587 132.19H65.9764C65.8599 131.84 65.7433 131.606 65.7433 131.256ZM65.6267 128.573C65.1605 128.69 64.5776 128.923 63.6451 129.04C63.1788 129.04 62.8292 129.156 62.596 129.273C62.3629 129.273 62.2463 129.506 62.1298 129.623C62.0132 129.856 62.0132 129.973 62.0132 130.206C62.0132 130.556 62.1298 130.79 62.3629 131.023C62.596 131.256 62.9457 131.373 63.412 131.373C63.8782 131.373 64.2279 131.256 64.6942 131.023C65.0439 130.79 65.277 130.556 65.5102 130.206C65.6267 129.973 65.6267 129.506 65.6267 129.04V128.573Z" fill="#606062"/>
<path d="M68.6574 134.873L68.5409 133.823C68.774 133.823 69.0071 133.823 69.2403 133.823C69.4734 133.823 69.7065 133.823 69.9397 133.706C70.0562 133.706 70.1728 133.473 70.2894 133.356C70.4059 133.24 70.5225 132.89 70.6391 132.423C70.6391 132.423 70.7556 132.306 70.7556 132.19L68.0746 124.957H69.3568L70.8722 129.156C71.1053 129.623 71.2219 130.206 71.3385 130.79C71.5716 130.206 71.6882 129.623 71.9213 129.156L73.4367 124.957H74.6023L71.9213 132.306C71.5716 133.006 71.3385 133.59 71.2219 133.823C70.9888 134.29 70.7556 134.523 70.5225 134.756C70.1728 134.99 69.8231 134.99 69.4734 134.99C69.2403 134.99 69.0071 134.99 68.6574 134.873Z" fill="#606062"/>
<path d="M75.6514 132.19V124.957H76.7005V126.006C76.9337 125.656 77.2834 125.306 77.6331 125.073C77.9828 124.957 78.449 124.84 78.9153 124.84C79.4981 124.84 79.8478 124.957 80.1975 125.19C80.5472 125.306 80.7803 125.656 80.8969 126.006C81.4797 125.19 82.2957 124.84 83.1117 124.84C83.8111 124.84 84.3939 124.957 84.7436 125.423C85.2099 125.773 85.3264 126.356 85.3264 127.173V132.19H84.1608V127.64C84.1608 127.173 84.1608 126.823 84.0442 126.59C83.9276 126.356 83.8111 126.24 83.5779 126.006C83.3448 125.89 83.1117 125.89 82.8785 125.89C82.4123 125.89 81.946 126.006 81.5963 126.356C81.2466 126.706 81.13 127.29 81.13 127.99V132.19H79.9644V127.523C79.9644 126.94 79.8478 126.59 79.6147 126.24C79.3815 126.006 79.0318 125.89 78.6821 125.89C78.3325 125.89 77.9828 126.006 77.7496 126.123C77.3999 126.356 77.1668 126.59 77.0502 126.94C76.9337 127.29 76.8171 127.756 76.8171 128.456V132.19H75.6514Z" fill="#606062"/>
<path d="M92.0872 129.856L93.2529 129.973C93.1363 130.673 92.7866 131.256 92.2038 131.723C91.621 132.073 91.0381 132.306 90.1056 132.306C89.0565 132.306 88.2406 131.956 87.6577 131.373C87.0749 130.673 86.7252 129.74 86.7252 128.573C86.7252 127.406 87.0749 126.473 87.6577 125.773C88.3571 125.19 89.0565 124.84 90.1056 124.84C91.0381 124.84 91.8541 125.19 92.4369 125.773C93.0198 126.473 93.3695 127.406 93.3695 128.573C93.3695 128.573 93.3695 128.69 93.3695 128.806H88.0074C88.0074 129.623 88.2406 130.206 88.7068 130.673C89.0565 131.14 89.5228 131.256 90.1056 131.256C90.5719 131.256 91.0381 131.14 91.2713 130.906C91.621 130.673 91.8541 130.323 92.0872 129.856ZM88.124 127.873H92.0872C91.9707 127.29 91.8541 126.823 91.621 126.473C91.2713 126.006 90.6884 125.773 90.1056 125.773C89.5228 125.773 89.0565 126.006 88.7068 126.356C88.3571 126.706 88.124 127.29 88.124 127.873Z" fill="#606062"/>
<path d="M94.8848 132.19V124.957H95.9339V126.006C96.4002 125.19 97.2161 124.84 98.1487 124.84C98.6149 124.84 99.0812 124.84 99.4309 125.073C99.7806 125.19 100.014 125.423 100.247 125.656C100.363 125.89 100.48 126.24 100.597 126.59C100.597 126.823 100.597 127.173 100.597 127.756V132.19H99.4309V127.756C99.4309 127.29 99.4309 126.94 99.3143 126.706C99.1978 126.473 99.0812 126.24 98.8481 126.123C98.4984 125.89 98.2652 125.89 97.9155 125.89C97.4493 125.89 96.983 126.006 96.6333 126.356C96.2836 126.706 96.0505 127.29 96.0505 128.223V132.19H94.8848Z" fill="#606062"/>
<path d="M105.143 131.023L105.259 132.073C105.026 132.19 104.676 132.19 104.443 132.19C103.977 132.19 103.627 132.19 103.394 132.073C103.161 131.84 102.928 131.723 102.811 131.49C102.811 131.257 102.695 130.79 102.695 130.09V125.89H101.879V124.957H102.695V123.207L103.977 122.507V124.957H105.143V125.89H103.977V130.09C103.977 130.44 103.977 130.673 103.977 130.79C104.094 130.907 104.094 130.907 104.21 131.023C104.327 131.023 104.443 131.14 104.676 131.14C104.793 131.14 104.91 131.14 105.143 131.023Z" fill="#606062"/>
<path d="M284.771 57.8753C284.771 59.2753 277.544 64.0585 277.544 57.8753C277.544 49.5923 282.906 43.2925 291.648 43.2925C291.998 43.2925 291.998 43.2925 291.765 43.4091C290.366 44.3424 284.771 46.7924 284.771 57.8753Z" fill="#1A237E"/>
<path d="M272.532 58.3418L281.158 69.3081L289.783 58.3418H272.532Z" fill="#1A237E"/>
<path d="M272.532 58.3418L281.158 69.3081L289.783 58.3418H272.532Z" fill="#1A237E" stroke="#1A237E" stroke-width="0.018435" stroke-linecap="round" stroke-linejoin="round"/>
<path d="M296.195 65.9253C296.195 64.5253 303.422 59.7421 303.422 65.9253C303.422 74.2083 298.06 80.5081 289.317 80.5081C288.967 80.5081 288.967 80.5081 289.201 80.3914C290.599 79.4581 296.195 77.0082 296.195 65.9253Z" fill="#1A237E"/>
<path d="M308.434 65.4585L299.808 54.4922L291.182 65.4585H308.434Z" fill="#1A237E"/>
<path d="M308.434 65.4585L299.808 54.4922L291.182 65.4585H308.434Z" fill="#1A237E" stroke="#1A237E" stroke-width="0.018435" stroke-linecap="round" stroke-linejoin="round"/>
<path d="M249.451 116.674L253.298 106.757H254.697L258.777 116.674H257.261L256.096 113.64H251.899L250.85 116.674H249.451ZM252.366 112.59H255.746L254.697 109.907C254.347 109.091 254.114 108.391 253.998 107.807C253.881 108.507 253.648 109.091 253.415 109.674L252.366 112.59Z" fill="#606062"/>
<path d="M264.372 116.674V115.624C263.789 116.44 262.973 116.907 262.041 116.907C261.574 116.907 261.225 116.79 260.875 116.557C260.525 116.44 260.176 116.207 260.059 115.974C259.826 115.74 259.709 115.507 259.709 115.04C259.593 114.807 259.593 114.457 259.593 113.99V109.557H260.875V113.524C260.875 114.107 260.875 114.574 260.875 114.807C260.992 115.04 261.108 115.39 261.341 115.507C261.574 115.74 261.924 115.857 262.274 115.857C262.623 115.857 262.973 115.74 263.323 115.507C263.673 115.39 263.906 115.04 264.022 114.807C264.139 114.457 264.139 113.99 264.139 113.407V109.557H265.421V116.674H264.372Z" fill="#606062"/>
<path d="M269.967 115.623L270.084 116.673C269.734 116.79 269.501 116.79 269.151 116.79C268.802 116.79 268.452 116.673 268.219 116.557C267.986 116.44 267.752 116.207 267.636 116.09C267.519 115.857 267.519 115.273 267.519 114.573V110.49H266.587V109.557H267.519V107.807L268.685 106.99V109.557H269.967V110.49H268.685V114.69C268.685 115.04 268.802 115.273 268.802 115.39C268.802 115.39 268.918 115.507 269.035 115.623C269.151 115.623 269.268 115.623 269.384 115.623C269.501 115.623 269.734 115.623 269.967 115.623Z" fill="#606062"/>
<path d="M270.667 113.057C270.667 111.774 271.016 110.84 271.832 110.14C272.415 109.674 273.114 109.324 274.047 109.324C274.98 109.324 275.795 109.674 276.495 110.374C277.078 110.957 277.427 111.89 277.427 113.057C277.427 113.874 277.311 114.69 276.961 115.157C276.728 115.74 276.262 116.09 275.795 116.44C275.213 116.673 274.63 116.907 274.047 116.907C272.998 116.907 272.182 116.557 271.599 115.857C271.016 115.274 270.667 114.34 270.667 113.057ZM271.949 113.057C271.949 113.99 272.182 114.69 272.532 115.157C272.998 115.624 273.464 115.857 274.047 115.857C274.63 115.857 275.213 115.624 275.562 115.157C275.912 114.69 276.145 113.99 276.145 113.057C276.145 112.24 275.912 111.54 275.562 111.074C275.096 110.607 274.63 110.374 274.047 110.374C273.464 110.374 272.998 110.607 272.532 111.074C272.182 111.54 271.949 112.24 271.949 113.057Z" fill="#606062"/>
<path d="M278.826 116.673V109.557H279.875V110.49C280.108 110.14 280.458 109.907 280.808 109.674C281.157 109.44 281.624 109.324 282.09 109.324C282.673 109.324 283.023 109.44 283.372 109.674C283.722 109.907 283.955 110.257 284.072 110.607C284.654 109.79 285.47 109.324 286.286 109.324C286.986 109.324 287.569 109.557 287.918 109.907C288.385 110.374 288.501 110.957 288.501 111.774V116.673H287.335V112.24C287.335 111.657 287.335 111.307 287.219 111.19C287.102 110.957 286.986 110.724 286.753 110.607C286.52 110.49 286.286 110.374 286.053 110.374C285.587 110.374 285.121 110.607 284.771 110.957C284.421 111.307 284.305 111.774 284.305 112.59V116.673H283.023V112.007C283.023 111.54 283.023 111.074 282.789 110.84C282.556 110.607 282.207 110.374 281.857 110.374C281.507 110.374 281.157 110.49 280.924 110.724C280.575 110.84 280.342 111.19 280.225 111.54C280.108 111.774 279.992 112.357 279.992 112.94V116.673H278.826Z" fill="#606062"/>
<path d="M295.029 115.857C294.563 116.207 294.096 116.44 293.747 116.557C293.28 116.79 292.814 116.907 292.348 116.907C291.532 116.907 290.949 116.673 290.599 116.323C290.133 115.857 289.9 115.39 289.9 114.807C289.9 114.457 290.017 114.107 290.133 113.874C290.366 113.524 290.483 113.29 290.832 113.174C291.066 112.94 291.299 112.824 291.648 112.707C291.882 112.707 292.231 112.59 292.698 112.59C293.747 112.474 294.446 112.357 294.912 112.124C294.912 112.007 294.912 111.89 294.912 111.89C294.912 111.307 294.796 110.957 294.563 110.84C294.213 110.49 293.747 110.374 293.164 110.374C292.581 110.374 292.231 110.49 291.882 110.724C291.648 110.84 291.415 111.19 291.299 111.774L290.133 111.54C290.25 111.074 290.366 110.607 290.599 110.374C290.949 110.024 291.299 109.79 291.765 109.674C292.231 109.44 292.698 109.324 293.397 109.324C293.98 109.324 294.446 109.44 294.912 109.557C295.262 109.79 295.495 109.907 295.728 110.14C295.845 110.374 295.961 110.607 296.078 110.957C296.078 111.19 296.195 111.54 296.195 112.124V113.64C296.195 114.807 296.195 115.507 296.195 115.857C296.311 116.09 296.311 116.44 296.544 116.673H295.262C295.145 116.44 295.029 116.09 295.029 115.857ZM294.912 113.057C294.446 113.29 293.863 113.407 292.931 113.524C292.464 113.64 292.115 113.757 291.882 113.757C291.648 113.874 291.532 113.99 291.415 114.224C291.299 114.34 291.182 114.574 291.182 114.807C291.182 115.04 291.299 115.39 291.532 115.624C291.882 115.74 292.231 115.857 292.698 115.857C293.164 115.857 293.514 115.74 293.863 115.624C294.213 115.39 294.563 115.157 294.679 114.807C294.796 114.457 294.912 114.107 294.912 113.524V113.057Z" fill="#606062"/>
<path d="M300.624 115.623L300.857 116.673C300.507 116.79 300.158 116.79 299.925 116.79C299.458 116.79 299.109 116.673 298.876 116.557C298.642 116.44 298.409 116.207 298.409 116.09C298.293 115.857 298.176 115.273 298.176 114.573V110.49H297.36V109.557H298.176V107.807L299.458 106.99V109.557H300.624V110.49H299.458V114.69C299.458 115.04 299.458 115.273 299.458 115.39C299.575 115.39 299.575 115.507 299.692 115.623C299.808 115.623 299.925 115.623 300.158 115.623C300.274 115.623 300.391 115.623 300.624 115.623Z" fill="#606062"/>
<path d="M301.79 108.157V106.757H303.072V108.157H301.79ZM301.79 116.674V109.557H303.072V116.674H301.79Z" fill="#606062"/>
<path d="M309.6 114.107L310.765 114.224C310.649 115.04 310.299 115.74 309.833 116.207C309.25 116.673 308.551 116.907 307.851 116.907C306.802 116.907 305.986 116.557 305.403 115.857C304.82 115.274 304.587 114.34 304.587 113.174C304.587 112.357 304.704 111.657 304.937 111.074C305.17 110.49 305.636 110.14 306.103 109.79C306.685 109.557 307.152 109.324 307.851 109.324C308.551 109.324 309.25 109.557 309.716 109.907C310.182 110.374 310.532 110.957 310.649 111.657L309.483 111.774C309.366 111.307 309.133 110.957 308.9 110.724C308.667 110.49 308.317 110.374 307.851 110.374C307.268 110.374 306.802 110.607 306.336 111.074C305.986 111.424 305.753 112.124 305.753 113.057C305.753 114.107 305.986 114.807 306.336 115.157C306.685 115.624 307.152 115.857 307.735 115.857C308.317 115.857 308.667 115.74 309.017 115.39C309.25 115.157 309.483 114.69 309.6 114.107Z" fill="#606062"/>
<path d="M316.477 115.857C316.011 116.207 315.661 116.44 315.195 116.557C314.729 116.79 314.379 116.907 313.796 116.907C313.097 116.907 312.514 116.673 312.048 116.323C311.581 115.857 311.348 115.39 311.348 114.807C311.348 114.457 311.465 114.107 311.698 113.874C311.814 113.524 312.048 113.29 312.281 113.174C312.514 112.94 312.864 112.824 313.097 112.707C313.33 112.707 313.796 112.59 314.262 112.59C315.195 112.474 315.894 112.357 316.361 112.124C316.361 112.007 316.361 111.89 316.361 111.89C316.361 111.307 316.244 110.957 316.011 110.84C315.778 110.49 315.311 110.374 314.612 110.374C314.146 110.374 313.679 110.49 313.446 110.724C313.097 110.84 312.98 111.19 312.747 111.774L311.581 111.54C311.698 111.074 311.931 110.607 312.164 110.374C312.397 110.024 312.747 109.79 313.213 109.674C313.679 109.44 314.262 109.324 314.845 109.324C315.428 109.324 316.011 109.44 316.361 109.557C316.71 109.79 317.06 109.907 317.176 110.14C317.41 110.374 317.526 110.607 317.526 110.957C317.643 111.19 317.643 111.54 317.643 112.124V113.64C317.643 114.807 317.643 115.507 317.759 115.857C317.759 116.09 317.876 116.44 317.992 116.673H316.71C316.594 116.44 316.477 116.09 316.477 115.857ZM316.361 113.057C316.011 113.29 315.311 113.407 314.379 113.524C313.913 113.64 313.563 113.757 313.33 113.757C313.097 113.874 312.98 113.99 312.864 114.224C312.747 114.34 312.747 114.574 312.747 114.807C312.747 115.04 312.864 115.39 313.097 115.624C313.33 115.74 313.679 115.857 314.146 115.857C314.612 115.857 315.078 115.74 315.428 115.624C315.778 115.39 316.011 115.157 316.244 114.807C316.361 114.457 316.361 114.107 316.361 113.524V113.057Z" fill="#606062"/>
<path d="M319.508 116.674V106.757H320.673V116.674H319.508Z" fill="#606062"/>
<path d="M322.538 116.674V106.757H323.704V116.674H322.538Z" fill="#606062"/>
<path d="M325.569 119.473L325.453 118.307C325.686 118.423 325.919 118.423 326.152 118.423C326.385 118.423 326.618 118.423 326.735 118.307C326.968 118.19 327.085 118.074 327.201 117.957C327.201 117.84 327.434 117.49 327.551 117.024C327.551 116.907 327.551 116.907 327.667 116.674L324.986 109.557H326.269L327.784 113.64C327.9 114.224 328.134 114.69 328.25 115.274C328.367 114.807 328.6 114.224 328.716 113.757L330.232 109.557H331.514L328.833 116.79C328.483 117.607 328.25 118.19 328.134 118.423C327.9 118.89 327.667 119.123 327.318 119.357C327.085 119.473 326.735 119.59 326.385 119.59C326.152 119.59 325.919 119.59 325.569 119.473Z" fill="#606062"/>
<path d="M275.795 122.273H277.194V127.99C277.194 128.923 277.078 129.74 276.845 130.323C276.611 130.906 276.145 131.373 275.562 131.723C274.979 132.073 274.28 132.306 273.348 132.306C272.415 132.306 271.599 132.19 271.016 131.84C270.433 131.49 270.084 131.023 269.734 130.44C269.501 129.857 269.384 129.04 269.384 127.99V122.273H270.667V127.99C270.667 128.807 270.783 129.39 270.9 129.857C271.133 130.207 271.366 130.557 271.716 130.79C272.182 131.023 272.648 131.14 273.231 131.14C274.164 131.14 274.863 130.906 275.213 130.44C275.679 130.09 275.795 129.157 275.795 127.99V122.273Z" fill="#606062"/>
<path d="M279.176 134.873V124.957H280.342V125.89C280.575 125.54 280.808 125.306 281.157 125.073C281.507 124.957 281.857 124.84 282.323 124.84C283.023 124.84 283.489 124.957 283.955 125.306C284.421 125.54 284.771 126.006 285.004 126.59C285.237 127.173 285.354 127.756 285.354 128.456C285.354 129.273 285.237 129.856 285.004 130.44C284.771 131.023 284.421 131.49 283.838 131.84C283.372 132.073 282.789 132.306 282.323 132.306C281.857 132.306 281.507 132.19 281.157 132.073C280.924 131.84 280.575 131.606 280.458 131.373V134.873H279.176ZM280.342 128.573C280.342 129.506 280.458 130.206 280.808 130.673C281.274 131.023 281.624 131.256 282.207 131.256C282.789 131.256 283.256 131.023 283.605 130.556C283.955 130.206 284.188 129.39 284.188 128.456C284.188 127.523 283.955 126.94 283.605 126.473C283.256 126.006 282.789 125.773 282.207 125.773C281.74 125.773 281.274 126.006 280.924 126.473C280.458 126.94 280.342 127.64 280.342 128.573Z" fill="#606062"/>
<path d="M291.532 132.19V131.256C291.066 131.956 290.366 132.306 289.434 132.306C288.967 132.306 288.385 132.073 287.918 131.84C287.452 131.49 287.102 131.023 286.753 130.557C286.52 129.973 286.403 129.273 286.403 128.573C286.403 127.873 286.52 127.173 286.753 126.59C286.986 126.007 287.335 125.54 287.802 125.307C288.268 124.957 288.851 124.84 289.434 124.84C289.9 124.84 290.25 124.957 290.599 125.073C290.949 125.307 291.182 125.54 291.415 125.773V122.273H292.581V132.19H291.532ZM287.685 128.573C287.685 129.507 287.802 130.207 288.268 130.557C288.618 131.023 289.084 131.256 289.667 131.256C290.133 131.256 290.599 131.023 290.949 130.673C291.299 130.207 291.532 129.507 291.532 128.69C291.532 127.64 291.299 126.94 290.949 126.473C290.599 126.007 290.133 125.773 289.55 125.773C288.967 125.773 288.618 126.007 288.151 126.473C287.802 126.94 287.685 127.64 287.685 128.573Z" fill="#606062"/>
<path d="M299.225 131.256C298.759 131.606 298.293 131.84 297.943 132.073C297.477 132.19 297.01 132.306 296.544 132.306C295.845 132.306 295.145 132.073 294.796 131.723C294.329 131.373 294.096 130.79 294.096 130.206C294.096 129.856 294.213 129.623 294.329 129.273C294.563 129.04 294.796 128.806 295.029 128.573C295.262 128.456 295.495 128.223 295.845 128.223C296.078 128.106 296.428 128.106 297.01 127.99C297.943 127.873 298.642 127.756 299.109 127.64C299.109 127.406 299.109 127.29 299.109 127.29C299.109 126.823 298.992 126.473 298.759 126.24C298.526 126.006 298.06 125.773 297.36 125.773C296.777 125.773 296.428 125.89 296.078 126.123C295.845 126.356 295.612 126.706 295.495 127.173L294.329 127.056C294.446 126.473 294.679 126.123 294.912 125.773C295.145 125.423 295.495 125.19 295.961 125.073C296.428 124.84 297.01 124.84 297.593 124.84C298.176 124.84 298.642 124.84 299.109 125.073C299.458 125.19 299.692 125.306 299.925 125.54C300.041 125.773 300.274 126.123 300.274 126.356C300.391 126.59 300.391 126.94 300.391 127.523V129.156C300.391 130.206 300.391 131.023 300.391 131.256C300.507 131.606 300.624 131.84 300.741 132.19H299.458C299.342 131.84 299.225 131.606 299.225 131.256ZM299.109 128.573C298.642 128.69 298.06 128.923 297.127 129.04C296.661 129.04 296.311 129.156 296.078 129.273C295.845 129.273 295.728 129.506 295.612 129.623C295.495 129.856 295.379 129.973 295.379 130.206C295.379 130.556 295.495 130.79 295.845 131.023C296.078 131.256 296.428 131.373 296.894 131.373C297.36 131.373 297.71 131.256 298.176 131.023C298.526 130.79 298.759 130.556 298.876 130.206C299.109 129.973 299.109 129.506 299.109 129.04V128.573Z" fill="#606062"/>
<path d="M304.82 131.023L305.054 132.073C304.704 132.19 304.354 132.19 304.121 132.19C303.655 132.19 303.305 132.19 303.072 132.073C302.839 131.84 302.722 131.723 302.606 131.49C302.489 131.257 302.489 130.79 302.489 130.09V125.89H301.557V124.957H302.489V123.207L303.655 122.507V124.957H304.82V125.89H303.655V130.09C303.655 130.44 303.655 130.673 303.655 130.79C303.771 130.907 303.771 130.907 303.888 131.023C304.004 131.023 304.121 131.14 304.354 131.14C304.471 131.14 304.587 131.14 304.82 131.023Z" fill="#606062"/>
<path d="M310.998 129.856L312.164 129.973C312.048 130.673 311.698 131.256 311.115 131.723C310.532 132.073 309.949 132.306 309.017 132.306C307.968 132.306 307.152 131.956 306.569 131.373C305.986 130.673 305.636 129.74 305.636 128.573C305.636 127.406 305.986 126.473 306.569 125.773C307.152 125.19 307.968 124.84 309.017 124.84C309.949 124.84 310.765 125.19 311.348 125.773C311.931 126.473 312.281 127.406 312.281 128.573C312.281 128.573 312.281 128.69 312.281 128.806H306.919C306.919 129.623 307.152 130.206 307.618 130.673C307.968 131.14 308.434 131.256 309.017 131.256C309.483 131.256 309.833 131.14 310.182 130.906C310.532 130.673 310.765 130.323 310.998 129.856ZM306.919 127.873H310.998C310.882 127.29 310.765 126.823 310.532 126.473C310.066 126.006 309.6 125.773 309.017 125.773C308.434 125.773 307.968 126.006 307.618 126.356C307.268 126.706 307.035 127.29 306.919 127.873Z" fill="#606062"/>
<path d="M497.038 113.174L498.32 113.524C498.087 114.69 497.621 115.507 496.921 115.974C496.105 116.557 495.289 116.907 494.24 116.907C493.191 116.907 492.375 116.674 491.676 116.207C490.976 115.74 490.51 115.157 490.161 114.34C489.811 113.524 489.578 112.59 489.578 111.657C489.578 110.607 489.811 109.791 490.161 108.974C490.627 108.157 491.21 107.691 491.909 107.224C492.608 106.874 493.424 106.641 494.24 106.641C495.289 106.641 496.105 106.874 496.805 107.341C497.388 107.924 497.97 108.624 498.204 109.557L496.921 109.791C496.688 109.091 496.339 108.624 495.872 108.274C495.406 107.924 494.94 107.807 494.24 107.807C493.541 107.807 492.842 107.924 492.375 108.274C491.792 108.624 491.443 109.207 491.326 109.791C491.093 110.374 490.976 111.074 490.976 111.657C490.976 112.474 491.093 113.29 491.326 113.874C491.559 114.457 491.909 114.924 492.492 115.274C492.958 115.624 493.541 115.74 494.124 115.74C494.823 115.74 495.523 115.507 495.989 115.157C496.455 114.69 496.805 114.107 497.038 113.174Z" fill="#606062"/>
<path d="M499.369 113.057C499.369 111.774 499.719 110.84 500.418 110.14C501.118 109.674 501.817 109.324 502.75 109.324C503.682 109.324 504.498 109.674 505.081 110.374C505.78 110.957 506.014 111.89 506.014 113.057C506.014 113.874 505.897 114.69 505.664 115.157C505.431 115.74 504.964 116.09 504.498 116.44C503.915 116.673 503.333 116.907 502.75 116.907C501.701 116.907 500.885 116.557 500.302 115.857C499.719 115.274 499.369 114.34 499.369 113.057ZM500.651 113.057C500.651 113.99 500.768 114.69 501.234 115.157C501.584 115.624 502.05 115.857 502.75 115.857C503.333 115.857 503.799 115.624 504.265 115.157C504.615 114.69 504.848 113.99 504.848 113.057C504.848 112.24 504.615 111.54 504.265 111.074C503.799 110.607 503.333 110.374 502.75 110.374C502.05 110.374 501.584 110.607 501.234 111.074C500.768 111.54 500.651 112.24 500.651 113.057Z" fill="#606062"/>
<path d="M507.063 114.574L508.228 114.34C508.228 114.807 508.461 115.157 508.811 115.507C509.044 115.74 509.511 115.857 510.093 115.857C510.676 115.857 511.026 115.74 511.259 115.507C511.609 115.274 511.725 115.04 511.725 114.69C511.725 114.457 511.609 114.224 511.376 114.107C511.142 113.99 510.793 113.874 510.093 113.64C509.277 113.407 508.578 113.29 508.228 113.057C507.879 112.94 507.646 112.707 507.529 112.357C507.296 112.124 507.179 111.774 507.179 111.424C507.179 111.074 507.296 110.84 507.412 110.49C507.529 110.257 507.762 110.024 507.995 109.907C508.228 109.79 508.461 109.557 508.811 109.557C509.161 109.44 509.511 109.324 509.86 109.324C510.443 109.324 510.909 109.44 511.376 109.674C511.725 109.79 512.075 110.024 512.308 110.257C512.425 110.607 512.658 110.957 512.658 111.424L511.492 111.54C511.492 111.19 511.259 110.84 511.026 110.724C510.793 110.49 510.443 110.374 509.977 110.374C509.394 110.374 508.928 110.49 508.695 110.607C508.461 110.84 508.345 111.074 508.345 111.307C508.345 111.424 508.461 111.54 508.578 111.774C508.578 111.89 508.811 112.007 509.044 112.007C509.161 112.124 509.511 112.24 510.093 112.357C510.909 112.59 511.492 112.824 511.842 112.94C512.192 113.057 512.425 113.29 512.658 113.524C512.891 113.874 513.007 114.224 513.007 114.574C513.007 115.04 512.891 115.39 512.658 115.74C512.308 116.09 512.075 116.323 511.609 116.557C511.142 116.79 510.676 116.907 510.093 116.907C509.161 116.907 508.461 116.673 507.995 116.323C507.412 115.857 507.179 115.274 507.063 114.574Z" fill="#606062"/>
<path d="M517.087 115.623L517.204 116.673C516.854 116.79 516.504 116.79 516.271 116.79C515.805 116.79 515.455 116.673 515.222 116.557C514.989 116.44 514.873 116.207 514.756 116.09C514.639 115.857 514.639 115.273 514.639 114.573V110.49H513.707V109.557H514.639V107.807L515.805 106.99V109.557H517.087V110.49H515.805V114.69C515.805 115.04 515.805 115.273 515.922 115.39C515.922 115.39 516.038 115.507 516.038 115.623C516.155 115.623 516.271 115.623 516.504 115.623C516.621 115.623 516.854 115.623 517.087 115.623Z" fill="#606062"/>
<path d="M482.7 128.923L483.866 128.806C483.983 129.39 484.099 129.74 484.332 130.09C484.449 130.44 484.799 130.673 485.265 130.79C485.731 131.023 486.197 131.14 486.78 131.14C487.246 131.14 487.713 131.023 488.062 130.906C488.529 130.79 488.762 130.556 488.995 130.323C489.111 130.09 489.228 129.74 489.228 129.506C489.228 129.156 489.111 128.923 488.995 128.69C488.762 128.456 488.529 128.223 488.062 128.107C487.829 127.99 487.246 127.757 486.314 127.523C485.381 127.407 484.799 127.173 484.449 126.94C483.983 126.707 483.633 126.357 483.4 126.007C483.167 125.657 483.05 125.307 483.05 124.84C483.05 124.257 483.167 123.79 483.4 123.44C483.749 122.973 484.099 122.623 484.682 122.39C485.265 122.157 485.848 122.04 486.547 122.04C487.246 122.04 487.829 122.157 488.412 122.39C488.995 122.623 489.461 122.973 489.694 123.44C490.044 123.907 490.161 124.49 490.161 125.073H488.995C488.878 124.49 488.645 124.023 488.295 123.673C487.829 123.44 487.363 123.207 486.547 123.207C485.731 123.207 485.148 123.323 484.799 123.673C484.449 123.907 484.332 124.257 484.332 124.723C484.332 125.073 484.449 125.423 484.682 125.54C484.915 125.773 485.614 126.007 486.664 126.357C487.713 126.59 488.412 126.707 488.878 126.94C489.345 127.173 489.811 127.523 490.044 127.99C490.394 128.34 490.51 128.806 490.51 129.39C490.51 129.856 490.394 130.323 490.044 130.79C489.811 131.256 489.345 131.606 488.762 131.956C488.179 132.19 487.596 132.306 486.897 132.306C485.964 132.306 485.265 132.19 484.565 131.956C483.983 131.606 483.516 131.256 483.167 130.79C482.817 130.206 482.7 129.623 482.7 128.923Z" fill="#606062"/>
<path d="M496.805 131.256C496.339 131.606 495.872 131.84 495.523 132.073C495.056 132.19 494.707 132.306 494.124 132.306C493.424 132.306 492.725 132.073 492.375 131.723C491.909 131.373 491.676 130.79 491.676 130.206C491.676 129.856 491.792 129.623 491.909 129.273C492.142 129.04 492.375 128.806 492.608 128.573C492.842 128.456 493.191 128.223 493.424 128.223C493.658 128.106 494.007 128.106 494.59 127.99C495.523 127.873 496.222 127.756 496.688 127.64C496.688 127.406 496.688 127.29 496.688 127.29C496.688 126.823 496.572 126.473 496.339 126.24C496.105 126.006 495.639 125.773 494.94 125.773C494.473 125.773 494.007 125.89 493.774 126.123C493.424 126.356 493.191 126.706 493.075 127.173L491.909 127.056C492.026 126.473 492.259 126.123 492.492 125.773C492.725 125.423 493.075 125.19 493.541 125.073C494.007 124.84 494.59 124.84 495.173 124.84C495.756 124.84 496.222 124.84 496.688 125.073C497.038 125.19 497.271 125.306 497.504 125.54C497.737 125.773 497.854 126.123 497.854 126.356C497.97 126.59 497.97 126.94 497.97 127.523V129.156C497.97 130.206 497.97 131.023 497.97 131.256C498.087 131.606 498.204 131.84 498.32 132.19H497.038C496.921 131.84 496.805 131.606 496.805 131.256ZM496.688 128.573C496.222 128.69 495.639 128.923 494.707 129.04C494.24 129.04 493.891 129.156 493.658 129.273C493.424 129.273 493.308 129.506 493.191 129.623C493.075 129.856 493.075 129.973 493.075 130.206C493.075 130.556 493.191 130.79 493.424 131.023C493.658 131.256 494.007 131.373 494.473 131.373C494.94 131.373 495.289 131.256 495.756 131.023C496.105 130.79 496.339 130.556 496.572 130.206C496.688 129.973 496.688 129.506 496.688 129.04V128.573Z" fill="#606062"/>
<path d="M501.817 132.19L499.02 124.957H500.418L501.934 129.273C502.05 129.74 502.167 130.206 502.4 130.673C502.517 130.323 502.633 129.856 502.866 129.39L504.382 124.957H505.664L502.983 132.19H501.817Z" fill="#606062"/>
<path d="M506.713 123.673V122.273H507.879V123.673H506.713ZM506.713 132.19V124.957H507.879V132.19H506.713Z" fill="#606062"/>
<path d="M509.744 132.19V124.957H510.909V126.006C511.376 125.19 512.191 124.84 513.124 124.84C513.59 124.84 513.94 124.84 514.29 125.073C514.756 125.19 514.989 125.423 515.106 125.656C515.339 125.89 515.455 126.24 515.572 126.59C515.572 126.823 515.572 127.173 515.572 127.756V132.19H514.406V127.756C514.406 127.29 514.29 126.94 514.29 126.706C514.173 126.473 513.94 126.24 513.707 126.123C513.474 125.89 513.241 125.89 512.891 125.89C512.425 125.89 511.958 126.006 511.609 126.356C511.142 126.706 511.026 127.29 511.026 128.223V132.19H509.744Z" fill="#606062"/>
<path d="M517.204 132.773L518.37 132.89C518.486 133.24 518.603 133.473 518.836 133.706C519.069 133.94 519.535 134.056 520.118 134.056C520.584 134.056 521.051 133.94 521.4 133.706C521.633 133.473 521.867 133.123 521.983 132.773C522.1 132.54 522.1 131.956 522.1 131.14C521.517 131.84 520.934 132.19 520.118 132.19C519.069 132.19 518.37 131.723 517.787 131.023C517.204 130.323 516.971 129.506 516.971 128.456C516.971 127.873 517.087 127.173 517.32 126.59C517.554 126.006 518.02 125.54 518.486 125.306C518.952 124.957 519.419 124.84 520.118 124.84C520.934 124.84 521.633 125.19 522.216 125.89V124.957H523.265V131.14C523.265 132.306 523.149 133.006 522.916 133.473C522.682 133.94 522.333 134.406 521.867 134.639C521.4 134.873 520.817 134.989 520.118 134.989C519.185 134.989 518.486 134.873 518.02 134.406C517.437 134.056 517.204 133.473 517.204 132.773ZM518.253 128.456C518.253 129.39 518.37 130.09 518.836 130.44C519.185 130.906 519.652 131.14 520.235 131.14C520.701 131.14 521.167 130.906 521.633 130.44C521.983 130.09 522.216 129.39 522.216 128.456C522.216 127.64 521.983 126.94 521.633 126.473C521.167 126.006 520.701 125.773 520.235 125.773C519.652 125.773 519.185 126.006 518.836 126.473C518.37 126.94 518.253 127.523 518.253 128.456Z" fill="#606062"/>
<path d="M70.5225 80.5079C69.2403 80.5079 67.9581 80.0412 67.0255 79.1079L54.553 66.625C52.5713 64.7584 52.5713 61.6085 54.553 59.6253C56.5346 57.642 59.6819 57.642 61.5469 59.6253L70.5225 68.4916L94.302 44.6924C96.2836 42.8258 99.4309 42.8258 101.296 44.6924C103.278 46.6757 103.278 49.8256 101.296 51.6922L74.0195 79.1079C73.087 80.0412 71.8047 80.5079 70.5225 80.5079Z" fill="#1A237E"/>
</g>
<path d="M505.835 41C507.732 41 509.525 41.205 511.216 41.615C512.925 42.0249 514.462 42.5203 515.829 43.1011L513.446 48.9946C512.25 48.4992 511.054 48.1063 509.858 47.8159C508.68 47.5084 507.552 47.3547 506.476 47.3547C505.349 47.3547 504.375 47.6878 503.555 48.354C502.735 49.0031 502.325 50.1391 502.325 51.762V56.7074H511.934V62.3189H502.325V65.9831C502.325 67.2302 502.129 68.2637 501.736 69.0836C501.343 69.9036 500.847 70.5698 500.249 71.0823C499.669 71.5947 499.071 72.0133 498.456 72.3378H516.854V79H490V72.6453C490.974 72.2183 491.802 71.757 492.486 71.2616C493.169 70.7492 493.69 70.0829 494.049 69.263C494.424 68.443 494.612 67.3668 494.612 66.0344V62.3189H490.051V56.7074H494.612V51.7107C494.612 49.1313 495.116 47.0643 496.124 45.5098C497.149 43.9382 498.507 42.7937 500.198 42.0762C501.906 41.3587 503.786 41 505.835 41Z" fill="#1A237E"/>
<defs>
<clipPath id="clip0_10756_88922">
<rect width="580.966" height="156" fill="white"/>
</clipPath>
</defs>
</svg>
