<?xml version="1.0" encoding="UTF-8"?>
<!DOCTYPE svg PUBLIC "-//W3C//DTD SVG 1.1//EN" "http://www.w3.org/Graphics/SVG/1.1/DTD/svg11.dtd">
<!-- Creator: CorelDRAW X8 -->
<svg xmlns="http://www.w3.org/2000/svg" xml:space="preserve" width="8.86918in" height="6in" version="1.1" style="shape-rendering:geometricPrecision; text-rendering:geometricPrecision; image-rendering:optimizeQuality; fill-rule:evenodd; clip-rule:evenodd"
viewBox="0 0 135753 91837"
 xmlns:xlink="http://www.w3.org/1999/xlink">
 <defs>
  <style type="text/css">
   <![CDATA[
    .str0 {stroke:#1A307E;stroke-width:332.696}
    .fil0 {fill:#FEFEFE}
    .fil7 {fill:#1A307E}
    .fil9 {fill:#868EE0}
    .fil8 {fill:#FEFEFE;fill-rule:nonzero}
    .fil1 {fill:#1A237E;fill-rule:nonzero}
    .fil2 {fill:#4B55C2;fill-rule:nonzero}
    .fil3 {fill:#868EE0;fill-rule:nonzero}
    .fil4 {fill:#B6BBED;fill-rule:nonzero}
    .fil6 {fill:#CFCFFF;fill-rule:nonzero}
    .fil5 {fill:white;fill-rule:nonzero}
   ]]>
  </style>
 </defs>
 <g id="Layer_x0020_1">
  <metadata id="CorelCorpID_0Corel-Layer"/>
  <g id="_2490746888032">
   <rect class="fil0 str0" x="19062" y="19609" width="98181" height="54415"/>
   <g>
    <polygon class="fil1" points="73497,28905 62693,28905 62693,25999 73497,25999 "/>
    <path class="fil2" d="M84855 26948l-33406 0c-1119,0 -2025,-907 -2025,-2026l0 -22897c0,-1118 906,-2025 2025,-2025l33406 0c1119,0 2025,907 2025,2025l0 22897c0,1119 -906,2026 -2025,2026z"/>
    <path class="fil3" d="M84476 24362l-32762 0c-687,0 -1244,-557 -1244,-1244l0 -20891c0,-687 557,-1244 1244,-1244l32762 0c687,0 1244,557 1244,1244l0 20891c0,687 -557,1244 -1244,1244z"/>
    <path class="fil2" d="M78142 30485l-20094 0 0 -253c0,-872 707,-1579 1580,-1579l16934 0c873,0 1580,707 1580,1579l0 253z"/>
    <path class="fil4" d="M82472 19176l-22503 0c-597,0 -1081,-484 -1081,-1080l0 -14418c0,-597 484,-1081 1081,-1081l22503 0c597,0 1081,484 1081,1081l0 14418c0,596 -484,1080 -1081,1080z"/>
    <path class="fil5" d="M78394 22198l-25176 0c-668,0 -1209,-541 -1209,-1209l0 -16130c0,-668 541,-1209 1209,-1209l25176 0c668,0 1209,541 1209,1209l0 16130c0,668 -541,1209 -1209,1209z"/>
    <path class="fil1" d="M78394 3650l-25176 0c-668,0 -1209,541 -1209,1209l0 1058 27594 0 0 -1058c0,-668 -541,-1209 -1209,-1209z"/>
    <path class="fil6" d="M76054 4825c0,193 -156,348 -349,348 -192,0 -349,-155 -349,-348 0,-193 157,-349 349,-349 193,0 349,156 349,349z"/>
    <path class="fil6" d="M77475 4825c0,193 -156,348 -349,348 -193,0 -349,-155 -349,-348 0,-193 156,-349 349,-349 193,0 349,156 349,349z"/>
    <path class="fil6" d="M78896 4825c0,193 -156,348 -349,348 -192,0 -349,-155 -349,-348 0,-193 157,-349 349,-349 193,0 349,156 349,349z"/>
   </g>
   <g>
    <polygon class="fil1" points="73497,90257 62693,90257 62693,87350 73497,87350 "/>
    <path class="fil2" d="M84855 88300l-33406 0c-1119,0 -2025,-907 -2025,-2026l0 -22897c0,-1118 906,-2025 2025,-2025l33406 0c1119,0 2025,907 2025,2025l0 22897c0,1119 -906,2026 -2025,2026z"/>
    <path class="fil3" d="M84476 85714l-32762 0c-687,0 -1244,-557 -1244,-1244l0 -20891c0,-687 557,-1244 1244,-1244l32762 0c687,0 1244,557 1244,1244l0 20891c0,687 -557,1244 -1244,1244z"/>
    <path class="fil2" d="M78142 91837l-20094 0 0 -253c0,-872 707,-1580 1580,-1580l16934 0c873,0 1580,708 1580,1580l0 253z"/>
    <path class="fil4" d="M82472 80528l-22503 0c-597,0 -1081,-484 -1081,-1081l0 -14417c0,-597 484,-1081 1081,-1081l22503 0c597,0 1081,484 1081,1081l0 14417c0,597 -484,1081 -1081,1081z"/>
    <path class="fil5" d="M78394 83550l-25176 0c-668,0 -1209,-541 -1209,-1209l0 -16130c0,-668 541,-1209 1209,-1209l25176 0c668,0 1209,541 1209,1209l0 16130c0,668 -541,1209 -1209,1209z"/>
    <path class="fil1" d="M78394 65002l-25176 0c-668,0 -1209,541 -1209,1209l0 1058 27594 0 0 -1058c0,-668 -541,-1209 -1209,-1209z"/>
    <path class="fil6" d="M76054 66177c0,192 -156,348 -349,348 -192,0 -349,-156 -349,-348 0,-193 157,-349 349,-349 193,0 349,156 349,349z"/>
    <path class="fil6" d="M77475 66177c0,192 -156,348 -349,348 -193,0 -349,-156 -349,-348 0,-193 156,-349 349,-349 193,0 349,156 349,349z"/>
    <path class="fil6" d="M78896 66177c0,192 -156,348 -349,348 -192,0 -349,-156 -349,-348 0,-193 157,-349 349,-349 193,0 349,156 349,349z"/>
   </g>
   <g>
    <polygon class="fil1" points="24074,59390 13269,59390 13269,56483 24074,56483 "/>
    <path class="fil2" d="M35431 57433l-33406 0c-1118,0 -2025,-907 -2025,-2026l0 -22897c0,-1118 907,-2025 2025,-2025l33406 0c1119,0 2026,907 2026,2025l0 22897c0,1119 -907,2026 -2026,2026z"/>
    <path class="fil3" d="M35052 54847l-32762 0c-687,0 -1244,-557 -1244,-1244l0 -20891c0,-687 557,-1244 1244,-1244l32762 0c687,0 1244,557 1244,1244l0 20891c0,687 -557,1244 -1244,1244z"/>
    <path class="fil2" d="M28718 60970l-20093 0 0 -253c0,-872 707,-1580 1579,-1580l16935 0c872,0 1579,708 1579,1580l0 253z"/>
    <path class="fil4" d="M33048 49661l-22503 0c-597,0 -1081,-484 -1081,-1081l0 -14417c0,-597 484,-1081 1081,-1081l22503 0c597,0 1081,484 1081,1081l0 14417c0,597 -484,1081 -1081,1081z"/>
    <path class="fil5" d="M28970 52683l-25176 0c-668,0 -1209,-541 -1209,-1209l0 -16130c0,-668 541,-1209 1209,-1209l25176 0c668,0 1209,541 1209,1209l0 16130c0,668 -541,1209 -1209,1209z"/>
    <path class="fil1" d="M28970 34135l-25176 0c-668,0 -1209,541 -1209,1209l0 1058 27594 0 0 -1058c0,-668 -541,-1209 -1209,-1209z"/>
    <path class="fil6" d="M26630 35310c0,192 -156,348 -349,348 -192,0 -348,-156 -348,-348 0,-193 156,-349 348,-349 193,0 349,156 349,349z"/>
    <path class="fil6" d="M28051 35310c0,192 -156,348 -349,348 -192,0 -348,-156 -348,-348 0,-193 156,-349 348,-349 193,0 349,156 349,349z"/>
    <path class="fil6" d="M29472 35310c0,192 -156,348 -349,348 -192,0 -348,-156 -348,-348 0,-193 156,-349 348,-349 193,0 349,156 349,349z"/>
   </g>
   <g>
    <polygon class="fil1" points="122370,59390 111565,59390 111565,56483 122370,56483 "/>
    <path class="fil2" d="M133728 57433l-33406 0c-1119,0 -2026,-907 -2026,-2026l0 -22897c0,-1118 907,-2025 2026,-2025l33406 0c1118,0 2025,907 2025,2025l0 22897c0,1119 -907,2026 -2025,2026z"/>
    <path class="fil3" d="M133348 54847l-32761 0c-687,0 -1245,-557 -1245,-1244l0 -20891c0,-687 558,-1244 1245,-1244l32761 0c688,0 1245,557 1245,1244l0 20891c0,687 -557,1244 -1245,1244z"/>
    <path class="fil2" d="M127014 60970l-20093 0 0 -253c0,-872 707,-1580 1579,-1580l16935 0c872,0 1579,708 1579,1580l0 253z"/>
    <path class="fil4" d="M131345 49661l-22504 0c-596,0 -1080,-484 -1080,-1081l0 -14417c0,-597 484,-1081 1080,-1081l22504 0c596,0 1080,484 1080,1081l0 14417c0,597 -484,1081 -1080,1081z"/>
    <path class="fil5" d="M127266 52683l-25176 0c-667,0 -1209,-541 -1209,-1209l0 -16130c0,-668 542,-1209 1209,-1209l25176 0c668,0 1209,541 1209,1209l0 16130c0,668 -541,1209 -1209,1209z"/>
    <path class="fil1" d="M127266 34135l-25176 0c-667,0 -1209,541 -1209,1209l0 1058 27594 0 0 -1058c0,-668 -541,-1209 -1209,-1209z"/>
    <path class="fil6" d="M124926 35310c0,192 -156,348 -348,348 -193,0 -349,-156 -349,-348 0,-193 156,-349 349,-349 192,0 348,156 348,349z"/>
    <path class="fil6" d="M126347 35310c0,192 -156,348 -348,348 -193,0 -349,-156 -349,-348 0,-193 156,-349 349,-349 192,0 348,156 348,349z"/>
    <path class="fil6" d="M127768 35310c0,192 -156,348 -348,348 -193,0 -349,-156 -349,-348 0,-193 156,-349 349,-349 192,0 348,156 348,349z"/>
   </g>
   <circle class="fil7" cx="68152" cy="46817" r="9829"/>
   <path class="fil8" d="M70951 48027c-518,0 -973,246 -1270,623l-2764 -1413c36,-134 61,-273 61,-420 0,-161 -29,-312 -73,-456l2750 -1407c297,395 764,651 1296,651 900,0 1627,-726 1627,-1625 0,-899 -727,-1627 -1627,-1627 -897,0 -1626,728 -1626,1627 0,146 26,285 62,420l-2762 1413c-297,-377 -754,-623 -1272,-623 -898,0 -1627,728 -1627,1627 0,899 729,1627 1627,1627 532,0 998,-260 1296,-655l2750 1407c-44,147 -75,298 -75,458 0,899 730,1627 1627,1627 898,0 1627,-728 1627,-1627 0,-899 -729,-1627 -1627,-1627z"/>
   <rect class="fil9" x="4460" y="37945" width="12358" height="1567"/>
   <rect class="fil9" x="4460" y="40694" width="12358" height="1567"/>
   <rect class="fil9" x="4460" y="43443" width="12358" height="1567"/>
   <rect class="fil9" x="4460" y="46192" width="12358" height="1567"/>
   <circle class="fil9" cx="22950" cy="41477" r="2890"/>
   <rect class="fil9" x="54857" y="7242" width="12358" height="1567"/>
   <rect class="fil9" x="54857" y="9991" width="12358" height="1567"/>
   <rect class="fil9" x="54857" y="12741" width="12358" height="1567"/>
   <rect class="fil9" x="54857" y="15490" width="12358" height="1567"/>
   <circle class="fil9" cx="73348" cy="10775" r="2890"/>
   <rect class="fil9" x="103656" y="37910" width="12358" height="1567"/>
   <rect class="fil9" x="103656" y="40660" width="12358" height="1567"/>
   <rect class="fil9" x="103656" y="43409" width="12358" height="1567"/>
   <rect class="fil9" x="103656" y="46158" width="12358" height="1567"/>
   <circle class="fil9" cx="122147" cy="41443" r="2890"/>
   <rect class="fil9" x="54943" y="68777" width="12358" height="1567"/>
   <rect class="fil9" x="54943" y="71527" width="12358" height="1567"/>
   <rect class="fil9" x="54943" y="74276" width="12358" height="1567"/>
   <rect class="fil9" x="54943" y="77025" width="12358" height="1567"/>
   <circle class="fil9" cx="73434" cy="72310" r="2890"/>
  </g>
 </g>
</svg>
