<?xml version="1.0" encoding="UTF-8"?>
<!DOCTYPE svg PUBLIC "-//W3C//DTD SVG 1.1//EN" "http://www.w3.org/Graphics/SVG/1.1/DTD/svg11.dtd">
<!-- Creator: CorelDRAW X8 -->
<svg xmlns="http://www.w3.org/2000/svg" xml:space="preserve" width="7.45445in" height="2in" version="1.1" style="shape-rendering:geometricPrecision; text-rendering:geometricPrecision; image-rendering:optimizeQuality; fill-rule:evenodd; clip-rule:evenodd"
viewBox="0 0 18694 5016"
 xmlns:xlink="http://www.w3.org/1999/xlink">
 <defs>
  <style type="text/css">
   <![CDATA[
    .str0 {stroke:#1A237E;stroke-width:88.8553}
    .fil0 {fill:none}
    .fil2 {fill:#FEFEFE}
    .fil1 {fill:#1A237E}
    .fil3 {fill:#606062;fill-rule:nonzero}
    .fil4 {fill:#1A237E;fill-rule:nonzero}
   ]]>
  </style>
 </defs>
 <g id="Layer_x0020_1">
  <metadata id="CorelCorpID_0Corel-Layer"/>
  <line class="fil0 str0" x1="5016" y1="2508" x2="13678" y2= "2508" />
  <g id="_2490692112048">
   <rect class="fil1" width="5016" height="5016"/>
   <rect class="fil2" x="150" y="150" width="4716" height="4716"/>
  </g>
  <rect class="fil1" x="6839" width="5016" height="5016"/>
  <rect class="fil2" x="6989" y="150" width="4716" height="4716"/>
  <rect class="fil1" x="13678" width="5016" height="5016"/>
  <rect class="fil2" x="13828" y="150" width="4716" height="4716"/>
  <path class="fil3" d="M1957 3649l40 -3c2,16 6,29 13,39 7,10 18,19 32,25 14,6 31,9 49,9 16,0 30,-2 42,-7 13,-5 22,-11 28,-20 6,-8 9,-17 9,-27 0,-10 -3,-18 -9,-26 -6,-7 -15,-13 -29,-19 -8,-3 -27,-8 -56,-15 -29,-7 -50,-14 -62,-20 -15,-8 -26,-18 -33,-30 -8,-11 -12,-25 -12,-39 0,-16 5,-31 14,-45 9,-14 22,-25 40,-32 17,-7 37,-11 58,-11 24,0 45,4 63,11 18,8 32,19 41,34 10,15 15,31 16,50l-41 3c-2,-20 -9,-35 -22,-45 -12,-11 -31,-16 -55,-16 -26,0 -44,5 -56,14 -11,10 -17,21 -17,34 0,11 4,21 12,28 8,8 29,15 64,23 34,8 57,14 70,20 18,9 32,19 41,33 9,13 13,28 13,45 0,17 -5,32 -14,47 -10,15 -24,27 -42,35 -18,9 -39,13 -61,13 -29,0 -53,-5 -72,-13 -20,-8 -35,-21 -46,-38 -11,-17 -17,-36 -18,-57z"/>
  <path id="1" class="fil3" d="M2413 3723c-14,12 -28,21 -42,26 -13,5 -27,7 -43,7 -25,0 -45,-6 -58,-18 -14,-13 -21,-28 -21,-47 0,-12 3,-22 8,-31 5,-10 12,-17 20,-23 9,-5 18,-10 28,-13 8,-2 20,-3 35,-5 32,-4 55,-9 70,-14 0,-5 0,-9 0,-10 0,-16 -4,-27 -11,-33 -10,-9 -25,-14 -45,-14 -18,0 -32,4 -40,10 -9,7 -16,18 -20,34l-38 -5c3,-16 9,-30 17,-40 8,-10 20,-17 35,-23 15,-5 32,-8 52,-8 20,0 36,2 48,7 13,5 22,10 27,17 6,7 10,16 13,27 1,7 2,19 2,36l0 52c0,36 0,59 2,69 2,9 5,19 10,27l-41 0c-4,-8 -7,-17 -8,-28zm-3 -87c-14,6 -35,11 -64,15 -16,2 -27,4 -34,7 -7,3 -12,7 -16,13 -3,5 -5,12 -5,18 0,11 4,19 12,26 8,7 19,11 35,11 15,0 28,-4 40,-10 11,-7 20,-16 26,-27 4,-9 6,-22 6,-39l0 -14z"/>
  <polygon id="2" class="fil3" points="2509,3751 2509,3433 2548,3433 2548,3751 "/>
  <path id="3" class="fil3" d="M2766 3677l40 5c-6,24 -18,42 -35,55 -17,13 -39,19 -66,19 -34,0 -60,-10 -80,-31 -20,-20 -30,-50 -30,-87 0,-39 10,-69 30,-90 20,-21 46,-32 78,-32 31,0 56,10 75,31 20,21 29,51 29,89 0,2 0,6 0,10l-172 0c2,25 9,45 22,58 13,14 29,20 48,20 14,0 26,-3 37,-11 10,-8 18,-20 24,-36zm-128 -63l128 0c-2,-19 -7,-34 -15,-43 -12,-16 -28,-23 -48,-23 -18,0 -33,6 -45,18 -12,12 -19,28 -20,48z"/>
  <path id="4" class="fil3" d="M2840 3683l39 -7c2,16 8,28 18,36 10,8 24,12 41,12 18,0 32,-3 40,-11 9,-7 13,-16 13,-25 0,-9 -4,-16 -11,-21 -6,-4 -19,-8 -40,-13 -29,-8 -49,-14 -60,-19 -11,-5 -19,-13 -25,-22 -6,-9 -8,-20 -8,-31 0,-10 2,-20 7,-28 4,-9 11,-16 19,-22 6,-5 14,-8 25,-11 10,-4 21,-5 33,-5 18,0 34,3 48,8 13,5 24,12 30,21 7,9 11,21 13,36l-38 5c-1,-12 -6,-21 -15,-28 -8,-7 -20,-10 -35,-10 -18,0 -31,3 -38,9 -8,6 -12,13 -12,21 0,5 2,9 5,13 3,4 8,8 15,11 4,1 15,4 34,10 28,7 47,13 58,18 11,4 20,11 26,20 6,9 9,20 9,34 0,13 -3,25 -11,36 -8,12 -19,21 -33,27 -14,6 -30,9 -49,9 -29,0 -52,-6 -68,-18 -16,-13 -26,-31 -30,-55z"/>
  <path id="5" class="fil3" d="M1366 4248l0 -318 110 0c25,0 43,1 57,4 18,4 33,12 46,23 17,14 29,32 38,54 8,22 12,48 12,76 0,24 -3,45 -8,64 -6,19 -13,34 -22,46 -9,13 -18,22 -29,29 -10,7 -23,13 -38,16 -15,4 -32,6 -51,6l-115 0zm42 -38l68 0c21,0 38,-2 50,-5 12,-4 21,-10 28,-17 10,-10 18,-23 23,-40 6,-17 9,-38 9,-62 0,-33 -6,-59 -17,-77 -10,-18 -24,-29 -39,-36 -12,-4 -30,-6 -55,-6l-67 0 0 243z"/>
  <path id="6" class="fil3" d="M1840 4173l40 5c-6,24 -18,42 -35,55 -17,13 -39,20 -66,20 -34,0 -60,-11 -80,-32 -20,-20 -30,-49 -30,-87 0,-38 10,-68 30,-90 20,-21 46,-32 78,-32 30,0 56,11 75,32 19,21 29,50 29,88 0,2 0,6 0,10l-172 0c2,26 9,45 22,58 13,14 29,21 48,21 14,0 26,-4 36,-12 11,-7 19,-19 25,-36zm-128 -63l128 0c-2,-19 -7,-33 -15,-43 -12,-15 -28,-23 -48,-23 -18,0 -33,6 -45,18 -12,12 -19,28 -20,48z"/>
  <path id="7" class="fil3" d="M1929 4336l0 -319 36 0 0 30c8,-11 18,-20 28,-26 11,-6 24,-9 39,-9 19,0 37,5 52,15 15,10 26,25 34,43 7,19 11,39 11,61 0,23 -4,44 -12,63 -9,19 -21,33 -37,44 -16,10 -33,15 -51,15 -13,0 -25,-3 -35,-9 -10,-5 -19,-12 -26,-20l0 112 -39 0zm36 -202c0,29 6,51 18,65 12,14 26,22 43,22 18,0 32,-8 45,-22 12,-15 18,-38 18,-68 0,-30 -6,-52 -18,-66 -12,-15 -26,-22 -43,-22 -17,0 -31,8 -44,23 -13,16 -19,38 -19,68z"/>
  <path id="8" class="fil3" d="M2327 4219c-15,12 -29,21 -42,26 -13,5 -28,8 -43,8 -25,0 -45,-7 -59,-19 -13,-12 -20,-28 -20,-47 0,-11 3,-22 8,-31 5,-9 12,-17 20,-22 8,-6 18,-10 28,-13 8,-2 19,-4 35,-6 31,-4 55,-8 70,-13 0,-6 0,-9 0,-11 0,-15 -4,-27 -11,-33 -10,-9 -25,-13 -45,-13 -18,0 -32,3 -41,9 -8,7 -15,18 -19,35l-38 -6c3,-16 9,-29 17,-39 8,-10 19,-18 35,-24 15,-5 32,-8 52,-8 20,0 36,3 48,7 12,5 21,11 27,18 6,7 10,16 12,26 2,7 2,19 2,36l0 52c0,36 1,59 3,69 1,10 5,19 9,28l-40 0c-4,-9 -7,-18 -8,-29zm-3 -87c-14,6 -36,11 -64,15 -16,2 -28,5 -34,8 -7,3 -12,7 -16,12 -3,6 -5,12 -5,19 0,10 4,19 12,26 8,6 19,10 34,10 15,0 29,-3 41,-10 11,-6 20,-15 25,-27 5,-9 7,-21 7,-39l0 -14z"/>
  <path id="9" class="fil3" d="M2423 4248l0 -231 35 0 0 35c9,-16 17,-27 25,-32 8,-5 16,-8 25,-8 13,0 27,4 40,13l-14 36c-9,-6 -19,-8 -28,-8 -9,0 -16,2 -23,7 -7,5 -11,13 -14,22 -5,14 -7,29 -7,45l0 121 -39 0z"/>
  <path id="10" class="fil3" d="M2656 4213l6 34c-11,3 -21,4 -30,4 -14,0 -25,-2 -33,-7 -8,-4 -13,-10 -16,-18 -3,-7 -5,-22 -5,-46l0 -133 -29 0 0 -30 29 0 0 -57 39 -23 0 80 39 0 0 30 -39 0 0 135c0,12 1,19 2,22 2,3 4,6 7,8 3,1 7,2 13,2 5,0 10,0 17,-1z"/>
  <path id="11" class="fil3" d="M2695 4248l0 -231 35 0 0 33c7,-12 17,-21 29,-27 12,-7 25,-11 41,-11 17,0 31,4 42,11 10,7 18,17 23,30 18,-27 42,-41 71,-41 23,0 41,7 53,19 12,13 19,32 19,59l0 158 -40 0 0 -145c0,-16 -1,-27 -3,-34 -3,-7 -7,-12 -14,-17 -7,-4 -15,-6 -24,-6 -16,0 -29,5 -40,16 -11,11 -16,28 -16,52l0 134 -39 0 0 -150c0,-17 -4,-30 -10,-39 -6,-9 -17,-13 -31,-13 -11,0 -21,3 -31,9 -9,5 -16,14 -20,25 -4,11 -6,27 -6,48l0 120 -39 0z"/>
  <path id="12" class="fil3" d="M3222 4173l41 5c-7,24 -18,42 -36,55 -17,13 -39,20 -65,20 -34,0 -61,-11 -80,-32 -20,-20 -30,-49 -30,-87 0,-38 10,-68 30,-90 20,-21 46,-32 77,-32 31,0 56,11 76,32 19,21 29,50 29,88 0,2 0,6 0,10l-172 0c1,26 9,45 21,58 13,14 29,21 49,21 14,0 26,-4 36,-12 10,-7 18,-19 24,-36zm-128 -63l129 0c-2,-19 -7,-33 -15,-43 -13,-15 -29,-23 -48,-23 -18,0 -33,6 -46,18 -12,12 -18,28 -20,48z"/>
  <path id="13" class="fil3" d="M3312 4248l0 -231 35 0 0 33c17,-25 41,-38 73,-38 14,0 27,3 39,8 11,5 20,11 26,19 5,8 10,18 12,29 1,7 2,20 2,38l0 142 -39 0 0 -140c0,-16 -2,-28 -5,-36 -3,-8 -8,-14 -16,-19 -7,-5 -17,-7 -27,-7 -17,0 -31,5 -43,16 -12,10 -18,30 -18,60l0 126 -39 0z"/>
  <path id="14" class="fil3" d="M3644 4213l5 34c-11,3 -21,4 -29,4 -14,0 -25,-2 -33,-7 -8,-4 -13,-10 -17,-18 -3,-7 -4,-22 -4,-46l0 -133 -29 0 0 -30 29 0 0 -57 39 -23 0 80 39 0 0 30 -39 0 0 135c0,12 0,19 2,22 1,3 3,6 7,8 3,1 7,2 13,2 4,0 10,0 17,-1z"/>
  <polygon class="fil3" points="8578,3751 8578,3433 8793,3433 8793,3471 8620,3471 8620,3570 8769,3570 8769,3607 8620,3607 8620,3751 "/>
  <path id="1" class="fil3" d="M8842 3478l0 -45 39 0 0 45 -39 0zm0 273l0 -230 39 0 0 230 -39 0z"/>
  <path id="2" class="fil3" d="M8941 3751l0 -230 35 0 0 33c17,-26 41,-38 73,-38 14,0 27,2 39,7 11,5 20,12 26,20 5,8 10,18 12,29 1,7 2,20 2,38l0 141 -39 0 0 -140c0,-16 -2,-28 -5,-35 -3,-8 -8,-15 -16,-19 -7,-5 -17,-7 -27,-7 -17,0 -31,5 -43,16 -12,10 -18,30 -18,60l0 125 -39 0z"/>
  <path id="3" class="fil3" d="M9339 3723c-15,12 -29,21 -42,26 -14,5 -28,7 -43,7 -26,0 -45,-6 -59,-18 -13,-13 -20,-28 -20,-47 0,-12 2,-22 7,-31 6,-10 12,-17 21,-23 8,-5 17,-10 28,-13 7,-2 19,-3 35,-5 31,-4 54,-9 69,-14 0,-5 1,-9 1,-10 0,-16 -4,-27 -12,-33 -10,-9 -24,-14 -44,-14 -19,0 -32,4 -41,10 -9,7 -15,18 -19,34l-39 -5c4,-16 10,-30 18,-40 8,-10 19,-17 34,-23 15,-5 33,-8 53,-8 19,0 35,2 48,7 12,5 21,10 27,17 6,7 10,16 12,27 1,7 2,19 2,36l0 52c0,36 1,59 2,69 2,9 5,19 10,27l-41 0c-4,-8 -6,-17 -7,-28zm-3 -87c-15,6 -36,11 -64,15 -17,2 -28,4 -35,7 -6,3 -11,7 -15,13 -4,5 -6,12 -6,18 0,11 4,19 12,26 8,7 20,11 35,11 15,0 28,-4 40,-10 12,-7 21,-16 26,-27 4,-9 6,-22 6,-39l1 -14z"/>
  <path id="4" class="fil3" d="M9435 3751l0 -230 35 0 0 33c17,-26 42,-38 73,-38 14,0 27,2 39,7 11,5 20,12 26,20 6,8 10,18 12,29 1,7 2,20 2,38l0 141 -39 0 0 -140c0,-16 -1,-28 -4,-35 -4,-8 -9,-15 -17,-19 -7,-5 -16,-7 -27,-7 -16,0 -31,5 -43,16 -12,10 -18,30 -18,60l0 125 -39 0z"/>
  <path id="5" class="fil3" d="M9833 3667l38 5c-4,27 -15,47 -32,62 -17,15 -39,22 -64,22 -31,0 -57,-10 -76,-31 -19,-20 -28,-50 -28,-88 0,-25 4,-47 12,-65 8,-19 21,-33 38,-42 16,-9 35,-14 55,-14 24,0 45,6 61,19 16,13 26,31 30,54l-37 6c-4,-16 -10,-28 -20,-35 -9,-8 -20,-12 -33,-12 -20,0 -36,7 -48,21 -12,14 -18,36 -18,67 0,31 6,53 17,67 12,14 28,21 47,21 15,0 28,-4 38,-14 11,-9 17,-24 20,-43z"/>
  <path id="6" class="fil3" d="M10062 3677l40 5c-6,24 -18,42 -35,55 -17,13 -39,19 -66,19 -34,0 -60,-10 -80,-31 -20,-20 -30,-50 -30,-87 0,-39 10,-69 30,-90 20,-21 46,-32 78,-32 31,0 56,10 75,31 20,21 29,51 29,89 0,2 0,6 0,10l-172 0c2,25 9,45 22,58 13,14 29,20 48,20 14,0 26,-3 37,-11 10,-8 18,-20 24,-36zm-128 -63l128 0c-2,-19 -7,-34 -15,-43 -12,-16 -28,-23 -48,-23 -18,0 -33,6 -45,18 -12,12 -19,28 -20,48z"/>
  <path id="7" class="fil3" d="M8205 4248l0 -318 110 0c25,0 44,1 57,4 18,4 33,12 46,23 17,14 30,32 38,54 8,22 12,48 12,76 0,24 -2,45 -8,64 -6,19 -13,34 -22,46 -9,13 -18,22 -29,29 -10,7 -23,13 -38,16 -14,4 -31,6 -51,6l-115 0zm43 -38l68 0c20,0 37,-2 49,-5 12,-4 21,-10 28,-17 10,-10 18,-23 24,-40 5,-17 8,-38 8,-62 0,-33 -6,-59 -16,-77 -11,-18 -25,-29 -40,-36 -11,-4 -30,-6 -55,-6l-66 0 0 243z"/>
  <path id="8" class="fil3" d="M8679 4173l40 5c-6,24 -18,42 -35,55 -17,13 -39,20 -66,20 -34,0 -60,-11 -80,-32 -20,-20 -29,-49 -29,-87 0,-38 9,-68 29,-90 20,-21 46,-32 78,-32 31,0 56,11 75,32 20,21 29,50 29,88 0,2 0,6 0,10l-171 0c1,26 8,45 21,58 13,14 29,21 48,21 14,0 27,-4 37,-12 10,-7 18,-19 24,-36zm-128 -63l128 0c-2,-19 -7,-33 -15,-43 -12,-15 -28,-23 -48,-23 -18,0 -33,6 -45,18 -12,12 -19,28 -20,48z"/>
  <path id="9" class="fil3" d="M8769 4336l0 -319 35 0 0 30c8,-11 18,-20 28,-26 11,-6 24,-9 39,-9 20,0 37,5 52,15 15,10 26,25 34,43 8,19 11,39 11,61 0,23 -4,44 -12,63 -9,19 -21,33 -37,44 -16,10 -33,15 -51,15 -13,0 -25,-3 -35,-9 -10,-5 -19,-12 -25,-20l0 112 -39 0zm35 -202c0,29 6,51 18,65 12,14 26,22 44,22 17,0 32,-8 44,-22 12,-15 18,-38 18,-68 0,-30 -6,-52 -18,-66 -12,-15 -26,-22 -43,-22 -16,0 -31,8 -44,23 -13,16 -19,38 -19,68z"/>
  <path id="10" class="fil3" d="M9166 4219c-14,12 -28,21 -42,26 -13,5 -27,8 -43,8 -25,0 -45,-7 -58,-19 -14,-12 -21,-28 -21,-47 0,-11 3,-22 8,-31 5,-9 12,-17 20,-22 9,-6 18,-10 28,-13 8,-2 20,-4 35,-6 32,-4 55,-8 70,-13 0,-6 0,-9 0,-11 0,-15 -4,-27 -11,-33 -10,-9 -25,-13 -45,-13 -18,0 -32,3 -40,9 -9,7 -16,18 -20,35l-38 -6c3,-16 9,-29 17,-39 8,-10 20,-18 35,-24 15,-5 32,-8 52,-8 20,0 36,3 48,7 13,5 22,11 27,18 6,7 10,16 13,26 1,7 2,19 2,36l0 52c0,36 0,59 2,69 2,10 5,19 10,28l-41 0c-4,-9 -7,-18 -8,-29zm-3 -87c-14,6 -35,11 -64,15 -16,2 -27,5 -34,8 -7,3 -12,7 -16,12 -3,6 -5,12 -5,19 0,10 4,19 12,26 8,6 19,10 35,10 15,0 28,-3 40,-10 11,-6 20,-15 26,-27 4,-9 6,-21 6,-39l0 -14z"/>
  <path id="11" class="fil3" d="M9262 4248l0 -231 35 0 0 35c9,-16 18,-27 25,-32 8,-5 16,-8 25,-8 13,0 27,4 40,13l-13 36c-10,-6 -19,-8 -29,-8 -8,0 -16,2 -23,7 -6,5 -11,13 -14,22 -5,14 -7,29 -7,45l0 121 -39 0z"/>
  <path id="12" class="fil3" d="M9495 4213l6 34c-11,3 -21,4 -30,4 -14,0 -25,-2 -33,-7 -7,-4 -13,-10 -16,-18 -3,-7 -5,-22 -5,-46l0 -133 -29 0 0 -30 29 0 0 -57 39 -23 0 80 39 0 0 30 -39 0 0 135c0,12 1,19 2,22 2,3 4,6 7,8 3,1 8,2 13,2 5,0 10,0 17,-1z"/>
  <path id="13" class="fil3" d="M9534 4248l0 -231 35 0 0 33c7,-12 17,-21 29,-27 12,-7 26,-11 41,-11 17,0 31,4 42,11 11,7 18,17 23,30 18,-27 42,-41 71,-41 23,0 41,7 53,19 13,13 19,32 19,59l0 158 -39 0 0 -145c0,-16 -2,-27 -4,-34 -3,-7 -7,-12 -14,-17 -7,-4 -15,-6 -23,-6 -17,0 -30,5 -41,16 -11,11 -16,28 -16,52l0 134 -39 0 0 -150c0,-17 -3,-30 -10,-39 -6,-9 -17,-13 -31,-13 -11,0 -21,3 -30,9 -10,5 -16,14 -21,25 -4,11 -6,27 -6,48l0 120 -39 0z"/>
  <path id="14" class="fil3" d="M10061 4173l41 5c-7,24 -18,42 -35,55 -18,13 -40,20 -66,20 -34,0 -61,-11 -80,-32 -20,-20 -30,-49 -30,-87 0,-38 10,-68 30,-90 20,-21 46,-32 78,-32 30,0 55,11 75,32 19,21 29,50 29,88 0,2 0,6 0,10l-172 0c2,26 9,45 22,58 12,14 29,21 48,21 14,0 26,-4 36,-12 10,-7 18,-19 24,-36zm-128 -63l129 0c-2,-19 -7,-33 -15,-43 -12,-15 -28,-23 -48,-23 -18,0 -33,6 -45,18 -13,12 -19,28 -21,48z"/>
  <path id="15" class="fil3" d="M10151 4248l0 -231 35 0 0 33c17,-25 42,-38 73,-38 14,0 27,3 39,8 11,5 20,11 26,19 6,8 10,18 12,29 1,7 2,20 2,38l0 142 -39 0 0 -140c0,-16 -1,-28 -4,-36 -3,-8 -9,-14 -17,-19 -7,-5 -16,-7 -27,-7 -16,0 -31,5 -43,16 -12,10 -18,30 -18,60l0 126 -39 0z"/>
  <path id="16" class="fil3" d="M10483 4213l5 34c-11,3 -20,4 -29,4 -14,0 -25,-2 -33,-7 -8,-4 -13,-10 -16,-18 -4,-7 -5,-22 -5,-46l0 -133 -29 0 0 -30 29 0 0 -57 39 -23 0 80 39 0 0 30 -39 0 0 135c0,12 1,19 2,22 1,3 4,6 7,8 3,1 7,2 13,2 4,0 10,0 17,-1z"/>
  <polygon class="fil3" points="15928,3751 15928,3471 15824,3471 15824,3433 16075,3433 16075,3471 15971,3471 15971,3751 "/>
  <path id="1" class="fil3" d="M16050 3636c0,-42 12,-74 36,-95 19,-17 44,-25 72,-25 32,0 58,10 78,31 20,21 30,49 30,86 0,29 -4,53 -13,70 -9,17 -22,30 -39,39 -17,10 -36,14 -56,14 -32,0 -58,-10 -78,-31 -20,-20 -30,-50 -30,-89zm40 0c0,30 7,52 19,66 13,15 30,22 49,22 20,0 36,-7 49,-22 13,-15 19,-37 19,-67 0,-29 -6,-50 -19,-65 -13,-14 -30,-22 -49,-22 -19,0 -36,8 -49,22 -12,15 -19,37 -19,66z"/>
  <path id="2" class="fil3" d="M16312 3840l0 -319 35 0 0 30c9,-12 18,-20 29,-26 10,-6 23,-9 38,-9 20,0 37,5 52,15 15,10 27,24 34,43 8,18 12,38 12,60 0,24 -4,45 -13,64 -8,19 -21,33 -37,43 -16,10 -33,15 -51,15 -13,0 -24,-2 -35,-8 -10,-5 -18,-12 -25,-21l0 113 -39 0zm35 -202c0,29 6,51 18,65 12,14 27,21 44,21 17,0 32,-7 44,-22 13,-14 19,-37 19,-68 0,-29 -6,-51 -18,-66 -12,-14 -27,-21 -43,-21 -17,0 -32,7 -44,23 -13,15 -20,38 -20,68z"/>
  <path id="3" class="fil3" d="M14908 4248l0 -318 63 0 76 225c7,21 12,36 15,47 3,-12 9,-29 17,-51l76 -221 57 0 0 318 -41 0 0 -266 -93 266 -38 0 -91 -271 0 271 -41 0z"/>
  <path id="4" class="fil3" d="M15425 4219c-15,12 -29,21 -42,26 -13,5 -28,8 -43,8 -25,0 -45,-7 -59,-19 -13,-12 -20,-28 -20,-47 0,-11 3,-22 8,-31 5,-9 12,-17 20,-22 8,-6 18,-10 28,-13 8,-2 19,-4 35,-6 31,-4 55,-8 70,-13 0,-6 0,-9 0,-11 0,-15 -4,-27 -11,-33 -10,-9 -25,-13 -45,-13 -18,0 -32,3 -41,9 -8,7 -15,18 -19,35l-38 -6c3,-16 9,-29 17,-39 8,-10 19,-18 34,-24 16,-5 33,-8 53,-8 20,0 36,3 48,7 12,5 21,11 27,18 6,7 10,16 12,26 2,7 2,19 2,36l0 52c0,36 1,59 3,69 1,10 5,19 9,28l-41 0c-3,-9 -6,-18 -7,-29zm-3 -87c-14,6 -36,11 -64,15 -16,2 -28,5 -34,8 -7,3 -12,7 -16,12 -3,6 -5,12 -5,19 0,10 4,19 12,26 8,6 19,10 34,10 15,0 29,-3 40,-10 12,-6 21,-15 26,-27 5,-9 7,-21 7,-39l0 -14z"/>
  <path id="5" class="fil3" d="M15521 4248l0 -231 35 0 0 33c17,-25 42,-38 74,-38 14,0 26,3 38,8 12,5 20,11 26,19 6,8 10,18 12,29 2,7 2,20 2,38l0 142 -39 0 0 -140c0,-16 -1,-28 -4,-36 -3,-8 -9,-14 -16,-19 -8,-5 -17,-7 -28,-7 -16,0 -30,5 -42,16 -13,10 -19,30 -19,60l0 126 -39 0z"/>
  <path id="6" class="fil3" d="M15919 4219c-14,12 -28,21 -42,26 -13,5 -28,8 -43,8 -25,0 -45,-7 -58,-19 -14,-12 -21,-28 -21,-47 0,-11 3,-22 8,-31 5,-9 12,-17 20,-22 8,-6 18,-10 28,-13 8,-2 20,-4 35,-6 32,-4 55,-8 70,-13 0,-6 0,-9 0,-11 0,-15 -4,-27 -11,-33 -10,-9 -25,-13 -45,-13 -18,0 -32,3 -41,9 -8,7 -15,18 -19,35l-38 -6c3,-16 9,-29 17,-39 8,-10 20,-18 35,-24 15,-5 32,-8 52,-8 20,0 36,3 48,7 12,5 22,11 27,18 6,7 10,16 13,26 1,7 1,19 1,36l0 52c0,36 1,59 3,69 1,10 5,19 9,28l-40 0c-4,-9 -7,-18 -8,-29zm-3 -87c-14,6 -36,11 -64,15 -16,2 -28,5 -34,8 -7,3 -12,7 -16,12 -3,6 -5,12 -5,19 0,10 4,19 12,26 8,6 19,10 34,10 15,0 29,-3 41,-10 11,-6 20,-15 25,-27 5,-9 7,-21 7,-39l0 -14z"/>
  <path id="7" class="fil3" d="M16008 4267l38 5c2,12 6,20 13,26 10,7 23,11 40,11 18,0 32,-4 42,-11 10,-7 17,-18 20,-31 2,-7 3,-24 3,-50 -17,21 -39,31 -64,31 -32,0 -56,-12 -74,-35 -17,-22 -26,-50 -26,-82 0,-22 4,-42 12,-61 8,-18 20,-32 35,-43 15,-10 33,-15 53,-15 27,0 50,11 67,34l0 -29 36 0 0 199c0,36 -3,62 -11,76 -7,15 -18,27 -34,36 -16,9 -36,13 -59,13 -27,0 -49,-6 -66,-19 -17,-12 -25,-30 -25,-55zm32 -139c0,31 6,53 18,66 12,14 27,21 45,21 18,0 34,-7 46,-20 12,-14 18,-36 18,-65 0,-28 -6,-50 -19,-64 -12,-14 -27,-21 -45,-21 -17,0 -32,7 -44,21 -13,14 -19,35 -19,62z"/>
  <path id="8" class="fil3" d="M16420 4173l40 5c-6,24 -18,42 -35,55 -17,13 -39,20 -66,20 -33,0 -60,-11 -80,-32 -19,-20 -29,-49 -29,-87 0,-38 10,-68 30,-90 19,-21 45,-32 77,-32 31,0 56,11 75,32 20,21 30,50 30,88 0,2 0,6 -1,10l-171 0c1,26 8,45 21,58 13,14 29,21 48,21 15,0 27,-4 37,-12 10,-7 18,-19 24,-36zm-128 -63l128 0c-1,-19 -6,-33 -14,-43 -13,-15 -29,-23 -49,-23 -18,0 -33,6 -45,18 -12,12 -19,28 -20,48z"/>
  <path id="9" class="fil3" d="M16510 4248l0 -231 35 0 0 33c7,-12 17,-21 29,-27 12,-7 25,-11 41,-11 17,0 31,4 41,11 11,7 19,17 23,30 19,-27 43,-41 72,-41 23,0 41,7 53,19 12,13 18,32 18,59l0 158 -39 0 0 -145c0,-16 -1,-27 -4,-34 -2,-7 -7,-12 -13,-17 -7,-4 -15,-6 -24,-6 -16,0 -30,5 -40,16 -11,11 -16,28 -16,52l0 134 -39 0 0 -150c0,-17 -4,-30 -10,-39 -6,-9 -17,-13 -31,-13 -11,0 -21,3 -31,9 -9,5 -16,14 -20,25 -4,11 -6,27 -6,48l0 120 -39 0z"/>
  <path id="10" class="fil3" d="M17037 4173l40 5c-6,24 -18,42 -35,55 -17,13 -39,20 -66,20 -33,0 -60,-11 -80,-32 -19,-20 -29,-49 -29,-87 0,-38 10,-68 30,-90 20,-21 45,-32 77,-32 31,0 56,11 76,32 19,21 29,50 29,88 0,2 0,6 0,10l-172 0c1,26 8,45 21,58 13,14 29,21 48,21 15,0 27,-4 37,-12 10,-7 18,-19 24,-36zm-128 -63l128 0c-1,-19 -6,-33 -14,-43 -13,-15 -29,-23 -49,-23 -17,0 -33,6 -45,18 -12,12 -19,28 -20,48z"/>
  <path id="11" class="fil3" d="M17127 4248l0 -231 35 0 0 33c17,-25 41,-38 73,-38 14,0 27,3 38,8 12,5 21,11 27,19 5,8 9,18 12,29 1,7 2,20 2,38l0 142 -39 0 0 -140c0,-16 -2,-28 -5,-36 -3,-8 -8,-14 -16,-19 -8,-5 -17,-7 -27,-7 -17,0 -31,5 -43,16 -12,10 -18,30 -18,60l0 126 -39 0z"/>
  <path id="12" class="fil3" d="M17459 4213l5 34c-11,3 -21,4 -29,4 -14,0 -25,-2 -33,-7 -8,-4 -14,-10 -17,-18 -3,-7 -4,-22 -4,-46l0 -133 -29 0 0 -30 29 0 0 -57 39 -23 0 80 39 0 0 30 -39 0 0 135c0,12 0,19 2,22 1,3 3,6 6,8 3,1 8,2 14,2 4,0 10,0 17,-1z"/>
  <path class="fil4" d="M1898 2335l0 229c0,14 11,25 25,25l177 0c14,0 26,-11 26,-25l0 -403 -129 129c-27,27 -62,42 -99,45z"/>
  <path class="fil4" d="M2214 2158l0 406c0,14 11,25 25,25l177 0c14,0 26,-11 26,-25l0 -239c-41,-1 -78,-17 -107,-45l-121 -122z"/>
  <path class="fil4" d="M2530 2300l0 264c0,14 11,25 25,25l177 0c14,0 26,-11 26,-25l0 -487 -203 202c-8,8 -16,15 -25,21z"/>
  <path class="fil4" d="M3057 1778l-211 210 0 576c0,14 11,25 25,25l177 0c14,0 26,-11 26,-25l0 -771c-6,-4 -10,-9 -14,-12l-3 -3z"/>
  <path class="fil4" d="M3201 1404c-8,-9 -21,-14 -37,-14l-5 0c-82,4 -164,8 -246,12 -11,1 -26,1 -38,13 -4,4 -7,8 -9,13 -13,27 5,44 13,52l20 21c14,14 29,29 43,43l-497 498 -224 -224c-13,-13 -31,-20 -50,-20 -19,0 -37,7 -50,20l-298 298c-14,14 -21,32 -21,50l0 0c0,19 7,37 21,51l13 13c14,13 32,21 51,21 19,0 37,-8 50,-21l234 -234 223 223c14,14 32,21 51,21 19,0 37,-7 50,-21l562 -561 63 63c8,8 18,18 34,18 7,0 13,-1 20,-5 5,-3 9,-6 13,-9 12,-13 14,-29 15,-41 2,-54 5,-107 8,-160l3 -81c1,-17 -3,-30 -12,-39z"/>
  <path class="fil1" d="M9853 1484c-135,-135 -315,-209 -506,-209 -191,0 -371,74 -506,209 -135,135 -209,315 -209,506 0,191 74,370 209,505 135,136 315,210 506,210 191,0 371,-74 506,-210 135,-135 209,-314 209,-505 0,-191 -74,-371 -209,-506zm-461 817l-3 0 0 93c0,23 -19,42 -42,42 -23,0 -42,-19 -42,-42l0 -93 -93 0c-23,0 -42,-19 -42,-42 0,-23 19,-42 42,-42l180 0c51,0 93,-41 93,-93 0,-51 -42,-92 -93,-92l-90 0c-97,0 -176,-80 -176,-177 0,-97 79,-176 176,-176l3 0 0 -93c0,-23 19,-42 42,-42 23,0 42,19 42,42l0 93 93 0c23,0 41,18 41,41 0,24 -18,42 -41,42l-180 0c-51,0 -93,42 -93,93 0,51 42,93 93,93l90 0c97,0 176,79 176,176 0,98 -79,177 -176,177z"/>
  <path class="fil1" d="M15408 1939l0 0c43,-40 111,-40 155,0l289 290c44,40 112,40 155,0l802 -802c44,-40 111,-40 155,0l7 7c40,44 40,111 0,155 -310,317 -640,647 -957,963 -44,41 -111,41 -155,0l-458 -458c-41,-43 -39,-112 4,-153 1,0 2,-1 3,-2z"/>
 </g>
</svg>
