<svg width="348" height="306" viewBox="0 0 348 306" fill="none" xmlns="http://www.w3.org/2000/svg">
<g filter="url(#filter0_d_379_428)">
<rect width="161.68" height="118.44" rx="13.76" fill="white" shape-rendering="crispEdges"/>
<rect x="1.5" y="1.5" width="158.68" height="115.44" rx="12.26" stroke="#212528" stroke-width="3" shape-rendering="crispEdges"/>
<path d="M63.64 30.9598C63.64 28.11 65.9502 25.7998 68.8 25.7998H92.88C95.7298 25.7998 98.04 28.11 98.04 30.9598V44.7198C98.04 47.5696 95.7298 49.8798 92.88 49.8798H63.64V30.9598Z" fill="#0D4680"/>
<path d="M63.64 30.9598C63.64 28.11 65.9502 25.7998 68.8 25.7998H93.0601C93.5104 25.7998 93.9578 25.8724 94.385 26.0148L63.64 56.7598V30.9598Z" fill="#66BDFF"/>
<path d="M66.0627 78.9307C65.9718 78.1239 65.5968 77.4989 64.9377 77.0557C64.2786 76.6069 63.449 76.3824 62.449 76.3824C61.7331 76.3824 61.1138 76.4961 60.5911 76.7233C60.0684 76.9449 59.6621 77.2518 59.3723 77.6438C59.0883 78.0302 58.9462 78.4705 58.9462 78.9648C58.9462 79.3796 59.0428 79.7375 59.236 80.0387C59.4348 80.3398 59.6934 80.5927 60.0115 80.7972C60.3354 80.9961 60.682 81.1637 61.0513 81.3C61.4206 81.4307 61.7758 81.5387 62.1167 81.6239L63.8212 82.0671C64.378 82.2035 64.949 82.3881 65.5343 82.6211C66.1195 82.854 66.6621 83.1608 67.1621 83.5415C67.6621 83.9222 68.0655 84.3938 68.3723 84.9563C68.6848 85.5188 68.8411 86.1921 68.8411 86.9762C68.8411 87.9648 68.5854 88.8427 68.074 89.6097C67.5684 90.3768 66.8326 90.9819 65.8667 91.425C64.9064 91.8682 63.7445 92.0898 62.3809 92.0898C61.074 92.0898 59.9434 91.8824 58.9888 91.4677C58.0343 91.0529 57.2871 90.4648 56.7473 89.7035C56.2076 88.9364 55.9093 88.0273 55.8525 86.9762H58.4945C58.5456 87.6069 58.7502 88.1324 59.1081 88.5529C59.4718 88.9677 59.9348 89.2773 60.4973 89.4819C61.0655 89.6807 61.6877 89.7802 62.3638 89.7802C63.1081 89.7802 63.7701 89.6637 64.3496 89.4307C64.9348 89.1921 65.3951 88.8625 65.7303 88.4421C66.0655 88.016 66.2331 87.5188 66.2331 86.9506C66.2331 86.4336 66.0854 86.0103 65.79 85.6807C65.5002 85.3512 65.1053 85.0785 64.6053 84.8625C64.111 84.6466 63.5513 84.4563 62.9263 84.2915L60.8638 83.729C59.4661 83.3483 58.3581 82.7887 57.54 82.05C56.7275 81.3114 56.3212 80.3341 56.3212 79.1182C56.3212 78.1125 56.5939 77.2347 57.1394 76.4847C57.6848 75.7347 58.4235 75.1523 59.3553 74.7375C60.2871 74.3171 61.3383 74.1069 62.5087 74.1069C63.6905 74.1069 64.7331 74.3143 65.6365 74.729C66.5456 75.1438 67.2615 75.7148 67.7843 76.4421C68.307 77.1637 68.5797 77.9932 68.6025 78.9307H66.0627ZM71.9881 74.3455H75.1841L80.741 87.9137H80.9455L86.5023 74.3455H89.6983V91.8H87.1927V79.1694H87.0307L81.883 91.7745H79.8035L74.6557 79.1608H74.4938V91.8H71.9881V74.3455ZM103.047 78.9307C102.956 78.1239 102.581 77.4989 101.922 77.0557C101.263 76.6069 100.433 76.3824 99.4334 76.3824C98.7175 76.3824 98.0982 76.4961 97.5755 76.7233C97.0527 76.9449 96.6465 77.2518 96.3567 77.6438C96.0726 78.0302 95.9306 78.4705 95.9306 78.9648C95.9306 79.3796 96.0272 79.7375 96.2204 80.0387C96.4192 80.3398 96.6777 80.5927 96.9959 80.7972C97.3198 80.9961 97.6664 81.1637 98.0357 81.3C98.405 81.4307 98.7601 81.5387 99.101 81.6239L100.806 82.0671C101.362 82.2035 101.933 82.3881 102.519 82.6211C103.104 82.854 103.646 83.1608 104.146 83.5415C104.646 83.9222 105.05 84.3938 105.357 84.9563C105.669 85.5188 105.825 86.1921 105.825 86.9762C105.825 87.9648 105.57 88.8427 105.058 89.6097C104.553 90.3768 103.817 90.9819 102.851 91.425C101.891 91.8682 100.729 92.0898 99.3652 92.0898C98.0584 92.0898 96.9277 91.8824 95.9732 91.4677C95.0186 91.0529 94.2715 90.4648 93.7317 89.7035C93.1919 88.9364 92.8936 88.0273 92.8368 86.9762H95.4789C95.53 87.6069 95.7346 88.1324 96.0925 88.5529C96.4561 88.9677 96.9192 89.2773 97.4817 89.4819C98.0499 89.6807 98.6721 89.7802 99.3482 89.7802C100.093 89.7802 100.754 89.6637 101.334 89.4307C101.919 89.1921 102.379 88.8625 102.715 88.4421C103.05 88.016 103.218 87.5188 103.218 86.9506C103.218 86.4336 103.07 86.0103 102.774 85.6807C102.485 85.3512 102.09 85.0785 101.59 84.8625C101.095 84.6466 100.536 84.4563 99.9107 84.2915L97.8482 83.729C96.4505 83.3483 95.3425 82.7887 94.5243 82.05C93.7118 81.3114 93.3056 80.3341 93.3056 79.1182C93.3056 78.1125 93.5783 77.2347 94.1238 76.4847C94.6692 75.7347 95.4079 75.1523 96.3397 74.7375C97.2715 74.3171 98.3226 74.1069 99.4931 74.1069C100.675 74.1069 101.718 74.3143 102.621 74.729C103.53 75.1438 104.246 75.7148 104.769 76.4421C105.291 77.1637 105.564 77.9932 105.587 78.9307H103.047Z" fill="#212528"/>
</g>
<g filter="url(#filter1_d_379_428)">
<rect x="182.68" width="161.68" height="118.44" rx="13.76" fill="white" shape-rendering="crispEdges"/>
<rect x="184.18" y="1.5" width="158.68" height="115.44" rx="12.26" stroke="#212528" stroke-width="3" shape-rendering="crispEdges"/>
<path d="M246.32 32.9257C246.32 30.8901 247.86 29.24 249.76 29.24H277.28C279.18 29.24 280.72 30.8901 280.72 32.9257V51.3543C280.72 53.3898 279.18 55.04 277.28 55.04H249.76C247.86 55.04 246.32 53.3898 246.32 51.3543V32.9257Z" fill="#8C2E0E"/>
<path d="M246.32 31.2165C246.32 29.1749 247.748 27.5198 249.509 27.5198H277.531C279.292 27.5198 280.72 29.1749 280.72 31.2165C280.72 32.6168 280.038 33.8968 278.957 34.523L265.058 42.5788C264.09 43.1401 262.95 43.1401 261.982 42.5788L248.083 34.523C247.003 33.8968 246.32 32.6168 246.32 31.2165Z" fill="#CC5229"/>
<path d="M234.793 91.8V74.3455H245.736V76.6125H237.427V81.9307H245.165V84.1893H237.427V89.533H245.839V91.8H234.793ZM249.05 91.8V78.7091H251.496V80.8398H251.657C251.93 80.1182 252.376 79.5557 252.996 79.1523C253.615 78.7432 254.356 78.5387 255.22 78.5387C256.095 78.5387 256.828 78.7432 257.419 79.1523C258.015 79.5614 258.456 80.1239 258.74 80.8398H258.876C259.189 80.141 259.686 79.5841 260.368 79.1694C261.05 78.7489 261.862 78.5387 262.805 78.5387C263.993 78.5387 264.961 78.9108 265.711 79.6552C266.467 80.3995 266.845 81.5216 266.845 83.0216V91.8H264.297V83.2603C264.297 82.3739 264.055 81.7319 263.572 81.3341C263.089 80.9364 262.513 80.7375 261.842 80.7375C261.013 80.7375 260.368 80.9932 259.907 81.5046C259.447 82.0103 259.217 82.6608 259.217 83.4563V91.8H256.677V83.0983C256.677 82.3881 256.456 81.8171 256.013 81.3853C255.569 80.9535 254.993 80.7375 254.282 80.7375C253.8 80.7375 253.354 80.8654 252.944 81.1211C252.541 81.3711 252.214 81.7205 251.964 82.1694C251.72 82.6182 251.598 83.1381 251.598 83.729V91.8H249.05ZM274.07 92.0898C273.241 92.0898 272.491 91.9364 271.82 91.6296C271.15 91.3171 270.618 90.8654 270.226 90.2745C269.84 89.6836 269.647 88.9591 269.647 88.1012C269.647 87.3625 269.789 86.7546 270.073 86.2773C270.357 85.8 270.741 85.4222 271.224 85.1438C271.706 84.8654 272.246 84.6552 272.843 84.5131C273.439 84.3711 274.047 84.2631 274.667 84.1893C275.451 84.0983 276.087 84.0245 276.576 83.9677C277.064 83.9052 277.42 83.8057 277.641 83.6694C277.863 83.533 277.974 83.3114 277.974 83.0046V82.9449C277.974 82.2006 277.763 81.6239 277.343 81.2148C276.928 80.8057 276.309 80.6012 275.485 80.6012C274.627 80.6012 273.951 80.7915 273.456 81.1722C272.968 81.5472 272.63 81.9648 272.442 82.425L270.047 81.8796C270.331 81.0841 270.746 80.4421 271.292 79.9535C271.843 79.4591 272.476 79.1012 273.192 78.8796C273.908 78.6523 274.661 78.5387 275.451 78.5387C275.974 78.5387 276.528 78.6012 277.113 78.7262C277.704 78.8455 278.255 79.0671 278.766 79.391C279.283 79.7148 279.706 80.1779 280.036 80.7802C280.366 81.3768 280.53 82.1523 280.53 83.1069V91.8H278.042V90.0103H277.939C277.775 90.3398 277.528 90.6637 277.198 90.9819C276.868 91.3 276.445 91.5643 275.928 91.7745C275.411 91.9847 274.792 92.0898 274.07 92.0898ZM274.624 90.0444C275.329 90.0444 275.931 89.9052 276.431 89.6268C276.937 89.3483 277.32 88.9847 277.581 88.5358C277.849 88.0813 277.982 87.5955 277.982 87.0785V85.391C277.891 85.4819 277.715 85.5671 277.454 85.6466C277.198 85.7205 276.905 85.7858 276.576 85.8427C276.246 85.8938 275.925 85.9421 275.613 85.9875C275.3 86.0273 275.039 86.0614 274.829 86.0898C274.334 86.1523 273.883 86.2574 273.474 86.4052C273.07 86.5529 272.746 86.766 272.502 87.0444C272.263 87.3171 272.144 87.6807 272.144 88.1353C272.144 88.766 272.377 89.2432 272.843 89.5671C273.309 89.8853 273.903 90.0444 274.624 90.0444ZM283.925 91.8V78.7091H286.473V91.8H283.925ZM285.211 76.6893C284.768 76.6893 284.388 76.5415 284.069 76.2461C283.757 75.9449 283.601 75.587 283.601 75.1722C283.601 74.7518 283.757 74.3938 284.069 74.0983C284.388 73.7972 284.768 73.6466 285.211 73.6466C285.655 73.6466 286.032 73.7972 286.345 74.0983C286.663 74.3938 286.822 74.7518 286.822 75.1722C286.822 75.587 286.663 75.9449 286.345 76.2461C286.032 76.5415 285.655 76.6893 285.211 76.6893ZM292.449 74.3455V91.8H289.901V74.3455H292.449Z" fill="#212528"/>
</g>
<g filter="url(#filter2_d_379_428)">
<rect y="134.44" width="68.8" height="68.8" rx="13.76" fill="white" shape-rendering="crispEdges"/>
<rect x="1.5" y="135.94" width="65.8" height="65.8" rx="12.26" stroke="#212528" stroke-width="3" shape-rendering="crispEdges"/>
<path d="M47.3 154.22L44.72 151.64L42.14 154.22L39.56 151.64L36.98 154.22L34.4 151.64L31.82 154.22L29.24 151.64L26.66 154.22L24.08 151.64V175.72H18.92V180.88C18.92 183.735 21.2248 186.04 24.08 186.04H44.72C47.5752 186.04 49.88 183.735 49.88 180.88V151.64L47.3 154.22ZM39.56 182.6H24.08C23.134 182.6 22.36 181.826 22.36 180.88V179.16H39.56V182.6ZM46.44 180.88C46.44 181.826 45.666 182.6 44.72 182.6C43.774 182.6 43 181.826 43 180.88V175.72H27.52V156.8H46.44V180.88Z" fill="#0080FF"/>
<path d="M39.56 160.24H29.24V163.68H39.56V160.24Z" fill="#0080FF"/>
<path d="M44.72 160.24H41.28V163.68H44.72V160.24Z" fill="#0080FF"/>
<path d="M39.56 165.4H29.24V168.84H39.56V165.4Z" fill="#0080FF"/>
<path d="M44.72 165.4H41.28V168.84H44.72V165.4Z" fill="#0080FF"/>
</g>
<g filter="url(#filter3_d_379_428)">
<rect x="89.8" y="134.44" width="254.56" height="68.8" rx="13.76" fill="white" shape-rendering="crispEdges"/>
<rect x="91.3" y="135.94" width="251.56" height="65.8" rx="12.26" stroke="#212528" stroke-width="3" shape-rendering="crispEdges"/>
<path d="M135.017 164.471C134.927 163.664 134.552 163.039 133.892 162.596C133.233 162.147 132.404 161.922 131.404 161.922C130.688 161.922 130.069 162.036 129.546 162.263C129.023 162.485 128.617 162.792 128.327 163.184C128.043 163.57 127.901 164.01 127.901 164.505C127.901 164.919 127.998 165.277 128.191 165.578C128.39 165.88 128.648 166.132 128.966 166.337C129.29 166.536 129.637 166.703 130.006 166.84C130.375 166.971 130.731 167.078 131.071 167.164L132.776 167.607C133.333 167.743 133.904 167.928 134.489 168.161C135.074 168.394 135.617 168.701 136.117 169.081C136.617 169.462 137.02 169.934 137.327 170.496C137.64 171.059 137.796 171.732 137.796 172.516C137.796 173.505 137.54 174.382 137.029 175.15C136.523 175.917 135.787 176.522 134.821 176.965C133.861 177.408 132.699 177.63 131.336 177.63C130.029 177.63 128.898 177.422 127.944 177.007C126.989 176.593 126.242 176.005 125.702 175.243C125.162 174.476 124.864 173.567 124.807 172.516H127.449C127.5 173.147 127.705 173.672 128.063 174.093C128.427 174.507 128.89 174.817 129.452 175.022C130.02 175.221 130.642 175.32 131.319 175.32C132.063 175.32 132.725 175.203 133.304 174.971C133.89 174.732 134.35 174.402 134.685 173.982C135.02 173.556 135.188 173.059 135.188 172.49C135.188 171.973 135.04 171.55 134.745 171.221C134.455 170.891 134.06 170.618 133.56 170.402C133.066 170.186 132.506 169.996 131.881 169.831L129.819 169.269C128.421 168.888 127.313 168.328 126.495 167.59C125.682 166.851 125.276 165.874 125.276 164.658C125.276 163.652 125.549 162.775 126.094 162.025C126.64 161.275 127.378 160.692 128.31 160.277C129.242 159.857 130.293 159.647 131.464 159.647C132.645 159.647 133.688 159.854 134.591 160.269C135.5 160.684 136.216 161.255 136.739 161.982C137.262 162.703 137.535 163.533 137.557 164.471H135.017ZM146.38 177.604C145.091 177.604 143.98 177.328 143.048 176.777C142.122 176.221 141.406 175.439 140.9 174.434C140.4 173.422 140.15 172.238 140.15 170.88C140.15 169.539 140.4 168.357 140.9 167.334C141.406 166.311 142.111 165.513 143.014 164.939C143.923 164.365 144.986 164.078 146.201 164.078C146.94 164.078 147.656 164.201 148.349 164.445C149.042 164.689 149.665 165.073 150.216 165.596C150.767 166.118 151.201 166.797 151.52 167.632C151.838 168.462 151.997 169.471 151.997 170.658V171.561H141.591V169.652H149.5C149.5 168.982 149.363 168.388 149.091 167.871C148.818 167.348 148.434 166.936 147.94 166.635C147.451 166.334 146.878 166.184 146.218 166.184C145.503 166.184 144.878 166.36 144.343 166.712C143.815 167.059 143.406 167.513 143.116 168.076C142.832 168.632 142.69 169.238 142.69 169.891V171.382C142.69 172.257 142.843 173.002 143.15 173.615C143.463 174.229 143.897 174.698 144.454 175.022C145.011 175.34 145.662 175.499 146.406 175.499C146.889 175.499 147.329 175.431 147.727 175.294C148.125 175.152 148.468 174.942 148.758 174.664C149.048 174.385 149.27 174.042 149.423 173.632L151.835 174.067C151.642 174.777 151.295 175.4 150.795 175.934C150.301 176.462 149.679 176.874 148.929 177.169C148.184 177.459 147.335 177.604 146.38 177.604ZM157.373 169.567V177.34H154.824V164.249H157.27V166.38H157.432C157.733 165.686 158.205 165.13 158.847 164.709C159.495 164.289 160.31 164.078 161.293 164.078C162.185 164.078 162.966 164.266 163.637 164.641C164.307 165.01 164.827 165.561 165.196 166.294C165.566 167.027 165.75 167.934 165.75 169.013V177.34H163.202V169.32C163.202 168.371 162.955 167.63 162.461 167.096C161.966 166.556 161.287 166.286 160.424 166.286C159.833 166.286 159.307 166.414 158.847 166.669C158.392 166.925 158.032 167.3 157.765 167.794C157.503 168.283 157.373 168.874 157.373 169.567ZM174.069 177.596C173.012 177.596 172.069 177.326 171.239 176.786C170.415 176.24 169.767 175.465 169.296 174.459C168.83 173.448 168.597 172.235 168.597 170.82C168.597 169.405 168.833 168.195 169.304 167.189C169.782 166.184 170.435 165.414 171.265 164.88C172.094 164.346 173.035 164.078 174.086 164.078C174.898 164.078 175.552 164.215 176.046 164.488C176.546 164.755 176.932 165.067 177.205 165.425C177.483 165.783 177.699 166.098 177.853 166.371H178.006V159.885H180.554V177.34H178.066V175.303H177.853C177.699 175.581 177.478 175.9 177.188 176.257C176.904 176.615 176.512 176.928 176.012 177.195C175.512 177.462 174.864 177.596 174.069 177.596ZM174.631 175.422C175.364 175.422 175.983 175.229 176.489 174.843C177 174.451 177.387 173.908 177.648 173.215C177.915 172.522 178.049 171.715 178.049 170.794C178.049 169.885 177.918 169.09 177.657 168.408C177.395 167.726 177.012 167.195 176.506 166.814C176 166.434 175.375 166.243 174.631 166.243C173.864 166.243 173.225 166.442 172.714 166.84C172.202 167.238 171.816 167.78 171.554 168.468C171.299 169.155 171.171 169.931 171.171 170.794C171.171 171.669 171.302 172.456 171.563 173.155C171.824 173.854 172.211 174.408 172.722 174.817C173.239 175.221 173.875 175.422 174.631 175.422ZM193.381 159.885V177.34H190.748V159.885H193.381ZM199.56 169.567V177.34H197.012V164.249H199.458V166.38H199.62C199.921 165.686 200.392 165.13 201.035 164.709C201.682 164.289 202.498 164.078 203.481 164.078C204.373 164.078 205.154 164.266 205.824 164.641C206.495 165.01 207.015 165.561 207.384 166.294C207.753 167.027 207.938 167.934 207.938 169.013V177.34H205.39V169.32C205.39 168.371 205.142 167.63 204.648 167.096C204.154 166.556 203.475 166.286 202.611 166.286C202.02 166.286 201.495 166.414 201.035 166.669C200.58 166.925 200.219 167.3 199.952 167.794C199.691 168.283 199.56 168.874 199.56 169.567ZM222.086 164.249L217.339 177.34H214.611L209.856 164.249H212.591L215.907 174.323H216.043L219.35 164.249H222.086ZM229.549 177.604C228.322 177.604 227.251 177.323 226.336 176.76C225.422 176.198 224.711 175.411 224.206 174.4C223.7 173.388 223.447 172.206 223.447 170.854C223.447 169.496 223.7 168.309 224.206 167.292C224.711 166.275 225.422 165.485 226.336 164.922C227.251 164.36 228.322 164.078 229.549 164.078C230.777 164.078 231.848 164.36 232.763 164.922C233.677 165.485 234.388 166.275 234.893 167.292C235.399 168.309 235.652 169.496 235.652 170.854C235.652 172.206 235.399 173.388 234.893 174.4C234.388 175.411 233.677 176.198 232.763 176.76C231.848 177.323 230.777 177.604 229.549 177.604ZM229.558 175.465C230.353 175.465 231.013 175.255 231.535 174.834C232.058 174.414 232.444 173.854 232.694 173.155C232.95 172.456 233.078 171.686 233.078 170.846C233.078 170.01 232.95 169.243 232.694 168.544C232.444 167.84 232.058 167.275 231.535 166.848C231.013 166.422 230.353 166.209 229.558 166.209C228.757 166.209 228.092 166.422 227.564 166.848C227.041 167.275 226.652 167.84 226.396 168.544C226.146 169.243 226.021 170.01 226.021 170.846C226.021 171.686 226.146 172.456 226.396 173.155C226.652 173.854 227.041 174.414 227.564 174.834C228.092 175.255 228.757 175.465 229.558 175.465ZM238.496 177.34V164.249H241.044V177.34H238.496ZM239.783 162.229C239.34 162.229 238.959 162.081 238.641 161.786C238.329 161.485 238.172 161.127 238.172 160.712C238.172 160.292 238.329 159.934 238.641 159.638C238.959 159.337 239.34 159.186 239.783 159.186C240.226 159.186 240.604 159.337 240.917 159.638C241.235 159.934 241.394 160.292 241.394 160.712C241.394 161.127 241.235 161.485 240.917 161.786C240.604 162.081 240.226 162.229 239.783 162.229ZM249.987 177.604C248.72 177.604 247.629 177.317 246.714 176.743C245.805 176.164 245.106 175.365 244.618 174.348C244.129 173.331 243.885 172.167 243.885 170.854C243.885 169.525 244.135 168.351 244.635 167.334C245.135 166.311 245.839 165.513 246.748 164.939C247.657 164.365 248.728 164.078 249.961 164.078C250.956 164.078 251.842 164.263 252.62 164.632C253.399 164.996 254.027 165.507 254.504 166.167C254.987 166.826 255.274 167.596 255.365 168.476H252.885C252.748 167.863 252.436 167.334 251.947 166.891C251.464 166.448 250.816 166.226 250.004 166.226C249.294 166.226 248.672 166.414 248.138 166.789C247.609 167.158 247.197 167.686 246.902 168.374C246.606 169.056 246.459 169.863 246.459 170.794C246.459 171.749 246.603 172.573 246.893 173.266C247.183 173.959 247.592 174.496 248.12 174.877C248.655 175.257 249.282 175.448 250.004 175.448C250.487 175.448 250.924 175.36 251.316 175.184C251.714 175.002 252.047 174.743 252.314 174.408C252.586 174.073 252.777 173.669 252.885 173.198H255.365C255.274 174.044 254.998 174.8 254.538 175.465C254.078 176.13 253.461 176.652 252.689 177.033C251.922 177.414 251.021 177.604 249.987 177.604ZM263.732 177.604C262.442 177.604 261.331 177.328 260.4 176.777C259.473 176.221 258.758 175.439 258.252 174.434C257.752 173.422 257.502 172.238 257.502 170.88C257.502 169.539 257.752 168.357 258.252 167.334C258.758 166.311 259.462 165.513 260.365 164.939C261.275 164.365 262.337 164.078 263.553 164.078C264.292 164.078 265.008 164.201 265.701 164.445C266.394 164.689 267.016 165.073 267.567 165.596C268.118 166.118 268.553 166.797 268.871 167.632C269.189 168.462 269.348 169.471 269.348 170.658V171.561H258.942V169.652H266.851C266.851 168.982 266.715 168.388 266.442 167.871C266.169 167.348 265.786 166.936 265.292 166.635C264.803 166.334 264.229 166.184 263.57 166.184C262.854 166.184 262.229 166.36 261.695 166.712C261.167 167.059 260.758 167.513 260.468 168.076C260.184 168.632 260.042 169.238 260.042 169.891V171.382C260.042 172.257 260.195 173.002 260.502 173.615C260.814 174.229 261.249 174.698 261.806 175.022C262.363 175.34 263.013 175.499 263.758 175.499C264.24 175.499 264.681 175.431 265.079 175.294C265.476 175.152 265.82 174.942 266.11 174.664C266.4 174.385 266.621 174.042 266.775 173.632L269.187 174.067C268.993 174.777 268.647 175.4 268.147 175.934C267.652 176.462 267.03 176.874 266.28 177.169C265.536 177.459 264.687 177.604 263.732 177.604ZM289.726 164.249L284.979 177.34H282.252L277.496 164.249H280.232L283.547 174.323H283.684L286.99 164.249H289.726ZM292.121 177.34V164.249H294.669V177.34H292.121ZM293.408 162.229C292.965 162.229 292.584 162.081 292.266 161.786C291.954 161.485 291.797 161.127 291.797 160.712C291.797 160.292 291.954 159.934 292.266 159.638C292.584 159.337 292.965 159.186 293.408 159.186C293.851 159.186 294.229 159.337 294.542 159.638C294.86 159.934 295.019 160.292 295.019 160.712C295.019 161.127 294.86 161.485 294.542 161.786C294.229 162.081 293.851 162.229 293.408 162.229ZM301.907 177.63C301.078 177.63 300.328 177.476 299.657 177.169C298.987 176.857 298.456 176.405 298.064 175.814C297.677 175.223 297.484 174.499 297.484 173.641C297.484 172.902 297.626 172.294 297.91 171.817C298.194 171.34 298.578 170.962 299.061 170.684C299.544 170.405 300.084 170.195 300.68 170.053C301.277 169.911 301.885 169.803 302.504 169.729C303.288 169.638 303.924 169.564 304.413 169.507C304.902 169.445 305.257 169.346 305.478 169.209C305.7 169.073 305.811 168.851 305.811 168.544V168.485C305.811 167.74 305.601 167.164 305.18 166.755C304.765 166.346 304.146 166.141 303.322 166.141C302.464 166.141 301.788 166.331 301.294 166.712C300.805 167.087 300.467 167.505 300.28 167.965L297.885 167.419C298.169 166.624 298.584 165.982 299.129 165.493C299.68 164.999 300.314 164.641 301.03 164.419C301.745 164.192 302.498 164.078 303.288 164.078C303.811 164.078 304.365 164.141 304.95 164.266C305.541 164.385 306.092 164.607 306.603 164.931C307.12 165.255 307.544 165.718 307.873 166.32C308.203 166.917 308.368 167.692 308.368 168.647V177.34H305.879V175.55H305.777C305.612 175.88 305.365 176.203 305.035 176.522C304.706 176.84 304.282 177.104 303.765 177.314C303.248 177.525 302.629 177.63 301.907 177.63ZM302.461 175.584C303.166 175.584 303.768 175.445 304.268 175.167C304.774 174.888 305.157 174.525 305.419 174.076C305.686 173.621 305.819 173.135 305.819 172.618V170.931C305.728 171.022 305.552 171.107 305.291 171.186C305.035 171.26 304.743 171.326 304.413 171.382C304.084 171.434 303.763 171.482 303.45 171.527C303.138 171.567 302.876 171.601 302.666 171.63C302.172 171.692 301.72 171.797 301.311 171.945C300.907 172.093 300.584 172.306 300.339 172.584C300.101 172.857 299.981 173.221 299.981 173.675C299.981 174.306 300.214 174.783 300.68 175.107C301.146 175.425 301.74 175.584 302.461 175.584Z" fill="#212528"/>
</g>
<g filter="url(#filter4_d_379_428)">
<rect y="219.24" width="344.36" height="82.56" rx="13.76" fill="white" shape-rendering="crispEdges"/>
<rect x="1.5" y="220.74" width="341.36" height="79.56" rx="12.26" stroke="#212528" stroke-width="3" shape-rendering="crispEdges"/>
<path fill-rule="evenodd" clip-rule="evenodd" d="M94.2106 269.754L91.7979 278.58L100.794 276.205C103.274 277.573 106.06 278.289 108.892 278.285C118.233 278.285 125.831 270.638 125.831 261.241C125.831 256.681 124.074 252.398 120.869 249.173C117.663 245.948 113.407 244.18 108.875 244.18C99.5351 244.18 91.9358 251.826 91.9536 261.241C91.949 264.227 92.7272 267.163 94.2106 269.754ZM101.708 273.448L101.191 273.135L101.189 273.136L95.8297 274.558L97.2603 269.322L96.9329 268.784C95.5192 266.53 94.7781 263.912 94.7781 261.242C94.7781 253.44 101.103 247.076 108.874 247.076C112.631 247.076 116.181 248.567 118.837 251.236C121.491 253.907 122.955 257.478 122.955 261.258C122.955 269.06 116.631 275.424 108.876 275.424C106.353 275.422 103.876 274.739 101.708 273.448Z" fill="#C1C5C8"/>
<path fill-rule="evenodd" clip-rule="evenodd" d="M94.2106 268.035L91.7979 276.86L100.794 274.485C103.274 275.853 106.06 276.569 108.892 276.565C118.233 276.565 125.831 268.918 125.831 259.521C125.831 254.961 124.074 250.678 120.869 247.453C117.663 244.228 113.407 242.46 108.875 242.46C99.5351 242.46 91.9358 250.106 91.9536 259.521C91.949 262.507 92.7272 265.443 94.2106 268.035ZM101.708 271.728L101.191 271.415L101.189 271.416L95.8297 272.838L97.2603 267.602L96.9329 267.064C95.5192 264.81 94.7781 262.192 94.7781 259.522C94.7781 251.72 101.103 245.356 108.874 245.356C112.631 245.356 116.181 246.847 118.837 249.516C121.491 252.187 122.955 255.758 122.955 259.539C122.955 267.34 116.631 273.704 108.876 273.704C106.353 273.702 103.876 273.02 101.708 271.728Z" fill="url(#paint0_linear_379_428)"/>
<path d="M101.191 271.415L101.708 271.728C103.876 273.019 106.353 273.702 108.877 273.704C116.631 273.704 122.955 267.34 122.955 259.538C122.955 255.758 121.491 252.187 118.837 249.516C116.182 246.847 112.632 245.356 108.875 245.356C101.103 245.356 94.7785 251.72 94.7785 259.521C94.7785 262.192 95.5196 264.81 96.9332 267.064L97.2606 267.602L95.8301 272.838L101.189 271.416L101.191 271.415Z" fill="url(#paint1_linear_379_428)"/>
<path fill-rule="evenodd" clip-rule="evenodd" d="M104.653 252.377C104.344 251.666 103.998 251.649 103.706 251.649C103.447 251.632 103.171 251.632 102.878 251.632C102.603 251.632 102.137 251.736 101.741 252.169C101.345 252.602 100.259 253.626 100.259 255.724C100.259 257.822 101.776 259.851 101.983 260.128C102.189 260.405 104.912 264.844 109.22 266.561C112.804 267.982 113.528 267.705 114.304 267.618C115.079 267.532 116.802 266.596 117.164 265.589C117.509 264.601 117.509 263.735 117.405 263.561C117.302 263.387 117.009 263.283 116.595 263.058C116.164 262.85 114.097 261.811 113.7 261.671C113.304 261.532 113.028 261.463 112.753 261.879C112.477 262.312 111.667 263.266 111.408 263.543C111.167 263.821 110.909 263.856 110.496 263.647C110.064 263.44 108.704 262.989 107.083 261.532C105.826 260.405 104.982 259.001 104.723 258.585C104.482 258.151 104.688 257.926 104.912 257.718C105.102 257.527 105.344 257.215 105.55 256.972C105.756 256.729 105.825 256.539 105.981 256.261C106.118 255.984 106.049 255.723 105.946 255.516C105.843 255.325 105.032 253.227 104.653 252.377Z" fill="white"/>
<path d="M141.806 269.02L136.965 251.565H139.735L143.136 265.083H143.298L146.835 251.565H149.579L153.116 265.091H153.278L156.67 251.565H159.448L154.599 269.02H151.948L148.275 255.946H148.139L144.465 269.02H141.806ZM164.193 261.247V269.02H161.645V251.565H164.159V258.06H164.321C164.628 257.355 165.097 256.796 165.727 256.381C166.358 255.966 167.182 255.759 168.199 255.759C169.097 255.759 169.881 255.943 170.551 256.313C171.227 256.682 171.75 257.233 172.119 257.966C172.494 258.693 172.682 259.602 172.682 260.693V269.02H170.134V261C170.134 260.04 169.886 259.296 169.392 258.767C168.898 258.233 168.21 257.966 167.33 257.966C166.727 257.966 166.188 258.094 165.71 258.35C165.239 258.605 164.867 258.98 164.594 259.475C164.327 259.963 164.193 260.554 164.193 261.247ZM179.892 269.31C179.063 269.31 178.313 269.156 177.642 268.85C176.972 268.537 176.44 268.085 176.048 267.494C175.662 266.904 175.469 266.179 175.469 265.321C175.469 264.583 175.611 263.975 175.895 263.497C176.179 263.02 176.563 262.642 177.046 262.364C177.529 262.085 178.068 261.875 178.665 261.733C179.261 261.591 179.869 261.483 180.489 261.409C181.273 261.318 181.909 261.244 182.398 261.188C182.886 261.125 183.242 261.026 183.463 260.889C183.685 260.753 183.796 260.531 183.796 260.225V260.165C183.796 259.421 183.585 258.844 183.165 258.435C182.75 258.026 182.131 257.821 181.307 257.821C180.449 257.821 179.773 258.011 179.279 258.392C178.79 258.767 178.452 259.185 178.264 259.645L175.869 259.1C176.154 258.304 176.568 257.662 177.114 257.173C177.665 256.679 178.298 256.321 179.014 256.1C179.73 255.872 180.483 255.759 181.273 255.759C181.796 255.759 182.35 255.821 182.935 255.946C183.526 256.065 184.077 256.287 184.588 256.611C185.105 256.935 185.529 257.398 185.858 258C186.188 258.597 186.352 259.372 186.352 260.327V269.02H183.864V267.23H183.761C183.597 267.56 183.35 267.884 183.02 268.202C182.69 268.52 182.267 268.784 181.75 268.994C181.233 269.205 180.614 269.31 179.892 269.31ZM180.446 267.264C181.151 267.264 181.753 267.125 182.253 266.847C182.759 266.568 183.142 266.205 183.404 265.756C183.671 265.301 183.804 264.815 183.804 264.298V262.611C183.713 262.702 183.537 262.787 183.276 262.867C183.02 262.94 182.727 263.006 182.398 263.063C182.068 263.114 181.747 263.162 181.435 263.208C181.122 263.247 180.861 263.281 180.651 263.31C180.156 263.372 179.705 263.477 179.296 263.625C178.892 263.773 178.568 263.986 178.324 264.264C178.085 264.537 177.966 264.901 177.966 265.355C177.966 265.986 178.199 266.463 178.665 266.787C179.131 267.105 179.725 267.264 180.446 267.264ZM195.857 255.929V257.975H188.707V255.929H195.857ZM190.624 252.793H193.173V265.176C193.173 265.671 193.247 266.043 193.394 266.293C193.542 266.537 193.732 266.705 193.965 266.796C194.204 266.881 194.462 266.923 194.741 266.923C194.945 266.923 195.124 266.909 195.278 266.881C195.431 266.852 195.551 266.83 195.636 266.813L196.096 268.918C195.948 268.975 195.738 269.031 195.465 269.088C195.193 269.151 194.852 269.185 194.443 269.19C193.772 269.202 193.147 269.083 192.568 268.833C191.988 268.583 191.519 268.196 191.161 267.673C190.803 267.151 190.624 266.494 190.624 265.705V252.793ZM208.275 259.125L205.965 259.534C205.869 259.239 205.715 258.958 205.505 258.69C205.301 258.423 205.022 258.205 204.67 258.034C204.318 257.864 203.877 257.779 203.349 257.779C202.627 257.779 202.025 257.94 201.542 258.264C201.059 258.583 200.818 258.994 200.818 259.5C200.818 259.938 200.98 260.29 201.303 260.557C201.627 260.824 202.15 261.043 202.872 261.213L204.951 261.69C206.156 261.969 207.053 262.398 207.644 262.977C208.235 263.557 208.531 264.31 208.531 265.236C208.531 266.02 208.303 266.719 207.849 267.333C207.4 267.94 206.772 268.418 205.965 268.764C205.164 269.111 204.235 269.284 203.178 269.284C201.712 269.284 200.516 268.972 199.59 268.347C198.664 267.716 198.096 266.821 197.886 265.662L200.349 265.287C200.502 265.929 200.818 266.415 201.295 266.744C201.772 267.068 202.394 267.23 203.161 267.23C203.997 267.23 204.664 267.057 205.164 266.71C205.664 266.358 205.914 265.929 205.914 265.423C205.914 265.014 205.761 264.671 205.454 264.392C205.153 264.114 204.69 263.904 204.065 263.761L201.849 263.276C200.627 262.997 199.724 262.554 199.139 261.946C198.559 261.338 198.269 260.568 198.269 259.636C198.269 258.864 198.485 258.188 198.917 257.608C199.349 257.029 199.945 256.577 200.707 256.253C201.468 255.923 202.34 255.759 203.323 255.759C204.738 255.759 205.852 256.065 206.664 256.679C207.477 257.287 208.014 258.102 208.275 259.125ZM213.011 269.02H210.216L216.497 251.565H219.54L225.821 269.02H223.026L218.091 254.736H217.955L213.011 269.02ZM213.48 262.185H222.548V264.401H213.48V262.185ZM228.137 273.929V255.929H230.626V258.051H230.839C230.987 257.779 231.2 257.463 231.478 257.105C231.756 256.747 232.143 256.435 232.637 256.168C233.131 255.895 233.785 255.759 234.597 255.759C235.654 255.759 236.597 256.026 237.427 256.56C238.256 257.094 238.907 257.864 239.379 258.869C239.856 259.875 240.095 261.085 240.095 262.5C240.095 263.915 239.859 265.128 239.387 266.139C238.916 267.145 238.268 267.921 237.444 268.466C236.62 269.006 235.68 269.276 234.623 269.276C233.828 269.276 233.177 269.142 232.671 268.875C232.171 268.608 231.779 268.296 231.495 267.938C231.211 267.58 230.992 267.261 230.839 266.983H230.685V273.929H228.137ZM230.634 262.475C230.634 263.395 230.768 264.202 231.035 264.895C231.302 265.588 231.688 266.131 232.194 266.523C232.7 266.909 233.319 267.102 234.052 267.102C234.813 267.102 235.45 266.901 235.961 266.497C236.472 266.088 236.859 265.534 237.12 264.835C237.387 264.136 237.521 263.35 237.521 262.475C237.521 261.611 237.39 260.835 237.129 260.148C236.873 259.46 236.487 258.918 235.97 258.52C235.458 258.122 234.819 257.923 234.052 257.923C233.313 257.923 232.688 258.114 232.177 258.494C231.671 258.875 231.288 259.406 231.026 260.088C230.765 260.77 230.634 261.565 230.634 262.475ZM242.95 273.929V255.929H245.438V258.051H245.651C245.799 257.779 246.012 257.463 246.291 257.105C246.569 256.747 246.955 256.435 247.45 256.168C247.944 255.895 248.597 255.759 249.41 255.759C250.467 255.759 251.41 256.026 252.239 256.56C253.069 257.094 253.72 257.864 254.191 258.869C254.668 259.875 254.907 261.085 254.907 262.5C254.907 263.915 254.671 265.128 254.2 266.139C253.728 267.145 253.08 267.921 252.256 268.466C251.433 269.006 250.492 269.276 249.435 269.276C248.64 269.276 247.989 269.142 247.484 268.875C246.984 268.608 246.592 268.296 246.308 267.938C246.024 267.58 245.805 267.261 245.651 266.983H245.498V273.929H242.95ZM245.447 262.475C245.447 263.395 245.58 264.202 245.847 264.895C246.114 265.588 246.501 266.131 247.006 266.523C247.512 266.909 248.131 267.102 248.864 267.102C249.626 267.102 250.262 266.901 250.774 266.497C251.285 266.088 251.671 265.534 251.933 264.835C252.2 264.136 252.333 263.35 252.333 262.475C252.333 261.611 252.203 260.835 251.941 260.148C251.685 259.46 251.299 258.918 250.782 258.52C250.271 258.122 249.631 257.923 248.864 257.923C248.126 257.923 247.501 258.114 246.989 258.494C246.484 258.875 246.1 259.406 245.839 260.088C245.578 260.77 245.447 261.565 245.447 262.475Z" fill="#212528"/>
</g>
<defs>
<filter id="filter0_d_379_428" x="0" y="0" width="165.12" height="121.88" filterUnits="userSpaceOnUse" color-interpolation-filters="sRGB">
<feFlood flood-opacity="0" result="BackgroundImageFix"/>
<feColorMatrix in="SourceAlpha" type="matrix" values="0 0 0 0 0 0 0 0 0 0 0 0 0 0 0 0 0 0 127 0" result="hardAlpha"/>
<feOffset dx="3.44" dy="3.44"/>
<feComposite in2="hardAlpha" operator="out"/>
<feColorMatrix type="matrix" values="0 0 0 0 0.667568 0 0 0 0 0.8 0 0 0 0 0.932432 0 0 0 1 0"/>
<feBlend mode="normal" in2="BackgroundImageFix" result="effect1_dropShadow_379_428"/>
<feBlend mode="normal" in="SourceGraphic" in2="effect1_dropShadow_379_428" result="shape"/>
</filter>
<filter id="filter1_d_379_428" x="182.68" y="0" width="165.12" height="121.88" filterUnits="userSpaceOnUse" color-interpolation-filters="sRGB">
<feFlood flood-opacity="0" result="BackgroundImageFix"/>
<feColorMatrix in="SourceAlpha" type="matrix" values="0 0 0 0 0 0 0 0 0 0 0 0 0 0 0 0 0 0 127 0" result="hardAlpha"/>
<feOffset dx="3.44" dy="3.44"/>
<feComposite in2="hardAlpha" operator="out"/>
<feColorMatrix type="matrix" values="0 0 0 0 0.932432 0 0 0 0 0.842378 0 0 0 0 0.667568 0 0 0 1 0"/>
<feBlend mode="normal" in2="BackgroundImageFix" result="effect1_dropShadow_379_428"/>
<feBlend mode="normal" in="SourceGraphic" in2="effect1_dropShadow_379_428" result="shape"/>
</filter>
<filter id="filter2_d_379_428" x="0" y="134.44" width="72.24" height="72.24" filterUnits="userSpaceOnUse" color-interpolation-filters="sRGB">
<feFlood flood-opacity="0" result="BackgroundImageFix"/>
<feColorMatrix in="SourceAlpha" type="matrix" values="0 0 0 0 0 0 0 0 0 0 0 0 0 0 0 0 0 0 127 0" result="hardAlpha"/>
<feOffset dx="3.44" dy="3.44"/>
<feComposite in2="hardAlpha" operator="out"/>
<feColorMatrix type="matrix" values="0 0 0 0 0.690435 0 0 0 0 0.909565 0 0 0 0 0.713043 0 0 0 1 0"/>
<feBlend mode="normal" in2="BackgroundImageFix" result="effect1_dropShadow_379_428"/>
<feBlend mode="normal" in="SourceGraphic" in2="effect1_dropShadow_379_428" result="shape"/>
</filter>
<filter id="filter3_d_379_428" x="89.8" y="134.44" width="258" height="72.24" filterUnits="userSpaceOnUse" color-interpolation-filters="sRGB">
<feFlood flood-opacity="0" result="BackgroundImageFix"/>
<feColorMatrix in="SourceAlpha" type="matrix" values="0 0 0 0 0 0 0 0 0 0 0 0 0 0 0 0 0 0 127 0" result="hardAlpha"/>
<feOffset dx="3.44" dy="3.44"/>
<feComposite in2="hardAlpha" operator="out"/>
<feColorMatrix type="matrix" values="0 0 0 0 0.690435 0 0 0 0 0.909565 0 0 0 0 0.713043 0 0 0 1 0"/>
<feBlend mode="normal" in2="BackgroundImageFix" result="effect1_dropShadow_379_428"/>
<feBlend mode="normal" in="SourceGraphic" in2="effect1_dropShadow_379_428" result="shape"/>
</filter>
<filter id="filter4_d_379_428" x="0" y="219.24" width="347.8" height="86.0001" filterUnits="userSpaceOnUse" color-interpolation-filters="sRGB">
<feFlood flood-opacity="0" result="BackgroundImageFix"/>
<feColorMatrix in="SourceAlpha" type="matrix" values="0 0 0 0 0 0 0 0 0 0 0 0 0 0 0 0 0 0 127 0" result="hardAlpha"/>
<feOffset dx="3.44" dy="3.44"/>
<feComposite in2="hardAlpha" operator="out"/>
<feColorMatrix type="matrix" values="0 0 0 0 0.932432 0 0 0 0 0.842378 0 0 0 0 0.667568 0 0 0 1 0"/>
<feBlend mode="normal" in2="BackgroundImageFix" result="effect1_dropShadow_379_428"/>
<feBlend mode="normal" in="SourceGraphic" in2="effect1_dropShadow_379_428" result="shape"/>
</filter>
<linearGradient id="paint0_linear_379_428" x1="108.812" y1="276.864" x2="108.812" y2="242.465" gradientUnits="userSpaceOnUse">
<stop stop-color="#F9F9F9"/>
<stop offset="1" stop-color="white"/>
</linearGradient>
<linearGradient id="paint1_linear_379_428" x1="108.811" y1="276.268" x2="108.811" y2="243.06" gradientUnits="userSpaceOnUse">
<stop stop-color="#20B038"/>
<stop offset="1" stop-color="#60D66A"/>
</linearGradient>
</defs>
</svg>
