<?xml version="1.0" encoding="UTF-8"?>
<!DOCTYPE svg PUBLIC "-//W3C//DTD SVG 1.1//EN" "http://www.w3.org/Graphics/SVG/1.1/DTD/svg11.dtd">
<!-- Creator: CorelDRAW X8 -->
<svg xmlns="http://www.w3.org/2000/svg" xml:space="preserve" width="3.95162in" height="3in" version="1.1" style="shape-rendering:geometricPrecision; text-rendering:geometricPrecision; image-rendering:optimizeQuality; fill-rule:evenodd; clip-rule:evenodd"
viewBox="0 0 2980 2263"
 xmlns:xlink="http://www.w3.org/1999/xlink">
 <defs>
  <style type="text/css">
   <![CDATA[
    .fil1 {fill:#FEFEFE}
    .fil5 {fill:#606062}
    .fil0 {fill:#1A237E}
    .fil4 {fill:#606062;fill-rule:nonzero}
    .fil3 {fill:#373435;fill-rule:nonzero}
    .fil2 {fill:#1A237E;fill-rule:nonzero}
   ]]>
  </style>
 </defs>
 <g id="Layer_x0020_1">
  <metadata id="CorelCorpID_0Corel-Layer"/>
  <g id="_2490672762768">
   <g>
    <rect class="fil0" y="279" width="1431" height="1984"/>
    <rect class="fil1" x="43" y="323" width="1345" height="1897"/>
   </g>
   <polygon class="fil2" points="190,642 157,551 177,551 200,618 222,551 242,551 209,642 "/>
   <path id="1" class="fil2" d="M249 567l0 -16 17 0 0 16 -17 0zm0 75l0 -66 17 0 0 66 -17 0z"/>
   <path id="2" class="fil2" d="M322 621l17 3c-2,6 -6,11 -10,14 -5,4 -11,5 -18,5 -12,0 -20,-3 -26,-11 -4,-6 -6,-13 -6,-23 0,-10 3,-19 8,-25 6,-6 13,-9 22,-9 10,0 17,3 23,9 6,7 8,17 8,30l-43 0c0,5 1,9 4,12 2,3 6,4 10,4 2,0 5,0 7,-2 1,-1 3,-4 4,-7zm1 -18c0,-5 -2,-9 -4,-11 -3,-3 -6,-4 -9,-4 -4,0 -7,1 -10,4 -2,3 -3,7 -3,11l26 0z"/>
   <polygon id="3" class="fil2" points="366,642 346,576 362,576 375,619 386,576 403,576 414,619 426,576 444,576 422,642 406,642 394,599 383,642 "/>
   <path id="4" class="fil2" d="M484 597c0,-9 2,-17 4,-23 3,-5 5,-9 9,-13 3,-4 7,-6 12,-8 5,-2 12,-4 19,-4 14,0 24,5 32,13 8,8 12,20 12,34 0,15 -4,27 -12,35 -8,8 -18,12 -32,12 -13,0 -24,-4 -32,-12 -8,-8 -12,-20 -12,-34zm19 -1c0,11 3,18 7,24 5,5 11,8 18,8 8,0 14,-3 18,-8 5,-6 8,-13 8,-24 0,-10 -3,-18 -7,-23 -5,-5 -11,-8 -19,-8 -7,0 -13,3 -18,8 -4,5 -7,13 -7,23z"/>
   <path id="5" class="fil2" d="M646 642l-17 0 0 -34c0,-7 0,-11 -1,-14 -1,-2 -2,-3 -4,-4 -1,-2 -3,-2 -6,-2 -3,0 -6,1 -8,2 -2,2 -4,4 -5,7 -1,3 -1,8 -1,15l0 30 -18 0 0 -66 16 0 0 10c6,-8 13,-11 22,-11 4,0 8,0 11,2 3,1 5,3 7,5 2,2 3,4 3,7 1,3 1,7 1,12l0 41z"/>
   <polygon id="6" class="fil2" points="664,642 664,551 681,551 681,642 "/>
   <path id="7" class="fil2" d="M691 576l18 0 16 47 16 -47 17 0 -23 63 -4 12c-1,4 -3,6 -4,8 -2,2 -3,4 -5,5 -2,2 -4,3 -7,3 -2,1 -5,1 -9,1 -3,0 -6,0 -9,-1l-2 -13c3,0 5,1 7,1 4,0 7,-2 9,-4 2,-2 4,-5 5,-9l-25 -66z"/>
   <polygon class="fil3" points="1086,626 1086,517 1100,517 1100,626 "/>
   <path id="1" class="fil3" d="M1124 626l0 -79 12 0 0 11c6,-9 14,-13 25,-13 5,0 9,1 13,3 4,1 7,4 9,6 2,3 4,6 4,10 1,3 1,7 1,13l0 49 -13 0 0 -48c0,-6 -1,-10 -2,-12 -1,-3 -3,-5 -5,-7 -3,-1 -6,-2 -10,-2 -5,0 -10,2 -14,5 -5,4 -7,11 -7,21l0 43 -13 0z"/>
   <path id="2" class="fil3" d="M1230 626l-30 -79 15 0 17 47c1,5 3,10 5,16 1,-4 3,-9 5,-15l17 -48 14 0 -30 79 -13 0z"/>
   <path id="3" class="fil3" d="M1338 600l14 2c-2,8 -6,14 -12,19 -6,4 -13,6 -22,6 -12,0 -21,-3 -28,-10 -6,-7 -10,-17 -10,-30 0,-13 4,-24 10,-31 7,-7 16,-11 27,-11 11,0 19,4 26,11 6,7 10,17 10,30 0,1 0,2 0,4l-59 0c0,8 3,15 7,20 5,4 10,6 17,6 5,0 9,-1 12,-3 4,-3 6,-7 8,-13zm-43 -21l44 0c-1,-7 -3,-12 -5,-15 -5,-5 -10,-8 -17,-8 -6,0 -11,2 -15,6 -5,4 -7,10 -7,17z"/>
   <path id="4" class="fil3" d="M1369 626l0 -79 12 0 0 11c6,-9 14,-13 25,-13 5,0 9,1 13,3 4,1 7,4 9,6 2,3 4,6 5,10 0,3 0,7 0,13l0 49 -13 0 0 -48c0,-6 -1,-10 -2,-12 -1,-3 -3,-5 -5,-7 -3,-1 -6,-2 -10,-2 -5,0 -10,2 -14,5 -4,4 -6,11 -6,21l0 43 -14 0z"/>
   <path id="5" class="fil3" d="M1483 614l2 12c-4,0 -7,1 -10,1 -5,0 -9,-1 -12,-2 -2,-2 -4,-4 -5,-7 -1,-2 -2,-7 -2,-15l0 -46 -10 0 0 -10 10 0 0 -20 13 -8 0 28 14 0 0 10 -14 0 0 46c0,4 1,7 1,8 1,1 1,2 2,2 2,1 3,1 5,1 1,0 3,0 6,0z"/>
   <path id="6" class="fil3" d="M1491 586c0,-14 4,-25 12,-32 7,-6 15,-9 25,-9 11,0 20,4 27,11 6,7 10,17 10,29 0,10 -2,18 -5,24 -3,6 -7,10 -13,14 -6,3 -12,4 -19,4 -11,0 -20,-3 -27,-10 -7,-7 -10,-17 -10,-31zm14 0c0,10 2,18 6,23 5,5 10,7 17,7 7,0 12,-2 17,-7 4,-5 6,-13 6,-23 0,-10 -2,-17 -6,-22 -5,-5 -10,-8 -17,-8 -7,0 -12,3 -17,8 -4,5 -6,12 -6,22z"/>
   <path id="7" class="fil3" d="M1580 626l0 -79 12 0 0 12c4,-6 6,-9 9,-11 3,-2 5,-3 9,-3 4,0 9,2 13,4l-4 13c-4,-2 -7,-3 -10,-3 -3,0 -6,1 -8,3 -2,1 -4,4 -5,7 -1,5 -2,10 -2,16l0 41 -14 0z"/>
   <path id="8" class="fil3" d="M1631 656l-2 -12c3,1 6,1 8,1 3,0 5,-1 7,-2 2,-1 3,-2 4,-4 1,-1 3,-4 4,-10 1,0 1,-2 2,-3l-30 -79 14 0 16 45c3,6 5,12 6,19 2,-6 4,-12 6,-18l17 -46 13 0 -30 80c-3,9 -6,15 -7,18 -3,4 -6,8 -9,10 -3,2 -6,3 -11,3 -2,0 -5,-1 -8,-2z"/>
   <path class="fil4" d="M288 981l0 -73 25 0c5,0 9,0 12,1 5,1 8,3 11,5 4,4 7,8 9,13 2,5 3,11 3,17 0,6 -1,10 -2,15 -2,4 -3,7 -5,10 -2,3 -5,5 -7,7 -2,1 -5,3 -9,4 -3,0 -7,1 -11,1l-26 0zm9 -9l16 0c4,0 8,0 11,-1 3,-1 5,-2 6,-4 3,-2 4,-5 6,-9 1,-4 2,-9 2,-14 0,-8 -2,-14 -4,-18 -3,-4 -6,-6 -9,-8 -3,-1 -7,-1 -13,-1l-15 0 0 55z"/>
   <path id="1" class="fil4" d="M394 974c-3,3 -7,5 -10,6 -3,1 -6,2 -9,2 -6,0 -11,-2 -14,-4 -3,-3 -4,-7 -4,-11 0,-3 0,-5 1,-7 2,-2 3,-4 5,-5 2,-2 4,-3 6,-3 2,-1 5,-1 8,-2 8,0 13,-1 16,-3 0,-1 0,-2 0,-2 0,-4 -1,-6 -2,-8 -3,-2 -6,-3 -10,-3 -5,0 -8,1 -10,3 -2,1 -3,4 -4,7l-9 -1c1,-4 2,-7 4,-9 2,-2 4,-4 8,-5 3,-1 7,-2 12,-2 4,0 8,1 11,2 3,1 5,2 6,4 1,1 2,3 3,6 0,1 0,4 0,8l0 12c0,8 1,13 1,15 0,3 1,5 2,7l-9 0c-1,-2 -2,-4 -2,-7zm-1 -20c-3,2 -8,3 -14,4 -4,0 -7,1 -8,1 -2,1 -3,2 -4,3 0,2 -1,3 -1,5 0,2 1,4 3,5 2,2 4,3 8,3 3,0 6,-1 9,-2 3,-2 5,-4 6,-7 1,-2 1,-4 1,-8l0 -4z"/>
   <path id="2" class="fil4" d="M412 965l9 -1c1,3 2,6 4,8 3,2 6,3 10,3 4,0 7,-1 9,-3 2,-2 3,-4 3,-6 0,-2 -1,-3 -3,-5 -1,0 -4,-1 -9,-3 -6,-1 -11,-3 -13,-4 -3,-1 -5,-3 -6,-5 -1,-2 -2,-4 -2,-7 0,-2 1,-4 2,-6 1,-2 2,-4 4,-5 1,-1 3,-2 6,-3 2,-1 5,-1 7,-1 4,0 8,1 11,2 3,1 6,3 7,5 2,2 3,4 3,8l-9 1c0,-3 -1,-5 -3,-6 -2,-2 -5,-3 -8,-3 -4,0 -7,1 -9,2 -2,2 -2,3 -2,5 0,1 0,2 1,3 0,1 2,2 3,3 1,0 4,1 8,2 6,2 11,3 13,4 3,1 5,3 6,5 1,2 2,4 2,7 0,3 -1,6 -2,9 -2,2 -5,4 -8,6 -3,1 -7,2 -11,2 -7,0 -12,-2 -16,-4 -3,-3 -6,-7 -7,-13z"/>
   <path id="3" class="fil4" d="M467 981l0 -73 9 0 0 26c4,-5 9,-7 15,-7 4,0 8,1 10,2 3,2 5,4 7,7 1,2 1,6 1,11l0 34 -9 0 0 -34c0,-4 0,-7 -2,-9 -2,-2 -5,-3 -9,-3 -2,0 -5,0 -7,2 -2,1 -4,3 -5,5 -1,3 -1,6 -1,10l0 29 -9 0z"/>
   <path id="4" class="fil4" d="M559 981l-8 0 0 -73 9 0 0 26c4,-5 9,-7 14,-7 4,0 7,1 10,2 3,1 5,3 7,5 2,3 3,6 4,9 1,3 2,7 2,11 0,9 -2,16 -7,20 -4,5 -10,8 -16,8 -6,0 -11,-3 -15,-8l0 7zm0 -27c0,6 1,11 3,14 3,4 7,7 11,7 4,0 8,-2 10,-6 3,-3 5,-8 5,-15 0,-6 -2,-12 -4,-15 -3,-3 -6,-5 -10,-5 -4,0 -8,2 -10,5 -3,4 -5,9 -5,15z"/>
   <path id="5" class="fil4" d="M604 954c0,-9 3,-16 8,-21 5,-4 10,-6 17,-6 7,0 13,2 18,7 4,5 7,11 7,20 0,6 -1,12 -3,16 -2,3 -5,6 -9,9 -4,2 -8,3 -13,3 -7,0 -13,-2 -18,-7 -4,-5 -7,-12 -7,-21zm9 0c0,7 2,12 5,16 3,3 6,5 11,5 4,0 8,-2 11,-5 3,-4 4,-9 4,-16 0,-6 -1,-11 -4,-15 -3,-3 -7,-5 -11,-5 -5,0 -8,2 -11,5 -3,4 -5,9 -5,15z"/>
   <path id="6" class="fil4" d="M698 974c-3,3 -6,5 -9,6 -3,1 -6,2 -10,2 -6,0 -10,-2 -13,-4 -3,-3 -5,-7 -5,-11 0,-3 1,-5 2,-7 1,-2 2,-4 4,-5 2,-2 4,-3 7,-3 2,-1 4,-1 8,-2 7,0 12,-1 16,-3 0,-1 0,-2 0,-2 0,-4 -1,-6 -3,-8 -2,-2 -6,-3 -10,-3 -4,0 -7,1 -9,3 -2,1 -4,4 -5,7l-8 -1c0,-4 2,-7 3,-9 2,-2 5,-4 8,-5 4,-1 8,-2 12,-2 5,0 8,1 11,2 3,1 5,2 6,4 2,1 3,3 3,6 1,1 1,4 1,8l0 12c0,8 0,13 0,15 1,3 1,5 2,7l-9 0c-1,-2 -1,-4 -2,-7zm0 -20c-4,2 -8,3 -15,4 -4,0 -6,1 -8,1 -1,1 -2,2 -3,3 -1,2 -1,3 -1,5 0,2 0,4 2,5 2,2 5,3 8,3 4,0 7,-1 9,-2 3,-2 5,-4 6,-7 1,-2 2,-4 2,-8l0 -4z"/>
   <path id="7" class="fil4" d="M720 981l0 -53 8 0 0 8c2,-4 4,-6 6,-7 2,-1 4,-2 6,-2 3,0 6,1 9,3l-3 8c-2,-1 -5,-2 -7,-2 -2,0 -3,1 -5,2 -2,1 -3,3 -3,5 -1,3 -2,6 -2,10l0 28 -9 0z"/>
   <path id="8" class="fil4" d="M788 981l0 -7c-3,5 -8,8 -15,8 -4,0 -8,-1 -11,-4 -4,-2 -6,-5 -8,-9 -2,-4 -3,-9 -3,-15 0,-5 1,-10 2,-14 2,-4 5,-7 8,-10 4,-2 8,-3 12,-3 3,0 6,1 9,2 2,1 4,3 6,5l0 -26 8 0 0 73 -8 0zm-28 -27c0,7 1,12 4,16 3,3 6,5 10,5 4,0 8,-2 10,-5 3,-3 4,-8 4,-15 0,-7 -1,-12 -4,-16 -3,-3 -6,-5 -10,-5 -4,0 -7,2 -10,5 -3,3 -4,9 -4,15z"/>
   <path id="9" class="fil4" d="M284 1184l9 -1c1,4 2,7 3,9 2,2 4,4 8,6 3,1 7,2 11,2 4,0 7,-1 10,-2 2,-1 4,-2 6,-4 1,-2 2,-4 2,-6 0,-3 -1,-5 -2,-6 -1,-2 -4,-3 -7,-5 -2,0 -6,-2 -13,-3 -6,-2 -11,-3 -14,-5 -3,-2 -6,-4 -7,-6 -2,-3 -3,-6 -3,-10 0,-3 1,-7 3,-10 2,-3 5,-5 9,-7 4,-2 9,-3 14,-3 5,0 10,1 14,3 4,2 7,4 9,8 3,3 4,7 4,11l-9 1c-1,-5 -2,-8 -5,-11 -3,-2 -7,-3 -13,-3 -6,0 -10,1 -13,3 -2,2 -4,5 -4,8 0,2 1,5 3,6 2,2 7,4 15,5 7,2 13,4 16,5 4,2 7,4 9,7 2,3 3,7 3,11 0,4 -1,7 -3,11 -2,3 -6,6 -10,8 -4,2 -9,2 -14,2 -6,0 -12,0 -16,-2 -5,-2 -8,-5 -11,-9 -2,-4 -3,-8 -4,-13z"/>
   <path id="10" class="fil4" d="M354 1207l0 -72 9 0 0 26c4,-5 9,-7 16,-7 4,0 7,0 10,2 3,1 5,3 6,6 1,3 2,7 2,12l0 33 -9 0 0 -33c0,-4 -1,-8 -3,-10 -2,-2 -5,-3 -8,-3 -3,0 -5,1 -8,2 -2,2 -4,4 -5,6 -1,2 -1,5 -1,10l0 28 -9 0z"/>
   <path id="11" class="fil4" d="M445 1201c-4,2 -7,4 -10,6 -3,1 -6,1 -10,1 -5,0 -10,-1 -13,-4 -3,-3 -5,-6 -5,-11 0,-2 1,-5 2,-7 1,-2 3,-3 5,-5 2,-1 4,-2 6,-3 2,0 5,-1 8,-1 7,-1 13,-2 16,-3 0,-1 0,-2 0,-2 0,-4 -1,-7 -2,-8 -3,-2 -6,-3 -11,-3 -4,0 -7,1 -9,2 -2,2 -3,4 -4,8l-9 -1c1,-4 2,-7 4,-9 2,-3 4,-4 8,-6 3,-1 7,-1 12,-1 4,0 8,0 11,1 2,1 5,2 6,4 1,2 2,4 3,6 0,2 0,4 0,8l0 12c0,8 0,14 1,16 0,2 1,4 2,6l-9 0c-1,-2 -2,-4 -2,-6zm-1 -20c-3,1 -8,2 -15,3 -3,1 -6,1 -7,2 -2,1 -3,2 -4,3 -1,1 -1,3 -1,4 0,2 1,4 3,6 1,2 4,2 8,2 3,0 6,0 9,-2 2,-1 4,-3 6,-6 1,-2 1,-5 1,-9l0 -3z"/>
   <path id="12" class="fil4" d="M467 1207l0 -52 8 0 0 8c2,-4 4,-7 5,-8 2,-1 4,-1 6,-1 3,0 6,0 9,2l-3 9c-2,-2 -4,-2 -6,-2 -2,0 -4,0 -6,2 -1,1 -2,2 -3,4 -1,4 -1,7 -1,11l0 27 -9 0z"/>
   <path id="13" class="fil4" d="M536 1190l10 1c-2,6 -4,10 -8,13 -4,3 -9,4 -15,4 -8,0 -14,-2 -19,-7 -4,-4 -6,-11 -6,-20 0,-8 2,-15 6,-20 5,-5 11,-7 18,-7 7,0 13,2 17,7 5,4 7,11 7,20 0,0 0,1 0,2l-39 0c0,6 2,10 5,13 3,4 6,5 11,5 3,0 6,-1 8,-3 2,-1 4,-4 5,-8zm-29 -14l30 0c-1,-4 -2,-8 -4,-10 -3,-3 -6,-5 -11,-5 -4,0 -7,1 -10,4 -3,3 -4,6 -5,11z"/>
   <path id="14" class="fil4" d="M284 1410l9 0c1,3 2,6 3,9 2,2 4,4 8,5 3,2 7,2 11,2 4,0 7,0 10,-1 2,-1 4,-3 6,-5 1,-2 2,-4 2,-6 0,-2 -1,-4 -2,-6 -1,-2 -4,-3 -7,-4 -2,-1 -6,-2 -13,-4 -6,-1 -11,-3 -14,-4 -3,-2 -6,-4 -7,-7 -2,-3 -3,-6 -3,-9 0,-4 1,-7 3,-10 2,-3 5,-6 9,-8 4,-1 9,-2 14,-2 5,0 10,1 14,3 4,1 7,4 9,7 3,4 4,7 4,12l-9 0c-1,-4 -2,-8 -5,-10 -3,-2 -7,-4 -13,-4 -6,0 -10,2 -13,4 -2,2 -4,4 -4,7 0,3 1,5 3,7 2,1 7,3 15,5 7,2 13,3 16,5 4,2 7,4 9,7 2,3 3,6 3,10 0,4 -1,8 -3,11 -2,4 -6,6 -10,8 -4,2 -9,3 -14,3 -6,0 -12,-1 -16,-3 -5,-2 -8,-5 -11,-9 -2,-3 -3,-8 -4,-13z"/>
   <path id="15" class="fil4" d="M390 1417l9 1c-1,5 -4,9 -8,12 -4,3 -9,5 -15,5 -8,0 -14,-2 -18,-7 -5,-5 -7,-12 -7,-20 0,-9 2,-16 7,-21 4,-5 10,-7 18,-7 7,0 12,2 17,7 4,5 6,12 6,20 0,1 0,2 0,3l-39 0c1,6 2,10 5,13 3,3 7,5 11,5 3,0 6,-1 8,-3 3,-2 5,-4 6,-8zm-29 -15l29 0c0,-4 -1,-7 -3,-10 -3,-3 -7,-5 -11,-5 -4,0 -8,2 -11,4 -2,3 -4,7 -4,11z"/>
   <path id="16" class="fil4" d="M430 1426l1 8c-2,0 -5,0 -7,0 -3,0 -5,0 -7,-1 -2,-1 -3,-2 -4,-4 -1,-2 -1,-5 -1,-11l0 -30 -7 0 0 -7 7 0 0 -13 9 -5 0 18 9 0 0 7 -9 0 0 31c0,2 0,4 0,5 1,1 1,1 2,2 1,0 2,0 3,0 1,0 2,0 4,0z"/>
   <path id="17" class="fil4" d="M458 1426l1 8c-2,0 -5,0 -7,0 -3,0 -5,0 -7,-1 -2,-1 -3,-2 -4,-4 -1,-2 -1,-5 -1,-11l0 -30 -6 0 0 -7 6 0 0 -13 9 -5 0 18 9 0 0 7 -9 0 0 31c0,2 0,4 1,5 0,1 0,1 1,2 1,0 2,0 3,0 1,0 2,0 4,0z"/>
   <path id="18" class="fil4" d="M467 1371l0 -10 9 0 0 10 -9 0zm0 63l0 -53 9 0 0 53 -9 0z"/>
   <path id="19" class="fil4" d="M489 1434l0 -53 8 0 0 8c4,-6 10,-9 17,-9 3,0 6,1 9,2 2,1 4,2 6,4 1,2 2,4 2,7 1,1 1,4 1,8l0 33 -9 0 0 -32c0,-4 0,-7 -1,-8 -1,-2 -2,-4 -4,-5 -1,-1 -4,-1 -6,-1 -4,0 -7,1 -10,3 -2,3 -4,7 -4,14l0 29 -9 0z"/>
   <path id="20" class="fil4" d="M544 1438l9 1c0,3 1,5 3,6 2,2 5,3 9,3 4,0 7,-1 9,-3 3,-1 4,-4 5,-7 0,-2 1,-5 1,-11 -4,4 -9,7 -15,7 -7,0 -13,-3 -17,-8 -4,-5 -6,-12 -6,-19 0,-5 1,-9 3,-14 2,-4 4,-7 8,-9 3,-3 7,-4 12,-4 6,0 11,3 15,8l0 -7 9 0 0 46c0,8 -1,14 -3,17 -2,3 -4,6 -8,8 -3,2 -8,3 -13,3 -6,0 -12,-1 -15,-4 -4,-3 -6,-7 -6,-13zm7 -31c0,6 2,11 4,15 3,3 7,4 11,4 4,0 7,-1 10,-4 3,-3 4,-8 4,-15 0,-7 -1,-11 -4,-15 -3,-3 -6,-5 -10,-5 -4,0 -8,2 -11,5 -2,3 -4,8 -4,15z"/>
   <path id="21" class="fil4" d="M284 1637l9 -1c1,4 2,7 3,9 2,2 4,4 8,6 3,1 7,2 11,2 4,0 7,-1 10,-2 2,-1 4,-2 6,-4 1,-2 2,-4 2,-6 0,-3 -1,-5 -2,-6 -1,-2 -4,-3 -7,-5 -2,0 -6,-2 -13,-3 -6,-2 -11,-3 -14,-5 -3,-1 -6,-4 -7,-6 -2,-3 -3,-6 -3,-9 0,-4 1,-8 3,-11 2,-3 5,-5 9,-7 4,-2 9,-3 14,-3 5,0 10,1 14,3 4,2 7,4 9,8 3,3 4,7 4,11l-9 1c-1,-5 -2,-8 -5,-10 -3,-3 -7,-4 -13,-4 -6,0 -10,1 -13,3 -2,2 -4,5 -4,8 0,3 1,5 3,6 2,2 7,4 15,6 7,1 13,3 16,4 4,2 7,5 9,8 2,3 3,6 3,10 0,4 -1,7 -3,11 -2,3 -6,6 -10,8 -4,2 -9,3 -14,3 -6,0 -12,-1 -16,-3 -5,-2 -8,-5 -11,-9 -2,-4 -3,-8 -4,-13z"/>
   <path id="22" class="fil4" d="M388 1654c-3,3 -6,5 -9,6 -3,1 -6,1 -10,1 -6,0 -10,-1 -13,-4 -3,-3 -5,-6 -5,-11 0,-2 1,-5 2,-7 1,-2 2,-3 4,-5 2,-1 4,-2 7,-3 2,0 4,-1 8,-1 7,-1 12,-2 16,-3 0,-1 0,-2 0,-2 0,-4 -1,-7 -3,-8 -2,-2 -6,-3 -10,-3 -4,0 -7,1 -9,2 -2,2 -4,4 -5,8l-8 -1c0,-4 2,-7 3,-9 2,-3 5,-4 8,-6 4,-1 8,-1 12,-1 5,0 8,0 11,1 3,1 5,3 6,4 2,2 3,4 3,6 1,2 1,4 1,8l0 12c0,9 0,14 0,16 1,2 1,4 2,6l-9 0c-1,-2 -1,-4 -2,-6zm0 -20c-4,1 -8,2 -15,3 -4,1 -6,1 -8,2 -1,1 -2,2 -3,3 -1,1 -1,3 -1,4 0,3 0,4 2,6 2,2 5,2 8,2 4,0 7,0 9,-2 3,-1 5,-3 6,-6 1,-2 2,-5 2,-9l0 -3z"/>
   <polygon id="23" class="fil4" points="410,1660 410,1588 419,1588 419,1660 "/>
   <path id="24" class="fil4" d="M469 1643l9 1c-1,6 -4,10 -8,13 -4,3 -9,4 -15,4 -8,0 -14,-2 -18,-7 -5,-4 -7,-11 -7,-20 0,-8 2,-15 7,-20 4,-5 10,-7 18,-7 7,0 12,2 17,7 4,5 6,11 6,20 0,0 0,1 0,2l-39 0c0,6 2,10 5,14 3,3 7,4 11,4 3,0 6,-1 8,-2 3,-2 4,-5 6,-9zm-29 -14l29 0c0,-4 -2,-8 -3,-10 -3,-3 -7,-5 -11,-5 -5,0 -8,1 -11,4 -3,3 -4,6 -4,11z"/>
   <path id="25" class="fil4" d="M486 1645l9 -2c0,4 1,6 4,8 2,2 5,3 9,3 4,0 7,-1 9,-2 2,-2 3,-4 3,-6 0,-2 -1,-4 -2,-5 -2,-1 -5,-2 -9,-3 -7,-2 -11,-3 -14,-4 -3,-1 -4,-3 -6,-5 -1,-2 -2,-5 -2,-7 0,-3 1,-5 2,-7 1,-2 2,-3 4,-5 2,-1 4,-2 6,-2 2,-1 5,-1 8,-1 4,0 7,0 10,1 4,2 6,3 7,5 2,2 3,5 3,8l-8 2c-1,-3 -2,-5 -4,-7 -2,-1 -4,-2 -8,-2 -4,0 -7,1 -8,2 -2,1 -3,3 -3,5 0,1 0,2 1,3 1,1 2,2 3,2 1,0 4,1 8,2 7,2 11,3 13,5 3,1 5,2 6,4 2,2 2,5 2,8 0,3 0,6 -2,8 -2,3 -4,5 -8,6 -3,2 -7,2 -11,2 -7,0 -12,-1 -15,-4 -4,-3 -6,-7 -7,-12z"/>
   <path id="26" class="fil4" d="M339 1861l10 3c-2,8 -6,14 -11,18 -5,4 -12,6 -19,6 -8,0 -14,-2 -19,-5 -5,-3 -9,-8 -11,-14 -3,-6 -4,-12 -4,-19 0,-8 1,-14 4,-20 3,-5 7,-10 12,-13 6,-3 12,-4 18,-4 7,0 13,2 18,6 5,3 9,8 11,15l-10 2c-1,-5 -4,-9 -7,-11 -3,-3 -7,-4 -12,-4 -6,0 -10,2 -14,4 -4,3 -6,6 -8,11 -2,5 -2,9 -2,14 0,6 1,11 2,16 2,5 5,8 9,10 4,3 8,4 12,4 5,0 10,-2 14,-5 3,-3 6,-8 7,-14z"/>
   <path id="27" class="fil4" d="M356 1861c0,-10 3,-17 8,-22 5,-4 10,-6 17,-6 7,0 13,2 18,7 4,5 7,11 7,20 0,7 -1,12 -3,16 -3,4 -5,7 -9,9 -4,2 -8,3 -13,3 -7,0 -13,-2 -18,-7 -4,-5 -7,-12 -7,-20zm9 0c0,6 2,11 5,15 3,3 6,5 11,5 4,0 8,-2 11,-5 3,-4 4,-9 4,-16 0,-6 -1,-11 -4,-14 -3,-4 -7,-6 -11,-6 -5,0 -8,2 -11,5 -3,4 -5,9 -5,16z"/>
   <path id="28" class="fil4" d="M416 1887l0 -53 8 0 0 8c4,-6 9,-9 17,-9 3,0 6,1 8,2 3,1 5,2 6,4 2,2 3,4 3,7 1,2 1,4 1,9l0 32 -9 0 0 -32c0,-4 -1,-7 -1,-8 -1,-2 -2,-4 -4,-5 -2,-1 -4,-1 -6,-1 -4,0 -7,1 -10,3 -3,3 -4,7 -4,14l0 29 -9 0z"/>
   <path id="29" class="fil4" d="M492 1879l1 8c-3,0 -5,1 -7,1 -3,0 -5,-1 -7,-2 -2,-1 -3,-2 -4,-4 -1,-2 -1,-5 -1,-11l0 -30 -7 0 0 -7 7 0 0 -13 9 -5 0 18 9 0 0 7 -9 0 0 31c0,2 0,4 0,5 1,1 1,1 2,2 1,0 2,0 3,0 1,0 2,0 4,0z"/>
   <path id="30" class="fil4" d="M535 1880c-3,3 -7,5 -10,6 -3,1 -6,2 -9,2 -6,0 -11,-1 -14,-4 -3,-3 -4,-7 -4,-11 0,-3 0,-5 1,-7 1,-2 3,-4 5,-5 2,-2 4,-2 6,-3 2,-1 5,-1 8,-1 7,-1 13,-2 16,-4 0,-1 0,-2 0,-2 0,-3 -1,-6 -2,-8 -3,-2 -6,-3 -10,-3 -5,0 -8,1 -10,3 -2,1 -3,4 -4,8l-9 -2c1,-3 2,-6 4,-9 2,-2 4,-4 8,-5 3,-1 7,-2 12,-2 4,0 8,1 11,2 3,1 5,2 6,4 1,1 2,3 3,6 0,1 0,4 0,8l0 12c0,8 0,13 1,15 0,3 1,5 2,7l-9 0c-1,-2 -2,-4 -2,-7zm-1 -20c-3,2 -8,3 -14,4 -4,0 -7,1 -8,2 -2,0 -3,1 -4,2 -1,2 -1,3 -1,5 0,2 1,4 3,6 2,1 4,2 8,2 3,0 6,-1 9,-2 3,-2 4,-4 6,-6 1,-2 1,-5 1,-9l0 -4z"/>
   <path id="31" class="fil4" d="M591 1868l9 1c-1,6 -3,10 -7,14 -4,3 -9,5 -15,5 -7,0 -13,-2 -17,-7 -4,-5 -7,-12 -7,-20 0,-6 1,-11 3,-15 2,-4 5,-8 9,-10 4,-2 8,-3 12,-3 6,0 11,2 14,4 4,3 6,7 7,13l-8 1c-1,-3 -3,-6 -5,-8 -2,-2 -4,-3 -7,-3 -5,0 -9,2 -11,5 -3,3 -5,8 -5,15 0,8 2,13 5,16 2,3 6,5 10,5 4,0 7,-1 9,-4 2,-2 4,-5 4,-9z"/>
   <path id="32" class="fil4" d="M627 1879l1 8c-2,0 -5,1 -6,1 -4,0 -6,-1 -8,-2 -2,-1 -3,-2 -4,-4 0,-2 -1,-5 -1,-11l0 -30 -6 0 0 -7 6 0 0 -13 9 -5 0 18 9 0 0 7 -9 0 0 31c0,2 0,4 1,5 0,1 0,1 1,2 1,0 2,0 3,0 1,0 2,0 4,0z"/>
   <path id="33" class="fil4" d="M632 1871l9 -1c1,3 2,6 4,8 2,2 6,3 10,3 4,0 7,-1 9,-3 2,-2 3,-3 3,-6 0,-2 -1,-3 -3,-4 -1,-1 -4,-2 -9,-4 -6,-1 -11,-3 -14,-4 -2,-1 -4,-3 -5,-5 -2,-2 -2,-4 -2,-7 0,-2 0,-4 1,-6 1,-2 3,-4 5,-5 1,-1 3,-2 5,-3 3,-1 5,-1 8,-1 4,0 8,1 11,2 3,1 5,3 7,5 1,2 2,4 3,8l-9 1c0,-3 -1,-5 -3,-6 -2,-2 -5,-3 -8,-3 -4,0 -7,1 -9,2 -2,2 -3,3 -3,5 0,1 1,2 1,3 1,1 2,2 4,3 1,0 3,1 8,2 6,2 10,3 13,4 2,1 4,3 6,5 1,2 2,4 2,7 0,3 -1,6 -3,9 -1,2 -4,4 -7,6 -3,1 -7,2 -11,2 -7,0 -12,-1 -16,-4 -3,-3 -6,-7 -7,-13z"/>
   <g>
    <rect class="fil0" x="752" width="1431" height="1984"/>
    <rect class="fil1" x="794" y="44" width="1345" height="1897"/>
   </g>
   <path class="fil2" d="M996 279l-20 0 -8 -21 -36 0 -8 21 -19 0 35 -91 20 0 36 91zm-34 -36l-12 -34 -13 34 25 0z"/>
   <path id="1" class="fil2" d="M1066 279l-16 0 0 -10c-3,4 -6,7 -10,9 -3,2 -7,3 -11,3 -7,0 -14,-3 -19,-10 -6,-6 -8,-14 -8,-25 0,-11 2,-20 7,-26 6,-5 12,-8 20,-8 8,0 14,3 19,9l0 -33 18 0 0 91zm-47 -34c0,7 1,12 3,15 3,5 7,7 12,7 4,0 7,-2 10,-5 3,-4 4,-9 4,-16 0,-7 -1,-13 -4,-16 -2,-3 -6,-5 -10,-5 -4,0 -8,2 -10,5 -3,3 -5,8 -5,15z"/>
   <path id="2" class="fil2" d="M1082 213l16 0 0 9c5,-7 12,-10 20,-10 4,0 8,1 11,2 3,2 6,5 8,8 3,-3 6,-6 9,-8 3,-1 7,-2 11,-2 5,0 9,1 12,3 3,2 6,5 7,8 2,3 2,8 2,14l0 42 -17 0 0 -38c0,-6 -1,-10 -2,-12 -2,-3 -4,-4 -7,-4 -3,0 -5,1 -7,2 -2,2 -4,4 -5,7 -1,3 -1,7 -1,13l0 32 -18 0 0 -36c0,-6 0,-11 -1,-12 0,-2 -1,-4 -2,-5 -2,0 -4,-1 -6,-1 -2,0 -5,1 -7,2 -2,2 -4,4 -5,6 -1,3 -1,8 -1,14l0 32 -17 0 0 -66z"/>
   <path id="3" class="fil2" d="M1196 204l0 -16 17 0 0 16 -17 0zm0 75l0 -66 17 0 0 66 -17 0z"/>
   <path id="4" class="fil2" d="M1291 279l-18 0 0 -34c0,-7 0,-11 -1,-13 -1,-2 -2,-4 -4,-5 -1,-1 -3,-2 -6,-2 -3,0 -5,1 -8,3 -2,1 -4,3 -5,6 -1,3 -1,8 -1,15l0 30 -17 0 0 -66 16 0 0 10c5,-8 13,-11 21,-11 4,0 8,0 11,2 3,1 6,3 7,5 2,2 3,5 4,7 0,3 1,7 1,12l0 41z"/>
   <path class="fil4" d="M1036 600l9 -1c0,4 1,7 3,9 1,2 4,4 7,6 3,1 7,2 11,2 4,0 7,-1 10,-2 3,-1 5,-2 6,-4 2,-2 2,-4 2,-7 0,-2 0,-4 -2,-5 -1,-2 -3,-4 -6,-5 -2,0 -7,-2 -13,-3 -7,-2 -12,-3 -14,-5 -4,-2 -6,-4 -8,-7 -2,-2 -3,-5 -3,-9 0,-3 2,-7 4,-10 2,-3 5,-6 9,-7 4,-2 8,-3 13,-3 5,0 10,1 14,3 4,2 8,4 10,8 2,3 3,7 3,11l-9 1c0,-5 -2,-8 -5,-11 -3,-2 -7,-3 -13,-3 -5,0 -10,1 -12,3 -3,2 -4,5 -4,8 0,2 1,5 3,6 1,2 6,4 14,5 8,2 13,4 16,5 4,2 7,4 9,7 2,3 3,7 3,11 0,4 -1,7 -3,11 -2,3 -5,6 -9,8 -5,1 -9,2 -14,2 -7,0 -12,-1 -17,-3 -4,-1 -8,-4 -10,-8 -3,-4 -4,-8 -4,-13z"/>
   <path id="1" class="fil4" d="M1105 623l0 -72 9 0 0 26c4,-5 10,-8 16,-8 4,0 7,1 10,3 3,1 5,3 6,6 1,3 2,7 2,12l0 33 -9 0 0 -33c0,-5 -1,-8 -3,-10 -2,-2 -4,-3 -8,-3 -2,0 -5,1 -7,2 -3,2 -4,3 -5,6 -1,2 -2,5 -2,9l0 29 -9 0z"/>
   <path id="2" class="fil4" d="M1196 617c-3,2 -6,4 -9,6 -3,1 -7,1 -10,1 -6,0 -10,-1 -14,-4 -3,-3 -4,-6 -4,-11 0,-2 0,-5 1,-7 2,-2 3,-4 5,-5 2,-1 4,-2 7,-3 1,0 4,-1 7,-1 8,-1 13,-2 16,-3 0,-1 0,-2 0,-3 0,-3 0,-6 -2,-7 -2,-2 -6,-3 -10,-3 -4,0 -8,1 -10,2 -2,1 -3,4 -4,8l-9 -1c1,-4 2,-7 4,-9 2,-3 5,-4 8,-6 4,-1 8,-2 12,-2 5,0 8,1 11,2 3,1 5,2 6,4 2,2 2,4 3,6 0,2 0,4 0,8l0 12c0,8 1,14 1,16 0,2 1,4 2,6l-9 0c-1,-2 -2,-4 -2,-6zm-1 -20c-3,1 -8,2 -14,3 -4,1 -6,1 -8,2 -1,1 -3,2 -3,3 -1,1 -2,2 -2,4 0,2 1,4 3,6 2,1 4,2 8,2 3,0 6,0 9,-2 3,-1 5,-4 6,-6 1,-2 1,-5 1,-9l0 -3z"/>
   <path id="3" class="fil4" d="M1218 623l0 -52 8 0 0 8c2,-4 4,-7 6,-8 1,-1 3,-2 5,-2 3,0 7,1 10,3l-4 8c-2,-1 -4,-1 -6,-1 -2,0 -4,0 -5,1 -2,2 -3,3 -4,5 -1,3 -1,7 -1,11l0 27 -9 0z"/>
   <path id="4" class="fil4" d="M1288 606l9 1c-1,6 -4,10 -8,13 -4,3 -9,4 -15,4 -8,0 -14,-2 -18,-7 -5,-5 -7,-11 -7,-20 0,-9 2,-15 7,-20 4,-5 10,-8 17,-8 7,0 13,3 18,8 4,4 6,11 6,20 0,0 0,1 0,2l-39 0c0,6 2,10 5,13 3,3 7,5 11,5 3,0 6,-1 8,-3 3,-1 4,-4 6,-8zm-29 -14l29 0c0,-5 -2,-8 -3,-10 -3,-4 -7,-5 -11,-5 -5,0 -8,1 -11,4 -3,3 -4,6 -4,11z"/>
   <polygon id="5" class="fil4" points="1041,850 1041,777 1050,777 1050,850 "/>
   <path id="6" class="fil4" d="M1085 842l2 8c-3,0 -5,0 -7,0 -3,0 -6,0 -8,-1 -1,-1 -3,-3 -3,-4 -1,-2 -2,-5 -2,-11l0 -30 -6 0 0 -7 6 0 0 -13 9 -5 0 18 9 0 0 7 -9 0 0 31c0,2 1,4 1,5 0,0 1,1 1,1 1,1 2,1 3,1 1,0 3,0 4,0z"/>
   <path id="7" class="fil4" d="M1130 833l9 1c-1,5 -4,9 -8,12 -4,3 -9,5 -15,5 -8,0 -14,-3 -18,-7 -5,-5 -7,-12 -7,-20 0,-9 2,-16 7,-21 5,-5 10,-7 18,-7 7,0 12,2 17,7 4,5 7,12 7,20 0,1 0,2 -1,3l-39 0c1,5 2,10 5,13 3,3 7,4 11,4 3,0 6,0 9,-2 2,-2 4,-5 5,-8zm-29 -15l29 0c0,-4 -1,-7 -3,-10 -3,-3 -7,-5 -11,-5 -4,0 -8,2 -11,4 -2,3 -4,7 -4,11z"/>
   <path id="8" class="fil4" d="M1150 850l0 -53 8 0 0 7c2,-2 4,-4 7,-6 3,-1 6,-2 9,-2 4,0 7,1 10,2 2,2 4,4 5,7 4,-6 10,-9 17,-9 5,0 9,1 12,4 2,3 4,8 4,14l0 36 -9 0 0 -33c0,-4 0,-7 -1,-8 -1,-2 -2,-3 -3,-4 -2,-1 -3,-1 -5,-1 -4,0 -7,1 -10,3 -2,3 -3,7 -3,12l0 31 -9 0 0 -34c0,-4 -1,-7 -2,-9 -2,-2 -4,-3 -8,-3 -2,0 -4,0 -7,2 -2,1 -3,3 -4,5 -1,3 -2,7 -2,11l0 28 -9 0z"/>
   <path id="9" class="fil4" d="M1273 850l-16 -53 9 0 8 30 3 12c0,-1 1,-4 3,-11l8 -31 10 0 7 31 3 10 3 -11 9 -30 9 0 -17 53 -9 0 -8 -32 -2 -9 -11 41 -9 0z"/>
   <path id="10" class="fil4" d="M1336 787l0 -10 9 0 0 10 -9 0zm0 63l0 -53 9 0 0 53 -9 0z"/>
   <path id="11" class="fil4" d="M1355 834l9 -1c1,3 2,6 4,8 3,2 6,2 10,2 4,0 7,0 9,-2 2,-2 3,-4 3,-6 0,-2 -1,-3 -3,-5 -1,0 -4,-1 -9,-3 -6,-1 -11,-3 -13,-4 -3,-1 -5,-3 -6,-5 -2,-2 -2,-4 -2,-7 0,-2 0,-4 1,-6 2,-2 3,-4 5,-5 1,-1 3,-2 5,-3 3,-1 5,-1 8,-1 4,0 8,1 11,2 3,1 5,3 7,5 1,2 2,4 3,8l-9 1c0,-3 -1,-5 -3,-6 -2,-2 -5,-3 -8,-3 -4,0 -7,1 -9,2 -2,2 -3,3 -3,5 0,1 1,2 2,3 0,1 1,2 3,3 1,0 3,1 8,2 6,1 10,3 13,4 2,1 4,3 6,5 1,2 2,4 2,7 0,3 -1,6 -3,9 -1,2 -4,4 -7,6 -3,1 -7,2 -11,2 -7,0 -12,-2 -16,-4 -3,-3 -6,-7 -7,-13z"/>
   <path id="12" class="fil4" d="M1445 833l10 1c-2,5 -4,9 -8,12 -4,3 -9,5 -15,5 -8,0 -14,-3 -19,-7 -4,-5 -6,-12 -6,-20 0,-9 2,-16 6,-21 5,-5 11,-7 18,-7 7,0 13,2 17,7 5,5 7,12 7,20 0,1 0,2 0,3l-39 0c0,5 2,10 5,13 3,3 6,4 11,4 3,0 6,0 8,-2 2,-2 4,-5 5,-8zm-29 -15l30 0c-1,-4 -2,-7 -4,-10 -3,-3 -6,-5 -11,-5 -4,0 -7,2 -10,4 -3,3 -4,7 -5,11z"/>
   <path id="13" class="fil4" d="M1491 834l8 -1c1,3 2,6 5,8 2,2 5,2 9,2 4,0 7,0 9,-2 2,-2 3,-4 3,-6 0,-2 -1,-3 -3,-5 -1,0 -4,-1 -9,-3 -6,-1 -11,-3 -13,-4 -3,-1 -5,-3 -6,-5 -1,-2 -2,-4 -2,-7 0,-2 1,-4 2,-6 1,-2 2,-4 4,-5 1,-1 3,-2 6,-3 2,-1 5,-1 7,-1 5,0 8,1 11,2 3,1 6,3 7,5 2,2 3,4 3,8l-9 1c0,-3 -1,-5 -3,-6 -2,-2 -4,-3 -8,-3 -4,0 -7,1 -9,2 -1,2 -2,3 -2,5 0,1 0,2 1,3 0,1 2,2 3,3 1,0 4,1 8,2 6,1 11,3 13,4 3,1 5,3 6,5 2,2 2,4 2,7 0,3 -1,6 -2,9 -2,2 -5,4 -8,6 -3,1 -7,2 -11,2 -7,0 -12,-2 -16,-4 -3,-3 -5,-7 -6,-13z"/>
   <path id="14" class="fil4" d="M1036 1053l9 -1c0,4 1,7 3,9 1,2 4,4 7,6 3,1 7,2 11,2 4,0 7,-1 10,-2 3,-1 5,-2 6,-4 2,-2 2,-4 2,-6 0,-3 0,-5 -2,-6 -1,-2 -3,-4 -6,-5 -2,0 -7,-2 -13,-3 -7,-2 -12,-3 -14,-5 -4,-2 -6,-4 -8,-7 -2,-2 -3,-5 -3,-9 0,-3 2,-7 4,-10 2,-3 5,-5 9,-7 4,-2 8,-3 13,-3 5,0 10,1 14,3 4,2 8,4 10,8 2,3 3,7 3,11l-9 1c0,-5 -2,-8 -5,-11 -3,-2 -7,-3 -13,-3 -5,0 -10,1 -12,3 -3,2 -4,5 -4,8 0,2 1,5 3,6 1,2 6,4 14,5 8,2 13,4 16,5 4,2 7,4 9,7 2,3 3,7 3,11 0,4 -1,7 -3,11 -2,3 -5,6 -9,8 -5,1 -9,2 -14,2 -7,0 -12,-1 -17,-2 -4,-2 -8,-5 -10,-9 -3,-4 -4,-8 -4,-13z"/>
   <path id="15" class="fil4" d="M1140 1070c-4,2 -7,4 -10,6 -3,1 -6,1 -10,1 -5,0 -10,-1 -13,-4 -3,-3 -5,-6 -5,-11 0,-2 1,-5 2,-7 1,-2 3,-4 5,-5 2,-1 4,-2 6,-3 2,0 5,-1 8,-1 7,-1 13,-2 16,-3 0,-1 0,-2 0,-2 0,-4 -1,-7 -2,-8 -3,-2 -6,-3 -11,-3 -4,0 -7,1 -9,2 -2,2 -3,4 -4,8l-9 -1c1,-4 2,-7 4,-9 2,-3 4,-4 8,-6 3,-1 7,-2 12,-2 4,0 8,1 11,2 2,1 5,2 6,4 1,2 2,4 3,6 0,2 0,4 0,8l0 12c0,8 0,14 1,16 0,2 1,4 2,6l-10 0c0,-2 -1,-4 -1,-6zm-1 -20c-3,1 -8,2 -15,3 -3,1 -6,1 -7,2 -2,1 -3,2 -4,3 -1,1 -1,2 -1,4 0,2 1,4 3,6 1,2 4,2 7,2 4,0 7,0 10,-2 2,-1 4,-3 6,-6 1,-2 1,-5 1,-9l0 -3z"/>
   <polygon id="16" class="fil4" points="1162,1076 1162,1004 1170,1004 1170,1076 "/>
   <path id="17" class="fil4" d="M1220 1059l9 1c-1,6 -4,10 -8,13 -4,3 -9,4 -15,4 -7,0 -13,-2 -18,-7 -4,-5 -7,-11 -7,-20 0,-9 3,-15 7,-20 5,-5 11,-8 18,-8 7,0 13,3 17,8 4,4 7,11 7,20 0,0 0,1 0,2l-40 0c1,6 2,10 5,13 3,3 7,5 11,5 4,0 6,-1 9,-3 2,-1 4,-4 5,-8zm-29 -14l29 0c0,-5 -1,-8 -3,-10 -3,-4 -7,-5 -11,-5 -4,0 -8,1 -10,4 -3,3 -5,6 -5,11z"/>
   <path id="18" class="fil4" d="M1237 1060l9 -1c0,4 2,6 4,8 2,2 6,3 10,3 4,0 7,-1 9,-2 2,-2 3,-4 3,-6 0,-2 -1,-4 -3,-5 -1,-1 -4,-2 -9,-3 -7,-2 -11,-3 -14,-4 -2,-2 -4,-3 -5,-5 -2,-3 -2,-5 -2,-7 0,-3 0,-5 1,-7 1,-2 3,-4 5,-5 1,-1 3,-2 5,-2 3,-1 5,-2 8,-2 4,0 8,1 11,2 3,1 5,3 7,5 1,2 2,5 3,8l-9 1c0,-2 -1,-4 -3,-6 -2,-1 -5,-2 -8,-2 -4,0 -7,0 -9,2 -2,1 -3,3 -3,5 0,1 1,2 1,3 1,1 2,1 4,2 1,0 3,1 8,2 6,2 10,3 13,4 2,1 4,3 6,5 1,2 2,5 2,8 0,3 -1,5 -3,8 -2,3 -4,5 -7,6 -4,2 -7,2 -11,2 -7,0 -12,-1 -16,-4 -4,-3 -6,-7 -7,-13z"/>
   <polygon id="19" class="fil4" points="1041,1303 1041,1230 1050,1230 1050,1303 "/>
   <path id="20" class="fil4" d="M1066 1303l0 -53 8 0 0 8c4,-6 9,-9 17,-9 3,0 6,1 8,2 3,1 5,2 6,4 2,2 3,4 3,7 0,1 1,4 1,8l0 33 -9 0 0 -32c0,-4 -1,-7 -1,-8 -1,-2 -2,-4 -4,-5 -2,-1 -4,-1 -6,-1 -4,0 -7,1 -10,3 -3,3 -4,7 -4,14l0 29 -9 0z"/>
   <path id="21" class="fil4" d="M1137 1303l-20 -53 9 0 12 32c1,3 2,7 3,10 1,-3 2,-6 3,-10l12 -32 9 0 -20 53 -8 0z"/>
   <path id="22" class="fil4" d="M1209 1286l9 1c-1,5 -4,9 -8,12 -4,3 -9,5 -15,5 -8,0 -14,-3 -18,-7 -5,-5 -7,-12 -7,-20 0,-9 2,-16 7,-21 4,-5 10,-7 18,-7 7,0 12,2 17,7 4,5 6,12 6,20 0,1 0,2 0,3l-39 0c1,5 2,10 5,13 3,3 7,5 11,5 3,0 6,-1 8,-3 3,-2 5,-5 6,-8zm-29 -15l29 0c0,-4 -2,-7 -3,-10 -3,-3 -7,-5 -11,-5 -4,0 -8,2 -11,4 -2,3 -4,7 -4,11z"/>
   <path id="23" class="fil4" d="M1229 1303l0 -53 8 0 0 8c4,-6 10,-9 17,-9 3,0 6,1 9,2 3,1 5,2 6,4 1,2 2,4 3,7 0,1 0,4 0,8l0 33 -9 0 0 -32c0,-4 0,-7 -1,-8 -1,-2 -2,-4 -4,-5 -1,-1 -3,-1 -6,-1 -4,0 -7,1 -10,3 -2,3 -4,7 -4,14l0 29 -9 0z"/>
   <path id="24" class="fil4" d="M1305 1295l1 8c-2,0 -4,0 -6,0 -4,0 -6,0 -8,-1 -2,-1 -3,-2 -4,-4 0,-2 -1,-5 -1,-11l0 -30 -6 0 0 -7 6 0 0 -13 9 -5 0 18 9 0 0 7 -9 0 0 31c0,2 0,4 1,5 0,0 1,1 1,1 1,1 2,1 3,1 1,0 3,0 4,0z"/>
   <path id="25" class="fil4" d="M1311 1276c0,-9 2,-17 8,-21 4,-4 10,-6 16,-6 7,0 13,2 18,7 5,5 7,11 7,20 0,6 -1,12 -3,16 -2,3 -5,6 -9,9 -4,2 -8,3 -13,3 -7,0 -13,-3 -18,-7 -4,-5 -6,-12 -6,-21zm9 0c0,7 1,12 4,16 3,3 7,5 11,5 5,0 8,-2 11,-6 3,-3 5,-8 5,-15 0,-6 -2,-11 -5,-15 -3,-3 -6,-5 -11,-5 -4,0 -8,2 -11,5 -3,4 -4,9 -4,15z"/>
   <path id="26" class="fil4" d="M1370 1303l0 -53 8 0 0 8c2,-4 4,-6 6,-7 2,-1 4,-2 6,-2 3,0 6,1 9,3l-3 8c-3,-1 -5,-2 -7,-2 -2,0 -4,1 -5,2 -2,1 -3,3 -3,5 -1,3 -2,6 -2,10l0 28 -9 0z"/>
   <path id="27" class="fil4" d="M1404 1323l-1 -8c2,0 3,0 5,0 2,0 3,0 5,-1 1,0 2,-1 2,-2 1,-1 2,-3 3,-7 0,0 1,-1 1,-2l-20 -53 10 0 11 30c1,4 2,8 3,13 1,-4 3,-8 4,-12l11 -31 9 0 -20 54c-2,5 -4,9 -5,12 -1,2 -3,5 -5,6 -2,1 -5,2 -8,2 -1,0 -3,0 -5,-1z"/>
   <polygon id="28" class="fil4" points="1041,1529 1041,1457 1050,1457 1050,1529 "/>
   <path id="29" class="fil4" d="M1066 1529l0 -52 8 0 0 7c4,-6 9,-9 17,-9 3,0 6,1 8,2 3,1 5,3 6,5 2,2 3,4 3,6 0,2 1,5 1,9l0 32 -9 0 0 -32c0,-3 -1,-6 -1,-8 -1,-2 -2,-3 -4,-4 -2,-1 -4,-2 -6,-2 -4,0 -7,1 -10,4 -3,2 -4,7 -4,14l0 28 -9 0z"/>
   <polygon id="30" class="fil4" points="1116,1530 1137,1455 1144,1455 1123,1530 "/>
   <path id="31" class="fil4" d="M1149 1494c0,-12 3,-22 9,-28 7,-7 15,-11 25,-11 7,0 13,2 19,5 5,3 9,8 12,14 3,5 4,12 4,19 0,7 -1,14 -4,20 -3,6 -8,10 -13,13 -5,3 -11,4 -18,4 -6,0 -13,-1 -18,-5 -5,-3 -9,-7 -12,-13 -3,-6 -4,-12 -4,-18zm10 0c0,9 2,16 7,21 4,5 10,7 17,7 8,0 14,-2 18,-7 5,-5 7,-13 7,-22 0,-6 -1,-11 -3,-15 -2,-5 -5,-8 -9,-11 -3,-2 -8,-3 -13,-3 -6,0 -12,2 -17,7 -5,4 -7,12 -7,23z"/>
   <path id="32" class="fil4" d="M1264 1529l0 -8c-4,6 -10,9 -17,9 -3,0 -6,0 -9,-1 -2,-2 -4,-3 -6,-5 -1,-2 -2,-4 -2,-7 -1,-1 -1,-4 -1,-8l0 -32 9 0 0 29c0,4 0,8 1,9 0,2 1,4 3,6 2,1 4,2 7,2 3,0 5,-1 7,-2 3,-2 4,-4 5,-6 1,-2 2,-6 2,-10l0 -28 9 0 0 52 -8 0z"/>
   <path id="33" class="fil4" d="M1305 1521l1 8c-2,1 -4,1 -6,1 -4,0 -6,-1 -8,-2 -2,-1 -3,-2 -4,-4 0,-1 -1,-5 -1,-10l0 -30 -6 0 0 -7 6 0 0 -13 9 -6 0 19 9 0 0 7 -9 0 0 30c0,3 0,5 1,5 0,1 0,2 1,2 1,0 2,1 3,1 1,0 2,0 4,-1z"/>
   <polygon id="34" class="fil4" points="1345,1529 1345,1457 1354,1457 1354,1529 "/>
   <path id="35" class="fil4" d="M1370 1529l0 -52 8 0 0 7c4,-6 10,-9 17,-9 3,0 6,1 9,2 2,1 4,3 6,5 1,2 2,4 2,6 1,2 1,5 1,9l0 32 -9 0 0 -32c0,-3 0,-6 -1,-8 -1,-2 -2,-3 -4,-4 -1,-1 -4,-2 -6,-2 -4,0 -7,1 -10,4 -2,2 -4,7 -4,14l0 28 -9 0z"/>
   <path id="36" class="fil4" d="M1441 1529l-20 -52 10 0 11 31c1,4 2,7 3,11 1,-3 2,-6 4,-10l11 -32 10 0 -20 52 -9 0z"/>
   <path id="37" class="fil4" d="M1513 1512l9 1c-1,6 -4,10 -8,13 -4,3 -9,4 -15,4 -7,0 -13,-2 -18,-7 -4,-4 -7,-11 -7,-20 0,-8 3,-15 7,-20 5,-5 11,-8 18,-8 7,0 13,3 17,8 5,4 7,11 7,20 0,0 0,1 0,2l-39 0c0,6 1,10 4,13 3,4 7,5 11,5 4,0 6,-1 9,-3 2,-1 4,-4 5,-8zm-29 -14l29 0c0,-5 -1,-8 -3,-10 -3,-3 -7,-5 -11,-5 -4,0 -8,1 -10,4 -3,3 -5,6 -5,11z"/>
   <path id="38" class="fil4" d="M1534 1529l0 -52 8 0 0 8c2,-4 4,-7 5,-8 2,-1 4,-2 6,-2 3,0 6,1 9,3l-3 9c-2,-2 -4,-2 -6,-2 -2,0 -4,0 -6,1 -1,2 -2,3 -3,5 -1,4 -1,7 -1,11l0 27 -9 0z"/>
   <g>
    <rect class="fil0" x="1550" y="279" width="1431" height="1984"/>
    <rect class="fil1" x="1592" y="323" width="1345" height="1897"/>
   </g>
   <polygon class="fil4" points="1839,981 1839,908 1848,908 1848,981 "/>
   <path id="1" class="fil4" d="M1864 981l0 -53 8 0 0 8c4,-6 10,-9 17,-9 3,0 6,1 9,2 2,1 4,2 6,4 1,2 2,4 2,7 1,1 1,4 1,8l0 33 -9 0 0 -32c0,-4 0,-7 -1,-8 -1,-2 -2,-4 -4,-5 -2,-1 -4,-1 -6,-1 -4,0 -7,1 -10,3 -3,3 -4,7 -4,14l0 29 -9 0z"/>
   <path id="2" class="fil4" d="M1935 981l-20 -53 10 0 11 32c1,3 2,7 3,10 1,-3 2,-6 4,-10l11 -32 9 0 -20 53 -8 0z"/>
   <path id="3" class="fil4" d="M1968 954c0,-9 3,-16 8,-21 4,-4 10,-6 17,-6 7,0 13,2 17,7 5,5 7,11 7,20 0,6 -1,12 -3,16 -2,3 -5,6 -9,9 -4,2 -8,3 -12,3 -8,0 -14,-2 -18,-7 -5,-5 -7,-12 -7,-21zm9 0c0,7 1,12 4,16 3,3 7,5 12,5 4,0 8,-2 11,-5 3,-4 4,-9 4,-16 0,-6 -1,-11 -4,-15 -3,-3 -7,-5 -11,-5 -5,0 -9,2 -12,5 -3,4 -4,9 -4,15z"/>
   <path id="4" class="fil4" d="M2028 918l0 -10 8 0 0 10 -8 0zm0 63l0 -53 8 0 0 53 -8 0z"/>
   <path id="5" class="fil4" d="M2084 961l9 2c-1,6 -3,10 -7,14 -4,3 -9,5 -15,5 -7,0 -13,-2 -17,-7 -4,-5 -7,-12 -7,-20 0,-6 1,-11 3,-15 2,-4 5,-8 9,-10 4,-2 8,-3 12,-3 6,0 11,1 14,4 4,3 6,7 7,13l-8 1c-1,-4 -3,-6 -5,-8 -2,-2 -4,-3 -7,-3 -5,0 -8,2 -11,5 -3,3 -4,8 -4,15 0,7 1,13 4,16 2,3 6,5 10,5 4,0 7,-2 9,-4 2,-2 4,-5 4,-10z"/>
   <path id="6" class="fil4" d="M2137 964l9 1c-2,5 -4,9 -8,12 -4,3 -9,5 -15,5 -8,0 -14,-3 -18,-7 -5,-5 -7,-12 -7,-20 0,-9 2,-16 7,-21 4,-5 10,-7 17,-7 7,0 13,2 18,7 4,5 6,12 6,20 0,1 0,2 0,3l-39 0c0,5 2,10 5,13 3,3 6,5 11,5 3,0 6,-1 8,-3 3,-2 4,-5 6,-8zm-30 -15l30 0c-1,-4 -2,-7 -4,-10 -2,-3 -6,-5 -11,-5 -4,0 -7,2 -10,4 -3,3 -4,7 -5,11z"/>
   <path id="7" class="fil4" d="M2186 981l0 -73 15 0 17 52c1,4 3,8 3,10 1,-2 2,-6 4,-11l18 -51 12 0 0 73 -9 0 0 -61 -21 61 -9 0 -21 -62 0 62 -9 0z"/>
   <path id="8" class="fil4" d="M2304 974c-3,3 -6,5 -9,6 -3,1 -7,2 -10,2 -6,0 -10,-2 -14,-4 -3,-3 -4,-7 -4,-11 0,-3 0,-5 2,-7 1,-2 2,-4 4,-5 2,-2 4,-3 7,-3 1,-1 4,-1 7,-2 8,0 13,-1 16,-3 0,-1 0,-2 0,-2 0,-4 0,-6 -2,-8 -2,-2 -6,-3 -10,-3 -4,0 -8,1 -10,3 -2,1 -3,4 -4,7l-9 -1c1,-4 2,-7 4,-9 2,-2 5,-4 8,-5 4,-1 8,-2 12,-2 5,0 8,1 11,2 3,1 5,2 6,4 2,1 2,3 3,6 0,1 0,4 0,8l0 12c0,8 1,13 1,15 0,3 1,5 2,7l-9 0c-1,-2 -2,-4 -2,-7zm-1 -20c-3,2 -8,3 -14,4 -4,0 -6,1 -8,1 -1,1 -3,2 -3,3 -1,2 -2,3 -2,5 0,2 1,4 3,5 2,2 4,3 8,3 3,0 6,-1 9,-2 3,-2 5,-4 6,-7 1,-2 1,-4 1,-8l0 -4z"/>
   <path id="9" class="fil4" d="M2326 981l0 -53 8 0 0 8c4,-6 10,-9 17,-9 3,0 6,1 9,2 2,1 4,2 6,4 1,2 2,4 2,7 1,1 1,4 1,8l0 33 -9 0 0 -32c0,-4 0,-7 -1,-8 -1,-2 -2,-4 -4,-5 -2,-1 -4,-1 -6,-1 -4,0 -7,1 -10,3 -3,3 -4,7 -4,14l0 29 -9 0z"/>
   <path id="10" class="fil4" d="M2417 974c-3,3 -7,5 -10,6 -3,1 -6,2 -9,2 -6,0 -11,-2 -14,-4 -3,-3 -4,-7 -4,-11 0,-3 0,-5 1,-7 1,-2 3,-4 5,-5 2,-2 4,-3 6,-3 2,-1 5,-1 8,-2 7,0 13,-1 16,-3 0,-1 0,-2 0,-2 0,-4 -1,-6 -2,-8 -3,-2 -6,-3 -10,-3 -5,0 -8,1 -10,3 -2,1 -3,4 -4,7l-9 -1c1,-4 2,-7 4,-9 2,-2 4,-4 8,-5 3,-1 7,-2 12,-2 4,0 8,1 11,2 3,1 5,2 6,4 1,1 2,3 3,6 0,1 0,4 0,8l0 12c0,8 0,13 1,15 0,3 1,5 2,7l-9 0c-1,-2 -2,-4 -2,-7zm-1 -20c-3,2 -8,3 -14,4 -4,0 -7,1 -8,1 -2,1 -3,2 -4,3 -1,2 -1,3 -1,5 0,2 1,4 3,5 2,2 4,3 8,3 3,0 6,-1 9,-2 3,-2 4,-4 6,-7 1,-2 1,-4 1,-8l0 -4z"/>
   <path id="11" class="fil4" d="M2437 985l9 1c0,3 1,5 3,6 2,2 5,3 9,3 4,0 7,-1 10,-3 2,-1 3,-4 4,-7 1,-2 1,-5 1,-11 -4,4 -9,7 -15,7 -7,0 -13,-3 -17,-8 -4,-5 -6,-12 -6,-19 0,-5 1,-9 3,-14 2,-4 5,-7 8,-10 4,-2 8,-3 12,-3 6,0 12,3 16,8l0 -7 8 0 0 46c0,8 -1,14 -3,17 -1,3 -4,6 -8,8 -3,2 -8,3 -13,3 -6,0 -11,-1 -15,-4 -4,-3 -6,-7 -6,-13zm8 -31c0,6 1,11 4,15 2,3 6,4 10,4 4,0 8,-1 10,-4 3,-4 5,-8 5,-15 0,-7 -2,-11 -5,-15 -3,-3 -6,-5 -10,-5 -4,0 -7,2 -10,5 -3,3 -4,8 -4,15z"/>
   <path id="12" class="fil4" d="M2531 964l9 1c-1,5 -4,9 -8,12 -4,3 -9,5 -15,5 -7,0 -13,-3 -18,-7 -4,-5 -7,-12 -7,-20 0,-9 3,-16 7,-21 5,-5 11,-7 18,-7 7,0 13,2 17,7 5,5 7,12 7,20 0,1 0,2 0,3l-39 0c0,5 1,10 4,13 3,3 7,5 11,5 4,0 6,-1 9,-3 2,-2 4,-5 5,-8zm-29 -15l29 0c0,-4 -1,-7 -3,-10 -3,-3 -7,-5 -11,-5 -4,0 -8,2 -10,4 -3,3 -5,7 -5,11z"/>
   <path id="13" class="fil4" d="M2552 981l0 -53 8 0 0 8c1,-3 4,-5 6,-7 3,-1 6,-2 10,-2 4,0 7,1 9,2 3,2 4,4 5,7 5,-6 10,-9 17,-9 5,0 9,1 12,4 3,3 4,8 4,14l0 36 -9 0 0 -33c0,-4 0,-6 -1,-8 0,-2 -1,-3 -3,-4 -1,-1 -3,-1 -5,-1 -4,0 -7,1 -9,3 -3,3 -4,7 -4,12l0 31 -9 0 0 -34c0,-4 -1,-7 -2,-9 -2,-2 -4,-3 -7,-3 -3,0 -5,0 -7,2 -2,1 -4,3 -5,5 -1,3 -1,7 -1,11l0 28 -9 0z"/>
   <path id="14" class="fil4" d="M2672 964l9 1c-1,5 -4,9 -8,12 -4,3 -9,5 -15,5 -7,0 -14,-3 -18,-7 -5,-5 -7,-12 -7,-20 0,-9 3,-16 7,-21 5,-5 10,-7 18,-7 7,0 12,2 17,7 4,5 7,12 7,20 0,1 0,2 0,3l-40 0c1,5 2,10 5,13 3,3 7,5 11,5 3,0 6,-1 9,-3 2,-2 4,-5 5,-8zm-29 -15l29 0c0,-4 -1,-7 -3,-10 -3,-3 -7,-5 -11,-5 -4,0 -8,2 -11,4 -2,3 -4,7 -4,11z"/>
   <path id="15" class="fil4" d="M2693 981l0 -53 8 0 0 8c3,-6 9,-9 16,-9 3,0 6,1 9,2 3,1 5,2 6,4 1,2 2,4 3,7 0,1 0,4 0,8l0 33 -9 0 0 -32c0,-4 0,-7 -1,-8 0,-2 -2,-4 -3,-5 -2,-1 -4,-1 -7,-1 -3,0 -7,1 -9,3 -3,3 -5,7 -5,14l0 29 -8 0z"/>
   <path id="16" class="fil4" d="M2768 973l2 8c-3,0 -5,0 -7,0 -3,0 -6,0 -8,-1 -1,-1 -3,-2 -3,-4 -1,-2 -2,-5 -2,-11l0 -30 -6 0 0 -7 6 0 0 -13 9 -5 0 18 9 0 0 7 -9 0 0 31c0,2 1,4 1,5 0,0 1,1 1,1 1,1 2,1 3,1 1,0 3,0 4,0z"/>
   <path id="17" class="fil4" d="M1829 1207l28 -72 11 0 29 72 -11 0 -8 -22 -31 0 -8 22 -10 0zm21 -30l25 0 -8 -20c-2,-6 -4,-11 -5,-15 -1,5 -2,10 -4,14l-8 21z"/>
   <path id="18" class="fil4" d="M1938 1207l0 -8c-4,6 -10,9 -17,9 -3,0 -6,0 -8,-1 -3,-2 -5,-3 -6,-5 -2,-2 -3,-4 -3,-6 0,-2 -1,-5 -1,-9l0 -32 9 0 0 29c0,4 0,8 1,9 0,2 2,4 3,6 2,1 4,2 7,2 3,0 5,-1 8,-2 2,-2 4,-4 5,-6 1,-2 1,-6 1,-10l0 -28 9 0 0 52 -8 0z"/>
   <path id="19" class="fil4" d="M1994 1207l0 -6c-3,5 -8,7 -15,7 -4,0 -8,-1 -11,-3 -4,-2 -7,-6 -9,-10 -1,-4 -2,-9 -2,-14 0,-5 0,-10 2,-14 2,-5 5,-8 8,-10 4,-2 8,-3 12,-3 3,0 6,0 8,2 3,1 5,3 6,5l0 -26 9 0 0 72 -8 0zm-28 -26c0,7 1,12 4,15 3,3 6,5 10,5 4,0 7,-2 10,-5 3,-3 4,-8 4,-14 0,-7 -1,-13 -4,-16 -3,-3 -6,-5 -10,-5 -4,0 -8,2 -10,5 -3,3 -4,8 -4,15z"/>
   <path id="20" class="fil4" d="M2016 1145l0 -10 9 0 0 10 -9 0zm0 62l0 -52 9 0 0 52 -9 0z"/>
   <path id="21" class="fil4" d="M2058 1199l1 8c-2,1 -4,1 -6,1 -3,0 -6,-1 -8,-2 -2,-1 -3,-2 -4,-4 0,-1 -1,-5 -1,-10l0 -30 -6 0 0 -7 6 0 0 -13 9 -6 0 19 9 0 0 7 -9 0 0 30c0,3 0,5 1,5 0,1 1,2 1,2 1,0 2,1 3,1 1,0 3,0 4,-1z"/>
   <polygon id="22" class="fil4" points="2096,1207 2096,1135 2106,1135 2106,1199 2141,1199 2141,1207 "/>
   <path id="23" class="fil4" d="M2148 1181c0,-10 3,-17 8,-22 5,-4 10,-5 17,-5 7,0 13,2 18,7 4,4 7,11 7,19 0,7 -2,12 -4,16 -2,4 -5,7 -8,9 -4,2 -9,3 -13,3 -7,0 -13,-2 -18,-7 -4,-4 -7,-11 -7,-20zm9 0c0,7 2,12 5,15 3,3 6,5 11,5 4,0 8,-2 11,-5 3,-3 4,-8 4,-15 0,-7 -1,-12 -4,-15 -3,-3 -7,-5 -11,-5 -5,0 -8,2 -11,5 -3,3 -5,8 -5,15z"/>
   <path id="24" class="fil4" d="M2206 1212l9 1c0,3 1,4 3,6 2,1 5,2 9,2 4,0 7,-1 10,-2 2,-2 3,-4 4,-7 1,-2 1,-6 1,-12 -4,5 -9,7 -15,7 -7,0 -13,-2 -17,-8 -4,-5 -5,-11 -5,-18 0,-5 0,-10 2,-14 2,-4 5,-8 8,-10 4,-2 8,-3 12,-3 6,0 12,2 16,7l0 -6 8 0 0 45c0,8 -1,14 -3,17 -1,4 -4,7 -8,9 -3,2 -8,3 -13,3 -6,0 -11,-2 -15,-5 -4,-2 -6,-7 -6,-12zm8 -32c0,7 1,12 4,15 2,3 6,5 10,5 4,0 8,-2 10,-5 3,-3 5,-8 5,-15 0,-6 -2,-11 -5,-14 -3,-3 -6,-5 -10,-5 -4,0 -7,2 -10,5 -3,3 -4,8 -4,14z"/>
   <path id="25" class="fil4" d="M2261 1181c0,-10 3,-17 8,-22 5,-4 10,-5 17,-5 7,0 13,2 17,7 5,4 7,11 7,19 0,7 -1,12 -3,16 -2,4 -5,7 -9,9 -4,2 -8,3 -12,3 -8,0 -14,-2 -18,-7 -5,-4 -7,-11 -7,-20zm9 0c0,7 2,12 5,15 2,3 6,5 11,5 4,0 8,-2 11,-5 3,-3 4,-8 4,-15 0,-7 -1,-12 -4,-15 -3,-3 -7,-5 -11,-5 -5,0 -9,2 -11,5 -3,3 -5,8 -5,15z"/>
   <path id="26" class="fil4" d="M2317 1192l9 -2c1,4 2,6 4,8 2,2 6,3 10,3 4,0 7,-1 9,-2 2,-2 3,-4 3,-6 0,-2 -1,-4 -3,-5 -1,-1 -4,-2 -9,-3 -7,-2 -11,-3 -14,-4 -2,-2 -4,-3 -5,-5 -2,-2 -2,-5 -2,-7 0,-3 0,-5 1,-7 1,-2 3,-4 5,-5 1,-1 3,-2 5,-2 3,-1 5,-1 8,-1 4,0 8,0 11,1 3,1 5,3 7,5 1,2 2,5 3,8l-9 2c0,-3 -1,-5 -3,-7 -2,-1 -5,-2 -8,-2 -4,0 -7,0 -9,2 -2,1 -3,3 -3,5 0,1 1,2 1,3 1,1 2,1 4,2 1,0 3,1 8,2 6,2 10,3 13,4 2,2 4,3 6,5 1,2 2,5 2,8 0,3 -1,6 -3,8 -1,3 -4,5 -7,6 -3,2 -7,2 -11,2 -7,0 -12,-1 -16,-4 -4,-3 -6,-7 -7,-12z"/>
   <path id="27" class="fil4" d="M1834 1410l9 0c0,3 1,6 3,9 1,2 4,4 7,5 4,2 7,2 11,2 4,0 7,0 10,-1 3,-1 5,-3 6,-5 2,-2 2,-4 2,-6 0,-2 0,-4 -2,-6 -1,-2 -3,-3 -6,-4 -2,-1 -6,-2 -13,-4 -7,-1 -11,-3 -14,-4 -4,-2 -6,-4 -8,-7 -2,-3 -2,-6 -2,-9 0,-4 1,-7 3,-10 2,-3 5,-6 9,-8 4,-1 8,-2 13,-2 6,0 10,1 14,3 5,1 8,4 10,7 2,4 3,7 3,12l-9 0c0,-4 -2,-8 -5,-10 -3,-2 -7,-4 -12,-4 -6,0 -10,2 -13,4 -3,2 -4,4 -4,7 0,3 1,5 3,7 2,1 6,3 14,5 8,2 13,3 16,5 4,2 8,4 10,7 2,3 3,6 3,10 0,4 -1,8 -4,11 -2,4 -5,6 -9,8 -4,2 -9,3 -14,3 -7,0 -12,-1 -17,-3 -4,-2 -8,-5 -10,-9 -3,-3 -4,-8 -4,-13z"/>
   <path id="28" class="fil4" d="M1904 1434l0 -73 8 0 0 26c5,-5 10,-7 16,-7 4,0 7,1 10,2 3,2 5,4 6,7 2,2 2,6 2,11l0 34 -9 0 0 -33c0,-5 -1,-8 -3,-10 -1,-2 -4,-3 -8,-3 -2,0 -5,0 -7,2 -2,1 -4,3 -5,5 -1,3 -2,6 -2,10l0 29 -8 0z"/>
   <path id="29" class="fil4" d="M1994 1427c-3,3 -6,5 -9,6 -3,1 -7,2 -10,2 -6,0 -10,-2 -13,-4 -4,-3 -5,-7 -5,-11 0,-3 1,-5 2,-7 1,-2 2,-4 4,-5 2,-2 4,-3 7,-3 1,-1 4,-1 8,-2 7,0 12,-1 16,-3 0,-1 0,-2 0,-2 0,-4 -1,-6 -3,-8 -2,-2 -6,-3 -10,-3 -4,0 -7,1 -9,3 -2,1 -4,4 -5,7l-9 -1c1,-3 3,-6 4,-9 2,-2 5,-4 8,-5 4,-1 8,-2 12,-2 5,0 8,1 11,2 3,1 5,2 6,4 2,1 3,3 3,6 0,1 1,4 1,8l0 12c0,8 0,13 0,15 1,3 1,5 2,7l-9 0c-1,-2 -1,-4 -2,-7zm0 -20c-4,2 -8,3 -15,4 -4,0 -6,1 -8,2 -1,0 -2,1 -3,2 -1,2 -2,3 -2,5 0,2 1,4 3,6 2,1 5,2 8,2 3,0 7,-1 9,-2 3,-2 5,-4 6,-6 1,-2 2,-5 2,-9l0 -4z"/>
   <path id="30" class="fil4" d="M2016 1434l0 -53 8 0 0 8c2,-4 4,-6 6,-7 2,-1 4,-2 6,-2 3,0 6,1 9,3l-3 8c-3,-1 -5,-2 -7,-2 -2,0 -4,1 -5,2 -2,1 -3,3 -3,5 -1,3 -2,7 -2,10l0 28 -9 0z"/>
   <path id="31" class="fil4" d="M2086 1417l9 1c-1,5 -4,9 -8,12 -4,3 -9,5 -15,5 -8,0 -14,-2 -18,-7 -5,-5 -7,-12 -7,-20 0,-9 2,-16 7,-21 5,-5 10,-7 18,-7 7,0 12,2 17,7 4,5 7,12 7,20 0,1 -1,2 -1,3l-39 0c1,6 2,10 5,13 3,3 7,5 11,5 3,0 6,-1 8,-3 3,-2 5,-4 6,-8zm-29 -15l29 0c0,-4 -1,-7 -3,-10 -3,-3 -7,-5 -11,-5 -4,0 -8,2 -11,4 -2,3 -4,7 -4,11z"/>
   <path id="32" class="fil4" d="M1834 1637l9 -1c0,4 1,7 3,9 1,2 4,4 7,6 4,1 7,2 11,2 4,0 7,-1 10,-2 3,-1 5,-2 6,-4 2,-2 2,-4 2,-6 0,-3 0,-5 -2,-6 -1,-2 -3,-3 -6,-5 -2,0 -6,-2 -13,-3 -7,-2 -11,-3 -14,-5 -4,-1 -6,-4 -8,-6 -2,-3 -2,-6 -2,-9 0,-4 1,-8 3,-11 2,-3 5,-5 9,-7 4,-2 8,-3 13,-3 6,0 10,1 14,3 5,2 8,4 10,8 2,3 3,7 3,11l-9 1c0,-5 -2,-8 -5,-10 -3,-3 -7,-4 -12,-4 -6,0 -10,1 -13,3 -3,2 -4,5 -4,8 0,3 1,5 3,6 2,2 6,4 14,6 8,1 13,3 16,4 4,2 8,5 10,8 2,3 3,6 3,10 0,4 -1,7 -4,11 -2,3 -5,6 -9,8 -4,2 -9,3 -14,3 -7,0 -12,-1 -17,-3 -4,-2 -8,-5 -10,-9 -3,-4 -4,-8 -4,-13z"/>
   <path id="33" class="fil4" d="M1939 1643l10 1c-2,6 -4,10 -8,13 -4,3 -9,4 -15,4 -8,0 -14,-2 -19,-7 -4,-4 -6,-11 -6,-20 0,-8 2,-15 6,-20 5,-5 11,-7 18,-7 7,0 13,2 17,7 5,5 7,11 7,20 0,0 0,1 0,2l-39 0c0,6 2,10 5,14 3,3 6,4 11,4 3,0 6,-1 8,-2 2,-2 4,-5 5,-9zm-29 -14l30 0c-1,-4 -2,-8 -4,-10 -3,-3 -6,-5 -11,-5 -4,0 -7,1 -10,4 -3,3 -4,6 -5,11z"/>
   <path id="34" class="fil4" d="M1979 1652l2 8c-3,1 -5,1 -7,1 -3,0 -6,0 -8,-2 -1,-1 -3,-2 -3,-4 -1,-1 -2,-5 -2,-10l0 -30 -6 0 0 -7 6 0 0 -13 9 -6 0 19 9 0 0 7 -9 0 0 30c0,3 1,5 1,5 0,1 1,2 1,2 1,0 2,1 3,1 1,0 3,0 4,-1z"/>
   <path id="35" class="fil4" d="M2007 1652l2 8c-3,1 -5,1 -7,1 -3,0 -6,0 -8,-2 -1,-1 -3,-2 -3,-4 -1,-1 -1,-5 -1,-10l0 -30 -7 0 0 -7 7 0 0 -13 9 -6 0 19 8 0 0 7 -8 0 0 30c0,3 0,5 0,5 0,1 1,2 2,2 0,0 1,1 3,1 1,0 2,0 3,-1z"/>
   <path id="36" class="fil4" d="M2016 1598l0 -10 9 0 0 10 -9 0zm0 62l0 -52 9 0 0 52 -9 0z"/>
   <path id="37" class="fil4" d="M2039 1660l0 -52 8 0 0 7c4,-6 9,-8 17,-8 3,0 6,0 8,1 3,1 5,3 6,5 2,2 2,4 3,6 0,2 0,5 0,9l0 32 -8 0 0 -32c0,-3 -1,-6 -1,-8 -1,-2 -2,-3 -4,-4 -2,-1 -4,-2 -6,-2 -4,0 -7,1 -10,4 -3,2 -4,7 -4,14l0 28 -9 0z"/>
   <path id="38" class="fil4" d="M2094 1665l8 1c1,3 2,4 3,6 2,1 5,2 9,2 4,0 8,-1 10,-2 2,-2 4,-4 4,-7 1,-2 1,-6 1,-12 -4,5 -9,7 -15,7 -7,0 -12,-2 -16,-8 -4,-5 -6,-11 -6,-18 0,-5 1,-10 2,-14 2,-4 5,-8 8,-10 4,-2 8,-3 13,-3 6,0 11,2 15,7l0 -6 8 0 0 45c0,8 -1,14 -2,18 -2,3 -5,6 -8,8 -4,2 -8,3 -14,3 -6,0 -11,-2 -15,-5 -4,-2 -6,-7 -5,-12zm7 -32c0,7 1,12 4,15 3,3 6,5 10,5 4,0 8,-2 11,-5 2,-3 4,-8 4,-15 0,-6 -2,-11 -5,-14 -2,-3 -6,-5 -10,-5 -4,0 -7,2 -10,5 -3,3 -4,8 -4,14z"/>
   <polygon id="39" class="fil4" points="1839,1887 1839,1814 1848,1814 1848,1887 "/>
   <path id="40" class="fil4" d="M1864 1887l0 -53 8 0 0 8c4,-6 10,-9 17,-9 3,0 6,1 9,2 2,1 4,2 6,4 1,2 2,4 2,7 1,2 1,4 1,9l0 32 -9 0 0 -32c0,-4 0,-7 -1,-8 -1,-2 -2,-4 -4,-5 -2,-1 -4,-1 -6,-1 -4,0 -7,1 -10,3 -3,3 -4,7 -4,14l0 29 -9 0z"/>
   <path id="41" class="fil4" d="M1935 1887l-20 -53 10 0 11 32c1,3 2,7 3,10 1,-2 2,-6 4,-10l11 -32 9 0 -20 53 -8 0z"/>
   <path id="42" class="fil4" d="M2007 1870l9 1c-1,5 -4,10 -8,12 -4,3 -9,5 -15,5 -7,0 -14,-2 -18,-7 -5,-5 -7,-12 -7,-20 0,-9 3,-16 7,-21 5,-4 11,-7 18,-7 7,0 12,2 17,7 4,5 7,12 7,20 0,1 0,2 0,3l-40 0c1,6 2,10 5,13 3,3 7,5 11,5 3,0 6,-1 9,-3 2,-2 4,-4 5,-8zm-29 -15l29 0c0,-4 -1,-7 -3,-9 -3,-4 -7,-6 -11,-6 -4,0 -8,2 -11,4 -2,3 -4,7 -4,11z"/>
   <path id="43" class="fil4" d="M2028 1887l0 -53 8 0 0 8c3,-6 9,-9 16,-9 3,0 6,1 9,2 3,1 5,2 6,4 1,2 2,4 3,7 0,2 0,4 0,9l0 32 -9 0 0 -32c0,-4 0,-7 -1,-8 0,-2 -2,-4 -3,-5 -2,-1 -4,-1 -7,-1 -3,0 -7,1 -9,3 -3,3 -5,7 -5,14l0 29 -8 0z"/>
   <path id="44" class="fil4" d="M2103 1879l2 8c-3,0 -5,1 -7,1 -3,0 -6,-1 -8,-2 -1,-1 -3,-2 -3,-4 -1,-2 -2,-5 -2,-11l0 -30 -6 0 0 -7 6 0 0 -13 9 -5 0 18 9 0 0 7 -9 0 0 31c0,2 1,4 1,5 0,1 1,1 1,2 1,0 2,0 3,0 1,0 3,0 4,0z"/>
   <path id="45" class="fil4" d="M2109 1861c0,-10 2,-17 8,-22 4,-4 10,-6 16,-6 8,0 14,2 18,7 5,5 7,11 7,20 0,7 -1,12 -3,16 -2,4 -5,7 -9,9 -4,2 -8,3 -13,3 -7,0 -13,-2 -17,-7 -5,-5 -7,-12 -7,-20zm9 0c0,6 1,11 4,15 3,3 7,5 11,5 5,0 9,-2 12,-5 2,-4 4,-9 4,-16 0,-6 -2,-11 -5,-14 -2,-4 -6,-6 -11,-6 -4,0 -8,2 -11,5 -3,4 -4,9 -4,16z"/>
   <path id="46" class="fil4" d="M2168 1887l0 -53 8 0 0 8c2,-3 4,-6 6,-7 2,-1 4,-2 6,-2 3,0 6,1 9,3l-3 8c-2,-1 -4,-2 -7,-2 -2,0 -3,1 -5,2 -1,1 -3,3 -3,5 -1,3 -2,7 -2,10l0 28 -9 0z"/>
   <path id="47" class="fil4" d="M2202 1907l-1 -8c2,0 4,1 5,1 2,0 4,-1 5,-1 1,-1 2,-2 3,-3 0,-1 1,-3 2,-7 1,0 1,-1 1,-2l-20 -53 10 0 11 31c1,3 2,7 4,12 1,-4 2,-8 3,-12l11 -31 9 0 -20 54c-2,5 -3,9 -5,12 -1,3 -3,5 -5,6 -2,1 -5,2 -7,2 -2,0 -4,0 -6,-1z"/>
   <path class="fil2" d="M1711 612l18 -1c1,6 3,10 6,13 4,3 8,4 14,4 6,0 10,-1 13,-4 3,-2 4,-5 4,-9 0,-2 0,-4 -1,-5 -2,-2 -4,-3 -7,-4 -2,-1 -7,-2 -15,-4 -9,-2 -16,-5 -20,-9 -6,-5 -8,-11 -8,-18 0,-5 1,-9 3,-13 3,-4 7,-7 12,-9 5,-3 11,-4 18,-4 11,0 19,3 25,8 6,5 9,12 9,20l-18 1c-1,-5 -3,-8 -5,-10 -3,-2 -7,-3 -12,-3 -5,0 -9,1 -12,3 -2,1 -3,3 -3,6 0,2 1,3 3,5 2,2 8,4 17,6 8,2 15,4 19,7 5,2 8,5 10,9 3,4 4,9 4,14 0,6 -2,10 -4,15 -3,4 -7,8 -13,10 -5,2 -12,3 -19,3 -12,0 -21,-2 -27,-8 -6,-5 -10,-13 -11,-23z"/>
   <path id="1" class="fil2" d="M1844 642l0 -10c-3,3 -6,6 -10,8 -4,2 -8,3 -12,3 -4,0 -8,-1 -12,-3 -3,-1 -6,-4 -8,-8 -1,-3 -2,-8 -2,-14l0 -42 17 0 0 30c0,10 1,15 1,17 1,2 2,4 4,5 2,1 4,2 6,2 3,0 6,-1 8,-2 3,-2 4,-4 5,-6 1,-3 2,-9 2,-18l0 -28 17 0 0 66 -16 0z"/>
   <path id="2" class="fil2" d="M1877 576l16 0 0 10c3,-4 5,-6 9,-8 4,-2 8,-3 12,-3 8,0 14,3 19,9 6,6 8,14 8,25 0,11 -2,19 -8,25 -5,6 -12,9 -19,9 -4,0 -7,0 -10,-2 -3,-1 -6,-4 -9,-7l0 33 -18 0 0 -91zm17 32c0,7 2,13 5,16 3,4 6,6 10,6 4,0 8,-2 10,-5 3,-4 4,-9 4,-16 0,-7 -1,-12 -4,-16 -2,-3 -6,-5 -10,-5 -4,0 -8,2 -10,5 -3,3 -5,8 -5,15z"/>
   <path id="3" class="fil2" d="M1993 621l18 3c-3,6 -6,11 -11,14 -5,4 -11,5 -18,5 -11,0 -20,-3 -25,-11 -5,-6 -7,-13 -7,-23 0,-10 3,-19 9,-25 5,-6 12,-9 21,-9 10,0 18,3 23,9 6,7 9,17 8,30l-43 0c0,5 1,9 4,12 3,3 6,4 10,4 3,0 5,0 7,-2 2,-1 3,-4 4,-7zm1 -18c0,-5 -1,-9 -4,-11 -2,-3 -5,-4 -9,-4 -4,0 -7,1 -9,4 -3,3 -4,7 -4,11l26 0z"/>
   <path id="4" class="fil2" d="M2042 642l-17 0 0 -66 16 0 0 9c3,-4 5,-7 7,-8 3,-2 5,-2 8,-2 4,0 8,1 11,3l-5 15c-3,-2 -6,-3 -8,-3 -3,0 -5,1 -6,2 -2,2 -3,4 -4,7 -1,4 -2,11 -2,22l0 21z"/>
   <path id="5" class="fil2" d="M2187 642l-19 0 -8 -21 -37 0 -7 21 -20 0 36 -91 19 0 36 91zm-33 -36l-13 -34 -12 34 25 0z"/>
   <path id="6" class="fil2" d="M2257 642l-16 0 0 -10c-2,4 -6,7 -9,9 -4,1 -8,2 -11,2 -8,0 -14,-3 -20,-9 -5,-6 -8,-14 -8,-25 0,-11 3,-20 8,-26 5,-6 12,-8 20,-8 7,0 14,3 19,9l0 -33 17 0 0 91zm-46 -34c0,7 1,12 3,15 3,4 7,7 12,7 4,0 7,-2 10,-5 3,-4 4,-9 4,-16 0,-7 -1,-13 -4,-16 -3,-3 -6,-5 -11,-5 -4,0 -7,2 -10,5 -3,3 -4,8 -4,15z"/>
   <path id="7" class="fil2" d="M2273 576l16 0 0 9c6,-7 13,-10 21,-10 4,0 7,0 10,2 4,2 6,5 8,8 3,-3 6,-6 9,-8 4,-2 7,-2 11,-2 5,0 9,1 12,2 4,2 6,5 8,9 1,3 2,7 2,14l0 42 -18 0 0 -38c0,-6 0,-11 -1,-12 -2,-3 -5,-4 -8,-4 -2,0 -5,1 -7,2 -2,2 -3,4 -4,7 -1,2 -2,7 -2,13l0 32 -17 0 0 -36c0,-7 -1,-11 -1,-13 -1,-1 -2,-3 -3,-4 -1,-1 -3,-1 -5,-1 -3,0 -5,1 -8,2 -2,1 -3,4 -4,6 -1,3 -2,8 -2,14l0 32 -17 0 0 -66z"/>
   <path id="8" class="fil2" d="M2387 567l0 -16 17 0 0 16 -17 0zm0 75l0 -66 17 0 0 66 -17 0z"/>
   <path id="9" class="fil2" d="M2482 642l-17 0 0 -34c0,-7 -1,-11 -1,-14 -1,-2 -2,-3 -4,-4 -2,-2 -4,-2 -6,-2 -3,0 -6,1 -8,2 -3,2 -4,4 -5,7 -1,3 -2,8 -2,15l0 30 -17 0 0 -66 16 0 0 10c6,-8 13,-11 22,-11 4,0 7,0 10,2 4,1 6,3 8,5 1,2 2,4 3,7 1,3 1,7 1,12l0 41z"/>
   <path class="fil0" d="M165 946l0 0c2,-2 4,-2 6,0l13 13c2,1 5,1 7,0l34 -35c2,-2 5,-2 7,0l0 0c2,2 2,5 0,7 -13,14 -28,28 -41,41 -2,2 -5,2 -7,0l-20 -19c-1,-2 -1,-5 1,-7 0,0 0,0 0,0z"/>
   <path class="fil5" d="M165 1158l0 0c2,-2 4,-2 6,0l13 13c2,1 5,1 7,0l34 -35c2,-2 5,-2 7,0l0 0c2,2 2,5 0,7 -13,14 -28,28 -41,42 -2,1 -5,1 -7,0l-20 -20c-1,-2 -1,-5 1,-7 0,0 0,0 0,0z"/>
   <path class="fil5" d="M165 1405l0 0c2,-1 4,-1 6,0l13 13c2,2 5,2 7,0l34 -35c2,-1 5,-1 7,0l0 1c2,1 2,4 0,6 -13,14 -28,28 -41,42 -2,2 -5,2 -7,0l-20 -20c-1,-2 -1,-5 1,-7 0,0 0,0 0,0z"/>
   <path class="fil0" d="M165 1624l0 0c2,-2 4,-2 6,0l13 12c2,2 5,2 7,0l34 -34c2,-2 5,-2 7,0l0 0c2,2 2,5 0,7 -13,13 -28,28 -41,41 -2,2 -5,2 -7,0l-20 -19c-1,-2 -1,-5 1,-7 0,0 0,0 0,0z"/>
   <path class="fil0" d="M165 1853l0 0c2,-2 4,-2 6,0l13 13c2,1 5,1 7,0l34 -35c2,-2 5,-2 7,0l0 0c2,2 2,5 0,7 -13,14 -28,28 -41,42 -2,1 -5,1 -7,0l-20 -20c-1,-2 -1,-5 1,-7 0,0 0,0 0,0z"/>
   <g>
    <path class="fil0" d="M915 585l0 0c2,-2 5,-2 7,0l12 12c2,2 5,2 7,0l34 -34c2,-2 5,-2 7,0l0 0c2,2 2,5 0,7 -13,13 -27,28 -41,41 -2,2 -5,2 -7,0l-19 -20c-2,-1 -2,-4 0,-6 0,0 0,0 0,0z"/>
    <path class="fil0" d="M915 797l0 0c2,-2 5,-2 7,0l12 12c2,2 5,2 7,0l34 -34c2,-2 5,-2 7,0l0 0c2,2 2,5 0,7 -13,13 -27,28 -41,41 -2,2 -5,2 -7,0l-19 -19c-2,-2 -2,-5 0,-7 0,0 0,0 0,0z"/>
    <path class="fil0" d="M915 1044l0 0c2,-2 5,-2 7,0l12 13c2,1 5,1 7,0l34 -35c2,-2 5,-2 7,0l0 0c2,2 2,5 0,7 -13,14 -27,28 -41,42 -2,1 -5,1 -7,0l-19 -20c-2,-2 -2,-5 0,-7 0,0 0,0 0,0z"/>
    <path class="fil5" d="M915 1263l0 0c2,-2 5,-2 7,0l12 12c2,2 5,2 7,0l34 -34c2,-2 5,-2 7,0l0 0c2,2 2,5 0,6 -13,14 -27,28 -41,42 -2,2 -5,2 -7,0l-19 -20c-2,-2 -2,-5 0,-6 0,0 0,0 0,0z"/>
    <path class="fil5" d="M915 1492l0 0c2,-2 5,-2 7,0l12 12c2,2 5,2 7,0l34 -34c2,-2 5,-2 7,0l0 0c2,2 2,5 0,7 -13,13 -27,28 -41,41 -2,2 -5,2 -7,0l-19 -19c-2,-2 -2,-5 0,-7 0,0 0,0 0,0z"/>
   </g>
   <g>
    <path class="fil0" d="M1714 946l0 0c2,-2 5,-2 7,0l12 13c2,1 5,1 7,0l35 -35c1,-2 4,-2 6,0l1 0c1,2 1,5 0,7 -14,14 -28,28 -42,41 -2,2 -4,2 -6,0l-20 -19c-2,-2 -2,-5 0,-7 0,0 0,0 0,0z"/>
    <path class="fil0" d="M1714 1158l0 0c2,-2 5,-2 7,0l12 13c2,1 5,1 7,0l35 -35c1,-2 4,-2 6,0l1 0c1,2 1,5 0,7 -14,14 -28,28 -42,42 -2,1 -4,1 -6,0l-20 -20c-2,-2 -2,-5 0,-7 0,0 0,0 0,0z"/>
    <path class="fil0" d="M1714 1405l0 0c2,-1 5,-1 7,0l12 13c2,2 5,2 7,0l35 -35c1,-1 4,-1 6,0l1 1c1,1 1,4 0,6 -14,14 -28,28 -42,42 -2,2 -4,2 -6,0l-20 -20c-2,-2 -2,-5 0,-7 0,0 0,0 0,0z"/>
    <path class="fil0" d="M1714 1624l0 0c2,-2 5,-2 7,0l12 12c2,2 5,2 7,0l35 -34c1,-2 4,-2 6,0l1 0c1,2 1,5 0,7 -14,13 -28,28 -42,41 -2,2 -4,2 -6,0l-20 -19c-2,-2 -2,-5 0,-7 0,0 0,0 0,0z"/>
    <path class="fil0" d="M1714 1853l0 0c2,-2 5,-2 7,0l12 13c2,1 5,1 7,0l35 -35c1,-2 4,-2 6,0l1 0c1,2 1,5 0,7 -14,14 -28,28 -42,42 -2,1 -4,1 -6,0l-20 -20c-2,-2 -2,-5 0,-7 0,0 0,0 0,0z"/>
   </g>
  </g>
 </g>
</svg>
