<svg width="407" height="288" viewBox="0 0 407 288" fill="none" xmlns="http://www.w3.org/2000/svg">
<path d="M32.925 143.888L34.2472 143.674C34.3228 144.205 34.5288 144.615 34.8688 144.898C35.2088 145.181 35.6862 145.322 36.294 145.322C36.9088 145.322 37.3655 145.198 37.6643 144.946C37.9597 144.698 38.1108 144.401 38.1108 144.064C38.1108 143.76 37.9768 143.522 37.709 143.35C37.5201 143.229 37.0667 143.081 36.3421 142.895C35.3634 142.647 34.6868 142.433 34.3056 142.253C33.9278 142.071 33.6428 141.823 33.4471 141.502C33.2513 141.181 33.1551 140.83 33.1551 140.443C33.1551 140.088 33.2341 139.764 33.3955 139.464C33.5569 139.164 33.7733 138.913 34.0515 138.716C34.2575 138.564 34.5426 138.433 34.8997 138.327C35.2603 138.22 35.6415 138.168 36.0536 138.168C36.6718 138.168 37.211 138.254 37.678 138.437C38.1485 138.613 38.492 138.858 38.7152 139.164C38.935 139.471 39.0895 139.881 39.1719 140.395L37.8669 140.578C37.8085 140.164 37.6368 139.844 37.3518 139.613C37.0667 139.378 36.6684 139.264 36.1498 139.264C35.5385 139.264 35.0989 139.368 34.8379 139.571C34.5769 139.775 34.4464 140.012 34.4464 140.285C34.4464 140.457 34.4979 140.616 34.6078 140.754C34.7177 140.899 34.886 141.016 35.1195 141.112C35.2535 141.164 35.645 141.278 36.2975 141.454C37.2419 141.705 37.8978 141.916 38.2756 142.074C38.6499 142.236 38.9418 142.471 39.1548 142.778C39.3711 143.084 39.4776 143.467 39.4776 143.926C39.4776 144.37 39.3471 144.788 39.0861 145.184C38.8251 145.577 38.4507 145.884 37.9631 146.098C37.472 146.315 36.9156 146.422 36.2975 146.422C35.2741 146.422 34.4911 146.208 33.9553 145.784C33.4161 145.356 33.0762 144.725 32.925 143.888Z" fill="#606062"/>
<path d="M46.2121 146.253V145.077C45.5974 145.974 44.7663 146.422 43.7154 146.422C43.2518 146.422 42.819 146.332 42.4172 146.156C42.012 145.974 41.7132 145.75 41.5209 145.481C41.3251 145.208 41.1878 144.877 41.1088 144.488C41.0573 144.222 41.0264 143.805 41.0264 143.236V138.333H42.3657V142.716C42.3657 143.415 42.3932 143.888 42.4481 144.129C42.5306 144.484 42.7091 144.76 42.9805 144.96C43.2518 145.16 43.5849 145.263 43.9867 145.263C44.3885 145.263 44.7628 145.16 45.1131 144.953C45.46 144.75 45.7107 144.467 45.8549 144.112C46.0026 143.76 46.0747 143.243 46.0747 142.567V138.333H47.4106V146.253H46.2121Z" fill="#606062"/>
<path d="M49.5125 149.29V138.333H50.7282V139.375C51.0132 138.971 51.3395 138.671 51.7001 138.468C52.0607 138.268 52.5002 138.168 53.0119 138.168C53.6885 138.168 54.2792 138.34 54.7943 138.689C55.3095 139.033 55.6975 139.523 55.9585 140.154C56.2195 140.788 56.3535 141.481 56.3535 142.236C56.3535 143.043 56.2092 143.77 55.9208 144.419C55.6288 145.063 55.2099 145.56 54.657 145.905C54.1075 146.249 53.5271 146.422 52.9192 146.422C52.4728 146.422 52.0744 146.329 51.7207 146.139C51.3669 145.953 51.0785 145.715 50.8484 145.429V149.29H49.5125ZM50.7282 142.343C50.7282 143.357 50.9342 144.108 51.3429 144.594C51.7516 145.077 52.2495 145.322 52.8299 145.322C53.4241 145.322 53.9289 145.07 54.3513 144.567C54.7737 144.064 54.9832 143.284 54.9832 142.229C54.9832 141.223 54.7806 140.471 54.365 139.971C53.9529 139.468 53.4618 139.22 52.8883 139.22C52.3217 139.22 51.8203 139.485 51.3841 140.019C50.9445 140.55 50.7282 141.326 50.7282 142.343Z" fill="#606062"/>
<path d="M57.9675 149.29V138.333H59.1833V139.375C59.4683 138.971 59.7911 138.671 60.1551 138.468C60.5157 138.268 60.9519 138.168 61.467 138.168C62.1401 138.168 62.7343 138.34 63.2494 138.689C63.7611 139.033 64.1492 139.523 64.4136 140.154C64.6746 140.788 64.8051 141.481 64.8051 142.236C64.8051 143.043 64.6609 143.77 64.3724 144.419C64.0839 145.063 63.6649 145.56 63.112 145.905C62.5626 146.249 61.9822 146.422 61.3743 146.422C60.9279 146.422 60.526 146.329 60.1758 146.139C59.822 145.953 59.5301 145.715 59.3035 145.429V149.29H57.9675ZM59.1833 142.343C59.1833 143.357 59.3859 144.108 59.7945 144.594C60.2067 145.077 60.7012 145.322 61.285 145.322C61.8791 145.322 62.384 145.07 62.8064 144.567C63.2288 144.064 63.4383 143.284 63.4383 142.229C63.4383 141.223 63.2322 140.471 62.8201 139.971C62.408 139.468 61.9169 139.22 61.3434 139.22C60.7767 139.22 60.2753 139.485 59.8392 140.019C59.3996 140.55 59.1833 141.326 59.1833 142.343Z" fill="#606062"/>
<path d="M65.918 142.295C65.918 140.833 66.3232 139.747 67.1371 139.044C67.8137 138.458 68.6413 138.168 69.6167 138.168C70.6984 138.168 71.5845 138.523 72.2748 139.233C72.9616 139.944 73.305 140.93 73.305 142.181C73.305 143.198 73.1539 143.998 72.8483 144.581C72.5461 145.163 72.103 145.615 71.5192 145.939C70.9388 146.263 70.3035 146.422 69.6167 146.422C68.5143 146.422 67.6214 146.067 66.9379 145.36C66.258 144.65 65.918 143.626 65.918 142.295ZM67.2848 142.298C67.2848 143.308 67.508 144.067 67.9476 144.567C68.3906 145.07 68.947 145.322 69.6167 145.322C70.2795 145.322 70.8324 145.07 71.2754 144.563C71.7184 144.06 71.9382 143.288 71.9382 142.253C71.9382 141.278 71.715 140.537 71.272 140.037C70.8289 139.533 70.276 139.282 69.6167 139.282C68.947 139.282 68.3906 139.53 67.9476 140.03C67.508 140.533 67.2848 141.288 67.2848 142.298Z" fill="#606062"/>
<path d="M74.8572 146.253V138.333H76.0592V139.547C76.3648 138.985 76.6499 138.613 76.9109 138.437C77.1719 138.254 77.4569 138.168 77.7694 138.168C78.2193 138.168 78.6795 138.309 79.1466 138.592L78.6692 139.83C78.3429 139.647 78.0201 139.554 77.6973 139.554C77.4054 139.554 77.1444 139.644 76.9143 139.819C76.6842 139.995 76.5194 140.24 76.4198 140.55C76.2687 141.026 76.1965 141.55 76.1965 142.116V146.253H74.8572Z" fill="#606062"/>
<path d="M82.8384 145.056L83.0204 146.242C82.6461 146.318 82.3095 146.36 82.0142 146.36C81.53 146.36 81.1556 146.284 80.8878 146.129C80.6233 145.974 80.4344 145.774 80.3245 145.522C80.2181 145.27 80.1631 144.739 80.1631 143.936V139.371H79.1741V138.333H80.1631V136.375L81.5025 135.568V138.333H82.8384V139.371H81.5025V144.012C81.5025 144.394 81.5231 144.643 81.5712 144.75C81.6192 144.86 81.6948 144.946 81.8013 145.012C81.9077 145.077 82.0588 145.108 82.2546 145.108C82.4023 145.108 82.598 145.091 82.8384 145.056Z" fill="#606062"/>
<path d="M91.8051 145.029C91.4823 145.405 91.1217 145.705 90.7233 145.932C90.3249 146.156 89.9231 146.27 89.5248 146.27C89.0852 146.27 88.6559 146.139 88.2369 145.884C87.8214 145.622 87.4848 145.226 87.2238 144.691C86.9628 144.153 86.8323 143.564 86.8323 142.923C86.8323 142.133 87.0349 141.34 87.4402 140.547C87.842 139.758 88.3434 139.161 88.9409 138.761C89.5385 138.365 90.1223 138.168 90.6855 138.168C91.1148 138.168 91.5269 138.278 91.9184 138.506C92.3099 138.73 92.6465 139.078 92.9281 139.537L93.1891 138.378H94.5113L93.4398 143.385C93.2921 144.081 93.2166 144.467 93.2166 144.54C93.2166 144.674 93.2681 144.791 93.3711 144.888C93.4707 144.984 93.5943 145.033 93.7386 145.033C93.9996 145.033 94.3464 144.884 94.7723 144.581C95.3355 144.184 95.7854 143.653 96.1151 142.985C96.4413 142.316 96.6062 141.63 96.6062 140.919C96.6062 140.092 96.3933 139.32 95.9708 138.603C95.5484 137.882 94.9165 137.306 94.0751 136.875C93.2372 136.444 92.3065 136.227 91.29 136.227C90.1292 136.227 89.068 136.499 88.1099 137.041C87.1517 137.586 86.4065 138.365 85.8776 139.378C85.3487 140.395 85.0843 141.481 85.0843 142.647C85.0843 143.86 85.3487 144.905 85.8776 145.784C86.4065 146.663 87.1689 147.311 88.1648 147.732C89.1642 148.153 90.27 148.36 91.4823 148.36C92.7839 148.36 93.8691 148.142 94.7448 147.701C95.6206 147.263 96.2765 146.729 96.7126 146.101H98.052C97.7979 146.622 97.3652 147.156 96.7504 147.698C96.1391 148.239 95.4076 148.67 94.5628 148.987C93.718 149.301 92.6946 149.459 91.5063 149.459C90.4074 149.459 89.3943 149.318 88.4636 149.035C87.5363 148.753 86.7465 148.329 86.0905 147.76C85.438 147.191 84.9469 146.536 84.6138 145.798C84.1982 144.86 83.9922 143.847 83.9922 142.764C83.9922 141.554 84.2395 140.399 84.734 139.302C85.3384 137.961 86.197 136.93 87.3097 136.217C88.4224 135.5 89.7686 135.145 91.3552 135.145C92.5847 135.145 93.6905 135.396 94.6658 135.9C95.6446 136.403 96.4173 137.155 96.9805 138.151C97.4613 139.009 97.7017 139.94 97.7017 140.95C97.7017 142.388 97.1969 143.664 96.1906 144.781C95.2874 145.784 94.3052 146.284 93.2372 146.284C92.8938 146.284 92.619 146.232 92.4095 146.125C92.2 146.022 92.0455 145.874 91.9459 145.677C91.8807 145.553 91.836 145.336 91.8051 145.029ZM88.2026 143.016C88.2026 143.698 88.364 144.226 88.6868 144.605C89.0062 144.981 89.3737 145.17 89.7926 145.17C90.0674 145.17 90.3593 145.088 90.6684 144.922C90.9774 144.753 91.2694 144.508 91.5475 144.177C91.8291 143.85 92.0592 143.433 92.2344 142.929C92.4164 142.426 92.5023 141.919 92.5023 141.412C92.5023 140.737 92.3374 140.213 92.0009 139.84C91.6677 139.464 91.2591 139.282 90.7817 139.282C90.4657 139.282 90.167 139.361 89.8854 139.523C89.6037 139.685 89.3359 139.944 89.0714 140.302C88.8104 140.657 88.5975 141.095 88.4395 141.609C88.2816 142.119 88.2026 142.588 88.2026 143.016Z" fill="#606062"/>
<path d="M99.3433 146.911L100.635 147.094C100.69 147.494 100.841 147.787 101.088 147.973C101.421 148.221 101.874 148.346 102.451 148.346C103.066 148.346 103.547 148.221 103.883 147.973C104.22 147.725 104.447 147.377 104.567 146.932C104.636 146.66 104.67 146.087 104.663 145.215C104.079 145.908 103.351 146.253 102.479 146.253C101.397 146.253 100.556 145.863 99.9615 145.077C99.3674 144.295 99.0686 143.353 99.0686 142.257C99.0686 141.502 99.206 140.802 99.4773 140.164C99.7486 139.526 100.144 139.037 100.662 138.689C101.177 138.34 101.785 138.168 102.486 138.168C103.416 138.168 104.182 138.547 104.787 139.309V138.333H106.016V145.174C106.016 146.408 105.892 147.28 105.642 147.794C105.394 148.308 104.996 148.714 104.457 149.011C103.914 149.307 103.248 149.459 102.458 149.459C101.517 149.459 100.762 149.249 100.181 148.821C99.6009 148.401 99.3227 147.763 99.3433 146.911ZM100.439 142.16C100.439 143.195 100.645 143.95 101.054 144.426C101.466 144.901 101.981 145.139 102.599 145.139C103.214 145.139 103.729 144.905 104.148 144.429C104.563 143.957 104.769 143.215 104.769 142.202C104.769 141.236 104.557 140.506 104.127 140.016C103.698 139.523 103.183 139.282 102.578 139.282C101.984 139.282 101.479 139.523 101.06 140.006C100.645 140.488 100.439 141.205 100.439 142.16Z" fill="#606062"/>
<path d="M108.042 136.854V135.327H109.382V136.854H108.042ZM108.042 146.253V138.334H109.382V146.253H108.042Z" fill="#606062"/>
<path d="M116.511 146.253V145.25C116.013 146.029 115.278 146.422 114.31 146.422C113.681 146.422 113.101 146.249 112.579 145.901C112.05 145.553 111.645 145.07 111.353 144.45C111.064 143.826 110.92 143.112 110.92 142.302C110.92 141.512 111.051 140.799 111.312 140.154C111.576 139.513 111.968 139.02 112.493 138.682C113.015 138.337 113.602 138.168 114.248 138.168C114.725 138.168 115.148 138.268 115.515 138.468C115.886 138.671 116.188 138.933 116.422 139.258V135.327H117.758V146.253H116.511ZM112.287 142.305C112.287 143.315 112.5 144.071 112.929 144.574C113.352 145.074 113.856 145.322 114.437 145.322C115.024 145.322 115.519 145.084 115.931 144.605C116.336 144.129 116.542 143.398 116.542 142.416C116.542 141.336 116.336 140.544 115.917 140.037C115.501 139.533 114.986 139.282 114.378 139.282C113.781 139.282 113.286 139.523 112.885 140.009C112.486 140.492 112.287 141.261 112.287 142.305Z" fill="#606062"/>
<path d="M124.966 146.253V145.25C124.468 146.029 123.733 146.422 122.761 146.422C122.133 146.422 121.556 146.249 121.031 145.901C120.505 145.553 120.096 145.07 119.805 144.45C119.516 143.826 119.372 143.112 119.372 142.302C119.372 141.512 119.506 140.799 119.767 140.154C120.028 139.513 120.423 139.02 120.945 138.682C121.467 138.337 122.054 138.168 122.7 138.168C123.177 138.168 123.599 138.268 123.97 138.468C124.341 138.671 124.643 138.933 124.873 139.258V135.327H126.213V146.253H124.966ZM120.742 142.305C120.742 143.315 120.955 144.071 121.381 144.574C121.807 145.074 122.312 145.322 122.892 145.322C123.476 145.322 123.974 145.084 124.382 144.605C124.791 144.129 124.997 143.398 124.997 142.416C124.997 141.336 124.788 140.544 124.372 140.037C123.957 139.533 123.441 139.282 122.83 139.282C122.236 139.282 121.738 139.523 121.34 140.009C120.941 140.492 120.742 141.261 120.742 142.305Z" fill="#606062"/>
<path d="M128.328 146.253V135.327H129.664V139.261C130.286 138.53 131.069 138.168 132.017 138.168C132.597 138.168 133.102 138.282 133.531 138.513C133.961 138.744 134.266 139.061 134.452 139.468C134.637 139.875 134.726 140.468 134.726 141.24V146.253H133.39V141.247C133.39 140.578 133.246 140.088 132.958 139.785C132.669 139.478 132.264 139.326 131.739 139.326C131.344 139.326 130.976 139.426 130.629 139.633C130.282 139.84 130.035 140.119 129.888 140.475C129.74 140.823 129.664 141.309 129.664 141.929V146.253H128.328Z" fill="#606062"/>
<path d="M137.161 146.253V144.729H138.683V146.253H137.161Z" fill="#606062"/>
<path d="M146.159 143.353L147.464 143.539C147.32 144.439 146.956 145.146 146.365 145.656C145.774 146.167 145.05 146.422 144.191 146.422C143.113 146.422 142.248 146.067 141.592 145.36C140.936 144.653 140.609 143.643 140.609 142.326C140.609 141.471 140.75 140.726 141.032 140.085C141.313 139.447 141.743 138.964 142.32 138.647C142.897 138.327 143.522 138.168 144.198 138.168C145.053 138.168 145.754 138.382 146.296 138.816C146.843 139.251 147.193 139.871 147.344 140.668L146.053 140.868C145.929 140.337 145.709 139.937 145.393 139.668C145.077 139.399 144.7 139.264 144.253 139.264C143.58 139.264 143.031 139.506 142.608 139.988C142.189 140.474 141.976 141.24 141.976 142.288C141.976 143.35 142.182 144.119 142.587 144.601C142.993 145.081 143.522 145.322 144.174 145.322C144.703 145.322 145.139 145.163 145.489 144.839C145.84 144.519 146.063 144.022 146.159 143.353Z" fill="#606062"/>
<path d="M148.103 142.295C148.103 140.833 148.508 139.747 149.322 139.044C149.998 138.458 150.826 138.168 151.801 138.168C152.883 138.168 153.769 138.523 154.46 139.233C155.146 139.944 155.49 140.93 155.49 142.181C155.49 143.198 155.339 143.998 155.037 144.581C154.731 145.163 154.288 145.615 153.704 145.939C153.124 146.263 152.488 146.422 151.801 146.422C150.699 146.422 149.806 146.067 149.126 145.36C148.443 144.65 148.103 143.626 148.103 142.295ZM149.473 142.298C149.473 143.308 149.693 144.067 150.132 144.567C150.575 145.07 151.132 145.322 151.801 145.322C152.468 145.322 153.017 145.07 153.46 144.563C153.903 144.06 154.123 143.288 154.123 142.253C154.123 141.278 153.9 140.537 153.457 140.037C153.014 139.533 152.461 139.282 151.801 139.282C151.132 139.282 150.575 139.53 150.132 140.03C149.693 140.533 149.473 141.288 149.473 142.298Z" fill="#606062"/>
<path d="M157.059 146.253V138.333H158.261V139.454C158.505 139.068 158.835 138.754 159.247 138.52C159.656 138.282 160.123 138.168 160.648 138.168C161.228 138.168 161.709 138.289 162.08 138.53C162.451 138.775 162.716 139.113 162.867 139.55C163.495 138.627 164.309 138.168 165.312 138.168C166.098 138.168 166.703 138.382 167.125 138.816C167.547 139.251 167.76 139.923 167.76 140.823V146.253H166.421V141.267C166.421 140.737 166.376 140.347 166.291 140.112C166.205 139.875 166.047 139.688 165.817 139.544C165.59 139.399 165.322 139.326 165.013 139.326C164.457 139.326 163.996 139.513 163.629 139.881C163.262 140.25 163.08 140.843 163.08 141.657V146.253H161.74V141.112C161.74 140.519 161.63 140.071 161.414 139.775C161.198 139.475 160.84 139.326 160.346 139.326C159.972 139.326 159.621 139.426 159.305 139.623C158.986 139.823 158.752 140.112 158.608 140.495C158.467 140.878 158.395 141.429 158.395 142.15V146.253H157.059Z" fill="#606062"/>
<path d="M33.9863 193.58V182.654H41.3287V183.936H35.4321V187.339H40.5389V188.622H35.4321V193.58H33.9863Z" fill="#606062"/>
<path d="M41.1638 193.58L45.3399 182.654H46.9231L51.3532 193.58H49.7151L48.4547 190.27H43.8734L42.6921 193.58H41.1638ZM44.2959 189.094H48.0048L46.8715 186.064C46.5281 185.143 46.2705 184.385 46.0885 183.781C45.9409 184.495 45.7417 185.195 45.491 185.888L44.2959 189.094Z" fill="#606062"/>
<path d="M60.7322 192.407C61.4053 192.869 62.0234 193.207 62.5901 193.421L62.1608 194.428C61.3778 194.145 60.5982 193.7 59.8221 193.09C59.015 193.538 58.1256 193.762 57.1537 193.762C56.1715 193.762 55.2786 193.525 54.4784 193.049C53.6782 192.573 53.0601 191.901 52.6273 191.039C52.1946 190.173 51.9783 189.201 51.9783 188.119C51.9783 187.043 52.1981 186.064 52.6342 185.178C53.0669 184.295 53.6885 183.626 54.4887 183.164C55.2923 182.702 56.1921 182.471 57.1846 182.471C58.1874 182.471 59.094 182.709 59.8976 183.188C60.7047 183.668 61.3194 184.336 61.7418 185.198C62.1677 186.06 62.3772 187.029 62.3772 188.112C62.3772 189.011 62.2398 189.818 61.9651 190.535C61.6937 191.252 61.2816 191.877 60.7322 192.407ZM57.5727 190.559C58.4003 190.794 59.0837 191.142 59.6195 191.604C60.4643 190.832 60.8867 189.667 60.8867 188.115C60.8867 187.236 60.739 186.464 60.4402 185.805C60.1415 185.143 59.7053 184.633 59.1284 184.267C58.5548 183.905 57.9092 183.723 57.1949 183.723C56.1234 183.723 55.2339 184.092 54.5299 184.826C53.8225 185.564 53.4687 186.664 53.4687 188.125C53.4687 189.542 53.819 190.628 54.5162 191.39C55.2133 192.149 56.1062 192.528 57.1949 192.528C57.7066 192.528 58.1874 192.432 58.6441 192.239C58.1943 191.945 57.7203 191.735 57.2224 191.611L57.5727 190.559Z" fill="#606062"/>
<path d="M63.6204 191.214L64.9425 191.001C65.0181 191.532 65.2242 191.938 65.5641 192.225C65.9041 192.507 66.3781 192.649 66.9859 192.649C67.6041 192.649 68.0608 192.524 68.3596 192.273C68.655 192.025 68.8026 191.728 68.8026 191.39C68.8026 191.087 68.6687 190.849 68.4043 190.677C68.2154 190.556 67.7586 190.404 67.034 190.221C66.0587 189.973 65.3821 189.759 65.0009 189.58C64.6232 189.397 64.3381 189.146 64.1424 188.825C63.9466 188.508 63.847 188.156 63.847 187.767C63.847 187.415 63.9294 187.087 64.0909 186.788C64.2523 186.488 64.4686 186.239 64.7468 186.039C64.9528 185.888 65.2379 185.76 65.5951 185.653C65.9522 185.546 66.3368 185.491 66.7455 185.491C67.3637 185.491 67.9063 185.581 68.3734 185.76C68.8438 185.939 69.1873 186.184 69.4105 186.488C69.6303 186.798 69.7848 187.205 69.8673 187.718L68.5622 187.901C68.5039 187.491 68.3287 187.167 68.0471 186.936C67.7621 186.705 67.3637 186.591 66.8417 186.591C66.2338 186.591 65.7942 186.691 65.5332 186.894C65.2722 187.098 65.1417 187.339 65.1417 187.612C65.1417 187.784 65.1932 187.943 65.3031 188.08C65.413 188.222 65.5813 188.342 65.8148 188.436C65.9488 188.487 66.3403 188.601 66.9928 188.78C67.9338 189.032 68.5931 189.239 68.9675 189.401C69.3452 189.559 69.6372 189.797 69.8501 190.104C70.0664 190.411 70.1729 190.79 70.1729 191.249C70.1729 191.694 70.0424 192.114 69.7814 192.507C69.5204 192.904 69.1461 193.207 68.6584 193.424C68.1673 193.642 67.611 193.748 66.9928 193.748C65.9694 193.748 65.1864 193.535 64.6506 193.111C64.1115 192.683 63.7715 192.052 63.6204 191.214Z" fill="#606062"/>
<path d="M74.2597 190.894C74.2563 190.715 74.2529 190.58 74.2529 190.494C74.2529 189.966 74.3284 189.511 74.4761 189.132C74.586 188.843 74.7611 188.553 75.005 188.26C75.1801 188.046 75.5029 187.736 75.9631 187.326C76.4267 186.915 76.7255 186.591 76.8663 186.346C77.0037 186.102 77.0724 185.836 77.0724 185.547C77.0724 185.022 76.8698 184.56 76.4645 184.164C76.0593 183.768 75.5648 183.571 74.9741 183.571C74.404 183.571 73.9335 183.75 73.5523 184.109C73.1676 184.471 72.9204 185.033 72.8036 185.798L71.4333 185.629C71.557 184.609 71.9244 183.826 72.5323 183.285C73.1436 182.744 73.9507 182.471 74.9535 182.471C76.0146 182.471 76.8595 182.761 77.4948 183.343C78.1233 183.926 78.4426 184.629 78.4426 185.457C78.4426 185.936 78.3293 186.374 78.1061 186.777C77.8829 187.181 77.4467 187.67 76.8011 188.246C76.3649 188.632 76.0799 188.918 75.946 189.101C75.812 189.284 75.7124 189.494 75.6506 189.735C75.5854 189.97 75.5476 190.356 75.5373 190.894H74.2597ZM74.0193 193.58V192.052H75.5373V193.58H74.0193Z" fill="#606062"/>
<path d="M36.2975 248.562V239.484H33.0762V237.636H41.7099V239.484H38.5023V248.562H36.2975Z" fill="#606062"/>
<path d="M43.5439 243.084L41.6585 242.749C41.8714 241.977 42.2389 241.404 42.7574 241.032C43.2794 240.66 44.0521 240.477 45.0756 240.477C46.0028 240.477 46.6965 240.584 47.1533 240.805C47.6066 241.029 47.9294 241.308 48.1149 241.649C48.3003 241.987 48.393 242.611 48.393 243.521L48.3621 245.962C48.3621 246.659 48.3965 247.172 48.4617 247.503C48.527 247.834 48.6506 248.186 48.8326 248.562H46.7652C46.7137 248.424 46.645 248.221 46.566 247.952C46.5317 247.828 46.5076 247.745 46.4939 247.707C46.1367 248.059 45.759 248.321 45.3537 248.496C44.9485 248.672 44.5158 248.762 44.059 248.762C43.252 248.762 42.6132 248.541 42.1461 248.096C41.6791 247.659 41.4456 247.097 41.4456 246.421C41.4456 245.976 41.552 245.576 41.7649 245.225C41.9779 244.876 42.2732 244.607 42.6613 244.421C43.0425 244.238 43.5954 244.073 44.3166 243.935C45.2885 243.752 45.965 243.577 46.3394 243.421V243.208C46.3394 242.801 46.2432 242.511 46.044 242.335C45.8448 242.163 45.4705 242.077 44.921 242.077C44.5467 242.077 44.2582 242.153 44.0521 242.301C43.8392 242.449 43.6744 242.711 43.5439 243.084ZM46.3394 244.78C46.0749 244.866 45.6525 244.973 45.0721 245.1C44.4952 245.225 44.114 245.345 43.9354 245.462C43.6641 245.659 43.5301 245.904 43.5301 246.2C43.5301 246.497 43.6366 246.748 43.8564 246.962C44.0728 247.176 44.3509 247.283 44.6875 247.283C45.0618 247.283 45.4224 247.155 45.7624 246.91C46.0131 246.721 46.1814 246.49 46.2604 246.214C46.3119 246.038 46.3394 245.697 46.3394 245.197V244.78Z" fill="#606062"/>
<path d="M50.4465 248.562V237.636H52.5311V248.562H50.4465Z" fill="#606062"/>
<path d="M54.5952 248.562V237.636H56.6764V243.432L59.1181 240.643H61.6869L58.9945 243.539L61.8827 248.562H59.6333L57.6414 244.99L56.6764 246.028V248.562H54.5952Z" fill="#606062"/>
<path d="M70.9492 240.642V242.308H69.5205V245.514C69.5205 246.166 69.5342 246.545 69.5617 246.652C69.5892 246.759 69.651 246.845 69.7506 246.917C69.8468 246.986 69.9635 247.021 70.1009 247.021C70.2966 247.021 70.5748 246.955 70.9423 246.821L71.1174 248.448C70.6332 248.658 70.0872 248.762 69.4724 248.762C69.0981 248.762 68.7615 248.696 68.4593 248.569C68.1571 248.444 67.9373 248.279 67.8 248.076C67.6557 247.872 67.5596 247.6 67.5046 247.255C67.46 247.01 67.4394 246.517 67.4394 245.773V242.308H66.4812V240.642H67.4394V239.07L69.5205 237.836V240.642H70.9492Z" fill="#606062"/>
<path d="M71.9243 244.507C71.9243 243.811 72.0926 243.135 72.436 242.484C72.776 241.832 73.2602 241.336 73.8853 240.991C74.5137 240.649 75.2075 240.477 75.9802 240.477C77.1753 240.477 78.1506 240.863 78.913 241.642C79.6754 242.425 80.0566 243.404 80.0566 244.594C80.0566 245.797 79.6685 246.79 78.9027 247.579C78.1334 248.369 77.165 248.762 75.9973 248.762C75.2761 248.762 74.5859 248.596 73.9299 248.269C73.2774 247.941 72.776 247.459 72.436 246.824C72.0926 246.19 71.9243 245.418 71.9243 244.507ZM74.0673 244.618C74.0673 245.404 74.2527 246.007 74.6202 246.424C74.9945 246.845 75.4513 247.052 75.9939 247.052C76.5365 247.052 76.9933 246.845 77.3607 246.424C77.7282 246.007 77.9136 245.4 77.9136 244.604C77.9136 243.828 77.7282 243.228 77.3607 242.811C76.9933 242.394 76.5365 242.184 75.9939 242.184C75.4513 242.184 74.9945 242.394 74.6202 242.811C74.2527 243.228 74.0673 243.832 74.0673 244.618Z" fill="#606062"/>
<path d="M85.3557 245.021L87.4987 244.807C87.6257 245.528 87.8868 246.055 88.2783 246.393C88.6698 246.731 89.2021 246.9 89.8683 246.9C90.5723 246.9 91.1046 246.748 91.4618 246.448C91.819 246.148 91.9975 245.797 91.9975 245.397C91.9975 245.138 91.922 244.918 91.7709 244.735C91.6232 244.555 91.3588 244.397 90.9844 244.266C90.7269 244.173 90.1465 244.014 89.233 243.787C88.0619 243.49 87.2377 243.132 86.7638 242.701C86.0975 242.097 85.7644 241.363 85.7644 240.494C85.7644 239.939 85.9224 239.415 86.2349 238.929C86.5474 238.443 87.0007 238.074 87.588 237.819C88.1787 237.567 88.8895 237.439 89.7241 237.439C91.084 237.439 92.1109 237.739 92.7977 238.35C93.488 238.956 93.8486 239.767 93.8829 240.78L91.6782 240.856C91.5854 240.291 91.3862 239.887 91.0772 239.639C90.7715 239.394 90.3113 239.27 89.6966 239.27C89.0647 239.27 88.5667 239.401 88.2096 239.667C87.9795 239.836 87.8627 240.063 87.8627 240.349C87.8627 240.608 87.9726 240.829 88.189 241.011C88.4671 241.249 89.1368 241.494 90.2049 241.746C91.2695 241.997 92.0594 242.263 92.5676 242.532C93.0793 242.804 93.4811 243.173 93.7696 243.645C94.0581 244.114 94.2023 244.693 94.2023 245.383C94.2023 246.01 94.0306 246.597 93.6838 247.145C93.3335 247.689 92.8458 248.096 92.2139 248.362C91.5786 248.627 90.7887 248.762 89.8443 248.762C88.4671 248.762 87.4128 248.444 86.6745 247.803C85.9361 247.169 85.5 246.241 85.3557 245.021Z" fill="#606062"/>
<path d="M97.6056 243.084L95.7202 242.749C95.9332 241.977 96.3006 241.404 96.8226 241.032C97.3412 240.66 98.1139 240.477 99.1373 240.477C100.068 240.477 100.762 240.584 101.215 240.805C101.668 241.029 101.991 241.308 102.177 241.649C102.362 241.987 102.455 242.611 102.455 243.521L102.424 245.962C102.424 246.659 102.458 247.172 102.523 247.503C102.589 247.834 102.712 248.186 102.898 248.562H100.83C100.775 248.424 100.707 248.221 100.628 247.952C100.597 247.828 100.569 247.745 100.556 247.707C100.202 248.059 99.8207 248.321 99.4155 248.496C99.0103 248.672 98.5775 248.762 98.1208 248.762C97.3137 248.762 96.675 248.541 96.2079 248.096C95.7409 247.659 95.5073 247.097 95.5073 246.421C95.5073 245.976 95.6138 245.576 95.8267 245.225C96.0396 244.876 96.3384 244.607 96.723 244.421C97.1042 244.238 97.6572 244.073 98.3784 243.935C99.3502 243.752 100.027 243.577 100.405 243.421V243.208C100.405 242.801 100.305 242.511 100.106 242.335C99.9066 242.163 99.5323 242.077 98.9828 242.077C98.6084 242.077 98.32 242.153 98.1139 242.301C97.901 242.449 97.7361 242.711 97.6056 243.084ZM100.405 244.78C100.137 244.866 99.7143 244.973 99.1339 245.1C98.5569 245.225 98.1757 245.345 98.0006 245.462C97.7293 245.659 97.5919 245.904 97.5919 246.2C97.5919 246.497 97.7018 246.748 97.9182 246.962C98.1345 247.176 98.4127 247.283 98.7493 247.283C99.1236 247.283 99.4842 247.155 99.8242 246.91C100.075 246.721 100.243 246.49 100.322 246.214C100.377 246.038 100.405 245.697 100.405 245.197V244.78Z" fill="#606062"/>
<path d="M104.509 248.562V237.636H106.593V248.562H104.509Z" fill="#606062"/>
<path d="M113.293 246.059L115.374 246.411C115.11 247.176 114.688 247.759 114.111 248.162C113.534 248.562 112.813 248.762 111.947 248.762C110.577 248.762 109.56 248.31 108.904 247.41C108.386 246.69 108.125 245.78 108.125 244.676C108.125 243.366 108.468 242.335 109.148 241.591C109.832 240.846 110.694 240.477 111.738 240.477C112.909 240.477 113.832 240.863 114.512 241.642C115.189 242.422 115.512 243.614 115.481 245.221H110.268C110.285 245.842 110.45 246.324 110.773 246.669C111.092 247.017 111.49 247.19 111.968 247.19C112.294 247.19 112.569 247.1 112.788 246.921C113.012 246.745 113.18 246.455 113.293 246.059ZM113.414 243.939C113.4 243.332 113.245 242.87 112.95 242.553C112.651 242.235 112.294 242.077 111.868 242.077C111.415 242.077 111.037 242.246 110.742 242.577C110.446 242.911 110.302 243.366 110.306 243.939H113.414Z" fill="#606062"/>
<path d="M116.443 246.335L118.541 246.014C118.63 246.417 118.809 246.728 119.08 246.935C119.351 247.145 119.736 247.252 120.224 247.252C120.763 247.252 121.168 247.152 121.443 246.952C121.625 246.814 121.718 246.624 121.718 246.39C121.718 246.235 121.666 246.1 121.567 245.997C121.463 245.897 121.23 245.804 120.869 245.721C119.187 245.345 118.119 245.004 117.669 244.697C117.044 244.266 116.731 243.673 116.731 242.911C116.731 242.222 117.002 241.646 117.542 241.177C118.081 240.708 118.919 240.477 120.049 240.477C121.13 240.477 121.931 240.653 122.456 241.008C122.981 241.363 123.342 241.887 123.541 242.58L121.58 242.946C121.498 242.639 121.333 242.397 121.099 242.232C120.862 242.066 120.526 241.987 120.086 241.987C119.537 241.987 119.142 242.063 118.898 242.218C118.74 242.328 118.661 242.47 118.661 242.642C118.661 242.79 118.73 242.918 118.871 243.025C119.06 243.163 119.709 243.359 120.825 243.614C121.941 243.87 122.717 244.18 123.157 244.545C123.596 244.918 123.816 245.438 123.816 246.107C123.816 246.831 123.514 247.455 122.906 247.979C122.305 248.5 121.409 248.762 120.224 248.762C119.149 248.762 118.301 248.541 117.672 248.107C117.044 247.672 116.635 247.083 116.443 246.335Z" fill="#606062"/>
<path fill-rule="evenodd" clip-rule="evenodd" d="M32.7432 248.562H124.547V249.258H32.7432V248.562Z" fill="#606062"/>
<path fill-rule="evenodd" clip-rule="evenodd" d="M357.028 43.4136H13.7232C6.14387 43.4343 0.0103027 49.6056 0 57.2147V274.199C0.0103027 281.808 6.1473 287.976 13.7232 288H357.028C364.607 287.976 370.741 281.808 370.751 274.199V57.2147C370.741 49.6056 364.607 43.4343 357.028 43.4136ZM357.824 262.404C357.697 270.12 351.389 276.285 343.703 276.206H26.8524C19.1665 276.285 12.8578 270.12 12.7308 262.404V68.6128C12.8578 60.8968 19.1665 54.7324 26.8524 54.8117L343.902 54.8151C351.588 54.7324 357.897 60.8968 358.024 68.6128V262.404H357.824Z" fill="#1A237E"/>
<path d="M21.5234 95.3807L335.644 93.981" stroke="#1A237E" stroke-width="0.00662364"/>
<path d="M22.77 80.4453L24.913 80.2315C25.0435 80.9486 25.3011 81.4761 25.696 81.814C26.0875 82.1519 26.6164 82.3208 27.2826 82.3208C27.9866 82.3208 28.5189 82.1691 28.8761 81.8692C29.2333 81.5692 29.4153 81.221 29.4153 80.8176C29.4153 80.5591 29.3363 80.3384 29.1886 80.1557C29.0375 79.9764 28.7765 79.8178 28.3988 79.6868C28.1446 79.5937 27.5608 79.4351 26.6507 79.2076C25.4762 78.9111 24.652 78.5525 24.1815 78.1215C23.5153 77.5182 23.1821 76.7838 23.1821 75.915C23.1821 75.3599 23.3401 74.8359 23.6492 74.3498C23.9651 73.8636 24.415 73.4947 25.0057 73.2396C25.5964 72.9879 26.3039 72.8604 27.1418 72.8604C28.5018 72.8604 29.5286 73.1637 30.2155 73.7705C30.9023 74.3773 31.2629 75.1875 31.2973 76.2012L29.0959 76.277C28.9997 75.715 28.8006 75.3082 28.4949 75.0634C28.1858 74.8152 27.7256 74.6911 27.1143 74.6911C26.479 74.6911 25.9845 74.8221 25.6273 75.0876C25.3972 75.2565 25.2805 75.484 25.2805 75.7702C25.2805 76.0288 25.3869 76.2494 25.6067 76.4322C25.8814 76.6701 26.5546 76.9148 27.6192 77.1665C28.6872 77.4182 29.4737 77.6837 29.9854 77.9526C30.4971 78.225 30.8954 78.5939 31.1839 79.0662C31.4724 79.5351 31.6166 80.1143 31.6166 80.8038C31.6166 81.4313 31.4449 82.0174 31.0981 82.5656C30.7512 83.1104 30.2635 83.5172 29.6282 83.7827C28.9963 84.0516 28.2064 84.1826 27.262 84.1826C25.8849 84.1826 24.8271 83.8654 24.0922 83.2276C23.3538 82.5898 22.9143 81.6623 22.77 80.4453Z" fill="#1A237E"/>
<path d="M38.6843 83.9824V82.7998C38.3958 83.2204 38.018 83.5583 37.551 83.8065C37.0805 84.0582 36.5894 84.1823 36.0674 84.1823C35.5351 84.1823 35.0611 84.0651 34.6387 83.8307C34.2163 83.5962 33.9141 83.2652 33.7252 82.8446C33.5363 82.4206 33.4402 81.8344 33.4402 81.0863V76.063H35.5248V79.7107C35.5248 80.8277 35.5625 81.5104 35.6415 81.762C35.7171 82.0137 35.8545 82.2137 36.0605 82.3585C36.2631 82.5068 36.5207 82.5792 36.8367 82.5792C37.1938 82.5792 37.5132 82.4792 37.7982 82.2861C38.0798 82.0896 38.2722 81.8448 38.3752 81.5517C38.4817 81.2587 38.5332 80.5485 38.5332 79.4107V76.063H40.6178V83.9824H38.6843Z" fill="#1A237E"/>
<path d="M42.6956 76.063H44.6428V77.2248C44.8935 76.8283 45.2335 76.5077 45.6662 76.2629C46.0955 76.0181 46.5763 75.8975 47.0983 75.8975C48.0152 75.8975 48.7913 76.256 49.4301 76.98C50.0689 77.7006 50.3883 78.7073 50.3883 79.9933C50.3883 81.3172 50.0655 82.3447 49.4232 83.079C48.7776 83.8168 47.998 84.1823 47.0811 84.1823C46.6449 84.1823 46.25 84.0961 45.8963 83.9203C45.5425 83.7479 45.1682 83.4479 44.7801 83.0273V86.9887H42.6956V76.063ZM44.7492 79.9002C44.7492 80.7932 44.9244 81.4517 45.2747 81.8792C45.625 82.3033 46.0543 82.517 46.5557 82.517C47.0399 82.517 47.4417 82.324 47.7645 81.9309C48.0839 81.5413 48.2453 80.9001 48.2453 80.0071C48.2453 79.1728 48.0805 78.5556 47.7473 78.1488C47.4176 77.7454 47.009 77.5455 46.5179 77.5455C46.0096 77.5455 45.5872 77.742 45.2541 78.1385C44.9141 78.535 44.7492 79.1245 44.7492 79.9002Z" fill="#1A237E"/>
<path d="M51.9817 76.063H53.9255V77.2248C54.1796 76.8283 54.5196 76.5077 54.9489 76.2629C55.3816 76.0181 55.859 75.8975 56.3844 75.8975C57.2979 75.8975 58.074 76.256 58.7128 76.98C59.3516 77.7006 59.671 78.7073 59.671 79.9933C59.671 81.3172 59.3516 82.3447 58.7059 83.079C58.0637 83.8168 57.2842 84.1823 56.3672 84.1823C55.9311 84.1823 55.5361 84.0961 55.179 83.9203C54.8287 83.7479 54.4543 83.4479 54.0628 83.0273V86.9887H51.9817V76.063ZM54.0319 79.9002C54.0319 80.7932 54.2071 81.4517 54.5608 81.8792C54.9077 82.3033 55.3369 82.517 55.8384 82.517C56.3226 82.517 56.7244 82.324 57.0472 81.9309C57.37 81.5413 57.528 80.9001 57.528 80.0071C57.528 79.1728 57.3632 78.5556 57.0335 78.1488C56.7038 77.7454 56.2917 77.5455 55.804 77.5455C55.2923 77.5455 54.8699 77.742 54.5368 78.1385C54.2002 78.535 54.0319 79.1245 54.0319 79.9002Z" fill="#1A237E"/>
<path d="M60.8386 79.9278C60.8386 79.2314 61.0103 78.5556 61.3503 77.904C61.6937 77.2524 62.178 76.7559 62.803 76.4112C63.428 76.0698 64.1252 75.8975 64.8979 75.8975C66.0896 75.8975 67.0649 76.2836 67.8273 77.0628C68.5931 77.8454 68.9709 78.8246 68.9709 80.0175C68.9709 81.2173 68.5863 82.2102 67.8204 82.9997C67.0477 83.7892 66.0793 84.1823 64.9116 84.1823C64.1904 84.1823 63.5036 84.0168 62.8442 83.6893C62.1917 83.3617 61.6937 82.8791 61.3503 82.2447C61.0103 81.6103 60.8386 80.838 60.8386 79.9278ZM62.9816 80.0381C62.9816 80.8242 63.167 81.4276 63.5379 81.8447C63.9088 82.2654 64.3656 82.4722 64.9116 82.4722C65.4542 82.4722 65.9076 82.2654 66.275 81.8447C66.6425 81.4276 66.8279 80.8208 66.8279 80.0244C66.8279 79.2486 66.6425 78.6522 66.275 78.235C65.9076 77.8144 65.4542 77.6041 64.9116 77.6041C64.3656 77.6041 63.9088 77.8144 63.5379 78.235C63.167 78.6522 62.9816 79.2521 62.9816 80.0381Z" fill="#1A237E"/>
<path d="M72.6009 83.9823H70.5198V76.063H72.4498V77.1869C72.7829 76.656 73.0817 76.3077 73.3462 76.1422C73.614 75.9768 73.9128 75.8975 74.2528 75.8975C74.7267 75.8975 75.1869 76.0285 75.6265 76.2905L74.9809 78.1178C74.6271 77.8868 74.3009 77.773 73.9987 77.773C73.7068 77.773 73.4595 77.8558 73.2569 78.0144C73.0542 78.1764 72.8928 78.466 72.7761 78.8901C72.6593 79.3107 72.6009 80.1967 72.6009 81.5413V83.9823Z" fill="#1A237E"/>
<path d="M80.1289 76.0633V77.7285H78.7002V80.9349C78.7002 81.5865 78.7139 81.9657 78.7414 82.0726C78.7689 82.1795 78.8273 82.2691 78.9269 82.3381C79.023 82.407 79.1398 82.4415 79.2806 82.4415C79.4763 82.4415 79.7545 82.376 80.122 82.2415L80.2971 83.8689C79.8129 84.0792 79.2634 84.1826 78.6521 84.1826C78.2778 84.1826 77.9412 84.1205 77.639 83.993C77.3368 83.8654 77.117 83.6999 76.9762 83.4965C76.8354 83.2931 76.7392 83.0242 76.6843 82.676C76.6397 82.4312 76.619 81.9381 76.619 81.1934V77.7285H75.6609V76.0633H76.619V74.4911L78.7002 73.2568V76.0633H80.1289Z" fill="#1A237E"/>
<path d="M362.448 88.5851C386.777 88.5851 406.499 68.7547 406.499 44.2926C406.499 19.8305 386.777 0 362.448 0C338.119 0 318.397 19.8305 318.397 44.2926C318.397 68.7547 338.119 88.5851 362.448 88.5851Z" fill="#1A237E"/>
<path fill-rule="evenodd" clip-rule="evenodd" d="M362.451 18.79C353.495 18.79 346.235 26.0785 346.235 35.0666V40.4933H345.699C341.822 40.4967 338.676 43.6514 338.669 47.5438V51.8879C338.676 55.7804 341.818 58.935 345.696 58.9385H351.101C351.98 58.904 352.688 58.1972 352.722 57.3112V42.1172C352.688 41.2346 351.98 40.5278 351.101 40.4933H349.477V35.0666C349.477 27.8747 355.284 22.0447 362.448 22.0412C369.612 22.0412 375.422 27.8713 375.422 35.0632V35.0666V40.4933H373.798C372.926 40.5416 372.229 41.2415 372.177 42.1172V57.3112C372.211 58.1972 372.919 58.9075 373.798 58.9385H375.151C374.777 60.0349 374.069 60.983 373.132 61.6553C371.157 63.0137 368.825 63.7584 366.432 63.7859C365.511 61.5794 362.98 60.5382 360.782 61.4622C358.584 62.3862 357.547 64.9237 358.468 67.1337C359.388 69.3402 361.916 70.3814 364.114 69.4574C365.192 69.0058 366.04 68.1335 366.466 67.044C369.567 67.013 372.582 66.0339 375.113 64.241C376.844 62.9447 378.05 61.0623 378.503 58.9385H379.204C383.081 58.935 386.223 55.7804 386.23 51.8879V47.5438C386.223 43.6514 383.081 40.4967 379.204 40.4933H378.668V35.0666C378.668 26.075 371.408 18.79 362.451 18.79Z" fill="#FEFEFE"/>
</svg>
