<?xml version="1.0" encoding="UTF-8"?>
<!DOCTYPE svg PUBLIC "-//W3C//DTD SVG 1.1//EN" "http://www.w3.org/Graphics/SVG/1.1/DTD/svg11.dtd">
<!-- Creator: CorelDRAW X8 -->
<svg xmlns="http://www.w3.org/2000/svg" xml:space="preserve" width="8.77903in" height="6in" version="1.1" style="shape-rendering:geometricPrecision; text-rendering:geometricPrecision; image-rendering:optimizeQuality; fill-rule:evenodd; clip-rule:evenodd"
viewBox="0 0 91076 62246"
 xmlns:xlink="http://www.w3.org/1999/xlink">
 <defs>
  <style type="text/css">
   <![CDATA[
    .fil4 {fill:#FEFEFE}
    .fil1 {fill:#1A237E}
    .fil3 {fill:#FEFEFE;fill-rule:nonzero}
    .fil2 {fill:#1A237E;fill-rule:nonzero}
    .fil0 {fill:#868EE0;fill-rule:nonzero}
   ]]>
  </style>
 </defs>
 <g id="Layer_x0020_1">
  <metadata id="CorelCorpID_0Corel-Layer"/>
  <g id="_2490759051440">
   <path class="fil0" d="M90336 25000c-1576,3891 -4057,5076 -6417,7572 -2883,3049 -4827,5265 -4079,9187 1223,6408 1747,22389 -17404,20300 -6864,-749 -12288,-5409 -16234,-10060 -3358,-3957 -9398,-4306 -14259,-5229 -5973,-1134 -12058,-2846 -17585,-5356 -11382,-5167 -14781,-12596 -14317,-22101 140,-2872 599,-7395 6075,-12688 7392,-7144 18132,-8101 31060,-4820 6615,1679 10623,3981 18020,4615 7424,636 15121,-515 22243,1449 3766,1038 7225,2939 9949,5465 3402,3157 4612,7558 2948,11666z"/>
   <rect class="fil1" x="16686" y="20342" width="21400" height="21400" rx="1682" ry="1682"/>
   <g>
    <path class="fil2" d="M65061 35308l-9482 0c-261,0 -474,213 -474,475 0,261 213,473 474,473l9482 0c262,0 475,-212 475,-473 -1,-262 -213,-475 -475,-475z"/>
    <path class="fil2" d="M56172 34076c-262,0 -474,212 -474,473 0,263 212,475 474,475l8296 0c262,0 475,-212 475,-475 0,-261 -213,-473 -475,-473l-118 0 0 -4267 118 0c131,0 237,-106 237,-238 0,-130 -106,-236 -237,-236l-8296 0c-131,0 -236,106 -236,236 0,132 105,238 236,238l118 0 0 4267 -118 0zm7229 -4267l0 4267 -1422 0 0 -4267 1422 0zm-2369 0l0 4267 -1423 0 0 -4267 1423 0zm-3793 0l1422 0 0 4267 -1422 0 0 -4267z"/>
    <path class="fil2" d="M55579 28909l9486 0c263,0 475,-212 475,-475 0,-208 -134,-384 -321,-448l-4704 -2117c-56,-26 -116,-39 -176,-42l-37 0c-60,3 -119,16 -175,42l-4742 2133c-170,77 -277,245 -280,425l0 15c1,31 4,61 11,92 47,219 240,375 463,375z"/>
   </g>
   <g>
    <path class="fil3" d="M65061 19393l-9482 0c-261,0 -474,213 -474,475 0,261 213,474 474,474l9482 0c262,0 475,-213 475,-474 -1,-262 -213,-475 -475,-475z"/>
    <path class="fil3" d="M56172 18161c-262,0 -474,212 -474,473 0,263 212,475 474,475l8296 0c262,0 475,-212 475,-475 0,-261 -213,-473 -475,-473l-118 0 0 -4267 118 0c131,0 237,-106 237,-237 0,-130 -106,-237 -237,-237l-8296 0c-131,0 -236,107 -236,237 0,131 105,237 236,237l118 0 0 4267 -118 0zm7229 -4267l0 4267 -1422 0 0 -4267 1422 0zm-2369 0l0 4267 -1423 0 0 -4267 1423 0zm-3793 0l1422 0 0 4267 -1422 0 0 -4267z"/>
    <path class="fil3" d="M55579 12994l9486 0c263,0 475,-212 475,-474 0,-209 -134,-385 -321,-449l-4704 -2117c-56,-25 -116,-39 -176,-42l-37 0c-60,3 -119,17 -175,42l-4742 2133c-170,77 -277,245 -280,425l0 15c1,31 4,62 11,92 47,219 240,375 463,375z"/>
   </g>
   <g>
    <path class="fil3" d="M65061 51223l-9482 0c-261,0 -474,212 -474,475 0,261 213,473 474,473l9482 0c262,0 475,-212 475,-473 -1,-263 -213,-475 -475,-475z"/>
    <path class="fil3" d="M56172 49990c-262,0 -474,213 -474,474 0,262 212,475 474,475l8296 0c262,0 475,-213 475,-475 0,-261 -213,-474 -475,-474l-118 0 0 -4266 118 0c131,0 237,-107 237,-238 0,-130 -106,-236 -237,-236l-8296 0c-131,0 -236,106 -236,236 0,131 105,238 236,238l118 0 0 4266 -118 0zm7229 -4266l0 4266 -1422 0 0 -4266 1422 0zm-2369 0l0 4266 -1423 0 0 -4266 1423 0zm-3793 0l1422 0 0 4266 -1422 0 0 -4266z"/>
    <path class="fil3" d="M55579 44824l9486 0c263,0 475,-213 475,-475 0,-208 -134,-385 -321,-449l-4704 -2117c-56,-25 -116,-39 -176,-41l-37 0c-60,2 -119,16 -175,41l-4742 2134c-170,77 -277,245 -280,425l0 15c1,31 4,61 11,92 47,219 240,375 463,375z"/>
   </g>
   <g>
    <polygon class="fil4" points="23802,32328 24369,32328 24369,29755 23802,29755 "/>
    <path class="fil4" d="M27904 32328l-927 0c-767,0 -1446,-447 -1446,-1279 0,-941 694,-1294 1522,-1294l851 0 0 1203 -567 0 0 -679 -335 0c-479,0 -883,236 -883,741 0,585 396,785 923,785l145 0 150 0 567 0 0 523z"/>
    <polygon class="fil4" points="32339,32328 32906,32328 32906,31216 34007,31216 34007,32328 34574,32328 34574,29755 34007,29755 34007,30715 32906,30715 32906,29755 32339,29755 "/>
    <path class="fil4" d="M29229 29755l926 0c767,0 1447,447 1447,1280 0,941 -694,1293 -1523,1293l-850 0 0 -1202 566 0 0 679 335 0c480,0 883,-236 883,-741 0,-585 -396,-785 -923,-785l-144 0 -151 0 -566 0 0 -524z"/>
    <path class="fil4" d="M22665 30802l-1006 0 0 523 461 0 0 418c-105,58 -287,127 -534,127 -483,0 -800,-348 -800,-828 0,-480 317,-829 800,-829 287,0 472,84 625,244l400 -436c-258,-240 -618,-331 -1025,-331 -803,0 -1388,527 -1388,1352 0,825 585,1352 1388,1352 378,0 745,-73 1079,-247l0 -1345z"/>
   </g>
   <path class="fil2" d="M59036 11864c58,10 104,34 137,70 33,36 50,82 50,136 0,88 -28,152 -84,194 -57,41 -146,62 -269,62l-297 0 0 -887 305 0c105,0 183,20 236,58 52,38 78,95 78,171 0,49 -13,92 -41,127 -27,35 -65,58 -115,69zm-285 -68l86 0c60,0 106,-8 136,-26 30,-18 45,-44 45,-79 0,-35 -12,-60 -38,-75 -25,-16 -66,-24 -123,-24l-106 0 0 204zm0 377l92 0c71,0 123,-8 154,-24 32,-17 48,-47 48,-90 0,-37 -15,-66 -45,-85 -30,-19 -76,-28 -136,-28l-113 0 0 227z"/>
   <path id="1" class="fil2" d="M60206 12326l-192 0 -65 -142 -427 0 -65 142 -182 0 421 -894 90 0 420 894zm-326 -293l-144 -312 -145 312 289 0z"/>
   <polygon id="2" class="fil2" points="61109,12343 61030,12343 60481,11753 60481,12326 60311,12326 60311,11432 60390,11432 60940,12005 60940,11439 61109,11439 "/>
   <polygon id="3" class="fil2" points="62072,12326 61841,12326 61474,11939 61474,12326 61296,12326 61296,11439 61474,11439 61474,11787 61812,11439 62029,11439 61613,11857 "/>
   <path class="fil3" d="M59036 27807c58,10 104,33 137,69 33,37 50,82 50,137 0,87 -28,152 -84,193 -57,41 -146,62 -269,62l-297 0 0 -886 305 0c105,0 183,19 236,57 52,38 78,95 78,171 0,50 -13,92 -41,128 -27,35 -65,58 -115,69zm-285 -68l86 0c60,0 106,-9 136,-27 30,-17 45,-43 45,-79 0,-34 -12,-59 -38,-75 -25,-15 -66,-23 -123,-23l-106 0 0 204zm0 377l92 0c71,0 123,-8 154,-25 32,-17 48,-47 48,-89 0,-38 -15,-66 -45,-85 -30,-19 -76,-29 -136,-29l-113 0 0 228z"/>
   <path id="1" class="fil3" d="M60206 28268l-192 0 -65 -142 -427 0 -65 142 -182 0 421 -894 90 0 420 894zm-326 -293l-144 -311 -145 311 289 0z"/>
   <polygon id="2" class="fil3" points="61109,28286 61030,28286 60481,27696 60481,28268 60311,28268 60311,27374 60390,27374 60940,27947 60940,27382 61109,27382 "/>
   <polygon id="3" class="fil3" points="62072,28268 61841,28268 61474,27882 61474,28268 61296,28268 61296,27382 61474,27382 61474,27730 61812,27382 62029,27382 61613,27799 "/>
   <path class="fil2" d="M59036 43668c58,10 104,34 137,70 33,36 50,82 50,136 0,88 -28,152 -84,194 -57,41 -146,62 -269,62l-297 0 0 -886 305 0c105,0 183,19 236,57 52,38 78,95 78,171 0,49 -13,92 -41,127 -27,35 -65,59 -115,69zm-285 -67l86 0c60,0 106,-9 136,-27 30,-18 45,-44 45,-79 0,-35 -12,-59 -38,-75 -25,-16 -66,-24 -123,-24l-106 0 0 205zm0 377l92 0c71,0 123,-9 154,-25 32,-17 48,-47 48,-89 0,-38 -15,-67 -45,-86 -30,-19 -76,-28 -136,-28l-113 0 0 228z"/>
   <path id="1" class="fil2" d="M60206 44130l-192 0 -65 -142 -427 0 -65 142 -182 0 421 -894 90 0 420 894zm-326 -293l-144 -311 -145 311 289 0z"/>
   <polygon id="2" class="fil2" points="61109,44147 61030,44147 60481,43558 60481,44130 60311,44130 60311,43236 60390,43236 60940,43809 60940,43244 61109,43244 "/>
   <polygon id="3" class="fil2" points="62072,44130 61841,44130 61474,43744 61474,44130 61296,44130 61296,43244 61474,43244 61474,43591 61812,43244 62029,43244 61613,43661 "/>
   <path class="fil3" d="M21632 37734c-69,-45 -137,-68 -205,-68 -44,0 -78,10 -100,28 -23,19 -34,42 -34,69 0,24 9,47 29,67 20,20 73,48 158,86 117,51 194,102 230,152 36,51 54,110 54,179 0,90 -32,160 -94,210 -63,50 -150,75 -260,75 -60,0 -118,-8 -173,-24 -55,-16 -108,-40 -158,-73l87 -160c41,27 81,48 121,61 40,14 80,21 120,21 55,0 96,-9 124,-26 27,-17 41,-43 41,-77 0,-31 -13,-58 -38,-80 -25,-22 -70,-46 -134,-74 -64,-28 -116,-54 -156,-78 -41,-25 -74,-57 -102,-97 -27,-40 -41,-89 -41,-147 0,-81 29,-149 88,-204 58,-55 140,-83 245,-83 98,0 195,29 290,84l-92 159z"/>
   <polygon id="1" class="fil3" points="22532,37807 22079,38766 21869,38827 22055,38435 21763,37807 21959,37807 22149,38248 22351,37807 "/>
   <path id="2" class="fil3" d="M23333 38512l-186 0 0 -441c0,-41 -11,-73 -33,-94 -21,-22 -52,-33 -91,-33 -58,0 -105,21 -142,61 -37,41 -56,93 -56,157l0 350 -186 0 0 -675 176 -51 0 118c35,-40 75,-69 118,-89 43,-20 90,-29 140,-29 84,0 148,24 193,71 45,47 67,116 67,205l0 450z"/>
   <path id="3" class="fil3" d="M24129 38459c-83,49 -177,73 -281,73 -111,0 -202,-35 -274,-107 -72,-71 -108,-157 -108,-259 0,-109 36,-200 109,-272 73,-72 167,-108 282,-108 106,0 194,24 264,72l-79 130c-54,-34 -113,-51 -177,-51 -64,0 -114,21 -151,62 -37,42 -56,97 -56,166 0,63 19,115 56,155 38,41 84,61 140,61 63,0 129,-19 198,-56l77 134z"/>
   <path id="4" class="fil3" d="M24915 38127l-546 103c11,52 36,92 73,118 38,26 87,39 150,39 65,0 131,-18 198,-55l77 135c-92,44 -191,65 -295,65 -121,0 -218,-34 -292,-103 -73,-69 -110,-156 -110,-261 0,-112 37,-204 110,-275 73,-72 165,-107 274,-107 102,0 186,30 252,91 66,60 103,144 109,250zm-196 -98c-16,-32 -38,-57 -65,-73 -28,-17 -61,-25 -101,-25 -49,0 -91,15 -126,44 -34,30 -55,70 -63,119l355 -65z"/>
   <path id="5" class="fil3" d="M25836 38467l-135 65c-37,-35 -56,-70 -56,-105 -68,70 -158,105 -269,105 -108,0 -197,-35 -266,-105 -70,-69 -104,-159 -104,-268 0,-103 36,-191 109,-264 73,-73 162,-109 267,-109 93,0 171,24 231,72l0 -405 186 -54 0 897c0,49 3,85 7,108 4,23 14,44 30,63zm-431 -86c62,0 112,-21 150,-62 38,-42 57,-95 57,-158 0,-68 -18,-123 -55,-163 -36,-41 -86,-61 -149,-61 -65,0 -116,20 -153,61 -38,42 -57,94 -57,158 0,64 19,118 56,161 37,43 87,64 151,64z"/>
   <polygon id="6" class="fil3" points="27376,37807 27059,38532 26996,38532 26823,38101 26639,38532 26578,38532 26277,37807 26462,37807 26618,38218 26801,37796 26865,37796 27037,38213 27203,37807 "/>
   <path id="7" class="fil3" d="M27674 38512l-185 0 0 -672 185 -54 0 726zm-93 -1059c33,0 61,12 84,35 24,23 35,51 35,83 0,33 -11,61 -35,83 -23,22 -51,34 -84,34 -33,0 -60,-12 -83,-34 -22,-23 -34,-50 -34,-83 0,-32 12,-60 35,-83 22,-23 50,-35 82,-35z"/>
   <path id="8" class="fil3" d="M28345 37807l-77 151 -148 0 0 252c0,68 11,121 32,159 22,38 57,70 107,95l-124 82c-67,-21 -117,-55 -151,-102 -33,-47 -50,-107 -50,-181l0 -305 -125 0 0 -151 125 0 0 -170 186 -119 0 289 225 0z"/>
   <path id="9" class="fil3" d="M29132 38512l-186 0 0 -441c0,-41 -11,-73 -32,-94 -22,-22 -52,-33 -92,-33 -58,0 -105,21 -142,61 -37,41 -56,93 -56,157l0 350 -185 0 0 -1059 185 -54 0 492c35,-35 73,-61 115,-79 41,-18 86,-26 133,-26 84,0 149,24 193,71 45,47 67,116 67,205l0 450z"/>
   <path id="10" class="fil3" d="M30565 38429c-126,69 -260,103 -403,103 -149,0 -274,-49 -374,-148 -99,-99 -149,-224 -149,-375 0,-148 51,-271 154,-370 103,-98 234,-148 391,-148 125,0 238,31 340,92l-94 168c-79,-52 -163,-79 -249,-79 -100,0 -181,32 -243,96 -62,65 -92,145 -92,243 0,101 29,184 89,246 59,62 138,94 235,94 69,0 134,-13 194,-39l0 -169 -281 0 102 -176 380 0 0 462z"/>
   <path id="11" class="fil3" d="M30942 38512l-186 0 0 -672 186 -54 0 726zm-93 -1059c33,0 61,12 84,35 23,23 35,51 35,83 0,33 -12,61 -35,83 -23,22 -51,34 -84,34 -33,0 -60,-12 -83,-34 -23,-23 -34,-50 -34,-83 0,-32 11,-60 34,-83 23,-23 51,-35 83,-35z"/>
   <path id="12" class="fil3" d="M31915 38467l-134 65c-37,-35 -56,-70 -56,-105 -69,70 -158,105 -269,105 -108,0 -197,-35 -267,-105 -69,-69 -104,-159 -104,-268 0,-103 37,-191 109,-264 73,-73 162,-109 268,-109 93,0 170,24 231,72l0 -405 186 -54 0 897c0,49 2,85 7,108 4,23 14,44 29,63zm-430 -86c62,0 112,-21 150,-62 38,-42 57,-95 57,-158 0,-68 -18,-123 -55,-163 -36,-41 -86,-61 -150,-61 -64,0 -115,20 -153,61 -37,42 -56,94 -56,158 0,64 18,118 56,161 37,43 87,64 151,64z"/>
   <path id="13" class="fil3" d="M32848 38467l-135 65c-37,-35 -56,-70 -56,-105 -68,70 -158,105 -269,105 -108,0 -197,-35 -266,-105 -70,-69 -104,-159 -104,-268 0,-103 36,-191 109,-264 73,-73 162,-109 267,-109 93,0 171,24 232,72l0 -405 185 -54 0 897c0,49 3,85 7,108 4,23 14,44 30,63zm-431 -86c62,0 112,-21 150,-62 38,-42 57,-95 57,-158 0,-68 -18,-123 -55,-163 -36,-41 -86,-61 -149,-61 -65,0 -116,20 -153,61 -38,42 -57,94 -57,158 0,64 19,118 56,161 37,43 87,64 151,64z"/>
   <path id="14" class="fil3" d="M33692 38512l-186 0 0 -441c0,-41 -11,-73 -32,-94 -22,-22 -52,-33 -92,-33 -58,0 -105,21 -142,61 -37,41 -56,93 -56,157l0 350 -185 0 0 -1059 185 -54 0 492c35,-35 73,-61 115,-79 41,-18 86,-26 133,-26 85,0 149,24 193,71 45,47 67,116 67,205l0 450z"/>
   <g>
    <path class="fil2" d="M27467 15127l0 5215 -162 0 0 -5215 81 -81 81 81zm-162 0l0 -81 81 0 -81 81zm25711 81l-25630 0 0 -162 25630 0 0 162zm939 -81l-991 496 0 -991 991 495z"/>
   </g>
   <g>
    <path class="fil2" d="M27305 46957l0 -5215 162 0 0 5215 -81 81 -81 -81zm81 81l-81 0 0 -81 81 81zm25630 0l-25630 0 0 -162 25630 0 0 162zm939 -81l-991 495 0 -991 991 496z"/>
   </g>
   <g>
    <path class="fil2" d="M53016 31123l-14930 0 0 -162 14930 0 0 162zm939 -81l-991 495 0 -990 991 495z"/>
   </g>
  </g>
 </g>
</svg>
