<?xml version="1.0" encoding="UTF-8"?>
<!DOCTYPE svg PUBLIC "-//W3C//DTD SVG 1.1//EN" "http://www.w3.org/Graphics/SVG/1.1/DTD/svg11.dtd">
<!-- Creator: CorelDRAW X8 -->
<svg xmlns="http://www.w3.org/2000/svg" xml:space="preserve" width="4.45305in" height="3in" version="1.1" style="shape-rendering:geometricPrecision; text-rendering:geometricPrecision; image-rendering:optimizeQuality; fill-rule:evenodd; clip-rule:evenodd"
viewBox="0 0 2271 1530"
 xmlns:xlink="http://www.w3.org/1999/xlink">
 <defs>
  <style type="text/css">
   <![CDATA[
    .str1 {stroke:#373435;stroke-width:4.27812}
    .str0 {stroke:#373435;stroke-width:4.27812}
    .str2 {stroke:#373435;stroke-width:4.27812}
    .str3 {stroke:#373435;stroke-width:4.27812}
    .fil3 {fill:none}
    .fil0 {fill:#1A237E}
    .fil2 {fill:#FEFEFE;fill-rule:nonzero}
    .fil4 {fill:#606062;fill-rule:nonzero}
    .fil1 {fill:#1A237E;fill-rule:nonzero}
   ]]>
  </style>
 </defs>
 <g id="Layer_x0020_1">
  <metadata id="CorelCorpID_0Corel-Layer"/>
  <path class="fil0" d="M1993 170l-1916 0c-43,0 -77,34 -77,76l0 1207c0,42 34,77 77,77l1916 0c42,0 77,-35 77,-77l0 -1207c0,-42 -35,-76 -77,-76zm4 1217c0,43 -35,78 -78,77l-1769 0c-43,1 -78,-34 -79,-77l0 -1077c1,-43 36,-77 79,-77l1770 0c43,0 78,34 79,77l0 1077 -2 0z"/>
  <polygon class="fil1" points="196,398 196,337 209,337 209,398 "/>
  <path id="1" class="fil1" d="M261 398l-12 0 0 -23c0,-4 0,-8 -1,-9 0,-1 -1,-2 -2,-3 -1,-1 -3,-1 -4,-1 -3,0 -4,0 -6,1 -2,1 -3,3 -3,5 -1,2 -1,5 -1,10l0 20 -12 0 0 -44 11 0 0 6c4,-5 9,-7 15,-7 2,0 5,0 7,1 2,1 4,2 5,4 1,1 2,3 2,5 0,1 1,4 1,7l0 28z"/>
  <path id="2" class="fil1" d="M285 398l-18 -44 12 0 8 22 3 8c1,-2 1,-3 1,-4 0,-1 1,-3 1,-4l9 -22 12 0 -18 44 -10 0z"/>
  <path id="3" class="fil1" d="M320 348l0 -11 12 0 0 11 -12 0zm0 50l0 -44 12 0 0 44 -12 0z"/>
  <path id="4" class="fil1" d="M364 354l0 9 -8 0 0 18c0,4 0,6 0,6 0,1 1,1 1,2 1,0 2,0 2,0 1,0 3,0 5,-1l1 9c-3,1 -6,2 -9,2 -2,0 -4,0 -6,-1 -2,-1 -3,-2 -4,-3 0,-1 -1,-2 -1,-4 -1,-2 -1,-4 -1,-9l0 -19 -5 0 0 -9 5 0 0 -9 12 -7 0 16 8 0z"/>
  <path id="5" class="fil1" d="M398 384l12 2c-2,4 -4,7 -7,10 -4,2 -8,3 -13,3 -7,0 -13,-2 -17,-7 -3,-5 -4,-10 -4,-16 0,-7 2,-13 6,-17 3,-4 8,-6 14,-6 7,0 12,2 16,6 4,5 5,11 5,20l-29 0c0,4 1,6 3,8 2,2 4,3 6,3 2,0 4,0 5,-1 1,-1 2,-3 3,-5zm1 -12c0,-3 -1,-6 -3,-8 -2,-2 -4,-2 -6,-2 -3,0 -5,1 -6,2 -2,2 -3,5 -3,8l18 0z"/>
  <path id="6" class="fil1" d="M444 337l12 0 0 33c0,5 0,9 1,10 0,3 1,5 3,6 2,2 5,2 8,2 4,0 6,0 8,-2 2,-1 3,-3 3,-5 1,-2 1,-6 1,-10l0 -34 12 0 0 32c0,7 0,12 -1,16 0,3 -2,5 -3,7 -2,2 -4,4 -7,5 -3,1 -7,2 -12,2 -6,0 -10,-1 -13,-2 -3,-1 -6,-3 -8,-5 -1,-2 -3,-5 -3,-7 -1,-4 -1,-9 -1,-16l0 -32z"/>
  <path id="7" class="fil1" d="M501 385l12 -1c1,2 2,4 3,5 2,1 4,2 6,2 4,0 6,-1 7,-2 1,-1 2,-2 2,-3 0,-1 0,-2 -1,-2 -1,-1 -2,-2 -4,-2 -9,-2 -15,-4 -18,-6 -3,-2 -5,-5 -5,-10 0,-4 1,-7 4,-9 3,-3 8,-4 15,-4 6,0 10,1 13,3 3,2 5,5 6,8l-11 2c0,-1 -1,-3 -3,-4 -1,0 -3,-1 -5,-1 -3,0 -6,1 -7,1 -1,1 -1,2 -1,3 0,1 0,1 1,2 1,1 5,2 11,3 6,2 11,3 13,5 2,3 4,5 4,9 0,4 -2,8 -5,11 -4,3 -9,4 -16,4 -6,0 -10,-1 -14,-4 -3,-2 -6,-5 -7,-10z"/>
  <path id="8" class="fil1" d="M579 384l11 2c-1,4 -4,7 -7,10 -3,2 -7,3 -12,3 -8,0 -13,-2 -17,-7 -3,-5 -4,-10 -4,-16 0,-7 1,-13 5,-17 4,-4 9,-6 15,-6 6,0 12,2 15,6 4,5 6,11 6,20l-29 0c0,4 1,6 2,8 2,2 4,3 7,3 2,0 4,0 5,-1 1,-1 2,-3 3,-5zm0 -12c0,-3 -1,-6 -2,-8 -2,-2 -4,-2 -6,-2 -3,0 -5,1 -7,2 -1,2 -2,5 -2,8l17 0z"/>
  <path id="9" class="fil1" d="M612 398l-12 0 0 -44 11 0 0 6c2,-3 3,-5 5,-6 1,-1 3,-1 5,-1 3,0 5,0 8,2l-4 10c-2,-1 -4,-2 -5,-2 -2,0 -3,1 -5,2 -1,0 -2,2 -2,4 -1,3 -1,8 -1,15l0 14z"/>
  <ellipse class="fil0" cx="2016" cy="255" rx="254" ry="255"/>
  <path class="fil2" d="M2081 283c-12,0 -22,6 -29,14l-64 -32c0,-4 1,-7 1,-10 0,-4 -1,-7 -2,-11l64 -32c7,9 18,15 30,15 21,0 38,-17 38,-38 0,-21 -17,-38 -38,-38 -21,0 -38,17 -38,38 0,3 1,7 2,10l-64 32c-7,-8 -18,-14 -30,-14 -21,0 -38,17 -38,38 0,21 17,38 38,38 13,0 23,-6 30,-16l64 33c-1,3 -2,7 -2,11 0,21 17,37 38,37 21,0 38,-16 38,-37 0,-21 -17,-38 -38,-38z"/>
  <rect class="fil3 str0" x="196" y="558" width="94.9444" height="94.9444"/>
  <rect class="fil3 str1" x="196" y="802" width="94.9444" height="94.9444"/>
  <rect class="fil3 str2" x="196" y="1045" width="94.9444" height="94.9444"/>
  <rect class="fil3 str3" x="196" y="1289" width="94.9444" height="94.9444"/>
  <path class="fil4" d="M413 628l0 -61 28 0c5,0 9,0 12,1 3,1 5,3 7,6 1,3 2,6 2,9 0,5 -1,8 -4,11 -3,3 -7,5 -13,6 2,1 4,2 5,3 2,2 5,5 7,8l10 17 -10 0 -8 -13c-2,-4 -4,-6 -6,-8 -1,-2 -3,-4 -4,-4 -1,-1 -2,-2 -4,-2 -1,0 -2,0 -4,0l-9 0 0 27 -9 0zm9 -34l17 0c4,0 6,-1 9,-1 2,-1 3,-2 4,-4 1,-2 2,-4 2,-6 0,-3 -1,-5 -3,-7 -2,-2 -6,-3 -10,-3l-19 0 0 21z"/>
  <path id="1" class="fil4" d="M504 614l8 1c-1,4 -3,8 -7,10 -3,3 -7,4 -12,4 -7,0 -12,-2 -16,-6 -4,-4 -5,-10 -5,-17 0,-7 1,-13 5,-17 4,-4 9,-6 15,-6 6,0 11,2 15,6 3,4 5,9 5,17 0,0 0,1 0,2l-33 0c1,4 2,8 4,11 3,2 6,4 10,4 2,0 5,-1 7,-3 2,-1 3,-3 4,-6zm-24 -13l24 0c0,-3 -1,-6 -2,-8 -3,-3 -6,-4 -10,-4 -3,0 -6,1 -8,3 -3,2 -4,6 -4,9z"/>
  <path id="2" class="fil4" d="M551 622c-3,3 -6,4 -8,5 -3,1 -6,2 -9,2 -5,0 -8,-1 -11,-4 -3,-2 -4,-5 -4,-9 0,-2 1,-4 2,-6 1,-2 2,-3 3,-4 2,-1 4,-2 6,-3 1,0 4,0 7,-1 6,0 10,-1 13,-2 0,-1 0,-2 0,-2 0,-3 -1,-5 -2,-7 -2,-1 -5,-2 -9,-2 -3,0 -6,0 -8,2 -1,1 -3,3 -3,6l-8 -1c1,-3 2,-5 4,-7 1,-2 3,-4 6,-5 3,-1 7,-1 10,-1 4,0 7,0 10,1 2,1 4,2 5,3 1,2 2,3 2,5 0,2 1,4 1,7l0 10c0,7 0,12 0,14 0,1 1,3 2,5l-8 0c-1,-2 -1,-4 -1,-6zm-1 -16c-3,1 -7,2 -12,2 -3,1 -6,1 -7,2 -1,1 -2,1 -3,2 -1,1 -1,3 -1,4 0,2 1,4 2,5 2,1 4,2 7,2 3,0 6,-1 8,-2 2,-1 4,-3 5,-5 1,-2 1,-4 1,-8l0 -2z"/>
  <path id="3" class="fil4" d="M598 628l0 -6c-3,5 -7,7 -13,7 -3,0 -6,-1 -9,-3 -3,-2 -6,-5 -7,-8 -2,-4 -3,-8 -3,-12 0,-5 1,-9 3,-12 1,-4 3,-7 6,-9 3,-1 6,-2 10,-2 3,0 5,0 7,1 2,1 4,3 5,5l0 -22 8 0 0 61 -7 0zm-24 -22c0,5 1,10 4,12 2,3 5,5 8,5 3,0 6,-2 9,-4 2,-3 3,-7 3,-13 0,-6 -1,-10 -4,-13 -2,-3 -5,-4 -8,-4 -4,0 -6,1 -9,4 -2,3 -3,7 -3,13z"/>
  <path id="4" class="fil4" d="M639 598c0,-10 3,-18 8,-24 6,-6 13,-8 21,-8 6,0 11,1 16,4 4,2 8,6 10,11 2,5 4,10 4,16 0,7 -2,12 -4,17 -3,5 -6,9 -11,11 -4,3 -9,4 -15,4 -5,0 -11,-1 -15,-4 -5,-3 -8,-7 -11,-12 -2,-4 -3,-10 -3,-15zm8 0c0,8 2,13 6,18 4,4 9,6 15,6 6,0 11,-2 15,-6 4,-5 6,-11 6,-19 0,-5 -1,-9 -2,-13 -2,-3 -4,-6 -8,-8 -3,-2 -7,-3 -11,-3 -5,0 -10,2 -14,6 -5,3 -7,10 -7,19z"/>
  <path id="5" class="fil4" d="M707 628l0 -45 7 0 0 7c3,-5 8,-7 14,-7 3,0 5,0 7,1 3,1 4,2 5,4 1,1 2,3 3,5 0,2 0,4 0,8l0 27 -7 0 0 -27c0,-3 -1,-5 -1,-7 -1,-1 -2,-3 -3,-4 -2,0 -4,-1 -6,-1 -3,0 -6,1 -8,3 -2,2 -3,6 -3,12l0 24 -8 0z"/>
  <polygon id="6" class="fil4" points="754,628 754,567 762,567 762,628 "/>
  <path id="7" class="fil4" d="M773 645l-1 -7c2,0 4,1 5,1 1,0 3,-1 4,-1 1,-1 2,-2 2,-3 1,0 1,-2 3,-5 0,-1 0,-1 0,-2l-17 -45 8 0 10 26c1,3 2,7 3,10 1,-3 2,-6 3,-10l9 -26 8 0 -17 46c-2,5 -3,8 -4,10 -1,2 -3,4 -5,5 -1,1 -3,2 -6,2 -1,0 -3,0 -5,-1z"/>
  <polygon class="fil4" points="413,879 413,818 458,818 458,825 422,825 422,844 455,844 455,851 422,851 422,872 459,872 459,879 "/>
  <path id="1" class="fil4" d="M498 879l0 -5c-3,4 -7,6 -12,6 -4,0 -7,-1 -10,-3 -3,-2 -5,-4 -7,-8 -2,-3 -3,-7 -3,-12 0,-4 1,-8 3,-12 1,-3 3,-6 6,-8 3,-2 7,-3 10,-3 3,0 5,1 7,2 2,1 4,2 5,4l0 -22 8 0 0 61 -7 0zm-24 -22c0,6 1,10 4,13 2,3 5,4 8,4 4,0 6,-1 9,-4 2,-3 3,-7 3,-12 0,-6 -1,-11 -3,-13 -3,-3 -6,-5 -9,-5 -3,0 -6,2 -8,4 -3,3 -4,7 -4,13z"/>
  <path id="2" class="fil4" d="M517 827l0 -9 7 0 0 9 -7 0zm0 52l0 -44 7 0 0 44 -7 0z"/>
  <path id="3" class="fil4" d="M552 873l1 6c-2,1 -4,1 -5,1 -3,0 -5,0 -7,-1 -1,-1 -2,-2 -3,-4 -1,-1 -1,-4 -1,-9l0 -25 -5 0 0 -6 5 0 0 -11 8 -5 0 16 7 0 0 6 -7 0 0 26c0,2 0,3 0,4 0,1 1,1 1,1 1,1 2,1 3,1 1,0 2,0 3,0z"/>
  <path class="fil4" d="M406 1123l24 -61 9 0 25 61 -9 0 -7 -19 -26 0 -7 19 -9 0zm18 -25l21 0 -6 -17c-2,-5 -4,-10 -5,-13 -1,4 -2,8 -3,12l-7 18z"/>
  <path id="1" class="fil4" d="M498 1123l0 -6c-3,5 -7,7 -12,7 -4,0 -7,-1 -10,-3 -3,-2 -5,-5 -7,-8 -2,-4 -3,-8 -3,-12 0,-5 1,-9 3,-12 1,-4 3,-7 6,-9 3,-2 7,-2 10,-2 3,0 5,0 7,1 2,1 4,3 5,5l0 -22 8 0 0 61 -7 0zm-24 -22c0,5 1,10 4,12 2,3 5,5 8,5 4,0 6,-2 9,-4 2,-3 3,-7 3,-13 0,-6 -1,-10 -3,-13 -3,-3 -6,-4 -9,-4 -3,0 -6,1 -8,4 -3,3 -4,7 -4,13z"/>
  <path id="2" class="fil4" d="M517 1123l0 -45 7 0 0 7c1,-2 3,-4 5,-6 3,-1 5,-1 8,-1 3,0 6,0 8,2 2,1 4,3 5,5 3,-5 8,-7 13,-7 5,0 8,1 11,3 2,3 3,6 3,11l0 31 -7 0 0 -28c0,-3 -1,-5 -1,-7 -1,-1 -2,-2 -3,-3 -1,-1 -3,-1 -4,-1 -3,0 -6,1 -8,3 -2,2 -3,6 -3,10l0 26 -8 0 0 -29c0,-3 0,-6 -2,-7 -1,-2 -3,-3 -6,-3 -2,0 -4,1 -5,2 -2,1 -4,2 -4,5 -1,2 -2,5 -2,9l0 23 -7 0z"/>
  <path id="3" class="fil4" d="M588 1070l0 -8 8 0 0 8 -8 0zm0 53l0 -45 8 0 0 45 -8 0z"/>
  <path id="4" class="fil4" d="M607 1123l0 -45 7 0 0 7c3,-5 8,-7 14,-7 3,0 5,0 7,1 3,1 4,2 5,4 2,1 2,3 3,5 0,2 0,4 0,8l0 27 -7 0 0 -27c0,-3 -1,-5 -1,-7 -1,-2 -2,-3 -3,-4 -2,-1 -4,-1 -6,-1 -3,0 -6,1 -8,3 -2,2 -3,6 -3,12l0 24 -8 0z"/>
  <path class="fil4" d="M411 1339l7 -1c1,4 1,6 3,8 1,2 3,4 6,5 3,1 6,2 9,2 3,0 6,-1 8,-2 3,-1 5,-2 6,-4 1,-1 1,-3 1,-5 0,-2 0,-3 -1,-5 -1,-1 -3,-2 -6,-3 -1,-1 -5,-2 -11,-3 -5,-2 -9,-3 -11,-4 -3,-2 -6,-4 -7,-6 -1,-2 -2,-5 -2,-8 0,-3 1,-6 3,-8 1,-3 4,-5 7,-6 4,-2 7,-2 11,-2 5,0 9,0 12,2 4,1 7,3 8,6 2,3 3,6 3,10l-7 0c-1,-3 -2,-6 -5,-8 -2,-2 -6,-3 -10,-3 -5,0 -9,1 -11,2 -2,2 -3,4 -3,7 0,2 0,4 2,5 2,2 6,3 12,5 7,1 11,3 14,4 3,1 6,3 8,6 1,2 2,5 2,9 0,3 -1,6 -3,9 -1,3 -4,5 -8,6 -3,2 -7,3 -11,3 -6,0 -11,-1 -14,-3 -4,-1 -7,-4 -9,-7 -2,-3 -3,-7 -3,-11z"/>
  <path id="1" class="fil4" d="M498 1359l0 -7c-3,5 -8,8 -14,8 -2,0 -5,-1 -7,-2 -2,-1 -4,-2 -5,-4 -1,-1 -2,-3 -2,-5 -1,-2 -1,-4 -1,-7l0 -28 8 0 0 25c0,4 0,7 0,8 1,2 2,3 3,5 2,1 4,1 6,1 2,0 4,0 6,-1 2,-2 3,-3 4,-5 1,-2 2,-5 2,-9l0 -24 7 0 0 45 -7 0z"/>
  <path id="2" class="fil4" d="M517 1376l0 -62 7 0 0 6c1,-2 3,-4 5,-5 2,-1 5,-2 8,-2 3,0 7,1 10,3 3,2 5,5 6,9 2,3 2,7 2,11 0,5 0,9 -2,13 -2,3 -4,6 -7,8 -3,2 -7,3 -10,3 -2,0 -5,-1 -7,-2 -2,-1 -3,-2 -5,-4l0 22 -7 0zm7 -39c0,6 1,10 3,13 2,2 5,4 9,4 3,0 6,-2 8,-5 2,-2 4,-7 4,-13 0,-5 -1,-10 -4,-12 -2,-3 -5,-5 -8,-5 -3,0 -6,2 -9,5 -2,3 -3,7 -3,13z"/>
  <path id="3" class="fil4" d="M595 1344l8 1c-2,5 -4,9 -7,11 -4,2 -8,4 -13,4 -6,0 -12,-2 -15,-6 -4,-4 -6,-10 -6,-17 0,-7 2,-13 6,-17 4,-4 9,-7 15,-7 6,0 10,2 14,7 4,4 6,9 6,17 0,0 0,1 0,2l-33 0c0,4 1,8 4,11 2,2 5,4 9,4 3,0 5,-1 7,-3 2,-1 4,-3 5,-7zm-25 -12l25 0c-1,-3 -1,-6 -3,-8 -2,-3 -5,-4 -9,-4 -4,0 -7,1 -9,3 -2,2 -4,6 -4,9z"/>
  <path id="4" class="fil4" d="M612 1359l0 -45 7 0 0 7c1,-3 3,-5 4,-6 2,-1 4,-2 5,-2 3,0 5,1 8,3l-3 7c-1,-1 -3,-2 -5,-2 -2,0 -3,1 -4,2 -2,1 -3,2 -3,4 -1,3 -2,5 -2,9l0 23 -7 0z"/>
  <path id="5" class="fil4" d="M654 1359l23 -61 9 0 25 61 -9 0 -7 -19 -26 0 -7 19 -8 0zm17 -25l21 0 -6 -17c-2,-5 -3,-10 -4,-13 -1,4 -2,8 -4,12l-7 18z"/>
  <path id="6" class="fil4" d="M745 1359l0 -6c-3,5 -7,7 -12,7 -4,0 -7,-1 -10,-3 -3,-2 -5,-5 -7,-8 -1,-4 -2,-8 -2,-12 0,-5 1,-9 2,-12 1,-4 4,-7 7,-9 3,-2 6,-3 10,-3 2,0 5,1 7,2 2,1 3,3 5,5l0 -22 7 0 0 61 -7 0zm-24 -22c0,5 2,10 4,12 2,3 5,5 9,5 3,0 6,-2 8,-4 2,-3 3,-7 3,-13 0,-6 -1,-10 -3,-13 -2,-3 -5,-4 -9,-4 -3,0 -6,1 -8,4 -2,3 -4,7 -4,13z"/>
  <path id="7" class="fil4" d="M764 1359l0 -45 7 0 0 7c1,-2 3,-4 5,-6 3,-1 5,-2 8,-2 4,0 6,1 8,3 3,1 4,3 5,5 3,-5 8,-8 14,-8 4,0 7,2 10,4 2,3 3,6 3,11l0 31 -7 0 0 -28c0,-3 0,-5 -1,-7 0,-1 -1,-2 -3,-3 -1,-1 -2,-1 -4,-1 -3,0 -6,1 -8,3 -2,2 -3,5 -3,10l0 26 -7 0 0 -29c0,-3 -1,-6 -2,-8 -2,-1 -4,-2 -6,-2 -2,0 -4,1 -6,2 -2,1 -3,2 -4,5 -1,2 -1,5 -1,9l0 23 -8 0z"/>
  <path id="8" class="fil4" d="M835 1306l0 -8 8 0 0 8 -8 0zm0 53l0 -45 8 0 0 45 -8 0z"/>
  <path id="9" class="fil4" d="M854 1359l0 -45 7 0 0 7c3,-5 8,-8 14,-8 3,0 5,1 8,2 2,1 4,2 5,4 1,1 2,3 2,5 0,2 0,4 0,8l0 27 -7 0 0 -27c0,-3 0,-6 -1,-7 -1,-2 -2,-3 -3,-4 -2,-1 -3,-1 -5,-1 -3,0 -6,1 -9,3 -2,2 -3,6 -3,12l0 24 -8 0z"/>
  <path class="fil4" d="M1099 606l15 -16c3,-2 3,-7 0,-9 -3,-3 -7,-3 -9,0l-16 15 -16 -15c-2,-3 -6,-3 -9,0 -3,2 -3,7 0,9l15 16 -15 15c-3,3 -3,7 0,10 1,1 3,2 5,2 1,0 3,-1 4,-2l16 -16 16 16c1,1 3,2 4,2 2,0 4,-1 5,-2 3,-3 3,-7 0,-10l-15 -15z"/>
  <path class="fil4" d="M1308 633c-2,0 -3,-1 -5,-2l-18 -18c-3,-3 -3,-8 0,-11 3,-2 7,-2 10,0l13 13 35 -34c3,-3 7,-3 10,0 3,3 3,7 0,10l-40 40c-1,1 -3,2 -5,2z"/>
  <path class="fil4" d="M1559 606l15 -16c3,-2 3,-7 0,-9 -2,-3 -7,-3 -9,0l-16 15 -15 -15c-3,-3 -7,-3 -10,0 -3,2 -3,7 0,9l16 16 -16 15c-3,3 -3,7 0,10 1,1 3,2 5,2 2,0 3,-1 5,-2l15 -16 16 16c1,1 3,2 4,2 2,0 4,-1 5,-2 3,-3 3,-7 0,-10l-15 -15z"/>
  <path class="fil4" d="M1559 1093l15 -16c3,-2 3,-7 0,-9 -2,-3 -7,-3 -9,0l-16 15 -15 -15c-3,-3 -7,-3 -10,0 -3,2 -3,7 0,9l16 16 -16 15c-3,3 -3,7 0,10 1,1 3,2 5,2 2,0 3,-1 5,-2l15 -16 16 16c1,1 3,2 4,2 2,0 4,-1 5,-2 3,-3 3,-7 0,-10l-15 -15z"/>
  <path class="fil4" d="M1789 606l15 -16c3,-2 3,-7 0,-9 -2,-3 -7,-3 -9,0l-16 15 -15 -15c-3,-3 -7,-3 -10,0 -3,2 -3,7 0,9l16 16 -16 15c-3,3 -3,7 0,10 1,1 3,2 5,2 2,0 3,-1 5,-2l15 -16 16 16c1,1 3,2 4,2 2,0 4,-1 5,-2 3,-3 3,-7 0,-10l-15 -15z"/>
  <path class="fil4" d="M1770 849l-16 -15c-3,-3 -3,-7 0,-10 3,-3 7,-3 10,0l15 16 16 -16c2,-3 7,-3 9,0 3,3 3,7 0,10l-15 15 15 16c3,2 3,7 0,9 -1,2 -3,2 -5,2 -1,0 -3,0 -4,-2l-16 -15 -15 15c-2,2 -3,2 -5,2 -2,0 -4,0 -5,-2 -3,-2 -3,-7 0,-9l16 -16z"/>
  <path class="fil4" d="M1538 876c-2,0 -3,0 -5,-2l-18 -18c-3,-3 -3,-7 0,-10 3,-3 7,-3 10,0l13 13 35 -35c3,-3 7,-3 10,0 3,3 3,8 0,10l-40 40c-1,2 -3,2 -5,2z"/>
  <path class="fil4" d="M1309 849l-15 -15c-3,-3 -3,-7 0,-10 3,-3 7,-3 10,0l15 16 16 -16c2,-3 6,-3 9,0 3,3 3,7 0,10l-15 15 15 16c3,2 3,7 0,9 -1,2 -3,2 -5,2 -1,0 -3,0 -4,-2l-16 -15 -15 15c-2,2 -4,2 -5,2 -2,0 -4,0 -5,-2 -3,-2 -3,-7 0,-9l15 -16z"/>
  <path class="fil4" d="M1079 849l-15 -15c-3,-3 -3,-7 0,-10 3,-3 7,-3 9,0l16 16 16 -16c2,-3 6,-3 9,0 3,3 3,7 0,10l-15 15 15 16c3,2 3,7 0,9 -1,2 -3,2 -5,2 -1,0 -3,0 -4,-2l-16 -15 -16 15c-1,2 -3,2 -4,2 -2,0 -4,0 -5,-2 -3,-2 -3,-7 0,-9l15 -16z"/>
  <path class="fil4" d="M1079 1093l-15 -16c-3,-2 -3,-7 0,-9 3,-3 7,-3 9,0l16 15 16 -15c2,-3 6,-3 9,0 3,2 3,7 0,9l-15 16 15 15c3,3 3,7 0,10 -1,1 -3,2 -5,2 -1,0 -3,-1 -4,-2l-16 -16 -16 16c-1,1 -3,2 -4,2 -2,0 -4,-1 -5,-2 -3,-3 -3,-7 0,-10l15 -15z"/>
  <path class="fil4" d="M1308 1120c-2,0 -3,-1 -5,-2l-18 -18c-3,-3 -3,-8 0,-11 3,-2 7,-2 10,0l13 13 35 -34c3,-3 7,-3 10,0 3,3 3,7 0,10l-40 40c-1,1 -3,2 -5,2z"/>
  <path class="fil4" d="M1768 1120c-2,0 -3,-1 -5,-2l-18 -18c-3,-3 -3,-8 0,-11 3,-2 8,-2 10,0l13 13 35 -34c3,-3 7,-3 10,0 3,3 3,7 0,10l-40 40c-1,1 -3,2 -5,2z"/>
  <path class="fil4" d="M1078 1363c-2,0 -4,0 -5,-2l-18 -18c-3,-3 -3,-7 0,-10 3,-3 7,-3 10,0l13 13 35 -35c3,-3 7,-3 10,0 3,3 3,8 0,10l-40 40c-1,2 -3,2 -5,2z"/>
  <path class="fil4" d="M1308 1363c-2,0 -3,0 -5,-2l-18 -18c-3,-3 -3,-7 0,-10 3,-3 7,-3 10,0l13 13 35 -35c3,-3 7,-3 10,0 3,3 3,8 0,10l-40 40c-1,2 -3,2 -5,2z"/>
  <path class="fil4" d="M1538 1363c-2,0 -3,0 -5,-2l-18 -18c-3,-3 -3,-7 0,-10 3,-3 7,-3 10,0l13 13 35 -35c3,-3 7,-3 10,0 3,3 3,8 0,10l-40 40c-1,2 -3,2 -5,2z"/>
  <path class="fil4" d="M1768 1363c-2,0 -3,0 -5,-2l-18 -18c-3,-3 -3,-7 0,-10 3,-3 8,-3 10,0l13 13 35 -35c3,-3 7,-3 10,0 3,3 3,8 0,10l-40 40c-1,2 -3,2 -5,2z"/>
 </g>
</svg>
