<?xml version="1.0" encoding="UTF-8"?>
<!DOCTYPE svg PUBLIC "-//W3C//DTD SVG 1.1//EN" "http://www.w3.org/Graphics/SVG/1.1/DTD/svg11.dtd">
<!-- Creator: CorelDRAW X8 -->
<svg xmlns="http://www.w3.org/2000/svg" xml:space="preserve" width="5.03201in" height="3in" version="1.1" style="shape-rendering:geometricPrecision; text-rendering:geometricPrecision; image-rendering:optimizeQuality; fill-rule:evenodd; clip-rule:evenodd"
viewBox="0 0 2578 1537"
 xmlns:xlink="http://www.w3.org/1999/xlink">
 <defs>
  <style type="text/css">
   <![CDATA[
    .str0 {stroke:#1A237E;stroke-width:1.72703}
    .fil2 {fill:none}
    .fil6 {fill:#FEFEFE}
    .fil0 {fill:#E6E7E8}
    .fil1 {fill:#1A237E}
    .fil5 {fill:#FEFEFE;fill-rule:nonzero}
    .fil3 {fill:#606062;fill-rule:nonzero}
    .fil4 {fill:#1A237E;fill-rule:nonzero}
   ]]>
  </style>
 </defs>
 <g id="Layer_x0020_1">
  <metadata id="CorelCorpID_0Corel-Layer"/>
  <g id="_2490672752560">
   <path class="fil0" d="M160 134l1995 0c9,0 16,4 16,9l0 126c0,5 -7,9 -16,9l-1995 0c-9,0 -16,-4 -16,-9l0 -126c0,-5 7,-9 16,-9z"/>
   <path class="fil1" d="M2252 0l-2165 0c-48,0 -87,39 -87,87l0 1363c0,48 39,87 87,87l2165 0c48,0 87,-39 87,-87l0 -1363c0,-48 -39,-87 -87,-87zm5 1376c-1,48 -40,87 -89,87l-1999 0c-48,0 -88,-39 -89,-87l0 -1218c1,-48 41,-87 89,-86l2000 0c49,-1 89,38 89,86l0 1218 -1 0z"/>
   <line class="fil2 str0" x1="144" y1="327" x2="2125" y2= "318" />
   <path class="fil3" d="M220 227l0 -58 7 0 0 21c4,-4 8,-6 13,-6 3,0 5,1 8,2 2,1 4,3 4,5 1,2 2,5 2,9l0 27 -7 0 0 -27c0,-3 -1,-6 -2,-7 -2,-2 -4,-3 -7,-3 -2,0 -4,1 -6,2 -1,1 -3,3 -4,4 0,2 -1,5 -1,8l0 23 -7 0z"/>
   <path id="1" class="fil3" d="M280 220l1 7c-2,0 -4,0 -5,0 -3,0 -5,0 -6,-1 -2,-1 -3,-2 -3,-3 -1,-1 -1,-4 -1,-8l0 -24 -5 0 0 -6 5 0 0 -10 7 -4 0 14 7 0 0 6 -7 0 0 24c0,2 0,3 0,4 1,0 1,1 2,1 0,0 1,1 2,1 1,0 2,0 3,-1z"/>
   <path id="2" class="fil3" d="M302 220l1 7c-2,0 -4,0 -5,0 -3,0 -5,0 -6,-1 -1,-1 -2,-2 -3,-3 -1,-1 -1,-4 -1,-8l0 -24 -5 0 0 -6 5 0 0 -10 7 -4 0 14 7 0 0 6 -7 0 0 24c0,2 0,3 1,4 0,0 0,1 1,1 0,0 1,1 2,1 1,0 2,0 3,-1z"/>
   <path id="3" class="fil3" d="M309 243l0 -58 7 0 0 6c1,-2 3,-4 5,-5 2,-1 4,-2 7,-2 3,0 6,1 9,3 3,2 5,4 6,8 1,3 2,7 2,11 0,4 -1,8 -2,11 -2,3 -4,6 -7,8 -3,2 -6,3 -9,3 -2,0 -4,-1 -6,-2 -2,-1 -4,-2 -5,-4l0 21 -7 0zm7 -37c0,5 1,9 3,12 2,3 5,4 8,4 3,0 5,-2 8,-4 2,-3 3,-7 3,-12 0,-6 -1,-10 -3,-12 -3,-3 -5,-4 -8,-4 -3,0 -6,1 -8,4 -2,3 -3,7 -3,12z"/>
   <path id="4" class="fil3" d="M351 214l7 -1c0,3 1,5 3,7 2,1 4,2 7,2 4,0 6,-1 8,-2 1,-1 2,-3 2,-5 0,-1 -1,-3 -2,-4 -1,0 -3,-1 -7,-2 -5,-1 -9,-2 -11,-3 -2,-1 -3,-3 -4,-4 -1,-2 -2,-4 -2,-6 0,-2 0,-3 1,-5 1,-1 2,-3 4,-4 1,-1 2,-1 4,-2 2,0 4,-1 6,-1 3,0 6,1 9,2 2,1 4,2 5,4 1,1 2,3 3,6l-7 1c-1,-2 -1,-4 -3,-5 -1,-1 -4,-2 -6,-2 -3,0 -6,1 -7,2 -2,1 -2,2 -2,3 0,1 0,2 1,3 0,1 1,1 2,2 1,0 3,1 7,2 4,1 8,2 10,3 2,1 3,2 5,3 1,2 1,4 1,6 0,3 0,5 -2,7 -1,2 -3,4 -6,5 -2,1 -5,2 -8,2 -6,0 -10,-2 -13,-4 -3,-2 -4,-5 -5,-10z"/>
   <path id="5" class="fil3" d="M395 193l0 -8 8 0 0 8 -8 0zm0 34l0 -8 8 0 0 8 -8 0z"/>
   <polygon id="6" class="fil3" points="410,228 427,168 433,168 416,228 "/>
   <polygon id="7" class="fil3" points="433,228 449,168 455,168 438,228 "/>
   <path id="8" class="fil3" d="M459 230l7 1c0,2 1,4 2,5 2,1 4,2 7,2 3,0 6,-1 8,-2 1,-2 3,-3 3,-6 1,-1 1,-4 1,-9 -3,4 -7,6 -12,6 -5,0 -10,-2 -13,-7 -3,-4 -5,-9 -5,-14 0,-4 1,-8 3,-11 1,-4 3,-6 6,-8 2,-2 6,-3 9,-3 5,0 9,2 12,6l0 -5 7 0 0 36c0,6 -1,11 -2,14 -1,2 -3,5 -6,6 -3,2 -7,2 -11,2 -5,0 -9,-1 -12,-3 -3,-2 -4,-5 -4,-10zm6 -25c0,6 1,10 3,12 2,3 5,4 8,4 3,0 6,-1 8,-4 2,-2 3,-6 3,-12 0,-5 -1,-8 -3,-11 -2,-3 -5,-4 -8,-4 -3,0 -6,1 -8,4 -2,2 -3,6 -3,11z"/>
   <path id="9" class="fil3" d="M505 177l0 -8 7 0 0 8 -7 0zm0 50l0 -42 7 0 0 42 -7 0z"/>
   <path id="10" class="fil3" d="M549 227l0 -6c-3,4 -6,7 -11,7 -4,0 -7,-1 -10,-3 -2,-2 -5,-5 -6,-8 -2,-3 -2,-7 -2,-11 0,-4 0,-8 2,-11 1,-4 3,-6 6,-8 3,-2 6,-3 9,-3 3,0 5,1 7,2 2,1 3,2 5,4l0 -21 7 0 0 58 -7 0zm-22 -21c0,5 1,9 3,12 2,2 5,4 8,4 3,0 6,-1 8,-4 2,-2 3,-6 3,-11 0,-6 -1,-10 -3,-13 -2,-3 -5,-4 -8,-4 -3,0 -6,1 -8,4 -2,3 -3,7 -3,12z"/>
   <path id="11" class="fil3" d="M594 227l0 -6c-3,4 -7,7 -12,7 -3,0 -6,-1 -9,-3 -3,-2 -5,-5 -7,-8 -1,-3 -2,-7 -2,-11 0,-4 1,-8 2,-11 2,-4 4,-6 6,-8 3,-2 6,-3 10,-3 2,0 4,1 6,2 2,1 4,2 5,4l0 -21 7 0 0 58 -6 0zm-23 -21c0,5 1,9 4,12 2,2 5,4 8,4 3,0 5,-1 7,-4 3,-2 4,-6 4,-11 0,-6 -1,-10 -4,-13 -2,-3 -4,-4 -8,-4 -3,0 -5,1 -8,4 -2,3 -3,7 -3,12z"/>
   <path id="12" class="fil3" d="M611 227l0 -58 7 0 0 21c3,-4 8,-6 13,-6 3,0 5,1 8,2 2,1 3,3 4,5 1,2 2,5 2,9l0 27 -7 0 0 -27c0,-3 -1,-6 -2,-7 -2,-2 -4,-3 -7,-3 -2,0 -4,1 -6,2 -2,1 -3,3 -4,4 0,2 -1,5 -1,8l0 23 -7 0z"/>
   <polygon id="13" class="fil3" points="658,227 658,219 666,219 666,227 "/>
   <path id="14" class="fil3" d="M705 211l7 1c-1,5 -3,9 -6,12 -3,2 -7,4 -11,4 -6,0 -11,-2 -14,-6 -4,-4 -5,-9 -5,-16 0,-4 1,-8 2,-12 1,-3 4,-6 7,-7 3,-2 6,-3 10,-3 4,0 8,1 11,4 3,2 4,5 5,9l-7 1c0,-2 -1,-4 -3,-6 -2,-1 -4,-2 -6,-2 -4,0 -7,1 -9,4 -2,2 -3,6 -3,12 0,5 1,9 3,12 2,3 5,4 8,4 3,0 6,-1 7,-3 2,-1 3,-4 4,-8z"/>
   <path id="15" class="fil3" d="M715 206c0,-8 2,-13 7,-17 3,-3 7,-5 13,-5 5,0 10,2 14,6 3,4 5,9 5,15 0,6 -1,10 -2,13 -2,3 -4,5 -7,7 -3,2 -7,3 -10,3 -6,0 -11,-2 -14,-6 -4,-4 -6,-9 -6,-16zm7 0c0,5 1,9 4,12 2,2 5,4 9,4 3,0 6,-2 8,-4 3,-3 4,-7 4,-12 0,-5 -1,-9 -4,-12 -2,-3 -5,-4 -8,-4 -4,0 -7,1 -9,4 -3,3 -4,7 -4,12z"/>
   <path id="16" class="fil3" d="M762 227l0 -42 7 0 0 6c1,-2 3,-4 5,-5 2,-1 4,-2 7,-2 3,0 6,1 8,2 2,1 3,3 4,6 3,-5 7,-8 13,-8 4,0 7,1 9,4 2,2 3,6 3,10l0 29 -7 0 0 -26c0,-3 0,-5 0,-6 -1,-2 -2,-3 -3,-3 -1,-1 -2,-2 -4,-2 -3,0 -5,1 -7,3 -2,2 -3,5 -3,10l0 24 -7 0 0 -27c0,-3 -1,-6 -2,-7 -1,-2 -3,-3 -6,-3 -1,0 -3,1 -5,2 -2,1 -3,3 -4,5 0,2 -1,4 -1,8l0 22 -7 0z"/>
   <polygon id="17" class="fil3" points="824,228 840,168 846,168 829,228 "/>
   <path id="18" class="fil3" d="M878 221c-3,3 -5,4 -7,5 -3,1 -5,2 -8,2 -5,0 -8,-2 -11,-4 -2,-2 -3,-5 -3,-8 0,-2 0,-4 1,-6 1,-2 2,-3 4,-4 1,-1 3,-2 5,-2 1,-1 3,-1 6,-1 6,-1 10,-2 12,-3 0,-1 1,-1 1,-1 0,-3 -1,-5 -2,-6 -2,-2 -5,-3 -9,-3 -3,0 -5,1 -7,2 -1,1 -3,3 -3,6l-7 -1c0,-3 1,-5 3,-7 1,-2 3,-3 6,-4 3,-1 6,-2 10,-2 3,0 6,1 8,2 2,0 4,1 5,3 1,1 2,3 2,5 1,1 1,3 1,6l0 9c0,7 0,11 0,13 0,1 1,3 2,5l-8 0c0,-2 -1,-4 -1,-6zm0 -15c-3,1 -7,2 -12,3 -3,0 -5,0 -6,1 -1,0 -2,1 -3,2 -1,1 -1,2 -1,4 0,1 1,3 2,4 2,1 4,2 6,2 3,0 6,-1 8,-2 2,-1 3,-3 4,-5 1,-1 1,-3 1,-7l1 -2z"/>
   <path id="19" class="fil3" d="M895 243l0 -58 7 0 0 6c1,-2 3,-4 5,-5 2,-1 4,-2 7,-2 3,0 6,1 9,3 3,2 5,4 6,8 2,3 2,7 2,11 0,4 0,8 -2,11 -1,3 -4,6 -7,8 -2,2 -5,3 -9,3 -2,0 -4,-1 -6,-2 -2,-1 -3,-2 -5,-4l0 21 -7 0zm7 -37c0,5 1,9 3,12 2,3 5,4 8,4 3,0 6,-2 8,-4 2,-3 3,-7 3,-12 0,-6 -1,-10 -3,-12 -2,-3 -5,-4 -8,-4 -3,0 -5,1 -8,4 -2,3 -3,7 -3,12z"/>
   <path id="20" class="fil3" d="M940 243l0 -58 6 0 0 6c2,-2 3,-4 5,-5 2,-1 5,-2 7,-2 4,0 7,1 10,3 2,2 4,4 6,8 1,3 2,7 2,11 0,4 -1,8 -2,11 -2,3 -4,6 -7,8 -3,2 -6,3 -9,3 -3,0 -5,-1 -7,-2 -1,-1 -3,-2 -4,-4l0 21 -7 0zm6 -37c0,5 1,9 3,12 3,3 5,4 8,4 3,0 6,-2 8,-4 3,-3 4,-7 4,-12 0,-6 -1,-10 -4,-12 -2,-3 -4,-4 -7,-4 -3,0 -6,1 -8,4 -3,3 -4,7 -4,12z"/>
   <polygon id="21" class="fil3" points="979,228 996,168 1001,168 985,228 "/>
   <polygon id="22" class="fil3" points="1006,227 1006,169 1013,169 1013,227 "/>
   <path id="23" class="fil3" d="M1022 206c0,-8 2,-13 6,-17 4,-3 8,-5 13,-5 6,0 10,2 14,6 4,4 5,9 5,15 0,6 0,10 -2,13 -2,3 -4,5 -7,7 -3,2 -6,3 -10,3 -6,0 -10,-2 -14,-6 -4,-4 -5,-9 -5,-16zm7 0c0,5 1,9 3,12 3,2 6,4 9,4 4,0 6,-2 9,-4 2,-3 3,-7 3,-12 0,-5 -1,-9 -3,-12 -3,-3 -5,-4 -9,-4 -3,0 -6,1 -9,4 -2,3 -3,7 -3,12z"/>
   <path id="24" class="fil3" d="M1067 230l7 1c0,2 1,4 3,5 1,1 4,2 7,2 3,0 5,-1 7,-2 2,-2 3,-3 4,-6 0,-1 0,-4 0,-9 -3,4 -7,6 -11,6 -6,0 -10,-2 -13,-7 -3,-4 -5,-9 -5,-14 0,-4 1,-8 2,-11 2,-4 4,-6 6,-8 3,-2 6,-3 10,-3 5,0 9,2 12,6l0 -5 6 0 0 36c0,6 0,11 -1,14 -2,2 -4,5 -7,6 -3,2 -6,2 -10,2 -5,0 -9,-1 -12,-3 -3,-2 -5,-5 -5,-10zm6 -25c0,6 1,10 3,12 3,3 5,4 9,4 3,0 5,-1 8,-4 2,-2 3,-6 3,-12 0,-5 -1,-8 -3,-11 -3,-3 -5,-4 -9,-4 -3,0 -5,1 -8,4 -2,2 -3,6 -3,11z"/>
   <path id="25" class="fil3" d="M1113 177l0 -8 7 0 0 8 -7 0zm0 50l0 -42 7 0 0 42 -7 0z"/>
   <path id="26" class="fil3" d="M1131 227l0 -42 6 0 0 6c3,-4 8,-7 13,-7 3,0 5,1 7,2 2,1 4,2 5,3 1,2 2,3 2,5 0,2 1,4 1,7l0 26 -8 0 0 -26c0,-2 0,-5 0,-6 -1,-1 -2,-2 -3,-3 -2,-1 -3,-2 -5,-2 -3,0 -6,1 -8,3 -2,2 -3,6 -3,11l0 23 -7 0z"/>
   <path class="fil4" d="M162 504l-18 -69 9 0 11 45c1,5 2,9 2,14 2,-7 3,-11 4,-13l13 -46 11 0 9 35c3,8 5,16 6,24 1,-4 2,-9 3,-15l11 -44 9 0 -19 69 -9 0 -14 -53c-1,-4 -2,-7 -2,-8 -1,3 -2,6 -2,8l-15 53 -9 0z"/>
   <path id="1" class="fil4" d="M272 488l8 1c-1,5 -3,9 -7,11 -4,3 -9,5 -14,5 -8,0 -13,-3 -18,-7 -4,-4 -6,-11 -6,-19 0,-8 2,-15 6,-19 5,-5 10,-7 17,-7 7,0 12,2 16,7 5,4 7,10 7,19 0,0 0,1 0,2l-37 0c0,5 1,10 4,12 3,3 6,5 11,5 3,0 5,-1 8,-3 2,-1 3,-4 5,-7zm-28 -14l28 0c-1,-4 -2,-7 -3,-9 -3,-4 -7,-5 -11,-5 -4,0 -7,1 -10,4 -2,2 -4,6 -4,10z"/>
   <polygon id="2" class="fil4" points="291,504 291,435 299,435 299,504 "/>
   <path id="3" class="fil4" d="M345 485l8 2c-1,5 -3,10 -7,13 -4,3 -8,5 -14,5 -6,0 -12,-3 -16,-7 -4,-4 -6,-11 -6,-19 0,-5 1,-10 3,-14 1,-4 4,-7 8,-9 3,-2 7,-3 12,-3 5,0 9,1 13,4 3,3 5,7 6,12l-8 1c-1,-4 -2,-6 -4,-8 -2,-1 -4,-2 -7,-2 -4,0 -8,1 -10,4 -3,3 -4,8 -4,15 0,6 1,11 3,14 3,3 6,5 10,5 4,0 6,-1 9,-3 2,-2 3,-5 4,-10z"/>
   <path id="4" class="fil4" d="M357 479c0,-9 3,-16 8,-21 4,-3 9,-5 15,-5 7,0 13,2 17,7 5,4 7,10 7,18 0,6 -1,11 -3,15 -2,4 -5,7 -9,9 -3,2 -7,3 -12,3 -6,0 -12,-3 -16,-7 -5,-4 -7,-11 -7,-19zm9 0c0,6 1,11 4,14 3,3 6,5 10,5 5,0 8,-2 11,-5 3,-3 4,-8 4,-14 0,-7 -1,-11 -4,-14 -3,-4 -6,-5 -11,-5 -4,0 -7,1 -10,5 -3,3 -4,7 -4,14z"/>
   <path id="5" class="fil4" d="M414 504l0 -50 7 0 0 7c2,-3 4,-4 6,-6 3,-1 6,-2 9,-2 4,0 7,1 9,2 3,2 4,4 5,7 4,-6 9,-9 16,-9 5,0 8,1 11,4 3,3 4,7 4,13l0 34 -8 0 0 -32c0,-3 -1,-5 -1,-7 -1,-1 -2,-3 -3,-4 -2,0 -3,-1 -5,-1 -4,0 -7,1 -9,4 -2,2 -3,6 -3,11l0 29 -9 0 0 -33c0,-3 -1,-6 -2,-8 -1,-2 -4,-3 -7,-3 -2,0 -4,1 -6,2 -2,1 -4,3 -5,5 0,3 -1,6 -1,11l0 26 -8 0z"/>
   <path id="6" class="fil4" d="M527 488l9 1c-1,5 -4,9 -7,11 -4,3 -9,5 -15,5 -7,0 -13,-3 -17,-7 -4,-4 -6,-11 -6,-19 0,-8 2,-15 6,-19 4,-5 10,-7 17,-7 7,0 12,2 16,7 4,4 6,10 6,19 0,0 0,1 0,2l-37 0c1,5 2,10 5,12 3,3 6,5 10,5 3,0 6,-1 8,-3 2,-1 4,-4 5,-7zm-27 -14l28 0c-1,-4 -2,-7 -4,-9 -2,-4 -6,-5 -10,-5 -4,0 -7,1 -10,4 -2,2 -4,6 -4,10z"/>
   <path id="7" class="fil4" d="M592 496l1 8c-2,0 -5,0 -6,0 -3,0 -6,0 -8,-1 -1,-1 -2,-2 -3,-4 -1,-2 -1,-5 -1,-10l0 -29 -6 0 0 -6 6 0 0 -12 8 -5 0 17 9 0 0 6 -9 0 0 30c0,2 1,4 1,4 0,1 1,1 1,2 1,0 2,0 3,0 1,0 2,0 4,0z"/>
   <path id="8" class="fil4" d="M597 479c0,-9 3,-16 8,-21 4,-3 9,-5 15,-5 7,0 13,2 17,7 4,4 7,10 7,18 0,6 -1,11 -3,15 -2,4 -5,7 -9,9 -3,2 -7,3 -12,3 -7,0 -12,-3 -17,-7 -4,-4 -6,-11 -6,-19zm9 0c0,6 1,11 4,14 3,3 6,5 10,5 4,0 8,-2 11,-5 3,-3 4,-8 4,-14 0,-7 -1,-11 -4,-14 -3,-4 -7,-5 -11,-5 -4,0 -7,1 -10,5 -3,3 -4,7 -4,14z"/>
   <path id="9" class="fil4" d="M713 477l0 -8 29 0 0 25c-4,4 -9,6 -14,8 -4,2 -9,3 -14,3 -7,0 -13,-2 -18,-5 -6,-2 -10,-7 -13,-12 -3,-6 -4,-12 -4,-18 0,-7 1,-13 4,-19 3,-6 7,-10 12,-13 5,-3 11,-4 18,-4 5,0 10,1 14,2 4,2 7,4 9,7 2,3 4,7 5,11l-8 2c-1,-3 -2,-6 -4,-8 -1,-2 -3,-3 -6,-5 -3,-1 -6,-1 -10,-1 -4,0 -7,0 -11,2 -3,1 -5,2 -7,5 -2,2 -3,4 -4,6 -2,5 -3,9 -3,14 0,6 1,11 3,16 2,4 6,7 10,9 4,2 8,3 12,3 4,0 8,-1 12,-3 4,-1 6,-3 8,-4l0 -13 -20 0z"/>
   <path id="10" class="fil4" d="M755 445l0 -10 8 0 0 10 -8 0zm0 59l0 -50 8 0 0 50 -8 0z"/>
   <path id="11" class="fil4" d="M808 504l0 -7c-3,5 -8,8 -14,8 -4,0 -7,-1 -11,-4 -3,-2 -6,-5 -7,-9 -2,-4 -3,-8 -3,-13 0,-5 1,-10 2,-14 2,-4 4,-7 8,-9 3,-2 7,-3 11,-3 3,0 5,0 8,2 2,1 4,3 6,5l0 -25 8 0 0 69 -8 0zm-27 -25c0,6 2,11 4,14 3,3 6,5 10,5 4,0 7,-2 9,-5 3,-3 4,-7 4,-13 0,-7 -1,-12 -4,-15 -2,-4 -6,-5 -9,-5 -4,0 -7,1 -10,4 -2,3 -4,8 -4,15z"/>
   <path id="12" class="fil4" d="M861 504l0 -7c-3,5 -7,8 -13,8 -4,0 -8,-1 -11,-4 -4,-2 -6,-5 -8,-9 -2,-4 -3,-8 -3,-13 0,-5 1,-10 3,-14 1,-4 4,-7 7,-9 3,-2 7,-3 11,-3 3,0 6,0 8,2 2,1 4,3 6,5l0 -25 8 0 0 69 -8 0zm-26 -25c0,6 1,11 4,14 2,3 6,5 9,5 4,0 7,-2 10,-5 2,-3 4,-7 4,-13 0,-7 -2,-12 -4,-15 -3,-4 -6,-5 -10,-5 -4,0 -7,1 -9,4 -3,3 -4,8 -4,15z"/>
   <path id="13" class="fil4" d="M883 504l0 -69 8 0 0 25c4,-5 9,-7 15,-7 4,0 7,1 9,2 3,1 5,3 6,6 1,3 2,6 2,11l0 32 -8 0 0 -32c0,-4 -1,-7 -3,-9 -2,-2 -5,-3 -8,-3 -2,0 -5,1 -7,2 -2,1 -4,3 -5,5 0,3 -1,6 -1,9l0 28 -8 0z"/>
   <path class="fil2" d="M160 642l1995 0c11,0 19,8 19,19l0 215c0,11 -8,20 -19,20l-1995 0c-11,0 -20,-9 -20,-20l0 -215c0,-11 9,-19 20,-19z"/>
   <g>
    <path class="fil3" d="M2151 915l-1995 0 0 -4 1995 0 0 0 0 4zm18 10l-4 0 0 0 0 -1 0 0 0 -1 0 0 0 -1 -1 0 0 -1 0 0 0 -1 -1 0 0 0 0 -1 -1 0 0 -1 0 0 -1 0 0 -1 -1 0 0 0 -1 -1 0 0 -1 0 -1 0 0 0 -1 -1 -1 0 0 0 -1 0 -1 0 0 0 -1 0 -1 0 0 -4 1 0 1 0 1 0 1 0 0 0 1 0 1 0 1 1 1 0 0 0 1 1 1 0 1 0 0 1 1 0 1 1 0 0 1 0 0 1 1 1 0 0 1 1 0 0 1 1 0 1 0 0 0 1 1 1 0 0 0 1 0 1 0 1 0 0zm-4 160l0 -160 4 0 0 160 0 0 -4 0zm-14 14l0 -4 0 0 1 0 1 0 0 0 1 0 1 0 0 -1 1 0 1 0 0 0 1 0 1 -1 0 0 1 0 0 -1 1 0 0 0 1 -1 0 0 0 0 1 -1 0 0 0 0 1 -1 0 0 0 -1 0 0 1 -1 0 0 0 -1 0 0 0 0 0 -1 4 0 0 1 0 1 0 0 0 1 -1 1 0 0 0 1 0 1 -1 0 0 1 -1 0 0 1 -1 1 0 0 -1 1 0 0 -1 0 -1 1 0 0 -1 1 -1 0 -1 0 0 1 -1 0 -1 0 -1 0 -1 0 0 1 -1 0 -1 0 -1 0 -1 0 0 0zm-1995 -4l1995 0 0 4 -1995 0 0 0 0 -4zm-18 -10l4 0 0 0 0 1 0 0 0 0 0 1 1 0 0 1 0 0 0 1 0 0 1 1 0 0 0 0 1 1 0 0 1 0 0 1 0 0 1 0 1 1 0 0 1 0 0 1 1 0 0 0 1 0 1 0 0 1 1 0 1 0 1 0 0 0 1 0 0 4 -1 0 -1 0 -1 0 0 0 -1 -1 -1 0 -1 0 -1 0 -1 0 0 -1 -1 0 -1 0 0 -1 -1 0 -1 -1 0 0 -1 0 -1 -1 0 0 -1 -1 0 -1 -1 0 0 -1 0 0 -1 -1 0 -1 0 0 0 -1 -1 -1 0 0 0 -1 0 -1 0 0zm4 -160l0 160 -4 0 0 -160 0 0 4 0zm14 -14l0 4 0 0 -1 0 0 0 -1 0 -1 0 -1 0 0 0 -1 0 -1 0 0 1 -1 0 0 0 -1 0 0 1 -1 0 -1 0 0 1 0 0 -1 0 0 1 -1 0 0 1 0 0 -1 0 0 1 0 0 0 1 0 0 -1 1 0 0 0 1 0 0 0 1 -4 0 0 -1 0 -1 0 -1 1 0 0 -1 0 -1 0 0 1 -1 0 -1 0 0 1 -1 0 0 1 -1 0 -1 1 0 1 0 0 -1 1 0 1 -1 0 0 1 0 1 -1 0 0 1 0 1 -1 1 0 1 0 1 0 0 0 1 0 1 0 1 0 0 0z"/>
   </g>
   <path class="fil1" d="M160 1171l498 0c11,0 20,8 20,18l0 149c0,9 -9,17 -20,17l-498 0c-11,0 -20,-8 -20,-17l0 -149c0,-10 9,-18 20,-18z"/>
   <polygon class="fil5" points="317,1283 317,1226 325,1226 325,1277 353,1277 353,1283 "/>
   <path id="1" class="fil5" d="M358 1263c0,-8 2,-14 7,-17 3,-4 8,-5 13,-5 5,0 10,2 14,6 3,3 5,8 5,15 0,5 -1,9 -2,13 -2,3 -4,5 -7,7 -3,1 -7,2 -10,2 -6,0 -11,-2 -14,-5 -4,-4 -6,-9 -6,-16zm7 0c0,5 2,9 4,11 2,3 5,4 9,4 3,0 6,-1 8,-4 3,-2 4,-6 4,-12 0,-5 -1,-9 -4,-11 -2,-3 -5,-4 -8,-4 -4,0 -7,1 -9,4 -2,2 -4,6 -4,12z"/>
   <path id="2" class="fil5" d="M404 1287l7 1c0,2 1,3 2,4 2,2 4,2 7,2 4,0 6,0 8,-2 2,-1 3,-3 4,-5 0,-2 0,-5 0,-9 -3,3 -7,5 -11,5 -6,0 -11,-2 -14,-6 -3,-4 -4,-9 -4,-15 0,-4 0,-7 2,-11 1,-3 3,-5 6,-7 3,-2 6,-3 10,-3 4,0 8,2 12,6l0 -5 6 0 0 36c0,6 -1,11 -2,13 -1,3 -3,5 -6,7 -3,1 -6,2 -11,2 -5,0 -9,-1 -12,-3 -3,-2 -4,-6 -4,-10zm6 -25c0,5 1,9 3,12 2,2 5,3 8,3 3,0 6,-1 8,-3 2,-3 4,-7 4,-12 0,-5 -2,-9 -4,-11 -2,-3 -5,-4 -8,-4 -3,0 -6,1 -8,4 -2,2 -3,6 -3,11z"/>
   <path id="3" class="fil5" d="M450 1234l0 -8 7 0 0 8 -7 0zm0 49l0 -41 7 0 0 41 -7 0z"/>
   <path id="4" class="fil5" d="M468 1283l0 -41 6 0 0 6c3,-5 7,-7 13,-7 3,0 5,0 7,1 2,1 4,2 5,4 1,1 1,3 2,5 0,1 0,4 0,7l0 25 -7 0 0 -25c0,-3 0,-5 -1,-6 0,-2 -1,-3 -3,-4 -1,-1 -3,-1 -4,-1 -3,0 -6,1 -8,3 -2,2 -3,5 -3,11l0 22 -7 0z"/>
   <g id="_2490672757040">
    <path class="fil4" d="M1131 480l0 -2c0,-9 -4,-17 -10,-24l-25 -28c-5,-5 -14,-5 -19,0 -1,2 -2,4 -3,6 -5,-4 -12,-4 -17,1 -2,1 -3,3 -3,5 -5,-3 -13,-3 -17,2 -2,1 -3,3 -4,5l-12 -12c-5,-5 -13,-5 -18,0 -5,5 -5,13 0,18l46 46 -27 5c-8,1 -13,7 -13,15 0,5 4,10 10,10l64 0c10,0 19,-4 26,-11l11 -11c7,-6 11,-15 11,-25z"/>
    <path class="fil4" d="M1001 470c0,0 -1,0 -1,0 -11,-5 -18,-16 -18,-28 0,-17 13,-30 30,-30 12,0 23,7 28,18 1,1 0,3 -2,4 -1,1 -3,0 -4,-1 -4,-9 -12,-14 -22,-14 -13,0 -23,10 -23,23 0,9 5,18 14,22 1,1 2,3 1,4 0,2 -2,2 -3,2z"/>
   </g>
   <polygon class="fil3" points="144,851 144,793 151,793 151,844 180,844 180,851 "/>
   <path id="1" class="fil3" d="M185 830c0,-8 2,-13 6,-17 4,-3 8,-5 14,-5 5,0 10,2 13,6 4,4 6,9 6,15 0,6 -1,10 -3,13 -1,3 -3,5 -6,7 -4,2 -7,2 -10,2 -6,0 -11,-1 -15,-5 -3,-4 -5,-9 -5,-16zm7 0c0,5 1,9 4,12 2,2 5,4 9,4 3,0 6,-2 8,-4 3,-3 4,-7 4,-12 0,-5 -1,-9 -4,-12 -2,-3 -5,-4 -8,-4 -4,0 -7,1 -9,4 -3,3 -4,7 -4,12z"/>
   <path id="2" class="fil3" d="M231 854l7 1c0,2 1,4 2,5 2,1 4,2 7,2 3,0 6,-1 8,-2 1,-2 3,-4 3,-6 1,-1 1,-4 1,-9 -3,4 -7,6 -12,6 -5,0 -10,-2 -13,-7 -3,-4 -5,-9 -5,-14 0,-4 1,-8 3,-11 1,-4 3,-6 6,-8 2,-2 6,-3 9,-3 5,0 9,2 12,6l0 -5 7 0 0 36c0,6 -1,11 -2,14 -1,2 -3,4 -6,6 -3,2 -7,2 -11,2 -5,0 -9,-1 -12,-3 -3,-2 -4,-6 -4,-10zm6 -25c0,6 1,10 3,12 2,3 5,4 8,4 3,0 6,-1 8,-4 2,-2 3,-6 3,-12 0,-5 -1,-9 -3,-11 -2,-3 -5,-4 -8,-4 -3,0 -6,1 -8,4 -2,2 -3,6 -3,11z"/>
   <path id="3" class="fil3" d="M277 801l0 -8 7 0 0 8 -7 0zm0 50l0 -42 7 0 0 42 -7 0z"/>
   <path id="4" class="fil3" d="M294 851l0 -42 7 0 0 6c3,-5 7,-7 13,-7 2,0 5,1 7,2 2,0 3,2 4,3 1,2 2,3 3,5 0,2 0,4 0,7l0 26 -7 0 0 -26c0,-2 0,-5 -1,-6 0,-1 -1,-3 -3,-3 -1,-1 -3,-2 -5,-2 -3,0 -5,1 -7,3 -3,2 -4,6 -4,11l0 23 -7 0z"/>
   <path class="fil3" d="M220 1025l0 -41 7 0 0 6c3,-5 7,-7 13,-7 2,0 5,1 7,1 2,1 3,3 4,4 1,1 2,3 3,5 0,1 0,4 0,7l0 25 -7 0 0 -25c0,-3 0,-5 -1,-6 0,-2 -1,-3 -3,-4 -1,0 -3,-1 -5,-1 -3,0 -5,1 -7,3 -3,2 -4,6 -4,11l0 22 -7 0z"/>
   <path id="1" class="fil3" d="M292 1020c-3,3 -5,4 -8,5 -2,1 -5,1 -7,1 -5,0 -9,-1 -11,-3 -2,-2 -4,-5 -4,-8 0,-2 1,-4 2,-6 1,-2 2,-3 3,-4 2,-1 4,-2 5,-2 2,-1 4,-1 7,-1 5,-1 10,-2 12,-3 0,-1 0,-1 0,-2 0,-2 0,-4 -2,-6 -2,-1 -4,-2 -8,-2 -3,0 -6,1 -7,2 -2,1 -3,3 -4,6l-6 -1c0,-3 1,-5 3,-7 1,-2 3,-3 6,-4 3,-1 6,-2 9,-2 4,0 7,1 9,1 2,1 4,2 5,4 1,1 2,2 2,4 0,2 0,4 0,7l0 9c0,7 1,11 1,12 0,2 1,4 2,5l-8 0c-1,-1 -1,-3 -1,-5zm-1 -15c-2,1 -6,2 -11,2 -3,1 -5,1 -6,2 -2,0 -3,1 -3,2 -1,1 -1,2 -1,3 0,2 1,4 2,5 1,1 3,2 6,2 3,0 5,-1 7,-2 3,-1 4,-3 5,-5 1,-1 1,-4 1,-7l0 -2z"/>
   <path id="2" class="fil3" d="M309 1025l0 -41 6 0 0 6c2,-2 4,-4 6,-5 2,-1 4,-2 7,-2 3,0 6,1 8,2 2,1 3,3 4,5 3,-4 7,-7 13,-7 4,0 7,1 9,4 2,2 3,5 3,10l0 28 -7 0 0 -26c0,-2 0,-4 0,-6 -1,-1 -2,-2 -3,-3 -1,0 -2,-1 -4,-1 -3,0 -5,1 -7,3 -2,2 -3,5 -3,9l0 24 -7 0 0 -26c0,-4 -1,-6 -2,-7 -1,-2 -3,-3 -6,-3 -2,0 -3,1 -5,2 -2,1 -3,2 -4,4 0,2 -1,5 -1,9l0 21 -7 0z"/>
   <path id="3" class="fil3" d="M404 1012l7 1c-1,4 -3,8 -6,10 -3,2 -7,3 -12,3 -6,0 -11,-2 -14,-5 -4,-4 -6,-9 -6,-16 0,-7 2,-12 6,-16 3,-4 8,-6 14,-6 5,0 10,2 13,6 4,4 6,9 6,16 0,0 0,1 -1,2l-30 0c0,4 1,8 3,10 3,2 6,4 9,4 3,0 5,-1 7,-2 2,-2 3,-4 4,-7zm-23 -11l23 0c0,-4 -1,-6 -3,-8 -2,-3 -5,-4 -8,-4 -3,0 -6,1 -8,3 -3,2 -4,5 -4,9z"/>
   <path id="4" class="fil3" d="M460 1019c-1,2 -3,4 -5,5 -2,1 -5,2 -7,2 -2,0 -4,-1 -6,-2 -3,-2 -4,-4 -6,-7 -1,-3 -2,-6 -2,-9 0,-4 1,-8 3,-12 3,-5 5,-8 8,-10 3,-2 7,-3 9,-3 3,0 5,1 7,2 2,1 4,3 5,5l2 -6 7 0 -6 26c-1,4 -1,6 -1,7 0,0 0,1 1,1 0,1 1,1 2,1 1,0 3,-1 5,-2 3,-2 5,-5 7,-9 2,-3 3,-7 3,-10 0,-5 -2,-9 -4,-13 -2,-3 -5,-6 -10,-9 -4,-2 -9,-3 -14,-3 -6,0 -12,1 -17,4 -5,3 -9,7 -12,12 -3,6 -4,11 -4,18 0,6 1,11 4,16 3,5 7,8 12,10 5,2 11,4 18,4 7,0 12,-2 17,-4 4,-2 8,-5 10,-8l7 0c-1,2 -3,5 -7,8 -3,3 -7,5 -11,7 -5,1 -10,2 -16,2 -6,0 -11,0 -16,-2 -5,-1 -9,-4 -13,-7 -3,-3 -6,-6 -7,-10 -3,-5 -4,-10 -4,-16 0,-6 2,-12 4,-18 3,-7 8,-12 14,-16 6,-4 13,-6 21,-6 6,0 12,2 17,4 6,3 10,7 13,12 2,5 3,9 3,15 0,7 -2,14 -8,20 -4,5 -9,8 -15,8 -2,0 -3,-1 -4,-1 -2,-1 -2,-2 -3,-3 0,0 0,-1 -1,-3zm-19 -10c0,3 1,6 3,8 2,2 4,3 6,3 1,0 3,-1 4,-1 2,-1 4,-3 5,-4 2,-2 3,-4 4,-7 1,-3 1,-5 1,-8 0,-3 -1,-6 -3,-8 -1,-2 -3,-3 -6,-3 -2,0 -3,0 -5,1 -1,1 -3,2 -4,4 -1,2 -2,4 -3,7 -1,3 -2,5 -2,8z"/>
   <path id="5" class="fil3" d="M500 1029l7 1c0,2 1,4 2,4 2,2 4,2 7,2 4,0 6,0 8,-2 2,-1 3,-3 3,-5 1,-1 1,-4 1,-9 -3,4 -7,5 -12,5 -5,0 -10,-2 -13,-6 -3,-4 -4,-9 -4,-14 0,-4 0,-8 2,-11 1,-4 3,-6 6,-8 3,-2 6,-3 10,-3 4,0 8,2 12,6l0 -5 6 0 0 36c0,6 -1,11 -2,14 -1,2 -3,4 -6,6 -3,1 -6,2 -11,2 -5,0 -9,-1 -12,-3 -3,-2 -4,-6 -4,-10zm6 -25c0,5 1,9 3,12 2,2 5,4 8,4 3,0 6,-2 8,-4 2,-3 4,-6 4,-12 0,-5 -2,-9 -4,-11 -2,-3 -5,-4 -8,-4 -3,0 -6,1 -8,4 -2,2 -3,6 -3,11z"/>
   <path id="6" class="fil3" d="M546 976l0 -8 7 0 0 8 -7 0zm0 49l0 -41 7 0 0 41 -7 0z"/>
   <path id="7" class="fil3" d="M590 1025l0 -5c-2,4 -6,6 -11,6 -4,0 -7,-1 -9,-2 -3,-2 -5,-5 -7,-8 -1,-3 -2,-7 -2,-11 0,-4 1,-8 2,-11 1,-4 3,-6 6,-8 3,-2 6,-3 9,-3 3,0 5,1 7,2 2,1 4,2 5,4l0 -21 7 0 0 57 -7 0zm-22 -20c0,5 1,9 3,12 3,2 5,4 8,4 3,0 6,-2 8,-4 2,-3 3,-6 3,-12 0,-5 -1,-9 -3,-12 -2,-3 -5,-4 -8,-4 -3,0 -6,1 -8,4 -2,2 -3,6 -3,12z"/>
   <path id="8" class="fil3" d="M635 1025l0 -5c-3,4 -7,6 -12,6 -3,0 -6,-1 -9,-2 -3,-2 -5,-5 -6,-8 -2,-3 -3,-7 -3,-11 0,-4 1,-8 2,-11 2,-4 4,-6 7,-8 2,-2 5,-3 9,-3 2,0 5,1 6,2 2,1 4,2 5,4l0 -21 7 0 0 57 -6 0zm-23 -20c0,5 2,9 4,12 2,2 5,4 8,4 3,0 5,-2 8,-4 2,-3 3,-6 3,-12 0,-5 -1,-9 -3,-12 -3,-3 -5,-4 -9,-4 -3,0 -5,1 -7,4 -2,2 -4,6 -4,12z"/>
   <path id="9" class="fil3" d="M652 1025l0 -57 7 0 0 21c4,-4 8,-6 13,-6 3,0 5,1 8,2 2,1 4,3 5,5 1,2 1,5 1,9l0 26 -7 0 0 -26c0,-3 -1,-6 -2,-7 -2,-2 -4,-3 -7,-3 -2,0 -4,1 -6,2 -1,1 -3,2 -3,4 -1,2 -2,5 -2,8l0 22 -7 0z"/>
   <polygon id="10" class="fil3" points="699,1025 699,1017 707,1017 707,1025 "/>
   <path id="11" class="fil3" d="M746 1010l7 1c-1,5 -3,9 -6,11 -3,3 -7,4 -11,4 -6,0 -10,-1 -14,-5 -3,-4 -5,-9 -5,-16 0,-5 1,-8 2,-12 2,-3 4,-6 7,-7 3,-2 6,-3 10,-3 4,0 8,1 11,4 3,2 5,5 5,9l-6 1c-1,-3 -2,-5 -4,-6 -2,-1 -4,-2 -6,-2 -3,0 -6,1 -9,4 -2,2 -3,6 -3,12 0,5 1,9 3,12 2,2 5,4 9,4 2,0 5,-1 7,-3 1,-2 3,-4 3,-8z"/>
   <path id="12" class="fil3" d="M756 1005c0,-8 2,-14 7,-17 3,-3 8,-5 13,-5 5,0 10,2 14,6 3,3 5,9 5,15 0,5 -1,10 -2,13 -2,3 -4,5 -7,7 -3,2 -7,2 -10,2 -6,0 -11,-1 -14,-5 -4,-4 -6,-9 -6,-16zm8 0c0,5 1,9 3,12 2,2 5,4 9,4 3,0 6,-2 8,-4 3,-3 4,-7 4,-12 0,-6 -1,-9 -4,-12 -2,-3 -5,-4 -8,-4 -4,0 -7,1 -9,4 -2,3 -3,6 -3,12z"/>
   <path id="13" class="fil3" d="M803 1025l0 -41 7 0 0 6c1,-2 3,-4 5,-5 2,-1 4,-2 7,-2 3,0 6,1 8,2 2,1 3,3 4,5 3,-4 7,-7 13,-7 4,0 7,1 9,4 3,2 4,5 4,10l0 28 -7 0 0 -26c0,-2 -1,-4 -1,-6 -1,-1 -1,-2 -3,-3 -1,0 -2,-1 -4,-1 -3,0 -5,1 -7,3 -2,2 -3,5 -3,9l0 24 -7 0 0 -26c0,-4 -1,-6 -2,-7 -1,-2 -3,-3 -5,-3 -2,0 -4,1 -6,2 -1,1 -3,2 -3,4 -1,2 -2,5 -2,9l0 21 -7 0z"/>
   <rect class="fil1" x="1939" y="369" width="639" height="1095" rx="60" ry="60"/>
   <rect class="fil6" x="1965" y="414" width="587" height="1007" rx="55" ry="55"/>
   <g id="_2490672755024">
    <path class="fil4" d="M2333 880l0 -1c0,-9 -4,-18 -10,-25l-25 -28c-5,-5 -13,-5 -19,0 -1,2 -2,4 -3,6 -5,-4 -12,-3 -17,1 -1,2 -3,4 -3,6 -5,-4 -13,-4 -17,1 -2,2 -3,3 -3,5l-12 -12c-5,-5 -14,-5 -19,0 -5,6 -5,14 0,19l46 46 -27 4c-7,1 -13,8 -13,15 0,6 5,10 10,10l64 0c10,0 19,-4 26,-11l11 -10c7,-7 11,-16 11,-26z"/>
    <path class="fil4" d="M2203 871c0,0 -1,0 -1,-1 -11,-5 -18,-15 -18,-27 0,-17 14,-31 30,-31 12,0 23,7 28,18 1,2 0,4 -2,5 -1,0 -3,0 -4,-2 -4,-9 -12,-14 -22,-14 -13,0 -23,11 -23,24 0,9 5,17 14,21 1,1 2,3 1,5 0,1 -1,2 -3,2z"/>
   </g>
   <path class="fil4" d="M2080 597l-18 -69 10 0 10 45c1,5 2,9 3,14 2,-7 3,-11 3,-13l13 -46 11 0 10 35c2,8 4,17 5,24 1,-4 2,-9 4,-15l10 -44 9 0 -18 69 -9 0 -15 -53c-1,-4 -2,-7 -2,-8 -1,3 -1,6 -2,8l-14 53 -10 0z"/>
   <path id="1" class="fil4" d="M2190 581l9 1c-2,5 -4,9 -8,12 -4,2 -8,4 -14,4 -7,0 -13,-2 -17,-7 -5,-4 -7,-11 -7,-19 0,-8 2,-15 7,-19 4,-5 10,-7 16,-7 7,0 12,2 17,7 4,4 6,11 6,19 0,0 0,1 0,2l-37 0c0,5 2,10 5,12 2,3 6,5 10,5 3,0 6,-1 8,-3 2,-1 4,-4 5,-7zm-28 -14l28 0c0,-4 -1,-7 -3,-9 -3,-4 -6,-5 -11,-5 -3,0 -7,1 -9,4 -3,2 -4,6 -5,10z"/>
   <polygon id="2" class="fil4" points="2209,597 2209,528 2218,528 2218,597 "/>
   <path id="3" class="fil4" d="M2263 578l8 2c0,5 -3,10 -7,13 -3,3 -8,5 -13,5 -7,0 -12,-2 -17,-7 -4,-4 -6,-11 -6,-19 0,-5 1,-10 3,-14 2,-4 4,-7 8,-9 4,-2 8,-3 12,-3 5,0 10,1 13,4 3,3 6,7 7,12l-8 1c-1,-3 -3,-6 -5,-8 -2,-1 -4,-2 -7,-2 -4,0 -8,1 -10,4 -3,3 -4,8 -4,15 0,6 1,11 4,14 2,3 6,5 10,5 3,0 6,-1 8,-3 2,-2 4,-5 4,-10z"/>
   <path id="4" class="fil4" d="M2275 572c0,-9 3,-16 8,-21 4,-3 10,-5 16,-5 7,0 12,2 17,7 4,4 6,10 6,18 0,6 -1,12 -3,15 -2,4 -5,7 -8,9 -4,2 -8,3 -12,3 -7,0 -13,-2 -17,-7 -4,-4 -7,-11 -7,-19zm9 0c0,6 1,11 4,14 3,3 7,5 11,5 4,0 7,-2 10,-5 3,-3 4,-8 4,-14 0,-7 -1,-11 -4,-14 -3,-4 -6,-5 -10,-5 -4,0 -8,1 -11,5 -3,3 -4,7 -4,14z"/>
   <path id="5" class="fil4" d="M2332 597l0 -50 8 0 0 7c1,-2 3,-4 6,-6 2,-1 5,-2 9,-2 3,0 6,1 9,2 2,2 4,4 5,7 4,-6 9,-9 15,-9 5,0 9,1 11,4 3,3 4,7 4,13l0 34 -8 0 0 -32c0,-3 0,-5 -1,-7 0,-1 -1,-3 -3,-3 -1,-1 -3,-2 -5,-2 -3,0 -6,1 -9,4 -2,2 -3,6 -3,11l0 29 -9 0 0 -33c0,-3 0,-6 -2,-8 -1,-2 -3,-3 -6,-3 -3,0 -5,1 -7,2 -2,1 -3,3 -4,6 -1,2 -2,5 -2,10l0 26 -8 0z"/>
   <path id="6" class="fil4" d="M2446 581l8 1c-1,5 -3,9 -7,12 -4,2 -9,4 -14,4 -8,0 -13,-2 -18,-7 -4,-4 -6,-11 -6,-19 0,-8 2,-15 6,-19 5,-5 10,-7 17,-7 7,0 12,2 16,7 5,4 7,11 7,19 0,0 0,1 0,2l-37 0c0,5 1,10 4,12 3,3 7,5 11,5 3,0 5,-1 8,-3 2,-1 3,-4 5,-7zm-28 -14l28 0c-1,-4 -2,-7 -3,-9 -3,-4 -6,-5 -11,-5 -4,0 -7,1 -10,4 -2,2 -4,6 -4,10z"/>
   <path id="7" class="fil4" d="M2103 696l1 8c-2,0 -4,0 -6,0 -3,0 -5,0 -7,-1 -2,-1 -3,-2 -4,-4 0,-1 -1,-5 -1,-10l0 -28 -6 0 0 -7 6 0 0 -12 9 -5 0 17 8 0 0 7 -8 0 0 29c0,2 0,4 0,4 1,1 1,2 2,2 0,0 1,1 3,1 1,0 2,-1 3,-1z"/>
   <path id="8" class="fil4" d="M2108 679c0,-9 3,-16 8,-20 4,-4 10,-6 16,-6 7,0 12,2 17,7 4,4 6,10 6,18 0,7 -1,12 -3,15 -2,4 -5,7 -8,9 -4,2 -8,3 -12,3 -7,0 -13,-2 -17,-7 -4,-4 -7,-11 -7,-19zm9 0c0,6 1,11 4,14 3,3 7,5 11,5 4,0 7,-2 10,-5 3,-3 4,-8 4,-14 0,-6 -1,-11 -4,-14 -3,-3 -6,-5 -10,-5 -4,0 -8,2 -11,5 -3,3 -4,8 -4,14z"/>
   <path id="9" class="fil4" d="M2225 677l0 -8 29 0 0 25c-5,4 -9,6 -14,8 -5,2 -10,3 -15,3 -6,0 -12,-1 -18,-4 -5,-3 -10,-7 -12,-13 -3,-5 -5,-11 -5,-18 0,-7 2,-13 5,-19 2,-6 6,-10 12,-13 5,-3 11,-4 18,-4 5,0 9,1 13,2 4,2 7,4 10,7 2,3 4,7 5,11l-8 3c-1,-4 -3,-7 -4,-9 -2,-2 -4,-3 -7,-4 -3,-2 -6,-2 -9,-2 -4,0 -8,0 -11,2 -3,1 -5,3 -7,5 -2,2 -4,4 -5,6 -1,5 -2,9 -2,14 0,6 1,12 3,16 2,4 5,7 9,9 4,2 8,3 13,3 4,0 8,-1 11,-2 4,-2 7,-4 9,-5l0 -13 -20 0z"/>
   <path id="10" class="fil4" d="M2266 645l0 -10 9 0 0 10 -9 0zm0 59l0 -50 9 0 0 50 -9 0z"/>
   <path id="11" class="fil4" d="M2320 704l0 -7c-4,5 -8,8 -14,8 -4,0 -8,-1 -11,-3 -4,-3 -6,-6 -8,-10 -2,-3 -3,-8 -3,-13 0,-5 1,-9 3,-14 1,-4 4,-7 7,-9 4,-2 7,-3 11,-3 3,0 6,1 8,2 3,1 5,3 6,5l0 -25 8 0 0 69 -7 0zm-27 -25c0,6 1,11 4,14 3,3 6,5 9,5 4,0 7,-2 10,-5 2,-3 4,-7 4,-13 0,-7 -2,-12 -4,-15 -3,-3 -6,-5 -10,-5 -4,0 -7,2 -9,5 -3,3 -4,7 -4,14z"/>
   <path id="12" class="fil4" d="M2373 704l0 -7c-3,5 -8,8 -14,8 -4,0 -8,-1 -11,-3 -3,-3 -6,-6 -8,-10 -1,-3 -2,-8 -2,-13 0,-5 0,-9 2,-14 2,-4 4,-7 8,-9 3,-2 7,-3 11,-3 3,0 5,1 8,2 2,1 4,3 5,5l0 -25 9 0 0 69 -8 0zm-27 -25c0,6 2,11 4,14 3,3 6,5 10,5 4,0 7,-2 9,-5 3,-3 4,-7 4,-13 0,-7 -1,-12 -4,-15 -2,-3 -6,-5 -10,-5 -3,0 -6,2 -9,5 -2,3 -4,7 -4,14z"/>
   <path id="13" class="fil4" d="M2394 704l0 -69 9 0 0 25c3,-5 8,-7 14,-7 4,0 7,1 10,2 3,2 5,4 6,6 1,3 1,6 1,11l0 32 -8 0 0 -32c0,-4 -1,-7 -3,-9 -2,-2 -4,-3 -7,-3 -3,0 -5,1 -7,2 -3,2 -4,3 -5,5 -1,3 -1,6 -1,10l0 27 -9 0z"/>
   <g>
    <path class="fil3" d="M2499 1041l-481 0 0 -4 481 0 0 0 0 4zm18 10l-4 0 0 0 0 0 0 -1 0 0 0 -1 0 0 -1 -1 0 0 0 -1 0 0 -1 0 0 -1 0 0 -1 -1 0 0 0 0 -1 -1 0 0 -1 0 0 -1 -1 0 0 0 -1 -1 -1 0 0 0 -1 0 -1 0 0 0 -1 -1 -1 0 0 0 -1 0 -1 0 0 -4 1 0 1 0 1 0 1 0 0 1 1 0 1 0 1 0 1 1 0 0 1 0 1 0 1 1 0 0 1 1 1 0 0 1 1 0 0 1 1 0 0 1 1 0 0 1 1 0 0 1 0 1 0 0 1 1 0 1 0 1 0 0 0 1 0 0zm-4 92l0 -92 4 0 0 92 0 0 -4 0zm-14 14l0 -4 0 0 1 0 1 0 0 0 1 0 1 0 0 -1 1 0 1 0 0 0 1 0 1 -1 0 0 1 0 0 0 1 -1 0 0 1 0 0 -1 0 0 1 -1 0 0 0 0 1 -1 0 0 0 -1 0 0 1 -1 0 0 0 0 0 -1 0 0 0 -1 4 0 0 1 0 1 0 0 0 1 -1 1 0 0 0 1 0 1 -1 0 0 1 -1 1 0 0 -1 1 0 0 -1 1 0 0 -1 1 -1 0 0 0 -1 1 -1 0 -1 0 0 1 -1 0 -1 0 -1 0 -1 1 0 0 -1 0 -1 0 -1 0 -1 0 0 0zm-481 -4l481 0 0 4 -481 0 0 0 0 -4zm-18 -10l4 0 0 0 0 1 0 0 0 1 0 0 0 0 0 1 1 0 0 1 0 0 0 1 1 0 0 0 0 1 1 0 0 1 1 0 0 0 1 1 0 0 1 0 0 0 1 1 1 0 0 0 1 0 0 0 1 1 1 0 1 0 0 0 1 0 1 0 0 4 -1 0 -1 0 -1 0 -1 0 -1 0 0 -1 -1 0 -1 0 -1 0 -1 -1 0 0 -1 0 -1 -1 0 0 -1 0 -1 -1 0 0 -1 -1 0 0 -1 -1 0 0 -1 -1 0 -1 -1 0 0 -1 0 -1 -1 0 0 -1 0 -1 0 0 0 -1 0 -1 0 0zm4 -92l0 92 -4 0 0 -92 0 0 4 0zm14 -14l0 4 0 0 -1 0 -1 0 0 0 -1 0 -1 1 -1 0 0 0 -1 0 0 0 -1 0 -1 1 0 0 -1 0 0 1 -1 0 0 0 -1 1 0 0 -1 0 0 1 0 0 -1 1 0 0 0 0 0 1 -1 0 0 1 0 0 0 1 0 0 0 1 0 0 -4 0 0 -1 0 0 0 -1 0 -1 0 -1 1 0 0 -1 0 -1 1 0 0 -1 1 0 0 -1 1 0 0 -1 1 0 0 -1 1 0 1 -1 0 0 1 -1 1 0 0 0 1 0 1 -1 1 0 1 0 0 0 1 -1 1 0 1 0 1 0 1 0 0 0z"/>
   </g>
   <polygon class="fil3" points="2117,1124 2117,1069 2157,1069 2157,1075 2125,1075 2125,1092 2155,1092 2155,1099 2125,1099 2125,1118 2159,1118 2159,1124 "/>
   <path id="1" class="fil3" d="M2168 1124l0 -40 6 0 0 6c1,-2 3,-4 5,-5 2,-1 5,-2 7,-2 3,0 6,1 8,2 1,1 3,3 4,5 3,-4 7,-7 12,-7 4,0 7,1 9,4 2,2 3,5 3,10l0 27 -6 0 0 -25c0,-3 -1,-5 -1,-6 0,-1 -1,-2 -2,-3 -2,0 -3,-1 -5,-1 -2,0 -5,1 -7,3 -1,2 -2,5 -2,9l0 23 -7 0 0 -26c0,-3 -1,-5 -2,-6 -1,-2 -3,-3 -5,-3 -2,0 -4,1 -6,2 -1,1 -2,2 -3,4 -1,2 -1,5 -1,9l0 20 -7 0z"/>
   <path id="2" class="fil3" d="M2259 1119c-3,2 -5,4 -8,5 -2,1 -4,1 -7,1 -5,0 -8,-1 -10,-3 -3,-2 -4,-5 -4,-8 0,-2 1,-4 1,-6 1,-1 3,-3 4,-4 1,0 3,-1 5,-2 1,0 3,0 6,-1 5,0 9,-1 12,-2 0,-1 0,-2 0,-2 0,-3 -1,-5 -2,-6 -2,-1 -4,-2 -8,-2 -3,0 -5,1 -7,2 -1,1 -2,3 -3,6l-7 -1c1,-3 2,-5 3,-7 2,-2 4,-3 6,-4 3,-1 6,-2 9,-2 4,0 7,1 9,2 2,0 4,1 5,3 1,1 1,2 2,4 0,1 0,4 0,7l0 9c0,6 0,10 0,12 1,1 1,3 2,4l-7 0c-1,-1 -1,-3 -1,-5zm-1 -15c-2,1 -6,2 -11,3 -3,0 -5,1 -6,1 -1,1 -2,1 -3,2 0,1 -1,2 -1,4 0,1 1,3 2,4 2,1 4,2 6,2 3,0 5,-1 7,-2 3,-1 4,-3 5,-5 1,-1 1,-3 1,-6l0 -3z"/>
   <path id="3" class="fil3" d="M2275 1077l0 -8 7 0 0 8 -7 0zm0 47l0 -40 7 0 0 40 -7 0z"/>
   <polygon id="4" class="fil3" points="2292,1124 2292,1069 2299,1069 2299,1124 "/>
   <polygon id="5" class="fil3" points="2333,1124 2333,1069 2341,1069 2341,1124 "/>
   <path id="6" class="fil3" d="M2354 1124l0 -55 19 0c4,0 7,0 10,1 3,1 5,2 8,4 3,2 5,5 6,9 2,4 2,8 2,13 0,5 0,8 -1,12 -1,3 -2,5 -4,8 -1,2 -3,3 -5,5 -2,1 -4,2 -6,2 -3,1 -6,1 -9,1l-20 0zm7 -6l12 0c3,0 6,0 8,-1 2,-1 4,-2 5,-3 2,-2 3,-4 4,-7 1,-3 2,-7 2,-11 0,-6 -1,-10 -3,-13 -2,-3 -4,-5 -7,-6 -2,-1 -5,-2 -9,-2l-12 0 0 43z"/>
   <path class="fil1" d="M2103 1239l311 0c7,0 13,5 13,11l0 93c0,6 -6,11 -13,11l-311 0c-7,0 -13,-5 -13,-11l0 -93c0,-6 6,-11 13,-11z"/>
   <polygon class="fil5" points="2201,1309 2201,1273 2206,1273 2206,1305 2223,1305 2223,1309 "/>
   <path id="1" class="fil5" d="M2227 1296c0,-5 1,-8 4,-10 2,-2 5,-3 8,-3 3,0 6,1 9,3 2,3 3,6 3,10 0,3 -1,6 -2,8 -1,2 -2,3 -4,4 -2,1 -4,2 -6,2 -4,0 -7,-1 -9,-4 -2,-2 -3,-5 -3,-10zm4 0c0,4 1,6 2,8 2,1 4,2 6,2 2,0 4,-1 5,-2 2,-2 2,-4 2,-8 0,-3 0,-5 -2,-7 -1,-2 -3,-3 -5,-3 -2,0 -4,1 -6,3 -1,2 -2,4 -2,7z"/>
   <path id="2" class="fil5" d="M2255 1311l5 1c0,1 0,2 1,3 1,1 3,1 4,1 3,0 4,0 5,-1 1,-1 2,-2 2,-4 1,0 1,-2 1,-5 -2,2 -5,3 -7,3 -4,0 -7,-1 -9,-4 -2,-2 -3,-5 -3,-9 0,-2 1,-5 2,-7 1,-2 2,-3 4,-5 1,-1 3,-1 6,-1 3,0 5,1 7,4l0 -4 4 0 0 23c0,4 0,7 -1,8 -1,2 -2,3 -4,4 -2,1 -4,2 -6,2 -4,0 -6,-1 -8,-2 -2,-2 -3,-4 -3,-7zm4 -15c0,3 1,6 2,7 1,2 3,3 5,3 2,0 4,-1 5,-3 1,-1 2,-4 2,-7 0,-3 -1,-6 -2,-7 -1,-2 -3,-3 -5,-3 -2,0 -4,1 -5,3 -1,1 -2,4 -2,7z"/>
   <path id="3" class="fil5" d="M2284 1278l0 -5 4 0 0 5 -4 0zm0 31l0 -26 4 0 0 26 -4 0z"/>
   <path id="4" class="fil5" d="M2295 1309l0 -26 4 0 0 4c2,-3 5,-4 8,-4 2,0 3,0 4,1 2,0 3,1 3,2 1,1 1,2 2,3 0,1 0,2 0,4l0 16 -4 0 0 -16c0,-1 -1,-3 -1,-4 0,0 -1,-1 -2,-2 -1,0 -2,0 -3,0 -2,0 -3,0 -5,1 -1,2 -2,4 -2,7l0 14 -4 0z"/>
  </g>
 </g>
</svg>
