<?xml version="1.0" encoding="UTF-8"?>
<!DOCTYPE svg PUBLIC "-//W3C//DTD SVG 1.1//EN" "http://www.w3.org/Graphics/SVG/1.1/DTD/svg11.dtd">
<!-- Creator: CorelDRAW X8 -->
<svg xmlns="http://www.w3.org/2000/svg" xml:space="preserve" width="3.18113in" height="3in" version="1.1" style="shape-rendering:geometricPrecision; text-rendering:geometricPrecision; image-rendering:optimizeQuality; fill-rule:evenodd; clip-rule:evenodd"
viewBox="0 0 697 657"
 xmlns:xlink="http://www.w3.org/1999/xlink">
 <defs>
  <style type="text/css">
   <![CDATA[
    .str0 {stroke:#1A237E;stroke-width:9.49278}
    .str1 {stroke:#1A237E;stroke-width:9.49278}
    .fil1 {fill:#FEFEFE}
    .fil0 {fill:black}
    .fil3 {fill:#1A237E}
    .fil2 {fill:#868EE0}
    .fil4 {fill:#FEFEFE;fill-rule:nonzero}
   ]]>
  </style>
 </defs>
 <g id="Layer_x0020_1">
  <metadata id="CorelCorpID_0Corel-Layer"/>
  <g id="_2490586509776">
   <rect class="fil0" x="59" y="74" width="579" height="582"/>
   <rect class="fil1 str0" x="62" y="77" width="572" height="575"/>
   <rect class="fil1 str1" x="10" y="10" width="678" height="533"/>
   <path id="Path_9182" class="fil2" d="M65 34c6,0 10,5 10,11 0,6 -4,11 -10,11 -6,0 -11,-5 -11,-11 0,-6 5,-11 11,-11z"/>
   <path id="Path_9182-2" class="fil2" d="M115 34c6,0 11,5 11,11 0,6 -5,11 -11,11 -6,0 -11,-5 -11,-11 0,-6 5,-11 11,-11z"/>
   <path id="Path_9182-3" class="fil2" d="M166 34c6,0 11,5 11,11 0,6 -5,11 -11,11 -6,0 -11,-5 -11,-11 0,-6 5,-11 11,-11z"/>
   <path id="Path_9182-4" class="fil2" d="M217 34c6,0 10,5 10,11 0,6 -4,11 -10,11 -6,0 -11,-5 -11,-11 0,-6 5,-11 11,-11z"/>
   <path id="Path_9182-5" class="fil2" d="M267 34c6,0 11,5 11,11 0,6 -5,11 -11,11 -6,0 -11,-5 -11,-11 0,-6 5,-11 11,-11z"/>
   <path id="Path_9182-6" class="fil2" d="M318 34c6,0 11,5 11,11 0,6 -5,11 -11,11 -6,0 -11,-5 -11,-11 0,-6 5,-11 11,-11z"/>
   <rect id="Rectangle_1367" class="fil3" x="71" y="98" width="555" height="104"/>
   <path class="fil4" d="M98 181l24 -62 9 0 25 62 -9 0 -7 -19 -27 0 -6 19 -9 0zm18 -25l21 0 -6 -17c-2,-6 -4,-10 -5,-13 -1,4 -2,8 -3,12l-7 18z"/>
   <path id="1" class="fil4" d="M163 181l0 -62 23 0c4,0 7,0 10,1 3,0 5,1 7,3 2,1 4,3 5,6 2,2 2,5 2,8 0,5 -2,10 -5,13 -3,4 -9,6 -18,6l-16 0 0 25 -8 0zm8 -32l16 0c5,0 9,-1 11,-3 3,-2 4,-5 4,-9 0,-2 -1,-5 -2,-6 -2,-2 -3,-3 -6,-4 -1,0 -3,-1 -7,-1l-16 0 0 23z"/>
   <polygon id="2" class="fil4" points="222,181 222,119 230,119 230,181 "/>
   <rect id="Rectangle_1341" class="fil2" x="98" y="230" width="216.05" height="21.7078"/>
   <rect id="Rectangle_1368" class="fil2" x="350" y="230" width="136.835" height="21.7078"/>
   <rect id="Rectangle_1369" class="fil2" x="98" y="280" width="136.835" height="21.7078"/>
   <rect id="Rectangle_1341-2" class="fil2" x="271" y="280" width="216.049" height="21.7078"/>
   <rect id="Rectangle_1341-3" class="fil2" x="98" y="331" width="187.242" height="21.7091"/>
   <rect id="Rectangle_1341-4" class="fil2" x="98" y="374" width="237.656" height="21.7091"/>
   <rect id="Rectangle_1370" class="fil2" x="357" y="374" width="129.628" height="21.7091"/>
   <circle id="Ellipse_50" class="fil3" cx="12" cy="540" r="12"/>
   <circle id="Ellipse_47" class="fil3" cx="12" cy="12" r="12"/>
   <path id="Path_9183" class="fil2" d="M448 486c-1,0 -3,0 -4,0l0 -1c0,0 -1,1 -1,1 0,0 0,0 0,1l2 15c0,3 3,5 7,5 0,0 0,0 0,0l16 -2c-2,8 3,15 11,17 1,0 3,0 4,0 8,-1 14,-8 13,-15 0,-2 -1,-3 -1,-5l16 -2c3,0 6,-3 5,-6 0,0 0,0 0,-1l-1 -16c1,0 3,1 4,0 8,-1 13,-8 12,-15 0,-8 -7,-14 -15,-13 -2,0 -3,1 -5,2l-1 -17c-1,-3 -4,-6 -7,-5 0,0 0,0 0,0l-15 1c-1,0 -1,1 -1,2 0,0 0,0 0,0 0,1 0,2 0,3 1,8 -4,15 -12,16 -8,0 -15,-5 -16,-13 0,-1 0,-2 0,-3 0,-1 0,-1 -1,-1l-15 1c-3,1 -6,4 -5,7 0,0 0,0 0,0l1 15c0,1 1,1 1,1l1 0c7,-2 15,2 18,10 0,0 0,1 0,2 2,7 -3,14 -10,15 0,1 -1,1 -1,1z"/>
   <g>
    <path id="Path_9184" class="fil2" d="M547 436c0,-1 1,-1 1,-1l12 4 0 1c-2,4 -1,9 1,13 2,4 6,7 11,9 9,2 19,-3 22,-12l0 -1 11 4c2,0 2,1 2,2 0,0 0,1 0,1l-5 16 -1 5 5 -1c1,0 2,0 3,1 3,1 5,2 6,5 2,2 2,5 1,8 -1,5 -7,8 -13,6 -1,0 -2,0 -2,-1l-5 -3 -1 5 -5 16c0,1 -2,2 -3,2 0,-1 0,-1 0,-1l-16 -4 -5 -2 0 5c0,1 0,3 0,4 -1,2 -3,4 -5,5 -2,2 -5,2 -8,1 -3,0 -5,-2 -6,-5 -1,-2 -2,-5 -1,-7 1,-2 1,-3 2,-3l3 -5 -5 -1 -16 -5c-1,0 -1,-1 -2,-1 0,-1 0,-1 0,-2l4 -12c0,0 0,1 0,0 10,3 20,-2 22,-11 3,-10 -2,-20 -11,-23 0,0 0,0 0,0l-1 0 3 -11c1,-1 1,-1 2,-1l0 0zm0 0l0 0 0 0z"/>
   </g>
   <circle id="Ellipse_56" class="fil3" cx="685" cy="12" r="12"/>
   <circle id="Ellipse_57" class="fil3" cx="685" cy="540" r="12"/>
  </g>
 </g>
</svg>
