<?xml version="1.0" encoding="UTF-8"?>
<!DOCTYPE svg PUBLIC "-//W3C//DTD SVG 1.1//EN" "http://www.w3.org/Graphics/SVG/1.1/DTD/svg11.dtd">
<!-- Creator: CorelDRAW X8 -->
<svg xmlns="http://www.w3.org/2000/svg" xml:space="preserve" width="2.9401in" height="3in" version="1.1" style="shape-rendering:geometricPrecision; text-rendering:geometricPrecision; image-rendering:optimizeQuality; fill-rule:evenodd; clip-rule:evenodd"
viewBox="0 0 1979 2019"
 xmlns:xlink="http://www.w3.org/1999/xlink">
 <defs>
  <style type="text/css">
   <![CDATA[
    .str1 {stroke:#FEFEFE;stroke-width:9.11849}
    .str0 {stroke:#1A237E;stroke-width:29.0101}
    .str2 {stroke:#1A237E;stroke-width:29.0101}
    .fil0 {fill:none}
    .fil1 {fill:#1A237E}
    .fil2 {fill:#868EE0}
   ]]>
  </style>
 </defs>
 <g id="Layer_x0020_1">
  <metadata id="CorelCorpID_0Corel-Layer"/>
  <g id="_2490672387824">
   <path id="Path_9174" class="fil0 str0" d="M300 2005l0 -1 0 -1814c1,-97 80,-176 177,-175l1003 0c97,-1 177,77 177,174 0,1 0,1 0,1l0 1815 0 0 -1357 0z"/>
   <circle id="Ellipse_43" class="fil1" cx="729" cy="158" r="22"/>
   <circle id="Ellipse_44" class="fil1" cx="731" cy="159" r="9"/>
   <rect id="Rectangle_1354" class="fil1" x="267" y="248" width="13.0266" height="117.342"/>
   <rect id="Rectangle_1355" class="fil1" x="267" y="504" width="13.0266" height="178.195"/>
   <rect id="Rectangle_1356" class="fil1" x="267" y="749" width="13.0266" height="178.195"/>
   <rect id="Rectangle_1357" class="fil1" x="1681" y="500" width="13.0266" height="178.195"/>
   <rect id="Rectangle_1359" class="fil2" x="351" y="248" width="1243" height="801"/>
   <line id="Line_96" class="fil0 str1" x1="434" y1="413" x2="1214" y2= "413" />
   <line id="Line_97" class="fil0 str1" x1="434" y1="558" x2="919" y2= "558" />
   <line id="Line_98" class="fil0 str1" x1="434" y1="704" x2="1087" y2= "704" />
   <line id="Line_99" class="fil0 str1" x1="425" y1="851" x2="760" y2= "851" />
   <path id="Path_9150" class="fil1" d="M1261 1316c0,-13 -5,-26 -14,-35 -20,-19 -51,-19 -70,0 0,0 0,0 -1,0 -9,9 -14,22 -14,35 0,3 0,6 0,8l-60 36c-9,-9 -21,-14 -34,-14 -14,0 -26,5 -35,14 -20,20 -20,51 -1,70 0,0 1,0 1,0 9,10 21,15 35,15 13,0 25,-5 35,-15 0,0 0,0 0,0l60 33c-1,4 -1,8 -1,12 0,27 22,49 50,49 0,0 0,0 0,0 27,0 49,-22 49,-49 0,0 0,0 0,0 0,-28 -22,-50 -49,-50 -14,0 -26,5 -36,14 0,1 0,1 -1,1l-59 -32c1,-4 1,-8 1,-13 0,-4 -1,-9 -2,-13l58 -35c1,2 2,3 3,4 20,20 51,20 71,0 9,-9 14,-22 14,-35z"/>
   <g>
    <path id="XMLID_113_" class="fil1" d="M836 1583c-67,-1 -120,-56 -120,-123 1,-66 54,-119 120,-120 66,-2 120,50 122,116 0,1 0,3 0,5 -1,67 -55,121 -122,122zm0 -197c-41,0 -75,34 -75,75 0,42 34,75 75,75 42,0 75,-33 75,-75 0,0 0,0 0,0 2,-40 -30,-74 -70,-75 -2,0 -3,0 -5,0z"/>
    <path id="XMLID_106_" class="fil1" d="M1050 1843l-428 0c-12,0 -22,-10 -23,-23 -1,-129 103,-236 232,-237 2,0 4,0 5,0 130,-1 236,102 237,232 0,2 0,3 0,5 2,12 -7,22 -19,23 -1,1 -2,1 -4,0zm-399 -46l382 0c-13,-96 -94,-167 -191,-168 -97,-1 -180,71 -191,168z"/>
   </g>
   <line id="Line_100" class="fil0 str2" x1="0" y1="2005" x2="1979" y2= "2005" />
   <g>
    <path id="Path_9177" class="fil1" d="M1056 176l-168 0c-2,0 -3,-2 -3,-4l0 0c0,-1 1,-3 3,-3l168 0c2,0 4,1 4,3l0 0c0,2 -2,4 -4,4z"/>
    <circle id="Ellipse_45" class="fil1" cx="972" cy="95" r="24"/>
   </g>
  </g>
 </g>
</svg>
