<?xml version="1.0" encoding="UTF-8"?>
<!DOCTYPE svg PUBLIC "-//W3C//DTD SVG 1.1//EN" "http://www.w3.org/Graphics/SVG/1.1/DTD/svg11.dtd">
<!-- Creator: CorelDRAW X8 -->
<svg xmlns="http://www.w3.org/2000/svg" xml:space="preserve" width="2.9401in" height="3in" version="1.1" style="shape-rendering:geometricPrecision; text-rendering:geometricPrecision; image-rendering:optimizeQuality; fill-rule:evenodd; clip-rule:evenodd"
viewBox="0 0 439 448"
 xmlns:xlink="http://www.w3.org/1999/xlink">
 <defs>
  <style type="text/css">
   <![CDATA[
    .str1 {stroke:#FEFEFE;stroke-width:2.02135}
    .str0 {stroke:#1A237E;stroke-width:6.43083}
    .str2 {stroke:#1A237E;stroke-width:6.43083}
    .fil0 {fill:none}
    .fil1 {fill:#1A237E}
    .fil2 {fill:#868EE0}
   ]]>
  </style>
 </defs>
 <g id="Layer_x0020_1">
  <metadata id="CorelCorpID_0Corel-Layer"/>
  <g id="_2490775042928">
   <path id="Path_9174" class="fil0 str0" d="M66 444l0 0 0 -402c1,-21 18,-39 40,-39l222 0c22,0 39,17 39,39 0,0 0,0 0,0l0 402 0 0 -301 0z"/>
   <circle id="Ellipse_43" class="fil1" cx="162" cy="35" r="5"/>
   <circle id="Ellipse_44" class="fil1" cx="162" cy="35" r="2"/>
   <rect id="Rectangle_1354" class="fil1" x="59" y="55" width="2.88768" height="26.0118"/>
   <rect id="Rectangle_1355" class="fil1" x="59" y="112" width="2.88768" height="39.5015"/>
   <rect id="Rectangle_1356" class="fil1" x="59" y="166" width="2.88768" height="39.5015"/>
   <rect id="Rectangle_1357" class="fil1" x="373" y="111" width="2.88768" height="39.5015"/>
   <rect id="Rectangle_1359" class="fil2" x="78" y="55" width="276" height="177"/>
   <line id="Line_96" class="fil0 str1" x1="96" y1="92" x2="269" y2= "92" />
   <line id="Line_97" class="fil0 str1" x1="96" y1="124" x2="204" y2= "124" />
   <line id="Line_98" class="fil0 str1" x1="96" y1="156" x2="241" y2= "156" />
   <line id="Line_99" class="fil0 str1" x1="94" y1="189" x2="168" y2= "189" />
   <path id="Path_9150" class="fil1" d="M280 292c0,-3 -2,-6 -4,-8 -4,-4 -11,-4 -15,0 0,0 0,0 0,0 -2,2 -3,5 -3,8 0,0 0,1 0,2l-14 8c-2,-3 -4,-4 -7,-4 -3,0 -6,1 -8,4 -4,4 -4,11 0,15 0,0 0,0 0,0 2,2 5,3 8,3 3,0 5,-1 7,-3 0,0 1,0 1,0l13 7c0,1 0,2 0,3 0,6 5,11 11,11 0,0 0,0 0,0 6,0 11,-5 11,-11 0,0 0,0 0,0 0,-6 -5,-11 -11,-11 -3,0 -6,1 -8,3 0,0 0,0 0,0l-14 -7c1,-1 1,-2 1,-3 0,-1 -1,-2 -1,-3l13 -7c0,0 0,0 1,1 4,4 11,4 15,0 2,-2 4,-5 4,-8z"/>
   <g>
    <path id="XMLID_113_" class="fil1" d="M185 351c-14,0 -26,-13 -26,-27 0,-15 12,-27 26,-27 15,0 27,11 27,26 0,0 0,1 0,1 0,15 -12,27 -27,27zm0 -44c-9,0 -16,8 -16,17 0,9 7,17 16,17 10,0 17,-8 17,-17 0,0 0,0 0,0 0,-9 -7,-16 -16,-17 0,0 0,0 -1,0z"/>
    <path id="XMLID_106_" class="fil1" d="M233 409l-95 0c-3,-1 -5,-3 -5,-6 0,-28 23,-52 51,-52 1,0 1,0 1,0 29,0 53,23 53,51 0,1 0,1 0,1 0,3 -2,5 -4,6 -1,0 -1,0 -1,0zm-89 -11l85 0c-3,-21 -21,-37 -42,-37 -22,0 -40,16 -43,37z"/>
   </g>
   <line id="Line_100" class="fil0 str2" x1="0" y1="444" x2="439" y2= "444" />
   <g>
    <path id="Path_9177" class="fil1" d="M234 39l-37 0c-1,0 -1,0 -1,-1l0 0c0,0 0,-1 1,-1l37 0c1,0 1,1 1,1l0 0c0,1 0,1 -1,1z"/>
    <circle id="Ellipse_45" class="fil1" cx="216" cy="21" r="5"/>
   </g>
  </g>
 </g>
</svg>
