<?xml version="1.0" encoding="UTF-8"?>
<!DOCTYPE svg PUBLIC "-//W3C//DTD SVG 1.1//EN" "http://www.w3.org/Graphics/SVG/1.1/DTD/svg11.dtd">
<!-- Creator: CorelDRAW X8 -->
<svg xmlns="http://www.w3.org/2000/svg" xml:space="preserve" width="7.67741in" height="3in" version="1.1" style="shape-rendering:geometricPrecision; text-rendering:geometricPrecision; image-rendering:optimizeQuality; fill-rule:evenodd; clip-rule:evenodd"
viewBox="0 0 2650 1035"
 xmlns:xlink="http://www.w3.org/1999/xlink">
 <defs>
  <style type="text/css">
   <![CDATA[
    .str1 {stroke:#FEFEFE;stroke-width:11.8955}
    .str2 {stroke:#1A237E;stroke-width:14.9805}
    .str0 {stroke:#868EE0;stroke-width:11.8955;stroke-linecap:round;stroke-linejoin:round}
    .fil0 {fill:none}
    .fil2 {fill:#FEFEFE}
    .fil1 {fill:#1A237E}
    .fil5 {fill:#868EE0}
    .fil3 {fill:#FEFEFE;fill-rule:nonzero}
    .fil4 {fill:#868EE0;fill-rule:nonzero}
   ]]>
  </style>
 </defs>
 <g id="Layer_x0020_1">
  <metadata id="CorelCorpID_0Corel-Layer"/>
  <g id="_2490586485296">
   <line id="Line_118" class="fil0 str0" x1="268" y1="733" x2="1572" y2= "733" />
   <path id="XMLID_111_" class="fil1" d="M1753 1035l-1655 0c-54,0 -98,-44 -98,-98l1851 0c0,55 -44,98 -98,98z"/>
   <path id="XMLID_110_" class="fil2 str1" d="M1083 951l-315 0c-7,0 -13,-5 -13,-13 0,0 0,0 0,0l342 0c-1,7 -7,13 -14,13z"/>
   <path id="XMLID_109_" class="fil0 str2" d="M1680 937l-1510 0 0 -826c0,-57 46,-103 104,-104l1301 0c58,1 105,48 105,106l0 824 0 0z"/>
   <polygon id="Path_9203" class="fil1" points="268,125 1593,125 1593,344 268,344 "/>
   <line id="Line_120" class="fil0 str0" x1="268" y1="778" x2="1572" y2= "778" />
   <line id="Line_119" class="fil0 str0" x1="268" y1="676" x2="1572" y2= "676" />
   <line id="Line_121" class="fil0 str0" x1="268" y1="881" x2="1572" y2= "881" />
   <path class="fil3" d="M334 282l0 -99 37 0c7,0 13,1 18,3 4,2 8,5 10,10 3,4 4,8 4,13 0,4 -1,8 -3,11 -3,4 -6,7 -11,9 6,2 11,5 14,9 3,4 5,9 5,15 0,5 -1,9 -3,13 -2,4 -4,7 -7,9 -3,2 -7,4 -11,5 -4,1 -10,2 -16,2l-37 0zm13 -57l21 0c6,0 10,-1 12,-1 4,-1 6,-3 8,-5 1,-3 2,-5 2,-9 0,-3 0,-6 -2,-9 -2,-2 -4,-4 -7,-5 -3,-1 -8,-1 -15,-1l-19 0 0 30zm0 45l24 0c4,0 7,0 9,0 3,-1 6,-2 8,-3 2,-1 3,-3 4,-6 2,-2 2,-5 2,-8 0,-4 0,-7 -2,-9 -2,-3 -5,-5 -8,-6 -4,-1 -8,-2 -15,-2l-22 0 0 34z"/>
   <path id="1" class="fil3" d="M471 273c-5,3 -9,6 -13,8 -4,1 -9,2 -14,2 -7,0 -13,-2 -18,-6 -4,-3 -6,-8 -6,-14 0,-4 1,-7 2,-10 2,-3 4,-5 7,-7 2,-1 5,-3 8,-4 3,0 6,-1 11,-1 10,-2 17,-3 22,-5 0,-1 0,-2 0,-3 0,-5 -1,-8 -4,-10 -3,-3 -7,-4 -14,-4 -5,0 -9,1 -12,3 -3,2 -5,5 -6,11l-12 -2c1,-5 3,-9 5,-12 3,-3 6,-6 11,-8 5,-1 10,-2 16,-2 6,0 11,1 15,2 4,2 7,3 9,5 1,3 3,5 3,9 1,2 1,5 1,11l0 16c0,11 0,18 1,21 0,3 1,6 3,9l-13 0c-1,-3 -2,-6 -2,-9zm-1 -27c-5,2 -11,3 -20,4 -5,1 -9,2 -11,3 -2,1 -3,2 -4,4 -1,1 -2,3 -2,5 0,4 1,6 4,8 2,3 6,4 10,4 5,0 9,-1 13,-3 3,-2 6,-5 8,-9 1,-2 2,-6 2,-12l0 -4z"/>
   <path id="2" class="fil3" d="M500 282l0 -72 11 0 0 11c5,-8 13,-12 23,-12 4,0 8,1 12,2 3,2 6,4 8,6 1,3 3,6 3,9 1,2 1,6 1,12l0 44 -12 0 0 -44c0,-5 0,-8 -1,-11 -1,-2 -3,-4 -5,-5 -3,-2 -6,-3 -9,-3 -5,0 -9,2 -13,5 -4,3 -6,10 -6,19l0 39 -12 0z"/>
   <polygon id="3" class="fil3" points="577,282 577,183 589,183 589,239 617,210 633,210 606,237 636,282 621,282 597,245 589,253 589,282 "/>
   <path id="4" class="fil3" d="M666 282l38 -99 14 0 40 99 -15 0 -11 -30 -41 0 -11 30 -14 0zm29 -41l33 0 -10 -27c-3,-8 -6,-15 -7,-20 -2,6 -3,12 -6,18l-10 29z"/>
   <polygon id="5" class="fil3" points="758,283 787,182 796,182 768,283 "/>
   <path id="6" class="fil3" d="M852 256l11 1c-1,8 -4,15 -10,19 -5,5 -11,7 -19,7 -10,0 -18,-3 -24,-9 -5,-7 -8,-16 -8,-28 0,-7 1,-14 3,-20 3,-6 7,-10 12,-13 5,-3 11,-4 17,-4 8,0 14,2 19,6 5,4 8,9 9,16l-11 2c-1,-5 -3,-8 -6,-11 -3,-2 -7,-3 -11,-3 -6,0 -11,2 -14,6 -4,5 -6,12 -6,21 0,9 2,16 5,21 4,4 9,6 15,6 4,0 8,-1 12,-4 3,-3 5,-7 6,-13z"/>
   <path class="fil4" d="M736 502l0 -98 37 0c7,0 13,1 18,3 4,1 8,5 10,9 3,4 4,8 4,13 0,4 -1,8 -3,11 -2,4 -6,7 -11,9 6,2 11,5 14,9 3,5 5,9 5,15 0,5 -1,9 -3,13 -2,4 -4,7 -7,9 -3,2 -7,4 -11,5 -4,1 -9,2 -16,2l-37 0zm13 -57l21 0c6,0 10,-1 12,-1 4,-1 6,-3 8,-5 2,-3 2,-5 2,-9 0,-3 0,-6 -2,-8 -1,-3 -4,-5 -7,-6 -3,0 -8,-1 -15,-1l-19 0 0 30zm0 45l24 0c4,0 7,0 9,0 3,-1 6,-2 8,-3 2,-1 3,-3 5,-5 1,-3 2,-6 2,-9 0,-3 -1,-7 -3,-9 -2,-3 -5,-5 -8,-6 -3,-1 -8,-2 -14,-2l-23 0 0 34z"/>
   <path id="1" class="fil4" d="M873 493c-5,4 -9,6 -13,8 -4,1 -9,2 -14,2 -7,0 -13,-2 -18,-6 -4,-3 -6,-8 -6,-14 0,-4 1,-7 3,-10 1,-3 3,-5 6,-7 2,-1 5,-3 8,-3 3,-1 6,-2 11,-2 10,-1 17,-3 22,-4 0,-2 0,-3 0,-4 0,-4 -1,-8 -4,-10 -3,-3 -7,-4 -13,-4 -6,0 -10,1 -13,3 -3,2 -5,6 -6,11l-12 -2c1,-5 3,-9 6,-12 2,-3 6,-6 10,-7 5,-2 10,-3 16,-3 6,0 11,1 15,2 4,2 7,3 9,6 1,2 3,4 3,8 1,2 1,6 1,11l0 16c0,11 0,18 1,21 0,3 1,6 3,9l-13 0c-1,-3 -2,-6 -2,-9zm-1 -27c-5,2 -11,3 -20,5 -5,0 -8,1 -11,2 -2,1 -3,2 -4,4 -1,2 -2,3 -2,6 0,3 1,5 4,8 2,2 6,3 10,3 5,0 9,-1 13,-3 3,-2 6,-5 8,-9 1,-2 2,-6 2,-12l0 -4z"/>
   <polygon id="2" class="fil4" points="902,502 902,404 914,404 914,502 "/>
   <path id="3" class="fil4" d="M979 493c-4,4 -8,6 -13,8 -4,1 -8,2 -13,2 -8,0 -14,-2 -18,-6 -4,-3 -6,-8 -6,-14 0,-4 1,-7 2,-10 2,-3 4,-5 6,-7 3,-1 6,-3 9,-3 2,-1 6,-2 11,-2 10,-1 17,-3 21,-4 0,-2 0,-3 0,-4 0,-4 -1,-8 -3,-10 -3,-3 -8,-4 -14,-4 -5,0 -10,1 -12,3 -3,2 -5,6 -6,11l-12 -2c1,-5 3,-9 5,-12 3,-3 6,-6 11,-7 5,-2 10,-3 16,-3 6,0 11,1 15,2 4,2 6,3 8,6 2,2 3,4 4,8 0,2 1,6 1,11l0 16c0,11 0,18 0,21 1,3 2,6 3,9l-12 0c-1,-3 -2,-6 -3,-9zm-1 -27c-4,2 -11,3 -19,5 -5,0 -9,1 -11,2 -2,1 -3,2 -5,4 -1,2 -1,3 -1,6 0,3 1,5 3,8 3,2 6,3 11,3 5,0 9,-1 12,-3 4,-2 7,-5 8,-9 2,-2 2,-6 2,-12l0 -4z"/>
   <path id="4" class="fil4" d="M1009 502l0 -71 11 0 0 10c5,-8 13,-12 23,-12 4,0 8,1 11,2 4,2 7,4 8,6 2,3 3,6 4,9 1,3 1,6 1,12l0 44 -12 0 0 -44c0,-4 -1,-8 -2,-11 -1,-2 -2,-4 -5,-5 -2,-2 -5,-3 -8,-3 -5,0 -9,2 -13,5 -4,4 -6,10 -6,19l0 39 -12 0z"/>
   <path id="5" class="fil4" d="M1132 476l12 1c-2,8 -5,15 -10,19 -6,5 -12,7 -20,7 -10,0 -17,-3 -23,-9 -6,-7 -9,-16 -9,-28 0,-7 1,-14 4,-20 2,-5 6,-10 11,-13 5,-3 11,-4 17,-4 8,0 14,2 19,6 5,4 8,9 10,17l-12 1c-1,-4 -3,-8 -6,-10 -3,-3 -6,-4 -10,-4 -6,0 -11,2 -15,6 -4,5 -6,12 -6,21 0,10 2,17 6,21 3,4 8,6 14,6 5,0 9,-1 12,-4 3,-3 5,-7 6,-13z"/>
   <path id="6" class="fil4" d="M1202 479l13 1c-2,8 -6,13 -11,17 -5,4 -12,6 -20,6 -11,0 -19,-3 -25,-9 -6,-7 -9,-16 -9,-27 0,-12 3,-21 9,-28 6,-7 14,-10 24,-10 10,0 17,3 23,10 6,6 9,15 9,27 0,1 0,2 0,3l-53 0c1,8 3,14 7,18 4,4 9,6 15,6 4,0 8,-1 11,-3 3,-3 6,-6 7,-11zm-39 -20l40 0c-1,-6 -3,-10 -5,-13 -4,-5 -9,-7 -15,-7 -5,0 -10,2 -14,5 -4,4 -6,9 -6,15z"/>
   <path id="7" class="fil4" d="M1233 444l0 -13 14 0 0 13 -14 0zm0 58l0 -14 14 0 0 14 -14 0z"/>
   <path id="8" class="fil4" d="M1303 476l13 -1c1,6 3,11 6,14 3,3 8,4 12,4 6,0 11,-2 15,-6 4,-4 6,-10 6,-18 0,-6 -2,-12 -6,-16 -3,-4 -8,-6 -15,-6 -4,0 -7,1 -10,3 -3,2 -6,4 -7,7l-12 -2 10 -50 48 0 0 11 -39 0 -5 27c6,-4 12,-6 18,-6 9,0 16,3 22,8 6,6 9,14 9,23 0,9 -3,17 -8,23 -6,8 -15,12 -26,12 -8,0 -16,-2 -21,-7 -6,-5 -9,-12 -10,-20z"/>
   <path id="9" class="fil4" d="M1379 453c0,-11 1,-21 4,-28 2,-7 6,-12 10,-16 5,-4 11,-6 18,-6 5,0 10,1 14,3 4,2 7,5 10,9 2,4 4,9 6,15 1,6 2,14 2,23 0,12 -1,21 -3,28 -3,7 -6,13 -11,17 -5,3 -11,5 -18,5 -9,0 -17,-3 -22,-10 -7,-8 -10,-21 -10,-40zm13 0c0,16 1,27 5,32 4,6 9,8 14,8 6,0 10,-2 14,-8 4,-5 6,-16 6,-32 0,-16 -2,-27 -6,-32 -4,-5 -8,-8 -14,-8 -6,0 -10,2 -13,7 -4,6 -6,17 -6,33z"/>
   <path id="10" class="fil4" d="M1455 453c0,-11 2,-21 4,-28 2,-7 6,-12 11,-16 4,-4 10,-6 17,-6 6,0 10,1 14,3 4,2 7,5 10,9 3,4 5,9 6,15 2,6 2,14 2,23 0,12 -1,21 -3,28 -3,7 -6,13 -11,17 -5,3 -10,5 -18,5 -9,0 -16,-3 -22,-10 -6,-8 -10,-21 -10,-40zm13 0c0,16 2,27 5,32 4,6 9,8 14,8 6,0 11,-2 14,-8 4,-5 6,-16 6,-32 0,-16 -2,-27 -6,-32 -3,-5 -8,-8 -14,-8 -5,0 -10,2 -13,7 -4,6 -6,17 -6,33z"/>
   <path id="11" class="fil4" d="M1532 453c0,-11 1,-21 3,-28 3,-7 6,-12 11,-16 5,-4 10,-6 18,-6 5,0 9,1 13,3 4,2 8,5 10,9 3,4 5,9 6,15 2,6 3,14 3,23 0,12 -2,21 -4,28 -2,7 -6,13 -11,17 -4,3 -10,5 -17,5 -10,0 -17,-3 -23,-10 -6,-8 -9,-21 -9,-40zm12 0c0,16 2,27 6,32 3,6 8,8 14,8 5,0 10,-2 14,-8 3,-5 5,-16 5,-32 0,-16 -2,-27 -5,-32 -4,-5 -9,-8 -15,-8 -5,0 -10,2 -13,7 -4,6 -6,17 -6,33z"/>
   <rect id="Rectangle_1335" class="fil1" x="1946" y="216" width="479.563" height="84.5096"/>
   <path id="Path_9136" class="fil1" d="M2257 687c9,-13 21,-22 35,-28 13,-5 27,-2 37,7 11,10 19,22 24,35 4,10 8,21 12,31 0,1 1,3 2,5 68,-110 160,-204 269,-275 3,3 5,5 7,7 2,2 4,5 7,7 -8,6 -15,12 -22,18 -50,42 -94,89 -132,142 -35,49 -67,100 -95,154 -2,3 -5,5 -7,7 -16,11 -32,23 -48,34 -1,1 -3,2 -4,3 -16,-56 -39,-108 -85,-147z"/>
   <path id="Path_9139" class="fil1" d="M1751 815c0,49 39,88 88,88l457 0 -18 -16c-20,-18 -32,-45 -32,-72l0 -89 -495 0 0 89 0 0z"/>
   <path id="Path_9140" class="fil1" d="M1839 912c-54,0 -97,-43 -97,-97 0,0 0,0 0,0l0 -93c0,-3 1,-5 4,-5 0,0 0,0 0,0l181 0 0 -487c0,-54 43,-97 97,-97 0,0 0,0 1,0l495 0 0 9c-45,5 -79,43 -80,88l0 585c0,49 -36,90 -85,96l-6 1 -510 0zm186 -771c-49,1 -89,40 -89,89l0 487 314 0c2,0 4,2 5,4 0,0 0,1 0,1l0 93c0,49 39,88 88,88 49,0 88,-39 88,-88l0 0 0 -585c0,-28 12,-54 33,-73l18 -16 -457 0zm-274 674c0,49 39,88 88,88l457 0 -18 -16c-20,-18 -32,-44 -32,-72l0 -89 -495 0 0 89 0 0z"/>
   <rect id="Rectangle_1321" class="fil1" x="2060" y="186" width="247.61" height="17.1285"/>
   <rect id="Rectangle_1323" class="fil5" x="2007" y="319" width="114.957" height="17.1285"/>
   <rect id="Rectangle_1324" class="fil5" x="2007" y="372" width="88.431" height="17.1285"/>
   <rect id="Rectangle_1325" class="fil5" x="2007" y="425" width="141.489" height="17.1285"/>
   <rect id="Rectangle_1326" class="fil5" x="2007" y="478" width="61.8987" height="17.1285"/>
   <rect id="Rectangle_1327" class="fil5" x="2007" y="531" width="114.957" height="17.1285"/>
   <rect id="Rectangle_1328" class="fil5" x="2325" y="319" width="35.3714" height="17.1285"/>
   <rect id="Rectangle_1329" class="fil5" x="2325" y="372" width="35.3714" height="17.1285"/>
   <rect id="Rectangle_1330" class="fil5" x="2325" y="425" width="35.3714" height="17.1285"/>
   <rect id="Rectangle_1331" class="fil5" x="2325" y="478" width="35.3714" height="17.1285"/>
   <rect id="Rectangle_1332" class="fil5" x="2325" y="531" width="35.3714" height="17.1285"/>
   <path id="Path_9141" class="fil2" d="M1834 890l0 -18 -7 0c-11,0 -21,-9 -21,-21l0 -3 6 0 0 3c1,8 7,15 15,15l18 0c8,0 15,-7 15,-15l0 -18c0,-8 -7,-14 -15,-15l-18 0c-11,0 -21,-9 -21,-21l0 -18c0,-11 10,-21 21,-21l7 0 0 -18 6 0 0 18 6 0c12,0 21,10 21,21l0 3 -6 0 0 -3c0,-8 -7,-15 -15,-15l-18 0c-8,0 -15,7 -16,15l0 18c1,8 7,15 15,15l18 0c12,0 21,10 21,21l0 18c0,12 -9,21 -21,21l-6 0 0 18 -5 0z"/>
   <rect id="Rectangle_1333" class="fil5" x="2007" y="664" width="194.547" height="17.1285"/>
   <rect id="Rectangle_1334" class="fil5" x="2007" y="611" width="194.547" height="17.1285"/>
   <path id="Path_9142" class="fil2" d="M1949 775l-39 0 -4 26c3,0 5,0 9,0 8,-1 15,1 22,5 10,5 15,15 15,26 0,20 -16,36 -36,36 0,0 -1,0 -2,0 -9,0 -18,-2 -26,-6l4 -11c7,4 14,5 22,5 13,1 24,-8 25,-21 0,0 0,-1 0,-1 0,-13 -9,-23 -30,-23 -6,0 -11,1 -14,1l7 -50 49 0 0 13 -2 0z"/>
   <path id="Path_9143" class="fil2" d="M2037 814c0,35 -13,54 -36,54 -21,0 -34,-19 -35,-53 0,-35 15,-54 37,-54 22,1 34,20 34,53zm-56 2c0,26 8,42 22,42 14,0 21,-17 21,-43 0,-26 -6,-43 -21,-43 -13,0 -22,15 -22,44z"/>
   <path id="Path_9144" class="fil2" d="M2118 814c0,35 -13,54 -36,54 -20,0 -33,-19 -34,-53 0,-35 15,-54 36,-54 22,1 34,20 34,53zm-55 2c0,26 8,42 21,42 14,0 21,-17 21,-43 0,-26 -6,-43 -21,-43 -12,0 -21,15 -21,44z"/>
   <path id="Path_9145" class="fil2" d="M2200 814c0,35 -14,54 -37,54 -20,0 -33,-19 -34,-53 0,-35 15,-54 36,-54 22,1 35,20 35,53zm-56 2c0,26 8,42 21,42 14,0 21,-17 21,-43 0,-26 -6,-43 -21,-43 -12,0 -21,15 -21,44z"/>
  </g>
 </g>
</svg>
