<?xml version="1.0" encoding="UTF-8"?>
<!DOCTYPE svg PUBLIC "-//W3C//DTD SVG 1.1//EN" "http://www.w3.org/Graphics/SVG/1.1/DTD/svg11.dtd">
<!-- Creator: CorelDRAW X8 -->
<svg xmlns="http://www.w3.org/2000/svg" xml:space="preserve" width="8.80315in" height="6in" version="1.1" style="shape-rendering:geometricPrecision; text-rendering:geometricPrecision; image-rendering:optimizeQuality; fill-rule:evenodd; clip-rule:evenodd"
viewBox="0 0 90756 61857"
 xmlns:xlink="http://www.w3.org/1999/xlink">
 <defs>
  <style type="text/css">
   <![CDATA[
    .str0 {stroke:#373435;stroke-width:60.9168}
    .fil10 {fill:#FEFEFE}
    .fil0 {fill:#FEFEFE}
    .fil7 {fill:#373435}
    .fil9 {fill:#347954}
    .fil11 {fill:#353970}
    .fil8 {fill:#ED3237;fill-rule:nonzero}
    .fil2 {fill:#1A237E;fill-rule:nonzero}
    .fil3 {fill:#4B55C2;fill-rule:nonzero}
    .fil1 {fill:#868EE0;fill-rule:nonzero}
    .fil4 {fill:#B6BBED;fill-rule:nonzero}
    .fil6 {fill:#CFCFFF;fill-rule:nonzero}
    .fil5 {fill:white;fill-rule:nonzero}
   ]]>
  </style>
 </defs>
 <g id="Layer_x0020_1">
  <metadata id="CorelCorpID_0Corel-Layer"/>
  <g id="_2490746865376">
   <rect class="fil0 str0" x="30" y="30" width="90695" height="61796"/>
   <path class="fil1" d="M471 43921c940,-2787 2419,-3636 3826,-5424 1718,-2183 2877,-3771 2431,-6579 -729,-4590 -1041,-16036 10374,-14540 4091,536 7324,3874 9677,7205 2001,2834 5601,3085 8499,3746 2593,591 5222,1402 7732,2494 38,-323 80,-626 125,-904 446,-2808 -713,-4396 -2432,-6579 -1406,-1788 -2885,-2637 -3825,-5424 -991,-2942 -270,-6094 1758,-8355 1623,-1810 3685,-3171 5930,-3914 4245,-1407 8833,-583 13259,-1038 1897,-196 3772,-629 5575,-1289 1735,-635 3402,-1479 5166,-2017 7706,-2349 14108,-1664 18514,3452 3264,3791 3537,7031 3621,9088 276,6808 -1750,12129 -8534,15830 -3294,1797 -6921,3024 -10482,3835 -2898,661 -6498,912 -8499,3746 -2220,3144 -5224,6292 -8994,7088 125,1165 153,2382 102,3652 -84,2057 -357,5297 -3621,9088 -4406,5116 -10808,5801 -18514,3452 -1764,-538 -3431,-1382 -5166,-2017 -1803,-660 -3678,-1093 -5575,-1289 -4426,-455 -9014,369 -13259,-1038 -2245,-743 -4307,-2104 -5930,-3914 -2028,-2261 -2749,-5413 -1758,-8355z"/>
   <polygon class="fil2" points="54763,54916 35793,54916 35793,49813 54763,49813 "/>
   <path class="fil3" d="M74704 51479l-58652 0c-1964,0 -3555,-1592 -3555,-3555l0 -40201c0,-1964 1591,-3556 3555,-3556l58652 0c1963,0 3555,1592 3555,3556l0 40201c0,1963 -1592,3555 -3555,3555z"/>
   <path class="fil1" d="M74037 46940l-57519 0c-1207,0 -2185,-978 -2185,-2185l0 -36678c0,-1206 978,-2184 2185,-2184l57519 0c1207,0 2185,978 2185,2184l0 36678c0,1207 -978,2185 -2185,2185z"/>
   <path class="fil3" d="M62917 57690l-35278 0 0 -444c0,-1532 1241,-2773 2773,-2773l29732 0c1531,0 2773,1241 2773,2773l0 444z"/>
   <path class="fil4" d="M70519 37835l-39508 0c-1048,0 -1898,-849 -1898,-1897l0 -25313c0,-1048 850,-1897 1898,-1897l39508 0c1048,0 1898,849 1898,1897l0 25313c0,1048 -850,1897 -1898,1897z"/>
   <path class="fil5" d="M63359 43140l-44201 0c-1173,0 -2123,-950 -2123,-2123l0 -28319c0,-1172 950,-2123 2123,-2123l44201 0c1173,0 2123,951 2123,2123l0 28319c0,1173 -950,2123 -2123,2123z"/>
   <path class="fil2" d="M63359 10575l-44201 0c-1173,0 -2123,951 -2123,2123l0 1858 48447 0 0 -1858c0,-1172 -950,-2123 -2123,-2123z"/>
   <path class="fil6" d="M59251 12638c0,339 -274,612 -612,612 -338,0 -612,-273 -612,-612 0,-338 274,-611 612,-611 338,0 612,273 612,611z"/>
   <path class="fil6" d="M61746 12638c0,339 -274,612 -612,612 -338,0 -613,-273 -613,-612 0,-338 275,-611 613,-611 338,0 612,273 612,611z"/>
   <path class="fil6" d="M64241 12638c0,339 -274,612 -613,612 -337,0 -612,-273 -612,-612 0,-338 275,-611 612,-611 339,0 613,273 613,611z"/>
   <g>
    <path class="fil2" d="M43924 29301c105,0 190,85 190,190l0 4950c0,105 -85,190 -190,190l-5331 0c-105,0 -190,-85 -190,-190l0 -4950c0,-105 85,-190 190,-190l1714 0 0 381 -1523 0 0 4569 4949 0 0 -4569 -1523 0 0 -381 1714 0z"/>
    <path class="fil2" d="M41259 27017c105,0 190,85 190,190l0 4091 819 -801c75,-73 195,-72 269,3 73,76 72,196 -3,270l-1139 1114c-74,75 -194,76 -269,3l-1143 -1117c-75,-74 -76,-194 -3,-270 74,-75 194,-76 269,-3l819 801 0 -4091c0,-105 85,-190 191,-190z"/>
   </g>
   <g>
    <g>
     <path class="fil7" d="M31255 22352l-57 0 0 -150 57 0c53,0 80,26 80,76 0,51 -27,74 -80,74zm-10 -232l-151 0 0 530 104 0 0 -213 47 0c131,0 194,-58 194,-159 0,-100 -63,-158 -194,-158z"/>
     <path class="fil7" d="M31884 22484c0,61 -25,76 -69,76 -41,0 -68,-15 -68,-76l0 -216c0,-58 27,-74 68,-74 44,0 69,16 69,74l0 216zm-69 -379c-101,0 -173,47 -173,176l0 190c0,132 72,179 173,179 104,0 176,-47 176,-179l0 -190c0,-129 -72,-176 -176,-176z"/>
     <polygon class="fil7" points="32613,22466 32611,22466 32534,22120 32432,22120 32358,22466 32356,22466 32281,22120 32183,22120 32298,22650 32399,22650 32485,22286 32561,22650 32663,22650 32786,22120 32688,22120 "/>
     <polygon class="fil7" points="33094,22421 33233,22421 33233,22331 33094,22331 33094,22210 33277,22210 33277,22120 32989,22120 32989,22650 33286,22650 33286,22560 33094,22560 "/>
     <path class="fil7" d="M33670 22350l-55 0 0 -148 55 0c46,0 74,24 74,74 0,53 -28,74 -74,74zm178 -72c0,-100 -60,-158 -187,-158l-153 0 0 530 107 0 0 -216 49 0 93 216 113 0 -104 -237c60,-21 82,-69 82,-135z"/>
     <path class="fil7" d="M34657 22484c0,61 -27,76 -71,76 -41,0 -69,-15 -69,-76l0 -216c0,-58 28,-74 69,-74 44,0 71,16 71,74l0 216zm-71 -379c-102,0 -173,47 -173,176l0 190c0,132 71,179 173,179 104,0 176,-47 176,-179l0 -190c0,-129 -72,-176 -176,-176z"/>
     <polygon class="fil7" points="34984,22650 35091,22650 35091,22421 35222,22421 35222,22331 35091,22331 35091,22210 35261,22210 35261,22120 34984,22120 "/>
     <path class="fil7" d="M35911 22247c0,-37 19,-58 58,-58 35,0 60,21 76,71l97 -26c-20,-77 -77,-129 -171,-129 -109,0 -167,58 -167,147 0,150 236,150 236,250 0,40 -27,64 -63,64 -33,0 -71,-24 -82,-87l-105 21c28,105 94,150 181,150 110,0 176,-61 176,-153 0,-166 -236,-171 -236,-250z"/>
     <polygon class="fil7" points="36358,22650 36465,22650 36465,22120 36358,22120 "/>
     <polygon class="fil7" points="36923,22468 36921,22468 36827,22120 36679,22120 36679,22650 36770,22650 36770,22234 36882,22650 36962,22650 37074,22234 37077,22234 37077,22650 37168,22650 37168,22120 37019,22120 "/>
     <path class="fil7" d="M37535 22352l-57 0 0 -150 57 0c52,0 80,26 80,76 0,51 -28,74 -80,74zm-11 -232l-151 0 0 530 105 0 0 -213 46 0c132,0 195,-58 195,-159 0,-100 -63,-158 -195,-158z"/>
     <polygon class="fil7" points="37999,22120 37892,22120 37892,22650 38166,22650 38166,22560 37999,22560 "/>
     <polygon class="fil7" points="38353,22650 38457,22650 38457,22120 38353,22120 "/>
     <path class="fil7" d="M38830 22105c-101,0 -173,47 -173,176l0 190c0,132 72,179 173,179 104,0 176,-47 176,-179l0 -21 -105 0 0 34c0,61 -27,76 -71,76 -41,0 -69,-15 -69,-76l0 -216c0,-58 28,-74 69,-74 44,0 71,16 71,74l0 16 105 0 0 -3c0,-129 -72,-176 -176,-176z"/>
     <polygon class="fil7" points="39236,22650 39340,22650 39340,22120 39236,22120 "/>
     <polygon class="fil7" points="39532,22210 39656,22210 39656,22650 39760,22650 39760,22210 39884,22210 39884,22120 39532,22120 "/>
     <polygon class="fil7" points="40333,22120 40243,22334 40150,22120 40037,22120 40188,22437 40188,22650 40295,22650 40295,22437 40446,22120 40446,22120 "/>
     <path class="fil8" d="M35384 20010c9,44 11,106 -33,153 -64,72 -250,246 -250,246 0,0 -75,45 -39,96 7,11 19,16 33,16 15,-19 35,-32 35,-32 0,0 187,-174 254,-246 64,-72 25,-179 14,-208 -3,-6 -8,-15 -14,-25z"/>
     <path class="fil8" d="M34992 19984c-39,19 -217,155 -284,206 -63,51 -228,195 -228,195 0,0 -89,77 -58,118 11,15 23,22 35,24 19,-32 53,-62 53,-62 0,0 164,-144 228,-195 67,-53 245,-187 284,-206 30,-14 54,-29 80,-19 11,-18 19,-41 -7,-66 -36,-32 -64,-14 -103,5z"/>
     <path class="fil8" d="M35660 20607c-39,-67 -42,-115 -86,-83 -45,29 -276,166 -398,200 -125,35 -156,51 -225,40 -73,-13 -151,-42 -176,-85 -28,-43 -33,-54 -64,-27 -30,24 -119,94 -186,86 -70,-8 -242,-48 -337,-225 -2,-3 -3,-6 -5,-9 8,26 20,56 38,89 94,174 267,217 334,225 66,5 155,-62 186,-88 33,-24 36,-14 64,29 28,43 103,72 175,83 70,13 100,-3 226,-40 122,-35 353,-169 397,-201 45,-29 51,19 87,86 39,67 130,91 211,96 84,8 123,-13 175,-35 53,-24 195,-93 237,-120 42,-27 50,-29 67,11 16,43 19,75 147,163 125,85 337,37 387,19 47,-17 139,-59 161,-73 22,-16 45,24 92,73 32,28 82,38 130,31 36,-47 77,-101 77,-101 0,0 30,-45 -31,-5 -61,37 -158,40 -206,-6 -50,-48 -69,-85 -92,-72 -22,14 -114,59 -164,75 -47,16 -258,64 -384,-21 -128,-86 -130,-121 -147,-161 -17,-42 -25,-40 -67,-13 -42,29 -183,96 -236,120 -53,24 -92,43 -176,38 -80,-8 -172,-32 -211,-99z"/>
     <path class="fil8" d="M38456 20120c-64,59 -281,252 -364,332 -84,77 -337,336 -382,387 -44,54 -164,166 -114,171 9,1 28,4 54,9 29,-35 68,-75 90,-100 45,-50 298,-310 381,-390 84,-77 301,-272 365,-331 53,-47 -6,-73 -27,-81 -1,1 -2,2 -3,3z"/>
     <path class="fil8" d="M37777 19955c-67,64 -222,224 -256,264 -33,40 -167,187 -192,233 -25,42 -58,93 -25,112 8,5 19,7 32,7 7,-14 15,-28 23,-42 25,-43 159,-190 192,-230 33,-40 189,-200 256,-267 39,-39 11,-64 -29,-79 0,1 0,1 -1,2z"/>
     <path class="fil8" d="M33253 19188c0,0 69,72 100,99 27,29 78,96 147,66 72,-29 437,-66 557,-80 50,-5 98,-6 137,-4 33,-44 55,-73 55,-73 0,0 -103,-16 -222,-3 -120,16 -484,51 -557,83 -69,29 -119,-40 -147,-67 -17,-16 -46,-46 -69,-69 -26,19 -1,48 -1,48z"/>
     <path class="fil8" d="M37051 21187c47,-43 -28,-32 -53,-38 -25,-2 -503,-29 -645,-27 -142,3 -640,3 -818,14 -178,13 -832,72 -1005,101 -172,27 -865,129 -959,147 -95,19 -281,51 -281,51 0,0 -95,24 -187,-19 -34,-15 -75,-33 -108,-52 -79,40 53,93 138,133 94,40 186,18 186,18 0,0 187,-34 281,-53 95,-19 790,-118 963,-147 172,-27 823,-88 1001,-99 179,-11 679,-11 818,-13 134,-3 571,18 638,25 12,-18 23,-33 31,-41z"/>
     <path class="fil8" d="M38592 21347c-15,30 -52,104 -69,112 -22,8 -61,8 -148,-27 -86,-34 -484,-136 -592,-155 -106,-21 -351,-64 -351,-64 0,0 -30,-18 -80,62 -53,77 -209,304 -209,304 0,0 -11,33 -39,33 -31,0 -159,-8 -206,-35 0,0 0,0 0,0 -1,1 -3,4 -4,5 -27,51 -16,48 34,75 47,27 175,35 206,35 27,0 39,-32 39,-32 0,0 158,-228 208,-308 50,-77 81,-58 81,-58 0,0 245,40 350,61 109,21 507,123 593,158 89,34 128,34 150,24 20,-8 75,-123 75,-123 4,-35 -16,-55 -38,-67z"/>
     <path class="fil8" d="M37557 19452c-69,51 -428,334 -525,439 -95,104 -290,320 -365,416 -72,99 -120,145 -64,209 3,3 5,6 8,9 8,-37 44,-77 89,-137 72,-99 267,-313 364,-417 97,-105 454,-388 523,-439 70,-50 28,-69 28,-69 0,0 -19,-11 -42,-24 -4,4 -9,9 -16,13z"/>
     <path class="fil8" d="M36859 19361c-75,62 -337,281 -401,348 -66,67 -255,256 -317,326 -61,69 -233,275 -258,315 -28,40 -42,86 0,112 2,2 6,4 9,6 5,-13 12,-25 20,-38 28,-40 198,-245 259,-315 61,-69 250,-259 317,-326 64,-70 326,-289 404,-347 67,-54 2,-89 -16,-97 -4,5 -9,11 -17,16z"/>
     <path class="fil8" d="M35521 19174c0,0 28,51 -70,43 -97,-8 -253,-13 -361,-21 -106,-8 -365,-27 -404,-24 -39,2 -47,0 -69,32 -23,29 -126,163 -151,195 -25,32 -133,174 -225,296 -92,123 -209,281 -312,444 -102,163 -194,313 -233,380 -39,66 -56,109 -64,125 -6,16 -14,46 -59,48 -47,0 -264,-5 -264,-5 0,0 -6,0 -14,-1 -38,85 44,78 44,78 0,0 217,8 264,6 45,-3 53,-30 61,-46 6,-16 23,-58 61,-125 39,-70 134,-219 234,-382 103,-163 220,-318 312,-441 92,-126 200,-265 225,-297 25,-35 128,-166 150,-198 23,-29 34,-26 70,-29 39,-3 298,16 403,24 109,5 267,13 362,21 97,6 70,-42 70,-42 0,0 5,-62 -23,-131 -4,-12 -9,-21 -14,-29 10,45 7,79 7,79z"/>
     <path class="fil7" d="M38520 21248c22,13 86,29 78,86 0,0 -53,115 -75,125 -22,8 -61,8 -148,-27 -86,-34 -484,-136 -592,-155 -106,-21 -351,-64 -351,-64 0,0 -30,-18 -80,62 -53,77 -209,304 -209,304 0,0 -11,33 -39,33 -31,0 -159,-8 -206,-35 -50,-24 -61,-22 -33,-75 30,-51 142,-270 186,-315 47,-43 -28,-32 -53,-38 -25,-2 -503,-29 -645,-27 -142,3 -640,3 -818,14 -178,13 -832,72 -1005,101 -172,27 -865,129 -959,147 -95,19 -281,51 -281,51 0,0 -95,24 -187,-19 -92,-42 -239,-101 -114,-139 128,-40 743,-163 935,-192 192,-27 790,-115 1043,-128 251,-14 929,-51 1185,-48 254,2 607,18 757,29 150,11 251,19 278,24 31,6 34,-16 62,-51 30,-34 125,-160 125,-160 0,0 30,-45 -31,-5 -61,37 -158,40 -206,-6 -50,-48 -69,-85 -92,-72 -22,14 -114,59 -164,75 -47,16 -258,64 -384,-21 -128,-86 -130,-121 -147,-161 -17,-42 -25,-40 -67,-13 -42,29 -183,96 -236,120 -53,24 -92,43 -176,38 -80,-8 -172,-32 -211,-99 -39,-67 -42,-115 -86,-83 -45,29 -276,166 -398,200 -125,35 -156,51 -225,40 -73,-13 -151,-42 -176,-85 -28,-43 -33,-54 -64,-27 -30,24 -119,94 -186,86 -70,-8 -242,-48 -337,-225 -94,-174 -25,-248 59,-334 86,-88 236,-216 236,-216 0,0 187,-137 251,-169 64,-29 161,-88 228,-93 64,-3 158,2 250,75 92,72 142,152 156,181 11,27 50,134 -17,206 -64,72 -250,246 -250,246 0,0 -75,45 -39,96 33,51 156,-32 195,-61 41,-27 256,-211 322,-273 64,-64 482,-470 518,-505 36,-37 381,-385 434,-417 50,-32 69,-56 161,-37 92,18 148,51 148,51 0,0 97,37 19,98 -75,62 -337,281 -401,348 -66,67 -255,256 -317,326 -61,69 -233,275 -258,315 -28,40 -42,86 0,112 41,30 114,-2 192,-64 77,-64 303,-259 383,-339 78,-80 512,-492 551,-524 39,-35 240,-195 240,-195 0,0 25,-35 83,-35 58,0 117,11 153,27 36,13 100,53 100,53 0,0 42,17 -28,67 -69,51 -428,334 -525,439 -95,104 -290,320 -365,416 -72,99 -120,145 -64,209 56,67 123,51 156,40 33,-11 145,-91 225,-174 81,-80 334,-350 359,-385 28,-32 120,-125 120,-125 0,0 19,-38 72,-38 53,0 86,8 139,19 53,13 167,35 103,102 -67,64 -222,224 -256,264 -33,40 -167,187 -192,233 -25,42 -58,93 -25,112 34,21 120,-8 203,-56 87,-46 212,-126 320,-222 109,-99 284,-256 284,-256 0,0 28,-67 156,-38 125,27 156,43 156,43 0,0 97,27 33,85 -64,59 -281,252 -364,332 -84,77 -337,336 -382,387 -44,54 -164,166 -114,171 50,6 426,80 515,104 89,22 384,123 409,134l0 0zm-3870 -2327l-65 0c-199,2 -675,30 -781,40 -117,10 -487,74 -553,90 -67,16 -28,57 -28,57 0,0 69,72 100,101 28,27 78,96 147,67 73,-32 437,-67 557,-83 119,-13 222,3 222,3 0,0 -317,417 -367,486 -53,67 -323,441 -375,519 -53,80 -178,288 -237,390 -56,101 39,96 39,96 0,0 217,5 264,5 45,-2 53,-32 59,-48 8,-16 25,-59 64,-125 39,-67 131,-217 233,-380 103,-163 220,-321 312,-444 92,-122 200,-264 225,-296 25,-32 128,-166 151,-195 22,-32 30,-30 69,-32 39,-3 298,16 404,24 108,8 264,13 361,21 98,8 70,-43 70,-43 0,0 5,-61 -22,-128 -31,-69 -56,-59 -56,-59 -135,-39 -629,-65 -793,-66zm203 1394c72,-50 228,-237 237,-253 11,-16 41,-49 5,-83 -36,-32 -64,-14 -103,5 -39,19 -217,155 -284,206 -63,51 -228,195 -228,195 0,0 -89,77 -58,118 31,40 61,24 108,10 51,-13 248,-147 323,-198l0 0z"/>
    </g>
    <g>
     <path class="fil9" d="M51194 22849l-2235 0 -4 -409 538 0 0 -476 -542 0 -3 -282 545 0 0 -476 -549 0 -2 -282 551 0 0 -476 -553 0 0 -282 553 0 0 -476 -553 0 0 -282 553 0 0 -476 -553 0 0 -433 2254 0 0 4350zm-2228 -5091l-1 0 -3605 556 0 4878 3606 621 0 -766 2193 0c146,0 264,-106 264,-237l0 -4298c0,-131 -118,-237 -264,-237l-2193 0 0 -517z"/>
     <polygon class="fil9" points="49797,19408 50733,19408 50733,18932 49797,18932 "/>
     <polygon class="fil9" points="49797,20166 50733,20166 50733,19690 49797,19690 "/>
     <polygon class="fil9" points="49797,20924 50733,20924 50733,20448 49797,20448 "/>
     <polygon class="fil9" points="49797,21682 50733,21682 50733,21206 49797,21206 "/>
     <polygon class="fil9" points="49797,22440 50733,22440 50733,21964 49797,21964 "/>
     <polygon class="fil10" points="46302,19632 46766,19605 47059,20408 47404,19572 47868,19545 47304,20686 47868,21829 47377,21796 47045,20924 46713,21762 46262,21723 46786,20713 "/>
    </g>
   </g>
   <g>
    <polygon class="fil11" points="37690,40462 38254,40462 38254,37900 37690,37900 "/>
    <path class="fil11" d="M41774 40462l-923 0c-763,0 -1440,-445 -1440,-1274 0,-937 691,-1288 1516,-1288l847 0 0 1198 -564 0 0 -677 -333 0c-478,0 -880,235 -880,739 0,582 395,781 920,781l143 0 150 0 564 0 0 521z"/>
    <polygon class="fil11" points="46191,40462 46755,40462 46755,39355 47852,39355 47852,40462 48416,40462 48416,37900 47852,37900 47852,38856 46755,38856 46755,37900 46191,37900 "/>
    <path class="fil11" d="M43094 37900l922 0c764,0 1441,445 1441,1274 0,937 -691,1288 -1517,1288l-846 0 0 -1197 564 0 0 676 333 0c478,0 880,-235 880,-738 0,-583 -395,-782 -920,-782l-143 0 -150 0 -564 0 0 -521z"/>
    <path class="fil11" d="M36558 38942l-1003 0 0 522 460 0 0 416c-105,58 -286,126 -532,126 -481,0 -796,-347 -796,-825 0,-477 315,-825 796,-825 286,0 470,83 622,243l399 -435c-257,-238 -616,-329 -1021,-329 -800,0 -1382,525 -1382,1346 0,822 582,1346 1382,1346 376,0 742,-72 1075,-246l0 -1339z"/>
   </g>
  </g>
 </g>
</svg>
