<?xml version="1.0" encoding="UTF-8"?>
<!DOCTYPE svg PUBLIC "-//W3C//DTD SVG 1.1//EN" "http://www.w3.org/Graphics/SVG/1.1/DTD/svg11.dtd">
<!-- Creator: CorelDRAW X8 -->
<svg xmlns="http://www.w3.org/2000/svg" xml:space="preserve" width="4.25096in" height="3in" version="1.1" style="shape-rendering:geometricPrecision; text-rendering:geometricPrecision; image-rendering:optimizeQuality; fill-rule:evenodd; clip-rule:evenodd"
viewBox="0 0 118366 83534"
 xmlns:xlink="http://www.w3.org/1999/xlink">
 <defs>
  <style type="text/css">
   <![CDATA[
    .str0 {stroke:#1A237E;stroke-width:184.433}
    .fil3 {fill:none}
    .fil5 {fill:#FEFEFE}
    .fil1 {fill:#606062}
    .fil2 {fill:#1A237E}
    .fil0 {fill:#606062;fill-rule:nonzero}
    .fil4 {fill:#1A237E;fill-rule:nonzero}
   ]]>
  </style>
 </defs>
 <g id="Layer_x0020_1">
  <metadata id="CorelCorpID_0Corel-Layer"/>
  <g id="_2490759008208">
   <g>
    <path class="fil0" d="M9658 34889l0 -371 2049 0 0 300c-201,215 -402,501 -599,857 -199,356 -351,723 -460,1100 -77,265 -127,556 -149,872l-398 0c4,-250 53,-551 147,-905 93,-354 227,-695 402,-1023 174,-328 360,-605 557,-830l-1549 0z"/>
    <path id="1" class="fil0" d="M12155 36912l372 -31c32,176 92,302 181,381 90,79 204,119 344,119 120,0 224,-27 315,-82 91,-55 165,-128 221,-220 57,-92 105,-216 144,-371 39,-156 59,-315 59,-476 0,-17 -1,-44 -3,-78 -77,124 -183,225 -318,301 -134,78 -280,116 -436,116 -262,0 -483,-95 -665,-285 -181,-190 -271,-441 -271,-752 0,-322 94,-580 284,-776 189,-195 425,-294 711,-294 205,0 393,56 564,167 170,111 300,269 388,474 89,205 133,503 133,892 0,405 -44,727 -131,967 -88,240 -220,422 -393,548 -173,125 -376,188 -609,188 -248,0 -450,-69 -607,-207 -157,-138 -251,-332 -283,-581zm1589 -1398c0,-223 -59,-400 -177,-530 -117,-131 -260,-196 -429,-196 -174,0 -324,70 -451,211 -128,140 -191,323 -191,548 0,201 61,365 181,490 121,126 271,189 450,189 180,0 328,-63 444,-189 116,-125 173,-300 173,-523z"/>
    <path id="2" class="fil0" d="M14559 36806l390 -53c45,221 120,380 227,478 107,97 238,146 394,146 184,0 340,-64 465,-191 126,-126 188,-284 188,-471 0,-179 -58,-326 -175,-443 -117,-115 -265,-174 -446,-174 -73,0 -165,15 -275,44l44 -341c26,3 47,4 62,4 167,0 316,-43 450,-129 132,-87 199,-219 199,-399 0,-142 -49,-260 -145,-354 -97,-93 -222,-140 -375,-140 -151,0 -278,48 -379,144 -101,96 -166,240 -194,431l-390 -70c48,-261 156,-464 325,-608 168,-144 378,-216 629,-216 173,0 332,37 477,112 146,74 258,175 334,302 78,129 116,264 116,408 0,137 -37,261 -110,373 -73,112 -183,201 -327,268 188,42 333,132 437,269 103,135 155,307 155,511 0,277 -101,512 -302,704 -203,193 -458,289 -766,289 -278,0 -509,-83 -693,-249 -184,-166 -289,-381 -315,-645z"/>
    <path id="3" class="fil0" d="M17078 36912l372 -31c32,176 92,302 182,381 89,79 203,119 343,119 120,0 225,-27 315,-82 91,-55 165,-128 222,-220 56,-92 104,-216 144,-371 39,-156 58,-315 58,-476 0,-17 -1,-44 -2,-78 -78,124 -184,225 -318,301 -135,78 -281,116 -437,116 -262,0 -483,-95 -665,-285 -180,-190 -271,-441 -271,-752 0,-322 94,-580 284,-776 189,-195 425,-294 711,-294 205,0 393,56 564,167 171,111 300,269 388,474 89,205 133,503 133,892 0,405 -43,727 -131,967 -88,240 -219,422 -393,548 -173,125 -376,188 -609,188 -248,0 -450,-69 -607,-207 -156,-138 -251,-332 -283,-581zm1589 -1398c0,-223 -59,-400 -177,-530 -117,-131 -260,-196 -428,-196 -174,0 -325,70 -452,211 -127,140 -191,323 -191,548 0,201 61,365 181,490 121,126 271,189 451,189 180,0 327,-63 443,-189 116,-125 173,-300 173,-523z"/>
    <path id="4" class="fil0" d="M19482 36815l408 -31c30,198 100,347 209,447 109,100 243,150 400,150 190,0 348,-71 477,-212 129,-141 193,-329 193,-562 0,-222 -61,-397 -185,-525 -123,-128 -286,-192 -489,-192 -126,0 -239,28 -339,86 -100,57 -178,132 -235,223l-368 -53 306 -1628 1571 0 0 371 -1261 0 -169 855c190,-133 389,-200 597,-200 276,0 509,96 699,288 189,192 284,438 284,739 0,287 -83,535 -250,744 -202,256 -480,385 -831,385 -288,0 -522,-81 -705,-243 -182,-161 -286,-375 -312,-642z"/>
    <path id="5" class="fil0" d="M23231 36912l372 -31c32,176 92,302 182,381 89,79 203,119 343,119 120,0 225,-27 315,-82 91,-55 165,-128 222,-220 56,-92 104,-216 144,-371 39,-156 58,-315 58,-476 0,-17 -1,-44 -2,-78 -78,124 -184,225 -318,301 -135,78 -281,116 -437,116 -262,0 -483,-95 -665,-285 -180,-190 -271,-441 -271,-752 0,-322 94,-580 284,-776 189,-195 425,-294 711,-294 205,0 393,56 564,167 171,111 300,269 388,474 89,205 133,503 133,892 0,405 -43,727 -131,967 -88,240 -219,422 -393,548 -173,125 -376,188 -609,188 -248,0 -450,-69 -607,-207 -156,-138 -251,-332 -283,-581zm1589 -1398c0,-223 -59,-400 -177,-530 -117,-131 -260,-196 -428,-196 -174,0 -325,70 -452,211 -127,140 -191,323 -191,548 0,201 61,365 181,490 121,126 271,189 451,189 180,0 327,-63 443,-189 116,-125 173,-300 173,-523z"/>
    <path id="6" class="fil0" d="M25635 36806l390 -53c45,221 120,380 227,478 107,97 238,146 394,146 185,0 340,-64 466,-191 125,-126 188,-284 188,-471 0,-179 -59,-326 -176,-443 -116,-115 -265,-174 -445,-174 -74,0 -166,15 -276,44l44 -341c26,3 47,4 63,4 166,0 315,-43 449,-129 133,-87 199,-219 199,-399 0,-142 -49,-260 -145,-354 -97,-93 -222,-140 -374,-140 -152,0 -278,48 -379,144 -102,96 -166,240 -195,431l-390 -70c48,-261 156,-464 325,-608 168,-144 378,-216 629,-216 173,0 332,37 477,112 147,74 258,175 335,302 77,129 115,264 115,408 0,137 -36,261 -110,373 -73,112 -183,201 -326,268 187,42 332,132 436,269 104,135 155,307 155,511 0,277 -101,512 -302,704 -202,193 -457,289 -766,289 -278,0 -509,-83 -692,-249 -185,-166 -290,-381 -316,-645z"/>
    <path id="7" class="fil0" d="M28155 36912l371 -31c32,176 93,302 182,381 89,79 203,119 344,119 119,0 224,-27 315,-82 90,-55 164,-128 221,-220 57,-92 105,-216 144,-371 39,-156 58,-315 58,-476 0,-17 -1,-44 -2,-78 -78,124 -184,225 -318,301 -134,78 -280,116 -437,116 -262,0 -483,-95 -664,-285 -181,-190 -272,-441 -272,-752 0,-322 95,-580 284,-776 189,-195 426,-294 711,-294 205,0 393,56 565,167 170,111 299,269 388,474 88,205 132,503 132,892 0,405 -43,727 -131,967 -88,240 -219,422 -392,548 -174,125 -377,188 -610,188 -248,0 -450,-69 -607,-207 -156,-138 -251,-332 -282,-581zm1589 -1398c0,-223 -59,-400 -177,-530 -118,-131 -261,-196 -429,-196 -174,0 -325,70 -452,211 -127,140 -191,323 -191,548 0,201 61,365 181,490 121,126 272,189 451,189 180,0 327,-63 443,-189 116,-125 174,-300 174,-523z"/>
    <path id="8" class="fil0" d="M30559 36806l389 -53c45,221 120,380 227,478 107,97 239,146 394,146 185,0 340,-64 466,-191 125,-126 188,-284 188,-471 0,-179 -58,-326 -176,-443 -116,-115 -264,-174 -445,-174 -74,0 -165,15 -275,44l43 -341c26,3 47,4 63,4 167,0 316,-43 449,-129 133,-87 199,-219 199,-399 0,-142 -48,-260 -145,-354 -97,-93 -221,-140 -374,-140 -152,0 -278,48 -379,144 -101,96 -166,240 -195,431l-389 -70c48,-261 155,-464 324,-608 168,-144 379,-216 629,-216 173,0 332,37 478,112 146,74 257,175 334,302 77,129 116,264 116,408 0,137 -37,261 -110,373 -74,112 -183,201 -327,268 187,42 333,132 437,269 103,135 155,307 155,511 0,277 -101,512 -303,704 -202,193 -457,289 -766,289 -278,0 -509,-83 -692,-249 -185,-166 -289,-381 -315,-645z"/>
    <path id="9" class="fil0" d="M33078 36912l372 -31c31,176 92,302 181,381 89,79 204,119 344,119 119,0 224,-27 315,-82 91,-55 164,-128 221,-220 57,-92 105,-216 144,-371 39,-156 58,-315 58,-476 0,-17 0,-44 -2,-78 -77,124 -184,225 -318,301 -134,78 -280,116 -437,116 -261,0 -483,-95 -664,-285 -181,-190 -272,-441 -272,-752 0,-322 95,-580 284,-776 189,-195 426,-294 711,-294 206,0 394,56 565,167 170,111 299,269 388,474 88,205 133,503 133,892 0,405 -44,727 -132,967 -87,240 -219,422 -392,548 -174,125 -376,188 -610,188 -247,0 -450,-69 -607,-207 -156,-138 -250,-332 -282,-581zm1589 -1398c0,-223 -59,-400 -177,-530 -117,-131 -261,-196 -429,-196 -174,0 -324,70 -451,211 -128,140 -191,323 -191,548 0,201 60,365 180,490 121,126 272,189 451,189 180,0 328,-63 444,-189 115,-125 173,-300 173,-523z"/>
    <path id="10" class="fil0" d="M36920 37647l0 -443 442 0 0 443c0,163 -28,295 -87,395 -57,100 -149,179 -276,233l-106 -168c83,-36 143,-89 182,-159 39,-70 61,-170 65,-301l-220 0z"/>
    <path id="11" class="fil0" d="M39771 35929c-162,-59 -281,-144 -359,-253 -78,-110 -117,-242 -117,-394 0,-231 83,-424 248,-582 166,-157 386,-236 661,-236 276,0 499,81 667,242 168,160 252,356 252,587 0,147 -38,275 -115,383 -77,110 -193,194 -350,253 194,63 340,165 442,307 101,140 151,309 151,505 0,271 -95,498 -286,682 -192,185 -444,277 -756,277 -312,0 -563,-92 -755,-278 -191,-185 -287,-416 -287,-692 0,-206 52,-379 157,-517 105,-140 254,-234 447,-284zm-78 -661c0,150 48,273 144,368 96,95 221,143 377,143 151,0 273,-47 368,-142 96,-94 143,-210 143,-347 0,-143 -49,-263 -147,-361 -97,-97 -221,-146 -369,-146 -150,0 -273,48 -370,143 -97,95 -146,209 -146,342zm-128 1465c0,111 26,218 78,322 51,103 129,184 234,241 104,56 216,85 335,85 187,0 341,-60 461,-179 120,-120 180,-272 180,-456 0,-187 -62,-342 -185,-465 -124,-122 -280,-183 -468,-183 -185,0 -336,60 -456,181 -119,121 -179,272 -179,454z"/>
    <path id="12" class="fil0" d="M41633 36083c0,-374 38,-677 115,-905 77,-230 192,-406 344,-529 151,-123 342,-185 572,-185 170,0 319,34 448,103 128,68 235,167 317,297 83,128 148,285 195,470 48,185 71,435 71,749 0,372 -38,673 -114,901 -76,230 -190,406 -342,530 -151,124 -343,186 -575,186 -304,0 -544,-109 -718,-326 -209,-266 -313,-696 -313,-1291zm398 1c0,522 61,869 182,1040 122,172 273,257 451,257 179,0 329,-86 451,-258 122,-173 182,-519 182,-1039 0,-521 -60,-868 -182,-1039 -121,-172 -273,-257 -455,-257 -179,0 -322,76 -429,227 -133,192 -200,549 -200,1069z"/>
    <path id="13" class="fil0" d="M44094 36806l390 -53c45,221 120,380 227,478 107,97 238,146 394,146 185,0 340,-64 466,-191 125,-126 188,-284 188,-471 0,-179 -59,-326 -176,-443 -116,-115 -265,-174 -445,-174 -74,0 -166,15 -276,44l44 -341c26,3 47,4 63,4 166,0 315,-43 449,-129 133,-87 199,-219 199,-399 0,-142 -49,-260 -145,-354 -97,-93 -222,-140 -374,-140 -152,0 -278,48 -379,144 -102,96 -166,240 -195,431l-390 -70c48,-261 156,-464 325,-608 168,-144 378,-216 629,-216 173,0 332,37 477,112 147,74 258,175 335,302 77,129 115,264 115,408 0,137 -36,261 -110,373 -73,112 -182,201 -326,268 187,42 332,132 436,269 104,135 155,307 155,511 0,277 -101,512 -302,704 -202,193 -457,289 -766,289 -278,0 -509,-83 -692,-249 -185,-166 -290,-381 -316,-645z"/>
    <path id="14" class="fil0" d="M46556 36806l390 -53c45,221 120,380 227,478 107,97 238,146 394,146 184,0 340,-64 465,-191 126,-126 188,-284 188,-471 0,-179 -58,-326 -175,-443 -117,-115 -265,-174 -446,-174 -74,0 -165,15 -275,44l44 -341c25,3 47,4 62,4 167,0 316,-43 450,-129 132,-87 199,-219 199,-399 0,-142 -49,-260 -146,-354 -96,-93 -221,-140 -374,-140 -152,0 -278,48 -379,144 -101,96 -166,240 -195,431l-389 -70c48,-261 156,-464 324,-608 169,-144 379,-216 630,-216 172,0 332,37 477,112 146,74 257,175 334,302 78,129 116,264 116,408 0,137 -37,261 -110,373 -74,112 -183,201 -327,268 188,42 333,132 437,269 103,135 155,307 155,511 0,277 -101,512 -303,704 -202,193 -457,289 -765,289 -278,0 -509,-83 -693,-249 -184,-166 -289,-381 -315,-645z"/>
    <path id="15" class="fil0" d="M49018 36083c0,-374 38,-677 115,-905 77,-230 192,-406 344,-529 151,-123 342,-185 572,-185 170,0 319,34 448,103 128,68 234,167 317,297 83,128 147,285 195,470 48,185 71,435 71,749 0,372 -38,673 -114,901 -76,230 -190,406 -342,530 -152,124 -343,186 -575,186 -305,0 -544,-109 -718,-326 -209,-266 -313,-696 -313,-1291zm398 1c0,522 61,869 182,1040 122,172 272,257 451,257 179,0 329,-86 451,-258 121,-173 182,-519 182,-1039 0,-521 -61,-868 -182,-1039 -121,-172 -273,-257 -455,-257 -179,0 -322,76 -429,227 -134,192 -200,549 -200,1069z"/>
    <path id="16" class="fil0" d="M52709 36806l390 -53c45,221 120,380 227,478 107,97 238,146 394,146 184,0 340,-64 465,-191 126,-126 188,-284 188,-471 0,-179 -58,-326 -175,-443 -117,-115 -265,-174 -446,-174 -74,0 -165,15 -275,44l44 -341c25,3 47,4 62,4 167,0 316,-43 450,-129 132,-87 199,-219 199,-399 0,-142 -49,-260 -146,-354 -96,-93 -221,-140 -374,-140 -152,0 -278,48 -379,144 -101,96 -166,240 -195,431l-389 -70c48,-261 156,-464 324,-608 169,-144 379,-216 630,-216 172,0 332,37 477,112 146,74 257,175 334,302 78,129 116,264 116,408 0,137 -37,261 -110,373 -74,112 -183,201 -327,268 188,42 333,132 437,269 103,135 155,307 155,511 0,277 -101,512 -303,704 -202,193 -457,289 -765,289 -278,0 -509,-83 -693,-249 -184,-166 -289,-381 -315,-645z"/>
    <path id="17" class="fil0" d="M55193 34889l0 -371 2049 0 0 300c-201,215 -402,501 -600,857 -198,356 -351,723 -459,1100 -78,265 -128,556 -149,872l-399 0c5,-250 54,-551 147,-905 94,-354 227,-695 402,-1023 175,-328 361,-605 558,-830l-1549 0z"/>
    <path id="18" class="fil0" d="M57632 36083c0,-374 39,-677 115,-905 78,-230 192,-406 344,-529 151,-123 342,-185 573,-185 169,0 318,34 447,103 129,68 235,167 318,297 82,128 147,285 194,470 48,185 72,435 72,749 0,372 -38,673 -114,901 -76,230 -191,406 -343,530 -151,124 -343,186 -574,186 -305,0 -545,-109 -719,-326 -209,-266 -313,-696 -313,-1291zm399 1c0,522 60,869 182,1040 122,172 272,257 451,257 178,0 329,-86 450,-258 122,-173 183,-519 183,-1039 0,-521 -61,-868 -183,-1039 -121,-172 -273,-257 -455,-257 -178,0 -321,76 -428,227 -134,192 -200,549 -200,1069z"/>
    <path id="19" class="fil0" d="M60694 35929c-162,-59 -281,-144 -360,-253 -77,-110 -116,-242 -116,-394 0,-231 83,-424 248,-582 166,-157 385,-236 661,-236 275,0 498,81 666,242 169,160 253,356 253,587 0,147 -39,275 -115,383 -77,110 -194,194 -351,253 194,63 341,165 442,307 101,140 152,309 152,505 0,271 -96,498 -287,682 -192,185 -443,277 -755,277 -312,0 -564,-92 -756,-278 -191,-185 -286,-416 -286,-692 0,-206 52,-379 157,-517 104,-140 253,-234 447,-284zm-78 -661c0,150 48,273 143,368 96,95 222,143 377,143 151,0 274,-47 369,-142 95,-94 142,-210 142,-347 0,-143 -48,-263 -146,-361 -98,-97 -221,-146 -369,-146 -150,0 -273,48 -371,143 -96,95 -145,209 -145,342zm-128 1465c0,111 26,218 77,322 52,103 130,184 235,241 104,56 216,85 335,85 187,0 341,-60 461,-179 120,-120 180,-272 180,-456 0,-187 -62,-342 -185,-465 -124,-122 -281,-183 -469,-183 -184,0 -335,60 -455,181 -119,121 -179,272 -179,454z"/>
    <path id="20" class="fil0" d="M62613 36912l372 -31c32,176 92,302 181,381 90,79 204,119 344,119 120,0 224,-27 315,-82 91,-55 165,-128 221,-220 57,-92 105,-216 144,-371 39,-156 58,-315 58,-476 0,-17 0,-44 -2,-78 -77,124 -183,225 -318,301 -134,78 -280,116 -436,116 -262,0 -484,-95 -665,-285 -181,-190 -272,-441 -272,-752 0,-322 95,-580 284,-776 189,-195 426,-294 712,-294 205,0 393,56 564,167 170,111 299,269 388,474 88,205 133,503 133,892 0,405 -44,727 -132,967 -87,240 -219,422 -392,548 -173,125 -376,188 -609,188 -248,0 -450,-69 -607,-207 -157,-138 -251,-332 -283,-581zm1589 -1398c0,-223 -59,-400 -177,-530 -117,-131 -260,-196 -429,-196 -174,0 -324,70 -451,211 -128,140 -191,323 -191,548 0,201 60,365 181,490 121,126 271,189 450,189 180,0 328,-63 444,-189 115,-125 173,-300 173,-523z"/>
    <path class="fil0" d="M9587 44635l385 -62c22,154 82,273 181,355 99,82 238,123 415,123 179,0 312,-36 399,-109 86,-72 130,-158 130,-256 0,-88 -39,-157 -117,-207 -55,-35 -187,-78 -398,-132 -285,-72 -482,-134 -593,-186 -110,-53 -193,-125 -250,-218 -57,-93 -85,-195 -85,-307 0,-103 23,-197 70,-284 47,-87 110,-160 191,-217 60,-44 143,-82 247,-113 105,-31 216,-46 336,-46 180,0 337,25 473,78 137,51 237,122 302,211 64,89 109,208 133,357l-380 53c-17,-120 -67,-213 -150,-280 -83,-68 -199,-101 -350,-101 -178,0 -306,30 -382,89 -76,59 -114,128 -114,207 0,50 15,96 47,136 32,42 81,76 149,104 39,15 153,48 343,99 275,73 466,134 576,180 109,47 194,115 256,204 63,89 94,200 94,333 0,129 -38,250 -114,365 -76,114 -185,203 -327,265 -143,63 -305,94 -485,94 -298,0 -526,-62 -682,-185 -157,-124 -256,-307 -300,-550z"/>
    <path id="1" class="fil0" d="M13456 45321l0 -341c-179,260 -421,390 -727,390 -135,0 -261,-26 -378,-77 -118,-53 -205,-118 -261,-196 -57,-79 -97,-175 -120,-288 -15,-77 -24,-198 -24,-363l0 -1422 390 0 0 1271c0,203 8,340 24,410 24,103 76,183 155,241 79,58 176,88 293,88 117,0 226,-30 328,-90 101,-59 174,-141 216,-244 43,-102 64,-252 64,-448l0 -1228 389 0 0 2297 -349 0z"/>
    <path id="2" class="fil0" d="M14417 46202l0 -3178 354 0 0 302c83,-117 178,-204 283,-263 105,-58 233,-87 382,-87 197,0 369,50 519,151 150,100 263,242 339,425 76,184 115,385 115,604 0,234 -42,445 -126,633 -85,187 -207,331 -368,431 -160,100 -329,150 -506,150 -130,0 -246,-27 -349,-82 -103,-54 -187,-123 -254,-206l0 1120 -389 0zm354 -2015c0,294 60,512 179,653 119,140 264,211 433,211 173,0 320,-73 443,-219 123,-146 184,-372 184,-678 0,-292 -59,-510 -180,-655 -120,-146 -263,-218 -430,-218 -165,0 -311,77 -438,232 -128,154 -191,379 -191,674z"/>
    <path id="3" class="fil0" d="M16879 46202l0 -3178 354 0 0 302c83,-117 177,-204 283,-263 105,-58 232,-87 382,-87 196,0 369,50 519,151 149,100 262,242 339,425 76,184 114,385 114,604 0,234 -42,445 -126,633 -84,187 -206,331 -367,431 -160,100 -329,150 -506,150 -130,0 -247,-27 -349,-82 -103,-54 -188,-123 -254,-206l0 1120 -389 0zm354 -2015c0,294 59,512 178,653 120,140 264,211 434,211 173,0 320,-73 443,-219 123,-146 184,-372 184,-678 0,-292 -60,-510 -180,-655 -120,-146 -263,-218 -430,-218 -165,0 -311,77 -438,232 -128,154 -191,379 -191,674z"/>
    <path id="4" class="fil0" d="M19194 44173c0,-424 118,-739 355,-943 197,-170 438,-254 722,-254 315,0 573,103 774,309 200,206 300,492 300,855 0,295 -44,527 -133,696 -88,169 -217,300 -387,394 -169,94 -354,140 -554,140 -321,0 -581,-103 -780,-308 -198,-206 -297,-503 -297,-889zm398 1c0,293 65,513 193,658 129,146 291,219 486,219 193,0 354,-73 483,-220 129,-146 193,-370 193,-670 0,-283 -65,-498 -194,-643 -129,-146 -290,-219 -482,-219 -195,0 -357,72 -486,217 -128,146 -193,365 -193,658z"/>
    <path id="5" class="fil0" d="M21797 45321l0 -2297 350 0 0 352c89,-163 172,-271 248,-322 76,-53 159,-78 250,-78 131,0 265,41 401,123l-139 359c-95,-53 -189,-80 -283,-80 -85,0 -161,26 -228,77 -67,51 -115,122 -144,212 -44,138 -65,290 -65,454l0 1200 -390 0z"/>
    <path id="6" class="fil0" d="M24121 44974l53 344c-109,22 -207,34 -293,34 -141,0 -250,-22 -328,-67 -77,-45 -132,-103 -164,-176 -31,-73 -47,-227 -47,-460l0 -1324 -288 0 0 -301 288 0 0 -568 390 -234 0 802 389 0 0 301 -389 0 0 1346c0,111 6,183 20,214 14,32 36,57 67,76 31,19 75,28 132,28 43,0 100,-5 170,-15z"/>
    <path id="7" class="fil0" d="M26732 44966c-94,109 -199,196 -315,262 -116,65 -233,98 -349,98 -128,0 -253,-38 -375,-112 -121,-76 -219,-191 -295,-346 -76,-156 -114,-327 -114,-513 0,-229 59,-459 177,-689 117,-229 263,-402 437,-518 174,-115 344,-172 508,-172 125,0 245,32 359,98 114,65 212,166 294,299l76 -336 385 0 -312 1452c-43,202 -65,314 -65,335 0,39 15,73 45,101 29,28 65,42 107,42 76,0 177,-43 301,-131 164,-115 295,-269 391,-463 95,-194 143,-393 143,-599 0,-240 -62,-464 -185,-672 -123,-209 -307,-376 -552,-501 -244,-125 -515,-188 -811,-188 -338,0 -647,79 -926,236 -279,158 -496,384 -650,678 -154,295 -231,610 -231,948 0,352 77,655 231,910 154,255 376,443 666,565 291,122 613,182 966,182 379,0 695,-63 950,-191 255,-127 446,-282 573,-464l390 0c-74,151 -200,306 -379,463 -178,157 -391,282 -637,374 -246,91 -544,137 -890,137 -320,0 -615,-41 -886,-123 -270,-82 -500,-205 -691,-370 -190,-165 -333,-355 -430,-569 -121,-272 -181,-566 -181,-880 0,-351 72,-686 216,-1004 176,-389 426,-688 750,-895 324,-208 716,-311 1178,-311 358,0 680,73 964,219 285,146 510,364 674,653 140,249 210,519 210,812 0,417 -147,787 -440,1111 -263,291 -549,436 -860,436 -100,0 -180,-15 -241,-46 -61,-30 -106,-73 -135,-130 -19,-36 -32,-99 -41,-188zm-1049 -584c0,198 47,351 141,461 93,109 200,164 322,164 80,0 165,-24 255,-72 90,-49 175,-120 256,-216 82,-95 149,-216 200,-362 53,-146 78,-293 78,-440 0,-196 -48,-348 -146,-456 -97,-109 -216,-162 -355,-162 -92,0 -179,23 -261,70 -82,47 -160,122 -237,226 -76,103 -138,230 -184,379 -46,148 -69,284 -69,408z"/>
    <path id="8" class="fil0" d="M28927 45512l376 53c16,116 60,201 132,255 97,72 229,108 397,108 179,0 319,-36 417,-108 98,-72 164,-173 199,-302 20,-79 30,-245 28,-498 -170,201 -382,301 -636,301 -315,0 -560,-113 -733,-341 -173,-227 -260,-500 -260,-818 0,-219 40,-422 119,-607 79,-185 194,-327 345,-428 150,-101 327,-151 531,-151 271,0 494,110 670,331l0 -283 358 0 0 1984c0,358 -36,611 -109,760 -72,149 -188,267 -345,353 -158,86 -352,130 -582,130 -274,0 -494,-61 -663,-185 -169,-122 -250,-307 -244,-554zm319 -1378c0,300 60,519 179,657 120,138 270,207 450,207 179,0 329,-68 451,-206 121,-137 181,-352 181,-646 0,-280 -62,-492 -187,-634 -125,-143 -275,-213 -451,-213 -173,0 -320,70 -442,210 -121,140 -181,348 -181,625z"/>
    <path id="9" class="fil0" d="M31460 42595l0 -443 390 0 0 443 -390 0zm0 2726l0 -2297 390 0 0 2297 -390 0z"/>
    <path id="10" class="fil0" d="M33926 45321l0 -291c-145,226 -359,340 -641,340 -183,0 -352,-50 -504,-151 -154,-101 -272,-241 -357,-421 -84,-181 -126,-388 -126,-623 0,-229 38,-436 114,-623 77,-186 191,-329 344,-427 152,-100 323,-149 511,-149 139,0 262,29 369,87 108,59 196,135 264,229l0 -1140 389 0 0 3169 -363 0zm-1230 -1145c0,293 62,512 187,658 123,145 270,217 439,217 171,0 315,-69 435,-208 118,-138 178,-350 178,-635 0,-313 -60,-543 -182,-690 -121,-146 -271,-219 -448,-219 -174,0 -318,70 -435,211 -116,140 -174,363 -174,666z"/>
    <path id="11" class="fil0" d="M36388 45321l0 -291c-145,226 -359,340 -642,340 -183,0 -351,-50 -504,-151 -153,-101 -272,-241 -357,-421 -84,-181 -126,-388 -126,-623 0,-229 39,-436 115,-623 76,-186 191,-329 343,-427 152,-100 323,-149 511,-149 139,0 262,29 370,87 108,59 196,135 263,229l0 -1140 390 0 0 3169 -363 0zm-1230 -1145c0,293 62,512 186,658 124,145 271,217 440,217 170,0 315,-69 434,-208 119,-138 179,-350 179,-635 0,-313 -61,-543 -182,-690 -121,-146 -271,-219 -449,-219 -173,0 -318,70 -434,211 -116,140 -174,363 -174,666z"/>
    <path id="12" class="fil0" d="M37367 45321l0 -3169 389 0 0 1141c181,-212 409,-317 685,-317 169,0 316,33 441,100 125,67 214,159 268,277 54,118 80,290 80,514l0 1454 -389 0 0 -1452c0,-194 -42,-336 -126,-424 -84,-89 -202,-133 -355,-133 -115,0 -222,29 -323,89 -101,60 -173,141 -216,244 -43,101 -65,242 -65,422l0 1254 -389 0z"/>
    <polygon id="13" class="fil0" points="39939,45321 39939,44879 40382,44879 40382,45321 "/>
    <path id="14" class="fil0" d="M42559 44480l380 54c-42,261 -148,466 -320,614 -172,148 -383,222 -633,222 -314,0 -566,-103 -757,-308 -191,-205 -286,-498 -286,-880 0,-248 41,-464 123,-650 82,-185 207,-325 375,-417 168,-93 350,-139 547,-139 249,0 453,62 611,188 159,126 261,306 305,537l-376 58c-36,-154 -100,-270 -192,-348 -92,-78 -202,-117 -332,-117 -196,0 -356,70 -479,210 -122,141 -184,363 -184,667 0,308 60,531 178,671 118,139 272,209 462,209 154,0 281,-46 383,-140 102,-93 167,-237 195,-431z"/>
    <path id="15" class="fil0" d="M43125 44173c0,-424 118,-739 355,-943 197,-170 438,-254 722,-254 315,0 573,103 774,309 200,206 300,492 300,855 0,295 -44,527 -132,696 -89,169 -218,300 -388,394 -169,94 -354,140 -554,140 -321,0 -581,-103 -779,-308 -199,-206 -298,-503 -298,-889zm399 1c0,293 64,513 192,658 129,146 291,219 486,219 194,0 354,-73 483,-220 129,-146 193,-370 193,-670 0,-283 -65,-498 -194,-643 -129,-146 -290,-219 -482,-219 -195,0 -357,72 -486,217 -128,146 -192,365 -192,658z"/>
    <path id="16" class="fil0" d="M45733 45321l0 -2297 350 0 0 325c71,-112 167,-203 287,-271 119,-69 255,-102 408,-102 169,0 309,35 417,105 108,71 185,169 229,296 183,-268 420,-401 712,-401 229,0 405,62 528,188 123,126 185,321 185,582l0 1575 -390 0 0 -1446c0,-154 -13,-267 -38,-335 -25,-69 -71,-123 -138,-165 -66,-42 -144,-63 -234,-63 -162,0 -296,54 -403,161 -107,107 -160,279 -160,515l0 1333 -390 0 0 -1491c0,-172 -32,-302 -95,-388 -63,-87 -167,-130 -311,-130 -109,0 -211,29 -303,86 -93,58 -161,142 -203,253 -41,111 -62,271 -62,480l0 1190 -389 0z"/>
   </g>
   <polygon class="fil0" points="9896,59048 9896,55879 12034,55879 12034,56251 10317,56251 10317,57238 11804,57238 11804,57610 10317,57610 10317,59048 "/>
   <path id="1" class="fil0" d="M11986 59048l1216 -3169 461 0 1290 3169 -477 0 -367 -960 -1334 0 -344 960 -445 0zm912 -1301l1080 0 -330 -879c-100,-267 -175,-487 -228,-662 -43,207 -101,410 -174,611l-348 930z"/>
   <path id="2" class="fil0" d="M17684 58708c196,134 376,232 541,294l-125 292c-228,-82 -455,-211 -681,-388 -235,130 -494,195 -777,195 -286,0 -546,-69 -779,-207 -233,-138 -413,-333 -539,-583 -126,-251 -189,-533 -189,-847 0,-312 64,-596 191,-853 126,-256 307,-450 540,-584 234,-134 496,-201 785,-201 292,0 556,69 790,208 235,139 414,333 537,583 124,250 185,531 185,845 0,261 -40,495 -120,703 -79,208 -199,389 -359,543zm-920 -536c241,68 440,169 596,303 246,-224 369,-562 369,-1012 0,-255 -43,-479 -130,-670 -87,-192 -214,-340 -382,-446 -167,-105 -355,-158 -563,-158 -312,0 -571,107 -776,320 -206,214 -309,533 -309,957 0,411 102,726 305,947 203,220 463,330 780,330 149,0 289,-28 422,-84 -131,-85 -269,-146 -414,-182l102 -305z"/>
   <path id="3" class="fil0" d="M18525 58362l385 -62c22,154 82,272 181,355 99,82 237,123 414,123 180,0 313,-36 400,-109 86,-72 129,-158 129,-256 0,-88 -39,-157 -116,-207 -55,-35 -188,-79 -399,-132 -284,-72 -481,-134 -592,-186 -110,-53 -193,-126 -250,-219 -57,-92 -86,-194 -86,-307 0,-102 24,-197 71,-284 47,-87 110,-159 191,-217 60,-44 143,-81 247,-112 104,-31 216,-47 335,-47 180,0 338,26 474,78 137,52 237,123 302,211 64,90 109,208 133,357l-380 53c-17,-119 -68,-213 -150,-280 -83,-67 -199,-100 -351,-100 -177,0 -305,29 -381,88 -76,59 -114,129 -114,208 0,50 15,96 47,136 32,41 81,76 149,103 39,15 153,48 343,100 274,73 466,133 575,180 110,46 195,115 257,204 63,89 94,199 94,332 0,129 -38,251 -114,365 -76,115 -185,203 -327,266 -143,63 -305,94 -485,94 -298,0 -526,-62 -682,-185 -157,-124 -256,-307 -300,-550z"/>
   <path id="4" class="fil0" d="M21623 58269c-1,-52 -2,-91 -2,-116 0,-153 22,-285 65,-395 32,-84 83,-168 154,-253 51,-62 145,-152 279,-271 135,-119 222,-213 263,-284 40,-71 60,-148 60,-232 0,-152 -59,-286 -177,-401 -118,-115 -262,-172 -434,-172 -166,0 -303,52 -414,156 -112,105 -184,268 -218,490l-399 -49c36,-296 143,-523 320,-680 178,-157 413,-236 705,-236 309,0 555,84 740,253 183,169 276,373 276,613 0,139 -33,266 -98,383 -65,117 -192,259 -380,426 -127,112 -210,195 -249,248 -39,53 -68,114 -86,184 -19,68 -30,180 -33,336l-372 0zm-70 779l0 -443 442 0 0 443 -442 0z"/>
   <polygon class="fil0" points="10569,72095 10569,69462 9631,69462 9631,68926 12145,68926 12145,69462 11211,69462 11211,72095 "/>
   <path id="1" class="fil0" d="M12679 70506l-549 -97c62,-224 169,-390 320,-498 152,-108 377,-161 675,-161 270,0 472,31 605,95 132,65 226,146 280,245 54,98 81,279 81,543l-9 708c0,202 10,351 29,447 19,96 55,198 108,307l-602 0c-15,-40 -35,-99 -58,-177 -10,-36 -17,-60 -21,-71 -104,102 -214,178 -332,229 -118,51 -244,77 -377,77 -235,0 -421,-64 -557,-193 -136,-127 -204,-290 -204,-486 0,-129 31,-245 93,-347 62,-101 148,-179 261,-233 111,-53 272,-101 482,-141 283,-53 480,-104 589,-149l0 -62c0,-118 -28,-202 -86,-253 -58,-50 -167,-75 -327,-75 -109,0 -193,22 -253,65 -62,43 -110,119 -148,227zm814 492c-77,25 -200,56 -369,93 -168,36 -279,71 -331,105 -79,57 -118,128 -118,214 0,86 31,159 95,221 63,62 144,93 242,93 109,0 214,-37 313,-108 73,-55 122,-122 145,-202 15,-51 23,-150 23,-295l0 -121z"/>
   <polygon id="2" class="fil0" points="14689,72095 14689,68926 15296,68926 15296,72095 "/>
   <polygon id="3" class="fil0" points="15897,72095 15897,68926 16503,68926 16503,70607 17214,69798 17962,69798 17178,70638 18019,72095 17364,72095 16784,71059 16503,71360 16503,72095 "/>
   <path id="4" class="fil0" d="M20659 69798l0 483 -416 0 0 930c0,189 4,299 12,330 8,31 26,56 55,77 28,20 62,30 102,30 57,0 138,-19 245,-58l51 472c-141,61 -300,91 -479,91 -109,0 -207,-19 -295,-56 -88,-36 -152,-84 -192,-143 -42,-59 -70,-138 -86,-238 -13,-71 -19,-214 -19,-430l0 -1005 -279 0 0 -483 279 0 0 -456 606 -358 0 814 416 0z"/>
   <path id="5" class="fil0" d="M20943 70919c0,-202 49,-398 149,-587 99,-189 240,-333 422,-433 183,-99 385,-149 610,-149 348,0 632,112 854,338 222,227 333,511 333,856 0,349 -113,637 -336,866 -224,229 -506,343 -846,343 -210,0 -411,-48 -602,-143 -190,-95 -336,-235 -435,-419 -100,-184 -149,-408 -149,-672zm624 32c0,228 54,403 161,524 109,122 242,182 400,182 158,0 291,-60 398,-182 107,-121 161,-297 161,-528 0,-225 -54,-399 -161,-520 -107,-121 -240,-182 -398,-182 -158,0 -291,61 -400,182 -107,121 -161,296 -161,524z"/>
   <path id="6" class="fil0" d="M24854 71068l624 -62c37,209 113,362 227,460 114,98 269,147 463,147 205,0 360,-44 464,-131 104,-87 156,-189 156,-305 0,-75 -22,-139 -66,-192 -43,-52 -120,-98 -229,-136 -75,-27 -244,-73 -510,-139 -341,-86 -581,-190 -719,-315 -194,-175 -291,-388 -291,-640 0,-161 46,-313 137,-454 91,-141 223,-248 394,-322 172,-73 379,-110 622,-110 396,0 695,87 895,264 201,176 306,411 316,705l-642 22c-27,-164 -85,-281 -175,-353 -89,-71 -223,-107 -402,-107 -184,0 -329,38 -433,115 -67,49 -101,115 -101,198 0,75 32,139 95,192 81,69 276,140 587,213 310,73 540,150 688,228 149,79 266,186 350,323 84,136 126,304 126,504 0,182 -50,352 -151,511 -102,158 -244,276 -428,353 -185,77 -415,116 -690,116 -401,0 -708,-92 -923,-278 -215,-184 -342,-453 -384,-807z"/>
   <path id="7" class="fil0" d="M28421 70506l-549 -97c62,-224 169,-390 321,-498 151,-108 376,-161 674,-161 271,0 473,31 605,95 132,65 226,146 280,245 54,98 81,279 81,543l-9 708c0,202 10,351 29,447 19,96 55,198 109,307l-602 0c-16,-40 -36,-99 -59,-177 -9,-36 -17,-60 -21,-71 -103,102 -214,178 -332,229 -118,51 -244,77 -377,77 -235,0 -421,-64 -557,-193 -136,-127 -204,-290 -204,-486 0,-129 31,-245 93,-347 62,-101 149,-179 261,-233 111,-53 272,-101 482,-141 283,-53 480,-104 590,-149l0 -62c0,-118 -29,-202 -87,-253 -58,-50 -167,-75 -327,-75 -109,0 -193,22 -253,65 -62,43 -110,119 -148,227zm815 492c-78,25 -201,56 -370,93 -168,36 -279,71 -330,105 -79,57 -119,128 -119,214 0,86 32,159 95,221 63,62 144,93 242,93 109,0 214,-37 313,-108 73,-55 122,-122 145,-202 16,-51 24,-150 24,-295l0 -121z"/>
   <polygon id="8" class="fil0" points="30431,72095 30431,68926 31038,68926 31038,72095 "/>
   <path id="9" class="fil0" d="M32989 71369l606 102c-77,222 -200,391 -368,508 -168,116 -378,174 -630,174 -399,0 -695,-131 -886,-392 -151,-209 -227,-473 -227,-793 0,-380 100,-679 298,-895 199,-216 450,-323 754,-323 341,0 610,112 808,338 197,226 291,572 282,1038l-1518 0c5,180 53,320 147,420 93,101 209,151 348,151 95,0 175,-26 239,-78 65,-51 114,-135 147,-250zm35 -615c-4,-176 -49,-310 -135,-402 -87,-92 -191,-138 -315,-138 -132,0 -242,49 -328,145 -86,97 -128,229 -127,395l905 0z"/>
   <path id="10" class="fil0" d="M33906 71449l611 -93c26,117 78,207 157,267 79,61 191,92 333,92 157,0 275,-29 355,-87 53,-40 80,-95 80,-163 0,-45 -15,-84 -44,-114 -30,-29 -98,-56 -203,-80 -490,-109 -801,-208 -932,-297 -182,-125 -273,-297 -273,-518 0,-200 79,-367 236,-503 157,-136 401,-203 730,-203 315,0 548,51 701,154 153,103 258,255 316,456l-571 106c-24,-89 -72,-159 -140,-207 -69,-48 -167,-71 -295,-71 -160,0 -275,22 -346,67 -46,32 -69,73 -69,123 0,43 20,80 61,111 55,40 244,97 569,171 325,74 551,164 679,270 128,108 192,259 192,453 0,210 -88,391 -265,543 -175,151 -436,227 -781,227 -313,0 -560,-64 -743,-190 -183,-126 -302,-297 -358,-514z"/>
   <polygon id="11" class="fil1" points="9534,72095 36266,72095 36266,72297 9534,72297 "/>
   <path class="fil2" d="M103961 12592l-99965 0c-2207,6 -3993,1796 -3996,4003l0 62936c3,2207 1790,3996 3996,4003l99965 0c2207,-7 3993,-1796 3996,-4003l0 -62936c-3,-2207 -1789,-3997 -3996,-4003zm232 63518c-37,2238 -1874,4026 -4112,4003l-92262 0c-2238,23 -4075,-1765 -4112,-4003l0 -56209c37,-2238 1874,-4026 4112,-4003l92320 1c2238,-24 4075,1764 4112,4002l0 56209 -58 0z"/>
   <line class="fil3 str0" x1="6267" y1="27665" x2="97734" y2= "27259" />
   <path class="fil4" d="M6630 23333l624 -62c38,208 113,361 228,459 114,98 268,147 462,147 205,0 360,-44 464,-131 104,-87 157,-188 157,-305 0,-75 -23,-139 -66,-192 -44,-52 -120,-98 -230,-136 -74,-27 -244,-73 -509,-139 -342,-86 -582,-190 -719,-315 -194,-175 -291,-388 -291,-640 0,-161 46,-313 136,-454 92,-141 223,-248 395,-322 172,-73 378,-110 622,-110 396,0 695,88 895,264 200,176 305,411 315,705l-641 22c-28,-163 -86,-281 -175,-352 -90,-72 -224,-108 -402,-108 -185,0 -329,38 -433,115 -67,49 -101,115 -101,198 0,75 31,139 95,192 80,69 276,140 586,213 311,73 540,150 689,228 149,79 265,186 349,323 84,136 126,304 126,504 0,182 -50,352 -151,511 -101,158 -243,276 -428,353 -184,78 -414,116 -689,116 -401,0 -709,-92 -923,-277 -215,-185 -343,-454 -385,-807z"/>
   <path id="1" class="fil4" d="M11264 24359l0 -343c-84,122 -194,220 -330,292 -137,73 -280,109 -432,109 -155,0 -293,-34 -416,-102 -123,-68 -211,-164 -266,-286 -55,-123 -83,-293 -83,-510l0 -1457 607 0 0 1058c0,324 11,522 34,595 22,73 62,131 122,173 59,43 134,64 226,64 104,0 197,-29 280,-85 82,-57 138,-128 168,-213 31,-85 46,-291 46,-621l0 -971 607 0 0 2297 -563 0z"/>
   <path id="2" class="fil4" d="M12432 22062l567 0 0 337c73,-115 172,-208 298,-279 125,-71 265,-106 417,-106 267,0 493,104 679,314 186,209 279,501 279,874 0,384 -94,682 -281,895 -188,214 -415,320 -682,320 -127,0 -242,-25 -345,-76 -103,-50 -212,-137 -325,-259l0 1149 -607 0 0 -3169zm598 1113c0,259 51,450 153,574 102,123 227,185 373,185 141,0 258,-56 352,-170 93,-113 140,-299 140,-558 0,-242 -48,-421 -145,-539 -96,-117 -215,-175 -358,-175 -148,0 -271,57 -368,172 -99,115 -147,286 -147,511z"/>
   <path id="3" class="fil4" d="M15136 22062l566 0 0 337c74,-115 173,-208 298,-279 126,-71 265,-106 418,-106 266,0 492,104 678,314 186,209 279,501 279,874 0,384 -93,682 -281,895 -187,214 -414,320 -681,320 -127,0 -242,-25 -346,-76 -102,-50 -211,-137 -325,-259l0 1149 -606 0 0 -3169zm597 1113c0,259 51,450 154,574 101,123 226,185 372,185 141,0 258,-56 352,-170 94,-113 140,-299 140,-558 0,-242 -48,-421 -144,-539 -96,-117 -216,-175 -358,-175 -149,0 -272,57 -369,172 -98,115 -147,286 -147,511z"/>
   <path id="4" class="fil4" d="M17715 23183c0,-202 50,-398 149,-587 100,-189 241,-333 423,-433 182,-99 385,-149 610,-149 347,0 631,112 853,338 223,227 333,511 333,857 0,348 -112,636 -335,865 -225,229 -507,343 -847,343 -210,0 -410,-48 -602,-143 -190,-95 -335,-235 -435,-419 -99,-184 -149,-408 -149,-672zm624 32c0,228 54,403 162,524 108,122 241,182 400,182 158,0 290,-60 397,-182 107,-121 161,-297 161,-528 0,-225 -54,-398 -161,-519 -107,-122 -239,-183 -397,-183 -159,0 -292,61 -400,183 -108,121 -162,295 -162,523z"/>
   <path id="5" class="fil4" d="M21140 24359l-606 0 0 -2297 562 0 0 326c97,-154 184,-255 261,-303 78,-48 165,-71 264,-71 138,0 272,38 400,114l-188 530c-103,-67 -198,-100 -286,-100 -85,0 -157,24 -216,70 -59,47 -106,131 -140,254 -34,122 -51,379 -51,769l0 708z"/>
   <path id="6" class="fil4" d="M23332 22062l0 483 -416 0 0 930c0,189 4,299 12,330 8,31 25,57 54,77 28,20 62,30 103,30 57,0 138,-19 245,-58l51 472c-141,61 -301,91 -479,91 -109,0 -207,-18 -295,-55 -88,-37 -152,-85 -193,-144 -41,-59 -69,-137 -85,-238 -13,-71 -19,-214 -19,-430l0 -1005 -279 0 0 -483 279 0 0 -456 606 -358 0 814 416 0z"/>
   <ellipse class="fil2" cx="105539" cy="12847" rx="12827" ry="12847"/>
   <g>
    <g>
     <path class="fil5" d="M105540 5450c-2608,0 -4722,2114 -4722,4721l0 1574 -156 0c-1129,1 -2045,916 -2047,2045l0 1260c2,1129 917,2044 2046,2045l1574 0c256,-10 462,-215 472,-472l0 -4407c-10,-256 -216,-461 -472,-471l-473 0 0 -1574c0,-2086 1691,-3777 3777,-3778 2086,0 3778,1691 3778,3777 0,0 0,1 0,1l0 1574 -473 0c-254,14 -457,217 -472,471l0 4407c10,257 216,463 472,472l394 0c-109,318 -315,593 -588,788 -575,394 -1254,610 -1951,618 -268,-640 -1005,-942 -1645,-674 -640,268 -942,1004 -674,1645 268,640 1004,942 1644,674 314,-131 561,-384 685,-700 903,-9 1781,-293 2518,-813 504,-376 855,-922 987,-1538l204 0c1129,-1 2044,-916 2046,-2045l0 -1260c-2,-1129 -917,-2044 -2046,-2045l-156 0 0 -1574c0,-2608 -2114,-4721 -4722,-4721 0,0 0,0 0,0z"/>
    </g>
   </g>
  </g>
 </g>
</svg>
