<?xml version="1.0" encoding="UTF-8"?>
<!DOCTYPE svg PUBLIC "-//W3C//DTD SVG 1.1//EN" "http://www.w3.org/Graphics/SVG/1.1/DTD/svg11.dtd">
<!-- Creator: CorelDRAW X8 -->
<svg xmlns="http://www.w3.org/2000/svg" xml:space="preserve" width="4.26099in" height="3in" version="1.1" style="shape-rendering:geometricPrecision; text-rendering:geometricPrecision; image-rendering:optimizeQuality; fill-rule:evenodd; clip-rule:evenodd"
viewBox="0 0 3031 2134"
 xmlns:xlink="http://www.w3.org/1999/xlink">
 <defs>
  <style type="text/css">
   <![CDATA[
    .str0 {stroke:#A9ABAE;stroke-width:7.0577}
    .str1 {stroke:#1A237E;stroke-width:4.70691}
    .fil2 {fill:none}
    .fil6 {fill:#FEFEFE}
    .fil0 {fill:#1A237E}
    .fil3 {fill:#E8E8E8}
    .fil4 {fill:#606062;fill-rule:nonzero}
    .fil5 {fill:#373435;fill-rule:nonzero}
    .fil1 {fill:#1A237E;fill-rule:nonzero}
   ]]>
  </style>
 </defs>
 <g id="Layer_x0020_1">
  <metadata id="CorelCorpID_0Corel-Layer"/>
  <g id="_2490682352640">
   <path class="fil0" d="M2672 319l-2569 0c-57,1 -103,46 -103,103l0 1609c0,57 46,103 103,103l2569 0c57,0 103,-46 103,-103l0 -1609c0,-57 -46,-102 -103,-103zm6 1625c-1,57 -48,103 -105,102l-2372 0c-58,1 -105,-45 -106,-102l0 -1438c1,-57 48,-103 106,-102l2373 0c58,-1 105,45 106,102l0 1438 -2 0z"/>
   <polygon class="fil1" points="183,622 183,541 199,541 199,622 "/>
   <path id="1" class="fil1" d="M268 622l-15 0 0 -30c0,-7 -1,-11 -1,-12 -1,-2 -2,-4 -4,-5 -1,-1 -3,-1 -5,-1 -3,0 -5,0 -7,2 -3,1 -4,3 -5,6 -1,2 -1,7 -1,13l0 27 -16 0 0 -59 15 0 0 9c5,-7 11,-10 19,-10 4,0 7,0 10,2 3,1 5,2 6,4 2,2 3,4 3,7 1,2 1,6 1,10l0 37z"/>
   <path id="2" class="fil1" d="M300 622l-24 -59 16 0 12 30 3 10c1,-3 1,-4 1,-5 1,-2 1,-3 2,-5l11 -30 16 0 -23 59 -14 0z"/>
   <path id="3" class="fil1" d="M380 603l16 3c-2,5 -5,10 -9,13 -5,3 -10,4 -17,4 -10,0 -17,-3 -22,-10 -4,-5 -6,-12 -6,-20 0,-10 3,-17 8,-23 5,-5 11,-8 19,-8 9,0 15,3 20,8 6,6 8,15 8,27l-39 0c0,5 1,8 4,11 2,2 5,4 9,4 2,0 4,-1 6,-2 1,-2 3,-4 3,-7zm1 -16c0,-4 -1,-7 -3,-10 -2,-2 -5,-3 -8,-3 -4,0 -6,1 -9,3 -2,3 -3,6 -3,10l23 0z"/>
   <path id="4" class="fil1" d="M463 622l-16 0 0 -30c0,-7 0,-11 -1,-12 0,-2 -2,-4 -3,-5 -2,-1 -3,-1 -5,-1 -3,0 -6,0 -8,2 -2,1 -3,3 -4,6 -1,2 -1,7 -1,13l0 27 -16 0 0 -59 14 0 0 9c6,-7 12,-10 20,-10 3,0 6,0 9,2 3,1 5,2 7,4 1,2 2,4 3,7 0,2 1,6 1,10l0 37z"/>
   <path id="5" class="fil1" d="M505 563l0 12 -10 0 0 24c0,5 0,8 0,9 0,0 0,1 1,1 1,1 2,1 3,1 1,0 3,0 6,-1l1 12c-3,1 -7,2 -12,2 -3,0 -5,0 -7,-1 -3,-1 -4,-2 -5,-4 -1,-1 -2,-3 -2,-6 -1,-2 -1,-5 -1,-11l0 -26 -7 0 0 -12 7 0 0 -12 16 -9 0 21 10 0z"/>
   <path id="6" class="fil1" d="M512 592c0,-6 2,-10 4,-15 3,-5 6,-9 11,-11 5,-3 10,-4 16,-4 8,0 16,3 21,8 6,6 9,13 9,22 0,9 -3,17 -9,22 -5,6 -13,9 -21,9 -6,0 -11,-1 -16,-4 -5,-2 -8,-5 -11,-10 -2,-5 -4,-11 -4,-17zm16 0c0,6 2,11 4,14 3,3 7,4 11,4 4,0 7,-1 10,-4 2,-3 4,-8 4,-14 0,-5 -2,-10 -4,-13 -3,-3 -6,-5 -10,-5 -4,0 -8,2 -11,5 -2,3 -4,8 -4,13z"/>
   <path id="7" class="fil1" d="M600 622l-16 0 0 -59 15 0 0 8c2,-4 4,-6 6,-7 2,-2 5,-2 7,-2 4,0 7,1 10,3l-5 13c-2,-1 -5,-2 -7,-2 -2,0 -4,0 -5,1 -2,2 -3,4 -4,7 -1,3 -1,10 -1,20l0 18z"/>
   <path id="8" class="fil1" d="M621 563l17 0 14 42 14 -42 16 0 -21 56 -4 11c-1,3 -2,6 -4,7 -1,2 -2,4 -4,5 -1,1 -3,2 -6,2 -2,1 -5,1 -8,1 -3,0 -6,0 -8,-1l-2 -12c3,1 5,1 7,1 3,0 6,-1 8,-3 2,-2 3,-5 4,-8l-23 -59z"/>
   <path id="9" class="fil1" d="M723 622l0 -81 35 0c8,0 15,1 18,2 4,1 8,4 10,8 2,3 3,8 3,12 0,7 -1,12 -5,16 -3,3 -9,6 -16,7 4,2 7,4 9,7 2,2 5,7 9,13l10 16 -20 0 -11 -18c-4,-6 -7,-10 -9,-12 -1,-1 -3,-3 -5,-3 -2,-1 -4,-1 -8,-1l-3 0 0 34 -17 0zm17 -47l12 0c8,0 12,0 14,-1 2,-1 4,-2 5,-3 1,-2 2,-4 2,-6 0,-3 -1,-5 -3,-7 -1,-2 -3,-3 -6,-3 -1,0 -5,-1 -12,-1l-12 0 0 21z"/>
   <path id="10" class="fil1" d="M839 603l15 3c-2,5 -5,10 -9,13 -5,3 -10,4 -16,4 -11,0 -18,-3 -23,-10 -4,-5 -6,-12 -6,-20 0,-10 3,-17 8,-23 5,-5 11,-8 19,-8 9,0 16,3 21,8 5,6 7,15 7,27l-39 0c0,5 1,8 4,11 2,2 5,4 9,4 2,0 4,-1 6,-2 2,-2 3,-4 4,-7zm1 -16c-1,-4 -2,-7 -4,-10 -2,-2 -5,-3 -8,-3 -3,0 -6,1 -8,3 -3,3 -4,6 -4,10l24 0z"/>
   <path id="11" class="fil1" d="M867 563l15 0 0 9c1,-3 4,-6 7,-7 3,-2 7,-3 11,-3 7,0 12,2 17,8 5,5 7,13 7,22 0,10 -2,18 -7,23 -5,5 -11,8 -17,8 -4,0 -7,0 -9,-2 -3,-1 -6,-3 -8,-6l0 29 -16 0 0 -81zm15 28c0,7 2,12 4,15 3,3 6,5 10,5 3,0 6,-2 9,-5 2,-2 3,-7 3,-14 0,-6 -1,-11 -3,-14 -3,-3 -6,-4 -10,-4 -3,0 -6,1 -9,4 -2,3 -4,8 -4,13z"/>
   <path id="12" class="fil1" d="M933 592c0,-6 1,-10 4,-15 2,-5 6,-9 11,-11 4,-3 9,-4 15,-4 9,0 16,3 22,8 6,6 8,13 8,22 0,9 -3,17 -8,22 -6,6 -13,9 -22,9 -5,0 -10,-1 -15,-4 -5,-2 -9,-5 -11,-10 -3,-5 -4,-11 -4,-17zm16 0c0,6 1,11 4,14 3,3 6,4 10,4 4,0 8,-1 10,-4 3,-3 4,-8 4,-14 0,-5 -1,-10 -4,-13 -2,-3 -6,-5 -10,-5 -4,0 -7,2 -10,5 -3,3 -4,8 -4,13z"/>
   <path id="13" class="fil1" d="M1020 622l-15 0 0 -59 14 0 0 8c3,-4 5,-6 7,-7 2,-2 4,-2 7,-2 3,0 7,1 10,3l-5 13c-3,-1 -5,-2 -7,-2 -2,0 -4,0 -6,1 -1,2 -3,4 -3,7 -1,3 -2,10 -2,20l0 18z"/>
   <path id="14" class="fil1" d="M1076 563l0 12 -10 0 0 24c0,5 0,8 0,9 0,0 1,1 1,1 1,1 2,1 3,1 1,0 3,0 6,-1l2 12c-4,1 -8,2 -13,2 -3,0 -5,0 -7,-1 -2,-1 -4,-2 -5,-4 -1,-1 -2,-3 -2,-6 -1,-2 -1,-5 -1,-11l0 -26 -7 0 0 -12 7 0 0 -12 16 -9 0 21 10 0z"/>
   <rect class="fil2 str0" x="177" y="824" width="572" height="190" rx="15" ry="21"/>
   <rect class="fil2 str0" x="775" y="824" width="572" height="190" rx="15" ry="21"/>
   <rect class="fil3" x="1373" y="824" width="572" height="190" rx="15" ry="21"/>
   <rect class="fil3" x="170" y="1090" width="2418" height="144"/>
   <path class="fil4" d="M225 1188l-21 -54 8 0 14 39c1,4 2,6 2,9 1,-3 2,-6 3,-9l15 -39 7 0 -21 54 -7 0z"/>
   <path id="1" class="fil4" d="M252 1169c0,-8 2,-13 6,-16 3,-3 8,-5 12,-5 6,0 10,2 14,5 3,4 5,9 5,15 0,5 -1,9 -3,12 -1,3 -3,5 -6,7 -3,1 -6,2 -10,2 -5,0 -10,-2 -13,-5 -3,-4 -5,-9 -5,-15zm7 0c0,5 1,8 3,11 2,2 5,4 8,4 4,0 6,-2 9,-4 2,-3 3,-7 3,-12 0,-4 -1,-8 -3,-11 -3,-2 -5,-3 -9,-3 -3,0 -6,1 -8,3 -2,3 -3,7 -3,12z"/>
   <path id="2" class="fil4" d="M322 1188l0 -6c-3,5 -7,7 -12,7 -3,0 -5,-1 -7,-1 -2,-1 -3,-2 -4,-4 -1,-1 -2,-3 -2,-5 -1,-1 -1,-3 -1,-6l0 -24 7 0 0 22c0,3 0,5 0,7 1,1 2,3 3,4 1,1 3,1 5,1 2,0 4,0 6,-1 1,-1 2,-3 3,-4 1,-2 1,-5 1,-8l0 -21 7 0 0 39 -6 0z"/>
   <path id="3" class="fil4" d="M364 1174l6 1c0,4 -2,8 -5,10 -3,3 -7,4 -11,4 -5,0 -10,-2 -13,-5 -3,-4 -5,-9 -5,-15 0,-5 1,-8 2,-11 2,-3 4,-6 7,-7 3,-2 6,-3 9,-3 4,0 8,1 11,3 2,3 4,6 5,10l-7 1c0,-3 -1,-5 -3,-6 -2,-2 -3,-2 -6,-2 -3,0 -6,1 -8,3 -2,3 -3,6 -3,12 0,5 1,9 3,11 2,2 5,4 8,4 3,0 5,-1 7,-3 1,-1 2,-4 3,-7z"/>
   <path id="4" class="fil4" d="M376 1188l0 -54 7 0 0 20c3,-4 7,-6 11,-6 3,0 6,1 8,2 2,1 3,3 4,5 1,2 2,5 2,8l0 25 -7 0 0 -25c0,-3 -1,-5 -2,-7 -2,-1 -4,-2 -6,-2 -2,0 -4,0 -6,1 -1,1 -3,3 -3,5 -1,1 -1,4 -1,7l0 21 -7 0z"/>
   <path id="5" class="fil4" d="M444 1175l7 1c-1,4 -3,7 -6,10 -3,2 -6,3 -11,3 -5,0 -10,-2 -13,-5 -4,-4 -5,-9 -5,-15 0,-7 1,-12 5,-15 3,-4 7,-6 13,-6 5,0 9,2 13,6 3,3 5,8 5,15 0,0 0,0 0,1l-30 0c1,5 2,8 4,10 2,2 5,4 8,4 3,0 5,-1 6,-2 2,-2 3,-4 4,-7zm-21 -10l22 0c-1,-3 -2,-6 -3,-8 -2,-2 -5,-3 -8,-3 -3,0 -6,1 -8,3 -2,2 -3,4 -3,8z"/>
   <path id="6" class="fil4" d="M460 1188l0 -39 6 0 0 6c1,-3 3,-5 4,-5 1,-1 3,-2 4,-2 2,0 5,1 7,2l-2 6c-2,-1 -4,-1 -5,-1 -2,0 -3,0 -4,1 -1,1 -2,2 -3,4 0,2 -1,5 -1,8l0 20 -6 0z"/>
   <polygon id="7" class="fil4" points="519,1188 519,1141 501,1141 501,1134 544,1134 544,1141 526,1141 526,1188 "/>
   <path id="8" class="fil4" d="M546 1203l-1 -6c2,0 3,1 4,1 1,0 3,-1 3,-1 1,-1 2,-1 3,-2 0,-1 1,-3 2,-5 0,-1 0,-1 0,-2l-15 -39 8 0 8 23c1,2 2,5 3,9 0,-3 1,-6 2,-9l9 -23 6 0 -15 40c-1,4 -2,7 -3,9 -1,2 -3,3 -4,4 -2,1 -4,2 -6,2 -1,0 -3,0 -4,-1z"/>
   <path id="9" class="fil4" d="M584 1203l0 -54 6 0 0 5c1,-2 3,-3 5,-4 1,-1 4,-2 6,-2 4,0 6,1 9,3 3,1 4,4 6,7 1,3 2,7 2,10 0,4 -1,8 -2,11 -2,3 -4,6 -7,7 -2,2 -5,3 -8,3 -2,0 -4,-1 -6,-1 -2,-1 -3,-3 -5,-4l0 19 -6 0zm6 -34c0,5 1,9 3,11 2,2 4,4 7,4 3,0 6,-2 8,-4 2,-3 3,-7 3,-12 0,-5 -1,-8 -3,-11 -2,-2 -5,-4 -7,-4 -3,0 -6,2 -8,4 -2,3 -3,7 -3,12z"/>
   <path id="10" class="fil4" d="M652 1175l7 1c-1,4 -3,7 -6,10 -3,2 -6,3 -11,3 -6,0 -10,-2 -13,-5 -4,-4 -5,-9 -5,-15 0,-7 1,-12 5,-15 3,-4 7,-6 13,-6 5,0 9,2 13,6 3,3 4,8 4,15 0,0 0,0 0,1l-29 0c1,5 2,8 4,10 2,2 5,4 8,4 3,0 5,-1 6,-2 2,-2 3,-4 4,-7zm-21 -10l21 0c0,-3 -1,-6 -2,-8 -2,-2 -5,-3 -8,-3 -3,0 -6,1 -8,3 -2,2 -3,4 -3,8z"/>
   <polygon class="fil4" points="1183,1189 1183,1136 1190,1136 1190,1189 "/>
   <path id="1" class="fil4" d="M1202 1189l0 -39 6 0 0 6c3,-4 7,-6 12,-6 3,0 5,0 7,1 2,1 3,2 4,3 1,1 2,3 2,5 1,1 1,3 1,6l0 24 -7 0 0 -23c0,-3 0,-5 -1,-6 0,-2 -1,-3 -2,-4 -2,0 -3,-1 -5,-1 -3,0 -5,1 -7,3 -2,2 -3,5 -3,10l0 21 -7 0z"/>
   <path id="2" class="fil4" d="M1251 1189l-12 -39 7 0 6 23 2 8c1,0 1,-3 2,-8l7 -23 6 0 6 23 2 7 3 -7 6 -23 7 0 -13 39 -6 0 -7 -23 -1 -7 -8 30 -7 0z"/>
   <path id="3" class="fil4" d="M1324 1185c-3,2 -5,3 -7,4 -3,1 -5,1 -8,1 -4,0 -7,-1 -10,-3 -2,-2 -3,-5 -3,-8 0,-2 0,-4 1,-5 1,-2 2,-3 4,-4 1,-1 3,-2 4,-2 2,0 4,-1 6,-1 6,-1 10,-1 12,-2 0,-1 0,-2 0,-2 0,-3 0,-5 -2,-6 -1,-1 -4,-2 -7,-2 -3,0 -6,1 -7,2 -2,1 -3,3 -3,5l-7 0c1,-3 2,-5 3,-7 1,-2 3,-3 6,-4 2,-1 5,-1 9,-1 3,0 6,0 8,1 2,0 4,1 5,3 1,1 1,2 2,4 0,1 0,3 0,6l0 9c0,6 0,10 0,12 1,1 1,3 2,4l-7 0c-1,-1 -1,-3 -1,-4zm-1 -15c-2,1 -6,2 -11,2 -2,1 -4,1 -5,2 -2,0 -2,1 -3,2 -1,1 -1,2 -1,3 0,2 1,3 2,4 1,1 3,2 6,2 2,0 5,0 7,-2 2,-1 3,-2 4,-4 1,-2 1,-4 1,-7l0 -2z"/>
   <path id="4" class="fil4" d="M1340 1189l0 -39 6 0 0 6c2,-2 3,-4 4,-5 2,-1 3,-1 4,-1 3,0 5,0 7,2l-2 6c-2,-1 -3,-2 -5,-2 -1,0 -3,1 -4,2 -1,1 -2,2 -2,3 -1,3 -1,5 -1,8l0 20 -7 0z"/>
   <path id="5" class="fil4" d="M1390 1189l0 -5c-2,4 -6,6 -10,6 -4,0 -6,-1 -9,-2 -3,-2 -5,-4 -6,-7 -2,-4 -2,-7 -2,-11 0,-4 0,-7 2,-11 1,-3 3,-5 6,-7 2,-2 5,-2 8,-2 3,0 5,0 6,1 2,1 4,2 5,4l0 -19 7 0 0 53 -7 0zm-21 -19c0,5 2,9 4,11 2,3 4,4 7,4 3,0 6,-1 8,-4 2,-2 3,-6 3,-11 0,-5 -1,-9 -4,-11 -2,-3 -4,-4 -7,-4 -3,0 -6,1 -8,4 -2,2 -3,6 -3,11z"/>
   <path class="fil4" d="M1758 1162c0,-8 3,-15 7,-21 5,-5 11,-7 19,-7 5,0 10,1 14,3 4,3 7,6 9,10 2,5 3,9 3,15 0,5 -1,10 -4,15 -2,4 -5,7 -9,9 -4,3 -8,4 -13,4 -5,0 -10,-2 -14,-4 -4,-2 -7,-6 -9,-10 -2,-4 -3,-9 -3,-14zm8 1c0,6 1,11 5,15 3,4 8,6 13,6 5,0 10,-2 13,-6 4,-4 5,-9 5,-16 0,-5 0,-8 -2,-12 -1,-3 -3,-5 -6,-7 -3,-2 -6,-3 -10,-3 -5,0 -9,2 -13,5 -4,4 -5,10 -5,18z"/>
   <path id="1" class="fil4" d="M1844 1189l0 -6c-3,4 -7,7 -13,7 -2,0 -4,-1 -6,-2 -2,-1 -4,-2 -5,-3 -1,-1 -1,-3 -2,-5 0,-1 0,-3 0,-6l0 -24 7 0 0 21c0,4 0,6 0,7 0,2 1,3 3,4 1,1 3,2 5,2 2,0 4,-1 5,-2 2,-1 3,-2 4,-4 1,-2 1,-4 1,-7l0 -21 7 0 0 39 -6 0z"/>
   <path id="2" class="fil4" d="M1874 1183l1 6c-2,0 -3,0 -5,0 -2,0 -4,0 -5,-1 -2,-1 -2,-2 -3,-3 -1,-1 -1,-4 -1,-8l0 -22 -5 0 0 -5 5 0 0 -10 7 -4 0 14 6 0 0 5 -6 0 0 23c0,2 0,3 0,3 0,1 1,1 1,2 1,0 2,0 3,0 0,0 1,0 2,0z"/>
   <path id="3" class="fil4" d="M1888 1189l-12 -39 7 0 6 22 3 9c0,-1 0,-4 2,-8l6 -23 7 0 5 22 2 8 3 -8 6 -22 7 0 -12 39 -7 0 -7 -24 -1 -6 -8 30 -7 0z"/>
   <path id="4" class="fil4" d="M1961 1184c-3,2 -5,3 -7,4 -3,1 -5,2 -8,2 -4,0 -7,-1 -9,-4 -3,-2 -4,-4 -4,-8 0,-1 1,-3 1,-5 1,-1 2,-3 4,-4 1,-1 3,-1 5,-2 1,0 3,0 5,-1 6,0 10,-1 12,-2 0,-1 0,-2 0,-2 0,-2 0,-4 -2,-5 -1,-2 -4,-3 -7,-3 -3,0 -6,1 -7,2 -1,1 -3,3 -3,6l-7 -1c1,-3 2,-5 3,-7 1,-2 3,-3 6,-4 3,-1 6,-1 9,-1 3,0 6,0 8,1 2,1 4,2 5,3 1,1 1,3 2,4 0,2 0,4 0,7l0 8c0,6 0,10 0,12 1,2 1,3 2,5l-7 0c-1,-2 -1,-3 -1,-5zm-1 -15c-2,1 -6,2 -10,3 -3,0 -5,0 -6,1 -1,0 -2,1 -3,2 -1,1 -1,2 -1,3 0,2 1,3 2,5 2,1 3,1 6,1 3,0 5,0 7,-1 2,-1 3,-3 4,-5 1,-1 1,-4 1,-6l0 -3z"/>
   <path id="5" class="fil4" d="M1977 1189l0 -39 6 0 0 6c2,-3 3,-5 4,-6 2,-1 3,-1 5,-1 2,0 4,1 6,2l-2 6c-2,-1 -3,-1 -5,-1 -1,0 -3,0 -4,1 -1,1 -2,2 -2,4 -1,2 -1,5 -1,7l0 21 -7 0z"/>
   <path id="6" class="fil4" d="M2028 1189l0 -5c-3,4 -7,6 -11,6 -4,0 -6,-1 -9,-3 -3,-2 -5,-4 -6,-7 -1,-3 -2,-7 -2,-11 0,-4 0,-7 2,-10 1,-4 3,-6 6,-8 2,-1 5,-2 8,-2 3,0 5,0 7,1 1,1 3,3 4,4l0 -19 7 0 0 54 -6 0zm-21 -20c0,5 1,9 3,11 2,3 4,4 7,4 3,0 6,-1 8,-3 2,-3 3,-6 3,-11 0,-6 -1,-9 -3,-12 -2,-2 -5,-4 -8,-4 -3,0 -5,2 -7,4 -2,2 -3,6 -3,11z"/>
   <path class="fil4" d="M2318 1171l7 1c-1,6 -4,11 -8,14 -3,3 -8,4 -14,4 -6,0 -10,-1 -14,-3 -4,-3 -6,-6 -8,-10 -2,-5 -3,-10 -3,-15 0,-6 1,-10 3,-15 2,-4 5,-7 9,-9 4,-2 9,-3 13,-3 6,0 10,1 14,4 4,2 6,6 8,11l-7 2c-2,-4 -4,-7 -6,-9 -2,-1 -5,-2 -9,-2 -4,0 -7,1 -10,3 -3,2 -5,4 -6,8 -1,3 -2,6 -2,10 0,5 1,9 2,12 2,3 4,6 6,8 3,1 6,2 10,2 4,0 7,-1 10,-3 2,-3 4,-6 5,-10z"/>
   <polygon id="1" class="fil4" points="2333,1189 2333,1136 2340,1136 2340,1189 "/>
   <path id="2" class="fil4" d="M2348 1170c0,-7 2,-13 6,-16 3,-3 7,-4 12,-4 5,0 10,1 13,5 4,3 5,8 5,14 0,5 0,9 -2,12 -1,3 -4,5 -7,7 -2,1 -6,2 -9,2 -5,0 -10,-1 -13,-5 -4,-3 -5,-9 -5,-15zm6 0c0,5 2,9 4,11 2,3 5,4 8,4 3,0 6,-1 8,-4 2,-2 4,-6 4,-11 0,-5 -2,-9 -4,-11 -2,-3 -5,-4 -8,-4 -3,0 -6,1 -8,4 -2,2 -4,6 -4,11z"/>
   <polygon id="3" class="fil4" points="2394,1189 2394,1182 2401,1182 2401,1189 "/>
   <path id="4" class="fil4" d="M2414 1189l0 -53 20 0c4,0 7,0 10,1 2,1 4,3 6,5 1,2 2,5 2,7 0,3 -1,5 -2,7 -1,2 -3,3 -6,5 3,1 6,2 8,5 1,2 2,5 2,8 0,2 0,5 -1,7 -1,2 -3,4 -4,5 -2,1 -4,2 -6,3 -3,0 -5,0 -9,0l-20 0zm7 -31l11 0c3,0 6,0 7,0 2,-1 3,-2 4,-3 1,-1 2,-3 2,-5 0,-2 -1,-3 -2,-5 -1,-1 -2,-2 -3,-2 -2,-1 -5,-1 -9,-1l-10 0 0 16zm0 25l13 0c2,0 4,0 5,0 2,0 3,-1 4,-2 1,0 2,-1 3,-3 1,-1 1,-2 1,-4 0,-2 -1,-4 -2,-5 -1,-2 -2,-3 -4,-4 -2,0 -4,0 -8,0l-12 0 0 18z"/>
   <path id="5" class="fil4" d="M2489 1185c-3,2 -5,3 -7,4 -3,1 -5,1 -8,1 -4,0 -7,-1 -10,-3 -2,-2 -3,-5 -3,-8 0,-2 0,-4 1,-5 1,-2 2,-3 4,-4 1,-1 3,-2 4,-2 2,0 4,-1 6,-1 6,-1 10,-1 12,-2 0,-1 0,-2 0,-2 0,-3 0,-5 -2,-6 -1,-1 -4,-2 -7,-2 -3,0 -6,1 -7,2 -2,1 -3,3 -3,5l-7 0c1,-3 2,-5 3,-7 1,-2 3,-3 6,-4 2,-1 5,-1 9,-1 3,0 6,0 8,1 2,0 4,1 5,3 1,1 1,2 2,4 0,1 0,3 0,6l0 9c0,6 0,10 0,12 1,1 1,3 2,4l-7 0c-1,-1 -1,-3 -1,-4zm-1 -15c-2,1 -6,2 -11,2 -2,1 -4,1 -5,2 -2,0 -2,1 -3,2 -1,1 -1,2 -1,3 0,2 1,3 2,4 1,1 3,2 6,2 2,0 5,0 7,-2 2,-1 3,-2 4,-4 1,-2 1,-4 1,-7l0 -2z"/>
   <polygon id="6" class="fil4" points="2505,1189 2505,1136 2512,1136 2512,1189 "/>
   <polygon id="7" class="fil4" points="2524,1189 2524,1182 2531,1182 2531,1189 "/>
   <path class="fil1" d="M2269 998l0 -8 7 0 0 8 -7 0zm0 52l0 -44 7 0 0 44 -7 0z"/>
   <path id="1" class="fil1" d="M2288 1050l0 -44 6 0 0 6c4,-4 8,-7 14,-7 3,0 5,1 8,2 2,1 3,2 5,3 1,2 1,4 2,6 0,1 0,4 0,7l0 27 -7 0 0 -27c0,-3 0,-5 -1,-6 -1,-2 -2,-3 -3,-4 -2,-1 -3,-1 -5,-1 -3,0 -6,1 -9,3 -2,2 -3,6 -3,11l0 24 -7 0z"/>
   <path id="2" class="fil1" d="M2399 990l8 0 0 35c0,6 -1,10 -2,14 -1,4 -4,7 -8,9 -3,2 -8,3 -14,3 -5,0 -10,-1 -14,-3 -3,-2 -6,-5 -7,-8 -2,-4 -3,-9 -3,-15l0 -35 8 0 0 35c0,5 1,9 2,11 1,3 3,5 5,6 2,1 5,2 9,2 5,0 10,-1 12,-4 3,-3 4,-8 4,-15l0 -35z"/>
   <path id="3" class="fil1" d="M2418 1031l7 -1c1,3 1,6 3,8 1,1 3,3 6,4 3,1 6,2 9,2 3,0 6,0 8,-1 3,-1 4,-2 6,-4 1,-2 1,-3 1,-5 0,-2 0,-4 -1,-5 -2,-2 -3,-3 -6,-4 -2,0 -5,-1 -11,-3 -5,-1 -9,-2 -11,-4 -3,-1 -5,-3 -7,-5 -1,-2 -2,-5 -2,-8 0,-3 1,-6 3,-8 1,-3 4,-5 7,-6 4,-2 7,-2 11,-2 5,0 9,0 12,2 4,1 6,3 8,6 2,3 3,6 3,10l-8 0c0,-4 -1,-6 -4,-8 -2,-2 -6,-3 -10,-3 -5,0 -9,1 -11,2 -2,2 -3,4 -3,7 0,2 1,4 2,5 2,2 6,3 12,4 7,2 11,3 14,4 3,2 6,4 7,6 2,3 3,6 3,9 0,3 -1,6 -3,9 -2,3 -4,5 -8,7 -3,1 -7,2 -11,2 -6,0 -11,-1 -14,-2 -4,-2 -7,-4 -9,-7 -2,-4 -3,-7 -3,-11z"/>
   <path id="4" class="fil1" d="M2477 1050l0 -60 21 0c4,0 8,0 11,0 3,1 6,3 8,5 4,2 6,6 8,10 1,4 2,9 2,15 0,4 -1,8 -2,12 -1,3 -2,6 -4,9 -1,2 -3,4 -5,5 -2,1 -5,2 -7,3 -3,1 -7,1 -10,1l-22 0zm8 -7l13 0c4,0 7,0 9,-1 3,-1 4,-2 6,-3 2,-2 3,-5 4,-8 1,-3 2,-7 2,-12 0,-6 -1,-11 -3,-14 -2,-4 -5,-6 -8,-7 -2,-1 -6,-1 -10,-1l-13 0 0 46z"/>
   <path class="fil4" d="M209 1367l7 -1c0,3 1,5 2,7 1,1 3,3 6,4 2,1 5,1 8,1 3,0 5,0 7,-1 2,-1 4,-2 5,-3 1,-2 1,-3 1,-5 0,-1 0,-3 -1,-4 -1,-1 -3,-2 -5,-3 -1,-1 -5,-2 -10,-3 -5,-1 -8,-2 -10,-3 -3,-2 -5,-3 -6,-5 -1,-2 -2,-5 -2,-7 0,-3 1,-5 3,-8 1,-2 3,-4 6,-5 3,-1 7,-2 10,-2 4,0 8,1 11,2 3,1 5,3 7,6 2,2 2,5 3,8l-7 1c-1,-4 -2,-6 -4,-8 -2,-2 -5,-3 -9,-3 -5,0 -8,1 -10,3 -2,1 -3,3 -3,6 0,1 1,3 2,4 2,2 5,3 11,4 6,1 10,3 12,4 3,1 5,3 7,5 1,2 2,5 2,8 0,3 -1,5 -2,8 -2,2 -4,4 -7,6 -3,1 -7,2 -11,2 -5,0 -9,-1 -12,-2 -3,-2 -6,-4 -8,-7 -2,-3 -3,-6 -3,-9z"/>
   <path id="1" class="fil4" d="M287 1379c-3,2 -5,4 -8,4 -2,1 -4,2 -7,2 -4,0 -7,-1 -10,-3 -2,-2 -3,-5 -3,-8 0,-2 0,-4 1,-6 1,-1 2,-2 4,-3 1,-1 3,-2 4,-3 2,0 4,0 6,-1 6,0 9,-1 12,-2 0,-1 0,-1 0,-2 0,-2 -1,-4 -2,-5 -2,-2 -4,-3 -7,-3 -4,0 -6,1 -7,2 -2,1 -3,3 -4,6l-6 -1c0,-3 1,-5 3,-7 1,-1 3,-3 6,-4 2,-1 5,-1 9,-1 3,0 6,0 8,1 2,1 3,2 4,3 1,1 2,3 2,5 1,1 1,3 1,6l0 9c0,6 0,10 0,11 0,2 1,3 2,5l-7 0c-1,-1 -1,-3 -1,-5zm-1 -15c-2,1 -6,2 -11,3 -3,0 -4,1 -6,1 -1,1 -2,1 -2,2 -1,1 -1,2 -1,3 0,2 1,4 2,5 1,1 3,2 6,2 2,0 5,-1 7,-2 2,-1 3,-3 4,-5 1,-1 1,-3 1,-6l0 -3z"/>
   <polygon id="2" class="fil4" points="303,1384 303,1330 309,1330 309,1384 "/>
   <path id="3" class="fil4" d="M346 1371l7 1c-1,4 -3,7 -6,9 -3,3 -6,4 -11,4 -6,0 -10,-2 -14,-6 -3,-3 -5,-8 -5,-14 0,-7 2,-12 6,-16 3,-3 7,-5 13,-5 5,0 9,2 12,5 4,4 5,9 5,15 0,1 0,1 0,2l-29 0c0,4 2,8 4,10 2,2 5,3 8,3 2,0 5,0 6,-2 2,-1 3,-3 4,-6zm-21 -10l21 0c0,-4 -1,-6 -2,-8 -2,-2 -5,-4 -8,-4 -3,0 -6,1 -8,3 -2,2 -3,5 -3,9z"/>
   <path id="4" class="fil4" d="M359 1372l6 -1c1,3 2,5 4,6 1,2 4,2 7,2 3,0 5,0 6,-2 2,-1 3,-2 3,-4 0,-1 -1,-3 -2,-3 -1,-1 -4,-2 -7,-3 -5,-1 -8,-2 -10,-3 -2,-1 -4,-2 -5,-4 0,-1 -1,-3 -1,-5 0,-2 0,-3 1,-5 1,-1 2,-2 3,-3 1,-1 3,-2 5,-2 1,-1 3,-1 5,-1 3,0 6,0 8,1 3,1 4,2 6,4 1,1 1,3 2,6l-7 1c0,-2 -1,-4 -2,-5 -2,-1 -4,-2 -6,-2 -3,0 -5,1 -7,2 -1,1 -2,2 -2,3 0,1 1,2 1,3 1,0 2,1 3,2 0,0 2,0 6,1 4,1 8,2 9,3 2,1 4,2 5,4 1,1 1,3 1,5 0,3 0,5 -2,7 -1,2 -3,3 -5,4 -3,1 -5,2 -8,2 -5,0 -9,-1 -12,-3 -3,-3 -4,-6 -5,-10z"/>
   <path id="5" class="fil4" d="M446 1379c-3,2 -5,4 -7,4 -3,1 -5,2 -8,2 -4,0 -7,-1 -10,-3 -2,-2 -3,-5 -3,-8 0,-2 0,-4 1,-6 1,-1 2,-2 4,-3 1,-1 3,-2 4,-3 2,0 4,0 6,-1 6,0 10,-1 12,-2 0,-1 0,-1 0,-2 0,-2 -1,-4 -2,-5 -1,-2 -4,-3 -7,-3 -3,0 -6,1 -7,2 -2,1 -3,3 -4,6l-6 -1c1,-3 2,-5 3,-7 1,-1 3,-3 6,-4 2,-1 5,-1 9,-1 3,0 6,0 8,1 2,1 3,2 4,3 1,1 2,3 2,5 1,1 1,3 1,6l0 9c0,6 0,10 0,11 0,2 1,3 2,5l-7 0c-1,-1 -1,-3 -1,-5zm-1 -15c-2,1 -6,2 -11,3 -2,0 -4,1 -6,1 -1,1 -2,1 -2,2 -1,1 -1,2 -1,3 0,2 1,4 2,5 1,1 3,2 6,2 2,0 5,-1 7,-2 2,-1 3,-3 4,-5 1,-1 1,-3 1,-6l0 -3z"/>
   <polygon id="6" class="fil4" points="457,1385 473,1329 478,1329 462,1385 "/>
   <path id="7" class="fil4" d="M508 1370l7 1c-1,4 -3,7 -6,10 -2,2 -6,4 -10,4 -6,0 -10,-2 -13,-5 -3,-4 -5,-9 -5,-15 0,-5 1,-8 2,-12 1,-3 4,-5 6,-7 3,-1 6,-2 10,-2 4,0 7,1 10,3 3,2 5,5 5,9l-6 1c-1,-2 -2,-4 -3,-6 -2,-1 -4,-2 -6,-2 -3,0 -6,2 -8,4 -2,2 -3,6 -3,11 0,6 1,9 3,12 2,2 4,3 8,3 2,0 4,0 6,-2 2,-2 3,-4 3,-7z"/>
   <path class="fil4" d="M211 1560l0 -54 21 0c3,0 6,0 8,0 3,1 5,2 7,3 1,1 3,3 4,5 1,2 2,5 2,7 0,5 -2,9 -5,12 -3,3 -8,5 -16,5l-14 0 0 22 -7 0zm7 -29l14 0c5,0 8,-1 10,-2 2,-2 3,-4 3,-8 0,-2 0,-4 -2,-5 -1,-2 -2,-3 -4,-3 -1,-1 -3,-1 -7,-1l-14 0 0 19z"/>
   <path id="1" class="fil4" d="M286 1560l0 -6c-3,4 -7,6 -12,6 -2,0 -5,0 -7,-1 -2,-1 -3,-2 -4,-3 -1,-2 -2,-3 -2,-5 0,-1 0,-3 0,-6l0 -24 6 0 0 21c0,4 0,6 1,7 0,2 1,3 2,4 2,1 3,2 5,2 2,0 4,-1 6,-2 2,-1 3,-2 3,-4 1,-2 2,-4 2,-8l0 -20 6 0 0 39 -6 0z"/>
   <path id="2" class="fil4" d="M303 1560l0 -39 5 0 0 6c2,-3 3,-5 5,-6 1,-1 2,-1 4,-1 2,0 4,0 7,2l-3 6c-1,-1 -3,-1 -4,-1 -2,0 -3,0 -4,1 -1,1 -2,2 -3,3 0,3 -1,5 -1,8l0 21 -6 0z"/>
   <path id="3" class="fil4" d="M353 1545l7 1c-1,5 -3,8 -6,11 -3,2 -6,3 -11,3 -5,0 -9,-1 -12,-5 -4,-3 -5,-8 -5,-15 0,-4 0,-8 2,-11 1,-3 3,-5 6,-7 3,-1 6,-2 10,-2 4,0 7,1 10,3 3,2 4,5 5,9l-6 1c-1,-3 -2,-5 -4,-6 -1,-1 -3,-2 -5,-2 -4,0 -6,1 -8,4 -2,2 -3,6 -3,11 0,5 1,9 3,11 2,3 4,4 7,4 3,0 5,-1 7,-2 2,-2 3,-4 3,-8z"/>
   <path id="4" class="fil4" d="M365 1560l0 -54 7 0 0 19c3,-3 7,-5 12,-5 2,0 5,0 7,1 2,2 4,3 5,5 1,2 1,5 1,9l0 25 -7 0 0 -25c0,-3 0,-6 -2,-7 -1,-2 -3,-3 -6,-3 -2,0 -4,1 -5,2 -2,1 -3,2 -4,4 -1,2 -1,4 -1,7l0 22 -7 0z"/>
   <path id="5" class="fil4" d="M433 1555c-3,2 -5,3 -7,4 -3,1 -5,1 -8,1 -4,0 -7,-1 -10,-3 -2,-2 -3,-4 -3,-8 0,-2 0,-3 1,-5 1,-2 2,-3 4,-4 1,-1 3,-1 4,-2 2,0 4,-1 6,-1 6,-1 10,-1 12,-2 0,-1 0,-2 0,-2 0,-3 0,-4 -2,-6 -1,-1 -4,-2 -7,-2 -3,0 -6,1 -7,2 -2,1 -3,3 -3,6l-7 -1c1,-3 2,-5 3,-7 1,-2 3,-3 6,-4 2,-1 5,-1 9,-1 3,0 6,0 8,1 2,1 4,2 5,3 1,1 1,3 2,4 0,2 0,4 0,6l0 9c0,6 0,10 0,12 1,2 1,3 2,5l-7 0c-1,-2 -1,-3 -1,-5zm-1 -15c-2,1 -6,2 -11,3 -2,0 -4,0 -5,1 -2,0 -2,1 -3,2 -1,1 -1,2 -1,3 0,2 1,3 2,5 1,1 3,1 6,1 2,0 5,0 7,-1 2,-2 3,-3 4,-5 1,-1 1,-4 1,-7l0 -2z"/>
   <path id="6" class="fil4" d="M446 1548l7 -1c0,3 1,5 3,6 2,1 4,2 7,2 3,0 5,-1 7,-2 1,-1 2,-3 2,-4 0,-2 -1,-3 -2,-4 -1,0 -3,-1 -7,-2 -4,-1 -8,-2 -10,-3 -2,-1 -3,-2 -4,-4 -1,-1 -1,-3 -1,-5 0,-2 0,-3 1,-5 1,-1 2,-3 3,-4 1,0 2,-1 4,-1 2,-1 4,-1 6,-1 3,0 6,0 8,1 2,1 4,2 5,4 1,1 2,3 2,6l-6 1c0,-2 -1,-4 -3,-5 -1,-1 -3,-2 -6,-2 -3,0 -5,1 -6,2 -1,1 -2,2 -2,3 0,1 0,2 1,2 0,1 1,2 2,2 1,1 3,1 6,2 5,1 8,2 10,3 2,1 3,2 4,3 1,2 2,4 2,6 0,2 -1,4 -2,6 -1,2 -3,4 -6,5 -2,1 -5,1 -8,1 -5,0 -9,-1 -11,-3 -3,-2 -5,-5 -6,-9z"/>
   <path id="7" class="fil4" d="M513 1547l7 1c-1,4 -3,7 -6,9 -3,2 -6,3 -11,3 -6,0 -10,-1 -13,-5 -4,-3 -5,-8 -5,-15 0,-6 1,-11 5,-15 3,-3 7,-5 13,-5 5,0 9,1 13,5 3,4 4,9 4,15 0,0 0,1 0,2l-29 0c1,4 2,7 4,10 2,2 5,3 8,3 3,0 5,-1 6,-2 2,-1 3,-3 4,-6zm-21 -11l21 0c0,-3 -1,-5 -2,-7 -2,-3 -5,-4 -8,-4 -3,0 -6,1 -8,3 -2,2 -3,5 -3,8z"/>
   <path id="8" class="fil4" d="M575 1555c-2,2 -5,3 -7,4 -2,1 -5,1 -7,1 -5,0 -8,-1 -10,-3 -3,-2 -4,-4 -4,-8 0,-2 1,-3 2,-5 0,-2 2,-3 3,-4 1,-1 3,-1 5,-2 1,0 3,-1 6,-1 5,-1 9,-1 12,-2 0,-1 0,-2 0,-2 0,-3 -1,-4 -2,-6 -2,-1 -5,-2 -8,-2 -3,0 -5,1 -7,2 -1,1 -2,3 -3,6l-7 -1c1,-3 2,-5 3,-7 2,-2 4,-3 6,-4 3,-1 6,-1 9,-1 3,0 6,0 8,1 2,1 4,2 5,3 1,1 2,3 2,4 0,2 0,4 0,6l0 9c0,6 0,10 1,12 0,2 0,3 1,5l-7 0c0,-2 -1,-3 -1,-5zm0 -15c-3,1 -6,2 -11,3 -3,0 -5,0 -6,1 -1,0 -2,1 -3,2 0,1 -1,2 -1,3 0,2 1,3 2,5 2,1 4,1 6,1 3,0 5,0 7,-1 2,-2 4,-3 4,-5 1,-1 2,-4 2,-7l0 -2z"/>
   <polygon id="9" class="fil4" points="586,1561 602,1505 607,1505 592,1561 "/>
   <path id="10" class="fil4" d="M638 1545l6 1c0,5 -2,8 -5,11 -3,2 -7,3 -11,3 -5,0 -9,-1 -13,-5 -3,-3 -5,-8 -5,-15 0,-4 1,-8 2,-11 2,-3 4,-5 7,-7 3,-1 6,-2 9,-2 4,0 8,1 11,3 2,2 4,5 5,9l-7 1c0,-3 -1,-5 -3,-6 -1,-1 -3,-2 -6,-2 -3,0 -6,1 -8,4 -2,2 -3,6 -3,11 0,5 1,9 3,11 2,3 5,4 8,4 3,0 5,-1 7,-2 1,-2 2,-4 3,-8z"/>
   <path class="fil4" d="M209 1713l7 0c0,2 1,5 2,6 1,2 3,4 5,5 3,1 6,1 9,1 2,0 5,0 7,-1 2,-1 3,-2 4,-3 1,-2 2,-3 2,-5 0,-2 0,-3 -1,-4 -1,-2 -3,-3 -5,-3 -2,-1 -5,-2 -10,-3 -5,-1 -8,-2 -10,-3 -3,-2 -5,-4 -6,-6 -1,-2 -2,-4 -2,-6 0,-3 1,-6 2,-8 2,-2 4,-4 7,-5 3,-1 6,-2 10,-2 4,0 8,1 11,2 3,1 5,3 7,6 1,2 2,5 2,8l-7 1c0,-4 -1,-6 -3,-8 -2,-2 -6,-3 -10,-3 -4,0 -7,1 -9,3 -2,1 -3,3 -3,5 0,2 1,4 2,5 1,1 5,3 11,4 6,1 10,2 12,3 3,2 5,4 7,6 1,2 2,5 2,7 0,3 -1,6 -3,9 -1,2 -4,4 -7,6 -3,1 -6,2 -10,2 -5,0 -9,-1 -12,-3 -4,-1 -6,-3 -8,-6 -2,-3 -3,-6 -3,-10z"/>
   <path id="1" class="fil4" d="M286 1726c-2,2 -5,3 -7,4 -2,1 -5,2 -7,2 -4,0 -8,-2 -10,-4 -2,-2 -4,-4 -4,-8 0,-2 1,-3 2,-5 1,-1 2,-3 3,-4 2,-1 3,-1 5,-2 1,0 3,0 6,-1 5,0 9,-1 12,-2 0,-1 0,-2 0,-2 0,-2 -1,-4 -2,-5 -2,-2 -4,-3 -8,-3 -3,0 -5,1 -7,2 -1,1 -2,3 -3,6l-6 -1c0,-3 1,-5 3,-7 1,-2 3,-3 5,-4 3,-1 6,-1 9,-1 4,0 6,0 8,1 3,1 4,2 5,3 1,1 2,3 2,4 0,2 0,4 0,7l0 8c0,6 1,10 1,12 0,2 1,3 1,5l-6 0c-1,-2 -2,-3 -2,-5zm0 -15c-3,1 -6,2 -11,3 -3,0 -5,0 -6,1 -1,0 -2,1 -3,2 0,1 0,2 0,3 0,2 0,3 2,5 1,1 3,1 5,1 3,0 5,0 7,-1 2,-1 4,-3 5,-5 0,-1 1,-4 1,-6l0 -3z"/>
   <polygon id="2" class="fil4" points="302,1731 302,1677 309,1677 309,1731 "/>
   <path id="3" class="fil4" d="M346 1718l7 1c-1,4 -3,7 -6,9 -3,2 -7,4 -11,4 -6,0 -10,-2 -14,-6 -3,-3 -5,-8 -5,-15 0,-6 2,-11 5,-15 4,-3 8,-5 13,-5 6,0 10,2 13,5 3,4 5,9 5,15 0,0 0,1 0,2l-29 0c0,4 1,7 4,10 2,2 4,3 8,3 2,0 4,-1 6,-2 2,-1 3,-3 4,-6zm-22 -11l22 0c0,-3 -1,-5 -2,-7 -3,-2 -5,-4 -9,-4 -3,0 -5,1 -7,3 -2,2 -3,5 -4,8z"/>
   <path id="4" class="fil4" d="M359 1719l6 -1c1,3 2,5 3,6 2,1 4,2 7,2 3,0 6,0 7,-2 2,-1 2,-2 2,-4 0,-2 0,-3 -2,-4 -1,0 -3,-1 -6,-2 -5,-1 -9,-2 -11,-3 -1,-1 -3,-2 -4,-4 -1,-1 -1,-3 -1,-5 0,-2 0,-3 1,-5 1,-1 2,-3 3,-3 1,-1 3,-2 4,-2 2,-1 4,-1 6,-1 3,0 6,0 8,1 2,1 4,2 5,4 1,1 2,3 3,6l-7 1c0,-2 -1,-4 -2,-5 -2,-1 -4,-2 -6,-2 -3,0 -6,1 -7,2 -1,1 -2,2 -2,3 0,1 0,2 1,3 0,0 1,1 2,1 1,1 3,1 6,2 5,1 8,2 10,3 2,1 3,2 4,4 2,1 2,3 2,5 0,2 -1,4 -2,6 -1,2 -3,4 -5,5 -3,1 -6,2 -9,2 -5,0 -9,-2 -11,-4 -3,-2 -5,-5 -5,-9z"/>
   <path id="5" class="fil4" d="M445 1726c-2,2 -5,3 -7,4 -2,1 -4,2 -7,2 -4,0 -8,-2 -10,-4 -2,-2 -3,-4 -3,-8 0,-2 0,-3 1,-5 1,-1 2,-3 3,-4 2,-1 3,-1 5,-2 1,0 3,0 6,-1 5,0 9,-1 12,-2 0,-1 0,-2 0,-2 0,-2 -1,-4 -2,-5 -2,-2 -4,-3 -8,-3 -3,0 -5,1 -7,2 -1,1 -2,3 -3,6l-6 -1c0,-3 1,-5 3,-7 1,-2 3,-3 5,-4 3,-1 6,-1 9,-1 4,0 6,0 8,1 3,1 4,2 5,3 1,1 2,3 2,4 0,2 0,4 0,7l0 8c0,6 1,10 1,12 0,2 1,3 2,5l-7 0c-1,-2 -1,-3 -2,-5zm0 -15c-3,1 -6,2 -11,3 -3,0 -5,0 -6,1 -1,0 -2,1 -2,2 -1,1 -1,2 -1,3 0,2 0,3 2,5 1,1 3,1 5,1 3,0 5,0 7,-1 2,-1 4,-3 5,-5 0,-1 1,-4 1,-6l0 -3z"/>
   <polygon id="6" class="fil4" points="457,1732 472,1676 478,1676 462,1732 "/>
   <path id="7" class="fil4" d="M508 1716l7 1c-1,5 -3,8 -6,11 -3,2 -6,4 -11,4 -5,0 -9,-2 -12,-6 -4,-3 -5,-8 -5,-15 0,-4 0,-8 2,-11 1,-3 3,-5 6,-7 3,-1 6,-2 9,-2 5,0 8,1 11,3 3,2 4,5 5,9l-6 1c-1,-2 -2,-4 -4,-6 -1,-1 -3,-2 -5,-2 -4,0 -6,1 -8,4 -3,2 -4,6 -4,11 0,5 1,9 3,12 2,2 5,3 8,3 3,0 5,-1 7,-2 2,-2 3,-4 3,-8z"/>
   <path class="fil4" d="M209 1871l7 -1c0,3 1,5 2,7 1,2 3,3 5,4 3,1 6,2 9,2 2,0 5,-1 7,-1 2,-1 3,-2 4,-4 1,-1 2,-3 2,-4 0,-2 0,-4 -1,-5 -1,-1 -3,-2 -5,-3 -2,-1 -5,-1 -10,-3 -5,-1 -8,-2 -10,-3 -3,-1 -5,-3 -6,-5 -1,-2 -2,-4 -2,-7 0,-3 1,-5 2,-7 2,-3 4,-5 7,-6 3,-1 6,-2 10,-2 4,0 8,1 11,2 3,2 5,3 7,6 1,2 2,5 2,8l-7 1c0,-3 -1,-6 -3,-8 -2,-1 -6,-2 -10,-2 -4,0 -7,0 -9,2 -2,2 -3,4 -3,6 0,2 1,3 2,5 1,1 5,2 11,3 6,2 10,3 12,4 3,1 5,3 7,5 1,2 2,5 2,8 0,3 -1,5 -3,8 -1,3 -4,5 -7,6 -3,1 -6,2 -10,2 -5,0 -9,-1 -12,-2 -4,-2 -6,-4 -8,-7 -2,-2 -3,-6 -3,-9z"/>
   <path id="1" class="fil4" d="M286 1883c-2,2 -5,4 -7,5 -2,1 -5,1 -7,1 -4,0 -8,-1 -10,-3 -2,-2 -4,-5 -4,-8 0,-2 1,-4 2,-5 1,-2 2,-3 3,-4 2,-1 3,-2 5,-2 1,-1 3,-1 6,-1 5,-1 9,-2 12,-3 0,-1 0,-1 0,-1 0,-3 -1,-5 -2,-6 -2,-2 -4,-2 -8,-2 -3,0 -5,0 -7,1 -1,1 -2,3 -3,6l-6 -1c0,-2 1,-5 3,-6 1,-2 3,-3 5,-4 3,-1 6,-2 9,-2 4,0 6,1 8,1 3,1 4,2 5,3 1,2 2,3 2,5 0,1 0,3 0,6l0 9c0,6 1,10 1,11 0,2 1,4 1,5l-6 0c-1,-1 -2,-3 -2,-5zm0 -14c-3,1 -6,1 -11,2 -3,0 -5,1 -6,1 -1,1 -2,2 -3,2 0,1 0,2 0,4 0,1 0,3 2,4 1,1 3,2 5,2 3,0 5,-1 7,-2 2,-1 4,-3 5,-4 0,-2 1,-4 1,-7l0 -2z"/>
   <polygon id="2" class="fil4" points="302,1888 302,1834 309,1834 309,1888 "/>
   <path id="3" class="fil4" d="M346 1875l7 1c-1,4 -3,7 -6,10 -3,2 -7,3 -11,3 -6,0 -10,-2 -14,-5 -3,-4 -5,-9 -5,-15 0,-7 2,-12 5,-15 4,-4 8,-6 13,-6 6,0 10,2 13,6 3,3 5,8 5,15 0,0 0,1 0,1l-29 0c0,5 1,8 4,10 2,2 4,4 8,4 2,0 4,-1 6,-2 2,-2 3,-4 4,-7zm-22 -10l22 0c0,-3 -1,-6 -2,-8 -3,-2 -5,-3 -9,-3 -3,0 -5,1 -7,3 -2,2 -3,4 -4,8z"/>
   <path id="4" class="fil4" d="M359 1876l6 -1c1,3 2,5 3,6 2,2 4,3 7,3 3,0 6,-1 7,-2 2,-2 2,-3 2,-5 0,-1 0,-2 -2,-3 -1,-1 -3,-2 -6,-2 -5,-2 -9,-3 -11,-4 -1,-1 -3,-2 -4,-3 -1,-2 -1,-4 -1,-6 0,-1 0,-3 1,-4 1,-2 2,-3 3,-4 1,-1 3,-1 4,-2 2,-1 4,-1 6,-1 3,0 6,1 8,2 2,0 4,2 5,3 1,2 2,4 3,6l-7 1c0,-2 -1,-3 -2,-5 -2,-1 -4,-1 -6,-1 -3,0 -6,0 -7,1 -1,1 -2,2 -2,4 0,1 0,1 1,2 0,1 1,1 2,2 1,0 3,1 6,1 5,2 8,3 10,4 2,0 3,1 4,3 2,2 2,3 2,6 0,2 -1,4 -2,6 -1,2 -3,3 -5,4 -3,1 -6,2 -9,2 -5,0 -9,-1 -11,-3 -3,-2 -5,-5 -5,-10z"/>
   <path id="5" class="fil4" d="M445 1883c-2,2 -5,4 -7,5 -2,1 -4,1 -7,1 -4,0 -8,-1 -10,-3 -2,-2 -3,-5 -3,-8 0,-2 0,-4 1,-5 1,-2 2,-3 3,-4 2,-1 3,-2 5,-2 1,-1 3,-1 6,-1 5,-1 9,-2 12,-3 0,-1 0,-1 0,-1 0,-3 -1,-5 -2,-6 -2,-2 -4,-2 -8,-2 -3,0 -5,0 -7,1 -1,1 -2,3 -3,6l-6 -1c0,-2 1,-5 3,-6 1,-2 3,-3 5,-4 3,-1 6,-2 9,-2 4,0 6,1 8,1 3,1 4,2 5,3 1,2 2,3 2,5 0,1 0,3 0,6l0 9c0,6 1,10 1,11 0,2 1,4 2,5l-7 0c-1,-1 -1,-3 -2,-5zm0 -14c-3,1 -6,1 -11,2 -3,0 -5,1 -6,1 -1,1 -2,2 -2,2 -1,1 -1,2 -1,4 0,1 0,3 2,4 1,1 3,2 5,2 3,0 5,-1 7,-2 2,-1 4,-3 5,-4 0,-2 1,-4 1,-7l0 -2z"/>
   <polygon id="6" class="fil4" points="457,1889 472,1833 478,1833 462,1889 "/>
   <path id="7" class="fil4" d="M508 1874l7 1c-1,4 -3,8 -6,10 -3,3 -6,4 -11,4 -5,0 -9,-2 -12,-5 -4,-4 -5,-9 -5,-15 0,-4 0,-8 2,-11 1,-3 3,-6 6,-7 3,-2 6,-3 9,-3 5,0 8,1 11,3 3,3 4,6 5,10l-6 1c-1,-3 -2,-5 -4,-6 -1,-2 -3,-2 -5,-2 -4,0 -6,1 -8,3 -3,3 -4,6 -4,12 0,5 1,9 3,11 2,2 5,4 8,4 3,0 5,-1 7,-3 2,-1 3,-4 3,-7z"/>
   <g>
    <path class="fil4" d="M1198 1384l-7 0 0 -42c-1,1 -3,3 -6,4 -3,2 -5,3 -7,4l0 -7c4,-1 7,-4 10,-6 3,-3 4,-5 6,-7l4 0 0 54z"/>
    <path id="1" class="fil4" d="M1215 1357c0,-6 1,-11 2,-15 1,-4 3,-7 6,-9 2,-2 6,-3 9,-3 3,0 6,0 8,2 2,1 4,2 6,5 1,2 2,4 3,8 1,3 1,7 1,12 0,7 -1,12 -2,16 -1,4 -3,7 -6,9 -2,2 -6,3 -10,3 -5,0 -9,-2 -12,-6 -3,-4 -5,-12 -5,-22zm7 0c0,9 1,15 3,18 2,3 4,4 7,4 4,0 6,-1 8,-4 2,-3 3,-9 3,-18 0,-9 -1,-14 -3,-17 -2,-3 -4,-5 -8,-5 -3,0 -5,2 -7,4 -2,3 -3,9 -3,18z"/>
    <path id="2" class="fil4" d="M1260 1384l0 -8 8 0 0 8c0,3 -1,5 -2,7 -1,1 -2,3 -4,4l-2 -3c1,-1 2,-2 3,-3 1,-1 1,-3 1,-5l-4 0z"/>
    <path id="3" class="fil4" d="M1278 1370l7 -1c0,4 1,6 3,8 2,2 4,2 7,2 3,0 6,-1 8,-3 2,-3 3,-6 3,-10 0,-4 -1,-7 -3,-9 -2,-2 -5,-3 -8,-3 -2,0 -4,0 -6,1 -1,1 -3,3 -4,4l-6 -1 5 -27 27 0 0 6 -22 0 -2 15c3,-3 6,-4 10,-4 4,0 8,2 12,5 3,3 4,7 4,13 0,4 -1,9 -4,12 -3,5 -8,7 -14,7 -5,0 -9,-2 -12,-4 -3,-3 -5,-7 -5,-11z"/>
    <path id="4" class="fil4" d="M1320 1357c0,-6 0,-11 2,-15 1,-4 3,-7 5,-9 3,-2 6,-3 10,-3 3,0 6,0 8,2 2,1 4,2 5,5 2,2 3,4 4,8 0,3 1,7 1,12 0,7 -1,12 -2,16 -2,4 -3,7 -6,9 -3,2 -6,3 -10,3 -5,0 -9,-2 -12,-6 -4,-4 -5,-12 -5,-22zm6 0c0,9 1,15 4,18 2,3 4,4 7,4 3,0 6,-1 8,-4 2,-3 3,-9 3,-18 0,-9 -1,-14 -3,-17 -2,-3 -5,-5 -8,-5 -3,0 -5,2 -7,4 -2,3 -4,9 -4,18z"/>
    <path id="5" class="fil4" d="M1362 1357c0,-6 0,-11 1,-15 2,-4 4,-7 6,-9 3,-2 6,-3 10,-3 3,0 5,0 8,2 2,1 4,2 5,5 1,2 3,4 3,8 1,3 2,7 2,12 0,7 -1,12 -2,16 -2,4 -4,7 -6,9 -3,2 -6,3 -10,3 -5,0 -9,-2 -12,-6 -4,-4 -5,-12 -5,-22zm6 0c0,9 1,15 3,18 2,3 5,4 8,4 3,0 6,-1 8,-4 2,-3 3,-9 3,-18 0,-9 -1,-14 -3,-17 -2,-3 -5,-5 -8,-5 -3,0 -5,2 -7,4 -3,3 -4,9 -4,18z"/>
    <path class="fil4" d="M1236 1545l7 0c0,3 1,6 3,8 2,1 4,2 7,2 3,0 6,-1 8,-3 2,-3 4,-6 4,-10 0,-4 -1,-7 -4,-9 -2,-2 -4,-3 -8,-3 -2,0 -4,0 -6,1 -1,1 -3,2 -4,4l-6 -1 5 -28 27 0 0 7 -21 0 -3 14c3,-2 6,-3 10,-3 5,0 8,1 12,5 3,3 5,7 5,12 0,5 -2,9 -5,13 -3,4 -8,7 -14,7 -5,0 -9,-2 -12,-5 -3,-2 -5,-6 -5,-11z"/>
    <path id="1" class="fil4" d="M1312 1519l-6 0c-1,-2 -2,-4 -3,-5 -2,-2 -4,-3 -7,-3 -2,0 -4,0 -5,2 -2,1 -4,3 -5,6 -1,3 -2,7 -2,13 2,-3 4,-4 6,-6 2,-1 5,-1 7,-1 5,0 8,1 11,4 4,4 5,8 5,13 0,3 -1,7 -2,10 -2,2 -4,5 -6,6 -3,2 -6,3 -9,3 -5,0 -10,-2 -13,-7 -4,-4 -6,-10 -6,-20 0,-10 2,-18 6,-22 4,-4 8,-7 14,-7 4,0 8,2 10,4 3,2 5,6 5,10zm-27 23c0,2 1,5 1,7 1,2 3,3 5,4 1,2 3,2 5,2 3,0 5,-1 7,-3 2,-3 3,-6 3,-9 0,-4 -1,-7 -3,-9 -2,-2 -4,-4 -7,-4 -3,0 -6,2 -8,4 -2,2 -3,5 -3,8z"/>
    <path id="2" class="fil4" d="M1320 1533c0,-6 0,-11 2,-15 1,-4 3,-7 5,-9 3,-2 6,-4 10,-4 3,0 6,1 8,2 2,1 4,3 5,5 2,2 3,5 3,8 1,3 2,8 2,13 0,6 -1,11 -2,15 -2,4 -3,7 -6,9 -3,2 -6,4 -10,4 -5,0 -9,-2 -12,-6 -4,-5 -5,-12 -5,-22zm6 0c0,9 1,15 3,18 3,3 5,4 8,4 3,0 6,-1 8,-4 2,-3 3,-9 3,-18 0,-9 -1,-15 -3,-18 -2,-3 -5,-4 -8,-4 -3,0 -5,1 -7,4 -2,3 -4,9 -4,18z"/>
    <path id="3" class="fil4" d="M1362 1533c0,-6 0,-11 1,-15 2,-4 4,-7 6,-9 3,-2 6,-4 10,-4 3,0 5,1 8,2 2,1 4,3 5,5 1,2 3,5 3,8 1,3 2,8 2,13 0,6 -1,11 -2,15 -2,4 -4,7 -6,9 -3,2 -6,4 -10,4 -5,0 -9,-2 -12,-6 -4,-5 -5,-12 -5,-22zm6 0c0,9 1,15 3,18 2,3 5,4 8,4 3,0 6,-1 8,-4 2,-3 3,-9 3,-18 0,-9 -1,-15 -3,-18 -2,-3 -5,-4 -8,-4 -3,0 -5,1 -7,4 -3,3 -4,9 -4,18z"/>
    <path class="fil4" d="M1198 1731l-7 0 0 -42c-1,1 -3,3 -6,4 -3,2 -5,3 -7,3l0 -6c4,-2 7,-4 10,-6 3,-3 4,-5 6,-7l4 0 0 54z"/>
    <path id="1" class="fil4" d="M1250 1724l0 7 -36 0c0,-2 0,-3 1,-5 1,-2 2,-5 4,-7 2,-2 5,-5 9,-8 6,-5 10,-9 12,-12 2,-2 3,-5 3,-8 0,-2 -1,-4 -3,-6 -2,-2 -4,-3 -7,-3 -4,0 -6,1 -8,3 -2,2 -3,4 -3,8l-7 -1c1,-5 2,-9 5,-11 4,-3 8,-4 13,-4 5,0 9,1 12,4 3,3 5,6 5,11 0,2 -1,4 -2,6 -1,2 -2,4 -4,7 -2,2 -6,5 -10,9 -4,3 -7,6 -8,7 -1,1 -2,2 -3,3l27 0z"/>
    <path id="2" class="fil4" d="M1260 1731l0 -8 8 0 0 8c0,2 -1,5 -2,6 -1,2 -2,3 -4,4l-2 -2c1,-1 2,-2 3,-3 1,-1 1,-3 1,-5l-4 0z"/>
    <path id="3" class="fil4" d="M1312 1690l-6 0c-1,-2 -2,-4 -3,-5 -2,-2 -4,-3 -7,-3 -2,0 -4,1 -5,2 -2,1 -4,3 -5,6 -1,3 -2,7 -2,13 2,-3 4,-4 6,-6 2,-1 5,-1 7,-1 5,0 8,1 11,5 4,3 5,7 5,12 0,4 -1,7 -2,10 -2,3 -4,5 -6,6 -3,2 -6,3 -9,3 -5,0 -10,-2 -13,-6 -4,-5 -6,-11 -6,-21 0,-10 2,-18 6,-22 4,-4 8,-6 14,-6 4,0 8,1 10,3 3,3 5,6 5,10zm-27 23c0,3 1,5 2,7 0,2 2,3 4,5 1,1 3,1 5,1 3,0 5,-1 7,-3 2,-2 3,-6 3,-9 0,-4 -1,-7 -3,-9 -2,-2 -4,-3 -7,-3 -3,0 -6,1 -8,3 -2,2 -3,5 -3,8z"/>
    <path id="4" class="fil4" d="M1320 1717l7 -1c0,3 1,6 3,8 2,1 4,2 7,2 3,0 6,-1 8,-3 2,-3 3,-6 3,-10 0,-4 -1,-7 -3,-9 -2,-2 -5,-3 -8,-3 -2,0 -4,0 -6,1 -2,1 -3,3 -4,4l-6 -1 5 -28 27 0 0 7 -22 0 -3 14c4,-2 7,-3 11,-3 4,0 8,2 11,5 4,3 5,7 5,12 0,5 -1,10 -4,13 -3,4 -8,7 -14,7 -5,0 -9,-2 -12,-5 -3,-2 -5,-6 -5,-10z"/>
    <path id="5" class="fil4" d="M1383 1731l0 -13 -24 0 0 -6 25 -35 5 0 0 35 8 0 0 6 -8 0 0 13 -6 0zm0 -19l0 -25 -17 25 17 0z"/>
    <path class="fil4" d="M1198 1888l-7 0 0 -42c-1,1 -3,3 -6,5 -3,1 -5,2 -7,3l0 -6c4,-2 7,-4 10,-7 3,-2 4,-5 6,-7l4 0 0 54z"/>
    <path id="1" class="fil4" d="M1215 1874l7 -1c0,4 2,6 3,8 2,2 4,3 7,3 3,0 6,-2 8,-4 2,-2 3,-5 3,-8 0,-3 -1,-5 -3,-7 -2,-2 -4,-3 -7,-3 -2,0 -3,0 -5,1l1 -6c0,0 1,0 1,0 3,0 5,-1 7,-2 3,-2 4,-4 4,-7 0,-3 -1,-5 -3,-6 -1,-2 -3,-3 -6,-3 -3,0 -5,1 -6,3 -2,1 -3,4 -4,7l-6 -1c0,-4 2,-8 5,-10 3,-3 7,-4 11,-4 3,0 5,1 8,2 2,1 4,3 6,5 1,2 2,5 2,7 0,2 -1,4 -2,6 -2,2 -3,4 -6,5 3,1 6,2 8,4 1,3 2,6 2,9 0,5 -1,9 -5,12 -3,3 -8,5 -13,5 -5,0 -9,-1 -12,-4 -3,-3 -5,-7 -5,-11z"/>
    <path id="2" class="fil4" d="M1260 1888l0 -7 8 0 0 7c0,3 -1,5 -2,7 -1,2 -2,3 -4,4l-2 -3c1,-1 2,-2 3,-3 1,-1 1,-3 1,-5l-4 0z"/>
    <path id="3" class="fil4" d="M1278 1862c0,-7 0,-12 2,-16 1,-4 3,-7 6,-9 2,-2 5,-3 9,-3 3,0 6,1 8,2 2,1 4,3 5,5 2,2 3,5 4,8 0,3 1,7 1,13 0,6 -1,11 -2,15 -1,4 -3,7 -6,9 -3,2 -6,3 -10,3 -5,0 -9,-2 -12,-6 -3,-4 -5,-11 -5,-21zm7 0c0,8 1,14 3,17 2,3 4,5 7,5 3,0 6,-2 8,-5 2,-3 3,-9 3,-17 0,-9 -1,-15 -3,-18 -2,-3 -5,-5 -8,-5 -3,0 -5,2 -7,4 -2,4 -3,10 -3,19z"/>
    <path id="4" class="fil4" d="M1320 1862c0,-7 0,-12 2,-16 1,-4 3,-7 5,-9 3,-2 6,-3 10,-3 3,0 6,1 8,2 2,1 4,3 5,5 2,2 3,5 4,8 0,3 1,7 1,13 0,6 -1,11 -2,15 -2,4 -3,7 -6,9 -3,2 -6,3 -10,3 -5,0 -9,-2 -12,-6 -4,-4 -5,-11 -5,-21zm6 0c0,8 1,14 4,17 2,3 4,5 7,5 3,0 6,-2 8,-5 2,-3 3,-9 3,-17 0,-9 -1,-15 -3,-18 -2,-3 -5,-5 -8,-5 -3,0 -5,2 -7,4 -2,4 -4,10 -4,19z"/>
    <path id="5" class="fil4" d="M1362 1862c0,-7 0,-12 1,-16 2,-4 4,-7 6,-9 3,-2 6,-3 10,-3 3,0 5,1 8,2 2,1 4,3 5,5 1,2 3,5 3,8 1,3 2,7 2,13 0,6 -1,11 -2,15 -2,4 -4,7 -6,9 -3,2 -6,3 -10,3 -5,0 -9,-2 -12,-6 -4,-4 -5,-11 -5,-21zm6 0c0,8 1,14 3,17 2,3 5,5 8,5 3,0 6,-2 8,-5 2,-3 3,-9 3,-17 0,-9 -1,-15 -3,-18 -2,-3 -5,-5 -8,-5 -3,0 -5,2 -7,4 -3,4 -4,10 -4,19z"/>
   </g>
   <path class="fil4" d="M1873 1370l7 -1c0,4 2,6 3,8 2,2 5,2 7,2 3,0 6,-1 8,-3 3,-3 4,-6 4,-10 0,-4 -1,-7 -3,-9 -3,-2 -5,-3 -9,-3 -2,0 -4,0 -6,1 -1,1 -3,3 -4,4l-6 -1 5 -27 27 0 0 6 -21 0 -3 15c3,-3 6,-4 10,-4 5,0 9,2 12,5 3,3 5,7 5,13 0,4 -2,9 -5,12 -3,5 -8,7 -14,7 -5,0 -9,-2 -12,-4 -3,-3 -5,-7 -5,-11z"/>
   <path id="1" class="fil4" d="M1915 1357c0,-6 0,-11 2,-15 1,-4 3,-7 6,-9 2,-2 5,-3 9,-3 3,0 6,0 8,2 2,1 4,2 5,5 2,2 3,4 4,8 1,3 1,7 1,12 0,7 -1,12 -2,16 -1,4 -3,7 -6,9 -2,2 -6,3 -10,3 -5,0 -9,-2 -12,-6 -3,-4 -5,-12 -5,-22zm7 0c0,9 1,15 3,18 2,3 4,4 7,4 3,0 6,-1 8,-4 2,-3 3,-9 3,-18 0,-9 -1,-14 -3,-17 -2,-3 -5,-5 -8,-5 -3,0 -5,2 -7,4 -2,3 -3,9 -3,18z"/>
   <path id="2" class="fil4" d="M1957 1357c0,-6 0,-11 2,-15 1,-4 3,-7 6,-9 2,-2 5,-3 9,-3 3,0 6,0 8,2 2,1 4,2 5,5 2,2 3,4 4,8 0,3 1,7 1,12 0,7 -1,12 -2,16 -1,4 -3,7 -6,9 -3,2 -6,3 -10,3 -5,0 -9,-2 -12,-6 -4,-4 -5,-12 -5,-22zm7 0c0,9 1,15 3,18 2,3 4,4 7,4 3,0 6,-1 8,-4 2,-3 3,-9 3,-18 0,-9 -1,-14 -3,-17 -2,-3 -5,-5 -8,-5 -3,0 -5,2 -7,4 -2,3 -3,9 -3,18z"/>
   <path id="3" class="fil4" d="M1999 1357c0,-6 0,-11 2,-15 1,-4 3,-7 5,-9 3,-2 6,-3 10,-3 3,0 6,0 8,2 2,1 4,2 5,5 2,2 3,4 3,8 1,3 2,7 2,12 0,7 -1,12 -2,16 -2,4 -3,7 -6,9 -3,2 -6,3 -10,3 -5,0 -9,-2 -12,-6 -4,-4 -5,-12 -5,-22zm6 0c0,9 1,15 3,18 3,3 5,4 8,4 3,0 6,-1 8,-4 2,-3 3,-9 3,-18 0,-9 -1,-14 -3,-17 -2,-3 -5,-5 -8,-5 -3,0 -5,2 -7,4 -2,3 -4,9 -4,18z"/>
   <path class="fil4" d="M1999 1533c0,-6 0,-11 2,-15 1,-4 3,-7 5,-9 3,-2 6,-4 10,-4 3,0 6,1 8,2 2,1 4,3 5,5 2,2 3,5 3,8 1,3 2,8 2,13 0,6 -1,11 -2,15 -2,4 -3,7 -6,9 -3,2 -6,4 -10,4 -5,0 -9,-2 -12,-6 -4,-5 -5,-12 -5,-22zm6 0c0,9 1,15 3,18 3,3 5,4 8,4 3,0 6,-1 8,-4 2,-3 3,-9 3,-18 0,-9 -1,-15 -3,-18 -2,-3 -5,-4 -8,-4 -3,0 -5,1 -7,4 -2,3 -4,9 -4,18z"/>
   <path class="fil4" d="M1894 1731l0 -13 -23 0 0 -6 24 -35 6 0 0 35 7 0 0 6 -7 0 0 13 -7 0zm0 -19l0 -25 -17 25 17 0z"/>
   <path id="1" class="fil4" d="M1915 1704c0,-6 0,-11 2,-15 1,-4 3,-7 6,-9 2,-2 5,-3 9,-3 3,0 6,0 8,1 2,1 4,3 5,5 2,3 3,5 4,8 1,4 1,8 1,13 0,6 -1,12 -2,15 -1,4 -3,7 -6,9 -2,3 -6,4 -10,4 -5,0 -9,-2 -12,-6 -3,-4 -5,-12 -5,-22zm7 0c0,9 1,15 3,18 2,3 4,4 7,4 3,0 6,-1 8,-4 2,-3 3,-9 3,-18 0,-9 -1,-15 -3,-18 -2,-2 -5,-4 -8,-4 -3,0 -5,1 -7,4 -2,3 -3,9 -3,18z"/>
   <path id="2" class="fil4" d="M1957 1704c0,-6 0,-11 2,-15 1,-4 3,-7 6,-9 2,-2 5,-3 9,-3 3,0 6,0 8,1 2,1 4,3 5,5 2,3 3,5 4,8 0,4 1,8 1,13 0,6 -1,12 -2,15 -1,4 -3,7 -6,9 -3,3 -6,4 -10,4 -5,0 -9,-2 -12,-6 -4,-4 -5,-12 -5,-22zm7 0c0,9 1,15 3,18 2,3 4,4 7,4 3,0 6,-1 8,-4 2,-3 3,-9 3,-18 0,-9 -1,-15 -3,-18 -2,-2 -5,-4 -8,-4 -3,0 -5,1 -7,4 -2,3 -3,9 -3,18z"/>
   <path id="3" class="fil4" d="M1999 1704c0,-6 0,-11 2,-15 1,-4 3,-7 5,-9 3,-2 6,-3 10,-3 3,0 6,0 8,1 2,1 4,3 5,5 2,3 3,5 3,8 1,4 2,8 2,13 0,6 -1,12 -2,15 -2,4 -3,7 -6,9 -3,3 -6,4 -10,4 -5,0 -9,-2 -12,-6 -4,-4 -5,-12 -5,-22zm6 0c0,9 1,15 3,18 3,3 5,4 8,4 3,0 6,-1 8,-4 2,-3 3,-9 3,-18 0,-9 -1,-15 -3,-18 -2,-2 -5,-4 -8,-4 -3,0 -5,1 -7,4 -2,3 -4,9 -4,18z"/>
   <path class="fil4" d="M1999 1862c0,-7 0,-12 2,-16 1,-4 3,-7 5,-9 3,-2 6,-3 10,-3 3,0 6,1 8,2 2,1 4,3 5,5 2,2 3,5 3,8 1,3 2,7 2,13 0,6 -1,11 -2,15 -2,4 -3,7 -6,9 -3,2 -6,3 -10,3 -5,0 -9,-2 -12,-6 -4,-4 -5,-11 -5,-21zm6 0c0,8 1,14 3,17 3,3 5,5 8,5 3,0 6,-2 8,-5 2,-3 3,-9 3,-17 0,-9 -1,-15 -3,-18 -2,-3 -5,-5 -8,-5 -3,0 -5,2 -7,4 -2,4 -4,10 -4,19z"/>
   <path class="fil4" d="M2333 1384l-7 0 0 -42c-2,1 -4,3 -6,4 -3,2 -5,3 -7,4l0 -7c3,-1 7,-4 9,-6 3,-3 5,-5 6,-7l5 0 0 54z"/>
   <path id="1" class="fil4" d="M2350 1370l6 -1c1,3 2,6 4,8 2,1 4,2 7,2 3,0 6,-1 8,-3 2,-2 3,-5 3,-8 0,-3 -1,-5 -3,-7 -2,-2 -5,-3 -8,-3 -1,0 -2,0 -4,0l0 -5c1,0 1,0 1,0 3,0 6,-1 8,-3 2,-1 3,-3 3,-6 0,-3 0,-5 -2,-6 -2,-2 -4,-3 -6,-3 -3,0 -5,1 -7,3 -2,1 -3,4 -3,7l-7 -1c1,-5 3,-8 6,-11 3,-2 6,-3 10,-3 3,0 6,0 9,2 2,1 4,3 5,5 2,2 2,4 2,7 0,2 0,4 -2,6 -1,2 -3,4 -5,5 3,0 5,2 7,4 2,3 3,5 3,9 0,5 -2,9 -5,12 -4,3 -8,5 -13,5 -5,0 -9,-2 -12,-4 -3,-3 -5,-7 -5,-11z"/>
   <path id="2" class="fil4" d="M2395 1384l0 -8 8 0 0 8c0,3 -1,5 -2,7 -1,1 -2,3 -5,4l-1 -3c1,-1 2,-2 3,-3 0,-1 1,-3 1,-5l-4 0z"/>
   <path id="3" class="fil4" d="M2412 1370l7 -1c1,4 2,6 4,8 2,2 4,2 7,2 3,0 6,-1 8,-3 2,-3 3,-6 3,-10 0,-4 -1,-7 -3,-9 -2,-2 -5,-3 -8,-3 -3,0 -4,0 -6,1 -2,1 -3,3 -4,4l-6 -1 5 -27 27 0 0 6 -22 0 -3 15c3,-3 7,-4 10,-4 5,0 9,2 12,5 3,3 5,7 5,13 0,4 -1,9 -4,12 -4,5 -8,7 -14,7 -5,0 -9,-2 -12,-4 -3,-3 -5,-7 -6,-11z"/>
   <path id="4" class="fil4" d="M2454 1357c0,-6 1,-11 2,-15 2,-4 3,-7 6,-9 3,-2 6,-3 10,-3 3,0 5,0 7,2 3,1 4,2 6,5 1,2 2,4 3,8 1,3 1,7 1,12 0,7 0,12 -2,16 -1,4 -3,7 -5,9 -3,2 -6,3 -10,3 -5,0 -9,-2 -12,-6 -4,-4 -6,-12 -6,-22zm7 0c0,9 1,15 3,18 2,3 5,4 8,4 3,0 5,-1 7,-4 3,-3 4,-9 4,-18 0,-9 -1,-14 -4,-17 -2,-3 -4,-5 -7,-5 -3,0 -6,2 -8,4 -2,3 -3,9 -3,18z"/>
   <path id="5" class="fil4" d="M2496 1357c0,-6 1,-11 2,-15 1,-4 3,-7 6,-9 3,-2 6,-3 10,-3 3,0 5,0 7,2 3,1 4,2 6,5 1,2 2,4 3,8 1,3 1,7 1,12 0,7 0,12 -2,16 -1,4 -3,7 -6,9 -2,2 -5,3 -9,3 -5,0 -10,-2 -13,-6 -3,-4 -5,-12 -5,-22zm7 0c0,9 1,15 3,18 2,3 5,4 8,4 3,0 5,-1 7,-4 2,-3 3,-9 3,-18 0,-9 -1,-14 -3,-17 -2,-3 -4,-5 -7,-5 -3,0 -6,2 -8,4 -2,3 -3,9 -3,18z"/>
   <path class="fil4" d="M2371 1545l6 0c1,3 2,6 4,8 2,1 4,2 7,2 3,0 6,-1 8,-3 2,-3 3,-6 3,-10 0,-4 -1,-7 -3,-9 -2,-2 -5,-3 -8,-3 -2,0 -4,0 -6,1 -2,1 -3,2 -4,4l-6 -1 5 -28 27 0 0 7 -22 0 -3 14c4,-2 7,-3 10,-3 5,0 9,1 12,5 4,3 5,7 5,12 0,5 -1,9 -4,13 -4,4 -8,7 -14,7 -5,0 -9,-2 -12,-5 -3,-2 -5,-6 -5,-11z"/>
   <path id="1" class="fil4" d="M2447 1519l-7 0c0,-2 -1,-4 -2,-5 -2,-2 -4,-3 -7,-3 -2,0 -4,0 -6,2 -2,1 -3,3 -4,6 -2,3 -2,7 -2,13 1,-3 3,-4 5,-6 3,-1 5,-1 8,-1 4,0 8,1 11,4 3,4 5,8 5,13 0,3 -1,7 -2,10 -2,2 -4,5 -7,6 -2,2 -5,3 -8,3 -6,0 -10,-2 -14,-7 -3,-4 -5,-10 -5,-20 0,-10 2,-18 6,-22 3,-4 8,-7 13,-7 5,0 8,2 11,4 3,2 4,6 5,10zm-27 23c0,2 0,5 1,7 1,2 2,3 4,4 2,2 4,2 6,2 3,0 5,-1 7,-3 2,-3 3,-6 3,-9 0,-4 -1,-7 -3,-9 -2,-2 -5,-4 -8,-4 -3,0 -5,2 -7,4 -2,2 -3,5 -3,8z"/>
   <path id="2" class="fil4" d="M2454 1533c0,-6 1,-11 2,-15 2,-4 3,-7 6,-9 3,-2 6,-4 10,-4 3,0 5,1 7,2 3,1 4,3 6,5 1,2 2,5 3,8 1,3 1,8 1,13 0,6 0,11 -2,15 -1,4 -3,7 -5,9 -3,2 -6,4 -10,4 -5,0 -9,-2 -12,-6 -4,-5 -6,-12 -6,-22zm7 0c0,9 1,15 3,18 2,3 5,4 8,4 3,0 5,-1 7,-4 3,-3 4,-9 4,-18 0,-9 -1,-15 -4,-18 -2,-3 -4,-4 -7,-4 -3,0 -6,1 -8,4 -2,3 -3,9 -3,18z"/>
   <path id="3" class="fil4" d="M2496 1533c0,-6 1,-11 2,-15 1,-4 3,-7 6,-9 3,-2 6,-4 10,-4 3,0 5,1 7,2 3,1 4,3 6,5 1,2 2,5 3,8 1,3 1,8 1,13 0,6 0,11 -2,15 -1,4 -3,7 -6,9 -2,2 -5,4 -9,4 -5,0 -10,-2 -13,-6 -3,-5 -5,-12 -5,-22zm7 0c0,9 1,15 3,18 2,3 5,4 8,4 3,0 5,-1 7,-4 2,-3 3,-9 3,-18 0,-9 -1,-15 -3,-18 -2,-3 -4,-4 -7,-4 -3,0 -6,1 -8,4 -2,3 -3,9 -3,18z"/>
   <path class="fil4" d="M2333 1731l-7 0 0 -42c-2,1 -4,3 -6,4 -3,2 -5,3 -7,3l0 -6c3,-2 7,-4 9,-6 3,-3 5,-5 6,-7l5 0 0 54z"/>
   <path id="1" class="fil4" d="M2384 1690l-7 0c0,-2 -1,-4 -2,-5 -2,-2 -4,-3 -7,-3 -2,0 -4,1 -5,2 -2,1 -4,3 -5,6 -1,3 -2,7 -2,13 1,-3 3,-4 6,-6 2,-1 4,-1 7,-1 4,0 8,1 11,5 3,3 5,7 5,12 0,4 -1,7 -2,10 -2,3 -4,5 -6,6 -3,2 -6,3 -9,3 -5,0 -10,-2 -13,-6 -4,-5 -6,-11 -6,-21 0,-10 2,-18 6,-22 3,-4 8,-6 14,-6 4,0 7,1 10,3 3,3 4,6 5,10zm-27 23c0,3 0,5 1,7 1,2 3,3 4,5 2,1 4,1 6,1 3,0 5,-1 7,-3 2,-2 3,-6 3,-9 0,-4 -1,-7 -3,-9 -2,-2 -4,-3 -7,-3 -3,0 -6,1 -8,3 -2,2 -3,5 -3,8z"/>
   <path id="2" class="fil4" d="M2395 1731l0 -8 8 0 0 8c0,2 -1,5 -2,6 -1,2 -2,3 -5,4l-1 -2c1,-1 2,-2 3,-3 0,-1 1,-3 1,-5l-4 0z"/>
   <path id="3" class="fil4" d="M2447 1690l-7 0c0,-2 -1,-4 -2,-5 -2,-2 -4,-3 -7,-3 -2,0 -4,1 -6,2 -2,1 -3,3 -4,6 -2,3 -2,7 -2,13 1,-3 3,-4 6,-6 2,-1 4,-1 7,-1 4,0 8,1 11,5 3,3 5,7 5,12 0,4 -1,7 -2,10 -2,3 -4,5 -6,6 -3,2 -6,3 -9,3 -6,0 -10,-2 -14,-6 -3,-5 -5,-11 -5,-21 0,-10 2,-18 6,-22 3,-4 8,-6 13,-6 5,0 8,1 11,3 3,3 4,6 5,10zm-27 23c0,3 0,5 1,7 1,2 2,3 4,5 2,1 4,1 6,1 3,0 5,-1 7,-3 2,-2 3,-6 3,-9 0,-4 -1,-7 -3,-9 -2,-2 -5,-3 -8,-3 -3,0 -5,1 -7,3 -2,2 -3,5 -3,8z"/>
   <path id="4" class="fil4" d="M2454 1717l7 -1c1,3 2,6 4,8 2,1 4,2 7,2 3,0 5,-1 8,-3 2,-3 3,-6 3,-10 0,-4 -1,-7 -3,-9 -2,-2 -5,-3 -8,-3 -3,0 -5,0 -6,1 -2,1 -3,3 -4,4l-7 -1 6 -28 26 0 0 7 -21 0 -3 14c3,-2 7,-3 10,-3 5,0 9,2 12,5 3,3 5,7 5,12 0,5 -1,10 -4,13 -4,4 -8,7 -14,7 -5,0 -9,-2 -12,-5 -4,-2 -5,-6 -6,-10z"/>
   <path id="5" class="fil4" d="M2517 1731l0 -13 -23 0 0 -6 25 -35 5 0 0 35 7 0 0 6 -7 0 0 13 -7 0zm0 -19l0 -25 -17 25 17 0z"/>
   <path class="fil4" d="M2333 1888l-7 0 0 -42c-2,1 -4,3 -6,5 -3,1 -5,2 -7,3l0 -6c3,-2 7,-4 9,-7 3,-2 5,-5 6,-7l5 0 0 54z"/>
   <path id="1" class="fil4" d="M2350 1874l6 -1c1,4 2,6 4,8 2,2 4,3 7,3 3,0 6,-2 8,-4 2,-2 3,-5 3,-8 0,-3 -1,-5 -3,-7 -2,-2 -5,-3 -8,-3 -1,0 -2,0 -4,1l0 -6c1,0 1,0 1,0 3,0 6,-1 8,-2 2,-2 3,-4 3,-7 0,-3 0,-5 -2,-6 -2,-2 -4,-3 -6,-3 -3,0 -5,1 -7,3 -2,1 -3,4 -3,7l-7 -1c1,-4 3,-8 6,-10 3,-3 6,-4 10,-4 3,0 6,1 9,2 2,1 4,3 5,5 2,2 2,5 2,7 0,2 0,4 -2,6 -1,2 -3,4 -5,5 3,1 5,2 7,4 2,3 3,6 3,9 0,5 -2,9 -5,12 -4,3 -8,5 -13,5 -5,0 -9,-1 -12,-4 -3,-3 -5,-7 -5,-11z"/>
   <path id="2" class="fil4" d="M2395 1888l0 -7 8 0 0 7c0,3 -1,5 -2,7 -1,2 -2,3 -5,4l-1 -3c1,-1 2,-2 3,-3 0,-1 1,-3 1,-5l-4 0z"/>
   <path id="3" class="fil4" d="M2412 1862c0,-7 1,-12 2,-16 2,-4 4,-7 6,-9 3,-2 6,-3 10,-3 3,0 5,1 8,2 2,1 4,3 5,5 1,2 2,5 3,8 1,3 1,7 1,13 0,6 0,11 -1,15 -2,4 -4,7 -6,9 -3,2 -6,3 -10,3 -5,0 -9,-2 -12,-6 -4,-4 -6,-11 -6,-21zm7 0c0,8 1,14 3,17 2,3 5,5 8,5 3,0 6,-2 8,-5 2,-3 3,-9 3,-17 0,-9 -1,-15 -3,-18 -2,-3 -5,-5 -8,-5 -3,0 -6,2 -7,4 -3,4 -4,10 -4,19z"/>
   <path id="4" class="fil4" d="M2454 1862c0,-7 1,-12 2,-16 2,-4 3,-7 6,-9 3,-2 6,-3 10,-3 3,0 5,1 7,2 3,1 4,3 6,5 1,2 2,5 3,8 1,3 1,7 1,13 0,6 0,11 -2,15 -1,4 -3,7 -5,9 -3,2 -6,3 -10,3 -5,0 -9,-2 -12,-6 -4,-4 -6,-11 -6,-21zm7 0c0,8 1,14 3,17 2,3 5,5 8,5 3,0 5,-2 7,-5 3,-3 4,-9 4,-17 0,-9 -1,-15 -4,-18 -2,-3 -4,-5 -7,-5 -3,0 -6,2 -8,4 -2,4 -3,10 -3,19z"/>
   <path id="5" class="fil4" d="M2496 1862c0,-7 1,-12 2,-16 1,-4 3,-7 6,-9 3,-2 6,-3 10,-3 3,0 5,1 7,2 3,1 4,3 6,5 1,2 2,5 3,8 1,3 1,7 1,13 0,6 0,11 -2,15 -1,4 -3,7 -6,9 -2,2 -5,3 -9,3 -5,0 -10,-2 -13,-6 -3,-4 -5,-11 -5,-21zm7 0c0,8 1,14 3,17 2,3 5,5 8,5 3,0 5,-2 7,-5 2,-3 3,-9 3,-17 0,-9 -1,-15 -3,-18 -2,-3 -4,-5 -7,-5 -3,0 -6,2 -8,4 -2,4 -3,10 -3,19z"/>
   <path class="fil4" d="M267 946l0 -54 18 0c4,0 8,0 10,0 3,1 6,2 8,4 3,3 5,6 6,9 1,4 2,9 2,13 0,4 0,8 -1,11 -1,3 -2,6 -4,8 -1,2 -3,4 -5,5 -2,1 -4,2 -6,3 -3,0 -6,1 -9,1l-19 0zm7 -7l11 0c4,0 7,0 9,-1 2,0 3,-1 4,-3 2,-1 3,-4 4,-6 1,-3 2,-7 2,-11 0,-5 -1,-10 -3,-13 -2,-3 -4,-5 -7,-6 -2,-1 -5,-1 -9,-1l-11 0 0 41z"/>
   <path id="1" class="fil4" d="M346 941c-3,2 -5,3 -7,4 -3,1 -5,1 -8,1 -4,0 -7,-1 -10,-3 -2,-2 -3,-5 -3,-8 0,-2 0,-3 1,-5 1,-2 2,-3 4,-4 1,-1 3,-1 4,-2 2,0 4,-1 6,-1 6,-1 10,-1 12,-2 0,-1 0,-2 0,-2 0,-3 0,-5 -2,-6 -1,-1 -4,-2 -7,-2 -3,0 -6,1 -7,2 -2,1 -3,3 -3,6l-7 -1c1,-3 2,-5 3,-7 1,-2 3,-3 6,-4 2,-1 5,-1 9,-1 3,0 6,0 8,1 2,1 3,2 4,3 1,1 2,2 3,4 0,1 0,3 0,6l0 9c0,6 0,10 0,12 1,1 1,3 2,5l-7 0c-1,-2 -1,-3 -1,-5zm-1 -15c-2,1 -6,2 -11,2 -2,1 -4,1 -5,2 -2,0 -2,1 -3,2 -1,1 -1,2 -1,3 0,2 1,3 2,4 1,2 3,2 6,2 2,0 5,0 7,-1 2,-2 3,-3 4,-5 1,-2 1,-4 1,-7l0 -2z"/>
   <path id="2" class="fil4" d="M376 940l1 5c-2,1 -3,1 -5,1 -2,0 -4,0 -5,-1 -2,-1 -2,-2 -3,-3 -1,-1 -1,-4 -1,-8l0 -22 -5 0 0 -6 5 0 0 -9 7 -4 0 13 6 0 0 6 -6 0 0 22c0,2 0,4 0,4 0,1 1,1 1,1 1,1 2,1 3,1 0,0 1,0 2,0z"/>
   <path id="3" class="fil4" d="M408 941c-2,2 -4,3 -7,4 -2,1 -4,1 -7,1 -4,0 -8,-1 -10,-3 -2,-2 -3,-5 -3,-8 0,-2 0,-3 1,-5 1,-2 2,-3 3,-4 2,-1 3,-1 5,-2 2,0 3,-1 6,-1 5,-1 9,-1 12,-2 0,-1 0,-2 0,-2 0,-3 -1,-5 -2,-6 -2,-1 -4,-2 -7,-2 -4,0 -6,1 -7,2 -2,1 -3,3 -4,6l-6 -1c0,-3 1,-5 3,-7 1,-2 3,-3 6,-4 2,-1 5,-1 9,-1 3,0 6,0 8,1 2,1 3,2 4,3 1,1 2,2 2,4 1,1 1,3 1,6l0 9c0,6 0,10 0,12 0,1 1,3 2,5l-7 0c-1,-2 -1,-3 -2,-5zm0 -15c-2,1 -6,2 -11,2 -3,1 -5,1 -6,2 -1,0 -2,1 -2,2 -1,1 -1,2 -1,3 0,2 0,3 2,4 1,2 3,2 6,2 2,0 4,0 6,-1 2,-2 4,-3 5,-5 1,-2 1,-4 1,-7l0 -2z"/>
   <path id="4" class="fil4" d="M447 946l0 -54 24 0c4,0 8,0 11,1 2,1 4,3 6,5 1,3 2,5 2,8 0,4 -1,7 -4,10 -2,3 -6,4 -11,5 2,1 3,2 4,3 2,2 4,4 6,7l9 15 -9 0 -7 -12c-2,-3 -4,-5 -5,-7 -1,-2 -3,-3 -4,-4 -1,0 -2,-1 -3,-1 -1,0 -2,0 -4,0l-8 0 0 24 -7 0zm7 -31l15 0c3,0 6,0 8,-1 2,0 3,-1 4,-3 1,-1 1,-3 1,-5 0,-2 0,-4 -2,-6 -2,-2 -5,-2 -9,-2l-17 0 0 17z"/>
   <path id="5" class="fil4" d="M526 941c-3,2 -5,3 -7,4 -3,1 -5,1 -8,1 -4,0 -7,-1 -10,-3 -2,-2 -3,-5 -3,-8 0,-2 0,-3 1,-5 1,-2 2,-3 4,-4 1,-1 3,-1 4,-2 2,0 4,-1 6,-1 6,-1 10,-1 12,-2 0,-1 0,-2 0,-2 0,-3 0,-5 -2,-6 -1,-1 -4,-2 -7,-2 -3,0 -6,1 -7,2 -2,1 -3,3 -4,6l-6 -1c1,-3 2,-5 3,-7 1,-2 3,-3 6,-4 2,-1 5,-1 9,-1 3,0 6,0 8,1 2,1 3,2 4,3 1,1 2,2 3,4 0,1 0,3 0,6l0 9c0,6 0,10 0,12 1,1 1,3 2,5l-7 0c-1,-2 -1,-3 -1,-5zm-1 -15c-2,1 -6,2 -11,2 -2,1 -4,1 -5,2 -2,0 -2,1 -3,2 -1,1 -1,2 -1,3 0,2 1,3 2,4 1,2 3,2 6,2 2,0 5,0 7,-1 2,-2 3,-3 4,-5 1,-2 1,-4 1,-7l0 -2z"/>
   <path id="6" class="fil4" d="M542 946l0 -40 6 0 0 6c3,-4 7,-6 12,-6 3,0 5,0 7,1 2,1 3,2 4,3 1,2 2,3 2,5 1,1 1,4 1,7l0 24 -7 0 0 -24c0,-3 0,-5 -1,-6 0,-2 -1,-3 -2,-3 -2,-1 -3,-2 -5,-2 -3,0 -5,1 -7,3 -2,2 -3,5 -3,10l0 22 -7 0z"/>
   <path id="7" class="fil4" d="M583 949l6 1c0,2 1,3 2,4 2,1 4,2 7,2 3,0 6,-1 7,-2 2,-1 3,-3 4,-5 0,-1 0,-4 0,-9 -3,4 -6,6 -11,6 -5,0 -9,-2 -12,-6 -3,-4 -5,-9 -5,-14 0,-4 1,-7 2,-10 2,-4 4,-6 6,-8 3,-1 6,-2 9,-2 5,0 9,2 12,5l0 -5 6 0 0 34c0,6 -1,11 -2,13 -1,3 -3,5 -6,6 -3,2 -6,2 -10,2 -5,0 -8,-1 -11,-3 -3,-2 -4,-5 -4,-9zm5 -24c0,5 1,9 3,12 2,2 5,3 8,3 3,0 5,-1 7,-3 3,-3 4,-6 4,-11 0,-5 -1,-9 -4,-11 -2,-3 -4,-4 -7,-4 -3,0 -6,1 -8,4 -2,2 -3,6 -3,10z"/>
   <path id="8" class="fil4" d="M652 933l7 1c-1,4 -3,7 -6,9 -3,2 -6,3 -11,3 -6,0 -10,-1 -13,-5 -4,-3 -5,-8 -5,-15 0,-6 1,-11 5,-15 3,-4 7,-5 13,-5 5,0 9,1 13,5 3,4 5,9 5,15 0,0 0,1 -1,2l-29 0c1,4 2,7 4,10 2,2 5,3 8,3 3,0 5,-1 6,-2 2,-1 3,-3 4,-6zm-21 -11l22 0c-1,-3 -2,-5 -3,-7 -2,-3 -5,-4 -8,-4 -3,0 -6,1 -8,3 -2,2 -3,5 -3,8z"/>
   <polygon class="fil4" points="849,946 849,892 856,892 856,939 882,939 882,946 "/>
   <path id="1" class="fil4" d="M915 941c-2,2 -4,3 -7,4 -2,1 -4,2 -7,2 -4,0 -8,-1 -10,-4 -2,-2 -3,-4 -3,-8 0,-1 0,-3 1,-5 1,-1 2,-3 3,-4 2,-1 3,-1 5,-2 1,0 3,0 6,-1 5,0 9,-1 12,-2 0,-1 0,-1 0,-2 0,-2 -1,-4 -2,-5 -2,-2 -4,-3 -8,-3 -3,0 -5,1 -6,2 -2,1 -3,3 -4,6l-6 -1c0,-3 1,-5 3,-7 1,-2 3,-3 6,-4 2,-1 5,-1 8,-1 4,0 6,0 9,1 2,1 3,2 4,3 1,1 2,3 2,5 0,1 1,3 1,6l0 8c0,7 0,10 0,12 0,2 1,3 2,5l-7 0c-1,-2 -1,-3 -2,-5zm0 -15c-3,1 -6,2 -11,3 -3,0 -5,1 -6,1 -1,1 -2,1 -2,2 -1,1 -1,2 -1,3 0,2 0,3 2,5 1,1 3,1 6,1 2,0 4,0 6,-1 2,-1 4,-3 5,-5 0,-1 1,-3 1,-6l0 -3z"/>
   <path id="2" class="fil4" d="M929 934l7 -1c0,3 1,5 3,6 1,1 4,2 7,2 3,0 5,0 7,-2 1,-1 2,-2 2,-4 0,-2 -1,-3 -2,-4 -1,0 -3,-1 -7,-2 -5,-1 -8,-2 -10,-3 -2,-1 -3,-2 -4,-4 -1,-1 -2,-3 -2,-5 0,-2 1,-3 1,-5 1,-1 2,-2 4,-3 1,-1 2,-2 4,-2 2,-1 4,-1 6,-1 3,0 5,0 8,1 2,1 4,2 5,4 1,1 2,3 2,6l-6 1c-1,-2 -2,-4 -3,-5 -1,-1 -3,-2 -6,-2 -3,0 -5,1 -6,2 -2,1 -2,2 -2,3 0,1 0,2 0,3 1,0 2,1 3,1 1,1 3,1 6,2 4,1 8,2 10,3 1,1 3,2 4,4 1,1 2,3 2,5 0,2 -1,5 -2,7 -2,1 -3,3 -6,4 -2,1 -5,2 -8,2 -5,0 -9,-1 -12,-4 -2,-2 -4,-5 -5,-9z"/>
   <path id="3" class="fil4" d="M984 940l1 6c-2,0 -4,0 -5,0 -3,0 -5,0 -6,-1 -1,-1 -2,-2 -3,-3 0,-1 0,-4 0,-8l0 -22 -5 0 0 -5 5 0 0 -10 6 -4 0 14 7 0 0 5 -7 0 0 23c0,2 0,3 1,3 0,1 0,1 1,2 0,0 1,0 2,0 1,0 2,0 3,0z"/>
   <path id="4" class="fil4" d="M1044 905l-7 1c0,-3 -1,-5 -2,-6 -2,-2 -4,-3 -7,-3 -2,0 -4,1 -5,2 -3,1 -4,4 -5,6 -2,3 -2,8 -2,13 1,-2 3,-4 6,-5 2,-2 4,-2 7,-2 4,0 8,1 11,5 3,3 5,7 5,12 0,4 -1,7 -2,10 -2,3 -4,5 -6,6 -3,2 -6,3 -9,3 -6,0 -10,-2 -14,-6 -3,-4 -5,-11 -5,-20 0,-11 2,-18 6,-23 3,-4 8,-6 14,-6 4,0 7,1 10,3 3,3 4,6 5,10zm-27 23c0,3 0,5 1,7 1,2 3,4 4,5 2,1 4,1 6,1 3,0 5,-1 7,-3 2,-2 3,-5 3,-9 0,-4 -1,-7 -3,-9 -2,-2 -4,-3 -8,-3 -2,0 -5,1 -7,3 -2,2 -3,5 -3,8z"/>
   <path id="5" class="fil4" d="M1075 946l0 -54 10 0 13 38c1,4 2,6 3,8 0,-2 1,-5 3,-9l13 -37 9 0 0 54 -7 0 0 -45 -15 45 -7 0 -15 -46 0 46 -7 0z"/>
   <path id="6" class="fil4" d="M1134 926c0,-7 2,-12 6,-16 4,-3 8,-4 13,-4 5,0 9,2 13,5 3,4 5,9 5,15 0,5 -1,9 -2,12 -2,2 -4,5 -7,6 -3,2 -6,3 -9,3 -6,0 -10,-2 -14,-6 -3,-3 -5,-8 -5,-15zm7 0c0,5 1,9 3,11 3,3 5,4 9,4 3,0 6,-1 8,-4 2,-2 3,-6 3,-11 0,-5 -1,-8 -3,-11 -2,-2 -5,-4 -8,-4 -4,0 -6,2 -9,4 -2,3 -3,6 -3,11z"/>
   <path id="7" class="fil4" d="M1179 946l0 -39 6 0 0 5c2,-4 7,-6 12,-6 2,0 5,0 7,1 1,1 3,2 4,3 1,2 2,3 2,5 0,2 0,4 0,7l0 24 -6 0 0 -24c0,-3 -1,-5 -1,-6 -1,-1 -1,-2 -3,-3 -1,-1 -3,-1 -4,-1 -3,0 -6,0 -8,2 -2,2 -3,5 -3,10l0 22 -6 0z"/>
   <path id="8" class="fil4" d="M1235 940l1 6c-2,0 -4,0 -5,0 -3,0 -4,0 -6,-1 -1,-1 -2,-2 -3,-3 0,-1 0,-4 0,-8l0 -22 -5 0 0 -5 5 0 0 -10 6 -4 0 14 7 0 0 5 -7 0 0 23c0,2 0,3 1,3 0,1 0,1 1,2 0,0 1,0 2,0 1,0 2,0 3,0z"/>
   <path id="9" class="fil4" d="M1241 946l0 -54 7 0 0 19c3,-3 7,-5 12,-5 3,0 5,0 7,2 2,1 4,2 5,4 1,2 1,5 1,9l0 25 -6 0 0 -25c0,-3 -1,-6 -3,-7 -1,-2 -3,-2 -6,-2 -2,0 -3,0 -5,1 -2,1 -3,3 -4,4 -1,2 -1,4 -1,7l0 22 -7 0z"/>
   <path class="fil5" d="M1565 938l20 -54 8 0 22 54 -8 0 -6 -16 -23 0 -6 16 -7 0zm15 -22l19 0 -6 -15c-2,-4 -3,-8 -4,-11 -1,3 -2,7 -3,10l-6 16z"/>
   <path id="1" class="fil5" d="M1620 953l0 -54 6 0 0 5c2,-2 3,-3 5,-4 2,-1 4,-2 6,-2 4,0 7,1 9,3 3,2 5,4 6,7 1,3 2,7 2,10 0,4 -1,8 -2,11 -2,3 -4,6 -6,8 -3,1 -6,2 -9,2 -2,0 -4,0 -6,-1 -2,-1 -3,-2 -4,-4l0 19 -7 0zm6 -34c0,5 1,9 3,11 2,2 5,4 7,4 3,0 6,-2 8,-4 2,-3 3,-6 3,-12 0,-5 -1,-8 -3,-11 -2,-2 -4,-3 -7,-3 -3,0 -6,1 -8,3 -2,3 -3,7 -3,12z"/>
   <path id="2" class="fil5" d="M1662 953l0 -54 6 0 0 5c1,-2 3,-3 5,-4 2,-1 4,-2 6,-2 4,0 7,1 9,3 3,2 5,4 6,7 1,3 2,7 2,10 0,4 -1,8 -2,11 -2,3 -4,6 -7,8 -2,1 -5,2 -8,2 -2,0 -4,0 -6,-1 -2,-1 -3,-2 -4,-4l0 19 -7 0zm6 -34c0,5 1,9 3,11 2,2 4,4 7,4 3,0 6,-2 8,-4 2,-3 3,-6 3,-12 0,-5 -1,-8 -3,-11 -2,-2 -4,-3 -7,-3 -3,0 -6,1 -8,3 -2,3 -3,7 -3,12z"/>
   <polygon id="3" class="fil5" points="1704,938 1704,884 1710,884 1710,938 "/>
   <path id="4" class="fil5" d="M1720 953l-1 -6c2,1 3,1 4,1 2,0 3,-1 4,-1 1,-1 1,-1 2,-2 0,-1 1,-2 2,-5 0,0 0,-1 1,-2l-15 -39 7 0 8 23c1,3 2,6 3,9 1,-3 2,-6 3,-9l8 -23 7 0 -15 40c-2,4 -3,7 -4,9 -1,2 -2,3 -4,5 -2,1 -3,1 -5,1 -2,0 -3,0 -5,-1z"/>
   <line class="fil2 str1" x1="185" y1="732" x2="2610" y2= "732" />
  </g>
  <ellipse class="fil0" cx="2703" cy="328" rx="327" ry="328"/>
  <g id="_2490682380128">
   <path class="fil6" d="M2631 433c39,27 90,30 131,8 58,-32 78,-82 66,-146 4,-1 8,-2 11,-3 4,-1 8,-2 12,-3 15,53 -2,111 -42,149 -53,50 -134,56 -194,14 -5,5 -10,11 -16,16 -5,-22 -9,-43 -13,-65 21,5 42,9 63,13 -6,6 -11,11 -18,17z"/>
   <path class="fil6" d="M2789 201c6,-6 12,-12 18,-19 5,22 9,43 13,65 -21,-4 -42,-9 -64,-13 5,-5 10,-10 15,-14l-1 -2c-42,-23 -86,-26 -128,-2 -56,33 -75,82 -63,145 -8,2 -15,4 -23,6 -15,-55 2,-114 45,-152 53,-47 130,-52 188,-14z"/>
  </g>
 </g>
</svg>
