<?xml version="1.0" encoding="UTF-8"?>
<!DOCTYPE svg PUBLIC "-//W3C//DTD SVG 1.1//EN" "http://www.w3.org/Graphics/SVG/1.1/DTD/svg11.dtd">
<!-- Creator: CorelDRAW X8 -->
<svg xmlns="http://www.w3.org/2000/svg" xml:space="preserve" width="2.18112in" height="2in" version="1.1" style="shape-rendering:geometricPrecision; text-rendering:geometricPrecision; image-rendering:optimizeQuality; fill-rule:evenodd; clip-rule:evenodd"
viewBox="0 0 265 243"
 xmlns:xlink="http://www.w3.org/1999/xlink">
 <defs>
  <style type="text/css">
   <![CDATA[
    .str3 {stroke:#1A237E;stroke-width:3.13676}
    .str4 {stroke:#868EE0;stroke-width:3.13676}
    .str0 {stroke:#1A237E;stroke-width:9.41206}
    .str1 {stroke:#1A237E;stroke-width:3.13765}
    .str2 {stroke:#868EE0;stroke-width:3.13765}
    .fil1 {fill:none}
    .fil0 {fill:#FEFEFE}
    .fil2 {fill:#868EE0;fill-rule:nonzero}
   ]]>
  </style>
 </defs>
 <g id="Layer_x0020_1">
  <metadata id="CorelCorpID_0Corel-Layer"/>
  <rect class="fil0 str0" x="5" y="5" width="255" height="233"/>
  <rect class="fil1 str1" x="76" y="34" width="51.636" height="40.4737"/>
  <rect class="fil1 str2" x="76" y="101" width="51.636" height="40.4737"/>
  <rect class="fil1 str1" x="76" y="168" width="51.636" height="40.4737"/>
  <line class="fil1 str3" x1="140" y1="54" x2="178" y2= "54" />
  <line class="fil1 str4" x1="140" y1="121" x2="178" y2= "121" />
  <line class="fil1 str3" x1="140" y1="189" x2="178" y2= "189" />
  <path class="fil2" d="M97 133c-1,0 -2,0 -2,-1l-8 -8c-1,-1 -1,-3 0,-4 1,-1 3,-1 4,0l6 5 15 -14c1,-1 3,-1 4,0 1,1 1,3 0,4l-17 17c-1,1 -1,1 -2,1z"/>
 </g>
</svg>
