<?xml version="1.0" encoding="UTF-8"?>
<!DOCTYPE svg PUBLIC "-//W3C//DTD SVG 1.1//EN" "http://www.w3.org/Graphics/SVG/1.1/DTD/svg11.dtd">
<!-- Creator: CorelDRAW X8 -->
<svg xmlns="http://www.w3.org/2000/svg" xml:space="preserve" width="2.18112in" height="2in" version="1.1" style="shape-rendering:geometricPrecision; text-rendering:geometricPrecision; image-rendering:optimizeQuality; fill-rule:evenodd; clip-rule:evenodd"
viewBox="0 0 265 243"
 xmlns:xlink="http://www.w3.org/1999/xlink">
 <defs>
  <style type="text/css">
   <![CDATA[
    .str0 {stroke:#1A237E;stroke-width:9.41206}
    .fil0 {fill:#FEFEFE}
    .fil2 {fill:#1A237E}
    .fil1 {fill:#1A237E;fill-rule:nonzero}
   ]]>
  </style>
 </defs>
 <g id="Layer_x0020_1">
  <metadata id="CorelCorpID_0Corel-Layer"/>
  <rect class="fil0 str0" x="5" y="5" width="255" height="233"/>
  <g id="_2490682376576">
   <g>
    <g>
     <polygon class="fil1" points="156,51 28,51 28,46 156,46 "/>
    </g>
    <g>
     <polygon class="fil1" points="236,51 187,51 187,46 236,46 "/>
    </g>
    <circle class="fil2" cx="172" cy="49" r="7"/>
   </g>
   <g>
    <g>
     <polygon class="fil1" points="108,95 236,95 236,100 108,100 "/>
    </g>
    <g>
     <polygon class="fil1" points="28,95 78,95 78,100 28,100 "/>
    </g>
    <circle class="fil2" cx="93" cy="97" r="7"/>
   </g>
   <g>
    <g>
     <polygon class="fil1" points="156,148 28,148 28,143 156,143 "/>
    </g>
    <g>
     <polygon class="fil1" points="236,148 187,148 187,143 236,143 "/>
    </g>
    <circle class="fil2" cx="172" cy="146" r="7"/>
   </g>
   <g>
    <g>
     <polygon class="fil1" points="108,192 236,192 236,196 108,196 "/>
    </g>
    <g>
     <polygon class="fil1" points="28,192 78,192 78,196 28,196 "/>
    </g>
    <circle class="fil2" cx="93" cy="194" r="7"/>
   </g>
  </g>
 </g>
</svg>
