<?xml version="1.0" encoding="UTF-8"?>
<!DOCTYPE svg PUBLIC "-//W3C//DTD SVG 1.1//EN" "http://www.w3.org/Graphics/SVG/1.1/DTD/svg11.dtd">
<!-- Creator: CorelDRAW X8 -->
<svg xmlns="http://www.w3.org/2000/svg" xml:space="preserve" width="2.03492in" height="2in" version="1.1" style="shape-rendering:geometricPrecision; text-rendering:geometricPrecision; image-rendering:optimizeQuality; fill-rule:evenodd; clip-rule:evenodd"
viewBox="0 0 144 142"
 xmlns:xlink="http://www.w3.org/1999/xlink">
 <defs>
  <style type="text/css">
   <![CDATA[
    .fil0 {fill:#1A237E;fill-rule:nonzero}
   ]]>
  </style>
 </defs>
 <g id="Layer_x0020_1">
  <metadata id="CorelCorpID_0Corel-Layer"/>
  <g id="_2490682374752">
   <path class="fil0" d="M57 60c0,1 -1,2 -2,2 -2,0 -3,-1 -3,-2 0,-2 1,-3 3,-3 1,0 2,1 2,3z"/>
   <path class="fil0" d="M75 60c0,1 -1,2 -3,2 -1,0 -2,-1 -2,-2 0,-2 1,-3 2,-3 2,0 3,1 3,3z"/>
   <path class="fil0" d="M92 60c0,1 -1,2 -2,2 -2,0 -3,-1 -3,-2 0,-2 1,-3 3,-3 1,0 2,1 2,3z"/>
   <path class="fil0" d="M109 60c0,1 -1,2 -2,2 -1,0 -2,-1 -2,-2 0,-2 1,-3 2,-3 1,0 2,1 2,3z"/>
   <path class="fil0" d="M127 60c0,1 -1,2 -3,2 -1,0 -2,-1 -2,-2 0,-2 1,-3 2,-3 2,0 3,1 3,3z"/>
   <path class="fil0" d="M22 80c0,1 -1,2 -2,2 -1,0 -3,-1 -3,-2 0,-2 2,-3 3,-3 1,0 2,1 2,3z"/>
   <path class="fil0" d="M40 80c0,1 -1,2 -3,2 -1,0 -2,-1 -2,-2 0,-2 1,-3 2,-3 2,0 3,1 3,3z"/>
   <path class="fil0" d="M57 80c0,1 -1,2 -2,2 -2,0 -3,-1 -3,-2 0,-2 1,-3 3,-3 1,0 2,1 2,3z"/>
   <path class="fil0" d="M75 80c0,1 -1,2 -3,2 -1,0 -2,-1 -2,-2 0,-2 1,-3 2,-3 2,0 3,1 3,3z"/>
   <path class="fil0" d="M92 80c0,1 -1,2 -2,2 -2,0 -3,-1 -3,-2 0,-2 1,-3 3,-3 1,0 2,1 2,3z"/>
   <path class="fil0" d="M109 80c0,1 -1,2 -2,2 -1,0 -2,-1 -2,-2 0,-2 1,-3 2,-3 1,0 2,1 2,3z"/>
   <path class="fil0" d="M127 80c0,1 -1,2 -3,2 -1,0 -2,-1 -2,-2 0,-2 1,-3 2,-3 2,0 3,1 3,3z"/>
   <path class="fil0" d="M22 97c0,1 -1,3 -2,3 -1,0 -3,-2 -3,-3 0,-1 2,-2 3,-2 1,0 2,1 2,2z"/>
   <path class="fil0" d="M40 97c0,1 -1,3 -3,3 -1,0 -2,-2 -2,-3 0,-1 1,-2 2,-2 2,0 3,1 3,2z"/>
   <path class="fil0" d="M57 97c0,1 -1,3 -2,3 -2,0 -3,-2 -3,-3 0,-1 1,-2 3,-2 1,0 2,1 2,2z"/>
   <path class="fil0" d="M75 97c0,1 -1,3 -3,3 -1,0 -2,-2 -2,-3 0,-1 1,-2 2,-2 2,0 3,1 3,2z"/>
   <path class="fil0" d="M92 97c0,1 -1,3 -2,3 -2,0 -3,-2 -3,-3 0,-1 1,-2 3,-2 1,0 2,1 2,2z"/>
   <path class="fil0" d="M109 97c0,1 -1,3 -2,3 -1,0 -2,-2 -2,-3 0,-1 1,-2 2,-2 1,0 2,1 2,2z"/>
   <path class="fil0" d="M127 97c0,1 -1,3 -3,3 -1,0 -2,-2 -2,-3 0,-1 1,-2 2,-2 2,0 3,1 3,2z"/>
   <path class="fil0" d="M22 117c0,1 -1,2 -2,2 -1,0 -3,-1 -3,-2 0,-1 2,-3 3,-3 1,0 2,2 2,3z"/>
   <path class="fil0" d="M40 117c0,1 -1,2 -3,2 -1,0 -2,-1 -2,-2 0,-1 1,-3 2,-3 2,0 3,2 3,3z"/>
   <path class="fil0" d="M57 117c0,1 -1,2 -2,2 -2,0 -3,-1 -3,-2 0,-1 1,-3 3,-3 1,0 2,2 2,3z"/>
   <path class="fil0" d="M75 117c0,1 -1,2 -3,2 -1,0 -2,-1 -2,-2 0,-1 1,-3 2,-3 2,0 3,2 3,3z"/>
   <path class="fil0" d="M92 117c0,1 -1,2 -2,2 -2,0 -3,-1 -3,-2 0,-1 1,-3 3,-3 1,0 2,2 2,3z"/>
   <path class="fil0" d="M65 0c-2,0 -3,1 -3,2 0,2 1,3 3,3 3,0 6,2 7,5l5 0c-1,-6 -6,-10 -12,-10z"/>
   <path class="fil0" d="M80 0c-2,0 -3,1 -3,2 0,2 1,3 3,3 3,0 6,2 7,5l5 0c-1,-6 -6,-10 -12,-10z"/>
   <path class="fil0" d="M95 0c-2,0 -3,1 -3,2 0,2 1,3 3,3 3,0 6,2 7,5l5 0c-1,-6 -6,-10 -12,-10z"/>
   <path class="fil0" d="M107 10c0,1 0,2 0,2 0,7 -6,13 -12,13 -2,0 -3,-1 -3,-3 0,-1 1,-2 3,-2 4,0 7,-3 7,-8 0,0 0,-1 0,-2l-10 0c0,1 0,2 0,2 0,7 -6,13 -12,13 -2,0 -3,-1 -3,-3 0,-1 1,-2 3,-2 4,0 7,-3 7,-8 0,0 0,-1 0,-2l-10 0c0,1 0,2 0,2 0,7 -5,13 -12,13 -2,0 -3,-1 -3,-3 0,-1 1,-2 3,-2 4,0 7,-3 7,-8 0,0 0,-1 0,-2l-10 0c0,1 0,2 0,2 0,7 -5,13 -12,13 -2,0 -3,-1 -3,-3 0,-1 1,-2 3,-2 4,0 7,-3 7,-8 0,0 0,-1 0,-2l-14 0c1,-3 4,-5 7,-5 3,0 6,2 7,5l5 0c-1,-6 -6,-10 -12,-10 -6,0 -11,4 -12,10l-38 0 0 132 144 0 0 -132 -37 0zm32 127l-134 0 0 -95 134 0 0 95z"/>
  </g>
 </g>
</svg>
