<?xml version="1.0" encoding="UTF-8"?>
<!DOCTYPE svg PUBLIC "-//W3C//DTD SVG 1.1//EN" "http://www.w3.org/Graphics/SVG/1.1/DTD/svg11.dtd">
<!-- Creator: CorelDRAW X8 -->
<svg xmlns="http://www.w3.org/2000/svg" xml:space="preserve" width="4.37029in" height="3in" version="1.1" style="shape-rendering:geometricPrecision; text-rendering:geometricPrecision; image-rendering:optimizeQuality; fill-rule:evenodd; clip-rule:evenodd"
viewBox="0 0 11740 8059"
 xmlns:xlink="http://www.w3.org/1999/xlink">
 <defs>
  <style type="text/css">
   <![CDATA[
    .str0 {stroke:#DEDEDE;stroke-width:27.3382}
    .fil1 {fill:none}
    .fil5 {fill:#FEFEFE}
    .fil0 {fill:#1A237E}
    .fil3 {fill:#FEFEFE;fill-rule:nonzero}
    .fil4 {fill:#606062;fill-rule:nonzero}
    .fil2 {fill:#1A237E;fill-rule:nonzero}
   ]]>
  </style>
 </defs>
 <g id="Layer_x0020_1">
  <metadata id="CorelCorpID_0Corel-Layer"/>
  <g id="_2490753839440">
   <path class="fil0" d="M10351 1030l-9953 0c-220,1 -398,178 -398,397l0 6235c0,219 178,396 398,397l9953 0c220,-1 398,-178 398,-397l0 -6235c0,-219 -178,-396 -398,-397zm23 6293c-3,222 -186,399 -409,397l-9187 0c-222,2 -405,-175 -409,-397l0 -5568c4,-222 187,-399 409,-397l9193 0c223,-2 406,175 409,397l0 5568 -6 0z"/>
   <line class="fil1" x1="838" y1="5161" x2="10249" y2= "5121" />
   <polygon class="fil2" points="923,2291 923,1977 987,1977 987,2291 "/>
   <polygon id="1" class="fil2" points="1047,2291 1047,1977 1109,1977 1237,2187 1237,1977 1296,1977 1296,2291 1233,2291 1106,2085 1106,2291 "/>
   <polygon id="2" class="fil2" points="1443,2291 1331,1977 1400,1977 1479,2209 1556,1977 1623,1977 1512,2291 "/>
   <path id="3" class="fil2" d="M1642 2136c0,-32 5,-59 14,-81 7,-16 17,-30 29,-43 13,-12 26,-22 41,-28 19,-8 42,-12 67,-12 47,0 84,14 111,43 28,28 42,68 42,119 0,51 -14,91 -41,119 -28,29 -65,43 -111,43 -46,0 -83,-14 -111,-42 -27,-29 -41,-68 -41,-118zm65 -2c0,35 8,62 25,81 16,18 37,27 62,27 25,0 46,-9 62,-27 17,-18 25,-46 25,-82 0,-36 -8,-63 -24,-81 -16,-17 -37,-26 -63,-26 -26,0 -47,9 -63,27 -16,18 -24,45 -24,81z"/>
   <polygon id="4" class="fil2" points="1993,2291 1993,1977 2057,1977 2057,2291 "/>
   <path id="5" class="fil2" d="M2317 2175l61 19c-9,34 -25,60 -46,77 -22,16 -50,25 -84,25 -41,0 -76,-14 -102,-43 -27,-28 -41,-67 -41,-116 0,-53 14,-93 41,-122 27,-29 62,-43 106,-43 38,0 70,11 94,34 14,13 24,32 32,58l-63 14c-4,-16 -11,-29 -23,-38 -12,-9 -26,-14 -43,-14 -23,0 -42,8 -57,25 -14,17 -21,44 -21,81 0,39 7,68 21,84 14,17 33,26 56,26 17,0 31,-6 43,-16 12,-11 21,-28 26,-51z"/>
   <polygon id="6" class="fil2" points="2433,2291 2433,1977 2665,1977 2665,2030 2496,2030 2496,2100 2653,2100 2653,2153 2496,2153 2496,2238 2671,2238 2671,2291 "/>
   <rect class="fil0" x="495" y="2761" width="9754" height="665"/>
   <path class="fil3" d="M1067 3222l0 -261 99 0c17,0 30,1 39,2 13,2 24,6 33,12 8,6 15,15 21,26 5,10 8,22 8,35 0,22 -7,41 -22,56 -14,16 -39,23 -76,23l-67 0 0 107 -35 0zm35 -137l67 0c23,0 38,-4 48,-13 9,-8 14,-20 14,-35 0,-11 -3,-20 -8,-28 -6,-8 -13,-13 -22,-15 -6,-2 -17,-3 -32,-3l-67 0 0 94z"/>
   <path id="1" class="fil3" d="M1306 3222l0 -189 29 0 0 29c7,-14 14,-23 20,-27 6,-4 13,-6 21,-6 11,0 22,3 33,10l-12 29c-7,-4 -15,-6 -23,-6 -7,0 -13,2 -19,6 -5,4 -9,10 -12,18 -3,11 -5,23 -5,37l0 99 -32 0z"/>
   <path id="2" class="fil3" d="M1416 3127c0,-35 9,-61 29,-77 16,-14 36,-21 59,-21 26,0 48,8 64,25 17,17 25,41 25,71 0,24 -4,43 -11,57 -7,14 -18,25 -32,32 -14,8 -29,12 -46,12 -26,0 -47,-9 -64,-26 -16,-17 -24,-41 -24,-73zm33 0c0,24 5,43 15,55 11,12 24,18 40,18 16,0 30,-6 40,-19 11,-12 16,-30 16,-55 0,-23 -5,-41 -16,-53 -10,-12 -24,-18 -40,-18 -16,0 -29,6 -40,18 -10,12 -15,30 -15,54z"/>
   <path id="3" class="fil3" d="M1753 3222l0 -24c-12,18 -30,28 -53,28 -15,0 -29,-4 -42,-13 -12,-8 -22,-19 -29,-34 -7,-15 -10,-32 -10,-52 0,-18 3,-36 9,-51 6,-15 16,-27 28,-35 13,-8 27,-12 42,-12 12,0 22,2 31,7 9,5 16,11 22,19l0 -94 32 0 0 261 -30 0zm-102 -95c0,25 5,43 16,55 10,12 22,18 36,18 14,0 26,-6 36,-18 10,-11 14,-28 14,-52 0,-26 -5,-45 -15,-57 -10,-12 -22,-18 -36,-18 -15,0 -27,6 -36,18 -10,11 -15,29 -15,54z"/>
   <path id="4" class="fil3" d="M1957 3222l0 -28c-15,21 -35,32 -60,32 -11,0 -21,-2 -31,-7 -10,-4 -17,-9 -22,-16 -4,-6 -8,-14 -9,-23 -2,-7 -2,-17 -2,-30l0 -117 32 0 0 104c0,17 0,28 2,34 2,9 6,15 12,20 7,5 15,7 25,7 9,0 18,-2 27,-7 8,-5 14,-12 17,-20 4,-9 6,-21 6,-37l0 -101 32 0 0 189 -29 0z"/>
   <path id="5" class="fil3" d="M2160 3153l31 4c-3,22 -12,38 -26,51 -14,12 -32,18 -52,18 -26,0 -47,-9 -63,-26 -15,-16 -23,-41 -23,-72 0,-20 3,-38 10,-54 7,-15 17,-26 31,-34 13,-8 29,-11 45,-11 20,0 37,5 50,15 13,11 22,25 25,44l-31 5c-3,-13 -8,-22 -16,-29 -7,-6 -16,-9 -27,-9 -16,0 -29,6 -39,17 -10,12 -16,30 -16,55 0,25 5,44 15,55 10,12 23,18 38,18 13,0 23,-4 32,-12 8,-8 14,-19 16,-35z"/>
   <path id="6" class="fil3" d="M2288 3193l4 29c-8,1 -17,2 -24,2 -11,0 -20,-1 -27,-5 -6,-4 -11,-9 -13,-15 -3,-6 -4,-18 -4,-38l0 -109 -24 0 0 -24 24 0 0 -47 32 -19 0 66 32 0 0 24 -32 0 0 111c0,9 1,15 2,18 1,3 3,5 5,6 3,2 6,2 11,2 4,0 8,0 14,-1z"/>
   <polygon class="fil3" points="7221,3222 7221,2991 7135,2991 7135,2961 7342,2961 7342,2991 7256,2991 7256,3222 "/>
   <path id="1" class="fil3" d="M7457 3198c-12,10 -23,17 -34,22 -11,4 -23,6 -36,6 -21,0 -37,-5 -48,-15 -11,-10 -17,-23 -17,-39 0,-9 3,-18 7,-25 4,-8 9,-14 16,-19 7,-4 15,-8 23,-10 7,-2 16,-4 29,-5 26,-3 45,-7 57,-11 0,-5 0,-7 0,-8 0,-13 -3,-23 -9,-28 -8,-7 -20,-11 -36,-11 -15,0 -27,3 -34,8 -7,5 -12,15 -16,28l-31 -4c3,-14 7,-24 14,-33 7,-8 16,-14 28,-19 13,-4 27,-6 43,-6 17,0 30,1 40,5 10,4 17,9 22,15 5,5 8,13 10,22 1,5 2,15 2,29l0 43c0,29 1,48 2,56 1,8 4,16 8,23l-34 0c-3,-7 -5,-15 -6,-24zm-3 -71c-11,5 -29,9 -52,12 -13,2 -23,4 -28,6 -6,3 -10,6 -13,11 -3,4 -4,9 -4,15 0,8 3,16 9,21 7,6 16,9 29,9 12,0 23,-3 33,-8 9,-6 17,-13 21,-22 4,-8 5,-18 5,-32l0 -12z"/>
   <path id="2" class="fil3" d="M7514 3222l69 -98 -64 -91 40 0 30 44c5,9 10,15 13,21 5,-8 10,-15 14,-21l32 -44 39 0 -64 91 68 98 -39 0 -39 -59 -9 -14 -51 73 -39 0z"/>
   <polygon class="fil3" points="9122,3222 9122,2991 9036,2991 9036,2961 9243,2961 9243,2991 9157,2991 9157,3222 "/>
   <path id="1" class="fil3" d="M9222 3127c0,-35 10,-61 29,-77 16,-14 36,-21 60,-21 26,0 47,8 63,25 17,17 25,41 25,71 0,24 -4,43 -11,57 -7,14 -18,25 -32,32 -14,8 -29,12 -45,12 -27,0 -48,-9 -65,-26 -16,-17 -24,-41 -24,-73zm33 0c0,24 5,43 16,55 10,12 23,18 40,18 16,0 29,-6 39,-19 11,-12 16,-30 16,-55 0,-23 -5,-41 -16,-53 -10,-12 -24,-18 -39,-18 -17,0 -30,6 -40,18 -11,12 -16,30 -16,54z"/>
   <path id="2" class="fil3" d="M9506 3193l5 29c-9,1 -17,2 -24,2 -12,0 -21,-1 -27,-5 -7,-4 -11,-9 -14,-15 -3,-6 -4,-18 -4,-38l0 -109 -24 0 0 -24 24 0 0 -47 32 -19 0 66 32 0 0 24 -32 0 0 111c0,9 1,15 2,18 1,3 3,5 5,6 3,2 7,2 11,2 4,0 9,0 14,-1z"/>
   <path id="3" class="fil3" d="M9662 3198c-12,10 -24,17 -35,22 -11,4 -23,6 -35,6 -21,0 -37,-5 -48,-15 -11,-10 -17,-23 -17,-39 0,-9 2,-18 6,-25 5,-8 10,-14 17,-19 7,-4 14,-8 23,-10 6,-2 16,-4 29,-5 25,-3 45,-7 57,-11 0,-5 0,-7 0,-8 0,-13 -3,-23 -9,-28 -8,-7 -21,-11 -37,-11 -15,0 -26,3 -33,8 -7,5 -13,15 -16,28l-31 -4c2,-14 7,-24 14,-33 6,-8 16,-14 28,-19 12,-4 27,-6 43,-6 16,0 29,1 40,5 10,4 17,9 22,15 5,5 8,13 10,22 1,5 1,15 1,29l0 43c0,29 1,48 2,56 2,8 4,16 8,23l-33 0c-3,-7 -6,-15 -6,-24zm-3 -71c-12,5 -29,9 -52,12 -14,2 -23,4 -29,6 -5,3 -9,6 -12,11 -3,4 -5,9 -5,15 0,8 4,16 10,21 7,6 16,9 28,9 13,0 24,-3 33,-8 10,-6 17,-13 22,-22 3,-8 5,-18 5,-32l0 -12z"/>
   <polygon id="4" class="fil3" points="9740,3222 9740,2961 9772,2961 9772,3222 "/>
   <path class="fil3" d="M5450 3222l0 -261 116 0c23,0 41,2 53,7 12,4 21,13 29,25 7,11 10,25 10,39 0,18 -6,34 -18,47 -12,12 -30,20 -55,24 9,4 16,9 21,13 10,9 19,21 28,35l46 71 -44 0 -34 -54c-10,-16 -18,-28 -25,-37 -7,-8 -12,-14 -18,-17 -5,-3 -10,-6 -15,-7 -4,-1 -11,-1 -19,-1l-40 0 0 116 -35 0zm35 -146l74 0c15,0 28,-2 37,-5 8,-3 15,-8 20,-16 4,-7 7,-15 7,-23 0,-12 -5,-23 -14,-31 -9,-7 -23,-11 -42,-11l-82 0 0 86z"/>
   <path id="1" class="fil3" d="M5832 3198c-12,10 -23,17 -34,22 -11,4 -23,6 -36,6 -21,0 -37,-5 -48,-15 -11,-10 -16,-23 -16,-39 0,-9 2,-18 6,-25 4,-8 10,-14 16,-19 7,-4 15,-8 24,-10 6,-2 15,-4 28,-5 26,-3 45,-7 57,-11 0,-5 1,-7 1,-8 0,-13 -4,-23 -10,-28 -8,-7 -20,-11 -36,-11 -15,0 -26,3 -34,8 -7,5 -12,15 -16,28l-31 -4c3,-14 8,-24 14,-33 7,-8 16,-14 29,-19 12,-4 26,-6 43,-6 16,0 29,1 39,5 10,4 18,9 22,15 5,5 8,13 10,22 1,5 2,15 2,29l0 43c0,29 1,48 2,56 1,8 4,16 8,23l-34 0c-3,-7 -5,-15 -6,-24zm-2 -71c-12,5 -30,9 -53,12 -13,2 -23,4 -28,6 -6,3 -10,6 -13,11 -3,4 -4,9 -4,15 0,8 3,16 10,21 6,6 16,9 28,9 12,0 23,-3 33,-8 10,-6 17,-13 21,-22 4,-8 5,-18 5,-32l1 -12z"/>
   <path id="2" class="fil3" d="M5981 3193l4 29c-9,1 -17,2 -24,2 -11,0 -20,-1 -27,-5 -6,-4 -11,-9 -13,-15 -3,-6 -4,-18 -4,-38l0 -109 -24 0 0 -24 24 0 0 -47 32 -19 0 66 32 0 0 24 -32 0 0 111c0,9 0,15 2,18 1,3 2,5 5,6 3,2 6,2 11,2 3,0 8,0 14,-1z"/>
   <path id="3" class="fil3" d="M6142 3161l33 4c-5,19 -15,34 -29,45 -14,10 -32,16 -54,16 -28,0 -50,-9 -66,-26 -16,-17 -24,-41 -24,-71 0,-32 8,-57 24,-74 17,-18 38,-26 64,-26 25,0 46,8 62,25 16,18 24,42 24,73 0,2 0,5 0,8l-141 0c1,21 7,37 17,48 11,11 24,17 40,17 12,0 22,-4 30,-10 8,-6 15,-16 20,-29zm-105 -52l105 0c-1,-16 -5,-28 -12,-36 -10,-12 -23,-18 -40,-18 -14,0 -27,5 -37,15 -10,9 -15,23 -16,39z"/>
   <path class="fil4" d="M1056 3971l32 -3c2,14 5,24 11,33 6,8 14,15 26,20 12,5 26,8 40,8 14,0 25,-2 35,-6 10,-4 18,-9 23,-16 5,-7 7,-14 7,-22 0,-9 -2,-16 -7,-22 -5,-6 -13,-11 -23,-15 -7,-3 -23,-7 -47,-13 -24,-6 -41,-11 -50,-16 -13,-7 -22,-15 -28,-25 -6,-9 -9,-20 -9,-32 0,-13 3,-26 11,-37 7,-12 18,-20 33,-26 14,-6 30,-9 48,-9 19,0 36,3 51,9 15,6 26,16 34,28 8,12 12,26 13,41l-33 2c-2,-16 -8,-29 -19,-37 -10,-8 -25,-13 -45,-13 -21,0 -36,4 -46,12 -9,8 -14,17 -14,28 0,9 3,17 10,23 7,6 24,12 52,18 28,7 47,12 58,17 15,7 26,16 34,27 7,10 10,23 10,37 0,14 -4,27 -12,39 -8,12 -19,22 -34,28 -15,7 -31,11 -50,11 -24,0 -43,-4 -59,-11 -16,-7 -29,-17 -38,-31 -9,-14 -14,-29 -14,-47z"/>
   <path id="1" class="fil4" d="M1430 4032c-12,10 -23,17 -34,21 -11,4 -23,6 -36,6 -21,0 -37,-5 -48,-15 -11,-10 -17,-23 -17,-39 0,-9 3,-17 7,-25 4,-8 10,-14 16,-18 7,-5 15,-9 23,-11 7,-2 16,-3 29,-5 26,-3 45,-6 57,-11 0,-4 0,-7 0,-8 0,-13 -3,-22 -9,-28 -8,-7 -20,-10 -36,-10 -15,0 -27,2 -34,8 -7,5 -12,14 -16,28l-31 -5c3,-13 7,-24 14,-32 7,-8 16,-15 28,-19 13,-5 27,-7 43,-7 17,0 30,2 40,6 10,4 18,8 22,14 5,6 8,13 10,22 1,5 2,15 2,29l0 43c0,30 1,48 2,56 1,8 4,16 8,23l-34 0c-3,-6 -5,-14 -6,-23zm-3 -72c-11,5 -29,9 -52,12 -13,2 -23,5 -28,7 -6,2 -10,6 -13,10 -3,5 -4,10 -4,15 0,9 3,16 9,22 7,5 16,8 29,8 12,0 23,-3 33,-8 9,-5 17,-13 21,-22 4,-7 5,-18 5,-32l0 -12z"/>
   <path id="2" class="fil4" d="M1509 4055l0 -189 29 0 0 27c6,-9 14,-17 24,-23 9,-5 21,-8 33,-8 14,0 26,3 35,9 9,6 15,14 19,24 15,-22 34,-33 58,-33 19,0 34,5 44,16 10,10 15,26 15,48l0 129 -32 0 0 -119c0,-13 -1,-22 -3,-27 -2,-6 -6,-11 -12,-14 -5,-4 -12,-5 -19,-5 -13,0 -24,4 -33,13 -9,9 -13,23 -13,42l0 110 -33 0 0 -123c0,-14 -2,-24 -7,-32 -6,-7 -14,-10 -26,-10 -9,0 -17,2 -25,7 -8,5 -13,12 -17,21 -3,9 -5,22 -5,39l0 98 -32 0z"/>
   <path id="3" class="fil4" d="M1813 4128l0 -262 29 0 0 25c7,-10 15,-17 23,-22 9,-5 20,-7 32,-7 16,0 30,4 43,12 12,9 21,20 28,36 6,15 9,31 9,49 0,20 -3,37 -10,52 -7,16 -17,28 -31,36 -13,8 -27,12 -41,12 -11,0 -21,-2 -29,-6 -9,-5 -16,-11 -21,-17l0 92 -32 0zm29 -166c0,24 5,42 15,54 10,11 22,17 36,17 14,0 26,-6 36,-18 10,-12 15,-31 15,-56 0,-24 -5,-42 -15,-54 -10,-12 -21,-18 -35,-18 -14,0 -26,7 -36,19 -11,13 -16,31 -16,56z"/>
   <polygon id="4" class="fil4" points="2015,4055 2015,3794 2047,3794 2047,4055 "/>
   <path id="5" class="fil4" d="M2226 3994l33 4c-5,20 -15,35 -29,45 -14,11 -32,16 -54,16 -28,0 -49,-8 -66,-25 -16,-17 -24,-41 -24,-72 0,-31 8,-56 25,-74 16,-17 37,-26 63,-26 25,0 46,9 62,26 16,17 24,41 24,72 0,2 0,5 0,9l-141 0c1,21 7,36 18,47 10,11 23,17 39,17 12,0 22,-3 30,-9 8,-6 15,-16 20,-30zm-105 -51l105 0c-1,-16 -5,-28 -12,-36 -10,-13 -23,-19 -40,-19 -14,0 -27,5 -37,15 -10,10 -15,23 -16,40z"/>
   <path id="6" class="fil4" d="M2512 4055l-32 0 0 -204c-7,7 -18,15 -30,22 -13,7 -24,13 -34,17l0 -31c18,-9 34,-19 47,-31 14,-12 23,-24 29,-35l20 0 0 262z"/>
   <path class="fil4" d="M7120 4055l-32 0 0 -204c-8,7 -18,15 -31,22 -12,7 -24,13 -34,17l0 -31c18,-9 34,-19 47,-31 14,-12 23,-24 29,-35l21 0 0 262z"/>
   <path id="1" class="fil4" d="M7202 3926c0,-30 3,-55 10,-74 6,-19 15,-34 28,-44 12,-10 28,-15 47,-15 14,0 26,3 37,9 10,5 19,13 26,24 7,11 12,24 16,39 4,15 6,36 6,61 0,31 -3,56 -9,75 -7,19 -16,33 -29,43 -12,11 -28,16 -47,16 -25,0 -45,-9 -59,-27 -17,-22 -26,-58 -26,-107zm33 1c0,43 5,71 15,85 10,14 22,21 37,21 15,0 27,-7 37,-21 10,-14 15,-43 15,-85 0,-43 -5,-72 -15,-86 -10,-14 -22,-21 -37,-21 -15,0 -27,6 -36,18 -11,16 -16,46 -16,89z"/>
   <path id="2" class="fil4" d="M7411 3857c0,-19 4,-35 14,-48 9,-13 23,-19 41,-19 16,0 30,6 40,17 11,12 17,29 17,52 0,22 -6,39 -17,51 -11,12 -24,18 -40,18 -16,0 -29,-6 -40,-18 -10,-12 -15,-29 -15,-53zm56 -45c-8,0 -15,3 -20,10 -6,7 -8,20 -8,38 0,17 2,28 8,35 5,7 12,10 20,10 8,0 14,-3 20,-10 5,-7 8,-19 8,-37 0,-17 -3,-29 -8,-36 -6,-7 -12,-10 -20,-10zm0 253l142 -275 26 0 -142 275 -26 0zm112 -71c0,-19 5,-35 14,-48 10,-13 23,-19 41,-19 17,0 30,6 41,17 11,12 16,29 16,52 0,22 -5,39 -16,51 -11,12 -25,18 -41,18 -15,0 -29,-6 -39,-18 -11,-12 -16,-29 -16,-53zm56 -45c-8,0 -15,4 -20,10 -5,7 -8,20 -8,38 0,17 3,28 8,35 6,7 12,11 20,11 8,0 15,-4 20,-11 5,-7 8,-19 8,-37 0,-17 -3,-29 -8,-36 -5,-6 -12,-10 -20,-10z"/>
   <path class="fil4" d="M5196 4055l0 -62 -113 0 0 -30 119 -169 26 0 0 169 35 0 0 30 -35 0 0 62 -32 0zm0 -92l0 -117 -82 117 82 0z"/>
   <path id="1" class="fil4" d="M5296 3987l34 -3c2,17 8,29 17,37 9,8 20,12 33,12 16,0 29,-5 39,-17 11,-12 16,-27 16,-46 0,-19 -5,-33 -15,-44 -10,-10 -24,-15 -40,-15 -11,0 -20,2 -28,7 -8,4 -15,10 -20,18l-30 -4 25 -135 130 0 0 31 -104 0 -14 71c16,-11 32,-17 49,-17 23,0 42,8 58,24 15,16 23,36 23,61 0,23 -7,44 -20,61 -17,21 -40,32 -69,32 -24,0 -43,-7 -58,-20 -15,-14 -24,-31 -26,-53z"/>
   <path id="2" class="fil4" d="M5499 3926c0,-30 3,-55 10,-74 6,-19 15,-34 28,-44 12,-10 28,-15 47,-15 14,0 26,3 37,9 11,5 19,13 26,24 7,11 12,24 16,39 4,15 6,36 6,61 0,31 -3,56 -9,75 -7,19 -16,33 -29,43 -12,11 -28,16 -47,16 -25,0 -45,-9 -59,-27 -17,-22 -26,-58 -26,-107zm33 1c0,43 5,71 15,85 10,14 22,21 37,21 15,0 27,-7 37,-21 10,-14 15,-43 15,-85 0,-43 -5,-72 -15,-86 -10,-14 -22,-21 -37,-21 -15,0 -27,6 -36,18 -11,16 -16,46 -16,89z"/>
   <path id="3" class="fil4" d="M5803 3926c0,-30 3,-55 10,-74 6,-19 15,-34 28,-44 12,-10 28,-15 47,-15 14,0 26,3 37,9 11,5 19,13 26,24 7,11 12,24 16,39 4,15 6,36 6,61 0,31 -3,56 -9,75 -7,19 -16,33 -28,43 -13,11 -29,16 -48,16 -25,0 -45,-9 -59,-27 -17,-22 -26,-58 -26,-107zm33 1c0,43 5,71 15,85 10,14 22,21 37,21 15,0 27,-7 37,-21 10,-14 15,-43 15,-85 0,-43 -5,-72 -15,-86 -10,-14 -22,-21 -37,-21 -15,0 -27,6 -36,18 -11,16 -16,46 -16,89z"/>
   <path id="4" class="fil4" d="M6006 3926c0,-30 3,-55 9,-74 7,-19 16,-34 29,-44 12,-10 28,-15 47,-15 14,0 26,3 37,9 10,5 19,13 26,24 7,11 12,24 16,39 4,15 6,36 6,61 0,31 -3,56 -10,75 -6,19 -15,33 -28,43 -12,11 -28,16 -47,16 -25,0 -45,-9 -59,-27 -17,-22 -26,-58 -26,-107zm33 1c0,43 5,71 15,85 10,14 22,21 37,21 15,0 27,-7 37,-21 10,-14 15,-43 15,-85 0,-43 -5,-72 -15,-86 -10,-14 -22,-21 -37,-21 -15,0 -27,6 -36,18 -11,16 -16,46 -16,89z"/>
   <polygon id="5" class="fil4" points="5720,4055 5720,4019 5756,4019 5756,4055 "/>
   <path class="fil4" d="M5083 4709l33 -2c3,16 8,29 17,37 9,8 20,12 33,12 16,0 29,-6 40,-17 10,-12 16,-27 16,-47 0,-18 -6,-32 -16,-43 -10,-10 -23,-16 -40,-16 -10,0 -20,3 -28,7 -8,5 -15,11 -19,19l-31 -5 26 -134 129 0 0 31 -104 0 -14 70c16,-11 32,-16 49,-16 23,0 42,8 58,24 16,15 23,36 23,60 0,24 -6,44 -20,62 -17,21 -40,31 -69,31 -23,0 -43,-6 -58,-20 -15,-13 -23,-31 -25,-53z"/>
   <polygon id="1" class="fil4" points="5709,4778 5709,4742 5745,4742 5745,4778 "/>
   <path id="2" class="fil4" d="M5285 4649c0,-31 4,-56 10,-74 6,-19 16,-34 28,-44 13,-10 28,-15 47,-15 14,0 27,3 37,8 11,6 20,14 26,25 7,10 13,23 16,39 4,15 6,35 6,61 0,31 -3,56 -9,74 -6,19 -16,34 -28,44 -13,10 -29,15 -48,15 -25,0 -45,-9 -59,-26 -17,-22 -26,-58 -26,-107zm33 0c0,43 5,72 15,86 10,14 23,21 37,21 15,0 27,-7 37,-21 10,-14 15,-43 15,-86 0,-43 -5,-71 -15,-85 -9,-14 -22,-22 -37,-22 -15,0 -27,7 -35,19 -11,16 -17,45 -17,88z"/>
   <path id="3" class="fil4" d="M5488 4649c0,-31 3,-56 10,-74 6,-19 15,-34 28,-44 12,-10 28,-15 47,-15 14,0 26,3 37,8 11,6 19,14 26,25 7,10 12,23 16,39 4,15 6,35 6,61 0,31 -3,56 -9,74 -7,19 -16,34 -29,44 -12,10 -28,15 -47,15 -25,0 -45,-9 -59,-26 -17,-22 -26,-58 -26,-107zm33 0c0,43 5,72 15,86 10,14 22,21 37,21 15,0 27,-7 37,-21 10,-14 15,-43 15,-86 0,-43 -5,-71 -15,-85 -10,-14 -22,-22 -37,-22 -15,0 -27,7 -36,19 -11,16 -16,45 -16,88z"/>
   <path id="4" class="fil4" d="M5792 4649c0,-31 3,-56 10,-74 6,-19 16,-34 28,-44 13,-10 28,-15 47,-15 14,0 26,3 37,8 11,6 19,14 26,25 7,10 12,23 16,39 4,15 6,35 6,61 0,31 -3,56 -9,74 -7,19 -16,34 -28,44 -13,10 -29,15 -48,15 -25,0 -45,-9 -59,-26 -17,-22 -26,-58 -26,-107zm33 0c0,43 5,72 15,86 10,14 23,21 37,21 15,0 27,-7 37,-21 10,-14 15,-43 15,-86 0,-43 -5,-71 -15,-85 -10,-14 -22,-22 -37,-22 -15,0 -27,7 -35,19 -11,16 -17,45 -17,88z"/>
   <path id="5" class="fil4" d="M5995 4649c0,-31 3,-56 10,-74 6,-19 15,-34 28,-44 12,-10 28,-15 47,-15 14,0 26,3 37,8 10,6 19,14 26,25 7,10 12,23 16,39 4,15 6,35 6,61 0,31 -3,56 -9,74 -7,19 -16,34 -29,44 -12,10 -28,15 -47,15 -25,0 -45,-9 -59,-26 -17,-22 -26,-58 -26,-107zm33 0c0,43 5,72 15,86 10,14 22,21 37,21 15,0 27,-7 37,-21 10,-14 15,-43 15,-86 0,-43 -5,-71 -15,-85 -10,-14 -22,-22 -37,-22 -15,0 -27,7 -36,19 -11,16 -16,45 -16,88z"/>
   <path class="fil4" d="M8894 4055l0 -62 -114 0 0 -30 119 -169 27 0 0 169 35 0 0 30 -35 0 0 62 -32 0zm0 -92l0 -117 -82 117 82 0z"/>
   <path id="1" class="fil4" d="M8999 3995l30 -3c3,15 8,25 15,32 8,6 17,9 28,9 10,0 19,-2 26,-6 8,-5 14,-11 19,-19 4,-7 8,-17 12,-30 3,-13 4,-26 4,-39 0,-2 0,-4 0,-7 -6,10 -15,19 -26,25 -11,7 -23,10 -36,10 -22,0 -40,-8 -55,-24 -15,-15 -22,-36 -22,-62 0,-26 8,-48 23,-64 16,-16 35,-24 59,-24 17,0 32,5 46,14 14,9 25,22 32,39 8,17 11,41 11,73 0,34 -3,60 -11,80 -7,20 -18,35 -32,45 -14,10 -31,16 -50,16 -21,0 -37,-6 -50,-17 -13,-12 -21,-28 -23,-48zm130 -115c0,-19 -4,-33 -14,-44 -10,-11 -22,-16 -35,-16 -15,0 -27,6 -38,17 -10,12 -15,27 -15,45 0,17 5,30 15,41 10,10 22,15 37,15 14,0 27,-5 36,-15 10,-11 14,-25 14,-43z"/>
   <path id="2" class="fil4" d="M9197 3987l33 -3c3,17 8,29 17,37 9,8 20,12 33,12 16,0 29,-5 40,-17 10,-12 16,-27 16,-46 0,-19 -5,-33 -16,-44 -10,-10 -23,-15 -40,-15 -10,0 -20,2 -28,7 -8,4 -15,10 -19,18l-31 -4 26 -135 129 0 0 31 -104 0 -14 71c16,-11 32,-17 49,-17 23,0 42,8 58,24 16,16 23,36 23,61 0,23 -6,44 -20,61 -17,21 -40,32 -69,32 -23,0 -43,-7 -58,-20 -15,-14 -23,-31 -25,-53z"/>
   <polygon id="3" class="fil4" points="9417,4055 9417,4019 9454,4019 9454,4055 "/>
   <path id="4" class="fil4" d="M9501 3926c0,-30 3,-55 9,-74 7,-19 16,-34 29,-44 12,-10 28,-15 47,-15 14,0 26,3 37,9 10,5 19,13 26,24 6,11 12,24 16,39 4,15 6,36 6,61 0,31 -4,56 -10,75 -6,19 -15,33 -28,43 -12,11 -28,16 -47,16 -25,0 -45,-9 -60,-27 -17,-22 -25,-58 -25,-107zm33 1c0,43 5,71 15,85 10,14 22,21 37,21 14,0 27,-7 37,-21 10,-14 15,-43 15,-85 0,-43 -5,-72 -15,-86 -10,-14 -23,-21 -38,-21 -14,0 -26,6 -35,18 -11,16 -16,46 -16,89z"/>
   <path id="5" class="fil4" d="M9704 3926c0,-30 3,-55 9,-74 6,-19 16,-34 28,-44 13,-10 29,-15 47,-15 14,0 27,3 37,9 11,5 20,13 26,24 7,11 13,24 17,39 3,15 5,36 5,61 0,31 -3,56 -9,75 -6,19 -16,33 -28,43 -13,11 -28,16 -48,16 -25,0 -44,-9 -59,-27 -17,-22 -25,-58 -25,-107zm32 1c0,43 5,71 15,85 10,14 23,21 37,21 15,0 28,-7 38,-21 10,-14 15,-43 15,-85 0,-43 -5,-72 -15,-86 -10,-14 -23,-21 -38,-21 -15,0 -26,6 -35,18 -11,16 -17,46 -17,89z"/>
   <path class="fil4" d="M1057 4685l33 -2c1,13 5,23 11,32 5,8 14,15 26,20 12,5 25,8 40,8 13,0 25,-2 35,-6 10,-4 17,-9 22,-16 5,-7 8,-14 8,-22 0,-9 -3,-16 -7,-22 -5,-6 -13,-11 -24,-15 -7,-3 -22,-7 -47,-13 -23,-6 -40,-11 -50,-16 -12,-7 -22,-15 -28,-25 -6,-9 -9,-20 -9,-32 0,-13 4,-26 11,-37 8,-12 19,-20 33,-26 15,-6 30,-9 48,-9 19,0 36,3 51,9 15,6 26,16 34,28 8,12 13,26 13,41l-33 2c-2,-16 -8,-28 -18,-37 -10,-8 -26,-12 -46,-12 -21,0 -36,3 -45,11 -10,8 -15,17 -15,28 0,9 4,17 11,23 6,6 24,12 52,18 28,7 47,12 57,17 16,7 27,16 34,27 7,10 11,23 11,37 0,14 -4,27 -12,39 -8,12 -19,22 -34,28 -15,7 -32,11 -51,11 -23,0 -43,-4 -59,-11 -16,-7 -28,-17 -37,-31 -9,-13 -14,-29 -15,-47z"/>
   <path id="1" class="fil4" d="M1431 4746c-11,10 -23,17 -34,21 -11,4 -23,6 -35,6 -21,0 -37,-5 -48,-15 -12,-10 -17,-23 -17,-39 0,-9 2,-17 6,-25 4,-8 10,-14 17,-18 7,-5 14,-8 23,-11 6,-1 16,-3 28,-5 26,-3 45,-6 58,-11 0,-4 0,-7 0,-8 0,-13 -3,-22 -9,-27 -8,-8 -21,-11 -37,-11 -15,0 -26,2 -33,8 -8,5 -13,14 -16,28l-32 -5c3,-13 8,-24 14,-32 7,-8 16,-15 29,-19 12,-5 27,-7 43,-7 16,0 29,2 39,6 11,4 18,8 23,14 4,6 8,13 10,22 1,5 1,15 1,29l0 43c0,30 1,49 2,56 2,8 4,16 8,23l-33 0c-4,-6 -6,-14 -7,-23zm-2 -71c-12,4 -29,8 -53,12 -13,1 -22,4 -28,6 -5,2 -9,6 -12,10 -3,5 -5,10 -5,15 0,9 3,16 10,22 6,5 16,8 28,8 13,0 24,-3 33,-8 10,-5 17,-13 22,-22 3,-7 5,-18 5,-32l0 -11z"/>
   <path id="2" class="fil4" d="M1511 4769l0 -189 28 0 0 27c6,-9 14,-17 24,-22 10,-6 21,-9 34,-9 14,0 25,3 34,9 9,6 15,14 19,24 15,-22 35,-33 59,-33 18,0 33,5 43,16 10,10 15,26 15,48l0 129 -32 0 0 -119c0,-13 -1,-22 -3,-27 -2,-6 -6,-11 -11,-14 -6,-4 -12,-5 -20,-5 -13,0 -24,4 -33,13 -9,9 -13,23 -13,42l0 110 -32 0 0 -123c0,-14 -3,-24 -8,-32 -5,-7 -14,-10 -26,-10 -9,0 -17,2 -25,7 -7,5 -13,12 -16,21 -4,9 -5,22 -5,39l0 98 -32 0z"/>
   <path id="3" class="fil4" d="M1814 4842l0 -262 30 0 0 25c6,-10 14,-17 23,-22 8,-4 19,-7 31,-7 17,0 31,4 43,13 12,8 22,20 28,35 6,15 9,31 9,49 0,20 -3,37 -10,52 -7,16 -17,28 -30,36 -13,8 -27,12 -42,12 -11,0 -20,-2 -29,-6 -8,-5 -15,-11 -21,-17l0 92 -32 0zm30 -166c0,24 4,42 14,54 10,11 22,17 36,17 14,0 26,-6 36,-18 11,-12 16,-31 16,-56 0,-24 -5,-42 -15,-54 -10,-12 -22,-18 -36,-18 -13,0 -25,7 -36,19 -10,13 -15,32 -15,56z"/>
   <polygon id="4" class="fil4" points="2016,4769 2016,4508 2048,4508 2048,4769 "/>
   <path id="5" class="fil4" d="M2227 4708l33 4c-5,20 -14,35 -29,45 -14,11 -32,16 -54,16 -27,0 -49,-8 -65,-25 -16,-17 -24,-41 -24,-72 0,-31 8,-56 24,-74 16,-17 38,-26 64,-26 25,0 46,9 61,26 16,17 25,41 25,72 0,2 -1,5 -1,9l-141 0c2,21 7,37 18,48 11,11 24,16 39,16 12,0 22,-3 30,-9 9,-6 15,-16 20,-30zm-105 -51l106 0c-2,-16 -6,-28 -12,-36 -11,-12 -24,-19 -40,-19 -15,0 -27,5 -37,15 -10,10 -16,23 -17,40z"/>
   <path id="6" class="fil4" d="M2562 4739l0 30 -173 0c0,-7 1,-15 4,-22 4,-12 11,-23 21,-35 10,-11 24,-24 42,-39 28,-23 47,-42 57,-55 10,-14 15,-27 15,-39 0,-13 -4,-23 -13,-32 -9,-9 -21,-13 -36,-13 -15,0 -28,4 -37,14 -9,9 -14,22 -14,38l-33 -3c2,-25 11,-44 25,-57 15,-12 35,-19 60,-19 25,0 45,7 59,21 15,14 22,31 22,52 0,10 -2,20 -6,31 -4,10 -12,20 -21,31 -10,12 -27,27 -50,46 -19,17 -32,28 -37,33 -5,6 -10,12 -14,18l129 0z"/>
   <path class="fil4" d="M8791 4697l34 -2c2,16 8,29 17,37 9,8 20,12 33,12 15,0 28,-6 39,-17 11,-12 16,-27 16,-47 0,-18 -5,-32 -15,-43 -10,-10 -24,-16 -41,-16 -10,0 -19,3 -27,7 -9,5 -15,11 -20,19l-30 -5 25 -134 129 0 0 31 -103 0 -14 70c15,-11 32,-16 49,-16 23,0 42,8 57,24 16,15 24,36 24,60 0,24 -7,44 -21,62 -16,21 -39,31 -68,31 -24,0 -43,-6 -58,-20 -15,-13 -24,-31 -26,-53z"/>
   <path id="1" class="fil4" d="M8994 4697l33 -2c3,16 9,29 18,37 9,8 20,12 33,12 15,0 28,-6 39,-17 10,-12 16,-27 16,-47 0,-18 -5,-32 -15,-43 -11,-10 -24,-16 -41,-16 -10,0 -19,3 -28,7 -8,5 -14,11 -19,19l-30 -5 25 -134 129 0 0 31 -104 0 -14 70c16,-11 33,-16 50,-16 22,0 42,8 57,24 16,15 24,36 24,60 0,24 -7,44 -21,62 -17,21 -39,31 -68,31 -24,0 -43,-6 -58,-20 -15,-13 -24,-31 -26,-53z"/>
   <path id="2" class="fil4" d="M9197 4637c0,-31 3,-56 9,-74 6,-19 16,-34 28,-44 13,-10 29,-15 48,-15 14,0 26,3 36,8 11,6 20,14 27,25 6,10 12,23 16,39 4,15 6,35 6,61 0,31 -4,56 -10,74 -6,19 -16,34 -28,44 -13,10 -28,15 -47,15 -26,0 -45,-9 -60,-26 -17,-22 -25,-58 -25,-107zm32 0c0,43 5,72 15,86 10,14 23,21 38,21 14,0 27,-7 37,-21 10,-14 15,-43 15,-86 0,-43 -5,-71 -15,-85 -10,-14 -23,-22 -38,-22 -14,0 -26,7 -35,19 -11,16 -17,45 -17,88z"/>
   <polygon id="3" class="fil4" points="9417,4766 9417,4730 9454,4730 9454,4766 "/>
   <path id="4" class="fil4" d="M9501 4637c0,-31 3,-56 9,-74 7,-19 16,-34 29,-44 12,-10 28,-15 47,-15 14,0 26,3 37,8 10,6 19,14 26,25 6,10 12,23 16,39 4,15 6,35 6,61 0,31 -4,56 -10,74 -6,19 -15,34 -28,44 -12,10 -28,15 -47,15 -25,0 -45,-9 -60,-26 -17,-22 -25,-58 -25,-107zm33 0c0,43 5,72 15,86 10,14 22,21 37,21 14,0 27,-7 37,-21 10,-14 15,-43 15,-86 0,-43 -5,-71 -15,-85 -10,-14 -23,-22 -38,-22 -14,0 -26,7 -35,19 -11,16 -16,45 -16,88z"/>
   <path id="5" class="fil4" d="M9704 4637c0,-31 3,-56 9,-74 6,-19 16,-34 28,-44 13,-10 29,-15 47,-15 14,0 27,3 37,8 11,6 20,14 26,25 7,10 13,23 17,39 3,15 5,35 5,61 0,31 -3,56 -9,74 -6,19 -16,34 -28,44 -13,10 -28,15 -48,15 -25,0 -44,-9 -59,-26 -17,-22 -25,-58 -25,-107zm32 0c0,43 5,72 15,86 10,14 23,21 37,21 15,0 28,-7 38,-21 10,-14 15,-43 15,-86 0,-43 -5,-71 -15,-85 -10,-14 -23,-22 -38,-22 -15,0 -26,7 -35,19 -11,16 -17,45 -17,88z"/>
   <path class="fil4" d="M7120 4769l-32 0 0 -204c-8,7 -18,15 -31,22 -12,7 -24,13 -34,17l0 -31c18,-9 34,-19 47,-31 14,-12 23,-24 29,-35l21 0 0 262z"/>
   <path id="1" class="fil4" d="M7202 4640c0,-30 3,-55 10,-74 6,-19 15,-33 28,-44 12,-10 28,-15 47,-15 14,0 26,3 37,9 10,5 19,13 26,24 7,11 12,24 16,39 4,15 6,36 6,61 0,31 -3,56 -9,75 -7,19 -16,33 -29,43 -12,11 -28,16 -47,16 -25,0 -45,-9 -59,-27 -17,-22 -26,-57 -26,-107zm33 1c0,43 5,71 15,85 10,14 22,21 37,21 15,0 27,-7 37,-21 10,-14 15,-43 15,-85 0,-43 -5,-72 -15,-86 -10,-14 -22,-21 -37,-21 -15,0 -27,6 -36,18 -11,16 -16,46 -16,89z"/>
   <path id="2" class="fil4" d="M7411 4571c0,-19 4,-35 14,-48 9,-13 23,-19 41,-19 16,0 30,6 40,17 11,12 17,29 17,52 0,22 -6,39 -17,51 -11,12 -24,18 -40,18 -16,0 -29,-6 -40,-18 -10,-12 -15,-29 -15,-53zm56 -45c-8,0 -15,4 -20,10 -6,7 -8,20 -8,38 0,17 2,29 8,35 5,7 12,10 20,10 8,0 14,-3 20,-10 5,-7 8,-19 8,-37 0,-17 -3,-29 -8,-36 -6,-6 -12,-10 -20,-10zm0 253l142 -275 26 0 -142 275 -26 0zm112 -71c0,-19 5,-35 14,-48 10,-13 23,-19 41,-19 17,0 30,6 41,17 11,12 16,29 16,52 0,22 -5,39 -16,51 -11,12 -25,18 -41,18 -15,0 -29,-6 -39,-18 -11,-12 -16,-29 -16,-53zm56 -45c-8,0 -15,4 -20,10 -5,7 -8,20 -8,38 0,17 3,28 8,35 6,7 12,11 20,11 8,0 15,-4 20,-11 5,-7 8,-19 8,-37 0,-17 -3,-29 -8,-36 -5,-6 -12,-10 -20,-10z"/>
   <polygon class="fil4" points="7101,5506 7101,5298 7023,5298 7023,5271 7209,5271 7209,5298 7132,5298 7132,5506 "/>
   <path id="1" class="fil4" d="M7191 5421c0,-32 8,-55 26,-70 15,-13 32,-19 54,-19 23,0 42,7 57,23 15,15 22,36 22,63 0,22 -3,39 -10,52 -6,12 -16,22 -28,29 -13,7 -27,10 -41,10 -24,0 -44,-7 -58,-22 -15,-16 -22,-38 -22,-66zm29 0c0,21 5,38 15,49 9,10 21,16 36,16 14,0 26,-6 35,-17 10,-10 15,-27 15,-49 0,-21 -5,-37 -15,-48 -9,-11 -21,-16 -35,-16 -15,0 -27,5 -36,16 -10,11 -15,27 -15,49z"/>
   <path id="2" class="fil4" d="M7447 5480l4 25c-8,2 -16,3 -22,3 -11,0 -19,-2 -24,-5 -6,-3 -10,-8 -13,-13 -2,-5 -3,-17 -3,-34l0 -98 -21 0 0 -23 21 0 0 -42 29 -17 0 59 29 0 0 23 -29 0 0 100c0,8 0,13 1,15 1,3 3,5 5,6 3,1 6,2 10,2 3,0 8,0 13,-1z"/>
   <path id="3" class="fil4" d="M7586 5484c-10,10 -21,16 -30,20 -10,4 -21,5 -32,5 -19,0 -33,-4 -44,-13 -10,-9 -15,-21 -15,-35 0,-9 2,-16 6,-23 4,-7 9,-12 15,-17 6,-4 13,-7 21,-9 5,-1 14,-3 25,-4 24,-3 41,-6 52,-10 0,-4 0,-7 0,-8 0,-11 -3,-20 -8,-24 -7,-7 -18,-10 -33,-10 -14,0 -24,2 -30,7 -7,5 -11,13 -14,25l-29 -4c3,-12 7,-22 13,-29 6,-7 14,-13 26,-17 11,-4 24,-6 38,-6 15,0 27,2 36,5 9,3 16,8 20,13 4,5 7,12 9,20 1,4 1,13 1,26l0 38c0,27 1,44 2,51 1,7 4,14 7,21l-30 0c-3,-6 -5,-13 -6,-22zm-2 -64c-10,5 -26,8 -47,11 -12,2 -20,4 -25,6 -5,2 -9,5 -12,9 -2,4 -4,9 -4,14 0,8 3,14 9,19 6,5 14,8 26,8 11,0 21,-3 29,-8 9,-4 15,-11 19,-19 3,-7 5,-16 5,-29l0 -11z"/>
   <polygon id="4" class="fil4" points="7657,5506 7657,5271 7686,5271 7686,5506 "/>
   <path class="fil4" d="M7023 6129l90 -235 35 0 95 235 -35 0 -27 -71 -99 0 -26 71 -33 0zm68 -96l80 0 -24 -66c-8,-19 -13,-36 -17,-49 -4,16 -8,31 -13,46l-26 69z"/>
   <path id="1" class="fil4" d="M7374 6129l0 -22c-10,17 -26,26 -47,26 -14,0 -26,-4 -38,-12 -11,-7 -20,-17 -26,-31 -6,-13 -9,-29 -9,-46 0,-17 2,-32 8,-46 6,-14 14,-25 26,-32 11,-7 23,-11 37,-11 11,0 20,2 28,7 8,4 14,10 19,17l0 -85 29 0 0 235 -27 0zm-91 -85c0,22 5,38 14,49 9,11 20,16 33,16 12,0 23,-5 32,-15 9,-11 13,-26 13,-48 0,-23 -5,-40 -14,-51 -9,-11 -20,-16 -33,-16 -13,0 -23,5 -32,16 -9,10 -13,27 -13,49z"/>
   <path id="2" class="fil4" d="M7493 6129l-64 -170 31 0 36 102c4,11 8,22 11,34 3,-9 7,-20 11,-32l38 -104 30 0 -65 170 -28 0z"/>
   <path id="3" class="fil4" d="M7722 6108c-11,9 -21,15 -31,19 -10,4 -20,6 -32,6 -18,0 -33,-5 -43,-14 -10,-9 -15,-21 -15,-35 0,-8 2,-16 6,-23 4,-7 9,-12 15,-16 6,-4 13,-8 21,-10 5,-1 14,-3 25,-4 24,-3 41,-6 52,-10 0,-4 0,-6 0,-7 0,-12 -3,-20 -8,-25 -8,-7 -19,-10 -33,-10 -14,0 -24,2 -30,7 -7,5 -12,13 -15,26l-28 -4c3,-13 7,-22 13,-30 6,-7 14,-13 25,-17 11,-4 24,-6 39,-6 15,0 26,2 36,5 9,4 15,8 20,13 4,5 7,12 9,20 1,5 1,14 1,26l0 39c0,26 1,43 2,50 1,8 3,14 7,21l-30 0c-3,-6 -5,-13 -6,-21zm-2 -64c-11,4 -26,8 -47,11 -12,1 -21,3 -26,5 -5,2 -8,5 -11,10 -3,4 -4,8 -4,13 0,8 3,14 9,19 6,5 14,8 25,8 11,0 21,-2 30,-7 9,-5 15,-12 19,-20 3,-7 5,-16 5,-29l0 -10z"/>
   <path id="4" class="fil4" d="M7793 6129l0 -170 26 0 0 24c13,-19 31,-28 54,-28 11,0 20,2 29,6 8,3 15,8 19,14 4,6 7,13 9,21 1,6 2,15 2,28l0 105 -29 0 0 -103c0,-12 -1,-21 -4,-27 -2,-6 -6,-10 -12,-14 -5,-3 -12,-5 -20,-5 -12,0 -22,4 -31,12 -9,7 -14,22 -14,44l0 93 -29 0z"/>
   <path id="5" class="fil4" d="M8087 6067l28 4c-3,19 -11,34 -23,45 -13,11 -29,17 -47,17 -24,0 -42,-8 -56,-23 -14,-15 -22,-37 -22,-66 0,-18 4,-34 10,-48 6,-13 15,-24 27,-31 13,-6 26,-10 41,-10 18,0 34,5 45,14 12,9 20,23 23,40l-28 4c-3,-11 -7,-20 -14,-26 -7,-5 -15,-8 -25,-8 -14,0 -26,5 -35,15 -9,11 -14,27 -14,50 0,23 4,39 13,49 9,11 20,16 34,16 12,0 21,-3 29,-10 7,-7 12,-18 14,-32z"/>
   <path id="6" class="fil4" d="M8256 6074l30 4c-5,17 -13,31 -26,40 -13,10 -29,15 -49,15 -24,0 -44,-8 -59,-23 -14,-16 -21,-37 -21,-65 0,-28 7,-50 22,-66 14,-16 33,-24 57,-24 23,0 41,8 55,23 15,16 22,38 22,66 0,1 0,4 0,7l-127 0c1,19 6,33 16,43 9,10 21,15 35,15 11,0 20,-3 27,-8 8,-6 14,-15 18,-27zm-94 -46l95 0c-2,-15 -5,-25 -11,-33 -9,-11 -21,-16 -36,-16 -13,0 -24,4 -33,13 -9,9 -14,21 -15,36z"/>
   <path class="fil4" d="M8709 5533l-32 0 0 -204c-8,7 -18,14 -31,22 -12,7 -24,13 -34,16l0 -31c18,-8 34,-18 47,-30 14,-12 23,-24 29,-35l21 0 0 262z"/>
   <path id="1" class="fil4" d="M8791 5404c0,-31 3,-56 10,-74 6,-19 15,-34 28,-44 12,-10 28,-15 47,-15 14,0 26,3 37,8 10,6 19,14 26,25 7,10 12,23 16,38 4,16 6,36 6,62 0,31 -3,56 -9,74 -7,19 -16,34 -29,44 -12,10 -28,15 -47,15 -25,0 -45,-9 -59,-27 -17,-21 -26,-57 -26,-106zm33 0c0,43 5,72 15,86 10,14 22,21 37,21 15,0 27,-7 37,-21 10,-14 15,-43 15,-86 0,-43 -5,-71 -15,-85 -10,-15 -22,-22 -37,-22 -15,0 -27,7 -36,19 -11,16 -16,45 -16,88z"/>
   <path id="2" class="fil4" d="M9096 5533l0 -62 -113 0 0 -30 119 -169 26 0 0 169 36 0 0 30 -36 0 0 62 -32 0zm0 -92l0 -117 -82 117 82 0z"/>
   <path id="3" class="fil4" d="M9197 5464l33 -2c3,16 8,28 17,37 9,8 20,12 33,12 16,0 29,-6 40,-17 10,-12 16,-27 16,-47 0,-18 -5,-32 -16,-43 -10,-11 -23,-16 -40,-16 -10,0 -20,3 -28,7 -8,5 -15,11 -19,19l-31 -5 26 -134 129 0 0 31 -104 0 -14 70c16,-11 32,-16 49,-16 23,0 42,8 58,23 16,16 23,37 23,61 0,24 -6,44 -20,62 -17,21 -40,31 -69,31 -23,0 -43,-6 -58,-20 -15,-13 -23,-31 -25,-53z"/>
   <polygon id="4" class="fil4" points="9417,5533 9417,5496 9454,5496 9454,5533 "/>
   <path id="5" class="fil4" d="M9501 5404c0,-31 3,-56 9,-74 7,-19 16,-34 29,-44 12,-10 28,-15 47,-15 14,0 26,3 37,8 10,6 19,14 26,25 6,10 12,23 16,38 4,16 6,36 6,62 0,31 -4,56 -10,74 -6,19 -15,34 -28,44 -12,10 -28,15 -47,15 -25,0 -45,-9 -60,-27 -17,-21 -25,-57 -25,-106zm33 0c0,43 5,72 15,86 10,14 22,21 37,21 14,0 27,-7 37,-21 10,-14 15,-43 15,-86 0,-43 -5,-71 -15,-85 -10,-15 -23,-22 -38,-22 -14,0 -26,7 -35,19 -11,16 -16,45 -16,88z"/>
   <path id="6" class="fil4" d="M9704 5404c0,-31 3,-56 9,-74 6,-19 16,-34 28,-44 13,-10 29,-15 47,-15 14,0 27,3 37,8 11,6 20,14 26,25 7,10 13,23 17,38 3,16 5,36 5,62 0,31 -3,56 -9,74 -6,19 -16,34 -28,44 -13,10 -28,15 -48,15 -25,0 -44,-9 -59,-27 -17,-21 -25,-57 -25,-106zm32 0c0,43 5,72 15,86 10,14 23,21 37,21 15,0 28,-7 38,-21 10,-14 15,-43 15,-86 0,-43 -5,-71 -15,-85 -10,-15 -23,-22 -38,-22 -15,0 -26,7 -35,19 -11,16 -17,45 -17,88z"/>
   <path class="fil4" d="M8791 6088l34 -3c2,16 8,29 17,37 9,8 20,12 33,12 15,0 28,-6 39,-17 11,-12 16,-27 16,-46 0,-19 -5,-33 -15,-44 -10,-10 -24,-16 -41,-16 -10,0 -19,3 -27,8 -9,4 -15,10 -20,18l-30 -4 25 -135 129 0 0 31 -103 0 -14 70c15,-11 32,-16 49,-16 23,0 42,8 57,24 16,16 24,36 24,61 0,23 -7,44 -21,61 -16,21 -39,32 -68,32 -24,0 -43,-7 -58,-20 -15,-14 -24,-31 -26,-53z"/>
   <path id="1" class="fil4" d="M8994 6027c0,-30 3,-55 9,-74 7,-19 16,-34 29,-44 12,-10 28,-15 47,-15 14,0 26,3 37,8 10,6 19,14 26,25 7,10 12,23 16,39 4,15 6,36 6,61 0,31 -3,56 -10,75 -6,19 -15,33 -28,43 -12,10 -28,16 -47,16 -25,0 -45,-9 -59,-27 -18,-22 -26,-58 -26,-107zm33 0c0,43 5,72 15,86 10,14 22,21 37,21 14,0 27,-7 37,-21 10,-14 15,-43 15,-86 0,-42 -5,-71 -15,-85 -10,-14 -23,-21 -38,-21 -14,0 -26,6 -35,18 -11,16 -16,46 -16,88z"/>
   <path id="2" class="fil4" d="M9197 6027c0,-30 3,-55 9,-74 6,-19 16,-34 28,-44 13,-10 29,-15 48,-15 14,0 26,3 36,8 11,6 20,14 27,25 6,10 12,23 16,39 4,15 6,36 6,61 0,31 -4,56 -10,75 -6,19 -16,33 -28,43 -13,10 -28,16 -47,16 -26,0 -45,-9 -60,-27 -17,-22 -25,-58 -25,-107zm32 0c0,43 5,72 15,86 10,14 23,21 38,21 14,0 27,-7 37,-21 10,-14 15,-43 15,-86 0,-42 -5,-71 -15,-85 -10,-14 -23,-21 -38,-21 -14,0 -26,6 -35,18 -11,16 -17,46 -17,88z"/>
   <polygon id="3" class="fil4" points="9417,6156 9417,6120 9454,6120 9454,6156 "/>
   <path id="4" class="fil4" d="M9501 6027c0,-30 3,-55 9,-74 7,-19 16,-34 29,-44 12,-10 28,-15 47,-15 14,0 26,3 37,8 10,6 19,14 26,25 6,10 12,23 16,39 4,15 6,36 6,61 0,31 -4,56 -10,75 -6,19 -15,33 -28,43 -12,10 -28,16 -47,16 -25,0 -45,-9 -60,-27 -17,-22 -25,-58 -25,-107zm33 0c0,43 5,72 15,86 10,14 22,21 37,21 14,0 27,-7 37,-21 10,-14 15,-43 15,-86 0,-42 -5,-71 -15,-85 -10,-14 -23,-21 -38,-21 -14,0 -26,6 -35,18 -11,16 -16,46 -16,88z"/>
   <path id="5" class="fil4" d="M9704 6027c0,-30 3,-55 9,-74 6,-19 16,-34 28,-44 13,-10 29,-15 47,-15 14,0 27,3 37,8 11,6 20,14 26,25 7,10 13,23 17,39 3,15 5,36 5,61 0,31 -3,56 -9,75 -6,19 -16,33 -28,43 -13,10 -28,16 -48,16 -25,0 -44,-9 -59,-27 -17,-22 -25,-58 -25,-107zm32 0c0,43 5,72 15,86 10,14 23,21 37,21 15,0 28,-7 38,-21 10,-14 15,-43 15,-86 0,-42 -5,-71 -15,-85 -10,-14 -23,-21 -38,-21 -15,0 -26,6 -35,18 -11,16 -17,46 -17,88z"/>
   <line class="fil1 str0" x1="495" y1="4985" x2="10249" y2= "4985" />
   <line class="fil1 str0" x1="6454" y1="6308" x2="10249" y2= "6308" />
   <path class="fil4" d="M7023 6780l0 -235 81 0c19,0 32,1 42,3 14,4 25,9 35,17 12,11 21,24 27,40 7,17 10,35 10,56 0,18 -2,34 -7,48 -4,14 -9,25 -16,34 -6,9 -13,16 -21,21 -8,5 -17,9 -28,12 -11,3 -24,4 -38,4l-85 0zm32 -27l50 0c15,0 27,-2 36,-5 9,-3 16,-7 21,-12 7,-7 13,-17 17,-30 4,-12 6,-27 6,-45 0,-25 -4,-44 -12,-57 -8,-13 -17,-22 -29,-26 -8,-4 -22,-5 -40,-5l-49 0 0 180z"/>
   <path id="1" class="fil4" d="M7368 6780l0 -25c-13,19 -31,29 -54,29 -10,0 -19,-2 -28,-6 -9,-4 -15,-9 -19,-15 -5,-5 -7,-12 -9,-21 -1,-6 -2,-15 -2,-27l0 -105 29 0 0 94c0,15 1,25 2,30 1,8 5,14 11,18 6,5 13,7 22,7 9,0 17,-2 24,-7 8,-4 13,-10 16,-18 3,-8 5,-19 5,-33l0 -91 29 0 0 170 -26 0z"/>
   <path id="2" class="fil4" d="M7555 6725l30 4c-4,17 -13,31 -26,40 -12,10 -29,15 -48,15 -25,0 -45,-8 -59,-23 -15,-16 -22,-37 -22,-65 0,-28 7,-50 22,-66 14,-16 34,-24 57,-24 23,0 41,8 56,23 14,16 21,38 21,66 0,1 0,4 0,7l-127 0c1,19 7,33 16,43 10,10 21,15 36,15 10,0 19,-3 27,-8 7,-6 13,-15 17,-27zm-94 -46l95 0c-2,-15 -5,-25 -11,-33 -9,-11 -21,-16 -36,-16 -13,0 -24,4 -33,13 -9,9 -14,21 -15,36z"/>
   <line class="fil1 str0" x1="6454" y1="7021" x2="10249" y2= "7021" />
   <path class="fil2" d="M8098 6545l31 0 0 136c0,23 -2,42 -8,56 -5,14 -15,25 -29,34 -13,9 -32,13 -54,13 -22,0 -40,-4 -54,-11 -14,-8 -24,-19 -30,-33 -6,-15 -9,-34 -9,-59l0 -136 31 0 0 136c0,20 2,35 6,45 4,10 10,17 19,22 9,6 21,8 34,8 23,0 39,-5 49,-15 9,-11 14,-31 14,-60l0 -136z"/>
   <path id="1" class="fil2" d="M8171 6705l29 -3c2,12 5,21 10,29 5,8 13,14 24,18 10,5 22,7 36,7 11,0 22,-1 31,-5 9,-3 16,-8 20,-14 5,-7 7,-13 7,-21 0,-7 -2,-13 -6,-19 -5,-5 -12,-10 -22,-14 -6,-2 -20,-6 -41,-11 -22,-5 -37,-10 -46,-15 -11,-6 -19,-13 -25,-22 -5,-8 -8,-18 -8,-29 0,-12 3,-23 10,-33 7,-11 17,-18 30,-24 12,-5 27,-8 43,-8 17,0 32,3 46,9 13,5 23,13 30,24 7,11 11,24 12,37l-30 3c-2,-15 -7,-26 -16,-34 -9,-7 -23,-11 -41,-11 -19,0 -33,3 -41,10 -9,7 -13,15 -13,25 0,8 3,15 9,21 6,5 22,11 47,17 25,5 42,10 52,15 13,6 24,14 30,24 7,9 10,20 10,33 0,12 -4,24 -11,35 -7,11 -17,20 -31,26 -13,6 -28,9 -45,9 -21,0 -39,-3 -53,-9 -15,-6 -26,-16 -34,-28 -8,-13 -13,-27 -13,-42z"/>
   <path id="2" class="fil2" d="M8400 6780l0 -235 81 0c18,0 32,1 42,3 13,4 25,9 34,17 13,11 22,24 28,40 6,17 9,35 9,56 0,18 -2,34 -6,48 -4,14 -9,25 -16,34 -6,9 -14,16 -21,21 -8,5 -17,9 -28,12 -11,3 -24,4 -38,4l-85 0zm31 -27l50 0c16,0 28,-2 37,-5 9,-3 16,-7 21,-12 7,-7 13,-17 17,-30 4,-12 6,-27 6,-45 0,-25 -4,-44 -12,-57 -8,-13 -18,-22 -29,-26 -9,-4 -22,-5 -40,-5l-50 0 0 180z"/>
   <path id="3" class="fil2" d="M8717 6718l30 -2c2,15 7,26 15,33 9,8 18,11 30,11 14,0 26,-5 36,-15 9,-11 14,-25 14,-42 0,-16 -5,-29 -14,-39 -9,-9 -21,-14 -36,-14 -9,0 -18,2 -25,6 -8,4 -13,10 -18,17l-27 -4 23 -121 116 0 0 28 -93 0 -13 63c14,-10 29,-15 44,-15 21,0 38,7 52,22 14,14 21,32 21,54 0,22 -6,40 -18,55 -15,20 -36,29 -62,29 -21,0 -39,-6 -52,-18 -14,-12 -21,-28 -23,-48z"/>
   <path id="4" class="fil2" d="M8991 6780l0 -56 -102 0 0 -27 108 -152 23 0 0 152 32 0 0 27 -32 0 0 56 -29 0zm0 -83l0 -105 -73 105 73 0z"/>
   <path id="5" class="fil2" d="M9082 6718l30 -2c2,15 7,26 16,33 8,8 18,11 29,11 14,0 26,-5 36,-15 9,-11 14,-25 14,-42 0,-16 -5,-29 -14,-39 -9,-9 -21,-14 -36,-14 -9,0 -18,2 -25,6 -8,4 -13,10 -18,17l-27 -4 23 -121 116 0 0 28 -93 0 -13 63c14,-10 29,-15 44,-15 21,0 38,7 52,22 14,14 21,32 21,54 0,22 -6,40 -18,55 -15,20 -36,29 -62,29 -21,0 -39,-6 -52,-18 -14,-12 -21,-28 -23,-48z"/>
   <path id="6" class="fil2" d="M9264 6664c0,-28 3,-50 9,-67 6,-17 14,-30 25,-39 12,-9 26,-14 43,-14 12,0 23,3 33,8 9,5 17,12 23,22 7,9 11,21 15,35 3,13 5,32 5,55 0,28 -3,50 -8,67 -6,17 -14,30 -26,39 -11,9 -25,14 -42,14 -23,0 -41,-8 -54,-24 -15,-20 -23,-52 -23,-96zm30 0c0,39 4,65 13,77 9,13 21,19 34,19 13,0 24,-6 33,-19 9,-13 14,-38 14,-77 0,-38 -5,-64 -14,-77 -9,-13 -20,-19 -34,-19 -13,0 -23,6 -31,17 -10,14 -15,41 -15,79z"/>
   <polygon id="7" class="fil2" points="9463,6780 9463,6747 9496,6747 9496,6780 "/>
   <path id="8" class="fil2" d="M9538 6664c0,-28 3,-50 9,-67 5,-17 14,-30 25,-39 11,-9 25,-14 42,-14 13,0 24,3 34,8 9,5 17,12 23,22 6,9 11,21 15,35 3,13 5,32 5,55 0,28 -3,50 -9,67 -5,17 -14,30 -25,39 -11,9 -25,14 -43,14 -22,0 -40,-8 -53,-24 -15,-20 -23,-52 -23,-96zm30 0c0,39 4,65 13,77 9,13 20,19 33,19 14,0 25,-6 34,-19 9,-13 13,-38 13,-77 0,-38 -4,-64 -13,-77 -9,-13 -20,-19 -34,-19 -13,0 -24,6 -32,17 -10,14 -14,41 -14,79z"/>
   <path id="9" class="fil2" d="M9721 6664c0,-28 2,-50 8,-67 6,-17 14,-30 26,-39 11,-9 25,-14 42,-14 13,0 24,3 33,8 10,5 18,12 24,22 6,9 11,21 14,35 4,13 5,32 5,55 0,28 -2,50 -8,67 -6,17 -14,30 -25,39 -12,9 -26,14 -43,14 -23,0 -40,-8 -53,-24 -16,-20 -23,-52 -23,-96zm29 0c0,39 5,65 14,77 9,13 20,19 33,19 13,0 24,-6 33,-19 9,-13 14,-38 14,-77 0,-38 -5,-64 -14,-77 -9,-13 -20,-19 -33,-19 -14,0 -24,6 -32,17 -10,14 -15,41 -15,79z"/>
  </g>
  <g id="_2490753850224">
   <ellipse class="fil0" cx="10472" cy="1270" rx="1268" ry="1270"/>
   <g>
    <path class="fil5" d="M10157 1731c169,117 390,131 571,34 252,-141 341,-359 290,-640 14,-4 31,-9 48,-13 16,-5 33,-9 49,-13 65,234 -5,486 -183,652 -232,219 -586,245 -847,62 -23,23 -45,45 -71,71 -19,-97 -38,-189 -57,-284 95,19 187,37 278,55 -25,24 -51,50 -78,76z"/>
    <path class="fil5" d="M10844 717c27,-27 54,-53 82,-82 19,94 38,186 57,281 -94,-19 -187,-37 -283,-56 24,-22 46,-42 68,-62l-4 -7c-186,-101 -377,-115 -562,-8 -243,141 -327,358 -275,632 -32,8 -66,18 -99,26 -67,-241 10,-500 198,-666 228,-203 564,-227 818,-58z"/>
   </g>
  </g>
 </g>
</svg>
