<?xml version="1.0" encoding="utf-8"?>
<!-- Generator: Adobe Illustrator 19.0.0, SVG Export Plug-In . SVG Version: 6.00 Build 0)  -->
<svg version="1.1" id="Layer_1" xmlns="http://www.w3.org/2000/svg" xmlns:xlink="http://www.w3.org/1999/xlink" x="0px" y="0px"
	 viewBox="-298 226.3 243 144" style="enable-background:new -298 226.3 243 144;" xml:space="preserve">
<style type="text/css">
	.st0{fill:#868EE0;}
	.st1{fill:#1A237E;}
</style>
<g id="Layer_x0020_1">
	<g id="_2490705221184">
		<path id="Path_10481" class="st0" d="M-239.2,289.8h-32.8c-0.9,0-1.8-0.7-1.8-1.8c0-0.9,0.9-1.8,1.8-1.8h32.8
			c0.9,0,1.6,0.9,1.8,1.8l0,0C-237.6,289-238.3,289.8-239.2,289.8z"/>
		<path id="Path_10482" class="st0" d="M-221.7,305.4h-50.4c-0.9,0-1.8-0.9-1.8-1.8l0,0c0-1.1,0.7-1.8,1.6-1.8c0.2,0,0.2,0,0.2,0
			h50.4c0.9,0,1.8,0.7,1.8,1.6c0,0,0,0,0,0.2C-219.8,304.4-220.6,305.4-221.7,305.4L-221.7,305.4z"/>
		<path id="Path_10483" class="st0" d="M-211,320.8h-61.1c-0.9,0-1.8-0.7-1.8-1.8c0-0.9,0.9-1.8,1.8-1.8h61.1c1.1,0,1.8,0.7,1.8,1.8
			l0,0C-209.1,320-209.9,320.8-211,320.8L-211,320.8z"/>
		<path id="Path_10484" class="st0" d="M-211,336.2h-61.1c-0.9,0-1.8-0.7-1.8-1.6v-0.2c0-0.9,0.7-1.6,1.6-1.8c0.2,0,0.2,0,0.2,0
			h61.1c1.1,0,1.8,0.7,1.8,1.8l0,0C-209.1,335.5-209.9,336.2-211,336.2L-211,336.2z"/>
		<path id="Path_10485" class="st0" d="M-211,352.3h-61.1c-0.9,0-1.8-0.7-1.8-1.8l0,0c0-0.9,0.7-1.8,1.6-1.8c0.2,0,0.2,0,0.2,0h61.1
			c1.1,0,1.8,0.7,1.8,1.6v0.2C-209.1,351.4-209.9,352.3-211,352.3L-211,352.3z"/>
		<g>
			<path class="st0" d="M-262,258.8h2.8l-4.4,12.8h-3l-4.4-12.8h2.8l2.4,7.6c0.1,0.5,0.3,1,0.4,1.6s0.2,1,0.3,1.3
				c0.1-0.5,0.3-1.5,0.7-2.8L-262,258.8z"/>
			<path class="st0" d="M-249.8,271.6l-0.9-3.1h-4.7l-0.9,3.1h-2.9l4.5-12.9h3.3l4.6,12.9H-249.8z M-251.4,266.3
				c-0.9-2.8-1.3-4.3-1.5-4.7s-0.2-0.7-0.2-0.9c-0.2,0.8-0.7,2.6-1.7,5.6H-251.4z"/>
			<path class="st0" d="M-240.3,271.6h-2.7V261h-3.5v-2.3h9.7v2.3h-3.5V271.6z"/>
		</g>
		<path id="Path_10487" class="st1" d="M-287.1,370.3c-0.4,0-0.7-0.4-0.7-0.7v-10.3h-9.4c-0.4,0-0.7-0.4-0.7-0.7V227.7
			c0-0.4,0.4-0.7,0.7-0.7h15.6h0.2h35.7l0,0h6l0,0h34.8c0.5,0,0.7,0.4,0.7,0.7v27.4l9.1,10.9l0,0c0,0,0.2,0.2,0.2,0.5v37.5v0.2v13.6
			v1.6v12.9v0.2v37c0,0.4-0.4,0.7-0.7,0.7H-287.1z M-277.7,228.6c-0.2,0-0.2,0-0.4,0h-18.3v129.1h8.5V237.9c0-0.4,0.4-0.7,0.7-0.7
			h67.6c0.2,0,0.4,0,0.5,0.2l13.2,16v-24.7h-33.9h-0.2h-1.6l0,0h-3.6h-0.7H-277.7z M-286.4,357.8h80.7V255.8l-14.3-17h-66.4V357.8z
			 M-204.2,257.8v100.6c0,0.4-0.2,0.7-0.7,0.7h-81.4v9.6h89.8v-35.4v-0.2v-13.8v-1.6v-12.3v-0.2v-38.6L-204.2,257.8z"/>
		<path id="Path_10488" class="st1" d="M-221.1,268.2c-0.5,0-0.9-0.4-0.9-0.7v-28.3c0-0.4,0.4-0.7,0.9-0.7c0.4,0,0.7,0.2,0.7,0.7
			l0,0v27.4h23c0.4,0,0.7,0.4,0.7,0.9c0,0.4-0.4,0.7-0.7,0.7H-221.1z"/>
		<path id="Path_10493" class="st1" d="M-170.9,307.9c-0.2,0-0.4,0-0.5-0.2c-0.2-0.2-0.2-0.4-0.2-0.7c0-0.2,0-0.4,0.2-0.4l8-8h-25.2
			c-0.4,0-0.7-0.4-0.7-0.9c0-0.4,0.4-0.7,0.7-0.7h24.5l-6.7-7.3c0-0.2-0.2-0.4-0.2-0.5c0-0.2,0.2-0.4,0.4-0.5c0-0.2,0.4-0.2,0.5-0.2
			c0.2,0,0.4,0,0.4,0.2l8.3,9.1c0.4,0.4,0.4,0.7,0,1.1l-8.9,8.9C-170.3,307.7-170.7,307.9-170.9,307.9z"/>
		<rect id="Rectangle_2374" x="-65.7" y="307.5" class="st0" width="5.3" height="40.6"/>
		<rect id="Rectangle_2375" x="-94" y="307.5" class="st0" width="5.3" height="40.6"/>
		<rect id="Rectangle_2376" x="-122.3" y="307.5" class="st0" width="5.3" height="40.6"/>
		<rect id="Rectangle_2377" x="-150.4" y="307.5" class="st0" width="5.3" height="40.6"/>
		<path id="Path_10417" class="st0" d="M-104.1,252.4h28.8c0.7,0,1.3-0.5,1.3-1.1c0,0,0,0,0-0.2v-21.4c0-0.7-0.5-1.1-1.1-1.1
			c0,0,0,0-0.2,0h-28.8v-1.3c0-0.5-0.5-1.1-1.1-1.1h-0.2h-2c-0.7,0-1.1,0.4-1.1,1.1l0,0v40.3h4.2v-15.2H-104.1z"/>
		<rect id="Rectangle_2378" x="-155.8" y="350.3" class="st0" width="100.9" height="5.9"/>
		<rect id="Rectangle_2379" x="-155.8" y="363.7" class="st0" width="100.9" height="5.9"/>
		<path id="Path_10418" class="st0" d="M-61.9,300.1c-6.3-24.3-31-38.8-55.1-32.6c-16.1,4.2-28.7,16.7-32.6,32.6H-61.9z"/>
	</g>
</g>
</svg>
