<?xml version="1.0" encoding="UTF-8"?>
<!DOCTYPE svg PUBLIC "-//W3C//DTD SVG 1.1//EN" "http://www.w3.org/Graphics/SVG/1.1/DTD/svg11.dtd">
<!-- Creator: CorelDRAW X8 -->
<svg xmlns="http://www.w3.org/2000/svg" xml:space="preserve" width="3.47354in" height="5.16037in" version="1.1" style="shape-rendering:geometricPrecision; text-rendering:geometricPrecision; image-rendering:optimizeQuality; fill-rule:evenodd; clip-rule:evenodd"
viewBox="0 0 1133 1683"
 xmlns:xlink="http://www.w3.org/1999/xlink">
 <defs>
  <style type="text/css">
   <![CDATA[
    .fil0 {fill:#35376F;fill-rule:nonzero}
   ]]>
  </style>
 </defs>
 <g id="Layer_x0020_1">
  <metadata id="CorelCorpID_0Corel-Layer"/>
  <g id="_2122830450256">
   <path class="fil0" d="M137 290c-13,-60 -6,-124 28,-178 50,-80 154,-110 237,-63 67,39 100,112 108,186 9,-2 18,-5 27,-6 -2,-15 -5,-31 -9,-46 -21,-78 -72,-148 -151,-174 -97,-30 -197,17 -244,105 -32,61 -36,128 -20,193 8,-6 16,-12 24,-17z"/>
   <path class="fil0" d="M1031 748c-34,51 -77,96 -124,136 -45,39 -95,69 -143,104 -8,-3 -22,-3 -29,2 -17,-38 -36,-75 -53,-112 -9,10 -18,20 -27,29 14,30 30,60 48,87 -20,8 -39,29 -49,43 -21,32 14,42 38,51 3,1 7,2 10,3 -2,10 -10,31 -11,35 -3,13 -5,27 -7,40 -2,30 -2,59 -7,88 -5,32 -18,60 -39,85 -18,20 -38,38 -56,59 -36,39 -60,87 -71,139 -2,12 -4,27 -6,42 1,2 1,3 1,5 4,16 9,31 15,46 5,13 12,27 15,40 0,-13 -3,-27 -5,-40 -1,-16 -2,-32 -1,-48 1,-31 8,-62 20,-91 12,-31 30,-58 52,-82 21,-23 45,-43 63,-69 39,-53 35,-117 38,-180 0,-19 2,-37 6,-56 1,-2 2,-6 3,-9 13,4 26,8 39,9 10,1 21,-2 25,-13 5,-15 1,-37 1,-53 -1,-12 2,-26 -5,-36 67,-21 129,-67 180,-114 57,-51 108,-112 142,-182 11,-22 20,-46 26,-71 26,-95 15,-201 -54,-277 -79,-87 -205,-101 -305,-49 7,9 14,17 20,27 101,-52 229,-21 287,80 62,106 28,236 -37,332zm-278 -396c-1,-1 -1,-1 -2,-2 1,1 1,1 2,2zm-4 -4c0,-1 -1,-2 -1,-3 0,1 1,2 1,3zm-3 -5c0,0 -1,-1 -2,-2 1,1 2,2 2,2zm-3 -4c-1,-1 -2,-2 -2,-3 0,1 1,2 2,3zm-4 -4c0,-1 -1,-2 -2,-3 1,1 2,2 2,3zm-3 -4c-1,-1 -2,-2 -3,-4 1,2 2,3 3,4zm-23 735c-7,-3 -14,-5 -21,-8 -4,-1 -7,-2 -11,-3 -2,-2 -4,-2 -5,-3 16,-15 47,-45 71,-45 2,0 5,0 7,-1 -3,8 -2,16 -3,24 0,8 0,15 -1,23 0,3 1,16 0,23 -12,-1 -26,-7 -37,-10zm-191 610c1,2 3,3 4,5 2,2 5,2 7,1 -2,0 -3,0 -4,-1 -3,-2 -5,-3 -7,-5z"/>
   <path class="fil0" d="M431 872c-14,30 -29,59 -43,90 -8,1 -20,8 -24,16 -49,-36 -102,-67 -149,-107 -53,-44 -100,-95 -134,-156 -56,-100 -69,-224 -6,-324 62,-98 189,-135 291,-77 3,2 7,5 10,7 -79,94 -92,223 -58,339 19,65 51,126 90,181 7,10 15,21 23,31zm-26 -535l1 -1c1,-1 2,-2 3,-3l0 -1c1,-1 2,-2 3,-3l1 0c1,-2 2,-3 3,-4l1 0c1,-2 2,-3 3,-4l0 0 0 0 1 0c1,-1 2,-3 4,-4 84,-78 217,-81 300,2 87,87 88,221 50,330 -20,59 -50,113 -85,164 -33,49 -74,91 -111,137 -9,-1 -22,3 -27,9 -27,-33 -55,-63 -82,-95l-1 -1 0 -1 0 0 -1 -1 0 0 0 0 -1 0 0 -1 0 0 -1 -1 -1 -1 0 -1 0 0 -2 -1 0 -1 0 0 -1 -2 -1 0c-1,-1 -2,-2 -3,-4l0 0 0 -1 -1 0 -1 -1 0 -1 0 0 -1 -2 -1 0 -1 -2 -1 0 0 -1 -1 -1 0 -1 -1 0 0 -1 -1 0 0 -1 0 0 -1 -1 0 -1 -1 0c-4,-6 -8,-12 -12,-17 -40,-57 -72,-119 -89,-186 -26,-102 -11,-215 59,-295zm-6 -40c-19,-14 -41,-24 -64,-32 -118,-38 -242,21 -299,128 -61,115 -40,249 25,357 35,58 82,108 134,151 44,36 92,71 143,97 -13,16 -19,44 -20,61 -3,38 33,30 58,25 3,0 7,-1 11,-2 3,9 6,32 7,36 4,13 9,26 15,38 12,27 27,52 37,80 12,30 14,60 9,93 -5,26 -14,52 -20,79 -11,51 -8,105 9,155 14,41 41,101 84,118l1 0c4,3 9,-2 8,-6 -3,-16 -11,-30 -16,-45 -6,-15 -11,-30 -15,-46 -6,-30 -8,-62 -4,-93 4,-32 14,-63 30,-92 14,-28 31,-54 43,-83 24,-62 3,-123 -11,-184 -4,-18 -7,-37 -8,-55 0,-3 0,-7 0,-10 14,1 28,1 40,-1 11,-2 20,-8 21,-19 2,-16 -8,-37 -13,-52 -3,-12 -5,-26 -14,-34 60,-37 107,-98 145,-156 41,-65 75,-137 90,-213 4,-24 7,-49 7,-75 0,-99 -38,-198 -125,-254 -98,-63 -225,-44 -308,34zm85 1299c-1,-1 -1,-2 -2,-3 -14,-28 -24,-58 -28,-89 -4,-32 -2,-64 5,-96 7,-31 17,-61 20,-92 7,-66 -28,-119 -58,-175 -9,-16 -16,-33 -22,-51 -1,-2 -1,-6 -2,-10 13,-2 26,-5 38,-11 10,-4 17,-12 15,-23 -2,-17 -17,-34 -26,-47 -6,-11 -11,-24 -22,-29 19,-21 36,-45 50,-71 21,26 44,51 69,73 -17,12 -29,38 -35,54 -12,36 24,37 49,39 4,0 7,1 11,1 1,9 -2,32 -2,36 1,14 2,27 4,41 5,29 13,57 16,87 3,32 -2,62 -16,91 -12,25 -27,48 -39,72 -24,47 -35,100 -32,152 1,15 3,33 7,51zm66 -558c-7,0 -15,-1 -22,-1 -4,-1 -8,-1 -12,-1 -2,-1 -4,-1 -5,-1 10,-16 39,-57 57,-62 2,-1 4,-2 6,-3 -1,8 2,16 4,24 1,8 3,15 5,22 0,3 5,16 6,23 -13,2 -28,0 -39,-1zm-167 16c-7,2 -14,4 -22,5 -4,1 -7,1 -11,2 -2,0 -4,0 -6,0 7,-22 18,-61 39,-74 2,-2 4,-3 6,-4 1,8 6,15 10,22 3,7 6,13 10,20 1,2 9,14 12,20 -12,5 -27,7 -38,9z"/>
   <path class="fil0" d="M937 290c13,-60 6,-124 -28,-178 -50,-80 -154,-110 -237,-63 -68,39 -100,112 -108,186 -9,-2 -18,-5 -27,-6 2,-15 5,-31 9,-46 21,-78 71,-148 151,-174 96,-30 197,17 244,105 32,61 36,128 20,193 -8,-6 -16,-12 -24,-17z"/>
  </g>
 </g>
</svg>
