<?xml version="1.0" encoding="UTF-8"?>
<!DOCTYPE svg PUBLIC "-//W3C//DTD SVG 1.1//EN" "http://www.w3.org/Graphics/SVG/1.1/DTD/svg11.dtd">
<!-- Creator: CorelDRAW X8 -->
<svg xmlns="http://www.w3.org/2000/svg" xml:space="preserve" width="4.45305in" height="3in" version="1.1" style="shape-rendering:geometricPrecision; text-rendering:geometricPrecision; image-rendering:optimizeQuality; fill-rule:evenodd; clip-rule:evenodd"
viewBox="0 0 1614 1087"
 xmlns:xlink="http://www.w3.org/1999/xlink">
 <defs>
  <style type="text/css">
   <![CDATA[
    .str0 {stroke:#1A237E;stroke-width:1.08636}
    .fil1 {fill:none}
    .fil6 {fill:#FEFEFE}
    .fil4 {fill:#E6E7E8}
    .fil0 {fill:#1A237E}
    .fil5 {fill:#FEFEFE;fill-rule:nonzero}
    .fil3 {fill:black;fill-rule:nonzero}
    .fil2 {fill:#1A237E;fill-rule:nonzero}
   ]]>
  </style>
 </defs>
 <g id="Layer_x0020_1">
  <metadata id="CorelCorpID_0Corel-Layer"/>
  <g id="_2490759003376">
   <path class="fil0" d="M1415 122l-1361 0c-30,0 -54,24 -54,54l0 857c0,30 24,54 54,54l1361 0c30,0 55,-24 55,-54l0 -857c0,-30 -25,-54 -55,-54zm3 864c0,31 -25,55 -56,55l-1256 0c-30,0 -55,-24 -56,-55l0 -765c1,-30 26,-55 56,-54l1257 0c31,-1 56,24 56,54l0 765 -1 0z"/>
   <line class="fil1 str0" x1="85" y1="327" x2="1330" y2= "321" />
   <path class="fil2" d="M120 266l9 2c-1,5 -4,9 -7,11 -3,2 -6,4 -11,4 -6,0 -11,-2 -14,-6 -4,-4 -6,-10 -6,-17 0,-7 2,-13 6,-17 3,-4 8,-6 14,-6 6,0 10,2 13,5 2,2 4,5 5,8l-9 2c0,-2 -1,-4 -3,-5 -2,-1 -4,-2 -6,-2 -3,0 -6,1 -8,3 -2,3 -3,7 -3,12 0,5 1,9 3,11 2,3 5,4 8,4 2,0 4,-1 6,-2 1,-2 3,-4 3,-7z"/>
   <path id="1" class="fil2" d="M134 266c0,-3 1,-6 3,-8 1,-3 3,-5 5,-6 3,-2 6,-2 9,-2 4,0 8,1 11,4 3,3 5,7 5,12 0,5 -2,9 -5,12 -3,3 -7,5 -11,5 -3,0 -6,-1 -8,-2 -3,-2 -5,-4 -6,-6 -2,-3 -3,-6 -3,-9zm9 0c0,3 1,6 2,7 2,2 4,3 6,3 2,0 4,-1 5,-3 2,-1 2,-4 2,-7 0,-3 0,-5 -2,-7 -1,-2 -3,-3 -5,-3 -2,0 -4,1 -6,3 -1,2 -2,4 -2,7z"/>
   <path id="2" class="fil2" d="M202 282l-8 0 0 -16c0,-4 0,-6 -1,-7 0,-1 -1,-2 -1,-2 -1,-1 -2,-1 -3,-1 -2,0 -3,0 -4,1 -1,1 -2,2 -3,3 0,2 0,4 0,8l0 14 -9 0 0 -32 8 0 0 5c3,-4 6,-5 11,-5 1,0 3,0 5,1 1,0 2,1 3,2 1,1 2,2 2,4 0,1 0,3 0,5l0 20z"/>
   <path id="3" class="fil2" d="M239 282l-8 0 0 -16c0,-4 0,-6 0,-7 -1,-1 -1,-2 -2,-2 -1,-1 -2,-1 -3,-1 -2,0 -3,0 -4,1 -1,1 -2,2 -2,3 -1,2 -1,4 -1,8l0 14 -8 0 0 -32 7 0 0 5c3,-4 7,-5 11,-5 2,0 3,0 5,1 1,0 3,1 3,2 1,1 2,2 2,4 0,1 0,3 0,5l0 20z"/>
   <path id="4" class="fil2" d="M266 272l8 1c-1,3 -2,6 -5,7 -2,2 -5,3 -8,3 -6,0 -10,-2 -12,-6 -3,-3 -4,-6 -4,-11 0,-5 2,-9 5,-12 2,-3 6,-4 10,-4 5,0 8,1 11,4 3,3 4,8 4,14l-21 0c0,3 1,5 2,6 1,2 3,2 5,2 1,0 2,0 3,-1 1,0 2,-2 2,-3zm1 -9c0,-2 -1,-4 -2,-5 -1,-1 -3,-2 -5,-2 -1,0 -3,1 -4,2 -1,1 -2,3 -2,5l13 0z"/>
   <path id="5" class="fil2" d="M309 260l-8 1c0,-2 -1,-3 -2,-4 -1,0 -2,-1 -4,-1 -2,0 -3,1 -5,2 -1,2 -2,4 -2,8 0,3 1,6 2,7 2,2 3,3 5,3 2,0 3,-1 4,-2 1,0 2,-2 2,-4l9 1c-1,4 -3,7 -5,9 -3,2 -6,3 -10,3 -5,0 -8,-2 -11,-5 -3,-3 -4,-7 -4,-12 0,-5 1,-9 4,-12 3,-3 6,-4 11,-4 4,0 7,0 9,2 3,2 4,4 5,8z"/>
   <path id="6" class="fil2" d="M330 250l0 7 -6 0 0 13c0,2 0,4 0,4 0,1 1,1 1,1 0,1 1,1 1,1 1,0 2,-1 4,-1l1 6c-2,1 -5,2 -7,2 -2,0 -3,-1 -4,-1 -1,-1 -2,-1 -3,-2 0,-1 -1,-2 -1,-3 0,-1 0,-3 0,-6l0 -14 -4 0 0 -7 4 0 0 -6 8 -5 0 11 6 0z"/>
   <path id="7" class="fil2" d="M353 238l17 0c4,0 6,0 8,1 2,0 3,1 4,1 2,1 3,3 4,4 1,2 1,3 1,5 0,2 -1,4 -2,6 -1,1 -2,3 -4,4 3,0 5,2 6,4 1,1 2,4 2,6 0,2 0,4 -1,6 -1,2 -2,3 -4,4 -2,2 -4,2 -6,2 -1,1 -5,1 -10,1l-15 0 0 -44zm8 7l0 11 6 0c4,0 6,-1 7,-1 1,0 2,0 3,-1 1,-1 1,-2 1,-4 0,-1 0,-2 -1,-3 0,-1 -1,-1 -3,-1 -1,0 -3,-1 -7,-1l-6 0zm0 18l0 11 9 0c3,0 5,0 6,0 1,0 2,-1 3,-2 1,-1 1,-2 1,-3 0,-2 0,-3 -1,-4 0,-1 -1,-1 -3,-2 -1,0 -3,0 -7,0l-8 0z"/>
   <path id="8" class="fil2" d="M403 260l-8 -1c1,-3 3,-6 5,-7 2,-2 5,-2 9,-2 4,0 6,0 8,1 2,1 3,2 4,3 1,2 1,4 1,8l0 9c0,3 0,5 0,7 1,1 1,2 2,4l-8 0c-1,-1 -1,-2 -1,-3 0,0 0,0 0,-1 -2,2 -3,3 -5,4 -2,0 -3,1 -5,1 -3,0 -6,-1 -8,-3 -2,-2 -3,-4 -3,-7 0,-2 1,-3 2,-5 0,-1 2,-2 3,-3 2,0 4,-1 7,-2 4,0 6,-1 8,-2l0 -1c0,-1 0,-2 -1,-3 -1,-1 -3,-1 -5,-1 -1,0 -2,0 -3,1 -1,0 -2,1 -2,3zm11 7c-1,0 -3,0 -5,1 -2,0 -4,1 -5,1 -1,1 -1,2 -1,3 0,2 0,3 1,3 1,1 2,2 3,2 2,0 3,-1 5,-2 1,-1 1,-1 2,-3 0,0 0,-2 0,-4l0 -1z"/>
   <path id="9" class="fil2" d="M459 282l-8 0 0 -16c0,-4 0,-6 -1,-7 0,-1 -1,-2 -2,-2 0,-1 -1,-1 -2,-1 -2,0 -3,0 -4,1 -2,1 -2,2 -3,3 0,2 0,4 0,8l0 14 -9 0 0 -32 8 0 0 5c3,-4 6,-5 10,-5 2,0 4,0 5,1 2,0 3,1 4,2 1,1 1,2 2,4 0,1 0,3 0,5l0 20z"/>
   <polygon id="10" class="fil2" points="467,282 467,238 476,238 476,261 485,250 496,250 485,262 496,282 487,282 479,268 476,272 476,282 "/>
   <path class="fil3" d="M88 438l17 -43 6 0 18 43 -7 0 -5 -13 -18 0 -5 13 -6 0zm13 -18l14 0 -4 -12c-1,-4 -3,-7 -3,-9 -1,3 -2,6 -3,8l-4 13z"/>
   <path id="1" class="fil3" d="M153 438l0 -4c-2,3 -5,5 -9,5 -2,0 -5,-1 -7,-2 -2,-2 -3,-4 -5,-6 -1,-3 -1,-5 -1,-9 0,-3 0,-6 1,-8 1,-3 3,-5 5,-6 2,-1 4,-2 7,-2 2,0 4,0 5,1 2,1 3,2 4,3l0 -15 5 0 0 43 -5 0zm-17 -16c0,4 1,7 3,9 1,2 3,3 6,3 2,0 4,-1 6,-2 1,-2 2,-5 2,-9 0,-4 -1,-8 -2,-10 -2,-2 -4,-3 -6,-3 -3,0 -5,1 -6,3 -2,2 -3,5 -3,9z"/>
   <path id="2" class="fil3" d="M187 438l0 -4c-2,3 -5,5 -9,5 -2,0 -5,-1 -7,-2 -2,-2 -4,-4 -5,-6 -1,-3 -1,-5 -1,-9 0,-3 0,-6 1,-8 1,-3 3,-5 5,-6 2,-1 4,-2 7,-2 2,0 3,0 5,1 1,1 3,2 4,3l0 -15 5 0 0 43 -5 0zm-17 -16c0,4 1,7 3,9 1,2 3,3 6,3 2,0 4,-1 6,-2 1,-2 2,-5 2,-9 0,-4 -1,-8 -2,-10 -2,-2 -4,-3 -7,-3 -2,0 -4,1 -6,3 -1,2 -2,5 -2,9z"/>
   <path id="3" class="fil3" d="M218 438l0 -43 16 0c3,0 6,0 8,1 2,1 4,2 5,4 1,2 1,4 1,6 0,2 0,3 -1,5 -1,2 -3,3 -5,4 3,1 5,2 6,4 2,2 3,4 3,6 0,3 -1,4 -2,6 -1,2 -2,3 -3,4 -1,1 -3,2 -5,2 -2,1 -4,1 -7,1l-16 0zm5 -25l10 0c2,0 4,0 5,-1 2,0 3,-1 4,-2 0,-1 1,-2 1,-4 0,-1 -1,-2 -1,-3 -1,-2 -2,-2 -3,-3 -2,0 -4,0 -7,0l-9 0 0 13zm0 20l11 0c2,0 3,0 4,0 2,0 3,-1 4,-1 0,-1 1,-2 2,-3 0,-1 1,-2 1,-4 0,-1 -1,-3 -2,-4 0,-1 -2,-2 -3,-2 -2,-1 -4,-1 -6,-1l-11 0 0 15z"/>
   <path id="4" class="fil3" d="M278 434c-2,2 -3,3 -5,4 -2,0 -4,1 -6,1 -4,0 -6,-1 -8,-3 -2,-1 -3,-4 -3,-6 0,-2 0,-3 1,-4 1,-2 2,-3 3,-4 1,0 2,-1 4,-1 1,-1 2,-1 4,-1 5,-1 8,-1 10,-2 0,-1 0,-1 0,-1 0,-2 -1,-4 -2,-5 -1,-1 -3,-2 -6,-2 -2,0 -4,1 -5,2 -1,1 -2,2 -3,4l-5 0c0,-3 1,-4 2,-6 1,-1 3,-2 5,-3 2,-1 4,-1 7,-1 3,0 5,0 7,1 1,0 3,1 3,2 1,1 2,2 2,4 0,1 0,2 0,5l0 7c0,5 0,8 1,9 0,2 0,3 1,4l-6 0c0,-1 0,-2 -1,-4zm0 -12c-2,1 -5,2 -9,2 -2,1 -4,1 -4,1 -1,1 -2,1 -3,2 0,1 0,2 0,3 0,1 0,2 1,3 1,1 3,2 5,2 2,0 4,-1 6,-2 1,-1 2,-2 3,-3 1,-2 1,-3 1,-6l0 -2z"/>
   <path id="5" class="fil3" d="M292 438l0 -31 4 0 0 4c3,-3 6,-5 10,-5 2,0 4,0 6,1 1,1 2,1 3,3 1,1 2,2 2,4 0,1 0,2 0,5l0 19 -5 0 0 -19c0,-2 0,-4 -1,-5 0,-1 -1,-2 -2,-3 -1,0 -2,-1 -4,-1 -2,0 -4,1 -6,3 -1,1 -2,4 -2,8l0 17 -5 0z"/>
   <polygon id="6" class="fil3" points="325,438 325,395 331,395 331,419 343,407 350,407 338,418 352,438 345,438 334,422 331,426 331,438 "/>
   <path id="7" class="fil3" d="M365 438l17 -43 6 0 18 43 -7 0 -5 -13 -18 0 -5 13 -6 0zm13 -18l15 0 -5 -12c-1,-4 -2,-7 -3,-9 -1,3 -1,6 -2,8l-5 13z"/>
   <path id="8" class="fil3" d="M431 427l5 0c-1,4 -2,7 -5,9 -2,2 -5,3 -8,3 -5,0 -8,-2 -11,-4 -2,-3 -4,-7 -4,-13 0,-3 1,-6 2,-8 1,-3 3,-5 5,-6 2,-1 5,-2 8,-2 3,0 6,1 8,2 2,2 4,5 4,8l-5 1c0,-2 -1,-4 -3,-5 -1,-1 -2,-2 -4,-2 -3,0 -5,1 -7,3 -1,2 -2,5 -2,9 0,5 1,8 2,10 2,1 4,2 7,2 2,0 3,0 5,-2 1,-1 2,-3 3,-5z"/>
   <path id="9" class="fil3" d="M461 427l5 0c0,4 -2,7 -4,9 -3,2 -6,3 -9,3 -4,0 -8,-2 -10,-4 -3,-3 -4,-7 -4,-13 0,-3 0,-6 1,-8 2,-3 3,-5 6,-6 2,-1 4,-2 7,-2 4,0 6,1 8,2 3,2 4,5 5,8l-6 1c0,-2 -1,-4 -2,-5 -1,-1 -3,-2 -5,-2 -2,0 -5,1 -6,3 -2,2 -3,5 -3,9 0,5 1,8 3,10 1,1 3,2 6,2 2,0 4,0 5,-2 2,-1 3,-3 3,-5z"/>
   <path id="10" class="fil3" d="M469 422c0,-6 1,-10 5,-13 2,-2 6,-3 9,-3 5,0 8,1 11,4 3,3 4,7 4,12 0,4 0,7 -2,9 -1,3 -3,5 -5,6 -2,1 -5,2 -8,2 -4,0 -7,-2 -10,-4 -3,-3 -4,-7 -4,-13zm5 0c0,4 1,7 3,9 2,2 4,3 6,3 3,0 5,-1 7,-3 2,-2 3,-5 3,-9 0,-4 -1,-7 -3,-9 -2,-2 -4,-3 -7,-3 -2,0 -4,1 -6,3 -2,2 -3,5 -3,9z"/>
   <path id="11" class="fil3" d="M525 438l0 -5c-2,4 -6,6 -10,6 -2,0 -3,-1 -5,-1 -2,-1 -3,-2 -4,-3 0,-1 -1,-2 -1,-4 0,-1 -1,-3 -1,-5l0 -19 6 0 0 17c0,3 0,5 0,6 0,1 1,2 2,3 1,1 3,1 4,1 2,0 3,0 5,-1 1,-1 2,-2 3,-3 0,-2 1,-4 1,-7l0 -16 5 0 0 31 -5 0z"/>
   <path id="12" class="fil3" d="M538 438l0 -31 5 0 0 4c2,-3 6,-5 10,-5 2,0 4,0 5,1 2,1 3,1 4,3 1,1 1,2 2,4 0,1 0,2 0,5l0 19 -5 0 0 -19c0,-2 -1,-4 -1,-5 0,-1 -1,-2 -2,-3 -1,0 -3,-1 -4,-1 -2,0 -4,1 -6,3 -1,1 -2,4 -2,8l0 17 -6 0z"/>
   <path id="13" class="fil3" d="M584 433l0 5c-1,0 -2,1 -4,1 -1,0 -3,-1 -4,-1 -1,-1 -2,-2 -2,-3 -1,-1 -1,-3 -1,-6l0 -18 -4 0 0 -4 4 0 0 -8 5 -3 0 11 6 0 0 4 -6 0 0 18c0,2 1,3 1,3 0,1 0,1 1,1 0,0 1,1 1,1 1,0 2,-1 3,-1z"/>
   <path class="fil1" d="M100 525l1254 0c7,0 12,5 12,12l0 135c0,7 -5,13 -12,13l-1254 0c-6,0 -12,-6 -12,-13l0 -135c0,-7 6,-12 12,-12z"/>
   <path class="fil4" d="M100 547l1254 0c6,0 10,3 10,7l0 101c0,4 -4,8 -10,8l-1254 0c-5,0 -10,-4 -10,-8l0 -101c0,-4 5,-7 10,-7z"/>
   <path class="fil0" d="M100 777l314 0c7,0 12,5 12,11l0 94c0,6 -5,11 -12,11l-314 0c-6,0 -12,-5 -12,-11l0 -94c0,-6 6,-11 12,-11z"/>
   <path class="fil1" d="M500 771l276 0c7,0 13,5 13,12l0 104c0,7 -6,13 -13,13l-276 0c-7,0 -12,-6 -12,-13l0 -104c0,-7 5,-12 12,-12z"/>
   <path class="fil3" d="M139 617l5 -1c1,2 2,3 3,5 1,1 3,1 6,1 2,0 4,0 5,-1 1,-1 2,-2 2,-4 0,-1 -1,-2 -2,-3 0,0 -2,-1 -5,-1 -4,-1 -7,-2 -8,-3 -2,-1 -3,-2 -4,-3 -1,-1 -1,-3 -1,-4 0,-2 0,-3 1,-4 1,-1 2,-2 3,-3 0,-1 2,-1 3,-2 1,0 3,0 5,0 2,0 4,0 6,1 2,0 3,1 4,3 1,1 2,3 2,5l-5 0c0,-1 -1,-3 -2,-4 -1,0 -3,-1 -5,-1 -2,0 -4,0 -5,1 -1,1 -2,2 -2,3 0,1 0,1 1,2 0,1 1,1 2,1 0,1 2,1 5,2 3,1 6,2 8,2 1,1 2,2 3,3 1,1 1,3 1,5 0,1 0,3 -1,5 -1,1 -3,2 -5,3 -2,1 -4,2 -6,2 -4,0 -8,-1 -10,-3 -2,-2 -3,-4 -4,-7z"/>
   <path id="1" class="fil3" d="M193 616l6 0c-1,4 -3,6 -5,8 -2,2 -5,3 -9,3 -5,0 -8,-2 -11,-5 -3,-2 -4,-6 -4,-12 0,-5 1,-9 4,-12 3,-3 6,-4 11,-4 4,0 7,1 10,4 3,3 4,7 4,12 0,0 0,1 0,2l-24 0c1,3 2,6 3,7 2,2 4,3 7,3 2,0 4,0 5,-1 1,-1 2,-3 3,-5zm-17 -9l17 0c0,-3 -1,-5 -2,-6 -1,-2 -4,-3 -6,-3 -3,0 -5,1 -7,3 -1,1 -2,3 -2,6z"/>
   <path id="2" class="fil3" d="M226 622c-2,2 -4,3 -6,4 -1,0 -3,1 -6,1 -3,0 -6,-1 -8,-3 -1,-2 -2,-4 -2,-6 0,-2 0,-3 1,-5 0,-1 1,-2 2,-3 2,0 3,-1 4,-1 1,-1 3,-1 5,-1 4,-1 8,-1 10,-2 0,-1 0,-1 0,-1 0,-3 -1,-4 -2,-5 -1,-1 -3,-2 -6,-2 -2,0 -4,1 -6,1 -1,1 -2,3 -2,5l-5 -1c0,-2 1,-4 2,-5 1,-1 3,-2 5,-3 2,-1 4,-1 7,-1 3,0 5,0 6,1 2,0 3,1 4,2 1,1 1,2 2,4 0,1 0,2 0,5l0 7c0,5 0,8 0,9 1,1 1,3 2,4l-6 0c0,-1 -1,-3 -1,-4zm0 -12c-2,1 -5,2 -9,2 -2,0 -4,1 -5,1 -1,1 -1,1 -2,2 0,1 -1,2 -1,2 0,2 1,3 2,4 1,1 3,1 5,1 2,0 4,0 5,-1 2,-1 3,-2 4,-4 0,-1 1,-3 1,-5l0 -2z"/>
   <path id="3" class="fil3" d="M239 626l0 -32 5 0 0 5c1,-2 2,-4 3,-4 1,-1 3,-1 4,-1 2,0 3,0 5,1l-2 5c-1,0 -2,-1 -3,-1 -2,0 -3,1 -4,1 0,1 -1,2 -2,3 0,2 0,4 0,6l0 17 -6 0z"/>
   <path id="4" class="fil3" d="M280 614l5 1c0,4 -2,7 -4,9 -2,2 -5,3 -9,3 -4,0 -8,-2 -10,-5 -3,-2 -4,-6 -4,-12 0,-3 1,-6 2,-9 1,-2 2,-4 5,-5 2,-2 5,-2 7,-2 4,0 7,1 9,2 2,2 3,4 4,8l-5 0c-1,-2 -2,-3 -3,-4 -1,-1 -3,-2 -4,-2 -3,0 -5,1 -7,3 -2,2 -3,5 -3,9 0,4 1,7 3,9 1,2 4,3 6,3 2,0 4,0 5,-2 2,-1 3,-3 3,-6z"/>
   <path id="5" class="fil3" d="M290 626l0 -44 5 0 0 16c3,-3 6,-4 10,-4 2,0 4,0 6,1 1,1 3,2 3,4 1,2 2,4 2,7l0 20 -6 0 0 -20c0,-3 0,-5 -2,-6 -1,-1 -2,-2 -4,-2 -2,0 -3,1 -5,2 -1,0 -2,1 -3,3 0,1 -1,3 -1,6l0 17 -5 0z"/>
   <path id="6" class="fil3" d="M346 626l-5 0 0 -44 5 0 0 16c2,-3 5,-4 9,-4 1,0 3,0 5,1 2,1 3,2 4,3 1,2 2,3 3,5 1,2 1,4 1,7 0,5 -1,9 -4,12 -3,3 -6,5 -10,5 -3,0 -6,-2 -8,-5l0 4zm-1 -16c0,4 1,6 2,8 2,3 4,4 7,4 2,0 4,-1 6,-3 2,-2 2,-5 2,-9 0,-4 0,-7 -2,-9 -2,-2 -4,-3 -6,-3 -2,0 -4,1 -6,3 -2,2 -3,5 -3,9z"/>
   <path id="7" class="fil3" d="M395 622c-2,2 -4,3 -6,4 -2,0 -3,1 -6,1 -3,0 -6,-1 -8,-3 -1,-2 -2,-4 -2,-6 0,-2 0,-3 1,-5 0,-1 1,-2 2,-3 2,0 3,-1 4,-1 1,-1 3,-1 5,-1 4,-1 8,-1 10,-2 0,-1 0,-1 0,-1 0,-3 -1,-4 -2,-5 -1,-1 -3,-2 -6,-2 -3,0 -4,1 -6,1 -1,1 -2,3 -2,5l-5 -1c0,-2 1,-4 2,-5 1,-1 3,-2 5,-3 2,-1 4,-1 7,-1 2,0 5,0 6,1 2,0 3,1 4,2 1,1 1,2 2,4 0,1 0,2 0,5l0 7c0,5 0,8 0,9 1,1 1,3 2,4l-6 0c0,-1 -1,-3 -1,-4zm0 -12c-2,1 -5,2 -9,2 -2,0 -4,1 -5,1 -1,1 -1,1 -2,2 0,1 -1,2 -1,2 0,2 1,3 2,4 1,1 3,1 5,1 2,0 4,0 5,-1 2,-1 3,-2 4,-4 0,-1 1,-3 1,-5l0 -2z"/>
   <path id="8" class="fil3" d="M408 626l0 -32 5 0 0 5c2,-4 6,-5 10,-5 2,0 4,0 5,1 2,0 3,1 4,2 1,2 1,3 2,4 0,1 0,3 0,6l0 19 -5 0 0 -19c0,-2 -1,-4 -1,-5 -1,-1 -1,-2 -2,-3 -1,0 -3,-1 -4,-1 -2,0 -4,1 -6,2 -2,2 -2,5 -2,9l0 17 -6 0z"/>
   <polygon id="9" class="fil3" points="442,626 442,582 447,582 447,607 460,594 467,594 455,606 468,626 462,626 451,610 447,613 447,626 "/>
   <path class="fil5" d="M179 841l6 2c-1,5 -3,8 -6,11 -4,2 -7,3 -12,3 -5,0 -8,0 -11,-2 -3,-2 -6,-5 -7,-9 -2,-3 -2,-7 -2,-11 0,-5 1,-9 2,-12 2,-4 4,-6 8,-8 3,-2 6,-3 10,-3 5,0 8,2 11,4 3,2 5,5 6,9l-5 1c-1,-3 -3,-5 -5,-6 -2,-2 -4,-3 -7,-3 -3,0 -6,1 -8,3 -3,1 -4,4 -5,6 -1,3 -1,6 -1,9 0,3 0,7 1,9 1,3 3,5 5,6 3,2 5,3 8,3 3,0 6,-1 8,-3 2,-2 4,-5 4,-9z"/>
   <path id="1" class="fil5" d="M190 841c0,-6 1,-10 4,-13 3,-2 6,-3 10,-3 5,0 8,1 11,4 3,3 4,7 4,12 0,4 -1,7 -2,9 -1,2 -3,4 -5,5 -2,2 -5,2 -8,2 -4,0 -8,-1 -10,-4 -3,-3 -4,-7 -4,-12zm5 0c0,4 1,7 3,9 1,2 4,3 6,3 3,0 5,-1 7,-3 2,-2 3,-5 3,-9 0,-4 -1,-7 -3,-9 -2,-2 -4,-3 -7,-3 -2,0 -5,1 -6,3 -2,2 -3,5 -3,9z"/>
   <path id="2" class="fil5" d="M225 857l0 -32 5 0 0 5c2,-4 6,-5 10,-5 2,0 4,0 5,1 2,0 3,1 4,2 1,1 1,3 2,4 0,1 0,3 0,5l0 20 -5 0 0 -19c0,-3 -1,-4 -1,-5 0,-1 -1,-2 -2,-3 -1,-1 -3,-1 -4,-1 -2,0 -4,1 -6,2 -1,2 -2,4 -2,9l0 17 -6 0z"/>
   <path id="3" class="fil5" d="M259 857l0 -32 5 0 0 5c2,-4 6,-5 10,-5 2,0 4,0 5,1 2,0 3,1 4,2 1,1 1,3 1,4 1,1 1,3 1,5l0 20 -6 0 0 -19c0,-3 0,-4 0,-5 -1,-1 -1,-2 -2,-3 -1,-1 -3,-1 -4,-1 -2,0 -4,1 -6,2 -2,2 -2,4 -2,9l0 17 -6 0z"/>
   <path id="4" class="fil5" d="M315 847l5 0c-1,3 -2,6 -5,8 -2,2 -5,2 -9,2 -4,0 -8,-1 -11,-4 -2,-3 -4,-7 -4,-12 0,-5 2,-9 4,-12 3,-3 7,-4 11,-4 4,0 8,1 10,4 3,3 4,7 4,12 0,0 0,1 0,1l-23 0c0,4 1,6 3,8 1,2 4,3 6,3 2,0 4,0 5,-2 2,-1 3,-2 4,-4zm-18 -9l18 0c-1,-3 -1,-5 -2,-6 -2,-2 -4,-3 -7,-3 -2,0 -5,1 -6,2 -2,2 -3,4 -3,7z"/>
   <path id="5" class="fil5" d="M347 845l6 1c-1,4 -2,6 -5,8 -2,2 -5,3 -8,3 -5,0 -8,-1 -11,-4 -2,-3 -4,-7 -4,-12 0,-3 1,-6 2,-9 1,-2 3,-4 5,-6 2,-1 5,-1 8,-1 3,0 6,0 8,2 2,2 4,4 4,7l-5 1c-1,-2 -1,-3 -3,-5 -1,-1 -2,-1 -4,-1 -3,0 -5,1 -7,3 -1,2 -2,5 -2,9 0,4 1,7 2,9 2,2 4,3 6,3 3,0 4,-1 6,-2 1,-1 2,-3 2,-6z"/>
   <path id="6" class="fil5" d="M369 852l1 5c-2,0 -3,0 -4,0 -2,0 -4,0 -5,-1 -1,0 -2,-1 -2,-2 -1,-1 -1,-3 -1,-7l0 -18 -4 0 0 -4 4 0 0 -8 5 -3 0 11 6 0 0 4 -6 0 0 19c0,1 1,2 1,3 0,0 0,1 1,1 0,0 1,0 1,0 1,0 2,0 3,0z"/>
   <g>
    <path class="fil2" d="M820 779l-313 0 0 -3 313 0 0 0 0 3zm14 9l-3 0 0 0 0 0 0 -1 0 0 0 -1 0 0 0 0 0 -1 -1 0 0 -1 0 0 0 -1 -1 0 0 0 0 -1 0 0 -1 0 0 -1 -1 0 0 0 0 -1 -1 0 0 0 -1 0 0 0 -1 -1 0 0 -1 0 0 0 -1 0 0 0 -1 0 -1 0 0 -3 1 0 1 0 1 0 0 0 1 0 1 0 0 1 1 0 0 0 1 0 1 1 0 0 1 0 0 1 1 0 0 0 1 1 0 0 1 1 0 0 0 1 1 0 0 1 0 0 0 1 1 1 0 0 0 1 0 0 0 1 0 1 0 0 0 0zm-3 94l0 -94 3 0 0 94 0 0 -3 0zm-11 13l0 -3 0 0 1 0 1 -1 0 0 1 0 0 0 1 0 0 0 1 0 0 0 1 -1 0 0 1 0 0 0 0 -1 1 0 0 0 1 -1 0 0 0 0 0 -1 1 0 0 -1 0 0 0 0 1 -1 0 0 0 -1 0 0 0 -1 0 0 0 -1 0 0 3 0 0 1 0 0 0 1 0 1 0 0 0 1 -1 0 0 1 0 1 0 0 -1 1 0 0 0 1 -1 0 0 1 -1 0 0 0 -1 1 0 0 -1 0 0 1 -1 0 -1 0 0 1 -1 0 0 0 -1 0 -1 0 0 0 -1 0 -1 1 -1 0 0 0zm-313 -3l313 0 0 3 -313 0 0 0 0 -3zm-14 -10l3 0 0 0 0 0 0 1 0 0 1 1 0 0 0 1 0 0 0 1 0 0 1 0 0 1 0 0 0 1 1 0 0 0 0 1 1 0 0 0 1 1 0 0 0 0 1 0 0 1 1 0 0 0 1 0 0 0 1 0 0 0 1 0 0 1 1 0 0 3 -1 0 0 -1 -1 0 -1 0 0 0 -1 0 -1 0 0 0 -1 -1 0 0 -1 0 -1 -1 0 0 -1 0 0 -1 -1 0 0 0 -1 -1 0 0 0 -1 -1 0 0 -1 0 0 -1 -1 0 -1 0 0 0 -1 0 0 -1 -1 0 -1 0 0 0 -1 0 0zm3 -94l0 94 -3 0 0 -94 0 0 3 0zm11 -12l0 3 0 0 -1 0 0 0 -1 0 0 0 -1 0 0 0 -1 0 0 1 -1 0 0 0 -1 0 0 0 0 1 -1 0 0 0 -1 1 0 0 0 0 -1 1 0 0 0 0 0 1 -1 0 0 1 0 0 0 1 0 0 0 0 -1 1 0 0 0 1 0 0 -3 0 0 0 0 -1 0 -1 1 0 0 -1 0 0 0 -1 0 -1 1 0 0 -1 0 0 1 -1 0 0 0 -1 1 0 0 -1 1 0 0 0 1 -1 0 0 1 0 1 -1 0 0 1 0 0 0 1 -1 1 0 0 0 1 0 1 0 0 0 1 0 0 0z"/>
   </g>
   <path class="fil2" d="M606 841l6 2c-1,5 -3,8 -6,11 -4,2 -7,3 -12,3 -5,0 -8,0 -11,-2 -3,-2 -6,-5 -7,-9 -2,-3 -2,-7 -2,-11 0,-5 1,-9 2,-12 2,-4 4,-6 8,-8 3,-2 6,-3 10,-3 5,0 8,2 11,4 3,2 5,5 6,9l-5 1c-1,-3 -3,-5 -5,-6 -2,-2 -4,-3 -7,-3 -3,0 -6,1 -8,3 -3,1 -4,4 -5,6 -1,3 -1,6 -1,9 0,3 0,7 1,9 1,3 3,5 5,6 2,2 5,3 8,3 3,0 6,-1 8,-3 2,-2 4,-5 4,-9z"/>
   <path id="1" class="fil2" d="M639 853c-2,1 -4,3 -6,3 -1,1 -3,1 -6,1 -3,0 -6,0 -8,-2 -1,-2 -2,-4 -2,-7 0,-1 0,-3 1,-4 0,-1 1,-2 3,-3 1,-1 2,-1 3,-2 1,0 3,0 5,0 4,-1 8,-2 10,-2 0,-1 0,-1 0,-2 0,-2 -1,-3 -2,-4 -1,-1 -3,-2 -6,-2 -2,0 -4,0 -5,1 -2,1 -3,3 -3,5l-5 -1c0,-2 1,-4 2,-5 1,-2 3,-3 5,-3 2,-1 4,-1 7,-1 3,0 5,0 6,0 2,1 3,2 4,3 1,1 2,2 2,3 0,1 0,3 0,5l0 8c0,4 0,8 0,9 1,1 1,3 2,4l-6 0c0,-1 -1,-3 -1,-4zm0 -12c-2,1 -5,1 -9,2 -2,0 -4,1 -5,1 -1,0 -1,1 -2,2 0,0 -1,1 -1,2 0,2 1,3 2,4 1,1 3,1 5,1 2,0 4,0 5,-1 2,-1 3,-2 4,-4 0,-1 1,-3 1,-5l0 -2z"/>
   <path id="2" class="fil2" d="M652 857l0 -32 5 0 0 5c2,-4 6,-5 10,-5 2,0 4,0 5,1 2,0 3,1 4,2 1,1 1,3 2,4 0,1 0,3 0,5l0 20 -5 0 0 -19c0,-3 -1,-4 -1,-5 0,-1 -1,-2 -2,-3 -1,-1 -3,-1 -4,-1 -2,0 -4,1 -6,2 -1,2 -2,4 -2,9l0 17 -6 0z"/>
   <path id="3" class="fil2" d="M707 845l5 1c-1,4 -2,6 -4,8 -3,2 -6,3 -9,3 -4,0 -8,-1 -10,-4 -3,-3 -4,-7 -4,-12 0,-3 0,-6 1,-9 1,-2 3,-4 5,-6 3,-1 5,-1 8,-1 3,0 6,0 8,2 2,2 4,4 5,7l-6 1c0,-2 -1,-3 -2,-5 -2,-1 -3,-1 -5,-1 -3,0 -5,1 -6,3 -2,2 -3,5 -3,9 0,4 1,7 2,9 2,2 4,3 7,3 2,0 4,-1 5,-2 1,-1 2,-3 3,-6z"/>
   <path id="4" class="fil2" d="M738 847l6 0c-1,3 -3,6 -5,8 -3,2 -6,2 -9,2 -5,0 -8,-1 -11,-4 -3,-3 -4,-7 -4,-12 0,-5 1,-9 4,-12 3,-3 6,-4 10,-4 5,0 8,1 11,4 2,3 4,7 4,12 0,0 0,1 0,1l-24 0c0,4 1,6 3,8 2,2 4,3 7,3 2,0 3,0 5,-2 1,-1 2,-2 3,-4zm-17 -9l17 0c0,-3 -1,-5 -2,-6 -2,-2 -4,-3 -6,-3 -3,0 -5,1 -7,2 -1,2 -2,4 -2,7z"/>
   <polygon id="5" class="fil2" points="750,857 750,813 756,813 756,857 "/>
   <circle class="fil0" cx="1433" cy="181" r="181"/>
   <path class="fil6" d="M1434 70c-2,0 -3,1 -4,3 -10,13 -40,25 -74,26l-1 0c-2,0 -4,1 -5,4 -4,17 -6,34 -8,51 -2,28 -3,62 9,83 8,16 29,28 46,38 11,6 22,11 33,16 1,0 2,1 3,1 1,0 3,-1 4,-1l0 0c2,-2 16,-7 32,-16 18,-10 38,-22 47,-38 11,-21 10,-55 8,-83 -2,-17 -4,-34 -8,-51 0,-3 -3,-4 -5,-4l-1 0c-33,0 -62,-12 -72,-25 0,-2 -2,-4 -4,-4l0 0zm0 14c15,15 42,24 73,25 3,15 6,30 7,46 2,27 2,59 -7,76 -7,12 -25,26 -43,35 -10,6 -20,10 -31,15 -10,-5 -21,-10 -31,-15 -17,-9 -37,-23 -42,-35 -9,-17 -10,-49 -8,-76 2,-16 4,-31 8,-46 31,-1 59,-10 74,-25l0 0z"/>
   <path class="fil6" d="M1378 178l0 0c3,-3 8,-3 11,0l21 20c3,3 7,3 11,0l56 -57c3,-2 8,-2 11,0l1 1c2,3 2,8 0,11 -22,22 -46,45 -68,68 -3,3 -8,3 -11,0l-32 -33c-3,-3 -3,-7 0,-10 0,0 0,0 0,0z"/>
  </g>
 </g>
</svg>
