<?xml version="1.0" encoding="UTF-8"?>
<!DOCTYPE svg PUBLIC "-//W3C//DTD SVG 1.1//EN" "http://www.w3.org/Graphics/SVG/1.1/DTD/svg11.dtd">
<!-- Creator: CorelDRAW X8 -->
<svg xmlns="http://www.w3.org/2000/svg" xml:space="preserve" width="4.21371in" height="3in" version="1.1" style="shape-rendering:geometricPrecision; text-rendering:geometricPrecision; image-rendering:optimizeQuality; fill-rule:evenodd; clip-rule:evenodd"
viewBox="0 0 1527 1087"
 xmlns:xlink="http://www.w3.org/1999/xlink">
 <defs>
  <style type="text/css">
   <![CDATA[
    .fil1 {fill:none}
    .fil5 {fill:#FEFEFE}
    .fil0 {fill:#1A237E}
    .fil4 {fill:#FEFEFE;fill-rule:nonzero}
    .fil3 {fill:#606062;fill-rule:nonzero}
    .fil2 {fill:#1A237E;fill-rule:nonzero}
   ]]>
  </style>
 </defs>
 <g id="Layer_x0020_1">
  <metadata id="CorelCorpID_0Corel-Layer"/>
  <g id="_2490759024752">
   <path class="fil0" d="M1342 171l-1290 0c-29,1 -52,24 -52,52l0 813c0,28 23,51 52,51l1290 0c29,0 52,-23 52,-51l0 -813c0,-28 -23,-51 -52,-52zm3 821c0,28 -24,51 -53,51l-1191 0c-29,0 -53,-23 -53,-51l0 -726c0,-29 24,-52 53,-52l1192 0c29,0 52,23 53,52l0 726 -1 0z"/>
   <line class="fil1" x1="93" y1="413" x2="1273" y2= "407" />
   <path class="fil2" d="M99 306l17 0c3,0 6,0 7,0 2,0 3,1 5,2 1,0 2,2 3,3 1,1 1,3 1,5 0,2 -1,4 -2,5 -1,2 -2,3 -4,4 3,1 5,2 6,4 1,1 2,3 2,6 0,2 0,3 -1,5 -1,2 -2,3 -4,4 -1,2 -3,2 -5,2 -2,1 -5,1 -11,1l-14 0 0 -41zm9 6l0 10 5 0c3,0 5,0 6,0 2,0 3,-1 4,-2 0,-1 1,-2 1,-3 0,-1 -1,-2 -1,-3 -1,-1 -2,-1 -3,-1 -1,-1 -4,-1 -7,-1l-5 0zm0 17l0 11 8 0c2,0 4,0 5,0 1,-1 2,-1 3,-2 1,-1 1,-2 1,-4 0,-1 0,-2 -1,-3 0,-1 -1,-1 -2,-2 -1,0 -4,0 -7,0l-7 0z"/>
   <path id="1" class="fil2" d="M147 326l-7 -1c0,-3 2,-5 4,-7 2,-1 5,-2 9,-2 3,0 6,1 7,1 2,1 3,2 4,4 1,1 1,3 1,7l0 9c0,3 0,4 0,6 1,1 1,2 2,4l-8 0c0,-1 0,-2 -1,-3 0,0 0,0 0,-1 -1,2 -3,3 -4,3 -2,1 -4,1 -5,1 -3,0 -6,0 -7,-2 -2,-2 -3,-4 -3,-6 0,-2 0,-4 1,-5 1,-1 2,-2 3,-3 2,-1 4,-1 7,-2 3,0 6,-1 7,-2l0 0c0,-2 0,-3 -1,-4 0,0 -2,-1 -4,-1 -1,0 -2,1 -3,1 -1,1 -2,2 -2,3zm10 6c-1,1 -2,1 -4,2 -3,0 -4,1 -5,1 -1,1 -1,2 -1,3 0,1 0,2 1,3 1,0 2,1 3,1 2,0 3,-1 4,-2 1,0 2,-1 2,-2 0,-1 0,-2 0,-4l0 -2z"/>
   <path id="2" class="fil2" d="M200 347l-8 0 0 -15c0,-4 0,-6 0,-7 -1,-1 -1,-1 -2,-2 -1,0 -2,-1 -3,-1 -1,0 -2,1 -3,1 -2,1 -2,2 -3,3 0,2 0,4 0,7l0 14 -8 0 0 -30 7 0 0 4c3,-3 6,-5 10,-5 2,0 3,1 5,1 1,1 2,2 3,3 1,1 1,2 2,3 0,1 0,3 0,5l0 19z"/>
   <polygon id="3" class="fil2" points="208,347 208,306 216,306 216,327 225,317 235,317 224,328 235,347 227,347 219,333 216,337 216,347 "/>
   <path id="4" class="fil2" d="M240 313l0 -7 8 0 0 7 -8 0zm0 34l0 -30 8 0 0 30 -8 0z"/>
   <path id="5" class="fil2" d="M283 347l-8 0 0 -15c0,-4 0,-6 0,-7 -1,-1 -1,-1 -2,-2 -1,0 -2,-1 -3,-1 -1,0 -2,1 -3,1 -1,1 -2,2 -3,3 0,2 0,4 0,7l0 14 -8 0 0 -30 7 0 0 4c3,-3 6,-5 10,-5 2,0 3,1 5,1 1,1 2,2 3,3 1,1 1,2 2,3 0,1 0,3 0,5l0 19z"/>
   <path id="6" class="fil2" d="M290 349l9 1c1,1 1,2 2,2 0,0 1,1 3,1 2,0 4,-1 5,-1 0,-1 1,-1 1,-2 1,-1 1,-2 1,-4l0 -4c-3,3 -6,5 -9,5 -4,0 -7,-2 -10,-5 -2,-3 -3,-6 -3,-10 0,-5 2,-9 4,-12 2,-2 5,-4 9,-4 4,0 7,2 9,5l0 -4 8 0 0 27c0,3 -1,6 -1,8 -1,1 -2,3 -3,4 -1,1 -2,1 -4,2 -2,1 -4,1 -7,1 -5,0 -8,-1 -10,-3 -3,-2 -4,-4 -4,-6 0,-1 0,-1 0,-1zm8 -18c0,3 0,6 1,7 2,2 3,2 5,2 2,0 3,0 5,-2 1,-1 2,-4 2,-7 0,-3 -1,-5 -2,-6 -1,-2 -3,-3 -5,-3 -2,0 -3,1 -5,2 -1,2 -1,4 -1,7z"/>
   <path id="7" class="fil2" d="M341 326c0,-4 0,-7 2,-10 0,-2 2,-4 3,-6 2,-2 4,-3 6,-4 2,-1 5,-1 9,-1 6,0 11,2 14,5 4,4 6,9 6,16 0,7 -2,12 -6,16 -3,4 -8,5 -14,5 -6,0 -11,-1 -15,-5 -4,-4 -5,-9 -5,-16zm8 0c0,5 1,8 3,11 3,2 5,3 9,3 3,0 6,-1 8,-3 2,-3 3,-6 3,-11 0,-5 -1,-8 -3,-11 -2,-2 -5,-3 -8,-3 -4,0 -7,1 -9,3 -2,3 -3,6 -3,11z"/>
   <path id="8" class="fil2" d="M395 347l-12 -30 9 0 5 15 2 5c0,-1 1,-2 1,-2 0,-1 0,-2 0,-3l6 -15 8 0 -12 30 -7 0z"/>
   <path id="9" class="fil2" d="M436 337l8 2c-1,2 -2,5 -5,6 -2,2 -4,2 -8,2 -5,0 -9,-1 -11,-5 -2,-2 -3,-6 -3,-10 0,-5 1,-9 4,-12 2,-2 6,-4 9,-4 5,0 8,2 11,5 3,3 4,7 4,13l-20 0c0,2 1,4 2,6 1,1 3,2 4,2 2,0 3,-1 3,-1 1,-1 2,-2 2,-4zm1 -8c0,-2 -1,-4 -2,-5 -1,-1 -2,-2 -4,-2 -2,0 -3,1 -4,2 -1,1 -2,3 -2,5l12 0z"/>
   <path id="10" class="fil2" d="M459 347l-8 0 0 -30 7 0 0 4c1,-2 2,-3 3,-4 1,0 3,-1 4,-1 2,0 3,1 5,2l-2 7c-2,-1 -3,-2 -4,-2 -1,0 -2,1 -3,1 -1,1 -1,2 -2,4 0,1 0,4 0,10l0 9z"/>
   <path id="11" class="fil2" d="M482 347l-12 -30 8 0 6 15 1 5c1,-1 1,-2 1,-2 0,-1 1,-2 1,-3l6 -15 8 0 -12 30 -7 0z"/>
   <path id="12" class="fil2" d="M505 313l0 -7 8 0 0 7 -8 0zm0 34l0 -30 8 0 0 30 -8 0z"/>
   <path id="13" class="fil2" d="M539 337l8 2c-1,2 -3,5 -5,6 -2,2 -5,2 -8,2 -6,0 -9,-1 -12,-5 -2,-2 -3,-6 -3,-10 0,-5 1,-9 4,-12 3,-2 6,-4 10,-4 4,0 8,2 10,5 3,3 4,7 4,13l-20 0c0,2 1,4 2,6 1,1 3,2 5,2 1,0 2,-1 3,-1 1,-1 1,-2 2,-4zm0 -8c0,-2 0,-4 -2,-5 -1,-1 -2,-2 -4,-2 -1,0 -3,1 -4,2 -1,1 -2,3 -2,5l12 0z"/>
   <polygon id="14" class="fil2" points="559,347 550,317 557,317 563,336 568,317 576,317 581,336 586,317 594,317 584,347 577,347 572,328 567,347 "/>
   <path class="fil3" d="M150 532l4 -1c0,2 0,3 1,4 1,1 2,2 4,3 1,1 3,1 5,1 1,0 3,0 4,-1 1,0 2,-1 3,-2 0,-1 1,-2 1,-3 0,-1 -1,-2 -1,-2 -1,-1 -2,-2 -3,-2 -1,-1 -3,-1 -6,-2 -3,-1 -5,-1 -6,-2 -2,-1 -3,-2 -4,-3 -1,-1 -1,-3 -1,-4 0,-2 0,-3 1,-5 1,-1 3,-2 5,-3 1,-1 3,-1 6,-1 2,0 4,0 6,1 2,1 3,2 4,3 1,2 2,4 2,6l-4 0c0,-2 -1,-4 -2,-5 -2,-1 -4,-1 -6,-1 -3,0 -5,0 -6,1 -1,1 -2,2 -2,4 0,1 1,2 1,2 1,1 3,2 7,3 4,1 6,1 7,2 2,1 4,2 5,3 0,2 1,3 1,5 0,2 -1,3 -2,5 -1,1 -2,3 -4,3 -2,1 -4,2 -6,2 -3,0 -6,-1 -8,-2 -2,0 -3,-2 -4,-3 -2,-2 -2,-4 -2,-6z"/>
   <path id="1" class="fil3" d="M190 539l1 3c-1,0 -2,1 -3,1 -2,0 -3,-1 -4,-1 -1,-1 -1,-1 -1,-2 -1,-1 -1,-2 -1,-5l0 -14 -3 0 0 -3 3 0 0 -6 4 -2 0 8 4 0 0 3 -4 0 0 14c0,2 0,2 0,3 0,0 1,0 1,0 0,1 1,1 1,1 1,0 1,0 2,0z"/>
   <path id="2" class="fil3" d="M210 539c-2,1 -3,2 -5,3 -1,0 -2,1 -4,1 -3,0 -5,-1 -6,-2 -2,-1 -2,-3 -2,-5 0,-1 0,-2 1,-3 0,-1 1,-2 2,-3 1,0 2,-1 3,-1 0,0 2,0 3,-1 3,0 6,0 7,-1 0,0 0,-1 0,-1 0,-2 0,-3 -1,-3 -1,-1 -2,-2 -4,-2 -2,0 -4,1 -5,1 0,1 -1,2 -2,4l-4 -1c1,-2 1,-3 2,-4 1,-1 2,-2 4,-2 1,-1 3,-1 5,-1 2,0 4,0 5,1 2,0 2,1 3,1 1,1 1,2 1,3 0,1 1,2 1,4l0 5c0,4 0,6 0,7 0,1 0,2 1,3l-4 0c-1,-1 -1,-2 -1,-3zm-1 -9c-1,1 -3,1 -6,2 -2,0 -3,0 -4,1 0,0 -1,0 -1,1 -1,0 -1,1 -1,2 0,1 1,2 1,2 1,1 2,2 4,2 1,0 3,-1 4,-1 1,-1 2,-2 3,-3 0,-1 0,-3 0,-4l0 -2z"/>
   <path id="3" class="fil3" d="M229 539l0 3c-1,0 -2,1 -3,1 -1,0 -3,-1 -3,-1 -1,-1 -2,-1 -2,-2 0,-1 -1,-2 -1,-5l0 -14 -3 0 0 -3 3 0 0 -6 4 -2 0 8 5 0 0 3 -5 0 0 14c0,2 1,2 1,3 0,0 0,0 0,0 1,1 1,1 2,1 0,0 1,0 2,0z"/>
   <path id="4" class="fil3" d="M249 534l4 1c-1,2 -2,4 -4,6 -1,1 -4,2 -6,2 -4,0 -7,-1 -9,-4 -2,-2 -3,-5 -3,-9 0,-4 1,-7 3,-9 2,-2 5,-3 8,-3 4,0 6,1 8,3 2,2 3,5 3,9 0,0 0,1 0,1l-18 0c1,3 1,5 3,6 1,2 3,2 5,2 1,0 2,0 3,-1 1,-1 2,-2 3,-4zm-13 -6l13 0c0,-2 -1,-4 -2,-5 -1,-1 -3,-2 -5,-2 -2,0 -3,1 -4,2 -2,1 -2,3 -2,5z"/>
   <path id="5" class="fil3" d="M271 542l0 -33 13 0c2,0 4,1 6,1 1,1 2,2 3,3 1,2 2,3 2,5 0,1 -1,2 -2,4 0,1 -2,2 -3,3 2,0 3,1 5,3 1,1 1,3 1,5 0,1 0,3 -1,4 0,1 -1,2 -2,3 -1,1 -2,1 -4,2 -1,0 -3,0 -5,0l-13 0zm5 -19l7 0c2,0 3,0 4,0 1,-1 2,-1 2,-2 1,-1 1,-2 1,-3 0,-1 0,-2 -1,-3 0,-1 -1,-1 -2,-1 -1,-1 -2,-1 -5,-1l-6 0 0 10zm0 15l8 0c1,0 2,0 3,0 1,0 2,0 2,-1 1,0 2,-1 2,-2 0,0 1,-1 1,-2 0,-2 -1,-3 -1,-4 -1,0 -2,-1 -3,-1 -1,-1 -3,-1 -5,-1l-7 0 0 11z"/>
   <path id="6" class="fil3" d="M317 539c-1,1 -3,2 -4,3 -2,0 -3,1 -5,1 -2,0 -4,-1 -6,-2 -1,-1 -2,-3 -2,-5 0,-1 1,-2 1,-3 1,-1 1,-2 2,-3 1,0 2,-1 3,-1 1,0 2,0 4,-1 3,0 5,0 7,-1 0,0 0,-1 0,-1 0,-2 0,-3 -1,-3 -1,-1 -3,-2 -5,-2 -2,0 -3,1 -4,1 -1,1 -2,2 -2,4l-4 -1c0,-2 1,-3 2,-4 1,-1 2,-2 3,-2 2,-1 4,-1 6,-1 2,0 3,0 5,1 1,0 2,1 3,1 0,1 1,2 1,3 0,1 0,2 0,4l0 5c0,4 0,6 0,7 0,1 1,2 1,3l-4 0c0,-1 -1,-2 -1,-3zm0 -9c-2,1 -4,1 -7,2 -1,0 -3,0 -3,1 -1,0 -1,0 -2,1 0,0 0,1 0,2 0,1 0,2 1,2 1,1 2,2 3,2 2,0 3,-1 5,-1 1,-1 2,-2 2,-3 1,-1 1,-3 1,-4l0 -2z"/>
   <path id="7" class="fil3" d="M327 542l0 -24 4 0 0 4c2,-3 4,-4 7,-4 2,0 3,0 4,1 2,0 3,1 3,2 1,0 1,1 1,3 1,0 1,2 1,4l0 14 -4 0 0 -14c0,-2 -1,-3 -1,-4 0,-1 -1,-1 -2,-2 0,0 -1,-1 -2,-1 -2,0 -4,1 -5,2 -1,1 -2,3 -2,6l0 13 -4 0z"/>
   <polygon id="8" class="fil3" points="353,542 353,509 357,509 357,528 366,518 372,518 363,527 373,542 368,542 360,530 357,533 357,542 "/>
   <path id="9" class="fil3" d="M387 530c0,-4 1,-7 4,-10 2,-1 4,-2 7,-2 4,0 6,1 8,3 2,2 3,5 3,9 0,3 0,5 -1,7 -1,2 -2,3 -4,4 -2,1 -4,2 -6,2 -3,0 -6,-1 -8,-3 -2,-3 -3,-6 -3,-10zm4 0c0,3 1,6 2,7 2,2 3,2 5,2 2,0 4,0 5,-2 2,-1 2,-4 2,-7 0,-3 0,-5 -2,-7 -1,-1 -3,-2 -5,-2 -2,0 -3,1 -5,2 -1,2 -2,4 -2,7z"/>
   <path id="10" class="fil3" d="M415 542l0 -21 -3 0 0 -3 3 0 0 -2c0,-2 0,-3 1,-4 0,-1 1,-2 2,-2 1,-1 2,-1 4,-1 1,0 2,0 4,0l-1 4c-1,0 -2,-1 -2,-1 -2,0 -3,1 -3,1 -1,1 -1,2 -1,3l0 2 5 0 0 3 -5 0 0 21 -4 0z"/>
   <polygon id="11" class="fil3" points="441,542 441,509 445,509 445,542 "/>
   <path id="12" class="fil3" d="M453 542l0 -24 3 0 0 4c2,-3 4,-4 8,-4 1,0 3,0 4,1 1,0 2,1 2,2 1,0 1,1 2,3 0,0 0,2 0,4l0 14 -4 0 0 -14c0,-2 0,-3 -1,-4 0,-1 0,-1 -1,-2 -1,0 -2,-1 -3,-1 -2,0 -3,1 -4,2 -2,1 -2,3 -2,6l0 13 -4 0z"/>
   <path id="13" class="fil3" d="M494 542l0 -3c-2,3 -4,4 -7,4 -2,0 -4,-1 -5,-2 -2,-1 -3,-2 -4,-4 -1,-2 -1,-4 -1,-7 0,-2 0,-4 1,-6 1,-2 2,-4 3,-5 2,-1 4,-1 6,-1 1,0 2,0 4,1 1,0 2,1 2,2l0 -12 4 0 0 33 -3 0zm-13 -12c0,3 0,6 2,7 1,2 3,2 4,2 2,0 4,0 5,-2 1,-1 2,-3 2,-6 0,-4 -1,-6 -2,-8 -1,-1 -3,-2 -5,-2 -2,0 -3,1 -4,2 -2,2 -2,4 -2,7z"/>
   <path id="14" class="fil3" d="M504 514l0 -5 4 0 0 5 -4 0zm0 28l0 -24 4 0 0 24 -4 0z"/>
   <path id="15" class="fil3" d="M530 539c-2,1 -3,2 -5,3 -1,0 -3,1 -4,1 -3,0 -5,-1 -6,-2 -2,-1 -2,-3 -2,-5 0,-1 0,-2 0,-3 1,-1 2,-2 3,-3 0,0 1,-1 2,-1 1,0 2,0 4,-1 3,0 6,0 7,-1 0,0 0,-1 0,-1 0,-2 0,-3 -1,-3 -1,-1 -2,-2 -4,-2 -2,0 -4,1 -5,1 -1,1 -1,2 -2,4l-4 -1c1,-2 1,-3 2,-4 1,-1 2,-2 4,-2 1,-1 3,-1 5,-1 2,0 4,0 5,1 1,0 2,1 3,1 1,1 1,2 1,3 0,1 0,2 0,4l0 5c0,4 0,6 1,7 0,1 0,2 1,3l-5 0c0,-1 0,-2 0,-3zm-1 -9c-1,1 -3,1 -6,2 -2,0 -3,0 -4,1 -1,0 -1,0 -1,1 -1,0 -1,1 -1,2 0,1 0,2 1,2 1,1 2,2 4,2 1,0 3,-1 4,-1 1,-1 2,-2 3,-3 0,-1 0,-3 0,-4l0 -2z"/>
   <path class="fil3" d="M150 612l12 -33 5 0 14 33 -5 0 -4 -10 -14 0 -4 10 -4 0zm9 -13l12 0 -4 -10c-1,-2 -2,-5 -2,-6 -1,2 -1,4 -2,6l-4 10z"/>
   <polygon id="1" class="fil3" points="181,613 190,579 193,579 184,613 "/>
   <path id="2" class="fil3" d="M212 603l4 1c0,3 -2,5 -3,6 -2,2 -4,3 -7,3 -3,0 -6,-1 -8,-4 -2,-2 -3,-5 -3,-9 0,-2 1,-5 2,-6 0,-2 2,-4 3,-5 2,-1 4,-1 6,-1 3,0 5,0 6,2 2,1 3,3 4,5l-4 1c-1,-2 -1,-3 -2,-4 -1,-1 -2,-1 -4,-1 -2,0 -3,1 -5,2 -1,2 -2,4 -2,7 0,3 1,6 2,7 1,2 3,2 5,2 2,0 3,0 4,-1 1,-1 2,-3 2,-5z"/>
   <polygon id="3" class="fil3" points="233,612 233,579 237,579 254,605 254,579 259,579 259,612 254,612 237,586 237,612 "/>
   <path id="4" class="fil3" d="M264 600c0,-4 1,-7 4,-10 2,-1 4,-2 7,-2 3,0 6,1 8,3 2,2 3,5 3,9 0,3 0,5 -1,7 -1,2 -2,3 -4,4 -2,1 -4,2 -6,2 -3,0 -6,-1 -8,-4 -2,-2 -3,-5 -3,-9zm4 0c0,3 1,6 2,7 1,2 3,2 5,2 2,0 4,0 5,-2 1,-1 2,-4 2,-7 0,-3 -1,-5 -2,-7 -1,-1 -3,-2 -5,-2 -2,0 -4,1 -5,2 -1,2 -2,4 -2,7z"/>
   <path id="5" class="fil3" d="M292 593l0 -5 5 0 0 5 -5 0zm0 19l0 -4 5 0 0 4 -5 0z"/>
   <path id="6" class="fil3" d="M314 612l9 -12 -8 -12 4 0 4 6c1,1 2,2 2,2 1,0 1,-1 2,-2l4 -6 5 0 -8 12 8 12 -5 0 -5 -7 -1 -2 -6 9 -5 0z"/>
   <path id="7" class="fil3" d="M337 612l9 -12 -8 -12 5 0 3 6c1,1 2,2 2,2 1,0 1,-1 2,-2l4 -6 5 0 -8 12 8 12 -5 0 -5 -7 -1 -2 -6 9 -5 0z"/>
   <path id="8" class="fil3" d="M360 612l9 -12 -8 -12 5 0 3 6c1,1 2,2 2,2 1,0 1,-1 2,-2l4 -6 5 0 -8 12 8 12 -5 0 -5 -7 -1 -2 -6 9 -5 0z"/>
   <path id="9" class="fil3" d="M400 612l-4 0 0 -26c-1,1 -3,2 -4,3 -2,1 -3,2 -4,2l0 -4c2,-1 4,-2 6,-4 1,-1 2,-3 3,-4l3 0 0 33z"/>
   <path id="10" class="fil3" d="M410 603l4 0c1,2 1,4 3,5 1,1 2,1 4,1 2,0 3,0 5,-2 1,-1 2,-3 2,-6 0,-2 -1,-4 -2,-5 -2,-1 -3,-2 -5,-2 -2,0 -3,0 -4,1 -1,0 -2,1 -2,2l-4 0 3 -17 16 0 0 3 -13 0 -1 9c2,-1 4,-2 6,-2 3,0 5,1 7,3 2,2 3,5 3,8 0,3 -1,6 -3,8 -2,2 -5,4 -8,4 -3,0 -6,-1 -8,-3 -1,-2 -3,-4 -3,-7z"/>
   <path id="11" class="fil3" d="M449 612l0 -8 -15 0 0 -3 15 -22 4 0 0 22 4 0 0 3 -4 0 0 8 -4 0zm0 -11l0 -15 -11 15 11 0z"/>
   <path id="12" class="fil3" d="M483 608l0 4 -22 0c0,-1 0,-2 0,-3 1,-1 2,-3 3,-4 1,-1 3,-3 5,-5 4,-3 6,-5 7,-7 2,-2 2,-3 2,-5 0,-1 0,-3 -1,-4 -1,-1 -3,-2 -5,-2 -2,0 -3,1 -5,2 -1,1 -1,3 -1,5l-4 0c0,-4 1,-6 3,-8 2,-1 4,-2 7,-2 3,0 6,1 8,3 2,1 3,4 3,6 0,2 -1,3 -1,4 -1,1 -2,3 -3,4 -1,2 -3,3 -6,6 -3,2 -4,3 -5,4 -1,1 -1,2 -2,2l17 0z"/>
   <polygon class="fil3" points="150,735 150,702 154,702 154,735 "/>
   <polygon id="1" class="fil3" points="162,735 162,702 166,702 183,727 183,702 188,702 188,735 183,735 166,709 166,735 "/>
   <path id="2" class="fil3" d="M195 735l0 -33 15 0c3,0 5,0 6,0 2,1 3,2 4,4 1,1 1,3 1,5 0,2 0,4 -2,5 -1,2 -4,3 -7,4 1,0 2,1 3,1 1,1 2,3 3,5l6 9 -5 0 -5 -7c-1,-2 -2,-4 -3,-5 -1,-1 -1,-2 -2,-2 -1,0 -1,-1 -2,-1 -1,0 -1,0 -3,0l-5 0 0 15 -4 0zm4 -19l10 0c2,0 3,0 4,0 2,-1 2,-2 3,-2 1,-1 1,-2 1,-3 0,-2 -1,-3 -2,-4 -1,-1 -3,-2 -5,-2l-11 0 0 11z"/>
   <path id="3" class="fil3" d="M255 735l-4 0 0 -26c-1,1 -3,2 -4,3 -2,0 -3,1 -5,2l0 -4c3,-1 5,-3 6,-4 2,-2 3,-3 4,-5l3 0 0 34z"/>
   <path id="4" class="fil3" d="M265 726l4 0c1,2 1,3 2,4 2,1 3,2 5,2 2,0 3,-1 5,-2 1,-2 2,-4 2,-6 0,-3 -1,-4 -2,-6 -2,-1 -3,-2 -5,-2 -2,0 -3,1 -4,1 -1,1 -2,2 -2,2l-4 0 3 -17 16 0 0 4 -13 0 -2 9c2,-2 4,-2 7,-2 2,0 5,1 7,3 2,2 3,4 3,7 0,3 -1,6 -3,8 -2,3 -5,4 -8,4 -3,0 -6,-1 -8,-2 -2,-2 -3,-4 -3,-7z"/>
   <path id="5" class="fil3" d="M293 735l0 -5 4 0 0 5c0,1 0,3 -1,4 0,1 -1,2 -2,2l-2 -2c1,0 2,-1 2,-1 1,-1 1,-2 1,-3l-2 0z"/>
   <path id="6" class="fil3" d="M303 726l5 0c0,2 1,3 2,4 1,1 2,2 4,2 2,0 4,-1 5,-2 1,-2 2,-4 2,-6 0,-3 -1,-4 -2,-6 -1,-1 -3,-2 -5,-2 -1,0 -3,1 -4,1 -1,1 -1,2 -2,2l-4 0 3 -17 17 0 0 4 -13 0 -2 9c2,-2 4,-2 6,-2 3,0 5,1 7,3 2,2 3,4 3,7 0,3 -1,6 -2,8 -3,3 -5,4 -9,4 -3,0 -5,-1 -7,-2 -2,-2 -3,-4 -4,-7z"/>
   <path id="7" class="fil3" d="M329 726l4 0c1,2 1,3 2,4 2,1 3,2 5,2 2,0 3,-1 4,-2 2,-2 2,-4 2,-6 0,-3 0,-4 -1,-6 -2,-1 -3,-2 -6,-2 -1,0 -2,1 -3,1 -1,1 -2,2 -2,2l-4 0 3 -17 16 0 0 4 -13 0 -2 9c2,-2 4,-2 7,-2 2,0 5,1 7,3 2,2 3,4 3,7 0,3 -1,6 -3,8 -2,3 -5,4 -8,4 -3,0 -6,-1 -8,-2 -2,-2 -3,-4 -3,-7z"/>
   <path id="8" class="fil3" d="M357 735l0 -5 4 0 0 5c0,1 0,3 -1,4 0,1 -1,2 -2,2l-2 -2c1,0 2,-1 2,-1 1,-1 1,-2 1,-3l-2 0z"/>
   <path id="9" class="fil3" d="M367 718c0,-4 1,-7 2,-9 0,-3 2,-4 3,-6 2,-1 4,-2 6,-2 2,0 3,1 5,2 1,0 2,1 3,3 1,1 2,3 2,4 1,2 1,5 1,8 0,4 -1,7 -1,10 -1,2 -2,4 -4,5 -2,1 -4,2 -6,2 -3,0 -6,-1 -7,-3 -3,-3 -4,-8 -4,-14zm4 0c0,6 1,9 2,11 2,2 3,3 5,3 2,0 3,-1 5,-3 1,-2 2,-5 2,-11 0,-5 -1,-9 -2,-11 -2,-1 -3,-2 -5,-2 -2,0 -3,1 -4,2 -2,2 -3,6 -3,11z"/>
   <path id="10" class="fil3" d="M393 718c0,-4 0,-7 1,-9 1,-3 2,-4 4,-6 1,-1 3,-2 6,-2 1,0 3,1 4,2 2,0 3,1 4,3 0,1 1,3 2,4 0,2 0,5 0,8 0,4 0,7 -1,10 -1,2 -2,4 -3,5 -2,1 -4,2 -6,2 -4,0 -6,-1 -8,-3 -2,-3 -3,-8 -3,-14zm4 0c0,6 1,9 2,11 1,2 3,3 5,3 2,0 3,-1 4,-3 2,-2 2,-5 2,-11 0,-5 0,-9 -2,-11 -1,-1 -2,-2 -4,-2 -2,0 -4,1 -5,2 -1,2 -2,6 -2,11z"/>
   <path id="11" class="fil3" d="M419 718c0,-4 0,-7 1,-9 1,-3 2,-4 3,-6 2,-1 4,-2 6,-2 2,0 4,1 5,2 1,0 2,1 3,3 1,1 2,3 2,4 1,2 1,5 1,8 0,4 0,7 -1,10 -1,2 -2,4 -4,5 -1,1 -3,2 -6,2 -3,0 -5,-1 -7,-3 -2,-3 -3,-8 -3,-14zm4 0c0,6 0,9 2,11 1,2 2,3 4,3 2,0 4,-1 5,-3 1,-2 2,-5 2,-11 0,-5 -1,-9 -2,-11 -1,-1 -3,-2 -5,-2 -2,0 -3,1 -4,2 -2,2 -2,6 -2,11z"/>
   <polygon id="12" class="fil3" points="446,735 446,730 451,730 451,735 "/>
   <path id="13" class="fil3" d="M457 718c0,-4 0,-7 1,-9 1,-3 2,-4 4,-6 1,-1 3,-2 6,-2 1,0 3,1 4,2 2,0 3,1 4,3 0,1 1,3 2,4 0,2 0,5 0,8 0,4 0,7 -1,10 -1,2 -2,4 -3,5 -2,1 -4,2 -6,2 -4,0 -6,-1 -8,-3 -2,-3 -3,-8 -3,-14zm4 0c0,6 1,9 2,11 1,2 3,3 5,3 2,0 3,-1 4,-3 2,-2 2,-5 2,-11 0,-5 0,-9 -2,-11 -1,-1 -2,-2 -4,-2 -2,0 -4,1 -5,2 -1,2 -2,6 -2,11z"/>
   <path id="14" class="fil3" d="M483 718c0,-4 0,-7 1,-9 1,-3 2,-4 3,-6 2,-1 4,-2 6,-2 2,0 4,1 5,2 1,0 2,1 3,3 1,1 2,3 2,4 1,2 1,5 1,8 0,4 0,7 -1,10 -1,2 -2,4 -4,5 -1,1 -3,2 -6,2 -3,0 -5,-1 -7,-3 -2,-3 -3,-8 -3,-14zm4 0c0,6 0,9 2,11 1,2 2,3 4,3 2,0 4,-1 5,-3 1,-2 2,-5 2,-11 0,-5 -1,-9 -2,-11 -1,-1 -3,-2 -5,-2 -2,0 -3,1 -4,2 -2,2 -2,6 -2,11z"/>
   <path class="fil3" d="M165 804l0 -3c-1,3 -4,4 -7,4 -2,0 -3,0 -4,-1 -1,0 -2,-1 -3,-2 0,-1 -1,-2 -1,-3 0,-1 0,-2 0,-4l0 -14 4 0 0 13c0,2 0,3 0,4 0,1 1,2 2,3 0,0 1,0 3,0 1,0 2,0 3,0 1,-1 2,-2 2,-3 1,-1 1,-3 1,-5l0 -12 4 0 0 23 -4 0z"/>
   <path id="1" class="fil3" d="M175 814l0 -33 4 0 0 3c1,-1 2,-2 3,-3 1,-1 2,-1 4,-1 2,0 4,1 5,2 2,1 3,2 4,4 1,2 1,4 1,6 0,3 0,5 -1,7 -1,2 -2,3 -4,4 -2,1 -3,2 -5,2 -2,0 -3,0 -4,-1 -1,0 -2,-1 -3,-2l0 12 -4 0zm4 -21c0,3 1,5 2,6 1,2 3,3 4,3 2,0 4,-1 5,-3 1,-1 2,-3 2,-7 0,-3 -1,-5 -2,-6 -1,-2 -3,-3 -4,-3 -2,0 -4,1 -5,3 -1,1 -2,4 -2,7z"/>
   <path id="2" class="fil3" d="M216 804l0 -3c-1,3 -3,4 -6,4 -2,0 -4,-1 -5,-2 -2,-1 -3,-2 -4,-4 -1,-2 -2,-4 -2,-6 0,-3 1,-5 2,-7 0,-2 2,-3 3,-4 2,-1 4,-2 6,-2 1,0 2,0 3,1 2,1 2,1 3,2l0 -11 4 0 0 32 -4 0zm-12 -11c0,3 0,5 2,6 1,2 2,3 4,3 2,0 3,-1 5,-2 1,-2 2,-4 2,-7 0,-3 -1,-6 -2,-7 -2,-2 -3,-3 -5,-3 -2,0 -3,1 -5,3 -1,1 -1,3 -1,7z"/>
   <path id="3" class="fil3" d="M242 801c-1,2 -3,3 -4,3 -2,1 -3,1 -5,1 -2,0 -4,-1 -6,-2 -1,-1 -2,-3 -2,-5 0,-1 0,-2 1,-3 1,-1 1,-2 2,-2 1,-1 2,-1 3,-2 1,0 2,0 4,0 3,-1 5,-1 7,-2 0,0 0,-1 0,-1 0,-1 0,-3 -1,-3 -1,-1 -3,-2 -5,-2 -2,0 -3,1 -4,1 -1,1 -2,2 -2,4l-4 -1c0,-1 1,-3 2,-4 1,-1 2,-2 3,-2 2,-1 4,-1 6,-1 2,0 3,0 5,1 1,0 2,1 3,2 0,0 1,1 1,2 0,1 0,2 0,4l0 5c0,4 0,7 0,8 0,1 1,2 1,2l-4 0c0,0 -1,-1 -1,-3zm0 -8c-2,0 -4,1 -7,1 -1,0 -3,1 -3,1 -1,0 -2,1 -2,1 0,1 0,1 0,2 0,1 0,2 1,3 1,0 2,1 3,1 2,0 3,-1 5,-1 1,-1 2,-2 2,-3 1,-1 1,-2 1,-4l0 -1z"/>
   <path id="4" class="fil3" d="M261 801l1 3c-2,1 -3,1 -3,1 -2,0 -3,0 -4,-1 -1,0 -1,-1 -2,-2 0,0 0,-2 0,-5l0 -13 -3 0 0 -3 3 0 0 -6 4 -3 0 9 4 0 0 3 -4 0 0 14c0,1 0,2 0,2 0,0 1,1 1,1 0,0 1,0 1,0 1,0 1,0 2,0z"/>
   <path id="5" class="fil3" d="M281 797l4 0c0,3 -1,5 -3,6 -2,1 -4,2 -7,2 -3,0 -6,-1 -8,-3 -2,-2 -3,-5 -3,-9 0,-4 1,-7 3,-10 2,-2 4,-3 8,-3 3,0 6,1 8,3 2,3 3,6 3,9 0,1 0,1 0,2l-18 0c0,2 1,4 2,6 1,1 3,2 5,2 1,0 3,-1 4,-2 1,0 2,-2 2,-3zm-13 -7l13 0c0,-2 0,-3 -1,-4 -1,-2 -3,-3 -5,-3 -2,0 -4,1 -5,2 -1,2 -2,3 -2,5z"/>
   <path id="6" class="fil3" d="M306 804l0 -3c-2,3 -4,4 -7,4 -2,0 -3,-1 -5,-2 -2,-1 -3,-2 -4,-4 0,-2 -1,-4 -1,-6 0,-3 0,-5 1,-7 1,-2 2,-3 4,-4 1,-1 3,-2 5,-2 2,0 3,0 4,1 1,1 2,1 3,2l0 -11 4 0 0 32 -4 0zm-13 -11c0,3 1,5 2,6 1,2 3,3 5,3 1,0 3,-1 4,-2 1,-2 2,-4 2,-7 0,-3 -1,-6 -2,-7 -1,-2 -3,-3 -4,-3 -2,0 -4,1 -5,3 -1,1 -2,3 -2,7z"/>
   <path id="7" class="fil3" d="M327 793c0,-5 2,-8 4,-10 2,-2 5,-3 8,-3 3,0 6,1 8,3 2,2 3,5 3,9 0,3 -1,6 -2,7 0,2 -2,4 -4,5 -1,0 -3,1 -5,1 -4,0 -6,-1 -8,-3 -3,-2 -4,-5 -4,-9zm5 0c0,3 0,5 2,6 1,2 3,3 5,3 2,0 3,-1 5,-3 1,-1 2,-3 2,-7 0,-3 -1,-5 -2,-6 -2,-2 -3,-3 -5,-3 -2,0 -4,1 -5,3 -2,1 -2,3 -2,7z"/>
   <path id="8" class="fil3" d="M355 804l0 -23 3 0 0 3c2,-3 4,-4 8,-4 1,0 3,0 4,1 1,0 2,1 2,2 1,1 1,2 2,3 0,1 0,2 0,4l0 14 -4 0 0 -14c0,-2 0,-3 -1,-4 0,-1 0,-1 -1,-2 -1,0 -2,0 -3,0 -2,0 -3,0 -5,1 -1,1 -1,3 -1,6l0 13 -4 0z"/>
   <path id="9" class="fil3" d="M392 796l4 -1c0,3 1,4 2,5 1,1 3,2 4,2 2,0 4,-1 5,-2 2,-2 2,-4 2,-6 0,-3 0,-4 -2,-6 -1,-1 -3,-2 -5,-2 -1,0 -2,1 -3,1 -1,1 -2,1 -3,2l-3 0 3 -17 16 0 0 4 -13 0 -2 9c2,-2 4,-2 6,-2 3,0 6,1 8,3 2,2 3,4 3,7 0,3 -1,6 -3,8 -2,3 -5,4 -9,4 -3,0 -5,-1 -7,-2 -2,-2 -3,-4 -3,-7z"/>
   <path id="10" class="fil3" d="M431 788c0,-5 1,-9 4,-12 3,-3 7,-5 11,-5 3,0 6,1 9,2 2,2 4,4 5,6 1,3 2,6 2,9 0,3 -1,6 -2,9 -1,3 -3,5 -6,6 -2,1 -5,2 -8,2 -3,0 -6,-1 -8,-2 -2,-2 -4,-4 -6,-6 -1,-3 -1,-6 -1,-9zm4 1c0,3 1,7 3,9 2,2 5,3 8,3 4,0 6,-1 8,-3 2,-2 4,-6 4,-10 0,-3 -1,-5 -2,-7 -1,-2 -2,-4 -4,-5 -2,-1 -4,-1 -6,-1 -3,0 -5,1 -8,3 -2,2 -3,6 -3,11z"/>
   <path id="11" class="fil3" d="M483 796l4 0c-1,3 -2,5 -4,7 -1,1 -4,2 -6,2 -3,0 -6,-1 -8,-3 -2,-2 -3,-5 -3,-9 0,-3 0,-5 1,-7 1,-2 2,-4 4,-4 2,-1 4,-2 6,-2 2,0 5,1 6,2 2,1 3,3 3,6l-4 0c0,-1 -1,-3 -2,-3 -1,-1 -2,-2 -3,-2 -2,0 -4,1 -5,3 -1,1 -2,3 -2,7 0,3 1,5 2,6 1,2 3,3 5,3 1,0 3,-1 4,-2 1,-1 1,-2 2,-4z"/>
   <path id="12" class="fil3" d="M499 801l0 3c-1,1 -2,1 -3,1 -1,0 -2,0 -3,-1 -1,0 -1,-1 -2,-2 0,0 0,-2 0,-5l0 -13 -3 0 0 -3 3 0 0 -6 4 -3 0 9 4 0 0 3 -4 0 0 14c0,1 0,2 0,2 0,0 0,1 1,1 0,0 1,0 1,0 1,0 1,0 2,0z"/>
   <path id="13" class="fil3" d="M536 801l0 3 -22 0c0,-1 0,-1 1,-2 0,-2 1,-3 2,-5 1,-1 3,-3 5,-5 4,-3 6,-5 8,-7 1,-1 2,-3 2,-5 0,-1 -1,-3 -2,-4 -1,-1 -3,-1 -5,-1 -2,0 -3,0 -4,1 -1,2 -2,3 -2,5l-4 0c0,-3 1,-6 3,-7 2,-2 4,-3 8,-3 3,0 5,1 7,3 2,2 3,4 3,7 0,1 0,2 -1,3 -1,2 -1,3 -3,4 -1,2 -3,4 -6,6 -2,2 -4,4 -5,4 0,1 -1,2 -1,3l16 0z"/>
   <path id="14" class="fil3" d="M540 788c0,-4 1,-7 1,-9 1,-3 2,-4 4,-6 2,-1 4,-2 6,-2 2,0 3,1 5,1 1,1 2,2 3,4 1,1 1,3 2,4 0,2 1,5 1,8 0,4 -1,7 -2,10 0,2 -1,4 -3,5 -2,1 -4,2 -6,2 -3,0 -6,-1 -8,-3 -2,-3 -3,-8 -3,-14zm4 0c0,6 1,9 2,11 2,2 3,3 5,3 2,0 3,-1 5,-3 1,-2 2,-5 2,-11 0,-5 -1,-9 -2,-11 -2,-1 -3,-2 -5,-2 -2,0 -3,1 -5,2 -1,2 -2,6 -2,11z"/>
   <path id="15" class="fil3" d="M581 804l-4 0 0 -25c-1,1 -2,2 -4,2 -1,1 -3,2 -4,3l0 -4c2,-1 4,-3 6,-4 1,-2 3,-3 3,-5l3 0 0 33z"/>
   <path id="16" class="fil3" d="M598 787c-2,-1 -3,-2 -4,-3 -1,-1 -1,-3 -1,-4 0,-3 1,-5 2,-6 2,-2 4,-3 7,-3 3,0 5,1 7,3 2,2 3,4 3,6 0,2 -1,3 -1,4 -1,1 -2,2 -4,3 2,0 3,1 4,3 2,1 2,3 2,5 0,3 -1,5 -3,7 -2,2 -5,3 -8,3 -3,0 -6,-1 -8,-3 -2,-2 -3,-4 -3,-7 0,-2 1,-4 2,-5 1,-2 3,-3 5,-3zm-1 -7c0,1 0,3 1,4 1,1 3,1 4,1 2,0 3,0 4,-1 1,-1 2,-3 2,-4 0,-2 -1,-3 -2,-4 -1,-1 -2,-1 -4,-1 -1,0 -3,0 -4,1 -1,1 -1,2 -1,4zm-1 15c0,1 0,2 0,3 1,1 2,2 3,3 1,0 2,1 3,1 2,0 4,-1 5,-2 1,-1 2,-3 2,-5 0,-2 -1,-3 -2,-5 -1,-1 -3,-2 -5,-2 -2,0 -3,1 -5,2 -1,2 -1,3 -1,5z"/>
   <path class="fil3" d="M767 804l0 -3c-2,3 -5,4 -8,4 -1,0 -3,0 -4,-1 -1,0 -2,-1 -3,-2 0,-1 -1,-2 -1,-3 0,-1 0,-2 0,-4l0 -14 4 0 0 13c0,2 0,3 0,4 0,1 1,2 2,3 1,0 2,0 3,0 1,0 2,0 3,0 1,-1 2,-2 3,-3 0,-1 0,-3 0,-5l0 -12 4 0 0 23 -3 0z"/>
   <path id="1" class="fil3" d="M777 814l0 -33 3 0 0 3c1,-1 2,-2 3,-3 1,-1 3,-1 4,-1 2,0 4,1 6,2 1,1 2,2 3,4 1,2 1,4 1,6 0,3 0,5 -1,7 -1,2 -2,3 -4,4 -2,1 -3,2 -5,2 -1,0 -3,0 -4,-1 -1,0 -2,-1 -2,-2l0 12 -4 0zm3 -21c0,3 1,5 2,6 1,2 3,3 5,3 1,0 3,-1 4,-3 2,-1 2,-3 2,-7 0,-3 0,-5 -2,-6 -1,-2 -2,-3 -4,-3 -2,0 -3,1 -5,3 -1,1 -2,4 -2,7z"/>
   <path id="2" class="fil3" d="M818 804l0 -3c-2,3 -4,4 -7,4 -2,0 -4,-1 -5,-2 -2,-1 -3,-2 -4,-4 -1,-2 -1,-4 -1,-6 0,-3 0,-5 1,-7 1,-2 2,-3 3,-4 2,-1 4,-2 6,-2 1,0 2,0 4,1 1,1 2,1 2,2l0 -11 4 0 0 32 -3 0zm-13 -11c0,3 0,5 2,6 1,2 3,3 4,3 2,0 4,-1 5,-2 1,-2 2,-4 2,-7 0,-3 -1,-6 -2,-7 -1,-2 -3,-3 -5,-3 -2,0 -3,1 -4,3 -2,1 -2,3 -2,7z"/>
   <path id="3" class="fil3" d="M843 801c-1,2 -3,3 -4,3 -1,1 -3,1 -4,1 -3,0 -5,-1 -6,-2 -2,-1 -3,-3 -3,-5 0,-1 1,-2 1,-3 1,-1 1,-2 2,-2 1,-1 2,-1 3,-2 1,0 2,0 4,0 3,-1 5,-1 7,-2 0,0 0,-1 0,-1 0,-1 0,-3 -1,-3 -1,-1 -3,-2 -5,-2 -2,0 -3,1 -4,1 -1,1 -2,2 -2,4l-4 -1c0,-1 1,-3 2,-4 1,-1 2,-2 3,-2 2,-1 4,-1 6,-1 2,0 4,0 5,1 1,0 2,1 3,2 0,0 1,1 1,2 0,1 0,2 0,4l0 5c0,4 0,7 0,8 1,1 1,2 1,2l-4 0c0,0 -1,-1 -1,-3zm0 -8c-1,0 -4,1 -7,1 -1,0 -2,1 -3,1 -1,0 -1,1 -2,1 0,1 0,1 0,2 0,1 0,2 1,3 1,0 2,1 4,1 1,0 2,-1 4,-1 1,-1 2,-2 2,-3 1,-1 1,-2 1,-4l0 -1z"/>
   <path id="4" class="fil3" d="M862 801l1 3c-1,1 -2,1 -3,1 -2,0 -3,0 -4,-1 -1,0 -1,-1 -1,-2 -1,0 -1,-2 -1,-5l0 -13 -3 0 0 -3 3 0 0 -6 4 -3 0 9 4 0 0 3 -4 0 0 14c0,1 0,2 0,2 0,0 1,1 1,1 0,0 1,0 1,0 1,0 1,0 2,0z"/>
   <path id="5" class="fil3" d="M882 797l5 0c-1,3 -2,5 -4,6 -2,1 -4,2 -7,2 -3,0 -6,-1 -8,-3 -2,-2 -3,-5 -3,-9 0,-4 1,-7 3,-10 2,-2 5,-3 8,-3 3,0 6,1 8,3 2,3 3,6 3,9 0,1 0,1 0,2l-18 0c0,2 1,4 2,6 2,1 3,2 5,2 2,0 3,-1 4,-2 1,0 2,-2 2,-3zm-13 -7l13 0c0,-2 0,-3 -1,-4 -1,-2 -3,-3 -5,-3 -2,0 -3,1 -5,2 -1,2 -2,3 -2,5z"/>
   <path id="6" class="fil3" d="M907 804l0 -3c-1,3 -4,4 -7,4 -1,0 -3,-1 -5,-2 -1,-1 -3,-2 -3,-4 -1,-2 -2,-4 -2,-6 0,-3 1,-5 1,-7 1,-2 2,-3 4,-4 2,-1 3,-2 5,-2 2,0 3,0 4,1 1,1 2,1 3,2l0 -11 4 0 0 32 -4 0zm-13 -11c0,3 1,5 2,6 2,2 3,3 5,3 2,0 3,-1 4,-2 2,-2 2,-4 2,-7 0,-3 0,-6 -2,-7 -1,-2 -2,-3 -4,-3 -2,0 -4,1 -5,3 -1,1 -2,3 -2,7z"/>
   <path id="7" class="fil3" d="M929 793c0,-5 1,-8 3,-10 2,-2 5,-3 8,-3 3,0 6,1 8,3 2,2 3,5 3,9 0,3 0,6 -1,7 -1,2 -3,4 -4,5 -2,0 -4,1 -6,1 -4,0 -6,-1 -8,-3 -2,-2 -3,-5 -3,-9zm4 0c0,3 0,5 2,6 1,2 3,3 5,3 2,0 4,-1 5,-3 1,-1 2,-3 2,-7 0,-3 -1,-5 -2,-6 -2,-2 -3,-3 -5,-3 -2,0 -4,1 -5,3 -2,1 -2,3 -2,7z"/>
   <path id="8" class="fil3" d="M956 804l0 -23 3 0 0 3c2,-3 5,-4 8,-4 1,0 3,0 4,1 1,0 2,1 3,2 0,1 1,2 1,3 0,1 0,2 0,4l0 14 -4 0 0 -14c0,-2 0,-3 0,-4 -1,-1 -1,-1 -2,-2 -1,0 -2,0 -3,0 -2,0 -3,0 -4,1 -2,1 -2,3 -2,6l0 13 -4 0z"/>
   <path id="9" class="fil3" d="M993 796l4 -1c1,3 1,4 2,5 2,1 3,2 5,2 2,0 3,-1 5,-2 1,-2 2,-4 2,-6 0,-3 -1,-4 -2,-6 -2,-1 -3,-2 -5,-2 -2,0 -3,1 -4,1 -1,1 -2,1 -2,2l-4 0 3 -17 16 0 0 4 -13 0 -2 9c2,-2 4,-2 7,-2 2,0 5,1 7,3 2,2 3,4 3,7 0,3 -1,6 -3,8 -2,3 -5,4 -8,4 -3,0 -6,-1 -8,-2 -2,-2 -3,-4 -3,-7z"/>
   <path id="10" class="fil3" d="M1032 788c0,-5 1,-9 4,-12 3,-3 7,-5 11,-5 4,0 6,1 9,2 2,2 4,4 5,6 2,3 2,6 2,9 0,3 0,6 -2,9 -1,3 -3,5 -6,6 -2,1 -5,2 -8,2 -3,0 -5,-1 -8,-2 -2,-2 -4,-4 -5,-6 -2,-3 -2,-6 -2,-9zm4 1c0,3 1,7 3,9 3,2 5,3 8,3 4,0 6,-1 9,-3 2,-2 3,-6 3,-10 0,-3 -1,-5 -2,-7 -1,-2 -2,-4 -4,-5 -1,-1 -3,-1 -6,-1 -3,0 -5,1 -7,3 -3,2 -4,6 -4,11z"/>
   <path id="11" class="fil3" d="M1084 796l4 0c-1,3 -2,5 -3,7 -2,1 -4,2 -7,2 -3,0 -6,-1 -8,-3 -2,-2 -3,-5 -3,-9 0,-3 1,-5 1,-7 1,-2 3,-4 4,-4 2,-1 4,-2 6,-2 3,0 5,1 6,2 2,1 3,3 4,6l-4 0c-1,-1 -1,-3 -2,-3 -1,-1 -3,-2 -4,-2 -2,0 -4,1 -5,3 -1,1 -2,3 -2,7 0,3 1,5 2,6 1,2 3,3 5,3 1,0 3,-1 4,-2 1,-1 2,-2 2,-4z"/>
   <path id="12" class="fil3" d="M1100 801l1 3c-1,1 -2,1 -3,1 -2,0 -3,0 -4,-1 -1,0 -1,-1 -1,-2 -1,0 -1,-2 -1,-5l0 -13 -3 0 0 -3 3 0 0 -6 4 -3 0 9 4 0 0 3 -4 0 0 14c0,1 0,2 0,2 0,0 1,1 1,1 0,0 1,0 1,0 1,0 1,0 2,0z"/>
   <path id="13" class="fil3" d="M1137 801l0 3 -22 0c0,-1 0,-1 1,-2 0,-2 1,-3 2,-5 2,-1 3,-3 6,-5 3,-3 6,-5 7,-7 1,-1 2,-3 2,-5 0,-1 -1,-3 -2,-4 -1,-1 -3,-1 -4,-1 -2,0 -4,0 -5,1 -1,2 -2,3 -2,5l-4 0c0,-3 1,-6 3,-7 2,-2 5,-3 8,-3 3,0 5,1 7,3 2,2 3,4 3,7 0,1 0,2 -1,3 0,2 -1,3 -3,4 -1,2 -3,4 -6,6 -2,2 -4,4 -4,4 -1,1 -2,2 -2,3l16 0z"/>
   <path id="14" class="fil3" d="M1141 788c0,-4 1,-7 2,-9 0,-3 2,-4 3,-6 2,-1 4,-2 6,-2 2,0 3,1 5,1 1,1 2,2 3,4 1,1 2,3 2,4 1,2 1,5 1,8 0,4 -1,7 -1,10 -1,2 -2,4 -4,5 -1,1 -3,2 -6,2 -3,0 -6,-1 -7,-3 -3,-3 -4,-8 -4,-14zm5 0c0,6 0,9 1,11 2,2 3,3 5,3 2,0 4,-1 5,-3 1,-2 2,-5 2,-11 0,-5 -1,-9 -2,-11 -1,-1 -3,-2 -5,-2 -2,0 -3,1 -4,2 -2,2 -2,6 -2,11z"/>
   <path id="15" class="fil3" d="M1182 804l-4 0 0 -25c-1,1 -2,2 -4,2 -1,1 -3,2 -4,3l0 -4c2,-1 4,-3 6,-4 2,-2 3,-3 4,-5l2 0 0 33z"/>
   <path id="16" class="fil3" d="M1199 787c-2,-1 -3,-2 -4,-3 -1,-1 -1,-3 -1,-4 0,-3 1,-5 2,-6 2,-2 4,-3 7,-3 3,0 6,1 7,3 2,2 3,4 3,6 0,2 -1,3 -1,4 -1,1 -2,2 -4,3 2,0 4,1 5,3 1,1 1,3 1,5 0,3 -1,5 -3,7 -2,2 -4,3 -8,3 -3,0 -5,-1 -7,-3 -2,-2 -3,-4 -3,-7 0,-2 0,-4 1,-5 1,-2 3,-3 5,-3zm-1 -7c0,1 1,3 2,4 1,1 2,1 3,1 2,0 3,0 4,-1 1,-1 2,-3 2,-4 0,-2 -1,-3 -2,-4 -1,-1 -2,-1 -4,-1 -1,0 -2,0 -3,1 -1,1 -2,2 -2,4zm-1 15c0,1 0,2 0,3 1,1 2,2 3,3 1,0 2,1 3,1 2,0 4,-1 5,-2 1,-1 2,-3 2,-5 0,-2 -1,-3 -2,-5 -1,-1 -3,-2 -5,-2 -2,0 -3,1 -4,2 -2,2 -2,3 -2,5z"/>
   <polygon class="fil3" points="751,735 751,702 755,702 755,735 "/>
   <polygon id="1" class="fil3" points="763,735 763,702 767,702 785,727 785,702 789,702 789,735 784,735 767,709 767,735 "/>
   <path id="2" class="fil3" d="M796 735l0 -33 15 0c3,0 5,0 7,0 1,1 2,2 3,4 1,1 2,3 2,5 0,2 -1,4 -3,5 -1,2 -4,3 -7,4 1,0 2,1 3,1 1,1 2,3 4,5l5 9 -5 0 -5 -7c-1,-2 -2,-4 -3,-5 -1,-1 -1,-2 -2,-2 -1,0 -1,-1 -2,-1 0,0 -1,0 -2,0l-5 0 0 15 -5 0zm5 -19l9 0c2,0 3,0 5,0 1,-1 2,-2 2,-2 1,-1 1,-2 1,-3 0,-2 -1,-3 -2,-4 -1,-1 -3,-2 -5,-2l-10 0 0 11z"/>
   <path id="3" class="fil3" d="M847 717c-2,-1 -3,-2 -4,-3 -1,-1 -1,-2 -1,-4 0,-2 1,-4 2,-6 2,-2 4,-3 7,-3 3,0 5,1 7,3 2,2 3,4 3,6 0,2 -1,3 -1,4 -1,1 -2,2 -4,3 2,0 4,1 5,3 1,1 1,3 1,5 0,3 -1,5 -3,7 -2,2 -4,3 -8,3 -3,0 -6,-1 -8,-3 -2,-2 -3,-4 -3,-7 0,-2 1,-4 2,-5 1,-2 3,-3 5,-3zm-1 -7c0,1 0,3 1,4 1,1 3,1 4,1 2,0 3,0 4,-1 1,-1 2,-3 2,-4 0,-1 -1,-3 -2,-4 -1,-1 -2,-1 -4,-1 -1,0 -3,0 -4,1 -1,1 -1,2 -1,4zm-1 15c0,1 0,2 0,3 1,1 2,2 3,3 1,0 2,1 3,1 2,0 4,-1 5,-2 1,-1 2,-3 2,-5 0,-2 -1,-3 -2,-5 -1,-1 -3,-2 -5,-2 -2,0 -3,1 -5,2 -1,2 -1,3 -1,5z"/>
   <path id="4" class="fil3" d="M868 735l0 -5 5 0 0 5c0,1 0,3 -1,4 -1,1 -2,2 -3,2l-1 -2c1,0 2,-1 2,-1 0,-1 1,-2 1,-3l-3 0z"/>
   <path id="5" class="fil3" d="M879 726l4 -1c0,3 1,4 2,5 1,1 3,2 4,2 2,0 4,-1 5,-2 2,-2 2,-3 2,-5 0,-2 0,-4 -2,-5 -1,-1 -2,-2 -4,-2 -1,0 -2,1 -3,1l0 -4c1,0 1,0 1,0 2,0 3,0 5,-1 1,-1 2,-2 2,-4 0,-2 -1,-3 -2,-4 -1,-1 -2,-1 -4,-1 -1,0 -3,0 -4,1 -1,1 -1,3 -2,5l-4 -1c1,-3 2,-5 4,-6 1,-2 4,-3 6,-3 2,0 4,1 5,2 2,0 3,1 4,3 1,1 1,2 1,4 0,1 0,3 -1,4 -1,1 -2,2 -4,3 2,0 4,1 5,2 1,2 2,4 2,6 0,3 -2,5 -4,7 -2,2 -4,3 -8,3 -2,0 -5,-1 -7,-3 -2,-1 -3,-3 -3,-6z"/>
   <path id="6" class="fil3" d="M905 726l4 0c0,2 1,3 2,4 1,1 2,2 4,2 2,0 4,-1 5,-2 1,-2 2,-4 2,-6 0,-3 -1,-4 -2,-6 -1,-1 -3,-2 -5,-2 -1,0 -2,1 -3,1 -2,1 -2,2 -3,2l-4 0 3 -17 17 0 0 4 -13 0 -2 9c2,-2 4,-2 6,-2 3,0 5,1 7,3 2,2 3,4 3,7 0,3 -1,6 -2,8 -2,3 -5,4 -9,4 -3,0 -5,-1 -7,-2 -2,-2 -3,-4 -3,-7z"/>
   <path id="7" class="fil3" d="M932 735l0 -5 5 0 0 5c0,1 0,3 -1,4 -1,1 -2,2 -3,2l-1 -2c1,0 1,-1 2,-1 0,-1 1,-2 1,-3l-3 0z"/>
   <path id="8" class="fil3" d="M943 718c0,-4 0,-7 1,-9 1,-3 2,-4 4,-6 1,-1 3,-2 6,-2 1,0 3,1 4,2 2,0 3,1 4,3 0,1 1,3 2,4 0,2 0,5 0,8 0,4 0,7 -1,10 -1,2 -2,4 -3,5 -2,1 -4,2 -6,2 -4,0 -6,-1 -8,-3 -2,-3 -3,-8 -3,-14zm4 0c0,6 1,9 2,11 1,2 3,3 5,3 1,0 3,-1 4,-3 2,-2 2,-5 2,-11 0,-5 0,-9 -2,-11 -1,-1 -3,-2 -4,-2 -2,0 -4,1 -5,2 -1,2 -2,6 -2,11z"/>
   <path id="9" class="fil3" d="M969 726l4 0c0,2 1,3 2,4 1,1 2,2 4,2 2,0 4,-1 5,-2 1,-2 2,-4 2,-6 0,-3 -1,-4 -2,-6 -1,-1 -3,-2 -5,-2 -1,0 -2,1 -3,1 -2,1 -2,2 -3,2l-4 0 3 -17 17 0 0 4 -13 0 -2 9c2,-2 4,-2 6,-2 3,0 5,1 7,3 2,2 3,4 3,7 0,3 -1,6 -2,8 -2,3 -5,4 -9,4 -3,0 -5,-1 -7,-2 -2,-2 -3,-4 -3,-7z"/>
   <path id="10" class="fil3" d="M1015 710l-4 0c0,-2 -1,-3 -1,-4 -2,-1 -3,-1 -4,-1 -2,0 -3,0 -4,1 -1,1 -2,2 -3,4 -1,2 -1,4 -1,8 1,-2 2,-3 4,-4 1,-1 2,-1 4,-1 3,0 5,1 7,3 2,2 3,5 3,8 0,2 -1,4 -2,6 -1,1 -2,3 -3,4 -2,1 -4,1 -6,1 -3,0 -6,-1 -8,-4 -2,-2 -3,-6 -3,-12 0,-6 1,-11 3,-14 3,-2 5,-4 9,-4 2,0 4,1 6,3 2,1 3,3 3,6zm-16 14c0,1 0,3 0,4 1,1 2,2 3,3 1,0 2,1 3,1 2,0 3,-1 5,-2 1,-2 2,-4 2,-6 0,-2 -1,-4 -2,-5 -1,-2 -3,-2 -5,-2 -2,0 -3,0 -5,2 -1,1 -1,3 -1,5z"/>
   <polygon id="11" class="fil3" points="1022,735 1022,730 1027,730 1027,735 "/>
   <path id="12" class="fil3" d="M1032 726l5 0c0,2 1,3 2,4 1,1 2,2 4,2 2,0 4,-1 5,-2 1,-2 2,-4 2,-6 0,-3 -1,-4 -2,-6 -1,-1 -3,-2 -5,-2 -1,0 -2,1 -4,1 -1,1 -1,2 -2,2l-4 0 3 -17 17 0 0 4 -13 0 -2 9c2,-2 4,-2 6,-2 3,0 5,1 7,3 2,2 3,4 3,7 0,3 -1,6 -2,8 -2,3 -5,4 -9,4 -3,0 -5,-1 -7,-2 -2,-2 -3,-4 -4,-7z"/>
   <path id="13" class="fil3" d="M1058 718c0,-4 0,-7 1,-9 1,-3 2,-4 4,-6 1,-1 3,-2 6,-2 2,0 3,1 4,2 2,0 3,1 4,3 1,1 1,3 2,4 0,2 1,5 1,8 0,4 -1,7 -2,10 0,2 -2,4 -3,5 -2,1 -4,2 -6,2 -3,0 -6,-1 -8,-3 -2,-3 -3,-8 -3,-14zm4 0c0,6 1,9 2,11 1,2 3,3 5,3 2,0 3,-1 4,-3 2,-2 2,-5 2,-11 0,-5 0,-9 -2,-11 -1,-1 -2,-2 -4,-2 -2,0 -4,1 -5,2 -1,2 -2,6 -2,11z"/>
   <path class="fil3" d="M751 612l13 -33 4 0 14 33 -5 0 -4 -10 -14 0 -3 10 -5 0zm9 -13l12 0 -4 -10c-1,-2 -2,-5 -2,-6 -1,2 -1,4 -2,6l-4 10z"/>
   <polygon id="1" class="fil3" points="782,613 791,579 795,579 785,613 "/>
   <path id="2" class="fil3" d="M813 603l4 1c0,3 -1,5 -3,6 -2,2 -4,3 -7,3 -3,0 -6,-1 -8,-4 -2,-2 -3,-5 -3,-9 0,-2 1,-5 2,-6 1,-2 2,-4 4,-5 1,-1 3,-1 5,-1 3,0 5,0 7,2 1,1 2,3 3,5l-4 1c-1,-2 -1,-3 -2,-4 -1,-1 -2,-1 -4,-1 -2,0 -3,1 -5,2 -1,2 -1,4 -1,7 0,3 0,6 1,7 2,2 3,2 5,2 2,0 3,0 4,-1 1,-1 2,-3 2,-5z"/>
   <polygon id="3" class="fil3" points="834,612 834,579 838,579 856,605 856,579 860,579 860,612 855,612 838,586 838,612 "/>
   <path id="4" class="fil3" d="M865 600c0,-4 1,-7 4,-10 2,-1 4,-2 7,-2 4,0 6,1 8,3 2,2 3,5 3,9 0,3 0,5 -1,7 -1,2 -2,3 -4,4 -2,1 -4,2 -6,2 -3,0 -6,-1 -8,-4 -2,-2 -3,-5 -3,-9zm4 0c0,3 1,6 2,7 2,2 3,2 5,2 2,0 4,0 5,-2 2,-1 2,-4 2,-7 0,-3 0,-5 -2,-7 -1,-1 -3,-2 -5,-2 -2,0 -3,1 -5,2 -1,2 -2,4 -2,7z"/>
   <path id="5" class="fil3" d="M893 593l0 -5 5 0 0 5 -5 0zm0 19l0 -4 5 0 0 4 -5 0z"/>
   <path id="6" class="fil3" d="M915 612l9 -12 -8 -12 5 0 3 6c1,1 2,2 2,2 1,0 1,-1 2,-2l4 -6 5 0 -8 12 8 12 -5 0 -5 -7 -1 -2 -6 9 -5 0z"/>
   <path id="7" class="fil3" d="M938 612l9 -12 -8 -12 5 0 3 6c1,1 2,2 2,2 1,0 1,-1 2,-2l4 -6 5 0 -8 12 8 12 -5 0 -5 -7 -1 -2 -6 9 -5 0z"/>
   <path id="8" class="fil3" d="M961 612l9 -12 -8 -12 5 0 3 6c1,1 2,2 2,2 1,0 1,-1 2,-2l4 -6 5 0 -8 12 8 12 -5 0 -4 -7 -2 -2 -6 9 -5 0z"/>
   <path id="9" class="fil3" d="M986 603l4 0c0,2 1,4 2,5 1,1 3,1 4,1 2,0 4,0 5,-2 2,-1 2,-3 2,-6 0,-2 0,-4 -2,-5 -1,-1 -3,-2 -5,-2 -1,0 -2,0 -3,1 -1,0 -2,1 -3,2l-4 0 4 -17 16 0 0 3 -13 0 -2 9c2,-1 4,-2 6,-2 3,0 6,1 8,3 2,2 3,5 3,8 0,3 -1,6 -3,8 -2,2 -5,4 -9,4 -3,0 -5,-1 -7,-3 -2,-2 -3,-4 -3,-7z"/>
   <path id="10" class="fil3" d="M1011 603l5 0c0,2 1,4 2,5 1,1 2,1 4,1 2,0 4,0 5,-2 1,-1 2,-3 2,-6 0,-2 -1,-4 -2,-5 -1,-1 -3,-2 -5,-2 -1,0 -3,0 -4,1 -1,0 -2,1 -2,2l-4 0 3 -17 17 0 0 3 -14 0 -1 9c2,-1 4,-2 6,-2 3,0 5,1 7,3 2,2 3,5 3,8 0,3 -1,6 -2,8 -3,2 -5,4 -9,4 -3,0 -6,-1 -7,-3 -2,-2 -3,-4 -4,-7z"/>
   <path id="11" class="fil3" d="M1037 583l0 -3 21 0 0 3c-2,2 -4,5 -6,9 -2,3 -3,7 -5,11 0,3 -1,6 -1,9l-4 0c0,-2 0,-6 1,-9 1,-4 3,-7 4,-11 2,-3 4,-6 6,-9l-16 0z"/>
   <path id="12" class="fil3" d="M1084 608l0 4 -22 0c0,-1 0,-2 0,-3 1,-1 2,-3 3,-4 1,-1 3,-3 5,-5 4,-3 6,-5 8,-7 1,-2 2,-3 2,-5 0,-1 -1,-3 -2,-4 -1,-1 -3,-2 -5,-2 -2,0 -3,1 -4,2 -2,1 -2,3 -2,5l-4 0c0,-4 1,-6 3,-8 2,-1 4,-2 7,-2 4,0 6,1 8,3 2,1 3,4 3,6 0,2 -1,3 -1,4 -1,1 -2,3 -3,4 -1,2 -3,3 -6,6 -2,2 -4,3 -5,4 0,1 -1,2 -1,2l16 0z"/>
   <polygon class="fil3" points="751,542 751,509 755,509 755,542 "/>
   <path id="1" class="fil3" d="M786 531l5 1c-1,3 -3,6 -5,8 -3,2 -5,3 -9,3 -3,0 -6,-1 -9,-2 -2,-2 -3,-4 -5,-7 -1,-2 -1,-5 -1,-9 0,-3 0,-6 2,-8 1,-3 3,-5 5,-6 3,-2 5,-2 8,-2 3,0 6,1 8,2 3,2 4,4 5,7l-4 1c-1,-2 -2,-4 -3,-5 -2,-1 -4,-2 -6,-2 -2,0 -5,1 -6,2 -2,1 -3,3 -4,5 -1,2 -1,4 -1,6 0,3 1,6 1,8 1,2 2,3 4,4 2,2 4,2 6,2 2,0 4,-1 6,-2 2,-1 3,-4 3,-6z"/>
   <polygon id="2" class="fil3" points="797,542 797,509 801,509 801,542 "/>
   <path id="3" class="fil3" d="M832 531l5 1c-1,3 -3,6 -5,8 -3,2 -5,3 -9,3 -3,0 -6,-1 -9,-2 -2,-2 -3,-4 -5,-7 -1,-2 -1,-5 -1,-9 0,-3 0,-6 2,-8 1,-3 3,-5 5,-6 3,-2 5,-2 8,-2 4,0 6,1 9,2 2,2 3,4 4,7l-4 1c-1,-2 -2,-4 -3,-5 -2,-1 -4,-2 -6,-2 -2,0 -5,1 -6,2 -2,1 -3,3 -4,5 0,2 -1,4 -1,6 0,3 1,6 1,8 1,2 2,3 4,4 2,2 4,2 6,2 2,0 4,-1 6,-2 2,-1 3,-4 3,-6z"/>
   <polygon id="4" class="fil3" points="843,542 843,509 847,509 847,542 "/>
   <path id="5" class="fil3" d="M868 542l0 -33 12 0c2,0 4,1 6,1 1,1 3,2 4,3 0,2 1,3 1,5 0,1 -1,2 -1,4 -1,1 -2,2 -4,3 2,0 4,1 5,3 1,1 1,3 1,5 0,1 0,3 -1,4 0,1 -1,2 -2,3 -1,1 -2,1 -4,2 -1,0 -3,0 -5,0l-12 0zm4 -19l7 0c2,0 3,0 4,0 1,-1 2,-1 3,-2 0,-1 1,-2 1,-3 0,-1 -1,-2 -1,-3 -1,-1 -2,-1 -2,-1 -1,-1 -3,-1 -5,-1l-7 0 0 10zm0 15l8 0c2,0 3,0 3,0 1,0 2,0 3,-1 0,0 1,-1 1,-2 1,0 1,-1 1,-2 0,-2 0,-3 -1,-4 -1,0 -2,-1 -3,-1 -1,-1 -2,-1 -4,-1l-8 0 0 11z"/>
   <path id="6" class="fil3" d="M914 539c-2,1 -3,2 -5,3 -1,0 -3,1 -4,1 -3,0 -5,-1 -6,-2 -2,-1 -2,-3 -2,-5 0,-1 0,-2 0,-3 1,-1 2,-2 2,-3 1,0 2,-1 3,-1 1,0 2,0 4,-1 3,0 6,0 7,-1 0,0 0,-1 0,-1 0,-2 0,-3 -1,-3 -1,-1 -3,-2 -5,-2 -1,0 -3,1 -4,1 -1,1 -1,2 -2,4l-4 -1c1,-2 1,-3 2,-4 1,-1 2,-2 4,-2 1,-1 3,-1 5,-1 2,0 4,0 5,1 1,0 2,1 3,1 0,1 1,2 1,3 0,1 0,2 0,4l0 5c0,4 0,6 1,7 0,1 0,2 1,3l-5 0c0,-1 0,-2 0,-3zm-1 -9c-1,1 -3,1 -6,2 -2,0 -3,0 -4,1 -1,0 -1,0 -2,1 0,0 0,1 0,2 0,1 0,2 1,2 1,1 2,2 4,2 1,0 3,-1 4,-1 1,-1 2,-2 3,-3 0,-1 0,-3 0,-4l0 -2z"/>
   <path id="7" class="fil3" d="M924 542l0 -24 3 0 0 4c2,-3 4,-4 8,-4 1,0 3,0 4,1 1,0 2,1 2,2 1,0 1,1 2,3 0,0 0,2 0,4l0 14 -4 0 0 -14c0,-2 0,-3 -1,-4 0,-1 0,-1 -1,-2 -1,0 -2,-1 -3,-1 -2,0 -3,1 -5,2 -1,1 -1,3 -1,6l0 13 -4 0z"/>
   <polygon id="8" class="fil3" points="949,542 949,509 953,509 953,528 963,518 968,518 959,527 969,542 964,542 956,530 953,533 953,542 "/>
   <g>
    <path class="fil2" d="M660 488l-533 0 0 -3 533 0 1 2 -1 1zm0 -3l1 0 0 2 -1 -2zm-1 358l0 -356 2 0 0 356 -1 1 -1 -1zm2 0l0 1 -1 0 1 -1zm-534 -2l533 0 0 3 -533 0 -2 -1 2 -2zm0 3l-2 0 0 -1 2 1zm1 -357l0 356 -3 0 0 -356 2 -2 1 2zm-3 0l0 -2 2 0 -2 2z"/>
   </g>
   <g>
    <path class="fil2" d="M1257 488l-533 0 0 -3 533 0 1 2 -1 1zm0 -3l1 0 0 2 -1 -2zm-1 358l0 -356 2 0 0 356 -1 1 -1 -1zm2 0l0 1 -1 0 1 -1zm-534 -2l533 0 0 3 -533 0 -1 -1 1 -2zm0 3l-1 0 0 -1 1 1zm1 -357l0 356 -2 0 0 -356 1 -2 1 2zm-2 0l0 -2 1 0 -1 2z"/>
   </g>
   <g>
    <path class="fil0" d="M138 892l472 0c7,0 12,5 12,11l0 88c0,6 -5,11 -12,11l-472 0c-6,0 -11,-5 -11,-11l0 -88c0,-6 5,-11 11,-11z"/>
    <path class="fil4" d="M227 953l6 1c-1,5 -4,8 -6,11 -3,2 -7,3 -11,3 -5,0 -8,-1 -11,-3 -3,-1 -5,-4 -7,-7 -1,-4 -2,-8 -2,-12 0,-4 1,-8 3,-11 1,-3 4,-5 7,-7 3,-2 6,-2 10,-2 4,0 7,1 10,3 3,2 5,5 6,8l-5 2c-1,-3 -3,-5 -5,-7 -1,-1 -4,-2 -6,-2 -4,0 -6,1 -8,2 -2,2 -4,4 -5,7 -1,2 -1,5 -1,7 0,4 0,7 1,10 1,2 3,4 5,5 2,2 5,2 7,2 3,0 6,0 8,-2 2,-2 3,-5 4,-8z"/>
    <path id="1" class="fil4" d="M237 952c0,-5 1,-9 4,-12 3,-2 6,-3 10,-3 4,0 7,1 10,4 3,3 4,6 4,11 0,4 -1,7 -2,9 -1,2 -3,4 -5,5 -2,1 -5,2 -7,2 -4,0 -8,-1 -10,-4 -3,-3 -4,-7 -4,-12zm5 0c0,4 1,7 3,9 1,2 3,3 6,3 2,0 4,-1 6,-3 2,-2 3,-5 3,-9 0,-3 -1,-6 -3,-8 -2,-2 -4,-3 -6,-3 -3,0 -5,1 -6,3 -2,2 -3,5 -3,8z"/>
    <path id="2" class="fil4" d="M271 967l0 -29 4 0 0 4c3,-3 6,-5 10,-5 2,0 3,0 5,1 1,1 2,1 3,2 1,1 1,3 2,4 0,1 0,3 0,5l0 18 -5 0 0 -18c0,-2 0,-3 -1,-4 0,-1 -1,-2 -2,-3 -1,0 -2,-1 -3,-1 -2,0 -4,1 -6,2 -1,2 -2,4 -2,8l0 16 -5 0z"/>
    <path id="3" class="fil4" d="M303 967l0 -29 4 0 0 4c3,-3 6,-5 10,-5 2,0 3,0 5,1 1,1 2,1 3,2 1,1 1,3 2,4 0,1 0,3 0,5l0 18 -5 0 0 -18c0,-2 0,-3 -1,-4 0,-1 -1,-2 -2,-3 -1,0 -2,-1 -3,-1 -2,0 -4,1 -6,2 -1,2 -2,4 -2,8l0 16 -5 0z"/>
    <path id="4" class="fil4" d="M355 958l5 0c0,3 -2,6 -4,8 -2,1 -5,2 -9,2 -4,0 -8,-1 -10,-4 -3,-3 -4,-6 -4,-11 0,-5 1,-9 4,-12 3,-3 6,-4 10,-4 4,0 7,1 10,4 2,3 4,6 4,11 0,1 0,1 0,2l-23 0c0,3 1,6 3,7 2,2 4,3 6,3 2,0 4,-1 5,-2 1,-1 2,-2 3,-4zm-16 -8l16 0c0,-3 -1,-5 -2,-6 -1,-2 -3,-3 -6,-3 -2,0 -4,1 -6,2 -1,2 -2,4 -2,7z"/>
    <path id="5" class="fil4" d="M386 956l5 1c0,4 -2,6 -4,8 -2,2 -5,3 -8,3 -4,0 -8,-1 -10,-4 -2,-3 -4,-6 -4,-11 0,-4 1,-6 2,-9 1,-2 3,-4 5,-5 2,-1 4,-2 7,-2 3,0 6,1 8,2 2,2 3,4 4,7l-5 1c-1,-2 -1,-3 -3,-4 -1,-1 -2,-2 -4,-2 -2,0 -5,1 -6,3 -2,2 -3,4 -3,8 0,4 1,7 3,9 1,2 3,3 6,3 2,0 3,-1 5,-2 1,-1 2,-3 2,-6z"/>
    <path id="6" class="fil4" d="M407 963l0 4c-1,1 -2,1 -4,1 -1,0 -3,0 -4,-1 -1,-1 -2,-1 -2,-2 0,-1 -1,-3 -1,-6l0 -18 -3 0 0 -3 3 0 0 -8 5 -3 0 11 6 0 0 3 -6 0 0 18c0,1 1,2 1,3 0,0 0,0 1,1 0,0 1,0 1,0 1,0 2,0 3,0z"/>
    <path id="7" class="fil4" d="M428 967l0 -41 15 0c4,0 6,1 8,1 2,1 3,3 4,4 1,2 2,4 2,6 0,1 0,3 -1,5 -1,1 -3,3 -5,3 3,1 5,2 6,4 1,2 2,4 2,6 0,2 0,4 -1,6 -1,1 -2,3 -3,4 -1,1 -3,1 -5,2 -2,0 -4,0 -6,0l-16 0zm5 -23l9 0c3,0 4,-1 5,-1 2,0 3,-1 4,-2 0,-1 1,-2 1,-4 0,-1 -1,-2 -1,-3 -1,-1 -2,-2 -3,-2 -1,-1 -3,-1 -6,-1l-9 0 0 13zm0 19l11 0c1,0 3,-1 3,-1 2,0 3,0 4,-1 0,0 1,-1 2,-2 0,-1 0,-2 0,-4 0,-1 0,-2 -1,-4 -1,-1 -2,-1 -3,-2 -1,0 -3,-1 -6,-1l-10 0 0 15z"/>
    <path id="8" class="fil4" d="M485 964c-1,1 -3,2 -5,3 -2,1 -4,1 -6,1 -3,0 -5,-1 -7,-2 -2,-2 -3,-4 -3,-6 0,-2 0,-3 1,-4 1,-2 2,-3 3,-3 1,-1 2,-2 3,-2 1,0 3,-1 5,-1 4,0 7,-1 9,-2 0,0 0,-1 0,-1 0,-2 0,-3 -1,-4 -2,-1 -4,-2 -6,-2 -3,0 -4,1 -6,1 -1,1 -1,3 -2,5l-5 -1c0,-2 1,-4 2,-5 1,-1 3,-2 5,-3 2,-1 4,-1 7,-1 2,0 4,0 6,1 1,0 3,1 3,2 1,1 2,2 2,4 0,0 0,2 0,4l0 7c0,5 0,8 0,9 1,1 1,2 2,3l-6 0c0,-1 0,-2 -1,-3zm0 -12c-2,1 -5,2 -8,2 -2,1 -4,1 -5,1 -1,1 -1,1 -2,2 0,1 0,1 0,2 0,2 0,3 1,4 1,1 3,1 5,1 2,0 3,0 5,-1 1,-1 2,-2 3,-4 1,-1 1,-3 1,-5l0 -2z"/>
    <path id="9" class="fil4" d="M498 967l0 -29 4 0 0 4c3,-3 6,-5 10,-5 2,0 3,0 5,1 1,1 3,1 3,2 1,1 2,3 2,4 0,1 0,3 0,5l0 18 -5 0 0 -18c0,-2 0,-3 -1,-4 0,-1 -1,-2 -2,-3 -1,0 -2,-1 -3,-1 -2,0 -4,1 -6,2 -1,2 -2,4 -2,8l0 16 -5 0z"/>
    <polygon id="10" class="fil4" points="530,967 530,926 535,926 535,950 547,938 553,938 542,949 555,967 548,967 538,952 535,956 535,967 "/>
   </g>
   <circle class="fil0" cx="1356" cy="171" r="171"/>
   <path class="fil5" d="M1421 168c0,-2 0,-3 -1,-5 -1,-4 -3,-7 -6,-10 -3,-3 -7,-5 -12,-5l0 0c0,-2 0,-5 0,-7 -1,-3 -1,-5 -1,-8 0,-3 -1,-7 -2,-10 -2,-8 -6,-15 -13,-21 -3,-3 -7,-6 -12,-8 -4,-2 -9,-3 -13,-3 -1,0 -2,0 -2,0l-5 0c-1,0 -1,0 -1,0 -1,0 -3,0 -5,0 -3,1 -6,1 -9,3 -9,3 -17,10 -22,20 -4,7 -6,16 -6,24 0,4 0,7 0,10l0 0c-1,0 -3,1 -4,1 -4,0 -8,3 -11,6 -3,4 -5,9 -5,13 0,22 0,43 0,64 0,2 0,3 1,4 0,5 3,9 7,12 4,3 8,4 12,4l89 0c1,0 2,0 3,0 3,0 5,-1 7,-2 7,-3 11,-10 11,-17 0,-22 0,-43 0,-65zm-55 34c-1,1 -2,2 -3,3 0,0 0,0 0,0 0,5 0,10 0,15 0,3 -3,6 -6,6 -3,1 -7,-2 -7,-5 0,0 0,0 0,0 -1,-3 0,-5 0,-7l0 -1c0,-3 0,-5 0,-8 0,0 -1,0 -1,0 -3,-2 -5,-5 -6,-8 0,-4 1,-9 3,-12 2,-2 5,-4 8,-4 5,-1 9,1 12,4 4,5 4,12 0,17l0 0zm-10 -54l-26 0 0 -6c0,-4 1,-8 1,-12 1,-4 3,-8 6,-12 2,-3 5,-5 9,-6 2,-1 5,-2 8,-2 3,0 6,0 10,1 3,0 5,2 8,4 3,2 6,6 7,10 2,5 3,11 3,16 0,2 0,5 0,7l0 0c-9,0 -17,0 -26,0z"/>
  </g>
 </g>
</svg>
