<?xml version="1.0" encoding="UTF-8"?>
<!DOCTYPE svg PUBLIC "-//W3C//DTD SVG 1.1//EN" "http://www.w3.org/Graphics/SVG/1.1/DTD/svg11.dtd">
<!-- Creator: CorelDRAW X8 -->
<svg xmlns="http://www.w3.org/2000/svg" xml:space="preserve" width="7.45445in" height="2in" version="1.1" style="shape-rendering:geometricPrecision; text-rendering:geometricPrecision; image-rendering:optimizeQuality; fill-rule:evenodd; clip-rule:evenodd"
viewBox="0 0 4984 1337"
 xmlns:xlink="http://www.w3.org/1999/xlink">
 <defs>
  <style type="text/css">
   <![CDATA[
    .str0 {stroke:#1A237E;stroke-width:12.3255;stroke-linecap:round;stroke-linejoin:round}
    .fil2 {fill:#FEFEFE}
    .fil1 {fill:#1A237E}
    .fil3 {fill:#606062;fill-rule:nonzero}
    .fil0 {fill:#1A237E;fill-rule:nonzero}
   ]]>
  </style>
 </defs>
 <g id="Layer_x0020_1">
  <metadata id="CorelCorpID_0Corel-Layer"/>
  <g id="_2490672762480">
   <g>
    <polygon class="fil0" points="3687,680 1297,680 1297,657 3687,657 "/>
   </g>
   <rect class="fil1" width="1337" height="1337"/>
   <rect class="fil2" x="40" y="40" width="1257" height="1257"/>
   <rect class="fil1" x="1823" width="1337" height="1337"/>
   <rect class="fil2" x="1863" y="40" width="1257" height="1257"/>
   <rect class="fil1" x="3647" width="1337" height="1337"/>
   <rect class="fil2" x="3687" y="40" width="1257" height="1257"/>
   <path class="fil3" d="M420 959c0,-14 4,-25 11,-33 8,-8 17,-12 29,-12 8,0 15,2 22,6 6,3 11,9 14,15 3,7 5,14 5,23 0,9 -2,16 -5,23 -4,7 -9,12 -15,15 -6,4 -13,6 -21,6 -8,0 -15,-2 -21,-6 -6,-4 -11,-9 -14,-16 -4,-7 -5,-14 -5,-21zm11 0c0,10 3,18 9,24 5,6 12,9 20,9 9,0 16,-3 21,-9 6,-6 8,-14 8,-25 0,-7 -1,-13 -3,-18 -3,-5 -6,-9 -10,-12 -5,-3 -10,-4 -16,-4 -7,0 -14,2 -20,8 -6,5 -9,14 -9,27z"/>
   <path id="1" class="fil3" d="M514 1000l0 -61 9 0 0 8c5,-6 11,-10 20,-10 4,0 7,1 10,2 3,2 6,3 7,6 2,2 3,4 3,7 1,2 1,6 1,10l0 38 -11 0 0 -37c0,-4 0,-8 -1,-10 -1,-2 -2,-3 -4,-5 -2,-1 -5,-2 -7,-2 -5,0 -9,2 -12,5 -3,2 -5,8 -5,16l0 33 -10 0z"/>
   <path id="2" class="fil3" d="M622 980l11 2c-2,6 -5,11 -10,14 -4,4 -10,6 -17,6 -9,0 -16,-3 -22,-9 -5,-5 -8,-13 -8,-23 0,-10 3,-18 8,-24 6,-6 13,-9 21,-9 8,0 15,3 20,9 5,5 8,13 8,23 0,1 0,2 0,3l-46 0c1,7 2,12 6,16 3,3 8,5 13,5 3,0 7,-1 9,-3 3,-2 5,-5 7,-10zm-34 -16l34 0c0,-6 -2,-9 -4,-12 -3,-4 -8,-6 -13,-6 -5,0 -9,2 -12,5 -3,3 -5,7 -5,13z"/>
   <polygon id="3" class="fil3" points="699,1000 699,925 671,925 671,915 739,915 739,925 711,925 711,1000 "/>
   <path id="4" class="fil3" d="M745 927l0 -12 10 0 0 12 -10 0zm0 73l0 -61 10 0 0 61 -10 0z"/>
   <path id="5" class="fil3" d="M771 1000l0 -61 9 0 0 8c2,-3 5,-5 8,-7 3,-2 7,-3 11,-3 4,0 8,1 11,3 3,2 5,5 6,8 5,-7 11,-11 19,-11 6,0 11,2 14,5 4,4 5,9 5,16l0 42 -10 0 0 -38c0,-5 -1,-8 -1,-9 -1,-2 -2,-4 -4,-5 -2,-1 -4,-2 -6,-2 -5,0 -8,2 -11,5 -3,3 -4,7 -4,14l0 35 -11 0 0 -40c0,-4 -1,-8 -2,-10 -2,-2 -5,-4 -9,-4 -2,0 -5,1 -8,3 -2,1 -4,4 -5,7 -1,2 -2,7 -2,12l0 32 -10 0z"/>
   <path id="6" class="fil3" d="M911 980l11 2c-1,6 -5,11 -9,14 -5,4 -11,6 -18,6 -9,0 -16,-3 -21,-9 -5,-5 -8,-13 -8,-23 0,-10 3,-18 8,-24 5,-6 12,-9 21,-9 8,0 15,3 20,9 5,5 8,13 8,23 0,1 0,2 0,3l-46 0c0,7 2,12 5,16 4,3 8,5 13,5 4,0 7,-1 10,-3 3,-2 5,-5 6,-10zm-34 -16l35 0c-1,-6 -2,-9 -4,-12 -4,-4 -8,-6 -13,-6 -5,0 -9,2 -12,5 -4,3 -5,7 -6,13z"/>
   <path id="7" class="fil3" d="M446 1133l0 -85 32 0c6,0 10,0 13,1 4,0 8,2 11,3 2,2 5,5 6,9 2,3 3,7 3,11 0,7 -2,13 -7,18 -4,5 -13,8 -25,8l-22 0 0 35 -11 0zm11 -45l22 0c8,0 13,-1 16,-4 3,-3 4,-7 4,-11 0,-4 0,-7 -2,-10 -2,-2 -4,-4 -7,-5 -2,0 -6,0 -11,0l-22 0 0 30z"/>
   <path id="8" class="fil3" d="M564 1125c-4,3 -8,5 -11,7 -4,1 -7,2 -12,2 -6,0 -12,-2 -15,-5 -4,-3 -6,-8 -6,-13 0,-3 1,-5 2,-8 2,-2 4,-4 6,-6 2,-1 5,-3 7,-3 2,-1 5,-1 10,-2 8,-1 14,-2 18,-3 0,-2 0,-3 0,-3 0,-4 -1,-7 -3,-9 -2,-2 -6,-4 -12,-4 -5,0 -8,1 -10,3 -3,2 -5,5 -6,9l-10 -1c1,-5 3,-8 5,-11 2,-3 5,-5 9,-6 4,-2 9,-2 14,-2 5,0 9,0 13,2 3,1 5,2 7,4 2,2 3,5 3,7 1,2 1,5 1,10l0 14c0,9 0,16 0,18 1,3 2,5 3,8l-11 0c-1,-3 -2,-5 -2,-8zm-1 -23c-4,1 -9,3 -17,4 -4,0 -7,1 -9,2 -2,0 -3,2 -4,3 -1,2 -1,3 -1,5 0,3 1,5 3,7 2,2 5,3 9,3 4,0 7,-1 11,-3 3,-2 5,-4 7,-7 1,-2 1,-6 1,-10l0 -4z"/>
   <path id="9" class="fil3" d="M589 1156l-1 -9c2,0 4,0 6,0 2,0 4,0 6,-1 1,0 2,-2 3,-3 1,-1 2,-4 3,-8 0,0 1,-1 1,-2l-23 -62 11 0 13 36c2,4 3,9 4,14 2,-5 3,-10 5,-14l13 -36 10 0 -23 63c-3,6 -5,11 -6,13 -2,4 -4,6 -6,8 -3,2 -6,2 -9,2 -2,0 -4,0 -7,-1z"/>
   <path id="10" class="fil3" d="M649 1133l0 -62 9 0 0 9c2,-3 5,-6 8,-8 3,-1 7,-2 11,-2 5,0 8,1 11,3 3,1 5,4 6,7 5,-7 12,-10 19,-10 6,0 11,1 14,5 4,3 5,8 5,15l0 43 -10 0 0 -39c0,-4 0,-7 -1,-9 -1,-2 -2,-3 -4,-5 -2,-1 -4,-1 -6,-1 -4,0 -8,1 -11,4 -3,3 -4,8 -4,14l0 36 -10 0 0 -40c0,-5 -1,-8 -3,-11 -2,-2 -5,-3 -8,-3 -3,0 -6,1 -8,2 -3,2 -5,4 -6,7 -1,3 -2,7 -2,13l0 32 -10 0z"/>
   <path id="11" class="fil3" d="M790 1113l10 1c-1,6 -4,11 -9,15 -5,3 -10,5 -18,5 -9,0 -16,-3 -21,-8 -5,-6 -8,-14 -8,-24 0,-10 3,-18 8,-24 6,-5 12,-8 21,-8 8,0 15,3 20,8 5,6 8,14 8,24 0,0 0,1 0,2l-46 0c0,7 2,12 6,16 3,4 7,5 12,5 4,0 8,-1 10,-3 3,-2 5,-5 7,-9zm-34 -17l34 0c-1,-5 -2,-9 -4,-12 -3,-4 -8,-6 -13,-6 -5,0 -9,2 -12,5 -3,3 -5,8 -5,13z"/>
   <path id="12" class="fil3" d="M814 1133l0 -62 9 0 0 9c4,-7 11,-10 19,-10 4,0 8,0 11,2 3,1 5,3 7,5 1,2 2,5 3,8 0,2 0,5 0,10l0 38 -10 0 0 -38c0,-4 0,-7 -1,-9 -1,-2 -2,-4 -4,-5 -3,-2 -5,-2 -8,-2 -4,0 -8,1 -11,4 -3,3 -5,8 -5,16l0 34 -10 0z"/>
   <path id="13" class="fil3" d="M902 1123l1 9c-2,1 -5,1 -7,1 -4,0 -7,0 -9,-1 -2,-2 -4,-3 -5,-5 0,-2 -1,-6 -1,-12l0 -36 -7 0 0 -8 7 0 0 -15 11 -6 0 21 10 0 0 8 -10 0 0 36c0,3 0,5 0,6 1,1 1,1 2,2 1,0 2,1 4,1 1,0 2,0 4,-1z"/>
   <g id="_2490672763472">
    <path class="fil0" d="M2443 496c0,12 -62,53 -62,0 0,-71 46,-125 121,-125 3,0 3,0 1,1 -12,8 -60,29 -60,124z"/>
    <polygon class="fil0" points="2338,500 2412,594 2486,500 "/>
    <path class="fil0 str0" d="M2338 500l74 94 74 -94 -148 0zm0 0z"/>
    <path class="fil0" d="M2541 565c0,-12 62,-53 62,0 0,71 -46,125 -121,125 -3,0 -3,0 -1,-1 12,-8 60,-29 60,-124z"/>
    <polygon class="fil0" points="2646,561 2572,467 2498,561 "/>
    <path class="fil0 str0" d="M2646 561l-74 -94 -74 94 148 0zm0 0z"/>
   </g>
   <path class="fil3" d="M2140 1000l33 -85 12 0 35 85 -13 0 -10 -26 -36 0 -9 26 -12 0zm25 -35l29 0 -9 -23c-3,-7 -5,-13 -6,-18 -1,6 -3,11 -5,16l-9 25z"/>
   <path id="1" class="fil3" d="M2268 1000l0 -9c-5,7 -12,11 -20,11 -4,0 -7,-1 -10,-3 -3,-1 -6,-3 -7,-5 -2,-2 -3,-4 -3,-8 -1,-2 -1,-5 -1,-9l0 -38 11 0 0 34c0,5 0,9 0,11 1,2 2,5 4,6 2,2 5,3 8,3 3,0 6,-1 9,-3 3,-1 5,-4 6,-6 1,-3 1,-7 1,-12l0 -33 11 0 0 61 -9 0z"/>
   <path id="2" class="fil3" d="M2316 991l1 9c-3,1 -5,1 -8,1 -3,0 -6,-1 -8,-2 -2,-1 -4,-3 -5,-4 -1,-2 -1,-7 -1,-13l0 -35 -8 0 0 -8 8 0 0 -15 10 -7 0 22 11 0 0 8 -11 0 0 36c0,3 1,5 1,6 0,0 1,1 2,2 1,0 2,0 3,0 1,0 3,0 5,0z"/>
   <path id="3" class="fil3" d="M2322 969c0,-11 3,-19 10,-25 5,-4 11,-7 19,-7 8,0 15,3 21,9 5,5 8,13 8,23 0,7 -1,14 -4,18 -2,5 -6,8 -10,11 -5,2 -10,4 -15,4 -9,0 -16,-3 -21,-9 -5,-5 -8,-13 -8,-24zm11 0c0,8 2,14 5,18 4,4 8,6 13,6 5,0 10,-2 13,-6 3,-4 5,-10 5,-18 0,-7 -2,-13 -5,-17 -4,-4 -8,-6 -13,-6 -5,0 -9,2 -13,6 -3,4 -5,10 -5,17z"/>
   <path id="4" class="fil3" d="M2392 1000l0 -61 9 0 0 8c2,-3 5,-5 8,-7 3,-2 7,-3 11,-3 5,0 8,1 11,3 3,2 5,5 6,8 5,-7 12,-11 19,-11 6,0 11,2 14,5 4,4 5,9 5,16l0 42 -10 0 0 -38c0,-5 0,-8 -1,-9 -1,-2 -2,-4 -4,-5 -2,-1 -4,-2 -6,-2 -4,0 -8,2 -11,5 -3,3 -4,7 -4,14l0 35 -11 0 0 -40c0,-4 0,-8 -2,-10 -2,-2 -5,-4 -8,-4 -3,0 -6,1 -8,3 -3,1 -5,4 -6,7 -1,2 -2,7 -2,12l0 32 -10 0z"/>
   <path id="5" class="fil3" d="M2531 993c-4,3 -8,5 -11,6 -4,2 -8,3 -12,3 -7,0 -12,-2 -15,-5 -4,-4 -6,-8 -6,-13 0,-3 1,-6 2,-8 2,-3 3,-5 6,-6 2,-2 4,-3 7,-4 2,0 5,-1 9,-1 9,-1 15,-2 19,-4 0,-1 0,-2 0,-2 0,-5 -1,-8 -3,-9 -3,-3 -7,-4 -12,-4 -5,0 -8,1 -11,3 -2,1 -4,4 -5,9l-10 -2c1,-4 2,-8 4,-10 3,-3 6,-5 10,-6 4,-2 8,-3 14,-3 5,0 9,1 13,2 3,2 5,3 7,5 1,2 2,4 3,7 0,2 1,5 1,10l0 13c0,10 0,16 0,19 1,2 1,5 3,7l-11 0c-1,-2 -2,-5 -2,-7zm-1 -24c-4,2 -9,3 -17,4 -4,1 -7,2 -9,2 -2,1 -3,2 -4,4 -1,1 -2,3 -2,5 0,2 1,5 3,7 3,1 6,2 10,2 4,0 7,-1 10,-2 3,-2 6,-4 7,-7 1,-3 2,-6 2,-11l0 -4z"/>
   <path id="6" class="fil3" d="M2579 991l2 9c-3,1 -6,1 -8,1 -4,0 -7,-1 -9,-2 -2,-1 -4,-3 -4,-4 -1,-2 -2,-7 -2,-13l0 -35 -7 0 0 -8 7 0 0 -15 11 -7 0 22 10 0 0 8 -10 0 0 36c0,3 0,5 0,6 1,0 1,1 2,2 1,0 2,0 4,0 1,0 2,0 4,0z"/>
   <path id="7" class="fil3" d="M2589 927l0 -12 11 0 0 12 -11 0zm0 73l0 -61 11 0 0 61 -11 0z"/>
   <path id="8" class="fil3" d="M2656 978l10 1c-1,7 -4,13 -8,17 -5,4 -11,6 -17,6 -9,0 -16,-3 -21,-9 -5,-5 -7,-13 -7,-23 0,-7 1,-13 3,-18 2,-5 6,-8 10,-11 5,-2 9,-4 15,-4 6,0 12,2 16,5 4,4 7,9 8,15l-10 1c-1,-4 -3,-7 -5,-9 -2,-2 -5,-3 -9,-3 -5,0 -9,2 -13,6 -3,3 -5,9 -5,17 0,9 2,15 5,18 3,4 7,6 12,6 5,0 8,-1 11,-4 2,-2 4,-6 5,-11z"/>
   <path id="9" class="fil3" d="M2715 993c-4,3 -7,5 -11,6 -4,2 -7,3 -12,3 -6,0 -11,-2 -15,-5 -4,-4 -6,-8 -6,-13 0,-3 1,-6 3,-8 1,-3 3,-5 5,-6 2,-2 5,-3 7,-4 2,0 6,-1 10,-1 8,-1 14,-2 18,-4 0,-1 0,-2 0,-2 0,-5 -1,-8 -3,-9 -2,-3 -6,-4 -12,-4 -4,0 -8,1 -10,3 -3,1 -4,4 -6,9l-10 -2c1,-4 3,-8 5,-10 2,-3 5,-5 9,-6 4,-2 9,-3 14,-3 5,0 10,1 13,2 3,2 6,3 7,5 2,2 3,4 3,7 1,2 1,5 1,10l0 13c0,10 0,16 1,19 0,2 1,5 2,7l-11 0c-1,-2 -2,-5 -2,-7zm-1 -24c-3,2 -9,3 -17,4 -4,1 -7,2 -9,2 -2,1 -3,2 -4,4 -1,1 -1,3 -1,5 0,2 1,5 3,7 2,1 5,2 9,2 4,0 8,-1 11,-2 3,-2 5,-4 7,-7 1,-3 1,-6 1,-11l0 -4z"/>
   <polygon id="10" class="fil3" points="2741,1000 2741,915 2751,915 2751,1000 "/>
   <polygon id="11" class="fil3" points="2767,1000 2767,915 2777,915 2777,1000 "/>
   <path id="12" class="fil3" d="M2793 1024l-1 -10c2,1 4,1 6,1 2,0 4,0 5,-1 2,-1 3,-2 4,-3 0,-1 2,-4 3,-8 0,-1 0,-1 1,-3l-23 -61 11 0 13 35c1,5 3,9 4,14 1,-4 3,-9 4,-13l13 -36 11 0 -23 62c-3,7 -5,12 -6,14 -2,4 -4,6 -7,8 -2,1 -5,2 -8,2 -2,0 -4,0 -7,-1z"/>
   <path id="13" class="fil3" d="M2366 1048l12 0 0 49c0,8 -1,15 -3,20 -2,5 -6,9 -11,12 -5,3 -11,5 -19,5 -8,0 -15,-1 -20,-4 -5,-3 -8,-7 -11,-12 -2,-5 -3,-12 -3,-21l0 -49 11 0 0 49c0,7 1,12 2,16 2,3 4,6 7,8 4,2 8,3 13,3 8,0 14,-2 17,-6 4,-3 5,-11 5,-21l0 -49z"/>
   <path id="14" class="fil3" d="M2395 1156l0 -85 10 0 0 8c2,-3 4,-5 7,-7 3,-1 6,-2 10,-2 6,0 10,1 14,4 4,2 7,6 9,11 2,5 3,10 3,16 0,7 -1,12 -3,17 -2,5 -5,9 -10,12 -4,2 -9,4 -13,4 -4,0 -7,-1 -10,-2 -2,-2 -5,-4 -6,-6l0 30 -11 0zm10 -54c0,8 1,14 4,18 4,3 7,5 12,5 5,0 9,-2 12,-6 3,-3 5,-10 5,-18 0,-8 -2,-13 -5,-17 -3,-4 -7,-6 -12,-6 -4,0 -8,2 -11,6 -4,4 -5,10 -5,18z"/>
   <path id="15" class="fil3" d="M2501 1133l0 -8c-4,6 -10,9 -18,9 -4,0 -9,-2 -13,-4 -4,-3 -7,-7 -10,-11 -2,-5 -3,-11 -3,-17 0,-6 1,-12 3,-17 2,-5 5,-9 9,-11 4,-3 9,-4 14,-4 4,0 7,1 10,2 3,2 5,4 7,6l0 -30 10 0 0 85 -9 0zm-33 -31c0,8 1,14 5,17 3,4 7,6 12,6 4,0 8,-2 11,-5 3,-4 5,-10 5,-17 0,-9 -2,-15 -5,-19 -3,-4 -7,-6 -12,-6 -5,0 -8,2 -12,6 -3,4 -4,10 -4,18z"/>
   <path id="16" class="fil3" d="M2567 1125c-4,3 -8,5 -11,7 -4,1 -8,2 -12,2 -6,0 -12,-2 -15,-5 -4,-3 -6,-8 -6,-13 0,-3 1,-5 2,-8 2,-2 4,-4 6,-6 2,-1 4,-3 7,-3 2,-1 5,-1 10,-2 8,-1 14,-2 18,-3 0,-2 0,-3 0,-3 0,-4 -1,-7 -3,-9 -2,-2 -6,-4 -12,-4 -5,0 -8,1 -11,3 -2,2 -4,5 -5,9l-10 -1c1,-5 3,-8 5,-11 2,-3 5,-5 9,-6 4,-2 9,-2 14,-2 5,0 9,0 13,2 3,1 5,2 7,4 1,2 3,5 3,7 1,2 1,5 1,10l0 14c0,9 0,16 0,18 1,3 2,5 3,8l-11 0c-1,-3 -2,-5 -2,-8zm-1 -23c-4,1 -9,3 -17,4 -4,0 -7,1 -9,2 -2,0 -3,2 -4,3 -1,2 -2,3 -2,5 0,3 1,5 4,7 2,2 5,3 9,3 4,0 7,-1 11,-3 3,-2 5,-4 6,-7 2,-2 2,-6 2,-10l0 -4z"/>
   <path id="17" class="fil3" d="M2615 1123l2 9c-3,1 -6,1 -8,1 -4,0 -7,0 -9,-1 -2,-2 -3,-3 -4,-5 -1,-2 -1,-6 -1,-12l0 -36 -8 0 0 -8 8 0 0 -15 10 -6 0 21 10 0 0 8 -10 0 0 36c0,3 0,5 0,6 1,1 1,1 2,2 1,0 2,1 4,1 1,0 2,0 4,-1z"/>
   <path id="18" class="fil3" d="M2668 1113l10 1c-1,6 -4,11 -9,15 -5,3 -10,5 -18,5 -9,0 -16,-3 -21,-8 -5,-6 -8,-14 -8,-24 0,-10 3,-18 8,-24 5,-5 12,-8 21,-8 8,0 15,3 20,8 5,6 8,14 8,24 0,0 0,1 0,2l-46 0c0,7 2,12 6,16 3,4 7,5 12,5 4,0 7,-1 10,-3 3,-2 5,-5 7,-9zm-35 -17l35 0c-1,-5 -2,-9 -4,-12 -4,-4 -8,-6 -13,-6 -5,0 -9,2 -12,5 -3,3 -5,8 -6,13z"/>
   <path class="fil0" d="M4308 570l81 120 -61 0 -81 -119 0 0 0 -51 50 0c30,0 49,-13 57,-29 2,-4 3,-8 4,-12l-162 0 0 -37 153 0c-10,-12 -27,-21 -52,-21l-101 0 0 -50 240 0 0 36 -51 0c6,7 11,15 15,22 2,5 3,9 5,13l31 0 0 37 -27 0c-1,11 -4,22 -9,33 -15,31 -46,55 -92,58z"/>
   <path class="fil3" d="M4264 970l11 3c-2,10 -6,17 -12,21 -7,5 -14,8 -23,8 -9,0 -16,-2 -22,-6 -6,-4 -10,-9 -13,-16 -3,-7 -5,-15 -5,-23 0,-9 2,-16 5,-23 4,-7 9,-11 15,-15 6,-3 13,-5 20,-5 9,0 16,2 22,6 5,5 10,11 12,19l-11 2c-2,-6 -5,-10 -9,-13 -4,-3 -8,-4 -14,-4 -6,0 -12,1 -16,4 -5,3 -8,8 -9,13 -2,5 -3,11 -3,16 0,7 1,14 3,19 2,5 5,9 10,12 4,3 9,4 14,4 6,0 12,-2 16,-5 4,-4 7,-9 9,-17z"/>
   <path id="1" class="fil3" d="M4284 969c0,-11 3,-19 9,-25 6,-4 12,-7 20,-7 8,0 15,3 20,9 6,5 8,13 8,23 0,7 -1,14 -3,18 -2,5 -6,8 -10,11 -5,2 -10,4 -15,4 -9,0 -16,-3 -21,-9 -5,-5 -8,-13 -8,-24zm11 0c0,8 1,14 5,18 3,4 7,6 13,6 5,0 9,-2 13,-6 3,-4 5,-10 5,-18 0,-7 -2,-13 -5,-17 -4,-4 -8,-6 -13,-6 -6,0 -10,2 -13,6 -4,4 -5,10 -5,17z"/>
   <path id="2" class="fil3" d="M4350 982l10 -2c0,4 2,7 5,10 2,2 6,3 11,3 5,0 8,-1 10,-3 3,-2 4,-4 4,-7 0,-2 -1,-4 -3,-5 -2,-1 -5,-2 -11,-4 -7,-2 -13,-3 -16,-5 -3,-1 -5,-3 -6,-6 -2,-2 -3,-5 -3,-8 0,-3 1,-5 2,-8 1,-2 3,-4 5,-5 2,-1 4,-3 7,-3 3,-1 6,-2 9,-2 5,0 9,1 13,3 3,1 6,3 8,5 1,3 3,6 3,10l-10 1c0,-3 -2,-6 -4,-7 -2,-2 -5,-3 -9,-3 -5,0 -9,1 -11,2 -2,2 -3,4 -3,6 0,1 1,2 2,4 0,1 2,2 4,2 1,1 4,2 9,3 7,2 12,4 15,5 3,1 5,3 7,5 2,3 3,6 3,9 0,4 -1,7 -3,10 -3,3 -5,5 -9,7 -4,2 -8,3 -13,3 -8,0 -14,-2 -18,-5 -5,-4 -7,-9 -8,-15z"/>
   <path id="3" class="fil3" d="M4436 991l1 9c-3,1 -6,1 -8,1 -4,0 -7,-1 -9,-2 -2,-1 -3,-3 -4,-4 -1,-2 -1,-7 -1,-13l0 -35 -8 0 0 -8 8 0 0 -15 10 -7 0 22 11 0 0 8 -11 0 0 36c0,3 0,5 1,6 0,0 1,1 1,2 1,0 2,0 4,0 1,0 3,0 5,0z"/>
   <path id="4" class="fil3" d="M4141 1105l10 -1c1,5 2,8 4,11 1,3 4,5 8,6 4,2 8,3 13,3 4,0 8,-1 11,-2 4,-1 6,-3 8,-5 1,-2 2,-5 2,-7 0,-3 -1,-5 -2,-7 -2,-2 -4,-4 -8,-5 -2,-1 -7,-3 -15,-5 -8,-1 -13,-3 -16,-5 -4,-2 -7,-5 -9,-8 -2,-3 -3,-6 -3,-10 0,-5 1,-9 3,-12 3,-4 6,-7 11,-9 5,-2 10,-3 16,-3 6,0 11,1 16,3 5,2 9,5 11,9 3,4 4,9 4,14l-10 0c-1,-5 -3,-9 -6,-12 -4,-2 -8,-4 -15,-4 -7,0 -12,1 -15,4 -3,2 -4,5 -4,9 0,3 1,6 3,7 2,2 8,4 17,7 9,2 15,3 19,5 4,2 8,5 10,9 3,3 4,7 4,12 0,4 -1,8 -4,12 -2,4 -6,7 -11,10 -5,2 -10,3 -16,3 -8,0 -14,-1 -20,-3 -5,-3 -9,-6 -12,-10 -3,-5 -4,-10 -4,-16z"/>
   <path id="5" class="fil3" d="M4262 1125c-4,3 -8,5 -11,7 -4,1 -7,2 -12,2 -6,0 -12,-2 -15,-5 -4,-3 -6,-8 -6,-13 0,-3 1,-5 2,-8 2,-2 4,-4 6,-6 2,-1 5,-3 7,-3 2,-1 5,-1 10,-2 8,-1 14,-2 18,-3 0,-2 0,-3 0,-3 0,-4 -1,-7 -3,-9 -2,-2 -6,-4 -12,-4 -4,0 -8,1 -10,3 -3,2 -5,5 -6,9l-10 -1c1,-5 3,-8 5,-11 2,-3 5,-5 9,-6 4,-2 9,-2 14,-2 5,0 9,0 13,2 3,1 5,2 7,4 2,2 3,5 3,7 1,2 1,5 1,10l0 14c0,9 0,16 0,18 1,3 2,5 3,8l-11 0c-1,-3 -2,-5 -2,-8zm-1 -23c-4,1 -9,3 -17,4 -4,0 -7,1 -9,2 -2,0 -3,2 -4,3 -1,2 -1,3 -1,5 0,3 1,5 3,7 2,2 5,3 9,3 4,0 7,-1 11,-3 3,-2 5,-4 7,-7 1,-2 1,-6 1,-10l0 -4z"/>
   <path id="6" class="fil3" d="M4305 1133l-24 -62 12 0 13 37c1,4 2,8 4,12 1,-3 2,-7 4,-11l13 -38 11 0 -23 62 -10 0z"/>
   <path id="7" class="fil3" d="M4347 1060l0 -12 10 0 0 12 -10 0zm0 73l0 -62 10 0 0 62 -10 0z"/>
   <path id="8" class="fil3" d="M4373 1133l0 -62 10 0 0 9c4,-7 11,-10 19,-10 4,0 7,0 10,2 4,1 6,3 7,5 2,2 3,5 4,8 0,2 0,5 0,10l0 38 -10 0 0 -38c0,-4 -1,-7 -1,-9 -1,-2 -3,-4 -5,-5 -2,-2 -4,-2 -7,-2 -4,0 -8,1 -11,4 -4,3 -5,8 -5,16l0 34 -11 0z"/>
   <path id="9" class="fil3" d="M4437 1138l10 1c1,3 2,5 4,7 2,2 6,3 11,3 4,0 8,-1 11,-3 2,-2 4,-5 5,-8 1,-2 1,-7 1,-14 -5,6 -10,9 -17,9 -9,0 -15,-4 -20,-10 -5,-6 -7,-13 -7,-22 0,-5 1,-11 3,-16 2,-5 6,-9 10,-11 4,-3 8,-4 14,-4 7,0 13,3 18,9l0 -8 9 0 0 53c0,10 -1,16 -3,20 -2,4 -5,8 -9,10 -4,2 -9,3 -15,3 -8,0 -14,-1 -18,-5 -5,-3 -7,-8 -7,-14zm9 -37c0,8 1,14 5,17 3,4 7,6 12,6 4,0 8,-2 12,-6 3,-3 5,-9 5,-17 0,-7 -2,-13 -5,-17 -4,-4 -8,-6 -12,-6 -5,0 -9,2 -12,6 -4,4 -5,9 -5,17z"/>
   <path class="fil0" d="M605 690c-11,0 -22,-4 -30,-12l-107 -107c-17,-16 -17,-43 0,-60 17,-17 44,-17 60,0l77 76 204 -204c17,-16 44,-16 60,0 17,17 17,44 0,60l-234 235c-8,8 -19,12 -30,12z"/>
  </g>
 </g>
</svg>
