<?xml version="1.0" encoding="UTF-8"?>
<!DOCTYPE svg PUBLIC "-//W3C//DTD SVG 1.1//EN" "http://www.w3.org/Graphics/SVG/1.1/DTD/svg11.dtd">
<!-- Creator: CorelDRAW X8 -->
<svg xmlns="http://www.w3.org/2000/svg" xml:space="preserve" width="2.79895in" height="3in" version="1.1" style="shape-rendering:geometricPrecision; text-rendering:geometricPrecision; image-rendering:optimizeQuality; fill-rule:evenodd; clip-rule:evenodd"
viewBox="0 0 747 801"
 xmlns:xlink="http://www.w3.org/1999/xlink">
 <defs>
  <style type="text/css">
   <![CDATA[
    .fil1 {fill:#FEFEFE}
    .fil0 {fill:#1A237E}
    .fil4 {fill:#FEFEFE;fill-rule:nonzero}
    .fil2 {fill:#606062;fill-rule:nonzero}
    .fil3 {fill:#1A237E;fill-rule:nonzero}
   ]]>
  </style>
 </defs>
 <g id="Layer_x0020_1">
  <metadata id="CorelCorpID_0Corel-Layer"/>
  <g id="_2490688691104">
   <path class="fil0" d="M76 93l475 0c41,0 75,34 75,76l0 632 -626 0 0 -632c0,-42 34,-76 76,-76z"/>
   <path class="fil1" d="M95 123l436 0c38,0 69,31 69,69l0 579 -574 0 0 -579c0,-38 31,-69 69,-69z"/>
   <path class="fil2" d="M226 505l7 0 0 20c0,4 1,6 1,7 0,1 1,3 2,4 1,0 3,1 5,1 2,0 4,0 5,-1 1,-1 2,-2 2,-4 0,-1 0,-3 0,-6l0 -21 8 0 0 20c0,4 0,8 -1,9 0,2 -1,4 -2,5 -1,2 -2,3 -4,3 -2,1 -5,2 -8,2 -3,0 -6,-1 -8,-2 -2,-1 -3,-2 -4,-3 -2,-1 -2,-3 -3,-4 0,-2 0,-6 0,-10l0 -20z"/>
   <path id="1" class="fil2" d="M264 515l7 0 0 4c1,-1 2,-2 3,-3 2,-1 4,-1 5,-1 4,0 6,1 9,3 2,3 3,6 3,11 0,5 -1,8 -3,11 -3,2 -5,4 -9,4 -1,0 -3,-1 -4,-1 -1,-1 -2,-2 -4,-3l0 13 -7 0 0 -38zm7 14c0,3 1,5 2,7 1,1 3,2 4,2 2,0 4,-1 5,-2 1,-2 1,-4 1,-7 0,-3 0,-5 -1,-7 -1,-1 -3,-2 -5,-2 -1,0 -3,1 -4,2 -1,2 -2,4 -2,7z"/>
   <path id="2" class="fil2" d="M322 543l-7 0 0 -4c-1,1 -2,3 -4,3 -1,1 -3,2 -4,2 -3,0 -6,-2 -8,-4 -3,-3 -4,-6 -4,-11 0,-5 1,-8 3,-11 3,-2 5,-3 9,-3 3,0 6,1 8,3l0 -13 7 0 0 38zm-19 -15c0,3 0,6 1,7 1,2 3,3 5,3 1,0 3,-1 4,-2 1,-2 2,-4 2,-7 0,-3 -1,-5 -2,-7 -1,-1 -2,-2 -4,-2 -2,0 -3,1 -5,2 -1,2 -1,4 -1,6z"/>
   <path id="3" class="fil2" d="M335 524l-7 -1c1,-3 2,-5 4,-6 2,-2 5,-2 8,-2 3,0 6,0 7,1 2,1 3,2 4,3 0,1 1,3 1,6l0 9c0,2 0,4 0,5 0,1 1,3 1,4l-7 0c0,-1 0,-1 -1,-2 0,-1 0,-1 0,-1 -1,1 -2,2 -4,3 -1,0 -3,1 -4,1 -3,0 -5,-1 -7,-3 -2,-1 -3,-3 -3,-6 0,-1 1,-3 2,-4 0,-1 1,-2 3,-3 1,0 3,-1 6,-1 3,-1 5,-2 7,-2l0 -1c0,-1 -1,-2 -1,-3 -1,-1 -2,-1 -4,-1 -2,0 -3,0 -3,1 -1,0 -2,1 -2,3zm10 6c-1,0 -3,0 -5,1 -2,0 -3,1 -4,1 -1,1 -1,2 -1,3 0,1 0,2 1,2 1,1 2,1 3,1 1,0 2,0 4,-1 0,-1 1,-1 1,-2 1,-1 1,-2 1,-4l0 -1z"/>
   <path id="4" class="fil2" d="M372 515l0 6 -5 0 0 11c0,2 0,4 0,4 0,1 0,1 0,1 1,0 1,0 2,0 0,0 1,0 3,0l0 5c-1,1 -3,2 -6,2 -1,0 -2,-1 -3,-1 -1,-1 -2,-1 -2,-2 -1,-1 -1,-1 -1,-3 -1,-1 -1,-2 -1,-5l0 -12 -3 0 0 -6 3 0 0 -5 8 -5 0 10 5 0z"/>
   <path id="5" class="fil2" d="M393 534l7 1c-1,3 -2,5 -4,6 -2,2 -5,3 -8,3 -5,0 -8,-2 -11,-5 -1,-3 -2,-6 -2,-10 0,-4 1,-8 3,-11 3,-2 6,-3 9,-3 4,0 8,1 10,4 2,2 4,7 4,12l-19 0c0,2 1,4 2,5 1,1 2,2 4,2 1,0 2,0 3,-1 1,0 1,-1 2,-3zm0 -7c0,-2 0,-4 -1,-5 -1,-1 -3,-2 -4,-2 -2,0 -3,1 -4,2 -1,1 -2,3 -2,5l11 0z"/>
   <path class="fil2" d="M129 644c-1,1 -3,2 -4,3 -1,0 -3,0 -4,0 -3,0 -5,0 -6,-2 -2,-1 -2,-2 -2,-4 0,-1 0,-2 1,-3 0,-1 1,-2 2,-3 0,0 1,-1 2,-1 1,0 2,0 4,-1 3,0 5,0 7,-1 0,0 0,-1 0,-1 0,-1 -1,-3 -1,-3 -1,-1 -3,-2 -5,-2 -2,0 -3,1 -4,1 -1,1 -1,2 -2,4l-4 -1c1,-1 1,-3 2,-4 1,-1 2,-1 4,-2 1,-1 3,-1 5,-1 2,0 3,0 5,1 1,0 2,1 2,2 1,0 1,1 2,2 0,1 0,2 0,4l0 5c0,4 0,6 0,7 0,1 1,2 1,3l-4 0c0,-1 -1,-2 -1,-3zm0 -9c-2,1 -4,1 -7,2 -1,0 -2,0 -3,0 -1,1 -1,1 -2,2 0,0 0,1 0,2 0,1 0,1 1,2 1,1 2,1 4,1 1,0 2,0 4,-1 1,0 2,-1 2,-2 1,-1 1,-3 1,-4l0 -2z"/>
   <path id="1" class="fil2" d="M151 647l0 -23 4 0 0 3c1,-3 4,-4 7,-4 1,0 3,0 4,1 1,0 2,1 2,2 1,1 1,2 2,3 0,1 0,2 0,4l0 14 -4 0 0 -14c0,-2 0,-3 0,-4 -1,-1 -1,-1 -2,-2 -1,0 -2,0 -3,0 -1,0 -3,0 -4,1 -1,1 -2,3 -2,6l0 13 -4 0z"/>
   <path id="2" class="fil2" d="M192 639l4 1c-1,2 -2,4 -4,5 -2,2 -4,2 -6,2 -4,0 -6,-1 -8,-3 -2,-2 -3,-5 -3,-9 0,-3 1,-6 3,-9 2,-2 4,-3 7,-3 3,0 6,1 8,3 2,2 3,5 3,9 0,0 0,1 0,1l-17 0c0,3 0,5 2,6 1,1 3,2 5,2 1,0 2,0 3,-1 1,-1 2,-2 3,-4zm-13 -6l13 0c0,-2 -1,-3 -2,-4 -1,-2 -3,-3 -5,-3 -1,0 -3,1 -4,2 -1,1 -2,3 -2,5z"/>
   <path id="3" class="fil2" d="M205 647l-7 -23 4 0 4 13 1 5c0,0 0,-2 1,-5l4 -13 4 0 3 13 1 4 2 -4 4 -13 3 0 -7 23 -4 0 -3 -14 -1 -4 -5 18 -4 0z"/>
   <path id="4" class="fil2" d="M246 647l0 -20 -3 0 0 -3 3 0 0 -3c0,-1 0,-2 0,-3 1,-1 1,-2 2,-3 1,0 3,-1 4,-1 2,0 3,1 4,1l-1 3c0,0 -1,0 -2,0 -1,0 -2,0 -2,1 -1,0 -1,1 -1,3l0 2 4 0 0 3 -4 0 0 20 -4 0z"/>
   <path id="5" class="fil2" d="M273 639l4 1c0,2 -2,4 -3,5 -2,2 -4,2 -7,2 -3,0 -6,-1 -8,-3 -2,-2 -3,-5 -3,-9 0,-3 1,-6 3,-9 2,-2 5,-3 8,-3 3,0 6,1 7,3 2,2 3,5 3,9 0,0 0,1 0,1l-17 0c0,3 1,5 2,6 2,1 3,2 5,2 2,0 3,0 4,-1 1,-1 2,-2 2,-4zm-13 -6l13 0c0,-2 0,-3 -1,-4 -1,-2 -3,-3 -5,-3 -2,0 -3,1 -5,2 -1,1 -1,3 -2,5z"/>
   <path id="6" class="fil2" d="M297 644c-1,1 -3,2 -4,3 -1,0 -3,0 -4,0 -3,0 -5,0 -6,-2 -1,-1 -2,-2 -2,-4 0,-1 0,-2 1,-3 0,-1 1,-2 2,-3 1,0 1,-1 2,-1 1,0 2,0 4,-1 3,0 5,0 7,-1 0,0 0,-1 0,-1 0,-1 0,-3 -1,-3 -1,-1 -3,-2 -5,-2 -1,0 -3,1 -4,1 -1,1 -1,2 -2,4l-3 -1c0,-1 0,-3 1,-4 1,-1 2,-1 4,-2 1,-1 3,-1 5,-1 2,0 4,0 5,1 1,0 2,1 3,2 0,0 1,1 1,2 0,1 0,2 0,4l0 5c0,4 0,6 0,7 0,1 1,2 1,3l-4 0c0,-1 -1,-2 -1,-3zm0 -9c-1,1 -4,1 -6,2 -2,0 -3,0 -4,0 -1,1 -1,1 -1,2 -1,0 -1,1 -1,2 0,1 0,1 1,2 1,1 2,1 4,1 1,0 3,0 4,-1 1,0 2,-1 2,-2 1,-1 1,-3 1,-4l0 -2z"/>
   <path id="7" class="fil2" d="M315 643l1 4c-1,0 -2,0 -3,0 -1,0 -2,0 -3,-1 -1,0 -2,-1 -2,-1 0,-1 0,-3 0,-5l0 -13 -3 0 0 -3 3 0 0 -6 4 -2 0 8 3 0 0 3 -3 0 0 13c0,1 0,2 0,2 0,1 0,1 0,1 1,0 1,0 2,0 0,0 1,0 1,0z"/>
   <path id="8" class="fil2" d="M334 647l0 -4c-1,3 -4,4 -7,4 -1,0 -3,0 -4,-1 -1,0 -2,-1 -2,-1 -1,-1 -1,-2 -2,-3 0,-1 0,-2 0,-4l0 -14 4 0 0 12c0,3 0,4 0,5 1,1 1,1 2,2 1,1 2,1 3,1 1,0 2,0 3,-1 1,-1 2,-1 2,-2 1,-1 1,-3 1,-5l0 -12 4 0 0 23 -4 0z"/>
   <path id="9" class="fil2" d="M344 647l0 -23 4 0 0 3c0,-1 1,-2 2,-3 1,-1 2,-1 3,-1 1,0 2,1 4,1l-2 4c-1,0 -2,-1 -3,-1 -1,0 -1,1 -2,1 -1,1 -1,1 -1,2 -1,2 -1,3 -1,5l0 12 -4 0z"/>
   <path id="10" class="fil2" d="M375 639l4 1c-1,2 -2,4 -4,5 -2,2 -4,2 -6,2 -4,0 -7,-1 -8,-3 -2,-2 -3,-5 -3,-9 0,-3 1,-6 3,-9 2,-2 4,-3 7,-3 3,0 6,1 8,3 2,2 3,5 3,9 0,0 0,1 0,1l-17 0c0,3 0,5 2,6 1,1 3,2 5,2 1,0 2,0 3,-1 1,-1 2,-2 3,-4zm-13 -6l13 0c-1,-2 -1,-3 -2,-4 -1,-2 -3,-3 -5,-3 -1,0 -3,1 -4,2 -1,1 -2,3 -2,5z"/>
   <path id="11" class="fil2" d="M411 644c-1,1 -3,2 -4,3 -2,0 -3,0 -4,0 -3,0 -5,0 -6,-2 -2,-1 -2,-2 -2,-4 0,-1 0,-2 0,-3 1,-1 2,-2 2,-3 1,0 2,-1 3,-1 1,0 2,0 4,-1 3,0 5,0 7,-1 0,0 0,-1 0,-1 0,-1 -1,-3 -1,-3 -1,-1 -3,-2 -5,-2 -2,0 -3,1 -4,1 -1,1 -1,2 -2,4l-4 -1c1,-1 1,-3 2,-4 1,-1 2,-1 3,-2 2,-1 4,-1 6,-1 2,0 3,0 5,1 1,0 2,1 2,2 1,0 1,1 1,2 1,1 1,2 1,4l0 5c0,4 0,6 0,7 0,1 0,2 1,3l-4 0c-1,-1 -1,-2 -1,-3zm0 -9c-2,1 -4,1 -7,2 -1,0 -2,0 -3,0 -1,1 -1,1 -2,2 0,0 0,1 0,2 0,1 0,1 1,2 1,1 2,1 3,1 2,0 3,0 4,-1 2,0 3,-1 3,-2 0,-1 1,-3 1,-4l0 -2z"/>
   <path id="12" class="fil2" d="M436 647l0 -3c-2,2 -4,3 -7,3 -2,0 -3,0 -5,-1 -1,-1 -3,-3 -4,-4 0,-2 -1,-4 -1,-7 0,-2 1,-4 1,-6 1,-2 2,-3 4,-4 1,-1 3,-2 5,-2 1,0 3,1 4,1 1,1 2,1 2,2l0 -11 4 0 0 32 -3 0zm-13 -12c0,3 1,5 2,7 1,1 3,2 5,2 1,0 3,-1 4,-2 1,-1 2,-4 2,-6 0,-4 -1,-6 -2,-7 -1,-2 -3,-3 -5,-3 -1,0 -3,1 -4,3 -1,1 -2,3 -2,6z"/>
   <path id="13" class="fil2" d="M460 647l0 -3c-1,2 -3,3 -6,3 -2,0 -4,0 -5,-1 -2,-1 -3,-3 -4,-4 -1,-2 -1,-4 -1,-7 0,-2 0,-4 1,-6 1,-2 2,-3 4,-4 1,-1 3,-2 5,-2 1,0 2,1 3,1 1,1 2,1 3,2l0 -11 4 0 0 32 -4 0zm-12 -12c0,3 1,5 2,7 1,1 3,2 4,2 2,0 3,-1 5,-2 1,-1 1,-4 1,-6 0,-4 0,-6 -1,-7 -2,-2 -3,-3 -5,-3 -2,0 -3,1 -4,3 -1,1 -2,3 -2,6z"/>
   <path id="14" class="fil2" d="M486 639l4 1c-1,2 -2,4 -4,5 -1,2 -4,2 -6,2 -4,0 -6,-1 -8,-3 -2,-2 -3,-5 -3,-9 0,-3 1,-6 3,-9 2,-2 4,-3 8,-3 3,0 5,1 7,3 2,2 3,5 3,9 0,0 0,1 0,1l-17 0c0,3 1,5 2,6 1,1 3,2 5,2 1,0 2,0 3,-1 1,-1 2,-2 3,-4zm-13 -6l13 0c0,-2 -1,-3 -2,-4 -1,-2 -2,-3 -4,-3 -2,0 -4,1 -5,2 -1,1 -2,3 -2,5z"/>
   <path id="15" class="fil2" d="M510 647l0 -3c-2,2 -4,3 -7,3 -2,0 -3,0 -5,-1 -1,-1 -2,-3 -3,-4 -1,-2 -2,-4 -2,-7 0,-2 1,-4 2,-6 0,-2 1,-3 3,-4 2,-1 3,-2 5,-2 2,0 3,1 4,1 1,1 2,1 3,2l0 -11 3 0 0 32 -3 0zm-13 -12c0,3 1,5 2,7 2,1 3,2 5,2 1,0 3,-1 4,-2 1,-1 2,-4 2,-6 0,-4 -1,-6 -2,-7 -1,-2 -3,-3 -4,-3 -2,0 -4,1 -5,3 -1,1 -2,3 -2,6z"/>
   <path id="16" class="fil2" d="M204 693l1 3c-1,1 -2,1 -3,1 -2,0 -3,0 -4,-1 0,0 -1,-1 -1,-2 0,0 -1,-2 -1,-4l0 -14 -3 0 0 -3 3 0 0 -5 4 -3 0 8 4 0 0 3 -4 0 0 14c0,1 0,2 0,2 1,0 1,1 1,1 0,0 1,0 1,0 1,0 1,0 2,0z"/>
   <path id="17" class="fil2" d="M207 685c0,-4 1,-7 3,-10 2,-1 5,-2 7,-2 4,0 6,1 8,3 2,2 3,5 3,9 0,3 0,5 -1,7 -1,1 -2,3 -4,4 -2,0 -4,1 -6,1 -3,0 -5,-1 -7,-3 -2,-2 -3,-5 -3,-9zm4 0c0,3 0,5 2,7 1,1 2,2 4,2 2,0 4,-1 5,-2 2,-2 2,-4 2,-7 0,-3 0,-5 -2,-7 -1,-1 -3,-2 -5,-2 -2,0 -3,1 -4,2 -2,2 -2,4 -2,7z"/>
   <path id="18" class="fil2" d="M254 693l0 3c-1,1 -2,1 -3,1 -1,0 -2,0 -3,-1 -1,0 -1,-1 -2,-2 0,0 0,-2 0,-4l0 -14 -3 0 0 -3 3 0 0 -5 4 -3 0 8 4 0 0 3 -4 0 0 14c0,1 0,2 0,2 0,0 0,1 1,1 0,0 0,0 1,0 0,0 1,0 2,0z"/>
   <path id="19" class="fil2" d="M258 696l0 -31 3 0 0 11c2,-2 5,-3 7,-3 2,0 3,0 5,1 1,1 2,2 2,3 1,1 1,3 1,5l0 14 -4 0 0 -14c0,-2 0,-3 -1,-4 -1,-1 -2,-2 -4,-2 -1,0 -2,1 -3,1 -1,1 -2,2 -2,3 0,1 -1,2 -1,4l0 12 -3 0z"/>
   <path id="20" class="fil2" d="M298 689l4 1c-1,2 -2,4 -4,5 -1,1 -3,2 -6,2 -3,0 -6,-1 -8,-3 -2,-2 -3,-5 -3,-9 0,-4 1,-7 3,-9 2,-2 5,-3 8,-3 3,0 5,1 7,3 2,2 3,5 3,9 0,0 0,0 0,1l-17 0c0,2 1,4 2,6 1,1 3,2 5,2 1,0 3,-1 4,-1 1,-1 1,-2 2,-4zm-13 -6l13 0c0,-2 -1,-4 -1,-5 -2,-1 -3,-2 -5,-2 -2,0 -4,1 -5,2 -1,1 -2,3 -2,5z"/>
   <path id="21" class="fil2" d="M335 684l0 -4 13 0 0 12c-2,2 -4,3 -6,4 -2,1 -5,1 -7,1 -3,0 -6,-1 -9,-2 -2,-1 -4,-3 -5,-6 -2,-2 -2,-5 -2,-8 0,-3 0,-6 2,-9 1,-3 3,-5 5,-6 3,-1 6,-2 9,-2 2,0 4,0 6,1 2,1 3,2 4,3 1,2 2,3 3,6l-4 1c-1,-2 -1,-3 -2,-4 -1,-1 -2,-2 -3,-2 -1,-1 -3,-1 -4,-1 -2,0 -4,0 -5,1 -2,0 -3,1 -4,2 -1,1 -1,2 -2,3 0,2 -1,4 -1,6 0,3 1,6 2,8 1,2 2,3 4,4 2,1 4,1 6,1 2,0 3,0 5,-1 2,-1 3,-1 4,-2l0 -6 -9 0z"/>
   <path id="22" class="fil2" d="M354 669l0 -4 4 0 0 4 -4 0zm0 27l0 -23 4 0 0 23 -4 0z"/>
   <path id="23" class="fil2" d="M379 696l0 -2c-2,2 -4,3 -7,3 -2,0 -3,-1 -5,-2 -1,-1 -3,-2 -3,-4 -1,-2 -2,-4 -2,-6 0,-2 1,-4 1,-6 1,-2 2,-4 4,-5 1,-1 3,-1 5,-1 1,0 3,0 4,1 1,0 2,1 2,2l0 -11 4 0 0 31 -3 0zm-13 -11c0,3 1,5 2,7 1,1 3,2 5,2 1,0 3,-1 4,-2 1,-2 2,-4 2,-7 0,-3 -1,-5 -2,-7 -1,-1 -3,-2 -5,-2 -1,0 -3,1 -4,2 -1,2 -2,4 -2,7z"/>
   <path id="24" class="fil2" d="M403 696l0 -2c-1,2 -3,3 -6,3 -2,0 -4,-1 -5,-2 -2,-1 -3,-2 -4,-4 -1,-2 -1,-4 -1,-6 0,-2 0,-4 1,-6 1,-2 2,-4 4,-5 1,-1 3,-1 5,-1 1,0 2,0 4,1 1,0 1,1 2,2l0 -11 4 0 0 31 -4 0zm-12 -11c0,3 1,5 2,7 1,1 3,2 4,2 2,0 4,-1 5,-2 1,-2 2,-4 2,-7 0,-3 -1,-5 -2,-7 -2,-1 -3,-2 -5,-2 -2,0 -3,1 -4,2 -1,2 -2,4 -2,7z"/>
   <path id="25" class="fil2" d="M413 696l0 -31 4 0 0 11c2,-2 4,-3 7,-3 2,0 3,0 4,1 2,1 3,2 3,3 1,1 1,3 1,5l0 14 -4 0 0 -14c0,-2 0,-3 -1,-4 -1,-1 -2,-2 -4,-2 -1,0 -2,1 -3,1 -1,1 -2,2 -2,3 -1,1 -1,2 -1,4l0 12 -4 0z"/>
   <g>
    <path class="fil3" d="M405 372c0,7 -5,13 -12,13l-160 0c-7,0 -12,-6 -12,-13l0 -96 90 73c0,1 1,1 2,1 1,0 2,0 3,-1l69 -57c2,-1 2,-4 1,-5 -2,-2 -4,-2 -6,-1l-67 55 -85 -70 177 0 0 101zm8 0l0 -105c0,-2 -1,-4 -3,-4l-193 0c-3,0 -4,2 -4,4l0 105c0,11 9,21 20,21l160 0c11,0 20,-10 20,-21z"/>
    <path class="fil3" d="M393 285c1,0 1,0 2,-1l1 -1c2,-1 2,-4 1,-5 -1,-2 -4,-2 -6,-1l-1 1c-2,1 -2,4 0,6 0,1 1,1 3,1z"/>
   </g>
   <circle class="fil0" cx="402" cy="381" r="48"/>
   <path class="fil4" d="M410 400l-7 0 0 -27c-3,2 -6,4 -10,5l0 -7c2,0 4,-1 7,-3 2,-2 3,-4 4,-6l6 0 0 38z"/>
   <circle class="fil0" cx="615" cy="132" r="132"/>
   <g>
    <path class="fil1" d="M580 183c19,13 43,14 63,4 27,-16 37,-40 31,-70 2,-1 4,-1 6,-2 1,0 3,-1 5,-1 7,25 -1,53 -20,71 -25,24 -64,27 -93,7 -2,2 -5,5 -7,8 -2,-11 -5,-21 -7,-31 11,2 21,4 31,6 -3,2 -6,5 -9,8z"/>
    <path class="fil1" d="M655 72c3,-3 6,-6 9,-9 2,10 4,20 6,31 -10,-2 -20,-4 -30,-6 2,-3 5,-5 7,-7l0 -1c-21,-11 -42,-12 -62,-1 -26,16 -36,39 -30,69 -3,1 -7,2 -11,3 -7,-26 1,-54 22,-73 25,-22 62,-24 89,-6z"/>
   </g>
  </g>
 </g>
</svg>
