<?xml version="1.0" encoding="UTF-8"?>
<!DOCTYPE svg PUBLIC "-//W3C//DTD SVG 1.1//EN" "http://www.w3.org/Graphics/SVG/1.1/DTD/svg11.dtd">
<!-- Creator: CorelDRAW X8 -->
<svg xmlns="http://www.w3.org/2000/svg" xml:space="preserve" width="5.36092in" height="3in" version="1.1" style="shape-rendering:geometricPrecision; text-rendering:geometricPrecision; image-rendering:optimizeQuality; fill-rule:evenodd; clip-rule:evenodd"
viewBox="0 0 1292 723"
 xmlns:xlink="http://www.w3.org/1999/xlink">
 <defs>
  <style type="text/css">
   <![CDATA[
    .str1 {stroke:#1A237E;stroke-width:8.36918}
    .str0 {stroke:#1A237E;stroke-width:10.4604}
    .fil5 {fill:none}
    .fil2 {fill:#FEFEFE}
    .fil1 {fill:#1A237E}
    .fil3 {fill:#868EE0}
    .fil0 {fill:white}
    .fil4 {fill:#1A237E;fill-rule:nonzero}
   ]]>
  </style>
 </defs>
 <g id="Layer_x0020_1">
  <metadata id="CorelCorpID_0Corel-Layer"/>
  <g id="_2490672414288">
   <path id="XMLID_109_" class="fil0 str0" d="M1173 654l-1054 0 0 -576c0,-40 32,-73 72,-73l908 0c41,0 74,33 74,74l0 575 0 0z"/>
   <path id="XMLID_111_" class="fil1" d="M1223 723l-1155 0c-37,0 -68,-31 -68,-69l1292 0c0,38 -31,69 -69,69z"/>
   <path id="XMLID_110_" class="fil2" d="M756 664l-220 0c-5,0 -9,-4 -9,-9 0,0 0,0 0,0l239 0c-1,5 -5,9 -10,9z"/>
   <path id="Rectangle_1305" class="fil3" d="M203 47l153 0 0 0 0 600 0 0 -193 0 0 0 0 -560c0,-22 18,-40 40,-40z"/>
   <path class="fil4" d="M396 128l11 -1c0,4 2,8 3,11 2,3 5,5 9,7 4,1 9,2 14,2 4,0 8,0 12,-2 3,-1 6,-3 7,-5 2,-3 3,-5 3,-8 0,-3 -1,-5 -3,-7 -1,-2 -4,-4 -8,-5 -2,-1 -7,-3 -15,-5 -8,-2 -14,-3 -17,-5 -5,-2 -8,-5 -10,-8 -2,-4 -3,-7 -3,-11 0,-5 1,-9 4,-13 2,-4 6,-7 11,-9 5,-2 10,-3 16,-3 7,0 13,1 18,3 5,3 8,6 11,10 3,4 4,8 4,14l-11 1c0,-6 -2,-10 -6,-13 -3,-3 -9,-4 -15,-4 -7,0 -13,1 -16,4 -3,2 -5,5 -5,9 0,3 2,6 4,8 2,2 8,4 17,6 10,2 16,4 20,6 5,2 9,5 11,9 3,3 4,7 4,12 0,5 -1,9 -4,13 -3,5 -7,8 -12,10 -5,2 -10,4 -17,4 -8,0 -14,-2 -20,-4 -5,-2 -9,-6 -12,-10 -3,-5 -5,-10 -5,-16z"/>
   <path id="1" class="fil4" d="M524 135l11 2c-1,6 -5,11 -9,15 -5,4 -11,5 -19,5 -9,0 -16,-2 -22,-8 -5,-6 -8,-14 -8,-24 0,-11 3,-19 8,-25 6,-6 13,-9 22,-9 8,0 15,3 21,8 5,6 8,14 8,25 0,1 0,2 0,3l-48 0c1,7 2,12 6,16 4,4 8,6 13,6 4,0 8,-1 11,-4 2,-2 5,-5 6,-10zm-35 -17l35 0c0,-5 -1,-9 -4,-12 -3,-4 -8,-6 -13,-6 -5,0 -9,1 -13,5 -3,3 -5,7 -5,13z"/>
   <path id="2" class="fil4" d="M591 148c-4,4 -8,6 -12,7 -3,2 -7,2 -12,2 -7,0 -12,-1 -16,-5 -4,-3 -5,-7 -5,-13 0,-3 0,-6 2,-8 1,-3 3,-5 5,-7 3,-1 5,-2 8,-3 2,-1 5,-1 10,-2 8,-1 15,-2 19,-3 0,-2 0,-3 0,-3 0,-5 -1,-8 -3,-10 -3,-2 -7,-3 -12,-3 -5,0 -9,1 -12,2 -2,2 -4,5 -5,10l-11 -2c1,-4 3,-8 5,-11 2,-2 6,-5 10,-6 4,-2 9,-2 14,-2 6,0 10,0 14,2 3,1 6,3 7,4 2,2 3,5 4,8 0,2 0,5 0,10l0 14c0,10 0,17 1,19 0,3 1,6 2,8l-11 0c-1,-2 -2,-5 -2,-8zm-1 -24c-4,2 -10,3 -18,4 -4,1 -7,1 -9,2 -2,1 -3,2 -4,4 -1,1 -2,3 -2,5 0,3 1,5 3,7 3,2 6,3 10,3 4,0 8,-1 11,-3 3,-2 6,-4 7,-7 2,-3 2,-6 2,-11l0 -4z"/>
   <path id="3" class="fil4" d="M618 156l0 -64 9 0 0 10c3,-5 5,-8 7,-9 2,-2 5,-2 7,-2 4,0 8,1 11,3l-3 10c-3,-1 -6,-2 -8,-2 -3,0 -5,1 -7,2 -1,1 -3,3 -4,6 -1,4 -1,8 -1,13l0 33 -11 0z"/>
   <path id="4" class="fil4" d="M701 133l10 1c-1,7 -4,13 -9,17 -4,4 -10,6 -17,6 -9,0 -16,-2 -21,-8 -6,-6 -8,-14 -8,-25 0,-7 1,-13 3,-18 2,-5 6,-9 11,-11 4,-3 9,-4 15,-4 7,0 12,1 17,5 4,3 7,8 8,15l-10 2c-1,-5 -3,-8 -5,-10 -3,-2 -6,-3 -10,-3 -5,0 -10,2 -13,5 -3,4 -5,11 -5,19 0,9 1,15 5,19 3,4 7,6 13,6 4,0 7,-2 10,-4 3,-3 5,-7 6,-12z"/>
   <path id="5" class="fil4" d="M721 156l0 -88 10 0 0 32c5,-6 12,-9 20,-9 4,0 8,1 12,2 3,2 6,5 7,8 2,4 3,8 3,15l0 40 -11 0 0 -40c0,-6 -1,-10 -4,-12 -2,-3 -5,-4 -10,-4 -3,0 -6,1 -9,3 -3,1 -5,3 -6,6 -1,3 -2,7 -2,12l0 35 -10 0z"/>
   <line id="Line_109" class="fil5 str1" x1="394" y1="201" x2="1070" y2= "201" />
   <path id="Path_9170" class="fil3" d="M1053 527l-80 -62c9,-15 14,-33 14,-51 0,-59 -48,-107 -107,-107 -59,0 -107,47 -107,106 0,59 48,107 107,107 31,0 60,-13 81,-36l78 60c2,2 5,3 7,3 4,0 7,-2 9,-5 4,-5 3,-12 -2,-15 0,0 0,0 0,0zm-173 -29c-46,0 -83,-38 -83,-85 0,-46 37,-83 84,-83 46,0 84,38 84,84 0,18 -6,35 -17,49 -15,22 -41,35 -68,35z"/>
   <g>
    <path id="Path_9171" class="fil3" d="M823 430c0,0 -4,-55 37,-70l-37 70zm0 0l0 0 0 0z"/>
   </g>
   <rect id="Rectangle_1341" class="fil3" x="396" y="318" width="309" height="206"/>
   <rect id="Rectangle_1342" class="fil0" x="413" y="335" width="274.418" height="45.8481"/>
  </g>
 </g>
</svg>
