<?xml version="1.0" encoding="UTF-8"?>
<!DOCTYPE svg PUBLIC "-//W3C//DTD SVG 1.1//EN" "http://www.w3.org/Graphics/SVG/1.1/DTD/svg11.dtd">
<!-- Creator: CorelDRAW X8 -->
<svg xmlns="http://www.w3.org/2000/svg" xml:space="preserve" width="2.99803in" height="3in" version="1.1" style="shape-rendering:geometricPrecision; text-rendering:geometricPrecision; image-rendering:optimizeQuality; fill-rule:evenodd; clip-rule:evenodd"
viewBox="0 0 1014 1014"
 xmlns:xlink="http://www.w3.org/1999/xlink">
 <defs>
  <style type="text/css">
   <![CDATA[
    .fil0 {fill:#1A237E}
    .fil1 {fill:#868EE0}
   ]]>
  </style>
 </defs>
 <g id="Layer_x0020_1">
  <metadata id="CorelCorpID_0Corel-Layer"/>
  <g id="_2490682345376">
   <path id="Path_9242" class="fil0" d="M503 1014c-69,0 -137,-15 -200,-44 -156,-73 -254,-193 -291,-358 -10,-44 -14,-90 -11,-135 4,-61 19,-121 43,-177 37,-81 94,-151 166,-203 66,-48 142,-80 222,-91 26,-4 53,-6 79,-6 68,0 136,14 198,42 33,15 65,33 95,54 8,6 8,9 8,12 0,3 -3,6 -7,6 0,0 0,0 0,0 -3,0 -5,-1 -7,-2 -4,-3 -8,-5 -12,-8 -4,-3 -9,-7 -13,-9 -54,-35 -114,-58 -177,-69 -15,-2 -31,-4 -48,-6 -7,-1 -15,-1 -23,-2l-14 -2 0 354c0,5 0,9 -1,13 0,1 0,3 -5,3l-1 0c-3,0 -4,-1 -4,-2 -1,-6 -2,-12 -2,-18 0,-16 0,-33 0,-53 2,-13 -7,-25 -20,-27 -1,0 -2,0 -3,0 -43,-5 -87,-12 -130,-18l-9 -1c-2,0 -4,0 -5,-1 -12,0 -21,9 -22,20 -2,9 -3,17 -5,26 -3,17 -7,34 -9,52 -3,26 -5,52 -7,77 0,10 -1,21 -2,31 0,3 0,5 0,8l0 16 91 0c4,0 8,1 12,3 1,2 2,5 2,8 0,4 -1,9 -13,9l-93 0 0 13c1,6 1,12 1,19 1,14 1,27 3,40 4,34 9,78 16,123 3,18 5,34 26,34 6,0 12,0 18,-2l1 0c29,-4 57,-8 85,-12 14,-2 27,-3 41,-5 2,-1 5,-1 8,-2 1,0 3,0 4,0l10 -2 0 -79c0,-5 1,-9 1,-13 1,-3 1,-3 4,-3l1 0c6,0 6,2 7,4 0,4 0,8 0,11l0 353 13 0c147,-2 285,-73 373,-191 128,-165 116,-360 62,-487l-4 -11 -11 5c-3,1 -5,1 -7,2 -5,2 -10,4 -14,5 -1,1 -3,1 -4,1 0,-1 0,-3 0,-4 1,-10 2,-19 3,-29 1,-4 2,-9 2,-14 2,-13 4,-27 6,-40 1,-1 1,-2 1,-2 0,0 1,0 1,1 27,18 49,34 68,50 1,1 2,2 3,4 -2,1 -4,3 -6,4 -23,10 -25,16 -16,40l0 0c21,53 32,109 32,166 4,116 -33,229 -105,321 -77,102 -191,171 -318,191 -28,5 -57,7 -87,7zm-18 -270c-51,1 -102,8 -151,21l-12 2 3 12c16,64 47,124 91,173 18,19 40,34 65,42l16 6 0 -256 -12 0zm-193 33c-4,0 -8,1 -11,3 -5,2 -10,4 -16,6 -3,2 -5,3 -8,4 -24,9 -46,19 -70,29l-40 16 10 13c1,1 2,3 3,4 2,3 5,6 8,8 4,4 9,8 14,12 12,12 26,23 40,33 40,30 85,53 132,69 7,2 15,4 22,5l9 2 10 2 8 -17 -4 -6c0,-1 -1,-2 -1,-3 -2,-2 -4,-5 -6,-7 -33,-41 -58,-87 -73,-136 -3,-9 -7,-17 -10,-23 -2,-8 -9,-14 -17,-14zm-276 -246c1,5 2,11 2,17 2,12 3,25 5,37 13,79 44,154 93,218 6,8 12,17 24,17l0 0c6,-1 13,-3 18,-6 40,-17 79,-34 117,-50l1 0c18,-8 22,-13 19,-32l-1 -3c-8,-50 -15,-95 -21,-137 -2,-14 -3,-28 -4,-43 -1,-7 -1,-14 -2,-20l0 -12 -253 0 2 14zm124 -337c-10,1 -20,8 -24,17 -42,57 -72,121 -88,190 -8,28 -11,57 -10,85l1 10 9 2c1,0 1,0 2,0 1,1 3,1 4,1l65 0c49,0 99,0 148,0 6,1 13,-2 17,-6 4,-5 7,-12 6,-19 1,-63 9,-126 23,-188 4,-23 1,-29 -20,-38l-2 -1c-38,-15 -75,-31 -112,-47 -6,-3 -12,-5 -19,-6zm340 -174c-3,1 -6,3 -9,4 -7,2 -14,5 -20,10 -18,14 -35,30 -50,47 -34,38 -53,85 -70,131l-1 4c-2,4 -3,7 -4,11 -1,2 -1,4 -2,6l-3 12 11 3c33,9 67,14 102,15 16,1 33,3 49,5l14 1 0 -257 -17 8zm-94 12c-87,23 -166,68 -229,132l-13 12 16 8c7,3 13,6 19,9 13,6 26,12 39,17 13,6 26,11 39,15 8,4 16,7 24,10 3,1 7,2 10,2l0 0c9,0 17,-7 20,-16 1,-3 2,-6 3,-10 2,-4 4,-7 5,-12 17,-51 44,-99 78,-142 1,-2 2,-4 3,-6 0,-1 0,-2 1,-3l8 -22 -23 6z"/>
   <path id="Path_9243" class="fil1" d="M495 558c-31,0 -56,-26 -56,-57 0,-27 19,-51 46,-56 4,0 8,-1 12,-1 13,0 26,5 36,13 9,7 20,12 31,12l3 0c40,-3 81,-7 119,-11 14,-1 27,-3 40,-4 11,-2 22,-3 33,-5l1 0c3,1 6,1 8,1 2,1 3,2 4,4 -1,0 -1,1 -2,1 -8,3 -17,5 -25,7 -4,1 -8,3 -13,4l-34 9c-38,11 -77,22 -116,33 -17,4 -33,16 -43,31 -10,13 -27,21 -44,19l0 0 0 0z"/>
   <path id="Path_9244" class="fil1" d="M666 888c-8,-15 -14,-30 -21,-45 -2,-5 -4,-11 -7,-16 0,-4 2,-7 6,-7 1,-1 2,-1 3,-1 1,0 2,0 2,2 10,19 19,40 28,62 0,0 0,2 -2,3 -3,1 -6,2 -9,2l0 0z"/>
   <path id="Path_9245" class="fil1" d="M847 735c-1,0 -2,-1 -3,-1 -16,-9 -32,-20 -50,-33 -3,-2 -4,-5 -4,-8 -1,-1 0,-2 0,-3 2,-1 4,-2 6,-2 1,0 2,0 2,0l1 0c3,2 6,4 8,5 15,9 30,19 44,29 1,2 1,5 1,8 -1,3 -3,5 -5,5z"/>
   <path id="Path_9246" class="fil1" d="M799 308c-1,0 -2,-2 -4,-4 -3,-4 -2,-6 0,-8 1,-3 3,-5 5,-6l7 -5c12,-8 24,-16 37,-23 1,-1 3,-2 4,-2 4,0 8,3 8,7 0,0 0,0 0,0 -1,2 -2,4 -3,6 -17,12 -34,24 -52,34 -1,0 -1,1 -2,1z"/>
   <path id="Path_9247" class="fil1" d="M646 179c-1,-1 -2,-1 -2,-1 -2,0 -5,-4 -5,-11l0 -1 4 -9c7,-14 13,-29 20,-43 2,-4 3,-4 4,-4 0,0 1,0 2,0 3,1 5,2 8,3 0,3 0,7 -2,9 -6,17 -13,33 -22,49l-3 5c-1,1 -2,2 -4,3z"/>
   <path id="Path_9248" class="fil1" d="M866 510c-4,0 -7,0 -10,-1 -9,0 -10,-3 -10,-6 0,-2 0,-4 0,-6 2,-1 4,-2 6,-2 10,-1 20,-1 33,-1 10,0 20,0 30,1 2,1 3,4 3,6 0,6 -2,7 -3,7 -7,1 -14,1 -21,2l0 0 -20 0c-3,-1 -6,0 -8,0z"/>
  </g>
 </g>
</svg>
