<?xml version="1.0" encoding="UTF-8"?>
<!DOCTYPE svg PUBLIC "-//W3C//DTD SVG 1.1//EN" "http://www.w3.org/Graphics/SVG/1.1/DTD/svg11.dtd">
<!-- Creator: CorelDRAW X8 -->
<svg xmlns="http://www.w3.org/2000/svg" xml:space="preserve" width="4.6255in" height="3in" version="1.1" style="shape-rendering:geometricPrecision; text-rendering:geometricPrecision; image-rendering:optimizeQuality; fill-rule:evenodd; clip-rule:evenodd"
viewBox="0 0 1576 1022"
 xmlns:xlink="http://www.w3.org/1999/xlink">
 <defs>
  <style type="text/css">
   <![CDATA[
    .str0 {stroke:#868EE0;stroke-width:6.7424}
    .fil2 {fill:none}
    .fil0 {fill:#1A237E}
    .fil1 {fill:#868EE0}
    .fil3 {fill:#FEFEFE;fill-rule:nonzero}
    .fil4 {fill:#1A237E;fill-rule:nonzero}
   ]]>
  </style>
 </defs>
 <g id="Layer_x0020_1">
  <metadata id="CorelCorpID_0Corel-Layer"/>
  <g id="_2490586472112">
   <path id="XMLID_68_" class="fil0" d="M1487 254l-1399 0c-10,0 -18,-2 -18,-4l0 -202c0,-3 8,-4 18,-4l1399 0c11,0 19,1 19,4l0 202c0,2 -8,4 -19,4z"/>
   <g>
    <path id="Path_9110" class="fil1" d="M75 367l740 0 -740 0zm0 0l0 0 0 0z"/>
    <path id="1" class="fil2 str0" d="M75 367l740 0m-740 0l0 0 0 0z"/>
   </g>
   <g>
    <path id="Path_9123" class="fil1" d="M983 367l446 0 -446 0zm0 0l0 0 0 0z"/>
    <path id="1" class="fil2 str0" d="M983 367l446 0m-446 0l0 0 0 0z"/>
   </g>
   <g>
    <path id="Path_9120" class="fil1" d="M75 436l740 0 -740 0zm0 0l0 0 0 0z"/>
    <path id="1" class="fil2 str0" d="M75 436l740 0m-740 0l0 0 0 0z"/>
   </g>
   <g>
    <path id="Path_9122" class="fil1" d="M983 436l446 0 -446 0zm0 0l0 0 0 0z"/>
    <path id="1" class="fil2 str0" d="M983 436l446 0m-446 0l0 0 0 0z"/>
   </g>
   <g>
    <path id="Path_9121" class="fil1" d="M75 505l740 0 -740 0zm0 0l0 0 0 0z"/>
    <path id="1" class="fil2 str0" d="M75 505l740 0m-740 0l0 0 0 0z"/>
   </g>
   <rect id="Rectangle_1294" class="fil1" x="81" y="598" width="148" height="380"/>
   <rect id="Rectangle_1295" class="fil1" x="288" y="598" width="680" height="380"/>
   <rect id="Rectangle_1296" class="fil1" x="1264" y="598" width="177" height="380"/>
   <rect id="Rectangle_1297" class="fil1" x="1027" y="598" width="177" height="380"/>
   <polygon class="fil3" points="135,196 135,98 148,98 148,196 "/>
   <path id="1" class="fil3" d="M169 196l0 -71 11 0 0 10c5,-8 13,-12 23,-12 4,0 8,1 12,3 3,1 6,3 8,6 2,2 3,5 3,9 1,2 1,6 1,12l0 43 -12 0 0 -43c0,-5 0,-9 -1,-11 -1,-3 -3,-4 -5,-6 -3,-1 -6,-2 -9,-2 -5,0 -9,2 -13,5 -4,3 -6,9 -6,18l0 39 -12 0z"/>
   <path id="2" class="fil3" d="M265 196l-27 -71 13 0 16 43c1,4 3,9 4,14 1,-4 3,-8 5,-13l16 -44 12 0 -27 71 -12 0z"/>
   <path id="3" class="fil3" d="M310 161c0,-14 4,-23 11,-30 6,-5 14,-8 23,-8 10,0 18,4 24,10 6,6 9,15 9,27 0,9 -1,16 -4,21 -3,6 -7,10 -12,13 -5,3 -11,4 -17,4 -10,0 -18,-3 -25,-10 -6,-6 -9,-15 -9,-27zm13 0c0,9 2,16 6,20 4,5 9,7 15,7 6,0 11,-2 15,-7 4,-4 6,-11 6,-21 0,-8 -2,-15 -6,-20 -4,-4 -9,-7 -15,-7 -6,0 -11,3 -15,7 -4,5 -6,12 -6,21z"/>
   <path id="4" class="fil3" d="M391 112l0 -14 13 0 0 14 -13 0zm0 84l0 -71 13 0 0 71 -13 0z"/>
   <path id="5" class="fil3" d="M469 170l12 2c-2,8 -5,14 -10,19 -6,5 -12,7 -20,7 -10,0 -18,-3 -24,-10 -6,-6 -9,-15 -9,-27 0,-8 2,-14 4,-20 3,-6 7,-10 12,-13 5,-3 11,-5 17,-5 8,0 14,2 19,6 5,4 8,10 10,17l-12 2c-1,-5 -3,-9 -6,-11 -3,-2 -6,-4 -11,-4 -6,0 -11,3 -14,7 -4,4 -6,11 -6,21 0,9 2,16 5,21 4,4 9,6 15,6 5,0 9,-1 12,-4 3,-3 5,-8 6,-14z"/>
   <path id="6" class="fil3" d="M540 173l12 2c-2,7 -5,13 -11,17 -5,4 -12,6 -20,6 -10,0 -19,-3 -25,-10 -6,-6 -9,-15 -9,-27 0,-12 3,-21 9,-28 6,-6 14,-10 24,-10 10,0 18,4 24,10 6,7 9,16 9,28 0,0 0,1 0,3l-54 0c1,8 3,14 7,18 4,4 9,6 15,6 4,0 8,-1 11,-3 3,-3 6,-7 8,-12zm-40 -19l40 0c-1,-6 -2,-11 -5,-14 -4,-4 -9,-7 -15,-7 -5,0 -10,2 -14,6 -3,4 -6,9 -6,15z"/>
   <g>
    <path class="fil4" d="M1506 15l-1437 0 0 -15 1437 0 0 0 0 15zm70 55l-14 0 0 0 0 -3 0 -3 0 -2 -1 -3 -1 -3 0 -2 -1 -3 -1 -2 -1 -3 -1 -2 -2 -2 -1 -3 -2 -2 -1 -2 -2 -2 -2 -2 -2 -2 -2 -1 -2 -2 -2 -2 -3 -1 -2 -1 -2 -2 -3 -1 -2 -1 -3 -1 -3 -1 -2 0 -3 -1 -3 0 -3 0 -3 0 0 -15 4 0 3 0 4 1 3 0 3 1 4 1 3 1 3 1 3 2 3 1 3 2 3 2 2 2 3 2 3 2 2 2 2 3 2 2 3 3 1 3 2 3 2 2 2 3 1 4 1 3 1 3 1 3 1 4 1 3 0 4 0 3 1 4 0 0zm-14 882l0 -882 14 0 0 882 0 0 -14 0zm-56 70l0 -15 0 0 3 0 3 0 3 0 3 -1 2 -1 3 0 3 -1 2 -1 3 -1 2 -2 2 -1 3 -1 2 -2 2 -2 2 -1 2 -2 2 -2 2 -2 1 -2 2 -3 1 -2 2 -2 1 -3 1 -2 1 -2 1 -3 0 -3 1 -2 1 -3 0 -3 0 -2 0 -3 14 0 -1 3 0 4 0 4 -1 3 -1 3 -1 4 -1 3 -1 3 -1 3 -2 3 -2 3 -2 3 -1 3 -3 3 -2 2 -2 3 -2 2 -3 2 -3 2 -2 2 -3 2 -3 2 -3 1 -3 1 -3 2 -3 1 -4 1 -3 0 -3 1 -4 1 -3 0 -4 0 0 0zm-1437 -15l1437 0 0 15 -1437 0 0 0 0 -15zm-69 -55l13 0 0 0 0 3 1 2 0 3 0 3 1 2 1 3 1 3 1 2 1 2 1 3 1 2 2 2 1 3 2 2 2 2 2 2 2 2 2 1 2 2 2 2 2 1 3 1 2 2 2 1 3 1 3 1 2 0 3 1 3 1 3 0 2 0 3 0 0 15 -3 0 -4 0 -3 -1 -3 -1 -4 0 -3 -1 -3 -1 -3 -2 -3 -1 -3 -1 -3 -2 -3 -2 -3 -2 -2 -2 -3 -2 -2 -2 -3 -3 -2 -2 -2 -3 -2 -3 -2 -3 -1 -3 -2 -3 -1 -3 -2 -3 -1 -3 -1 -4 -1 -3 0 -3 -1 -4 0 -4 0 -3 0 0zm13 -882l0 882 -13 0 0 -882 0 0 13 0zm56 -70l0 15 0 0 -3 0 -2 0 -3 0 -3 1 -3 0 -2 1 -3 1 -3 1 -2 1 -2 2 -3 1 -2 1 -2 2 -2 2 -2 1 -2 2 -2 2 -2 2 -2 2 -1 2 -2 3 -1 2 -1 2 -1 3 -1 2 -1 3 -1 2 -1 3 0 3 0 2 -1 3 0 3 -13 0 0 -4 0 -3 1 -4 0 -3 1 -4 1 -3 1 -3 2 -3 1 -4 2 -3 1 -2 2 -3 2 -3 2 -3 2 -2 3 -3 2 -2 3 -2 2 -2 3 -2 3 -2 3 -2 3 -1 3 -2 3 -1 3 -1 3 -1 4 -1 3 0 3 -1 4 0 3 0 0 0z"/>
   </g>
  </g>
 </g>
</svg>
