<?xml version="1.0" encoding="UTF-8"?>
<!DOCTYPE svg PUBLIC "-//W3C//DTD SVG 1.1//EN" "http://www.w3.org/Graphics/SVG/1.1/DTD/svg11.dtd">
<!-- Creator: CorelDRAW X8 -->
<svg xmlns="http://www.w3.org/2000/svg" xml:space="preserve" width="2.43333in" height="3in" version="1.1" style="shape-rendering:geometricPrecision; text-rendering:geometricPrecision; image-rendering:optimizeQuality; fill-rule:evenodd; clip-rule:evenodd"
viewBox="0 0 1346 1659"
 xmlns:xlink="http://www.w3.org/1999/xlink">
 <defs>
  <style type="text/css">
   <![CDATA[
    .fil2 {fill:black}
    .fil0 {fill:#1A237E}
    .fil1 {fill:#868EE0}
    .fil3 {fill:#FEFEFE;fill-rule:nonzero}
   ]]>
  </style>
 </defs>
 <g id="Layer_x0020_1">
  <metadata id="CorelCorpID_0Corel-Layer"/>
  <g id="_2490636603648">
   <path id="Path_21" class="fil0" d="M0 1659l0 -1659 1087 0 259 301 0 1358 -1346 0zm26 -26l1294 0 0 -1301 -285 0 0 -306 -1014 0 0 1607 5 0 0 0zm1040 -1332l254 0 -254 -296 0 296z"/>
   <rect id="Rectangle_143" class="fil1" x="114" y="327" width="767.444" height="18.4357"/>
   <rect id="Rectangle_1337" class="fil1" x="114" y="234" width="767.444" height="18.4357"/>
   <rect id="Rectangle_1338" class="fil1" x="114" y="142" width="767.444" height="18.4331"/>
   <rect id="Rectangle_144" class="fil2" x="169" y="446" width="767.444" height="10.3786"/>
   <rect id="Rectangle_145" class="fil2" x="169" y="565" width="767.444" height="15.558"/>
   <rect id="Rectangle_146" class="fil1" x="104" y="1498" width="748.733" height="18.4331"/>
   <rect id="Rectangle_147" class="fil1" x="169" y="1067" width="78.3472" height="409.592"/>
   <rect id="Rectangle_148" class="fil1" x="509" y="1067" width="78.3472" height="409.592"/>
   <rect id="Rectangle_149" class="fil1" x="679" y="948" width="78.3447" height="528.845"/>
   <rect id="Rectangle_150" class="fil1" x="339" y="902" width="78.3472" height="575.499"/>
   <path id="Path_9146" class="fil1" d="M1049 1105c-92,0 -166,74 -166,165 0,92 74,166 165,166 91,0 166,-74 166,-165 0,0 0,0 0,-1l-165 0 0 -165z"/>
   <path id="Path_9147" class="fil1" d="M1095 1058l0 166 166 0c0,-92 -74,-166 -165,-166 0,0 0,0 -1,0z"/>
   <rect id="Rectangle_1336" class="fil0" x="28" y="440" width="1275" height="299"/>
   <path class="fil3" d="M131 664l0 -159 70 0c14,0 25,2 32,5 7,2 13,7 18,15 4,7 6,15 6,23 0,12 -4,21 -11,29 -7,8 -18,12 -33,15 5,2 9,5 12,7 6,6 12,13 18,22l27 43 -26 0 -21 -33c-6,-10 -11,-17 -15,-22 -4,-5 -8,-9 -11,-11 -3,-2 -6,-3 -9,-4 -3,0 -7,-1 -12,-1l-24 0 0 71 -21 0zm21 -89l45 0c9,0 17,-1 22,-3 5,-2 9,-5 12,-9 3,-5 4,-9 4,-15 0,-7 -2,-13 -8,-18 -5,-5 -14,-7 -25,-7l-50 0 0 52z"/>
   <path id="1" class="fil3" d="M366 626l20 3c-3,12 -9,21 -18,27 -8,7 -19,10 -32,10 -17,0 -30,-5 -40,-15 -10,-11 -15,-25 -15,-44 0,-19 5,-34 15,-45 10,-10 23,-16 39,-16 15,0 27,6 37,16 10,10 15,25 15,44 0,1 0,3 -1,5l-85 0c1,13 4,22 11,29 6,7 14,10 24,10 7,0 13,-2 18,-5 5,-4 9,-10 12,-19zm-64 -31l64 0c-1,-9 -3,-17 -7,-21 -6,-8 -15,-12 -24,-12 -9,0 -17,3 -23,9 -6,6 -9,14 -10,24z"/>
   <path id="2" class="fil3" d="M411 708l0 -159 17 0 0 15c4,-6 9,-10 14,-13 6,-3 12,-5 19,-5 10,0 19,3 26,8 8,5 13,12 17,21 4,9 6,19 6,30 0,12 -2,23 -6,32 -4,9 -11,17 -19,22 -8,5 -16,7 -25,7 -6,0 -12,-1 -17,-4 -6,-3 -10,-6 -13,-10l0 56 -19 0zm17 -101c0,15 3,26 9,33 6,7 13,10 22,10 8,0 16,-4 22,-11 6,-7 9,-18 9,-34 0,-14 -3,-25 -9,-32 -6,-8 -13,-11 -21,-11 -9,0 -16,4 -22,11 -7,8 -10,19 -10,34z"/>
   <path id="3" class="fil3" d="M526 606c0,-21 6,-37 18,-47 10,-8 22,-13 36,-13 16,0 29,6 39,16 10,10 15,24 15,43 0,14 -2,26 -7,34 -4,9 -11,15 -19,20 -9,5 -18,7 -28,7 -16,0 -29,-5 -39,-15 -10,-11 -15,-25 -15,-45zm20 0c0,15 3,26 10,33 6,7 14,11 24,11 10,0 18,-4 24,-11 7,-7 10,-18 10,-33 0,-15 -3,-25 -10,-33 -6,-7 -14,-10 -24,-10 -10,0 -18,3 -24,10 -7,8 -10,19 -10,33z"/>
   <path id="4" class="fil3" d="M656 664l0 -115 18 0 0 17c4,-8 8,-13 12,-16 4,-2 8,-4 13,-4 6,0 13,2 20,7l-7 18c-5,-3 -10,-4 -14,-4 -5,0 -8,1 -12,3 -3,3 -6,6 -7,11 -2,7 -3,14 -3,23l0 60 -20 0z"/>
   <path id="5" class="fil3" d="M772 646l3 17c-5,2 -10,2 -15,2 -7,0 -12,-1 -16,-3 -4,-2 -7,-5 -8,-9 -2,-4 -2,-11 -2,-23l0 -66 -15 0 0 -15 15 0 0 -29 19 -11 0 40 19 0 0 15 -19 0 0 67c0,6 0,9 1,11 1,1 2,3 3,4 2,1 4,1 7,1 2,0 5,0 8,-1z"/>
  </g>
 </g>
</svg>
