<?xml version="1.0" encoding="UTF-8"?>
<!DOCTYPE svg PUBLIC "-//W3C//DTD SVG 1.1//EN" "http://www.w3.org/Graphics/SVG/1.1/DTD/svg11.dtd">
<!-- Creator: CorelDRAW X8 -->
<svg xmlns="http://www.w3.org/2000/svg" xml:space="preserve" width="7.7758in" height="3in" version="1.1" style="shape-rendering:geometricPrecision; text-rendering:geometricPrecision; image-rendering:optimizeQuality; fill-rule:evenodd; clip-rule:evenodd"
viewBox="0 0 4856 1874"
 xmlns:xlink="http://www.w3.org/1999/xlink">
 <defs>
  <style type="text/css">
   <![CDATA[
    .str4 {stroke:#FEFEFE;stroke-width:21.0457}
    .str2 {stroke:#1A237E;stroke-width:21.0457}
    .str0 {stroke:#868EE0;stroke-width:21.0457}
    .str1 {stroke:#1A237E;stroke-width:26.3045}
    .str3 {stroke:#1A237E;stroke-width:26.306}
    .str5 {stroke:#1A237E;stroke-width:26.306}
    .fil0 {fill:none}
    .fil2 {fill:#FEFEFE}
    .fil1 {fill:#1A237E}
    .fil3 {fill:#868EE0}
    .fil4 {fill:#1A237E;fill-rule:nonzero}
   ]]>
  </style>
 </defs>
 <g id="Layer_x0020_1">
  <metadata id="CorelCorpID_0Corel-Layer"/>
  <g id="_2490672394640">
   <g>
    <line id="Line_123" class="fil0 str0" x1="990" y1="761" x2="1667" y2= "761" />
    <line id="Line_132" class="fil0 str0" x1="1893" y1="761" x2="2570" y2= "761" />
    <line id="Line_124" class="fil0 str0" x1="990" y1="900" x2="1667" y2= "900" />
    <line id="Line_131" class="fil0 str0" x1="1893" y1="900" x2="2570" y2= "900" />
    <line id="Line_125" class="fil0 str0" x1="990" y1="1038" x2="1667" y2= "1038" />
    <line id="Line_130" class="fil0 str0" x1="1893" y1="1038" x2="2570" y2= "1038" />
    <line id="Line_126" class="fil0 str0" x1="990" y1="1177" x2="1667" y2= "1177" />
    <line id="Line_129" class="fil0 str0" x1="1893" y1="1177" x2="2570" y2= "1177" />
    <line id="Line_127" class="fil0 str0" x1="990" y1="1316" x2="1667" y2= "1316" />
    <line id="Line_128" class="fil0 str0" x1="1893" y1="1316" x2="2570" y2= "1316" />
   </g>
   <path id="XMLID_109_" class="fil0 str1" d="M2949 1646l-2651 0 0 -1450c0,-101 82,-183 182,-183l2284 0c102,0 185,83 185,185l0 1448 0 0z"/>
   <path id="XMLID_111_" class="fil1" d="M3075 1818l-2903 0c-95,0 -172,-77 -172,-172l3249 0c-1,95 -78,172 -174,172z"/>
   <path id="XMLID_110_" class="fil2" d="M1901 1671l-553 0c-13,0 -23,-10 -24,-23 0,0 0,-1 0,-1l602 0c-2,13 -13,22 -25,24z"/>
   <path id="Rectangle_1305" class="fil3" d="M511 119l385 0 0 0 0 1508 0 0 -486 0 0 0 0 -1408c0,-55 45,-100 101,-100z"/>
   <polygon class="fil4" points="996,374 996,180 1136,180 1136,203 1021,203 1021,262 1129,262 1129,285 1021,285 1021,351 1141,351 1141,374 "/>
   <path id="1" class="fil4" d="M1173 374l0 -141 22 0 0 20c10,-15 25,-23 44,-23 9,0 17,2 24,5 7,3 12,7 16,12 3,5 6,11 7,17 1,5 1,13 1,24l0 86 -23 0 0 -85c0,-10 -1,-17 -3,-22 -2,-5 -5,-9 -10,-12 -5,-3 -10,-4 -17,-4 -10,0 -19,3 -26,10 -7,6 -11,18 -11,36l0 77 -24 0z"/>
   <path id="2" class="fil4" d="M1376 353l3 21c-6,1 -12,2 -18,2 -8,0 -15,-1 -20,-4 -5,-3 -8,-6 -10,-11 -2,-4 -3,-14 -3,-28l0 -81 -17 0 0 -19 17 0 0 -35 24 -14 0 49 24 0 0 19 -24 0 0 82c0,7 1,11 1,13 1,2 3,4 4,5 2,1 5,2 9,2 2,0 6,0 10,-1z"/>
   <path id="3" class="fil4" d="M1399 374l0 -141 22 0 0 22c5,-10 10,-17 15,-20 5,-3 10,-5 15,-5 8,0 17,3 25,8l-9 22c-5,-3 -11,-5 -17,-5 -5,0 -10,2 -14,5 -4,3 -7,7 -9,13 -2,8 -4,17 -4,28l0 73 -24 0z"/>
   <path id="4" class="fil4" d="M1489 428l-3 -22c5,2 10,2 14,2 5,0 9,-1 13,-2 3,-2 5,-5 7,-8 2,-2 4,-8 8,-18 0,-1 1,-3 2,-5l-54 -142 26 0 29 82c4,10 8,21 11,32 2,-11 6,-21 9,-32l30 -82 24 0 -53 144c-6,15 -10,26 -13,31 -5,8 -10,14 -15,18 -6,3 -12,5 -20,5 -4,0 -9,-1 -15,-3z"/>
   <line id="Line_109" class="fil0 str2" x1="990" y1="504" x2="2691" y2= "504" />
   <path id="Path_9174" class="fil0 str3" d="M3334 1818l0 -1 0 -1645c0,-88 72,-159 160,-159l910 0c88,0 160,71 160,159 0,0 0,0 0,0l0 1646 0 0 -1230 0z"/>
   <circle id="Ellipse_43" class="fil1" cx="3723" cy="143" r="20"/>
   <circle id="Ellipse_44" class="fil1" cx="3724" cy="145" r="8"/>
   <rect id="Rectangle_1354" class="fil1" x="3303" y="225" width="11.8123" height="106.403"/>
   <rect id="Rectangle_1355" class="fil1" x="3303" y="457" width="11.8123" height="161.584"/>
   <rect id="Rectangle_1356" class="fil1" x="3303" y="680" width="11.8123" height="161.584"/>
   <rect id="Rectangle_1357" class="fil1" x="4586" y="453" width="11.8123" height="161.584"/>
   <rect id="Rectangle_1359" class="fil3" x="3380" y="225" width="1127" height="726"/>
   <line id="Line_96" class="fil0 str4" x1="3455" y1="374" x2="4162" y2= "374" />
   <line id="Line_97" class="fil0 str4" x1="3455" y1="506" x2="3895" y2= "506" />
   <line id="Line_98" class="fil0 str4" x1="3455" y1="639" x2="4047" y2= "639" />
   <line id="Line_99" class="fil0 str4" x1="3447" y1="772" x2="3750" y2= "772" />
   <path id="Path_9150" class="fil1" d="M4205 1194c0,-12 -4,-24 -13,-32 -17,-18 -46,-18 -63,-1 0,1 0,1 -1,1 -8,8 -13,20 -13,32 0,2 0,4 1,7l-55 33c-8,-9 -19,-14 -31,-14 -12,0 -24,5 -32,13 -18,18 -18,46 0,64 0,0 0,0 0,0 8,9 20,13 32,13 12,0 23,-4 32,-13 0,0 0,0 0,0l55 29c-1,4 -2,7 -2,11 0,25 20,45 45,45 0,0 0,0 0,0 25,0 45,-20 45,-45 0,0 0,0 0,0 0,-25 -20,-45 -45,-45 -12,0 -23,5 -32,13 0,1 0,1 0,1l-55 -29c1,-4 2,-8 2,-12 0,-4 -1,-8 -2,-12l52 -31c1,1 2,2 3,3 18,18 46,18 64,0 9,-8 13,-19 13,-31z"/>
   <path id="XMLID_113_" class="fil1" d="M3820 1435c-61,-1 -109,-51 -109,-111 1,-60 49,-108 109,-109 59,-2 109,45 110,105 0,2 0,3 0,5 0,61 -49,110 -110,110zm0 -178c-38,0 -68,30 -68,68 0,38 30,68 68,68 38,0 68,-30 68,-68 0,0 0,0 0,0 1,-36 -27,-67 -64,-68 -1,0 -3,0 -4,0z"/>
   <path id="XMLID_106_" class="fil1" d="M4014 1672l-388 0c-11,-1 -20,-10 -21,-21 -1,-118 93,-214 210,-216 2,0 3,0 5,0 117,-1 214,93 215,211 0,1 0,3 0,5 1,10 -7,20 -17,21 -1,0 -3,0 -4,0zm-362 -42l346 0c-11,-87 -85,-152 -173,-153 -88,-1 -163,65 -173,153z"/>
   <line id="Line_100" class="fil0 str5" x1="3062" y1="1818" x2="4856" y2= "1818" />
   <path id="Path_9177" class="fil1" d="M4020 160l-153 0c-2,0 -3,-2 -3,-4l0 0c0,-1 1,-3 3,-3l153 0c1,0 3,2 3,3l0 0c0,2 -2,4 -3,4z"/>
   <circle id="Ellipse_45" class="fil1" cx="3943" cy="86" r="21"/>
   <g>
    <circle class="fil1" cx="3122" cy="1571" r="303"/>
    <g>
     <g id="Group_2986">
      <path id="Path_9231" class="fil2" d="M3336 1502l-22 -117c0,-3 -3,-6 -6,-7 -3,-1 -7,0 -9,2l-41 41c-83,-75 -210,-69 -285,14 -32,36 -51,81 -52,129 -1,5 3,9 8,9 0,0 0,0 1,0l0 0c5,0 9,-4 9,-9 3,-101 88,-180 189,-177 47,2 91,21 124,54 3,3 9,3 12,0 0,0 0,0 0,0l36 -36 16 87 -87 -16 12 -12c3,-3 3,-9 -1,-12 -3,-4 -8,-4 -12,0l-23 23c-3,2 -4,6 -2,9 1,4 4,6 7,7l117 22c3,1 6,0 8,-3 1,-2 2,-5 1,-8z"/>
      <path id="Path_9232" class="fil2" d="M3314 1568l0 0c-4,-1 -9,3 -9,8 0,0 0,0 0,1 -3,101 -88,180 -189,177 -47,-2 -91,-21 -124,-54 -3,-4 -9,-4 -12,0 0,0 0,0 0,0l-36 35 -16 -87 87 17 -12 11c-3,4 -3,10 0,13 4,4 9,4 13,0l0 0 24 -23c2,-3 3,-6 1,-10 -1,-3 -3,-5 -7,-6l-116 -23c-3,-1 -6,1 -8,3 -2,2 -3,5 -3,8l23 117c0,4 3,7 6,7 3,1 7,1 9,-1l41 -41c37,34 86,53 136,52 109,0 198,-86 201,-194 1,-6 -3,-10 -8,-10 0,0 -1,0 -1,0z"/>
     </g>
     <path id="Path_9233" class="fil2" d="M3038 1587c4,-5 9,-9 15,-12 5,-2 12,-1 16,3 4,4 8,10 10,15 2,4 3,9 5,13 0,1 0,2 1,3 29,-48 68,-88 115,-118 1,1 2,2 3,3l2 3c-3,3 -6,5 -9,8 -21,18 -40,38 -56,60 -15,21 -29,43 -41,66 0,1 -2,2 -3,3 -6,5 -13,10 -20,14 0,1 -1,1 -2,2 -5,-24 -18,-46 -36,-63z"/>
    </g>
   </g>
  </g>
 </g>
</svg>
