<?xml version="1.0" encoding="UTF-8"?>
<!DOCTYPE svg PUBLIC "-//W3C//DTD SVG 1.1//EN" "http://www.w3.org/Graphics/SVG/1.1/DTD/svg11.dtd">
<!-- Creator: CorelDRAW X8 -->
<svg xmlns="http://www.w3.org/2000/svg" xml:space="preserve" width="3.23498in" height="3in" version="1.1" style="shape-rendering:geometricPrecision; text-rendering:geometricPrecision; image-rendering:optimizeQuality; fill-rule:evenodd; clip-rule:evenodd"
viewBox="0 0 2290 2123"
 xmlns:xlink="http://www.w3.org/1999/xlink">
 <defs>
  <style type="text/css">
   <![CDATA[
    .str1 {stroke:#1A237E;stroke-width:29.8134}
    .str0 {stroke:#1A237E;stroke-width:29.8134}
    .fil1 {fill:none;fill-rule:nonzero}
    .fil2 {fill:#1A237E}
    .fil5 {fill:#1A237E;fill-rule:nonzero}
    .fil0 {fill:#323657;fill-rule:nonzero}
    .fil3 {fill:#404040;fill-rule:nonzero}
    .fil4 {fill:#868EE0;fill-rule:nonzero}
   ]]>
  </style>
 </defs>
 <g id="Layer_x0020_1">
  <metadata id="CorelCorpID_0Corel-Layer"/>
  <g id="_2490586465648">
   <path class="fil0" d="M1340 2015l0 0c1,0 1,1 0,0z"/>
   <path class="fil1 str0" d="M2205 2108l-2121 0c-38,0 -69,-31 -69,-69l0 -1080 2260 0 0 1080c0,38 -31,69 -70,69z"/>
   <path class="fil2 str1" d="M2275 1009l-2260 0 0 -132c0,-38 31,-70 69,-70l2121 0c39,0 70,32 70,70l0 132z"/>
   <path class="fil3" d="M981 1371c0,13 -10,24 -23,24 -13,0 -24,-11 -24,-24 0,-13 11,-23 24,-23 13,0 23,10 23,23z"/>
   <path class="fil3" d="M1077 1371c0,13 -10,24 -23,24 -13,0 -23,-11 -23,-24 0,-13 10,-23 23,-23 13,0 23,10 23,23z"/>
   <path class="fil3" d="M1174 1371c0,13 -11,24 -24,24 -13,0 -23,-11 -23,-24 0,-13 10,-23 23,-23 13,0 24,10 24,23z"/>
   <path class="fil3" d="M1270 1371c0,13 -10,24 -23,24 -13,0 -24,-11 -24,-24 0,-13 11,-23 24,-23 13,0 23,10 23,23z"/>
   <path class="fil3" d="M1367 1371c0,13 -11,24 -24,24 -13,0 -23,-11 -23,-24 0,-13 10,-23 23,-23 13,0 24,10 24,23z"/>
   <path class="fil3" d="M1463 1371c0,13 -11,24 -24,24 -12,0 -23,-11 -23,-24 0,-13 11,-23 23,-23 13,0 24,10 24,23z"/>
   <path class="fil3" d="M1215 1553c0,13 -10,24 -23,24 -13,0 -24,-11 -24,-24 0,-13 11,-23 24,-23 13,0 23,10 23,23z"/>
   <path class="fil3" d="M1308 1553c0,13 -10,24 -23,24 -13,0 -23,-11 -23,-24 0,-13 10,-23 23,-23 13,0 23,10 23,23z"/>
   <path class="fil3" d="M1402 1553c0,13 -11,24 -24,24 -13,0 -23,-11 -23,-24 0,-13 10,-23 23,-23 13,0 24,10 24,23z"/>
   <path class="fil3" d="M1495 1553c0,13 -10,24 -23,24 -13,0 -24,-11 -24,-24 0,-13 11,-23 24,-23 13,0 23,10 23,23z"/>
   <path class="fil3" d="M1588 1553c0,13 -10,24 -23,24 -13,0 -23,-11 -23,-24 0,-13 10,-23 23,-23 13,0 23,10 23,23z"/>
   <path class="fil3" d="M1682 1553c0,13 -11,24 -24,24 -13,0 -23,-11 -23,-24 0,-13 10,-23 23,-23 13,0 24,10 24,23z"/>
   <path class="fil3" d="M1775 1553c0,13 -10,24 -23,24 -13,0 -24,-11 -24,-24 0,-13 11,-23 24,-23 13,0 23,10 23,23z"/>
   <path class="fil2" d="M1967 1724l-1520 0c-6,-6 -12,-12 -18,-19l1519 0 0 -491 -1606 0 0 417c-7,-4 -13,-9 -19,-13l0 -423 1644 0 0 529z"/>
   <polygon class="fil4" points="143,1979 857,1979 857,1921 143,1921 "/>
   <polygon class="fil4" points="1658,1979 2154,1979 2154,1921 1658,1921 "/>
   <path class="fil2" d="M1145 0c133,0 241,108 241,241l0 103 -45 0 0 -103c0,-108 -88,-196 -196,-196 -108,0 -197,88 -197,196l0 103 -44 0 0 -103c0,-133 108,-241 241,-241z"/>
   <path class="fil2" d="M1168 607l0 143 -46 0 0 -143c-37,-10 -63,-44 -63,-83 0,-48 38,-86 86,-86 48,0 86,38 86,86 0,39 -27,73 -63,83zm192 -311l-431 0c-45,0 -82,37 -82,82l0 431c0,46 37,82 82,82l431 0c46,0 82,-36 82,-82l0 -431c0,-45 -36,-82 -82,-82z"/>
   <polygon class="fil5" points="610,1411 558,1411 558,1337 573,1337 573,1398 602,1398 "/>
   <path id="1" class="fil5" d="M648 1336c10,0 20,4 27,11 8,7 11,16 11,27 0,11 -3,20 -11,27 -7,8 -17,11 -27,11 -11,0 -20,-3 -28,-11 -7,-7 -11,-16 -11,-27 0,-11 4,-20 11,-27 8,-7 17,-11 28,-11zm0 63c6,0 12,-2 17,-7 4,-5 6,-11 6,-18 0,-7 -2,-13 -6,-18 -5,-4 -11,-7 -17,-7 -7,0 -13,3 -17,7 -5,5 -7,11 -7,18 0,7 2,13 6,18 5,5 11,7 18,7z"/>
   <path id="2" class="fil5" d="M761 1405c-9,5 -19,7 -29,7 -11,0 -20,-3 -28,-11 -7,-7 -11,-16 -11,-27 0,-11 4,-20 12,-27 7,-7 17,-11 28,-11 10,0 18,2 25,7l-7 12c-5,-4 -11,-6 -18,-6 -7,0 -13,3 -18,7 -4,5 -6,11 -6,18 0,8 2,14 6,18 4,5 10,7 17,7 5,0 10,-1 15,-3l0 -12 -21 0 7 -13 28 0 0 34z"/>
   <polygon id="3" class="fil5" points="791,1411 776,1411 776,1337 791,1337 "/>
   <polygon id="4" class="fil5" points="872,1412 866,1412 820,1363 820,1411 806,1411 806,1337 813,1337 858,1384 858,1337 872,1337 "/>
   <path class="fil5" d="M567 1519l23 0c9,0 17,2 22,6 5,4 7,10 7,18 0,8 -2,13 -8,17 -5,4 -13,6 -23,6l-6 0 0 27 -15 0 0 -74zm15 35l5 0c6,0 11,-1 13,-3 3,-2 4,-4 4,-8 0,-4 -1,-7 -4,-8 -2,-2 -6,-3 -13,-3l-5 0 0 22z"/>
   <path id="1" class="fil5" d="M690 1593l-15 0 -6 -12 -35 0 -6 12 -15 0 35 -74 8 0 34 74zm-27 -25l-11 -25 -13 25 24 0z"/>
   <path id="2" class="fil5" d="M734 1536c-5,-4 -10,-5 -15,-5 -3,0 -6,0 -7,2 -2,1 -3,3 -3,5 0,2 1,3 2,5 2,1 6,3 12,6 9,4 14,7 17,11 3,4 4,8 4,13 0,7 -2,12 -7,16 -5,3 -11,5 -19,5 -5,0 -9,0 -13,-2 -4,-1 -8,-3 -11,-5l6 -12c3,2 6,4 9,5 3,1 6,1 9,1 4,0 7,0 9,-2 2,-1 3,-3 3,-5 0,-3 -1,-4 -3,-6 -2,-2 -5,-3 -10,-6 -5,-2 -8,-3 -11,-5 -3,-2 -6,-4 -8,-7 -2,-3 -3,-7 -3,-11 0,-6 2,-11 7,-15 4,-4 10,-6 18,-6 7,0 14,2 21,6l-7 12z"/>
   <path id="3" class="fil5" d="M790 1536c-5,-4 -10,-5 -15,-5 -4,0 -6,0 -8,2 -1,1 -2,3 -2,5 0,2 0,3 2,5 1,1 5,3 11,6 9,4 15,7 17,11 3,4 4,8 4,13 0,7 -2,12 -7,16 -4,3 -11,5 -19,5 -4,0 -8,0 -12,-2 -4,-1 -8,-3 -12,-5l6 -12c3,2 6,4 9,5 3,1 6,1 9,1 4,0 7,0 9,-2 2,-1 3,-3 3,-5 0,-3 -1,-4 -3,-6 -1,-2 -5,-3 -9,-6 -5,-2 -9,-3 -12,-5 -3,-2 -5,-4 -7,-7 -2,-3 -3,-7 -3,-11 0,-6 2,-11 6,-15 4,-4 10,-6 18,-6 7,0 14,2 21,6l-6 12z"/>
   <polygon id="4" class="fil5" points="902,1519 875,1594 869,1594 853,1549 836,1594 830,1594 804,1519 819,1519 834,1564 851,1519 857,1519 873,1564 888,1519 "/>
   <path id="5" class="fil5" d="M945 1518c11,0 20,4 27,11 8,7 12,16 12,27 0,11 -4,20 -11,27 -8,8 -17,11 -28,11 -11,0 -20,-4 -28,-11 -7,-7 -11,-16 -11,-27 0,-11 4,-20 11,-27 8,-7 17,-11 28,-11zm0 63c7,0 13,-2 17,-7 4,-5 7,-11 7,-18 0,-7 -3,-13 -7,-18 -4,-4 -10,-7 -17,-7 -7,0 -13,3 -17,7 -4,5 -7,11 -7,18 0,7 3,13 7,18 4,4 10,7 17,7z"/>
   <path id="6" class="fil5" d="M1052 1593l-16 0 -18 -27 -8 0 0 27 -15 0 0 -74 22 0c9,0 17,2 22,6 5,4 7,10 7,17 0,5 -1,10 -4,13 -2,4 -6,7 -10,8l20 30zm-42 -39l4 0c6,0 10,-1 13,-3 3,-2 4,-4 4,-8 0,-4 -1,-7 -4,-9 -2,-1 -6,-2 -11,-2l-6 0 0 22z"/>
   <path id="7" class="fil5" d="M1062 1519l25 0c12,0 22,4 29,10 7,7 11,16 11,27 0,11 -4,20 -11,26 -7,7 -17,11 -29,11l-25 0 0 -74zm14 61l9 0c8,0 15,-2 20,-6 5,-5 7,-10 7,-18 0,-8 -2,-14 -7,-18 -5,-4 -11,-6 -20,-6l-9 0 0 48z"/>
  </g>
 </g>
</svg>
