<?xml version="1.0" encoding="UTF-8"?>
<!DOCTYPE svg PUBLIC "-//W3C//DTD SVG 1.1//EN" "http://www.w3.org/Graphics/SVG/1.1/DTD/svg11.dtd">
<!-- Creator: CorelDRAW X8 -->
<svg xmlns="http://www.w3.org/2000/svg" xml:space="preserve" width="2.99934in" height="3in" version="1.1" style="shape-rendering:geometricPrecision; text-rendering:geometricPrecision; image-rendering:optimizeQuality; fill-rule:evenodd; clip-rule:evenodd"
viewBox="0 0 758 758"
 xmlns:xlink="http://www.w3.org/1999/xlink">
 <defs>
  <style type="text/css">
   <![CDATA[
    .fil0 {fill:#1A237E}
    .fil1 {fill:#868EE0}
    .fil3 {fill:#FEFEFE;fill-rule:nonzero}
    .fil2 {fill:#1A237E;fill-rule:nonzero}
   ]]>
  </style>
 </defs>
 <g id="Layer_x0020_1">
  <metadata id="CorelCorpID_0Corel-Layer"/>
  <g id="_2490693071680">
   <g>
    <path class="fil0" d="M750 750l0 -742 -599 0 0 742 599 0 0 0zm8 8l-615 0 0 -758 615 0 0 758z"/>
   </g>
   <rect id="Rectangle_1341" class="fil1" x="227" y="194" width="455.033" height="50.5603"/>
   <rect id="Rectangle_1341-2" class="fil1" x="227" y="303" width="455.033" height="50.5603"/>
   <rect id="Rectangle_1341-3" class="fil1" x="227" y="413" width="455.033" height="50.5603"/>
   <rect id="Rectangle_1341-4" class="fil1" x="227" y="522" width="455.033" height="50.5603"/>
   <rect id="Rectangle_1341-5" class="fil1" x="227" y="632" width="455.033" height="50.5603"/>
   <g>
    <polygon class="fil1" points="4,539 281,539 281,219 4,219 "/>
    <path id="1" class="fil2" d="M281 544l-277 0 0 -9 277 0 5 4 -5 5zm5 -5l0 5 -5 0 5 -5zm0 -320l0 320 -9 0 0 -320 4 -4 5 4zm-5 -4l5 0 0 4 -5 -4zm-277 0l277 0 0 8 -277 0 -4 -4 4 -4zm-4 4l0 -4 4 0 -4 4zm0 320l0 -320 9 0 0 320 -5 5 -4 -5zm4 5l-4 0 0 -5 4 5z"/>
   </g>
   <path class="fil3" d="M91 435l44 -58 -38 -54 17 0 21 29c4,6 7,10 9,13 2,-3 5,-8 8,-12l23 -30 16 0 -39 53 42 59 -18 0 -28 -40c-2,-2 -4,-4 -5,-7 -2,4 -4,7 -5,8l-29 39 -18 0z"/>
   <path id="Path_9148" class="fil0" d="M590 144l82 0 0 -20c0,-2 0,-4 0,-5 1,-3 3,-5 5,-5 0,0 1,0 1,0 2,0 4,2 4,5 1,0 1,0 1,0 0,11 0,21 0,31 0,3 -3,5 -5,5 0,0 -1,0 -1,0 0,0 -1,0 -2,0l-88 0c-5,0 -7,-1 -7,-7 0,-9 0,-18 0,-28 0,-4 2,-6 6,-6 3,1 4,3 4,6 0,7 0,14 0,21 0,1 0,2 0,3z"/>
   <path id="Path_9149" class="fil0" d="M626 98l0 -47c0,-3 0,-6 0,-8 0,-4 2,-6 5,-6 3,0 6,2 6,5 0,1 0,1 0,1 0,13 0,26 0,39l0 16c0,-1 1,-1 2,-2 3,-4 7,-7 10,-11 2,-2 5,-3 8,-1 0,0 0,0 0,1 2,2 2,5 0,7 0,0 0,0 0,0 -7,8 -15,15 -22,22 -2,3 -5,3 -7,1 0,0 0,0 -1,-1 -7,-7 -14,-14 -21,-22 -3,-1 -3,-5 -1,-7 0,0 0,0 0,0 2,-2 6,-2 8,0 0,0 0,0 0,0 4,4 9,8 13,13z"/>
  </g>
 </g>
</svg>
