<?xml version="1.0" encoding="UTF-8"?>
<!DOCTYPE svg PUBLIC "-//W3C//DTD SVG 1.1//EN" "http://www.w3.org/Graphics/SVG/1.1/DTD/svg11.dtd">
<!-- Creator: CorelDRAW X8 -->
<svg xmlns="http://www.w3.org/2000/svg" xml:space="preserve" width="5.36092in" height="3in" version="1.1" style="shape-rendering:geometricPrecision; text-rendering:geometricPrecision; image-rendering:optimizeQuality; fill-rule:evenodd; clip-rule:evenodd"
viewBox="0 0 7758 4342"
 xmlns:xlink="http://www.w3.org/1999/xlink">
 <defs>
  <style type="text/css">
   <![CDATA[
    .str1 {stroke:#1A237E;stroke-width:50.2604}
    .str0 {stroke:#1A237E;stroke-width:62.8193}
    .str2 {stroke:#1A237E;stroke-width:69.9393;stroke-linecap:round;stroke-linejoin:round}
    .fil5 {fill:none}
    .fil2 {fill:#FEFEFE}
    .fil1 {fill:#1A237E}
    .fil3 {fill:#868EE0}
    .fil0 {fill:white}
    .fil4 {fill:#1A237E;fill-rule:nonzero}
   ]]>
  </style>
 </defs>
 <g id="Layer_x0020_1">
  <metadata id="CorelCorpID_0Corel-Layer"/>
  <g id="_2490672400176">
   <path id="XMLID_109_" class="fil0 str0" d="M7042 3930l-6329 0 0 -3463c-1,-240 194,-435 434,-436l5454 0c244,1 441,199 441,443l0 3456 0 0z"/>
   <path id="XMLID_111_" class="fil1" d="M7345 4342l-6935 0c-226,-1 -410,-185 -410,-412l7758 0c-1,228 -186,411 -413,412z"/>
   <path id="XMLID_110_" class="fil2" d="M4540 3990l-1321 0c-31,0 -56,-24 -56,-55 0,0 0,-1 0,-1l1436 0c-5,30 -29,53 -59,56z"/>
   <path id="Rectangle_1305" class="fil3" d="M1220 283l919 0 0 0 0 3603 0 0 -1159 0 0 0 0 -3363c0,-133 107,-240 240,-240z"/>
   <path class="fil4" d="M2402 941l0 -411 142 0c32,0 57,2 73,6 24,5 44,15 61,29 21,19 38,42 48,70 11,29 17,62 17,98 0,32 -4,59 -11,83 -8,25 -17,45 -28,60 -12,16 -24,29 -38,38 -13,9 -30,16 -49,20 -19,5 -41,7 -66,7l-149 0zm55 -48l88 0c27,0 48,-2 63,-8 16,-5 28,-12 37,-21 13,-13 23,-30 30,-52 8,-22 11,-48 11,-79 0,-44 -7,-77 -21,-100 -14,-23 -31,-39 -51,-46 -15,-6 -38,-9 -71,-9l-86 0 0 315z"/>
   <path id="1" class="fil4" d="M3006 904c-19,16 -37,27 -54,34 -18,6 -36,10 -56,10 -33,0 -58,-8 -76,-24 -17,-16 -26,-37 -26,-61 0,-15 3,-28 10,-40 6,-12 15,-22 26,-29 11,-8 23,-13 36,-17 10,-2 25,-5 45,-7 41,-5 71,-11 91,-18 0,-7 0,-11 0,-13 0,-20 -5,-35 -15,-43 -12,-12 -32,-17 -57,-17 -24,0 -42,4 -53,12 -11,9 -20,23 -25,45l-50 -7c5,-21 12,-39 23,-52 10,-13 25,-23 44,-30 20,-7 43,-10 68,-10 26,0 47,3 63,9 15,6 27,13 35,22 7,9 12,21 16,35 1,8 2,24 2,46l0 67c0,47 1,77 3,89 2,13 6,25 13,36l-53 0c-5,-10 -9,-23 -10,-37zm-4 -112c-19,7 -46,14 -83,19 -21,3 -36,6 -44,10 -9,4 -15,9 -20,16 -5,7 -7,15 -7,24 0,13 5,25 15,34 10,8 25,13 45,13 19,0 37,-4 52,-13 15,-8 26,-20 33,-34 6,-12 9,-29 9,-51l0 -18z"/>
   <path id="2" class="fil4" d="M3111 852l50 -8c2,20 10,36 23,46 13,11 31,16 54,16 23,0 40,-4 52,-14 11,-9 17,-20 17,-33 0,-12 -6,-21 -16,-27 -7,-5 -24,-10 -51,-17 -37,-9 -63,-18 -77,-24 -15,-7 -25,-17 -33,-29 -7,-12 -11,-25 -11,-40 0,-13 3,-25 9,-36 6,-12 15,-21 25,-29 8,-5 19,-10 32,-14 14,-4 28,-6 44,-6 23,0 44,3 61,10 18,7 31,16 39,27 9,12 15,27 18,47l-50 7c-2,-16 -8,-28 -19,-37 -11,-9 -26,-13 -46,-13 -23,0 -39,4 -49,12 -10,7 -15,16 -15,27 0,6 2,12 6,17 4,6 11,10 20,14 5,2 19,6 44,13 36,9 61,17 75,23 14,6 25,15 33,26 8,12 12,26 12,44 0,16 -5,32 -14,47 -10,15 -25,26 -43,34 -19,9 -40,13 -63,13 -39,0 -68,-8 -89,-24 -20,-16 -33,-40 -38,-72z"/>
   <path id="3" class="fil4" d="M3418 941l0 -411 51 0 0 148c23,-28 53,-41 88,-41 22,0 41,4 58,13 16,8 28,20 35,36 7,15 10,37 10,67l0 188 -51 0 0 -188c0,-25 -5,-44 -16,-55 -11,-12 -26,-18 -46,-18 -15,0 -29,4 -42,12 -13,8 -22,18 -28,32 -6,13 -8,31 -8,55l0 162 -51 0z"/>
   <path id="4" class="fil4" d="M3784 941l-47 0 0 -411 51 0 0 147c21,-27 48,-40 81,-40 19,0 36,3 52,11 17,7 30,18 41,31 10,13 19,29 25,48 6,19 9,39 9,61 0,51 -13,90 -38,118 -25,28 -56,42 -91,42 -35,0 -63,-15 -83,-44l0 37zm0 -151c0,36 5,61 14,77 16,26 38,39 65,39 22,0 41,-9 57,-28 16,-20 24,-48 24,-86 0,-39 -8,-68 -23,-86 -16,-19 -34,-28 -56,-28 -22,0 -41,10 -57,29 -16,19 -24,47 -24,83z"/>
   <path id="5" class="fil4" d="M4038 792c0,-55 16,-96 46,-122 26,-22 57,-33 94,-33 41,0 75,13 101,40 26,27 39,64 39,111 0,38 -6,68 -18,90 -11,22 -28,39 -50,51 -22,13 -46,19 -72,19 -42,0 -75,-14 -101,-40 -26,-27 -39,-66 -39,-116zm52 0c0,38 8,67 25,86 17,19 38,28 63,28 25,0 46,-9 63,-28 17,-19 25,-48 25,-87 0,-37 -9,-65 -25,-84 -17,-19 -38,-28 -63,-28 -25,0 -46,9 -63,28 -17,19 -25,47 -25,85z"/>
   <path id="6" class="fil4" d="M4572 904c-19,16 -37,27 -54,34 -18,6 -36,10 -56,10 -33,0 -58,-8 -76,-24 -18,-16 -26,-37 -26,-61 0,-15 3,-28 10,-40 6,-12 15,-22 26,-29 11,-8 23,-13 36,-17 10,-2 25,-5 45,-7 41,-5 71,-11 90,-18 1,-7 1,-11 1,-13 0,-20 -5,-35 -15,-43 -13,-12 -32,-17 -57,-17 -24,0 -42,4 -53,12 -12,9 -20,23 -25,45l-50 -7c5,-21 12,-39 23,-52 10,-13 25,-23 44,-30 20,-7 42,-10 68,-10 26,0 46,3 62,9 16,6 28,13 36,22 7,9 12,21 15,35 2,8 3,24 3,46l0 67c0,47 1,77 3,89 2,13 6,25 12,36l-53 0c-5,-10 -8,-23 -9,-37zm-4 -112c-19,7 -46,14 -83,19 -21,3 -36,6 -44,10 -9,4 -16,9 -20,16 -5,7 -7,15 -7,24 0,13 5,25 15,34 10,8 25,13 45,13 19,0 37,-4 52,-13 15,-8 26,-20 33,-34 6,-12 8,-29 8,-51l1 -18z"/>
   <path id="7" class="fil4" d="M4696 941l0 -298 45 0 0 46c12,-21 23,-35 33,-42 9,-7 20,-10 32,-10 17,0 34,5 52,16l-18 46c-12,-7 -25,-10 -37,-10 -11,0 -21,3 -29,10 -9,7 -15,16 -19,28 -6,17 -8,37 -8,58l0 156 -51 0z"/>
   <path id="8" class="fil4" d="M5080 941l0 -38c-18,30 -46,45 -83,45 -24,0 -46,-7 -65,-20 -20,-13 -36,-31 -47,-55 -11,-23 -16,-50 -16,-81 0,-29 5,-56 15,-80 10,-24 25,-43 44,-56 20,-13 42,-19 67,-19 18,0 34,4 48,11 14,8 25,18 34,30l0 -148 51 0 0 411 -48 0zm-159 -148c0,38 8,66 24,85 16,19 35,28 57,28 22,0 41,-9 56,-27 16,-18 24,-45 24,-82 0,-41 -8,-71 -24,-90 -16,-19 -35,-28 -58,-28 -23,0 -42,9 -57,27 -15,18 -22,47 -22,87z"/>
   <line id="Line_109" class="fil5 str1" x1="2365" y1="1205" x2="6426" y2= "1205" />
   <rect class="fil3" x="2353" y="1525" width="1887" height="890"/>
   <rect class="fil3" x="2353" y="2670" width="1887" height="1133"/>
   <rect class="fil3" x="4503" y="1525" width="1887" height="890"/>
   <rect class="fil3" x="4503" y="2670" width="1887" height="1133"/>
   <line id="Line_101" class="fil5 str2" x1="2508" y1="1827" x2="3655" y2= "1827" />
   <line id="Line_108" class="fil5 str2" x1="4706" y1="1827" x2="5852" y2= "1827" />
   <line id="Line_102" class="fil5 str2" x1="2508" y1="2115" x2="3368" y2= "2115" />
   <line id="Line_107" class="fil5 str2" x1="4706" y1="2115" x2="5566" y2= "2115" />
   <line id="Line_104" class="fil5 str2" x1="2508" y1="3120" x2="3655" y2= "3120" />
   <line id="Line_106" class="fil5 str2" x1="4706" y1="3120" x2="5852" y2= "3120" />
   <line id="Line_103" class="fil5 str2" x1="2508" y1="3408" x2="3368" y2= "3408" />
   <line id="Line_105" class="fil5 str2" x1="4706" y1="3408" x2="5566" y2= "3408" />
  </g>
 </g>
</svg>
