<?xml version="1.0" encoding="UTF-8"?>
<!DOCTYPE svg PUBLIC "-//W3C//DTD SVG 1.1//EN" "http://www.w3.org/Graphics/SVG/1.1/DTD/svg11.dtd">
<!-- Creator: CorelDRAW X8 -->
<svg xmlns="http://www.w3.org/2000/svg" xml:space="preserve" width="3.26477in" height="3in" version="1.1" style="shape-rendering:geometricPrecision; text-rendering:geometricPrecision; image-rendering:optimizeQuality; fill-rule:evenodd; clip-rule:evenodd"
viewBox="0 0 779 716"
 xmlns:xlink="http://www.w3.org/1999/xlink">
 <defs>
  <style type="text/css">
   <![CDATA[
    .str0 {stroke:#1A237E;stroke-width:10.0461}
    .fil2 {fill:#FEFEFE}
    .fil1 {fill:#1A237E}
    .fil0 {fill:#868EE0}
    .fil3 {fill:white}
   ]]>
  </style>
 </defs>
 <g id="Layer_x0020_1">
  <metadata id="CorelCorpID_0Corel-Layer"/>
  <g id="_2490682365568">
   <path id="Path_9210" class="fil0" d="M561 238c99,0 177,63 177,140 0,21 -5,40 -16,58 18,54 57,70 57,70 -65,3 -89,-15 -97,-27 -36,26 -78,39 -122,38 -98,0 -177,-63 -177,-140 0,-76 80,-139 178,-139z"/>
   <path id="Path_9211" class="fil1" d="M465 0c-123,0 -224,79 -224,178 0,26 7,51 20,74 -24,68 -73,89 -73,89 81,5 112,-19 123,-33 45,32 98,49 153,48 124,0 224,-79 224,-178 2,-99 -99,-178 -223,-178z"/>
   <path id="Path_9212" class="fil2" d="M540 124c0,40 -50,52 -50,68l0 6 -51 0 0 -15c0,-22 38,-35 38,-58 1,-10 -7,-19 -18,-20 0,0 -1,0 -2,0 -16,0 -19,12 -19,25l0 8 -55 0c0,-4 -1,-7 -1,-12 0,-37 35,-62 81,-62 47,-1 77,23 77,60zm-46 146l-59 0 0 -55 59 0 0 55z"/>
   <circle id="Ellipse_58" class="fil2" cx="515" cy="439" r="17"/>
   <circle id="Ellipse_59" class="fil2" cx="566" cy="439" r="17"/>
   <circle id="Ellipse_60" class="fil2" cx="618" cy="439" r="17"/>
   <path id="Path_9209" class="fil3 str0" d="M506 648l-103 -133c-2,-2 -6,-2 -8,-1l-53 40c-2,2 -3,6 -2,8l2 1c-37,-3 -103,-49 -143,-99 -38,-50 -66,-126 -60,-162l1 2c3,2 6,2 8,1l54 -41c2,-2 2,-5 1,-8l-104 -132c-3,-2 -6,-2 -8,-1l-54 40c-2,2 -2,6 -1,8l0 0c-28,29 -37,62 -28,111 5,24 18,119 114,242 96,123 186,160 208,170 44,22 79,21 114,2l0 0c3,2 6,2 9,1l53 -41c1,-2 1,-5 0,-8z"/>
  </g>
 </g>
</svg>
