<?xml version="1.0" encoding="UTF-8"?>
<!DOCTYPE svg PUBLIC "-//W3C//DTD SVG 1.1//EN" "http://www.w3.org/Graphics/SVG/1.1/DTD/svg11.dtd">
<!-- Creator: CorelDRAW X8 -->
<svg xmlns="http://www.w3.org/2000/svg" xml:space="preserve" width="4.26099in" height="3in" version="1.1" style="shape-rendering:geometricPrecision; text-rendering:geometricPrecision; image-rendering:optimizeQuality; fill-rule:evenodd; clip-rule:evenodd"
viewBox="0 0 2927 2061"
 xmlns:xlink="http://www.w3.org/1999/xlink">
 <defs>
  <style type="text/css">
   <![CDATA[
    .str0 {stroke:#1A237E;stroke-width:4.54607}
    .fil3 {fill:none}
    .fil6 {fill:#FEFEFE}
    .fil4 {fill:#E6E7E8}
    .fil0 {fill:#1A237E}
    .fil5 {fill:#FEFEFE;fill-rule:nonzero}
    .fil2 {fill:#606062;fill-rule:nonzero}
    .fil1 {fill:#1A237E;fill-rule:nonzero}
   ]]>
  </style>
 </defs>
 <g id="Layer_x0020_1">
  <metadata id="CorelCorpID_0Corel-Layer"/>
  <g id="_2490757954160">
   <path class="fil0" d="M2581 308l-2482 0c-55,1 -99,45 -99,99l0 1555c0,55 44,99 99,99l2482 0c55,0 99,-44 99,-99l0 -1555c0,-54 -44,-98 -99,-99zm6 1570c-1,55 -47,99 -102,98l-2291 0c-55,1 -101,-43 -102,-98l0 -1389c1,-55 47,-99 102,-99l2292 0c56,0 101,44 102,99l0 1389 -1 0z"/>
   <path class="fil1" d="M227 572l15 4c-2,9 -6,15 -11,19 -6,5 -13,7 -21,7 -10,0 -19,-4 -26,-11 -6,-7 -10,-17 -10,-29 0,-13 4,-23 10,-30 7,-8 16,-11 27,-11 9,0 17,3 23,8 4,4 6,9 8,15l-15 4c-1,-5 -3,-8 -6,-10 -3,-2 -7,-4 -11,-4 -6,0 -10,3 -14,7 -4,4 -5,11 -5,20 0,10 1,17 5,21 3,4 8,6 14,6 4,0 8,-1 11,-4 3,-2 5,-7 6,-12z"/>
   <path id="1" class="fil1" d="M270 600l-15 0 0 -56 14 0 0 8c2,-4 5,-6 6,-8 2,-1 5,-1 7,-1 3,0 7,1 10,2l-5 13c-2,-1 -5,-2 -7,-2 -2,0 -4,1 -5,2 -2,1 -3,3 -4,6 0,3 -1,9 -1,19l0 17z"/>
   <path id="2" class="fil1" d="M331 583l15 2c-2,6 -5,10 -9,13 -4,2 -9,4 -16,4 -9,0 -17,-3 -21,-10 -4,-5 -6,-11 -6,-19 0,-10 2,-17 7,-22 5,-6 11,-8 19,-8 8,0 15,2 20,8 5,6 7,14 7,26l-38 0c0,4 2,7 4,10 2,2 5,4 9,4 2,0 4,-1 5,-2 2,-2 3,-4 4,-6zm1 -16c0,-4 -1,-7 -3,-10 -3,-2 -5,-3 -8,-3 -3,0 -6,1 -8,4 -2,2 -3,5 -3,9l22 0z"/>
   <path id="3" class="fil1" d="M370 561l-13 -2c1,-6 4,-10 7,-12 4,-3 10,-4 17,-4 7,0 12,0 15,2 3,2 6,4 7,6 1,2 2,7 2,13l0 18c0,5 0,8 0,11 1,2 2,5 3,7l-15 0c0,-1 -1,-2 -1,-4 0,-1 -1,-1 -1,-2 -2,3 -5,5 -8,6 -3,1 -6,2 -9,2 -6,0 -11,-2 -14,-5 -3,-3 -5,-7 -5,-12 0,-3 1,-6 2,-8 2,-3 4,-5 7,-6 3,-1 6,-3 12,-4 7,-1 12,-2 14,-3l0 -2c0,-3 -1,-5 -2,-6 -1,-1 -4,-2 -8,-2 -3,0 -5,1 -6,2 -2,1 -3,3 -4,5zm20 12c-2,1 -5,2 -9,3 -4,1 -7,1 -8,2 -2,2 -3,3 -3,6 0,2 1,3 2,5 2,2 4,2 6,2 3,0 6,-1 8,-2 2,-2 3,-3 4,-5 0,-2 0,-4 0,-8l0 -3z"/>
   <path id="4" class="fil1" d="M446 544l0 12 -11 0 0 23c0,4 0,7 1,8 0,1 0,1 1,2 1,0 1,0 2,0 2,0 4,0 6,-1l2 12c-4,1 -8,2 -12,2 -3,0 -5,-1 -7,-2 -3,0 -4,-2 -5,-3 -1,-1 -2,-3 -2,-6 -1,-2 -1,-5 -1,-11l0 -24 -7 0 0 -12 7 0 0 -11 15 -9 0 20 11 0z"/>
   <path id="5" class="fil1" d="M489 583l15 2c-2,6 -5,10 -9,13 -5,2 -10,4 -16,4 -10,0 -17,-3 -22,-10 -3,-5 -5,-11 -5,-19 0,-10 2,-17 7,-22 5,-6 11,-8 19,-8 8,0 15,2 19,8 5,6 8,14 7,26l-37 0c0,4 1,7 4,10 2,2 5,4 8,4 3,0 5,-1 6,-2 2,-2 3,-4 4,-6zm1 -16c-1,-4 -2,-7 -4,-10 -2,-2 -4,-3 -8,-3 -3,0 -5,1 -8,4 -2,2 -3,5 -3,9l23 0z"/>
   <path id="6" class="fil1" d="M597 572l15 4c-2,9 -6,15 -11,19 -6,5 -13,7 -21,7 -11,0 -19,-4 -26,-11 -6,-7 -10,-17 -10,-29 0,-13 4,-23 10,-30 7,-8 16,-11 27,-11 9,0 17,3 23,8 4,4 6,9 8,15l-15 4c-1,-5 -3,-8 -6,-10 -3,-2 -7,-4 -11,-4 -6,0 -10,3 -14,7 -4,4 -5,11 -5,20 0,10 1,17 5,21 3,4 8,6 14,6 4,0 8,-1 11,-4 3,-2 5,-7 6,-12z"/>
   <path id="7" class="fil1" d="M663 600l0 -8c-2,3 -5,5 -8,7 -3,2 -7,3 -11,3 -3,0 -7,-1 -10,-3 -3,-1 -5,-4 -6,-7 -2,-3 -2,-7 -2,-12l0 -36 14 0 0 26c0,8 1,13 1,15 1,1 2,3 3,4 2,1 4,1 6,1 2,0 5,0 7,-2 2,-1 3,-3 4,-5 1,-2 1,-7 1,-15l0 -24 15 0 0 56 -14 0z"/>
   <path id="8" class="fil1" d="M687 585l15 -3c1,3 2,5 4,7 2,1 5,2 8,2 4,0 7,-1 9,-2 1,-1 2,-2 2,-4 0,-1 0,-2 -1,-3 -1,-1 -3,-1 -5,-2 -12,-3 -20,-5 -23,-7 -5,-3 -7,-8 -7,-13 0,-5 2,-9 6,-12 4,-4 10,-5 18,-5 8,0 13,1 17,3 4,3 7,7 8,12l-14 2c-1,-2 -2,-4 -4,-5 -1,-1 -4,-2 -7,-2 -4,0 -7,1 -8,2 -1,1 -2,2 -2,3 0,1 0,2 1,3 2,1 7,2 15,4 8,2 13,4 16,7 3,2 5,6 5,11 0,5 -2,10 -7,13 -4,4 -10,6 -19,6 -7,0 -14,-2 -18,-5 -5,-3 -8,-7 -9,-12z"/>
   <path id="9" class="fil1" d="M779 544l0 12 -10 0 0 23c0,4 0,7 0,8 0,1 1,1 1,2 1,0 2,0 3,0 1,0 3,0 6,-1l1 12c-3,1 -7,2 -12,2 -2,0 -5,-1 -7,-2 -2,0 -4,-2 -5,-3 -1,-1 -1,-3 -2,-6 0,-2 0,-5 0,-11l0 -24 -7 0 0 -12 7 0 0 -11 15 -9 0 20 10 0z"/>
   <path id="10" class="fil1" d="M786 571c0,-5 1,-9 4,-14 2,-5 6,-8 10,-11 5,-2 10,-3 15,-3 9,0 16,2 21,8 6,6 8,13 8,21 0,9 -2,16 -8,21 -6,6 -12,9 -21,9 -5,0 -10,-1 -15,-4 -4,-2 -8,-5 -10,-10 -3,-5 -4,-10 -4,-17zm15 1c0,6 2,10 4,13 3,3 6,5 10,5 4,0 7,-2 10,-5 3,-3 4,-7 4,-13 0,-5 -1,-10 -4,-13 -3,-3 -6,-4 -10,-4 -4,0 -7,1 -10,4 -2,3 -4,8 -4,13z"/>
   <path id="11" class="fil1" d="M855 544l14 0 0 8c5,-6 11,-9 17,-9 4,0 7,0 10,2 2,1 5,4 6,7 3,-3 5,-6 8,-7 3,-2 6,-2 10,-2 4,0 7,0 10,2 3,2 5,4 7,8 1,2 1,6 1,11l0 36 -15 0 0 -32c0,-5 0,-9 -1,-11 -2,-2 -4,-3 -7,-3 -2,0 -4,1 -6,2 -2,1 -3,3 -4,6 -1,2 -1,6 -1,11l0 27 -15 0 0 -31c0,-5 0,-9 -1,-10 0,-2 -1,-3 -2,-4 -1,-1 -3,-1 -5,-1 -2,0 -4,1 -6,2 -2,1 -3,3 -4,5 -1,3 -1,7 -1,12l0 27 -15 0 0 -56z"/>
   <path id="12" class="fil1" d="M983 522l16 0 0 43c0,6 1,11 1,13 1,3 2,5 5,7 2,2 6,3 10,3 4,0 8,-1 10,-2 2,-2 4,-4 4,-7 1,-3 1,-7 1,-13l0 -44 16 0 0 41c0,10 -1,16 -2,20 -1,4 -2,7 -4,10 -3,3 -6,5 -10,6 -3,2 -8,3 -15,3 -7,0 -13,-1 -16,-3 -4,-1 -7,-4 -10,-6 -2,-3 -3,-6 -4,-9 -1,-5 -2,-11 -2,-20l0 -42z"/>
   <path id="13" class="fil1" d="M1114 600l-15 0 0 -28c0,-7 -1,-10 -1,-12 -1,-2 -2,-3 -3,-4 -2,-1 -4,-2 -6,-2 -2,0 -5,1 -7,2 -2,2 -3,4 -4,6 -1,2 -1,7 -1,13l0 25 -15 0 0 -56 14 0 0 8c5,-6 11,-9 19,-9 3,0 6,0 9,1 2,2 4,3 6,5 1,2 2,4 3,6 0,3 1,6 1,10l0 35z"/>
   <path id="14" class="fil1" d="M1129 536l0 -14 15 0 0 14 -15 0zm0 64l0 -56 15 0 0 56 -15 0z"/>
   <path id="15" class="fil1" d="M1185 544l0 12 -10 0 0 23c0,4 0,7 0,8 0,1 1,1 1,2 1,0 2,0 3,0 1,0 3,0 6,-1l1 12c-3,1 -7,2 -12,2 -2,0 -5,-1 -7,-2 -2,0 -4,-2 -5,-3 -1,-1 -1,-3 -2,-6 0,-2 0,-5 0,-11l0 -24 -7 0 0 -12 7 0 0 -11 15 -9 0 20 10 0z"/>
   <path class="fil2" d="M283 895l0 9 -51 0c0,-2 0,-4 1,-7 1,-3 3,-7 6,-10 3,-3 7,-7 13,-12 8,-7 14,-12 17,-16 3,-4 4,-8 4,-12 0,-4 -1,-7 -4,-10 -2,-2 -6,-3 -10,-3 -5,0 -9,1 -11,4 -3,2 -5,6 -5,11l-9 -1c0,-7 3,-13 7,-17 5,-3 10,-5 18,-5 7,0 13,2 18,6 4,4 6,9 6,15 0,3 0,7 -2,10 -1,3 -3,6 -6,9 -3,3 -8,8 -15,14 -6,5 -9,8 -11,10 -2,1 -3,3 -4,5l38 0z"/>
   <path id="1" class="fil2" d="M294 884l10 -1c1,5 2,8 5,11 3,2 6,4 10,4 4,0 8,-2 12,-6 3,-3 4,-8 4,-14 0,-5 -1,-9 -4,-13 -3,-3 -7,-4 -12,-4 -3,0 -6,0 -9,2 -2,1 -4,3 -5,5l-10 -1 8 -40 39 0 0 9 -31 0 -4 21c4,-3 9,-5 14,-5 7,0 13,3 17,7 5,5 7,11 7,19 0,7 -2,13 -6,18 -5,6 -12,9 -20,9 -7,0 -13,-2 -18,-6 -4,-4 -7,-9 -7,-15z"/>
   <path id="2" class="fil2" d="M360 904l0 -11 10 0 0 11c0,4 0,7 -2,10 -1,2 -3,4 -6,6l-3 -5c2,0 3,-2 4,-4 1,-1 2,-4 2,-7l-5 0z"/>
   <path id="3" class="fil2" d="M385 866c0,-10 1,-17 3,-23 1,-5 4,-10 8,-13 4,-3 8,-4 14,-4 4,0 8,0 11,2 3,2 6,4 8,7 2,4 4,7 5,12 1,5 2,11 2,19 0,9 -1,16 -3,22 -2,5 -5,10 -9,13 -3,3 -8,4 -14,4 -7,0 -13,-2 -18,-8 -5,-6 -7,-17 -7,-31zm10 0c0,12 1,21 4,25 3,4 7,7 11,7 5,0 8,-3 11,-7 3,-4 5,-13 5,-25 0,-13 -2,-22 -5,-26 -3,-4 -6,-6 -11,-6 -4,0 -8,1 -11,5 -3,5 -4,14 -4,27z"/>
   <path id="4" class="fil2" d="M445 866c0,-10 1,-17 3,-23 2,-5 5,-10 9,-13 3,-3 8,-4 14,-4 4,0 8,0 11,2 3,2 6,4 8,7 2,4 3,7 4,12 2,5 2,11 2,19 0,9 -1,16 -3,22 -1,5 -4,10 -8,13 -4,3 -8,4 -14,4 -8,0 -14,-2 -18,-8 -5,-6 -8,-17 -8,-31zm10 0c0,12 2,21 5,25 3,4 6,7 11,7 4,0 8,-3 11,-7 3,-4 4,-13 4,-25 0,-13 -1,-22 -4,-26 -3,-4 -7,-6 -11,-6 -5,0 -8,1 -11,5 -3,5 -5,14 -5,27z"/>
   <polygon id="5" class="fil2" points="540,904 540,826 550,826 550,865 589,826 603,826 570,858 604,904 591,904 563,865 550,877 550,904 "/>
   <path id="6" class="fil2" d="M612 837l0 -11 9 0 0 11 -9 0zm0 67l0 -57 9 0 0 57 -9 0z"/>
   <polygon id="7" class="fil2" points="636,904 636,826 645,826 645,904 "/>
   <path id="8" class="fil2" d="M657 876c0,-11 3,-18 8,-23 5,-5 11,-7 18,-7 8,0 14,3 19,8 5,5 8,12 8,21 0,7 -1,13 -4,17 -2,4 -5,7 -9,10 -4,2 -9,3 -14,3 -8,0 -14,-2 -19,-7 -5,-5 -7,-13 -7,-22zm9 0c0,7 2,12 5,16 3,4 7,5 12,5 5,0 9,-1 12,-5 3,-4 5,-9 5,-17 0,-7 -2,-12 -5,-15 -3,-4 -7,-6 -12,-6 -5,0 -9,2 -12,6 -3,3 -5,9 -5,16z"/>
   <path id="9" class="fil2" d="M719 909l9 1c1,3 2,5 4,6 2,2 5,3 9,3 5,0 8,-1 11,-3 2,-1 4,-4 5,-7 0,-2 0,-6 0,-12 -4,5 -9,7 -15,7 -8,0 -14,-3 -18,-8 -5,-6 -7,-13 -7,-21 0,-5 1,-10 3,-14 2,-5 5,-9 9,-11 3,-3 8,-4 13,-4 6,0 12,3 16,8l0 -7 9 0 0 49c0,9 -1,15 -3,19 -1,4 -4,7 -8,9 -4,2 -9,3 -14,3 -7,0 -13,-2 -17,-5 -4,-3 -6,-7 -6,-13zm8 -34c0,7 2,13 4,16 3,3 7,5 12,5 4,0 8,-2 11,-5 3,-3 4,-9 4,-16 0,-7 -1,-12 -4,-16 -4,-3 -7,-5 -12,-5 -4,0 -7,2 -10,5 -3,4 -5,9 -5,16z"/>
   <path id="10" class="fil2" d="M782 904l0 -57 8 0 0 9c2,-4 4,-7 6,-8 2,-1 4,-2 6,-2 4,0 7,1 10,3l-3 9c-2,-1 -5,-2 -7,-2 -2,0 -4,1 -6,2 -1,1 -3,3 -3,5 -1,4 -2,7 -2,11l0 30 -9 0z"/>
   <path id="11" class="fil2" d="M855 897c-4,3 -7,5 -10,6 -4,2 -7,2 -11,2 -6,0 -11,-1 -14,-4 -4,-3 -5,-7 -5,-12 0,-3 0,-5 2,-7 1,-3 2,-5 5,-6 2,-1 4,-2 6,-3 2,-1 5,-1 9,-2 8,0 13,-2 17,-3 0,-1 0,-2 0,-2 0,-4 -1,-7 -3,-9 -2,-2 -6,-3 -11,-3 -4,0 -7,1 -10,3 -2,1 -3,4 -4,8l-10 -1c1,-4 3,-8 5,-10 1,-3 4,-4 8,-6 4,-1 8,-2 13,-2 5,0 9,1 12,2 3,1 5,3 6,4 2,2 3,4 3,7 1,1 1,4 1,9l0 12c0,9 0,15 0,17 1,3 2,5 3,7l-10 0c-1,-2 -2,-4 -2,-7zm-1 -21c-3,1 -9,2 -16,3 -4,1 -6,1 -8,2 -2,1 -3,2 -4,3 -1,2 -1,3 -1,5 0,2 1,4 3,6 2,2 5,3 8,3 4,0 7,-1 10,-3 3,-1 5,-3 7,-6 1,-2 1,-6 1,-10l0 -3z"/>
   <path id="12" class="fil2" d="M879 904l0 -57 8 0 0 8c4,-6 10,-9 18,-9 4,0 7,1 10,2 2,1 5,3 6,5 1,2 2,4 3,7 0,2 1,5 1,9l0 35 -10 0 0 -34c0,-4 0,-7 -1,-9 -1,-2 -2,-4 -4,-5 -2,-1 -4,-1 -7,-1 -4,0 -7,1 -10,3 -3,3 -5,8 -5,15l0 31 -9 0z"/>
   <path id="13" class="fil2" d="M988 927c-5,-7 -10,-15 -13,-23 -4,-9 -6,-19 -6,-28 0,-9 1,-17 4,-25 3,-9 8,-17 15,-26l7 0c-4,7 -7,12 -9,15 -2,5 -4,10 -5,16 -1,6 -2,13 -2,20 0,17 5,34 16,51l-7 0z"/>
   <polygon id="14" class="fil2" points="1007,904 1007,826 1017,826 1017,865 1056,826 1070,826 1037,858 1071,904 1058,904 1030,865 1017,877 1017,904 "/>
   <path id="15" class="fil2" d="M1077 909l9 1c1,3 2,5 3,6 3,2 6,3 10,3 5,0 8,-1 11,-3 2,-1 4,-4 4,-7 1,-2 1,-6 1,-12 -4,5 -9,7 -16,7 -7,0 -13,-3 -18,-8 -4,-6 -6,-13 -6,-21 0,-5 1,-10 3,-14 2,-5 5,-9 8,-11 4,-3 8,-4 13,-4 7,0 13,3 17,8l0 -7 9 0 0 49c0,9 -1,15 -3,19 -2,4 -4,7 -8,9 -4,2 -9,3 -15,3 -6,0 -12,-2 -16,-5 -4,-3 -6,-7 -6,-13zm8 -34c0,7 1,13 4,16 3,3 7,5 11,5 5,0 8,-2 11,-5 3,-3 5,-9 5,-16 0,-7 -2,-12 -5,-16 -3,-3 -7,-5 -11,-5 -4,0 -8,2 -11,5 -3,4 -4,9 -4,16z"/>
   <path id="16" class="fil2" d="M1146 927l-7 0c10,-17 16,-34 16,-51 0,-7 -1,-13 -3,-20 -1,-5 -2,-10 -5,-15 -1,-4 -4,-9 -8,-16l7 0c6,9 11,17 14,26 3,8 5,16 5,25 0,9 -2,19 -6,28 -4,8 -8,16 -13,23z"/>
   <path class="fil3" d="M191 930l2270 0c13,0 23,10 23,22l0 245c0,12 -10,22 -23,22l-2270 0c-12,0 -22,-10 -22,-22l0 -245c0,-12 10,-22 22,-22z"/>
   <path class="fil4" d="M191 975l2270 0c10,0 18,6 18,14l0 183c0,7 -8,13 -18,13l-2270 0c-10,0 -18,-6 -18,-13l0 -183c0,-8 8,-14 18,-14z"/>
   <path class="fil0" d="M191 1655l568 0c12,0 22,9 22,20l0 169c0,11 -10,20 -22,20l-568 0c-12,0 -22,-9 -22,-20l0 -169c0,-11 10,-20 22,-20z"/>
   <path class="fil3" d="M915 1643l500 0c13,0 23,10 23,22l0 189c0,12 -10,22 -23,22l-500 0c-13,0 -23,-10 -23,-22l0 -189c0,-12 10,-22 23,-22z"/>
   <path class="fil2" d="M266 1109l-10 0 0 -62c-2,3 -5,5 -9,7 -4,2 -7,4 -10,5l0 -9c5,-3 10,-6 14,-9 4,-4 7,-8 8,-11l7 0 0 79z"/>
   <path id="1" class="fil2" d="M340 1099l0 10 -51 0c0,-3 0,-5 1,-7 1,-4 3,-7 6,-11 3,-3 7,-7 13,-11 8,-7 14,-13 17,-17 3,-4 5,-8 5,-11 0,-4 -2,-7 -5,-10 -2,-3 -6,-4 -10,-4 -5,0 -9,1 -11,4 -3,3 -5,7 -5,12l-9 -1c0,-8 3,-13 7,-17 5,-4 11,-6 18,-6 8,0 13,2 18,6 4,4 6,10 6,16 0,3 0,6 -2,9 -1,3 -3,6 -6,10 -3,3 -8,8 -15,13 -5,5 -9,8 -11,10 -1,2 -3,4 -4,5l38 0z"/>
   <path id="2" class="fil2" d="M356 1063l0 -11 11 0 0 11 -11 0zm0 46l0 -11 11 0 0 11 -11 0z"/>
   <path id="3" class="fil2" d="M417 1109l-9 0 0 -62c-3,3 -6,5 -9,7 -4,2 -8,4 -11,5l0 -9c6,-3 10,-6 14,-9 4,-4 7,-8 9,-11l6 0 0 79z"/>
   <path id="4" class="fil2" d="M442 1070c0,-9 1,-17 3,-22 2,-6 4,-10 8,-13 4,-3 9,-5 14,-5 4,0 8,1 11,3 3,1 6,4 8,7 2,3 4,7 5,12 1,4 2,10 2,18 0,9 -1,17 -3,22 -2,6 -5,10 -9,13 -3,3 -8,5 -14,5 -7,0 -13,-3 -17,-8 -6,-7 -8,-17 -8,-32zm10 0c0,13 1,21 4,26 3,4 7,6 11,6 5,0 8,-2 11,-6 3,-5 5,-13 5,-26 0,-13 -2,-21 -5,-26 -3,-4 -6,-6 -11,-6 -4,0 -8,2 -10,6 -4,4 -5,13 -5,26z"/>
   <path id="5" class="fil2" d="M508 1063l0 -11 11 0 0 11 -11 0zm0 46l0 -11 11 0 0 11 -11 0z"/>
   <path id="6" class="fil2" d="M583 1099l0 10 -52 0c0,-3 1,-5 2,-7 1,-4 3,-7 6,-11 3,-3 7,-7 12,-11 9,-7 15,-13 18,-17 3,-4 4,-8 4,-11 0,-4 -1,-7 -4,-10 -3,-3 -6,-4 -11,-4 -4,0 -8,1 -11,4 -2,3 -4,7 -4,12l-10 -1c1,-8 4,-13 8,-17 4,-4 10,-6 18,-6 7,0 13,2 17,6 5,4 7,10 7,16 0,3 -1,6 -2,9 -1,3 -3,6 -6,10 -3,3 -8,8 -15,13 -6,5 -10,8 -11,10 -2,2 -3,4 -4,5l38 0z"/>
   <path id="7" class="fil2" d="M644 1099l0 10 -52 0c0,-3 0,-5 1,-7 2,-4 4,-7 7,-11 3,-3 7,-7 12,-11 9,-7 14,-13 17,-17 3,-4 5,-8 5,-11 0,-4 -1,-7 -4,-10 -3,-3 -6,-4 -11,-4 -5,0 -8,1 -11,4 -3,3 -4,7 -4,12l-10 -1c1,-8 3,-13 8,-17 4,-4 10,-6 17,-6 8,0 14,2 18,6 5,4 7,10 7,16 0,3 -1,6 -2,9 -1,3 -4,6 -7,10 -3,3 -7,8 -14,13 -6,5 -10,8 -11,10 -2,2 -3,4 -5,5l39 0z"/>
   <polygon id="8" class="fil2" points="689,1109 689,1030 699,1030 699,1063 740,1063 740,1030 750,1030 750,1109 740,1109 740,1072 699,1072 699,1109 "/>
   <path id="9" class="fil2" d="M762 1080c0,-10 3,-18 9,-23 5,-4 11,-6 18,-6 8,0 14,2 19,7 5,5 7,12 7,21 0,8 -1,13 -3,18 -2,4 -5,7 -9,9 -5,3 -9,4 -14,4 -8,0 -14,-3 -19,-8 -5,-5 -8,-12 -8,-22zm10 0c0,7 2,13 5,16 3,4 7,6 12,6 5,0 9,-2 12,-6 3,-3 5,-9 5,-16 0,-7 -2,-12 -5,-16 -3,-4 -7,-5 -12,-5 -5,0 -9,1 -12,5 -3,4 -5,9 -5,16z"/>
   <path id="10" class="fil2" d="M864 1109l0 -9c-5,7 -11,10 -18,10 -4,0 -7,-1 -10,-2 -3,-1 -5,-3 -6,-5 -1,-2 -2,-4 -3,-7 0,-2 -1,-5 -1,-9l0 -35 10 0 0 31c0,5 0,9 1,10 0,3 1,5 3,6 2,2 5,2 8,2 2,0 5,0 8,-2 2,-1 4,-3 5,-6 1,-2 2,-6 2,-11l0 -30 9 0 0 57 -8 0z"/>
   <path id="11" class="fil2" d="M887 1109l0 -57 9 0 0 9c2,-4 4,-7 6,-8 2,-2 4,-2 6,-2 3,0 7,1 10,3l-3 9c-3,-2 -5,-2 -7,-2 -3,0 -4,0 -6,2 -2,1 -3,3 -4,5 -1,3 -1,7 -1,11l0 30 -10 0z"/>
   <path id="12" class="fil2" d="M972 1131c-5,-6 -9,-14 -13,-23 -4,-9 -6,-18 -6,-28 0,-8 2,-16 4,-24 4,-9 9,-18 15,-27l7 0c-4,7 -7,13 -8,16 -3,5 -4,10 -6,15 -1,7 -2,14 -2,20 0,17 6,34 16,51l-7 0z"/>
   <polygon id="13" class="fil2" points="992,1109 992,1030 1002,1030 1002,1063 1043,1063 1043,1030 1053,1030 1053,1109 1043,1109 1043,1072 1002,1072 1002,1109 "/>
   <path id="14" class="fil2" d="M1069 1109l0 -57 9 0 0 9c2,-4 4,-7 6,-8 2,-2 4,-2 6,-2 3,0 6,1 10,3l-4 9c-2,-2 -4,-2 -7,-2 -2,0 -4,0 -5,2 -2,1 -3,3 -4,5 -1,3 -1,7 -1,11l0 30 -10 0z"/>
   <path id="15" class="fil2" d="M1112 1131l-7 0c10,-17 16,-34 16,-51 0,-6 -1,-13 -3,-20 -1,-5 -2,-10 -5,-15 -1,-3 -4,-8 -8,-16l7 0c6,9 11,18 14,27 3,8 5,16 5,24 0,10 -2,19 -6,28 -4,9 -8,17 -13,23z"/>
   <path class="fil5" d="M268 1770l9 3c-2,7 -5,13 -11,17 -5,5 -11,7 -18,7 -8,0 -14,-2 -19,-5 -5,-3 -9,-8 -11,-14 -3,-6 -4,-12 -4,-19 0,-7 1,-14 4,-19 3,-6 7,-10 12,-13 6,-3 11,-4 18,-4 7,0 13,1 18,5 5,4 8,9 10,15l-9 3c-2,-6 -4,-9 -8,-12 -3,-2 -7,-3 -11,-3 -6,0 -11,1 -14,4 -4,2 -7,6 -8,10 -1,5 -2,9 -2,14 0,6 1,11 2,16 2,4 5,8 9,10 3,2 7,3 12,3 5,0 10,-1 13,-4 4,-3 6,-8 8,-14z"/>
   <path id="1" class="fil5" d="M288 1795l0 -52 8 0 0 8c2,-3 3,-6 5,-7 2,-1 4,-2 6,-2 3,0 6,1 9,3l-3 8c-2,-1 -5,-2 -7,-2 -2,0 -3,1 -5,2 -1,1 -2,3 -3,5 -1,3 -2,7 -2,10l0 27 -8 0z"/>
   <path id="2" class="fil5" d="M356 1779l10 1c-2,5 -4,9 -8,12 -4,3 -9,4 -15,4 -8,0 -14,-2 -18,-7 -5,-4 -7,-11 -7,-19 0,-9 2,-16 7,-20 4,-5 10,-8 17,-8 7,0 13,3 17,7 5,5 7,12 7,20 0,1 0,2 0,3l-39 0c1,5 2,10 5,13 3,3 7,4 11,4 3,0 6,-1 8,-2 2,-2 4,-5 5,-8zm-28 -15l29 0c-1,-4 -2,-7 -4,-9 -3,-4 -6,-5 -11,-5 -4,0 -7,1 -10,4 -3,2 -4,6 -4,10z"/>
   <path id="3" class="fil5" d="M411 1789c-4,3 -7,5 -10,6 -3,1 -6,1 -10,1 -5,0 -10,-1 -13,-4 -3,-2 -4,-6 -4,-10 0,-3 0,-5 1,-7 2,-2 3,-4 5,-5 2,-2 4,-3 6,-3 2,-1 5,-1 8,-2 7,0 13,-1 16,-3 0,-1 0,-1 0,-2 0,-3 -1,-6 -3,-7 -2,-2 -5,-3 -10,-3 -4,0 -7,0 -9,2 -2,1 -3,4 -4,8l-9 -2c1,-3 2,-6 4,-9 2,-2 4,-4 8,-5 3,-1 7,-2 12,-2 4,0 8,1 11,2 2,1 4,2 6,4 1,1 2,3 2,6 1,1 1,4 1,8l0 12c0,8 0,13 0,15 1,2 1,4 3,6l-10 0c-1,-1 -1,-4 -1,-6zm-1 -20c-3,2 -8,3 -14,4 -4,0 -7,1 -8,1 -2,1 -3,2 -4,3 0,2 -1,3 -1,4 0,3 1,5 3,6 2,2 4,3 8,3 3,0 6,-1 9,-3 2,-1 4,-3 5,-6 1,-2 2,-5 2,-8l0 -4z"/>
   <path id="4" class="fil5" d="M451 1788l2 7c-3,1 -5,1 -7,1 -3,0 -6,0 -7,-1 -2,-1 -3,-3 -4,-4 -1,-2 -1,-6 -1,-11l0 -30 -7 0 0 -7 7 0 0 -12 9 -6 0 18 8 0 0 7 -8 0 0 31c0,2 0,4 0,5 0,0 1,1 2,1 0,1 1,1 3,1 1,0 2,0 3,0z"/>
   <path id="5" class="fil5" d="M496 1779l9 1c-2,5 -4,9 -8,12 -4,3 -9,4 -15,4 -8,0 -14,-2 -18,-7 -5,-4 -7,-11 -7,-19 0,-9 2,-16 7,-20 4,-5 10,-8 17,-8 7,0 13,3 17,7 5,5 7,12 7,20 0,1 0,2 0,3l-39 0c1,5 2,10 5,13 3,3 7,4 11,4 3,0 6,-1 8,-2 2,-2 4,-5 6,-8zm-29 -15l29 0c-1,-4 -2,-7 -4,-9 -2,-4 -6,-5 -11,-5 -4,0 -7,1 -10,4 -2,2 -4,6 -4,10z"/>
   <polygon id="6" class="fil5" points="545,1795 545,1724 554,1724 592,1780 592,1724 601,1724 601,1795 591,1795 554,1739 554,1795 "/>
   <path id="7" class="fil5" d="M651 1779l9 1c-1,5 -4,9 -8,12 -4,3 -8,4 -15,4 -7,0 -13,-2 -18,-7 -4,-4 -6,-11 -6,-19 0,-9 2,-16 7,-20 4,-5 10,-8 17,-8 7,0 13,3 17,7 4,5 7,12 7,20 0,1 0,2 -1,3l-38 0c0,5 2,10 5,13 3,3 6,4 10,4 4,0 6,-1 9,-2 2,-2 4,-5 5,-8zm-29 -15l29 0c0,-4 -1,-7 -3,-9 -3,-4 -6,-5 -11,-5 -4,0 -7,1 -10,4 -3,2 -4,6 -5,10z"/>
   <path id="8" class="fil5" d="M681 1795l-16 -52 9 0 8 30 3 12c1,-1 1,-5 3,-11l8 -31 9 0 8 31 3 10 3 -11 9 -30 8 0 -16 52 -9 0 -8 -31 -2 -9 -11 40 -9 0z"/>
   <g>
    <path class="fil1" d="M1495 1657l-567 0 0 -4 567 0 0 0 0 4zm25 18l-5 0 0 0 0 -1 0 -1 0 -1 0 -1 0 -1 -1 0 0 -1 0 -1 -1 -1 0 -1 -1 0 0 -1 -1 -1 0 0 -1 -1 -1 -1 0 0 -1 -1 -1 0 -1 -1 0 0 -1 -1 -1 0 -1 -1 -1 0 -1 0 -1 0 -1 -1 -1 0 -1 0 -1 0 -1 0 0 -4 1 0 2 0 1 0 1 0 1 0 1 0 2 1 1 0 1 1 1 0 1 1 1 0 1 1 1 1 1 0 0 1 1 1 1 1 1 0 0 1 1 1 1 1 0 1 1 1 0 1 1 1 0 1 0 1 0 1 1 1 0 2 0 1 0 0zm-5 169l0 -169 5 0 0 169 0 0 -5 0zm-20 23l0 -5 0 0 1 0 1 0 1 0 1 0 1 0 1 -1 1 0 1 0 1 -1 1 0 1 -1 0 0 1 0 1 -1 1 -1 0 0 1 -1 1 0 0 -1 1 -1 0 -1 1 0 0 -1 1 -1 0 -1 0 0 1 -1 0 -1 0 -1 0 -1 0 -1 0 -1 5 0 0 2 0 1 -1 1 0 1 0 1 0 1 -1 1 0 1 -1 1 0 1 -1 1 -1 1 0 1 -1 1 -1 0 -1 1 0 1 -1 1 -1 0 -1 1 -1 0 -1 1 -1 0 -1 1 -1 0 -2 1 -1 0 -1 0 -1 0 -1 1 -2 0 -1 0 0 0zm-567 -5l567 0 0 5 -567 0 0 0 0 -5zm-25 -18l5 0 0 0 0 1 0 1 0 1 0 1 0 1 1 1 0 0 0 1 1 1 0 1 1 0 0 1 1 1 0 1 1 0 0 1 1 0 1 1 1 1 0 0 1 0 1 1 1 0 1 1 1 0 1 0 1 1 1 0 1 0 1 0 1 0 1 0 0 5 -2 0 -1 0 -1 -1 -1 0 -1 0 -2 0 -1 -1 -1 0 -1 -1 -1 0 -1 -1 -1 0 -1 -1 -1 0 -1 -1 -1 -1 0 -1 -1 0 -1 -1 -1 -1 0 -1 -1 -1 0 -1 -1 -1 0 -1 -1 -1 0 -1 0 -1 -1 -1 0 -1 0 -1 0 -2 0 0zm5 -169l0 169 -5 0 0 -169 0 0 5 0zm20 -22l0 4 0 0 -1 0 -1 0 -1 0 -1 0 -1 1 -1 0 -1 0 -1 0 -1 1 -1 0 -1 1 -1 0 0 1 -1 0 -1 1 -1 0 0 1 -1 1 0 0 -1 1 0 1 -1 0 0 1 -1 1 0 1 0 1 -1 0 0 1 0 1 0 1 0 1 0 1 -5 0 0 -1 0 -2 0 -1 1 -1 0 -1 0 -1 1 -1 0 -1 1 -1 0 -1 1 -1 0 -1 1 -1 1 0 1 -1 0 -1 1 -1 1 0 1 -1 1 -1 1 0 1 -1 1 0 1 -1 1 0 1 -1 2 0 1 0 1 0 1 0 1 0 2 0 0 0z"/>
   </g>
   <path class="fil1" d="M1107 1771l10 3c-2,8 -6,15 -12,19 -5,5 -12,7 -20,7 -9,0 -15,-2 -21,-5 -5,-4 -9,-9 -12,-15 -2,-7 -4,-14 -4,-21 0,-8 2,-15 5,-21 3,-6 7,-11 13,-14 6,-3 12,-5 19,-5 8,0 14,2 20,6 5,4 9,10 11,17l-10 2c-2,-5 -5,-9 -8,-12 -4,-3 -8,-4 -13,-4 -6,0 -11,1 -15,4 -4,3 -7,7 -9,12 -1,5 -2,10 -2,15 0,7 1,12 3,17 2,5 5,9 9,11 4,3 8,4 13,4 6,0 11,-2 15,-5 4,-3 6,-8 8,-15z"/>
   <path id="1" class="fil1" d="M1166 1792c-4,3 -7,5 -11,6 -3,1 -6,2 -10,2 -6,0 -11,-2 -15,-5 -3,-3 -5,-7 -5,-11 0,-3 1,-6 2,-8 2,-2 3,-4 5,-5 2,-2 5,-3 7,-4 2,0 5,0 9,-1 8,-1 13,-2 17,-3 0,-2 0,-2 0,-3 0,-4 -1,-6 -3,-8 -2,-2 -6,-3 -11,-3 -4,0 -8,1 -10,2 -2,2 -3,5 -5,9l-9 -2c1,-4 2,-7 4,-9 2,-3 5,-5 9,-6 4,-2 8,-2 13,-2 5,0 8,0 12,2 3,1 5,2 6,4 2,2 3,4 3,6 1,2 1,5 1,9l0 13c0,9 0,14 0,17 1,2 1,4 3,7l-10 0c-1,-2 -2,-5 -2,-7zm-1 -22c-4,2 -9,3 -16,4 -4,0 -7,1 -8,2 -2,0 -3,2 -4,3 -1,1 -1,3 -1,4 0,3 1,5 3,7 2,1 4,2 8,2 4,0 7,0 10,-2 3,-2 5,-4 6,-7 1,-2 2,-5 2,-9l0 -4z"/>
   <path id="2" class="fil1" d="M1189 1799l0 -57 9 0 0 8c4,-6 10,-9 18,-9 3,0 7,0 9,2 3,1 5,2 7,4 1,2 2,5 3,8 0,1 0,4 0,9l0 35 -9 0 0 -35c0,-4 -1,-7 -1,-9 -1,-1 -2,-3 -4,-4 -2,-1 -4,-2 -7,-2 -4,0 -8,1 -11,4 -3,3 -4,8 -4,15l0 31 -10 0z"/>
   <path id="3" class="fil1" d="M1287 1778l9 1c-1,7 -3,12 -7,15 -5,4 -10,6 -16,6 -8,0 -14,-3 -19,-8 -4,-5 -7,-12 -7,-21 0,-7 1,-12 3,-16 2,-5 5,-8 10,-11 4,-2 8,-3 13,-3 6,0 11,1 15,4 4,4 6,8 8,14l-10 1c-1,-4 -2,-7 -4,-8 -3,-2 -5,-3 -9,-3 -4,0 -8,1 -11,5 -3,3 -5,9 -5,16 0,8 2,13 4,17 3,3 7,5 12,5 4,0 7,-1 9,-3 3,-3 4,-6 5,-11z"/>
   <path id="4" class="fil1" d="M1343 1780l10 2c-1,5 -4,10 -8,13 -5,3 -10,5 -17,5 -8,0 -14,-3 -19,-8 -5,-5 -8,-12 -8,-21 0,-10 3,-17 8,-22 5,-6 11,-8 19,-8 7,0 14,2 18,8 5,5 8,12 8,21 0,1 -1,2 -1,3l-42 0c1,6 2,11 6,14 3,3 7,5 11,5 4,0 7,-1 9,-3 3,-2 5,-5 6,-9zm-31 -15l31 0c0,-5 -1,-8 -3,-11 -3,-3 -7,-5 -12,-5 -5,0 -8,1 -11,4 -3,3 -5,7 -5,12z"/>
   <polygon id="5" class="fil1" points="1365,1799 1365,1721 1375,1721 1375,1799 "/>
   <path class="fil2" d="M230 1292l10 0c0,5 2,8 5,11 2,2 6,3 10,3 4,0 8,-1 11,-5 4,-3 5,-8 5,-14 0,-5 -1,-9 -4,-13 -3,-3 -8,-4 -13,-4 -3,0 -5,0 -8,2 -2,1 -4,3 -6,5l-9 -1 8 -40 39 0 0 9 -32 0 -4 21c5,-3 10,-5 15,-5 7,0 13,3 17,7 5,5 7,11 7,18 0,8 -2,14 -6,19 -5,6 -12,9 -20,9 -8,0 -13,-2 -18,-6 -4,-4 -7,-9 -7,-16z"/>
   <path id="1" class="fil2" d="M340 1254l-9 1c-1,-4 -3,-7 -4,-8 -3,-3 -6,-5 -10,-5 -3,0 -6,1 -8,3 -3,2 -5,5 -7,10 -2,4 -3,10 -3,18 3,-4 5,-6 9,-8 3,-2 7,-3 10,-3 7,0 12,3 17,7 4,5 6,11 6,19 0,5 -1,9 -3,13 -2,4 -5,8 -9,10 -3,2 -7,3 -12,3 -8,0 -15,-3 -20,-9 -5,-5 -7,-15 -7,-29 0,-15 3,-26 8,-32 5,-6 12,-9 20,-9 6,0 11,1 15,5 4,3 6,8 7,14zm-39 34c0,3 0,6 2,9 1,3 3,5 6,7 2,2 5,2 8,2 4,0 7,-1 10,-4 3,-4 5,-8 5,-14 0,-5 -2,-9 -5,-13 -3,-3 -6,-4 -11,-4 -4,0 -8,1 -11,4 -3,4 -4,8 -4,13z"/>
   <polygon id="2" class="fil2" points="385,1313 385,1235 396,1235 437,1296 437,1235 446,1235 446,1313 436,1313 395,1252 395,1313 "/>
   <path id="3" class="fil2" d="M500 1313l0 -8c-5,6 -11,9 -18,9 -4,0 -7,0 -10,-2 -3,-1 -5,-3 -6,-5 -1,-1 -2,-4 -3,-7 0,-2 -1,-5 -1,-9l0 -35 10 0 0 32c0,5 0,8 1,10 0,2 1,4 3,6 2,1 5,2 8,2 2,0 5,-1 8,-2 2,-2 4,-4 5,-6 1,-3 2,-7 2,-11l0 -31 9 0 0 57 -8 0z"/>
   <path id="4" class="fil2" d="M523 1313l0 -57 9 0 0 8c2,-2 4,-5 7,-6 3,-2 6,-3 10,-3 4,0 8,1 10,3 3,2 5,4 6,7 4,-7 10,-10 18,-10 5,0 9,2 13,5 3,3 4,8 4,14l0 39 -10 0 0 -36c0,-3 0,-6 0,-8 -1,-2 -2,-3 -4,-4 -2,-1 -3,-2 -6,-2 -4,0 -7,2 -10,4 -2,3 -4,7 -4,13l0 33 -9 0 0 -37c0,-4 -1,-7 -2,-9 -2,-2 -5,-4 -8,-4 -3,0 -5,1 -8,3 -2,1 -4,3 -5,6 -1,3 -1,7 -1,12l0 29 -10 0z"/>
   <path id="5" class="fil2" d="M623 1313l-9 0 0 -78 10 0 0 28c4,-5 9,-8 15,-8 4,0 7,1 10,2 3,2 6,4 8,6 2,3 3,6 4,9 2,4 2,8 2,12 0,10 -2,17 -7,22 -5,6 -11,8 -17,8 -7,0 -12,-3 -16,-8l0 7zm0 -29c0,7 1,12 3,15 3,5 7,7 12,7 4,0 8,-1 11,-5 3,-4 4,-9 4,-16 0,-8 -1,-13 -4,-17 -3,-3 -7,-5 -11,-5 -4,0 -8,2 -11,5 -3,4 -4,9 -4,16z"/>
   <path id="6" class="fil2" d="M713 1295l10 1c-1,6 -4,10 -8,13 -4,4 -10,5 -16,5 -9,0 -15,-2 -20,-7 -5,-6 -7,-13 -7,-22 0,-9 2,-17 7,-22 5,-5 11,-8 19,-8 8,0 14,3 19,8 4,5 7,12 7,22 0,0 0,1 0,2l-43 0c1,6 3,11 6,14 3,4 7,5 12,5 3,0 6,-1 9,-2 2,-2 4,-5 5,-9zm-31 -16l32 0c-1,-4 -2,-8 -4,-10 -3,-4 -7,-6 -12,-6 -4,0 -8,2 -11,4 -3,3 -5,7 -5,12z"/>
   <path id="7" class="fil2" d="M735 1313l0 -57 9 0 0 9c2,-4 4,-7 6,-8 2,-1 4,-2 6,-2 4,0 7,1 10,3l-3 9c-3,-1 -5,-2 -7,-2 -2,0 -4,1 -6,2 -2,1 -3,3 -3,5 -1,4 -2,7 -2,11l0 30 -10 0z"/>
   <path id="8" class="fil2" d="M820 1336c-5,-7 -9,-15 -13,-24 -4,-8 -5,-18 -5,-27 0,-9 1,-17 4,-25 3,-9 8,-18 14,-26l7 0c-4,7 -7,12 -8,15 -2,5 -4,10 -5,16 -2,6 -3,13 -3,20 0,17 6,34 16,51l-7 0z"/>
   <polygon id="9" class="fil2" points="840,1313 840,1235 850,1235 891,1296 891,1235 901,1235 901,1313 890,1313 849,1252 849,1313 "/>
   <path id="10" class="fil2" d="M914 1285c0,-11 3,-19 8,-24 5,-4 11,-6 18,-6 8,0 14,3 19,8 5,5 8,12 8,21 0,7 -1,13 -4,17 -2,4 -5,7 -9,10 -4,2 -9,3 -14,3 -8,0 -14,-2 -19,-7 -5,-5 -7,-13 -7,-22zm9 0c0,7 2,12 5,16 3,4 7,5 12,5 5,0 9,-1 12,-5 3,-4 5,-9 5,-17 0,-7 -2,-12 -5,-15 -3,-4 -7,-6 -12,-6 -5,0 -9,2 -12,6 -3,3 -5,8 -5,16z"/>
   <path id="11" class="fil2" d="M974 1296l10 -1c0,3 2,6 4,8 2,2 6,3 10,3 5,0 8,-1 10,-2 2,-2 3,-4 3,-7 0,-2 -1,-4 -3,-5 -1,-1 -4,-2 -9,-3 -7,-2 -12,-3 -15,-5 -3,-1 -5,-3 -6,-5 -2,-2 -2,-5 -2,-8 0,-2 0,-4 1,-7 2,-2 3,-3 5,-5 2,-1 4,-2 6,-3 3,0 6,-1 9,-1 4,0 8,1 11,2 4,1 6,3 8,5 1,3 2,5 3,9l-9 1c-1,-3 -2,-5 -4,-6 -2,-2 -5,-3 -9,-3 -4,0 -7,1 -9,2 -2,2 -3,3 -3,5 0,2 0,3 1,4 1,1 2,2 4,2 1,1 4,1 8,3 7,1 12,3 14,4 3,1 5,3 7,5 1,2 2,5 2,8 0,4 -1,7 -3,9 -2,3 -4,5 -8,7 -3,1 -7,2 -12,2 -7,0 -13,-1 -17,-4 -3,-3 -6,-8 -7,-14z"/>
   <path id="12" class="fil2" d="M1039 1336l-7 0c11,-17 16,-34 16,-51 0,-7 -1,-14 -2,-20 -2,-5 -3,-11 -5,-15 -2,-4 -5,-9 -9,-16l7 0c6,8 11,17 15,26 2,8 4,16 4,25 0,9 -2,19 -6,27 -3,9 -8,17 -13,24z"/>
   <path class="fil2" d="M239 1497l10 -1c1,5 2,9 5,11 3,3 6,4 10,4 5,0 9,-2 12,-5 3,-4 5,-8 5,-14 0,-6 -2,-10 -5,-13 -3,-3 -7,-5 -12,-5 -3,0 -6,1 -8,2 -3,2 -5,4 -6,6l-9 -2 7 -40 39 0 0 9 -31 0 -4 22c4,-4 9,-5 14,-5 7,0 13,2 18,7 4,4 7,11 7,18 0,7 -2,13 -6,18 -5,7 -12,10 -21,10 -7,0 -13,-2 -17,-6 -5,-4 -7,-9 -8,-16z"/>
   <path id="1" class="fil2" d="M350 1458l-10 1c-1,-4 -2,-6 -4,-8 -2,-3 -5,-4 -9,-4 -3,0 -6,1 -8,2 -3,3 -6,6 -8,10 -1,4 -2,10 -2,18 2,-3 5,-6 8,-8 4,-1 7,-2 11,-2 6,0 12,2 16,7 5,5 7,11 7,18 0,5 -1,10 -3,14 -2,4 -5,7 -9,9 -4,3 -8,4 -13,4 -8,0 -14,-3 -19,-9 -5,-6 -8,-16 -8,-29 0,-15 3,-26 9,-33 4,-6 11,-9 19,-9 6,0 12,2 15,5 4,4 7,8 8,14zm-40 34c0,3 1,7 2,10 2,3 4,5 6,7 3,1 5,2 8,2 4,0 8,-2 11,-5 3,-3 4,-8 4,-13 0,-6 -1,-10 -4,-13 -3,-3 -7,-5 -11,-5 -5,0 -8,2 -11,5 -3,3 -5,7 -5,12z"/>
   <path id="2" class="fil2" d="M454 1509c4,3 9,6 13,7l-3 8c-6,-3 -11,-6 -17,-10 -6,3 -12,5 -19,5 -7,0 -14,-2 -19,-5 -6,-4 -10,-9 -14,-15 -3,-6 -4,-13 -4,-21 0,-7 1,-14 4,-21 4,-6 8,-11 14,-14 6,-3 12,-5 19,-5 7,0 14,2 20,5 5,4 10,8 13,15 3,6 4,13 4,20 0,7 -1,13 -3,18 -2,5 -4,9 -8,13zm-23 -13c6,2 11,4 15,7 6,-5 9,-14 9,-25 0,-6 -1,-11 -4,-16 -2,-5 -5,-9 -9,-11 -4,-3 -9,-4 -14,-4 -8,0 -14,3 -19,8 -5,5 -8,13 -8,23 0,11 3,18 8,24 5,5 11,8 19,8 4,0 7,-1 11,-2 -4,-2 -7,-4 -11,-5l3 -7z"/>
   <path id="3" class="fil2" d="M515 1517l0 -8c-4,6 -10,10 -18,10 -3,0 -6,-1 -9,-2 -3,-2 -5,-3 -7,-5 -1,-2 -2,-4 -3,-7 0,-2 0,-5 0,-9l0 -35 9 0 0 31c0,5 1,9 1,10 1,3 2,5 4,6 2,2 4,2 7,2 3,0 6,0 8,-2 3,-1 4,-3 6,-6 1,-2 1,-6 1,-11l0 -30 10 0 0 56 -9 0z"/>
   <path id="4" class="fil2" d="M539 1450l0 -11 9 0 0 11 -9 0zm0 67l0 -56 9 0 0 56 -9 0z"/>
   <path id="5" class="fil2" d="M563 1517l0 -56 9 0 0 8c4,-6 10,-9 18,-9 3,0 6,0 9,1 3,2 5,3 6,5 2,2 3,5 3,7 1,2 1,5 1,10l0 34 -10 0 0 -34c0,-4 0,-7 -1,-9 -1,-2 -2,-3 -4,-4 -2,-1 -4,-2 -6,-2 -4,0 -8,1 -11,4 -3,2 -4,7 -4,15l0 30 -10 0z"/>
   <path id="6" class="fil2" d="M645 1509l1 8c-3,1 -5,1 -7,1 -4,0 -7,0 -8,-1 -2,-2 -4,-3 -4,-5 -1,-2 -2,-5 -2,-11l0 -33 -7 0 0 -7 7 0 0 -14 10 -6 0 20 10 0 0 7 -10 0 0 33c0,3 0,5 0,6 1,0 1,1 2,2 1,0 2,0 3,0 1,0 3,0 5,0z"/>
   <path id="7" class="fil2" d="M691 1510c-4,3 -7,6 -10,7 -4,1 -7,2 -11,2 -6,0 -11,-2 -14,-5 -4,-3 -5,-7 -5,-11 0,-3 0,-6 2,-8 1,-2 3,-4 5,-6 2,-1 4,-2 7,-3 1,0 4,-1 8,-1 8,-1 14,-2 17,-3 0,-2 0,-3 0,-3 0,-4 -1,-7 -2,-8 -3,-2 -7,-3 -11,-3 -5,0 -8,0 -10,2 -3,2 -4,4 -5,8l-10 -1c1,-4 3,-7 5,-10 2,-2 4,-4 8,-5 4,-2 8,-2 13,-2 5,0 9,0 12,1 3,1 5,3 6,5 2,1 3,4 3,6 1,2 1,5 1,9l0 13c0,9 0,14 1,17 0,2 1,4 2,6l-10 0c-1,-2 -2,-4 -2,-7zm-1 -21c-3,2 -8,3 -15,4 -4,0 -7,1 -9,2 -2,0 -3,1 -4,3 -1,1 -1,3 -1,4 0,3 1,5 3,7 2,1 5,2 8,2 4,0 7,-1 10,-2 3,-2 5,-4 7,-7 1,-2 1,-5 1,-9l0 -4z"/>
   <polygon id="8" class="fil2" points="714,1517 714,1439 724,1439 724,1517 "/>
   <path id="9" class="fil2" d="M788 1540c-6,-6 -10,-14 -14,-23 -3,-9 -5,-18 -5,-28 0,-8 1,-16 4,-24 3,-9 8,-18 15,-27l6 0c-4,7 -7,13 -8,16 -2,5 -4,10 -5,15 -2,7 -2,13 -2,20 0,17 5,34 15,51l-6 0z"/>
   <path id="10" class="fil2" d="M866 1509c5,3 9,6 13,7l-3 8c-5,-3 -11,-6 -17,-10 -5,3 -12,5 -19,5 -7,0 -13,-2 -19,-5 -6,-4 -10,-9 -13,-15 -3,-6 -5,-13 -5,-21 0,-7 2,-14 5,-21 3,-6 7,-11 13,-14 6,-3 12,-5 19,-5 8,0 14,2 20,5 6,4 10,8 13,15 3,6 5,13 5,20 0,7 -1,13 -3,18 -2,5 -5,9 -9,13zm-23 -13c6,2 11,4 15,7 6,-5 9,-14 9,-25 0,-6 -1,-11 -3,-16 -2,-5 -5,-9 -10,-11 -4,-3 -8,-4 -14,-4 -7,0 -14,3 -19,8 -5,5 -7,13 -7,23 0,11 2,18 7,24 5,5 12,8 19,8 4,0 8,-1 11,-2 -3,-2 -7,-4 -10,-5l2 -7z"/>
   <path id="11" class="fil2" d="M911 1509l2 8c-3,1 -6,1 -8,1 -3,0 -6,0 -8,-1 -2,-2 -3,-3 -4,-5 -1,-2 -1,-5 -1,-11l0 -33 -7 0 0 -7 7 0 0 -14 10 -6 0 20 9 0 0 7 -9 0 0 33c0,3 0,5 0,6 1,0 1,1 2,2 1,0 2,0 3,0 1,0 3,0 4,0z"/>
   <polygon id="12" class="fil2" points="921,1517 921,1439 930,1439 930,1517 "/>
   <path id="13" class="fil2" d="M951 1540l-7 0c11,-17 16,-34 16,-51 0,-6 0,-13 -2,-20 -1,-5 -3,-10 -5,-15 -1,-3 -4,-9 -9,-16l7 0c7,9 12,18 15,27 3,8 4,16 4,24 0,10 -2,19 -5,28 -4,9 -8,17 -14,23z"/>
   <line class="fil3 str0" x1="179" y1="677" x2="2521" y2= "677" />
  </g>
  <ellipse class="fil0" cx="2611" cy="317" rx="316" ry="317"/>
  <g>
   <path class="fil6" d="M2486 303l-36 158c0,0 0,1 0,2 0,6 5,11 11,11l300 0c6,0 11,-5 11,-11 0,-1 0,-1 0,-2l-36 -158c-1,-4 -6,-8 -10,-8l-51 0c-6,0 -10,5 -10,11 0,6 4,11 10,11l42 0 31 136 -274 0 31 -136 42 0c6,0 10,-5 10,-11 0,-6 -4,-11 -10,-11l-50 0c-5,0 -10,4 -11,8l0 0z"/>
   <path class="fil6" d="M2611 431c-3,0 -5,-1 -7,-3l-61 -57c-2,-2 -3,-5 -3,-8 0,-3 0,-5 2,-8 2,-2 5,-3 8,-3 3,0 5,1 7,4l43 40 0 -226c0,-6 5,-11 11,-11 6,0 11,5 11,11l0 226 42 -41c3,-2 5,-3 8,-3 3,0 6,1 8,3 2,2 2,5 2,8 0,3 -1,6 -3,8l-61 57c-2,2 -4,3 -7,3 0,0 0,0 0,0l0 0z"/>
  </g>
 </g>
</svg>
