<?xml version="1.0" encoding="UTF-8"?>
<!DOCTYPE svg PUBLIC "-//W3C//DTD SVG 1.1//EN" "http://www.w3.org/Graphics/SVG/1.1/DTD/svg11.dtd">
<!-- Creator: CorelDRAW X8 -->
<svg xmlns="http://www.w3.org/2000/svg" xml:space="preserve" width="4.26099in" height="3in" version="1.1" style="shape-rendering:geometricPrecision; text-rendering:geometricPrecision; image-rendering:optimizeQuality; fill-rule:evenodd; clip-rule:evenodd"
viewBox="0 0 987 695"
 xmlns:xlink="http://www.w3.org/1999/xlink">
 <defs>
  <style type="text/css">
   <![CDATA[
    .str1 {stroke:#1A237E;stroke-width:3.06476}
    .str0 {stroke:#1A237E;stroke-width:1.53282}
    .fil1 {fill:none}
    .fil0 {fill:#1A237E}
    .fil3 {fill:#FEFEFE;fill-rule:nonzero}
    .fil2 {fill:#1A237E;fill-rule:nonzero}
   ]]>
  </style>
 </defs>
 <g id="Layer_x0020_1">
  <metadata id="CorelCorpID_0Corel-Layer"/>
  <circle class="fil0" cx="880" cy="107" r="107"/>
  <g id="_2490682391712">
   <path class="fil0" d="M870 104l-837 0c-18,0 -33,15 -33,33l0 525c0,18 15,33 33,33l837 0c19,0 34,-15 34,-33l0 -525c0,-18 -15,-33 -34,-33zm2 529c0,19 -15,34 -34,33l-773 0c-18,1 -34,-14 -34,-33l0 -468c0,-19 16,-34 34,-33l773 0c19,-1 34,14 35,33l0 468 -1 0z"/>
   <line class="fil1 str0" x1="55" y1="230" x2="815" y2= "227" />
   <path class="fil2" d="M60 176l10 0c2,0 4,0 5,0 1,1 2,1 3,1 1,1 1,2 2,3 0,1 1,2 1,3 0,1 -1,2 -1,3 -1,1 -2,2 -3,2 1,1 3,2 4,3 0,1 1,2 1,4 0,1 0,2 -1,3 -1,1 -1,2 -2,3 -1,1 -2,1 -4,1 -1,0 -3,0 -6,0l-9 0 0 -26zm5 4l0 7 4 0c2,0 3,0 3,-1 1,0 2,0 3,0 0,-1 0,-2 0,-3 0,0 0,-1 0,-1 -1,-1 -1,-1 -2,-1 -1,0 -2,-1 -5,-1l-3 0zm0 11l0 7 5 0c2,0 3,0 4,0 0,0 1,-1 2,-1 0,-1 0,-2 0,-2 0,-1 0,-2 0,-2 -1,-1 -1,-1 -2,-2 -1,0 -2,0 -5,0l-4 0z"/>
   <path id="1" class="fil2" d="M91 202l-5 0 0 -19 5 0 0 3c1,-1 1,-2 2,-2 1,-1 1,-1 2,-1 1,0 2,0 3,1l-1 4c-1,0 -2,-1 -3,-1 0,0 -1,1 -1,1 -1,0 -1,1 -1,2 -1,1 -1,3 -1,7l0 5z"/>
   <path id="2" class="fil2" d="M104 189l-4 -1c0,-1 1,-3 2,-4 2,-1 4,-1 6,-1 2,0 4,0 5,1 1,0 2,1 2,2 1,1 1,2 1,4l0 6c0,2 0,3 0,4 0,1 1,2 1,2l-5 0c0,0 0,0 0,-1 0,0 0,-1 -1,-1 0,1 -1,2 -2,2 -1,1 -2,1 -3,1 -2,0 -4,-1 -5,-2 -1,-1 -2,-2 -2,-4 0,-1 1,-2 1,-3 1,0 1,-1 2,-2 1,0 2,0 4,-1 3,0 4,-1 5,-1l0 0c0,-1 0,-2 -1,-3 0,0 -1,0 -2,0 -1,0 -2,0 -2,0 -1,1 -1,1 -2,2zm7 4c-1,1 -2,1 -3,1 -1,0 -2,1 -3,1 0,0 -1,1 -1,2 0,0 1,1 1,2 1,0 1,0 2,0 1,0 2,0 3,-1 0,0 1,-1 1,-1 0,-1 0,-1 0,-3l0 -1z"/>
   <path id="3" class="fil2" d="M138 202l-5 0 0 -9c0,-2 0,-4 0,-4 0,-1 -1,-1 -1,-2 -1,0 -1,0 -2,0 -1,0 -1,0 -2,1 -1,0 -1,1 -2,1 0,1 0,3 0,5l0 8 -5 0 0 -19 5 0 0 3c1,-2 3,-3 6,-3 1,0 2,0 3,1 1,0 2,0 2,1 1,1 1,1 1,2 0,1 0,2 0,4l0 11z"/>
   <path id="4" class="fil2" d="M160 189l-5 1c0,-1 0,-2 -1,-2 -1,-1 -1,-1 -2,-1 -2,0 -3,0 -3,1 -1,1 -1,3 -1,5 0,2 0,3 1,4 0,1 2,2 3,2 1,0 2,0 2,-1 1,-1 1,-1 1,-3l5 1c0,2 -1,4 -3,5 -1,1 -3,2 -5,2 -3,0 -5,-1 -7,-3 -2,-1 -3,-4 -3,-7 0,-3 1,-6 3,-7 2,-2 4,-3 7,-3 2,0 4,0 5,1 2,1 3,3 3,5z"/>
   <path id="5" class="fil2" d="M169 176l0 10c2,-2 4,-3 6,-3 1,0 2,0 3,1 1,0 2,1 2,1 1,1 1,2 1,2 0,1 0,3 0,4l0 11 -5 0 0 -10c0,-2 0,-3 0,-3 0,-1 -1,-1 -1,-2 -1,0 -1,0 -2,0 -1,0 -1,0 -2,0 -1,1 -1,1 -2,2 0,1 0,2 0,4l0 9 -5 0 0 -26 5 0z"/>
   <polygon id="6" class="fil2" points="203,202 203,181 195,181 195,176 216,176 216,181 208,181 208,202 "/>
   <path id="7" class="fil2" d="M222 202l-5 0 0 -19 5 0 0 3c0,-1 1,-2 2,-2 0,-1 1,-1 2,-1 1,0 2,0 3,1l-1 4c-1,0 -2,-1 -3,-1 0,0 -1,1 -2,1 0,0 0,1 -1,2 0,1 0,3 0,7l0 5z"/>
   <path id="8" class="fil2" d="M235 189l-4 -1c0,-1 1,-3 2,-4 2,-1 3,-1 6,-1 2,0 4,0 5,1 1,0 2,1 2,2 1,1 1,2 1,4l0 6c0,2 0,3 0,4 0,1 1,2 1,2l-5 0c0,0 0,0 -1,-1 0,0 0,-1 0,-1 -1,1 -1,2 -2,2 -1,1 -2,1 -4,1 -2,0 -3,-1 -4,-2 -1,-1 -2,-2 -2,-4 0,-1 0,-2 1,-3 0,0 1,-1 2,-2 1,0 2,0 4,-1 2,0 4,-1 5,-1l0 0c0,-1 0,-2 -1,-3 0,0 -1,0 -3,0 0,0 -1,0 -2,0 0,1 -1,1 -1,2zm7 4c-1,1 -2,1 -3,1 -2,0 -2,1 -3,1 -1,0 -1,1 -1,2 0,0 0,1 1,2 0,0 1,0 2,0 1,0 2,0 3,-1 0,0 1,-1 1,-1 0,-1 0,-1 0,-3l0 -1z"/>
   <path id="9" class="fil2" d="M269 202l-5 0 0 -9c0,-2 0,-4 0,-4 0,-1 -1,-1 -1,-2 -1,0 -1,0 -2,0 -1,0 -2,0 -2,1 -1,0 -2,1 -2,1 0,1 0,3 0,5l0 8 -5 0 0 -19 4 0 0 3c2,-2 4,-3 7,-3 1,0 2,0 3,1 1,0 1,0 2,1 0,1 1,1 1,2 0,1 0,2 0,4l0 11z"/>
   <path id="10" class="fil2" d="M273 197l5 -1c0,1 0,2 1,3 1,0 2,0 3,0 1,0 2,0 3,0 0,-1 0,-1 0,-2 0,0 0,0 0,-1 0,0 -1,0 -2,0 -4,-1 -6,-2 -7,-3 -2,-1 -3,-2 -3,-4 0,-2 1,-3 2,-4 2,-1 4,-2 6,-2 3,0 5,0 6,1 1,1 2,2 3,4l-5 1c0,-1 -1,-1 -1,-2 -1,0 -2,0 -3,0 -1,0 -2,0 -3,0 0,0 0,1 0,1 0,1 0,1 0,1 1,0 2,1 5,2 3,0 5,1 6,2 1,1 1,2 1,4 0,1 0,3 -2,4 -1,1 -3,2 -6,2 -3,0 -5,-1 -6,-2 -2,-1 -3,-2 -3,-4z"/>
   <path id="11" class="fil2" d="M293 183l2 0 0 -1c0,-2 1,-3 1,-4 0,0 1,-1 2,-2 1,0 2,0 3,0 2,0 3,0 5,0l-1 4c-1,0 -2,-1 -2,-1 -1,0 -2,1 -2,1 0,0 -1,1 -1,2l0 1 4 0 0 4 -4 0 0 15 -5 0 0 -15 -2 0 0 -4z"/>
   <path id="12" class="fil2" d="M318 196l5 1c-1,2 -2,4 -3,4 -1,1 -3,2 -5,2 -3,0 -6,-1 -8,-3 -1,-2 -1,-4 -1,-7 0,-3 0,-6 2,-7 2,-2 4,-3 6,-3 3,0 5,1 7,3 2,2 2,5 2,8l-12 0c0,2 0,3 1,4 1,1 2,1 3,1 1,0 1,0 2,-1 0,0 1,-1 1,-2zm0 -5c0,-1 0,-2 -1,-3 0,-1 -1,-1 -2,-1 -1,0 -2,0 -3,1 -1,1 -1,2 -1,3l7 0z"/>
   <path id="13" class="fil2" d="M332 202l-5 0 0 -19 5 0 0 3c1,-1 1,-2 2,-2 1,-1 2,-1 2,-1 1,0 3,0 4,1l-2 4c-1,0 -2,-1 -2,-1 -1,0 -2,1 -2,1 -1,0 -1,1 -1,2 -1,1 -1,3 -1,7l0 5z"/>
   <g>
    <path class="fil2" d="M276 270l-165 0 0 -3 165 0 0 0 0 3zm17 13l-3 0 0 0 -1 -1 0 0 0 -1 0 -1 0 0 0 -1 0 0 -1 -1 0 -1 0 0 0 -1 -1 0 0 -1 -1 0 0 -1 0 0 -1 -1 0 0 -1 -1 0 0 -1 0 0 -1 -1 0 -1 0 0 0 -1 -1 0 0 -1 0 -1 0 0 0 -1 0 -1 0 0 -3 1 0 1 0 1 0 1 0 0 0 1 0 1 1 1 0 0 0 1 1 1 0 0 0 1 1 1 0 0 1 1 0 0 1 1 1 0 0 1 1 0 1 1 0 0 1 0 1 1 0 0 1 0 1 0 1 0 1 0 0 1 1 0 1 0 0zm-3 106l0 -106 3 0 0 106 0 0 -3 0zm-14 17l0 -3 0 0 1 0 1 -1 0 0 1 0 1 0 0 0 1 0 0 0 1 -1 1 0 0 0 1 -1 0 0 1 0 0 -1 1 0 0 -1 0 0 1 -1 0 0 1 -1 0 0 0 -1 0 -1 1 0 0 -1 0 0 0 -1 0 -1 0 0 0 -1 1 -1 3 0 0 1 -1 1 0 1 0 1 0 0 0 1 0 1 -1 1 0 0 0 1 -1 1 0 0 -1 1 0 1 -1 0 0 1 -1 0 0 1 -1 0 -1 1 0 0 -1 1 -1 0 0 0 -1 1 -1 0 -1 0 0 0 -1 0 -1 1 -1 0 -1 0 0 0zm-165 -3l165 0 0 3 -165 0 0 0 0 -3zm-17 -14l3 0 0 0 0 1 0 1 0 0 1 1 0 1 0 0 0 1 0 0 1 1 0 1 0 0 1 1 0 0 0 1 1 0 0 1 1 0 0 1 1 0 0 0 1 1 0 0 1 0 0 1 1 0 1 0 0 0 1 0 1 0 0 0 1 1 1 0 0 3 -1 0 -1 0 -1 -1 -1 0 0 0 -1 0 -1 0 -1 -1 0 0 -1 0 -1 -1 -1 0 0 -1 -1 0 0 -1 -1 0 -1 -1 0 0 -1 -1 0 -1 0 0 -1 -1 0 -1 0 0 -1 -1 0 -1 0 -1 0 0 -1 -1 0 -1 0 -1 0 -1 0 0zm3 -106l0 106 -3 0 0 -106 0 0 3 0zm14 -16l0 3 0 0 -1 0 -1 0 0 0 -1 0 -1 0 0 0 -1 1 -1 0 0 0 -1 0 0 1 -1 0 0 0 -1 1 0 0 -1 1 0 0 -1 1 0 0 0 1 -1 0 0 1 0 0 -1 1 0 1 0 0 0 1 0 0 -1 1 0 1 0 0 0 1 -3 0 0 -1 0 -1 0 0 1 -1 0 -1 0 -1 0 -1 1 0 0 -1 0 -1 1 0 0 -1 0 -1 1 0 0 -1 1 -1 1 0 0 -1 1 0 0 -1 1 0 1 0 1 -1 0 0 1 0 1 -1 1 0 0 0 1 0 1 0 1 0 1 0 0 0z"/>
   </g>
   <g>
    <path class="fil2" d="M518 270l-166 0 0 -3 166 0 0 0 0 3zm16 13l-3 0 0 0 0 -1 0 0 0 -1 0 -1 -1 0 0 -1 0 0 0 -1 0 -1 -1 0 0 -1 0 0 -1 -1 0 0 -1 -1 0 0 0 -1 -1 0 0 -1 -1 0 -1 0 0 -1 -1 0 0 0 -1 0 0 -1 -1 0 -1 0 0 0 -1 0 -1 0 0 0 0 -3 0 0 1 0 1 0 1 0 1 0 0 0 1 1 1 0 1 0 0 1 1 0 1 0 0 1 1 0 1 1 0 0 1 1 0 1 1 0 0 1 1 1 0 0 0 1 1 1 0 0 0 1 0 1 1 1 0 1 0 0 0 1 0 1 0 0zm-3 106l0 -106 3 0 0 106 0 0 -3 0zm-13 17l0 -3 0 0 0 0 1 -1 1 0 0 0 1 0 1 0 0 0 1 0 0 -1 1 0 0 0 1 -1 1 0 0 0 1 -1 0 0 0 -1 1 0 0 -1 1 0 0 -1 0 0 1 -1 0 -1 0 0 0 -1 0 0 1 -1 0 -1 0 0 0 -1 0 -1 3 0 0 1 0 1 0 1 0 1 -1 0 0 1 0 1 0 1 -1 0 0 1 0 1 -1 0 0 1 -1 1 0 0 -1 1 0 0 -1 1 -1 0 0 1 -1 0 -1 1 0 0 -1 0 -1 1 -1 0 0 0 -1 0 -1 0 -1 1 -1 0 0 0 0 0zm-166 -3l166 0 0 3 -166 0 0 0 0 -3zm-16 -14l3 0 0 0 0 1 0 1 0 0 0 1 0 1 0 0 0 1 1 0 0 1 0 1 1 0 0 1 0 0 1 1 0 0 1 1 0 0 0 1 1 0 1 0 0 1 1 0 0 0 1 1 0 0 1 0 1 0 0 0 1 0 1 0 0 1 1 0 0 3 -1 0 -1 0 -1 -1 0 0 -1 0 -1 0 -1 0 0 -1 -1 0 -1 0 -1 -1 0 0 -1 -1 0 0 -1 -1 -1 0 0 -1 -1 0 0 -1 -1 -1 0 0 0 -1 -1 -1 0 0 0 -1 -1 -1 0 -1 0 0 0 -1 0 -1 0 -1 0 -1 0 0zm3 -106l0 106 -3 0 0 -106 0 0 3 0zm13 -16l0 3 0 0 -1 0 0 0 -1 0 -1 0 0 0 -1 0 -1 1 0 0 -1 0 0 0 -1 1 0 0 -1 0 -1 1 0 0 0 1 -1 0 0 1 -1 0 0 1 0 0 -1 1 0 0 0 1 -1 1 0 0 0 1 0 0 0 1 0 1 0 0 0 1 -3 0 0 -1 0 -1 0 0 0 -1 0 -1 0 -1 1 -1 0 0 0 -1 1 -1 0 0 0 -1 1 -1 0 0 1 -1 0 -1 1 0 1 -1 0 0 1 -1 0 0 1 0 1 -1 1 0 0 0 1 -1 1 0 1 0 0 0 1 0 1 0 1 0 0 0z"/>
   </g>
   <g>
    <path class="fil2" d="M276 453l-165 0 0 -3 165 0 0 0 0 3zm17 13l-3 0 0 0 -1 -1 0 0 0 -1 0 -1 0 0 0 -1 0 -1 -1 0 0 -1 0 0 0 -1 -1 0 0 -1 -1 0 0 -1 0 0 -1 -1 0 0 -1 -1 0 0 -1 0 0 -1 -1 0 -1 0 0 0 -1 -1 0 0 -1 0 -1 0 0 0 -1 0 -1 0 0 -3 1 0 1 0 1 0 1 0 0 0 1 0 1 1 1 0 0 0 1 1 1 0 0 0 1 1 1 0 0 1 1 0 0 1 1 1 0 0 1 1 0 1 1 0 0 1 0 1 1 0 0 1 0 1 0 1 0 1 0 0 1 1 0 1 0 0zm-3 106l0 -106 3 0 0 106 0 0 -3 0zm-14 17l0 -4 0 0 1 0 1 0 0 0 1 0 1 0 0 0 1 0 0 -1 1 0 1 0 0 0 1 -1 0 0 1 -1 0 0 1 0 0 -1 0 0 1 -1 0 0 1 -1 0 0 0 -1 0 -1 1 0 0 -1 0 0 0 -1 0 -1 0 0 0 -1 1 -1 3 0 0 1 -1 1 0 1 0 1 0 0 0 1 0 1 -1 1 0 0 0 1 -1 1 0 0 -1 1 0 1 -1 0 0 1 -1 0 0 1 -1 0 -1 1 0 0 -1 1 -1 0 0 0 -1 1 -1 0 -1 0 0 0 -1 0 -1 1 -1 0 -1 0 0 0zm-165 -4l165 0 0 4 -165 0 0 0 0 -4zm-17 -13l3 0 0 0 0 1 0 1 0 0 1 1 0 1 0 0 0 1 0 0 1 1 0 1 0 0 1 1 0 0 0 1 1 0 0 1 1 0 0 0 1 1 0 0 1 1 0 0 1 0 0 0 1 1 1 0 0 0 1 0 1 0 0 0 1 0 1 0 0 4 -1 0 -1 0 -1 -1 -1 0 0 0 -1 0 -1 0 -1 -1 0 0 -1 0 -1 -1 -1 0 0 -1 -1 0 0 -1 -1 0 -1 -1 0 0 -1 -1 0 -1 0 0 -1 -1 0 -1 0 0 -1 -1 0 -1 0 -1 0 0 -1 -1 0 -1 0 -1 0 -1 0 0zm3 -106l0 106 -3 0 0 -106 0 0 3 0zm14 -16l0 3 0 0 -1 0 -1 0 0 0 -1 0 -1 0 0 0 -1 1 -1 0 0 0 -1 0 0 1 -1 0 0 0 -1 1 0 0 -1 1 0 0 -1 1 0 0 0 1 -1 0 0 1 0 0 -1 1 0 0 0 1 0 1 0 0 -1 1 0 1 0 0 0 1 -3 0 0 -1 0 -1 0 0 1 -1 0 -1 0 -1 0 -1 1 0 0 -1 0 -1 1 0 0 -1 0 -1 1 0 0 -1 1 -1 1 0 0 -1 1 0 0 -1 1 0 1 0 1 -1 0 0 1 0 1 -1 1 0 0 0 1 0 1 0 1 0 1 0 0 0z"/>
   </g>
   <rect class="fil0 str1" x="337" y="451" width="195" height="136" rx="5" ry="15"/>
   <g>
    <path class="fil2" d="M759 270l-166 0 0 -3 166 0 0 0 0 3zm16 13l-3 0 0 0 0 -1 0 0 0 -1 0 -1 0 0 0 -1 -1 0 0 -1 0 -1 0 0 -1 -1 0 0 0 -1 -1 0 0 -1 -1 0 0 -1 -1 0 0 -1 -1 0 0 0 -1 -1 0 0 -1 0 0 0 -1 -1 -1 0 0 0 -1 0 -1 0 0 0 -1 0 0 -3 1 0 1 0 0 0 1 0 1 0 1 0 1 1 0 0 1 0 1 1 0 0 1 0 1 1 0 0 1 1 0 0 1 1 1 1 0 0 0 1 1 1 0 0 1 1 0 1 0 0 1 1 0 1 0 1 0 1 0 0 0 1 0 1 0 0zm-3 106l0 -106 3 0 0 106 0 0 -3 0zm-13 17l0 -3 0 0 1 0 0 -1 1 0 1 0 0 0 1 0 1 0 0 0 1 -1 0 0 1 0 0 -1 1 0 0 0 1 -1 0 0 1 -1 0 0 1 -1 0 0 0 -1 1 0 0 -1 0 -1 0 0 1 -1 0 0 0 -1 0 -1 0 0 0 -1 0 -1 3 0 0 1 0 1 0 1 0 1 0 0 0 1 -1 1 0 1 0 0 -1 1 0 1 -1 0 0 1 0 1 -1 0 -1 1 0 0 -1 1 0 0 -1 1 -1 0 0 1 -1 0 -1 0 0 1 -1 0 -1 0 -1 0 -1 0 0 1 -1 0 -1 0 0 0zm-166 -3l166 0 0 3 -166 0 0 0 0 -3zm-16 -14l3 0 0 0 0 1 0 1 0 0 0 1 0 1 1 0 0 1 0 0 0 1 1 1 0 0 0 1 1 0 0 1 0 0 1 1 0 0 1 1 0 0 1 0 0 1 1 0 1 0 0 1 1 0 0 0 1 0 1 0 0 0 1 0 1 1 0 0 0 3 -1 0 0 0 -1 -1 -1 0 -1 0 -1 0 0 0 -1 -1 -1 0 0 0 -1 -1 -1 0 0 -1 -1 0 -1 -1 0 0 -1 -1 0 0 -1 -1 0 -1 -1 0 0 -1 0 -1 -1 0 0 -1 0 -1 -1 -1 0 0 0 -1 0 -1 0 -1 0 -1 0 0zm3 -106l0 106 -3 0 0 -106 0 0 3 0zm13 -16l0 3 0 0 0 0 -1 0 -1 0 0 0 -1 0 -1 0 0 1 -1 0 0 0 -1 0 -1 1 0 0 -1 0 0 1 -1 0 0 1 -1 0 0 1 0 0 -1 1 0 0 0 1 -1 0 0 1 0 1 0 0 -1 1 0 0 0 1 0 1 0 0 0 1 -3 0 0 -1 0 -1 0 0 0 -1 0 -1 1 -1 0 -1 0 0 1 -1 0 -1 0 0 1 -1 0 -1 1 0 0 -1 1 -1 0 0 1 -1 1 0 0 -1 1 0 1 0 0 -1 1 0 1 0 0 -1 1 0 1 0 1 0 1 0 0 0 1 0 0 0z"/>
   </g>
   <g>
    <path class="fil2" d="M759 453l-166 0 0 -3 166 0 0 0 0 3zm16 13l-3 0 0 0 0 -1 0 0 0 -1 0 -1 0 0 0 -1 -1 -1 0 0 0 -1 0 0 -1 -1 0 0 0 -1 -1 0 0 -1 -1 0 0 -1 -1 0 0 -1 -1 0 0 0 -1 -1 0 0 -1 0 0 0 -1 -1 -1 0 0 0 -1 0 -1 0 0 0 -1 0 0 -3 1 0 1 0 0 0 1 0 1 0 1 0 1 1 0 0 1 0 1 1 0 0 1 0 1 1 0 0 1 1 0 0 1 1 1 1 0 0 0 1 1 1 0 0 1 1 0 1 0 0 1 1 0 1 0 1 0 1 0 0 0 1 0 1 0 0zm-3 106l0 -106 3 0 0 106 0 0 -3 0zm-13 17l0 -4 0 0 1 0 0 0 1 0 1 0 0 0 1 0 1 0 0 -1 1 0 0 0 1 0 0 -1 1 0 0 -1 1 0 0 0 1 -1 0 0 1 -1 0 0 0 -1 1 0 0 -1 0 -1 0 0 1 -1 0 0 0 -1 0 -1 0 0 0 -1 0 -1 3 0 0 1 0 1 0 1 0 1 0 0 0 1 -1 1 0 1 0 0 -1 1 0 1 -1 0 0 1 0 1 -1 0 -1 1 0 0 -1 1 0 0 -1 1 -1 0 0 1 -1 0 -1 0 0 1 -1 0 -1 0 -1 0 -1 0 0 1 -1 0 -1 0 0 0zm-166 -4l166 0 0 4 -166 0 0 0 0 -4zm-16 -13l3 0 0 0 0 1 0 1 0 0 0 1 0 1 1 0 0 1 0 0 0 1 1 1 0 0 0 1 1 0 0 1 0 0 1 1 0 0 1 0 0 1 1 0 0 1 1 0 1 0 0 0 1 1 0 0 1 0 1 0 0 0 1 0 1 0 0 0 0 4 -1 0 0 0 -1 -1 -1 0 -1 0 -1 0 0 0 -1 -1 -1 0 0 0 -1 -1 -1 0 0 -1 -1 0 -1 -1 0 0 -1 -1 0 0 -1 -1 0 -1 -1 0 0 -1 0 -1 -1 0 0 -1 0 -1 -1 -1 0 0 0 -1 0 -1 0 -1 0 -1 0 0zm3 -106l0 106 -3 0 0 -106 0 0 3 0zm13 -16l0 3 0 0 0 0 -1 0 -1 0 0 0 -1 0 -1 0 0 1 -1 0 0 0 -1 0 -1 1 0 0 -1 0 0 1 -1 0 0 1 -1 0 0 1 0 0 -1 1 0 0 0 1 -1 0 0 1 0 0 0 1 -1 1 0 0 0 1 0 1 0 0 0 1 -3 0 0 -1 0 -1 0 0 0 -1 0 -1 1 -1 0 -1 0 0 1 -1 0 -1 0 0 1 -1 0 -1 1 0 0 -1 1 -1 0 0 1 -1 1 0 0 -1 1 0 1 0 0 -1 1 0 1 0 0 -1 1 0 1 0 1 0 1 0 0 0 1 0 0 0z"/>
   </g>
   <path class="fil2" d="M136 347l0 -22 8 0c2,0 3,0 4,1 1,0 2,1 3,2 0,1 1,2 1,3 0,1 -1,2 -1,2 -1,1 -2,2 -3,2 2,1 3,1 4,2 0,1 1,2 1,4 0,1 -1,2 -1,3 -1,0 -1,1 -2,2 0,0 -1,0 -2,1 -1,0 -2,0 -4,0l-8 0zm3 -13l5 0c1,0 2,0 2,0 1,0 2,-1 2,-1 0,-1 1,-1 1,-2 0,-1 -1,-1 -1,-2 0,0 -1,-1 -1,-1 -1,0 -2,0 -4,0l-4 0 0 6zm0 10l5 0c1,0 2,0 2,0 1,0 2,0 2,0 0,-1 1,-1 1,-1 0,-1 1,-2 1,-2 0,-1 -1,-2 -1,-2 0,-1 -1,-2 -2,-2 -1,0 -2,0 -3,0l-5 0 0 7z"/>
   <path id="1" class="fil2" d="M156 347l0 -16 3 0 0 3c0,-2 1,-2 1,-3 1,0 1,0 2,0 1,0 2,0 3,1l-1 2c-1,0 -1,0 -2,0 -1,0 -1,0 -2,0 0,0 0,1 -1,2 0,1 0,2 0,3l0 8 -3 0z"/>
   <path id="2" class="fil2" d="M177 345c-1,1 -2,1 -3,2 -1,0 -2,0 -3,0 -2,0 -3,0 -4,-1 -1,-1 -1,-2 -1,-3 0,-1 0,-2 0,-2 0,-1 1,-1 1,-2 1,0 2,-1 2,-1 1,0 2,0 3,0 2,0 4,-1 5,-1 0,0 0,-1 0,-1 0,-1 -1,-2 -1,-2 -1,-1 -2,-1 -3,-1 -2,0 -2,0 -3,1 -1,0 -1,1 -1,2l-3 0c0,-1 1,-2 1,-3 1,-1 2,-1 3,-2 1,0 2,0 3,0 2,0 3,0 3,0 1,1 2,1 2,1 1,1 1,2 1,2 0,1 0,2 0,3l0 3c0,3 0,4 1,5 0,1 0,1 0,2l-3 0c0,-1 0,-1 0,-2zm0 -6c-1,0 -3,1 -5,1 -1,0 -2,0 -2,1 -1,0 -1,0 -1,0 0,1 -1,1 -1,2 0,0 1,1 1,2 1,0 2,0 3,0 1,0 2,0 2,0 1,-1 2,-2 2,-2 0,-1 1,-2 1,-3l0 -1z"/>
   <path id="3" class="fil2" d="M183 347l0 -16 3 0 0 2c1,-1 3,-2 5,-2 1,0 2,0 3,0 0,1 1,1 1,2 1,0 1,1 1,2 0,0 0,1 0,2l0 10 -2 0 0 -10c0,-1 0,-2 -1,-2 0,-1 0,-1 -1,-1 0,-1 -1,-1 -2,-1 -1,0 -2,0 -3,1 0,1 -1,2 -1,4l0 9 -3 0z"/>
   <path id="4" class="fil2" d="M211 341l3 1c-1,1 -1,3 -3,4 -1,1 -2,1 -4,1 -2,0 -4,0 -5,-2 -2,-1 -2,-3 -2,-6 0,-2 0,-3 1,-4 0,-2 1,-3 2,-3 1,-1 3,-1 4,-1 2,0 3,0 4,1 1,1 2,2 2,4l-2 0c-1,-1 -1,-2 -2,-2 0,-1 -1,-1 -2,-1 -1,0 -2,0 -3,1 -1,1 -2,3 -2,5 0,2 1,4 2,5 1,1 2,1 3,1 1,0 2,0 3,-1 0,0 1,-1 1,-3z"/>
   <path id="5" class="fil2" d="M216 347l0 -22 3 0 0 8c1,-1 2,-2 4,-2 1,0 2,0 3,0 1,1 2,2 2,2 1,1 1,2 1,4l0 10 -3 0 0 -10c0,-1 0,-2 -1,-3 0,-1 -1,-1 -2,-1 -1,0 -2,0 -3,1 0,0 -1,1 -1,1 0,1 0,2 0,3l0 9 -3 0z"/>
   <path id="6" class="fil2" d="M251 347l-3 0 0 -17c-1,0 -1,1 -2,2 -2,0 -2,1 -3,1l0 -3c1,0 3,-1 4,-2 1,-1 2,-2 2,-3l2 0 0 22z"/>
   <path class="fil2" d="M375 347l0 -22 9 0c1,0 3,0 4,1 1,0 1,1 2,2 1,1 1,2 1,3 0,1 0,2 -1,2 0,1 -1,2 -2,2 1,1 2,1 3,2 1,1 1,2 1,4 0,1 0,2 -1,3 0,0 -1,1 -1,2 -1,0 -2,0 -3,1 -1,0 -2,0 -3,0l-9 0zm3 -13l5 0c1,0 2,0 3,0 1,0 1,-1 1,-1 1,-1 1,-1 1,-2 0,-1 0,-1 -1,-2 0,0 0,-1 -1,-1 -1,0 -2,0 -3,0l-5 0 0 6zm0 10l6 0c1,0 1,0 2,0 0,0 1,0 1,0 1,-1 1,-1 1,-1 1,-1 1,-2 1,-2 0,-1 0,-2 -1,-2 0,-1 -1,-2 -1,-2 -1,0 -2,0 -4,0l-5 0 0 7z"/>
   <path id="1" class="fil2" d="M396 347l0 -16 2 0 0 3c1,-2 1,-2 2,-3 0,0 1,0 1,0 1,0 2,0 3,1l-1 2c0,0 -1,0 -2,0 0,0 -1,0 -1,0 -1,0 -1,1 -1,2 -1,1 -1,2 -1,3l0 8 -2 0z"/>
   <path id="2" class="fil2" d="M416 345c-1,1 -2,1 -3,2 -1,0 -2,0 -3,0 -1,0 -3,0 -4,-1 -1,-1 -1,-2 -1,-3 0,-1 0,-2 0,-2 1,-1 1,-1 2,-2 0,0 1,-1 2,-1 0,0 1,0 2,0 2,0 4,-1 5,-1 0,0 0,-1 0,-1 0,-1 0,-2 -1,-2 0,-1 -2,-1 -3,-1 -1,0 -2,0 -3,1 0,0 -1,1 -1,2l-3 0c1,-1 1,-2 2,-3 0,-1 1,-1 2,-2 1,0 2,0 4,0 1,0 2,0 3,0 1,1 1,1 2,1 0,1 0,2 1,2 0,1 0,2 0,3l0 3c0,3 0,4 0,5 0,1 0,1 1,2l-3 0c-1,-1 -1,-1 -1,-2zm0 -6c-1,0 -2,1 -4,1 -2,0 -2,0 -3,1 0,0 -1,0 -1,0 0,1 0,1 0,2 0,0 0,1 1,2 0,0 1,0 2,0 1,0 2,0 3,0 1,-1 1,-2 2,-2 0,-1 0,-2 0,-3l0 -1z"/>
   <path id="3" class="fil2" d="M423 347l0 -16 2 0 0 2c1,-1 3,-2 5,-2 1,0 2,0 3,0 1,1 1,1 2,2 0,0 0,1 1,2 0,0 0,1 0,2l0 10 -3 0 0 -10c0,-1 0,-2 0,-2 0,-1 -1,-1 -1,-1 -1,-1 -2,-1 -2,-1 -1,0 -2,0 -3,1 -1,1 -1,2 -1,4l0 9 -3 0z"/>
   <path id="4" class="fil2" d="M450 341l3 1c0,1 -1,3 -2,4 -1,1 -3,1 -5,1 -2,0 -4,0 -5,-2 -1,-1 -2,-3 -2,-6 0,-2 0,-3 1,-4 1,-2 1,-3 3,-3 1,-1 2,-1 3,-1 2,0 3,0 5,1 1,1 1,2 2,4l-3 0c0,-1 -1,-2 -1,-2 -1,-1 -2,-1 -3,-1 -1,0 -2,0 -3,1 -1,1 -1,3 -1,5 0,2 0,4 1,5 1,1 2,1 3,1 1,0 2,0 3,-1 1,0 1,-1 1,-3z"/>
   <path id="5" class="fil2" d="M455 347l0 -22 3 0 0 8c1,-1 3,-2 5,-2 1,0 2,0 3,0 1,1 1,2 2,2 0,1 0,2 0,4l0 10 -3 0 0 -10c0,-1 0,-2 0,-3 -1,-1 -2,-1 -3,-1 -1,0 -1,0 -2,1 -1,0 -1,1 -2,1 0,1 0,2 0,3l0 9 -3 0z"/>
   <path id="6" class="fil2" d="M494 344l0 3 -14 0c0,-1 0,-1 0,-2 0,-1 1,-2 2,-3 1,-1 2,-2 3,-3 3,-2 4,-4 5,-5 1,-1 1,-2 1,-3 0,-1 0,-2 -1,-3 -1,0 -2,-1 -3,-1 -1,0 -2,1 -3,1 -1,1 -1,2 -1,4l-3 -1c0,-2 1,-3 2,-4 2,-1 3,-2 5,-2 2,0 4,1 5,2 2,1 2,2 2,4 0,1 0,2 0,3 -1,1 -1,1 -2,2 -1,1 -2,3 -4,4 -2,2 -3,3 -3,3 -1,0 -1,1 -2,1l11 0z"/>
   <polygon class="fil2" points="654,330 654,310 647,310 647,308 665,308 665,310 657,310 657,330 "/>
   <path id="1" class="fil2" d="M666 330l0 -16 2 0 0 2c1,-1 2,-1 2,-2 1,0 1,0 2,0 1,0 2,0 3,0l-1 3c-1,0 -2,-1 -2,-1 -1,0 -1,1 -2,1 0,0 -1,1 -1,1 0,1 0,2 0,4l0 8 -3 0z"/>
   <path id="2" class="fil2" d="M676 311l0 -3 3 0 0 3 -3 0zm0 19l0 -16 3 0 0 16 -3 0z"/>
   <path id="3" class="fil2" d="M693 328c-1,1 -2,1 -2,2 -1,0 -2,0 -3,0 -2,0 -4,0 -4,-1 -1,-1 -2,-2 -2,-3 0,-1 0,-2 1,-2 0,-1 0,-2 1,-2 1,0 1,-1 2,-1 1,0 1,0 2,0 3,-1 4,-1 5,-1 0,-1 0,-1 0,-1 0,-1 0,-2 -1,-2 0,-1 -1,-1 -3,-1 -1,0 -2,0 -2,1 -1,0 -1,1 -2,2l-2 0c0,-2 0,-3 1,-3 0,-1 1,-1 2,-2 1,0 2,0 4,0 1,0 2,0 3,0 1,0 2,1 2,1 0,1 1,1 1,2 0,1 0,1 0,3l0 3c0,3 0,4 0,5 0,1 0,1 1,2l-3 0c0,-1 0,-1 -1,-2zm0 -6c-1,0 -2,1 -4,1 -1,0 -2,0 -3,0 0,1 0,1 -1,1 0,1 0,1 0,2 0,0 0,1 1,1 0,1 1,1 2,1 1,0 2,0 3,-1 1,0 1,-1 2,-1 0,-1 0,-2 0,-3l0 -1z"/>
   <polygon id="4" class="fil2" points="700,330 700,308 703,308 703,330 "/>
   <path id="5" class="fil2" d="M622 364l0 -22 9 0c1,0 3,0 4,1 1,0 2,1 2,2 1,1 1,2 1,3 0,1 0,2 -1,2 0,1 -1,2 -2,2 1,1 2,1 3,2 1,1 1,2 1,4 0,1 0,2 -1,3 0,0 -1,1 -1,2 -1,0 -2,0 -3,1 -1,0 -2,0 -3,0l-9 0zm3 -13l5 0c1,0 2,0 3,0 1,0 1,0 2,-1 0,0 0,-1 0,-2 0,-1 0,-1 0,-2 -1,0 -1,-1 -2,-1 -1,0 -2,0 -3,0l-5 0 0 6zm0 11l6 0c1,0 1,-1 2,-1 1,0 1,0 2,0 0,0 0,-1 1,-1 0,-1 0,-2 0,-2 0,-1 0,-2 -1,-2 0,-1 -1,-1 -1,-2 -1,0 -2,0 -4,0l-5 0 0 8z"/>
   <path id="6" class="fil2" d="M653 362c-1,1 -2,2 -3,2 -1,0 -2,0 -3,0 -1,0 -3,0 -4,-1 -1,-1 -1,-2 -1,-3 0,-1 0,-2 0,-2 1,-1 1,-1 2,-2 0,0 1,0 2,-1 0,0 1,0 2,0 2,0 4,-1 5,-1 0,0 0,-1 0,-1 0,-1 0,-2 -1,-2 -1,-1 -2,-1 -3,-1 -1,0 -2,0 -3,1 0,0 -1,1 -1,2l-3 0c1,-1 1,-2 1,-3 1,-1 2,-1 3,-2 1,0 2,0 3,0 2,0 3,0 4,0 1,1 1,1 2,2 0,0 0,1 1,1 0,1 0,2 0,3l0 3c0,3 0,5 0,5 0,1 0,1 0,2l-2 0c-1,0 -1,-1 -1,-2zm0 -6c-1,1 -3,1 -5,1 -1,0 -1,0 -2,1 0,0 -1,0 -1,1 0,0 0,0 0,1 0,1 0,1 1,2 0,0 1,0 2,0 1,0 2,0 3,0 0,-1 1,-1 1,-2 1,-1 1,-2 1,-3l0 -1z"/>
   <polygon id="7" class="fil2" points="660,364 660,342 662,342 662,364 "/>
   <path id="8" class="fil2" d="M677 362c-1,1 -2,2 -3,2 -1,0 -2,0 -3,0 -2,0 -3,0 -4,-1 -1,-1 -1,-2 -1,-3 0,-1 0,-2 0,-2 1,-1 1,-1 2,-2 0,0 1,0 2,-1 0,0 1,0 2,0 2,0 4,-1 5,-1 0,0 0,-1 0,-1 0,-1 0,-2 -1,-2 -1,-1 -2,-1 -3,-1 -1,0 -2,0 -3,1 0,0 -1,1 -1,2l-3 0c0,-1 1,-2 1,-3 1,-1 2,-1 3,-2 1,0 2,0 3,0 2,0 3,0 4,0 0,1 1,1 2,2 0,0 0,1 0,1 0,1 0,2 0,3l0 3c0,3 1,5 1,5 0,1 0,1 0,2l-2 0c-1,0 -1,-1 -1,-2zm0 -6c-1,1 -3,1 -5,1 -1,0 -2,0 -2,1 0,0 -1,0 -1,1 0,0 0,0 0,1 0,1 0,1 0,2 1,0 2,0 3,0 1,0 2,0 3,0 0,-1 1,-1 1,-2 1,-1 1,-2 1,-3l0 -1z"/>
   <path id="9" class="fil2" d="M684 364l0 -16 2 0 0 2c1,-1 3,-2 5,-2 1,0 2,0 3,0 1,1 1,1 2,2 0,0 0,1 0,2 0,0 1,1 1,2l0 10 -3 0 0 -10c0,-1 0,-1 0,-2 -1,-1 -1,-1 -2,-1 0,-1 -1,-1 -1,-1 -2,0 -3,1 -3,1 -1,1 -2,2 -2,4l0 9 -2 0z"/>
   <path id="10" class="fil2" d="M711 358l3 1c-1,1 -1,3 -3,4 -1,1 -2,1 -4,1 -2,0 -4,0 -5,-2 -1,-1 -2,-3 -2,-6 0,-2 0,-3 1,-4 0,-2 1,-3 2,-3 1,-1 3,-1 4,-1 2,0 3,0 4,1 1,1 2,2 2,4l-2 0c0,-1 -1,-2 -1,-2 -1,-1 -2,-1 -3,-1 -1,0 -2,1 -3,2 -1,0 -1,2 -1,4 0,2 0,4 1,5 1,1 2,1 3,1 1,0 2,0 3,-1 0,0 1,-1 1,-3z"/>
   <path id="11" class="fil2" d="M727 359l3 0c-1,2 -2,3 -3,4 -1,1 -2,1 -4,1 -3,0 -4,0 -6,-2 -1,-1 -2,-3 -2,-6 0,-2 1,-4 2,-6 2,-1 3,-2 6,-2 2,0 3,1 5,2 1,1 2,3 2,6 0,0 0,1 0,1l-12 0c0,2 0,3 1,4 1,1 2,1 4,1 1,0 2,0 2,-1 1,0 1,-1 2,-2zm-9 -4l9 0c0,-2 -1,-3 -1,-3 -1,-1 -2,-2 -3,-2 -2,0 -3,0 -4,1 0,1 -1,2 -1,4z"/>
   <path class="fil2" d="M134 530l0 -22 8 0c2,0 3,0 4,1 1,0 2,1 3,2 0,1 0,2 0,3 0,1 0,1 0,2 -1,1 -2,2 -3,2 2,1 3,1 3,2 1,1 1,2 1,4 0,1 0,2 0,2 -1,1 -1,2 -2,2 0,1 -1,1 -2,2 -1,0 -2,0 -4,0l-8 0zm3 -13l5 0c1,0 2,0 2,0 1,0 2,-1 2,-1 0,-1 1,-1 1,-2 0,-1 -1,-1 -1,-2 0,-1 -1,-1 -1,-1 -1,0 -2,0 -4,0l-4 0 0 6zm0 10l5 0c1,0 2,0 2,0 1,0 1,0 2,0 0,-1 1,-1 1,-2 0,0 0,-1 0,-1 0,-1 0,-2 0,-3 -1,0 -1,-1 -2,-1 -1,0 -2,0 -3,0l-5 0 0 7z"/>
   <path id="1" class="fil2" d="M154 530l0 -16 3 0 0 2c0,-1 1,-1 1,-2 1,0 1,0 2,0 1,0 2,0 3,1l-1 2c-1,0 -2,-1 -2,-1 -1,0 -1,1 -2,1 0,0 -1,1 -1,1 0,1 0,2 0,4l0 8 -3 0z"/>
   <path id="2" class="fil2" d="M175 528c-1,1 -2,1 -3,2 -1,0 -2,0 -3,0 -2,0 -3,0 -4,-1 -1,-1 -2,-2 -2,-3 0,-1 1,-2 1,-2 0,-1 1,-2 1,-2 1,0 2,-1 2,-1 1,0 2,0 3,0 2,-1 3,-1 5,-1 0,-1 0,-1 0,-1 0,-1 -1,-2 -1,-2 -1,-1 -2,-1 -3,-1 -2,0 -3,0 -3,1 -1,0 -1,1 -1,2l-3 0c0,-2 1,-2 1,-3 1,-1 1,-1 2,-2 2,0 3,0 4,0 1,0 3,0 3,0 1,0 2,1 2,1 1,1 1,1 1,2 0,1 0,1 0,3l0 3c0,3 0,4 0,5 1,1 1,1 1,2l-3 0c0,-1 0,-1 0,-2zm0 -6c-1,0 -3,1 -5,1 -1,0 -2,0 -2,0 -1,1 -1,1 -1,1 -1,1 -1,1 -1,2 0,0 1,1 1,1 1,1 1,1 3,1 1,0 1,0 2,-1 1,0 2,-1 2,-1 0,-1 1,-2 1,-3l0 -1z"/>
   <path id="3" class="fil2" d="M181 530l0 -16 3 0 0 2c1,-1 3,-2 5,-2 1,0 2,0 3,0 0,1 1,1 1,2 1,0 1,1 1,2 0,0 0,1 0,2l0 10 -2 0 0 -10c0,-1 0,-2 -1,-2 0,-1 0,-1 -1,-2 0,0 -1,0 -2,0 -1,0 -2,0 -3,1 0,1 -1,2 -1,4l0 9 -3 0z"/>
   <path id="4" class="fil2" d="M209 524l2 0c0,2 -1,4 -2,5 -1,1 -2,1 -4,1 -2,0 -4,0 -5,-2 -2,-1 -2,-3 -2,-6 0,-2 0,-3 1,-4 0,-2 1,-3 2,-3 1,-1 3,-1 4,-1 2,0 3,0 4,1 1,1 2,2 2,4l-2 0c-1,-1 -1,-2 -2,-2 0,-1 -1,-1 -2,-1 -1,0 -2,0 -3,1 -1,1 -2,3 -2,5 0,2 1,4 2,5 0,1 2,1 3,1 1,0 2,0 2,-1 1,-1 2,-2 2,-3z"/>
   <path id="5" class="fil2" d="M214 530l0 -22 2 0 0 8c2,-2 3,-2 5,-2 1,0 2,0 3,0 1,1 2,1 2,2 0,1 1,2 1,4l0 10 -3 0 0 -10c0,-1 0,-2 -1,-3 0,-1 -1,-1 -2,-1 -1,0 -2,0 -3,1 0,0 -1,1 -1,1 0,1 -1,2 -1,3l0 9 -2 0z"/>
   <path id="6" class="fil2" d="M247 530l0 -5 -9 0 0 -3 10 -14 2 0 0 14 3 0 0 3 -3 0 0 5 -3 0zm0 -8l0 -10 -7 10 7 0z"/>
   <path class="fil3" d="M371 508l9 0c1,0 3,0 3,0 1,0 2,1 3,1 0,1 1,1 1,2 1,1 1,1 1,2 0,1 0,2 -1,3 0,1 -1,2 -2,2 1,1 2,1 3,2 1,1 1,2 1,4 0,1 0,1 -1,2 0,1 -1,2 -1,3 -1,0 -2,1 -3,1 -1,0 -3,0 -6,0l-7 0 0 -22zm4 4l0 5 3 0c2,0 3,0 3,0 1,-1 2,-1 2,-1 1,-1 1,-1 1,-2 0,-1 0,-1 -1,-2 0,0 -1,0 -1,0 -1,0 -2,0 -4,0l-3 0zm0 8l0 6 4 0c2,0 3,0 3,0 1,0 2,0 2,-1 0,0 1,-1 1,-2 0,0 -1,-1 -1,-1 0,-1 -1,-1 -1,-1 -1,-1 -2,-1 -4,-1l-4 0z"/>
   <path id="1" class="fil3" d="M397 530l-4 0 0 -16 4 0 0 2c0,-1 1,-2 1,-2 1,0 2,0 2,0 1,0 2,0 3,0l-1 4c-1,0 -2,-1 -2,-1 -1,0 -1,1 -2,1 0,0 -1,1 -1,2 0,0 0,2 0,5l0 5z"/>
   <path id="2" class="fil3" d="M408 519l-4 -1c1,-1 1,-3 2,-3 1,-1 3,-1 5,-1 2,0 3,0 4,0 1,1 2,1 2,2 1,1 1,2 1,4l0 5c0,1 0,2 0,3 0,0 0,1 1,2l-5 0c0,0 0,-1 0,-1 0,-1 0,-1 0,-1 -1,1 -2,1 -2,2 -1,0 -2,0 -3,0 -2,0 -3,0 -4,-1 -1,-1 -1,-2 -1,-3 0,-1 0,-2 0,-3 1,-1 1,-1 2,-1 1,-1 2,-1 3,-1 2,-1 4,-1 5,-1l0 -1c0,-1 -1,-1 -1,-2 0,0 -1,0 -2,0 -1,0 -2,0 -2,0 0,1 -1,1 -1,2zm6 3c-1,0 -2,1 -3,1 -1,0 -2,0 -2,1 -1,0 -1,1 -1,1 0,1 0,1 1,2 0,0 1,0 1,0 1,0 2,0 2,0 1,-1 1,-1 1,-2 0,0 1,-1 1,-2l0 -1z"/>
   <path id="3" class="fil3" d="M436 530l-4 0 0 -8c0,-2 0,-3 0,-4 0,0 -1,0 -1,-1 0,0 -1,0 -2,0 0,0 -1,0 -1,0 -1,1 -1,1 -2,2 0,1 0,2 0,4l0 7 -4 0 0 -16 4 0 0 2c1,-1 3,-2 5,-2 1,0 2,0 2,0 1,0 2,1 2,1 1,1 1,2 1,2 0,1 0,2 0,3l0 10z"/>
   <path id="4" class="fil3" d="M454 519l-4 0c0,0 0,-1 -1,-1 0,-1 -1,-1 -2,-1 -1,0 -1,0 -2,1 -1,1 -1,2 -1,4 0,2 0,3 1,4 1,0 1,1 2,1 1,0 2,0 2,-1 1,0 1,-1 1,-2l5 1c-1,1 -2,3 -3,4 -1,1 -3,1 -5,1 -2,0 -4,0 -5,-2 -2,-1 -2,-3 -2,-6 0,-3 0,-5 2,-6 1,-2 3,-2 5,-2 2,0 4,0 5,1 1,1 2,2 2,4z"/>
   <path id="5" class="fil3" d="M462 508l0 8c1,-2 3,-2 5,-2 1,0 1,0 2,0 1,1 2,1 2,2 0,0 1,1 1,1 0,1 0,2 0,4l0 9 -4 0 0 -9c0,-1 0,-2 0,-3 -1,0 -1,0 -1,-1 -1,0 -1,0 -2,0 0,0 -1,0 -2,0 0,1 -1,1 -1,2 0,1 0,2 0,3l0 8 -4 0 0 -22 4 0z"/>
   <path id="6" class="fil3" d="M484 524l4 0c0,1 1,2 1,2 1,1 2,1 2,1 1,0 2,0 3,-1 0,-1 0,-2 0,-3 0,-2 0,-3 0,-3 -1,-1 -2,-1 -3,-1 -1,0 -2,0 -3,1l-3 0 2 -12 11 0 0 4 -8 0 -1 4c1,-1 2,-1 3,-1 2,0 4,1 5,2 1,2 2,3 2,6 0,1 -1,3 -2,4 -1,2 -3,3 -6,3 -2,0 -3,0 -5,-1 -1,-1 -2,-3 -2,-5z"/>
   <polygon class="fil2" points="644,509 644,503 638,503 638,501 644,501 644,495 647,495 647,501 653,501 653,503 647,503 647,509 "/>
   <path id="1" class="fil2" d="M661 513l9 -22 3 0 9 22 -4 0 -2 -7 -9 0 -3 7 -3 0zm6 -9l8 0 -2 -6c-1,-2 -2,-4 -2,-5 0,2 -1,3 -1,4l-3 7z"/>
   <path id="2" class="fil2" d="M694 513l0 -2c-1,1 -3,2 -5,2 -1,0 -2,0 -3,-1 -1,-1 -2,-2 -3,-3 0,-1 0,-3 0,-4 0,-2 0,-3 0,-4 1,-2 2,-3 3,-3 1,-1 2,-1 3,-1 1,0 2,0 3,0 1,1 1,1 2,2l0 -8 2 0 0 22 -2 0zm-9 -8c0,2 1,3 2,4 1,1 2,2 3,2 1,0 2,-1 3,-2 1,0 1,-2 1,-4 0,-2 0,-4 -1,-5 -1,-1 -2,-1 -3,-1 -2,0 -3,0 -3,1 -1,1 -2,3 -2,5z"/>
   <path id="3" class="fil2" d="M711 513l0 -2c-1,1 -3,2 -5,2 -1,0 -2,0 -3,-1 -1,-1 -2,-2 -2,-3 -1,-1 -1,-3 -1,-4 0,-2 0,-3 0,-4 1,-2 2,-3 3,-3 1,-1 2,-1 3,-1 1,0 2,0 3,0 1,1 1,1 2,2l0 -8 2 0 0 22 -2 0zm-9 -8c0,2 1,3 2,4 1,1 2,2 3,2 1,0 2,-1 3,-2 1,0 1,-2 1,-4 0,-2 0,-4 -1,-5 -1,-1 -2,-1 -3,-1 -2,0 -3,0 -3,1 -1,1 -2,3 -2,5z"/>
   <path id="4" class="fil2" d="M630 547l0 -22 8 0c2,0 3,0 4,1 1,0 2,1 2,2 1,1 1,2 1,3 0,1 0,2 -1,2 0,1 -1,2 -2,2 2,1 3,1 3,2 1,1 1,2 1,4 0,1 0,2 0,3 -1,0 -1,1 -2,2 -1,0 -1,0 -2,1 -1,0 -2,0 -4,0l-8 0zm3 -13l4 0c2,0 3,0 3,0 1,0 1,-1 2,-1 0,-1 0,-1 0,-2 0,-1 0,-1 0,-2 0,0 -1,-1 -2,-1 0,0 -1,0 -3,0l-4 0 0 6zm0 10l5 0c1,0 2,0 2,0 1,0 1,0 2,0 0,-1 1,-1 1,-1 0,-1 0,-2 0,-2 0,-1 0,-2 0,-2 -1,-1 -1,-1 -2,-2 -1,0 -2,0 -3,0l-5 0 0 7z"/>
   <path id="5" class="fil2" d="M650 547l0 -16 2 0 0 3c1,-2 2,-2 2,-3 1,0 1,0 2,0 1,0 2,0 3,1l-1 2c-1,0 -2,0 -2,0 -1,0 -1,0 -2,0 0,0 -1,1 -1,2 0,1 0,2 0,3l0 8 -3 0z"/>
   <path id="6" class="fil2" d="M671 545c-1,1 -2,1 -3,2 -1,0 -2,0 -3,0 -2,0 -3,0 -4,-1 -1,-1 -2,-2 -2,-3 0,-1 0,-2 1,-2 0,-1 1,-1 1,-2 1,0 1,-1 2,-1 1,0 1,0 3,0 2,0 3,-1 4,-1 0,0 0,-1 0,-1 0,-1 0,-2 0,-2 -1,-1 -2,-1 -3,-1 -2,0 -3,0 -3,1 -1,0 -1,1 -2,2l-2 0c0,-1 0,-2 1,-3 0,-1 1,-1 2,-2 1,0 3,0 4,0 1,0 2,0 3,0 1,1 2,1 2,1 1,1 1,2 1,2 0,1 0,2 0,3l0 3c0,3 0,4 0,5 0,1 1,1 1,2l-3 0c0,-1 0,-1 0,-2zm-1 -6c-1,0 -2,1 -4,1 -1,0 -2,0 -2,1 -1,0 -1,0 -1,0 -1,1 -1,1 -1,2 0,0 0,1 1,2 1,0 1,0 2,0 1,0 2,0 3,0 1,-1 2,-1 2,-2 0,-1 0,-2 0,-3l0 -1z"/>
   <path id="7" class="fil2" d="M677 547l0 -16 3 0 0 2c1,-1 2,-2 5,-2 1,0 2,0 2,0 1,1 2,1 2,2 1,0 1,1 1,2 0,0 0,1 0,2l0 10 -3 0 0 -10c0,-1 0,-2 0,-2 0,-1 0,-1 -1,-1 -1,-1 -1,-1 -2,-1 -1,0 -2,0 -3,1 -1,1 -1,2 -1,4l0 9 -3 0z"/>
   <path id="8" class="fil2" d="M705 541l2 1c0,1 -1,3 -2,4 -1,1 -3,1 -4,1 -2,0 -4,0 -6,-2 -1,-1 -2,-3 -2,-6 0,-2 1,-3 1,-4 1,-2 2,-3 3,-3 1,-1 2,-1 4,-1 1,0 3,0 4,1 1,1 2,2 2,4l-3 0c0,-1 0,-2 -1,-2 -1,-1 -1,-1 -2,-1 -2,0 -3,0 -3,1 -1,1 -2,3 -2,5 0,2 1,4 1,5 1,1 2,1 4,1 1,0 2,0 2,-1 1,0 1,-1 2,-3z"/>
   <path id="9" class="fil2" d="M710 547l0 -22 2 0 0 8c2,-1 3,-2 5,-2 1,0 2,0 3,0 1,1 2,2 2,2 0,1 1,2 1,4l0 10 -3 0 0 -10c0,-1 0,-2 -1,-3 -1,-1 -1,-1 -3,-1 0,0 -1,0 -2,1 0,0 -1,1 -1,1 -1,1 -1,2 -1,3l0 9 -2 0z"/>
  </g>
  <polygon class="fil3" points="870,147 870,117 840,117 840,96 870,96 870,66 890,66 890,96 921,96 921,117 890,117 890,147 "/>
 </g>
</svg>
