<?xml version="1.0" encoding="UTF-8"?>
<!DOCTYPE svg PUBLIC "-//W3C//DTD SVG 1.1//EN" "http://www.w3.org/Graphics/SVG/1.1/DTD/svg11.dtd">
<!-- Creator: CorelDRAW X8 -->
<svg xmlns="http://www.w3.org/2000/svg" xml:space="preserve" width="2.00007in" height="2in" version="1.1" style="shape-rendering:geometricPrecision; text-rendering:geometricPrecision; image-rendering:optimizeQuality; fill-rule:evenodd; clip-rule:evenodd"
viewBox="0 0 130 130"
 xmlns:xlink="http://www.w3.org/1999/xlink">
 <defs>
  <style type="text/css">
   <![CDATA[
    .fil2 {fill:#FEFEFE;fill-rule:nonzero}
    .fil0 {fill:#1A237E;fill-rule:nonzero}
    .fil1 {fill:#868EE0;fill-rule:nonzero}
    .fil3 {fill:white;fill-rule:nonzero}
   ]]>
  </style>
 </defs>
 <g id="Layer_x0020_1">
  <metadata id="CorelCorpID_0Corel-Layer"/>
  <g id="_2490646781424">
   <path class="fil0" d="M111 19c0,0 0,0 0,0l0 0c-12,-12 -28,-19 -46,-19 0,0 0,0 0,0l0 28c0,0 0,0 0,0 10,0 20,4 26,11l0 0c0,0 0,0 1,0 7,7 10,17 10,26l28 0c0,-17 -6,-33 -19,-46z"/>
   <path class="fil1" d="M111 111c0,0 0,0 1,0l-1 0c12,-12 19,-28 19,-46 0,0 0,0 0,0l-28 0c0,0 0,0 0,0 0,10 -4,20 -10,26l0 0c0,0 -1,0 -1,1 -7,7 -16,10 -26,10l0 28c17,0 34,-6 46,-19z"/>
   <path class="fil0" d="M19 111c0,0 0,0 0,0l0 0c12,12 28,19 46,19 0,0 0,0 0,0l0 -28c0,0 0,0 0,0 -10,0 -19,-4 -26,-10l0 0c0,0 0,-1 0,-1 -7,-7 -11,-16 -11,-26l-28 0c0,17 6,34 19,46z"/>
   <path class="fil1" d="M19 19c0,0 0,0 0,0l0 0c-12,12 -19,28 -19,46 0,0 0,0 0,0l28 0c0,0 0,0 0,0 0,-10 4,-19 11,-26l0 0c0,0 0,0 0,0 7,-7 17,-11 26,-11l0 -28c-17,0 -33,6 -46,19z"/>
   <path class="fil0" d="M34 123c-11,0 -20,-9 -20,-20 0,-11 9,-20 20,-20 11,0 20,9 20,20 0,11 -9,20 -20,20z"/>
   <path class="fil1" d="M34 117c-7,0 -14,-6 -14,-14 0,-7 7,-14 14,-14 8,0 14,7 14,14 0,8 -6,14 -14,14z"/>
   <path class="fil1" d="M27 50c-11,0 -20,-9 -20,-20 0,-11 9,-20 20,-20 11,0 20,9 20,20 0,11 -9,20 -20,20z"/>
   <path class="fil2" d="M27 44c-7,0 -14,-7 -14,-14 0,-8 7,-14 14,-14 8,0 14,6 14,14 0,7 -6,14 -14,14z"/>
   <path class="fil0" d="M97 46c-11,0 -19,-9 -19,-20 0,-11 8,-20 19,-20 11,0 20,9 20,20 0,11 -9,20 -20,20z"/>
   <path class="fil1" d="M97 40c-7,0 -14,-6 -14,-14 0,-8 7,-14 14,-14 8,0 14,6 14,14 0,8 -6,14 -14,14z"/>
   <path class="fil1" d="M106 114c-11,0 -20,-9 -20,-20 0,-11 9,-19 20,-19 11,0 20,8 20,19 0,11 -9,20 -20,20z"/>
   <path class="fil0" d="M106 108c-8,0 -14,-6 -14,-14 0,-7 6,-14 14,-14 8,0 14,7 14,14 0,8 -6,14 -14,14z"/>
   <path class="fil0" d="M27 32l4 5 -3 0 -4 -5 0 0 0 -3 2 0c2,0 3,0 3,-1 0,0 0,-1 0,-1l-7 0 0 -1 7 0c-1,-1 -1,-1 -3,-1l-4 0 0 -3 11 0 0 2 -2 0c0,0 0,1 0,1 0,0 0,0 0,1l2 0 0 1 -1 0c0,1 -1,1 -1,2 0,1 -2,2 -4,3z"/>
   <path class="fil3" d="M95 26c-2,-1 -4,-2 -4,-4 0,-1 0,-2 1,-3 0,-1 1,-1 2,-2 1,0 1,0 1,0l0 3c0,0 -1,0 -1,1 0,0 0,0 0,1 0,0 0,1 1,1l0 3zm0 9c-1,-1 -2,-1 -3,-2l1 -2c1,0 1,1 2,1l0 3zm5 -15c-1,-1 -1,-1 -2,-1l0 6c1,0 1,0 2,0l0 3c-1,0 -1,0 -2,0l0 4c1,0 1,0 2,0 0,0 0,0 0,0l0 3c-1,0 -1,0 -2,0l0 1 -2 0 0 -1c0,0 0,0 -1,0l0 -3c1,0 1,0 1,0l0 -5c0,0 -1,0 -1,-1l0 -3c0,1 1,1 1,1l0 -5c0,0 0,1 -1,1 0,0 0,0 0,0l0 -3c0,0 1,0 1,0l0 -2 2 0 0 2c1,0 1,0 2,0l0 3zm0 5c2,1 4,3 4,5 0,1 0,2 -1,3 0,0 -1,1 -2,2 -1,0 -1,0 -1,0l0 -3c0,0 1,0 1,-1 0,0 0,-1 0,-1 0,-1 0,-1 -1,-2l0 -3zm2 -5c-1,0 -1,0 -2,0l0 -3c1,0 2,0 3,1l-1 2 0 0z"/>
   <path class="fil3" d="M113 103c-1,0 -3,0 -4,0 -2,0 -3,0 -5,-1 -1,-1 -3,-2 -3,-4 0,-1 0,-1 0,-1l-2 0 0 -2 1 0c0,0 0,0 0,0 0,-1 0,-1 0,-1l-1 0 0 -2 2 0c0,0 0,-1 0,-1 1,-2 2,-3 3,-4 2,-1 3,-1 5,-1 1,0 3,0 4,0l-1 3c-1,-1 -2,-1 -3,-1 -1,0 -2,1 -3,1 -1,1 -2,2 -3,3 0,0 0,0 0,0l6 0 0 2 -6 0c0,0 0,0 0,1 0,0 0,0 0,0l6 0 0 2 -6 0c0,0 0,0 0,0 1,1 2,2 3,3 1,0 2,1 3,1 1,0 2,0 3,-1l1 3z"/>
   <path class="fil3" d="M38 97l1 1 -1 1 -1 0c-1,-1 -1,-1 -1,-1 -1,0 -1,0 -2,0 0,0 0,0 0,0 -1,0 -1,0 -2,1 0,0 0,1 0,1 0,0 0,1 0,1 0,0 1,1 1,1l5 0 0 2 -4 0c0,1 1,1 1,2 0,1 -1,2 -2,3l7 0 0 2 -10 0 -1 -2c0,0 1,-1 1,-1 1,-1 2,-2 2,-2 0,0 0,-1 0,-2l-1 0 -2 0 0 -2 1 0c0,0 0,0 0,0 0,-1 0,-1 0,-2 0,-1 0,-2 0,-3 1,0 2,-1 3,-1 0,-1 1,-1 1,-1 1,0 2,0 3,1 0,0 1,0 1,1z"/>
  </g>
 </g>
</svg>
