<?xml version="1.0" encoding="UTF-8"?>
<!DOCTYPE svg PUBLIC "-//W3C//DTD SVG 1.1//EN" "http://www.w3.org/Graphics/SVG/1.1/DTD/svg11.dtd">
<!-- Creator: CorelDRAW X8 -->
<svg xmlns="http://www.w3.org/2000/svg" xml:space="preserve" width="8.77902in" height="6in" version="1.1" style="shape-rendering:geometricPrecision; text-rendering:geometricPrecision; image-rendering:optimizeQuality; fill-rule:evenodd; clip-rule:evenodd"
viewBox="0 0 91076 62246"
 xmlns:xlink="http://www.w3.org/1999/xlink">
 <defs>
  <style type="text/css">
   <![CDATA[
    .str0 {stroke:#1A237E;stroke-width:161.832}
    .str1 {stroke:#1A307E;stroke-width:161.832}
    .fil6 {fill:none}
    .fil10 {fill:#1A237E}
    .fil11 {fill:#FEFEFE;fill-rule:nonzero}
    .fil8 {fill:#373435;fill-rule:nonzero}
    .fil1 {fill:#1A237E;fill-rule:nonzero}
    .fil7 {fill:#1C3A87;fill-rule:nonzero}
    .fil9 {fill:#2357A3;fill-rule:nonzero}
    .fil2 {fill:#4B55C2;fill-rule:nonzero}
    .fil0 {fill:#868EE0;fill-rule:nonzero}
    .fil3 {fill:#B6BBED;fill-rule:nonzero}
    .fil5 {fill:#CFCFFF;fill-rule:nonzero}
    .fil4 {fill:white;fill-rule:nonzero}
   ]]>
  </style>
 </defs>
 <g id="Layer_x0020_1">
  <metadata id="CorelCorpID_0Corel-Layer"/>
  <g id="_2490746912512">
   <path class="fil0" d="M740 25000c1576,3891 4057,5076 6417,7572 2883,3049 4827,5265 4078,9187 -1222,6408 -1746,22389 17405,20300 6864,-749 12288,-5409 16234,-10060 3358,-3957 9397,-4306 14259,-5229 5973,-1134 12058,-2846 17585,-5356 11382,-5167 14781,-12596 14317,-22101 -140,-2872 -599,-7395 -6075,-12688 -7392,-7144 -18132,-8101 -31060,-4820 -2958,751 -5755,1929 -8666,2815 -3024,922 -6171,1527 -9354,1800 -7424,636 -15121,-515 -22243,1449 -3766,1038 -7225,2939 -9949,5465 -3402,3157 -4612,7558 -2948,11666z"/>
   <polygon class="fil1" points="54989,55205 35885,55205 35885,50065 54989,50065 "/>
   <path class="fil2" d="M75070 51743l-59064 0c-1978,0 -3581,-1603 -3581,-3580l0 -40484c0,-1978 1603,-3581 3581,-3581l59064 0c1978,0 3581,1603 3581,3581l0 40484c0,1977 -1603,3580 -3581,3580z"/>
   <path class="fil0" d="M74399 47171l-57924 0c-1215,0 -2200,-984 -2200,-2199l0 -36937c0,-1215 985,-2199 2200,-2199l57924 0c1215,0 2200,984 2200,2199l0 36937c0,1215 -985,2199 -2200,2199z"/>
   <path class="fil2" d="M63200 57997l-35526 0 0 -447c0,-1542 1250,-2792 2793,-2792l29941 0c1542,0 2792,1250 2792,2792l0 447z"/>
   <path class="fil3" d="M70856 38003l-39786 0c-1056,0 -1911,-856 -1911,-1911l0 -25491c0,-1055 855,-1910 1911,-1910l39786 0c1056,0 1911,855 1911,1910l0 25491c0,1055 -855,1911 -1911,1911z"/>
   <path class="fil4" d="M63646 43346l-44513 0c-1180,0 -2137,-958 -2137,-2139l0 -28518c0,-1181 957,-2138 2137,-2138l44513 0c1181,0 2138,957 2138,2138l0 28518c0,1181 -957,2139 -2138,2139z"/>
   <path class="fil1" d="M63646 10551l-44513 0c-1180,0 -2137,957 -2137,2138l0 1871 48788 0 0 -1871c0,-1181 -957,-2138 -2138,-2138z"/>
   <path class="fil5" d="M59509 12629c0,340 -276,616 -617,616 -340,0 -616,-276 -616,-616 0,-340 276,-616 616,-616 341,0 617,276 617,616z"/>
   <path class="fil5" d="M62021 12629c0,340 -276,616 -616,616 -341,0 -617,-276 -617,-616 0,-340 276,-616 617,-616 340,0 616,276 616,616z"/>
   <path class="fil5" d="M64534 12629c0,340 -277,616 -617,616 -340,0 -617,-276 -617,-616 0,-340 277,-616 617,-616 340,0 617,276 617,616z"/>
   <g>
    <rect class="fil6 str0" x="20758" y="16116" width="41263" height="25534"/>
    <rect class="fil6 str1" x="20758" y="27137" width="41263" height="3017"/>
    <path class="fil7" d="M22543 28091l264 0c112,0 197,23 255,70 59,46 88,115 88,204 0,90 -32,159 -96,205 -64,47 -154,70 -270,70l-68 0 0 308 -173 0 0 -857zm173 402l53 0c75,0 128,-10 158,-31 30,-21 45,-53 45,-96 0,-44 -14,-76 -42,-96 -28,-19 -78,-29 -151,-29l-63 0 0 252z"/>
    <path id="1" class="fil7" d="M23654 28333l-30 150c-10,-4 -25,-5 -44,-5 -44,0 -82,17 -112,51 -30,34 -46,79 -46,133l0 286 -158 0 0 -578 150 -44 0 109c29,-36 59,-64 89,-82 31,-18 62,-27 94,-27 25,0 44,2 57,7z"/>
    <path id="2" class="fil7" d="M24030 28326c100,0 182,31 244,93 63,61 95,137 95,228 0,89 -31,164 -94,226 -63,61 -144,92 -245,92 -101,0 -182,-31 -245,-92 -63,-62 -94,-137 -94,-226 0,-89 31,-165 93,-227 62,-63 144,-94 246,-94zm0 510c53,0 95,-18 127,-54 31,-36 47,-81 47,-135 0,-56 -16,-102 -47,-138 -32,-35 -74,-53 -127,-53 -53,0 -95,18 -127,53 -31,36 -47,82 -47,138 0,53 16,98 47,134 32,36 74,55 127,55z"/>
    <path id="3" class="fil7" d="M25156 28909l-115 56c-32,-30 -48,-60 -48,-90 -58,60 -135,90 -230,90 -93,0 -169,-30 -228,-90 -60,-59 -89,-136 -89,-229 0,-88 31,-164 93,-226 63,-63 139,-94 229,-94 80,0 146,21 198,62l0 -346 159 -47 0 768c0,42 2,72 6,92 4,20 12,38 25,54zm-369 -73c54,0 97,-18 129,-54 33,-35 49,-81 49,-135 0,-58 -16,-105 -47,-139 -31,-35 -74,-52 -128,-52 -55,0 -99,17 -131,52 -32,36 -48,80 -48,135 0,55 16,101 47,138 32,36 75,55 129,55z"/>
    <path id="4" class="fil7" d="M25907 28911l-114 54c-30,-33 -45,-64 -45,-92l0 -17c-62,73 -140,109 -232,109 -79,0 -138,-20 -177,-59 -39,-39 -59,-98 -59,-176l0 -386 159 0 0 377c0,35 10,62 28,80 19,19 45,28 78,28 50,0 90,-17 122,-52 32,-36 48,-80 48,-134l0 -299 159 0 0 451c0,55 11,94 33,116z"/>
    <path id="5" class="fil7" d="M26561 28903c-72,41 -152,62 -241,62 -95,0 -173,-30 -235,-92 -62,-61 -92,-134 -92,-221 0,-94 31,-172 93,-233 63,-62 143,-93 242,-93 90,0 166,21 226,62l-68 111c-47,-29 -97,-43 -152,-43 -54,0 -97,17 -129,53 -32,35 -48,83 -48,142 0,54 16,98 48,133 32,34 72,52 120,52 54,0 110,-16 169,-48l67 115z"/>
    <path id="6" class="fil7" d="M27079 28344l-66 129 -127 0 0 216c0,59 9,104 28,137 18,32 48,59 91,80l-106 70c-57,-17 -100,-46 -129,-86 -28,-41 -43,-92 -43,-155l0 -262 -107 0 0 -129 107 0 0 -145 159 -102 0 247 193 0z"/>
    <polygon class="fil7" points="37942,28948 37770,28948 37770,28579 37368,28579 37368,28948 37195,28948 37195,28091 37368,28091 37368,28430 37770,28430 37770,28091 37942,28091 "/>
    <path id="1" class="fil7" d="M38531 28282c-59,-39 -118,-58 -176,-58 -38,0 -67,8 -86,24 -19,16 -29,35 -29,59 0,21 9,40 26,57 17,17 62,41 134,73 101,45 166,88 197,131 31,43 47,94 47,153 0,77 -27,137 -81,180 -54,43 -128,64 -222,64 -52,0 -101,-7 -148,-20 -47,-14 -92,-35 -135,-63l74 -137c34,23 69,41 103,52 35,12 69,18 103,18 47,0 83,-8 106,-22 23,-15 35,-37 35,-66 0,-27 -10,-50 -32,-68 -22,-19 -60,-40 -115,-64 -55,-23 -99,-46 -134,-67 -34,-21 -63,-48 -87,-82 -23,-35 -35,-77 -35,-126 0,-69 25,-128 75,-175 50,-47 120,-71 210,-71 84,0 167,24 248,72l-78 136z"/>
    <polygon id="2" class="fil7" points="39542,28965 39465,28965 38934,28394 38934,28948 38770,28948 38770,28083 38846,28083 39378,28637 39378,28091 39542,28091 "/>
    <path class="fil7" d="M44374 28937c-91,-34 -162,-89 -214,-165 -51,-75 -77,-160 -77,-253 0,-125 44,-231 131,-316 88,-86 195,-129 321,-129 127,0 234,43 321,129 88,85 132,191 132,316 0,120 -41,223 -124,310 -82,86 -188,132 -317,136l-66 62 470 23 -55 94c-186,0 -437,3 -753,8l231 -215zm161 -127c81,0 148,-28 199,-83 51,-56 77,-125 77,-208 0,-83 -26,-152 -77,-207 -51,-55 -118,-83 -199,-83 -81,0 -147,28 -198,83 -51,55 -77,124 -77,207 0,83 25,152 76,207 51,56 117,84 199,84z"/>
    <path id="1" class="fil7" d="M45519 28344l-65 129 -127 0 0 216c0,59 9,104 27,137 18,32 49,59 92,80l-106 70c-58,-17 -101,-46 -129,-86 -29,-41 -43,-92 -43,-155l0 -262 -108 0 0 -129 108 0 0 -145 159 -102 0 247 192 0z"/>
    <polygon id="2" class="fil7" points="46205,28344 45817,29165 45637,29217 45796,28882 45546,28344 45714,28344 45876,28722 46049,28344 "/>
    <path id="3" class="fil7" d="M46273 28753c29,0 54,10 75,31 21,21 31,46 31,75 0,29 -10,53 -31,75 -21,20 -46,31 -75,31 -29,0 -54,-11 -75,-31 -21,-22 -31,-46 -31,-75 0,-29 10,-54 31,-75 21,-21 46,-31 75,-31z"/>
    <path class="fil7" d="M51242 28948l-194 0 -203 -311 -99 0 0 311 -173 0 0 -857 258 0c109,0 193,23 251,70 58,46 87,113 87,199 0,56 -14,107 -44,152 -29,44 -68,75 -116,92l233 344zm-496 -455l49 0c71,0 122,-10 153,-30 31,-20 47,-52 47,-97 0,-46 -14,-79 -43,-98 -29,-20 -75,-30 -137,-30l-69 0 0 255z"/>
    <path id="1" class="fil7" d="M51984 28911l-112 54c-32,-30 -48,-60 -48,-90 -60,60 -136,90 -231,90 -92,0 -168,-30 -227,-90 -60,-59 -89,-136 -89,-229 0,-88 31,-164 93,-226 62,-63 138,-94 229,-94 94,0 168,29 222,85l130 -67 0 419c0,48 3,82 9,101 5,18 13,34 24,47zm-366 -75c54,0 96,-18 129,-54 32,-35 48,-81 48,-135 0,-58 -15,-105 -46,-139 -31,-35 -74,-52 -129,-52 -54,0 -98,17 -130,52 -33,36 -49,80 -49,135 0,55 16,101 48,138 32,36 75,55 129,55z"/>
    <path id="2" class="fil7" d="M52521 28344l-65 129 -127 0 0 216c0,59 9,104 27,137 19,32 49,59 92,80l-106 70c-57,-17 -101,-46 -129,-86 -29,-41 -43,-92 -43,-155l0 -262 -107 0 0 -129 107 0 0 -145 159 -102 0 247 192 0z"/>
    <path id="3" class="fil7" d="M53165 28619l-467 87c10,45 31,79 63,101 32,22 74,34 128,34 56,0 112,-16 169,-47l66 115c-79,37 -163,56 -252,56 -104,0 -187,-30 -250,-88 -63,-59 -94,-134 -94,-224 0,-96 31,-174 94,-235 62,-61 141,-92 235,-92 87,0 159,26 215,78 57,52 88,124 93,215zm-168 -84c-13,-28 -32,-49 -55,-63 -24,-14 -53,-22 -87,-22 -42,0 -77,13 -107,38 -30,26 -48,60 -54,102l303 -55z"/>
    <polygon class="fil7" points="57862,28241 57593,28241 57593,28948 57421,28948 57421,28241 57152,28241 57152,28091 57862,28091 "/>
    <path id="1" class="fil7" d="M58143 28326c100,0 181,31 244,93 63,61 95,137 95,228 0,89 -32,164 -94,226 -63,61 -145,92 -245,92 -101,0 -183,-31 -245,-92 -63,-62 -94,-137 -94,-226 0,-89 31,-165 92,-227 62,-63 144,-94 247,-94zm0 510c53,0 95,-18 127,-54 31,-36 47,-81 47,-135 0,-56 -16,-102 -47,-138 -32,-35 -74,-53 -127,-53 -53,0 -96,18 -127,53 -32,36 -48,82 -48,138 0,53 16,98 48,134 32,36 74,55 127,55z"/>
    <path id="2" class="fil7" d="M59010 28344l-66 129 -127 0 0 216c0,59 10,104 28,137 18,32 49,59 91,80l-105 70c-58,-17 -101,-46 -130,-86 -28,-41 -43,-92 -43,-155l0 -262 -107 0 0 -129 107 0 0 -145 159 -102 0 247 193 0z"/>
    <path id="3" class="fil7" d="M59724 28911l-113 54c-31,-30 -47,-60 -47,-90 -60,60 -137,90 -231,90 -92,0 -168,-30 -228,-90 -59,-59 -89,-136 -89,-229 0,-88 31,-164 94,-226 62,-63 138,-94 228,-94 94,0 169,29 223,85l130 -67 0 419c0,48 3,82 8,101 6,18 14,34 25,47zm-366 -75c53,0 96,-18 128,-54 33,-35 49,-81 49,-135 0,-58 -15,-105 -47,-139 -31,-35 -73,-52 -128,-52 -55,0 -98,17 -131,52 -32,36 -48,80 -48,135 0,55 16,101 48,138 31,36 75,55 129,55z"/>
    <polygon id="4" class="fil7" points="60014,28948 59855,28948 59855,28042 60014,27995 "/>
    <path class="fil8" d="M23280 21393l-81 145c-62,-41 -129,-62 -203,-62 -87,0 -157,26 -208,79 -51,53 -77,123 -77,211 0,87 26,157 78,210 52,54 121,80 207,80 67,0 133,-19 199,-59l83 142c-81,49 -175,73 -283,73 -134,0 -244,-42 -330,-127 -87,-84 -130,-191 -130,-319 0,-131 43,-237 130,-320 87,-83 197,-125 330,-125 107,0 202,24 285,72z"/>
    <path id="1" class="fil8" d="M23776 21321c127,0 234,43 322,129 87,85 131,191 131,316 0,125 -44,231 -131,317 -87,86 -194,129 -322,129 -126,0 -233,-43 -321,-129 -87,-86 -131,-192 -131,-317 0,-125 44,-231 131,-316 88,-86 195,-129 321,-129zm0 735c82,0 148,-27 199,-82 51,-56 77,-125 77,-208 0,-83 -26,-152 -77,-207 -51,-56 -117,-83 -199,-83 -81,0 -147,27 -198,83 -51,55 -77,124 -77,207 0,83 25,152 76,207 51,56 117,83 199,83z"/>
    <polygon id="2" class="fil8" points="25336,22195 25155,22195 25067,21715 24841,22212 24789,22212 24559,21715 24461,22195 24294,22195 24479,21330 24551,21330 24818,21891 25081,21330 25154,21330 "/>
    <path id="3" class="fil8" d="M25449 21337l264 0c112,0 197,24 255,71 59,46 88,114 88,204 0,90 -32,159 -96,205 -64,47 -154,70 -270,70l-68 0 0 308 -173 0 0 -858zm173 403l53 0c75,0 128,-11 158,-31 30,-21 45,-53 45,-96 0,-44 -14,-76 -42,-96 -28,-19 -78,-29 -151,-29l-63 0 0 252z"/>
    <path id="4" class="fil8" d="M26887 22195l-186 0 -63 -137 -413 0 -63 137 -176 0 408 -865 86 0 407 865zm-315 -284l-140 -301 -141 301 281 0z"/>
    <polygon id="5" class="fil8" points="27761,22212 27684,22212 27153,21641 27153,22195 26989,22195 26989,21330 27065,21330 27597,21884 27597,21337 27761,21337 "/>
    <polygon id="6" class="fil8" points="28690,21337 28358,21833 28358,22195 28186,22195 28186,21833 27868,21337 28056,21337 28279,21704 28515,21337 "/>
    <polygon id="7" class="fil8" points="29886,22212 29810,22212 29279,21641 29279,22195 29114,22195 29114,21330 29191,21330 29722,21884 29722,21337 29886,21337 "/>
    <path id="8" class="fil8" d="M30889 22195l-186 0 -63 -137 -413 0 -63 137 -176 0 408 -865 86 0 407 865zm-315 -284l-140 -301 -140 301 280 0z"/>
    <polygon id="9" class="fil8" points="31966,22195 31785,22195 31697,21715 31471,22212 31419,22212 31189,21715 31091,22195 30924,22195 31109,21330 31181,21330 31449,21891 31711,21330 31784,21330 "/>
    <polygon id="10" class="fil8" points="32660,22195 32080,22195 32080,21337 32650,21337 32562,21488 32252,21488 32252,21683 32533,21683 32533,21833 32252,21833 32252,22045 32574,22045 "/>
    <polygon id="11" class="fil8" points="23351,24169 23322,24169 22706,23523 22706,24152 22598,24152 22598,23279 22627,23279 23243,23925 23243,23295 23351,23295 "/>
    <path id="12" class="fil8" d="M24117 24129l-81 40c-29,-26 -43,-63 -43,-112 -57,75 -134,112 -232,112 -69,0 -123,-20 -162,-60 -38,-40 -57,-96 -57,-168l0 -392 104 0 0 369c0,51 11,90 34,115 22,26 55,39 100,39 62,0 113,-22 151,-65 39,-44 58,-99 58,-165l0 -293 105 0 0 444c0,70 8,115 23,136z"/>
    <path id="13" class="fil8" d="M25199 24152l-105 0 0 -370c0,-51 -9,-90 -28,-115 -18,-27 -46,-39 -84,-39 -58,0 -104,22 -140,67 -35,45 -53,100 -53,164l0 293 -104 0 0 -368c0,-52 -10,-91 -29,-117 -19,-26 -48,-39 -86,-39 -56,0 -102,22 -138,67 -35,45 -53,99 -53,162l0 295 -105 0 0 -577 102 -36 0 117c25,-42 55,-73 91,-94 35,-21 76,-32 122,-32 47,0 88,12 122,36 34,25 57,59 69,103 24,-46 55,-81 91,-104 37,-23 80,-35 129,-35 64,0 113,21 148,61 34,40 51,97 51,169l0 392z"/>
    <path id="14" class="fil8" d="M25483 23612c62,-54 136,-82 220,-82 94,0 171,30 231,90 60,60 90,136 90,230 0,92 -31,168 -91,229 -61,60 -137,90 -230,90 -94,0 -170,-30 -227,-92 0,36 -15,67 -43,92l-84 -40c17,-21 26,-67 26,-137l0 -756 108 -36 0 412zm211 465c64,0 115,-22 155,-65 39,-43 58,-98 58,-165 0,-65 -19,-119 -58,-161 -39,-42 -90,-63 -155,-63 -65,0 -117,21 -156,62 -38,42 -57,97 -57,165 0,68 19,122 58,164 38,42 90,63 155,63z"/>
    <path id="15" class="fil8" d="M26719 23801l-492 97c8,57 31,102 71,133 39,31 89,46 149,46 65,0 126,-17 181,-52l49 82c-74,41 -153,62 -238,62 -95,0 -173,-29 -236,-87 -62,-58 -94,-133 -94,-225 0,-91 31,-169 91,-232 61,-63 136,-95 226,-95 78,0 145,25 200,73 56,49 86,115 93,198zm-117 -62c-11,-38 -33,-67 -67,-88 -33,-21 -70,-32 -111,-32 -54,0 -99,18 -136,52 -37,35 -58,82 -64,141l378 -73z"/>
    <path id="16" class="fil8" d="M27196 23538l-20 102c-11,-2 -22,-4 -33,-4 -59,0 -108,20 -145,61 -37,39 -55,91 -55,153l0 302 -105 0 0 -577 101 -36 0 118c29,-42 61,-73 95,-95 34,-21 71,-32 111,-32 12,0 30,3 51,8z"/>
    <path id="17" class="fil8" d="M27359 24012c22,0 40,7 55,23 16,15 23,33 23,55 0,22 -7,41 -23,56 -15,15 -33,23 -55,23 -22,0 -41,-8 -56,-23 -15,-15 -23,-34 -23,-56 0,-22 8,-40 23,-55 15,-16 34,-23 56,-23zm0 -482c22,0 40,8 55,23 16,16 23,34 23,56 0,22 -7,41 -23,56 -15,16 -33,23 -55,23 -22,0 -41,-7 -56,-23 -15,-15 -23,-34 -23,-56 0,-22 8,-40 23,-56 15,-15 34,-23 56,-23z"/>
    <path id="18" class="fil8" d="M28532 24152l-630 0 0 -27 353 -362c47,-48 80,-90 99,-125 19,-36 28,-69 28,-101 0,-48 -16,-85 -46,-113 -31,-28 -71,-42 -119,-42 -41,0 -81,9 -122,27 -40,18 -80,45 -120,81l-66 -81c42,-42 91,-74 146,-96 54,-23 109,-34 164,-34 86,0 154,22 205,68 51,45 77,108 77,189 0,45 -12,90 -36,136 -24,46 -59,92 -107,138l-245 239 419 0 0 103z"/>
    <path id="19" class="fil8" d="M28931 23279c99,0 174,39 225,119 52,79 77,188 77,325 0,139 -25,248 -77,328 -51,79 -126,118 -225,118 -98,0 -173,-40 -224,-120 -51,-81 -77,-189 -77,-326 0,-137 26,-246 77,-325 51,-80 126,-119 224,-119zm0 787c60,0 106,-30 137,-90 31,-61 47,-145 47,-253 0,-108 -16,-192 -47,-252 -31,-60 -77,-89 -137,-89 -60,0 -105,30 -136,90 -31,60 -46,144 -46,251 0,107 15,191 46,252 31,60 76,91 136,91z"/>
    <polygon id="20" class="fil8" points="29694,24152 29582,24152 29582,23466 29406,23586 29406,23481 29665,23279 29694,23279 "/>
    <path id="21" class="fil8" d="M30537 23974l-102 0 0 178 -108 0 0 -178 -415 0 0 -50 478 -645 45 0 0 597 102 0 0 98zm-210 -98l0 -348 -259 348 259 0z"/>
    <path id="22" class="fil8" d="M30824 23587c35,-13 76,-19 122,-19 91,0 164,26 219,79 54,53 81,125 81,215 0,93 -29,167 -87,223 -57,56 -133,84 -228,84 -52,0 -103,-11 -151,-32 -48,-21 -94,-54 -138,-97l72 -79c36,35 72,61 108,79 37,17 73,26 111,26 59,0 106,-19 141,-55 35,-36 53,-85 53,-145 0,-62 -18,-111 -54,-146 -37,-36 -86,-54 -149,-54 -65,0 -127,19 -185,57l-22 0 10 -428 498 0 -82 101 -315 0 -4 191z"/>
    <path id="23" class="fil8" d="M31944 24152l-630 0 0 -27 353 -362c47,-48 80,-90 99,-125 18,-36 28,-69 28,-101 0,-48 -16,-85 -47,-113 -31,-28 -70,-42 -119,-42 -40,0 -81,9 -121,27 -40,18 -81,45 -121,81l-66 -81c43,-42 92,-74 146,-96 55,-23 109,-34 165,-34 86,0 154,22 205,68 51,45 76,108 76,189 0,45 -12,90 -35,136 -24,46 -60,92 -107,138l-245 239 419 0 0 103z"/>
    <polygon id="24" class="fil8" points="32415,24152 32304,24152 32304,23466 32128,23586 32128,23481 32387,23279 32415,23279 "/>
    <path id="25" class="fil8" d="M32839 23587c35,-13 76,-19 122,-19 91,0 164,26 218,79 54,53 81,125 81,215 0,93 -28,167 -86,223 -57,56 -133,84 -228,84 -53,0 -103,-11 -151,-32 -48,-21 -94,-54 -138,-97l72 -79c36,35 72,61 108,79 37,17 73,26 110,26 60,0 107,-19 142,-55 35,-36 53,-85 53,-145 0,-62 -18,-111 -55,-146 -36,-36 -85,-54 -148,-54 -65,0 -127,19 -185,57l-23 0 11 -428 498 0 -82 101 -315 0 -4 191z"/>
    <path id="26" class="fil8" d="M33966 23974l-102 0 0 178 -109 0 0 -178 -414 0 0 -50 477 -645 46 0 0 597 102 0 0 98zm-211 -98l0 -348 -258 348 258 0z"/>
    <polygon id="27" class="fil8" points="34422,24152 34311,24152 34311,23466 34135,23586 34135,23481 34394,23279 34422,23279 "/>
    <path id="28" class="fil8" d="M35291 24152l-630 0 0 -27 353 -362c47,-48 80,-90 99,-125 18,-36 28,-69 28,-101 0,-48 -16,-85 -47,-113 -31,-28 -70,-42 -119,-42 -40,0 -80,9 -121,27 -40,18 -81,45 -121,81l-66 -81c43,-42 92,-74 146,-96 55,-23 110,-34 165,-34 86,0 154,22 205,68 51,45 76,108 76,189 0,45 -12,90 -35,136 -24,46 -60,92 -107,138l-245 239 419 0 0 103z"/>
    <path id="29" class="fil8" d="M23324 26037c-108,60 -220,90 -337,90 -129,0 -235,-42 -319,-127 -84,-84 -126,-191 -126,-320 0,-126 45,-231 135,-317 90,-84 200,-127 329,-127 102,0 195,25 281,76l-64 88c-64,-41 -135,-62 -211,-62 -100,0 -183,32 -248,96 -64,64 -97,146 -97,246 0,104 31,187 93,250 62,63 144,94 246,94 73,0 140,-17 200,-51l0 -201 -257 0 74 -98 301 0 0 363z"/>
    <path id="30" class="fil8" d="M23918 25396c-61,-39 -121,-58 -182,-58 -44,0 -82,10 -112,31 -30,22 -45,51 -45,88 0,28 10,54 30,79 21,24 73,54 155,89 54,24 97,45 130,64 33,20 61,46 85,80 23,33 35,75 35,125 0,73 -28,131 -82,171 -55,41 -126,62 -213,62 -42,0 -89,-8 -139,-23 -51,-15 -96,-35 -134,-60l63 -93c72,47 142,71 210,71 59,0 104,-11 134,-33 30,-21 45,-54 45,-98 0,-29 -10,-55 -30,-79 -20,-24 -71,-52 -153,-86 -54,-22 -97,-43 -130,-62 -33,-19 -61,-45 -85,-79 -23,-34 -35,-76 -35,-128 0,-67 26,-121 78,-161 52,-40 117,-60 193,-60 84,0 165,24 243,71l-61 89z"/>
    <polygon id="31" class="fil8" points="24786,25351 24493,25351 24493,26110 24375,26110 24375,25351 24082,25351 24082,25252 24786,25252 "/>
    <polygon id="32" class="fil8" points="25028,26110 24911,26110 24911,25252 25028,25252 "/>
    <polygon id="33" class="fil8" points="25991,26127 25962,26127 25346,25480 25346,26110 25238,26110 25238,25236 25267,25236 25883,25882 25883,25252 25991,25252 "/>
    <path id="34" class="fil8" d="M26265 25969c22,0 41,7 56,23 16,15 23,34 23,56 0,22 -7,40 -23,56 -15,15 -34,23 -56,23 -21,0 -40,-8 -55,-23 -16,-16 -23,-34 -23,-56 0,-22 7,-41 23,-56 15,-16 34,-23 55,-23zm0 -481c22,0 41,8 56,23 16,15 23,34 23,56 0,22 -7,40 -23,56 -15,15 -34,23 -56,23 -21,0 -40,-8 -55,-23 -16,-16 -23,-34 -23,-56 0,-22 7,-41 23,-56 15,-15 34,-23 55,-23z"/>
    <polygon id="35" class="fil8" points="27228,26110 27117,26110 27117,25423 26941,25543 26941,25439 27200,25236 27228,25236 "/>
    <polygon id="36" class="fil8" points="27731,26110 27619,26110 27619,25423 27443,25543 27443,25439 27702,25236 27731,25236 "/>
    <path id="37" class="fil8" d="M28868 26110l-127 0 -100 -210 -417 0 -98 210 -124 0 420 -874 27 0 419 874zm-271 -307l-166 -345 -162 345 328 0z"/>
    <polygon id="38" class="fil8" points="29568,25252 29490,25351 29104,25351 29104,25635 29468,25635 29468,25733 29104,25733 29104,26110 28987,26110 28987,25252 "/>
    <polygon id="39" class="fil8" points="30418,25252 30012,26127 29985,26127 29589,25252 29717,25252 30003,25889 30294,25252 "/>
    <polygon id="40" class="fil8" points="31114,25252 31036,25351 30650,25351 30650,25635 31014,25635 31014,25733 30650,25733 30650,26110 30533,26110 30533,25252 "/>
    <path id="41" class="fil8" d="M31880 26110l-143 0 -242 -334 -148 0 0 334 -117 0 0 -858 258 0c103,0 184,21 240,63 57,42 85,103 85,183 0,61 -17,115 -51,160 -35,45 -83,77 -145,94l263 358zm-533 -432l79 0c94,0 163,-15 205,-44 43,-29 64,-72 64,-129 0,-50 -17,-88 -51,-115 -35,-26 -100,-39 -197,-39l-100 0 0 327z"/>
    <polygon id="42" class="fil8" points="32728,26110 32611,26110 32611,25715 32118,25715 32118,26110 32000,26110 32000,25252 32118,25252 32118,25617 32611,25617 32611,25252 32728,25252 "/>
    <polygon id="43" class="fil8" points="33657,26110 33488,26110 33055,25695 33055,26110 32938,26110 32938,25252 33055,25252 33055,25643 33442,25252 33596,25252 33181,25665 "/>
    <path id="44" class="fil8" d="M34324 26110l-630 0 0 -28 353 -361c47,-49 80,-91 99,-126 19,-35 28,-69 28,-101 0,-47 -15,-85 -46,-113 -31,-28 -71,-42 -119,-42 -41,0 -81,9 -122,27 -40,18 -80,45 -120,81l-66 -81c43,-41 91,-73 146,-96 54,-23 109,-34 164,-34 86,0 154,23 205,68 51,46 77,109 77,189 0,45 -12,90 -36,137 -24,46 -59,92 -107,137l-245 239 419 0 0 104z"/>
    <path id="45" class="fil8" d="M35031 26110l-630 0 0 -28 353 -361c47,-49 80,-91 99,-126 19,-35 28,-69 28,-101 0,-47 -16,-85 -46,-113 -31,-28 -71,-42 -119,-42 -41,0 -81,9 -122,27 -40,18 -80,45 -120,81l-66 -81c43,-41 91,-73 146,-96 54,-23 109,-34 164,-34 86,0 154,23 205,68 51,46 77,109 77,189 0,45 -12,90 -36,137 -24,46 -59,92 -107,137l-245 239 419 0 0 104z"/>
    <path id="46" class="fil8" d="M35689 25931l-102 0 0 179 -109 0 0 -179 -415 0 0 -50 478 -645 46 0 0 597 102 0 0 98zm-211 -98l0 -348 -259 348 259 0z"/>
    <path id="47" class="fil8" d="M36021 25581c36,-15 72,-22 110,-22 77,0 142,27 194,82 52,55 77,122 77,201 0,84 -28,152 -85,205 -57,53 -128,80 -215,80 -87,0 -159,-27 -215,-81 -56,-54 -84,-124 -84,-210 0,-74 31,-161 93,-261 62,-100 155,-213 279,-339l147 0c-61,58 -116,115 -166,173 -50,57 -95,114 -135,172zm80 442c49,0 92,-17 128,-52 37,-35 55,-77 55,-126 0,-51 -18,-93 -53,-129 -36,-36 -79,-54 -129,-54 -53,0 -96,17 -130,52 -34,34 -51,78 -51,132 0,48 18,90 54,125 35,35 77,52 126,52z"/>
    <path id="48" class="fil8" d="M36682 25545c36,-13 77,-20 122,-20 92,0 165,27 219,80 54,53 81,124 81,215 0,92 -29,167 -86,223 -57,56 -133,84 -228,84 -53,0 -103,-11 -151,-32 -49,-22 -94,-54 -138,-98l72 -79c35,35 72,61 108,79 36,17 73,26 110,26 59,0 107,-18 142,-54 35,-37 52,-85 52,-145 0,-63 -18,-111 -54,-147 -36,-36 -86,-53 -149,-53 -65,0 -126,19 -185,56l-22 0 11 -428 497 0 -81 101 -316 0 -4 192z"/>
    <polygon id="49" class="fil8" points="37552,26110 37441,26110 37441,25423 37264,25543 37264,25439 37523,25236 37552,25236 "/>
    <path class="fil8" d="M50452 23068l282 0c136,0 249,39 337,118 89,78 134,182 134,310 0,129 -44,232 -132,311 -88,79 -200,118 -335,118l-286 0 0 -857zm118 759l145 0c111,0 199,-30 265,-88 66,-59 99,-140 99,-243 0,-101 -33,-182 -101,-241 -67,-59 -155,-89 -263,-89l-145 0 0 661z"/>
    <path id="1" class="fil8" d="M51967 23903l-79 39c-29,-25 -43,-56 -43,-92 -59,62 -135,92 -228,92 -92,0 -169,-30 -229,-91 -61,-60 -91,-137 -91,-228 0,-88 31,-163 94,-226 63,-62 138,-94 226,-94 93,0 168,30 226,88l100 -69 0 444c0,71 8,117 24,137zm-341 -53c65,0 117,-21 156,-63 38,-42 58,-96 58,-164 0,-68 -20,-123 -58,-165 -39,-41 -91,-62 -156,-62 -64,0 -115,21 -154,63 -39,41 -59,95 -59,161 0,66 19,121 57,165 39,43 91,65 156,65z"/>
    <path id="2" class="fil8" d="M52496 23322l-53 84 -160 0 0 276c0,77 10,131 29,162 20,30 43,51 69,62l-60 48c-48,-14 -84,-41 -107,-80 -24,-40 -36,-92 -36,-157l0 -311 -133 0 0 -84 133 0 0 -148 105 -84 0 232 213 0z"/>
    <path id="3" class="fil8" d="M53107 23574l-492 97c8,57 31,102 71,133 39,31 89,46 149,46 65,0 126,-17 181,-52l49 82c-74,41 -153,62 -238,62 -95,0 -173,-29 -236,-87 -62,-58 -94,-133 -94,-225 0,-91 31,-169 91,-232 61,-63 136,-95 226,-95 78,0 145,25 200,73 56,49 86,115 93,198zm-117 -62c-11,-38 -33,-67 -67,-88 -33,-21 -70,-32 -111,-32 -54,0 -99,18 -136,52 -37,35 -58,82 -64,141l378 -73z"/>
    <path id="4" class="fil8" d="M53307 23785c22,0 41,7 56,23 16,15 23,33 23,55 0,22 -7,41 -23,56 -15,15 -34,23 -56,23 -22,0 -40,-8 -56,-23 -15,-15 -23,-34 -23,-56 0,-22 8,-40 23,-55 16,-16 34,-23 56,-23zm0 -482c22,0 41,8 56,23 16,16 23,34 23,56 0,22 -7,41 -23,56 -15,16 -34,23 -56,23 -22,0 -40,-7 -56,-23 -15,-15 -23,-34 -23,-56 0,-22 8,-40 23,-56 16,-15 34,-23 56,-23z"/>
    <path id="5" class="fil8" d="M54481 23925l-630 0 0 -27 353 -362c47,-48 80,-90 99,-125 18,-36 28,-69 28,-101 0,-48 -16,-85 -47,-113 -31,-28 -70,-43 -119,-43 -40,0 -81,10 -121,28 -40,18 -81,45 -121,81l-66 -81c43,-42 92,-74 146,-96 55,-23 109,-34 165,-34 86,0 154,22 205,68 51,45 76,108 76,189 0,45 -12,90 -36,136 -23,46 -59,92 -106,138l-245 239 419 0 0 103z"/>
    <path id="6" class="fil8" d="M54880 23052c99,0 174,39 225,119 51,79 77,188 77,325 0,139 -26,248 -77,328 -51,79 -126,118 -225,118 -98,0 -173,-40 -224,-120 -52,-81 -77,-189 -77,-326 0,-137 25,-246 76,-325 51,-80 126,-119 225,-119zm0 787c60,0 106,-30 137,-90 31,-61 46,-145 46,-253 0,-108 -15,-192 -46,-252 -31,-60 -77,-90 -137,-90 -60,0 -105,31 -136,91 -31,60 -47,144 -47,251 0,107 16,191 47,252 31,60 76,91 136,91z"/>
    <polygon id="7" class="fil8" points="55642,22973 55313,24021 55213,24021 55543,22973 "/>
    <polygon id="8" class="fil8" points="56066,23925 55955,23925 55955,23239 55779,23359 55779,23254 56038,23052 56066,23052 "/>
    <polygon id="9" class="fil8" points="56569,23925 56458,23925 56458,23239 56282,23359 56282,23254 56540,23052 56569,23052 "/>
    <polygon id="10" class="fil8" points="57234,22973 56904,24021 56805,24021 57134,22973 "/>
    <path id="11" class="fil8" d="M57933 23925l-629 0 0 -27 352 -362c47,-48 80,-90 99,-125 19,-36 28,-69 28,-101 0,-48 -15,-85 -46,-113 -31,-28 -71,-43 -119,-43 -41,0 -81,10 -121,28 -41,18 -81,45 -121,81l-66 -81c43,-42 91,-74 146,-96 54,-23 109,-34 164,-34 86,0 155,22 205,68 51,45 77,108 77,189 0,45 -12,90 -36,136 -24,46 -59,92 -107,138l-245 239 419 0 0 103z"/>
    <path id="12" class="fil8" d="M58332 23052c99,0 174,39 226,119 51,79 77,188 77,325 0,139 -26,248 -77,328 -52,79 -127,118 -226,118 -98,0 -172,-40 -224,-120 -51,-81 -77,-189 -77,-326 0,-137 26,-246 77,-325 51,-80 126,-119 224,-119zm0 787c60,0 106,-30 137,-90 31,-61 47,-145 47,-253 0,-108 -16,-192 -47,-252 -31,-60 -77,-90 -137,-90 -60,0 -105,31 -136,91 -31,60 -46,144 -46,251 0,107 15,191 46,252 31,60 76,91 136,91z"/>
    <polygon id="13" class="fil8" points="59095,23925 58984,23925 58984,23239 58808,23359 58808,23254 59066,23052 59095,23052 "/>
    <path id="14" class="fil8" d="M59708 23597c-32,15 -65,22 -100,22 -80,0 -147,-27 -201,-81 -53,-55 -80,-122 -80,-202 0,-84 29,-152 85,-205 57,-53 129,-79 215,-79 88,0 160,26 216,80 56,54 84,124 84,210 0,74 -31,161 -93,261 -62,100 -155,213 -279,339l-148 0c60,-58 116,-115 166,-173 50,-57 95,-115 135,-172zm-81 -81c53,0 96,-18 130,-52 34,-35 51,-79 51,-132 0,-49 -18,-91 -53,-125 -36,-35 -78,-53 -127,-53 -49,0 -92,18 -128,53 -36,35 -54,77 -54,126 0,51 18,94 53,129 35,36 78,54 128,54z"/>
    <path id="15" class="fil8" d="M46938 25252l255 0c112,0 197,22 254,65 56,43 85,108 85,194 0,63 -14,112 -42,149 -28,37 -65,64 -110,80 -45,17 -91,27 -138,31 -48,3 -110,5 -186,5l0 334 -118 0 0 -858zm118 426l88 0c102,0 172,-14 209,-42 37,-29 56,-70 56,-124 0,-52 -17,-92 -50,-119 -33,-28 -101,-42 -204,-42l-99 0 0 327z"/>
    <path id="16" class="fil8" d="M48327 26110l-127 0 -100 -210 -417 0 -99 210 -124 0 420 -874 27 0 420 874zm-272 -307l-166 -345 -161 345 327 0z"/>
    <polygon id="17" class="fil8" points="49199,26127 49169,26127 48554,25480 48554,26110 48445,26110 48445,25236 48475,25236 49090,25882 49090,25252 49199,25252 "/>
    <path id="18" class="fil8" d="M49473 25969c22,0 40,7 56,23 15,15 23,34 23,56 0,22 -8,40 -23,56 -16,15 -34,23 -56,23 -22,0 -41,-8 -56,-23 -15,-16 -23,-34 -23,-56 0,-22 8,-41 23,-56 15,-16 34,-23 56,-23zm0 -481c22,0 40,8 56,23 15,15 23,34 23,56 0,22 -8,40 -23,56 -16,15 -34,23 -56,23 -22,0 -41,-8 -56,-23 -15,-16 -23,-34 -23,-56 0,-22 8,-41 23,-56 15,-15 34,-23 56,-23z"/>
    <path id="19" class="fil8" d="M50866 26110l-127 0 -100 -210 -417 0 -98 210 -124 0 420 -874 27 0 419 874zm-271 -307l-166 -345 -162 345 328 0z"/>
    <path id="20" class="fil8" d="M51760 26110l-126 0 -100 -210 -417 0 -99 210 -124 0 420 -874 27 0 419 874zm-271 -307l-166 -345 -162 345 328 0z"/>
    <path id="21" class="fil8" d="M52655 26110l-127 0 -100 -210 -417 0 -98 210 -124 0 420 -874 27 0 419 874zm-272 -307l-166 -345 -161 345 327 0z"/>
    <path id="22" class="fil8" d="M53329 26110l-629 0 0 -28 352 -361c48,-49 81,-91 99,-126 19,-35 28,-69 28,-101 0,-47 -15,-85 -46,-113 -31,-28 -71,-42 -119,-42 -40,0 -81,9 -121,27 -41,18 -81,45 -121,81l-66 -81c43,-41 91,-73 146,-96 54,-23 109,-34 164,-34 86,0 155,23 206,68 51,46 76,109 76,189 0,45 -12,90 -36,137 -23,46 -59,92 -107,137l-245 239 419 0 0 104z"/>
    <path id="23" class="fil8" d="M53842 25655c49,11 87,36 115,75 29,38 43,82 43,130 0,82 -28,147 -82,195 -55,48 -124,72 -207,72 -55,0 -110,-12 -164,-34 -54,-22 -101,-54 -139,-95l70 -80c35,35 71,61 108,79 37,17 76,26 115,26 54,0 98,-14 131,-42 33,-29 49,-68 49,-117 0,-47 -11,-81 -34,-103 -22,-23 -50,-37 -82,-42 -33,-6 -74,-9 -124,-9l0 -100c46,0 85,-2 115,-8 30,-5 56,-18 77,-39 21,-20 31,-53 31,-96 0,-40 -14,-71 -42,-94 -28,-23 -65,-34 -111,-34 -38,0 -74,9 -109,26 -35,18 -69,45 -101,80l-71 -78c42,-43 88,-76 136,-98 48,-22 99,-33 152,-33 79,0 142,20 189,61 47,41 71,97 71,169 0,44 -12,83 -35,117 -24,33 -57,57 -101,72z"/>
    <path id="24" class="fil8" d="M54726 25931l-102 0 0 179 -108 0 0 -179 -415 0 0 -50 478 -645 45 0 0 597 102 0 0 98zm-210 -98l0 -348 -259 348 259 0z"/>
    <polygon id="25" class="fil8" points="55183,26110 55071,26110 55071,25423 54895,25543 54895,25439 55154,25236 55183,25236 "/>
    <path id="26" class="fil8" d="M56051 26110l-630 0 0 -28 353 -361c47,-49 80,-91 99,-126 19,-35 28,-69 28,-101 0,-47 -16,-85 -46,-113 -32,-28 -71,-42 -119,-42 -41,0 -81,9 -122,27 -40,18 -80,45 -120,81l-67 -81c43,-41 92,-73 147,-96 54,-23 109,-34 164,-34 86,0 154,23 205,68 51,46 77,109 77,189 0,45 -12,90 -36,137 -24,46 -59,92 -107,137l-245 239 419 0 0 104z"/>
    <polygon id="27" class="fil8" points="56523,26110 56411,26110 56411,25423 56235,25543 56235,25439 56494,25236 56523,25236 "/>
    <path id="28" class="fil8" d="M57565 26054c-39,23 -84,41 -135,53 -51,13 -98,20 -144,20 -132,0 -241,-42 -327,-126 -87,-84 -130,-191 -130,-321 0,-129 43,-235 130,-319 86,-83 196,-125 327,-125 104,0 197,25 279,76l-62 88c-63,-41 -136,-62 -218,-62 -99,0 -179,31 -240,95 -61,63 -91,146 -91,247 0,102 30,185 90,248 60,62 141,94 242,94 77,0 149,-21 219,-61l60 93z"/>
    <polygon id="29" class="fil8" points="58289,25252 58211,25351 57825,25351 57825,25635 58189,25635 58189,25733 57825,25733 57825,26110 57708,26110 57708,25252 "/>
    <path id="30" class="fil8" d="M59055 26110l-143 0 -242 -334 -148 0 0 334 -117 0 0 -858 258 0c104,0 184,21 240,63 57,42 85,103 85,183 0,61 -17,115 -51,160 -35,45 -83,77 -145,94l263 358zm-533 -432l79 0c94,0 163,-15 205,-44 43,-29 64,-72 64,-129 0,-50 -17,-88 -51,-115 -35,-26 -100,-39 -197,-39l-100 0 0 327z"/>
    <path id="31" class="fil8" d="M59175 25252l282 0c136,0 249,40 338,118 89,79 133,182 133,310 0,129 -44,233 -132,312 -87,78 -199,118 -335,118l-286 0 0 -858zm118 759l145 0c111,0 199,-29 265,-88 66,-58 99,-139 99,-243 0,-101 -33,-181 -100,-240 -67,-60 -155,-89 -264,-89l-145 0 0 660z"/>
    <path class="fil9" d="M22966 32526c-60,-39 -121,-59 -181,-59 -45,0 -82,11 -112,32 -31,22 -46,51 -46,88 0,28 10,54 31,78 21,25 72,55 155,90 53,23 96,45 129,64 33,19 62,46 85,79 23,34 35,75 35,125 0,74 -27,131 -82,172 -54,41 -125,61 -213,61 -42,0 -88,-7 -139,-22 -51,-16 -95,-35 -133,-60l63 -94c72,48 142,72 209,72 60,0 105,-11 135,-33 30,-22 45,-54 45,-98 0,-29 -11,-55 -31,-79 -20,-24 -71,-53 -153,-86 -53,-22 -96,-43 -129,-62 -33,-19 -62,-46 -85,-79 -24,-34 -36,-77 -36,-128 0,-68 27,-121 79,-161 52,-40 116,-60 193,-60 84,0 165,23 243,70l-62 90z"/>
    <path id="1" class="fil9" d="M23824 33217l-80 39c-28,-25 -42,-56 -42,-92 -59,62 -135,92 -228,92 -92,0 -169,-30 -229,-91 -61,-60 -91,-136 -91,-228 0,-88 31,-163 94,-226 62,-62 138,-94 226,-94 93,0 168,30 226,88l100 -69 0 444c0,71 8,117 24,137zm-341 -53c65,0 117,-21 155,-63 39,-42 59,-96 59,-164 0,-68 -20,-123 -58,-165 -39,-41 -91,-62 -156,-62 -64,0 -115,21 -154,63 -40,41 -59,95 -59,161 0,67 19,121 57,165 39,43 91,65 156,65z"/>
    <path id="2" class="fil9" d="M24905 33239l-104 0 0 -370c0,-51 -10,-90 -29,-115 -18,-26 -46,-39 -84,-39 -57,0 -104,22 -140,67 -35,45 -53,100 -53,164l0 293 -104 0 0 -368c0,-52 -10,-91 -29,-117 -19,-26 -47,-39 -85,-39 -57,0 -103,22 -139,67 -35,45 -53,99 -53,163l0 294 -104 0 0 -577 101 -36 0 117c25,-42 55,-73 91,-94 35,-21 76,-32 122,-32 47,0 88,13 122,36 34,25 57,59 69,103 25,-46 55,-81 92,-104 36,-23 79,-35 128,-35 64,0 114,21 148,61 34,40 51,97 51,169l0 392z"/>
    <path id="3" class="fil9" d="M25184 32706c60,-59 136,-89 231,-89 88,0 162,31 222,93 60,62 90,138 90,227 0,91 -30,167 -91,228 -61,61 -138,91 -229,91 -86,0 -158,-28 -218,-84l0 298 -108 38 0 -872 103 70zm216 459c65,0 117,-21 155,-64 38,-42 57,-98 57,-167 0,-66 -19,-120 -57,-161 -38,-42 -90,-63 -155,-63 -65,0 -117,21 -156,63 -38,41 -57,96 -57,164 0,69 19,124 57,166 38,41 91,62 156,62z"/>
    <polygon id="4" class="fil9" points="25969,33239 25865,33239 25865,32321 25969,32287 "/>
    <path id="5" class="fil9" d="M26716 32888l-492 97c8,58 31,102 71,133 39,31 89,46 149,46 65,0 126,-17 181,-52l49 82c-74,41 -153,62 -238,62 -95,0 -173,-29 -236,-87 -62,-58 -94,-133 -94,-224 0,-92 31,-170 91,-233 61,-63 136,-95 226,-95 78,0 145,25 200,73 56,49 86,115 93,198zm-117 -62c-11,-38 -33,-67 -67,-88 -33,-21 -70,-32 -111,-32 -54,0 -99,18 -136,52 -37,35 -58,82 -64,141l378 -73z"/>
    <polygon id="6" class="fil9" points="27540,33239 27429,33239 27429,32553 27253,32673 27253,32568 27512,32366 27540,32366 "/>
    <path class="fil9" d="M22966 35638c-60,-39 -121,-59 -181,-59 -45,0 -82,11 -112,32 -31,21 -46,50 -46,88 0,28 10,54 31,78 21,25 72,55 155,90 53,23 96,44 129,64 33,19 62,45 85,79 23,33 35,75 35,125 0,74 -27,131 -82,172 -54,41 -125,61 -213,61 -42,0 -88,-7 -139,-22 -51,-16 -95,-36 -133,-61l63 -93c72,48 142,71 209,71 60,0 105,-11 135,-32 30,-22 45,-55 45,-98 0,-29 -11,-55 -31,-79 -20,-24 -71,-53 -153,-87 -53,-22 -96,-42 -129,-61 -33,-19 -62,-46 -85,-79 -24,-34 -36,-77 -36,-128 0,-68 27,-122 79,-161 52,-40 116,-61 193,-61 84,0 165,24 243,71l-62 90z"/>
    <path id="1" class="fil9" d="M23824 36329l-80 39c-28,-25 -42,-56 -42,-92 -59,62 -135,92 -228,92 -92,0 -169,-30 -229,-91 -61,-60 -91,-137 -91,-228 0,-88 31,-163 94,-226 62,-62 138,-94 226,-94 93,0 168,30 226,88l100 -69 0 444c0,71 8,117 24,137zm-341 -53c65,0 117,-21 155,-63 39,-42 59,-96 59,-164 0,-68 -20,-123 -58,-165 -39,-41 -91,-62 -156,-62 -64,0 -115,21 -154,63 -40,41 -59,95 -59,161 0,66 19,121 57,165 39,43 91,65 156,65z"/>
    <path id="2" class="fil9" d="M24905 36351l-104 0 0 -370c0,-51 -10,-90 -29,-115 -18,-27 -46,-39 -84,-39 -57,0 -104,22 -140,67 -35,45 -53,100 -53,164l0 293 -104 0 0 -368c0,-52 -10,-91 -29,-117 -19,-26 -47,-39 -85,-39 -57,0 -103,22 -139,67 -35,45 -53,99 -53,162l0 295 -104 0 0 -577 101 -36 0 117c25,-42 55,-73 91,-94 35,-21 76,-32 122,-32 47,0 88,12 122,36 34,24 57,58 69,103 25,-46 55,-81 92,-104 36,-23 79,-35 128,-35 64,0 114,21 148,61 34,40 51,97 51,169l0 392z"/>
    <path id="3" class="fil9" d="M25184 35818c60,-59 136,-89 231,-89 88,0 162,31 222,93 60,62 90,138 90,227 0,91 -30,167 -91,228 -61,61 -138,91 -229,91 -86,0 -158,-28 -218,-84l0 298 -108 38 0 -872 103 70zm216 459c65,0 117,-21 155,-64 38,-42 57,-98 57,-167 0,-66 -19,-120 -57,-161 -38,-42 -90,-63 -155,-63 -65,0 -117,21 -156,63 -38,41 -57,96 -57,164 0,68 19,124 57,166 38,41 91,62 156,62z"/>
    <polygon id="4" class="fil9" points="25969,36351 25865,36351 25865,35433 25969,35399 "/>
    <path id="5" class="fil9" d="M26716 36000l-492 97c8,57 31,102 71,133 39,31 89,46 149,46 65,0 126,-17 181,-52l49 82c-74,41 -153,62 -238,62 -95,0 -173,-29 -236,-87 -62,-58 -94,-133 -94,-225 0,-91 31,-169 91,-232 61,-63 136,-95 226,-95 78,0 145,25 200,73 56,49 86,115 93,198zm-117 -62c-11,-38 -33,-67 -67,-88 -33,-21 -70,-32 -111,-32 -54,0 -99,18 -136,52 -37,35 -58,81 -64,141l378 -73z"/>
    <path id="6" class="fil9" d="M27751 36351l-630 0 0 -27 353 -362c47,-48 80,-90 99,-125 18,-36 28,-69 28,-101 0,-48 -16,-86 -47,-114 -31,-28 -70,-42 -119,-42 -40,0 -80,10 -121,28 -40,18 -81,45 -121,81l-66 -81c43,-42 92,-74 146,-96 55,-23 110,-35 165,-35 86,0 154,23 205,69 51,45 76,108 76,189 0,45 -12,90 -35,136 -24,46 -60,92 -107,138l-245 239 419 0 0 103z"/>
    <path class="fil9" d="M22966 38870c-60,-39 -121,-59 -181,-59 -45,0 -82,11 -112,32 -31,22 -46,51 -46,88 0,28 10,54 31,78 21,25 72,55 155,90 53,23 96,45 129,64 33,19 62,46 85,79 23,34 35,75 35,125 0,74 -27,131 -82,172 -54,41 -125,61 -213,61 -42,0 -88,-7 -139,-22 -51,-16 -95,-35 -133,-60l63 -94c72,48 142,72 209,72 60,0 105,-11 135,-33 30,-22 45,-54 45,-98 0,-29 -11,-55 -31,-79 -20,-24 -71,-53 -153,-86 -53,-22 -96,-43 -129,-62 -33,-19 -62,-46 -85,-79 -24,-34 -36,-77 -36,-128 0,-68 27,-121 79,-161 52,-40 116,-60 193,-60 84,0 165,23 243,70l-62 90z"/>
    <path id="1" class="fil9" d="M23824 39561l-80 39c-28,-25 -42,-56 -42,-92 -59,62 -135,92 -228,92 -92,0 -169,-30 -229,-91 -61,-60 -91,-136 -91,-228 0,-88 31,-163 94,-226 62,-62 138,-94 226,-94 93,0 168,30 226,88l100 -69 0 444c0,71 8,117 24,137zm-341 -53c65,0 117,-21 155,-63 39,-42 59,-96 59,-164 0,-68 -20,-123 -58,-165 -39,-41 -91,-62 -156,-62 -64,0 -115,21 -154,63 -40,41 -59,95 -59,161 0,67 19,121 57,165 39,43 91,65 156,65z"/>
    <path id="2" class="fil9" d="M24905 39583l-104 0 0 -370c0,-51 -10,-90 -29,-115 -18,-26 -46,-39 -84,-39 -57,0 -104,22 -140,67 -35,45 -53,100 -53,164l0 293 -104 0 0 -368c0,-52 -10,-91 -29,-117 -19,-26 -47,-39 -85,-39 -57,0 -103,22 -139,67 -35,45 -53,99 -53,163l0 294 -104 0 0 -577 101 -36 0 117c25,-42 55,-73 91,-94 35,-21 76,-32 122,-32 47,0 88,13 122,36 34,25 57,59 69,103 25,-46 55,-81 92,-104 36,-23 79,-35 128,-35 64,0 114,21 148,61 34,40 51,97 51,169l0 392z"/>
    <path id="3" class="fil9" d="M25184 39050c60,-59 136,-89 231,-89 88,0 162,31 222,93 60,62 90,138 90,227 0,91 -30,167 -91,228 -61,61 -138,91 -229,91 -86,0 -158,-28 -218,-84l0 298 -108 38 0 -872 103 70zm216 459c65,0 117,-21 155,-64 38,-42 57,-98 57,-167 0,-66 -19,-120 -57,-161 -38,-42 -90,-63 -155,-63 -65,0 -117,21 -156,63 -38,41 -57,96 -57,164 0,69 19,124 57,166 38,41 91,62 156,62z"/>
    <polygon id="4" class="fil9" points="25969,39583 25865,39583 25865,38665 25969,38631 "/>
    <path id="5" class="fil9" d="M26716 39232l-492 97c8,58 31,102 71,133 39,31 89,46 149,46 65,0 126,-17 181,-52l49 82c-74,41 -153,62 -238,62 -95,0 -173,-29 -236,-87 -62,-58 -94,-133 -94,-224 0,-92 31,-170 91,-233 61,-63 136,-95 226,-95 78,0 145,25 200,74 56,48 86,114 93,197zm-117 -62c-11,-38 -33,-67 -67,-88 -33,-21 -70,-32 -111,-32 -54,0 -99,18 -136,52 -37,35 -58,82 -64,141l378 -73z"/>
    <path id="6" class="fil9" d="M27556 39128c49,12 87,37 116,76 28,38 42,82 42,130 0,82 -27,146 -82,194 -54,48 -123,72 -206,72 -56,0 -111,-11 -165,-33 -54,-22 -100,-54 -139,-95l70 -80c35,35 71,61 108,79 38,17 76,26 116,26 54,0 97,-14 130,-43 33,-28 50,-67 50,-116 0,-47 -12,-82 -34,-104 -23,-22 -50,-36 -83,-42 -32,-5 -74,-8 -124,-8l0 -100c47,0 85,-3 116,-8 30,-5 55,-18 76,-39 21,-21 32,-53 32,-96 0,-40 -14,-72 -42,-94 -28,-23 -65,-34 -111,-34 -39,0 -75,8 -110,26 -35,18 -69,44 -100,80l-72 -78c43,-44 88,-77 136,-98 48,-22 99,-33 153,-33 78,0 141,20 188,61 47,41 71,97 71,168 0,45 -11,84 -35,117 -23,33 -57,57 -101,72z"/>
    <path class="fil8" d="M36977 32674c36,-13 77,-19 122,-19 92,0 165,26 219,79 54,53 81,125 81,215 0,93 -29,167 -86,223 -57,56 -133,84 -228,84 -53,0 -103,-10 -151,-32 -49,-21 -94,-54 -138,-97l72 -79c35,35 72,61 108,79 36,17 73,26 110,26 59,0 107,-18 142,-55 35,-36 52,-85 52,-145 0,-62 -18,-111 -54,-146 -36,-36 -86,-54 -149,-54 -65,0 -126,19 -185,57l-22 0 11 -428 497 0 -81 101 -316 0 -4 191z"/>
    <path id="1" class="fil8" d="M38105 33061l-102 0 0 178 -109 0 0 -178 -415 0 0 -50 478 -645 46 0 0 597 102 0 0 98zm-211 -98l0 -348 -259 348 259 0z"/>
    <polygon id="2" class="fil8" points="38561,33239 38450,33239 38450,32553 38274,32673 38274,32568 38533,32366 38561,32366 "/>
    <path id="3" class="fil8" d="M39429 33239l-629 0 0 -27 352 -362c48,-48 81,-90 99,-125 19,-36 28,-69 28,-101 0,-48 -15,-85 -46,-113 -31,-28 -71,-42 -119,-42 -40,0 -81,9 -121,27 -41,18 -81,45 -121,81l-66 -81c43,-42 91,-74 146,-96 54,-23 109,-34 164,-34 86,0 155,22 206,68 51,45 76,108 76,189 0,45 -12,90 -36,136 -23,46 -59,92 -107,138l-245 239 419 0 0 103z"/>
    <path id="4" class="fil8" d="M39942 32784c49,12 87,37 115,76 29,38 43,82 43,130 0,82 -28,146 -82,194 -55,48 -124,72 -207,72 -55,0 -110,-11 -164,-33 -54,-23 -101,-54 -139,-95l70 -80c35,35 71,61 108,79 37,17 76,26 115,26 54,0 98,-14 131,-43 33,-28 49,-67 49,-116 0,-47 -11,-82 -34,-104 -22,-22 -50,-36 -82,-42 -33,-5 -74,-8 -124,-8l0 -100c46,0 85,-3 115,-8 30,-5 56,-18 77,-39 21,-21 31,-53 31,-96 0,-40 -14,-72 -42,-94 -28,-23 -65,-34 -111,-34 -38,0 -75,8 -109,26 -35,18 -69,44 -101,80l-71 -78c42,-44 88,-77 136,-98 48,-22 99,-33 152,-33 79,0 142,20 189,61 47,41 71,97 71,168 0,45 -12,84 -35,117 -24,33 -57,57 -101,72z"/>
    <polygon id="5" class="fil8" points="40601,33239 40489,33239 40489,32553 40313,32673 40313,32568 40572,32366 40601,32366 "/>
    <path class="fil8" d="M45576 33239l-629 0 0 -27 352 -362c48,-48 81,-90 99,-125 19,-36 28,-69 28,-101 0,-48 -15,-85 -46,-113 -31,-28 -71,-42 -119,-42 -40,0 -81,9 -121,27 -41,18 -81,45 -121,81l-66 -81c43,-42 92,-74 146,-96 55,-23 109,-34 164,-34 86,0 155,22 206,68 51,45 76,108 76,189 0,45 -12,90 -36,136 -23,46 -59,92 -107,138l-245 239 419 0 0 103z"/>
    <polygon class="fil8" points="51215,33239 51104,33239 51104,32553 50928,32673 50928,32568 51186,32366 51215,32366 "/>
    <path id="1" class="fil8" d="M51768 32366c99,0 174,39 225,119 51,79 77,188 77,325 0,139 -26,249 -77,328 -51,79 -126,118 -225,118 -98,0 -173,-40 -224,-120 -52,-81 -77,-189 -77,-326 0,-137 25,-246 76,-325 51,-80 126,-119 225,-119zm0 787c60,0 106,-30 137,-90 31,-61 46,-145 46,-253 0,-108 -15,-191 -46,-252 -31,-59 -77,-89 -137,-89 -60,0 -105,30 -136,90 -31,60 -47,144 -47,251 0,107 16,191 47,252 31,61 76,91 136,91z"/>
    <path id="2" class="fil8" d="M52475 32366c99,0 174,39 225,119 51,79 77,188 77,325 0,139 -26,249 -77,328 -51,79 -126,118 -225,118 -98,0 -173,-40 -224,-120 -52,-81 -77,-189 -77,-326 0,-137 25,-246 76,-325 51,-80 126,-119 225,-119zm0 787c60,0 106,-30 137,-90 31,-61 46,-145 46,-253 0,-108 -15,-191 -46,-252 -31,-59 -77,-89 -137,-89 -60,0 -105,30 -136,90 -31,60 -47,144 -47,251 0,107 16,191 47,252 31,61 76,91 136,91z"/>
    <path id="3" class="fil8" d="M53182 32366c99,0 174,39 225,119 51,79 77,188 77,325 0,139 -26,249 -77,328 -51,79 -126,118 -225,118 -98,0 -173,-40 -224,-120 -52,-81 -78,-189 -78,-326 0,-137 26,-246 77,-325 51,-80 126,-119 225,-119zm0 787c60,0 105,-30 136,-90 32,-61 47,-145 47,-253 0,-108 -15,-191 -47,-252 -31,-59 -76,-89 -136,-89 -60,0 -105,30 -136,90 -31,60 -47,144 -47,251 0,107 16,191 47,252 31,61 76,91 136,91z"/>
    <path class="fil8" d="M57780 33239l-630 0 0 -27 353 -362c47,-48 80,-90 99,-125 18,-36 28,-69 28,-101 0,-48 -16,-85 -47,-113 -31,-28 -70,-42 -119,-42 -40,0 -80,9 -121,27 -40,18 -81,45 -121,81l-66 -81c43,-42 92,-74 146,-96 55,-23 110,-34 165,-34 86,0 154,22 205,68 51,45 76,108 76,189 0,45 -11,90 -35,136 -24,46 -60,92 -107,138l-245 239 419 0 0 103z"/>
    <path id="1" class="fil8" d="M58179 32366c99,0 174,39 225,119 52,79 77,188 77,325 0,139 -25,249 -77,328 -51,79 -126,118 -225,118 -98,0 -173,-40 -224,-120 -52,-81 -77,-189 -77,-326 0,-137 25,-246 76,-325 51,-80 126,-119 225,-119zm0 787c60,0 106,-30 137,-90 31,-61 46,-145 46,-253 0,-108 -15,-191 -46,-252 -31,-59 -77,-89 -137,-89 -60,0 -105,30 -136,90 -31,60 -47,144 -47,251 0,107 16,191 47,252 31,61 76,91 136,91z"/>
    <path id="2" class="fil8" d="M58886 32366c99,0 174,39 225,119 51,79 77,188 77,325 0,139 -26,249 -77,328 -51,79 -126,118 -225,118 -98,0 -173,-40 -224,-120 -52,-81 -77,-189 -77,-326 0,-137 25,-246 76,-325 51,-80 126,-119 225,-119zm0 787c60,0 106,-30 137,-90 31,-61 46,-145 46,-253 0,-108 -15,-191 -46,-252 -31,-59 -77,-89 -137,-89 -60,0 -105,30 -136,90 -31,60 -47,144 -47,251 0,107 16,191 47,252 31,61 76,91 136,91z"/>
    <path id="3" class="fil8" d="M59593 32366c99,0 174,39 225,119 51,79 77,188 77,325 0,139 -26,249 -77,328 -51,79 -126,118 -225,118 -98,0 -173,-40 -224,-120 -52,-81 -77,-189 -77,-326 0,-137 25,-246 76,-325 51,-80 126,-119 225,-119zm0 787c60,0 106,-30 137,-90 31,-61 46,-145 46,-253 0,-108 -15,-191 -46,-252 -31,-59 -77,-89 -137,-89 -60,0 -105,30 -136,90 -31,60 -47,144 -47,251 0,107 16,191 47,252 31,61 76,91 136,91z"/>
    <path class="fil8" d="M36977 35922c36,-13 77,-20 122,-20 92,0 165,27 219,80 54,53 81,125 81,215 0,93 -29,167 -86,223 -57,56 -133,84 -228,84 -53,0 -103,-11 -151,-32 -49,-22 -94,-54 -138,-98l72 -78c35,35 72,61 108,78 36,18 73,27 110,27 59,0 107,-19 142,-55 35,-37 52,-85 52,-145 0,-62 -18,-111 -54,-147 -36,-35 -86,-53 -149,-53 -65,0 -126,19 -185,57l-22 0 11 -428 497 0 -81 101 -316 0 -4 191z"/>
    <path id="1" class="fil8" d="M38105 36308l-102 0 0 179 -109 0 0 -179 -415 0 0 -50 478 -645 46 0 0 598 102 0 0 97zm-211 -97l0 -348 -259 348 259 0z"/>
    <polygon id="2" class="fil8" points="38561,36487 38450,36487 38450,35801 38274,35921 38274,35816 38533,35613 38561,35613 "/>
    <path id="3" class="fil8" d="M39429 36487l-629 0 0 -27 352 -362c48,-48 81,-90 99,-126 19,-35 28,-69 28,-100 0,-48 -15,-86 -46,-114 -31,-28 -71,-42 -119,-42 -40,0 -81,9 -121,27 -41,18 -81,46 -121,82l-66 -82c43,-41 91,-73 146,-96 54,-22 109,-34 164,-34 86,0 155,23 206,69 51,45 76,108 76,188 0,45 -12,91 -36,137 -23,46 -59,92 -107,138l-245 239 419 0 0 103z"/>
    <path id="4" class="fil8" d="M39942 36032c49,11 87,37 115,75 29,39 43,82 43,131 0,81 -28,146 -82,194 -55,48 -124,72 -207,72 -55,0 -110,-11 -164,-33 -54,-23 -101,-54 -139,-95l70 -80c35,35 71,61 108,78 37,18 76,27 115,27 54,0 98,-15 131,-43 33,-29 49,-67 49,-117 0,-46 -11,-81 -34,-103 -22,-23 -50,-37 -82,-42 -33,-6 -74,-9 -124,-9l0 -99c46,0 85,-3 115,-8 30,-5 56,-19 77,-39 21,-21 31,-53 31,-97 0,-40 -14,-71 -42,-94 -28,-22 -65,-34 -111,-34 -38,0 -75,9 -109,27 -35,17 -69,44 -101,79l-71 -77c42,-44 88,-77 136,-99 48,-22 99,-33 152,-33 79,0 142,21 189,61 47,41 71,98 71,169 0,45 -12,84 -35,117 -24,33 -57,57 -101,72z"/>
    <polygon id="5" class="fil8" points="40601,36487 40489,36487 40489,35801 40313,35921 40313,35816 40572,35613 40601,35613 "/>
    <path class="fil8" d="M45559 36308l-102 0 0 179 -108 0 0 -179 -415 0 0 -50 478 -645 45 0 0 598 102 0 0 97zm-210 -97l0 -348 -259 348 259 0z"/>
    <path class="fil8" d="M50988 35922c36,-13 76,-20 122,-20 92,0 165,27 219,80 54,53 81,125 81,215 0,93 -29,167 -86,223 -58,56 -134,84 -228,84 -53,0 -103,-11 -151,-32 -49,-22 -95,-54 -139,-98l72 -78c36,35 72,61 109,78 36,18 73,27 110,27 59,0 107,-19 142,-55 35,-37 52,-85 52,-145 0,-62 -18,-111 -54,-147 -36,-35 -86,-53 -149,-53 -65,0 -126,19 -185,57l-22 0 11 -428 497 0 -81 101 -316 0 -4 191z"/>
    <path id="1" class="fil8" d="M51825 35613c99,0 174,40 225,120 51,79 77,187 77,325 0,139 -26,248 -77,327 -51,80 -126,119 -225,119 -98,0 -173,-40 -224,-120 -52,-81 -78,-189 -78,-326 0,-138 26,-246 77,-325 51,-80 126,-120 225,-120zm0 788c60,0 105,-31 137,-91 31,-60 46,-144 46,-252 0,-108 -15,-192 -46,-252 -32,-60 -77,-90 -137,-90 -60,0 -105,30 -136,90 -31,61 -47,144 -47,252 0,107 16,191 47,252 31,60 76,91 136,91z"/>
    <path class="fil8" d="M58487 36487l-630 0 0 -27 353 -362c47,-48 80,-90 99,-126 18,-35 28,-69 28,-100 0,-48 -16,-86 -47,-114 -31,-28 -70,-42 -119,-42 -40,0 -80,9 -121,27 -40,18 -81,46 -121,82l-66 -82c43,-41 92,-73 146,-96 55,-22 110,-34 165,-34 86,0 154,23 205,69 51,45 76,108 76,188 0,45 -12,91 -35,137 -24,46 -60,92 -107,138l-245 239 419 0 0 103z"/>
    <path id="1" class="fil8" d="M58886 35613c99,0 174,40 225,120 51,79 77,187 77,325 0,139 -26,248 -77,327 -51,80 -126,119 -225,119 -98,0 -173,-40 -224,-120 -52,-81 -77,-189 -77,-326 0,-138 25,-246 76,-325 51,-80 126,-120 225,-120zm0 788c60,0 106,-31 137,-91 31,-60 46,-144 46,-252 0,-108 -15,-192 -46,-252 -31,-60 -77,-90 -137,-90 -60,0 -105,30 -136,90 -31,61 -47,144 -47,252 0,107 16,191 47,252 31,60 76,91 136,91z"/>
    <path id="2" class="fil8" d="M59593 35613c99,0 174,40 225,120 51,79 77,187 77,325 0,139 -26,248 -77,327 -51,80 -126,119 -225,119 -98,0 -173,-40 -224,-120 -52,-81 -77,-189 -77,-326 0,-138 25,-246 76,-325 51,-80 126,-120 225,-120zm0 788c60,0 106,-31 137,-91 31,-60 46,-144 46,-252 0,-108 -15,-192 -46,-252 -31,-60 -77,-90 -137,-90 -60,0 -105,30 -136,90 -31,61 -47,144 -47,252 0,107 16,191 47,252 31,60 76,91 136,91z"/>
    <path class="fil8" d="M36977 39154c36,-13 77,-20 122,-20 92,0 165,27 219,80 54,53 81,125 81,215 0,93 -29,167 -86,223 -57,56 -133,84 -228,84 -53,0 -103,-11 -151,-32 -49,-22 -94,-54 -138,-97l72 -79c35,35 72,61 108,78 36,18 73,27 110,27 59,0 107,-19 142,-55 35,-36 52,-85 52,-145 0,-62 -18,-111 -54,-147 -36,-35 -86,-53 -149,-53 -65,0 -126,19 -185,57l-22 0 11 -428 497 0 -81 101 -316 0 -4 191z"/>
    <path id="1" class="fil8" d="M38105 39540l-102 0 0 179 -109 0 0 -179 -415 0 0 -50 478 -645 46 0 0 598 102 0 0 97zm-211 -97l0 -348 -259 348 259 0z"/>
    <polygon id="2" class="fil8" points="38561,39719 38450,39719 38450,39033 38274,39153 38274,39048 38533,38845 38561,38845 "/>
    <path id="3" class="fil8" d="M39429 39719l-629 0 0 -27 352 -362c48,-48 81,-90 99,-125 19,-36 28,-69 28,-101 0,-48 -15,-86 -46,-114 -31,-28 -71,-42 -119,-42 -40,0 -81,9 -121,27 -41,19 -81,46 -121,82l-66 -82c43,-41 91,-73 146,-95 54,-23 109,-35 164,-35 86,0 155,23 206,69 51,45 76,108 76,188 0,45 -12,91 -36,137 -23,46 -59,92 -107,138l-245 239 419 0 0 103z"/>
    <path id="4" class="fil8" d="M39942 39264c49,12 87,37 115,75 29,39 43,82 43,131 0,81 -28,146 -82,194 -55,48 -124,72 -207,72 -55,0 -110,-11 -164,-33 -54,-23 -101,-54 -139,-95l70 -80c35,35 71,61 108,78 37,18 76,27 115,27 54,0 98,-15 131,-43 33,-28 49,-67 49,-117 0,-46 -11,-81 -34,-103 -22,-22 -50,-36 -82,-42 -33,-6 -74,-8 -124,-8l0 -100c46,0 85,-3 115,-8 30,-5 56,-18 77,-39 21,-21 31,-53 31,-96 0,-41 -14,-72 -42,-95 -28,-22 -65,-34 -111,-34 -38,0 -75,9 -109,27 -35,18 -69,44 -101,79l-71 -77c42,-44 88,-77 136,-99 48,-22 99,-33 152,-33 79,0 142,21 189,62 47,40 71,97 71,168 0,45 -12,84 -35,117 -24,33 -57,57 -101,72z"/>
    <polygon id="5" class="fil8" points="40601,39719 40489,39719 40489,39033 40313,39153 40313,39048 40572,38845 40601,38845 "/>
    <path class="fil8" d="M45576 39719l-629 0 0 -27 352 -362c48,-48 81,-90 99,-125 19,-36 28,-69 28,-101 0,-48 -15,-86 -46,-114 -31,-28 -71,-42 -119,-42 -40,0 -81,9 -121,27 -41,19 -81,46 -121,82l-66 -82c43,-41 92,-73 146,-95 55,-23 109,-35 164,-35 86,0 155,23 206,69 51,45 76,108 76,188 0,45 -12,91 -36,137 -23,46 -59,92 -107,138l-245 239 419 0 0 103z"/>
    <polygon class="fil8" points="51215,39719 51104,39719 51104,39033 50928,39153 50928,39048 51186,38845 51215,38845 "/>
    <path id="1" class="fil8" d="M51768 38845c99,0 174,40 225,120 51,79 77,188 77,325 0,139 -26,248 -77,327 -51,80 -126,119 -225,119 -98,0 -173,-40 -224,-120 -52,-81 -77,-189 -77,-326 0,-137 25,-246 76,-325 51,-80 126,-120 225,-120zm0 788c60,0 106,-31 137,-91 31,-60 46,-144 46,-252 0,-108 -15,-192 -46,-252 -31,-60 -77,-90 -137,-90 -60,0 -105,31 -136,91 -31,60 -47,144 -47,251 0,107 16,191 47,252 31,60 76,91 136,91z"/>
    <path id="2" class="fil8" d="M52475 38845c99,0 174,40 225,120 51,79 77,188 77,325 0,139 -26,248 -77,327 -51,80 -126,119 -225,119 -98,0 -173,-40 -224,-120 -52,-81 -77,-189 -77,-326 0,-137 25,-246 76,-325 51,-80 126,-120 225,-120zm0 788c60,0 106,-31 137,-91 31,-60 46,-144 46,-252 0,-108 -15,-192 -46,-252 -31,-60 -77,-90 -137,-90 -60,0 -105,31 -136,91 -31,60 -47,144 -47,251 0,107 16,191 47,252 31,60 76,91 136,91z"/>
    <path class="fil8" d="M58487 39719l-630 0 0 -27 353 -362c47,-48 80,-90 99,-125 18,-36 28,-69 28,-101 0,-48 -16,-86 -47,-114 -31,-28 -70,-42 -119,-42 -40,0 -80,9 -121,27 -40,19 -81,46 -121,82l-66 -82c43,-41 92,-73 146,-95 55,-23 110,-35 165,-35 86,0 154,23 205,69 51,45 76,108 76,188 0,45 -12,91 -35,137 -24,46 -60,92 -107,138l-245 239 419 0 0 103z"/>
    <path id="1" class="fil8" d="M58886 38845c99,0 174,40 225,120 51,79 77,188 77,325 0,139 -26,248 -77,327 -51,80 -126,119 -225,119 -98,0 -173,-40 -224,-120 -52,-81 -77,-189 -77,-326 0,-137 25,-246 76,-325 51,-80 126,-120 225,-120zm0 788c60,0 106,-31 137,-91 31,-60 46,-144 46,-252 0,-108 -15,-192 -46,-252 -31,-60 -77,-90 -137,-90 -60,0 -105,31 -136,91 -31,60 -47,144 -47,251 0,107 16,191 47,252 31,60 76,91 136,91z"/>
    <path id="2" class="fil8" d="M59593 38845c99,0 174,40 225,120 51,79 77,188 77,325 0,139 -26,248 -77,327 -51,80 -126,119 -225,119 -98,0 -173,-40 -224,-120 -52,-81 -77,-189 -77,-326 0,-137 25,-246 76,-325 51,-80 126,-120 225,-120zm0 788c60,0 106,-31 137,-91 31,-60 46,-144 46,-252 0,-108 -15,-192 -46,-252 -31,-60 -77,-90 -137,-90 -60,0 -105,31 -136,91 -31,60 -47,144 -47,251 0,107 16,191 47,252 31,60 76,91 136,91z"/>
    <rect class="fil10" x="20758" y="16116" width="41263" height="3986"/>
    <polygon class="fil11" points="22787,18772 22528,18772 22528,17482 22787,17482 "/>
    <polygon id="1" class="fil11" points="24220,18798 24104,18798 23305,17939 23305,18772 23058,18772 23058,17471 23173,17471 23973,18305 23973,17482 24220,17482 "/>
    <polygon id="2" class="fil11" points="25646,17482 25067,18798 24953,18798 24372,17482 24652,17482 25016,18338 25382,17482 "/>
    <path id="3" class="fil11" d="M26352 17458c190,0 352,64 483,193 132,129 198,287 198,475 0,190 -66,349 -197,478 -131,129 -292,194 -484,194 -191,0 -351,-65 -483,-195 -131,-129 -197,-288 -197,-477 0,-188 66,-346 197,-475 132,-129 292,-193 483,-193zm0 1106c122,0 222,-42 299,-125 77,-83 116,-188 116,-313 0,-124 -39,-228 -116,-311 -77,-83 -177,-124 -299,-124 -122,0 -221,41 -298,124 -77,83 -116,187 -116,311 0,125 38,229 114,313 77,83 176,125 300,125z"/>
    <polygon id="4" class="fil11" points="27490,18772 27231,18772 27231,17482 27490,17482 "/>
    <path id="5" class="fil11" d="M28810 17566l-122 219c-93,-63 -194,-94 -305,-94 -132,0 -236,39 -313,119 -77,80 -115,185 -115,316 0,131 39,237 117,317 78,81 182,121 311,121 101,0 200,-30 299,-89l124 213c-121,73 -263,110 -425,110 -201,0 -366,-64 -497,-191 -130,-127 -195,-287 -195,-481 0,-195 66,-355 196,-481 131,-125 297,-187 496,-187 161,0 304,36 429,108z"/>
    <polygon id="6" class="fil11" points="29866,18772 28992,18772 28992,17482 29851,17482 29718,17709 29252,17709 29252,18002 29675,18002 29675,18228 29252,18228 29252,18546 29736,18546 "/>
    <g>
     <path class="fil11" d="M55476 17079l-67 119c-50,-34 -106,-51 -166,-51 -72,0 -130,22 -172,65 -42,44 -63,102 -63,173 0,72 22,130 65,174 42,44 99,66 170,66 55,0 109,-17 163,-49l68 117c-66,40 -144,59 -233,59 -109,0 -200,-34 -271,-104 -71,-69 -107,-157 -107,-263 0,-107 36,-194 107,-263 72,-68 162,-102 271,-102 88,0 167,20 235,59z"/>
     <path id="1" class="fil11" d="M55884 17020c105,0 193,35 265,105 72,71 108,158 108,260 0,104 -36,191 -108,261 -71,71 -160,106 -265,106 -104,0 -192,-35 -264,-106 -72,-70 -108,-158 -108,-261 0,-102 36,-189 108,-260 72,-70 160,-105 264,-105zm0 605c67,0 122,-23 164,-69 42,-45 63,-102 63,-171 0,-68 -21,-125 -63,-170 -42,-45 -97,-68 -164,-68 -66,0 -121,23 -163,68 -42,45 -63,102 -63,170 0,69 21,125 63,171 41,46 96,69 163,69z"/>
     <polygon id="2" class="fil11" points="57167,17738 57018,17738 56946,17344 56760,17752 56717,17752 56528,17344 56447,17738 56310,17738 56462,17027 56522,17027 56742,17489 56958,17027 57018,17027 "/>
     <path id="3" class="fil11" d="M57261 17033l217 0c91,0 161,19 209,58 49,38 73,94 73,168 0,74 -27,130 -79,169 -52,38 -127,57 -223,57l-56 0 0 253 -141 0 0 -705zm141 331l44 0c62,0 106,-8 131,-25 24,-17 37,-44 37,-79 0,-37 -12,-63 -35,-79 -23,-16 -64,-24 -125,-24l-52 0 0 207z"/>
     <path id="4" class="fil11" d="M58444 17738l-154 0 -52 -112 -339 0 -52 112 -145 0 335 -711 72 0 335 711zm-260 -233l-115 -247 -116 247 231 0z"/>
     <polygon id="5" class="fil11" points="59162,17752 59099,17752 58662,17283 58662,17738 58527,17738 58527,17027 58590,17027 59027,17483 59027,17033 59162,17033 "/>
     <polygon id="6" class="fil11" points="59927,17033 59654,17441 59654,17738 59512,17738 59512,17441 59251,17033 59405,17033 59589,17334 59782,17033 "/>
     <polygon class="fil11" points="55764,19210 54863,19210 54863,17934 55119,17934 55119,18987 55635,18987 "/>
     <path id="1" class="fil11" d="M56423 17910c189,0 348,64 478,191 131,128 196,285 196,471 0,187 -65,344 -195,472 -129,128 -289,192 -479,192 -188,0 -347,-64 -478,-192 -129,-128 -195,-286 -195,-472 0,-186 66,-343 195,-471 131,-127 290,-191 478,-191zm0 1095c121,0 220,-42 296,-124 77,-82 115,-186 115,-309 0,-124 -38,-227 -115,-309 -76,-82 -175,-123 -296,-123 -120,0 -218,41 -295,123 -76,82 -114,185 -114,309 0,123 37,226 113,309 75,82 174,124 296,124z"/>
     <path id="2" class="fil11" d="M58400 19104c-160,88 -331,132 -512,132 -191,0 -350,-63 -477,-189 -127,-126 -190,-285 -190,-477 0,-189 66,-346 197,-471 131,-126 297,-189 497,-189 160,0 304,39 434,117l-120 214c-101,-67 -207,-101 -317,-101 -128,0 -231,41 -310,123 -79,82 -118,184 -118,309 0,129 38,234 114,313 76,80 176,120 300,120 88,0 170,-17 247,-50l0 -214 -358 0 130 -225 483 0 0 588z"/>
     <path id="3" class="fil11" d="M59254 17910c189,0 348,64 478,191 131,128 196,285 196,471 0,187 -65,344 -195,472 -129,128 -289,192 -479,192 -188,0 -347,-64 -478,-192 -130,-128 -195,-286 -195,-472 0,-186 65,-343 195,-471 131,-127 290,-191 478,-191zm0 1095c121,0 220,-42 296,-124 77,-82 115,-186 115,-309 0,-124 -38,-227 -115,-309 -76,-82 -175,-123 -296,-123 -120,0 -218,41 -295,123 -76,82 -114,185 -114,309 0,123 37,226 113,309 75,82 174,124 296,124z"/>
    </g>
   </g>
  </g>
 </g>
</svg>
