<?xml version="1.0" encoding="UTF-8"?>
<!DOCTYPE svg PUBLIC "-//W3C//DTD SVG 1.1//EN" "http://www.w3.org/Graphics/SVG/1.1/DTD/svg11.dtd">
<!-- Creator: CorelDRAW X8 -->
<svg xmlns="http://www.w3.org/2000/svg" xml:space="preserve" width="1.59828in" height="2in" version="1.1" style="shape-rendering:geometricPrecision; text-rendering:geometricPrecision; image-rendering:optimizeQuality; fill-rule:evenodd; clip-rule:evenodd"
viewBox="0 0 526 658"
 xmlns:xlink="http://www.w3.org/1999/xlink">
 <defs>
  <style type="text/css">
   <![CDATA[
    .str0 {stroke:#1A237E;stroke-width:2.62338}
    .str1 {stroke:#1A237E;stroke-width:2.62486}
    .fil0 {fill:#1A237E}
    .fil1 {fill:#868EE0}
   ]]>
  </style>
 </defs>
 <g id="Layer_x0020_1">
  <metadata id="CorelCorpID_0Corel-Layer"/>
  <g id="_2490510944288">
   <g>
    <g>
     <path id="Path_10550" class="fil0" d="M400 138c-7,0 -13,-3 -16,-9 -3,-6 -2,-13 2,-17 2,-2 4,-4 6,-5 14,-10 28,-21 42,-31 7,-6 17,-5 23,1 0,1 0,1 1,2 5,6 4,16 -3,21 -1,1 -1,1 -2,2 -14,10 -29,21 -44,32 -3,1 -7,3 -9,4z"/>
     <path id="Path_10551" class="fil0" d="M269 89c0,7 -4,13 -10,16 -6,3 -13,2 -17,-3 -13,-17 -25,-33 -37,-50 -4,-7 -2,-17 5,-21 0,0 0,0 0,0 7,-5 16,-4 21,3 12,16 24,32 35,48 2,2 2,6 3,7z"/>
     <path id="Path_10552" class="fil0" d="M358 101c-9,0 -16,-6 -16,-15 0,-3 1,-5 2,-7 2,-7 5,-13 8,-20 5,-11 10,-22 15,-33 3,-7 11,-12 19,-9 8,2 13,11 10,19 0,0 0,1 0,1 -8,19 -16,38 -24,56 -3,5 -8,8 -14,8z"/>
     <path id="Path_10553" class="fil0" d="M320 71c0,11 -5,18 -14,19 -9,1 -17,-6 -17,-15 0,0 0,0 0,0 -3,-19 -4,-37 -6,-56 0,-4 0,-8 2,-11 3,-6 9,-9 16,-8 6,1 12,7 12,13 2,14 4,27 5,40 1,7 2,13 2,18z"/>
    </g>
    <path id="Path_10537" class="fil0 str0" d="M455 538c-10,21 -27,38 -48,48 -11,5 -22,10 -33,15 -2,4 0,7 4,6l32 -15c22,-11 40,-29 51,-51 1,-2 -1,-4 -3,-4 -1,0 -2,0 -3,1z"/>
    <path id="Path_10538" class="fil0 str1" d="M506 183c-11,-9 -25,-13 -40,-11 -13,3 -26,11 -33,23 -6,9 -12,18 -17,28 -5,8 -10,17 -16,25 -4,7 -10,14 -16,20 -11,11 -28,14 -41,7 -12,-5 -22,-12 -31,-21 -22,-21 -45,-42 -67,-63l-36 -34 -20 -19c-17,-16 -33,-32 -51,-47 -16,-16 -43,-15 -58,1 0,0 0,0 0,0 -16,17 -16,43 1,59 4,5 9,9 13,13 2,2 4,4 6,6l44 41c35,34 70,67 106,101 5,5 10,10 15,15 13,12 27,25 40,38 20,20 21,52 1,72 -6,6 -13,11 -21,13 -6,2 -12,3 -19,3 -3,1 -6,1 -9,1l-4 1 1 3c4,17 -1,35 -13,48 -13,12 -31,18 -48,15l-5 0 1 4c4,32 -5,48 -37,65l-3 1 1 3c1,1 1,2 2,3 1,2 2,4 3,7 29,48 90,66 141,43 13,-6 72,-35 85,-41 5,-4 1,-8 -4,-6 -13,6 -71,35 -84,41 -48,23 -105,5 -132,-40 -1,-2 -2,-4 -3,-6 31,-16 42,-34 39,-66 18,2 36,-4 49,-18 13,-13 19,-31 16,-50 2,0 3,0 5,0 7,-1 14,-2 20,-3 31,-10 47,-42 38,-73 -3,-9 -8,-17 -15,-23 -13,-14 -27,-27 -40,-39 -6,-5 -11,-10 -16,-15 -35,-34 -71,-68 -106,-101l-43 -42c-2,-2 -5,-4 -7,-6 -4,-4 -9,-8 -13,-12 -14,-14 -14,-37 0,-50 13,-14 35,-14 49,-2 17,16 34,32 51,48l19 19 36 34c22,21 45,42 67,63 9,9 20,17 33,22 16,7 35,4 48,-8 6,-6 12,-14 17,-21 6,-9 11,-17 16,-26 5,-9 11,-19 17,-28 7,-10 17,-17 29,-19 24,-4 47,12 50,36 2,11 0,22 -6,31 -13,21 -26,43 -39,64l-21 35c-7,11 -14,23 -21,34 -3,4 -3,10 0,14l14 31c3,7 7,14 10,20 22,41 6,72 1,96 0,3 5,4 6,1 6,-25 22,-54 -1,-99 -3,-7 -6,-14 -10,-21l-14 -30c-2,-3 -2,-6 0,-8 7,-12 14,-23 21,-34l21 -35c13,-21 26,-43 39,-65 14,-21 9,-50 -11,-66z"/>
    <path id="Path_10539" class="fil0 str0" d="M204 512c-11,0 -21,-4 -29,-11 -23,-22 -47,-44 -69,-66 -10,-10 -20,-19 -30,-28 -2,-2 -4,-3 -5,-5 -3,-3 -6,-6 -9,-8 -13,-12 -17,-31 -10,-47 8,-17 25,-27 43,-26l0 0c9,1 18,5 24,11l19 18c31,29 64,60 96,90 16,16 17,42 1,59 -8,8 -19,13 -31,13zm-110 -185c-15,-1 -30,8 -36,22 -6,14 -3,30 8,40 3,3 6,5 8,8 2,2 4,3 6,5 10,9 20,18 29,28 23,22 47,44 70,66 15,13 37,13 51,-1 13,-15 13,-37 -2,-51l0 0c-31,-30 -64,-61 -95,-90l-19 -17c-5,-6 -12,-9 -20,-10z"/>
    <path id="Path_10540" class="fil0 str0" d="M268 444c-10,0 -19,-4 -26,-10 -13,-12 -25,-24 -37,-35 -5,-5 -10,-9 -15,-14l-11 -10 -51 -49c-11,-10 -16,-25 -13,-40 3,-15 14,-27 29,-31 14,-5 31,-1 42,10 10,9 19,18 29,27 4,4 9,8 13,13l19 17c15,15 30,29 46,44 12,10 19,25 18,40l0 0c-1,15 -11,28 -24,33 -6,3 -13,5 -19,5zm-112 -185c-4,0 -7,1 -11,2 -12,3 -21,13 -24,26 -3,12 1,26 11,34 17,16 34,32 51,48l11 11c5,4 10,9 15,14 12,11 24,23 37,35 10,9 25,11 37,4 12,-4 20,-14 21,-27 1,-13 -5,-27 -16,-35 -16,-15 -31,-30 -46,-44l-19 -17c-4,-5 -9,-9 -13,-13 -10,-9 -19,-18 -29,-27 -7,-7 -16,-11 -25,-11z"/>
    <path id="Path_10541" class="fil0 str0" d="M140 581c-12,0 -23,-5 -31,-13 -12,-11 -23,-22 -34,-33 -19,-17 -38,-35 -56,-53 -13,-10 -20,-26 -17,-43 4,-20 22,-35 42,-34l1 0c11,1 22,6 29,14 24,23 48,45 72,68l5 5c2,2 4,4 7,6 3,3 6,6 9,9 18,16 19,43 3,60 0,0 0,1 -1,1 -7,8 -18,13 -29,13zm-96 -169c-17,-1 -33,11 -36,29 -3,13 2,24 15,37 19,17 38,35 56,53 11,11 23,21 34,32 14,15 37,15 51,1 14,-14 14,-36 0,-51 0,0 -1,-1 -2,-1 -3,-3 -6,-6 -9,-9 -2,-2 -5,-4 -6,-6l-6 -6c-24,-22 -48,-45 -72,-68 -6,-7 -15,-11 -25,-11 0,0 0,0 0,0l0 0z"/>
   </g>
   <path class="fil1" d="M455 539c6,-24 21,-55 -1,-95 -3,-6 -7,-13 -10,-20l-14 -31c-3,-4 -3,-10 0,-14 7,-11 14,-23 21,-34l21 -35c13,-21 26,-43 39,-64 6,-9 8,-20 6,-31 -3,-24 -26,-40 -50,-36 -12,2 -22,9 -29,19 -6,9 -12,19 -17,28 -11,17 -18,33 -33,47 -13,12 -32,15 -48,8 -13,-5 -24,-13 -33,-22 -22,-21 -45,-42 -67,-63l-36 -34 -70 -67c-14,-12 -36,-12 -49,2 -14,13 -14,36 0,50 4,4 9,8 13,12l50 48c35,33 71,67 106,101 5,5 10,10 16,15 13,12 27,25 40,39 7,6 12,14 15,23 9,31 -7,63 -38,73 -11,3 -17,2 -25,3 6,39 -27,73 -65,68 3,32 -8,50 -39,66 1,2 2,4 3,6 27,45 84,63 132,40 12,-5 64,-31 81,-40 1,0 3,-1 4,-1 9,-5 19,-10 29,-14 21,-10 37,-27 48,-47z"/>
   <path class="fil1" d="M283 433c12,-4 20,-14 21,-27 1,-13 -5,-27 -16,-35 -16,-15 -31,-30 -46,-44l-19 -17c-4,-5 -9,-9 -13,-13 -10,-9 -19,-18 -29,-27 -7,-7 -16,-11 -25,-11 -4,0 -7,1 -11,2 -12,3 -21,13 -24,26 -3,12 1,26 11,34 17,16 34,32 51,48l11 11c5,4 10,9 15,14 12,11 24,23 37,35 10,9 25,11 37,4z"/>
   <path class="fil1" d="M228 444c-31,-30 -64,-61 -95,-90l-19 -17c-5,-6 -12,-9 -20,-10 -15,-1 -30,8 -36,22 -6,14 -3,30 8,40 3,3 6,5 8,8 2,2 4,3 6,5 10,9 20,18 29,28 23,22 47,44 70,66 15,13 37,13 51,-1 13,-15 13,-37 -2,-51z"/>
   <path class="fil1" d="M44 412l0 0zm97 79c-24,-22 -48,-45 -72,-68 -6,-7 -15,-11 -25,-11 0,0 0,0 0,0 -17,-1 -33,11 -36,29 -3,13 2,24 15,37 19,17 38,35 56,53 11,11 23,21 34,32 14,15 37,15 51,1 14,-14 14,-36 0,-51l-2 -1c-3,-3 -6,-6 -9,-9 -2,-2 -5,-4 -6,-6l-6 -6z"/>
  </g>
 </g>
</svg>
