<?xml version="1.0" encoding="UTF-8"?>
<!DOCTYPE svg PUBLIC "-//W3C//DTD SVG 1.1//EN" "http://www.w3.org/Graphics/SVG/1.1/DTD/svg11.dtd">
<!-- Creator: CorelDRAW X8 -->
<svg xmlns="http://www.w3.org/2000/svg" xml:space="preserve" width="7.45445in" height="2in" version="1.1" style="shape-rendering:geometricPrecision; text-rendering:geometricPrecision; image-rendering:optimizeQuality; fill-rule:evenodd; clip-rule:evenodd"
viewBox="0 0 23637 6342"
 xmlns:xlink="http://www.w3.org/1999/xlink">
 <defs>
  <style type="text/css">
   <![CDATA[
    .str0 {stroke:#1A237E;stroke-width:112.351}
    .fil0 {fill:none}
    .fil2 {fill:#FEFEFE}
    .fil1 {fill:#1A237E}
    .fil3 {fill:black;fill-rule:nonzero}
    .fil4 {fill:#1A237E;fill-rule:nonzero}
   ]]>
  </style>
 </defs>
 <g id="Layer_x0020_1">
  <metadata id="CorelCorpID_0Corel-Layer"/>
  <line class="fil0 str0" x1="6342" y1="3171" x2="17295" y2= "3171" />
  <g id="_2490715291248">
   <rect class="fil1" width="6342" height="6342"/>
   <rect class="fil2" x="190" y="190" width="5963" height="5963"/>
   <rect class="fil1" x="8648" width="6342" height="6342"/>
   <rect class="fil2" x="8837" y="190" width="5963" height="5963"/>
   <rect class="fil1" x="17295" width="6342" height="6342"/>
   <rect class="fil2" x="17485" y="190" width="5963" height="5963"/>
   <path class="fil3" d="M2475 4614l50 -4c2,20 8,36 17,49 8,13 22,24 40,32 18,8 39,12 62,12 20,0 38,-3 53,-9 16,-6 27,-15 35,-25 8,-11 11,-22 11,-35 0,-12 -3,-23 -10,-33 -8,-9 -20,-17 -37,-23 -10,-4 -34,-11 -71,-20 -37,-9 -63,-17 -78,-25 -19,-10 -33,-23 -43,-37 -9,-15 -14,-32 -14,-51 0,-20 6,-39 17,-57 12,-17 29,-31 51,-40 22,-9 47,-14 74,-14 29,0 56,5 79,15 22,9 40,24 52,42 12,19 19,40 20,64l-51 4c-3,-26 -12,-45 -28,-58 -16,-13 -39,-19 -70,-19 -32,0 -56,5 -71,17 -14,12 -22,26 -22,43 0,14 6,26 16,36 10,9 37,19 80,28 43,10 73,19 89,26 23,11 41,24 52,41 11,16 17,35 17,57 0,21 -6,41 -19,60 -12,19 -30,34 -52,44 -23,11 -49,16 -78,16 -36,0 -67,-5 -91,-16 -25,-10 -44,-26 -58,-48 -14,-21 -21,-45 -22,-72z"/>
   <path id="1" class="fil3" d="M3051 4707c-18,15 -36,26 -53,33 -17,6 -35,10 -54,10 -32,0 -57,-8 -74,-24 -17,-15 -26,-35 -26,-60 0,-14 3,-27 10,-39 6,-11 15,-21 25,-28 11,-7 23,-12 36,-16 10,-3 24,-5 44,-8 40,-4 69,-10 88,-16 0,-7 0,-11 0,-13 0,-20 -4,-34 -14,-43 -12,-11 -31,-16 -56,-16 -23,0 -41,4 -52,12 -11,8 -19,22 -24,43l-49 -6c5,-21 12,-38 22,-51 10,-12 25,-22 44,-29 19,-7 41,-10 66,-10 25,0 45,3 61,8 16,6 27,14 34,23 8,8 13,20 16,33 2,9 2,24 2,46l0 65c0,46 1,75 3,87 2,12 7,24 13,35l-52 0c-5,-10 -8,-22 -10,-36zm-4 -110c-18,8 -45,14 -81,19 -20,3 -34,6 -43,10 -8,3 -15,9 -19,16 -5,7 -7,14 -7,23 0,13 5,24 15,33 10,8 24,13 44,13 19,0 36,-4 50,-13 15,-8 26,-19 33,-34 5,-11 8,-27 8,-49l0 -18z"/>
   <polygon id="2" class="fil3" points="3172,4743 3172,4341 3222,4341 3222,4743 "/>
   <path id="3" class="fil3" d="M3497 4649l51 7c-8,29 -23,53 -45,69 -21,16 -49,25 -83,25 -42,0 -76,-14 -101,-40 -25,-26 -37,-63 -37,-110 0,-49 12,-87 38,-114 25,-27 57,-40 98,-40 38,0 70,13 95,39 24,27 37,64 37,112 0,3 0,7 -1,13l-217 0c2,32 11,57 27,74 17,17 37,25 61,25 18,0 34,-5 47,-14 12,-10 22,-25 30,-46zm-162 -79l162 0c-2,-25 -8,-43 -18,-55 -16,-19 -36,-29 -61,-29 -23,0 -42,8 -57,23 -16,15 -24,35 -26,61z"/>
   <path id="4" class="fil3" d="M3591 4656l49 -8c2,20 10,35 23,45 12,11 30,16 52,16 23,0 40,-5 51,-14 11,-9 16,-20 16,-32 0,-11 -5,-20 -14,-27 -7,-4 -24,-9 -51,-16 -36,-9 -61,-17 -75,-24 -14,-7 -25,-16 -32,-28 -7,-11 -11,-24 -11,-39 0,-13 3,-25 9,-36 6,-11 14,-20 24,-27 8,-6 19,-11 32,-14 13,-4 27,-6 42,-6 23,0 43,3 60,10 18,6 31,15 39,26 8,12 14,27 17,46l-49 6c-2,-15 -8,-27 -19,-35 -10,-9 -25,-13 -44,-13 -23,0 -39,4 -48,11 -10,8 -15,17 -15,27 0,6 2,12 6,17 4,5 10,10 19,13 5,2 19,6 43,13 35,9 60,17 73,23 14,5 25,14 33,25 8,12 12,26 12,43 0,16 -5,31 -14,46 -10,14 -24,26 -42,34 -18,8 -39,12 -62,12 -37,0 -66,-8 -86,-24 -20,-16 -33,-39 -38,-70z"/>
   <path id="5" class="fil3" d="M1728 5371l0 -402 138 0c31,0 55,2 72,5 23,6 42,15 59,29 21,18 37,41 47,69 11,28 16,60 16,96 0,30 -3,57 -11,81 -7,23 -16,43 -27,58 -11,16 -23,28 -37,37 -13,9 -29,15 -48,20 -18,5 -40,7 -64,7l-145 0zm53 -47l86 0c26,0 47,-3 62,-8 15,-5 27,-12 36,-21 13,-12 22,-29 29,-51 8,-21 11,-47 11,-77 0,-42 -7,-75 -21,-97 -13,-23 -30,-38 -50,-46 -14,-5 -37,-8 -69,-8l-84 0 0 308z"/>
   <path id="6" class="fil3" d="M2326 5277l51 6c-8,30 -23,53 -45,69 -21,17 -49,25 -83,25 -42,0 -76,-13 -101,-39 -25,-26 -37,-63 -37,-110 0,-49 12,-87 38,-114 25,-27 57,-41 98,-41 38,0 70,13 95,40 24,26 37,64 37,112 0,3 0,7 -1,13l-217 0c2,32 11,56 27,73 17,17 37,26 61,26 18,0 34,-5 46,-15 13,-9 23,-25 31,-45zm-162 -80l162 0c-2,-24 -8,-43 -18,-55 -16,-19 -36,-28 -61,-28 -23,0 -42,7 -57,22 -16,16 -24,36 -26,61z"/>
   <path id="7" class="fil3" d="M2439 5483l0 -404 45 0 0 39c11,-15 23,-26 36,-34 14,-7 30,-11 49,-11 25,0 47,7 66,19 19,13 33,31 43,54 9,24 14,49 14,77 0,30 -5,56 -16,80 -10,24 -26,42 -46,55 -21,13 -42,19 -65,19 -16,0 -31,-3 -44,-10 -13,-7 -24,-16 -32,-27l0 143 -50 0zm45 -256c0,37 8,65 23,83 15,18 34,27 55,27 22,0 41,-10 56,-28 16,-19 24,-47 24,-86 0,-37 -8,-65 -23,-83 -15,-19 -34,-28 -55,-28 -21,0 -39,10 -55,29 -17,20 -25,48 -25,86z"/>
   <path id="8" class="fil3" d="M2942 5334c-18,16 -36,27 -53,33 -17,7 -35,10 -54,10 -32,0 -57,-8 -74,-23 -17,-16 -26,-36 -26,-60 0,-14 3,-27 10,-39 6,-12 15,-21 25,-28 11,-7 23,-13 36,-17 10,-2 24,-5 44,-7 40,-5 69,-10 88,-17 0,-7 0,-11 0,-13 0,-20 -4,-34 -14,-42 -12,-11 -31,-17 -56,-17 -23,0 -41,4 -52,12 -11,9 -19,23 -24,44l-49 -7c5,-21 12,-37 22,-50 10,-13 25,-23 44,-30 19,-6 41,-10 66,-10 25,0 45,3 61,9 16,6 27,13 34,22 8,9 13,20 16,34 2,8 2,23 2,45l0 66c0,45 1,74 3,87 2,12 7,24 13,35l-52 0c-5,-11 -8,-23 -10,-37zm-4 -109c-18,7 -45,13 -81,18 -20,3 -34,7 -43,10 -8,4 -15,9 -19,16 -5,7 -7,15 -7,24 0,13 5,23 15,32 10,9 24,13 44,13 19,0 36,-4 50,-12 15,-8 26,-20 33,-34 5,-11 8,-28 8,-49l0 -18z"/>
   <path id="9" class="fil3" d="M3064 5371l0 -292 44 0 0 45c11,-21 22,-34 32,-41 9,-7 20,-10 31,-10 17,0 34,5 51,16l-17 45c-12,-6 -24,-10 -36,-10 -11,0 -21,4 -29,10 -9,6 -15,15 -19,27 -5,17 -8,37 -8,58l0 152 -49 0z"/>
   <path id="10" class="fil3" d="M3359 5327l6 43c-13,3 -26,5 -37,5 -18,0 -32,-3 -41,-9 -10,-5 -17,-13 -21,-22 -4,-9 -6,-29 -6,-58l0 -168 -37 0 0 -39 37 0 0 -72 49 -29 0 101 50 0 0 39 -50 0 0 170c0,14 1,24 3,28 1,4 4,7 8,9 4,3 10,4 17,4 6,0 13,-1 22,-2z"/>
   <path id="11" class="fil3" d="M3407 5371l0 -292 45 0 0 42c9,-15 21,-26 36,-35 15,-9 33,-13 52,-13 21,0 39,5 53,14 14,9 23,21 29,37 23,-34 53,-51 90,-51 29,0 52,8 67,24 16,16 24,41 24,74l0 200 -50 0 0 -184c0,-19 -1,-34 -4,-42 -4,-9 -9,-16 -18,-21 -8,-6 -18,-8 -30,-8 -20,0 -37,7 -51,20 -13,14 -20,36 -20,66l0 169 -50 0 0 -189c0,-22 -4,-39 -12,-50 -8,-11 -21,-16 -39,-16 -14,0 -27,4 -39,11 -11,7 -20,18 -25,32 -6,14 -8,34 -8,61l0 151 -50 0z"/>
   <path id="12" class="fil3" d="M4074 5277l51 6c-8,30 -23,53 -44,69 -22,17 -50,25 -84,25 -42,0 -76,-13 -101,-39 -25,-26 -37,-63 -37,-110 0,-49 13,-87 38,-114 25,-27 58,-41 98,-41 39,0 70,13 95,40 25,26 37,64 37,112 0,3 0,7 0,13l-217 0c1,32 10,56 27,73 16,17 36,26 60,26 19,0 34,-5 47,-15 13,-9 23,-25 30,-45zm-162 -80l163 0c-2,-24 -9,-43 -19,-55 -16,-19 -36,-28 -61,-28 -23,0 -42,7 -57,22 -15,16 -24,36 -26,61z"/>
   <path id="13" class="fil3" d="M4188 5371l0 -292 44 0 0 42c21,-32 52,-48 93,-48 17,0 33,3 48,10 15,6 26,14 33,24 7,11 13,23 15,37 2,9 3,25 3,48l0 179 -49 0 0 -177c0,-20 -2,-35 -6,-45 -4,-10 -11,-18 -20,-24 -10,-6 -22,-9 -35,-9 -21,0 -39,7 -54,20 -15,13 -23,39 -23,76l0 159 -49 0z"/>
   <path id="14" class="fil3" d="M4607 5327l7 43c-14,3 -26,5 -37,5 -18,0 -32,-3 -42,-9 -10,-5 -16,-13 -20,-22 -4,-9 -6,-29 -6,-58l0 -168 -37 0 0 -39 37 0 0 -72 49 -29 0 101 49 0 0 39 -49 0 0 170c0,14 1,24 3,28 1,4 4,7 8,9 4,3 10,4 17,4 5,0 13,-1 21,-2z"/>
   <polygon class="fil3" points="10846,4743 10846,4341 11118,4341 11118,4388 10900,4388 10900,4514 11088,4514 11088,4561 10900,4561 10900,4743 "/>
   <path id="1" class="fil3" d="M11180 4397l0 -56 50 0 0 56 -50 0zm0 346l0 -291 50 0 0 291 -50 0z"/>
   <path id="2" class="fil3" d="M11305 4743l0 -291 45 0 0 41c21,-32 52,-47 92,-47 18,0 34,3 49,9 14,6 25,15 33,25 7,10 12,22 15,36 2,9 3,25 3,48l0 179 -50 0 0 -177c0,-20 -2,-35 -5,-45 -4,-10 -11,-18 -21,-24 -10,-6 -21,-9 -34,-9 -21,0 -39,7 -55,20 -15,14 -22,39 -22,76l0 159 -50 0z"/>
   <path id="3" class="fil3" d="M11808 4707c-18,15 -36,26 -53,33 -17,6 -35,10 -55,10 -32,0 -56,-8 -73,-24 -18,-15 -26,-35 -26,-60 0,-14 3,-27 9,-39 7,-11 16,-21 26,-28 11,-7 22,-12 36,-16 9,-3 24,-5 44,-8 39,-4 69,-10 88,-16 0,-7 0,-11 0,-13 0,-20 -5,-34 -14,-43 -13,-11 -31,-16 -56,-16 -24,0 -41,4 -52,12 -11,8 -19,22 -25,43l-48 -6c5,-21 12,-38 22,-51 10,-12 25,-22 44,-29 19,-7 41,-10 66,-10 25,0 45,3 61,8 15,6 27,14 34,23 7,8 13,20 16,33 1,9 2,24 2,46l0 65c0,46 1,75 3,87 2,12 6,24 12,35l-51 0c-5,-10 -9,-22 -10,-36zm-4 -110c-18,8 -45,14 -81,19 -20,3 -35,6 -43,10 -9,3 -15,9 -20,16 -4,7 -6,14 -6,23 0,13 4,24 14,33 11,8 25,13 44,13 19,0 36,-4 51,-13 15,-8 26,-19 33,-34 5,-11 8,-27 8,-49l0 -18z"/>
   <path id="4" class="fil3" d="M11930 4743l0 -291 44 0 0 41c22,-32 53,-47 93,-47 18,0 34,3 48,9 15,6 26,15 33,25 8,10 13,22 16,36 2,9 2,25 2,48l0 179 -49 0 0 -177c0,-20 -2,-35 -6,-45 -4,-10 -10,-18 -20,-24 -10,-6 -21,-9 -34,-9 -21,0 -39,7 -55,20 -15,14 -23,39 -23,76l0 159 -49 0z"/>
   <path id="5" class="fil3" d="M12433 4637l48 6c-5,34 -19,60 -41,78 -21,19 -48,29 -80,29 -40,0 -72,-13 -96,-40 -24,-26 -36,-63 -36,-111 0,-32 5,-59 15,-83 11,-23 27,-41 48,-53 21,-11 44,-17 69,-17 32,0 58,8 78,24 20,16 33,38 39,68l-48 7c-5,-20 -13,-34 -24,-44 -12,-10 -26,-15 -43,-15 -25,0 -45,9 -60,27 -16,18 -24,46 -24,84 0,39 8,68 23,85 15,18 34,27 58,27 20,0 36,-6 49,-18 13,-11 21,-30 25,-54z"/>
   <path id="6" class="fil3" d="M12722 4649l51 7c-8,29 -23,53 -44,69 -22,16 -50,25 -84,25 -42,0 -76,-14 -101,-40 -25,-26 -37,-63 -37,-110 0,-49 12,-87 38,-114 25,-27 58,-40 98,-40 39,0 70,13 95,39 25,27 37,64 37,112 0,3 0,7 0,13l-218 0c2,32 11,57 28,74 16,17 36,25 60,25 18,0 34,-5 47,-14 12,-10 23,-25 30,-46zm-162 -79l163 0c-3,-25 -9,-43 -19,-55 -16,-19 -36,-29 -61,-29 -23,0 -42,8 -57,23 -15,15 -24,35 -26,61z"/>
   <path id="7" class="fil3" d="M10375 5371l0 -402 139 0c31,0 55,2 71,5 23,6 43,15 59,29 22,18 37,41 48,69 11,28 16,60 16,96 0,30 -4,57 -11,81 -7,23 -16,43 -27,58 -12,16 -24,28 -37,37 -13,9 -29,15 -48,20 -19,5 -40,7 -65,7l-145 0zm54 -47l85 0c27,0 48,-3 63,-8 15,-5 27,-12 36,-21 12,-12 22,-29 29,-51 7,-21 11,-47 11,-77 0,-42 -7,-75 -21,-97 -14,-23 -30,-38 -50,-46 -14,-5 -37,-8 -69,-8l-84 0 0 308z"/>
   <path id="8" class="fil3" d="M10974 5277l51 6c-8,30 -23,53 -45,69 -22,17 -49,25 -83,25 -43,0 -76,-13 -101,-39 -25,-26 -38,-63 -38,-110 0,-49 13,-87 38,-114 25,-27 58,-41 98,-41 39,0 71,13 95,40 25,26 37,64 37,112 0,3 0,7 0,13l-217 0c2,32 11,56 27,73 16,17 37,26 61,26 18,0 33,-5 46,-15 13,-9 23,-25 31,-45zm-162 -80l162 0c-2,-24 -8,-43 -19,-55 -15,-19 -36,-28 -61,-28 -22,0 -41,7 -57,22 -15,16 -24,36 -25,61z"/>
   <path id="9" class="fil3" d="M11087 5483l0 -404 45 0 0 39c11,-15 23,-26 36,-34 13,-7 29,-11 48,-11 25,0 47,7 66,19 19,13 34,31 43,54 10,24 15,49 15,77 0,30 -5,56 -16,80 -11,24 -26,42 -47,55 -20,13 -41,19 -64,19 -16,0 -31,-3 -44,-10 -13,-7 -24,-16 -32,-27l0 143 -50 0zm45 -256c0,37 8,65 23,83 15,18 33,27 55,27 22,0 40,-10 56,-28 16,-19 23,-47 23,-86 0,-37 -7,-65 -23,-83 -15,-19 -33,-28 -54,-28 -21,0 -40,10 -56,29 -16,20 -24,48 -24,86z"/>
   <path id="10" class="fil3" d="M11590 5334c-18,16 -36,27 -53,33 -17,7 -35,10 -55,10 -32,0 -56,-8 -73,-23 -18,-16 -26,-36 -26,-60 0,-14 3,-27 9,-39 7,-12 15,-21 26,-28 11,-7 22,-13 36,-17 9,-2 24,-5 44,-7 39,-5 69,-10 88,-17 0,-7 0,-11 0,-13 0,-20 -5,-34 -14,-42 -13,-11 -31,-17 -56,-17 -24,0 -41,4 -52,12 -11,9 -19,23 -25,44l-48 -7c5,-21 12,-37 22,-50 10,-13 25,-23 44,-30 19,-6 41,-10 66,-10 25,0 45,3 61,9 15,6 27,13 34,22 7,9 13,20 16,34 1,8 2,23 2,45l0 66c0,45 1,74 3,87 2,12 6,24 12,35l-52 0c-4,-11 -8,-23 -9,-37zm-4 -109c-18,7 -45,13 -81,18 -20,3 -35,7 -43,10 -9,4 -15,9 -20,16 -4,7 -7,15 -7,24 0,13 5,23 15,32 10,9 25,13 44,13 19,0 36,-4 51,-12 15,-8 26,-20 33,-34 5,-11 8,-28 8,-49l0 -18z"/>
   <path id="11" class="fil3" d="M11711 5371l0 -292 45 0 0 45c11,-21 22,-34 31,-41 10,-7 20,-10 32,-10 17,0 34,5 51,16l-18 45c-12,-6 -24,-10 -36,-10 -11,0 -20,4 -29,10 -8,6 -14,15 -18,27 -5,17 -8,37 -8,58l0 152 -50 0z"/>
   <path id="12" class="fil3" d="M12006 5327l7 43c-14,3 -26,5 -37,5 -18,0 -32,-3 -42,-9 -10,-5 -17,-13 -21,-22 -4,-9 -6,-29 -6,-58l0 -168 -36 0 0 -39 36 0 0 -72 50 -29 0 101 49 0 0 39 -49 0 0 170c0,14 1,24 2,28 2,4 5,7 9,9 4,3 9,4 17,4 5,0 12,-1 21,-2z"/>
   <path id="13" class="fil3" d="M12055 5371l0 -292 44 0 0 42c10,-15 22,-26 37,-35 15,-9 32,-13 52,-13 21,0 39,5 53,14 13,9 23,21 29,37 23,-34 53,-51 90,-51 29,0 51,8 67,24 16,16 23,41 23,74l0 200 -49 0 0 -184c0,-19 -2,-34 -5,-42 -3,-9 -9,-16 -17,-21 -9,-6 -19,-8 -30,-8 -21,0 -38,7 -51,20 -14,14 -21,36 -21,66l0 169 -49 0 0 -189c0,-22 -4,-39 -12,-50 -8,-11 -21,-16 -40,-16 -13,0 -26,4 -38,11 -12,7 -20,18 -26,32 -5,14 -8,34 -8,61l0 151 -49 0z"/>
   <path id="14" class="fil3" d="M12722 5277l51 6c-8,30 -23,53 -45,69 -21,17 -49,25 -83,25 -42,0 -76,-13 -101,-39 -25,-26 -37,-63 -37,-110 0,-49 12,-87 37,-114 26,-27 58,-41 98,-41 39,0 71,13 96,40 24,26 37,64 37,112 0,3 0,7 -1,13l-217 0c2,32 11,56 27,73 17,17 37,26 61,26 18,0 34,-5 46,-15 13,-9 23,-25 31,-45zm-162 -80l162 0c-2,-24 -8,-43 -18,-55 -16,-19 -36,-28 -61,-28 -23,0 -42,7 -57,22 -16,16 -24,36 -26,61z"/>
   <path id="15" class="fil3" d="M12835 5371l0 -292 45 0 0 42c21,-32 52,-48 92,-48 18,0 34,3 49,10 14,6 25,14 33,24 7,11 12,23 15,37 2,9 3,25 3,48l0 179 -50 0 0 -177c0,-20 -1,-35 -5,-45 -4,-10 -11,-18 -21,-24 -9,-6 -21,-9 -34,-9 -21,0 -39,7 -54,20 -16,13 -23,39 -23,76l0 159 -50 0z"/>
   <path id="16" class="fil3" d="M13255 5327l7 43c-14,3 -26,5 -37,5 -18,0 -32,-3 -42,-9 -10,-5 -17,-13 -21,-22 -4,-9 -6,-29 -6,-58l0 -168 -36 0 0 -39 36 0 0 -72 50 -29 0 101 49 0 0 39 -49 0 0 170c0,14 0,24 2,28 2,4 5,7 9,9 4,3 9,4 17,4 5,0 12,-1 21,-2z"/>
   <polygon class="fil3" points="20140,4743 20140,4388 20008,4388 20008,4341 20326,4341 20326,4388 20194,4388 20194,4743 "/>
   <path id="1" class="fil3" d="M20294 4598c0,-54 15,-94 45,-120 25,-22 56,-32 92,-32 40,0 73,13 98,39 25,26 38,62 38,108 0,38 -5,67 -17,89 -11,21 -27,38 -49,50 -21,12 -45,18 -70,18 -41,0 -74,-13 -99,-40 -25,-26 -38,-63 -38,-112zm51 0c0,37 8,65 24,83 17,19 37,28 62,28 24,0 45,-9 61,-28 16,-18 25,-47 25,-85 0,-36 -9,-63 -25,-82 -16,-18 -37,-27 -61,-27 -25,0 -45,9 -62,27 -16,19 -24,47 -24,84z"/>
   <path id="2" class="fil3" d="M20625 4855l0 -403 45 0 0 38c11,-15 23,-26 36,-33 13,-8 29,-11 48,-11 25,0 47,6 66,19 19,13 34,31 43,54 10,23 15,49 15,76 0,30 -5,57 -16,81 -11,24 -26,42 -47,55 -20,12 -42,19 -64,19 -16,0 -31,-4 -44,-11 -13,-7 -24,-15 -32,-26l0 142 -50 0zm45 -256c0,38 8,65 23,83 15,18 33,27 55,27 22,0 40,-9 56,-28 16,-18 23,-47 23,-86 0,-37 -7,-65 -23,-83 -15,-18 -33,-28 -54,-28 -21,0 -40,10 -56,30 -16,19 -24,48 -24,85z"/>
   <path id="3" class="fil3" d="M18850 5371l0 -402 80 0 95 284c9,27 15,47 19,60 5,-15 12,-36 22,-65l97 -279 71 0 0 402 -51 0 0 -337 -118 337 -47 0 -117 -343 0 343 -51 0z"/>
   <path id="4" class="fil3" d="M19504 5334c-19,16 -36,27 -53,33 -17,7 -35,10 -55,10 -32,0 -57,-8 -74,-23 -17,-16 -26,-36 -26,-60 0,-14 4,-27 10,-39 7,-12 15,-21 26,-28 10,-7 22,-13 35,-17 10,-2 25,-5 44,-7 40,-5 70,-10 88,-17 1,-7 1,-11 1,-13 0,-20 -5,-34 -14,-42 -13,-11 -32,-17 -57,-17 -23,0 -40,4 -51,12 -11,9 -20,23 -25,44l-48 -7c4,-21 11,-37 22,-50 10,-13 24,-23 43,-30 19,-6 42,-10 67,-10 25,0 45,3 60,9 16,6 28,13 35,22 7,9 12,20 15,34 2,8 3,23 3,45l0 66c0,45 1,74 3,87 2,12 6,24 12,35l-52 0c-5,-11 -8,-23 -9,-37zm-4 -109c-18,7 -45,13 -81,18 -21,3 -35,7 -43,10 -9,4 -15,9 -20,16 -4,7 -7,15 -7,24 0,13 5,23 15,32 10,9 25,13 44,13 19,0 36,-4 51,-12 15,-8 26,-20 32,-34 6,-11 8,-28 8,-49l1 -18z"/>
   <path id="5" class="fil3" d="M19626 5371l0 -292 44 0 0 42c21,-32 52,-48 93,-48 17,0 33,3 48,10 15,6 26,14 33,24 7,11 12,23 15,37 2,9 3,25 3,48l0 179 -49 0 0 -177c0,-20 -2,-35 -6,-45 -4,-10 -11,-18 -20,-24 -10,-6 -22,-9 -35,-9 -21,0 -39,7 -54,20 -15,13 -23,39 -23,76l0 159 -49 0z"/>
   <path id="6" class="fil3" d="M20128 5334c-18,16 -36,27 -53,33 -16,7 -35,10 -54,10 -32,0 -57,-8 -74,-23 -17,-16 -26,-36 -26,-60 0,-14 3,-27 10,-39 6,-12 15,-21 25,-28 11,-7 23,-13 36,-17 10,-2 24,-5 44,-7 40,-5 69,-10 88,-17 0,-7 1,-11 1,-13 0,-20 -5,-34 -15,-42 -12,-11 -31,-17 -56,-17 -23,0 -40,4 -51,12 -12,9 -20,23 -25,44l-48 -7c4,-21 11,-37 21,-50 10,-13 25,-23 44,-30 19,-6 41,-10 66,-10 25,0 46,3 61,9 16,6 27,13 35,22 7,9 12,20 15,34 2,8 3,23 3,45l0 66c0,45 1,74 3,87 2,12 6,24 12,35l-52 0c-5,-11 -8,-23 -10,-37zm-3 -109c-18,7 -45,13 -81,18 -21,3 -35,7 -44,10 -8,4 -15,9 -19,16 -5,7 -7,15 -7,24 0,13 5,23 15,32 10,9 25,13 44,13 19,0 36,-4 51,-12 14,-8 25,-20 32,-34 6,-11 8,-28 8,-49l1 -18z"/>
   <path id="7" class="fil3" d="M20241 5395l48 7c2,15 8,25 17,32 12,9 29,14 50,14 23,0 41,-5 53,-14 13,-9 21,-22 25,-38 3,-10 4,-31 4,-63 -22,25 -49,38 -81,38 -40,0 -71,-15 -93,-43 -22,-29 -33,-64 -33,-104 0,-28 5,-54 15,-77 10,-24 25,-42 44,-55 19,-12 42,-19 67,-19 35,0 63,14 85,42l0 -36 46 0 0 252c0,46 -5,78 -14,97 -9,18 -24,33 -44,44 -20,11 -44,17 -74,17 -34,0 -62,-8 -84,-24 -21,-15 -31,-39 -31,-70zm41 -175c0,38 7,66 23,84 15,17 34,26 57,26 22,0 41,-9 57,-26 15,-18 23,-45 23,-82 0,-36 -8,-63 -24,-81 -16,-18 -35,-27 -57,-27 -22,0 -41,9 -56,27 -16,18 -23,44 -23,79z"/>
   <path id="8" class="fil3" d="M20762 5277l51 6c-8,30 -23,53 -45,69 -21,17 -49,25 -83,25 -42,0 -76,-13 -101,-39 -25,-26 -37,-63 -37,-110 0,-49 12,-87 37,-114 25,-27 58,-41 98,-41 39,0 71,13 95,40 25,26 37,64 37,112 0,3 0,7 0,13l-217 0c2,32 11,56 27,73 16,17 37,26 61,26 18,0 34,-5 46,-15 13,-9 23,-25 31,-45zm-162 -80l162 0c-2,-24 -8,-43 -18,-55 -16,-19 -36,-28 -61,-28 -23,0 -42,7 -58,22 -15,16 -23,36 -25,61z"/>
   <path id="9" class="fil3" d="M20875 5371l0 -292 45 0 0 42c9,-15 21,-26 36,-35 15,-9 32,-13 52,-13 21,0 39,5 53,14 14,9 23,21 29,37 23,-34 53,-51 90,-51 29,0 52,8 67,24 16,16 24,41 24,74l0 200 -50 0 0 -184c0,-19 -1,-34 -5,-42 -3,-9 -9,-16 -17,-21 -9,-6 -18,-8 -30,-8 -20,0 -37,7 -51,20 -14,14 -20,36 -20,66l0 169 -50 0 0 -189c0,-22 -4,-39 -12,-50 -8,-11 -21,-16 -39,-16 -14,0 -27,4 -39,11 -12,7 -20,18 -25,32 -6,14 -8,34 -8,61l0 151 -50 0z"/>
   <path id="10" class="fil3" d="M21542 5277l51 6c-8,30 -23,53 -44,69 -22,17 -50,25 -84,25 -42,0 -76,-13 -101,-39 -25,-26 -37,-63 -37,-110 0,-49 12,-87 38,-114 25,-27 57,-41 98,-41 38,0 70,13 95,40 24,26 37,64 37,112 0,3 0,7 0,13l-218 0c2,32 11,56 28,73 16,17 36,26 60,26 18,0 34,-5 47,-15 12,-9 23,-25 30,-45zm-162 -80l163 0c-3,-24 -9,-43 -19,-55 -16,-19 -36,-28 -61,-28 -23,0 -42,7 -57,22 -16,16 -24,36 -26,61z"/>
   <path id="11" class="fil3" d="M21656 5371l0 -292 44 0 0 42c21,-32 52,-48 93,-48 17,0 33,3 48,10 15,6 26,14 33,24 7,11 12,23 15,37 2,9 3,25 3,48l0 179 -49 0 0 -177c0,-20 -2,-35 -6,-45 -4,-10 -11,-18 -21,-24 -9,-6 -21,-9 -34,-9 -21,0 -39,7 -54,20 -15,13 -23,39 -23,76l0 159 -49 0z"/>
   <path id="12" class="fil3" d="M22075 5327l7 43c-14,3 -26,5 -37,5 -18,0 -32,-3 -42,-9 -10,-5 -17,-13 -21,-22 -4,-9 -6,-29 -6,-58l0 -168 -36 0 0 -39 36 0 0 -72 50 -29 0 101 49 0 0 39 -49 0 0 170c0,14 1,24 2,28 2,4 5,7 9,9 4,3 9,4 17,4 5,0 12,-1 21,-2z"/>
   <path class="fil4" d="M2400 2952l0 289c0,18 14,33 32,33l223 0c18,0 33,-15 33,-33l0 -508 -163 162c-34,34 -78,54 -125,57z"/>
   <path class="fil4" d="M2799 2729l0 512c0,18 14,33 32,33l224 0c18,0 32,-15 32,-33l0 -301c-51,-1 -98,-22 -134,-57l-154 -154z"/>
   <path class="fil4" d="M3199 2908l0 333c0,18 14,33 32,33l224 0c17,0 32,-15 32,-33l0 -615 -256 256c-10,10 -21,19 -32,26z"/>
   <path class="fil4" d="M3865 2248l-267 266 0 727c0,18 15,33 33,33l223 0c18,0 33,-15 33,-33l0 -973c-8,-7 -13,-12 -17,-16l-5 -4z"/>
   <path class="fil4" d="M4048 1775c-11,-11 -27,-17 -47,-17l-6 0c-104,5 -208,10 -312,15 -14,0 -33,1 -48,16 -5,5 -9,11 -12,17 -15,33 7,55 17,65l26 27c18,18 36,36 55,54l-630 630 -282 -283c-17,-17 -40,-26 -64,-26 -24,0 -47,9 -63,26l-377 376c-18,18 -26,41 -26,64l0 0c0,23 8,46 26,64l17 16c17,17 39,27 64,27 24,0 46,-10 63,-27l296 -295 283 282c16,17 39,27 63,27 25,0 47,-10 64,-27l710 -710 80 80c10,10 23,23 43,23 9,0 17,-2 26,-7 6,-3 11,-7 15,-11 16,-16 19,-36 20,-52 3,-67 6,-135 9,-203l5 -101c1,-21 -4,-38 -15,-50z"/>
   <path class="fil1" d="M12458 1876c-171,-170 -398,-264 -639,-264 -242,0 -469,94 -640,264 -171,171 -265,398 -265,640 0,241 94,469 265,639 171,171 398,265 640,265 241,0 468,-94 639,-265 171,-170 265,-398 265,-639 0,-242 -94,-469 -265,-640zm-583 1033l-4 0 0 118c0,29 -23,53 -52,53 -30,0 -53,-24 -53,-53l0 -118 -118 0c-29,0 -53,-23 -53,-53 0,-29 24,-53 53,-53l227 0c65,0 118,-52 118,-117 0,-64 -53,-117 -118,-117l-113 0c-123,0 -223,-100 -223,-223 0,-123 100,-224 223,-224l4 0 0 -117c0,-29 23,-53 53,-53 29,0 52,24 52,53l0 117 118 0c29,0 53,24 53,53 0,30 -24,53 -53,53l-227 0c-65,0 -118,53 -118,118 0,64 53,117 118,117l113 0c123,0 223,100 223,223 0,123 -100,223 -223,223z"/>
   <path class="fil1" d="M19482 2452l0 0c55,-51 140,-51 196,0l366 366c55,51 141,51 196,0l1014 -1013c55,-51 140,-51 196,0l8 8c51,55 51,141 0,196 -392,400 -809,818 -1210,1218 -55,51 -140,51 -195,0l-580 -579c-52,-55 -49,-142 6,-193 1,-1 2,-2 3,-3z"/>
  </g>
 </g>
</svg>
