<?xml version="1.0" encoding="UTF-8"?>
<!DOCTYPE svg PUBLIC "-//W3C//DTD SVG 1.1//EN" "http://www.w3.org/Graphics/SVG/1.1/DTD/svg11.dtd">
<!-- Creator: CorelDRAW X8 -->
<svg xmlns="http://www.w3.org/2000/svg" xml:space="preserve" width="3.95162in" height="3in" version="1.1" style="shape-rendering:geometricPrecision; text-rendering:geometricPrecision; image-rendering:optimizeQuality; fill-rule:evenodd; clip-rule:evenodd"
viewBox="0 0 7003 5316"
 xmlns:xlink="http://www.w3.org/1999/xlink">
 <defs>
  <style type="text/css">
   <![CDATA[
    .fil1 {fill:#FEFEFE}
    .fil3 {fill:#606062}
    .fil0 {fill:#1A237E}
    .fil2 {fill:#373435;fill-rule:nonzero}
   ]]>
  </style>
 </defs>
 <g id="Layer_x0020_1">
  <metadata id="CorelCorpID_0Corel-Layer"/>
  <g id="_2490673915760">
   <g>
    <rect class="fil0" y="655" width="3362" height="4661"/>
    <rect class="fil1" x="100" y="759" width="3161" height="4457"/>
   </g>
   <path class="fil2" d="M527 1429l42 13c-6,23 -17,41 -32,52 -15,12 -34,17 -57,17 -28,0 -51,-9 -69,-29 -19,-19 -28,-45 -28,-79 0,-36 9,-63 28,-83 18,-19 42,-29 72,-29 26,0 47,7 64,23 9,9 17,22 21,39l-42 10c-3,-11 -8,-19 -16,-26 -8,-6 -18,-9 -29,-9 -16,0 -29,5 -39,17 -9,11 -14,29 -14,55 0,27 4,46 14,57 10,12 22,17 38,17 11,0 21,-3 30,-10 8,-8 14,-19 17,-35z"/>
   <path id="1" class="fil2" d="M596 1429c0,-14 4,-27 10,-40 7,-13 16,-22 29,-29 12,-7 26,-10 41,-10 23,0 42,8 57,23 15,15 22,34 22,57 0,24 -7,43 -22,59 -15,15 -34,23 -57,23 -14,0 -28,-4 -41,-10 -12,-6 -22,-16 -29,-28 -6,-12 -10,-28 -10,-45zm42 2c0,15 4,27 11,35 7,8 16,12 27,12 11,0 19,-4 27,-12 7,-8 11,-20 11,-35 0,-16 -4,-27 -11,-35 -8,-9 -16,-13 -27,-13 -11,0 -20,4 -27,13 -7,8 -11,19 -11,35z"/>
   <path id="2" class="fil2" d="M928 1508l-41 0 0 -79c0,-17 -1,-27 -2,-32 -2,-5 -5,-9 -9,-12 -4,-2 -9,-4 -14,-4 -7,0 -14,2 -19,6 -6,4 -10,9 -12,15 -2,7 -3,19 -3,36l0 70 -41 0 0 -155 38 0 0 23c13,-17 30,-26 51,-26 9,0 17,2 25,5 7,3 13,7 17,12 4,5 6,11 8,17 1,7 2,16 2,28l0 96z"/>
   <path id="3" class="fil2" d="M1040 1353l0 33 -28 0 0 62c0,13 0,20 1,22 0,3 2,4 4,6 1,1 4,2 6,2 4,0 10,-2 17,-4l3 32c-9,4 -20,6 -32,6 -7,0 -14,-2 -20,-4 -6,-3 -10,-6 -13,-10 -2,-4 -4,-9 -5,-16 -1,-4 -2,-14 -2,-29l0 -67 -18 0 0 -33 18 0 0 -30 41 -25 0 55 28 0z"/>
   <path id="4" class="fil2" d="M1099 1401l-37 -7c4,-15 11,-26 22,-33 10,-7 25,-11 45,-11 18,0 32,2 41,6 9,5 15,10 19,17 3,7 5,19 5,36l-1 48c0,14 1,24 2,30 2,7 4,13 8,21l-41 0c-1,-3 -2,-7 -4,-12 0,-3 -1,-4 -1,-5 -7,7 -15,12 -23,16 -7,3 -16,5 -25,5 -16,0 -28,-5 -37,-13 -10,-9 -14,-20 -14,-33 0,-9 2,-16 6,-23 4,-7 10,-12 18,-16 7,-4 18,-7 32,-10 19,-3 32,-6 40,-10l0 -4c0,-8 -2,-13 -6,-17 -4,-3 -11,-5 -22,-5 -7,0 -13,2 -17,5 -4,2 -7,8 -10,15zm55 33c-5,2 -14,4 -25,6 -11,3 -19,5 -22,7 -6,4 -8,9 -8,15 0,5 2,10 6,15 4,4 10,6 16,6 8,0 15,-3 21,-7 5,-4 9,-9 10,-14 1,-3 2,-10 2,-20l0 -8z"/>
   <path id="5" class="fil2" d="M1369 1399l-40 7c-2,-8 -5,-14 -10,-18 -4,-4 -11,-6 -18,-6 -10,0 -19,4 -25,11 -6,7 -9,19 -9,35 0,18 3,31 10,39 6,8 14,11 24,11 8,0 14,-2 19,-6 5,-5 9,-12 11,-23l40 7c-4,18 -12,32 -24,42 -12,9 -28,14 -48,14 -22,0 -40,-7 -54,-22 -13,-14 -20,-34 -20,-59 0,-26 7,-45 21,-60 13,-14 31,-21 54,-21 19,0 34,4 45,12 11,8 19,21 24,37z"/>
   <path id="6" class="fil2" d="M1470 1353l0 33 -28 0 0 62c0,13 1,20 1,22 1,3 2,4 4,6 2,1 4,2 7,2 4,0 9,-2 16,-4l4 32c-10,4 -20,6 -33,6 -7,0 -13,-2 -19,-4 -6,-3 -11,-6 -13,-10 -3,-4 -5,-9 -6,-16 -1,-4 -1,-14 -1,-29l0 -67 -19 0 0 -33 19 0 0 -30 40 -25 0 55 28 0z"/>
   <path id="7" class="fil2" d="M1484 1464l42 -6c1,8 5,14 10,18 5,4 13,6 23,6 10,0 18,-2 23,-6 4,-2 6,-6 6,-11 0,-3 -1,-5 -3,-7 -2,-2 -7,-4 -14,-6 -33,-7 -54,-14 -63,-20 -12,-8 -18,-20 -18,-34 0,-14 5,-25 16,-34 11,-9 27,-14 49,-14 21,0 37,3 47,10 11,7 18,18 21,31l-38 7c-2,-6 -5,-10 -9,-14 -5,-3 -12,-5 -20,-5 -11,0 -19,2 -23,5 -4,2 -5,5 -5,8 0,3 1,6 4,8 4,2 16,6 38,11 22,5 37,11 46,18 9,8 13,18 13,31 0,14 -6,26 -18,36 -12,11 -29,16 -52,16 -22,0 -38,-5 -51,-13 -12,-9 -20,-20 -24,-35z"/>
   <polygon class="fil2" points="2551,1470 2551,1214 2585,1214 2585,1470 "/>
   <path id="1" class="fil2" d="M2641 1470l0 -185 28 0 0 26c14,-20 33,-30 59,-30 11,0 22,2 31,6 9,4 16,9 21,16 5,6 8,14 10,23 1,6 1,16 1,30l0 114 -31 0 0 -112c0,-13 -1,-23 -4,-29 -2,-6 -6,-11 -13,-15 -6,-4 -13,-6 -21,-6 -14,0 -25,4 -35,13 -10,8 -15,24 -15,48l0 101 -31 0z"/>
   <path id="2" class="fil2" d="M2890 1470l-70 -185 34 0 40 111c4,12 8,24 12,37 2,-10 6,-21 11,-35l42 -113 32 0 -70 185 -31 0z"/>
   <path id="3" class="fil2" d="M3145 1410l32 5c-5,18 -14,33 -28,44 -14,10 -31,15 -53,15 -27,0 -48,-8 -64,-25 -16,-16 -24,-40 -24,-70 0,-31 8,-55 24,-72 16,-18 37,-26 62,-26 25,0 45,8 61,25 16,17 23,41 23,71 0,2 0,5 0,9l-138 0c1,20 7,36 17,46 11,11 24,16 39,16 12,0 21,-3 30,-9 8,-6 14,-15 19,-29zm-103 -50l103 0c-1,-16 -5,-27 -12,-35 -10,-12 -23,-18 -38,-18 -15,0 -27,4 -37,14 -10,10 -15,23 -16,39z"/>
   <path id="4" class="fil2" d="M3217 1470l0 -185 28 0 0 26c14,-20 34,-30 59,-30 11,0 22,2 31,6 9,4 16,9 21,16 5,6 8,14 10,23 1,6 2,16 2,30l0 114 -32 0 0 -112c0,-13 -1,-23 -4,-29 -2,-6 -6,-11 -12,-15 -7,-4 -14,-6 -22,-6 -14,0 -25,4 -35,13 -10,8 -14,24 -14,48l0 101 -32 0z"/>
   <path id="5" class="fil2" d="M3484 1442l4 28c-8,2 -16,3 -23,3 -12,0 -20,-2 -27,-6 -6,-3 -10,-8 -13,-14 -3,-6 -4,-18 -4,-37l0 -107 -23 0 0 -24 23 0 0 -46 32 -19 0 65 31 0 0 24 -31 0 0 109c0,9 0,15 1,17 1,3 3,5 6,6 2,2 6,2 10,2 4,0 8,0 14,-1z"/>
   <path id="6" class="fil2" d="M3503 1378c0,-35 10,-60 29,-77 16,-13 35,-20 58,-20 26,0 47,8 63,25 16,17 24,40 24,69 0,24 -4,42 -11,56 -7,14 -17,24 -31,32 -14,7 -29,11 -45,11 -26,0 -47,-8 -63,-25 -16,-16 -24,-40 -24,-71zm33 0c0,23 5,41 15,53 10,12 24,17 39,17 16,0 29,-5 39,-17 11,-12 16,-30 16,-54 0,-23 -5,-41 -16,-52 -10,-12 -23,-18 -39,-18 -15,0 -29,6 -39,18 -10,11 -15,29 -15,53z"/>
   <path id="7" class="fil2" d="M3714 1470l0 -185 28 0 0 28c7,-13 14,-22 20,-26 6,-4 13,-6 20,-6 11,0 21,3 32,10l-11 29c-8,-4 -15,-7 -23,-7 -7,0 -13,3 -18,7 -6,4 -9,9 -12,17 -3,11 -5,23 -5,36l0 97 -31 0z"/>
   <path id="8" class="fil2" d="M3831 1542l-3 -29c7,1 13,2 18,2 7,0 12,-1 17,-3 4,-3 7,-6 10,-10 2,-3 5,-11 10,-23 0,-2 1,-5 2,-8l-70 -186 34 0 38 107c5,13 10,28 14,43 3,-14 8,-28 13,-42l39 -108 32 0 -70 189c-8,20 -14,34 -18,41 -6,11 -12,18 -19,23 -8,5 -16,7 -26,7 -6,0 -13,-1 -21,-3z"/>
   <path class="fil2" d="M797 2245l23 5c-5,19 -14,33 -26,43 -12,9 -27,14 -45,14 -18,0 -33,-4 -45,-11 -11,-7 -20,-18 -26,-33 -6,-14 -9,-29 -9,-45 0,-18 4,-33 10,-47 7,-13 17,-23 29,-30 13,-7 27,-10 42,-10 17,0 31,4 43,13 11,9 19,21 24,37l-22 5c-4,-13 -10,-22 -18,-27 -7,-6 -16,-9 -28,-9 -13,0 -24,3 -33,10 -8,6 -15,14 -18,25 -4,11 -6,21 -6,33 0,14 3,27 7,38 4,10 11,19 19,24 9,5 19,8 29,8 13,0 24,-4 32,-11 9,-7 15,-18 18,-32z"/>
   <path id="1" class="fil2" d="M926 2304l0 -18c-10,14 -23,21 -39,21 -8,0 -14,-1 -21,-4 -6,-3 -11,-7 -14,-11 -3,-4 -5,-9 -6,-15 -1,-4 -1,-11 -1,-20l0 -76 20 0 0 68c0,11 1,18 2,22 1,6 4,10 8,13 4,3 10,5 16,5 6,0 12,-2 18,-5 5,-3 9,-8 11,-13 2,-6 4,-14 4,-24l0 -66 21 0 0 123 -19 0z"/>
   <path id="2" class="fil2" d="M969 2267l21 -3c1,8 4,15 10,19 5,5 12,7 22,7 10,0 17,-2 21,-6 5,-4 7,-9 7,-14 0,-5 -2,-8 -6,-11 -3,-2 -10,-4 -21,-7 -16,-4 -26,-7 -32,-10 -6,-3 -11,-7 -14,-12 -3,-5 -4,-10 -4,-16 0,-6 1,-11 3,-16 3,-4 6,-8 11,-11 3,-3 7,-5 13,-6 6,-2 12,-3 18,-3 10,0 18,1 26,4 7,3 12,7 16,12 3,4 6,11 7,19l-20 3c-1,-7 -4,-12 -9,-15 -4,-4 -10,-6 -18,-6 -10,0 -17,2 -21,5 -4,3 -6,7 -6,11 0,3 1,5 3,8 1,2 4,4 8,5 2,1 8,3 18,5 15,4 25,8 31,10 6,3 10,6 14,11 3,5 5,11 5,18 0,7 -2,13 -6,20 -4,6 -10,11 -18,14 -8,3 -16,5 -26,5 -16,0 -28,-3 -37,-10 -8,-7 -14,-17 -16,-30z"/>
   <path id="3" class="fil2" d="M1142 2286l3 18c-6,1 -11,2 -16,2 -7,0 -13,-1 -17,-4 -5,-2 -8,-5 -9,-9 -2,-4 -3,-12 -3,-25l0 -71 -15 0 0 -16 15 0 0 -31 21 -12 0 43 21 0 0 16 -21 0 0 72c0,6 0,10 1,12 1,2 2,3 4,4 1,1 4,1 7,1 2,0 5,0 9,0z"/>
   <path id="4" class="fil2" d="M1155 2243c0,-23 6,-40 19,-51 11,-9 24,-14 39,-14 17,0 31,6 42,17 10,11 16,26 16,46 0,16 -3,28 -7,37 -5,9 -12,16 -21,21 -9,5 -19,8 -30,8 -17,0 -31,-6 -42,-17 -11,-11 -16,-27 -16,-47zm21 0c0,15 4,27 11,35 7,8 15,12 26,12 10,0 19,-4 26,-12 7,-8 10,-20 10,-36 0,-15 -3,-27 -10,-35 -7,-8 -16,-12 -26,-12 -11,0 -19,4 -26,12 -7,8 -11,20 -11,36z"/>
   <path id="5" class="fil2" d="M1295 2304l0 -123 19 0 0 17c4,-6 9,-11 16,-14 6,-4 13,-6 21,-6 10,0 17,2 23,6 6,4 10,9 12,16 10,-15 23,-22 39,-22 12,0 21,3 28,10 7,7 10,17 10,32l0 84 -21 0 0 -77c0,-9 -1,-15 -2,-19 -1,-3 -4,-6 -8,-8 -3,-3 -7,-4 -12,-4 -9,0 -16,3 -22,9 -6,6 -8,15 -8,28l0 71 -21 0 0 -80c0,-9 -2,-16 -6,-21 -3,-4 -9,-7 -16,-7 -6,0 -12,2 -17,5 -5,3 -8,7 -10,13 -3,6 -4,15 -4,26l0 64 -21 0z"/>
   <path id="6" class="fil2" d="M1578 2264l22 3c-4,13 -10,23 -19,30 -9,6 -21,10 -36,10 -18,0 -32,-6 -42,-17 -11,-11 -16,-26 -16,-46 0,-21 5,-37 16,-49 10,-11 24,-17 41,-17 17,0 30,6 41,17 10,11 15,27 15,47 0,2 0,3 0,6l-92 0c1,13 5,24 12,31 7,7 15,11 25,11 8,0 15,-2 20,-6 6,-4 10,-11 13,-20zm-69 -33l69 0c-1,-11 -3,-18 -8,-24 -6,-8 -15,-12 -26,-12 -9,0 -17,3 -24,10 -6,6 -10,15 -11,26z"/>
   <path id="7" class="fil2" d="M1626 2304l0 -123 19 0 0 19c5,-9 9,-15 13,-18 4,-3 9,-4 14,-4 7,0 14,2 21,7l-7 19c-5,-3 -11,-4 -16,-4 -4,0 -8,1 -12,4 -3,3 -6,6 -8,11 -2,8 -3,16 -3,25l0 64 -21 0z"/>
   <path id="8" class="fil2" d="M797 2777l23 5c-5,19 -14,33 -26,43 -12,10 -27,14 -45,14 -18,0 -33,-3 -45,-11 -11,-7 -20,-18 -26,-32 -6,-14 -9,-30 -9,-46 0,-18 4,-33 10,-46 7,-14 17,-24 29,-31 13,-6 27,-10 42,-10 17,0 31,4 43,13 11,9 19,21 24,37l-22 5c-4,-12 -10,-21 -18,-27 -7,-6 -16,-9 -28,-9 -13,0 -24,4 -33,10 -8,6 -15,15 -18,25 -4,11 -6,22 -6,33 0,14 3,27 7,38 4,11 11,19 19,24 9,5 19,8 29,8 13,0 24,-4 32,-11 9,-7 15,-18 18,-32z"/>
   <path id="9" class="fil2" d="M926 2837l0 -19c-10,14 -23,21 -39,21 -8,0 -14,-1 -21,-4 -6,-3 -11,-6 -14,-10 -3,-5 -5,-10 -6,-16 -1,-4 -1,-11 -1,-20l0 -76 20 0 0 68c0,11 1,19 2,22 1,6 4,10 8,13 4,4 10,5 16,5 6,0 12,-1 18,-5 5,-3 9,-7 11,-13 2,-5 4,-13 4,-24l0 -66 21 0 0 124 -19 0z"/>
   <path id="10" class="fil2" d="M969 2800l21 -4c1,9 4,15 10,19 5,5 12,7 22,7 10,0 17,-2 21,-6 5,-4 7,-8 7,-14 0,-4 -2,-8 -6,-11 -3,-2 -10,-4 -21,-7 -16,-4 -26,-7 -32,-10 -6,-3 -11,-7 -14,-12 -3,-5 -4,-10 -4,-16 0,-6 1,-11 3,-15 3,-5 6,-9 11,-12 3,-2 7,-5 13,-6 6,-2 12,-3 18,-3 10,0 18,2 26,5 7,2 12,6 16,11 3,5 6,11 7,19l-20 3c-1,-6 -4,-12 -9,-15 -4,-4 -10,-6 -18,-6 -10,0 -17,2 -21,5 -4,3 -6,7 -6,11 0,3 1,6 3,8 1,2 4,4 8,5 2,1 8,3 18,6 15,4 25,7 31,9 6,3 10,7 14,11 3,5 5,11 5,18 0,7 -2,14 -6,20 -4,6 -10,11 -18,14 -8,4 -16,5 -26,5 -16,0 -28,-3 -37,-10 -8,-6 -14,-16 -16,-29z"/>
   <path id="11" class="fil2" d="M1142 2818l3 18c-6,2 -11,2 -16,2 -7,0 -13,-1 -17,-3 -5,-3 -8,-6 -9,-10 -2,-4 -3,-12 -3,-25l0 -71 -15 0 0 -16 15 0 0 -31 21 -12 0 43 21 0 0 16 -21 0 0 73c0,6 0,9 1,11 1,2 2,3 4,4 1,1 4,2 7,2 2,0 5,-1 9,-1z"/>
   <path id="12" class="fil2" d="M1155 2775c0,-23 6,-40 19,-51 11,-9 24,-14 39,-14 17,0 31,6 42,17 10,11 16,26 16,46 0,16 -3,28 -7,37 -5,10 -12,17 -21,22 -9,5 -19,7 -30,7 -17,0 -31,-5 -42,-16 -11,-11 -16,-27 -16,-48zm21 0c0,16 4,27 11,35 7,8 15,12 26,12 10,0 19,-4 26,-12 7,-8 10,-20 10,-36 0,-15 -3,-27 -10,-34 -7,-8 -16,-12 -26,-12 -11,0 -19,4 -26,11 -7,8 -11,20 -11,36z"/>
   <path id="13" class="fil2" d="M1295 2837l0 -124 19 0 0 17c4,-6 9,-11 16,-14 6,-4 13,-6 21,-6 10,0 17,2 23,6 6,4 10,9 12,16 10,-14 23,-22 39,-22 12,0 21,4 28,10 7,7 10,18 10,32l0 85 -21 0 0 -78c0,-9 -1,-15 -2,-18 -1,-4 -4,-7 -8,-9 -3,-2 -7,-4 -12,-4 -9,0 -16,3 -22,9 -6,6 -8,15 -8,28l0 72 -21 0 0 -81c0,-9 -2,-16 -6,-21 -3,-4 -9,-7 -16,-7 -6,0 -12,2 -17,5 -5,3 -8,8 -10,14 -3,6 -4,14 -4,25l0 65 -21 0z"/>
   <path id="14" class="fil2" d="M1578 2797l22 2c-4,13 -10,23 -19,30 -9,7 -21,10 -36,10 -18,0 -32,-5 -42,-16 -11,-12 -16,-27 -16,-47 0,-21 5,-37 16,-48 10,-12 24,-18 41,-18 17,0 30,6 41,17 10,11 15,27 15,48 0,1 0,3 0,5l-92 0c1,14 5,24 12,31 7,7 15,11 25,11 8,0 15,-2 20,-6 6,-4 10,-11 13,-19zm-69 -34l69 0c-1,-10 -3,-18 -8,-23 -6,-8 -15,-13 -26,-13 -9,0 -17,4 -24,10 -6,7 -10,15 -11,26z"/>
   <path id="15" class="fil2" d="M1626 2837l0 -124 19 0 0 19c5,-9 9,-15 13,-17 4,-3 9,-5 14,-5 7,0 14,3 21,7l-7 19c-5,-3 -11,-4 -16,-4 -4,0 -8,1 -12,4 -3,3 -6,7 -8,12 -2,7 -3,15 -3,24l0 65 -21 0z"/>
   <path id="16" class="fil2" d="M724 3369l-66 -171 25 0 44 124c4,10 7,19 9,28 3,-9 6,-19 9,-28l46 -124 23 0 -66 171 -24 0z"/>
   <path id="17" class="fil2" d="M903 3329l22 3c-4,12 -10,22 -19,29 -9,7 -21,10 -35,10 -19,0 -33,-5 -43,-16 -11,-11 -16,-27 -16,-47 0,-21 5,-37 16,-48 10,-12 24,-17 41,-17 17,0 30,5 41,16 10,12 15,27 15,48 0,1 0,3 0,5l-92 0c1,14 5,24 12,31 7,8 15,11 26,11 7,0 14,-2 19,-6 6,-4 10,-10 13,-19zm-69 -34l69 0c-1,-10 -3,-18 -8,-23 -6,-8 -15,-12 -26,-12 -9,0 -17,3 -24,9 -6,7 -10,15 -11,26z"/>
   <path id="18" class="fil2" d="M951 3369l0 -124 19 0 0 18c9,-14 22,-20 39,-20 8,0 15,1 21,4 6,2 11,6 14,10 3,4 5,10 6,16 1,3 1,10 1,20l0 76 -20 0 0 -75c0,-9 -1,-15 -3,-19 -2,-5 -4,-8 -9,-11 -4,-2 -9,-3 -14,-3 -9,0 -17,2 -23,8 -7,6 -10,17 -10,32l0 68 -21 0z"/>
   <path id="19" class="fil2" d="M1163 3369l0 -16c-7,12 -19,18 -34,18 -10,0 -19,-2 -27,-8 -8,-5 -15,-13 -19,-22 -5,-10 -7,-21 -7,-34 0,-12 2,-23 6,-33 4,-10 10,-18 18,-23 9,-6 18,-8 28,-8 7,0 14,1 20,4 6,3 10,8 14,13l0 -62 21 0 0 171 -20 0zm-66 -62c0,16 4,28 10,36 7,7 15,11 24,11 9,0 17,-3 23,-11 7,-7 10,-19 10,-34 0,-17 -3,-29 -10,-37 -6,-8 -14,-12 -24,-12 -9,0 -17,4 -23,11 -7,8 -10,20 -10,36z"/>
   <path id="20" class="fil2" d="M1208 3307c0,-23 7,-40 19,-51 11,-9 24,-13 39,-13 17,0 31,5 42,16 11,11 16,27 16,46 0,16 -2,29 -7,38 -5,9 -12,16 -21,21 -9,5 -19,7 -30,7 -17,0 -31,-5 -42,-16 -10,-11 -16,-27 -16,-48zm22 0c0,16 3,28 10,35 7,8 16,12 26,12 11,0 19,-4 26,-12 7,-7 11,-19 11,-36 0,-15 -4,-26 -11,-34 -7,-8 -15,-12 -26,-12 -10,0 -19,4 -26,12 -7,7 -10,19 -10,35z"/>
   <path id="21" class="fil2" d="M1348 3369l0 -124 19 0 0 19c5,-9 9,-14 14,-17 4,-3 8,-4 13,-4 7,0 14,2 22,6l-8 20c-5,-3 -10,-5 -15,-5 -5,0 -9,2 -12,4 -4,3 -7,7 -8,12 -2,7 -4,15 -4,24l0 65 -21 0z"/>
   <polygon id="22" class="fil2" points="1536,3369 1536,3218 1480,3218 1480,3198 1615,3198 1615,3218 1558,3218 1558,3369 "/>
   <path id="23" class="fil2" d="M1601 3307c0,-23 6,-40 19,-51 11,-9 24,-13 39,-13 17,0 31,5 42,16 10,11 16,27 16,46 0,16 -2,29 -7,38 -5,9 -12,16 -21,21 -9,5 -19,7 -30,7 -17,0 -31,-5 -42,-16 -11,-11 -16,-27 -16,-48zm22 0c0,16 3,28 10,35 7,8 16,12 26,12 10,0 19,-4 26,-12 7,-7 10,-19 10,-36 0,-15 -3,-26 -10,-34 -7,-8 -16,-12 -26,-12 -10,0 -19,4 -26,12 -7,7 -10,19 -10,35z"/>
   <path id="24" class="fil2" d="M724 3901l-66 -171 25 0 44 124c4,10 7,20 9,28 3,-9 6,-18 9,-28l46 -124 23 0 -66 171 -24 0z"/>
   <path id="25" class="fil2" d="M903 3861l22 3c-4,12 -10,22 -19,29 -9,7 -21,11 -35,11 -19,0 -33,-6 -43,-17 -11,-11 -16,-27 -16,-47 0,-20 5,-37 16,-48 10,-11 24,-17 41,-17 17,0 30,5 41,17 10,11 15,27 15,47 0,1 0,3 0,6l-92 0c1,13 5,24 12,31 7,7 15,11 26,11 7,0 14,-3 19,-7 6,-4 10,-10 13,-19zm-69 -34l69 0c-1,-10 -3,-18 -8,-23 -6,-8 -15,-12 -26,-12 -9,0 -17,3 -24,10 -6,6 -10,15 -11,25z"/>
   <path id="26" class="fil2" d="M951 3901l0 -124 19 0 0 18c9,-13 22,-20 39,-20 8,0 15,1 21,4 6,2 11,6 14,10 3,5 5,10 6,16 1,4 1,10 1,20l0 76 -20 0 0 -75c0,-9 -1,-15 -3,-19 -2,-4 -4,-8 -9,-10 -4,-3 -9,-4 -14,-4 -9,0 -17,3 -23,8 -7,6 -10,17 -10,33l0 67 -21 0z"/>
   <path id="27" class="fil2" d="M1163 3901l0 -16c-7,13 -19,19 -34,19 -10,0 -19,-3 -27,-8 -8,-6 -15,-13 -19,-23 -5,-10 -7,-21 -7,-34 0,-12 2,-23 6,-33 4,-10 10,-18 18,-23 9,-6 18,-8 28,-8 7,0 14,1 20,5 6,3 10,7 14,12l0 -62 21 0 0 171 -20 0zm-66 -62c0,16 4,28 10,36 7,8 15,12 24,12 9,0 17,-4 23,-12 7,-7 10,-19 10,-34 0,-17 -3,-29 -10,-37 -6,-8 -14,-12 -24,-12 -9,0 -17,4 -23,12 -7,7 -10,19 -10,35z"/>
   <path id="28" class="fil2" d="M1208 3839c0,-23 7,-40 19,-51 11,-9 24,-13 39,-13 17,0 31,5 42,16 11,12 16,27 16,46 0,16 -2,29 -7,38 -5,9 -12,16 -21,21 -9,5 -19,8 -30,8 -17,0 -31,-6 -42,-17 -10,-11 -16,-27 -16,-48zm22 0c0,16 3,28 10,36 7,8 16,12 26,12 11,0 19,-4 26,-12 7,-8 11,-20 11,-36 0,-16 -4,-27 -11,-35 -7,-8 -15,-12 -26,-12 -10,0 -19,4 -26,12 -7,8 -10,20 -10,35z"/>
   <path id="29" class="fil2" d="M1348 3901l0 -124 19 0 0 19c5,-8 9,-14 14,-17 4,-3 8,-4 13,-4 7,0 14,2 22,6l-8 20c-5,-3 -10,-5 -15,-5 -5,0 -9,2 -12,5 -4,2 -7,6 -8,11 -2,7 -4,16 -4,24l0 65 -21 0z"/>
   <path id="30" class="fil2" d="M1497 3901l0 -171 59 0c13,0 23,1 30,3 10,2 18,6 25,12 9,8 16,17 20,29 5,12 7,26 7,41 0,13 -2,24 -5,34 -3,10 -7,19 -11,25 -5,7 -10,12 -16,16 -6,3 -12,6 -20,8 -8,2 -17,3 -28,3l-61 0zm22 -20l37 0c11,0 20,-1 26,-3 7,-2 12,-5 15,-9 6,-5 10,-13 13,-22 3,-9 4,-20 4,-33 0,-17 -2,-31 -8,-41 -6,-9 -13,-16 -22,-19 -6,-2 -15,-4 -29,-4l-36 0 0 131z"/>
   <path id="31" class="fil2" d="M1747 3901l0 -18c-10,14 -23,21 -39,21 -7,0 -14,-2 -21,-4 -6,-3 -11,-7 -14,-11 -3,-4 -5,-9 -6,-16 -1,-4 -1,-10 -1,-19l0 -77 21 0 0 69c0,11 0,18 1,22 1,5 4,10 8,13 5,3 10,5 16,5 6,0 12,-2 18,-5 5,-3 9,-8 11,-13 3,-6 4,-14 4,-24l0 -67 21 0 0 124 -19 0z"/>
   <path id="32" class="fil2" d="M657 4433l65 -170 25 0 70 170 -26 0 -20 -51 -72 0 -18 51 -24 0zm49 -70l58 0 -18 -47c-5,-14 -9,-26 -12,-36 -2,11 -5,22 -9,33l-19 50z"/>
   <path id="33" class="fil2" d="M828 4444l20 2c1,7 3,11 7,14 6,4 13,6 22,6 9,0 17,-2 22,-6 5,-4 9,-9 11,-16 1,-4 1,-13 1,-27 -9,11 -20,16 -34,16 -17,0 -30,-6 -39,-18 -10,-12 -14,-27 -14,-44 0,-12 2,-23 6,-33 4,-10 11,-17 19,-23 8,-5 17,-8 28,-8 15,0 27,6 36,18l0 -15 20 0 0 106c0,20 -2,33 -6,41 -4,8 -10,15 -19,19 -8,5 -19,7 -31,7 -15,0 -27,-3 -36,-10 -9,-6 -13,-16 -13,-29zm17 -75c0,17 3,28 10,36 6,7 14,11 24,11 10,0 18,-4 24,-11 7,-8 10,-19 10,-35 0,-15 -3,-26 -10,-34 -7,-8 -15,-12 -24,-12 -10,0 -18,4 -24,12 -7,7 -10,18 -10,33z"/>
   <path id="34" class="fil2" d="M964 4287l0 -24 21 0 0 24 -21 0zm0 146l0 -123 21 0 0 123 -21 0z"/>
   <path id="35" class="fil2" d="M1017 4433l0 -123 19 0 0 17c9,-13 22,-20 39,-20 8,0 15,1 21,4 6,3 11,6 14,11 3,4 5,9 6,15 1,4 2,11 2,20l0 76 -21 0 0 -75c0,-8 -1,-15 -3,-19 -1,-4 -4,-8 -8,-10 -5,-3 -10,-4 -15,-4 -9,0 -17,3 -23,9 -7,5 -10,16 -10,32l0 67 -21 0z"/>
   <path id="36" class="fil2" d="M1146 4444l20 2c1,7 3,11 7,14 5,4 13,6 22,6 9,0 17,-2 22,-6 5,-4 9,-9 11,-16 1,-4 1,-13 1,-27 -9,11 -20,16 -34,16 -17,0 -30,-6 -39,-18 -10,-12 -14,-27 -14,-44 0,-12 2,-23 6,-33 4,-10 10,-17 19,-23 8,-5 17,-8 28,-8 15,0 27,6 36,18l0 -15 19 0 0 106c0,20 -1,33 -5,41 -4,8 -11,15 -19,19 -8,5 -19,7 -31,7 -15,0 -27,-3 -36,-10 -9,-6 -13,-16 -13,-29zm17 -75c0,17 3,28 10,36 6,7 14,11 24,11 10,0 18,-4 24,-11 7,-8 10,-19 10,-35 0,-15 -3,-26 -10,-34 -7,-8 -15,-12 -24,-12 -10,0 -18,4 -24,12 -7,7 -10,18 -10,33z"/>
   <path id="37" class="fil2" d="M1352 4433l0 -170 75 0c15,0 27,1 35,4 8,3 14,9 19,17 4,7 7,16 7,25 0,12 -4,23 -12,31 -8,8 -20,13 -36,16 6,2 10,5 13,8 7,6 13,14 19,23l30 46 -29 0 -22 -35c-7,-10 -12,-18 -16,-24 -5,-5 -9,-9 -12,-11 -3,-2 -7,-4 -10,-5 -3,0 -7,0 -13,0l-26 0 0 75 -22 0zm22 -95l49 0c10,0 18,-1 24,-3 6,-2 10,-6 13,-10 3,-5 4,-10 4,-16 0,-8 -2,-14 -8,-20 -6,-5 -15,-7 -28,-7l-54 0 0 56z"/>
   <path id="38" class="fil2" d="M1605 4393l21 3c-3,13 -9,23 -18,29 -10,7 -21,11 -36,11 -18,0 -32,-6 -43,-17 -10,-11 -15,-26 -15,-46 0,-21 5,-37 16,-49 10,-11 24,-17 41,-17 17,0 30,6 40,17 11,11 16,27 16,47 0,2 0,3 0,6l-92 0c1,13 5,24 11,31 7,7 16,11 26,11 8,0 14,-2 20,-6 5,-4 10,-11 13,-20zm-69 -33l69 0c-1,-11 -4,-19 -8,-24 -7,-8 -15,-12 -26,-12 -9,0 -17,3 -24,10 -7,6 -10,15 -11,26z"/>
   <path id="39" class="fil2" d="M1653 4481l0 -171 19 0 0 16c4,-6 10,-11 15,-14 6,-3 13,-5 21,-5 10,0 20,3 28,8 8,6 14,13 18,23 4,10 6,21 6,33 0,12 -2,23 -7,34 -4,10 -11,17 -19,23 -9,5 -18,8 -28,8 -7,0 -13,-2 -18,-5 -6,-2 -11,-6 -14,-11l0 61 -21 0zm19 -109c0,16 3,28 10,35 6,8 14,12 23,12 9,0 17,-4 24,-12 6,-8 10,-20 10,-37 0,-15 -4,-27 -10,-35 -6,-8 -14,-12 -23,-12 -9,0 -17,5 -24,13 -7,8 -10,20 -10,36z"/>
   <g>
    <rect class="fil0" x="1766" width="3362" height="4661"/>
    <rect class="fil1" x="1866" y="104" width="3161" height="4457"/>
   </g>
   <polygon class="fil2" points="2146,655 2146,442 2189,442 2189,655 "/>
   <path id="1" class="fil2" d="M2371 655l-41 0 0 -78c0,-17 -1,-28 -3,-33 -1,-5 -4,-8 -8,-11 -4,-3 -9,-4 -15,-4 -7,0 -13,2 -19,6 -5,4 -9,9 -11,15 -3,6 -4,18 -4,36l0 69 -40 0 0 -154 37 0 0 23c14,-18 31,-26 52,-26 9,0 17,1 24,4 8,4 14,8 17,13 4,5 7,11 8,17 2,6 3,16 3,27l0 96z"/>
   <path id="2" class="fil2" d="M2455 655l-63 -154 43 0 29 79 9 26c2,-7 3,-11 4,-13 1,-5 3,-9 4,-13l30 -79 42 0 -62 154 -36 0z"/>
   <path id="3" class="fil2" d="M2667 607l41 6c-5,15 -14,27 -25,35 -11,7 -25,11 -42,11 -27,0 -47,-8 -60,-26 -10,-14 -15,-32 -15,-53 0,-26 7,-46 20,-61 13,-14 30,-21 51,-21 23,0 41,7 54,22 13,16 20,39 19,70l-102 0c0,12 3,22 10,28 6,7 14,11 23,11 6,0 12,-2 16,-6 5,-3 8,-9 10,-16zm2 -42c0,-12 -3,-21 -9,-27 -6,-6 -13,-9 -21,-9 -9,0 -16,3 -22,10 -6,6 -9,15 -8,26l60 0z"/>
   <path id="4" class="fil2" d="M2884 655l-41 0 0 -78c0,-17 -1,-28 -3,-33 -1,-5 -4,-8 -8,-11 -4,-3 -9,-4 -14,-4 -8,0 -14,2 -20,6 -5,4 -9,9 -11,15 -2,6 -3,18 -3,36l0 69 -41 0 0 -154 38 0 0 23c13,-18 30,-26 51,-26 9,0 17,1 25,4 7,4 13,8 17,13 3,5 6,11 8,17 1,6 2,16 2,27l0 96z"/>
   <path id="5" class="fil2" d="M2996 501l0 32 -28 0 0 63c0,13 0,20 1,22 0,2 1,4 3,5 2,2 4,2 7,2 4,0 9,-1 17,-4l3 32c-9,4 -20,6 -32,6 -7,0 -14,-1 -20,-3 -6,-3 -10,-6 -13,-10 -3,-4 -5,-9 -6,-16 -1,-5 -1,-14 -1,-29l0 -68 -19 0 0 -32 19 0 0 -31 41 -24 0 55 28 0z"/>
   <path id="6" class="fil2" d="M3015 576c0,-13 3,-26 10,-39 7,-13 16,-23 28,-29 13,-7 26,-10 41,-10 24,0 43,7 58,22 15,16 22,35 22,58 0,23 -7,43 -22,58 -16,16 -34,23 -57,23 -14,0 -28,-3 -41,-9 -13,-7 -22,-16 -29,-29 -7,-12 -10,-27 -10,-45zm42 2c0,16 3,28 11,36 7,8 16,12 27,12 10,0 19,-4 26,-12 8,-8 11,-20 11,-36 0,-15 -3,-27 -11,-35 -7,-8 -16,-12 -26,-12 -11,0 -20,4 -27,12 -8,8 -11,20 -11,35z"/>
   <path id="7" class="fil2" d="M3245 655l-41 0 0 -154 38 0 0 22c7,-11 13,-17 18,-21 5,-3 11,-4 18,-4 9,0 18,2 27,7l-13 36c-7,-5 -13,-7 -19,-7 -6,0 -11,2 -15,5 -4,3 -7,9 -9,17 -3,8 -4,26 -4,52l0 47z"/>
   <path id="8" class="fil2" d="M3302 501l44 0 37 110 36 -110 43 0 -55 149 -10 26c-3,9 -7,16 -10,21 -3,5 -7,9 -11,12 -5,3 -10,5 -16,6 -6,2 -13,3 -21,3 -8,0 -16,-1 -23,-3l-4 -31c7,1 13,1 18,1 9,0 16,-2 21,-8 4,-6 8,-13 10,-21l-59 -155z"/>
   <path class="fil2" d="M2441 1464l0 -170 59 0c13,0 23,0 30,2 10,2 18,6 25,12 9,8 16,18 20,29 5,12 7,26 7,41 0,13 -2,24 -5,34 -3,10 -6,19 -11,25 -5,7 -10,12 -16,16 -5,3 -12,6 -20,8 -8,2 -17,3 -27,3l-62 0zm23 -20l36 0c11,0 20,-1 26,-3 7,-2 12,-5 16,-9 5,-5 9,-12 12,-21 3,-10 5,-20 5,-33 0,-18 -3,-32 -9,-42 -6,-9 -13,-16 -21,-19 -6,-2 -16,-3 -30,-3l-35 0 0 130z"/>
   <path id="1" class="fil2" d="M2691 1449c-8,6 -15,11 -22,14 -8,2 -15,4 -23,4 -14,0 -25,-4 -32,-10 -7,-7 -11,-15 -11,-25 0,-7 2,-12 4,-17 3,-5 7,-9 11,-12 5,-3 10,-5 15,-7 4,-1 11,-2 19,-3 17,-2 29,-4 37,-7 0,-3 0,-5 0,-6 0,-8 -2,-14 -5,-18 -6,-4 -14,-7 -24,-7 -10,0 -18,2 -22,5 -5,4 -8,10 -11,19l-20 -3c2,-9 5,-16 9,-21 4,-6 10,-10 19,-13 8,-3 17,-4 28,-4 10,0 19,1 26,4 6,2 11,5 14,9 3,4 5,9 7,14 0,4 1,10 1,20l0 27c0,20 0,32 1,37 1,5 3,10 5,15l-22 0c-2,-4 -3,-9 -4,-15zm-2 -47c-7,3 -19,6 -34,8 -8,1 -15,3 -18,4 -4,2 -7,4 -8,7 -2,3 -3,6 -3,10 0,5 2,10 6,14 4,3 10,5 19,5 8,0 15,-1 21,-5 6,-3 11,-8 14,-14 2,-5 3,-12 3,-21l0 -8z"/>
   <path id="2" class="fil2" d="M2788 1445l3 19c-6,1 -11,2 -16,2 -7,0 -13,-1 -17,-4 -4,-2 -7,-5 -9,-9 -2,-4 -3,-12 -3,-25l0 -71 -15 0 0 -16 15 0 0 -31 21 -13 0 44 21 0 0 16 -21 0 0 72c0,6 1,10 2,12 0,1 1,3 3,4 2,1 4,1 7,1 3,0 6,0 9,-1z"/>
   <path id="3" class="fil2" d="M2890 1449c-8,6 -15,11 -23,14 -7,2 -15,4 -23,4 -13,0 -24,-4 -31,-10 -7,-7 -11,-15 -11,-25 0,-7 1,-12 4,-17 3,-5 6,-9 11,-12 4,-3 9,-5 15,-7 4,-1 10,-2 19,-3 17,-2 29,-4 37,-7 0,-3 0,-5 0,-6 0,-8 -2,-14 -6,-18 -5,-4 -13,-7 -24,-7 -10,0 -17,2 -22,5 -4,4 -8,10 -10,19l-21 -3c2,-9 5,-16 10,-21 4,-6 10,-10 18,-13 8,-3 18,-4 28,-4 11,0 20,1 26,4 7,2 12,5 15,9 3,4 5,9 6,14 1,4 1,10 1,20l0 27c0,20 1,32 2,37 0,5 2,10 5,15l-22 0c-2,-4 -4,-9 -4,-15zm-2 -47c-7,3 -19,6 -34,8 -9,1 -15,3 -19,4 -3,2 -6,4 -8,7 -2,3 -3,6 -3,10 0,5 2,10 7,14 4,3 10,5 18,5 8,0 15,-1 22,-5 6,-3 11,-8 14,-14 2,-5 3,-12 3,-21l0 -8z"/>
   <path id="4" class="fil2" d="M3030 1464l-37 -123 21 0 20 71 7 26c0,-1 3,-9 7,-25l19 -72 22 0 18 71 6 24 7 -24 22 -71 20 0 -39 123 -21 0 -20 -74 -5 -21 -25 95 -22 0z"/>
   <path id="5" class="fil2" d="M3180 1317l0 -23 21 0 0 23 -21 0zm0 147l0 -123 21 0 0 123 -21 0z"/>
   <path id="6" class="fil2" d="M3224 1427l21 -3c1,8 4,15 10,19 5,4 13,7 22,7 10,0 17,-2 22,-6 4,-4 7,-9 7,-14 0,-5 -3,-8 -7,-11 -3,-2 -10,-4 -21,-7 -15,-4 -26,-7 -32,-10 -6,-3 -10,-7 -13,-12 -4,-5 -5,-11 -5,-17 0,-5 1,-10 4,-15 2,-5 6,-8 10,-12 3,-2 8,-4 13,-6 6,-1 12,-2 18,-2 10,0 18,1 26,4 7,3 13,7 16,11 3,5 6,12 7,20l-20 3c-1,-7 -4,-12 -8,-16 -5,-3 -11,-5 -19,-5 -10,0 -17,2 -21,5 -4,3 -6,7 -6,11 0,3 1,5 3,7 1,3 4,4 8,6 2,1 8,2 18,5 15,4 25,7 31,10 6,2 11,6 14,11 3,5 5,11 5,18 0,7 -2,13 -6,19 -4,7 -10,11 -18,15 -7,3 -16,5 -26,5 -16,0 -28,-4 -37,-10 -8,-7 -13,-17 -16,-30z"/>
   <path id="7" class="fil2" d="M3436 1424l22 3c-4,13 -10,22 -19,29 -9,7 -21,11 -35,11 -18,0 -33,-6 -43,-17 -11,-11 -16,-27 -16,-47 0,-20 5,-36 16,-48 11,-11 24,-17 41,-17 17,0 30,6 41,17 10,11 15,27 15,47 0,1 0,3 0,6l-92 0c1,13 5,24 12,31 7,7 15,11 26,11 7,0 14,-2 19,-6 6,-5 10,-11 13,-20zm-69 -33l69 0c-1,-11 -3,-19 -8,-24 -6,-8 -15,-12 -25,-12 -10,0 -18,3 -25,10 -6,6 -10,15 -11,26z"/>
   <path id="8" class="fil2" d="M3542 1427l21 -3c1,8 4,15 10,19 5,4 12,7 22,7 10,0 17,-2 21,-6 5,-4 7,-9 7,-14 0,-5 -2,-8 -6,-11 -3,-2 -10,-4 -21,-7 -16,-4 -26,-7 -32,-10 -6,-3 -11,-7 -14,-12 -3,-5 -4,-11 -4,-17 0,-5 1,-10 3,-15 3,-5 6,-8 11,-12 3,-2 7,-4 13,-6 6,-1 12,-2 18,-2 10,0 18,1 26,4 7,3 12,7 16,11 3,5 6,12 7,20l-20 3c-1,-7 -4,-12 -9,-16 -4,-3 -10,-5 -18,-5 -10,0 -17,2 -21,5 -4,3 -6,7 -6,11 0,3 1,5 2,7 2,3 5,4 8,6 3,1 9,2 19,5 15,4 25,7 31,10 6,2 10,6 14,11 3,5 5,11 5,18 0,7 -2,13 -6,19 -4,7 -10,11 -18,15 -8,3 -16,5 -26,5 -16,0 -28,-4 -37,-10 -8,-7 -14,-17 -16,-30z"/>
   <polygon id="9" class="fil2" points="2445,1996 2445,1826 2467,1826 2467,1996 "/>
   <path id="10" class="fil2" d="M2550 1978l3 18c-6,1 -11,2 -16,2 -7,0 -13,-1 -18,-4 -4,-2 -7,-5 -8,-9 -2,-4 -3,-12 -3,-25l0 -71 -15 0 0 -16 15 0 0 -31 21 -12 0 43 21 0 0 16 -21 0 0 72c0,6 0,10 1,12 1,2 2,3 4,4 1,1 4,2 7,2 2,0 5,-1 9,-1z"/>
   <path id="11" class="fil2" d="M2655 1956l22 3c-4,13 -10,23 -19,30 -9,7 -21,10 -35,10 -19,0 -33,-6 -43,-17 -11,-11 -16,-26 -16,-46 0,-21 5,-37 16,-49 10,-11 24,-17 41,-17 17,0 30,6 41,17 10,11 15,27 15,47 0,2 0,3 0,6l-92 0c1,13 5,24 12,31 7,7 15,11 26,11 7,0 14,-2 19,-6 6,-4 10,-11 13,-20zm-69 -33l69 0c-1,-11 -3,-18 -8,-24 -6,-8 -15,-12 -26,-12 -9,0 -17,3 -24,10 -6,6 -10,15 -11,26z"/>
   <path id="12" class="fil2" d="M2703 1996l0 -123 19 0 0 17c4,-6 9,-11 15,-14 7,-4 14,-6 22,-6 10,0 17,2 23,6 6,4 10,9 12,16 10,-15 23,-22 39,-22 12,0 21,4 28,10 7,7 10,18 10,32l0 84 -21 0 0 -77c0,-9 -1,-15 -2,-18 -1,-4 -4,-7 -8,-9 -3,-3 -7,-4 -12,-4 -9,0 -16,3 -22,9 -6,6 -8,15 -8,28l0 71 -21 0 0 -80c0,-9 -2,-16 -6,-21 -3,-4 -9,-7 -16,-7 -6,0 -12,2 -17,5 -5,3 -8,8 -11,14 -2,5 -3,14 -3,25l0 64 -21 0z"/>
   <path id="13" class="fil2" d="M3000 1996l-45 -170 23 0 26 112c3,11 5,23 7,35 5,-19 7,-29 8,-32l32 -115 28 0 24 86c6,22 10,42 13,61 3,-11 6,-24 9,-38l27 -109 22 0 -46 170 -22 0 -36 -130c-3,-10 -5,-17 -6,-20 -2,8 -3,15 -5,20l-36 130 -23 0z"/>
   <path id="14" class="fil2" d="M3193 1850l0 -24 21 0 0 24 -21 0zm0 146l0 -123 21 0 0 123 -21 0z"/>
   <path id="15" class="fil2" d="M3237 1959l21 -3c1,8 4,15 10,19 5,5 12,7 22,7 10,0 17,-2 21,-6 5,-4 7,-9 7,-14 0,-5 -2,-8 -6,-11 -3,-2 -10,-4 -21,-7 -16,-4 -26,-7 -32,-10 -6,-3 -11,-7 -14,-12 -3,-5 -4,-10 -4,-16 0,-6 1,-11 4,-16 2,-4 6,-8 10,-11 3,-3 8,-5 13,-6 6,-2 12,-3 18,-3 10,0 18,2 26,4 7,3 12,7 16,12 3,4 6,11 7,19l-20 3c-1,-7 -4,-12 -8,-15 -5,-4 -11,-6 -19,-6 -10,0 -17,2 -21,5 -4,3 -6,7 -6,11 0,3 1,5 3,8 1,2 4,4 8,5 2,1 8,3 18,5 15,4 25,8 31,10 6,3 11,6 14,11 3,5 5,11 5,18 0,7 -2,14 -6,20 -4,6 -10,11 -18,14 -8,3 -16,5 -26,5 -16,0 -28,-3 -37,-10 -8,-7 -13,-16 -16,-30z"/>
   <path id="16" class="fil2" d="M3449 1956l22 3c-4,13 -10,23 -19,30 -9,7 -21,10 -36,10 -18,0 -32,-6 -42,-17 -11,-11 -16,-26 -16,-46 0,-21 5,-37 16,-49 10,-11 24,-17 41,-17 17,0 30,6 41,17 10,11 15,27 15,47 0,2 0,3 0,6l-92 0c1,13 5,24 12,31 7,7 15,11 25,11 8,0 15,-2 20,-6 6,-4 10,-11 13,-20zm-69 -33l69 0c-1,-11 -3,-18 -8,-24 -6,-8 -15,-12 -26,-12 -9,0 -17,3 -24,10 -6,6 -10,15 -11,26z"/>
   <path id="17" class="fil2" d="M3555 1959l21 -3c1,8 4,15 9,19 6,5 13,7 23,7 9,0 17,-2 21,-6 5,-4 7,-9 7,-14 0,-5 -2,-8 -6,-11 -3,-2 -10,-4 -21,-7 -16,-4 -26,-7 -32,-10 -6,-3 -11,-7 -14,-12 -3,-5 -4,-10 -4,-16 0,-6 1,-11 3,-16 3,-4 6,-8 11,-11 3,-3 7,-5 13,-6 6,-2 12,-3 18,-3 10,0 18,2 25,4 8,3 13,7 17,12 3,4 6,11 7,19l-21 3c0,-7 -3,-12 -8,-15 -4,-4 -10,-6 -18,-6 -10,0 -17,2 -21,5 -4,3 -6,7 -6,11 0,3 1,5 2,8 2,2 5,4 8,5 2,1 9,3 19,5 15,4 25,8 31,10 6,3 10,6 14,11 3,5 5,11 5,18 0,7 -2,14 -6,20 -5,6 -10,11 -18,14 -8,3 -16,5 -26,5 -16,0 -28,-3 -37,-10 -8,-7 -14,-16 -16,-30z"/>
   <path id="18" class="fil2" d="M2434 2474l21 -2c1,9 3,16 7,21 4,6 9,10 17,13 8,4 16,5 26,5 9,0 16,-1 23,-3 7,-3 11,-6 15,-11 3,-4 4,-9 4,-15 0,-5 -1,-10 -4,-14 -3,-4 -8,-7 -16,-10 -4,-1 -14,-4 -30,-8 -16,-4 -27,-7 -33,-11 -8,-4 -14,-9 -18,-15 -4,-7 -6,-14 -6,-22 0,-8 2,-16 7,-24 5,-7 12,-13 22,-17 9,-4 20,-6 31,-6 13,0 24,2 33,6 10,4 18,10 23,18 5,8 8,17 8,27l-22 2c-1,-11 -5,-19 -11,-25 -7,-5 -17,-8 -30,-8 -14,0 -24,3 -30,8 -6,5 -9,11 -9,18 0,6 2,11 6,15 5,4 16,8 34,12 19,4 31,8 38,11 10,5 17,10 22,17 5,7 7,15 7,25 0,9 -2,17 -8,25 -5,8 -12,14 -22,19 -10,4 -21,6 -33,6 -15,0 -28,-2 -39,-6 -10,-5 -18,-12 -24,-21 -6,-9 -9,-19 -9,-30z"/>
   <path id="19" class="fil2" d="M2678 2513c-8,7 -15,11 -22,14 -8,3 -15,4 -24,4 -13,0 -24,-3 -31,-10 -7,-6 -11,-15 -11,-25 0,-6 1,-12 4,-17 3,-5 7,-9 11,-12 5,-3 10,-5 15,-6 4,-1 10,-3 19,-4 17,-2 29,-4 37,-7 0,-3 0,-4 0,-5 0,-9 -2,-15 -6,-18 -5,-5 -13,-7 -24,-7 -9,0 -17,2 -21,5 -5,3 -9,10 -11,18l-20 -3c2,-8 5,-15 9,-21 4,-5 10,-9 18,-12 9,-3 18,-5 29,-5 10,0 19,2 25,4 7,3 12,6 15,9 3,4 5,9 6,15 1,3 2,10 2,19l0 28c0,19 0,31 1,37 1,5 2,10 5,15l-22 0c-2,-5 -3,-10 -4,-16zm-2 -46c-7,3 -19,5 -34,8 -9,1 -15,2 -18,4 -4,1 -7,4 -9,6 -2,3 -3,7 -3,10 0,6 3,11 7,14 4,4 10,6 18,6 8,0 16,-2 22,-5 6,-4 11,-9 14,-15 2,-5 3,-12 3,-21l0 -7z"/>
   <polygon id="20" class="fil2" points="2729,2529 2729,2358 2750,2358 2750,2529 "/>
   <path id="21" class="fil2" d="M2867 2489l22 2c-4,13 -10,23 -19,30 -9,7 -21,10 -36,10 -18,0 -32,-5 -42,-16 -11,-12 -16,-27 -16,-47 0,-21 5,-37 16,-48 10,-12 24,-18 41,-18 17,0 30,6 41,17 10,11 15,27 15,48 0,1 0,3 0,5l-92 0c1,14 5,24 12,31 7,7 15,11 25,11 8,0 15,-2 20,-6 6,-4 10,-11 13,-19zm-69 -34l69 0c-1,-10 -3,-18 -8,-23 -6,-8 -15,-12 -26,-12 -9,0 -17,3 -24,9 -6,7 -10,15 -11,26z"/>
   <path id="22" class="fil2" d="M2907 2492l21 -4c1,9 4,15 9,19 6,5 13,7 23,7 9,0 16,-2 21,-6 5,-4 7,-8 7,-14 0,-4 -2,-8 -6,-11 -3,-2 -10,-4 -22,-7 -15,-4 -26,-7 -32,-10 -5,-3 -10,-7 -13,-12 -3,-5 -5,-10 -5,-16 0,-6 2,-11 4,-15 3,-5 6,-9 10,-12 4,-2 8,-4 14,-6 5,-2 11,-3 18,-3 9,0 18,2 25,5 8,2 13,6 17,11 3,5 5,11 7,19l-21 3c-1,-6 -3,-11 -8,-15 -4,-4 -11,-5 -19,-5 -9,0 -16,1 -20,4 -4,3 -6,7 -6,11 0,3 0,6 2,8 2,2 5,4 8,5 2,1 8,3 19,6 14,4 25,7 31,9 5,3 10,7 13,11 4,5 5,11 5,18 0,7 -2,14 -6,20 -4,6 -10,11 -17,14 -8,4 -17,5 -26,5 -16,0 -29,-3 -37,-10 -9,-6 -14,-16 -16,-29z"/>
   <path id="23" class="fil2" d="M2440 3061l0 -171 34 0 41 121c3,11 6,20 8,25 2,-6 5,-15 9,-27l41 -119 30 0 0 171 -21 0 0 -143 -50 143 -21 0 -49 -145 0 145 -22 0z"/>
   <path id="24" class="fil2" d="M2718 3045c-8,7 -16,12 -23,14 -7,3 -15,4 -23,4 -14,0 -24,-3 -31,-9 -8,-7 -11,-15 -11,-26 0,-6 1,-11 4,-16 3,-5 6,-9 11,-12 4,-3 9,-6 15,-7 4,-1 10,-2 18,-3 17,-2 30,-5 38,-8 0,-2 0,-4 0,-5 0,-8 -2,-14 -6,-18 -5,-5 -13,-7 -24,-7 -10,0 -17,2 -22,5 -5,4 -8,10 -10,19l-21 -3c2,-9 5,-16 9,-22 5,-5 11,-9 19,-12 8,-3 17,-4 28,-4 11,0 19,1 26,3 6,3 11,6 14,10 4,3 6,8 7,14 1,4 1,10 1,19l0 28c0,19 1,32 1,37 1,5 3,10 5,15l-21 0c-3,-5 -4,-10 -4,-16zm-2 -46c-8,3 -19,6 -34,8 -9,1 -15,2 -19,4 -3,1 -6,4 -8,7 -2,3 -3,6 -3,10 0,5 2,10 6,13 5,4 11,6 19,6 8,0 15,-2 22,-5 6,-4 10,-9 13,-15 3,-4 4,-11 4,-20l0 -8z"/>
   <path id="25" class="fil2" d="M2769 3061l0 -124 19 0 0 18c9,-14 22,-20 39,-20 8,0 15,1 21,4 6,2 11,6 14,10 3,4 5,10 6,16 1,3 2,10 2,20l0 76 -21 0 0 -75c0,-9 -1,-15 -3,-19 -1,-5 -4,-8 -8,-11 -5,-2 -9,-3 -15,-3 -9,0 -17,3 -23,8 -7,6 -10,17 -10,32l0 68 -21 0z"/>
   <path id="26" class="fil2" d="M2983 3061l0 -19c-10,14 -23,21 -40,21 -7,0 -14,-1 -20,-4 -6,-3 -11,-6 -14,-10 -3,-4 -5,-10 -6,-16 -1,-4 -2,-10 -2,-19l0 -77 21 0 0 69c0,11 1,18 2,22 1,5 4,10 8,13 4,3 9,4 16,4 6,0 12,-1 17,-4 6,-4 10,-8 12,-14 2,-5 3,-13 3,-24l0 -66 21 0 0 124 -18 0z"/>
   <path id="27" class="fil2" d="M3039 3061l0 -108 -18 0 0 -16 18 0 0 -13c0,-8 1,-14 2,-18 2,-6 6,-10 11,-14 5,-3 12,-5 21,-5 6,0 13,1 20,3l-3 18c-5,-1 -9,-1 -13,-1 -6,0 -10,1 -13,4 -3,2 -4,8 -4,15l0 11 24 0 0 16 -24 0 0 108 -21 0z"/>
   <path id="28" class="fil2" d="M3181 3045c-8,7 -15,12 -22,14 -7,3 -15,4 -23,4 -14,0 -24,-3 -32,-9 -7,-7 -11,-15 -11,-26 0,-6 2,-11 4,-16 3,-5 7,-9 11,-12 5,-3 10,-6 15,-7 4,-1 11,-2 19,-3 17,-2 29,-5 37,-8 0,-2 0,-4 0,-5 0,-8 -1,-14 -5,-18 -6,-5 -14,-7 -24,-7 -10,0 -18,2 -22,5 -5,4 -8,10 -11,19l-20 -3c2,-9 5,-16 9,-22 4,-5 11,-9 19,-12 8,-3 17,-4 28,-4 10,0 19,1 26,3 6,3 11,6 14,10 3,3 5,8 7,14 0,4 1,10 1,19l0 28c0,19 0,32 1,37 1,5 3,10 5,15l-22 0c-2,-5 -3,-10 -4,-16zm-2 -46c-7,3 -19,6 -34,8 -8,1 -15,2 -18,4 -4,1 -6,4 -8,7 -2,3 -3,6 -3,10 0,5 2,10 6,13 4,4 10,6 19,6 8,0 15,-2 21,-5 6,-4 11,-9 14,-15 2,-4 3,-11 3,-20l0 -8z"/>
   <path id="29" class="fil2" d="M3314 3016l20 2c-2,15 -8,26 -17,34 -9,8 -21,11 -34,11 -17,0 -31,-5 -41,-16 -10,-11 -15,-27 -15,-47 0,-14 2,-25 6,-35 5,-10 11,-18 21,-23 9,-5 18,-7 29,-7 13,0 24,3 33,10 8,7 14,16 16,29l-20 3c-2,-9 -5,-15 -10,-19 -5,-4 -11,-6 -18,-6 -11,0 -19,4 -26,11 -7,8 -10,20 -10,36 0,17 3,29 10,36 6,8 14,11 25,11 8,0 15,-2 20,-7 6,-5 9,-13 11,-23z"/>
   <path id="30" class="fil2" d="M3398 3042l2 19c-6,1 -11,2 -15,2 -8,0 -14,-2 -18,-4 -4,-3 -7,-6 -9,-10 -2,-4 -2,-12 -2,-24l0 -72 -16 0 0 -16 16 0 0 -30 21 -13 0 43 21 0 0 16 -21 0 0 73c0,6 0,10 1,11 0,2 2,3 3,4 2,1 4,2 7,2 3,0 6,0 10,-1z"/>
   <path id="31" class="fil2" d="M3499 3061l0 -19c-10,14 -23,21 -39,21 -7,0 -14,-1 -21,-4 -6,-3 -11,-6 -14,-10 -3,-4 -5,-10 -6,-16 -1,-4 -1,-10 -1,-19l0 -77 21 0 0 69c0,11 0,18 1,22 1,5 4,10 8,13 5,3 10,4 16,4 6,0 12,-1 18,-4 5,-4 9,-8 11,-14 3,-5 4,-13 4,-24l0 -66 21 0 0 124 -19 0z"/>
   <path id="32" class="fil2" d="M3550 3061l0 -124 19 0 0 19c5,-9 10,-14 14,-17 4,-3 8,-4 13,-4 7,0 14,2 22,6l-8 20c-5,-3 -10,-5 -15,-5 -5,0 -9,2 -12,4 -4,3 -7,7 -8,12 -2,7 -4,15 -4,24l0 65 -21 0z"/>
   <path id="33" class="fil2" d="M3714 3021l22 3c-3,12 -10,22 -19,29 -9,7 -21,10 -35,10 -18,0 -33,-5 -43,-16 -11,-11 -16,-27 -16,-47 0,-21 5,-37 16,-48 11,-12 25,-17 42,-17 16,0 30,5 40,16 10,12 16,27 16,48 0,1 0,3 0,5l-92 0c0,14 4,24 11,32 7,7 16,10 26,10 7,0 14,-2 19,-6 6,-4 10,-10 13,-19zm-68 -34l69 0c-1,-10 -4,-18 -8,-23 -7,-8 -16,-12 -26,-12 -10,0 -18,3 -24,9 -7,7 -11,15 -11,26z"/>
   <path id="34" class="fil2" d="M3762 3061l0 -124 19 0 0 19c5,-9 9,-14 13,-17 4,-3 9,-4 14,-4 7,0 14,2 21,6l-7 20c-5,-3 -10,-5 -15,-5 -5,0 -9,2 -13,4 -3,3 -6,7 -7,12 -3,7 -4,15 -4,24l0 65 -21 0z"/>
   <polygon id="35" class="fil2" points="2445,3593 2445,3423 2467,3423 2467,3593 "/>
   <path id="36" class="fil2" d="M2505 3593l0 -124 18 0 0 18c9,-13 23,-20 40,-20 7,0 14,1 20,4 6,3 11,6 14,10 3,5 5,10 7,16 0,4 1,10 1,20l0 76 -21 0 0 -75c0,-9 -1,-15 -3,-19 -1,-4 -4,-8 -8,-10 -4,-3 -9,-4 -15,-4 -9,0 -16,3 -23,8 -6,6 -10,17 -10,33l0 67 -20 0z"/>
   <polygon id="37" class="fil2" points="2621,3596 2671,3420 2688,3420 2638,3596 "/>
   <path id="38" class="fil2" d="M2699 3510c0,-28 8,-50 23,-66 15,-16 35,-24 59,-24 15,0 30,3 42,11 13,7 22,18 29,31 7,14 10,29 10,46 0,17 -3,33 -10,46 -7,14 -17,24 -30,31 -13,7 -27,11 -42,11 -16,0 -30,-4 -43,-12 -12,-7 -22,-18 -28,-31 -7,-14 -10,-28 -10,-43zm23 0c0,21 6,37 17,49 11,12 25,18 41,18 17,0 31,-6 42,-18 11,-12 17,-29 17,-51 0,-14 -3,-26 -7,-36 -5,-11 -12,-19 -21,-24 -9,-6 -19,-9 -30,-9 -16,0 -30,6 -41,17 -12,11 -18,29 -18,54z"/>
   <path id="39" class="fil2" d="M2969 3593l0 -18c-9,14 -22,21 -39,21 -7,0 -14,-2 -20,-4 -7,-3 -11,-7 -14,-11 -3,-4 -5,-9 -7,-16 -1,-4 -1,-10 -1,-19l0 -77 21 0 0 69c0,11 0,18 1,22 2,5 4,10 9,13 4,3 9,5 15,5 7,0 13,-2 18,-5 5,-3 9,-8 12,-13 2,-6 3,-14 3,-24l0 -67 21 0 0 124 -19 0z"/>
   <path id="40" class="fil2" d="M3066 3574l3 19c-6,1 -11,2 -15,2 -8,0 -14,-1 -18,-4 -4,-2 -7,-5 -9,-9 -2,-4 -2,-13 -2,-25l0 -71 -16 0 0 -17 16 0 0 -30 21 -13 0 43 20 0 0 17 -20 0 0 72c0,6 0,10 1,12 0,1 2,3 3,4 2,1 4,1 7,1 3,0 6,0 9,-1z"/>
   <polygon id="41" class="fil2" points="3160,3593 3160,3423 3182,3423 3182,3593 "/>
   <path id="42" class="fil2" d="M3220 3593l0 -124 18 0 0 18c9,-13 22,-20 40,-20 7,0 14,1 20,4 6,3 11,6 14,10 3,5 5,10 7,16 0,4 1,10 1,20l0 76 -21 0 0 -75c0,-9 -1,-15 -3,-19 -1,-4 -4,-8 -8,-10 -4,-3 -9,-4 -15,-4 -9,0 -16,3 -23,8 -6,6 -10,17 -10,33l0 67 -20 0z"/>
   <path id="43" class="fil2" d="M3386 3593l-47 -124 23 0 26 75c3,7 6,16 8,24 2,-6 4,-14 8,-23l27 -76 22 0 -47 124 -20 0z"/>
   <path id="44" class="fil2" d="M3555 3553l22 3c-3,13 -10,22 -19,29 -9,7 -21,11 -35,11 -18,0 -32,-6 -43,-17 -11,-11 -16,-27 -16,-47 0,-20 6,-37 16,-48 11,-11 25,-17 42,-17 16,0 30,5 40,17 11,11 16,27 16,47 0,1 0,3 0,6l-92 0c0,13 4,24 11,31 7,7 16,11 26,11 8,0 14,-2 20,-7 5,-4 9,-10 12,-19zm-68 -34l69 0c-1,-10 -4,-18 -8,-23 -7,-8 -16,-12 -26,-12 -10,0 -18,3 -24,10 -7,6 -10,15 -11,25z"/>
   <path id="45" class="fil2" d="M3595 3556l21 -3c1,8 4,14 10,19 5,4 12,7 22,7 10,0 17,-2 22,-6 4,-4 6,-9 6,-14 0,-5 -2,-9 -6,-11 -3,-2 -10,-4 -21,-7 -16,-4 -26,-8 -32,-10 -6,-3 -11,-7 -14,-12 -3,-5 -4,-11 -4,-17 0,-5 1,-10 4,-15 2,-5 6,-8 10,-12 3,-2 8,-4 13,-6 6,-1 12,-2 18,-2 10,0 18,1 26,4 7,3 12,7 16,11 3,5 6,12 7,20l-20 2c-1,-6 -4,-11 -8,-15 -5,-3 -11,-5 -19,-5 -10,0 -17,2 -21,5 -4,3 -6,7 -6,11 0,3 1,5 3,7 1,2 4,4 8,6 2,1 8,2 18,5 15,4 25,7 31,10 6,2 11,6 14,11 3,5 5,11 5,18 0,7 -2,13 -6,19 -4,7 -10,11 -18,15 -8,3 -16,5 -26,5 -16,0 -28,-4 -37,-10 -8,-7 -13,-17 -16,-30z"/>
   <path id="46" class="fil2" d="M3768 3574l3 19c-6,1 -11,2 -16,2 -7,0 -13,-1 -17,-4 -5,-2 -7,-5 -9,-9 -2,-4 -3,-13 -3,-25l0 -71 -15 0 0 -17 15 0 0 -30 21 -13 0 43 21 0 0 17 -21 0 0 72c0,6 1,10 1,12 1,1 2,3 4,4 2,1 4,1 7,1 2,0 5,0 9,-1z"/>
   <path id="47" class="fil2" d="M3789 3593l0 -124 19 0 0 18c4,-6 9,-11 15,-15 7,-3 14,-5 22,-5 9,0 17,2 23,6 5,3 10,9 12,15 10,-14 23,-21 38,-21 13,0 22,3 29,10 6,7 10,17 10,31l0 85 -21 0 0 -78c0,-8 -1,-14 -2,-18 -2,-3 -4,-6 -8,-9 -3,-2 -8,-3 -12,-3 -9,0 -16,3 -22,9 -6,5 -9,15 -9,27l0 72 -21 0 0 -80c0,-9 -1,-16 -5,-21 -3,-5 -9,-7 -17,-7 -5,0 -11,1 -16,5 -5,3 -9,7 -11,13 -2,6 -3,15 -3,26l0 64 -21 0z"/>
   <path id="48" class="fil2" d="M4072 3553l21 3c-3,13 -9,22 -19,29 -9,7 -21,11 -35,11 -18,0 -32,-6 -43,-17 -10,-11 -16,-27 -16,-47 0,-20 6,-37 16,-48 11,-11 25,-17 42,-17 16,0 30,5 40,17 11,11 16,27 16,47 0,1 0,3 0,6l-92 0c1,13 4,24 11,31 7,7 16,11 26,11 8,0 14,-2 20,-7 5,-4 9,-10 13,-19zm-69 -34l69 0c-1,-10 -4,-18 -8,-23 -7,-8 -15,-12 -26,-12 -10,0 -18,3 -24,10 -7,6 -10,15 -11,25z"/>
   <path id="49" class="fil2" d="M4120 3593l0 -124 19 0 0 18c9,-13 22,-20 39,-20 7,0 14,1 20,4 7,3 11,6 14,10 4,5 6,10 7,16 1,4 1,10 1,20l0 76 -21 0 0 -75c0,-9 -1,-15 -2,-19 -2,-4 -5,-8 -9,-10 -4,-3 -9,-4 -15,-4 -8,0 -16,3 -23,8 -6,6 -9,17 -9,33l0 67 -21 0z"/>
   <path id="50" class="fil2" d="M4298 3574l3 19c-6,1 -12,2 -16,2 -8,0 -14,-1 -18,-4 -4,-2 -7,-5 -9,-9 -1,-4 -2,-13 -2,-25l0 -71 -16 0 0 -17 16 0 0 -30 21 -13 0 43 21 0 0 17 -21 0 0 72c0,6 0,10 1,12 1,1 2,3 4,4 1,1 4,1 7,1 2,0 5,0 9,-1z"/>
   <g>
    <rect class="fil0" x="3641" y="655" width="3362" height="4661"/>
    <rect class="fil1" x="3741" y="759" width="3161" height="4457"/>
   </g>
   <path class="fil2" d="M4317 2304l0 -170 75 0c16,0 27,1 35,4 8,3 14,9 19,17 5,7 7,16 7,25 0,12 -4,23 -12,31 -7,8 -20,13 -36,16 6,3 11,5 14,8 6,6 13,14 18,23l30 46 -28 0 -23 -35c-6,-10 -12,-18 -16,-24 -4,-5 -8,-9 -12,-11 -3,-2 -6,-4 -10,-5 -2,0 -7,0 -12,0l-27 0 0 75 -22 0zm22 -95l49 0c10,0 18,-1 24,-3 6,-2 10,-6 13,-10 3,-5 5,-10 5,-16 0,-8 -3,-14 -9,-20 -6,-5 -15,-7 -28,-7l-54 0 0 56z"/>
   <path id="1" class="fil2" d="M4570 2264l22 3c-4,13 -10,23 -19,30 -9,6 -21,10 -35,10 -18,0 -33,-6 -43,-17 -11,-11 -16,-26 -16,-46 0,-21 5,-37 16,-49 11,-11 24,-17 41,-17 17,0 30,6 41,17 10,11 15,27 15,47 0,2 0,3 0,6l-92 0c1,13 5,24 12,31 7,7 15,11 26,11 7,0 14,-2 19,-6 6,-4 10,-11 13,-20zm-69 -33l69 0c-1,-11 -3,-18 -8,-24 -6,-8 -15,-12 -25,-12 -10,0 -18,3 -25,10 -6,6 -10,15 -11,26z"/>
   <path id="2" class="fil2" d="M4699 2259l20 3c-2,14 -7,25 -17,33 -9,8 -20,12 -34,12 -17,0 -30,-6 -41,-17 -10,-11 -15,-26 -15,-47 0,-13 2,-25 7,-35 4,-10 11,-17 20,-22 9,-5 19,-8 29,-8 14,0 25,3 33,10 9,7 14,17 17,29l-21 3c-2,-8 -5,-14 -10,-18 -5,-5 -11,-7 -18,-7 -10,0 -19,4 -26,12 -6,7 -10,19 -10,35 0,17 4,29 10,37 6,7 15,11 25,11 8,0 15,-3 21,-8 5,-5 9,-12 10,-23z"/>
   <path id="3" class="fil2" d="M4818 2304l0 -18c-9,14 -23,21 -39,21 -7,0 -14,-1 -20,-4 -7,-3 -11,-7 -14,-11 -3,-4 -6,-9 -7,-15 -1,-4 -1,-11 -1,-20l0 -76 21 0 0 68c0,11 0,18 1,22 1,6 4,10 8,13 5,3 10,5 16,5 7,0 12,-2 18,-5 5,-3 9,-8 12,-13 2,-6 3,-14 3,-24l0 -66 21 0 0 123 -19 0z"/>
   <path id="4" class="fil2" d="M4870 2304l0 -123 18 0 0 19c5,-9 10,-15 14,-18 4,-3 8,-4 13,-4 7,0 14,2 22,7l-8 19c-5,-3 -10,-4 -15,-4 -4,0 -9,1 -12,4 -4,3 -6,6 -8,11 -2,8 -3,16 -3,25l0 64 -21 0z"/>
   <path id="5" class="fil2" d="M4949 2304l0 -123 19 0 0 19c5,-9 9,-15 13,-18 4,-3 9,-4 14,-4 7,0 14,2 21,7l-7 19c-5,-3 -11,-4 -16,-4 -4,0 -8,1 -12,4 -3,3 -6,6 -8,11 -2,8 -3,16 -3,25l0 64 -21 0z"/>
   <path id="6" class="fil2" d="M5028 2158l0 -24 21 0 0 24 -21 0zm0 146l0 -123 21 0 0 123 -21 0z"/>
   <path id="7" class="fil2" d="M5081 2304l0 -123 19 0 0 17c9,-13 22,-20 39,-20 8,0 15,1 21,4 6,3 11,6 14,11 3,4 5,9 7,15 0,4 1,11 1,20l0 76 -21 0 0 -75c0,-8 -1,-15 -3,-19 -1,-4 -4,-7 -8,-10 -4,-3 -9,-4 -15,-4 -9,0 -16,3 -23,9 -6,5 -10,16 -10,32l0 67 -21 0z"/>
   <path id="8" class="fil2" d="M5210 2315l20 2c1,7 4,11 7,14 6,4 13,6 22,6 9,0 17,-2 22,-6 5,-4 9,-9 11,-16 1,-4 2,-13 1,-27 -9,11 -20,16 -34,16 -17,0 -30,-6 -39,-18 -10,-12 -14,-27 -14,-44 0,-12 2,-23 6,-33 4,-10 11,-17 19,-23 8,-5 17,-8 28,-8 15,0 27,6 36,18l0 -15 20 0 0 106c0,20 -2,33 -6,41 -4,8 -10,15 -19,19 -8,5 -19,7 -31,7 -15,0 -27,-3 -36,-10 -9,-6 -13,-16 -13,-29zm17 -75c0,17 3,28 10,36 6,7 14,11 24,11 10,0 18,-4 24,-11 7,-8 10,-19 10,-35 0,-15 -3,-26 -10,-34 -7,-8 -15,-12 -24,-12 -10,0 -17,4 -24,12 -7,7 -10,19 -10,33z"/>
   <polygon id="9" class="fil2" points="5419,2304 5419,2134 5442,2134 5442,2304 "/>
   <path id="10" class="fil2" d="M5479 2304l0 -123 19 0 0 17c9,-13 22,-20 39,-20 7,0 14,1 20,4 7,3 11,6 14,11 3,4 6,9 7,15 1,4 1,11 1,20l0 76 -21 0 0 -75c0,-8 -1,-15 -2,-19 -2,-4 -5,-7 -9,-10 -4,-3 -9,-4 -15,-4 -8,0 -16,3 -23,9 -6,5 -9,16 -9,32l0 67 -21 0z"/>
   <path id="11" class="fil2" d="M5645 2304l-47 -123 23 0 26 74c3,8 6,16 8,25 2,-7 5,-15 8,-24l27 -75 22 0 -47 123 -20 0z"/>
   <path id="12" class="fil2" d="M5722 2243c0,-23 7,-40 20,-51 10,-9 23,-14 38,-14 17,0 31,6 42,17 11,11 16,26 16,46 0,16 -2,28 -7,37 -5,9 -12,16 -21,21 -9,5 -19,8 -30,8 -17,0 -31,-6 -42,-17 -10,-11 -16,-27 -16,-47zm22 0c0,15 3,27 10,35 7,8 16,12 26,12 11,0 19,-4 26,-12 7,-8 11,-20 11,-36 0,-15 -4,-27 -11,-35 -7,-8 -15,-12 -26,-12 -10,0 -19,4 -26,12 -7,8 -10,20 -10,36z"/>
   <path id="13" class="fil2" d="M5863 2158l0 -24 21 0 0 24 -21 0zm0 146l0 -123 21 0 0 123 -21 0z"/>
   <path id="14" class="fil2" d="M5997 2259l20 3c-2,14 -8,25 -17,33 -9,8 -21,12 -34,12 -17,0 -31,-6 -41,-17 -10,-11 -15,-26 -15,-47 0,-13 2,-25 6,-35 5,-10 11,-17 20,-22 9,-5 19,-8 30,-8 13,0 24,3 33,10 8,7 14,17 16,29l-20 3c-2,-8 -6,-14 -10,-18 -5,-5 -11,-7 -18,-7 -11,0 -19,4 -26,12 -7,7 -10,19 -10,35 0,17 3,29 10,37 6,7 14,11 24,11 9,0 16,-3 21,-8 6,-5 9,-12 11,-23z"/>
   <path id="15" class="fil2" d="M6119 2264l22 3c-4,13 -10,23 -19,30 -9,6 -21,10 -35,10 -18,0 -33,-6 -43,-17 -11,-11 -16,-26 -16,-46 0,-21 5,-37 16,-49 11,-11 24,-17 42,-17 16,0 29,6 40,17 10,11 16,27 16,47 0,2 0,3 -1,6l-92 0c1,13 5,24 12,31 7,7 15,11 26,11 7,0 14,-2 19,-6 6,-4 10,-11 13,-20zm-68 -33l68 0c0,-11 -3,-18 -7,-24 -7,-8 -16,-12 -26,-12 -10,0 -18,3 -25,10 -6,6 -10,15 -10,26z"/>
   <polygon id="16" class="fil2" points="4320,2837 4320,2666 4343,2666 4343,2837 "/>
   <path id="17" class="fil2" d="M4380 2837l0 -124 19 0 0 17c9,-13 22,-20 39,-20 7,0 14,2 21,4 6,3 10,7 14,11 3,4 5,9 6,15 1,4 1,11 1,21l0 76 -21 0 0 -76c0,-8 -1,-14 -2,-19 -2,-4 -5,-7 -9,-10 -4,-2 -9,-4 -14,-4 -9,0 -17,3 -23,9 -7,6 -10,16 -10,32l0 68 -21 0z"/>
   <path id="18" class="fil2" d="M4546 2837l-46 -124 22 0 26 74c3,8 6,16 8,25 2,-7 5,-14 8,-24l28 -75 21 0 -47 124 -20 0z"/>
   <path id="19" class="fil2" d="M4624 2775c0,-23 6,-40 19,-51 10,-9 23,-14 39,-14 17,0 30,6 41,17 11,11 16,26 16,46 0,16 -2,28 -7,37 -4,10 -11,17 -21,22 -9,5 -19,7 -29,7 -18,0 -32,-5 -42,-16 -11,-11 -16,-27 -16,-48zm21 0c0,16 4,27 10,35 7,8 16,12 27,12 10,0 19,-4 26,-12 7,-8 10,-20 10,-36 0,-15 -4,-27 -10,-34 -7,-8 -16,-12 -26,-12 -11,0 -20,4 -27,11 -6,8 -10,20 -10,36z"/>
   <path id="20" class="fil2" d="M4764 2690l0 -24 21 0 0 24 -21 0zm0 147l0 -124 21 0 0 124 -21 0z"/>
   <path id="21" class="fil2" d="M4898 2791l20 3c-2,14 -8,25 -17,33 -9,8 -21,12 -34,12 -17,0 -31,-5 -41,-16 -10,-11 -15,-27 -15,-48 0,-13 2,-25 6,-35 5,-10 11,-17 21,-22 9,-5 18,-8 29,-8 13,0 24,4 33,10 8,7 14,17 16,29l-20 3c-2,-8 -5,-14 -10,-18 -5,-4 -11,-7 -18,-7 -11,0 -19,4 -26,12 -7,7 -10,19 -10,36 0,16 3,28 10,36 6,7 14,11 25,11 8,0 15,-2 20,-7 6,-5 9,-13 11,-24z"/>
   <path id="22" class="fil2" d="M5020 2797l22 2c-3,13 -10,23 -19,30 -9,7 -21,10 -35,10 -18,0 -32,-5 -43,-16 -11,-12 -16,-27 -16,-47 0,-21 5,-37 16,-48 11,-12 25,-18 42,-18 16,0 30,6 40,17 10,11 16,27 16,48 0,1 0,3 0,5l-92 0c0,14 4,24 11,31 7,7 16,11 26,11 7,0 14,-2 19,-6 6,-4 10,-11 13,-19zm-68 -34l69 0c-1,-10 -4,-18 -8,-23 -7,-8 -16,-13 -26,-13 -10,0 -18,4 -24,10 -7,7 -11,15 -11,26z"/>
   <path id="23" class="fil2" d="M5137 2837l0 -171 59 0c13,0 23,1 30,2 10,3 19,7 25,13 9,7 16,17 21,29 4,12 6,25 6,40 0,13 -1,25 -4,35 -3,10 -7,18 -12,25 -5,6 -10,11 -15,15 -6,4 -13,7 -21,9 -8,2 -17,3 -27,3l-62 0zm23 -20l36 0c12,0 20,-1 27,-4 6,-2 11,-5 15,-8 5,-6 10,-13 12,-22 3,-9 5,-20 5,-33 0,-18 -3,-32 -9,-41 -6,-10 -13,-16 -21,-19 -6,-3 -16,-4 -29,-4l-36 0 0 131z"/>
   <path id="24" class="fil2" d="M5387 2837l0 -19c-9,14 -22,21 -39,21 -7,0 -14,-1 -20,-4 -6,-3 -11,-6 -14,-10 -3,-5 -5,-10 -6,-16 -1,-4 -2,-11 -2,-20l0 -76 21 0 0 68c0,11 1,19 1,22 2,6 5,10 9,13 4,4 9,5 16,5 6,0 12,-1 17,-5 6,-3 10,-7 12,-13 2,-5 3,-13 3,-24l0 -66 21 0 0 124 -19 0z"/>
   <path id="25" class="fil2" d="M5524 2797l21 2c-3,13 -9,23 -19,30 -9,7 -21,10 -35,10 -18,0 -32,-5 -43,-16 -10,-12 -16,-27 -16,-47 0,-21 6,-37 16,-48 11,-12 25,-18 42,-18 16,0 30,6 40,17 11,11 16,27 16,48 0,1 0,3 0,5l-92 0c1,14 4,24 11,31 7,7 16,11 26,11 8,0 14,-2 20,-6 5,-4 9,-11 13,-19zm-69 -34l69 0c-1,-10 -4,-18 -8,-23 -7,-8 -15,-13 -26,-13 -10,0 -18,4 -24,10 -7,7 -10,15 -11,26z"/>
   <path id="26" class="fil2" d="M5640 2837l0 -171 59 0c14,0 24,1 31,2 9,3 18,7 25,13 9,7 15,17 20,29 4,12 7,25 7,40 0,13 -2,25 -5,35 -3,10 -7,18 -12,25 -4,6 -10,11 -15,15 -6,4 -13,7 -21,9 -8,2 -17,3 -27,3l-62 0zm23 -20l36 0c12,0 21,-1 27,-4 6,-2 11,-5 15,-8 6,-6 10,-13 13,-22 3,-9 4,-20 4,-33 0,-18 -3,-32 -9,-41 -5,-10 -13,-16 -21,-19 -6,-3 -16,-4 -29,-4l-36 0 0 131z"/>
   <path id="27" class="fil2" d="M5891 2821c-8,7 -16,11 -23,14 -7,3 -15,4 -23,4 -14,0 -24,-3 -31,-10 -8,-6 -11,-15 -11,-25 0,-6 1,-12 4,-17 3,-5 6,-9 11,-12 4,-3 9,-5 15,-6 4,-2 10,-3 18,-4 17,-2 30,-4 38,-7 0,-3 0,-4 0,-5 0,-9 -2,-15 -6,-18 -5,-5 -13,-7 -24,-7 -10,0 -17,1 -22,5 -4,3 -8,9 -10,18l-21 -3c2,-8 5,-15 10,-21 4,-5 10,-9 18,-12 8,-3 18,-5 28,-5 11,0 19,2 26,4 7,3 12,6 15,9 3,4 5,9 6,15 1,3 1,10 1,19l0 28c0,19 1,31 1,37 1,5 3,10 6,15l-22 0c-2,-5 -4,-10 -4,-16zm-2 -46c-8,3 -19,5 -34,8 -9,1 -15,2 -19,4 -3,1 -6,3 -8,6 -2,3 -3,7 -3,10 0,6 2,11 6,14 5,4 11,6 19,6 8,0 15,-2 22,-6 6,-3 11,-8 13,-14 3,-5 4,-12 4,-21l0 -7z"/>
   <path id="28" class="fil2" d="M5988 2818l3 18c-6,2 -11,2 -16,2 -8,0 -13,-1 -18,-3 -4,-3 -7,-6 -9,-10 -1,-4 -2,-12 -2,-25l0 -71 -16 0 0 -16 16 0 0 -31 21 -12 0 43 21 0 0 16 -21 0 0 73c0,6 0,9 1,11 1,2 2,3 4,4 1,1 4,2 7,2 2,0 5,-1 9,-1z"/>
   <path id="29" class="fil2" d="M6093 2797l22 2c-4,13 -10,23 -19,30 -10,7 -21,10 -36,10 -18,0 -32,-5 -42,-16 -11,-12 -16,-27 -16,-47 0,-21 5,-37 16,-48 10,-12 24,-18 41,-18 17,0 30,6 41,17 10,11 15,27 15,48 0,1 0,3 0,5l-92 0c1,14 5,24 12,31 6,7 15,11 25,11 8,0 15,-2 20,-6 5,-4 10,-11 13,-19zm-69 -34l69 0c-1,-10 -3,-18 -8,-23 -6,-8 -15,-13 -26,-13 -9,0 -17,4 -24,10 -6,7 -10,15 -11,26z"/>
   <path id="30" class="fil2" d="M4317 3369l0 -171 75 0c16,0 27,2 35,5 8,3 14,8 19,16 5,8 7,16 7,26 0,12 -4,22 -12,30 -7,9 -20,14 -36,16 6,3 11,6 14,9 6,6 13,13 18,22l30 47 -28 0 -23 -36c-6,-10 -12,-18 -16,-23 -4,-6 -8,-9 -12,-12 -3,-2 -6,-3 -10,-4 -2,-1 -7,-1 -12,-1l-27 0 0 76 -22 0zm22 -95l49 0c10,0 18,-2 24,-4 6,-2 10,-5 13,-10 3,-5 5,-10 5,-15 0,-8 -3,-15 -9,-20 -6,-5 -15,-8 -28,-8l-54 0 0 57z"/>
   <path id="31" class="fil2" d="M4570 3329l22 3c-4,12 -10,22 -19,29 -9,7 -21,10 -35,10 -18,0 -33,-5 -43,-16 -11,-11 -16,-27 -16,-47 0,-21 5,-37 16,-48 11,-12 24,-17 41,-17 17,0 30,5 41,16 10,12 15,27 15,48 0,1 0,3 0,5l-92 0c1,14 5,24 12,31 7,8 15,11 26,11 7,0 14,-2 19,-6 6,-4 10,-10 13,-19zm-69 -34l69 0c-1,-10 -3,-18 -8,-23 -6,-8 -15,-12 -25,-12 -10,0 -18,3 -25,9 -6,7 -10,15 -11,26z"/>
   <path id="32" class="fil2" d="M4699 3324l20 2c-2,15 -7,26 -17,33 -9,8 -20,12 -34,12 -17,0 -30,-5 -41,-16 -10,-11 -15,-27 -15,-48 0,-13 2,-25 7,-35 4,-9 11,-17 20,-22 9,-5 19,-7 29,-7 14,0 25,3 33,10 9,7 14,16 17,29l-21 3c-2,-9 -5,-15 -10,-19 -5,-4 -11,-6 -18,-6 -10,0 -19,3 -26,11 -6,8 -10,20 -10,36 0,16 4,29 10,36 6,8 15,11 25,11 8,0 15,-2 21,-7 5,-5 9,-13 10,-23z"/>
   <path id="33" class="fil2" d="M4822 3329l21 3c-3,12 -9,22 -19,29 -9,7 -21,10 -35,10 -18,0 -32,-5 -43,-16 -10,-11 -16,-27 -16,-47 0,-21 6,-37 16,-48 11,-12 25,-17 42,-17 16,0 30,5 40,16 11,12 16,27 16,48 0,1 0,3 0,5l-92 0c1,14 4,24 11,31 7,8 16,11 26,11 8,0 14,-2 20,-6 5,-4 10,-10 13,-19zm-69 -34l69 0c-1,-10 -4,-18 -8,-23 -7,-8 -15,-12 -26,-12 -9,0 -18,3 -24,9 -7,7 -10,15 -11,26z"/>
   <path id="34" class="fil2" d="M4870 3222l0 -24 21 0 0 24 -21 0zm0 147l0 -124 21 0 0 124 -21 0z"/>
   <path id="35" class="fil2" d="M4923 3416l0 -171 19 0 0 16c4,-6 9,-11 15,-14 6,-3 13,-4 21,-4 10,0 19,2 28,8 8,5 14,13 18,23 4,9 6,20 6,32 0,13 -2,24 -7,34 -4,10 -11,18 -20,23 -8,6 -17,8 -27,8 -7,0 -13,-1 -19,-4 -5,-3 -10,-7 -13,-11l0 60 -21 0zm19 -108c0,16 3,27 9,35 7,7 15,11 24,11 9,0 17,-4 24,-12 6,-7 10,-20 10,-36 0,-16 -4,-27 -10,-35 -7,-8 -14,-12 -23,-12 -9,0 -17,4 -24,12 -7,9 -10,21 -10,37z"/>
   <path id="36" class="fil2" d="M5101 3350l3 19c-6,1 -12,1 -16,1 -8,0 -14,-1 -18,-3 -4,-3 -7,-6 -9,-10 -1,-4 -2,-12 -2,-24l0 -72 -16 0 0 -16 16 0 0 -30 21 -13 0 43 21 0 0 16 -21 0 0 73c0,6 0,10 1,11 1,2 2,3 3,4 2,1 5,2 8,2 2,0 5,0 9,-1z"/>
   <path id="37" class="fil2" d="M5113 3332l21 -3c1,8 4,14 10,19 5,4 12,6 22,6 10,0 17,-2 21,-6 5,-3 7,-8 7,-13 0,-5 -2,-9 -6,-12 -3,-1 -10,-4 -21,-7 -16,-3 -26,-7 -32,-10 -6,-3 -11,-6 -14,-11 -3,-5 -4,-11 -4,-17 0,-5 1,-11 3,-15 3,-5 6,-9 11,-12 3,-2 7,-4 13,-6 6,-2 12,-2 18,-2 10,0 18,1 26,4 7,3 12,6 16,11 3,5 6,11 7,19l-20 3c-1,-6 -4,-11 -9,-15 -4,-4 -10,-5 -18,-5 -10,0 -17,1 -21,4 -4,4 -6,7 -6,12 0,2 1,5 2,7 2,2 5,4 8,6 3,0 9,2 19,5 15,4 25,7 31,10 6,2 10,6 14,11 3,4 5,10 5,17 0,7 -2,14 -6,20 -4,6 -10,11 -18,14 -8,4 -16,5 -26,5 -16,0 -28,-3 -37,-10 -8,-6 -14,-16 -16,-29z"/>
   <path id="38" class="fil2" d="M4316 3901l0 -171 65 0c11,0 20,1 26,2 8,2 15,4 21,8 5,4 10,9 13,16 4,8 6,15 6,24 0,14 -5,26 -14,36 -9,10 -26,15 -50,15l-44 0 0 70 -23 0zm23 -90l44 0c15,0 25,-2 31,-8 6,-5 9,-13 9,-23 0,-7 -1,-13 -5,-18 -4,-5 -8,-8 -14,-10 -4,-1 -11,-2 -21,-2l-44 0 0 61z"/>
   <path id="39" class="fil2" d="M4553 3886c-7,6 -15,11 -22,14 -7,2 -15,4 -23,4 -14,0 -24,-4 -32,-10 -7,-7 -11,-15 -11,-26 0,-6 2,-11 5,-16 2,-5 6,-9 10,-12 5,-3 10,-5 16,-7 4,-1 10,-2 18,-3 17,-2 30,-5 38,-7 0,-3 0,-5 0,-6 0,-8 -2,-14 -6,-18 -6,-4 -14,-7 -24,-7 -10,0 -17,2 -22,5 -5,4 -8,10 -10,19l-21 -3c2,-9 5,-16 9,-21 5,-6 11,-10 19,-13 8,-3 17,-4 28,-4 11,0 19,1 26,4 6,2 11,5 14,9 3,4 6,8 7,14 1,4 1,10 1,19l0 28c0,20 0,32 1,37 1,5 3,10 5,15l-22 0c-2,-4 -3,-10 -4,-15zm-1 -47c-8,3 -19,6 -35,8 -8,1 -14,3 -18,4 -4,2 -6,4 -8,7 -2,3 -3,6 -3,10 0,5 2,10 6,14 4,3 11,5 19,5 8,0 15,-2 21,-5 7,-4 11,-8 14,-14 2,-5 4,-12 4,-21l0 -8z"/>
   <path id="40" class="fil2" d="M4604 3949l-2 -20c4,1 8,2 12,2 4,0 8,-1 11,-2 3,-2 5,-4 7,-7 1,-2 3,-7 6,-15 1,-2 1,-3 2,-6l-47 -124 23 0 25 72c4,9 7,18 9,28 3,-9 6,-18 9,-27l26 -73 21 0 -46 126c-5,14 -9,23 -12,28 -4,7 -8,12 -13,15 -5,3 -11,5 -17,5 -4,0 -9,-1 -14,-2z"/>
   <path id="41" class="fil2" d="M4724 3901l0 -124 19 0 0 18c4,-6 9,-11 15,-15 7,-3 14,-5 22,-5 10,0 17,2 23,5 6,4 10,10 12,16 10,-14 23,-21 39,-21 12,0 21,3 28,10 7,7 10,17 10,31l0 85 -21 0 0 -78c0,-8 -1,-14 -2,-18 -1,-4 -4,-6 -8,-9 -3,-2 -7,-3 -12,-3 -9,0 -16,3 -22,9 -6,5 -8,15 -8,27l0 72 -21 0 0 -80c0,-9 -2,-16 -6,-21 -3,-5 -9,-7 -16,-7 -6,0 -12,1 -17,5 -5,3 -8,7 -10,13 -3,6 -4,15 -4,26l0 64 -21 0z"/>
   <path id="42" class="fil2" d="M5007 3861l22 3c-4,12 -10,22 -19,29 -9,7 -21,11 -36,11 -18,0 -32,-6 -42,-17 -11,-11 -16,-27 -16,-47 0,-20 5,-37 16,-48 10,-11 24,-17 41,-17 17,0 30,5 41,17 10,11 15,27 15,47 0,1 0,3 0,6l-92 0c1,13 5,24 12,31 7,7 15,11 25,11 8,0 15,-3 20,-7 6,-4 10,-10 13,-19zm-69 -34l69 0c-1,-10 -3,-18 -8,-23 -6,-8 -15,-12 -26,-12 -9,0 -17,3 -24,10 -6,6 -10,15 -11,25z"/>
   <path id="43" class="fil2" d="M5055 3901l0 -124 19 0 0 18c9,-13 22,-20 39,-20 8,0 15,1 21,4 6,2 11,6 14,10 3,5 5,10 6,16 1,4 1,10 1,20l0 76 -21 0 0 -75c0,-9 0,-15 -2,-19 -2,-4 -4,-8 -9,-10 -4,-3 -9,-4 -14,-4 -9,0 -17,3 -23,8 -7,6 -10,17 -10,33l0 67 -21 0z"/>
   <path id="44" class="fil2" d="M5233 3882l3 19c-6,1 -11,2 -16,2 -7,0 -13,-1 -17,-4 -5,-2 -8,-5 -9,-9 -2,-4 -3,-13 -3,-25l0 -71 -15 0 0 -17 15 0 0 -30 21 -13 0 43 21 0 0 17 -21 0 0 72c0,6 1,10 1,12 1,1 2,3 4,4 2,1 4,1 7,1 2,0 5,0 9,-1z"/>
   <path id="45" class="fil2" d="M5245 3864l21 -3c1,8 5,14 10,19 5,4 13,7 22,7 10,0 17,-2 22,-6 4,-4 7,-9 7,-14 0,-5 -2,-9 -7,-11 -3,-2 -10,-4 -21,-7 -15,-4 -26,-8 -32,-10 -6,-3 -10,-7 -13,-12 -3,-5 -5,-11 -5,-17 0,-5 1,-10 4,-15 2,-5 6,-9 10,-12 3,-2 8,-4 13,-6 6,-1 12,-2 18,-2 10,0 19,1 26,4 7,3 13,7 16,11 4,5 6,12 7,20l-20 2c-1,-6 -4,-11 -8,-15 -5,-3 -11,-5 -19,-5 -10,0 -16,2 -21,5 -4,3 -6,7 -6,11 0,3 1,5 3,7 2,2 4,4 8,6 2,1 8,2 18,5 15,4 25,7 31,10 6,2 11,6 14,11 3,5 5,11 5,18 0,7 -2,13 -6,19 -4,6 -10,11 -18,15 -7,3 -16,5 -26,5 -16,0 -28,-4 -36,-10 -9,-7 -14,-17 -17,-30z"/>
   <path id="46" class="fil2" d="M4316 4433l0 -170 59 0c13,0 23,1 30,2 10,2 19,7 25,12 10,8 16,18 21,30 4,11 6,25 6,40 0,13 -1,25 -4,35 -3,10 -7,18 -12,24 -5,7 -10,12 -15,16 -6,4 -13,6 -21,8 -8,2 -17,3 -27,3l-62 0zm23 -20l36 0c12,0 20,-1 27,-3 6,-2 11,-5 15,-9 5,-5 10,-12 13,-21 3,-9 4,-20 4,-33 0,-18 -3,-32 -9,-41 -6,-10 -13,-17 -21,-20 -6,-2 -16,-3 -29,-3l-36 0 0 130z"/>
   <path id="47" class="fil2" d="M4570 4393l22 3c-4,13 -10,23 -19,29 -9,7 -21,11 -35,11 -18,0 -33,-6 -43,-17 -11,-11 -16,-26 -16,-46 0,-21 5,-37 16,-49 11,-11 24,-17 41,-17 17,0 30,6 41,17 10,11 15,27 15,47 0,2 0,3 0,6l-92 0c1,13 5,24 12,31 7,7 15,11 26,11 7,0 14,-2 19,-6 6,-4 10,-11 13,-20zm-69 -33l69 0c-1,-11 -3,-19 -8,-24 -6,-8 -15,-12 -25,-12 -10,0 -18,3 -25,10 -6,6 -10,15 -11,26z"/>
   <path id="48" class="fil2" d="M4638 4433l-20 0 0 -170 21 0 0 61c9,-11 20,-17 34,-17 7,0 15,2 21,5 7,3 13,7 17,12 5,6 8,13 10,21 3,7 4,16 4,25 0,21 -5,37 -15,49 -11,11 -24,17 -38,17 -15,0 -26,-6 -34,-18l0 15zm-1 -62c0,14 2,25 6,32 7,10 16,16 27,16 9,0 17,-4 24,-12 6,-8 10,-20 10,-36 0,-16 -3,-28 -10,-35 -6,-8 -14,-12 -23,-12 -9,0 -17,4 -24,12 -6,8 -10,20 -10,35z"/>
   <path id="49" class="fil2" d="M4751 4287l0 -24 21 0 0 24 -21 0zm0 146l0 -123 21 0 0 123 -21 0z"/>
   <path id="50" class="fil2" d="M4849 4415l3 18c-6,1 -11,2 -16,2 -7,0 -13,-1 -17,-4 -5,-2 -8,-5 -9,-9 -2,-4 -3,-12 -3,-25l0 -71 -15 0 0 -16 15 0 0 -31 21 -13 0 44 21 0 0 16 -21 0 0 72c0,6 1,10 1,12 1,2 2,3 4,4 2,1 4,1 7,1 2,0 5,0 9,0z"/>
   <polygon id="51" class="fil2" points="4938,4433 4938,4263 4962,4263 5051,4397 5051,4263 5073,4263 5073,4433 5050,4433 4960,4299 4960,4433 "/>
   <path id="52" class="fil2" d="M5100 4371c0,-22 7,-39 19,-50 11,-9 24,-14 39,-14 17,0 31,6 42,17 11,11 16,26 16,46 0,16 -2,28 -7,37 -5,9 -12,16 -21,21 -9,5 -19,8 -30,8 -17,0 -31,-6 -42,-17 -10,-11 -16,-27 -16,-48zm22 1c0,15 3,27 10,35 7,8 16,12 26,12 11,0 19,-4 26,-12 7,-8 11,-20 11,-36 0,-15 -4,-27 -11,-35 -7,-8 -16,-12 -26,-12 -10,0 -19,4 -26,12 -7,8 -10,20 -10,36z"/>
   <path id="53" class="fil2" d="M5286 4415l3 18c-6,1 -11,2 -16,2 -7,0 -13,-1 -18,-4 -4,-2 -7,-5 -8,-9 -2,-4 -3,-12 -3,-25l0 -71 -15 0 0 -16 15 0 0 -31 21 -13 0 44 21 0 0 16 -21 0 0 72c0,6 0,10 1,12 1,2 2,3 4,4 1,1 4,1 7,1 2,0 5,0 9,0z"/>
   <path id="54" class="fil2" d="M5391 4393l22 3c-4,13 -10,23 -19,29 -9,7 -21,11 -35,11 -18,0 -33,-6 -43,-17 -11,-11 -16,-26 -16,-46 0,-21 5,-37 16,-49 10,-11 24,-17 41,-17 17,0 30,6 41,17 10,11 15,27 15,47 0,2 0,3 0,6l-92 0c1,13 5,24 12,31 7,7 15,11 26,11 7,0 14,-2 19,-6 6,-4 10,-11 13,-20zm-69 -33l69 0c-1,-11 -3,-19 -8,-24 -6,-8 -15,-12 -25,-12 -10,0 -18,3 -25,10 -6,6 -10,15 -11,26z"/>
   <path class="fil2" d="M4168 1429l42 13c-7,23 -17,41 -32,52 -15,12 -34,17 -57,17 -28,0 -51,-9 -70,-29 -18,-19 -27,-45 -27,-79 0,-36 9,-63 27,-83 19,-19 43,-29 73,-29 26,0 47,7 63,23 10,9 17,22 22,39l-42 10c-3,-11 -8,-19 -16,-26 -8,-6 -18,-9 -29,-9 -16,0 -29,5 -39,17 -10,11 -15,29 -15,55 0,27 5,46 15,57 10,12 22,17 38,17 11,0 21,-3 29,-10 9,-8 15,-19 18,-35z"/>
   <path id="1" class="fil2" d="M4237 1429c0,-14 3,-27 10,-40 7,-13 16,-22 28,-29 13,-7 26,-10 41,-10 24,0 43,8 58,23 15,15 22,34 22,57 0,24 -7,43 -22,59 -15,15 -34,23 -57,23 -14,0 -28,-4 -41,-10 -13,-6 -22,-16 -29,-28 -7,-12 -10,-28 -10,-45zm42 2c0,15 4,27 11,35 7,8 16,12 27,12 10,0 19,-4 26,-12 8,-8 11,-20 11,-35 0,-16 -3,-27 -11,-35 -7,-9 -16,-13 -26,-13 -11,0 -20,4 -27,13 -7,8 -11,19 -11,35z"/>
   <path id="2" class="fil2" d="M4569 1508l-41 0 0 -79c0,-17 -1,-27 -3,-32 -1,-5 -4,-9 -8,-12 -4,-2 -9,-4 -14,-4 -8,0 -14,2 -20,6 -5,4 -9,9 -11,15 -2,7 -3,19 -3,36l0 70 -41 0 0 -155 38 0 0 23c13,-17 30,-26 51,-26 9,0 17,2 25,5 7,3 13,7 17,12 3,5 6,11 8,17 1,7 2,16 2,28l0 96z"/>
   <path id="3" class="fil2" d="M4681 1353l0 33 -28 0 0 62c0,13 0,20 1,22 0,3 1,4 3,6 2,1 4,2 7,2 4,0 9,-2 17,-4l3 32c-9,4 -20,6 -32,6 -7,0 -14,-2 -20,-4 -6,-3 -10,-6 -13,-10 -3,-4 -5,-9 -6,-16 -1,-4 -1,-14 -1,-29l0 -67 -19 0 0 -33 19 0 0 -30 41 -25 0 55 28 0z"/>
   <path id="4" class="fil2" d="M4740 1401l-37 -7c4,-15 11,-26 21,-33 11,-7 26,-11 46,-11 18,0 32,2 41,6 8,5 15,10 18,17 4,7 6,19 6,36l-1 48c0,14 1,24 2,30 1,7 4,13 7,21l-40 0c-1,-3 -2,-7 -4,-12 -1,-3 -1,-4 -1,-5 -7,7 -15,12 -23,16 -8,3 -16,5 -25,5 -16,0 -28,-5 -38,-13 -9,-9 -13,-20 -13,-33 0,-9 2,-16 6,-23 4,-7 10,-12 17,-16 8,-4 19,-7 33,-10 19,-3 32,-6 40,-10l0 -4c0,-8 -2,-13 -6,-17 -4,-3 -11,-5 -22,-5 -8,0 -13,2 -17,5 -4,2 -8,8 -10,15zm55 33c-6,2 -14,4 -25,6 -12,3 -19,5 -23,7 -5,4 -8,9 -8,15 0,5 3,10 7,15 4,4 10,6 16,6 8,0 15,-3 21,-7 5,-4 8,-9 10,-14 1,-3 2,-10 2,-20l0 -8z"/>
   <path id="5" class="fil2" d="M5010 1399l-41 7c-1,-8 -4,-14 -9,-18 -5,-4 -11,-6 -18,-6 -11,0 -19,4 -25,11 -6,7 -9,19 -9,35 0,18 3,31 9,39 6,8 15,11 25,11 8,0 14,-2 19,-6 5,-5 8,-12 11,-23l40 7c-4,18 -12,32 -24,42 -12,9 -28,14 -48,14 -22,0 -40,-7 -54,-22 -13,-14 -20,-34 -20,-59 0,-26 7,-45 20,-60 14,-14 32,-21 55,-21 19,0 34,4 45,12 11,8 19,21 24,37z"/>
   <path id="6" class="fil2" d="M5111 1353l0 33 -28 0 0 62c0,13 0,20 1,22 1,3 2,4 4,6 2,1 4,2 7,2 3,0 9,-2 16,-4l3 32c-9,4 -20,6 -32,6 -7,0 -14,-2 -20,-4 -5,-3 -10,-6 -13,-10 -2,-4 -4,-9 -5,-16 -1,-4 -2,-14 -2,-29l0 -67 -18 0 0 -33 18 0 0 -30 41 -25 0 55 28 0z"/>
   <path id="7" class="fil2" d="M5125 1464l41 -6c2,8 6,14 11,18 5,4 13,6 22,6 11,0 19,-2 24,-6 4,-2 6,-6 6,-11 0,-3 -1,-5 -3,-7 -2,-2 -7,-4 -14,-6 -33,-7 -54,-14 -63,-20 -12,-8 -18,-20 -18,-34 0,-14 5,-25 16,-34 10,-9 27,-14 49,-14 21,0 37,3 47,10 10,7 17,18 21,31l-38 7c-2,-6 -5,-10 -10,-14 -4,-3 -11,-5 -19,-5 -11,0 -19,2 -24,5 -3,2 -4,5 -4,8 0,3 1,6 4,8 3,2 16,6 38,11 22,5 37,11 46,18 8,8 13,18 13,31 0,14 -6,26 -18,36 -12,11 -29,16 -53,16 -21,0 -37,-5 -50,-13 -12,-9 -20,-20 -24,-35z"/>
   <path class="fil0" d="M387 2223l0 0c4,-4 11,-4 16,0l29 29c4,4 11,4 16,0l81 -81c4,-4 11,-4 16,0l0 1c4,4 4,11 0,15 -31,32 -65,66 -97,98 -4,4 -11,4 -15,0l-47 -47c-4,-4 -4,-11 1,-15 0,0 0,0 0,0z"/>
   <path class="fil3" d="M387 2721l0 0c4,-4 11,-4 16,0l29 29c4,4 11,4 16,0l81 -81c4,-4 11,-4 16,0l0 1c4,4 4,11 0,16 -31,32 -65,65 -97,97 -4,4 -11,4 -15,0l-47 -46c-4,-5 -4,-12 1,-16 0,0 0,0 0,0z"/>
   <path class="fil3" d="M387 3302l0 0c4,-4 11,-4 16,0l29 29c4,4 11,4 16,0l81 -81c4,-4 11,-4 16,0l0 1c4,4 4,11 0,16 -31,32 -65,65 -97,97 -4,4 -11,4 -15,0l-47 -46c-4,-5 -4,-12 1,-16 0,0 0,0 0,0z"/>
   <path class="fil0" d="M387 3815l0 0c4,-4 11,-4 16,0l29 30c4,4 11,4 16,0l81 -81c4,-5 11,-5 16,0l0 0c4,5 4,12 0,16 -31,32 -65,65 -97,98 -4,4 -11,4 -15,0l-47 -47c-4,-4 -4,-11 1,-15 0,0 0,-1 0,-1z"/>
   <path class="fil0" d="M387 4354l0 0c4,-4 11,-4 16,0l29 29c4,5 11,5 16,0l81 -81c4,-4 11,-4 16,0l0 1c4,4 4,11 0,16 -31,32 -65,65 -97,97 -4,4 -11,4 -15,0l-47 -46c-4,-5 -4,-11 1,-16 0,0 0,0 0,0z"/>
   <g>
    <path class="fil0" d="M2150 1374l0 0c4,-4 11,-4 16,0l29 29c4,4 11,4 16,0l81 -81c4,-4 11,-4 16,0l0 1c4,4 4,11 0,15 -31,33 -65,66 -97,98 -4,4 -11,4 -15,0l-47 -46c-4,-5 -4,-12 1,-16 0,0 0,0 0,0z"/>
    <path class="fil0" d="M2150 1872l0 0c4,-4 11,-4 16,0l29 30c4,4 11,4 16,0l81 -82c4,-4 11,-4 16,0l0 1c4,4 4,11 0,16 -31,32 -65,65 -97,97 -4,4 -11,4 -15,0l-47 -46c-4,-4 -4,-11 1,-16 0,0 0,0 0,0z"/>
    <path class="fil0" d="M2150 2453l0 0c4,-4 11,-4 16,0l29 30c4,4 11,4 16,0l81 -82c4,-4 11,-4 16,0l0 1c4,4 4,11 0,16 -31,32 -65,65 -97,97 -4,4 -11,4 -15,0l-47 -46c-4,-5 -4,-11 1,-16 0,0 0,0 0,0z"/>
    <path class="fil3" d="M2150 2967l0 0c4,-5 11,-5 16,0l29 29c4,4 11,4 16,0l81 -81c4,-4 11,-4 16,0l0 0c4,5 4,12 0,16 -31,32 -65,66 -97,98 -4,4 -11,4 -15,0l-47 -47c-4,-4 -4,-11 1,-15 0,0 0,0 0,0z"/>
    <path class="fil3" d="M2150 3505l0 0c4,-4 11,-4 16,0l29 30c4,4 11,4 16,0l81 -82c4,-4 11,-4 16,0l0 1c4,5 4,11 0,16 -31,32 -65,65 -97,97 -4,5 -11,5 -15,0l-47 -46c-4,-4 -4,-11 1,-15 0,-1 0,-1 0,-1z"/>
   </g>
   <g>
    <path class="fil0" d="M4028 2223l0 0c4,-4 11,-4 15,0l30 29c4,4 11,4 15,0l82 -81c4,-4 11,-4 15,0l1 1c4,4 4,11 0,15 -31,32 -65,66 -97,98 -4,4 -11,4 -16,0l-46 -47c-4,-4 -4,-11 0,-15 1,0 1,0 1,0z"/>
    <path class="fil0" d="M4028 2721l0 0c4,-4 11,-4 15,0l30 29c4,4 11,4 15,0l82 -81c4,-4 11,-4 15,0l1 1c4,4 4,11 0,16 -31,32 -65,65 -97,97 -4,4 -11,4 -16,0l-46 -46c-4,-5 -4,-12 0,-16 1,0 1,0 1,0z"/>
    <path class="fil0" d="M4028 3302l0 0c4,-4 11,-4 15,0l30 29c4,4 11,4 15,0l82 -81c4,-4 11,-4 15,0l1 1c4,4 4,11 0,16 -31,32 -65,65 -97,97 -4,4 -11,4 -16,0l-46 -46c-4,-5 -4,-12 0,-16 1,0 1,0 1,0z"/>
    <path class="fil0" d="M4028 3815l0 0c4,-4 11,-4 15,0l30 30c4,4 11,4 15,0l82 -81c4,-5 11,-5 15,0l1 0c4,5 4,12 0,16 -31,32 -65,65 -97,98 -4,4 -11,4 -16,0l-46 -47c-4,-4 -4,-11 0,-15 1,0 1,-1 1,-1z"/>
    <path class="fil0" d="M4028 4354l0 0c4,-4 11,-4 15,0l30 29c4,5 11,5 15,0l82 -81c4,-4 11,-4 15,0l1 1c4,4 4,11 0,16 -31,32 -65,65 -97,97 -4,4 -11,4 -16,0l-46 -46c-4,-5 -4,-11 0,-16 1,0 1,0 1,0z"/>
   </g>
  </g>
 </g>
</svg>
