<?xml version="1.0" encoding="UTF-8"?>
<!DOCTYPE svg PUBLIC "-//W3C//DTD SVG 1.1//EN" "http://www.w3.org/Graphics/SVG/1.1/DTD/svg11.dtd">
<!-- Creator: CorelDRAW X8 -->
<svg xmlns="http://www.w3.org/2000/svg" xml:space="preserve" width="1.42257in" height="1.42265in" version="1.1" style="shape-rendering:geometricPrecision; text-rendering:geometricPrecision; image-rendering:optimizeQuality; fill-rule:evenodd; clip-rule:evenodd"
viewBox="0 0 137 137"
 xmlns:xlink="http://www.w3.org/1999/xlink">
 <defs>
  <style type="text/css">
   <![CDATA[
    .fil0 {fill:#4B55C2;fill-rule:nonzero}
   ]]>
  </style>
 </defs>
 <g id="Layer_x0020_1">
  <metadata id="CorelCorpID_0Corel-Layer"/>
  <g id="_2122847634544">
   <path class="fil0" d="M3 85c1,1 2,1 3,2 1,0 2,1 3,2 0,1 0,1 -1,2 0,1 0,1 -1,2 -1,1 -2,4 0,6 1,0 1,1 2,1 0,1 -1,3 -1,4 1,1 1,1 2,2 0,0 1,1 1,1 2,1 2,1 2,2 1,1 1,2 0,3 0,0 0,1 0,1 0,2 0,5 1,7 1,3 4,6 8,6 0,0 1,0 2,0 6,-2 13,-4 19,-6 5,3 8,12 9,15 0,1 1,2 2,2l58 0c0,0 1,0 2,-1 0,-1 0,-1 0,-2 -1,-2 -1,-3 -2,-4 -1,-1 -1,-2 -2,-3 -1,-2 -2,-4 -2,-6 -2,-5 -3,-9 -3,-14 0,0 -1,-1 -1,-2 -1,0 -2,0 -3,1 0,0 -1,1 -1,2 1,5 2,9 3,14 1,3 2,5 3,7 1,1 1,2 2,3l0 0 -52 1c-1,-6 -4,-11 -8,-15l2 -1c2,0 3,-1 3,-1 10,-3 15,-7 15,-13 0,-1 0,-1 -1,-2 0,0 -1,0 -1,0 -2,0 -3,1 -3,2 0,2 -1,6 -11,9 -1,0 -2,0 -3,1 -2,1 -4,1 -7,2l0 0c-6,2 -13,4 -19,6 -2,0 -5,-1 -5,-3 0,-1 -1,-3 -1,-4 1,-1 1,-1 1,-1 0,-2 0,-4 0,-5 -1,-2 -2,-4 -4,-5l-1 0c0,-1 1,-1 1,-2 0,0 1,-1 1,-1 -1,-1 -1,-2 -1,-2 -1,0 -2,-1 -3,-2 0,0 0,-1 0,-1 1,0 1,-1 1,-2 1,-2 1,-3 1,-5 -1,-3 -3,-4 -5,-5 -1,-1 -1,-1 -2,-1 -1,-1 -1,-1 -1,-1 0,-1 0,-2 2,-4 4,-5 7,-11 10,-17 1,-1 1,-2 1,-3 0,-2 -1,-4 -3,-6 -1,0 -2,-1 -2,-2 0,0 0,-1 0,-1 1,-1 1,-2 1,-3 1,-2 2,-4 3,-6l0 -1c0,-3 1,-5 2,-7 2,-5 4,-10 8,-14 4,-4 11,-7 20,-9 7,-2 15,-3 22,-3 3,-1 7,0 11,0 1,0 2,0 2,-2 0,-1 0,-2 -2,-2 -3,-1 -7,-1 -11,-1 -8,1 -15,2 -22,3 -11,2 -18,6 -23,11 -4,5 -8,10 -10,15 0,3 -1,5 -2,8l0 1c0,1 -1,3 -2,5 0,1 -1,2 -1,3 -1,1 -1,2 -1,4 1,2 2,4 4,5 1,1 1,2 1,2 0,1 0,1 0,1 -3,6 -6,11 -10,16 -2,3 -3,5 -3,7 1,2 2,4 3,4z"/>
   <path class="fil0" d="M26 41l0 -1c0,-2 1,-4 1,-6 2,-4 4,-7 7,-10 3,-3 6,-5 10,-6 1,0 2,-1 2,-2 0,0 0,-1 -1,-2 -1,0 -1,-1 -2,0 -5,1 -9,3 -13,7 -3,3 -5,7 -7,11 -1,2 -1,5 -2,7l0 1c0,1 1,2 2,2 0,0 0,0 0,0 1,0 2,0 3,-1z"/>
   <path class="fil0" d="M23 48c0,1 -1,2 -2,2 -2,0 -3,-1 -3,-2 0,-1 1,-2 3,-2 1,0 2,1 2,2z"/>
   <path class="fil0" d="M62 46c0,8 2,16 7,21 2,2 4,4 6,5 3,3 6,5 7,9 -3,1 -4,3 -4,6l0 4c0,3 2,6 4,7l0 0c0,5 4,9 9,9 5,0 10,-4 10,-9l0 0c2,-1 4,-4 4,-7l0 -4c0,-3 -2,-5 -4,-6 1,-4 4,-6 7,-9 2,-1 4,-3 5,-5 6,-5 8,-13 8,-21 0,-16 -13,-30 -30,-30 -16,0 -29,14 -29,30zm23 4l-3 0c-1,0 -2,-1 -2,-2 0,-1 1,-2 2,-2 2,0 3,1 3,2l0 2zm9 30l-5 0 0 -25 5 0 0 25zm-3 23c-2,0 -4,-2 -4,-5l9 0c0,3 -2,5 -5,5zm10 -12c0,2 -1,3 -3,3l-13 0c-2,0 -3,-1 -3,-3l0 -4c0,-1 1,-2 3,-2l13 0c2,0 3,1 3,2l0 4zm16 -45c0,7 -3,13 -7,18 -1,2 -3,3 -5,4 -2,2 -5,5 -7,7l0 -20 3 0c3,0 6,-3 6,-7 0,-4 -3,-7 -6,-7 -4,0 -7,3 -7,7l0 2 -5 0 0 -2c0,-4 -3,-7 -7,-7 -3,0 -7,3 -7,7 0,4 4,7 7,7l3 0 0 20c-2,-2 -5,-5 -7,-7 -2,-1 -4,-2 -5,-4 -5,-5 -7,-11 -7,-18 1,-14 12,-25 25,-25 14,0 25,11 26,25zm-19 4l0 -2c0,-1 1,-2 3,-2 1,0 2,1 2,2 0,1 -1,2 -2,2l-3 0z"/>
   <path class="fil0" d="M128 48l7 0c1,0 2,-1 2,-2l0 0c0,-2 -1,-3 -2,-3l-7 0c-1,0 -2,1 -2,3 0,1 1,2 2,2z"/>
   <path class="fil0" d="M117 22c1,0 1,0 2,-1l5 -4c0,-1 1,-2 0,-3 0,0 0,-1 -1,-1 -1,0 -2,0 -2,0l-5 5c-1,1 -1,2 -1,3 1,1 1,1 2,1z"/>
   <path class="fil0" d="M91 11c2,0 3,-1 3,-2l0 -7c0,-1 -1,-2 -3,-2 -1,0 -2,1 -2,2l0 7c0,1 1,2 2,2z"/>
   <path class="fil0" d="M67 21c1,0 1,-1 1,-1 0,-1 0,-1 -1,-2l-5 -5c0,0 -1,0 -2,0 -1,0 -1,1 -2,1 0,1 1,2 1,3l5 4c0,1 1,1 2,1 0,0 1,0 1,-1z"/>
   <path class="fil0" d="M48 43c-1,0 -2,1 -2,3 0,1 1,2 2,2l7 0c1,0 2,-1 2,-2 0,-2 -1,-3 -2,-3l-7 0z"/>
  </g>
 </g>
</svg>
