<svg xmlns="http://www.w3.org/2000/svg" width="143.2" height="139.905" viewBox="0 0 143.2 139.905">
  <g id="Group_1" data-name="Group 1" transform="translate(-452.528 -4240.22)">
    <path id="path296" d="M498.7,4390.06h61.7a41.888,41.888,0,0,0,13.846,16.458,59.88,59.88,0,0,0,16.777,8.58,1.974,1.974,0,0,0,1.069.01,62.831,62.831,0,0,0,17.338-8.566c11.49-8.124,17.563-18.91,17.563-31.193v-17.083a5.15,5.15,0,0,0-3.049-4.708,162.379,162.379,0,0,1-20.2-10.725v-22.109a14.922,14.922,0,0,0-14.907-14.9h-1v-.707a14.923,14.923,0,0,0-14.906-14.906H548.6a1.307,1.307,0,0,1-.965-.426l-8.832-9.661a14.935,14.935,0,0,0-11-4.849H498.7a14.92,14.92,0,0,0-14.9,14.9v84.987a14.919,14.919,0,0,0,14.9,14.9Zm123.674-32.973a1.279,1.279,0,0,1,.752,1.171v17.083a31.379,31.379,0,0,1-9.424,22.523v-.472a1.935,1.935,0,0,0-3.869,0v2.013a1.927,1.927,0,0,0,.649,1.442q-1.51,1.266-3.2,2.466a60.97,60.97,0,0,1-15.709,7.9,57.68,57.68,0,0,1-15.042-7.819q-1.572-1.151-2.98-2.363a1.933,1.933,0,0,0,.889-1.627v-2.012a1.935,1.935,0,0,0-3.869,0v.835a32.037,32.037,0,0,1-9.424-22.885V4358.26a1.279,1.279,0,0,1,.752-1.172,162.626,162.626,0,0,0,30.236-17.464,162.649,162.649,0,0,0,30.236,17.464h0Zm-33.534-47.4a11.049,11.049,0,0,1,11.036,11.034v19.6q-3.369-2.254-6.577-4.655a1.932,1.932,0,0,0-2.321,0,158.349,158.349,0,0,1-30.646,17.886,5.154,5.154,0,0,0-3.051,4.708v17.083a35.915,35.915,0,0,0,1.645,10.847H510.077a14.872,14.872,0,0,0,4.9-11.034v-54.44a11.047,11.047,0,0,1,11.034-11.034h62.834ZM487.668,4290.17a11.046,11.046,0,0,1,11.034-11.034h29.1a11.048,11.048,0,0,1,8.146,3.591l8.828,9.657a5.175,5.175,0,0,0,3.824,1.688h24.341a11.05,11.05,0,0,1,11.035,11.036v.707H526.006a14.921,14.921,0,0,0-14.9,14.9v54.439a11.048,11.048,0,0,1-11.037,11.034H498.7a11.049,11.049,0,0,1-11.035-11.034V4290.17Z" transform="translate(-31.271 -35.051)" fill="#4b55c2" fill-rule="evenodd"/>
    <path id="path298" d="M592.141,4395.46a1.934,1.934,0,0,0-1.935,1.935v2.013a1.935,1.935,0,0,0,3.87,0v-2.013A1.934,1.934,0,0,0,592.141,4395.46Z" transform="translate(-31.271 -35.051)" fill="#4b55c2" fill-rule="evenodd"/>
    <path id="path300" d="M598.684,4395.46a1.934,1.934,0,0,0-1.935,1.935v2.013a1.935,1.935,0,0,0,3.87,0v-2.013A1.934,1.934,0,0,0,598.684,4395.46Z" transform="translate(-31.271 -35.051)" fill="#4b55c2" fill-rule="evenodd"/>
    <path id="path302" d="M603.292,4397.39v2.013a1.935,1.935,0,0,0,3.869,0v-2.013a1.935,1.935,0,0,0-3.869,0Z" transform="translate(-31.271 -35.051)" fill="#4b55c2" fill-rule="evenodd"/>
    <path id="path304" d="M585.6,4395.46a1.934,1.934,0,0,0-1.935,1.935v2.013a1.935,1.935,0,0,0,3.87,0v-2.013A1.934,1.934,0,0,0,585.6,4395.46Z" transform="translate(-31.271 -35.051)" fill="#4b55c2" fill-rule="evenodd"/>
    <path id="path306" d="M579.055,4395.46a1.933,1.933,0,0,0-1.935,1.935v2.013a1.935,1.935,0,0,0,3.869,0v-2.013A1.934,1.934,0,0,0,579.055,4395.46Z" transform="translate(-31.271 -35.051)" fill="#4b55c2" fill-rule="evenodd"/>
    <path id="path308" d="M583.229,4372.95a1.935,1.935,0,0,0-2.736,2.736l7.454,7.454a1.934,1.934,0,0,0,2.736,0l13.1-13.1a1.935,1.935,0,0,0-2.736-2.736l-11.738,11.738-6.085-6.087Z" transform="translate(-31.271 -35.051)" fill="#4b55c2" fill-rule="evenodd"/>
  </g>
</svg>
