<?xml version="1.0" encoding="UTF-8"?>
<!DOCTYPE svg PUBLIC "-//W3C//DTD SVG 1.1//EN" "http://www.w3.org/Graphics/SVG/1.1/DTD/svg11.dtd">
<!-- Creator: CorelDRAW X8 -->
<svg xmlns="http://www.w3.org/2000/svg" xml:space="preserve" width="1.777in" height="2in" version="1.1" style="shape-rendering:geometricPrecision; text-rendering:geometricPrecision; image-rendering:optimizeQuality; fill-rule:evenodd; clip-rule:evenodd"
viewBox="0 0 805 906"
 xmlns:xlink="http://www.w3.org/1999/xlink">
 <defs>
  <style type="text/css">
   <![CDATA[
    .str0 {stroke:#1A237E;stroke-width:36.5106}
    .fil1 {fill:#FEFEFE}
    .fil2 {fill:#1A237E}
    .fil0 {fill:#868EE0}
    .fil3 {fill:#FEFEFE;fill-rule:nonzero}
   ]]>
  </style>
 </defs>
 <g id="Layer_x0020_1">
  <metadata id="CorelCorpID_0Corel-Layer"/>
  <g id="_2490747953904">
   <rect class="fil0" y="85" width="669" height="720"/>
   <polygon class="fil1 str0" points="276,136 130,282 130,887 709,887 709,136 "/>
   <circle class="fil2" cx="669" cy="136" r="136"/>
   <g>
    <path class="fil3" d="M736 82c-5,-1 -10,-4 -14,-8 -4,-4 -7,-8 -8,-14l-1 -3 -88 0 -1 3c-1,6 -4,10 -8,14 -4,4 -9,7 -14,8l-4 1 0 32c0,22 7,43 19,61 13,17 30,31 50,39l2 0 2 0c20,-8 37,-22 50,-39 12,-18 19,-39 19,-61l0 -32 -4 -1zm-6 33c0,20 -6,39 -17,55 -11,16 -26,28 -44,35 -18,-7 -33,-19 -44,-35 -12,-16 -17,-35 -17,-55l0 -25c5,-2 10,-5 15,-9 4,-4 7,-9 9,-15l74 0c2,6 5,11 9,15 4,4 10,7 15,9l0 25z"/>
    <path class="fil3" d="M701 78l-1 -3 -62 0 -1 3c-2,3 -5,7 -8,9 -3,3 -6,6 -10,8l-2 2 0 18c0,18 5,35 15,50 9,13 21,23 35,29l2 1 2 -1c14,-6 26,-16 34,-29 11,-15 16,-32 16,-50l0 -18 -2 -2c-4,-2 -7,-5 -10,-8 -3,-2 -6,-6 -8,-9zm11 37c0,16 -5,31 -14,45 -8,10 -18,19 -29,25 -12,-6 -22,-15 -29,-25 -9,-14 -14,-29 -14,-45l0 -13c4,-2 7,-5 10,-8 3,-3 5,-6 7,-9l51 0c3,3 5,6 8,9 3,3 6,6 10,8l0 13z"/>
    <path class="fil3" d="M669 102c-10,0 -19,8 -19,19 0,8 6,16 14,18l0 16 10 0 0 -16c7,-2 13,-10 13,-18 0,-11 -8,-19 -18,-19zm0 28c-5,0 -9,-4 -9,-9 0,-5 4,-10 9,-10 5,0 9,5 9,10 0,5 -4,9 -9,9z"/>
   </g>
   <circle class="fil0" cx="249" cy="305" r="33"/>
   <rect class="fil0" x="216" y="368" width="408.695" height="65.2719"/>
   <rect class="fil0" x="216" y="465" width="408.695" height="32.636"/>
   <rect class="fil0" x="216" y="529" width="51.5769" height="286.464"/>
   <rect class="fil0" x="291" y="529" width="164" height="286"/>
   <rect class="fil0" x="478" y="529" width="81.9606" height="286.464"/>
   <rect class="fil0" x="584" y="529" width="40.9803" height="286.464"/>
  </g>
 </g>
</svg>
