<?xml version="1.0" encoding="UTF-8"?>
<!DOCTYPE svg PUBLIC "-//W3C//DTD SVG 1.1//EN" "http://www.w3.org/Graphics/SVG/1.1/DTD/svg11.dtd">
<!-- Creator: CorelDRAW X8 -->
<svg xmlns="http://www.w3.org/2000/svg" xml:space="preserve" width="4.45305in" height="3in" version="1.1" style="shape-rendering:geometricPrecision; text-rendering:geometricPrecision; image-rendering:optimizeQuality; fill-rule:evenodd; clip-rule:evenodd"
viewBox="0 0 3670 2473"
 xmlns:xlink="http://www.w3.org/1999/xlink">
 <defs>
  <style type="text/css">
   <![CDATA[
    .str0 {stroke:#1A237E;stroke-width:6.91175}
    .fil5 {fill:none}
    .fil0 {fill:#1A237E}
    .fil4 {fill:#868EE0}
    .fil3 {fill:#FEFEFE;fill-rule:nonzero}
    .fil2 {fill:#606062;fill-rule:nonzero}
    .fil1 {fill:#1A237E;fill-rule:nonzero}
   ]]>
  </style>
 </defs>
 <g id="Layer_x0020_1">
  <metadata id="CorelCorpID_0Corel-Layer"/>
  <g id="_2490747949456">
   <path class="fil0" d="M3221 274l-3097 0c-69,1 -124,56 -124,124l0 1951c0,68 55,123 124,124l3097 0c69,-1 124,-56 124,-124l0 -1951c0,-68 -55,-123 -124,-124zm8 1969c-2,69 -58,124 -128,124l-2859 0c-69,0 -126,-55 -127,-124l0 -1742c1,-70 58,-125 127,-124l2861 0c69,-1 126,54 127,124l0 1742 -1 0z"/>
   <polygon class="fil1" points="317,643 317,544 337,544 337,643 "/>
   <path id="1" class="fil1" d="M421 643l-19 0 0 -36c0,-8 0,-13 -1,-15 -1,-3 -2,-4 -4,-6 -2,-1 -4,-2 -7,-2 -3,0 -6,1 -8,3 -3,2 -5,4 -6,7 -1,3 -1,9 -1,17l0 32 -19 0 0 -72 17 0 0 11c7,-8 14,-12 24,-12 4,0 8,1 12,2 3,2 6,4 7,6 2,2 3,5 4,8 1,3 1,7 1,13l0 44z"/>
   <path id="2" class="fil1" d="M460 643l-29 -72 20 0 14 37 4 12c1,-3 1,-5 1,-6 1,-2 2,-4 3,-6l13 -37 20 0 -29 72 -17 0z"/>
   <path id="3" class="fil1" d="M513 606c0,-6 1,-12 5,-18 3,-6 7,-10 13,-13 5,-3 12,-5 19,-5 11,0 20,4 26,11 7,7 11,16 11,26 0,11 -4,20 -11,27 -7,7 -15,11 -26,11 -7,0 -13,-1 -19,-4 -6,-3 -10,-8 -13,-14 -4,-5 -5,-12 -5,-21zm19 2c0,7 2,12 5,16 4,4 8,6 13,6 5,0 9,-2 12,-6 4,-4 5,-9 5,-17 0,-7 -1,-12 -5,-16 -3,-4 -7,-6 -12,-6 -5,0 -9,2 -13,6 -3,4 -5,9 -5,17z"/>
   <path id="4" class="fil1" d="M602 562l0 -18 19 0 0 18 -19 0zm0 81l0 -72 19 0 0 72 -19 0z"/>
   <path id="5" class="fil1" d="M703 593l-19 3c-1,-4 -2,-6 -4,-8 -3,-2 -5,-3 -9,-3 -5,0 -8,2 -11,5 -3,3 -4,9 -4,16 0,9 1,15 4,18 3,4 6,6 11,6 4,0 7,-1 9,-4 2,-2 4,-5 5,-10l19 3c-2,9 -6,15 -12,19 -5,5 -12,7 -22,7 -10,0 -18,-3 -25,-10 -6,-7 -9,-16 -9,-27 0,-12 3,-22 9,-28 7,-7 15,-10 26,-10 8,0 15,2 21,6 5,3 8,9 11,17z"/>
   <path id="6" class="fil1" d="M759 621l18 3c-2,7 -6,12 -11,16 -5,3 -12,5 -20,5 -12,0 -21,-4 -27,-12 -5,-7 -7,-15 -7,-25 0,-12 3,-21 9,-28 6,-7 14,-10 23,-10 11,0 19,4 26,11 6,7 9,17 8,32l-47 0c0,6 2,10 5,13 3,3 6,5 10,5 3,0 6,-1 8,-3 2,-1 3,-4 5,-7zm1 -20c-1,-5 -2,-9 -5,-12 -2,-3 -6,-5 -9,-5 -5,0 -8,2 -11,5 -2,3 -4,7 -4,12l29 0z"/>
   <ellipse class="fil0" cx="3259" cy="412" rx="411" ry="412"/>
   <polygon class="fil2" points="343,886 343,816 317,816 317,806 380,806 380,816 354,816 354,886 "/>
   <path id="1" class="fil2" d="M373 857c0,-11 3,-19 9,-24 5,-4 11,-6 18,-6 8,0 15,3 20,8 5,5 7,12 7,21 0,7 -1,13 -3,17 -2,5 -6,8 -10,10 -4,3 -9,4 -14,4 -8,0 -14,-3 -19,-8 -5,-5 -8,-12 -8,-22zm10 0c0,7 2,13 5,16 3,4 7,6 12,6 5,0 9,-2 12,-6 4,-3 5,-9 5,-16 0,-7 -1,-13 -5,-16 -3,-4 -7,-6 -12,-6 -5,0 -9,2 -12,5 -3,4 -5,10 -5,17z"/>
   <path id="2" class="fil2" d="M441 886l0 -11 11 0 0 11c0,4 -1,7 -2,9 -1,3 -4,5 -7,6l-3 -4c3,-1 4,-2 5,-4 1,-2 1,-4 2,-7l-6 0z"/>
   <path id="3" class="fil2" d="M314 1009l31 -79 11 0 32 79 -12 0 -9 -24 -33 0 -9 24 -11 0zm23 -32l27 0 -8 -22c-3,-7 -5,-12 -6,-17 -1,5 -2,10 -4,15l-9 24z"/>
   <path id="4" class="fil2" d="M396 1009l0 -79 30 0c6,0 11,1 15,2 3,2 6,4 8,8 2,3 3,7 3,10 0,4 -1,7 -2,10 -2,3 -5,5 -9,7 5,1 9,4 11,7 3,4 4,8 4,12 0,4 -1,7 -2,11 -2,3 -4,5 -6,7 -2,2 -5,3 -9,4 -3,1 -7,1 -13,1l-30 0zm11 -46l17 0c5,0 8,0 10,-1 3,0 5,-2 6,-4 1,-1 2,-4 2,-7 0,-2 -1,-5 -2,-7 -1,-2 -3,-3 -5,-4 -3,0 -7,-1 -12,-1l-16 0 0 24zm0 37l20 0c3,0 5,0 7,-1 2,0 4,-1 6,-2 1,-1 3,-2 4,-4 1,-2 1,-4 1,-7 0,-3 0,-5 -2,-8 -2,-2 -4,-3 -6,-4 -3,-1 -7,-1 -12,-1l-18 0 0 27z"/>
   <path id="5" class="fil2" d="M527 981l10 3c-2,9 -6,15 -11,20 -6,4 -13,6 -21,6 -9,0 -16,-1 -21,-5 -5,-3 -10,-8 -12,-15 -3,-6 -4,-13 -4,-21 0,-8 1,-15 4,-22 3,-6 8,-10 14,-14 5,-3 12,-4 19,-4 8,0 14,2 20,6 5,4 9,9 11,17l-10 2c-2,-6 -5,-10 -8,-12 -4,-3 -8,-4 -13,-4 -6,0 -11,1 -16,4 -4,3 -7,7 -8,12 -2,5 -3,10 -3,15 0,7 1,13 3,18 2,5 5,8 9,11 5,2 9,4 14,4 6,0 11,-2 15,-6 4,-3 6,-8 8,-15z"/>
   <polygon id="6" class="fil2" points="581,1009 581,930 591,930 591,1000 630,1000 630,1009 "/>
   <path id="7" class="fil2" d="M663 1000l1 9c-3,1 -5,1 -7,1 -4,0 -7,-1 -9,-2 -2,-1 -3,-2 -4,-4 -1,-2 -1,-6 -1,-12l0 -33 -7 0 0 -7 7 0 0 -14 10 -6 0 20 10 0 0 7 -10 0 0 34c0,3 0,4 0,5 1,1 1,2 2,2 1,1 2,1 3,1 1,0 3,0 5,-1z"/>
   <path id="8" class="fil2" d="M709 1009l0 -7c-3,6 -9,8 -16,8 -4,0 -9,-1 -12,-3 -4,-3 -7,-6 -9,-11 -2,-4 -4,-10 -4,-15 0,-6 1,-11 3,-16 2,-5 5,-8 9,-11 4,-2 8,-3 13,-3 3,0 6,0 9,2 3,1 5,3 7,5l0 -28 9 0 0 79 -9 0zm-31 -28c0,7 2,12 5,16 3,4 7,5 11,5 4,0 8,-1 11,-5 3,-3 4,-9 4,-16 0,-7 -1,-13 -4,-17 -3,-4 -7,-5 -11,-5 -5,0 -8,1 -11,5 -3,3 -5,9 -5,17z"/>
   <polygon id="9" class="fil2" points="325,1133 325,1054 335,1054 335,1133 "/>
   <path id="10" class="fil2" d="M352 1133l0 -58 9 0 0 8c4,-6 10,-9 18,-9 4,0 7,1 10,2 3,1 5,3 6,5 2,2 3,4 3,7 1,2 1,5 1,9l0 36 -10 0 0 -35c0,-4 0,-7 -1,-9 -1,-2 -2,-4 -4,-5 -2,-1 -4,-1 -7,-1 -4,0 -7,1 -10,3 -3,3 -5,8 -5,15l0 32 -10 0z"/>
   <path id="11" class="fil2" d="M451 1133l0 -8c-4,6 -9,9 -16,9 -5,0 -9,-1 -13,-4 -3,-2 -6,-6 -9,-10 -2,-5 -3,-10 -3,-16 0,-6 1,-11 3,-15 2,-5 5,-9 9,-11 4,-3 8,-4 13,-4 3,0 6,1 9,2 2,2 5,4 6,6l0 -28 10 0 0 79 -9 0zm-31 -29c0,7 2,13 5,17 3,3 7,5 11,5 4,0 8,-2 11,-5 3,-4 4,-9 4,-16 0,-8 -1,-14 -4,-17 -3,-4 -7,-6 -12,-6 -4,0 -7,2 -10,5 -3,4 -5,10 -5,17z"/>
   <path id="12" class="fil2" d="M472 1104c0,-11 3,-18 9,-24 5,-4 11,-6 18,-6 8,0 14,3 19,8 5,5 8,12 8,21 0,8 -2,13 -4,18 -2,4 -5,7 -9,9 -5,3 -9,4 -14,4 -8,0 -15,-3 -20,-8 -5,-5 -7,-12 -7,-22zm10 0c0,7 1,13 5,17 3,3 7,5 12,5 5,0 9,-2 12,-6 3,-3 5,-9 5,-16 0,-7 -2,-13 -5,-16 -3,-4 -7,-6 -12,-6 -5,0 -9,2 -12,6 -4,3 -5,9 -5,16z"/>
   <path id="13" class="fil2" d="M537 1133l0 -58 9 0 0 9c2,-4 4,-7 6,-8 2,-1 4,-2 6,-2 3,0 7,1 10,3l-3 9c-3,-1 -5,-2 -7,-2 -3,0 -4,1 -6,2 -2,1 -3,3 -4,5 -1,4 -1,8 -1,12l0 30 -10 0z"/>
   <path id="14" class="fil2" d="M613 1114l10 1c-2,6 -4,11 -9,14 -4,3 -9,5 -16,5 -8,0 -15,-3 -20,-8 -5,-5 -7,-12 -7,-21 0,-10 2,-18 7,-23 5,-5 11,-8 19,-8 8,0 14,3 19,8 5,5 7,12 7,22 0,1 0,1 0,3l-42 0c0,6 2,11 5,14 3,3 7,5 12,5 3,0 7,-1 9,-3 3,-2 5,-5 6,-9zm-32 -15l32 0c0,-5 -2,-9 -4,-11 -3,-4 -7,-6 -12,-6 -4,0 -8,2 -11,5 -3,3 -5,7 -5,12z"/>
   <g>
    <path class="fil3" d="M3518 374c-2,-3 -6,-6 -10,-6l-32 0c-21,-112 -119,-196 -237,-196 -132,0 -240,107 -240,240 0,132 108,240 240,240 86,0 166,-46 208,-120 7,-10 3,-24 -8,-30 -10,-6 -23,-2 -29,8 -35,61 -101,98 -171,98 -108,0 -196,-88 -196,-196 0,-109 88,-197 196,-197 94,0 172,66 192,153l-32 0c-5,0 -8,3 -10,6 -2,4 -1,9 1,12l55 66c2,2 5,4 8,4 4,0 7,-2 9,-4l54 -66c3,-3 4,-8 2,-12z"/>
    <path class="fil3" d="M3239 226c-12,0 -21,10 -21,22l0 133c-10,6 -17,18 -17,31 0,21 17,38 38,38 6,0 12,-1 16,-4l76 44c4,2 8,3 11,3 8,0 15,-4 19,-11 6,-10 3,-24 -8,-30l-76 -43c-1,-12 -7,-22 -16,-28l0 -133c0,-12 -10,-22 -22,-22zm0 202c-9,0 -16,-7 -16,-16 0,-9 7,-17 16,-17 9,0 17,8 17,17 0,9 -8,16 -17,16z"/>
   </g>
   <rect class="fil4" x="317" y="1295" width="302" height="868"/>
   <rect class="fil4" x="786" y="1295" width="1027" height="868"/>
   <rect class="fil4" x="1980" y="1295" width="463" height="868"/>
   <rect class="fil4" x="2610" y="1295" width="463" height="868"/>
   <rect class="fil4" x="2300" y="936" width="774" height="198"/>
   <path class="fil3" d="M2357 1067l0 -79 28 0c6,0 11,1 14,1 4,1 8,3 11,6 5,4 8,8 10,14 2,5 3,11 3,18 0,6 -1,12 -2,16 -2,5 -3,9 -6,12 -2,3 -4,5 -7,7 -2,2 -6,3 -9,4 -4,1 -8,1 -13,1l-29 0zm11 -9l17 0c5,0 9,0 12,-1 3,-1 5,-3 7,-4 3,-3 5,-6 6,-10 1,-5 2,-10 2,-16 0,-8 -1,-14 -4,-19 -3,-4 -6,-7 -10,-9 -3,-1 -7,-1 -13,-1l-17 0 0 60z"/>
   <path id="1" class="fil3" d="M2474 1067l0 -8c-5,6 -11,10 -19,10 -3,0 -6,-1 -9,-2 -3,-2 -5,-3 -7,-5 -1,-2 -2,-4 -2,-7 -1,-2 -1,-5 -1,-9l0 -36 10 0 0 32c0,5 0,8 0,10 1,3 2,5 4,6 2,2 5,2 7,2 3,0 6,0 9,-2 2,-1 4,-3 5,-6 1,-3 2,-6 2,-11l0 -31 9 0 0 57 -8 0z"/>
   <path id="2" class="fil3" d="M2537 1049l10 1c-2,6 -5,11 -9,14 -4,3 -10,5 -16,5 -9,0 -15,-3 -20,-8 -5,-5 -8,-12 -8,-22 0,-9 3,-17 8,-22 5,-5 11,-8 19,-8 8,0 14,2 19,8 5,5 7,12 7,22 0,0 0,1 0,2l-43 0c1,7 3,11 6,15 3,3 7,5 12,5 3,0 6,-1 9,-3 2,-2 4,-5 6,-9zm-32 -16l32 0c-1,-5 -2,-8 -4,-11 -3,-3 -7,-5 -12,-5 -4,0 -8,1 -11,4 -3,3 -5,7 -5,12z"/>
   <path id="3" class="fil3" d="M2562 1021l0 -11 11 0 0 11 -11 0zm0 46l0 -11 11 0 0 11 -11 0z"/>
   <path id="4" class="fil3" d="M2669 1058l0 9 -52 0c-1,-2 0,-4 1,-6 1,-4 3,-7 6,-11 3,-3 7,-7 13,-12 8,-7 14,-12 17,-17 3,-4 5,-8 5,-11 0,-4 -1,-7 -4,-10 -3,-3 -7,-4 -11,-4 -5,0 -9,1 -11,4 -3,3 -5,7 -5,12l-10 -1c1,-8 4,-13 8,-17 5,-4 11,-6 18,-6 8,0 14,2 18,6 5,4 7,10 7,16 0,3 -1,6 -2,9 -1,3 -4,7 -7,10 -3,3 -8,8 -15,14 -5,5 -9,8 -11,10 -1,2 -3,3 -4,5l39 0z"/>
   <path id="5" class="fil3" d="M2716 1067l-10 0 0 -61c-2,2 -5,4 -9,6 -4,2 -7,4 -10,5l0 -9c5,-3 10,-6 14,-9 4,-4 7,-8 9,-11l6 0 0 79z"/>
   <path id="6" class="fil3" d="M2746 1067l0 -11 11 0 0 11c0,5 0,8 -2,10 -1,3 -4,5 -7,6l-2 -4c2,-1 3,-2 4,-4 1,-2 2,-4 2,-8l-6 0z"/>
   <path id="7" class="fil3" d="M2823 1058l0 9 -53 0c0,-2 1,-4 1,-6 2,-4 4,-7 7,-11 3,-3 7,-7 13,-12 8,-7 14,-12 17,-17 3,-4 5,-8 5,-11 0,-4 -2,-7 -4,-10 -3,-3 -7,-4 -11,-4 -5,0 -9,1 -12,4 -2,3 -4,7 -4,12l-10 -1c1,-8 3,-13 8,-17 4,-4 10,-6 18,-6 8,0 14,2 18,6 4,4 7,10 7,16 0,3 -1,6 -2,9 -2,3 -4,7 -7,10 -3,3 -8,8 -15,14 -6,5 -9,8 -11,10 -2,2 -3,3 -4,5l39 0z"/>
   <path id="8" class="fil3" d="M2870 1067l-10 0 0 -61c-2,2 -5,4 -9,6 -4,2 -7,4 -10,5l0 -9c5,-3 10,-6 14,-9 4,-4 7,-8 8,-11l7 0 0 79z"/>
   <path id="9" class="fil3" d="M2926 1067l0 -18 -35 0 0 -9 37 -52 8 0 0 52 10 0 0 9 -10 0 0 18 -10 0zm0 -27l0 -36 -25 36 25 0z"/>
   <polygon id="10" class="fil3" points="2952,1069 2975,987 2982,987 2959,1069 "/>
   <polygon id="11" class="fil3" points="2986,1044 2986,1034 3016,1034 3016,1044 "/>
   <line class="fil5 str0" x1="255" y1="1223" x2="3090" y2= "1223" />
  </g>
 </g>
</svg>
