<svg xmlns="http://www.w3.org/2000/svg" width="306.258" height="57.598" viewBox="0 0 306.258 57.598">
  <g id="Group_4" data-name="Group 4" transform="translate(-440.577 -194.478)">
    <path id="path40" d="M505.249,284.948h12.078V230.137H505.25Z" transform="translate(12.107 -34.265)" fill="#fff" fill-rule="evenodd"/>
    <path id="path42" d="M571.825,284.949H552.083c-16.335,0-30.813-9.523-30.813-27.255,0-20.052,14.787-27.561,32.439-27.561h18.116v25.616H559.748V241.285h-7.122c-10.22,0-18.814,5.032-18.814,15.79,0,12.465,8.436,16.723,19.665,16.723h18.349Z" transform="translate(32.913 -34.264)" fill="#fff" fill-rule="evenodd"/>
    <path id="path44" d="M584.367,284.948h12.077v-23.69H619.9v23.69h12.077V230.137H619.9v20.438H596.444V230.137H584.367Z" transform="translate(114.857 -34.265)" fill="#fff" fill-rule="evenodd"/>
    <path id="path46" d="M555.543,230.137h19.742c16.335,0,30.813,9.523,30.813,27.255,0,20.052-14.787,27.561-32.439,27.561H555.543V259.334H567.62V273.8h7.122c10.219,0,18.814-5.032,18.814-15.79,0-12.464-8.436-16.723-19.665-16.723H555.543Z" transform="translate(77.423 -34.265)" fill="#fff" fill-rule="evenodd"/>
    <path id="path48" d="M524.414,253.22H502.97v11.148H512.8v8.905a23.645,23.645,0,0,1-11.381,2.71c-10.3,0-17.031-7.432-17.031-17.651s6.735-17.651,17.031-17.651c6.116,0,10.064,1.781,13.316,5.187l8.516-9.294c-5.5-5.11-13.161-7.045-21.832-7.045-17.109,0-29.573,11.226-29.573,28.8s12.464,28.8,29.573,28.8a49.16,49.16,0,0,0,22.993-5.263Z" transform="translate(-31.271 -35.051)" fill="#fff" fill-rule="evenodd"/>
  </g>
</svg>
