<svg xmlns="http://www.w3.org/2000/svg" width="347.258" height="200" viewBox="0 0 347.258 200"><defs><style>.a,.c{fill:#fff;}.a,.b,.c{stroke:#1a237e;}.a,.b{stroke-linecap:round;stroke-miterlimit:10;stroke-width:2px;}.b,.h{fill:none;}.c{stroke-width:5px;}.d,.e{fill:#26263a;}.d{font-size:10px;font-family:Roboto-Medium, Roboto;font-weight:500;}.e{font-size:8px;font-family:Roboto-Regular, Roboto;}.f{fill:#1a237e;}.g{stroke:none;}</style></defs><g transform="translate(-119.87 -2341.8)"><line class="a" x2="314.726" transform="translate(120.87 2535.483)"/><line class="b" x2="19.916" transform="translate(446.213 2535.483)"/><g class="c" transform="translate(135.574 2375.867)"><rect class="g" width="122.275" height="159.49" rx="3"/><rect class="h" x="2.5" y="2.5" width="117.275" height="154.49" rx="0.5"/></g><text class="d" transform="translate(148.334 2399.166)"><tspan x="0" y="0">Contacts</tspan></text><text class="e" transform="translate(165.07 2423.26)"><tspan x="0" y="0">Customer Total </tspan></text><text class="e" transform="translate(165.07 2445.589)"><tspan x="0" y="0">Customer Due</tspan></text><text class="e" transform="translate(165.07 2467.918)"><tspan x="0" y="0">Vendor Total</tspan></text><text class="e" transform="translate(165.07 2489.183)"><tspan x="0" y="0">Vendor Due</tspan></text><text class="e" transform="translate(165.07 2511.511)"><tspan x="0" y="0">Aging Report</tspan></text><path class="f" d="M0,4.558a2.054,2.054,0,0,1,.614-.527.75.75,0,0,1,.85.112,1.923,1.923,0,0,1,.487.729c.1.229.187.462.285.706.025-.035.046-.065.065-.1A18.149,18.149,0,0,1,4.236,2.936,17.3,17.3,0,0,1,6.822.587c.269-.192.55-.364.825-.548C7.7,0,7.734.01,7.775.06c.063.077.133.146.2.223C7.963.3,7.955.312,7.944.321A16.511,16.511,0,0,0,4.011,4.783c-.383.614-.729,1.251-1.1,1.876a.476.476,0,0,1-.127.137Q2.3,7.15,1.8,7.5l-.085.062A5.679,5.679,0,0,0,0,4.558Z" transform="translate(152.587 2417.32)"/><path class="f" d="M0,4.558a2.054,2.054,0,0,1,.614-.527.75.75,0,0,1,.85.112,1.923,1.923,0,0,1,.487.729c.1.229.187.462.285.706.025-.035.046-.065.065-.1A18.149,18.149,0,0,1,4.236,2.936,17.3,17.3,0,0,1,6.822.587c.269-.192.55-.364.825-.548C7.7,0,7.734.01,7.775.06c.063.077.133.146.2.223C7.963.3,7.955.312,7.944.321A16.511,16.511,0,0,0,4.011,4.783c-.383.614-.729,1.251-1.1,1.876a.476.476,0,0,1-.127.137Q2.3,7.15,1.8,7.5l-.085.062A5.679,5.679,0,0,0,0,4.558Z" transform="translate(152.587 2439.649)"/><path class="f" d="M0,4.558a2.054,2.054,0,0,1,.614-.527.75.75,0,0,1,.85.112,1.923,1.923,0,0,1,.487.729c.1.229.187.462.285.706.025-.035.046-.065.065-.1A18.149,18.149,0,0,1,4.236,2.936,17.3,17.3,0,0,1,6.822.587c.269-.192.55-.364.825-.548C7.7,0,7.734.01,7.775.06c.063.077.133.146.2.223C7.963.3,7.955.312,7.944.321A16.511,16.511,0,0,0,4.011,4.783c-.383.614-.729,1.251-1.1,1.876a.476.476,0,0,1-.127.137Q2.3,7.15,1.8,7.5l-.085.062A5.679,5.679,0,0,0,0,4.558Z" transform="translate(152.587 2461.977)"/><path class="f" d="M0,4.558a2.054,2.054,0,0,1,.614-.527.75.75,0,0,1,.85.112,1.923,1.923,0,0,1,.487.729c.1.229.187.462.285.706.025-.035.046-.065.065-.1A18.149,18.149,0,0,1,4.236,2.936,17.3,17.3,0,0,1,6.822.587c.269-.192.55-.364.825-.548C7.7,0,7.734.01,7.775.06c.063.077.133.146.2.223C7.963.3,7.955.312,7.944.321A16.511,16.511,0,0,0,4.011,4.783c-.383.614-.729,1.251-1.1,1.876a.476.476,0,0,1-.127.137Q2.3,7.15,1.8,7.5l-.085.062A5.679,5.679,0,0,0,0,4.558Z" transform="translate(152.587 2484.306)"/><path class="f" d="M0,4.558a2.054,2.054,0,0,1,.614-.527.75.75,0,0,1,.85.112,1.923,1.923,0,0,1,.487.729c.1.229.187.462.285.706.025-.035.046-.065.065-.1A18.149,18.149,0,0,1,4.236,2.936,17.3,17.3,0,0,1,6.822.587c.269-.192.55-.364.825-.548C7.7,0,7.734.01,7.775.06c.063.077.133.146.2.223C7.963.3,7.955.312,7.944.321A16.511,16.511,0,0,0,4.011,4.783c-.383.614-.729,1.251-1.1,1.876a.476.476,0,0,1-.127.137Q2.3,7.15,1.8,7.5l-.085.062A5.679,5.679,0,0,0,0,4.558Z" transform="translate(152.587 2506.635)"/><g class="c" transform="translate(217.568 2341.8)"><rect class="g" width="122.275" height="159.49" rx="3"/><rect class="h" x="2.5" y="2.5" width="117.275" height="154.49" rx="0.5"/></g><text class="d" transform="translate(230.328 2365.098)"><tspan x="0" y="0">Inventory</tspan></text><text class="e" transform="translate(247.064 2389.193)"><tspan x="0" y="0">Date wise stock</tspan></text><text class="e" transform="translate(247.064 2411.522)"><tspan x="0" y="0">Item wise stock</tspan></text><text class="e" transform="translate(247.064 2433.851)"><tspan x="0" y="0">Sales</tspan></text><text class="e" transform="translate(247.064 2455.116)"><tspan x="0" y="0">Manufacturing</tspan></text><text class="e" transform="translate(247.064 2477.444)"><tspan x="0" y="0">In/Out Inventory</tspan></text><path class="f" d="M0,4.558a2.054,2.054,0,0,1,.614-.527.75.75,0,0,1,.85.112,1.923,1.923,0,0,1,.487.729c.1.229.187.462.285.706.025-.035.046-.065.065-.1A18.149,18.149,0,0,1,4.236,2.936,17.3,17.3,0,0,1,6.822.587c.269-.192.55-.364.825-.548C7.7,0,7.734.01,7.775.06c.063.077.133.146.2.223C7.963.3,7.955.312,7.944.321A16.511,16.511,0,0,0,4.011,4.783c-.383.614-.729,1.251-1.1,1.876a.476.476,0,0,1-.127.137Q2.3,7.15,1.8,7.5l-.085.062A5.679,5.679,0,0,0,0,4.558Z" transform="translate(234.58 2384.253)"/><path class="f" d="M0,4.558a2.054,2.054,0,0,1,.614-.527.75.75,0,0,1,.85.112,1.923,1.923,0,0,1,.487.729c.1.229.187.462.285.706.025-.035.046-.065.065-.1A18.149,18.149,0,0,1,4.236,2.936,17.3,17.3,0,0,1,6.822.587c.269-.192.55-.364.825-.548C7.7,0,7.734.01,7.775.06c.063.077.133.146.2.223C7.963.3,7.955.312,7.944.321A16.511,16.511,0,0,0,4.011,4.783c-.383.614-.729,1.251-1.1,1.876a.476.476,0,0,1-.127.137Q2.3,7.15,1.8,7.5l-.085.062A5.679,5.679,0,0,0,0,4.558Z" transform="translate(234.58 2406.582)"/><path class="f" d="M0,4.558a2.054,2.054,0,0,1,.614-.527.75.75,0,0,1,.85.112,1.923,1.923,0,0,1,.487.729c.1.229.187.462.285.706.025-.035.046-.065.065-.1A18.149,18.149,0,0,1,4.236,2.936,17.3,17.3,0,0,1,6.822.587c.269-.192.55-.364.825-.548C7.7,0,7.734.01,7.775.06c.063.077.133.146.2.223C7.963.3,7.955.312,7.944.321A16.511,16.511,0,0,0,4.011,4.783c-.383.614-.729,1.251-1.1,1.876a.476.476,0,0,1-.127.137Q2.3,7.15,1.8,7.5l-.085.062A5.679,5.679,0,0,0,0,4.558Z" transform="translate(234.58 2428.91)"/><path class="f" d="M0,4.558a2.054,2.054,0,0,1,.614-.527.75.75,0,0,1,.85.112,1.923,1.923,0,0,1,.487.729c.1.229.187.462.285.706.025-.035.046-.065.065-.1A18.149,18.149,0,0,1,4.236,2.936,17.3,17.3,0,0,1,6.822.587c.269-.192.55-.364.825-.548C7.7,0,7.734.01,7.775.06c.063.077.133.146.2.223C7.963.3,7.955.312,7.944.321A16.511,16.511,0,0,0,4.011,4.783c-.383.614-.729,1.251-1.1,1.876a.476.476,0,0,1-.127.137Q2.3,7.15,1.8,7.5l-.085.062A5.679,5.679,0,0,0,0,4.558Z" transform="translate(234.58 2451.239)"/><path class="f" d="M0,4.558a2.054,2.054,0,0,1,.614-.527.75.75,0,0,1,.85.112,1.923,1.923,0,0,1,.487.729c.1.229.187.462.285.706.025-.035.046-.065.065-.1A18.149,18.149,0,0,1,4.236,2.936,17.3,17.3,0,0,1,6.822.587c.269-.192.55-.364.825-.548C7.7,0,7.734.01,7.775.06c.063.077.133.146.2.223C7.963.3,7.955.312,7.944.321A16.511,16.511,0,0,0,4.011,4.783c-.383.614-.729,1.251-1.1,1.876a.476.476,0,0,1-.127.137Q2.3,7.15,1.8,7.5l-.085.062A5.679,5.679,0,0,0,0,4.558Z" transform="translate(234.58 2473.567)"/><g class="c" transform="translate(310.179 2382.31)"><rect class="g" width="122.275" height="159.49" rx="3"/><rect class="h" x="2.5" y="2.5" width="117.275" height="154.49" rx="0.5"/></g><text class="d" transform="translate(322.938 2405.609)"><tspan x="0" y="0">Invoice</tspan></text><text class="e" transform="translate(339.674 2429.704)"><tspan x="0" y="0">Recurring Invoice</tspan></text><text class="e" transform="translate(339.674 2452.032)"><tspan x="0" y="0">Invoice Due Date</tspan></text><text class="e" transform="translate(339.674 2474.361)"><tspan x="0" y="0">Receipts</tspan></text><text class="e" transform="translate(339.674 2495.626)"><tspan x="0" y="0">Payment</tspan></text><text class="e" transform="translate(339.674 2517.955)"><tspan x="0" y="0">Debit Note</tspan></text><path class="f" d="M0,4.558a2.054,2.054,0,0,1,.614-.527.75.75,0,0,1,.85.112,1.923,1.923,0,0,1,.487.729c.1.229.187.462.285.706.025-.035.046-.065.065-.1A18.149,18.149,0,0,1,4.236,2.936,17.3,17.3,0,0,1,6.822.587c.269-.192.55-.364.825-.548C7.7,0,7.734.01,7.775.06c.063.077.133.146.2.223C7.963.3,7.955.312,7.944.321A16.511,16.511,0,0,0,4.011,4.783c-.383.614-.729,1.251-1.1,1.876a.476.476,0,0,1-.127.137Q2.3,7.15,1.8,7.5l-.085.062A5.679,5.679,0,0,0,0,4.558Z" transform="translate(327.19 2424.763)"/><path class="f" d="M0,4.558a2.054,2.054,0,0,1,.614-.527.75.75,0,0,1,.85.112,1.923,1.923,0,0,1,.487.729c.1.229.187.462.285.706.025-.035.046-.065.065-.1A18.149,18.149,0,0,1,4.236,2.936,17.3,17.3,0,0,1,6.822.587c.269-.192.55-.364.825-.548C7.7,0,7.734.01,7.775.06c.063.077.133.146.2.223C7.963.3,7.955.312,7.944.321A16.511,16.511,0,0,0,4.011,4.783c-.383.614-.729,1.251-1.1,1.876a.476.476,0,0,1-.127.137Q2.3,7.15,1.8,7.5l-.085.062A5.679,5.679,0,0,0,0,4.558Z" transform="translate(327.19 2447.092)"/><path class="f" d="M0,4.558a2.054,2.054,0,0,1,.614-.527.75.75,0,0,1,.85.112,1.923,1.923,0,0,1,.487.729c.1.229.187.462.285.706.025-.035.046-.065.065-.1A18.149,18.149,0,0,1,4.236,2.936,17.3,17.3,0,0,1,6.822.587c.269-.192.55-.364.825-.548C7.7,0,7.734.01,7.775.06c.063.077.133.146.2.223C7.963.3,7.955.312,7.944.321A16.511,16.511,0,0,0,4.011,4.783c-.383.614-.729,1.251-1.1,1.876a.476.476,0,0,1-.127.137Q2.3,7.15,1.8,7.5l-.085.062A5.679,5.679,0,0,0,0,4.558Z" transform="translate(327.19 2469.42)"/><path class="f" d="M0,4.558a2.054,2.054,0,0,1,.614-.527.75.75,0,0,1,.85.112,1.923,1.923,0,0,1,.487.729c.1.229.187.462.285.706.025-.035.046-.065.065-.1A18.149,18.149,0,0,1,4.236,2.936,17.3,17.3,0,0,1,6.822.587c.269-.192.55-.364.825-.548C7.7,0,7.734.01,7.775.06c.063.077.133.146.2.223C7.963.3,7.955.312,7.944.321A16.511,16.511,0,0,0,4.011,4.783c-.383.614-.729,1.251-1.1,1.876a.476.476,0,0,1-.127.137Q2.3,7.15,1.8,7.5l-.085.062A5.679,5.679,0,0,0,0,4.558Z" transform="translate(327.19 2491.749)"/><path class="f" d="M0,4.558a2.054,2.054,0,0,1,.614-.527.75.75,0,0,1,.85.112,1.923,1.923,0,0,1,.487.729c.1.229.187.462.285.706.025-.035.046-.065.065-.1A18.149,18.149,0,0,1,4.236,2.936,17.3,17.3,0,0,1,6.822.587c.269-.192.55-.364.825-.548C7.7,0,7.734.01,7.775.06c.063.077.133.146.2.223C7.963.3,7.955.312,7.944.321A16.511,16.511,0,0,0,4.011,4.783c-.383.614-.729,1.251-1.1,1.876a.476.476,0,0,1-.127.137Q2.3,7.15,1.8,7.5l-.085.062A5.679,5.679,0,0,0,0,4.558Z" transform="translate(327.19 2514.078)"/></g></svg>