<svg width="60" height="60" viewBox="0 0 60 60" fill="none" xmlns="http://www.w3.org/2000/svg">
<path fill-rule="evenodd" clip-rule="evenodd" d="M31.5 5C31.5 4.17157 32.1716 3.5 33 3.5H44.5C49.7467 3.5 54 7.7533 54 13V47C54 52.2467 49.7467 56.5 44.5 56.5H20.5C15.2533 56.5 11 52.2467 11 47V33.5C11 32.6716 11.6716 32 12.5 32C13.3284 32 14 32.6716 14 33.5V47C14 50.5898 16.9102 53.5 20.5 53.5H44.5C48.0898 53.5 51 50.5898 51 47V13C51 9.41015 48.0898 6.5 44.5 6.5H33C32.1716 6.5 31.5 5.82843 31.5 5Z" fill="#1A237E"/>
<path fill-rule="evenodd" clip-rule="evenodd" d="M38.125 21C38.9534 21 39.625 21.6716 39.625 22.5V25.1677C41.9466 25.217 43.8438 27.0959 43.8438 29.4444C43.8438 30.2729 43.1722 30.9444 42.3438 30.9444C41.5153 30.9444 40.8438 30.2729 40.8438 29.4444C40.8438 28.7563 40.2737 28.1667 39.5312 28.1667H36.7188C35.1996 28.1667 34 29.3781 34 30.8333C34 32.2886 35.1996 33.5 36.7188 33.5H39.5312C42.672 33.5 45.25 36.0195 45.25 39.1667C45.25 42.2824 42.7231 44.783 39.625 44.8326V47.5C39.625 48.3284 38.9534 49 38.125 49C37.2966 49 36.625 48.3284 36.625 47.5V44.8333H35.3125C32.9484 44.8333 31 42.9356 31 40.5556C31 39.7271 31.6716 39.0556 32.5 39.0556C33.3284 39.0556 34 39.7271 34 40.5556C34 41.2437 34.57 41.8333 35.3125 41.8333H39.5312C41.0504 41.8333 42.25 40.6219 42.25 39.1667C42.25 37.7114 41.0504 36.5 39.5312 36.5H36.7188C33.578 36.5 31 33.9805 31 30.8333C31 27.7176 33.5269 25.217 36.625 25.1674V22.5C36.625 21.6716 37.2966 21 38.125 21Z" fill="#1A237E"/>
<path d="M3.11741 16.029C2.73739 15.3956 2.73739 14.6044 3.11741 13.971L9.41741 3.47101C9.77886 2.8686 10.4299 2.5 11.1324 2.5L23.8676 2.5C24.5702 2.5 25.2212 2.8686 25.5826 3.47101L31.8826 13.971C32.2626 14.6044 32.2626 15.3956 31.8826 16.029L25.5826 26.529C25.2212 27.1314 24.5702 27.5 23.8676 27.5H11.1324C10.4299 27.5 9.77886 27.1314 9.41741 26.529L3.11741 16.029Z" fill="#668CFF" fill-opacity="0.15"/>
<path fill-rule="evenodd" clip-rule="evenodd" d="M5.99859 15L11.6986 24.5H23.3014L29.0014 15L23.3014 5.5L11.6986 5.5L5.99859 15ZM3.11741 13.971C2.73739 14.6044 2.73739 15.3956 3.11741 16.029L9.41741 26.529C9.77886 27.1314 10.4299 27.5 11.1324 27.5H23.8676C24.5702 27.5 25.2212 27.1314 25.5826 26.529L31.8826 16.029C32.2626 15.3956 32.2626 14.6044 31.8826 13.971L25.5826 3.47101C25.2212 2.8686 24.5702 2.5 23.8676 2.5H11.1324C10.4299 2.5 9.77886 2.8686 9.41741 3.47101L3.11741 13.971Z" fill="#1A237E"/>
<path d="M17.5 17C18.8807 17 20 15.8807 20 14.5C20 13.1193 18.8807 12 17.5 12C16.1193 12 15 13.1193 15 14.5C15 15.8807 16.1193 17 17.5 17Z" fill="#1A237E"/>
</svg>
