<?xml version="1.0" encoding="UTF-8"?>
<!DOCTYPE svg PUBLIC "-//W3C//DTD SVG 1.1//EN" "http://www.w3.org/Graphics/SVG/1.1/DTD/svg11.dtd">
<!-- Creator: CorelDRAW X8 -->
<svg xmlns="http://www.w3.org/2000/svg" xml:space="preserve" width="1.37287in" height="1.37287in" version="1.1" style="shape-rendering:geometricPrecision; text-rendering:geometricPrecision; image-rendering:optimizeQuality; fill-rule:evenodd; clip-rule:evenodd"
viewBox="0 0 160 160"
 xmlns:xlink="http://www.w3.org/1999/xlink">
 <defs>
  <style type="text/css">
   <![CDATA[
    .fil0 {fill:#4B55C2;fill-rule:nonzero}
   ]]>
  </style>
 </defs>
 <g id="Layer_x0020_1">
  <metadata id="CorelCorpID_0Corel-Layer"/>
  <g id="_2122847654000">
   <path class="fil0" d="M133 133c-7,7 -15,12 -24,16 -9,4 -19,6 -29,6 -10,0 -20,-2 -29,-6 -9,-4 -17,-9 -24,-16 -7,-7 -12,-15 -16,-24 -4,-9 -6,-19 -6,-29 0,-10 2,-20 6,-29 4,-9 9,-17 16,-24 7,-7 15,-12 24,-16 9,-4 19,-6 29,-6 10,0 20,2 29,6 9,4 17,9 24,16 7,7 12,15 16,24 4,9 6,19 6,29 0,10 -2,20 -6,29 -4,9 -9,17 -16,24zm4 -110c-8,-7 -17,-13 -26,-17 -10,-4 -20,-6 -31,-6 -11,0 -21,2 -31,6 -9,4 -18,10 -26,17 -7,8 -13,17 -17,26 -4,10 -6,20 -6,31 0,11 2,21 6,31 4,9 10,18 17,26 8,7 17,13 26,17 10,4 20,6 31,6 11,0 21,-2 31,-6 9,-4 18,-10 26,-17 7,-8 13,-17 17,-26 4,-10 6,-20 6,-31 0,-11 -2,-21 -6,-31 -4,-9 -10,-18 -17,-26z"/>
   <g>
    <path class="fil0" d="M34 93c-2,-8 -2,-17 0,-25 2,-8 6,-15 12,-22 4,-3 8,-6 13,-9 5,-2 9,-3 15,-4 5,-1 10,-1 15,0 4,1 8,2 12,4l3 -4c-5,-2 -9,-4 -14,-5 -6,-1 -11,-1 -17,0 -6,0 -11,2 -16,5 -6,2 -10,6 -14,10 -7,7 -12,15 -14,24 -2,9 -2,19 0,28l2 4 -11 -4 -2 5 20 8 8 -19 -5 -2 -5 12 -2 -6z"/>
    <path class="fil0" d="M142 60l-20 -8 -8 19 5 2 5 -12 2 6c2,8 2,17 0,25 -2,8 -6,16 -12,22 -4,3 -8,6 -13,9 -4,2 -9,3 -15,4 -5,1 -10,1 -15,0 -4,-1 -8,-2 -12,-4l-3 4c4,2 7,3 11,4 4,1 9,2 13,2 1,0 2,0 4,0l0 0c1,0 2,0 3,-1 6,0 11,-2 16,-5 6,-2 10,-5 14,-10 7,-6 12,-15 14,-24 3,-9 2,-19 0,-28l-2 -4 11 4 2 -5z"/>
   </g>
  </g>
 </g>
</svg>
