<svg width="60" height="60" viewBox="0 0 60 60" fill="none" xmlns="http://www.w3.org/2000/svg">
<path d="M9 10C9 6.13401 12.134 3 16 3H37.3431C38.404 3 39.4214 3.42143 40.1716 4.17157L50.8284 14.8284C51.5786 15.5786 52 16.596 52 17.6569V50C52 53.866 48.866 57 45 57H16C12.134 57 9 53.866 9 50V10Z" fill="#F0F5FF"/>
<path d="M37 18L49.75 18L37 5.25V18Z" fill="#FFEDEF"/>
<path d="M40.5 32.65C41.2456 32.65 41.85 33.2544 41.85 34V35.3529C43.3507 35.5846 44.475 36.8966 44.475 38.4445C44.475 39.1901 43.8706 39.7945 43.125 39.7945C42.3794 39.7945 41.775 39.1901 41.775 38.4445C41.775 38.1881 41.576 38.0167 41.375 38.0167H39.625C38.9408 38.0167 38.35 38.5861 38.35 39.3334C38.35 40.0807 38.9408 40.65 39.625 40.65H41.375C43.5903 40.65 45.35 42.4685 45.35 44.6667C45.35 46.7052 43.8367 48.4172 41.85 48.6551V50C41.85 50.7456 41.2456 51.35 40.5 51.35C39.7544 51.35 39.15 50.7456 39.15 50V48.6834H38.75C37.018 48.6834 35.65 47.2629 35.65 45.5556C35.65 44.81 36.2544 44.2056 37 44.2056C37.7456 44.2056 38.35 44.81 38.35 45.5556C38.35 45.812 38.5491 45.9834 38.75 45.9834H41.375C42.0592 45.9834 42.65 45.414 42.65 44.6667C42.65 43.9194 42.0592 43.35 41.375 43.35H39.625C37.4097 43.35 35.65 41.5316 35.65 39.3334C35.65 37.2948 37.1634 35.5829 39.15 35.3449V34C39.15 33.2544 39.7544 32.65 40.5 32.65Z" fill="#1A237E"/>
<path d="M17.5 15C17.5 14.1716 18.1716 13.5 19 13.5H29C29.8284 13.5 30.5 14.1716 30.5 15C30.5 15.8284 29.8284 16.5 29 16.5H19C18.1716 16.5 17.5 15.8284 17.5 15Z" fill="#1A237E"/>
<path d="M17.5 26C17.5 25.1716 18.1716 24.5 19 24.5H43C43.8284 24.5 44.5 25.1716 44.5 26C44.5 26.8284 43.8284 27.5 43 27.5H19C18.1716 27.5 17.5 26.8284 17.5 26Z" fill="#1A237E"/>
<path fill-rule="evenodd" clip-rule="evenodd" d="M9 10C9 6.13401 12.134 3 16 3H37.3431C38.404 3 39.4214 3.42143 40.1716 4.17157L50.8284 14.8284C51.5786 15.5786 52 16.596 52 17.6569V50C52 53.866 48.866 57 45 57H16C12.134 57 9 53.866 9 50V10ZM35.5 6H16C13.7909 6 12 7.79086 12 10V50C12 52.2091 13.7909 54 16 54H45C47.2091 54 49 52.2091 49 50V19.5H39C37.067 19.5 35.5 17.933 35.5 16V6ZM48.2574 16.5L38.5 6.74264V16C38.5 16.2761 38.7239 16.5 39 16.5H48.2574Z" fill="#1A237E"/>
</svg>
