<svg width="60" height="60" viewBox="0 0 60 60" fill="none" xmlns="http://www.w3.org/2000/svg">
<path d="M37.3343 3.13745C41.0157 1.95697 44.957 3.98433 46.1374 7.66568L56.5193 40.0419C57.6998 43.7232 55.6725 47.6645 51.9911 48.845L38.6597 53.1199C34.9784 54.3004 31.0371 52.273 29.8566 48.5916L19.4747 16.2155C18.2942 12.5341 20.3216 8.59282 24.003 7.41234L37.3343 3.13745Z" fill="#F0F5FF"/>
<path fill-rule="evenodd" clip-rule="evenodd" d="M53.6626 40.9579L43.2807 8.58173C42.6062 6.4781 40.354 5.31961 38.2504 5.99417L24.919 10.2691C22.8154 10.9436 21.6569 13.1958 22.3314 15.2994L32.7133 47.6756C33.3879 49.7792 35.6401 50.9377 37.7437 50.2632L51.0751 45.9883C53.1787 45.3137 54.3372 43.0615 53.6626 40.9579ZM46.1374 7.66568C44.957 3.98433 41.0157 1.95697 37.3343 3.13745L24.003 7.41234C20.3216 8.59282 18.2942 12.5341 19.4747 16.2155L29.8566 48.5916C31.0371 52.273 34.9784 54.3004 38.6597 53.1199L51.9911 48.845C55.6725 47.6645 57.6998 43.7232 56.5193 40.0419L46.1374 7.66568Z" fill="#1A237E"/>
<path fill-rule="evenodd" clip-rule="evenodd" d="M44.0532 15.7498C44.2808 16.4597 43.8899 17.2199 43.1799 17.4475L41.8916 17.8606C42.1293 19.3603 41.2231 20.8316 39.7492 21.3043C39.0393 21.5319 38.2792 21.1409 38.0515 20.431C37.8238 19.721 38.2148 18.9609 38.9248 18.7332C39.1689 18.6549 39.2714 18.413 39.21 18.2217L38.6756 16.5553C38.4667 15.9038 37.7441 15.515 37.0325 15.7432C36.3209 15.9714 35.9592 16.7078 36.1681 17.3594L36.7024 19.0258C37.3789 21.1353 36.1846 23.3662 34.0914 24.0374C32.1502 24.6599 30.0579 23.7416 29.2247 21.9225L27.944 22.3331C27.2341 22.5608 26.474 22.1698 26.2463 21.4598C26.0186 20.7498 26.4096 19.9897 27.1196 19.7621L28.3734 19.36L28.2512 18.9791C27.7224 17.3298 28.6573 15.5934 30.283 15.0721C30.993 14.8445 31.7531 15.2354 31.9808 15.9454C32.2085 16.6554 31.8175 17.4155 31.1075 17.6432C30.8634 17.7214 30.7609 17.9633 30.8223 18.1547L31.6238 20.6543C31.8327 21.3058 32.5553 21.6946 33.2669 21.4664C33.9785 21.2382 34.3403 20.5017 34.1314 19.8502L33.597 18.1838C32.9206 16.0743 34.1149 13.8434 36.2081 13.1722C38.1493 12.5497 40.2416 13.468 41.0748 15.2871L42.3554 14.8765C43.0654 14.6488 43.8255 15.0398 44.0532 15.7498Z" fill="#1A237E"/>
<path d="M14.7963 13.5972C17.1179 10.5059 21.506 9.88208 24.5972 12.2038L51.7835 32.622C54.8748 34.9437 55.4986 39.3317 53.1769 42.4229L44.7694 53.6173C42.4478 56.7085 38.0597 57.3324 34.9685 55.0107L7.78218 34.5925C4.69094 32.2708 4.06708 27.8828 6.38875 24.7915L14.7963 13.5972Z" fill="#FFEDEF"/>
<path fill-rule="evenodd" clip-rule="evenodd" d="M49.9819 35.0208L22.7956 14.6025C21.0292 13.2759 18.5217 13.6324 17.1951 15.3988L8.78755 26.5932C7.46088 28.3596 7.81737 30.867 9.58379 32.1937L36.7701 52.6119C38.5365 53.9386 41.044 53.5821 42.3706 51.8157L50.7781 40.6213C52.1048 38.8549 51.7483 36.3474 49.9819 35.0208ZM24.5972 12.2038C21.506 9.88208 17.1179 10.5059 14.7963 13.5972L6.38875 24.7915C4.06708 27.8828 4.69094 32.2708 7.78218 34.5925L34.9685 55.0107C38.0597 57.3324 42.4478 56.7085 44.7694 53.6173L53.1769 42.4229C55.4986 39.3317 54.8748 34.9437 51.7835 32.622L24.5972 12.2038Z" fill="#1A237E"/>
<path fill-rule="evenodd" clip-rule="evenodd" d="M26.7977 19.4313C27.3938 19.879 27.5142 20.7253 27.0664 21.3215L26.2539 22.4033C27.3148 23.4896 27.4258 25.214 26.4963 26.4516C26.0486 27.0478 25.2023 27.1681 24.6061 26.7204C24.01 26.2726 23.8896 25.4264 24.3374 24.8302C24.4914 24.6252 24.4351 24.3686 24.2744 24.2479L22.8752 23.197C22.3281 22.7861 21.5137 22.8866 21.065 23.4841C20.6162 24.0816 20.7467 24.8917 21.2937 25.3026L22.693 26.3535C24.4644 27.6839 24.7794 30.1947 23.4593 31.9524C22.2351 33.5824 19.9969 34.0424 18.2655 33.0396L17.4578 34.115C17.0101 34.7112 16.1638 34.8315 15.5677 34.3838C14.9715 33.936 14.8512 33.0897 15.2989 32.4936L16.0896 31.4408L15.7698 31.2006C14.3848 30.1604 14.1441 28.2031 15.1694 26.8379C15.6171 26.2418 16.4634 26.1214 17.0596 26.5692C17.6557 27.0169 17.776 27.8632 17.3283 28.4594C17.1743 28.6644 17.2306 28.921 17.3912 29.0416L19.4902 30.618C20.0373 31.0289 20.8516 30.9285 21.3004 30.3309C21.7491 29.7334 21.6187 28.9233 21.0716 28.5124L19.6723 27.4615C17.9009 26.1311 17.5859 23.6203 18.906 21.8627C20.1303 20.2326 22.3684 19.7726 24.0998 20.7754L24.9075 19.7C25.3552 19.1038 26.2015 18.9835 26.7977 19.4313Z" fill="#1A237E"/>
<path d="M3.00002 36C3.00002 32.134 6.13402 29 10 29H44C47.866 29 51 32.134 51 36V50C51 53.866 47.866 57 44 57H10C6.13402 57 3.00002 53.866 3.00002 50V36Z" fill="#F0F5FF"/>
<path fill-rule="evenodd" clip-rule="evenodd" d="M44 32H10C7.79088 32 6.00002 33.7909 6.00002 36V50C6.00002 52.2091 7.79088 54 10 54H44C46.2092 54 48 52.2091 48 50V36C48 33.7909 46.2092 32 44 32ZM10 29C6.13402 29 3.00002 32.134 3.00002 36V50C3.00002 53.866 6.13402 57 10 57H44C47.866 57 51 53.866 51 50V36C51 32.134 47.866 29 44 29H10Z" fill="#1A237E"/>
<path fill-rule="evenodd" clip-rule="evenodd" d="M17.5 33.65C18.2456 33.65 18.85 34.2544 18.85 35V36.3529C20.3507 36.5846 21.475 37.8966 21.475 39.4445C21.475 40.1901 20.8706 40.7945 20.125 40.7945C19.3794 40.7945 18.775 40.1901 18.775 39.4445C18.775 39.1881 18.576 39.0167 18.375 39.0167H16.625C15.9408 39.0167 15.35 39.5861 15.35 40.3334C15.35 41.0807 15.9408 41.65 16.625 41.65H18.375C20.5903 41.65 22.35 43.4685 22.35 45.6667C22.35 47.7052 20.8366 49.4172 18.85 49.6551V51C18.85 51.7456 18.2456 52.35 17.5 52.35C16.7544 52.35 16.15 51.7456 16.15 51V49.6834H15.75C14.018 49.6834 12.65 48.2629 12.65 46.5556C12.65 45.81 13.2544 45.2056 14 45.2056C14.7456 45.2056 15.35 45.81 15.35 46.5556C15.35 46.812 15.5491 46.9834 15.75 46.9834H18.375C19.0592 46.9834 19.65 46.414 19.65 45.6667C19.65 44.9194 19.0592 44.35 18.375 44.35H16.625C14.4097 44.35 12.65 42.5316 12.65 40.3334C12.65 38.2948 14.1634 36.5829 16.15 36.3449V35C16.15 34.2544 16.7544 33.65 17.5 33.65Z" fill="#1A237E"/>
</svg>
