<svg width="60" height="60" viewBox="0 0 60 60" fill="none" xmlns="http://www.w3.org/2000/svg">
<path d="M56 46.5V28.5C56 25.1863 53.3137 22.5 50 22.5H33.9966C33.6661 22.5 33.3362 22.5273 33.0102 22.5816L16.0136 25.4144C13.1205 25.8966 11 28.3997 11 31.3328V37.5V46.5C11 49.8137 13.6863 52.5 17 52.5H50C53.3137 52.5 56 49.8137 56 46.5Z" fill="#F0F5FF"/>
<path d="M11 37L4 33V8H29L39 10.5L49 23H30L35.5 31.5L34.5 35L31 37L19 28L11 26V37Z" fill="#FFEDEF"/>
<path d="M15 46L52 46V42L15 42V46Z" fill="#1A237E"/>
<path fill-rule="evenodd" clip-rule="evenodd" d="M4 6C3.17158 6 2.5 6.67157 2.5 7.5C2.5 8.32843 3.17158 9 4 9H27.7963C33.9819 9 39.7581 12.0914 43.1893 17.238L45.6972 21H30.2475L27.2333 16.6462C26.7617 15.965 25.8273 15.7952 25.1462 16.2667C24.465 16.7382 24.2952 17.6727 24.7667 18.3538L33.5045 30.9751C34.3713 32.2271 33.9995 33.951 32.6937 34.7345C31.7492 35.3012 30.552 35.2206 29.6919 34.5326L20.8694 27.4746C19.6762 26.52 18.1937 26 16.6657 26C12.5549 26 8.97173 23.2023 7.97473 19.2143L7.4552 17.1362C7.25428 16.3325 6.43988 15.8439 5.63619 16.0448C4.83249 16.2457 4.34385 17.0601 4.54477 17.8638L5.0643 19.9419C5.75055 22.6869 7.35471 25.0094 9.5 26.6153V34.5393C8.56734 34.2719 7.71378 33.7573 7.03621 33.0374L5.0923 30.972C4.52453 30.3687 3.57522 30.3399 2.97196 30.9077C2.3687 31.4755 2.33993 32.4248 2.9077 33.028L4.85161 35.0934C6.09991 36.4198 7.73331 37.2968 9.5 37.6157V46.5C9.5 50.6421 12.8579 54 17 54H50C54.1421 54 57.5 50.6421 57.5 46.5V28.5C57.5 24.3579 54.1421 21 50 21H49.3028L45.6854 15.5739C41.6979 9.59267 34.9849 6 27.7963 6H4ZM35.9711 29.2674L32.3244 24H48.4795C48.4862 24.0001 48.4929 24.0002 48.4996 24.0002C48.5075 24.0002 48.5154 24.0001 48.5232 24H50C52.4853 24 54.5 26.0147 54.5 28.5V46.5C54.5 48.9853 52.4853 51 50 51H17C14.5147 51 12.5 48.9853 12.5 46.5V28.2521C13.8049 28.7374 15.2105 29 16.6657 29C17.5125 29 18.3341 29.2882 18.9953 29.8172L27.8178 36.8752C29.6571 38.3466 32.2174 38.5188 34.2372 37.307C37.0296 35.6315 37.8247 31.9449 35.9711 29.2674Z" fill="#1A237E"/>
</svg>
