<svg width="28" height="28" viewBox="0 0 28 28" fill="none" xmlns="http://www.w3.org/2000/svg">
<path d="M13.9994 0.665039C6.64391 0.665039 0.664978 6.64427 0.664978 13.9994C0.664978 21.3549 6.64421 27.335 13.9994 27.335C21.3549 27.335 27.335 21.3537 27.335 13.9994C27.335 6.64397 21.3537 0.665039 13.9994 0.665039ZM13.9994 2.23346C20.5071 2.23346 25.7656 7.49192 25.7656 13.9997C25.7656 20.5074 20.5071 25.7658 13.9994 25.7658C7.49165 25.7658 2.23319 20.5074 2.23319 13.9997C2.23319 7.49192 7.49165 2.23346 13.9994 2.23346ZM8.42435 7.63739C8.21709 7.63622 8.01682 7.71656 7.86894 7.86328C7.72106 8.00999 7.63723 8.21027 7.63723 8.41869C7.63723 8.62828 7.72106 8.82739 7.86894 8.97527L12.8943 14.0006L7.86894 19.0272V19.026C7.56504 19.3323 7.56504 19.826 7.86894 20.1322C8.17516 20.4372 8.66887 20.4372 8.97509 20.1322L14.0016 15.1068L19.027 20.1322H19.0258C19.1737 20.2801 19.374 20.3639 19.5824 20.3639C19.7909 20.3639 19.9911 20.2801 20.1378 20.1322C20.4429 19.826 20.4429 19.3323 20.1378 19.026L15.1113 13.9995L20.1378 8.97411V8.97527C20.2869 8.8274 20.3696 8.62828 20.3696 8.41869C20.3696 8.21027 20.2869 8.00999 20.1378 7.86328C19.99 7.71656 19.7897 7.63622 19.5824 7.63739C19.374 7.63622 19.1737 7.71656 19.0258 7.86328L14.0005 12.8898L8.97393 7.86328H8.97509C8.82838 7.71889 8.63048 7.63739 8.42435 7.63739Z" fill="#FF0000"/>
</svg>
