<svg xmlns="http://www.w3.org/2000/svg" xmlns:xlink="http://www.w3.org/1999/xlink" width="354.044" height="201" viewBox="0 0 354.044 201"><defs><style>.a,.b,.e{fill:#fff;}.a{stroke:#707070;}.b,.c,.m{stroke:#1a237e;stroke-miterlimit:10;}.b,.c{stroke-linecap:round;stroke-width:2px;}.c{fill:none;}.d{clip-path:url(#a);}.f{fill:#1a237e;}.g{fill:#eef;}.h,.i,.k,.l{fill:#26263a;}.h{font-size:14px;}.h,.k{font-family:Roboto-Bold, Roboto;font-weight:700;}.i{font-size:12px;}.i,.l{font-family:Roboto-Regular, Roboto;}.j{clip-path:url(#b);}.k{font-size:11px;}.l{font-size:9px;}.m{fill:#b8bced;stroke-width:0.5px;}</style><clipPath id="a"><rect class="a" width="154.181" height="185.659"/></clipPath><clipPath id="b"><rect class="a" width="123.721" height="148.178"/></clipPath></defs><g transform="translate(-914 -3491)"><line class="b" x2="323.48" transform="translate(915 3691)"/><line class="c" x2="18.632" transform="translate(1248.412 3691)"/><g class="d" transform="translate(1045.359 3504.346)"><g transform="translate(6.963 11.077)"><path class="e" d="M252.345,407.142h-103.3c-10,0-17.943-8.776-17.943-19.817V158.017c0-11.041,7.946-19.817,17.943-19.817h103.3c10,0,17.943,8.776,17.943,19.817V387.325C270.289,398.366,262.343,407.142,252.345,407.142Z" transform="translate(-131.1 -138.2)"/><path class="f" d="M119.945,266.057H17.751a16.848,16.848,0,0,1-12.584-5.706A20.591,20.591,0,0,1,0,246.453V19.6a20.59,20.59,0,0,1,5.167-13.9A16.848,16.848,0,0,1,17.751,0H119.945a16.849,16.849,0,0,1,12.585,5.706A20.59,20.59,0,0,1,137.7,19.6V246.453a20.59,20.59,0,0,1-5.167,13.9A16.849,16.849,0,0,1,119.945,266.057ZM22.2,5.95a14.84,14.84,0,0,0-11.334,5.426A20.226,20.226,0,0,0,6.217,24.592V240.3a20.225,20.225,0,0,0,4.654,13.215A14.84,14.84,0,0,0,22.2,258.94h92.047a14.841,14.841,0,0,0,11.335-5.426A20.225,20.225,0,0,0,130.24,240.3V24.592a20.225,20.225,0,0,0-4.654-13.215A14.841,14.841,0,0,0,114.251,5.95Z" transform="translate(0 0.962)"/><ellipse class="g" cx="3.447" cy="3.807" rx="3.447" ry="3.807" transform="translate(65.652 246.175)"/><text class="h" transform="translate(69.789 104.085)"><tspan x="-36.63" y="0">Economical</tspan></text><text class="i" transform="translate(72.91 131.735)"><tspan x="-43.459" y="0">Updated feature</tspan><tspan x="-30.161" y="15">At low cost</tspan></text><path class="f" d="M36.1,9.618H31.967a5.749,5.749,0,0,0,.341-1.9A5.67,5.67,0,0,0,21.889,4.571l-.947,1.276L20,4.552A5.679,5.679,0,0,0,9.918,9.618H5.788a3.77,3.77,0,0,0-3.77,3.809L2,34.376a3.786,3.786,0,0,0,3.788,3.809H36.1a3.786,3.786,0,0,0,3.788-3.809V13.427A3.786,3.786,0,0,0,36.1,9.618ZM26.625,5.809a1.9,1.9,0,1,1-1.894,1.9A1.9,1.9,0,0,1,26.625,5.809Zm-11.365,0a1.9,1.9,0,1,1-1.894,1.9A1.9,1.9,0,0,1,15.26,5.809ZM36.1,34.376H5.788V30.567H36.1Zm0-9.522H5.788V13.427h9.623l-3.94,5.39,3.069,2.228,4.508-6.171,1.894-2.59,1.894,2.59,4.508,6.171,3.069-2.228-3.94-5.39H36.1Z" transform="translate(50.735 34.337)"/></g></g><g class="j" transform="translate(958.819 3541.827)"><path class="e" d="M224.322,343.867H144.9c-7.686,0-13.8-6.711-13.8-15.154V153.354c0-8.443,6.11-15.154,13.8-15.154h79.426c7.686,0,13.8,6.711,13.8,15.154V328.713C238.118,337.156,232.008,343.867,224.322,343.867Z" transform="translate(-123.376 -125.252)"/><path class="f" d="M96.249,212.345h-82a13.551,13.551,0,0,1-10.1-4.554A16.382,16.382,0,0,1,0,196.7V15.646A16.382,16.382,0,0,1,4.146,4.554,13.551,13.551,0,0,1,14.244,0h82a13.552,13.552,0,0,1,10.1,4.554,16.381,16.381,0,0,1,4.146,11.092V196.7a16.382,16.382,0,0,1-4.146,11.092A13.552,13.552,0,0,1,96.249,212.345ZM18.684,5.681c-7.122,0-12.7,6.5-12.7,14.809V191.855c0,8.3,5.579,14.809,12.7,14.809H91.809c7.122,0,12.7-6.5,12.7-14.809V20.49c0-8.3-5.579-14.809-12.7-14.809Z" transform="translate(5.587 9.609)"/><ellipse class="g" cx="2.766" cy="3.038" rx="2.766" ry="3.038" transform="translate(58.269 205.318)"/><path class="e" d="M4.416-.066a3.438,3.438,0,0,0,.042.627A.78.78,0,0,0,4.608.9a.7.7,0,0,0,.31.208,2.338,2.338,0,0,0,.509.115q.307.039.809.054V1.8H1.415V1.281a8.162,8.162,0,0,0,1.034-.1A1.171,1.171,0,0,0,2.922,1,.691.691,0,0,0,3.16.658a2.485,2.485,0,0,0,.075-.724V-5.878A.753.753,0,0,0,3.144-6.3a.3.3,0,0,0-.267-.133,1.291,1.291,0,0,0-.594.236q-.385.236-.952.652l-.287-.552,3.053-2h.359q-.039.688-.039,1.906Z" transform="translate(72.489 58.342)"/><text class="k" transform="translate(59.528 91.546)"><tspan x="-29.981" y="0">EDUCATION</tspan></text><text class="l" transform="translate(60.354 114.211)"><tspan x="-39.164" y="0">Easy to understand</tspan><tspan x="-23.168" y="11">Accounting</tspan></text><g transform="translate(46.526 31.704)"><path class="m" d="M26.183,55.512c2-1.012,2.627-2.044,2.355-4.068a3.377,3.377,0,0,0,3.036-.993,3.227,3.227,0,0,0,.837-3.036,11.454,11.454,0,0,0,1.693-.234,3.227,3.227,0,0,0,1.3-5.391c-1.09-1.09-2.238-2.141-3.367-3.211q-4.437-4.262-8.914-8.5c-.389-.37-.8-.74-1.168-1.109a2.34,2.34,0,0,1-.058-3.25,2.3,2.3,0,0,1,3.25-.1c1.421,1.3,2.822,2.647,4.223,3.97,2.044,1.946,4.087,3.873,6.15,5.819a6.273,6.273,0,0,0,1.907,1.265,2.337,2.337,0,0,0,2.666-.428A6.389,6.389,0,0,0,41.13,35c.681-1.051,1.265-2.16,1.966-3.211a2.767,2.767,0,0,1,4.107-.623,2.8,2.8,0,0,1,.584,3.678c-1.07,1.791-2.16,3.581-3.231,5.372-.525.876-1.051,1.771-1.6,2.627a.555.555,0,0,0-.019.662c.506,1.012.973,2.044,1.479,3.056a6.36,6.36,0,0,1-2.939,8.719q-3.386,1.664-6.831,3.27a6.359,6.359,0,0,1-8.155-2.511A2.079,2.079,0,0,1,26.183,55.512Z" transform="translate(-17.224 -20.207)"/><path class="m" d="M17.573,99.3a2.068,2.068,0,0,1,1.323.6c2.277,2.141,4.574,4.282,6.831,6.442a2.327,2.327,0,0,1-3.211,3.367c-2-1.868-3.97-3.756-5.975-5.625-.272-.253-.564-.506-.837-.778a2.372,2.372,0,0,1-.545-2.608A2.529,2.529,0,0,1,17.573,99.3Z" transform="translate(-12.156 -80.052)"/><path class="m" d="M46.629,87.217a2.1,2.1,0,0,1-1.343,1.791,2.186,2.186,0,0,1-2.452-.311c-1.07-.954-2.082-1.946-3.114-2.939C38.475,84.59,37.249,83.422,36,82.235a2.189,2.189,0,0,1-.7-2.219,2.312,2.312,0,0,1,3.892-1.168c.856.8,1.693,1.6,2.55,2.413,1.285,1.226,2.569,2.452,3.873,3.659A2.742,2.742,0,0,1,46.629,87.217Z" transform="translate(-28.464 -63.045)"/><path class="m" d="M2.885,125.3a2.383,2.383,0,0,1,1.654.759l4.613,4.379c.311.292.642.584.954.9A2.328,2.328,0,1,1,6.895,134.7c-1.81-1.713-3.6-3.425-5.43-5.119a2.5,2.5,0,0,1-.954-2.394A2.321,2.321,0,0,1,2.885,125.3Z" transform="translate(-0.465 -100.992)"/><path class="f" d="M117.522,26.28a1.047,1.047,0,0,1-.934-.545.854.854,0,0,1,.156-1.012,1.644,1.644,0,0,1,.35-.292c.817-.6,1.654-1.226,2.491-1.81a.941.941,0,0,1,1.382.136.925.925,0,0,1-.272,1.362c-.856.642-1.732,1.285-2.608,1.907C117.911,26.125,117.658,26.2,117.522,26.28Z" transform="translate(-93.908 -18.106)"/><path class="f" d="M65.834,12.5a1.013,1.013,0,0,1-.564.973.922.922,0,0,1-1.051-.234c-.74-.973-1.46-1.946-2.141-2.958a.89.89,0,0,1,.272-1.246.927.927,0,0,1,1.265.214c.7.934,1.382,1.868,2.063,2.822C65.756,12.229,65.795,12.424,65.834,12.5Z" transform="translate(-49.965 -7.227)"/><path class="f" d="M105.284,10.346a.907.907,0,0,1-.837-1.323c.156-.389.331-.759.506-1.148.292-.642.564-1.3.856-1.946a.909.909,0,0,1,1.148-.545.9.9,0,0,1,.584,1.207c-.448,1.109-.954,2.2-1.44,3.289A.86.86,0,0,1,105.284,10.346Z" transform="translate(-84.142 -4.371)"/><path class="f" d="M88.479,4.584c.019.681-.311,1.07-.837,1.129a.944.944,0,0,1-1.032-.9c-.136-1.09-.234-2.18-.331-3.27a1.406,1.406,0,0,1,.117-.7.825.825,0,0,1,.934-.428.868.868,0,0,1,.759.759c.1.8.195,1.6.272,2.374C88.421,3.922,88.46,4.292,88.479,4.584Z" transform="translate(-69.574 -0.399)"/></g></g><circle class="f" cx="35" cy="35" r="35" transform="translate(1152.524 3491)"/><g transform="translate(1174.457 3511.516)"><g transform="translate(0 0)"><path class="e" d="M26.015,6a5.253,5.253,0,0,0-1.524-3.815,5.08,5.08,0,0,0-7.38,0A5.335,5.335,0,0,0,15.571,6a8.528,8.528,0,0,0,.06.858L9.309,10.786A4.98,4.98,0,0,0,5.631,9.214,4.979,4.979,0,0,0,1.941,10.8,5.325,5.325,0,0,0,.4,14.622a5.3,5.3,0,0,0,1.541,3.815,4.932,4.932,0,0,0,3.69,1.572,4.943,4.943,0,0,0,3.7-1.572.276.276,0,0,0,.044-.066l6.36,3.562a6.231,6.231,0,0,0-.154,1.3,5.312,5.312,0,0,0,1.541,3.815,5.116,5.116,0,0,0,7.38,0,5.536,5.536,0,0,0,0-7.63,5.068,5.068,0,0,0-7.38,0,.9.9,0,0,1-.11.093L10.7,15.986a5.265,5.265,0,0,0,.154-1.369,5.439,5.439,0,0,0-.186-1.479l6.064-3.754c.121.148.252.291.384.429a5.116,5.116,0,0,0,7.38,0A5.232,5.232,0,0,0,26.015,6Z" transform="translate(-0.4 -0.6)"/></g></g></g></svg>