<svg width="60" height="60" viewBox="0 0 60 60" fill="none" xmlns="http://www.w3.org/2000/svg">
<path fill-rule="evenodd" clip-rule="evenodd" d="M22.9267 6.93503C23.225 7.70788 22.8403 8.57623 22.0675 8.87456C13.777 12.0748 7.90002 20.1197 7.90002 29.5336C7.90002 33.9654 9.2008 38.0888 11.4409 41.5483C11.8912 42.2437 11.6925 43.1724 10.9971 43.6227C10.3018 44.0729 9.37303 43.8742 8.92276 43.1789C6.37764 39.2484 4.90002 34.5613 4.90002 29.5336C4.90002 18.8389 11.5785 9.70766 20.9871 6.07583C21.76 5.77751 22.6283 6.16218 22.9267 6.93503ZM52.6288 22.4044C53.4332 22.2063 54.2459 22.6977 54.4441 23.5021C54.9204 25.4359 55.1727 27.4563 55.1727 29.5336C55.1727 43.416 43.9188 54.67 30.0364 54.67C26.0704 54.67 22.315 53.7504 18.9755 52.1115C18.2318 51.7465 17.9248 50.8478 18.2898 50.1041C18.6548 49.3604 19.5535 49.0534 20.2972 49.4184C23.2344 50.8598 26.5387 51.67 30.0364 51.67C42.262 51.67 52.1727 41.7592 52.1727 29.5336C52.1727 27.7 51.9501 25.9205 51.5312 24.2197C51.333 23.4153 51.8245 22.6026 52.6288 22.4044Z" fill="#1A237E"/>
<path d="M27.9093 4L13.2547 30H22.2365L6.63654 56L53.4365 18.1818H37.8365L46.8184 4H27.9093Z" fill="#668CFF" fill-opacity="0.15"/>
<path fill-rule="evenodd" clip-rule="evenodd" d="M46.8184 4H27.9093L13.2547 30H22.2365L6.63654 56L53.4365 18.1818H37.8365L46.8184 4ZM44.9509 21.1818H32.3855L41.3673 7H29.6621L18.3893 27H27.5351L17.9202 43.0248L44.9509 21.1818Z" fill="#1A237E"/>
</svg>
