<svg width="409" height="400" viewBox="0 0 409 400" fill="none" xmlns="http://www.w3.org/2000/svg">
<g filter="url(#filter0_d_140_693)">
<g filter="url(#filter1_d_140_693)">
<rect x="4.5" width="400" height="80" rx="16" fill="white" shape-rendering="crispEdges"/>
<rect x="5" y="0.5" width="399" height="79" rx="15.5" stroke="#212528" shape-rendering="crispEdges"/>
<path d="M107.5 46.8666C106.233 46.8666 105.1 47.3666 104.233 48.1499L92.35 41.2332C92.4333 40.8499 92.5 40.4666 92.5 40.0666C92.5 39.6666 92.4333 39.2832 92.35 38.8999L104.1 32.0499C105 32.8832 106.183 33.3999 107.5 33.3999C110.267 33.3999 112.5 31.1666 112.5 28.3999C112.5 25.6332 110.267 23.3999 107.5 23.3999C104.733 23.3999 102.5 25.6332 102.5 28.3999C102.5 28.7999 102.567 29.1832 102.65 29.5666L90.9 36.4166C90 35.5832 88.8167 35.0666 87.5 35.0666C84.7333 35.0666 82.5 37.2999 82.5 40.0666C82.5 42.8332 84.7333 45.0666 87.5 45.0666C88.8167 45.0666 90 44.5499 90.9 43.7166L102.767 50.6499C102.683 50.9999 102.633 51.3666 102.633 51.7332C102.633 54.4166 104.817 56.5999 107.5 56.5999C110.183 56.5999 112.367 54.4166 112.367 51.7332C112.367 49.0499 110.183 46.8666 107.5 46.8666ZM107.5 26.7332C108.417 26.7332 109.167 27.4832 109.167 28.3999C109.167 29.3166 108.417 30.0666 107.5 30.0666C106.583 30.0666 105.833 29.3166 105.833 28.3999C105.833 27.4832 106.583 26.7332 107.5 26.7332ZM87.5 41.7332C86.5833 41.7332 85.8333 40.9832 85.8333 40.0666C85.8333 39.1499 86.5833 38.3999 87.5 38.3999C88.4167 38.3999 89.1667 39.1499 89.1667 40.0666C89.1667 40.9832 88.4167 41.7332 87.5 41.7332ZM107.5 53.4332C106.583 53.4332 105.833 52.6832 105.833 51.7666C105.833 50.8499 106.583 50.0999 107.5 50.0999C108.417 50.0999 109.167 50.8499 109.167 51.7666C109.167 52.6832 108.417 53.4332 107.5 53.4332Z" fill="#212528"/>
<path d="M140.75 34.3409C140.629 33.2652 140.129 32.4318 139.25 31.8409C138.371 31.2424 137.265 30.9432 135.932 30.9432C134.977 30.9432 134.152 31.0947 133.455 31.3977C132.758 31.6932 132.216 32.1023 131.83 32.625C131.451 33.1402 131.261 33.7273 131.261 34.3864C131.261 34.9394 131.39 35.4167 131.648 35.8182C131.913 36.2197 132.258 36.5568 132.682 36.8295C133.114 37.0947 133.576 37.3182 134.068 37.5C134.561 37.6742 135.034 37.8182 135.489 37.9318L137.761 38.5227C138.504 38.7045 139.265 38.9508 140.045 39.2614C140.826 39.572 141.549 39.9811 142.216 40.4886C142.883 40.9962 143.42 41.625 143.83 42.375C144.246 43.125 144.455 44.0227 144.455 45.0682C144.455 46.3864 144.114 47.5568 143.432 48.5795C142.758 49.6023 141.777 50.4091 140.489 51C139.208 51.5909 137.659 51.8864 135.841 51.8864C134.098 51.8864 132.591 51.6098 131.318 51.0568C130.045 50.5038 129.049 49.7197 128.33 48.7045C127.61 47.6818 127.212 46.4697 127.136 45.0682H130.659C130.727 45.9091 131 46.6098 131.477 47.1705C131.962 47.7235 132.58 48.1364 133.33 48.4091C134.087 48.6742 134.917 48.8068 135.818 48.8068C136.811 48.8068 137.693 48.6515 138.466 48.3409C139.246 48.0227 139.86 47.5833 140.307 47.0227C140.754 46.4545 140.977 45.7917 140.977 45.0341C140.977 44.3447 140.78 43.7803 140.386 43.3409C140 42.9015 139.473 42.5379 138.807 42.25C138.148 41.9621 137.402 41.7083 136.568 41.4886L133.818 40.7386C131.955 40.2311 130.477 39.4848 129.386 38.5C128.303 37.5152 127.761 36.2121 127.761 34.5909C127.761 33.25 128.125 32.0795 128.852 31.0795C129.58 30.0795 130.564 29.303 131.807 28.75C133.049 28.1894 134.451 27.9091 136.011 27.9091C137.587 27.9091 138.977 28.1856 140.182 28.7386C141.394 29.2917 142.348 30.053 143.045 31.0227C143.742 31.9848 144.106 33.0909 144.136 34.3409H140.75ZM151.776 41.1364V51.5H148.378V28.2273H151.73V36.8864H151.946C152.355 35.947 152.98 35.2008 153.821 34.6477C154.662 34.0947 155.76 33.8182 157.116 33.8182C158.313 33.8182 159.359 34.0644 160.253 34.5568C161.154 35.0492 161.851 35.7841 162.344 36.7614C162.844 37.7311 163.094 38.9432 163.094 40.3977V51.5H159.696V40.8068C159.696 39.5265 159.366 38.5341 158.707 37.8295C158.048 37.1174 157.132 36.7614 155.957 36.7614C155.154 36.7614 154.435 36.9318 153.798 37.2727C153.17 37.6136 152.673 38.1136 152.31 38.7727C151.954 39.4242 151.776 40.2121 151.776 41.1364ZM172.707 51.8864C171.601 51.8864 170.601 51.6818 169.707 51.2727C168.813 50.8561 168.105 50.2538 167.582 49.4659C167.067 48.678 166.81 47.7121 166.81 46.5682C166.81 45.5833 166.999 44.7727 167.378 44.1364C167.757 43.5 168.268 42.9962 168.912 42.625C169.556 42.2538 170.276 41.9735 171.071 41.7841C171.866 41.5947 172.677 41.4508 173.503 41.3523C174.548 41.2311 175.397 41.1326 176.048 41.0568C176.7 40.9735 177.173 40.8409 177.469 40.6591C177.764 40.4773 177.912 40.1818 177.912 39.7727V39.6932C177.912 38.7008 177.632 37.9318 177.071 37.3864C176.518 36.8409 175.692 36.5682 174.594 36.5682C173.45 36.5682 172.548 36.822 171.889 37.3295C171.238 37.8295 170.787 38.3864 170.537 39L167.344 38.2727C167.723 37.2121 168.276 36.3561 169.003 35.7045C169.738 35.0455 170.582 34.5682 171.537 34.2727C172.491 33.9697 173.495 33.8182 174.548 33.8182C175.245 33.8182 175.984 33.9015 176.764 34.0682C177.552 34.2273 178.287 34.5227 178.969 34.9545C179.658 35.3864 180.223 36.0038 180.662 36.8068C181.101 37.6023 181.321 38.6364 181.321 39.9091V51.5H178.003V49.1136H177.866C177.647 49.553 177.317 49.9848 176.878 50.4091C176.438 50.8333 175.874 51.1856 175.185 51.4659C174.495 51.7462 173.67 51.8864 172.707 51.8864ZM173.446 49.1591C174.385 49.1591 175.188 48.9735 175.855 48.6023C176.529 48.2311 177.041 47.7462 177.389 47.1477C177.745 46.5417 177.923 45.8939 177.923 45.2045V42.9545C177.802 43.0758 177.567 43.1894 177.219 43.2955C176.878 43.3939 176.488 43.4811 176.048 43.5568C175.609 43.625 175.181 43.6894 174.764 43.75C174.348 43.803 173.999 43.8485 173.719 43.8864C173.06 43.9697 172.457 44.1098 171.912 44.3068C171.374 44.5038 170.942 44.7879 170.616 45.1591C170.298 45.5227 170.139 46.0076 170.139 46.6136C170.139 47.4545 170.45 48.0909 171.071 48.5227C171.692 48.947 172.484 49.1591 173.446 49.1591ZM185.847 51.5V34.0455H189.131V36.8182H189.312C189.631 35.8788 190.191 35.1402 190.994 34.6023C191.805 34.0568 192.722 33.7841 193.744 33.7841C193.956 33.7841 194.206 33.7917 194.494 33.8068C194.79 33.822 195.021 33.8409 195.188 33.8636V37.1136C195.051 37.0758 194.809 37.0341 194.46 36.9886C194.112 36.9356 193.763 36.9091 193.415 36.9091C192.612 36.9091 191.896 37.0795 191.267 37.4205C190.646 37.7538 190.153 38.2197 189.79 38.8182C189.426 39.4091 189.244 40.0833 189.244 40.8409V51.5H185.847ZM205.026 51.8523C203.306 51.8523 201.825 51.4848 200.582 50.75C199.348 50.0076 198.393 48.9659 197.719 47.625C197.052 46.2765 196.719 44.697 196.719 42.8864C196.719 41.0985 197.052 39.5227 197.719 38.1591C198.393 36.7955 199.332 35.7311 200.537 34.9659C201.749 34.2008 203.166 33.8182 204.787 33.8182C205.772 33.8182 206.726 33.9811 207.651 34.3068C208.575 34.6326 209.404 35.1439 210.139 35.8409C210.874 36.5379 211.454 37.4432 211.878 38.5568C212.302 39.6629 212.514 41.0076 212.514 42.5909V43.7955H198.639V41.25H209.185C209.185 40.3561 209.003 39.5644 208.639 38.875C208.276 38.178 207.764 37.6288 207.105 37.2273C206.454 36.8258 205.688 36.625 204.81 36.625C203.855 36.625 203.022 36.8598 202.31 37.3295C201.605 37.7917 201.06 38.3977 200.673 39.1477C200.295 39.8902 200.105 40.697 200.105 41.5682V43.5568C200.105 44.7235 200.31 45.7159 200.719 46.5341C201.135 47.3523 201.715 47.9773 202.457 48.4091C203.2 48.8333 204.067 49.0455 205.06 49.0455C205.704 49.0455 206.291 48.9545 206.821 48.7727C207.351 48.5833 207.81 48.303 208.196 47.9318C208.582 47.5606 208.878 47.1023 209.082 46.5568L212.298 47.1364C212.041 48.0833 211.579 48.9129 210.912 49.625C210.253 50.3295 209.423 50.8788 208.423 51.2727C207.431 51.6591 206.298 51.8523 205.026 51.8523ZM228.537 28.2273V51.5H225.026V28.2273H228.537ZM236.776 41.1364V51.5H233.378V34.0455H236.639V36.8864H236.855C237.257 35.9621 237.885 35.2197 238.741 34.6591C239.605 34.0985 240.692 33.8182 242.003 33.8182C243.192 33.8182 244.234 34.0682 245.128 34.5682C246.022 35.0606 246.715 35.7955 247.207 36.7727C247.7 37.75 247.946 38.9583 247.946 40.3977V51.5H244.548V40.8068C244.548 39.5417 244.219 38.553 243.56 37.8409C242.901 37.1212 241.995 36.7614 240.844 36.7614C240.056 36.7614 239.355 36.9318 238.741 37.2727C238.135 37.6136 237.654 38.1136 237.298 38.7727C236.95 39.4242 236.776 40.2121 236.776 41.1364ZM266.81 34.0455L260.48 51.5H256.844L250.503 34.0455H254.151L258.571 47.4773H258.753L263.162 34.0455H266.81ZM276.761 51.8523C275.125 51.8523 273.697 51.4773 272.477 50.7273C271.258 49.9773 270.311 48.928 269.636 47.5795C268.962 46.2311 268.625 44.6553 268.625 42.8523C268.625 41.0417 268.962 39.4583 269.636 38.1023C270.311 36.7462 271.258 35.6932 272.477 34.9432C273.697 34.1932 275.125 33.8182 276.761 33.8182C278.398 33.8182 279.826 34.1932 281.045 34.9432C282.265 35.6932 283.212 36.7462 283.886 38.1023C284.561 39.4583 284.898 41.0417 284.898 42.8523C284.898 44.6553 284.561 46.2311 283.886 47.5795C283.212 48.928 282.265 49.9773 281.045 50.7273C279.826 51.4773 278.398 51.8523 276.761 51.8523ZM276.773 49C277.833 49 278.712 48.7197 279.409 48.1591C280.106 47.5985 280.621 46.8523 280.955 45.9205C281.295 44.9886 281.466 43.9621 281.466 42.8409C281.466 41.7273 281.295 40.7045 280.955 39.7727C280.621 38.8333 280.106 38.0795 279.409 37.5114C278.712 36.9432 277.833 36.6591 276.773 36.6591C275.705 36.6591 274.818 36.9432 274.114 37.5114C273.417 38.0795 272.898 38.8333 272.557 39.7727C272.223 40.7045 272.057 41.7273 272.057 42.8409C272.057 43.9621 272.223 44.9886 272.557 45.9205C272.898 46.8523 273.417 47.5985 274.114 48.1591C274.818 48.7197 275.705 49 276.773 49ZM288.69 51.5V34.0455H292.088V51.5H288.69ZM290.406 31.3523C289.815 31.3523 289.308 31.1553 288.884 30.7614C288.467 30.3598 288.259 29.8826 288.259 29.3295C288.259 28.7689 288.467 28.2917 288.884 27.8977C289.308 27.4962 289.815 27.2955 290.406 27.2955C290.997 27.2955 291.501 27.4962 291.918 27.8977C292.342 28.2917 292.554 28.7689 292.554 29.3295C292.554 29.8826 292.342 30.3598 291.918 30.7614C291.501 31.1553 290.997 31.3523 290.406 31.3523ZM304.011 51.8523C302.322 51.8523 300.867 51.4697 299.648 50.7045C298.436 49.9318 297.504 48.8674 296.852 47.5114C296.201 46.1553 295.875 44.6023 295.875 42.8523C295.875 41.0795 296.208 39.5152 296.875 38.1591C297.542 36.7955 298.481 35.7311 299.693 34.9659C300.905 34.2008 302.333 33.8182 303.977 33.8182C305.303 33.8182 306.485 34.0644 307.523 34.5568C308.561 35.0417 309.398 35.7235 310.034 36.6023C310.678 37.4811 311.061 38.5076 311.182 39.6818H307.875C307.693 38.8636 307.277 38.1591 306.625 37.5682C305.981 36.9773 305.117 36.6818 304.034 36.6818C303.087 36.6818 302.258 36.9318 301.545 37.4318C300.841 37.9242 300.292 38.6288 299.898 39.5455C299.504 40.4545 299.307 41.5303 299.307 42.7727C299.307 44.0455 299.5 45.1439 299.886 46.0682C300.273 46.9924 300.818 47.7083 301.523 48.2159C302.235 48.7235 303.072 48.9773 304.034 48.9773C304.678 48.9773 305.261 48.8598 305.784 48.625C306.314 48.3826 306.758 48.0379 307.114 47.5909C307.477 47.1439 307.731 46.6061 307.875 45.9773H311.182C311.061 47.1061 310.693 48.1136 310.08 49C309.466 49.8864 308.644 50.5833 307.614 51.0909C306.591 51.5985 305.39 51.8523 304.011 51.8523ZM322.338 51.8523C320.618 51.8523 319.137 51.4848 317.895 50.75C316.66 50.0076 315.705 48.9659 315.031 47.625C314.365 46.2765 314.031 44.697 314.031 42.8864C314.031 41.0985 314.365 39.5227 315.031 38.1591C315.705 36.7955 316.645 35.7311 317.849 34.9659C319.062 34.2008 320.478 33.8182 322.099 33.8182C323.084 33.8182 324.039 33.9811 324.963 34.3068C325.887 34.6326 326.717 35.1439 327.452 35.8409C328.187 36.5379 328.766 37.4432 329.19 38.5568C329.615 39.6629 329.827 41.0076 329.827 42.5909V43.7955H315.952V41.25H326.497C326.497 40.3561 326.315 39.5644 325.952 38.875C325.588 38.178 325.077 37.6288 324.418 37.2273C323.766 36.8258 323.001 36.625 322.122 36.625C321.168 36.625 320.334 36.8598 319.622 37.3295C318.918 37.7917 318.372 38.3977 317.986 39.1477C317.607 39.8902 317.418 40.697 317.418 41.5682V43.5568C317.418 44.7235 317.622 45.7159 318.031 46.5341C318.448 47.3523 319.027 47.9773 319.77 48.4091C320.512 48.8333 321.38 49.0455 322.372 49.0455C323.016 49.0455 323.603 48.9545 324.134 48.7727C324.664 48.5833 325.122 48.303 325.509 47.9318C325.895 47.5606 326.19 47.1023 326.395 46.5568L329.611 47.1364C329.353 48.0833 328.891 48.9129 328.224 49.625C327.565 50.3295 326.736 50.8788 325.736 51.2727C324.743 51.6591 323.611 51.8523 322.338 51.8523Z" fill="#212528"/>
</g>
<g filter="url(#filter2_d_140_693)">
<rect x="4.5" y="104" width="80" height="80" rx="16" fill="white" shape-rendering="crispEdges"/>
<rect x="5" y="104.5" width="79" height="79" rx="15.5" stroke="#212528" shape-rendering="crispEdges"/>
<path fill-rule="evenodd" clip-rule="evenodd" d="M30.4211 152.948L28.0832 161.5L36.8003 159.199C39.203 160.524 41.9032 161.218 44.6476 161.215C53.6983 161.215 61.0611 153.805 61.0611 144.698C61.0611 140.28 59.3585 136.13 56.2525 133.005C53.1465 129.88 49.0225 128.167 44.6312 128.167C35.5805 128.167 28.2168 135.576 28.2341 144.698C28.2296 147.592 28.9837 150.437 30.4211 152.948ZM37.6856 156.527L37.1848 156.224L37.183 156.225L31.9899 157.603L33.3762 152.529L33.0589 152.008C31.6891 149.824 30.971 147.287 30.971 144.699C30.971 137.139 37.0993 130.973 44.6303 130.973C48.2707 130.973 51.7104 132.418 54.2837 135.004C56.8552 137.592 58.2741 141.053 58.2741 144.716C58.2741 152.276 52.1458 158.442 44.6322 158.442C42.1865 158.44 39.7866 157.779 37.6856 156.527Z" fill="#C1C5C8"/>
<path fill-rule="evenodd" clip-rule="evenodd" d="M30.4211 151.282L28.0832 159.833L36.8003 157.532C39.203 158.858 41.9032 159.551 44.6476 159.548C53.6983 159.548 61.0611 152.138 61.0611 143.032C61.0611 138.613 59.3585 134.464 56.2525 131.339C53.1465 128.213 49.0225 126.5 44.6312 126.5C35.5805 126.5 28.2168 133.909 28.2341 143.032C28.2296 145.926 28.9837 148.77 30.4211 151.282ZM37.6856 154.86L37.1848 154.558L37.183 154.559L31.9899 155.937L33.3762 150.863L33.0589 150.341C31.6891 148.157 30.971 145.62 30.971 143.033C30.971 135.473 37.0993 129.306 44.6303 129.306C48.2707 129.306 51.7104 130.751 54.2837 133.337C56.8552 135.925 58.2741 139.386 58.2741 143.049C58.2741 150.609 52.1458 156.776 44.6322 156.776C42.1865 156.774 39.7866 156.112 37.6856 154.86Z" fill="url(#paint0_linear_140_693)"/>
<path d="M37.1851 154.557L37.686 154.86C39.787 156.112 42.1868 156.773 44.6325 156.775C52.1461 156.775 58.2745 150.609 58.2745 143.049C58.2745 139.386 56.8555 135.925 54.284 133.337C51.7107 130.751 48.2711 129.306 44.6306 129.306C37.0997 129.306 30.9713 135.472 30.9713 143.032C30.9713 145.62 31.6895 148.157 33.0593 150.341L33.3765 150.862L31.9903 155.936L37.1833 154.558L37.1851 154.557Z" fill="url(#paint1_linear_140_693)"/>
<path fill-rule="evenodd" clip-rule="evenodd" d="M40.5399 136.11C40.2399 135.421 39.9054 135.404 39.6218 135.404C39.371 135.387 39.1037 135.387 38.8201 135.387C38.5529 135.387 38.102 135.488 37.7184 135.908C37.3339 136.328 36.2822 137.32 36.2822 139.353C36.2822 141.386 37.7521 143.352 37.952 143.62C38.152 143.889 40.7908 148.19 44.9648 149.854C48.4381 151.231 49.1398 150.963 49.8915 150.878C50.6423 150.794 52.3121 149.887 52.663 148.912C52.9966 147.955 52.9966 147.115 52.8966 146.947C52.7966 146.779 52.5121 146.678 52.1113 146.46C51.694 146.258 49.6906 145.251 49.3061 145.115C48.9225 144.981 48.6553 144.913 48.3881 145.317C48.1208 145.737 47.3364 146.661 47.0855 146.929C46.8519 147.199 46.6019 147.232 46.201 147.03C45.7829 146.829 44.4649 146.392 42.8942 144.981C41.6761 143.889 40.858 142.528 40.6072 142.125C40.3736 141.705 40.5735 141.486 40.7908 141.285C40.9744 141.1 41.2089 140.797 41.4089 140.562C41.6089 140.327 41.6752 140.142 41.8261 139.873C41.9597 139.605 41.8925 139.352 41.7925 139.151C41.6925 138.966 40.9071 136.933 40.5399 136.11Z" fill="white"/>
</g>
<g filter="url(#filter3_d_140_693)">
<rect x="108.5" y="104" width="296" height="80" rx="16" fill="white" shape-rendering="crispEdges"/>
<rect x="109" y="104.5" width="295" height="79" rx="15.5" stroke="#212528" shape-rendering="crispEdges"/>
<path d="M201.835 152.5L196.994 135.045H199.764L203.165 148.562H203.327L206.864 135.045H209.608L213.145 148.571H213.307L216.699 135.045H219.477L214.628 152.5H211.977L208.304 139.426H208.168L204.494 152.5H201.835ZM224.222 144.727V152.5H221.674V135.045H224.188V141.54H224.35C224.657 140.835 225.126 140.276 225.756 139.861C226.387 139.446 227.211 139.239 228.228 139.239C229.126 139.239 229.91 139.423 230.58 139.793C231.256 140.162 231.779 140.713 232.148 141.446C232.523 142.173 232.711 143.082 232.711 144.173V152.5H230.163V144.48C230.163 143.52 229.915 142.776 229.421 142.247C228.927 141.713 228.239 141.446 227.359 141.446C226.756 141.446 226.217 141.574 225.739 141.83C225.268 142.085 224.896 142.46 224.623 142.955C224.356 143.443 224.222 144.034 224.222 144.727ZM239.921 152.79C239.092 152.79 238.342 152.636 237.671 152.33C237.001 152.017 236.469 151.565 236.077 150.974C235.691 150.384 235.498 149.659 235.498 148.801C235.498 148.062 235.64 147.455 235.924 146.977C236.208 146.5 236.592 146.122 237.075 145.844C237.558 145.565 238.097 145.355 238.694 145.213C239.29 145.071 239.898 144.963 240.518 144.889C241.302 144.798 241.938 144.724 242.427 144.668C242.915 144.605 243.271 144.506 243.492 144.369C243.714 144.233 243.825 144.011 243.825 143.705V143.645C243.825 142.901 243.614 142.324 243.194 141.915C242.779 141.506 242.16 141.301 241.336 141.301C240.478 141.301 239.802 141.491 239.308 141.872C238.819 142.247 238.481 142.665 238.293 143.125L235.898 142.58C236.183 141.784 236.597 141.142 237.143 140.653C237.694 140.159 238.327 139.801 239.043 139.58C239.759 139.352 240.512 139.239 241.302 139.239C241.825 139.239 242.379 139.301 242.964 139.426C243.555 139.545 244.106 139.767 244.617 140.091C245.134 140.415 245.558 140.878 245.887 141.48C246.217 142.077 246.381 142.852 246.381 143.807V152.5H243.893V150.71H243.79C243.626 151.04 243.379 151.364 243.049 151.682C242.719 152 242.296 152.264 241.779 152.474C241.262 152.685 240.643 152.79 239.921 152.79ZM240.475 150.744C241.18 150.744 241.782 150.605 242.282 150.327C242.788 150.048 243.171 149.685 243.433 149.236C243.7 148.781 243.833 148.295 243.833 147.778V146.091C243.742 146.182 243.566 146.267 243.305 146.347C243.049 146.42 242.756 146.486 242.427 146.543C242.097 146.594 241.776 146.642 241.464 146.688C241.151 146.727 240.89 146.761 240.68 146.79C240.185 146.852 239.734 146.957 239.325 147.105C238.921 147.253 238.597 147.466 238.353 147.744C238.114 148.017 237.995 148.381 237.995 148.835C237.995 149.466 238.228 149.943 238.694 150.267C239.16 150.585 239.754 150.744 240.475 150.744ZM255.886 139.409V141.455H248.736V139.409H255.886ZM250.653 136.273H253.202V148.656C253.202 149.151 253.276 149.523 253.423 149.773C253.571 150.017 253.761 150.185 253.994 150.276C254.233 150.361 254.491 150.403 254.77 150.403C254.974 150.403 255.153 150.389 255.307 150.361C255.46 150.332 255.58 150.31 255.665 150.293L256.125 152.398C255.977 152.455 255.767 152.511 255.494 152.568C255.222 152.631 254.881 152.665 254.472 152.67C253.801 152.682 253.176 152.562 252.597 152.312C252.017 152.062 251.548 151.676 251.19 151.153C250.832 150.631 250.653 149.974 250.653 149.185V136.273ZM268.304 142.605L265.994 143.014C265.898 142.719 265.744 142.437 265.534 142.17C265.33 141.903 265.051 141.685 264.699 141.514C264.347 141.344 263.906 141.259 263.378 141.259C262.656 141.259 262.054 141.42 261.571 141.744C261.088 142.062 260.847 142.474 260.847 142.98C260.847 143.418 261.009 143.77 261.332 144.037C261.656 144.304 262.179 144.523 262.901 144.693L264.98 145.17C266.185 145.449 267.082 145.878 267.673 146.457C268.264 147.037 268.56 147.79 268.56 148.716C268.56 149.5 268.332 150.199 267.878 150.812C267.429 151.42 266.801 151.898 265.994 152.244C265.193 152.591 264.264 152.764 263.207 152.764C261.741 152.764 260.545 152.452 259.619 151.827C258.693 151.196 258.125 150.301 257.915 149.142L260.378 148.767C260.531 149.409 260.847 149.895 261.324 150.224C261.801 150.548 262.423 150.71 263.19 150.71C264.026 150.71 264.693 150.537 265.193 150.19C265.693 149.838 265.943 149.409 265.943 148.903C265.943 148.494 265.79 148.151 265.483 147.872C265.182 147.594 264.719 147.384 264.094 147.241L261.878 146.756C260.656 146.477 259.753 146.034 259.168 145.426C258.588 144.818 258.298 144.048 258.298 143.116C258.298 142.344 258.514 141.668 258.946 141.088C259.378 140.509 259.974 140.057 260.736 139.733C261.497 139.403 262.369 139.239 263.352 139.239C264.767 139.239 265.881 139.545 266.693 140.159C267.506 140.767 268.043 141.582 268.304 142.605ZM273.04 152.5H270.245L276.526 135.045H279.569L285.85 152.5H283.055L278.12 138.216H277.984L273.04 152.5ZM273.509 145.665H282.577V147.881H273.509V145.665ZM288.166 157.409V139.409H290.655V141.531H290.868C291.016 141.259 291.229 140.943 291.507 140.585C291.786 140.227 292.172 139.915 292.666 139.648C293.161 139.375 293.814 139.239 294.626 139.239C295.683 139.239 296.626 139.506 297.456 140.04C298.286 140.574 298.936 141.344 299.408 142.349C299.885 143.355 300.124 144.565 300.124 145.98C300.124 147.395 299.888 148.608 299.416 149.619C298.945 150.625 298.297 151.401 297.473 151.946C296.649 152.486 295.709 152.756 294.652 152.756C293.857 152.756 293.206 152.622 292.7 152.355C292.2 152.088 291.808 151.776 291.524 151.418C291.24 151.06 291.021 150.741 290.868 150.463H290.714V157.409H288.166ZM290.663 145.955C290.663 146.875 290.797 147.682 291.064 148.375C291.331 149.068 291.717 149.611 292.223 150.003C292.729 150.389 293.348 150.582 294.081 150.582C294.842 150.582 295.479 150.381 295.99 149.977C296.501 149.568 296.888 149.014 297.149 148.315C297.416 147.616 297.55 146.83 297.55 145.955C297.55 145.091 297.419 144.315 297.158 143.628C296.902 142.94 296.516 142.398 295.999 142C295.487 141.602 294.848 141.403 294.081 141.403C293.342 141.403 292.717 141.594 292.206 141.974C291.7 142.355 291.317 142.886 291.055 143.568C290.794 144.25 290.663 145.045 290.663 145.955ZM302.979 157.409V139.409H305.467V141.531H305.68C305.828 141.259 306.041 140.943 306.32 140.585C306.598 140.227 306.984 139.915 307.479 139.648C307.973 139.375 308.626 139.239 309.439 139.239C310.496 139.239 311.439 139.506 312.268 140.04C313.098 140.574 313.749 141.344 314.22 142.349C314.697 143.355 314.936 144.565 314.936 145.98C314.936 147.395 314.7 148.608 314.229 149.619C313.757 150.625 313.109 151.401 312.286 151.946C311.462 152.486 310.521 152.756 309.464 152.756C308.669 152.756 308.018 152.622 307.513 152.355C307.013 152.088 306.621 151.776 306.337 151.418C306.053 151.06 305.834 150.741 305.68 150.463H305.527V157.409H302.979ZM305.476 145.955C305.476 146.875 305.609 147.682 305.876 148.375C306.143 149.068 306.53 149.611 307.036 150.003C307.541 150.389 308.161 150.582 308.893 150.582C309.655 150.582 310.291 150.381 310.803 149.977C311.314 149.568 311.7 149.014 311.962 148.315C312.229 147.616 312.362 146.83 312.362 145.955C312.362 145.091 312.232 144.315 311.97 143.628C311.714 142.94 311.328 142.398 310.811 142C310.3 141.602 309.661 141.403 308.893 141.403C308.155 141.403 307.53 141.594 307.018 141.974C306.513 142.355 306.129 142.886 305.868 143.568C305.607 144.25 305.476 145.045 305.476 145.955Z" fill="#4BCA5A"/>
</g>
<g filter="url(#filter4_d_140_693)">
<rect x="4.5" y="208" width="296" height="80" rx="16" fill="white" shape-rendering="crispEdges"/>
<rect x="5" y="208.5" width="295" height="79" rx="15.5" stroke="#212528" shape-rendering="crispEdges"/>
<path d="M123.418 256.5V239.045H134.361V241.312H126.051V246.631H133.79V248.889H126.051V254.233H134.463V256.5H123.418ZM137.674 256.5V243.409H140.12V245.54H140.282C140.555 244.818 141.001 244.256 141.62 243.852C142.239 243.443 142.981 243.239 143.844 243.239C144.719 243.239 145.452 243.443 146.043 243.852C146.64 244.261 147.08 244.824 147.364 245.54H147.501C147.813 244.841 148.31 244.284 148.992 243.869C149.674 243.449 150.487 243.239 151.43 243.239C152.617 243.239 153.586 243.611 154.336 244.355C155.092 245.099 155.469 246.222 155.469 247.722V256.5H152.921V247.96C152.921 247.074 152.68 246.432 152.197 246.034C151.714 245.636 151.137 245.438 150.467 245.438C149.637 245.438 148.992 245.693 148.532 246.205C148.072 246.71 147.842 247.361 147.842 248.156V256.5H145.302V247.798C145.302 247.088 145.08 246.517 144.637 246.085C144.194 245.653 143.617 245.438 142.907 245.438C142.424 245.438 141.978 245.565 141.569 245.821C141.165 246.071 140.839 246.42 140.589 246.869C140.344 247.318 140.222 247.838 140.222 248.429V256.5H137.674ZM162.695 256.79C161.865 256.79 161.115 256.636 160.445 256.33C159.774 256.017 159.243 255.565 158.851 254.974C158.464 254.384 158.271 253.659 158.271 252.801C158.271 252.062 158.413 251.455 158.697 250.977C158.982 250.5 159.365 250.122 159.848 249.844C160.331 249.565 160.871 249.355 161.467 249.213C162.064 249.071 162.672 248.963 163.291 248.889C164.075 248.798 164.712 248.724 165.2 248.668C165.689 248.605 166.044 248.506 166.266 248.369C166.487 248.233 166.598 248.011 166.598 247.705V247.645C166.598 246.901 166.388 246.324 165.967 245.915C165.553 245.506 164.933 245.301 164.109 245.301C163.251 245.301 162.575 245.491 162.081 245.872C161.592 246.247 161.254 246.665 161.067 247.125L158.672 246.58C158.956 245.784 159.371 245.142 159.916 244.653C160.467 244.159 161.101 243.801 161.817 243.58C162.533 243.352 163.286 243.239 164.075 243.239C164.598 243.239 165.152 243.301 165.737 243.426C166.328 243.545 166.879 243.767 167.391 244.091C167.908 244.415 168.331 244.878 168.661 245.48C168.99 246.077 169.155 246.852 169.155 247.807V256.5H166.666V254.71H166.564C166.399 255.04 166.152 255.364 165.822 255.682C165.493 256 165.07 256.264 164.553 256.474C164.036 256.685 163.416 256.79 162.695 256.79ZM163.249 254.744C163.953 254.744 164.555 254.605 165.055 254.327C165.561 254.048 165.945 253.685 166.206 253.236C166.473 252.781 166.607 252.295 166.607 251.778V250.091C166.516 250.182 166.339 250.267 166.078 250.347C165.822 250.42 165.53 250.486 165.2 250.543C164.871 250.594 164.55 250.642 164.237 250.688C163.925 250.727 163.663 250.761 163.453 250.79C162.959 250.852 162.507 250.957 162.098 251.105C161.695 251.253 161.371 251.466 161.126 251.744C160.888 252.017 160.768 252.381 160.768 252.835C160.768 253.466 161.001 253.943 161.467 254.267C161.933 254.585 162.527 254.744 163.249 254.744ZM172.549 256.5V243.409H175.097V256.5H172.549ZM173.836 241.389C173.393 241.389 173.012 241.241 172.694 240.946C172.381 240.645 172.225 240.287 172.225 239.872C172.225 239.452 172.381 239.094 172.694 238.798C173.012 238.497 173.393 238.347 173.836 238.347C174.279 238.347 174.657 238.497 174.969 238.798C175.288 239.094 175.447 239.452 175.447 239.872C175.447 240.287 175.288 240.645 174.969 240.946C174.657 241.241 174.279 241.389 173.836 241.389ZM181.074 239.045V256.5H178.526V239.045H181.074Z" fill="#CC5229"/>
</g>
<g filter="url(#filter5_d_140_693)">
<rect x="324.5" y="208" width="80" height="80" rx="16" fill="white" shape-rendering="crispEdges"/>
<rect x="325" y="208.5" width="79" height="79" rx="15.5" stroke="#212528" shape-rendering="crispEdges"/>
<path d="M347.833 239.905C347.833 237.932 349.326 236.333 351.167 236.333H377.833C379.674 236.333 381.167 237.932 381.167 239.905V257.762C381.167 259.734 379.674 261.333 377.833 261.333H351.167C349.326 261.333 347.833 259.734 347.833 257.762V239.905Z" fill="#8C2E0E"/>
<path d="M347.833 238.249C347.833 236.271 349.217 234.667 350.924 234.667H378.077C379.783 234.667 381.167 236.271 381.167 238.249C381.167 239.606 380.505 240.846 379.458 241.453L365.991 249.259C365.052 249.803 363.948 249.803 363.009 249.259L349.542 241.453C348.495 240.846 347.833 239.606 347.833 238.249Z" fill="#CC5229"/>
</g>
<g filter="url(#filter6_d_140_693)">
<rect x="4.5" y="312" width="80" height="80" rx="16" fill="white" shape-rendering="crispEdges"/>
<rect x="5" y="312.5" width="79" height="79" rx="15.5" stroke="#212528" shape-rendering="crispEdges"/>
<path d="M27.8333 342C27.8333 339.239 30.0719 337 32.8333 337H56.1667C58.9281 337 61.1667 339.239 61.1667 342V355.333C61.1667 358.095 58.9281 360.333 56.1667 360.333H27.8333V342Z" fill="#0D4680"/>
<path d="M27.8333 342C27.8333 339.239 30.0719 337 32.8333 337H56.3412C56.7776 337 57.2111 337.07 57.625 337.208L27.8333 367V342Z" fill="#66BDFF"/>
</g>
<g filter="url(#filter7_d_140_693)">
<rect x="108.5" y="312" width="296" height="80" rx="16" fill="white" shape-rendering="crispEdges"/>
<rect x="109" y="312.5" width="295" height="79" rx="15.5" stroke="#212528" shape-rendering="crispEdges"/>
<path d="M241.438 347.631C241.347 346.824 240.972 346.199 240.312 345.756C239.653 345.307 238.824 345.082 237.824 345.082C237.108 345.082 236.489 345.196 235.966 345.423C235.443 345.645 235.037 345.952 234.747 346.344C234.463 346.73 234.321 347.17 234.321 347.665C234.321 348.08 234.418 348.437 234.611 348.739C234.81 349.04 235.068 349.293 235.386 349.497C235.71 349.696 236.057 349.864 236.426 350C236.795 350.131 237.151 350.239 237.491 350.324L239.196 350.767C239.753 350.903 240.324 351.088 240.909 351.321C241.494 351.554 242.037 351.861 242.537 352.241C243.037 352.622 243.44 353.094 243.747 353.656C244.06 354.219 244.216 354.892 244.216 355.676C244.216 356.665 243.96 357.543 243.449 358.31C242.943 359.077 242.207 359.682 241.241 360.125C240.281 360.568 239.119 360.79 237.756 360.79C236.449 360.79 235.318 360.582 234.364 360.168C233.409 359.753 232.662 359.165 232.122 358.403C231.582 357.636 231.284 356.727 231.227 355.676H233.869C233.92 356.307 234.125 356.832 234.483 357.253C234.847 357.668 235.31 357.977 235.872 358.182C236.44 358.381 237.062 358.48 237.739 358.48C238.483 358.48 239.145 358.364 239.724 358.131C240.31 357.892 240.77 357.562 241.105 357.142C241.44 356.716 241.608 356.219 241.608 355.651C241.608 355.134 241.46 354.71 241.165 354.381C240.875 354.051 240.48 353.778 239.98 353.562C239.486 353.347 238.926 353.156 238.301 352.991L236.239 352.429C234.841 352.048 233.733 351.489 232.915 350.75C232.102 350.011 231.696 349.034 231.696 347.818C231.696 346.812 231.969 345.935 232.514 345.185C233.06 344.435 233.798 343.852 234.73 343.438C235.662 343.017 236.713 342.807 237.884 342.807C239.065 342.807 240.108 343.014 241.011 343.429C241.92 343.844 242.636 344.415 243.159 345.142C243.682 345.864 243.955 346.693 243.977 347.631H241.438ZM247.363 343.045H250.559L256.116 356.614H256.32L261.877 343.045H265.073V360.5H262.567V347.869H262.406L257.258 360.474H255.178L250.031 347.861H249.869V360.5H247.363V343.045ZM278.422 347.631C278.331 346.824 277.956 346.199 277.297 345.756C276.638 345.307 275.808 345.082 274.808 345.082C274.092 345.082 273.473 345.196 272.95 345.423C272.428 345.645 272.021 345.952 271.732 346.344C271.447 346.73 271.305 347.17 271.305 347.665C271.305 348.08 271.402 348.437 271.595 348.739C271.794 349.04 272.053 349.293 272.371 349.497C272.695 349.696 273.041 349.864 273.411 350C273.78 350.131 274.135 350.239 274.476 350.324L276.18 350.767C276.737 350.903 277.308 351.088 277.893 351.321C278.479 351.554 279.021 351.861 279.521 352.241C280.021 352.622 280.425 353.094 280.732 353.656C281.044 354.219 281.2 354.892 281.2 355.676C281.2 356.665 280.945 357.543 280.433 358.31C279.928 359.077 279.192 359.682 278.226 360.125C277.266 360.568 276.104 360.79 274.74 360.79C273.433 360.79 272.303 360.582 271.348 360.168C270.393 359.753 269.646 359.165 269.107 358.403C268.567 357.636 268.268 356.727 268.212 355.676H270.854C270.905 356.307 271.109 356.832 271.467 357.253C271.831 357.668 272.294 357.977 272.857 358.182C273.425 358.381 274.047 358.48 274.723 358.48C275.467 358.48 276.129 358.364 276.709 358.131C277.294 357.892 277.754 357.562 278.089 357.142C278.425 356.716 278.592 356.219 278.592 355.651C278.592 355.134 278.445 354.71 278.149 354.381C277.859 354.051 277.464 353.778 276.964 353.562C276.47 353.347 275.911 353.156 275.286 352.991L273.223 352.429C271.825 352.048 270.717 351.489 269.899 350.75C269.087 350.011 268.68 349.034 268.68 347.818C268.68 346.812 268.953 345.935 269.499 345.185C270.044 344.435 270.783 343.852 271.714 343.438C272.646 343.017 273.697 342.807 274.868 342.807C276.05 342.807 277.092 343.014 277.996 343.429C278.905 343.844 279.621 344.415 280.143 345.142C280.666 345.864 280.939 346.693 280.962 347.631H278.422Z" fill="#0D4680"/>
</g>
</g>
<defs>
<filter id="filter0_d_140_693" x="0.5" y="0" width="408" height="400" filterUnits="userSpaceOnUse" color-interpolation-filters="sRGB">
<feFlood flood-opacity="0" result="BackgroundImageFix"/>
<feColorMatrix in="SourceAlpha" type="matrix" values="0 0 0 0 0 0 0 0 0 0 0 0 0 0 0 0 0 0 127 0" result="hardAlpha"/>
<feOffset dy="4"/>
<feGaussianBlur stdDeviation="2"/>
<feComposite in2="hardAlpha" operator="out"/>
<feColorMatrix type="matrix" values="0 0 0 0 0 0 0 0 0 0 0 0 0 0 0 0 0 0 0.25 0"/>
<feBlend mode="normal" in2="BackgroundImageFix" result="effect1_dropShadow_140_693"/>
<feBlend mode="normal" in="SourceGraphic" in2="effect1_dropShadow_140_693" result="shape"/>
</filter>
<filter id="filter1_d_140_693" x="4.5" y="0" width="404" height="84" filterUnits="userSpaceOnUse" color-interpolation-filters="sRGB">
<feFlood flood-opacity="0" result="BackgroundImageFix"/>
<feColorMatrix in="SourceAlpha" type="matrix" values="0 0 0 0 0 0 0 0 0 0 0 0 0 0 0 0 0 0 127 0" result="hardAlpha"/>
<feOffset dx="4" dy="4"/>
<feComposite in2="hardAlpha" operator="out"/>
<feColorMatrix type="matrix" values="0 0 0 0 0.667568 0 0 0 0 0.694595 0 0 0 0 0.932432 0 0 0 1 0"/>
<feBlend mode="normal" in2="BackgroundImageFix" result="effect1_dropShadow_140_693"/>
<feBlend mode="normal" in="SourceGraphic" in2="effect1_dropShadow_140_693" result="shape"/>
</filter>
<filter id="filter2_d_140_693" x="4.5" y="104" width="84" height="84" filterUnits="userSpaceOnUse" color-interpolation-filters="sRGB">
<feFlood flood-opacity="0" result="BackgroundImageFix"/>
<feColorMatrix in="SourceAlpha" type="matrix" values="0 0 0 0 0 0 0 0 0 0 0 0 0 0 0 0 0 0 127 0" result="hardAlpha"/>
<feOffset dx="4" dy="4"/>
<feComposite in2="hardAlpha" operator="out"/>
<feColorMatrix type="matrix" values="0 0 0 0 0.690435 0 0 0 0 0.909565 0 0 0 0 0.713043 0 0 0 1 0"/>
<feBlend mode="normal" in2="BackgroundImageFix" result="effect1_dropShadow_140_693"/>
<feBlend mode="normal" in="SourceGraphic" in2="effect1_dropShadow_140_693" result="shape"/>
</filter>
<filter id="filter3_d_140_693" x="108.5" y="104" width="300" height="84" filterUnits="userSpaceOnUse" color-interpolation-filters="sRGB">
<feFlood flood-opacity="0" result="BackgroundImageFix"/>
<feColorMatrix in="SourceAlpha" type="matrix" values="0 0 0 0 0 0 0 0 0 0 0 0 0 0 0 0 0 0 127 0" result="hardAlpha"/>
<feOffset dx="4" dy="4"/>
<feComposite in2="hardAlpha" operator="out"/>
<feColorMatrix type="matrix" values="0 0 0 0 0.690435 0 0 0 0 0.909565 0 0 0 0 0.713043 0 0 0 1 0"/>
<feBlend mode="normal" in2="BackgroundImageFix" result="effect1_dropShadow_140_693"/>
<feBlend mode="normal" in="SourceGraphic" in2="effect1_dropShadow_140_693" result="shape"/>
</filter>
<filter id="filter4_d_140_693" x="4.5" y="208" width="300" height="84" filterUnits="userSpaceOnUse" color-interpolation-filters="sRGB">
<feFlood flood-opacity="0" result="BackgroundImageFix"/>
<feColorMatrix in="SourceAlpha" type="matrix" values="0 0 0 0 0 0 0 0 0 0 0 0 0 0 0 0 0 0 127 0" result="hardAlpha"/>
<feOffset dx="4" dy="4"/>
<feComposite in2="hardAlpha" operator="out"/>
<feColorMatrix type="matrix" values="0 0 0 0 0.933061 0 0 0 0 0.733878 0 0 0 0 0.666939 0 0 0 1 0"/>
<feBlend mode="normal" in2="BackgroundImageFix" result="effect1_dropShadow_140_693"/>
<feBlend mode="normal" in="SourceGraphic" in2="effect1_dropShadow_140_693" result="shape"/>
</filter>
<filter id="filter5_d_140_693" x="324.5" y="208" width="84" height="84" filterUnits="userSpaceOnUse" color-interpolation-filters="sRGB">
<feFlood flood-opacity="0" result="BackgroundImageFix"/>
<feColorMatrix in="SourceAlpha" type="matrix" values="0 0 0 0 0 0 0 0 0 0 0 0 0 0 0 0 0 0 127 0" result="hardAlpha"/>
<feOffset dx="4" dy="4"/>
<feComposite in2="hardAlpha" operator="out"/>
<feColorMatrix type="matrix" values="0 0 0 0 0.933061 0 0 0 0 0.733878 0 0 0 0 0.666939 0 0 0 1 0"/>
<feBlend mode="normal" in2="BackgroundImageFix" result="effect1_dropShadow_140_693"/>
<feBlend mode="normal" in="SourceGraphic" in2="effect1_dropShadow_140_693" result="shape"/>
</filter>
<filter id="filter6_d_140_693" x="4.5" y="312" width="84" height="84" filterUnits="userSpaceOnUse" color-interpolation-filters="sRGB">
<feFlood flood-opacity="0" result="BackgroundImageFix"/>
<feColorMatrix in="SourceAlpha" type="matrix" values="0 0 0 0 0 0 0 0 0 0 0 0 0 0 0 0 0 0 127 0" result="hardAlpha"/>
<feOffset dx="4" dy="4"/>
<feComposite in2="hardAlpha" operator="out"/>
<feColorMatrix type="matrix" values="0 0 0 0 0.6 0 0 0 0 0.827451 0 0 0 0 1 0 0 0 1 0"/>
<feBlend mode="normal" in2="BackgroundImageFix" result="effect1_dropShadow_140_693"/>
<feBlend mode="normal" in="SourceGraphic" in2="effect1_dropShadow_140_693" result="shape"/>
</filter>
<filter id="filter7_d_140_693" x="108.5" y="312" width="300" height="84" filterUnits="userSpaceOnUse" color-interpolation-filters="sRGB">
<feFlood flood-opacity="0" result="BackgroundImageFix"/>
<feColorMatrix in="SourceAlpha" type="matrix" values="0 0 0 0 0 0 0 0 0 0 0 0 0 0 0 0 0 0 127 0" result="hardAlpha"/>
<feOffset dx="4" dy="4"/>
<feComposite in2="hardAlpha" operator="out"/>
<feColorMatrix type="matrix" values="0 0 0 0 0.6 0 0 0 0 0.827451 0 0 0 0 1 0 0 0 1 0"/>
<feBlend mode="normal" in2="BackgroundImageFix" result="effect1_dropShadow_140_693"/>
<feBlend mode="normal" in="SourceGraphic" in2="effect1_dropShadow_140_693" result="shape"/>
</filter>
<linearGradient id="paint0_linear_140_693" x1="44.5694" y1="159.837" x2="44.5694" y2="126.505" gradientUnits="userSpaceOnUse">
<stop stop-color="#F9F9F9"/>
<stop offset="1" stop-color="white"/>
</linearGradient>
<linearGradient id="paint1_linear_140_693" x1="44.5689" y1="159.26" x2="44.5689" y2="127.082" gradientUnits="userSpaceOnUse">
<stop stop-color="#20B038"/>
<stop offset="1" stop-color="#60D66A"/>
</linearGradient>
</defs>
</svg>
