<svg width="353" height="352" viewBox="0 0 353 352" fill="none" xmlns="http://www.w3.org/2000/svg">
<g filter="url(#filter0_d_153_459)">
<rect x="0.5" width="100" height="100" rx="16" fill="white" shape-rendering="crispEdges"/>
<rect x="1" y="0.5" width="99" height="99" rx="15.5" stroke="#212528" shape-rendering="crispEdges"/>
<path d="M64.5 40H60.5V44H64.5V40Z" fill="#0080FF"/>
<path d="M64.5 48H60.5V52H64.5V48Z" fill="#0080FF"/>
<path d="M64.5 56H60.5V60H64.5V56Z" fill="#0080FF"/>
<path d="M28.5 48V68H40.5V58H44.5V68H56.5V48L42.5 38L28.5 48ZM52.5 64H48.5V54H36.5V64H32.5V50L42.5 43L52.5 50V64Z" fill="#0080FF"/>
<path d="M46.5 32V35.94L50.5 38.8V36H68.5V64H60.5V68H72.5V32H46.5Z" fill="#0080FF"/>
</g>
<g filter="url(#filter1_d_153_459)">
<rect x="124.5" width="100" height="100" rx="16" fill="white" shape-rendering="crispEdges"/>
<rect x="125" y="0.5" width="99" height="99" rx="15.5" stroke="#212528" shape-rendering="crispEdges"/>
<path d="M192.5 30H156.5C154.3 30 152.5 31.8 152.5 34V58C152.5 60.2 154.3 62 156.5 62H170.5L166.5 68V70H182.5V68L178.5 62H192.5C194.7 62 196.5 60.2 196.5 58V34C196.5 31.8 194.7 30 192.5 30ZM192.5 54H156.5V34H192.5V54Z" fill="#F2800D"/>
</g>
<g filter="url(#filter2_d_153_459)">
<rect x="248.5" width="100" height="100" rx="16" fill="white" shape-rendering="crispEdges"/>
<rect x="249" y="0.5" width="99" height="99" rx="15.5" stroke="#212528" shape-rendering="crispEdges"/>
<path d="M312.5 43H310.5V33H290.5V43H288.94C287.84 41.78 286.28 41 284.5 41C281.18 41 278.5 43.68 278.5 47V61C278.5 64.32 281.18 67 284.5 67C286.28 67 287.84 66.22 288.94 65H318.5V49C318.5 45.68 315.82 43 312.5 43ZM286.5 61C286.5 62.1 285.6 63 284.5 63C283.4 63 282.5 62.1 282.5 61V47C282.5 45.9 283.4 45 284.5 45C285.6 45 286.5 45.9 286.5 47V61ZM294.5 37H306.5V43H294.5V37ZM314.5 61H290.5V47H312.5C313.6 47 314.5 47.9 314.5 49V61Z" fill="#0080FF"/>
<path d="M304.5 53C305.605 53 306.5 52.1046 306.5 51C306.5 49.8954 305.605 49 304.5 49C303.395 49 302.5 49.8954 302.5 51C302.5 52.1046 303.395 53 304.5 53Z" fill="#0080FF"/>
<path d="M310.5 53C311.605 53 312.5 52.1046 312.5 51C312.5 49.8954 311.605 49 310.5 49C309.395 49 308.5 49.8954 308.5 51C308.5 52.1046 309.395 53 310.5 53Z" fill="#0080FF"/>
<path d="M304.5 59C305.605 59 306.5 58.1046 306.5 57C306.5 55.8954 305.605 55 304.5 55C303.395 55 302.5 55.8954 302.5 57C302.5 58.1046 303.395 59 304.5 59Z" fill="#0080FF"/>
<path d="M310.5 59C311.605 59 312.5 58.1046 312.5 57C312.5 55.8954 311.605 55 310.5 55C309.395 55 308.5 55.8954 308.5 57C308.5 58.1046 309.395 59 310.5 59Z" fill="#0080FF"/>
<path d="M300.5 49H292.5V59H300.5V49Z" fill="#0080FF"/>
</g>
<g filter="url(#filter3_d_153_459)">
<rect x="0.5" y="124" width="224" height="100" rx="16" fill="white" shape-rendering="crispEdges"/>
<rect x="1" y="124.5" width="223" height="99" rx="15.5" stroke="#212528" shape-rendering="crispEdges"/>
<path d="M47.5856 167V149.545H58.4094V151.812H50.2191V157.131H57.6339V159.389H50.2191V167H47.5856ZM61.4435 167V153.909H63.9918V167H61.4435ZM62.7305 151.889C62.2873 151.889 61.9066 151.741 61.5884 151.446C61.2759 151.145 61.1197 150.787 61.1197 150.372C61.1197 149.952 61.2759 149.594 61.5884 149.298C61.9066 148.997 62.2873 148.847 62.7305 148.847C63.1737 148.847 63.5515 148.997 63.864 149.298C64.1822 149.594 64.3413 149.952 64.3413 150.372C64.3413 150.787 64.1822 151.145 63.864 151.446C63.5515 151.741 63.1737 151.889 62.7305 151.889ZM69.4315 153.909L72.3207 159.006L75.2354 153.909H78.0224L73.94 160.455L78.0565 167H75.2695L72.3207 162.108L69.3803 167H66.5849L70.6587 160.455L66.636 153.909H69.4315ZM85.7653 167.264C84.4755 167.264 83.3647 166.989 82.4329 166.438C81.5067 165.881 80.7908 165.099 80.2852 164.094C79.7852 163.082 79.5352 161.898 79.5352 160.54C79.5352 159.199 79.7852 158.017 80.2852 156.994C80.7908 155.972 81.4954 155.173 82.3988 154.599C83.3079 154.026 84.3704 153.739 85.5863 153.739C86.3249 153.739 87.0408 153.861 87.734 154.105C88.4272 154.349 89.0494 154.733 89.6005 155.256C90.1516 155.778 90.5863 156.457 90.9045 157.293C91.2227 158.122 91.3817 159.131 91.3817 160.318V161.222H80.9755V159.312H88.8846C88.8846 158.642 88.7482 158.048 88.4755 157.531C88.2028 157.009 87.8192 156.597 87.3249 156.295C86.8363 155.994 86.2624 155.844 85.6033 155.844C84.8874 155.844 84.2624 156.02 83.7283 156.372C83.1999 156.719 82.7908 157.173 82.5011 157.736C82.217 158.293 82.0749 158.898 82.0749 159.551V161.043C82.0749 161.918 82.2283 162.662 82.5352 163.276C82.8477 163.889 83.2823 164.358 83.8391 164.682C84.396 165 85.0465 165.159 85.7908 165.159C86.2738 165.159 86.7141 165.091 87.1119 164.955C87.5096 164.812 87.8533 164.602 88.1431 164.324C88.4329 164.045 88.6545 163.702 88.8079 163.293L91.2198 163.727C91.0266 164.437 90.68 165.06 90.18 165.594C89.6857 166.122 89.0636 166.534 88.3136 166.83C87.5692 167.119 86.7198 167.264 85.7653 167.264ZM99.1097 167.256C98.0529 167.256 97.1097 166.986 96.2802 166.446C95.4563 165.901 94.8086 165.125 94.337 164.119C93.8711 163.108 93.6381 161.895 93.6381 160.48C93.6381 159.065 93.8739 157.855 94.3455 156.849C94.8228 155.844 95.4762 155.074 96.3058 154.54C97.1353 154.006 98.0756 153.739 99.1268 153.739C99.9393 153.739 100.593 153.875 101.087 154.148C101.587 154.415 101.973 154.727 102.246 155.085C102.525 155.443 102.74 155.759 102.894 156.031H103.047V149.545H105.596V167H103.107V164.963H102.894C102.74 165.241 102.519 165.56 102.229 165.918C101.945 166.276 101.553 166.588 101.053 166.855C100.553 167.122 99.9052 167.256 99.1097 167.256ZM99.6722 165.082C100.405 165.082 101.025 164.889 101.53 164.503C102.042 164.111 102.428 163.568 102.689 162.875C102.956 162.182 103.09 161.375 103.09 160.455C103.09 159.545 102.959 158.75 102.698 158.068C102.436 157.386 102.053 156.855 101.547 156.474C101.042 156.094 100.417 155.903 99.6722 155.903C98.9052 155.903 98.266 156.102 97.7546 156.5C97.2433 156.898 96.8569 157.44 96.5955 158.128C96.3398 158.815 96.212 159.591 96.212 160.455C96.212 161.33 96.3427 162.116 96.604 162.815C96.8654 163.514 97.2518 164.068 97.7631 164.477C98.2802 164.881 98.9165 165.082 99.6722 165.082ZM117.263 167H114.468L120.749 149.545H123.792L130.073 167H127.277L122.343 152.716H122.206L117.263 167ZM117.732 160.165H126.8V162.381H117.732V160.165ZM142.105 157.105L139.795 157.514C139.699 157.219 139.545 156.937 139.335 156.67C139.13 156.403 138.852 156.185 138.5 156.014C138.147 155.844 137.707 155.759 137.179 155.759C136.457 155.759 135.855 155.92 135.372 156.244C134.889 156.562 134.647 156.974 134.647 157.48C134.647 157.918 134.809 158.27 135.133 158.537C135.457 158.804 135.98 159.023 136.701 159.193L138.781 159.67C139.985 159.949 140.883 160.378 141.474 160.957C142.065 161.537 142.36 162.29 142.36 163.216C142.36 164 142.133 164.699 141.679 165.312C141.23 165.92 140.602 166.398 139.795 166.744C138.994 167.091 138.065 167.264 137.008 167.264C135.542 167.264 134.346 166.952 133.42 166.327C132.494 165.696 131.926 164.801 131.716 163.642L134.179 163.267C134.332 163.909 134.647 164.395 135.125 164.724C135.602 165.048 136.224 165.21 136.991 165.21C137.826 165.21 138.494 165.037 138.994 164.69C139.494 164.338 139.744 163.909 139.744 163.403C139.744 162.994 139.591 162.651 139.284 162.372C138.983 162.094 138.52 161.884 137.895 161.741L135.679 161.256C134.457 160.977 133.554 160.534 132.968 159.926C132.389 159.318 132.099 158.548 132.099 157.616C132.099 156.844 132.315 156.168 132.747 155.588C133.179 155.009 133.775 154.557 134.537 154.233C135.298 153.903 136.17 153.739 137.153 153.739C138.568 153.739 139.681 154.045 140.494 154.659C141.306 155.267 141.843 156.082 142.105 157.105ZM154.972 157.105L152.662 157.514C152.566 157.219 152.412 156.937 152.202 156.67C151.998 156.403 151.719 156.185 151.367 156.014C151.015 155.844 150.574 155.759 150.046 155.759C149.324 155.759 148.722 155.92 148.239 156.244C147.756 156.562 147.515 156.974 147.515 157.48C147.515 157.918 147.676 158.27 148 158.537C148.324 158.804 148.847 159.023 149.569 159.193L151.648 159.67C152.853 159.949 153.75 160.378 154.341 160.957C154.932 161.537 155.228 162.29 155.228 163.216C155.228 164 155 164.699 154.546 165.312C154.097 165.92 153.469 166.398 152.662 166.744C151.861 167.091 150.932 167.264 149.875 167.264C148.409 167.264 147.213 166.952 146.287 166.327C145.361 165.696 144.793 164.801 144.583 163.642L147.046 163.267C147.199 163.909 147.515 164.395 147.992 164.724C148.469 165.048 149.091 165.21 149.858 165.21C150.694 165.21 151.361 165.037 151.861 164.69C152.361 164.338 152.611 163.909 152.611 163.403C152.611 162.994 152.458 162.651 152.151 162.372C151.85 162.094 151.387 161.884 150.762 161.741L148.546 161.256C147.324 160.977 146.421 160.534 145.836 159.926C145.256 159.318 144.966 158.548 144.966 157.616C144.966 156.844 145.182 156.168 145.614 155.588C146.046 155.009 146.642 154.557 147.404 154.233C148.165 153.903 149.037 153.739 150.02 153.739C151.435 153.739 152.549 154.045 153.361 154.659C154.174 155.267 154.711 156.082 154.972 157.105ZM163.672 167.264C162.382 167.264 161.271 166.989 160.339 166.438C159.413 165.881 158.697 165.099 158.191 164.094C157.691 163.082 157.441 161.898 157.441 160.54C157.441 159.199 157.691 158.017 158.191 156.994C158.697 155.972 159.402 155.173 160.305 154.599C161.214 154.026 162.277 153.739 163.493 153.739C164.231 153.739 164.947 153.861 165.64 154.105C166.333 154.349 166.956 154.733 167.507 155.256C168.058 155.778 168.493 156.457 168.811 157.293C169.129 158.122 169.288 159.131 169.288 160.318V161.222H158.882V159.312H166.791C166.791 158.642 166.654 158.048 166.382 157.531C166.109 157.009 165.725 156.597 165.231 156.295C164.743 155.994 164.169 155.844 163.51 155.844C162.794 155.844 162.169 156.02 161.635 156.372C161.106 156.719 160.697 157.173 160.407 157.736C160.123 158.293 159.981 158.898 159.981 159.551V161.043C159.981 161.918 160.135 162.662 160.441 163.276C160.754 163.889 161.189 164.358 161.745 164.682C162.302 165 162.953 165.159 163.697 165.159C164.18 165.159 164.62 165.091 165.018 164.955C165.416 164.812 165.76 164.602 166.049 164.324C166.339 164.045 166.561 163.702 166.714 163.293L169.126 163.727C168.933 164.437 168.586 165.06 168.086 165.594C167.592 166.122 166.97 166.534 166.22 166.83C165.475 167.119 164.626 167.264 163.672 167.264ZM178.226 153.909V155.955H171.076V153.909H178.226ZM172.993 150.773H175.542V163.156C175.542 163.651 175.615 164.023 175.763 164.273C175.911 164.517 176.101 164.685 176.334 164.776C176.573 164.861 176.831 164.903 177.11 164.903C177.314 164.903 177.493 164.889 177.647 164.861C177.8 164.832 177.919 164.81 178.005 164.793L178.465 166.898C178.317 166.955 178.107 167.011 177.834 167.068C177.561 167.131 177.221 167.165 176.811 167.17C176.141 167.182 175.516 167.062 174.936 166.812C174.357 166.562 173.888 166.176 173.53 165.653C173.172 165.131 172.993 164.474 172.993 163.685V150.773ZM39.0778 181.545H42.2738L47.8306 195.114H48.0352L53.592 181.545H56.788V199H54.2823V186.369H54.1204L48.9727 198.974H46.8931L41.7454 186.361H41.5835V199H39.0778V181.545ZM64.2219 199.29C63.3924 199.29 62.6424 199.136 61.9719 198.83C61.3015 198.517 60.7702 198.065 60.3782 197.474C59.9918 196.884 59.7987 196.159 59.7987 195.301C59.7987 194.562 59.9407 193.955 60.2248 193.477C60.5089 193 60.8924 192.622 61.3754 192.344C61.8583 192.065 62.3981 191.855 62.9947 191.713C63.5913 191.571 64.1992 191.463 64.8185 191.389C65.6026 191.298 66.239 191.224 66.7276 191.168C67.2163 191.105 67.5714 191.006 67.793 190.869C68.0146 190.733 68.1254 190.511 68.1254 190.205V190.145C68.1254 189.401 67.9151 188.824 67.4947 188.415C67.0799 188.006 66.4606 187.801 65.6367 187.801C64.7788 187.801 64.1026 187.991 63.6083 188.372C63.1197 188.747 62.7816 189.165 62.5941 189.625L60.1992 189.08C60.4833 188.284 60.8981 187.642 61.4435 187.153C61.9947 186.659 62.6282 186.301 63.3441 186.08C64.06 185.852 64.8129 185.739 65.6026 185.739C66.1254 185.739 66.6793 185.801 67.2646 185.926C67.8555 186.045 68.4066 186.267 68.918 186.591C69.435 186.915 69.8583 187.378 70.1879 187.98C70.5174 188.577 70.6822 189.352 70.6822 190.307V199H68.1935V197.21H68.0913C67.9265 197.54 67.6793 197.864 67.3498 198.182C67.0202 198.5 66.5969 198.764 66.0799 198.974C65.5629 199.185 64.9435 199.29 64.2219 199.29ZM64.7759 197.244C65.4805 197.244 66.0827 197.105 66.5827 196.827C67.0884 196.548 67.4719 196.185 67.7333 195.736C68.0004 195.281 68.1339 194.795 68.1339 194.278V192.591C68.043 192.682 67.8668 192.767 67.6055 192.847C67.3498 192.92 67.0572 192.986 66.7276 193.043C66.3981 193.094 66.0771 193.142 65.7646 193.188C65.4521 193.227 65.1907 193.261 64.9805 193.29C64.4862 193.352 64.0344 193.457 63.6254 193.605C63.2219 193.753 62.8981 193.966 62.6538 194.244C62.4151 194.517 62.2958 194.881 62.2958 195.335C62.2958 195.966 62.5288 196.443 62.9947 196.767C63.4606 197.085 64.0543 197.244 64.7759 197.244ZM76.6246 191.227V199H74.0763V185.909H76.5224V188.04H76.6843C76.9854 187.347 77.457 186.79 78.0991 186.369C78.7468 185.949 79.5621 185.739 80.5451 185.739C81.4371 185.739 82.2184 185.926 82.8888 186.301C83.5593 186.67 84.0792 187.222 84.4485 187.955C84.8178 188.687 85.0025 189.594 85.0025 190.673V199H82.4542V190.98C82.4542 190.031 82.207 189.29 81.7127 188.756C81.2184 188.216 80.5394 187.946 79.6758 187.946C79.0849 187.946 78.5593 188.074 78.0991 188.33C77.6445 188.585 77.2837 188.96 77.0167 189.455C76.7553 189.943 76.6246 190.534 76.6246 191.227ZM92.2298 199.29C91.4002 199.29 90.6502 199.136 89.9798 198.83C89.3093 198.517 88.7781 198.065 88.386 197.474C87.9996 196.884 87.8065 196.159 87.8065 195.301C87.8065 194.562 87.9485 193.955 88.2326 193.477C88.5167 193 88.9002 192.622 89.3832 192.344C89.8661 192.065 90.4059 191.855 91.0025 191.713C91.5991 191.571 92.207 191.463 92.8263 191.389C93.6104 191.298 94.2468 191.224 94.7354 191.168C95.2241 191.105 95.5792 191.006 95.8008 190.869C96.0224 190.733 96.1332 190.511 96.1332 190.205V190.145C96.1332 189.401 95.9229 188.824 95.5025 188.415C95.0877 188.006 94.4684 187.801 93.6445 187.801C92.7866 187.801 92.1104 187.991 91.6161 188.372C91.1275 188.747 90.7894 189.165 90.6019 189.625L88.207 189.08C88.4911 188.284 88.9059 187.642 89.4513 187.153C90.0025 186.659 90.636 186.301 91.3519 186.08C92.0678 185.852 92.8207 185.739 93.6104 185.739C94.1332 185.739 94.6871 185.801 95.2724 185.926C95.8633 186.045 96.4144 186.267 96.9258 186.591C97.4428 186.915 97.8661 187.378 98.1957 187.98C98.5252 188.577 98.69 189.352 98.69 190.307V199H96.2013V197.21H96.0991C95.9343 197.54 95.6871 197.864 95.3576 198.182C95.0281 198.5 94.6048 198.764 94.0877 198.974C93.5707 199.185 92.9513 199.29 92.2298 199.29ZM92.7837 197.244C93.4883 197.244 94.0906 197.105 94.5906 196.827C95.0962 196.548 95.4798 196.185 95.7411 195.736C96.0082 195.281 96.1417 194.795 96.1417 194.278V192.591C96.0508 192.682 95.8746 192.767 95.6133 192.847C95.3576 192.92 95.065 192.986 94.7354 193.043C94.4059 193.094 94.0849 193.142 93.7724 193.188C93.4599 193.227 93.1985 193.261 92.9883 193.29C92.494 193.352 92.0423 193.457 91.6332 193.605C91.2298 193.753 90.9059 193.966 90.6616 194.244C90.4229 194.517 90.3036 194.881 90.3036 195.335C90.3036 195.966 90.5366 196.443 91.0025 196.767C91.4684 197.085 92.0621 197.244 92.7837 197.244ZM107.573 204.182C106.533 204.182 105.638 204.045 104.888 203.773C104.144 203.5 103.536 203.139 103.064 202.69C102.593 202.241 102.24 201.75 102.007 201.216L104.198 200.312C104.351 200.562 104.556 200.827 104.811 201.105C105.073 201.389 105.425 201.631 105.868 201.83C106.317 202.028 106.894 202.128 107.598 202.128C108.564 202.128 109.363 201.892 109.993 201.42C110.624 200.955 110.939 200.21 110.939 199.188V196.614H110.777C110.624 196.892 110.402 197.202 110.113 197.543C109.828 197.884 109.436 198.179 108.936 198.429C108.436 198.679 107.786 198.804 106.985 198.804C105.951 198.804 105.019 198.562 104.189 198.08C103.365 197.591 102.712 196.872 102.229 195.923C101.752 194.969 101.513 193.795 101.513 192.403C101.513 191.011 101.749 189.818 102.221 188.824C102.698 187.83 103.351 187.068 104.181 186.54C105.01 186.006 105.951 185.739 107.002 185.739C107.814 185.739 108.471 185.875 108.971 186.148C109.471 186.415 109.86 186.727 110.138 187.085C110.422 187.443 110.641 187.759 110.794 188.031H110.982V185.909H113.479V199.29C113.479 200.415 113.218 201.338 112.695 202.06C112.172 202.781 111.465 203.315 110.573 203.662C109.686 204.009 108.686 204.182 107.573 204.182ZM107.547 196.69C108.28 196.69 108.9 196.52 109.405 196.179C109.917 195.832 110.303 195.338 110.564 194.696C110.831 194.048 110.965 193.273 110.965 192.369C110.965 191.489 110.834 190.713 110.573 190.043C110.311 189.372 109.928 188.849 109.422 188.474C108.917 188.094 108.292 187.903 107.547 187.903C106.78 187.903 106.141 188.102 105.63 188.5C105.118 188.892 104.732 189.426 104.471 190.102C104.215 190.778 104.087 191.534 104.087 192.369C104.087 193.227 104.218 193.98 104.479 194.628C104.74 195.276 105.127 195.781 105.638 196.145C106.155 196.509 106.792 196.69 107.547 196.69ZM122.539 199.264C121.249 199.264 120.138 198.989 119.206 198.438C118.28 197.881 117.564 197.099 117.059 196.094C116.559 195.082 116.309 193.898 116.309 192.54C116.309 191.199 116.559 190.017 117.059 188.994C117.564 187.972 118.269 187.173 119.172 186.599C120.081 186.026 121.144 185.739 122.36 185.739C123.098 185.739 123.814 185.861 124.507 186.105C125.201 186.349 125.823 186.733 126.374 187.256C126.925 187.778 127.36 188.457 127.678 189.293C127.996 190.122 128.155 191.131 128.155 192.318V193.222H117.749V191.312H125.658C125.658 190.642 125.522 190.048 125.249 189.531C124.976 189.009 124.593 188.597 124.098 188.295C123.61 187.994 123.036 187.844 122.377 187.844C121.661 187.844 121.036 188.02 120.502 188.372C119.973 188.719 119.564 189.173 119.275 189.736C118.99 190.293 118.848 190.898 118.848 191.551V193.043C118.848 193.918 119.002 194.662 119.309 195.276C119.621 195.889 120.056 196.358 120.613 196.682C121.169 197 121.82 197.159 122.564 197.159C123.047 197.159 123.488 197.091 123.885 196.955C124.283 196.812 124.627 196.602 124.917 196.324C125.206 196.045 125.428 195.702 125.581 195.293L127.993 195.727C127.8 196.437 127.453 197.06 126.953 197.594C126.459 198.122 125.837 198.534 125.087 198.83C124.343 199.119 123.493 199.264 122.539 199.264ZM130.983 199V185.909H133.429V188.04H133.591C133.863 187.318 134.309 186.756 134.929 186.352C135.548 185.943 136.289 185.739 137.153 185.739C138.028 185.739 138.761 185.943 139.352 186.352C139.949 186.761 140.389 187.324 140.673 188.04H140.809C141.122 187.341 141.619 186.784 142.301 186.369C142.983 185.949 143.795 185.739 144.738 185.739C145.926 185.739 146.895 186.111 147.645 186.855C148.4 187.599 148.778 188.722 148.778 190.222V199H146.23V190.46C146.23 189.574 145.988 188.932 145.505 188.534C145.022 188.136 144.446 187.938 143.775 187.938C142.946 187.938 142.301 188.193 141.841 188.705C141.38 189.21 141.15 189.861 141.15 190.656V199H138.61V190.298C138.61 189.588 138.389 189.017 137.946 188.585C137.502 188.153 136.926 187.938 136.216 187.938C135.733 187.938 135.287 188.065 134.877 188.321C134.474 188.571 134.147 188.92 133.897 189.369C133.653 189.818 133.531 190.338 133.531 190.929V199H130.983ZM157.836 199.264C156.546 199.264 155.435 198.989 154.503 198.438C153.577 197.881 152.861 197.099 152.355 196.094C151.855 195.082 151.605 193.898 151.605 192.54C151.605 191.199 151.855 190.017 152.355 188.994C152.861 187.972 153.566 187.173 154.469 186.599C155.378 186.026 156.441 185.739 157.657 185.739C158.395 185.739 159.111 185.861 159.804 186.105C160.498 186.349 161.12 186.733 161.671 187.256C162.222 187.778 162.657 188.457 162.975 189.293C163.293 190.122 163.452 191.131 163.452 192.318V193.222H153.046V191.312H160.955C160.955 190.642 160.819 190.048 160.546 189.531C160.273 189.009 159.89 188.597 159.395 188.295C158.907 187.994 158.333 187.844 157.674 187.844C156.958 187.844 156.333 188.02 155.799 188.372C155.27 188.719 154.861 189.173 154.571 189.736C154.287 190.293 154.145 190.898 154.145 191.551V193.043C154.145 193.918 154.299 194.662 154.605 195.276C154.918 195.889 155.353 196.358 155.909 196.682C156.466 197 157.117 197.159 157.861 197.159C158.344 197.159 158.784 197.091 159.182 196.955C159.58 196.812 159.924 196.602 160.213 196.324C160.503 196.045 160.725 195.702 160.878 195.293L163.29 195.727C163.097 196.437 162.75 197.06 162.25 197.594C161.756 198.122 161.134 198.534 160.384 198.83C159.64 199.119 158.79 199.264 157.836 199.264ZM168.828 191.227V199H166.279V185.909H168.725V188.04H168.887C169.189 187.347 169.66 186.79 170.302 186.369C170.95 185.949 171.765 185.739 172.748 185.739C173.64 185.739 174.422 185.926 175.092 186.301C175.762 186.67 176.282 187.222 176.652 187.955C177.021 188.687 177.206 189.594 177.206 190.673V199H174.657V190.98C174.657 190.031 174.41 189.29 173.916 188.756C173.422 188.216 172.743 187.946 171.879 187.946C171.288 187.946 170.762 188.074 170.302 188.33C169.848 188.585 169.487 188.96 169.22 189.455C168.958 189.943 168.828 190.534 168.828 191.227ZM186.734 185.909V187.955H179.583V185.909H186.734ZM181.501 182.773H184.049V195.156C184.049 195.651 184.123 196.023 184.271 196.273C184.419 196.517 184.609 196.685 184.842 196.776C185.081 196.861 185.339 196.903 185.618 196.903C185.822 196.903 186.001 196.889 186.154 196.861C186.308 196.832 186.427 196.81 186.512 196.793L186.973 198.898C186.825 198.955 186.615 199.011 186.342 199.068C186.069 199.131 185.728 199.165 185.319 199.17C184.649 199.182 184.024 199.062 183.444 198.812C182.865 198.562 182.396 198.176 182.038 197.653C181.68 197.131 181.501 196.474 181.501 195.685V182.773Z" fill="#212528"/>
</g>
<g filter="url(#filter4_d_153_459)">
<rect x="248.5" y="124" width="100" height="100" rx="16" fill="white" shape-rendering="crispEdges"/>
<rect x="249" y="124.5" width="99" height="99" rx="15.5" stroke="#212528" shape-rendering="crispEdges"/>
<path d="M318.42 169.46L315.56 159.46C315.32 158.6 314.54 158 313.64 158H283.36C282.46 158 281.68 158.6 281.44 159.46L278.58 169.46C278.22 170.72 279.18 172 280.5 172H284.9L282.5 190H286.5L287.84 180H309.18L310.5 190H314.5L312.1 172H316.5C317.82 172 318.78 170.72 318.42 169.46ZM288.36 176L288.9 172H308.1L308.64 176H288.36ZM283.16 168L284.88 162H312.14L313.86 168H283.16Z" fill="#F2800D"/>
</g>
<g filter="url(#filter5_d_153_459)">
<rect x="0.5" y="248" width="100" height="100" rx="16" fill="white" shape-rendering="crispEdges"/>
<rect x="1" y="248.5" width="99" height="99" rx="15.5" stroke="#212528" shape-rendering="crispEdges"/>
<path d="M64.34 284.02C63.94 282.84 62.82 282 61.5 282H39.5C38.18 282 37.08 282.84 36.66 284.02L32.5 296V312C32.5 313.1 33.4 314 34.5 314H36.5C37.6 314 38.5 313.1 38.5 312V310H62.5V312C62.5 313.1 63.4 314 64.5 314H66.5C67.6 314 68.5 313.1 68.5 312V296L64.34 284.02ZM40.2 286H60.78L62.94 292.22H38.04L40.2 286ZM64.5 306H36.5V296H64.5V306Z" fill="#0080FF"/>
<path d="M41.5 304C43.1569 304 44.5 302.657 44.5 301C44.5 299.343 43.1569 298 41.5 298C39.8431 298 38.5 299.343 38.5 301C38.5 302.657 39.8431 304 41.5 304Z" fill="#0080FF"/>
<path d="M59.5 304C61.1569 304 62.5 302.657 62.5 301C62.5 299.343 61.1569 298 59.5 298C57.8431 298 56.5 299.343 56.5 301C56.5 302.657 57.8431 304 59.5 304Z" fill="#0080FF"/>
</g>
<g filter="url(#filter6_d_153_459)">
<rect x="124.5" y="248" width="100" height="100" rx="16" fill="white" shape-rendering="crispEdges"/>
<rect x="125" y="248.5" width="99" height="99" rx="15.5" stroke="#212528" shape-rendering="crispEdges"/>
<path d="M158.5 286H154.5V314C154.5 316.2 156.3 318 158.5 318H186.5V314H158.5V286ZM190.5 278H166.5C164.3 278 162.5 279.8 162.5 282V306C162.5 308.2 164.3 310 166.5 310H190.5C192.7 310 194.5 308.2 194.5 306V282C194.5 279.8 192.7 278 190.5 278ZM184.5 282V292L182.5 290.5L180.5 292V282H184.5ZM190.5 306H166.5V282H176.5V300L182.5 295.5L188.5 300V282H190.5V306Z" fill="#F2800D"/>
</g>
<g filter="url(#filter7_d_153_459)">
<rect x="248.5" y="248" width="100" height="100" rx="16" fill="white" shape-rendering="crispEdges"/>
<rect x="249" y="248.5" width="99" height="99" rx="15.5" stroke="#212528" shape-rendering="crispEdges"/>
<path d="M298.5 288V280H278.5V316H318.5V288H298.5ZM286.5 312H282.5V308H286.5V312ZM286.5 304H282.5V300H286.5V304ZM286.5 296H282.5V292H286.5V296ZM286.5 288H282.5V284H286.5V288ZM294.5 312H290.5V308H294.5V312ZM294.5 304H290.5V300H294.5V304ZM294.5 296H290.5V292H294.5V296ZM294.5 288H290.5V284H294.5V288ZM314.5 312H298.5V308H302.5V304H298.5V300H302.5V296H298.5V292H314.5V312ZM310.5 296H306.5V300H310.5V296ZM310.5 304H306.5V308H310.5V304Z" fill="#0080FF"/>
</g>
<defs>
<filter id="filter0_d_153_459" x="0.5" y="0" width="104" height="104" filterUnits="userSpaceOnUse" color-interpolation-filters="sRGB">
<feFlood flood-opacity="0" result="BackgroundImageFix"/>
<feColorMatrix in="SourceAlpha" type="matrix" values="0 0 0 0 0 0 0 0 0 0 0 0 0 0 0 0 0 0 127 0" result="hardAlpha"/>
<feOffset dx="4" dy="4"/>
<feComposite in2="hardAlpha" operator="out"/>
<feColorMatrix type="matrix" values="0 0 0 0 0.667568 0 0 0 0 0.8 0 0 0 0 0.932432 0 0 0 1 0"/>
<feBlend mode="normal" in2="BackgroundImageFix" result="effect1_dropShadow_153_459"/>
<feBlend mode="normal" in="SourceGraphic" in2="effect1_dropShadow_153_459" result="shape"/>
</filter>
<filter id="filter1_d_153_459" x="124.5" y="0" width="104" height="104" filterUnits="userSpaceOnUse" color-interpolation-filters="sRGB">
<feFlood flood-opacity="0" result="BackgroundImageFix"/>
<feColorMatrix in="SourceAlpha" type="matrix" values="0 0 0 0 0 0 0 0 0 0 0 0 0 0 0 0 0 0 127 0" result="hardAlpha"/>
<feOffset dx="4" dy="4"/>
<feComposite in2="hardAlpha" operator="out"/>
<feColorMatrix type="matrix" values="0 0 0 0 0.932432 0 0 0 0 0.842378 0 0 0 0 0.667568 0 0 0 1 0"/>
<feBlend mode="normal" in2="BackgroundImageFix" result="effect1_dropShadow_153_459"/>
<feBlend mode="normal" in="SourceGraphic" in2="effect1_dropShadow_153_459" result="shape"/>
</filter>
<filter id="filter2_d_153_459" x="248.5" y="0" width="104" height="104" filterUnits="userSpaceOnUse" color-interpolation-filters="sRGB">
<feFlood flood-opacity="0" result="BackgroundImageFix"/>
<feColorMatrix in="SourceAlpha" type="matrix" values="0 0 0 0 0 0 0 0 0 0 0 0 0 0 0 0 0 0 127 0" result="hardAlpha"/>
<feOffset dx="4" dy="4"/>
<feComposite in2="hardAlpha" operator="out"/>
<feColorMatrix type="matrix" values="0 0 0 0 0.667568 0 0 0 0 0.8 0 0 0 0 0.932432 0 0 0 1 0"/>
<feBlend mode="normal" in2="BackgroundImageFix" result="effect1_dropShadow_153_459"/>
<feBlend mode="normal" in="SourceGraphic" in2="effect1_dropShadow_153_459" result="shape"/>
</filter>
<filter id="filter3_d_153_459" x="0.5" y="124" width="228" height="104" filterUnits="userSpaceOnUse" color-interpolation-filters="sRGB">
<feFlood flood-opacity="0" result="BackgroundImageFix"/>
<feColorMatrix in="SourceAlpha" type="matrix" values="0 0 0 0 0 0 0 0 0 0 0 0 0 0 0 0 0 0 127 0" result="hardAlpha"/>
<feOffset dx="4" dy="4"/>
<feComposite in2="hardAlpha" operator="out"/>
<feColorMatrix type="matrix" values="0 0 0 0 0.690435 0 0 0 0 0.909565 0 0 0 0 0.713043 0 0 0 1 0"/>
<feBlend mode="normal" in2="BackgroundImageFix" result="effect1_dropShadow_153_459"/>
<feBlend mode="normal" in="SourceGraphic" in2="effect1_dropShadow_153_459" result="shape"/>
</filter>
<filter id="filter4_d_153_459" x="248.5" y="124" width="104" height="104" filterUnits="userSpaceOnUse" color-interpolation-filters="sRGB">
<feFlood flood-opacity="0" result="BackgroundImageFix"/>
<feColorMatrix in="SourceAlpha" type="matrix" values="0 0 0 0 0 0 0 0 0 0 0 0 0 0 0 0 0 0 127 0" result="hardAlpha"/>
<feOffset dx="4" dy="4"/>
<feComposite in2="hardAlpha" operator="out"/>
<feColorMatrix type="matrix" values="0 0 0 0 0.932432 0 0 0 0 0.842378 0 0 0 0 0.667568 0 0 0 1 0"/>
<feBlend mode="normal" in2="BackgroundImageFix" result="effect1_dropShadow_153_459"/>
<feBlend mode="normal" in="SourceGraphic" in2="effect1_dropShadow_153_459" result="shape"/>
</filter>
<filter id="filter5_d_153_459" x="0.5" y="248" width="104" height="104" filterUnits="userSpaceOnUse" color-interpolation-filters="sRGB">
<feFlood flood-opacity="0" result="BackgroundImageFix"/>
<feColorMatrix in="SourceAlpha" type="matrix" values="0 0 0 0 0 0 0 0 0 0 0 0 0 0 0 0 0 0 127 0" result="hardAlpha"/>
<feOffset dx="4" dy="4"/>
<feComposite in2="hardAlpha" operator="out"/>
<feColorMatrix type="matrix" values="0 0 0 0 0.667568 0 0 0 0 0.8 0 0 0 0 0.932432 0 0 0 1 0"/>
<feBlend mode="normal" in2="BackgroundImageFix" result="effect1_dropShadow_153_459"/>
<feBlend mode="normal" in="SourceGraphic" in2="effect1_dropShadow_153_459" result="shape"/>
</filter>
<filter id="filter6_d_153_459" x="124.5" y="248" width="104" height="104" filterUnits="userSpaceOnUse" color-interpolation-filters="sRGB">
<feFlood flood-opacity="0" result="BackgroundImageFix"/>
<feColorMatrix in="SourceAlpha" type="matrix" values="0 0 0 0 0 0 0 0 0 0 0 0 0 0 0 0 0 0 127 0" result="hardAlpha"/>
<feOffset dx="4" dy="4"/>
<feComposite in2="hardAlpha" operator="out"/>
<feColorMatrix type="matrix" values="0 0 0 0 0.932432 0 0 0 0 0.842378 0 0 0 0 0.667568 0 0 0 1 0"/>
<feBlend mode="normal" in2="BackgroundImageFix" result="effect1_dropShadow_153_459"/>
<feBlend mode="normal" in="SourceGraphic" in2="effect1_dropShadow_153_459" result="shape"/>
</filter>
<filter id="filter7_d_153_459" x="248.5" y="248" width="104" height="104" filterUnits="userSpaceOnUse" color-interpolation-filters="sRGB">
<feFlood flood-opacity="0" result="BackgroundImageFix"/>
<feColorMatrix in="SourceAlpha" type="matrix" values="0 0 0 0 0 0 0 0 0 0 0 0 0 0 0 0 0 0 127 0" result="hardAlpha"/>
<feOffset dx="4" dy="4"/>
<feComposite in2="hardAlpha" operator="out"/>
<feColorMatrix type="matrix" values="0 0 0 0 0.667568 0 0 0 0 0.8 0 0 0 0 0.932432 0 0 0 1 0"/>
<feBlend mode="normal" in2="BackgroundImageFix" result="effect1_dropShadow_153_459"/>
<feBlend mode="normal" in="SourceGraphic" in2="effect1_dropShadow_153_459" result="shape"/>
</filter>
</defs>
</svg>
