<svg width="353" height="228" viewBox="0 0 353 228" fill="none" xmlns="http://www.w3.org/2000/svg">
<g filter="url(#filter0_d_176_339)">
<rect x="0.5" width="100" height="100" rx="16" fill="white" shape-rendering="crispEdges"/>
<rect x="1" y="0.5" width="99" height="99" rx="15.5" stroke="#212528" shape-rendering="crispEdges"/>
<path d="M64.5 34H62.5V30H58.5V34H42.5V30H38.5V34H36.5C34.28 34 32.52 35.8 32.52 38L32.5 66C32.5 68.2 34.28 70 36.5 70H64.5C66.7 70 68.5 68.2 68.5 66V38C68.5 35.8 66.7 34 64.5 34ZM64.5 66H36.5V46H64.5V66ZM64.5 42H36.5V38H64.5V42ZM44.5 54H40.5V50H44.5V54ZM52.5 54H48.5V50H52.5V54ZM60.5 54H56.5V50H60.5V54ZM44.5 62H40.5V58H44.5V62ZM52.5 62H48.5V58H52.5V62ZM60.5 62H56.5V58H60.5V62Z" fill="#0080FF"/>
</g>
<g filter="url(#filter1_d_176_339)">
<rect x="248.5" width="100" height="100" rx="16" fill="white" shape-rendering="crispEdges"/>
<rect x="249" y="0.5" width="99" height="99" rx="15.5" stroke="#212528" shape-rendering="crispEdges"/>
<path d="M298.5 28L280.5 36V48C280.5 59.1 288.18 69.48 298.5 72C308.82 69.48 316.5 59.1 316.5 48V36L298.5 28ZM312.5 48C312.5 57.04 306.54 65.38 298.5 67.86C290.46 65.38 284.5 57.04 284.5 48V38.6L298.5 32.38L312.5 38.6V48ZM289.32 49.18L286.5 52L294.5 60L310.5 44L307.68 41.16L294.5 54.34L289.32 49.18Z" fill="#0080FF"/>
</g>
<g filter="url(#filter2_d_176_339)">
<rect x="0.5" y="124" width="348" height="100" rx="16" fill="white" shape-rendering="crispEdges"/>
<rect x="1" y="124.5" width="347" height="99" rx="15.5" stroke="#212528" shape-rendering="crispEdges"/>
<path d="M65.5682 183H59.9176V165.545H65.7472C67.4574 165.545 68.9261 165.895 70.1534 166.594C71.3807 167.287 72.321 168.284 72.9744 169.585C73.6335 170.881 73.9631 172.435 73.9631 174.247C73.9631 176.065 73.6307 177.628 72.9659 178.935C72.3068 180.241 71.3523 181.247 70.1023 181.952C68.8523 182.651 67.3409 183 65.5682 183ZM62.5511 180.699H65.4233C66.7528 180.699 67.858 180.449 68.7386 179.949C69.6193 179.443 70.2784 178.713 70.7159 177.759C71.1534 176.798 71.3722 175.628 71.3722 174.247C71.3722 172.878 71.1534 171.716 70.7159 170.761C70.2841 169.807 69.6392 169.082 68.7812 168.588C67.9233 168.094 66.858 167.847 65.5852 167.847H62.5511V180.699ZM80.843 183.29C80.0135 183.29 79.2635 183.136 78.593 182.83C77.9226 182.517 77.3913 182.065 76.9993 181.474C76.6129 180.884 76.4197 180.159 76.4197 179.301C76.4197 178.562 76.5618 177.955 76.8459 177.477C77.13 177 77.5135 176.622 77.9964 176.344C78.4794 176.065 79.0192 175.855 79.6158 175.713C80.2124 175.571 80.8203 175.463 81.4396 175.389C82.2237 175.298 82.8601 175.224 83.3487 175.168C83.8374 175.105 84.1925 175.006 84.4141 174.869C84.6357 174.733 84.7464 174.511 84.7464 174.205V174.145C84.7464 173.401 84.5362 172.824 84.1158 172.415C83.701 172.006 83.0817 171.801 82.2578 171.801C81.3999 171.801 80.7237 171.991 80.2294 172.372C79.7408 172.747 79.4027 173.165 79.2152 173.625L76.8203 173.08C77.1044 172.284 77.5192 171.642 78.0646 171.153C78.6158 170.659 79.2493 170.301 79.9652 170.08C80.6811 169.852 81.4339 169.739 82.2237 169.739C82.7464 169.739 83.3004 169.801 83.8857 169.926C84.4766 170.045 85.0277 170.267 85.5391 170.591C86.0561 170.915 86.4794 171.378 86.8089 171.98C87.1385 172.577 87.3033 173.352 87.3033 174.307V183H84.8146V181.21H84.7124C84.5476 181.54 84.3004 181.864 83.9709 182.182C83.6413 182.5 83.218 182.764 82.701 182.974C82.1839 183.185 81.5646 183.29 80.843 183.29ZM81.397 181.244C82.1016 181.244 82.7038 181.105 83.2038 180.827C83.7095 180.548 84.093 180.185 84.3544 179.736C84.6214 179.281 84.755 178.795 84.755 178.278V176.591C84.6641 176.682 84.4879 176.767 84.2266 176.847C83.9709 176.92 83.6783 176.986 83.3487 177.043C83.0192 177.094 82.6982 177.142 82.3857 177.188C82.0732 177.227 81.8118 177.261 81.6016 177.29C81.1072 177.352 80.6555 177.457 80.2464 177.605C79.843 177.753 79.5192 177.966 79.2749 178.244C79.0362 178.517 78.9169 178.881 78.9169 179.335C78.9169 179.966 79.1499 180.443 79.6158 180.767C80.0817 181.085 80.6754 181.244 81.397 181.244ZM96.8082 169.909V171.955H89.6577V169.909H96.8082ZM91.5753 166.773H94.1236V179.156C94.1236 179.651 94.1974 180.023 94.3452 180.273C94.4929 180.517 94.6832 180.685 94.9162 180.776C95.1548 180.861 95.4134 180.903 95.6918 180.903C95.8963 180.903 96.0753 180.889 96.2287 180.861C96.3821 180.832 96.5014 180.81 96.5866 180.793L97.0469 182.898C96.8991 182.955 96.6889 183.011 96.4162 183.068C96.1435 183.131 95.8026 183.165 95.3935 183.17C94.723 183.182 94.098 183.062 93.5185 182.812C92.9389 182.562 92.4702 182.176 92.1122 181.653C91.7543 181.131 91.5753 180.474 91.5753 179.685V166.773ZM105.129 183.264C103.839 183.264 102.728 182.989 101.796 182.438C100.87 181.881 100.154 181.099 99.6484 180.094C99.1484 179.082 98.8984 177.898 98.8984 176.54C98.8984 175.199 99.1484 174.017 99.6484 172.994C100.154 171.972 100.859 171.173 101.762 170.599C102.671 170.026 103.734 169.739 104.95 169.739C105.688 169.739 106.404 169.861 107.097 170.105C107.79 170.349 108.413 170.733 108.964 171.256C109.515 171.778 109.95 172.457 110.268 173.293C110.586 174.122 110.745 175.131 110.745 176.318V177.222H100.339V175.312H108.248C108.248 174.642 108.112 174.048 107.839 173.531C107.566 173.009 107.183 172.597 106.688 172.295C106.2 171.994 105.626 171.844 104.967 171.844C104.251 171.844 103.626 172.02 103.092 172.372C102.563 172.719 102.154 173.173 101.864 173.736C101.58 174.293 101.438 174.898 101.438 175.551V177.043C101.438 177.918 101.592 178.662 101.898 179.276C102.211 179.889 102.646 180.358 103.202 180.682C103.759 181 104.41 181.159 105.154 181.159C105.637 181.159 106.077 181.091 106.475 180.955C106.873 180.812 107.217 180.602 107.506 180.324C107.796 180.045 108.018 179.702 108.171 179.293L110.583 179.727C110.39 180.437 110.043 181.06 109.543 181.594C109.049 182.122 108.427 182.534 107.677 182.83C106.933 183.119 106.083 183.264 105.129 183.264ZM121.286 174.52V176.727H113.547V174.52H121.286ZM124.682 183V169.909H127.145V171.989H127.281C127.52 171.284 127.94 170.73 128.543 170.327C129.151 169.918 129.838 169.713 130.605 169.713C130.764 169.713 130.952 169.719 131.168 169.73C131.389 169.741 131.562 169.756 131.688 169.773V172.21C131.585 172.182 131.403 172.151 131.142 172.116C130.881 172.077 130.619 172.057 130.358 172.057C129.756 172.057 129.219 172.185 128.747 172.44C128.281 172.69 127.912 173.04 127.639 173.489C127.366 173.932 127.23 174.437 127.23 175.006V183H124.682ZM137.585 183.29C136.756 183.29 136.006 183.136 135.335 182.83C134.665 182.517 134.134 182.065 133.741 181.474C133.355 180.884 133.162 180.159 133.162 179.301C133.162 178.562 133.304 177.955 133.588 177.477C133.872 177 134.256 176.622 134.739 176.344C135.222 176.065 135.761 175.855 136.358 175.713C136.955 175.571 137.563 175.463 138.182 175.389C138.966 175.298 139.602 175.224 140.091 175.168C140.58 175.105 140.935 175.006 141.156 174.869C141.378 174.733 141.489 174.511 141.489 174.205V174.145C141.489 173.401 141.278 172.824 140.858 172.415C140.443 172.006 139.824 171.801 139 171.801C138.142 171.801 137.466 171.991 136.972 172.372C136.483 172.747 136.145 173.165 135.957 173.625L133.562 173.08C133.847 172.284 134.261 171.642 134.807 171.153C135.358 170.659 135.991 170.301 136.707 170.08C137.423 169.852 138.176 169.739 138.966 169.739C139.489 169.739 140.043 169.801 140.628 169.926C141.219 170.045 141.77 170.267 142.281 170.591C142.798 170.915 143.222 171.378 143.551 171.98C143.881 172.577 144.045 173.352 144.045 174.307V183H141.557V181.21H141.455C141.29 181.54 141.043 181.864 140.713 182.182C140.384 182.5 139.96 182.764 139.443 182.974C138.926 183.185 138.307 183.29 137.585 183.29ZM138.139 181.244C138.844 181.244 139.446 181.105 139.946 180.827C140.452 180.548 140.835 180.185 141.097 179.736C141.364 179.281 141.497 178.795 141.497 178.278V176.591C141.406 176.682 141.23 176.767 140.969 176.847C140.713 176.92 140.42 176.986 140.091 177.043C139.761 177.094 139.44 177.142 139.128 177.188C138.815 177.227 138.554 177.261 138.344 177.29C137.849 177.352 137.398 177.457 136.989 177.605C136.585 177.753 136.261 177.966 136.017 178.244C135.778 178.517 135.659 178.881 135.659 179.335C135.659 179.966 135.892 180.443 136.358 180.767C136.824 181.085 137.418 181.244 138.139 181.244ZM149.988 175.227V183H147.44V169.909H149.886V172.04H150.048C150.349 171.347 150.82 170.79 151.462 170.369C152.11 169.949 152.925 169.739 153.908 169.739C154.8 169.739 155.582 169.926 156.252 170.301C156.923 170.67 157.442 171.222 157.812 171.955C158.181 172.687 158.366 173.594 158.366 174.673V183H155.817V174.98C155.817 174.031 155.57 173.29 155.076 172.756C154.582 172.216 153.903 171.946 153.039 171.946C152.448 171.946 151.923 172.074 151.462 172.33C151.008 172.585 150.647 172.96 150.38 173.455C150.119 173.943 149.988 174.534 149.988 175.227ZM167.272 188.182C166.232 188.182 165.337 188.045 164.587 187.773C163.843 187.5 163.235 187.139 162.763 186.69C162.292 186.241 161.94 185.75 161.707 185.216L163.897 184.312C164.05 184.562 164.255 184.827 164.511 185.105C164.772 185.389 165.124 185.631 165.567 185.83C166.016 186.028 166.593 186.128 167.298 186.128C168.263 186.128 169.062 185.892 169.692 185.42C170.323 184.955 170.638 184.21 170.638 183.188V180.614H170.477C170.323 180.892 170.102 181.202 169.812 181.543C169.528 181.884 169.136 182.179 168.636 182.429C168.136 182.679 167.485 182.804 166.684 182.804C165.65 182.804 164.718 182.562 163.888 182.08C163.065 181.591 162.411 180.872 161.928 179.923C161.451 178.969 161.212 177.795 161.212 176.403C161.212 175.011 161.448 173.818 161.92 172.824C162.397 171.83 163.05 171.068 163.88 170.54C164.71 170.006 165.65 169.739 166.701 169.739C167.513 169.739 168.17 169.875 168.67 170.148C169.17 170.415 169.559 170.727 169.837 171.085C170.121 171.443 170.34 171.759 170.494 172.031H170.681V169.909H173.178V183.29C173.178 184.415 172.917 185.338 172.394 186.06C171.871 186.781 171.164 187.315 170.272 187.662C169.386 188.009 168.386 188.182 167.272 188.182ZM167.246 180.69C167.979 180.69 168.599 180.52 169.104 180.179C169.616 179.832 170.002 179.338 170.263 178.696C170.531 178.048 170.664 177.273 170.664 176.369C170.664 175.489 170.533 174.713 170.272 174.043C170.011 173.372 169.627 172.849 169.121 172.474C168.616 172.094 167.991 171.903 167.246 171.903C166.479 171.903 165.84 172.102 165.329 172.5C164.817 172.892 164.431 173.426 164.17 174.102C163.914 174.778 163.786 175.534 163.786 176.369C163.786 177.227 163.917 177.98 164.178 178.628C164.44 179.276 164.826 179.781 165.337 180.145C165.854 180.509 166.491 180.69 167.246 180.69ZM182.238 183.264C180.948 183.264 179.837 182.989 178.906 182.438C177.979 181.881 177.263 181.099 176.758 180.094C176.258 179.082 176.008 177.898 176.008 176.54C176.008 175.199 176.258 174.017 176.758 172.994C177.263 171.972 177.968 171.173 178.871 170.599C179.781 170.026 180.843 169.739 182.059 169.739C182.798 169.739 183.513 169.861 184.207 170.105C184.9 170.349 185.522 170.733 186.073 171.256C186.624 171.778 187.059 172.457 187.377 173.293C187.695 174.122 187.854 175.131 187.854 176.318V177.222H177.448V175.312H185.357C185.357 174.642 185.221 174.048 184.948 173.531C184.675 173.009 184.292 172.597 183.798 172.295C183.309 171.994 182.735 171.844 182.076 171.844C181.36 171.844 180.735 172.02 180.201 172.372C179.673 172.719 179.263 173.173 178.974 173.736C178.69 174.293 178.548 174.898 178.548 175.551V177.043C178.548 177.918 178.701 178.662 179.008 179.276C179.32 179.889 179.755 180.358 180.312 180.682C180.869 181 181.519 181.159 182.263 181.159C182.746 181.159 183.187 181.091 183.585 180.955C183.982 180.812 184.326 180.602 184.616 180.324C184.906 180.045 185.127 179.702 185.281 179.293L187.692 179.727C187.499 180.437 187.153 181.06 186.653 181.594C186.158 182.122 185.536 182.534 184.786 182.83C184.042 183.119 183.192 183.264 182.238 183.264ZM206.758 170.131C206.667 169.324 206.292 168.699 205.633 168.256C204.974 167.807 204.144 167.582 203.144 167.582C202.428 167.582 201.809 167.696 201.286 167.923C200.763 168.145 200.357 168.452 200.067 168.844C199.783 169.23 199.641 169.67 199.641 170.165C199.641 170.58 199.738 170.937 199.931 171.239C200.13 171.54 200.388 171.793 200.707 171.997C201.031 172.196 201.377 172.364 201.746 172.5C202.116 172.631 202.471 172.739 202.812 172.824L204.516 173.267C205.073 173.403 205.644 173.588 206.229 173.821C206.815 174.054 207.357 174.361 207.857 174.741C208.357 175.122 208.761 175.594 209.067 176.156C209.38 176.719 209.536 177.392 209.536 178.176C209.536 179.165 209.281 180.043 208.769 180.81C208.263 181.577 207.528 182.182 206.562 182.625C205.602 183.068 204.44 183.29 203.076 183.29C201.769 183.29 200.638 183.082 199.684 182.668C198.729 182.253 197.982 181.665 197.442 180.903C196.903 180.136 196.604 179.227 196.548 178.176H199.19C199.241 178.807 199.445 179.332 199.803 179.753C200.167 180.168 200.63 180.477 201.192 180.682C201.761 180.881 202.383 180.98 203.059 180.98C203.803 180.98 204.465 180.864 205.045 180.631C205.63 180.392 206.09 180.062 206.425 179.642C206.761 179.216 206.928 178.719 206.928 178.151C206.928 177.634 206.781 177.21 206.485 176.881C206.195 176.551 205.8 176.278 205.3 176.062C204.806 175.847 204.246 175.656 203.621 175.491L201.559 174.929C200.161 174.548 199.053 173.989 198.235 173.25C197.423 172.511 197.016 171.534 197.016 170.318C197.016 169.312 197.289 168.435 197.835 167.685C198.38 166.935 199.119 166.352 200.05 165.938C200.982 165.517 202.033 165.307 203.204 165.307C204.386 165.307 205.428 165.514 206.332 165.929C207.241 166.344 207.957 166.915 208.479 167.642C209.002 168.364 209.275 169.193 209.298 170.131H206.758ZM218.121 183.264C216.831 183.264 215.72 182.989 214.788 182.438C213.862 181.881 213.146 181.099 212.641 180.094C212.141 179.082 211.891 177.898 211.891 176.54C211.891 175.199 212.141 174.017 212.641 172.994C213.146 171.972 213.851 171.173 214.754 170.599C215.663 170.026 216.726 169.739 217.942 169.739C218.68 169.739 219.396 169.861 220.089 170.105C220.783 170.349 221.405 170.733 221.956 171.256C222.507 171.778 222.942 172.457 223.26 173.293C223.578 174.122 223.737 175.131 223.737 176.318V177.222H213.331V175.312H221.24C221.24 174.642 221.104 174.048 220.831 173.531C220.558 173.009 220.175 172.597 219.68 172.295C219.192 171.994 218.618 171.844 217.959 171.844C217.243 171.844 216.618 172.02 216.084 172.372C215.555 172.719 215.146 173.173 214.857 173.736C214.572 174.293 214.43 174.898 214.43 175.551V177.043C214.43 177.918 214.584 178.662 214.891 179.276C215.203 179.889 215.638 180.358 216.195 180.682C216.751 181 217.402 181.159 218.146 181.159C218.629 181.159 219.07 181.091 219.467 180.955C219.865 180.812 220.209 180.602 220.499 180.324C220.788 180.045 221.01 179.702 221.163 179.293L223.575 179.727C223.382 180.437 223.036 181.06 222.536 181.594C222.041 182.122 221.419 182.534 220.669 182.83C219.925 183.119 219.075 183.264 218.121 183.264ZM232.079 183.264C230.812 183.264 229.721 182.977 228.806 182.403C227.897 181.824 227.198 181.026 226.71 180.009C226.221 178.991 225.977 177.827 225.977 176.514C225.977 175.185 226.227 174.011 226.727 172.994C227.227 171.972 227.931 171.173 228.84 170.599C229.749 170.026 230.82 169.739 232.053 169.739C233.048 169.739 233.934 169.923 234.712 170.293C235.491 170.656 236.119 171.168 236.596 171.827C237.079 172.486 237.366 173.256 237.457 174.136H234.977C234.84 173.523 234.528 172.994 234.039 172.551C233.556 172.108 232.908 171.886 232.096 171.886C231.386 171.886 230.763 172.074 230.229 172.449C229.701 172.818 229.289 173.347 228.994 174.034C228.698 174.716 228.55 175.523 228.55 176.455C228.55 177.409 228.695 178.233 228.985 178.926C229.275 179.619 229.684 180.156 230.212 180.537C230.746 180.918 231.374 181.108 232.096 181.108C232.579 181.108 233.016 181.02 233.408 180.844C233.806 180.662 234.138 180.403 234.406 180.068C234.678 179.733 234.869 179.33 234.977 178.858H237.457C237.366 179.705 237.09 180.46 236.63 181.125C236.17 181.79 235.553 182.312 234.781 182.693C234.013 183.074 233.113 183.264 232.079 183.264ZM248.474 177.571V169.909H251.031V183H248.526V180.733H248.389C248.088 181.432 247.605 182.014 246.94 182.48C246.281 182.94 245.46 183.17 244.477 183.17C243.636 183.17 242.892 182.986 242.244 182.616C241.602 182.241 241.097 181.688 240.727 180.955C240.364 180.222 240.182 179.315 240.182 178.236V169.909H242.73V177.929C242.73 178.821 242.977 179.531 243.472 180.06C243.966 180.588 244.608 180.852 245.398 180.852C245.875 180.852 246.349 180.733 246.821 180.494C247.298 180.256 247.693 179.895 248.006 179.412C248.324 178.929 248.48 178.315 248.474 177.571ZM254.455 183V169.909H256.918V171.989H257.055C257.293 171.284 257.714 170.73 258.316 170.327C258.924 169.918 259.612 169.713 260.379 169.713C260.538 169.713 260.725 169.719 260.941 169.73C261.163 169.741 261.336 169.756 261.461 169.773V172.21C261.359 172.182 261.177 172.151 260.915 172.116C260.654 172.077 260.393 172.057 260.131 172.057C259.529 172.057 258.992 172.185 258.521 172.44C258.055 172.69 257.685 173.04 257.413 173.489C257.14 173.932 257.004 174.437 257.004 175.006V183H254.455ZM263.666 183V169.909H266.214V183H263.666ZM264.953 167.889C264.51 167.889 264.129 167.741 263.811 167.446C263.499 167.145 263.342 166.787 263.342 166.372C263.342 165.952 263.499 165.594 263.811 165.298C264.129 164.997 264.51 164.847 264.953 164.847C265.396 164.847 265.774 164.997 266.087 165.298C266.405 165.594 266.564 165.952 266.564 166.372C266.564 166.787 266.405 167.145 266.087 167.446C265.774 167.741 265.396 167.889 264.953 167.889ZM275.754 169.909V171.955H268.603V169.909H275.754ZM270.521 166.773H273.069V179.156C273.069 179.651 273.143 180.023 273.29 180.273C273.438 180.517 273.629 180.685 273.862 180.776C274.1 180.861 274.359 180.903 274.637 180.903C274.842 180.903 275.021 180.889 275.174 180.861C275.327 180.832 275.447 180.81 275.532 180.793L275.992 182.898C275.844 182.955 275.634 183.011 275.362 183.068C275.089 183.131 274.748 183.165 274.339 183.17C273.668 183.182 273.043 183.062 272.464 182.812C271.884 182.562 271.415 182.176 271.058 181.653C270.7 181.131 270.521 180.474 270.521 179.685V166.773ZM280.183 187.909C279.803 187.909 279.456 187.878 279.143 187.815C278.831 187.759 278.598 187.696 278.445 187.628L279.058 185.54C279.524 185.665 279.939 185.719 280.303 185.702C280.666 185.685 280.987 185.548 281.266 185.293C281.55 185.037 281.8 184.619 282.016 184.04L282.331 183.17L277.541 169.909H280.268L283.584 180.068H283.72L287.036 169.909H289.771L284.376 184.747C284.126 185.429 283.808 186.006 283.422 186.477C283.036 186.955 282.575 187.313 282.041 187.551C281.507 187.79 280.888 187.909 280.183 187.909Z" fill="#212528"/>
</g>
<g filter="url(#filter3_d_176_339)">
<rect x="124.5" width="100" height="100" rx="16" fill="white" shape-rendering="crispEdges"/>
<rect x="125" y="0.5" width="99" height="99" rx="15.5" stroke="#212528" shape-rendering="crispEdges"/>
<path d="M182.98 41.52C180.64 39.18 177.58 38 174.5 38V50L166.02 58.48C170.7 63.16 178.3 63.16 183 58.48C187.68 53.8 187.68 46.2 182.98 41.52ZM174.5 30C163.46 30 154.5 38.96 154.5 50C154.5 61.04 163.46 70 174.5 70C185.54 70 194.5 61.04 194.5 50C194.5 38.96 185.54 30 174.5 30ZM174.5 66C165.66 66 158.5 58.84 158.5 50C158.5 41.16 165.66 34 174.5 34C183.34 34 190.5 41.16 190.5 50C190.5 58.84 183.34 66 174.5 66Z" fill="#39C548"/>
</g>
<defs>
<filter id="filter0_d_176_339" x="0.5" y="0" width="104" height="104" filterUnits="userSpaceOnUse" color-interpolation-filters="sRGB">
<feFlood flood-opacity="0" result="BackgroundImageFix"/>
<feColorMatrix in="SourceAlpha" type="matrix" values="0 0 0 0 0 0 0 0 0 0 0 0 0 0 0 0 0 0 127 0" result="hardAlpha"/>
<feOffset dx="4" dy="4"/>
<feComposite in2="hardAlpha" operator="out"/>
<feColorMatrix type="matrix" values="0 0 0 0 0.6 0 0 0 0 0.800784 0 0 0 0 1 0 0 0 1 0"/>
<feBlend mode="normal" in2="BackgroundImageFix" result="effect1_dropShadow_176_339"/>
<feBlend mode="normal" in="SourceGraphic" in2="effect1_dropShadow_176_339" result="shape"/>
</filter>
<filter id="filter1_d_176_339" x="248.5" y="0" width="104" height="104" filterUnits="userSpaceOnUse" color-interpolation-filters="sRGB">
<feFlood flood-opacity="0" result="BackgroundImageFix"/>
<feColorMatrix in="SourceAlpha" type="matrix" values="0 0 0 0 0 0 0 0 0 0 0 0 0 0 0 0 0 0 127 0" result="hardAlpha"/>
<feOffset dx="4" dy="4"/>
<feComposite in2="hardAlpha" operator="out"/>
<feColorMatrix type="matrix" values="0 0 0 0 0.6 0 0 0 0 0.800784 0 0 0 0 1 0 0 0 1 0"/>
<feBlend mode="normal" in2="BackgroundImageFix" result="effect1_dropShadow_176_339"/>
<feBlend mode="normal" in="SourceGraphic" in2="effect1_dropShadow_176_339" result="shape"/>
</filter>
<filter id="filter2_d_176_339" x="0.5" y="124" width="352" height="104" filterUnits="userSpaceOnUse" color-interpolation-filters="sRGB">
<feFlood flood-opacity="0" result="BackgroundImageFix"/>
<feColorMatrix in="SourceAlpha" type="matrix" values="0 0 0 0 0 0 0 0 0 0 0 0 0 0 0 0 0 0 127 0" result="hardAlpha"/>
<feOffset dx="4" dy="4"/>
<feComposite in2="hardAlpha" operator="out"/>
<feColorMatrix type="matrix" values="0 0 0 0 0.690435 0 0 0 0 0.909565 0 0 0 0 0.713043 0 0 0 1 0"/>
<feBlend mode="normal" in2="BackgroundImageFix" result="effect1_dropShadow_176_339"/>
<feBlend mode="normal" in="SourceGraphic" in2="effect1_dropShadow_176_339" result="shape"/>
</filter>
<filter id="filter3_d_176_339" x="124.5" y="0" width="104" height="104" filterUnits="userSpaceOnUse" color-interpolation-filters="sRGB">
<feFlood flood-opacity="0" result="BackgroundImageFix"/>
<feColorMatrix in="SourceAlpha" type="matrix" values="0 0 0 0 0 0 0 0 0 0 0 0 0 0 0 0 0 0 127 0" result="hardAlpha"/>
<feOffset dx="4" dy="4"/>
<feComposite in2="hardAlpha" operator="out"/>
<feColorMatrix type="matrix" values="0 0 0 0 0.690435 0 0 0 0 0.909565 0 0 0 0 0.713043 0 0 0 1 0"/>
<feBlend mode="normal" in2="BackgroundImageFix" result="effect1_dropShadow_176_339"/>
<feBlend mode="normal" in="SourceGraphic" in2="effect1_dropShadow_176_339" result="shape"/>
</filter>
</defs>
</svg>
