<?xml version="1.0" encoding="UTF-8"?>
<!DOCTYPE svg PUBLIC "-//W3C//DTD SVG 1.1//EN" "http://www.w3.org/Graphics/SVG/1.1/DTD/svg11.dtd">
<!-- Creator: CorelDRAW X8 -->
<svg xmlns="http://www.w3.org/2000/svg" xml:space="preserve" width="5.36092in" height="3in" version="1.1" style="shape-rendering:geometricPrecision; text-rendering:geometricPrecision; image-rendering:optimizeQuality; fill-rule:evenodd; clip-rule:evenodd"
viewBox="0 0 2944 1648"
 xmlns:xlink="http://www.w3.org/1999/xlink">
 <defs>
  <style type="text/css">
   <![CDATA[
    .str0 {stroke:#1A237E;stroke-width:23.8416}
    .fil2 {fill:#FEFEFE}
    .fil4 {fill:black}
    .fil1 {fill:#1A237E}
    .fil3 {fill:#868EE0}
    .fil0 {fill:white}
    .fil5 {fill:#868EE0;fill-rule:nonzero}
   ]]>
  </style>
 </defs>
 <g id="Layer_x0020_1">
  <metadata id="CorelCorpID_0Corel-Layer"/>
  <g id="_2490586481776">
   <path id="XMLID_109_" class="fil0 str0" d="M2673 1492l-2403 0 0 -1315c0,-91 74,-165 165,-165l2070 0c93,0 168,75 168,168l0 1312 0 0z"/>
   <path id="XMLID_111_" class="fil1" d="M2788 1648l-2632 0c-86,-1 -156,-70 -156,-156l2944 0c0,86 -70,156 -156,156z"/>
   <path id="XMLID_110_" class="fil2" d="M1723 1514l-501 0c-12,0 -21,-9 -22,-20 0,-1 0,-1 0,-1l545 0c-1,11 -11,20 -22,21z"/>
   <path id="Rectangle_1305" class="fil3" d="M463 108l349 0 0 0 0 1367 0 0 -440 0 0 0 0 -1277c0,-50 41,-90 91,-90z"/>
   <g>
    <path id="Path_9126" class="fil4" d="M959 727l834 0 -834 0zm0 0l0 0 0 0z"/>
   </g>
   <g>
    <path id="Path_9125" class="fil4" d="M959 821l834 0 -834 0zm0 0l0 0 0 0z"/>
   </g>
   <path id="Rectangle_1304" class="fil3" d="M873 641l919 0c28,-88 79,-170 154,-234l-1073 0 0 234z"/>
   <g>
    <path id="Path_9124" class="fil4" d="M959 914l834 0 -834 0zm0 0l0 0 0 0z"/>
   </g>
   <rect id="Rectangle_1303" class="fil0" x="951" y="462" width="531" height="125"/>
   <polygon class="fil5" points="967,1162 967,1057 981,1057 981,1162 "/>
   <polygon id="1" class="fil5" points="1005,1162 1005,1057 1019,1057 1074,1139 1074,1057 1087,1057 1087,1162 1073,1162 1018,1080 1018,1162 "/>
   <path id="2" class="fil5" d="M1111 1162l0 -105 46 0c9,0 17,1 21,3 5,2 9,5 12,10 3,5 4,10 4,16 0,7 -2,13 -7,18 -5,5 -12,9 -22,10 4,2 6,4 8,5 4,4 8,9 12,14l18 29 -17 0 -14 -22c-4,-6 -8,-11 -10,-15 -3,-3 -5,-5 -7,-7 -2,-1 -4,-2 -7,-2 -1,-1 -4,-1 -7,-1l-16 0 0 47 -14 0zm14 -59l29 0c7,0 12,0 15,-2 4,-1 6,-3 8,-6 2,-3 3,-6 3,-9 0,-5 -2,-9 -5,-13 -4,-3 -10,-4 -17,-4l-33 0 0 34z"/>
   <path id="3" class="fil5" d="M1218 1100l0 -14 14 0 0 14 -14 0zm0 62l0 -15 14 0 0 15 -14 0z"/>
   <path id="4" class="fil5" d="M1292 1134l13 -1c1,7 4,12 7,15 4,3 8,5 14,5 6,0 11,-2 15,-7 4,-5 7,-11 7,-19 0,-7 -2,-13 -6,-17 -5,-4 -10,-6 -17,-6 -4,0 -7,1 -11,2 -3,2 -6,5 -8,8l-12 -2 10 -54 52 0 0 13 -41 0 -6 28c6,-5 13,-7 20,-7 9,0 17,3 23,10 6,6 9,14 9,24 0,10 -3,18 -8,25 -7,8 -16,12 -27,12 -10,0 -18,-2 -24,-8 -6,-5 -9,-12 -10,-21z"/>
   <path id="5" class="fil5" d="M1373 1110c0,-12 1,-22 4,-30 3,-7 6,-13 11,-17 5,-4 12,-6 19,-6 6,0 11,1 15,3 4,2 8,6 10,10 3,4 5,9 7,15 1,6 2,15 2,25 0,12 -1,22 -4,30 -2,7 -6,13 -11,17 -5,4 -11,6 -19,6 -10,0 -18,-3 -24,-10 -6,-9 -10,-23 -10,-43zm13 0c0,17 2,29 6,34 4,6 9,9 15,9 6,0 11,-3 15,-9 4,-5 6,-17 6,-34 0,-17 -2,-29 -6,-34 -4,-6 -9,-9 -15,-9 -6,0 -11,3 -14,8 -4,6 -7,18 -7,35z"/>
   <path id="6" class="fil5" d="M1454 1110c0,-12 2,-22 4,-30 3,-7 6,-13 12,-17 4,-4 11,-6 18,-6 6,0 11,1 15,3 4,2 8,6 11,10 2,4 4,9 6,15 2,6 2,15 2,25 0,12 -1,22 -3,30 -3,7 -7,13 -12,17 -5,4 -11,6 -19,6 -10,0 -18,-3 -23,-10 -7,-9 -11,-23 -11,-43zm14 0c0,17 2,29 6,34 4,6 9,9 14,9 6,0 11,-3 15,-9 4,-5 6,-17 6,-34 0,-17 -2,-29 -6,-34 -4,-6 -9,-9 -15,-9 -6,0 -10,3 -14,8 -4,6 -6,18 -6,35z"/>
   <path id="7" class="fil5" d="M1536 1110c0,-12 1,-22 3,-30 3,-7 7,-13 12,-17 5,-4 11,-6 19,-6 5,0 10,1 14,3 5,2 8,6 11,10 3,4 5,9 6,15 2,6 3,15 3,25 0,12 -2,22 -4,30 -3,7 -6,13 -11,17 -5,4 -12,6 -19,6 -10,0 -18,-3 -24,-10 -7,-9 -10,-23 -10,-43zm13 0c0,17 2,29 6,34 4,6 9,9 15,9 5,0 10,-3 14,-9 4,-5 6,-17 6,-34 0,-17 -2,-29 -6,-34 -4,-6 -9,-9 -15,-9 -5,0 -10,3 -14,8 -4,6 -6,18 -6,35z"/>
   <path id="Path_9127" class="fil1" d="M1790 886c-2,-9 -3,-18 -5,-27l0 27 5 0z"/>
   <path id="Path_9132" class="fil1" d="M1908 889c16,-15 24,-36 24,-58 0,-36 -25,-66 -60,-73l0 -1c28,-9 48,-35 50,-65 0,-20 -9,-40 -25,-52 -18,-15 -42,-21 -81,-21 -4,9 -7,19 -11,30l14 0c38,0 64,13 64,47 0,29 -23,49 -63,49l-34 0 0 -15c-3,21 -5,43 -5,64 1,21 2,42 5,64l0 -85 31 0c42,0 76,17 76,56 0,42 -36,57 -76,57 -8,1 -17,0 -26,-1 2,11 5,20 7,31l9 0c48,1 81,-7 101,-27z"/>
   <path id="Path_9133" class="fil1" d="M2099 915l-3 -27 -1 0c-15,21 -40,33 -65,32 -33,3 -62,-22 -65,-55 0,-2 0,-4 0,-5 0,-51 46,-79 126,-79l0 -5c0,-17 -5,-49 -47,-49 -20,0 -39,6 -56,16l-8 -26c21,-12 45,-19 69,-19 65,0 80,44 80,86l0 79c0,17 1,34 3,51l-33 0 0 1 0 0zm-5 -108c-42,-1 -90,6 -90,47 -1,19 13,35 32,36 2,1 3,1 5,0 22,1 43,-13 51,-35 1,-3 1,-7 2,-11l0 -37z"/>
   <path id="Path_9134" class="fil1" d="M2192 761c1,-19 0,-38 -2,-57l34 0 2 35 1 0c15,-25 42,-41 70,-40 29,0 75,17 75,91l0 126 -38 0 0 -123c0,-34 -13,-63 -49,-63 -24,1 -45,17 -51,39 -2,6 -3,12 -2,19l0 126 -39 0 0 -153 -1 0 0 0z"/>
   <path id="Path_9135" class="fil1" d="M2473 800l0 0c6,-7 14,-17 19,-24l61 -73 46 0 -82 87 93 124 -47 0 -73 -101 -19 22 0 80 -39 0 0 -310 39 0 0 195 2 0 0 0z"/>
   <path id="Path_9202" class="fil3" d="M2281 282c283,1 513,230 513,513 -1,283 -230,513 -513,513 -157,-1 -304,-72 -401,-194 -176,-222 -139,-544 82,-720 91,-73 203,-112 319,-112zm0 55c253,0 458,205 458,458 0,253 -205,458 -458,458 -140,0 -272,-64 -359,-173 -157,-198 -124,-486 74,-644 81,-64 182,-99 285,-99z"/>
  </g>
 </g>
</svg>
