<?xml version="1.0" encoding="UTF-8"?>
<!DOCTYPE svg PUBLIC "-//W3C//DTD SVG 1.1//EN" "http://www.w3.org/Graphics/SVG/1.1/DTD/svg11.dtd">
<!-- Creator: CorelDRAW X8 -->
<svg xmlns="http://www.w3.org/2000/svg" xml:space="preserve" width="4.6255in" height="3in" version="1.1" style="shape-rendering:geometricPrecision; text-rendering:geometricPrecision; image-rendering:optimizeQuality; fill-rule:evenodd; clip-rule:evenodd"
viewBox="0 0 7331 4755"
 xmlns:xlink="http://www.w3.org/1999/xlink">
 <defs>
  <style type="text/css">
   <![CDATA[
    .str0 {stroke:#868EE0;stroke-width:27.3244}
    .fil1 {fill:none}
    .fil2 {fill:#1A237E}
    .fil0 {fill:#868EE0}
    .fil3 {fill:#FEFEFE;fill-rule:nonzero}
    .fil4 {fill:#1A237E;fill-rule:nonzero}
   ]]>
  </style>
 </defs>
 <g id="Layer_x0020_1">
  <metadata id="CorelCorpID_0Corel-Layer"/>
  <g id="_2490775032656">
   <polygon id="Path_9228" class="fil0" points="2421,2773 1464,3108 1284,2588 2240,2253 "/>
   <g>
    <path id="Path_9114" class="fil0" d="M2225 2277l168 484 -917 319 -167 -483 916 -319 0 -1zm29 -54l-996 349 197 559 996 -349 -197 -559 0 0z"/>
   </g>
   <path id="Path_9115" class="fil0" d="M1790 3930c7,46 6,93 -4,138l1201 -420 -42 -122 -1155 404z"/>
   <path id="Path_9116" class="fil0" d="M1300 3669c-171,58 -262,244 -203,415 58,171 244,262 415,204 170,-59 262,-244 203,-415 0,-1 0,-2 0,-2 -57,-170 -241,-261 -410,-204 -1,1 -3,1 -5,2zm168 475c-90,31 -188,-15 -219,-105 -32,-89 15,-187 105,-218 89,-32 187,15 218,104 29,89 -17,186 -104,219l0 0 0 0z"/>
   <g>
    <path id="Path_9117" class="fil0" d="M2765 2841l188 538 -1163 408c-28,-54 -67,-101 -113,-139l-130 -378 1218 -429 0 0zm25 -55l-1301 454 150 429c57,42 100,99 126,164l1239 -433 -214 -614 0 0 0 0z"/>
   </g>
   <polygon id="Path_9118" class="fil0" points="1510,3602 869,1765 873,1672 380,1659 375,1878 752,1891 1346,3597 "/>
   <line id="Line_111" class="fil1 str0" x1="4075" y1="1793" x2="6592" y2= "1793" />
   <line id="Line_112" class="fil1 str0" x1="4075" y1="2381" x2="6592" y2= "2381" />
   <line id="Line_113" class="fil1 str0" x1="4075" y1="2970" x2="6592" y2= "2970" />
   <line id="Line_114" class="fil1 str0" x1="4075" y1="3558" x2="6592" y2= "3558" />
   <line id="Line_115" class="fil1 str0" x1="5566" y1="4306" x2="6591" y2= "4306" />
   <line id="Line_110" class="fil1 str0" x1="3383" y1="1472" x2="3383" y2= "4520" />
   <path id="XMLID_68_" class="fil2" d="M6922 1213l-6513 0c-47,0 -86,-8 -86,-19l0 -942c0,-10 39,-18 86,-18l6513 0c47,0 86,8 86,18l0 942c0,11 -39,19 -86,19z"/>
   <path class="fil3" d="M633 806l57 -6c3,24 9,43 19,57 10,15 25,27 46,36 21,9 44,14 71,14 23,0 43,-3 61,-10 18,-7 31,-17 40,-29 8,-12 13,-25 13,-39 0,-15 -5,-27 -13,-38 -8,-11 -22,-20 -41,-27 -13,-5 -40,-12 -82,-22 -42,-10 -72,-20 -89,-29 -22,-12 -38,-26 -49,-43 -10,-17 -16,-36 -16,-57 0,-23 7,-45 20,-65 13,-20 32,-36 58,-46 25,-11 53,-16 84,-16 34,0 64,6 90,17 26,10 46,27 60,48 14,21 21,45 22,72l-58 5c-3,-29 -14,-51 -32,-66 -18,-15 -44,-22 -80,-22 -37,0 -63,7 -80,20 -17,14 -25,30 -25,49 0,16 6,30 17,41 12,10 43,21 92,32 49,12 83,21 102,30 26,12 46,28 59,46 13,19 19,41 19,66 0,24 -7,47 -21,69 -14,21 -34,38 -60,50 -26,12 -56,18 -89,18 -41,0 -76,-6 -104,-18 -28,-12 -50,-31 -66,-55 -16,-24 -24,-52 -25,-82z"/>
   <path id="1" class="fil3" d="M1196 903l8 50c-16,3 -30,5 -42,5 -21,0 -37,-3 -48,-10 -11,-7 -19,-15 -24,-26 -4,-10 -7,-32 -7,-66l0 -192 -41 0 0 -44 41 0 0 -82 57 -34 0 116 56 0 0 44 -56 0 0 195c0,16 1,26 3,31 2,5 5,8 9,11 5,3 11,4 20,4 6,0 14,-1 24,-2z"/>
   <path id="2" class="fil3" d="M1231 787c0,-62 17,-107 51,-137 29,-25 64,-37 105,-37 46,0 83,15 112,45 29,30 44,71 44,124 0,43 -7,76 -20,101 -12,24 -31,43 -56,57 -24,14 -51,20 -80,20 -47,0 -84,-15 -113,-44 -29,-30 -43,-73 -43,-129zm58 0c0,42 9,74 27,95 19,21 43,32 71,32 28,0 51,-11 70,-32 19,-21 28,-53 28,-97 0,-41 -9,-72 -28,-93 -19,-21 -42,-32 -70,-32 -28,0 -52,10 -71,32 -18,21 -27,52 -27,95z"/>
   <path id="3" class="fil3" d="M1826 831l56 8c-6,38 -22,68 -47,89 -25,22 -55,32 -92,32 -45,0 -82,-15 -109,-44 -28,-30 -42,-73 -42,-128 0,-36 6,-67 18,-94 12,-27 30,-47 54,-61 25,-13 51,-20 80,-20 36,0 65,9 88,27 23,19 38,45 44,78l-54 9c-5,-23 -15,-39 -28,-51 -13,-11 -29,-17 -48,-17 -28,0 -52,10 -69,31 -18,20 -27,52 -27,96 0,45 9,77 26,98 17,20 39,30 67,30 22,0 40,-7 55,-20 15,-14 24,-35 28,-63z"/>
   <polygon id="4" class="fil3" points="1930,953 1930,494 1986,494 1986,755 2120,620 2193,620 2066,744 2206,953 2136,953 2026,783 1986,821 1986,953 "/>
   <path id="5" class="fil3" d="M2429 558l0 -64 56 0 0 64 -56 0zm0 395l0 -333 56 0 0 333 -56 0z"/>
   <path id="6" class="fil3" d="M2571 953l0 -333 51 0 0 47c25,-36 60,-54 106,-54 20,0 38,4 55,11 17,7 30,17 38,28 8,12 14,26 17,42 3,10 4,29 4,55l0 204 -57 0 0 -202c0,-23 -2,-40 -6,-52 -5,-11 -13,-20 -24,-27 -11,-7 -24,-10 -39,-10 -24,0 -45,7 -62,23 -17,15 -26,44 -26,87l0 181 -57 0z"/>
   <path id="7" class="fil3" d="M3107 953l0 -459 56 0 0 165c26,-31 59,-46 99,-46 25,0 46,5 64,15 18,9 31,23 39,40 8,17 12,42 12,74l0 211 -57 0 0 -210c0,-28 -6,-49 -18,-62 -12,-13 -29,-19 -51,-19 -17,0 -33,4 -47,13 -15,8 -25,20 -32,35 -6,15 -9,35 -9,61l0 182 -56 0z"/>
   <path id="8" class="fil3" d="M3681 912c-21,17 -41,30 -60,37 -20,8 -41,11 -63,11 -36,0 -65,-9 -84,-26 -20,-18 -30,-41 -30,-69 0,-16 4,-31 11,-44 8,-14 18,-24 30,-33 12,-8 25,-14 40,-18 11,-3 28,-6 50,-9 46,-5 80,-11 101,-19 0,-8 1,-13 1,-15 0,-22 -6,-39 -16,-48 -15,-13 -36,-19 -65,-19 -26,0 -46,5 -59,14 -13,9 -22,26 -28,49l-55 -7c5,-24 13,-43 25,-58 11,-14 28,-25 50,-33 21,-8 47,-12 75,-12 29,0 52,3 70,10 18,7 31,15 39,25 9,11 14,23 18,39 2,10 3,27 3,52l0 75c0,52 1,85 3,99 2,14 7,27 14,40l-59 0c-6,-12 -9,-26 -11,-41zm-4 -126c-21,9 -52,16 -93,22 -23,3 -40,7 -49,11 -10,4 -17,10 -23,18 -5,8 -7,17 -7,27 0,15 5,27 17,37 11,10 28,15 50,15 21,0 41,-5 58,-14 17,-10 29,-23 37,-39 6,-13 9,-31 9,-56l1 -21z"/>
   <path id="9" class="fil3" d="M3820 953l0 -333 51 0 0 47c24,-36 60,-54 106,-54 20,0 38,4 55,11 17,7 30,17 38,28 8,12 14,26 17,42 3,10 4,29 4,55l0 204 -57 0 0 -202c0,-23 -2,-40 -6,-52 -5,-11 -13,-20 -24,-27 -11,-7 -24,-10 -39,-10 -24,0 -45,7 -62,23 -17,15 -26,44 -26,87l0 181 -57 0z"/>
   <path id="10" class="fil3" d="M4392 953l0 -42c-21,33 -52,49 -93,49 -26,0 -51,-7 -73,-22 -22,-14 -39,-35 -52,-61 -12,-26 -18,-56 -18,-90 0,-33 6,-63 17,-90 11,-27 27,-48 50,-62 22,-15 46,-22 74,-22 20,0 38,4 53,13 16,8 29,19 38,33l0 -165 57 0 0 459 -53 0zm-178 -166c0,43 9,74 27,96 18,21 39,31 64,31 24,0 45,-10 63,-30 17,-20 26,-51 26,-92 0,-46 -9,-79 -27,-100 -17,-21 -39,-32 -65,-32 -25,0 -46,10 -63,31 -17,20 -25,52 -25,96z"/>
   <g>
    <path class="fil4" d="M7008 68l-6685 0 0 -68 6685 0 0 0 0 68zm323 258l-62 0 0 0 -1 -13 -1 -13 -1 -13 -3 -12 -2 -12 -4 -13 -4 -11 -5 -12 -5 -11 -5 -11 -7 -11 -6 -11 -8 -10 -7 -9 -8 -10 -9 -9 -9 -8 -9 -9 -10 -7 -11 -8 -10 -7 -11 -6 -11 -6 -12 -5 -12 -5 -12 -4 -13 -3 -12 -3 -13 -3 -13 -1 -14 -1 -13 -1 0 -68 16 0 16 2 16 2 16 3 16 3 15 4 15 6 14 5 15 7 13 7 14 8 13 8 13 9 12 10 12 10 11 11 11 11 10 12 9 12 10 13 8 13 8 14 7 14 7 14 6 15 5 15 4 16 4 16 3 16 2 16 1 17 1 17 0 0zm-62 4103l0 -4103 62 0 0 4103 0 0 -62 0zm-261 326l0 -69 0 0 13 0 14 -1 13 -2 13 -2 12 -3 13 -4 12 -4 12 -5 12 -5 11 -6 11 -6 10 -7 11 -7 10 -8 9 -8 9 -9 9 -9 8 -9 7 -10 8 -10 6 -10 7 -11 5 -11 5 -12 5 -11 4 -12 4 -12 2 -12 3 -13 1 -12 1 -13 1 -13 62 0 -1 17 -1 16 -2 17 -3 16 -4 16 -4 15 -5 15 -6 15 -7 15 -7 14 -8 14 -8 13 -10 13 -9 12 -10 12 -11 11 -11 11 -12 10 -12 9 -13 9 -13 9 -14 8 -13 7 -15 6 -14 6 -15 5 -15 4 -16 4 -16 3 -16 2 -16 1 -16 1 0 0zm-6685 -69l6685 0 0 69 -6685 0 0 0 0 -69zm-323 -257l62 0 0 0 0 13 1 13 2 12 2 13 3 12 4 12 4 12 4 11 5 12 6 11 6 11 7 10 7 10 8 10 8 9 9 9 9 9 9 8 10 8 10 7 11 7 11 6 11 6 12 5 12 5 12 4 12 4 13 3 13 2 13 2 13 1 14 0 0 69 -17 -1 -16 -1 -16 -2 -16 -3 -15 -4 -15 -4 -15 -5 -15 -6 -14 -6 -14 -7 -13 -8 -13 -9 -13 -9 -12 -9 -12 -10 -11 -11 -11 -11 -10 -12 -10 -12 -9 -13 -8 -13 -8 -14 -7 -14 -7 -15 -6 -15 -5 -15 -5 -15 -3 -16 -3 -16 -2 -17 -2 -16 0 -17 0 0zm62 -4103l0 4103 -62 0 0 -4103 0 0 62 0zm261 -326l0 68 0 0 -14 1 -13 1 -13 1 -13 3 -13 3 -12 3 -12 4 -12 5 -12 5 -11 6 -11 6 -11 7 -10 8 -10 7 -9 9 -9 8 -9 9 -8 10 -8 9 -7 10 -7 11 -6 11 -6 11 -5 11 -4 12 -4 11 -4 13 -3 12 -2 12 -2 13 -1 13 0 13 -62 0 0 -17 2 -17 2 -16 3 -16 3 -16 5 -16 5 -15 6 -15 7 -14 7 -14 8 -14 8 -13 9 -13 10 -12 10 -12 11 -11 11 -11 12 -10 12 -10 13 -9 13 -8 13 -8 14 -7 14 -7 15 -5 15 -6 15 -4 15 -3 16 -3 16 -2 16 -2 17 0 0 0z"/>
   </g>
  </g>
 </g>
</svg>
