<?xml version="1.0" encoding="UTF-8"?>
<!DOCTYPE svg PUBLIC "-//W3C//DTD SVG 1.1//EN" "http://www.w3.org/Graphics/SVG/1.1/DTD/svg11.dtd">
<!-- Creator: CorelDRAW X8 -->
<svg xmlns="http://www.w3.org/2000/svg" xml:space="preserve" width="2.98753in" height="3in" version="1.1" style="shape-rendering:geometricPrecision; text-rendering:geometricPrecision; image-rendering:optimizeQuality; fill-rule:evenodd; clip-rule:evenodd"
viewBox="0 0 411 413"
 xmlns:xlink="http://www.w3.org/1999/xlink">
 <defs>
  <style type="text/css">
   <![CDATA[
    .fil0 {fill:#1A237E}
    .fil2 {fill:#868EE0}
    .fil1 {fill:#1A237E;fill-rule:nonzero}
   ]]>
  </style>
 </defs>
 <g id="Layer_x0020_1">
  <metadata id="CorelCorpID_0Corel-Layer"/>
  <g id="_2490682395328">
   <path id="Path_9192" class="fil0" d="M324 314c0,18 -10,27 -21,27 -11,0 -20,-8 -20,-26 0,-17 9,-26 21,-26 12,-1 20,9 20,25zm-32 1c0,11 4,19 12,19 7,0 11,-8 11,-20 0,-10 -3,-19 -11,-19 -8,0 -12,9 -12,20l0 0zm10 62l51 -88 7 0 -50 88 -8 0zm77 -28c0,19 -9,27 -20,27 -11,0 -20,-8 -20,-25 0,-17 9,-27 20,-27 12,0 20,9 20,25zm-31 1c0,11 4,19 11,19 8,0 11,-7 11,-19 0,-10 -3,-19 -11,-19 -7,0 -11,8 -11,19z"/>
   <path id="Subtraction_5" class="fil0" d="M177 168l42 0c2,0 3,1 3,2 0,0 0,0 0,0l0 54 170 0 0 -131c0,-14 -11,-25 -25,-25l-337 0c-14,0 -25,11 -25,25l0 131 170 0 0 -54c0,-1 1,-2 2,-2 0,0 0,0 0,0l0 0z"/>
   <path id="Subtraction_5_0" class="fil0" d="M283 397l-239 0c-16,0 -30,-14 -30,-30 0,0 0,0 0,0l0 -138 -12 0c-1,0 -2,-1 -2,-2 0,0 0,0 0,-1l0 -133c0,-16 13,-30 30,-30 0,0 0,0 0,0l110 0 0 -33c0,-16 14,-30 30,-30 0,0 0,0 0,0l56 0c17,0 31,13 31,30 0,0 0,0 0,0l0 33 110 0c16,0 30,14 30,30 0,0 0,0 0,0l0 133c0,2 -1,3 -2,3 0,0 0,0 0,0l-12 0 0 42 0 1c-2,-2 -4,-3 -6,-5l0 -38 -127 0 0 25c0,2 -1,3 -2,3 0,0 0,0 -1,0l-98 0c-1,0 -2,-1 -2,-2 0,0 0,0 0,-1l0 -25 -128 0 0 0 0 138c0,14 11,25 25,25l233 0c2,2 4,3 6,5zm-103 -224l0 51 37 0 0 -51 -37 0zm-28 56l0 23 93 0 0 -23 -93 0zm18 -224c-14,0 -25,11 -25,25l0 33 107 0 0 -33c0,-14 -11,-25 -26,-25l-56 0z"/>
   <polygon class="fil1" points="54,359 54,324 41,324 41,320 72,320 72,324 59,324 59,359 "/>
   <path id="1" class="fil1" d="M89 356c-2,1 -3,2 -5,3 -2,0 -3,1 -5,1 -3,0 -6,-1 -7,-3 -2,-1 -3,-3 -3,-5 0,-2 0,-3 1,-4 1,-1 1,-2 2,-3 2,-1 3,-1 4,-2 1,0 2,0 4,0 4,-1 7,-1 9,-2 0,-1 0,-1 0,-1 0,-2 -1,-4 -1,-4 -2,-1 -4,-2 -6,-2 -2,0 -4,0 -5,1 -1,1 -2,2 -2,4l-5 0c0,-2 1,-4 2,-5 1,-1 2,-2 4,-3 2,-1 4,-1 7,-1 2,0 4,0 6,1 1,0 2,1 3,2 1,1 1,2 2,3 0,1 0,3 0,5l0 6c0,5 0,7 0,9 0,1 1,2 1,3l-5 0c0,-1 -1,-2 -1,-3zm0 -11c-2,1 -5,1 -8,2 -2,0 -3,0 -4,1 -1,0 -2,0 -2,1 -1,1 -1,2 -1,2 0,2 1,3 2,4 1,0 2,1 4,1 2,0 3,0 5,-1 1,-1 2,-2 3,-4 1,-1 1,-2 1,-4l0 -2z"/>
   <path id="2" class="fil1" d="M98 359l10 -15 -9 -13 6 0 4 6c1,2 2,3 2,3 1,-1 2,-2 2,-3l5 -6 6 0 -10 13 10 15 -5 0 -6 -9 -2 -2 -7 11 -6 0z"/>
   <path class="fil2" d="M5 224l170 0 0 -54c0,-1 1,-2 2,-2 0,0 0,0 0,0l0 0 42 0c2,0 3,1 3,2 0,0 0,0 0,0l0 54 170 0 0 -131c0,-14 -11,-25 -25,-25l-337 0c-14,0 -25,11 -25,25l0 131z"/>
   <path class="fil0" d="M331 252c44,0 80,36 80,81 0,44 -36,80 -80,80 -44,0 -80,-36 -80,-80 0,-45 36,-81 80,-81zm0 6c42,0 75,33 75,75 0,41 -33,75 -75,75 -41,0 -75,-34 -75,-75 0,-42 34,-75 75,-75z"/>
  </g>
 </g>
</svg>
