<svg width="170" height="40" viewBox="0 0 170 40" fill="none" xmlns="http://www.w3.org/2000/svg">
<g clip-path="url(#clip0_2149_278)">
<path d="M30.0005 4.2832H10.7991V35.2311H30.0005V4.2832Z" fill="white"/>
<path d="M15.517 0C13.4791 -3.58853e-08 11.4611 0.436267 9.57827 1.28389C7.69547 2.13151 5.98476 3.37388 4.54384 4.94005C3.10292 6.50622 1.96 8.36551 1.18036 10.4117C0.400722 12.458 -0.000366618 14.6511 2.51449e-07 16.8658V40H21.2881C25.4037 40 29.3508 38.2235 32.2612 35.0612C35.1717 31.8989 36.8071 27.6098 36.8079 23.1373V0H15.517ZM28.0871 7.09721C28.0874 7.82299 27.9562 8.54174 27.7009 9.21239C27.4455 9.88303 27.0711 10.4924 26.599 11.0058C26.1269 11.5191 25.5663 11.9264 24.9493 12.2042C24.3323 12.482 23.671 12.625 23.0032 12.625H17.5506V17.3666H24.9166V22.9157H17.5981V34.3447H11.5505V5.65531H17.5506V10.8583C17.6261 9.4511 18.1938 8.12849 19.1373 7.16123C20.0809 6.19398 21.329 5.65524 22.6261 5.65531H28.0954L28.0871 7.09721Z" fill="#0075DD"/>
<path d="M57.5177 14.7651V29.7487H61.1183V21.5526C61.1183 21.0882 61.1183 19.6736 61.6491 18.9997C61.9257 18.6647 62.2675 18.4007 62.6497 18.2269C63.0318 18.0531 63.4448 17.9739 63.8586 17.9949L64.0094 18.0101V14.2885H63.8837C62.8223 14.1822 61.8111 14.6224 61.3977 15.0929L61.1854 15.3175C61.0589 15.4442 60.9387 15.578 60.825 15.7182V14.7772L57.5177 14.7651Z" fill="black"/>
<path d="M93.7865 29.7488V21.5223C93.7865 19.2851 94.739 17.9889 96.4038 17.9646C96.7154 17.9512 97.0262 18.0071 97.3173 18.1287C97.6084 18.2503 97.8735 18.4351 98.0966 18.6719C98.6692 19.279 98.9737 20.2534 98.9737 21.4707V29.7488H102.516V20.4174C102.516 17.1359 100.468 14.5738 97.6441 14.3249C96.077 14.1701 94.7865 14.6042 93.806 15.6211L93.7753 15.6545V9.80493H90.225L90.2529 29.7488H93.7865Z" fill="black"/>
<path d="M113.6 18.8511L113.488 18.8086L113.605 18.7297C115.044 17.731 115.513 15.6941 115.225 14.2977C114.667 11.4018 112.549 9.80811 109.262 9.80811H104.376L104.401 29.7519H109.532C113.343 29.7519 115.703 27.9852 116.357 24.6461C116.762 22.5758 115.644 19.5918 113.6 18.8511ZM107.999 13.6603H109.577C110.186 13.6603 111.614 13.8242 111.675 15.3298C111.692 15.5699 111.663 15.8111 111.59 16.0383C111.517 16.2656 111.401 16.4739 111.25 16.6503C110.708 17.2574 109.77 17.3849 109.08 17.3849H107.999V13.6603ZM112.292 24.9709C111.756 25.5962 110.739 25.9119 109.264 25.9119H108.027V21.1582H109.965C111.189 21.1582 112.65 21.7319 112.739 23.3499C112.776 23.6391 112.756 23.9336 112.679 24.2134C112.601 24.4931 112.47 24.7515 112.292 24.9709Z" fill="black"/>
<path d="M129.418 16.6198C128.743 15.8863 127.938 15.3075 127.053 14.9175C126.168 14.5275 125.22 14.3343 124.265 14.3492C122.356 14.3924 120.538 15.2435 119.198 16.7212C117.858 18.1989 117.102 20.1867 117.09 22.2612C117.079 24.3358 117.813 26.3334 119.136 27.8288C120.459 29.3242 122.267 30.1993 124.175 30.2678H124.337C126.237 30.2633 128.058 29.444 129.404 27.9881C130.109 27.2528 130.669 26.3708 131.053 25.3947C131.436 24.4186 131.634 23.3685 131.635 22.3072C131.637 21.2459 131.441 20.1952 131.06 19.218C130.679 18.2408 130.121 17.3571 129.418 16.6198ZM124.466 26.525C123.967 26.5399 123.471 26.4446 123.008 26.2447C122.545 26.0449 122.123 25.7446 121.77 25.3623C121.392 24.9662 121.091 24.492 120.884 23.9675C120.678 23.4431 120.57 22.879 120.566 22.3085C120.558 21.2222 120.94 20.1754 121.632 19.3915C122.324 18.6077 123.271 18.1489 124.27 18.1133H124.351C125.349 18.1195 126.305 18.5494 127.015 19.3111C127.724 20.0729 128.132 21.1062 128.15 22.1901C128.176 23.2918 127.806 24.3611 127.118 25.1706C126.43 25.9801 125.478 26.466 124.466 26.525Z" fill="black"/>
<path d="M144.851 16.6199C144.176 15.8859 143.372 15.3067 142.487 14.9166C141.601 14.5266 140.653 14.3337 139.698 14.3493C137.789 14.3925 135.971 15.2435 134.631 16.7213C133.292 18.199 132.535 20.1867 132.524 22.2613C132.512 24.3359 133.246 26.3335 134.569 27.8289C135.892 29.3243 137.7 30.1994 139.608 30.2679H139.77C141.67 30.264 143.491 29.4446 144.838 27.9882C145.541 27.2519 146.1 26.369 146.482 25.3924C146.865 24.4157 147.062 23.3653 147.062 22.304C147.062 21.2428 146.865 20.1924 146.482 19.2157C146.1 18.2391 145.541 17.3562 144.838 16.6199H144.851ZM142.55 25.1954C142.213 25.6005 141.805 25.9279 141.35 26.1579C140.894 26.3879 140.401 26.5158 139.899 26.5341C139.401 26.5488 138.905 26.4533 138.441 26.2534C137.978 26.0536 137.557 25.7535 137.203 25.3715C136.825 24.9754 136.524 24.5012 136.318 23.9767C136.111 23.4523 136.003 22.8882 135.999 22.3177C135.991 21.2314 136.373 20.1846 137.066 19.4007C137.758 18.6168 138.704 18.1581 139.703 18.1225H139.784C140.78 18.1302 141.733 18.5595 142.441 19.3192C143.15 20.0788 143.557 21.1089 143.578 22.1902C143.612 23.2998 143.242 24.3793 142.55 25.1954Z" fill="black"/>
<path d="M151.466 22.9583L151.776 22.6668H152.053L156.05 29.8248H159.888L154.436 20.0228L159.827 14.7379H155L151.503 18.1559H151.466V9.73218H148.081V29.8248H151.466V22.9583Z" fill="black"/>
<path d="M170 25.2743C170 22.0839 167.612 21.2643 165.693 20.6025C164.483 20.1867 163.438 19.8285 163.438 18.9876C163.438 18.4078 163.883 18.0466 164.6 18.0466C165.026 18.0378 165.441 18.1987 165.765 18.4989L165.913 18.6567L168.271 16.1341L168.117 15.9702C167.663 15.4952 167.126 15.1243 166.537 14.8797C165.948 14.6352 165.32 14.5218 164.69 14.5465C161.863 14.5465 160.039 16.3284 160.039 19.0847C160.039 22.3723 162.369 23.031 164.243 23.5744C165.559 23.9508 166.6 24.2483 166.6 25.2743C166.6 26.1516 165.838 26.7648 164.751 26.7648C163.665 26.7648 162.991 26.1577 162.991 25.2106V24.9829H159.5V25.2106C159.5 28.1399 161.706 30.2648 164.748 30.2648C167.79 30.2648 170 28.1672 170 25.2743Z" fill="black"/>
<path d="M49.5874 13.7482V18.0921H55.5512V21.9261H49.6126V29.7488H45.984V9.80493H55.9171V13.7482H49.5874Z" fill="black"/>
<path d="M78.465 22.3449C78.465 17.4424 75.951 14.3977 71.8783 14.3977C67.7302 14.3977 64.7162 17.6033 64.7162 22.017C64.7162 26.6767 67.7553 30.1949 71.7889 30.1949C72.8476 30.2013 73.8963 29.9728 74.8708 29.5234C75.8454 29.0739 76.7253 28.4131 77.4566 27.5813L77.5572 27.4659L75.0432 25.0557L74.951 25.1741C74.5708 25.6865 74.0889 26.0988 73.5413 26.38C72.9937 26.6613 72.3946 26.8042 71.7889 26.7981C69.9118 26.7981 68.5263 25.4837 68.1716 23.3709L68.1185 23.0674H78.4538L78.465 22.3449ZM68.409 19.7586L68.5095 19.5582C69.1325 18.3986 70.2721 17.7611 71.7163 17.7611C73.2443 17.7611 74.4147 18.52 74.8253 19.7586H68.409Z" fill="black"/>
<path d="M85.0796 20.6055C83.87 20.1896 82.8253 19.8314 82.8253 18.9875C82.8253 18.4077 83.2723 18.0465 83.9902 18.0465C84.4162 18.0377 84.8305 18.1986 85.155 18.4988L85.3002 18.6597L87.6578 16.1341L87.5042 15.9732C87.0508 15.4975 86.5139 15.1261 85.9255 14.8809C85.3371 14.6358 84.7093 14.522 84.0796 14.5465C81.2527 14.5465 79.4258 16.3283 79.4258 19.0847C79.4258 22.3722 81.7583 23.0309 83.6298 23.5743C84.9483 23.9507 85.9874 24.2482 85.9874 25.2742C85.9874 26.1515 85.2276 26.7647 84.1382 26.7647C83.0488 26.7647 82.3784 26.1576 82.3784 25.2105V24.9828H78.8895V25.2105C78.8895 28.1398 81.0963 30.2678 84.1382 30.2678C87.1802 30.2678 89.3869 28.1672 89.3869 25.2742C89.3869 22.0838 86.9986 21.2642 85.0796 20.6055Z" fill="black"/>
</g>
<defs>
<clipPath id="clip0_2149_278">
<rect width="170" height="40" fill="white"/>
</clipPath>
</defs>
</svg>
