<svg xmlns="http://www.w3.org/2000/svg" width="415.122" height="201" viewBox="0 0 415.122 201"><defs><style>.a{fill:#1a237e;}.b,.h,.m,.p{fill:#fff;}.b,.c{stroke:#1a237e;stroke-linecap:round;stroke-miterlimit:10;stroke-width:2px;}.c,.e,.r{fill:none;}.d,.o{fill:#8e8e8e;}.d,.j{font-size:12px;}.d,.i,.j,.k{font-family:Roboto-Regular, Roboto;}.e{stroke:#dddde1;}.f,.i,.j,.l{fill:#28283c;}.f{font-size:13px;font-family:Roboto-Medium, Roboto;font-weight:500;}.g{fill:#e3e3e3;}.h{stroke:#707070;stroke-width:0.25px;}.i,.k,.p{font-size:10px;}.k{fill:#f4f5f9;}.n{fill:#f3f3ff;}.o{font-size:9px;}.o,.p{font-family:ArialMT, Arial;}.q{stroke:none;}</style></defs><g transform="translate(-826.903 -1974.996)"><path class="a" d="M687.728,85.3H411.637A11.183,11.183,0,0,0,400.6,96.58V273.949a11.183,11.183,0,0,0,11.037,11.28H687.728a11.183,11.183,0,0,0,11.037-11.28V96.58A11.183,11.183,0,0,0,687.728,85.3Zm.64,179a11.352,11.352,0,0,1-11.357,11.28H422.195a11.352,11.352,0,0,1-11.357-11.28V105.9a11.352,11.352,0,0,1,11.357-11.28H677.171a11.352,11.352,0,0,1,11.357,11.28V264.3Z" transform="translate(465.36 1889.696)"/><line class="b" x2="377.319" transform="translate(827.903 2174.996)"/><line class="c" x2="23.354" transform="translate(1217.672 2174.996)"/><text class="d" transform="translate(888.437 2086.15)"><tspan x="0" y="0">Username</tspan></text><line class="e" y1="1.12" x2="252.621" transform="translate(887.917 2049.417)"/><text class="f" transform="translate(887.358 2038.796)"><tspan x="0" y="0">Welcome to Giddh</tspan></text><rect class="g" width="261.836" height="19.949" rx="2" transform="translate(884.634 1993.208)"/><g class="h" transform="translate(888.375 2094.13)"><rect class="q" width="235.585" height="23.902" rx="2"/><rect class="r" x="0.125" y="0.125" width="235.335" height="23.652" rx="1.875"/></g><text class="i" transform="translate(892.8 2006.576)"><tspan x="0" y="0">https://giddh.com/login</tspan></text><text class="j" transform="translate(898.634 2110.164)"><tspan x="0" y="0">name@giddh.com</tspan></text><g transform="translate(888.375 2135.253)"><rect class="a" width="65.595" height="19.421" rx="2"/><text class="k" transform="translate(19.025 12.988)"><tspan x="0" y="0">Login</tspan></text></g><g transform="translate(1011.894 2023.791)"><path class="l" d="M120.447,78.87a2.25,2.25,0,0,1-.641,1.56.483.483,0,0,1-.348.139.5.5,0,0,1-.362-.849,1.21,1.21,0,0,0,0-1.713.5.5,0,0,1,.71-.71A2.223,2.223,0,0,1,120.447,78.87Z" transform="translate(-102.386 -66.393)"/><path class="l" d="M50.027,47.327h0L48.3,45.6l.028.028Z" transform="translate(-41.574 -39.236)"/><path class="l" d="M36.439,17.271c-.1-.111-.195-.209-.292-.306L33.041,13.86a1.8,1.8,0,0,0-2.144-.306l-2.339-2.339a1.967,1.967,0,0,0-2.757,0,1.865,1.865,0,0,0-.5.863,1.948,1.948,0,0,0-2.632,2.869l.111.111a1.948,1.948,0,0,0-1.337,2.409,2,2,0,0,0,.487.849l.334.334a1.892,1.892,0,0,0-.849.5,1.95,1.95,0,0,0,0,2.743l4.9,4.9a7.013,7.013,0,0,0,4.943,2.061H31.3a6.934,6.934,0,0,0,5.138-11.585Zm-.947,8.856a5.836,5.836,0,0,1-4.219,1.727,6.021,6.021,0,0,1-4.247-1.768L22.138,21.17a.938.938,0,0,1-.278-.668.915.915,0,0,1,.278-.668,1,1,0,0,1,1.351,0l3.439,3.425a.488.488,0,0,0,.7-.042.508.508,0,0,0,0-.668l-3.439-3.412-1.532-1.532a.95.95,0,0,1,0-1.351.976.976,0,0,1,1.351,0l4.219,4.219a.487.487,0,0,0,.7,0,.5.5,0,0,0,0-.7h0l-5.528-5.542a.955.955,0,0,1,1.351-1.351l1.086,1.086,1.253,1.253,2.451,2.451a.5.5,0,0,0,.71-.71h0l-2.465-2.437L26.51,13.261a.95.95,0,0,1,0-1.351.976.976,0,0,1,1.351,0L30.2,14.263a1.8,1.8,0,0,0,.306,2.144l1.281,1.281a2.787,2.787,0,0,0,.056,3.5c.014.014.014.028.028.028a.494.494,0,0,0,.668.028.5.5,0,0,0,.07-.7h0a1.784,1.784,0,0,1,.111-2.423l.056-.056a.492.492,0,0,0,.1-.7c-.014-.014-.028-.042-.042-.056L31.2,15.7a.821.821,0,0,1,1.142-1.142l3.091,3.105a2.512,2.512,0,0,1,.251.278A5.974,5.974,0,0,1,35.492,26.127Z" transform="translate(-17.947 -9.153)"/><path class="l" d="M120.447,78.87a2.25,2.25,0,0,1-.641,1.56.483.483,0,0,1-.348.139.5.5,0,0,1-.362-.849,1.21,1.21,0,0,0,0-1.713.5.5,0,0,1,.71-.71A2.223,2.223,0,0,1,120.447,78.87Z" transform="translate(-102.386 -66.393)"/><path class="l" d="M101.514,14.815a.5.5,0,0,1-.5-.5A1.212,1.212,0,0,0,99.8,13.1a.5.5,0,1,1,0-1h0a2.211,2.211,0,0,1,2.214,2.214.491.491,0,0,1-.5.5Z" transform="translate(-85.473 -10.401)"/><path class="l" d="M103.815,4.217a.5.5,0,0,1-.5-.5A2.814,2.814,0,0,0,100.5.9a.5.5,0,0,1-.5-.5.5.5,0,0,1,.5-.5,3.833,3.833,0,0,1,3.815,3.829h0a.488.488,0,0,1-.5.487Z" transform="translate(-86.075 0.1)"/><path class="l" d="M14.514,101.915A2.211,2.211,0,0,1,12.3,99.7a.5.5,0,0,1,1,0,1.212,1.212,0,0,0,1.211,1.211.5.5,0,0,1,.5.5A.518.518,0,0,1,14.514,101.915Z" transform="translate(-10.587 -85.373)"/><path class="l" d="M3.815,104.217A3.821,3.821,0,0,1,0,100.4a.5.5,0,0,1,1,0H1a2.826,2.826,0,0,0,2.813,2.827h.014a.5.5,0,0,1,.5.5A.518.518,0,0,1,3.815,104.217Z" transform="translate(0 -85.975)"/></g><path class="m" d="M200.956,278.5H141.438A10.274,10.274,0,0,1,131.1,268.164V148.538A10.274,10.274,0,0,1,141.438,138.2h59.518a10.274,10.274,0,0,1,10.338,10.338V268.164A10.274,10.274,0,0,1,200.956,278.5Z" transform="translate(998.016 1893.509)"/><path class="a" d="M69.088,139.294H10.225A10.181,10.181,0,0,1,0,129.031V10.264A10.182,10.182,0,0,1,10.225,0H69.088A10.182,10.182,0,0,1,79.313,10.264V129.031a10.181,10.181,0,0,1-10.225,10.263ZM13.1,4.229a9.339,9.339,0,0,0-9.225,9.64V125.425a9.34,9.34,0,0,0,9.225,9.641H66.21a9.34,9.34,0,0,0,9.225-9.641V13.869a9.339,9.339,0,0,0-9.225-9.64Z" transform="translate(1129.556 2032.213)"/><ellipse class="n" cx="2.445" cy="2.445" rx="2.445" ry="2.445" transform="translate(1167.563 2158.359)"/><text class="i" transform="translate(1167.227 2052.696)"><tspan x="-20.754" y="0">Welcome</tspan><tspan x="-19.006" y="11">to Giddh</tspan></text><g transform="translate(1158.359 2077.345)"><path class="l" d="M120.447,78.87a2.25,2.25,0,0,1-.641,1.56.483.483,0,0,1-.348.139.5.5,0,0,1-.362-.849,1.21,1.21,0,0,0,0-1.713.5.5,0,0,1,.71-.71A2.223,2.223,0,0,1,120.447,78.87Z" transform="translate(-102.386 -66.393)"/><path class="l" d="M50.027,47.327h0L48.3,45.6l.028.028Z" transform="translate(-41.574 -39.236)"/><path class="l" d="M36.439,17.271c-.1-.111-.195-.209-.292-.306L33.041,13.86a1.8,1.8,0,0,0-2.144-.306l-2.339-2.339a1.967,1.967,0,0,0-2.757,0,1.865,1.865,0,0,0-.5.863,1.948,1.948,0,0,0-2.632,2.869l.111.111a1.948,1.948,0,0,0-1.337,2.409,2,2,0,0,0,.487.849l.334.334a1.892,1.892,0,0,0-.849.5,1.95,1.95,0,0,0,0,2.743l4.9,4.9a7.013,7.013,0,0,0,4.943,2.061H31.3a6.934,6.934,0,0,0,5.138-11.585Zm-.947,8.856a5.836,5.836,0,0,1-4.219,1.727,6.021,6.021,0,0,1-4.247-1.768L22.138,21.17a.938.938,0,0,1-.278-.668.915.915,0,0,1,.278-.668,1,1,0,0,1,1.351,0l3.439,3.425a.488.488,0,0,0,.7-.042.508.508,0,0,0,0-.668l-3.439-3.412-1.532-1.532a.95.95,0,0,1,0-1.351.976.976,0,0,1,1.351,0l4.219,4.219a.487.487,0,0,0,.7,0,.5.5,0,0,0,0-.7h0l-5.528-5.542a.955.955,0,0,1,1.351-1.351l1.086,1.086,1.253,1.253,2.451,2.451a.5.5,0,0,0,.71-.71h0l-2.465-2.437L26.51,13.261a.95.95,0,0,1,0-1.351.976.976,0,0,1,1.351,0L30.2,14.263a1.8,1.8,0,0,0,.306,2.144l1.281,1.281a2.787,2.787,0,0,0,.056,3.5c.014.014.014.028.028.028a.494.494,0,0,0,.668.028.5.5,0,0,0,.07-.7h0a1.784,1.784,0,0,1,.111-2.423l.056-.056a.492.492,0,0,0,.1-.7c-.014-.014-.028-.042-.042-.056L31.2,15.7a.821.821,0,0,1,1.142-1.142l3.091,3.105a2.512,2.512,0,0,1,.251.278A5.974,5.974,0,0,1,35.492,26.127Z" transform="translate(-17.947 -9.153)"/><path class="l" d="M120.447,78.87a2.25,2.25,0,0,1-.641,1.56.483.483,0,0,1-.348.139.5.5,0,0,1-.362-.849,1.21,1.21,0,0,0,0-1.713.5.5,0,0,1,.71-.71A2.223,2.223,0,0,1,120.447,78.87Z" transform="translate(-102.386 -66.393)"/><path class="l" d="M101.514,14.815a.5.5,0,0,1-.5-.5A1.212,1.212,0,0,0,99.8,13.1a.5.5,0,1,1,0-1h0a2.211,2.211,0,0,1,2.214,2.214.491.491,0,0,1-.5.5Z" transform="translate(-85.473 -10.401)"/><path class="l" d="M103.815,4.217a.5.5,0,0,1-.5-.5A2.814,2.814,0,0,0,100.5.9a.5.5,0,0,1-.5-.5.5.5,0,0,1,.5-.5,3.833,3.833,0,0,1,3.815,3.829h0a.488.488,0,0,1-.5.487Z" transform="translate(-86.075 0.1)"/><path class="l" d="M14.514,101.915A2.211,2.211,0,0,1,12.3,99.7a.5.5,0,0,1,1,0,1.212,1.212,0,0,0,1.211,1.211.5.5,0,0,1,.5.5A.518.518,0,0,1,14.514,101.915Z" transform="translate(-10.587 -85.373)"/><path class="l" d="M3.815,104.217A3.821,3.821,0,0,1,0,100.4a.5.5,0,0,1,1,0H1a2.826,2.826,0,0,0,2.813,2.827h.014a.5.5,0,0,1,.5.5A.518.518,0,0,1,3.815,104.217Z" transform="translate(0 -85.975)"/></g><g class="h" transform="translate(1136.577 2111.818)"><rect class="q" width="66.083" height="13.715" rx="1"/><rect class="r" x="0.125" y="0.125" width="65.833" height="13.465" rx="0.875"/></g><text class="o" transform="translate(1167.255 2121.922)"><tspan x="-16.255" y="0">Email Id</tspan></text><rect class="a" width="66.083" height="19.715" rx="1" transform="translate(1136.577 2134.815)"/><text class="p" transform="translate(1166.735 2148.097)"><tspan x="-12.234" y="0">Login</tspan></text></g></svg>