<svg width="161" height="32" viewBox="0 0 161 32" fill="none" xmlns="http://www.w3.org/2000/svg">
<g clip-path="url(#clip0_841_1323)">
<path d="M45.7602 0H38.8333V31.9987H45.7602V0Z" fill="white"/>
<path fill-rule="evenodd" clip-rule="evenodd" d="M83.9786 31.9987H72.6565C63.2886 31.9987 54.9843 26.4396 54.9843 16.0895C54.9843 4.38393 63.4652 0 73.5888 0H83.9786V14.9542H77.0516V6.50625H72.967C67.106 6.50625 62.1774 9.44379 62.1774 15.7222C62.1774 22.999 67.0177 25.4848 73.4551 25.4848H83.9786V31.9987Z" fill="white"/>
<path fill-rule="evenodd" clip-rule="evenodd" d="M133.194 31.9976H140.119V18.1735H153.573V31.9976H160.5V-0.00244141H153.573V11.9297H140.119V-0.00244141H133.194V31.9976Z" fill="white"/>
<path fill-rule="evenodd" clip-rule="evenodd" d="M95.1946 0.00634766H106.517C115.886 0.00634766 124.188 5.56533 124.188 15.9154C124.188 27.6223 115.707 32.0051 105.583 32.0051H95.1934V17.0507H102.119V25.4988H106.204C112.065 25.4988 116.993 22.5612 116.993 16.2828C116.993 9.00595 112.154 6.52025 105.716 6.52025H95.192L95.1946 0.00634766Z" fill="white"/>
<path fill-rule="evenodd" clip-rule="evenodd" d="M29.1891 13.1612H17.4848V19.3538H22.8513V24.301C20.9382 25.3241 18.8019 25.8417 16.6396 25.8062C11.0197 25.8062 7.34489 21.6783 7.34489 16.0002C7.34489 10.3222 11.0209 6.19415 16.6396 6.19415C17.9852 6.10383 19.3338 6.3151 20.5898 6.81306C21.8458 7.31101 22.9784 8.08341 23.9071 9.0754L28.5545 3.91446C25.5546 1.07542 21.3715 0.000244141 16.6396 0.000244141C7.30453 0.000244141 0.498718 6.23768 0.498718 16.0002C0.498718 25.7628 7.30075 32.0002 16.6396 32.0002C20.9951 32.0769 25.3031 31.0728 29.1891 29.0754V13.1612Z" fill="white"/>
</g>
<defs>
<clipPath id="clip0_841_1323">
<rect width="160" height="32" fill="white" transform="translate(0.5)"/>
</clipPath>
</defs>
</svg>
