<svg xmlns="http://www.w3.org/2000/svg" width="396.082" height="201" viewBox="0 0 396.082 201"><defs><style>.a,.j{fill:#1a237e;}.b,.h,.k,.l{fill:#fff;}.b,.c{stroke:#1a237e;stroke-linecap:round;stroke-miterlimit:10;stroke-width:2px;}.c,.i{fill:none;}.d{fill:#868ee0;opacity:0.59;}.e{fill:#b8bced;}.f{fill:#28283c;}.f,.l{font-size:10px;}.f,.h{font-family:Roboto-Regular, Roboto;}.g{fill:#9ba3ff;}.h{font-size:8px;}.i{stroke:#dddde1;}.j{font-size:19px;font-family:Roboto-Medium, Roboto;font-weight:500;}.l{font-family:ArialMT, Arial;}</style></defs><g transform="translate(-873.213 -2722)"><path class="a" d="M687.728,85.3H411.637A10.848,10.848,0,0,0,400.6,95.9V262.63a10.848,10.848,0,0,0,11.037,10.6H687.728a10.848,10.848,0,0,0,11.037-10.6V95.9A10.848,10.848,0,0,0,687.728,85.3Zm.64,168.263c0,5.839-5.119,10.6-11.357,10.6H422.195c-6.238,0-11.357-4.764-11.357-10.6v-148.9c0-5.839,5.119-10.6,11.357-10.6H677.171c6.239,0,11.357,4.764,11.357,10.6v148.9Z" transform="translate(516.457 2648.696)"/><line class="b" x2="353.493" transform="translate(879 2922)"/><line class="c" x2="23.354" transform="translate(1244.941 2922)"/><circle class="a" cx="35" cy="35" r="35" transform="translate(1173.524 2722)"/><rect class="d" width="24.976" height="73.7" transform="translate(941.185 2829.688)"/><rect class="d" width="83.905" height="73.7" transform="translate(978.016 2829.688)"/><rect class="e" width="47.074" height="73.7" transform="translate(1073.776 2829.688)"/><rect class="e" width="47.074" height="73.7" transform="translate(1132.705 2829.688)"/><text class="f" transform="translate(941.185 2787)"><tspan x="0" y="0">To,</tspan><tspan x="0" y="11">ABC Ltd.</tspan><tspan x="0" y="22">Indore</tspan></text><text class="f" transform="translate(999.528 2797)"><tspan x="0" y="0">Inv #434</tspan><tspan x="0" y="12">Due Date 05/10//18</tspan></text><rect class="g" width="57.877" height="20.025" rx="2" transform="translate(1122.182 2786.175)"/><text class="h" transform="translate(1127.705 2799.733)"><tspan x="0" y="0">Due: 50,000/-</tspan></text><line class="i" y1="1.054" x2="237.822" transform="translate(941.711 2816.514)"/><text class="j" transform="translate(941 2769)"><tspan x="0" y="0">Invoice</tspan></text><g transform="translate(1193.069 2740.747)"><path class="k" d="M416.953,170.131l.541,6.5-5.95-2.709Zm.9,19.5a1.034,1.034,0,0,0-1.262.361,13.954,13.954,0,0,1-12.622,7.946,14.54,14.54,0,0,1-.541-29.075,14.893,14.893,0,0,1,9.917,3.612l1.623-1.264a16.835,16.835,0,0,0-11.54-4.515A16.527,16.527,0,1,0,418.4,190.538C418.576,190.357,418.4,189.815,417.854,189.635Zm-13.163-5.056v-8.126a1.082,1.082,0,1,0-2.164,0v8.126a1.082,1.082,0,1,0,2.164,0Zm8.294,0a1.164,1.164,0,0,0-1.082-1.084H403.97a1.084,1.084,0,0,0,0,2.167H411.9A1.164,1.164,0,0,0,412.986,184.578Z" transform="translate(-387.198 -166.7)"/></g><g transform="translate(-6713 -210)"><path class="k" d="M200.956,278.5H141.438A10.274,10.274,0,0,1,131.1,268.164V148.538A10.274,10.274,0,0,1,141.438,138.2h59.518a10.274,10.274,0,0,1,10.338,10.338V268.164A10.274,10.274,0,0,1,200.956,278.5Z" transform="translate(7455.113 2850.512)"/><path class="a" d="M69.088,139.294H10.225A10.181,10.181,0,0,1,0,129.031V10.264A10.182,10.182,0,0,1,10.225,0H69.088A10.182,10.182,0,0,1,79.313,10.264V129.031a10.181,10.181,0,0,1-10.225,10.263ZM13.1,4.229a9.339,9.339,0,0,0-9.225,9.64V125.425a9.34,9.34,0,0,0,9.225,9.641H66.21a9.34,9.34,0,0,0,9.225-9.641V13.869a9.339,9.339,0,0,0-9.225-9.64Z" transform="translate(7586.653 2989.216)"/><text class="f" transform="translate(7626.324 3052.7)"><tspan x="-19.021" y="0">INVOICE</tspan><tspan x="0" y="11"></tspan><tspan x="-10.332" y="22">Sent</tspan><tspan x="-28.743" y="33">Successfully</tspan></text><rect class="a" width="66.083" height="19.715" rx="1" transform="translate(7593.674 3091.819)"/><text class="l" transform="translate(7625.832 3105.101)"><tspan x="-11.953" y="0">Done</tspan></text></g><path class="a" d="M0,12.533a4.775,4.775,0,0,1,1.942-1.546,1.99,1.99,0,0,1,2.09.417,5.323,5.323,0,0,1,1.314,1.953c.243.554.449,1.124.67,1.689.032.084.069.174.116.306A48.882,48.882,0,0,1,21.146,0c.269.29.5.544.755.818-.422.343-.829.66-1.224.992a43.82,43.82,0,0,0-7.346,7.9,78.423,78.423,0,0,0-5.325,8.575,1.411,1.411,0,0,1-.385.406c-.876.639-1.757,1.261-2.633,1.889-.084.058-.164.121-.264.2A15.679,15.679,0,0,0,0,12.533Z" transform="translate(903.193 2799.5)"/></g></svg>