<svg width="60" height="60" viewBox="0 0 60 60" fill="none" xmlns="http://www.w3.org/2000/svg">
<path d="M52.7328 36.8897L52.3354 37.1402L34.3251 24.6024C33.1581 23.79 31.5811 23.9085 30.5486 24.8861L27.6326 27.6468C25.6164 29.5557 22.4872 29.643 20.3677 27.8496C17.9237 25.7816 17.781 22.0623 20.0593 19.8132L22.9091 17L26.4731 13.4817C28.6954 11.2879 31.815 10.2581 34.9066 10.6979L47.4082 12.4761C52.3374 13.1772 56 17.3976 56 22.3764V30.968C56 33.372 54.7664 35.6078 52.7328 36.8897Z" fill="#FFEDEF"/>
<path d="M23.3265 48.2311L8.30185 37.8131C5.60738 35.9447 4 32.8742 4 29.5954V18.5C4 15.7386 6.23858 13.5 9 13.5H14.7663C16.8242 13.5 18.8321 14.135 20.5159 15.3182L22.9091 17L20.0594 19.8132C17.7811 22.0623 17.9237 25.7816 20.3677 27.8496C22.4872 29.643 25.6164 29.5557 27.6326 27.6468L30.5486 24.8861C31.5811 23.9085 33.1582 23.79 34.3251 24.6024L52.3354 37.1402L44.3086 42.2L36.1905 47.3173L34.3572 48.4729C30.9645 50.6116 26.6223 50.5164 23.3265 48.2311Z" fill="#F0F5FF"/>
<path fill-rule="evenodd" clip-rule="evenodd" d="M25.435 12.3657C27.985 9.87233 31.5476 8.70319 35.0791 9.20072L47.6043 10.9653C53.2797 11.7648 57.5 16.6214 57.5 22.3528V30.7118C57.5 33.644 55.9888 36.3691 53.5016 37.9219L35.1134 49.4028C31.2323 51.8259 26.284 51.7179 22.5124 49.1276L7.48947 38.8099C4.36626 36.6649 2.5 33.1192 2.5 29.3303V18.4667C2.5 14.8768 5.41016 11.9667 9 11.9667H14.791C17.14 11.9667 19.4327 12.686 21.3607 14.028L22.7476 14.9933L25.435 12.3657ZM20.5639 17.1285L19.6469 16.4902C18.2218 15.4984 16.5272 14.9667 14.791 14.9667H9C7.06701 14.9667 5.5 16.5337 5.5 18.4667V29.3303C5.5 32.1308 6.87941 34.7516 9.18787 36.337L24.2108 46.6546C26.9985 48.5692 30.6559 48.6491 33.5246 46.858L33.5329 46.8528L26.6278 41.7096C25.9634 41.2148 25.826 40.275 26.3208 39.6106C26.8157 38.9463 27.7554 38.8088 28.4198 39.3037L36.265 45.147L41.6366 41.7932L35.6126 37.3729C34.9447 36.8828 34.8006 35.944 35.2907 35.2761C35.7808 34.6082 36.7195 34.4641 37.3874 34.9542L44.3764 40.0826L49.6027 36.8195L33.461 25.6895C32.8799 25.2888 32.0982 25.3474 31.5834 25.8302L28.6234 28.606C26.0688 31.0016 22.1273 31.1115 19.4432 28.8619C16.3061 26.2327 16.1236 21.4702 19.0502 18.6086L20.5639 17.1285ZM52.3529 35.0718C53.6986 34.0371 54.5 32.4294 54.5 30.7118V22.3528C54.5 18.1165 51.3806 14.5269 47.1858 13.9359L34.6606 12.1714C32.0503 11.8036 29.4171 12.6678 27.5323 14.5107L21.1476 20.7536C19.4895 22.3748 19.5929 25.0731 21.3702 26.5627C22.8909 27.8371 25.124 27.7749 26.5713 26.4176L29.5313 23.6419C31.0757 22.1936 33.4209 22.0178 35.1639 23.2197L52.3529 35.0718Z" fill="#1A237E"/>
</svg>
