<svg width="239" height="48" viewBox="0 0 239 48" fill="none" xmlns="http://www.w3.org/2000/svg">
<g clip-path="url(#clip0)">
<path d="M43.6851 47.1333H51.7344L58.0446 23.6161H50.078L43.6851 47.1333Z" fill="#004A7F"/>
<path d="M84.9534 47.1333H93.0028L99.313 23.6161H91.2636L84.9534 47.1333Z" fill="#004A7F"/>
<path d="M126.297 47.1333H134.267L140.503 23.6161H132.453L126.297 47.1333Z" fill="#004A7F"/>
<path d="M77.4562 31.6655H85.5056C86.6098 26.3808 83.2182 23.699 75.3265 23.699C66.1728 23.699 60.0204 28.1949 57.8907 35.85C56.0726 42.9489 59.7838 47.2122 68.3813 47.2122C77.0618 47.2122 82.1888 44.5304 84.3224 38.4529H76.273C75.0898 41.1347 73.0391 42.4756 70.1995 42.4756C66.3306 42.4756 64.753 40.1093 65.9362 35.6133C67.1982 30.9556 70.1995 28.3527 74.0645 28.3527C76.5885 28.3527 77.6928 29.457 77.4562 31.6655Z" fill="#004A7F"/>
<path d="M118.803 31.6655H126.853C127.957 26.3808 124.483 23.699 116.591 23.699C107.516 23.699 101.285 28.1949 99.2342 35.85C97.3411 42.9489 101.048 47.2122 109.65 47.2122C118.251 47.2122 123.378 44.5304 125.587 38.4529H117.541C116.433 41.1347 114.304 42.4756 111.464 42.4756C107.599 42.4756 106.022 40.1093 107.28 35.6133C108.467 30.9556 111.464 28.3527 115.329 28.3527C117.857 28.3527 119.04 29.457 118.803 31.6655Z" fill="#004A7F"/>
<path d="M12.6746 10.6015C23.4058 -0.0508784 36.4244 -2.81551 41.6342 4.44511C46.8441 11.7057 42.2653 26.3808 31.534 37.0331C20.8028 47.7643 7.78421 50.525 2.49551 43.1855C-2.63149 35.85 1.9473 21.2498 12.6746 10.6015Z" fill="#F06321"/>
<path d="M19.7774 4.91837C18.5943 5.78602 17.4111 6.81142 16.228 7.91964C6.83769 17.2271 2.88987 30.0091 7.54757 36.4021C12.359 42.7911 23.879 40.4248 33.5059 31.0345C38.7158 25.9864 42.1863 20.1456 43.6061 14.7031C44.0005 10.6803 43.4485 7.12693 41.6342 4.44512C37.5326 -1.23402 28.6945 -0.764709 19.7774 4.91837Z" fill="#AE282E"/>
<path d="M33.3482 6.10151V6.33815C33.2695 7.67906 32.4806 9.33546 31.0608 10.7552C28.9311 12.806 26.0915 13.5948 24.9044 12.4156C23.5635 11.1536 24.3563 8.38894 26.4859 6.18039C28.6945 4.05071 31.534 3.34082 32.7172 4.60285C33.1116 4.99724 33.3482 5.4705 33.3482 6.10151ZM25.145 42.3178C20.0929 46.1039 14.8871 48.0009 9.83501 47.2122C11.9647 47.291 13.7039 44.9208 15.1237 41.7657C16.5435 38.5318 17.3322 35.5344 18.0421 32.6909C19.0675 28.1949 19.1464 25.0399 18.5943 24.33C17.7266 23.2218 15.8336 23.4623 13.6211 24.7244C12.5168 25.3554 11.097 24.961 12.7574 22.9102C14.4927 20.8594 21.1972 15.9651 23.5635 15.1763C26.2493 14.4664 29.2466 15.4918 28.2212 18.4103C27.5074 20.5399 18.1999 44.8419 25.145 42.3178Z" fill="white"/>
<path d="M152.575 43.4221L154.389 36.6387H158.806V33.0104H155.414L156.992 27.2484H158.806V23.695H152.807L146.576 47.2122H158.806V43.4221H152.575ZM158.806 36.6387H159.674C163.7 36.6387 165.593 37.3486 164.804 40.1093C164.173 42.5545 162.202 43.4221 158.806 43.4221V47.2122C162.123 47.2122 164.568 46.8967 167.013 45.2363C168.669 44.132 169.857 42.4756 170.33 40.5826C171.194 37.3486 169.774 35.1361 166.067 34.6668C169.537 34.0358 171.75 32.2177 172.456 29.3781C173.087 27.2484 172.534 25.6709 171.036 24.6455C169.774 23.7778 167.644 23.695 164.804 23.695H158.806V27.2484H161.886C165.672 27.2484 167.407 27.7217 166.855 30.088C166.145 32.3754 164.095 33.0104 160.23 33.0104H158.806V36.6387Z" fill="#004A7F"/>
<path d="M180.899 30.723V33.6375C180.268 33.9569 179.716 34.5091 179.48 35.2978H174.747C175.532 33.0104 177.665 31.4289 180.899 30.723ZM180.899 44.5304C180.347 44.6881 179.716 44.767 179.085 44.767C176.956 44.767 176.009 43.8954 176.482 42.3179C176.956 40.5037 178.375 39.8727 180.899 39.636V36.8754C175.453 37.2697 172.456 38.6895 171.509 42.239C170.641 45.4729 172.696 47.6066 176.956 47.6066C178.375 47.6066 179.716 47.3699 180.899 46.8967V44.5304ZM185.478 39.6361L185.399 39.8727C184.768 42.3179 183.108 43.9782 180.899 44.5304V46.8967C182.082 46.4195 183.108 45.7924 184.054 44.9247L183.66 47.2122H188.397C188.633 46.104 188.87 44.8419 189.185 43.5799L190.999 36.9542C191.157 36.4021 191.236 35.85 191.236 35.2978V34.509C191.078 31.8233 188.791 30.4035 184.532 30.4035C183.187 30.4035 182.004 30.5613 180.899 30.723V33.6375C181.609 33.247 182.477 33.0893 183.585 33.0893C186.026 33.0893 186.977 34.1896 186.263 36.5599L186.188 36.7965H183.66C182.717 36.7965 181.767 36.8753 180.899 36.8753V39.636L185.478 39.6361Z" fill="#004A7F"/>
<path d="M192.656 47.2122H197.471L199.759 38.7684C200.548 35.7711 203.308 33.6375 206.227 33.6375C209.066 33.6375 210.096 35.2978 209.149 38.6106L206.858 47.2122H211.673L214.355 37.1909C215.459 32.9315 213.33 30.4035 208.597 30.4035C205.517 30.4035 203.072 31.5078 200.942 33.7163L201.494 30.7979H196.683C196.209 33.4008 195.894 34.9823 195.732 35.6133L192.656 47.2122Z" fill="#004A7F"/>
<path d="M215.933 47.2122H220.669L223.035 38.374L229.428 47.2122H235.975L228.715 37.8219L238.499 30.7979H232.426L223.351 37.3486L226.979 23.699H222.247L215.933 47.2122Z" fill="#004A7F"/>
</g>
<defs>
<clipPath id="clip0">
<rect width="238.893" height="48" fill="white"/>
</clipPath>
</defs>
</svg>
