<svg width="60" height="60" viewBox="0 0 60 60" fill="none" xmlns="http://www.w3.org/2000/svg">
<path d="M27.5 52.5C41.3071 52.5 52.5 41.3071 52.5 27.5C52.5 13.6929 41.3071 2.5 27.5 2.5C13.6929 2.5 2.5 13.6929 2.5 27.5C2.5 41.3071 13.6929 52.5 27.5 52.5Z" fill="#668CFF" fill-opacity="0.15"/>
<path fill-rule="evenodd" clip-rule="evenodd" d="M27.5 49.5C39.6503 49.5 49.5 39.6503 49.5 27.5C49.5 15.3497 39.6503 5.5 27.5 5.5C15.3497 5.5 5.5 15.3497 5.5 27.5C5.5 39.6503 15.3497 49.5 27.5 49.5ZM52.5 27.5C52.5 41.3071 41.3071 52.5 27.5 52.5C13.6929 52.5 2.5 41.3071 2.5 27.5C2.5 13.6929 13.6929 2.5 27.5 2.5C41.3071 2.5 52.5 13.6929 52.5 27.5Z" fill="#1A237E"/>
<path fill-rule="evenodd" clip-rule="evenodd" d="M43.9393 43.9393C44.5251 43.3536 45.4749 43.3536 46.0607 43.9393L53.5607 51.4393C54.1464 52.0251 54.1464 52.9749 53.5607 53.5607C52.9749 54.1464 52.0251 54.1464 51.4393 53.5607L43.9393 46.0607C43.3536 45.4749 43.3536 44.5251 43.9393 43.9393Z" fill="#1A237E"/>
<path fill-rule="evenodd" clip-rule="evenodd" d="M40.6709 18.6584C41.4118 19.0289 41.7122 19.9299 41.3417 20.6708L35.1616 33.0311C34.6394 34.0754 33.2105 34.2268 32.4811 33.315L25.7099 24.851L22.6102 31.0505C22.4204 31.43 22.0877 31.7186 21.6851 31.8528L15.4744 33.923C14.6885 34.185 13.839 33.7603 13.577 32.9744C13.315 32.1884 13.7398 31.339 14.5257 31.077L20.1863 29.1901L24.0052 21.5523C24.5274 20.5079 25.9562 20.3566 26.6856 21.2684L33.4568 29.7323L38.6584 19.3292C39.0289 18.5882 39.9299 18.2879 40.6709 18.6584Z" fill="#1A237E"/>
</svg>
