<?xml version="1.0" encoding="UTF-8"?>
<!DOCTYPE svg PUBLIC "-//W3C//DTD SVG 1.1//EN" "http://www.w3.org/Graphics/SVG/1.1/DTD/svg11.dtd">
<!-- Creator: CorelDRAW X8 -->
<svg xmlns="http://www.w3.org/2000/svg" xml:space="preserve" width="1.88282in" height="2in" version="1.1" style="shape-rendering:geometricPrecision; text-rendering:geometricPrecision; image-rendering:optimizeQuality; fill-rule:evenodd; clip-rule:evenodd"
viewBox="0 0 116 123"
 xmlns:xlink="http://www.w3.org/1999/xlink">
 <defs>
  <style type="text/css">
   <![CDATA[
    .fil1 {fill:#FEFEFE}
    .fil0 {fill:#1A237E}
   ]]>
  </style>
 </defs>
 <g id="Layer_x0020_1">
  <metadata id="CorelCorpID_0Corel-Layer"/>
  <g id="_2490646770704">
   <path class="fil0" d="M93 123c0,-2 0,-8 0,-11l0 -10c0,0 0,-1 0,-1l0 -1c-1,0 -1,-1 -2,-1 0,0 -1,-1 -1,-2 0,0 1,-1 1,-1l-2 -2c0,-1 -1,-1 -1,-2 -1,0 -1,1 -2,1 0,0 0,1 -1,1 -1,1 -2,1 -3,1 -1,1 -4,2 -6,2 0,0 0,0 -1,0l6 0 0 3 -69 0 0 -3c3,0 5,0 8,0l50 0c0,0 1,0 1,0 -2,0 -7,-2 -9,-3 -5,-3 -6,-6 -7,-6 -1,-1 -9,0 -11,0 -7,0 -14,0 -21,0 -4,0 -7,0 -11,0l0 -3 41 0c0,-1 0,-1 -1,-2 0,-1 0,-1 0,-2 -1,-1 -1,-4 -1,-5 0,0 0,0 0,-1l-29 0c-3,0 -7,0 -10,0l0 -2c3,-1 7,0 10,0 6,0 13,0 19,0 2,0 9,0 10,0 0,-3 1,-5 2,-8l1 -2c0,0 0,0 -1,0l-36 0c-1,0 -3,0 -5,0l0 -3 44 0c2,-1 2,-2 4,-3 1,-1 3,-2 4,-3 8,-3 16,-2 22,2 3,2 5,4 7,7l0 1c0,-1 0,-15 0,-16l0 -48 -93 0 0 123 93 0z"/>
   <path class="fil0" d="M56 60l-2 3c0,0 0,0 0,0l-1 2c-1,3 -2,5 -2,8 0,1 0,2 0,3 0,1 0,4 1,5 0,1 0,1 0,2 1,1 1,1 1,2 1,0 1,1 1,1 0,1 1,1 1,2 1,0 2,3 7,6 2,1 7,3 9,3 1,0 2,0 3,0 1,0 1,0 2,0 2,0 5,-1 6,-2 1,0 2,0 3,-1 1,0 1,-1 1,-1 1,0 1,-1 2,-1 0,1 1,1 1,2l2 2c0,0 1,-1 1,-1 0,0 0,0 0,0 1,0 1,-1 1,-1 0,0 1,-1 1,-1 0,-1 -1,-2 -1,-2 0,0 -2,-2 -2,-2l1 -2c1,0 1,-1 1,-1 0,0 1,-2 1,-2 2,-5 2,-10 1,-15 0,-1 -1,-2 -1,-3 0,0 -1,-2 -1,-2l0 -1c-2,-3 -4,-5 -7,-7 -6,-4 -14,-5 -22,-2 -1,1 -3,2 -4,3 -2,1 -2,2 -4,3z"/>
   <path class="fil0" d="M91 99c1,0 1,1 2,1l0 1c0,0 12,12 13,12 1,1 3,4 4,4 0,0 2,-2 3,-3 0,0 1,-1 1,-1 1,-1 2,-2 2,-2l-18 -18c0,0 -1,-1 -1,-1 0,0 -1,-1 -1,-1 0,0 -1,2 -2,2 0,0 -1,1 -1,1 0,0 0,1 -1,1 0,0 0,0 0,0 0,0 -1,1 -1,1 0,0 -1,1 -1,1 0,1 1,2 1,2z"/>
   <polygon class="fil1" points="12,112 81,112 81,110 12,110 "/>
   <polygon class="fil1" points="12,26 81,26 81,23 12,23 "/>
   <polygon class="fil1" points="12,38 81,38 81,36 12,36 "/>
   <path class="fil1" d="M71 97c0,0 -1,0 -1,0l-50 0c-3,0 -5,0 -8,0l0 3 69 0 0 -3 -6 0c1,0 1,0 1,0 -1,0 -1,0 -2,0 -1,0 -2,0 -3,0z"/>
   <polygon class="fil1" points="12,51 81,51 81,48 12,48 "/>
   <path class="fil1" d="M54 63c0,0 0,0 0,0l2 -3 -44 0 0 3c2,0 4,0 5,0l36 0c1,0 1,0 1,0z"/>
   <path class="fil1" d="M55 88c0,-1 -1,-1 -1,-2 0,0 0,-1 -1,-1l-41 0 0 3c4,0 7,0 11,0 7,0 14,0 21,0 2,0 10,-1 11,0z"/>
   <path class="fil1" d="M51 76c0,-1 0,-2 0,-3 -1,0 -8,0 -10,0 -6,0 -13,0 -19,0 -3,0 -7,-1 -10,0l0 2c3,0 7,0 10,0l29 0c0,1 0,1 0,1z"/>
   <polygon class="fil1" points="12,14 49,14 49,11 12,11 "/>
   <path class="fil1" d="M89 67c0,-2 -2,-4 -3,-5 -4,-3 -7,-5 -12,-5 -2,0 -5,0 -7,1 0,0 0,0 0,0 0,0 0,0 0,0 -1,0 -5,3 -5,3 -1,1 -2,2 -3,3 0,0 -2,3 -2,4 0,0 -1,2 -1,3 -2,9 3,17 11,20 6,3 13,2 17,-2 3,-2 5,-5 6,-8 0,-1 1,-4 1,-5 0,0 0,-3 0,-3 0,-2 -1,-5 -2,-6z"/>
   <path class="fil0" d="M93 91c0,-1 0,-4 0,-5 0,0 0,1 -1,1l-1 2c0,0 2,2 2,2z"/>
  </g>
 </g>
</svg>
