<?xml version="1.0" encoding="UTF-8"?>
<!DOCTYPE svg PUBLIC "-//W3C//DTD SVG 1.1//EN" "http://www.w3.org/Graphics/SVG/1.1/DTD/svg11.dtd">
<!-- Creator: CorelDRAW X8 -->
<svg xmlns="http://www.w3.org/2000/svg" xml:space="preserve" width="1.44174in" height="1.44174in" version="1.1" style="shape-rendering:geometricPrecision; text-rendering:geometricPrecision; image-rendering:optimizeQuality; fill-rule:evenodd; clip-rule:evenodd"
viewBox="0 0 350 350"
 xmlns:xlink="http://www.w3.org/1999/xlink">
 <defs>
  <style type="text/css">
   <![CDATA[
    .fil0 {fill:#4B55C2;fill-rule:nonzero}
   ]]>
  </style>
 </defs>
 <g id="Layer_x0020_1">
  <metadata id="CorelCorpID_0Corel-Layer"/>
  <g id="_2122847648080">
   <path class="fil0" d="M96 226c6,0 11,5 11,11l11 0c0,-11 -7,-19 -17,-22l0 -12 -11 0 0 11 -17 0 0 23c0,12 10,22 23,22 6,0 11,5 11,12l0 11 -11 0c-6,0 -11,-5 -11,-11l-12 0c0,10 8,19 17,21l0 12 11 0 0 -11 17 0 0 -22c0,-13 -10,-23 -22,-23 -6,0 -11,-5 -11,-11l0 -11 11 0z"/>
   <polygon class="fil0" points="135,259 147,259 147,248 135,248 "/>
   <polygon class="fil0" points="45,259 56,259 56,248 45,248 "/>
   <path class="fil0" d="M96 180c-41,0 -73,33 -73,74 0,40 32,73 73,73 40,0 73,-33 73,-73 0,-41 -33,-74 -73,-74zm0 136c-34,0 -62,-28 -62,-62 0,-34 28,-62 62,-62 34,0 62,28 62,62 0,34 -28,62 -62,62z"/>
   <path class="fil0" d="M282 207l38 -27 -38 -26 0 -154 -211 0 -71 71 0 279 282 0 0 -46 45 0 0 -11 -85 0 0 18 -40 -29 40 -29 0 18 85 0 0 -12 -45 0 0 -52zm-263 -139l49 -49 0 49 -49 0zm15 11l45 0 0 -45 169 0 0 79 -214 0 0 -34zm148 203l72 50 0 -28 17 0 0 34 -260 0 0 -259 12 0 0 45 236 0 0 -101 -180 0 0 -12 192 0 0 135 -23 -16 0 28 -68 0 0 11 79 0 0 -17 41 28 -41 29 0 -17 -79 0 0 11 68 0 0 28 23 -16 0 44 -17 0 0 -27 -72 50z"/>
   <polygon class="fil0" points="158,169 169,169 169,158 158,158 "/>
   <polygon class="fil0" points="338,304 350,304 350,293 338,293 "/>
   <polygon class="fil0" points="23,147 135,147 135,135 23,135 "/>
   <polygon class="fil0" points="23,169 135,169 135,158 23,158 "/>
   <polygon class="fil0" points="226,101 237,101 237,90 226,90 "/>
   <polygon class="fil0" points="203,101 214,101 214,90 203,90 "/>
   <polygon class="fil0" points="180,101 192,101 192,90 180,90 "/>
  </g>
 </g>
</svg>
