<svg xmlns="http://www.w3.org/2000/svg" width="45.841" height="52.958" viewBox="0 0 45.841 52.958">
  <path id="path370" d="M621.842,6810.51a12.887,12.887,0,0,0-8.55,4.585c-1.815,2.211-3.336,5.456-2.758,8.826-.517-.16-.987-.177-1.552-.379a15.7,15.7,0,0,0-5.481-1.138c-4.34,0-8.782,2.581-11.583,6.9-4.077,6.266-3.258,17.293,2.93,26.718a25.8,25.8,0,0,0,3.93,4.9,8.611,8.611,0,0,0,5.689,2.551,9.83,9.83,0,0,0,4.413-1.138,9.552,9.552,0,0,1,4.378-1h.035a8.912,8.912,0,0,1,4.309.965,9.6,9.6,0,0,0,4.378,1.172,8.628,8.628,0,0,0,5.792-2.792,29.316,29.316,0,0,0,4-5.068,38.426,38.426,0,0,0,3.379-6.309,1.086,1.086,0,0,0,.009-.875,1.1,1.1,0,0,0-.629-.608,10.032,10.032,0,0,1-6.481-8.619,9.676,9.676,0,0,1,5.136-9.584,1.1,1.1,0,0,0,.345-1.655,14.013,14.013,0,0,0-10.618-5.55,15.551,15.551,0,0,0-5.757,1.138c-.246.1-.427.086-.655.172a11.9,11.9,0,0,0,3.827-3.171,12.2,12.2,0,0,0,2.689-9.1,1.1,1.1,0,0,0-1.172-.931Zm-1.172,2.62a10.505,10.505,0,0,1-2.1,6.033,9.37,9.37,0,0,1-5.723,3.241,9.953,9.953,0,0,1,2.172-5.93A11.172,11.172,0,0,1,620.67,6813.13ZM603.5,6824.61a13.455,13.455,0,0,1,4.723,1,14.552,14.552,0,0,0,5,1.172,12.866,12.866,0,0,0,4.723-1.172,12.979,12.979,0,0,1,4.964-1,11.569,11.569,0,0,1,8.1,3.93,11.932,11.932,0,0,0-5.171,10.825,12.349,12.349,0,0,0,6.826,9.929,33.364,33.364,0,0,1-2.724,5.1,27.672,27.672,0,0,1-3.689,4.688,6.6,6.6,0,0,1-4.309,2.172,7.221,7.221,0,0,1-3.447-.966,11.526,11.526,0,0,0-5.24-1.172,12.381,12.381,0,0,0-5.274,1.172,7.5,7.5,0,0,1-3.482.966,6.431,6.431,0,0,1-4.24-1.965,24.189,24.189,0,0,1-3.585-4.482c-5.792-8.826-6.257-19.194-2.93-24.3,2.439-3.753,6.313-5.9,9.756-5.9Z" transform="translate(-589.405 -6810.507)" fill="#21276a" fill-rule="evenodd"/>
</svg>
