<svg width="60" height="60" viewBox="0 0 60 60" fill="none" xmlns="http://www.w3.org/2000/svg">
<path d="M40.4656 16.2808C40.0854 15.9678 40.0145 15.4228 40.2809 15.0087L47.0457 4.49449C47.5275 3.74564 46.8248 2.8027 45.959 3.03625L36.7186 5.52886C35.5533 5.84319 34.3118 5.72159 33.2315 5.18734L32.1954 4.67494C30.8134 3.99146 29.1866 3.99145 27.8046 4.67494L26.7685 5.18734C25.6882 5.72159 24.4467 5.84319 23.2814 5.52886L14.041 3.03624C13.1752 2.8027 12.4726 3.74564 12.9544 4.49449L19.719 15.0087C19.9855 15.4228 19.9145 15.9678 19.5344 16.2808L40.4656 16.2808Z" fill="#FFEDEF"/>
<path d="M30 57C44.7273 57 57 49.7166 57 37.335C57 26.6305 45.7242 20.6102 40.4656 16.2807C40.0854 15.9677 40.0145 15.4228 40.2809 15.0087L19.719 15.0087C19.9855 15.4228 19.9145 15.9677 19.5344 16.2807C14.2758 20.6102 3 26.6305 3 37.335C3 49.7166 15.2727 57 30 57Z" fill="#F0F5FF"/>
<path d="M30 26.0313C30.7456 26.0313 31.35 26.6357 31.35 27.3813V28.9648C32.9959 29.1463 34.2954 30.5301 34.2954 32.2368C34.2954 32.9824 33.691 33.5868 32.9454 33.5868C32.1999 33.5868 31.5954 32.9824 31.5954 32.2368C31.5954 31.9237 31.3347 31.6446 30.9818 31.6446H29.0182C28.123 31.6446 27.4227 32.3585 27.4227 33.2079C27.4227 34.0574 28.123 34.7712 29.0182 34.7712H30.9818C33.3401 34.7712 35.2773 36.6661 35.2773 39.0346C35.2773 41.2785 33.5384 43.0974 31.35 43.2824V44.8612C31.35 45.6068 30.7456 46.2112 30 46.2112C29.2544 46.2112 28.65 45.6068 28.65 44.8612V43.2979H28.0364C26.2203 43.2979 24.7227 41.8378 24.7227 40.0057C24.7227 39.2601 25.3271 38.6557 26.0727 38.6557C26.8183 38.6557 27.4227 39.2601 27.4227 40.0057C27.4227 40.3188 27.6834 40.5979 28.0364 40.5979H30.9818C31.877 40.5979 32.5773 39.884 32.5773 39.0346C32.5773 38.1851 31.877 37.4712 30.9818 37.4712H29.0182C26.6599 37.4712 24.7227 35.5764 24.7227 33.2079C24.7227 30.9639 26.4616 29.1451 28.65 28.9601V27.3813C28.65 26.6357 29.2544 26.0313 30 26.0313Z" fill="#1A237E"/>
<path fill-rule="evenodd" clip-rule="evenodd" d="M19.719 15.0087C19.9855 15.4228 19.9145 15.9678 19.5344 16.2808C18.6212 17.0326 17.5266 17.8354 16.3411 18.7048C10.6997 22.8423 3 28.4894 3 37.3351C3 49.7167 15.2727 57 30 57C44.7273 57 57 49.7167 57 37.3351C57 28.4894 49.3003 22.8423 43.6588 18.7048C42.4734 17.8354 41.3787 17.0326 40.4656 16.2808C40.0854 15.9678 40.0145 15.4228 40.2809 15.0087L47.0457 4.49449C47.5275 3.74564 46.8248 2.8027 45.959 3.03625L36.7186 5.52886C35.5533 5.84319 34.3118 5.72159 33.2315 5.18734L32.1954 4.67494C30.8134 3.99146 29.1866 3.99145 27.8046 4.67494L26.7685 5.18734C25.6882 5.72159 24.4467 5.84319 23.2814 5.52886L14.041 3.03624C13.1752 2.8027 12.4725 3.74564 12.9543 4.49449L19.719 15.0087ZM47.3254 49.337C51.5462 46.4407 54 42.3923 54 37.3351C54 33.1421 51.8189 29.6888 48.6121 26.5668C47.0159 25.0128 45.2379 23.6125 43.4735 22.2961C42.9788 21.927 42.4715 21.5549 41.9664 21.1844C40.7464 20.2895 39.5397 19.4044 38.5588 18.5968C38.0879 18.2091 37.7348 17.7431 37.4965 17.2372C31.6051 19.302 25.9761 18.451 22.4946 17.2558C22.2565 17.7545 21.9063 18.2138 21.4412 18.5968C20.4602 19.4045 19.2536 20.2895 18.0335 21.1844C17.5285 21.5549 17.0211 21.927 16.5264 22.2961C14.7621 23.6125 12.9841 25.0128 11.3879 26.5668C8.18111 29.6888 6 33.1421 6 37.3351C6 42.3923 8.45382 46.4407 12.6746 49.337C16.9697 52.2842 23.087 54 30 54C36.9131 54 43.0303 52.2842 47.3254 49.337ZM22.6031 14.094C25.5122 15.2989 31.3862 16.5226 37.4093 14.0624C37.5029 13.8281 37.6192 13.6012 37.758 13.3855L41.6737 7.29944L37.4999 8.42532C35.6303 8.92967 33.638 8.73516 31.9016 7.87646L30.8655 7.36406C30.3216 7.09508 29.6784 7.09508 29.1345 7.36406L28.0984 7.87646C26.362 8.73515 24.3697 8.92967 22.5001 8.42532L18.3263 7.29944L22.2419 13.3855C22.3869 13.6108 22.5074 13.8484 22.6031 14.094Z" fill="#1A237E"/>
</svg>
