<svg width="124" height="40" viewBox="0 0 124 40" fill="none" xmlns="http://www.w3.org/2000/svg">
<g id="MSG91">
<path id="_216653424" fill-rule="evenodd" clip-rule="evenodd" d="M0.19787 15.3744L44.209 0.0124777C44.2706 -0.00779766 44.3376 -0.00322994 44.3959 0.0252054C44.4541 0.0536407 44.4989 0.10369 44.5207 0.164664C44.5298 0.19105 44.5345 0.218768 44.5345 0.246687V39.752C44.5345 39.8177 44.5084 39.8808 44.4618 39.9273C44.4152 39.9739 44.3521 40 44.2862 40H44.2536L0.235465 37.8555C0.171859 37.8523 0.111952 37.8247 0.0681287 37.7785C0.0243049 37.7323 -8.52564e-05 37.6711 2.2393e-07 37.6075V15.6165C3.01857e-05 15.5597 0.019755 15.5046 0.0558245 15.4607C0.091894 15.4167 0.142084 15.3856 0.19787 15.3744ZM123.999 38.7637V19.3945H122.161L118.147 21.6437L118.665 23.2466L121.902 21.4115V38.7647H124L123.999 38.7637ZM113.413 29.6088C112.869 33.2504 110.832 36.6025 107.045 37.1351L105.051 37.2636V39.0424C109.936 39.2598 113.644 36.2932 115.002 31.6031C116.263 27.247 115.815 19.0526 109.659 19.0526C102.041 19.0526 101.232 31.7473 108.883 31.7493C109.741 31.7656 110.592 31.5799 111.365 31.2072C112.138 30.8345 112.813 30.2853 113.335 29.6039H113.411L113.413 29.6088ZM109.477 20.7148C112.634 20.7316 113.423 24.3712 113.413 26.9643C113.397 30.4498 105.714 32.2405 105.696 25.7439C105.69 23.4294 106.86 20.7326 109.477 20.7148ZM5.00314 19.605C4.78532 19.5633 4.55976 19.6043 4.37061 19.72C4.18146 19.8356 4.04233 20.0176 3.98045 20.2304C3.91858 20.4431 3.93841 20.6713 4.03607 20.8702C4.13373 21.069 4.30218 21.2244 4.50846 21.3058L20.5883 25.9504L20.9475 25.6539L36.9601 12.4582C37.0636 12.3892 37.1514 12.2993 37.218 12.1943C37.2846 12.0893 37.3284 11.9715 37.3466 11.8486C37.3648 11.7256 37.357 11.6002 37.3237 11.4805C37.2904 11.3607 37.2324 11.2493 37.1533 11.1533C37.0743 11.0573 36.9759 10.979 36.8647 10.9233C36.7535 10.8676 36.6318 10.8358 36.5075 10.83C36.3832 10.8242 36.2591 10.8444 36.1431 10.8895C36.0271 10.9345 35.9219 11.0033 35.8342 11.0915L20.1827 23.9937L5.00314 19.605Z" fill="#1E75BA"/>
<path id="_216652512" fill-rule="evenodd" clip-rule="evenodd" d="M101.354 28.5997H95.2424V30.3321H99.2295V36.6429C97.6604 37.5214 94.4589 37.3099 92.8215 36.6636C87.578 34.5933 87.1614 26.3248 90.5559 22.8364C92.8908 20.439 97.3112 20.0664 100.24 21.4865L100.811 19.7077C98.0067 18.6025 94.8929 18.5715 92.0676 19.6207C84.5891 22.5696 84.5585 33.528 89.8109 37.3159C92.8927 39.5404 97.9078 39.3348 101.354 37.9582V28.5997ZM83.7522 19.7057C80.8009 17.8152 73.6657 18.5179 73.6816 23.9689C73.6925 28.5058 78.6392 29.0662 80.7584 30.6375C83.8362 32.9202 82.4146 38.2626 76.5289 37.0767C75.5798 36.8959 74.6735 36.5375 73.8577 36.0203L73.2641 37.7991C76.4419 40.0355 84.5011 39.6599 84.5011 33.5063C84.5011 26.9207 75.8542 28.5918 75.8542 23.6794C75.8542 20.1119 80.8385 20.0051 83.1041 21.4786L83.7512 19.6998L83.7522 19.7057ZM69.8518 19.0564H67.1598C65.5521 23.5282 62.6939 30.8974 61.5205 35.6586H61.4423C60.0731 30.2906 57.7996 24.3217 55.9752 19.0574H53.3356L51.9624 38.7646H54.0084L54.9394 21.4055H55.0175C56.3225 26.8407 58.7424 33.3373 60.5579 38.6806H62.1408C64.1581 33.0161 66.393 27.1372 68.067 21.4055H68.1442C68.1145 25.889 68.7378 34.4895 68.9733 38.7587H71.0934L69.8518 19.0564Z" fill="#4B4B4D"/>
</g>
</svg>
