<?xml version="1.0" encoding="UTF-8"?>
<!DOCTYPE svg PUBLIC "-//W3C//DTD SVG 1.1//EN" "http://www.w3.org/Graphics/SVG/1.1/DTD/svg11.dtd">
<!-- Creator: CorelDRAW X8 -->
<svg xmlns="http://www.w3.org/2000/svg" xml:space="preserve" width="1.38322in" height="1.38317in" version="1.1" style="shape-rendering:geometricPrecision; text-rendering:geometricPrecision; image-rendering:optimizeQuality; fill-rule:evenodd; clip-rule:evenodd"
viewBox="0 0 651 651"
 xmlns:xlink="http://www.w3.org/1999/xlink">
 <defs>
  <style type="text/css">
   <![CDATA[
    .fil0 {fill:#4B55C2;fill-rule:nonzero}
   ]]>
  </style>
 </defs>
 <g id="Layer_x0020_1">
  <metadata id="CorelCorpID_0Corel-Layer"/>
  <g id="_2122847654576">
   <path class="fil0" d="M65 376c3,0 6,-1 8,-3 2,-2 4,-5 4,-8 0,-33 6,-66 19,-95 12,-30 30,-57 54,-81 2,-2 3,-5 3,-8 0,-3 -1,-6 -3,-8 -3,-3 -6,-4 -9,-4 -3,0 -6,2 -8,4 -26,25 -45,55 -59,88 -13,32 -21,67 -21,104 0,3 2,6 4,8 2,2 5,3 8,3z"/>
   <path class="fil0" d="M574 365c0,3 2,6 4,8 2,2 5,3 8,3 3,0 6,-1 8,-3 2,-2 4,-5 4,-8 0,-37 -7,-72 -21,-104 -13,-33 -33,-63 -59,-88 -2,-2 -5,-4 -8,-4 -3,0 -6,2 -8,4 -3,2 -4,5 -4,8 0,3 1,6 3,8 24,24 42,51 54,81 13,29 19,62 19,95z"/>
   <path class="fil0" d="M375 609c-16,3 -33,5 -49,5 -17,0 -34,-2 -50,-5l-1 0c-3,-1 -6,0 -8,2 -2,1 -4,4 -5,7l0 0c-1,4 0,7 2,9 1,2 4,4 7,5l0 0c9,2 18,3 27,4 9,1 18,1 28,1 9,0 18,0 27,-1 9,-1 18,-2 27,-4l0 0c3,-1 6,-3 7,-5 2,-3 3,-6 2,-9 -1,-3 -2,-6 -5,-7 -2,-2 -5,-3 -8,-2l-1 0z"/>
   <path class="fil0" d="M431 201l-13 -48c-2,-10 -7,-19 -13,-26 -6,-7 -14,-13 -22,-17l-9 -4 5 -8c3,-5 6,-10 8,-16 1,-6 2,-12 2,-18 0,-18 -7,-34 -18,-45 -12,-12 -28,-19 -45,-19 -18,0 -34,7 -46,19 -11,11 -18,27 -18,45 0,6 1,12 2,18 2,6 5,11 8,16l5 8 -8 4c-9,4 -17,10 -23,17 -6,7 -11,16 -13,26l-12 48c-1,4 -1,8 -1,11 1,4 3,7 5,10 2,3 5,6 9,7 3,2 7,3 11,3l162 0c3,0 7,-1 10,-3 4,-1 7,-4 9,-7 2,-3 4,-6 5,-10 0,-3 0,-7 0,-11zm-105 -178c11,0 21,5 28,12 7,7 12,18 12,29 0,11 -5,21 -12,28 -7,8 -17,12 -28,12 -12,0 -22,-4 -29,-12 -7,-7 -12,-17 -12,-28 0,-11 5,-22 12,-29 7,-7 17,-12 29,-12zm-81 176l10 -41c3,-9 8,-17 15,-22 7,-5 15,-9 25,-9l62 0c9,0 18,4 24,9 7,5 13,13 15,22l12 50 -165 0 2 -9z"/>
   <path class="fil0" d="M199 572c-3,-10 -7,-18 -13,-26 -7,-7 -14,-13 -23,-17l-9 -4 5 -7c4,-5 6,-11 8,-17 2,-6 2,-12 2,-18 0,-17 -7,-33 -18,-45 -12,-11 -28,-19 -45,-19 -18,0 -34,8 -45,19 -12,12 -19,28 -19,45 0,6 1,12 3,18 1,6 4,12 7,17l5 7 -8 4c-9,4 -17,10 -23,17 -6,8 -11,16 -13,26l-12 48c-1,4 -1,8 0,12 0,3 2,7 4,10 3,3 6,5 9,7 3,1 7,2 11,2l162 0c4,0 7,-1 11,-2 3,-2 6,-4 8,-7 3,-3 4,-7 5,-10 1,-4 1,-8 0,-12l-12 -48zm-93 -129c11,0 21,4 28,12 8,7 12,17 12,28 0,11 -4,21 -12,29 -7,7 -17,12 -28,12 -11,0 -22,-5 -29,-12 -7,-8 -12,-18 -12,-29 0,-11 5,-21 12,-28 7,-8 18,-12 29,-12zm-81 175l10 -40c3,-9 8,-17 15,-23 7,-5 15,-8 25,-8l62 0c9,0 18,3 25,8 7,6 12,14 14,23l12 50 -165 0 2 -10z"/>
   <path class="fil0" d="M650 620l-12 -48c-2,-10 -7,-18 -13,-26 -6,-7 -14,-13 -23,-17l-8 -4 5 -7c3,-5 6,-11 8,-17 1,-6 2,-12 2,-18 0,-17 -7,-33 -19,-45 -11,-11 -27,-19 -45,-19 -17,0 -33,8 -45,19 -11,12 -18,28 -18,45 0,6 1,12 2,18 2,6 5,12 8,17l5 7 -9 4c-8,4 -16,10 -23,17 -6,8 -10,16 -12,26l-13 48c0,4 -1,8 0,12 1,3 3,7 5,10 2,3 5,5 9,7 3,1 7,2 10,2l162 0c4,0 8,-1 11,-2 4,-2 7,-4 9,-7 2,-3 4,-7 5,-10 0,-4 0,-8 -1,-12zm-105 -177c12,0 22,4 29,12 7,7 12,17 12,28 0,11 -5,21 -12,29 -7,7 -17,12 -29,12 -11,0 -21,-5 -28,-12 -7,-8 -12,-18 -12,-29 0,-11 5,-21 12,-28 7,-8 17,-12 28,-12zm-80 175l10 -40c2,-9 8,-17 14,-23 7,-5 16,-8 25,-8l62 0c10,0 18,3 25,8 7,6 12,14 15,23l12 50 -165 0 2 -10z"/>
   <path class="fil0" d="M382 333l-87 87 -26 -26c-3,-2 -6,-4 -9,-4 -3,0 -6,2 -8,4 -2,2 -3,5 -3,8 0,3 1,6 3,8l35 35c1,1 3,2 4,3 1,0 3,1 4,1 2,0 3,-1 5,-1 1,-1 3,-2 4,-3l95 -95c2,-2 3,-5 3,-8 0,-3 -1,-6 -3,-9 -2,-2 -5,-3 -8,-3 -3,0 -6,1 -9,3z"/>
  </g>
 </g>
</svg>
