<svg width="60" height="60" viewBox="0 0 60 60" fill="none" xmlns="http://www.w3.org/2000/svg">
<path d="M9 15.25C9 11.7982 11.7982 9 15.25 9V9C18.7018 9 21.5 11.7982 21.5 15.25V21.5H15.25C11.7982 21.5 9 18.7018 9 15.25V15.25Z" fill="#668CFF" fill-opacity="0.15"/>
<path fill-rule="evenodd" clip-rule="evenodd" d="M7.5 15.25C7.5 10.9698 10.9698 7.5 15.25 7.5C19.5302 7.5 23 10.9698 23 15.25V23H15.25C10.9698 23 7.5 19.5302 7.5 15.25ZM15.25 10.5C12.6266 10.5 10.5 12.6266 10.5 15.25C10.5 17.8734 12.6266 20 15.25 20H20V15.25C20 12.6266 17.8734 10.5 15.25 10.5Z" fill="#1A237E"/>
<path d="M38.5 38.5H44.75C48.2018 38.5 51 41.2982 51 44.75V44.75C51 48.2017 48.2018 50.9999 44.75 50.9999V50.9999C41.2982 50.9999 38.5 48.2017 38.5 44.7499V38.5Z" fill="#668CFF" fill-opacity="0.15"/>
<path fill-rule="evenodd" clip-rule="evenodd" d="M37 37H44.75C49.0302 37 52.5 40.4698 52.5 44.75C52.5 49.0301 49.0302 52.4999 44.75 52.4999C40.4698 52.4999 37 49.0301 37 44.7499V37ZM40 40V44.7499C40 47.3732 42.1267 49.4999 44.75 49.4999C47.3734 49.4999 49.5 47.3733 49.5 44.75C49.5 42.1266 47.3734 40 44.75 40H40Z" fill="#1A237E"/>
<path d="M38.5 16C38.5 12.4101 41.4101 9.5 45 9.5H45.5C48.8137 9.5 51.5 12.1863 51.5 15.5V15.5C51.5 18.8137 48.8137 21.5 45.5 21.5H38.5V16Z" fill="#668CFF" fill-opacity="0.15"/>
<path fill-rule="evenodd" clip-rule="evenodd" d="M37 16C37 11.5817 40.5817 8 45 8H45.5C49.6421 8 53 11.3579 53 15.5C53 19.6421 49.6421 23 45.5 23H37V16ZM45 11C42.2386 11 40 13.2386 40 16V20H45.5C47.9853 20 50 17.9853 50 15.5C50 13.0147 47.9853 11 45.5 11H45Z" fill="#1A237E"/>
<path d="M9.03623 44.7213C9.05617 41.2696 12.0483 38.4801 15.5 38.5L21.5721 38.5437L21.536 44.7936C21.5161 48.2453 18.7017 51.0273 15.25 51.0074C11.7983 50.9874 9.01628 48.1731 9.03623 44.7213Z" fill="#668CFF" fill-opacity="0.15"/>
<path fill-rule="evenodd" clip-rule="evenodd" d="M7.53628 44.7126C7.56101 40.4325 11.0508 36.9828 15.3309 37.0075L23.0808 37.0523L23.036 44.8022C23.0113 49.0823 19.5215 52.532 15.2414 52.5073C10.9612 52.4826 7.51155 48.9928 7.53628 44.7126ZM15.3136 40.0075C12.6903 39.9923 10.5514 42.1067 10.5362 44.73C10.5211 47.3533 12.6354 49.4922 15.2587 49.5073C17.882 49.5225 20.0209 47.4082 20.0361 44.7849L20.0635 40.0349L15.3136 40.0075Z" fill="#1A237E"/>
<path d="M20 20H40V40H20V20Z" fill="white"/>
<path fill-rule="evenodd" clip-rule="evenodd" d="M37 23H23V37H37V23ZM20 20V40H40V20H20Z" fill="#1A237E"/>
</svg>
