<svg xmlns="http://www.w3.org/2000/svg" width="36.894" height="35" viewBox="0 0 36.894 35"><defs><style>.a{fill:#1a237e;}</style></defs><path class="a" d="M0,21.114a8.044,8.044,0,0,1,3.272-2.6,3.352,3.352,0,0,1,3.52.7A8.966,8.966,0,0,1,9.006,22.5c.409.933.756,1.894,1.129,2.845.053.142.116.293.2.516C16.98,15.451,25.159,6.641,35.622,0c.453.489.845.916,1.271,1.378-.711.578-1.4,1.111-2.062,1.671A73.819,73.819,0,0,0,22.456,16.358,132.113,132.113,0,0,0,13.486,30.8a2.377,2.377,0,0,1-.649.685c-1.476,1.076-2.96,2.125-4.436,3.183-.142.1-.276.2-.445.329C6.5,29.657,4.321,24.794,0,21.114Z"/></svg>