<svg width="60" height="60" viewBox="0 0 60 60" fill="none" xmlns="http://www.w3.org/2000/svg">
<path d="M48 51V33C48 29.6863 45.3137 27 42 27H9C5.68629 27 3 29.6863 3 33V51C3 54.3137 5.68629 57 9 57H42C45.3137 57 48 54.3137 48 51Z" fill="#F0F5FF"/>
<path fill-rule="evenodd" clip-rule="evenodd" d="M9 28.5C6.51472 28.5 4.5 30.5147 4.5 33V51C4.5 53.4853 6.51472 55.5 9 55.5H42C44.4853 55.5 46.5 53.4853 46.5 51V33C46.5 30.5147 44.4853 28.5 42 28.5H9ZM1.5 33C1.5 28.8579 4.85786 25.5 9 25.5H42C46.1421 25.5 49.5 28.8579 49.5 33V51C49.5 55.1421 46.1421 58.5 42 58.5H9C4.85786 58.5 1.5 55.1421 1.5 51V33Z" fill="#1A237E"/>
<path d="M29 14L26.9487 13.3162C25.0061 12.6687 23 14.1146 23 16.1623V31.0968C23 39.6037 29.8963 46.5 38.4032 46.5C46.7008 46.5 53.6594 40.2355 54.5281 31.9834L55.7831 20.0603C55.9075 18.8786 55.1429 17.7857 53.9902 17.4975C52.846 17.2115 51.6646 17.805 51.211 18.8936L48.9231 24.3846C48.5027 25.3936 47 25.0931 47 24V10.1623C47 8.1146 44.9939 6.6687 43.0513 7.31623L41 8V6C41 4.34315 39.6569 3 38 3C36.3431 3 35 4.34315 35 6V8L32.9487 7.31623C31.0061 6.6687 29 8.1146 29 10.1623V14Z" fill="#FFEDEF"/>
<path fill-rule="evenodd" clip-rule="evenodd" d="M33.5007 5.9191C33.5439 3.47114 35.5417 1.5 38 1.5C40.4583 1.5 42.4561 3.47114 42.4993 5.9191L42.577 5.8932C45.4909 4.92191 48.5 7.09077 48.5 10.1623V21.5L49.8264 18.3167C50.5654 16.5431 52.49 15.5763 54.354 16.0423C56.2319 16.5118 57.4775 18.2923 57.2749 20.2173L56.0198 32.1405C55.0708 41.1559 47.4685 48 38.4032 48C29.0678 48 21.5 40.4322 21.5 31.0968V16.1623C21.5 13.0908 24.5091 10.9219 27.423 11.8932L27.5 11.9189V10.1623C27.5 7.09077 30.5091 4.92191 33.423 5.8932L33.5007 5.9191ZM33.5 9.08114L32.4743 8.73925C31.503 8.41549 30.5 9.13844 30.5 10.1623V24C30.5 24.8284 29.8284 25.5 29 25.5C28.1716 25.5 27.5 24.8284 27.5 24V15.0811L26.4743 14.7393C25.503 14.4155 24.5 15.1384 24.5 16.1623V31.0968C24.5 38.7753 30.7247 45 38.4032 45C45.9332 45 52.248 39.315 53.0363 31.8264L54.2914 19.9033C54.3375 19.465 54.0539 19.0596 53.6264 18.9528C53.202 18.8467 52.7638 19.0668 52.5956 19.4706L50.3077 24.9615C49.2567 27.484 45.5 26.7327 45.5 24V10.1623C45.5 9.13844 44.497 8.41549 43.5257 8.73925L42.5 9.08114V24C42.5 24.8284 41.8284 25.5 41 25.5C40.1716 25.5 39.5 24.8284 39.5 24V6C39.5 5.17157 38.8284 4.5 38 4.5C37.1716 4.5 36.5 5.17157 36.5 6V24C36.5 24.8284 35.8284 25.5 35 25.5C34.1716 25.5 33.5 24.8284 33.5 24V9.08114Z" fill="#1A237E"/>
<path fill-rule="evenodd" clip-rule="evenodd" d="M15 31.65C15.7456 31.65 16.35 32.2544 16.35 33V34.6681C18.0357 34.8431 19.35 36.2681 19.35 38C19.35 38.7456 18.7456 39.35 18 39.35C17.2544 39.35 16.65 38.7456 16.65 38C16.65 37.641 16.359 37.35 16 37.35H14C13.0888 37.35 12.35 38.0888 12.35 39C12.35 39.9113 13.0888 40.65 14 40.65H16C18.4025 40.65 20.35 42.5976 20.35 45C20.35 47.2846 18.5888 49.1579 16.35 49.3361V51C16.35 51.7456 15.7456 52.35 15 52.35C14.2544 52.35 13.65 51.7456 13.65 51V49.35H13C11.1499 49.35 9.65002 47.8502 9.65002 46C9.65002 45.2544 10.2544 44.65 11 44.65C11.7456 44.65 12.35 45.2544 12.35 46C12.35 46.359 12.641 46.65 13 46.65H16C16.9113 46.65 17.65 45.9113 17.65 45C17.65 44.0888 16.9113 43.35 16 43.35H14C11.5976 43.35 9.65002 41.4025 9.65002 39C9.65002 36.7154 11.4112 34.8421 13.65 34.6639V33C13.65 32.2544 14.2544 31.65 15 31.65Z" fill="#1A237E"/>
</svg>
