<svg width="60" height="60" viewBox="0 0 60 60" fill="none" xmlns="http://www.w3.org/2000/svg">
<rect x="11" y="19" width="38" height="29" fill="#F0F5FF"/>
<path d="M6 48H54V54H6V48Z" fill="#FFEDEF"/>
<path d="M30 6.5L49 18H11L30 6.5Z" fill="#FFEDEF"/>
<path fill-rule="evenodd" clip-rule="evenodd" d="M31.029 3.61738C30.3956 3.23736 29.6044 3.23736 28.971 3.61738L6.19163 17.285C4.45225 18.3286 5.19218 21 7.22062 21H52.7794C54.8078 21 55.5477 18.3286 53.8083 17.285L31.029 3.61738ZM30 6.49856L10.8309 18H49.169L30 6.49856Z" fill="#1A237E"/>
<path d="M11 24.5C11.8284 24.5 12.5 25.1716 12.5 26L12.5 42C12.5 42.8284 11.8284 43.5 11 43.5C10.1716 43.5 9.5 42.8284 9.5 42L9.5 26C9.5 25.1716 10.1716 24.5 11 24.5Z" fill="#1A237E"/>
<path d="M6 46.5C5.17157 46.5 4.5 47.1716 4.5 48C4.5 48.8284 5.17157 49.5 6 49.5L54 49.5C54.8284 49.5 55.5 48.8284 55.5 48C55.5 47.1716 54.8284 46.5 54 46.5L6 46.5Z" fill="#1A237E"/>
<path d="M1.5 54C1.5 53.1716 2.17157 52.5 3 52.5H57C57.8284 52.5 58.5 53.1716 58.5 54C58.5 54.8284 57.8284 55.5 57 55.5H3C2.17157 55.5 1.5 54.8284 1.5 54Z" fill="#1A237E"/>
<path d="M50.5 26C50.5 25.1716 49.8284 24.5 49 24.5C48.1716 24.5 47.5 25.1716 47.5 26V42C47.5 42.8284 48.1716 43.5 49 43.5C49.8284 43.5 50.5 42.8284 50.5 42V26Z" fill="#1A237E"/>
<path fill-rule="evenodd" clip-rule="evenodd" d="M26.3333 34.9167C23.802 34.9167 21.75 36.9687 21.75 39.5C21.75 42.0313 23.802 44.0834 26.3333 44.0834H33.6667C36.198 44.0834 38.25 42.0313 38.25 39.5C38.25 36.9687 36.198 34.9167 33.6667 34.9167H26.3333ZM33.6667 37.9167H26.3333C25.4589 37.9167 24.75 38.6256 24.75 39.5C24.75 40.3745 25.4589 41.0834 26.3333 41.0834H33.6667C34.5411 41.0834 35.25 40.3745 35.25 39.5C35.25 38.6256 34.5411 37.9167 33.6667 37.9167Z" fill="#1A237E"/>
<path fill-rule="evenodd" clip-rule="evenodd" d="M25.4167 28.5C25.4167 25.9687 27.4687 23.9167 30 23.9167C32.5313 23.9167 34.5834 25.9687 34.5834 28.5V29.4167C34.5834 31.948 32.5313 34 30 34C27.4687 34 25.4167 31.948 25.4167 29.4167V28.5ZM31.5834 28.5V29.4167C31.5834 30.2911 30.8745 31 30 31C29.1256 31 28.4167 30.2911 28.4167 29.4167V28.5C28.4167 27.6256 29.1256 26.9167 30 26.9167C30.8745 26.9167 31.5834 27.6256 31.5834 28.5Z" fill="#1A237E"/>
</svg>
