<?xml version="1.0" encoding="UTF-8"?>
<!DOCTYPE svg PUBLIC "-//W3C//DTD SVG 1.1//EN" "http://www.w3.org/Graphics/SVG/1.1/DTD/svg11.dtd">
<!-- Creator: CorelDRAW X8 -->
<svg xmlns="http://www.w3.org/2000/svg" xml:space="preserve" width="0.881705in" height="2.41735in" version="1.1" style="shape-rendering:geometricPrecision; text-rendering:geometricPrecision; image-rendering:optimizeQuality; fill-rule:evenodd; clip-rule:evenodd"
viewBox="0 0 47 129"
 xmlns:xlink="http://www.w3.org/1999/xlink">
 <defs>
  <style type="text/css">
   <![CDATA[
    .fil0 {fill:#35376F;fill-rule:nonzero}
   ]]>
  </style>
 </defs>
 <g id="Layer_x0020_1">
  <metadata id="CorelCorpID_0Corel-Layer"/>
  <path class="fil0" d="M42 38c-2,5 -4,10 -7,14 -3,5 -7,8 -10,12 -1,0 -2,1 -3,1 -3,-4 -7,-8 -10,-12 -4,-5 -6,-11 -8,-17 -2,-10 -1,-21 7,-28 8,-7 19,-7 27,0 7,8 8,20 4,30zm-20 34c0,0 -1,0 -2,0 0,0 0,0 -1,0 0,0 0,0 0,0 1,-3 2,-3 4,-6 0,0 1,0 1,0 0,0 0,0 0,0 0,1 0,2 1,2 0,1 0,2 0,2 0,1 1,2 1,2 -1,0 -3,0 -4,0zm14 -69c-9,-6 -21,-3 -28,5 -8,8 -10,20 -6,31 1,5 4,11 8,16 3,4 6,8 10,11 -2,1 -3,4 -4,5 -1,3 3,3 5,4 0,0 1,0 1,0 0,1 0,3 0,3 0,1 0,2 0,4 0,2 1,5 1,7 1,3 0,6 -1,8 -1,3 -2,5 -3,7 -3,4 -4,9 -3,13 0,4 1,10 4,12 1,1 1,0 1,0 0,-2 -1,-3 -1,-4 -1,-2 -1,-3 -2,-4 0,-3 0,-6 0,-9 0,-2 1,-5 3,-8 1,-2 2,-5 3,-7 3,-6 1,-11 -1,-16 0,-2 0,-4 0,-5 0,-1 0,-1 0,-1 1,0 2,0 3,0 1,0 2,-1 2,-2 0,-1 -1,-3 -1,-5 0,-1 0,-2 -1,-3 5,-3 9,-8 13,-13 3,-6 6,-13 8,-19 0,-3 0,-5 0,-7 0,-9 -3,-18 -11,-23z"/>
 </g>
</svg>
