<svg width="60" height="60" viewBox="0 0 60 60" fill="none" xmlns="http://www.w3.org/2000/svg">
<path d="M30.2946 57.3887C33.0735 56.2972 54.5833 46.9297 54.994 18.3329C55.0009 17.8562 54.6695 17.4304 54.2089 17.3076C51.3237 16.538 41.0386 13.2037 31.5519 2.83274C31.3606 2.62357 31.0881 2.5 30.8046 2.5H29.1954C28.9119 2.5 28.6394 2.62357 28.4481 2.83274C18.9601 13.2051 8.6735 16.5389 5.78997 17.3079C5.32991 17.4306 4.99879 17.857 5.00434 18.3331C5.3541 48.3442 26.8975 56.474 29.7005 57.4052C29.897 57.4705 30.1019 57.4644 30.2946 57.3887Z" fill="white"/>
<path fill-rule="evenodd" clip-rule="evenodd" d="M28.4481 2.83274C28.6394 2.62357 28.9119 2.5 29.1954 2.5H30.8046C31.0881 2.5 31.3606 2.62357 31.5519 2.83274C41.0386 13.2037 51.3237 16.538 54.2089 17.3076C54.6695 17.4304 55.0009 17.8562 54.994 18.3329C54.5833 46.9297 33.0735 56.2972 30.2946 57.3887C30.1019 57.4644 29.897 57.4705 29.7005 57.4052C26.8975 56.474 5.3541 48.3442 5.00434 18.3331C4.99879 17.857 5.32991 17.4306 5.78997 17.3079C8.6735 16.5389 18.9601 13.2051 28.4481 2.83274ZM29.9176 54.2952C27.9414 53.5344 23.1574 51.352 18.5755 46.6748C13.5007 41.4943 8.53071 33.1157 8.03971 19.7724C12.2744 18.4221 21.3893 14.6733 30 5.56898C38.6053 14.6677 47.7144 18.4174 51.9525 19.7699C50.9437 43.5683 34.1461 52.4332 29.9176 54.2952Z" fill="#1A237E"/>
<path d="M29.9999 20L32.2451 26.9098H39.5105L33.6327 31.1803L35.8778 38.0902L29.9999 33.8197L24.1221 38.0902L26.3672 31.1803L20.4894 26.9098H27.7548L29.9999 20Z" fill="#668CFF" fill-opacity="0.15"/>
<path fill-rule="evenodd" clip-rule="evenodd" d="M30 18.75C30.5416 18.75 31.0215 19.0987 31.1889 19.6137L33.1533 25.6598H39.5106C40.0521 25.6598 40.5321 26.0085 40.6994 26.5236C40.8668 27.0386 40.6834 27.6028 40.2453 27.9211L35.1022 31.6578L37.0667 37.7039C37.234 38.2189 37.0507 38.7831 36.6126 39.1014C36.1745 39.4197 35.5813 39.4197 35.1432 39.1014L30 35.3647L24.8569 39.1014C24.4188 39.4197 23.8256 39.4197 23.3874 39.1014C22.9493 38.7831 22.766 38.2189 22.9334 37.7039L24.8979 31.6578L19.7547 27.9211C19.3166 27.6028 19.1333 27.0386 19.3006 26.5236C19.468 26.0085 19.9479 25.6598 20.4895 25.6598H26.8467L28.8112 19.6137C28.9786 19.0987 29.4585 18.75 30 18.75ZM30 24.0451L28.9437 27.2961C28.7764 27.8111 28.2964 28.1598 27.7549 28.1598H24.3366L27.102 30.1691C27.5402 30.4874 27.7235 31.0516 27.5561 31.5666L26.4998 34.8176L29.2653 32.8084C29.7034 32.4901 30.2967 32.4901 30.7348 32.8084L33.5002 34.8176L32.4439 31.5666C32.2766 31.0516 32.4599 30.4874 32.898 30.1691L35.6635 28.1598H32.2452C31.7036 28.1598 31.2237 27.8111 31.0563 27.2961L30 24.0451Z" fill="#1A237E"/>
</svg>
