<svg width="60" height="60" viewBox="0 0 60 60" fill="none" xmlns="http://www.w3.org/2000/svg">
<path fill-rule="evenodd" clip-rule="evenodd" d="M6 27.5C6 14.2452 16.7452 3.5 30 3.5C43.2548 3.5 54 14.2452 54 27.5V37.2424C54 39.5006 52.7241 41.565 50.7043 42.5749L50.3496 42.7522C46.0541 44.9 41 41.7764 41 36.9739V33.2877C41 27.9364 46.9207 25.1371 51 27.8063V27.5C51 15.902 41.598 6.5 30 6.5C18.402 6.5 9 15.902 9 27.5V27.8063C13.0793 25.1371 19 27.9364 19 33.2877V36.9739C19 41.7764 13.9459 44.9 9.65039 42.7522L9.29565 42.5749C7.27586 41.565 6 39.5006 6 37.2424V27.5ZM9 31.4791V37.2424C9 38.3643 9.63385 39.3899 10.6373 39.8916L10.992 40.069C13.2929 41.2194 16 39.5463 16 36.9739V33.2877C16 30.0627 12.0025 28.5607 9.87886 30.9878C9.64193 31.2585 9.32914 31.4236 9 31.4791ZM51 31.4791C50.6709 31.4236 50.3581 31.2585 50.1211 30.9878C47.9975 28.5607 44 30.0627 44 33.2877V36.9739C44 39.5463 46.7071 41.2194 49.008 40.069L49.3627 39.8916C50.3661 39.3899 51 38.3643 51 37.2424V31.4791Z" fill="#1A237E"/>
<path fill-rule="evenodd" clip-rule="evenodd" d="M52.5 31C53.3284 31 54 31.6716 54 32.5V40C54 49.1127 46.6127 56.5 37.5 56.5H31.25C29.0409 56.5 27.25 54.7091 27.25 52.5V51.25C27.25 49.7312 28.4812 48.5 30 48.5C31.5188 48.5 32.75 49.7312 32.75 51.25V52.5C32.75 52.8842 32.6056 53.2346 32.3681 53.5H37.5C44.9558 53.5 51 47.4558 51 40V32.5C51 31.6716 51.6716 31 52.5 31Z" fill="#1A237E"/>
</svg>
