<svg width="74" height="36" viewBox="0 0 74 36" fill="none" xmlns="http://www.w3.org/2000/svg">
<path d="M4.99643 3.95889C5.36643 4.32888 6.03241 5.25386 6.9204 4.84687C7.84539 4.40288 12.6183 3.95889 14.1723 3.7369C15.7263 3.55191 17.0582 3.7739 17.0582 3.7739C17.0582 3.7739 12.9513 9.43475 12.3223 10.3597C11.6193 11.2477 8.10438 16.3166 7.43839 17.3525C6.7724 18.4255 5.10743 21.2374 4.33044 22.6434C3.62745 24.0494 4.81143 23.9384 4.81143 23.9384C4.81143 23.9384 7.62339 24.0124 8.25238 24.0124C8.84437 23.9754 8.95537 23.5684 9.02937 23.3834C9.17737 23.1614 9.32536 22.5694 9.88036 21.6814C10.3613 20.7934 11.5823 18.7585 12.9143 16.5386C14.2463 14.3556 15.8003 12.1727 16.9472 10.5447C18.1682 8.87976 19.5372 6.95581 19.8702 6.51183C20.1662 6.06784 21.5352 4.25489 21.8312 3.8479C22.1272 3.40391 22.2382 3.44091 22.7192 3.40391C22.8672 3.40391 23.2741 3.40391 23.7551 3.44091C25.0131 3.47791 27.0111 3.6629 27.9731 3.7369C29.3791 3.8849 31.414 3.9219 32.672 4.03289C33.93 4.18089 33.56 3.44091 33.56 3.44091C33.56 3.44091 33.634 2.58993 33.301 1.70195C32.894 0.776979 32.598 0.887977 32.598 0.887977C31.155 0.443988 26.5301 0.110997 23.7551 0.0369992C23.0522 1.40589e-07 22.4602 0 22.0902 0H21.4982C18.9452 0.036999 12.6553 0.406989 11.2863 0.554985C9.80636 0.702981 4.99643 1.62796 4.10844 1.77595C3.25746 1.99795 3.73845 2.55293 3.73845 2.55293C3.73845 2.55293 4.58944 3.55191 4.99643 3.95889Z" fill="#3069B3"/>
<path d="M72.6299 31.5232C72.3339 31.3752 68.4489 30.0063 67.339 29.6733C66.155 29.3773 61.2711 28.3413 60.6421 28.2673C60.0131 28.1933 61.5301 26.7134 62.122 25.9364C62.714 25.2704 65.97 21.7185 67.117 20.6825C68.1899 19.6096 71.0019 17.0196 71.8529 16.2056C72.6669 15.3917 71.4089 15.0217 71.4089 15.0217C71.4089 15.0217 71.0019 14.7997 69.3739 14.4297C67.709 14.0227 67.339 14.9107 67.339 14.9107C67.339 14.9107 65.045 17.0566 63.676 18.3516C62.27 19.6466 60.6421 20.7195 59.4951 21.3485C58.4221 21.9775 57.3121 22.4215 56.8311 22.1255C56.3871 21.8665 56.8311 21.2005 57.1271 20.6085C57.4231 19.9795 59.1991 18.0186 59.6431 17.4636C60.0871 16.9086 62.122 14.7257 62.973 13.8747C63.787 12.9867 62.344 12.6537 61.6411 12.4688C60.9751 12.3208 60.5311 12.2098 59.7911 12.2098C59.1251 12.2098 58.8661 12.6907 58.8661 12.6907C58.8661 12.6907 57.6451 13.9487 57.3121 14.3927C57.0161 14.8367 53.6862 18.4996 52.6502 19.6096C51.5772 20.7195 50.1342 21.7925 49.7272 21.9405C49.2832 22.0885 48.4323 22.3105 47.6923 21.3855C46.9523 20.4605 47.5443 19.9056 48.5063 18.5736C49.5052 17.2786 52.0212 14.3557 53.2422 12.9127C54.5002 11.5068 59.1621 7.65888 60.0871 6.99289C60.9751 6.32691 60.4571 6.10492 60.4571 6.10492C60.4571 6.10492 59.6431 5.54993 59.1621 5.40194C58.7181 5.17994 57.9411 5.03195 57.1271 5.03195C56.3501 5.03195 56.0541 5.47594 56.0541 5.47594C56.0541 5.47594 53.4642 7.62188 52.9462 8.13986C52.4652 8.58385 46.8043 14.1337 45.7683 15.2067C44.7323 16.2796 41.7724 18.9436 40.7734 19.7946C39.7374 20.6455 38.8124 21.0525 38.2574 20.6825C37.7024 20.3125 37.8874 19.6836 38.2574 19.1656C38.5534 18.6106 40.8104 15.8357 41.6244 14.9107C42.4383 13.9857 44.8803 11.3958 45.7313 10.5078C46.5823 9.61982 49.9862 6.6599 50.9482 5.80893C51.9842 4.99495 50.7262 4.47696 50.7262 4.47696C50.7262 4.47696 50.0232 4.03297 48.8022 3.81098C47.5813 3.55199 47.3593 3.84798 46.6933 4.29197C45.9903 4.73595 41.4764 9.43483 41.0324 9.95282C40.5884 10.3968 35.1125 15.9097 34.2985 16.7976C33.4475 17.6116 30.6725 20.1275 30.0805 20.4605C29.5995 20.8675 27.9716 21.9775 27.5646 21.2745C27.0836 20.6085 28.0456 19.9795 28.0456 19.9795C28.0456 19.9795 30.4505 17.6486 31.3015 16.6496C32.1525 15.6507 31.6715 14.2447 31.5235 13.8747C31.3385 13.4677 30.6725 12.3948 29.4885 11.3958C28.2676 10.3968 27.0836 10.3598 26.2326 10.3598C25.5296 10.3968 24.4936 11.0258 23.6796 11.4328C23.5316 11.4698 23.4206 11.5808 23.2726 11.6178C22.5697 12.1358 20.1647 13.9857 20.1647 13.9857C20.1647 13.9857 18.2407 15.7247 17.0567 16.9086C15.9838 18.0926 15.0958 19.0546 16.2797 21.4225C17.5007 23.7904 19.7207 24.3454 20.6827 24.4564C21.5337 24.6044 22.7176 23.6425 23.0876 23.2725C23.3836 22.9765 23.5316 23.0135 23.7536 23.4205C23.7906 23.4575 23.8276 23.5685 23.9016 23.6425C24.1976 24.2344 25.2336 24.6414 26.1956 24.8264C27.0836 24.9744 27.4906 24.7524 29.1186 24.2714C30.7465 23.7904 33.7435 21.9405 34.2615 21.5335C34.8535 21.0895 34.8905 21.7555 35.3715 22.6435C35.8525 23.5315 37.0734 23.8644 38.1094 23.9754C39.1824 24.0494 39.6634 23.7904 40.4034 23.4945C41.0694 23.1985 42.9193 22.2735 43.5113 21.8665C44.0663 21.4965 44.1403 21.4595 44.3623 22.0515C44.5843 22.6065 44.6213 23.0875 46.2863 24.1974C47.9143 25.3814 50.6892 24.6784 51.2812 24.4934C51.9472 24.2714 53.1312 23.6425 53.4272 23.4575C53.7232 23.2725 53.9822 23.7535 54.6482 24.4564C55.2771 25.0854 56.5351 25.0484 57.3491 24.5304C58.1631 23.9754 57.7561 24.5674 57.7561 24.5674C57.7561 24.5674 56.5351 26.2694 56.1281 26.7134C55.7581 27.1574 55.7211 27.4903 55.3141 27.3794C54.9442 27.3054 53.6492 27.1944 51.6882 27.0834C49.7272 26.9354 45.1393 26.7134 41.8094 26.6764C38.4794 26.6394 29.6735 27.1204 26.3806 27.3054C25.6776 27.3424 24.7526 27.4534 23.7166 27.5273C19.9427 27.9343 14.7628 28.7483 12.7648 29.0073C10.2488 29.4143 2.25696 31.0793 0.628989 31.5972C0.221995 31.7452 0.0369994 31.8562 0 32.0412V32.1152C0.0739989 32.5592 1.25798 33.0402 2.10897 33.4472C3.32995 34.0392 4.51393 33.7062 4.51393 33.7062C4.51393 33.7062 6.91889 33.2622 8.17687 33.0402C9.39785 32.7812 18.3887 31.4122 20.6457 31.0053C21.2747 30.9313 22.3477 30.7833 23.6796 30.5983C27.1206 30.1913 32.0045 29.7473 33.6695 29.5993C36.0004 29.4513 42.4753 29.4513 44.2883 29.4143C46.1013 29.3773 52.3542 29.7103 52.6872 29.7843C52.9832 29.8583 53.9822 29.7473 53.3532 30.2653C52.7612 30.8943 51.3182 33.8542 50.9482 34.5202C50.5782 35.2231 50.7262 35.1861 51.3922 35.5561C52.0212 35.9261 53.6862 36.0001 54.0932 36.0001C54.4632 36.0001 54.5742 35.5561 54.5742 35.5561C54.5742 35.5561 56.6091 32.4482 57.2751 31.4492C57.9411 30.3763 58.3481 30.6353 58.3481 30.6353C58.3481 30.6353 61.5301 31.2273 62.936 31.4862C64.342 31.7452 69.5219 33.1142 70.6319 33.5952C71.7419 34.0762 72.2599 34.0392 72.5559 33.9652C72.8519 33.8172 73.5549 32.2632 73.5549 32.2632V32.0042C73.5179 31.8932 72.8519 31.7082 72.6299 31.5232ZM24.9006 18.9066C24.6416 19.1286 24.1976 19.3876 23.7166 19.7206C22.5327 20.5345 21.1267 21.4595 20.6827 21.6075C20.0537 21.7925 19.6467 22.0145 19.2767 21.4595C18.8697 20.9045 20.0537 19.8316 20.0537 19.8316C20.0537 19.8316 22.1997 17.9076 23.0136 17.1676C23.1986 17.0196 23.4576 16.7976 23.7166 16.6126C24.7896 15.7617 26.2696 14.5777 26.6766 14.3557C27.1576 14.0967 27.5646 13.8747 28.0086 14.3187C28.4526 14.7627 28.0826 15.2067 27.9346 15.4287C27.8606 15.6877 25.8626 18.2036 24.9006 18.9066Z" fill="#3069B3"/>
</svg>
