<svg width="28" height="28" viewBox="0 0 28 28" fill="none" xmlns="http://www.w3.org/2000/svg">
<path d="M14 0.666748C6.63999 0.666748 0.666656 6.64008 0.666656 14.0001C0.666656 21.3601 6.63999 27.3334 14 27.3334C21.36 27.3334 27.3333 21.3601 27.3333 14.0001C27.3333 6.64008 21.36 0.666748 14 0.666748ZM14 24.6667C8.11999 24.6667 3.33332 19.8801 3.33332 14.0001C3.33332 8.12008 8.11999 3.33341 14 3.33341C19.88 3.33341 24.6667 8.12008 24.6667 14.0001C24.6667 19.8801 19.88 24.6667 14 24.6667ZM20.12 8.10675L11.3333 16.8934L7.87999 13.4534L5.99999 15.3334L11.3333 20.6667L22 10.0001L20.12 8.10675Z" fill="#50DA00"/>
</svg>
