<svg width="120" height="28" viewBox="0 0 120 28" fill="none" xmlns="http://www.w3.org/2000/svg">
<path d="M9.81237 0.628906L1.69087 0.64227C1.42018 0.64252 1.1535 0.707278 0.913202 0.831108C0.672909 0.954939 0.466016 1.13423 0.309886 1.35393C0.153757 1.57364 0.0529456 1.82735 0.0159131 2.09376C-0.0211195 2.36018 0.00670711 2.63154 0.0970575 2.88507L4.48172 10.3974C4.72047 10.6935 5.02309 10.9324 5.36724 11.0966C5.71139 11.2608 6.08828 11.3461 6.47007 11.3462H10.1733C10.4766 11.3457 10.7747 11.4244 11.0377 11.5746C11.3007 11.7248 11.5193 11.9411 11.6715 12.2018C11.8237 12.4625 11.9041 12.7584 11.9048 13.0597C11.9054 13.3611 11.8263 13.6573 11.6752 13.9187L9.82133 17.0969C9.63079 17.4256 9.51751 17.7929 9.48995 18.1712C9.46239 18.5496 9.52126 18.9292 9.66218 19.2818L14.0558 26.8142C14.2322 27.019 14.4555 27.1786 14.707 27.2797C14.9584 27.3808 15.2307 27.4203 15.5008 27.395C15.7708 27.3697 16.0308 27.2802 16.2588 27.1342C16.4868 26.9881 16.6761 26.7898 16.8108 26.5558L20.8458 19.5602L9.81237 0.628906Z" fill="#ED1A3B"/>
<path d="M26.3514 10.0681L20.8347 0.611328L9.8125 0.629146L20.8549 19.5604L26.3514 10.0681Z" fill="#F79F1F"/>
<path d="M28.9022 0.597695L20.8457 0.611058L26.3624 10.0678L30.3839 3.1189C30.5322 2.86202 30.6096 2.57084 30.6084 2.27474C30.6072 1.97864 30.5275 1.68809 30.3772 1.43238C30.2269 1.17668 30.0114 0.964877 29.7525 0.81833C29.4935 0.671784 29.2002 0.59568 28.9022 0.597695Z" fill="#FFC312"/>
<path d="M51.0586 4.56192C51.0554 4.68732 51.0224 4.8102 50.9622 4.9205L42.9461 20.9943C42.9159 21.1 42.8532 21.1938 42.7668 21.2625C42.6804 21.3311 42.5746 21.3713 42.4641 21.3773C42.287 21.3773 42.1279 21.2504 41.9822 20.9943L34.0153 4.9205C33.9552 4.8102 33.9222 4.68732 33.9189 4.56192C33.9189 4.24342 34.1274 4.08307 34.5444 4.08307H37.1671C37.3486 4.06944 37.5298 4.11258 37.6854 4.20644C37.841 4.3003 37.9631 4.44018 38.0346 4.60646L42.4641 13.738L46.9183 4.60646C46.9888 4.43914 47.1106 4.29812 47.2663 4.20338C47.422 4.10865 47.6037 4.06499 47.7858 4.07861H50.4354C50.8501 4.08307 51.0586 4.24342 51.0586 4.56192Z" fill="#ED1A3B"/>
<path d="M56.8625 26.4735H54.3966C53.9797 26.4735 53.7712 26.3043 53.7712 25.9702C53.7755 25.8556 53.7998 25.7425 53.8429 25.6361L55.7708 21.0659L50.4827 9.28395C50.4367 9.16985 50.4124 9.04827 50.411 8.92537C50.4083 8.85935 50.4211 8.79362 50.4484 8.73334C50.4756 8.67306 50.5165 8.61986 50.5679 8.57793C50.6967 8.48227 50.8558 8.43565 51.0162 8.44652H53.6659C53.8409 8.438 54.014 8.48615 54.1591 8.58375C54.3042 8.68135 54.4135 8.82311 54.4706 8.98773L57.6089 16.8097L60.4737 9.01446C60.5247 8.83605 60.6369 8.68096 60.7908 8.57602C60.9447 8.47109 61.1307 8.42292 61.3166 8.43984H63.9393C64.112 8.42822 64.2831 8.47883 64.4213 8.58238C64.4765 8.62956 64.5203 8.68851 64.5494 8.75484C64.5785 8.82116 64.5922 8.89316 64.5894 8.96546C64.5843 9.07281 64.5601 9.1784 64.5177 9.27727L57.6807 25.9257C57.6242 26.0938 57.5133 26.2387 57.3653 26.3378C57.2173 26.4369 57.0405 26.4846 56.8625 26.4735Z" fill="#ED1A3B"/>
<path d="M75.4478 21.3529C75.3812 21.2831 75.3298 21.2004 75.2966 21.11C75.2635 21.0196 75.2493 20.9234 75.255 20.8273V20.2304C74.9352 20.6595 74.3972 21.0307 73.6411 21.344C72.8796 21.6646 72.0604 21.8275 71.2335 21.8229C69.9946 21.853 68.7711 21.5448 67.6962 20.932C66.6937 20.3448 65.8894 19.4751 65.3851 18.4331C64.8447 17.3569 64.5719 16.1678 64.5893 14.9653C64.5705 13.7535 64.8474 12.5553 65.3963 11.473C65.9175 10.4561 66.714 9.60377 67.6962 9.01197C68.7665 8.38626 69.9921 8.07143 71.2335 8.10327C72.0509 8.08773 72.8627 8.23935 73.6186 8.54871C74.2578 8.8022 74.8212 9.21392 75.255 9.74472V9.09883C75.2493 9.00368 75.2642 8.90841 75.2986 8.81943C75.333 8.73045 75.3862 8.64981 75.4546 8.58294C75.5229 8.51606 75.6049 8.4645 75.695 8.43171C75.7851 8.39891 75.8812 8.38565 75.9769 8.39281H78.0952C78.1919 8.38546 78.289 8.39898 78.38 8.43242C78.4709 8.46586 78.5535 8.51845 78.622 8.58656C78.6906 8.65468 78.7435 8.73672 78.7772 8.82707C78.8108 8.91741 78.8244 9.01392 78.817 9.10997V20.8273C78.8244 20.9234 78.8108 21.0199 78.7772 21.1102C78.7435 21.2006 78.6906 21.2826 78.622 21.3507C78.5535 21.4188 78.4709 21.4714 78.38 21.5049C78.289 21.5383 78.1919 21.5518 78.0952 21.5445H75.9769C75.8802 21.5502 75.7834 21.5361 75.6924 21.5032C75.6014 21.4702 75.5181 21.4191 75.4478 21.3529ZM74.401 12.2637C74.0576 11.9197 73.6458 11.6505 73.192 11.4733C72.7381 11.2962 72.252 11.2149 71.7648 11.2347C70.6574 11.2347 69.7742 11.5799 69.1152 12.2637C68.4561 12.9475 68.1288 13.8517 68.1288 14.9675C68.1092 15.4575 68.1886 15.9464 68.3622 16.4055C68.5359 16.8645 68.8003 17.2843 69.1398 17.6402C69.4797 17.9865 69.889 18.2583 70.3411 18.4378C70.7932 18.6173 71.2782 18.7007 71.7648 18.6825C72.8886 18.6825 73.7748 18.3514 74.4234 17.6892C75.072 17.027 75.397 16.122 75.3985 14.9742C75.3985 13.8532 75.066 12.9497 74.401 12.2637Z" fill="#ED1A3B"/>
<path d="M83.7936 8.57988C83.8596 8.6506 83.9107 8.73374 83.9438 8.82441C83.9769 8.91507 83.9914 9.01141 83.9864 9.10773V9.70462C84.3077 9.27551 84.8457 8.90431 85.6003 8.59101C86.3604 8.26761 87.1788 8.10164 88.0056 8.10325C89.2372 8.07575 90.4528 8.38386 91.5205 8.99414C92.5225 9.58152 93.3333 10.4428 93.8563 11.4752C94.3938 12.5611 94.6664 13.7575 94.6521 14.9675C94.6703 16.1779 94.3975 17.3752 93.8563 18.4598C93.3433 19.4787 92.5506 20.3327 91.5699 20.9231C90.4875 21.5435 89.2549 21.8577 88.0056 21.8318C87.189 21.8471 86.378 21.6954 85.6228 21.3863C84.9836 21.1328 84.4202 20.7211 83.9864 20.1903V25.0701C83.9938 25.1662 83.9802 25.2627 83.9465 25.353C83.9128 25.4434 83.8599 25.5254 83.7914 25.5935C83.7228 25.6617 83.6402 25.7142 83.5493 25.7477C83.4584 25.7811 83.3612 25.7946 83.2646 25.7873H81.1462C81.0493 25.795 80.952 25.7817 80.8608 25.7484C80.7695 25.7151 80.6867 25.6626 80.6179 25.5944C80.5491 25.5263 80.4959 25.4441 80.4621 25.3536C80.4284 25.2631 80.4147 25.1664 80.4221 25.0701V9.10773C80.415 9.01165 80.4289 8.91519 80.4629 8.82495C80.4968 8.73471 80.55 8.65283 80.6188 8.58492C80.6876 8.51701 80.7703 8.46469 80.8613 8.43152C80.9524 8.39836 81.0495 8.38515 81.1462 8.39279H83.2646C83.3609 8.38689 83.4574 8.40043 83.5483 8.43258C83.6392 8.46473 83.7227 8.51484 83.7936 8.57988ZM84.8404 17.6691C85.5055 18.3551 86.3842 18.6981 87.4766 18.6981C88.569 18.6981 89.4523 18.3551 90.1262 17.6691C90.7838 16.9846 91.1126 16.0841 91.1126 14.9675C91.1317 14.4776 91.0521 13.9888 90.8785 13.5298C90.7049 13.0709 90.4407 12.651 90.1016 12.2949C89.7612 11.9492 89.3519 11.6782 88.8998 11.499C88.4477 11.3199 87.963 11.2367 87.4766 11.2548C86.3543 11.2548 85.4673 11.5859 84.8158 12.2481C84.1642 12.9103 83.8377 13.8168 83.8362 14.9675C83.8362 16.0781 84.1709 16.9787 84.8404 17.6691Z" fill="#ED1A3B"/>
<path d="M106.909 21.353C106.843 21.2831 106.791 21.2004 106.758 21.11C106.725 21.0196 106.711 20.9234 106.717 20.8273V20.2305C106.395 20.6596 105.857 21.0308 105.103 21.3441C104.341 21.6646 103.522 21.8275 102.695 21.8229C101.456 21.853 100.233 21.5449 99.1578 20.932C98.1524 20.3468 97.3448 19.4777 96.8377 18.4353C96.2974 17.3592 96.0245 16.1701 96.0419 14.9676C96.0231 13.7558 96.3 12.5576 96.8489 11.4753C97.3698 10.4575 98.1664 9.6044 99.1488 9.012C100.219 8.38606 101.445 8.07122 102.686 8.1033C103.504 8.08802 104.315 8.23963 105.071 8.54874C105.71 8.80223 106.274 9.21395 106.708 9.74476V9.09886C106.702 9.0029 106.717 8.90681 106.752 8.81715C106.787 8.72749 106.841 8.64638 106.91 8.57935C106.979 8.51233 107.063 8.46097 107.154 8.42878C107.245 8.39659 107.342 8.38433 107.438 8.39284H109.557C109.654 8.38417 109.752 8.39662 109.844 8.42933C109.936 8.46203 110.019 8.5142 110.089 8.58223C110.158 8.65025 110.212 8.73249 110.246 8.82325C110.281 8.914 110.295 9.01109 110.288 9.10777V20.8273C110.295 20.9234 110.281 21.0199 110.248 21.1102C110.214 21.2006 110.161 21.2826 110.093 21.3508C110.024 21.4189 109.941 21.4715 109.851 21.5049C109.76 21.5383 109.662 21.5519 109.566 21.5445H107.447C107.349 21.5515 107.251 21.538 107.158 21.505C107.065 21.4721 106.981 21.4203 106.909 21.353ZM105.863 12.2637C105.519 11.9197 105.107 11.6505 104.654 11.4734C104.2 11.2962 103.714 11.2149 103.226 11.2348C102.119 11.2348 101.236 11.58 100.577 12.2637C99.9177 12.9475 99.5904 13.8517 99.5904 14.9676C99.5708 15.4575 99.6502 15.9465 99.8238 16.4055C99.9975 16.8645 100.262 17.2843 100.601 17.6402C100.941 17.9866 101.351 18.2583 101.803 18.4378C102.255 18.6174 102.74 18.7007 103.226 18.6825C104.349 18.6825 105.235 18.3514 105.885 17.6892C106.535 17.027 106.86 16.122 106.86 14.9742C106.86 13.8532 106.528 12.9497 105.863 12.2637Z" fill="#ED1A3B"/>
<path d="M119.806 8.34186C119.873 8.4161 119.925 8.50303 119.958 8.59752C119.991 8.69201 120.005 8.79214 119.998 8.89198V10.9254C119.998 11.3553 119.756 11.5936 119.274 11.6426C118.743 11.6783 118.222 11.8041 117.734 12.0145C117.203 12.2419 116.728 12.5798 116.34 13.0056C115.76 13.6278 115.471 14.5402 115.472 15.7429V20.8276C115.48 20.9239 115.466 21.0206 115.432 21.1111C115.399 21.2016 115.346 21.2838 115.277 21.3519C115.208 21.4201 115.125 21.4726 115.034 21.5059C114.943 21.5392 114.845 21.5524 114.748 21.5448H112.608C112.511 21.5524 112.413 21.5392 112.322 21.5059C112.231 21.4726 112.148 21.4201 112.079 21.3519C112.01 21.2838 111.957 21.2016 111.924 21.1111C111.89 21.0206 111.876 20.9239 111.884 20.8276V9.10802C111.876 9.01195 111.89 8.91548 111.924 8.82524C111.958 8.73501 112.011 8.65313 112.08 8.58522C112.149 8.51731 112.232 8.46498 112.323 8.43182C112.414 8.39866 112.511 8.38545 112.608 8.39309H114.748C114.845 8.38541 114.943 8.39867 115.034 8.43196C115.125 8.46525 115.208 8.51778 115.277 8.58594C115.346 8.65409 115.399 8.73626 115.432 8.82677C115.466 8.91728 115.48 9.014 115.472 9.11025V10.1392C115.92 9.54612 116.507 9.06996 117.181 8.75167C117.838 8.4344 118.547 8.23748 119.274 8.17037C119.37 8.15809 119.467 8.1671 119.559 8.19676C119.651 8.22641 119.735 8.27598 119.806 8.34186Z" fill="#ED1A3B"/>
</svg>
