<svg xmlns="http://www.w3.org/2000/svg" width="34" height="34" viewBox="0 0 34 34"><defs><style>.a{fill:#fff;}.b,.d{fill:none;}.b{stroke:#fff;}.c{stroke:none;}</style></defs><g transform="translate(-1039 -41)"><path  d="M633.3,978.4a9.506,9.506,0,0,1,7.1-2.9,9.9,9.9,0,0,1,7.1,2.9,9.356,9.356,0,0,1,2.9,7.1,9.9,9.9,0,0,1-2.9,7.1,9.356,9.356,0,0,1-7.1,2.9,9.9,9.9,0,0,1-7.1-2.9,10.141,10.141,0,0,1,0-14.2Zm6,14.9v-1.9a2.051,2.051,0,0,1-2-2v-1l-4.8-4.8a5.537,5.537,0,0,0-.2,1.8,7.941,7.941,0,0,0,2,5.3A7.67,7.67,0,0,0,639.3,993.3Zm6.9-2.5a7.636,7.636,0,0,0,2.1-5.4,7.749,7.749,0,0,0-1.4-4.5,7.9,7.9,0,0,0-3.6-2.9v.4a2.051,2.051,0,0,1-2,2h-2v2a1.025,1.025,0,0,1-1,1h-2v2h6a1.025,1.025,0,0,1,1,1v3h1A1.921,1.921,0,0,1,646.2,990.8Z" transform="translate(415.6 -927.5)"/><g  transform="translate(1039 41)"><circle  cx="17" cy="17" r="17"/><circle  cx="17" cy="17" r="16.5"/></g></g></svg>