<svg width="90" height="40" viewBox="0 0 90 40" fill="none" xmlns="http://www.w3.org/2000/svg">
<g clip-path="url(#clip0_1502_1503)">
<path d="M40.215 31.5002C39.5208 31.5002 38.8266 31.3502 38.182 31.0502L23.901 24.6502C21.3225 23.5002 20.182 20.5002 21.3225 17.9002L27.6696 3.55021C28.8101 1.00021 31.7853 -0.19979 34.3638 0.95021L48.6448 7.35021C51.1737 8.50021 52.3638 11.5002 51.2233 14.1002L44.8266 28.5002C43.9836 30.4002 42.1489 31.5002 40.215 31.5002ZM39.3225 28.3502C40.4134 28.8502 41.6531 28.3502 42.1489 27.2502L48.496 12.8502C48.9919 11.7502 48.496 10.5002 47.4051 10.0002L33.1737 3.65021C32.0828 3.15021 30.8431 3.65021 30.3473 4.75021L24.0002 19.1002C23.5043 20.2002 24.0002 21.4502 25.0911 21.9502L39.3225 28.3502Z" fill="#089949"/>
<path d="M84.9423 31.5003H69.3225C66.5456 31.5003 64.2646 29.2003 64.2646 26.4003V10.6503C64.2646 7.85029 66.5456 5.55029 69.3225 5.55029H84.9423C87.7192 5.55029 90.0002 7.85029 90.0002 10.6503V26.4003C90.0002 29.2003 87.7192 31.5003 84.9423 31.5003ZM69.3225 8.50029C68.1324 8.50029 67.1903 9.45029 67.1903 10.6503V26.4003C67.1903 27.6003 68.1324 28.5503 69.3225 28.5503H84.9423C86.1324 28.5503 87.0746 27.6003 87.0746 26.4003V10.6503C87.0746 9.45029 86.1324 8.50029 84.9423 8.50029H69.3225Z" fill="#F9B21D"/>
<path d="M26.4298 13.55L24.3472 18.3C24.2976 18.35 24.2976 18.4 24.248 18.45L25.091 23.55C25.2893 24.75 24.4959 25.85 23.3059 26L7.88437 28.5C7.33892 28.6 6.74388 28.45 6.29759 28.1C5.85131 27.75 5.55379 27.25 5.45462 26.7L2.97528 11.15C2.87611 10.6 3.02487 10 3.37197 9.55004C3.71908 9.10004 4.21495 8.80004 4.7604 8.70004L20.1819 6.20004C20.2811 6.20004 20.4298 6.15004 20.529 6.15004C21.5703 6.15004 22.4629 6.90004 22.6612 7.95004L23.5042 13.1L25.686 8.20004L25.5869 7.50004C25.1406 4.70004 22.5621 2.80004 19.7852 3.25004L4.36371 5.75004C3.02487 5.95004 1.83478 6.70004 1.09098 7.80004C0.297594 8.90004 7.30157e-05 10.25 0.19842 11.6L2.67776 27.15C2.87611 28.5 3.61991 29.7 4.71082 30.5C5.55379 31.15 6.59512 31.45 7.68602 31.45C7.93396 31.45 8.23148 31.45 8.529 31.4L23.9505 28.9C26.7274 28.45 28.6116 25.85 28.1654 23.05L26.4298 13.55Z" fill="#E42527"/>
<path d="M44.9257 20.9501L47.2067 15.8501L46.5621 11.1001C46.4629 10.5501 46.6117 9.95007 46.9588 9.50007C47.3059 9.05007 47.8017 8.75007 48.3968 8.65007L63.8679 6.55007C63.967 6.55007 64.0662 6.55007 64.1654 6.55007C64.6117 6.55007 65.0579 6.70007 65.4546 7.00007C65.5042 7.05007 65.6034 7.10007 65.653 7.15007C66.3472 6.40007 67.2398 5.90006 68.2315 5.70006C67.934 5.30006 67.5869 4.95006 67.1902 4.65006C66.0993 3.80006 64.7604 3.45006 63.4216 3.65006L47.9009 5.75007C46.5621 5.95007 45.372 6.65006 44.5786 7.70007C43.7356 8.80007 43.3885 10.1501 43.5869 11.5001L44.9257 20.9501Z" fill="#226DB4"/>
<path d="M71.3058 23.6L69.2727 8.5C68.1322 8.55 67.1901 9.5 67.1901 10.65V15.1L68.3801 24C68.4793 24.55 68.3306 25.15 67.9835 25.6C67.6364 26.05 67.1405 26.35 66.5454 26.45L51.0744 28.55C50.5289 28.65 49.9339 28.5 49.4876 28.15C49.0413 27.8 48.7438 27.3 48.6446 26.7L47.9504 21.4L45.719 26.5L45.8182 27.1C46.0165 28.45 46.7107 29.65 47.7521 30.45C48.6446 31.15 49.6859 31.5 50.8264 31.5C51.0744 31.5 51.2727 31.5 51.5206 31.45L66.9917 29.35C68.3306 29.15 69.5206 28.45 70.314 27.4C71.1074 26.3 71.4545 24.95 71.3058 23.6Z" fill="#226DB4"/>
<path d="M27.6199 39.0001L29.8513 35.7001H28.0166C27.9174 35.7001 27.8182 35.6001 27.8182 35.5001V35.0501C27.8182 34.9501 27.9174 34.8501 28.0166 34.8501H30.9918C31.091 34.8501 31.1901 34.9501 31.1901 35.0501V35.2001C31.1901 35.2501 31.1901 35.2501 31.1406 35.3001L28.9587 38.6001H30.8926C30.9918 38.6001 31.091 38.7001 31.091 38.8001V39.2501C31.091 39.3501 30.9918 39.4501 30.8926 39.4501H27.7687C27.6695 39.4501 27.5703 39.3501 27.5703 39.2501V39.1001C27.5703 39.0501 27.6199 39.0001 27.6199 39.0001Z" fill="black"/>
<path d="M36.9421 37.1501C36.9421 35.8001 37.9339 34.8501 39.2727 34.8501C40.6611 34.8501 41.6033 35.8001 41.6033 37.2001C41.6033 38.6001 40.6611 39.5501 39.2727 39.5501C37.8347 39.5001 36.9421 38.5501 36.9421 37.1501ZM40.5124 37.1501C40.5124 36.3501 40.1157 35.6501 39.2231 35.6501C38.3306 35.6501 37.9835 36.4001 37.9835 37.2001C37.9835 38.0001 38.3802 38.7001 39.2727 38.7001C40.1653 38.7001 40.5124 37.9001 40.5124 37.1501Z" fill="black"/>
<path d="M47.901 34.8999H48.5456C48.6448 34.8999 48.744 34.9999 48.744 35.0999V36.7499H50.6283V35.0999C50.6283 34.9999 50.7274 34.8999 50.8266 34.8999H51.4712C51.5704 34.8999 51.6696 34.9999 51.6696 35.0999V39.2999C51.6696 39.3999 51.5704 39.4999 51.4712 39.4999H50.8266C50.7274 39.4999 50.6283 39.3999 50.6283 39.2999V37.5999H48.744V39.2999C48.744 39.3999 48.6448 39.4999 48.5456 39.4999H47.901C47.8018 39.4999 47.7026 39.3999 47.7026 39.2999V35.0999C47.7026 34.9499 47.8018 34.8999 47.901 34.8999Z" fill="black"/>
<path d="M57.7686 37.1501C57.7686 35.8001 58.7603 34.8501 60.0991 34.8501C61.4876 34.8501 62.4297 35.8001 62.4297 37.2001C62.4297 38.6001 61.4876 39.5501 60.0991 39.5501C58.7107 39.5001 57.7686 38.5501 57.7686 37.1501ZM61.3388 37.1501C61.3388 36.3501 60.9421 35.6501 60.0495 35.6501C59.157 35.6501 58.8099 36.4001 58.8099 37.2001C58.8099 38.0001 59.2066 38.7001 60.0991 38.7001C60.9917 38.7001 61.3388 37.9001 61.3388 37.1501Z" fill="black"/>
</g>
<defs>
<clipPath id="clip0_1502_1503">
<rect width="90" height="39" fill="white" transform="translate(0 0.5)"/>
</clipPath>
</defs>
</svg>
