<svg width="36" height="36" viewBox="0 0 36 36" fill="none" xmlns="http://www.w3.org/2000/svg">
<path fill="#1A237E"  d="M31.33 26.433C31.29 26.417 31.243 26.408 31.194 26.408C31.096 26.408 31.007 26.444 30.939 26.504L28.742 28.701L25.801 25.76C26.392 24.909 26.85 23.915 27.117 22.845L27.13 22.783C27.148 22.712 27.166 22.623 27.183 22.535V22.517C27.201 22.446 27.219 22.357 27.236 22.287V22.269C27.272 22.092 27.289 21.915 27.307 21.737V21.719C27.319 21.661 27.325 21.595 27.325 21.527C27.325 21.513 27.325 21.5 27.324 21.486V21.488V21.419C27.324 21.366 27.342 21.295 27.342 21.242V19.982C27.343 19.973 27.343 19.963 27.343 19.953C27.343 19.913 27.336 19.874 27.323 19.838L27.324 19.84V19.787C27.324 19.716 27.306 19.663 27.306 19.592V19.521C27.306 19.485 27.288 19.433 27.288 19.397C27.288 19.393 27.289 19.388 27.289 19.383C27.289 19.356 27.282 19.33 27.27 19.308C27.27 19.272 27.252 19.221 27.252 19.185V19.167C27.252 19.164 27.253 19.16 27.253 19.156C27.253 19.134 27.246 19.113 27.235 19.096C27.235 19.06 27.217 19.008 27.217 18.972V18.954C27.217 18.952 27.217 18.949 27.217 18.946C27.217 18.929 27.21 18.913 27.199 18.901C27.181 18.83 27.181 18.777 27.163 18.706C27.163 18.704 27.163 18.701 27.163 18.698C27.163 18.681 27.156 18.665 27.145 18.653V18.635C27.127 18.599 27.127 18.547 27.109 18.511C27.109 18.475 27.091 18.458 27.091 18.423C27.073 18.387 27.073 18.352 27.055 18.317C27.055 18.281 27.037 18.264 27.037 18.229C27.019 18.193 27.019 18.158 27.001 18.123V18.105C27.001 18.087 26.983 18.069 26.983 18.034L26.93 17.874C26.231 15.765 24.842 14.044 23.036 12.937L22.996 12.914C22.946 12.88 22.885 12.86 22.819 12.86C22.753 12.86 22.692 12.88 22.641 12.914L22.642 12.913C22.535 12.98 22.465 13.097 22.465 13.23C22.465 13.231 22.465 13.232 22.465 13.233V16.688C22.465 16.689 22.465 16.69 22.465 16.691C22.465 16.779 22.499 16.859 22.554 16.919C23.378 17.846 23.908 19.05 23.988 20.376L23.989 20.392C23.989 20.498 24.007 20.622 24.007 20.729C24.004 22.314 23.362 23.747 22.324 24.787C22.029 25.079 21.705 25.342 21.355 25.57L21.331 25.584C21.239 25.64 21.177 25.737 21.171 25.849C21.168 25.865 21.166 25.884 21.166 25.903C21.166 25.996 21.209 26.079 21.277 26.133L26.346 31.201L24.149 33.398C24.086 33.461 24.048 33.549 24.048 33.645C24.048 33.697 24.059 33.746 24.079 33.79L24.078 33.788C24.132 33.914 24.255 34.001 24.399 34.001C24.405 34.001 24.41 34.001 24.416 34.001H31.201C31.396 34 31.555 33.842 31.555 33.647V26.857C31.555 26.609 31.467 26.485 31.325 26.432L31.33 26.433ZM9.678 23.049C9.702 23.06 9.729 23.067 9.759 23.067C9.762 23.067 9.764 23.067 9.767 23.067C9.864 23.066 9.952 23.026 10.015 22.961L12.46 20.516C12.521 20.457 12.56 20.376 12.566 20.287V20.286C12.592 19.932 12.636 19.611 12.698 19.296L12.69 19.347V19.329C12.926 18.36 13.376 17.519 13.989 16.824L13.984 16.83L14.02 16.794C14.089 16.728 14.153 16.659 14.212 16.585L14.215 16.581C15.247 15.541 16.677 14.898 18.257 14.898C18.262 14.898 18.268 14.898 18.273 14.898C18.72 14.901 19.153 14.952 19.57 15.047L19.53 15.039C19.552 15.044 19.578 15.046 19.604 15.046C19.805 15.046 19.969 14.885 19.973 14.685V7.509H23.074C23.269 7.508 23.428 7.35 23.428 7.155C23.424 7.049 23.377 6.956 23.304 6.89L18.52 2.106C18.457 2.04 18.37 2 18.272 2C18.174 2 18.087 2.041 18.024 2.106L13.24 6.89C13.177 6.953 13.139 7.041 13.139 7.137C13.139 7.189 13.15 7.238 13.17 7.282L13.169 7.28C13.218 7.406 13.338 7.494 13.479 7.494C13.488 7.494 13.498 7.494 13.507 7.493H13.506H16.607V11.657C15.373 11.886 14.276 12.344 13.315 12.988L13.346 12.968C13.015 13.186 12.732 13.395 12.461 13.619L12.478 13.606L12.442 13.642C12.389 13.695 12.336 13.73 12.282 13.784C12.264 13.802 12.246 13.802 12.246 13.82C12.193 13.873 12.14 13.908 12.086 13.962L12.051 13.997C11.991 14.06 11.928 14.118 11.86 14.171L11.856 14.174C11.4 14.631 10.991 15.136 10.638 15.68L10.616 15.716C10.58 15.769 10.545 15.84 10.51 15.893C10.476 15.947 10.44 16.01 10.409 16.076L10.404 16.088C10.37 16.142 10.334 16.205 10.303 16.271L10.298 16.283C10.262 16.354 10.227 16.407 10.192 16.478C10.158 16.534 10.128 16.598 10.106 16.666L10.104 16.673C9.545 17.816 9.219 19.16 9.219 20.58C9.219 20.589 9.219 20.599 9.219 20.608C9.222 21.375 9.312 22.119 9.48 22.834L9.467 22.767C9.466 22.773 9.466 22.781 9.466 22.788C9.466 22.917 9.557 23.025 9.678 23.051H9.68L9.678 23.049ZM18.183 26.453C18.13 26.388 18.05 26.346 17.961 26.346C17.958 26.346 17.955 26.346 17.953 26.346C16.051 26.231 14.411 25.209 13.447 23.711L13.433 23.688C13.377 23.596 13.28 23.534 13.168 23.528H13.167C13.151 23.525 13.133 23.523 13.114 23.523C13.021 23.523 12.938 23.566 12.884 23.634L7.801 28.719L5.604 26.504C5.541 26.441 5.453 26.403 5.357 26.403C5.305 26.403 5.256 26.414 5.212 26.434L5.214 26.433C5.088 26.482 5 26.602 5 26.743C5 26.752 5 26.762 5.001 26.771V33.538C5.002 33.733 5.16 33.892 5.355 33.892H12.141C12.336 33.891 12.495 33.733 12.495 33.538C12.491 33.432 12.444 33.339 12.371 33.273L10.191 31.093L13.132 28.152C14.044 28.793 15.12 29.273 16.281 29.523L16.339 29.533H16.357C16.428 29.551 16.499 29.569 16.587 29.586H16.605C16.676 29.604 16.747 29.604 16.835 29.622H16.853C16.924 29.64 17.013 29.64 17.083 29.658C17.428 29.703 17.827 29.729 18.232 29.729C18.252 29.729 18.271 29.729 18.291 29.729H18.288C18.289 29.729 18.289 29.729 18.29 29.729C19.063 29.729 19.814 29.632 20.53 29.45L20.467 29.464C20.593 29.432 20.692 29.339 20.732 29.219L20.733 29.216C20.741 29.187 20.745 29.154 20.745 29.119C20.745 29.019 20.707 28.929 20.644 28.861L18.183 26.453Z" />
</svg>
