<svg width="36" height="36" viewBox="0 0 36 36" fill="none" xmlns="http://www.w3.org/2000/svg">
<path fill="#1A237E" d="M31.266 23.221C30.717 23.77 29.895 23.495 29.895 22.49V20.021C29.876 19.271 29.273 18.668 28.525 18.65H28.523H26.786C26.959 19.012 27.061 19.437 27.061 19.886C27.061 19.901 27.061 19.917 27.061 19.932V19.93C27.049 21.398 25.856 22.582 24.387 22.582C24.363 22.582 24.339 22.582 24.315 22.581H24.319H24.136C24.115 22.582 24.091 22.582 24.066 22.582C22.597 22.582 21.405 21.397 21.393 19.931C21.396 19.467 21.497 19.027 21.675 18.63L21.667 18.65H19.93C19.921 18.65 19.91 18.65 19.899 18.65C19.209 18.65 18.649 19.21 18.649 19.9C18.649 19.911 18.649 19.921 18.649 19.932V19.93V22.399C18.649 23.405 17.826 23.588 17.186 23.13C16.923 22.87 16.562 22.709 16.163 22.709C15.36 22.709 14.709 23.36 14.709 24.163C14.709 24.218 14.712 24.272 14.718 24.326L14.717 24.319C14.714 24.355 14.712 24.397 14.712 24.439C14.712 25.249 15.369 25.906 16.179 25.906C16.569 25.906 16.923 25.754 17.186 25.506L17.185 25.507C17.734 24.958 18.648 25.233 18.648 26.238V28.615C18.648 28.624 18.648 28.635 18.648 28.646C18.648 29.336 19.208 29.896 19.898 29.896C19.909 29.896 19.919 29.896 19.93 29.896H19.928H22.397C23.403 29.896 23.586 30.719 23.128 31.359C22.901 31.628 22.762 31.978 22.762 32.361C22.762 33.219 23.458 33.915 24.316 33.915C25.174 33.915 25.87 33.219 25.87 32.361C25.87 31.978 25.732 31.628 25.502 31.357L25.504 31.359C24.955 30.81 25.23 29.896 26.235 29.896H28.704C28.713 29.896 28.724 29.896 28.735 29.896C29.425 29.896 29.985 29.336 29.985 28.646C29.985 28.635 29.985 28.625 29.985 28.614V28.616V26.239C29.985 25.233 30.808 25.05 31.356 25.508C31.618 25.759 31.975 25.914 32.368 25.914C33.176 25.914 33.831 25.259 33.831 24.451C33.831 24.405 33.829 24.359 33.825 24.313V24.319C33.827 24.289 33.828 24.254 33.828 24.219C33.828 23.404 33.167 22.743 32.352 22.743C31.922 22.743 31.535 22.927 31.265 23.22L31.264 23.221H31.266ZM24.226 21.576C24.172 21.582 24.11 21.586 24.047 21.586C23.38 21.586 22.81 21.169 22.584 20.581L22.58 20.57C22.504 20.383 22.459 20.165 22.459 19.938C22.459 19.472 22.645 19.05 22.946 18.741C23.08 18.611 23.164 18.43 23.164 18.229C23.164 18.151 23.151 18.075 23.128 18.005L23.129 18.01C22.981 17.787 22.731 17.643 22.447 17.643C22.43 17.643 22.412 17.644 22.395 17.645H22.397H19.928C19.08 17.619 18.399 16.939 18.374 16.093V16.091V13.897L18.74 14.08C19.072 14.253 19.466 14.355 19.883 14.355C21.272 14.355 22.397 13.229 22.397 11.841C22.397 11.825 22.397 11.808 22.397 11.792V11.794V11.703C22.397 11.696 22.397 11.688 22.397 11.68C22.397 10.303 21.3 9.182 19.932 9.143H19.928C19.495 9.147 19.087 9.248 18.723 9.425L18.74 9.418L18.374 9.601V7.498C18.4 6.65 19.08 5.969 19.926 5.944H19.928H22.397C22.763 5.944 23.037 5.853 23.128 5.578C23.143 5.52 23.151 5.454 23.151 5.385C23.151 5.178 23.073 4.989 22.944 4.846L22.945 4.847C22.647 4.534 22.464 4.11 22.464 3.643C22.464 3.418 22.506 3.204 22.584 3.006L22.58 3.018C22.86 2.419 23.457 2.011 24.15 2.011C24.177 2.011 24.203 2.012 24.229 2.013H24.225C24.279 2.006 24.341 2.003 24.404 2.003C25.071 2.003 25.641 2.42 25.867 3.008L25.871 3.019C25.947 3.206 25.992 3.424 25.992 3.651C25.992 4.117 25.806 4.539 25.505 4.848C25.371 4.978 25.287 5.159 25.287 5.36C25.287 5.438 25.3 5.514 25.323 5.584L25.322 5.579C25.47 5.802 25.72 5.946 26.004 5.946C26.021 5.946 26.039 5.945 26.056 5.944H26.054H28.431C29.279 5.97 29.96 6.65 29.985 7.496V7.498V9.875C29.985 10.241 30.076 10.515 30.351 10.606C30.409 10.621 30.475 10.629 30.544 10.629C30.751 10.629 30.94 10.551 31.083 10.422L31.082 10.423C31.395 10.125 31.819 9.942 32.286 9.942C32.511 9.942 32.725 9.984 32.923 10.062L32.911 10.058C33.51 10.338 33.918 10.935 33.918 11.628C33.918 11.655 33.917 11.681 33.916 11.707V11.703C33.922 11.757 33.926 11.819 33.926 11.882C33.926 12.549 33.509 13.119 32.921 13.345L32.91 13.349C32.723 13.425 32.505 13.47 32.278 13.47C31.812 13.47 31.39 13.284 31.081 12.983C30.951 12.849 30.77 12.765 30.569 12.765C30.491 12.765 30.415 12.778 30.345 12.801L30.35 12.8C30.127 12.948 29.983 13.198 29.983 13.482C29.983 13.499 29.984 13.516 29.985 13.534V13.532V16.001C29.959 16.849 29.279 17.53 28.433 17.555H28.431H26.054C25.688 17.555 25.414 17.646 25.323 17.921C25.308 17.979 25.3 18.045 25.3 18.114C25.3 18.321 25.378 18.51 25.507 18.653L25.506 18.652C25.804 18.965 25.987 19.389 25.987 19.856C25.987 20.081 25.945 20.295 25.867 20.493L25.871 20.481C25.681 21.126 25.094 21.588 24.4 21.588C24.339 21.588 24.278 21.584 24.219 21.577L24.226 21.578V21.576ZM18.832 14.627V16.09C18.831 16.103 18.831 16.117 18.831 16.132C18.831 16.715 19.304 17.188 19.887 17.188C19.902 17.188 19.916 17.188 19.931 17.187H19.929H22.398C22.439 17.181 22.487 17.178 22.535 17.178C22.968 17.178 23.338 17.443 23.493 17.82L23.496 17.827C23.55 17.948 23.581 18.088 23.581 18.236C23.581 18.547 23.442 18.826 23.223 19.014L23.222 19.015C22.991 19.239 22.847 19.552 22.847 19.898C22.847 20.577 23.397 21.127 24.076 21.127C24.129 21.127 24.182 21.124 24.234 21.117L24.228 21.118C24.25 21.119 24.276 21.12 24.302 21.12C24.824 21.12 25.277 20.826 25.505 20.394L25.509 20.387C25.567 20.246 25.601 20.083 25.601 19.912C25.601 19.563 25.461 19.247 25.235 19.016C25.014 18.827 24.875 18.548 24.875 18.237C24.875 18.089 24.906 17.948 24.963 17.821L24.96 17.828C25.156 17.445 25.548 17.187 26 17.187C26.02 17.187 26.04 17.188 26.06 17.189H26.057H28.434C28.447 17.19 28.461 17.19 28.476 17.19C29.059 17.19 29.532 16.717 29.532 16.134C29.532 16.119 29.532 16.105 29.531 16.09V16.092V13.623C29.525 13.582 29.522 13.534 29.522 13.486C29.522 13.053 29.787 12.683 30.164 12.528L30.171 12.526C30.292 12.472 30.432 12.441 30.58 12.441C30.891 12.441 31.17 12.58 31.358 12.799L31.359 12.8C31.583 13.031 31.896 13.175 32.242 13.175C32.921 13.175 33.471 12.625 33.471 11.946C33.471 11.893 33.468 11.84 33.461 11.788L33.462 11.794C33.463 11.772 33.464 11.746 33.464 11.72C33.464 11.198 33.17 10.745 32.738 10.517L32.731 10.513C32.59 10.455 32.427 10.421 32.256 10.421C31.907 10.421 31.591 10.561 31.36 10.787C31.171 11.008 30.892 11.147 30.581 11.147C30.433 11.147 30.292 11.116 30.165 11.059L30.172 11.062C29.789 10.866 29.531 10.474 29.531 10.022C29.531 10.002 29.531 9.982 29.533 9.962V9.965V7.496C29.534 7.483 29.534 7.469 29.534 7.454C29.534 6.871 29.061 6.398 28.478 6.398C28.463 6.398 28.449 6.398 28.434 6.399H28.436H26.059C26.018 6.405 25.97 6.408 25.922 6.408C25.489 6.408 25.119 6.143 24.964 5.766L24.961 5.759C24.907 5.638 24.876 5.498 24.876 5.35C24.876 5.039 25.015 4.76 25.234 4.572L25.235 4.571C25.461 4.34 25.601 4.024 25.601 3.675C25.601 3.504 25.567 3.34 25.506 3.191L25.509 3.2C25.302 2.761 24.863 2.462 24.355 2.462C24.311 2.462 24.267 2.464 24.224 2.469H24.229C24.207 2.468 24.181 2.467 24.155 2.467C23.633 2.467 23.18 2.761 22.952 3.193L22.948 3.2C22.89 3.341 22.856 3.504 22.856 3.675C22.856 4.024 22.996 4.34 23.222 4.571C23.427 4.785 23.553 5.076 23.553 5.396C23.553 5.526 23.532 5.651 23.494 5.768L23.496 5.76C23.3 6.143 22.908 6.401 22.456 6.401C22.436 6.401 22.416 6.4 22.396 6.399H22.399H19.93C19.917 6.398 19.903 6.398 19.888 6.398C19.305 6.398 18.832 6.871 18.832 7.454C18.832 7.469 18.832 7.483 18.833 7.498V7.496V8.867C19.13 8.768 19.474 8.702 19.83 8.684H19.839C21.46 8.707 22.765 10.026 22.765 11.651C22.765 11.669 22.765 11.687 22.765 11.704V11.701V11.792C22.765 11.807 22.765 11.825 22.765 11.843C22.765 13.467 21.46 14.787 19.841 14.81H19.839C19.79 14.814 19.734 14.817 19.676 14.817C19.37 14.817 19.08 14.747 18.821 14.622L18.832 14.627ZM11.792 34.01C11.738 34.016 11.676 34.02 11.613 34.02C10.946 34.02 10.376 33.603 10.15 33.015L10.146 33.004C10.07 32.817 10.025 32.599 10.025 32.372C10.025 31.906 10.211 31.484 10.512 31.175C10.646 31.045 10.73 30.864 10.73 30.663C10.73 30.585 10.717 30.509 10.694 30.439L10.695 30.444C10.547 30.221 10.297 30.077 10.013 30.077C9.996 30.077 9.978 30.078 9.961 30.079H9.963H7.586C6.738 30.053 6.057 29.373 6.032 28.527V28.525V26.056C6.032 25.69 5.941 25.416 5.666 25.325C5.608 25.31 5.542 25.302 5.473 25.302C5.266 25.302 5.077 25.38 4.934 25.509L4.935 25.508C4.622 25.806 4.198 25.989 3.731 25.989C3.506 25.989 3.292 25.947 3.094 25.869L3.106 25.873C2.507 25.618 2.095 25.034 2.095 24.355C2.095 24.31 2.097 24.266 2.1 24.222V24.228C2.093 24.174 2.09 24.112 2.09 24.049C2.09 23.382 2.507 22.812 3.095 22.586L3.106 22.582C3.293 22.506 3.511 22.461 3.738 22.461C4.204 22.461 4.626 22.647 4.935 22.948C5.065 23.082 5.246 23.166 5.447 23.166C5.525 23.166 5.601 23.153 5.671 23.13L5.666 23.131C5.889 22.983 6.033 22.733 6.033 22.449C6.033 22.432 6.032 22.414 6.031 22.397V22.399V19.93C6.057 19.082 6.737 18.401 7.583 18.376H7.585H9.962C10.328 18.376 10.602 18.285 10.693 18.01C10.708 17.952 10.716 17.886 10.716 17.817C10.716 17.61 10.638 17.421 10.509 17.278L10.51 17.279C10.212 16.966 10.029 16.542 10.029 16.075C10.029 15.85 10.071 15.636 10.149 15.438L10.145 15.45C10.425 14.851 11.022 14.443 11.715 14.443C11.742 14.443 11.768 14.444 11.794 14.445H11.79C11.844 14.438 11.906 14.435 11.969 14.435C12.636 14.435 13.206 14.852 13.432 15.44L13.436 15.451C13.512 15.638 13.557 15.856 13.557 16.083C13.557 16.549 13.371 16.971 13.07 17.28C12.936 17.41 12.852 17.591 12.852 17.792C12.852 17.87 12.865 17.946 12.888 18.016L12.887 18.011C13.035 18.234 13.285 18.378 13.569 18.378C13.586 18.378 13.603 18.377 13.621 18.376H13.619H16.088C16.936 18.402 17.617 19.082 17.642 19.928V19.93V22.124L17.276 21.941C16.944 21.768 16.55 21.666 16.133 21.666C14.744 21.666 13.619 22.792 13.619 24.18C13.619 24.196 13.619 24.213 13.619 24.229V24.227V24.318C13.619 24.325 13.619 24.333 13.619 24.341C13.619 25.718 14.716 26.839 16.084 26.878H16.088C16.521 26.874 16.929 26.773 17.293 26.596L17.276 26.603L17.642 26.42V28.523C17.616 29.371 16.936 30.052 16.09 30.077H16.088H13.619C13.253 30.077 12.979 30.168 12.888 30.443C12.873 30.501 12.865 30.567 12.865 30.636C12.865 30.843 12.943 31.032 13.072 31.175L13.071 31.174C13.369 31.487 13.552 31.911 13.552 32.378C13.552 32.603 13.51 32.817 13.432 33.015L13.436 33.003C13.181 33.602 12.597 34.014 11.918 34.014C11.873 34.014 11.829 34.012 11.785 34.009H11.791L11.792 34.01ZM5.392 24.959C5.575 24.959 5.666 24.959 5.758 25.05C6.141 25.246 6.399 25.638 6.399 26.09C6.399 26.11 6.399 26.13 6.397 26.15V26.147V28.616C6.396 28.629 6.396 28.643 6.396 28.658C6.396 29.241 6.869 29.714 7.452 29.714C7.467 29.714 7.481 29.714 7.496 29.713H7.494H9.871C9.912 29.707 9.96 29.704 10.008 29.704C10.441 29.704 10.811 29.969 10.966 30.346L10.968 30.353C11.022 30.474 11.053 30.614 11.053 30.762C11.053 31.073 10.914 31.352 10.695 31.54L10.694 31.541C10.463 31.765 10.319 32.078 10.319 32.424C10.319 33.103 10.869 33.653 11.548 33.653C11.601 33.653 11.654 33.65 11.706 33.643L11.7 33.644C11.722 33.645 11.748 33.646 11.774 33.646C12.296 33.646 12.749 33.352 12.977 32.92L12.981 32.913C13.039 32.772 13.073 32.609 13.073 32.438C13.073 32.089 12.933 31.773 12.707 31.542C12.502 31.328 12.376 31.037 12.376 30.717C12.376 30.587 12.397 30.462 12.435 30.345L12.433 30.353C12.629 29.97 13.021 29.712 13.473 29.712C13.493 29.712 13.513 29.712 13.533 29.714H13.53H15.999C16.012 29.715 16.026 29.715 16.041 29.715C16.624 29.715 17.097 29.242 17.097 28.659C17.097 28.644 17.097 28.63 17.096 28.615V28.617V27.246C16.799 27.345 16.455 27.411 16.099 27.429H16.09C14.469 27.406 13.164 26.087 13.164 24.462C13.164 24.444 13.164 24.426 13.164 24.409V24.412V24.321C13.164 24.306 13.164 24.288 13.164 24.27C13.164 22.646 14.469 21.326 16.088 21.303H16.09C16.453 21.312 16.797 21.378 17.119 21.493L17.096 21.486V20.023C17.097 20.01 17.097 19.996 17.097 19.981C17.097 19.398 16.624 18.925 16.041 18.925C16.026 18.925 16.012 18.925 15.997 18.926H15.999H13.53C13.489 18.932 13.441 18.935 13.393 18.935C12.96 18.935 12.59 18.67 12.435 18.293L12.433 18.286C12.379 18.165 12.348 18.025 12.348 17.877C12.348 17.566 12.487 17.287 12.706 17.099L12.707 17.098C12.938 16.874 13.082 16.561 13.082 16.215C13.082 15.536 12.532 14.986 11.853 14.986C11.8 14.986 11.747 14.989 11.695 14.996L11.701 14.995C11.679 14.994 11.653 14.993 11.627 14.993C11.105 14.993 10.652 15.287 10.424 15.719L10.42 15.726C10.362 15.867 10.328 16.03 10.328 16.201C10.328 16.55 10.468 16.866 10.694 17.097C10.915 17.286 11.054 17.565 11.054 17.876C11.054 18.024 11.023 18.165 10.966 18.292L10.969 18.285C10.773 18.668 10.381 18.926 9.929 18.926C9.909 18.926 9.889 18.926 9.869 18.924H9.872H7.495C7.482 18.923 7.468 18.923 7.453 18.923C6.87 18.923 6.397 19.396 6.397 19.979C6.397 19.994 6.397 20.008 6.398 20.023V20.021V22.398C6.404 22.439 6.407 22.487 6.407 22.535C6.407 22.968 6.142 23.338 5.765 23.493L5.758 23.496C5.637 23.55 5.497 23.581 5.349 23.581C5.038 23.581 4.759 23.442 4.571 23.223L4.57 23.222C4.346 22.991 4.033 22.847 3.687 22.847C3.008 22.847 2.458 23.397 2.458 24.076C2.458 24.129 2.461 24.182 2.468 24.234L2.467 24.228C2.466 24.248 2.465 24.271 2.465 24.295C2.465 24.794 2.763 25.223 3.19 25.414L3.198 25.417C3.339 25.475 3.502 25.509 3.673 25.509C4.022 25.509 4.338 25.369 4.569 25.143C4.811 25.044 5.091 24.979 5.384 24.961H5.392V24.959ZM16.089 17.644H13.895L14.078 17.278C14.251 16.946 14.353 16.552 14.353 16.135C14.353 14.746 13.227 13.621 11.839 13.621C11.823 13.621 11.806 13.621 11.79 13.621H11.792H11.701C11.694 13.621 11.686 13.621 11.678 13.621C10.301 13.621 9.18 14.718 9.141 16.086V16.09C9.145 16.523 9.246 16.931 9.423 17.295L9.416 17.278L9.599 17.644H7.496C6.648 17.618 5.967 16.938 5.942 16.092V16.09V13.621C5.942 13.255 5.851 12.981 5.576 12.89C5.518 12.875 5.452 12.867 5.383 12.867C5.176 12.867 4.987 12.945 4.844 13.074L4.845 13.073C4.532 13.371 4.108 13.554 3.641 13.554C3.416 13.554 3.202 13.512 3.004 13.434L3.016 13.438C2.417 13.183 2.005 12.599 2.005 11.92C2.005 11.875 2.007 11.831 2.01 11.787V11.793C2.004 11.739 2 11.677 2 11.614C2 10.947 2.417 10.377 3.005 10.151L3.016 10.147C3.203 10.071 3.421 10.026 3.648 10.026C4.114 10.026 4.536 10.212 4.845 10.513C4.975 10.647 5.156 10.731 5.357 10.731C5.435 10.731 5.511 10.718 5.581 10.695L5.576 10.696C5.799 10.548 5.943 10.298 5.943 10.014C5.943 9.997 5.942 9.979 5.941 9.962V9.964V7.495C5.967 6.647 6.647 5.966 7.493 5.941H7.495H9.872C10.238 5.941 10.512 5.85 10.603 5.575C10.618 5.517 10.626 5.451 10.626 5.382C10.626 5.175 10.548 4.986 10.419 4.843L10.42 4.844C10.122 4.531 9.939 4.107 9.939 3.64C9.939 3.415 9.981 3.201 10.059 3.003L10.055 3.015C10.335 2.416 10.932 2.008 11.625 2.008C11.652 2.008 11.678 2.009 11.704 2.01H11.7C11.754 2.003 11.816 2 11.879 2C12.546 2 13.116 2.417 13.342 3.005L13.346 3.016C13.422 3.203 13.467 3.421 13.467 3.648C13.467 4.114 13.281 4.536 12.98 4.845C12.846 4.975 12.762 5.156 12.762 5.357C12.762 5.435 12.775 5.511 12.798 5.581L12.797 5.576C12.945 5.799 13.195 5.943 13.479 5.943C13.496 5.943 13.513 5.942 13.531 5.941H13.529H15.998C16.846 5.967 17.527 6.647 17.552 7.493V7.495V9.872C17.552 10.238 17.643 10.512 17.918 10.603C17.976 10.618 18.042 10.626 18.111 10.626C18.318 10.626 18.507 10.548 18.65 10.419L18.649 10.42C18.962 10.122 19.386 9.939 19.853 9.939C20.078 9.939 20.292 9.981 20.49 10.059L20.478 10.055C21.077 10.335 21.485 10.932 21.485 11.625C21.485 11.652 21.484 11.678 21.483 11.704V11.7C21.489 11.754 21.493 11.816 21.493 11.879C21.493 12.546 21.076 13.116 20.488 13.342L20.477 13.346C20.29 13.422 20.072 13.467 19.845 13.467C19.379 13.467 18.957 13.281 18.648 12.98C18.518 12.846 18.337 12.762 18.136 12.762C18.058 12.762 17.982 12.775 17.912 12.798L17.917 12.797C17.694 12.945 17.55 13.195 17.55 13.479C17.55 13.496 17.551 13.513 17.552 13.531V13.529V15.998C17.561 16.058 17.566 16.127 17.566 16.197C17.566 16.996 16.918 17.644 16.119 17.644C16.109 17.644 16.099 17.644 16.089 17.644ZM14.626 17.187H16.089C16.102 17.188 16.116 17.188 16.131 17.188C16.714 17.188 17.187 16.715 17.187 16.132C17.187 16.117 17.187 16.103 17.186 16.088V16.09V13.621C17.18 13.58 17.177 13.532 17.177 13.484C17.177 13.051 17.442 12.681 17.819 12.526L17.826 12.524C17.947 12.47 18.087 12.439 18.235 12.439C18.546 12.439 18.825 12.578 19.013 12.797L19.014 12.798C19.238 13.029 19.551 13.173 19.897 13.173C20.576 13.173 21.126 12.623 21.126 11.944C21.126 11.891 21.123 11.838 21.116 11.786L21.117 11.792C21.118 11.77 21.119 11.744 21.119 11.718C21.119 11.196 20.825 10.743 20.393 10.515L20.386 10.511C20.245 10.453 20.082 10.419 19.911 10.419C19.562 10.419 19.246 10.559 19.015 10.785C18.802 10.99 18.511 11.117 18.191 11.117C18.061 11.117 17.935 11.096 17.818 11.057L17.826 11.059C17.443 10.863 17.185 10.471 17.185 10.019C17.185 9.999 17.186 9.979 17.187 9.959V9.962V7.493C17.188 7.48 17.188 7.466 17.188 7.451C17.188 6.868 16.715 6.395 16.132 6.395C16.117 6.395 16.103 6.395 16.088 6.396H16.09H13.621C13.58 6.402 13.532 6.405 13.484 6.405C13.051 6.405 12.681 6.14 12.526 5.763L12.524 5.756C12.47 5.635 12.439 5.495 12.439 5.347C12.439 5.036 12.578 4.757 12.797 4.569L12.798 4.568C13.024 4.337 13.164 4.021 13.164 3.672C13.164 3.501 13.13 3.337 13.069 3.188L13.072 3.197C12.865 2.758 12.426 2.459 11.918 2.459C11.874 2.459 11.83 2.461 11.787 2.466H11.792C11.77 2.465 11.744 2.464 11.718 2.464C11.196 2.464 10.743 2.758 10.515 3.19L10.511 3.197C10.453 3.338 10.419 3.501 10.419 3.672C10.419 4.021 10.559 4.337 10.785 4.568C11.006 4.757 11.145 5.036 11.145 5.347C11.145 5.495 11.114 5.636 11.057 5.763L11.06 5.756C10.864 6.139 10.472 6.397 10.02 6.397C10 6.397 9.98 6.396 9.96 6.395H9.963H7.586C7.573 6.394 7.559 6.394 7.544 6.394C6.961 6.394 6.488 6.867 6.488 7.45C6.488 7.465 6.488 7.479 6.489 7.494V7.492V9.869C6.495 9.91 6.498 9.958 6.498 10.006C6.498 10.439 6.233 10.809 5.856 10.964L5.849 10.966C5.728 11.02 5.588 11.051 5.44 11.051C5.129 11.051 4.85 10.912 4.662 10.693L4.661 10.692C4.437 10.461 4.124 10.317 3.778 10.317C3.099 10.317 2.549 10.867 2.549 11.546C2.549 11.599 2.552 11.652 2.559 11.704L2.558 11.698C2.558 11.702 2.558 11.706 2.558 11.711C2.558 12.25 2.849 12.72 3.283 12.974L3.29 12.978C3.431 13.036 3.594 13.07 3.765 13.07C4.114 13.07 4.43 12.93 4.661 12.704C4.905 12.514 5.215 12.399 5.552 12.399C5.657 12.399 5.76 12.41 5.859 12.431L5.849 12.429C6.232 12.625 6.49 13.017 6.49 13.469C6.49 13.489 6.49 13.509 6.488 13.529V13.526V15.995C6.487 16.008 6.487 16.022 6.487 16.037C6.487 16.62 6.96 17.093 7.543 17.093C7.558 17.093 7.572 17.093 7.587 17.092H7.585H8.956C8.857 16.795 8.791 16.451 8.773 16.095V16.086C8.796 14.465 10.115 13.16 11.74 13.16C11.758 13.16 11.776 13.16 11.793 13.16H11.79H11.881C11.896 13.16 11.914 13.16 11.932 13.16C13.556 13.16 14.876 14.465 14.899 16.084V16.086C14.817 16.522 14.722 16.891 14.606 17.25L14.625 17.183L14.626 17.187Z" />
</svg>
