<svg width="36" height="36" viewBox="0 0 36 36" fill="none" xmlns="http://www.w3.org/2000/svg">
<path d="M23.937 13.332C23.839 13.326 23.761 13.247 23.754 13.15V13.149V10.702C23.759 9.628 24.607 8.754 25.67 8.708H25.674H26.588C26.599 8.71 26.611 8.711 26.624 8.711C26.757 8.711 26.865 8.603 26.865 8.47C26.865 8.457 26.864 8.445 26.862 8.433V7.893C26.862 7.802 26.862 7.71 26.771 7.71L26.131 6.985C25.924 6.619 25.791 6.186 25.766 5.724V5.716V3.994C25.781 2.893 26.675 2.005 27.777 2H28.783C29.886 2.005 30.78 2.893 30.794 3.993V5.717C30.78 6.199 30.61 6.639 30.333 6.991L30.336 6.986L29.605 7.711C29.514 7.802 29.514 7.802 29.514 7.894V8.437C29.512 8.448 29.511 8.46 29.511 8.473C29.511 8.606 29.619 8.714 29.752 8.714C29.765 8.714 29.777 8.713 29.789 8.711H30.702C31.765 8.724 32.623 9.589 32.623 10.654C32.623 10.672 32.623 10.69 32.622 10.708V10.705V13.154C32.616 13.252 32.537 13.33 32.44 13.337H32.439L23.937 13.332ZM10.223 28.924H9.309C9.258 28.924 9.218 28.883 9.218 28.833V28.289L9.858 27.564C10.195 27.211 10.403 26.732 10.407 26.205V24.483C10.407 24.474 10.407 24.463 10.407 24.452C10.407 23.232 9.429 22.24 8.215 22.217H8.213H7.207C5.99 22.24 5.012 23.232 5.012 24.452C5.012 24.463 5.012 24.474 5.012 24.485V24.483V26.206C5.012 26.221 5.011 26.238 5.011 26.256C5.011 26.769 5.221 27.233 5.56 27.566L6.2 28.291V28.835C6.2 28.885 6.159 28.926 6.109 28.926H5.195C3.994 28.938 3.023 29.903 3.001 31.1V31.102V33.55C3 33.558 3 33.568 3 33.578C3 33.815 3.192 34.008 3.43 34.008C3.44 34.008 3.45 34.008 3.46 34.007H3.459H12.053C12.299 33.991 12.494 33.796 12.51 33.551V31.102C12.412 29.904 11.434 28.963 10.228 28.926H10.224L10.223 28.924ZM5.103 29.739H6.566C6.574 29.74 6.584 29.74 6.594 29.74C6.831 29.74 7.024 29.548 7.024 29.31C7.024 29.3 7.024 29.29 7.023 29.28V29.281V28.107C7.021 27.958 6.95 27.827 6.841 27.742L6.84 27.741L6.2 27.016C6.011 26.793 5.881 26.515 5.835 26.209L5.834 26.2V24.48C5.856 23.734 6.458 23.136 7.204 23.12H8.211C8.958 23.135 9.56 23.734 9.582 24.477V24.479V26.202C9.583 26.217 9.583 26.235 9.583 26.252C9.583 26.561 9.441 26.836 9.218 27.016L9.216 27.017L8.485 27.742C8.375 27.827 8.304 27.959 8.302 28.107V29.286C8.301 29.294 8.301 29.304 8.301 29.314C8.301 29.551 8.493 29.744 8.731 29.744C8.741 29.744 8.751 29.744 8.761 29.743H10.223C10.97 29.758 11.572 30.357 11.594 31.101V31.103V33.092C11.594 33.142 11.553 33.183 11.503 33.183H3.823C3.773 33.183 3.732 33.142 3.732 33.092V31.096C3.753 30.35 4.356 29.751 5.102 29.736L5.103 29.739ZM7.663 9.706C7.671 9.707 7.681 9.707 7.691 9.707C7.928 9.707 8.121 9.515 8.121 9.277C8.121 9.267 8.121 9.257 8.12 9.247V8.346C8.12 8.295 8.161 8.255 8.211 8.255H21.925V8.346L20.645 9.615C20.462 9.798 20.462 9.889 20.462 9.981C20.46 9.994 20.459 10.009 20.459 10.024C20.459 10.114 20.495 10.196 20.553 10.255C20.628 10.312 20.724 10.346 20.827 10.346C20.93 10.346 21.026 10.312 21.102 10.254L21.101 10.255L23.204 8.079C23.262 8.019 23.298 7.938 23.298 7.848C23.298 7.833 23.297 7.818 23.295 7.803V7.805C23.297 7.792 23.298 7.777 23.298 7.762C23.298 7.672 23.262 7.59 23.204 7.531L21.101 5.356C20.918 5.173 20.644 5.173 20.552 5.356C20.493 5.442 20.457 5.548 20.457 5.662C20.457 5.683 20.458 5.704 20.461 5.724V5.722C20.459 5.735 20.458 5.75 20.458 5.765C20.458 5.855 20.494 5.937 20.552 5.996L21.832 7.265V7.356H7.661C7.653 7.355 7.643 7.355 7.633 7.355C7.396 7.355 7.203 7.547 7.203 7.785C7.203 7.795 7.203 7.805 7.204 7.815V9.344C7.204 9.526 7.478 9.707 7.661 9.707L7.663 9.706ZM7.663 20.311C7.671 20.312 7.681 20.312 7.691 20.312C7.928 20.312 8.121 20.12 8.121 19.882C8.121 19.872 8.121 19.862 8.12 19.852V11.431C8.12 11.179 7.915 10.974 7.663 10.974C7.411 10.974 7.206 11.179 7.206 11.431V19.862C7.226 20.104 7.421 20.296 7.663 20.311ZM28.234 14.601C27.988 14.617 27.793 14.812 27.777 15.057V15.058V28.017C27.777 28.067 27.736 28.108 27.686 28.108H13.697V28.017L14.977 26.748C15.034 26.673 15.069 26.579 15.069 26.476C15.069 26.373 15.035 26.279 14.977 26.203L14.978 26.204C14.795 26.021 14.521 26.021 14.429 26.204L12.326 28.38C12.143 28.563 12.143 28.837 12.326 28.924L14.429 31.1C14.504 31.157 14.6 31.191 14.703 31.191C14.806 31.191 14.902 31.157 14.978 31.099L14.977 31.1C15.034 31.025 15.069 30.931 15.069 30.828C15.069 30.725 15.035 30.631 14.977 30.555L14.978 30.556L13.698 29.287V29.196H28.144C28.152 29.197 28.162 29.197 28.172 29.197C28.409 29.197 28.602 29.005 28.602 28.767C28.602 28.757 28.602 28.747 28.601 28.737V14.966C28.588 14.769 28.432 14.613 28.236 14.6L28.234 14.601ZM19.183 17.229C18.706 17.352 18.36 17.779 18.36 18.286C18.36 18.297 18.36 18.308 18.361 18.319V18.317V19.496C18.36 19.504 18.36 19.514 18.36 19.524C18.36 19.761 18.552 19.954 18.79 19.954C18.8 19.954 18.81 19.954 18.82 19.953C19.066 19.937 19.26 19.742 19.276 19.497V18.318C19.276 18.227 19.367 18.044 19.459 18.044C20.47 17.764 21.2 16.853 21.2 15.77C21.2 14.525 20.233 13.505 19.01 13.42H19.003H18.912C18.28 13.438 17.707 13.675 17.263 14.057L17.266 14.054C16.824 14.461 16.544 15.04 16.535 15.684V15.686C16.535 15.938 16.74 16.143 16.992 16.143C17.244 16.143 17.449 15.938 17.449 15.686C17.449 15.682 17.449 15.678 17.449 15.674C17.449 15.252 17.624 14.87 17.906 14.598C18.161 14.33 18.515 14.158 18.909 14.141H18.912H19.003C19.788 14.192 20.412 14.814 20.466 15.594V15.599C20.364 16.347 19.869 16.958 19.2 17.225L19.186 17.23L19.183 17.229ZM18.726 21.943C18.328 21.939 18.007 21.616 18.007 21.218C18.007 20.818 18.332 20.493 18.732 20.493C19.132 20.493 19.457 20.818 19.457 21.218C19.457 21.22 19.457 21.223 19.457 21.225C19.457 21.621 19.136 21.943 18.739 21.943C18.734 21.943 18.73 21.943 18.726 21.943ZM18.726 20.855C18.524 20.855 18.36 21.019 18.36 21.221C18.36 21.423 18.524 21.587 18.726 21.587C18.928 21.587 19.092 21.423 19.092 21.221C19.077 21.026 18.922 20.872 18.727 20.859H18.726V20.855Z" fill="#fff"/>
</svg>
