<svg width="36" height="36" viewBox="0 0 36 36" fill="none" xmlns="http://www.w3.org/2000/svg">
<g clip-path="url(#clip0_8_36)">
<path d="M24.8276 8.69067H10.8338C10.8236 8.6918 10.8124 8.6918 10.8011 8.6918C10.5075 8.6918 10.269 8.4533 10.269 8.15967C10.269 8.14842 10.269 8.13717 10.2701 8.12592V0.114799C10.269 0.104674 10.269 0.0934238 10.269 0.0821738C10.269 -0.212576 10.5075 -0.449951 10.8011 -0.449951C10.8124 -0.449951 10.8236 -0.449951 10.8349 -0.448826H24.8276C24.8378 -0.449951 24.849 -0.449951 24.8603 -0.449951C25.155 -0.449951 25.3924 -0.211451 25.3924 0.0821738C25.3924 0.0934238 25.3924 0.104674 25.3913 0.115924V0.114799V8.12705C25.3924 8.13717 25.3924 8.14842 25.3924 8.15967C25.3924 8.4533 25.1539 8.6918 24.8603 8.6918C24.849 8.6918 24.8389 8.6918 24.8276 8.69067ZM11.511 7.5623H24.3765V0.678424H11.511V7.5623ZM12.4133 1.6943H23.247V6.66005H12.4133V1.6943ZM24.8276 22.1209H10.8338C10.8236 22.122 10.8124 22.122 10.8011 22.122C10.5075 22.122 10.269 21.8835 10.269 21.5899C10.269 21.5787 10.269 21.5674 10.2701 21.5562V21.5573V13.545C10.269 13.5349 10.269 13.5237 10.269 13.5124C10.269 13.2188 10.5075 12.9803 10.8011 12.9803C10.8124 12.9803 10.8236 12.9803 10.8349 12.9814H24.8276C24.8378 12.9803 24.849 12.9803 24.8603 12.9803C25.155 12.9803 25.3924 13.2188 25.3924 13.5124C25.3924 13.5237 25.3924 13.5349 25.3913 13.5462V13.545V21.5573C25.3924 21.5674 25.3924 21.5787 25.3924 21.5899C25.3924 21.8847 25.1539 22.122 24.8603 22.122C24.849 22.122 24.8389 22.122 24.8276 22.1209ZM11.511 20.9925H24.3765V14.1087H11.511V20.9925ZM24.8276 35.55H10.8338C10.8236 35.5512 10.8124 35.5512 10.8011 35.5512C10.5075 35.5512 10.269 35.3127 10.269 35.019C10.269 35.0078 10.269 34.9965 10.2701 34.9853V34.9864V26.9742C10.269 26.964 10.269 26.9528 10.269 26.9415C10.269 26.6468 10.5075 26.4094 10.8011 26.4094C10.8124 26.4094 10.8236 26.4094 10.8349 26.4105H24.8276C24.8378 26.4094 24.849 26.4094 24.8603 26.4094C25.155 26.4094 25.3924 26.6479 25.3924 26.9415C25.3924 26.9528 25.3924 26.964 25.3913 26.9753V26.9742V34.9864C25.3924 34.9965 25.3924 35.0078 25.3924 35.019C25.3924 35.3138 25.1539 35.5512 24.8603 35.5512C24.849 35.5512 24.8389 35.5512 24.8276 35.55ZM11.511 34.4217H24.3765V27.5378H11.511V34.4217ZM5.41688 6.32142C5.36963 6.2303 5.3415 6.12117 5.3415 6.00642C5.3415 5.82192 5.4135 5.65542 5.52938 5.53055L7.335 4.17605L5.52938 2.82155C5.30325 2.70905 5.30325 2.2568 5.41688 2.0318C5.5305 1.8068 5.98163 1.80567 6.20663 1.9193L8.577 3.72492C8.6895 3.72492 8.80313 3.95105 8.80313 4.06355C8.80538 4.08492 8.8065 4.10967 8.8065 4.13555C8.8065 4.2773 8.76263 4.40892 8.68838 4.51805L8.6895 4.5158L6.31913 6.32142C5.868 6.66005 5.643 6.54755 5.41688 6.32142ZM8.12588 4.7408H0.56475C0.253125 4.7408 0 4.48767 0 4.17605C0 3.86442 0.253125 3.6113 0.56475 3.6113H8.12588C8.4375 3.6113 8.69063 3.86442 8.69063 4.17605C8.69063 4.48767 8.4375 4.7408 8.12588 4.7408ZM29.6798 19.863L27.3094 18.0574C27.1744 17.9517 27.0878 17.7897 27.0833 17.6063C27.0833 17.3802 27.0833 17.2665 27.3094 17.154L29.6798 15.3484C29.7709 15.3012 29.88 15.273 29.9948 15.273C30.1793 15.273 30.3458 15.345 30.4706 15.4609C30.5179 15.552 30.546 15.6612 30.546 15.7759C30.546 15.9604 30.474 16.1269 30.3581 16.2518L28.5525 17.6063L30.3581 18.9608C30.5843 19.0733 30.5843 19.5255 30.4706 19.7505C30.132 19.9767 29.7923 20.0892 29.6798 19.863ZM35.2103 18.171H27.6491C27.3375 18.171 27.0844 17.9179 27.0844 17.6063C27.0844 17.2947 27.3375 17.0415 27.6491 17.0415H34.6455V4.7408H28.4389C28.1273 4.7408 27.8741 4.48767 27.8741 4.17605C27.8741 3.86442 28.1273 3.6113 28.4389 3.6113H35.2103C35.2204 3.61017 35.2316 3.61017 35.2429 3.61017C35.5376 3.61017 35.775 3.84867 35.775 4.1423C35.775 4.15355 35.775 4.1648 35.7739 4.17605V17.604C35.7536 17.9067 35.5129 18.1474 35.2114 18.1677H35.2091L35.2103 18.171ZM5.41688 33.1797C5.36963 33.0885 5.3415 32.9794 5.3415 32.8647C5.3415 32.6802 5.4135 32.5137 5.52938 32.3888L7.335 31.0343L5.52938 29.6798C5.30325 29.5673 5.30325 29.115 5.41688 28.89C5.5305 28.665 5.98163 28.6639 6.20663 28.7775L8.577 30.5832C8.712 30.6889 8.79863 30.8509 8.80313 31.0343C8.80313 31.2604 8.80313 31.374 8.577 31.4865L6.20663 33.2922C6.11438 33.3675 5.994 33.4137 5.86463 33.4137C5.68013 33.4137 5.517 33.3214 5.418 33.1819L5.41688 33.1797ZM8.12588 31.4877H0.56475C0.554625 31.4888 0.543375 31.4888 0.532125 31.4888C0.237375 31.4888 0 31.2503 0 30.9567C0 30.9454 0 30.9342 0.001125 30.9229V30.924V17.6074C0 17.5973 0 17.586 0 17.5748C0 17.2812 0.2385 17.0427 0.532125 17.0427C0.543375 17.0427 0.554625 17.0427 0.565875 17.0438H0.56475H7.33613C7.64775 17.0438 7.90088 17.2969 7.90088 17.6085C7.90088 17.9202 7.64775 18.1733 7.33613 18.1733H1.1295V30.474H8.12588C8.136 30.4729 8.14725 30.4729 8.1585 30.4729C8.45213 30.4729 8.69063 30.7114 8.69063 31.005C8.69063 31.0163 8.69063 31.0275 8.6895 31.0388C8.658 31.2964 8.44088 31.4922 8.17763 31.4922C8.15963 31.4922 8.14163 31.491 8.12363 31.4888L8.12588 31.4877ZM14.6711 17.0427H15.7995V18.171H14.6711V17.0427ZM17.379 17.0427H18.5074V18.171H17.379V17.0427ZM19.9755 17.0427H21.1039V18.171H19.9755V17.0427ZM14.6711 30.4718H15.7995V31.6002H14.6711V30.4718ZM17.379 30.4718H18.5074V31.6002H17.379V30.4718ZM19.9755 30.4718H21.1039V31.6002H19.9755V30.4718Z" fill="#fff"/>
</g>
<defs>
<clipPath id="clip0_8_36">
<rect width="36" height="36" fill="white"/>
</clipPath>
</defs>
</svg>
