<svg width="36" height="36" viewBox="0 0 36 36" fill="none" xmlns="http://www.w3.org/2000/svg">
<path d="M13.067 34.001C13.064 34.001 13.061 34.001 13.058 34.001C12.865 34.001 12.697 33.891 12.614 33.731L12.613 33.728L7.613 25.092C7.569 25.028 7.543 24.95 7.543 24.865C7.543 24.78 7.569 24.701 7.614 24.636L7.613 24.637L12.613 16.001C12.698 15.838 12.865 15.728 13.058 15.728C13.061 15.728 13.064 15.728 13.068 15.728H13.886C13.977 15.728 14.068 15.637 14.068 15.455V13.455L7.068 2.91C7.025 2.831 7 2.737 7 2.637C7 2.537 7.025 2.443 7.07 2.361L7.068 2.364C7.153 2.201 7.32 2.091 7.513 2.091C7.516 2.091 7.519 2.091 7.523 2.091H11.068C11.216 2.094 11.346 2.164 11.431 2.272L11.432 2.273L17.977 12.091C17.977 12.182 18.068 12.182 18.159 12.182C18.25 12.182 18.341 12.182 18.341 12.091L24.886 2.182C24.983 2.089 25.107 2.024 25.246 2.001L25.25 2H28.795C28.798 2 28.801 2 28.804 2C28.997 2 29.165 2.11 29.248 2.27L29.249 2.273C29.292 2.352 29.317 2.446 29.317 2.546C29.317 2.646 29.292 2.74 29.247 2.822L29.249 2.819L22.249 13.364V15.364C22.249 15.455 22.34 15.637 22.431 15.637H23.249C23.252 15.637 23.255 15.637 23.258 15.637C23.451 15.637 23.619 15.747 23.702 15.907L23.703 15.91L28.703 24.546C28.747 24.61 28.773 24.688 28.773 24.773C28.773 24.858 28.747 24.937 28.702 25.002L28.703 25.001L23.703 33.637C23.618 33.8 23.451 33.91 23.258 33.91C23.255 33.91 23.252 33.91 23.248 33.91H13.067V34.001ZM13.431 16.819C13.34 16.819 13.249 16.819 13.249 16.91L8.613 24.819V25.092L13.249 33.001C13.249 33.092 13.34 33.092 13.431 33.092H22.704C22.795 33.092 22.886 33.092 22.886 33.001L27.522 25.092V24.819L22.886 16.91C22.886 16.819 22.795 16.819 22.704 16.819H13.431ZM15.249 13.91C15.158 13.91 15.067 14.001 15.067 14.183V15.638C15.067 15.729 15.158 15.911 15.249 15.911H20.885C20.976 15.911 21.067 15.82 21.067 15.638V14.183C21.067 14.092 20.976 13.91 20.885 13.91H15.249ZM25.613 3.183C25.522 3.183 25.431 3.183 25.431 3.274L19.249 12.638C19.207 12.669 19.18 12.719 19.18 12.774C19.18 12.829 19.207 12.879 19.248 12.91C19.248 13.001 19.339 13.001 19.43 13.001H21.248C21.339 13.001 21.43 13.001 21.43 12.91L27.612 3.546C27.654 3.515 27.681 3.465 27.681 3.41C27.681 3.355 27.654 3.305 27.613 3.274C27.522 3.183 27.522 3.183 27.431 3.183H25.613ZM8.794 3.183C8.722 3.193 8.66 3.226 8.612 3.274V3.547L14.794 12.911C14.794 13.002 14.885 13.002 14.976 13.002H16.794C16.866 12.992 16.928 12.959 16.976 12.911V12.638L10.794 3.274C10.794 3.183 10.703 3.183 10.612 3.183H8.794ZM14.249 31.91C14.246 31.91 14.243 31.91 14.24 31.91C14.047 31.91 13.879 31.8 13.796 31.64L13.795 31.637L9.977 25.182C9.933 25.118 9.907 25.04 9.907 24.955C9.907 24.87 9.933 24.791 9.978 24.726L9.977 24.727L13.795 18.272C13.88 18.109 14.047 17.999 14.24 17.999C14.243 17.999 14.246 17.999 14.25 17.999H21.886C21.889 17.999 21.892 17.999 21.895 17.999C22.088 17.999 22.256 18.109 22.339 18.269L22.34 18.272L26.158 24.727C26.202 24.791 26.228 24.869 26.228 24.954C26.228 25.039 26.202 25.118 26.157 25.183L26.158 25.182L22.34 31.637C22.255 31.8 22.088 31.91 21.895 31.91C21.892 31.91 21.889 31.91 21.885 31.91H14.249ZM14.704 19.001C14.613 19.001 14.522 19.001 14.522 19.092L11.158 24.819V25.092L14.522 30.819C14.522 30.91 14.613 30.91 14.704 30.91H21.522C21.613 30.91 21.704 30.91 21.704 30.819L25.068 25.092V24.819L21.704 19.092C21.704 19.001 21.613 19.001 21.522 19.001H14.704ZM15.613 23.637C15.431 23.637 15.34 23.728 15.34 23.819C15.338 23.836 15.337 23.856 15.337 23.877C15.337 23.991 15.372 24.097 15.432 24.185L15.431 24.183L16.431 24.91C16.622 25.035 16.746 25.248 16.746 25.489C16.746 25.575 16.73 25.657 16.702 25.733L16.704 25.728L16.34 26.91C16.34 27.092 16.34 27.183 16.431 27.274C16.522 27.274 16.522 27.365 16.613 27.365C16.704 27.365 16.795 27.365 16.795 27.274L17.704 26.638C17.805 26.576 17.926 26.539 18.057 26.539C18.093 26.539 18.128 26.542 18.163 26.547H18.159C18.341 26.547 18.432 26.638 18.523 26.638L19.432 27.274C19.523 27.274 19.523 27.365 19.614 27.365C19.705 27.365 19.705 27.365 19.796 27.274C19.887 27.183 19.978 27.001 19.887 26.91L19.523 25.728C19.501 25.662 19.489 25.585 19.489 25.506C19.489 25.261 19.609 25.044 19.794 24.911L19.796 24.909L20.796 24.091C20.887 24 20.978 23.818 20.887 23.727C20.887 23.636 20.705 23.545 20.614 23.545H19.432C19.14 23.542 18.892 23.355 18.797 23.095L18.795 23.09L18.431 22.09C18.422 21.943 18.305 21.826 18.159 21.817C18.149 21.815 18.136 21.815 18.124 21.815C17.991 21.815 17.883 21.923 17.883 22.056C17.883 22.068 17.884 22.08 17.886 22.092L17.431 23.182C17.335 23.447 17.087 23.633 16.795 23.637H15.613Z" fill="#fff"/>
</svg>
