<svg width="36" height="36" viewBox="0 0 36 36" fill="none" xmlns="http://www.w3.org/2000/svg">
<path d="M30.489 6.811H31.588V7.899H30.489V6.811ZM30.489 8.895H31.588V9.983H30.489V8.895ZM30.489 11.071H31.588V12.159H30.489V11.071ZM5.023 13.247H6.122V14.335H5.023V13.247ZM5.023 15.422H6.122V16.51H5.023V15.422ZM5.023 17.508H6.122V18.596H5.023V17.508ZM16.928 13.519C16.781 13.202 16.47 12.984 16.106 12.975H16.105C16.102 12.975 16.099 12.975 16.096 12.975C15.731 12.975 15.418 13.197 15.284 13.513L15.282 13.519H14.733C14.848 12.942 15.35 12.512 15.953 12.512C16.006 12.512 16.059 12.515 16.111 12.522L16.105 12.521C16.114 12.521 16.125 12.521 16.136 12.521C16.766 12.521 17.298 12.937 17.474 13.509L17.477 13.519H16.928ZM21.324 13.519C21.177 13.202 20.866 12.984 20.502 12.975H20.501C20.498 12.975 20.495 12.975 20.492 12.975C20.127 12.975 19.814 13.197 19.681 13.513L19.679 13.519H19.13C19.245 12.942 19.747 12.512 20.35 12.512C20.403 12.512 20.456 12.515 20.508 12.522L20.502 12.521C21.135 12.536 21.668 12.943 21.87 13.508L21.873 13.518L21.324 13.519ZM18.302 30.742C17.258 30.733 16.415 29.884 16.415 28.839C16.415 27.788 17.267 26.935 18.319 26.935C19.371 26.935 20.223 27.787 20.223 28.838C20.223 28.849 20.223 28.861 20.223 28.873C20.223 29.905 19.386 30.742 18.354 30.742C18.336 30.742 18.318 30.742 18.3 30.741H18.303L18.302 30.742ZM2 33.915V33.371H5.023C5.034 33.373 5.046 33.374 5.059 33.374C5.192 33.374 5.3 33.266 5.3 33.133C5.3 33.12 5.299 33.108 5.297 33.096V26.12C5.364 21.8 8.882 18.324 13.212 18.324C13.231 18.324 13.251 18.324 13.27 18.324H13.267H13.907C13.998 18.324 14.181 18.233 14.181 18.141C14.181 18.049 14.181 17.867 14.09 17.867C13.012 16.962 12.255 15.707 11.993 14.279L11.987 14.241C11.979 14.093 11.861 13.975 11.713 13.967H11.712H11.346C11.335 13.967 11.323 13.967 11.311 13.967C10.117 13.967 9.15 12.999 9.15 11.806C9.15 11.04 9.548 10.367 10.149 9.983L10.158 9.978C10.216 9.918 10.252 9.837 10.252 9.747C10.252 9.732 10.251 9.717 10.249 9.702V9.704C10.399 5.418 13.91 2 18.219 2C22.528 2 26.039 5.418 26.188 9.691V9.705C26.188 9.796 26.279 9.888 26.279 9.979C26.886 10.351 27.285 11.01 27.285 11.763C27.285 11.773 27.285 11.784 27.285 11.794V11.792C27.274 12.55 26.88 13.214 26.288 13.6L26.28 13.605C26.222 13.665 26.186 13.746 26.186 13.836C26.186 13.851 26.187 13.866 26.189 13.881V13.879V14.786C26.187 16.138 25.091 17.234 23.739 17.234C23.731 17.234 23.723 17.234 23.715 17.234H23.076C22.985 17.234 22.893 17.234 22.893 17.325L22.344 17.869C22.253 17.96 22.253 18.052 22.253 18.235C22.253 18.326 22.436 18.418 22.527 18.418H23.167C23.183 18.418 23.203 18.418 23.222 18.418C27.552 18.418 31.07 21.894 31.137 26.208V26.214V33.195C31.135 33.206 31.134 33.218 31.134 33.231C31.134 33.364 31.242 33.472 31.375 33.472C31.388 33.472 31.4 33.471 31.412 33.469H31.411H34.434V34.008H2L2 33.915ZM23.618 18.866C23.527 18.866 23.435 18.957 23.344 19.049L21.145 23.309V23.583C21.236 23.674 21.328 23.766 21.419 23.766H26.091C26.098 23.766 26.106 23.766 26.114 23.766C27.466 23.766 28.563 24.862 28.564 26.214V33.195C28.562 33.206 28.561 33.218 28.561 33.231C28.561 33.364 28.669 33.472 28.802 33.472C28.815 33.472 28.827 33.471 28.839 33.469H28.838H30.484C30.495 33.471 30.507 33.472 30.52 33.472C30.653 33.472 30.761 33.364 30.761 33.231C30.761 33.218 30.76 33.206 30.758 33.194V26.211C30.755 22.226 27.581 18.983 23.623 18.869H23.612L23.618 18.866ZM10.611 24.215C10.596 24.215 10.578 24.214 10.559 24.214C9.527 24.214 8.69 25.051 8.69 26.083C8.69 26.095 8.69 26.108 8.69 26.12V26.118V33.099C8.688 33.11 8.687 33.122 8.687 33.135C8.687 33.268 8.795 33.376 8.928 33.376C8.941 33.376 8.953 33.375 8.965 33.373H27.743C27.754 33.375 27.766 33.376 27.779 33.376C27.912 33.376 28.02 33.268 28.02 33.135C28.02 33.122 28.019 33.11 28.017 33.098V33.099V26.119C28.005 25.067 27.15 24.218 26.097 24.215H10.61H10.611ZM12.992 18.866C9.051 18.969 5.89 22.168 5.847 26.114V26.118V33.099C5.845 33.11 5.844 33.122 5.844 33.135C5.844 33.268 5.952 33.376 6.085 33.376C6.098 33.376 6.11 33.375 6.122 33.373H6.121H7.767C7.778 33.375 7.79 33.376 7.803 33.376C7.936 33.376 8.044 33.268 8.044 33.135C8.044 33.122 8.043 33.11 8.041 33.098V33.099V26.119C8.044 24.768 9.14 23.674 10.491 23.674C10.501 23.674 10.51 23.674 10.52 23.674H15.191C15.282 23.674 15.374 23.583 15.465 23.491C15.508 23.46 15.535 23.41 15.535 23.354C15.535 23.298 15.508 23.248 15.465 23.217L13.271 18.956C13.18 18.956 13.088 18.865 12.997 18.865L12.992 18.866ZM21.42 18.866C21.329 18.866 21.237 18.957 21.146 19.049L18.952 23.4V23.674C19.043 23.765 19.135 23.857 19.226 23.857H20.232C20.323 23.857 20.415 23.766 20.506 23.674L22.7 19.323V19.049C22.609 18.958 22.517 18.866 22.426 18.866H21.42ZM14.275 18.866C14.184 18.866 14.092 18.957 14.001 19.049C13.958 19.08 13.931 19.13 13.931 19.186C13.931 19.242 13.958 19.292 14.001 19.323L16.195 23.674C16.286 23.765 16.378 23.857 16.469 23.857H17.475C17.566 23.857 17.658 23.766 17.749 23.674C17.792 23.643 17.819 23.593 17.819 23.537C17.819 23.481 17.792 23.431 17.749 23.4L15.555 19.049C15.464 18.958 15.372 18.866 15.281 18.866H14.275ZM16.561 19.232C16.47 19.232 16.378 19.232 16.378 19.323C16.32 19.383 16.284 19.464 16.284 19.554C16.284 19.569 16.285 19.584 16.287 19.599V19.597L18.024 22.952C18.115 23.043 18.207 23.135 18.298 23.135C18.389 23.135 18.481 23.044 18.572 22.952L20.309 19.597C20.4 19.506 20.309 19.414 20.309 19.323C20.263 19.273 20.199 19.239 20.127 19.232H20.126H20.035C19.621 19.352 19.146 19.422 18.654 19.422C18.561 19.422 18.468 19.419 18.376 19.415L18.389 19.416C17.73 19.398 17.099 19.332 16.484 19.222L16.56 19.233L16.561 19.232ZM16.652 8.718C16.561 8.718 16.469 8.809 16.378 8.809C15.516 9.935 14.213 10.686 12.731 10.802L12.713 10.803C12.565 10.811 12.447 10.929 12.439 11.077V11.078V13.254C12.481 15.541 13.842 17.501 15.793 18.407L15.829 18.422C16.525 18.765 17.344 18.966 18.211 18.966C19.078 18.966 19.897 18.765 20.625 18.408L20.593 18.422C21.014 18.226 21.374 18.015 21.711 17.773L21.69 17.787C21.781 17.696 21.873 17.604 21.781 17.421C21.781 17.33 21.598 17.238 21.507 17.238H18.49V16.781H22.612C22.624 16.783 22.638 16.783 22.652 16.783C22.743 16.783 22.825 16.747 22.886 16.689C23.613 15.743 24.057 14.547 24.075 13.248V13.244V11.615C24.077 11.604 24.078 11.592 24.078 11.579C24.078 11.446 23.97 11.338 23.837 11.338C23.824 11.338 23.812 11.339 23.8 11.341H23.801C20.686 11.25 18.03 10.253 16.931 8.803C16.87 8.745 16.788 8.709 16.697 8.709C16.683 8.709 16.669 8.71 16.655 8.712H16.657L16.652 8.718ZM24.805 14.066C24.794 14.064 24.782 14.063 24.769 14.063C24.636 14.063 24.528 14.171 24.528 14.304C24.528 14.317 24.529 14.329 24.531 14.341V14.34C24.433 15.091 24.174 15.767 23.789 16.352L23.8 16.334C23.757 16.365 23.73 16.415 23.73 16.471C23.73 16.527 23.757 16.577 23.8 16.608C23.861 16.666 23.943 16.702 24.034 16.702C24.048 16.702 24.062 16.701 24.076 16.699H24.074C25.002 16.611 25.722 15.836 25.722 14.893C25.722 14.859 25.721 14.825 25.719 14.791V14.796V14.252C25.719 14.161 25.719 14.069 25.628 14.069C25.537 13.978 25.537 13.978 25.445 13.978H24.805V14.066ZM24.896 10.259C24.885 10.257 24.873 10.256 24.86 10.256C24.727 10.256 24.619 10.364 24.619 10.497C24.619 10.51 24.62 10.522 24.622 10.534V10.533V13.253C24.62 13.264 24.619 13.276 24.619 13.289C24.619 13.422 24.727 13.53 24.86 13.53C24.873 13.53 24.885 13.529 24.897 13.527H25.17C25.182 13.527 25.195 13.527 25.209 13.527C26.11 13.527 26.841 12.796 26.841 11.895C26.841 10.994 26.11 10.263 25.209 10.263C25.195 10.263 25.182 10.263 25.168 10.263H25.17L24.896 10.259ZM11.431 10.259C11.42 10.259 11.406 10.259 11.392 10.259C10.491 10.259 9.76 10.99 9.76 11.891C9.76 12.792 10.491 13.523 11.392 13.523C11.406 13.523 11.419 13.523 11.433 13.522H11.431H11.705C11.716 13.524 11.728 13.525 11.741 13.525C11.874 13.525 11.982 13.417 11.982 13.284C11.982 13.271 11.981 13.259 11.979 13.247V13.248V10.527C11.981 10.516 11.982 10.504 11.982 10.491C11.982 10.358 11.874 10.25 11.741 10.25C11.728 10.25 11.716 10.251 11.704 10.253L11.431 10.259ZM16.652 7.087C16.663 7.085 16.675 7.084 16.688 7.084C16.821 7.084 16.929 7.192 16.929 7.325C16.929 7.338 16.928 7.35 16.926 7.362C16.926 8.994 19.491 10.716 23.796 10.897C23.887 10.897 23.979 10.897 23.979 10.806C24.07 10.715 24.07 10.715 24.07 10.623C23.992 7.503 21.444 5.003 18.312 5.003C18.308 5.003 18.303 5.003 18.299 5.003C18.262 5.002 18.22 5.002 18.177 5.002C15.252 5.002 12.844 7.213 12.532 10.054L12.53 10.079C12.528 10.092 12.527 10.107 12.527 10.122C12.527 10.212 12.563 10.294 12.621 10.353C12.712 10.444 12.712 10.444 12.804 10.444C14.815 10.261 16.377 8.994 16.377 7.543C16.382 7.174 16.474 7.082 16.658 7.082L16.652 7.087ZM18.298 4.367C18.312 4.367 18.329 4.367 18.346 4.367C21.421 4.367 23.98 6.577 24.521 9.496L24.527 9.535C24.535 9.683 24.653 9.801 24.801 9.809H25.351C25.442 9.809 25.534 9.809 25.534 9.718C25.592 9.658 25.628 9.577 25.628 9.487C25.628 9.472 25.627 9.457 25.625 9.442V9.444C25.231 5.661 22.059 2.737 18.205 2.737C14.351 2.737 11.179 5.661 10.788 9.411L10.785 9.443C10.783 9.456 10.782 9.471 10.782 9.486C10.782 9.576 10.818 9.658 10.876 9.717C10.967 9.808 10.967 9.808 11.059 9.808H11.608C11.619 9.81 11.631 9.811 11.644 9.811C11.777 9.811 11.885 9.703 11.885 9.57C11.885 9.557 11.884 9.545 11.882 9.533C12.568 6.565 15.179 4.384 18.303 4.363H18.305L18.298 4.367ZM25.817 28.567H26.366V31.74H25.817V28.567ZM25.817 26.482H26.366V27.026H25.817V26.482Z"  fill="#1A237E"/>
</svg>
