<svg width="36" height="36" viewBox="0 0 36 36" fill="none" xmlns="http://www.w3.org/2000/svg">
<path d="M25.046 8.998C26.903 8.995 28.407 7.489 28.407 5.632C28.407 5.602 28.407 5.572 28.406 5.542V5.546C28.407 5.517 28.407 5.483 28.407 5.449C28.407 3.593 26.903 2.089 25.047 2.089C23.191 2.089 21.687 3.593 21.687 5.449C21.687 5.483 21.687 5.517 21.689 5.551V5.546C21.688 5.572 21.688 5.601 21.688 5.632C21.688 7.488 23.191 8.994 25.046 8.998ZM7.32 15.435C9.316 15.399 10.924 13.791 10.96 11.798V11.795C10.93 9.778 9.329 8.145 7.327 8.065H7.32C5.308 8.096 3.689 9.734 3.689 11.75C3.689 13.766 5.308 15.405 7.317 15.435H7.32ZM7.32 8.532C9.072 8.532 10.492 9.952 10.492 11.704C10.492 13.456 9.072 14.876 7.32 14.876C5.568 14.876 4.148 13.456 4.148 11.704C4.148 9.952 5.568 8.532 7.32 8.532ZM33.908 23.179H32.508V18.048C32.508 18.047 32.508 18.045 32.508 18.044C32.508 16.861 31.549 15.902 30.366 15.902C30.364 15.902 30.363 15.902 30.361 15.902H27.469V12.822H30.641C32.227 12.822 32.881 11.329 33.067 10.396V7.036C33.058 6.885 32.938 6.765 32.788 6.756H32.787H30.641V4.893L34.001 3.587C34.101 3.58 34.181 3.501 34.187 3.401V3.4C34.18 3.3 34.101 3.22 34.001 3.213L30.455 2H30.269C30.176 2 30.176 2.093 30.176 2.186V10.116H21.779C21.686 10.116 21.686 10.116 21.593 10.209L18.328 13.101L18.235 13.194L16.555 16.18L13.01 17.766L9.745 16.74H4.894C4.894 16.74 2.374 17.206 2.562 19.54C2.748 21.686 2.562 25.698 2.562 25.698C2.562 25.791 2.562 25.791 2.655 25.884C2.704 25.933 2.768 25.967 2.84 25.977H2.842H4.895V33.439H2.283C2.132 33.448 2.012 33.568 2.003 33.718V33.719C2.001 33.73 2 33.742 2 33.754C2 33.891 2.111 34.001 2.247 34.001C2.259 34.001 2.272 34 2.284 33.998H10.306C10.457 33.989 10.577 33.869 10.586 33.719V33.718V30.638H18.609C18.76 30.629 18.88 30.509 18.889 30.359V27.186H25.513C25.664 27.177 25.784 27.057 25.793 26.907V26.906V23.546H34.096C34.247 23.537 34.367 23.417 34.376 23.267C34.376 23.083 34.003 23.176 33.91 23.176L33.908 23.179ZM30.641 2.561L33.253 3.401L30.641 4.427V2.561ZM25.791 10.584L24.765 12.544L23.925 10.584H25.791ZM5.361 20.1C5.352 19.949 5.232 19.829 5.082 19.82H5.081C5.07 19.818 5.058 19.817 5.046 19.817C4.909 19.817 4.799 19.928 4.799 20.064C4.799 20.076 4.8 20.089 4.802 20.101V20.1V25.511H3.028C3.028 24.578 3.121 21.406 3.028 19.54C2.935 17.58 4.894 17.208 4.894 17.208H7.04V21.779C7.049 21.93 7.169 22.05 7.319 22.059C7.33 22.061 7.343 22.062 7.355 22.062C7.492 22.062 7.602 21.951 7.602 21.815C7.602 21.803 7.601 21.79 7.599 21.778V17.207H9.745L13.105 18.233H13.291L16.836 16.647L17.769 18.233L13.569 20.379L9.929 19.633C9.836 19.633 9.743 19.633 9.743 19.726C9.557 19.726 9.463 19.726 9.463 19.819V22.899C9.472 23.05 9.592 23.17 9.742 23.179H12.729C14.315 23.179 14.409 24.859 14.409 24.859V30.08H12.078V25.88C12.069 25.729 11.949 25.609 11.799 25.6H11.798H7.878C7.727 25.609 7.607 25.729 7.598 25.879V33.44H5.362L5.361 20.1ZM10.304 30.081C10.153 30.09 10.033 30.21 10.024 30.36V33.441H8.064V26.164H11.609V30.084H10.304V30.081ZM18.607 26.721C18.456 26.73 18.336 26.85 18.327 27V30.081H14.875V24.765C14.782 24.019 14.315 22.619 12.729 22.619H9.929V20.099L13.289 20.845H13.475L17.955 18.513C17.956 18.513 17.956 18.513 17.957 18.513C18.007 18.513 18.048 18.472 18.048 18.422C18.048 18.421 18.048 18.421 18.048 18.42L20.568 14.78L22.34 13.66V26.724H18.606L18.607 26.721ZM25.138 26.721H22.806V13.29C22.806 13.197 22.806 13.104 22.713 13.104H22.433L20.287 14.41C20.286 14.41 20.286 14.41 20.285 14.41C20.235 14.41 20.194 14.451 20.194 14.501C20.194 14.502 20.194 14.502 20.194 14.503L17.862 17.863L17.676 17.583L16.93 16.277L18.61 13.385L21.782 10.585H23.462L24.488 13.197C24.495 13.297 24.574 13.377 24.674 13.383C24.747 13.373 24.813 13.339 24.861 13.29L26.167 10.678H30.271C30.422 10.669 30.542 10.549 30.551 10.399V10.398V7.318H32.511V10.398C32.511 10.398 32.138 12.358 30.551 12.358H27.191C27.04 12.367 26.92 12.487 26.911 12.637V12.638V16.183C26.92 16.334 27.04 16.454 27.19 16.463H27.191H30.271C30.364 16.463 32.043 16.556 32.043 18.143V23.273H29.711V19.073C29.702 18.922 29.582 18.802 29.432 18.793H25.419C25.268 18.802 25.148 18.922 25.139 19.072V19.073V23.366L25.046 23.459V26.724L25.138 26.721ZM29.241 23.179H25.698V19.259H29.241V23.179Z"  fill="#1A237E"/>
</svg>
