<svg width="36" height="36" viewBox="0 0 36 36" fill="none" xmlns="http://www.w3.org/2000/svg">
<path d="M3.857 8.84798C2.302 8.71798 1.09 7.42398 1.09 5.84698C1.09 5.80398 1.091 5.76098 1.093 5.71798V5.72398C1.089 5.66998 1.087 5.60598 1.087 5.54198C1.087 3.97598 2.308 2.69598 3.849 2.59998H3.857C5.407 2.69598 6.627 3.97698 6.627 5.54198C6.627 5.60598 6.625 5.66898 6.621 5.73198V5.72298C6.623 5.75998 6.624 5.80298 6.624 5.84598C6.624 7.42298 5.411 8.71698 3.868 8.84598L3.857 8.84798ZM3.857 2.78898C2.456 2.90498 1.363 4.06998 1.363 5.49098C1.363 5.53998 1.364 5.58798 1.367 5.63598V5.62898C1.365 5.66998 1.363 5.71798 1.363 5.76698C1.363 7.18798 2.456 8.35298 3.847 8.46898L3.857 8.46998C5.257 8.35298 6.348 7.18798 6.348 5.76798C6.348 5.71898 6.347 5.67098 6.344 5.62298V5.62998C6.345 5.60698 6.345 5.57998 6.345 5.55298C6.345 4.12098 5.261 2.94198 3.868 2.79198L3.856 2.79098L3.857 2.78898ZM4.226 34.6H3.397C2.582 34.567 1.933 33.903 1.922 33.086V23.902H1V11.784C1 11.775 1 11.765 1 11.754C1 10.218 2.232 8.96898 3.763 8.94298H3.765C4.657 9.01098 5.438 9.43598 5.973 10.074L5.977 10.079L9.11 13.298L12.612 11.215C12.814 11.089 13.06 11.014 13.323 11.014C13.859 11.014 14.322 11.324 14.544 11.775L14.548 11.783C14.673 11.992 14.747 12.243 14.747 12.512C14.747 13.052 14.448 13.523 14.007 13.768L14 13.772L9.484 16.423C9.393 16.514 9.21 16.514 9.118 16.612H9.027C8.954 16.626 8.87 16.634 8.785 16.634C8.411 16.634 8.073 16.481 7.83 16.234L6.532 14.812V23.901H5.61V33.084C5.611 33.1 5.611 33.119 5.611 33.138C5.611 33.918 5.001 34.555 4.231 34.599H4.227L4.226 34.6ZM2.29 23.994V33.18C2.293 33.847 2.824 34.389 3.486 34.411H3.488H4.225C4.889 34.389 5.42 33.847 5.423 33.181V23.713H6.345V14.155L8.188 16.048C8.433 16.283 8.766 16.428 9.133 16.428C9.157 16.428 9.181 16.427 9.205 16.426H9.202H9.293C9.384 16.426 9.476 16.335 9.567 16.335L13.99 13.684C14.342 13.457 14.572 13.066 14.572 12.622C14.572 12.423 14.526 12.235 14.443 12.067L14.446 12.074C14.245 11.707 13.862 11.463 13.421 11.463C13.225 11.463 13.04 11.512 12.878 11.597L12.884 11.594L9.198 13.772L5.88 10.459C5.39 9.86398 4.672 9.47198 3.861 9.41798H3.852C2.475 9.43198 1.364 10.551 1.364 11.93C1.364 11.947 1.364 11.963 1.365 11.98V11.978V23.807H2.106V23.898H2.289V23.989L2.29 23.994ZM33.347 34.6H32.607C31.792 34.566 31.144 33.902 31.134 33.084V24.186L30.305 24.277L29.107 15.946L28.278 16.798C28.076 17.003 27.83 17.164 27.555 17.267L27.541 17.272L22.565 18.692C22.468 18.714 22.357 18.727 22.243 18.727C21.569 18.727 20.999 18.279 20.816 17.664L20.813 17.653C20.786 17.547 20.771 17.425 20.771 17.299C20.771 16.626 21.209 16.056 21.816 15.858L21.827 15.855L26.435 14.624L28.647 12.352V12.261C28.633 12.152 28.624 12.026 28.624 11.898C28.624 10.496 29.613 9.32498 30.932 9.04498L30.951 9.04198C31.064 9.02398 31.195 9.01398 31.327 9.01398C31.957 9.01398 32.534 9.23898 32.983 9.61298L32.979 9.60998C33.524 10.098 33.916 10.746 34.081 11.48L34.086 11.504L35.744 23.528L34.822 23.619V33.084C34.779 33.89 34.148 34.535 33.353 34.6H33.347ZM31.412 23.903V33.083C31.415 33.75 31.946 34.292 32.608 34.314H32.61H33.347C34.011 34.292 34.541 33.75 34.545 33.084V23.43L35.374 23.339L33.716 11.599C33.591 10.921 33.26 10.335 32.792 9.89298L32.79 9.89198C32.368 9.58398 31.839 9.39898 31.267 9.39898C31.154 9.39898 31.043 9.40598 30.934 9.41998L30.947 9.41898C29.77 9.58398 28.873 10.584 28.873 11.794C28.873 11.959 28.89 12.12 28.921 12.276L28.918 12.261V12.45L26.614 14.817L21.914 16.143C21.412 16.279 21.049 16.731 21.049 17.267C21.049 17.372 21.063 17.473 21.089 17.57L21.087 17.562C21.187 17.875 21.379 18.134 21.631 18.316L21.635 18.319C21.774 18.417 21.947 18.475 22.134 18.475C22.253 18.475 22.367 18.451 22.47 18.408L22.464 18.41L27.448 16.995C27.68 16.947 27.874 16.809 27.995 16.62L27.997 16.617L29.195 15.386L30.393 24.001L31.412 23.903ZM29.292 9.13298C27.737 9.00298 26.525 7.70898 26.525 6.13198C26.525 6.08898 26.526 6.04598 26.528 6.00298V6.00898C26.524 5.95498 26.522 5.89098 26.522 5.82698C26.522 4.26098 27.743 2.98098 29.284 2.88498H29.292C30.842 2.98098 32.062 4.26198 32.062 5.82698C32.062 5.89098 32.06 5.95398 32.056 6.01698V6.00798C32.058 6.04498 32.059 6.08798 32.059 6.13098C32.059 7.70798 30.846 9.00198 29.303 9.13098L29.292 9.13298ZM29.292 3.16798C27.891 3.28398 26.798 4.44898 26.798 5.86998C26.798 5.91898 26.799 5.96698 26.802 6.01498V6.00798C26.8 6.04898 26.798 6.09798 26.798 6.14698C26.798 7.56698 27.89 8.73198 29.279 8.84798L29.289 8.84898C30.689 8.73198 31.78 7.56698 31.78 6.14698C31.78 6.09798 31.779 6.04998 31.776 6.00198V6.00898C31.777 5.98598 31.777 5.95898 31.777 5.93098C31.777 4.49998 30.694 3.32098 29.303 3.16998L29.291 3.16898L29.292 3.16798ZM20.905 34.6H15.745C14.723 34.583 13.902 33.75 13.902 32.726C13.902 32.719 13.902 32.712 13.902 32.706V32.707V27.404C13.902 27.398 13.902 27.392 13.902 27.385C13.902 26.361 14.724 25.528 15.744 25.511H15.746H20.906C21.928 25.528 22.749 26.361 22.749 27.385C22.749 27.392 22.749 27.399 22.749 27.405V27.404V32.707C22.749 32.713 22.749 32.719 22.749 32.726C22.749 33.75 21.927 34.583 20.907 34.6H20.905ZM15.744 25.7C14.88 25.738 14.192 26.441 14.177 27.308V32.612C14.192 33.48 14.88 34.183 15.741 34.221H15.744H20.905C21.769 34.183 22.457 33.48 22.472 32.613V32.612V27.309C22.457 26.441 21.769 25.738 20.908 25.7H20.905H15.744ZM20.905 24.754H15.745C14.723 24.737 13.902 23.904 13.902 22.88C13.902 22.873 13.902 22.866 13.902 22.86V17.558C13.902 17.553 13.902 17.546 13.902 17.539C13.902 16.515 14.724 15.682 15.744 15.665H15.746H21.276L21.733 15.756L21.367 15.945C20.89 16.229 20.575 16.741 20.575 17.327C20.575 17.475 20.595 17.618 20.633 17.754L20.63 17.743C20.737 18.155 21.004 18.49 21.359 18.686L21.367 18.69C21.616 18.829 21.914 18.911 22.23 18.911C22.348 18.911 22.464 18.9 22.576 18.878L22.565 18.88L22.748 18.789V22.765C22.749 22.792 22.75 22.824 22.75 22.855C22.75 23.884 21.931 24.722 20.909 24.753H20.906L20.905 24.754ZM15.744 15.95C14.88 15.988 14.192 16.691 14.177 17.558V17.559V22.862C14.192 23.73 14.88 24.433 15.741 24.471H15.744H20.905C21.769 24.433 22.457 23.73 22.472 22.863V22.862V19.168C22.367 19.191 22.247 19.204 22.124 19.204C21.812 19.204 21.519 19.121 21.266 18.975L21.274 18.979C20.852 18.739 20.547 18.334 20.447 17.853L20.445 17.842C20.399 17.689 20.373 17.513 20.373 17.33C20.373 16.781 20.612 16.288 20.992 15.95L20.994 15.948H15.745L15.744 15.95ZM9.754 8.09098L14.177 5.34798C14.425 5.20898 14.721 5.12598 15.037 5.12598C15.69 5.12598 16.26 5.47798 16.569 6.00198L16.574 6.00998L19.154 10.649C19.296 10.905 19.38 11.211 19.38 11.536C19.38 12.196 19.036 12.776 18.517 13.106L18.509 13.111L14.086 15.854C13.832 16.017 13.522 16.114 13.19 16.114C12.658 16.114 12.184 15.866 11.877 15.479L11.874 15.476L14.178 14.056C14.705 13.722 15.049 13.142 15.049 12.482C15.049 12.157 14.965 11.851 14.819 11.585L14.824 11.595C14.517 11.058 13.948 10.703 13.295 10.703C12.976 10.703 12.677 10.788 12.419 10.937L12.427 10.932L10.215 12.352L9.199 10.549C9.021 10.278 8.915 9.94498 8.915 9.58798C8.915 8.95798 9.244 8.40498 9.74 8.09198L9.747 8.08798L9.754 8.09098Z" fill="#fff"/>
</svg>
