<svg width="36" height="36" viewBox="0 0 36 36" fill="none" xmlns="http://www.w3.org/2000/svg">
<path d="M30.279 33.6C30.174 33.582 30.081 33.55 29.995 33.505L30 33.507L27.395 30.995L27.302 30.902H27.209C26.468 31.139 25.617 31.275 24.733 31.275C24.688 31.275 24.643 31.275 24.598 31.274H24.605C24.559 31.275 24.505 31.275 24.451 31.275C22.983 31.275 21.596 30.931 20.365 30.319L20.418 30.343C20.285 30.264 20.197 30.121 20.197 29.957C20.197 29.895 20.21 29.835 20.233 29.782L20.232 29.785C20.303 29.638 20.439 29.533 20.601 29.506H20.604H20.79C21.887 30.035 23.175 30.343 24.536 30.343C24.56 30.343 24.584 30.343 24.608 30.343H24.604C25.573 30.331 26.499 30.162 27.362 29.859L27.301 29.877H27.487C27.592 29.895 27.685 29.927 27.771 29.972L27.766 29.97L29.533 31.644L29.626 31.737H29.719C29.812 31.737 29.812 31.644 29.812 31.551V28.76C29.837 28.614 29.903 28.487 29.998 28.388C31.989 26.809 33.254 24.391 33.254 21.677C33.254 16.958 29.428 13.132 24.709 13.132C24.672 13.132 24.634 13.132 24.597 13.133H24.603C24.594 13.133 24.583 13.133 24.572 13.133C23.48 13.133 22.435 13.338 21.475 13.711L21.533 13.691C21.482 13.691 21.44 13.733 21.44 13.784C20.706 16.602 18.801 18.873 16.288 20.085L16.23 20.11C16.179 20.11 16.137 20.152 16.137 20.203C16.075 20.553 16.04 20.956 16.04 21.367C16.04 21.448 16.041 21.53 16.044 21.61V21.598C16.044 22.95 16.353 24.23 16.904 25.371L16.881 25.319C16.974 25.412 16.974 25.505 16.881 25.691C16.881 25.7843 16.788 25.8773 16.602 25.97H16.416C16.23 25.97 16.044 25.877 16.044 25.691C15.457 24.523 15.113 23.145 15.113 21.687C15.113 21.656 15.113 21.625 15.113 21.594V21.599V20.762C15.113 20.669 15.113 20.669 15.02 20.576H14.834C13.946 20.86 12.923 21.029 11.863 21.041H11.857C11.847 21.041 11.835 21.041 11.824 21.041C10.668 21.041 9.56101 20.836 8.53501 20.462L8.60201 20.483H8.50901C8.41601 20.483 8.41601 20.483 8.41601 20.576L6.18301 22.716C6.12201 22.775 6.03801 22.812 5.94601 22.812C5.93101 22.812 5.91701 22.811 5.90201 22.809H5.90401H5.71801C5.57101 22.738 5.46601 22.602 5.43901 22.44V22.437V18.809C5.43901 18.716 5.43901 18.716 5.34601 18.716C3.28901 16.918 1.99701 14.288 1.99701 11.357C1.99701 5.968 6.36601 1.599 11.755 1.599C11.791 1.599 11.827 1.599 11.863 1.6H11.858C13.234 1.614 14.543 1.886 15.744 2.37L15.672 2.344L16.788 2.902C16.881 2.995 16.974 3.088 16.974 3.181V3.553C16.875 3.648 16.748 3.714 16.606 3.738L16.602 3.739C16.509 3.739 16.416 3.739 16.416 3.646C16.123 3.467 15.784 3.309 15.428 3.191L15.393 3.181C14.415 2.769 13.278 2.529 12.086 2.529C12.039 2.529 11.992 2.529 11.944 2.53H11.951C11.946 2.53 11.94 2.53 11.934 2.53C7.03801 2.53 3.06401 6.477 3.02101 11.363V11.367C3.04001 14.101 4.29801 16.538 6.26101 18.145L6.27701 18.157C6.38801 18.244 6.46001 18.378 6.46301 18.529V20.948C6.46301 21.041 6.46301 21.041 6.55601 21.134H6.64901C6.70001 21.134 6.74201 21.092 6.74201 21.041L8.13701 19.646C8.19801 19.587 8.28201 19.55 8.37401 19.55C8.38901 19.55 8.40301 19.551 8.41801 19.553H8.41601H8.60201C9.53401 19.966 10.62 20.206 11.763 20.206C11.829 20.206 11.895 20.205 11.961 20.204H11.951C11.956 20.204 11.962 20.204 11.968 20.204C16.864 20.204 20.838 16.257 20.881 11.371V11.367C20.872 9.9 20.494 8.523 19.835 7.323L19.857 7.367C19.839 7.312 19.829 7.249 19.829 7.183C19.829 6.997 19.912 6.83 20.042 6.716L20.043 6.715C20.136 6.715 20.136 6.622 20.229 6.622C20.415 6.622 20.601 6.715 20.601 6.901C21.304 8.182 21.717 9.708 21.717 11.331C21.717 11.343 21.717 11.356 21.717 11.368V11.366C21.719 11.417 21.721 11.476 21.721 11.535C21.721 11.838 21.686 12.132 21.619 12.415L21.624 12.389C21.624 12.482 21.624 12.482 21.717 12.575H21.903C22.654 12.338 23.517 12.201 24.412 12.201C24.478 12.201 24.544 12.202 24.61 12.203H24.6C24.615 12.203 24.634 12.203 24.652 12.203C29.868 12.203 34.105 16.393 34.181 21.591V21.598C34.181 21.612 34.181 21.629 34.181 21.646C34.181 24.502 32.884 27.055 30.847 28.749L30.832 28.761L30.739 28.854V33.133C30.739 33.319 30.646 33.505 30.46 33.505C30.413 33.556 30.348 33.591 30.275 33.598L30.279 33.6ZM18.186 28.67C18.093 28.67 17.907 28.67 17.907 28.577L17.814 28.484C17.755 28.423 17.718 28.339 17.718 28.247C17.718 28.232 17.719 28.218 17.721 28.203V28.205C17.739 28.1 17.771 28.007 17.816 27.921L17.814 27.926C17.875 27.867 17.959 27.83 18.051 27.83C18.066 27.83 18.08 27.831 18.095 27.833H18.093C18.186 27.833 18.372 27.833 18.372 27.926L18.465 28.019C18.524 28.08 18.561 28.164 18.561 28.256C18.561 28.271 18.56 28.285 18.558 28.3V28.298C18.558 28.391 18.558 28.577 18.465 28.577C18.465 28.67 18.372 28.67 18.186 28.67ZM18.744 5.693C18.651 5.693 18.558 5.693 18.372 5.507C18.286 5.425 18.232 5.309 18.232 5.181C18.232 5.053 18.286 4.937 18.372 4.856C18.433 4.797 18.517 4.76 18.609 4.76C18.624 4.76 18.638 4.761 18.653 4.763H18.651C18.744 4.763 18.837 4.763 19.023 4.949C19.109 5.031 19.163 5.147 19.163 5.275C19.163 5.403 19.109 5.519 19.023 5.6C18.962 5.659 18.878 5.696 18.786 5.696C18.771 5.696 18.757 5.695 18.742 5.693H18.744ZM8.60501 10.344C8.50001 10.326 8.40701 10.294 8.32101 10.249L8.32601 10.251C8.26701 10.19 8.23001 10.106 8.23001 10.014C8.23001 9.999 8.23101 9.985 8.23301 9.97V9.972C8.25101 9.867 8.28301 9.774 8.32801 9.688L8.32601 9.693C8.38701 9.634 8.47101 9.597 8.56301 9.597C8.57801 9.597 8.59201 9.598 8.60701 9.6H8.60501C8.71001 9.618 8.80301 9.65 8.88901 9.695L8.88401 9.693C8.94301 9.754 8.98001 9.838 8.98001 9.93C8.98001 9.945 8.97901 9.959 8.97701 9.974V9.972C8.95901 10.077 8.92701 10.17 8.88201 10.256L8.88401 10.251C8.79101 10.251 8.69801 10.344 8.60501 10.344ZM15.023 10.344C14.918 10.326 14.825 10.294 14.739 10.249L14.744 10.251C14.685 10.19 14.648 10.106 14.648 10.014C14.648 9.999 14.649 9.985 14.651 9.97V9.972C14.669 9.867 14.701 9.774 14.746 9.688L14.744 9.693C14.805 9.634 14.889 9.597 14.981 9.597C14.996 9.597 15.01 9.598 15.025 9.6H15.023C15.128 9.618 15.221 9.65 15.307 9.695L15.302 9.693C15.361 9.754 15.398 9.838 15.398 9.93C15.398 9.945 15.397 9.959 15.395 9.974V9.972C15.377 10.077 15.345 10.17 15.3 10.256L15.302 10.251C15.209 10.251 15.116 10.344 15.023 10.344ZM11.767 15.926C11.747 15.927 11.722 15.927 11.698 15.927C10.436 15.927 9.37601 15.065 9.07301 13.898L9.06901 13.879C9.05601 13.839 9.04901 13.794 9.04901 13.746C9.04901 13.551 9.17201 13.385 9.34501 13.322L9.34801 13.321H9.44101C9.44201 13.321 9.44201 13.321 9.44301 13.321C9.66901 13.321 9.85801 13.479 9.90601 13.69L9.90701 13.693C10.106 14.501 10.824 15.09 11.68 15.09C11.711 15.09 11.741 15.089 11.772 15.088H11.768C12.64 15.073 13.373 14.497 13.625 13.707L13.629 13.693C13.711 13.5 13.883 13.359 14.09 13.321L14.094 13.32H14.187C14.37 13.354 14.507 13.513 14.507 13.704C14.507 13.768 14.492 13.828 14.465 13.881L14.466 13.879C14.159 15.065 13.099 15.926 11.837 15.926C11.813 15.926 11.789 15.926 11.765 15.925H11.769L11.767 15.926ZM21.442 20.577C21.337 20.559 21.244 20.527 21.158 20.482L21.163 20.484C21.104 20.423 21.067 20.339 21.067 20.247C21.067 20.232 21.068 20.218 21.07 20.203V20.205C21.088 20.1 21.12 20.007 21.165 19.921L21.163 19.926C21.224 19.867 21.308 19.83 21.4 19.83C21.415 19.83 21.429 19.831 21.444 19.833H21.442C21.547 19.851 21.64 19.883 21.726 19.928L21.721 19.926C21.78 19.987 21.817 20.071 21.817 20.163C21.817 20.178 21.816 20.192 21.814 20.207V20.205C21.796 20.31 21.764 20.403 21.719 20.489L21.721 20.484C21.721 20.577 21.535 20.577 21.442 20.577ZM27.674 20.577C27.569 20.559 27.476 20.527 27.39 20.482L27.395 20.484C27.336 20.423 27.299 20.339 27.299 20.247C27.299 20.232 27.3 20.218 27.302 20.203V20.205C27.32 20.1 27.352 20.007 27.397 19.921L27.395 19.926C27.456 19.867 27.54 19.83 27.632 19.83C27.647 19.83 27.661 19.831 27.676 19.833H27.674C27.779 19.851 27.872 19.883 27.958 19.928L27.953 19.926C28.012 19.987 28.049 20.071 28.049 20.163C28.049 20.178 28.048 20.192 28.046 20.207V20.205C28.028 20.31 27.996 20.403 27.951 20.489L27.953 20.484C27.953 20.577 27.767 20.577 27.674 20.577ZM24.605 25.972C24.603 25.972 24.602 25.972 24.6 25.972C23.374 25.972 22.338 25.156 22.006 24.038L22.001 24.019C21.988 23.979 21.981 23.934 21.981 23.886C21.981 23.691 22.104 23.525 22.277 23.462L22.28 23.461H22.373C22.374 23.461 22.374 23.461 22.375 23.461C22.601 23.461 22.79 23.619 22.838 23.83L22.839 23.833C23.08 24.594 23.78 25.136 24.606 25.136C25.432 25.136 26.132 24.594 26.37 23.846L26.374 23.833C26.456 23.64 26.627 23.499 26.835 23.461L26.839 23.46H26.932C27.115 23.494 27.252 23.653 27.252 23.844C27.252 23.908 27.237 23.968 27.21 24.021L27.211 24.019C26.874 25.157 25.838 25.972 24.612 25.972C24.61 25.972 24.608 25.972 24.606 25.972H24.605Z" fill="#fff"/>
</svg>
