<svg xmlns="http://www.w3.org/2000/svg" width="21.446" height="21.458" viewBox="0 0 21.446 21.458">
  <path id="path376" d="M1590.4,7046.59a2.561,2.561,0,0,0-2.553,2.554v16.341a2.561,2.561,0,0,0,2.553,2.553h8.6c.028,0,.056.01.083.01a.239.239,0,0,0,.083-.01h2.9c.028,0,.056.01.083.01a.239.239,0,0,0,.083-.01h4.515a2.561,2.561,0,0,0,2.553-2.553v-16.341a2.561,2.561,0,0,0-2.553-2.554H1590.4Zm0,1.021h16.341a1.525,1.525,0,0,1,1.532,1.532v16.341a1.525,1.525,0,0,1-1.532,1.532h-4.085v-7.149h1.951l.715-3.575h-2.666v-1.021c0-.285.027-.307.123-.369a1.994,1.994,0,0,1,.9-.142h1.532v-2.875l-.291-.139a7.045,7.045,0,0,0-2.773-.561,3.36,3.36,0,0,0-2.7,1.213,4.54,4.54,0,0,0-.878,2.873v1.021h-1.532v3.575h1.532v7.149H1590.4a1.525,1.525,0,0,1-1.532-1.532v-16.341a1.525,1.525,0,0,1,1.532-1.532Zm11.745,4.6a5.373,5.373,0,0,1,2.043.358v1.174h-.511a2.575,2.575,0,0,0-1.455.306,1.443,1.443,0,0,0-.588,1.226v2.042h2.441l-.306,1.532h-2.135v8.17h-2.043v-8.17h-1.532v-1.532h1.532v-2.042a3.565,3.565,0,0,1,.654-2.234,2.254,2.254,0,0,1,1.9-.83Z" transform="translate(-1587.847 -7046.59)" fill="#fff" fill-rule="evenodd"/>
</svg>
