<svg xmlns="http://www.w3.org/2000/svg" width="22.469" height="22.469" viewBox="0 0 22.469 22.469">
  <path id="path372" d="M1535.4,7046.08a6.647,6.647,0,0,0-6.639,6.639v9.192a6.646,6.646,0,0,0,6.639,6.638h9.192a6.646,6.646,0,0,0,6.638-6.638v-9.192a6.647,6.647,0,0,0-6.638-6.639Zm0,1.021h9.192a5.61,5.61,0,0,1,5.617,5.617v9.192a5.61,5.61,0,0,1-5.617,5.617H1535.4a5.61,5.61,0,0,1-5.617-5.617v-9.192A5.61,5.61,0,0,1,1535.4,7047.1Zm10.724,3.064a1.021,1.021,0,1,0,1.021,1.021A1.022,1.022,0,0,0,1546.124,7050.165ZM1540,7051.7a5.617,5.617,0,1,0,5.617,5.617A5.625,5.625,0,0,0,1540,7051.7Zm0,1.021a4.6,4.6,0,1,1-4.6,4.6A4.588,4.588,0,0,1,1540,7052.718Z" transform="translate(-1528.761 -7046.08)" fill="#fff" fill-rule="evenodd"/>
</svg>
