<svg xmlns="http://www.w3.org/2000/svg" width="21.448" height="21.448" viewBox="0 0 21.448 21.448">
  <path id="path374" d="M1473.25,7046.59a2.561,2.561,0,0,0-2.553,2.554v16.341a2.561,2.561,0,0,0,2.553,2.553h16.341a2.561,2.561,0,0,0,2.553-2.553v-16.341a2.561,2.561,0,0,0-2.553-2.554Zm0,1.021h16.341a1.525,1.525,0,0,1,1.532,1.532v16.341a1.525,1.525,0,0,1-1.532,1.532H1473.25a1.524,1.524,0,0,1-1.532-1.532v-16.341A1.525,1.525,0,0,1,1473.25,7047.611Zm2.553,2.559a2.2,2.2,0,0,0-1.435.481,1.684,1.684,0,0,0-.6,1.284,1.884,1.884,0,0,0,1.879,1.771s0,0,0,0a.511.511,0,0,0,.156.027,1.911,1.911,0,0,0,2.036-1.8c0-.01,0-.018,0-.027a1.934,1.934,0,0,0-2.036-1.737Zm0,1.009c.711,0,.992.317,1.022.768-.01.438-.277.776-1.022.776-.708,0-1.027-.362-1.027-.789a.626.626,0,0,1,.241-.512A1.205,1.205,0,0,1,1475.8,7051.18Zm-1.532,3.07a.511.511,0,0,0-.51.511v9.7a.511.511,0,0,0,.511.51h3.064a.511.511,0,0,0,.511-.511v-9.7a.511.511,0,0,0-.51-.511h-3.064Zm4.6,0a.511.511,0,0,0-.51.511v9.7a.511.511,0,0,0,.511.51h3.064a.511.511,0,0,0,.511-.511v-5.106a1.956,1.956,0,0,1,.319-1.121,1.024,1.024,0,0,1,.949-.433,1.108,1.108,0,0,1,.971.452,1.89,1.89,0,0,1,.314,1.1v5.107a.511.511,0,0,0,.511.51h3.064a.511.511,0,0,0,.51-.511v-5.483a4.992,4.992,0,0,0-1.216-3.521,4.019,4.019,0,0,0-2.965-1.209,4.458,4.458,0,0,0-2.458.727v-.216a.511.511,0,0,0-.511-.511h-3.064Zm-4.085,1.021h2.043v8.681h-2.043Zm4.6,0h2.043v.8a.511.511,0,0,0,.919.307,3.208,3.208,0,0,1,2.561-1.1,2.962,2.962,0,0,1,2.224.89,3.954,3.954,0,0,1,.936,2.819v4.973h-2.043v-4.6a2.844,2.844,0,0,0-.516-1.712,2.223,2.223,0,0,0-1.773-.863,2.145,2.145,0,0,0-1.788.849,2.893,2.893,0,0,0-.519,1.727v4.6h-2.043v-8.681Z" transform="translate(-1470.697 -7046.59)" fill="#fff" fill-rule="evenodd"/>
</svg>
