<svg xmlns="http://www.w3.org/2000/svg" width="25.545" height="20.953" viewBox="0 0 25.545 20.953">
  <path id="path378" d="M1426.01,7046.84a5.543,5.543,0,0,0-5.537,5.537,5.454,5.454,0,0,0,.064.543,13.731,13.731,0,0,1-9.383-4.963.511.511,0,0,0-.846.064,5.423,5.423,0,0,0,.367,6.048c-.132-.058-.276-.09-.4-.16a.508.508,0,0,0-.5.012.514.514,0,0,0-.249.435v.064a5.51,5.51,0,0,0,2.41,4.516h-.048a.51.51,0,0,0-.574.654,5.55,5.55,0,0,0,3.83,3.623,9.617,9.617,0,0,1-6.032,1.292.511.511,0,0,0-.335.941,14.728,14.728,0,0,0,7.979,2.346,14.342,14.342,0,0,0,11.011-4.835,15.367,15.367,0,0,0,3.814-9.99c0-.146-.012-.287-.016-.431a10.7,10.7,0,0,0,2.426-2.537.511.511,0,0,0-.639-.75c-.263.118-.571.129-.846.223a5.418,5.418,0,0,0,.862-1.6.52.52,0,0,0-.172-.555.511.511,0,0,0-.578-.036,9.565,9.565,0,0,1-2.856,1.1,5.5,5.5,0,0,0-3.75-1.548Zm0,1.021a4.521,4.521,0,0,1,3.3,1.437.514.514,0,0,0,.479.144,10.514,10.514,0,0,0,1.915-.575,4.541,4.541,0,0,1-1.309,1.2.511.511,0,0,0,.335.958,10.535,10.535,0,0,0,1.452-.4,9.732,9.732,0,0,1-1.436,1.277.509.509,0,0,0-.208.447c.01.208.016.413.016.623a14.366,14.366,0,0,1-3.559,9.3,13.267,13.267,0,0,1-10.245,4.5,13.656,13.656,0,0,1-5.7-1.245,10.571,10.571,0,0,0,5.745-2.187.511.511,0,0,0-.3-.91,4.473,4.473,0,0,1-3.846-2.394h.08a5.578,5.578,0,0,0,1.468-.191.511.511,0,0,0-.032-.99,4.484,4.484,0,0,1-3.495-3.686,5.417,5.417,0,0,0,1.612.335.511.511,0,0,0,.3-.941,4.522,4.522,0,0,1-2.011-3.766,4.436,4.436,0,0,1,.351-1.628,14.741,14.741,0,0,0,10.165,4.867.51.51,0,0,0,.527-.623,4.49,4.49,0,0,1,4.388-5.554Z" transform="translate(-1408.532 -7046.84)" fill="#fff" fill-rule="evenodd"/>
</svg>
