<?xml version="1.0" encoding="UTF-8"?>
<!DOCTYPE svg PUBLIC "-//W3C//DTD SVG 1.1//EN" "http://www.w3.org/Graphics/SVG/1.1/DTD/svg11.dtd">
<!-- Creator: CorelDRAW X8 -->
<svg xmlns="http://www.w3.org/2000/svg" xml:space="preserve" width="1.86198in" height="2in" version="1.1" style="shape-rendering:geometricPrecision; text-rendering:geometricPrecision; image-rendering:optimizeQuality; fill-rule:evenodd; clip-rule:evenodd"
viewBox="0 0 154 166"
 xmlns:xlink="http://www.w3.org/1999/xlink">
 <defs>
  <style type="text/css">
   <![CDATA[
    .fil0 {fill:#1A237E}
    .fil1 {fill:#868EE0}
   ]]>
  </style>
 </defs>
 <g id="Layer_x0020_1">
  <metadata id="CorelCorpID_0Corel-Layer"/>
  <g id="_2490707558432">
   <g>
    <path id="Path_10526" class="fil0" d="M153 13l-30 0 0 -11c0,-1 -1,-2 -2,-2 0,0 0,0 0,0l-88 0c-1,0 -1,1 -1,1 0,0 0,0 0,1l0 11 -3 0c-1,0 -2,0 -2,1 0,1 1,2 2,2 0,0 0,0 0,0l3 0 0 34c0,5 1,11 2,15 -18,-5 -31,-22 -31,-42l0 -7 21 0c1,0 1,-1 1,-2 0,-1 0,-1 -1,-1l-22 0c-1,0 -2,0 -2,1 0,0 0,0 0,0l0 9c0,22 15,40 35,46 0,0 0,0 1,0 6,14 20,25 36,27l0 17 -12 0c-1,0 -2,0 -2,1 0,0 0,0 0,0l0 14 -17 0c-1,0 -2,1 -2,2 0,0 0,0 0,0l0 34c0,1 1,2 2,2 0,0 0,0 0,0l44 0c0,0 0,0 0,0 0,0 0,0 1,0 0,0 0,0 0,0l14 0c0,0 0,0 0,0l13 0c1,0 2,-1 2,-2 0,0 0,0 0,0l0 -34c0,-1 -1,-2 -2,-2 0,0 0,0 0,0l-17 0 0 -14c0,-1 -1,-1 -2,-1 0,0 0,0 0,0l-12 0 0 -17c16,-2 30,-12 37,-27l0 0c2,-1 3,-1 5,-2 0,0 1,-1 0,-2 0,0 -1,-1 -1,-1 -1,1 -2,1 -3,1 2,-5 3,-10 3,-15l0 -34 28 0 0 7c0,15 -8,30 -21,38 0,0 -1,1 -2,1 -1,0 -1,1 -1,2 1,1 1,1 2,1 0,0 0,0 0,0 1,-1 2,-1 3,-2 14,-8 22,-24 22,-40l0 -9c0,-1 0,-1 -1,-1 0,0 0,0 0,0zm-68 150c0,0 0,0 0,0 0,0 0,0 0,0l-43 0 0 -9 70 0 0 9 -13 0c0,0 0,0 0,0l-13 0c-1,0 -1,0 -1,0zm-8 -70c-23,0 -42,-19 -42,-43l0 -38 85 0 0 38c0,24 -19,43 -43,43zm-42 -90l85 0 0 6 -85 0 0 -6zm7 141l70 0 0 7 -70 0 0 -7zm70 -3l-70 0 0 -10 70 0 0 10 0 0zm-19 -13l-32 0 0 -12 32 0 0 12zm-14 -15l-4 0 0 -17c1,0 1,0 2,0 1,0 2,0 2,0l0 17 0 0z"/>
    <path id="Path_10527" class="fil0" d="M90 46l-8 -2 -3 -7 0 0c-1,-1 -2,-1 -4,-1 0,1 -1,1 -1,1l-3 7 -8 2c-1,0 -2,0 -2,1 0,1 0,2 1,3l5 5 -1 8c0,1 0,2 1,2 1,1 2,1 3,1l7 -4 6 4c1,0 1,0 2,0 0,0 1,0 1,-1 1,0 1,-1 1,-2l-1 -8 5 -5c1,-1 1,-2 1,-3 0,-1 -1,-1 -2,-1zm-20 10c0,-1 0,-2 -1,-3l-5 -5 7 -1c1,0 2,-1 2,-1l4 -7 0 0 3 7c0,0 1,1 2,1l7 1 -5 5c-1,1 -1,2 -1,3l2 7 -7 -3c-1,-1 -2,-1 -3,0l-6 3 1 -7z"/>
   </g>
   <path class="fil1" d="M86 55l1 8c0,1 0,2 -1,2 0,1 -1,1 -1,1 -1,0 -1,0 -2,0l-6 -4 -7 4c-1,0 -2,0 -3,-1 -1,0 -1,-1 -1,-2l1 -8 -5 -5c-1,-1 -1,-2 -1,-3 0,-1 1,-1 2,-1l8 -2 3 -7c0,0 1,0 1,-1 2,0 3,0 4,1l3 7 8 2c1,0 2,0 2,1 0,1 0,2 -1,3l-5 5zm-51 -5c0,24 19,43 42,43 24,0 43,-19 43,-43l0 -38 -85 0 0 38z"/>
  </g>
 </g>
</svg>
