<?xml version="1.0" encoding="UTF-8"?>
<!DOCTYPE svg PUBLIC "-//W3C//DTD SVG 1.1//EN" "http://www.w3.org/Graphics/SVG/1.1/DTD/svg11.dtd">
<!-- Creator: CorelDRAW X8 -->
<svg xmlns="http://www.w3.org/2000/svg" xml:space="preserve" width="1.59828in" height="2in" version="1.1" style="shape-rendering:geometricPrecision; text-rendering:geometricPrecision; image-rendering:optimizeQuality; fill-rule:evenodd; clip-rule:evenodd"
viewBox="0 0 208 260"
 xmlns:xlink="http://www.w3.org/1999/xlink">
 <defs>
  <style type="text/css">
   <![CDATA[
    .str0 {stroke:#1A237E;stroke-width:1.03599}
    .str1 {stroke:#1A237E;stroke-width:1.03658}
    .fil0 {fill:#1A237E}
    .fil1 {fill:#868EE0}
   ]]>
  </style>
 </defs>
 <g id="Layer_x0020_1">
  <metadata id="CorelCorpID_0Corel-Layer"/>
  <g id="_2490705235360">
   <g>
    <g>
     <path id="Path_10550" class="fil0" d="M158 54c-3,1 -5,-1 -6,-3 -2,-2 -1,-5 1,-7 0,-1 1,-1 2,-2 5,-4 11,-8 17,-12 2,-2 6,-2 8,1 1,0 1,0 1,0 2,3 1,7 -1,9 -1,0 -1,0 -1,0 -6,4 -12,9 -17,13 -2,0 -3,1 -4,1z"/>
     <path id="Path_10551" class="fil0" d="M106 35c0,3 -1,5 -4,7 -2,1 -5,0 -7,-2 -5,-6 -9,-13 -14,-20 -2,-2 -1,-6 2,-8 0,0 0,0 0,0 3,-2 6,-1 8,2 5,6 10,12 14,18 1,1 1,3 1,3z"/>
     <path id="Path_10552" class="fil0" d="M141 40c-3,0 -6,-3 -6,-6 0,-1 0,-2 1,-3 1,-3 2,-5 3,-8 2,-4 4,-8 6,-13 1,-3 4,-4 7,-3 4,1 5,4 5,7 0,0 -1,1 -1,1 -3,7 -6,14 -9,22 -1,2 -3,3 -6,3z"/>
     <path id="Path_10553" class="fil0" d="M126 28c1,4 -2,7 -5,7 -4,1 -7,-2 -7,-5 0,0 0,0 0,-1 -1,-7 -2,-14 -2,-21 0,-2 0,-4 1,-5 1,-2 3,-3 6,-3 2,0 4,3 5,5 0,6 1,11 2,16 0,3 0,5 0,7z"/>
    </g>
    <path id="Path_10537" class="fil0 str0" d="M180 213c-4,8 -11,14 -19,18 -5,2 -9,4 -13,7 -1,1 0,2 1,2l13 -6c9,-5 16,-12 20,-20 0,-1 0,-2 -1,-2 0,0 -1,0 -1,1z"/>
    <path id="Path_10538" class="fil0 str1" d="M200 72c-4,-3 -10,-5 -16,-4 -5,1 -10,4 -13,9 -2,3 -5,7 -7,11 -2,3 -4,7 -6,10 -2,3 -4,6 -6,8 -5,4 -11,5 -17,3 -4,-2 -8,-5 -12,-9 -9,-8 -17,-16 -26,-24l-15 -14 -7 -8c-7,-6 -14,-12 -20,-18 -7,-6 -17,-6 -24,1 0,0 0,0 0,0 -6,6 -6,16 1,23 2,2 3,3 5,5 1,1 2,1 3,2l17 16c14,14 28,27 42,40 2,2 4,4 6,6 5,5 10,10 16,15 8,8 8,21 0,29 -3,2 -5,4 -9,5 -2,0 -4,1 -7,1 -1,0 -2,0 -4,0l-1 0 0 2c2,7 0,14 -5,19 -5,5 -12,7 -19,6l-2 0 1 1c1,13 -2,19 -15,26l-1 1 0 1c1,0 1,0 1,1 0,1 1,2 1,2 12,19 36,27 56,17 5,-2 28,-13 34,-16 1,-1 0,-3 -2,-2 -5,2 -28,14 -33,16 -19,9 -42,2 -52,-16 -1,0 -1,-1 -2,-2 13,-6 17,-14 16,-26 7,1 14,-2 19,-7 5,-5 8,-13 6,-20 1,0 2,0 3,0 2,0 5,-1 7,-1 12,-4 19,-17 15,-29 -1,-3 -3,-7 -5,-9 -6,-5 -11,-11 -16,-16 -3,-2 -5,-3 -7,-5 -14,-14 -28,-27 -42,-40l-17 -17c0,0 -1,-1 -2,-2 -2,-2 -4,-3 -5,-5 -6,-6 -6,-14 0,-20 5,-5 13,-5 19,0 7,6 13,12 20,18l8 8 14 13c9,9 17,17 26,25 4,4 8,7 13,9 6,3 14,2 19,-3 3,-3 5,-6 7,-9 2,-3 4,-6 6,-10 2,-3 5,-7 7,-11 3,-4 7,-7 12,-7 9,-2 18,5 19,14 1,4 0,8 -2,12 -5,8 -10,17 -16,26l-8 13c-3,5 -5,9 -8,14 -1,1 -1,4 0,5l5 12c2,3 3,6 4,9 9,16 3,28 1,37 0,2 2,2 2,1 2,-10 9,-21 0,-39 -2,-3 -3,-6 -4,-9l-6 -12c-1,-1 -1,-2 0,-3 3,-4 6,-9 8,-13l9 -14c5,-8 10,-17 15,-26 6,-8 4,-19 -4,-26z"/>
    <path id="Path_10539" class="fil0 str0" d="M81 202c-5,0 -9,-1 -12,-4 -9,-9 -18,-18 -27,-26 -4,-4 -8,-8 -12,-11 -1,-1 -1,-2 -2,-2 -1,-1 -2,-2 -4,-3 -5,-5 -6,-13 -3,-19 3,-7 9,-11 16,-10l0 0c4,0 7,2 10,4l7 7c13,12 26,24 38,36 7,6 7,16 1,23 -3,3 -8,5 -12,5zm-44 -73c-6,0 -12,3 -14,9 -2,5 -1,11 3,16 1,1 2,2 3,3 1,0 2,1 3,2 3,3 7,7 11,11 9,8 19,17 28,26 5,5 14,5 20,-1 5,-5 5,-14 -1,-20l0 0c-12,-12 -25,-24 -38,-35l-7 -7c-2,-2 -5,-3 -8,-4z"/>
    <path id="Path_10540" class="fil0 str0" d="M106 175c-4,0 -8,-1 -10,-4 -5,-4 -10,-9 -15,-13 -2,-2 -4,-4 -6,-6l-4 -4 -20 -19c-5,-4 -7,-10 -5,-16 1,-6 5,-11 11,-12 6,-2 12,-1 16,4 4,3 8,7 12,10 2,2 3,4 5,5l7 7c6,6 12,12 19,17 4,4 7,10 7,17l0 0c-1,5 -4,10 -10,12 -2,2 -5,2 -7,2zm-45 -73c-1,0 -2,0 -4,1 -4,1 -8,5 -9,10 -1,5 0,10 4,14 7,6 14,12 20,19l5 4c2,2 3,4 5,6 5,4 10,9 15,13 4,4 10,5 15,2 4,-2 8,-6 8,-10 0,-6 -2,-11 -6,-15 -6,-5 -13,-11 -19,-17l-7 -7c-2,-1 -3,-3 -5,-5 -4,-3 -8,-7 -12,-11 -2,-2 -6,-4 -10,-4z"/>
    <path id="Path_10541" class="fil0 str0" d="M55 229c-4,0 -9,-2 -12,-5 -5,-4 -9,-8 -14,-13 -7,-6 -14,-14 -22,-21 -5,-4 -7,-10 -6,-17 1,-8 8,-13 16,-13l1 0c4,0 8,2 11,5 10,9 19,18 29,27l2 2c1,1 1,2 2,3 2,1 3,2 4,3 7,6 7,17 1,24 0,0 0,0 0,0 -3,3 -7,5 -12,5zm-38 -66c-6,-1 -13,4 -14,11 -1,5 1,10 6,15 8,7 15,14 22,21 5,4 9,8 14,13 5,5 14,5 20,0 5,-6 5,-15 0,-20 0,0 -1,-1 -1,-1 -1,-1 -2,-2 -4,-3 0,-1 -1,-2 -2,-3l-2 -2c-10,-9 -19,-18 -29,-27 -2,-3 -6,-4 -9,-4 0,0 0,0 -1,0l0 0z"/>
   </g>
   <path class="fil1" d="M180 213c2,-10 8,-22 -1,-37 -1,-3 -2,-6 -4,-9l-5 -12c-1,-1 -1,-4 0,-5 3,-5 5,-9 8,-14l8 -13c6,-9 11,-18 16,-26 2,-4 3,-8 2,-12 -1,-9 -10,-16 -19,-14 -5,0 -9,3 -12,7 -2,4 -5,8 -7,11 -4,7 -7,13 -13,19 -5,5 -13,6 -19,3 -5,-2 -9,-5 -13,-9 -9,-8 -17,-16 -26,-25l-14 -13 -28 -26c-6,-5 -14,-5 -19,0 -6,6 -6,14 0,20 1,2 3,3 5,5l19 19c14,13 28,26 42,40 2,2 4,3 7,5 5,5 10,11 16,16 2,2 4,6 5,9 4,12 -3,25 -15,29 -4,1 -6,1 -10,1 3,15 -10,29 -25,27 1,12 -3,20 -16,26 1,1 1,2 2,2 10,18 33,25 52,16 4,-2 25,-12 32,-15 0,-1 1,-1 1,-1 4,-2 8,-4 12,-6 8,-4 15,-10 19,-18z"/>
   <path class="fil1" d="M112 171c4,-2 8,-6 8,-10 0,-6 -2,-11 -6,-15 -6,-5 -13,-11 -19,-17l-7 -7c-2,-1 -3,-3 -5,-5 -4,-3 -8,-7 -12,-11 -2,-2 -6,-4 -10,-4 -1,0 -2,0 -4,1 -4,1 -8,5 -9,10 -1,5 0,10 4,14 7,6 14,12 20,19l5 4c2,2 3,4 5,6 5,4 10,9 15,13 4,4 10,5 15,2z"/>
   <path class="fil1" d="M90 175c-12,-12 -25,-24 -38,-35l-7 -7c-2,-2 -5,-3 -8,-4 -6,0 -12,3 -14,9 -2,5 -1,11 3,16 1,1 2,2 3,3 1,0 2,1 3,2 3,3 7,7 11,11 9,8 19,17 28,26 5,5 14,5 20,-1 5,-5 5,-14 -1,-20z"/>
   <path class="fil1" d="M17 163l0 0zm39 31c-10,-9 -19,-18 -29,-27 -2,-3 -6,-4 -9,-4 0,0 0,0 -1,0 -6,-1 -13,4 -14,11 -1,5 1,10 6,15 8,7 15,14 22,21 5,4 9,8 14,13 5,5 14,5 20,0 5,-6 5,-15 0,-20l-1 -1c-1,-1 -2,-2 -4,-3 0,-1 -1,-2 -2,-3l-2 -2z"/>
  </g>
 </g>
</svg>
