<svg xmlns="http://www.w3.org/2000/svg" xmlns:xlink="http://www.w3.org/1999/xlink" width="354.044" height="201" viewBox="0 0 354.044 201"><defs><style>.a,.b,.e{fill:#fff;}.a{stroke:#707070;}.b,.c{stroke:#1a237e;stroke-linecap:round;stroke-miterlimit:10;stroke-width:2px;}.c{fill:none;}.d{clip-path:url(#a);}.f,.l{fill:#1a237e;}.g{fill:#eef;}.h,.i{fill:#26263a;}.h{font-size:14px;font-family:Roboto-Bold, Roboto;font-weight:700;}.i{font-size:12px;font-family:Roboto-Regular, Roboto;}.j{clip-path:url(#b);}.k{fill:#b8bced;}.k,.l{fill-rule:evenodd;}.m{fill:#f3f3ff;}.n{fill:#fcfcfc;}</style><clipPath id="a"><rect class="a" width="154.181" height="185.659"/></clipPath><clipPath id="b"><rect class="a" width="123.721" height="148.178"/></clipPath></defs><g transform="translate(-98 -835)"><g transform="translate(-816 -2656)"><line class="b" x2="323.48" transform="translate(915 3691)"/><line class="c" x2="18.632" transform="translate(1248.412 3691)"/><g class="d" transform="translate(1045.359 3504.346)"><g transform="translate(6.963 11.077)"><path class="e" d="M252.345,407.142h-103.3c-10,0-17.943-8.776-17.943-19.817V158.017c0-11.041,7.946-19.817,17.943-19.817h103.3c10,0,17.943,8.776,17.943,19.817V387.325C270.289,398.366,262.343,407.142,252.345,407.142Z" transform="translate(-131.1 -138.2)"/><path class="f" d="M119.945,266.057H17.751a16.848,16.848,0,0,1-12.584-5.706A20.591,20.591,0,0,1,0,246.453V19.6a20.59,20.59,0,0,1,5.167-13.9A16.848,16.848,0,0,1,17.751,0H119.945a16.849,16.849,0,0,1,12.585,5.706A20.59,20.59,0,0,1,137.7,19.6V246.453a20.59,20.59,0,0,1-5.167,13.9A16.849,16.849,0,0,1,119.945,266.057ZM22.2,5.95a14.84,14.84,0,0,0-11.334,5.426A20.226,20.226,0,0,0,6.217,24.592V240.3a20.225,20.225,0,0,0,4.654,13.215A14.84,14.84,0,0,0,22.2,258.94h92.047a14.841,14.841,0,0,0,11.335-5.426A20.225,20.225,0,0,0,130.24,240.3V24.592a20.225,20.225,0,0,0-4.654-13.215A14.841,14.841,0,0,0,114.251,5.95Z" transform="translate(0 0.962)"/><ellipse class="g" cx="3.447" cy="3.807" rx="3.447" ry="3.807" transform="translate(65.652 246.175)"/><text class="h" transform="translate(73.789 104.085)"><tspan x="-44.331" y="0">Accurate Data</tspan></text><text class="i" transform="translate(72.91 128.735)"><tspan x="-38.42" y="0">With Financial</tspan><tspan x="-33.565" y="15">Accounting, </tspan><tspan x="-34.734" y="30">Ledgers etc..</tspan></text></g></g><g class="j" transform="translate(958.819 3541.827)"><path class="e" d="M224.322,343.867H144.9c-7.686,0-13.8-6.711-13.8-15.154V153.354c0-8.443,6.11-15.154,13.8-15.154h79.426c7.686,0,13.8,6.711,13.8,15.154V328.713C238.118,337.156,232.008,343.867,224.322,343.867Z" transform="translate(-123.376 -125.252)"/><path class="f" d="M96.249,212.345h-82a13.551,13.551,0,0,1-10.1-4.554A16.382,16.382,0,0,1,0,196.7V15.646A16.382,16.382,0,0,1,4.146,4.554,13.551,13.551,0,0,1,14.244,0h82a13.552,13.552,0,0,1,10.1,4.554,16.381,16.381,0,0,1,4.146,11.092V196.7a16.382,16.382,0,0,1-4.146,11.092A13.552,13.552,0,0,1,96.249,212.345ZM18.684,5.681c-7.122,0-12.7,6.5-12.7,14.809V191.855c0,8.3,5.579,14.809,12.7,14.809H91.809c7.122,0,12.7-6.5,12.7-14.809V20.49c0-8.3-5.579-14.809-12.7-14.809Z" transform="translate(5.587 9.609)"/><ellipse class="g" cx="2.766" cy="3.038" rx="2.766" ry="3.038" transform="translate(58.269 205.318)"/><path class="e" d="M4.416-.066a3.438,3.438,0,0,0,.042.627A.78.78,0,0,0,4.608.9a.7.7,0,0,0,.31.208,2.338,2.338,0,0,0,.509.115q.307.039.809.054V1.8H1.415V1.281a8.162,8.162,0,0,0,1.034-.1A1.171,1.171,0,0,0,2.922,1,.691.691,0,0,0,3.16.658a2.485,2.485,0,0,0,.075-.724V-5.878A.753.753,0,0,0,3.144-6.3a.3.3,0,0,0-.267-.133,1.291,1.291,0,0,0-.594.236q-.385.236-.952.652l-.287-.552,3.053-2h.359q-.039.688-.039,1.906Z" transform="translate(72.489 58.342)"/><text class="h" transform="translate(61.181 94.173)"><tspan x="-21.875" y="0">Secure</tspan></text><text class="i" transform="translate(62.354 113.211)"><tspan x="-29.282" y="0">File Return</tspan><tspan x="-17.106" y="14">Online</tspan></text><g transform="translate(-5924.399 -1276.296)"><g transform="translate(5970 1308)"><g transform="translate(0 0)"><path class="k" d="M15.2,39.058c-1.235-1.081-2.47-2.084-3.7-3.164a56.841,56.841,0,0,1-8.258-8.953A17.819,17.819,0,0,1,.309,21,11.915,11.915,0,0,1,0,18.683V7.569c0-.309.077-.386.386-.54C5.248,4.714,10.11,2.4,14.9.083a.852.852,0,0,1,.617,0L30.1,7.029a.423.423,0,0,1,.309.463V18.76a11.109,11.109,0,0,1-1.466,5.171,31.316,31.316,0,0,1-4.785,6.715A61.764,61.764,0,0,1,15.2,39.058ZM3.242,14.361v4.245a5.755,5.755,0,0,0,.309,2.007,14.3,14.3,0,0,0,2.393,4.554,53.389,53.389,0,0,0,9.107,9.57c.232.154.309.077.463-.077,1.775-1.7,3.55-3.319,5.248-5.017a34.786,34.786,0,0,0,5.094-6.56,8.956,8.956,0,0,0,1.389-4.4V9.576a.423.423,0,0,0-.309-.463c-3.782-1.775-7.564-3.627-11.345-5.4-.232-.077-.386-.154-.54,0-3.782,1.852-7.641,3.627-11.422,5.4a.423.423,0,0,0-.309.463C3.242,11.119,3.242,12.74,3.242,14.361Z" transform="translate(0 -0.025)"/></g><g transform="translate(8.413 12.638)"><path class="l" d="M16.071,27.128,10.9,21.957l2.238-2.238,2.856,2.856L22.168,16.4c.772.772,1.544,1.544,2.238,2.315C21.705,21.494,18.849,24.349,16.071,27.128Z" transform="translate(-10.9 -16.4)"/></g></g><g transform="translate(5970 1308)"><g transform="translate(0 0)"><path class="f" d="M31.384,13.7c-3.773-1.752-7.59-3.548-11.363-5.343a.869.869,0,0,0-.737-.043c-3.817,1.8-7.633,3.59-11.45,5.343A.64.64,0,0,0,7.4,14.3v8.89A9.321,9.321,0,0,0,7.7,25.2a14.85,14.85,0,0,0,2.429,4.573,53.354,53.354,0,0,0,9.108,9.446.441.441,0,0,0,.347.128.7.7,0,0,0,.434-.214c.52-.513,1.084-.983,1.6-1.5,1.214-1.111,2.472-2.265,3.643-3.419a31.663,31.663,0,0,0,4.25-5.129c-.043-.256-.26-.3-.434-.128a31.971,31.971,0,0,1-4.12,4.958c-1.171,1.154-2.429,2.308-3.6,3.419-.52.513-1.084.983-1.648,1.5-.043.043-.087.085-.13.085a.135.135,0,0,1-.087-.043,53.922,53.922,0,0,1-9.021-9.36,14.057,14.057,0,0,1-2.342-4.445,8.931,8.931,0,0,1-.3-1.923c-.043-.983-.043-2.009,0-2.949V14.3c0-.171.043-.214.173-.256,3.817-1.752,7.59-3.548,11.406-5.343.043-.043.087-.043.173-.043a.283.283,0,0,1,.217.085c3.773,1.8,7.59,3.548,11.363,5.343.173.085.173.128.173.3v8.933a6.11,6.11,0,0,1-.347,2.009c-.087.3.173.385.39.256a7.518,7.518,0,0,0,.39-2.265V14.382A.584.584,0,0,0,31.384,13.7Z" transform="translate(-4.191 -4.711)"/><path class="f" d="M5.421,49.492a27.46,27.46,0,0,1-1.778-2.308,16.479,16.479,0,0,1-2.906-5.77,13.035,13.035,0,0,1-.3-2.223V36.2C.347,35.858,0,35.9,0,36.37v2.821a8.97,8.97,0,0,0,.3,2.351,17.041,17.041,0,0,0,2.949,5.941c.52.769,1.128,1.5,1.735,2.265C5.378,50,5.465,49.577,5.421,49.492Z" transform="translate(0 -20.588)"/><path class="f" d="M29.21,75.575c-1.561,1.453-3.209,2.864-4.988,4.231-.347-.3-.651-.556-1-.812-.824-.684-1.735-1.41-2.559-2.137-1.778-1.581-3.34-3.077-4.727-4.531-.26-.171-.52.085-.217.427A57.7,57.7,0,0,0,20.362,77.2c.824.727,1.691,1.453,2.559,2.137.39.3.737.641,1.128.94l.13.128.13-.128c1.778-1.368,3.47-2.821,5.074-4.274C29.643,75.7,29.6,75.4,29.21,75.575Z" transform="translate(-8.826 -41.372)"/><path class="f" d="M30.4,6.91C25.545,4.644,20.688,2.379,15.83.071a.929.929,0,0,0-.824,0C10.149,2.336,5.335,4.644.477,6.91A.727.727,0,0,0,0,7.636v5.343c.087.427.3.342.434.171V7.679a.32.32,0,0,1,.217-.342C5.508,5.029,10.365,2.764,15.18.456A.478.478,0,0,1,15.4.413a.4.4,0,0,1,.217.043l14.572,6.8c.173.085.217.128.173.3v11.07a10.386,10.386,0,0,1-1.431,5A29.8,29.8,0,0,1,24.157,30.2c-.564.641-1.171,1.239-1.735,1.838-.13.342.26.342.39.214.564-.6,1.128-1.154,1.648-1.752a31.476,31.476,0,0,0,4.814-6.668,11.242,11.242,0,0,0,1.475-5.214V7.551A.5.5,0,0,0,30.4,6.91Z" transform="translate(0 0.025)"/></g></g></g></g><circle class="f" cx="35" cy="35" r="35" transform="translate(1152.524 3491)"/><g transform="translate(1170.009 3508.009)"><path class="e" d="M56.091,180.6a14.42,14.42,0,0,0,15.082.9c6.66-3.73,9.006-9.534,7.653-17,.392-.1.833-.224,1.281-.344.432-.12.873-.232,1.3-.352a17.412,17.412,0,0,1-4.851,17.331,17.67,17.67,0,0,1-22.39,1.649c-.592.6-1.185,1.2-1.857,1.889-.512-2.578-1.009-5.035-1.513-7.549,2.506.5,4.947.985,7.333,1.465C57.476,179.226,56.8,179.9,56.091,180.6Z" transform="translate(-46.741 -150.696)"/><path class="e" d="M27.505,2.97c.712-.72,1.417-1.425,2.169-2.185.5,2.5.993,4.947,1.5,7.469-2.49-.5-4.947-.985-7.485-1.489.632-.584,1.217-1.121,1.793-1.657l-.1-.168c-4.907-2.706-9.958-3.074-14.857-.224C4.1,8.462,1.889,14.233,3.242,21.51c-.833.224-1.721.464-2.6.7A17.428,17.428,0,0,1,5.884,4.515,17.656,17.656,0,0,1,27.505,2.97Z" transform="translate(0)"/></g></g><g transform="translate(-150 -1058.908)"><path class="f" d="M108.032,31.765h3.315a.432.432,0,1,0,0-.865h-3.315a.432.432,0,0,0,0,.865Z" transform="translate(339.909 1919.554)"/><path class="f" d="M171.348,301.6h-9.816a.432.432,0,1,0,0,.865h9.816a.432.432,0,1,0,0-.865Z" transform="translate(294.12 1687.872)"/><path class="f" d="M246.116,301.6h-1.384a.432.432,0,1,0,0,.865h1.384a.432.432,0,1,0,0-.865Z" transform="translate(222.912 1687.872)"/><path class="f" d="M160.889,4.454h-6.472V3.892a.425.425,0,0,0-.432-.432h-2.739A3.9,3.9,0,0,0,147.369,0h-.721a3.9,3.9,0,0,0-3.877,3.459h-2.739a.425.425,0,0,0-.432.432V8.836a.425.425,0,0,0,.432.432h13.953a.425.425,0,0,0,.432-.432V5.319h6.472a1.833,1.833,0,0,1,1.831,1.831V41.627a1.833,1.833,0,0,1-1.831,1.831h-2.739a.432.432,0,1,0,0,.865h2.739a2.7,2.7,0,0,0,2.7-2.7V7.149A2.7,2.7,0,0,0,160.889,4.454ZM140.465,8.4V4.324h2.724a.425.425,0,0,0,.432-.432A3.027,3.027,0,0,1,146.648.865h.721A3.027,3.027,0,0,1,150.4,3.892a.425.425,0,0,0,.432.432h2.724V8.4Z" transform="translate(312.521 1946)"/><path class="m" d="M158.688,9.459h-2.724a.425.425,0,0,1-.432-.432A3.027,3.027,0,0,0,152.5,6h-.721a3.027,3.027,0,0,0-3.027,3.027.425.425,0,0,1-.432.432H145.6v4.079h13.088V9.459Z" transform="translate(307.386 1940.865)"/><path class="f" d="M112.55,95.132a.425.425,0,0,0-.432-.432H99.332a.432.432,0,1,0,0,.865h12.785A.425.425,0,0,0,112.55,95.132Z" transform="translate(347.355 1864.95)"/><path class="f" d="M99.332,118a.432.432,0,1,0,0,.865h8.951a.432.432,0,1,0,0-.865Z" transform="translate(347.355 1845.008)"/><path class="f" d="M226.578,94.856a3.978,3.978,0,1,0-3.978-3.978A3.986,3.986,0,0,0,226.578,94.856Zm0-7.106a3.113,3.113,0,1,1-3.113,3.113A3.119,3.119,0,0,1,226.578,87.75Z" transform="translate(241.485 1871.626)"/><path class="f" d="M240.7,108.244l.5.36a.391.391,0,0,0,.245.087.458.458,0,0,0,.288-.115l1.441-1.3a.429.429,0,0,0-.577-.634l-1.182,1.067-.216-.159a.426.426,0,0,0-.605.1A.409.409,0,0,0,240.7,108.244Z" transform="translate(226.155 1854.822)"/><path class="m" d="M228.4,170.413a3.113,3.113,0,1,0,3.113-3.113A3.119,3.119,0,0,0,228.4,170.413Zm2.133-.274a.428.428,0,0,1,.591-.62l.4.375.4-.375a.428.428,0,0,1,.591.62l-.36.332.36.332a.418.418,0,0,1,.014.605.463.463,0,0,1-.317.144.428.428,0,0,1-.288-.115l-.4-.375-.4.375a.458.458,0,0,1-.288.115.409.409,0,0,1-.317-.144.431.431,0,0,1,.014-.605l.36-.332Z" transform="translate(236.521 1802.814)"/><path class="f" d="M226.378,169.256a3.978,3.978,0,1,0-3.978-3.978A3.986,3.986,0,0,0,226.378,169.256Zm3.128-3.978a3.113,3.113,0,1,1-3.113-3.113A3.119,3.119,0,0,1,229.506,165.278Z" transform="translate(241.656 1807.949)"/><path class="f" d="M242.3,183.859a.463.463,0,0,0,.317.144.428.428,0,0,0,.288-.115l.4-.375.4.375a.458.458,0,0,0,.288.115.409.409,0,0,0,.317-.144.431.431,0,0,0-.014-.605l-.36-.332.36-.331a.428.428,0,0,0-.591-.62l-.4.375-.4-.375a.428.428,0,1,0-.591.62l.36.331-.36.332A.445.445,0,0,0,242.3,183.859Z" transform="translate(224.721 1790.363)"/><path class="m" d="M23.561,189.268a10.673,10.673,0,0,0-5.881-18.825c-.332-.029-.649-.043-.966-.043a10.666,10.666,0,0,0-.937,21.289A10.452,10.452,0,0,0,23.561,189.268Zm-13.246-2.825a8.36,8.36,0,1,1,6.429,3A8.376,8.376,0,0,1,10.315,186.443Z" transform="translate(426.801 1800.161)"/><path class="n" d="M35.527,192.5a7.495,7.495,0,1,0,5.751,2.7A7.463,7.463,0,0,0,35.527,192.5Zm-3.805,3.964A5.157,5.157,0,0,0,30.338,200a.425.425,0,0,1-.432.432h0a.425.425,0,0,1-.432-.432,6.014,6.014,0,0,1,1.614-4.108.429.429,0,0,1,.634.577Zm2.263-1.427c-.144.043-.274.086-.418.144a6.407,6.407,0,0,0-.706.346.407.407,0,0,1-.216.058.434.434,0,0,1-.375-.216.424.424,0,0,1,.144-.591,5.433,5.433,0,0,1,.822-.4l.476-.173a.438.438,0,0,1,.548.288A.419.419,0,0,1,33.984,195.037Z" transform="translate(408.004 1781.247)"/><path class="f" d="M30.41,203.256a8.27,8.27,0,0,0,5.348-1.946,8.36,8.36,0,1,0-5.348,1.946Zm5.737-13.16a7.48,7.48,0,1,1-5.751-2.7A7.494,7.494,0,0,1,36.147,190.1Z" transform="translate(413.135 1786.346)"/><path class="f" d="M58.554,204.282a4.621,4.621,0,0,0-.476.173,7.248,7.248,0,0,0-.822.4.424.424,0,0,0-.144.591.468.468,0,0,0,.375.216.375.375,0,0,0,.216-.058,4.57,4.57,0,0,1,.706-.346,3.555,3.555,0,0,1,.418-.144.438.438,0,0,0,.288-.548A.46.46,0,0,0,58.554,204.282Z" transform="translate(383.174 1771.18)"/><path class="f" d="M39.614,215.173A6.014,6.014,0,0,0,38,219.281a.425.425,0,0,0,.432.432h0a.425.425,0,0,0,.432-.432,5.184,5.184,0,0,1,1.384-3.531.419.419,0,0,0-.029-.605A.431.431,0,0,0,39.614,215.173Z" transform="translate(399.476 1761.961)"/><rect class="m" width="3.315" height="11.848" transform="matrix(-0.767, 0.641, -0.641, -0.767, 460.745, 1999.387)"/><path class="f" d="M21.553,69.861a.445.445,0,0,0-.288-.159.422.422,0,0,0-.317.1l-.548.461-.5-.605a11.543,11.543,0,0,0,1.6-13.808h2.162a.432.432,0,1,0,0-.865H20.918c-.173-.231-.346-.461-.519-.677a12.576,12.576,0,0,0-1.9-1.816h8.994a.432.432,0,1,0,0-.865H17.171a11.5,11.5,0,0,0-4.6-1.413,12.131,12.131,0,0,0-2.047,0V33.6a1.833,1.833,0,0,1,1.831-1.831h1.96a.432.432,0,0,0,0-.865h-1.96a2.7,2.7,0,0,0-2.7,2.7V50.3a11.407,11.407,0,0,0-5.521,2.537A11.535,11.535,0,0,0,10.5,73.176c.346.029.706.043,1.052.043a11.439,11.439,0,0,0,6.083-1.744l.533.634-.447.375a.434.434,0,0,0-.058.605L25.8,82.848a.431.431,0,0,0,.332.159.38.38,0,0,0,.274-.1l3.214-2.681a.434.434,0,0,0,.058-.605Zm4.656,12.093-7.6-9.1,2.551-2.119,7.6,9.1ZM3.348,68.52a10.667,10.667,0,0,1,8.173-17.5c.317,0,.649.014.966.043A10.673,10.673,0,1,1,3.348,68.52Zm15,2.465c.187-.144.389-.288.562-.447.115-.086.216-.187.332-.288l.476.562-.879.735Z" transform="translate(431.996 1919.554)"/></g></g></svg>