<?xml version="1.0" encoding="UTF-8"?>
<!DOCTYPE svg PUBLIC "-//W3C//DTD SVG 1.1//EN" "http://www.w3.org/Graphics/SVG/1.1/DTD/svg11.dtd">
<!-- Creator: CorelDRAW X8 -->
<svg xmlns="http://www.w3.org/2000/svg" xml:space="preserve" width="1.57733in" height="2in" version="1.1" style="shape-rendering:geometricPrecision; text-rendering:geometricPrecision; image-rendering:optimizeQuality; fill-rule:evenodd; clip-rule:evenodd"
viewBox="0 0 149 189"
 xmlns:xlink="http://www.w3.org/1999/xlink">
 <defs>
  <style type="text/css">
   <![CDATA[
    .str0 {stroke:#1A237E;stroke-width:0.747452}
    .fil2 {fill:#FEFEFE}
    .fil0 {fill:#1A237E}
    .fil1 {fill:#868EE0}
   ]]>
  </style>
 </defs>
 <g id="Layer_x0020_1">
  <metadata id="CorelCorpID_0Corel-Layer"/>
  <g id="_2490705234784">
   <g>
    <path id="Path_10558" class="fil0 str0" d="M90 24c-4,-2 -9,-4 -13,-6 -1,0 -2,-1 -2,-1 -1,0 -2,1 -2,1 -5,2 -9,4 -14,6 -14,7 -27,13 -41,19 -1,1 -2,2 -2,3l0 0 0 0c0,0 0,0 0,0l0 0 0 0 0 0c0,0 0,1 0,1l0 42c0,1 0,2 0,2 0,3 1,7 2,10 0,0 0,0 0,0 3,7 6,14 11,20 0,1 1,1 1,1 3,5 7,10 11,14 9,10 19,20 32,31 0,0 1,0 2,0l0 0 0 0c0,0 1,0 1,0 13,-11 24,-21 32,-31 4,-4 8,-9 11,-14 1,0 1,0 1,-1 5,-6 9,-13 11,-20 0,0 0,0 0,0 2,-3 2,-7 2,-10 0,0 0,-1 0,-2l0 -42c0,0 0,-1 0,-1l0 0 0 0 0 0c0,0 0,0 0,0l0 0 0 0c0,-1 -1,-2 -2,-3 -13,-6 -27,-12 -41,-19zm31 93c0,0 -1,0 -1,0 0,1 -1,3 -2,4 -4,5 -9,11 -13,16 -2,1 -3,3 -4,4 -6,6 -12,11 -18,17 -2,2 -5,4 -8,7 0,0 0,0 0,0 -1,0 -1,0 -1,0 -3,-3 -5,-5 -8,-7 -6,-6 -12,-11 -17,-17 -2,-1 -3,-3 -4,-4 -5,-5 -10,-11 -14,-16 0,-1 -1,-3 -2,-4 0,0 0,0 -1,0 -3,-6 -7,-12 -9,-19 0,-2 -1,-5 -1,-8l0 0 0 -43c0,-1 0,-1 1,-1 18,-9 36,-18 55,-26 0,0 0,-1 1,-1l0 0 0 0 0 0 0 0 0 0c0,0 0,1 1,1 18,8 36,17 54,26 1,0 1,0 1,1l0 43 0 0c0,3 0,6 -1,8 -2,7 -5,13 -9,19z"/>
    <path id="Path_10560" class="fil0 str0" d="M109 154c-8,8 -26,25 -34,32 -2,-2 -4,-3 -5,-4 -4,-4 -9,-7 -13,-11 -8,-7 -24,-25 -31,-32 -3,-3 -6,-7 -8,-10 -7,-9 -11,-18 -14,-28 -1,-4 -1,-7 -2,-11l0 -26 0 -3 0 -24c0,0 1,-1 2,-1 23,-11 46,-22 70,-33 0,0 0,-1 1,-1 0,0 0,1 1,1l70 32c1,1 1,1 1,2l0 53c-1,9 -3,17 -7,24 -5,11 -13,20 -23,32 -3,3 -5,6 -8,8zm-84 -13c7,8 23,25 31,32 4,4 8,7 12,10 2,2 4,3 6,5l0 1 1 -1c8,-7 27,-25 35,-32 0,0 0,0 0,0l1 0 0 0 0 0c2,-3 5,-6 7,-8 11,-12 18,-22 23,-33 5,-9 8,-17 8,-25l0 -53c0,-1 -1,-3 -2,-3 0,0 0,0 0,0 -23,-11 -47,-22 -70,-33 -2,-1 -3,-1 -4,0 -24,11 -47,22 -70,33 -2,0 -3,2 -3,3l0 25 0 0 0 28c0,4 1,8 2,11 3,12 9,22 14,29 3,4 5,7 8,11 1,0 1,0 1,0z"/>
   </g>
   <path class="fil1" d="M83 158c6,-6 12,-11 18,-17 1,-1 2,-3 4,-4 4,-5 9,-11 13,-16 1,-1 2,-3 2,-4 0,0 1,0 1,0 4,-6 7,-12 9,-19 1,-2 1,-5 1,-8l0 0 0 -43c0,-1 0,-1 -1,-1 -18,-9 -36,-18 -54,-26 -1,0 -1,-1 -1,-1l0 0 0 0 0 0 0 0 0 0c-1,0 -1,1 -1,1 -19,8 -37,17 -55,26 -1,0 -1,0 -1,1l0 43 0 0c0,3 1,6 1,8 2,7 6,13 9,19 1,0 1,0 1,0 1,1 2,3 2,4 4,5 9,11 14,16 1,1 2,3 4,4 5,6 11,11 17,17 3,2 5,4 8,7 0,0 0,0 1,0 0,0 0,0 0,0 3,-3 6,-5 8,-7z"/>
   <g id="Group_4340">
    <g id="Group_4339">
     <path id="Path_10555" class="fil2" d="M66 113l-25 -25 11 -11 13 14 30 -30c4,4 8,8 11,11 -13,14 -27,28 -40,41z"/>
    </g>
   </g>
  </g>
 </g>
</svg>
