<svg width="416" height="200" viewBox="0 0 416 200" fill="none" xmlns="http://www.w3.org/2000/svg">
<g clip-path="url(#clip0_219_15)">
<path d="M1 199H378.319" stroke="#1A237E" stroke-width="2" stroke-miterlimit="10" stroke-linecap="round"/>
<path d="M390.768 199H414.122" stroke="#1A237E" stroke-width="2" stroke-miterlimit="10" stroke-linecap="round"/>
<path d="M226.84 150.275C226.559 150.263 226.294 150.143 226.101 149.939C225.994 149.834 225.908 149.709 225.851 149.57C225.793 149.432 225.764 149.283 225.765 149.133C225.786 148.887 225.88 148.653 226.034 148.461L236.784 137.779H202.922C202.637 137.779 202.363 137.666 202.162 137.464C201.96 137.263 201.847 136.989 201.847 136.704C201.847 136.419 201.96 136.145 202.162 135.944C202.363 135.742 202.637 135.629 202.922 135.629H235.776L226.908 125.954C226.811 125.845 226.736 125.717 226.69 125.579C226.644 125.44 226.627 125.294 226.639 125.148C226.637 125.017 226.667 124.888 226.725 124.771C226.784 124.654 226.869 124.553 226.975 124.476C227.168 124.272 227.433 124.152 227.714 124.14C227.844 124.145 227.971 124.177 228.086 124.235C228.202 124.293 228.305 124.375 228.386 124.476L239.539 136.569C239.733 136.766 239.841 137.032 239.841 137.308C239.841 137.584 239.733 137.85 239.539 138.047L227.647 149.872C227.546 149.99 227.423 150.086 227.284 150.155C227.146 150.224 226.995 150.265 226.84 150.275Z" fill="#1A237E" stroke="#1A237E"/>
<path d="M311.226 143.973H307.646V171.402H311.226V143.973Z" fill="#868EE0"/>
<path d="M292.173 143.973H288.593V171.402H292.173V143.973Z" fill="#868EE0"/>
<path d="M273.12 143.973H269.54V171.402H273.12V143.973Z" fill="#868EE0"/>
<path d="M254.067 143.973H250.487V171.402H254.067V143.973Z" fill="#868EE0"/>
<path d="M281.688 106.762H301.253C301.355 106.766 301.456 106.749 301.551 106.712C301.646 106.674 301.732 106.618 301.804 106.546C301.876 106.474 301.932 106.388 301.97 106.293C302.007 106.198 302.024 106.097 302.02 105.995V91.4789C302.024 91.3772 302.007 91.2757 301.97 91.1808C301.932 91.086 301.876 90.9999 301.804 90.9278C301.732 90.8558 301.646 90.7995 301.551 90.7623C301.456 90.7251 301.355 90.708 301.253 90.7119H281.688V89.9449C281.692 89.8431 281.675 89.7417 281.638 89.6468C281.6 89.552 281.544 89.4659 281.472 89.3938C281.4 89.3218 281.314 89.2655 281.219 89.2283C281.124 89.1912 281.023 89.174 280.921 89.1779H279.515C279.413 89.174 279.312 89.1912 279.217 89.2283C279.122 89.2655 279.036 89.3218 278.964 89.3938C278.892 89.4659 278.835 89.552 278.798 89.6468C278.761 89.7417 278.744 89.8431 278.748 89.9449V117.054H281.625V106.762H281.688Z" fill="#868EE0"/>
<path d="M314.935 172.872H246.843V176.836H314.935V172.872Z" fill="#868EE0"/>
<path d="M314.935 181.951H246.843V185.915H314.935V181.951Z" fill="#868EE0"/>
<path d="M310.204 138.985C308.515 132.417 304.69 126.598 299.331 122.443C293.971 118.288 287.383 116.033 280.602 116.033C273.82 116.033 267.232 118.288 261.872 122.443C256.513 126.598 252.688 132.417 250.999 138.985H310.204Z" fill="#868EE0"/>
<path d="M327.185 0H51.0941C48.1366 0.0385004 45.3149 1.24701 43.2464 3.36104C41.1779 5.47507 40.0312 8.32245 40.0571 11.28V188.649C40.0312 191.607 41.1779 194.454 43.2464 196.568C45.3149 198.682 48.1366 199.891 51.0941 199.929H327.185C330.143 199.891 332.964 198.682 335.033 196.568C337.101 194.454 338.248 191.607 338.222 188.649V11.28C338.248 8.32245 337.101 5.47507 335.033 3.36104C332.964 1.24701 330.143 0.0385004 327.185 0ZM332.825 184C332.806 186.999 331.601 189.869 329.473 191.982C327.345 194.096 324.467 195.281 321.468 195.28H56.6521C53.6529 195.281 50.775 194.096 48.6471 191.982C46.5192 189.869 45.3141 186.999 45.2951 184V15.6C45.3141 12.6009 46.5192 9.73117 48.6471 7.61766C50.775 5.50415 53.6529 4.31862 56.6521 4.32H321.628C324.627 4.31862 327.505 5.50415 329.633 7.61766C331.761 9.73117 332.966 12.6009 332.985 15.6L332.825 184Z" fill="#1A237E"/>
<path d="M147.899 108.869H136.874V85.115C136.874 80.069 133.348 75.979 128.999 75.979H65.999C61.65 75.979 58.124 80.069 58.124 85.115V176.479C58.124 181.525 61.65 185.615 65.999 185.615H147.899C150.505 185.606 152.616 183.157 152.624 180.133V114.351C152.616 111.327 150.505 108.878 147.899 108.869ZM128.999 79.633C131.605 79.642 133.716 82.091 133.724 85.115V108.869H130.574V96.079C130.581 95.6363 130.437 95.2044 130.165 94.855L118.368 79.633H128.999ZM116.399 82.579L125.455 94.255H117.974C117.524 94.2192 117.106 94.0073 116.811 93.6652C116.516 93.3231 116.368 92.8786 116.399 92.428V82.579ZM105.658 181.959H65.999C63.393 181.95 61.282 179.501 61.274 176.477V85.115C61.282 82.091 63.393 79.642 65.999 79.633H113.249V92.424C113.257 95.448 115.368 97.897 117.974 97.906H127.424V108.869H110.099C107.493 108.878 105.382 111.327 105.374 114.351V180.132C105.378 180.752 105.474 181.367 105.658 181.959ZM149.475 180.132C149.506 180.583 149.358 181.027 149.063 181.369C148.768 181.711 148.35 181.923 147.9 181.959H110.1C109.65 181.923 109.232 181.711 108.937 181.369C108.642 181.027 108.494 180.583 108.525 180.132V114.351C108.494 113.9 108.642 113.456 108.937 113.114C109.232 112.772 109.65 112.56 110.1 112.524H147.9C148.35 112.56 148.768 112.772 149.063 113.114C149.358 113.456 149.506 113.9 149.475 114.351V180.132Z" fill="#1A237E"/>
<path d="M143.174 117.288H114.824C113.989 117.288 113.187 117.62 112.597 118.211C112.006 118.801 111.674 119.603 111.674 120.438V129.888C111.674 130.723 112.006 131.525 112.597 132.115C113.187 132.706 113.989 133.038 114.824 133.038H143.174C143.588 133.038 143.997 132.957 144.38 132.798C144.762 132.64 145.109 132.408 145.401 132.115C145.694 131.823 145.926 131.476 146.084 131.093C146.243 130.711 146.324 130.302 146.324 129.888V120.438C146.324 120.024 146.243 119.615 146.084 119.233C145.926 118.85 145.694 118.503 145.401 118.211C145.109 117.918 144.762 117.686 144.38 117.528C143.997 117.37 143.588 117.288 143.174 117.288ZM114.824 129.888V120.438H143.174V129.888H114.824Z" fill="#1A237E"/>
<path d="M136.453 123.373H133.979V126.671H136.453V123.373Z" fill="#1A237E"/>
<path d="M130.681 123.373H127.383V126.671H130.681V123.373Z" fill="#1A237E"/>
<path d="M124.085 123.373H121.611V126.671H124.085V123.373Z" fill="#1A237E"/>
<path d="M119.549 153.901H113.249C113.042 153.901 112.837 153.942 112.646 154.021C112.455 154.1 112.282 154.216 112.135 154.362C111.989 154.509 111.873 154.682 111.794 154.873C111.715 155.064 111.674 155.269 111.674 155.476V161.776C111.674 161.983 111.715 162.188 111.794 162.379C111.873 162.57 111.989 162.743 112.135 162.89C112.282 163.036 112.455 163.152 112.646 163.231C112.837 163.31 113.042 163.351 113.249 163.351H119.549C119.967 163.351 120.367 163.185 120.663 162.89C120.958 162.594 121.124 162.194 121.124 161.776V155.476C121.124 155.058 120.958 154.658 120.663 154.362C120.367 154.067 119.967 153.901 119.549 153.901ZM117.974 160.201H114.824V157.051H117.974V160.201Z" fill="#1A237E"/>
<path d="M119.549 139.058H113.249C113.042 139.058 112.837 139.099 112.646 139.178C112.455 139.257 112.282 139.373 112.135 139.519C111.989 139.666 111.873 139.839 111.794 140.03C111.715 140.221 111.674 140.426 111.674 140.633V146.933C111.674 147.14 111.715 147.345 111.794 147.536C111.873 147.727 111.989 147.9 112.135 148.047C112.282 148.193 112.455 148.309 112.646 148.388C112.837 148.467 113.042 148.508 113.249 148.508H119.549C119.967 148.508 120.367 148.342 120.663 148.047C120.958 147.751 121.124 147.351 121.124 146.933V140.633C121.124 140.426 121.083 140.221 121.004 140.03C120.925 139.839 120.809 139.666 120.663 139.519C120.517 139.373 120.343 139.257 120.152 139.178C119.961 139.099 119.756 139.058 119.549 139.058ZM117.974 145.358H114.824V142.208H117.974V145.358Z" fill="#1A237E"/>
<path d="M132.149 139.058H125.849C125.642 139.058 125.437 139.099 125.246 139.178C125.055 139.257 124.882 139.373 124.735 139.519C124.589 139.666 124.473 139.839 124.394 140.03C124.315 140.221 124.274 140.426 124.274 140.633V146.933C124.274 147.351 124.44 147.751 124.735 148.047C125.031 148.342 125.431 148.508 125.849 148.508H132.149C132.567 148.508 132.967 148.342 133.263 148.047C133.558 147.751 133.724 147.351 133.724 146.933V140.633C133.724 140.426 133.683 140.221 133.604 140.03C133.525 139.839 133.409 139.666 133.263 139.519C133.116 139.373 132.943 139.257 132.752 139.178C132.561 139.099 132.356 139.058 132.149 139.058ZM130.574 145.358H127.424V142.208H130.574V145.358Z" fill="#1A237E"/>
<path d="M144.749 139.058H138.449C138.242 139.058 138.037 139.099 137.846 139.178C137.655 139.257 137.482 139.373 137.335 139.519C137.189 139.666 137.073 139.839 136.994 140.03C136.915 140.221 136.874 140.426 136.874 140.633V146.933C136.874 147.351 137.04 147.751 137.335 148.047C137.631 148.342 138.031 148.508 138.449 148.508H144.749C145.167 148.508 145.567 148.342 145.863 148.047C146.158 147.751 146.324 147.351 146.324 146.933V140.633C146.324 140.426 146.283 140.221 146.204 140.03C146.125 139.839 146.009 139.666 145.863 139.519C145.716 139.373 145.543 139.257 145.352 139.178C145.161 139.099 144.956 139.058 144.749 139.058ZM143.174 145.358H140.024V142.208H143.174V145.358Z" fill="#1A237E"/>
<path d="M132.149 153.901H125.849C125.431 153.901 125.031 154.067 124.735 154.362C124.44 154.658 124.274 155.058 124.274 155.476V161.776C124.274 162.194 124.44 162.594 124.735 162.89C125.031 163.185 125.431 163.351 125.849 163.351H132.149C132.567 163.351 132.967 163.185 133.263 162.89C133.558 162.594 133.724 162.194 133.724 161.776V155.476C133.724 155.058 133.558 154.658 133.263 154.362C132.967 154.067 132.567 153.901 132.149 153.901ZM130.574 160.201H127.424V157.051H130.574V160.201Z" fill="#1A237E"/>
<path d="M144.749 153.901H138.449C138.031 153.901 137.631 154.067 137.335 154.362C137.04 154.658 136.874 155.058 136.874 155.476V161.776C136.874 162.194 137.04 162.594 137.335 162.89C137.631 163.185 138.031 163.351 138.449 163.351H144.749C145.167 163.351 145.567 163.185 145.863 162.89C146.158 162.594 146.324 162.194 146.324 161.776V155.476C146.324 155.058 146.158 154.658 145.863 154.362C145.567 154.067 145.167 153.901 144.749 153.901ZM143.174 160.201H140.024V157.051H143.174V160.201Z" fill="#1A237E"/>
<path d="M119.549 169.864H113.249C113.042 169.864 112.837 169.905 112.646 169.984C112.455 170.063 112.282 170.179 112.135 170.325C111.989 170.472 111.873 170.645 111.794 170.836C111.715 171.027 111.674 171.232 111.674 171.439V177.739C111.674 177.946 111.715 178.151 111.794 178.342C111.873 178.533 111.989 178.706 112.135 178.853C112.282 178.999 112.455 179.115 112.646 179.194C112.837 179.273 113.042 179.314 113.249 179.314H119.549C119.967 179.314 120.367 179.148 120.663 178.853C120.958 178.557 121.124 178.157 121.124 177.739V171.439C121.124 171.021 120.958 170.621 120.663 170.325C120.367 170.03 119.967 169.864 119.549 169.864ZM117.974 176.164H114.824V173.014H117.974V176.164Z" fill="#1A237E"/>
<path d="M132.149 169.864H125.849C125.431 169.864 125.031 170.03 124.735 170.325C124.44 170.621 124.274 171.021 124.274 171.439V177.739C124.274 178.157 124.44 178.557 124.735 178.853C125.031 179.148 125.431 179.314 125.849 179.314H132.149C132.567 179.314 132.967 179.148 133.263 178.853C133.558 178.557 133.724 178.157 133.724 177.739V171.439C133.724 171.021 133.558 170.621 133.263 170.325C132.967 170.03 132.567 169.864 132.149 169.864ZM130.574 176.164H127.424V173.014H130.574V176.164Z" fill="#1A237E"/>
<path d="M144.749 169.864H138.449C138.031 169.864 137.631 170.03 137.335 170.325C137.04 170.621 136.874 171.021 136.874 171.439V177.739C136.874 178.157 137.04 178.557 137.335 178.853C137.631 179.148 138.031 179.314 138.449 179.314H144.749C145.167 179.314 145.567 179.148 145.863 178.853C146.158 178.557 146.324 178.157 146.324 177.739V171.439C146.324 171.021 146.158 170.621 145.863 170.325C145.567 170.03 145.167 169.864 144.749 169.864ZM143.174 176.164H140.024V173.014H143.174V176.164Z" fill="#1A237E"/>
<path d="M86.9363 85.8897L68.036 104.79L70.2634 107.017L89.1637 88.1171L86.9363 85.8897Z" fill="#1A237E"/>
<path d="M72.299 94.879C73.2335 94.879 74.147 94.6019 74.924 94.0827C75.7011 93.5635 76.3067 92.8256 76.6643 91.9622C77.0219 91.0988 77.1155 90.1488 76.9332 89.2322C76.7509 88.3157 76.3009 87.4737 75.6401 86.8129C74.9793 86.1521 74.1373 85.7021 73.2208 85.5198C72.3042 85.3375 71.3542 85.4311 70.4908 85.7887C69.6274 86.1463 68.8895 86.7519 68.3703 87.5289C67.8511 88.306 67.574 89.2195 67.574 90.154C67.574 91.4072 68.0718 92.609 68.9579 93.4951C69.844 94.3812 71.0458 94.879 72.299 94.879ZM72.299 88.579C72.6105 88.579 72.915 88.6714 73.174 88.8445C73.433 89.0175 73.6349 89.2635 73.7541 89.5513C73.8733 89.8391 73.9045 90.1558 73.8437 90.4613C73.7829 90.7668 73.6329 91.0474 73.4127 91.2677C73.1924 91.488 72.9118 91.638 72.6062 91.6988C72.3007 91.7595 71.984 91.7283 71.6962 91.6091C71.4085 91.4899 71.1625 91.288 70.9894 91.029C70.8163 90.77 70.724 90.4655 70.724 90.154C70.724 89.7363 70.8899 89.3357 71.1853 89.0403C71.4807 88.745 71.8813 88.579 72.299 88.579Z" fill="#1A237E"/>
<path d="M84.8991 101.953C83.9646 101.953 83.051 102.23 82.274 102.749C81.497 103.268 80.8914 104.006 80.5337 104.87C80.1761 105.733 80.0825 106.683 80.2649 107.6C80.4472 108.516 80.8972 109.358 81.558 110.019C82.2188 110.68 83.0607 111.13 83.9773 111.312C84.8938 111.495 85.8439 111.401 86.7073 111.043C87.5706 110.686 88.3086 110.08 88.8278 109.303C89.347 108.526 89.6241 107.613 89.6241 106.678C89.6241 105.425 89.1263 104.223 88.2402 103.337C87.354 102.451 86.1522 101.953 84.8991 101.953ZM84.8991 108.253C84.5876 108.253 84.2831 108.161 84.0241 107.988C83.765 107.815 83.5632 107.569 83.444 107.281C83.3248 106.993 83.2936 106.676 83.3543 106.371C83.4151 106.065 83.5651 105.785 83.7854 105.564C84.0056 105.344 84.2863 105.194 84.5918 105.133C84.8973 105.072 85.214 105.104 85.5018 105.223C85.7896 105.342 86.0356 105.544 86.2086 105.803C86.3817 106.062 86.4741 106.366 86.4741 106.678C86.4741 107.096 86.3081 107.496 86.0128 107.792C85.7174 108.087 85.3168 108.253 84.8991 108.253Z" fill="#1A237E"/>
<path d="M110.068 85.296H93.578V88.594H110.068V85.296Z" fill="#1A237E"/>
<path d="M110.068 93.595H93.578V97.718H110.068V93.595Z" fill="#1A237E"/>
<path d="M110.068 101.295H93.578V105.418H110.068V101.295Z" fill="#1A237E"/>
<path d="M72.966 119.528H67.194V122.826H72.966V119.528Z" fill="#1A237E"/>
<path d="M99.35 119.528H77.088V122.826H99.35V119.528Z" fill="#1A237E"/>
<path d="M72.966 127.219H67.194V130.517H72.966V127.219Z" fill="#1A237E"/>
<path d="M99.35 127.219H77.088V130.517H99.35V127.219Z" fill="#1A237E"/>
<path d="M72.966 134.909H67.194V138.207H72.966V134.909Z" fill="#1A237E"/>
<path d="M99.35 134.909H77.088V138.207H99.35V134.909Z" fill="#1A237E"/>
<path d="M72.966 141.724H67.194V145.847H72.966V141.724Z" fill="#1A237E"/>
<path d="M99.35 141.724H77.088V145.847H99.35V141.724Z" fill="#1A237E"/>
<path d="M72.966 149.329H67.194V152.627H72.966V149.329Z" fill="#1A237E"/>
<path d="M99.35 149.329H77.088V152.627H99.35V149.329Z" fill="#1A237E"/>
<path d="M72.966 156.917H67.194V159.391H72.966V156.917Z" fill="#1A237E"/>
<path d="M99.35 156.917H77.088V159.391H99.35V156.917Z" fill="#1A237E"/>
<path d="M211.912 164.205C211.976 163.216 211.882 162.222 211.636 161.262C211.813 160.922 211.907 160.545 211.912 160.162V159.062C211.977 158.068 211.884 157.07 211.636 156.105C211.813 155.765 211.907 155.388 211.912 155.005V153.905C211.976 152.916 211.882 151.922 211.636 150.962C211.813 150.622 211.907 150.245 211.912 149.862C211.912 146.275 205.198 144.712 198.576 144.712C191.954 144.712 185.24 146.276 185.24 149.862C185.245 150.245 185.339 150.622 185.516 150.962C185.183 151.905 185.058 152.909 185.148 153.905V155.005C185.153 155.388 185.247 155.765 185.424 156.105C185.177 157.067 185.084 158.061 185.148 159.052V160.152C185.153 160.535 185.247 160.912 185.424 161.252C185.177 162.215 185.083 163.212 185.148 164.205V165.305C185.153 165.688 185.247 166.065 185.424 166.405C185.177 167.367 185.084 168.362 185.148 169.353V170.453C185.153 170.836 185.247 171.213 185.424 171.553C185.177 172.547 185.084 173.573 185.148 174.596V175.696C185.153 176.079 185.247 176.456 185.424 176.796C185.177 177.759 185.084 178.754 185.148 179.746V180.846C185.128 181.304 185.257 181.756 185.516 182.134C185.713 182.58 186.032 182.961 186.436 183.234C188.827 185.257 194.254 185.993 198.484 185.993C202.714 185.993 208.141 185.257 210.532 183.234C210.925 182.949 211.241 182.571 211.452 182.134C211.712 181.722 211.84 181.241 211.82 180.754V179.654C211.884 178.665 211.79 177.671 211.544 176.711C211.721 176.371 211.815 175.994 211.82 175.611V174.505C211.884 173.516 211.79 172.522 211.544 171.562C211.721 171.222 211.815 170.845 211.82 170.462V169.362C211.884 168.373 211.79 167.379 211.544 166.419C211.721 166.079 211.815 165.702 211.82 165.319C211.897 164.953 211.928 164.579 211.912 164.205ZM198.576 146.636C205.566 146.636 209.796 148.475 209.888 149.763V149.855C209.888 150.039 209.796 150.223 209.52 150.499C208.14 151.971 203.634 152.89 198.575 152.89C193.516 152.89 189.01 151.878 187.63 150.499C187.441 150.33 187.311 150.104 187.262 149.855V149.763C187.263 148.476 191.586 146.636 198.576 146.636ZM187.263 153.81V152.705C189.93 154.36 194.713 154.912 198.575 154.912C202.437 154.912 207.22 154.36 209.887 152.705V155.005C209.882 155.134 209.846 155.26 209.782 155.372C209.718 155.484 209.628 155.579 209.519 155.649C208.139 157.121 203.633 158.04 198.574 158.04C193.515 158.04 189.009 157.028 187.629 155.649C187.44 155.48 187.31 155.254 187.261 155.005L187.263 153.81ZM209.888 179.654V180.854C209.883 180.983 209.847 181.109 209.783 181.221C209.719 181.333 209.629 181.428 209.52 181.498C208.14 182.97 203.634 183.889 198.575 183.889C193.516 183.889 189.01 182.877 187.63 181.498C187.441 181.329 187.311 181.103 187.262 180.854V178.734C189.929 180.298 194.712 180.941 198.574 180.941C202.436 180.941 207.219 180.389 209.886 178.734L209.888 179.654ZM209.888 174.504V175.704C209.883 175.833 209.847 175.959 209.783 176.071C209.719 176.183 209.629 176.278 209.52 176.348C208.14 177.82 203.634 178.739 198.575 178.739C193.516 178.739 189.01 177.727 187.63 176.348C187.441 176.179 187.311 175.953 187.262 175.704V173.584C189.929 175.148 194.712 175.791 198.574 175.791C202.436 175.791 207.219 175.239 209.886 173.584L209.888 174.504ZM209.888 169.354V170.554C209.883 170.683 209.847 170.809 209.783 170.921C209.719 171.033 209.629 171.128 209.52 171.198C208.14 172.578 203.634 173.589 198.575 173.589C193.516 173.589 189.01 172.577 187.63 171.198C187.441 171.029 187.311 170.803 187.262 170.554V168.434C189.929 169.998 194.712 170.641 198.574 170.641C202.436 170.641 207.219 170.089 209.886 168.434L209.888 169.354ZM209.888 164.204V165.404C209.883 165.533 209.847 165.659 209.783 165.771C209.719 165.883 209.629 165.978 209.52 166.048C208.14 167.52 203.634 168.439 198.575 168.439C193.516 168.439 189.01 167.427 187.63 166.048C187.441 165.879 187.311 165.653 187.262 165.404V163.283C189.929 164.847 194.712 165.49 198.574 165.49C202.436 165.49 207.219 164.938 209.886 163.283L209.888 164.204ZM209.888 159.054V160.254C209.883 160.383 209.847 160.509 209.783 160.621C209.719 160.733 209.629 160.828 209.52 160.898C208.14 162.37 203.634 163.289 198.575 163.289C193.516 163.289 189.01 162.277 187.63 160.898C187.441 160.729 187.311 160.503 187.262 160.254V158.133C189.929 159.697 194.712 160.34 198.574 160.34C202.436 160.34 207.219 159.788 209.886 158.133L209.888 159.054Z" fill="#1A237E"/>
<path d="M182.021 169.353C182.086 168.362 181.994 167.368 181.749 166.406C181.926 166.066 182.02 165.689 182.025 165.306V164.206C182.089 163.215 181.996 162.221 181.749 161.26C181.926 160.92 182.02 160.543 182.025 160.16C182.025 156.573 175.311 155.01 168.689 155.01C162.067 155.01 155.349 156.57 155.349 160.156C155.354 160.539 155.448 160.916 155.625 161.256C155.378 162.218 155.285 163.214 155.349 164.206V165.306C155.354 165.689 155.448 166.066 155.625 166.406C155.379 167.366 155.285 168.359 155.349 169.349V170.449C155.354 170.832 155.448 171.209 155.625 171.549C155.377 172.514 155.284 173.512 155.349 174.506V175.606C155.354 175.989 155.448 176.366 155.625 176.706C155.379 177.666 155.285 178.659 155.349 179.649V180.749C155.329 181.207 155.458 181.659 155.717 182.037C155.914 182.483 156.233 182.864 156.637 183.137C159.028 185.16 164.455 185.896 168.685 185.896C172.915 185.896 178.342 185.16 180.733 183.137C181.081 182.807 181.39 182.438 181.653 182.037C181.913 181.625 182.041 181.144 182.021 180.657V179.557C182.085 178.569 181.993 177.578 181.749 176.619C181.926 176.279 182.02 175.902 182.025 175.519V174.419C182.089 173.427 181.996 172.431 181.749 171.469C181.926 171.129 182.02 170.752 182.025 170.369C181.93 170.037 181.929 169.686 182.021 169.353ZM168.593 157.029C175.583 157.029 179.813 158.868 179.905 160.156V160.248C179.905 160.432 179.813 160.616 179.537 160.892C178.157 162.364 173.651 163.283 168.592 163.283C163.533 163.283 159.028 162.272 157.649 160.892C157.46 160.723 157.33 160.497 157.281 160.248V160.156C157.372 158.777 161.695 157.029 168.593 157.029ZM157.28 164.206V163.106C159.949 164.755 164.73 165.306 168.593 165.306C172.456 165.306 177.238 164.754 179.905 163.099V165.399C179.9 165.528 179.864 165.654 179.8 165.766C179.736 165.878 179.646 165.973 179.537 166.043C178.157 167.515 173.651 168.434 168.592 168.434C163.533 168.434 159.028 167.422 157.649 166.043C157.46 165.874 157.33 165.648 157.281 165.399L157.28 164.206ZM179.905 179.654V180.854C179.9 180.983 179.864 181.109 179.8 181.221C179.736 181.333 179.646 181.428 179.537 181.498C178.157 182.97 173.651 183.889 168.592 183.889C163.533 183.889 159.028 182.873 157.649 181.494C157.46 181.325 157.33 181.099 157.281 180.85V178.735C159.948 180.298 164.731 180.942 168.593 180.942C172.455 180.942 177.238 180.39 179.905 178.735C179.905 178.919 179.905 179.286 179.905 179.654ZM179.905 174.504V175.704C179.9 175.833 179.864 175.959 179.8 176.071C179.736 176.183 179.646 176.278 179.537 176.348C178.157 177.82 173.651 178.739 168.592 178.739C163.533 178.739 159.028 177.723 157.649 176.343C157.46 176.174 157.33 175.948 157.281 175.699V173.584C159.948 175.147 164.731 175.791 168.593 175.791C172.455 175.791 177.238 175.239 179.905 173.584C179.905 173.768 179.905 174.136 179.905 174.506V174.504ZM179.905 169.354V170.554C179.9 170.683 179.864 170.809 179.8 170.921C179.736 171.033 179.646 171.128 179.537 171.198C178.157 172.578 173.651 173.589 168.592 173.589C163.533 173.589 159.028 172.572 157.649 171.193C157.46 171.024 157.33 170.798 157.281 170.549V168.434C159.948 169.998 164.731 170.641 168.593 170.641C172.455 170.641 177.238 170.089 179.905 168.434C179.905 168.618 179.905 168.987 179.905 169.354Z" fill="#1A237E"/>
<path d="M179.176 74L161.256 29.2H172.584L181.224 52.048C181.736 53.3707 182.163 54.5227 182.504 55.504C182.888 56.4853 183.208 57.4027 183.464 58.256C183.763 59.1093 184.019 59.984 184.232 60.88C184.488 61.7333 184.765 62.7147 185.064 63.824H183.08C183.421 62.3733 183.763 61.0933 184.104 59.984C184.445 58.832 184.829 57.6587 185.256 56.464C185.683 55.2267 186.216 53.7547 186.856 52.048L195.176 29.2H206.312L188.264 74H179.176ZM208.086 74L225.814 29.2H235.03L252.63 74H241.622L233.174 51.28C232.833 50.384 232.491 49.424 232.15 48.4C231.809 47.376 231.467 46.3307 231.126 45.264C230.785 44.1547 230.443 43.088 230.102 42.064C229.803 40.9973 229.547 40.016 229.334 39.12L231.254 39.056C230.998 40.1227 230.699 41.168 230.358 42.192C230.059 43.216 229.739 44.24 229.398 45.264C229.099 46.2453 228.758 47.248 228.374 48.272C227.99 49.2533 227.627 50.2773 227.286 51.344L218.838 74H208.086ZM216.534 65.424L219.926 57.232H240.534L243.862 65.424H216.534ZM271.16 74V38.8H257.848V29.2H295.672V38.8H282.04V74H271.16Z" fill="#1A237E"/>
</g>
<defs>
<clipPath id="clip0_219_15">
<rect width="415.122" height="200" fill="white"/>
</clipPath>
</defs>
</svg>
