<svg width="400" height="400" viewBox="0 0 400 400" fill="none" xmlns="http://www.w3.org/2000/svg">
<g filter="url(#filter0_d_435_129)">
<rect x="77.1299" y="149.696" width="116.057" height="116.057" rx="15.2601" fill="white" shape-rendering="crispEdges"/>
<rect x="77.6068" y="150.173" width="115.103" height="115.103" rx="14.7832" stroke="#212528" stroke-width="0.953757" shape-rendering="crispEdges"/>
<path d="M150.955 175.101V178.427H145.967V183.415H142.641V178.427H137.653V175.101H142.641V170.113H145.967V175.101H150.955ZM145.967 198.38H122.687V175.101H132.664V171.776H122.687C120.858 171.776 119.362 173.272 119.362 175.101V198.38C119.362 200.209 120.858 201.706 122.687 201.706H145.967C147.796 201.706 149.292 200.209 149.292 198.38V188.404H145.967V198.38ZM139.315 188.404V195.055H142.641V188.404H139.315ZM132.664 195.055H135.99V181.752H132.664V195.055ZM129.339 195.055V185.078H126.013V195.055H129.339Z" fill="#F2800D"/>
<path d="M95.9567 228.493V217.395H100.119C100.971 217.395 101.687 217.543 102.265 217.839C102.846 218.135 103.285 218.551 103.581 219.086C103.881 219.617 104.031 220.236 104.031 220.944C104.031 221.656 103.879 222.274 103.576 222.798C103.276 223.318 102.834 223.721 102.248 224.006C101.663 224.288 100.944 224.429 100.091 224.429H97.1273V222.76H99.8205C100.319 222.76 100.727 222.691 101.045 222.554C101.363 222.413 101.598 222.209 101.75 221.941C101.905 221.67 101.983 221.338 101.983 220.944C101.983 220.55 101.905 220.215 101.75 219.936C101.594 219.655 101.358 219.441 101.04 219.297C100.722 219.149 100.312 219.075 99.8097 219.075H97.9672V228.493H95.9567ZM101.69 223.464L104.438 228.493H102.194L99.4954 223.464H101.69ZM109.361 228.656C108.526 228.656 107.806 228.482 107.199 228.135C106.595 227.785 106.131 227.29 105.806 226.651C105.481 226.007 105.318 225.251 105.318 224.38C105.318 223.524 105.481 222.772 105.806 222.126C106.135 221.475 106.593 220.97 107.182 220.608C107.771 220.243 108.463 220.061 109.258 220.061C109.771 220.061 110.255 220.144 110.71 220.31C111.169 220.473 111.574 220.726 111.924 221.069C112.278 221.412 112.556 221.849 112.759 222.38C112.961 222.908 113.062 223.536 113.062 224.266V224.868H106.239V223.545H111.182C111.178 223.17 111.097 222.836 110.938 222.543C110.779 222.247 110.557 222.014 110.271 221.844C109.989 221.674 109.661 221.589 109.285 221.589C108.884 221.589 108.532 221.687 108.228 221.882C107.925 222.073 107.688 222.326 107.518 222.64C107.352 222.951 107.267 223.293 107.264 223.665V224.819C107.264 225.303 107.352 225.718 107.529 226.065C107.706 226.409 107.954 226.672 108.272 226.856C108.59 227.037 108.962 227.127 109.388 227.127C109.673 227.127 109.932 227.088 110.163 227.008C110.394 226.925 110.595 226.804 110.764 226.645C110.934 226.486 111.062 226.289 111.149 226.054L112.981 226.26C112.865 226.744 112.645 227.167 112.32 227.528C111.998 227.886 111.586 228.164 111.084 228.363C110.582 228.558 110.008 228.656 109.361 228.656ZM114.722 231.614V220.169H116.651V221.546H116.765C116.866 221.343 117.008 221.129 117.193 220.901C117.377 220.67 117.626 220.473 117.941 220.31C118.255 220.144 118.656 220.061 119.144 220.061C119.787 220.061 120.367 220.225 120.883 220.554C121.403 220.879 121.815 221.362 122.119 222.001C122.426 222.637 122.579 223.417 122.579 224.342C122.579 225.256 122.429 226.033 122.13 226.672C121.83 227.312 121.421 227.799 120.905 228.135C120.388 228.471 119.803 228.639 119.149 228.639C118.672 228.639 118.277 228.56 117.962 228.401C117.648 228.242 117.395 228.05 117.204 227.826C117.016 227.599 116.869 227.384 116.765 227.182H116.683V231.614H114.722ZM116.645 224.331C116.645 224.869 116.721 225.341 116.873 225.746C117.028 226.15 117.251 226.466 117.54 226.694C117.832 226.918 118.186 227.03 118.602 227.03C119.035 227.03 119.398 226.914 119.691 226.683C119.984 226.448 120.204 226.129 120.352 225.724C120.504 225.316 120.58 224.851 120.58 224.331C120.58 223.815 120.506 223.356 120.357 222.955C120.209 222.554 119.989 222.239 119.696 222.012C119.404 221.784 119.039 221.67 118.602 221.67C118.183 221.67 117.827 221.781 117.534 222.001C117.242 222.221 117.019 222.53 116.868 222.928C116.719 223.325 116.645 223.793 116.645 224.331ZM127.89 228.656C127.077 228.656 126.373 228.477 125.777 228.119C125.18 227.761 124.718 227.261 124.389 226.618C124.064 225.975 123.902 225.224 123.902 224.364C123.902 223.504 124.064 222.751 124.389 222.104C124.718 221.457 125.18 220.955 125.777 220.597C126.373 220.24 127.077 220.061 127.89 220.061C128.703 220.061 129.407 220.24 130.003 220.597C130.6 220.955 131.06 221.457 131.385 222.104C131.714 222.751 131.878 223.504 131.878 224.364C131.878 225.224 131.714 225.975 131.385 226.618C131.06 227.261 130.6 227.761 130.003 228.119C129.407 228.477 128.703 228.656 127.89 228.656ZM127.901 227.084C128.342 227.084 128.71 226.963 129.006 226.721C129.303 226.475 129.523 226.147 129.667 225.735C129.816 225.323 129.89 224.864 129.89 224.358C129.89 223.849 129.816 223.388 129.667 222.976C129.523 222.561 129.303 222.23 129.006 221.985C128.71 221.739 128.342 221.616 127.901 221.616C127.449 221.616 127.074 221.739 126.774 221.985C126.477 222.23 126.255 222.561 126.107 222.976C125.963 223.388 125.89 223.849 125.89 224.358C125.89 224.864 125.963 225.323 126.107 225.735C126.255 226.147 126.477 226.475 126.774 226.721C127.074 226.963 127.449 227.084 127.901 227.084ZM133.543 228.493V220.169H135.446V221.557H135.532C135.684 221.076 135.944 220.706 136.313 220.446C136.685 220.182 137.109 220.05 137.586 220.05C137.694 220.05 137.815 220.056 137.949 220.066C138.086 220.074 138.2 220.086 138.291 220.104V221.909C138.207 221.88 138.076 221.855 137.895 221.833C137.718 221.808 137.546 221.795 137.38 221.795C137.022 221.795 136.701 221.873 136.416 222.028C136.134 222.18 135.912 222.391 135.749 222.662C135.586 222.933 135.505 223.246 135.505 223.6V228.493H133.543ZM144.197 220.169V221.687H139.412V220.169H144.197ZM140.594 218.175H142.555V225.989C142.555 226.253 142.595 226.455 142.675 226.596C142.758 226.734 142.866 226.828 143 226.878C143.133 226.929 143.282 226.954 143.444 226.954C143.567 226.954 143.679 226.945 143.78 226.927C143.885 226.909 143.964 226.893 144.019 226.878L144.349 228.412C144.244 228.448 144.094 228.488 143.899 228.531C143.708 228.574 143.473 228.6 143.195 228.607C142.703 228.621 142.261 228.547 141.867 228.385C141.473 228.218 141.161 227.962 140.93 227.615C140.702 227.268 140.59 226.835 140.594 226.315V218.175ZM152.297 222.369L150.509 222.565C150.459 222.384 150.37 222.214 150.244 222.055C150.121 221.896 149.955 221.768 149.745 221.67C149.536 221.573 149.279 221.524 148.976 221.524C148.567 221.524 148.224 221.613 147.946 221.79C147.671 221.967 147.536 222.196 147.54 222.478C147.536 222.72 147.624 222.917 147.805 223.069C147.989 223.22 148.293 223.345 148.715 223.442L150.135 223.746C150.923 223.916 151.508 224.185 151.891 224.553C152.278 224.922 152.473 225.404 152.476 226C152.473 226.524 152.319 226.987 152.016 227.388C151.716 227.785 151.299 228.096 150.764 228.32C150.229 228.544 149.615 228.656 148.921 228.656C147.903 228.656 147.083 228.442 146.461 228.016C145.84 227.586 145.469 226.988 145.35 226.222L147.263 226.038C147.35 226.414 147.534 226.698 147.816 226.889C148.098 227.08 148.464 227.176 148.916 227.176C149.382 227.176 149.756 227.08 150.038 226.889C150.323 226.698 150.466 226.461 150.466 226.179C150.466 225.941 150.374 225.744 150.189 225.588C150.009 225.433 149.727 225.314 149.344 225.231L147.924 224.933C147.126 224.767 146.535 224.487 146.152 224.093C145.769 223.695 145.58 223.193 145.583 222.586C145.58 222.073 145.719 221.629 146.001 221.253C146.286 220.874 146.682 220.581 147.187 220.375C147.697 220.166 148.284 220.061 148.949 220.061C149.924 220.061 150.692 220.269 151.252 220.684C151.815 221.1 152.164 221.661 152.297 222.369ZM161.51 228.656C160.697 228.656 159.993 228.477 159.396 228.119C158.8 227.761 158.338 227.261 158.009 226.618C157.684 225.975 157.521 225.224 157.521 224.364C157.521 223.504 157.684 222.751 158.009 222.104C158.338 221.457 158.8 220.955 159.396 220.597C159.993 220.24 160.697 220.061 161.51 220.061C162.323 220.061 163.027 220.24 163.623 220.597C164.219 220.955 164.68 221.457 165.005 222.104C165.334 222.751 165.498 223.504 165.498 224.364C165.498 225.224 165.334 225.975 165.005 226.618C164.68 227.261 164.219 227.761 163.623 228.119C163.027 228.477 162.323 228.656 161.51 228.656ZM161.521 227.084C161.962 227.084 162.33 226.963 162.626 226.721C162.922 226.475 163.143 226.147 163.287 225.735C163.435 225.323 163.51 224.864 163.51 224.358C163.51 223.849 163.435 223.388 163.287 222.976C163.143 222.561 162.922 222.23 162.626 221.985C162.33 221.739 161.962 221.616 161.521 221.616C161.069 221.616 160.693 221.739 160.394 221.985C160.097 222.23 159.875 222.561 159.727 222.976C159.583 223.388 159.51 223.849 159.51 224.358C159.51 224.864 159.583 225.323 159.727 225.735C159.875 226.147 160.097 226.475 160.394 226.721C160.693 226.963 161.069 227.084 161.521 227.084ZM169.125 223.616V228.493H167.163V220.169H169.038V221.584H169.136C169.327 221.118 169.633 220.747 170.052 220.473C170.474 220.198 170.996 220.061 171.618 220.061C172.192 220.061 172.693 220.184 173.119 220.429C173.549 220.675 173.881 221.031 174.116 221.497C174.354 221.963 174.472 222.528 174.468 223.193V228.493H172.507V223.497C172.507 222.94 172.362 222.505 172.073 222.191C171.788 221.876 171.392 221.719 170.886 221.719C170.543 221.719 170.238 221.795 169.97 221.947C169.707 222.095 169.499 222.31 169.347 222.592C169.199 222.873 169.125 223.215 169.125 223.616ZM92.2047 238.446C92.1541 237.972 91.941 237.604 91.5653 237.34C91.1932 237.077 90.7091 236.945 90.113 236.945C89.6939 236.945 89.3344 237.008 89.0346 237.134C88.7347 237.261 88.5053 237.432 88.3463 237.649C88.1874 237.866 88.1061 238.113 88.1025 238.392C88.1025 238.623 88.1549 238.823 88.2596 238.993C88.368 239.163 88.5143 239.307 88.6986 239.427C88.8828 239.542 89.0869 239.64 89.3109 239.719C89.5349 239.799 89.7607 239.866 89.9883 239.92L91.0288 240.18C91.4479 240.277 91.8507 240.409 92.2372 240.575C92.6274 240.742 92.976 240.951 93.2831 241.204C93.5938 241.457 93.8395 241.762 94.0201 242.12C94.2007 242.478 94.2911 242.897 94.2911 243.377C94.2911 244.027 94.1249 244.6 93.7925 245.095C93.4601 245.586 92.9796 245.971 92.351 246.249C91.726 246.524 90.9692 246.661 90.0804 246.661C89.217 246.661 88.4674 246.527 87.8315 246.26C87.1993 245.993 86.7044 245.603 86.3467 245.09C85.9927 244.576 85.8012 243.951 85.7723 243.215H87.7502C87.7791 243.601 87.8984 243.923 88.1079 244.179C88.3174 244.436 88.5902 244.627 88.9262 244.754C89.2658 244.88 89.6451 244.943 90.0642 244.943C90.5013 244.943 90.8843 244.878 91.213 244.748C91.5454 244.614 91.8055 244.43 91.9934 244.195C92.1812 243.957 92.277 243.679 92.2806 243.361C92.277 243.072 92.1921 242.833 92.0259 242.646C91.8597 242.454 91.6267 242.295 91.3268 242.169C91.0306 242.039 90.6838 241.923 90.2864 241.822L89.0237 241.497C88.1097 241.262 87.3872 240.906 86.8561 240.429C86.3286 239.949 86.0649 239.311 86.0649 238.516C86.0649 237.862 86.2419 237.29 86.596 236.798C86.9536 236.307 87.4395 235.926 88.0537 235.655C88.6679 235.38 89.3633 235.243 90.1401 235.243C90.9276 235.243 91.6177 235.38 92.2101 235.655C92.8062 235.926 93.2741 236.303 93.6137 236.787C93.9533 237.268 94.1285 237.821 94.1393 238.446H92.2047ZM98.3919 246.661C97.8645 246.661 97.3894 246.567 96.9667 246.379C96.5477 246.188 96.2153 245.906 95.9696 245.534C95.7276 245.162 95.6065 244.703 95.6065 244.157C95.6065 243.688 95.6932 243.299 95.8667 242.992C96.0401 242.685 96.2767 242.44 96.5766 242.255C96.8764 242.071 97.2142 241.932 97.5899 241.838C97.9693 241.741 98.3612 241.67 98.7659 241.627C99.2536 241.576 99.6492 241.531 99.9526 241.491C100.256 241.448 100.476 241.383 100.614 241.296C100.755 241.206 100.825 241.067 100.825 240.879V240.846C100.825 240.438 100.704 240.122 100.462 239.898C100.22 239.674 99.8713 239.562 99.4161 239.562C98.9357 239.562 98.5545 239.667 98.2727 239.876C97.9945 240.086 97.8067 240.333 97.7091 240.619L95.8775 240.359C96.022 239.853 96.2604 239.43 96.5928 239.091C96.9252 238.747 97.3316 238.491 97.8121 238.321C98.2926 238.148 98.8237 238.061 99.4053 238.061C99.8063 238.061 100.206 238.108 100.603 238.202C101 238.296 101.363 238.451 101.692 238.668C102.021 238.881 102.285 239.172 102.483 239.54C102.686 239.909 102.787 240.369 102.787 240.922V246.493H100.901V245.35H100.836C100.717 245.581 100.549 245.798 100.332 246C100.119 246.199 99.8497 246.359 99.5245 246.482C99.203 246.601 98.8255 246.661 98.3919 246.661ZM98.9013 245.22C99.2951 245.22 99.6365 245.142 99.9255 244.987C100.215 244.828 100.437 244.618 100.592 244.358C100.751 244.098 100.831 243.814 100.831 243.507V242.526C100.769 242.577 100.664 242.624 100.516 242.667C100.372 242.711 100.209 242.748 100.029 242.781C99.8479 242.813 99.669 242.842 99.492 242.868C99.315 242.893 99.1615 242.915 99.0314 242.933C98.7388 242.972 98.4768 243.037 98.2456 243.128C98.0144 243.218 97.832 243.345 97.6983 243.507C97.5646 243.666 97.4978 243.872 97.4978 244.125C97.4978 244.486 97.6297 244.759 97.8934 244.943C98.1571 245.127 98.4931 245.22 98.9013 245.22ZM106.721 235.395V246.493H104.759V235.395H106.721ZM112.423 246.656C111.589 246.656 110.868 246.482 110.261 246.135C109.658 245.785 109.194 245.29 108.868 244.651C108.543 244.007 108.381 243.251 108.381 242.38C108.381 241.524 108.543 240.772 108.868 240.126C109.197 239.475 109.656 238.97 110.245 238.608C110.834 238.243 111.526 238.061 112.32 238.061C112.833 238.061 113.317 238.144 113.773 238.31C114.231 238.473 114.636 238.726 114.986 239.069C115.341 239.412 115.619 239.849 115.821 240.38C116.023 240.908 116.125 241.536 116.125 242.266V242.868H109.302V241.545H114.244C114.24 241.17 114.159 240.836 114 240.543C113.841 240.247 113.619 240.014 113.334 239.844C113.052 239.674 112.723 239.589 112.347 239.589C111.946 239.589 111.594 239.687 111.291 239.882C110.987 240.073 110.751 240.326 110.581 240.64C110.415 240.951 110.33 241.293 110.326 241.665V242.819C110.326 243.303 110.415 243.718 110.592 244.065C110.769 244.409 111.016 244.672 111.334 244.856C111.652 245.037 112.024 245.127 112.45 245.127C112.736 245.127 112.994 245.088 113.225 245.008C113.457 244.925 113.657 244.804 113.827 244.645C113.997 244.486 114.125 244.289 114.212 244.054L116.043 244.26C115.928 244.744 115.707 245.167 115.382 245.528C115.061 245.886 114.649 246.164 114.147 246.363C113.644 246.558 113.07 246.656 112.423 246.656ZM124.363 240.369L122.575 240.565C122.524 240.384 122.435 240.214 122.309 240.055C122.186 239.896 122.02 239.768 121.81 239.67C121.601 239.573 121.344 239.524 121.041 239.524C120.633 239.524 120.29 239.613 120.011 239.79C119.737 239.967 119.601 240.196 119.605 240.478C119.601 240.72 119.69 240.917 119.87 241.069C120.055 241.22 120.358 241.345 120.781 241.442L122.201 241.746C122.988 241.916 123.573 242.185 123.956 242.553C124.343 242.922 124.538 243.404 124.542 244C124.538 244.524 124.385 244.987 124.081 245.388C123.781 245.785 123.364 246.096 122.829 246.32C122.295 246.544 121.68 246.656 120.987 246.656C119.968 246.656 119.148 246.442 118.527 246.016C117.905 245.586 117.535 244.988 117.416 244.222L119.329 244.038C119.415 244.414 119.599 244.698 119.881 244.889C120.163 245.08 120.53 245.176 120.981 245.176C121.447 245.176 121.821 245.08 122.103 244.889C122.388 244.698 122.531 244.461 122.531 244.179C122.531 243.941 122.439 243.744 122.255 243.588C122.074 243.433 121.792 243.314 121.409 243.231L119.99 242.933C119.191 242.767 118.601 242.487 118.218 242.093C117.835 241.695 117.645 241.193 117.649 240.586C117.645 240.073 117.784 239.629 118.066 239.253C118.351 238.874 118.747 238.581 119.253 238.375C119.762 238.166 120.349 238.061 121.014 238.061C121.989 238.061 122.757 238.269 123.317 238.684C123.881 239.1 124.229 239.661 124.363 240.369ZM133.261 246.656C132.502 246.656 131.85 246.518 131.305 246.244C130.759 245.969 130.338 245.599 130.042 245.133C129.749 244.663 129.603 244.134 129.603 243.545C129.603 243.101 129.693 242.707 129.874 242.364C130.058 242.021 130.311 241.703 130.633 241.41C130.958 241.117 131.334 240.826 131.76 240.537L133.727 239.199C134.016 239.011 134.235 238.812 134.383 238.603C134.534 238.393 134.61 238.148 134.61 237.866C134.61 237.627 134.509 237.402 134.307 237.188C134.108 236.975 133.834 236.869 133.483 236.869C133.248 236.869 133.041 236.925 132.86 237.037C132.683 237.145 132.544 237.288 132.443 237.465C132.345 237.642 132.296 237.83 132.296 238.028C132.296 238.271 132.363 238.516 132.497 238.765C132.634 239.015 132.811 239.273 133.028 239.54C133.248 239.808 133.483 240.091 133.732 240.391L138.94 246.493H136.816L132.491 241.54C132.17 241.164 131.859 240.794 131.559 240.429C131.263 240.064 131.019 239.685 130.828 239.291C130.64 238.894 130.546 238.464 130.546 238.001C130.546 237.478 130.667 237.01 130.909 236.598C131.151 236.182 131.489 235.855 131.922 235.617C132.36 235.379 132.871 235.259 133.456 235.259C134.041 235.259 134.543 235.375 134.963 235.606C135.382 235.837 135.705 236.144 135.933 236.527C136.16 236.91 136.274 237.328 136.274 237.779C136.274 238.303 136.144 238.773 135.884 239.188C135.624 239.6 135.262 239.974 134.8 240.31L132.556 241.952C132.188 242.219 131.924 242.49 131.765 242.765C131.606 243.036 131.527 243.267 131.527 243.458C131.527 243.751 131.601 244.017 131.749 244.255C131.897 244.493 132.105 244.685 132.372 244.829C132.643 244.97 132.959 245.041 133.321 245.041C133.718 245.041 134.11 244.952 134.497 244.775C134.883 244.595 135.235 244.338 135.553 244.006C135.871 243.673 136.124 243.276 136.312 242.813C136.5 242.347 136.594 241.831 136.594 241.264H138.279C138.279 241.965 138.201 242.575 138.046 243.095C137.891 243.612 137.69 244.049 137.444 244.407C137.199 244.761 136.939 245.044 136.664 245.257C136.577 245.319 136.494 245.38 136.415 245.442C136.335 245.503 136.252 245.565 136.166 245.626C135.775 245.98 135.318 246.24 134.795 246.406C134.274 246.573 133.763 246.656 133.261 246.656ZM149.967 238.446C149.916 237.972 149.703 237.604 149.327 237.34C148.955 237.077 148.471 236.945 147.875 236.945C147.456 236.945 147.096 237.008 146.796 237.134C146.497 237.261 146.267 237.432 146.108 237.649C145.949 237.866 145.868 238.113 145.864 238.392C145.864 238.623 145.917 238.823 146.022 238.993C146.13 239.163 146.276 239.307 146.46 239.427C146.645 239.542 146.849 239.64 147.073 239.719C147.297 239.799 147.523 239.866 147.75 239.92L148.791 240.18C149.21 240.277 149.613 240.409 149.999 240.575C150.389 240.742 150.738 240.951 151.045 241.204C151.356 241.457 151.601 241.762 151.782 242.12C151.963 242.478 152.053 242.897 152.053 243.377C152.053 244.027 151.887 244.6 151.554 245.095C151.222 245.586 150.742 245.971 150.113 246.249C149.488 246.524 148.731 246.661 147.842 246.661C146.979 246.661 146.229 246.527 145.593 246.26C144.961 245.993 144.466 245.603 144.109 245.09C143.755 244.576 143.563 243.951 143.534 243.215H145.512C145.541 243.601 145.66 243.923 145.87 244.179C146.079 244.436 146.352 244.627 146.688 244.754C147.028 244.88 147.407 244.943 147.826 244.943C148.263 244.943 148.646 244.878 148.975 244.748C149.307 244.614 149.567 244.43 149.755 244.195C149.943 243.957 150.039 243.679 150.042 243.361C150.039 243.072 149.954 242.833 149.788 242.646C149.622 242.454 149.389 242.295 149.089 242.169C148.792 242.039 148.446 241.923 148.048 241.822L146.786 241.497C145.872 241.262 145.149 240.906 144.618 240.429C144.091 239.949 143.827 239.311 143.827 238.516C143.827 237.862 144.004 237.29 144.358 236.798C144.716 236.307 145.201 235.926 145.816 235.655C146.43 235.38 147.125 235.243 147.902 235.243C148.69 235.243 149.38 235.38 149.972 235.655C150.568 235.926 151.036 236.303 151.376 236.787C151.715 237.268 151.89 237.821 151.901 238.446H149.967ZM157.915 238.169V239.687H153.13V238.169H157.915ZM154.311 236.175H156.273V243.989C156.273 244.253 156.313 244.455 156.392 244.596C156.475 244.734 156.584 244.828 156.717 244.878C156.851 244.929 156.999 244.954 157.162 244.954C157.285 244.954 157.397 244.945 157.498 244.927C157.603 244.909 157.682 244.893 157.736 244.878L158.067 246.412C157.962 246.448 157.812 246.488 157.617 246.531C157.426 246.574 157.191 246.6 156.913 246.607C156.421 246.621 155.979 246.547 155.585 246.385C155.191 246.218 154.879 245.962 154.647 245.615C154.42 245.268 154.308 244.835 154.311 244.315V236.175ZM163.097 246.656C162.284 246.656 161.58 246.477 160.984 246.119C160.387 245.761 159.925 245.261 159.596 244.618C159.271 243.975 159.109 243.224 159.109 242.364C159.109 241.504 159.271 240.751 159.596 240.104C159.925 239.457 160.387 238.955 160.984 238.597C161.58 238.24 162.284 238.061 163.097 238.061C163.91 238.061 164.614 238.24 165.21 238.597C165.807 238.955 166.267 239.457 166.592 240.104C166.921 240.751 167.085 241.504 167.085 242.364C167.085 243.224 166.921 243.975 166.592 244.618C166.267 245.261 165.807 245.761 165.21 246.119C164.614 246.477 163.91 246.656 163.097 246.656ZM163.108 245.084C163.549 245.084 163.917 244.963 164.213 244.721C164.51 244.475 164.73 244.147 164.874 243.735C165.023 243.323 165.097 242.864 165.097 242.358C165.097 241.849 165.023 241.388 164.874 240.976C164.73 240.561 164.51 240.23 164.213 239.985C163.917 239.739 163.549 239.616 163.108 239.616C162.656 239.616 162.281 239.739 161.981 239.985C161.684 240.23 161.462 240.561 161.314 240.976C161.17 241.388 161.097 241.849 161.097 242.358C161.097 242.864 161.17 243.323 161.314 243.735C161.462 244.147 161.684 244.475 161.981 244.721C162.281 244.963 162.656 245.084 163.108 245.084ZM172.381 246.656C171.55 246.656 170.837 246.473 170.241 246.108C169.648 245.743 169.191 245.239 168.87 244.596C168.552 243.95 168.393 243.205 168.393 242.364C168.393 241.518 168.555 240.772 168.881 240.126C169.206 239.475 169.664 238.97 170.257 238.608C170.853 238.243 171.558 238.061 172.37 238.061C173.046 238.061 173.644 238.186 174.164 238.435C174.688 238.681 175.105 239.029 175.416 239.481C175.727 239.929 175.904 240.453 175.947 241.052H174.072C173.996 240.651 173.815 240.317 173.53 240.05C173.248 239.779 172.871 239.643 172.398 239.643C171.996 239.643 171.644 239.752 171.341 239.968C171.037 240.182 170.801 240.489 170.631 240.89C170.465 241.291 170.382 241.771 170.382 242.331C170.382 242.898 170.465 243.386 170.631 243.794C170.797 244.199 171.03 244.511 171.33 244.732C171.633 244.949 171.989 245.057 172.398 245.057C172.687 245.057 172.945 245.003 173.172 244.894C173.404 244.782 173.597 244.622 173.752 244.412C173.908 244.203 174.014 243.948 174.072 243.648H175.947C175.9 244.237 175.727 244.759 175.427 245.214C175.127 245.666 174.719 246.02 174.202 246.276C173.685 246.529 173.079 246.656 172.381 246.656ZM179.346 243.881L179.341 241.513H179.655L182.646 238.169H184.939L181.259 242.266H180.853L179.346 243.881ZM177.558 246.493V235.395H179.52V246.493H177.558ZM182.782 246.493L180.072 242.705L181.395 241.323L185.128 246.493H182.782Z" fill="#212528"/>
</g>
<g filter="url(#filter1_d_435_129)">
<rect x="206.761" y="149.572" width="116.057" height="116.057" rx="15.2601" fill="white" shape-rendering="crispEdges"/>
<rect x="207.238" y="150.049" width="115.103" height="115.103" rx="14.7832" stroke="#212528" stroke-width="0.953757" shape-rendering="crispEdges"/>
<path d="M266.452 179.683C267.866 179.184 268.996 178.054 269.495 176.64H274.766L269.778 188.28C269.778 191.04 272.389 193.268 275.598 193.268C278.807 193.268 281.418 191.04 281.418 188.28L276.429 176.64H279.755V173.315H269.495C268.814 171.369 266.968 169.989 264.79 169.989C262.611 169.989 260.766 171.369 260.084 173.315H249.824V176.64H253.15L248.162 188.28C248.162 191.04 250.772 193.268 253.981 193.268C257.191 193.268 259.801 191.04 259.801 188.28L254.813 176.64H260.084C260.583 178.054 261.713 179.184 263.127 179.683V198.257H248.162V201.582H281.418V198.257H266.452V179.683ZM278.707 188.28H272.488L275.598 181.03L278.707 188.28ZM257.091 188.28H250.872L253.981 181.03L257.091 188.28ZM264.79 176.64C263.875 176.64 263.127 175.892 263.127 174.977C263.127 174.063 263.875 173.315 264.79 173.315C265.704 173.315 266.452 174.063 266.452 174.977C266.452 175.892 265.704 176.64 264.79 176.64Z" fill="#FF59EE"/>
<path d="M249.481 218.956V217.271H258.335V218.956H254.905V228.369H252.911V218.956H249.481ZM259.091 228.369V220.046H260.993V221.433H261.08C261.232 220.952 261.492 220.582 261.861 220.322C262.233 220.058 262.657 219.926 263.134 219.926C263.242 219.926 263.363 219.932 263.497 219.943C263.634 219.95 263.748 219.962 263.838 219.981V221.785C263.755 221.756 263.624 221.731 263.443 221.709C263.266 221.684 263.094 221.671 262.928 221.671C262.57 221.671 262.249 221.749 261.963 221.904C261.682 222.056 261.46 222.267 261.297 222.538C261.134 222.809 261.053 223.122 261.053 223.476V228.369H259.091ZM267.388 228.537C266.861 228.537 266.385 228.443 265.963 228.255C265.544 228.064 265.211 227.782 264.966 227.41C264.724 227.038 264.603 226.579 264.603 226.034C264.603 225.564 264.689 225.176 264.863 224.869C265.036 224.561 265.273 224.316 265.573 224.132C265.872 223.947 266.21 223.808 266.586 223.714C266.965 223.617 267.357 223.546 267.762 223.503C268.25 223.452 268.645 223.407 268.949 223.367C269.252 223.324 269.473 223.259 269.61 223.172C269.751 223.082 269.821 222.943 269.821 222.755V222.723C269.821 222.314 269.7 221.998 269.458 221.774C269.216 221.55 268.867 221.438 268.412 221.438C267.932 221.438 267.551 221.543 267.269 221.753C266.991 221.962 266.803 222.21 266.705 222.495L264.874 222.235C265.018 221.729 265.256 221.306 265.589 220.967C265.921 220.624 266.328 220.367 266.808 220.197C267.289 220.024 267.82 219.937 268.401 219.937C268.802 219.937 269.202 219.984 269.599 220.078C269.996 220.172 270.359 220.327 270.688 220.544C271.017 220.757 271.281 221.048 271.479 221.417C271.682 221.785 271.783 222.246 271.783 222.798V228.369H269.897V227.226H269.832C269.713 227.457 269.545 227.674 269.328 227.876C269.115 228.075 268.846 228.236 268.521 228.358C268.199 228.478 267.822 228.537 267.388 228.537ZM267.897 227.096C268.291 227.096 268.633 227.018 268.922 226.863C269.211 226.704 269.433 226.494 269.588 226.234C269.747 225.974 269.827 225.69 269.827 225.383V224.403C269.765 224.453 269.66 224.5 269.512 224.543C269.368 224.587 269.205 224.625 269.025 224.657C268.844 224.69 268.665 224.719 268.488 224.744C268.311 224.769 268.157 224.791 268.027 224.809C267.735 224.849 267.473 224.914 267.242 225.004C267.01 225.094 266.828 225.221 266.694 225.383C266.561 225.542 266.494 225.748 266.494 226.001C266.494 226.362 266.626 226.635 266.889 226.819C267.153 227.004 267.489 227.096 267.897 227.096ZM273.755 228.369V220.046H275.717V228.369H273.755ZM274.742 218.864C274.431 218.864 274.164 218.761 273.94 218.555C273.716 218.346 273.604 218.095 273.604 217.802C273.604 217.506 273.716 217.255 273.94 217.049C274.164 216.839 274.431 216.735 274.742 216.735C275.056 216.735 275.323 216.839 275.544 217.049C275.768 217.255 275.88 217.506 275.88 217.802C275.88 218.095 275.768 218.346 275.544 218.555C275.323 218.761 275.056 218.864 274.742 218.864ZM279.696 217.271V228.369H277.734V217.271H279.696ZM236.541 246.369V235.271H240.79C241.592 235.271 242.258 235.397 242.789 235.65C243.324 235.9 243.723 236.241 243.987 236.675C244.254 237.108 244.388 237.599 244.388 238.149C244.388 238.6 244.301 238.987 244.128 239.308C243.955 239.626 243.722 239.884 243.429 240.083C243.136 240.282 242.809 240.425 242.448 240.511V240.62C242.842 240.641 243.219 240.762 243.581 240.983C243.946 241.199 244.244 241.507 244.475 241.904C244.706 242.301 244.822 242.782 244.822 243.345C244.822 243.92 244.683 244.436 244.404 244.895C244.126 245.35 243.707 245.71 243.147 245.974C242.587 246.237 241.883 246.369 241.034 246.369H236.541ZM238.552 244.689H240.714C241.444 244.689 241.969 244.55 242.291 244.272C242.616 243.99 242.779 243.629 242.779 243.188C242.779 242.86 242.697 242.563 242.535 242.3C242.372 242.032 242.141 241.823 241.841 241.671C241.541 241.516 241.184 241.438 240.768 241.438H238.552V244.689ZM238.552 239.991H240.541C240.887 239.991 241.2 239.928 241.478 239.801C241.756 239.671 241.975 239.489 242.134 239.254C242.296 239.016 242.378 238.734 242.378 238.409C242.378 237.979 242.226 237.625 241.922 237.347C241.623 237.068 241.176 236.929 240.584 236.929H238.552V239.991ZM248.879 246.537C248.352 246.537 247.877 246.443 247.454 246.255C247.035 246.064 246.702 245.782 246.457 245.41C246.215 245.038 246.094 244.579 246.094 244.034C246.094 243.564 246.18 243.176 246.354 242.869C246.527 242.561 246.764 242.316 247.064 242.132C247.364 241.947 247.701 241.808 248.077 241.714C248.456 241.617 248.848 241.546 249.253 241.503C249.741 241.452 250.136 241.407 250.44 241.367C250.743 241.324 250.964 241.259 251.101 241.172C251.242 241.082 251.312 240.943 251.312 240.755V240.723C251.312 240.314 251.191 239.998 250.949 239.774C250.707 239.55 250.359 239.438 249.903 239.438C249.423 239.438 249.042 239.543 248.76 239.753C248.482 239.962 248.294 240.21 248.196 240.495L246.365 240.235C246.509 239.729 246.748 239.306 247.08 238.967C247.412 238.624 247.819 238.367 248.299 238.197C248.78 238.024 249.311 237.937 249.893 237.937C250.294 237.937 250.693 237.984 251.09 238.078C251.488 238.172 251.851 238.327 252.179 238.544C252.508 238.757 252.772 239.048 252.971 239.417C253.173 239.785 253.274 240.246 253.274 240.798V246.369H251.388V245.226H251.323C251.204 245.457 251.036 245.674 250.819 245.876C250.606 246.075 250.337 246.236 250.012 246.358C249.69 246.478 249.313 246.537 248.879 246.537ZM249.389 245.096C249.782 245.096 250.124 245.018 250.413 244.863C250.702 244.704 250.924 244.494 251.079 244.234C251.238 243.974 251.318 243.69 251.318 243.383V242.403C251.256 242.453 251.152 242.5 251.003 242.543C250.859 242.587 250.696 242.625 250.516 242.657C250.335 242.69 250.156 242.719 249.979 242.744C249.802 242.769 249.649 242.791 249.519 242.809C249.226 242.849 248.964 242.914 248.733 243.004C248.502 243.094 248.319 243.221 248.185 243.383C248.052 243.542 247.985 243.748 247.985 244.001C247.985 244.362 248.117 244.635 248.381 244.819C248.644 245.004 248.98 245.096 249.389 245.096ZM257.208 235.271V246.369H255.247V235.271H257.208ZM261.621 246.537C261.093 246.537 260.618 246.443 260.196 246.255C259.776 246.064 259.444 245.782 259.198 245.41C258.956 245.038 258.835 244.579 258.835 244.034C258.835 243.564 258.922 243.176 259.095 242.869C259.269 242.561 259.505 242.316 259.805 242.132C260.105 241.947 260.443 241.808 260.819 241.714C261.198 241.617 261.59 241.546 261.995 241.503C262.482 241.452 262.878 241.407 263.181 241.367C263.485 241.324 263.705 241.259 263.843 241.172C263.983 241.082 264.054 240.943 264.054 240.755V240.723C264.054 240.314 263.933 239.998 263.691 239.774C263.449 239.55 263.1 239.438 262.645 239.438C262.164 239.438 261.783 239.543 261.502 239.753C261.223 239.962 261.035 240.21 260.938 240.495L259.106 240.235C259.251 239.729 259.489 239.306 259.822 238.967C260.154 238.624 260.56 238.367 261.041 238.197C261.521 238.024 262.052 237.937 262.634 237.937C263.035 237.937 263.434 237.984 263.832 238.078C264.229 238.172 264.592 238.327 264.921 238.544C265.25 238.757 265.513 239.048 265.712 239.417C265.914 239.785 266.016 240.246 266.016 240.798V246.369H264.13V245.226H264.065C263.946 245.457 263.778 245.674 263.561 245.876C263.348 246.075 263.078 246.236 262.753 246.358C262.432 246.478 262.054 246.537 261.621 246.537ZM262.13 245.096C262.524 245.096 262.865 245.018 263.154 244.863C263.443 244.704 263.666 244.494 263.821 244.234C263.98 243.974 264.059 243.69 264.059 243.383V242.403C263.998 242.453 263.893 242.5 263.745 242.543C263.6 242.587 263.438 242.625 263.257 242.657C263.077 242.69 262.898 242.719 262.721 242.744C262.544 242.769 262.39 242.791 262.26 242.809C261.968 242.849 261.706 242.914 261.474 243.004C261.243 243.094 261.061 243.221 260.927 243.383C260.793 243.542 260.727 243.748 260.727 244.001C260.727 244.362 260.858 244.635 261.122 244.819C261.386 245.004 261.722 245.096 262.13 245.096ZM269.95 241.492V246.369H267.988V238.046H269.863V239.46H269.961C270.152 238.994 270.457 238.624 270.877 238.349C271.299 238.074 271.821 237.937 272.443 237.937C273.017 237.937 273.517 238.06 273.944 238.306C274.374 238.551 274.706 238.907 274.941 239.373C275.179 239.839 275.297 240.405 275.293 241.069V246.369H273.331V241.373C273.331 240.817 273.187 240.381 272.898 240.067C272.612 239.753 272.217 239.595 271.711 239.595C271.368 239.595 271.063 239.671 270.795 239.823C270.531 239.971 270.324 240.186 270.172 240.468C270.024 240.75 269.95 241.091 269.95 241.492ZM280.918 246.532C280.087 246.532 279.374 246.349 278.778 245.985C278.185 245.62 277.728 245.116 277.406 244.473C277.089 243.826 276.93 243.082 276.93 242.24C276.93 241.395 277.092 240.649 277.417 240.002C277.742 239.352 278.201 238.846 278.794 238.485C279.39 238.12 280.094 237.937 280.907 237.937C281.583 237.937 282.181 238.062 282.701 238.311C283.225 238.557 283.642 238.905 283.953 239.357C284.263 239.805 284.44 240.329 284.484 240.929H282.609C282.533 240.528 282.352 240.193 282.067 239.926C281.785 239.655 281.408 239.52 280.934 239.52C280.533 239.52 280.181 239.628 279.878 239.845C279.574 240.058 279.337 240.365 279.168 240.766C279.002 241.167 278.918 241.647 278.918 242.207C278.918 242.775 279.002 243.262 279.168 243.671C279.334 244.075 279.567 244.388 279.867 244.608C280.17 244.825 280.526 244.933 280.934 244.933C281.223 244.933 281.482 244.879 281.709 244.771C281.94 244.659 282.134 244.498 282.289 244.288C282.444 244.079 282.551 243.824 282.609 243.524H284.484C284.437 244.113 284.263 244.635 283.964 245.09C283.664 245.542 283.255 245.896 282.739 246.152C282.222 246.405 281.615 246.532 280.918 246.532ZM289.78 246.532C288.945 246.532 288.224 246.358 287.617 246.012C287.014 245.661 286.55 245.166 286.225 244.527C285.9 243.884 285.737 243.127 285.737 242.256C285.737 241.4 285.9 240.649 286.225 240.002C286.553 239.352 287.012 238.846 287.601 238.485C288.19 238.12 288.882 237.937 289.677 237.937C290.19 237.937 290.674 238.02 291.129 238.186C291.588 238.349 291.992 238.602 292.343 238.945C292.697 239.288 292.975 239.725 293.177 240.257C293.38 240.784 293.481 241.413 293.481 242.142V242.744H286.658V241.422H291.6C291.597 241.046 291.515 240.712 291.357 240.419C291.198 240.123 290.975 239.89 290.69 239.72C290.408 239.55 290.079 239.465 289.704 239.465C289.303 239.465 288.95 239.563 288.647 239.758C288.344 239.949 288.107 240.202 287.937 240.517C287.771 240.827 287.686 241.169 287.682 241.541V242.695C287.682 243.179 287.771 243.595 287.948 243.942C288.125 244.285 288.372 244.548 288.69 244.733C289.008 244.913 289.38 245.004 289.807 245.004C290.092 245.004 290.35 244.964 290.582 244.884C290.813 244.801 291.013 244.68 291.183 244.521C291.353 244.362 291.481 244.166 291.568 243.931L293.4 244.137C293.284 244.621 293.064 245.043 292.738 245.405C292.417 245.762 292.005 246.041 291.503 246.239C291.001 246.434 290.426 246.532 289.78 246.532Z" fill="#212528"/>
</g>
<g filter="url(#filter2_d_435_129)">
<rect x="77.1299" y="20.0652" width="116.057" height="116.057" rx="15.2601" fill="white" shape-rendering="crispEdges"/>
<rect x="77.6068" y="20.5421" width="115.103" height="115.103" rx="14.7832" stroke="#212528" stroke-width="0.953757" shape-rendering="crispEdges"/>
<path d="M137.104 42.9764L145.136 51.0077V69.5811H125.182V42.9764H137.104ZM138.484 39.6508H125.182C123.353 39.6508 121.856 41.1473 121.856 42.9764V69.5811C121.856 71.4102 123.353 72.9067 125.182 72.9067H145.136C146.965 72.9067 148.461 71.4102 148.461 69.5811V49.6276L138.484 39.6508ZM140.147 54.6159H133.496V56.2787H138.484C139.399 56.2787 140.147 57.027 140.147 57.9415V62.9299C140.147 63.8445 139.399 64.5927 138.484 64.5927H136.822V66.2555H133.496V64.5927H130.17V61.2671H136.822V59.6043H131.833C130.919 59.6043 130.17 58.8561 130.17 57.9415V52.9532C130.17 52.0386 130.919 51.2904 131.833 51.2904H133.496V49.6276H136.822V51.2904H140.147V54.6159Z" fill="#74FE70"/>
<path d="M122.622 89.4495V87.7642H131.476V89.4495H128.046V98.8624H126.052V89.4495H122.622ZM134.359 99.0304C133.832 99.0304 133.357 98.9365 132.934 98.7486C132.515 98.5572 132.183 98.2754 131.937 97.9033C131.695 97.5311 131.574 97.0723 131.574 96.5268C131.574 96.0572 131.661 95.6688 131.834 95.3617C132.007 95.0546 132.244 94.809 132.544 94.6247C132.844 94.4405 133.182 94.3014 133.557 94.2074C133.937 94.1099 134.329 94.0395 134.733 93.9961C135.221 93.9455 135.617 93.9004 135.92 93.8606C136.224 93.8173 136.444 93.7522 136.581 93.6655C136.722 93.5752 136.793 93.4361 136.793 93.2483V93.2158C136.793 92.8075 136.671 92.4914 136.429 92.2674C136.187 92.0434 135.839 91.9314 135.384 91.9314C134.903 91.9314 134.522 92.0362 134.24 92.2457C133.962 92.4553 133.774 92.7027 133.677 92.9882L131.845 92.728C131.989 92.2223 132.228 91.7996 132.56 91.46C132.893 91.1168 133.299 90.8603 133.78 90.6905C134.26 90.5171 134.791 90.4304 135.373 90.4304C135.774 90.4304 136.173 90.4773 136.57 90.5712C136.968 90.6652 137.331 90.8205 137.66 91.0373C137.988 91.2504 138.252 91.5413 138.451 91.9098C138.653 92.2783 138.754 92.7389 138.754 93.2916V98.8624H136.868V97.719H136.803C136.684 97.9502 136.516 98.167 136.299 98.3693C136.086 98.568 135.817 98.7288 135.492 98.8516C135.17 98.9708 134.793 99.0304 134.359 99.0304ZM134.869 97.5889C135.263 97.5889 135.604 97.5113 135.893 97.3559C136.182 97.197 136.404 96.9874 136.56 96.7273C136.718 96.4672 136.798 96.1836 136.798 95.8765V94.8957C136.737 94.9462 136.632 94.9932 136.484 95.0366C136.339 95.0799 136.177 95.1178 135.996 95.1504C135.815 95.1829 135.636 95.2118 135.459 95.2371C135.282 95.2624 135.129 95.284 134.999 95.3021C134.706 95.3418 134.444 95.4069 134.213 95.4972C133.982 95.5875 133.799 95.7139 133.666 95.8765C133.532 96.0355 133.465 96.2414 133.465 96.4943C133.465 96.8556 133.597 97.1283 133.861 97.3126C134.125 97.4968 134.461 97.5889 134.869 97.5889ZM142.331 90.5387L144.011 93.6113L145.718 90.5387H147.793L145.284 94.7006L147.837 98.8624H145.772L144.011 95.8657L142.266 98.8624H140.185L142.721 94.7006L140.25 90.5387H142.331ZM104.116 109.509H102.089C102.031 109.176 101.924 108.882 101.769 108.625C101.614 108.365 101.42 108.145 101.189 107.964C100.958 107.784 100.694 107.648 100.398 107.558C100.105 107.464 99.7893 107.417 99.4497 107.417C98.8464 107.417 98.3117 107.569 97.8456 107.872C97.3796 108.172 97.0147 108.613 96.751 109.194C96.4873 109.772 96.3554 110.479 96.3554 111.313C96.3554 112.162 96.4873 112.878 96.751 113.459C97.0183 114.037 97.3832 114.474 97.8456 114.771C98.3117 115.063 98.8446 115.21 99.4443 115.21C99.7766 115.21 100.087 115.166 100.376 115.08C100.669 114.989 100.931 114.857 101.162 114.684C101.397 114.511 101.594 114.297 101.753 114.045C101.915 113.792 102.027 113.503 102.089 113.177L104.116 113.188C104.04 113.716 103.875 114.211 103.622 114.673C103.373 115.136 103.046 115.544 102.642 115.898C102.237 116.248 101.764 116.523 101.222 116.722C100.68 116.917 100.078 117.014 99.4172 117.014C98.4417 117.014 97.5711 116.788 96.8052 116.337C96.0393 115.885 95.436 115.233 94.9952 114.38C94.5545 113.528 94.3341 112.505 94.3341 111.313C94.3341 110.117 94.5563 109.095 95.0006 108.246C95.445 107.394 96.0501 106.741 96.816 106.29C97.5819 105.838 98.449 105.612 99.4172 105.612C100.035 105.612 100.609 105.699 101.14 105.873C101.672 106.046 102.145 106.301 102.56 106.637C102.976 106.969 103.317 107.377 103.584 107.861C103.855 108.342 104.032 108.891 104.116 109.509ZM108.265 117.03C107.738 117.03 107.263 116.936 106.84 116.749C106.421 116.557 106.089 116.275 105.843 115.903C105.601 115.531 105.48 115.072 105.48 114.527C105.48 114.057 105.566 113.669 105.74 113.362C105.913 113.055 106.15 112.809 106.45 112.625C106.75 112.44 107.087 112.301 107.463 112.207C107.842 112.11 108.234 112.039 108.639 111.996C109.127 111.946 109.522 111.9 109.826 111.861C110.129 111.817 110.35 111.752 110.487 111.666C110.628 111.575 110.698 111.436 110.698 111.248V111.216C110.698 110.808 110.577 110.491 110.335 110.267C110.093 110.043 109.745 109.931 109.289 109.931C108.809 109.931 108.428 110.036 108.146 110.246C107.868 110.455 107.68 110.703 107.582 110.988L105.751 110.728C105.895 110.222 106.134 109.8 106.466 109.46C106.798 109.117 107.205 108.86 107.685 108.69C108.166 108.517 108.697 108.43 109.279 108.43C109.68 108.43 110.079 108.477 110.476 108.571C110.874 108.665 111.237 108.821 111.565 109.037C111.894 109.25 112.158 109.541 112.357 109.91C112.559 110.278 112.66 110.739 112.66 111.292V116.862H110.774V115.719H110.709C110.59 115.95 110.422 116.167 110.205 116.369C109.992 116.568 109.723 116.729 109.398 116.852C109.076 116.971 108.699 117.03 108.265 117.03ZM108.775 115.589C109.168 115.589 109.51 115.511 109.799 115.356C110.088 115.197 110.31 114.987 110.465 114.727C110.624 114.467 110.704 114.184 110.704 113.877V112.896C110.642 112.946 110.538 112.993 110.389 113.037C110.245 113.08 110.082 113.118 109.902 113.15C109.721 113.183 109.542 113.212 109.365 113.237C109.188 113.262 109.035 113.284 108.905 113.302C108.612 113.342 108.35 113.407 108.119 113.497C107.888 113.588 107.705 113.714 107.572 113.877C107.438 114.035 107.371 114.241 107.371 114.494C107.371 114.856 107.503 115.128 107.767 115.313C108.03 115.497 108.366 115.589 108.775 115.589ZM116.594 105.764V116.862H114.633V105.764H116.594ZM122.242 117.025C121.411 117.025 120.698 116.843 120.102 116.478C119.509 116.113 119.052 115.609 118.731 114.966C118.413 114.319 118.254 113.575 118.254 112.733C118.254 111.888 118.416 111.142 118.742 110.495C119.067 109.845 119.526 109.339 120.118 108.978C120.714 108.613 121.419 108.43 122.231 108.43C122.907 108.43 123.505 108.555 124.025 108.804C124.549 109.05 124.966 109.399 125.277 109.85C125.588 110.298 125.765 110.822 125.808 111.422H123.933C123.857 111.021 123.677 110.686 123.391 110.419C123.109 110.148 122.732 110.013 122.259 110.013C121.858 110.013 121.505 110.121 121.202 110.338C120.898 110.551 120.662 110.858 120.492 111.259C120.326 111.66 120.243 112.141 120.243 112.701C120.243 113.268 120.326 113.755 120.492 114.164C120.658 114.568 120.891 114.881 121.191 115.101C121.494 115.318 121.85 115.426 122.259 115.426C122.548 115.426 122.806 115.372 123.033 115.264C123.265 115.152 123.458 114.991 123.613 114.782C123.769 114.572 123.875 114.317 123.933 114.017H125.808C125.761 114.606 125.588 115.128 125.288 115.584C124.988 116.035 124.58 116.389 124.063 116.646C123.547 116.899 122.94 117.025 122.242 117.025ZM132.724 113.362V108.539H134.686V116.862H132.784V115.383H132.697C132.509 115.849 132.2 116.23 131.77 116.526C131.344 116.823 130.818 116.971 130.193 116.971C129.648 116.971 129.166 116.85 128.747 116.608C128.331 116.362 128.006 116.006 127.771 115.54C127.536 115.071 127.419 114.503 127.419 113.839V108.539H129.381V113.535C129.381 114.063 129.525 114.482 129.814 114.792C130.103 115.103 130.482 115.258 130.952 115.258C131.241 115.258 131.521 115.188 131.792 115.047C132.063 114.906 132.285 114.697 132.459 114.418C132.636 114.137 132.724 113.784 132.724 113.362ZM138.665 105.764V116.862H136.703V105.764H138.665ZM143.077 117.03C142.55 117.03 142.075 116.936 141.652 116.749C141.233 116.557 140.901 116.275 140.655 115.903C140.413 115.531 140.292 115.072 140.292 114.527C140.292 114.057 140.379 113.669 140.552 113.362C140.725 113.055 140.962 112.809 141.262 112.625C141.562 112.44 141.9 112.301 142.275 112.207C142.655 112.11 143.047 112.039 143.451 111.996C143.939 111.946 144.335 111.9 144.638 111.861C144.941 111.817 145.162 111.752 145.299 111.666C145.44 111.575 145.51 111.436 145.51 111.248V111.216C145.51 110.808 145.389 110.491 145.147 110.267C144.905 110.043 144.557 109.931 144.101 109.931C143.621 109.931 143.24 110.036 142.958 110.246C142.68 110.455 142.492 110.703 142.394 110.988L140.563 110.728C140.707 110.222 140.946 109.8 141.278 109.46C141.611 109.117 142.017 108.86 142.497 108.69C142.978 108.517 143.509 108.43 144.091 108.43C144.492 108.43 144.891 108.477 145.288 108.571C145.686 108.665 146.049 108.821 146.378 109.037C146.706 109.25 146.97 109.541 147.169 109.91C147.371 110.278 147.472 110.739 147.472 111.292V116.862H145.586V115.719H145.521C145.402 115.95 145.234 116.167 145.017 116.369C144.804 116.568 144.535 116.729 144.21 116.852C143.888 116.971 143.511 117.03 143.077 117.03ZM143.587 115.589C143.98 115.589 144.322 115.511 144.611 115.356C144.9 115.197 145.122 114.987 145.277 114.727C145.436 114.467 145.516 114.184 145.516 113.877V112.896C145.454 112.946 145.35 112.993 145.202 113.037C145.057 113.08 144.894 113.118 144.714 113.15C144.533 113.183 144.354 113.212 144.177 113.237C144 113.262 143.847 113.284 143.717 113.302C143.424 113.342 143.162 113.407 142.931 113.497C142.7 113.588 142.517 113.714 142.384 113.877C142.25 114.035 142.183 114.241 142.183 114.494C142.183 114.856 142.315 115.128 142.579 115.313C142.842 115.497 143.178 115.589 143.587 115.589ZM153.601 108.539V110.056H148.816V108.539H153.601ZM149.997 106.545H151.959V114.359C151.959 114.623 151.999 114.825 152.078 114.966C152.161 115.103 152.27 115.197 152.404 115.248C152.537 115.298 152.685 115.323 152.848 115.323C152.971 115.323 153.083 115.314 153.184 115.296C153.289 115.278 153.368 115.262 153.422 115.248L153.753 116.781C153.648 116.817 153.498 116.857 153.303 116.9C153.112 116.944 152.877 116.969 152.599 116.976C152.107 116.991 151.665 116.917 151.271 116.754C150.877 116.588 150.565 116.331 150.333 115.985C150.106 115.638 149.994 115.204 149.997 114.684V106.545ZM155.242 116.862V108.539H157.203V116.862H155.242ZM156.228 107.357C155.917 107.357 155.65 107.254 155.426 107.048C155.202 106.839 155.09 106.588 155.09 106.295C155.09 105.999 155.202 105.748 155.426 105.542C155.65 105.332 155.917 105.228 156.228 105.228C156.542 105.228 156.81 105.332 157.03 105.542C157.254 105.748 157.366 105.999 157.366 106.295C157.366 106.588 157.254 106.839 157.03 107.048C156.81 107.254 156.542 107.357 156.228 107.357ZM162.851 117.025C162.039 117.025 161.334 116.846 160.738 116.489C160.142 116.131 159.68 115.63 159.351 114.987C159.026 114.344 158.863 113.593 158.863 112.733C158.863 111.873 159.026 111.12 159.351 110.473C159.68 109.827 160.142 109.324 160.738 108.967C161.334 108.609 162.039 108.43 162.851 108.43C163.664 108.43 164.369 108.609 164.965 108.967C165.561 109.324 166.022 109.827 166.347 110.473C166.676 111.12 166.84 111.873 166.84 112.733C166.84 113.593 166.676 114.344 166.347 114.987C166.022 115.63 165.561 116.131 164.965 116.489C164.369 116.846 163.664 117.025 162.851 117.025ZM162.862 115.453C163.303 115.453 163.672 115.332 163.968 115.09C164.264 114.845 164.484 114.516 164.629 114.104C164.777 113.692 164.851 113.233 164.851 112.728C164.851 112.218 164.777 111.758 164.629 111.346C164.484 110.93 164.264 110.6 163.968 110.354C163.672 110.108 163.303 109.986 162.862 109.986C162.411 109.986 162.035 110.108 161.735 110.354C161.439 110.6 161.217 110.93 161.069 111.346C160.924 111.758 160.852 112.218 160.852 112.728C160.852 113.233 160.924 113.692 161.069 114.104C161.217 114.516 161.439 114.845 161.735 115.09C162.035 115.332 162.411 115.453 162.862 115.453ZM170.467 111.985V116.862H168.505V108.539H170.38V109.953H170.477C170.669 109.487 170.974 109.117 171.393 108.842C171.816 108.568 172.338 108.43 172.959 108.43C173.534 108.43 174.034 108.553 174.46 108.799C174.89 109.045 175.223 109.4 175.458 109.866C175.696 110.332 175.813 110.898 175.81 111.563V116.862H173.848V111.866C173.848 111.31 173.704 110.874 173.415 110.56C173.129 110.246 172.734 110.089 172.228 110.089C171.885 110.089 171.579 110.164 171.312 110.316C171.048 110.464 170.841 110.679 170.689 110.961C170.541 111.243 170.467 111.584 170.467 111.985Z" fill="#212528"/>
</g>
<g filter="url(#filter3_d_435_129)">
<rect x="206.761" y="19.9414" width="116.057" height="116.057" rx="15.2601" fill="white" shape-rendering="crispEdges"/>
<rect x="207.238" y="20.4183" width="115.103" height="115.103" rx="14.7832" stroke="#212528" stroke-width="0.953757" shape-rendering="crispEdges"/>
<path d="M277.261 42.4604L274.767 39.9662L272.272 42.4604L269.778 39.9662L267.284 42.4604L264.79 39.9662L262.296 42.4604L259.802 39.9662L257.307 42.4604L254.813 39.9662V63.2454H249.825V68.2338C249.825 70.994 252.053 73.2222 254.813 73.2222H274.767C277.527 73.2222 279.755 70.994 279.755 68.2338V39.9662L277.261 42.4604ZM269.778 69.8966H254.813C253.899 69.8966 253.15 69.1483 253.15 68.2338V66.571H269.778V69.8966ZM276.429 68.2338C276.429 69.1483 275.681 69.8966 274.767 69.8966C273.852 69.8966 273.104 69.1483 273.104 68.2338V63.2454H258.139V44.9546H276.429V68.2338Z" fill="#0080FF"/>
<path d="M269.778 48.2802H259.802V51.6058H269.778V48.2802Z" fill="#0080FF"/>
<path d="M274.767 48.2802H271.441V51.6058H274.767V48.2802Z" fill="#0080FF"/>
<path d="M269.778 53.2686H259.802V56.5942H269.778V53.2686Z" fill="#0080FF"/>
<path d="M274.767 53.2686H271.441V56.5942H274.767V53.2686Z" fill="#0080FF"/>
<path d="M234.306 98.2993V87.2011H241.524V88.8864H236.316V91.8994H241.15V93.5847H236.316V96.614H241.567V98.2993H234.306ZM245.092 89.9756L246.772 93.0482L248.479 89.9756H250.555L248.046 94.1375L250.598 98.2993H248.534L246.772 95.3026L245.027 98.2993H242.946L245.483 94.1375L243.011 89.9756H245.092ZM252.072 101.421V89.9756H254.001V91.3521H254.115C254.216 91.1498 254.359 90.9348 254.543 90.7072C254.728 90.476 254.977 90.2791 255.291 90.1165C255.605 89.9503 256.006 89.8672 256.494 89.8672C257.137 89.8672 257.717 90.0316 258.234 90.3604C258.754 90.6855 259.166 91.1678 259.469 91.8073C259.776 92.4431 259.93 93.2235 259.93 94.1483C259.93 95.0623 259.78 95.8391 259.48 96.4785C259.18 97.118 258.772 97.6057 258.255 97.9417C257.739 98.2776 257.153 98.4456 256.5 98.4456C256.023 98.4456 255.627 98.3662 255.313 98.2072C254.998 98.0482 254.746 97.8568 254.554 97.6328C254.366 97.4052 254.22 97.1902 254.115 96.9879H254.034V101.421H252.072ZM253.996 94.1375C253.996 94.6758 254.072 95.1472 254.224 95.5518C254.379 95.9565 254.601 96.2726 254.89 96.5002C255.183 96.7242 255.537 96.8362 255.952 96.8362C256.386 96.8362 256.749 96.7206 257.041 96.4893C257.334 96.2545 257.554 95.9348 257.703 95.5302C257.854 95.1219 257.93 94.6577 257.93 94.1375C257.93 93.6209 257.856 93.162 257.708 92.761C257.56 92.36 257.34 92.0457 257.047 91.8181C256.754 91.5905 256.389 91.4767 255.952 91.4767C255.533 91.4767 255.177 91.5869 254.885 91.8073C254.592 92.0276 254.37 92.3365 254.218 92.7339C254.07 93.1313 253.996 93.5992 253.996 94.1375ZM265.295 98.4619C264.46 98.4619 263.739 98.2885 263.133 97.9417C262.529 97.5912 262.065 97.0963 261.74 96.4568C261.415 95.8138 261.252 95.0569 261.252 94.1862C261.252 93.33 261.415 92.5786 261.74 91.9319C262.069 91.2816 262.527 90.7758 263.116 90.4146C263.705 90.0497 264.397 89.8672 265.192 89.8672C265.705 89.8672 266.189 89.9503 266.644 90.1165C267.103 90.2791 267.508 90.532 267.858 90.8752C268.212 91.2184 268.49 91.6555 268.692 92.1866C268.895 92.7141 268.996 93.3427 268.996 94.0724V94.674H262.173V93.3517H267.116C267.112 92.976 267.031 92.6418 266.872 92.3492C266.713 92.0529 266.491 91.8199 266.205 91.6501C265.923 91.4803 265.595 91.3954 265.219 91.3954C264.818 91.3954 264.466 91.493 264.162 91.688C263.859 91.8795 263.622 92.1324 263.452 92.4467C263.286 92.7574 263.201 93.0988 263.198 93.4709V94.6252C263.198 95.1093 263.286 95.5248 263.463 95.8716C263.64 96.2148 263.888 96.4785 264.205 96.6628C264.523 96.8434 264.896 96.9337 265.322 96.9337C265.607 96.9337 265.866 96.894 266.097 96.8145C266.328 96.7314 266.528 96.6104 266.698 96.4514C266.868 96.2925 266.996 96.0956 267.083 95.8607L268.915 96.0667C268.799 96.5508 268.579 96.9734 268.254 97.3347C267.932 97.6924 267.52 97.9706 267.018 98.1693C266.516 98.3643 265.941 98.4619 265.295 98.4619ZM272.617 93.4222V98.2993H270.656V89.9756H272.531V91.39H272.628C272.82 90.924 273.125 90.5537 273.544 90.2791C273.967 90.0045 274.489 89.8672 275.11 89.8672C275.684 89.8672 276.185 89.9901 276.611 90.2357C277.041 90.4814 277.373 90.8373 277.608 91.3033C277.847 91.7693 277.964 92.3347 277.96 92.9995V98.2993H275.999V93.3029C275.999 92.7466 275.854 92.3112 275.565 91.9969C275.28 91.6826 274.884 91.5255 274.378 91.5255C274.035 91.5255 273.73 91.6013 273.463 91.7531C273.199 91.9012 272.991 92.1162 272.839 92.3979C272.691 92.6797 272.617 93.0211 272.617 93.4222ZM286.533 92.1758L284.745 92.3709C284.695 92.1902 284.606 92.0204 284.48 91.8615C284.357 91.7025 284.191 91.5742 283.981 91.4767C283.772 91.3792 283.515 91.3304 283.212 91.3304C282.803 91.3304 282.46 91.4189 282.182 91.5959C281.907 91.7729 281.772 92.0024 281.775 92.2841C281.772 92.5262 281.86 92.7231 282.041 92.8748C282.225 93.0266 282.529 93.1512 282.951 93.2487L284.371 93.5522C285.159 93.722 285.744 93.9912 286.127 94.3597C286.514 94.7281 286.709 95.2104 286.712 95.8065C286.709 96.3304 286.555 96.7928 286.252 97.1938C285.952 97.5912 285.535 97.9019 285 98.1259C284.465 98.3499 283.851 98.4619 283.157 98.4619C282.139 98.4619 281.318 98.2487 280.697 97.8224C280.076 97.3925 279.705 96.7946 279.586 96.0287L281.499 95.8445C281.586 96.2202 281.77 96.5038 282.052 96.6953C282.334 96.8867 282.7 96.9825 283.152 96.9825C283.618 96.9825 283.992 96.8867 284.274 96.6953C284.559 96.5038 284.702 96.2672 284.702 95.9854C284.702 95.7469 284.61 95.55 284.425 95.3947C284.245 95.2393 283.963 95.1201 283.58 95.037L282.16 94.739C281.362 94.5728 280.771 94.2928 280.388 93.899C280.005 93.5016 279.816 92.9995 279.819 92.3925C279.816 91.8795 279.955 91.4352 280.236 91.0594C280.522 90.6801 280.917 90.3875 281.423 90.1815C281.933 89.972 282.52 89.8672 283.184 89.8672C284.16 89.8672 284.928 90.075 285.488 90.4904C286.051 90.9059 286.4 91.4677 286.533 92.1758ZM292.015 98.4619C291.18 98.4619 290.46 98.2885 289.853 97.9417C289.249 97.5912 288.785 97.0963 288.46 96.4568C288.135 95.8138 287.972 95.0569 287.972 94.1862C287.972 93.33 288.135 92.5786 288.46 91.9319C288.789 91.2816 289.247 90.7758 289.836 90.4146C290.425 90.0497 291.117 89.8672 291.912 89.8672C292.425 89.8672 292.909 89.9503 293.364 90.1165C293.823 90.2791 294.228 90.532 294.578 90.8752C294.932 91.2184 295.21 91.6555 295.413 92.1866C295.615 92.7141 295.716 93.3427 295.716 94.0724V94.674H288.893V93.3517H293.836C293.832 92.976 293.751 92.6418 293.592 92.3492C293.433 92.0529 293.211 91.8199 292.925 91.6501C292.643 91.4803 292.315 91.3954 291.939 91.3954C291.538 91.3954 291.186 91.493 290.882 91.688C290.579 91.8795 290.342 92.1324 290.172 92.4467C290.006 92.7574 289.921 93.0988 289.918 93.4709V94.6252C289.918 95.1093 290.006 95.5248 290.183 95.8716C290.36 96.2148 290.608 96.4785 290.926 96.6628C291.244 96.8434 291.616 96.9337 292.042 96.9337C292.327 96.9337 292.586 96.894 292.817 96.8145C293.048 96.7314 293.249 96.6104 293.418 96.4514C293.588 96.2925 293.716 96.0956 293.803 95.8607L295.635 96.0667C295.519 96.5508 295.299 96.9734 294.974 97.3347C294.652 97.6924 294.24 97.9706 293.738 98.1693C293.236 98.3643 292.661 98.4619 292.015 98.4619ZM233.304 106.886V105.201H242.159V106.886H238.728V116.299H236.734V106.886H233.304ZM242.915 116.299V107.976H244.817V109.363H244.903C245.055 108.882 245.315 108.512 245.684 108.252C246.056 107.988 246.48 107.856 246.957 107.856C247.066 107.856 247.187 107.862 247.32 107.873C247.458 107.88 247.571 107.893 247.662 107.911V109.715C247.579 109.686 247.447 109.661 247.266 109.639C247.089 109.614 246.918 109.601 246.751 109.601C246.394 109.601 246.072 109.679 245.787 109.834C245.505 109.986 245.283 110.197 245.12 110.468C244.958 110.739 244.876 111.052 244.876 111.406V116.299H242.915ZM251.211 116.467C250.684 116.467 250.209 116.373 249.786 116.186C249.367 115.994 249.035 115.712 248.789 115.34C248.547 114.968 248.426 114.509 248.426 113.964C248.426 113.494 248.513 113.106 248.686 112.799C248.859 112.492 249.096 112.246 249.396 112.062C249.696 111.877 250.033 111.738 250.409 111.644C250.789 111.547 251.181 111.476 251.585 111.433C252.073 111.382 252.468 111.337 252.772 111.298C253.075 111.254 253.296 111.189 253.433 111.102C253.574 111.012 253.644 110.873 253.644 110.685V110.653C253.644 110.244 253.523 109.928 253.281 109.704C253.039 109.48 252.691 109.368 252.235 109.368C251.755 109.368 251.374 109.473 251.092 109.683C250.814 109.892 250.626 110.14 250.528 110.425L248.697 110.165C248.841 109.659 249.08 109.236 249.412 108.897C249.744 108.554 250.151 108.297 250.631 108.127C251.112 107.954 251.643 107.867 252.225 107.867C252.626 107.867 253.025 107.914 253.422 108.008C253.82 108.102 254.183 108.257 254.511 108.474C254.84 108.687 255.104 108.978 255.303 109.347C255.505 109.715 255.606 110.176 255.606 110.729V116.299H253.72V115.156H253.655C253.536 115.387 253.368 115.604 253.151 115.806C252.938 116.005 252.669 116.166 252.344 116.288C252.022 116.408 251.645 116.467 251.211 116.467ZM251.721 115.026C252.114 115.026 252.456 114.948 252.745 114.793C253.034 114.634 253.256 114.424 253.411 114.164C253.57 113.904 253.65 113.62 253.65 113.313V112.333C253.588 112.383 253.484 112.43 253.336 112.473C253.191 112.517 253.028 112.555 252.848 112.587C252.667 112.62 252.488 112.649 252.311 112.674C252.134 112.699 251.981 112.721 251.851 112.739C251.558 112.779 251.296 112.844 251.065 112.934C250.834 113.024 250.651 113.151 250.518 113.313C250.384 113.472 250.317 113.678 250.317 113.931C250.317 114.292 250.449 114.565 250.713 114.749C250.976 114.934 251.312 115.026 251.721 115.026ZM261.209 116.462C260.378 116.462 259.665 116.279 259.069 115.915C258.476 115.55 258.019 115.046 257.698 114.403C257.38 113.756 257.221 113.012 257.221 112.17C257.221 111.325 257.384 110.579 257.709 109.932C258.034 109.282 258.493 108.776 259.085 108.415C259.681 108.05 260.386 107.867 261.199 107.867C261.874 107.867 262.472 107.992 262.992 108.241C263.516 108.487 263.933 108.835 264.244 109.287C264.555 109.735 264.732 110.259 264.775 110.859H262.9C262.824 110.458 262.644 110.123 262.358 109.856C262.076 109.585 261.699 109.45 261.226 109.45C260.825 109.45 260.472 109.558 260.169 109.775C259.865 109.988 259.629 110.295 259.459 110.696C259.293 111.097 259.21 111.577 259.21 112.137C259.21 112.705 259.293 113.192 259.459 113.601C259.625 114.005 259.858 114.318 260.158 114.538C260.462 114.755 260.817 114.863 261.226 114.863C261.515 114.863 261.773 114.809 262.001 114.701C262.232 114.589 262.425 114.428 262.58 114.218C262.736 114.009 262.842 113.754 262.9 113.454H264.775C264.728 114.043 264.555 114.565 264.255 115.02C263.955 115.472 263.547 115.826 263.03 116.083C262.514 116.335 261.907 116.462 261.209 116.462ZM268.174 113.687L268.169 111.319H268.483L271.475 107.976H273.767L270.087 112.072H269.681L268.174 113.687ZM266.386 116.299V105.201H268.348V116.299H266.386ZM271.61 116.299L268.9 112.511L270.223 111.13L273.956 116.299H271.61ZM275.074 116.299V107.976H277.036V116.299H275.074ZM276.06 106.794C275.75 106.794 275.482 106.691 275.258 106.485C275.034 106.276 274.922 106.025 274.922 105.732C274.922 105.436 275.034 105.185 275.258 104.979C275.482 104.769 275.75 104.665 276.06 104.665C276.375 104.665 276.642 104.769 276.862 104.979C277.086 105.185 277.198 105.436 277.198 105.732C277.198 106.025 277.086 106.276 276.862 106.485C276.642 106.691 276.375 106.794 276.06 106.794ZM281.015 111.422V116.299H279.053V107.976H280.928V109.39H281.026C281.217 108.924 281.522 108.554 281.941 108.279C282.364 108.005 282.886 107.867 283.508 107.867C284.082 107.867 284.582 107.99 285.009 108.236C285.439 108.481 285.771 108.837 286.006 109.303C286.244 109.769 286.362 110.335 286.358 110.999V116.299H284.396V111.303C284.396 110.747 284.252 110.311 283.963 109.997C283.677 109.683 283.282 109.525 282.776 109.525C282.433 109.525 282.127 109.601 281.86 109.753C281.596 109.901 281.389 110.116 281.237 110.398C281.089 110.68 281.015 111.021 281.015 111.422ZM291.972 119.594C291.268 119.594 290.663 119.498 290.157 119.307C289.651 119.119 289.245 118.866 288.937 118.548C288.63 118.23 288.417 117.878 288.298 117.492L290.065 117.063C290.144 117.226 290.26 117.387 290.411 117.546C290.563 117.708 290.767 117.842 291.024 117.947C291.284 118.055 291.611 118.109 292.005 118.109C292.561 118.109 293.022 117.974 293.387 117.703C293.751 117.436 293.934 116.995 293.934 116.381V114.804H293.836C293.735 115.006 293.587 115.214 293.392 115.427C293.2 115.64 292.946 115.819 292.628 115.963C292.314 116.108 291.918 116.18 291.441 116.18C290.802 116.18 290.222 116.03 289.702 115.73C289.185 115.427 288.773 114.975 288.466 114.376C288.163 113.772 288.011 113.017 288.011 112.11C288.011 111.196 288.163 110.425 288.466 109.796C288.773 109.164 289.187 108.686 289.707 108.36C290.227 108.032 290.807 107.867 291.446 107.867C291.934 107.867 292.335 107.95 292.65 108.117C292.967 108.279 293.22 108.476 293.408 108.707C293.596 108.935 293.739 109.15 293.836 109.352H293.945V107.976H295.879V116.435C295.879 117.146 295.709 117.735 295.37 118.201C295.03 118.667 294.566 119.016 293.977 119.247C293.388 119.479 292.72 119.594 291.972 119.594ZM291.988 114.641C292.404 114.641 292.758 114.54 293.051 114.338C293.343 114.135 293.565 113.844 293.717 113.465C293.869 113.086 293.945 112.631 293.945 112.1C293.945 111.576 293.869 111.117 293.717 110.723C293.569 110.329 293.349 110.024 293.056 109.807C292.767 109.587 292.411 109.477 291.988 109.477C291.551 109.477 291.186 109.591 290.894 109.818C290.601 110.046 290.381 110.358 290.233 110.756C290.084 111.149 290.01 111.597 290.01 112.1C290.01 112.609 290.084 113.055 290.233 113.438C290.384 113.817 290.607 114.114 290.899 114.327C291.195 114.536 291.558 114.641 291.988 114.641Z" fill="#212528"/>
</g>
<g filter="url(#filter4_d_435_129)">
<rect x="77.1797" y="279.02" width="245.638" height="100.921" rx="10.7596" fill="white" shape-rendering="crispEdges"/>
<rect x="77.5159" y="279.357" width="244.966" height="100.249" rx="10.4234" stroke="#212528" stroke-width="0.672477" shape-rendering="crispEdges"/>
<path d="M108.05 336.481V323.117H116.611V325.147H110.471V328.775H116.024V330.804H110.471V336.481H108.05ZM118.712 336.481V326.458H121.074V336.481H118.712ZM119.9 325.036C119.526 325.036 119.204 324.912 118.934 324.664C118.664 324.411 118.529 324.109 118.529 323.757C118.529 323.4 118.664 323.098 118.934 322.85C119.204 322.597 119.526 322.471 119.9 322.471C120.278 322.471 120.6 322.597 120.866 322.85C121.135 323.098 121.27 323.4 121.27 323.757C121.27 324.109 121.135 324.411 120.866 324.664C120.6 324.912 120.278 325.036 119.9 325.036ZM125.866 330.608V336.481H123.503V326.458H125.761V328.161H125.879C126.109 327.6 126.477 327.154 126.981 326.824C127.49 326.493 128.119 326.328 128.867 326.328C129.559 326.328 130.161 326.475 130.675 326.771C131.192 327.067 131.593 327.496 131.875 328.057C132.162 328.618 132.304 329.299 132.299 330.099V336.481H129.937V330.465C129.937 329.795 129.763 329.27 129.415 328.892C129.072 328.514 128.595 328.324 127.986 328.324C127.573 328.324 127.205 328.416 126.883 328.598C126.566 328.777 126.316 329.036 126.133 329.375C125.955 329.714 125.866 330.125 125.866 330.608ZM137.585 336.683C136.95 336.683 136.378 336.57 135.869 336.344C135.364 336.113 134.964 335.774 134.668 335.326C134.377 334.878 134.231 334.325 134.231 333.669C134.231 333.103 134.335 332.635 134.544 332.266C134.753 331.896 135.038 331.6 135.399 331.378C135.76 331.156 136.167 330.989 136.619 330.876C137.076 330.758 137.548 330.673 138.035 330.621C138.622 330.56 139.099 330.506 139.464 330.458C139.83 330.406 140.095 330.328 140.26 330.223C140.43 330.114 140.515 329.947 140.515 329.721V329.682C140.515 329.19 140.369 328.809 140.078 328.54C139.786 328.27 139.366 328.135 138.818 328.135C138.24 328.135 137.781 328.261 137.441 328.514C137.106 328.766 136.88 329.064 136.763 329.408L134.557 329.094C134.731 328.485 135.018 327.976 135.419 327.567C135.819 327.154 136.308 326.845 136.887 326.641C137.465 326.432 138.105 326.328 138.805 326.328C139.288 326.328 139.769 326.384 140.247 326.497C140.726 326.61 141.163 326.797 141.559 327.058C141.955 327.315 142.272 327.665 142.512 328.109C142.755 328.553 142.877 329.107 142.877 329.773V336.481H140.606V335.104H140.528C140.384 335.383 140.182 335.644 139.921 335.887C139.664 336.126 139.34 336.32 138.949 336.468C138.562 336.611 138.107 336.683 137.585 336.683ZM138.198 334.948C138.673 334.948 139.084 334.854 139.432 334.667C139.78 334.476 140.047 334.223 140.234 333.91C140.426 333.597 140.521 333.255 140.521 332.886V331.704C140.447 331.765 140.321 331.822 140.143 331.874C139.969 331.926 139.773 331.972 139.556 332.011C139.338 332.05 139.123 332.085 138.91 332.116C138.696 332.146 138.512 332.172 138.355 332.194C138.003 332.242 137.687 332.32 137.409 332.429C137.13 332.537 136.911 332.69 136.75 332.886C136.589 333.077 136.508 333.325 136.508 333.629C136.508 334.064 136.667 334.393 136.985 334.615C137.302 334.837 137.707 334.948 138.198 334.948ZM147.614 330.608V336.481H145.252V326.458H147.51V328.161H147.627C147.858 327.6 148.226 327.154 148.73 326.824C149.239 326.493 149.868 326.328 150.616 326.328C151.308 326.328 151.91 326.475 152.424 326.771C152.941 327.067 153.341 327.496 153.624 328.057C153.911 328.618 154.053 329.299 154.048 330.099V336.481H151.686V330.465C151.686 329.795 151.512 329.27 151.164 328.892C150.82 328.514 150.344 328.324 149.735 328.324C149.322 328.324 148.954 328.416 148.632 328.598C148.315 328.777 148.065 329.036 147.882 329.375C147.704 329.714 147.614 330.125 147.614 330.608ZM160.822 336.677C159.821 336.677 158.962 336.457 158.244 336.018C157.531 335.578 156.98 334.971 156.593 334.197C156.21 333.418 156.019 332.522 156.019 331.509C156.019 330.491 156.215 329.592 156.606 328.814C156.998 328.031 157.55 327.422 158.264 326.987C158.981 326.547 159.83 326.328 160.809 326.328C161.622 326.328 162.342 326.478 162.968 326.778C163.599 327.074 164.102 327.493 164.476 328.037C164.85 328.577 165.063 329.207 165.115 329.93H162.857C162.766 329.447 162.549 329.044 162.205 328.722C161.866 328.396 161.411 328.233 160.841 328.233C160.358 328.233 159.934 328.363 159.569 328.624C159.203 328.881 158.918 329.251 158.714 329.734C158.514 330.217 158.414 330.795 158.414 331.47C158.414 332.153 158.514 332.74 158.714 333.231C158.914 333.719 159.195 334.095 159.556 334.36C159.921 334.621 160.35 334.752 160.841 334.752C161.189 334.752 161.5 334.686 161.774 334.556C162.053 334.421 162.285 334.228 162.472 333.975C162.66 333.723 162.788 333.416 162.857 333.055H165.115C165.059 333.764 164.85 334.393 164.489 334.941C164.128 335.485 163.636 335.911 163.014 336.22C162.392 336.524 161.661 336.677 160.822 336.677ZM167.055 336.481V326.458H169.417V336.481H167.055ZM168.242 325.036C167.868 325.036 167.546 324.912 167.277 324.664C167.007 324.411 166.872 324.109 166.872 323.757C166.872 323.4 167.007 323.098 167.277 322.85C167.546 322.597 167.868 322.471 168.242 322.471C168.621 322.471 168.943 322.597 169.208 322.85C169.478 323.098 169.613 323.4 169.613 323.757C169.613 324.109 169.478 324.411 169.208 324.664C168.943 324.912 168.621 325.036 168.242 325.036ZM174.73 336.683C174.095 336.683 173.523 336.57 173.014 336.344C172.509 336.113 172.109 335.774 171.813 335.326C171.522 334.878 171.376 334.325 171.376 333.669C171.376 333.103 171.481 332.635 171.689 332.266C171.898 331.896 172.183 331.6 172.544 331.378C172.905 331.156 173.312 330.989 173.765 330.876C174.221 330.758 174.693 330.673 175.181 330.621C175.768 330.56 176.244 330.506 176.61 330.458C176.975 330.406 177.24 330.328 177.406 330.223C177.575 330.114 177.66 329.947 177.66 329.721V329.682C177.66 329.19 177.514 328.809 177.223 328.54C176.931 328.27 176.512 328.135 175.964 328.135C175.385 328.135 174.926 328.261 174.587 328.514C174.252 328.766 174.026 329.064 173.908 329.408L171.703 329.094C171.877 328.485 172.164 327.976 172.564 327.567C172.964 327.154 173.453 326.845 174.032 326.641C174.611 326.432 175.25 326.328 175.951 326.328C176.433 326.328 176.914 326.384 177.393 326.497C177.871 326.61 178.308 326.797 178.704 327.058C179.1 327.315 179.418 327.665 179.657 328.109C179.9 328.553 180.022 329.107 180.022 329.773V336.481H177.751V335.104H177.673C177.53 335.383 177.327 335.644 177.066 335.887C176.81 336.126 176.486 336.32 176.094 336.468C175.707 336.611 175.252 336.683 174.73 336.683ZM175.344 334.948C175.818 334.948 176.229 334.854 176.577 334.667C176.925 334.476 177.192 334.223 177.38 333.91C177.571 333.597 177.667 333.255 177.667 332.886V331.704C177.593 331.765 177.467 331.822 177.288 331.874C177.114 331.926 176.918 331.972 176.701 332.011C176.483 332.05 176.268 332.085 176.055 332.116C175.842 332.146 175.657 332.172 175.5 332.194C175.148 332.242 174.833 332.32 174.554 332.429C174.276 332.537 174.056 332.69 173.895 332.886C173.734 333.077 173.654 333.325 173.654 333.629C173.654 334.064 173.812 334.393 174.13 334.615C174.448 334.837 174.852 334.948 175.344 334.948ZM184.76 323.117V336.481H182.398V323.117H184.76ZM199.114 326.791C199.053 326.221 198.796 325.777 198.344 325.46C197.896 325.142 197.313 324.983 196.595 324.983C196.09 324.983 195.657 325.059 195.296 325.212C194.935 325.364 194.659 325.571 194.468 325.832C194.276 326.093 194.178 326.391 194.174 326.726C194.174 327.004 194.237 327.245 194.363 327.45C194.494 327.654 194.67 327.828 194.892 327.972C195.114 328.111 195.359 328.229 195.629 328.324C195.899 328.42 196.171 328.501 196.445 328.566L197.698 328.879C198.202 328.996 198.687 329.155 199.153 329.355C199.623 329.555 200.042 329.808 200.412 330.112C200.786 330.417 201.082 330.784 201.3 331.215C201.517 331.646 201.626 332.15 201.626 332.729C201.626 333.512 201.426 334.201 201.026 334.797C200.625 335.389 200.047 335.852 199.29 336.187C198.537 336.518 197.626 336.683 196.556 336.683C195.516 336.683 194.613 336.522 193.848 336.2C193.087 335.878 192.491 335.409 192.06 334.791C191.634 334.173 191.403 333.421 191.368 332.533H193.75C193.785 332.999 193.928 333.386 194.181 333.695C194.433 334.004 194.761 334.234 195.166 334.386C195.575 334.539 196.032 334.615 196.536 334.615C197.063 334.615 197.524 334.536 197.92 334.38C198.32 334.219 198.633 333.997 198.859 333.714C199.085 333.427 199.201 333.092 199.205 332.709C199.201 332.361 199.098 332.074 198.898 331.848C198.698 331.617 198.418 331.426 198.057 331.274C197.7 331.117 197.282 330.978 196.804 330.856L195.283 330.465C194.183 330.182 193.313 329.753 192.673 329.179C192.038 328.601 191.721 327.833 191.721 326.876C191.721 326.088 191.934 325.399 192.36 324.807C192.791 324.216 193.376 323.757 194.115 323.43C194.855 323.1 195.692 322.934 196.628 322.934C197.576 322.934 198.407 323.1 199.12 323.43C199.838 323.757 200.401 324.211 200.81 324.794C201.219 325.373 201.43 326.038 201.443 326.791H199.114ZM208.685 326.458V328.285H202.923V326.458H208.685ZM204.345 324.057H206.708V333.466C206.708 333.784 206.755 334.027 206.851 334.197C206.951 334.362 207.082 334.476 207.243 334.536C207.404 334.597 207.582 334.628 207.778 334.628C207.926 334.628 208.06 334.617 208.182 334.595C208.308 334.573 208.404 334.554 208.469 334.536L208.867 336.383C208.741 336.427 208.561 336.474 208.326 336.527C208.095 336.579 207.812 336.609 207.478 336.618C206.886 336.635 206.353 336.546 205.879 336.35C205.405 336.15 205.028 335.841 204.75 335.424C204.476 335.006 204.341 334.484 204.345 333.858V324.057ZM213.544 336.683C212.909 336.683 212.337 336.57 211.828 336.344C211.324 336.113 210.923 335.774 210.628 335.326C210.336 334.878 210.19 334.325 210.19 333.669C210.19 333.103 210.295 332.635 210.504 332.266C210.712 331.896 210.997 331.6 211.358 331.378C211.72 331.156 212.126 330.989 212.579 330.876C213.035 330.758 213.507 330.673 213.995 330.621C214.582 330.56 215.058 330.506 215.424 330.458C215.789 330.406 216.054 330.328 216.22 330.223C216.389 330.114 216.474 329.947 216.474 329.721V329.682C216.474 329.19 216.329 328.809 216.037 328.54C215.746 328.27 215.326 328.135 214.778 328.135C214.199 328.135 213.74 328.261 213.401 328.514C213.066 328.766 212.84 329.064 212.722 329.408L210.517 329.094C210.691 328.485 210.978 327.976 211.378 327.567C211.778 327.154 212.268 326.845 212.846 326.641C213.425 326.432 214.064 326.328 214.765 326.328C215.248 326.328 215.728 326.384 216.207 326.497C216.685 326.61 217.122 326.797 217.518 327.058C217.914 327.315 218.232 327.665 218.471 328.109C218.715 328.553 218.836 329.107 218.836 329.773V336.481H216.566V335.104H216.487C216.344 335.383 216.141 335.644 215.88 335.887C215.624 336.126 215.3 336.32 214.908 336.468C214.521 336.611 214.066 336.683 213.544 336.683ZM214.158 334.948C214.632 334.948 215.043 334.854 215.391 334.667C215.739 334.476 216.007 334.223 216.194 333.91C216.385 333.597 216.481 333.255 216.481 332.886V331.704C216.407 331.765 216.281 331.822 216.102 331.874C215.928 331.926 215.733 331.972 215.515 332.011C215.298 332.05 215.082 332.085 214.869 332.116C214.656 332.146 214.471 332.172 214.314 332.194C213.962 332.242 213.647 332.32 213.368 332.429C213.09 332.537 212.87 332.69 212.709 332.886C212.548 333.077 212.468 333.325 212.468 333.629C212.468 334.064 212.627 334.393 212.944 334.615C213.262 334.837 213.666 334.948 214.158 334.948ZM226.217 326.458V328.285H220.455V326.458H226.217ZM221.877 324.057H224.239V333.466C224.239 333.784 224.287 334.027 224.383 334.197C224.483 334.362 224.614 334.476 224.774 334.536C224.935 334.597 225.114 334.628 225.31 334.628C225.457 334.628 225.592 334.617 225.714 334.595C225.84 334.573 225.936 334.554 226.001 334.536L226.399 336.383C226.273 336.427 226.093 336.474 225.858 336.527C225.627 336.579 225.344 336.609 225.009 336.618C224.418 336.635 223.885 336.546 223.411 336.35C222.937 336.15 222.56 335.841 222.282 335.424C222.008 335.006 221.873 334.484 221.877 333.858V324.057ZM232.522 336.677C231.517 336.677 230.649 336.468 229.918 336.05C229.192 335.628 228.633 335.032 228.241 334.262C227.85 333.488 227.654 332.577 227.654 331.528C227.654 330.497 227.85 329.592 228.241 328.814C228.637 328.031 229.189 327.422 229.898 326.987C230.608 326.547 231.441 326.328 232.398 326.328C233.015 326.328 233.598 326.428 234.146 326.628C234.699 326.824 235.186 327.128 235.608 327.541C236.034 327.955 236.369 328.481 236.613 329.12C236.857 329.756 236.978 330.512 236.978 331.391V332.116H228.763V330.523H234.714C234.71 330.071 234.612 329.669 234.421 329.316C234.229 328.959 233.962 328.679 233.618 328.474C233.279 328.27 232.883 328.168 232.43 328.168C231.947 328.168 231.523 328.285 231.158 328.52C230.792 328.751 230.508 329.055 230.303 329.434C230.103 329.808 230.001 330.219 229.996 330.667V332.057C229.996 332.64 230.103 333.14 230.316 333.558C230.529 333.971 230.827 334.288 231.21 334.51C231.593 334.728 232.041 334.837 232.554 334.837C232.898 334.837 233.209 334.789 233.487 334.693C233.766 334.593 234.007 334.447 234.212 334.256C234.416 334.064 234.571 333.827 234.675 333.545L236.881 333.793C236.741 334.375 236.476 334.884 236.084 335.319C235.697 335.75 235.201 336.085 234.597 336.324C233.992 336.559 233.3 336.677 232.522 336.677ZM238.977 336.481V326.458H241.235V328.161H241.352C241.561 327.587 241.907 327.139 242.39 326.817C242.872 326.491 243.449 326.328 244.119 326.328C244.797 326.328 245.369 326.493 245.835 326.824C246.305 327.15 246.635 327.596 246.827 328.161H246.931C247.153 327.604 247.527 327.161 248.054 326.83C248.584 326.495 249.213 326.328 249.939 326.328C250.862 326.328 251.614 326.619 252.197 327.202C252.78 327.785 253.071 328.635 253.071 329.753V336.481H250.703V330.119C250.703 329.497 250.537 329.042 250.207 328.755C249.876 328.464 249.472 328.318 248.993 328.318C248.423 328.318 247.977 328.496 247.655 328.853C247.338 329.205 247.179 329.664 247.179 330.23V336.481H244.863V330.021C244.863 329.503 244.706 329.09 244.393 328.781C244.084 328.472 243.679 328.318 243.179 328.318C242.84 328.318 242.531 328.405 242.253 328.579C241.974 328.748 241.752 328.99 241.587 329.303C241.422 329.612 241.339 329.973 241.339 330.386V336.481H238.977ZM259.905 336.677C258.9 336.677 258.032 336.468 257.301 336.05C256.575 335.628 256.016 335.032 255.624 334.262C255.233 333.488 255.037 332.577 255.037 331.528C255.037 330.497 255.233 329.592 255.624 328.814C256.02 328.031 256.573 327.422 257.282 326.987C257.991 326.547 258.824 326.328 259.781 326.328C260.399 326.328 260.982 326.428 261.53 326.628C262.082 326.824 262.57 327.128 262.992 327.541C263.418 327.955 263.753 328.481 263.996 329.12C264.24 329.756 264.362 330.512 264.362 331.391V332.116H256.147V330.523H262.098C262.093 330.071 261.995 329.669 261.804 329.316C261.613 328.959 261.345 328.679 261.001 328.474C260.662 328.27 260.266 328.168 259.814 328.168C259.331 328.168 258.907 328.285 258.541 328.52C258.176 328.751 257.891 329.055 257.686 329.434C257.486 329.808 257.384 330.219 257.38 330.667V332.057C257.38 332.64 257.486 333.14 257.7 333.558C257.913 333.971 258.211 334.288 258.594 334.51C258.976 334.728 259.424 334.837 259.938 334.837C260.281 334.837 260.592 334.789 260.871 334.693C261.149 334.593 261.391 334.447 261.595 334.256C261.8 334.064 261.954 333.827 262.058 333.545L264.264 333.793C264.125 334.375 263.859 334.884 263.468 335.319C263.081 335.75 262.585 336.085 261.98 336.324C261.375 336.559 260.684 336.677 259.905 336.677ZM268.722 330.608V336.481H266.36V326.458H268.618V328.161H268.735C268.966 327.6 269.334 327.154 269.838 326.824C270.347 326.493 270.976 326.328 271.724 326.328C272.416 326.328 273.018 326.475 273.532 326.771C274.049 327.067 274.449 327.496 274.732 328.057C275.019 328.618 275.161 329.299 275.156 330.099V336.481H272.794V330.465C272.794 329.795 272.62 329.27 272.272 328.892C271.929 328.514 271.452 328.324 270.843 328.324C270.43 328.324 270.062 328.416 269.74 328.598C269.423 328.777 269.173 329.036 268.99 329.375C268.812 329.714 268.722 330.125 268.722 330.608ZM282.563 326.458V328.285H276.801V326.458H282.563ZM278.223 324.057H280.585V333.466C280.585 333.784 280.633 334.027 280.729 334.197C280.829 334.362 280.96 334.476 281.12 334.536C281.281 334.597 281.46 334.628 281.656 334.628C281.803 334.628 281.938 334.617 282.06 334.595C282.186 334.573 282.282 334.554 282.347 334.536L282.745 336.383C282.619 336.427 282.439 336.474 282.204 336.527C281.973 336.579 281.69 336.609 281.355 336.618C280.764 336.635 280.231 336.546 279.757 336.35C279.283 336.15 278.906 335.841 278.628 335.424C278.354 335.006 278.219 334.484 278.223 333.858V324.057ZM292.316 329.107L290.163 329.342C290.102 329.125 289.995 328.92 289.843 328.729C289.695 328.537 289.495 328.383 289.243 328.266C288.991 328.148 288.682 328.089 288.316 328.089C287.825 328.089 287.411 328.196 287.076 328.409C286.746 328.622 286.583 328.899 286.587 329.238C286.583 329.529 286.689 329.766 286.907 329.949C287.129 330.132 287.494 330.282 288.003 330.399L289.713 330.765C290.661 330.969 291.366 331.293 291.827 331.737C292.292 332.181 292.527 332.762 292.532 333.479C292.527 334.11 292.342 334.667 291.977 335.15C291.616 335.628 291.113 336.002 290.47 336.272C289.826 336.542 289.086 336.677 288.251 336.677C287.024 336.677 286.037 336.42 285.289 335.907C284.54 335.389 284.094 334.669 283.951 333.747L286.254 333.525C286.359 333.977 286.581 334.319 286.92 334.549C287.259 334.78 287.701 334.895 288.244 334.895C288.806 334.895 289.256 334.78 289.595 334.549C289.939 334.319 290.111 334.034 290.111 333.695C290.111 333.408 290 333.17 289.778 332.983C289.56 332.796 289.221 332.653 288.76 332.553L287.05 332.194C286.089 331.994 285.378 331.657 284.917 331.182C284.455 330.704 284.227 330.099 284.231 329.368C284.227 328.751 284.395 328.216 284.734 327.763C285.078 327.306 285.554 326.954 286.163 326.706C286.776 326.454 287.483 326.328 288.284 326.328C289.458 326.328 290.383 326.578 291.057 327.078C291.736 327.578 292.155 328.255 292.316 329.107Z" fill="#212528"/>
</g>
<defs>
<filter id="filter0_d_435_129" x="77.1299" y="149.696" width="119.872" height="119.872" filterUnits="userSpaceOnUse" color-interpolation-filters="sRGB">
<feFlood flood-opacity="0" result="BackgroundImageFix"/>
<feColorMatrix in="SourceAlpha" type="matrix" values="0 0 0 0 0 0 0 0 0 0 0 0 0 0 0 0 0 0 127 0" result="hardAlpha"/>
<feOffset dx="3.81503" dy="3.81503"/>
<feComposite in2="hardAlpha" operator="out"/>
<feColorMatrix type="matrix" values="0 0 0 0 0.979608 0 0 0 0 0.800784 0 0 0 0 0.620392 0 0 0 1 0"/>
<feBlend mode="normal" in2="BackgroundImageFix" result="effect1_dropShadow_435_129"/>
<feBlend mode="normal" in="SourceGraphic" in2="effect1_dropShadow_435_129" result="shape"/>
</filter>
<filter id="filter1_d_435_129" x="206.761" y="149.572" width="119.872" height="119.872" filterUnits="userSpaceOnUse" color-interpolation-filters="sRGB">
<feFlood flood-opacity="0" result="BackgroundImageFix"/>
<feColorMatrix in="SourceAlpha" type="matrix" values="0 0 0 0 0 0 0 0 0 0 0 0 0 0 0 0 0 0 127 0" result="hardAlpha"/>
<feOffset dx="3.81503" dy="3.81503"/>
<feComposite in2="hardAlpha" operator="out"/>
<feColorMatrix type="matrix" values="0 0 0 0 0.933333 0 0 0 0 0.666667 0 0 0 0 0.905882 0 0 0 1 0"/>
<feBlend mode="normal" in2="BackgroundImageFix" result="effect1_dropShadow_435_129"/>
<feBlend mode="normal" in="SourceGraphic" in2="effect1_dropShadow_435_129" result="shape"/>
</filter>
<filter id="filter2_d_435_129" x="77.1299" y="20.0652" width="119.872" height="119.872" filterUnits="userSpaceOnUse" color-interpolation-filters="sRGB">
<feFlood flood-opacity="0" result="BackgroundImageFix"/>
<feColorMatrix in="SourceAlpha" type="matrix" values="0 0 0 0 0 0 0 0 0 0 0 0 0 0 0 0 0 0 127 0" result="hardAlpha"/>
<feOffset dx="3.81503" dy="3.81503"/>
<feComposite in2="hardAlpha" operator="out"/>
<feColorMatrix type="matrix" values="0 0 0 0 0.67451 0 0 0 0 0.933333 0 0 0 0 0.666667 0 0 0 1 0"/>
<feBlend mode="normal" in2="BackgroundImageFix" result="effect1_dropShadow_435_129"/>
<feBlend mode="normal" in="SourceGraphic" in2="effect1_dropShadow_435_129" result="shape"/>
</filter>
<filter id="filter3_d_435_129" x="206.761" y="19.9414" width="119.872" height="119.872" filterUnits="userSpaceOnUse" color-interpolation-filters="sRGB">
<feFlood flood-opacity="0" result="BackgroundImageFix"/>
<feColorMatrix in="SourceAlpha" type="matrix" values="0 0 0 0 0 0 0 0 0 0 0 0 0 0 0 0 0 0 127 0" result="hardAlpha"/>
<feOffset dx="3.81503" dy="3.81503"/>
<feComposite in2="hardAlpha" operator="out"/>
<feColorMatrix type="matrix" values="0 0 0 0 0.666667 0 0 0 0 0.803922 0 0 0 0 0.933333 0 0 0 1 0"/>
<feBlend mode="normal" in2="BackgroundImageFix" result="effect1_dropShadow_435_129"/>
<feBlend mode="normal" in="SourceGraphic" in2="effect1_dropShadow_435_129" result="shape"/>
</filter>
<filter id="filter4_d_435_129" x="77.1797" y="279.02" width="248.328" height="103.611" filterUnits="userSpaceOnUse" color-interpolation-filters="sRGB">
<feFlood flood-opacity="0" result="BackgroundImageFix"/>
<feColorMatrix in="SourceAlpha" type="matrix" values="0 0 0 0 0 0 0 0 0 0 0 0 0 0 0 0 0 0 127 0" result="hardAlpha"/>
<feOffset dx="2.68991" dy="2.68991"/>
<feComposite in2="hardAlpha" operator="out"/>
<feColorMatrix type="matrix" values="0 0 0 0 0.67451 0 0 0 0 0.933333 0 0 0 0 0.666667 0 0 0 1 0"/>
<feBlend mode="normal" in2="BackgroundImageFix" result="effect1_dropShadow_435_129"/>
<feBlend mode="normal" in="SourceGraphic" in2="effect1_dropShadow_435_129" result="shape"/>
</filter>
</defs>
</svg>
