<svg width="500" height="500" viewBox="0 0 500 500" fill="none" xmlns="http://www.w3.org/2000/svg">
<rect width="500" height="500" rx="8" fill="#E9ECFF"/>
<rect x="30" y="135" width="440" height="230" rx="12" fill="white"/>
<rect x="52" y="151" width="173" height="52" rx="4" fill="#1A237E"/>
<path d="M81.852 185V170.172H83.92V185H81.852ZM76.66 171.624V169.732H89.09V171.624H76.66ZM88.8602 185V174.55H90.8402V185H88.8602ZM90.8402 179.038L90.0922 178.708C90.0922 177.373 90.4002 176.31 91.0162 175.518C91.6322 174.726 92.5195 174.33 93.6782 174.33C94.2062 174.33 94.6829 174.425 95.1082 174.616C95.5335 174.792 95.9295 175.093 96.2962 175.518L94.9982 176.86C94.7782 176.625 94.5362 176.457 94.2722 176.354C94.0082 176.251 93.7002 176.2 93.3482 176.2C92.6149 176.2 92.0135 176.435 91.5442 176.904C91.0749 177.373 90.8402 178.085 90.8402 179.038ZM101.791 185.22C100.837 185.22 99.9719 184.985 99.1945 184.516C98.4172 184.032 97.8012 183.379 97.3465 182.558C96.9065 181.737 96.6865 180.813 96.6865 179.786C96.6865 178.759 96.9065 177.835 97.3465 177.014C97.8012 176.193 98.4099 175.54 99.1725 175.056C99.9499 174.572 100.823 174.33 101.791 174.33C102.583 174.33 103.287 174.499 103.903 174.836C104.533 175.159 105.039 175.613 105.421 176.2C105.802 176.772 106.015 177.439 106.059 178.202V181.348C106.015 182.096 105.802 182.763 105.421 183.35C105.054 183.937 104.555 184.399 103.925 184.736C103.309 185.059 102.597 185.22 101.791 185.22ZM102.121 183.35C103.103 183.35 103.895 183.02 104.497 182.36C105.098 181.685 105.399 180.827 105.399 179.786C105.399 179.067 105.259 178.444 104.981 177.916C104.717 177.373 104.335 176.955 103.837 176.662C103.338 176.354 102.759 176.2 102.099 176.2C101.439 176.2 100.852 176.354 100.339 176.662C99.8399 176.97 99.4439 177.395 99.1505 177.938C98.8719 178.466 98.7325 179.075 98.7325 179.764C98.7325 180.468 98.8719 181.091 99.1505 181.634C99.4439 182.162 99.8472 182.58 100.361 182.888C100.874 183.196 101.461 183.35 102.121 183.35ZM105.267 185V182.184L105.641 179.632L105.267 177.102V174.55H107.269V185H105.267ZM117.543 185V178.906C117.543 178.114 117.294 177.461 116.795 176.948C116.297 176.435 115.651 176.178 114.859 176.178C114.331 176.178 113.862 176.295 113.451 176.53C113.041 176.765 112.718 177.087 112.483 177.498C112.249 177.909 112.131 178.378 112.131 178.906L111.317 178.444C111.317 177.652 111.493 176.948 111.845 176.332C112.197 175.716 112.689 175.232 113.319 174.88C113.95 174.513 114.661 174.33 115.453 174.33C116.245 174.33 116.942 174.528 117.543 174.924C118.159 175.32 118.643 175.841 118.995 176.486C119.347 177.117 119.523 177.791 119.523 178.51V185H117.543ZM110.151 185V174.55H112.131V185H110.151ZM125.526 185.22C124.939 185.22 124.382 185.147 123.854 185C123.341 184.839 122.864 184.619 122.424 184.34C121.984 184.047 121.603 183.702 121.28 183.306L122.556 182.03C122.937 182.499 123.377 182.851 123.876 183.086C124.375 183.306 124.932 183.416 125.548 183.416C126.164 183.416 126.641 183.313 126.978 183.108C127.315 182.888 127.484 182.587 127.484 182.206C127.484 181.825 127.345 181.531 127.066 181.326C126.802 181.106 126.457 180.93 126.032 180.798C125.607 180.651 125.152 180.512 124.668 180.38C124.199 180.233 123.751 180.05 123.326 179.83C122.901 179.61 122.549 179.309 122.27 178.928C122.006 178.547 121.874 178.041 121.874 177.41C121.874 176.779 122.028 176.237 122.336 175.782C122.644 175.313 123.069 174.953 123.612 174.704C124.169 174.455 124.837 174.33 125.614 174.33C126.435 174.33 127.161 174.477 127.792 174.77C128.437 175.049 128.965 175.474 129.376 176.046L128.1 177.322C127.807 176.941 127.44 176.647 127 176.442C126.575 176.237 126.091 176.134 125.548 176.134C124.976 176.134 124.536 176.237 124.228 176.442C123.935 176.633 123.788 176.904 123.788 177.256C123.788 177.608 123.92 177.879 124.184 178.07C124.448 178.261 124.793 178.422 125.218 178.554C125.658 178.686 126.113 178.825 126.582 178.972C127.051 179.104 127.499 179.287 127.924 179.522C128.349 179.757 128.694 180.072 128.958 180.468C129.237 180.864 129.376 181.385 129.376 182.03C129.376 183.013 129.024 183.79 128.32 184.362C127.631 184.934 126.699 185.22 125.526 185.22ZM136.037 185.22C135.083 185.22 134.218 184.985 133.441 184.516C132.663 184.032 132.047 183.379 131.593 182.558C131.153 181.737 130.933 180.813 130.933 179.786C130.933 178.759 131.153 177.835 131.593 177.014C132.047 176.193 132.656 175.54 133.419 175.056C134.196 174.572 135.069 174.33 136.037 174.33C136.829 174.33 137.533 174.499 138.149 174.836C138.779 175.159 139.285 175.613 139.667 176.2C140.048 176.772 140.261 177.439 140.305 178.202V181.348C140.261 182.096 140.048 182.763 139.667 183.35C139.3 183.937 138.801 184.399 138.171 184.736C137.555 185.059 136.843 185.22 136.037 185.22ZM136.367 183.35C137.349 183.35 138.141 183.02 138.743 182.36C139.344 181.685 139.645 180.827 139.645 179.786C139.645 179.067 139.505 178.444 139.227 177.916C138.963 177.373 138.581 176.955 138.083 176.662C137.584 176.354 137.005 176.2 136.345 176.2C135.685 176.2 135.098 176.354 134.585 176.662C134.086 176.97 133.69 177.395 133.397 177.938C133.118 178.466 132.979 179.075 132.979 179.764C132.979 180.468 133.118 181.091 133.397 181.634C133.69 182.162 134.093 182.58 134.607 182.888C135.12 183.196 135.707 183.35 136.367 183.35ZM139.513 185V182.184L139.887 179.632L139.513 177.102V174.55H141.515V185H139.513ZM149.171 185.22C148.145 185.22 147.213 184.978 146.377 184.494C145.556 184.01 144.903 183.357 144.419 182.536C143.95 181.7 143.715 180.776 143.715 179.764C143.715 178.737 143.95 177.813 144.419 176.992C144.903 176.171 145.556 175.525 146.377 175.056C147.213 174.572 148.145 174.33 149.171 174.33C149.978 174.33 150.726 174.484 151.415 174.792C152.105 175.085 152.699 175.518 153.197 176.09L151.877 177.41C151.555 177.029 151.159 176.743 150.689 176.552C150.235 176.347 149.729 176.244 149.171 176.244C148.511 176.244 147.925 176.398 147.411 176.706C146.898 176.999 146.495 177.41 146.201 177.938C145.908 178.466 145.761 179.075 145.761 179.764C145.761 180.453 145.908 181.062 146.201 181.59C146.495 182.118 146.898 182.536 147.411 182.844C147.925 183.152 148.511 183.306 149.171 183.306C149.729 183.306 150.235 183.211 150.689 183.02C151.159 182.815 151.562 182.521 151.899 182.14L153.197 183.46C152.713 184.017 152.119 184.45 151.415 184.758C150.726 185.066 149.978 185.22 149.171 185.22ZM156.638 185V170.172H158.618V185H156.638ZM154.064 176.354V174.55H161.192V176.354H154.064ZM163.154 185V174.55H165.134V185H163.154ZM164.144 172.46C163.777 172.46 163.476 172.343 163.242 172.108C163.007 171.859 162.89 171.551 162.89 171.184C162.89 170.832 163.007 170.539 163.242 170.304C163.476 170.055 163.777 169.93 164.144 169.93C164.51 169.93 164.811 170.055 165.046 170.304C165.28 170.539 165.398 170.832 165.398 171.184C165.398 171.551 165.28 171.859 165.046 172.108C164.811 172.343 164.51 172.46 164.144 172.46ZM172.826 185.22C171.799 185.22 170.875 184.978 170.054 184.494C169.232 184.01 168.58 183.357 168.096 182.536C167.612 181.7 167.37 180.769 167.37 179.742C167.37 178.73 167.612 177.821 168.096 177.014C168.58 176.193 169.232 175.54 170.054 175.056C170.875 174.572 171.799 174.33 172.826 174.33C173.838 174.33 174.754 174.572 175.576 175.056C176.412 175.525 177.072 176.171 177.556 176.992C178.04 177.813 178.282 178.73 178.282 179.742C178.282 180.769 178.04 181.7 177.556 182.536C177.072 183.357 176.412 184.01 175.576 184.494C174.754 184.978 173.838 185.22 172.826 185.22ZM172.826 183.306C173.486 183.306 174.072 183.152 174.586 182.844C175.099 182.536 175.502 182.118 175.796 181.59C176.089 181.047 176.236 180.431 176.236 179.742C176.236 179.067 176.082 178.466 175.774 177.938C175.48 177.41 175.077 176.999 174.564 176.706C174.065 176.398 173.486 176.244 172.826 176.244C172.166 176.244 171.579 176.398 171.066 176.706C170.552 176.999 170.149 177.41 169.856 177.938C169.562 178.466 169.416 179.067 169.416 179.742C169.416 180.431 169.562 181.047 169.856 181.59C170.149 182.118 170.552 182.536 171.066 182.844C171.579 183.152 172.166 183.306 172.826 183.306ZM187.905 185V178.906C187.905 178.114 187.655 177.461 187.157 176.948C186.658 176.435 186.013 176.178 185.221 176.178C184.693 176.178 184.223 176.295 183.813 176.53C183.402 176.765 183.079 177.087 182.845 177.498C182.61 177.909 182.493 178.378 182.493 178.906L181.679 178.444C181.679 177.652 181.855 176.948 182.207 176.332C182.559 175.716 183.05 175.232 183.681 174.88C184.311 174.513 185.023 174.33 185.815 174.33C186.607 174.33 187.303 174.528 187.905 174.924C188.521 175.32 189.005 175.841 189.357 176.486C189.709 177.117 189.885 177.791 189.885 178.51V185H187.905ZM180.513 185V174.55H182.493V185H180.513ZM195.887 185.22C195.301 185.22 194.743 185.147 194.215 185C193.702 184.839 193.225 184.619 192.785 184.34C192.345 184.047 191.964 183.702 191.641 183.306L192.917 182.03C193.299 182.499 193.739 182.851 194.237 183.086C194.736 183.306 195.293 183.416 195.909 183.416C196.525 183.416 197.002 183.313 197.339 183.108C197.677 182.888 197.845 182.587 197.845 182.206C197.845 181.825 197.706 181.531 197.427 181.326C197.163 181.106 196.819 180.93 196.393 180.798C195.968 180.651 195.513 180.512 195.029 180.38C194.56 180.233 194.113 180.05 193.687 179.83C193.262 179.61 192.91 179.309 192.631 178.928C192.367 178.547 192.235 178.041 192.235 177.41C192.235 176.779 192.389 176.237 192.697 175.782C193.005 175.313 193.431 174.953 193.973 174.704C194.531 174.455 195.198 174.33 195.975 174.33C196.797 174.33 197.523 174.477 198.153 174.77C198.799 175.049 199.327 175.474 199.737 176.046L198.461 177.322C198.168 176.941 197.801 176.647 197.361 176.442C196.936 176.237 196.452 176.134 195.909 176.134C195.337 176.134 194.897 176.237 194.589 176.442C194.296 176.633 194.149 176.904 194.149 177.256C194.149 177.608 194.281 177.879 194.545 178.07C194.809 178.261 195.154 178.422 195.579 178.554C196.019 178.686 196.474 178.825 196.943 178.972C197.413 179.104 197.86 179.287 198.285 179.522C198.711 179.757 199.055 180.072 199.319 180.468C199.598 180.864 199.737 181.385 199.737 182.03C199.737 183.013 199.385 183.79 198.681 184.362C197.992 184.934 197.061 185.22 195.887 185.22Z" fill="#E9ECFF"/>
<rect x="245" y="151" width="52" height="52" rx="4" fill="#E9ECFF"/>
<path d="M276 168.469L279.537 172.006L276 175.544L272.462 172.006L276 168.469ZM266.425 169.069V174.069H261.425V169.069H266.425ZM278.925 181.569V186.569H273.925V181.569H278.925ZM266.425 181.569V186.569H261.425V181.569H266.425ZM276 164.931L268.925 171.994L276 179.069L283.075 171.994L276 164.931ZM268.925 166.569H258.925V176.569H268.925V166.569ZM281.425 179.069H271.425V189.069H281.425V179.069ZM268.925 179.069H258.925V189.069H268.925V179.069Z" fill="#1A237E"/>
<rect x="317" y="151" width="52" height="52" rx="4" fill="#E9ECFF"/>
<path d="M338 182H348V184.5H338V182ZM338 177H348V179.5H338V177ZM345.5 164.5H335.5C334.125 164.5 333 165.625 333 167V187C333 188.375 334.112 189.5 335.487 189.5H350.5C351.875 189.5 353 188.375 353 187V172L345.5 164.5ZM350.5 187H335.5V167H344.25V173.25H350.5V187Z" fill="#1A237E"/>
<rect x="389" y="151" width="52" height="52" rx="4" fill="#E9ECFF"/>
<path d="M423.75 173.25L425.312 169.812L428.75 168.25L425.312 166.688L423.75 163.25L422.188 166.688L418.75 168.25L422.188 169.812L423.75 173.25Z" fill="#1A237E"/>
<path d="M423.75 180.75L422.188 184.188L418.75 185.75L422.188 187.312L423.75 190.75L425.312 187.312L428.75 185.75L425.312 184.188L423.75 180.75Z" fill="#1A237E"/>
<path d="M414.375 173.875L411.25 167L408.125 173.875L401.25 177L408.125 180.125L411.25 187L414.375 180.125L421.25 177L414.375 173.875ZM412.487 178.237L411.25 180.962L410.013 178.237L407.287 177L410.013 175.763L411.25 173.038L412.487 175.763L415.212 177L412.487 178.237Z" fill="#1A237E"/>
<rect x="52" y="226" width="389" height="52" rx="4" fill="#F2F2F3"/>
<path d="M71.9167 244.75V246.417H77.4083L67.75 256.075L68.925 257.25L78.5833 247.592V253.083H80.25V244.75H71.9167Z" fill="#29A653"/>
<path d="M100.336 257.16C99.5573 257.16 98.8267 257.016 98.144 256.728C97.472 256.429 96.88 256.019 96.368 255.496C95.8667 254.973 95.472 254.365 95.184 253.672C94.896 252.979 94.752 252.232 94.752 251.432C94.752 250.632 94.896 249.891 95.184 249.208C95.472 248.515 95.872 247.907 96.384 247.384C96.896 246.861 97.4933 246.456 98.176 246.168C98.8693 245.88 99.6213 245.736 100.432 245.736C101.317 245.736 102.133 245.907 102.88 246.248C103.627 246.589 104.251 247.08 104.752 247.72L103.712 248.76C103.36 248.248 102.896 247.859 102.32 247.592C101.744 247.315 101.115 247.176 100.432 247.176C99.6213 247.176 98.9013 247.357 98.272 247.72C97.6533 248.083 97.168 248.584 96.816 249.224C96.4747 249.864 96.304 250.6 96.304 251.432C96.304 252.275 96.48 253.016 96.832 253.656C97.184 254.296 97.6587 254.797 98.256 255.16C98.8533 255.523 99.536 255.704 100.304 255.704C101.083 255.704 101.755 255.555 102.32 255.256C102.896 254.957 103.339 254.52 103.648 253.944C103.957 253.357 104.112 252.643 104.112 251.8L105.024 252.456H100.224V251.08H105.664V251.304C105.664 252.595 105.435 253.677 104.976 254.552C104.528 255.416 103.899 256.067 103.088 256.504C102.288 256.941 101.371 257.16 100.336 257.16ZM107.431 257V249.4H108.871V257H107.431ZM108.871 252.664L108.327 252.424C108.327 251.453 108.551 250.68 108.999 250.104C109.447 249.528 110.092 249.24 110.935 249.24C111.319 249.24 111.666 249.309 111.975 249.448C112.284 249.576 112.572 249.795 112.839 250.104L111.895 251.08C111.735 250.909 111.559 250.787 111.367 250.712C111.175 250.637 110.951 250.6 110.695 250.6C110.162 250.6 109.724 250.771 109.383 251.112C109.042 251.453 108.871 251.971 108.871 252.664ZM117.123 257.16C116.366 257.16 115.683 256.989 115.075 256.648C114.467 256.296 113.987 255.821 113.635 255.224C113.283 254.627 113.107 253.949 113.107 253.192C113.107 252.445 113.278 251.773 113.619 251.176C113.971 250.579 114.44 250.109 115.027 249.768C115.624 249.416 116.291 249.24 117.027 249.24C117.731 249.24 118.35 249.4 118.883 249.72C119.427 250.04 119.848 250.483 120.147 251.048C120.456 251.613 120.611 252.253 120.611 252.968C120.611 253.075 120.606 253.192 120.595 253.32C120.584 253.437 120.563 253.576 120.531 253.736H114.115V252.536H119.763L119.235 253C119.235 252.488 119.144 252.056 118.963 251.704C118.782 251.341 118.526 251.064 118.195 250.872C117.864 250.669 117.464 250.568 116.995 250.568C116.504 250.568 116.072 250.675 115.699 250.888C115.326 251.101 115.038 251.4 114.835 251.784C114.632 252.168 114.531 252.621 114.531 253.144C114.531 253.677 114.638 254.147 114.851 254.552C115.064 254.947 115.368 255.256 115.763 255.48C116.158 255.693 116.611 255.8 117.123 255.8C117.55 255.8 117.939 255.725 118.291 255.576C118.654 255.427 118.963 255.203 119.219 254.904L120.147 255.848C119.784 256.275 119.336 256.6 118.803 256.824C118.28 257.048 117.72 257.16 117.123 257.16ZM124.552 257.064L121.256 249.4H122.856L125.304 255.4H124.792L127.368 249.4H128.968L125.416 257.064H124.552ZM122.376 260.184L124.616 255.592L125.416 257.064L123.976 260.184H122.376ZM136.947 257.16C136.072 257.16 135.326 257 134.707 256.68C134.088 256.36 133.539 255.896 133.059 255.288L134.083 254.264C134.435 254.755 134.84 255.128 135.299 255.384C135.758 255.629 136.323 255.752 136.995 255.752C137.656 255.752 138.184 255.608 138.579 255.32C138.984 255.032 139.187 254.637 139.187 254.136C139.187 253.72 139.091 253.384 138.899 253.128C138.707 252.872 138.446 252.664 138.115 252.504C137.795 252.333 137.443 252.184 137.059 252.056C136.675 251.917 136.291 251.773 135.907 251.624C135.523 251.464 135.171 251.272 134.851 251.048C134.531 250.813 134.27 250.509 134.067 250.136C133.875 249.763 133.779 249.293 133.779 248.728C133.779 248.099 133.928 247.565 134.227 247.128C134.536 246.68 134.952 246.339 135.475 246.104C136.008 245.859 136.606 245.736 137.267 245.736C137.992 245.736 138.643 245.88 139.219 246.168C139.795 246.445 140.264 246.813 140.627 247.272L139.603 248.296C139.272 247.912 138.915 247.624 138.531 247.432C138.158 247.24 137.726 247.144 137.235 247.144C136.638 247.144 136.163 247.277 135.811 247.544C135.459 247.8 135.283 248.163 135.283 248.632C135.283 249.005 135.379 249.309 135.571 249.544C135.774 249.768 136.035 249.96 136.355 250.12C136.675 250.28 137.027 250.429 137.411 250.568C137.806 250.696 138.195 250.84 138.579 251C138.963 251.16 139.315 251.363 139.635 251.608C139.955 251.853 140.211 252.173 140.403 252.568C140.606 252.952 140.707 253.437 140.707 254.024C140.707 255.005 140.366 255.773 139.683 256.328C139.011 256.883 138.099 257.16 136.947 257.16ZM143.646 257V246.216H145.086V257H143.646ZM141.774 250.712V249.4H146.958V250.712H141.774ZM151.606 257.16C150.859 257.16 150.187 256.984 149.59 256.632C148.993 256.28 148.518 255.805 148.166 255.208C147.814 254.6 147.638 253.923 147.638 253.176C147.638 252.44 147.814 251.779 148.166 251.192C148.518 250.595 148.993 250.12 149.59 249.768C150.187 249.416 150.859 249.24 151.606 249.24C152.342 249.24 153.009 249.416 153.606 249.768C154.214 250.109 154.694 250.579 155.046 251.176C155.398 251.773 155.574 252.44 155.574 253.176C155.574 253.923 155.398 254.6 155.046 255.208C154.694 255.805 154.214 256.28 153.606 256.632C153.009 256.984 152.342 257.16 151.606 257.16ZM151.606 255.768C152.086 255.768 152.513 255.656 152.886 255.432C153.259 255.208 153.553 254.904 153.766 254.52C153.979 254.125 154.086 253.677 154.086 253.176C154.086 252.685 153.974 252.248 153.75 251.864C153.537 251.48 153.243 251.181 152.87 250.968C152.507 250.744 152.086 250.632 151.606 250.632C151.126 250.632 150.699 250.744 150.326 250.968C149.953 251.181 149.659 251.48 149.446 251.864C149.233 252.248 149.126 252.685 149.126 253.176C149.126 253.677 149.233 254.125 149.446 254.52C149.659 254.904 149.953 255.208 150.326 255.432C150.699 255.656 151.126 255.768 151.606 255.768ZM162.573 257V252.568C162.573 251.992 162.391 251.517 162.029 251.144C161.666 250.771 161.197 250.584 160.621 250.584C160.237 250.584 159.895 250.669 159.597 250.84C159.298 251.011 159.063 251.245 158.893 251.544C158.722 251.843 158.637 252.184 158.637 252.568L158.045 252.232C158.045 251.656 158.173 251.144 158.429 250.696C158.685 250.248 159.042 249.896 159.501 249.64C159.959 249.373 160.477 249.24 161.053 249.24C161.629 249.24 162.135 249.384 162.573 249.672C163.021 249.96 163.373 250.339 163.629 250.808C163.885 251.267 164.013 251.757 164.013 252.28V257H162.573ZM157.197 257V249.4H158.637V257H157.197ZM169.482 257.16C168.725 257.16 168.042 256.989 167.434 256.648C166.826 256.296 166.346 255.821 165.994 255.224C165.642 254.627 165.466 253.949 165.466 253.192C165.466 252.445 165.637 251.773 165.978 251.176C166.33 250.579 166.8 250.109 167.386 249.768C167.984 249.416 168.65 249.24 169.386 249.24C170.09 249.24 170.709 249.4 171.242 249.72C171.786 250.04 172.208 250.483 172.506 251.048C172.816 251.613 172.97 252.253 172.97 252.968C172.97 253.075 172.965 253.192 172.954 253.32C172.944 253.437 172.922 253.576 172.89 253.736H166.474V252.536H172.122L171.594 253C171.594 252.488 171.504 252.056 171.322 251.704C171.141 251.341 170.885 251.064 170.554 250.872C170.224 250.669 169.824 250.568 169.354 250.568C168.864 250.568 168.432 250.675 168.058 250.888C167.685 251.101 167.397 251.4 167.194 251.784C166.992 252.168 166.89 252.621 166.89 253.144C166.89 253.677 166.997 254.147 167.21 254.552C167.424 254.947 167.728 255.256 168.122 255.48C168.517 255.693 168.97 255.8 169.482 255.8C169.909 255.8 170.298 255.725 170.65 255.576C171.013 255.427 171.322 255.203 171.578 254.904L172.506 255.848C172.144 256.275 171.696 256.6 171.162 256.824C170.64 257.048 170.08 257.16 169.482 257.16Z" fill="#3F4346"/>
<path d="M280.216 255.5L277.948 251.54V251.012H278.212C278.636 251.012 278.992 250.972 279.28 250.892C279.576 250.812 279.808 250.68 279.976 250.496C280.144 250.312 280.244 250.06 280.276 249.74H277.948V248.972H280.264C280.208 248.676 280.096 248.436 279.928 248.252C279.76 248.06 279.532 247.92 279.244 247.832C278.964 247.744 278.62 247.7 278.212 247.7H277.948V246.932H282.916V247.7H280.648C280.832 247.852 280.984 248.032 281.104 248.24C281.224 248.448 281.3 248.692 281.332 248.972H282.916V249.74H281.356C281.3 250.324 281.076 250.78 280.684 251.108C280.3 251.428 279.788 251.632 279.148 251.72L281.44 255.5H280.216ZM284.263 254.816L287.335 251.576C287.647 251.256 287.891 250.98 288.067 250.748C288.243 250.508 288.367 250.288 288.439 250.088C288.519 249.888 288.559 249.68 288.559 249.464C288.559 249.04 288.423 248.708 288.151 248.468C287.879 248.228 287.527 248.108 287.095 248.108C286.671 248.108 286.299 248.212 285.979 248.42C285.659 248.62 285.375 248.932 285.127 249.356L284.335 248.696C284.663 248.152 285.059 247.744 285.523 247.472C285.987 247.192 286.523 247.052 287.131 247.052C287.643 247.052 288.087 247.152 288.463 247.352C288.847 247.552 289.143 247.832 289.351 248.192C289.559 248.552 289.663 248.972 289.663 249.452C289.663 249.796 289.619 250.104 289.531 250.376C289.451 250.648 289.303 250.928 289.087 251.216C288.879 251.496 288.587 251.832 288.211 252.224L285.727 254.78L284.263 254.816ZM284.263 255.5V254.816L285.223 254.492H289.855V255.5H284.263ZM293.323 255.62C292.779 255.62 292.283 255.52 291.835 255.32C291.395 255.112 291.023 254.812 290.719 254.42L291.487 253.652C291.671 253.932 291.923 254.156 292.243 254.324C292.563 254.484 292.919 254.564 293.311 254.564C293.679 254.564 293.995 254.496 294.259 254.36C294.531 254.216 294.743 254.016 294.895 253.76C295.055 253.504 295.135 253.208 295.135 252.872C295.135 252.528 295.055 252.232 294.895 251.984C294.743 251.728 294.527 251.532 294.247 251.396C293.967 251.26 293.635 251.192 293.251 251.192C293.107 251.192 292.963 251.204 292.819 251.228C292.675 251.244 292.535 251.272 292.399 251.312L292.879 250.664C293.031 250.592 293.195 250.536 293.371 250.496C293.547 250.456 293.723 250.436 293.899 250.436C294.347 250.436 294.747 250.54 295.099 250.748C295.459 250.956 295.743 251.248 295.951 251.624C296.167 252 296.275 252.436 296.275 252.932C296.275 253.46 296.147 253.928 295.891 254.336C295.643 254.736 295.299 255.052 294.859 255.284C294.419 255.508 293.907 255.62 293.323 255.62ZM292.399 251.312V250.628L294.835 247.856L296.179 247.844L293.671 250.688L292.399 251.312ZM291.115 248.18V247.172H296.179V247.844L295.195 248.18H291.115ZM297.329 256.82L298.073 255.392L298.457 255.296C298.417 255.384 298.365 255.456 298.301 255.512C298.245 255.568 298.173 255.596 298.085 255.596C297.917 255.596 297.761 255.528 297.617 255.392C297.481 255.248 297.413 255.072 297.413 254.864C297.413 254.632 297.489 254.44 297.641 254.288C297.793 254.128 297.985 254.048 298.217 254.048C298.425 254.048 298.609 254.128 298.769 254.288C298.929 254.44 299.009 254.632 299.009 254.864C299.009 254.952 298.989 255.06 298.949 255.188C298.917 255.308 298.849 255.464 298.745 255.656L297.953 257.156L297.329 256.82ZM300.912 255.5L303.42 252.08L303.828 251.864C303.732 252.024 303.616 252.164 303.48 252.284C303.344 252.404 303.176 252.496 302.976 252.56C302.784 252.624 302.548 252.656 302.268 252.656C301.788 252.656 301.344 252.54 300.936 252.308C300.536 252.076 300.216 251.756 299.976 251.348C299.736 250.932 299.616 250.464 299.616 249.944C299.616 249.408 299.748 248.924 300.012 248.492C300.276 248.052 300.628 247.704 301.068 247.448C301.508 247.184 301.996 247.052 302.532 247.052C303.076 247.052 303.568 247.18 304.008 247.436C304.448 247.692 304.796 248.036 305.052 248.468C305.308 248.892 305.436 249.372 305.436 249.908C305.436 250.644 305.18 251.376 304.668 252.104L302.22 255.5H300.912ZM302.532 251.768C302.868 251.768 303.168 251.688 303.432 251.528C303.704 251.36 303.916 251.14 304.068 250.868C304.228 250.588 304.308 250.28 304.308 249.944C304.308 249.592 304.228 249.28 304.068 249.008C303.916 248.728 303.704 248.508 303.432 248.348C303.168 248.188 302.868 248.108 302.532 248.108C302.196 248.108 301.892 248.188 301.62 248.348C301.356 248.508 301.144 248.728 300.984 249.008C300.824 249.28 300.744 249.592 300.744 249.944C300.744 250.288 300.824 250.596 300.984 250.868C301.144 251.14 301.36 251.36 301.632 251.528C301.904 251.688 302.204 251.768 302.532 251.768ZM307.203 255.5L310.323 247.832L311.439 247.868L308.391 255.5H307.203ZM305.895 248.18V247.172H311.439V247.868L310.947 248.18H305.895ZM312.107 254.816L315.179 251.576C315.491 251.256 315.735 250.98 315.911 250.748C316.087 250.508 316.211 250.288 316.283 250.088C316.363 249.888 316.403 249.68 316.403 249.464C316.403 249.04 316.267 248.708 315.995 248.468C315.723 248.228 315.371 248.108 314.939 248.108C314.515 248.108 314.143 248.212 313.823 248.42C313.503 248.62 313.219 248.932 312.971 249.356L312.179 248.696C312.507 248.152 312.903 247.744 313.367 247.472C313.831 247.192 314.367 247.052 314.975 247.052C315.487 247.052 315.931 247.152 316.307 247.352C316.691 247.552 316.987 247.832 317.195 248.192C317.403 248.552 317.507 248.972 317.507 249.452C317.507 249.796 317.463 250.104 317.375 250.376C317.295 250.648 317.147 250.928 316.931 251.216C316.723 251.496 316.431 251.832 316.055 252.224L313.571 254.78L312.107 254.816ZM312.107 255.5V254.816L313.067 254.492H317.699V255.5H312.107Z" fill="#3F4346"/>
<rect x="329" y="236" width="100" height="30" rx="4" fill="#D1F4DC"/>
<path d="M352.917 244.75V246.417H358.408L348.75 256.075L349.925 257.25L359.583 247.592V253.083H361.25V244.75H352.917Z" fill="#29A653"/>
<path d="M373.984 255.5V247.172H375.112V255.5H373.984ZM380.918 255.5V252.176C380.918 251.744 380.782 251.388 380.51 251.108C380.238 250.828 379.886 250.688 379.454 250.688C379.166 250.688 378.91 250.752 378.686 250.88C378.462 251.008 378.286 251.184 378.158 251.408C378.03 251.632 377.966 251.888 377.966 252.176L377.522 251.924C377.522 251.492 377.618 251.108 377.81 250.772C378.002 250.436 378.27 250.172 378.614 249.98C378.958 249.78 379.346 249.68 379.778 249.68C380.21 249.68 380.59 249.788 380.918 250.004C381.254 250.22 381.518 250.504 381.71 250.856C381.902 251.2 381.998 251.568 381.998 251.96V255.5H380.918ZM376.886 255.5V249.8H377.966V255.5H376.886ZM386.064 255.62C385.504 255.62 384.996 255.488 384.54 255.224C384.092 254.96 383.736 254.604 383.472 254.156C383.216 253.7 383.088 253.196 383.088 252.644C383.088 252.084 383.216 251.58 383.472 251.132C383.736 250.684 384.092 250.332 384.54 250.076C384.996 249.812 385.504 249.68 386.064 249.68C386.504 249.68 386.912 249.764 387.288 249.932C387.664 250.092 387.988 250.328 388.26 250.64L387.54 251.36C387.364 251.152 387.148 250.996 386.892 250.892C386.644 250.78 386.368 250.724 386.064 250.724C385.704 250.724 385.384 250.808 385.104 250.976C384.824 251.136 384.604 251.36 384.444 251.648C384.284 251.936 384.204 252.268 384.204 252.644C384.204 253.02 384.284 253.352 384.444 253.64C384.604 253.928 384.824 254.156 385.104 254.324C385.384 254.492 385.704 254.576 386.064 254.576C386.368 254.576 386.644 254.524 386.892 254.42C387.148 254.308 387.368 254.148 387.552 253.94L388.26 254.66C387.996 254.964 387.672 255.2 387.288 255.368C386.912 255.536 386.504 255.62 386.064 255.62ZM391.818 255.62C391.258 255.62 390.754 255.488 390.306 255.224C389.858 254.96 389.502 254.604 389.238 254.156C388.974 253.7 388.842 253.192 388.842 252.632C388.842 252.08 388.974 251.584 389.238 251.144C389.502 250.696 389.858 250.34 390.306 250.076C390.754 249.812 391.258 249.68 391.818 249.68C392.37 249.68 392.87 249.812 393.318 250.076C393.774 250.332 394.134 250.684 394.398 251.132C394.662 251.58 394.794 252.08 394.794 252.632C394.794 253.192 394.662 253.7 394.398 254.156C394.134 254.604 393.774 254.96 393.318 255.224C392.87 255.488 392.37 255.62 391.818 255.62ZM391.818 254.576C392.178 254.576 392.498 254.492 392.778 254.324C393.058 254.156 393.278 253.928 393.438 253.64C393.598 253.344 393.678 253.008 393.678 252.632C393.678 252.264 393.594 251.936 393.426 251.648C393.266 251.36 393.046 251.136 392.766 250.976C392.494 250.808 392.178 250.724 391.818 250.724C391.458 250.724 391.138 250.808 390.858 250.976C390.578 251.136 390.358 251.36 390.198 251.648C390.038 251.936 389.958 252.264 389.958 252.632C389.958 253.008 390.038 253.344 390.198 253.64C390.358 253.928 390.578 254.156 390.858 254.324C391.138 254.492 391.458 254.576 391.818 254.576ZM396.011 255.5V249.8H397.091V255.5H396.011ZM399.863 255.5V252.056C399.863 251.632 399.731 251.3 399.467 251.06C399.211 250.812 398.887 250.688 398.495 250.688C398.231 250.688 397.995 250.744 397.787 250.856C397.579 250.968 397.411 251.124 397.283 251.324C397.155 251.524 397.091 251.764 397.091 252.044L396.647 251.828C396.647 251.396 396.739 251.02 396.923 250.7C397.115 250.38 397.375 250.132 397.703 249.956C398.031 249.772 398.399 249.68 398.807 249.68C399.207 249.68 399.567 249.768 399.887 249.944C400.215 250.12 400.471 250.368 400.655 250.688C400.847 251.008 400.943 251.388 400.943 251.828V255.5H399.863ZM403.715 255.5V252.056C403.715 251.632 403.583 251.3 403.319 251.06C403.063 250.812 402.743 250.688 402.359 250.688C402.095 250.688 401.855 250.744 401.639 250.856C401.431 250.968 401.263 251.124 401.135 251.324C401.007 251.524 400.943 251.764 400.943 252.044L400.331 251.828C400.355 251.388 400.471 251.012 400.679 250.7C400.895 250.38 401.171 250.132 401.507 249.956C401.843 249.772 402.211 249.68 402.611 249.68C403.027 249.68 403.399 249.768 403.727 249.944C404.055 250.12 404.315 250.368 404.507 250.688C404.707 251.008 404.807 251.392 404.807 251.84V255.5H403.715ZM408.916 255.62C408.348 255.62 407.836 255.492 407.38 255.236C406.924 254.972 406.564 254.616 406.3 254.168C406.036 253.72 405.904 253.212 405.904 252.644C405.904 252.084 406.032 251.58 406.288 251.132C406.552 250.684 406.904 250.332 407.344 250.076C407.792 249.812 408.292 249.68 408.844 249.68C409.372 249.68 409.836 249.8 410.236 250.04C410.644 250.28 410.96 250.612 411.184 251.036C411.416 251.46 411.532 251.94 411.532 252.476C411.532 252.556 411.528 252.644 411.52 252.74C411.512 252.828 411.496 252.932 411.472 253.052H406.66V252.152H410.896L410.5 252.5C410.5 252.116 410.432 251.792 410.296 251.528C410.16 251.256 409.968 251.048 409.72 250.904C409.472 250.752 409.172 250.676 408.82 250.676C408.452 250.676 408.128 250.756 407.848 250.916C407.568 251.076 407.352 251.3 407.2 251.588C407.048 251.876 406.972 252.216 406.972 252.608C406.972 253.008 407.052 253.36 407.212 253.664C407.372 253.96 407.6 254.192 407.896 254.36C408.192 254.52 408.532 254.6 408.916 254.6C409.236 254.6 409.528 254.544 409.792 254.432C410.064 254.32 410.296 254.152 410.488 253.928L411.184 254.636C410.912 254.956 410.576 255.2 410.176 255.368C409.784 255.536 409.364 255.62 408.916 255.62Z" fill="#29A653"/>
<rect x="52" y="288" width="389" height="52" rx="4" fill="#F2F2F3"/>
<path d="M80.25 307.925L79.075 306.75L69.4167 316.408V310.917H67.75V319.25H76.0833V317.583H70.5917L80.25 307.925Z" fill="#D90404"/>
<path d="M95.312 319V307.896H96.816V319H95.312ZM104.557 319V314.568C104.557 313.992 104.376 313.517 104.013 313.144C103.65 312.771 103.181 312.584 102.605 312.584C102.221 312.584 101.88 312.669 101.581 312.84C101.282 313.011 101.048 313.245 100.877 313.544C100.706 313.843 100.621 314.184 100.621 314.568L100.029 314.232C100.029 313.656 100.157 313.144 100.413 312.696C100.669 312.248 101.026 311.896 101.485 311.64C101.944 311.373 102.461 311.24 103.037 311.24C103.613 311.24 104.12 311.384 104.557 311.672C105.005 311.96 105.357 312.339 105.613 312.808C105.869 313.267 105.997 313.757 105.997 314.28V319H104.557ZM99.181 319V311.4H100.621V319H99.181ZM110.555 319L107.067 311.4H108.667L111.467 317.816H110.539L113.355 311.4H114.891L111.403 319H110.555ZM119.294 319.16C118.547 319.16 117.875 318.984 117.278 318.632C116.68 318.28 116.206 317.805 115.854 317.208C115.502 316.6 115.326 315.923 115.326 315.176C115.326 314.44 115.502 313.779 115.854 313.192C116.206 312.595 116.68 312.12 117.278 311.768C117.875 311.416 118.547 311.24 119.294 311.24C120.03 311.24 120.696 311.416 121.294 311.768C121.902 312.109 122.382 312.579 122.734 313.176C123.086 313.773 123.262 314.44 123.262 315.176C123.262 315.923 123.086 316.6 122.734 317.208C122.382 317.805 121.902 318.28 121.294 318.632C120.696 318.984 120.03 319.16 119.294 319.16ZM119.294 317.768C119.774 317.768 120.2 317.656 120.574 317.432C120.947 317.208 121.24 316.904 121.454 316.52C121.667 316.125 121.774 315.677 121.774 315.176C121.774 314.685 121.662 314.248 121.438 313.864C121.224 313.48 120.931 313.181 120.558 312.968C120.195 312.744 119.774 312.632 119.294 312.632C118.814 312.632 118.387 312.744 118.014 312.968C117.64 313.181 117.347 313.48 117.134 313.864C116.92 314.248 116.814 314.685 116.814 315.176C116.814 315.677 116.92 316.125 117.134 316.52C117.347 316.904 117.64 317.208 118.014 317.432C118.387 317.656 118.814 317.768 119.294 317.768ZM124.9 319V311.4H126.34V319H124.9ZM125.62 309.88C125.353 309.88 125.135 309.795 124.964 309.624C124.793 309.443 124.708 309.219 124.708 308.952C124.708 308.696 124.793 308.483 124.964 308.312C125.135 308.131 125.353 308.04 125.62 308.04C125.887 308.04 126.105 308.131 126.276 308.312C126.447 308.483 126.532 308.696 126.532 308.952C126.532 309.219 126.447 309.443 126.276 309.624C126.105 309.795 125.887 309.88 125.62 309.88ZM131.934 319.16C131.188 319.16 130.51 318.984 129.902 318.632C129.305 318.28 128.83 317.805 128.478 317.208C128.137 316.6 127.966 315.928 127.966 315.192C127.966 314.445 128.137 313.773 128.478 313.176C128.83 312.579 129.305 312.109 129.902 311.768C130.51 311.416 131.188 311.24 131.934 311.24C132.521 311.24 133.065 311.352 133.566 311.576C134.068 311.789 134.5 312.104 134.862 312.52L133.902 313.48C133.668 313.203 133.38 312.995 133.038 312.856C132.708 312.707 132.34 312.632 131.934 312.632C131.454 312.632 131.028 312.744 130.654 312.968C130.281 313.181 129.988 313.48 129.774 313.864C129.561 314.248 129.454 314.691 129.454 315.192C129.454 315.693 129.561 316.136 129.774 316.52C129.988 316.904 130.281 317.208 130.654 317.432C131.028 317.656 131.454 317.768 131.934 317.768C132.34 317.768 132.708 317.699 133.038 317.56C133.38 317.411 133.673 317.197 133.918 316.92L134.862 317.88C134.51 318.285 134.078 318.6 133.566 318.824C133.065 319.048 132.521 319.16 131.934 319.16ZM139.654 319.16C138.897 319.16 138.214 318.989 137.606 318.648C136.998 318.296 136.518 317.821 136.166 317.224C135.814 316.627 135.638 315.949 135.638 315.192C135.638 314.445 135.809 313.773 136.15 313.176C136.502 312.579 136.971 312.109 137.558 311.768C138.155 311.416 138.822 311.24 139.558 311.24C140.262 311.24 140.881 311.4 141.414 311.72C141.958 312.04 142.379 312.483 142.678 313.048C142.987 313.613 143.142 314.253 143.142 314.968C143.142 315.075 143.137 315.192 143.126 315.32C143.115 315.437 143.094 315.576 143.062 315.736H136.646V314.536H142.294L141.766 315C141.766 314.488 141.675 314.056 141.494 313.704C141.313 313.341 141.057 313.064 140.726 312.872C140.395 312.669 139.995 312.568 139.526 312.568C139.035 312.568 138.603 312.675 138.23 312.888C137.857 313.101 137.569 313.4 137.366 313.784C137.163 314.168 137.062 314.621 137.062 315.144C137.062 315.677 137.169 316.147 137.382 316.552C137.595 316.947 137.899 317.256 138.294 317.48C138.689 317.693 139.142 317.8 139.654 317.8C140.081 317.8 140.47 317.725 140.822 317.576C141.185 317.427 141.494 317.203 141.75 316.904L142.678 317.848C142.315 318.275 141.867 318.6 141.334 318.824C140.811 319.048 140.251 319.16 139.654 319.16ZM152.296 319L153.992 307.896H155.224L153.528 319H152.296ZM147.752 315.576V314.408H155.944V315.576H147.752ZM148.872 319L150.568 307.896H151.8L150.104 319H148.872ZM148.248 312.264V311.096H156.44V312.264H148.248ZM157.747 318.088L161.843 313.768C162.259 313.341 162.584 312.973 162.819 312.664C163.053 312.344 163.219 312.051 163.315 311.784C163.421 311.517 163.475 311.24 163.475 310.952C163.475 310.387 163.293 309.944 162.931 309.624C162.568 309.304 162.099 309.144 161.523 309.144C160.957 309.144 160.461 309.283 160.035 309.56C159.608 309.827 159.229 310.243 158.899 310.808L157.843 309.928C158.28 309.203 158.808 308.659 159.427 308.296C160.045 307.923 160.76 307.736 161.571 307.736C162.253 307.736 162.845 307.869 163.347 308.136C163.859 308.403 164.253 308.776 164.531 309.256C164.808 309.736 164.947 310.296 164.947 310.936C164.947 311.395 164.888 311.805 164.771 312.168C164.664 312.531 164.467 312.904 164.179 313.288C163.901 313.661 163.512 314.109 163.011 314.632L159.699 318.04L157.747 318.088ZM157.747 319V318.088L159.027 317.656H165.203V319H157.747ZM167.693 319L171.853 308.776L173.341 308.824L169.277 319H167.693ZM165.949 309.24V307.896H173.341V308.824L172.685 309.24H165.949ZM174.231 318.088L178.327 313.768C178.743 313.341 179.068 312.973 179.303 312.664C179.538 312.344 179.703 312.051 179.799 311.784C179.906 311.517 179.959 311.24 179.959 310.952C179.959 310.387 179.778 309.944 179.415 309.624C179.052 309.304 178.583 309.144 178.007 309.144C177.442 309.144 176.946 309.283 176.519 309.56C176.092 309.827 175.714 310.243 175.383 310.808L174.327 309.928C174.764 309.203 175.292 308.659 175.911 308.296C176.53 307.923 177.244 307.736 178.055 307.736C178.738 307.736 179.33 307.869 179.831 308.136C180.343 308.403 180.738 308.776 181.015 309.256C181.292 309.736 181.431 310.296 181.431 310.936C181.431 311.395 181.372 311.805 181.255 312.168C181.148 312.531 180.951 312.904 180.663 313.288C180.386 313.661 179.996 314.109 179.495 314.632L176.183 318.04L174.231 318.088ZM174.231 319V318.088L175.511 317.656H181.687V319H174.231ZM186.327 319.16C185.57 319.16 184.893 319.027 184.295 318.76C183.709 318.483 183.213 318.083 182.807 317.56L183.831 316.536C184.077 316.909 184.413 317.208 184.839 317.432C185.277 317.645 185.762 317.752 186.295 317.752C186.797 317.752 187.234 317.656 187.607 317.464C187.991 317.272 188.29 317.005 188.503 316.664C188.727 316.312 188.839 315.896 188.839 315.416C188.839 314.925 188.733 314.509 188.519 314.168C188.306 313.827 188.018 313.571 187.655 313.4C187.303 313.219 186.914 313.128 186.487 313.128C186.05 313.128 185.65 313.181 185.287 313.288C184.935 313.395 184.599 313.576 184.279 313.832L184.295 312.872C184.477 312.648 184.685 312.467 184.919 312.328C185.154 312.189 185.421 312.083 185.719 312.008C186.018 311.933 186.365 311.896 186.759 311.896C187.527 311.896 188.178 312.056 188.711 312.376C189.245 312.696 189.65 313.128 189.927 313.672C190.215 314.216 190.359 314.824 190.359 315.496C190.359 316.2 190.183 316.829 189.831 317.384C189.49 317.939 189.015 318.376 188.407 318.696C187.799 319.005 187.106 319.16 186.327 319.16ZM184.279 313.832L183.463 313.016L183.959 307.896H185.335L184.775 313.16L184.279 313.832ZM184.263 309.24L183.959 307.896H189.799V309.24H184.263Z" fill="#3F4346"/>
<path d="M280.216 317.5L277.948 313.54V313.012H278.212C278.636 313.012 278.992 312.972 279.28 312.892C279.576 312.812 279.808 312.68 279.976 312.496C280.144 312.312 280.244 312.06 280.276 311.74H277.948V310.972H280.264C280.208 310.676 280.096 310.436 279.928 310.252C279.76 310.06 279.532 309.92 279.244 309.832C278.964 309.744 278.62 309.7 278.212 309.7H277.948V308.932H282.916V309.7H280.648C280.832 309.852 280.984 310.032 281.104 310.24C281.224 310.448 281.3 310.692 281.332 310.972H282.916V311.74H281.356C281.3 312.324 281.076 312.78 280.684 313.108C280.3 313.428 279.788 313.632 279.148 313.72L281.44 317.5H280.216ZM284.263 316.816L287.335 313.576C287.647 313.256 287.891 312.98 288.067 312.748C288.243 312.508 288.367 312.288 288.439 312.088C288.519 311.888 288.559 311.68 288.559 311.464C288.559 311.04 288.423 310.708 288.151 310.468C287.879 310.228 287.527 310.108 287.095 310.108C286.671 310.108 286.299 310.212 285.979 310.42C285.659 310.62 285.375 310.932 285.127 311.356L284.335 310.696C284.663 310.152 285.059 309.744 285.523 309.472C285.987 309.192 286.523 309.052 287.131 309.052C287.643 309.052 288.087 309.152 288.463 309.352C288.847 309.552 289.143 309.832 289.351 310.192C289.559 310.552 289.663 310.972 289.663 311.452C289.663 311.796 289.619 312.104 289.531 312.376C289.451 312.648 289.303 312.928 289.087 313.216C288.879 313.496 288.587 313.832 288.211 314.224L285.727 316.78L284.263 316.816ZM284.263 317.5V316.816L285.223 316.492H289.855V317.5H284.263ZM293.323 317.62C292.779 317.62 292.283 317.52 291.835 317.32C291.395 317.112 291.023 316.812 290.719 316.42L291.487 315.652C291.671 315.932 291.923 316.156 292.243 316.324C292.563 316.484 292.919 316.564 293.311 316.564C293.679 316.564 293.995 316.496 294.259 316.36C294.531 316.216 294.743 316.016 294.895 315.76C295.055 315.504 295.135 315.208 295.135 314.872C295.135 314.528 295.055 314.232 294.895 313.984C294.743 313.728 294.527 313.532 294.247 313.396C293.967 313.26 293.635 313.192 293.251 313.192C293.107 313.192 292.963 313.204 292.819 313.228C292.675 313.244 292.535 313.272 292.399 313.312L292.879 312.664C293.031 312.592 293.195 312.536 293.371 312.496C293.547 312.456 293.723 312.436 293.899 312.436C294.347 312.436 294.747 312.54 295.099 312.748C295.459 312.956 295.743 313.248 295.951 313.624C296.167 314 296.275 314.436 296.275 314.932C296.275 315.46 296.147 315.928 295.891 316.336C295.643 316.736 295.299 317.052 294.859 317.284C294.419 317.508 293.907 317.62 293.323 317.62ZM292.399 313.312V312.628L294.835 309.856L296.179 309.844L293.671 312.688L292.399 313.312ZM291.115 310.18V309.172H296.179V309.844L295.195 310.18H291.115ZM297.329 318.82L298.073 317.392L298.457 317.296C298.417 317.384 298.365 317.456 298.301 317.512C298.245 317.568 298.173 317.596 298.085 317.596C297.917 317.596 297.761 317.528 297.617 317.392C297.481 317.248 297.413 317.072 297.413 316.864C297.413 316.632 297.489 316.44 297.641 316.288C297.793 316.128 297.985 316.048 298.217 316.048C298.425 316.048 298.609 316.128 298.769 316.288C298.929 316.44 299.009 316.632 299.009 316.864C299.009 316.952 298.989 317.06 298.949 317.188C298.917 317.308 298.849 317.464 298.745 317.656L297.953 319.156L297.329 318.82ZM300.912 317.5L303.42 314.08L303.828 313.864C303.732 314.024 303.616 314.164 303.48 314.284C303.344 314.404 303.176 314.496 302.976 314.56C302.784 314.624 302.548 314.656 302.268 314.656C301.788 314.656 301.344 314.54 300.936 314.308C300.536 314.076 300.216 313.756 299.976 313.348C299.736 312.932 299.616 312.464 299.616 311.944C299.616 311.408 299.748 310.924 300.012 310.492C300.276 310.052 300.628 309.704 301.068 309.448C301.508 309.184 301.996 309.052 302.532 309.052C303.076 309.052 303.568 309.18 304.008 309.436C304.448 309.692 304.796 310.036 305.052 310.468C305.308 310.892 305.436 311.372 305.436 311.908C305.436 312.644 305.18 313.376 304.668 314.104L302.22 317.5H300.912ZM302.532 313.768C302.868 313.768 303.168 313.688 303.432 313.528C303.704 313.36 303.916 313.14 304.068 312.868C304.228 312.588 304.308 312.28 304.308 311.944C304.308 311.592 304.228 311.28 304.068 311.008C303.916 310.728 303.704 310.508 303.432 310.348C303.168 310.188 302.868 310.108 302.532 310.108C302.196 310.108 301.892 310.188 301.62 310.348C301.356 310.508 301.144 310.728 300.984 311.008C300.824 311.28 300.744 311.592 300.744 311.944C300.744 312.288 300.824 312.596 300.984 312.868C301.144 313.14 301.36 313.36 301.632 313.528C301.904 313.688 302.204 313.768 302.532 313.768ZM307.203 317.5L310.323 309.832L311.439 309.868L308.391 317.5H307.203ZM305.895 310.18V309.172H311.439V309.868L310.947 310.18H305.895ZM312.107 316.816L315.179 313.576C315.491 313.256 315.735 312.98 315.911 312.748C316.087 312.508 316.211 312.288 316.283 312.088C316.363 311.888 316.403 311.68 316.403 311.464C316.403 311.04 316.267 310.708 315.995 310.468C315.723 310.228 315.371 310.108 314.939 310.108C314.515 310.108 314.143 310.212 313.823 310.42C313.503 310.62 313.219 310.932 312.971 311.356L312.179 310.696C312.507 310.152 312.903 309.744 313.367 309.472C313.831 309.192 314.367 309.052 314.975 309.052C315.487 309.052 315.931 309.152 316.307 309.352C316.691 309.552 316.987 309.832 317.195 310.192C317.403 310.552 317.507 310.972 317.507 311.452C317.507 311.796 317.463 312.104 317.375 312.376C317.295 312.648 317.147 312.928 316.931 313.216C316.723 313.496 316.431 313.832 316.055 314.224L313.571 316.78L312.107 316.816ZM312.107 317.5V316.816L313.067 316.492H317.699V317.5H312.107Z" fill="#3F4346"/>
<rect x="329" y="298" width="100" height="30" rx="4" fill="#FFC8C8"/>
<path d="M361.25 307.925L360.075 306.75L350.417 316.408V310.917H348.75V319.25H357.083V317.583H351.592L361.25 307.925Z" fill="#D90404"/>
<path d="M374.74 314.26V313.276H377.008C377.32 313.276 377.596 313.212 377.836 313.084C378.084 312.956 378.276 312.776 378.412 312.544C378.556 312.312 378.628 312.036 378.628 311.716C378.628 311.396 378.556 311.12 378.412 310.888C378.276 310.656 378.084 310.476 377.836 310.348C377.596 310.22 377.32 310.156 377.008 310.156H374.74V309.172H377.08C377.592 309.172 378.048 309.276 378.448 309.484C378.856 309.692 379.176 309.988 379.408 310.372C379.648 310.748 379.768 311.196 379.768 311.716C379.768 312.228 379.648 312.676 379.408 313.06C379.176 313.436 378.856 313.732 378.448 313.948C378.048 314.156 377.592 314.26 377.08 314.26H374.74ZM373.984 317.5V309.172H375.112V317.5H373.984ZM383.165 317.62C382.645 317.62 382.173 317.492 381.749 317.236C381.325 316.972 380.989 316.616 380.741 316.168C380.501 315.72 380.381 315.216 380.381 314.656C380.381 314.096 380.501 313.592 380.741 313.144C380.989 312.696 381.321 312.34 381.737 312.076C382.161 311.812 382.637 311.68 383.165 311.68C383.597 311.68 383.981 311.772 384.317 311.956C384.661 312.132 384.937 312.38 385.145 312.7C385.353 313.012 385.469 313.376 385.493 313.792V315.508C385.469 315.916 385.353 316.28 385.145 316.6C384.945 316.92 384.673 317.172 384.329 317.356C383.993 317.532 383.605 317.62 383.165 317.62ZM383.345 316.6C383.881 316.6 384.313 316.42 384.641 316.06C384.969 315.692 385.133 315.224 385.133 314.656C385.133 314.264 385.057 313.924 384.905 313.636C384.761 313.34 384.553 313.112 384.281 312.952C384.009 312.784 383.693 312.7 383.333 312.7C382.973 312.7 382.653 312.784 382.373 312.952C382.101 313.12 381.885 313.352 381.725 313.648C381.573 313.936 381.497 314.268 381.497 314.644C381.497 315.028 381.573 315.368 381.725 315.664C381.885 315.952 382.105 316.18 382.385 316.348C382.665 316.516 382.985 316.6 383.345 316.6ZM385.061 317.5V315.964L385.265 314.572L385.061 313.192V311.8H386.153V317.5H385.061ZM389.598 317.548L387.126 311.8H388.326L390.162 316.3H389.778L391.71 311.8H392.91L390.246 317.548H389.598ZM387.966 319.888L389.646 316.444L390.246 317.548L389.166 319.888H387.966ZM393.749 317.5V311.8H394.829V317.5H393.749ZM394.829 314.248L394.421 314.068C394.421 313.34 394.589 312.76 394.925 312.328C395.261 311.896 395.745 311.68 396.377 311.68C396.665 311.68 396.925 311.732 397.157 311.836C397.389 311.932 397.605 312.096 397.805 312.328L397.097 313.06C396.977 312.932 396.845 312.84 396.701 312.784C396.557 312.728 396.389 312.7 396.197 312.7C395.797 312.7 395.469 312.828 395.213 313.084C394.957 313.34 394.829 313.728 394.829 314.248ZM400.982 317.62C400.422 317.62 399.918 317.488 399.47 317.224C399.022 316.96 398.666 316.604 398.402 316.156C398.138 315.7 398.006 315.192 398.006 314.632C398.006 314.08 398.138 313.584 398.402 313.144C398.666 312.696 399.022 312.34 399.47 312.076C399.918 311.812 400.422 311.68 400.982 311.68C401.534 311.68 402.034 311.812 402.482 312.076C402.938 312.332 403.298 312.684 403.562 313.132C403.826 313.58 403.958 314.08 403.958 314.632C403.958 315.192 403.826 315.7 403.562 316.156C403.298 316.604 402.938 316.96 402.482 317.224C402.034 317.488 401.534 317.62 400.982 317.62ZM400.982 316.576C401.342 316.576 401.662 316.492 401.942 316.324C402.222 316.156 402.442 315.928 402.602 315.64C402.762 315.344 402.842 315.008 402.842 314.632C402.842 314.264 402.758 313.936 402.59 313.648C402.43 313.36 402.21 313.136 401.93 312.976C401.658 312.808 401.342 312.724 400.982 312.724C400.622 312.724 400.302 312.808 400.022 312.976C399.742 313.136 399.522 313.36 399.362 313.648C399.202 313.936 399.122 314.264 399.122 314.632C399.122 315.008 399.202 315.344 399.362 315.64C399.522 315.928 399.742 316.156 400.022 316.324C400.302 316.492 400.622 316.576 400.982 316.576ZM405.175 317.5V308.932H406.255V317.5H405.175ZM407.835 317.5V308.932H408.915V317.5H407.835Z" fill="#D90404"/>
</svg>
