<svg width="500" height="500" viewBox="0 0 500 500" fill="none" xmlns="http://www.w3.org/2000/svg">
<rect width="500" height="500" rx="8" fill="#E9ECFF"/>
<g filter="url(#filter0_d_841_1488)">
<rect x="34.3703" y="258.923" width="207.967" height="185.066" rx="23.836" fill="white" stroke="#EFF0F6" stroke-width="1.22236"/>
<rect x="257.074" y="258.923" width="207.967" height="185.066" rx="23.836" fill="white" stroke="#EFF0F6" stroke-width="1.22236"/>
<path d="M64.5598 358.51C62.9555 358.51 61.5282 358.25 60.2781 357.729C59.0349 357.201 58.0591 356.482 57.3507 355.572C56.6422 354.663 56.288 353.631 56.288 352.478C56.288 351.589 56.4895 350.773 56.8923 350.03C57.302 349.28 57.8577 348.659 58.5591 348.165C59.2606 347.665 60.0454 347.346 60.9136 347.207V347.061C59.7745 346.832 58.8508 346.28 58.1424 345.405C57.434 344.523 57.0798 343.498 57.0798 342.331C57.0798 341.227 57.4028 340.244 58.0487 339.383C58.6946 338.515 59.5801 337.834 60.7052 337.341C61.8373 336.841 63.1222 336.591 64.5598 336.591C65.9975 336.591 67.2789 336.841 68.404 337.341C69.5361 337.841 70.4251 338.525 71.071 339.394C71.7169 340.255 72.0433 341.234 72.0502 342.331C72.0433 343.505 71.6821 344.53 70.9668 345.405C70.2514 346.28 69.3347 346.832 68.2165 347.061V347.207C69.0707 347.346 69.8451 347.665 70.5397 348.165C71.2411 348.659 71.7967 349.28 72.2065 350.03C72.6232 350.773 72.8351 351.589 72.842 352.478C72.8351 353.631 72.4774 354.663 71.769 355.572C71.0606 356.482 70.0813 357.201 68.8311 357.729C67.5879 358.25 66.1642 358.51 64.5598 358.51ZM64.5598 355.197C65.2752 355.197 65.9002 355.069 66.435 354.812C66.9698 354.548 67.3865 354.187 67.6852 353.729C67.9908 353.263 68.1436 352.728 68.1436 352.124C68.1436 351.506 67.9873 350.961 67.6748 350.489C67.3622 350.009 66.9386 349.634 66.4038 349.363C65.869 349.086 65.2543 348.947 64.5598 348.947C63.8722 348.947 63.2576 349.086 62.7159 349.363C62.1741 349.634 61.747 350.009 61.4345 350.489C61.1289 350.961 60.9761 351.506 60.9761 352.124C60.9761 352.728 61.1254 353.263 61.424 353.729C61.7227 354.187 62.1429 354.548 62.6846 354.812C63.2263 355.069 63.8514 355.197 64.5598 355.197ZM64.5598 345.665C65.1571 345.665 65.6884 345.544 66.1537 345.3C66.6191 345.057 66.9837 344.721 67.2476 344.29C67.5115 343.859 67.6435 343.363 67.6435 342.8C67.6435 342.245 67.5115 341.758 67.2476 341.342C66.9837 340.918 66.6225 340.588 66.1642 340.352C65.7058 340.109 65.171 339.987 64.5598 339.987C63.9556 339.987 63.4208 340.109 62.9555 340.352C62.4901 340.588 62.1255 340.918 61.8616 341.342C61.6046 341.758 61.4761 342.245 61.4761 342.8C61.4761 343.363 61.6081 343.859 61.872 344.29C62.1359 344.721 62.5006 345.057 62.9659 345.3C63.4312 345.544 63.9625 345.665 64.5598 345.665ZM84.1844 358.51C83.0871 358.503 82.0279 358.319 81.007 357.958C79.993 357.597 79.0832 357.01 78.2775 356.198C77.4719 355.385 76.8329 354.308 76.3606 352.968C75.8953 351.628 75.6626 349.982 75.6626 348.03C75.6696 346.238 75.8745 344.637 76.2773 343.227C76.6871 341.811 77.2705 340.609 78.0275 339.623C78.7915 338.637 79.7048 337.886 80.7674 337.373C81.83 336.852 83.0211 336.591 84.3407 336.591C85.7645 336.591 87.0216 336.869 88.112 337.425C89.2024 337.973 90.0775 338.72 90.7373 339.664C91.404 340.609 91.8068 341.668 91.9457 342.842H87.4973C87.3237 342.099 86.9591 341.515 86.4034 341.092C85.8478 340.668 85.1602 340.456 84.3407 340.456C82.9517 340.456 81.896 341.06 81.1737 342.269C80.4583 343.477 80.0937 345.12 80.0798 347.197H80.2257C80.5451 346.565 80.9757 346.026 81.5175 345.582C82.0661 345.13 82.6877 344.787 83.3823 344.55C84.0837 344.307 84.8234 344.186 85.6013 344.186C86.8653 344.186 87.9904 344.484 88.9766 345.082C89.9629 345.672 90.7407 346.485 91.3102 347.519C91.8798 348.554 92.1645 349.738 92.1645 351.072C92.1645 352.517 91.8277 353.801 91.154 354.927C90.4872 356.052 89.5531 356.934 88.3516 357.573C87.157 358.205 85.7679 358.517 84.1844 358.51ZM84.1636 354.968C84.8581 354.968 85.4797 354.802 86.0284 354.468C86.5771 354.135 87.0077 353.683 87.3202 353.114C87.6327 352.544 87.789 351.905 87.789 351.197C87.789 350.489 87.6327 349.853 87.3202 349.291C87.0146 348.728 86.591 348.28 86.0492 347.947C85.5075 347.613 84.8894 347.447 84.1949 347.447C83.674 347.447 83.1913 347.544 82.7468 347.738C82.3092 347.933 81.9238 348.204 81.5904 348.551C81.264 348.898 81.007 349.301 80.8195 349.759C80.6319 350.211 80.5382 350.693 80.5382 351.207C80.5382 351.895 80.6945 352.524 81.007 353.093C81.3265 353.663 81.7571 354.117 82.2988 354.458C82.8475 354.798 83.4691 354.968 84.1636 354.968ZM107.041 354.218V353.093C107.041 352.239 107.222 351.454 107.583 350.739C107.951 350.016 108.482 349.44 109.177 349.009C109.878 348.572 110.733 348.353 111.74 348.353C112.761 348.353 113.618 348.568 114.313 348.999C115.014 349.429 115.542 350.006 115.896 350.728C116.258 351.444 116.438 352.232 116.438 353.093V354.218C116.438 355.072 116.258 355.861 115.896 356.583C115.535 357.298 115.004 357.871 114.302 358.302C113.601 358.74 112.747 358.958 111.74 358.958C110.719 358.958 109.861 358.74 109.166 358.302C108.472 357.871 107.944 357.298 107.583 356.583C107.222 355.861 107.041 355.072 107.041 354.218ZM110.073 353.093V354.218C110.073 354.711 110.191 355.177 110.427 355.614C110.67 356.052 111.108 356.27 111.74 356.27C112.372 356.27 112.802 356.055 113.031 355.625C113.268 355.194 113.386 354.725 113.386 354.218V353.093C113.386 352.586 113.275 352.114 113.052 351.676C112.83 351.239 112.392 351.02 111.74 351.02C111.115 351.02 110.68 351.239 110.437 351.676C110.194 352.114 110.073 352.586 110.073 353.093ZM96.092 342.008V340.883C96.092 340.022 96.2761 339.234 96.6442 338.518C97.0123 337.796 97.5436 337.22 98.2381 336.789C98.9396 336.359 99.7869 336.143 100.78 336.143C101.808 336.143 102.669 336.359 103.364 336.789C104.058 337.22 104.586 337.796 104.947 338.518C105.308 339.234 105.489 340.022 105.489 340.883V342.008C105.489 342.87 105.305 343.658 104.937 344.373C104.576 345.089 104.044 345.662 103.343 346.092C102.648 346.516 101.794 346.728 100.78 346.728C99.7661 346.728 98.9083 346.512 98.2069 346.082C97.5123 345.644 96.9845 345.071 96.6233 344.363C96.2691 343.648 96.092 342.863 96.092 342.008ZM99.1445 340.883V342.008C99.1445 342.515 99.2625 342.984 99.4987 343.415C99.7418 343.845 100.169 344.061 100.78 344.061C101.419 344.061 101.853 343.845 102.082 343.415C102.318 342.984 102.437 342.515 102.437 342.008V340.883C102.437 340.376 102.325 339.904 102.103 339.467C101.881 339.029 101.44 338.81 100.78 338.81C100.162 338.81 99.7348 339.032 99.4987 339.477C99.2625 339.921 99.1445 340.39 99.1445 340.883ZM97.4672 358.219L112.136 336.883H114.865L100.197 358.219H97.4672Z" fill="black"/>
<path d="M62.5004 305.205C61.5991 305.205 60.7662 305.046 60.0019 304.726C59.2489 304.395 58.5872 303.933 58.0167 303.34C57.4577 302.747 57.0242 302.051 56.7162 301.252C56.4081 300.454 56.2541 299.581 56.2541 298.634C56.2541 297.676 56.4081 296.797 56.7162 295.999C57.0242 295.2 57.4577 294.504 58.0167 293.911C58.5758 293.317 59.2375 292.861 60.0019 292.542C60.7662 292.211 61.5991 292.045 62.5004 292.045C63.3788 292.045 64.166 292.199 64.862 292.507C65.5693 292.816 66.1626 293.215 66.6417 293.705C67.1323 294.196 67.4803 294.721 67.6856 295.28L66.1454 295.981C65.8488 295.274 65.3868 294.704 64.7593 294.27C64.1318 293.825 63.3788 293.603 62.5004 293.603C61.6105 293.603 60.8176 293.814 60.1217 294.236C59.4371 294.658 58.9009 295.246 58.513 295.999C58.1251 296.752 57.9312 297.63 57.9312 298.634C57.9312 299.627 58.1251 300.499 58.513 301.252C58.9009 302.005 59.4371 302.593 60.1217 303.015C60.8176 303.437 61.6105 303.648 62.5004 303.648C63.3788 303.648 64.1318 303.431 64.7593 302.998C65.3868 302.553 65.8488 301.977 66.1454 301.269L67.6856 301.971C67.4803 302.53 67.1323 303.055 66.6417 303.545C66.1626 304.036 65.5693 304.435 64.862 304.743C64.166 305.051 63.3788 305.205 62.5004 305.205ZM69.5902 305V295.776H71.1475V297.47L70.9764 297.231C71.1932 296.706 71.524 296.318 71.969 296.067C72.4139 295.805 72.9558 295.673 73.5947 295.673H74.1594V297.179H73.3551C72.7048 297.179 72.18 297.385 71.7807 297.795C71.3814 298.195 71.1818 298.765 71.1818 299.507V305H69.5902ZM79.6289 305.205C78.739 305.205 77.9461 304.994 77.2502 304.572C76.5543 304.15 76.0067 303.574 75.6074 302.844C75.2081 302.102 75.0084 301.275 75.0084 300.362C75.0084 299.438 75.2023 298.617 75.5902 297.898C75.9895 297.179 76.5258 296.615 77.1989 296.204C77.8834 295.782 78.6478 295.571 79.492 295.571C80.1765 295.571 80.7812 295.696 81.306 295.947C81.8422 296.187 82.2929 296.518 82.6579 296.94C83.0344 297.35 83.3196 297.824 83.5136 298.36C83.7189 298.885 83.8216 299.433 83.8216 300.003C83.8216 300.128 83.8102 300.271 83.7874 300.431C83.776 300.579 83.7589 300.722 83.7361 300.859H76.1721V299.49H82.812L82.059 300.106C82.1617 299.512 82.1046 298.982 81.8878 298.514C81.6711 298.046 81.3516 297.676 80.9295 297.402C80.5074 297.128 80.0282 296.991 79.492 296.991C78.9558 296.991 78.4652 297.128 78.0203 297.402C77.5754 297.676 77.2274 298.069 76.9764 298.583C76.7368 299.085 76.6398 299.684 76.6855 300.379C76.6398 301.053 76.7425 301.646 76.9935 302.159C77.2559 302.661 77.621 303.055 78.0887 303.34C78.5679 303.614 79.087 303.751 79.646 303.751C80.2621 303.751 80.7812 303.608 81.2033 303.323C81.6254 303.038 81.9677 302.673 82.2301 302.228L83.5649 302.912C83.3824 303.334 83.0972 303.722 82.7093 304.076C82.3328 304.418 81.8821 304.692 81.3573 304.897C80.844 305.103 80.2678 305.205 79.6289 305.205ZM89.9012 305.205C89.0341 305.205 88.2526 304.994 87.5567 304.572C86.8722 304.15 86.3302 303.574 85.9309 302.844C85.5316 302.114 85.332 301.298 85.332 300.397C85.332 299.472 85.5316 298.651 85.9309 297.932C86.3302 297.202 86.8722 296.626 87.5567 296.204C88.2526 295.782 89.0341 295.571 89.9012 295.571C90.6655 295.571 91.3444 295.736 91.9376 296.067C92.5309 296.386 92.9986 296.82 93.3409 297.368L93.0842 297.761V292.045H94.6928V305H93.1355V303.032L93.3409 303.306C93.0214 303.91 92.5537 304.378 91.9376 304.709C91.333 305.04 90.6541 305.205 89.9012 305.205ZM90.0381 303.665C90.6199 303.665 91.139 303.523 91.5954 303.237C92.0517 302.952 92.4111 302.564 92.6735 302.074C92.9473 301.572 93.0842 301.013 93.0842 300.397C93.0842 299.769 92.9473 299.21 92.6735 298.72C92.4111 298.218 92.0517 297.824 91.5954 297.539C91.139 297.253 90.6199 297.111 90.0381 297.111C89.4676 297.111 88.9485 297.259 88.4808 297.556C88.0244 297.841 87.6651 298.229 87.4027 298.72C87.1403 299.199 87.0091 299.758 87.0091 300.397C87.0091 301.013 87.1403 301.572 87.4027 302.074C87.6651 302.564 88.0244 302.952 88.4808 303.237C88.9371 303.523 89.4562 303.665 90.0381 303.665ZM96.9679 305V295.776H98.5594V305H96.9679ZM96.9679 294.304V292.251H98.5594V294.304H96.9679ZM104.588 305.103C103.687 305.103 102.991 304.846 102.501 304.333C102.021 303.819 101.782 303.095 101.782 302.159V297.299H100.105V295.776H100.447C100.858 295.776 101.183 295.651 101.423 295.4C101.662 295.149 101.782 294.818 101.782 294.407V293.654H103.373V295.776H105.444V297.299H103.373V302.108C103.373 302.416 103.419 302.684 103.51 302.912C103.613 303.14 103.778 303.323 104.007 303.46C104.235 303.585 104.537 303.648 104.914 303.648C104.993 303.648 105.09 303.642 105.205 303.631C105.33 303.62 105.444 303.608 105.547 303.597V305C105.398 305.034 105.233 305.057 105.05 305.068C104.868 305.091 104.714 305.103 104.588 305.103ZM110.74 305.205C109.816 305.205 109.012 304.977 108.327 304.521C107.643 304.064 107.158 303.448 106.873 302.673L108.139 302.057C108.402 302.604 108.761 303.038 109.217 303.357C109.674 303.677 110.181 303.836 110.74 303.836C111.242 303.836 111.659 303.717 111.99 303.477C112.32 303.237 112.486 302.924 112.486 302.536C112.486 302.262 112.406 302.045 112.246 301.885C112.098 301.714 111.915 301.583 111.699 301.492C111.482 301.389 111.282 301.315 111.1 301.269L109.714 300.876C108.881 300.636 108.27 300.294 107.882 299.849C107.506 299.404 107.318 298.885 107.318 298.292C107.318 297.744 107.455 297.271 107.728 296.871C108.014 296.461 108.396 296.141 108.875 295.913C109.366 295.685 109.913 295.571 110.518 295.571C111.328 295.571 112.052 295.776 112.691 296.187C113.341 296.597 113.804 297.174 114.077 297.915L112.777 298.514C112.571 298.035 112.263 297.659 111.853 297.385C111.442 297.099 110.98 296.957 110.467 296.957C109.999 296.957 109.628 297.077 109.354 297.316C109.08 297.544 108.943 297.835 108.943 298.189C108.943 298.451 109.012 298.668 109.149 298.839C109.286 298.999 109.451 299.125 109.645 299.216C109.839 299.296 110.027 299.364 110.21 299.421L111.716 299.866C112.469 300.083 113.051 300.419 113.461 300.876C113.883 301.332 114.094 301.88 114.094 302.519C114.094 303.032 113.952 303.494 113.667 303.905C113.381 304.315 112.988 304.635 112.486 304.863C111.984 305.091 111.402 305.205 110.74 305.205Z" fill="black" fill-opacity="0.7"/>
<path opacity="0.1" fill-rule="evenodd" clip-rule="evenodd" d="M49 404.722C49 404.722 55.6158 403.752 63.1375 406.081C77.4434 410.51 78.2595 402.4 83.5642 398.489C88.4175 394.911 92.4369 397.094 97.8407 401.469C101.826 404.697 107.635 410.114 113.65 409.242C119.148 408.444 123.046 402.091 130.668 400.475C136.708 399.194 141.617 402.713 148.573 401.469C158.009 399.783 162.224 389.854 168.968 389.854C177.291 389.854 183.152 381.456 190.724 381.456C198.251 381.456 199.273 386.394 207.507 389.854C213.802 392.499 216.831 389.854 216.831 389.854V418.196H49V404.722Z" fill="url(#paint0_linear_841_1488)"/>
<path d="M49 400.319C49 400.319 55.6158 399.364 63.1375 401.659C77.4434 406.024 78.2595 398.031 83.5642 394.177C88.4175 390.65 92.4369 392.802 97.8407 397.114C101.826 400.295 107.635 405.633 113.65 404.774C119.148 403.988 123.046 397.727 130.668 396.134C136.708 394.872 141.617 398.339 148.573 397.114C158.009 395.452 162.224 385.666 168.968 385.666C177.291 385.666 183.152 377.37 190.724 377.37C198.251 377.37 198.651 382.257 206.885 385.666C213.18 388.273 216.831 385.666 216.831 385.666" stroke="#1A237E" stroke-width="2.44472" stroke-linecap="round" stroke-linejoin="round"/>
<path d="M294.214 337.007V358.342H289.703V341.288H289.578L284.692 344.351V340.351L289.974 337.007H294.214ZM298.962 354.592V351.039L307.869 337.007H310.932V341.924H309.119L303.504 350.81V350.977H316.161V354.592H298.962ZM309.202 358.342V353.509L309.286 351.935V337.007H313.515V358.342H309.202ZM330.845 354.342V353.217C330.845 352.363 331.026 351.578 331.387 350.862C331.755 350.14 332.287 349.564 332.981 349.133C333.683 348.695 334.537 348.477 335.544 348.477C336.565 348.477 337.423 348.692 338.117 349.123C338.819 349.553 339.346 350.13 339.701 350.852C340.062 351.567 340.242 352.356 340.242 353.217V354.342C340.242 355.196 340.062 355.985 339.701 356.707C339.339 357.422 338.808 357.995 338.107 358.426C337.405 358.863 336.551 359.082 335.544 359.082C334.523 359.082 333.665 358.863 332.971 358.426C332.276 357.995 331.748 357.422 331.387 356.707C331.026 355.985 330.845 355.196 330.845 354.342ZM333.877 353.217V354.342C333.877 354.835 333.995 355.3 334.231 355.738C334.474 356.175 334.912 356.394 335.544 356.394C336.176 356.394 336.607 356.179 336.836 355.748C337.072 355.318 337.19 354.849 337.19 354.342V353.217C337.19 352.71 337.079 352.238 336.857 351.8C336.634 351.362 336.197 351.144 335.544 351.144C334.919 351.144 334.485 351.362 334.242 351.8C333.999 352.238 333.877 352.71 333.877 353.217ZM319.896 342.132V341.007C319.896 340.146 320.08 339.358 320.448 338.642C320.817 337.92 321.348 337.343 322.042 336.913C322.744 336.482 323.591 336.267 324.584 336.267C325.612 336.267 326.473 336.482 327.168 336.913C327.862 337.343 328.39 337.92 328.751 338.642C329.113 339.358 329.293 340.146 329.293 341.007V342.132C329.293 342.993 329.109 343.782 328.741 344.497C328.38 345.212 327.849 345.785 327.147 346.216C326.453 346.64 325.598 346.852 324.584 346.852C323.57 346.852 322.713 346.636 322.011 346.206C321.317 345.768 320.789 345.195 320.428 344.487C320.073 343.771 319.896 342.986 319.896 342.132ZM322.949 341.007V342.132C322.949 342.639 323.067 343.108 323.303 343.539C323.546 343.969 323.973 344.185 324.584 344.185C325.223 344.185 325.657 343.969 325.887 343.539C326.123 343.108 326.241 342.639 326.241 342.132V341.007C326.241 340.5 326.13 340.028 325.907 339.59C325.685 339.153 325.244 338.934 324.584 338.934C323.966 338.934 323.539 339.156 323.303 339.601C323.067 340.045 322.949 340.514 322.949 341.007ZM321.271 358.342L335.94 337.007H338.669L324.001 358.342H321.271Z" fill="black"/>
<path d="M284.978 305V292.251H289.154C290.443 292.251 291.567 292.513 292.525 293.038C293.483 293.563 294.225 294.304 294.75 295.263C295.274 296.21 295.537 297.328 295.537 298.617C295.537 299.895 295.274 301.013 294.75 301.971C294.225 302.929 293.483 303.677 292.525 304.213C291.567 304.738 290.443 305 289.154 305H284.978ZM286.655 303.46H289.171C290.118 303.46 290.933 303.26 291.618 302.861C292.314 302.462 292.85 301.903 293.227 301.184C293.603 300.454 293.791 299.598 293.791 298.617C293.791 297.624 293.597 296.769 293.209 296.05C292.833 295.331 292.297 294.778 291.601 294.39C290.916 293.991 290.106 293.791 289.171 293.791H286.655V303.46ZM301.53 305.205C300.64 305.205 299.847 304.994 299.151 304.572C298.455 304.15 297.908 303.574 297.508 302.844C297.109 302.102 296.91 301.275 296.91 300.362C296.91 299.438 297.103 298.617 297.491 297.898C297.891 297.179 298.427 296.615 299.1 296.204C299.785 295.782 300.549 295.571 301.393 295.571C302.078 295.571 302.682 295.696 303.207 295.947C303.743 296.187 304.194 296.518 304.559 296.94C304.936 297.35 305.221 297.824 305.415 298.36C305.62 298.885 305.723 299.433 305.723 300.003C305.723 300.128 305.711 300.271 305.689 300.431C305.677 300.579 305.66 300.722 305.637 300.859H298.073V299.49H304.713L303.96 300.106C304.063 299.512 304.006 298.982 303.789 298.514C303.572 298.046 303.253 297.676 302.831 297.402C302.409 297.128 301.929 296.991 301.393 296.991C300.857 296.991 300.366 297.128 299.921 297.402C299.476 297.676 299.129 298.069 298.878 298.583C298.638 299.085 298.541 299.684 298.587 300.379C298.541 301.053 298.644 301.646 298.895 302.159C299.157 302.661 299.522 303.055 299.99 303.34C300.469 303.614 300.988 303.751 301.547 303.751C302.163 303.751 302.682 303.608 303.104 303.323C303.527 303.038 303.869 302.673 304.131 302.228L305.466 302.912C305.284 303.334 304.998 303.722 304.61 304.076C304.234 304.418 303.783 304.692 303.258 304.897C302.745 305.103 302.169 305.205 301.53 305.205ZM312.384 305.205C311.643 305.205 310.964 305.04 310.348 304.709C309.743 304.378 309.275 303.91 308.944 303.306L309.167 303.032V305H307.61V292.045H309.201V297.761L308.962 297.368C309.304 296.82 309.772 296.386 310.365 296.067C310.958 295.736 311.637 295.571 312.401 295.571C313.268 295.571 314.044 295.782 314.729 296.204C315.425 296.626 315.972 297.202 316.371 297.932C316.771 298.651 316.97 299.472 316.97 300.397C316.97 301.298 316.771 302.114 316.371 302.844C315.972 303.574 315.425 304.15 314.729 304.572C314.044 304.994 313.263 305.205 312.384 305.205ZM312.264 303.665C312.846 303.665 313.365 303.523 313.822 303.237C314.278 302.952 314.632 302.564 314.883 302.074C315.145 301.572 315.276 301.013 315.276 300.397C315.276 299.758 315.145 299.199 314.883 298.72C314.632 298.229 314.278 297.841 313.822 297.556C313.365 297.259 312.846 297.111 312.264 297.111C311.683 297.111 311.158 297.253 310.69 297.539C310.234 297.824 309.869 298.218 309.595 298.72C309.332 299.21 309.201 299.769 309.201 300.397C309.201 301.013 309.332 301.572 309.595 302.074C309.869 302.564 310.234 302.952 310.69 303.237C311.158 303.523 311.683 303.665 312.264 303.665ZM318.869 305V295.776H320.461V305H318.869ZM318.869 294.304V292.251H320.461V294.304H318.869ZM326.49 305.103C325.588 305.103 324.892 304.846 324.402 304.333C323.923 303.819 323.683 303.095 323.683 302.159V297.299H322.006V295.776H322.348C322.759 295.776 323.084 295.651 323.324 295.4C323.563 295.149 323.683 294.818 323.683 294.407V293.654H325.275V295.776H327.345V297.299H325.275V302.108C325.275 302.416 325.32 302.684 325.411 302.912C325.514 303.14 325.68 303.323 325.908 303.46C326.136 303.585 326.438 303.648 326.815 303.648C326.895 303.648 326.992 303.642 327.106 303.631C327.231 303.62 327.345 303.608 327.448 303.597V305C327.3 305.034 327.134 305.057 326.952 305.068C326.769 305.091 326.615 305.103 326.49 305.103ZM332.641 305.205C331.717 305.205 330.913 304.977 330.229 304.521C329.544 304.064 329.059 303.448 328.774 302.673L330.04 302.057C330.303 302.604 330.662 303.038 331.118 303.357C331.575 303.677 332.082 303.836 332.641 303.836C333.143 303.836 333.56 303.717 333.891 303.477C334.222 303.237 334.387 302.924 334.387 302.536C334.387 302.262 334.307 302.045 334.147 301.885C333.999 301.714 333.817 301.583 333.6 301.492C333.383 301.389 333.183 301.315 333.001 301.269L331.615 300.876C330.782 300.636 330.171 300.294 329.784 299.849C329.407 299.404 329.219 298.885 329.219 298.292C329.219 297.744 329.356 297.271 329.63 296.871C329.915 296.461 330.297 296.141 330.776 295.913C331.267 295.685 331.814 295.571 332.419 295.571C333.229 295.571 333.953 295.776 334.592 296.187C335.243 296.597 335.705 297.174 335.978 297.915L334.678 298.514C334.473 298.035 334.165 297.659 333.754 297.385C333.343 297.099 332.881 296.957 332.368 296.957C331.9 296.957 331.529 297.077 331.255 297.316C330.981 297.544 330.845 297.835 330.845 298.189C330.845 298.451 330.913 298.668 331.05 298.839C331.187 298.999 331.352 299.125 331.546 299.216C331.74 299.296 331.928 299.364 332.111 299.421L333.617 299.866C334.37 300.083 334.952 300.419 335.362 300.876C335.785 301.332 335.996 301.88 335.996 302.519C335.996 303.032 335.853 303.494 335.568 303.905C335.283 304.315 334.889 304.635 334.387 304.863C333.885 305.091 333.303 305.205 332.641 305.205Z" fill="black" fill-opacity="0.7"/>
<path opacity="0.1" fill-rule="evenodd" clip-rule="evenodd" d="M277 403.352C277 403.352 283.616 402.382 291.137 404.711C305.443 409.14 306.259 401.029 311.564 397.118C316.418 393.54 320.437 395.724 325.841 400.099C329.826 403.326 335.635 408.743 341.65 407.871C347.148 407.074 351.046 400.721 358.668 399.105C364.708 397.824 369.617 401.342 376.573 400.099C386.009 398.413 390.224 388.483 396.968 388.483C405.291 388.483 411.152 380.086 418.724 380.086C426.251 380.086 427.273 385.024 435.507 388.483C441.802 391.128 444.831 388.483 444.831 388.483V416.826H277V403.352Z" fill="url(#paint1_linear_841_1488)"/>
<path d="M277 398.949C277 398.949 283.616 397.994 291.137 400.289C305.443 404.654 306.259 396.661 311.564 392.806C316.418 389.28 320.437 391.432 325.841 395.744C329.826 398.924 335.635 404.263 341.65 403.404C347.148 402.618 351.046 396.356 358.668 394.764C364.708 393.502 369.617 396.969 376.573 395.744C386.009 394.082 390.224 384.296 396.968 384.296C405.291 384.296 411.152 376 418.724 376C426.251 376 426.651 380.887 434.885 384.296C441.18 386.903 444.831 384.296 444.831 384.296" stroke="#1A237E" stroke-width="2.44472" stroke-linecap="round" stroke-linejoin="round"/>
<rect x="34.3703" y="56.0111" width="207.967" height="185.066" rx="23.836" fill="white" stroke="#EFF0F6" stroke-width="1.22236"/>
<rect x="257.663" y="56.0111" width="207.967" height="185.066" rx="23.836" fill="white" stroke="#EFF0F6" stroke-width="1.22236"/>
<path d="M67.7935 140.698L67.033 143.594H53.0626L53.8127 140.698H67.7935ZM60.5322 156.742L53.4064 148.262L53.4168 145.657H56.9381C57.7229 145.657 58.3792 145.511 58.907 145.219C59.4349 144.928 59.8307 144.532 60.0947 144.032C60.3586 143.532 60.494 142.962 60.501 142.323C60.494 141.365 60.2127 140.584 59.6571 139.979C59.1084 139.368 58.2021 139.063 56.9381 139.063H53.0626L53.9169 135.406H56.9381C58.7091 135.406 60.185 135.673 61.3656 136.208C62.5533 136.736 63.4423 137.489 64.0326 138.469C64.6299 139.448 64.932 140.615 64.939 141.969C64.932 143.171 64.7306 144.219 64.3347 145.115C63.9458 146.011 63.3311 146.758 62.4908 147.355C61.6573 147.952 60.5704 148.397 59.23 148.689L59.0633 148.751L65.439 156.554V156.742H60.5322ZM67.8143 135.406L67.033 138.344H55.5317L56.313 135.406H67.8143ZM70.575 156.742V153.491L78.1696 146.459C78.8155 145.834 79.3573 145.272 79.7948 144.772C80.2393 144.271 80.5762 143.782 80.8053 143.303C81.0345 142.816 81.1491 142.292 81.1491 141.73C81.1491 141.104 81.0068 140.566 80.722 140.115C80.4373 139.656 80.0483 139.306 79.5552 139.063C79.0621 138.813 78.503 138.688 77.8779 138.688C77.2251 138.688 76.6556 138.819 76.1694 139.083C75.6832 139.347 75.3082 139.726 75.0443 140.219C74.7804 140.712 74.6484 141.299 74.6484 141.98H70.3667C70.3667 140.584 70.6827 139.372 71.3147 138.344C71.9467 137.316 72.8322 136.521 73.9712 135.958C75.1103 135.395 76.4229 135.114 77.9092 135.114C79.4371 135.114 80.7671 135.385 81.8992 135.927C83.0382 136.462 83.9238 137.205 84.5558 138.156C85.1878 139.108 85.5038 140.198 85.5038 141.427C85.5038 142.233 85.3441 143.028 85.0246 143.813C84.712 144.598 84.153 145.47 83.3473 146.428C82.5417 147.379 81.4061 148.522 79.9407 149.855L76.8257 152.908V153.054H85.7851V156.742H70.575ZM89.8975 156.742L98.7423 139.24V139.094H88.439V135.406H103.409V139.146L94.5543 156.742H89.8975ZM106.501 156.742V153.491L114.096 146.459C114.741 145.834 115.283 145.272 115.721 144.772C116.165 144.271 116.502 143.782 116.731 143.303C116.96 142.816 117.075 142.292 117.075 141.73C117.075 141.104 116.933 140.566 116.648 140.115C116.363 139.656 115.974 139.306 115.481 139.063C114.988 138.813 114.429 138.688 113.804 138.688C113.151 138.688 112.582 138.819 112.095 139.083C111.609 139.347 111.234 139.726 110.97 140.219C110.706 140.712 110.574 141.299 110.574 141.98H106.293C106.293 140.584 106.609 139.372 107.241 138.344C107.873 137.316 108.758 136.521 109.897 135.958C111.036 135.395 112.349 135.114 113.835 135.114C115.363 135.114 116.693 135.385 117.825 135.927C118.964 136.462 119.85 137.205 120.482 138.156C121.114 139.108 121.43 140.198 121.43 141.427C121.43 142.233 121.27 143.028 120.951 143.813C120.638 144.598 120.079 145.47 119.273 146.428C118.468 147.379 117.332 148.522 115.867 149.855L112.752 152.908V153.054H121.711V156.742H106.501ZM132.772 157.033C131.3 157.033 129.987 156.762 128.834 156.221C127.688 155.679 126.778 154.932 126.105 153.981C125.431 153.029 125.08 151.939 125.053 150.71H129.428C129.477 151.536 129.824 152.206 130.47 152.72C131.116 153.234 131.883 153.491 132.772 153.491C133.481 153.491 134.106 153.335 134.647 153.022C135.196 152.703 135.623 152.262 135.929 151.699C136.241 151.13 136.398 150.477 136.398 149.741C136.398 148.991 136.238 148.331 135.918 147.761C135.606 147.192 135.172 146.747 134.616 146.428C134.061 146.108 133.425 145.945 132.71 145.938C132.085 145.938 131.477 146.067 130.887 146.324C130.303 146.581 129.848 146.931 129.522 147.376L125.511 146.657L126.521 135.406H139.565V139.094H130.241L129.688 144.438H129.814C130.189 143.91 130.755 143.473 131.512 143.126C132.269 142.778 133.116 142.605 134.054 142.605C135.338 142.605 136.484 142.907 137.491 143.511C138.499 144.115 139.294 144.945 139.877 146.001C140.461 147.05 140.749 148.258 140.742 149.626C140.749 151.064 140.415 152.342 139.742 153.46C139.075 154.571 138.141 155.446 136.939 156.085C135.745 156.717 134.356 157.033 132.772 157.033ZM152.254 157.21C150.462 157.203 148.92 156.762 147.628 155.887C146.343 155.012 145.353 153.745 144.659 152.085C143.971 150.425 143.631 148.428 143.638 146.095C143.638 143.768 143.982 141.785 144.669 140.146C145.364 138.507 146.354 137.26 147.638 136.406C148.93 135.545 150.469 135.114 152.254 135.114C154.038 135.114 155.573 135.545 156.858 136.406C158.15 137.267 159.143 138.517 159.838 140.156C160.532 141.789 160.876 143.768 160.869 146.095C160.869 148.435 160.522 150.435 159.827 152.095C159.14 153.755 158.154 155.023 156.869 155.898C155.584 156.773 154.045 157.21 152.254 157.21ZM152.254 153.47C153.476 153.47 154.452 152.856 155.181 151.626C155.91 150.397 156.271 148.553 156.264 146.095C156.264 144.476 156.098 143.129 155.764 142.052C155.438 140.976 154.973 140.167 154.368 139.625C153.771 139.083 153.066 138.813 152.254 138.813C151.038 138.813 150.066 139.42 149.337 140.636C148.607 141.851 148.239 143.671 148.232 146.095C148.232 147.734 148.395 149.102 148.722 150.199C149.055 151.29 149.524 152.109 150.128 152.658C150.733 153.2 151.441 153.47 152.254 153.47ZM172.451 157.21C170.659 157.203 169.117 156.762 167.826 155.887C166.541 155.012 165.551 153.745 164.857 152.085C164.169 150.425 163.829 148.428 163.836 146.095C163.836 143.768 164.179 141.785 164.867 140.146C165.561 138.507 166.551 137.26 167.836 136.406C169.128 135.545 170.666 135.114 172.451 135.114C174.236 135.114 175.771 135.545 177.056 136.406C178.348 137.267 179.341 138.517 180.035 140.156C180.73 141.789 181.074 143.768 181.067 146.095C181.067 148.435 180.719 150.435 180.025 152.095C179.337 153.755 178.351 155.023 177.066 155.898C175.781 156.773 174.243 157.21 172.451 157.21ZM172.451 153.47C173.674 153.47 174.649 152.856 175.379 151.626C176.108 150.397 176.469 148.553 176.462 146.095C176.462 144.476 176.295 143.129 175.962 142.052C175.636 140.976 175.17 140.167 174.566 139.625C173.969 139.083 173.264 138.813 172.451 138.813C171.236 138.813 170.263 139.42 169.534 140.636C168.805 141.851 168.437 143.671 168.43 146.095C168.43 147.734 168.593 149.102 168.92 150.199C169.253 151.29 169.722 152.109 170.326 152.658C170.93 153.2 171.639 153.47 172.451 153.47Z" fill="black"/>
<path d="M52.1882 102L56.7574 89.2508H58.7425L63.3117 102H61.5149L60.471 99.0052H55.029L53.9851 102H52.1882ZM55.5595 97.465H59.9405L57.5104 90.4658H57.9896L55.5595 97.465ZM67.8445 102.205C66.9204 102.205 66.1161 101.977 65.4316 101.521C64.7471 101.064 64.2622 100.448 63.977 99.6726L65.2434 99.0566C65.5058 99.6042 65.8651 100.038 66.3215 100.357C66.7778 100.677 67.2855 100.836 67.8445 100.836C68.3465 100.836 68.7629 100.717 69.0938 100.477C69.4247 100.237 69.5901 99.9236 69.5901 99.5357C69.5901 99.2619 69.5102 99.0451 69.3505 98.8854C69.2022 98.7143 69.0196 98.5831 68.8029 98.4918C68.5861 98.3891 68.3865 98.315 68.2039 98.2694L66.8178 97.8758C65.9849 97.6362 65.3746 97.2939 64.9867 96.849C64.6102 96.404 64.4219 95.8849 64.4219 95.2917C64.4219 94.7441 64.5588 94.2706 64.8326 93.8713C65.1179 93.4606 65.5001 93.1411 65.9792 92.913C66.4698 92.6848 67.0174 92.5707 67.6221 92.5707C68.4321 92.5707 69.1565 92.7761 69.7954 93.1868C70.4457 93.5975 70.9078 94.1736 71.1816 94.9152L69.881 95.5142C69.6756 95.035 69.3676 94.6585 68.9569 94.3847C68.5462 94.0995 68.0841 93.9569 67.5707 93.9569C67.103 93.9569 66.7322 94.0767 66.4584 94.3162C66.1846 94.5444 66.0477 94.8353 66.0477 95.189C66.0477 95.4514 66.1161 95.6682 66.253 95.8393C66.3899 95.999 66.5554 96.1245 66.7493 96.2158C66.9433 96.2956 67.1315 96.3641 67.314 96.4211L68.82 96.8661C69.573 97.0828 70.1548 97.4194 70.5655 97.8758C70.9876 98.3321 71.1987 98.8797 71.1987 99.5186C71.1987 100.032 71.0561 100.494 70.7709 100.905C70.4857 101.315 70.0921 101.635 69.5901 101.863C69.0881 102.091 68.5062 102.205 67.8445 102.205ZM76.3967 102.205C75.4726 102.205 74.6682 101.977 73.9837 101.521C73.2992 101.064 72.8143 100.448 72.5291 99.6726L73.7955 99.0566C74.0579 99.6042 74.4172 100.038 74.8736 100.357C75.3299 100.677 75.8376 100.836 76.3967 100.836C76.8986 100.836 77.3151 100.717 77.6459 100.477C77.9768 100.237 78.1422 99.9236 78.1422 99.5357C78.1422 99.2619 78.0623 99.0451 77.9026 98.8854C77.7543 98.7143 77.5718 98.5831 77.355 98.4918C77.1382 98.3891 76.9386 98.315 76.756 98.2694L75.3699 97.8758C74.537 97.6362 73.9267 97.2939 73.5388 96.849C73.1623 96.404 72.974 95.8849 72.974 95.2917C72.974 94.7441 73.111 94.2706 73.3848 93.8713C73.67 93.4606 74.0522 93.1411 74.5313 92.913C75.0219 92.6848 75.5695 92.5707 76.1742 92.5707C76.9842 92.5707 77.7087 92.7761 78.3475 93.1868C78.9978 93.5975 79.4599 94.1736 79.7337 94.9152L78.4331 95.5142C78.2278 95.035 77.9197 94.6585 77.509 94.3847C77.0983 94.0995 76.6362 93.9569 76.1228 93.9569C75.6551 93.9569 75.2843 94.0767 75.0105 94.3162C74.7367 94.5444 74.5998 94.8353 74.5998 95.189C74.5998 95.4514 74.6682 95.6682 74.8051 95.8393C74.942 95.999 75.1075 96.1245 75.3014 96.2158C75.4954 96.2956 75.6836 96.3641 75.8662 96.4211L77.3721 96.8661C78.1251 97.0828 78.7069 97.4194 79.1176 97.8758C79.5398 98.3321 79.7508 98.8797 79.7508 99.5186C79.7508 100.032 79.6082 100.494 79.323 100.905C79.0378 101.315 78.6442 101.635 78.1422 101.863C77.6402 102.091 77.0584 102.205 76.3967 102.205ZM85.89 102.205C85.0001 102.205 84.2072 101.994 83.5113 101.572C82.8153 101.15 82.2677 100.574 81.8684 99.8438C81.4691 99.1022 81.2695 98.2751 81.2695 97.3624C81.2695 96.4383 81.4634 95.6168 81.8513 94.8981C82.2506 94.1793 82.7868 93.6146 83.4599 93.2039C84.1445 92.7818 84.9088 92.5707 85.7531 92.5707C86.4376 92.5707 87.0423 92.6962 87.5671 92.9472C88.1033 93.1868 88.5539 93.5176 88.919 93.9398C89.2955 94.3505 89.5807 94.8239 89.7747 95.3601C89.98 95.8849 90.0827 96.4326 90.0827 97.003C90.0827 97.1285 90.0713 97.2711 90.0485 97.4308C90.0371 97.5791 90.0199 97.7217 89.9971 97.8586H82.4332V96.4896H89.073L88.32 97.1057C88.4227 96.5124 88.3657 95.9819 88.1489 95.5142C87.9321 95.0464 87.6127 94.6756 87.1906 94.4018C86.7685 94.128 86.2893 93.9911 85.7531 93.9911C85.2169 93.9911 84.7263 94.128 84.2814 94.4018C83.8364 94.6756 83.4885 95.0692 83.2375 95.5826C82.9979 96.0846 82.9009 96.6835 82.9465 97.3795C82.9009 98.0526 83.0036 98.6458 83.2546 99.1592C83.517 99.6612 83.8821 100.055 84.3498 100.34C84.829 100.614 85.3481 100.751 85.9071 100.751C86.5232 100.751 87.0423 100.608 87.4644 100.323C87.8865 100.038 88.2288 99.6726 88.4912 99.2277L89.826 99.9122C89.6435 100.334 89.3582 100.722 88.9703 101.076C88.5939 101.418 88.1432 101.692 87.6184 101.897C87.105 102.103 86.5289 102.205 85.89 102.205ZM95.7173 102.103C94.816 102.103 94.1201 101.846 93.6295 101.333C93.1503 100.819 92.9107 100.095 92.9107 99.1592V94.2991H91.2337V92.7761H91.5759C91.9866 92.7761 92.3118 92.6506 92.5514 92.3996C92.791 92.1486 92.9107 91.8177 92.9107 91.407V90.654H94.5023V92.7761H96.5729V94.2991H94.5023V99.1079C94.5023 99.4159 94.5479 99.684 94.6392 99.9122C94.7418 100.14 94.9073 100.323 95.1354 100.46C95.3636 100.585 95.666 100.648 96.0424 100.648C96.1223 100.648 96.2193 100.642 96.3334 100.631C96.4589 100.62 96.5729 100.608 96.6756 100.597V102C96.5273 102.034 96.3619 102.057 96.1793 102.068C95.9968 102.091 95.8428 102.103 95.7173 102.103ZM101.869 102.205C100.945 102.205 100.141 101.977 99.4562 101.521C98.7717 101.064 98.2868 100.448 98.0016 99.6726L99.268 99.0566C99.5304 99.6042 99.8898 100.038 100.346 100.357C100.802 100.677 101.31 100.836 101.869 100.836C102.371 100.836 102.788 100.717 103.118 100.477C103.449 100.237 103.615 99.9236 103.615 99.5357C103.615 99.2619 103.535 99.0451 103.375 98.8854C103.227 98.7143 103.044 98.5831 102.827 98.4918C102.611 98.3891 102.411 98.315 102.229 98.2694L100.842 97.8758C100.01 97.6362 99.3992 97.2939 99.0113 96.849C98.6348 96.404 98.4466 95.8849 98.4466 95.2917C98.4466 94.7441 98.5835 94.2706 98.8573 93.8713C99.1425 93.4606 99.5247 93.1411 100.004 92.913C100.494 92.6848 101.042 92.5707 101.647 92.5707C102.457 92.5707 103.181 92.7761 103.82 93.1868C104.47 93.5975 104.932 94.1736 105.206 94.9152L103.906 95.5142C103.7 95.035 103.392 94.6585 102.982 94.3847C102.571 94.0995 102.109 93.9569 101.595 93.9569C101.128 93.9569 100.757 94.0767 100.483 94.3162C100.209 94.5444 100.072 94.8353 100.072 95.189C100.072 95.4514 100.141 95.6682 100.278 95.8393C100.415 95.999 100.58 96.1245 100.774 96.2158C100.968 96.2956 101.156 96.3641 101.339 96.4211L102.845 96.8661C103.598 97.0828 104.179 97.4194 104.59 97.8758C105.012 98.3321 105.223 98.8797 105.223 99.5186C105.223 100.032 105.081 100.494 104.795 100.905C104.51 101.315 104.117 101.635 103.615 101.863C103.113 102.091 102.531 102.205 101.869 102.205Z" fill="black" fill-opacity="0.7"/>
<path d="M290.793 139.957L290.033 142.853H276.063L276.813 139.957H290.793ZM283.532 156L276.406 147.52L276.417 144.915H279.938C280.723 144.915 281.379 144.77 281.907 144.478C282.435 144.186 282.831 143.79 283.095 143.29C283.359 142.79 283.494 142.221 283.501 141.582C283.494 140.623 283.213 139.842 282.657 139.238C282.108 138.627 281.202 138.321 279.938 138.321H276.063L276.917 134.664H279.938C281.709 134.664 283.185 134.932 284.366 135.466C285.553 135.994 286.442 136.748 287.033 137.727C287.63 138.706 287.932 139.873 287.939 141.227C287.932 142.429 287.731 143.478 287.335 144.374C286.946 145.27 286.331 146.016 285.491 146.614C284.657 147.211 283.57 147.655 282.23 147.947L282.063 148.01L288.439 155.812V156H283.532ZM290.814 134.664L290.033 137.602H278.532L279.313 134.664H290.814ZM301.461 156.292C299.906 156.292 298.52 156.024 297.305 155.49C296.096 154.948 295.141 154.205 294.44 153.26C293.745 152.309 293.388 151.211 293.367 149.968H297.909C297.937 150.489 298.107 150.947 298.419 151.343C298.739 151.732 299.162 152.034 299.69 152.25C300.218 152.465 300.812 152.573 301.472 152.573C302.159 152.573 302.767 152.451 303.295 152.208C303.823 151.965 304.236 151.628 304.535 151.197C304.833 150.767 304.983 150.27 304.983 149.708C304.983 149.138 304.823 148.635 304.503 148.197C304.191 147.753 303.739 147.405 303.149 147.155C302.566 146.905 301.871 146.78 301.065 146.78H299.076V143.467H301.065C301.746 143.467 302.347 143.349 302.868 143.113C303.396 142.877 303.805 142.551 304.097 142.134C304.389 141.71 304.535 141.217 304.535 140.655C304.535 140.12 304.406 139.651 304.149 139.248C303.899 138.838 303.545 138.519 303.087 138.29C302.635 138.06 302.107 137.946 301.503 137.946C300.892 137.946 300.333 138.057 299.826 138.279C299.319 138.495 298.912 138.804 298.607 139.206C298.301 139.609 298.138 140.082 298.117 140.623H293.794C293.815 139.394 294.165 138.31 294.846 137.373C295.527 136.435 296.443 135.703 297.596 135.175C298.756 134.64 300.065 134.373 301.524 134.373C302.996 134.373 304.285 134.64 305.389 135.175C306.493 135.71 307.351 136.432 307.962 137.342C308.58 138.245 308.886 139.259 308.879 140.384C308.886 141.578 308.514 142.575 307.764 143.374C307.021 144.172 306.052 144.679 304.858 144.895V145.061C306.427 145.263 307.622 145.808 308.441 146.697C309.268 147.579 309.678 148.683 309.671 150.01C309.678 151.225 309.327 152.305 308.618 153.25C307.917 154.194 306.948 154.937 305.712 155.479C304.476 156.021 303.059 156.292 301.461 156.292ZM312.59 152.25V148.697L321.497 134.664H324.56V139.581H322.748L317.132 148.468V148.635H329.79V152.25H312.59ZM322.831 156V151.166L322.914 149.593V134.664H327.144V156H322.831ZM341.161 156.469C339.369 156.462 337.827 156.021 336.536 155.146C335.251 154.271 334.261 153.003 333.567 151.343C332.879 149.683 332.539 147.687 332.546 145.353C332.546 143.026 332.889 141.043 333.577 139.404C334.271 137.765 335.261 136.519 336.546 135.664C337.838 134.803 339.376 134.373 341.161 134.373C342.946 134.373 344.481 134.803 345.766 135.664C347.058 136.526 348.051 137.776 348.745 139.415C349.44 141.047 349.784 143.026 349.777 145.353C349.777 147.694 349.429 149.694 348.735 151.354C348.047 153.014 347.061 154.281 345.776 155.156C344.491 156.031 342.953 156.469 341.161 156.469ZM341.161 152.729C342.384 152.729 343.359 152.114 344.089 150.885C344.818 149.656 345.179 147.812 345.172 145.353C345.172 143.735 345.005 142.387 344.672 141.311C344.346 140.234 343.88 139.425 343.276 138.883C342.679 138.342 341.974 138.071 341.161 138.071C339.946 138.071 338.973 138.679 338.244 139.894C337.515 141.109 337.147 142.929 337.14 145.353C337.14 146.992 337.303 148.36 337.629 149.458C337.963 150.548 338.432 151.368 339.036 151.916C339.64 152.458 340.349 152.729 341.161 152.729ZM361.359 156.469C359.567 156.462 358.025 156.021 356.733 155.146C355.448 154.271 354.459 153.003 353.764 151.343C353.077 149.683 352.736 147.687 352.743 145.353C352.743 143.026 353.087 141.043 353.775 139.404C354.469 137.765 355.459 136.519 356.744 135.664C358.035 134.803 359.574 134.373 361.359 134.373C363.144 134.373 364.679 134.803 365.963 135.664C367.255 136.526 368.248 137.776 368.943 139.415C369.637 141.047 369.981 143.026 369.974 145.353C369.974 147.694 369.627 149.694 368.933 151.354C368.245 153.014 367.259 154.281 365.974 155.156C364.689 156.031 363.151 156.469 361.359 156.469ZM361.359 152.729C362.581 152.729 363.557 152.114 364.286 150.885C365.015 149.656 365.377 147.812 365.37 145.353C365.37 143.735 365.203 142.387 364.87 141.311C364.543 140.234 364.078 139.425 363.474 138.883C362.876 138.342 362.171 138.071 361.359 138.071C360.143 138.071 359.171 138.679 358.442 139.894C357.713 141.109 357.344 142.929 357.337 145.353C357.337 146.992 357.501 148.36 357.827 149.458C358.16 150.548 358.629 151.368 359.234 151.916C359.838 152.458 360.546 152.729 361.359 152.729ZM373.191 156V152.75L380.785 145.718C381.431 145.093 381.973 144.53 382.411 144.03C382.855 143.53 383.192 143.04 383.421 142.561C383.65 142.075 383.765 141.55 383.765 140.988C383.765 140.363 383.623 139.825 383.338 139.373C383.053 138.915 382.664 138.564 382.171 138.321C381.678 138.071 381.119 137.946 380.494 137.946C379.841 137.946 379.271 138.078 378.785 138.342C378.299 138.606 377.924 138.984 377.66 139.477C377.396 139.97 377.264 140.557 377.264 141.238H372.982C372.982 139.842 373.298 138.63 373.93 137.602C374.563 136.574 375.448 135.779 376.587 135.216C377.726 134.654 379.039 134.373 380.525 134.373C382.053 134.373 383.383 134.643 384.515 135.185C385.654 135.72 386.54 136.463 387.172 137.415C387.804 138.366 388.12 139.456 388.12 140.686C388.12 141.491 387.96 142.287 387.64 143.071C387.328 143.856 386.769 144.728 385.963 145.686C385.157 146.638 384.022 147.78 382.556 149.114L379.442 152.166V152.312H388.401V156H373.191ZM400.952 134.664V156H396.441V138.946H396.316L391.43 142.009V138.008L396.712 134.664H400.952Z" fill="black"/>
<path d="M276.42 102V89.2508H278.097V100.46H283.693V102H276.42ZM285.202 102V92.7761H286.794V102H285.202ZM285.202 91.3043V89.2508H286.794V91.3043H285.202ZM291.779 102.205C291.174 102.205 290.638 102.097 290.17 101.88C289.714 101.652 289.354 101.344 289.092 100.956C288.83 100.557 288.698 100.1 288.698 99.5871C288.698 99.0965 288.801 98.6573 289.006 98.2694C289.223 97.8701 289.554 97.5335 289.999 97.2597C290.455 96.9859 291.026 96.7919 291.71 96.6778L295.133 96.1131V97.4479L292.07 97.9613C291.476 98.064 291.043 98.2522 290.769 98.5261C290.507 98.7999 290.375 99.1364 290.375 99.5357C290.375 99.9122 290.524 100.226 290.82 100.477C291.128 100.728 291.511 100.853 291.967 100.853C292.549 100.853 293.051 100.734 293.473 100.494C293.906 100.243 294.243 99.9065 294.483 99.4844C294.734 99.0623 294.859 98.5945 294.859 98.0811V95.7366C294.859 95.2346 294.671 94.8296 294.294 94.5216C293.929 94.2022 293.444 94.0424 292.84 94.0424C292.315 94.0424 291.847 94.1793 291.436 94.4531C291.037 94.7155 290.74 95.0692 290.547 95.5142L289.16 94.7954C289.332 94.3733 289.605 93.9968 289.982 93.6659C290.358 93.3237 290.798 93.0556 291.3 92.8616C291.801 92.6677 292.326 92.5707 292.874 92.5707C293.581 92.5707 294.203 92.7076 294.739 92.9814C295.275 93.2438 295.692 93.6146 295.988 94.0938C296.297 94.5615 296.451 95.1091 296.451 95.7366V102H294.893V100.254L295.184 100.357C294.99 100.722 294.728 101.042 294.397 101.315C294.066 101.589 293.678 101.806 293.233 101.966C292.788 102.125 292.303 102.205 291.779 102.205ZM303.504 102.205C302.763 102.205 302.084 102.04 301.468 101.709C300.863 101.378 300.396 100.91 300.065 100.306L300.287 100.032V102H298.73V89.0454H300.321V94.7612L300.082 94.3676C300.424 93.82 300.892 93.3864 301.485 93.067C302.078 92.7361 302.757 92.5707 303.522 92.5707C304.389 92.5707 305.164 92.7818 305.849 93.2039C306.545 93.626 307.092 94.2022 307.492 94.9323C307.891 95.6511 308.091 96.4725 308.091 97.3966C308.091 98.2979 307.891 99.1136 307.492 99.8438C307.092 100.574 306.545 101.15 305.849 101.572C305.164 101.994 304.383 102.205 303.504 102.205ZM303.385 100.665C303.967 100.665 304.486 100.523 304.942 100.237C305.398 99.9521 305.752 99.5642 306.003 99.0737C306.265 98.5717 306.397 98.0127 306.397 97.3966C306.397 96.7577 306.265 96.1987 306.003 95.7195C305.752 95.2289 305.398 94.841 304.942 94.5558C304.486 94.2592 303.967 94.1109 303.385 94.1109C302.803 94.1109 302.278 94.2535 301.81 94.5387C301.354 94.8239 300.989 95.2175 300.715 95.7195C300.453 96.2101 300.321 96.7691 300.321 97.3966C300.321 98.0127 300.453 98.5717 300.715 99.0737C300.989 99.5642 301.354 99.9521 301.81 100.237C302.278 100.523 302.803 100.665 303.385 100.665ZM309.989 102V92.7761H311.581V102H309.989ZM309.989 91.3043V89.2508H311.581V91.3043H309.989ZM313.862 102V89.0454H315.454V102H313.862ZM317.735 102V92.7761H319.326V102H317.735ZM317.735 91.3043V89.2508H319.326V91.3043H317.735ZM325.355 102.103C324.454 102.103 323.758 101.846 323.268 101.333C322.788 100.819 322.549 100.095 322.549 99.1592V94.2991H320.872V92.7761H321.214C321.625 92.7761 321.95 92.6506 322.19 92.3996C322.429 92.1486 322.549 91.8177 322.549 91.407V90.654H324.14V92.7761H326.211V94.2991H324.14V99.1079C324.14 99.4159 324.186 99.684 324.277 99.9122C324.38 100.14 324.545 100.323 324.774 100.46C325.002 100.585 325.304 100.648 325.681 100.648C325.76 100.648 325.857 100.642 325.971 100.631C326.097 100.62 326.211 100.608 326.314 100.597V102C326.165 102.034 326 102.057 325.817 102.068C325.635 102.091 325.481 102.103 325.355 102.103ZM328.701 105.765C328.495 105.765 328.29 105.748 328.085 105.714C327.879 105.679 327.685 105.622 327.503 105.542V104.122C327.628 104.145 327.782 104.168 327.965 104.19C328.159 104.225 328.347 104.242 328.53 104.242C329.066 104.242 329.471 104.122 329.745 103.882C330.03 103.654 330.298 103.255 330.549 102.685L331.131 101.298L331.097 102.685L327.161 92.7761H328.889L331.952 100.648H331.439L334.485 92.7761H336.248L332.089 103.095C331.895 103.586 331.644 104.031 331.336 104.43C331.04 104.841 330.674 105.166 330.241 105.405C329.807 105.645 329.294 105.765 328.701 105.765Z" fill="black" fill-opacity="0.7"/>
</g>
<defs>
<filter id="filter0_d_841_1488" x="9.31194" y="37.0646" width="481.376" height="438.094" filterUnits="userSpaceOnUse" color-interpolation-filters="sRGB">
<feFlood flood-opacity="0" result="BackgroundImageFix"/>
<feColorMatrix in="SourceAlpha" type="matrix" values="0 0 0 0 0 0 0 0 0 0 0 0 0 0 0 0 0 0 127 0" result="hardAlpha"/>
<feOffset dy="6.1118"/>
<feGaussianBlur stdDeviation="12.2236"/>
<feComposite in2="hardAlpha" operator="out"/>
<feColorMatrix type="matrix" values="0 0 0 0 0 0 0 0 0 0 0 0 0 0 0 0 0 0 0.05 0"/>
<feBlend mode="normal" in2="BackgroundImageFix" result="effect1_dropShadow_841_1488"/>
<feBlend mode="normal" in="SourceGraphic" in2="effect1_dropShadow_841_1488" result="shape"/>
</filter>
<linearGradient id="paint0_linear_841_1488" x1="79.3314" y1="400.098" x2="79.3314" y2="418.196" gradientUnits="userSpaceOnUse">
<stop stop-color="#1A237E"/>
<stop offset="1" stop-color="white" stop-opacity="0"/>
</linearGradient>
<linearGradient id="paint1_linear_841_1488" x1="307.331" y1="398.728" x2="307.331" y2="416.826" gradientUnits="userSpaceOnUse">
<stop stop-color="#1A237E"/>
<stop offset="1" stop-color="white" stop-opacity="0"/>
</linearGradient>
</defs>
</svg>
