<svg width="400" height="400" viewBox="0 0 400 400" fill="none" xmlns="http://www.w3.org/2000/svg">
<g filter="url(#filter0_d_422_414)">
<rect x="19.5" y="20.5" width="231.724" height="231.724" rx="16.5517" fill="white" shape-rendering="crispEdges"/>
<rect x="20.0172" y="21.0172" width="230.69" height="230.69" rx="16.0345" stroke="#212528" stroke-width="1.03448" shape-rendering="crispEdges"/>
<path d="M156.052 93.776L151.914 89.6381L147.776 93.776L143.638 89.6381L139.5 93.776L135.362 89.6381L131.224 93.776L127.086 89.6381L122.948 93.776L118.811 89.6381V128.259H110.535V136.535C110.535 141.114 114.231 144.81 118.811 144.81H151.914C156.493 144.81 160.19 141.114 160.19 136.535V89.6381L156.052 93.776ZM154.673 136.535C154.673 138.052 153.431 139.293 151.914 139.293C150.397 139.293 149.155 138.052 149.155 136.535V128.259H124.328V97.9139H154.673V136.535Z" fill="#0074FF"/>
<path d="M143.638 103.431H127.086V108.948H143.638V103.431Z" fill="#0074FF"/>
<path d="M151.914 103.431H146.397V108.948H151.914V103.431Z" fill="#0074FF"/>
<path d="M143.638 111.707H127.086V117.224H143.638V111.707Z" fill="#0074FF"/>
<path d="M151.914 111.707H146.397V117.224H151.914V111.707Z" fill="#0074FF"/>
<path d="M85.9142 164.547V182.604H82.6433V164.547H85.9142ZM92.5068 174.669V182.604H89.3152V169.061H92.3658V171.362H92.5245C92.836 170.604 93.3327 170.002 94.0145 169.555C94.7022 169.108 95.5515 168.885 96.5625 168.885C97.4971 168.885 98.3111 169.085 99.0047 169.484C99.7041 169.884 100.245 170.463 100.627 171.221C101.015 171.979 101.206 172.899 101.2 173.981V182.604H98.0084V174.475C98.0084 173.569 97.7733 172.861 97.3031 172.35C96.8387 171.838 96.1951 171.583 95.3722 171.583C94.8139 171.583 94.3172 171.706 93.8822 171.953C93.4532 172.194 93.1152 172.544 92.8683 173.002C92.6273 173.461 92.5068 174.016 92.5068 174.669ZM116.056 169.061L111.233 182.604H107.707L102.884 169.061H106.287L109.399 179.121H109.541L112.662 169.061H116.056ZM123.711 182.868C122.389 182.868 121.242 182.577 120.273 181.995C119.303 181.413 118.55 180.599 118.016 179.553C117.487 178.507 117.222 177.284 117.222 175.885C117.222 174.486 117.487 173.261 118.016 172.209C118.55 171.157 119.303 170.34 120.273 169.758C121.242 169.176 122.389 168.885 123.711 168.885C125.034 168.885 126.18 169.176 127.15 169.758C128.119 170.34 128.869 171.157 129.398 172.209C129.933 173.261 130.2 174.486 130.2 175.885C130.2 177.284 129.933 178.507 129.398 179.553C128.869 180.599 128.119 181.413 127.15 181.995C126.18 182.577 125.034 182.868 123.711 182.868ZM123.729 180.311C124.446 180.311 125.045 180.114 125.527 179.72C126.009 179.321 126.368 178.786 126.603 178.116C126.844 177.446 126.964 176.699 126.964 175.876C126.964 175.048 126.844 174.298 126.603 173.628C126.368 172.952 126.009 172.414 125.527 172.015C125.045 171.615 124.446 171.415 123.729 171.415C122.994 171.415 122.383 171.615 121.895 172.015C121.413 172.414 121.051 172.952 120.81 173.628C120.575 174.298 120.458 175.048 120.458 175.876C120.458 176.699 120.575 177.446 120.81 178.116C121.051 178.786 121.413 179.321 121.895 179.72C122.383 180.114 122.994 180.311 123.729 180.311ZM132.909 182.604V169.061H136.101V182.604H132.909ZM134.514 167.139C134.008 167.139 133.573 166.972 133.209 166.637C132.844 166.296 132.662 165.887 132.662 165.411C132.662 164.929 132.844 164.521 133.209 164.186C133.573 163.845 134.008 163.674 134.514 163.674C135.025 163.674 135.46 163.845 135.818 164.186C136.183 164.521 136.365 164.929 136.365 165.411C136.365 165.887 136.183 166.296 135.818 166.637C135.46 166.972 135.025 167.139 134.514 167.139ZM145.29 182.868C143.938 182.868 142.777 182.571 141.807 181.978C140.843 181.384 140.1 180.564 139.577 179.518C139.059 178.466 138.801 177.255 138.801 175.885C138.801 174.51 139.065 173.296 139.594 172.244C140.123 171.186 140.87 170.363 141.834 169.775C142.803 169.182 143.95 168.885 145.272 168.885C146.371 168.885 147.344 169.088 148.19 169.493C149.043 169.893 149.722 170.46 150.227 171.195C150.733 171.924 151.021 172.776 151.091 173.752H148.041C147.917 173.099 147.623 172.556 147.159 172.121C146.7 171.68 146.086 171.459 145.316 171.459C144.664 171.459 144.091 171.636 143.597 171.988C143.103 172.335 142.718 172.835 142.442 173.487C142.172 174.14 142.036 174.921 142.036 175.832C142.036 176.755 142.172 177.549 142.442 178.213C142.712 178.871 143.091 179.38 143.579 179.738C144.073 180.091 144.652 180.267 145.316 180.267C145.786 180.267 146.207 180.179 146.577 180.003C146.953 179.82 147.268 179.559 147.52 179.218C147.773 178.877 147.946 178.463 148.041 177.975H151.091C151.015 178.933 150.733 179.782 150.245 180.523C149.757 181.258 149.093 181.834 148.252 182.251C147.412 182.662 146.424 182.868 145.29 182.868ZM153.712 182.604V169.061H156.903V182.604H153.712ZM155.316 167.139C154.811 167.139 154.376 166.972 154.012 166.637C153.647 166.296 153.465 165.887 153.465 165.411C153.465 164.929 153.647 164.521 154.012 164.186C154.376 163.845 154.811 163.674 155.316 163.674C155.828 163.674 156.263 163.845 156.621 164.186C156.986 164.521 157.168 164.929 157.168 165.411C157.168 165.887 156.986 166.296 156.621 166.637C156.263 166.972 155.828 167.139 155.316 167.139ZM163.377 174.669V182.604H160.185V169.061H163.236V171.362H163.395C163.706 170.604 164.203 170.002 164.885 169.555C165.572 169.108 166.422 168.885 167.433 168.885C168.367 168.885 169.181 169.085 169.875 169.484C170.574 169.884 171.115 170.463 171.497 171.221C171.885 171.979 172.076 172.899 172.07 173.981V182.604H168.879V174.475C168.879 173.569 168.643 172.861 168.173 172.35C167.709 171.838 167.065 171.583 166.242 171.583C165.684 171.583 165.187 171.706 164.752 171.953C164.323 172.194 163.985 172.544 163.738 173.002C163.497 173.461 163.377 174.016 163.377 174.669ZM181.204 187.964C180.058 187.964 179.074 187.808 178.251 187.497C177.428 187.191 176.766 186.78 176.267 186.262C175.767 185.745 175.42 185.172 175.227 184.543L178.101 183.847C178.23 184.111 178.418 184.373 178.665 184.631C178.912 184.896 179.244 185.113 179.661 185.284C180.084 185.46 180.616 185.548 181.257 185.548C182.162 185.548 182.912 185.328 183.505 184.887C184.099 184.452 184.396 183.735 184.396 182.736V180.17H184.237C184.073 180.499 183.832 180.837 183.514 181.184C183.203 181.531 182.788 181.822 182.271 182.057C181.76 182.292 181.116 182.41 180.34 182.41C179.3 182.41 178.356 182.166 177.51 181.678C176.67 181.184 175.999 180.449 175.5 179.474C175.006 178.492 174.759 177.264 174.759 175.788C174.759 174.301 175.006 173.046 175.5 172.024C175.999 170.995 176.672 170.216 177.519 169.687C178.365 169.152 179.309 168.885 180.349 168.885C181.142 168.885 181.795 169.02 182.306 169.29C182.824 169.555 183.235 169.875 183.541 170.251C183.846 170.622 184.078 170.971 184.237 171.301H184.413V169.061H187.561V182.824C187.561 183.982 187.285 184.94 186.732 185.698C186.18 186.456 185.424 187.024 184.466 187.4C183.508 187.776 182.421 187.964 181.204 187.964ZM181.231 179.906C181.907 179.906 182.483 179.741 182.959 179.412C183.435 179.083 183.796 178.61 184.043 177.992C184.29 177.375 184.413 176.635 184.413 175.771C184.413 174.918 184.29 174.172 184.043 173.531C183.802 172.891 183.444 172.394 182.968 172.041C182.497 171.683 181.918 171.503 181.231 171.503C180.519 171.503 179.926 171.689 179.45 172.059C178.974 172.429 178.615 172.938 178.374 173.584C178.133 174.225 178.013 174.954 178.013 175.771C178.013 176.599 178.133 177.325 178.374 177.948C178.621 178.566 178.982 179.047 179.459 179.394C179.94 179.735 180.531 179.906 181.231 179.906Z" fill="#212528"/>
</g>
<g filter="url(#filter1_d_422_414)">
<rect x="276.052" y="148.776" width="103.448" height="103.448" rx="16.5517" fill="white" shape-rendering="crispEdges"/>
<rect x="276.569" y="149.293" width="102.414" height="102.414" rx="16.0345" stroke="#212528" stroke-width="1.03448" shape-rendering="crispEdges"/>
<path d="M313.069 197.844H309.527C307.894 197.844 306.625 197.392 305.72 196.487C304.837 195.582 304.396 194.324 304.396 192.713V181.69C304.396 180.057 304.837 178.799 305.72 177.916C306.625 177.011 307.894 176.559 309.527 176.559H313.069C314.702 176.559 315.96 177.011 316.842 177.916C317.747 178.799 318.2 180.057 318.2 181.69V182.882C318.2 183.279 318.012 183.478 317.637 183.478H315.551C315.176 183.478 314.989 183.279 314.989 182.882V181.822C314.989 180.189 314.194 179.373 312.605 179.373H309.99C308.401 179.373 307.607 180.189 307.607 181.822V192.581C307.607 194.214 308.401 195.031 309.99 195.031H312.605C314.194 195.031 314.989 194.214 314.989 192.581V189.602C314.989 189.381 314.867 189.271 314.625 189.271H311.943C311.568 189.271 311.38 189.083 311.38 188.708V187.02C311.38 186.644 311.568 186.457 311.943 186.457H317.505C317.968 186.457 318.2 186.689 318.2 187.152V192.713C318.2 194.324 317.747 195.582 316.842 196.487C315.938 197.392 314.68 197.844 313.069 197.844ZM322.304 192.68V191.82C322.304 191.444 322.491 191.257 322.866 191.257H324.985C325.36 191.257 325.548 191.444 325.548 191.82V192.416C325.548 193.342 325.746 194.016 326.144 194.435C326.563 194.832 327.247 195.031 328.196 195.031H330.48C331.429 195.031 332.113 194.821 332.532 194.402C332.952 193.96 333.161 193.254 333.161 192.283V191.522C333.161 190.816 332.886 190.264 332.334 189.867C331.804 189.447 331.142 189.182 330.348 189.072C329.553 188.94 328.681 188.763 327.732 188.542C326.784 188.322 325.912 188.068 325.117 187.781C324.323 187.494 323.65 186.953 323.098 186.159C322.568 185.364 322.304 184.349 322.304 183.113V181.723C322.304 180.112 322.756 178.854 323.661 177.949C324.588 177.022 325.857 176.559 327.468 176.559H330.977C332.61 176.559 333.879 177.022 334.784 177.949C335.71 178.854 336.174 180.112 336.174 181.723V182.451C336.174 182.827 335.986 183.014 335.611 183.014H333.492C333.117 183.014 332.93 182.827 332.93 182.451V182.021C332.93 181.072 332.72 180.399 332.301 180.002C331.904 179.582 331.23 179.373 330.281 179.373H328.196C327.247 179.373 326.563 179.593 326.144 180.035C325.746 180.454 325.548 181.182 325.548 182.22V183.246C325.548 184.239 326.265 184.912 327.699 185.265C328.339 185.42 329.035 185.552 329.785 185.662C330.557 185.773 331.33 185.938 332.102 186.159C332.875 186.38 333.581 186.678 334.221 187.053C334.861 187.406 335.379 187.958 335.777 188.708C336.174 189.436 336.372 190.33 336.372 191.389V192.68C336.372 194.291 335.909 195.56 334.982 196.487C334.077 197.392 332.819 197.844 331.208 197.844H327.501C325.89 197.844 324.621 197.392 323.694 196.487C322.767 195.56 322.304 194.291 322.304 192.68ZM346.663 197.844H344.577C344.18 197.844 343.981 197.657 343.981 197.282V179.704C343.981 179.483 343.871 179.373 343.65 179.373H339.479C339.082 179.373 338.883 179.185 338.883 178.81V177.122C338.883 176.747 339.082 176.559 339.479 176.559H351.761C352.158 176.559 352.357 176.747 352.357 177.122V178.81C352.357 179.185 352.158 179.373 351.761 179.373H347.59C347.347 179.373 347.225 179.483 347.225 179.704V197.282C347.225 197.657 347.038 197.844 346.663 197.844Z" fill="#D4732B"/>
<path d="M301.368 223.813H299.445C299.39 223.498 299.289 223.218 299.141 222.975C298.994 222.728 298.81 222.519 298.591 222.348C298.371 222.176 298.121 222.048 297.84 221.962C297.562 221.873 297.262 221.828 296.94 221.828C296.367 221.828 295.86 221.972 295.418 222.26C294.975 222.545 294.629 222.963 294.379 223.515C294.128 224.064 294.003 224.734 294.003 225.526C294.003 226.332 294.128 227.011 294.379 227.563C294.632 228.111 294.979 228.526 295.418 228.807C295.86 229.085 296.366 229.224 296.935 229.224C297.25 229.224 297.545 229.183 297.819 229.1C298.097 229.015 298.346 228.889 298.565 228.725C298.788 228.56 298.975 228.358 299.126 228.118C299.28 227.878 299.386 227.604 299.445 227.295L301.368 227.305C301.296 227.806 301.14 228.276 300.9 228.715C300.663 229.153 300.353 229.541 299.969 229.877C299.585 230.209 299.136 230.47 298.622 230.659C298.107 230.844 297.537 230.936 296.909 230.936C295.983 230.936 295.157 230.722 294.43 230.293C293.703 229.865 293.131 229.246 292.712 228.437C292.294 227.628 292.085 226.657 292.085 225.526C292.085 224.391 292.296 223.421 292.718 222.615C293.139 221.806 293.714 221.187 294.44 220.758C295.167 220.33 295.99 220.115 296.909 220.115C297.495 220.115 298.041 220.198 298.545 220.362C299.049 220.527 299.498 220.769 299.892 221.087C300.286 221.403 300.61 221.79 300.864 222.25C301.121 222.706 301.289 223.227 301.368 223.813ZM306.479 230.947C305.708 230.947 305.039 230.777 304.473 230.437C303.907 230.098 303.469 229.623 303.157 229.013C302.848 228.403 302.694 227.689 302.694 226.873C302.694 226.057 302.848 225.342 303.157 224.729C303.469 224.115 303.907 223.638 304.473 223.299C305.039 222.96 305.708 222.79 306.479 222.79C307.25 222.79 307.919 222.96 308.485 223.299C309.05 223.638 309.488 224.115 309.796 224.729C310.108 225.342 310.264 226.057 310.264 226.873C310.264 227.689 310.108 228.403 309.796 229.013C309.488 229.623 309.05 230.098 308.485 230.437C307.919 230.777 307.25 230.947 306.479 230.947ZM306.489 229.455C306.908 229.455 307.257 229.34 307.538 229.111C307.82 228.877 308.029 228.565 308.166 228.175C308.306 227.784 308.377 227.348 308.377 226.868C308.377 226.385 308.306 225.948 308.166 225.557C308.029 225.162 307.82 224.849 307.538 224.616C307.257 224.382 306.908 224.266 306.489 224.266C306.061 224.266 305.704 224.382 305.42 224.616C305.138 224.849 304.927 225.162 304.787 225.557C304.65 225.948 304.581 226.385 304.581 226.868C304.581 227.348 304.65 227.784 304.787 228.175C304.927 228.565 305.138 228.877 305.42 229.111C305.704 229.34 306.061 229.455 306.489 229.455ZM311.844 230.792V222.893H313.624V224.235H313.716C313.881 223.782 314.154 223.429 314.534 223.176C314.915 222.918 315.369 222.79 315.897 222.79C316.432 222.79 316.883 222.92 317.25 223.181C317.62 223.438 317.881 223.789 318.031 224.235H318.114C318.289 223.796 318.584 223.446 318.998 223.186C319.417 222.922 319.912 222.79 320.485 222.79C321.212 222.79 321.805 223.02 322.264 223.479C322.724 223.938 322.953 224.609 322.953 225.49V230.792H321.086V225.778C321.086 225.288 320.956 224.929 320.696 224.703C320.435 224.473 320.116 224.358 319.739 224.358C319.29 224.358 318.938 224.499 318.685 224.78C318.434 225.058 318.309 225.42 318.309 225.865V230.792H316.483V225.701C316.483 225.293 316.36 224.967 316.113 224.724C315.87 224.48 315.551 224.358 315.157 224.358C314.889 224.358 314.646 224.427 314.426 224.564C314.207 224.698 314.032 224.888 313.902 225.135C313.771 225.378 313.706 225.663 313.706 225.989V230.792H311.844ZM324.842 233.755V222.893H326.673V224.199H326.781C326.877 224.007 327.012 223.803 327.187 223.587C327.362 223.368 327.599 223.181 327.897 223.026C328.195 222.869 328.576 222.79 329.039 222.79C329.649 222.79 330.199 222.946 330.69 223.258C331.183 223.566 331.574 224.024 331.862 224.631C332.154 225.234 332.3 225.975 332.3 226.853C332.3 227.72 332.157 228.457 331.873 229.064C331.588 229.671 331.201 230.134 330.71 230.453C330.22 230.772 329.665 230.931 329.044 230.931C328.591 230.931 328.216 230.856 327.918 230.705C327.619 230.554 327.379 230.372 327.198 230.16C327.019 229.944 326.88 229.74 326.781 229.548H326.704V233.755H324.842ZM326.668 226.843C326.668 227.353 326.74 227.801 326.884 228.185C327.031 228.569 327.242 228.869 327.517 229.085C327.794 229.297 328.13 229.404 328.525 229.404C328.936 229.404 329.281 229.294 329.558 229.075C329.836 228.852 330.045 228.548 330.186 228.164C330.33 227.777 330.402 227.336 330.402 226.843C330.402 226.352 330.331 225.917 330.191 225.536C330.05 225.156 329.841 224.857 329.563 224.641C329.286 224.425 328.939 224.317 328.525 224.317C328.127 224.317 327.789 224.422 327.511 224.631C327.234 224.84 327.023 225.133 326.879 225.51C326.738 225.888 326.668 226.332 326.668 226.843ZM335.756 220.259V230.792H333.894V220.259H335.756ZM337.67 230.792V222.893H339.532V230.792H337.67ZM338.606 221.771C338.311 221.771 338.058 221.674 337.845 221.478C337.632 221.279 337.526 221.041 337.526 220.763C337.526 220.482 337.632 220.244 337.845 220.049C338.058 219.85 338.311 219.75 338.606 219.75C338.904 219.75 339.158 219.85 339.367 220.049C339.58 220.244 339.686 220.482 339.686 220.763C339.686 221.041 339.58 221.279 339.367 221.478C339.158 221.674 338.904 221.771 338.606 221.771ZM343.72 230.952C343.219 230.952 342.768 230.863 342.367 230.684C341.969 230.503 341.654 230.235 341.421 229.882C341.191 229.529 341.076 229.093 341.076 228.576C341.076 228.13 341.158 227.761 341.323 227.47C341.488 227.179 341.712 226.945 341.997 226.771C342.281 226.596 342.602 226.464 342.958 226.374C343.318 226.282 343.69 226.215 344.074 226.174C344.537 226.126 344.913 226.083 345.201 226.045C345.489 226.004 345.698 225.942 345.828 225.86C345.962 225.774 346.029 225.642 346.029 225.464V225.433C346.029 225.046 345.914 224.746 345.684 224.533C345.455 224.321 345.124 224.214 344.692 224.214C344.236 224.214 343.874 224.314 343.606 224.513C343.342 224.712 343.164 224.946 343.072 225.217L341.333 224.97C341.47 224.49 341.697 224.089 342.012 223.767C342.328 223.441 342.713 223.198 343.169 223.037C343.625 222.872 344.129 222.79 344.681 222.79C345.062 222.79 345.441 222.834 345.818 222.924C346.195 223.013 346.54 223.16 346.852 223.366C347.164 223.568 347.414 223.844 347.603 224.194C347.795 224.544 347.891 224.981 347.891 225.505V230.792H346.101V229.707H346.039C345.926 229.927 345.767 230.132 345.561 230.324C345.359 230.513 345.103 230.665 344.795 230.782C344.489 230.895 344.131 230.952 343.72 230.952ZM344.203 229.584C344.577 229.584 344.901 229.51 345.175 229.363C345.449 229.212 345.66 229.013 345.808 228.766C345.959 228.519 346.034 228.25 346.034 227.959V227.028C345.976 227.076 345.876 227.12 345.736 227.161C345.599 227.203 345.444 227.239 345.273 227.269C345.101 227.3 344.932 227.328 344.764 227.352C344.596 227.376 344.45 227.396 344.326 227.413C344.049 227.451 343.8 227.513 343.581 227.599C343.361 227.684 343.188 227.804 343.061 227.959C342.934 228.109 342.871 228.305 342.871 228.545C342.871 228.888 342.996 229.147 343.246 229.321C343.497 229.496 343.816 229.584 344.203 229.584ZM351.624 226.164V230.792H349.763V222.893H351.542V224.235H351.635C351.816 223.793 352.106 223.441 352.504 223.181C352.905 222.92 353.401 222.79 353.99 222.79C354.535 222.79 355.01 222.906 355.415 223.14C355.823 223.373 356.138 223.71 356.361 224.153C356.587 224.595 356.699 225.132 356.695 225.762V230.792H354.834V226.05C354.834 225.522 354.697 225.109 354.422 224.811C354.151 224.513 353.776 224.364 353.296 224.364C352.97 224.364 352.68 224.436 352.427 224.58C352.176 224.72 351.979 224.924 351.835 225.192C351.695 225.459 351.624 225.783 351.624 226.164ZM362.533 222.893V224.333H357.992V222.893H362.533ZM359.113 221H360.974V228.416C360.974 228.667 361.012 228.859 361.088 228.992C361.166 229.123 361.269 229.212 361.396 229.26C361.523 229.308 361.664 229.332 361.818 229.332C361.934 229.332 362.041 229.323 362.137 229.306C362.236 229.289 362.312 229.273 362.363 229.26L362.677 230.715C362.577 230.749 362.435 230.787 362.25 230.828C362.068 230.87 361.845 230.894 361.581 230.9C361.115 230.914 360.695 230.844 360.321 230.689C359.948 230.532 359.651 230.288 359.432 229.959C359.216 229.63 359.109 229.219 359.113 228.725V221Z" fill="#212528"/>
</g>
<g filter="url(#filter2_d_422_414)">
<rect x="19.5" y="277.052" width="103.448" height="103.448" rx="16.5517" fill="white" shape-rendering="crispEdges"/>
<rect x="20.0172" y="277.569" width="102.414" height="102.414" rx="16.0345" stroke="#212528" stroke-width="1.03448" shape-rendering="crispEdges"/>
<path d="M83.2932 300.121H59.1553C57.2588 300.121 55.707 301.672 55.707 303.569V327.707C55.707 329.603 57.2588 331.155 59.1553 331.155H83.2932C85.1898 331.155 86.7415 329.603 86.7415 327.707V303.569C86.7415 301.672 85.1898 300.121 83.2932 300.121ZM59.1553 327.707V303.569H69.5001V327.707H59.1553ZM83.2932 327.707H72.9484V315.638H83.2932V327.707ZM83.2932 312.19H72.9484V303.569H83.2932V312.19Z" fill="#FF59EE"/>
<path d="M34.8001 349.67V348.071H43.2038V349.67H39.9483V358.604H38.0557V349.67H34.8001ZM47.0933 358.758C46.3012 358.758 45.6172 358.593 45.0412 358.264C44.4686 357.931 44.028 357.462 43.7194 356.855C43.4108 356.245 43.2566 355.526 43.2566 354.7C43.2566 353.887 43.4108 353.174 43.7194 352.56C44.0314 351.943 44.4669 351.463 45.0258 351.12C45.5846 350.774 46.2412 350.601 46.9955 350.601C47.4824 350.601 47.9419 350.68 48.3739 350.838C48.8093 350.992 49.1933 351.232 49.5259 351.558C49.8619 351.883 50.1259 352.298 50.3179 352.802C50.5099 353.303 50.6059 353.899 50.6059 354.592V355.163H44.1309V353.908H48.8213C48.8179 353.551 48.7407 353.234 48.5899 352.956C48.439 352.675 48.2281 352.454 47.9573 352.293C47.6898 352.132 47.3778 352.051 47.0213 352.051C46.6407 352.051 46.3064 352.144 46.0184 352.329C45.7304 352.511 45.5058 352.751 45.3446 353.049C45.1869 353.344 45.1063 353.668 45.1029 354.021V355.117C45.1029 355.576 45.1869 355.97 45.3549 356.299C45.5229 356.625 45.7578 356.875 46.0595 357.05C46.3612 357.222 46.7144 357.307 47.119 357.307C47.3898 357.307 47.635 357.27 47.8544 357.194C48.0739 357.115 48.2642 357.001 48.4253 356.85C48.5864 356.699 48.7082 356.512 48.7905 356.289L50.5288 356.485C50.4191 356.944 50.2099 357.345 49.9013 357.688C49.5962 358.027 49.2053 358.292 48.7287 358.48C48.2522 358.665 47.707 358.758 47.0933 358.758ZM52.181 358.604V350.704H53.9605V352.046H54.0531C54.2176 351.594 54.4902 351.24 54.8708 350.987C55.2514 350.73 55.7057 350.601 56.2337 350.601C56.7686 350.601 57.2194 350.731 57.5863 350.992C57.9566 351.249 58.2172 351.6 58.3681 352.046H58.4503C58.6252 351.607 58.9201 351.258 59.3349 350.997C59.7532 350.733 60.2487 350.601 60.8213 350.601C61.5482 350.601 62.1413 350.831 62.6008 351.29C63.0602 351.75 63.2899 352.42 63.2899 353.301V358.604H61.423V353.589C61.423 353.099 61.2927 352.74 61.0321 352.514C60.7716 352.284 60.4527 352.17 60.0755 352.17C59.6264 352.17 59.2749 352.31 59.0212 352.591C58.7709 352.869 58.6458 353.231 58.6458 353.676V358.604H56.82V353.512C56.82 353.104 56.6966 352.778 56.4497 352.535C56.2063 352.291 55.8874 352.17 55.4931 352.17C55.2257 352.17 54.9822 352.238 54.7628 352.375C54.5434 352.509 54.3685 352.699 54.2382 352.946C54.1079 353.19 54.0428 353.474 54.0428 353.8V358.604H52.181ZM65.1787 361.566V350.704H67.0096V352.01H67.1176C67.2136 351.818 67.3491 351.614 67.5239 351.398C67.6988 351.179 67.9354 350.992 68.2337 350.838C68.532 350.68 68.9125 350.601 69.3754 350.601C69.9857 350.601 70.536 350.757 71.0263 351.069C71.5201 351.378 71.9109 351.835 72.1989 352.442C72.4904 353.046 72.6361 353.786 72.6361 354.664C72.6361 355.531 72.4938 356.269 72.2092 356.875C71.9246 357.482 71.5372 357.945 71.0469 358.264C70.5566 358.583 70.0011 358.742 69.3806 358.742C68.928 358.742 68.5525 358.667 68.2542 358.516C67.9559 358.365 67.7159 358.184 67.5342 357.971C67.3559 357.755 67.2171 357.551 67.1176 357.359H67.0405V361.566H65.1787ZM67.0045 354.654C67.0045 355.165 67.0765 355.612 67.2205 355.996C67.3679 356.38 67.5788 356.68 67.8531 356.896C68.1308 357.109 68.4668 357.215 68.8611 357.215C69.2726 357.215 69.6171 357.105 69.8949 356.886C70.1726 356.663 70.3817 356.359 70.5223 355.975C70.6663 355.588 70.7383 355.147 70.7383 354.654C70.7383 354.163 70.668 353.728 70.5274 353.347C70.3869 352.967 70.1777 352.668 69.9 352.452C69.6223 352.236 69.276 352.128 68.8611 352.128C68.4634 352.128 68.1257 352.233 67.8479 352.442C67.5702 352.651 67.3593 352.944 67.2153 353.322C67.0748 353.699 67.0045 354.143 67.0045 354.654ZM76.0922 348.071V358.604H74.2304V348.071H76.0922ZM80.2799 358.763C79.7793 358.763 79.3285 358.674 78.9273 358.496C78.5296 358.314 78.2141 358.046 77.981 357.693C77.7513 357.34 77.6364 356.905 77.6364 356.387C77.6364 355.941 77.7187 355.573 77.8833 355.281C78.0478 354.99 78.2724 354.757 78.557 354.582C78.8416 354.407 79.1622 354.275 79.5187 354.186C79.8788 354.093 80.2508 354.026 80.6348 353.985C81.0977 353.937 81.4731 353.894 81.7611 353.857C82.0491 353.815 82.2583 353.754 82.3886 353.671C82.5223 353.586 82.5891 353.454 82.5891 353.275V353.244C82.5891 352.857 82.4743 352.557 82.2445 352.344C82.0148 352.132 81.684 352.026 81.2519 352.026C80.7959 352.026 80.4342 352.125 80.1668 352.324C79.9028 352.523 79.7245 352.758 79.6319 353.028L77.8935 352.782C78.0307 352.302 78.257 351.9 78.5724 351.578C78.8879 351.252 79.2736 351.009 79.7296 350.848C80.1856 350.683 80.6896 350.601 81.2417 350.601C81.6222 350.601 82.0011 350.646 82.3783 350.735C82.7554 350.824 83.1 350.971 83.412 351.177C83.724 351.379 83.9743 351.655 84.1629 352.005C84.3549 352.355 84.4509 352.792 84.4509 353.316V358.604H82.6611V357.518H82.5994C82.4863 357.738 82.3268 357.943 82.1211 358.136C81.9188 358.324 81.6634 358.477 81.3548 358.593C81.0496 358.706 80.6914 358.763 80.2799 358.763ZM80.7634 357.395C81.1371 357.395 81.4611 357.321 81.7354 357.174C82.0097 357.023 82.2205 356.824 82.368 356.577C82.5188 356.33 82.5943 356.061 82.5943 355.77V354.839C82.536 354.887 82.4366 354.931 82.296 354.973C82.1588 355.014 82.0045 355.05 81.8331 355.081C81.6617 355.111 81.492 355.139 81.3239 355.163C81.1559 355.187 81.0102 355.207 80.8868 355.225C80.6091 355.262 80.3605 355.324 80.141 355.41C79.9216 355.495 79.7485 355.615 79.6216 355.77C79.4947 355.921 79.4313 356.116 79.4313 356.356C79.4313 356.699 79.5565 356.958 79.8068 357.133C80.057 357.307 80.3759 357.395 80.7634 357.395ZM90.2677 350.704V352.144H85.7264V350.704H90.2677ZM86.8476 348.811H88.7093V356.227C88.7093 356.478 88.747 356.67 88.8225 356.803C88.9013 356.934 89.0042 357.023 89.1311 357.071C89.2579 357.119 89.3985 357.143 89.5528 357.143C89.6694 357.143 89.7757 357.134 89.8717 357.117C89.9711 357.1 90.0465 357.085 90.0979 357.071L90.4117 358.526C90.3122 358.561 90.1699 358.598 89.9848 358.64C89.8031 358.681 89.5802 358.705 89.3162 358.712C88.8499 358.725 88.4299 358.655 88.0562 358.501C87.6824 358.343 87.3859 358.099 87.1664 357.77C86.9504 357.441 86.8441 357.03 86.8476 356.536V348.811ZM95.2371 358.758C94.4451 358.758 93.7611 358.593 93.185 358.264C92.6125 357.931 92.1719 357.462 91.8633 356.855C91.5547 356.245 91.4004 355.526 91.4004 354.7C91.4004 353.887 91.5547 353.174 91.8633 352.56C92.1753 351.943 92.6107 351.463 93.1696 351.12C93.7285 350.774 94.3851 350.601 95.1394 350.601C95.6263 350.601 96.0857 350.68 96.5177 350.838C96.9532 350.992 97.3372 351.232 97.6698 351.558C98.0058 351.883 98.2698 352.298 98.4618 352.802C98.6538 353.303 98.7498 353.899 98.7498 354.592V355.163H92.2747V353.908H96.9652C96.9617 353.551 96.8846 353.234 96.7337 352.956C96.5829 352.675 96.372 352.454 96.1011 352.293C95.8337 352.132 95.5217 352.051 95.1651 352.051C94.7845 352.051 94.4502 352.144 94.1622 352.329C93.8742 352.511 93.6496 352.751 93.4885 353.049C93.3308 353.344 93.2502 353.668 93.2468 354.021V355.117C93.2468 355.576 93.3308 355.97 93.4988 356.299C93.6668 356.625 93.9016 356.875 94.2034 357.05C94.5051 357.222 94.8582 357.307 95.2628 357.307C95.5337 357.307 95.7788 357.27 95.9983 357.194C96.2177 357.115 96.408 357.001 96.5692 356.85C96.7303 356.699 96.852 356.512 96.9343 356.289L98.6727 356.485C98.5629 356.944 98.3538 357.345 98.0452 357.688C97.7401 358.027 97.3492 358.292 96.8726 358.48C96.396 358.665 95.8508 358.758 95.2371 358.758ZM106.568 352.792L104.871 352.977C104.823 352.806 104.739 352.644 104.619 352.494C104.503 352.343 104.345 352.221 104.146 352.128C103.947 352.036 103.704 351.99 103.416 351.99C103.028 351.99 102.703 352.074 102.439 352.242C102.178 352.41 102.049 352.627 102.053 352.895C102.049 353.124 102.133 353.311 102.305 353.455C102.48 353.599 102.768 353.718 103.169 353.81L104.516 354.098C105.264 354.259 105.819 354.515 106.183 354.865C106.55 355.214 106.735 355.672 106.738 356.238C106.735 356.735 106.589 357.174 106.301 357.554C106.016 357.931 105.62 358.226 105.113 358.439C104.606 358.652 104.023 358.758 103.364 358.758C102.397 358.758 101.619 358.556 101.029 358.151C100.44 357.743 100.088 357.175 99.9751 356.449L101.791 356.274C101.873 356.63 102.048 356.899 102.315 357.081C102.583 357.263 102.931 357.354 103.359 357.354C103.802 357.354 104.156 357.263 104.424 357.081C104.695 356.899 104.83 356.675 104.83 356.407C104.83 356.181 104.743 355.994 104.568 355.847C104.396 355.699 104.129 355.586 103.766 355.507L102.418 355.225C101.66 355.067 101.1 354.801 100.736 354.427C100.373 354.05 100.193 353.574 100.196 352.998C100.193 352.511 100.325 352.089 100.592 351.732C100.863 351.372 101.239 351.095 101.719 350.899C102.202 350.7 102.759 350.601 103.39 350.601C104.316 350.601 105.044 350.798 105.576 351.192C106.111 351.587 106.442 352.12 106.568 352.792Z" fill="#212528"/>
</g>
<g filter="url(#filter3_d_422_414)">
<rect x="147.776" y="277.052" width="231.724" height="103.448" rx="16.5517" fill="white" shape-rendering="crispEdges"/>
<rect x="148.293" y="277.569" width="230.69" height="102.414" rx="16.0345" stroke="#212528" stroke-width="1.03448" shape-rendering="crispEdges"/>
<path d="M263.638 332.448C265.534 332.448 267.086 330.897 267.086 329H260.19C260.19 330.897 261.741 332.448 263.638 332.448ZM273.983 322.103V313.483C273.983 308.19 271.172 303.759 266.224 302.586V301.414C266.224 299.983 265.069 298.828 263.638 298.828C262.207 298.828 261.052 299.983 261.052 301.414V302.586C256.121 303.759 253.293 308.172 253.293 313.483V322.103L249.845 325.552V327.276H277.431V325.552L273.983 322.103ZM270.534 323.828H256.741V313.483C256.741 309.207 259.345 305.724 263.638 305.724C267.931 305.724 270.534 309.207 270.534 313.483V323.828ZM256.017 301.552L253.552 299.086C249.414 302.241 246.69 307.103 246.448 312.621H249.897C250.155 308.052 252.5 304.052 256.017 301.552ZM277.379 312.621H280.828C280.569 307.103 277.845 302.241 273.724 299.086L271.276 301.552C274.759 304.052 277.121 308.052 277.379 312.621Z" fill="#0074FF"/>
<path d="M227.177 358.604V348.071H231.127C231.936 348.071 232.615 348.211 233.164 348.492C233.716 348.773 234.132 349.168 234.413 349.675C234.698 350.179 234.84 350.767 234.84 351.439C234.84 352.115 234.696 352.701 234.408 353.198C234.124 353.692 233.704 354.074 233.148 354.345C232.593 354.613 231.91 354.746 231.101 354.746H228.288V353.162H230.844C231.317 353.162 231.705 353.097 232.006 352.967C232.308 352.833 232.531 352.639 232.675 352.386C232.822 352.128 232.896 351.813 232.896 351.439C232.896 351.066 232.822 350.747 232.675 350.483C232.528 350.215 232.303 350.013 232.001 349.876C231.7 349.735 231.31 349.665 230.834 349.665H229.085V358.604H227.177ZM232.618 353.831L235.226 358.604H233.097L230.535 353.831H232.618ZM239.898 358.758C239.106 358.758 238.422 358.593 237.846 358.264C237.274 357.931 236.833 357.462 236.525 356.855C236.216 356.245 236.062 355.526 236.062 354.7C236.062 353.887 236.216 353.174 236.525 352.56C236.837 351.943 237.272 351.463 237.831 351.12C238.39 350.774 239.046 350.601 239.801 350.601C240.288 350.601 240.747 350.68 241.179 350.838C241.614 350.992 241.998 351.232 242.331 351.558C242.667 351.883 242.931 352.298 243.123 352.802C243.315 353.303 243.411 353.899 243.411 354.592V355.163H236.936V353.908H241.626C241.623 353.551 241.546 353.234 241.395 352.956C241.244 352.675 241.033 352.454 240.762 352.293C240.495 352.132 240.183 352.051 239.826 352.051C239.446 352.051 239.111 352.144 238.823 352.329C238.535 352.511 238.311 352.751 238.15 353.049C237.992 353.344 237.911 353.668 237.908 354.021V355.117C237.908 355.576 237.992 355.97 238.16 356.299C238.328 356.625 238.563 356.875 238.865 357.05C239.166 357.222 239.519 357.307 239.924 357.307C240.195 357.307 240.44 357.27 240.66 357.194C240.879 357.115 241.069 357.001 241.23 356.85C241.392 356.699 241.513 356.512 241.596 356.289L243.334 356.485C243.224 356.944 243.015 357.345 242.706 357.688C242.401 358.027 242.01 358.292 241.534 358.48C241.057 358.665 240.512 358.758 239.898 358.758ZM244.986 358.604V350.704H246.766V352.046H246.858C247.023 351.594 247.295 351.24 247.676 350.987C248.056 350.73 248.511 350.601 249.039 350.601C249.574 350.601 250.025 350.731 250.391 350.992C250.762 351.249 251.022 351.6 251.173 352.046H251.255C251.43 351.607 251.725 351.258 252.14 350.997C252.558 350.733 253.054 350.601 253.626 350.601C254.353 350.601 254.946 350.831 255.406 351.29C255.865 351.75 256.095 352.42 256.095 353.301V358.604H254.228V353.589C254.228 353.099 254.098 352.74 253.837 352.514C253.577 352.284 253.258 352.17 252.881 352.17C252.431 352.17 252.08 352.31 251.826 352.591C251.576 352.869 251.451 353.231 251.451 353.676V358.604H249.625V353.512C249.625 353.104 249.502 352.778 249.255 352.535C249.011 352.291 248.692 352.17 248.298 352.17C248.031 352.17 247.787 352.238 247.568 352.375C247.348 352.509 247.174 352.699 247.043 352.946C246.913 353.19 246.848 353.474 246.848 353.8V358.604H244.986ZM257.984 358.604V350.704H259.846V358.604H257.984ZM258.92 349.583C258.625 349.583 258.371 349.485 258.159 349.289C257.946 349.091 257.84 348.852 257.84 348.575C257.84 348.293 257.946 348.055 258.159 347.86C258.371 347.661 258.625 347.561 258.92 347.561C259.218 347.561 259.472 347.661 259.681 347.86C259.894 348.055 260 348.293 260 348.575C260 348.852 259.894 349.091 259.681 349.289C259.472 349.485 259.218 349.583 258.92 349.583ZM263.622 353.975V358.604H261.76V350.704H263.54V352.046H263.632C263.814 351.604 264.104 351.252 264.501 350.992C264.902 350.731 265.398 350.601 265.988 350.601C266.533 350.601 267.008 350.718 267.412 350.951C267.82 351.184 268.136 351.522 268.359 351.964C268.585 352.406 268.696 352.943 268.693 353.574V358.604H266.831V353.862C266.831 353.334 266.694 352.92 266.42 352.622C266.149 352.324 265.773 352.175 265.293 352.175C264.968 352.175 264.678 352.247 264.424 352.391C264.174 352.531 263.977 352.735 263.833 353.003C263.692 353.27 263.622 353.594 263.622 353.975ZM273.517 358.742C272.896 358.742 272.341 358.583 271.851 358.264C271.36 357.945 270.973 357.482 270.688 356.875C270.404 356.269 270.261 355.531 270.261 354.664C270.261 353.786 270.405 353.046 270.693 352.442C270.985 351.835 271.378 351.378 271.871 351.069C272.365 350.757 272.915 350.601 273.522 350.601C273.985 350.601 274.366 350.68 274.664 350.838C274.962 350.992 275.199 351.179 275.374 351.398C275.549 351.614 275.684 351.818 275.78 352.01H275.857V348.071H277.724V358.604H275.893V357.359H275.78C275.684 357.551 275.545 357.755 275.363 357.971C275.182 358.184 274.942 358.365 274.643 358.516C274.345 358.667 273.97 358.742 273.517 358.742ZM274.036 357.215C274.431 357.215 274.767 357.109 275.044 356.896C275.322 356.68 275.533 356.38 275.677 355.996C275.821 355.612 275.893 355.165 275.893 354.654C275.893 354.143 275.821 353.699 275.677 353.322C275.537 352.944 275.327 352.651 275.05 352.442C274.775 352.233 274.438 352.128 274.036 352.128C273.622 352.128 273.275 352.236 272.998 352.452C272.72 352.668 272.511 352.967 272.37 353.347C272.23 353.728 272.159 354.163 272.159 354.654C272.159 355.147 272.23 355.588 272.37 355.975C272.514 356.359 272.725 356.663 273.003 356.886C273.284 357.105 273.628 357.215 274.036 357.215ZM283.205 358.758C282.413 358.758 281.729 358.593 281.153 358.264C280.581 357.931 280.14 357.462 279.831 356.855C279.523 356.245 279.368 355.526 279.368 354.7C279.368 353.887 279.523 353.174 279.831 352.56C280.143 351.943 280.579 351.463 281.138 351.12C281.697 350.774 282.353 350.601 283.107 350.601C283.594 350.601 284.054 350.68 284.486 350.838C284.921 350.992 285.305 351.232 285.638 351.558C285.974 351.883 286.238 352.298 286.43 352.802C286.622 353.303 286.718 353.899 286.718 354.592V355.163H280.243V353.908H284.933C284.93 353.551 284.853 353.234 284.702 352.956C284.551 352.675 284.34 352.454 284.069 352.293C283.802 352.132 283.49 352.051 283.133 352.051C282.753 352.051 282.418 352.144 282.13 352.329C281.842 352.511 281.618 352.751 281.457 353.049C281.299 353.344 281.218 353.668 281.215 354.021V355.117C281.215 355.576 281.299 355.97 281.467 356.299C281.635 356.625 281.87 356.875 282.171 357.05C282.473 357.222 282.826 357.307 283.231 357.307C283.502 357.307 283.747 357.27 283.966 357.194C284.186 357.115 284.376 357.001 284.537 356.85C284.698 356.699 284.82 356.512 284.902 356.289L286.641 356.485C286.531 356.944 286.322 357.345 286.013 357.688C285.708 358.027 285.317 358.292 284.841 358.48C284.364 358.665 283.819 358.758 283.205 358.758ZM288.293 358.604V350.704H290.098V352.02H290.18C290.324 351.564 290.571 351.213 290.921 350.966C291.274 350.716 291.677 350.591 292.13 350.591C292.232 350.591 292.347 350.596 292.474 350.606C292.604 350.613 292.712 350.625 292.798 350.642V352.355C292.719 352.327 292.594 352.303 292.423 352.283C292.255 352.259 292.092 352.247 291.934 352.247C291.595 352.247 291.29 352.32 291.019 352.468C290.751 352.612 290.54 352.812 290.386 353.07C290.232 353.327 290.155 353.623 290.155 353.959V358.604H288.293ZM300.279 352.792L298.582 352.977C298.534 352.806 298.45 352.644 298.33 352.494C298.213 352.343 298.055 352.221 297.856 352.128C297.658 352.036 297.414 351.99 297.126 351.99C296.739 351.99 296.413 352.074 296.149 352.242C295.888 352.41 295.76 352.627 295.763 352.895C295.76 353.124 295.844 353.311 296.015 353.455C296.19 353.599 296.478 353.718 296.879 353.81L298.227 354.098C298.974 354.259 299.53 354.515 299.893 354.865C300.26 355.214 300.445 355.672 300.448 356.238C300.445 356.735 300.299 357.174 300.011 357.554C299.727 357.931 299.331 358.226 298.823 358.439C298.316 358.652 297.733 358.758 297.075 358.758C296.108 358.758 295.329 358.556 294.74 358.151C294.15 357.743 293.799 357.175 293.685 356.449L295.501 356.274C295.583 356.63 295.758 356.899 296.025 357.081C296.293 357.263 296.641 357.354 297.07 357.354C297.512 357.354 297.867 357.263 298.134 357.081C298.405 356.899 298.54 356.675 298.54 356.407C298.54 356.181 298.453 355.994 298.278 355.847C298.107 355.699 297.839 355.586 297.476 355.507L296.128 355.225C295.371 355.067 294.81 354.801 294.447 354.427C294.083 354.05 293.903 353.574 293.907 352.998C293.903 352.511 294.035 352.089 294.303 351.732C294.573 351.372 294.949 351.095 295.429 350.899C295.912 350.7 296.469 350.601 297.1 350.601C298.026 350.601 298.755 350.798 299.286 351.192C299.821 351.587 300.152 352.12 300.279 352.792Z" fill="#212528"/>
</g>
<g filter="url(#filter4_d_422_414)">
<rect x="275.32" y="20.5" width="103.448" height="103.448" rx="16.5517" fill="white" shape-rendering="crispEdges"/>
<rect x="275.837" y="21.0172" width="102.414" height="102.414" rx="16.0345" stroke="#212528" stroke-width="1.03448" shape-rendering="crispEdges"/>
<path d="M327.683 69.7924H326.16C325.785 69.7924 325.598 69.6048 325.598 69.2296V66.5482H325.035C323.468 66.5482 322.232 66.0958 321.327 65.191C320.423 64.2641 319.97 62.9951 319.97 61.3841V60.6227C319.97 60.2255 320.169 60.0268 320.566 60.0268H322.651C323.027 60.0268 323.214 60.2255 323.214 60.6227V61.1193C323.214 62.0461 323.424 62.7193 323.843 63.1386C324.263 63.5358 324.947 63.7344 325.896 63.7344H327.617C328.544 63.7344 329.217 63.5248 329.636 63.1055C330.056 62.6641 330.265 61.9579 330.265 60.9868V59.9275C330.265 59.0006 329.978 58.3717 329.405 58.0406C328.831 57.6875 327.97 57.4779 326.823 57.4117C325.189 57.3455 324.053 57.2241 323.413 57.0475C322.773 56.871 322.188 56.5951 321.658 56.2199C320.533 55.4475 319.97 54.0241 319.97 51.9496V50.3937C319.97 48.7827 320.411 47.5248 321.294 46.6199C322.199 45.693 323.446 45.2296 325.035 45.2296H325.598V42.5151C325.598 42.1399 325.785 41.9524 326.16 41.9524H327.683C328.058 41.9524 328.246 42.1399 328.246 42.5151V45.2296H328.411C329.912 45.2296 331.093 45.693 331.954 46.6199C332.836 47.5468 333.278 48.8048 333.278 50.3937V51.122C333.278 51.5193 333.09 51.7179 332.715 51.7179H330.629C330.232 51.7179 330.034 51.5193 330.034 51.122V50.6917C330.034 49.7648 329.824 49.1027 329.405 48.7055C329.007 48.2861 328.334 48.0765 327.385 48.0765H325.863C324.891 48.0765 324.207 48.2972 323.81 48.7386C323.413 49.1579 323.214 49.8861 323.214 50.9234V52.0489C323.214 52.8875 323.49 53.4724 324.042 53.8034C324.616 54.1344 325.487 54.333 326.657 54.3993L328.345 54.4655C329.89 54.5537 331.137 54.9951 332.086 55.7896C333.035 56.562 333.509 57.8972 333.509 59.7951V61.3841C333.509 62.9951 333.046 64.2641 332.119 65.191C331.214 66.0958 329.978 66.5482 328.411 66.5482H328.246V69.2296C328.246 69.6048 328.058 69.7924 327.683 69.7924Z" fill="#74FE70"/>
<path d="M310.375 80.6873H312.71L315.837 88.3195H315.96L319.087 80.6873H321.422V91.2202H319.591V83.984H319.493L316.582 91.1894H315.214L312.303 83.9685H312.206V91.2202H310.375V80.6873ZM328.453 87.8978V83.3205H330.314V91.2202H328.509V89.8162H328.427C328.249 90.2585 327.955 90.6202 327.547 90.9013C327.143 91.1825 326.644 91.3231 326.051 91.3231C325.533 91.3231 325.075 91.2082 324.678 90.9785C324.283 90.7453 323.975 90.4076 323.752 89.9653C323.529 89.5196 323.418 88.9813 323.418 88.3504V83.3205H325.279V88.0624C325.279 88.563 325.416 88.9607 325.691 89.2556C325.965 89.5504 326.325 89.6979 326.771 89.6979C327.045 89.6979 327.311 89.631 327.568 89.4973C327.825 89.3636 328.036 89.1647 328.201 88.9007C328.369 88.6333 328.453 88.299 328.453 87.8978ZM334.091 80.6873V91.2202H332.229V80.6873H334.091ZM339.95 83.3205V84.7606H335.408V83.3205H339.95ZM336.53 81.4279H338.391V88.8441C338.391 89.0944 338.429 89.2864 338.505 89.4202C338.583 89.5504 338.686 89.6396 338.813 89.6876C338.94 89.7356 339.081 89.7596 339.235 89.7596C339.351 89.7596 339.458 89.751 339.554 89.7339C339.653 89.7167 339.729 89.7013 339.78 89.6876L340.094 91.1431C339.994 91.1774 339.852 91.2151 339.667 91.2562C339.485 91.2974 339.262 91.3214 338.998 91.3282C338.532 91.3419 338.112 91.2716 337.738 91.1174C337.365 90.9596 337.068 90.7162 336.849 90.387C336.633 90.0579 336.526 89.6464 336.53 89.1527V81.4279ZM341.507 91.2202V83.3205H343.369V91.2202H341.507ZM342.443 82.1993C342.148 82.1993 341.894 82.1016 341.682 81.9062C341.469 81.7073 341.363 81.469 341.363 81.1913C341.363 80.9102 341.469 80.6719 341.682 80.4764C341.894 80.2776 342.148 80.1781 342.443 80.1781C342.741 80.1781 342.995 80.2776 343.204 80.4764C343.417 80.6719 343.523 80.9102 343.523 81.1913C343.523 81.469 343.417 81.7073 343.204 81.9062C342.995 82.1016 342.741 82.1993 342.443 82.1993ZM304.462 102.241H302.539C302.484 101.926 302.383 101.646 302.235 101.403C302.088 101.156 301.904 100.947 301.685 100.775C301.466 100.604 301.215 100.475 300.934 100.39C300.656 100.3 300.356 100.256 300.034 100.256C299.462 100.256 298.954 100.4 298.512 100.688C298.069 100.973 297.723 101.391 297.473 101.943C297.223 102.491 297.097 103.162 297.097 103.954C297.097 104.759 297.223 105.438 297.473 105.99C297.727 106.539 298.073 106.954 298.512 107.235C298.954 107.513 299.46 107.652 300.029 107.652C300.344 107.652 300.639 107.61 300.914 107.528C301.191 107.442 301.44 107.317 301.659 107.153C301.882 106.988 302.069 106.786 302.22 106.546C302.374 106.306 302.48 106.032 302.539 105.723L304.462 105.733C304.39 106.234 304.234 106.704 303.994 107.142C303.758 107.581 303.447 107.969 303.063 108.305C302.679 108.637 302.23 108.898 301.716 109.086C301.202 109.272 300.631 109.364 300.003 109.364C299.078 109.364 298.251 109.15 297.524 108.721C296.797 108.293 296.225 107.674 295.807 106.865C295.388 106.056 295.179 105.085 295.179 103.954C295.179 102.819 295.39 101.849 295.812 101.043C296.233 100.234 296.808 99.6148 297.535 99.1862C298.261 98.7576 299.084 98.5433 300.003 98.5433C300.59 98.5433 301.135 98.6256 301.639 98.7902C302.143 98.9547 302.592 99.1965 302.986 99.5153C303.381 99.8308 303.705 100.218 303.958 100.678C304.215 101.134 304.383 101.655 304.462 102.241ZM311.162 105.898V101.321H313.024V109.22H311.219V107.816H311.137C310.958 108.258 310.665 108.62 310.257 108.901C309.853 109.182 309.354 109.323 308.761 109.323C308.243 109.323 307.785 109.208 307.387 108.978C306.993 108.745 306.684 108.408 306.462 107.965C306.239 107.52 306.127 106.981 306.127 106.35V101.321H307.989V106.062C307.989 106.563 308.126 106.961 308.401 107.256C308.675 107.55 309.035 107.698 309.481 107.698C309.755 107.698 310.021 107.631 310.278 107.497C310.535 107.364 310.746 107.165 310.91 106.901C311.078 106.633 311.162 106.299 311.162 105.898ZM314.939 109.22V101.321H316.744V102.637H316.826C316.97 102.181 317.217 101.83 317.567 101.583C317.92 101.333 318.323 101.207 318.775 101.207C318.878 101.207 318.993 101.213 319.12 101.223C319.25 101.23 319.358 101.242 319.444 101.259V102.971C319.365 102.944 319.24 102.92 319.068 102.899C318.9 102.875 318.738 102.863 318.58 102.863C318.24 102.863 317.935 102.937 317.664 103.085C317.397 103.229 317.186 103.429 317.032 103.686C316.878 103.943 316.8 104.24 316.8 104.576V109.22H314.939ZM320.681 109.22V101.321H322.486V102.637H322.568C322.712 102.181 322.959 101.83 323.309 101.583C323.662 101.333 324.065 101.207 324.517 101.207C324.62 101.207 324.735 101.213 324.862 101.223C324.992 101.23 325.1 101.242 325.186 101.259V102.971C325.107 102.944 324.982 102.92 324.811 102.899C324.643 102.875 324.48 102.863 324.322 102.863C323.983 102.863 323.677 102.937 323.407 103.085C323.139 103.229 322.928 103.429 322.774 103.686C322.62 103.943 322.543 104.24 322.543 104.576V109.22H320.681ZM329.595 109.375C328.803 109.375 328.119 109.21 327.543 108.881C326.97 108.548 326.53 108.078 326.221 107.472C325.913 106.861 325.758 106.143 325.758 105.317C325.758 104.504 325.913 103.791 326.221 103.177C326.533 102.56 326.969 102.08 327.527 101.737C328.086 101.391 328.743 101.218 329.497 101.218C329.984 101.218 330.444 101.297 330.876 101.454C331.311 101.609 331.695 101.849 332.028 102.174C332.364 102.5 332.628 102.915 332.82 103.419C333.012 103.919 333.108 104.516 333.108 105.209V105.78H326.633V104.525H331.323C331.32 104.168 331.242 103.851 331.092 103.573C330.941 103.292 330.73 103.071 330.459 102.91C330.192 102.749 329.88 102.668 329.523 102.668C329.142 102.668 328.808 102.761 328.52 102.946C328.232 103.127 328.007 103.367 327.846 103.666C327.689 103.961 327.608 104.285 327.605 104.638V105.733C327.605 106.193 327.689 106.587 327.857 106.916C328.025 107.242 328.259 107.492 328.561 107.667C328.863 107.838 329.216 107.924 329.621 107.924C329.892 107.924 330.137 107.886 330.356 107.811C330.576 107.732 330.766 107.617 330.927 107.466C331.088 107.316 331.21 107.129 331.292 106.906L333.03 107.101C332.921 107.561 332.712 107.962 332.403 108.305C332.098 108.644 331.707 108.908 331.23 109.097C330.754 109.282 330.209 109.375 329.595 109.375ZM336.544 104.591V109.22H334.683V101.321H336.462V102.663H336.555C336.736 102.221 337.026 101.869 337.424 101.609C337.825 101.348 338.321 101.218 338.91 101.218C339.455 101.218 339.93 101.334 340.335 101.567C340.743 101.801 341.058 102.138 341.281 102.581C341.507 103.023 341.619 103.559 341.615 104.19V109.22H339.754V104.478C339.754 103.95 339.617 103.537 339.342 103.239C339.071 102.941 338.696 102.791 338.216 102.791C337.89 102.791 337.6 102.863 337.347 103.007C337.096 103.148 336.899 103.352 336.755 103.619C336.615 103.887 336.544 104.211 336.544 104.591ZM346.954 109.375C346.165 109.375 345.488 109.201 344.922 108.855C344.36 108.509 343.926 108.03 343.621 107.42C343.32 106.806 343.169 106.1 343.169 105.301C343.169 104.499 343.323 103.791 343.632 103.177C343.94 102.56 344.376 102.08 344.938 101.737C345.504 101.391 346.172 101.218 346.944 101.218C347.585 101.218 348.152 101.336 348.646 101.573C349.143 101.806 349.539 102.137 349.834 102.565C350.129 102.99 350.297 103.487 350.338 104.057H348.559C348.487 103.676 348.315 103.359 348.044 103.105C347.777 102.848 347.419 102.719 346.969 102.719C346.589 102.719 346.254 102.822 345.966 103.028C345.678 103.23 345.454 103.522 345.293 103.902C345.135 104.283 345.056 104.739 345.056 105.27C345.056 105.809 345.135 106.272 345.293 106.659C345.45 107.043 345.672 107.34 345.956 107.549C346.244 107.754 346.582 107.857 346.969 107.857C347.244 107.857 347.489 107.806 347.705 107.703C347.924 107.597 348.108 107.444 348.255 107.245C348.403 107.046 348.504 106.805 348.559 106.52H350.338C350.293 107.079 350.129 107.574 349.844 108.006C349.56 108.435 349.172 108.771 348.682 109.014C348.192 109.255 347.616 109.375 346.954 109.375ZM353.024 112.183C352.77 112.183 352.535 112.162 352.319 112.121C352.107 112.083 351.937 112.039 351.81 111.987L352.242 110.537C352.513 110.616 352.755 110.653 352.967 110.65C353.18 110.647 353.367 110.58 353.528 110.449C353.693 110.323 353.831 110.11 353.945 109.812L354.104 109.385L351.239 101.321H353.214L355.035 107.286H355.117L356.943 101.321H358.923L355.76 110.177C355.613 110.595 355.417 110.953 355.174 111.252C354.93 111.553 354.632 111.783 354.279 111.941C353.929 112.102 353.511 112.183 353.024 112.183Z" fill="#212528"/>
</g>
<defs>
<filter id="filter0_d_422_414" x="19.5" y="20.5" width="235.862" height="235.862" filterUnits="userSpaceOnUse" color-interpolation-filters="sRGB">
<feFlood flood-opacity="0" result="BackgroundImageFix"/>
<feColorMatrix in="SourceAlpha" type="matrix" values="0 0 0 0 0 0 0 0 0 0 0 0 0 0 0 0 0 0 127 0" result="hardAlpha"/>
<feOffset dx="4.13793" dy="4.13793"/>
<feComposite in2="hardAlpha" operator="out"/>
<feColorMatrix type="matrix" values="0 0 0 0 0.667568 0 0 0 0 0.805297 0 0 0 0 0.932432 0 0 0 1 0"/>
<feBlend mode="normal" in2="BackgroundImageFix" result="effect1_dropShadow_422_414"/>
<feBlend mode="normal" in="SourceGraphic" in2="effect1_dropShadow_422_414" result="shape"/>
</filter>
<filter id="filter1_d_422_414" x="276.052" y="148.776" width="107.586" height="107.586" filterUnits="userSpaceOnUse" color-interpolation-filters="sRGB">
<feFlood flood-opacity="0" result="BackgroundImageFix"/>
<feColorMatrix in="SourceAlpha" type="matrix" values="0 0 0 0 0 0 0 0 0 0 0 0 0 0 0 0 0 0 127 0" result="hardAlpha"/>
<feOffset dx="4.13793" dy="4.13793"/>
<feComposite in2="hardAlpha" operator="out"/>
<feColorMatrix type="matrix" values="0 0 0 0 0.932432 0 0 0 0 0.778811 0 0 0 0 0.667568 0 0 0 1 0"/>
<feBlend mode="normal" in2="BackgroundImageFix" result="effect1_dropShadow_422_414"/>
<feBlend mode="normal" in="SourceGraphic" in2="effect1_dropShadow_422_414" result="shape"/>
</filter>
<filter id="filter2_d_422_414" x="19.5" y="277.052" width="107.586" height="107.586" filterUnits="userSpaceOnUse" color-interpolation-filters="sRGB">
<feFlood flood-opacity="0" result="BackgroundImageFix"/>
<feColorMatrix in="SourceAlpha" type="matrix" values="0 0 0 0 0 0 0 0 0 0 0 0 0 0 0 0 0 0 127 0" result="hardAlpha"/>
<feOffset dx="4.13793" dy="4.13793"/>
<feComposite in2="hardAlpha" operator="out"/>
<feColorMatrix type="matrix" values="0 0 0 0 0.933333 0 0 0 0 0.666667 0 0 0 0 0.905882 0 0 0 1 0"/>
<feBlend mode="normal" in2="BackgroundImageFix" result="effect1_dropShadow_422_414"/>
<feBlend mode="normal" in="SourceGraphic" in2="effect1_dropShadow_422_414" result="shape"/>
</filter>
<filter id="filter3_d_422_414" x="147.776" y="277.052" width="235.862" height="107.586" filterUnits="userSpaceOnUse" color-interpolation-filters="sRGB">
<feFlood flood-opacity="0" result="BackgroundImageFix"/>
<feColorMatrix in="SourceAlpha" type="matrix" values="0 0 0 0 0 0 0 0 0 0 0 0 0 0 0 0 0 0 127 0" result="hardAlpha"/>
<feOffset dx="4.13793" dy="4.13793"/>
<feComposite in2="hardAlpha" operator="out"/>
<feColorMatrix type="matrix" values="0 0 0 0 0.6 0 0 0 0 0.781961 0 0 0 0 1 0 0 0 1 0"/>
<feBlend mode="normal" in2="BackgroundImageFix" result="effect1_dropShadow_422_414"/>
<feBlend mode="normal" in="SourceGraphic" in2="effect1_dropShadow_422_414" result="shape"/>
</filter>
<filter id="filter4_d_422_414" x="275.32" y="20.5" width="107.586" height="107.586" filterUnits="userSpaceOnUse" color-interpolation-filters="sRGB">
<feFlood flood-opacity="0" result="BackgroundImageFix"/>
<feColorMatrix in="SourceAlpha" type="matrix" values="0 0 0 0 0 0 0 0 0 0 0 0 0 0 0 0 0 0 127 0" result="hardAlpha"/>
<feOffset dx="4.13793" dy="4.13793"/>
<feComposite in2="hardAlpha" operator="out"/>
<feColorMatrix type="matrix" values="0 0 0 0 0.67451 0 0 0 0 0.933333 0 0 0 0 0.666667 0 0 0 1 0"/>
<feBlend mode="normal" in2="BackgroundImageFix" result="effect1_dropShadow_422_414"/>
<feBlend mode="normal" in="SourceGraphic" in2="effect1_dropShadow_422_414" result="shape"/>
</filter>
</defs>
</svg>
