<svg width="400" height="400" viewBox="0 0 400 400" fill="none" xmlns="http://www.w3.org/2000/svg">
<g clip-path="url(#clip0_422_497)">
<path d="M170.986 75.5927H165.698V99.6693H170.986V75.5927Z" fill="#1A237E"/>
<path fill-rule="evenodd" clip-rule="evenodd" d="M200.164 99.6693H191.52C184.368 99.6693 178.028 95.4865 178.028 87.6988C178.028 78.8912 184.503 75.5927 192.232 75.5927H200.164V86.8446H194.875V80.4881H191.757C187.282 80.4881 183.519 82.6984 183.519 87.4224C183.519 92.8976 187.215 94.7681 192.13 94.7681H200.164V99.6693Z" fill="#1A237E"/>
<path fill-rule="evenodd" clip-rule="evenodd" d="M237.738 99.6684H243.025V89.2668H253.297V99.6684H258.585V75.5908H253.297V84.5689H243.025V75.5908H237.738V99.6684Z" fill="#1A237E"/>
<path fill-rule="evenodd" clip-rule="evenodd" d="M208.727 75.5974H217.371C224.524 75.5974 230.862 79.7801 230.862 87.5678C230.862 96.3763 224.387 99.674 216.658 99.674H208.726V88.422H214.014V94.7786H217.132C221.607 94.7786 225.37 92.5682 225.37 87.8442C225.37 82.3689 221.675 80.4986 216.759 80.4986H208.725L208.727 75.5974Z" fill="#1A237E"/>
<path fill-rule="evenodd" clip-rule="evenodd" d="M158.335 85.4954H149.399V90.1549H153.496V93.8773C152.035 94.6471 150.404 95.0365 148.754 95.0098C144.463 95.0098 141.657 91.9039 141.657 87.6316C141.657 83.3592 144.464 80.2532 148.754 80.2532C149.781 80.1853 150.81 80.3442 151.769 80.7189C152.728 81.0936 153.593 81.6747 154.302 82.4211L157.85 78.5379C155.56 76.4018 152.366 75.5928 148.754 75.5928C141.627 75.5928 136.431 80.286 136.431 87.6316C136.431 94.9771 141.624 99.6703 148.754 99.6703C152.079 99.728 155.368 98.9725 158.335 97.4696V85.4954Z" fill="#1A237E"/>
</g>
<g filter="url(#filter0_d_422_497)">
<rect x="19.896" y="232.578" width="82.7767" height="82.7767" rx="10.8841" fill="white" shape-rendering="crispEdges"/>
<rect x="20.2361" y="232.919" width="82.0965" height="82.0965" rx="10.544" stroke="#212528" stroke-width="0.680259" shape-rendering="crispEdges"/>
<path d="M63.6562 239.886H54.1683C52.8638 239.886 51.7964 240.953 51.7964 242.258V261.234C51.7964 262.538 52.8638 263.606 54.1683 263.606H68.4001C69.7046 263.606 70.772 262.538 70.772 261.234V247.002L63.6562 239.886ZM54.1683 261.234V242.258H62.4702V247.002H68.4001V261.234H54.1683ZM60.0982 260.048H62.4702V258.862H63.6562C64.3084 258.862 64.8421 258.328 64.8421 257.676V254.118C64.8421 253.465 64.3084 252.932 63.6562 252.932H60.0982V251.746H64.8421V249.374H62.4702V248.188H60.0982V249.374H58.9122C58.26 249.374 57.7263 249.907 57.7263 250.56V254.118C57.7263 254.77 58.26 255.304 58.9122 255.304H62.4702V256.49H57.7263V258.862H60.0982V260.048Z" fill="#F2800D"/>
<path d="M33.788 281.42H32.2574L35.0442 273.504H36.8144L39.605 281.42H38.0744L35.9602 275.127H35.8983L33.788 281.42ZM33.8382 278.316H38.0126V279.468H33.8382V278.316ZM44.3697 278.923V275.483H45.7689V281.42H44.4122V280.365H44.3504C44.2164 280.697 43.9961 280.969 43.6894 281.18C43.3854 281.391 43.0105 281.497 42.5647 281.497C42.1756 281.497 41.8316 281.411 41.5327 281.238C41.2364 281.063 41.0045 280.809 40.837 280.477C40.6695 280.142 40.5857 279.737 40.5857 279.263V275.483H41.9849V279.047C41.9849 279.423 42.088 279.722 42.2941 279.943C42.5003 280.165 42.7708 280.276 43.1058 280.276C43.3119 280.276 43.5116 280.225 43.7049 280.125C43.8981 280.024 44.0566 279.875 44.1803 279.677C44.3066 279.476 44.3697 279.224 44.3697 278.923ZM50.1722 275.483V276.565H46.7593V275.483H50.1722ZM47.6019 274.061H49.001V279.634C49.001 279.822 49.0294 279.966 49.0861 280.067C49.1453 280.165 49.2226 280.232 49.318 280.268C49.4133 280.304 49.519 280.322 49.6349 280.322C49.7225 280.322 49.8024 280.316 49.8746 280.303C49.9493 280.29 50.006 280.278 50.0446 280.268L50.2804 281.362C50.2057 281.387 50.0987 281.416 49.9596 281.447C49.823 281.478 49.6555 281.496 49.4571 281.501C49.1067 281.511 48.791 281.458 48.5102 281.342C48.2293 281.224 48.0064 281.041 47.8415 280.794C47.6792 280.546 47.5993 280.237 47.6019 279.866V274.061ZM53.8682 281.536C53.2884 281.536 52.786 281.408 52.3608 281.153C51.9356 280.898 51.6058 280.541 51.3713 280.082C51.1394 279.624 51.0235 279.088 51.0235 278.474C51.0235 277.861 51.1394 277.324 51.3713 276.863C51.6058 276.401 51.9356 276.043 52.3608 275.788C52.786 275.533 53.2884 275.406 53.8682 275.406C54.4479 275.406 54.9504 275.533 55.3756 275.788C55.8007 276.043 56.1293 276.401 56.3612 276.863C56.5957 277.324 56.7129 277.861 56.7129 278.474C56.7129 279.088 56.5957 279.624 56.3612 280.082C56.1293 280.541 55.8007 280.898 55.3756 281.153C54.9504 281.408 54.4479 281.536 53.8682 281.536ZM53.8759 280.415C54.1903 280.415 54.4531 280.328 54.6644 280.156C54.8757 279.981 55.0329 279.746 55.1359 279.452C55.2416 279.159 55.2944 278.831 55.2944 278.471C55.2944 278.107 55.2416 277.779 55.1359 277.485C55.0329 277.189 54.8757 276.953 54.6644 276.778C54.4531 276.602 54.1903 276.515 53.8759 276.515C53.5538 276.515 53.2858 276.602 53.072 276.778C52.8607 276.953 52.7022 277.189 52.5966 277.485C52.4935 277.779 52.442 278.107 52.442 278.471C52.442 278.831 52.4935 279.159 52.5966 279.452C52.7022 279.746 52.8607 279.981 53.072 280.156C53.2858 280.328 53.5538 280.415 53.8759 280.415ZM57.9005 281.42V275.483H59.2378V276.492H59.3074C59.431 276.152 59.6359 275.886 59.9219 275.695C60.2079 275.502 60.5493 275.406 60.9462 275.406C61.3481 275.406 61.687 275.503 61.9627 275.699C62.241 275.893 62.4368 276.157 62.5502 276.492H62.612C62.7434 276.162 62.965 275.899 63.2768 275.703C63.5912 275.505 63.9635 275.406 64.3938 275.406C64.9401 275.406 65.3859 275.578 65.7312 275.923C66.0764 276.269 66.2491 276.773 66.2491 277.435V281.42H64.846V277.651C64.846 277.283 64.7481 277.013 64.5523 276.843C64.3565 276.671 64.1168 276.584 63.8334 276.584C63.4958 276.584 63.2317 276.69 63.041 276.901C62.8529 277.11 62.7589 277.382 62.7589 277.717V281.42H61.3868V277.593C61.3868 277.287 61.294 277.042 61.1085 276.859C60.9255 276.676 60.6859 276.584 60.3896 276.584C60.1886 276.584 60.0056 276.636 59.8407 276.739C59.6758 276.84 59.5444 276.983 59.4465 277.168C59.3486 277.351 59.2996 277.565 59.2996 277.81V281.42H57.9005ZM69.3769 281.539C69.0007 281.539 68.6619 281.473 68.3604 281.339C68.0615 281.202 67.8244 281.001 67.6492 280.736C67.4766 280.47 67.3903 280.143 67.3903 279.754C67.3903 279.419 67.4521 279.142 67.5758 278.923C67.6995 278.704 67.8682 278.529 68.0821 278.397C68.296 278.266 68.5369 278.167 68.8049 278.1C69.0754 278.03 69.355 277.98 69.6436 277.949C69.9915 277.913 70.2736 277.881 70.4901 277.852C70.7065 277.821 70.8637 277.775 70.9616 277.713C71.0621 277.649 71.1123 277.549 71.1123 277.415V277.392C71.1123 277.101 71.026 276.876 70.8534 276.716C70.6807 276.556 70.4321 276.476 70.1074 276.476C69.7647 276.476 69.4929 276.551 69.2919 276.7C69.0935 276.85 68.9595 277.026 68.8899 277.23L67.5835 277.044C67.6866 276.684 67.8566 276.382 68.0937 276.14C68.3308 275.895 68.6206 275.712 68.9634 275.591C69.3061 275.467 69.6848 275.406 70.0997 275.406C70.3857 275.406 70.6704 275.439 70.9539 275.506C71.2373 275.573 71.4963 275.684 71.7308 275.838C71.9653 275.99 72.1534 276.198 72.2951 276.461C72.4394 276.724 72.5115 277.052 72.5115 277.446V281.42H71.1665V280.604H71.1201C71.035 280.769 70.9152 280.924 70.7606 281.068C70.6086 281.21 70.4166 281.324 70.1847 281.412C69.9554 281.497 69.6861 281.539 69.3769 281.539ZM69.7402 280.511C70.0211 280.511 70.2646 280.456 70.4707 280.345C70.6769 280.232 70.8354 280.082 70.9462 279.897C71.0595 279.711 71.1162 279.509 71.1162 279.29V278.59C71.0724 278.626 70.9977 278.66 70.892 278.691C70.789 278.722 70.673 278.749 70.5442 278.772C70.4153 278.795 70.2878 278.816 70.1615 278.834C70.0353 278.852 69.9258 278.867 69.833 278.88C69.6243 278.909 69.4375 278.955 69.2726 279.019C69.1076 279.084 68.9775 279.174 68.8822 279.29C68.7868 279.403 68.7392 279.55 68.7392 279.731C68.7392 279.988 68.8332 280.183 69.0213 280.314C69.2094 280.446 69.4491 280.511 69.7402 280.511ZM76.883 275.483V276.565H73.4701V275.483H76.883ZM74.3127 274.061H75.7118V279.634C75.7118 279.822 75.7402 279.966 75.7969 280.067C75.8561 280.165 75.9334 280.232 76.0288 280.268C76.1241 280.304 76.2298 280.322 76.3457 280.322C76.4333 280.322 76.5132 280.316 76.5853 280.303C76.6601 280.29 76.7168 280.278 76.7554 280.268L76.9912 281.362C76.9165 281.387 76.8095 281.416 76.6704 281.447C76.5338 281.478 76.3663 281.496 76.1679 281.501C75.8175 281.511 75.5018 281.458 75.221 281.342C74.9401 281.224 74.7172 281.041 74.5523 280.794C74.39 280.546 74.3101 280.237 74.3127 279.866V274.061ZM80.6176 281.536C80.0224 281.536 79.5083 281.412 79.0754 281.165C78.6451 280.915 78.314 280.562 78.0821 280.106C77.8502 279.647 77.7342 279.107 77.7342 278.486C77.7342 277.875 77.8502 277.339 78.0821 276.878C78.3166 276.414 78.6438 276.054 79.0638 275.796C79.4838 275.536 79.9773 275.406 80.5442 275.406C80.9101 275.406 81.2554 275.465 81.58 275.583C81.9073 275.699 82.1959 275.88 82.4458 276.124C82.6983 276.369 82.8967 276.681 83.041 277.06C83.1853 277.436 83.2575 277.884 83.2575 278.405V278.834H78.3913V277.891H81.9163C81.9137 277.623 81.8557 277.385 81.7424 277.176C81.629 276.964 81.4705 276.798 81.267 276.677C81.066 276.556 80.8315 276.496 80.5635 276.496C80.2775 276.496 80.0263 276.565 79.8098 276.704C79.5934 276.841 79.4246 277.021 79.3035 277.245C79.1849 277.467 79.1244 277.71 79.1218 277.976V278.799C79.1218 279.144 79.1849 279.441 79.3112 279.688C79.4375 279.933 79.614 280.121 79.8407 280.252C80.0675 280.381 80.3329 280.446 80.6369 280.446C80.8405 280.446 81.0247 280.417 81.1896 280.361C81.3546 280.301 81.4976 280.215 81.6187 280.102C81.7398 279.988 81.8313 279.848 81.8931 279.68L83.1995 279.827C83.117 280.173 82.9599 280.474 82.728 280.732C82.4986 280.987 82.2049 281.185 81.8467 281.327C81.4886 281.466 81.0788 281.536 80.6176 281.536ZM86.6443 281.524C86.1779 281.524 85.7605 281.404 85.392 281.165C85.0235 280.925 84.7323 280.577 84.5185 280.121C84.3046 279.665 84.1977 279.111 84.1977 278.459C84.1977 277.799 84.3059 277.243 84.5223 276.789C84.7414 276.333 85.0364 275.989 85.4074 275.757C85.7785 275.523 86.1921 275.406 86.6481 275.406C86.996 275.406 87.282 275.465 87.5062 275.583C87.7304 275.699 87.9082 275.84 88.0396 276.005C88.171 276.167 88.2728 276.32 88.3449 276.465H88.4029V273.504H89.8059V281.42H88.43V280.484H88.3449C88.2728 280.629 88.1684 280.782 88.0319 280.944C87.8953 281.104 87.7149 281.241 87.4907 281.354C87.2666 281.467 86.9844 281.524 86.6443 281.524ZM87.0347 280.376C87.331 280.376 87.5835 280.296 87.7922 280.136C88.0009 279.974 88.1594 279.749 88.2676 279.46C88.3758 279.171 88.43 278.835 88.43 278.451C88.43 278.067 88.3758 277.734 88.2676 277.45C88.162 277.167 88.0048 276.946 87.7961 276.789C87.5899 276.632 87.3361 276.554 87.0347 276.554C86.7229 276.554 86.4626 276.635 86.2539 276.797C86.0452 276.959 85.888 277.184 85.7824 277.47C85.6767 277.756 85.6239 278.083 85.6239 278.451C85.6239 278.822 85.6767 279.153 85.7824 279.445C85.8906 279.733 86.0491 279.961 86.2578 280.129C86.4691 280.294 86.728 280.376 87.0347 280.376ZM52.3424 287.706V286.504H58.658V287.706H56.2114V294.42H54.789V287.706H52.3424ZM60.7142 294.539C60.338 294.539 59.9992 294.473 59.6977 294.339C59.3988 294.202 59.1618 294.001 58.9865 293.736C58.8139 293.47 58.7276 293.143 58.7276 292.754C58.7276 292.419 58.7894 292.142 58.9131 291.923C59.0368 291.704 59.2056 291.529 59.4194 291.397C59.6333 291.266 59.8742 291.167 60.1422 291.1C60.4128 291.03 60.6923 290.98 60.9809 290.949C61.3288 290.913 61.611 290.881 61.8274 290.852C62.0438 290.821 62.201 290.775 62.2989 290.713C62.3994 290.649 62.4497 290.549 62.4497 290.415V290.392C62.4497 290.101 62.3634 289.876 62.1907 289.716C62.0181 289.556 61.7694 289.476 61.4448 289.476C61.102 289.476 60.8302 289.551 60.6292 289.7C60.4308 289.85 60.2968 290.026 60.2272 290.23L58.9208 290.044C59.0239 289.684 59.194 289.382 59.431 289.14C59.6681 288.895 59.958 288.712 60.3007 288.591C60.6434 288.467 61.0222 288.406 61.437 288.406C61.723 288.406 62.0078 288.439 62.2912 288.506C62.5747 288.573 62.8336 288.684 63.0681 288.838C63.3026 288.99 63.4907 289.198 63.6324 289.461C63.7767 289.724 63.8489 290.052 63.8489 290.446V294.42H62.5038V293.604H62.4574C62.3724 293.769 62.2526 293.924 62.098 294.068C61.9459 294.21 61.754 294.324 61.5221 294.412C61.2927 294.497 61.0235 294.539 60.7142 294.539ZM61.0776 293.511C61.3584 293.511 61.6019 293.456 61.8081 293.345C62.0142 293.232 62.1727 293.082 62.2835 292.897C62.3969 292.711 62.4535 292.509 62.4535 292.29V291.59C62.4097 291.626 62.335 291.66 62.2294 291.691C62.1263 291.722 62.0103 291.749 61.8815 291.772C61.7527 291.795 61.6251 291.816 61.4989 291.834C61.3726 291.852 61.2631 291.867 61.1703 291.88C60.9616 291.909 60.7748 291.955 60.6099 292.019C60.445 292.084 60.3149 292.174 60.2195 292.29C60.1242 292.403 60.0765 292.55 60.0765 292.731C60.0765 292.988 60.1706 293.183 60.3587 293.314C60.5468 293.446 60.7864 293.511 61.0776 293.511ZM66.3998 288.483L67.598 290.674L68.8155 288.483H70.2958L68.5063 291.451L70.3268 294.42H68.8542L67.598 292.282L66.3534 294.42H64.8692L66.6781 291.451L64.9156 288.483H66.3998ZM42.1671 302.175H40.7215C40.6803 301.938 40.6043 301.728 40.4935 301.545C40.3827 301.359 40.2448 301.202 40.0799 301.073C39.915 300.944 39.7269 300.848 39.5156 300.783C39.3069 300.716 39.0814 300.683 38.8392 300.683C38.4089 300.683 38.0275 300.791 37.6951 301.007C37.3627 301.221 37.1025 301.536 36.9144 301.951C36.7263 302.363 36.6322 302.867 36.6322 303.462C36.6322 304.067 36.7263 304.578 36.9144 304.992C37.1051 305.405 37.3653 305.716 37.6951 305.928C38.0275 306.136 38.4076 306.241 38.8353 306.241C39.0724 306.241 39.294 306.21 39.5001 306.148C39.7088 306.084 39.8957 305.99 40.0606 305.866C40.2281 305.742 40.3685 305.59 40.4819 305.41C40.5978 305.229 40.6777 305.023 40.7215 304.791L42.1671 304.799C42.1129 305.175 41.9957 305.528 41.8153 305.858C41.6375 306.188 41.4043 306.479 41.1157 306.732C40.8272 306.982 40.4896 307.177 40.1031 307.319C39.7166 307.458 39.2876 307.528 38.816 307.528C38.1203 307.528 37.4993 307.367 36.953 307.045C36.4068 306.723 35.9764 306.258 35.6621 305.649C35.3477 305.041 35.1905 304.312 35.1905 303.462C35.1905 302.609 35.349 301.88 35.6659 301.274C35.9829 300.666 36.4145 300.201 36.9608 299.879C37.507 299.557 38.1254 299.396 38.816 299.396C39.2566 299.396 39.6663 299.458 40.0451 299.581C40.4239 299.705 40.7614 299.887 41.0578 300.126C41.3541 300.363 41.5976 300.654 41.7883 301C41.9815 301.342 42.1078 301.734 42.1671 302.175ZM46.008 307.536C45.4282 307.536 44.9258 307.408 44.5006 307.153C44.0755 306.898 43.7456 306.541 43.5111 306.082C43.2792 305.624 43.1633 305.088 43.1633 304.474C43.1633 303.861 43.2792 303.324 43.5111 302.863C43.7456 302.401 44.0755 302.043 44.5006 301.788C44.9258 301.533 45.4282 301.406 46.008 301.406C46.5878 301.406 47.0902 301.533 47.5154 301.788C47.9406 302.043 48.2691 302.401 48.501 302.863C48.7355 303.324 48.8527 303.861 48.8527 304.474C48.8527 305.088 48.7355 305.624 48.501 306.082C48.2691 306.541 47.9406 306.898 47.5154 307.153C47.0902 307.408 46.5878 307.536 46.008 307.536ZM46.0157 306.415C46.3301 306.415 46.5929 306.328 46.8042 306.156C47.0155 305.981 47.1727 305.746 47.2758 305.452C47.3814 305.159 47.4342 304.831 47.4342 304.471C47.4342 304.107 47.3814 303.779 47.2758 303.485C47.1727 303.189 47.0155 302.953 46.8042 302.778C46.5929 302.602 46.3301 302.515 46.0157 302.515C45.6936 302.515 45.4257 302.602 45.2118 302.778C45.0005 302.953 44.842 303.189 44.7364 303.485C44.6333 303.779 44.5818 304.107 44.5818 304.471C44.5818 304.831 44.6333 305.159 44.7364 305.452C44.842 305.746 45.0005 305.981 45.2118 306.156C45.4257 306.328 45.6936 306.415 46.0157 306.415ZM51.4394 299.504V307.42H50.0403V299.504H51.4394ZM54.2774 299.504V307.42H52.8782V299.504H54.2774ZM58.3445 307.536C57.7492 307.536 57.2352 307.412 56.8023 307.165C56.372 306.915 56.0409 306.562 55.8089 306.106C55.577 305.647 55.4611 305.107 55.4611 304.486C55.4611 303.875 55.577 303.339 55.8089 302.878C56.0434 302.414 56.3707 302.054 56.7907 301.796C57.2107 301.536 57.7041 301.406 58.271 301.406C58.6369 301.406 58.9822 301.465 59.3069 301.583C59.6341 301.699 59.9227 301.88 60.1727 302.124C60.4252 302.369 60.6236 302.681 60.7679 303.06C60.9122 303.436 60.9843 303.884 60.9843 304.405V304.834H56.1182V303.891H59.6431C59.6406 303.623 59.5826 303.385 59.4692 303.176C59.3558 302.964 59.1974 302.798 58.9938 302.677C58.7928 302.556 58.5583 302.496 58.2903 302.496C58.0043 302.496 57.7531 302.565 57.5367 302.704C57.3202 302.841 57.1514 303.021 57.0303 303.245C56.9118 303.467 56.8512 303.71 56.8487 303.976V304.799C56.8487 305.144 56.9118 305.441 57.0381 305.688C57.1643 305.933 57.3408 306.121 57.5676 306.252C57.7943 306.381 58.0597 306.446 58.3638 306.446C58.5673 306.446 58.7516 306.417 58.9165 306.361C59.0814 306.301 59.2244 306.215 59.3455 306.102C59.4666 305.988 59.5581 305.848 59.6199 305.68L60.9263 305.827C60.8439 306.173 60.6867 306.474 60.4548 306.732C60.2255 306.987 59.9317 307.185 59.5736 307.327C59.2154 307.466 58.8057 307.536 58.3445 307.536ZM64.7576 307.536C64.165 307.536 63.6561 307.406 63.2309 307.145C62.8083 306.885 62.4824 306.526 62.253 306.067C62.0263 305.606 61.9129 305.075 61.9129 304.474C61.9129 303.872 62.0289 303.339 62.2608 302.878C62.4927 302.414 62.8199 302.054 63.2425 301.796C63.6677 301.536 64.1701 301.406 64.7499 301.406C65.2318 301.406 65.6582 301.494 66.0293 301.672C66.4029 301.847 66.7005 302.096 66.9221 302.418C67.1437 302.738 67.27 303.111 67.3009 303.539H65.9635C65.9094 303.253 65.7806 303.015 65.577 302.824C65.3761 302.631 65.1068 302.534 64.7692 302.534C64.4832 302.534 64.232 302.611 64.0155 302.766C63.7991 302.918 63.6303 303.137 63.5092 303.423C63.3907 303.709 63.3314 304.052 63.3314 304.451C63.3314 304.856 63.3907 305.204 63.5092 305.495C63.6277 305.783 63.7939 306.006 64.0078 306.164C64.2243 306.318 64.4781 306.395 64.7692 306.395C64.9754 306.395 65.1596 306.357 65.3219 306.279C65.4869 306.2 65.6247 306.085 65.7355 305.935C65.8463 305.786 65.9223 305.604 65.9635 305.39H67.3009C67.2674 305.811 67.1437 306.183 66.9298 306.508C66.716 306.83 66.4248 307.082 66.0563 307.265C65.6878 307.445 65.2549 307.536 64.7576 307.536ZM71.4143 301.483V302.565H68.0014V301.483H71.4143ZM68.844 300.061H70.2432V305.634C70.2432 305.822 70.2715 305.966 70.3282 306.067C70.3875 306.165 70.4648 306.232 70.5601 306.268C70.6555 306.304 70.7611 306.322 70.8771 306.322C70.9647 306.322 71.0445 306.316 71.1167 306.303C71.1914 306.29 71.2481 306.278 71.2868 306.268L71.5225 307.362C71.4478 307.387 71.3409 307.416 71.2017 307.447C71.0652 307.478 70.8977 307.496 70.6993 307.501C70.3488 307.511 70.0332 307.458 69.7523 307.342C69.4715 307.224 69.2486 307.041 69.0837 306.794C68.9213 306.546 68.8414 306.237 68.844 305.866V300.061ZM72.5845 307.42V301.483H73.9836V307.42H72.5845ZM73.2879 300.64C73.0663 300.64 72.8756 300.567 72.7159 300.42C72.5561 300.271 72.4762 300.091 72.4762 299.883C72.4762 299.671 72.5561 299.492 72.7159 299.345C72.8756 299.196 73.0663 299.121 73.2879 299.121C73.5121 299.121 73.7028 299.196 73.86 299.345C74.0197 299.492 74.0996 299.671 74.0996 299.883C74.0996 300.091 74.0197 300.271 73.86 300.42C73.7028 300.567 73.5121 300.64 73.2879 300.64ZM78.012 307.536C77.4323 307.536 76.9298 307.408 76.5047 307.153C76.0795 306.898 75.7497 306.541 75.5152 306.082C75.2833 305.624 75.1673 305.088 75.1673 304.474C75.1673 303.861 75.2833 303.324 75.5152 302.863C75.7497 302.401 76.0795 302.043 76.5047 301.788C76.9298 301.533 77.4323 301.406 78.012 301.406C78.5918 301.406 79.0943 301.533 79.5194 301.788C79.9446 302.043 80.2731 302.401 80.505 302.863C80.7395 303.324 80.8568 303.861 80.8568 304.474C80.8568 305.088 80.7395 305.624 80.505 306.082C80.2731 306.541 79.9446 306.898 79.5194 307.153C79.0943 307.408 78.5918 307.536 78.012 307.536ZM78.0198 306.415C78.3341 306.415 78.597 306.328 78.8083 306.156C79.0196 305.981 79.1767 305.746 79.2798 305.452C79.3854 305.159 79.4383 304.831 79.4383 304.471C79.4383 304.107 79.3854 303.779 79.2798 303.485C79.1767 303.189 79.0196 302.953 78.8083 302.778C78.597 302.602 78.3341 302.515 78.0198 302.515C77.6977 302.515 77.4297 302.602 77.2158 302.778C77.0045 302.953 76.8461 303.189 76.7404 303.485C76.6374 303.779 76.5858 304.107 76.5858 304.471C76.5858 304.831 76.6374 305.159 76.7404 305.452C76.8461 305.746 77.0045 305.981 77.2158 306.156C77.4297 306.328 77.6977 306.415 78.0198 306.415ZM83.4435 303.941V307.42H82.0443V301.483H83.3816V302.492H83.4512C83.5878 302.159 83.8055 301.895 84.1044 301.699C84.4059 301.503 84.7782 301.406 85.2214 301.406C85.6311 301.406 85.988 301.493 86.2921 301.668C86.5987 301.844 86.8358 302.097 87.0032 302.43C87.1733 302.762 87.2571 303.165 87.2545 303.64V307.42H85.8553V303.856C85.8553 303.459 85.7522 303.149 85.5461 302.925C85.3425 302.7 85.0604 302.588 84.6996 302.588C84.4549 302.588 84.2371 302.642 84.0464 302.751C83.8583 302.856 83.7102 303.01 83.602 303.211C83.4963 303.412 83.4435 303.655 83.4435 303.941Z" fill="#212528"/>
</g>
<g filter="url(#filter1_d_422_497)">
<rect x="112.304" y="232.578" width="82.7767" height="82.7767" rx="10.8841" fill="white" shape-rendering="crispEdges"/>
<rect x="112.644" y="232.919" width="82.0965" height="82.0965" rx="10.544" stroke="#212528" stroke-width="0.680259" shape-rendering="crispEdges"/>
<path d="M152.506 262.005L149.933 259.432L152.506 256.858L150.834 255.174L146.576 259.432L150.834 263.689L152.506 262.005Z" fill="#FF59EE"/>
<path d="M156.551 263.689L160.808 259.432L156.551 255.174L154.878 256.858L157.452 259.432L154.878 262.005L156.551 263.689Z" fill="#FF59EE"/>
<path d="M161.994 248.758H157.037C156.539 247.382 155.234 246.386 153.692 246.386C152.151 246.386 150.846 247.382 150.348 248.758H145.391C145.224 248.758 145.07 248.77 144.916 248.805C144.454 248.9 144.038 249.137 143.718 249.458C143.505 249.671 143.327 249.932 143.208 250.217C143.09 250.489 143.019 250.798 143.019 251.13V267.734C143.019 268.054 143.09 268.374 143.208 268.659C143.327 268.943 143.505 269.192 143.718 269.418C144.038 269.738 144.454 269.975 144.916 270.07C145.07 270.094 145.224 270.106 145.391 270.106H161.994C163.299 270.106 164.366 269.038 164.366 267.734V251.13C164.366 249.825 163.299 248.758 161.994 248.758ZM153.692 248.461C154.179 248.461 154.582 248.865 154.582 249.351C154.582 249.837 154.179 250.24 153.692 250.24C153.206 250.24 152.803 249.837 152.803 249.351C152.803 248.865 153.206 248.461 153.692 248.461ZM161.994 267.734H145.391V251.13H161.994V267.734Z" fill="#FF59EE"/>
<path d="M127.091 280.004V287.92H125.657V280.004H127.091ZM129.982 284.441V287.92H128.582V281.983H129.92V282.992H129.989C130.126 282.659 130.344 282.395 130.643 282.199C130.944 282.003 131.316 281.906 131.76 281.906C132.169 281.906 132.526 281.993 132.83 282.168C133.137 282.344 133.374 282.597 133.541 282.93C133.711 283.262 133.795 283.665 133.793 284.14V287.92H132.393V284.356C132.393 283.959 132.29 283.649 132.084 283.425C131.881 283.2 131.598 283.088 131.238 283.088C130.993 283.088 130.775 283.142 130.585 283.251C130.396 283.356 130.248 283.51 130.14 283.711C130.034 283.912 129.982 284.155 129.982 284.441ZM138.179 281.983V283.065H134.767V281.983H138.179ZM135.609 280.561H137.008V286.134C137.008 286.322 137.037 286.466 137.093 286.567C137.153 286.665 137.23 286.732 137.325 286.768C137.421 286.804 137.526 286.822 137.642 286.822C137.73 286.822 137.81 286.816 137.882 286.803C137.957 286.79 138.013 286.778 138.052 286.768L138.288 287.862C138.213 287.887 138.106 287.916 137.967 287.947C137.83 287.978 137.663 287.996 137.464 288.001C137.114 288.011 136.798 287.958 136.517 287.842C136.237 287.724 136.014 287.541 135.849 287.294C135.686 287.046 135.607 286.737 135.609 286.366V280.561ZM141.914 288.036C141.319 288.036 140.805 287.912 140.372 287.665C139.942 287.415 139.611 287.062 139.379 286.606C139.147 286.147 139.031 285.607 139.031 284.986C139.031 284.375 139.147 283.839 139.379 283.378C139.613 282.914 139.94 282.554 140.36 282.296C140.78 282.036 141.274 281.906 141.841 281.906C142.207 281.906 142.552 281.965 142.877 282.083C143.204 282.199 143.492 282.38 143.742 282.624C143.995 282.869 144.193 283.181 144.338 283.56C144.482 283.936 144.554 284.384 144.554 284.905V285.334H139.688V284.391H143.213C143.21 284.123 143.152 283.885 143.039 283.676C142.925 283.464 142.767 283.298 142.563 283.177C142.362 283.056 142.128 282.996 141.86 282.996C141.574 282.996 141.323 283.065 141.106 283.204C140.89 283.341 140.721 283.521 140.6 283.745C140.481 283.967 140.421 284.21 140.418 284.476V285.299C140.418 285.644 140.481 285.941 140.608 286.188C140.734 286.433 140.91 286.621 141.137 286.752C141.364 286.881 141.629 286.946 141.933 286.946C142.137 286.946 142.321 286.917 142.486 286.861C142.651 286.801 142.794 286.715 142.915 286.602C143.036 286.488 143.128 286.348 143.19 286.18L144.496 286.327C144.414 286.673 144.256 286.974 144.024 287.232C143.795 287.487 143.501 287.685 143.143 287.827C142.785 287.966 142.375 288.036 141.914 288.036ZM148.32 290.27C147.817 290.27 147.386 290.201 147.025 290.065C146.664 289.931 146.374 289.75 146.155 289.524C145.936 289.297 145.784 289.046 145.699 288.77L146.959 288.465C147.016 288.581 147.098 288.695 147.206 288.809C147.315 288.925 147.46 289.02 147.643 289.095C147.829 289.172 148.062 289.211 148.343 289.211C148.74 289.211 149.068 289.114 149.328 288.921C149.589 288.73 149.719 288.416 149.719 287.978V286.853H149.649C149.577 286.997 149.471 287.145 149.332 287.297C149.196 287.449 149.014 287.577 148.787 287.68C148.563 287.783 148.281 287.835 147.941 287.835C147.485 287.835 147.071 287.728 146.7 287.514C146.332 287.297 146.038 286.975 145.819 286.548C145.602 286.117 145.494 285.579 145.494 284.932C145.494 284.28 145.602 283.73 145.819 283.282C146.038 282.831 146.333 282.489 146.704 282.257C147.075 282.023 147.489 281.906 147.945 281.906C148.293 281.906 148.579 281.965 148.803 282.083C149.029 282.199 149.21 282.34 149.344 282.505C149.478 282.667 149.58 282.82 149.649 282.965H149.726V281.983H151.106V288.016C151.106 288.524 150.985 288.944 150.743 289.276C150.501 289.609 150.17 289.857 149.75 290.022C149.33 290.187 148.853 290.27 148.32 290.27ZM148.331 286.737C148.627 286.737 148.88 286.665 149.089 286.521C149.297 286.376 149.456 286.169 149.564 285.898C149.672 285.628 149.726 285.303 149.726 284.924C149.726 284.551 149.672 284.223 149.564 283.942C149.458 283.662 149.301 283.444 149.093 283.289C148.886 283.132 148.633 283.054 148.331 283.054C148.019 283.054 147.759 283.135 147.55 283.297C147.342 283.459 147.185 283.682 147.079 283.966C146.973 284.247 146.92 284.566 146.92 284.924C146.92 285.288 146.973 285.606 147.079 285.879C147.187 286.149 147.346 286.361 147.554 286.513C147.766 286.662 148.025 286.737 148.331 286.737ZM152.54 287.92V281.983H153.897V282.972H153.959C154.067 282.63 154.253 282.366 154.515 282.18C154.781 281.992 155.084 281.898 155.424 281.898C155.501 281.898 155.587 281.902 155.683 281.909C155.781 281.915 155.862 281.924 155.926 281.936V283.224C155.867 283.203 155.773 283.185 155.644 283.169C155.518 283.151 155.395 283.142 155.277 283.142C155.022 283.142 154.792 283.198 154.589 283.309C154.388 283.417 154.229 283.568 154.113 283.761C153.997 283.954 153.939 284.177 153.939 284.429V287.92H152.54ZM158.458 288.039C158.082 288.039 157.743 287.973 157.441 287.839C157.142 287.702 156.905 287.501 156.73 287.236C156.557 286.97 156.471 286.643 156.471 286.254C156.471 285.919 156.533 285.642 156.657 285.423C156.78 285.204 156.949 285.029 157.163 284.897C157.377 284.766 157.618 284.667 157.886 284.6C158.156 284.53 158.436 284.48 158.724 284.449C159.072 284.413 159.354 284.381 159.571 284.352C159.787 284.321 159.945 284.275 160.042 284.213C160.143 284.149 160.193 284.049 160.193 283.915V283.892C160.193 283.601 160.107 283.376 159.934 283.216C159.762 283.056 159.513 282.976 159.188 282.976C158.846 282.976 158.574 283.051 158.373 283.2C158.174 283.35 158.04 283.526 157.971 283.73L156.664 283.544C156.767 283.184 156.937 282.882 157.175 282.64C157.412 282.395 157.701 282.212 158.044 282.091C158.387 281.967 158.766 281.906 159.181 281.906C159.467 281.906 159.751 281.939 160.035 282.006C160.318 282.073 160.577 282.184 160.812 282.338C161.046 282.49 161.234 282.698 161.376 282.961C161.52 283.224 161.592 283.552 161.592 283.946V287.92H160.247V287.104H160.201C160.116 287.269 159.996 287.424 159.841 287.568C159.689 287.71 159.497 287.824 159.266 287.912C159.036 287.997 158.767 288.039 158.458 288.039ZM158.821 287.011C159.102 287.011 159.345 286.956 159.552 286.845C159.758 286.732 159.916 286.582 160.027 286.397C160.14 286.211 160.197 286.009 160.197 285.79V285.09C160.153 285.126 160.079 285.16 159.973 285.191C159.87 285.222 159.754 285.249 159.625 285.272C159.496 285.295 159.369 285.316 159.242 285.334C159.116 285.352 159.007 285.367 158.914 285.38C158.705 285.409 158.518 285.455 158.353 285.519C158.188 285.584 158.058 285.674 157.963 285.79C157.868 285.903 157.82 286.05 157.82 286.231C157.82 286.488 157.914 286.683 158.102 286.814C158.29 286.946 158.53 287.011 158.821 287.011ZM165.964 281.983V283.065H162.551V281.983H165.964ZM163.393 280.561H164.793V286.134C164.793 286.322 164.821 286.466 164.878 286.567C164.937 286.665 165.014 286.732 165.11 286.768C165.205 286.804 165.311 286.822 165.427 286.822C165.514 286.822 165.594 286.816 165.666 286.803C165.741 286.79 165.798 286.778 165.836 286.768L166.072 287.862C165.997 287.887 165.89 287.916 165.751 287.947C165.615 287.978 165.447 287.996 165.249 288.001C164.898 288.011 164.583 287.958 164.302 287.842C164.021 287.724 163.798 287.541 163.633 287.294C163.471 287.046 163.391 286.737 163.393 286.366V280.561ZM167.134 287.92V281.983H168.533V287.92H167.134ZM167.837 281.14C167.616 281.14 167.425 281.067 167.265 280.92C167.106 280.771 167.026 280.591 167.026 280.383C167.026 280.171 167.106 279.992 167.265 279.845C167.425 279.696 167.616 279.621 167.837 279.621C168.062 279.621 168.252 279.696 168.409 279.845C168.569 279.992 168.649 280.171 168.649 280.383C168.649 280.591 168.569 280.771 168.409 280.92C168.252 281.067 168.062 281.14 167.837 281.14ZM172.562 288.036C171.982 288.036 171.479 287.908 171.054 287.653C170.629 287.398 170.299 287.041 170.065 286.582C169.833 286.124 169.717 285.588 169.717 284.974C169.717 284.361 169.833 283.824 170.065 283.363C170.299 282.901 170.629 282.543 171.054 282.288C171.479 282.033 171.982 281.906 172.562 281.906C173.141 281.906 173.644 282.033 174.069 282.288C174.494 282.543 174.823 282.901 175.055 283.363C175.289 283.824 175.406 284.361 175.406 284.974C175.406 285.588 175.289 286.124 175.055 286.582C174.823 287.041 174.494 287.398 174.069 287.653C173.644 287.908 173.141 288.036 172.562 288.036ZM172.569 286.915C172.884 286.915 173.146 286.828 173.358 286.656C173.569 286.481 173.726 286.246 173.829 285.952C173.935 285.659 173.988 285.331 173.988 284.971C173.988 284.607 173.935 284.279 173.829 283.985C173.726 283.689 173.569 283.453 173.358 283.278C173.146 283.102 172.884 283.015 172.569 283.015C172.247 283.015 171.979 283.102 171.765 283.278C171.554 283.453 171.396 283.689 171.29 283.985C171.187 284.279 171.135 284.607 171.135 284.971C171.135 285.331 171.187 285.659 171.29 285.952C171.396 286.246 171.554 286.481 171.765 286.656C171.979 286.828 172.247 286.915 172.569 286.915ZM177.993 284.441V287.92H176.594V281.983H177.931V282.992H178.001C178.137 282.659 178.355 282.395 178.654 282.199C178.955 282.003 179.328 281.906 179.771 281.906C180.181 281.906 180.537 281.993 180.842 282.168C181.148 282.344 181.385 282.597 181.553 282.93C181.723 283.262 181.807 283.665 181.804 284.14V287.92H180.405V284.356C180.405 283.959 180.302 283.649 180.096 283.425C179.892 283.2 179.61 283.088 179.249 283.088C179.004 283.088 178.787 283.142 178.596 283.251C178.408 283.356 178.26 283.51 178.151 283.711C178.046 283.912 177.993 284.155 177.993 284.441ZM132.961 294.983V296.065H129.451V294.983H132.961ZM130.328 300.92V294.422C130.328 294.023 130.411 293.691 130.576 293.425C130.743 293.16 130.967 292.961 131.248 292.83C131.529 292.699 131.841 292.633 132.184 292.633C132.426 292.633 132.641 292.652 132.829 292.691C133.017 292.73 133.156 292.764 133.247 292.795L132.968 293.877C132.909 293.859 132.834 293.841 132.744 293.823C132.654 293.803 132.553 293.792 132.443 293.792C132.182 293.792 131.998 293.856 131.89 293.982C131.784 294.105 131.732 294.283 131.732 294.515V300.92H130.328ZM136.423 301.036C135.843 301.036 135.341 300.908 134.915 300.653C134.49 300.398 134.16 300.041 133.926 299.582C133.694 299.124 133.578 298.588 133.578 297.974C133.578 297.361 133.694 296.824 133.926 296.363C134.16 295.901 134.49 295.543 134.915 295.288C135.341 295.033 135.843 294.906 136.423 294.906C137.003 294.906 137.505 295.033 137.93 295.288C138.355 295.543 138.684 295.901 138.916 296.363C139.15 296.824 139.267 297.361 139.267 297.974C139.267 298.588 139.15 299.124 138.916 299.582C138.684 300.041 138.355 300.398 137.93 300.653C137.505 300.908 137.003 301.036 136.423 301.036ZM136.431 299.915C136.745 299.915 137.008 299.828 137.219 299.656C137.43 299.481 137.587 299.246 137.691 298.952C137.796 298.659 137.849 298.331 137.849 297.971C137.849 297.607 137.796 297.279 137.691 296.985C137.587 296.689 137.43 296.453 137.219 296.278C137.008 296.102 136.745 296.015 136.431 296.015C136.108 296.015 135.84 296.102 135.627 296.278C135.415 296.453 135.257 296.689 135.151 296.985C135.048 297.279 134.997 297.607 134.997 297.971C134.997 298.331 135.048 298.659 135.151 298.952C135.257 299.246 135.415 299.481 135.627 299.656C135.84 299.828 136.108 299.915 136.431 299.915ZM140.455 300.92V294.983H141.812V295.972H141.874C141.982 295.63 142.167 295.366 142.43 295.18C142.696 294.992 142.998 294.898 143.338 294.898C143.416 294.898 143.502 294.902 143.597 294.909C143.695 294.915 143.776 294.924 143.841 294.936V296.224C143.782 296.203 143.688 296.185 143.559 296.169C143.432 296.151 143.31 296.142 143.192 296.142C142.936 296.142 142.707 296.198 142.504 296.309C142.303 296.417 142.144 296.568 142.028 296.761C141.912 296.954 141.854 297.177 141.854 297.429V300.92H140.455ZM147.532 300.92V293.004H150.5C151.109 293.004 151.619 293.117 152.031 293.344C152.446 293.571 152.759 293.883 152.97 294.279C153.184 294.674 153.291 295.122 153.291 295.624C153.291 296.132 153.184 296.583 152.97 296.977C152.756 297.372 152.441 297.682 152.023 297.909C151.606 298.133 151.092 298.245 150.481 298.245H148.514V297.066H150.288C150.643 297.066 150.935 297.004 151.161 296.881C151.388 296.757 151.556 296.587 151.664 296.37C151.775 296.154 151.83 295.905 151.83 295.624C151.83 295.344 151.775 295.096 151.664 294.882C151.556 294.669 151.387 294.502 151.158 294.384C150.931 294.263 150.638 294.202 150.28 294.202H148.966V300.92H147.532ZM156.979 301.036C156.4 301.036 155.897 300.908 155.472 300.653C155.047 300.398 154.717 300.041 154.482 299.582C154.251 299.124 154.135 298.588 154.135 297.974C154.135 297.361 154.251 296.824 154.482 296.363C154.717 295.901 155.047 295.543 155.472 295.288C155.897 295.033 156.4 294.906 156.979 294.906C157.559 294.906 158.062 295.033 158.487 295.288C158.912 295.543 159.24 295.901 159.472 296.363C159.707 296.824 159.824 297.361 159.824 297.974C159.824 298.588 159.707 299.124 159.472 299.582C159.24 300.041 158.912 300.398 158.487 300.653C158.062 300.908 157.559 301.036 156.979 301.036ZM156.987 299.915C157.301 299.915 157.564 299.828 157.776 299.656C157.987 299.481 158.144 299.246 158.247 298.952C158.353 298.659 158.406 298.331 158.406 297.971C158.406 297.607 158.353 297.279 158.247 296.985C158.144 296.689 157.987 296.453 157.776 296.278C157.564 296.102 157.301 296.015 156.987 296.015C156.665 296.015 156.397 296.102 156.183 296.278C155.972 296.453 155.813 296.689 155.708 296.985C155.605 297.279 155.553 297.607 155.553 297.971C155.553 298.331 155.605 298.659 155.708 298.952C155.813 299.246 155.972 299.481 156.183 299.656C156.397 299.828 156.665 299.915 156.987 299.915ZM161.012 300.92V294.983H162.368V295.972H162.43C162.538 295.63 162.724 295.366 162.987 295.18C163.252 294.992 163.555 294.898 163.895 294.898C163.972 294.898 164.059 294.902 164.154 294.909C164.252 294.915 164.333 294.924 164.397 294.936V296.224C164.338 296.203 164.244 296.185 164.115 296.169C163.989 296.151 163.867 296.142 163.748 296.142C163.493 296.142 163.264 296.198 163.06 296.309C162.859 296.417 162.701 296.568 162.585 296.761C162.469 296.954 162.411 297.177 162.411 297.429V300.92H161.012ZM168.61 294.983V296.065H165.198V294.983H168.61ZM166.04 293.561H167.439V299.134C167.439 299.322 167.468 299.466 167.524 299.567C167.584 299.665 167.661 299.732 167.756 299.768C167.852 299.804 167.957 299.822 168.073 299.822C168.161 299.822 168.241 299.816 168.313 299.803C168.388 299.79 168.444 299.778 168.483 299.768L168.719 300.862C168.644 300.887 168.537 300.916 168.398 300.947C168.261 300.978 168.094 300.996 167.895 301.001C167.545 301.011 167.229 300.958 166.948 300.842C166.668 300.724 166.445 300.541 166.28 300.294C166.117 300.046 166.038 299.737 166.04 299.366V293.561ZM171.489 301.039C171.113 301.039 170.774 300.973 170.472 300.839C170.174 300.702 169.936 300.501 169.761 300.236C169.589 299.97 169.502 299.643 169.502 299.254C169.502 298.919 169.564 298.642 169.688 298.423C169.811 298.204 169.98 298.029 170.194 297.897C170.408 297.766 170.649 297.667 170.917 297.6C171.187 297.53 171.467 297.48 171.756 297.449C172.103 297.413 172.386 297.381 172.602 297.352C172.819 297.321 172.976 297.275 173.074 297.213C173.174 297.149 173.224 297.049 173.224 296.915V296.892C173.224 296.601 173.138 296.376 172.965 296.216C172.793 296.056 172.544 295.976 172.219 295.976C171.877 295.976 171.605 296.051 171.404 296.2C171.206 296.35 171.072 296.526 171.002 296.73L169.696 296.544C169.799 296.184 169.969 295.882 170.206 295.64C170.443 295.395 170.733 295.212 171.075 295.091C171.418 294.967 171.797 294.906 172.212 294.906C172.498 294.906 172.782 294.939 173.066 295.006C173.349 295.073 173.608 295.184 173.843 295.338C174.077 295.49 174.265 295.698 174.407 295.961C174.551 296.224 174.624 296.552 174.624 296.946V300.92H173.278V300.104H173.232C173.147 300.269 173.027 300.424 172.873 300.568C172.721 300.71 172.529 300.824 172.297 300.912C172.067 300.997 171.798 301.039 171.489 301.039ZM171.852 300.011C172.133 300.011 172.377 299.956 172.583 299.845C172.789 299.732 172.947 299.582 173.058 299.397C173.172 299.211 173.228 299.009 173.228 298.79V298.09C173.184 298.126 173.11 298.16 173.004 298.191C172.901 298.222 172.785 298.249 172.656 298.272C172.527 298.295 172.4 298.316 172.274 298.334C172.147 298.352 172.038 298.367 171.945 298.38C171.736 298.409 171.55 298.455 171.385 298.519C171.22 298.584 171.09 298.674 170.994 298.79C170.899 298.903 170.851 299.05 170.851 299.231C170.851 299.488 170.945 299.683 171.133 299.814C171.321 299.946 171.561 300.011 171.852 300.011ZM177.43 293.004V300.92H176.03V293.004H177.43Z" fill="#212528"/>
</g>
<g filter="url(#filter2_d_422_497)">
<rect x="204.711" y="232.578" width="82.7767" height="82.7767" rx="10.8841" fill="white" shape-rendering="crispEdges"/>
<rect x="205.052" y="232.919" width="82.0965" height="82.0965" rx="10.544" stroke="#212528" stroke-width="0.680259" shape-rendering="crispEdges"/>
<path d="M246.1 246.386C239.553 246.386 234.24 251.699 234.24 258.246C234.24 264.792 239.553 270.106 246.1 270.106C252.647 270.106 257.96 264.792 257.96 258.246C257.96 251.699 252.647 246.386 246.1 246.386ZM236.612 258.246C236.612 257.522 236.707 256.811 236.861 256.135L242.53 261.804V262.99C242.53 264.294 243.598 265.362 244.902 265.362V267.651C240.241 267.058 236.612 263.073 236.612 258.246ZM253.085 264.65C252.777 263.689 251.899 262.99 250.832 262.99H249.646V259.432C249.646 258.779 249.112 258.246 248.46 258.246H241.344V255.874H243.716C244.368 255.874 244.902 255.34 244.902 254.688V252.316H247.274C248.579 252.316 249.646 251.248 249.646 249.944V249.458C253.121 250.857 255.588 254.273 255.588 258.246C255.588 260.713 254.627 262.966 253.085 264.65Z" fill="#74FE70"/>
<path d="M226.388 287.92V280.004H231.459V281.206H227.822V283.355H231.111V284.557H227.822V287.92H226.388ZM234.857 288.036C234.277 288.036 233.775 287.908 233.35 287.653C232.925 287.398 232.595 287.041 232.36 286.582C232.128 286.124 232.012 285.588 232.012 284.974C232.012 284.361 232.128 283.824 232.36 283.363C232.595 282.901 232.925 282.543 233.35 282.288C233.775 282.033 234.277 281.906 234.857 281.906C235.437 281.906 235.939 282.033 236.365 282.288C236.79 282.543 237.118 282.901 237.35 283.363C237.585 283.824 237.702 284.361 237.702 284.974C237.702 285.588 237.585 286.124 237.35 286.582C237.118 287.041 236.79 287.398 236.365 287.653C235.939 287.908 235.437 288.036 234.857 288.036ZM234.865 286.915C235.179 286.915 235.442 286.828 235.653 286.656C235.865 286.481 236.022 286.246 236.125 285.952C236.231 285.659 236.283 285.331 236.283 284.971C236.283 284.607 236.231 284.279 236.125 283.985C236.022 283.689 235.865 283.453 235.653 283.278C235.442 283.102 235.179 283.015 234.865 283.015C234.543 283.015 234.275 283.102 234.061 283.278C233.85 283.453 233.691 283.689 233.586 283.985C233.482 284.279 233.431 284.607 233.431 284.971C233.431 285.331 233.482 285.659 233.586 285.952C233.691 286.246 233.85 286.481 234.061 286.656C234.275 286.828 234.543 286.915 234.865 286.915ZM238.889 287.92V281.983H240.246V282.972H240.308C240.416 282.63 240.602 282.366 240.864 282.18C241.13 281.992 241.433 281.898 241.773 281.898C241.85 281.898 241.936 281.902 242.032 281.909C242.13 281.915 242.211 281.924 242.275 281.936V283.224C242.216 283.203 242.122 283.185 241.993 283.169C241.867 283.151 241.744 283.142 241.626 283.142C241.371 283.142 241.141 283.198 240.938 283.309C240.737 283.417 240.578 283.568 240.463 283.761C240.347 283.954 240.289 284.177 240.289 284.429V287.92H238.889ZM247.4 280.004V287.92H245.966V280.004H247.4ZM255.458 280.004V287.92H254.183L250.453 282.528H250.387V287.92H248.953V280.004H250.236L253.962 285.4H254.032V280.004H255.458ZM259.703 287.92H257.021V280.004H259.757C260.543 280.004 261.218 280.162 261.782 280.479C262.349 280.794 262.785 281.246 263.089 281.836C263.393 282.426 263.545 283.132 263.545 283.954C263.545 284.779 263.392 285.487 263.085 286.08C262.781 286.673 262.342 287.127 261.767 287.444C261.195 287.761 260.507 287.92 259.703 287.92ZM258.455 286.679H259.633C260.185 286.679 260.645 286.578 261.013 286.378C261.382 286.174 261.659 285.871 261.844 285.469C262.03 285.065 262.123 284.56 262.123 283.954C262.123 283.349 262.03 282.846 261.844 282.447C261.659 282.045 261.384 281.745 261.021 281.546C260.66 281.345 260.212 281.245 259.676 281.245H258.455V286.679ZM265.989 286.837L265.938 287.263C265.902 287.587 265.838 287.917 265.745 288.252C265.655 288.59 265.56 288.9 265.459 289.184C265.359 289.467 265.277 289.69 265.216 289.852H264.273C264.309 289.695 264.358 289.481 264.419 289.211C264.484 288.94 264.546 288.636 264.605 288.298C264.664 287.961 264.704 287.618 264.725 287.27L264.752 286.837H265.989ZM230.129 293.004H231.563V298.175C231.563 298.742 231.429 299.241 231.161 299.671C230.895 300.102 230.522 300.438 230.04 300.68C229.558 300.92 228.995 301.039 228.351 301.039C227.704 301.039 227.14 300.92 226.658 300.68C226.176 300.438 225.802 300.102 225.537 299.671C225.272 299.241 225.139 298.742 225.139 298.175V293.004H226.573V298.056C226.573 298.385 226.645 298.679 226.789 298.937C226.936 299.195 227.142 299.397 227.408 299.544C227.673 299.688 227.987 299.76 228.351 299.76C228.714 299.76 229.028 299.688 229.294 299.544C229.562 299.397 229.768 299.195 229.912 298.937C230.057 298.679 230.129 298.385 230.129 298.056V293.004ZM234.138 300.92H232.607L235.394 293.004H237.164L239.955 300.92H238.424L236.31 294.627H236.248L234.138 300.92ZM234.188 297.816H238.362V298.968H234.188V297.816ZM240.997 300.92V293.004H246.146V294.206H242.431V296.355H245.879V297.557H242.431V299.718H246.177V300.92H240.997ZM249.189 299.837L249.139 300.263C249.103 300.587 249.039 300.917 248.946 301.252C248.856 301.59 248.76 301.9 248.66 302.184C248.559 302.467 248.478 302.69 248.416 302.852H247.473C247.509 302.695 247.558 302.481 247.62 302.211C247.685 301.94 247.746 301.636 247.806 301.298C247.865 300.961 247.905 300.618 247.926 300.27L247.953 299.837H249.189ZM258.264 293.004H259.698V298.175C259.698 298.742 259.564 299.241 259.296 299.671C259.03 300.102 258.657 300.438 258.175 300.68C257.693 300.92 257.13 301.039 256.486 301.039C255.839 301.039 255.275 300.92 254.793 300.68C254.311 300.438 253.937 300.102 253.672 299.671C253.407 299.241 253.274 298.742 253.274 298.175V293.004H254.708V298.056C254.708 298.385 254.78 298.679 254.924 298.937C255.071 299.195 255.277 299.397 255.543 299.544C255.808 299.688 256.122 299.76 256.486 299.76C256.849 299.76 257.163 299.688 257.429 299.544C257.697 299.397 257.903 299.195 258.047 298.937C258.192 298.679 258.264 298.385 258.264 298.056V293.004ZM261.256 300.92V293.004H262.69V296.641H262.787L265.875 293.004H267.626L264.565 296.556L267.653 300.92H265.929L263.568 297.526L262.69 298.562V300.92H261.256Z" fill="#212528"/>
</g>
<g filter="url(#filter3_d_422_497)">
<rect x="297.119" y="232.578" width="82.7767" height="82.7767" rx="10.8841" fill="white" shape-rendering="crispEdges"/>
<rect x="297.459" y="232.919" width="82.0965" height="82.0965" rx="10.544" stroke="#212528" stroke-width="0.680259" shape-rendering="crispEdges"/>
<path d="M344.438 263.873V254.385H332.578V259.129H327.834V275.733H337.322V270.989H339.694V275.733H349.182V263.873H344.438ZM332.578 273.361H330.206V270.989H332.578V273.361ZM332.578 268.617H330.206V266.245H332.578V268.617ZM332.578 263.873H330.206V261.501H332.578V263.873ZM337.322 268.617H334.95V266.245H337.322V268.617ZM337.322 263.873H334.95V261.501H337.322V263.873ZM337.322 259.129H334.95V256.757H337.322V259.129ZM342.066 268.617H339.694V266.245H342.066V268.617ZM342.066 263.873H339.694V261.501H342.066V263.873ZM342.066 259.129H339.694V256.757H342.066V259.129ZM346.81 273.361H344.438V270.989H346.81V273.361ZM346.81 268.617H344.438V266.245H346.81V268.617Z" fill="#0074FF"/>
<path d="M302.161 294.106V286.191H305.129C305.737 286.191 306.248 286.296 306.66 286.508C307.075 286.719 307.388 287.015 307.599 287.396C307.813 287.775 307.92 288.217 307.92 288.722C307.92 289.23 307.812 289.67 307.595 290.044C307.381 290.415 307.066 290.702 306.648 290.906C306.231 291.107 305.718 291.207 305.11 291.207H302.996V290.017H304.917C305.272 290.017 305.563 289.968 305.79 289.87C306.017 289.77 306.184 289.624 306.293 289.433C306.403 289.24 306.459 289.003 306.459 288.722C306.459 288.441 306.403 288.202 306.293 288.003C306.182 287.802 306.013 287.65 305.786 287.547C305.56 287.442 305.267 287.389 304.909 287.389H303.595V294.106H302.161ZM306.25 290.52L308.21 294.106H306.61L304.685 290.52H306.25ZM311.721 294.222C311.126 294.222 310.612 294.099 310.179 293.851C309.749 293.601 309.418 293.248 309.186 292.792C308.954 292.334 308.838 291.794 308.838 291.173C308.838 290.562 308.954 290.026 309.186 289.565C309.42 289.101 309.747 288.74 310.167 288.483C310.587 288.222 311.081 288.092 311.648 288.092C312.014 288.092 312.359 288.151 312.684 288.27C313.011 288.386 313.299 288.566 313.549 288.811C313.802 289.056 314 289.368 314.145 289.746C314.289 290.123 314.361 290.571 314.361 291.092V291.521H309.495V290.577H313.02C313.017 290.31 312.959 290.071 312.846 289.862C312.733 289.651 312.574 289.485 312.37 289.364C312.17 289.243 311.935 289.182 311.667 289.182C311.381 289.182 311.13 289.252 310.913 289.391C310.697 289.527 310.528 289.708 310.407 289.932C310.288 290.154 310.228 290.397 310.225 290.663V291.486C310.225 291.831 310.288 292.127 310.415 292.375C310.541 292.62 310.718 292.808 310.944 292.939C311.171 293.068 311.436 293.132 311.74 293.132C311.944 293.132 312.128 293.104 312.293 293.047C312.458 292.988 312.601 292.902 312.722 292.788C312.843 292.675 312.935 292.535 312.997 292.367L314.303 292.514C314.221 292.859 314.063 293.161 313.832 293.418C313.602 293.673 313.308 293.872 312.95 294.014C312.592 294.153 312.182 294.222 311.721 294.222ZM318.134 294.222C317.542 294.222 317.033 294.092 316.608 293.832C316.185 293.572 315.859 293.212 315.63 292.754C315.403 292.292 315.29 291.761 315.29 291.161C315.29 290.558 315.406 290.026 315.637 289.565C315.869 289.101 316.197 288.74 316.619 288.483C317.044 288.222 317.547 288.092 318.127 288.092C318.608 288.092 319.035 288.181 319.406 288.359C319.78 288.534 320.077 288.783 320.299 289.105C320.52 289.424 320.647 289.798 320.678 290.226H319.34C319.286 289.94 319.157 289.701 318.954 289.511C318.753 289.317 318.483 289.221 318.146 289.221C317.86 289.221 317.609 289.298 317.392 289.453C317.176 289.605 317.007 289.824 316.886 290.11C316.767 290.396 316.708 290.739 316.708 291.138C316.708 291.542 316.767 291.89 316.886 292.182C317.004 292.47 317.171 292.693 317.385 292.85C317.601 293.005 317.855 293.082 318.146 293.082C318.352 293.082 318.536 293.043 318.699 292.966C318.864 292.886 319.001 292.772 319.112 292.622C319.223 292.473 319.299 292.291 319.34 292.077H320.678C320.644 292.497 320.52 292.869 320.307 293.194C320.093 293.516 319.801 293.769 319.433 293.952C319.065 294.132 318.632 294.222 318.134 294.222ZM324.416 294.222C323.836 294.222 323.334 294.095 322.909 293.84C322.484 293.585 322.154 293.228 321.919 292.769C321.687 292.31 321.571 291.774 321.571 291.161C321.571 290.548 321.687 290.011 321.919 289.549C322.154 289.088 322.484 288.73 322.909 288.475C323.334 288.22 323.836 288.092 324.416 288.092C324.996 288.092 325.498 288.22 325.923 288.475C326.349 288.73 326.677 289.088 326.909 289.549C327.144 290.011 327.261 290.548 327.261 291.161C327.261 291.774 327.144 292.31 326.909 292.769C326.677 293.228 326.349 293.585 325.923 293.84C325.498 294.095 324.996 294.222 324.416 294.222ZM324.424 293.101C324.738 293.101 325.001 293.015 325.212 292.842C325.424 292.667 325.581 292.433 325.684 292.139C325.789 291.845 325.842 291.518 325.842 291.157C325.842 290.794 325.789 290.465 325.684 290.172C325.581 289.875 325.424 289.64 325.212 289.464C325.001 289.289 324.738 289.202 324.424 289.202C324.102 289.202 323.834 289.289 323.62 289.464C323.409 289.64 323.25 289.875 323.144 290.172C323.041 290.465 322.99 290.794 322.99 291.157C322.99 291.518 323.041 291.845 323.144 292.139C323.25 292.433 323.409 292.667 323.62 292.842C323.834 293.015 324.102 293.101 324.424 293.101ZM329.848 290.628V294.106H328.448V288.17H329.786V289.178H329.855C329.992 288.846 330.21 288.582 330.508 288.386C330.81 288.19 331.182 288.092 331.625 288.092C332.035 288.092 332.392 288.18 332.696 288.355C333.003 288.53 333.24 288.784 333.407 289.116C333.577 289.449 333.661 289.852 333.659 290.326V294.106H332.259V290.543C332.259 290.146 332.156 289.835 331.95 289.611C331.747 289.387 331.464 289.275 331.104 289.275C330.859 289.275 330.641 289.329 330.45 289.437C330.262 289.543 330.114 289.696 330.006 289.897C329.9 290.098 329.848 290.342 329.848 290.628ZM337.671 294.222C337.078 294.222 336.569 294.092 336.144 293.832C335.721 293.572 335.395 293.212 335.166 292.754C334.939 292.292 334.826 291.761 334.826 291.161C334.826 290.558 334.942 290.026 335.174 289.565C335.406 289.101 335.733 288.74 336.155 288.483C336.581 288.222 337.083 288.092 337.663 288.092C338.145 288.092 338.571 288.181 338.942 288.359C339.316 288.534 339.613 288.783 339.835 289.105C340.057 289.424 340.183 289.798 340.214 290.226H338.876C338.822 289.94 338.693 289.701 338.49 289.511C338.289 289.317 338.02 289.221 337.682 289.221C337.396 289.221 337.145 289.298 336.928 289.453C336.712 289.605 336.543 289.824 336.422 290.11C336.304 290.396 336.244 290.739 336.244 291.138C336.244 291.542 336.304 291.89 336.422 292.182C336.541 292.47 336.707 292.693 336.921 292.85C337.137 293.005 337.391 293.082 337.682 293.082C337.888 293.082 338.072 293.043 338.235 292.966C338.4 292.886 338.538 292.772 338.648 292.622C338.759 292.473 338.835 292.291 338.876 292.077H340.214C340.18 292.497 340.057 292.869 339.843 293.194C339.629 293.516 339.338 293.769 338.969 293.952C338.601 294.132 338.168 294.222 337.671 294.222ZM341.363 294.106V288.17H342.762V294.106H341.363ZM342.066 287.327C341.845 287.327 341.654 287.253 341.494 287.107C341.334 286.957 341.254 286.778 341.254 286.569C341.254 286.358 341.334 286.179 341.494 286.032C341.654 285.883 341.845 285.808 342.066 285.808C342.29 285.808 342.481 285.883 342.638 286.032C342.798 286.179 342.878 286.358 342.878 286.569C342.878 286.778 342.798 286.957 342.638 287.107C342.481 287.253 342.29 287.327 342.066 287.327ZM345.6 286.191V294.106H344.201V286.191H345.6ZM347.039 294.106V288.17H348.438V294.106H347.039ZM347.742 287.327C347.52 287.327 347.33 287.253 347.17 287.107C347.01 286.957 346.93 286.778 346.93 286.569C346.93 286.358 347.01 286.179 347.17 286.032C347.33 285.883 347.52 285.808 347.742 285.808C347.966 285.808 348.157 285.883 348.314 286.032C348.474 286.179 348.554 286.358 348.554 286.569C348.554 286.778 348.474 286.957 348.314 287.107C348.157 287.253 347.966 287.327 347.742 287.327ZM351.585 294.226C351.209 294.226 350.87 294.159 350.568 294.025C350.269 293.889 350.032 293.688 349.857 293.422C349.685 293.157 349.598 292.83 349.598 292.44C349.598 292.105 349.66 291.828 349.784 291.609C349.907 291.39 350.076 291.215 350.29 291.084C350.504 290.952 350.745 290.853 351.013 290.786C351.283 290.717 351.563 290.666 351.852 290.635C352.199 290.599 352.482 290.567 352.698 290.539C352.914 290.508 353.072 290.462 353.17 290.4C353.27 290.335 353.32 290.236 353.32 290.102V290.079C353.32 289.788 353.234 289.562 353.061 289.402C352.889 289.243 352.64 289.163 352.315 289.163C351.973 289.163 351.701 289.238 351.5 289.387C351.301 289.536 351.167 289.713 351.098 289.917L349.791 289.731C349.895 289.37 350.065 289.069 350.302 288.827C350.539 288.582 350.829 288.399 351.171 288.278C351.514 288.154 351.893 288.092 352.308 288.092C352.594 288.092 352.878 288.126 353.162 288.193C353.445 288.26 353.704 288.371 353.939 288.525C354.173 288.677 354.361 288.885 354.503 289.147C354.647 289.41 354.719 289.739 354.719 290.133V294.106H353.374V293.291H353.328C353.243 293.456 353.123 293.61 352.969 293.755C352.817 293.896 352.625 294.011 352.393 294.099C352.163 294.184 351.894 294.226 351.585 294.226ZM351.948 293.198C352.229 293.198 352.473 293.143 352.679 293.032C352.885 292.918 353.043 292.769 353.154 292.583C353.268 292.398 353.324 292.196 353.324 291.977V291.277C353.28 291.313 353.206 291.347 353.1 291.378C352.997 291.408 352.881 291.436 352.752 291.459C352.623 291.482 352.496 291.503 352.37 291.521C352.243 291.539 352.134 291.554 352.041 291.567C351.832 291.595 351.645 291.642 351.481 291.706C351.316 291.771 351.185 291.861 351.09 291.977C350.995 292.09 350.947 292.237 350.947 292.417C350.947 292.675 351.041 292.869 351.229 293.001C351.417 293.132 351.657 293.198 351.948 293.198ZM359.091 288.17V289.252H355.678V288.17H359.091ZM356.521 286.747H357.92V292.321C357.92 292.509 357.948 292.653 358.005 292.754C358.064 292.851 358.141 292.918 358.237 292.955C358.332 292.991 358.438 293.009 358.554 293.009C358.641 293.009 358.721 293.002 358.793 292.989C358.868 292.976 358.925 292.965 358.963 292.955L359.199 294.048C359.124 294.074 359.017 294.102 358.878 294.133C358.742 294.164 358.574 294.182 358.376 294.187C358.025 294.198 357.71 294.145 357.429 294.029C357.148 293.91 356.925 293.728 356.76 293.48C356.598 293.233 356.518 292.924 356.521 292.553V286.747ZM360.261 294.106V288.17H361.66V294.106H360.261ZM360.965 287.327C360.743 287.327 360.552 287.253 360.393 287.107C360.233 286.957 360.153 286.778 360.153 286.569C360.153 286.358 360.233 286.179 360.393 286.032C360.552 285.883 360.743 285.808 360.965 285.808C361.189 285.808 361.379 285.883 361.537 286.032C361.696 286.179 361.776 286.358 361.776 286.569C361.776 286.778 361.696 286.957 361.537 287.107C361.379 287.253 361.189 287.327 360.965 287.327ZM365.689 294.222C365.109 294.222 364.606 294.095 364.181 293.84C363.756 293.585 363.426 293.228 363.192 292.769C362.96 292.31 362.844 291.774 362.844 291.161C362.844 290.548 362.96 290.011 363.192 289.549C363.426 289.088 363.756 288.73 364.181 288.475C364.606 288.22 365.109 288.092 365.689 288.092C366.268 288.092 366.771 288.22 367.196 288.475C367.621 288.73 367.95 289.088 368.182 289.549C368.416 290.011 368.533 290.548 368.533 291.161C368.533 291.774 368.416 292.31 368.182 292.769C367.95 293.228 367.621 293.585 367.196 293.84C366.771 294.095 366.268 294.222 365.689 294.222ZM365.696 293.101C366.011 293.101 366.274 293.015 366.485 292.842C366.696 292.667 366.853 292.433 366.956 292.139C367.062 291.845 367.115 291.518 367.115 291.157C367.115 290.794 367.062 290.465 366.956 290.172C366.853 289.875 366.696 289.64 366.485 289.464C366.274 289.289 366.011 289.202 365.696 289.202C365.374 289.202 365.106 289.289 364.892 289.464C364.681 289.64 364.523 289.875 364.417 290.172C364.314 290.465 364.262 290.794 364.262 291.157C364.262 291.518 364.314 291.845 364.417 292.139C364.523 292.433 364.681 292.667 364.892 292.842C365.106 293.015 365.374 293.101 365.696 293.101ZM371.12 290.628V294.106H369.721V288.17H371.058V289.178H371.128C371.264 288.846 371.482 288.582 371.781 288.386C372.083 288.19 372.455 288.092 372.898 288.092C373.308 288.092 373.665 288.18 373.969 288.355C374.275 288.53 374.512 288.784 374.68 289.116C374.85 289.449 374.934 289.852 374.931 290.326V294.106H373.532V290.543C373.532 290.146 373.429 289.835 373.223 289.611C373.019 289.387 372.737 289.275 372.376 289.275C372.131 289.275 371.914 289.329 371.723 289.437C371.535 289.543 371.387 289.696 371.279 289.897C371.173 290.098 371.12 290.342 371.12 290.628Z" fill="#212528"/>
</g>
<path d="M198.509 103.17C198.509 102.618 198.061 102.17 197.509 102.17C196.956 102.17 196.509 102.618 196.509 103.17H198.509ZM60.5776 229.786C60.9681 230.176 61.6013 230.176 61.9918 229.786L68.3557 223.422C68.7463 223.031 68.7463 222.398 68.3557 222.007C67.9652 221.617 67.332 221.617 66.9415 222.007L61.2847 227.664L55.6278 222.007C55.2373 221.617 54.6041 221.617 54.2136 222.007C53.8231 222.398 53.8231 223.031 54.2136 223.422L60.5776 229.786ZM197.509 103.17H196.509V142.124H197.509H198.509V103.17H197.509ZM173.509 166.124V165.124H85.2847V166.124V167.124H173.509V166.124ZM61.2847 190.124H60.2847V229.078H61.2847H62.2847V190.124H61.2847ZM85.2847 166.124V165.124C71.4775 165.124 60.2847 176.317 60.2847 190.124H61.2847H62.2847C62.2847 177.422 72.5821 167.124 85.2847 167.124V166.124ZM197.509 142.124H196.509C196.509 154.827 186.211 165.124 173.509 165.124V166.124V167.124C187.316 167.124 198.509 155.931 198.509 142.124H197.509Z" fill="#212528"/>
<path d="M198.509 103.17C198.509 102.618 198.061 102.17 197.509 102.17C196.956 102.17 196.509 102.618 196.509 103.17H198.509ZM152.985 229.786C153.376 230.176 154.009 230.176 154.399 229.786L160.763 223.422C161.154 223.031 161.154 222.398 160.763 222.007C160.373 221.617 159.74 221.617 159.349 222.007L153.692 227.664L148.036 222.007C147.645 221.617 147.012 221.617 146.621 222.007C146.231 222.398 146.231 223.031 146.621 223.422L152.985 229.786ZM197.509 103.17H196.509V144.216H197.509H198.509V103.17H197.509ZM153.692 188.032H152.692V229.078H153.692H154.692V188.032H153.692ZM175.6 166.124V165.124C162.949 165.124 152.692 175.381 152.692 188.032H153.692H154.692C154.692 176.485 164.053 167.124 175.6 167.124V166.124ZM197.509 144.216H196.509C196.509 155.763 187.148 165.124 175.6 165.124V166.124V167.124C188.252 167.124 198.509 156.868 198.509 144.216H197.509Z" fill="#212528"/>
<path d="M198.508 103.17C198.508 102.618 198.061 102.17 197.508 102.17C196.956 102.17 196.508 102.618 196.508 103.17H198.508ZM245.393 229.786C245.783 230.176 246.416 230.176 246.807 229.786L253.171 223.422C253.561 223.031 253.561 222.398 253.171 222.007C252.78 221.617 252.147 221.617 251.757 222.007L246.1 227.664L240.443 222.007C240.052 221.617 239.419 221.617 239.029 222.007C238.638 222.398 238.638 223.031 239.029 223.422L245.393 229.786ZM197.508 103.17H196.508V142.124H197.508H198.508V103.17H197.508ZM221.508 166.124V167.124H222.1V166.124V165.124H221.508V166.124ZM246.1 190.124H245.1V229.078H246.1H247.1V190.124H246.1ZM222.1 166.124V167.124C234.802 167.124 245.1 177.422 245.1 190.124H246.1H247.1C247.1 176.317 235.907 165.124 222.1 165.124V166.124ZM197.508 142.124H196.508C196.508 155.931 207.701 167.124 221.508 167.124V166.124V165.124C208.806 165.124 198.508 154.827 198.508 142.124H197.508Z" fill="#212528"/>
<path d="M198.508 103.17C198.508 102.618 198.061 102.17 197.508 102.17C196.956 102.17 196.508 102.618 196.508 103.17H198.508ZM337.8 229.786C338.191 230.176 338.824 230.176 339.215 229.786L345.579 223.422C345.969 223.031 345.969 222.398 345.579 222.007C345.188 221.617 344.555 221.617 344.164 222.007L338.508 227.664L332.851 222.007C332.46 221.617 331.827 221.617 331.436 222.007C331.046 222.398 331.046 223.031 331.436 223.422L337.8 229.786ZM197.508 103.17H196.508V142.124H197.508H198.508V103.17H197.508ZM221.508 166.124V167.124H314.508V166.124V165.124H221.508V166.124ZM338.508 190.124H337.508V229.078H338.508H339.508V190.124H338.508ZM314.508 166.124V167.124C327.21 167.124 337.508 177.422 337.508 190.124H338.508H339.508C339.508 176.317 328.315 165.124 314.508 165.124V166.124ZM197.508 142.124H196.508C196.508 155.931 207.701 167.124 221.508 167.124V166.124V165.124C208.806 165.124 198.508 154.827 198.508 142.124H197.508Z" fill="#212528"/>
<defs>
<filter id="filter0_d_422_497" x="19.896" y="232.578" width="85.4979" height="85.4978" filterUnits="userSpaceOnUse" color-interpolation-filters="sRGB">
<feFlood flood-opacity="0" result="BackgroundImageFix"/>
<feColorMatrix in="SourceAlpha" type="matrix" values="0 0 0 0 0 0 0 0 0 0 0 0 0 0 0 0 0 0 127 0" result="hardAlpha"/>
<feOffset dx="2.72103" dy="2.72103"/>
<feComposite in2="hardAlpha" operator="out"/>
<feColorMatrix type="matrix" values="0 0 0 0 0.979608 0 0 0 0 0.800784 0 0 0 0 0.620392 0 0 0 1 0"/>
<feBlend mode="normal" in2="BackgroundImageFix" result="effect1_dropShadow_422_497"/>
<feBlend mode="normal" in="SourceGraphic" in2="effect1_dropShadow_422_497" result="shape"/>
</filter>
<filter id="filter1_d_422_497" x="112.304" y="232.578" width="85.4979" height="85.4978" filterUnits="userSpaceOnUse" color-interpolation-filters="sRGB">
<feFlood flood-opacity="0" result="BackgroundImageFix"/>
<feColorMatrix in="SourceAlpha" type="matrix" values="0 0 0 0 0 0 0 0 0 0 0 0 0 0 0 0 0 0 127 0" result="hardAlpha"/>
<feOffset dx="2.72103" dy="2.72103"/>
<feComposite in2="hardAlpha" operator="out"/>
<feColorMatrix type="matrix" values="0 0 0 0 0.933333 0 0 0 0 0.666667 0 0 0 0 0.905882 0 0 0 1 0"/>
<feBlend mode="normal" in2="BackgroundImageFix" result="effect1_dropShadow_422_497"/>
<feBlend mode="normal" in="SourceGraphic" in2="effect1_dropShadow_422_497" result="shape"/>
</filter>
<filter id="filter2_d_422_497" x="204.711" y="232.578" width="85.4979" height="85.4978" filterUnits="userSpaceOnUse" color-interpolation-filters="sRGB">
<feFlood flood-opacity="0" result="BackgroundImageFix"/>
<feColorMatrix in="SourceAlpha" type="matrix" values="0 0 0 0 0 0 0 0 0 0 0 0 0 0 0 0 0 0 127 0" result="hardAlpha"/>
<feOffset dx="2.72103" dy="2.72103"/>
<feComposite in2="hardAlpha" operator="out"/>
<feColorMatrix type="matrix" values="0 0 0 0 0.67451 0 0 0 0 0.933333 0 0 0 0 0.666667 0 0 0 1 0"/>
<feBlend mode="normal" in2="BackgroundImageFix" result="effect1_dropShadow_422_497"/>
<feBlend mode="normal" in="SourceGraphic" in2="effect1_dropShadow_422_497" result="shape"/>
</filter>
<filter id="filter3_d_422_497" x="297.119" y="232.578" width="85.4979" height="85.4978" filterUnits="userSpaceOnUse" color-interpolation-filters="sRGB">
<feFlood flood-opacity="0" result="BackgroundImageFix"/>
<feColorMatrix in="SourceAlpha" type="matrix" values="0 0 0 0 0 0 0 0 0 0 0 0 0 0 0 0 0 0 127 0" result="hardAlpha"/>
<feOffset dx="2.72103" dy="2.72103"/>
<feComposite in2="hardAlpha" operator="out"/>
<feColorMatrix type="matrix" values="0 0 0 0 0.666667 0 0 0 0 0.803922 0 0 0 0 0.933333 0 0 0 1 0"/>
<feBlend mode="normal" in2="BackgroundImageFix" result="effect1_dropShadow_422_497"/>
<feBlend mode="normal" in="SourceGraphic" in2="effect1_dropShadow_422_497" result="shape"/>
</filter>
<clipPath id="clip0_422_497">
<rect width="122.153" height="24.0776" fill="white" transform="translate(136.432 75.5927)"/>
</clipPath>
</defs>
</svg>
