<svg width="500" height="500" viewBox="0 0 500 500" fill="none" xmlns="http://www.w3.org/2000/svg">
<rect width="500" height="500" rx="8" fill="#E9ECFF"/>
<rect x="100" y="20" width="300" height="140" rx="4" fill="#1A237E"/>
<path fill-rule="evenodd" clip-rule="evenodd" d="M196.121 88.949C198.272 86.7908 201.644 86.4597 204.175 88.1538C206.704 89.8501 207.686 93.1009 206.522 95.9215C205.357 98.7397 202.369 100.342 199.387 99.7467C196.402 99.1497 194.252 96.523 194.252 93.4727C194.252 91.7741 194.924 90.1475 196.121 88.949ZM196.938 89.769V89.7668C195.177 91.5352 194.906 94.3039 196.289 96.3811C197.675 98.4582 200.33 99.2669 202.632 98.3095C204.932 97.3544 206.241 94.8988 205.754 92.4478C205.269 89.999 203.124 88.2328 200.633 88.2328C199.247 88.2306 197.918 88.7823 196.938 89.769ZM190.705 87.2977H188.133C187.783 87.2977 187.5 87.5815 187.5 87.933C187.5 88.2845 187.783 88.5683 188.133 88.5683H190.871C190.975 88.361 191.083 88.1583 191.199 87.9578L190.707 87.3022L190.705 87.2977ZM190.604 97.8135H188.133C187.783 97.8135 187.5 98.0973 187.5 98.4465C187.5 98.798 187.783 99.0818 188.133 99.0818H191.132L191.199 98.9917C190.977 98.611 190.779 98.2167 190.604 97.8135ZM209.718 97.07C209.727 97.0385 209.739 97.0092 209.752 96.9822C209.92 96.5384 210.058 96.0856 210.161 95.6215C210.212 95.3872 210.406 95.207 210.644 95.1754L213.117 94.824V92.1207L210.644 91.7692C210.394 91.7354 210.195 91.5417 210.154 91.2916C210.033 90.7532 209.867 90.2283 209.655 89.7192C209.615 89.62 209.572 89.5232 209.527 89.4263H209.53C209.514 89.3993 209.503 89.3722 209.491 89.343C209.314 88.96 209.11 88.5883 208.885 88.2323C208.748 88.0138 208.77 87.7322 208.941 87.5407L209.783 86.4166H209.786C209.804 86.3873 209.824 86.3603 209.846 86.3332L210.417 85.5741L208.51 83.6614L206.513 85.1686V85.1708C206.32 85.3127 206.062 85.324 205.86 85.1956C204.914 84.5918 203.872 84.1593 202.778 83.9137C202.542 83.8619 202.365 83.6682 202.333 83.4294L201.983 80.9491H199.287L198.937 83.4294C198.903 83.6817 198.708 83.88 198.459 83.9205C197.378 84.1683 196.347 84.5986 195.413 85.1956C195.195 85.333 194.914 85.3082 194.721 85.137L192.756 83.6592L190.849 85.5718L191.419 86.331C191.442 86.358 191.462 86.385 191.48 86.4143L192.351 87.5767C192.495 87.7682 192.506 88.0295 192.378 88.2323C192.152 88.5882 191.949 88.9599 191.772 89.3429C191.761 89.3722 191.747 89.3992 191.734 89.4263C191.691 89.5231 191.648 89.6223 191.608 89.7191H191.606C191.392 90.2373 191.224 90.7734 191.1 91.3231C191.049 91.5574 190.856 91.7353 190.617 91.7691L188.145 92.1206V94.8239L190.617 95.1754V95.1731C190.869 95.2069 191.067 95.4006 191.107 95.6529C191.21 96.1035 191.345 96.5473 191.511 96.9776C191.525 97.0069 191.536 97.0362 191.545 97.0655C191.565 97.1173 191.586 97.1713 191.608 97.2231C191.821 97.739 192.08 98.2369 192.378 98.71C192.515 98.9262 192.493 99.2101 192.322 99.4016L191.904 99.9603L191.902 99.958C191.884 99.9873 191.864 100.017 191.842 100.041L190.847 101.368L192.753 103.281L194.75 101.774V101.771C194.941 101.627 195.202 101.618 195.404 101.747C196.349 102.35 197.394 102.785 198.488 103.033C198.724 103.085 198.901 103.276 198.935 103.515L199.285 106H201.978L202.329 103.515C202.362 103.265 202.558 103.065 202.807 103.026C203.887 102.779 204.918 102.348 205.855 101.751C206.071 101.614 206.354 101.636 206.544 101.808L208.503 103.285L210.41 101.373L209.415 100.046V100.048C209.392 100.023 209.372 99.9963 209.354 99.967L208.907 99.3723V99.3701C208.764 99.1786 208.752 98.9173 208.88 98.7145C209.181 98.2437 209.44 97.7458 209.653 97.2277L209.716 97.0723L209.718 97.07ZM225.818 74.3464C225.481 74.0085 224.976 73.9071 224.536 74.0896C224.093 74.2721 223.806 74.7024 223.806 75.18V79.654C223.806 80.3073 224.334 80.8367 224.985 80.8367C225.636 80.8367 226.164 80.3073 226.164 79.654V75.18C226.164 74.8668 226.038 74.5672 225.818 74.3464ZM222.656 78.0523V76.784L188.133 76.7817C187.783 76.7817 187.5 77.0656 187.5 77.417C187.5 77.7662 187.783 78.0501 188.133 78.0501L222.656 78.0523ZM227.321 76.784V78.0523L232.867 78.05C233.217 78.05 233.5 77.7662 233.5 77.417C233.5 77.0655 233.217 76.7817 232.867 76.7817L227.321 76.784ZM218.287 84.8603C217.95 84.5224 217.443 84.421 217.002 84.6035C216.562 84.7859 216.275 85.2162 216.275 85.6938V90.1723C216.275 90.8256 216.802 91.355 217.454 91.355C218.103 91.355 218.631 90.8256 218.631 90.1723V85.6938C218.631 85.3829 218.507 85.081 218.287 84.8603ZM215.125 88.5639L210.397 88.5661C210.293 88.3589 210.183 88.1561 210.069 87.9556L210.561 87.2978H215.122V88.5661L215.125 88.5639ZM219.79 88.5639L232.866 88.5661C233.217 88.5661 233.5 88.2823 233.5 87.9308C233.5 87.5794 233.217 87.2955 232.866 87.2955H219.788V88.5638L219.79 88.5639ZM225.145 95.3765C224.808 95.0386 224.3 94.9372 223.86 95.1197C223.42 95.3022 223.132 95.7325 223.132 96.21V100.684C223.132 101.337 223.66 101.867 224.311 101.867C224.96 101.867 225.488 101.337 225.488 100.684V96.21C225.488 95.8969 225.365 95.5973 225.145 95.3765ZM226.645 97.8118V99.0801L232.866 99.0824C233.217 99.0824 233.5 98.7985 233.5 98.4471C233.5 98.0979 233.217 97.814 232.866 97.814L226.645 97.8118ZM221.98 97.8118V99.0801L210.136 99.0824L210.069 98.9923H210.066C210.289 98.6115 210.484 98.2196 210.659 97.8163L221.98 97.8118Z" fill="#E9ECFF"/>
<path d="M253.44 97.7C252.44 97.7 251.513 97.52 250.66 97.16C249.807 96.7867 249.06 96.2733 248.42 95.62C247.793 94.9667 247.307 94.2067 246.96 93.34C246.613 92.4733 246.44 91.5467 246.44 90.56C246.44 89.56 246.613 88.6267 246.96 87.76C247.307 86.8933 247.793 86.14 248.42 85.5C249.06 84.8467 249.8 84.34 250.64 83.98C251.493 83.6067 252.42 83.42 253.42 83.42C254.513 83.42 255.473 83.6067 256.3 83.98C257.127 84.3533 257.86 84.86 258.5 85.5L257.2 86.8C256.76 86.3067 256.22 85.92 255.58 85.64C254.953 85.36 254.233 85.22 253.42 85.22C252.687 85.22 252.013 85.3533 251.4 85.62C250.787 85.8733 250.253 86.24 249.8 86.72C249.347 87.2 248.993 87.7667 248.74 88.42C248.5 89.0733 248.38 89.7867 248.38 90.56C248.38 91.3333 248.5 92.0467 248.74 92.7C248.993 93.3533 249.347 93.92 249.8 94.4C250.253 94.88 250.787 95.2533 251.4 95.52C252.013 95.7733 252.687 95.9 253.42 95.9C254.287 95.9 255.04 95.76 255.68 95.48C256.32 95.1867 256.86 94.7933 257.3 94.3L258.6 95.58C257.96 96.2467 257.207 96.7667 256.34 97.14C255.487 97.5133 254.52 97.7 253.44 97.7ZM264.598 97.7C263.664 97.7 262.824 97.48 262.078 97.04C261.331 96.6 260.738 96.0067 260.298 95.26C259.858 94.5 259.638 93.6533 259.638 92.72C259.638 91.8 259.858 90.9733 260.298 90.24C260.738 89.4933 261.331 88.9 262.078 88.46C262.824 88.02 263.664 87.8 264.598 87.8C265.518 87.8 266.351 88.02 267.098 88.46C267.858 88.8867 268.458 89.4733 268.898 90.22C269.338 90.9667 269.558 91.8 269.558 92.72C269.558 93.6533 269.338 94.5 268.898 95.26C268.458 96.0067 267.858 96.6 267.098 97.04C266.351 97.48 265.518 97.7 264.598 97.7ZM264.598 95.96C265.198 95.96 265.731 95.82 266.198 95.54C266.664 95.26 267.031 94.88 267.298 94.4C267.564 93.9067 267.698 93.3467 267.698 92.72C267.698 92.1067 267.558 91.56 267.278 91.08C267.011 90.6 266.644 90.2267 266.178 89.96C265.724 89.68 265.198 89.54 264.598 89.54C263.998 89.54 263.464 89.68 262.998 89.96C262.531 90.2267 262.164 90.6 261.898 91.08C261.631 91.56 261.498 92.1067 261.498 92.72C261.498 93.3467 261.631 93.9067 261.898 94.4C262.164 94.88 262.531 95.26 262.998 95.54C263.464 95.82 263.998 95.96 264.598 95.96ZM278.306 97.5V91.96C278.306 91.24 278.079 90.6467 277.626 90.18C277.172 89.7133 276.586 89.48 275.866 89.48C275.386 89.48 274.959 89.5867 274.586 89.8C274.212 90.0133 273.919 90.3067 273.706 90.68C273.492 91.0533 273.386 91.48 273.386 91.96L272.646 91.54C272.646 90.82 272.806 90.18 273.126 89.62C273.446 89.06 273.892 88.62 274.466 88.3C275.039 87.9667 275.686 87.8 276.406 87.8C277.126 87.8 277.759 87.98 278.306 88.34C278.866 88.7 279.306 89.1733 279.626 89.76C279.946 90.3333 280.106 90.9467 280.106 91.6V97.5H278.306ZM271.586 97.5V88H273.386V97.5H271.586ZM283.885 97.5V84.02H285.685V97.5H283.885ZM281.545 89.64V88H288.025V89.64H281.545ZM289.789 97.5V88H291.589V97.5H289.789ZM291.589 92.08L290.909 91.78C290.909 90.5667 291.189 89.6 291.749 88.88C292.309 88.16 293.115 87.8 294.169 87.8C294.649 87.8 295.082 87.8867 295.469 88.06C295.855 88.22 296.215 88.4933 296.549 88.88L295.369 90.1C295.169 89.8867 294.949 89.7333 294.709 89.64C294.469 89.5467 294.189 89.5 293.869 89.5C293.202 89.5 292.655 89.7133 292.229 90.14C291.802 90.5667 291.589 91.2133 291.589 92.08ZM301.844 97.7C300.91 97.7 300.07 97.48 299.324 97.04C298.577 96.6 297.984 96.0067 297.544 95.26C297.104 94.5 296.884 93.6533 296.884 92.72C296.884 91.8 297.104 90.9733 297.544 90.24C297.984 89.4933 298.577 88.9 299.324 88.46C300.07 88.02 300.91 87.8 301.844 87.8C302.764 87.8 303.597 88.02 304.344 88.46C305.104 88.8867 305.704 89.4733 306.144 90.22C306.584 90.9667 306.804 91.8 306.804 92.72C306.804 93.6533 306.584 94.5 306.144 95.26C305.704 96.0067 305.104 96.6 304.344 97.04C303.597 97.48 302.764 97.7 301.844 97.7ZM301.844 95.96C302.444 95.96 302.977 95.82 303.444 95.54C303.91 95.26 304.277 94.88 304.544 94.4C304.81 93.9067 304.944 93.3467 304.944 92.72C304.944 92.1067 304.804 91.56 304.524 91.08C304.257 90.6 303.89 90.2267 303.424 89.96C302.97 89.68 302.444 89.54 301.844 89.54C301.244 89.54 300.71 89.68 300.244 89.96C299.777 90.2267 299.41 90.6 299.144 91.08C298.877 91.56 298.744 92.1067 298.744 92.72C298.744 93.3467 298.877 93.9067 299.144 94.4C299.41 94.88 299.777 95.26 300.244 95.54C300.71 95.82 301.244 95.96 301.844 95.96ZM308.832 97.5V83.22H310.632V97.5H308.832Z" fill="#E9ECFF"/>
<rect x="100" y="180" width="140" height="140" rx="4" fill="#1A237E"/>
<path d="M179.91 232.807C179.963 232.38 180.003 231.953 180.003 231.5C180.003 231.047 179.963 230.62 179.91 230.193L182.723 227.993C182.976 227.793 183.043 227.433 182.883 227.14L180.216 222.527C180.096 222.313 179.87 222.193 179.63 222.193C179.55 222.193 179.47 222.207 179.403 222.233L176.083 223.567C175.39 223.033 174.643 222.593 173.83 222.26L173.323 218.727C173.283 218.407 173.003 218.167 172.67 218.167H167.336C167.003 218.167 166.723 218.407 166.683 218.727L166.176 222.26C165.363 222.593 164.616 223.047 163.923 223.567L160.603 222.233C160.523 222.207 160.443 222.193 160.363 222.193C160.136 222.193 159.91 222.313 159.79 222.527L157.123 227.14C156.95 227.433 157.03 227.793 157.283 227.993L160.096 230.193C160.043 230.62 160.003 231.06 160.003 231.5C160.003 231.94 160.043 232.38 160.096 232.807L157.283 235.007C157.03 235.207 156.963 235.567 157.123 235.86L159.79 240.473C159.91 240.687 160.136 240.807 160.376 240.807C160.456 240.807 160.536 240.793 160.603 240.767L163.923 239.433C164.616 239.967 165.363 240.407 166.176 240.74L166.683 244.273C166.723 244.593 167.003 244.833 167.336 244.833H172.67C173.003 244.833 173.283 244.593 173.323 244.273L173.83 240.74C174.643 240.407 175.39 239.953 176.083 239.433L179.403 240.767C179.483 240.793 179.563 240.807 179.643 240.807C179.87 240.807 180.096 240.687 180.216 240.473L182.883 235.86C183.043 235.567 182.976 235.207 182.723 235.007L179.91 232.807ZM177.27 230.527C177.323 230.94 177.336 231.22 177.336 231.5C177.336 231.78 177.31 232.073 177.27 232.473L177.083 233.98L178.27 234.913L179.71 236.033L178.776 237.647L177.083 236.967L175.696 236.407L174.496 237.313C173.923 237.74 173.376 238.06 172.83 238.287L171.416 238.86L171.203 240.367L170.936 242.167H169.07L168.603 238.86L167.19 238.287C166.616 238.047 166.083 237.74 165.55 237.34L164.336 236.407L162.923 236.98L161.23 237.66L160.296 236.047L161.736 234.927L162.923 233.993L162.736 232.487C162.696 232.073 162.67 231.767 162.67 231.5C162.67 231.233 162.696 230.927 162.736 230.527L162.923 229.02L161.736 228.087L160.296 226.967L161.23 225.353L162.923 226.033L164.31 226.593L165.51 225.687C166.083 225.26 166.63 224.94 167.176 224.713L168.59 224.14L168.803 222.633L169.07 220.833H170.923L171.39 224.14L172.803 224.713C173.376 224.953 173.91 225.26 174.443 225.66L175.656 226.593L177.07 226.02L178.763 225.34L179.696 226.953L178.27 228.087L177.083 229.02L177.27 230.527ZM170.003 226.167C167.056 226.167 164.67 228.553 164.67 231.5C164.67 234.447 167.056 236.833 170.003 236.833C172.95 236.833 175.336 234.447 175.336 231.5C175.336 228.553 172.95 226.167 170.003 226.167ZM170.003 234.167C168.536 234.167 167.336 232.967 167.336 231.5C167.336 230.033 168.536 228.833 170.003 228.833C171.47 228.833 172.67 230.033 172.67 231.5C172.67 232.967 171.47 234.167 170.003 234.167Z" fill="#E9ECFF"/>
<path d="M134.64 279.5V265.62H135.96L141.84 275.28H140.94L146.82 265.62H148.14V279.5H146.26V268.92L146.7 269.04L142.06 276.66H140.74L136.1 269.04L136.52 268.92V279.5H134.64ZM155.137 279.7C154.271 279.7 153.484 279.487 152.777 279.06C152.071 278.62 151.511 278.027 151.097 277.28C150.697 276.533 150.497 275.693 150.497 274.76C150.497 273.827 150.697 272.987 151.097 272.24C151.511 271.493 152.064 270.9 152.757 270.46C153.464 270.02 154.257 269.8 155.137 269.8C155.857 269.8 156.497 269.953 157.057 270.26C157.631 270.553 158.091 270.967 158.437 271.5C158.784 272.02 158.977 272.627 159.017 273.32V276.18C158.977 276.86 158.784 277.467 158.437 278C158.104 278.533 157.651 278.953 157.077 279.26C156.517 279.553 155.871 279.7 155.137 279.7ZM155.437 278C156.331 278 157.051 277.7 157.597 277.1C158.144 276.487 158.417 275.707 158.417 274.76C158.417 274.107 158.291 273.54 158.037 273.06C157.797 272.567 157.451 272.187 156.997 271.92C156.544 271.64 156.017 271.5 155.417 271.5C154.817 271.5 154.284 271.64 153.817 271.92C153.364 272.2 153.004 272.587 152.737 273.08C152.484 273.56 152.357 274.113 152.357 274.74C152.357 275.38 152.484 275.947 152.737 276.44C153.004 276.92 153.371 277.3 153.837 277.58C154.304 277.86 154.837 278 155.437 278ZM158.297 279.5V276.94L158.637 274.62L158.297 272.32V270H160.117V279.5H158.297ZM169.458 279.5V273.96C169.458 273.24 169.231 272.647 168.778 272.18C168.325 271.713 167.738 271.48 167.018 271.48C166.538 271.48 166.111 271.587 165.738 271.8C165.365 272.013 165.071 272.307 164.858 272.68C164.645 273.053 164.538 273.48 164.538 273.96L163.798 273.54C163.798 272.82 163.958 272.18 164.278 271.62C164.598 271.06 165.045 270.62 165.618 270.3C166.191 269.967 166.838 269.8 167.558 269.8C168.278 269.8 168.911 269.98 169.458 270.34C170.018 270.7 170.458 271.173 170.778 271.76C171.098 272.333 171.258 272.947 171.258 273.6V279.5H169.458ZM162.738 279.5V270H164.538V279.5H162.738ZM177.735 279.7C176.868 279.7 176.082 279.487 175.375 279.06C174.668 278.62 174.108 278.027 173.695 277.28C173.295 276.533 173.095 275.693 173.095 274.76C173.095 273.827 173.295 272.987 173.695 272.24C174.108 271.493 174.662 270.9 175.355 270.46C176.062 270.02 176.855 269.8 177.735 269.8C178.455 269.8 179.095 269.953 179.655 270.26C180.228 270.553 180.688 270.967 181.035 271.5C181.382 272.02 181.575 272.627 181.615 273.32V276.18C181.575 276.86 181.382 277.467 181.035 278C180.702 278.533 180.248 278.953 179.675 279.26C179.115 279.553 178.468 279.7 177.735 279.7ZM178.035 278C178.928 278 179.648 277.7 180.195 277.1C180.742 276.487 181.015 275.707 181.015 274.76C181.015 274.107 180.888 273.54 180.635 273.06C180.395 272.567 180.048 272.187 179.595 271.92C179.142 271.64 178.615 271.5 178.015 271.5C177.415 271.5 176.882 271.64 176.415 271.92C175.962 272.2 175.602 272.587 175.335 273.08C175.082 273.56 174.955 274.113 174.955 274.74C174.955 275.38 175.082 275.947 175.335 276.44C175.602 276.92 175.968 277.3 176.435 277.58C176.902 277.86 177.435 278 178.035 278ZM180.895 279.5V276.94L181.235 274.62L180.895 272.32V270H182.715V279.5H180.895ZM189.276 283.68C188.302 283.68 187.436 283.5 186.676 283.14C185.929 282.78 185.329 282.273 184.876 281.62L186.036 280.44C186.422 280.933 186.882 281.307 187.416 281.56C187.949 281.827 188.582 281.96 189.316 281.96C190.289 281.96 191.056 281.7 191.616 281.18C192.189 280.673 192.476 279.987 192.476 279.12V276.76L192.796 274.62L192.476 272.5V270H194.276V279.12C194.276 280.027 194.062 280.82 193.636 281.5C193.222 282.18 192.636 282.713 191.876 283.1C191.129 283.487 190.262 283.68 189.276 283.68ZM189.276 279.34C188.409 279.34 187.629 279.133 186.936 278.72C186.256 278.307 185.716 277.74 185.316 277.02C184.916 276.287 184.716 275.467 184.716 274.56C184.716 273.653 184.916 272.847 185.316 272.14C185.716 271.42 186.256 270.853 186.936 270.44C187.629 270.013 188.409 269.8 189.276 269.8C190.022 269.8 190.682 269.947 191.256 270.24C191.829 270.533 192.282 270.947 192.616 271.48C192.962 272 193.149 272.613 193.176 273.32V275.84C193.136 276.533 192.942 277.147 192.596 277.68C192.262 278.2 191.809 278.607 191.236 278.9C190.662 279.193 190.009 279.34 189.276 279.34ZM189.636 277.64C190.222 277.64 190.736 277.513 191.176 277.26C191.629 277.007 191.976 276.653 192.216 276.2C192.456 275.733 192.576 275.193 192.576 274.58C192.576 273.967 192.449 273.433 192.196 272.98C191.956 272.513 191.616 272.153 191.176 271.9C190.736 271.633 190.216 271.5 189.616 271.5C189.016 271.5 188.489 271.633 188.036 271.9C187.582 272.153 187.222 272.513 186.956 272.98C186.702 273.433 186.576 273.96 186.576 274.56C186.576 275.16 186.702 275.693 186.956 276.16C187.222 276.627 187.582 276.993 188.036 277.26C188.502 277.513 189.036 277.64 189.636 277.64ZM201.318 279.7C200.371 279.7 199.518 279.487 198.758 279.06C197.998 278.62 197.398 278.027 196.958 277.28C196.518 276.533 196.298 275.687 196.298 274.74C196.298 273.807 196.511 272.967 196.938 272.22C197.378 271.473 197.964 270.887 198.698 270.46C199.444 270.02 200.278 269.8 201.198 269.8C202.078 269.8 202.851 270 203.518 270.4C204.198 270.8 204.724 271.353 205.098 272.06C205.484 272.767 205.678 273.567 205.678 274.46C205.678 274.593 205.671 274.74 205.658 274.9C205.644 275.047 205.618 275.22 205.578 275.42H197.558V273.92H204.618L203.958 274.5C203.958 273.86 203.844 273.32 203.618 272.88C203.391 272.427 203.071 272.08 202.658 271.84C202.244 271.587 201.744 271.46 201.158 271.46C200.544 271.46 200.004 271.593 199.538 271.86C199.071 272.127 198.711 272.5 198.458 272.98C198.204 273.46 198.078 274.027 198.078 274.68C198.078 275.347 198.211 275.933 198.478 276.44C198.744 276.933 199.124 277.32 199.618 277.6C200.111 277.867 200.678 278 201.318 278C201.851 278 202.338 277.907 202.778 277.72C203.231 277.533 203.618 277.253 203.938 276.88L205.098 278.06C204.644 278.593 204.084 279 203.418 279.28C202.764 279.56 202.064 279.7 201.318 279.7Z" fill="#E9ECFF"/>
<rect x="260" y="180" width="140" height="140" rx="4" fill="#1A237E"/>
<path d="M331.333 219.58V216.833H328.667V219.58C323.107 220.193 318.693 224.607 318.08 230.167H315.333V232.833H318.08C318.693 238.393 323.107 242.807 328.667 243.42V246.167H331.333V243.42C336.893 242.807 341.307 238.393 341.92 232.833H344.667V230.167H341.92C341.307 224.607 336.893 220.193 331.333 219.58ZM330 240.833C324.84 240.833 320.667 236.66 320.667 231.5C320.667 226.34 324.84 222.167 330 222.167C335.16 222.167 339.333 226.34 339.333 231.5C339.333 236.66 335.16 240.833 330 240.833Z" fill="#E9ECFF"/>
<path opacity="0.3" d="M330 234.167C331.473 234.167 332.667 232.973 332.667 231.5C332.667 230.027 331.473 228.833 330 228.833C328.527 228.833 327.333 230.027 327.333 231.5C327.333 232.973 328.527 234.167 330 234.167Z" fill="#E9ECFF"/>
<path d="M330 226.167C327.053 226.167 324.667 228.553 324.667 231.5C324.667 234.447 327.053 236.833 330 236.833C332.947 236.833 335.333 234.447 335.333 231.5C335.333 228.553 332.947 226.167 330 226.167ZM330 234.167C328.533 234.167 327.333 232.967 327.333 231.5C327.333 230.033 328.533 228.833 330 228.833C331.467 228.833 332.667 230.033 332.667 231.5C332.667 232.967 331.467 234.167 330 234.167Z" fill="#E9ECFF"/>
<path d="M310.32 279.5V266.02H312.2V279.5H310.32ZM305.6 267.34V265.62H316.9V267.34H305.6ZM316.691 279.5V270H318.491V279.5H316.691ZM318.491 274.08L317.811 273.78C317.811 272.567 318.091 271.6 318.651 270.88C319.211 270.16 320.018 269.8 321.071 269.8C321.551 269.8 321.984 269.887 322.371 270.06C322.758 270.22 323.118 270.493 323.451 270.88L322.271 272.1C322.071 271.887 321.851 271.733 321.611 271.64C321.371 271.547 321.091 271.5 320.771 271.5C320.104 271.5 319.558 271.713 319.131 272.14C318.704 272.567 318.491 273.213 318.491 274.08ZM328.446 279.7C327.579 279.7 326.793 279.487 326.086 279.06C325.379 278.62 324.819 278.027 324.406 277.28C324.006 276.533 323.806 275.693 323.806 274.76C323.806 273.827 324.006 272.987 324.406 272.24C324.819 271.493 325.373 270.9 326.066 270.46C326.773 270.02 327.566 269.8 328.446 269.8C329.166 269.8 329.806 269.953 330.366 270.26C330.939 270.553 331.399 270.967 331.746 271.5C332.093 272.02 332.286 272.627 332.326 273.32V276.18C332.286 276.86 332.093 277.467 331.746 278C331.413 278.533 330.959 278.953 330.386 279.26C329.826 279.553 329.179 279.7 328.446 279.7ZM328.746 278C329.639 278 330.359 277.7 330.906 277.1C331.453 276.487 331.726 275.707 331.726 274.76C331.726 274.107 331.599 273.54 331.346 273.06C331.106 272.567 330.759 272.187 330.306 271.92C329.853 271.64 329.326 271.5 328.726 271.5C328.126 271.5 327.593 271.64 327.126 271.92C326.673 272.2 326.313 272.587 326.046 273.08C325.793 273.56 325.666 274.113 325.666 274.74C325.666 275.38 325.793 275.947 326.046 276.44C326.313 276.92 326.679 277.3 327.146 277.58C327.613 277.86 328.146 278 328.746 278ZM331.606 279.5V276.94L331.946 274.62L331.606 272.32V270H333.426V279.5H331.606ZM340.387 279.7C339.453 279.7 338.607 279.48 337.847 279.04C337.1 278.6 336.507 278.007 336.067 277.26C335.64 276.5 335.427 275.66 335.427 274.74C335.427 273.807 335.64 272.967 336.067 272.22C336.507 271.473 337.1 270.887 337.847 270.46C338.607 270.02 339.453 269.8 340.387 269.8C341.12 269.8 341.8 269.94 342.427 270.22C343.053 270.487 343.593 270.88 344.047 271.4L342.847 272.6C342.553 272.253 342.193 271.993 341.767 271.82C341.353 271.633 340.893 271.54 340.387 271.54C339.787 271.54 339.253 271.68 338.787 271.96C338.32 272.227 337.953 272.6 337.687 273.08C337.42 273.56 337.287 274.113 337.287 274.74C337.287 275.367 337.42 275.92 337.687 276.4C337.953 276.88 338.32 277.26 338.787 277.54C339.253 277.82 339.787 277.96 340.387 277.96C340.893 277.96 341.353 277.873 341.767 277.7C342.193 277.513 342.56 277.247 342.867 276.9L344.047 278.1C343.607 278.607 343.067 279 342.427 279.28C341.8 279.56 341.12 279.7 340.387 279.7ZM351.912 279.5L347.472 274.64L351.872 270H354.052L349.152 275.12L349.232 274.08L354.232 279.5H351.912ZM345.832 279.5V265.22H347.632V279.5H345.832Z" fill="#E9ECFF"/>
<rect x="100" y="340" width="140" height="140" rx="4" fill="white"/>
<path d="M122.426 393.5V385.412H123.554V393.5H122.426ZM119.594 386.204V385.172H126.374V386.204H119.594ZM128.548 393.62C127.988 393.62 127.484 393.488 127.036 393.224C126.588 392.96 126.232 392.604 125.968 392.156C125.704 391.7 125.572 391.192 125.572 390.632C125.572 390.08 125.704 389.584 125.968 389.144C126.232 388.696 126.588 388.34 127.036 388.076C127.484 387.812 127.988 387.68 128.548 387.68C129.1 387.68 129.6 387.812 130.048 388.076C130.504 388.332 130.864 388.684 131.128 389.132C131.392 389.58 131.524 390.08 131.524 390.632C131.524 391.192 131.392 391.7 131.128 392.156C130.864 392.604 130.504 392.96 130.048 393.224C129.6 393.488 129.1 393.62 128.548 393.62ZM128.548 392.576C128.908 392.576 129.228 392.492 129.508 392.324C129.788 392.156 130.008 391.928 130.168 391.64C130.328 391.344 130.408 391.008 130.408 390.632C130.408 390.264 130.324 389.936 130.156 389.648C129.996 389.36 129.776 389.136 129.496 388.976C129.224 388.808 128.908 388.724 128.548 388.724C128.188 388.724 127.868 388.808 127.588 388.976C127.308 389.136 127.088 389.36 126.928 389.648C126.768 389.936 126.688 390.264 126.688 390.632C126.688 391.008 126.768 391.344 126.928 391.64C127.088 391.928 127.308 392.156 127.588 392.324C127.868 392.492 128.188 392.576 128.548 392.576ZM133.441 393.5V385.412H134.521V393.5H133.441ZM132.037 388.784V387.8H135.925V388.784H132.037ZM139.232 393.62C138.712 393.62 138.24 393.492 137.816 393.236C137.392 392.972 137.056 392.616 136.808 392.168C136.568 391.72 136.448 391.216 136.448 390.656C136.448 390.096 136.568 389.592 136.808 389.144C137.056 388.696 137.388 388.34 137.804 388.076C138.228 387.812 138.704 387.68 139.232 387.68C139.664 387.68 140.048 387.772 140.384 387.956C140.728 388.132 141.004 388.38 141.212 388.7C141.42 389.012 141.536 389.376 141.56 389.792V391.508C141.536 391.916 141.42 392.28 141.212 392.6C141.012 392.92 140.74 393.172 140.396 393.356C140.06 393.532 139.672 393.62 139.232 393.62ZM139.412 392.6C139.948 392.6 140.38 392.42 140.708 392.06C141.036 391.692 141.2 391.224 141.2 390.656C141.2 390.264 141.124 389.924 140.972 389.636C140.828 389.34 140.62 389.112 140.348 388.952C140.076 388.784 139.76 388.7 139.4 388.7C139.04 388.7 138.72 388.784 138.44 388.952C138.168 389.12 137.952 389.352 137.792 389.648C137.64 389.936 137.564 390.268 137.564 390.644C137.564 391.028 137.64 391.368 137.792 391.664C137.952 391.952 138.172 392.18 138.452 392.348C138.732 392.516 139.052 392.6 139.412 392.6ZM141.128 393.5V391.964L141.332 390.572L141.128 389.192V387.8H142.22V393.5H141.128ZM143.792 393.5V384.932H144.872V393.5H143.792ZM149.896 390.26V389.276H152.164C152.476 389.276 152.752 389.212 152.992 389.084C153.24 388.956 153.432 388.776 153.568 388.544C153.712 388.312 153.784 388.036 153.784 387.716C153.784 387.396 153.712 387.12 153.568 386.888C153.432 386.656 153.24 386.476 152.992 386.348C152.752 386.22 152.476 386.156 152.164 386.156H149.896V385.172H152.236C152.748 385.172 153.204 385.276 153.604 385.484C154.012 385.692 154.332 385.988 154.564 386.372C154.804 386.748 154.924 387.196 154.924 387.716C154.924 388.228 154.804 388.676 154.564 389.06C154.332 389.436 154.012 389.732 153.604 389.948C153.204 390.156 152.748 390.26 152.236 390.26H149.896ZM149.14 393.5V385.172H150.268V393.5H149.14ZM156.226 393.5V387.8H157.306V393.5H156.226ZM157.306 390.248L156.898 390.068C156.898 389.34 157.066 388.76 157.402 388.328C157.738 387.896 158.222 387.68 158.854 387.68C159.142 387.68 159.402 387.732 159.634 387.836C159.866 387.932 160.082 388.096 160.282 388.328L159.574 389.06C159.454 388.932 159.322 388.84 159.178 388.784C159.034 388.728 158.866 388.7 158.674 388.7C158.274 388.7 157.946 388.828 157.69 389.084C157.434 389.34 157.306 389.728 157.306 390.248ZM163.459 393.62C162.899 393.62 162.395 393.488 161.947 393.224C161.499 392.96 161.143 392.604 160.879 392.156C160.615 391.7 160.483 391.192 160.483 390.632C160.483 390.08 160.615 389.584 160.879 389.144C161.143 388.696 161.499 388.34 161.947 388.076C162.395 387.812 162.899 387.68 163.459 387.68C164.011 387.68 164.511 387.812 164.959 388.076C165.415 388.332 165.775 388.684 166.039 389.132C166.303 389.58 166.435 390.08 166.435 390.632C166.435 391.192 166.303 391.7 166.039 392.156C165.775 392.604 165.415 392.96 164.959 393.224C164.511 393.488 164.011 393.62 163.459 393.62ZM163.459 392.576C163.819 392.576 164.139 392.492 164.419 392.324C164.699 392.156 164.919 391.928 165.079 391.64C165.239 391.344 165.319 391.008 165.319 390.632C165.319 390.264 165.235 389.936 165.067 389.648C164.907 389.36 164.687 389.136 164.407 388.976C164.135 388.808 163.819 388.724 163.459 388.724C163.099 388.724 162.779 388.808 162.499 388.976C162.219 389.136 161.999 389.36 161.839 389.648C161.679 389.936 161.599 390.264 161.599 390.632C161.599 391.008 161.679 391.344 161.839 391.64C161.999 391.928 162.219 392.156 162.499 392.324C162.779 392.492 163.099 392.576 163.459 392.576ZM170.063 393.62C169.535 393.62 169.063 393.492 168.647 393.236C168.231 392.972 167.899 392.616 167.651 392.168C167.411 391.72 167.291 391.216 167.291 390.656C167.291 390.096 167.411 389.592 167.651 389.144C167.899 388.696 168.231 388.34 168.647 388.076C169.063 387.812 169.535 387.68 170.063 387.68C170.487 387.68 170.871 387.772 171.215 387.956C171.559 388.132 171.835 388.38 172.043 388.7C172.259 389.012 172.379 389.376 172.403 389.792V391.508C172.379 391.916 172.263 392.28 172.055 392.6C171.847 392.92 171.571 393.172 171.227 393.356C170.883 393.532 170.495 393.62 170.063 393.62ZM170.243 392.6C170.603 392.6 170.915 392.516 171.179 392.348C171.451 392.18 171.663 391.952 171.815 391.664C171.967 391.368 172.043 391.032 172.043 390.656C172.043 390.264 171.963 389.924 171.803 389.636C171.651 389.348 171.439 389.12 171.167 388.952C170.903 388.784 170.591 388.7 170.231 388.7C169.871 388.7 169.555 388.784 169.283 388.952C169.011 389.12 168.795 389.352 168.635 389.648C168.483 389.936 168.407 390.268 168.407 390.644C168.407 391.028 168.483 391.368 168.635 391.664C168.795 391.952 169.011 392.18 169.283 392.348C169.563 392.516 169.883 392.6 170.243 392.6ZM173.063 393.5H171.971V391.964L172.175 390.572L171.971 389.192V384.932H173.063V393.5ZM176.928 393.62C176.464 393.62 176.044 393.516 175.668 393.308C175.3 393.092 175.012 392.796 174.804 392.42C174.596 392.044 174.492 391.608 174.492 391.112V387.8H175.572V391.064C175.572 391.376 175.624 391.648 175.728 391.88C175.84 392.104 176 392.276 176.208 392.396C176.416 392.516 176.66 392.576 176.94 392.576C177.364 392.576 177.696 392.444 177.936 392.18C178.176 391.908 178.296 391.536 178.296 391.064V387.8H179.376V391.112C179.376 391.608 179.272 392.044 179.064 392.42C178.856 392.796 178.568 393.092 178.2 393.308C177.84 393.516 177.416 393.62 176.928 393.62ZM183.427 393.62C182.867 393.62 182.359 393.488 181.903 393.224C181.455 392.96 181.099 392.604 180.835 392.156C180.579 391.7 180.451 391.196 180.451 390.644C180.451 390.084 180.579 389.58 180.835 389.132C181.099 388.684 181.455 388.332 181.903 388.076C182.359 387.812 182.867 387.68 183.427 387.68C183.867 387.68 184.275 387.764 184.651 387.932C185.027 388.092 185.351 388.328 185.623 388.64L184.903 389.36C184.727 389.152 184.511 388.996 184.255 388.892C184.007 388.78 183.731 388.724 183.427 388.724C183.067 388.724 182.747 388.808 182.467 388.976C182.187 389.136 181.967 389.36 181.807 389.648C181.647 389.936 181.567 390.268 181.567 390.644C181.567 391.02 181.647 391.352 181.807 391.64C181.967 391.928 182.187 392.156 182.467 392.324C182.747 392.492 183.067 392.576 183.427 392.576C183.731 392.576 184.007 392.524 184.255 392.42C184.511 392.308 184.731 392.148 184.915 391.94L185.623 392.66C185.359 392.964 185.035 393.2 184.651 393.368C184.275 393.536 183.867 393.62 183.427 393.62ZM187.5 393.5V385.412H188.58V393.5H187.5ZM186.096 388.784V387.8H189.984V388.784H186.096ZM192.737 393.62C192.417 393.62 192.113 393.58 191.825 393.5C191.545 393.412 191.285 393.292 191.045 393.14C190.805 392.98 190.597 392.792 190.421 392.576L191.117 391.88C191.325 392.136 191.565 392.328 191.837 392.456C192.109 392.576 192.413 392.636 192.749 392.636C193.085 392.636 193.345 392.58 193.529 392.468C193.713 392.348 193.805 392.184 193.805 391.976C193.805 391.768 193.729 391.608 193.577 391.496C193.433 391.376 193.245 391.28 193.013 391.208C192.781 391.128 192.533 391.052 192.269 390.98C192.013 390.9 191.769 390.8 191.537 390.68C191.305 390.56 191.113 390.396 190.961 390.188C190.817 389.98 190.745 389.704 190.745 389.36C190.745 389.016 190.829 388.72 190.997 388.472C191.165 388.216 191.397 388.02 191.693 387.884C191.997 387.748 192.361 387.68 192.785 387.68C193.233 387.68 193.629 387.76 193.973 387.92C194.325 388.072 194.613 388.304 194.837 388.616L194.141 389.312C193.981 389.104 193.781 388.944 193.541 388.832C193.309 388.72 193.045 388.664 192.749 388.664C192.437 388.664 192.197 388.72 192.029 388.832C191.869 388.936 191.789 389.084 191.789 389.276C191.789 389.468 191.861 389.616 192.005 389.72C192.149 389.824 192.337 389.912 192.569 389.984C192.809 390.056 193.057 390.132 193.313 390.212C193.569 390.284 193.813 390.384 194.045 390.512C194.277 390.64 194.465 390.812 194.609 391.028C194.761 391.244 194.837 391.528 194.837 391.88C194.837 392.416 194.645 392.84 194.261 393.152C193.885 393.464 193.377 393.62 192.737 393.62ZM201.05 393.62C200.394 393.62 199.834 393.5 199.37 393.26C198.906 393.02 198.494 392.672 198.134 392.216L198.902 391.448C199.166 391.816 199.47 392.096 199.814 392.288C200.158 392.472 200.582 392.564 201.086 392.564C201.582 392.564 201.978 392.456 202.274 392.24C202.578 392.024 202.73 391.728 202.73 391.352C202.73 391.04 202.658 390.788 202.514 390.596C202.37 390.404 202.174 390.248 201.926 390.128C201.686 390 201.422 389.888 201.134 389.792C200.846 389.688 200.558 389.58 200.27 389.468C199.982 389.348 199.718 389.204 199.478 389.036C199.238 388.86 199.042 388.632 198.89 388.352C198.746 388.072 198.674 387.72 198.674 387.296C198.674 386.824 198.786 386.424 199.01 386.096C199.242 385.76 199.554 385.504 199.946 385.328C200.346 385.144 200.794 385.052 201.29 385.052C201.834 385.052 202.322 385.16 202.754 385.376C203.186 385.584 203.538 385.86 203.81 386.204L203.042 386.972C202.794 386.684 202.526 386.468 202.238 386.324C201.958 386.18 201.634 386.108 201.266 386.108C200.818 386.108 200.462 386.208 200.198 386.408C199.934 386.6 199.802 386.872 199.802 387.224C199.802 387.504 199.874 387.732 200.018 387.908C200.17 388.076 200.366 388.22 200.606 388.34C200.846 388.46 201.11 388.572 201.398 388.676C201.694 388.772 201.986 388.88 202.274 389C202.562 389.12 202.826 389.272 203.066 389.456C203.306 389.64 203.498 389.88 203.642 390.176C203.794 390.464 203.87 390.828 203.87 391.268C203.87 392.004 203.614 392.58 203.102 392.996C202.598 393.412 201.914 393.62 201.05 393.62ZM207.72 393.62C207.16 393.62 206.656 393.488 206.208 393.224C205.76 392.96 205.404 392.604 205.14 392.156C204.876 391.7 204.744 391.192 204.744 390.632C204.744 390.08 204.876 389.584 205.14 389.144C205.404 388.696 205.76 388.34 206.208 388.076C206.656 387.812 207.16 387.68 207.72 387.68C208.272 387.68 208.772 387.812 209.22 388.076C209.676 388.332 210.036 388.684 210.3 389.132C210.564 389.58 210.696 390.08 210.696 390.632C210.696 391.192 210.564 391.7 210.3 392.156C210.036 392.604 209.676 392.96 209.22 393.224C208.772 393.488 208.272 393.62 207.72 393.62ZM207.72 392.576C208.08 392.576 208.4 392.492 208.68 392.324C208.96 392.156 209.18 391.928 209.34 391.64C209.5 391.344 209.58 391.008 209.58 390.632C209.58 390.264 209.496 389.936 209.328 389.648C209.168 389.36 208.948 389.136 208.668 388.976C208.396 388.808 208.08 388.724 207.72 388.724C207.36 388.724 207.04 388.808 206.76 388.976C206.48 389.136 206.26 389.36 206.1 389.648C205.94 389.936 205.86 390.264 205.86 390.632C205.86 391.008 205.94 391.344 206.1 391.64C206.26 391.928 206.48 392.156 206.76 392.324C207.04 392.492 207.36 392.576 207.72 392.576ZM211.913 393.5V384.932H212.993V393.5H211.913ZM216.985 393.62C216.457 393.62 215.985 393.492 215.569 393.236C215.153 392.972 214.821 392.616 214.573 392.168C214.333 391.72 214.213 391.216 214.213 390.656C214.213 390.096 214.333 389.592 214.573 389.144C214.821 388.696 215.153 388.34 215.569 388.076C215.985 387.812 216.457 387.68 216.985 387.68C217.409 387.68 217.793 387.772 218.137 387.956C218.481 388.132 218.757 388.38 218.965 388.7C219.181 389.012 219.301 389.376 219.325 389.792V391.508C219.301 391.916 219.185 392.28 218.977 392.6C218.769 392.92 218.493 393.172 218.149 393.356C217.805 393.532 217.417 393.62 216.985 393.62ZM217.165 392.6C217.525 392.6 217.837 392.516 218.101 392.348C218.373 392.18 218.585 391.952 218.737 391.664C218.889 391.368 218.965 391.032 218.965 390.656C218.965 390.264 218.885 389.924 218.725 389.636C218.573 389.348 218.361 389.12 218.089 388.952C217.825 388.784 217.513 388.7 217.153 388.7C216.793 388.7 216.477 388.784 216.205 388.952C215.933 389.12 215.717 389.352 215.557 389.648C215.405 389.936 215.329 390.268 215.329 390.644C215.329 391.028 215.405 391.368 215.557 391.664C215.717 391.952 215.933 392.18 216.205 392.348C216.485 392.516 216.805 392.6 217.165 392.6ZM219.985 393.5H218.893V391.964L219.097 390.572L218.893 389.192V384.932H219.985V393.5Z" fill="#8F9396"/>
<path d="M153.864 432.5V415.628H157.08V432.5H153.864ZM150.552 418.46V415.628H156.84V418.46H150.552ZM162.677 432.5V415.628H165.893V432.5H162.677ZM159.365 418.46V415.628H165.653V418.46H159.365ZM168.249 430.628L174.609 423.98C175.057 423.5 175.417 423.076 175.689 422.708C175.977 422.324 176.185 421.964 176.313 421.628C176.441 421.276 176.505 420.924 176.505 420.572C176.505 419.868 176.273 419.316 175.809 418.916C175.361 418.516 174.777 418.316 174.057 418.316C173.321 418.316 172.665 418.508 172.089 418.892C171.529 419.276 171.001 419.884 170.505 420.716L168.273 418.82C168.945 417.684 169.777 416.828 170.769 416.252C171.777 415.66 172.929 415.364 174.225 415.364C175.329 415.364 176.289 415.58 177.105 416.012C177.937 416.444 178.577 417.044 179.025 417.812C179.473 418.58 179.697 419.476 179.697 420.5C179.697 421.188 179.609 421.812 179.433 422.372C179.273 422.932 178.993 423.492 178.593 424.052C178.209 424.596 177.673 425.212 176.985 425.9L172.353 430.628H168.249ZM168.249 432.5V430.628L171.033 429.668H180.057V432.5H168.249ZM184.755 432.5V415.628H187.971V432.5H184.755ZM181.443 418.46V415.628H187.731V418.46H181.443Z" fill="#212528"/>
<rect x="260" y="340" width="140" height="140" rx="4" fill="white"/>
<path d="M295.182 393.5V385.412H296.31V393.5H295.182ZM292.35 386.204V385.172H299.13V386.204H292.35ZM301.304 393.62C300.744 393.62 300.24 393.488 299.792 393.224C299.344 392.96 298.988 392.604 298.724 392.156C298.46 391.7 298.328 391.192 298.328 390.632C298.328 390.08 298.46 389.584 298.724 389.144C298.988 388.696 299.344 388.34 299.792 388.076C300.24 387.812 300.744 387.68 301.304 387.68C301.856 387.68 302.356 387.812 302.804 388.076C303.26 388.332 303.62 388.684 303.884 389.132C304.148 389.58 304.28 390.08 304.28 390.632C304.28 391.192 304.148 391.7 303.884 392.156C303.62 392.604 303.26 392.96 302.804 393.224C302.356 393.488 301.856 393.62 301.304 393.62ZM301.304 392.576C301.664 392.576 301.984 392.492 302.264 392.324C302.544 392.156 302.764 391.928 302.924 391.64C303.084 391.344 303.164 391.008 303.164 390.632C303.164 390.264 303.08 389.936 302.912 389.648C302.752 389.36 302.532 389.136 302.252 388.976C301.98 388.808 301.664 388.724 301.304 388.724C300.944 388.724 300.624 388.808 300.344 388.976C300.064 389.136 299.844 389.36 299.684 389.648C299.524 389.936 299.444 390.264 299.444 390.632C299.444 391.008 299.524 391.344 299.684 391.64C299.844 391.928 300.064 392.156 300.344 392.324C300.624 392.492 300.944 392.576 301.304 392.576ZM306.197 393.5V385.412H307.277V393.5H306.197ZM304.793 388.784V387.8H308.681V388.784H304.793ZM311.987 393.62C311.467 393.62 310.995 393.492 310.571 393.236C310.147 392.972 309.811 392.616 309.563 392.168C309.323 391.72 309.203 391.216 309.203 390.656C309.203 390.096 309.323 389.592 309.563 389.144C309.811 388.696 310.143 388.34 310.559 388.076C310.983 387.812 311.459 387.68 311.987 387.68C312.419 387.68 312.803 387.772 313.139 387.956C313.483 388.132 313.759 388.38 313.967 388.7C314.175 389.012 314.291 389.376 314.315 389.792V391.508C314.291 391.916 314.175 392.28 313.967 392.6C313.767 392.92 313.495 393.172 313.151 393.356C312.815 393.532 312.427 393.62 311.987 393.62ZM312.167 392.6C312.703 392.6 313.135 392.42 313.463 392.06C313.791 391.692 313.955 391.224 313.955 390.656C313.955 390.264 313.879 389.924 313.727 389.636C313.583 389.34 313.375 389.112 313.103 388.952C312.831 388.784 312.515 388.7 312.155 388.7C311.795 388.7 311.475 388.784 311.195 388.952C310.923 389.12 310.707 389.352 310.547 389.648C310.395 389.936 310.319 390.268 310.319 390.644C310.319 391.028 310.395 391.368 310.547 391.664C310.707 391.952 310.927 392.18 311.207 392.348C311.487 392.516 311.807 392.6 312.167 392.6ZM313.883 393.5V391.964L314.087 390.572L313.883 389.192V387.8H314.975V393.5H313.883ZM316.548 393.5V384.932H317.628V393.5H316.548ZM322.652 390.26V389.276H324.92C325.232 389.276 325.508 389.212 325.748 389.084C325.996 388.956 326.188 388.776 326.324 388.544C326.468 388.312 326.54 388.036 326.54 387.716C326.54 387.396 326.468 387.12 326.324 386.888C326.188 386.656 325.996 386.476 325.748 386.348C325.508 386.22 325.232 386.156 324.92 386.156H322.652V385.172H324.992C325.504 385.172 325.96 385.276 326.36 385.484C326.768 385.692 327.088 385.988 327.32 386.372C327.56 386.748 327.68 387.196 327.68 387.716C327.68 388.228 327.56 388.676 327.32 389.06C327.088 389.436 326.768 389.732 326.36 389.948C325.96 390.156 325.504 390.26 324.992 390.26H322.652ZM321.896 393.5V385.172H323.024V393.5H321.896ZM328.981 393.5V387.8H330.061V393.5H328.981ZM330.061 390.248L329.653 390.068C329.653 389.34 329.821 388.76 330.157 388.328C330.493 387.896 330.977 387.68 331.609 387.68C331.897 387.68 332.157 387.732 332.389 387.836C332.621 387.932 332.837 388.096 333.037 388.328L332.329 389.06C332.209 388.932 332.077 388.84 331.933 388.784C331.789 388.728 331.621 388.7 331.429 388.7C331.029 388.7 330.701 388.828 330.445 389.084C330.189 389.34 330.061 389.728 330.061 390.248ZM336.214 393.62C335.654 393.62 335.15 393.488 334.702 393.224C334.254 392.96 333.898 392.604 333.634 392.156C333.37 391.7 333.238 391.192 333.238 390.632C333.238 390.08 333.37 389.584 333.634 389.144C333.898 388.696 334.254 388.34 334.702 388.076C335.15 387.812 335.654 387.68 336.214 387.68C336.766 387.68 337.266 387.812 337.714 388.076C338.17 388.332 338.53 388.684 338.794 389.132C339.058 389.58 339.19 390.08 339.19 390.632C339.19 391.192 339.058 391.7 338.794 392.156C338.53 392.604 338.17 392.96 337.714 393.224C337.266 393.488 336.766 393.62 336.214 393.62ZM336.214 392.576C336.574 392.576 336.894 392.492 337.174 392.324C337.454 392.156 337.674 391.928 337.834 391.64C337.994 391.344 338.074 391.008 338.074 390.632C338.074 390.264 337.99 389.936 337.822 389.648C337.662 389.36 337.442 389.136 337.162 388.976C336.89 388.808 336.574 388.724 336.214 388.724C335.854 388.724 335.534 388.808 335.254 388.976C334.974 389.136 334.754 389.36 334.594 389.648C334.434 389.936 334.354 390.264 334.354 390.632C334.354 391.008 334.434 391.344 334.594 391.64C334.754 391.928 334.974 392.156 335.254 392.324C335.534 392.492 335.854 392.576 336.214 392.576ZM342.819 393.62C342.291 393.62 341.819 393.492 341.403 393.236C340.987 392.972 340.655 392.616 340.407 392.168C340.167 391.72 340.047 391.216 340.047 390.656C340.047 390.096 340.167 389.592 340.407 389.144C340.655 388.696 340.987 388.34 341.403 388.076C341.819 387.812 342.291 387.68 342.819 387.68C343.243 387.68 343.627 387.772 343.971 387.956C344.315 388.132 344.591 388.38 344.799 388.7C345.015 389.012 345.135 389.376 345.159 389.792V391.508C345.135 391.916 345.019 392.28 344.811 392.6C344.603 392.92 344.327 393.172 343.983 393.356C343.639 393.532 343.251 393.62 342.819 393.62ZM342.999 392.6C343.359 392.6 343.671 392.516 343.935 392.348C344.207 392.18 344.419 391.952 344.571 391.664C344.723 391.368 344.799 391.032 344.799 390.656C344.799 390.264 344.719 389.924 344.559 389.636C344.407 389.348 344.195 389.12 343.923 388.952C343.659 388.784 343.347 388.7 342.987 388.7C342.627 388.7 342.311 388.784 342.039 388.952C341.767 389.12 341.551 389.352 341.391 389.648C341.239 389.936 341.163 390.268 341.163 390.644C341.163 391.028 341.239 391.368 341.391 391.664C341.551 391.952 341.767 392.18 342.039 392.348C342.319 392.516 342.639 392.6 342.999 392.6ZM345.819 393.5H344.727V391.964L344.931 390.572L344.727 389.192V384.932H345.819V393.5ZM349.684 393.62C349.22 393.62 348.8 393.516 348.424 393.308C348.056 393.092 347.768 392.796 347.56 392.42C347.352 392.044 347.248 391.608 347.248 391.112V387.8H348.328V391.064C348.328 391.376 348.38 391.648 348.484 391.88C348.596 392.104 348.756 392.276 348.964 392.396C349.172 392.516 349.416 392.576 349.696 392.576C350.12 392.576 350.452 392.444 350.692 392.18C350.932 391.908 351.052 391.536 351.052 391.064V387.8H352.132V391.112C352.132 391.608 352.028 392.044 351.82 392.42C351.612 392.796 351.324 393.092 350.956 393.308C350.596 393.516 350.172 393.62 349.684 393.62ZM356.183 393.62C355.623 393.62 355.115 393.488 354.659 393.224C354.211 392.96 353.855 392.604 353.591 392.156C353.335 391.7 353.207 391.196 353.207 390.644C353.207 390.084 353.335 389.58 353.591 389.132C353.855 388.684 354.211 388.332 354.659 388.076C355.115 387.812 355.623 387.68 356.183 387.68C356.623 387.68 357.031 387.764 357.407 387.932C357.783 388.092 358.107 388.328 358.379 388.64L357.659 389.36C357.483 389.152 357.267 388.996 357.011 388.892C356.763 388.78 356.487 388.724 356.183 388.724C355.823 388.724 355.503 388.808 355.223 388.976C354.943 389.136 354.723 389.36 354.563 389.648C354.403 389.936 354.323 390.268 354.323 390.644C354.323 391.02 354.403 391.352 354.563 391.64C354.723 391.928 354.943 392.156 355.223 392.324C355.503 392.492 355.823 392.576 356.183 392.576C356.487 392.576 356.763 392.524 357.011 392.42C357.267 392.308 357.487 392.148 357.671 391.94L358.379 392.66C358.115 392.964 357.791 393.2 357.407 393.368C357.031 393.536 356.623 393.62 356.183 393.62ZM360.256 393.5V385.412H361.336V393.5H360.256ZM358.852 388.784V387.8H362.74V388.784H358.852ZM365.493 393.62C365.173 393.62 364.869 393.58 364.581 393.5C364.301 393.412 364.041 393.292 363.801 393.14C363.561 392.98 363.353 392.792 363.177 392.576L363.873 391.88C364.081 392.136 364.321 392.328 364.593 392.456C364.865 392.576 365.169 392.636 365.505 392.636C365.841 392.636 366.101 392.58 366.285 392.468C366.469 392.348 366.561 392.184 366.561 391.976C366.561 391.768 366.485 391.608 366.333 391.496C366.189 391.376 366.001 391.28 365.769 391.208C365.537 391.128 365.289 391.052 365.025 390.98C364.769 390.9 364.525 390.8 364.293 390.68C364.061 390.56 363.869 390.396 363.717 390.188C363.573 389.98 363.501 389.704 363.501 389.36C363.501 389.016 363.585 388.72 363.753 388.472C363.921 388.216 364.153 388.02 364.449 387.884C364.753 387.748 365.117 387.68 365.541 387.68C365.989 387.68 366.385 387.76 366.729 387.92C367.081 388.072 367.369 388.304 367.593 388.616L366.897 389.312C366.737 389.104 366.537 388.944 366.297 388.832C366.065 388.72 365.801 388.664 365.505 388.664C365.193 388.664 364.953 388.72 364.785 388.832C364.625 388.936 364.545 389.084 364.545 389.276C364.545 389.468 364.617 389.616 364.761 389.72C364.905 389.824 365.093 389.912 365.325 389.984C365.565 390.056 365.813 390.132 366.069 390.212C366.325 390.284 366.569 390.384 366.801 390.512C367.033 390.64 367.221 390.812 367.365 391.028C367.517 391.244 367.593 391.528 367.593 391.88C367.593 392.416 367.401 392.84 367.017 393.152C366.641 393.464 366.133 393.62 365.493 393.62Z" fill="#8F9396"/>
<path d="M306.452 432.5L311.588 425.348L312.764 424.988C312.572 425.356 312.348 425.684 312.092 425.972C311.852 426.244 311.54 426.452 311.156 426.596C310.772 426.74 310.268 426.812 309.644 426.812C308.652 426.812 307.74 426.58 306.908 426.116C306.092 425.636 305.436 424.98 304.94 424.148C304.444 423.316 304.196 422.364 304.196 421.292C304.196 420.204 304.468 419.212 305.012 418.316C305.556 417.404 306.292 416.684 307.22 416.156C308.148 415.628 309.18 415.364 310.316 415.364C311.468 415.364 312.5 415.628 313.412 416.156C314.34 416.684 315.068 417.388 315.596 418.268C316.14 419.148 316.412 420.132 316.412 421.22C316.412 422.708 315.892 424.212 314.852 425.732L310.172 432.5H306.452ZM310.316 424.316C310.876 424.316 311.372 424.188 311.804 423.932C312.236 423.676 312.572 423.324 312.812 422.876C313.068 422.412 313.196 421.9 313.196 421.34C313.196 420.748 313.068 420.228 312.812 419.78C312.572 419.332 312.236 418.98 311.804 418.724C311.372 418.452 310.876 418.316 310.316 418.316C309.756 418.316 309.252 418.452 308.804 418.724C308.372 418.98 308.028 419.332 307.772 419.78C307.532 420.228 307.412 420.748 307.412 421.34C307.412 421.916 307.532 422.428 307.772 422.876C308.028 423.324 308.38 423.676 308.828 423.932C309.276 424.188 309.772 424.316 310.316 424.316ZM323.531 432.74C322.331 432.74 321.291 432.532 320.411 432.116C319.547 431.7 318.867 431.116 318.371 430.364C317.891 429.612 317.651 428.764 317.651 427.82C317.651 427.036 317.803 426.324 318.107 425.684C318.411 425.044 318.843 424.508 319.403 424.076C319.979 423.628 320.651 423.316 321.419 423.14L321.347 423.932C320.707 423.772 320.163 423.492 319.715 423.092C319.267 422.692 318.931 422.22 318.707 421.676C318.483 421.116 318.371 420.54 318.371 419.948C318.371 419.036 318.587 418.236 319.019 417.548C319.467 416.86 320.075 416.324 320.843 415.94C321.627 415.556 322.523 415.364 323.531 415.364C324.539 415.364 325.427 415.556 326.195 415.94C326.963 416.324 327.563 416.86 327.995 417.548C328.443 418.236 328.667 419.036 328.667 419.948C328.667 420.54 328.555 421.116 328.331 421.676C328.107 422.22 327.771 422.692 327.323 423.092C326.891 423.492 326.347 423.772 325.691 423.932L325.619 423.14C326.403 423.316 327.075 423.628 327.635 424.076C328.195 424.508 328.627 425.044 328.931 425.684C329.235 426.324 329.387 427.036 329.387 427.82C329.387 428.764 329.147 429.612 328.667 430.364C328.187 431.116 327.507 431.7 326.627 432.116C325.747 432.532 324.715 432.74 323.531 432.74ZM323.531 429.884C324.059 429.884 324.531 429.78 324.947 429.572C325.363 429.348 325.683 429.044 325.907 428.66C326.147 428.276 326.267 427.844 326.267 427.364C326.267 426.868 326.147 426.436 325.907 426.068C325.683 425.684 325.363 425.388 324.947 425.18C324.531 424.956 324.059 424.844 323.531 424.844C322.987 424.844 322.507 424.956 322.091 425.18C321.691 425.388 321.371 425.684 321.131 426.068C320.891 426.436 320.771 426.868 320.771 427.364C320.771 427.844 320.891 428.276 321.131 428.66C321.371 429.044 321.691 429.348 322.091 429.572C322.507 429.78 322.987 429.884 323.531 429.884ZM323.531 422.372C324.155 422.372 324.667 422.172 325.067 421.772C325.467 421.372 325.667 420.86 325.667 420.236C325.667 419.596 325.467 419.076 325.067 418.676C324.667 418.276 324.155 418.076 323.531 418.076C322.907 418.076 322.387 418.276 321.971 418.676C321.571 419.076 321.371 419.588 321.371 420.212C321.371 420.852 321.571 421.372 321.971 421.772C322.387 422.172 322.907 422.372 323.531 422.372ZM335.796 432.74C334.66 432.74 333.62 432.54 332.676 432.14C331.732 431.724 330.94 431.132 330.3 430.364L332.46 428.228C332.78 428.708 333.236 429.092 333.828 429.38C334.42 429.668 335.06 429.812 335.748 429.812C336.388 429.812 336.94 429.7 337.404 429.476C337.868 429.236 338.228 428.908 338.484 428.492C338.756 428.06 338.892 427.564 338.892 427.004C338.892 426.412 338.756 425.908 338.484 425.492C338.228 425.076 337.852 424.756 337.356 424.532C336.86 424.308 336.268 424.196 335.58 424.196C335.276 424.196 334.964 424.22 334.644 424.268C334.324 424.3 334.052 424.356 333.828 424.436L335.268 422.612C335.668 422.484 336.06 422.38 336.444 422.3C336.844 422.204 337.212 422.156 337.548 422.156C338.412 422.156 339.188 422.364 339.876 422.78C340.58 423.18 341.132 423.756 341.532 424.508C341.948 425.244 342.156 426.116 342.156 427.124C342.156 428.244 341.892 429.228 341.364 430.076C340.836 430.908 340.092 431.564 339.132 432.044C338.188 432.508 337.076 432.74 335.796 432.74ZM333.828 424.436V422.564L338.148 417.548L341.892 417.5L337.428 422.612L333.828 424.436ZM331.236 418.46V415.628H341.892V417.5L339.228 418.46H331.236ZM343.64 430.628L350 423.98C350.448 423.5 350.808 423.076 351.08 422.708C351.368 422.324 351.576 421.964 351.704 421.628C351.832 421.276 351.896 420.924 351.896 420.572C351.896 419.868 351.664 419.316 351.2 418.916C350.752 418.516 350.168 418.316 349.448 418.316C348.712 418.316 348.056 418.508 347.48 418.892C346.92 419.276 346.392 419.884 345.896 420.716L343.664 418.82C344.336 417.684 345.168 416.828 346.16 416.252C347.168 415.66 348.32 415.364 349.616 415.364C350.72 415.364 351.68 415.58 352.496 416.012C353.328 416.444 353.968 417.044 354.416 417.812C354.864 418.58 355.088 419.476 355.088 420.5C355.088 421.188 355 421.812 354.824 422.372C354.664 422.932 354.384 423.492 353.984 424.052C353.6 424.596 353.064 425.212 352.376 425.9L347.744 430.628H343.64ZM343.64 432.5V430.628L346.424 429.668H355.448V432.5H343.64Z" fill="#212528"/>
</svg>
