<svg width="400" height="400" viewBox="0 0 400 400" fill="none" xmlns="http://www.w3.org/2000/svg">
<g filter="url(#filter0_d_422_368)">
<rect x="20" y="78.7437" width="121.371" height="109.029" rx="11.624" fill="white" shape-rendering="crispEdges"/>
<rect x="20.3633" y="79.1069" width="120.645" height="108.302" rx="11.2608" stroke="#212528" stroke-width="0.7265" shape-rendering="crispEdges"/>
<path d="M93.3995 108.943L90.8567 106.4L88.314 108.943L85.7712 106.4L83.2285 108.943L80.6857 106.4L78.143 108.943L75.6002 106.4L73.0575 108.943L70.5147 106.4V130.132H65.4292V135.218C65.4292 138.032 67.7007 140.303 70.5147 140.303H90.8567C93.6707 140.303 95.9422 138.032 95.9422 135.218V106.4L93.3995 108.943ZM85.7712 136.913H70.5147C69.5824 136.913 68.8195 136.15 68.8195 135.218V133.523H85.7712V136.913ZM92.5519 135.218C92.5519 136.15 91.7891 136.913 90.8567 136.913C89.9244 136.913 89.1615 136.15 89.1615 135.218V130.132H73.905V111.486H92.5519V135.218Z" fill="#F2800D"/>
<path d="M85.7712 114.876H75.6002V118.266H85.7712V114.876Z" fill="#F2800D"/>
<path d="M90.8567 114.876H87.4664V118.266H90.8567V114.876Z" fill="#F2800D"/>
<path d="M85.7712 119.961H75.6002V123.352H85.7712V119.961Z" fill="#F2800D"/>
<path d="M90.8567 119.961H87.4664V123.352H90.8567V119.961Z" fill="#F2800D"/>
<path d="M61.5194 160.506V152.052H63.0508V159.222H66.7741V160.506H61.5194ZM70.8442 160.63C70.2085 160.63 69.6595 160.498 69.1972 160.234C68.7376 159.967 68.384 159.59 68.1363 159.103C67.8886 158.613 67.7648 158.036 67.7648 157.373C67.7648 156.721 67.8886 156.148 68.1363 155.656C68.3867 155.16 68.7362 154.775 69.1848 154.5C69.6333 154.222 70.1603 154.083 70.7657 154.083C71.1565 154.083 71.5253 154.146 71.872 154.273C72.2215 154.397 72.5297 154.589 72.7966 154.851C73.0663 155.112 73.2782 155.445 73.4323 155.85C73.5864 156.252 73.6635 156.73 73.6635 157.286V157.744H68.4665V156.737H72.2311C72.2284 156.451 72.1665 156.197 72.0454 155.974C71.9243 155.748 71.755 155.57 71.5376 155.441C71.323 155.312 71.0726 155.247 70.7864 155.247C70.4809 155.247 70.2126 155.321 69.9814 155.47C69.7503 155.616 69.57 155.808 69.4407 156.048C69.3141 156.285 69.2494 156.545 69.2467 156.828V157.707C69.2467 158.076 69.3141 158.393 69.449 158.657C69.5838 158.918 69.7723 159.119 70.0145 159.259C70.2566 159.397 70.5401 159.466 70.8648 159.466C71.0822 159.466 71.279 159.435 71.4551 159.375C71.6312 159.312 71.7839 159.219 71.9133 159.098C72.0426 158.977 72.1403 158.827 72.2064 158.648L73.6016 158.805C73.5135 159.174 73.3456 159.496 73.098 159.771C72.8531 160.044 72.5393 160.256 72.1568 160.407C71.7743 160.556 71.3368 160.63 70.8442 160.63ZM77.2805 160.617C76.7824 160.617 76.3366 160.489 75.9431 160.234C75.5496 159.978 75.2386 159.606 75.0102 159.119C74.7818 158.632 74.6676 158.04 74.6676 157.344C74.6676 156.64 74.7832 156.045 75.0143 155.561C75.2482 155.074 75.5633 154.706 75.9596 154.459C76.3559 154.208 76.7975 154.083 77.2846 154.083C77.6561 154.083 77.9616 154.146 78.201 154.273C78.4404 154.397 78.6303 154.547 78.7707 154.723C78.911 154.896 79.0197 155.06 79.0968 155.214H79.1587V152.052H80.6571V160.506H79.1876V159.507H79.0968C79.0197 159.661 78.9083 159.825 78.7624 159.998C78.6166 160.169 78.4239 160.315 78.1845 160.436C77.9451 160.557 77.6438 160.617 77.2805 160.617ZM77.6974 159.391C78.0139 159.391 78.2836 159.306 78.5065 159.136C78.7294 158.962 78.8986 158.721 79.0142 158.413C79.1298 158.105 79.1876 157.746 79.1876 157.336C79.1876 156.926 79.1298 156.569 79.0142 156.267C78.9014 155.964 78.7335 155.729 78.5106 155.561C78.2905 155.393 78.0194 155.309 77.6974 155.309C77.3644 155.309 77.0865 155.396 76.8636 155.569C76.6407 155.742 76.4728 155.982 76.36 156.287C76.2472 156.593 76.1908 156.942 76.1908 157.336C76.1908 157.732 76.2472 158.086 76.36 158.397C76.4756 158.705 76.6448 158.948 76.8677 159.127C77.0934 159.303 77.3699 159.391 77.6974 159.391ZM85.0068 163.016C84.4702 163.016 84.0092 162.943 83.624 162.797C83.2387 162.654 82.9291 162.461 82.6952 162.219C82.4613 161.977 82.2989 161.709 82.2081 161.414L83.5538 161.088C83.6143 161.212 83.7024 161.334 83.818 161.455C83.9336 161.579 84.089 161.681 84.2844 161.761C84.4826 161.843 84.7316 161.885 85.0316 161.885C85.4554 161.885 85.8062 161.781 86.0842 161.575C86.3621 161.371 86.5011 161.036 86.5011 160.568V159.367H86.4268C86.3497 159.521 86.2369 159.679 86.0883 159.841C85.9424 160.004 85.7484 160.14 85.5063 160.25C85.2669 160.36 84.9655 160.415 84.6023 160.415C84.1152 160.415 83.6735 160.301 83.2772 160.073C82.8837 159.841 82.57 159.497 82.3361 159.041C82.1049 158.581 81.9893 158.006 81.9893 157.315C81.9893 156.619 82.1049 156.031 82.3361 155.553C82.57 155.071 82.8851 154.706 83.2814 154.459C83.6776 154.208 84.1193 154.083 84.6064 154.083C84.9779 154.083 85.2834 154.146 85.5228 154.273C85.7649 154.397 85.9576 154.547 86.1007 154.723C86.2438 154.896 86.3525 155.06 86.4268 155.214H86.5093V154.166H87.983V160.609C87.983 161.151 87.8536 161.6 87.595 161.955C87.3363 162.31 86.9827 162.575 86.5341 162.752C86.0855 162.928 85.5764 163.016 85.0068 163.016ZM85.0192 159.243C85.3356 159.243 85.6053 159.166 85.8282 159.012C86.0511 158.858 86.2204 158.636 86.336 158.347C86.4515 158.058 86.5093 157.711 86.5093 157.307C86.5093 156.908 86.4515 156.558 86.336 156.258C86.2231 155.958 86.0553 155.726 85.8324 155.561C85.6122 155.393 85.3412 155.309 85.0192 155.309C84.6862 155.309 84.4083 155.396 84.1854 155.569C83.9625 155.742 83.7946 155.98 83.6818 156.283C83.5689 156.583 83.5125 156.924 83.5125 157.307C83.5125 157.695 83.5689 158.035 83.6818 158.326C83.7973 158.615 83.9666 158.841 84.1895 159.003C84.4151 159.163 84.6917 159.243 85.0192 159.243ZM92.3213 160.63C91.6856 160.63 91.1366 160.498 90.6743 160.234C90.2148 159.967 89.8611 159.59 89.6135 159.103C89.3658 158.613 89.242 158.036 89.242 157.373C89.242 156.721 89.3658 156.148 89.6135 155.656C89.8639 155.16 90.2134 154.775 90.6619 154.5C91.1105 154.222 91.6375 154.083 92.2429 154.083C92.6337 154.083 93.0024 154.146 93.3492 154.273C93.6987 154.397 94.0069 154.589 94.2738 154.851C94.5435 155.112 94.7554 155.445 94.9095 155.85C95.0636 156.252 95.1407 156.73 95.1407 157.286V157.744H89.9437V156.737H93.7083C93.7055 156.451 93.6436 156.197 93.5225 155.974C93.4015 155.748 93.2322 155.57 93.0148 155.441C92.8002 155.312 92.5497 155.247 92.2635 155.247C91.9581 155.247 91.6898 155.321 91.4586 155.47C91.2275 155.616 91.0472 155.808 90.9179 156.048C90.7913 156.285 90.7266 156.545 90.7239 156.828V157.707C90.7239 158.076 90.7913 158.393 90.9261 158.657C91.061 158.918 91.2495 159.119 91.4916 159.259C91.7338 159.397 92.0172 159.466 92.342 159.466C92.5594 159.466 92.7561 159.435 92.9323 159.375C93.1084 159.312 93.2611 159.219 93.3904 159.098C93.5198 158.977 93.6175 158.827 93.6835 158.648L95.0787 158.805C94.9907 159.174 94.8228 159.496 94.5751 159.771C94.3302 160.044 94.0165 160.256 93.634 160.407C93.2515 160.556 92.8139 160.63 92.3213 160.63ZM96.4048 160.506V154.166H97.8537V155.222H97.9197C98.0353 154.856 98.2334 154.574 98.5141 154.376C98.7976 154.175 99.1209 154.075 99.4842 154.075C99.5667 154.075 99.6589 154.079 99.7607 154.087C99.8653 154.093 99.952 154.102 100.021 154.116V155.491C99.9575 155.469 99.8571 155.449 99.7195 155.433C99.5846 155.414 99.4539 155.404 99.3273 155.404C99.0549 155.404 98.81 155.463 98.5926 155.581C98.3779 155.697 98.2087 155.858 98.0848 156.064C97.961 156.271 97.8991 156.509 97.8991 156.779V160.506H96.4048Z" fill="#212528"/>
</g>
<g filter="url(#filter1_d_422_368)">
<rect x="270.971" y="204.229" width="108.975" height="108.975" rx="11.624" fill="white" shape-rendering="crispEdges"/>
<rect x="271.334" y="204.593" width="108.249" height="108.249" rx="11.2608" stroke="#212528" stroke-width="0.7265" shape-rendering="crispEdges"/>
<g clip-path="url(#clip0_422_368)">
<path d="M311.897 231.64H342.41V228.25H311.897C310.033 228.25 308.507 229.775 308.507 231.64V250.287H305.117V255.372H328.849V250.287H311.897V231.64ZM344.106 235.03H333.935C333.002 235.03 332.239 235.793 332.239 236.725V253.677C332.239 254.609 333.002 255.372 333.935 255.372H344.106C345.038 255.372 345.801 254.609 345.801 253.677V236.725C345.801 235.793 345.038 235.03 344.106 235.03ZM342.41 250.287H335.63V238.421H342.41V250.287Z" fill="#74FE70"/>
</g>
<path d="M291.579 270.511H293.453L295.963 276.637H296.062L298.572 270.511H300.446V278.965H298.976V273.157H298.898L296.562 278.94H295.464L293.127 273.145H293.049V278.965H291.579V270.511ZM306.089 276.298V272.624H307.583V278.965H306.134V277.838H306.068C305.925 278.193 305.69 278.483 305.362 278.709C305.037 278.935 304.637 279.047 304.161 279.047C303.745 279.047 303.378 278.955 303.059 278.771C302.742 278.584 302.495 278.313 302.316 277.958C302.137 277.6 302.048 277.168 302.048 276.662V272.624H303.542V276.43C303.542 276.832 303.652 277.151 303.872 277.388C304.092 277.625 304.381 277.743 304.739 277.743C304.959 277.743 305.172 277.689 305.379 277.582C305.585 277.475 305.754 277.315 305.886 277.103C306.021 276.889 306.089 276.62 306.089 276.298ZM310.614 270.511V278.965H309.12V270.511H310.614ZM315.316 272.624V273.78H311.672V272.624H315.316ZM312.571 271.105H314.066V277.058C314.066 277.259 314.096 277.413 314.157 277.52C314.22 277.625 314.302 277.696 314.404 277.735C314.506 277.773 314.619 277.793 314.743 277.793C314.836 277.793 314.922 277.786 314.999 277.772C315.078 277.758 315.139 277.746 315.18 277.735L315.432 278.903C315.352 278.93 315.238 278.961 315.089 278.994C314.944 279.027 314.765 279.046 314.553 279.052C314.179 279.063 313.841 279.006 313.541 278.882C313.242 278.756 313.004 278.56 312.827 278.296C312.654 278.032 312.569 277.702 312.571 277.305V271.105ZM316.566 278.965V272.624H318.06V278.965H316.566ZM317.317 271.725C317.081 271.725 316.877 271.646 316.707 271.489C316.536 271.33 316.451 271.138 316.451 270.916C316.451 270.69 316.536 270.499 316.707 270.342C316.877 270.182 317.081 270.102 317.317 270.102C317.557 270.102 317.76 270.182 317.928 270.342C318.099 270.499 318.184 270.69 318.184 270.916C318.184 271.138 318.099 271.33 317.928 271.489C317.76 271.646 317.557 271.725 317.317 271.725ZM325.411 278.965H322.546V270.511H325.469C326.308 270.511 327.029 270.68 327.632 271.019C328.237 271.354 328.702 271.837 329.027 272.468C329.352 273.098 329.514 273.852 329.514 274.73C329.514 275.61 329.35 276.367 329.023 277C328.698 277.633 328.229 278.119 327.615 278.457C327.004 278.796 326.27 278.965 325.411 278.965ZM324.078 277.64H325.337C325.926 277.64 326.417 277.532 326.81 277.318C327.204 277.1 327.5 276.777 327.698 276.348C327.896 275.916 327.995 275.376 327.995 274.73C327.995 274.083 327.896 273.546 327.698 273.12C327.5 272.691 327.207 272.37 326.819 272.158C326.433 271.943 325.955 271.836 325.382 271.836H324.078V277.64ZM333.71 279.089C333.074 279.089 332.525 278.957 332.063 278.692C331.604 278.425 331.25 278.048 331.002 277.561C330.755 277.072 330.631 276.495 330.631 275.832C330.631 275.18 330.755 274.607 331.002 274.115C331.253 273.619 331.602 273.234 332.051 272.959C332.499 272.681 333.026 272.542 333.632 272.542C334.022 272.542 334.391 272.605 334.738 272.732C335.087 272.856 335.396 273.048 335.663 273.31C335.932 273.571 336.144 273.904 336.298 274.309C336.452 274.71 336.529 275.189 336.529 275.745V276.203H331.333V275.196H335.097C335.094 274.91 335.032 274.655 334.911 274.432C334.79 274.207 334.621 274.029 334.404 273.9C334.189 273.771 333.939 273.706 333.652 273.706C333.347 273.706 333.079 273.78 332.847 273.929C332.616 274.075 332.436 274.267 332.307 274.507C332.18 274.743 332.115 275.003 332.113 275.287V276.166C332.113 276.535 332.18 276.851 332.315 277.116C332.45 277.377 332.638 277.578 332.88 277.718C333.123 277.856 333.406 277.925 333.731 277.925C333.948 277.925 334.145 277.894 334.321 277.834C334.497 277.771 334.65 277.678 334.779 277.557C334.909 277.436 335.006 277.286 335.072 277.107L336.468 277.264C336.379 277.633 336.212 277.955 335.964 278.23C335.719 278.503 335.405 278.714 335.023 278.866C334.64 279.014 334.203 279.089 333.71 279.089ZM343.275 272.624L341.017 278.965H339.366L337.108 272.624H338.702L340.159 277.334H340.225L341.686 272.624H343.275ZM344.309 278.965V272.624H345.804V278.965H344.309ZM345.061 271.725C344.824 271.725 344.62 271.646 344.45 271.489C344.279 271.33 344.194 271.138 344.194 270.916C344.194 270.69 344.279 270.499 344.45 270.342C344.62 270.182 344.824 270.102 345.061 270.102C345.3 270.102 345.504 270.182 345.672 270.342C345.842 270.499 345.928 270.69 345.928 270.916C345.928 271.138 345.842 271.33 345.672 271.489C345.504 271.646 345.3 271.725 345.061 271.725ZM350.106 279.089C349.473 279.089 348.929 278.95 348.475 278.672C348.024 278.394 347.676 278.01 347.431 277.52C347.189 277.028 347.068 276.461 347.068 275.819C347.068 275.175 347.192 274.607 347.439 274.115C347.687 273.619 348.037 273.234 348.488 272.959C348.942 272.681 349.478 272.542 350.098 272.542C350.612 272.542 351.068 272.637 351.464 272.827C351.863 273.014 352.181 273.279 352.418 273.623C352.654 273.965 352.789 274.364 352.822 274.82H351.394C351.336 274.515 351.198 274.26 350.981 274.057C350.766 273.85 350.479 273.747 350.118 273.747C349.813 273.747 349.545 273.83 349.313 273.995C349.082 274.157 348.902 274.391 348.773 274.697C348.646 275.002 348.583 275.368 348.583 275.795C348.583 276.227 348.646 276.598 348.773 276.909C348.899 277.217 349.077 277.455 349.305 277.623C349.536 277.788 349.807 277.871 350.118 277.871C350.338 277.871 350.535 277.83 350.709 277.747C350.885 277.662 351.032 277.539 351.15 277.38C351.269 277.22 351.35 277.026 351.394 276.798H352.822C352.786 277.246 352.654 277.644 352.426 277.991C352.197 278.335 351.886 278.604 351.493 278.8C351.099 278.992 350.637 279.089 350.106 279.089ZM356.856 279.089C356.22 279.089 355.671 278.957 355.209 278.692C354.749 278.425 354.396 278.048 354.148 277.561C353.9 277.072 353.777 276.495 353.777 275.832C353.777 275.18 353.9 274.607 354.148 274.115C354.399 273.619 354.748 273.234 355.197 272.959C355.645 272.681 356.172 272.542 356.778 272.542C357.168 272.542 357.537 272.605 357.884 272.732C358.233 272.856 358.542 273.048 358.808 273.31C359.078 273.571 359.29 273.904 359.444 274.309C359.598 274.71 359.675 275.189 359.675 275.745V276.203H354.478V275.196H358.243C358.24 274.91 358.178 274.655 358.057 274.432C357.936 274.207 357.767 274.029 357.549 273.9C357.335 273.771 357.084 273.706 356.798 273.706C356.493 273.706 356.224 273.78 355.993 273.929C355.762 274.075 355.582 274.267 355.453 274.507C355.326 274.743 355.261 275.003 355.259 275.287V276.166C355.259 276.535 355.326 276.851 355.461 277.116C355.596 277.377 355.784 277.578 356.026 277.718C356.268 277.856 356.552 277.925 356.877 277.925C357.094 277.925 357.291 277.894 357.467 277.834C357.643 277.771 357.796 277.678 357.925 277.557C358.054 277.436 358.152 277.286 358.218 277.107L359.613 277.264C359.525 277.633 359.357 277.955 359.11 278.23C358.865 278.503 358.551 278.714 358.169 278.866C357.786 279.014 357.349 279.089 356.856 279.089ZM310.567 286.835C310.529 286.474 310.366 286.194 310.08 285.993C309.797 285.792 309.428 285.692 308.974 285.692C308.655 285.692 308.381 285.74 308.153 285.836C307.924 285.932 307.749 286.063 307.628 286.228C307.507 286.393 307.445 286.582 307.443 286.794C307.443 286.97 307.483 287.123 307.562 287.252C307.645 287.381 307.756 287.491 307.897 287.582C308.037 287.67 308.193 287.744 308.363 287.805C308.534 287.866 308.706 287.916 308.879 287.958L309.672 288.156C309.991 288.23 310.298 288.331 310.592 288.457C310.889 288.584 311.155 288.743 311.389 288.936C311.625 289.129 311.813 289.361 311.95 289.634C312.088 289.906 312.157 290.225 312.157 290.591C312.157 291.087 312.03 291.523 311.777 291.9C311.524 292.274 311.158 292.567 310.679 292.779C310.203 292.988 309.626 293.093 308.949 293.093C308.292 293.093 307.721 292.991 307.236 292.787C306.755 292.584 306.378 292.287 306.105 291.896C305.836 291.505 305.69 291.029 305.668 290.467H307.174C307.196 290.762 307.287 291.007 307.447 291.202C307.606 291.398 307.814 291.543 308.07 291.64C308.329 291.736 308.618 291.784 308.937 291.784C309.27 291.784 309.562 291.735 309.812 291.636C310.065 291.534 310.263 291.394 310.406 291.215C310.55 291.033 310.622 290.821 310.625 290.579C310.622 290.359 310.558 290.177 310.431 290.034C310.305 289.888 310.127 289.767 309.899 289.671C309.673 289.572 309.409 289.484 309.106 289.407L308.144 289.159C307.448 288.98 306.898 288.709 306.493 288.346C306.091 287.98 305.891 287.494 305.891 286.889C305.891 286.391 306.025 285.954 306.295 285.58C306.568 285.206 306.938 284.916 307.405 284.709C307.873 284.5 308.403 284.395 308.995 284.395C309.595 284.395 310.12 284.5 310.572 284.709C311.026 284.916 311.382 285.203 311.641 285.572C311.899 285.938 312.033 286.359 312.041 286.835H310.567ZM317.497 290.298V286.624H318.991V292.965H317.542V291.838H317.476C317.333 292.193 317.098 292.483 316.771 292.709C316.446 292.935 316.045 293.047 315.569 293.047C315.154 293.047 314.786 292.955 314.467 292.771C314.151 292.584 313.903 292.313 313.724 291.958C313.545 291.6 313.456 291.168 313.456 290.662V286.624H314.95V290.43C314.95 290.832 315.06 291.151 315.28 291.388C315.501 291.625 315.789 291.743 316.147 291.743C316.367 291.743 316.581 291.689 316.787 291.582C316.993 291.475 317.163 291.315 317.295 291.103C317.43 290.889 317.497 290.62 317.497 290.298ZM320.528 295.342V286.624H321.997V287.673H322.084C322.161 287.519 322.27 287.355 322.41 287.182C322.551 287.006 322.74 286.856 322.98 286.732C323.219 286.605 323.525 286.542 323.896 286.542C324.386 286.542 324.828 286.667 325.221 286.918C325.618 287.165 325.931 287.533 326.162 288.02C326.396 288.504 326.513 289.098 326.513 289.803C326.513 290.499 326.399 291.091 326.171 291.578C325.942 292.065 325.631 292.436 325.238 292.692C324.844 292.948 324.398 293.076 323.9 293.076C323.537 293.076 323.236 293.016 322.996 292.895C322.757 292.774 322.564 292.628 322.418 292.457C322.275 292.284 322.164 292.12 322.084 291.966H322.022V295.342H320.528ZM321.993 289.795C321.993 290.205 322.051 290.564 322.167 290.872C322.285 291.18 322.454 291.421 322.674 291.594C322.897 291.765 323.167 291.85 323.483 291.85C323.814 291.85 324.09 291.762 324.313 291.586C324.536 291.407 324.704 291.164 324.817 290.856C324.932 290.545 324.99 290.191 324.99 289.795C324.99 289.401 324.934 289.052 324.821 288.746C324.708 288.441 324.54 288.201 324.317 288.028C324.094 287.855 323.816 287.768 323.483 287.768C323.164 287.768 322.893 287.852 322.67 288.02C322.447 288.188 322.278 288.423 322.162 288.726C322.05 289.028 321.993 289.385 321.993 289.795ZM327.793 295.342V286.624H329.262V287.673H329.349C329.426 287.519 329.535 287.355 329.675 287.182C329.816 287.006 330.005 286.856 330.245 286.732C330.484 286.605 330.79 286.542 331.161 286.542C331.651 286.542 332.093 286.667 332.486 286.918C332.883 287.165 333.196 287.533 333.427 288.02C333.661 288.504 333.778 289.098 333.778 289.803C333.778 290.499 333.664 291.091 333.436 291.578C333.207 292.065 332.896 292.436 332.503 292.692C332.109 292.948 331.663 293.076 331.165 293.076C330.802 293.076 330.501 293.016 330.261 292.895C330.022 292.774 329.829 292.628 329.683 292.457C329.54 292.284 329.429 292.12 329.349 291.966H329.287V295.342H327.793ZM329.258 289.795C329.258 290.205 329.316 290.564 329.432 290.872C329.55 291.18 329.719 291.421 329.939 291.594C330.162 291.765 330.432 291.85 330.748 291.85C331.079 291.85 331.355 291.762 331.578 291.586C331.801 291.407 331.969 291.164 332.082 290.856C332.197 290.545 332.255 290.191 332.255 289.795C332.255 289.401 332.199 289.052 332.086 288.746C331.973 288.441 331.805 288.201 331.582 288.028C331.359 287.855 331.081 287.768 330.748 287.768C330.429 287.768 330.158 287.852 329.935 288.02C329.712 288.188 329.543 288.423 329.428 288.726C329.315 289.028 329.258 289.385 329.258 289.795ZM337.824 293.089C337.204 293.089 336.668 292.952 336.214 292.68C335.76 292.408 335.407 292.026 335.157 291.537C334.909 291.047 334.785 290.474 334.785 289.819C334.785 289.164 334.909 288.591 335.157 288.098C335.407 287.606 335.76 287.223 336.214 286.951C336.668 286.678 337.204 286.542 337.824 286.542C338.443 286.542 338.979 286.678 339.433 286.951C339.887 287.223 340.238 287.606 340.486 288.098C340.736 288.591 340.862 289.164 340.862 289.819C340.862 290.474 340.736 291.047 340.486 291.537C340.238 292.026 339.887 292.408 339.433 292.68C338.979 292.952 338.443 293.089 337.824 293.089ZM337.832 291.892C338.168 291.892 338.448 291.799 338.674 291.615C338.9 291.428 339.067 291.177 339.177 290.864C339.29 290.55 339.347 290.201 339.347 289.815C339.347 289.427 339.29 289.076 339.177 288.763C339.067 288.446 338.9 288.194 338.674 288.007C338.448 287.82 338.168 287.727 337.832 287.727C337.488 287.727 337.202 287.82 336.973 288.007C336.748 288.194 336.578 288.446 336.465 288.763C336.355 289.076 336.3 289.427 336.3 289.815C336.3 290.201 336.355 290.55 336.465 290.864C336.578 291.177 336.748 291.428 336.973 291.615C337.202 291.799 337.488 291.892 337.832 291.892ZM345.296 286.624V287.78H341.651V286.624H345.296ZM342.551 285.105H344.045V291.058C344.045 291.259 344.075 291.413 344.136 291.52C344.199 291.625 344.282 291.696 344.384 291.735C344.486 291.773 344.598 291.793 344.722 291.793C344.816 291.793 344.901 291.786 344.978 291.772C345.058 291.758 345.118 291.746 345.16 291.735L345.412 292.903C345.332 292.93 345.218 292.961 345.069 292.994C344.923 293.027 344.744 293.046 344.532 293.052C344.158 293.063 343.821 293.006 343.521 292.882C343.221 292.756 342.983 292.56 342.807 292.296C342.633 292.032 342.548 291.702 342.551 291.305V285.105Z" fill="#212528"/>
</g>
<g filter="url(#filter2_d_422_368)">
<rect x="145.486" y="204.229" width="108.975" height="108.975" rx="11.624" fill="white" shape-rendering="crispEdges"/>
<rect x="145.849" y="204.593" width="108.249" height="108.249" rx="11.2608" stroke="#212528" stroke-width="0.7265" shape-rendering="crispEdges"/>
<path d="M186.556 251.134V250.032C186.556 249.456 186.828 248.914 187.251 248.659C190.116 246.947 193.388 246.049 196.727 246.049C196.778 246.049 196.812 246.049 196.863 246.066C197.032 244.879 197.372 243.743 197.863 242.709C197.49 242.675 197.117 242.658 196.727 242.658C192.625 242.658 188.794 243.794 185.522 245.744C184.031 246.625 183.166 248.286 183.166 250.032V254.525H198.863C198.151 253.508 197.592 252.355 197.219 251.134H186.556Z" fill="#0080FF"/>
<path d="M196.727 240.963C200.474 240.963 203.508 237.929 203.508 234.183C203.508 230.436 200.474 227.402 196.727 227.402C192.981 227.402 189.947 230.436 189.947 234.183C189.947 237.929 192.981 240.963 196.727 240.963ZM196.727 230.792C198.592 230.792 200.118 232.318 200.118 234.183C200.118 236.047 198.592 237.573 196.727 237.573C194.863 237.573 193.337 236.047 193.337 234.183C193.337 232.318 194.863 230.792 196.727 230.792Z" fill="#0080FF"/>
<path d="M214.95 247.744C214.95 247.371 214.9 247.032 214.849 246.676L216.781 244.964L215.086 242.031L212.628 242.862C212.086 242.404 211.475 242.048 210.797 241.794L210.289 239.268H206.898L206.39 241.794C205.712 242.048 205.101 242.404 204.559 242.862L202.101 242.031L200.406 244.964L202.338 246.676C202.288 247.032 202.237 247.371 202.237 247.744C202.237 248.117 202.288 248.456 202.338 248.812L200.406 250.524L202.101 253.457L204.559 252.626C205.101 253.084 205.712 253.44 206.39 253.694L206.898 256.22H210.289L210.797 253.694C211.475 253.44 212.086 253.084 212.628 252.626L215.086 253.457L216.781 250.524L214.849 248.812C214.9 248.456 214.95 248.117 214.95 247.744ZM208.594 251.134C206.729 251.134 205.203 249.609 205.203 247.744C205.203 245.879 206.729 244.354 208.594 244.354C210.458 244.354 211.984 245.879 211.984 247.744C211.984 249.609 210.458 251.134 208.594 251.134Z" fill="#0080FF"/>
<path d="M178.288 272.835C178.25 272.474 178.087 272.194 177.801 271.993C177.518 271.792 177.149 271.692 176.695 271.692C176.376 271.692 176.102 271.74 175.874 271.836C175.645 271.932 175.47 272.063 175.349 272.228C175.228 272.393 175.166 272.582 175.164 272.794C175.164 272.97 175.203 273.123 175.283 273.252C175.366 273.381 175.477 273.491 175.618 273.582C175.758 273.67 175.913 273.744 176.084 273.805C176.255 273.866 176.427 273.916 176.6 273.958L177.393 274.156C177.712 274.23 178.019 274.331 178.313 274.457C178.61 274.584 178.876 274.743 179.11 274.936C179.346 275.129 179.534 275.361 179.671 275.634C179.809 275.906 179.878 276.225 179.878 276.591C179.878 277.087 179.751 277.523 179.498 277.9C179.245 278.274 178.879 278.567 178.4 278.779C177.924 278.988 177.347 279.093 176.67 279.093C176.013 279.093 175.442 278.991 174.957 278.787C174.476 278.584 174.099 278.287 173.826 277.896C173.556 277.505 173.411 277.029 173.389 276.467H174.895C174.917 276.762 175.008 277.007 175.168 277.202C175.327 277.398 175.535 277.543 175.791 277.64C176.05 277.736 176.339 277.784 176.658 277.784C176.991 277.784 177.283 277.735 177.533 277.636C177.786 277.534 177.984 277.394 178.127 277.215C178.27 277.033 178.343 276.821 178.346 276.579C178.343 276.359 178.279 276.177 178.152 276.034C178.026 275.888 177.848 275.767 177.62 275.671C177.394 275.572 177.13 275.484 176.827 275.407L175.865 275.159C175.169 274.98 174.619 274.709 174.214 274.346C173.812 273.98 173.612 273.494 173.612 272.889C173.612 272.391 173.746 271.954 174.016 271.58C174.288 271.206 174.659 270.916 175.126 270.709C175.594 270.5 176.124 270.395 176.716 270.395C177.316 270.395 177.841 270.5 178.292 270.709C178.747 270.916 179.103 271.203 179.362 271.572C179.62 271.938 179.754 272.359 179.762 272.835H178.288ZM183.984 279.089C183.348 279.089 182.799 278.957 182.337 278.692C181.877 278.425 181.524 278.048 181.276 277.561C181.028 277.072 180.904 276.495 180.904 275.832C180.904 275.18 181.028 274.607 181.276 274.115C181.526 273.619 181.876 273.234 182.324 272.959C182.773 272.681 183.3 272.542 183.905 272.542C184.296 272.542 184.665 272.605 185.012 272.732C185.361 272.856 185.669 273.048 185.936 273.31C186.206 273.571 186.418 273.904 186.572 274.309C186.726 274.71 186.803 275.189 186.803 275.745V276.203H181.606V275.196H185.371C185.368 274.91 185.306 274.655 185.185 274.432C185.064 274.207 184.895 274.029 184.677 273.9C184.463 273.771 184.212 273.706 183.926 273.706C183.621 273.706 183.352 273.78 183.121 273.929C182.89 274.075 182.71 274.267 182.58 274.507C182.454 274.743 182.389 275.003 182.386 275.287V276.166C182.386 276.535 182.454 276.851 182.589 277.116C182.723 277.377 182.912 277.578 183.154 277.718C183.396 277.856 183.68 277.925 184.004 277.925C184.222 277.925 184.419 277.894 184.595 277.834C184.771 277.771 184.924 277.678 185.053 277.557C185.182 277.436 185.28 277.286 185.346 277.107L186.741 277.264C186.653 277.633 186.485 277.955 186.238 278.23C185.993 278.503 185.679 278.714 185.296 278.866C184.914 279.014 184.476 279.089 183.984 279.089ZM189.892 279.093C189.49 279.093 189.128 279.021 188.806 278.878C188.487 278.732 188.234 278.518 188.047 278.234C187.862 277.951 187.77 277.601 187.77 277.186C187.77 276.828 187.836 276.532 187.968 276.298C188.1 276.064 188.281 275.877 188.509 275.737C188.737 275.597 188.995 275.491 189.281 275.419C189.57 275.345 189.868 275.291 190.177 275.258C190.548 275.22 190.849 275.185 191.081 275.155C191.312 275.122 191.48 275.072 191.584 275.006C191.691 274.937 191.745 274.831 191.745 274.688V274.664C191.745 274.353 191.653 274.112 191.469 273.941C191.284 273.771 191.019 273.685 190.672 273.685C190.306 273.685 190.016 273.765 189.801 273.925C189.589 274.084 189.446 274.273 189.372 274.49L187.976 274.292C188.086 273.907 188.268 273.585 188.521 273.326C188.774 273.065 189.084 272.869 189.45 272.74C189.816 272.608 190.221 272.542 190.664 272.542C190.969 272.542 191.273 272.578 191.576 272.649C191.879 272.721 192.155 272.839 192.406 273.004C192.656 273.167 192.857 273.388 193.008 273.669C193.162 273.95 193.239 274.3 193.239 274.721V278.965H191.803V278.094H191.753C191.663 278.27 191.535 278.435 191.37 278.589C191.207 278.741 191.002 278.863 190.754 278.957C190.51 279.047 190.222 279.093 189.892 279.093ZM190.28 277.995C190.58 277.995 190.84 277.936 191.06 277.817C191.28 277.696 191.449 277.537 191.568 277.338C191.689 277.14 191.749 276.924 191.749 276.69V275.943C191.702 275.982 191.623 276.018 191.51 276.051C191.4 276.084 191.276 276.113 191.138 276.137C191.001 276.162 190.865 276.184 190.73 276.203C190.595 276.223 190.478 276.239 190.379 276.253C190.156 276.283 189.956 276.333 189.78 276.401C189.604 276.47 189.465 276.567 189.363 276.69C189.262 276.811 189.211 276.968 189.211 277.161C189.211 277.436 189.311 277.644 189.512 277.784C189.713 277.925 189.969 277.995 190.28 277.995ZM194.742 278.965V272.624H196.17V273.702H196.244C196.377 273.339 196.595 273.055 196.901 272.852C197.206 272.645 197.571 272.542 197.995 272.542C198.424 272.542 198.786 272.646 199.08 272.856C199.378 273.062 199.587 273.344 199.708 273.702H199.774C199.914 273.35 200.151 273.069 200.484 272.86C200.82 272.648 201.217 272.542 201.677 272.542C202.26 272.542 202.736 272.726 203.105 273.095C203.474 273.464 203.658 274.002 203.658 274.709V278.965H202.16V274.94C202.16 274.547 202.055 274.259 201.846 274.077C201.637 273.893 201.381 273.801 201.078 273.801C200.718 273.801 200.436 273.914 200.232 274.139C200.031 274.362 199.931 274.653 199.931 275.01V278.965H198.465V274.878C198.465 274.551 198.366 274.289 198.168 274.094C197.973 273.899 197.717 273.801 197.4 273.801C197.186 273.801 196.99 273.856 196.814 273.966C196.638 274.073 196.498 274.226 196.393 274.424C196.289 274.62 196.236 274.848 196.236 275.109V278.965H194.742ZM206.668 270.511V278.965H205.174V270.511H206.668ZM211.012 279.089C210.376 279.089 209.827 278.957 209.365 278.692C208.905 278.425 208.552 278.048 208.304 277.561C208.056 277.072 207.932 276.495 207.932 275.832C207.932 275.18 208.056 274.607 208.304 274.115C208.554 273.619 208.904 273.234 209.352 272.959C209.801 272.681 210.328 272.542 210.933 272.542C211.324 272.542 211.693 272.605 212.04 272.732C212.389 272.856 212.697 273.048 212.964 273.31C213.234 273.571 213.446 273.904 213.6 274.309C213.754 274.71 213.831 275.189 213.831 275.745V276.203H208.634V275.196H212.399C212.396 274.91 212.334 274.655 212.213 274.432C212.092 274.207 211.923 274.029 211.705 273.9C211.491 273.771 211.24 273.706 210.954 273.706C210.649 273.706 210.38 273.78 210.149 273.929C209.918 274.075 209.738 274.267 209.608 274.507C209.482 274.743 209.417 275.003 209.414 275.287V276.166C209.414 276.535 209.482 276.851 209.617 277.116C209.751 277.377 209.94 277.578 210.182 277.718C210.424 277.856 210.708 277.925 211.032 277.925C211.25 277.925 211.447 277.894 211.623 277.834C211.799 277.771 211.952 277.678 212.081 277.557C212.21 277.436 212.308 277.286 212.374 277.107L213.769 277.264C213.681 277.633 213.513 277.955 213.266 278.23C213.021 278.503 212.707 278.714 212.324 278.866C211.942 279.014 211.504 279.089 211.012 279.089ZM220.107 274.3L218.744 274.449C218.706 274.311 218.638 274.182 218.542 274.061C218.449 273.94 218.322 273.842 218.162 273.768C218.003 273.694 217.807 273.656 217.576 273.656C217.265 273.656 217.004 273.724 216.792 273.859C216.583 273.994 216.48 274.168 216.482 274.383C216.48 274.567 216.547 274.717 216.685 274.833C216.825 274.948 217.056 275.043 217.378 275.118L218.46 275.349C219.059 275.478 219.505 275.683 219.797 275.964C220.091 276.245 220.24 276.612 220.243 277.066C220.24 277.465 220.123 277.817 219.892 278.123C219.663 278.425 219.346 278.662 218.938 278.833C218.531 279.003 218.063 279.089 217.535 279.089C216.759 279.089 216.134 278.926 215.661 278.602C215.188 278.274 214.905 277.819 214.815 277.235L216.272 277.095C216.338 277.381 216.478 277.597 216.693 277.743C216.907 277.889 217.187 277.962 217.531 277.962C217.886 277.962 218.171 277.889 218.385 277.743C218.603 277.597 218.711 277.417 218.711 277.202C218.711 277.021 218.641 276.871 218.501 276.752C218.363 276.634 218.149 276.543 217.857 276.48L216.775 276.253C216.167 276.126 215.717 275.913 215.426 275.613C215.134 275.31 214.989 274.928 214.992 274.465C214.989 274.075 215.095 273.736 215.31 273.45C215.527 273.161 215.829 272.938 216.214 272.781C216.602 272.622 217.049 272.542 217.556 272.542C218.299 272.542 218.883 272.7 219.31 273.017C219.739 273.333 220.005 273.761 220.107 274.3ZM226.486 274.3L225.124 274.449C225.085 274.311 225.018 274.182 224.922 274.061C224.828 273.94 224.701 273.842 224.542 273.768C224.382 273.694 224.187 273.656 223.956 273.656C223.645 273.656 223.383 273.724 223.171 273.859C222.962 273.994 222.859 274.168 222.862 274.383C222.859 274.567 222.927 274.717 223.064 274.833C223.204 274.948 223.436 275.043 223.758 275.118L224.839 275.349C225.439 275.478 225.885 275.683 226.177 275.964C226.471 276.245 226.62 276.612 226.622 277.066C226.62 277.465 226.503 277.817 226.271 278.123C226.043 278.425 225.725 278.662 225.318 278.833C224.911 279.003 224.443 279.089 223.914 279.089C223.138 279.089 222.514 278.926 222.04 278.602C221.567 278.274 221.285 277.819 221.194 277.235L222.651 277.095C222.717 277.381 222.858 277.597 223.072 277.743C223.287 277.889 223.566 277.962 223.91 277.962C224.265 277.962 224.55 277.889 224.765 277.743C224.982 277.597 225.091 277.417 225.091 277.202C225.091 277.021 225.021 276.871 224.88 276.752C224.743 276.634 224.528 276.543 224.236 276.48L223.155 276.253C222.547 276.126 222.097 275.913 221.805 275.613C221.513 275.31 221.369 274.928 221.372 274.465C221.369 274.075 221.475 273.736 221.69 273.45C221.907 273.161 222.208 272.938 222.594 272.781C222.982 272.622 223.429 272.542 223.935 272.542C224.678 272.542 225.263 272.7 225.689 273.017C226.119 273.333 226.384 273.761 226.486 274.3ZM163.835 284.511H165.709L168.219 290.637H168.318L170.828 284.511H172.702V292.965H171.232V287.157H171.154L168.818 292.94H167.72L165.383 287.145H165.305V292.965H163.835V284.511ZM176.128 293.093C175.726 293.093 175.364 293.021 175.042 292.878C174.723 292.732 174.47 292.518 174.283 292.234C174.098 291.951 174.006 291.601 174.006 291.186C174.006 290.828 174.072 290.532 174.204 290.298C174.336 290.064 174.517 289.877 174.745 289.737C174.974 289.597 175.231 289.491 175.517 289.419C175.806 289.345 176.105 289.291 176.413 289.258C176.784 289.22 177.086 289.185 177.317 289.155C177.548 289.122 177.716 289.072 177.82 289.006C177.928 288.937 177.981 288.831 177.981 288.688V288.664C177.981 288.353 177.889 288.112 177.705 287.941C177.52 287.771 177.255 287.685 176.908 287.685C176.542 287.685 176.252 287.765 176.037 287.925C175.825 288.084 175.682 288.273 175.608 288.49L174.213 288.292C174.323 287.907 174.504 287.585 174.758 287.326C175.011 287.065 175.32 286.869 175.686 286.74C176.052 286.608 176.457 286.542 176.9 286.542C177.205 286.542 177.509 286.578 177.812 286.649C178.115 286.721 178.391 286.839 178.642 287.004C178.892 287.167 179.093 287.388 179.244 287.669C179.399 287.95 179.476 288.3 179.476 288.721V292.965H178.039V292.094H177.99C177.899 292.27 177.771 292.435 177.606 292.589C177.443 292.741 177.238 292.863 176.991 292.957C176.746 293.047 176.458 293.093 176.128 293.093ZM176.516 291.995C176.816 291.995 177.076 291.936 177.296 291.817C177.516 291.696 177.686 291.537 177.804 291.338C177.925 291.14 177.985 290.924 177.985 290.69V289.943C177.939 289.982 177.859 290.018 177.746 290.051C177.636 290.084 177.512 290.113 177.375 290.137C177.237 290.162 177.101 290.184 176.966 290.203C176.831 290.223 176.714 290.239 176.615 290.253C176.392 290.283 176.193 290.333 176.017 290.401C175.84 290.47 175.701 290.567 175.6 290.69C175.498 290.811 175.447 290.968 175.447 291.161C175.447 291.436 175.547 291.644 175.748 291.784C175.949 291.925 176.205 291.995 176.516 291.995ZM182.472 289.25V292.965H180.978V286.624H182.406V287.702H182.481C182.627 287.347 182.859 287.065 183.178 286.856C183.5 286.646 183.898 286.542 184.371 286.542C184.809 286.542 185.19 286.635 185.515 286.823C185.842 287.01 186.095 287.281 186.274 287.636C186.456 287.991 186.545 288.421 186.543 288.928V292.965H185.048V289.159C185.048 288.735 184.938 288.404 184.718 288.164C184.501 287.925 184.199 287.805 183.814 287.805C183.553 287.805 183.32 287.863 183.116 287.978C182.916 288.091 182.757 288.255 182.642 288.47C182.529 288.684 182.472 288.944 182.472 289.25ZM189.886 293.093C189.484 293.093 189.122 293.021 188.8 292.878C188.481 292.732 188.228 292.518 188.041 292.234C187.857 291.951 187.764 291.601 187.764 291.186C187.764 290.828 187.83 290.532 187.962 290.298C188.095 290.064 188.275 289.877 188.503 289.737C188.732 289.597 188.989 289.491 189.275 289.419C189.564 289.345 189.863 289.291 190.171 289.258C190.542 289.22 190.844 289.185 191.075 289.155C191.306 289.122 191.474 289.072 191.578 289.006C191.686 288.937 191.739 288.831 191.739 288.688V288.664C191.739 288.353 191.647 288.112 191.463 287.941C191.279 287.771 191.013 287.685 190.666 287.685C190.3 287.685 190.01 287.765 189.795 287.925C189.583 288.084 189.44 288.273 189.366 288.49L187.971 288.292C188.081 287.907 188.262 287.585 188.516 287.326C188.769 287.065 189.078 286.869 189.444 286.74C189.81 286.608 190.215 286.542 190.658 286.542C190.963 286.542 191.268 286.578 191.57 286.649C191.873 286.721 192.149 286.839 192.4 287.004C192.65 287.167 192.851 287.388 193.003 287.669C193.157 287.95 193.234 288.3 193.234 288.721V292.965H191.797V292.094H191.748C191.657 292.27 191.529 292.435 191.364 292.589C191.201 292.741 190.996 292.863 190.749 292.957C190.504 293.047 190.216 293.093 189.886 293.093ZM190.274 291.995C190.574 291.995 190.834 291.936 191.054 291.817C191.274 291.696 191.444 291.537 191.562 291.338C191.683 291.14 191.744 290.924 191.744 290.69V289.943C191.697 289.982 191.617 290.018 191.504 290.051C191.394 290.084 191.27 290.113 191.133 290.137C190.995 290.162 190.859 290.184 190.724 290.203C190.589 290.223 190.472 290.239 190.373 290.253C190.15 290.283 189.951 290.333 189.775 290.401C189.598 290.47 189.46 290.567 189.358 290.69C189.256 290.811 189.205 290.968 189.205 291.161C189.205 291.436 189.305 291.644 189.506 291.784C189.707 291.925 189.963 291.995 190.274 291.995ZM197.494 295.475C196.957 295.475 196.496 295.402 196.111 295.256C195.726 295.113 195.416 294.92 195.182 294.678C194.948 294.436 194.786 294.167 194.695 293.873L196.041 293.547C196.101 293.671 196.189 293.793 196.305 293.914C196.42 294.038 196.576 294.14 196.771 294.22C196.969 294.302 197.218 294.344 197.518 294.344C197.942 294.344 198.293 294.24 198.571 294.034C198.849 293.83 198.988 293.495 198.988 293.027V291.826H198.914C198.837 291.98 198.724 292.138 198.575 292.3C198.429 292.463 198.235 292.599 197.993 292.709C197.754 292.819 197.452 292.874 197.089 292.874C196.602 292.874 196.16 292.76 195.764 292.531C195.371 292.3 195.057 291.956 194.823 291.499C194.592 291.04 194.476 290.465 194.476 289.774C194.476 289.078 194.592 288.49 194.823 288.011C195.057 287.53 195.372 287.165 195.768 286.918C196.165 286.667 196.606 286.542 197.093 286.542C197.465 286.542 197.77 286.605 198.01 286.732C198.252 286.856 198.444 287.006 198.588 287.182C198.731 287.355 198.839 287.519 198.914 287.673H198.996V286.624H200.47V293.068C200.47 293.61 200.341 294.059 200.082 294.414C199.823 294.769 199.47 295.034 199.021 295.21C198.572 295.387 198.063 295.475 197.494 295.475ZM197.506 291.702C197.823 291.702 198.092 291.625 198.315 291.471C198.538 291.316 198.707 291.095 198.823 290.806C198.938 290.517 198.996 290.17 198.996 289.766C198.996 289.367 198.938 289.017 198.823 288.717C198.71 288.417 198.542 288.185 198.319 288.02C198.099 287.852 197.828 287.768 197.506 287.768C197.173 287.768 196.895 287.855 196.672 288.028C196.449 288.201 196.281 288.439 196.169 288.742C196.056 289.042 195.999 289.383 195.999 289.766C195.999 290.154 196.056 290.494 196.169 290.785C196.284 291.074 196.453 291.3 196.676 291.462C196.902 291.622 197.179 291.702 197.506 291.702ZM204.808 293.089C204.173 293.089 203.624 292.957 203.161 292.692C202.702 292.425 202.348 292.048 202.1 291.561C201.853 291.072 201.729 290.495 201.729 289.832C201.729 289.18 201.853 288.607 202.1 288.115C202.351 287.619 202.7 287.234 203.149 286.959C203.597 286.681 204.124 286.542 204.73 286.542C205.121 286.542 205.489 286.605 205.836 286.732C206.186 286.856 206.494 287.048 206.761 287.31C207.03 287.571 207.242 287.904 207.396 288.309C207.55 288.71 207.628 289.189 207.628 289.745V290.203H202.431V289.196H206.195C206.192 288.91 206.13 288.655 206.009 288.432C205.888 288.207 205.719 288.029 205.502 287.9C205.287 287.771 205.037 287.706 204.75 287.706C204.445 287.706 204.177 287.78 203.945 287.929C203.714 288.075 203.534 288.267 203.405 288.507C203.278 288.743 203.213 289.003 203.211 289.287V290.166C203.211 290.535 203.278 290.851 203.413 291.116C203.548 291.377 203.736 291.578 203.979 291.718C204.221 291.856 204.504 291.925 204.829 291.925C205.046 291.925 205.243 291.894 205.419 291.834C205.595 291.771 205.748 291.678 205.877 291.557C206.007 291.436 206.104 291.286 206.17 291.107L207.566 291.264C207.478 291.633 207.31 291.955 207.062 292.23C206.817 292.503 206.503 292.714 206.121 292.866C205.738 293.014 205.301 293.089 204.808 293.089ZM208.892 292.965V286.624H210.32V287.702H210.394C210.526 287.339 210.745 287.055 211.051 286.852C211.356 286.645 211.721 286.542 212.144 286.542C212.574 286.542 212.936 286.646 213.23 286.856C213.527 287.062 213.736 287.344 213.857 287.702H213.924C214.064 287.35 214.301 287.069 214.634 286.86C214.969 286.648 215.367 286.542 215.826 286.542C216.41 286.542 216.886 286.726 217.255 287.095C217.623 287.464 217.808 288.002 217.808 288.709V292.965H216.309V288.94C216.309 288.547 216.205 288.259 215.996 288.077C215.787 287.893 215.531 287.801 215.228 287.801C214.867 287.801 214.585 287.914 214.382 288.139C214.181 288.362 214.08 288.653 214.08 289.01V292.965H212.615V288.878C212.615 288.551 212.516 288.289 212.318 288.094C212.122 287.899 211.866 287.801 211.55 287.801C211.335 287.801 211.14 287.856 210.964 287.966C210.788 288.073 210.647 288.226 210.543 288.424C210.438 288.62 210.386 288.848 210.386 289.109V292.965H208.892ZM222.131 293.089C221.495 293.089 220.946 292.957 220.484 292.692C220.024 292.425 219.671 292.048 219.423 291.561C219.175 291.072 219.051 290.495 219.051 289.832C219.051 289.18 219.175 288.607 219.423 288.115C219.673 287.619 220.023 287.234 220.471 286.959C220.92 286.681 221.447 286.542 222.052 286.542C222.443 286.542 222.812 286.605 223.159 286.732C223.508 286.856 223.816 287.048 224.083 287.31C224.353 287.571 224.565 287.904 224.719 288.309C224.873 288.71 224.95 289.189 224.95 289.745V290.203H219.753V289.196H223.518C223.515 288.91 223.453 288.655 223.332 288.432C223.211 288.207 223.042 288.029 222.824 287.9C222.61 287.771 222.359 287.706 222.073 287.706C221.767 287.706 221.499 287.78 221.268 287.929C221.037 288.075 220.857 288.267 220.727 288.507C220.601 288.743 220.536 289.003 220.533 289.287V290.166C220.533 290.535 220.601 290.851 220.735 291.116C220.87 291.377 221.059 291.578 221.301 291.718C221.543 291.856 221.827 291.925 222.151 291.925C222.369 291.925 222.566 291.894 222.742 291.834C222.918 291.771 223.07 291.678 223.2 291.557C223.329 291.436 223.427 291.286 223.493 291.107L224.888 291.264C224.8 291.633 224.632 291.955 224.385 292.23C224.14 292.503 223.826 292.714 223.443 292.866C223.061 293.014 222.623 293.089 222.131 293.089ZM227.708 289.25V292.965H226.214V286.624H227.642V287.702H227.717C227.863 287.347 228.095 287.065 228.414 286.856C228.736 286.646 229.134 286.542 229.607 286.542C230.045 286.542 230.426 286.635 230.751 286.823C231.078 287.01 231.331 287.281 231.51 287.636C231.692 287.991 231.781 288.421 231.779 288.928V292.965H230.284V289.159C230.284 288.735 230.174 288.404 229.954 288.164C229.737 287.925 229.435 287.805 229.05 287.805C228.789 287.805 228.556 287.863 228.352 287.978C228.152 288.091 227.993 288.255 227.878 288.47C227.765 288.684 227.708 288.944 227.708 289.25ZM236.464 286.624V287.78H232.819V286.624H236.464ZM233.719 285.105H235.213V291.058C235.213 291.259 235.243 291.413 235.304 291.52C235.367 291.625 235.45 291.696 235.551 291.735C235.653 291.773 235.766 291.793 235.89 291.793C235.983 291.793 236.069 291.786 236.146 291.772C236.226 291.758 236.286 291.746 236.327 291.735L236.579 292.903C236.499 292.93 236.385 292.961 236.237 292.994C236.091 293.027 235.912 293.046 235.7 293.052C235.326 293.063 234.989 293.006 234.689 292.882C234.389 292.756 234.151 292.56 233.975 292.296C233.801 292.032 233.716 291.702 233.719 291.305V285.105Z" fill="#212528"/>
</g>
<g filter="url(#filter3_d_422_368)">
<rect x="20" y="204.229" width="108.975" height="108.975" rx="11.624" fill="white" shape-rendering="crispEdges"/>
<rect x="20.3633" y="204.593" width="108.249" height="108.249" rx="11.2608" stroke="#212528" stroke-width="0.7265" shape-rendering="crispEdges"/>
<path d="M72.7922 240.335L70.4189 242.708L74.8264 247.116H57.5356V250.506H74.8264L70.4189 254.913L72.7922 257.287L81.268 248.811L72.7922 240.335ZM88.0487 260.677H74.4873V264.067H88.0487C89.9133 264.067 91.439 262.542 91.439 260.677V236.945C91.439 235.08 89.9133 233.554 88.0487 233.554H74.4873V236.945H88.0487V260.677Z" fill="#FF59EE"/>
<path d="M40.9707 283.125H42.3576L43.1791 284.19L43.7652 284.883L45.1728 286.691H43.6868L42.7291 285.478L42.3205 284.9L40.9707 283.125ZM45.3751 281.738C45.3751 282.649 45.2045 283.429 44.8632 284.078C44.5247 284.725 44.0624 285.22 43.4763 285.564C42.8929 285.908 42.231 286.08 41.4908 286.08C40.7505 286.08 40.0873 285.908 39.5012 285.564C38.9178 285.218 38.4554 284.721 38.1142 284.074C37.7757 283.425 37.6065 282.646 37.6065 281.738C37.6065 280.827 37.7757 280.048 38.1142 279.402C38.4554 278.752 38.9178 278.255 39.5012 277.911C40.0873 277.567 40.7505 277.395 41.4908 277.395C42.231 277.395 42.8929 277.567 43.4763 277.911C44.0624 278.255 44.5247 278.752 44.8632 279.402C45.2045 280.048 45.3751 280.827 45.3751 281.738ZM43.8354 281.738C43.8354 281.097 43.735 280.556 43.5341 280.116C43.3359 279.673 43.0607 279.338 42.7085 279.113C42.3563 278.884 41.9503 278.77 41.4908 278.77C41.0312 278.77 40.6253 278.884 40.2731 279.113C39.9208 279.338 39.6443 279.673 39.4434 280.116C39.2452 280.556 39.1462 281.097 39.1462 281.738C39.1462 282.379 39.2452 282.921 39.4434 283.364C39.6443 283.805 39.9208 284.139 40.2731 284.367C40.6253 284.593 41.0312 284.706 41.4908 284.706C41.9503 284.706 42.3563 284.593 42.7085 284.367C43.0607 284.139 43.3359 283.805 43.5341 283.364C43.735 282.921 43.8354 282.379 43.8354 281.738ZM50.8094 283.298V279.624H52.3037V285.965H50.8548V284.838H50.7887C50.6456 285.193 50.4104 285.483 50.0829 285.709C49.7582 285.935 49.3578 286.047 48.8817 286.047C48.4661 286.047 48.0988 285.955 47.7795 285.771C47.4631 285.584 47.2154 285.313 47.0365 284.958C46.8577 284.6 46.7682 284.168 46.7682 283.662V279.624H48.2625V283.43C48.2625 283.832 48.3726 284.151 48.5927 284.388C48.8129 284.625 49.1018 284.743 49.4596 284.743C49.6797 284.743 49.893 284.689 50.0994 284.582C50.3058 284.475 50.475 284.315 50.6071 284.103C50.742 283.889 50.8094 283.62 50.8094 283.298ZM53.8403 285.965V279.624H55.3345V285.965H53.8403ZM54.5915 278.725C54.3549 278.725 54.1512 278.646 53.9806 278.489C53.81 278.33 53.7247 278.138 53.7247 277.916C53.7247 277.69 53.81 277.499 53.9806 277.342C54.1512 277.182 54.3549 277.102 54.5915 277.102C54.8309 277.102 55.0346 277.182 55.2024 277.342C55.3731 277.499 55.4584 277.69 55.4584 277.916C55.4584 278.138 55.3731 278.33 55.2024 278.489C55.0346 278.646 54.8309 278.725 54.5915 278.725ZM59.6368 286.089C59.0038 286.089 58.4603 285.95 58.0063 285.672C57.555 285.394 57.2069 285.01 56.9619 284.52C56.7198 284.028 56.5987 283.461 56.5987 282.819C56.5987 282.175 56.7225 281.607 56.9702 281.115C57.2179 280.619 57.5674 280.234 58.0187 279.959C58.4727 279.681 59.0093 279.542 59.6285 279.542C60.1431 279.542 60.5986 279.637 60.9948 279.827C61.3939 280.014 61.7117 280.279 61.9484 280.623C62.185 280.965 62.3199 281.364 62.3529 281.82H60.9247C60.8669 281.515 60.7293 281.26 60.5119 281.057C60.2972 280.85 60.0097 280.747 59.6492 280.747C59.3437 280.747 59.0754 280.83 58.8442 280.995C58.6131 281.157 58.4328 281.391 58.3035 281.697C58.1769 282.002 58.1136 282.368 58.1136 282.795C58.1136 283.227 58.1769 283.598 58.3035 283.909C58.4301 284.217 58.6076 284.455 58.836 284.623C59.0671 284.788 59.3382 284.871 59.6492 284.871C59.8693 284.871 60.0661 284.83 60.2394 284.747C60.4156 284.662 60.5628 284.539 60.6811 284.38C60.7995 284.22 60.8806 284.026 60.9247 283.798H62.3529C62.3171 284.246 62.185 284.644 61.9566 284.991C61.7282 285.335 61.4173 285.604 61.0237 285.8C60.6302 285.992 60.1679 286.089 59.6368 286.089ZM64.9421 283.975L64.938 282.171H65.1774L67.4559 279.624H69.202L66.3992 282.745H66.0896L64.9421 283.975ZM63.5799 285.965V277.511H65.0742V285.965H63.5799ZM67.5591 285.965L65.4952 283.079L66.5024 282.027L69.3465 285.965H67.5591ZM73.1472 285.965V277.511H78.6455V278.795H74.6786V281.09H78.3607V282.374H74.6786V284.681H78.6785V285.965H73.1472ZM81.6361 282.25V285.965H80.1418V279.624H81.5701V280.702H81.6444C81.7902 280.347 82.0228 280.065 82.342 279.856C82.6639 279.646 83.0616 279.542 83.5349 279.542C83.9725 279.542 84.3536 279.635 84.6783 279.823C85.0058 280.01 85.259 280.281 85.4379 280.636C85.6195 280.991 85.7089 281.421 85.7062 281.928V285.965H84.2119V282.159C84.2119 281.735 84.1018 281.404 83.8817 281.164C83.6643 280.925 83.3629 280.805 82.9777 280.805C82.7162 280.805 82.4837 280.863 82.2801 280.978C82.0792 281.091 81.9209 281.255 81.8054 281.47C81.6925 281.684 81.6361 281.944 81.6361 282.25ZM90.3913 279.624V280.78H86.7464V279.624H90.3913ZM87.6463 278.105H89.1405V284.058C89.1405 284.259 89.1708 284.413 89.2313 284.52C89.2946 284.625 89.3772 284.696 89.479 284.735C89.5808 284.773 89.6937 284.793 89.8175 284.793C89.9111 284.793 89.9964 284.786 90.0734 284.772C90.1532 284.758 90.2138 284.746 90.2551 284.735L90.5068 285.903C90.427 285.93 90.3128 285.961 90.1642 285.994C90.0184 286.027 89.8395 286.046 89.6276 286.052C89.2534 286.063 88.9163 286.006 88.6163 285.882C88.3163 285.756 88.0783 285.56 87.9022 285.296C87.7288 285.032 87.6435 284.702 87.6463 284.305V278.105ZM91.641 285.965V279.624H93.0898V280.681H93.1559C93.2715 280.315 93.4696 280.033 93.7503 279.835C94.0337 279.634 94.3571 279.534 94.7203 279.534C94.8029 279.534 94.8951 279.538 94.9969 279.546C95.1015 279.552 95.1882 279.561 95.257 279.575V280.95C95.1937 280.927 95.0932 280.908 94.9556 280.892C94.8208 280.872 94.6901 280.863 94.5635 280.863C94.291 280.863 94.0461 280.922 93.8287 281.04C93.6141 281.156 93.4448 281.317 93.321 281.523C93.1972 281.73 93.1353 281.968 93.1353 282.237V285.965H91.641ZM96.2497 285.965V279.624H97.744V285.965H96.2497ZM97.001 278.725C96.7643 278.725 96.5607 278.646 96.3901 278.489C96.2194 278.33 96.1341 278.138 96.1341 277.916C96.1341 277.69 96.2194 277.499 96.3901 277.342C96.5607 277.182 96.7643 277.102 97.001 277.102C97.2404 277.102 97.444 277.182 97.6119 277.342C97.7825 277.499 97.8678 277.69 97.8678 277.916C97.8678 278.138 97.7825 278.33 97.6119 278.489C97.444 278.646 97.2404 278.725 97.001 278.725ZM102.088 286.089C101.452 286.089 100.903 285.957 100.441 285.692C99.9809 285.425 99.6273 285.048 99.3796 284.561C99.132 284.072 99.0081 283.495 99.0081 282.832C99.0081 282.18 99.132 281.607 99.3796 281.115C99.6301 280.619 99.9796 280.234 100.428 279.959C100.877 279.681 101.404 279.542 102.009 279.542C102.4 279.542 102.769 279.605 103.115 279.732C103.465 279.856 103.773 280.048 104.04 280.31C104.31 280.571 104.522 280.904 104.676 281.309C104.83 281.71 104.907 282.189 104.907 282.745V283.203H99.7099V282.196H103.474C103.472 281.91 103.41 281.655 103.289 281.432C103.168 281.207 102.998 281.029 102.781 280.9C102.566 280.771 102.316 280.706 102.03 280.706C101.724 280.706 101.456 280.78 101.225 280.929C100.994 281.075 100.813 281.267 100.684 281.507C100.557 281.743 100.493 282.003 100.49 282.287V283.166C100.49 283.535 100.557 283.851 100.692 284.116C100.827 284.377 101.016 284.578 101.258 284.718C101.5 284.856 101.783 284.925 102.108 284.925C102.326 284.925 102.522 284.894 102.698 284.834C102.875 284.771 103.027 284.678 103.157 284.557C103.286 284.436 103.384 284.286 103.45 284.107L104.845 284.264C104.757 284.633 104.589 284.955 104.341 285.23C104.096 285.503 103.783 285.714 103.4 285.866C103.018 286.014 102.58 286.089 102.088 286.089ZM111.182 281.3L109.82 281.449C109.781 281.311 109.714 281.182 109.618 281.061C109.524 280.94 109.398 280.842 109.238 280.768C109.078 280.694 108.883 280.656 108.652 280.656C108.341 280.656 108.079 280.724 107.868 280.859C107.658 280.994 107.555 281.168 107.558 281.383C107.555 281.567 107.623 281.717 107.76 281.833C107.901 281.948 108.132 282.043 108.454 282.118L109.535 282.349C110.135 282.478 110.581 282.683 110.873 282.964C111.167 283.245 111.316 283.612 111.318 284.066C111.316 284.465 111.199 284.817 110.968 285.123C110.739 285.425 110.421 285.662 110.014 285.833C109.607 286.003 109.139 286.089 108.611 286.089C107.835 286.089 107.21 285.926 106.736 285.602C106.263 285.274 105.981 284.819 105.89 284.235L107.347 284.095C107.413 284.381 107.554 284.597 107.768 284.743C107.983 284.889 108.262 284.962 108.606 284.962C108.961 284.962 109.246 284.889 109.461 284.743C109.678 284.597 109.787 284.417 109.787 284.202C109.787 284.021 109.717 283.871 109.576 283.752C109.439 283.634 109.224 283.543 108.933 283.48L107.851 283.253C107.243 283.126 106.793 282.913 106.501 282.613C106.21 282.31 106.065 281.928 106.068 281.465C106.065 281.075 106.171 280.736 106.386 280.45C106.603 280.161 106.904 279.938 107.29 279.781C107.678 279.622 108.125 279.542 108.631 279.542C109.374 279.542 109.959 279.7 110.386 280.017C110.815 280.333 111.08 280.761 111.182 281.3Z" fill="#212528"/>
</g>
<g filter="url(#filter4_d_422_368)">
<rect x="157.829" y="78.7437" width="222.171" height="109.029" rx="11.624" fill="white" shape-rendering="crispEdges"/>
<rect x="158.192" y="79.1069" width="221.445" height="108.302" rx="11.2608" stroke="#212528" stroke-width="0.7265" shape-rendering="crispEdges"/>
<path d="M180.561 128.258V113.821H185.975C187.084 113.821 188.015 114.013 188.767 114.399C189.523 114.784 190.094 115.324 190.48 116.02C190.87 116.711 191.065 117.517 191.065 118.438C191.065 119.364 190.868 120.167 190.473 120.849C190.083 121.526 189.507 122.05 188.746 122.421C187.984 122.788 187.049 122.971 185.94 122.971H182.084V120.8H185.588C186.236 120.8 186.767 120.71 187.181 120.532C187.594 120.348 187.9 120.083 188.097 119.735C188.299 119.383 188.4 118.95 188.4 118.438C188.4 117.926 188.299 117.489 188.097 117.127C187.895 116.76 187.587 116.483 187.174 116.295C186.76 116.102 186.227 116.006 185.573 116.006H183.177V128.258H180.561ZM188.02 121.716L191.594 128.258H188.675L185.165 121.716H188.02ZM197.998 128.469C196.913 128.469 195.975 128.244 195.185 127.793C194.401 127.337 193.797 126.693 193.374 125.861C192.951 125.025 192.739 124.04 192.739 122.907C192.739 121.794 192.951 120.816 193.374 119.975C193.801 119.129 194.398 118.471 195.164 118.001C195.93 117.526 196.83 117.289 197.864 117.289C198.532 117.289 199.161 117.397 199.754 117.613C200.35 117.825 200.877 118.154 201.333 118.6C201.793 119.047 202.155 119.615 202.418 120.306C202.681 120.992 202.813 121.81 202.813 122.759V123.542H193.938V121.822H200.367C200.362 121.333 200.256 120.898 200.05 120.518C199.843 120.132 199.554 119.829 199.182 119.608C198.816 119.387 198.388 119.277 197.899 119.277C197.378 119.277 196.92 119.404 196.525 119.658C196.13 119.907 195.822 120.236 195.601 120.644C195.385 121.049 195.275 121.493 195.27 121.977V123.478C195.27 124.108 195.385 124.649 195.615 125.1C195.846 125.546 196.168 125.889 196.581 126.129C196.995 126.364 197.479 126.481 198.033 126.481C198.405 126.481 198.741 126.43 199.042 126.326C199.342 126.218 199.603 126.061 199.824 125.854C200.045 125.647 200.212 125.391 200.325 125.086L202.707 125.354C202.557 125.983 202.27 126.533 201.847 127.003C201.429 127.468 200.893 127.83 200.24 128.089C199.587 128.343 198.839 128.469 197.998 128.469ZM208.088 128.476C207.402 128.476 206.784 128.354 206.234 128.11C205.689 127.861 205.256 127.494 204.937 127.01C204.622 126.526 204.464 125.929 204.464 125.22C204.464 124.609 204.577 124.103 204.803 123.704C205.028 123.304 205.336 122.985 205.726 122.745C206.116 122.506 206.556 122.325 207.044 122.202C207.538 122.076 208.048 121.984 208.574 121.927C209.209 121.862 209.723 121.803 210.118 121.751C210.513 121.695 210.8 121.61 210.978 121.497C211.161 121.38 211.253 121.199 211.253 120.955V120.912C211.253 120.381 211.096 119.97 210.781 119.679C210.466 119.387 210.012 119.242 209.42 119.242C208.795 119.242 208.299 119.378 207.933 119.65C207.571 119.923 207.326 120.245 207.2 120.616L204.817 120.278C205.005 119.62 205.315 119.07 205.747 118.628C206.18 118.182 206.708 117.848 207.333 117.627C207.959 117.402 208.649 117.289 209.406 117.289C209.928 117.289 210.447 117.35 210.964 117.472C211.481 117.594 211.953 117.796 212.381 118.078C212.809 118.356 213.152 118.734 213.41 119.213C213.673 119.693 213.805 120.292 213.805 121.011V128.258H211.352V126.77H211.267C211.112 127.071 210.893 127.353 210.612 127.616C210.334 127.875 209.984 128.084 209.561 128.244C209.143 128.399 208.652 128.476 208.088 128.476ZM208.75 126.601C209.263 126.601 209.707 126.5 210.083 126.298C210.459 126.091 210.748 125.819 210.95 125.48C211.157 125.142 211.26 124.773 211.26 124.374V123.098C211.18 123.163 211.044 123.225 210.851 123.281C210.663 123.337 210.452 123.387 210.217 123.429C209.982 123.471 209.749 123.509 209.519 123.542C209.289 123.575 209.089 123.603 208.92 123.626C208.539 123.678 208.198 123.763 207.897 123.88C207.597 123.998 207.359 124.162 207.185 124.374C207.012 124.58 206.925 124.848 206.925 125.177C206.925 125.647 207.096 126.002 207.439 126.242C207.782 126.481 208.219 126.601 208.75 126.601ZM218.923 113.821V128.258H216.371V113.821H218.923ZM225.949 116.013V113.821H237.468V116.013H233.006V128.258H230.412V116.013H225.949ZM239.576 128.258V117.43H242.128V128.258H239.576ZM240.859 115.893C240.455 115.893 240.107 115.759 239.816 115.491C239.525 115.219 239.379 114.892 239.379 114.511C239.379 114.126 239.525 113.799 239.816 113.532C240.107 113.259 240.455 113.123 240.859 113.123C241.268 113.123 241.616 113.259 241.903 113.532C242.194 113.799 242.34 114.126 242.34 114.511C242.34 114.892 242.194 115.219 241.903 115.491C241.616 115.759 241.268 115.893 240.859 115.893ZM244.752 128.258V117.43H247.191V119.27H247.318C247.544 118.649 247.918 118.165 248.439 117.818C248.961 117.465 249.584 117.289 250.307 117.289C251.04 117.289 251.658 117.467 252.161 117.825C252.669 118.177 253.026 118.659 253.233 119.27H253.346C253.585 118.668 253.99 118.189 254.558 117.832C255.132 117.47 255.811 117.289 256.595 117.289C257.592 117.289 258.405 117.604 259.035 118.234C259.664 118.863 259.979 119.782 259.979 120.99V128.258H257.42V121.385C257.42 120.713 257.242 120.221 256.885 119.911C256.527 119.596 256.09 119.439 255.573 119.439C254.958 119.439 254.476 119.632 254.128 120.017C253.785 120.398 253.614 120.894 253.614 121.505V128.258H251.111V121.279C251.111 120.72 250.942 120.273 250.603 119.94C250.27 119.606 249.833 119.439 249.292 119.439C248.926 119.439 248.592 119.533 248.291 119.721C247.99 119.904 247.751 120.165 247.572 120.503C247.394 120.837 247.304 121.227 247.304 121.674V128.258H244.752ZM267.362 128.469C266.276 128.469 265.339 128.244 264.549 127.793C263.764 127.337 263.16 126.693 262.737 125.861C262.314 125.025 262.103 124.04 262.103 122.907C262.103 121.794 262.314 120.816 262.737 119.975C263.165 119.129 263.762 118.471 264.528 118.001C265.294 117.526 266.194 117.289 267.228 117.289C267.895 117.289 268.525 117.397 269.117 117.613C269.714 117.825 270.24 118.154 270.696 118.6C271.157 119.047 271.519 119.615 271.782 120.306C272.045 120.992 272.177 121.81 272.177 122.759V123.542H263.301V121.822H269.73C269.726 121.333 269.62 120.898 269.413 120.518C269.206 120.132 268.917 119.829 268.546 119.608C268.18 119.387 267.752 119.277 267.263 119.277C266.742 119.277 266.283 119.404 265.889 119.658C265.494 119.907 265.186 120.236 264.965 120.644C264.749 121.049 264.638 121.493 264.634 121.977V123.478C264.634 124.108 264.749 124.649 264.979 125.1C265.209 125.546 265.531 125.889 265.945 126.129C266.358 126.364 266.843 126.481 267.397 126.481C267.768 126.481 268.104 126.43 268.405 126.326C268.706 126.218 268.967 126.061 269.188 125.854C269.409 125.647 269.575 125.391 269.688 125.086L272.071 125.354C271.921 125.983 271.634 126.533 271.211 127.003C270.793 127.468 270.257 127.83 269.604 128.089C268.95 128.343 268.203 128.469 267.362 128.469ZM281.226 128.258H278.435L283.518 113.821H286.746L291.836 128.258H289.044L285.188 116.781H285.076L281.226 128.258ZM281.318 122.597H288.932V124.698H281.318V122.597ZM298.018 128.469C296.938 128.469 296.009 128.232 295.234 127.757C294.463 127.283 293.869 126.627 293.45 125.791C293.037 124.949 292.83 123.981 292.83 122.886C292.83 121.786 293.041 120.816 293.464 119.975C293.887 119.129 294.484 118.471 295.255 118.001C296.03 117.526 296.947 117.289 298.004 117.289C298.883 117.289 299.661 117.451 300.338 117.775C301.019 118.095 301.562 118.548 301.966 119.136C302.37 119.719 302.601 120.4 302.657 121.18H300.218C300.119 120.659 299.884 120.224 299.513 119.876C299.146 119.524 298.655 119.347 298.04 119.347C297.518 119.347 297.06 119.488 296.665 119.77C296.27 120.048 295.962 120.447 295.741 120.969C295.525 121.49 295.417 122.115 295.417 122.844C295.417 123.582 295.525 124.216 295.741 124.747C295.958 125.274 296.261 125.68 296.651 125.967C297.046 126.249 297.509 126.39 298.04 126.39C298.416 126.39 298.752 126.319 299.048 126.178C299.348 126.033 299.6 125.824 299.802 125.551C300.004 125.278 300.143 124.947 300.218 124.557H302.657C302.596 125.323 302.37 126.002 301.98 126.594C301.59 127.182 301.059 127.642 300.387 127.976C299.715 128.305 298.925 128.469 298.018 128.469ZM309.476 128.469C308.395 128.469 307.467 128.232 306.691 127.757C305.92 127.283 305.326 126.627 304.908 125.791C304.494 124.949 304.287 123.981 304.287 122.886C304.287 121.786 304.499 120.816 304.922 119.975C305.345 119.129 305.941 118.471 306.712 118.001C307.488 117.526 308.404 117.289 309.462 117.289C310.34 117.289 311.118 117.451 311.795 117.775C312.476 118.095 313.019 118.548 313.423 119.136C313.828 119.719 314.058 120.4 314.114 121.18H311.675C311.576 120.659 311.341 120.224 310.97 119.876C310.604 119.524 310.112 119.347 309.497 119.347C308.975 119.347 308.517 119.488 308.122 119.77C307.727 120.048 307.42 120.447 307.199 120.969C306.982 121.49 306.874 122.115 306.874 122.844C306.874 123.582 306.982 124.216 307.199 124.747C307.415 125.274 307.718 125.68 308.108 125.967C308.503 126.249 308.966 126.39 309.497 126.39C309.873 126.39 310.209 126.319 310.505 126.178C310.806 126.033 311.057 125.824 311.259 125.551C311.461 125.278 311.6 124.947 311.675 124.557H314.114C314.053 125.323 313.828 126.002 313.437 126.594C313.047 127.182 312.516 127.642 311.844 127.976C311.172 128.305 310.383 128.469 309.476 128.469ZM320.933 128.469C319.875 128.469 318.959 128.237 318.184 127.772C317.408 127.306 316.807 126.655 316.379 125.819C315.956 124.982 315.744 124.005 315.744 122.886C315.744 121.768 315.956 120.788 316.379 119.947C316.807 119.105 317.408 118.452 318.184 117.987C318.959 117.522 319.875 117.289 320.933 117.289C321.99 117.289 322.907 117.522 323.682 117.987C324.458 118.452 325.057 119.105 325.48 119.947C325.907 120.788 326.121 121.768 326.121 122.886C326.121 124.005 325.907 124.982 325.48 125.819C325.057 126.655 324.458 127.306 323.682 127.772C322.907 128.237 321.99 128.469 320.933 128.469ZM320.947 126.425C321.52 126.425 322 126.268 322.385 125.953C322.77 125.633 323.057 125.205 323.245 124.67C323.438 124.134 323.534 123.537 323.534 122.879C323.534 122.217 323.438 121.617 323.245 121.082C323.057 120.541 322.77 120.111 322.385 119.791C322 119.472 321.52 119.312 320.947 119.312C320.36 119.312 319.871 119.472 319.481 119.791C319.095 120.111 318.806 120.541 318.614 121.082C318.426 121.617 318.332 122.217 318.332 122.879C318.332 123.537 318.426 124.134 318.614 124.67C318.806 125.205 319.095 125.633 319.481 125.953C319.871 126.268 320.36 126.425 320.947 126.425ZM335.189 123.704V117.43H337.741V128.258H335.266V126.333H335.154C334.909 126.94 334.507 127.435 333.948 127.821C333.393 128.206 332.71 128.399 331.897 128.399C331.187 128.399 330.56 128.241 330.014 127.927C329.474 127.607 329.051 127.144 328.746 126.538C328.44 125.927 328.287 125.189 328.287 124.324V117.43H330.839V123.93C330.839 124.616 331.027 125.161 331.403 125.565C331.779 125.969 332.273 126.171 332.884 126.171C333.26 126.171 333.624 126.08 333.976 125.896C334.329 125.713 334.618 125.44 334.843 125.079C335.074 124.712 335.189 124.254 335.189 123.704ZM342.917 121.913V128.258H340.365V117.43H342.804V119.27H342.931C343.18 118.664 343.577 118.182 344.122 117.825C344.672 117.467 345.351 117.289 346.16 117.289C346.907 117.289 347.558 117.449 348.112 117.768C348.672 118.088 349.104 118.551 349.409 119.157C349.72 119.763 349.872 120.499 349.868 121.364V128.258H347.316V121.758C347.316 121.035 347.128 120.468 346.752 120.059C346.38 119.65 345.866 119.446 345.208 119.446C344.761 119.446 344.364 119.545 344.017 119.742C343.673 119.935 343.403 120.214 343.206 120.581C343.013 120.948 342.917 121.392 342.917 121.913ZM357.869 117.43V119.404H351.644V117.43H357.869ZM353.181 114.836H355.733V125.001C355.733 125.344 355.784 125.607 355.888 125.791C355.996 125.969 356.137 126.091 356.311 126.157C356.485 126.223 356.677 126.256 356.889 126.256C357.049 126.256 357.194 126.244 357.326 126.221C357.462 126.197 357.566 126.176 357.636 126.157L358.066 128.152C357.93 128.199 357.735 128.251 357.481 128.307C357.232 128.364 356.927 128.397 356.565 128.406C355.925 128.425 355.35 128.328 354.837 128.117C354.325 127.901 353.919 127.567 353.618 127.116C353.322 126.665 353.176 126.101 353.181 125.424V114.836ZM244.409 137.821H247.024V147.253C247.024 148.287 246.78 149.196 246.291 149.981C245.807 150.766 245.125 151.379 244.247 151.821C243.368 152.258 242.341 152.476 241.166 152.476C239.986 152.476 238.957 152.258 238.078 151.821C237.199 151.379 236.518 150.766 236.034 149.981C235.55 149.196 235.308 148.287 235.308 147.253V137.821H237.923V147.034C237.923 147.636 238.055 148.172 238.318 148.642C238.586 149.112 238.962 149.48 239.446 149.748C239.93 150.011 240.503 150.143 241.166 150.143C241.829 150.143 242.402 150.011 242.886 149.748C243.375 149.48 243.751 149.112 244.014 148.642C244.277 148.172 244.409 147.636 244.409 147.034V137.821ZM249.754 156.318V141.43H252.264V143.22H252.412C252.543 142.957 252.729 142.678 252.969 142.382C253.208 142.081 253.532 141.825 253.941 141.613C254.35 141.397 254.872 141.289 255.506 141.289C256.343 141.289 257.097 141.503 257.769 141.93C258.446 142.353 258.982 142.981 259.377 143.813C259.776 144.64 259.976 145.655 259.976 146.858C259.976 148.047 259.781 149.057 259.391 149.889C259.001 150.721 258.469 151.356 257.797 151.793C257.125 152.23 256.364 152.448 255.513 152.448C254.893 152.448 254.378 152.345 253.97 152.138C253.561 151.931 253.232 151.682 252.983 151.391C252.738 151.095 252.548 150.815 252.412 150.552H252.306V156.318H249.754ZM252.257 146.844C252.257 147.544 252.355 148.157 252.553 148.684C252.755 149.21 253.044 149.621 253.42 149.917C253.8 150.209 254.261 150.355 254.801 150.355C255.365 150.355 255.838 150.204 256.218 149.903C256.599 149.598 256.886 149.182 257.078 148.656C257.276 148.125 257.374 147.521 257.374 146.844C257.374 146.172 257.278 145.575 257.085 145.053C256.893 144.532 256.606 144.123 256.225 143.827C255.845 143.531 255.37 143.383 254.801 143.383C254.256 143.383 253.793 143.526 253.413 143.813C253.032 144.099 252.743 144.501 252.546 145.018C252.353 145.535 252.257 146.144 252.257 146.844ZM266.179 152.448C265.329 152.448 264.567 152.23 263.895 151.793C263.223 151.356 262.692 150.721 262.302 149.889C261.912 149.057 261.717 148.047 261.717 146.858C261.717 145.655 261.914 144.64 262.309 143.813C262.709 142.981 263.247 142.353 263.923 141.93C264.6 141.503 265.355 141.289 266.186 141.289C266.821 141.289 267.342 141.397 267.751 141.613C268.16 141.825 268.484 142.081 268.724 142.382C268.964 142.678 269.149 142.957 269.281 143.22H269.387V137.821H271.946V152.258H269.436V150.552H269.281C269.149 150.815 268.959 151.095 268.71 151.391C268.461 151.682 268.132 151.931 267.723 152.138C267.314 152.345 266.8 152.448 266.179 152.448ZM266.891 150.355C267.432 150.355 267.892 150.209 268.273 149.917C268.654 149.621 268.943 149.21 269.14 148.684C269.337 148.157 269.436 147.544 269.436 146.844C269.436 146.144 269.337 145.535 269.14 145.018C268.947 144.501 268.661 144.099 268.28 143.813C267.904 143.526 267.441 143.383 266.891 143.383C266.323 143.383 265.848 143.531 265.467 143.827C265.087 144.123 264.8 144.532 264.607 145.053C264.415 145.575 264.318 146.172 264.318 146.844C264.318 147.521 264.415 148.125 264.607 148.656C264.805 149.182 265.094 149.598 265.474 149.903C265.86 150.204 266.332 150.355 266.891 150.355ZM277.781 152.476C277.095 152.476 276.477 152.354 275.927 152.11C275.382 151.861 274.949 151.494 274.63 151.01C274.315 150.526 274.158 149.929 274.158 149.22C274.158 148.609 274.27 148.103 274.496 147.704C274.722 147.304 275.029 146.985 275.419 146.745C275.81 146.506 276.249 146.325 276.738 146.202C277.231 146.076 277.741 145.984 278.267 145.927C278.902 145.862 279.417 145.803 279.811 145.751C280.206 145.695 280.493 145.61 280.671 145.497C280.855 145.38 280.946 145.199 280.946 144.955V144.912C280.946 144.381 280.789 143.97 280.474 143.679C280.159 143.387 279.706 143.242 279.113 143.242C278.488 143.242 277.993 143.378 277.626 143.65C277.264 143.923 277.02 144.245 276.893 144.616L274.51 144.278C274.698 143.62 275.008 143.07 275.441 142.628C275.873 142.182 276.402 141.848 277.027 141.627C277.652 141.402 278.343 141.289 279.099 141.289C279.621 141.289 280.14 141.35 280.657 141.472C281.174 141.594 281.647 141.796 282.074 142.078C282.502 142.356 282.845 142.734 283.103 143.213C283.367 143.693 283.498 144.292 283.498 145.011V152.258H281.045V150.77H280.96C280.805 151.071 280.587 151.353 280.305 151.616C280.027 151.875 279.677 152.084 279.254 152.244C278.836 152.399 278.345 152.476 277.781 152.476ZM278.444 150.601C278.956 150.601 279.4 150.5 279.776 150.298C280.152 150.091 280.441 149.819 280.643 149.48C280.85 149.142 280.953 148.773 280.953 148.374V147.098C280.873 147.163 280.737 147.225 280.544 147.281C280.356 147.337 280.145 147.387 279.91 147.429C279.675 147.471 279.442 147.509 279.212 147.542C278.982 147.575 278.782 147.603 278.613 147.626C278.232 147.678 277.891 147.763 277.591 147.88C277.29 147.998 277.053 148.162 276.879 148.374C276.705 148.58 276.618 148.848 276.618 149.177C276.618 149.647 276.789 150.002 277.132 150.242C277.476 150.481 277.913 150.601 278.444 150.601ZM291.471 141.43V143.404H285.246V141.43H291.471ZM286.783 138.836H289.335V149.001C289.335 149.344 289.387 149.607 289.49 149.791C289.598 149.969 289.739 150.091 289.913 150.157C290.087 150.223 290.28 150.256 290.491 150.256C290.651 150.256 290.797 150.244 290.928 150.221C291.065 150.197 291.168 150.176 291.239 150.157L291.669 152.152C291.532 152.199 291.337 152.251 291.083 152.307C290.834 152.364 290.529 152.397 290.167 152.406C289.528 152.425 288.952 152.328 288.44 152.117C287.928 151.901 287.521 151.567 287.22 151.116C286.924 150.665 286.779 150.101 286.783 149.424V138.836ZM298.283 152.469C297.197 152.469 296.26 152.244 295.47 151.793C294.685 151.337 294.081 150.693 293.658 149.861C293.235 149.025 293.024 148.04 293.024 146.907C293.024 145.794 293.235 144.816 293.658 143.975C294.086 143.129 294.683 142.471 295.449 142.001C296.215 141.526 297.115 141.289 298.149 141.289C298.816 141.289 299.446 141.397 300.038 141.613C300.635 141.825 301.161 142.154 301.617 142.6C302.078 143.047 302.44 143.615 302.703 144.306C302.966 144.992 303.098 145.81 303.098 146.759V147.542H294.222V145.822H300.651C300.647 145.333 300.541 144.898 300.334 144.518C300.127 144.132 299.838 143.829 299.467 143.608C299.101 143.387 298.673 143.277 298.184 143.277C297.662 143.277 297.204 143.404 296.809 143.658C296.415 143.907 296.107 144.236 295.886 144.644C295.67 145.049 295.559 145.493 295.555 145.977V147.478C295.555 148.108 295.67 148.649 295.9 149.1C296.13 149.546 296.452 149.889 296.866 150.129C297.279 150.364 297.763 150.481 298.318 150.481C298.689 150.481 299.025 150.43 299.326 150.326C299.627 150.218 299.888 150.061 300.109 149.854C300.329 149.647 300.496 149.391 300.609 149.086L302.992 149.354C302.841 149.983 302.555 150.533 302.132 151.003C301.714 151.468 301.178 151.83 300.525 152.089C299.871 152.343 299.124 152.469 298.283 152.469Z" fill="#212528"/>
</g>
<defs>
<filter id="filter0_d_422_368" x="20" y="78.7437" width="124.278" height="111.935" filterUnits="userSpaceOnUse" color-interpolation-filters="sRGB">
<feFlood flood-opacity="0" result="BackgroundImageFix"/>
<feColorMatrix in="SourceAlpha" type="matrix" values="0 0 0 0 0 0 0 0 0 0 0 0 0 0 0 0 0 0 127 0" result="hardAlpha"/>
<feOffset dx="2.906" dy="2.906"/>
<feComposite in2="hardAlpha" operator="out"/>
<feColorMatrix type="matrix" values="0 0 0 0 0.979608 0 0 0 0 0.800784 0 0 0 0 0.620392 0 0 0 1 0"/>
<feBlend mode="normal" in2="BackgroundImageFix" result="effect1_dropShadow_422_368"/>
<feBlend mode="normal" in="SourceGraphic" in2="effect1_dropShadow_422_368" result="shape"/>
</filter>
<filter id="filter1_d_422_368" x="270.971" y="204.229" width="111.881" height="111.881" filterUnits="userSpaceOnUse" color-interpolation-filters="sRGB">
<feFlood flood-opacity="0" result="BackgroundImageFix"/>
<feColorMatrix in="SourceAlpha" type="matrix" values="0 0 0 0 0 0 0 0 0 0 0 0 0 0 0 0 0 0 127 0" result="hardAlpha"/>
<feOffset dx="2.906" dy="2.906"/>
<feComposite in2="hardAlpha" operator="out"/>
<feColorMatrix type="matrix" values="0 0 0 0 0.67451 0 0 0 0 0.933333 0 0 0 0 0.666667 0 0 0 1 0"/>
<feBlend mode="normal" in2="BackgroundImageFix" result="effect1_dropShadow_422_368"/>
<feBlend mode="normal" in="SourceGraphic" in2="effect1_dropShadow_422_368" result="shape"/>
</filter>
<filter id="filter2_d_422_368" x="145.486" y="204.229" width="111.881" height="111.881" filterUnits="userSpaceOnUse" color-interpolation-filters="sRGB">
<feFlood flood-opacity="0" result="BackgroundImageFix"/>
<feColorMatrix in="SourceAlpha" type="matrix" values="0 0 0 0 0 0 0 0 0 0 0 0 0 0 0 0 0 0 127 0" result="hardAlpha"/>
<feOffset dx="2.906" dy="2.906"/>
<feComposite in2="hardAlpha" operator="out"/>
<feColorMatrix type="matrix" values="0 0 0 0 0.666667 0 0 0 0 0.803922 0 0 0 0 0.933333 0 0 0 1 0"/>
<feBlend mode="normal" in2="BackgroundImageFix" result="effect1_dropShadow_422_368"/>
<feBlend mode="normal" in="SourceGraphic" in2="effect1_dropShadow_422_368" result="shape"/>
</filter>
<filter id="filter3_d_422_368" x="20" y="204.229" width="111.881" height="111.881" filterUnits="userSpaceOnUse" color-interpolation-filters="sRGB">
<feFlood flood-opacity="0" result="BackgroundImageFix"/>
<feColorMatrix in="SourceAlpha" type="matrix" values="0 0 0 0 0 0 0 0 0 0 0 0 0 0 0 0 0 0 127 0" result="hardAlpha"/>
<feOffset dx="2.906" dy="2.906"/>
<feComposite in2="hardAlpha" operator="out"/>
<feColorMatrix type="matrix" values="0 0 0 0 0.933333 0 0 0 0 0.666667 0 0 0 0 0.905882 0 0 0 1 0"/>
<feBlend mode="normal" in2="BackgroundImageFix" result="effect1_dropShadow_422_368"/>
<feBlend mode="normal" in="SourceGraphic" in2="effect1_dropShadow_422_368" result="shape"/>
</filter>
<filter id="filter4_d_422_368" x="157.829" y="78.7437" width="225.077" height="111.935" filterUnits="userSpaceOnUse" color-interpolation-filters="sRGB">
<feFlood flood-opacity="0" result="BackgroundImageFix"/>
<feColorMatrix in="SourceAlpha" type="matrix" values="0 0 0 0 0 0 0 0 0 0 0 0 0 0 0 0 0 0 127 0" result="hardAlpha"/>
<feOffset dx="2.906" dy="2.906"/>
<feComposite in2="hardAlpha" operator="out"/>
<feColorMatrix type="matrix" values="0 0 0 0 0.933333 0 0 0 0 0.666667 0 0 0 0 0.905882 0 0 0 1 0"/>
<feBlend mode="normal" in2="BackgroundImageFix" result="effect1_dropShadow_422_368"/>
<feBlend mode="normal" in="SourceGraphic" in2="effect1_dropShadow_422_368" result="shape"/>
</filter>
<clipPath id="clip0_422_368">
<rect width="40.684" height="40.684" fill="white" transform="translate(305.117 221.469)"/>
</clipPath>
</defs>
</svg>
