<svg width="500" height="500" viewBox="0 0 500 500" fill="none" xmlns="http://www.w3.org/2000/svg">
<rect width="500" height="500" rx="8" fill="#E9ECFF"/>
<rect x="100" y="20" width="140" height="140" rx="4" fill="#1A237E"/>
<path d="M168 74.1667H167.027L173.827 81.2467C174.64 82.1 174.04 83.5 172.867 83.5C172.507 83.5 172.16 83.3533 171.907 83.0867L163.867 74.7133C163.52 74.3667 163.333 73.8867 163.333 73.4067C163.333 72.3533 164.187 71.5 165.24 71.5H168C170.347 71.5 172.293 69.7667 172.613 67.5H163.333C162.6 67.5 162 66.9 162 66.1667C162 65.4333 162.6 64.8333 163.333 64.8333H172.213C171.467 63.26 169.867 62.1667 168 62.1667H163.333C162.6 62.1667 162 61.5667 162 60.8333C162 60.1 162.6 59.5 163.333 59.5H176.667C177.4 59.5 178 60.1 178 60.8333C178 61.5667 177.4 62.1667 176.667 62.1667H173.653C174.293 62.94 174.773 63.8467 175.053 64.8333H176.667C177.4 64.8333 178 65.4333 178 66.1667C178 66.9 177.4 67.5 176.667 67.5H175.307C174.96 71.2333 171.813 74.1667 168 74.1667Z" fill="#E9ECFF"/>
<path d="M155.64 119.5V105.62H157.52V119.5H155.64ZM160.796 119.5V105.62H162.116L162.676 107.8V119.5H160.796ZM170.396 119.5L161.876 108.12L162.116 105.62L170.656 116.98L170.396 119.5ZM170.396 119.5L169.836 117.44V105.62H171.716V119.5H170.396ZM176.255 113.46V111.88H180.015C180.829 111.88 181.455 111.673 181.895 111.26C182.335 110.847 182.555 110.287 182.555 109.58C182.555 108.913 182.335 108.36 181.895 107.92C181.469 107.48 180.849 107.26 180.035 107.26H176.255V105.62H180.095C180.975 105.62 181.742 105.793 182.395 106.14C183.049 106.473 183.549 106.933 183.895 107.52C184.255 108.107 184.435 108.78 184.435 109.54C184.435 110.327 184.255 111.013 183.895 111.6C183.549 112.187 183.049 112.647 182.395 112.98C181.742 113.3 180.975 113.46 180.095 113.46H176.255ZM174.995 119.5V105.62H176.875V119.5H174.995ZM182.995 119.5L177.955 113.28L179.735 112.66L185.375 119.5H182.995Z" fill="#E9ECFF"/>
<rect x="260" y="20" width="140" height="140" rx="4" fill="#1A237E"/>
<path d="M330.4 70.0333C327.373 69.2467 326.4 68.4333 326.4 67.1667C326.4 65.7133 327.747 64.7 330 64.7C331.893 64.7 332.84 65.42 333.187 66.5667C333.347 67.1 333.787 67.5 334.347 67.5H334.747C335.627 67.5 336.253 66.6333 335.947 65.8067C335.387 64.2333 334.08 62.9267 332 62.42V61.5C332 60.3933 331.107 59.5 330 59.5C328.893 59.5 328 60.3933 328 61.5V62.38C325.413 62.94 323.333 64.62 323.333 67.1933C323.333 70.2733 325.88 71.8067 329.6 72.7C332.933 73.5 333.6 74.6733 333.6 75.9133C333.6 76.8333 332.947 78.3 330 78.3C327.8 78.3 326.667 77.5133 326.227 76.3933C326.027 75.8733 325.573 75.5 325.027 75.5H324.653C323.76 75.5 323.133 76.4067 323.467 77.2333C324.227 79.0867 326 80.18 328 80.6067V81.5C328 82.6067 328.893 83.5 330 83.5C331.107 83.5 332 82.6067 332 81.5V80.6333C334.6 80.14 336.667 78.6333 336.667 75.9C336.667 72.1133 333.427 70.82 330.4 70.0333Z" fill="#E9ECFF"/>
<path d="M316.84 119.7C315.813 119.7 314.893 119.473 314.08 119.02C313.28 118.553 312.647 117.92 312.18 117.12C311.713 116.307 311.48 115.387 311.48 114.36V105.62H313.36V114.32C313.36 115.053 313.513 115.687 313.82 116.22C314.127 116.753 314.54 117.167 315.06 117.46C315.593 117.753 316.187 117.9 316.84 117.9C317.52 117.9 318.113 117.753 318.62 117.46C319.14 117.167 319.547 116.753 319.84 116.22C320.147 115.687 320.3 115.06 320.3 114.34V105.62H322.2V114.38C322.2 115.407 321.967 116.32 321.5 117.12C321.033 117.92 320.4 118.553 319.6 119.02C318.8 119.473 317.88 119.7 316.84 119.7ZM328.996 119.7C327.903 119.7 326.969 119.5 326.196 119.1C325.423 118.7 324.736 118.12 324.136 117.36L325.416 116.08C325.856 116.693 326.363 117.16 326.936 117.48C327.509 117.787 328.216 117.94 329.056 117.94C329.883 117.94 330.543 117.76 331.036 117.4C331.543 117.04 331.796 116.547 331.796 115.92C331.796 115.4 331.676 114.98 331.436 114.66C331.196 114.34 330.869 114.08 330.456 113.88C330.056 113.667 329.616 113.48 329.136 113.32C328.656 113.147 328.176 112.967 327.696 112.78C327.216 112.58 326.776 112.34 326.376 112.06C325.976 111.767 325.649 111.387 325.396 110.92C325.156 110.453 325.036 109.867 325.036 109.16C325.036 108.373 325.223 107.707 325.596 107.16C325.983 106.6 326.503 106.173 327.156 105.88C327.823 105.573 328.569 105.42 329.396 105.42C330.303 105.42 331.116 105.6 331.836 105.96C332.556 106.307 333.143 106.767 333.596 107.34L332.316 108.62C331.903 108.14 331.456 107.78 330.976 107.54C330.509 107.3 329.969 107.18 329.356 107.18C328.609 107.18 328.016 107.347 327.576 107.68C327.136 108 326.916 108.453 326.916 109.04C326.916 109.507 327.036 109.887 327.276 110.18C327.529 110.46 327.856 110.7 328.256 110.9C328.656 111.1 329.096 111.287 329.576 111.46C330.069 111.62 330.556 111.8 331.036 112C331.516 112.2 331.956 112.453 332.356 112.76C332.756 113.067 333.076 113.467 333.316 113.96C333.569 114.44 333.696 115.047 333.696 115.78C333.696 117.007 333.269 117.967 332.416 118.66C331.576 119.353 330.436 119.7 328.996 119.7ZM337.47 119.5V117.78H341.33C342.357 117.78 343.257 117.56 344.03 117.12C344.803 116.667 345.403 116.047 345.83 115.26C346.27 114.473 346.49 113.567 346.49 112.54C346.49 111.527 346.27 110.627 345.83 109.84C345.39 109.053 344.783 108.44 344.01 108C343.237 107.56 342.343 107.34 341.33 107.34H337.49V105.62H341.37C342.383 105.62 343.317 105.793 344.17 106.14C345.037 106.487 345.783 106.973 346.41 107.6C347.05 108.227 347.543 108.96 347.89 109.8C348.25 110.64 348.43 111.56 348.43 112.56C348.43 113.547 348.25 114.467 347.89 115.32C347.543 116.16 347.057 116.893 346.43 117.52C345.803 118.147 345.057 118.633 344.19 118.98C343.337 119.327 342.41 119.5 341.41 119.5H337.47ZM336.23 119.5V105.62H338.11V119.5H336.23Z" fill="#E9ECFF"/>
<rect x="100" y="180" width="140" height="140" rx="4" fill="#1A237E"/>
<path d="M174.687 240.167C171.34 240.167 168.447 238.273 167.007 235.5H173.86C174.367 235.5 174.834 235.22 175.047 234.767C175.487 233.887 174.847 232.833 173.86 232.833H166.127C166.06 232.393 166.02 231.953 166.02 231.5C166.02 231.047 166.06 230.607 166.127 230.167H173.86C174.367 230.167 174.834 229.887 175.047 229.433C175.5 228.54 174.86 227.5 173.86 227.5H167.007C168.447 224.727 171.354 222.833 174.687 222.833C176.354 222.833 177.914 223.313 179.247 224.127C179.914 224.54 180.78 224.473 181.34 223.913C182.114 223.14 181.94 221.873 181.007 221.3C179.167 220.167 176.994 219.5 174.687 219.5C169.46 219.5 165.034 222.847 163.38 227.5H159.514C159.007 227.5 158.54 227.78 158.314 228.233C157.874 229.127 158.514 230.167 159.514 230.167H162.767C162.714 230.607 162.687 231.047 162.687 231.5C162.687 231.953 162.714 232.393 162.767 232.833H159.514C159.007 232.833 158.54 233.113 158.327 233.567C157.874 234.46 158.514 235.5 159.514 235.5H163.38C165.034 240.153 169.46 243.5 174.687 243.5C177.007 243.5 179.167 242.847 181.007 241.7C181.927 241.127 182.1 239.847 181.327 239.073C180.767 238.513 179.9 238.447 179.234 238.873C177.914 239.7 176.367 240.167 174.687 240.167Z" fill="#E9ECFF"/>
<path d="M152.14 279.5V265.62H154.02V279.5H152.14ZM153.42 279.5V277.78H161.38V279.5H153.42ZM153.42 273.22V271.58H160.72V273.22H153.42ZM153.42 267.34V265.62H161.28V267.34H153.42ZM169.137 279.7C168.11 279.7 167.19 279.473 166.377 279.02C165.577 278.553 164.944 277.92 164.477 277.12C164.01 276.307 163.777 275.387 163.777 274.36V265.62H165.657V274.32C165.657 275.053 165.81 275.687 166.117 276.22C166.424 276.753 166.837 277.167 167.357 277.46C167.89 277.753 168.484 277.9 169.137 277.9C169.817 277.9 170.41 277.753 170.917 277.46C171.437 277.167 171.844 276.753 172.137 276.22C172.444 275.687 172.597 275.06 172.597 274.34V265.62H174.497V274.38C174.497 275.407 174.264 276.32 173.797 277.12C173.33 277.92 172.697 278.553 171.897 279.02C171.097 279.473 170.177 279.7 169.137 279.7ZM178.849 273.46V271.88H182.609C183.423 271.88 184.049 271.673 184.489 271.26C184.929 270.847 185.149 270.287 185.149 269.58C185.149 268.913 184.929 268.36 184.489 267.92C184.063 267.48 183.443 267.26 182.629 267.26H178.849V265.62H182.689C183.569 265.62 184.336 265.793 184.989 266.14C185.643 266.473 186.143 266.933 186.489 267.52C186.849 268.107 187.029 268.78 187.029 269.54C187.029 270.327 186.849 271.013 186.489 271.6C186.143 272.187 185.643 272.647 184.989 272.98C184.336 273.3 183.569 273.46 182.689 273.46H178.849ZM177.589 279.5V265.62H179.469V279.5H177.589ZM185.589 279.5L180.549 273.28L182.329 272.66L187.969 279.5H185.589Z" fill="#E9ECFF"/>
<rect x="260" y="180" width="140" height="140" rx="4" fill="#1A237E"/>
<path d="M337.107 239.313C336.48 238.993 335.734 239.247 335.36 239.847C334.88 240.647 334.067 241.167 332.827 241.167H326.294C327.4 239.833 328.294 238.047 328.294 235.833C328.294 235.367 328.254 234.913 328.187 234.5H331.494C332.227 234.5 332.827 233.9 332.827 233.167C332.827 232.433 332.227 231.833 331.494 231.833H327.254C326.16 229.727 324.827 228.633 324.827 226.5C324.827 223.927 326.92 221.833 329.494 221.833C331.094 221.833 332.507 222.647 333.347 223.873C333.707 224.407 334.374 224.66 334.974 224.407C335.774 224.073 336.04 223.087 335.547 222.367C334.227 220.433 332 219.167 329.494 219.167C325.44 219.167 322.16 222.447 322.16 226.5C322.16 228.873 323.214 230.367 324.147 231.833H323.494C322.76 231.833 322.16 232.433 322.16 233.167C322.16 233.9 322.76 234.5 323.494 234.5H325.454C325.56 234.913 325.627 235.353 325.627 235.833C325.627 238.367 323.907 239.98 322.88 240.713C322.427 241.033 322.16 241.553 322.16 242.113C322.16 243.06 322.934 243.833 323.88 243.833H332.827C334.894 243.833 336.76 242.82 337.667 241.167C338.04 240.487 337.787 239.647 337.107 239.313Z" fill="#E9ECFF"/>
<path d="M317.42 279.7C316.447 279.7 315.533 279.52 314.68 279.16C313.84 278.787 313.1 278.273 312.46 277.62C311.833 276.967 311.34 276.207 310.98 275.34C310.62 274.473 310.44 273.54 310.44 272.54C310.44 271.54 310.62 270.613 310.98 269.76C311.34 268.893 311.84 268.133 312.48 267.48C313.12 266.827 313.867 266.32 314.72 265.96C315.587 265.6 316.527 265.42 317.54 265.42C318.647 265.42 319.667 265.633 320.6 266.06C321.533 266.487 322.313 267.1 322.94 267.9L321.64 269.2C321.2 268.56 320.62 268.073 319.9 267.74C319.18 267.393 318.393 267.22 317.54 267.22C316.527 267.22 315.627 267.447 314.84 267.9C314.067 268.353 313.46 268.98 313.02 269.78C312.593 270.58 312.38 271.5 312.38 272.54C312.38 273.593 312.6 274.52 313.04 275.32C313.48 276.12 314.073 276.747 314.82 277.2C315.567 277.653 316.42 277.88 317.38 277.88C318.353 277.88 319.193 277.693 319.9 277.32C320.62 276.947 321.173 276.4 321.56 275.68C321.947 274.947 322.14 274.053 322.14 273L323.28 273.82H317.28V272.1H324.08V272.38C324.08 273.993 323.793 275.347 323.22 276.44C322.66 277.52 321.873 278.333 320.86 278.88C319.86 279.427 318.713 279.7 317.42 279.7ZM327.869 279.5V277.86H332.069C332.869 277.86 333.495 277.627 333.949 277.16C334.402 276.68 334.629 276.107 334.629 275.44C334.629 274.987 334.529 274.58 334.329 274.22C334.129 273.847 333.835 273.553 333.449 273.34C333.075 273.127 332.635 273.02 332.129 273.02H327.869V271.38H331.849C332.515 271.38 333.042 271.207 333.429 270.86C333.829 270.5 334.029 269.987 334.029 269.32C334.029 268.653 333.822 268.147 333.409 267.8C332.995 267.44 332.449 267.26 331.769 267.26H327.869V265.62H331.809C332.715 265.62 333.469 265.787 334.069 266.12C334.682 266.44 335.142 266.867 335.449 267.4C335.769 267.933 335.929 268.52 335.929 269.16C335.929 269.907 335.722 270.56 335.309 271.12C334.909 271.68 334.315 272.12 333.529 272.44L333.689 271.84C334.582 272.16 335.275 272.647 335.769 273.3C336.275 273.94 336.529 274.7 336.529 275.58C336.529 276.313 336.349 276.973 335.989 277.56C335.629 278.147 335.109 278.62 334.429 278.98C333.762 279.327 332.942 279.5 331.969 279.5H327.869ZM326.609 279.5V265.62H328.489V279.5H326.609ZM340.33 274.1V272.46H344.11C344.63 272.46 345.09 272.353 345.49 272.14C345.903 271.927 346.223 271.627 346.45 271.24C346.69 270.853 346.81 270.393 346.81 269.86C346.81 269.327 346.69 268.867 346.45 268.48C346.223 268.093 345.903 267.793 345.49 267.58C345.09 267.367 344.63 267.26 344.11 267.26H340.33V265.62H344.23C345.083 265.62 345.843 265.793 346.51 266.14C347.19 266.487 347.723 266.98 348.11 267.62C348.51 268.247 348.71 268.993 348.71 269.86C348.71 270.713 348.51 271.46 348.11 272.1C347.723 272.727 347.19 273.22 346.51 273.58C345.843 273.927 345.083 274.1 344.23 274.1H340.33ZM339.07 279.5V265.62H340.95V279.5H339.07Z" fill="#E9ECFF"/>
<rect x="100" y="340" width="140" height="140" rx="4" fill="#1A237E"/>
<path d="M163.093 379.5C163.547 379.5 163.973 379.727 164.213 380.113L170 389.22L175.787 380.113C176.027 379.727 176.453 379.5 176.907 379.5C177.96 379.5 178.6 380.66 178.027 381.553L172.56 390.167H176.667C177.4 390.167 178 390.767 178 391.5C178 392.233 177.4 392.833 176.667 392.833H171.333V395.5H176.667C177.4 395.5 178 396.1 178 396.833C178 397.567 177.4 398.167 176.667 398.167H171.333V402.167C171.333 402.9 170.733 403.5 170 403.5C169.267 403.5 168.667 402.9 168.667 402.167V398.167H163.333C162.6 398.167 162 397.567 162 396.833C162 396.1 162.6 395.5 163.333 395.5H168.667V392.833H163.333C162.6 392.833 162 392.233 162 391.5C162 390.767 162.6 390.167 163.333 390.167H167.44L161.973 381.553C161.4 380.66 162.04 379.5 163.093 379.5Z" fill="#E9ECFF"/>
<path d="M156.54 433.86L151.08 425.62H153.26L157.66 432.36H156.68L161.1 425.62H163.24L157.74 433.86H156.54ZM156.22 439.5V432.62H158.1V439.5H156.22ZM164.953 439.5V425.62H166.833V439.5H164.953ZM166.233 439.5V437.78H174.193V439.5H166.233ZM166.233 433.22V431.58H173.533V433.22H166.233ZM166.233 427.34V425.62H174.093V427.34H166.233ZM176.749 439.5V425.62H178.069L178.629 427.8V439.5H176.749ZM186.349 439.5L177.829 428.12L178.069 425.62L186.609 436.98L186.349 439.5ZM186.349 439.5L185.789 437.44V425.62H187.669V439.5H186.349Z" fill="#E9ECFF"/>
<rect x="260" y="340" width="140" height="140" rx="4" fill="#1A237E"/>
<path d="M324.669 403.5C325.402 403.5 326.002 402.9 326.002 402.167V399.5H330.002C330.735 399.5 331.335 398.9 331.335 398.167C331.335 397.433 330.735 396.833 330.002 396.833H326.002V394.167H332.002C336.295 394.167 339.722 390.487 339.295 386.113C338.935 382.3 335.522 379.5 331.682 379.5H324.669C323.935 379.5 323.335 380.1 323.335 380.833V391.5H322.002C321.269 391.5 320.669 392.1 320.669 392.833C320.669 393.567 321.269 394.167 322.002 394.167H323.335V396.833H322.002C321.269 396.833 320.669 397.433 320.669 398.167C320.669 398.9 321.269 399.5 322.002 399.5H323.335V402.167C323.335 402.9 323.935 403.5 324.669 403.5ZM332.002 391.5H326.002V382.167H332.002C334.575 382.167 336.669 384.26 336.669 386.833C336.669 389.407 334.575 391.5 332.002 391.5Z" fill="#E9ECFF"/>
<path d="M313.4 433.46V431.88H317.16C317.973 431.88 318.6 431.673 319.04 431.26C319.48 430.847 319.7 430.287 319.7 429.58C319.7 428.913 319.48 428.36 319.04 427.92C318.613 427.48 317.993 427.26 317.18 427.26H313.4V425.62H317.24C318.12 425.62 318.887 425.793 319.54 426.14C320.193 426.473 320.693 426.933 321.04 427.52C321.4 428.107 321.58 428.78 321.58 429.54C321.58 430.327 321.4 431.013 321.04 431.6C320.693 432.187 320.193 432.647 319.54 432.98C318.887 433.3 318.12 433.46 317.24 433.46H313.4ZM312.14 439.5V425.62H314.02V439.5H312.14ZM320.14 439.5L315.1 433.28L316.88 432.66L322.52 439.5H320.14ZM329.625 439.7C328.598 439.7 327.678 439.473 326.865 439.02C326.065 438.553 325.432 437.92 324.965 437.12C324.498 436.307 324.265 435.387 324.265 434.36V425.62H326.145V434.32C326.145 435.053 326.298 435.687 326.605 436.22C326.912 436.753 327.325 437.167 327.845 437.46C328.378 437.753 328.972 437.9 329.625 437.9C330.305 437.9 330.898 437.753 331.405 437.46C331.925 437.167 332.332 436.753 332.625 436.22C332.932 435.687 333.085 435.06 333.085 434.34V425.62H334.985V434.38C334.985 435.407 334.752 436.32 334.285 437.12C333.818 437.92 333.185 438.553 332.385 439.02C331.585 439.473 330.665 439.7 329.625 439.7ZM339.338 439.5V437.86H343.538C344.338 437.86 344.964 437.627 345.418 437.16C345.871 436.68 346.098 436.107 346.098 435.44C346.098 434.987 345.998 434.58 345.798 434.22C345.598 433.847 345.304 433.553 344.918 433.34C344.544 433.127 344.104 433.02 343.598 433.02H339.338V431.38H343.318C343.984 431.38 344.511 431.207 344.898 430.86C345.298 430.5 345.498 429.987 345.498 429.32C345.498 428.653 345.291 428.147 344.878 427.8C344.464 427.44 343.918 427.26 343.238 427.26H339.338V425.62H343.278C344.184 425.62 344.938 425.787 345.538 426.12C346.151 426.44 346.611 426.867 346.918 427.4C347.238 427.933 347.398 428.52 347.398 429.16C347.398 429.907 347.191 430.56 346.778 431.12C346.378 431.68 345.784 432.12 344.998 432.44L345.158 431.84C346.051 432.16 346.744 432.647 347.238 433.3C347.744 433.94 347.998 434.7 347.998 435.58C347.998 436.313 347.818 436.973 347.457 437.56C347.098 438.147 346.578 438.62 345.898 438.98C345.231 439.327 344.411 439.5 343.438 439.5H339.338ZM338.078 439.5V425.62H339.958V439.5H338.078Z" fill="#E9ECFF"/>
</svg>
