<svg width="400" height="400" viewBox="0 0 400 400" fill="none" xmlns="http://www.w3.org/2000/svg">
<g filter="url(#filter0_d_427_1134)">
<rect x="44.7188" y="233.797" width="146.677" height="146.677" rx="19.2863" fill="white" shape-rendering="crispEdges"/>
<rect x="45.3214" y="234.399" width="145.472" height="145.472" rx="18.6836" stroke="#212528" stroke-width="1.20539" shape-rendering="crispEdges"/>
<path d="M122.26 310.253C126.316 310.253 129.868 307.794 130.666 303.948L126.989 302.099C126.463 304.389 125.055 306.05 122.26 306.05H111.963C113.707 303.948 115.115 301.132 115.115 297.644C115.115 296.908 115.052 296.194 114.947 295.542H122.26V291.339H113.476C111.753 288.019 109.651 286.295 109.651 282.933C109.651 278.877 112.951 275.578 117.007 275.578C120.159 275.578 122.87 277.574 123.899 280.369L127.787 278.73C126.106 274.422 121.924 271.375 117.007 271.375C110.618 271.375 105.448 276.544 105.448 282.933C105.448 286.674 107.108 289.027 108.579 291.339H105.448V295.542H110.639C110.807 296.194 110.912 296.887 110.912 297.644C110.912 303.318 105.448 306.05 105.448 306.05V310.253H122.26Z" fill="#F2800D"/>
<path d="M109.014 335.128C108.9 334.758 108.743 334.427 108.542 334.135C108.346 333.838 108.108 333.584 107.83 333.374C107.556 333.164 107.241 333.007 106.884 332.902C106.528 332.792 106.14 332.737 105.72 332.737C104.967 332.737 104.296 332.927 103.707 333.306C103.118 333.685 102.654 334.242 102.316 334.977C101.983 335.708 101.816 336.598 101.816 337.648C101.816 338.707 101.983 339.605 102.316 340.34C102.65 341.075 103.113 341.634 103.707 342.018C104.3 342.397 104.99 342.586 105.775 342.586C106.487 342.586 107.104 342.449 107.624 342.175C108.149 341.901 108.553 341.513 108.836 341.011C109.119 340.504 109.261 339.91 109.261 339.23L109.836 339.319H106.028V337.333H111.72V339.018C111.72 340.219 111.464 341.257 110.953 342.134C110.441 343.011 109.738 343.686 108.843 344.161C107.948 344.632 106.921 344.867 105.761 344.867C104.469 344.867 103.334 344.577 102.357 343.997C101.385 343.412 100.625 342.584 100.077 341.511C99.5334 340.433 99.2617 339.155 99.2617 337.675C99.2617 336.543 99.4215 335.532 99.7411 334.641C100.065 333.751 100.517 332.995 101.097 332.374C101.677 331.749 102.357 331.274 103.138 330.95C103.919 330.621 104.768 330.457 105.686 330.457C106.462 330.457 107.186 330.571 107.857 330.799C108.528 331.023 109.124 331.343 109.645 331.758C110.17 332.174 110.601 332.667 110.939 333.237C111.277 333.808 111.498 334.438 111.603 335.128H109.014ZM114.177 344.675V330.649H119.546C120.56 330.649 121.402 330.808 122.073 331.128C122.749 331.443 123.254 331.874 123.587 332.422C123.925 332.97 124.094 333.591 124.094 334.285C124.094 334.856 123.984 335.345 123.765 335.751C123.546 336.153 123.251 336.479 122.882 336.73C122.512 336.981 122.099 337.162 121.642 337.271V337.408C122.14 337.436 122.617 337.589 123.073 337.867C123.535 338.141 123.911 338.529 124.203 339.031C124.496 339.534 124.642 340.141 124.642 340.853C124.642 341.579 124.466 342.232 124.114 342.812C123.763 343.387 123.233 343.842 122.525 344.175C121.818 344.508 120.927 344.675 119.854 344.675H114.177ZM116.718 342.552H119.45C120.373 342.552 121.037 342.376 121.443 342.024C121.854 341.668 122.06 341.212 122.06 340.655C122.06 340.239 121.957 339.865 121.752 339.531C121.546 339.194 121.254 338.929 120.875 338.737C120.496 338.541 120.044 338.442 119.519 338.442H116.718V342.552ZM116.718 336.614H119.231C119.669 336.614 120.064 336.534 120.416 336.374C120.768 336.21 121.044 335.979 121.245 335.682C121.45 335.381 121.553 335.025 121.553 334.614C121.553 334.071 121.361 333.623 120.978 333.272C120.599 332.92 120.035 332.744 119.286 332.744H116.718V336.614ZM126.852 344.675V330.649H132.112C133.19 330.649 134.094 330.849 134.824 331.251C135.559 331.653 136.114 332.206 136.488 332.909C136.867 333.607 137.057 334.402 137.057 335.292C137.057 336.192 136.867 336.991 136.488 337.689C136.11 338.388 135.55 338.938 134.811 339.34C134.071 339.737 133.16 339.936 132.078 339.936H128.592V337.847H131.735C132.366 337.847 132.881 337.737 133.283 337.518C133.685 337.299 133.982 336.997 134.174 336.614C134.37 336.23 134.468 335.79 134.468 335.292C134.468 334.794 134.37 334.356 134.174 333.977C133.982 333.598 133.683 333.304 133.276 333.094C132.875 332.879 132.356 332.772 131.722 332.772H129.393V344.675H126.852Z" fill="#212528"/>
</g>
<g filter="url(#filter1_d_427_1134)">
<rect x="208.551" y="184.306" width="146.677" height="146.677" rx="19.2863" fill="white" shape-rendering="crispEdges"/>
<rect x="209.154" y="184.908" width="145.472" height="145.472" rx="18.6836" stroke="#212528" stroke-width="1.20539" shape-rendering="crispEdges"/>
<path d="M289.245 254.983C283.97 254.983 279.41 251.998 277.14 247.627H289.245L291.346 243.424H275.753C275.648 242.731 275.585 242.037 275.585 241.323C275.585 240.608 275.648 239.915 275.753 239.221H289.245L291.346 235.018H277.14C279.41 230.647 283.991 227.663 289.245 227.663C292.628 227.663 295.739 228.903 298.134 230.962L301.854 227.243C298.513 224.237 294.078 222.409 289.245 222.409C281.007 222.409 274.03 227.684 271.424 235.018H264.027L261.925 239.221H270.457C270.373 239.915 270.331 240.608 270.331 241.323C270.331 242.037 270.373 242.731 270.457 243.424H264.027L261.925 247.627H271.424C274.03 254.962 281.007 260.236 289.245 260.236C294.099 260.236 298.513 258.408 301.854 255.403L298.113 251.683C295.739 253.743 292.649 254.983 289.245 254.983Z" fill="#FF59EE"/>
<path d="M256.604 295.184V281.158H265.727V283.288H259.145V287.096H265.254V289.226H259.145V293.054H265.782V295.184H256.604ZM277.161 281.158H279.702V290.321C279.702 291.326 279.464 292.209 278.989 292.972C278.519 293.734 277.857 294.33 277.003 294.759C276.15 295.184 275.152 295.396 274.01 295.396C272.864 295.396 271.864 295.184 271.011 294.759C270.157 294.33 269.495 293.734 269.024 292.972C268.554 292.209 268.319 291.326 268.319 290.321V281.158H270.86V290.109C270.86 290.694 270.988 291.214 271.243 291.671C271.504 292.127 271.869 292.486 272.339 292.746C272.81 293.002 273.367 293.129 274.01 293.129C274.654 293.129 275.211 293.002 275.682 292.746C276.156 292.486 276.522 292.127 276.777 291.671C277.033 291.214 277.161 290.694 277.161 290.109V281.158ZM282.464 295.184V281.158H287.723C288.801 281.158 289.705 281.345 290.436 281.719C291.171 282.094 291.725 282.619 292.1 283.295C292.479 283.966 292.668 284.749 292.668 285.644C292.668 286.543 292.477 287.324 292.093 287.986C291.714 288.643 291.155 289.153 290.415 289.513C289.675 289.869 288.767 290.047 287.689 290.047H283.943V287.938H287.347C287.977 287.938 288.493 287.851 288.895 287.678C289.296 287.5 289.593 287.242 289.785 286.904C289.981 286.561 290.079 286.141 290.079 285.644C290.079 285.146 289.981 284.721 289.785 284.37C289.589 284.014 289.29 283.744 288.888 283.562C288.486 283.374 287.968 283.281 287.333 283.281H285.004V295.184H282.464ZM289.71 288.828L293.182 295.184H290.347L286.936 288.828H289.71ZM307.541 288.171C307.541 289.682 307.257 290.977 306.691 292.054C306.13 293.127 305.363 293.949 304.39 294.52C303.422 295.09 302.324 295.376 301.096 295.376C299.868 295.376 298.767 295.09 297.795 294.52C296.827 293.944 296.06 293.12 295.493 292.047C294.932 290.97 294.651 289.678 294.651 288.171C294.651 286.66 294.932 285.367 295.493 284.294C296.06 283.217 296.827 282.393 297.795 281.822C298.767 281.251 299.868 280.966 301.096 280.966C302.324 280.966 303.422 281.251 304.39 281.822C305.363 282.393 306.13 283.217 306.691 284.294C307.257 285.367 307.541 286.66 307.541 288.171ZM304.986 288.171C304.986 287.107 304.819 286.21 304.486 285.479C304.157 284.744 303.701 284.189 303.116 283.815C302.532 283.436 301.858 283.247 301.096 283.247C300.333 283.247 299.66 283.436 299.075 283.815C298.491 284.189 298.032 284.744 297.699 285.479C297.37 286.21 297.206 287.107 297.206 288.171C297.206 289.235 297.37 290.134 297.699 290.869C298.032 291.6 298.491 292.155 299.075 292.534C299.66 292.908 300.333 293.095 301.096 293.095C301.858 293.095 302.532 292.908 303.116 292.534C303.701 292.155 304.157 291.6 304.486 290.869C304.819 290.134 304.986 289.235 304.986 288.171Z" fill="#212528"/>
</g>
<g filter="url(#filter2_d_427_1134)">
<rect x="44.7188" y="69.9648" width="146.677" height="146.677" rx="19.2863" fill="white" shape-rendering="crispEdges"/>
<rect x="45.3214" y="70.5675" width="145.472" height="145.472" rx="18.6836" stroke="#212528" stroke-width="1.20539" shape-rendering="crispEdges"/>
<path d="M118.877 124.67C114.106 123.43 112.572 122.148 112.572 120.152C112.572 117.861 114.695 116.264 118.246 116.264C121.987 116.264 123.374 118.05 123.5 120.677H128.144C127.997 117.063 125.791 113.742 121.398 112.671V108.068H115.094V112.607C111.017 113.49 107.739 116.138 107.739 120.194C107.739 125.048 111.752 127.465 117.616 128.873C122.869 130.134 123.92 131.983 123.92 133.938C123.92 135.388 122.89 137.699 118.246 137.699C113.917 137.699 112.215 135.766 111.984 133.286H107.36C107.613 137.889 111.059 140.473 115.094 141.335V145.895H121.398V141.377C125.496 140.6 128.754 138.225 128.754 133.917C128.754 127.948 123.647 125.91 118.877 124.67Z" fill="#74FE70"/>
<path d="M107.961 166.817H110.501V175.98C110.501 176.985 110.264 177.868 109.789 178.631C109.319 179.393 108.657 179.989 107.803 180.419C106.949 180.843 105.952 181.055 104.81 181.055C103.664 181.055 102.664 180.843 101.81 180.419C100.957 179.989 100.294 179.393 99.8242 178.631C99.3539 177.868 99.1188 176.985 99.1188 175.98V166.817H101.66V175.768C101.66 176.353 101.788 176.873 102.043 177.33C102.303 177.786 102.669 178.145 103.139 178.405C103.609 178.661 104.166 178.788 104.81 178.788C105.454 178.788 106.011 178.661 106.481 178.405C106.956 178.145 107.321 177.786 107.577 177.33C107.833 176.873 107.961 176.353 107.961 175.768V166.817ZM120.886 170.673C120.822 170.075 120.553 169.609 120.078 169.275C119.608 168.942 118.996 168.776 118.242 168.776C117.713 168.776 117.258 168.855 116.879 169.015C116.5 169.175 116.211 169.392 116.01 169.666C115.809 169.94 115.706 170.253 115.701 170.604C115.701 170.896 115.768 171.15 115.9 171.364C116.037 171.579 116.222 171.762 116.455 171.912C116.688 172.058 116.946 172.182 117.229 172.282C117.512 172.383 117.797 172.467 118.085 172.536L119.4 172.864C119.929 172.988 120.439 173.154 120.927 173.364C121.42 173.574 121.861 173.839 122.249 174.159C122.642 174.478 122.952 174.864 123.18 175.316C123.409 175.768 123.523 176.298 123.523 176.905C123.523 177.727 123.313 178.451 122.893 179.076C122.473 179.697 121.865 180.183 121.071 180.535C120.281 180.882 119.324 181.055 118.201 181.055C117.11 181.055 116.163 180.887 115.359 180.549C114.56 180.211 113.934 179.718 113.482 179.069C113.035 178.421 112.793 177.631 112.756 176.7H115.256C115.293 177.188 115.443 177.595 115.708 177.919C115.973 178.243 116.318 178.485 116.742 178.645C117.172 178.804 117.651 178.884 118.181 178.884C118.733 178.884 119.217 178.802 119.633 178.638C120.053 178.469 120.381 178.236 120.619 177.939C120.856 177.638 120.977 177.286 120.982 176.885C120.977 176.519 120.87 176.218 120.66 175.98C120.45 175.738 120.155 175.538 119.777 175.378C119.402 175.213 118.964 175.067 118.462 174.939L116.866 174.529C115.711 174.232 114.797 173.782 114.126 173.179C113.46 172.572 113.126 171.766 113.126 170.762C113.126 169.935 113.35 169.212 113.797 168.591C114.25 167.97 114.864 167.488 115.64 167.145C116.416 166.798 117.295 166.625 118.277 166.625C119.272 166.625 120.144 166.798 120.893 167.145C121.646 167.488 122.238 167.965 122.667 168.577C123.096 169.184 123.317 169.883 123.331 170.673H120.886ZM130.541 180.843H125.788V166.817H130.637C132.03 166.817 133.226 167.098 134.226 167.659C135.23 168.216 136.002 169.018 136.541 170.063C137.079 171.109 137.349 172.36 137.349 173.816C137.349 175.277 137.077 176.533 136.534 177.583C135.995 178.633 135.217 179.439 134.198 180.001C133.185 180.562 131.966 180.843 130.541 180.843ZM128.329 178.645H130.418C131.395 178.645 132.21 178.467 132.863 178.11C133.516 177.75 134.007 177.213 134.335 176.501C134.664 175.784 134.829 174.889 134.829 173.816C134.829 172.743 134.664 171.853 134.335 171.145C134.007 170.433 133.52 169.901 132.877 169.549C132.237 169.193 131.443 169.015 130.493 169.015H128.329V178.645Z" fill="#212528"/>
</g>
<g filter="url(#filter3_d_427_1134)">
<rect x="208.551" y="20.4739" width="146.677" height="146.677" rx="19.2863" fill="white" shape-rendering="crispEdges"/>
<rect x="209.154" y="21.0766" width="145.472" height="145.472" rx="18.6836" stroke="#212528" stroke-width="1.20539" shape-rendering="crispEdges"/>
<path d="M285.378 67.5385C284.201 65.0587 281.68 63.3355 278.738 63.3355H269.281V59.1324H294.499V63.3355H287.648C288.657 64.5543 289.413 65.9834 289.855 67.5385H294.499V71.7415H290.254C289.728 77.6257 284.769 82.249 278.738 82.249H277.203L291.347 96.9596H285.525L271.382 82.249V78.046H278.738C282.436 78.046 285.504 75.314 286.009 71.7415H269.281V67.5385H285.378Z" fill="#0080FF"/>
<path d="M269.748 116.771V130.797H267.208V116.771H269.748ZM284.027 116.771V130.797H281.766L275.157 121.243H275.041V130.797H272.5V116.771H274.774L281.376 126.332H281.499V116.771H284.027ZM286.795 130.797V116.771H292.055C293.133 116.771 294.037 116.958 294.767 117.332C295.502 117.707 296.057 118.232 296.431 118.907C296.81 119.579 297 120.362 297 121.257C297 122.156 296.808 122.937 296.425 123.599C296.046 124.256 295.486 124.765 294.747 125.126C294.007 125.482 293.098 125.66 292.021 125.66H288.275V123.551H291.678C292.308 123.551 292.824 123.464 293.226 123.291C293.628 123.113 293.925 122.855 294.117 122.517C294.313 122.174 294.411 121.754 294.411 121.257C294.411 120.759 294.313 120.334 294.117 119.983C293.92 119.627 293.621 119.357 293.219 119.175C292.818 118.987 292.299 118.894 291.665 118.894H289.336V130.797H286.795ZM294.041 124.441L297.514 130.797H294.678L291.267 124.441H294.041Z" fill="#212528"/>
</g>
<defs>
<filter id="filter0_d_427_1134" x="44.7188" y="233.797" width="151.499" height="151.499" filterUnits="userSpaceOnUse" color-interpolation-filters="sRGB">
<feFlood flood-opacity="0" result="BackgroundImageFix"/>
<feColorMatrix in="SourceAlpha" type="matrix" values="0 0 0 0 0 0 0 0 0 0 0 0 0 0 0 0 0 0 127 0" result="hardAlpha"/>
<feOffset dx="4.82157" dy="4.82157"/>
<feComposite in2="hardAlpha" operator="out"/>
<feColorMatrix type="matrix" values="0 0 0 0 0.979608 0 0 0 0 0.800784 0 0 0 0 0.620392 0 0 0 1 0"/>
<feBlend mode="normal" in2="BackgroundImageFix" result="effect1_dropShadow_427_1134"/>
<feBlend mode="normal" in="SourceGraphic" in2="effect1_dropShadow_427_1134" result="shape"/>
</filter>
<filter id="filter1_d_427_1134" x="208.551" y="184.306" width="151.499" height="151.499" filterUnits="userSpaceOnUse" color-interpolation-filters="sRGB">
<feFlood flood-opacity="0" result="BackgroundImageFix"/>
<feColorMatrix in="SourceAlpha" type="matrix" values="0 0 0 0 0 0 0 0 0 0 0 0 0 0 0 0 0 0 127 0" result="hardAlpha"/>
<feOffset dx="4.82157" dy="4.82157"/>
<feComposite in2="hardAlpha" operator="out"/>
<feColorMatrix type="matrix" values="0 0 0 0 0.933333 0 0 0 0 0.666667 0 0 0 0 0.905882 0 0 0 1 0"/>
<feBlend mode="normal" in2="BackgroundImageFix" result="effect1_dropShadow_427_1134"/>
<feBlend mode="normal" in="SourceGraphic" in2="effect1_dropShadow_427_1134" result="shape"/>
</filter>
<filter id="filter2_d_427_1134" x="44.7188" y="69.9648" width="151.499" height="151.499" filterUnits="userSpaceOnUse" color-interpolation-filters="sRGB">
<feFlood flood-opacity="0" result="BackgroundImageFix"/>
<feColorMatrix in="SourceAlpha" type="matrix" values="0 0 0 0 0 0 0 0 0 0 0 0 0 0 0 0 0 0 127 0" result="hardAlpha"/>
<feOffset dx="4.82157" dy="4.82157"/>
<feComposite in2="hardAlpha" operator="out"/>
<feColorMatrix type="matrix" values="0 0 0 0 0.67451 0 0 0 0 0.933333 0 0 0 0 0.666667 0 0 0 1 0"/>
<feBlend mode="normal" in2="BackgroundImageFix" result="effect1_dropShadow_427_1134"/>
<feBlend mode="normal" in="SourceGraphic" in2="effect1_dropShadow_427_1134" result="shape"/>
</filter>
<filter id="filter3_d_427_1134" x="208.551" y="20.4739" width="151.499" height="151.499" filterUnits="userSpaceOnUse" color-interpolation-filters="sRGB">
<feFlood flood-opacity="0" result="BackgroundImageFix"/>
<feColorMatrix in="SourceAlpha" type="matrix" values="0 0 0 0 0 0 0 0 0 0 0 0 0 0 0 0 0 0 127 0" result="hardAlpha"/>
<feOffset dx="4.82157" dy="4.82157"/>
<feComposite in2="hardAlpha" operator="out"/>
<feColorMatrix type="matrix" values="0 0 0 0 0.666667 0 0 0 0 0.803922 0 0 0 0 0.933333 0 0 0 1 0"/>
<feBlend mode="normal" in2="BackgroundImageFix" result="effect1_dropShadow_427_1134"/>
<feBlend mode="normal" in="SourceGraphic" in2="effect1_dropShadow_427_1134" result="shape"/>
</filter>
</defs>
</svg>
