<svg width="500" height="500" viewBox="0 0 500 500" fill="none" xmlns="http://www.w3.org/2000/svg">
<rect width="500" height="500" rx="8" fill="#E9ECFF"/>
<rect x="20.5" y="77.5" width="459" height="345" rx="7.5" fill="white"/>
<rect x="20.5" y="77.5" width="459" height="345" rx="7.5" stroke="#D5D9DC"/>
<path d="M49.92 110.2C48.9467 110.2 48.0333 110.02 47.18 109.66C46.34 109.287 45.6 108.773 44.96 108.12C44.3333 107.467 43.84 106.707 43.48 105.84C43.12 104.973 42.94 104.04 42.94 103.04C42.94 102.04 43.12 101.113 43.48 100.26C43.84 99.3933 44.34 98.6333 44.98 97.98C45.62 97.3267 46.3667 96.82 47.22 96.46C48.0867 96.1 49.0267 95.92 50.04 95.92C51.1467 95.92 52.1667 96.1333 53.1 96.56C54.0333 96.9867 54.8133 97.6 55.44 98.4L54.14 99.7C53.7 99.06 53.12 98.5733 52.4 98.24C51.68 97.8933 50.8933 97.72 50.04 97.72C49.0267 97.72 48.1267 97.9467 47.34 98.4C46.5667 98.8533 45.96 99.48 45.52 100.28C45.0933 101.08 44.88 102 44.88 103.04C44.88 104.093 45.1 105.02 45.54 105.82C45.98 106.62 46.5733 107.247 47.32 107.7C48.0667 108.153 48.92 108.38 49.88 108.38C50.8533 108.38 51.6933 108.193 52.4 107.82C53.12 107.447 53.6733 106.9 54.06 106.18C54.4467 105.447 54.64 104.553 54.64 103.5L55.78 104.32H49.78V102.6H56.58V102.88C56.58 104.493 56.2933 105.847 55.72 106.94C55.16 108.02 54.3733 108.833 53.36 109.38C52.36 109.927 51.2133 110.2 49.92 110.2ZM58.8088 110V100.5H60.6088V110H58.8088ZM59.7088 98.6C59.3754 98.6 59.1021 98.4933 58.8888 98.28C58.6754 98.0533 58.5688 97.7733 58.5688 97.44C58.5688 97.12 58.6754 96.8533 58.8888 96.64C59.1021 96.4133 59.3754 96.3 59.7088 96.3C60.0421 96.3 60.3154 96.4133 60.5288 96.64C60.7421 96.8533 60.8488 97.12 60.8488 97.44C60.8488 97.7733 60.7421 98.0533 60.5288 98.28C60.3154 98.4933 60.0421 98.6 59.7088 98.6ZM67.2814 110.2C66.4014 110.2 65.6147 109.987 64.9214 109.56C64.2281 109.12 63.6747 108.527 63.2614 107.78C62.8614 107.033 62.6614 106.193 62.6614 105.26C62.6614 104.327 62.8614 103.487 63.2614 102.74C63.6747 101.993 64.2281 101.4 64.9214 100.96C65.6147 100.52 66.4014 100.3 67.2814 100.3C67.9881 100.3 68.6281 100.453 69.2014 100.76C69.7747 101.053 70.2347 101.467 70.5814 102C70.9414 102.52 71.1414 103.127 71.1814 103.82V106.68C71.1414 107.36 70.9481 107.967 70.6014 108.5C70.2547 109.033 69.7947 109.453 69.2214 109.76C68.6481 110.053 68.0014 110.2 67.2814 110.2ZM67.5814 108.5C68.1814 108.5 68.7014 108.36 69.1414 108.08C69.5947 107.8 69.9481 107.42 70.2014 106.94C70.4547 106.447 70.5814 105.887 70.5814 105.26C70.5814 104.607 70.4481 104.04 70.1814 103.56C69.9281 103.08 69.5747 102.7 69.1214 102.42C68.6814 102.14 68.1614 102 67.5614 102C66.9614 102 66.4347 102.14 65.9814 102.42C65.5281 102.7 65.1681 103.087 64.9014 103.58C64.6481 104.06 64.5214 104.613 64.5214 105.24C64.5214 105.88 64.6481 106.447 64.9014 106.94C65.1681 107.42 65.5281 107.8 65.9814 108.08C66.4481 108.36 66.9814 108.5 67.5814 108.5ZM72.2814 110H70.4614V107.44L70.8014 105.12L70.4614 102.82V95.72H72.2814V110ZM78.922 110.2C78.042 110.2 77.2554 109.987 76.562 109.56C75.8687 109.12 75.3154 108.527 74.902 107.78C74.502 107.033 74.302 106.193 74.302 105.26C74.302 104.327 74.502 103.487 74.902 102.74C75.3154 101.993 75.8687 101.4 76.562 100.96C77.2554 100.52 78.042 100.3 78.922 100.3C79.6287 100.3 80.2687 100.453 80.842 100.76C81.4154 101.053 81.8754 101.467 82.222 102C82.582 102.52 82.782 103.127 82.822 103.82V106.68C82.782 107.36 82.5887 107.967 82.242 108.5C81.8954 109.033 81.4354 109.453 80.862 109.76C80.2887 110.053 79.642 110.2 78.922 110.2ZM79.222 108.5C79.822 108.5 80.342 108.36 80.782 108.08C81.2354 107.8 81.5887 107.42 81.842 106.94C82.0954 106.447 82.222 105.887 82.222 105.26C82.222 104.607 82.0887 104.04 81.822 103.56C81.5687 103.08 81.2154 102.7 80.762 102.42C80.322 102.14 79.802 102 79.202 102C78.602 102 78.0754 102.14 77.622 102.42C77.1687 102.7 76.8087 103.087 76.542 103.58C76.2887 104.06 76.162 104.613 76.162 105.24C76.162 105.88 76.2887 106.447 76.542 106.94C76.8087 107.42 77.1687 107.8 77.622 108.08C78.0887 108.36 78.622 108.5 79.222 108.5ZM83.922 110H82.102V107.44L82.442 105.12L82.102 102.82V95.72H83.922V110ZM93.2627 110V104.46C93.2627 103.74 93.036 103.147 92.5827 102.68C92.1293 102.213 91.5427 101.98 90.8227 101.98C90.3427 101.98 89.916 102.087 89.5427 102.3C89.1693 102.513 88.876 102.807 88.6627 103.18C88.4493 103.553 88.3427 103.98 88.3427 104.46L87.6027 104.04C87.6027 103.32 87.7627 102.68 88.0827 102.12C88.4027 101.56 88.8493 101.12 89.4227 100.8C89.996 100.467 90.6427 100.3 91.3627 100.3C92.0827 100.3 92.716 100.46 93.2627 100.78C93.8227 101.1 94.2627 101.547 94.5827 102.12C94.9027 102.693 95.0627 103.353 95.0627 104.1V110H93.2627ZM86.5427 110V95.72H88.3427V110H86.5427ZM97.4997 105.76V104.06H104.08V105.76H97.4997ZM107.038 110V96.12H108.918V110H107.038ZM118.595 110V104.46C118.595 103.74 118.368 103.147 117.915 102.68C117.461 102.213 116.875 101.98 116.155 101.98C115.675 101.98 115.248 102.087 114.875 102.3C114.501 102.513 114.208 102.807 113.995 103.18C113.781 103.553 113.675 103.98 113.675 104.46L112.935 104.04C112.935 103.32 113.095 102.68 113.415 102.12C113.735 101.56 114.181 101.12 114.755 100.8C115.328 100.467 115.975 100.3 116.695 100.3C117.415 100.3 118.048 100.48 118.595 100.84C119.155 101.2 119.595 101.673 119.915 102.26C120.235 102.833 120.395 103.447 120.395 104.1V110H118.595ZM111.875 110V100.5H113.675V110H111.875ZM126.092 110L121.732 100.5H123.732L127.232 108.52H126.072L129.592 100.5H131.512L127.152 110H126.092ZM137.015 110.2C136.082 110.2 135.242 109.98 134.495 109.54C133.749 109.1 133.155 108.507 132.715 107.76C132.275 107 132.055 106.153 132.055 105.22C132.055 104.3 132.275 103.473 132.715 102.74C133.155 101.993 133.749 101.4 134.495 100.96C135.242 100.52 136.082 100.3 137.015 100.3C137.935 100.3 138.769 100.52 139.515 100.96C140.275 101.387 140.875 101.973 141.315 102.72C141.755 103.467 141.975 104.3 141.975 105.22C141.975 106.153 141.755 107 141.315 107.76C140.875 108.507 140.275 109.1 139.515 109.54C138.769 109.98 137.935 110.2 137.015 110.2ZM137.015 108.46C137.615 108.46 138.149 108.32 138.615 108.04C139.082 107.76 139.449 107.38 139.715 106.9C139.982 106.407 140.115 105.847 140.115 105.22C140.115 104.607 139.975 104.06 139.695 103.58C139.429 103.1 139.062 102.727 138.595 102.46C138.142 102.18 137.615 102.04 137.015 102.04C136.415 102.04 135.882 102.18 135.415 102.46C134.949 102.727 134.582 103.1 134.315 103.58C134.049 104.06 133.915 104.607 133.915 105.22C133.915 105.847 134.049 106.407 134.315 106.9C134.582 107.38 134.949 107.76 135.415 108.04C135.882 108.32 136.415 108.46 137.015 108.46ZM144.024 110V100.5H145.824V110H144.024ZM144.924 98.6C144.59 98.6 144.317 98.4933 144.104 98.28C143.89 98.0533 143.784 97.7733 143.784 97.44C143.784 97.12 143.89 96.8533 144.104 96.64C144.317 96.4133 144.59 96.3 144.924 96.3C145.257 96.3 145.53 96.4133 145.744 96.64C145.957 96.8533 146.064 97.12 146.064 97.44C146.064 97.7733 145.957 98.0533 145.744 98.28C145.53 98.4933 145.257 98.6 144.924 98.6ZM152.816 110.2C151.883 110.2 151.036 109.98 150.276 109.54C149.53 109.1 148.936 108.507 148.496 107.76C148.07 107 147.856 106.16 147.856 105.24C147.856 104.307 148.07 103.467 148.496 102.72C148.936 101.973 149.53 101.387 150.276 100.96C151.036 100.52 151.883 100.3 152.816 100.3C153.55 100.3 154.23 100.44 154.856 100.72C155.483 100.987 156.023 101.38 156.476 101.9L155.276 103.1C154.983 102.753 154.623 102.493 154.196 102.32C153.783 102.133 153.323 102.04 152.816 102.04C152.216 102.04 151.683 102.18 151.216 102.46C150.75 102.727 150.383 103.1 150.116 103.58C149.85 104.06 149.716 104.613 149.716 105.24C149.716 105.867 149.85 106.42 150.116 106.9C150.383 107.38 150.75 107.76 151.216 108.04C151.683 108.32 152.216 108.46 152.816 108.46C153.323 108.46 153.783 108.373 154.196 108.2C154.623 108.013 154.99 107.747 155.296 107.4L156.476 108.6C156.036 109.107 155.496 109.5 154.856 109.78C154.23 110.06 153.55 110.2 152.816 110.2ZM158.281 110V100.5H160.081V110H158.281ZM159.181 98.6C158.848 98.6 158.575 98.4933 158.361 98.28C158.148 98.0533 158.041 97.7733 158.041 97.44C158.041 97.12 158.148 96.8533 158.361 96.64C158.575 96.4133 158.848 96.3 159.181 96.3C159.515 96.3 159.788 96.4133 160.001 96.64C160.215 96.8533 160.321 97.12 160.321 97.44C160.321 97.7733 160.215 98.0533 160.001 98.28C159.788 98.4933 159.515 98.6 159.181 98.6ZM169.454 110V104.46C169.454 103.74 169.227 103.147 168.774 102.68C168.321 102.213 167.734 101.98 167.014 101.98C166.534 101.98 166.107 102.087 165.734 102.3C165.361 102.513 165.067 102.807 164.854 103.18C164.641 103.553 164.534 103.98 164.534 104.46L163.794 104.04C163.794 103.32 163.954 102.68 164.274 102.12C164.594 101.56 165.041 101.12 165.614 100.8C166.187 100.467 166.834 100.3 167.554 100.3C168.274 100.3 168.907 100.48 169.454 100.84C170.014 101.2 170.454 101.673 170.774 102.26C171.094 102.833 171.254 103.447 171.254 104.1V110H169.454ZM162.734 110V100.5H164.534V110H162.734ZM177.631 114.18C176.658 114.18 175.791 114 175.031 113.64C174.284 113.28 173.684 112.773 173.231 112.12L174.391 110.94C174.778 111.433 175.238 111.807 175.771 112.06C176.304 112.327 176.938 112.46 177.671 112.46C178.644 112.46 179.411 112.2 179.971 111.68C180.544 111.173 180.831 110.487 180.831 109.62V107.26L181.151 105.12L180.831 103V100.5H182.631V109.62C182.631 110.527 182.418 111.32 181.991 112C181.578 112.68 180.991 113.213 180.231 113.6C179.484 113.987 178.618 114.18 177.631 114.18ZM177.631 109.84C176.764 109.84 175.984 109.633 175.291 109.22C174.611 108.807 174.071 108.24 173.671 107.52C173.271 106.787 173.071 105.967 173.071 105.06C173.071 104.153 173.271 103.347 173.671 102.64C174.071 101.92 174.611 101.353 175.291 100.94C175.984 100.513 176.764 100.3 177.631 100.3C178.378 100.3 179.038 100.447 179.611 100.74C180.184 101.033 180.638 101.447 180.971 101.98C181.318 102.5 181.504 103.113 181.531 103.82V106.34C181.491 107.033 181.298 107.647 180.951 108.18C180.618 108.7 180.164 109.107 179.591 109.4C179.018 109.693 178.364 109.84 177.631 109.84ZM177.991 108.14C178.578 108.14 179.091 108.013 179.531 107.76C179.984 107.507 180.331 107.153 180.571 106.7C180.811 106.233 180.931 105.693 180.931 105.08C180.931 104.467 180.804 103.933 180.551 103.48C180.311 103.013 179.971 102.653 179.531 102.4C179.091 102.133 178.571 102 177.971 102C177.371 102 176.844 102.133 176.391 102.4C175.938 102.653 175.578 103.013 175.311 103.48C175.058 103.933 174.931 104.46 174.931 105.06C174.931 105.66 175.058 106.193 175.311 106.66C175.578 107.127 175.938 107.493 176.391 107.76C176.858 108.013 177.391 108.14 177.991 108.14Z" fill="black"/>
<rect x="318" y="92.5" width="140" height="20" rx="2" fill="#1A237E"/>
<circle cx="345" cy="102.5" r="3" fill="#E9ECFF"/>
<rect x="354" y="99.5" width="80" height="6" rx="3" fill="#E9ECFF"/>
<rect x="42.5" y="152.5" width="94" height="132" rx="3.5" fill="white"/>
<rect x="42.5" y="152.5" width="94" height="132" rx="3.5" stroke="#D5D9DC"/>
<rect x="64.5" y="167" width="50" height="50" rx="25" fill="#E9ECFF"/>
<path d="M90.3333 191.167H88.6666V193.667H86.1666V195.333H88.6666V197.833H90.3333V195.333H92.8333V193.667H90.3333V191.167ZM91.1666 183.667H84.4999C83.5833 183.667 82.8333 184.417 82.8333 185.333V198.667C82.8333 199.583 83.5749 200.333 84.4916 200.333H94.4999C95.4166 200.333 96.1666 199.583 96.1666 198.667V188.667L91.1666 183.667ZM94.4999 198.667H84.4999V185.333H90.3333V189.5H94.4999V198.667Z" fill="#1A237E"/>
<path d="M55.46 237.1C54.9733 237.1 54.5167 237.01 54.09 236.83C53.67 236.643 53.3 236.387 52.98 236.06C52.6667 235.733 52.42 235.353 52.24 234.92C52.06 234.487 51.97 234.02 51.97 233.52C51.97 233.02 52.06 232.557 52.24 232.13C52.42 231.697 52.67 231.317 52.99 230.99C53.31 230.663 53.6833 230.41 54.11 230.23C54.5433 230.05 55.0133 229.96 55.52 229.96C56.0733 229.96 56.5833 230.067 57.05 230.28C57.5167 230.493 57.9067 230.8 58.22 231.2L57.57 231.85C57.35 231.53 57.06 231.287 56.7 231.12C56.34 230.947 55.9467 230.86 55.52 230.86C55.0133 230.86 54.5633 230.973 54.17 231.2C53.7833 231.427 53.48 231.74 53.26 232.14C53.0467 232.54 52.94 233 52.94 233.52C52.94 234.047 53.05 234.51 53.27 234.91C53.49 235.31 53.7867 235.623 54.16 235.85C54.5333 236.077 54.96 236.19 55.44 236.19C55.9267 236.19 56.3467 236.097 56.7 235.91C57.06 235.723 57.3367 235.45 57.53 235.09C57.7233 234.723 57.82 234.277 57.82 233.75L58.39 234.16H55.39V233.3H58.79V233.44C58.79 234.247 58.6467 234.923 58.36 235.47C58.08 236.01 57.6867 236.417 57.18 236.69C56.68 236.963 56.1067 237.1 55.46 237.1ZM62.0944 237.1C61.621 237.1 61.1944 236.993 60.8144 236.78C60.4344 236.56 60.1344 236.263 59.9144 235.89C59.6944 235.517 59.5844 235.093 59.5844 234.62C59.5844 234.153 59.691 233.733 59.9044 233.36C60.1244 232.987 60.4177 232.693 60.7844 232.48C61.1577 232.26 61.5744 232.15 62.0344 232.15C62.4744 232.15 62.861 232.25 63.1944 232.45C63.5344 232.65 63.7977 232.927 63.9844 233.28C64.1777 233.633 64.2744 234.033 64.2744 234.48C64.2744 234.547 64.271 234.62 64.2644 234.7C64.2577 234.773 64.2444 234.86 64.2244 234.96H60.2144V234.21H63.7444L63.4144 234.5C63.4144 234.18 63.3577 233.91 63.2444 233.69C63.131 233.463 62.971 233.29 62.7644 233.17C62.5577 233.043 62.3077 232.98 62.0144 232.98C61.7077 232.98 61.4377 233.047 61.2044 233.18C60.971 233.313 60.791 233.5 60.6644 233.74C60.5377 233.98 60.4744 234.263 60.4744 234.59C60.4744 234.923 60.541 235.217 60.6744 235.47C60.8077 235.717 60.9977 235.91 61.2444 236.05C61.491 236.183 61.7744 236.25 62.0944 236.25C62.361 236.25 62.6044 236.203 62.8244 236.11C63.051 236.017 63.2444 235.877 63.4044 235.69L63.9844 236.28C63.7577 236.547 63.4777 236.75 63.1444 236.89C62.8177 237.03 62.4677 237.1 62.0944 237.1ZM68.6157 237V234.23C68.6157 233.87 68.5024 233.573 68.2757 233.34C68.049 233.107 67.7557 232.99 67.3957 232.99C67.1557 232.99 66.9424 233.043 66.7557 233.15C66.569 233.257 66.4224 233.403 66.3157 233.59C66.209 233.777 66.1557 233.99 66.1557 234.23L65.7857 234.02C65.7857 233.66 65.8657 233.34 66.0257 233.06C66.1857 232.78 66.409 232.56 66.6957 232.4C66.9824 232.233 67.3057 232.15 67.6657 232.15C68.0257 232.15 68.3424 232.24 68.6157 232.42C68.8957 232.6 69.1157 232.837 69.2757 233.13C69.4357 233.417 69.5157 233.723 69.5157 234.05V237H68.6157ZM65.2557 237V232.25H66.1557V237H65.2557ZM72.9342 237.1C72.4609 237.1 72.0342 236.993 71.6542 236.78C71.2742 236.56 70.9742 236.263 70.7542 235.89C70.5342 235.517 70.4242 235.093 70.4242 234.62C70.4242 234.153 70.5309 233.733 70.7442 233.36C70.9642 232.987 71.2576 232.693 71.6242 232.48C71.9976 232.26 72.4142 232.15 72.8742 232.15C73.3142 232.15 73.7009 232.25 74.0342 232.45C74.3742 232.65 74.6376 232.927 74.8242 233.28C75.0176 233.633 75.1142 234.033 75.1142 234.48C75.1142 234.547 75.1109 234.62 75.1042 234.7C75.0976 234.773 75.0842 234.86 75.0642 234.96H71.0542V234.21H74.5842L74.2542 234.5C74.2542 234.18 74.1976 233.91 74.0842 233.69C73.9709 233.463 73.8109 233.29 73.6042 233.17C73.3976 233.043 73.1476 232.98 72.8542 232.98C72.5476 232.98 72.2776 233.047 72.0442 233.18C71.8109 233.313 71.6309 233.5 71.5042 233.74C71.3776 233.98 71.3142 234.263 71.3142 234.59C71.3142 234.923 71.3809 235.217 71.5142 235.47C71.6476 235.717 71.8376 235.91 72.0842 236.05C72.3309 236.183 72.6142 236.25 72.9342 236.25C73.2009 236.25 73.4442 236.203 73.6642 236.11C73.8909 236.017 74.0842 235.877 74.2442 235.69L74.8242 236.28C74.5976 236.547 74.3176 236.75 73.9842 236.89C73.6576 237.03 73.3076 237.1 72.9342 237.1ZM76.0955 237V232.25H76.9955V237H76.0955ZM76.9955 234.29L76.6555 234.14C76.6555 233.533 76.7955 233.05 77.0755 232.69C77.3555 232.33 77.7589 232.15 78.2855 232.15C78.5255 232.15 78.7422 232.193 78.9355 232.28C79.1289 232.36 79.3089 232.497 79.4755 232.69L78.8855 233.3C78.7855 233.193 78.6755 233.117 78.5555 233.07C78.4355 233.023 78.2955 233 78.1355 233C77.8022 233 77.5289 233.107 77.3155 233.32C77.1022 233.533 76.9955 233.857 76.9955 234.29ZM81.973 237.1C81.5396 237.1 81.1463 236.993 80.793 236.78C80.4396 236.56 80.1596 236.263 79.953 235.89C79.753 235.517 79.653 235.097 79.653 234.63C79.653 234.163 79.753 233.743 79.953 233.37C80.1596 232.997 80.4363 232.7 80.783 232.48C81.1363 232.26 81.533 232.15 81.973 232.15C82.333 232.15 82.653 232.227 82.933 232.38C83.2196 232.527 83.4496 232.733 83.623 233C83.7963 233.26 83.893 233.563 83.913 233.91V235.34C83.893 235.68 83.7963 235.983 83.623 236.25C83.4563 236.517 83.2296 236.727 82.943 236.88C82.663 237.027 82.3396 237.1 81.973 237.1ZM82.123 236.25C82.5696 236.25 82.9296 236.1 83.203 235.8C83.4763 235.493 83.613 235.103 83.613 234.63C83.613 234.303 83.5496 234.02 83.423 233.78C83.303 233.533 83.1296 233.343 82.903 233.21C82.6763 233.07 82.413 233 82.113 233C81.813 233 81.5463 233.07 81.313 233.21C81.0863 233.35 80.9063 233.543 80.773 233.79C80.6463 234.03 80.583 234.307 80.583 234.62C80.583 234.94 80.6463 235.223 80.773 235.47C80.9063 235.71 81.0896 235.9 81.323 236.04C81.5563 236.18 81.823 236.25 82.123 236.25ZM83.553 237V235.72L83.723 234.56L83.553 233.41V232.25H84.463V237H83.553ZM86.4838 237V230.26H87.3838V237H86.4838ZM85.3138 233.07V232.25H88.5538V233.07H85.3138ZM91.4889 237.1C91.0156 237.1 90.5889 236.993 90.2089 236.78C89.8289 236.56 89.5289 236.263 89.3089 235.89C89.0889 235.517 88.9789 235.093 88.9789 234.62C88.9789 234.153 89.0856 233.733 89.2989 233.36C89.5189 232.987 89.8122 232.693 90.1789 232.48C90.5522 232.26 90.9689 232.15 91.4289 232.15C91.8689 232.15 92.2556 232.25 92.5889 232.45C92.9289 232.65 93.1922 232.927 93.3789 233.28C93.5722 233.633 93.6689 234.033 93.6689 234.48C93.6689 234.547 93.6656 234.62 93.6589 234.7C93.6522 234.773 93.6389 234.86 93.6189 234.96H89.6089V234.21H93.1389L92.8089 234.5C92.8089 234.18 92.7522 233.91 92.6389 233.69C92.5256 233.463 92.3656 233.29 92.1589 233.17C91.9522 233.043 91.7022 232.98 91.4089 232.98C91.1022 232.98 90.8322 233.047 90.5989 233.18C90.3656 233.313 90.1856 233.5 90.0589 233.74C89.9322 233.98 89.8689 234.263 89.8689 234.59C89.8689 234.923 89.9356 235.217 90.0689 235.47C90.2022 235.717 90.3922 235.91 90.6389 236.05C90.8856 236.183 91.1689 236.25 91.4889 236.25C91.7556 236.25 91.9989 236.203 92.2189 236.11C92.4456 236.017 92.6389 235.877 92.7989 235.69L93.3789 236.28C93.1522 236.547 92.8722 236.75 92.5389 236.89C92.2122 237.03 91.8622 237.1 91.4889 237.1ZM96.8903 237V230.06H97.8303V237H96.8903ZM102.668 237V234.23C102.668 233.87 102.555 233.573 102.328 233.34C102.102 233.107 101.808 232.99 101.448 232.99C101.208 232.99 100.995 233.043 100.808 233.15C100.622 233.257 100.475 233.403 100.368 233.59C100.262 233.777 100.208 233.99 100.208 234.23L99.8384 234.02C99.8384 233.66 99.9184 233.34 100.078 233.06C100.238 232.78 100.462 232.56 100.748 232.4C101.035 232.233 101.358 232.15 101.718 232.15C102.078 232.15 102.395 232.24 102.668 232.42C102.948 232.6 103.168 232.837 103.328 233.13C103.488 233.417 103.568 233.723 103.568 234.05V237H102.668ZM99.3084 237V232.25H100.208V237H99.3084ZM106.417 237L104.237 232.25H105.237L106.987 236.26H106.407L108.167 232.25H109.127L106.947 237H106.417ZM111.879 237.1C111.412 237.1 110.992 236.99 110.619 236.77C110.245 236.55 109.949 236.253 109.729 235.88C109.509 235.5 109.399 235.077 109.399 234.61C109.399 234.15 109.509 233.737 109.729 233.37C109.949 232.997 110.245 232.7 110.619 232.48C110.992 232.26 111.412 232.15 111.879 232.15C112.339 232.15 112.755 232.26 113.129 232.48C113.509 232.693 113.809 232.987 114.029 233.36C114.249 233.733 114.359 234.15 114.359 234.61C114.359 235.077 114.249 235.5 114.029 235.88C113.809 236.253 113.509 236.55 113.129 236.77C112.755 236.99 112.339 237.1 111.879 237.1ZM111.879 236.23C112.179 236.23 112.445 236.16 112.679 236.02C112.912 235.88 113.095 235.69 113.229 235.45C113.362 235.203 113.429 234.923 113.429 234.61C113.429 234.303 113.359 234.03 113.219 233.79C113.085 233.55 112.902 233.363 112.669 233.23C112.442 233.09 112.179 233.02 111.879 233.02C111.579 233.02 111.312 233.09 111.079 233.23C110.845 233.363 110.662 233.55 110.529 233.79C110.395 234.03 110.329 234.303 110.329 234.61C110.329 234.923 110.395 235.203 110.529 235.45C110.662 235.69 110.845 235.88 111.079 236.02C111.312 236.16 111.579 236.23 111.879 236.23ZM115.383 237V232.25H116.283V237H115.383ZM115.833 231.3C115.666 231.3 115.53 231.247 115.423 231.14C115.316 231.027 115.263 230.887 115.263 230.72C115.263 230.56 115.316 230.427 115.423 230.32C115.53 230.207 115.666 230.15 115.833 230.15C116 230.15 116.136 230.207 116.243 230.32C116.35 230.427 116.403 230.56 116.403 230.72C116.403 230.887 116.35 231.027 116.243 231.14C116.136 231.247 116 231.3 115.833 231.3ZM119.779 237.1C119.313 237.1 118.889 236.99 118.509 236.77C118.136 236.55 117.839 236.253 117.619 235.88C117.406 235.5 117.299 235.08 117.299 234.62C117.299 234.153 117.406 233.733 117.619 233.36C117.839 232.987 118.136 232.693 118.509 232.48C118.889 232.26 119.313 232.15 119.779 232.15C120.146 232.15 120.486 232.22 120.799 232.36C121.113 232.493 121.383 232.69 121.609 232.95L121.009 233.55C120.863 233.377 120.683 233.247 120.469 233.16C120.263 233.067 120.033 233.02 119.779 233.02C119.479 233.02 119.213 233.09 118.979 233.23C118.746 233.363 118.563 233.55 118.429 233.79C118.296 234.03 118.229 234.307 118.229 234.62C118.229 234.933 118.296 235.21 118.429 235.45C118.563 235.69 118.746 235.88 118.979 236.02C119.213 236.16 119.479 236.23 119.779 236.23C120.033 236.23 120.263 236.187 120.469 236.1C120.683 236.007 120.866 235.873 121.019 235.7L121.609 236.3C121.389 236.553 121.119 236.75 120.799 236.89C120.486 237.03 120.146 237.1 119.779 237.1ZM124.604 237.1C124.131 237.1 123.704 236.993 123.324 236.78C122.944 236.56 122.644 236.263 122.424 235.89C122.204 235.517 122.094 235.093 122.094 234.62C122.094 234.153 122.201 233.733 122.414 233.36C122.634 232.987 122.927 232.693 123.294 232.48C123.667 232.26 124.084 232.15 124.544 232.15C124.984 232.15 125.371 232.25 125.704 232.45C126.044 232.65 126.307 232.927 126.494 233.28C126.687 233.633 126.784 234.033 126.784 234.48C126.784 234.547 126.781 234.62 126.774 234.7C126.767 234.773 126.754 234.86 126.734 234.96H122.724V234.21H126.254L125.924 234.5C125.924 234.18 125.867 233.91 125.754 233.69C125.641 233.463 125.481 233.29 125.274 233.17C125.067 233.043 124.817 232.98 124.524 232.98C124.217 232.98 123.947 233.047 123.714 233.18C123.481 233.313 123.301 233.5 123.174 233.74C123.047 233.98 122.984 234.263 122.984 234.59C122.984 234.923 123.051 235.217 123.184 235.47C123.317 235.717 123.507 235.91 123.754 236.05C124.001 236.183 124.284 236.25 124.604 236.25C124.871 236.25 125.114 236.203 125.334 236.11C125.561 236.017 125.754 235.877 125.914 235.69L126.494 236.28C126.267 236.547 125.987 236.75 125.654 236.89C125.327 237.03 124.977 237.1 124.604 237.1Z" fill="black"/>
<rect x="47.5" y="244" width="84" height="6" rx="3" fill="#F5F5F5"/>
<rect x="47.5" y="254" width="84" height="6" rx="3" fill="#F5F5F5"/>
<rect x="59.5" y="264" width="60" height="6" rx="3" fill="#F5F5F5"/>
<rect x="149.5" y="152.5" width="94" height="132" rx="3.5" fill="white"/>
<rect x="149.5" y="152.5" width="94" height="132" rx="3.5" stroke="#D5D9DC"/>
<rect x="171.5" y="167" width="50" height="50" rx="25" fill="#E9ECFF"/>
<path d="M196.5 187.417C199.658 187.417 202.475 189.192 203.85 192C202.475 194.808 199.658 196.583 196.5 196.583C193.342 196.583 190.525 194.808 189.15 192C190.525 189.192 193.342 187.417 196.5 187.417ZM196.5 185.75C192.333 185.75 188.775 188.342 187.333 192C188.775 195.658 192.333 198.25 196.5 198.25C200.667 198.25 204.225 195.658 205.667 192C204.225 188.342 200.667 185.75 196.5 185.75ZM196.5 189.917C197.65 189.917 198.583 190.85 198.583 192C198.583 193.15 197.65 194.083 196.5 194.083C195.35 194.083 194.417 193.15 194.417 192C194.417 190.85 195.35 189.917 196.5 189.917ZM196.5 188.25C194.433 188.25 192.75 189.933 192.75 192C192.75 194.067 194.433 195.75 196.5 195.75C198.567 195.75 200.25 194.067 200.25 192C200.25 189.933 198.567 188.25 196.5 188.25Z" fill="#1A237E"/>
<path d="M164.09 237L161.31 230.06H162.33L164.62 235.93H164.25L166.56 230.06H167.57L164.77 237H164.09ZM168.555 237V232.25H169.455V237H168.555ZM169.005 231.3C168.838 231.3 168.701 231.247 168.595 231.14C168.488 231.027 168.435 230.887 168.435 230.72C168.435 230.56 168.488 230.427 168.595 230.32C168.701 230.207 168.838 230.15 169.005 230.15C169.171 230.15 169.308 230.207 169.415 230.32C169.521 230.427 169.575 230.56 169.575 230.72C169.575 230.887 169.521 231.027 169.415 231.14C169.308 231.247 169.171 231.3 169.005 231.3ZM172.981 237.1C172.508 237.1 172.081 236.993 171.701 236.78C171.321 236.56 171.021 236.263 170.801 235.89C170.581 235.517 170.471 235.093 170.471 234.62C170.471 234.153 170.578 233.733 170.791 233.36C171.011 232.987 171.304 232.693 171.671 232.48C172.044 232.26 172.461 232.15 172.921 232.15C173.361 232.15 173.748 232.25 174.081 232.45C174.421 232.65 174.684 232.927 174.871 233.28C175.064 233.633 175.161 234.033 175.161 234.48C175.161 234.547 175.158 234.62 175.151 234.7C175.144 234.773 175.131 234.86 175.111 234.96H171.101V234.21H174.631L174.301 234.5C174.301 234.18 174.244 233.91 174.131 233.69C174.018 233.463 173.858 233.29 173.651 233.17C173.444 233.043 173.194 232.98 172.901 232.98C172.594 232.98 172.324 233.047 172.091 233.18C171.858 233.313 171.678 233.5 171.551 233.74C171.424 233.98 171.361 234.263 171.361 234.59C171.361 234.923 171.428 235.217 171.561 235.47C171.694 235.717 171.884 235.91 172.131 236.05C172.378 236.183 172.661 236.25 172.981 236.25C173.248 236.25 173.491 236.203 173.711 236.11C173.938 236.017 174.131 235.877 174.291 235.69L174.871 236.28C174.644 236.547 174.364 236.75 174.031 236.89C173.704 237.03 173.354 237.1 172.981 237.1ZM177.444 237L175.564 232.25H176.504L177.864 235.95H177.564L178.914 232.25H179.434L180.784 235.95H180.484L181.844 232.25H182.784L180.914 237H180.384L179.014 233.41H179.344L177.964 237H177.444ZM183.584 234.88V234.03H186.874V234.88H183.584ZM187.443 237L190.283 230.06H190.963L193.793 237H192.773L190.443 231.13H190.793L188.443 237H187.443ZM188.793 235.43V234.61H192.443V235.43H188.793ZM194.756 237V229.86H195.656V237H194.756ZM196.972 237V229.86H197.873V237H196.972ZM201.429 237V230.06H202.369V237H201.429ZM207.208 237V234.23C207.208 233.87 207.094 233.573 206.868 233.34C206.641 233.107 206.348 232.99 205.988 232.99C205.748 232.99 205.534 233.043 205.348 233.15C205.161 233.257 205.014 233.403 204.908 233.59C204.801 233.777 204.748 233.99 204.748 234.23L204.378 234.02C204.378 233.66 204.458 233.34 204.618 233.06C204.778 232.78 205.001 232.56 205.288 232.4C205.574 232.233 205.898 232.15 206.258 232.15C206.618 232.15 206.934 232.24 207.208 232.42C207.488 232.6 207.708 232.837 207.868 233.13C208.028 233.417 208.108 233.723 208.108 234.05V237H207.208ZM203.847 237V232.25H204.748V237H203.847ZM210.956 237L208.776 232.25H209.776L211.526 236.26H210.946L212.706 232.25H213.666L211.486 237H210.956ZM216.418 237.1C215.951 237.1 215.531 236.99 215.158 236.77C214.785 236.55 214.488 236.253 214.268 235.88C214.048 235.5 213.938 235.077 213.938 234.61C213.938 234.15 214.048 233.737 214.268 233.37C214.488 232.997 214.785 232.7 215.158 232.48C215.531 232.26 215.951 232.15 216.418 232.15C216.878 232.15 217.295 232.26 217.668 232.48C218.048 232.693 218.348 232.987 218.568 233.36C218.788 233.733 218.898 234.15 218.898 234.61C218.898 235.077 218.788 235.5 218.568 235.88C218.348 236.253 218.048 236.55 217.668 236.77C217.295 236.99 216.878 237.1 216.418 237.1ZM216.418 236.23C216.718 236.23 216.985 236.16 217.218 236.02C217.451 235.88 217.635 235.69 217.768 235.45C217.901 235.203 217.968 234.923 217.968 234.61C217.968 234.303 217.898 234.03 217.758 233.79C217.625 233.55 217.441 233.363 217.208 233.23C216.981 233.09 216.718 233.02 216.418 233.02C216.118 233.02 215.851 233.09 215.618 233.23C215.385 233.363 215.201 233.55 215.068 233.79C214.935 234.03 214.868 234.303 214.868 234.61C214.868 234.923 214.935 235.203 215.068 235.45C215.201 235.69 215.385 235.88 215.618 236.02C215.851 236.16 216.118 236.23 216.418 236.23ZM219.922 237V232.25H220.822V237H219.922ZM220.372 231.3C220.205 231.3 220.069 231.247 219.962 231.14C219.855 231.027 219.802 230.887 219.802 230.72C219.802 230.56 219.855 230.427 219.962 230.32C220.069 230.207 220.205 230.15 220.372 230.15C220.539 230.15 220.675 230.207 220.782 230.32C220.889 230.427 220.942 230.56 220.942 230.72C220.942 230.887 220.889 231.027 220.782 231.14C220.675 231.247 220.539 231.3 220.372 231.3ZM224.318 237.1C223.852 237.1 223.428 236.99 223.048 236.77C222.675 236.55 222.378 236.253 222.158 235.88C221.945 235.5 221.838 235.08 221.838 234.62C221.838 234.153 221.945 233.733 222.158 233.36C222.378 232.987 222.675 232.693 223.048 232.48C223.428 232.26 223.852 232.15 224.318 232.15C224.685 232.15 225.025 232.22 225.338 232.36C225.652 232.493 225.922 232.69 226.148 232.95L225.548 233.55C225.402 233.377 225.222 233.247 225.008 233.16C224.802 233.067 224.572 233.02 224.318 233.02C224.018 233.02 223.752 233.09 223.518 233.23C223.285 233.363 223.102 233.55 222.968 233.79C222.835 234.03 222.768 234.307 222.768 234.62C222.768 234.933 222.835 235.21 222.968 235.45C223.102 235.69 223.285 235.88 223.518 236.02C223.752 236.16 224.018 236.23 224.318 236.23C224.572 236.23 224.802 236.187 225.008 236.1C225.222 236.007 225.405 235.873 225.558 235.7L226.148 236.3C225.928 236.553 225.658 236.75 225.338 236.89C225.025 237.03 224.685 237.1 224.318 237.1ZM229.143 237.1C228.67 237.1 228.243 236.993 227.863 236.78C227.483 236.56 227.183 236.263 226.963 235.89C226.743 235.517 226.633 235.093 226.633 234.62C226.633 234.153 226.74 233.733 226.953 233.36C227.173 232.987 227.467 232.693 227.833 232.48C228.207 232.26 228.623 232.15 229.083 232.15C229.523 232.15 229.91 232.25 230.243 232.45C230.583 232.65 230.847 232.927 231.033 233.28C231.227 233.633 231.323 234.033 231.323 234.48C231.323 234.547 231.32 234.62 231.313 234.7C231.307 234.773 231.293 234.86 231.273 234.96H227.263V234.21H230.793L230.463 234.5C230.463 234.18 230.407 233.91 230.293 233.69C230.18 233.463 230.02 233.29 229.813 233.17C229.607 233.043 229.357 232.98 229.063 232.98C228.757 232.98 228.487 233.047 228.253 233.18C228.02 233.313 227.84 233.5 227.713 233.74C227.587 233.98 227.523 234.263 227.523 234.59C227.523 234.923 227.59 235.217 227.723 235.47C227.857 235.717 228.047 235.91 228.293 236.05C228.54 236.183 228.823 236.25 229.143 236.25C229.41 236.25 229.653 236.203 229.873 236.11C230.1 236.017 230.293 235.877 230.453 235.69L231.033 236.28C230.807 236.547 230.527 236.75 230.193 236.89C229.867 237.03 229.517 237.1 229.143 237.1Z" fill="black"/>
<rect x="154.5" y="244" width="84" height="6" rx="3" fill="#F5F5F5"/>
<rect x="154.5" y="254" width="84" height="6" rx="3" fill="#F5F5F5"/>
<rect x="166.5" y="264" width="60" height="6" rx="3" fill="#F5F5F5"/>
<rect x="256.5" y="152.5" width="94" height="132" rx="3.5" fill="white"/>
<rect x="256.5" y="152.5" width="94" height="132" rx="3.5" stroke="#D5D9DC"/>
<rect x="278.5" y="167" width="50" height="50" rx="25" fill="#E9ECFF"/>
<path d="M311.417 186.583V188.25H308.917V190.75H307.25V188.25H304.75V186.583H307.25V184.083H308.917V186.583H311.417ZM308.917 198.25H297.25V186.583H302.25V184.917H297.25C296.333 184.917 295.583 185.667 295.583 186.583V198.25C295.583 199.167 296.333 199.917 297.25 199.917H308.917C309.833 199.917 310.583 199.167 310.583 198.25V193.25H308.917V198.25ZM305.583 193.25V196.583H307.25V193.25H305.583ZM302.25 196.583H303.917V189.917H302.25V196.583ZM300.583 196.583V191.583H298.917V196.583H300.583Z" fill="#1A237E"/>
<path d="M271.82 237V230.06H272.76V237H271.82ZM274.238 237V232.25H275.138V237H274.238ZM277.448 237V234.13C277.448 233.777 277.338 233.5 277.118 233.3C276.905 233.093 276.635 232.99 276.308 232.99C276.088 232.99 275.891 233.037 275.718 233.13C275.545 233.223 275.405 233.353 275.298 233.52C275.191 233.687 275.138 233.887 275.138 234.12L274.768 233.94C274.768 233.58 274.845 233.267 274.998 233C275.158 232.733 275.375 232.527 275.648 232.38C275.921 232.227 276.228 232.15 276.568 232.15C276.901 232.15 277.201 232.223 277.468 232.37C277.741 232.517 277.955 232.723 278.108 232.99C278.268 233.257 278.348 233.573 278.348 233.94V237H277.448ZM280.658 237V234.13C280.658 233.777 280.548 233.5 280.328 233.3C280.115 233.093 279.848 232.99 279.528 232.99C279.308 232.99 279.108 233.037 278.928 233.13C278.755 233.223 278.615 233.353 278.508 233.52C278.401 233.687 278.348 233.887 278.348 234.12L277.838 233.94C277.858 233.573 277.955 233.26 278.128 233C278.308 232.733 278.538 232.527 278.818 232.38C279.098 232.227 279.405 232.15 279.738 232.15C280.085 232.15 280.395 232.223 280.668 232.37C280.941 232.517 281.158 232.723 281.318 232.99C281.485 233.257 281.568 233.577 281.568 233.95V237H280.658ZM285.293 237.1C284.933 237.1 284.606 237.027 284.313 236.88C284.026 236.727 283.796 236.517 283.623 236.25C283.449 235.983 283.353 235.68 283.333 235.34V233.91C283.353 233.563 283.449 233.26 283.623 233C283.803 232.733 284.036 232.527 284.323 232.38C284.616 232.227 284.939 232.15 285.293 232.15C285.726 232.15 286.116 232.26 286.463 232.48C286.816 232.7 287.093 232.997 287.293 233.37C287.493 233.743 287.593 234.163 287.593 234.63C287.593 235.097 287.493 235.517 287.293 235.89C287.093 236.263 286.816 236.56 286.463 236.78C286.116 236.993 285.726 237.1 285.293 237.1ZM282.793 238.99V232.25H283.693V233.5L283.523 234.65L283.693 235.81V238.99H282.793ZM285.143 236.25C285.443 236.25 285.706 236.18 285.933 236.04C286.159 235.9 286.339 235.71 286.473 235.47C286.606 235.223 286.673 234.94 286.673 234.62C286.673 234.307 286.606 234.027 286.473 233.78C286.339 233.533 286.159 233.343 285.933 233.21C285.706 233.07 285.446 233 285.153 233C284.853 233 284.589 233.07 284.363 233.21C284.136 233.343 283.959 233.533 283.833 233.78C283.706 234.027 283.643 234.31 283.643 234.63C283.643 234.943 283.703 235.223 283.823 235.47C283.949 235.71 284.126 235.9 284.353 236.04C284.586 236.18 284.849 236.25 285.143 236.25ZM290.783 237.1C290.316 237.1 289.896 236.99 289.523 236.77C289.15 236.55 288.853 236.253 288.633 235.88C288.413 235.5 288.303 235.077 288.303 234.61C288.303 234.15 288.413 233.737 288.633 233.37C288.853 232.997 289.15 232.7 289.523 232.48C289.896 232.26 290.316 232.15 290.783 232.15C291.243 232.15 291.66 232.26 292.033 232.48C292.413 232.693 292.713 232.987 292.933 233.36C293.153 233.733 293.263 234.15 293.263 234.61C293.263 235.077 293.153 235.5 292.933 235.88C292.713 236.253 292.413 236.55 292.033 236.77C291.66 236.99 291.243 237.1 290.783 237.1ZM290.783 236.23C291.083 236.23 291.35 236.16 291.583 236.02C291.816 235.88 292 235.69 292.133 235.45C292.266 235.203 292.333 234.923 292.333 234.61C292.333 234.303 292.263 234.03 292.123 233.79C291.99 233.55 291.806 233.363 291.573 233.23C291.346 233.09 291.083 233.02 290.783 233.02C290.483 233.02 290.216 233.09 289.983 233.23C289.75 233.363 289.566 233.55 289.433 233.79C289.3 234.03 289.233 234.303 289.233 234.61C289.233 234.923 289.3 235.203 289.433 235.45C289.566 235.69 289.75 235.88 289.983 236.02C290.216 236.16 290.483 236.23 290.783 236.23ZM294.277 237V232.25H295.177V237H294.277ZM295.177 234.29L294.837 234.14C294.837 233.533 294.977 233.05 295.257 232.69C295.537 232.33 295.941 232.15 296.467 232.15C296.707 232.15 296.924 232.193 297.117 232.28C297.311 232.36 297.491 232.497 297.657 232.69L297.067 233.3C296.967 233.193 296.857 233.117 296.737 233.07C296.617 233.023 296.477 233 296.317 233C295.984 233 295.711 233.107 295.497 233.32C295.284 233.533 295.177 233.857 295.177 234.29ZM299.001 237V230.26H299.901V237H299.001ZM297.831 233.07V232.25H301.071V233.07H297.831ZM304.193 237V230.06H305.133V237H304.193ZM308.673 237V230.06H309.613V237H308.673ZM304.833 233.84V232.98H308.903V233.84H304.833ZM311.104 237V232.25H312.004V237H311.104ZM311.554 231.3C311.387 231.3 311.25 231.247 311.144 231.14C311.037 231.027 310.984 230.887 310.984 230.72C310.984 230.56 311.037 230.427 311.144 230.32C311.25 230.207 311.387 230.15 311.554 230.15C311.72 230.15 311.857 230.207 311.964 230.32C312.07 230.427 312.124 230.56 312.124 230.72C312.124 230.887 312.07 231.027 311.964 231.14C311.857 231.247 311.72 231.3 311.554 231.3ZM314.84 237.1C314.573 237.1 314.32 237.067 314.08 237C313.847 236.927 313.63 236.827 313.43 236.7C313.23 236.567 313.057 236.41 312.91 236.23L313.49 235.65C313.663 235.863 313.863 236.023 314.09 236.13C314.317 236.23 314.57 236.28 314.85 236.28C315.13 236.28 315.347 236.233 315.5 236.14C315.653 236.04 315.73 235.903 315.73 235.73C315.73 235.557 315.667 235.423 315.54 235.33C315.42 235.23 315.263 235.15 315.07 235.09C314.877 235.023 314.67 234.96 314.45 234.9C314.237 234.833 314.033 234.75 313.84 234.65C313.647 234.55 313.487 234.413 313.36 234.24C313.24 234.067 313.18 233.837 313.18 233.55C313.18 233.263 313.25 233.017 313.39 232.81C313.53 232.597 313.723 232.433 313.97 232.32C314.223 232.207 314.527 232.15 314.88 232.15C315.253 232.15 315.583 232.217 315.87 232.35C316.163 232.477 316.403 232.67 316.59 232.93L316.01 233.51C315.877 233.337 315.71 233.203 315.51 233.11C315.317 233.017 315.097 232.97 314.85 232.97C314.59 232.97 314.39 233.017 314.25 233.11C314.117 233.197 314.05 233.32 314.05 233.48C314.05 233.64 314.11 233.763 314.23 233.85C314.35 233.937 314.507 234.01 314.7 234.07C314.9 234.13 315.107 234.193 315.32 234.26C315.533 234.32 315.737 234.403 315.93 234.51C316.123 234.617 316.28 234.76 316.4 234.94C316.527 235.12 316.59 235.357 316.59 235.65C316.59 236.097 316.43 236.45 316.11 236.71C315.797 236.97 315.373 237.1 314.84 237.1ZM318.328 237V230.26H319.228V237H318.328ZM317.158 233.07V232.25H320.398V233.07H317.158ZM323.303 237.1C322.836 237.1 322.416 236.99 322.043 236.77C321.669 236.55 321.373 236.253 321.153 235.88C320.933 235.5 320.823 235.077 320.823 234.61C320.823 234.15 320.933 233.737 321.153 233.37C321.373 232.997 321.669 232.7 322.043 232.48C322.416 232.26 322.836 232.15 323.303 232.15C323.763 232.15 324.179 232.26 324.553 232.48C324.933 232.693 325.233 232.987 325.453 233.36C325.673 233.733 325.783 234.15 325.783 234.61C325.783 235.077 325.673 235.5 325.453 235.88C325.233 236.253 324.933 236.55 324.553 236.77C324.179 236.99 323.763 237.1 323.303 237.1ZM323.303 236.23C323.603 236.23 323.869 236.16 324.103 236.02C324.336 235.88 324.519 235.69 324.653 235.45C324.786 235.203 324.853 234.923 324.853 234.61C324.853 234.303 324.783 234.03 324.643 233.79C324.509 233.55 324.326 233.363 324.093 233.23C323.866 233.09 323.603 233.02 323.303 233.02C323.003 233.02 322.736 233.09 322.503 233.23C322.269 233.363 322.086 233.55 321.953 233.79C321.819 234.03 321.753 234.303 321.753 234.61C321.753 234.923 321.819 235.203 321.953 235.45C322.086 235.69 322.269 235.88 322.503 236.02C322.736 236.16 323.003 236.23 323.303 236.23ZM326.797 237V232.25H327.697V237H326.797ZM327.697 234.29L327.357 234.14C327.357 233.533 327.497 233.05 327.777 232.69C328.057 232.33 328.46 232.15 328.987 232.15C329.227 232.15 329.443 232.193 329.637 232.28C329.83 232.36 330.01 232.497 330.177 232.69L329.587 233.3C329.487 233.193 329.377 233.117 329.257 233.07C329.137 233.023 328.997 233 328.837 233C328.503 233 328.23 233.107 328.017 233.32C327.803 233.533 327.697 233.857 327.697 234.29ZM332.283 237.04L330.223 232.25H331.223L332.753 236H332.433L334.043 232.25H335.043L332.823 237.04H332.283ZM330.923 238.99L332.323 236.12L332.823 237.04L331.923 238.99H330.923Z" fill="black"/>
<rect x="261.5" y="244" width="84" height="6" rx="3" fill="#F5F5F5"/>
<rect x="261.5" y="254" width="84" height="6" rx="3" fill="#F5F5F5"/>
<rect x="273.5" y="264" width="60" height="6" rx="3" fill="#F5F5F5"/>
<rect x="363.5" y="152.5" width="94" height="132" rx="3.5" fill="white"/>
<rect x="363.5" y="152.5" width="94" height="132" rx="3.5" stroke="#D5D9DC"/>
<rect x="385.5" y="167" width="50" height="50" rx="25" fill="#E9ECFF"/>
<path d="M410.433 189.917H412.1V187.417H414.6V185.75H412.1V183.25H410.433V185.75H407.933V187.417H410.433V189.917ZM407.1 197.417C406.183 197.417 405.442 198.167 405.442 199.083C405.442 200 406.183 200.75 407.1 200.75C408.017 200.75 408.767 200 408.767 199.083C408.767 198.167 408.017 197.417 407.1 197.417ZM415.433 197.417C414.517 197.417 413.775 198.167 413.775 199.083C413.775 200 414.517 200.75 415.433 200.75C416.35 200.75 417.1 200 417.1 199.083C417.1 198.167 416.35 197.417 415.433 197.417ZM408.017 193.25H414.225C414.85 193.25 415.4 192.908 415.683 192.392L418.9 186.55L417.45 185.75L414.225 191.583H408.375L404.825 184.083H402.1V185.75H403.767L406.767 192.075L405.642 194.108C405.033 195.225 405.833 196.583 407.1 196.583H417.1V194.917H407.1L408.017 193.25Z" fill="#1A237E"/>
<path d="M374.45 234.3V233.48H376.34C376.6 233.48 376.83 233.427 377.03 233.32C377.237 233.213 377.397 233.063 377.51 232.87C377.63 232.677 377.69 232.447 377.69 232.18C377.69 231.913 377.63 231.683 377.51 231.49C377.397 231.297 377.237 231.147 377.03 231.04C376.83 230.933 376.6 230.88 376.34 230.88H374.45V230.06H376.4C376.827 230.06 377.207 230.147 377.54 230.32C377.88 230.493 378.147 230.74 378.34 231.06C378.54 231.373 378.64 231.747 378.64 232.18C378.64 232.607 378.54 232.98 378.34 233.3C378.147 233.613 377.88 233.86 377.54 234.04C377.207 234.213 376.827 234.3 376.4 234.3H374.45ZM373.82 237V230.06H374.76V237H373.82ZM381.634 237.1C381.248 237.1 380.898 237.013 380.584 236.84C380.278 236.66 380.038 236.413 379.864 236.1C379.691 235.787 379.604 235.423 379.604 235.01V232.25H380.504V234.97C380.504 235.23 380.548 235.457 380.634 235.65C380.728 235.837 380.861 235.98 381.034 236.08C381.208 236.18 381.411 236.23 381.644 236.23C381.998 236.23 382.274 236.12 382.474 235.9C382.674 235.673 382.774 235.363 382.774 234.97V232.25H383.674V235.01C383.674 235.423 383.588 235.787 383.414 236.1C383.241 236.413 383.001 236.66 382.694 236.84C382.394 237.013 382.041 237.1 381.634 237.1ZM384.881 237V232.25H385.781V237H384.881ZM385.781 234.29L385.441 234.14C385.441 233.533 385.581 233.05 385.861 232.69C386.141 232.33 386.544 232.15 387.071 232.15C387.311 232.15 387.527 232.193 387.721 232.28C387.914 232.36 388.094 232.497 388.261 232.69L387.671 233.3C387.571 233.193 387.461 233.117 387.341 233.07C387.221 233.023 387.081 233 386.921 233C386.587 233 386.314 233.107 386.101 233.32C385.887 233.533 385.781 233.857 385.781 234.29ZM390.908 237.1C390.441 237.1 390.018 236.99 389.638 236.77C389.265 236.55 388.968 236.253 388.748 235.88C388.535 235.5 388.428 235.08 388.428 234.62C388.428 234.153 388.535 233.733 388.748 233.36C388.968 232.987 389.265 232.693 389.638 232.48C390.018 232.26 390.441 232.15 390.908 232.15C391.275 232.15 391.615 232.22 391.928 232.36C392.241 232.493 392.511 232.69 392.738 232.95L392.138 233.55C391.991 233.377 391.811 233.247 391.598 233.16C391.391 233.067 391.161 233.02 390.908 233.02C390.608 233.02 390.341 233.09 390.108 233.23C389.875 233.363 389.691 233.55 389.558 233.79C389.425 234.03 389.358 234.307 389.358 234.62C389.358 234.933 389.425 235.21 389.558 235.45C389.691 235.69 389.875 235.88 390.108 236.02C390.341 236.16 390.608 236.23 390.908 236.23C391.161 236.23 391.391 236.187 391.598 236.1C391.811 236.007 391.995 235.873 392.148 235.7L392.738 236.3C392.518 236.553 392.248 236.75 391.928 236.89C391.615 237.03 391.275 237.1 390.908 237.1ZM396.991 237V234.23C396.991 233.87 396.877 233.573 396.651 233.34C396.424 233.107 396.131 232.99 395.771 232.99C395.531 232.99 395.317 233.043 395.131 233.15C394.944 233.257 394.797 233.403 394.691 233.59C394.584 233.777 394.531 233.99 394.531 234.23L394.161 234.02C394.161 233.66 394.241 233.34 394.401 233.06C394.561 232.78 394.784 232.56 395.071 232.4C395.357 232.233 395.681 232.15 396.041 232.15C396.401 232.15 396.717 232.23 396.991 232.39C397.271 232.55 397.491 232.773 397.651 233.06C397.811 233.347 397.891 233.677 397.891 234.05V237H396.991ZM393.631 237V229.86H394.531V237H393.631ZM401.129 237.1C400.696 237.1 400.303 236.993 399.949 236.78C399.596 236.56 399.316 236.263 399.109 235.89C398.909 235.517 398.809 235.097 398.809 234.63C398.809 234.163 398.909 233.743 399.109 233.37C399.316 232.997 399.593 232.7 399.939 232.48C400.293 232.26 400.689 232.15 401.129 232.15C401.489 232.15 401.809 232.227 402.089 232.38C402.376 232.527 402.606 232.733 402.779 233C402.953 233.26 403.049 233.563 403.069 233.91V235.34C403.049 235.68 402.953 235.983 402.779 236.25C402.613 236.517 402.386 236.727 402.099 236.88C401.819 237.027 401.496 237.1 401.129 237.1ZM401.279 236.25C401.726 236.25 402.086 236.1 402.359 235.8C402.633 235.493 402.769 235.103 402.769 234.63C402.769 234.303 402.706 234.02 402.579 233.78C402.459 233.533 402.286 233.343 402.059 233.21C401.833 233.07 401.569 233 401.269 233C400.969 233 400.703 233.07 400.469 233.21C400.243 233.35 400.063 233.543 399.929 233.79C399.803 234.03 399.739 234.307 399.739 234.62C399.739 234.94 399.803 235.223 399.929 235.47C400.063 235.71 400.246 235.9 400.479 236.04C400.713 236.18 400.979 236.25 401.279 236.25ZM402.709 237V235.72L402.879 234.56L402.709 233.41V232.25H403.619V237H402.709ZM406.44 237.1C406.173 237.1 405.92 237.067 405.68 237C405.446 236.927 405.23 236.827 405.03 236.7C404.83 236.567 404.656 236.41 404.51 236.23L405.09 235.65C405.263 235.863 405.463 236.023 405.69 236.13C405.916 236.23 406.17 236.28 406.45 236.28C406.73 236.28 406.946 236.233 407.1 236.14C407.253 236.04 407.33 235.903 407.33 235.73C407.33 235.557 407.266 235.423 407.14 235.33C407.02 235.23 406.863 235.15 406.67 235.09C406.476 235.023 406.27 234.96 406.05 234.9C405.836 234.833 405.633 234.75 405.44 234.65C405.246 234.55 405.086 234.413 404.96 234.24C404.84 234.067 404.78 233.837 404.78 233.55C404.78 233.263 404.85 233.017 404.99 232.81C405.13 232.597 405.323 232.433 405.57 232.32C405.823 232.207 406.126 232.15 406.48 232.15C406.853 232.15 407.183 232.217 407.47 232.35C407.763 232.477 408.003 232.67 408.19 232.93L407.61 233.51C407.476 233.337 407.31 233.203 407.11 233.11C406.916 233.017 406.696 232.97 406.45 232.97C406.19 232.97 405.99 233.017 405.85 233.11C405.716 233.197 405.65 233.32 405.65 233.48C405.65 233.64 405.71 233.763 405.83 233.85C405.95 233.937 406.106 234.01 406.3 234.07C406.5 234.13 406.706 234.193 406.92 234.26C407.133 234.32 407.336 234.403 407.53 234.51C407.723 234.617 407.88 234.76 408 234.94C408.126 235.12 408.19 235.357 408.19 235.65C408.19 236.097 408.03 236.45 407.71 236.71C407.396 236.97 406.973 237.1 406.44 237.1ZM411.397 237.1C410.924 237.1 410.497 236.993 410.117 236.78C409.737 236.56 409.437 236.263 409.217 235.89C408.997 235.517 408.887 235.093 408.887 234.62C408.887 234.153 408.994 233.733 409.207 233.36C409.427 232.987 409.72 232.693 410.087 232.48C410.46 232.26 410.877 232.15 411.337 232.15C411.777 232.15 412.164 232.25 412.497 232.45C412.837 232.65 413.1 232.927 413.287 233.28C413.48 233.633 413.577 234.033 413.577 234.48C413.577 234.547 413.574 234.62 413.567 234.7C413.56 234.773 413.547 234.86 413.527 234.96H409.517V234.21H413.047L412.717 234.5C412.717 234.18 412.66 233.91 412.547 233.69C412.434 233.463 412.274 233.29 412.067 233.17C411.86 233.043 411.61 232.98 411.317 232.98C411.01 232.98 410.74 233.047 410.507 233.18C410.274 233.313 410.094 233.5 409.967 233.74C409.84 233.98 409.777 234.263 409.777 234.59C409.777 234.923 409.844 235.217 409.977 235.47C410.11 235.717 410.3 235.91 410.547 236.05C410.794 236.183 411.077 236.25 411.397 236.25C411.664 236.25 411.907 236.203 412.127 236.11C412.354 236.017 412.547 235.877 412.707 235.69L413.287 236.28C413.06 236.547 412.78 236.75 412.447 236.89C412.12 237.03 411.77 237.1 411.397 237.1ZM416.799 237V230.06H417.739V237H416.799ZM422.577 237V234.23C422.577 233.87 422.463 233.573 422.237 233.34C422.01 233.107 421.717 232.99 421.357 232.99C421.117 232.99 420.903 233.043 420.717 233.15C420.53 233.257 420.383 233.403 420.277 233.59C420.17 233.777 420.117 233.99 420.117 234.23L419.747 234.02C419.747 233.66 419.827 233.34 419.987 233.06C420.147 232.78 420.37 232.56 420.657 232.4C420.943 232.233 421.267 232.15 421.627 232.15C421.987 232.15 422.303 232.24 422.577 232.42C422.857 232.6 423.077 232.837 423.237 233.13C423.397 233.417 423.477 233.723 423.477 234.05V237H422.577ZM419.217 237V232.25H420.117V237H419.217ZM426.325 237L424.145 232.25H425.145L426.895 236.26H426.315L428.075 232.25H429.035L426.855 237H426.325ZM431.787 237.1C431.32 237.1 430.9 236.99 430.527 236.77C430.154 236.55 429.857 236.253 429.637 235.88C429.417 235.5 429.307 235.077 429.307 234.61C429.307 234.15 429.417 233.737 429.637 233.37C429.857 232.997 430.154 232.7 430.527 232.48C430.9 232.26 431.32 232.15 431.787 232.15C432.247 232.15 432.664 232.26 433.037 232.48C433.417 232.693 433.717 232.987 433.937 233.36C434.157 233.733 434.267 234.15 434.267 234.61C434.267 235.077 434.157 235.5 433.937 235.88C433.717 236.253 433.417 236.55 433.037 236.77C432.664 236.99 432.247 237.1 431.787 237.1ZM431.787 236.23C432.087 236.23 432.354 236.16 432.587 236.02C432.82 235.88 433.004 235.69 433.137 235.45C433.27 235.203 433.337 234.923 433.337 234.61C433.337 234.303 433.267 234.03 433.127 233.79C432.994 233.55 432.81 233.363 432.577 233.23C432.35 233.09 432.087 233.02 431.787 233.02C431.487 233.02 431.22 233.09 430.987 233.23C430.754 233.363 430.57 233.55 430.437 233.79C430.304 234.03 430.237 234.303 430.237 234.61C430.237 234.923 430.304 235.203 430.437 235.45C430.57 235.69 430.754 235.88 430.987 236.02C431.22 236.16 431.487 236.23 431.787 236.23ZM435.291 237V232.25H436.191V237H435.291ZM435.741 231.3C435.574 231.3 435.438 231.247 435.331 231.14C435.224 231.027 435.171 230.887 435.171 230.72C435.171 230.56 435.224 230.427 435.331 230.32C435.438 230.207 435.574 230.15 435.741 230.15C435.908 230.15 436.044 230.207 436.151 230.32C436.258 230.427 436.311 230.56 436.311 230.72C436.311 230.887 436.258 231.027 436.151 231.14C436.044 231.247 435.908 231.3 435.741 231.3ZM439.687 237.1C439.221 237.1 438.797 236.99 438.417 236.77C438.044 236.55 437.747 236.253 437.527 235.88C437.314 235.5 437.207 235.08 437.207 234.62C437.207 234.153 437.314 233.733 437.527 233.36C437.747 232.987 438.044 232.693 438.417 232.48C438.797 232.26 439.221 232.15 439.687 232.15C440.054 232.15 440.394 232.22 440.707 232.36C441.021 232.493 441.291 232.69 441.517 232.95L440.917 233.55C440.771 233.377 440.591 233.247 440.377 233.16C440.171 233.067 439.941 233.02 439.687 233.02C439.387 233.02 439.121 233.09 438.887 233.23C438.654 233.363 438.471 233.55 438.337 233.79C438.204 234.03 438.137 234.307 438.137 234.62C438.137 234.933 438.204 235.21 438.337 235.45C438.471 235.69 438.654 235.88 438.887 236.02C439.121 236.16 439.387 236.23 439.687 236.23C439.941 236.23 440.171 236.187 440.377 236.1C440.591 236.007 440.774 235.873 440.927 235.7L441.517 236.3C441.297 236.553 441.027 236.75 440.707 236.89C440.394 237.03 440.054 237.1 439.687 237.1ZM444.512 237.1C444.039 237.1 443.612 236.993 443.232 236.78C442.852 236.56 442.552 236.263 442.332 235.89C442.112 235.517 442.002 235.093 442.002 234.62C442.002 234.153 442.109 233.733 442.322 233.36C442.542 232.987 442.836 232.693 443.202 232.48C443.576 232.26 443.992 232.15 444.452 232.15C444.892 232.15 445.279 232.25 445.612 232.45C445.952 232.65 446.216 232.927 446.402 233.28C446.596 233.633 446.692 234.033 446.692 234.48C446.692 234.547 446.689 234.62 446.682 234.7C446.676 234.773 446.662 234.86 446.642 234.96H442.632V234.21H446.162L445.832 234.5C445.832 234.18 445.776 233.91 445.662 233.69C445.549 233.463 445.389 233.29 445.182 233.17C444.976 233.043 444.726 232.98 444.432 232.98C444.126 232.98 443.856 233.047 443.622 233.18C443.389 233.313 443.209 233.5 443.082 233.74C442.956 233.98 442.892 234.263 442.892 234.59C442.892 234.923 442.959 235.217 443.092 235.47C443.226 235.717 443.416 235.91 443.662 236.05C443.909 236.183 444.192 236.25 444.512 236.25C444.779 236.25 445.022 236.203 445.242 236.11C445.469 236.017 445.662 235.877 445.822 235.69L446.402 236.28C446.176 236.547 445.896 236.75 445.562 236.89C445.236 237.03 444.886 237.1 444.512 237.1Z" fill="black"/>
<rect x="368.5" y="244" width="84" height="6" rx="3" fill="#F5F5F5"/>
<rect x="368.5" y="254" width="84" height="6" rx="3" fill="#F5F5F5"/>
<rect x="380.5" y="264" width="60" height="6" rx="3" fill="#F5F5F5"/>
<rect x="42" y="303" width="341" height="6" rx="3" fill="#F5F5F5"/>
<rect x="42" y="315" width="341" height="6" rx="3" fill="#F5F5F5"/>
<rect x="42" y="327" width="341" height="6" rx="3" fill="#F5F5F5"/>
<circle cx="48" cy="357" r="6" fill="#F5F5F5"/>
<rect x="60" y="354" width="80" height="6" rx="3" fill="#F5F5F5"/>
<circle cx="48" cy="373" r="6" fill="#F5F5F5"/>
<rect x="60" y="370" width="80" height="6" rx="3" fill="#F5F5F5"/>
<circle cx="48" cy="389" r="6" fill="#F5F5F5"/>
<rect x="60" y="386" width="80" height="6" rx="3" fill="#F5F5F5"/>
</svg>
