<svg width="2000" height="2000" viewBox="0 0 2000 2000" fill="none" xmlns="http://www.w3.org/2000/svg">
<g clip-path="url(#clip0_2217_604)">
<path opacity="0.08" fill-rule="evenodd" clip-rule="evenodd" d="M578.17 198.62C578.17 198.62 193.117 278.471 272.947 663.666C352.774 1048.86 -135.585 1429.35 376.25 1739.39C888.088 2049.42 905.63 1654.83 1380.52 1509.21C1855.41 1363.59 2202.57 957.236 1716.73 636.644C1230.88 316.054 1061.83 76.4861 578.17 198.62Z" fill="#9EA5F3"/>
<path d="M646.125 1198.19H432.125V1443.19H646.125V1198.19Z" fill="white" stroke="#9EA5F3" stroke-miterlimit="10"/>
<path d="M432.125 1198.19H359.125V1443.19H432.125V1198.19Z" fill="#E2ECFF"/>
<path d="M1045.13 1036.19H831.125V1443.19H1045.13V1036.19Z" fill="white" stroke="#9EA5F3" stroke-miterlimit="10"/>
<path d="M831.125 1036.19H757.125V1443.19H831.125V1036.19Z" fill="#E2ECFF"/>
<path d="M1444.13 904.186H1230.13V1443.19H1444.13V904.186Z" fill="white" stroke="#9EA5F3" stroke-miterlimit="10"/>
<path d="M1230.13 904.186H1156.13V1443.19H1230.13V904.186Z" fill="#E2ECFF"/>
<path d="M314.125 1053.07C338.397 1048.75 362.544 1043.51 386.602 1038.04C410.656 1032.52 434.646 1026.73 458.533 1020.54C506.343 1008.3 553.816 994.804 601.041 980.556C648.257 966.267 695.211 951.153 741.88 935.233C788.537 919.271 834.918 902.544 881.067 885.232C904.078 876.398 927.139 867.723 950.018 858.563L967.205 851.776L975.798 848.383L984.357 844.901L1018.58 830.955L1027.13 827.468L1035.65 823.889L1052.68 816.728L1069.71 809.569C1075.39 807.19 1081.07 804.805 1086.71 802.331C1109.29 792.487 1131.96 782.87 1154.39 772.698C1244.35 732.582 1333.19 690.046 1420.8 645.186L1440.13 684.555C1350.29 726.638 1259.36 766.302 1167.46 803.463C1144.55 812.896 1121.4 821.77 1098.36 830.864C1092.6 833.152 1086.81 835.349 1081.01 837.539L1063.64 844.134L1046.27 850.727L1037.59 854.022L1028.86 857.224L993.983 870.028L985.261 873.223L976.506 876.329L958.998 882.541C935.697 890.932 912.219 898.833 888.806 906.888C841.85 922.643 794.703 937.793 747.327 952.16C699.937 966.486 652.307 979.987 604.466 992.647C556.615 1005.26 508.567 1017.12 460.239 1027.69C436.094 1033.05 411.858 1038 387.577 1042.69C363.279 1047.31 338.954 1051.7 314.441 1055.19L314.125 1053.08V1053.07Z" fill="#1A237E"/>
<path d="M1439.6 717.186L1496.13 632.547L1394.13 626.186L1439.6 717.186Z" fill="#1A237E"/>
<path d="M1606.13 1450.19H1366.13V1478.18H1366.22C1366.16 1478.27 1366.13 1478.37 1366.13 1478.47C1366.13 1482.73 1419.85 1486.19 1486.13 1486.19C1552.4 1486.19 1606.13 1482.73 1606.13 1478.47C1606.13 1478.37 1606.09 1478.27 1606.03 1478.18H1606.13V1450.19Z" fill="#F8BA28"/>
<mask id="mask0_2217_604" style="mask-type:luminance" maskUnits="userSpaceOnUse" x="1366" y="1450" width="241" height="37">
<path d="M1606.36 1450.56H1366.08V1478.3H1366.17C1366.12 1478.39 1366.08 1478.49 1366.08 1478.58C1366.08 1482.81 1419.87 1486.23 1486.22 1486.23C1552.58 1486.23 1606.36 1482.81 1606.36 1478.58C1606.36 1478.49 1606.33 1478.39 1606.27 1478.3H1606.36V1450.56Z" fill="white"/>
</mask>
<g mask="url(#mask0_2217_604)">
<path d="M1397.05 1450.56H1384V1494.7H1397.05V1450.56Z" fill="#FFE362"/>
<path d="M1492.75 1450.56H1479.7V1494.7H1492.75V1450.56Z" fill="#FFE362"/>
<path d="M1593.91 1450.56H1580.86V1494.7H1593.91V1450.56Z" fill="#FFE362"/>
<path d="M1521 1450.56H1507.95V1494.7H1521V1450.56Z" fill="#FFE362"/>
<path d="M1549.25 1450.56H1536.2V1494.7H1549.25V1450.56Z" fill="#FFE362"/>
<path d="M1420.88 1450.56H1407.83V1494.7H1420.88V1450.56Z" fill="#FFE362"/>
</g>
<path d="M1606.13 1450.69C1606.13 1454.83 1552.4 1458.19 1486.13 1458.19C1419.85 1458.19 1366.13 1454.83 1366.13 1450.69C1366.13 1446.54 1419.85 1443.19 1486.13 1443.19C1552.4 1443.19 1606.13 1446.54 1606.13 1450.69Z" fill="#F8BA28"/>
<path d="M1486.13 1455.19C1456.61 1455.19 1428.29 1454.52 1406.36 1453.31C1390.5 1452.43 1381.35 1451.46 1376.13 1450.69C1381.35 1449.91 1390.5 1448.94 1406.36 1448.06C1428.29 1446.85 1456.61 1446.19 1486.13 1446.19C1515.64 1446.19 1543.96 1446.85 1565.89 1448.06C1581.75 1448.94 1590.9 1449.91 1596.13 1450.69C1590.9 1451.46 1581.75 1452.43 1565.89 1453.31C1543.96 1454.52 1515.64 1455.19 1486.13 1455.19Z" fill="#FFE362"/>
<path d="M1606.13 1414.19H1366.13V1442.18H1366.22C1366.16 1442.27 1366.13 1442.37 1366.13 1442.47C1366.13 1446.73 1419.85 1450.19 1486.13 1450.19C1552.4 1450.19 1606.13 1446.73 1606.13 1442.47C1606.13 1442.37 1606.09 1442.27 1606.03 1442.18H1606.13V1414.19Z" fill="#F8BA28"/>
<mask id="mask1_2217_604" style="mask-type:luminance" maskUnits="userSpaceOnUse" x="1366" y="1414" width="241" height="36">
<path d="M1606.36 1414.27H1366.08V1442.01H1366.17C1366.12 1442.11 1366.08 1442.2 1366.08 1442.3C1366.08 1446.52 1419.87 1449.95 1486.22 1449.95C1552.58 1449.95 1606.36 1446.52 1606.36 1442.3C1606.36 1442.2 1606.33 1442.11 1606.27 1442.01H1606.36V1414.27Z" fill="white"/>
</mask>
<g mask="url(#mask1_2217_604)">
<path d="M1397.05 1414.27H1384V1458.41H1397.05V1414.27Z" fill="#FFE362"/>
<path d="M1492.75 1414.27H1479.7V1458.41H1492.75V1414.27Z" fill="#FFE362"/>
<path d="M1593.91 1414.27H1580.86V1458.41H1593.91V1414.27Z" fill="#FFE362"/>
<path d="M1521 1414.27H1507.95V1458.41H1521V1414.27Z" fill="#FFE362"/>
<path d="M1549.25 1414.27H1536.2V1458.41H1549.25V1414.27Z" fill="#FFE362"/>
<path d="M1420.88 1414.27H1407.83V1458.41H1420.88V1414.27Z" fill="#FFE362"/>
</g>
<path d="M1606.13 1414.19C1606.13 1418.6 1552.4 1422.19 1486.13 1422.19C1419.85 1422.19 1366.13 1418.6 1366.13 1414.19C1366.13 1409.77 1419.85 1406.19 1486.13 1406.19C1552.4 1406.19 1606.13 1409.77 1606.13 1414.19Z" fill="#F8BA28"/>
<path d="M1486.13 1419.19C1456.61 1419.19 1428.29 1418.44 1406.36 1417.1C1390.5 1416.13 1381.35 1415.05 1376.13 1414.19C1381.35 1413.32 1390.5 1412.24 1406.36 1411.27C1428.29 1409.93 1456.61 1409.19 1486.13 1409.19C1515.64 1409.19 1543.96 1409.93 1565.89 1411.27C1581.75 1412.24 1590.9 1413.33 1596.13 1414.19C1590.9 1415.05 1581.75 1416.13 1565.89 1417.1C1543.96 1418.44 1515.64 1419.19 1486.13 1419.19Z" fill="#FFE362"/>
<path d="M1606.13 1378.19H1366.13V1405.4H1366.22C1366.16 1405.49 1366.13 1405.59 1366.13 1405.68C1366.13 1409.82 1419.85 1413.19 1486.13 1413.19C1552.4 1413.19 1606.13 1409.82 1606.13 1405.68C1606.13 1405.59 1606.09 1405.49 1606.03 1405.4H1606.13V1378.19Z" fill="#F8BA28"/>
<mask id="mask2_2217_604" style="mask-type:luminance" maskUnits="userSpaceOnUse" x="1366" y="1377" width="241" height="37">
<path d="M1606.36 1377.99H1366.08V1405.73H1366.17C1366.12 1405.82 1366.08 1405.92 1366.08 1406.01C1366.08 1410.24 1419.87 1413.66 1486.22 1413.66C1552.58 1413.66 1606.36 1410.24 1606.36 1406.01C1606.36 1405.92 1606.33 1405.82 1606.27 1405.73H1606.36V1377.99Z" fill="white"/>
</mask>
<g mask="url(#mask2_2217_604)">
<path d="M1397.05 1377.99H1384V1422.13H1397.05V1377.99Z" fill="#FFE362"/>
<path d="M1492.75 1377.99H1479.7V1422.13H1492.75V1377.99Z" fill="#FFE362"/>
<path d="M1593.91 1377.99H1580.86V1422.13H1593.91V1377.99Z" fill="#FFE362"/>
<path d="M1521 1377.99H1507.95V1422.13H1521V1377.99Z" fill="#FFE362"/>
<path d="M1549.25 1377.99H1536.2V1422.13H1549.25V1377.99Z" fill="#FFE362"/>
<path d="M1420.88 1377.99H1407.83V1422.13H1420.88V1377.99Z" fill="#FFE362"/>
</g>
<path d="M1606.13 1377.69C1606.13 1381.83 1552.4 1385.19 1486.13 1385.19C1419.85 1385.19 1366.13 1381.83 1366.13 1377.69C1366.13 1373.54 1419.85 1370.19 1486.13 1370.19C1552.4 1370.19 1606.13 1373.54 1606.13 1377.69Z" fill="#F8BA28"/>
<path d="M1486.13 1382.19C1456.61 1382.19 1428.29 1381.52 1406.36 1380.31C1390.5 1379.43 1381.35 1378.46 1376.13 1377.69C1381.35 1376.91 1390.5 1375.94 1406.36 1375.06C1428.29 1373.85 1456.61 1373.19 1486.13 1373.19C1515.64 1373.19 1543.96 1373.85 1565.89 1375.06C1581.75 1375.94 1590.9 1376.91 1596.13 1377.69C1590.9 1378.46 1581.75 1379.43 1565.89 1380.31C1543.96 1381.52 1515.64 1382.19 1486.13 1382.19Z" fill="#FFE362"/>
<path d="M1616.13 1342.19H1376.13V1369.4H1376.22C1376.16 1369.49 1376.13 1369.59 1376.13 1369.68C1376.13 1373.82 1429.85 1377.19 1496.13 1377.19C1562.4 1377.19 1616.13 1373.82 1616.13 1369.68C1616.13 1369.59 1616.09 1369.49 1616.03 1369.4H1616.13V1342.19Z" fill="#F8BA28"/>
<mask id="mask3_2217_604" style="mask-type:luminance" maskUnits="userSpaceOnUse" x="1376" y="1341" width="241" height="37">
<path d="M1616.37 1341.71H1376.09V1369.44H1376.18C1376.12 1369.54 1376.09 1369.63 1376.09 1369.73C1376.09 1373.95 1429.88 1377.38 1496.23 1377.38C1562.58 1377.38 1616.37 1373.95 1616.37 1369.73C1616.37 1369.63 1616.34 1369.54 1616.28 1369.44H1616.37V1341.71Z" fill="white"/>
</mask>
<g mask="url(#mask3_2217_604)">
<path d="M1407.06 1341.71H1394.01V1385.85H1407.06V1341.71Z" fill="#FFE362"/>
<path d="M1502.75 1341.71H1489.7V1385.85H1502.75V1341.71Z" fill="#FFE362"/>
<path d="M1603.92 1341.71H1590.87V1385.85H1603.92V1341.71Z" fill="#FFE362"/>
<path d="M1531 1341.71H1517.96V1385.85H1531V1341.71Z" fill="#FFE362"/>
<path d="M1559.26 1341.71H1546.21V1385.85H1559.26V1341.71Z" fill="#FFE362"/>
<path d="M1430.89 1341.71H1417.84V1385.85H1430.89V1341.71Z" fill="#FFE362"/>
</g>
<path d="M1616.13 1341.69C1616.13 1345.83 1562.4 1349.19 1496.13 1349.19C1429.85 1349.19 1376.13 1345.83 1376.13 1341.69C1376.13 1337.54 1429.85 1334.19 1496.13 1334.19C1562.4 1334.19 1616.13 1337.54 1616.13 1341.69Z" fill="#F8BA28"/>
<path d="M1496.13 1346.19C1466.61 1346.19 1438.29 1345.52 1416.36 1344.31C1400.5 1343.43 1391.35 1342.46 1386.13 1341.69C1391.35 1340.91 1400.5 1339.94 1416.36 1339.06C1438.29 1337.85 1466.61 1337.19 1496.13 1337.19C1525.64 1337.19 1553.96 1337.85 1575.89 1339.06C1591.75 1339.94 1600.9 1340.91 1606.13 1341.69C1600.9 1342.46 1591.75 1343.43 1575.89 1344.31C1553.96 1345.52 1525.64 1346.19 1496.13 1346.19Z" fill="#FFE362"/>
<path d="M1582.52 1257.44C1625.11 1214.85 1625.11 1145.78 1582.52 1103.19C1539.92 1060.59 1470.85 1060.59 1428.26 1103.19C1385.66 1145.78 1385.66 1214.85 1428.26 1257.44C1470.85 1300.04 1539.92 1300.04 1582.52 1257.44Z" fill="#F8BA28"/>
<path d="M1574.83 1249.75C1613.18 1211.4 1613.18 1149.22 1574.83 1110.87C1536.48 1072.52 1474.3 1072.52 1435.95 1110.87C1397.6 1149.22 1397.6 1211.4 1435.95 1249.75C1474.3 1288.11 1536.48 1288.11 1574.83 1249.75Z" fill="#FFE362"/>
<path d="M1547.38 1178.12C1544.57 1175.32 1541.3 1173.31 1537.57 1172.07C1533.84 1170.85 1529.86 1170.11 1525.64 1169.87C1522.13 1169.66 1518.64 1169.58 1515.17 1169.56L1509.66 1146.15C1512.2 1145.87 1514.8 1145.75 1517.49 1145.85C1522.21 1146.02 1527.09 1146.85 1532.13 1148.34L1534.96 1129.88C1529.86 1128.11 1524.24 1127.21 1518.11 1127.18C1513.85 1127.16 1509.63 1127.51 1505.44 1128.2L1501.91 1113.19L1488.33 1116.43L1491.92 1131.7C1486.65 1133.58 1482.15 1135.88 1478.56 1138.66C1473.27 1142.77 1469.68 1147.44 1467.8 1152.67C1465.92 1157.89 1465.62 1163.24 1466.91 1168.72C1468.12 1173.84 1470.13 1177.79 1472.93 1180.59C1475.74 1183.39 1479.02 1185.41 1482.75 1186.64C1486.48 1187.86 1490.47 1188.65 1494.71 1188.99C1498.34 1189.27 1501.93 1189.38 1505.49 1189.36L1510.89 1212.32C1506.8 1212.88 1502.64 1213 1498.4 1212.62C1492.4 1212.09 1487.01 1210.84 1482.25 1208.89L1478.71 1227.39C1483.73 1229.66 1489.98 1230.99 1497.44 1231.37C1503.28 1231.68 1509.17 1231.28 1515.1 1230.23L1518.62 1245.19L1532.2 1241.94L1528.6 1226.65C1533.73 1224.78 1538.05 1222.48 1541.54 1219.74C1546.83 1215.58 1550.44 1210.9 1552.37 1205.71C1554.31 1200.53 1554.64 1195.24 1553.37 1189.85C1552.19 1184.83 1550.2 1180.91 1547.38 1178.12ZM1492.91 1167.64C1490.56 1166.61 1489.1 1164.86 1488.52 1162.4C1488.03 1160.3 1488.18 1158.3 1488.98 1156.43C1489.78 1154.55 1491.43 1152.78 1493.9 1151.12C1494.59 1150.67 1495.36 1150.24 1496.19 1149.83L1500.77 1169.32C1497.69 1169.13 1495.05 1168.58 1492.91 1167.64ZM1531.25 1202.52C1530.34 1204.38 1528.66 1206.06 1526.19 1207.57C1525.63 1207.91 1525 1208.24 1524.34 1208.56L1519.89 1189.63C1522.85 1189.88 1525.39 1190.44 1527.47 1191.35C1529.81 1192.38 1531.29 1194.17 1531.89 1196.73C1532.36 1198.73 1532.15 1200.67 1531.25 1202.52Z" fill="#F8BA28"/>
<path d="M1220.46 449.186H1109.79C1104.45 449.186 1100.13 453.545 1100.13 458.923V584.448C1100.13 589.826 1104.45 594.186 1109.79 594.186H1220.46C1225.8 594.186 1230.13 589.826 1230.13 584.448V458.923C1230.13 453.545 1225.8 449.186 1220.46 449.186Z" fill="white" stroke="#E2ECFF" stroke-width="2.821" stroke-miterlimit="10"/>
<path d="M1199.68 512.237C1204.19 493.123 1192.35 473.971 1173.24 469.459C1154.13 464.948 1134.98 476.785 1130.46 495.898C1125.95 515.011 1137.79 534.163 1156.9 538.675C1176.02 543.187 1195.17 531.35 1199.68 512.237Z" fill="#E2ECFF"/>
<path d="M1119.13 563.186H1211.13" stroke="#E2ECFF" stroke-width="2.055" stroke-miterlimit="10"/>
<path d="M1119.13 575.186H1211.13" stroke="#E2ECFF" stroke-width="2.055" stroke-miterlimit="10"/>
<path d="M1143.13 493.996L1163.25 514.186L1202.13 475.186" stroke="#191E80" stroke-width="4.794" stroke-miterlimit="10"/>
<path d="M1945.92 1122.19H1862.33C1856.7 1122.19 1852.13 1126.75 1852.13 1132.38V1226.99C1852.13 1232.62 1856.7 1237.19 1862.33 1237.19H1945.92C1951.55 1237.19 1956.13 1232.62 1956.13 1226.99V1132.38C1956.13 1126.75 1951.55 1122.19 1945.92 1122.19Z" fill="white" stroke="#E2ECFF" stroke-width="2.821" stroke-miterlimit="10"/>
<path d="M1867.13 1204.19H1941.13" stroke="#E2ECFF" stroke-width="2.157" stroke-miterlimit="10"/>
<path d="M1867.13 1214.19H1941.13" stroke="#E2ECFF" stroke-width="2.157" stroke-miterlimit="10"/>
<path d="M1879.19 1175.19H1868.06C1867.55 1175.19 1867.13 1175.61 1867.13 1176.13V1189.24C1867.13 1189.76 1867.55 1190.19 1868.06 1190.19H1879.19C1879.71 1190.19 1880.13 1189.76 1880.13 1189.24V1176.13C1880.13 1175.61 1879.71 1175.19 1879.19 1175.19Z" fill="#191E80"/>
<path d="M1898.87 1163.19H1888.38C1887.69 1163.19 1887.13 1163.76 1887.13 1164.46V1188.91C1887.13 1189.62 1887.69 1190.19 1888.38 1190.19H1898.87C1899.56 1190.19 1900.13 1189.62 1900.13 1188.91V1164.46C1900.13 1163.76 1899.56 1163.19 1898.87 1163.19Z" fill="#191E80"/>
<path d="M1918.67 1154.19H1908.58C1907.78 1154.19 1907.13 1154.84 1907.13 1155.65V1188.72C1907.13 1189.53 1907.78 1190.19 1908.58 1190.19H1918.67C1919.47 1190.19 1920.13 1189.53 1920.13 1188.72V1155.65C1920.13 1154.84 1919.47 1154.19 1918.67 1154.19Z" fill="#191E80"/>
<path d="M1939.41 1140.19H1929.85C1928.9 1140.19 1928.13 1140.96 1928.13 1141.91V1188.46C1928.13 1189.41 1928.9 1190.19 1929.85 1190.19H1939.41C1940.36 1190.19 1941.13 1189.41 1941.13 1188.46V1141.91C1941.13 1140.96 1940.36 1140.19 1939.41 1140.19Z" fill="#191E80"/>
<path d="M386.771 815.186H73.4799C66.1045 815.186 60.1255 821.148 60.1255 828.503V958.868C60.1255 966.223 66.1045 972.186 73.4799 972.186H386.771C394.147 972.186 400.125 966.223 400.125 958.868V828.503C400.125 821.148 394.147 815.186 386.771 815.186Z" fill="white" stroke="#E2ECFF" stroke-width="2.821" stroke-miterlimit="10"/>
<path d="M192.125 856.186H365.125" stroke="#E2ECFF" stroke-width="2.821" stroke-miterlimit="10"/>
<path d="M192.125 881.186H365.125" stroke="#E2ECFF" stroke-width="2.821" stroke-miterlimit="10"/>
<path d="M192.125 906.186H365.125" stroke="#E2ECFF" stroke-width="2.821" stroke-miterlimit="10"/>
<path d="M192.125 931.186H365.125" stroke="#E2ECFF" stroke-width="2.821" stroke-miterlimit="10"/>
<path d="M143.21 898.846C141.943 896.799 140.296 895.15 138.27 893.895C136.244 892.643 134.009 891.643 131.563 890.898C129.524 890.278 127.487 889.732 125.449 889.229L125.408 874.688C126.936 874.88 128.481 875.181 130.045 875.622C132.797 876.395 135.553 877.58 138.309 879.174L142.493 868.724C139.735 866.956 136.557 865.629 132.962 864.739C130.459 864.12 127.929 863.728 125.375 863.534L125.349 854.209L116.926 854.186L116.953 863.668C113.599 864.024 110.64 864.733 108.153 865.858C104.479 867.52 101.733 869.752 99.9167 872.554C98.0969 875.357 97.1941 878.459 97.2035 881.862C97.2129 885.04 97.8536 887.653 99.122 889.695C100.393 891.742 102.04 893.395 104.065 894.646C106.092 895.899 108.326 896.926 110.772 897.73C112.864 898.415 114.959 898.989 117.054 899.486L117.094 913.745C114.615 913.496 112.155 912.973 109.716 912.146C106.261 910.977 103.264 909.479 100.731 907.654L96.1255 918.02C98.7705 920.07 102.258 921.738 106.589 923.028C109.98 924.039 113.496 924.643 117.126 924.87L117.152 934.162L125.575 934.186L125.548 924.693C128.814 924.32 131.67 923.584 134.094 922.47C137.768 920.778 140.528 918.546 142.371 915.771C144.218 913 145.135 909.939 145.125 906.591C145.116 903.472 144.479 900.888 143.208 898.845L143.21 898.846ZM112.634 884.932C111.394 883.994 110.773 882.755 110.768 881.225C110.765 879.921 111.125 878.772 111.852 877.784C112.58 876.792 113.787 875.99 115.469 875.367C115.936 875.196 116.447 875.055 116.987 874.931L117.021 887.037C115.237 886.487 113.763 885.788 112.634 884.932ZM130.399 910.889C129.613 911.852 128.395 912.6 126.741 913.136C126.362 913.257 125.95 913.361 125.518 913.454L125.485 901.699C127.19 902.266 128.609 902.954 129.704 903.784C130.941 904.725 131.565 905.987 131.57 907.576C131.573 908.823 131.182 909.93 130.4 910.89L130.399 910.889Z" fill="#191E80"/>
<path d="M1880.63 827.186C1883.11 827.186 1885.13 816.216 1885.13 802.686C1885.13 789.155 1883.11 778.186 1880.63 778.186C1878.14 778.186 1876.13 789.155 1876.13 802.686C1876.13 816.216 1878.14 827.186 1880.63 827.186Z" fill="#8BABF5"/>
<path d="M1880.13 807.186C1893.93 807.186 1905.13 805.171 1905.13 802.686C1905.13 800.2 1893.93 798.186 1880.13 798.186C1866.32 798.186 1855.13 800.2 1855.13 802.686C1855.13 805.171 1866.32 807.186 1880.13 807.186Z" fill="#8BABF5"/>
<path d="M736.125 644.686C736.125 659.321 734.11 671.186 731.625 671.186C729.139 671.186 727.125 659.321 727.125 644.686C727.125 630.05 729.141 618.186 731.625 618.186C734.109 618.186 736.125 630.05 736.125 644.686Z" fill="#8BABF5"/>
<path d="M731.125 649.186C745.485 649.186 757.125 647.171 757.125 644.686C757.125 642.2 745.485 640.186 731.125 640.186C716.766 640.186 705.125 642.2 705.125 644.686C705.125 647.171 716.766 649.186 731.125 649.186Z" fill="#8BABF5"/>
</g>
<defs>
<clipPath id="clip0_2217_604">
<rect width="2000" height="2000" fill="white"/>
</clipPath>
</defs>
</svg>
