<svg width="2000" height="2000" viewBox="0 0 2000 2000" fill="none" xmlns="http://www.w3.org/2000/svg">
<g clip-path="url(#clip0_2217_175)">
<path opacity="0.08" d="M529.553 421.023C622.931 419.973 714.678 442.285 803.604 470.444C892.846 498.705 981.902 533.823 1072.44 558.625C1163 583.435 1255.16 597.957 1350.74 585.042C1466.7 569.374 1601.61 588.377 1714.06 645.573C1826.49 702.765 1916.44 798.127 1942.56 935.179L1942.61 935.438C1954.89 1000.19 1942.76 1059.97 1920.42 1117.19C1898.04 1174.49 1865.45 1229.16 1836.9 1283.68C1781.27 1389.94 1717.69 1501.51 1619.11 1569.85C1590.95 1589.37 1560.92 1605.84 1529.73 1619.4C1387.45 1681.23 1229.46 1679.38 1077.97 1675.79C917.969 1672 756.004 1654.92 603.566 1601.57C450.233 1547.92 298.05 1451.18 191.625 1321.99C85.2069 1192.82 24.5489 1031.22 54.2054 847.784C79.014 694.337 172.219 557.577 302.496 482.374C372.336 442.058 449.836 421.92 529.553 421.023Z" fill="#9EA5F3" stroke="#E3E7FE"/>
<path d="M1028.31 887.983C1028.58 873.932 1032.3 861.303 1038.06 852.245C1043.83 843.178 1051.59 837.759 1059.95 837.921C1068.32 838.085 1075.86 843.802 1081.27 853.087C1086.67 862.363 1089.9 875.127 1089.62 889.177C1089.35 903.227 1085.63 915.855 1079.87 924.914C1074.1 933.981 1066.34 939.4 1057.98 939.237C1049.62 939.074 1042.07 933.357 1036.66 924.072C1031.26 914.796 1028.03 902.033 1028.31 887.983Z" fill="#1A237E" stroke="#9EA5F3"/>
<path d="M1028.89 888.153C1029.19 874.165 1032.66 861.595 1038.01 852.581C1043.36 843.552 1050.52 838.187 1058.19 838.352C1065.86 838.516 1072.79 844.184 1077.75 853.434C1082.7 862.669 1085.63 875.376 1085.33 889.364C1085.03 903.351 1081.56 915.92 1076.22 924.934C1070.86 933.963 1063.7 939.328 1056.03 939.164C1048.36 938.999 1041.43 933.332 1036.47 924.081C1031.52 914.847 1028.59 902.14 1028.89 888.153Z" fill="#CCCCFF" stroke="#9EA5F3"/>
<path d="M1050.4 864.247C1053.7 864.094 1056.89 866.588 1059.35 871.047C1061.8 875.479 1063.43 881.72 1063.64 888.717C1063.85 895.713 1062.6 902.091 1060.42 906.742C1058.24 911.422 1055.19 914.215 1051.89 914.369C1048.59 914.523 1045.39 912.028 1042.93 907.57C1040.49 903.137 1038.85 896.896 1038.64 889.9C1038.43 882.903 1039.69 876.525 1041.86 871.874C1044.05 867.195 1047.09 864.402 1050.4 864.247Z" fill="#00327C" stroke="#9EA5F3"/>
<path d="M322.413 1338.53C365.329 1355.02 387.841 1385.67 399.633 1412.27C405.563 1425.65 408.78 1438 410.514 1447.01C411.382 1451.51 411.878 1455.18 412.157 1457.72C412.297 1458.98 412.382 1459.97 412.432 1460.64C412.437 1460.7 412.44 1460.76 412.444 1460.81C369.337 1440.42 346.826 1409.78 335.086 1384.17C329.179 1371.28 325.998 1359.67 324.294 1351.29C323.442 1347.09 322.959 1343.71 322.689 1341.37C322.554 1340.2 322.472 1339.3 322.425 1338.69C322.42 1338.63 322.417 1338.58 322.413 1338.53Z" fill="url(#paint0_linear_2217_175)" stroke="#9EA5F3"/>
<path opacity="0.7" d="M323.046 1344.11C323.562 1345.83 324.21 1347.85 325.004 1350.11C327.592 1357.49 331.735 1367.41 337.952 1377.59C350.346 1397.88 371.021 1419.27 404.102 1423.52C407.911 1434.25 410.01 1443.75 411.156 1450.59C411.734 1454.04 412.07 1456.81 412.261 1458.71C412.352 1459.61 412.407 1460.32 412.443 1460.81C369.337 1440.42 346.826 1409.78 335.086 1384.16C329.179 1371.28 325.998 1359.67 324.294 1351.28C323.732 1348.52 323.331 1346.11 323.046 1344.11Z" fill="#00B54A" stroke="#9EA5F3"/>
<path d="M492.401 1350.3C484.482 1386.56 464.88 1408.73 447.197 1421.86C438.284 1428.48 429.858 1432.8 423.663 1435.46C420.565 1436.79 418.026 1437.71 416.264 1438.3C415.402 1438.58 414.726 1438.79 414.261 1438.92C419.403 1405.13 439 1382.95 457.403 1369.19C466.673 1362.26 475.635 1357.46 482.278 1354.41C485.599 1352.88 488.339 1351.78 490.248 1351.07C491.169 1350.73 491.896 1350.47 492.401 1350.3Z" fill="url(#paint1_linear_2217_175)" stroke="#9EA5F3"/>
<path opacity="0.7" d="M490.791 1356.91C482.05 1389.28 463.78 1409.55 447.198 1421.86C438.285 1428.48 429.859 1432.8 423.664 1435.46C420.566 1436.79 418.027 1437.71 416.265 1438.3C415.403 1438.58 414.727 1438.79 414.262 1438.92C415.413 1431.37 417.291 1424.4 419.71 1417.97C447.684 1412.88 466.134 1395.84 477.586 1380.08C483.332 1372.18 487.321 1364.59 489.875 1358.97C490.204 1358.25 490.509 1357.56 490.791 1356.91Z" fill="#00B54A" stroke="#9EA5F3"/>
<path d="M413.338 1289.66C441.533 1338.05 440.166 1382.12 431.724 1414.14C427.483 1430.22 421.457 1443.26 416.491 1452.28C414.008 1456.79 411.791 1460.3 410.196 1462.67C409.398 1463.86 408.757 1464.76 408.315 1465.37C408.227 1465.49 408.145 1465.6 408.073 1465.69C378.886 1417.45 380.254 1373.39 388.946 1341.34C393.312 1325.24 399.526 1312.16 404.649 1303.12C407.21 1298.6 409.498 1295.08 411.144 1292.7C411.967 1291.51 412.629 1290.6 413.084 1289.99C413.177 1289.87 413.263 1289.76 413.338 1289.66Z" fill="url(#paint2_linear_2217_175)" stroke="#9EA5F3"/>
<path opacity="0.7" d="M417.366 1296.91C441.379 1342.45 439.744 1383.73 431.726 1414.14C427.485 1430.22 421.457 1443.26 416.491 1452.28C414.008 1456.79 411.792 1460.3 410.197 1462.67C409.4 1463.86 408.758 1464.76 408.316 1465.37C408.229 1465.49 408.147 1465.6 408.075 1465.69C405.462 1461.37 403.094 1457.09 400.954 1452.84C426.464 1408.08 429.712 1367.05 426.568 1337.19C424.994 1322.23 421.817 1310.08 419.032 1301.66C418.455 1299.91 417.892 1298.33 417.366 1296.91Z" fill="#00B54A" stroke="#9EA5F3"/>
<path d="M463.707 1421.13V1466.27C463.707 1488.3 452.177 1507.63 434.822 1518.58C429.762 1521.77 423.881 1523.44 417.895 1523.44H385.822C379.834 1523.44 373.955 1521.77 368.894 1518.58C351.54 1507.63 340.008 1488.3 340.008 1466.27V1421.13H463.707Z" fill="#D1D9F2" stroke="#9EA5F3"/>
<path d="M331.909 1416.55H472.013C474.119 1416.55 475.826 1418.25 475.826 1420.36V1432.12C475.826 1434.23 474.119 1435.94 472.013 1435.94H331.909C329.803 1435.94 328.096 1434.23 328.096 1432.12V1420.36C328.096 1418.25 329.803 1416.55 331.909 1416.55Z" fill="#D1D9F2" stroke="#9EA5F3"/>
<g style="mix-blend-mode:multiply">
<path d="M463.707 1436.94V1442.48H340.008V1436.94H463.707Z" fill="#E6E6E6" stroke="#9EA5F3"/>
</g>
<g style="mix-blend-mode:screen">
<path d="M334.407 1420.1H404.701C405.953 1420.1 406.97 1421.12 406.97 1422.37V1429.93C406.97 1431.18 405.953 1432.19 404.702 1432.19H334.406C333.154 1432.19 332.136 1431.18 332.136 1429.93V1422.37C332.136 1421.12 333.153 1420.1 334.407 1420.1Z" fill="#1A1A1A" stroke="#9EA5F3"/>
</g>
<path opacity="0.65" d="M446.008 1451.57C447.316 1451.57 448.573 1452.41 449.529 1453.93C450.481 1455.45 451.086 1457.57 451.086 1459.94C451.086 1462.31 450.481 1464.44 449.529 1465.95C448.573 1467.48 447.315 1468.32 446.008 1468.32C444.702 1468.32 443.443 1467.48 442.487 1465.95C441.535 1464.44 440.929 1462.31 440.929 1459.94C440.929 1457.57 441.535 1455.45 442.487 1453.93C443.443 1452.41 444.701 1451.57 446.008 1451.57Z" fill="white" stroke="#9EA5F3"/>
<path d="M909.336 1029.79C921.642 1026.33 934.761 1031.67 941.05 1042.8C952.267 1062.64 963.248 1096.55 973.384 1137.82C983.515 1179.08 992.79 1227.64 1000.61 1276.75C1016.2 1374.66 1026 1474.72 1025.27 1523.44H646.715C642.251 1504.17 634.016 1464.78 623.998 1423.62C613.913 1382.19 602.002 1338.89 590.271 1312.43C558.451 1240.65 558.46 1182.48 566.407 1142.28C570.381 1122.17 576.341 1106.55 581.305 1095.97C583.787 1090.67 586.02 1086.63 587.63 1083.92C588.435 1082.57 589.085 1081.54 589.532 1080.86C589.756 1080.52 589.929 1080.26 590.046 1080.09C590.067 1080.06 590.085 1080.03 590.103 1080.01L909.277 1029.8H909.307L909.336 1029.79Z" fill="#E3EDFE" stroke="#9EA5F3"/>
<path d="M583.114 1092.23C584.55 1101.87 589.247 1110.94 598.379 1118.87C612.355 1131 623.62 1152.67 632.645 1178.42C641.663 1204.16 648.419 1233.91 653.418 1262.15C658.417 1290.38 661.657 1317.09 663.647 1336.74C664.643 1346.57 665.326 1354.63 665.76 1360.23C665.977 1363.03 666.131 1365.22 666.231 1366.71C666.282 1367.45 666.319 1368.02 666.343 1368.4C666.355 1368.59 666.364 1368.74 666.37 1368.83C666.373 1368.88 666.375 1368.92 666.376 1368.94C666.377 1368.95 666.378 1368.96 666.378 1368.97C666.378 1368.97 666.378 1368.97 666.378 1368.98C666.378 1368.98 666.387 1368.98 666.878 1368.95L666.379 1368.98L666.389 1369.14L666.496 1369.27C668.162 1371.24 670.051 1374.6 672.098 1379.08C674.139 1383.56 676.321 1389.11 678.583 1395.43C683.106 1408.08 687.938 1423.78 692.585 1440.03C701.768 1472.15 710.226 1506.4 714.169 1523.44H646.716C642.252 1504.17 634.017 1464.77 623.999 1423.62C613.914 1382.19 602.003 1338.89 590.271 1312.43C540.558 1200.29 568.53 1121.36 583.114 1092.23Z" fill="#CCCCFF" stroke="#9EA5F3"/>
<path d="M913.345 845.25C917.979 843.139 924.112 844.019 929.042 845.2C934.838 846.586 940.339 848.792 946.107 850.58C959.266 854.662 972.283 859.823 984.405 866.398L985.575 867.039C997.724 873.765 1007.98 882.706 1018.67 891.569C1020.44 893.043 1022.34 894.421 1024.14 895.824C1025.72 897.062 1027.25 898.337 1028.62 899.773L1029.2 900.398C1029.77 901.036 1030.38 901.747 1030.85 902.513C1031.33 903.28 1031.64 904.062 1031.64 904.839C1031.65 905.867 1031.08 906.728 1030.25 907.601C1029.84 908.038 1029.39 908.447 1028.94 908.884C1028.49 909.31 1028.05 909.757 1027.7 910.234C1023.34 916.17 1020.29 923.698 1018.02 931.536C1015.74 939.377 1014.23 947.561 1012.95 954.823C1010.09 970.996 1007.79 987.65 1010.4 1004.11C1011.04 1008.17 1012.31 1011.69 1013.92 1014.92H1013.91L1014.08 1015.25C1016.05 1019.15 1018.37 1022.82 1020.3 1026.27C1022.25 1029.74 1023.83 1033 1024.44 1036.17C1025.04 1039.32 1024.68 1042.38 1022.73 1045.47C1020.78 1048.59 1017.19 1051.78 1011.24 1055.12C995.13 1064.18 977.527 1065.51 961.335 1059.49C941.406 1052.09 922.99 1040.59 907.702 1025.81C903.487 1021.73 899.473 1017.32 897.374 1011.98L897.176 1011.46C894.757 1004.83 896.912 999.513 899.907 994.177C901.392 991.53 903.116 988.827 904.511 986.034C905.916 983.221 907.027 980.247 907.312 976.966C910.55 939.459 915.126 900.094 912.67 861.988L912.548 860.175C912.271 856.148 912.097 851.588 910.574 847.645C911.152 846.752 911.92 845.959 913.087 845.373L913.345 845.25Z" fill="#FCC2B4" stroke="#9EA5F3"/>
<path d="M1031.57 904.38C1031.6 904.48 1031.62 904.571 1031.63 904.66L1031.64 904.839C1031.65 905.868 1031.08 906.729 1030.25 907.602C1029.84 908.039 1029.39 908.448 1028.94 908.884C1028.55 909.258 1028.16 909.647 1027.84 910.058L1027.7 910.236C1023.34 916.172 1020.29 923.699 1018.02 931.537C1016.03 938.397 1014.62 945.521 1013.44 952.06L1012.95 954.824C1010.09 970.996 1007.79 987.651 1010.4 1004.11C1011.02 1008.03 1012.23 1011.43 1013.76 1014.57C982.104 1025.48 958.348 1021.67 941.246 1010.8C924.057 999.878 913.511 981.776 908.458 964.104C910.445 942.166 912.507 919.737 913.13 897.404L921 896.637L1031.57 904.38Z" fill="#FBA896" stroke="#9EA5F3"/>
<path d="M1016.89 937.067C1031.79 941.85 1050.01 942.128 1065.09 937.813C1064.05 943.65 1062.71 948.542 1059.56 952.122C1056.28 955.838 1050.96 958.225 1041.68 958.622C1026.87 959.253 1016.73 949.113 1016.89 937.067Z" fill="#CB4453" stroke="#9EA5F3"/>
<path d="M1016.92 937.657C1018.32 937.952 1019.71 938.371 1021.05 938.837C1031.99 942.647 1041.75 949.269 1049.12 957.7C1047.27 958.111 1045.2 958.407 1042.85 958.56L1041.68 958.624C1027.12 959.246 1017.09 949.44 1016.92 937.657Z" fill="#DD5664" stroke="#9EA5F3"/>
<path d="M1016.88 937.055C1028.59 940.677 1047.22 941.303 1059.51 939.144C1059.35 940.256 1059.2 941.244 1059.05 942.052C1058.87 942.988 1058.72 943.623 1058.58 943.937C1058.56 943.957 1058.51 943.988 1058.45 944.024C1058.29 944.11 1058.05 944.215 1057.73 944.335C1057.1 944.573 1056.18 944.854 1055.02 945.139C1052.7 945.709 1049.44 946.291 1045.55 946.593C1037.83 947.191 1027.69 946.684 1017.63 942.835C1017.1 940.977 1016.79 939.401 1016.88 937.055Z" fill="#F8E8D8" stroke="#9EA5F3"/>
<path d="M925.694 775.689C958.657 760.217 1002.03 757.182 1031.45 762.621C1045.62 765.241 1054.83 771.618 1060.79 780.396C1066.75 789.19 1069.48 800.442 1070.58 812.867C1070.98 826.803 1069.38 842.093 1068.24 857.167C1067.11 872.22 1066.44 887.053 1068.74 899.976C1076.03 941.008 1054.94 987.942 1004.29 1006.28L1003.09 1006.7C968.911 1018.66 940.571 1002.31 920.704 982.855C910.776 973.132 902.99 962.653 897.685 954.603C895.033 950.578 893.002 947.162 891.635 944.754C890.952 943.55 890.433 942.598 890.087 941.947C889.914 941.623 889.784 941.373 889.698 941.205C889.654 941.121 889.621 941.057 889.6 941.015C889.589 940.993 889.581 940.977 889.575 940.967L889.569 940.953C889.569 940.953 889.568 940.952 889.121 941.177L889.568 940.952L889.47 940.757L889.261 940.696L888.382 940.455C883.706 939.229 874.917 937.619 866.889 931.766C858.369 925.555 850.685 914.528 850.011 893.955C849.674 883.662 851.518 876.669 854.42 871.955C857.317 867.251 861.296 864.772 865.326 863.55C869.368 862.324 873.466 862.362 876.567 862.713C878.114 862.888 879.407 863.14 880.311 863.348C880.763 863.452 881.117 863.545 881.358 863.611C881.478 863.645 881.569 863.671 881.63 863.689C881.66 863.698 881.683 863.705 881.698 863.71C881.705 863.712 881.711 863.714 881.714 863.715L881.718 863.716L882.593 863.993L882.352 863.107C876.321 840.981 878.952 823.001 887.162 808.63C895.38 794.246 909.218 783.423 925.694 775.689Z" fill="#FCC2B4" stroke="#9EA5F3"/>
<path d="M902.6 781.985C923.355 779.669 948.751 778.479 973.424 780.179C998.107 781.879 1022.02 786.468 1039.84 795.679C1056.87 804.477 1068.28 817.462 1069.57 836.165C1069.17 835.373 1068.66 834.417 1068 833.352C1066.11 830.287 1063.09 826.295 1058.56 822.581C1049.5 815.139 1034.45 808.859 1010.51 813.271C986.623 817.673 974.308 826.925 961.493 832.579C955.08 835.408 948.508 837.361 940.227 837.427C931.937 837.492 921.903 835.666 908.571 830.89L907.943 830.665L907.903 831.33V831.336C907.902 831.34 907.902 831.346 907.902 831.354C907.901 831.369 907.899 831.393 907.897 831.424C907.893 831.487 907.886 831.582 907.876 831.706C907.858 831.955 907.829 832.322 907.785 832.796C907.697 833.743 907.551 835.115 907.325 836.807C906.871 840.19 906.09 844.851 904.782 849.959C902.158 860.198 897.436 872.135 889.064 879.242C888.073 880.083 887.027 880.52 885.937 880.62C884.842 880.72 883.67 880.483 882.429 879.921C879.935 878.79 877.237 876.377 874.502 872.979C869.041 866.192 863.568 855.651 859.378 844.284C855.189 832.919 852.301 820.776 851.978 810.798C851.816 805.808 852.297 801.39 853.555 797.889C854.81 794.394 856.827 791.843 859.73 790.512C862.732 789.135 868.245 787.581 875.634 786.08C883.011 784.582 892.223 783.143 902.6 781.985Z" fill="#FBA896" stroke="#9EA5F3"/>
<path d="M1004.24 891.202C1004.3 891.231 1004.39 891.285 1004.51 891.386C1004.78 891.62 1005.11 892.021 1005.52 892.596C1006.31 893.74 1007.3 895.482 1008.4 897.704C1010.61 902.143 1013.26 908.431 1015.84 915.518C1017.13 919.067 1018.31 922.803 1018.35 926.525C1018.37 928.397 1018.14 930.1 1017.56 931.81C1017.05 933.225 1016.36 934.421 1015.57 935.421L1015.22 935.839C1013.48 937.873 1011.38 938.848 1009.9 939.031L1009.61 939.058H1009.6C1008.82 939.113 1008.28 939.015 1007.95 938.886C1007.83 938.836 1007.75 938.782 1007.7 938.743C1007.75 938.688 1007.83 938.614 1007.96 938.516C1008.1 938.409 1008.28 938.293 1008.49 938.152C1008.7 938.012 1008.94 937.853 1009.2 937.67C1010.23 936.934 1011.52 935.815 1012.5 933.865C1013.45 932.052 1013.96 929.933 1013.73 927.303L1013.68 926.769C1013.38 923.945 1012.27 920.774 1010.98 917.276C1008.41 910.197 1006.4 903.674 1005.24 898.856C1004.66 896.443 1004.29 894.475 1004.17 893.085C1004.11 892.386 1004.11 891.861 1004.16 891.51C1004.19 891.36 1004.22 891.262 1004.24 891.202Z" fill="#F69D7D" stroke="#9EA5F3"/>
<path d="M964.511 852.908C971.646 852.815 978.023 855.313 981.756 857.917V857.918L981.76 857.92C983.68 859.233 985.009 860.504 985.786 861.5C986.177 862.001 986.414 862.413 986.524 862.712C986.577 862.854 986.592 862.95 986.594 863.007C986.552 863.018 986.46 863.032 986.277 863.012C985.962 862.978 985.521 862.86 984.936 862.663C983.75 862.263 982.214 861.627 980.21 860.908C976.246 859.474 970.777 857.994 964.44 858.071C958.374 858.15 952.745 859.77 948.874 861.306L948.872 861.307C946.926 862.087 945.341 862.72 944.21 863.173C943.629 863.39 943.18 863.523 942.86 863.566C942.682 863.59 942.591 863.58 942.551 863.572C942.548 863.529 942.554 863.436 942.612 863.264C942.712 862.972 942.931 862.567 943.302 862.056C944.075 861.012 945.371 859.713 947.256 858.357L947.257 858.356C950.99 855.653 957.107 852.998 964.511 852.908Z" fill="#3B4159" stroke="#9EA5F3"/>
<path d="M1044.17 853.71C1051.57 853.611 1057.76 856.112 1061.55 858.719L1061.56 858.72C1063.24 859.866 1064.46 860.977 1065.28 861.923L1065.6 862.318C1065.99 862.819 1066.22 863.218 1066.32 863.508C1066.39 863.678 1066.39 863.772 1066.39 863.815C1066.35 863.825 1066.26 863.837 1066.08 863.817C1065.77 863.782 1065.32 863.662 1064.73 863.462C1063.59 863.037 1061.99 862.443 1060.02 861.712H1060.01C1056.11 860.274 1050.44 858.795 1044.37 858.871C1038.03 858.956 1032.6 860.576 1028.68 862.111C1026.69 862.881 1025.18 863.558 1024 863.988C1023.42 864.2 1022.98 864.329 1022.67 864.371C1022.48 864.396 1022.39 864.382 1022.35 864.372C1022.35 864.316 1022.37 864.219 1022.42 864.074C1022.52 863.773 1022.74 863.354 1023.12 862.844C1023.87 861.828 1025.17 860.525 1027.06 859.162V859.159C1030.72 856.459 1037.03 853.8 1044.17 853.71Z" fill="#3B4159" stroke="#9EA5F3"/>
<path d="M965.644 877.076C970.349 876.155 975.101 880.372 976.054 886.851C976.527 890.064 975.949 893.157 974.652 895.556C973.354 897.956 971.354 899.633 968.984 900.098C964.28 901.017 959.528 896.798 958.576 890.321C958.103 887.107 958.679 884.015 959.976 881.616C961.274 879.217 963.274 877.54 965.644 877.076Z" fill="#3B4159" stroke="#9EA5F3"/>
<path d="M1040.61 882.25C1042.72 881.866 1044.82 882.735 1046.5 884.546C1048.19 886.36 1049.44 889.095 1049.81 892.332C1050.19 895.569 1049.6 898.651 1048.38 901.012C1047.16 903.378 1045.32 904.974 1043.2 905.36C1041.08 905.745 1038.99 904.876 1037.3 903.065C1035.62 901.251 1034.37 898.516 1033.99 895.279C1033.62 892.042 1034.2 888.96 1035.43 886.599C1036.65 884.233 1038.49 882.638 1040.61 882.25Z" fill="#3B4159" stroke="#9EA5F3"/>
<path d="M957.315 813.689C961.737 812.779 966.654 811.583 971.904 810.304C977.152 809.026 982.729 807.666 988.459 806.43C999.915 803.959 1012.01 801.979 1023.35 802.148C1034.7 802.316 1045.34 804.633 1053.84 810.8C1062.06 816.757 1068.22 826.262 1071.14 840.73C1071.23 840.493 1071.34 840.231 1071.45 839.942C1072.03 838.454 1072.82 836.279 1073.64 833.535C1075.28 828.047 1077.06 820.288 1077.6 811.215C1078.67 793.074 1074.79 769.686 1054.98 748.633C1051.81 745.269 1046.41 743.397 1039.23 742.817C1032.06 742.237 1023.22 742.951 1013.28 744.667C993.389 748.099 969.192 755.522 945.42 764.499C921.651 773.475 898.326 783.996 880.189 793.615C871.12 798.424 863.357 803.004 857.485 807.048C854.549 809.07 852.093 810.954 850.187 812.66C848.274 814.373 846.94 815.884 846.219 817.159C837.875 831.913 838.747 845.401 841.908 856.791C843.491 862.496 845.647 867.667 847.515 872.221C849.328 876.642 850.889 880.531 851.328 883.709C854.978 886.28 864.39 892.561 873.472 895.733C878.095 897.347 882.553 898.126 886.098 897.273C887.858 896.849 889.391 896.023 890.617 894.696C891.846 893.366 892.794 891.504 893.339 888.972C895.851 877.303 896.805 861.86 895.607 847.882C895.009 840.895 893.873 834.288 892.133 828.711C890.39 823.125 888.056 818.619 885.089 815.781L883.918 814.662L885.516 814.927H885.517C885.517 814.927 885.52 814.928 885.521 814.928C885.526 814.929 885.533 814.93 885.541 814.931C885.558 814.934 885.585 814.938 885.619 814.944C885.688 814.955 885.792 814.971 885.929 814.992C886.203 815.035 886.611 815.096 887.143 815.171C888.206 815.322 889.768 815.53 891.752 815.756C895.721 816.209 901.382 816.736 908.15 817.036C921.647 817.635 939.526 817.327 957.145 813.723L957.315 813.689ZM957.315 813.689L957.416 814.179H957.415L957.315 813.689Z" fill="#3F3C51"/>
<path d="M957.315 813.689C961.737 812.779 966.654 811.583 971.904 810.304C977.152 809.026 982.729 807.666 988.459 806.43C999.915 803.959 1012.01 801.979 1023.35 802.148C1034.7 802.316 1045.34 804.633 1053.84 810.8C1062.06 816.757 1068.22 826.262 1071.14 840.73C1071.23 840.493 1071.34 840.231 1071.45 839.942C1072.03 838.454 1072.82 836.279 1073.64 833.535C1075.28 828.047 1077.06 820.288 1077.6 811.215C1078.67 793.074 1074.79 769.686 1054.98 748.633C1051.81 745.269 1046.41 743.397 1039.23 742.817C1032.06 742.237 1023.22 742.951 1013.28 744.667C993.389 748.099 969.192 755.522 945.42 764.499C921.651 773.475 898.326 783.996 880.189 793.615C871.12 798.424 863.357 803.004 857.485 807.048C854.549 809.07 852.093 810.954 850.187 812.66C848.274 814.373 846.94 815.884 846.219 817.159C837.875 831.913 838.747 845.401 841.908 856.791C843.491 862.496 845.647 867.667 847.515 872.221C849.328 876.642 850.889 880.531 851.328 883.709C854.978 886.28 864.39 892.561 873.472 895.733C878.095 897.347 882.553 898.126 886.098 897.273C887.858 896.849 889.391 896.023 890.617 894.696C891.846 893.366 892.794 891.504 893.339 888.972C895.851 877.303 896.805 861.86 895.607 847.882C895.009 840.895 893.873 834.288 892.133 828.711C890.39 823.125 888.056 818.619 885.089 815.781L883.918 814.662L885.516 814.927H885.517C885.517 814.927 885.52 814.928 885.521 814.928C885.526 814.929 885.533 814.93 885.541 814.931C885.558 814.934 885.585 814.938 885.619 814.944C885.688 814.955 885.792 814.971 885.929 814.992C886.203 815.035 886.611 815.096 887.143 815.171C888.206 815.322 889.768 815.53 891.752 815.756C895.721 816.209 901.382 816.736 908.15 817.036C921.647 817.635 939.526 817.327 957.145 813.723L957.315 813.689ZM957.315 813.689L957.416 814.179H957.415L957.315 813.689Z" stroke="#9EA5F3"/>
<path d="M866.964 767.852C878.144 767.745 886.975 770.79 892.732 776.593C898.481 782.389 901.242 791.015 900.125 802.24C899.012 813.445 893.669 822.824 888.582 829.415C886.041 832.708 883.569 835.298 881.734 837.064C880.816 837.946 880.059 838.622 879.531 839.076C879.268 839.304 879.061 839.476 878.922 839.59C878.853 839.647 878.8 839.69 878.765 839.718C878.747 839.732 878.733 839.743 878.725 839.75C878.721 839.753 878.718 839.756 878.716 839.757L878.713 839.759L878.466 839.953L878.533 840.261L879.022 840.153C878.584 840.25 878.538 840.26 878.533 840.261L878.534 840.264C878.535 840.266 878.536 840.268 878.536 840.272C878.538 840.279 878.54 840.29 878.543 840.305C878.55 840.334 878.56 840.378 878.573 840.436C878.598 840.552 878.636 840.724 878.685 840.949C878.783 841.4 878.925 842.062 879.105 842.906C879.464 844.596 879.97 847.019 880.557 849.948C881.731 855.807 883.23 863.691 884.529 871.792C885.827 879.897 886.923 888.207 887.295 894.925C887.481 898.285 887.484 901.23 887.246 903.545C887.127 904.702 886.95 905.69 886.709 906.486C886.467 907.287 886.172 907.86 885.842 908.223C882.742 911.63 877.893 913.374 873.749 914.259C871.688 914.699 869.822 914.923 868.473 915.035C867.799 915.092 867.253 915.12 866.878 915.135C866.755 915.14 866.65 915.142 866.565 915.144C866.538 915.104 866.507 915.06 866.473 915.011C866.313 914.778 866.077 914.433 865.776 913.99C865.172 913.105 864.304 911.825 863.242 910.246C861.12 907.089 858.228 902.737 855.155 897.961C849.191 888.695 842.568 877.872 839.516 871.064L839.232 870.417C837.788 867.062 836.206 861.402 834.643 854.765C833.082 848.138 831.549 840.572 830.198 833.427C828.846 826.283 827.678 819.562 826.847 814.628C826.432 812.161 826.1 810.141 825.873 808.738C825.76 808.036 825.672 807.487 825.613 807.115C825.583 806.93 825.56 806.788 825.545 806.693C825.538 806.645 825.532 806.608 825.529 806.584C825.527 806.572 825.526 806.563 825.525 806.557C825.524 806.554 825.523 806.552 825.523 806.55V806.548L825.488 806.322L825.292 806.2L824.957 805.985C818.037 801.351 818.193 790.496 825.49 785.577C831.556 781.488 838.773 777.082 846.061 773.684C853.358 770.281 860.679 767.912 866.964 767.852Z" fill="#3F3C51"/>
<path d="M878.533 840.261L878.466 839.953L878.713 839.759L878.716 839.757C878.718 839.756 878.721 839.753 878.725 839.75C878.733 839.743 878.747 839.732 878.765 839.718C878.8 839.69 878.853 839.647 878.922 839.59C879.061 839.476 879.268 839.304 879.531 839.076C880.059 838.622 880.816 837.946 881.734 837.064C883.569 835.298 886.041 832.708 888.582 829.415C893.669 822.824 899.012 813.445 900.125 802.24C901.242 791.015 898.481 782.389 892.732 776.593C886.975 770.79 878.144 767.745 866.964 767.852C860.679 767.912 853.358 770.281 846.061 773.684C838.773 777.082 831.556 781.488 825.49 785.577C818.193 790.496 818.037 801.351 824.957 805.985L825.292 806.2L825.488 806.322L825.523 806.548V806.55C825.523 806.552 825.524 806.554 825.525 806.557C825.526 806.563 825.527 806.572 825.529 806.584C825.532 806.608 825.538 806.645 825.545 806.693C825.56 806.788 825.583 806.93 825.613 807.115C825.672 807.487 825.76 808.036 825.873 808.738C826.1 810.141 826.432 812.161 826.847 814.628C827.678 819.562 828.846 826.283 830.198 833.427C831.549 840.572 833.082 848.138 834.643 854.765C836.206 861.402 837.788 867.062 839.232 870.417L839.516 871.064C842.568 877.872 849.191 888.695 855.155 897.961C858.228 902.737 861.12 907.089 863.242 910.246C864.304 911.825 865.172 913.105 865.776 913.99C866.077 914.433 866.313 914.778 866.473 915.011C866.507 915.06 866.538 915.104 866.565 915.144C866.65 915.142 866.755 915.14 866.878 915.135C867.253 915.12 867.799 915.092 868.473 915.035C869.822 914.923 871.688 914.699 873.749 914.259C877.893 913.374 882.742 911.63 885.842 908.223C886.172 907.86 886.467 907.287 886.709 906.486C886.95 905.69 887.127 904.702 887.246 903.545C887.484 901.23 887.481 898.285 887.295 894.925C886.923 888.207 885.827 879.897 884.529 871.792C883.23 863.691 881.731 855.807 880.557 849.948C879.97 847.019 879.464 844.596 879.105 842.906C878.925 842.062 878.783 841.4 878.685 840.949C878.636 840.724 878.598 840.552 878.573 840.436C878.56 840.378 878.55 840.334 878.543 840.305C878.54 840.29 878.538 840.279 878.536 840.272C878.536 840.268 878.535 840.266 878.534 840.264L878.533 840.261ZM878.533 840.261L879.022 840.153C878.584 840.25 878.538 840.26 878.533 840.261Z" stroke="#9EA5F3"/>
<path d="M871.298 862.54C874.074 862.395 876.336 864.432 878.149 867.438C879.946 870.418 881.197 874.187 881.99 877.141C887.071 896.088 888.729 912.091 889.117 923.353C889.31 928.983 889.187 933.428 889.015 936.463C888.929 937.98 888.831 939.145 888.755 939.929C888.732 940.168 888.708 940.372 888.69 940.539C884.1 939.301 875.097 937.751 866.888 931.767C858.369 925.555 850.683 914.528 850.009 893.955C849.588 881.088 852.575 873.381 856.782 868.827C860.989 864.273 866.496 862.79 871.298 862.54Z" fill="#FCC2B4" stroke="#9EA5F3"/>
<mask id="mask0_2217_175" style="mask-type:luminance" maskUnits="userSpaceOnUse" x="860" y="875" width="20" height="48">
<mask id="mask1_2217_175" style="mask-type:luminance" maskUnits="userSpaceOnUse" x="860" y="875" width="20" height="48">
<path d="M879.309 875.089H860.218V922.818H879.309V875.089Z" fill="white"/>
</mask>
<g mask="url(#mask1_2217_175)">
<path d="M879.309 875.089H860.218V922.818H879.309V875.089Z" fill="white"/>
<path d="M861.871 883.068C858.536 892.939 860.892 903.74 863.285 913.589C863.996 916.518 864.794 919.611 866.724 921.504C868.656 923.396 872.107 923.359 873.479 920.638C874.802 918.006 873.519 914.854 872.538 912.174C871.558 909.491 871.234 905.545 873.455 904.06C874.49 903.37 875.745 903.519 876.818 902.934C879.158 901.665 879.508 897.827 879.225 894.83C878.831 890.683 877.962 886.636 876.649 882.844C875.361 879.121 873.134 875.252 869.746 875.094C866.204 874.929 863.25 878.986 861.871 883.068Z" fill="url(#paint3_linear_2217_175)" style="mix-blend-mode:multiply"/>
</g>
<path d="M878.809 875.589H860.718V922.318H878.809V875.589Z" stroke="#9EA5F3"/>
</mask>
<g mask="url(#mask0_2217_175)">
<path d="M869.723 875.594C871.215 875.663 872.498 876.549 873.592 877.941C874.685 879.332 875.541 881.172 876.176 883.008C877.395 886.526 878.228 890.268 878.649 894.108L878.727 894.878C878.865 896.345 878.846 897.995 878.518 899.418C878.187 900.851 877.566 901.96 876.58 902.495L876.579 902.496C876.12 902.746 875.619 902.842 875.019 902.969C874.443 903.09 873.784 903.241 873.178 903.645C871.876 904.516 871.375 906.068 871.297 907.643C871.219 909.231 871.561 910.956 872.068 912.345C872.565 913.703 873.113 915.116 873.381 916.518C873.648 917.913 873.624 919.233 873.031 920.413C872.429 921.607 871.384 922.205 870.267 922.303C869.207 922.397 868.085 922.04 867.239 921.301L867.074 921.147C866.18 920.27 865.53 919.097 865.014 917.756C864.497 916.414 864.127 914.938 863.771 913.471C861.373 903.602 859.063 892.942 862.345 883.228C863.018 881.235 864.072 879.265 865.369 877.823C866.671 876.376 868.162 875.521 869.723 875.594Z" fill="url(#paint4_linear_2217_175)" stroke="#9EA5F3"/>
</g>
<path d="M883.129 724.237C912.58 710.036 947.823 708.06 978.678 712.784C994.102 715.145 1008.42 719.178 1020.34 724.183C1032.28 729.192 1041.79 735.161 1047.65 741.374C1059.58 754.036 1075.65 760.759 1088.7 764.318C1095.23 766.099 1101.02 767.091 1105.17 767.638C1107.25 767.912 1108.92 768.075 1110.07 768.169C1110.58 768.21 1110.99 768.236 1111.28 768.255C1111.25 768.402 1111.21 768.578 1111.15 768.781C1110.97 769.485 1110.65 770.518 1110.11 771.813C1109.03 774.403 1107.09 778.047 1103.64 782.218C1096.73 790.557 1083.76 801.03 1059.48 809.393C1035.24 817.744 1014.78 816.428 1000.38 813.03C993.176 811.331 987.49 809.11 983.609 807.317C981.668 806.421 980.179 805.63 979.177 805.066C978.676 804.784 978.297 804.558 978.045 804.404C977.918 804.327 977.823 804.268 977.76 804.228C977.729 804.208 977.705 804.193 977.69 804.183C977.683 804.179 977.677 804.175 977.673 804.173L977.671 804.17H977.67L977.408 803.998L977.138 804.158C964.861 811.497 955.367 813.894 947.923 813.908C940.485 813.922 935.041 811.558 930.854 809.277C929.685 808.64 928.289 808.453 926.716 808.555C925.145 808.658 923.357 809.053 921.379 809.62C919.398 810.187 917.199 810.934 914.801 811.748C912.4 812.563 909.794 813.449 906.983 814.302C895.748 817.714 881.274 820.594 863.988 816.248C846.801 811.927 835.166 796.883 835.988 778.979C836.809 761.078 850.102 740.162 883.129 724.237Z" fill="#3F3C51" stroke="#9EA5F3"/>
<path d="M898.08 1000.48C911.702 1026.63 925.822 1040.7 939.404 1047.01C953.096 1053.37 966.165 1051.81 977.47 1046.93C988.762 1042.05 998.312 1033.85 1005.03 1026.89C1008.39 1023.41 1011.05 1020.23 1012.87 1017.92C1013.77 1016.76 1014.47 1015.83 1014.95 1015.18C1015.1 1014.97 1015.22 1014.8 1015.32 1014.65L1036.87 1036.2L1036.97 1036.24H1036.98C1036.99 1036.24 1037 1036.25 1037.02 1036.26C1037.05 1036.27 1037.1 1036.29 1037.17 1036.31C1037.31 1036.37 1037.51 1036.44 1037.77 1036.55C1038.3 1036.75 1039.08 1037.05 1040.07 1037.44C1042.06 1038.21 1044.94 1039.33 1048.46 1040.73C1055.51 1043.51 1065.15 1047.38 1075.53 1051.7C1096.31 1060.35 1120.01 1070.81 1131.83 1078.08C1134.67 1079.84 1137.83 1083.85 1141.16 1089.77C1144.49 1095.67 1147.95 1103.39 1151.44 1112.44C1158.42 1130.54 1165.48 1153.95 1171.76 1178.79C1184.31 1228.49 1193.65 1283.84 1192.74 1313.86C1192.29 1328.8 1187.41 1339.86 1180.37 1348.05C1173.32 1356.25 1164.08 1361.61 1154.87 1365.11C1145.66 1368.61 1136.5 1370.24 1129.64 1370.99C1126.21 1371.37 1123.36 1371.53 1121.36 1371.59C1120.37 1371.63 1119.58 1371.63 1119.05 1371.64C1118.79 1371.64 1118.58 1371.63 1118.45 1371.63C1118.38 1371.63 1118.33 1371.63 1118.29 1371.63C1118.28 1371.63 1118.26 1371.63 1118.26 1371.63H1118.24L1117.78 1371.62L1117.73 1372.08L1110.81 1437.9L1110.78 1438.13L1110.94 1438.3C1117.88 1445.6 1124.09 1457.94 1129.57 1473.04C1134.98 1487.95 1139.65 1505.51 1143.63 1523.44H802.82C806.132 1515.6 808.581 1504.71 810.396 1492.77C812.266 1480.46 813.467 1467 814.238 1454.51C815.008 1442.03 815.35 1430.53 815.497 1422.15C815.571 1417.96 815.596 1414.55 815.604 1412.18C815.607 1411 815.607 1410.08 815.605 1409.46C815.604 1409.14 815.603 1408.91 815.602 1408.74C815.601 1408.66 815.6 1408.6 815.6 1408.56V1408.5C815.598 1408.5 815.572 1408.5 815.1 1408.51L815.6 1408.5L815.598 1408.3L815.453 1408.15L815.292 1407.99L815.067 1408.01C800.912 1408.91 788.867 1405.47 780.357 1401.8C776.102 1399.97 772.734 1398.07 770.432 1396.64C769.281 1395.93 768.397 1395.33 767.802 1394.91C767.505 1394.7 767.279 1394.53 767.129 1394.42C767.054 1394.36 766.998 1394.32 766.961 1394.29C766.953 1394.29 766.947 1394.28 766.941 1394.28C751.537 1377.04 741.219 1350.95 734.426 1321.44C727.631 1291.93 724.374 1259.05 723.055 1228.32C721.735 1197.6 722.353 1169.04 723.3 1148.15C723.774 1137.71 724.33 1129.19 724.768 1123.28C724.987 1120.33 725.176 1118.03 725.311 1116.47C725.378 1115.69 725.431 1115.09 725.468 1114.69C725.484 1114.51 725.497 1114.37 725.506 1114.27C764.635 1078.81 801.076 1055.66 827.74 1041.37C841.087 1034.22 851.985 1029.28 859.542 1026.14C863.321 1024.57 866.264 1023.45 868.262 1022.72C869.261 1022.35 870.024 1022.09 870.535 1021.91C870.791 1021.82 870.984 1021.76 871.113 1021.72C871.177 1021.69 871.226 1021.68 871.258 1021.67C871.274 1021.66 871.286 1021.66 871.294 1021.66C871.298 1021.66 871.3 1021.65 871.302 1021.65H871.305L871.392 1021.63L871.463 1021.57L898.08 1000.48Z" fill="#F1F0F7"/>
<path d="M815.6 1408.5V1408.56C815.6 1408.6 815.601 1408.66 815.602 1408.74C815.603 1408.91 815.604 1409.14 815.605 1409.46C815.607 1410.08 815.607 1411 815.604 1412.18C815.596 1414.55 815.571 1417.96 815.497 1422.15C815.35 1430.53 815.008 1442.03 814.238 1454.51C813.467 1467 812.266 1480.46 810.396 1492.77C808.581 1504.71 806.132 1515.6 802.82 1523.44H1143.63C1139.65 1505.51 1134.98 1487.95 1129.57 1473.04C1124.09 1457.94 1117.88 1445.6 1110.94 1438.3L1110.78 1438.13L1110.81 1437.9L1117.73 1372.08L1117.78 1371.62L1118.24 1371.63H1118.26C1118.26 1371.63 1118.28 1371.63 1118.29 1371.63C1118.33 1371.63 1118.38 1371.63 1118.45 1371.63C1118.58 1371.63 1118.79 1371.64 1119.05 1371.64C1119.58 1371.63 1120.37 1371.63 1121.36 1371.59C1123.36 1371.53 1126.21 1371.37 1129.64 1370.99C1136.5 1370.24 1145.66 1368.61 1154.87 1365.11C1164.08 1361.61 1173.32 1356.25 1180.37 1348.05C1187.41 1339.86 1192.29 1328.8 1192.74 1313.86C1193.65 1283.84 1184.31 1228.49 1171.76 1178.79C1165.48 1153.95 1158.42 1130.54 1151.44 1112.44C1147.95 1103.39 1144.49 1095.67 1141.16 1089.77C1137.83 1083.85 1134.67 1079.84 1131.83 1078.08C1120.01 1070.81 1096.31 1060.35 1075.53 1051.7C1065.15 1047.38 1055.51 1043.51 1048.46 1040.73C1044.94 1039.33 1042.06 1038.21 1040.07 1037.44C1039.08 1037.05 1038.3 1036.75 1037.77 1036.55C1037.51 1036.44 1037.31 1036.37 1037.17 1036.31C1037.1 1036.29 1037.05 1036.27 1037.02 1036.26C1037 1036.25 1036.99 1036.24 1036.98 1036.24H1036.97L1036.87 1036.2L1015.32 1014.65C1015.22 1014.8 1015.1 1014.97 1014.95 1015.18C1014.47 1015.83 1013.77 1016.76 1012.87 1017.92C1011.05 1020.23 1008.39 1023.41 1005.03 1026.89C998.312 1033.85 988.762 1042.05 977.47 1046.93C966.165 1051.81 953.096 1053.37 939.404 1047.01C925.822 1040.7 911.702 1026.63 898.08 1000.48L871.463 1021.57L871.392 1021.63L871.305 1021.65H871.302C871.3 1021.65 871.298 1021.66 871.294 1021.66C871.286 1021.66 871.274 1021.66 871.258 1021.67C871.226 1021.68 871.177 1021.69 871.113 1021.72C870.984 1021.76 870.791 1021.82 870.535 1021.91C870.024 1022.09 869.261 1022.35 868.262 1022.72C866.264 1023.45 863.321 1024.57 859.542 1026.14C851.985 1029.28 841.087 1034.22 827.74 1041.37C801.076 1055.66 764.635 1078.81 725.506 1114.27C725.497 1114.37 725.484 1114.51 725.468 1114.69C725.431 1115.09 725.378 1115.69 725.311 1116.47C725.176 1118.03 724.987 1120.33 724.768 1123.28C724.33 1129.19 723.774 1137.71 723.3 1148.15C722.353 1169.04 721.735 1197.6 723.055 1228.32C724.374 1259.05 727.631 1291.93 734.426 1321.44C741.219 1350.95 751.537 1377.04 766.941 1394.28C766.947 1394.28 766.953 1394.29 766.961 1394.29C766.998 1394.32 767.054 1394.36 767.129 1394.42C767.279 1394.53 767.505 1394.7 767.802 1394.91C768.397 1395.33 769.281 1395.93 770.432 1396.64C772.734 1398.07 776.102 1399.97 780.357 1401.8C788.867 1405.47 800.912 1408.91 815.067 1408.01L815.292 1407.99L815.453 1408.15L815.598 1408.3L815.6 1408.5ZM815.6 1408.5C815.598 1408.5 815.572 1408.5 815.1 1408.51L815.6 1408.5Z" stroke="#9EA5F3"/>
<g opacity="0.05">
<path d="M898.088 1000.47C899.77 1003.7 901.46 1006.74 903.157 1009.61C903.768 1010.65 904.41 1011.59 905.006 1012.55C906.179 1014.45 907.361 1016.37 908.546 1018.11C909.275 1019.18 910.019 1020.14 910.732 1021.13C911.805 1022.62 912.89 1024.13 913.975 1025.51C914.738 1026.47 915.505 1027.33 916.25 1028.21C917.3 1029.45 918.359 1030.7 919.42 1031.84H919.421C919.807 1032.26 920.193 1032.65 920.577 1033.03L921.72 1034.17C922.763 1035.2 923.813 1036.23 924.866 1037.17C925.637 1037.86 926.401 1038.48 927.16 1039.1C928.204 1039.96 929.255 1040.79 930.306 1041.55C931.063 1042.1 931.816 1042.61 932.565 1043.1C933.616 1043.79 934.668 1044.44 935.718 1045.04C936.454 1045.45 937.19 1045.85 937.926 1046.22C938.986 1046.75 940.042 1047.24 941.095 1047.68C941.272 1047.75 941.451 1047.84 941.65 1047.94C941.719 1047.98 941.792 1048.01 941.865 1048.05C938.14 1062.9 930.724 1096.16 928.426 1133.6C926.112 1171.32 928.987 1213.35 946.144 1245.06C946.14 1245.13 946.135 1245.24 946.128 1245.37C946.111 1245.68 946.088 1246.13 946.058 1246.72C945.999 1247.91 945.913 1249.66 945.812 1251.94C945.61 1256.5 945.344 1263.14 945.087 1271.49C944.571 1288.19 944.091 1311.72 944.232 1339.04C944.513 1393.49 947.262 1462.99 957.12 1523.44H802.82C806.133 1515.6 808.582 1504.71 810.396 1492.77C812.266 1480.46 813.467 1466.99 814.238 1454.51C815.009 1442.03 815.349 1430.53 815.497 1422.15C815.571 1417.96 815.597 1414.55 815.604 1412.18C815.608 1411 815.606 1410.08 815.604 1409.45C815.603 1409.14 815.602 1408.9 815.601 1408.74C815.601 1408.66 815.601 1408.6 815.6 1408.56V1408.5C815.6 1408.5 815.586 1408.5 815.1 1408.5H815.6L815.595 1407.97L815.068 1408.01C804.451 1408.68 795.022 1406.92 787.38 1404.44C781.011 1402.38 775.886 1399.83 772.355 1397.79C770.59 1396.78 769.225 1395.89 768.302 1395.26C767.841 1394.94 767.49 1394.69 767.255 1394.51C767.138 1394.43 767.05 1394.36 766.992 1394.32C766.972 1394.3 766.956 1394.29 766.943 1394.28C748.644 1373.81 737.527 1340.85 730.966 1304.53C724.426 1268.32 722.426 1228.85 722.304 1195.27H722.308L722.307 1194.96C722.232 1171.94 723.038 1151.72 723.862 1137.25C724.274 1130.02 724.691 1124.22 725.005 1120.24C725.161 1118.25 725.293 1116.71 725.384 1115.66C725.43 1115.14 725.466 1114.75 725.491 1114.48C725.498 1114.4 725.505 1114.33 725.51 1114.27C735.257 1105.44 744.836 1097.37 754.139 1090.01C782.186 1067.82 807.722 1052.1 827.744 1041.37C841.091 1034.21 851.989 1029.28 859.547 1026.14C863.325 1024.57 866.269 1023.45 868.266 1022.72C869.265 1022.35 870.028 1022.08 870.54 1021.91C870.795 1021.82 870.988 1021.76 871.117 1021.71C871.181 1021.69 871.23 1021.68 871.262 1021.67C871.278 1021.66 871.291 1021.66 871.298 1021.65C871.302 1021.65 871.304 1021.65 871.306 1021.65H871.309L871.396 1021.62L871.467 1021.57L885.013 1010.83L898.088 1000.47Z" fill="#231F20"/>
<path d="M815.6 1408.5V1408.56C815.601 1408.6 815.601 1408.66 815.601 1408.74C815.602 1408.9 815.603 1409.14 815.604 1409.45C815.606 1410.08 815.608 1411 815.604 1412.18C815.597 1414.55 815.571 1417.96 815.497 1422.15C815.349 1430.53 815.009 1442.03 814.238 1454.51C813.467 1466.99 812.266 1480.46 810.396 1492.77C808.582 1504.71 806.133 1515.6 802.82 1523.44H957.12C947.262 1462.99 944.513 1393.49 944.232 1339.04C944.091 1311.72 944.571 1288.19 945.087 1271.49C945.344 1263.14 945.61 1256.5 945.812 1251.94C945.913 1249.66 945.999 1247.91 946.058 1246.72C946.088 1246.13 946.111 1245.68 946.128 1245.37C946.135 1245.24 946.14 1245.13 946.144 1245.06C928.987 1213.35 926.112 1171.32 928.426 1133.6C930.724 1096.16 938.14 1062.9 941.865 1048.05C941.792 1048.01 941.719 1047.98 941.65 1047.94C941.451 1047.84 941.272 1047.75 941.095 1047.68C940.042 1047.24 938.986 1046.75 937.926 1046.22C937.19 1045.85 936.454 1045.45 935.718 1045.04C934.668 1044.44 933.616 1043.79 932.565 1043.1C931.816 1042.61 931.063 1042.1 930.306 1041.55C929.255 1040.79 928.204 1039.96 927.16 1039.1C926.401 1038.48 925.637 1037.86 924.866 1037.17C923.813 1036.23 922.763 1035.2 921.72 1034.17L920.577 1033.03C920.193 1032.65 919.807 1032.26 919.421 1031.84H919.42C918.359 1030.7 917.3 1029.45 916.25 1028.21C915.505 1027.33 914.738 1026.47 913.975 1025.51C912.89 1024.13 911.805 1022.62 910.732 1021.13C910.019 1020.14 909.275 1019.18 908.546 1018.11C907.361 1016.37 906.179 1014.45 905.006 1012.55C904.41 1011.59 903.768 1010.65 903.157 1009.61C901.46 1006.74 899.77 1003.7 898.088 1000.47L885.013 1010.83L871.467 1021.57L871.396 1021.62L871.309 1021.65H871.306C871.304 1021.65 871.302 1021.65 871.298 1021.65C871.291 1021.66 871.278 1021.66 871.262 1021.67C871.23 1021.68 871.181 1021.69 871.117 1021.71C870.988 1021.76 870.795 1021.82 870.54 1021.91C870.028 1022.08 869.265 1022.35 868.266 1022.72C866.269 1023.45 863.325 1024.57 859.547 1026.14C851.989 1029.28 841.091 1034.21 827.744 1041.37C807.722 1052.1 782.186 1067.82 754.139 1090.01C744.836 1097.37 735.257 1105.44 725.51 1114.27C725.505 1114.33 725.498 1114.4 725.491 1114.48C725.466 1114.75 725.43 1115.14 725.384 1115.66C725.293 1116.71 725.161 1118.25 725.005 1120.24C724.691 1124.22 724.274 1130.02 723.862 1137.25C723.038 1151.72 722.232 1171.94 722.307 1194.96L722.308 1195.27H722.304C722.426 1228.85 724.426 1268.32 730.966 1304.53C737.527 1340.85 748.644 1373.81 766.943 1394.28C766.956 1394.29 766.972 1394.3 766.992 1394.32C767.05 1394.36 767.138 1394.43 767.255 1394.51C767.49 1394.69 767.841 1394.94 768.302 1395.26C769.225 1395.89 770.59 1396.78 772.355 1397.79C775.886 1399.83 781.011 1402.38 787.38 1404.44C795.022 1406.92 804.451 1408.68 815.068 1408.01L815.595 1407.97L815.6 1408.5ZM815.6 1408.5C815.6 1408.5 815.586 1408.5 815.1 1408.5H815.6Z" stroke="#9EA5F3"/>
</g>
<path d="M1043.67 1037.82C1053.42 1040.15 1072.6 1044.89 1091.86 1050.55C1111.46 1056.31 1131.05 1063 1140.85 1069.03C1142.26 1069.89 1143.79 1071.43 1145.43 1073.6C1147.05 1075.77 1148.77 1078.55 1150.54 1081.87C1154.09 1088.5 1157.88 1097.27 1161.75 1107.59C1169.5 1128.22 1177.6 1154.99 1184.91 1183.2C1199.52 1239.64 1210.92 1301.72 1210.01 1331.74C1209.56 1346.66 1204.03 1357.21 1196 1364.69C1187.95 1372.17 1177.37 1376.59 1166.81 1379.14C1156.24 1381.69 1145.73 1382.37 1137.85 1382.41C1133.91 1382.43 1130.64 1382.29 1128.35 1382.14C1127.2 1382.07 1126.3 1382 1125.69 1381.94C1125.38 1381.92 1125.15 1381.89 1124.99 1381.88C1124.92 1381.87 1124.86 1381.86 1124.82 1381.86C1124.8 1381.86 1124.78 1381.85 1124.77 1381.85H1124.76L1124.25 1381.79L1124.2 1382.3L1118.73 1438.85L1118.71 1439.08L1118.86 1439.24C1125.6 1446.33 1131.53 1458.4 1136.71 1473.31C1141.82 1488.04 1146.19 1505.47 1149.86 1523.44H1064.2C1057.05 1450.47 1047.75 1346.89 1042.33 1252.6C1039.61 1205.35 1037.87 1160.44 1037.86 1122.88C1037.85 1085.65 1039.54 1055.68 1043.67 1037.82Z" fill="#1A237E" stroke="#9EA5F3"/>
<path d="M870.84 1022.12C870.956 1022.68 871.129 1023.51 871.353 1024.6C871.801 1026.78 872.455 1030.01 873.281 1034.19C874.932 1042.56 877.267 1054.75 880.003 1070.04C885.474 1100.62 892.547 1143.6 898.952 1193.2C911.745 1292.26 921.871 1417.69 911.274 1523.44H784.375C784.777 1522.78 785.162 1522.14 785.563 1521.6L785.802 1521.3C790.44 1515.74 793.811 1506.75 796.272 1496.47C798.738 1486.18 800.308 1474.52 801.305 1463.57C802.303 1452.61 802.73 1442.34 802.908 1434.8C802.997 1431.04 803.023 1427.96 803.027 1425.82C803.029 1424.75 803.026 1423.91 803.022 1423.34C803.02 1423.06 803.018 1422.84 803.016 1422.7C803.016 1422.62 803.015 1422.57 803.014 1422.53C803.014 1422.51 803.014 1422.5 803.013 1422.49V1422.47C803.013 1422.47 803.013 1422.47 802.513 1422.48L803.013 1422.47L803.006 1421.95L802.482 1421.98C788.341 1422.88 770.761 1417.9 756.669 1412.65C749.633 1410.03 743.485 1407.36 739.096 1405.34C736.902 1404.33 735.149 1403.48 733.944 1402.89C733.342 1402.59 732.877 1402.36 732.563 1402.2C732.406 1402.12 732.287 1402.06 732.207 1402.02C732.193 1402.01 732.181 1402 732.17 1402C720.715 1389.16 713.752 1371.04 709.766 1349.94C705.775 1328.82 704.778 1304.76 705.215 1280.15C705.652 1255.54 707.522 1230.39 709.26 1207.09C710.998 1183.8 712.604 1162.33 712.505 1145.12C712.358 1119.77 724.511 1095.99 745.006 1081.06C778.333 1056.78 809.902 1041.93 833.136 1033.15C844.753 1028.76 854.286 1025.89 860.911 1024.12C864.223 1023.23 866.809 1022.62 868.565 1022.23C869.443 1022.03 870.114 1021.89 870.564 1021.8C870.636 1021.79 870.703 1021.77 870.763 1021.76C870.785 1021.86 870.811 1021.98 870.84 1022.12Z" fill="#1A237E"/>
<path d="M803.013 1422.47V1422.49C803.014 1422.5 803.014 1422.51 803.014 1422.53C803.015 1422.57 803.016 1422.62 803.016 1422.7C803.018 1422.84 803.02 1423.06 803.022 1423.34C803.026 1423.91 803.029 1424.75 803.027 1425.82C803.023 1427.96 802.997 1431.04 802.908 1434.8C802.73 1442.34 802.303 1452.61 801.305 1463.57C800.308 1474.52 798.738 1486.18 796.272 1496.47C793.811 1506.75 790.44 1515.74 785.802 1521.3L785.563 1521.6C785.162 1522.14 784.777 1522.78 784.375 1523.44H911.274C921.871 1417.69 911.745 1292.26 898.952 1193.2C892.547 1143.6 885.474 1100.62 880.003 1070.04C877.267 1054.75 874.932 1042.56 873.281 1034.19C872.455 1030.01 871.801 1026.78 871.353 1024.6C871.129 1023.51 870.956 1022.68 870.84 1022.12C870.811 1021.98 870.785 1021.86 870.763 1021.76C870.703 1021.77 870.636 1021.79 870.564 1021.8C870.114 1021.89 869.443 1022.03 868.565 1022.23C866.809 1022.62 864.223 1023.23 860.911 1024.12C854.286 1025.89 844.753 1028.76 833.136 1033.15C809.902 1041.93 778.333 1056.78 745.006 1081.06C724.511 1095.99 712.358 1119.77 712.505 1145.12C712.604 1162.33 710.998 1183.8 709.26 1207.09C707.522 1230.39 705.652 1255.54 705.215 1280.15C704.778 1304.76 705.775 1328.82 709.766 1349.94C713.752 1371.04 720.715 1389.16 732.17 1402C732.181 1402 732.193 1402.01 732.207 1402.02C732.287 1402.06 732.406 1402.12 732.563 1402.2C732.877 1402.36 733.342 1402.59 733.944 1402.89C735.149 1403.48 736.902 1404.33 739.096 1405.34C743.485 1407.36 749.633 1410.03 756.669 1412.65C770.761 1417.9 788.341 1422.88 802.482 1421.98L803.006 1421.95L803.013 1422.47ZM803.013 1422.47C803.013 1422.47 803.013 1422.47 802.513 1422.48L803.013 1422.47Z" stroke="#9EA5F3"/>
<path d="M813.962 1239.66C814.178 1243.24 814.476 1248.39 814.809 1254.77C815.482 1267.69 816.298 1285.67 816.87 1305.88C818.014 1346.31 818.179 1395.69 814.274 1431.5C809.741 1473.07 818.818 1504.35 827.293 1523.44H784.375C784.856 1522.65 785.312 1521.89 785.802 1521.3C790.439 1515.74 793.81 1506.75 796.272 1496.47C798.737 1486.18 800.307 1474.52 801.305 1463.57C802.303 1452.61 802.73 1442.34 802.907 1434.81C802.996 1431.04 803.023 1427.96 803.027 1425.82C803.03 1424.75 803.026 1423.91 803.022 1423.34C803.02 1423.06 803.018 1422.84 803.017 1422.7C803.016 1422.62 803.014 1422.57 803.014 1422.53V1422.47C803.013 1422.47 802.998 1422.47 802.514 1422.48L803.014 1422.47L803.006 1421.95L802.482 1421.98C799.243 1422.19 796.21 1422.2 793.348 1422.08L813.962 1239.66Z" fill="#1A237E"/>
<path d="M803.014 1422.47V1422.53C803.014 1422.57 803.016 1422.62 803.017 1422.7C803.018 1422.84 803.02 1423.06 803.022 1423.34C803.026 1423.91 803.03 1424.75 803.027 1425.82C803.023 1427.96 802.996 1431.04 802.907 1434.81C802.73 1442.34 802.303 1452.61 801.305 1463.57C800.307 1474.52 798.737 1486.18 796.272 1496.47C793.81 1506.75 790.439 1515.74 785.802 1521.3C785.312 1521.89 784.856 1522.65 784.375 1523.44H827.293C818.818 1504.35 809.741 1473.07 814.274 1431.5C818.179 1395.69 818.014 1346.31 816.87 1305.88C816.298 1285.67 815.482 1267.69 814.809 1254.77C814.476 1248.39 814.178 1243.24 813.962 1239.66L793.348 1422.08C796.21 1422.2 799.243 1422.19 802.482 1421.98L803.006 1421.95L803.014 1422.47ZM803.014 1422.47C803.013 1422.47 802.998 1422.47 802.514 1422.48L803.014 1422.47Z" stroke="#9EA5F3"/>
<path d="M1045.89 1417.2C1047.95 1416.92 1049.97 1416.89 1051.9 1417.47L1051.96 1417.49H1052.02C1056.95 1417.78 1061.89 1418.32 1066.79 1418.93C1073.27 1419.73 1079.73 1420.7 1086.11 1422.02C1091.41 1423.12 1096.67 1424.4 1101.64 1426.49C1106.26 1428.43 1110.17 1431.13 1113.85 1434.48L1114.58 1435.16C1116.17 1436.66 1117.92 1438.01 1119.58 1439.36C1121.26 1440.72 1122.87 1442.11 1124.24 1443.73C1125.24 1444.92 1126.13 1446.27 1126.11 1447.68L1126.09 1447.96C1125.96 1449.22 1124.94 1450.08 1123.64 1450.53C1122.16 1451.04 1120.49 1451.21 1118.8 1451.14C1114.67 1450.42 1110.77 1448.84 1106.93 1446.97C1105.01 1446.04 1103.11 1445.03 1101.21 1444.03C1099.79 1443.28 1098.37 1442.53 1096.95 1441.82L1095.53 1441.12C1093.02 1439.91 1090.28 1439.16 1087.64 1438.46C1083.68 1437.42 1079.62 1436.72 1075.55 1436.3C1072.77 1436.01 1070 1435.85 1067.22 1435.79L1067.04 1436.77C1067.87 1437.05 1068.68 1437.34 1069.48 1437.66C1073.42 1439.21 1076.85 1441.59 1080.66 1443.65C1084.12 1445.52 1087.41 1447.26 1090.37 1449.72L1090.96 1450.22L1091.03 1450.29L1091.07 1450.32L1091.11 1450.35C1093.35 1451.68 1095.48 1453.17 1097.45 1454.94L1097.85 1455.3C1101.45 1458.65 1104.54 1462.49 1107.38 1466.51L1107.95 1467.32C1109.09 1468.98 1110.32 1470.58 1111.52 1472.18L1111.54 1472.21L1111.57 1472.23C1113.69 1474.32 1115.78 1476.43 1117.69 1478.66C1119.67 1480.97 1121.67 1483.75 1122.18 1486.67C1122.33 1487.5 1122.25 1488.17 1122.03 1488.7C1121.82 1489.23 1121.45 1489.65 1120.96 1489.99C1120.03 1490.64 1118.69 1490.94 1117.29 1490.96H1117.01C1112.16 1490.87 1108.8 1487.49 1105.82 1483.74C1101.94 1478.88 1097.72 1474.47 1092.98 1470.43C1088.14 1466.31 1082.75 1463.33 1076.65 1461.5C1076.53 1461.47 1076.41 1461.44 1076.3 1461.41C1076.19 1461.38 1076.09 1461.35 1075.99 1461.33L1075.62 1462.25C1076.02 1462.46 1076.35 1462.61 1076.68 1462.82C1079.12 1464.34 1080.75 1466.77 1082.37 1469.26C1085.99 1474.85 1090.16 1480.08 1094.17 1485.37L1095.88 1487.64C1097.62 1489.98 1099.4 1492.27 1101.19 1494.56L1102.99 1496.84C1103.79 1497.86 1106.45 1501.08 1108.07 1504.14C1108.89 1505.68 1109.38 1507.08 1109.32 1508.1C1109.29 1508.59 1109.13 1508.96 1108.84 1509.23C1108.54 1509.5 1108.05 1509.73 1107.26 1509.81C1105.67 1509.98 1103.94 1509.48 1102.33 1508.87L1101.66 1508.6C1099.27 1507.64 1097.09 1506.12 1095.13 1504.4C1090.8 1500.59 1087.37 1495.87 1083.99 1491.14C1082.21 1488.64 1080.46 1485.87 1078.29 1483.56C1075.49 1480.57 1071.83 1478.57 1068.11 1477.13C1062.2 1474.85 1056.05 1473.6 1049.85 1472.78L1049.59 1473.74C1051.68 1474.59 1053.75 1475.44 1055.8 1476.34C1064.61 1480.22 1069.44 1486.86 1075.34 1494.29C1076.76 1496.09 1078.43 1497.66 1080.05 1499.21C1081.67 1500.77 1083.25 1502.31 1084.55 1504.08C1085.33 1505.13 1086.04 1506.45 1086.29 1507.74C1086.54 1509.01 1086.33 1510.22 1085.31 1511.19C1084.58 1511.89 1083.64 1512.09 1082.61 1512C1081.58 1511.91 1080.5 1511.52 1079.58 1511.08C1076.5 1509.61 1073.85 1507.51 1071.34 1505.19C1070.09 1504.03 1068.87 1502.82 1067.64 1501.6C1066.72 1500.69 1065.8 1499.78 1064.86 1498.89L1063.91 1498.01C1058.02 1492.65 1050.8 1489.16 1043.94 1485.45C1035.91 1481.11 1028.95 1482.78 1020.57 1483.63C1016.45 1484.05 1012.31 1484.3 1008.17 1484.39C999.782 1484.6 991.254 1484.34 982.975 1483.05C979.848 1482.56 976.73 1481.63 974.263 1479.71C972.373 1478.24 971.068 1476.35 970.208 1474.19L970.199 1474.17L970.189 1474.14L970.01 1473.78C968.221 1470.02 968.004 1465.68 968.735 1461.36C969.489 1456.9 971.246 1452.51 973.271 1448.89C975.571 1444.77 978.295 1440.89 981.799 1437.77C985.179 1434.75 989.227 1432.59 993.515 1431.08C999.336 1429.03 1005.41 1427.63 1011.39 1425.94C1017.49 1424.21 1023.59 1422.51 1029.72 1420.93C1035.07 1419.56 1040.47 1417.92 1045.89 1417.19V1417.2Z" fill="#FCC2B4" stroke="#9EA5F3"/>
<g style="mix-blend-mode:screen">
<path d="M1081.57 1421.15C1083.09 1421.42 1084.6 1421.71 1086.11 1422.02C1091.41 1423.12 1096.67 1424.4 1101.64 1426.49C1106.26 1428.43 1110.17 1431.14 1113.85 1434.48L1114.58 1435.16C1116.17 1436.66 1117.92 1438.01 1119.58 1439.36C1121.26 1440.73 1122.87 1442.11 1124.24 1443.74C1124.55 1444.1 1124.85 1444.49 1125.11 1444.89C1117.99 1439.24 1110.61 1433.86 1102.61 1429.44L1102.5 1429.37C1095.8 1425.68 1088.84 1423 1081.57 1421.15ZM1045.89 1417.2C1047.71 1416.95 1049.49 1416.91 1051.21 1417.29C1049.27 1417.25 1047.32 1417.24 1045.37 1417.27C1045.54 1417.25 1045.72 1417.22 1045.89 1417.2Z" fill="#F6DFC9" stroke="#9EA5F3"/>
</g>
<g style="mix-blend-mode:screen">
<path d="M1059.9 1436.81C1062.9 1436.47 1065.98 1436.8 1068.99 1437.48C1069.08 1437.51 1069.16 1437.54 1069.23 1437.57C1069.32 1437.6 1069.4 1437.63 1069.48 1437.66C1073.42 1439.22 1076.85 1441.59 1080.66 1443.65C1084.12 1445.53 1087.41 1447.26 1090.37 1449.72L1090.96 1450.22L1091.03 1450.29L1091.07 1450.33L1091.11 1450.35C1093.35 1451.68 1095.48 1453.17 1097.45 1454.95L1097.85 1455.3C1101.69 1458.87 1104.95 1463.01 1107.95 1467.32C1109.1 1468.98 1110.32 1470.58 1111.52 1472.18L1111.54 1472.21L1111.57 1472.23C1113.69 1474.32 1115.78 1476.43 1117.69 1478.66C1119.67 1480.97 1121.67 1483.75 1122.18 1486.67C1122.36 1487.7 1122.19 1488.47 1121.82 1489.07C1119.8 1483.93 1116.55 1479.38 1112.93 1475.3L1112.8 1475.16C1108.97 1470.85 1104.7 1466.96 1100.4 1463.16C1096.08 1459.36 1091.81 1455.44 1087.2 1451.93C1082.38 1448.28 1077.27 1444.82 1071.79 1442.18C1069.58 1441.12 1067.33 1440.15 1065.09 1439.17C1063.35 1438.4 1061.61 1437.63 1059.9 1436.81Z" fill="#F4B79F" stroke="#9EA5F3"/>
</g>
<g style="mix-blend-mode:multiply">
<path d="M1068.93 1456.11C1074.1 1457.23 1079.15 1458.84 1083.96 1461.11C1089.85 1463.89 1095.24 1467.6 1100.03 1472.01L1100.98 1472.9C1103.37 1475.18 1105.69 1477.6 1107.68 1480.21C1108.42 1481.17 1109.11 1482.18 1109.8 1483.2C1110.5 1484.22 1111.2 1485.25 1111.96 1486.24C1112.76 1487.28 1113.77 1488.46 1114.91 1489.48C1115.53 1490.03 1116.19 1490.54 1116.88 1490.95C1112.1 1490.81 1108.77 1487.46 1105.82 1483.74C1101.95 1478.88 1097.72 1474.47 1092.98 1470.43C1088.91 1466.97 1084.42 1464.36 1079.49 1462.52C1076.13 1460.18 1072.48 1458.17 1068.93 1456.11Z" fill="#F6DFC9" stroke="#9EA5F3"/>
</g>
<g style="mix-blend-mode:multiply">
<path d="M968.434 1467.74C970.828 1469.71 973.394 1471.37 974.916 1472.32H974.913L975.46 1472.66C978.071 1474.27 980.837 1475.97 983.759 1477.11C989.991 1479.55 997.015 1480.27 1003.57 1480.57C1010.49 1480.88 1017.39 1480.56 1024.26 1480.29C1029.73 1480.08 1035.11 1479.83 1040.47 1480.62L1041.54 1480.79C1046.83 1481.71 1051.86 1483.68 1056.33 1486.65C1062.3 1490.62 1067.02 1496 1071.93 1501.29C1074.11 1503.63 1076.32 1506.11 1078.78 1508.24L1079.27 1508.67C1080.81 1509.95 1082.66 1511.05 1084.62 1511.63C1084.64 1511.63 1084.66 1511.64 1084.69 1511.64C1084.07 1511.97 1083.37 1512.07 1082.61 1512C1081.58 1511.91 1080.5 1511.52 1079.58 1511.08L1079.01 1510.8C1076.17 1509.35 1073.7 1507.37 1071.34 1505.19C1070.09 1504.03 1068.87 1502.82 1067.64 1501.6C1066.42 1500.39 1065.19 1499.17 1063.91 1498.02C1058.01 1492.65 1050.8 1489.16 1043.94 1485.45C1035.91 1481.11 1028.95 1482.78 1020.57 1483.63C1016.45 1484.05 1012.31 1484.3 1008.17 1484.39C999.782 1484.6 991.254 1484.34 982.975 1483.05C979.847 1482.56 976.729 1481.63 974.263 1479.71C972.373 1478.24 971.067 1476.35 970.208 1474.19L970.199 1474.17L970.189 1474.15L969.975 1473.71C969.102 1471.84 968.615 1469.82 968.434 1467.74Z" fill="#F6DFC9" stroke="#9EA5F3"/>
</g>
<g style="mix-blend-mode:multiply">
<path d="M1043.56 1470.46C1049.33 1470.13 1055.15 1470.46 1060.82 1471.57C1067.32 1472.84 1073.78 1475.11 1079.15 1478.97C1082.17 1481.13 1084.66 1483.89 1086.96 1486.86C1088.12 1488.35 1089.22 1489.88 1090.31 1491.42C1091.13 1492.58 1091.95 1493.74 1092.77 1494.88L1093.61 1496.02C1095.87 1499.05 1098.3 1502.04 1101.13 1504.63C1103.05 1506.37 1105.51 1507.77 1108.15 1508.13C1108.52 1508.18 1108.9 1508.21 1109.28 1508.21C1109.24 1508.59 1109.12 1508.89 1108.92 1509.12C1108.64 1509.45 1108.14 1509.72 1107.26 1509.81C1105.45 1510.01 1103.43 1509.33 1101.65 1508.61C1099.27 1507.65 1097.09 1506.13 1095.13 1504.41C1090.8 1500.6 1087.37 1495.88 1083.99 1491.15C1082.32 1488.8 1080.68 1486.22 1078.69 1484L1078.29 1483.56C1075.57 1480.67 1072.04 1478.69 1068.42 1477.26L1068.1 1477.13C1062.2 1474.85 1056.06 1473.6 1049.86 1472.79C1047.67 1472.14 1045.54 1471.45 1043.56 1470.46Z" fill="#F6DFC9" stroke="#9EA5F3"/>
</g>
<g style="mix-blend-mode:multiply">
<path d="M1069.43 1435.54C1074.54 1435.06 1079.64 1434.8 1084.73 1435.14C1091.09 1435.57 1097.28 1437.08 1103.02 1439.88C1105.94 1441.3 1108.83 1442.96 1111.39 1444.94L1111.89 1445.34C1114 1447.05 1116.13 1448.96 1118.64 1450.29L1119.14 1450.55C1119.58 1450.77 1120.04 1450.96 1120.51 1451.12C1119.95 1451.16 1119.38 1451.17 1118.8 1451.14C1114.67 1450.42 1110.77 1448.84 1106.93 1446.98C1105.01 1446.04 1103.11 1445.04 1101.21 1444.03C1099.32 1443.03 1097.43 1442.04 1095.52 1441.12C1093.33 1440.06 1090.96 1439.35 1088.64 1438.73L1087.64 1438.46C1084.17 1437.55 1080.64 1436.9 1077.07 1436.47L1075.55 1436.3C1073.91 1436.13 1072.27 1436.01 1070.64 1435.93C1070.24 1435.8 1069.83 1435.67 1069.43 1435.54Z" fill="#F6DFC9" stroke="#9EA5F3"/>
</g>
<path d="M760.784 1337.02C783.359 1326.93 814.467 1333.01 841.412 1353.76C854.965 1364.21 892.725 1385.7 927.047 1404.56C944.219 1414 960.545 1422.78 972.579 1429.21C978.595 1432.42 983.539 1435.04 986.978 1436.86C988.698 1437.77 990.042 1438.48 990.956 1438.97C991.387 1439.19 991.723 1439.37 991.958 1439.49L979.046 1472.49C979.012 1472.48 978.976 1472.48 978.937 1472.47C978.601 1472.42 978.101 1472.33 977.448 1472.23C976.141 1472.01 974.218 1471.69 971.758 1471.27C966.839 1470.42 959.768 1469.19 951.168 1467.63C933.968 1464.5 910.65 1460.03 886.176 1454.69C861.701 1449.34 836.078 1443.13 814.264 1436.49C792.425 1429.85 774.482 1422.82 765.305 1415.87C728.504 1388 738.425 1347.02 760.784 1337.02Z" fill="#FCC2B4" stroke="#9EA5F3"/>
<path d="M1169 1305.3C1193.48 1301.79 1221.72 1316.17 1241.94 1343.53C1252.11 1357.29 1282.52 1388.31 1310.35 1415.87C1324.27 1429.65 1337.56 1442.58 1347.37 1452.06C1352.27 1456.8 1356.31 1460.68 1359.12 1463.38C1360.52 1464.72 1361.62 1465.78 1362.37 1466.49C1362.72 1466.83 1362.99 1467.09 1363.18 1467.27L1341.7 1495.47C1341.66 1495.46 1341.61 1495.44 1341.57 1495.42C1341.24 1495.29 1340.76 1495.09 1340.12 1494.83C1338.86 1494.31 1337 1493.55 1334.63 1492.56C1329.88 1490.59 1323.07 1487.73 1314.81 1484.18C1298.28 1477.08 1275.95 1467.23 1252.75 1456.22C1229.55 1445.21 1205.49 1433.05 1185.49 1421.32C1175.49 1415.45 1166.51 1409.7 1159.16 1404.26C1151.81 1398.81 1146.12 1393.7 1142.67 1389.12C1128.84 1370.72 1129.32 1350.65 1136.33 1334.72C1143.35 1318.75 1156.87 1307.04 1169 1305.3Z" fill="#FCC2B4" stroke="#9EA5F3"/>
<path d="M985.23 957.576C985.486 957.589 985.85 957.669 986.34 957.819C986.83 957.969 987.403 958.174 988.061 958.417L990.291 959.244C991.939 959.862 993.916 960.471 996.104 961.032L996.115 961.035C998.327 961.551 1000.77 961.998 1003.37 962.229L1003.38 962.23C1005.98 962.425 1008.47 962.386 1010.73 962.24L1010.74 962.239C1012.99 962.04 1015.04 961.763 1016.76 961.419C1018.45 961.116 1019.84 960.81 1020.88 960.664C1021.4 960.591 1021.79 960.567 1022.04 960.593C1022.14 960.603 1022.2 960.619 1022.24 960.631C1022.23 960.672 1022.21 960.746 1022.14 960.863C1022.02 961.09 1021.79 961.392 1021.42 961.75C1020.68 962.463 1019.45 963.338 1017.67 964.222V964.224C1015.97 965.085 1013.79 965.819 1011.28 966.337C1008.78 966.802 1005.96 967.015 1003.02 966.791C1000.09 966.531 997.336 965.862 994.934 964.995C992.542 964.076 990.509 962.991 988.967 961.863L988.964 961.861C987.393 960.73 986.301 959.654 985.662 958.814C985.34 958.391 985.148 958.047 985.059 957.8C985.021 957.694 985.011 957.627 985.008 957.588C985.044 957.579 985.113 957.569 985.23 957.576Z" fill="#FB9988" stroke="#9EA5F3"/>
<path d="M1506.59 1499.06L1097.48 1499.24L1247.95 1189.35L1657.06 1189.18L1506.59 1499.06Z" fill="#E2E5FF" stroke="#9EA5F3"/>
<path d="M1506.88 1498.62L1107.21 1499.22L1256 1196.17L1655.66 1195.57L1506.88 1498.62Z" fill="#CCCCFF" stroke="#9EA5F3"/>
<path d="M1655.01 1198.9L1258.34 1199.49H1258.03L1257.89 1199.77L1109.81 1499.22H1107.21L1256 1196.17L1655.83 1195.57L1655.01 1198.9Z" fill="#AFAEDE" stroke="#9EA5F3"/>
<g style="mix-blend-mode:multiply" opacity="0.2">
<path d="M1268 1200.12C1267.97 1200.24 1267.93 1200.41 1267.88 1200.62C1267.76 1201.12 1267.59 1201.87 1267.38 1202.84C1266.96 1204.79 1266.39 1207.64 1265.77 1211.29C1264.53 1218.57 1263.09 1229.02 1262.33 1241.67C1260.81 1266.97 1261.98 1301.08 1272.72 1336.31C1283.46 1371.55 1303.78 1407.92 1340.58 1437.71C1376.1 1466.47 1426.93 1489.07 1499.25 1498.64L1107.21 1499.22L1256 1196.17L1264.47 1196.16L1268 1200.12Z" fill="#BDD0FB"/>
<path d="M1268 1200.12C1267.97 1200.24 1267.93 1200.41 1267.88 1200.62C1267.76 1201.12 1267.59 1201.87 1267.38 1202.84C1266.96 1204.79 1266.39 1207.64 1265.77 1211.29C1264.53 1218.57 1263.09 1229.02 1262.33 1241.67C1260.81 1266.97 1261.98 1301.08 1272.72 1336.31C1283.46 1371.55 1303.78 1407.92 1340.58 1437.71C1376.1 1466.47 1426.93 1489.07 1499.25 1498.64L1107.21 1499.22L1256 1196.17L1264.47 1196.16L1268 1200.12Z" stroke="#9EA5F3"/>
</g>
<path d="M1509.06 1522.58L932.629 1523.44L932.553 1497.44L1508.98 1496.58L1509.06 1522.58Z" fill="#E2E5FF" stroke="#9EA5F3"/>
<path d="M1097.45 1523.19L932.629 1523.44L932.553 1497.45L1097.38 1497.2L1097.45 1523.19Z" fill="#D5DAF7" stroke="#9EA5F3"/>
<path d="M1584.71 1225.73L1577.45 1239.95L1471.51 1239.34L1478.78 1225.12L1584.71 1225.73Z" fill="#F1EEFF" stroke="#9EA5F3"/>
<path d="M215.58 1524.35H1761.21C1772.73 1524.35 1782.06 1533.69 1782.06 1545.2C1782.06 1556.72 1772.73 1566.05 1761.21 1566.05H215.58C204.064 1566.05 194.728 1556.72 194.728 1545.2C194.728 1533.68 204.064 1524.35 215.58 1524.35Z" fill="#E2ECFF" stroke="#9EA5F3"/>
<path d="M665.9 879.735V879.736C666.112 879.936 666.191 880.293 666.099 880.637C666.004 880.991 665.803 881.115 665.65 881.113H665.649L459.442 878.393C459.288 878.391 459.089 878.261 459.003 877.905C458.92 877.558 459.009 877.203 459.226 877.009L563.819 783.401L665.9 879.735Z" fill="#FAD362" stroke="#9EA5F3"/>
<path d="M461.712 877.058L661.957 878.245C664.545 878.26 666.629 880.369 666.617 882.957L665.983 989.621C665.969 992.208 663.86 994.295 661.271 994.279L461.024 993.095C458.517 993.08 456.482 991.099 456.371 988.621L456.366 988.38L456.997 881.718C457.012 879.129 459.124 877.044 461.712 877.058Z" fill="#DA8642" stroke="#9EA5F3"/>
<path d="M624.971 805.015V973.739H493.449V805.015H624.971Z" fill="white" stroke="#9EA5F3"/>
<path d="M546.275 941.219H607.098C608.129 941.219 609.104 942.243 609.104 943.695C609.103 945.147 608.129 946.171 607.098 946.171H546.275C545.244 946.171 544.269 945.147 544.269 943.695C544.269 942.243 545.244 941.219 546.275 941.219Z" fill="#C2D5FF" stroke="#9EA5F3"/>
<path d="M579.391 929.314H607.098C608.129 929.315 609.104 930.339 609.104 931.791C609.104 933.242 608.129 934.266 607.098 934.267H579.391C578.36 934.267 577.384 933.242 577.384 931.791C577.384 930.43 578.242 929.444 579.198 929.326L579.391 929.314Z" fill="#C2D5FF" stroke="#9EA5F3"/>
<path d="M609.104 873.55V876.902H532.986V873.55H609.104Z" fill="#C2D5FF" stroke="#9EA5F3"/>
<path d="M522.313 869.743V880.71H511.149V869.743H522.313Z" fill="#C2D5FF" stroke="#9EA5F3"/>
<path d="M609.104 890.956V894.308H532.986V890.956H609.104Z" fill="#C2D5FF" stroke="#9EA5F3"/>
<path d="M522.313 887.148V898.115H511.149V887.148H522.313Z" fill="#C2D5FF" stroke="#9EA5F3"/>
<path d="M609.104 908.363V911.713H532.986V908.363H609.104Z" fill="#C2D5FF" stroke="#9EA5F3"/>
<path d="M522.313 904.554V915.521H511.149V904.554H522.313Z" fill="#C2D5FF" stroke="#9EA5F3"/>
<path d="M608.187 855.328V856.504H509.316V855.328H608.187Z" fill="#C2D5FF" stroke="#9EA5F3"/>
<path d="M640.027 974.714H485.713V902.365L562.242 962.903L562.553 963.149L562.864 962.902L640.027 901.429V974.714Z" fill="#DA8642" stroke="#9EA5F3"/>
<path d="M532.98 938.605L532.986 938.609L561.61 960.088L561.901 960.307L562.199 960.097L592.094 938.964L592.151 938.923L592.195 938.869L595.406 934.875L616.597 951.327L565.873 979.525L515.983 943.176L527.561 934.407L532.98 938.605Z" fill="#DA8642" stroke="#9EA5F3"/>
<path d="M526.74 933.775L456.374 987.079L456.997 881.718C457 881.289 457.061 880.875 457.173 880.481L526.74 933.775Z" fill="#FAD362" stroke="#9EA5F3"/>
<path d="M666.431 881.652C666.529 881.991 666.592 882.343 666.61 882.708L666.616 882.959L665.991 988.405L596.149 934.186L666.431 881.652Z" fill="#FAD362" stroke="#9EA5F3"/>
<path d="M561.611 960.089L561.903 960.307L562.2 960.097L591.797 939.174L663.93 993.451C663.171 993.976 662.259 994.285 661.271 994.279L462.793 993.105L533.291 938.837L561.611 960.089Z" fill="#FAD362" stroke="#9EA5F3"/>
<path d="M563.688 830.59V835.338H509.316V830.59H563.688Z" fill="#C2D5FF" stroke="#9EA5F3"/>
<path d="M900.371 919.111C902.053 920.536 909.293 926.574 919.043 933.297C929.948 940.816 944.036 949.224 957.008 952.982L955.102 959.39C941.431 955.444 926.928 946.912 915.617 939.163C905.279 932.081 897.642 925.68 895.793 924.103L900.371 919.111Z" fill="white" stroke="#9EA5F3"/>
<path d="M950.435 954.813C951.424 951.508 954.33 949.055 958.34 947.81C962.347 946.565 967.402 946.551 972.545 948.09C977.689 949.63 981.904 952.42 984.568 955.66C987.235 958.904 988.315 962.55 987.326 965.856C986.336 969.161 983.43 971.614 979.42 972.86C975.413 974.104 970.358 974.119 965.215 972.579C960.072 971.04 955.856 968.25 953.192 965.009C950.525 961.765 949.446 958.119 950.435 954.813Z" fill="#00327C" stroke="#9EA5F3"/>
<path d="M983.731 713.174C985.44 713.173 986.776 713.24 987.682 713.307C988.135 713.341 988.481 713.374 988.713 713.399C988.828 713.411 988.915 713.422 988.972 713.429C989.001 713.433 989.022 713.435 989.036 713.437C989.038 713.437 989.041 713.437 989.043 713.437C994.982 714.588 1004.03 717.452 1007.64 718.626C1011.67 719.944 1017.78 722.34 1022.3 724.747C1016.7 724.159 1003.64 723.583 988.243 726.651C969.36 730.413 946.907 739.665 930.383 761.143C918.43 776.681 907.138 798.64 898.842 816.689C894.692 825.718 891.288 833.779 888.921 839.582C887.737 842.483 886.813 844.821 886.184 846.433C885.87 847.239 885.63 847.865 885.468 848.289C885.443 848.354 885.419 848.414 885.398 848.47L862.481 840.029C862.526 839.911 862.579 839.771 862.64 839.61C862.864 839.025 863.197 838.165 863.631 837.059C864.501 834.848 865.781 831.658 867.421 827.748C870.701 819.927 875.421 809.226 881.181 797.705C892.715 774.635 908.37 748.373 924.931 735.292C941.517 722.192 957.564 716.732 969.457 714.545C975.404 713.452 980.313 713.177 983.731 713.174Z" fill="#BDD0FB" stroke="#9EA5F3"/>
<path d="M832.285 886.135C833.358 858.038 851.745 836.164 873.112 836.98C894.479 837.796 911.145 861.008 910.073 889.104C909 917.201 890.613 939.075 869.246 938.26C847.879 937.444 831.213 914.232 832.285 886.135Z" fill="#1A237E" stroke="#9EA5F3"/>
<path d="M833.001 886.433C833.527 872.472 838.041 860.005 844.889 851.135C851.737 842.264 860.888 837.021 870.712 837.391C880.536 837.761 889.267 843.678 895.428 853.04C901.588 862.401 905.151 875.172 904.625 889.133C904.098 903.094 899.584 915.56 892.737 924.43C885.888 933.301 876.736 938.544 866.912 938.174C857.089 937.803 848.358 931.886 842.197 922.524C836.037 913.164 832.474 900.394 833.001 886.433Z" fill="#CCCCFF" stroke="#9EA5F3"/>
<path d="M860.297 863.291C864.611 863.124 868.691 865.688 871.787 870.113C874.88 874.533 876.945 880.756 877.216 887.732C877.487 894.709 875.911 901.074 873.17 905.72C870.426 910.372 866.557 913.244 862.244 913.412C857.93 913.579 853.85 911.016 850.753 906.591C847.66 902.171 845.595 895.948 845.324 888.971C845.053 881.994 846.63 875.631 849.371 870.984C852.115 866.332 855.983 863.459 860.297 863.291Z" fill="white" stroke="#9EA5F3"/>
<path d="M1280.85 379.552H807.896C780.571 379.552 758.42 401.703 758.42 429.028V563.986C758.42 591.311 780.571 613.462 807.896 613.462H1280.85C1308.17 613.462 1330.32 591.311 1330.32 563.986V429.028C1330.32 401.703 1308.17 379.552 1280.85 379.552Z" fill="white" stroke="#9EA5F3" stroke-miterlimit="10"/>
<path d="M883.651 428.547C921.183 428.548 951.611 458.974 951.611 496.506C951.611 534.04 921.184 564.466 883.651 564.466C846.118 564.466 815.692 534.04 815.692 496.506C815.692 458.973 846.118 428.547 883.651 428.547Z" fill="#F3F1FC" stroke="#9EA5F3"/>
<path d="M880.795 456.242C891.609 454.599 901.708 462.033 903.352 472.846C904.995 483.66 897.561 493.76 886.747 495.403C875.933 497.046 865.834 489.612 864.191 478.798C862.548 467.985 869.981 457.886 880.795 456.242Z" fill="#1A237E" stroke="#9EA5F3"/>
<path d="M883.652 499.573C901.64 499.574 916.279 513.777 917.047 531.578H850.257C851.025 513.777 865.664 499.573 883.652 499.573Z" fill="#1A237E" stroke="#9EA5F3"/>
<path d="M992.677 495.562H1198.17C1200.16 495.562 1201.78 497.18 1201.78 499.177V510.402C1201.78 512.399 1200.16 514.017 1198.17 514.017H992.677C990.68 514.017 989.061 512.399 989.061 510.402V499.177C989.061 497.243 990.58 495.663 992.49 495.566L992.677 495.562Z" fill="#F3F1FC" stroke="#9EA5F3"/>
<path d="M992.677 544.2H1254.95C1256.94 544.2 1258.56 545.818 1258.56 547.815V559.04C1258.56 561.036 1256.94 562.654 1254.95 562.654H992.677C990.68 562.654 989.061 561.036 989.061 559.04V547.815C989.061 545.818 990.68 544.2 992.677 544.2Z" fill="#F3F1FC" stroke="#9EA5F3"/>
<path d="M1020 434.232L1020.11 434.467L1020.37 434.505L1036.2 436.804L1024.75 447.969L1024.56 448.153L1024.6 448.411L1027.31 464.174L1013.15 456.732L1012.92 456.61L1012.69 456.732L998.529 464.174L1001.23 448.411L1001.28 448.153L1001.09 447.969L989.635 436.804L1005.46 434.505L1005.72 434.467L1005.84 434.232L1012.92 419.89L1020 434.232Z" fill="#FDDB81" stroke="#9EA5F3"/>
<path d="M1036.2 436.804L1024.75 447.968L1024.56 448.152L1024.6 448.411L1027.31 464.174L1013.15 456.732L1012.92 456.61L1012.69 456.732L998.53 464.174L999.718 457.248C1005.82 455.532 1019.54 450.19 1027.62 435.557L1036.2 436.804Z" fill="#FEC106" stroke="#9EA5F3"/>
<path d="M1074.34 434.232L1074.45 434.467L1074.71 434.505L1090.54 436.804L1079.09 447.969L1078.9 448.153L1078.94 448.411L1081.65 464.174L1067.49 456.732L1067.26 456.61L1067.03 456.732L1052.87 464.174L1055.57 448.411L1055.62 448.153L1055.43 447.969L1043.98 436.804L1059.8 434.505L1060.06 434.467L1060.18 434.232L1067.26 419.89L1074.34 434.232Z" fill="#FFE007" stroke="#9EA5F3"/>
<path d="M1090.54 436.804L1079.09 447.968L1078.9 448.152L1078.94 448.411L1081.65 464.174L1067.49 456.732L1067.26 456.61L1067.02 456.732L1052.87 464.174L1054.06 457.248C1060.16 455.532 1073.88 450.19 1081.96 435.557L1090.54 436.804Z" fill="#FEC106" stroke="#9EA5F3"/>
<path d="M1128.68 434.232L1128.79 434.467L1129.05 434.505L1144.88 436.804L1133.43 447.969L1133.24 448.153L1133.28 448.411L1135.99 464.174L1121.83 456.732L1121.6 456.61L1121.37 456.732L1107.21 464.174L1109.91 448.411L1109.96 448.153L1109.77 447.969L1098.32 436.804L1114.14 434.505L1114.4 434.467L1114.52 434.232L1121.6 419.89L1128.68 434.232Z" fill="#FDDB81" stroke="#9EA5F3"/>
<path d="M1144.88 436.804L1133.43 447.968L1133.24 448.152L1133.28 448.411L1135.99 464.174L1121.83 456.732L1121.6 456.61L1121.37 456.732L1107.21 464.174L1108.4 457.248C1114.5 455.532 1128.22 450.19 1136.3 435.557L1144.88 436.804Z" fill="#FEC106" stroke="#9EA5F3"/>
<path d="M1183.02 434.232L1183.13 434.467L1183.39 434.505L1199.22 436.804L1187.77 447.969L1187.58 448.153L1187.63 448.411L1190.33 464.174L1176.17 456.732L1175.94 456.61L1175.71 456.732L1161.55 464.174L1164.25 448.411L1164.3 448.153L1164.11 447.969L1152.66 436.804L1168.49 434.505L1168.75 434.467L1168.86 434.232L1175.94 419.89L1183.02 434.232Z" fill="#FDDB81" stroke="#9EA5F3"/>
<path d="M1199.22 436.804L1187.77 447.968L1187.58 448.152L1187.63 448.411L1190.33 464.174L1176.17 456.732L1175.94 456.61L1175.71 456.732L1161.55 464.174L1162.74 457.248C1168.84 455.532 1182.56 450.19 1190.64 435.557L1199.22 436.804Z" fill="#FEC106" stroke="#9EA5F3"/>
<path d="M1237.36 434.232L1237.47 434.467L1237.74 434.505L1253.56 436.804L1242.11 447.969L1241.92 448.153L1241.97 448.411L1244.67 464.174L1230.51 456.732L1230.28 456.61L1230.05 456.732L1215.89 464.174L1218.59 448.411L1218.64 448.153L1218.45 447.969L1207 436.804L1222.83 434.505L1223.09 434.467L1223.2 434.232L1230.28 419.89L1237.36 434.232Z" fill="white" stroke="#9EA5F3"/>
<path d="M1253.56 436.804L1242.11 447.968L1241.92 448.152L1241.97 448.411L1244.67 464.174L1230.51 456.732L1230.28 456.61L1230.05 456.732L1215.89 464.174L1217.08 457.248C1223.18 455.532 1236.91 450.19 1244.98 435.557L1253.56 436.804Z" fill="white" stroke="#9EA5F3"/>
<path d="M1074.34 434.232L1074.45 434.467L1074.71 434.505L1090.54 436.804L1079.09 447.969L1078.9 448.153L1078.94 448.411L1081.65 464.174L1067.49 456.732L1067.26 456.61L1067.03 456.732L1052.87 464.174L1055.57 448.411L1055.62 448.153L1055.43 447.969L1043.98 436.804L1059.8 434.505L1060.06 434.467L1060.18 434.232L1067.26 419.89L1074.34 434.232Z" fill="#FDDB81" stroke="#9EA5F3"/>
<path d="M1090.54 436.804L1079.09 447.968L1078.9 448.152L1078.94 448.411L1081.65 464.174L1067.49 456.732L1067.26 456.61L1067.02 456.732L1052.87 464.174L1054.06 457.248C1060.16 455.532 1073.88 450.19 1081.96 435.557L1090.54 436.804Z" fill="#FEC106" stroke="#9EA5F3"/>
<path d="M1723.76 762.712H1250.81C1223.48 762.712 1201.33 784.863 1201.33 812.188V947.147C1201.33 974.472 1223.48 996.623 1250.81 996.623H1723.76C1751.08 996.623 1773.24 974.472 1773.24 947.147V812.188C1773.24 784.863 1751.08 762.712 1723.76 762.712Z" fill="white" stroke="#9EA5F3" stroke-miterlimit="10"/>
<path d="M1326.56 811.709C1364.1 811.709 1394.52 842.136 1394.52 879.668C1394.52 917.201 1364.1 947.628 1326.56 947.628C1289.03 947.628 1258.6 917.201 1258.6 879.668C1258.6 842.134 1289.03 811.709 1326.56 811.709Z" fill="#F3F1FC" stroke="#9EA5F3"/>
<path d="M1326.69 839.171C1337.62 839.171 1346.49 848.038 1346.49 858.976C1346.49 869.914 1337.62 878.782 1326.69 878.782C1315.75 878.782 1306.88 869.915 1306.88 858.976C1306.88 848.038 1315.75 839.172 1326.69 839.171Z" fill="#1A237E" stroke="#9EA5F3"/>
<path d="M1326.56 882.735C1344.55 882.735 1359.19 896.938 1359.96 914.739H1293.17C1293.94 896.939 1308.58 882.735 1326.56 882.735Z" fill="#1A237E" stroke="#9EA5F3"/>
<path d="M1435.59 878.722H1641.08C1643.08 878.722 1644.7 880.34 1644.7 882.337V893.562C1644.7 895.559 1643.08 897.177 1641.08 897.177H1435.59C1433.59 897.177 1431.97 895.559 1431.97 893.562V882.337C1431.97 880.34 1433.59 878.722 1435.59 878.722Z" fill="#F3F1FC" stroke="#9EA5F3"/>
<path d="M1435.59 927.36H1697.86C1699.85 927.36 1701.47 928.979 1701.47 930.975V942.2C1701.47 944.196 1699.85 945.814 1697.86 945.814H1435.59C1433.59 945.814 1431.97 944.196 1431.97 942.2V930.975C1431.97 928.979 1433.59 927.36 1435.59 927.36Z" fill="#F3F1FC" stroke="#9EA5F3"/>
<path d="M1462.91 817.392L1463.02 817.627L1463.28 817.665L1479.11 819.964L1467.66 831.129L1467.47 831.313L1467.52 831.572L1470.22 847.334L1456.06 839.892L1455.83 839.77L1455.6 839.892L1441.44 847.334L1444.14 831.572L1444.19 831.313L1444 831.129L1432.55 819.964L1448.38 817.665L1448.64 817.627L1448.75 817.392L1455.83 803.05L1462.91 817.392Z" fill="#FDDB81" stroke="#9EA5F3"/>
<path d="M1479.11 819.966L1467.66 831.13L1467.47 831.313L1467.52 831.573L1470.22 847.336L1456.06 839.893L1455.83 839.771L1455.6 839.893L1441.44 847.336L1442.63 840.41C1448.73 838.693 1462.46 833.352 1470.53 818.719L1479.11 819.966Z" fill="#FEC106" stroke="#9EA5F3"/>
<path d="M1517.25 817.392L1517.36 817.627L1517.63 817.665L1533.45 819.964L1522 831.129L1521.81 831.313L1521.86 831.572L1524.56 847.334L1510.4 839.892L1510.17 839.77L1509.94 839.892L1495.78 847.334L1498.49 831.572L1498.53 831.313L1498.34 831.129L1486.89 819.964L1502.72 817.665L1502.98 817.627L1503.09 817.392L1510.17 803.05L1517.25 817.392Z" fill="#FFE007" stroke="#9EA5F3"/>
<path d="M1533.45 819.966L1522 831.13L1521.81 831.313L1521.86 831.573L1524.56 847.336L1510.4 839.893L1510.17 839.771L1509.94 839.893L1495.78 847.336L1496.97 840.41C1503.07 838.693 1516.8 833.352 1524.87 818.719L1533.45 819.966Z" fill="#FEC106" stroke="#9EA5F3"/>
<path d="M1571.59 817.392L1571.71 817.627L1571.97 817.665L1587.79 819.964L1576.34 831.129L1576.15 831.313L1576.2 831.572L1578.9 847.334L1564.74 839.892L1564.51 839.77L1564.28 839.892L1550.12 847.334L1552.83 831.572L1552.87 831.313L1552.68 831.129L1541.23 819.964L1557.06 817.665L1557.32 817.627L1557.43 817.392L1564.51 803.05L1571.59 817.392Z" fill="#FDDB81" stroke="#9EA5F3"/>
<path d="M1587.79 819.966L1576.34 831.13L1576.15 831.313L1576.2 831.573L1578.9 847.336L1564.75 839.893L1564.51 839.771L1564.28 839.893L1550.12 847.336L1551.31 840.41C1557.41 838.693 1571.14 833.352 1579.21 818.719L1587.79 819.966Z" fill="#FEC106" stroke="#9EA5F3"/>
<path d="M1625.93 817.392L1626.05 817.627L1626.31 817.665L1642.13 819.964L1630.68 831.129L1630.49 831.313L1630.54 831.572L1633.24 847.334L1619.08 839.892L1618.85 839.77L1618.62 839.892L1604.46 847.334L1607.17 831.572L1607.21 831.313L1607.02 831.129L1595.57 819.964L1611.4 817.665L1611.66 817.627L1611.77 817.392L1618.85 803.05L1625.93 817.392Z" fill="#FDDB81" stroke="#9EA5F3"/>
<path d="M1642.13 819.966L1630.68 831.13L1630.49 831.313L1630.54 831.573L1633.24 847.336L1619.09 839.893L1618.85 839.771L1618.62 839.893L1604.46 847.336L1605.65 840.41C1611.75 838.693 1625.48 833.352 1633.55 818.719L1642.13 819.966Z" fill="#FEC106" stroke="#9EA5F3"/>
<path d="M1680.27 817.392L1680.39 817.627L1680.65 817.665L1696.47 819.964L1685.02 831.129L1684.83 831.313L1684.88 831.572L1687.58 847.334L1673.43 839.892L1673.19 839.77L1672.96 839.892L1658.8 847.334L1661.51 831.572L1661.55 831.313L1661.36 831.129L1649.91 819.964L1665.74 817.665L1666 817.627L1666.11 817.392L1673.19 803.05L1680.27 817.392Z" fill="#FDDB81" stroke="#9EA5F3"/>
<path d="M1696.47 819.966L1685.02 831.13L1684.83 831.313L1684.88 831.573L1687.58 847.336L1673.43 839.893L1673.19 839.771L1672.96 839.893L1658.8 847.336L1659.99 840.41C1666.09 838.693 1679.82 833.352 1687.89 818.719L1696.47 819.966Z" fill="#FEC106" stroke="#9EA5F3"/>
<path d="M1517.25 817.392L1517.36 817.627L1517.63 817.665L1533.45 819.964L1522 831.129L1521.81 831.313L1521.86 831.572L1524.56 847.334L1510.4 839.892L1510.17 839.77L1509.94 839.892L1495.78 847.334L1498.49 831.572L1498.53 831.313L1498.34 831.129L1486.89 819.964L1502.72 817.665L1502.98 817.627L1503.09 817.392L1510.17 803.05L1517.25 817.392Z" fill="#FDDB81" stroke="#9EA5F3"/>
<path d="M1533.45 819.966L1522 831.13L1521.81 831.313L1521.86 831.573L1524.56 847.336L1510.4 839.893L1510.17 839.771L1509.94 839.893L1495.78 847.336L1496.97 840.41C1503.07 838.693 1516.8 833.352 1524.87 818.719L1533.45 819.966Z" fill="#FEC106" stroke="#9EA5F3"/>
</g>
<defs>
<linearGradient id="paint0_linear_2217_175" x1="321.864" y1="1399.71" x2="412.998" y2="1399.71" gradientUnits="userSpaceOnUse">
<stop stop-color="#A8F17E"/>
<stop offset="0.202" stop-color="#A1EE7D"/>
<stop offset="0.477" stop-color="#90E57C"/>
<stop offset="0.793" stop-color="#73D77A"/>
<stop offset="1" stop-color="#5DCD79"/>
</linearGradient>
<linearGradient id="paint1_linear_2217_175" x1="424.309" y1="1388.39" x2="482.181" y2="1400.71" gradientUnits="userSpaceOnUse">
<stop stop-color="#A8F17E"/>
<stop offset="0.202" stop-color="#A1EE7D"/>
<stop offset="0.477" stop-color="#90E57C"/>
<stop offset="0.793" stop-color="#73D77A"/>
<stop offset="1" stop-color="#5DCD79"/>
</linearGradient>
<linearGradient id="paint2_linear_2217_175" x1="410.267" y1="1288.77" x2="410.267" y2="1466.59" gradientUnits="userSpaceOnUse">
<stop stop-color="#A8F17E"/>
<stop offset="0.202" stop-color="#A1EE7D"/>
<stop offset="0.477" stop-color="#90E57C"/>
<stop offset="0.793" stop-color="#73D77A"/>
<stop offset="1" stop-color="#5DCD79"/>
</linearGradient>
<linearGradient id="paint3_linear_2217_175" x1="876.033" y1="903.996" x2="861.973" y2="895.955" gradientUnits="userSpaceOnUse">
<stop stop-color="white"/>
<stop offset="0.22" stop-color="#EDEDED"/>
<stop offset="0.657" stop-color="#C0C0C0"/>
<stop offset="1" stop-color="#999999"/>
</linearGradient>
<linearGradient id="paint4_linear_2217_175" x1="876.033" y1="903.996" x2="861.973" y2="895.955" gradientUnits="userSpaceOnUse">
<stop stop-color="#F69D7D"/>
<stop offset="1" stop-color="#F69D7D"/>
</linearGradient>
<clipPath id="clip0_2217_175">
<rect width="2000" height="2000" fill="white"/>
</clipPath>
</defs>
</svg>
