<svg xmlns="http://www.w3.org/2000/svg" width="153.521" height="140.886" viewBox="0 0 153.521 140.886">
  <g id="Group_3" data-name="Group 3" transform="translate(-1348.237 -4239.725)">
    <path id="path280" d="M1445.93,4305.93a9.521,9.521,0,1,0-9.522-9.521A9.521,9.521,0,0,0,1445.93,4305.93Zm0-15.174a5.652,5.652,0,1,1-5.653,5.653A5.652,5.652,0,0,1,1445.93,4290.756Z" transform="translate(-31.271 -35.051)" fill="#4b55c2" fill-rule="evenodd"/>
    <path id="path282" d="M1531.86,4361.71l-.193-.082a138.954,138.954,0,0,1-28.433-16.463,1.937,1.937,0,0,0-2.321,0q-2.192,1.646-4.45,3.2v-32.829h12.06a1.934,1.934,0,0,0,1.935-1.935v-9.673a1.934,1.934,0,0,0-1.164-1.773l-62.592-27.217a1.936,1.936,0,0,0-1.543,0l-62.592,27.217a1.936,1.936,0,0,0-1.162,1.773v9.673a1.934,1.934,0,0,0,1.935,1.935H1395.4v56.827h-6.37a1.934,1.934,0,0,0-1.935,1.935v10.2h-5.652a1.935,1.935,0,0,0-1.935,1.935v12.14a1.935,1.935,0,0,0,1.935,1.935h96.825a41.183,41.183,0,0,0,7.9,7.478,53.06,53.06,0,0,0,14.858,7.6,1.893,1.893,0,0,0,1.069,0,55.646,55.646,0,0,0,15.353-7.585c10.192-7.206,15.579-16.777,15.579-27.682v-16.835a1.937,1.937,0,0,0-1.169-1.777Zm-39.265-10.769q-3.684,2.364-7.511,4.49v-39.9h7.511Zm-20.115,10.688-.192.082a1.936,1.936,0,0,0-1.167,1.776v8.874h-3.262v-56.827h13.356V4357.5q-4.294,2.214-8.735,4.129Zm-16,10.731v-56.827h7.511v56.827Zm-17.225,0v-56.827h13.356v56.827Zm-11.38,0v-56.827h7.511v56.827Zm-17.226,0v-56.827H1424v56.827Zm-25.374-67.165,60.657-26.376,60.657,26.376v6.47H1385.275v-6.47Zm13.994,10.34h7.511v56.826h-7.511Zm-8.3,60.695h80.156v4.092a33.043,33.043,0,0,0,.265,4.177h-80.421Zm-7.586,20.408v-8.27h88.748a31.442,31.442,0,0,0,3.459,8.27h-92.207Zm145.783-16.316a27.343,27.343,0,0,1-7.856,19.292,1.934,1.934,0,0,0-3.862.144v1.773a1.925,1.925,0,0,0,.464,1.254q-1.234,1.022-2.6,2a53.5,53.5,0,0,1-13.724,6.917,50.644,50.644,0,0,1-13.123-6.837q-1.258-.92-2.4-1.887a1.925,1.925,0,0,0,.651-1.445v-1.773a1.935,1.935,0,0,0-3.869,0v.156a27.94,27.94,0,0,1-7.848-19.591v-15.565a142.841,142.841,0,0,0,27.085-15.635,142.841,142.841,0,0,0,27.085,15.635v15.565Z" transform="translate(-31.271 -35.051)" fill="#4b55c2" fill-rule="evenodd"/>
    <path id="path284" d="M1502.07,4397.82a1.934,1.934,0,0,0-1.935,1.935v1.773a1.935,1.935,0,0,0,3.869,0v-1.773A1.934,1.934,0,0,0,1502.07,4397.82Z" transform="translate(-31.271 -35.051)" fill="#4b55c2" fill-rule="evenodd"/>
    <path id="path286" d="M1507.84,4397.82a1.934,1.934,0,0,0-1.935,1.935v1.773a1.935,1.935,0,0,0,3.869,0v-1.773A1.934,1.934,0,0,0,1507.84,4397.82Z" transform="translate(-31.271 -35.051)" fill="#4b55c2" fill-rule="evenodd"/>
    <path id="path288" d="M1511.67,4399.76v1.773a1.935,1.935,0,0,0,3.869,0v-1.773a1.935,1.935,0,0,0-3.869,0Z" transform="translate(-31.271 -35.051)" fill="#4b55c2" fill-rule="evenodd"/>
    <path id="path290" d="M1496.31,4397.82a1.934,1.934,0,0,0-1.935,1.935v1.773a1.935,1.935,0,0,0,3.869,0v-1.773A1.934,1.934,0,0,0,1496.31,4397.82Z" transform="translate(-31.271 -35.051)" fill="#4b55c2" fill-rule="evenodd"/>
    <path id="path292" d="M1490.54,4397.82a1.934,1.934,0,0,0-1.935,1.935v1.773a1.935,1.935,0,0,0,3.869,0v-1.773A1.934,1.934,0,0,0,1490.54,4397.82Z" transform="translate(-31.271 -35.051)" fill="#4b55c2" fill-rule="evenodd"/>
    <path id="path294" d="M1494.38,4378.06a1.935,1.935,0,0,0-2.736,2.736l6.571,6.57a1.934,1.934,0,0,0,2.736,0l11.551-11.55a1.935,1.935,0,0,0-2.736-2.736l-10.183,10.181-5.2-5.2Z" transform="translate(-31.271 -35.051)" fill="#4b55c2" fill-rule="evenodd"/>
  </g>
</svg>
