<?xml version="1.0" encoding="UTF-8"?>
<!DOCTYPE svg PUBLIC "-//W3C//DTD SVG 1.1//EN" "http://www.w3.org/Graphics/SVG/1.1/DTD/svg11.dtd">
<!-- Creator: CorelDRAW X8 -->
<svg xmlns="http://www.w3.org/2000/svg" xml:space="preserve" width="3.37504in" height="2in" version="1.1" style="shape-rendering:geometricPrecision; text-rendering:geometricPrecision; image-rendering:optimizeQuality; fill-rule:evenodd; clip-rule:evenodd"
viewBox="0 0 1340 794"
 xmlns:xlink="http://www.w3.org/1999/xlink">
 <defs>
  <style type="text/css">
   <![CDATA[
    .fil1 {fill:#1A237E}
    .fil0 {fill:#868EE0}
   ]]>
  </style>
 </defs>
 <g id="Layer_x0020_1">
  <metadata id="CorelCorpID_0Corel-Layer"/>
  <g id="_2490705221184">
   <path id="Path_10481" class="fil0" d="M324 350l-181 0c-5,0 -10,-4 -10,-10 0,-5 5,-10 10,-10l181 0c5,0 9,5 10,10 0,0 0,0 0,0 -1,6 -5,10 -10,10z"/>
   <path id="Path_10482" class="fil0" d="M421 436l-278 0c-5,0 -10,-5 -10,-10 0,0 0,0 0,0 0,-6 4,-10 9,-10 1,0 1,0 1,0l278 0c5,0 10,4 10,9 0,0 0,0 0,1 0,5 -4,10 -10,10 0,0 0,0 0,0z"/>
   <path id="Path_10483" class="fil0" d="M480 521l-337 0c-5,0 -10,-4 -10,-10 0,-5 5,-10 10,-10l337 0c6,0 10,4 10,10 0,0 0,0 0,0 0,6 -4,10 -10,10 0,0 0,0 0,0z"/>
   <path id="Path_10484" class="fil0" d="M480 606l-337 0c-5,0 -10,-4 -10,-9 0,0 0,-1 0,-1 0,-5 4,-9 9,-10 1,0 1,0 1,0l337 0c6,0 10,4 10,10 0,0 0,0 0,0 0,6 -4,10 -10,10 0,0 0,0 0,0z"/>
   <path id="Path_10485" class="fil0" d="M480 695l-337 0c-5,0 -10,-4 -10,-10 0,0 0,0 0,0 0,-5 4,-10 9,-10 1,0 1,0 1,0l337 0c6,0 10,4 10,9 0,0 0,1 0,1 0,5 -4,10 -10,10 0,0 0,0 0,0z"/>
   <path id="Path_10486" class="fil0" d="M149 214c0,-20 15,-36 35,-37 1,0 1,0 2,0 11,0 22,5 28,15l-10 5c-4,-6 -11,-9 -18,-9 -13,0 -24,11 -24,24 0,0 0,1 0,2 -1,13 10,25 23,25 0,0 1,0 1,0 6,0 12,-2 17,-6l0 -11 -21 0 0 -11 33 0 0 27c-7,8 -18,12 -29,12 -20,1 -37,-16 -37,-36 0,0 0,0 0,0zm74 25l7 -10c6,7 14,10 23,10 10,0 14,-5 14,-9 0,-15 -41,-6 -41,-32 0,-11 10,-20 25,-20 10,-1 19,3 27,10l-8 9c-5,-5 -12,-8 -20,-8 -7,0 -12,4 -12,9 0,13 41,5 41,31 0,12 -8,21 -27,21 -11,0 -21,-4 -29,-11l0 0zm83 10l0 -60 -21 0 0 -11 55 0 0 11 -22 0 0 60 -12 0z"/>
   <path id="Path_10487" class="fil1" d="M60 794c-2,0 -4,-2 -4,-4l0 -57 -52 0c-2,0 -4,-2 -4,-4l0 -721c0,-2 2,-4 4,-4l86 0c0,0 1,0 1,0l197 0 0 0 33 0 0 0 192 0c3,0 4,2 4,4l0 151 50 60 0 0c0,0 1,1 1,3l0 207c0,0 0,1 0,1l0 75 0 9 0 71c0,0 0,1 0,1l0 204c0,2 -2,4 -4,4l-504 0zm52 -781c-1,0 -1,0 -2,0l-101 0 0 712 47 0 0 -661c0,-2 2,-4 4,-4l373 0c1,0 2,0 3,1l73 88 0 -136 -187 0c0,0 -1,0 -1,0l-9 0 0 0 -20 0 -4 0 -176 0zm-48 712l445 0 0 -562 -79 -94 -366 0 0 656zm453 -551l0 555c0,2 -1,4 -4,4l-449 0 0 53 495 0 0 -195c0,0 0,-1 0,-1l0 -76 0 -9 0 -68c0,0 0,-1 0,-1l0 -213 -42 -49z"/>
   <path id="Path_10488" class="fil1" d="M424 231c-3,0 -5,-2 -5,-4l0 -156c0,-2 2,-4 5,-4 2,0 4,1 4,4 0,0 0,0 0,0l0 151 127 0c2,0 4,2 4,5 0,2 -2,4 -4,4l-131 0z"/>
   <path id="Path_10493" class="fil1" d="M701 450c-1,0 -2,0 -3,-1 -1,-1 -1,-2 -1,-4 0,-1 0,-2 1,-2l44 -44 -139 0c-2,0 -4,-2 -4,-5 0,-2 2,-4 4,-4l135 0 -37 -40c0,-1 -1,-2 -1,-3 0,-1 1,-2 2,-3 0,-1 2,-1 3,-1 1,0 2,0 2,1l46 50c2,2 2,4 0,6l-49 49c0,0 -2,1 -3,1z"/>
   <rect id="Rectangle_2374" class="fil0" x="1281" y="448" width="29.2547" height="224.138"/>
   <rect id="Rectangle_2375" class="fil0" x="1125" y="448" width="29.2547" height="224.138"/>
   <rect id="Rectangle_2376" class="fil0" x="969" y="448" width="29.2547" height="224.138"/>
   <rect id="Rectangle_2377" class="fil0" x="814" y="448" width="29.2573" height="224.138"/>
   <path id="Path_10417" class="fil0" d="M1069 144l159 0c4,0 7,-3 7,-6 0,0 0,0 0,-1l0 -118c0,-4 -3,-6 -6,-6 0,0 0,0 -1,0l-159 0 0 -7c0,-3 -3,-6 -6,-6 0,0 -1,0 -1,0l-11 0c-4,0 -6,2 -6,6 0,0 0,0 0,0l0 222 23 0 0 -84 1 0z"/>
   <rect id="Rectangle_2378" class="fil0" x="784" y="684" width="556.416" height="32.3922"/>
   <rect id="Rectangle_2379" class="fil0" x="784" y="758" width="556.416" height="32.3922"/>
   <path id="Path_10418" class="fil0" d="M1302 407c-35,-134 -171,-214 -304,-180 -89,23 -158,92 -180,180l484 0z"/>
  </g>
 </g>
</svg>
