<svg xmlns="http://www.w3.org/2000/svg" width="115.034" height="116.754" viewBox="0 0 115.034 116.754">
  <g id="Group_2" data-name="Group 2" transform="translate(-917.048 -4251.786)">
    <path id="path270" d="M1005.83,4310.07a11.61,11.61,0,1,0-11.61-11.61A11.61,11.61,0,0,0,1005.83,4310.07Zm0-19.351a7.74,7.74,0,1,1-7.74,7.74A7.74,7.74,0,0,1,1005.83,4290.719Z" transform="translate(-31.271 -35.051)" fill="#4b55c2" fill-rule="evenodd"/>
    <path id="path272" d="M959.93,4310.07a11.61,11.61,0,1,0-11.61-11.61A11.61,11.61,0,0,0,959.93,4310.07Zm0-19.351a7.74,7.74,0,1,1-7.74,7.74A7.74,7.74,0,0,1,959.93,4290.719Z" transform="translate(-31.271 -35.051)" fill="#4b55c2" fill-rule="evenodd"/>
    <path id="path274" d="M1063.35,4298.45A11.611,11.611,0,1,0,1049.8,4309.9v23.872a11.636,11.636,0,0,0-9.512,9.512h-23.012a11.608,11.608,0,0,0-22.892,0H971.377A11.61,11.61,0,1,0,958,4356.66v23.872a11.61,11.61,0,1,0,3.87,0V4356.66a11.636,11.636,0,0,0,9.51-9.51h23.012a11.608,11.608,0,0,0,22.892,0h23.012a11.611,11.611,0,1,0,13.382-13.382V4309.9a11.628,11.628,0,0,0,9.675-11.445Zm-95.678,93.528a7.74,7.74,0,1,1-7.74-7.74A7.741,7.741,0,0,1,967.672,4391.979Zm-7.74-39.024a7.74,7.74,0,1,1,7.74-7.74A7.74,7.74,0,0,1,959.932,4352.955Zm45.9,0a7.74,7.74,0,1,1,7.74-7.74A7.74,7.74,0,0,1,1005.836,4352.955Zm53.644-7.74a7.74,7.74,0,1,1-7.74-7.74A7.741,7.741,0,0,1,1059.48,4345.214Zm-7.74-39.024a7.74,7.74,0,1,1,7.74-7.74A7.74,7.74,0,0,1,1051.739,4306.19Z" transform="translate(-31.271 -35.051)" fill="#4b55c2" fill-rule="evenodd"/>
    <path id="path276" d="M1005.83,4380.37a11.61,11.61,0,1,0,11.61,11.61A11.61,11.61,0,0,0,1005.83,4380.37Zm0,19.351a7.74,7.74,0,1,1,7.74-7.74A7.74,7.74,0,0,1,1005.83,4399.721Z" transform="translate(-31.271 -35.051)" fill="#4b55c2" fill-rule="evenodd"/>
    <path id="path278" d="M1051.74,4380.37a11.61,11.61,0,1,0,11.61,11.61A11.61,11.61,0,0,0,1051.74,4380.37Zm0,19.351a7.74,7.74,0,1,1,7.74-7.74A7.74,7.74,0,0,1,1051.74,4399.721Z" transform="translate(-31.271 -35.051)" fill="#4b55c2" fill-rule="evenodd"/>
  </g>
</svg>
