<?xml version="1.0" encoding="UTF-8"?>
<!DOCTYPE svg PUBLIC "-//W3C//DTD SVG 1.1//EN" "http://www.w3.org/Graphics/SVG/1.1/DTD/svg11.dtd">
<!-- Creator: CorelDRAW X8 -->
<svg xmlns="http://www.w3.org/2000/svg" xml:space="preserve" width="2.56954in" height="2in" version="1.1" style="shape-rendering:geometricPrecision; text-rendering:geometricPrecision; image-rendering:optimizeQuality; fill-rule:evenodd; clip-rule:evenodd"
viewBox="0 0 1131 880"
 xmlns:xlink="http://www.w3.org/1999/xlink">
 <defs>
  <style type="text/css">
   <![CDATA[
    .fil0 {fill:#1A237E}
    .fil1 {fill:#868EE0}
   ]]>
  </style>
 </defs>
 <g id="Layer_x0020_1">
  <metadata id="CorelCorpID_0Corel-Layer"/>
  <g id="_2490705234208">
   <g>
    <path id="Path_10515" class="fil0" d="M719 595c0,1 1,2 1,2l0 0c7,8 16,12 26,12l2 0c9,0 18,-3 25,-9l119 -109c8,-7 12,-16 12,-26 1,-10 -3,-19 -9,-27l-3 -2c15,-19 14,-46 -2,-63 -13,-14 -32,-20 -50,-14l-252 -277c4,-7 6,-14 6,-22 1,-13 -4,-26 -12,-36 -17,-18 -45,-21 -65,-7 -1,-1 -2,-3 -4,-5 -13,-15 -37,-16 -52,-2 0,0 0,0 0,0l-120 108c-15,14 -16,38 -2,53 1,2 3,3 4,4 -8,9 -13,20 -14,32 0,13 4,26 13,35 9,10 21,16 34,17l2 0c8,0 16,-2 23,-6l249 273c-8,8 -12,19 -12,30 -1,13 4,26 12,35l0 0c9,11 23,17 36,17 12,-1 24,-5 33,-13zm-55 -61l168 -152c13,-13 34,-12 46,2 0,0 0,0 0,0 13,13 12,34 -2,46 0,0 0,0 0,0l-167 153c-14,12 -34,11 -47,-2 0,0 0,-1 0,-1l0 0c-12,-13 -11,-34 2,-46 0,0 0,0 0,0l0 0zm218 -55l-120 109c-9,8 -22,7 -30,-1l0 0c0,-1 -1,-2 -2,-3l151 -136c1,0 1,1 2,1 4,5 6,10 5,16 0,5 -2,11 -6,14l0 0zm-61 -109l-159 145 -248 -272 47 -42 117 -106 247 271c-1,1 -3,2 -4,4l0 0 0 0zm-476 -162c1,-8 5,-17 11,-22l168 -153c6,-5 14,-8 22,-8 9,-1 18,3 24,10 12,14 12,34 -2,47 0,0 0,0 0,0l-167 152c-14,12 -34,12 -47,-2 0,0 0,0 0,0l0 0c-6,-6 -9,-15 -9,-24l0 0zm7 -77l119 -109c4,-3 9,-6 15,-6 6,1 11,3 15,7 2,2 3,4 3,5l-149 136c-2,-1 -3,-2 -5,-3 -3,-5 -5,-10 -5,-16 0,-5 3,-11 7,-14l0 0z"/>
    <path id="Path_10517" class="fil0" d="M562 174c-3,3 -4,8 -1,11l94 105c1,2 3,3 6,3 2,0 4,-1 5,-2 3,-3 4,-8 1,-11l-94 -105c-3,-4 -8,-4 -11,-1z"/>
    <path id="Path_10519" class="fil0" d="M486 382c-2,-1 -4,-2 -6,-2 -2,0 -4,0 -6,2l-172 154c0,0 0,1 0,1l-92 83 0 0 -137 123c-2,1 -3,3 -3,5 0,2 1,4 2,6l57 63c1,2 3,3 6,3 2,-1 3,-1 5,-3l401 -360c4,-3 4,-8 1,-11l-56 -64zm-173 166l166 -149 46 51 -390 350 -45 -51 133 -120c1,0 1,0 1,0l89 -81z"/>
    <path id="Path_10521" class="fil0" d="M67 758c-1,-1 -3,-2 -5,-3 -3,0 -5,1 -6,3l-39 34c-21,19 -23,51 -4,71 18,21 50,23 71,4 0,0 0,0 0,0l39 -35c3,-3 3,-8 0,-11l-56 -63zm6 97c-13,13 -35,13 -48,-1 -13,-13 -13,-35 1,-48 1,-1 1,-1 2,-2l33 -29 45 51 -33 29z"/>
    <path id="Path_10523" class="fil0" d="M1080 781l-34 0c1,-2 1,-5 1,-8 0,-31 -25,-56 -56,-56l-183 0c-31,0 -56,25 -56,56 0,3 1,6 1,8l-31 0c-27,2 -48,24 -47,51 1,26 21,46 47,47l358 0c27,1 50,-20 51,-47 1,-27 -20,-50 -47,-51 -2,0 -3,0 -4,0l0 0 0 0zm0 82l-358 0c-18,0 -33,-14 -33,-32 0,-19 15,-33 33,-33l358 0c18,0 32,14 32,33 0,18 -14,32 -32,32zm-312 -90c0,-22 18,-40 40,-40l183 0c22,0 40,18 40,40 0,3 -1,6 -2,8l-260 0c-1,-2 -1,-5 -1,-8z"/>
   </g>
   <polygon class="fil1" points="135,800 525,450 479,399 313,548 224,629 223,629 90,749 "/>
   <path class="fil1" d="M401 234l167 -152 0 0c14,-13 14,-33 2,-47 -6,-7 -15,-11 -24,-10 -8,0 -16,3 -22,8l-168 153c-6,5 -10,14 -11,22l0 0c0,9 3,18 9,24l0 0c13,14 33,14 47,2z"/>
   <path class="fil1" d="M832 382l-168 152 0 0c-13,12 -14,33 -2,46l0 1c13,13 33,14 47,2l167 -153 0 0c14,-12 15,-33 2,-46l0 0c-12,-14 -33,-15 -46,-2z"/>
  </g>
 </g>
</svg>
