<?xml version="1.0" encoding="UTF-8"?>
<!DOCTYPE svg PUBLIC "-//W3C//DTD SVG 1.1//EN" "http://www.w3.org/Graphics/SVG/1.1/DTD/svg11.dtd">
<!-- Creator: CorelDRAW X8 -->
<svg xmlns="http://www.w3.org/2000/svg" xml:space="preserve" width="4.26099in" height="3in" version="1.1" style="shape-rendering:geometricPrecision; text-rendering:geometricPrecision; image-rendering:optimizeQuality; fill-rule:evenodd; clip-rule:evenodd"
viewBox="0 0 145759 102623"
 xmlns:xlink="http://www.w3.org/1999/xlink">
 <defs>
  <style type="text/css">
   <![CDATA[
    .fil3 {fill:none}
    .fil6 {fill:#FEFEFE}
    .fil4 {fill:#E6E7E8}
    .fil0 {fill:#1A237E}
    .fil5 {fill:#FEFEFE;fill-rule:nonzero}
    .fil2 {fill:#606062;fill-rule:nonzero}
    .fil1 {fill:#1A237E;fill-rule:nonzero}
   ]]>
  </style>
 </defs>
 <g id="Layer_x0020_1">
  <metadata id="CorelCorpID_0Corel-Layer"/>
  <g id="_1410469781456">
   <path class="fil0" d="M128521 15360l-123581 0c-2728,8 -4937,2209 -4940,4924l0 77416c4,2715 2212,4915 4940,4923l123581 0c2728,-8 4937,-2208 4940,-4924l0 -77415c-3,-2715 -2212,-4916 -4940,-4924zm287 78132c-46,2753 -2317,4952 -5083,4923l-114059 0c-2767,29 -5037,-2170 -5083,-4923l0 -69141c46,-2753 2316,-4952 5083,-4924l114130 0c2767,-28 5038,2171 5084,4924l0 69141 -72 0z"/>
   <polygon class="fil1" points="8796,29898 8796,26009 9583,26009 9583,29898 "/>
   <path id="1" class="fil1" d="M10272 27079l685 0 0 385c245,-296 538,-445 877,-445 180,0 337,37 469,111 133,75 242,187 326,337 124,-150 258,-262 401,-337 143,-74 296,-111 459,-111 207,0 381,42 525,126 143,84 250,207 321,370 52,120 77,314 77,583l0 1800 -744 0 0 -1609c0,-279 -26,-460 -77,-540 -69,-106 -176,-160 -319,-160 -104,0 -203,32 -295,96 -92,64 -159,157 -199,279 -41,123 -61,317 -61,582l0 1352 -744 0 0 -1543c0,-273 -14,-450 -40,-529 -26,-80 -67,-140 -123,-179 -55,-38 -132,-58 -227,-58 -115,0 -218,31 -309,93 -93,62 -158,151 -198,268 -40,117 -59,310 -59,580l0 1368 -745 0 0 -2819z"/>
   <path id="2" class="fil1" d="M15135 27079l696 0 0 414c90,-142 212,-256 365,-343 154,-87 326,-131 513,-131 327,0 605,129 833,386 228,256 342,615 342,1073 0,471 -115,837 -345,1099 -230,262 -509,392 -836,392 -156,0 -297,-31 -424,-93 -126,-62 -260,-168 -399,-318l0 1411 -745 0 0 -3890zm734 1366c0,318 62,552 188,705 125,151 278,227 457,227 173,0 317,-70 432,-209 115,-140 172,-368 172,-686 0,-297 -59,-517 -177,-661 -118,-144 -265,-215 -439,-215 -182,0 -334,70 -453,212 -121,141 -180,350 -180,627z"/>
   <path id="3" class="fil1" d="M18301 28454c0,-248 61,-488 183,-720 122,-232 295,-409 519,-531 224,-122 473,-184 749,-184 426,0 775,139 1047,416 273,278 409,627 409,1051 0,427 -138,781 -412,1062 -276,281 -621,421 -1039,421 -258,0 -504,-59 -739,-176 -233,-117 -412,-288 -534,-514 -122,-225 -183,-501 -183,-825zm766 40c0,280 66,494 199,643 133,149 296,223 490,223 194,0 357,-74 488,-223 132,-149 198,-365 198,-648 0,-277 -66,-489 -198,-638 -131,-149 -294,-223 -488,-223 -194,0 -357,74 -490,223 -133,149 -199,363 -199,643z"/>
   <path id="4" class="fil1" d="M22505 29898l-744 0 0 -2819 690 0 0 400c119,-189 225,-313 320,-372 95,-59 203,-88 324,-88 170,0 334,47 491,140l-231 651c-126,-82 -242,-123 -350,-123 -105,0 -194,29 -266,86 -73,58 -130,162 -171,312 -42,150 -63,465 -63,944l0 869z"/>
   <path id="5" class="fil1" d="M25195 27079l0 592 -510 0 0 1142c0,232 4,366 14,404 10,39 32,70 67,95 34,25 76,38 126,38 70,0 169,-24 301,-72l62 580c-173,74 -369,111 -588,111 -134,0 -254,-23 -362,-68 -108,-45 -186,-104 -236,-176 -51,-72 -85,-169 -105,-292 -16,-87 -24,-263 -24,-528l0 -1234 -342 0 0 -592 342 0 0 -560 745 -440 0 1000 510 0z"/>
   <polygon id="6" class="fil1" points="27232,29898 27232,26009 30111,26009 30111,26666 28019,26666 28019,27530 29964,27530 29964,28187 28019,28187 28019,29241 30187,29241 30187,29898 "/>
   <polygon id="7" class="fil1" points="30488,29898 31504,28446 30532,27079 31441,27079 31939,27854 32468,27079 33340,27079 32385,28414 33427,29898 32519,29898 31939,29025 31361,29898 "/>
   <path id="8" class="fil1" d="M36326 27915l-733 131c-24,-146 -80,-255 -168,-330 -88,-73 -201,-110 -341,-110 -185,0 -334,64 -444,193 -111,128 -166,343 -166,644 0,335 56,572 168,710 113,139 263,207 451,207 142,0 257,-40 347,-121 91,-80 154,-219 191,-416l733 125c-76,336 -221,591 -437,763 -215,172 -504,258 -867,258 -411,0 -740,-130 -984,-390 -246,-261 -368,-621 -368,-1082 0,-467 123,-829 369,-1089 245,-260 577,-389 996,-389 343,0 615,74 818,222 202,147 347,372 435,674z"/>
   <path id="9" class="fil1" d="M38522 29007l744 125c-95,273 -246,480 -451,623 -207,142 -465,214 -774,214 -490,0 -853,-160 -1087,-481 -186,-257 -279,-581 -279,-973 0,-467 122,-834 366,-1098 243,-266 552,-398 925,-398 418,0 749,139 992,416 241,277 357,701 346,1274l-1863 0c5,221 65,393 180,516 114,123 257,184 428,184 116,0 214,-31 293,-95 80,-63 139,-165 180,-307zm44 -755c-6,-216 -61,-381 -167,-493 -106,-113 -235,-170 -387,-170 -162,0 -296,60 -402,179 -106,119 -157,281 -156,484l1112 0z"/>
   <polygon id="10" class="fil1" points="39914,29898 39914,26009 40658,26009 40658,29898 "/>
   <path class="fil2" d="M8418 43991l1492 -3890 566 0 1584 3890 -586 0 -450 -1179 -1638 0 -422 1179 -546 0zm1119 -1597l1326 0 -406 -1079c-122,-327 -215,-598 -279,-812 -53,254 -125,503 -215,749l-426 1142z"/>
   <path id="1" class="fil2" d="M14250 42959l467 65c-52,321 -182,572 -393,754 -211,182 -471,273 -778,273 -385,0 -694,-126 -928,-378 -234,-252 -351,-612 -351,-1081 0,-304 51,-570 151,-798 101,-227 254,-398 460,-511 206,-114 429,-171 672,-171 305,0 556,77 750,231 194,155 319,375 374,660l-462 70c-45,-189 -123,-331 -236,-427 -112,-95 -248,-143 -407,-143 -241,0 -437,86 -588,258 -150,173 -225,444 -225,817 0,379 72,653 217,824 146,171 335,258 568,258 188,0 345,-58 470,-173 126,-114 205,-290 239,-528z"/>
   <path id="2" class="fil2" d="M16966 42959l467 65c-51,321 -182,572 -393,754 -211,182 -470,273 -777,273 -385,0 -695,-126 -928,-378 -235,-252 -352,-612 -352,-1081 0,-304 51,-570 151,-798 101,-227 254,-398 460,-511 206,-114 430,-171 672,-171 305,0 556,77 750,231 195,155 320,375 374,660l-462 70c-44,-189 -122,-331 -235,-427 -113,-95 -248,-143 -408,-143 -241,0 -436,86 -587,258 -151,173 -226,444 -226,817 0,379 73,653 217,824 146,171 335,258 568,258 188,0 345,-58 470,-173 126,-114 206,-290 239,-528z"/>
   <path id="3" class="fil2" d="M17661 42581c0,-520 145,-906 436,-1157 242,-208 538,-312 886,-312 387,0 704,126 950,380 245,252 369,603 369,1049 0,362 -55,647 -163,854 -109,207 -268,369 -476,484 -207,115 -434,172 -680,172 -394,0 -713,-126 -957,-379 -243,-252 -365,-616 -365,-1091zm489 1c0,360 79,630 237,809 158,179 356,269 596,269 238,0 435,-90 593,-270 158,-181 237,-455 237,-823 0,-348 -80,-612 -239,-790 -158,-179 -355,-269 -591,-269 -240,0 -438,89 -596,267 -158,179 -237,448 -237,807z"/>
   <path id="4" class="fil2" d="M22704 43991l0 -419c-220,319 -517,479 -892,479 -166,0 -321,-32 -465,-95 -144,-65 -251,-144 -320,-240 -70,-97 -119,-215 -147,-354 -19,-95 -29,-243 -29,-446l0 -1745 478 0 0 1560c0,249 10,418 29,504 30,126 93,223 191,295 97,72 217,108 360,108 143,0 277,-36 402,-110 125,-73 213,-174 266,-300 51,-125 78,-309 78,-549l0 -1508 478 0 0 2820 -429 0z"/>
   <path id="5" class="fil2" d="M23883 43991l0 -2820 429 0 0 401c207,-307 506,-460 896,-460 170,0 326,30 468,91 142,61 249,141 320,240 70,99 120,216 148,352 17,89 26,244 26,465l0 1731 -478 0 0 -1713c0,-195 -18,-341 -55,-437 -37,-96 -103,-172 -197,-230 -94,-57 -206,-86 -333,-86 -202,0 -377,64 -525,193 -147,129 -221,374 -221,735l0 1538 -478 0z"/>
   <path id="6" class="fil2" d="M27942 43564l66 422c-135,28 -255,43 -360,43 -173,0 -307,-27 -403,-83 -95,-55 -162,-126 -201,-216 -39,-89 -58,-278 -58,-565l0 -1624 -353 0 0 -370 353 0 0 -697 478 -287 0 984 478 0 0 370 -478 0 0 1651c0,137 8,225 26,264 16,39 43,69 81,93 38,23 92,34 163,34 53,0 122,-6 208,-19z"/>
   <polygon id="7" class="fil2" points="30070,43991 30070,40101 30586,40101 30586,43991 "/>
   <path id="8" class="fil2" d="M31433 43991l0 -2820 429 0 0 399c88,-138 206,-249 352,-333 147,-84 313,-125 501,-125 208,0 379,43 512,129 133,87 228,207 282,363 225,-328 515,-492 874,-492 280,0 497,77 647,231 151,155 227,393 227,715l0 1933 -478 0 0 -1775c0,-190 -16,-328 -47,-412 -31,-84 -87,-151 -169,-202 -82,-52 -178,-77 -287,-77 -199,0 -364,66 -495,197 -132,132 -197,343 -197,633l0 1636 -478 0 0 -1830c0,-212 -39,-371 -117,-477 -78,-106 -205,-159 -382,-159 -134,0 -258,35 -372,105 -114,71 -196,174 -248,311 -51,136 -76,332 -76,588l0 1462 -478 0z"/>
   <path id="9" class="fil2" d="M35958 45072l0 -3901 435 0 0 371c102,-143 218,-251 347,-323 129,-71 285,-107 469,-107 241,0 453,61 637,185 184,123 322,298 416,523 94,225 141,471 141,740 0,287 -52,546 -155,777 -103,230 -254,407 -451,530 -196,122 -404,184 -621,184 -159,0 -303,-34 -428,-101 -127,-67 -230,-151 -312,-253l0 1375 -478 0zm435 -2474c0,362 73,629 219,802 146,173 324,260 532,260 212,0 393,-90 543,-269 152,-180 227,-457 227,-833 0,-358 -74,-626 -221,-804 -148,-179 -323,-268 -528,-268 -203,0 -382,96 -538,285 -157,190 -234,465 -234,827z"/>
   <path id="10" class="fil2" d="M38800 42581c0,-520 145,-906 436,-1157 241,-208 538,-312 886,-312 387,0 704,126 950,380 245,252 368,603 368,1049 0,362 -54,647 -163,854 -108,207 -267,369 -475,484 -207,115 -435,172 -680,172 -395,0 -713,-126 -957,-379 -244,-252 -365,-616 -365,-1091zm489 1c0,360 79,630 236,809 159,179 357,269 597,269 237,0 435,-90 593,-270 158,-181 236,-455 236,-823 0,-348 -79,-612 -238,-790 -158,-179 -356,-269 -591,-269 -240,0 -438,89 -597,267 -157,179 -236,448 -236,807z"/>
   <path id="11" class="fil2" d="M41995 43991l0 -2820 429 0 0 432c110,-200 211,-332 305,-395 93,-65 195,-96 307,-96 161,0 325,50 491,151l-170 441c-116,-65 -232,-98 -348,-98 -104,0 -197,32 -279,94 -83,63 -142,150 -177,261 -53,169 -80,355 -80,557l0 1473 -478 0z"/>
   <path id="12" class="fil2" d="M44847 43564l66 422c-134,28 -255,43 -360,43 -173,0 -307,-27 -403,-83 -95,-55 -162,-126 -201,-216 -39,-89 -58,-278 -58,-565l0 -1624 -353 0 0 -370 353 0 0 -697 478 -287 0 984 478 0 0 370 -478 0 0 1651c0,137 9,225 26,264 16,39 43,69 81,93 38,23 92,34 163,34 53,0 122,-6 208,-19z"/>
   <path class="fil3" d="M9527 51808l113035 0c612,0 1109,496 1109,1108l0 12190c0,612 -497,1108 -1109,1108l-113035 0c-612,0 -1108,-496 -1108,-1108l0 -12190c0,-612 496,-1108 1108,-1108z"/>
   <path class="fil4" d="M9527 53792l113035 0c498,0 901,300 901,671l0 9095c0,371 -404,672 -901,672l-113035 0c-497,0 -900,-301 -900,-672l0 -9095c0,-371 403,-671 900,-671z"/>
   <path class="fil0" d="M9527 74572l28259 0c612,0 1108,445 1108,994l0 8448c0,549 -496,994 -1108,994l-28259 0c-612,0 -1108,-445 -1108,-994l0 -8448c0,-549 496,-994 1108,-994z"/>
   <path class="fil3" d="M45543 73972l24934 0c613,0 1109,496 1109,1108l0 9420c0,611 -496,1108 -1109,1108l-24934 0c-612,0 -1108,-497 -1108,-1108l0 -9420c0,-612 496,-1108 1108,-1108z"/>
   <path class="fil2" d="M12844 60926l1492 -3890 566 0 1583 3890 -586 0 -450 -1179 -1638 0 -422 1179 -545 0zm1119 -1597l1325 0 -406 -1079c-122,-327 -214,-598 -278,-812 -54,254 -125,503 -215,749l-426 1142z"/>
   <path id="1" class="fil2" d="M17871 60499l65 422c-134,28 -254,43 -359,43 -173,0 -307,-27 -403,-83 -95,-55 -162,-126 -201,-216 -39,-90 -58,-278 -58,-565l0 -1624 -353 0 0 -370 353 0 0 -697 478 -287 0 984 478 0 0 370 -478 0 0 1651c0,137 8,225 26,264 16,39 43,69 81,93 38,23 92,34 163,34 53,0 122,-6 208,-19z"/>
   <path id="2" class="fil2" d="M19381 60499l65 422c-134,28 -255,43 -360,43 -173,0 -307,-27 -403,-83 -95,-55 -162,-126 -200,-216 -39,-90 -58,-278 -58,-565l0 -1624 -354 0 0 -370 354 0 0 -697 477 -287 0 984 479 0 0 370 -479 0 0 1651c0,137 9,225 26,264 16,39 43,69 81,93 38,23 93,34 163,34 53,0 122,-6 209,-19z"/>
   <path id="3" class="fil2" d="M21694 60573c-178,151 -349,257 -513,319 -163,63 -339,94 -527,94 -310,0 -548,-76 -715,-227 -166,-150 -250,-343 -250,-578 0,-137 32,-263 95,-377 63,-114 145,-205 247,-274 102,-68 216,-121 344,-156 94,-25 236,-48 425,-72 386,-45 671,-100 853,-164 2,-65 3,-106 3,-124 0,-193 -45,-330 -136,-410 -122,-107 -304,-161 -545,-161 -225,0 -392,40 -499,119 -108,78 -186,218 -238,419l-467 -65c42,-200 112,-362 210,-486 98,-123 239,-217 424,-284 183,-66 398,-99 641,-99 240,0 437,28 588,85 150,57 262,127 332,213 71,86 121,195 150,326 15,82 23,228 23,439l0 634c0,443 10,723 30,841 19,119 59,232 117,341l-500 0c-48,-101 -78,-218 -92,-353zm-38 -1060c-174,71 -435,131 -782,180 -198,28 -337,59 -419,95 -81,35 -144,87 -188,154 -44,67 -67,143 -67,226 0,126 48,232 145,316 97,84 238,127 424,127 183,0 347,-40 491,-121 143,-79 249,-189 316,-328 52,-107 77,-266 77,-475l3 -174z"/>
   <path id="4" class="fil2" d="M24715 59894l468 65c-52,321 -183,572 -394,754 -211,182 -470,273 -777,273 -385,0 -695,-126 -928,-378 -235,-252 -352,-612 -352,-1081 0,-304 51,-570 152,-798 100,-227 253,-398 460,-511 205,-114 429,-171 671,-171 306,0 556,76 750,231 195,155 320,375 374,659l-462 71c-44,-189 -122,-331 -235,-427 -112,-95 -248,-143 -408,-143 -241,0 -436,86 -587,258 -151,173 -226,444 -226,817 0,379 73,653 218,824 145,171 335,257 567,257 189,0 345,-57 470,-172 126,-114 206,-290 239,-528z"/>
   <path id="5" class="fil2" d="M25590 60926l0 -3890 478 0 0 1400c222,-260 502,-389 840,-389 208,0 388,40 542,123 153,82 262,195 328,340 66,145 99,356 99,631l0 1785 -478 0 0 -1783c0,-238 -52,-412 -154,-521 -103,-108 -248,-163 -436,-163 -141,0 -273,37 -397,110 -124,73 -212,173 -265,299 -53,125 -79,298 -79,519l0 1539 -478 0z"/>
   <polygon id="6" class="fil2" points="30208,60926 30208,57036 32831,57036 32831,57492 30724,57492 30724,58704 32549,58704 32549,59160 30724,59160 30724,60926 "/>
   <path id="7" class="fil2" d="M33439 57579l0 -543 478 0 0 543 -478 0zm0 3347l0 -2820 478 0 0 2820 -478 0z"/>
   <polygon id="8" class="fil2" points="34635,60926 34635,57036 35113,57036 35113,60926 "/>
   <path id="9" class="fil2" d="M37776 60013l494 65c-77,287 -221,511 -431,669 -210,159 -478,239 -805,239 -411,0 -737,-127 -978,-381 -240,-252 -361,-608 -361,-1065 0,-473 122,-841 365,-1101 244,-262 560,-392 948,-392 376,0 683,127 921,383 238,257 358,617 358,1081 0,29 -1,71 -3,127l-2100 0c18,309 105,546 263,710 156,164 353,246 587,246 175,0 325,-46 448,-138 124,-92 221,-240 294,-443zm-1565 -766l1570 0c-20,-237 -81,-415 -180,-533 -151,-184 -348,-276 -590,-276 -219,0 -403,73 -552,220 -149,146 -231,343 -248,589z"/>
   <polygon class="fil5" points="13933,81735 13933,77845 14449,77845 14449,81735 "/>
   <path id="1" class="fil5" d="M15296 81735l0 -2820 429 0 0 399c88,-138 206,-249 352,-333 147,-84 313,-125 501,-125 208,0 379,43 512,129 133,87 228,207 282,363 224,-329 515,-492 874,-492 280,0 497,76 647,231 151,155 227,393 227,715l0 1933 -478 0 0 -1775c0,-190 -16,-328 -47,-412 -31,-84 -87,-151 -169,-203 -82,-51 -178,-77 -287,-77 -199,0 -364,66 -495,198 -132,132 -197,343 -197,633l0 1636 -478 0 0 -1830c0,-212 -39,-371 -117,-477 -78,-106 -205,-160 -382,-160 -134,0 -258,36 -372,106 -114,71 -196,174 -248,311 -51,136 -76,332 -76,588l0 1462 -478 0z"/>
   <path id="2" class="fil5" d="M19821 82816l0 -3901 435 0 0 371c102,-143 218,-251 347,-323 129,-71 285,-107 469,-107 241,0 453,61 637,185 184,123 322,298 416,523 94,225 141,471 141,740 0,287 -52,546 -155,777 -103,230 -254,407 -451,530 -197,122 -404,184 -621,184 -160,0 -303,-34 -429,-101 -126,-67 -230,-151 -311,-254l0 1376 -478 0zm435 -2474c0,361 73,629 219,802 146,172 324,259 532,259 212,0 393,-89 543,-269 151,-179 227,-456 227,-832 0,-358 -74,-626 -221,-805 -148,-178 -323,-267 -528,-267 -203,0 -382,95 -538,285 -157,190 -234,465 -234,827z"/>
   <path id="3" class="fil5" d="M22663 80325c0,-521 145,-906 436,-1157 241,-208 537,-312 886,-312 387,0 703,126 950,380 245,252 368,603 368,1049 0,362 -54,647 -163,854 -108,207 -267,368 -475,483 -207,115 -435,173 -680,173 -395,0 -714,-126 -957,-379 -244,-253 -365,-617 -365,-1091zm489 1c0,360 79,630 236,808 159,180 357,269 597,269 237,0 435,-89 593,-269 158,-181 236,-455 236,-823 0,-348 -79,-612 -238,-790 -158,-179 -356,-269 -591,-269 -240,0 -438,89 -597,267 -157,179 -236,448 -236,807z"/>
   <path id="4" class="fil5" d="M25858 81735l0 -2820 429 0 0 432c110,-200 211,-332 305,-396 93,-64 195,-95 307,-95 161,0 325,50 491,151l-170 441c-116,-66 -232,-98 -348,-98 -104,0 -197,32 -279,94 -83,62 -142,149 -177,261 -53,169 -80,355 -80,557l0 1473 -478 0z"/>
   <path id="5" class="fil5" d="M28710 81308l66 422c-135,28 -255,43 -360,43 -173,0 -307,-27 -403,-83 -95,-55 -162,-126 -201,-216 -39,-90 -58,-278 -58,-565l0 -1624 -353 0 0 -370 353 0 0 -697 478 -287 0 984 478 0 0 370 -478 0 0 1651c0,137 8,225 26,264 16,39 43,69 81,93 38,22 92,34 163,34 53,0 122,-6 208,-19z"/>
   <ellipse class="fil0" cx="130015" cy="15768" rx="15743" ry="15768"/>
   <g>
    <path class="fil1" d="M74453 74685l-28258 0 0 -227 28258 0 0 0 0 227zm1222 881l-227 0 0 0 -1 -45 -4 -44 -6 -44 -9 -43 -10 -42 -14 -41 -15 -40 -17 -40 -20 -39 -21 -38 -24 -36 -25 -36 -28 -35 -29 -33 -31 -32 -33 -31 -34 -30 -36 -27 -38 -27 -39 -25 -40 -23 -42 -22 -43 -20 -45 -17 -45 -17 -47 -14 -47 -12 -49 -10 -49 -8 -51 -6 -51 -3 -52 -1 0 -227 63 2 61 4 61 7 60 9 58 13 58 14 56 17 55 20 54 22 53 24 51 26 49 29 48 30 46 33 44 34 43 37 41 38 38 40 37 41 34 44 32 45 30 46 28 48 24 50 23 50 19 52 17 53 14 54 11 55 8 56 5 57 1 58 0 0zm-227 8448l0 -8448 227 0 0 8448 0 0 -227 0zm-995 1107l0 -226 0 0 52 -1 51 -4 51 -5 49 -8 49 -10 47 -13 47 -14 45 -16 45 -18 43 -20 42 -21 40 -23 39 -25 38 -27 36 -28 34 -29 33 -31 31 -32 29 -33 28 -35 25 -36 24 -37 21 -37 20 -39 17 -40 15 -40 14 -42 10 -42 9 -42 6 -44 4 -44 1 -45 227 0 -1 58 -5 57 -8 55 -11 56 -14 54 -17 53 -19 52 -23 50 -24 49 -28 48 -30 47 -32 45 -34 43 -37 42 -38 40 -41 38 -43 36 -44 35 -46 32 -48 31 -49 29 -51 26 -53 24 -54 22 -55 19 -56 18 -58 14 -58 12 -60 10 -61 7 -61 4 -63 1 0 0zm-28258 -226l28258 0 0 226 -28258 0 0 0 0 -226zm-1222 -881l227 0 0 0 1 45 4 44 6 44 8 42 11 42 13 42 16 40 17 40 20 39 21 37 24 37 25 36 28 35 29 33 31 32 33 31 34 29 36 28 38 27 39 25 40 23 42 21 43 20 44 18 46 16 47 14 47 13 49 10 49 8 50 5 52 4 52 1 0 226 -63 -1 -61 -4 -61 -7 -60 -10 -58 -12 -58 -14 -56 -18 -55 -19 -54 -22 -53 -24 -51 -26 -49 -29 -48 -31 -46 -32 -45 -35 -42 -36 -41 -38 -38 -40 -37 -42 -34 -43 -32 -45 -30 -47 -28 -48 -24 -49 -23 -50 -19 -52 -17 -53 -14 -54 -11 -56 -8 -55 -5 -57 -1 -58 0 0zm227 -8448l0 8448 -227 0 0 -8448 0 0 227 0zm995 -1108l0 227 0 0 -52 1 -52 3 -50 6 -49 8 -49 10 -48 12 -46 14 -46 17 -44 17 -43 20 -42 22 -40 23 -39 25 -38 26 -36 28 -34 30 -33 31 -31 32 -29 33 -28 35 -25 36 -24 36 -21 38 -20 39 -17 40 -16 40 -13 41 -11 42 -8 43 -6 44 -4 44 -1 45 -227 0 1 -58 5 -57 8 -56 11 -55 14 -54 17 -53 19 -52 22 -50 25 -50 28 -48 29 -46 33 -45 34 -44 37 -41 38 -40 41 -38 42 -37 45 -34 46 -33 48 -30 49 -29 51 -26 53 -24 54 -22 55 -20 56 -17 58 -14 58 -13 60 -9 61 -7 61 -4 63 -2 0 0z"/>
   </g>
   <path class="fil1" d="M55112 80370l517 131c-108,422 -302,744 -582,966 -280,222 -622,333 -1026,333 -419,0 -759,-85 -1022,-256 -262,-171 -462,-418 -598,-741 -137,-324 -206,-671 -206,-1042 0,-405 77,-758 232,-1059 155,-302 375,-531 660,-688 285,-156 599,-234 942,-234 389,0 716,99 980,297 265,198 450,476 554,835l-505 119c-89,-282 -221,-489 -392,-617 -171,-130 -387,-194 -646,-194 -298,0 -548,71 -748,215 -200,142 -342,335 -422,576 -82,242 -122,491 -122,747 0,331 48,620 144,866 96,247 245,431 448,553 203,122 422,183 658,183 288,0 530,-83 730,-249 199,-167 334,-413 404,-741z"/>
   <path id="1" class="fil1" d="M58047 81382c-178,151 -349,257 -513,319 -164,63 -339,94 -527,94 -310,0 -548,-76 -715,-227 -166,-150 -250,-343 -250,-578 0,-137 32,-263 94,-377 64,-114 146,-205 248,-274 102,-68 216,-121 344,-156 94,-25 236,-48 425,-72 386,-45 671,-100 853,-164 2,-65 3,-106 3,-124 0,-193 -45,-330 -136,-410 -122,-108 -304,-161 -545,-161 -226,0 -392,40 -499,119 -108,78 -186,218 -238,419l-467 -65c42,-200 112,-362 210,-486 98,-123 239,-217 424,-284 183,-66 398,-99 641,-99 240,0 437,28 588,85 150,57 262,127 332,213 71,86 121,195 150,326 15,82 23,228 23,439l0 634c0,443 10,723 30,841 19,119 59,232 117,341l-500 0c-48,-101 -79,-218 -92,-353zm-38 -1060c-174,71 -435,131 -782,180 -198,28 -337,59 -419,95 -81,35 -144,87 -188,154 -44,67 -67,143 -67,226 0,126 48,232 145,316 97,84 238,127 423,127 184,0 348,-40 492,-121 143,-80 249,-189 316,-328 52,-107 77,-266 77,-475l3 -174z"/>
   <path id="2" class="fil1" d="M59227 81735l0 -2820 429 0 0 401c206,-307 505,-460 895,-460 170,0 326,30 468,91 142,61 249,141 320,240 71,99 120,216 148,352 18,89 27,244 27,465l0 1731 -478 0 0 -1713c0,-195 -18,-341 -56,-437 -37,-96 -103,-173 -197,-231 -94,-57 -206,-86 -332,-86 -203,0 -378,65 -525,194 -148,129 -221,374 -221,734l0 1539 -478 0z"/>
   <path id="3" class="fil1" d="M64090 80703l467 65c-52,321 -182,572 -393,754 -211,182 -471,273 -778,273 -385,0 -694,-126 -928,-378 -235,-252 -351,-612 -351,-1081 0,-304 50,-570 151,-798 100,-227 253,-398 460,-511 205,-114 429,-171 672,-171 305,0 556,76 749,231 195,155 320,375 374,659l-461 71c-45,-189 -123,-331 -236,-427 -112,-95 -248,-143 -407,-143 -241,0 -437,86 -588,258 -150,173 -225,444 -225,817 0,379 72,653 217,824 146,171 335,257 568,257 188,0 345,-57 469,-172 126,-114 206,-290 240,-528z"/>
   <path id="4" class="fil1" d="M66887 80822l495 65c-77,287 -221,511 -431,669 -210,159 -478,239 -805,239 -411,0 -737,-127 -978,-381 -241,-252 -361,-608 -361,-1065 0,-473 121,-841 365,-1101 243,-262 559,-392 948,-392 375,0 682,127 920,383 238,257 358,617 358,1081 0,29 -1,71 -3,127l-2099 0c18,309 105,546 262,710 157,164 353,246 588,246 175,0 324,-46 447,-138 124,-92 222,-240 294,-443zm-1564 -766l1570 0c-21,-237 -82,-415 -180,-533 -152,-184 -349,-276 -591,-276 -219,0 -403,73 -552,220 -149,146 -231,343 -247,589z"/>
   <polygon id="5" class="fil1" points="67975,81735 67975,77845 68453,77845 68453,81735 "/>
   <g id="_1410469781040">
    <path class="fil6" d="M124302 15164l-1635 7194c-48,282 141,550 423,599 19,3 38,5 57,6l13736 0c284,-14 502,-256 488,-539 -2,-22 -4,-44 -8,-66l-1635 -7194c-55,-219 -252,-374 -479,-377l-2290 0c-271,0 -491,220 -491,491 0,271 220,491 491,491l1898 0 1414 6214 -12503 0 1414 -6214 1890 0c271,0 491,-220 491,-491 0,-271 -220,-491 -491,-491l0 0 -2289 0c-226,6 -421,159 -480,377l-1 0 0 0z"/>
    <path class="fil6" d="M130015 21001c-124,-7 -242,-53 -338,-131l-2780 -2617c-183,-197 -201,-496 -43,-714 199,-195 518,-193 714,6l1952 1842 0 -10324c0,-271 219,-491 490,-491 271,0 491,220 491,491l0 10319 1952 -1842c202,-182 508,-184 714,-6 164,216 146,520 -44,714l-2780 2617c-85,90 -204,140 -328,136l0 0z"/>
   </g>
   <g>
    <polygon class="fil1" points="123463,33609 8796,33609 8796,33383 123463,33383 "/>
   </g>
  </g>
 </g>
</svg>
