<svg xmlns="http://www.w3.org/2000/svg" width="424.756" height="79.885" viewBox="0 0 424.756 79.885">
  <g id="Group_4" data-name="Group 4" transform="translate(-440.577 -194.48)">
    <path id="path40" d="M505.249,306.156H522V230.137h-16.75Z" transform="translate(41.814 -33.725)" fill="#21276a" fill-rule="evenodd"/>
    <path id="path42" d="M591.386,306.158H564.005c-22.656,0-42.736-13.207-42.736-37.8,0-27.81,20.509-38.225,44.99-38.225h25.126v35.527H574.636V245.6h-9.878c-14.174,0-26.093,6.979-26.093,21.9,0,17.288,11.7,23.193,27.274,23.193h25.448Z" transform="translate(76.869 -33.726)" fill="#21276a" fill-rule="evenodd"/>
    <path id="path44" d="M584.367,306.156h16.75V273.3H633.65v32.856H650.4V230.137H633.65v28.346H601.117V230.137h-16.75Z" transform="translate(214.933 -33.725)" fill="#21276a" fill-rule="evenodd"/>
    <path id="path46" d="M555.543,230.137h27.38c22.656,0,42.735,13.207,42.735,37.8,0,27.81-20.509,38.225-44.99,38.225H555.543V270.631h16.75V290.7h9.878c14.173,0,26.093-6.979,26.093-21.9,0-17.287-11.7-23.193-27.274-23.193H555.543Z" transform="translate(151.863 -33.726)" fill="#21276a" fill-rule="evenodd"/>
    <path id="path48" d="M544.753,262.387H515.012v15.462h13.636V290.2a32.793,32.793,0,0,1-15.784,3.758c-14.28,0-23.621-10.307-23.621-24.481s9.341-24.481,23.621-24.481c8.483,0,13.958,2.47,18.468,7.194L543.143,239.3c-7.623-7.087-18.253-9.771-30.279-9.771-23.729,0-41.016,15.569-41.016,39.942s17.287,39.942,41.016,39.942c11.167,0,22.011-2.148,31.889-7.3Z" transform="translate(-31.271 -35.051)" fill="#21276a" fill-rule="evenodd"/>
  </g>
</svg>
