<?xml version="1.0" encoding="UTF-8"?>
<!DOCTYPE svg PUBLIC "-//W3C//DTD SVG 1.1//EN" "http://www.w3.org/Graphics/SVG/1.1/DTD/svg11.dtd">
<!-- Creator: CorelDRAW X8 -->
<svg xmlns="http://www.w3.org/2000/svg" xml:space="preserve" width="4.45305in" height="3in" version="1.1" style="shape-rendering:geometricPrecision; text-rendering:geometricPrecision; image-rendering:optimizeQuality; fill-rule:evenodd; clip-rule:evenodd"
viewBox="0 0 5723 3855"
 xmlns:xlink="http://www.w3.org/1999/xlink">
 <defs>
  <style type="text/css">
   <![CDATA[
    .str0 {stroke:#1A237E;stroke-width:3.85182}
    .fil2 {fill:none}
    .fil0 {fill:#1A237E}
    .fil4 {fill:#4B55C2}
    .fil3 {fill:#FEFEFE;fill-rule:nonzero}
    .fil1 {fill:#1A237E;fill-rule:nonzero}
    .fil5 {fill:#4B55C2;fill-rule:nonzero}
   ]]>
  </style>
    <clipPath id="id0">
     <path d="M1628 1415c424,0 769,344 769,769 0,424 -345,769 -769,769 -425,0 -770,-345 -770,-769 0,-425 345,-769 770,-769zm0 170c330,0 599,268 599,599 0,331 -269,599 -599,599 -331,0 -600,-268 -600,-599 0,-331 269,-599 600,-599z"/>
    </clipPath>
    <clipPath id="id1">
     <path d="M1628 1415c424,0 769,344 769,769 0,424 -345,769 -769,769 -425,0 -770,-345 -770,-769 0,-425 345,-769 770,-769zm0 170c330,0 599,268 599,599 0,331 -269,599 -599,599 -331,0 -600,-268 -600,-599 0,-331 269,-599 600,-599z"/>
    </clipPath>
 </defs>
 <g id="Layer_x0020_1">
  <metadata id="CorelCorpID_0Corel-Layer"/>
  <g id="_2490693090368">
   <path class="fil0" d="M5023 428l-4830 0c-107,0 -193,86 -193,193l0 3041c0,107 86,193 193,193l4830 0c107,0 193,-86 193,-193l0 -3041c0,-107 -86,-193 -193,-193zm11 3069c-2,108 -90,194 -198,193l-4458 0c-108,1 -197,-85 -199,-193l0 -2716c2,-108 91,-195 199,-194l4460 0c108,-1 197,86 199,194l0 2716 -3 0z"/>
   <polygon class="fil1" points="530,1003 530,875 484,875 484,849 607,849 607,875 561,875 561,1003 "/>
   <path id="1" class="fil1" d="M604 946c0,-10 2,-20 7,-29 5,-9 12,-16 21,-21 9,-5 19,-7 29,-7 17,0 31,5 42,16 11,11 16,25 16,42 0,17 -5,31 -16,42 -11,11 -25,17 -41,17 -11,0 -20,-3 -30,-7 -9,-5 -16,-12 -21,-21 -5,-9 -7,-19 -7,-32zm30 1c0,11 3,20 8,26 5,6 12,9 20,9 7,0 14,-3 19,-9 5,-6 8,-15 8,-26 0,-11 -3,-19 -8,-25 -5,-6 -12,-9 -19,-9 -8,0 -15,3 -20,9 -5,6 -8,14 -8,25z"/>
   <path id="2" class="fil1" d="M794 891l0 24 -21 0 0 45c0,9 0,14 1,16 0,1 1,3 3,4 1,1 3,1 5,1 2,0 6,-1 11,-3l3 23c-7,3 -15,5 -23,5 -6,0 -10,-1 -15,-3 -4,-2 -7,-4 -9,-7 -2,-3 -4,-7 -4,-11 -1,-4 -1,-11 -1,-21l0 -49 -14 0 0 -24 14 0 0 -22 29 -18 0 40 21 0z"/>
   <path id="3" class="fil1" d="M836 926l-26 -5c3,-11 8,-19 15,-24 7,-6 18,-8 33,-8 13,0 23,1 29,4 7,4 11,7 14,12 3,5 4,14 4,27l0 34c0,10 0,17 1,22 1,5 3,10 5,15l-29 0c-1,-2 -2,-5 -3,-9 0,-1 -1,-3 -1,-3 -5,5 -10,9 -16,11 -6,3 -12,4 -18,4 -12,0 -21,-3 -28,-10 -6,-6 -9,-14 -9,-23 0,-7 1,-12 4,-17 3,-5 7,-9 13,-12 5,-2 13,-4 23,-6 14,-3 24,-5 29,-8l0 -3c0,-5 -1,-9 -4,-12 -3,-2 -8,-4 -16,-4 -6,0 -10,1 -13,4 -3,2 -5,5 -7,11zm40 24c-4,1 -10,2 -18,4 -8,2 -14,4 -16,5 -4,3 -6,6 -6,11 0,4 2,7 5,10 3,3 7,5 11,5 6,0 11,-2 16,-5 3,-3 6,-6 7,-10 1,-3 1,-8 1,-15l0 -5z"/>
   <polygon id="4" class="fil1" points="934,1003 934,849 964,849 964,1003 "/>
   <path id="5" class="fil1" d="M1048 927c0,-16 2,-29 7,-40 3,-8 8,-15 14,-21 6,-6 13,-11 20,-14 10,-4 21,-6 33,-6 23,0 41,7 55,21 14,14 21,34 21,59 0,25 -7,45 -21,59 -13,14 -32,21 -54,21 -23,0 -41,-7 -55,-21 -14,-14 -20,-34 -20,-58zm32 -1c0,17 4,30 12,40 8,9 18,13 31,13 12,0 22,-4 30,-13 8,-9 12,-23 12,-41 0,-17 -3,-31 -11,-39 -8,-9 -18,-13 -31,-13 -13,0 -23,4 -31,13 -8,9 -12,22 -12,40z"/>
   <path id="6" class="fil1" d="M1252 1003l-45 -112 31 0 21 57 7 19c1,-5 2,-8 3,-9 1,-3 2,-7 3,-10l21 -57 30 0 -44 112 -27 0z"/>
   <path id="7" class="fil1" d="M1406 968l30 5c-4,10 -10,19 -18,24 -8,6 -19,9 -31,9 -19,0 -34,-7 -43,-19 -7,-10 -11,-23 -11,-39 0,-18 5,-33 14,-44 10,-10 22,-15 37,-15 17,0 30,5 39,16 10,11 15,28 14,51l-74 0c1,9 3,15 7,20 5,5 11,8 17,8 5,0 9,-2 12,-4 3,-3 6,-7 7,-12zm2 -30c0,-9 -2,-15 -7,-20 -4,-4 -9,-7 -15,-7 -6,0 -12,3 -16,7 -4,5 -6,12 -6,20l44 0z"/>
   <path id="8" class="fil1" d="M1490 1003l-30 0 0 -112 28 0 0 16c4,-8 8,-12 12,-15 4,-2 8,-3 13,-3 7,0 13,2 20,5l-10 26c-5,-3 -9,-5 -14,-5 -4,0 -7,1 -10,4 -3,2 -5,6 -7,12 -2,6 -2,18 -2,37l0 35z"/>
   <path id="9" class="fil1" d="M1648 1003l-27 0 0 -16c-5,6 -10,11 -17,14 -6,3 -12,5 -18,5 -13,0 -24,-5 -34,-16 -9,-10 -13,-25 -13,-43 0,-19 4,-34 13,-43 9,-10 20,-15 34,-15 12,0 23,5 32,15l0 -55 30 0 0 154zm-79 -58c0,12 2,21 5,26 5,8 11,12 20,12 7,0 13,-3 17,-9 5,-6 7,-15 7,-26 0,-13 -2,-22 -7,-28 -4,-6 -10,-9 -17,-9 -7,0 -13,3 -18,9 -5,5 -7,14 -7,25z"/>
   <path id="10" class="fil1" d="M1751 1003l0 -17c-4,6 -10,11 -16,15 -7,3 -14,5 -21,5 -8,0 -14,-2 -20,-5 -6,-3 -11,-8 -13,-14 -3,-6 -4,-14 -4,-25l0 -71 29 0 0 52c0,15 1,25 2,29 1,3 3,6 6,8 3,2 6,3 11,3 5,0 9,-1 13,-4 4,-3 7,-6 9,-10 1,-4 2,-15 2,-31l0 -47 29 0 0 112 -27 0z"/>
   <path id="11" class="fil1" d="M1873 968l30 5c-4,10 -10,19 -18,24 -8,6 -18,9 -31,9 -19,0 -34,-7 -43,-19 -7,-10 -11,-23 -11,-39 0,-18 5,-33 15,-44 9,-10 21,-15 36,-15 17,0 30,5 40,16 9,11 14,28 13,51l-74 0c1,9 3,15 8,20 4,5 10,8 17,8 4,0 8,-2 11,-4 3,-3 6,-7 7,-12zm2 -30c0,-9 -2,-15 -7,-20 -4,-4 -9,-7 -15,-7 -6,0 -12,3 -16,7 -4,5 -6,12 -6,20l44 0z"/>
   <path id="12" class="fil1" d="M1918 972l30 -5c1,6 4,10 7,13 4,3 10,4 17,4 7,0 13,-1 17,-4 3,-2 4,-4 4,-8 0,-2 -1,-4 -2,-5 -2,-2 -5,-3 -10,-4 -24,-5 -39,-10 -46,-15 -8,-6 -13,-14 -13,-25 0,-10 4,-18 12,-24 7,-7 19,-10 35,-10 15,0 27,2 34,7 8,5 13,13 16,22l-28 6c-1,-5 -4,-8 -7,-10 -3,-3 -8,-4 -14,-4 -8,0 -14,1 -17,3 -2,2 -4,4 -4,6 0,2 1,4 3,6 3,2 12,4 28,8 16,4 27,8 33,13 6,5 10,13 10,22 0,11 -5,19 -13,27 -9,7 -22,11 -38,11 -16,0 -28,-3 -37,-9 -8,-7 -14,-15 -17,-25z"/>
   <ellipse class="fil0" cx="5081" cy="642" rx="641" ry="642"/>
   <line class="fil2 str0" x1="495" y1="1130" x2="4915" y2= "1111" />
   <g>
    <path class="fil0" d="M1064 3139l1127 0c20,0 36,16 36,36l0 265c0,20 -16,36 -36,36l-1127 0c-20,0 -36,-16 -36,-36l0 -265c0,-20 16,-36 36,-36z"/>
    <path class="fil3" d="M1277 3335l0 21 -83 0c1,-8 4,-16 8,-23 5,-8 13,-18 27,-30 10,-10 17,-17 19,-20 3,-5 5,-10 5,-15 0,-5 -1,-9 -4,-12 -3,-3 -7,-4 -12,-4 -5,0 -9,1 -12,4 -3,3 -4,8 -5,15l-23 -2c1,-13 6,-22 13,-28 7,-6 17,-9 28,-9 12,0 21,4 28,10 7,7 11,15 11,25 0,5 -1,11 -3,16 -2,5 -5,10 -10,15 -2,4 -8,9 -15,16 -8,7 -12,12 -14,14 -2,2 -4,4 -5,7l47 0z"/>
    <path id="1" class="fil3" d="M1353 3356l-23 0 0 -89c-9,8 -19,14 -31,18l0 -21c6,-2 13,-6 20,-12 8,-6 12,-12 15,-20l19 0 0 124z"/>
    <path id="2" class="fil3" d="M1393 3333l24 0 0 17c0,7 -1,12 -2,16 -1,4 -3,8 -7,11 -3,3 -7,5 -12,7l-5 -10c5,-1 8,-3 10,-6 2,-3 3,-7 4,-12l-12 0 0 -23z"/>
    <path id="3" class="fil3" d="M1517 3335l0 21 -83 0c1,-8 3,-16 8,-23 4,-8 13,-18 26,-30 11,-10 18,-17 20,-20 3,-5 5,-10 5,-15 0,-5 -2,-9 -4,-12 -3,-3 -7,-4 -12,-4 -5,0 -9,1 -12,4 -3,3 -4,8 -5,15l-24 -2c2,-13 6,-22 14,-28 7,-6 16,-9 27,-9 13,0 22,4 29,10 7,7 11,15 11,25 0,5 -1,11 -3,16 -2,5 -5,10 -10,15 -3,4 -8,9 -15,16 -8,7 -13,12 -15,14 -2,2 -3,4 -4,7l47 0z"/>
    <path id="4" class="fil3" d="M1573 3232c12,0 21,5 28,13 8,10 12,27 12,51 0,23 -4,40 -12,50 -7,8 -16,13 -28,13 -12,0 -22,-5 -29,-14 -8,-9 -11,-26 -11,-50 0,-23 4,-40 12,-50 6,-8 16,-13 28,-13zm0 20c-3,0 -6,1 -8,3 -2,2 -4,5 -5,10 -2,6 -2,16 -2,31 0,14 0,24 2,29 1,6 3,10 5,11 2,2 5,3 8,3 2,0 5,-1 7,-3 2,-2 4,-5 5,-10 2,-6 3,-16 3,-30 0,-15 -1,-25 -2,-30 -2,-6 -4,-9 -6,-11 -2,-2 -5,-3 -7,-3z"/>
    <path id="5" class="fil3" d="M1633 3333l24 0 0 17c0,7 -1,12 -2,16 -1,4 -4,8 -7,11 -3,3 -7,5 -12,7l-5 -10c5,-1 8,-3 10,-6 2,-3 3,-7 3,-12l-11 0 0 -23z"/>
    <path id="6" class="fil3" d="M1716 3232c12,0 22,5 29,13 8,10 12,27 12,51 0,23 -4,40 -13,50 -6,8 -16,13 -28,13 -12,0 -21,-5 -29,-14 -7,-9 -11,-26 -11,-50 0,-23 4,-40 13,-50 6,-8 16,-13 27,-13zm0 20c-2,0 -5,1 -7,3 -2,2 -4,5 -5,10 -2,6 -3,16 -3,31 0,14 1,24 3,29 1,6 3,10 5,11 2,2 5,3 7,3 3,0 6,-1 8,-3 2,-2 4,-5 5,-10 2,-6 3,-16 3,-30 0,-15 -1,-25 -3,-30 -1,-6 -3,-9 -5,-11 -2,-2 -5,-3 -8,-3z"/>
    <path id="7" class="fil3" d="M1812 3232c12,0 22,5 28,13 8,10 13,27 13,51 0,23 -5,40 -13,50 -6,8 -16,13 -28,13 -12,0 -21,-5 -29,-14 -7,-9 -11,-26 -11,-50 0,-23 4,-40 12,-50 7,-8 16,-13 28,-13zm0 20c-2,0 -5,1 -7,3 -2,2 -4,5 -5,10 -2,6 -3,16 -3,31 0,14 1,24 2,29 2,6 4,10 6,11 2,2 5,3 7,3 3,0 6,-1 8,-3 2,-2 4,-5 5,-10 2,-6 2,-16 2,-30 0,-15 0,-25 -2,-30 -1,-6 -3,-9 -5,-11 -2,-2 -5,-3 -8,-3z"/>
    <path id="8" class="fil3" d="M1908 3232c12,0 22,5 28,13 8,10 12,27 12,51 0,23 -4,40 -12,50 -6,8 -16,13 -28,13 -12,0 -21,-5 -29,-14 -7,-9 -11,-26 -11,-50 0,-23 4,-40 12,-50 7,-8 16,-13 28,-13zm0 20c-2,0 -5,1 -7,3 -2,2 -4,5 -5,10 -2,6 -3,16 -3,31 0,14 1,24 2,29 2,6 4,10 6,11 2,2 5,3 7,3 3,0 6,-1 8,-3 2,-2 4,-5 5,-10 2,-6 2,-16 2,-30 0,-15 0,-25 -2,-30 -1,-6 -3,-9 -5,-11 -2,-2 -5,-3 -8,-3z"/>
    <polygon id="9" class="fil3" points="1957,3359 1987,3231 2005,3231 1974,3359 "/>
    <polygon id="10" class="fil3" points="2014,3324 2014,3300 2061,3300 2061,3324 "/>
   </g>
   <path class="fil3" d="M4790 504c0,-47 10,-82 31,-104 20,-23 48,-34 83,-34 37,0 65,11 86,34 20,22 31,57 31,104 0,46 -11,81 -31,103 -21,23 -49,34 -84,34 -36,0 -65,-11 -85,-33 -21,-23 -31,-57 -31,-104zm78 0c0,33 4,56 12,68 6,8 14,12 24,12 11,0 20,-4 26,-12 7,-12 11,-35 11,-68 0,-34 -4,-57 -11,-68 -6,-9 -15,-13 -26,-13 -10,0 -18,4 -24,13 -8,11 -12,34 -12,68zm113 415l-74 0 278 -553 72 0 -276 553zm161 -138c0,-47 11,-82 31,-104 21,-23 49,-34 85,-34 36,0 64,11 84,34 21,22 31,57 31,104 0,47 -10,82 -31,104 -20,23 -48,34 -83,34 -37,0 -65,-11 -86,-34 -20,-22 -31,-57 -31,-104zm79 0c0,34 3,57 11,68 6,9 15,13 25,13 11,0 19,-4 25,-13 8,-11 12,-34 12,-68 0,-34 -4,-57 -12,-68 -6,-9 -14,-13 -25,-13 -11,0 -19,4 -25,13 -8,11 -11,34 -11,68z"/>
   <path class="fil0" d="M1628 1415c424,0 769,344 769,769 0,424 -345,769 -769,769 -425,0 -770,-345 -770,-769 0,-425 345,-769 770,-769zm0 170c330,0 599,268 599,599 0,331 -269,599 -599,599 -331,0 -600,-268 -600,-599 0,-331 269,-599 600,-599z"/>
   <g style="clip-path:url(#id0)">
    <g>
     <polygon id="1" class="fil4" points="1628,2184 2171,1640 2608,1826 2608,2813 1775,3274 "/>
    </g>
   </g>
   <path class="fil2" d="M1628 1415c424,0 769,344 769,769 0,424 -345,769 -769,769 -425,0 -770,-345 -770,-769 0,-425 345,-769 770,-769zm0 170c330,0 599,268 599,599 0,331 -269,599 -599,599 -331,0 -600,-268 -600,-599 0,-331 269,-599 600,-599z"/>
   <polygon class="fil1" points="3038,1937 3038,1800 2987,1800 2987,1782 3109,1782 3109,1800 3058,1800 3058,1937 "/>
   <path id="1" class="fil1" d="M3097 1881c0,-21 6,-36 17,-46 10,-9 21,-13 35,-13 16,0 28,5 38,15 10,10 15,24 15,42 0,14 -3,26 -7,34 -4,8 -11,15 -19,19 -8,5 -17,7 -27,7 -15,0 -28,-5 -38,-15 -9,-10 -14,-25 -14,-43zm19 0c0,14 3,25 10,32 6,7 14,10 23,10 10,0 17,-3 24,-10 6,-7 9,-18 9,-33 0,-14 -3,-24 -9,-31 -7,-7 -14,-11 -24,-11 -9,0 -17,4 -23,11 -7,7 -10,17 -10,32z"/>
   <path id="2" class="fil1" d="M3265 1920l3 16c-6,1 -11,2 -15,2 -7,0 -12,-1 -16,-3 -3,-2 -6,-5 -8,-9 -1,-3 -2,-11 -2,-22l0 -65 -14 0 0 -14 14 0 0 -28 19 -11 0 39 19 0 0 14 -19 0 0 66c0,5 0,9 1,10 1,2 2,3 3,4 2,1 4,1 7,1 2,0 5,0 8,0z"/>
   <path id="3" class="fil1" d="M3357 1923c-7,6 -14,10 -21,12 -6,3 -13,4 -21,4 -12,0 -21,-3 -28,-9 -6,-6 -10,-14 -10,-23 0,-5 1,-10 4,-15 2,-5 6,-8 10,-11 4,-3 8,-5 13,-6 4,-1 10,-2 17,-3 16,-2 27,-4 34,-6 0,-3 0,-5 0,-5 0,-8 -2,-13 -5,-17 -5,-4 -12,-6 -22,-6 -9,0 -15,2 -20,5 -4,3 -7,8 -9,16l-19 -2c2,-8 5,-15 9,-19 4,-5 9,-9 17,-12 7,-2 15,-4 25,-4 10,0 17,1 23,4 6,2 11,5 14,8 2,4 4,8 6,13 0,3 0,9 0,17l0 26c0,17 1,28 2,33 0,5 2,9 4,14l-20 0c-1,-4 -3,-9 -3,-14zm-2 -43c-7,3 -17,6 -31,8 -8,1 -13,2 -16,3 -4,2 -6,4 -8,6 -2,3 -3,6 -3,9 0,5 2,10 6,13 4,3 10,5 17,5 7,0 14,-2 20,-5 5,-3 9,-7 12,-13 2,-4 3,-10 3,-19l0 -7z"/>
   <polygon id="4" class="fil1" points="3403,1937 3403,1782 3422,1782 3422,1937 "/>
   <path id="5" class="fil1" d="M3514 1937l0 -155 69 0c13,0 24,2 31,4 7,3 13,8 17,15 4,7 6,15 6,23 0,11 -3,20 -10,28 -7,7 -18,12 -33,14 5,3 10,5 12,8 6,5 12,12 17,20l27 43 -26 0 -20 -33c-6,-9 -11,-16 -15,-21 -4,-5 -7,-8 -10,-10 -3,-2 -6,-4 -9,-4 -3,-1 -6,-1 -12,-1l-23 0 0 69 -21 0zm21 -87l43 0c10,0 17,-1 22,-3 6,-2 10,-5 12,-9 3,-4 4,-9 4,-14 0,-7 -2,-13 -8,-18 -5,-4 -13,-7 -25,-7l-48 0 0 51z"/>
   <path id="6" class="fil1" d="M3743 1900l20 3c-3,11 -9,20 -17,26 -8,7 -19,10 -32,10 -16,0 -29,-5 -39,-15 -9,-10 -14,-24 -14,-42 0,-19 5,-34 14,-44 10,-11 22,-16 38,-16 15,0 27,5 36,16 10,10 15,24 15,42 0,2 0,3 0,5l-84 0c1,13 4,22 11,29 6,6 14,9 23,9 7,0 13,-1 18,-5 5,-4 9,-10 11,-18zm-62 -30l63 0c-1,-10 -4,-17 -8,-21 -6,-8 -13,-11 -23,-11 -9,0 -16,3 -22,9 -6,5 -9,13 -10,23z"/>
   <path id="7" class="fil1" d="M3860 1896l19 2c-2,13 -8,23 -16,30 -8,7 -19,11 -31,11 -15,0 -27,-5 -37,-15 -9,-10 -14,-24 -14,-43 0,-12 2,-23 6,-32 4,-9 10,-15 19,-20 8,-4 17,-7 26,-7 12,0 22,3 30,9 8,7 13,15 15,27l-18 2c-2,-7 -5,-13 -10,-17 -4,-3 -10,-5 -16,-5 -10,0 -17,3 -23,10 -6,7 -9,18 -9,32 0,15 3,26 8,33 6,7 14,10 23,10 7,0 14,-2 19,-6 5,-5 8,-12 9,-21z"/>
   <path id="8" class="fil1" d="M3971 1900l20 3c-3,11 -9,20 -17,26 -9,7 -19,10 -32,10 -17,0 -30,-5 -39,-15 -10,-10 -15,-24 -15,-42 0,-19 5,-34 15,-44 10,-11 22,-16 38,-16 14,0 27,5 36,16 10,10 14,24 14,42 0,2 0,3 0,5l-83 0c1,13 4,22 10,29 7,6 14,9 24,9 7,0 12,-1 17,-5 5,-4 9,-10 12,-18zm-62 -30l62 0c-1,-10 -3,-17 -7,-21 -6,-8 -14,-11 -23,-11 -9,0 -16,3 -22,9 -6,5 -9,13 -10,23z"/>
   <path id="9" class="fil1" d="M4015 1804l0 -22 19 0 0 22 -19 0zm0 133l0 -112 19 0 0 112 -19 0z"/>
   <path id="10" class="fil1" d="M4093 1937l-42 -112 20 0 24 67c3,7 5,14 7,22 2,-6 4,-13 7,-21l25 -68 20 0 -43 112 -18 0z"/>
   <path id="11" class="fil1" d="M4243 1923c-7,6 -13,10 -20,12 -6,3 -13,4 -21,4 -12,0 -22,-3 -28,-9 -7,-6 -10,-14 -10,-23 0,-5 1,-10 4,-15 2,-5 5,-8 9,-11 4,-3 9,-5 14,-6 4,-1 9,-2 17,-3 15,-2 27,-4 34,-6 0,-3 0,-5 0,-5 0,-8 -2,-13 -6,-17 -4,-4 -12,-6 -21,-6 -9,0 -16,2 -20,5 -4,3 -7,8 -9,16l-19 -2c2,-8 5,-15 8,-19 4,-5 10,-9 17,-12 8,-2 16,-4 26,-4 9,0 17,1 23,4 6,2 10,5 13,8 3,4 5,8 6,13 1,3 1,9 1,17l0 26c0,17 0,28 1,33 1,5 3,9 5,14l-20 0c-2,-4 -3,-9 -4,-14zm-1 -43c-7,3 -17,6 -31,8 -8,1 -14,2 -17,3 -3,2 -5,4 -7,6 -2,3 -3,6 -3,9 0,5 2,10 6,13 4,3 9,5 17,5 7,0 13,-2 19,-5 6,-3 10,-7 13,-13 2,-4 3,-10 3,-19l0 -7z"/>
   <path id="12" class="fil1" d="M4308 1937l-18 0 0 -155 19 0 0 55c8,-10 18,-15 31,-15 6,0 13,2 19,4 6,3 11,7 15,12 4,5 7,11 10,18 2,7 3,15 3,23 0,19 -5,34 -14,44 -10,11 -21,16 -34,16 -13,0 -24,-6 -31,-17l0 15zm-1 -57c0,13 2,23 6,29 6,9 14,14 24,14 8,0 16,-3 22,-10 6,-8 9,-18 9,-33 0,-14 -3,-25 -9,-32 -6,-7 -13,-10 -21,-10 -8,0 -15,3 -21,11 -7,7 -10,17 -10,31z"/>
   <polygon id="13" class="fil1" points="4410,1937 4410,1782 4429,1782 4429,1937 "/>
   <path id="14" class="fil1" d="M4534 1900l20 3c-3,11 -9,20 -17,26 -9,7 -19,10 -32,10 -16,0 -29,-5 -39,-15 -9,-10 -14,-24 -14,-42 0,-19 5,-34 14,-44 10,-11 22,-16 38,-16 15,0 27,5 36,16 10,10 15,24 15,42 0,2 0,3 -1,5l-83 0c1,13 4,22 11,29 6,6 14,9 23,9 7,0 13,-1 18,-5 5,-4 8,-10 11,-18zm-62 -30l63 0c-1,-10 -4,-17 -8,-21 -6,-8 -13,-11 -23,-11 -9,0 -16,3 -22,9 -6,5 -9,13 -10,23z"/>
   <path id="15" class="fil1" d="M4570 1903l19 -3c1,8 4,13 9,17 5,4 11,6 20,6 9,0 15,-1 20,-5 4,-3 6,-8 6,-12 0,-5 -2,-8 -6,-11 -2,-1 -9,-3 -19,-6 -14,-3 -24,-6 -29,-9 -5,-3 -9,-6 -12,-11 -3,-4 -4,-9 -4,-15 0,-5 1,-9 3,-13 2,-5 5,-8 9,-11 3,-2 7,-4 12,-5 5,-2 11,-3 17,-3 8,0 16,2 23,4 6,3 11,6 14,10 4,5 6,10 7,18l-19 2c0,-5 -3,-10 -7,-13 -4,-4 -10,-5 -17,-5 -9,0 -15,1 -19,4 -3,3 -5,6 -5,10 0,3 1,5 2,7 2,2 4,4 7,5 2,1 8,2 17,5 14,3 23,6 28,8 6,3 10,6 13,10 3,5 4,10 4,17 0,6 -2,12 -5,17 -4,6 -9,10 -16,13 -7,3 -15,5 -24,5 -14,0 -25,-3 -33,-9 -8,-6 -13,-15 -15,-27z"/>
   <path id="16" class="fil1" d="M3091 2150l0 27 -104 0c1,-10 5,-20 10,-29 6,-10 17,-22 34,-37 13,-13 21,-21 24,-26 4,-6 6,-12 6,-18 0,-6 -2,-11 -5,-15 -4,-4 -9,-5 -15,-5 -6,0 -11,2 -14,5 -4,4 -6,10 -7,19l-29 -3c1,-16 7,-28 16,-35 10,-7 21,-11 35,-11 15,0 27,4 36,12 9,9 13,19 13,31 0,7 -1,14 -4,20 -2,6 -6,13 -12,20 -3,4 -10,11 -19,20 -9,8 -15,14 -18,17 -2,3 -4,5 -6,8l59 0z"/>
   <path id="17" class="fil1" d="M3187 2177l-30 0 0 -111c-11,10 -24,17 -38,22l0 -27c8,-2 16,-7 25,-14 9,-7 15,-15 19,-25l24 0 0 155z"/>
   <path id="18" class="fil1" d="M3236 2148l30 0 0 21c0,9 -1,15 -2,20 -2,5 -5,10 -9,14 -4,4 -9,7 -15,9l-6 -12c6,-2 10,-5 13,-9 2,-3 3,-8 4,-14l-15 0 0 -29z"/>
   <path id="19" class="fil1" d="M3391 2150l0 27 -104 0c1,-10 4,-20 10,-29 6,-10 17,-22 33,-37 14,-13 22,-21 25,-26 4,-6 6,-12 6,-18 0,-6 -2,-11 -5,-15 -4,-4 -9,-5 -15,-5 -6,0 -11,2 -15,5 -3,4 -5,10 -6,19l-30 -3c2,-16 8,-28 17,-35 9,-7 21,-11 35,-11 15,0 27,4 36,12 8,9 13,19 13,31 0,7 -2,14 -4,20 -3,6 -7,13 -12,20 -3,4 -10,11 -19,20 -10,8 -16,14 -18,17 -3,3 -5,5 -6,8l59 0z"/>
   <path id="20" class="fil1" d="M3461 2022c15,0 26,5 35,16 10,13 15,34 15,63 0,29 -5,51 -15,63 -9,11 -20,16 -35,16 -15,0 -27,-6 -37,-17 -9,-12 -13,-32 -13,-62 0,-29 5,-50 15,-63 8,-11 20,-16 35,-16zm0 25c-4,0 -7,1 -10,3 -3,2 -5,7 -6,12 -2,8 -3,21 -3,39 0,18 1,31 2,38 2,6 5,11 7,13 3,2 6,4 10,4 3,0 6,-2 9,-4 3,-2 5,-6 6,-12 3,-8 4,-21 4,-39 0,-18 -1,-30 -3,-37 -2,-7 -4,-12 -7,-14 -3,-2 -6,-3 -9,-3z"/>
   <path id="21" class="fil1" d="M3536 2148l30 0 0 21c0,9 -1,15 -3,20 -1,5 -4,10 -8,14 -4,4 -9,7 -16,9l-5 -12c6,-2 10,-5 12,-9 3,-3 4,-8 4,-14l-14 0 0 -29z"/>
   <path id="22" class="fil1" d="M3640 2022c15,0 27,5 36,16 10,13 15,34 15,63 0,29 -5,51 -16,63 -8,11 -20,16 -35,16 -15,0 -27,-6 -36,-17 -9,-12 -14,-32 -14,-62 0,-29 5,-50 15,-63 9,-11 20,-16 35,-16zm0 25c-3,0 -6,1 -9,3 -3,2 -5,7 -6,12 -2,8 -3,21 -3,39 0,18 0,31 2,38 2,6 4,11 7,13 3,2 6,4 9,4 4,0 7,-2 10,-4 3,-2 5,-6 6,-12 2,-8 3,-21 3,-39 0,-18 -1,-30 -2,-37 -2,-7 -4,-12 -7,-14 -3,-2 -6,-3 -10,-3z"/>
   <path id="23" class="fil1" d="M3760 2022c15,0 27,5 35,16 10,13 15,34 15,63 0,29 -5,51 -15,63 -8,11 -20,16 -35,16 -15,0 -27,-6 -36,-17 -9,-12 -14,-32 -14,-62 0,-29 5,-50 15,-63 9,-11 20,-16 35,-16zm0 25c-3,0 -6,1 -9,3 -3,2 -5,7 -7,12 -2,8 -3,21 -3,39 0,18 1,31 3,38 2,6 4,11 7,13 3,2 6,4 9,4 4,0 7,-2 10,-4 3,-2 5,-6 6,-12 2,-8 3,-21 3,-39 0,-18 -1,-30 -2,-37 -2,-7 -5,-12 -7,-14 -3,-2 -6,-3 -10,-3z"/>
   <path id="24" class="fil1" d="M3880 2022c15,0 27,5 35,16 10,13 15,34 15,63 0,29 -5,51 -15,63 -8,11 -20,16 -35,16 -15,0 -27,-6 -36,-17 -9,-12 -14,-32 -14,-62 0,-29 5,-50 15,-63 9,-11 20,-16 35,-16zm0 25c-3,0 -6,1 -9,3 -3,2 -5,7 -7,12 -2,8 -3,21 -3,39 0,18 1,31 3,38 2,6 4,11 7,13 3,2 6,4 9,4 4,0 7,-2 10,-4 2,-2 5,-6 6,-12 2,-8 3,-21 3,-39 0,-18 -1,-30 -3,-37 -1,-7 -4,-12 -6,-14 -3,-2 -6,-3 -10,-3z"/>
   <polygon id="25" class="fil1" points="3941,2180 3979,2020 4001,2020 3963,2180 "/>
   <polygon id="26" class="fil1" points="4013,2136 4013,2107 4071,2107 4071,2136 "/>
   <polygon class="fil5" points="3038,2864 3038,2728 2987,2728 2987,2710 3109,2710 3109,2728 3058,2728 3058,2864 "/>
   <path id="1" class="fil5" d="M3097 2808c0,-21 6,-36 17,-46 10,-8 21,-12 35,-12 16,0 28,5 38,15 10,10 15,24 15,41 0,15 -3,26 -7,34 -4,8 -11,15 -19,19 -8,5 -17,7 -27,7 -15,0 -28,-5 -38,-15 -9,-10 -14,-24 -14,-43zm19 0c0,14 3,25 10,32 6,7 14,11 23,11 10,0 17,-4 24,-11 6,-7 9,-18 9,-33 0,-13 -3,-24 -9,-31 -7,-7 -14,-11 -24,-11 -9,0 -17,4 -23,11 -7,7 -10,18 -10,32z"/>
   <path id="2" class="fil5" d="M3265 2847l3 17c-6,1 -11,1 -15,1 -7,0 -12,-1 -16,-3 -3,-2 -6,-5 -8,-8 -1,-4 -2,-11 -2,-23l0 -64 -14 0 0 -15 14 0 0 -28 19 -11 0 39 19 0 0 15 -19 0 0 65c0,6 0,9 1,11 1,1 2,2 3,3 2,1 4,2 7,2 2,0 5,-1 8,-1z"/>
   <path id="3" class="fil5" d="M3357 2850c-7,6 -14,10 -21,13 -6,2 -13,3 -21,3 -12,0 -21,-3 -28,-9 -6,-6 -10,-13 -10,-23 0,-5 1,-10 4,-15 2,-4 6,-8 10,-10 4,-3 8,-5 13,-7 4,-1 10,-2 17,-3 16,-1 27,-4 34,-6 0,-3 0,-4 0,-5 0,-8 -2,-13 -5,-16 -5,-4 -12,-7 -22,-7 -9,0 -15,2 -20,5 -4,3 -7,9 -9,17l-19 -3c2,-8 5,-14 9,-19 4,-5 9,-9 17,-11 7,-3 15,-4 25,-4 10,0 17,1 23,3 6,2 11,5 14,9 2,3 4,7 6,12 0,4 0,9 0,18l0 25c0,18 1,29 2,33 0,5 2,10 4,14l-20 0c-1,-4 -3,-9 -3,-14zm-2 -42c-7,3 -17,5 -31,7 -8,1 -13,2 -16,4 -4,1 -6,3 -8,6 -2,3 -3,6 -3,9 0,5 2,9 6,12 4,4 10,5 17,5 7,0 14,-1 20,-4 5,-4 9,-8 12,-13 2,-5 3,-11 3,-19l0 -7z"/>
   <polygon id="4" class="fil5" points="3403,2864 3403,2710 3422,2710 3422,2864 "/>
   <path id="5" class="fil5" d="M3514 2864l0 -154 58 0c10,0 18,0 24,1 7,1 13,4 19,7 5,4 9,9 12,15 3,6 5,13 5,21 0,13 -4,24 -13,33 -8,9 -23,14 -45,14l-40 0 0 63 -20 0zm20 -81l40 0c13,0 23,-3 28,-8 6,-4 9,-11 9,-20 0,-7 -2,-12 -5,-17 -4,-4 -8,-8 -13,-9 -4,-1 -10,-1 -19,-1l-40 0 0 55z"/>
   <path id="6" class="fil5" d="M3728 2850c-7,6 -14,10 -20,13 -7,2 -14,3 -21,3 -12,0 -22,-3 -28,-9 -7,-6 -10,-13 -10,-23 0,-5 1,-10 3,-15 3,-4 6,-8 10,-10 4,-3 9,-5 14,-7 4,-1 9,-2 17,-3 15,-1 26,-4 34,-6 0,-3 0,-4 0,-5 0,-8 -2,-13 -6,-16 -4,-4 -12,-7 -21,-7 -9,0 -16,2 -20,5 -4,3 -7,9 -10,17l-18 -3c2,-8 4,-14 8,-19 4,-5 10,-9 17,-11 7,-3 16,-4 26,-4 9,0 17,1 23,3 6,2 10,5 13,9 3,3 5,7 6,12 1,4 1,9 1,18l0 25c0,18 0,29 1,33 1,5 2,10 5,14l-20 0c-2,-4 -3,-9 -4,-14zm-1 -42c-7,3 -17,5 -31,7 -8,1 -14,2 -17,4 -3,1 -6,3 -7,6 -2,3 -3,6 -3,9 0,5 2,9 6,12 4,4 9,5 17,5 7,0 13,-1 19,-4 6,-4 10,-8 13,-13 2,-5 3,-11 3,-19l0 -7z"/>
   <path id="7" class="fil5" d="M3774 2907l-2 -18c4,1 8,2 11,2 4,0 8,-1 10,-2 3,-1 5,-3 6,-6 1,-2 3,-7 6,-14 0,-1 1,-3 2,-5l-43 -112 21 0 23 65c3,8 6,16 8,25 2,-8 5,-16 8,-25l24 -65 19 0 -43 114c-4,12 -8,21 -10,25 -4,6 -8,11 -12,14 -4,3 -10,4 -16,4 -3,0 -7,-1 -12,-2z"/>
   <path id="8" class="fil5" d="M3956 2850c-7,6 -14,10 -20,13 -7,2 -14,3 -21,3 -13,0 -22,-3 -29,-9 -6,-6 -10,-13 -10,-23 0,-5 2,-10 4,-15 3,-4 6,-8 10,-10 4,-3 9,-5 14,-7 3,-1 9,-2 16,-3 16,-1 27,-4 34,-6 0,-3 0,-4 0,-5 0,-8 -1,-13 -5,-16 -5,-4 -12,-7 -22,-7 -9,0 -15,2 -19,5 -5,3 -8,9 -10,17l-18 -3c1,-8 4,-14 8,-19 4,-5 9,-9 17,-11 7,-3 16,-4 25,-4 10,0 18,1 24,3 6,2 10,5 13,9 3,3 5,7 6,12 0,4 1,9 1,18l0 25c0,18 0,29 1,33 1,5 2,10 4,14l-19 0c-2,-4 -4,-9 -4,-14zm-2 -42c-6,3 -17,5 -31,7 -7,1 -13,2 -16,4 -3,1 -6,3 -8,6 -1,3 -2,6 -2,9 0,5 2,9 5,12 4,4 10,5 17,5 8,0 14,-1 20,-4 5,-4 10,-8 12,-13 2,-5 3,-11 3,-19l0 -7z"/>
   <path id="9" class="fil5" d="M4020 2864l-17 0 0 -154 19 0 0 55c8,-10 18,-15 30,-15 7,0 14,1 20,4 6,3 11,6 15,11 4,5 7,12 9,19 2,7 4,14 4,22 0,19 -5,34 -15,45 -9,10 -20,15 -34,15 -13,0 -23,-5 -31,-16l0 14zm0 -57c0,13 2,23 5,29 6,10 14,15 25,15 8,0 15,-4 21,-11 6,-7 9,-18 9,-32 0,-15 -3,-25 -9,-32 -5,-7 -12,-11 -21,-11 -8,0 -15,4 -21,11 -6,7 -9,18 -9,31z"/>
   <polygon id="10" class="fil5" points="4122,2864 4122,2710 4141,2710 4141,2864 "/>
   <path id="11" class="fil5" d="M4247 2828l19 2c-3,12 -8,21 -17,27 -8,6 -19,9 -32,9 -16,0 -29,-5 -38,-15 -10,-10 -15,-24 -15,-42 0,-19 5,-33 15,-44 9,-10 22,-15 37,-15 15,0 27,5 37,15 9,10 14,24 14,43 0,1 0,3 0,5l-83 0c0,12 4,21 10,28 6,6 14,10 23,10 7,0 13,-2 18,-6 5,-3 9,-9 12,-17zm-62 -31l62 0c-1,-9 -3,-16 -7,-21 -6,-7 -14,-11 -24,-11 -8,0 -15,3 -21,9 -6,6 -10,14 -10,23z"/>
   <path id="12" class="fil5" d="M4283 2830l19 -3c1,8 4,14 8,18 5,4 12,6 21,6 8,0 15,-2 19,-6 4,-3 6,-7 6,-12 0,-4 -2,-8 -5,-10 -3,-2 -9,-4 -20,-7 -14,-3 -23,-6 -29,-9 -5,-2 -9,-6 -12,-10 -2,-5 -4,-10 -4,-15 0,-5 1,-10 4,-14 2,-4 5,-8 9,-11 3,-2 7,-4 12,-5 5,-2 10,-2 16,-2 9,0 17,1 23,3 7,3 12,6 15,11 3,4 5,10 6,17l-18 3c-1,-6 -3,-11 -7,-14 -4,-3 -10,-5 -17,-5 -9,0 -15,2 -19,4 -4,3 -6,7 -6,11 0,2 1,4 3,6 1,2 4,4 7,5 2,1 7,3 17,5 13,4 22,7 28,9 5,2 9,5 12,10 3,4 5,10 5,16 0,6 -2,12 -6,18 -3,5 -9,10 -16,13 -7,3 -15,4 -23,4 -15,0 -26,-3 -34,-9 -7,-6 -12,-15 -14,-27z"/>
   <path id="13" class="fil5" d="M3067 3105l-30 0 0 -112c-11,10 -23,18 -38,22l0 -26c8,-3 16,-8 25,-15 9,-7 15,-15 19,-24l24 0 0 155z"/>
   <path id="14" class="fil5" d="M3211 3077l0 28 -104 0c1,-11 5,-21 10,-30 6,-9 17,-22 34,-37 13,-12 21,-21 24,-25 4,-6 6,-12 6,-18 0,-7 -2,-12 -5,-16 -4,-3 -9,-5 -15,-5 -6,0 -11,2 -15,6 -3,3 -5,10 -6,18l-29 -3c1,-16 7,-28 16,-35 9,-7 21,-10 35,-10 15,0 27,4 36,12 9,8 13,18 13,31 0,7 -1,13 -4,20 -2,6 -6,12 -12,19 -3,5 -10,11 -19,20 -10,9 -15,14 -18,17 -2,3 -4,6 -6,8l59 0z"/>
   <path id="15" class="fil5" d="M3236 3075l30 0 0 21c0,9 -1,16 -2,21 -2,5 -5,9 -9,13 -4,4 -9,7 -15,9l-6 -12c6,-2 10,-5 13,-8 2,-4 3,-8 4,-14l-15 0 0 -30z"/>
   <path id="16" class="fil5" d="M3316 3021c-7,-3 -13,-7 -16,-13 -4,-6 -6,-12 -6,-19 0,-11 4,-21 12,-28 8,-8 20,-11 35,-11 14,0 26,3 34,11 8,7 12,17 12,28 0,8 -2,14 -6,19 -4,6 -9,10 -16,13 9,4 16,9 20,15 5,7 7,15 7,23 0,15 -5,26 -14,35 -9,9 -21,14 -36,14 -14,0 -26,-4 -35,-12 -11,-8 -17,-20 -17,-35 0,-9 3,-17 7,-24 4,-7 10,-12 19,-16zm6 -29c0,5 2,10 5,13 4,4 8,5 14,5 5,0 10,-1 13,-5 3,-3 5,-8 5,-14 0,-5 -2,-10 -5,-13 -3,-3 -8,-5 -13,-5 -6,0 -10,2 -14,5 -3,3 -5,8 -5,14zm-2 66c0,8 2,14 6,19 4,5 9,7 15,7 6,0 11,-2 15,-7 4,-4 6,-11 6,-19 0,-7 -2,-13 -6,-18 -4,-4 -9,-6 -15,-6 -7,0 -13,2 -16,7 -4,5 -5,11 -5,17z"/>
   <path id="17" class="fil5" d="M3461 2950c15,0 26,5 35,16 10,12 15,33 15,63 0,29 -5,50 -15,63 -9,10 -20,16 -35,16 -15,0 -27,-6 -37,-18 -9,-11 -13,-32 -13,-62 0,-29 5,-50 15,-63 8,-10 20,-15 35,-15zm0 24c-4,0 -7,1 -10,4 -3,2 -5,6 -6,12 -2,7 -3,20 -3,39 0,18 1,30 2,37 2,7 5,11 7,14 3,2 6,3 10,3 3,0 6,-1 9,-3 3,-3 5,-7 6,-13 3,-7 4,-20 4,-38 0,-19 -1,-31 -3,-38 -2,-7 -4,-11 -7,-13 -3,-3 -6,-4 -9,-4z"/>
   <path id="18" class="fil5" d="M3536 3075l30 0 0 21c0,9 -1,16 -3,21 -1,5 -4,9 -8,13 -4,4 -9,7 -16,9l-5 -12c6,-2 10,-5 12,-8 3,-4 4,-8 4,-14l-14 0 0 -30z"/>
   <path id="19" class="fil5" d="M3640 2950c15,0 27,5 36,16 10,12 15,33 15,63 0,29 -5,50 -16,63 -8,10 -20,16 -35,16 -15,0 -27,-6 -36,-18 -9,-11 -14,-32 -14,-62 0,-29 5,-50 15,-63 9,-10 20,-15 35,-15zm0 24c-3,0 -6,1 -9,4 -3,2 -5,6 -6,12 -2,7 -3,20 -3,39 0,18 0,30 2,37 2,7 4,11 7,14 3,2 6,3 9,3 4,0 7,-1 10,-3 3,-3 5,-7 6,-13 2,-7 3,-20 3,-38 0,-19 -1,-31 -2,-38 -2,-7 -4,-11 -7,-13 -3,-3 -6,-4 -10,-4z"/>
   <path id="20" class="fil5" d="M3760 2950c15,0 27,5 35,16 10,12 15,33 15,63 0,29 -5,50 -15,63 -8,10 -20,16 -35,16 -15,0 -27,-6 -36,-18 -9,-11 -14,-32 -14,-62 0,-29 5,-50 15,-63 9,-10 20,-15 35,-15zm0 24c-3,0 -6,1 -9,4 -3,2 -5,6 -7,12 -2,7 -3,20 -3,39 0,18 1,30 3,37 2,7 4,11 7,14 3,2 6,3 9,3 4,0 7,-1 10,-3 3,-3 5,-7 6,-13 2,-7 3,-20 3,-38 0,-19 -1,-31 -2,-38 -2,-7 -5,-11 -7,-13 -3,-3 -6,-4 -10,-4z"/>
   <path id="21" class="fil5" d="M3880 2950c15,0 27,5 35,16 10,12 15,33 15,63 0,29 -5,50 -15,63 -8,10 -20,16 -35,16 -15,0 -27,-6 -36,-18 -9,-11 -14,-32 -14,-62 0,-29 5,-50 15,-63 9,-10 20,-15 35,-15zm0 24c-3,0 -6,1 -9,4 -3,2 -5,6 -7,12 -2,7 -3,20 -3,39 0,18 1,30 3,37 2,7 4,11 7,14 3,2 6,3 9,3 4,0 7,-1 10,-3 2,-3 5,-7 6,-13 2,-7 3,-20 3,-38 0,-19 -1,-31 -3,-38 -1,-7 -4,-11 -6,-13 -3,-3 -6,-4 -10,-4z"/>
   <polygon id="22" class="fil5" points="3941,3107 3979,2948 4001,2948 3963,3107 "/>
   <polygon id="23" class="fil5" points="4013,3064 4013,3034 4071,3034 4071,3064 "/>
   <path class="fil0" d="M1628 1415c424,0 769,344 769,769 0,424 -345,769 -769,769 -425,0 -770,-345 -770,-769 0,-425 345,-769 770,-769zm0 170c330,0 599,268 599,599 0,331 -269,599 -599,599 -331,0 -600,-268 -600,-599 0,-331 269,-599 600,-599z"/>
   <g style="clip-path:url(#id1)">
    <g>
     <polygon id="1" class="fil4" points="1628,2184 2171,1640 2608,1826 2608,2813 1775,3274 "/>
    </g>
   </g>
   <path class="fil2" d="M1628 1415c424,0 769,344 769,769 0,424 -345,769 -769,769 -425,0 -770,-345 -770,-769 0,-425 345,-769 770,-769zm0 170c330,0 599,268 599,599 0,331 -269,599 -599,599 -331,0 -600,-268 -600,-599 0,-331 269,-599 600,-599z"/>
  </g>
 </g>
</svg>
