<svg width="44" height="20" viewBox="0 0 44 20" fill="none" xmlns="http://www.w3.org/2000/svg">
<path d="M12.6898 8.24658C13.1097 8.66643 13.7394 8.66643 14.1593 8.24658C14.5791 7.82674 14.5791 7.19697 14.1593 6.77713C13.3196 5.93744 12.165 5.51758 11.0104 5.51758C9.85587 5.51758 8.70129 5.93744 7.8616 6.77713C7.02191 7.61682 6.60205 8.7714 6.60205 9.92597C6.60205 11.0805 7.02191 12.2351 7.8616 13.0748C8.70129 13.9145 9.85587 14.3344 11.0104 14.3344C12.165 14.3344 13.3196 13.9145 14.1593 13.0748C14.5791 12.655 14.5791 12.0252 14.1593 11.6054C13.7394 11.1855 13.1097 11.1855 12.6898 11.6054C11.7452 12.55 10.2757 12.55 9.33106 11.6054C8.91121 11.1855 8.59634 10.5557 8.59634 9.92597C8.59634 9.2962 8.80625 8.66643 9.33106 8.24658C10.1707 7.30193 11.7452 7.30193 12.6898 8.24658Z" fill="black"/>
<path d="M42.8143 9.39889L39.6655 4.67562C39.4555 4.36074 39.1407 4.25578 38.8258 4.25578H19.093C18.4633 3.41609 17.7285 2.68135 16.8888 2.05158C16.8888 2.05158 16.8888 1.94662 16.7839 1.94662C12.7953 -0.992304 7.33735 -0.572459 3.87362 2.99623C-0.009956 6.8798 -0.009956 13.1775 3.87362 17.0611C5.76292 19.0553 8.38694 20 10.906 20C13.4251 20 16.0491 19.0553 17.9384 17.0611C18.0434 16.9561 18.2533 16.7462 18.3583 16.6412C18.7781 16.2214 18.6732 15.5916 18.2533 15.1718C17.8335 14.7519 17.2037 14.8569 16.7839 15.2767C16.6789 15.3817 16.574 15.4866 16.469 15.5916C13.4251 18.6355 8.38696 18.6355 5.34307 15.5916C2.29919 12.5477 2.29919 7.50957 5.34307 4.46568C6.49765 3.31111 7.75717 2.68134 9.22663 2.36646C12.3755 1.73669 15.7343 3.1012 17.4136 5.72524L17.5186 5.8302C17.7285 6.14509 18.0434 6.35501 18.4633 6.35501H38.196L40.6101 10.0287L38.196 13.5973C37.9861 13.4924 37.7762 13.2825 37.4613 12.9676C36.9365 12.3378 36.2017 11.6031 34.7323 11.6031C33.2628 11.6031 32.5281 12.4428 32.0033 12.9676C31.4785 13.4924 31.2685 13.7023 30.7437 13.7023C30.2189 13.7023 30.009 13.4924 29.4842 12.9676C28.9594 12.3378 28.2247 11.6031 26.7552 11.6031C25.2857 11.6031 24.551 12.4428 24.0262 12.9676C23.5014 13.4924 23.2915 13.7023 22.7667 13.7023C22.2419 13.7023 22.0319 13.4924 21.5071 12.9676C21.0873 12.4428 20.4575 11.918 19.5129 11.7081C18.9881 11.6031 18.3583 11.918 18.2533 12.5477C18.1484 13.0725 18.4633 13.7023 19.093 13.8073C19.4079 13.9122 19.6178 14.1221 20.0377 14.542C20.5625 15.1718 21.2972 15.9065 22.7667 15.9065C24.2361 15.9065 24.9708 15.0668 25.4957 14.542C26.0205 14.0172 26.2304 13.8073 26.7552 13.8073C27.28 13.8073 27.4899 14.0172 28.0148 14.542C28.5396 15.1718 29.2743 15.9065 30.7437 15.9065C32.2132 15.9065 32.9479 15.0668 33.4727 14.542C33.9975 14.0172 34.2075 13.8073 34.7323 13.8073C35.2571 13.8073 35.467 14.0172 35.9918 14.542C36.5166 15.1718 37.2513 15.9065 38.7208 15.9065C39.0357 15.9065 39.3506 15.6966 39.5605 15.4866L42.7094 10.7634C43.1292 10.1336 43.1292 9.71377 42.8143 9.39889Z" fill="black"/>
</svg>
