<svg width="41" height="32" viewBox="0 0 41 32" fill="none" xmlns="http://www.w3.org/2000/svg">
<path d="M32.7803 8.16992V9.53162C33.5048 9.53162 34.1996 9.81855 34.7119 10.3293C35.2241 10.84 35.5119 11.5327 35.5119 12.255H36.8778C36.8767 11.1719 36.4446 10.1335 35.6764 9.36761C34.9083 8.60174 33.8667 8.171 32.7803 8.16992Z" fill="black"/>
<path d="M36.8776 13.6172H35.5117V14.9789H36.8776V13.6172Z" fill="black"/>
<path d="M32.8299 4.76598C32.2664 3.44118 31.3471 2.29712 30.1732 1.4598C28.9994 0.622494 27.6165 0.12442 26.1769 0.0204403C24.7373 -0.0835398 23.2968 0.210608 22.0142 0.870487C20.7315 1.53037 19.6564 2.53037 18.9072 3.76037C17.5173 2.64383 15.7848 2.03738 13.9998 2.04259C11.9176 2.04493 9.92142 2.8706 8.4491 4.33846C6.97678 5.80632 6.1486 7.79648 6.14626 9.87234V11.5745H4.78042C3.51257 11.5745 2.29666 12.0766 1.40015 12.9704C0.50365 13.8642 0 15.0764 0 16.3404C0 17.6044 0.50365 18.8166 1.40015 19.7104C2.29666 20.6042 3.51257 21.1063 4.78042 21.1063H14.3413C14.5224 21.1063 14.6961 21.0346 14.8242 20.9069C14.9522 20.7792 15.0242 20.6061 15.0242 20.4255C15.0242 19.3482 15.3446 18.2951 15.9449 17.3994C16.5452 16.5037 17.3985 15.8056 18.3968 15.3933C19.3951 14.9811 20.4936 14.8732 21.5534 15.0834C22.6131 15.2935 23.5866 15.8123 24.3507 16.574C25.1147 17.3358 25.6351 18.3063 25.8459 19.3629C26.0567 20.4194 25.9485 21.5146 25.535 22.5099C25.1215 23.5052 24.4212 24.3558 23.5228 24.9543C22.6243 25.5528 21.5681 25.8723 20.4875 25.8723C20.0013 25.8694 19.5177 25.8007 19.05 25.668L20.31 24.2866C20.3986 24.1889 20.4569 24.0678 20.4779 23.9378C20.4988 23.8077 20.4815 23.6744 20.428 23.554C20.3745 23.4336 20.2872 23.3313 20.1765 23.2594C20.0659 23.1874 19.9367 23.1491 19.8046 23.1489H12.9754C12.7943 23.1489 12.6206 23.2206 12.4925 23.3483C12.3645 23.476 12.2925 23.6492 12.2925 23.8297V31.3191C12.2925 31.4565 12.3341 31.5907 12.412 31.7041C12.4899 31.8175 12.6004 31.9047 12.7289 31.9543C12.8574 32.0038 12.9979 32.0133 13.132 31.9817C13.2661 31.9501 13.3874 31.8789 13.4801 31.7773L15.1683 29.926C16.7779 30.8282 18.591 31.3076 20.4375 31.3192C22.284 31.3308 24.1031 30.8742 25.7239 29.9924C27.3448 29.1105 28.7142 27.8324 29.7035 26.278C30.6927 24.7236 31.2694 22.944 31.3794 21.1063H32.78C34.9535 21.1129 37.0405 20.2585 38.5821 18.7309C40.1236 17.2034 40.9934 15.1279 41 12.961C41.0066 10.7941 40.1495 8.71341 38.6173 7.17655C37.0851 5.63968 35.0033 4.77257 32.8299 4.76598ZM13.6583 24.5106H18.2605L13.6583 29.5584V24.5106ZM20.4875 29.9574C18.9658 29.9553 17.4668 29.5887 16.1168 28.8884L18.0488 26.7696C18.8258 27.0737 19.6528 27.2312 20.4875 27.234C21.8091 27.234 23.1022 26.8516 24.2102 26.1334C25.3181 25.4152 26.1932 24.3919 26.7294 23.1876C27.2655 21.9833 27.4397 20.6499 27.2307 19.3489C27.0217 18.0479 26.4386 16.8353 25.5521 15.8582C24.6655 14.8811 23.5136 14.1814 22.2361 13.844C20.9586 13.5066 19.6104 13.546 18.3549 13.9575C17.0994 14.3689 15.9907 15.1347 15.1631 16.1619C14.3355 17.1891 13.8246 18.4337 13.6925 19.7446H10.9608C11.0947 17.8942 11.7677 16.123 12.897 14.6484C14.0264 13.1739 15.563 12.0601 17.3183 11.444C19.0735 10.8278 20.9711 10.7359 22.778 11.1797C24.5848 11.6235 26.2224 12.5836 27.4897 13.9422C28.757 15.3007 29.5989 16.9986 29.912 18.8275C30.225 20.6563 29.9957 22.5364 29.2521 24.2372C28.5085 25.9379 27.283 27.3851 25.7261 28.4013C24.1691 29.4174 22.3484 29.9583 20.4875 29.9574ZM32.78 19.7446H31.3794C31.2119 16.9777 29.9914 14.3789 27.9671 12.4787C25.9427 10.5786 23.2672 9.52052 20.4868 9.52052C17.7065 9.52052 15.0309 10.5786 13.0066 12.4787C10.9822 14.3789 9.76174 16.9777 9.5943 19.7446H4.78042C3.87482 19.7446 3.0063 19.386 2.36594 18.7476C1.72558 18.1091 1.36583 17.2433 1.36583 16.3404C1.36583 15.4375 1.72558 14.5717 2.36594 13.9332C3.0063 13.2948 3.87482 12.9362 4.78042 12.9362H6.82917C7.01029 12.9362 7.184 12.8644 7.31207 12.7367C7.44014 12.6091 7.51209 12.4359 7.51209 12.2553V9.87234C7.51261 8.59022 7.89531 7.33718 8.6116 6.27234C9.32789 5.20751 10.3455 4.37893 11.535 3.89184C12.7246 3.40475 14.0326 3.28112 15.2928 3.53665C16.553 3.79218 17.7087 4.41535 18.6129 5.327C18.6905 5.4052 18.786 5.46347 18.8912 5.49684C18.9963 5.53021 19.108 5.53768 19.2167 5.51861C19.3254 5.49953 19.4278 5.45449 19.5152 5.38732C19.6026 5.32016 19.6724 5.23288 19.7186 5.13296C20.256 3.96271 21.1319 2.97924 22.2339 2.30874C23.3358 1.63823 24.6136 1.31127 25.9033 1.3698C27.1929 1.42833 28.4356 1.86969 29.4719 2.63725C30.5083 3.4048 31.2909 4.46355 31.7195 5.67764C31.7672 5.80968 31.8547 5.92379 31.97 6.00436C32.0852 6.08492 32.2227 6.12799 32.3634 6.12768H32.78C34.5912 6.12768 36.3283 6.845 37.609 8.12184C38.8897 9.39867 39.6092 11.1304 39.6092 12.9362C39.6092 14.7419 38.8897 16.4736 37.609 17.7505C36.3283 19.0273 34.5912 19.7446 32.78 19.7446Z" fill="black"/>
</svg>
