<svg width="33" height="32" viewBox="0 0 33 32" fill="none" xmlns="http://www.w3.org/2000/svg">
<path d="M28.7123 28.0008H3.28497C1.84108 28.0008 0.666504 26.8489 0.666504 25.4331V9.23763C0.666504 7.82179 1.84108 6.66992 3.28497 6.66992H17.9985V8.0031H3.28497C2.57702 8.0031 1.99973 8.55771 1.99973 9.23763V25.4331C1.99973 26.1144 2.57702 26.6676 3.28497 26.6676H28.7123C29.4203 26.6676 29.9975 26.1144 29.9975 25.4331V10.6695H31.3308V25.4331C31.3308 26.8489 30.1562 28.0008 28.7123 28.0008Z" fill="black"/>
<path d="M16.6653 27.7334H15.332V31.0224H16.6653V27.7334Z" fill="black"/>
<path d="M21.9981 30.667H9.99902V32.0002H21.9981V30.667Z" fill="black"/>
<path d="M11.5964 22.6676H5.99951V21.3345H7.68605C8.47798 21.3345 8.7473 20.6545 9.21526 18.9867C9.86321 16.6763 10.7511 13.5127 15.5068 13.5127L15.9787 13.7073L18.9118 16.6403L19.1038 17.0416C19.1118 17.1189 19.2891 18.9534 17.8746 20.5252C16.5947 21.9477 14.4828 22.6676 11.5964 22.6676ZM9.78588 21.3345H11.5964C14.0749 21.3345 15.8481 20.7679 16.8653 19.652C17.6519 18.7894 17.7706 17.8215 17.7813 17.3976L15.2348 14.8499C11.7297 14.9592 11.1044 17.1883 10.4992 19.348C10.3085 20.0253 10.1085 20.7412 9.78588 21.3345Z" fill="black"/>
<path d="M18.6719 17.8776L17.7227 16.9404L30.9563 3.53393C31.4616 3.02865 31.4616 2.21008 30.959 1.70747C30.4563 1.20486 29.6391 1.20486 29.1364 1.70747L15.7268 14.9433L14.7896 13.9954L28.1952 0.763579C29.2151 -0.254971 30.879 -0.25497 31.9002 0.766246C32.9215 1.78746 32.9228 3.4526 31.9002 4.47382L18.6719 17.8776Z" fill="black"/>
</svg>
