<svg width="35" height="42" viewBox="0 0 35 42" fill="none" xmlns="http://www.w3.org/2000/svg">
<path d="M11.9613 18.5996C11.6961 18.5996 11.4781 18.3833 11.4781 18.1201C11.4781 17.8541 11.6961 17.6407 11.9613 17.6407L15.8178 17.6436C16.0859 17.6436 16.3009 17.857 16.3009 18.1231C16.3009 18.3862 16.0859 18.5996 15.8178 18.5996H11.9613ZM17.0021 16.7344C17.0021 16.4683 17.2201 16.252 17.4882 16.252C17.7534 16.252 17.9714 16.4683 17.9714 16.7344V22.0407C18.4545 22.1371 18.8876 22.374 19.2235 22.7072C19.3089 22.792 19.3885 22.8797 19.4592 22.9762H27.6052C27.9558 22.9762 28.274 23.1195 28.5038 23.3475C28.7336 23.5756 28.875 23.8913 28.875 24.2363V38.5151H30.1183C30.3746 38.5151 30.6103 38.6057 30.7959 38.7607C30.9815 38.9156 31.1111 39.132 31.1553 39.3805V39.3863C31.1965 39.6377 31.1465 39.8833 31.0227 40.088C30.9078 40.2809 30.7281 40.4359 30.5072 40.5236L28.3859 41.6316C28.3653 41.6433 28.3447 41.6521 28.3211 41.6609C27.9823 41.7778 27.6583 41.8626 27.3312 41.9181C26.9983 41.9737 26.6654 42 26.3119 42H8.16667C7.81019 42 7.47727 41.9737 7.14731 41.9181C6.82618 41.8626 6.508 41.7807 6.17508 41.6667C6.14562 41.6579 6.11616 41.6462 6.08965 41.6316L3.97138 40.5236C3.74747 40.4359 3.56776 40.2809 3.45286 40.088C3.33796 39.895 3.28788 39.667 3.31439 39.4302C3.31734 39.4156 3.31734 39.398 3.32029 39.3805C3.36448 39.132 3.49705 38.9156 3.67971 38.7607C3.86532 38.6057 4.10396 38.5151 4.35732 38.5151H5.60059V24.2363C5.60059 23.8913 5.742 23.5756 5.9718 23.3475C6.20455 23.1195 6.51978 22.9762 6.87037 22.9762H15.5143C15.588 22.8797 15.6646 22.792 15.75 22.7072C16.0859 22.374 16.5189 22.1371 17.0021 22.0407V16.7344ZM19.8923 23.9381C19.9276 24.0989 19.9453 24.2626 19.9453 24.4322C19.9453 24.4994 19.9423 24.5637 19.9364 24.631H26.9777C27.1574 24.631 27.3018 24.7742 27.3018 24.9526V36.6381C27.3018 36.8165 27.1574 36.9597 26.9777 36.9597H7.4979C7.32113 36.9597 7.17382 36.8165 7.17382 36.6381V24.9526C7.17382 24.7742 7.32113 24.631 7.4979 24.631H15.037C15.0341 24.5637 15.0311 24.4994 15.0311 24.4322C15.0311 24.2626 15.0459 24.0989 15.0812 23.9381H6.87037C6.78493 23.9381 6.71128 23.9702 6.65825 24.0229C6.60227 24.0784 6.56987 24.1515 6.56987 24.2363V38.5151H14.3535C14.4832 38.5151 14.6098 38.5385 14.7306 38.5823C14.8367 38.6233 14.9369 38.6817 15.0253 38.7577C15.037 38.7665 15.0488 38.7753 15.0606 38.787L15.3316 39.0326C15.3994 39.091 15.4642 39.1349 15.5349 39.1612C15.5997 39.1846 15.6793 39.1992 15.7677 39.1992H18.7079C18.7992 39.1992 18.8758 39.1846 18.9436 39.1612C19.0114 39.1349 19.0791 39.091 19.1439 39.0326L19.415 38.787L19.4209 38.7841C19.521 38.6934 19.6271 38.6262 19.7449 38.5823C19.8628 38.5385 19.9924 38.5151 20.1221 38.5151H27.9057V24.2363C27.9057 24.1515 27.8733 24.0784 27.8173 24.0229C27.7643 23.9702 27.6907 23.9381 27.6052 23.9381H19.8923ZM19.795 25.2712C19.6713 25.6074 19.4739 25.9086 19.2235 26.1542C18.7786 26.5956 18.1658 26.8704 17.4882 26.8704C16.8077 26.8704 16.1949 26.5956 15.75 26.1542C15.4996 25.9086 15.3051 25.6074 15.1814 25.2712H7.82197V36.3195H26.6536V25.2712H19.795ZM22.3788 14.9714C22.2668 14.7288 22.3729 14.4452 22.6174 14.3341C22.859 14.223 23.1448 14.3282 23.2567 14.568L25.0391 18.3716H25.0421C25.2277 18.8043 25.537 19.1551 25.9141 19.3977C26.2971 19.6433 26.7479 19.7778 27.2222 19.769H27.2281L30.1359 19.7661C30.2332 19.2866 30.4718 18.8569 30.8077 18.5236C31.2525 18.0821 31.8653 17.8102 32.5429 17.8102C33.2235 17.8102 33.8363 18.0821 34.2811 18.5236C34.726 18.9651 35 19.5732 35 20.2485C35 20.9209 34.726 21.532 34.2811 21.9705C33.8363 22.412 33.2235 22.6868 32.5429 22.6868C31.8653 22.6868 31.2525 22.412 30.8077 21.9705C30.4718 21.6372 30.2332 21.2104 30.1359 20.728H27.2281C26.5623 20.7367 25.9259 20.5496 25.3927 20.2076C24.8535 19.8626 24.4146 19.3597 24.1524 18.7516L22.3788 14.9714ZM11.7433 14.454C11.8552 14.2142 12.141 14.109 12.3855 14.2201C12.6271 14.3312 12.7332 14.6148 12.6212 14.8545L10.8506 18.6376C10.5854 19.2457 10.1494 19.7457 9.61027 20.0936C9.07407 20.4356 8.43771 20.6227 7.77189 20.611L4.867 20.614C4.76978 21.0934 4.53114 21.5232 4.19529 21.8565C3.75042 22.2979 3.13468 22.5728 2.45707 22.5728C1.77946 22.5728 1.16372 22.2979 0.718855 21.8565C0.27399 21.415 0 20.8069 0 20.1345C0 19.4591 0.27399 18.851 0.718855 18.4096C1.16372 17.9681 1.77946 17.6962 2.45707 17.6962C3.13468 17.6962 3.75042 17.9681 4.19529 18.4096C4.53114 18.7429 4.76978 19.1726 4.867 19.6521H7.77189L7.78072 19.655C8.2521 19.6638 8.70581 19.5293 9.08586 19.2837C9.46591 19.0411 9.77231 18.6902 9.96086 18.2575L11.7433 14.454ZM2.45707 21.6109C2.86658 21.6109 3.24074 21.4443 3.50884 21.1782C3.77694 20.9092 3.94487 20.5409 3.94487 20.1345C3.94487 19.7252 3.77694 19.3568 3.50884 19.0878C3.24074 18.8218 2.86658 18.6581 2.45707 18.6581C2.04756 18.6581 1.6734 18.8218 1.4053 19.0878C1.13721 19.3568 0.969276 19.7252 0.969276 20.1345C0.969276 20.5409 1.13721 20.9092 1.4053 21.1782C1.6734 21.4443 2.04756 21.6109 2.45707 21.6109ZM32.5429 21.7249C32.9554 21.7249 33.3266 21.5583 33.5947 21.2922C33.8657 21.0233 34.0307 20.6549 34.0307 20.2485C34.0307 19.8392 33.8657 19.4708 33.5947 19.2048C33.3266 18.9358 32.9554 18.7721 32.5429 18.7721C32.1334 18.7721 31.7622 18.9358 31.4912 19.2048C31.2231 19.4708 31.0551 19.8392 31.0551 20.2485C31.0551 20.6549 31.2231 21.0233 31.4912 21.2922C31.7622 21.5583 32.1334 21.7249 32.5429 21.7249ZM17.4882 25.9086C17.8977 25.9086 18.2689 25.7419 18.54 25.4759C18.8081 25.2069 18.976 24.8385 18.976 24.4322C18.976 24.0229 18.8081 23.6545 18.54 23.3884C18.2689 23.1195 17.8977 22.9558 17.4882 22.9558C17.0758 22.9558 16.7045 23.1195 16.4335 23.3884C16.1654 23.6545 16.0004 24.0229 16.0004 24.4322C16.0004 24.8385 16.1654 25.2069 16.4335 25.4759C16.7045 25.7419 17.0758 25.9086 17.4882 25.9086ZM30.1183 39.4769H20.1221C20.1073 39.4769 20.0955 39.4799 20.0896 39.4799V39.4828C20.0808 39.4828 20.0749 39.4886 20.069 39.4916L19.7921 39.7459C19.6389 39.8833 19.4739 39.9856 19.2912 40.0558C19.1056 40.126 18.9141 40.1611 18.7079 40.1611H15.7677C15.5644 40.1611 15.3699 40.126 15.1843 40.0558C15.0017 39.9856 14.8367 39.8833 14.6835 39.7459C14.5922 39.6582 14.4949 39.5763 14.4007 39.4886C14.3977 39.4857 14.3918 39.4828 14.3889 39.4828C14.383 39.4799 14.3712 39.4769 14.3535 39.4769H4.35732C4.33375 39.4769 4.31608 39.4828 4.30135 39.4945C4.28956 39.5062 4.28072 39.5237 4.27483 39.5471V39.553C4.27483 39.5676 4.27778 39.5851 4.28662 39.5997C4.29545 39.6144 4.31313 39.629 4.33081 39.6348C4.35438 39.6436 4.375 39.6524 4.39857 39.6641L6.51094 40.7662C6.78199 40.8598 7.04125 40.927 7.3064 40.9709C7.57744 41.0177 7.85732 41.0381 8.16667 41.0381H26.3119C26.6183 41.0381 26.8981 41.0177 27.1721 40.9709C27.4343 40.927 27.6936 40.8598 27.9676 40.7662L30.08 39.6641C30.1035 39.6494 30.1271 39.6407 30.1536 39.6319C30.1683 39.626 30.1801 39.6144 30.189 39.5997C30.2008 39.5822 30.2037 39.5647 30.2008 39.5442V39.5471C30.1978 39.5208 30.189 39.5033 30.1742 39.4945C30.1625 39.4828 30.1448 39.4769 30.1183 39.4769ZM19.085 18.6142C18.8199 18.6142 18.6019 18.3979 18.6019 18.1348C18.6019 17.8687 18.8199 17.6553 19.085 17.6553L22.8944 17.6582C23.1625 17.6582 23.3775 17.8716 23.3775 18.1348C23.3775 18.4008 23.1625 18.6142 22.8944 18.6142H19.085ZM26.088 18.623C25.8199 18.623 25.6048 18.4096 25.6048 18.1435C25.6048 17.8775 25.8199 17.6611 26.088 17.6611H26.5593L26.5888 17.6641C27.1397 17.6465 27.6641 17.5237 28.1444 17.3161C28.6481 17.0969 29.0989 16.7841 29.476 16.3981L29.4819 16.3894C29.8885 15.9742 30.2155 15.4597 30.4217 14.9042C30.6221 14.3692 30.7134 13.7932 30.6662 13.2319C30.6633 13.2173 30.6633 13.2027 30.6633 13.188C30.6279 12.6559 30.4924 12.1502 30.2774 11.6912C30.0505 11.2117 29.7323 10.7819 29.3434 10.4223L29.3346 10.4136C29.0311 10.1329 28.6864 9.89316 28.3093 9.70897C27.9411 9.53063 27.5434 9.402 27.1279 9.33475C26.9718 9.31136 26.8304 9.23535 26.7273 9.12426C26.6242 9.01316 26.5564 8.87283 26.5417 8.71495C26.5299 8.57754 26.5093 8.43137 26.4827 8.27641C26.25 6.97834 25.537 5.87322 24.5471 5.12771C23.5543 4.37927 22.2845 3.98751 20.944 4.10738C20.8056 4.11907 20.6553 4.13954 20.4933 4.16877L20.4785 4.1717L20.4196 4.18339C20.3695 4.19509 20.3165 4.20678 20.234 4.22432C20.013 4.27695 19.7921 4.16585 19.6919 3.97289C19.3944 3.49342 19.0438 3.06658 18.649 2.69528C17.6267 1.72758 16.3304 1.15163 14.9811 0.999603C13.6347 0.847577 12.2382 1.12239 11.0215 1.85621C10.556 2.13688 10.1111 2.49063 9.70455 2.91455L9.68098 2.93502C9.19487 3.45542 8.79125 4.05768 8.49958 4.71841C8.2138 5.36452 8.03409 6.06911 7.98695 6.80293C7.97811 6.94326 7.92803 7.0719 7.84259 7.18007C7.7601 7.28532 7.64815 7.36718 7.51263 7.41396C7.04714 7.56891 6.61111 7.78525 6.21338 8.05715C5.80682 8.33196 5.4415 8.66233 5.12921 9.03655C4.73737 9.5014 4.42508 10.0306 4.21296 10.6094C4.00968 11.1649 3.90067 11.7701 3.90067 12.3987C3.90067 13.115 4.04209 13.7961 4.30135 14.4189C4.56944 15.0621 4.96423 15.638 5.45328 16.1204C5.93939 16.5999 6.51683 16.9887 7.15614 17.2577C7.77778 17.515 8.45244 17.6582 9.15951 17.6641C9.42761 17.6641 9.64268 17.8804 9.64268 18.1435C9.63973 18.4096 9.42466 18.623 9.15657 18.623C8.31397 18.6142 7.51557 18.4447 6.78493 18.1435C6.02778 17.8278 5.34428 17.3688 4.76978 16.7987C4.19234 16.2286 3.72685 15.5445 3.40867 14.7872C3.09933 14.0476 2.9314 13.2407 2.9314 12.3987C2.9314 11.659 3.06397 10.9457 3.30556 10.282C3.55598 9.59495 3.92424 8.96638 4.38678 8.41967L4.38973 8.42259C4.76094 7.97821 5.19108 7.58937 5.66835 7.26193C6.0867 6.97834 6.5463 6.74153 7.03535 6.56319C7.10606 5.77967 7.3064 5.03123 7.61279 4.33542C7.94865 3.57528 8.41414 2.87947 8.9798 2.28013C8.98864 2.27136 8.99453 2.26259 9.00337 2.2509C9.46885 1.76851 9.97854 1.36505 10.5206 1.03761C11.9289 0.18977 13.5375 -0.128901 15.0871 0.0465138C16.6397 0.219005 18.1364 0.885584 19.3178 1.99947C19.6978 2.35907 20.0455 2.76545 20.3519 3.21861C20.508 3.19229 20.6789 3.16891 20.8586 3.15429C22.4465 3.01103 23.952 3.47588 25.1305 4.36465C26.3089 5.25635 27.1604 6.56612 27.4343 8.11269C27.452 8.20917 27.4697 8.31442 27.4815 8.42552C27.9234 8.51322 28.3447 8.65648 28.7365 8.84944C29.202 9.07748 29.6263 9.36984 29.9975 9.71482L30.0034 9.72067C30.4777 10.1592 30.8695 10.6884 31.1524 11.2848C31.4205 11.852 31.5854 12.4747 31.6296 13.1296V13.15C31.6915 13.8517 31.5795 14.568 31.3262 15.2375C31.0728 15.9187 30.6751 16.5502 30.1742 17.0589L30.1713 17.0618C29.7088 17.5413 29.1519 17.9272 28.5303 18.1961C27.9411 18.4505 27.2959 18.5996 26.6153 18.6201C26.5976 18.623 26.58 18.623 26.5593 18.623H26.088Z" fill="black"/>
</svg>
