<svg width="38" height="36" viewBox="0 0 38 36" fill="none" xmlns="http://www.w3.org/2000/svg">
<path d="M32.6425 5.65167C30.2149 5.65167 28.2495 7.61653 28.2495 10.0447C28.2495 11.0762 28.6029 12.053 29.2522 12.8376L27.3961 14.6937C25.2904 12.7288 22.4981 11.4933 19.4217 11.389V8.76468C21.6464 8.55106 23.392 6.67243 23.392 4.39305C23.392 1.97107 21.4215 0 18.9989 0C16.5764 0 14.6059 1.97107 14.6059 4.39305C14.6059 6.67243 16.3515 8.55106 18.5762 8.76468V11.389C15.501 11.4933 12.7092 12.7299 10.6046 14.6965L8.74624 12.8376C10.1666 11.1201 10.086 8.5612 8.4616 6.93847C6.74474 5.22104 3.96541 5.22161 2.24911 6.93847C0.536755 8.65139 0.536755 11.438 2.24911 13.151C3.87522 14.7776 6.43417 14.8526 8.14822 13.435L10.0066 15.2939C7.95094 17.495 6.68894 20.4462 6.68894 23.6883C6.68894 30.6048 12.3412 36 19.0012 36C25.7525 36 31.3168 30.5293 31.3168 23.6883C31.3168 20.4451 30.0532 17.4922 27.9942 15.2911L29.8497 13.435C30.6343 14.0838 31.6116 14.4378 32.6425 14.4378C35.0702 14.4378 37.0356 12.4729 37.0356 10.0447C37.0356 7.61653 35.0707 5.65167 32.6425 5.65167ZM15.4514 4.39305C15.4514 2.43664 17.0425 0.845467 18.9989 0.845467C20.9554 0.845467 22.5465 2.43664 22.5465 4.39305C22.5465 6.34946 20.9554 7.94063 18.9989 7.94063C17.0425 7.94063 15.4514 6.34946 15.4514 4.39305ZM2.84657 12.5529C1.46395 11.1698 1.46395 8.91912 2.84657 7.53593C4.23258 6.14937 6.47757 6.14937 7.86358 7.53593C9.25071 8.92306 9.24958 11.1658 7.86358 12.5529C6.47757 13.9401 4.23258 13.9401 2.84657 12.5529ZM15.7191 20.6334C15.7191 18.8229 17.1919 17.3496 19.0029 17.3496C20.8133 17.3496 22.2861 18.8224 22.2861 20.6334C22.2861 25.0315 15.7191 24.8968 15.7191 20.6334ZM19.3631 24.744C23.2776 24.9233 26.5681 27.9681 27.0185 31.8702C24.942 33.9111 22.1148 35.1528 18.9995 35.1528C16.0505 35.1528 13.1787 34.0188 10.9896 31.8713C11.436 27.9686 14.7271 24.9227 18.6416 24.744C18.9217 24.7682 19.0846 24.7682 19.3631 24.744ZM27.7478 31.0856C27.0777 27.6891 24.4466 24.9909 21.1442 24.1573C22.3335 23.4318 23.1322 22.1259 23.1322 20.6334C23.1322 18.3562 21.28 16.5041 19.0035 16.5041C16.7263 16.5041 14.8742 18.3562 14.8742 20.6334C14.8742 22.1253 15.6723 23.4313 16.8616 24.1567C13.5581 24.9903 10.9259 27.6891 10.2591 31.0873C8.50444 29.0187 7.53553 26.4214 7.53553 23.6883C7.53553 17.367 12.6782 12.2238 19.0001 12.2238C25.3259 12.2238 30.4725 17.367 30.4725 23.6883C30.4714 26.4175 29.5025 29.0136 27.7478 31.0856ZM32.6425 13.5923C31.695 13.5923 30.8039 13.2231 30.1343 12.5529C29.4641 11.8828 29.095 10.9916 29.095 10.0442C29.095 8.08379 30.6816 6.49657 32.6425 6.49657C34.6029 6.49657 36.1901 8.08323 36.1901 10.0442C36.1901 12.0051 34.6035 13.5923 32.6425 13.5923Z" fill="black"/>
<path d="M32.6427 9.71996C33.2261 9.71996 33.699 9.24705 33.699 8.66369C33.699 8.08033 33.2261 7.60742 32.6427 7.60742C32.0593 7.60742 31.5864 8.08033 31.5864 8.66369C31.5864 9.24705 32.0593 9.71996 32.6427 9.71996Z" fill="black"/>
<path d="M32.6432 9.72363C31.4161 9.72363 30.4219 10.7179 30.4219 11.945H34.8645C34.8645 10.7179 33.8703 9.72363 32.6432 9.72363Z" fill="black"/>
<path d="M5.35608 9.71996C5.93944 9.71996 6.41235 9.24705 6.41235 8.66369C6.41235 8.08033 5.93944 7.60742 5.35608 7.60742C4.77271 7.60742 4.2998 8.08033 4.2998 8.66369C4.2998 9.24705 4.77271 9.71996 5.35608 9.71996Z" fill="black"/>
<path d="M5.35463 9.72363C4.12813 9.72363 3.1333 10.7179 3.1333 11.945H7.57595C7.57595 10.7179 6.58112 9.72363 5.35463 9.72363Z" fill="black"/>
<path d="M18.9991 4.05688C19.5825 4.05688 20.0554 3.58397 20.0554 3.00061C20.0554 2.41724 19.5825 1.94434 18.9991 1.94434C18.4158 1.94434 17.9429 2.41724 17.9429 3.00061C17.9429 3.58397 18.4158 4.05688 18.9991 4.05688Z" fill="black"/>
<path d="M18.9996 4.05664C17.7726 4.05664 16.7783 5.05091 16.7783 6.27797H21.221C21.221 5.05091 20.2267 4.05664 18.9996 4.05664Z" fill="black"/>
</svg>
