<svg width="42" height="32" viewBox="0 0 42 32" fill="none" xmlns="http://www.w3.org/2000/svg">
<path d="M19.253 19.4459C19.2036 19.4459 19.1048 19.4459 19.0554 19.3966C18.6602 19.2982 18.4132 18.9043 18.512 18.5105L21.6735 6.69509C21.7723 6.30124 22.1674 6.05509 22.5626 6.15355C22.9578 6.25201 23.2048 6.64585 23.106 7.0397L19.9446 18.8551C19.8952 19.2489 19.5494 19.4459 19.253 19.4459Z" fill="black"/>
<path d="M24.2911 19.4464C22.8092 19.4464 21.5742 18.3141 21.5742 16.8864V15.311C21.5742 13.9325 22.8092 12.751 24.2911 12.751C25.773 12.751 27.008 13.8833 27.008 15.311V16.8864C27.008 18.3141 25.773 19.4464 24.2911 19.4464ZM24.2911 14.2771C23.5995 14.2771 23.0561 14.7694 23.0561 15.3602V16.9356C23.0561 17.5264 23.5995 18.0187 24.2911 18.0187C24.9827 18.0187 25.526 17.5264 25.526 16.9356V15.3602C25.526 14.7694 24.9827 14.2771 24.2911 14.2771Z" fill="black"/>
<path d="M17.3756 12.7999C15.8936 12.7999 14.6587 11.6676 14.6587 10.2399V8.66449C14.6587 7.28603 15.8936 6.10449 17.3756 6.10449C18.8575 6.10449 20.0924 7.2368 20.0924 8.66449V10.2399C20.0924 11.6676 18.8575 12.7999 17.3756 12.7999ZM17.3756 7.63065C16.684 7.63065 16.1406 8.12295 16.1406 8.71372V10.2891C16.1406 10.8799 16.684 11.3722 17.3756 11.3722C18.0671 11.3722 18.6105 10.8799 18.6105 10.2891V8.71372C18.6105 8.12295 18.0671 7.63065 17.3756 7.63065Z" fill="black"/>
<path d="M38.6166 0H3.05036C1.56844 0 0.333496 1.23077 0.333496 2.70769V25.3538C0.333496 26.8308 1.56844 28.0615 3.05036 28.0615H17.5733C17.4251 29.1938 16.9805 30.5231 15.3998 30.5231H13.4239C13.0287 30.5231 12.6829 30.8677 12.6829 31.2615C12.6829 31.6554 13.0287 32 13.4239 32H28.2431C28.6383 32 28.9841 31.6554 28.9841 31.2615C28.9841 30.8677 28.6383 30.5231 28.2431 30.5231H26.2672C24.6865 30.5231 24.1925 29.1938 24.0937 28.0615H38.6166C40.0986 28.0615 41.3335 26.8308 41.3335 25.3538V2.70769C41.3335 1.23077 40.0986 0 38.6166 0ZM3.05036 1.47692H38.6166C39.3082 1.47692 39.8516 2.01846 39.8516 2.70769V23.1385H1.81542V2.70769C1.81542 2.01846 2.3588 1.47692 3.05036 1.47692ZM23.4022 30.5231H18.2648C18.7094 29.8831 18.9564 29.0462 19.0552 28.0615H22.6118C22.7106 29.0462 22.9576 29.8831 23.4022 30.5231ZM38.6166 26.5846H3.05036C2.3588 26.5846 1.81542 26.0431 1.81542 25.3538V24.6154H39.8516V25.3538C39.8516 26.0431 39.3082 26.5846 38.6166 26.5846Z" fill="black"/>
</svg>
