<svg width="46" height="46" viewBox="0 0 46 46" fill="none" xmlns="http://www.w3.org/2000/svg">
<path fill-rule="evenodd" clip-rule="evenodd" d="M12.3625 4.15385H16.5053V2.74656C16.5053 1.23539 17.7407 0 19.252 0C20.7633 0 21.9988 1.23539 21.9988 2.74656V4.15385H26.1416L26.1397 2.74656C26.1397 1.23539 27.3752 0 28.8864 0C30.3977 0 31.6332 1.23539 31.6332 2.74656V4.15385H33.8661C36.4183 4.15385 38.5039 6.23927 38.5039 8.79123V24.9779C38.5039 25.3123 38.2318 25.5843 37.8975 25.5843C37.5631 25.5843 37.2911 25.3123 37.2911 24.9779V13.1284H1.2128V36.5083C1.2128 38.3915 2.75619 39.9329 4.63772 39.9329H25.5389C25.8732 39.9329 26.1453 40.2049 26.1453 40.5393C26.1453 40.8736 25.8732 41.1456 25.5389 41.1456H4.63772C2.08557 41.1456 0 39.0602 0 36.5083V8.79365C0 6.24169 2.08557 4.15627 4.63772 4.15627H6.87065V2.74709C6.87065 1.23592 8.10612 0.000531962 9.6174 0.000531962C11.1287 0.000531962 12.3642 1.23592 12.3642 2.74709L12.3625 4.15385ZM33.4072 41.846H36.1634V43.2514C36.1634 43.5858 36.4355 43.8578 36.7698 43.8578C37.1042 43.8578 37.3762 43.5858 37.3762 43.2514V41.846H37.8976C39.4618 41.846 40.7407 40.5691 40.7407 39.0032C40.7407 37.441 39.4599 36.1603 37.8938 36.1603H37.3781V32.9018H40.1343C40.4687 32.9018 40.7407 32.6298 40.7407 32.2955C40.7407 31.9611 40.4687 31.6891 40.1343 31.6891H37.3781V30.2837C37.3781 29.9494 37.1061 29.6774 36.7717 29.6774C36.4373 29.6774 36.1653 29.9494 36.1653 30.2837V31.6891H35.6439C34.0797 31.6891 32.8008 32.966 32.8008 34.532C32.8008 36.0961 34.0779 37.3749 35.6439 37.3749H36.1653V40.6333H33.4091C33.0748 40.6333 32.8027 40.9053 32.8027 41.2397C32.8008 41.574 33.0729 41.846 33.4072 41.846ZM37.3762 40.6333C38.0185 40.6333 38.5229 40.6787 39.0481 40.1554C40.0795 39.1241 39.3352 37.3768 37.8938 37.3768H37.3781V40.6333L37.3762 40.6333ZM35.6439 36.1622H36.1653V32.9037C35.523 32.9037 35.0186 32.8584 34.4954 33.3816C33.4583 34.4186 34.2158 36.1622 35.6439 36.1622ZM36.7698 27.541C31.6731 27.541 27.5396 31.6741 27.5396 36.7705C27.5396 41.8669 31.673 46 36.7698 46C41.8685 46 46 41.8669 46 36.7686C46 31.6722 41.8685 27.541 36.7698 27.541ZM42.4392 31.1017C39.3089 27.9717 34.2309 27.9717 31.101 31.1017C27.971 34.2317 27.9707 39.3094 31.101 42.4391C34.2312 45.5691 39.3073 45.5691 42.4392 42.4391C45.5713 39.3072 45.5713 34.2314 42.4392 31.1017ZM17.9942 18.2246C17.5899 18.4494 17.5786 19.0388 17.9885 19.2749L19.8644 20.3573C20.3329 20.6576 20.8222 20.3063 20.8222 19.8624V19.5072C24.3718 20.2383 26.9862 23.3796 26.9862 27.08C26.9862 31.351 23.5235 34.8133 19.2524 34.8133C14.1498 34.8133 10.4739 29.9665 11.7811 25.0775C11.868 24.7545 11.6753 24.4221 11.3522 24.3371C11.0292 24.2502 10.6967 24.4429 10.6098 24.7659C9.09475 30.4252 13.3528 36.0259 19.2505 36.0259C24.1925 36.0259 28.1972 32.0213 28.1972 27.0798C28.1972 22.7087 25.0462 19.0176 20.8203 18.2715V17.6387C20.8203 17.1778 20.3121 16.885 19.9116 17.1155L17.9942 18.2246ZM16.5056 5.36637H12.3628V6.77367C12.3628 8.28484 11.1273 9.52022 9.616 9.52022C8.10472 9.52022 6.86925 8.28484 6.86925 6.77367V5.36637H4.63821C2.75668 5.36637 1.21328 6.90965 1.21328 8.79104V11.9135H37.2915V8.79293C37.2915 6.90965 35.7482 5.36825 33.8666 5.36825H31.6337V6.77555C31.6337 8.28672 30.3982 9.52211 28.8869 9.52211C27.3757 9.52211 26.1402 8.28672 26.1402 6.77555V5.36825H21.9974V6.77555C21.9974 8.28672 20.7619 9.52211 19.2506 9.52211C17.7393 9.52211 16.5039 8.28672 16.5039 6.77555L16.5056 5.36637ZM28.8869 1.21445C28.0444 1.21445 27.353 1.90581 27.353 2.7483V6.77555C27.353 8.11858 28.9946 8.83263 29.9675 7.85794C30.2452 7.58026 30.419 7.19679 30.419 6.77555V2.7483C30.4208 1.90581 29.7295 1.21445 28.8869 1.21445ZM9.61799 1.21445C8.77544 1.21445 8.08403 1.90581 8.08403 2.7483V6.77555C8.08403 8.11858 9.72564 8.83263 10.6985 7.85794C10.9762 7.58026 11.15 7.19679 11.15 6.77555V2.7483C11.15 1.90581 10.4586 1.21445 9.61799 1.21445ZM19.2525 1.21445C18.4099 1.21445 17.7185 1.90581 17.7185 2.7483V6.77555C17.7185 8.11858 19.3601 8.83263 20.333 7.85794C20.6107 7.58026 20.7845 7.19679 20.7845 6.77555V2.7483C20.7864 1.90581 20.095 1.21445 19.2525 1.21445Z" fill="black"/>
</svg>
