<svg width="46" height="26" viewBox="0 0 46 26" fill="none" xmlns="http://www.w3.org/2000/svg">
<path d="M8.97937 17.0011C12.1365 17.0011 14.7043 14.41 14.7043 11.2249C14.7043 8.0398 12.136 5.44922 8.97937 5.44922C5.82275 5.44922 3.25391 8.0398 3.25391 11.2249C3.25391 14.41 5.82224 17.0011 8.97937 17.0011ZM8.97937 7.87943C10.8081 7.87943 12.2955 9.37995 12.2955 11.2249C12.2955 13.0699 10.8081 14.5704 8.97937 14.5704C7.15062 14.5704 5.66328 13.0694 5.66328 11.2249C5.66328 9.38046 7.15062 7.87943 8.97937 7.87943Z" fill="black"/>
<path d="M2.40938 25.5001C2.40938 23.0183 4.41038 20.9996 6.87035 20.9996H11.0875C11.2138 20.9996 11.339 21.0047 11.4627 21.0155C11.8118 21.046 12.1583 20.9279 12.4118 20.6927C12.6587 20.4633 12.7951 20.1498 12.7951 19.81C12.7951 19.1902 12.3249 18.6585 11.7239 18.6003C11.5143 18.5802 11.3022 18.5693 11.0875 18.5693H6.87035C3.082 18.5688 0 21.6781 0 25.5001V25.9997H2.40938V25.5001Z" fill="black"/>
<path d="M13.2227 25.9996H15.632V23.0073C15.632 20.2022 17.8942 17.92 20.6752 17.92H25.3258C28.1062 17.92 30.3689 20.2022 30.3689 23.0073V25.9996H32.7783V23.0073C32.7783 20.4698 31.5153 18.119 29.3998 16.7196C28.1834 15.9147 26.7748 15.4893 25.3263 15.4893H20.6757C18.3741 15.4893 16.2351 16.5463 14.8071 18.3892C13.7711 19.7263 13.2237 21.3232 13.2237 23.0073V25.9996H13.2227Z" fill="black"/>
<path d="M39.1299 18.5693H34.9127C34.7946 18.5693 34.6776 18.5729 34.561 18.5791C33.9114 18.6152 33.4023 19.1499 33.4023 19.7971C33.4023 20.1312 33.5398 20.4535 33.7801 20.6819C34.0218 20.9114 34.3382 21.0264 34.6673 21.0073C34.7486 21.0021 34.8304 21.0001 34.9127 21.0001H39.1299C41.5898 21.0001 43.5908 23.0188 43.5908 25.5006V26.0002H46.0002V25.5006C46.0002 21.6786 42.9182 18.5693 39.1299 18.5693Z" fill="black"/>
<path d="M37.0209 17.0011C40.178 17.0011 42.7463 14.41 42.7463 11.2249C42.7463 8.0398 40.178 5.44922 37.0209 5.44922C33.8637 5.44922 31.2954 8.0398 31.2954 11.2249C31.2954 14.41 33.8643 17.0011 37.0209 17.0011ZM37.0209 7.87943C38.8496 7.87943 40.337 9.37995 40.337 11.2249C40.337 13.0699 38.8491 14.5704 37.0209 14.5704C35.1926 14.5704 33.7048 13.0694 33.7048 11.2249C33.7048 9.38046 35.1926 7.87943 37.0209 7.87943Z" fill="black"/>
<path d="M22.9999 14.5318C26.9707 14.5318 30.202 11.2724 30.202 7.26589C30.202 3.25937 26.9712 0 22.9999 0C19.0286 0 15.7979 3.25937 15.7979 7.26589C15.7979 11.2719 19.0286 14.5318 22.9999 14.5318ZM22.9999 2.43021C25.6424 2.43021 27.7926 4.59951 27.7926 7.26589C27.7926 9.93176 25.6424 12.1011 22.9999 12.1011C20.357 12.1011 18.2067 9.93176 18.2067 7.26589C18.2067 4.59951 20.357 2.43021 22.9999 2.43021Z" fill="black"/>
</svg>
