<svg width="63" height="61" viewBox="0 0 63 61" fill="none" xmlns="http://www.w3.org/2000/svg">
<path fill-rule="evenodd" clip-rule="evenodd" d="M16.6981 30.8525C16.7268 34.9413 18.403 38.642 21.1 41.3258C23.8127 44.0248 27.5592 45.6957 31.6998 45.6957C35.838 45.6957 39.5873 44.0274 42.2996 41.3258C45.0148 38.6242 46.6962 34.8946 46.704 30.7718C46.704 30.2227 47.1505 29.7776 47.7014 29.7776V29.7724H54.2598C53.9883 29.4861 53.6672 29.2154 53.3042 28.963C52.9492 28.95 52.6411 28.7496 52.474 28.4581C52.3774 28.4086 52.2808 28.3592 52.1842 28.3097C50.6438 27.5576 48.67 27.1099 46.5056 27.1099C44.8373 27.1099 43.2838 27.3754 41.9549 27.8413C41.8557 27.9402 41.733 28.0183 41.592 28.0677C41.4719 28.1119 41.3465 28.1302 41.2238 28.125C41.0881 28.1848 40.9549 28.2447 40.8244 28.3072C39.9811 28.7184 39.2735 29.2155 38.7487 29.7698H41.9705C42.5214 29.7698 42.9705 30.2149 42.9705 30.7667C42.9705 30.8109 42.9679 30.8552 42.9626 30.8994C42.7825 33.8352 41.4692 36.4665 39.4563 38.3691C37.4329 40.2795 34.7045 41.4507 31.7071 41.4507C28.7097 41.4507 25.9815 40.2795 23.9579 38.3691C21.9241 36.451 20.6056 33.7858 20.4464 30.8161C20.4176 30.267 20.8406 29.8011 21.3915 29.7725C21.4072 29.7725 21.4255 29.7699 21.4411 29.7699V29.7673H24.6629C24.1381 29.2129 23.4305 28.7184 22.5873 28.3046C22.4567 28.2421 22.3236 28.1796 22.1878 28.1224C22.0677 28.125 21.9424 28.1068 21.8197 28.0651C21.6787 28.0157 21.556 27.935 21.4568 27.8387C20.1278 27.3728 18.5718 27.1073 16.906 27.1073C14.739 27.1073 12.7653 27.5576 11.2274 28.3071C11.0264 28.406 10.8332 28.5075 10.6478 28.6143C10.5982 28.6507 10.546 28.6819 10.4912 28.708C9.9664 29.0281 9.51475 29.3846 9.15183 29.7672H15.7103C16.2612 29.7672 16.7102 30.2123 16.7102 30.764C16.6998 30.7979 16.6998 30.8265 16.6972 30.8525L16.6981 30.8525ZM39.83 26.5867C38.2217 27.3935 36.9842 28.4945 36.308 29.775H27.0917C26.4129 28.4945 25.1753 27.3936 23.5697 26.5867C24.1075 25.8527 24.956 25.1995 26.0213 24.6789C27.5617 23.9268 29.5355 23.4791 31.6999 23.4791C33.8669 23.4791 35.8407 23.9294 37.3785 24.6789C38.4464 25.1969 39.2921 25.8527 39.83 26.5867ZM21.6849 25.8293C22.4081 24.6504 23.6143 23.6405 25.1443 22.8962C26.7055 22.1336 28.6193 21.6365 30.7001 21.5142V18.2556C23.6247 18.1333 23.4028 16.5457 22.3508 9.06024L22.3221 8.85202C22.2463 8.30806 22.6275 7.80576 23.1732 7.73027C23.2724 7.71725 23.3716 7.71725 23.4656 7.73287C23.6901 7.7641 24.0817 7.81355 24.4812 7.863C25.2487 7.9593 26.0346 8.0556 26.8049 8.19875C26.9537 5.74962 28.6142 3.62584 30.1598 1.64524C30.3556 1.39278 30.5488 1.14813 30.8543 0.744691C30.9117 0.666609 30.9822 0.593737 31.0632 0.533872C31.5044 0.203335 32.131 0.289219 32.4626 0.729073C32.7315 1.08564 32.9195 1.32508 33.1101 1.56972C34.6322 3.52434 36.3449 5.72621 36.5225 8.20132C37.2979 8.05557 38.0916 7.95667 38.867 7.86037C39.2613 7.81092 39.6555 7.76147 39.8696 7.73284C39.9636 7.71722 40.0628 7.71722 40.162 7.73023C40.7077 7.80571 41.0888 8.30803 41.0131 8.85199L40.9609 9.22417C39.9635 16.3401 39.7129 18.1124 32.6978 18.2557V21.5142C34.7786 21.6365 36.6898 22.1336 38.2536 22.8962C39.7836 23.6432 40.9898 24.653 41.713 25.8294C43.1542 25.3765 44.7807 25.1189 46.4987 25.1189C48.6501 25.1189 50.6604 25.5197 52.3392 26.2094V23.742C45.2638 23.6197 45.0419 22.0321 43.9899 14.5466L43.9611 14.3384C43.8854 13.7945 44.2666 13.2922 44.8122 13.2167C44.9115 13.2037 45.0107 13.2037 45.1047 13.2193C45.3266 13.2505 45.7208 13.3 46.1229 13.3494C46.8904 13.4457 47.6763 13.542 48.4465 13.6852C48.5954 11.236 50.2558 9.11225 51.8015 7.13165C51.9973 6.87919 52.1931 6.63194 52.496 6.2311C52.5534 6.15302 52.6239 6.08015 52.7048 6.02029C53.1461 5.68975 53.7727 5.77563 54.1043 6.21549C54.3732 6.57205 54.5612 6.8115 54.7518 7.05614C56.2739 9.01075 57.9866 11.2126 58.1642 13.6877C58.9396 13.542 59.7333 13.4431 60.5087 13.3468C60.9029 13.2973 61.2946 13.2505 61.5113 13.2192C61.6053 13.2036 61.7045 13.2036 61.8063 13.2166C62.352 13.2921 62.7331 13.7944 62.6574 14.3384L62.6052 14.7106C61.6078 21.8265 61.3572 23.5988 54.342 23.7421V27.2713C55.3812 27.9766 56.1905 28.8277 56.6944 29.7751H58.9867C59.6394 29.7751 60.2321 30.0405 60.6629 30.4674C61.0911 30.8942 61.3574 31.485 61.3574 32.1383V34.6941C61.3574 35.4385 61.1355 36.1282 60.7778 36.6409C60.347 37.2578 59.7178 37.6404 58.9946 37.6404H55.6344C55.376 38.5383 55.0679 39.4154 54.7128 40.2691C54.705 40.2847 54.6971 40.3029 54.6893 40.3185C54.3368 41.1592 53.9374 41.9816 53.4935 42.778L55.872 45.1491C56.3837 45.6592 56.556 46.3723 56.4255 47.1115C56.3158 47.7257 55.9816 48.3685 55.4543 48.8969L49.888 54.4458C49.358 54.9741 48.7131 55.3047 48.0969 55.414C47.3554 55.5467 46.6401 55.3723 46.1283 54.8648L43.7499 52.4938C42.9274 52.9466 42.0867 53.3527 41.2304 53.7066C40.3714 54.0606 39.4916 54.3677 38.5909 54.6279V57.975H38.5935C38.5935 58.6959 38.2097 59.3231 37.5909 59.7526C37.0766 60.1092 36.3847 60.3304 35.638 60.3304L27.7665 60.333C27.0198 60.333 26.328 60.1118 25.8136 59.7552C25.1948 59.3258 24.811 58.6985 24.811 57.9776H24.8162V54.6306C23.9181 54.3729 23.0382 54.0658 22.1793 53.7092C21.3177 53.3526 20.4744 52.9467 19.6572 52.4964L17.2787 54.8674C16.767 55.3775 16.0517 55.5493 15.3102 55.4166C14.694 55.3073 14.0491 54.9741 13.5191 54.4484L7.95282 48.8995C7.42282 48.3712 7.09121 47.7283 6.9816 47.1141C6.84845 46.3749 7.02337 45.6618 7.53249 45.1517L9.91098 42.7806C9.45669 41.966 9.04937 41.1253 8.69433 40.2665C8.33925 39.4102 8.03117 38.5357 7.7727 37.6404H4.40729C3.68411 37.6404 3.0549 37.2578 2.62406 36.6384C2.26638 36.1256 2.04445 35.4359 2.04445 34.6915V32.1331C2.04445 31.4825 2.31076 30.8916 2.73897 30.4622C3.16714 30.0354 3.75978 29.7699 4.41512 29.7699H6.70745C7.20873 28.8225 8.01547 27.9741 9.05198 27.2687V23.5834C1.97922 23.4663 1.75465 21.8812 0.705295 14.3933L0.676576 14.1851C0.600862 13.6411 0.982044 13.1388 1.52769 13.0633C1.6269 13.0503 1.72611 13.0503 1.82271 13.0659C2.04464 13.0972 2.43888 13.1466 2.83831 13.1961C3.60588 13.2924 4.39175 13.3887 5.16199 13.5318C5.31081 11.0827 6.97129 8.95892 8.51691 6.97832C8.71272 6.72586 8.90592 6.47861 9.20881 6.08037C9.26625 6.00229 9.33675 5.92941 9.41768 5.86695C9.85892 5.53641 10.4829 5.6223 10.8171 6.06215C11.086 6.41872 11.274 6.65816 11.4646 6.9028C12.9867 8.85741 14.6994 11.0593 14.877 13.5344C15.6525 13.3886 16.4462 13.2897 17.2215 13.1934C17.6184 13.144 18.01 13.0945 18.2241 13.0659C18.3181 13.0503 18.4173 13.0503 18.5165 13.0633C19.0622 13.1388 19.4434 13.6411 19.3676 14.1851L19.3154 14.5572C18.3181 21.6732 18.0674 23.4455 11.0523 23.5887V26.2148C12.7336 25.5251 14.7466 25.1217 16.9006 25.1217C18.6185 25.1191 20.2451 25.3742 21.6863 25.8296L21.6849 25.8293ZM56.1818 14.2107C56.2184 12.2457 54.6988 10.2312 53.3073 8.44053C51.8817 10.265 50.3753 12.2248 50.4431 14.2028C51.5998 14.6219 52.6206 15.2595 53.3385 16.3031C54.0435 15.2647 55.0461 14.6271 56.1818 14.2107ZM54.3412 21.7457C59.3279 21.6051 59.7926 20.283 60.4975 15.3588C57.7613 15.6997 54.8189 16.1578 54.3412 19.2315V21.7457ZM52.3412 21.7457V19.2289C51.8635 16.1552 48.8714 15.6997 46.1222 15.3562C46.8559 20.4444 47.3388 21.6234 52.3412 21.7457ZM34.5404 8.7245C34.5769 6.75949 33.0574 4.74498 31.6658 2.95434C30.2403 4.77883 28.7338 6.74123 28.8017 8.71663C29.9583 9.13567 30.9791 9.77329 31.6971 10.817C32.402 9.77849 33.4047 9.14092 34.5404 8.7245ZM32.6997 16.2568C37.6864 16.1163 38.1511 14.7941 38.8561 9.86991C36.1199 10.2109 33.1775 10.6689 32.6997 13.7427V16.2568ZM30.6998 16.2594V13.7427C30.222 10.6689 27.23 10.2134 24.4808 9.86991C25.2144 14.9581 25.6974 16.1371 30.6998 16.2594ZM12.8936 14.0576C12.9301 12.0926 11.4106 10.0781 10.019 8.28742C8.59352 10.1119 7.08706 12.0717 7.1549 14.0497C8.31153 14.4687 9.33234 15.1064 10.0503 16.15C10.7552 15.1116 11.7553 14.474 12.8936 14.0576ZM11.0529 21.5899C16.0396 21.4494 16.5044 20.1272 17.2093 15.203C14.4731 15.5439 11.5307 15.9994 11.0529 19.0758V21.5899ZM9.05042 21.5925V19.0758C8.57264 16.002 5.58061 15.5465 2.83137 15.203C3.56766 20.2912 4.04802 21.4702 9.05042 21.5925ZM38.0834 36.9324C36.4229 38.4992 34.1775 39.4596 31.6998 39.4596C29.2248 39.4596 26.9768 38.4992 25.3163 36.9324C23.8882 35.5842 22.8882 33.7883 22.5462 31.7687H40.851C40.509 33.7883 39.5115 35.5842 38.0834 36.9324ZM19.695 42.7363C22.7706 45.7971 27.0157 47.6892 31.6997 47.6892C36.3862 47.6892 40.6285 45.7971 43.7044 42.7363C46.5607 39.8942 48.4066 36.0475 48.6624 31.7686H58.9828C59.0847 31.7686 59.176 31.8103 59.2439 31.8779C59.3118 31.9456 59.3536 32.0367 59.3536 32.1382V34.694C59.3536 35.0219 59.27 35.3082 59.1343 35.5034C59.0716 35.5919 59.0194 35.6465 58.9933 35.6465H54.8707C54.3851 35.6465 53.9778 35.9927 53.889 36.4508C53.6201 37.4996 53.2781 38.5199 52.8682 39.5063C52.8604 39.5219 52.8552 39.5401 52.8499 39.5557C52.4296 40.5629 51.9413 41.5259 51.3957 42.4421C51.1581 42.8403 51.2338 43.3374 51.5471 43.6497L51.5445 43.6523L54.4608 46.5595C54.4791 46.5777 54.4765 46.6558 54.4582 46.7625C54.4164 46.9968 54.2728 47.257 54.0405 47.4886L48.4742 53.0375C48.2418 53.2692 47.9807 53.4123 47.7458 53.4539C47.6387 53.4722 47.5604 53.4748 47.5421 53.4565L44.6258 50.5493C44.2707 50.1954 43.7146 50.1642 43.3256 50.453C42.4248 50.9814 41.4693 51.4577 40.4668 51.8715C39.4642 52.2853 38.4251 52.6315 37.352 52.9022C36.8742 53.0219 36.5635 53.467 36.5975 53.938V57.9774H36.5922C36.5922 58.006 36.5374 58.0581 36.4486 58.1179C36.2528 58.2533 35.9682 58.3366 35.6367 58.3366H27.7652C27.4363 58.3366 27.1491 58.2533 26.9533 58.1179C26.8645 58.0555 26.8097 58.0034 26.8097 57.9774H26.8045V53.8678C26.8045 53.4019 26.4833 53.0114 26.0499 52.9048V52.9022C24.9716 52.6289 23.9325 52.2853 22.9326 51.8715C21.9065 51.4473 20.9248 50.9554 19.9902 50.401C19.5907 50.1642 19.092 50.2396 18.7787 50.552L18.7761 50.5494L15.8598 53.4566C15.8415 53.4748 15.7632 53.4722 15.6561 53.454C15.4212 53.4123 15.1601 53.2718 14.9277 53.0375L9.36143 47.4886C9.12907 47.257 8.98547 46.9967 8.9437 46.7625C8.92542 46.6558 8.92281 46.5777 8.94109 46.5595L11.8574 43.6523C12.2125 43.2984 12.2438 42.744 11.954 42.3562C11.4188 41.453 10.9436 40.5005 10.5311 39.5089C10.116 38.5121 9.77137 37.4736 9.4972 36.4013C9.38493 35.9484 8.97503 35.6465 8.52859 35.6465V35.6439L4.40604 35.6465C4.37732 35.6465 4.32511 35.5919 4.26505 35.5034C4.12929 35.3082 4.04574 35.0245 4.04574 34.694V32.1356C4.04574 32.0341 4.08752 31.943 4.1554 31.8753C4.22328 31.8076 4.31466 31.766 4.41648 31.766H14.7369C14.9927 36.0448 16.8387 39.894 19.695 42.7363Z" fill="#1A237E"/>
</svg>
