<svg width="62" height="61" viewBox="0 0 62 61" fill="none" xmlns="http://www.w3.org/2000/svg">
<path fill-rule="evenodd" clip-rule="evenodd" d="M16.0311 30.8525C16.0598 34.9413 17.736 38.642 20.433 41.3258C23.1457 44.0248 26.8922 45.6957 31.0328 45.6957C35.171 45.6957 38.9203 44.0274 41.6326 41.3258C44.3478 38.6242 46.0292 34.8946 46.037 30.7718C46.037 30.2227 46.4835 29.7776 47.0344 29.7776V29.7724H53.5928C53.3213 29.4861 53.0002 29.2154 52.6373 28.963C52.2822 28.95 51.9741 28.7496 51.807 28.4581C51.7104 28.4086 51.6138 28.3592 51.5172 28.3097C49.9768 27.5576 48.003 27.1099 45.8386 27.1099C44.1703 27.1099 42.6168 27.3754 41.2879 27.8413C41.1887 27.9402 41.066 28.0183 40.925 28.0677C40.8049 28.1119 40.6796 28.1302 40.5569 28.125C40.4211 28.1848 40.2879 28.2447 40.1574 28.3072C39.3141 28.7184 38.6066 29.2155 38.0817 29.7698H41.3035C41.8544 29.7698 42.3035 30.2149 42.3035 30.7667C42.3035 30.8109 42.3009 30.8552 42.2957 30.8994C42.1155 33.8352 40.8022 36.4665 38.7893 38.3691C36.7659 40.2795 34.0375 41.4507 31.0401 41.4507C28.0427 41.4507 25.3145 40.2795 23.291 38.3691C21.2571 36.451 19.9386 33.7858 19.7794 30.8161C19.7507 30.267 20.1736 29.8011 20.7245 29.7725C20.7402 29.7725 20.7585 29.7699 20.7741 29.7699V29.7673H23.9959C23.4711 29.2129 22.7636 28.7184 21.9203 28.3046C21.7897 28.2421 21.6566 28.1796 21.5208 28.1224C21.4007 28.125 21.2754 28.1068 21.1527 28.0651C21.0117 28.0157 20.889 27.935 20.7898 27.8387C19.4608 27.3728 17.9048 27.1073 16.2391 27.1073C14.072 27.1073 12.0983 27.5576 10.5605 28.3071C10.3594 28.406 10.1662 28.5075 9.98085 28.6143C9.93124 28.6507 9.87903 28.6819 9.82419 28.708C9.29941 29.0281 8.84776 29.3846 8.48483 29.7672H15.0433C15.5942 29.7672 16.0432 30.2123 16.0432 30.764C16.0328 30.7979 16.0328 30.8265 16.0302 30.8525L16.0311 30.8525ZM39.163 26.5867C37.5547 27.3935 36.3172 28.4945 35.641 29.775H26.4247C25.7459 28.4945 24.5084 27.3936 22.9027 26.5867C23.4405 25.8527 24.2891 25.1995 25.3543 24.6789C26.8947 23.9268 28.8685 23.4791 31.0329 23.4791C33.1999 23.4791 35.1737 23.9294 36.7115 24.6789C37.7794 25.1969 38.6251 25.8527 39.163 26.5867ZM21.0179 25.8293C21.7411 24.6504 22.9473 23.6405 24.4773 22.8962C26.0385 22.1336 27.9523 21.6365 30.0331 21.5142V18.2556C22.9577 18.1333 22.7358 16.5457 21.6838 9.06024L21.6551 8.85202C21.5794 8.30806 21.9605 7.80576 22.5062 7.73027C22.6054 7.71725 22.7046 7.71725 22.7986 7.73287C23.0231 7.7641 23.4148 7.81355 23.8142 7.863C24.5818 7.9593 25.3676 8.0556 26.1379 8.19875C26.2867 5.74962 27.9472 3.62584 29.4928 1.64524C29.6886 1.39278 29.8818 1.14813 30.1873 0.744691C30.2447 0.666609 30.3152 0.593737 30.3962 0.533872C30.8374 0.203335 31.464 0.289219 31.7956 0.729073C32.0645 1.08564 32.2525 1.32508 32.4431 1.56972C33.9652 3.52434 35.6779 5.72621 35.8555 8.20132C36.631 8.05557 37.4247 7.95667 38.2 7.86037C38.5943 7.81092 38.9885 7.76147 39.2026 7.73284C39.2966 7.71722 39.3958 7.71722 39.495 7.73023C40.0407 7.80571 40.4219 8.30803 40.3461 8.85199L40.2939 9.22417C39.2966 16.3401 39.0459 18.1124 32.0308 18.2557V21.5142C34.1116 21.6365 36.0228 22.1336 37.5866 22.8962C39.1166 23.6432 40.3228 24.653 41.046 25.8294C42.4872 25.3765 44.1138 25.1189 45.8317 25.1189C47.9831 25.1189 49.9935 25.5197 51.6722 26.2094V23.742C44.5968 23.6197 44.3749 22.0321 43.3229 14.5466L43.2941 14.3384C43.2184 13.7945 43.5996 13.2922 44.1453 13.2167C44.2445 13.2037 44.3437 13.2037 44.4377 13.2193C44.6596 13.2505 45.0538 13.3 45.4559 13.3494C46.2234 13.4457 47.0093 13.542 47.7795 13.6852C47.9284 11.236 49.5888 9.11225 51.1345 7.13165C51.3303 6.87919 51.5261 6.63194 51.829 6.2311C51.8864 6.15302 51.9569 6.08015 52.0378 6.02029C52.4791 5.68975 53.1057 5.77563 53.4373 6.21549C53.7062 6.57205 53.8942 6.8115 54.0848 7.05614C55.6069 9.01075 57.3196 11.2126 57.4972 13.6877C58.2726 13.542 59.0663 13.4431 59.8417 13.3468C60.2359 13.2973 60.6276 13.2505 60.8443 13.2192C60.9383 13.2036 61.0375 13.2036 61.1393 13.2166C61.685 13.2921 62.0661 13.7944 61.9904 14.3384L61.9382 14.7106C60.9408 21.8265 60.6902 23.5988 53.6751 23.7421V27.2713C54.7142 27.9766 55.5235 28.8277 56.0274 29.7751H58.3197C58.9724 29.7751 59.5651 30.0405 59.9959 30.4674C60.4241 30.8942 60.6904 31.485 60.6904 32.1383V34.6941C60.6904 35.4385 60.4685 36.1282 60.1108 36.6409C59.68 37.2578 59.0508 37.6404 58.3276 37.6404H54.9674C54.709 38.5383 54.4009 39.4154 54.0458 40.2691C54.038 40.2847 54.0301 40.3029 54.0223 40.3185C53.6699 41.1592 53.2704 41.9816 52.8265 42.778L55.205 45.1491C55.7167 45.6592 55.889 46.3723 55.7585 47.1115C55.6488 47.7257 55.3147 48.3685 54.7873 48.8969L49.221 54.4458C48.691 54.9741 48.0461 55.3047 47.4299 55.414C46.6884 55.5467 45.9731 55.3723 45.4614 54.8648L43.0829 52.4938C42.2604 52.9466 41.4198 53.3527 40.5634 53.7066C39.7044 54.0606 38.8246 54.3677 37.9239 54.6279V57.975H37.9265C37.9265 58.6959 37.5427 59.3231 36.9239 59.7526C36.4096 60.1092 35.7177 60.3304 34.971 60.3304L27.0995 60.333C26.3528 60.333 25.661 60.1118 25.1466 59.7552C24.5278 59.3258 24.144 58.6985 24.144 57.9776H24.1492V54.6306C23.2511 54.3729 22.3712 54.0658 21.5123 53.7092C20.6507 53.3526 19.8074 52.9467 18.9902 52.4964L16.6118 54.8674C16.1 55.3775 15.3847 55.5493 14.6432 55.4166C14.027 55.3073 13.3822 54.9741 12.8521 54.4484L7.28583 48.8995C6.75582 48.3712 6.42422 47.7283 6.31461 47.1141C6.18145 46.3749 6.35638 45.6618 6.8655 45.1517L9.24398 42.7806C8.78969 41.966 8.38238 41.1253 8.02734 40.2665C7.67226 39.4102 7.36418 38.5357 7.10571 37.6404H3.7403C3.01712 37.6404 2.38791 37.2578 1.95707 36.6384C1.59938 36.1256 1.37746 35.4359 1.37746 34.6915V32.1331C1.37746 31.4825 1.64377 30.8916 2.07197 30.4622C2.50015 30.0354 3.09278 29.7699 3.74813 29.7699H6.04046C6.54174 28.8225 7.34847 27.9741 8.38499 27.2687V23.5834C1.31223 23.4663 1.08765 21.8812 0.0383029 14.3933L0.00958341 14.1851C-0.0661303 13.6411 0.315052 13.1388 0.860695 13.0633C0.959908 13.0503 1.05912 13.0503 1.15572 13.0659C1.37764 13.0972 1.77189 13.1466 2.17132 13.1961C2.93888 13.2924 3.72476 13.3887 4.495 13.5318C4.64382 11.0827 6.3043 8.95892 7.84992 6.97832C8.04573 6.72586 8.23893 6.47861 8.54182 6.08037C8.59926 6.00229 8.66975 5.92941 8.75069 5.86695C9.19192 5.53641 9.81595 5.6223 10.1501 6.06215C10.4191 6.41872 10.607 6.65816 10.7976 6.9028C12.3197 8.85741 14.0324 11.0593 14.21 13.5344C14.9855 13.3886 15.7792 13.2897 16.5546 13.1934C16.9514 13.144 17.343 13.0945 17.5571 13.0659C17.6511 13.0503 17.7503 13.0503 17.8495 13.0633C18.3952 13.1388 18.7764 13.6411 18.7006 14.1851L18.6484 14.5572C17.6511 21.6732 17.4004 23.4455 10.3853 23.5887V26.2148C12.0667 25.5251 14.0796 25.1217 16.2336 25.1217C17.9515 25.1191 19.5781 25.3742 21.0193 25.8296L21.0179 25.8293ZM55.5148 14.2107C55.5514 12.2457 54.0318 10.2312 52.6403 8.44053C51.2147 10.265 49.7083 12.2248 49.7761 14.2028C50.9328 14.6219 51.9536 15.2595 52.6715 16.3031C53.3765 15.2647 54.3791 14.6271 55.5148 14.2107ZM53.6742 21.7457C58.6609 21.6051 59.1256 20.283 59.8305 15.3588C57.0943 15.6997 54.1519 16.1578 53.6742 19.2315V21.7457ZM51.6743 21.7457V19.2289C51.1965 16.1552 48.2044 15.6997 45.4552 15.3562C46.1889 20.4444 46.6719 21.6234 51.6743 21.7457ZM33.8734 8.7245C33.9099 6.75949 32.3904 4.74498 30.9988 2.95434C29.5733 4.77883 28.0669 6.74123 28.1347 8.71663C29.2913 9.13567 30.3121 9.77329 31.0301 10.817C31.735 9.77849 32.7377 9.14092 33.8734 8.7245ZM32.0327 16.2568C37.0194 16.1163 37.4841 14.7941 38.1891 9.86991C35.4529 10.2109 32.5105 10.6689 32.0327 13.7427V16.2568ZM30.0328 16.2594V13.7427C29.555 10.6689 26.563 10.2134 23.8138 9.86991C24.5474 14.9581 25.0304 16.1371 30.0328 16.2594ZM12.2266 14.0576C12.2631 12.0926 10.7436 10.0781 9.35204 8.28742C7.92652 10.1119 6.42007 12.0717 6.48791 14.0497C7.64454 14.4687 8.66535 15.1064 9.38332 16.15C10.0883 15.1116 11.0883 14.474 12.2266 14.0576ZM10.3859 21.5899C15.3726 21.4494 15.8374 20.1272 16.5423 15.203C13.8061 15.5439 10.8637 15.9994 10.3859 19.0758V21.5899ZM8.38343 21.5925V19.0758C7.90564 16.002 4.91362 15.5465 2.16438 15.203C2.90067 20.2912 3.38103 21.4702 8.38343 21.5925ZM37.4164 36.9324C35.7559 38.4992 33.5105 39.4596 31.0328 39.4596C28.5578 39.4596 26.3098 38.4992 24.6493 36.9324C23.2212 35.5842 22.2212 33.7883 21.8792 31.7687H40.1841C39.842 33.7883 38.8445 35.5842 37.4164 36.9324ZM19.028 42.7363C22.1036 45.7971 26.3487 47.6892 31.0327 47.6892C35.7192 47.6892 39.9616 45.7971 43.0374 42.7363C45.8937 39.8942 47.7396 36.0475 47.9954 31.7686H58.3158C58.4177 31.7686 58.509 31.8103 58.5769 31.8779C58.6448 31.9456 58.6866 32.0367 58.6866 32.1382V34.694C58.6866 35.0219 58.603 35.3082 58.4673 35.5034C58.4046 35.5919 58.3524 35.6465 58.3263 35.6465H54.2037C53.7181 35.6465 53.3109 35.9927 53.222 36.4508C52.9531 37.4996 52.6111 38.5199 52.2012 39.5063C52.1934 39.5219 52.1882 39.5401 52.1829 39.5557C51.7626 40.5629 51.2743 41.5259 50.7287 42.4421C50.4911 42.8403 50.5668 43.3374 50.8801 43.6497L50.8775 43.6523L53.7938 46.5595C53.8121 46.5777 53.8095 46.6558 53.7912 46.7625C53.7494 46.9968 53.6059 47.257 53.3735 47.4886L47.8072 53.0375C47.5748 53.2692 47.3137 53.4123 47.0788 53.4539C46.9717 53.4722 46.8934 53.4748 46.8751 53.4565L43.9588 50.5493C43.6037 50.1954 43.0476 50.1642 42.6586 50.453C41.7578 50.9814 40.8023 51.4577 39.7998 51.8715C38.7972 52.2853 37.7581 52.6315 36.685 52.9022C36.2072 53.0219 35.8965 53.467 35.9305 53.938V57.9774H35.9252C35.9252 58.006 35.8704 58.0581 35.7816 58.1179C35.5858 58.2533 35.3013 58.3366 34.9697 58.3366H27.0982C26.7693 58.3366 26.4821 58.2533 26.2863 58.1179C26.1975 58.0555 26.1427 58.0034 26.1427 57.9774H26.1375V53.8678C26.1375 53.4019 25.8163 53.0114 25.3829 52.9048V52.9022C24.3046 52.6289 23.2655 52.2853 22.2656 51.8715C21.2395 51.4473 20.2578 50.9554 19.3232 50.401C18.9237 50.1642 18.425 50.2396 18.1117 50.552L18.1091 50.5494L15.1928 53.4566C15.1745 53.4748 15.0962 53.4722 14.9891 53.454C14.7542 53.4123 14.4931 53.2718 14.2608 53.0375L8.69444 47.4886C8.46208 47.257 8.31848 46.9967 8.27671 46.7625C8.25843 46.6558 8.25582 46.5777 8.2741 46.5595L11.1904 43.6523C11.5455 43.2984 11.5768 42.744 11.287 42.3562C10.7518 41.453 10.2766 40.5005 9.86412 39.5089C9.449 38.5121 9.10437 37.4736 8.83021 36.4013C8.71794 35.9484 8.30804 35.6465 7.8616 35.6465V35.6439L3.73905 35.6465C3.71033 35.6465 3.65811 35.5919 3.59806 35.5034C3.4623 35.3082 3.37875 35.0245 3.37875 34.694V32.1356C3.37875 32.0341 3.42053 31.943 3.48841 31.8753C3.55629 31.8076 3.64767 31.766 3.74949 31.766H14.0699C14.3258 36.0448 16.1717 39.894 19.028 42.7363Z" fill="#D5D9DC"/>
</svg>
