<svg width="59" height="61" viewBox="0 0 59 61" fill="none" xmlns="http://www.w3.org/2000/svg">
<path d="M29.0714 53.7879C28.8843 53.4679 28.4951 53.3254 28.1458 53.4454C25.8556 54.2429 23.4555 54.6504 21.008 54.6504C18.5606 54.6504 16.1581 54.2454 13.8702 53.4454C13.5209 53.3229 13.1318 53.4654 12.9446 53.7879L9.79865 59.158C9.65644 59.398 9.65644 59.698 9.79366 59.9405C9.92838 60.183 10.1878 60.333 10.4648 60.333H31.5436C31.823 60.333 32.0799 60.183 32.2172 59.9405C32.3544 59.698 32.3544 59.4005 32.2122 59.158L29.0714 53.7879ZM11.8247 58.7755L13.9652 55.123C16.2355 55.8455 18.6006 56.2105 21.0079 56.2105C23.4154 56.2105 25.7805 55.8455 28.0505 55.123L30.1911 58.7755H11.8247ZM40.899 32.1223H35.4827L37.2216 26.6972C38.6936 26.2297 39.9684 25.1547 40.6295 23.6272C41.2183 22.2697 41.2433 20.7646 40.7019 19.3896C40.1605 18.0146 39.1177 16.9321 37.763 16.3421C34.9688 15.1271 31.708 16.4146 30.4929 19.2171C29.8318 20.7446 29.9141 22.4122 30.5803 23.8097L25.9573 32.1221L1.11167 32.1246C0.682555 32.1246 0.333252 32.4721 0.333252 32.9047C0.333252 44.3276 9.60679 53.6173 21.0026 53.6173C32.4017 53.6173 41.672 44.3244 41.672 32.9047C41.6745 32.4697 41.3281 32.1223 40.899 32.1223ZM31.9199 19.8374C32.5685 18.3399 34.033 17.4423 35.5673 17.4423C36.0937 17.4423 36.6301 17.5473 37.144 17.7723C38.117 18.1948 38.8679 18.9723 39.2572 19.9624C39.6463 20.9499 39.6289 22.0324 39.2048 23.0074C38.3316 25.0199 35.9889 25.9449 33.9806 25.0725C31.9723 24.1974 31.0467 21.8499 31.9199 19.8374ZM31.5631 25.2449C32.0571 25.7674 32.6634 26.1975 33.3619 26.5024C34.0604 26.8074 34.7889 26.9524 35.5074 26.9599L33.8508 32.125H27.741L31.5631 25.2449ZM21.0052 52.0581C10.7264 52.0581 2.31634 43.8852 1.90503 33.6828L26.4116 33.6803H26.4141H26.4166H34.4147H34.4172H34.4197H40.1053C39.6962 43.8827 31.284 52.0581 21.0052 52.0581ZM13.4337 30.5602C13.4387 30.5627 13.4462 30.5627 13.4512 30.5652C13.4587 30.5677 13.4637 30.5702 13.4712 30.5727C14.4941 30.8352 15.5319 30.9602 16.5622 30.9602C19.9003 30.9602 23.1635 29.6252 25.5483 27.1852C28.6693 23.9876 29.8619 19.3227 28.6619 15.0103C28.587 14.7428 28.375 14.5328 28.1055 14.4653C25.2764 13.7403 22.32 14.0453 19.7402 15.2353C19.6653 14.6203 19.5606 14.0077 19.4233 13.4027C18.0188 7.23518 13.3984 2.24036 7.36072 0.367692C7.09377 0.285188 6.80438 0.352691 6.6023 0.540193C1.97191 4.85027 -0.0341623 11.3602 1.37066 17.5279C2.77274 23.693 7.39609 28.6882 13.4337 30.5602ZM27.2776 15.8701C28.1308 19.5226 27.0631 23.403 24.436 26.0955C22.031 28.5581 18.6056 29.7331 15.2353 29.3206L19.1322 25.328C19.4316 25.0205 19.4266 24.528 19.1198 24.2255C18.8129 23.923 18.3214 23.9305 18.0195 24.238L14.1226 28.2305C13.6361 24.863 14.7338 21.4055 17.1388 18.9427C19.7684 16.2502 23.6155 15.0951 27.2776 15.8701ZM7.33184 1.99726C12.6284 3.80477 16.6597 8.26985 17.9076 13.7497C18.0798 14.5048 18.197 15.2747 18.2619 16.0422C17.4586 16.5523 16.7101 17.1573 16.0315 17.8523C14.5521 19.3673 13.5093 21.2098 12.9455 23.1898L11.7205 17.7897C11.6257 17.3697 11.209 17.1072 10.7899 17.2022C10.3708 17.2972 10.1089 17.7147 10.2037 18.1347L12.5788 28.5976C7.72132 26.6125 4.06906 22.35 2.89135 17.1798C1.64147 11.7022 3.34264 5.92755 7.33184 1.99726ZM20.5843 22.7278C20.2775 22.4278 20.2725 21.9328 20.5718 21.6252L21.243 20.9377C21.5423 20.6302 22.0363 20.6252 22.3432 20.9252C22.6501 21.2252 22.6551 21.7203 22.3557 22.0278L21.6846 22.7153C21.5324 22.8703 21.3303 22.9503 21.1282 22.9503C20.9311 22.9503 20.7365 22.8753 20.5843 22.7278ZM9.01092 12.9004C8.91611 12.4804 9.17807 12.0629 9.5972 11.9679C10.0163 11.8729 10.433 12.1355 10.5277 12.5555L10.887 14.138C10.9818 14.558 10.7198 14.9755 10.3007 15.0705C10.2433 15.083 10.1835 15.0905 10.1286 15.0905C9.77431 15.0905 9.45248 14.8455 9.37015 14.483L9.01092 12.9004ZM56.1029 11.3279C57.4975 10.1329 58.3308 8.36541 58.3333 6.49287C58.3333 6.21537 58.1861 5.95536 57.9441 5.81785C56.3249 4.88286 54.3815 4.72286 52.65 5.33534C52.3132 3.52783 51.203 1.92032 49.5839 0.982771C49.3419 0.84277 49.045 0.84277 48.8055 0.982771C47.1863 1.92026 46.0762 3.52783 45.7393 5.33534C44.0079 4.72283 42.0645 4.88284 40.4453 5.81785C40.2033 5.95785 40.0561 6.21535 40.0561 6.49287C40.0586 8.3679 40.8919 10.1329 42.2865 11.3279C40.8919 12.523 40.0586 14.2905 40.0561 16.163C40.0561 16.4405 40.2033 16.7005 40.4453 16.838C41.4258 17.403 42.5235 17.6855 43.6212 17.6855C44.3397 17.6855 45.0558 17.563 45.7393 17.3205C46.0761 19.128 47.1863 20.7356 48.8055 21.6731C48.9252 21.7431 49.0599 21.7781 49.1947 21.7781C49.3294 21.7781 49.4641 21.7431 49.5839 21.6731C51.203 20.7356 52.3132 19.128 52.65 17.3205C53.3336 17.563 54.0521 17.6855 54.7681 17.6855C55.8659 17.6855 56.9635 17.403 57.944 16.838C58.186 16.698 58.3332 16.4405 58.3332 16.163C58.3307 14.2905 57.4975 12.5255 56.1029 11.3279ZM56.754 6.9554C56.6168 8.35043 55.8733 9.62545 54.7257 10.4305C53.2887 9.74046 51.6471 9.62545 50.1377 10.083C50.4646 8.87046 51.2604 7.81041 52.3681 7.1704C53.7128 6.39036 55.3544 6.32041 56.754 6.9554ZM49.1947 2.58037C50.3323 3.39785 51.0608 4.68036 51.183 6.07789C49.8683 6.98043 48.9477 8.34793 48.5884 9.88543C47.7053 8.99543 47.1864 7.77538 47.1864 6.49287C47.1839 4.93784 47.9448 3.47792 49.1947 2.58037ZM41.6328 6.9554C42.9076 6.3779 44.3821 6.3854 45.6495 6.9779C45.7717 8.57044 46.4927 10.053 47.6428 11.133C46.4304 11.4555 45.1181 11.2955 44.0079 10.653C42.6656 9.87548 41.785 8.4879 41.6328 6.9554ZM41.6328 15.703C41.77 14.308 42.5134 13.033 43.6611 12.228C44.5268 12.643 45.4648 12.853 46.4054 12.853C47.0266 12.853 47.6478 12.758 48.249 12.578C47.9222 13.7905 47.1264 14.8505 46.0187 15.4905C44.6739 16.268 43.0324 16.338 41.6328 15.703ZM49.1947 20.0756C48.0571 19.2581 47.3285 17.9756 47.2063 16.5781C48.5211 15.6755 49.4416 14.308 49.8009 12.7705C50.6841 13.6605 51.203 14.8806 51.203 16.1631C51.203 17.7206 50.4421 19.1805 49.1947 20.0756ZM52.7373 15.6805C52.6151 14.088 51.8941 12.6055 50.744 11.5254C51.9564 11.2029 53.2687 11.3629 54.3789 12.0055C55.7211 12.7829 56.6043 14.1705 56.754 15.703C55.4791 16.2805 54.0047 16.273 52.7373 15.6805ZM55.8134 26.9229C55.8134 26.6454 55.6662 26.3854 55.4242 26.2479C54.3115 25.6054 52.9893 25.4604 51.7818 25.8129C51.4799 24.5903 50.6966 23.5154 49.5839 22.8703C49.3419 22.7303 49.045 22.7303 48.8055 22.8703C47.6928 23.5153 46.9069 24.5903 46.6075 25.8129C45.4001 25.4629 44.0803 25.6054 42.9651 26.2479C42.7231 26.3879 42.5759 26.6454 42.5759 26.9229C42.5784 28.2104 43.1123 29.4305 44.0204 30.3029C43.1148 31.1754 42.5784 32.3929 42.5759 33.6804C42.5759 33.9579 42.7231 34.2179 42.9651 34.3554C43.6861 34.7705 44.4944 34.9805 45.3002 34.9805C45.7418 34.9805 46.1809 34.9155 46.6075 34.793C46.9094 36.0155 47.6928 37.0905 48.8055 37.7355C48.9252 37.8055 49.0599 37.8405 49.1947 37.8405C49.3294 37.8405 49.4641 37.8055 49.5839 37.7355C50.6966 37.0905 51.4824 36.0155 51.7818 34.793C52.2084 34.918 52.6475 34.9805 53.0891 34.9805C53.8974 34.9805 54.7032 34.773 55.4242 34.3554C55.6662 34.2155 55.8134 33.958 55.8134 33.6804C55.8109 32.3929 55.277 31.1729 54.3689 30.3029C55.2746 29.4279 55.8109 28.2104 55.8134 26.9229ZM54.2217 27.3929C54.0995 28.1904 53.6704 28.9129 53.0317 29.4029C52.1436 29.0104 51.1581 28.9054 50.215 29.0954C50.4745 28.4754 50.931 27.9429 51.5298 27.5979C52.3531 27.1204 53.3486 27.0529 54.2217 27.3929ZM49.1947 24.4854C49.8209 24.9904 50.2325 25.7229 50.3373 26.5229C49.5539 27.0979 48.9702 27.9004 48.6633 28.8129C48.2566 28.2779 48.0271 27.6154 48.0271 26.9229C48.0246 25.9704 48.4637 25.0729 49.1947 24.4854ZM46.4977 27.4204C46.6025 28.3879 47.0042 29.2954 47.6404 30.0179C46.9742 30.1029 46.2857 29.9729 45.6894 29.6254C44.8661 29.1504 44.3098 28.3204 44.1676 27.3929C44.9161 27.1004 45.7543 27.1104 46.4977 27.4204ZM44.1651 33.2105C44.2874 32.4129 44.7165 31.6904 45.3552 31.2005C45.9564 31.4655 46.6001 31.6005 47.2462 31.6005C47.5556 31.6005 47.8674 31.568 48.1718 31.508C47.9123 32.128 47.4557 32.6605 46.857 33.0055C46.0337 33.483 45.0382 33.5505 44.1651 33.2105ZM49.1947 36.118C48.5685 35.613 48.1568 34.8805 48.052 34.0805C48.8354 33.5055 49.4192 32.703 49.726 31.7905C50.1327 32.3255 50.3622 32.988 50.3622 33.6805C50.3622 34.633 49.9231 35.5305 49.1947 36.118ZM51.8891 33.183C51.7843 32.2155 51.3827 31.308 50.7464 30.5855C51.4126 30.5005 52.1011 30.6305 52.6974 30.978C53.5207 31.453 54.0771 32.283 54.2192 33.2105C53.4708 33.5005 52.6325 33.4905 51.8891 33.183Z" fill="#1A237E"/>
</svg>
