<svg width="58" height="61" viewBox="0 0 58 61" fill="none" xmlns="http://www.w3.org/2000/svg">
<path d="M28.7381 53.7879C28.551 53.4679 28.1618 53.3254 27.8126 53.4454C25.5224 54.2429 23.1223 54.6504 20.6748 54.6504C18.2274 54.6504 15.8248 54.2454 13.5369 53.4454C13.1877 53.3229 12.7985 53.4654 12.6114 53.7879L9.4654 59.158C9.32319 59.398 9.32319 59.698 9.46041 59.9405C9.59513 60.183 9.85459 60.333 10.1315 60.333H31.2103C31.4897 60.333 31.7467 60.183 31.8839 59.9405C32.0211 59.698 32.0211 59.4005 31.8789 59.158L28.7381 53.7879ZM11.4914 58.7755L13.632 55.123C15.9023 55.8455 18.2673 56.2105 20.6746 56.2105C23.0821 56.2105 25.4472 55.8455 27.7173 55.123L29.8579 58.7755H11.4914ZM40.5657 32.1223H35.1495L36.8884 26.6972C38.3603 26.2297 39.6352 25.1547 40.2963 23.6272C40.8851 22.2697 40.91 20.7646 40.3686 19.3896C39.8273 18.0146 38.7844 16.9321 37.4297 16.3421C34.6355 15.1271 31.3748 16.4146 30.1597 19.2171C29.4985 20.7446 29.5809 22.4122 30.247 23.8097L25.6241 32.1221L0.778415 32.1246C0.349303 32.1246 0 32.4721 0 32.9047C0 44.3276 9.27354 53.6173 20.6694 53.6173C32.0684 53.6173 41.3388 44.3244 41.3388 32.9047C41.3413 32.4697 40.9948 32.1223 40.5657 32.1223ZM31.5866 19.8374C32.2353 18.3399 33.6997 17.4423 35.234 17.4423C35.7604 17.4423 36.2968 17.5473 36.8108 17.7723C37.7837 18.1948 38.5347 18.9723 38.9239 19.9624C39.3131 20.9499 39.2956 22.0324 38.8715 23.0074C37.9983 25.0199 35.6557 25.9449 33.6474 25.0725C31.639 24.1974 30.7134 21.8499 31.5866 19.8374ZM31.2299 25.2449C31.7238 25.7674 32.3301 26.1975 33.0286 26.5024C33.7271 26.8074 34.4557 26.9524 35.1742 26.9599L33.5176 32.125H27.4078L31.2299 25.2449ZM20.672 52.0581C10.3931 52.0581 1.98309 43.8852 1.57178 33.6828L26.0783 33.6803H26.0808H26.0833H34.0814H34.0839H34.0864H39.7721C39.3629 43.8827 30.9508 52.0581 20.672 52.0581ZM13.1005 30.5602C13.1055 30.5627 13.113 30.5627 13.1179 30.5652C13.1254 30.5677 13.1304 30.5702 13.1379 30.5727C14.1608 30.8352 15.1986 30.9602 16.229 30.9602C19.567 30.9602 22.8303 29.6252 25.2151 27.1852C28.3361 23.9876 29.5286 19.3227 28.3286 15.0103C28.2538 14.7428 28.0417 14.5328 27.7723 14.4653C24.9432 13.7403 21.9868 14.0453 19.4069 15.2353C19.3321 14.6203 19.2273 14.0077 19.0901 13.4027C17.6855 7.23518 13.0651 2.24036 7.02747 0.367692C6.76052 0.285188 6.47113 0.352691 6.26904 0.540193C1.63866 4.85027 -0.367414 11.3602 1.03741 17.5279C2.43949 23.693 7.06284 28.6882 13.1005 30.5602ZM26.9444 15.8701C27.7976 19.5226 26.7298 23.403 24.1028 26.0955C21.6978 28.5581 18.2724 29.7331 14.902 29.3206L18.799 25.328C19.0984 25.0205 19.0934 24.528 18.7865 24.2255C18.4796 23.923 17.9882 23.9305 17.6863 24.238L13.7893 28.2305C13.3028 24.863 14.4006 21.4055 16.8056 18.9427C19.4351 16.2502 23.2822 15.0951 26.9444 15.8701ZM6.99859 1.99726C12.2951 3.80477 16.3264 8.26985 17.5744 13.7497C17.7465 14.5048 17.8638 15.2747 17.9287 16.0422C17.1253 16.5523 16.3769 17.1573 15.6983 17.8523C14.2189 19.3673 13.176 21.2098 12.6122 23.1898L11.3872 17.7897C11.2924 17.3697 10.8758 17.1072 10.4567 17.2022C10.0376 17.2972 9.7756 17.7147 9.8704 18.1347L12.2455 28.5976C7.38807 26.6125 3.73581 22.35 2.5581 17.1798C1.30821 11.7022 3.00939 5.92755 6.99859 1.99726ZM20.2511 22.7278C19.9442 22.4278 19.9392 21.9328 20.2386 21.6252L20.9097 20.9377C21.2091 20.6302 21.7031 20.6252 22.01 20.9252C22.3168 21.2252 22.3218 21.7203 22.0224 22.0278L21.3513 22.7153C21.1991 22.8703 20.997 22.9503 20.795 22.9503C20.5979 22.9503 20.4033 22.8753 20.2511 22.7278ZM8.67766 12.9004C8.58286 12.4804 8.84482 12.0629 9.26395 11.9679C9.68308 11.8729 10.0997 12.1355 10.1945 12.5555L10.5537 14.138C10.6486 14.558 10.3866 14.9755 9.96747 15.0705C9.91008 15.083 9.85021 15.0905 9.79532 15.0905C9.44106 15.0905 9.11922 14.8455 9.0369 14.483L8.67766 12.9004ZM55.7696 11.3279C57.1642 10.1329 57.9975 8.36541 58 6.49287C58 6.21537 57.8528 5.95536 57.6108 5.81785C55.9916 4.88286 54.0482 4.72286 52.3168 5.33534C51.98 3.52783 50.8698 1.92032 49.2506 0.982771C49.0086 0.84277 48.7118 0.84277 48.4722 0.982771C46.8531 1.92026 45.7429 3.52783 45.4061 5.33534C43.6747 4.72283 41.7312 4.88284 40.112 5.81785C39.87 5.95785 39.7229 6.21535 39.7229 6.49287C39.7253 8.3679 40.5586 10.1329 41.9532 11.3279C40.5586 12.523 39.7253 14.2905 39.7229 16.163C39.7229 16.4405 39.87 16.7005 40.112 16.838C41.0925 17.403 42.1902 17.6855 43.288 17.6855C44.0065 17.6855 44.7225 17.563 45.4061 17.3205C45.7429 19.128 46.8531 20.7356 48.4722 21.6731C48.592 21.7431 48.7267 21.7781 48.8614 21.7781C48.9961 21.7781 49.1309 21.7431 49.2506 21.6731C50.8698 20.7356 51.9799 19.128 52.3167 17.3205C53.0003 17.563 53.7188 17.6855 54.4348 17.6855C55.5326 17.6855 56.6303 17.403 57.6108 16.838C57.8528 16.698 58 16.4405 58 16.163C57.9975 14.2905 57.1642 12.5255 55.7696 11.3279ZM56.4207 6.9554C56.2835 8.35043 55.5401 9.62545 54.3925 10.4305C52.9554 9.74046 51.3139 9.62545 49.8045 10.083C50.1313 8.87046 50.9271 7.81041 52.0349 7.1704C53.3796 6.39036 55.0212 6.32041 56.4207 6.9554ZM48.8614 2.58037C49.999 3.39785 50.7276 4.68036 50.8498 6.07789C49.535 6.98043 48.6144 8.34793 48.2552 9.88543C47.372 8.99543 46.8531 7.77538 46.8531 6.49287C46.8506 4.93784 47.6115 3.47792 48.8614 2.58037ZM41.2995 6.9554C42.5744 6.3779 44.0488 6.3854 45.3162 6.9779C45.4384 8.57044 46.1594 10.053 47.3096 11.133C46.0971 11.4555 44.7848 11.2955 43.6746 10.653C42.3324 9.87548 41.4517 8.4879 41.2995 6.9554ZM41.2995 15.703C41.4367 14.308 42.1802 13.033 43.3278 12.228C44.1935 12.643 45.1316 12.853 46.0721 12.853C46.6933 12.853 47.3145 12.758 47.9158 12.578C47.589 13.7905 46.7931 14.8505 45.6854 15.4905C44.3407 16.268 42.6991 16.338 41.2995 15.703ZM48.8614 20.0756C47.7238 19.2581 46.9953 17.9756 46.873 16.5781C48.1878 15.6755 49.1084 14.308 49.4676 12.7705C50.3508 13.6605 50.8697 14.8806 50.8697 16.1631C50.8697 17.7206 50.1088 19.1805 48.8614 20.0756ZM52.4041 15.6805C52.2818 14.088 51.5608 12.6055 50.4107 11.5254C51.6232 11.2029 52.9354 11.3629 54.0457 12.0055C55.3879 12.7829 56.271 14.1705 56.4207 15.703C55.1459 16.2805 53.6715 16.273 52.4041 15.6805ZM55.4802 26.9229C55.4802 26.6454 55.333 26.3854 55.091 26.2479C53.9783 25.6054 52.656 25.4604 51.4486 25.8129C51.1467 24.5903 50.3633 23.5154 49.2506 22.8703C49.0086 22.7303 48.7118 22.7303 48.4722 22.8703C47.3595 23.5153 46.5736 24.5903 46.2743 25.8129C45.0668 25.4629 43.7471 25.6054 42.6319 26.2479C42.3899 26.3879 42.2427 26.6454 42.2427 26.9229C42.2452 28.2104 42.7791 29.4305 43.6872 30.3029C42.7815 31.1754 42.2452 32.3929 42.2427 33.6804C42.2427 33.9579 42.3899 34.2179 42.6319 34.3554C43.3529 34.7705 44.1612 34.9805 44.967 34.9805C45.4086 34.9805 45.8476 34.9155 46.2743 34.793C46.5762 36.0155 47.3595 37.0905 48.4722 37.7355C48.592 37.8055 48.7267 37.8405 48.8614 37.8405C48.9961 37.8405 49.1309 37.8055 49.2506 37.7355C50.3633 37.0905 51.1492 36.0155 51.4485 34.793C51.8752 34.918 52.3143 34.9805 52.7558 34.9805C53.5641 34.9805 54.37 34.773 55.091 34.3554C55.333 34.2155 55.4801 33.958 55.4801 33.6804C55.4777 32.3929 54.9438 31.1729 54.0357 30.3029C54.9413 29.4279 55.4777 28.2104 55.4802 26.9229ZM53.8885 27.3929C53.7662 28.1904 53.3371 28.9129 52.6984 29.4029C51.8103 29.0104 50.8248 28.9054 49.8818 29.0954C50.1412 28.4754 50.5978 27.9429 51.1965 27.5979C52.0198 27.1204 53.0153 27.0529 53.8885 27.3929ZM48.8614 24.4854C49.4876 24.9904 49.8993 25.7229 50.0041 26.5229C49.2207 27.0979 48.6369 27.9004 48.33 28.8129C47.9234 28.2779 47.6939 27.6154 47.6939 26.9229C47.6914 25.9704 48.1304 25.0729 48.8614 24.4854ZM46.1645 27.4204C46.2693 28.3879 46.6709 29.2954 47.3071 30.0179C46.641 30.1029 45.9524 29.9729 45.3562 29.6254C44.5329 29.1504 43.9765 28.3204 43.8343 27.3929C44.5828 27.1004 45.4211 27.1104 46.1645 27.4204ZM43.8319 33.2105C43.9541 32.4129 44.3832 31.6904 45.0219 31.2005C45.6232 31.4655 46.2668 31.6005 46.9129 31.6005C47.2223 31.6005 47.5342 31.568 47.8385 31.508C47.579 32.128 47.1225 32.6605 46.5237 33.0055C45.7004 33.483 44.705 33.5505 43.8319 33.2105ZM48.8614 36.118C48.2352 35.613 47.8236 34.8805 47.7188 34.0805C48.5022 33.5055 49.0859 32.703 49.3928 31.7905C49.7994 32.3255 50.029 32.988 50.029 33.6805C50.029 34.633 49.5899 35.5305 48.8614 36.118ZM51.5558 33.183C51.4511 32.2155 51.0494 31.308 50.4132 30.5855C51.0793 30.5005 51.7679 30.6305 52.3642 30.978C53.1875 31.453 53.7438 32.283 53.886 33.2105C53.1375 33.5005 52.2993 33.4905 51.5558 33.183Z" fill="#D5D9DC"/>
</svg>
