<svg width="54" height="61" viewBox="0 0 54 61" fill="none" xmlns="http://www.w3.org/2000/svg">
<path fill-rule="evenodd" clip-rule="evenodd" d="M51.6088 57.4942C51.57 57.5469 51.4811 57.6414 51.3311 57.6637L45.6157 58.5195C45.3963 58.55 45.188 58.4028 45.1519 58.1888L41.861 39.2684C41.675 38.1875 40.7696 37.4233 39.6671 37.4233C38.5646 37.4233 37.662 38.1874 37.4732 39.2684L34.1823 58.1888C34.1434 58.4055 33.9379 58.5528 33.7185 58.5195L28.0003 57.6637C27.8504 57.6414 27.7643 57.547 27.7254 57.4942C27.681 57.433 27.6365 57.3385 27.656 57.2079L31.0468 36.7425C34.2433 35.5143 36.7344 31.6186 37.051 28.609H42.2832C42.6026 31.6183 45.0909 35.514 48.2874 36.7425L51.6782 57.2079C51.6977 57.3385 51.6505 57.433 51.6088 57.4942ZM23.7233 35.8173H29.3581L31.1882 24.7665C31.3688 23.6717 32.2963 22.877 33.3878 22.877H35.5845V21.2571C35.5845 20.0928 36.5287 19.1424 37.6923 19.1424H41.0138C41.1721 19.1424 41.3026 19.0118 41.3026 18.8562V14.766C41.3026 14.6271 41.2221 14.5187 41.0888 14.4881L33.5015 12.4513C33.3682 12.4124 33.2405 12.468 33.1738 12.5903C32.0519 14.6354 29.9856 15.8552 27.6473 15.8552C25.3089 15.8552 23.2428 14.6354 22.1208 12.5903C22.0542 12.468 21.9264 12.4124 21.7931 12.4513L14.2059 14.4881C14.0698 14.5187 13.992 14.6271 13.992 14.766V18.8562C13.992 19.0118 14.1253 19.1424 14.2808 19.1424H17.6023C18.7659 19.1424 19.7101 20.0927 19.7101 21.2571V29.3984H21.5514C21.6791 29.3984 21.8041 29.429 21.9179 29.4846C23.0705 29.9931 23.8175 31.1351 23.8175 32.4022C23.8175 33.1803 23.5315 33.9222 23.0399 34.4946C23.3676 34.8669 23.6011 35.3227 23.7233 35.8173ZM8.80472 35.3921H21.3295C21.7405 35.6394 21.9988 36.0868 21.9988 36.5731C21.9988 37.0677 21.7405 37.5068 21.3295 37.7541H5.58554C3.78314 37.7541 2.31958 36.2869 2.31958 34.4891C2.31958 32.683 3.78592 31.2186 5.58554 31.2186H21.3345C21.7455 31.4659 22.0038 31.9133 22.0038 32.3996C22.0038 32.8859 21.7455 33.3332 21.3345 33.5805H8.80401C8.30135 33.5805 7.89591 33.989 7.89591 34.4919C7.89591 34.9921 8.30416 35.3922 8.80401 35.3922L8.80472 35.3921ZM21.3324 46.1121H5.58625C3.78385 46.1121 2.3203 44.645 2.3203 42.8416C2.3203 41.0438 3.78663 39.5766 5.58625 39.5766H21.3352C21.7545 39.8239 21.9989 40.2546 21.9989 40.7576C21.9989 41.2578 21.7518 41.6912 21.3352 41.9386L8.80472 41.9358C8.30206 41.9358 7.89662 42.3359 7.89662 42.8389C7.89662 43.3474 8.30487 43.7502 8.80472 43.7502H21.3295C21.7405 43.9975 21.9988 44.4449 21.9988 44.9312C22.0016 45.4175 21.7434 45.8648 21.3324 46.1121ZM21.3324 54.4676H5.58625C3.78385 54.4676 2.3203 53.0005 2.3203 51.197C2.3203 49.3993 3.78663 47.9321 5.58625 47.9321H21.3352C21.7545 48.1794 21.9989 48.6046 21.9989 49.1131C21.9989 49.616 21.7518 50.0467 21.3352 50.2941H8.80472C8.30206 50.2941 7.89662 50.6942 7.89662 51.1971C7.89662 51.7 8.30487 52.1085 8.80472 52.1085H21.3295C21.7405 52.3558 21.9988 52.8032 21.9988 53.2895C22.0016 53.773 21.7434 54.2203 21.3324 54.4676ZM27.6448 9.41089L31.5939 11.695C31.5911 11.7033 31.5856 11.7116 31.5828 11.7172C30.783 13.1677 29.3139 14.0318 27.6504 14.0318C25.9841 14.0318 24.515 13.1677 23.7152 11.7172C23.7096 11.7005 23.7068 11.695 23.7013 11.6866L27.6448 9.41089ZM35.2178 28.6087H32.3934L31.4159 34.519C33.471 33.1936 34.9345 30.5149 35.2178 28.6087ZM45.9432 24.6963C46.1515 24.6963 46.3153 24.8436 46.3514 25.0603L46.6375 26.797H32.6965L32.9825 25.0603C33.0186 24.8436 33.1825 24.6963 33.3908 24.6963H45.9432ZM47.9205 34.5193L46.9402 28.609H44.1158C44.3991 30.5152 45.8626 33.1939 47.9205 34.5193ZM53.472 56.9125L48.1454 24.766C47.9622 23.6712 47.0401 22.8765 45.9459 22.8765H37.4031V21.2566C37.4031 21.0954 37.5364 20.9621 37.692 20.9621H41.0134C42.1771 20.9621 43.1213 20.0201 43.1213 18.8558V14.7656C43.1213 13.793 42.4936 12.9761 41.5605 12.7288L33.9733 10.692C33.7622 10.6392 33.5512 10.6142 33.3429 10.6225C33.2984 10.5836 33.2512 10.553 33.1985 10.5225L28.5551 7.83829L28.5579 6.59621C29.902 6.19607 30.8407 4.93734 30.8407 3.53407C30.8407 1.7668 29.4049 0.333008 27.6414 0.333008C26.2334 0.333008 24.9726 1.27497 24.5754 2.62547C24.431 3.10341 24.706 3.61189 25.1892 3.75082C25.6696 3.89809 26.175 3.62022 26.3194 3.14228C26.4916 2.55597 27.0359 2.15586 27.6442 2.15586C28.4051 2.15586 29.0244 2.77273 29.0244 3.53687C29.0244 4.13985 28.6189 4.68726 28.0385 4.85677C27.2581 5.09574 26.7333 5.79874 26.7333 6.60732V7.84108L22.0871 10.5253C22.0343 10.5558 21.9871 10.5864 21.9427 10.6253C21.7372 10.617 21.5289 10.642 21.3206 10.6948L13.7334 12.7316C12.8002 12.9789 12.1726 13.7958 12.1726 14.7684V18.8558C12.1726 20.0201 13.1168 20.9621 14.2804 20.9621H17.6019C17.7602 20.9621 17.8907 21.0927 17.8907 21.2566V29.398L5.58492 29.3952C2.78001 29.3952 0.5 31.6793 0.5 34.4886C0.5 36.217 1.3665 37.7452 2.68837 38.6622C1.36643 39.5792 0.5 41.1075 0.5 42.8358C0.5 44.5725 1.3665 46.1008 2.68837 47.0178C1.36643 47.9348 0.5 49.463 0.5 51.1914C0.5 54.0006 2.78001 56.2848 5.58492 56.2848H21.5507C21.6785 56.2848 21.8034 56.2542 21.9173 56.1986C23.0698 55.6901 23.8169 54.5481 23.8169 53.281C23.8169 52.5029 23.5336 51.7694 23.0421 51.1969C23.5336 50.6329 23.8113 49.8993 23.8113 49.1046C23.8113 48.3099 23.5308 47.5679 23.0393 47.0067C23.5281 46.4426 23.8141 45.7035 23.8141 44.9226C23.8141 44.1446 23.5308 43.411 23.0393 42.8386C23.5309 42.2745 23.8085 41.541 23.8085 40.7462C23.8085 39.9515 23.5281 39.218 23.0365 38.6483C23.2948 38.3482 23.4975 38.0009 23.6281 37.623H29.049L25.8553 56.9069C25.7581 57.4849 25.897 58.0712 26.2469 58.5519C26.5968 59.0382 27.1356 59.3633 27.7243 59.455L33.4397 60.3108C33.548 60.3274 33.6591 60.333 33.7646 60.333C34.8255 60.333 35.7753 59.5606 35.9613 58.4879L39.2522 39.5675C39.3022 39.2813 39.5272 39.2368 39.6549 39.2368C39.7827 39.2368 40.0076 39.2841 40.0576 39.5675L43.3485 58.4879C43.554 59.6689 44.6871 60.4858 45.873 60.308L51.5911 59.4521C52.1799 59.3605 52.7159 59.0353 53.0658 58.5491C53.4268 58.0795 53.5657 57.4932 53.4712 56.9124L53.472 56.9125Z" fill="#1A237E"/>
</svg>
