<svg width="60" height="61" viewBox="0 0 60 61" fill="none" xmlns="http://www.w3.org/2000/svg">
<path d="M59.5143 16.5649L55.7442 12.7355C55.6387 12.627 55.5069 12.5479 55.3663 12.501C55.3663 12.5039 18.6136 0.379922 18.6136 0.379922C18.599 0.374058 18.5814 0.371126 18.5668 0.368194C18.555 0.365261 18.5404 0.359397 18.5287 0.356465C18.4994 0.350601 18.4672 0.344737 18.4379 0.341804C18.4291 0.341804 18.4232 0.338872 18.4144 0.338872C18.3764 0.33594 18.3383 0.333008 18.3002 0.333008C18.2885 0.333008 18.2797 0.335941 18.268 0.335941C18.2416 0.338873 18.2123 0.338872 18.1859 0.344737C18.1713 0.347669 18.1596 0.350601 18.1449 0.353533C18.1215 0.359397 18.0951 0.362329 18.0717 0.371126C18.057 0.374058 18.0453 0.379922 18.0307 0.382854C18.0072 0.391651 17.9809 0.400446 17.9574 0.409243C17.9457 0.415107 17.934 0.418039 17.9223 0.423903C17.8871 0.438564 17.852 0.459089 17.8198 0.476682H17.8168L11.7002 4.30312L0.445272 11.3431C0.178694 11.5103 0 11.8093 0 12.1465V18.4447C0 18.9695 0.424769 19.3947 0.949113 19.3947H11.2547V54.9643H10.8094C9.33001 54.9643 8.129 56.1665 8.129 57.6472V59.383C8.129 59.9079 8.55376 60.333 9.07811 60.333H21.446C21.9703 60.333 22.3951 59.9078 22.3951 59.383V57.6472C22.3951 56.1665 21.194 54.9643 19.7147 54.9643H19.2694V19.3947H50.0016V24.086C49.4685 24.6549 49.1404 25.4201 49.1404 26.2587C49.1404 27.6808 50.0778 28.8859 51.3668 29.2906V29.3228C51.3668 30.1379 51.7271 30.8505 52.3804 31.3342L53.0249 31.8122C53.0337 31.818 53.0424 31.8239 53.0512 31.8298C53.5522 32.1758 53.7836 32.6009 53.6957 33.029C53.6195 33.4073 53.3178 33.721 52.9634 33.7943C52.521 33.8852 52.0406 33.5949 51.607 32.9763C51.3082 32.5482 50.7165 32.4426 50.2859 32.7417C49.8582 33.0408 49.7527 33.6331 50.0515 34.0641C50.7985 35.1314 51.7711 35.709 52.7876 35.709C52.9721 35.709 53.1596 35.6884 53.3471 35.6503C54.4397 35.4216 55.3274 34.5186 55.55 33.4014C55.7873 32.2227 55.26 31.0557 54.138 30.2757L53.5053 29.8095C53.3383 29.6864 53.2621 29.531 53.2621 29.3228V29.2906C54.5511 28.8859 55.4885 27.6808 55.4885 26.2587C55.4885 25.4201 55.1604 24.6549 54.6273 24.086V19.3976H58.3418C59.0126 19.3976 59.6132 18.9988 59.871 18.3772C60.1288 17.7585 59.994 17.049 59.5224 16.5711L59.5143 16.5649ZM17.3689 2.98916V7.81835L13.8712 5.17654L15.1718 4.36144L17.3689 2.98916ZM13.1476 7.00618L15.4853 8.77134H13.1476V7.00618ZM13.1476 10.6684H17.3689V12.4511H13.1476V10.6684ZM19.2642 9.72718V2.5875L49.1677 12.4514H19.2642V9.72718ZM6.28964 17.4916H1.89257V13.0905H6.28964V17.4916ZM4.24781 11.1934L11.2491 6.81289V14.3424H8.18202V12.1404C8.18202 11.6155 7.75725 11.1904 7.23291 11.1904H4.24488L4.24781 11.1934ZM17.3656 43.5197L13.9616 38.3797H17.3656V43.5197ZM13.1443 36.4826V31.3426L16.5483 36.4826H13.1443ZM13.1443 40.5788L16.5483 45.7188H13.1443V40.5788ZM17.3656 47.6158V52.7559L13.9616 47.6158H17.3656ZM17.3656 34.2833L13.9616 29.1433H17.3656V34.2833ZM13.1443 27.2462V22.1062L16.5483 27.2462H13.1443ZM13.1443 49.8174L16.5483 54.9574H13.1443V49.8174ZM20.4913 57.6404V58.4262H10.0185V57.6404C10.0185 57.2064 10.3701 56.8546 10.8036 56.8546H19.7061C20.1396 56.8546 20.4913 57.2064 20.4913 57.6404ZM17.3656 25.0469L13.6189 19.3879H17.3656V25.0469ZM52.3049 27.5304C51.5989 27.5304 51.0277 26.9557 51.0277 26.252C51.0277 25.5454 51.6019 24.9736 52.3049 24.9736C53.0109 24.9736 53.5821 25.5483 53.5821 26.252C53.5821 26.9587 53.008 27.5304 52.3049 27.5304ZM52.7209 23.1029C52.5832 23.0854 52.4455 23.0736 52.3049 23.0736C52.1643 23.0736 52.0266 23.0854 51.8889 23.1029V19.388H52.7209L52.7209 23.1029ZM8.18471 17.4909V16.2388H12.198C12.7224 16.2388 13.1472 15.8137 13.1472 15.2888V14.3476H54.6716L57.7651 17.4909H8.18471ZM54.0798 39.5141H40.9297V34.7172C40.9297 34.1923 40.505 33.7672 39.9806 33.7672H26.6108C26.0865 33.7672 25.6617 34.1923 25.6617 34.7172V59.3766C25.6617 59.9014 26.0865 60.3265 26.6108 60.3265H54.0801C54.6044 60.3265 55.0292 59.9014 55.0292 59.3766V40.4647C55.0292 39.9398 54.6041 39.5141 54.0798 39.5141ZM31.4116 58.426V53.0221H35.1788V58.426H31.4116ZM39.0339 58.426H37.0741V52.0721C37.0741 51.5473 36.6493 51.1221 36.125 51.1221H30.4624C29.938 51.1221 29.5133 51.5473 29.5133 52.0721V58.426H27.5535V35.6671H39.0282V58.426H39.0339ZM44.8165 58.426V55.013H49.2429V58.426H44.8165ZM53.1303 58.426H51.1383V54.0659C51.1383 53.5411 50.7135 53.1159 50.1892 53.1159H43.8675C43.3431 53.1159 42.9184 53.5411 42.9184 54.0659V58.426H40.9264V41.4109H53.1301L53.1303 58.426ZM50.1891 46.7208H43.8674V44.8237H50.1891V46.7208ZM50.1891 50.8668H43.8674V48.9697H50.1891V50.8668ZM36.4676 44.4748H34.5723V42.5542H36.4676V44.4748ZM36.4676 40.4607H34.5723V38.5401H36.4676V40.4607ZM32.0149 40.4607H30.1196V38.5401H32.0149V40.4607ZM36.4676 48.4886H34.5723V46.568H36.4676V48.4886ZM32.0149 48.4886H30.1196V46.568H32.0149V48.4886ZM32.0149 44.4745H30.1196V42.5539H32.0149V44.4745Z" fill="#D5D9DC"/>
</svg>
