<svg width="63" height="61" viewBox="0 0 63 61" fill="none" xmlns="http://www.w3.org/2000/svg">
<path fill-rule="evenodd" clip-rule="evenodd" d="M42.763 14.806H21.4403L24.2451 24.5525H39.6427L42.7598 14.806H42.763ZM19.0362 14.0925C19.0241 14.0623 19.018 14.0292 19.009 13.9961L18.1205 10.907L15.4703 11.0274C14.8882 11.0515 14.3939 10.6029 14.3696 10.0248C14.3453 9.4467 14.7972 8.95596 15.3794 8.93184L18.7906 8.77528C19.2939 8.71807 19.7821 9.0312 19.9246 9.531L20.8373 12.7014H44.2063C44.7915 12.7014 45.2645 13.1711 45.2645 13.7522C45.2645 13.8998 45.2342 14.0383 45.1796 14.1647L41.4196 25.9191C41.2771 26.3647 40.8617 26.6507 40.4159 26.6507V26.6567H23.451C22.9507 26.6567 22.5292 26.3105 22.4201 25.8468L19.0362 14.0925ZM27.9965 30.8145C27.7933 30.6127 27.5174 30.4893 27.2081 30.4893C26.9019 30.4893 26.6229 30.6127 26.4198 30.8145C26.2166 31.0132 26.0923 31.2902 26.0923 31.5973C26.0923 31.9014 26.2166 32.1784 26.4198 32.3801C26.6229 32.5818 26.8988 32.7052 27.2081 32.7052C27.5144 32.7052 27.7933 32.5818 27.9965 32.3801C28.1996 32.1783 28.324 31.9044 28.324 31.5973C28.324 31.2932 28.1996 31.0162 27.9965 30.8145ZM27.2081 28.3878C28.0996 28.3878 28.9092 28.746 29.4914 29.3272C30.0766 29.9083 30.4375 30.7092 30.4375 31.5943C30.4375 32.4795 30.0766 33.2834 29.4914 33.8615C28.9061 34.4426 28.0996 34.8009 27.2081 34.8009C26.3167 34.8009 25.507 34.4426 24.9249 33.8615C24.3396 33.2804 23.9788 32.4795 23.9788 31.5943C23.9788 30.7092 24.3396 29.9053 24.9249 29.3272C25.5101 28.7461 26.3167 28.3878 27.2081 28.3878ZM37.2722 30.8145C37.069 30.6127 36.7931 30.4893 36.4838 30.4893C36.1776 30.4893 35.8986 30.6127 35.6954 30.8145C35.4923 31.0162 35.368 31.2902 35.368 31.5973C35.368 31.9014 35.4923 32.1784 35.6954 32.3801C35.8956 32.5818 36.1745 32.7052 36.4838 32.7052C36.7901 32.7052 37.069 32.5818 37.2722 32.3801C37.4753 32.1783 37.5996 31.9044 37.5996 31.5973C37.5996 31.2932 37.4753 31.0162 37.2722 30.8145ZM36.4838 28.3878C37.3752 28.3878 38.1849 28.746 38.7671 29.3272C39.3523 29.9083 39.7132 30.7092 39.7132 31.5943C39.7132 32.4795 39.3523 33.2834 38.7671 33.8615C38.1818 34.4426 37.3752 34.8009 36.4838 34.8009C35.5924 34.8009 34.7827 34.4426 34.2006 33.8615C33.6153 33.2804 33.2545 32.4795 33.2545 31.5943C33.2545 30.7092 33.6153 29.9053 34.2006 29.3272C34.7858 28.7461 35.5924 28.3878 36.4838 28.3878ZM43.8763 55.2416H18.7849C18.3725 55.2416 17.9965 55.4102 17.7236 55.6812C17.4507 55.9522 17.2809 56.3255 17.2809 56.735V58.2314H45.3834V56.735C45.3834 56.3255 45.2136 55.9522 44.9407 55.6812C44.6678 55.4102 44.2918 55.2416 43.8794 55.2416H43.8763ZM2.45031 40.2986V44.3391C2.45031 44.4445 2.49579 44.5439 2.56554 44.6131C2.63831 44.6854 2.73534 44.7275 2.84147 44.7275H59.8196C59.9257 44.7275 60.0258 44.6824 60.0955 44.6131C60.1683 44.5409 60.2108 44.4445 60.2108 44.3391V40.2986H2.45031ZM59.8197 2.43415C59.9258 2.43415 60.0259 2.47931 60.0956 2.54856C60.1684 2.62082 60.2108 2.71717 60.2108 2.82255V38.1943H2.45024V2.82563C2.45024 2.72025 2.49572 2.6209 2.56546 2.55164C2.63824 2.47938 2.73527 2.43723 2.8414 2.43723H59.8195L59.8197 2.43415ZM36.2807 46.8324H26.3805V53.1402H36.2807V46.8324ZM2.84464 0.333008H59.8228C60.5141 0.333008 61.1418 0.613015 61.5967 1.06464C62.0515 1.51627 62.3335 2.13949 62.3335 2.82602V44.3393C62.3335 45.0258 62.0515 45.649 61.5967 46.1007C61.1418 46.5523 60.5142 46.8323 59.8228 46.8323H38.3999V53.14H43.8791C44.8768 53.14 45.7833 53.5435 46.4383 54.1969C47.0933 54.8472 47.5026 55.7474 47.5026 56.738V58.4031C47.5026 58.936 47.2843 59.4177 46.9326 59.767C46.5808 60.1162 46.0927 60.333 45.559 60.333H17.1111C16.5744 60.333 16.0892 60.1162 15.7375 59.767C15.3858 59.4177 15.1675 58.933 15.1675 58.4031V56.738C15.1675 55.7474 15.5738 54.8472 16.2318 54.1969C16.8867 53.5465 17.7933 53.14 18.791 53.14H24.2702V46.8323H2.84421C2.15287 46.8323 1.52521 46.5523 1.07033 46.1007C0.615492 45.6491 0.333496 45.0258 0.333496 44.3393V2.82602C0.333496 2.13955 0.615492 1.51632 1.07033 1.06464C1.52516 0.613015 2.15324 0.333008 2.84464 0.333008Z" fill="#1A237E"/>
</svg>
