<svg width="62" height="61" viewBox="0 0 62 61" fill="none" xmlns="http://www.w3.org/2000/svg">
<path fill-rule="evenodd" clip-rule="evenodd" d="M42.4295 14.806H21.1068L23.9116 24.5525H39.3092L42.4264 14.806H42.4295ZM18.7027 14.0925C18.6906 14.0623 18.6846 14.0292 18.6755 13.9961L17.787 10.907L15.1368 11.0274C14.5547 11.0515 14.0604 10.6029 14.0361 10.0248C14.0118 9.4467 14.4637 8.95596 15.0459 8.93184L18.4571 8.77528C18.9604 8.71807 19.4486 9.0312 19.5911 9.531L20.5038 12.7014H43.8728C44.458 12.7014 44.931 13.1711 44.931 13.7522C44.931 13.8998 44.9007 14.0383 44.8461 14.1647L41.0861 25.9191C40.9436 26.3647 40.5282 26.6507 40.0824 26.6507V26.6567H23.1175C22.6172 26.6567 22.1958 26.3105 22.0866 25.8468L18.7027 14.0925ZM27.663 30.8145C27.4598 30.6127 27.1839 30.4893 26.8746 30.4893C26.5684 30.4893 26.2894 30.6127 26.0863 30.8145C25.8831 31.0132 25.7588 31.2902 25.7588 31.5973C25.7588 31.9014 25.8831 32.1784 26.0863 32.3801C26.2894 32.5818 26.5654 32.7052 26.8746 32.7052C27.1809 32.7052 27.4598 32.5818 27.663 32.3801C27.8661 32.1783 27.9905 31.9044 27.9905 31.5973C27.9905 31.2932 27.8661 31.0162 27.663 30.8145ZM26.8746 28.3878C27.7661 28.3878 28.5757 28.746 29.1579 29.3272C29.7431 29.9083 30.104 30.7092 30.104 31.5943C30.104 32.4795 29.7431 33.2834 29.1579 33.8615C28.5726 34.4426 27.7661 34.8009 26.8746 34.8009C25.9832 34.8009 25.1735 34.4426 24.5914 33.8615C24.0061 33.2804 23.6453 32.4795 23.6453 31.5943C23.6453 30.7092 24.0061 29.9053 24.5914 29.3272C25.1766 28.7461 25.9832 28.3878 26.8746 28.3878ZM36.9387 30.8145C36.7355 30.6127 36.4596 30.4893 36.1503 30.4893C35.8441 30.4893 35.5651 30.6127 35.362 30.8145C35.1588 31.0162 35.0345 31.2902 35.0345 31.5973C35.0345 31.9014 35.1588 32.1784 35.362 32.3801C35.5621 32.5818 35.841 32.7052 36.1503 32.7052C36.4566 32.7052 36.7355 32.5818 36.9387 32.3801C37.1418 32.1783 37.2662 31.9044 37.2662 31.5973C37.2662 31.2932 37.1418 31.0162 36.9387 30.8145ZM36.1503 28.3878C37.0418 28.3878 37.8514 28.746 38.4336 29.3272C39.0188 29.9083 39.3797 30.7092 39.3797 31.5943C39.3797 32.4795 39.0188 33.2834 38.4336 33.8615C37.8483 34.4426 37.0418 34.8009 36.1503 34.8009C35.2589 34.8009 34.4492 34.4426 33.8671 33.8615C33.2818 33.2804 32.921 32.4795 32.921 31.5943C32.921 30.7092 33.2818 29.9053 33.8671 29.3272C34.4523 28.7461 35.2589 28.3878 36.1503 28.3878ZM43.5428 55.2416H18.4514C18.039 55.2416 17.663 55.4102 17.3901 55.6812C17.1172 55.9522 16.9474 56.3255 16.9474 56.735V58.2314H45.0499V56.735C45.0499 56.3255 44.8801 55.9522 44.6072 55.6812C44.3343 55.4102 43.9583 55.2416 43.5459 55.2416H43.5428ZM2.11681 40.2986V44.3391C2.11681 44.4445 2.1623 44.5439 2.23204 44.6131C2.30481 44.6854 2.40184 44.7275 2.50797 44.7275H59.4861C59.5922 44.7275 59.6923 44.6824 59.762 44.6131C59.8348 44.5409 59.8773 44.4445 59.8773 44.3391V40.2986H2.11681ZM59.4862 2.43415C59.5923 2.43415 59.6924 2.47931 59.7621 2.54856C59.8349 2.62082 59.8773 2.71717 59.8773 2.82255V38.1943H2.11674V2.82563C2.11674 2.72025 2.16223 2.6209 2.23197 2.55164C2.30474 2.47938 2.40177 2.43723 2.5079 2.43723H59.486L59.4862 2.43415ZM35.9472 46.8324H26.047V53.1402H35.9472V46.8324ZM2.51115 0.333008H59.4893C60.1806 0.333008 60.8083 0.613015 61.2632 1.06464C61.718 1.51627 62 2.13949 62 2.82602V44.3393C62 45.0258 61.718 45.649 61.2632 46.1007C60.8083 46.5523 60.1807 46.8323 59.4893 46.8323H38.0664V53.14H43.5456C44.5433 53.14 45.4498 53.5435 46.1048 54.1969C46.7598 54.8472 47.1692 55.7474 47.1692 56.738V58.4031C47.1692 58.936 46.9508 59.4177 46.5991 59.767C46.2473 60.1162 45.7592 60.333 45.2255 60.333H16.7776C16.2409 60.333 15.7557 60.1162 15.404 59.767C15.0523 59.4177 14.834 58.933 14.834 58.4031V56.738C14.834 55.7474 15.2403 54.8472 15.8983 54.1969C16.5532 53.5465 17.4598 53.14 18.4575 53.14H23.9367V46.8323H2.51071C1.81937 46.8323 1.19171 46.5523 0.73683 46.1007C0.281996 45.6491 0 45.0258 0 44.3393V2.82602C0 2.13955 0.281996 1.51632 0.73683 1.06464C1.19167 0.613015 1.81974 0.333008 2.51115 0.333008Z" fill="#D5D9DC"/>
</svg>
