<svg width="52" height="61" viewBox="0 0 52 61" fill="none" xmlns="http://www.w3.org/2000/svg">
<path d="M30.2663 14.3514L28.9602 15.6597C28.5198 16.0986 28.1706 16.6206 27.933 17.1956C27.6953 17.7706 27.5739 18.3872 27.5757 19.0096V44.5434C27.5771 45.7993 28.0756 47.0033 28.9618 47.8914C29.848 48.7794 31.0496 49.2789 32.303 49.2803H40.1818C41.4351 49.2789 42.6367 48.7794 43.5229 47.8914C44.4092 47.0033 44.9077 45.7993 44.909 44.5434V19.0096C44.9108 18.3871 44.7893 17.7704 44.5516 17.1952C44.3138 16.6201 43.9646 16.0979 43.5241 15.6589L42.2188 14.3521C41.6739 13.8037 41.0026 13.3982 40.2641 13.1714L40.803 12.0916C40.8956 11.9062 40.9508 11.7043 40.9655 11.4975C40.9802 11.2907 40.9541 11.083 40.8887 10.8863C40.8232 10.6896 40.7198 10.5078 40.5843 10.3511C40.4487 10.1945 40.2837 10.0661 40.0986 9.97339C39.9136 9.88065 39.7121 9.82534 39.5057 9.81062C39.2993 9.7959 39.0921 9.82206 38.8958 9.8876C38.6995 9.95315 38.518 10.0568 38.3617 10.1926C38.2053 10.3284 38.0772 10.4938 37.9847 10.6792L36.8441 12.9644H33.6083C32.9874 12.9627 32.3723 13.0844 31.7987 13.3225C31.225 13.5606 30.7042 13.9103 30.2663 14.3514ZM40.1818 46.1224H32.303C31.8852 46.1219 31.4847 45.9554 31.1893 45.6594C30.8939 45.3634 30.7277 44.962 30.7272 44.5434H41.7575C41.757 44.962 41.5909 45.3634 41.2955 45.6594C41 45.9554 40.5995 46.1219 40.1818 46.1224ZM41.7575 41.3855H30.7272V20.8591H41.7575V41.3855ZM38.8764 16.1223C39.2943 16.1237 39.6948 16.2902 39.9909 16.5856L41.1052 17.7012H31.3797L32.4942 16.5849C32.7904 16.2899 33.1907 16.1237 33.6083 16.1223H38.8764Z" fill="#1A237E"/>
<path d="M7.09091 24.8068V45.1991C7.07341 46.228 7.45066 47.2245 8.14485 47.9829C8.83904 48.7413 9.79723 49.2039 10.8218 49.2752C10.8926 49.279 10.963 49.2806 11.0334 49.2806C11.8859 49.2832 12.7158 49.0056 13.3959 48.4903C14.0768 49.0032 14.9057 49.2806 15.7576 49.2806C16.6095 49.2806 17.4383 49.0032 18.1193 48.4903C18.8577 49.0492 19.7702 49.3274 20.6941 49.2752C21.7186 49.2037 22.6766 48.7411 23.3706 47.9827C24.0646 47.2243 24.4418 46.2279 24.4242 45.1991V24.8068C24.4224 23.2924 24.0251 21.8048 23.272 20.4918C22.5189 19.1788 21.4361 18.086 20.1311 17.3221C20.3629 16.8506 20.4839 16.3321 20.4848 15.8065V14.8597C20.4839 13.9387 20.1184 13.0557 19.4685 12.4044C18.8186 11.7531 17.9374 11.3868 17.0183 11.3857H14.4969C13.5777 11.3868 12.6965 11.7531 12.0466 12.4044C11.3967 13.0557 11.0312 13.9387 11.0303 14.8597V15.8065C11.0317 16.332 11.1531 16.8502 11.3852 17.3214C10.08 18.0852 8.99683 19.178 8.24349 20.4912C7.49014 21.8044 7.09279 23.2922 7.09091 24.8068ZM14.1818 14.8597C14.1818 14.776 14.215 14.6957 14.2741 14.6364C14.3332 14.5771 14.4133 14.5438 14.4969 14.5436H17.0183C17.1018 14.5438 17.182 14.5771 17.241 14.6364C17.3001 14.6957 17.3333 14.776 17.3333 14.8597V15.8065C17.3333 15.8903 17.3001 15.9706 17.241 16.0298C17.182 16.0891 17.1018 16.1225 17.0183 16.1226H14.4969C14.4133 16.1225 14.3332 16.0891 14.2741 16.0298C14.215 15.9706 14.1818 15.8903 14.1818 15.8065V14.8597ZM10.2424 24.8068C10.2424 23.3412 10.8235 21.9355 11.8578 20.8991C12.8921 19.8627 14.2949 19.2805 15.7576 19.2805C17.2203 19.2805 18.6231 19.8627 19.6574 20.8991C20.6917 21.9355 21.2727 23.3412 21.2727 24.8068V29.5437H10.2424V24.8068ZM10.2424 32.7016H21.2727V38.2279H10.2424V32.7016ZM10.2424 41.3858H21.2727V45.1991C21.2837 45.4174 21.214 45.6322 21.0771 45.8024C20.9402 45.9726 20.7455 46.0863 20.5302 46.1219C20.4231 46.128 20.3159 46.112 20.2151 46.0751C20.1143 46.0382 20.0221 45.9811 19.9441 45.9073C19.8661 45.8335 19.804 45.7445 19.7615 45.6458C19.719 45.5471 19.697 45.4407 19.697 45.3332C19.697 44.9144 19.531 44.5128 19.2354 44.2167C18.9399 43.9206 18.5391 43.7542 18.1212 43.7542C17.7033 43.7542 17.3025 43.9206 17.007 44.2167C16.7115 44.5128 16.5455 44.9144 16.5455 45.3332C16.5455 45.5426 16.4624 45.7434 16.3147 45.8914C16.1669 46.0395 15.9665 46.1227 15.7576 46.1227C15.5486 46.1227 15.3482 46.0395 15.2005 45.8914C15.0527 45.7434 14.9697 45.5426 14.9697 45.3332C14.9697 44.9144 14.8037 44.5128 14.5082 44.2167C14.2127 43.9206 13.8119 43.7542 13.3939 43.7542C12.976 43.7542 12.5752 43.9206 12.2797 44.2167C11.9842 44.5128 11.8182 44.9144 11.8182 45.3332C11.8184 45.4404 11.7968 45.5466 11.7545 45.6451C11.7122 45.7437 11.6502 45.8325 11.5724 45.906C11.4951 45.9811 11.4029 46.0392 11.3019 46.0764C11.2008 46.1135 11.0931 46.1291 10.9857 46.1219C10.7703 46.0865 10.5754 45.9728 10.4383 45.8026C10.3012 45.6324 10.2315 45.4175 10.2424 45.1991V41.3858Z" fill="#1A237E"/>
<path d="M52 51.6488V9.01713C51.9987 7.76126 51.5002 6.55722 50.6139 5.66918C49.7277 4.78115 48.5261 4.28165 47.2728 4.28027H36.2425C35.8245 4.28027 35.4237 4.44663 35.1282 4.74274C34.8327 5.03885 34.6667 5.44046 34.6667 5.85923C34.6667 6.27799 34.8327 6.6796 35.1282 6.97571C35.4237 7.27182 35.8245 7.43818 36.2425 7.43818H47.2728C47.6905 7.43866 48.091 7.60516 48.3865 7.90117C48.6819 8.19718 48.848 8.59851 48.8485 9.01713V51.6488C48.848 52.0674 48.6819 52.4688 48.3865 52.7648C48.091 53.0608 47.6905 53.2273 47.2728 53.2278H25.8653L27.1145 51.9757C27.4096 51.6795 27.5752 51.2779 27.575 50.8593C27.5747 50.4408 27.4086 50.0394 27.1132 49.7435C26.8178 49.4476 26.4172 49.2813 25.9995 49.2812C25.5818 49.2811 25.1811 49.4472 24.8855 49.743L20.9461 53.6911C20.6507 53.9873 20.4848 54.3889 20.4849 54.8076C20.4849 55.2263 20.651 55.6279 20.9465 55.9239L24.8859 59.8705C25.0322 60.0171 25.2059 60.1334 25.3971 60.2127C25.5882 60.2921 25.7931 60.3329 26 60.3329C26.2069 60.3329 26.4118 60.2921 26.603 60.2127C26.7941 60.1334 26.9678 60.0171 27.1141 59.8705C27.2604 59.7239 27.3765 59.5498 27.4557 59.3583C27.5348 59.1667 27.5756 58.9614 27.5756 58.7541C27.5756 58.5468 27.5348 58.3415 27.4557 58.1499C27.3765 57.9584 27.2604 57.7844 27.1141 57.6377L25.8644 56.3857H47.2728C48.5261 56.3843 49.7277 55.8848 50.6139 54.9968C51.5002 54.1087 51.9987 52.9047 52 51.6488Z" fill="#1A237E"/>
<path d="M0 9.01707V51.6488C0.00137015 52.9046 0.49986 54.1087 1.3861 54.9967C2.27234 55.8848 3.47394 56.3843 4.72727 56.3856H15.7576C16.1755 56.3856 16.5763 56.2193 16.8718 55.9232C17.1673 55.6271 17.3333 55.2254 17.3333 54.8067C17.3333 54.3879 17.1673 53.9863 16.8718 53.6902C16.5763 53.3941 16.1755 53.2277 15.7576 53.2277H4.72727C4.3095 53.2272 3.90898 53.0607 3.61357 52.7647C3.31816 52.4687 3.15199 52.0674 3.15151 51.6488V9.01707C3.15199 8.59845 3.31816 8.19712 3.61357 7.90111C3.90898 7.6051 4.3095 7.4386 4.72727 7.43812H26.1352L24.8859 8.69018C24.7396 8.83678 24.6235 9.01083 24.5443 9.20237C24.4652 9.39392 24.4244 9.59922 24.4244 9.80655C24.4244 10.0139 24.4652 10.2192 24.5443 10.4107C24.6235 10.6023 24.7396 10.7763 24.8859 10.9229C25.1814 11.219 25.5821 11.3853 26 11.3853C26.2069 11.3853 26.4118 11.3445 26.6029 11.2651C26.7941 11.1858 26.9678 11.0695 27.1141 10.9229L31.0535 6.97553C31.1998 6.82896 31.3159 6.65492 31.3951 6.46337C31.4744 6.27182 31.5151 6.06651 31.5151 5.85917C31.5151 5.65182 31.4744 5.44651 31.3951 5.25496C31.3159 5.06341 31.1998 4.88938 31.0535 4.7428L27.1141 0.795422C26.9678 0.648818 26.7941 0.532526 26.6029 0.453185C26.4118 0.373844 26.2069 0.333008 26 0.333008C25.7931 0.333008 25.5882 0.373844 25.397 0.453185C25.2059 0.532526 25.0322 0.648818 24.8859 0.795422C24.7396 0.942025 24.6235 1.11607 24.5443 1.30761C24.4652 1.49916 24.4244 1.70446 24.4244 1.91179C24.4244 2.11912 24.4652 2.32441 24.5443 2.51596C24.6235 2.70751 24.7396 2.88155 24.8859 3.02815L26.1352 4.28022H4.72727C3.47394 4.28159 2.27234 4.78109 1.3861 5.66912C0.49986 6.55716 0.00137015 7.7612 0 9.01707Z" fill="#1A237E"/>
</svg>
