<svg width="46" height="61" viewBox="0 0 46 61" fill="none" xmlns="http://www.w3.org/2000/svg">
<path d="M46 5.98471V5.91813V2.18948C46 1.65682 45.7361 1.19074 45.2082 0.990993C44.7464 0.791244 44.2186 0.857827 43.8227 1.19074L42.4371 2.38923L40.5237 0.658078C40.0619 0.258581 39.3361 0.258581 38.8083 0.658078L36.8949 2.38923L34.9815 0.658078C34.5196 0.258581 33.7938 0.258581 33.266 0.658078L31.3526 2.38923L29.4392 0.658078C28.9774 0.258581 28.2516 0.258581 27.7238 0.658078L25.8104 2.38923L23.897 0.658078C23.4351 0.191998 22.5774 0.258581 22.1815 0.658078L20.2681 2.38923L18.3547 0.658078C17.8929 0.258581 17.1671 0.258581 16.6393 0.658078L14.7259 2.38923L12.8125 0.658078C12.3506 0.258581 11.6248 0.258581 11.097 0.658078L9.18361 2.38923L7.20423 0.724661C6.74238 0.325164 6.01661 0.325164 5.48878 0.724661L3.57538 2.45582L2.18982 1.25732C1.79394 0.92441 1.26611 0.857827 0.804253 1.05758C0.342398 1.25732 0.0125031 1.7234 0.0125031 2.25607V2.78873C0.0125031 3.18823 0.342399 3.52114 0.738274 3.52114C1.13415 3.52114 1.46404 3.18823 1.46404 2.78873V2.45582L3.11352 3.92064C3.37744 4.18697 3.77332 4.18697 4.03723 3.92064L6.34651 1.85657L8.65578 3.92064C8.91969 4.18697 9.31557 4.18697 9.57949 3.92064L11.8888 1.85657L14.198 3.92064C14.4619 4.18697 14.8578 4.18697 15.1217 3.92064L17.431 1.85657L19.7403 3.92064C20.0042 4.18697 20.4001 4.18697 20.664 3.92064L23.0392 1.85657L25.3485 3.92064C25.6124 4.18697 26.0083 4.18697 26.2722 3.92064L28.5815 1.85657L30.8908 3.92064C31.1547 4.18697 31.5506 4.18697 31.8145 3.92064L34.1237 1.85657L36.433 3.92064C36.6969 4.18697 37.0928 4.18697 37.3567 3.92064L39.666 1.85657L41.9753 3.92064C42.2392 4.18697 42.6351 4.18697 42.899 3.92064L44.5485 2.45582V5.18572H0.738274C0.672295 5.18572 0.606315 5.18572 0.540336 5.18572C0.144461 5.2523 -0.0534761 5.6518 0.0125031 6.05129C1.66198 12.4433 2.45373 20.5664 2.38775 30.3541C2.45373 40.1417 1.66198 48.2649 0.0125031 54.6568V54.7234V54.79V58.452C0.0125031 58.9847 0.276419 59.4508 0.804253 59.6505C1.26611 59.8503 1.79394 59.7837 2.18982 59.4508L3.5094 58.2523L5.4228 59.9834C5.88465 60.4495 6.6764 60.3829 7.13826 59.9834L9.05165 58.2523L10.965 59.9834C11.4269 60.4495 12.1527 60.3829 12.6805 59.9834L14.5939 58.2523L16.5073 59.9834C16.9692 60.3829 17.6949 60.3829 18.2228 59.9834L20.1362 58.2523L22.0496 59.9834C22.3794 60.1832 22.7093 60.3164 23.0392 60.3164C23.3691 60.3164 23.6331 60.1832 23.897 59.9834L25.8104 58.2523L27.7238 59.9834C28.1856 60.4495 28.9114 60.4495 29.4392 59.9834L31.3526 58.2523L33.266 59.9834C33.7279 60.4495 34.4536 60.4495 34.9815 59.9834L36.8949 58.2523L38.8083 59.9834C39.2701 60.4495 39.9959 60.4495 40.5237 59.9834L42.4371 58.2523L43.7567 59.4508C44.1526 59.7837 44.6804 59.8503 45.1423 59.6505C45.6041 59.4508 45.934 58.9847 45.934 58.452V54.79V54.7234V54.6568C44.2845 48.3314 43.4928 40.1417 43.5588 30.3541C43.4928 20.5664 44.2845 12.4433 45.934 6.05129C46 6.05129 46 5.98471 46 5.98471ZM44.6144 54.9231V58.2523L43.0309 56.7875C42.767 56.5211 42.3711 56.5211 42.1072 56.7875L39.798 58.8515L37.4887 56.7875C37.2248 56.5211 36.8289 56.5211 36.565 56.7875L34.2557 58.8515L31.9464 56.7875C31.6825 56.5211 31.2866 56.5211 31.0227 56.7875L28.7134 58.8515L26.4042 56.7875C26.1403 56.5211 25.7444 56.5211 25.4805 56.7875L23.0392 58.8515L20.73 56.7875C20.4661 56.5211 20.0702 56.5211 19.8063 56.7875L17.497 58.8515L15.1217 56.7875C14.8578 56.5211 14.4619 56.5211 14.198 56.7875L11.8888 58.8515L9.57949 56.7875C9.31557 56.5211 8.91969 56.5211 8.65578 56.7875L6.34651 58.8515L4.03723 56.7875C3.77332 56.5211 3.37744 56.5211 3.11352 56.7875L1.53002 58.2523V55.5224H41.7773C42.1732 55.5224 42.5031 55.1895 42.5031 54.79C42.5031 54.3905 42.1732 54.0576 41.7773 54.0576H1.66198C3.1795 47.7322 3.97125 39.7422 3.90527 30.2875C3.97125 20.8327 3.1795 12.8427 1.66198 6.51737H44.4165C42.899 12.9093 42.1072 20.8993 42.1732 30.3541C42.1072 40.2083 42.965 48.4646 44.6144 54.9231ZM23.0392 14.8402C14.5939 14.8402 7.66609 21.7649 7.66609 30.3541C7.66609 38.8767 14.5279 45.8679 23.0392 45.8679C31.5506 45.8679 38.4124 38.8767 38.4124 30.3541C38.4124 21.8314 31.4846 14.8402 23.0392 14.8402ZM23.0392 44.403C15.3197 44.403 9.11763 38.0777 9.11763 30.2875C9.11763 22.4973 15.3197 16.2385 23.0392 16.2385C30.7588 16.2385 37.0268 22.5639 37.0268 30.2875C37.0268 38.0111 30.7588 44.403 23.0392 44.403ZM23.1052 29.2221C19.9382 31.486 16.6393 33.8164 14.0001 33.084C12.0867 32.3515 12.5485 30.4206 12.7465 29.888C13.4723 27.5576 16.5073 24.8277 20.9939 26.0927C21.7197 26.2925 22.5114 26.6254 23.4351 27.0915C23.765 27.2912 24.2269 27.1581 24.3588 26.8252C24.5568 26.4922 24.4248 26.0262 24.0949 25.893C23.1052 25.3603 22.1815 24.9608 21.3898 24.7611C16.5073 23.4294 12.4826 26.1593 11.4269 29.4885C10.7011 31.7523 11.5589 33.6832 13.5382 34.4156C16.3753 35.6807 19.6083 36.3465 22.8413 36.3465C24.8867 36.3465 26.932 36.0802 28.8454 35.5475C33.266 34.349 35.1134 31.2196 34.9815 28.8892C34.9155 27.0249 33.5959 25.6933 31.6825 25.3603C29.0433 24.9608 26.1403 27.0249 23.1052 29.2221ZM33.5959 28.9558C33.6619 30.8201 31.9464 33.2171 28.4495 34.2159C24.8867 35.2146 20.9279 35.2146 17.299 34.2824C19.4764 33.55 21.7197 31.952 23.897 30.4206C26.6021 28.4897 29.3732 26.4922 31.4186 26.8252C32.7382 26.9583 33.5299 27.7573 33.5959 28.9558Z" fill="#D5D9DC"/>
</svg>
