<svg width="76" height="61" viewBox="0 0 76 61" fill="none" xmlns="http://www.w3.org/2000/svg">
<path d="M32.1349 0.333008C32.032 0.33735 31.9309 0.360371 31.8362 0.401075L25.5971 3.0721C25.4921 3.11723 25.397 3.18307 25.318 3.26579C25.2389 3.34852 25.1775 3.44645 25.137 3.5536L22.4891 10.5678H18.5307C18.0593 6.09224 14.3082 2.57734 9.7236 2.48554C9.72033 2.48552 9.71728 2.48552 9.71401 2.48554C9.65684 2.48491 9.59891 2.485 9.54129 2.48554C4.56058 2.48554 0.500893 6.53498 0.5 11.5157C0.499643 16.1722 4.05005 20.0228 8.59442 20.4992V52.6557C8.59442 56.896 12.0393 60.333 16.2784 60.333H27.8611H27.9261H70.7473C73.3652 60.333 75.4996 58.1944 75.4996 55.5679C75.4996 52.9412 73.3655 50.798 70.7473 50.798H61.5534L64.9169 49.3151H70.7473C73.3653 49.3151 75.5 47.1735 75.5 44.5467C75.5 41.92 73.3653 39.7799 70.7473 39.7799H35.5465V37.9672H70.7473C70.8143 37.9672 70.935 37.9841 71.1281 38.0092C71.7778 38.0917 72.2726 37.4371 72.0182 36.8313C68.0873 27.5116 58.9728 21.4515 48.8847 21.4515C44.0595 21.4518 39.4646 22.8505 35.546 25.3168V11.4251C35.5459 11.1988 35.4561 10.9818 35.2966 10.8219C35.1371 10.6619 34.921 10.5721 34.6955 10.5722H24.3092L26.5998 4.50238L32.503 1.97493C32.6057 1.93097 32.6988 1.86721 32.7769 1.78714C32.8551 1.70708 32.9167 1.61228 32.9584 1.50831C33 1.40434 33.021 1.29316 33.0199 1.18111C33.0187 1.06905 32.9952 0.958294 32.9514 0.855219C32.8838 0.696046 32.77 0.561244 32.6243 0.468704C32.4786 0.376163 32.3081 0.330363 32.1358 0.337166L32.1349 0.333008ZM9.54086 4.19006C9.54413 4.19008 9.54718 4.19008 9.55045 4.19006C9.59601 4.18961 9.64289 4.1897 9.68871 4.19006C13.3556 4.26357 16.225 7.03393 16.7015 10.568H9.44447C9.219 10.568 9.00251 10.6578 8.84303 10.8177C8.68355 10.9777 8.59409 11.1948 8.59399 11.4211V18.6638C4.99402 18.1819 2.20017 15.2315 2.20053 11.5161C2.20053 7.46282 5.47498 4.19006 9.54086 4.19006ZM10.295 12.274H33.8438V34.8902C28.9725 34.8015 26.4268 33.0471 23.3789 30.9732C20.2831 28.8666 16.7135 26.46 10.295 25.6467V12.274ZM48.8829 23.1556C57.8259 23.1557 65.8864 28.2906 69.8175 36.2583H35.5447V27.393C39.3757 24.7003 43.9943 23.156 48.8829 23.1556ZM46.5574 25.2764C46.094 25.2762 45.7184 25.6532 45.7187 26.1179C45.7184 26.5827 46.094 26.9594 46.5574 26.9592C47.0207 26.9594 47.3967 26.5827 47.3965 26.1179C47.3967 25.6532 47.0207 25.2762 46.5574 25.2764ZM53.1506 26.4943C52.6872 26.4942 52.3112 26.8711 52.3115 27.3359C52.3112 27.8006 52.6872 28.1775 53.1506 28.1772C53.6133 28.1766 53.9878 27.8 53.9876 27.3359C53.9878 26.8718 53.6133 26.4951 53.1506 26.4943ZM43.1934 27.0459C42.745 27.0665 42.3924 27.437 42.3931 27.8872C42.3937 28.3513 42.769 28.7272 43.2318 28.727C43.6945 28.7272 44.0698 28.3513 44.0705 27.8872C44.0707 27.4224 43.6951 27.0457 43.2318 27.0459C43.2193 27.0456 43.2068 27.0456 43.1934 27.0459ZM10.2945 27.3641C16.2464 28.1523 19.3622 30.3018 22.425 32.3857C25.4814 34.4655 28.5492 36.4947 33.8433 36.5976V52.6552C33.8433 55.975 31.1914 58.6265 27.8603 58.6265H16.2776C12.9465 58.6265 10.2945 55.975 10.2945 52.6552V27.3641ZM49.3326 27.4223C48.8693 27.4221 48.4937 27.799 48.4939 28.2639C48.4937 28.7286 48.8693 29.1054 49.3326 29.1052C49.796 29.1054 50.172 28.7286 50.1717 28.2639C50.172 27.799 49.796 27.4221 49.3326 27.4223ZM46.0938 29.7999C45.6311 29.8006 45.2561 30.1773 45.2564 30.6414C45.2561 31.1055 45.6311 31.482 46.0938 31.4827C46.5572 31.4829 46.9327 31.1062 46.9325 30.6414C46.9327 30.1767 46.5572 29.7997 46.0938 29.7999ZM51.1251 30.0898C50.6617 30.0897 50.2862 30.4663 50.2864 30.9312C50.2862 31.3959 50.6617 31.773 51.1251 31.7727C51.5885 31.773 51.964 31.3959 51.9638 30.9312C51.964 30.4663 51.5885 30.0897 51.1251 30.0898ZM22.3648 37.9723V40.7897H25.1871V37.9723H22.3648ZM35.5438 41.4826H70.7447C72.0407 41.4826 73.1251 42.2643 73.5735 43.3887C73.1594 43.5418 72.619 43.7355 72.0004 43.9335C70.7002 44.3495 69.1002 44.745 68.2068 44.745C67.3133 44.745 66.358 44.3802 65.3029 43.9536C64.2478 43.5271 63.0922 43.0405 61.7649 43.0405C60.4376 43.0405 59.2803 43.5271 58.2252 43.9536C57.17 44.3802 56.2169 44.745 55.3235 44.745C54.4301 44.745 53.4748 44.3802 52.4196 43.9536C51.3645 43.5271 50.2089 43.0405 48.8816 43.0405C47.5543 43.0405 46.3988 43.5271 45.3436 43.9536C44.2885 44.3802 43.3337 44.745 42.4402 44.745C41.5468 44.745 40.5932 44.3802 39.5381 43.9536C38.483 43.5271 37.3274 43.0405 36.0001 43.0405C35.8429 43.0405 35.6958 43.0676 35.5434 43.081L35.5438 41.4826ZM15.1602 41.9026V44.7216H17.9825V41.9026H15.1602ZM36.0001 44.745C36.8935 44.745 37.8483 45.1099 38.9035 45.5364C39.9586 45.963 41.1129 46.4528 42.4402 46.4528C43.7675 46.4528 44.923 45.963 45.9782 45.5364C47.0334 45.1099 47.9882 44.745 48.8816 44.745C49.775 44.745 50.7303 45.1099 51.7855 45.5364C52.8406 45.963 53.9961 46.4528 55.3235 46.4528C56.6508 46.4528 57.8081 45.963 58.8632 45.5364C59.9184 45.1099 60.8715 44.745 61.7649 44.745C62.6583 44.745 63.6136 45.1099 64.6688 45.5364C65.7239 45.963 66.8794 46.4528 68.2068 46.4528C69.5341 46.4528 71.1519 45.9968 72.5172 45.5599C72.9979 45.4059 73.364 45.2716 73.7397 45.1366C73.4697 46.5559 72.2477 47.6056 70.7447 47.6056H35.5438V44.7866C35.6969 44.7678 35.8506 44.745 36.0001 44.745ZM35.5434 49.3119H39.4535L40.5648 50.7947H35.5434V49.3119ZM41.5814 49.3119H60.6876L57.1592 50.868L46.3323 55.6414L42.9505 51.1361L41.5814 49.3119ZM26.3011 51.0995V53.917H29.1229V51.0995H26.3011ZM35.543 52.5025H41.847L45.3767 57.2074C45.5528 57.4417 45.8361 57.5688 46.1273 57.544C46.1506 57.544 46.1739 57.535 46.1971 57.535C46.2445 57.5261 46.2913 57.5144 46.3367 57.4983C46.3581 57.4893 46.3785 57.4823 46.3999 57.4733L57.6787 52.5016H70.7451C72.4508 52.5016 73.7982 53.8532 73.7982 55.5637C73.7982 57.2741 72.4511 58.6245 70.7451 58.6245H32.6845C34.426 57.2171 35.5434 55.0668 35.5434 52.6548L35.543 52.5025ZM29.2908 60.1949C29.1993 60.2119 29.1062 60.2226 29.0134 60.236C29.106 60.2217 29.1995 60.2119 29.2908 60.1949Z" fill="#D5D9DC"/>
</svg>
