<svg width="81" height="61" viewBox="0 0 81 61" fill="none" xmlns="http://www.w3.org/2000/svg">
<path fill-rule="evenodd" clip-rule="evenodd" d="M1.20552 0.333711C0.744647 0.37721 0.353996 0.808324 0.355964 1.2712V19.7573C0.355964 27.069 5.38559 33.2398 12.0746 34.6107V54.3858C9.75514 54.4664 7.70625 54.5071 6.12734 54.6788C5.23531 54.7757 4.49526 54.9015 3.87155 55.1475C3.55965 55.2705 3.25177 55.412 2.99265 55.6749C2.73362 55.9377 2.55325 56.3782 2.55325 56.7881C2.55325 57.2442 2.76512 57.6421 3.022 57.9307C3.27887 58.2193 3.57924 58.4138 3.93014 58.6045C4.63185 58.9859 5.51553 59.2936 6.59608 59.542C8.75718 60.0389 11.6559 60.333 14.8578 60.333C15.6838 60.3011 16.4898 60.3161 17.26 60.333C20.4619 60.333 23.3606 60.0389 25.5217 59.542C26.6023 59.2936 27.5153 58.9859 28.217 58.6045C28.5678 58.4138 28.8683 58.2193 29.1252 57.9307C29.382 57.6421 29.5939 57.2442 29.5939 56.7881C29.5939 56.3782 29.3842 55.9377 29.1252 55.6749C28.8661 55.412 28.5874 55.2705 28.2755 55.1475C27.6518 54.9015 26.9118 54.7757 26.0197 54.6788C24.441 54.5072 22.3627 54.4666 20.0432 54.3858V40.675C23.6144 45.0362 29.1772 49.1953 37.006 50.9581V56.4073C37.0061 56.8981 37.4526 57.3448 37.9435 57.3448C44.6231 57.3448 51.3027 57.3448 57.9823 57.3448C58.4732 57.3448 58.9197 56.8981 58.9198 56.4073V50.9581C67.0744 49.1209 72.7779 44.6742 76.3218 40.1185C78.148 37.7712 79.414 35.389 80.1597 33.2923C80.9054 31.1957 81.1674 29.4056 80.8336 28.0189C80.7306 27.62 80.3374 27.3156 79.9253 27.3158H63.8123L78.9586 12.0523C79.5057 11.5252 79.0139 10.3984 78.2555 10.441C78.0136 10.4506 77.7771 10.5581 77.6109 10.734L61.1756 27.3158H59.9451L74.5348 2.03291C74.8934 1.46135 74.389 0.578592 73.7145 0.59738C73.3787 0.600192 73.0516 0.79879 72.8942 1.09542L57.7772 27.3158H57.6014C48.3437 27.3158 39.086 27.3158 29.8283 27.3158C31.0678 25.0874 31.7911 22.4992 31.7911 19.7573V1.2712C31.791 0.780349 31.3445 0.333758 30.8536 0.333711C21.0002 0.333711 11.1468 0.333711 1.29345 0.333711C1.26439 0.332773 1.23458 0.332773 1.20552 0.333711ZM2.23094 2.20869C11.4593 2.20869 20.6878 2.20869 29.9161 2.20869V19.7573C29.9161 26.463 25.1152 32.0268 18.9886 32.9115C18.538 32.9687 18.1647 33.3949 18.1683 33.849V55.2647C18.1681 55.7459 18.5955 56.1871 19.0765 56.2022C21.7929 56.3048 24.1825 56.3764 25.8146 56.5538C28.8413 56.6534 26.3816 57.4281 25.1115 57.7256C23.1535 58.1758 20.3455 58.458 17.26 58.458C16.4497 58.413 15.6269 58.4402 14.8582 58.458C11.7728 58.458 8.99408 58.1758 7.03595 57.7256C4.96204 57.0834 3.85824 56.8796 6.33283 56.5538C7.965 56.3764 10.3255 56.3048 13.0417 56.2022C13.5227 56.1872 13.9501 55.7459 13.9499 55.2647V33.849C13.9593 33.4033 13.5991 32.9811 13.1589 32.9115C7.03229 32.0268 2.23132 26.463 2.23132 19.7573L2.23094 2.20869ZM28.5978 29.1908C38.2657 29.1908 47.9335 29.1908 57.6014 29.1908H79.0758C79.0766 30.0312 78.9013 31.273 78.4019 32.6771C77.7303 34.5656 76.5624 36.7837 74.8571 38.9758C71.4465 43.3602 65.9012 47.625 57.8064 49.2589C57.3767 49.3404 57.0371 49.759 57.0448 50.1964V55.4698C50.9902 55.4698 44.9355 55.4698 38.881 55.4698V50.1964C38.8903 49.7589 38.5489 49.3409 38.1191 49.2589C29.1278 47.4449 23.3063 42.3622 20.0432 37.511V34.6107C23.4836 33.9055 26.49 31.9382 28.5978 29.1908Z" fill="#1A237E"/>
</svg>
