<svg width="64" height="61" viewBox="0 0 64 61" fill="none" xmlns="http://www.w3.org/2000/svg">
<path d="M62.4851 24.2823H59.0151L50.262 2.71664C49.778 1.32981 48.46 0.333008 46.915 0.333008C45.5396 0.333008 44.3473 1.1239 43.7594 2.27452C41.0468 5.64954 36.8521 7.58283 32.2335 7.58283C27.4099 7.58283 22.8265 5.42985 19.9641 1.82691C19.3215 0.923398 18.266 0.333008 17.0792 0.333008C15.5343 0.333008 14.219 1.32988 13.735 2.71938L4.97905 24.2822H1.51448C0.953911 24.2822 0.5 24.7381 0.5 25.301V29.0824C0.5 29.6454 0.953926 30.1012 1.51448 30.1012H13.5381V39.6988C13.5381 40.2617 13.9921 40.7176 14.5526 40.7176H18.1949L12.0314 58.9846C11.9275 59.295 11.9767 59.6382 12.1681 59.9074C12.3595 60.1737 12.6658 60.333 12.9939 60.333H17.071H17.0738H17.0765H46.9208H46.9235H46.9262H51.0061C51.3342 60.333 51.6404 60.1737 51.8319 59.9074C52.0233 59.641 52.0725 59.2977 51.9686 58.9846L45.8051 40.7176H49.4474C50.0079 40.7176 50.4619 40.2617 50.4619 39.6988V30.1012H62.4855C63.0461 30.1012 63.5 29.6454 63.5 29.0824V25.301C63.5 24.738 63.0457 24.2823 62.4851 24.2823ZM13.5351 28.0664H2.52854V26.3226H5.65682H5.66229H5.66502H13.5375V28.0664H13.5351ZM13.5351 24.2823H7.17196L13.5351 8.61V24.2823ZM39.2092 8.20647C40.7296 7.54739 42.1297 6.67137 43.3711 5.59766V24.2851H39.2092V8.20647ZM33.0129 9.60701C34.4512 9.54659 35.8486 9.31866 37.1802 8.93421V24.2824H33.0129V9.60418V9.60701ZM26.8193 8.79967C28.1592 9.21708 29.5565 9.48071 30.9811 9.57959V24.2824H26.8193V8.79967ZM20.6256 5.41642C21.8753 6.47642 23.2781 7.35519 24.7875 8.03353V24.2851H20.6256V5.41642ZM20.6256 26.3226H43.3709V28.0664H20.6256V26.3226ZM43.3709 30.104V33.5148L42.2197 30.104H43.3709ZM20.6256 30.104H21.7768L20.6256 33.5148V30.104ZM15.5668 38.6829V3.89222C15.5668 3.73569 15.5914 3.5819 15.6352 3.43911L15.7227 3.22491C15.9688 2.71962 16.4828 2.37363 17.079 2.37363C17.6013 2.37363 18.0634 2.64001 18.3341 3.04369C18.4982 3.28535 18.5939 3.57919 18.5939 3.89223V38.6829L15.5668 38.6829ZM16.3434 58.2956H14.4074L23.9208 30.1033H25.8568L16.3434 58.2956ZM33.0125 58.2956V53.8688C33.0125 53.3058 32.5585 52.8499 31.998 52.8499C31.4374 52.8499 30.9835 53.3058 30.9835 53.8688V58.2956H18.4894L28.0028 30.1033H35.9957L45.5091 58.2956H33.0125ZM49.5891 58.2956H47.6504L38.137 30.1033H40.0757L49.5891 58.2956ZM48.4297 38.6829H45.4027V3.89222C45.4027 3.67802 45.4464 3.47481 45.5257 3.29081V3.28807C45.7581 2.74983 46.2914 2.37359 46.9121 2.37359C47.511 2.37359 48.0278 2.7251 48.2739 3.23042L48.3586 3.43913C48.4024 3.58193 48.427 3.73571 48.427 3.89499V38.6857L48.4297 38.6829ZM50.4614 8.61295L56.8218 24.2852H50.4614V8.61295ZM61.4679 28.0667H50.4614V26.3229H58.3283H58.331H58.3365H61.4675L61.4679 28.0667Z" fill="#D5D9DC"/>
</svg>
