<svg width="64" height="61" viewBox="0 0 64 61" fill="none" xmlns="http://www.w3.org/2000/svg">
<path d="M62.1516 24.2823H58.6816L49.9285 2.71664C49.4445 1.32981 48.1265 0.333008 46.5815 0.333008C45.2061 0.333008 44.0138 1.1239 43.4259 2.27452C40.7133 5.64954 36.5186 7.58283 31.9 7.58283C27.0764 7.58283 22.493 5.42985 19.6306 1.82691C18.988 0.923398 17.9325 0.333008 16.7457 0.333008C15.2008 0.333008 13.8855 1.32988 13.4015 2.71938L4.64556 24.2822H1.18098C0.620415 24.2822 0.166504 24.7381 0.166504 25.301V29.0824C0.166504 29.6454 0.620429 30.1012 1.18098 30.1012H13.2046V39.6988C13.2046 40.2617 13.6586 40.7176 14.2191 40.7176H17.8614L11.6979 58.9846C11.594 59.295 11.6432 59.6382 11.8346 59.9074C12.026 60.1737 12.3323 60.333 12.6604 60.333H16.7375H16.7403H16.743H46.5873H46.59H46.5927H50.6726C51.0007 60.333 51.3069 60.1737 51.4984 59.9074C51.6898 59.641 51.739 59.2977 51.6351 58.9846L45.4716 40.7176H49.1139C49.6744 40.7176 50.1284 40.2617 50.1284 39.6988V30.1012H62.152C62.7126 30.1012 63.1665 29.6454 63.1665 29.0824V25.301C63.1665 24.738 62.7122 24.2823 62.1516 24.2823ZM13.2016 28.0664H2.19504V26.3226H5.32332H5.32879H5.33152H13.204V28.0664H13.2016ZM13.2016 24.2823H6.83846L13.2016 8.61V24.2823ZM38.8757 8.20647C40.3961 7.54739 41.7962 6.67137 43.0376 5.59766V24.2851H38.8757V8.20647ZM32.6794 9.60701C34.1177 9.54659 35.5151 9.31866 36.8467 8.93421V24.2824H32.6794V9.60418V9.60701ZM26.4858 8.79967C27.8257 9.21708 29.223 9.48071 30.6476 9.57959V24.2824H26.4858V8.79967ZM20.2921 5.41642C21.5418 6.47642 22.9446 7.35519 24.454 8.03353V24.2851H20.2921V5.41642ZM20.2921 26.3226H43.0374V28.0664H20.2921V26.3226ZM43.0374 30.104V33.5148L41.8862 30.104H43.0374ZM20.2921 30.104H21.4433L20.2921 33.5148V30.104ZM15.2333 38.6829V3.89222C15.2333 3.73569 15.2579 3.5819 15.3017 3.43911L15.3892 3.22491C15.6353 2.71962 16.1493 2.37363 16.7455 2.37363C17.2678 2.37363 17.7299 2.64001 18.0006 3.04369C18.1647 3.28535 18.2604 3.57919 18.2604 3.89223V38.6829L15.2333 38.6829ZM16.0099 58.2956H14.0739L23.5873 30.1033H25.5233L16.0099 58.2956ZM32.679 58.2956V53.8688C32.679 53.3058 32.225 52.8499 31.6645 52.8499C31.1039 52.8499 30.65 53.3058 30.65 53.8688V58.2956H18.1559L27.6693 30.1033H35.6622L45.1756 58.2956H32.679ZM49.2556 58.2956H47.3169L37.8035 30.1033H39.7422L49.2556 58.2956ZM48.0962 38.6829H45.0692V3.89222C45.0692 3.67802 45.1129 3.47481 45.1922 3.29081V3.28807C45.4246 2.74983 45.9579 2.37359 46.5786 2.37359C47.1775 2.37359 47.6943 2.7251 47.9404 3.23042L48.0251 3.43913C48.0689 3.58193 48.0935 3.73571 48.0935 3.89499V38.6857L48.0962 38.6829ZM50.1279 8.61295L56.4883 24.2852H50.1279V8.61295ZM61.1344 28.0667H50.1279V26.3229H57.9948H57.9975H58.003H61.134L61.1344 28.0667Z" fill="#1A237E"/>
</svg>
