<svg width="62" height="61" viewBox="0 0 62 61" fill="none" xmlns="http://www.w3.org/2000/svg">
<path d="M30.9999 12.6143H50.6668C50.9667 12.6143 51.2488 12.7681 51.4139 13.0217L61.2679 25.884H61.2653C61.4255 26.0582 61.5093 26.2913 61.4992 26.5296C61.4865 26.7679 61.3823 26.9908 61.2069 27.1497L44.2239 46.0537C43.8935 46.415 43.3343 46.4406 42.9709 46.1101C42.6075 45.7796 42.5795 45.2159 42.9023 44.8495L58.5911 27.3878H41.5932L33.0054 55.8672L40.5053 47.5191V47.5217C40.8357 47.1553 41.3949 47.1297 41.7583 47.4602C42.1218 47.7907 42.1523 48.3544 41.8269 48.7234L31.6783 60.0153C31.508 60.2151 31.2589 60.333 30.9971 60.333C30.7353 60.333 30.4862 60.2151 30.3185 60.0153L0.793108 27.1497C0.617741 26.9908 0.513534 26.7679 0.500827 26.5296C0.490661 26.2914 0.574532 26.0582 0.734654 25.884L10.5834 13.0217C10.7486 12.7681 11.0307 12.6143 11.3331 12.6143H19.3796C19.8726 12.6169 20.2691 13.0192 20.2691 13.5137C20.2691 14.0108 19.8727 14.413 19.3796 14.4156H13.1273L21.0723 25.0103L29.1825 14.4156H22.9532C22.7142 14.4156 22.4881 14.3208 22.3178 14.1517C22.15 13.9851 22.056 13.7545 22.056 13.5137C22.056 13.2754 22.15 13.0448 22.3178 12.8757C22.4881 12.7066 22.7143 12.6143 22.9532 12.6143L30.9999 12.6143ZM5.42647 8.99903C5.78229 8.52246 6.21947 8.11503 6.7176 7.7948C6.24487 7.43608 5.84074 6.99535 5.52309 6.49317C5.16473 6.96974 4.73009 7.37717 4.23196 7.6974C4.70469 8.05611 5.10883 8.49685 5.42647 8.99903ZM9.52095 8.80174C8.6746 8.76843 7.85115 9.07334 7.22849 9.65242C6.60835 10.2315 6.23984 11.036 6.20679 11.8893C6.189 12.3838 5.77726 12.7707 5.28672 12.7528C4.79366 12.7348 4.40985 12.3197 4.42768 11.8252C4.46326 10.972 4.15828 10.1393 3.58387 9.51408C3.00947 8.88634 2.21141 8.51739 1.36505 8.48407C0.87453 8.46613 0.490724 8.05105 0.508552 7.55651C0.526342 7.062 0.938078 6.67507 1.42862 6.69048C2.27497 6.72379 3.09842 6.41889 3.72109 5.8398C4.34122 5.26074 4.70973 4.45617 4.74278 3.60294C4.75041 3.36465 4.85207 3.13917 5.0249 2.97775C5.19772 2.81377 5.42646 2.72921 5.66283 2.7369C5.89919 2.74459 6.12285 2.84963 6.28297 3.02387C6.44563 3.1981 6.5295 3.42871 6.52187 3.66699C6.48629 4.52023 6.79128 5.35038 7.36569 5.97811C7.94008 6.6033 8.73815 6.97481 9.5845 7.00813C10.075 7.02606 10.4588 7.44115 10.441 7.93568C10.4232 8.43276 10.0115 8.81971 9.52095 8.80174ZM43.2274 5.51184C43.7688 5.745 44.2695 6.06784 44.699 6.47265C44.9302 5.92689 45.2505 5.42466 45.652 4.98912C45.1081 4.75852 44.6099 4.43311 44.1805 4.02831C43.9517 4.57663 43.6289 5.07885 43.2274 5.51184ZM44.4194 9.46279C44.244 8.62753 43.7458 7.89728 43.0342 7.43347C42.3252 6.9697 41.461 6.81084 40.635 6.9902C40.4012 7.04144 40.1597 6.99532 39.9615 6.86465C39.7607 6.73653 39.6209 6.53156 39.5726 6.29583C39.5243 6.06266 39.57 5.81925 39.6997 5.61943C39.8293 5.41957 40.0326 5.27865 40.2664 5.22997C41.0924 5.05317 41.8168 4.55094 42.2768 3.83355C42.7343 3.11871 42.8918 2.2475 42.7139 1.41479L42.6936 1.22774C42.6961 0.758855 43.0545 0.371945 43.5171 0.336066C43.9822 0.297633 44.3939 0.625602 44.4701 1.08678C44.8539 2.78296 46.5059 3.86171 48.1986 3.52089C48.435 3.45939 48.684 3.49527 48.8924 3.62594C49.1008 3.75405 49.2483 3.96416 49.2991 4.20245C49.3499 4.4433 49.3016 4.6944 49.1644 4.89938C49.0271 5.1018 48.8137 5.24016 48.5722 5.28115C46.8719 5.67318 45.7994 7.36939 46.1654 9.08866C46.267 9.57292 45.9595 10.0521 45.4766 10.1545C44.9962 10.257 44.521 9.94706 44.4194 9.46279ZM55.3859 44.8013C55.9298 45.0344 56.4254 45.365 56.8524 45.7749C57.0862 45.2292 57.4141 44.7295 57.8207 44.2965C57.2794 44.0633 56.7837 43.7328 56.3568 43.3228C56.1204 43.8686 55.7926 44.3708 55.3859 44.8013ZM56.5372 48.6959C56.1534 46.9868 54.4862 45.903 52.7834 46.254L52.608 46.272V46.2745C52.1378 46.2745 51.7489 45.9056 51.7184 45.4341C51.6879 44.9627 52.0234 44.545 52.4885 44.481C54.1609 44.1069 55.2385 42.462 54.9234 40.7632C54.8573 40.5249 54.8954 40.2661 55.0225 40.0534C55.1521 39.8433 55.363 39.6922 55.6045 39.6435C55.8485 39.5922 56.1001 39.646 56.3009 39.7895C56.5042 39.9356 56.6363 40.1559 56.6694 40.4045C57.0532 42.1109 58.7229 43.1973 60.4258 42.8438L60.6012 42.8258V42.8233C61.0688 42.8258 61.4577 43.1922 61.4882 43.6663C61.5212 44.1377 61.1832 44.5528 60.7181 44.6168C59.0457 44.9935 57.9681 46.6384 58.2833 48.3347C58.3519 48.5755 58.3163 48.8343 58.1867 49.047C58.0571 49.2622 57.8461 49.4108 57.6021 49.462C57.3607 49.5107 57.1065 49.4569 56.9057 49.3134C56.7024 49.1674 56.5703 48.9444 56.5372 48.6959ZM10.0776 51.5553C10.4995 51.9704 10.8477 52.4573 11.1044 52.9928C11.5136 52.5649 11.9965 52.2113 12.5277 51.9551C12.1032 51.5425 11.7551 51.0557 11.4984 50.5202C11.0892 50.9455 10.6063 51.2966 10.0776 51.5553ZM9.78282 55.6088C10.0243 53.8768 8.84752 52.2651 7.13198 51.9884C6.64655 51.909 6.31614 51.4503 6.3924 50.9609C6.47119 50.469 6.92613 50.1359 7.4141 50.2153C9.12964 50.4946 10.7512 49.3365 11.0587 47.6147C11.1045 47.1355 11.5137 46.7769 11.9889 46.7973C12.4642 46.8204 12.8404 47.2124 12.8429 47.6916H12.8404L12.8302 47.835C12.5532 49.5645 13.6994 51.1993 15.4099 51.5119C15.6564 51.5324 15.8826 51.6579 16.0351 51.8552C16.1876 52.0525 16.2511 52.3062 16.213 52.5522C16.1723 52.7981 16.0325 53.0185 15.8267 53.1568C15.6208 53.2952 15.3667 53.3413 15.1252 53.285C13.4325 53.0518 11.8543 54.1997 11.5416 55.8959C11.5188 56.1444 11.3942 56.3699 11.2011 56.5237C11.0054 56.6748 10.7563 56.7389 10.5123 56.7004C10.2683 56.6595 10.0523 56.5211 9.91248 56.3136C9.77523 56.1086 9.72945 55.8522 9.78282 55.6088ZM39.735 27.3886H22.264L30.9995 56.352L39.735 27.3886ZM20.4039 27.3886H3.4033L28.9943 55.8679L20.4039 27.3886ZM11.3229 14.9947L3.21266 25.5867H19.2704L11.3229 14.9947ZM22.8795 25.5893H39.1228L31.0002 14.9842L22.8795 25.5893ZM58.789 25.5893L50.6736 14.9947L42.7312 25.5893H58.789ZM48.8746 14.4155H32.8116L40.927 25.0101L48.8746 14.4155Z" fill="#D5D9DC"/>
</svg>
