<svg width="71" height="61" viewBox="0 0 71 61" fill="none" xmlns="http://www.w3.org/2000/svg">
<path d="M70.6624 15.688C70.6832 15.452 70.6314 15.2187 70.5397 14.9937C70.527 14.9619 70.5375 14.9266 70.5225 14.8958C70.5052 14.8602 70.4662 14.8446 70.4465 14.8109C70.4099 14.7474 70.3943 14.6766 70.3475 14.6173L59.4066 0.895607C59.1235 0.539554 58.6916 0.333008 58.2392 0.333008H13.0919C12.6396 0.333008 12.2077 0.539554 11.9245 0.895607L0.98651 14.6173C0.939657 14.6764 0.924136 14.7473 0.887532 14.8109C0.867619 14.8446 0.828818 14.8602 0.811541 14.8958C0.79646 14.9268 0.807002 14.9621 0.794264 14.9937C0.70246 15.2187 0.650775 15.452 0.671566 15.688C0.672298 15.6967 0.668638 15.7049 0.669516 15.7134C0.694993 15.9573 0.798949 16.183 0.940535 16.3904C0.958398 16.4167 0.955323 16.451 0.974943 16.4764L34.4866 59.7544C34.5046 59.7775 34.5339 59.7864 34.5529 59.8083C34.644 59.9136 34.756 59.9942 34.876 60.0719C34.9389 60.1122 34.9919 60.1616 35.0601 60.1922C35.0803 60.2013 35.093 60.2192 35.1138 60.2275C35.2948 60.2992 35.4815 60.333 35.6654 60.333C35.6775 60.333 35.6879 60.3254 35.7002 60.3249C35.7098 60.3251 35.7172 60.333 35.7267 60.333C35.9106 60.333 36.0973 60.2993 36.2783 60.2275C36.6625 60.0741 36.9477 59.7788 37.099 59.4255L70.3591 16.4763C70.3788 16.4508 70.3756 16.4166 70.3935 16.3903C70.535 16.1828 70.639 15.9572 70.6645 15.7133C70.6654 15.7048 70.6617 15.6965 70.6624 15.688ZM58.679 4.78588L66.0689 14.0547H55.008L58.679 4.78588ZM56.0374 3.33344L52.1611 13.1208L39.9361 3.33344H56.0374ZM48.5345 14.0547H22.847L35.6683 3.75388L48.5345 14.0547ZM31.4055 3.33344L19.2294 13.1165L15.3548 3.33344H31.4055ZM12.6927 4.73472L16.3839 14.0547H5.26425L12.6927 4.73472ZM5.20934 17.0552H17.5723L30.5171 49.74L5.20934 17.0552ZM35.696 54.6944L20.7892 17.0552H50.6028L35.696 54.6944ZM40.9386 49.5795L53.8197 17.0553H66.1242L40.9386 49.5795Z" fill="#1A237E"/>
</svg>
