<svg width="63" height="61" viewBox="0 0 63 61" fill="none" xmlns="http://www.w3.org/2000/svg">
<path d="M62.3331 46.7937C62.3573 42.4489 58.5285 39.0999 54.2167 39.4363V30.4228C54.2167 29.7627 53.6732 29.2226 53.0089 29.2226H49.0836V20.2092C49.0836 19.549 48.5401 19.0089 47.8758 19.0089H37.5973C36.933 19.0089 36.3895 19.549 36.3895 20.2092V29.2226H32.4641C31.7998 29.2226 31.2563 29.7627 31.2563 30.4228V39.4363H26.0023V32.9431C26.0265 30.4346 24.5047 27.9741 22.1736 26.9539C21.8717 26.4138 21.5093 25.9097 21.0383 25.5016L11.8953 17.6043C11.9194 17.1842 11.8591 16.7761 11.7745 16.38L17.4512 9.27463L23.9492 14.9997C23.9854 15.1438 24.0337 15.2758 24.082 15.4078C23.5868 15.9959 22.2824 16.8481 22.3911 17.6282L22.536 21.1209C22.5602 21.601 22.8621 22.0331 23.3211 22.2011L28.0194 23.9174C28.4905 24.0855 29.0219 23.9534 29.348 23.5814C29.6742 23.1973 29.7345 22.6572 29.493 22.2251L27.633 18.8405L28.4301 17.6763C29.6862 17.3882 30.7612 16.3081 31.051 15.0718L32.2346 14.2797L35.6406 16.128C36.0754 16.3681 36.631 16.3081 37.0054 15.984C37.3798 15.6599 37.5248 15.1318 37.3436 14.6637L35.6164 9.99481C35.4473 9.53872 35.0246 9.22666 34.5294 9.21468L31.0147 9.07065C30.2176 8.97463 29.3721 10.2589 28.7803 10.751C28.6474 10.703 28.5025 10.655 28.3575 10.6189L20.4104 1.70151C18.5504 -0.650948 14.5163 0.177194 13.7313 3.05775L5.55453 11.8438C-1.24542 12.564 -1.45072 22.1777 5.21635 23.2217L12.7047 31.7911C12.4752 32.4753 12.6202 38.6204 12.5839 39.4606C2.88519 38.7285 0.904782 52.1113 10.3495 54.0678V59.1328C10.3495 59.7929 10.893 60.333 11.5573 60.333H15.0358C15.5069 60.333 15.9417 60.0569 16.1349 59.6369L16.9925 57.7645H49.4706L50.3282 59.6369C50.5214 60.069 50.9562 60.333 51.4273 60.333H54.9058C55.57 60.333 56.1136 59.7929 56.1136 59.1328V54.0678C59.6161 53.4916 62.2975 50.4671 62.2975 46.8183L62.3331 46.7937ZM51.8011 39.4483H43.9382V31.6347H45.2789V34.6953C45.2789 35.3554 45.8224 35.8955 46.4867 35.8955H49.2525C49.9168 35.8955 50.4603 35.3554 50.4603 34.6953V31.6347H51.801L51.8011 39.4483ZM48.0448 31.6347V33.4951H47.6946V31.6347H48.0448ZM42.8996 21.4206V23.281H42.5494V21.4206H42.8996ZM38.8051 21.4206H40.1458V24.4812C40.1458 25.1413 40.6893 25.6815 41.3536 25.6815H44.1195C44.7838 25.6815 45.3273 25.1413 45.3273 24.4812V21.4206H46.668V29.2342H38.8051L38.8051 21.4206ZM37.4161 31.6347H37.7664V33.4951H37.4161V31.6347ZM33.6599 31.6347H35.0005V34.6953C35.0005 35.3554 35.544 35.8955 36.2083 35.8955H38.9742C39.6385 35.8955 40.182 35.3554 40.182 34.6953V31.6347H41.5227V39.4483H33.6598L33.6599 31.6347ZM26.5942 13.2713C26.8962 12.9833 27.2102 12.8872 27.5967 12.8992C28.5871 12.9112 29.191 14.3035 28.406 15.0356C27.7055 15.8038 26.3165 15.2757 26.244 14.2675C26.2198 13.9914 26.2802 13.5954 26.5942 13.2713ZM24.9033 20.2327L24.8188 18.0603L25.628 17.2561C25.628 17.2561 25.7126 17.3041 25.7488 17.3161L25.2294 18.0842C24.6255 18.8404 25.5193 19.8846 25.8454 20.5568L24.9154 20.2207L24.9033 20.2327ZM31.4496 11.4827L33.6357 11.5667L33.9739 12.4909C33.2855 12.1668 32.2467 11.2786 31.4858 11.8787L30.7249 12.3948C30.7007 12.3588 30.6887 12.3108 30.6645 12.2748L31.4616 11.4827L31.4496 11.4827ZM18.478 3.12906L25.5437 11.0625C25.3263 11.2065 25.1209 11.3626 24.9156 11.5546C24.7103 11.7586 24.5412 11.9747 24.3962 12.2027L18.0915 6.65761C17.234 5.76947 15.7122 5.0733 16.0141 3.82506C16.2436 2.74488 17.705 2.30074 18.478 3.11691L18.478 3.12906ZM14.1299 6.15365C14.3594 6.47771 14.601 6.80177 14.9029 7.06582L15.6276 7.70194L10.6273 13.9551C10.0475 13.223 9.27453 12.6709 8.44116 12.2748L14.1299 6.15365ZM2.71591 17.5199C2.71591 13.7632 8.12686 12.8871 9.29841 16.4998C9.45542 16.9559 9.50374 17.436 9.41919 17.964C9.20179 19.6203 7.77658 20.8685 6.03735 20.8806C4.20149 20.8566 2.70381 19.3683 2.70381 17.5199H2.71591ZM8.24761 22.861C9.51578 22.3449 10.5666 21.4087 11.1946 20.2204L18.3086 26.3656C16.4486 26.6537 14.7576 27.7099 13.7069 29.2582L8.15098 22.909C8.15098 22.909 8.21137 22.873 8.23553 22.861H8.24761ZM15.0113 32.9552C15.0113 32.5471 15.0717 32.1631 15.1804 31.767C16.5694 27.086 23.538 28.0702 23.5627 32.9552V39.4484H14.9995V32.9552H15.0113ZM53.7337 57.9078H52.236L51.3784 56.0354C51.1852 55.6033 50.7504 55.3393 50.2793 55.3393H16.2552C15.7842 55.3393 15.3493 55.6153 15.1561 56.0354L14.2985 57.9078H12.8008V54.163H53.7456V57.9078H53.7337ZM54.9294 51.7506H11.5815C8.82766 51.7506 6.59324 49.5302 6.59324 46.7936C6.59324 44.0571 8.82766 41.8367 11.5815 41.8367H13.8038H24.7826H54.9418C61.5122 42.0407 61.5363 51.5346 54.9418 51.7504L54.9294 51.7506Z" fill="#1A237E"/>
<path d="M54.9293 42.9043H11.5814C6.42406 43.0363 6.39994 50.5498 11.5814 50.6941H54.9417C60.0991 50.5621 60.1232 43.0486 54.9417 42.9043H54.9293ZM54.9293 48.2933C52.9606 48.2573 52.9606 45.3407 54.9293 45.3048C56.8981 45.3408 56.8981 48.2574 54.9293 48.2933ZM10.0717 46.7931C10.108 44.8367 13.043 44.8367 13.0792 46.7931C13.0429 48.7494 10.1079 48.7494 10.0717 46.7931ZM15.1928 45.3048H18.8042C18.4056 46.2169 18.4056 47.3811 18.8042 48.2933H15.1928C15.5914 47.3811 15.5914 46.2169 15.1928 45.3048ZM20.9178 46.7931C20.954 44.8367 23.889 44.8367 23.9252 46.7931C23.889 48.7494 20.9539 48.7494 20.9178 46.7931ZM26.0389 45.3048H29.6502C29.2516 46.2169 29.2516 47.3811 29.6502 48.2933H26.0389C26.4374 47.3811 26.4374 46.2169 26.0389 45.3048ZM31.7517 46.7931C31.788 44.8367 34.723 44.8367 34.7592 46.7931C34.7229 48.7494 31.7879 48.7494 31.7517 46.7931ZM36.8728 45.3048H40.4842C40.0856 46.2169 40.0856 47.3811 40.4842 48.2933H36.8728C37.2714 47.3811 37.2714 46.2169 36.8728 45.3048ZM42.5978 46.7931C42.634 44.8367 45.569 44.8367 45.6052 46.7931C45.569 48.7494 42.634 48.7494 42.5978 46.7931ZM47.7068 45.3048H51.3182C50.9196 46.2169 50.9196 47.3811 51.3182 48.2933H47.7068C48.1054 47.3811 48.1054 46.2169 47.7068 45.3048Z" fill="#1A237E"/>
<path d="M19.2875 29.7383C15.3622 29.8463 15.3622 35.5594 19.2875 35.6554C23.2129 35.5474 23.2129 29.8343 19.2875 29.7383ZM19.2875 33.2549C18.5508 33.2549 18.5508 32.1387 19.2875 32.1387C20.0243 32.1387 20.0243 33.2549 19.2875 33.2549Z" fill="#1A237E"/>
<path d="M7.3177 17.5314C7.29355 15.9591 4.91416 15.9471 4.9021 17.5314C4.92626 19.1037 7.29359 19.1157 7.3177 17.5314Z" fill="#1A237E"/>
</svg>
