<svg width="72" height="61" viewBox="0 0 72 61" fill="none" xmlns="http://www.w3.org/2000/svg">
<path fill-rule="evenodd" clip-rule="evenodd" d="M12.5008 37.718H26.5383V23.4622H12.5008V37.718ZM27.3507 39.3351H11.6876C11.2396 39.3351 10.875 38.9724 10.875 38.5266V22.6503C10.875 22.2045 11.2396 21.8418 11.6876 21.8418H27.3507C27.7987 21.8418 28.1633 22.2046 28.1633 22.6503V38.5266C28.1633 38.9724 27.7987 39.3351 27.3507 39.3351Z" fill="#D5D9DC"/>
<path fill-rule="evenodd" clip-rule="evenodd" d="M17.7727 23.4589V27.8307L18.8758 26.4042C19.0303 26.2043 19.2682 26.0875 19.5216 26.0875C19.775 26.0875 20.0129 26.2043 20.1674 26.4042L21.2674 27.8307V23.4589H17.7727ZM16.9601 31.0219C16.8736 31.0219 16.784 31.0066 16.6975 30.9789C16.3668 30.8651 16.1475 30.5577 16.1475 30.2134V22.6503C16.1475 22.2045 16.5121 21.8418 16.9601 21.8418H22.0771C22.5251 21.8418 22.8897 22.2046 22.8897 22.6503V30.2134C22.8897 30.5608 22.6672 30.8682 22.3397 30.9789C22.009 31.0896 21.6444 30.9789 21.4343 30.7053L19.5186 28.2273L17.6028 30.7053C17.4452 30.9082 17.2073 31.0219 16.957 31.0219L16.9601 31.0219Z" fill="#D5D9DC"/>
<path fill-rule="evenodd" clip-rule="evenodd" d="M45.4617 37.718H59.4993V23.4622H45.4617V37.718ZM60.3116 39.3351H44.6486C44.2005 39.3351 43.8359 38.9724 43.8359 38.5266V22.6503C43.8359 22.2045 44.2006 21.8418 44.6486 21.8418H60.3116C60.7628 21.8418 61.1243 22.2046 61.1243 22.6503V38.5266C61.1243 38.9724 60.7627 39.3351 60.3116 39.3351Z" fill="#D5D9DC"/>
<path fill-rule="evenodd" clip-rule="evenodd" d="M52.4787 26.0906C52.7321 26.0906 52.97 26.2074 53.1245 26.4073L54.2245 27.8338V23.462H50.7328V27.8338L51.8359 26.4073C51.9904 26.2074 52.2283 26.0906 52.4817 26.0906H52.4787ZM55.0372 31.0219C54.79 31.0219 54.549 30.9082 54.3914 30.7053L52.4756 28.2273L50.5598 30.7053C50.3466 30.982 49.982 31.0896 49.6545 30.9789C49.3239 30.8651 49.1045 30.5577 49.1045 30.2134V22.6503C49.1045 22.2045 49.4691 21.8418 49.9171 21.8418H55.0341C55.4821 21.8418 55.8467 22.2046 55.8467 22.6503V30.2134C55.8467 30.5608 55.6242 30.8682 55.2967 30.9789C55.2102 31.0066 55.1237 31.0219 55.0341 31.0219L55.0372 31.0219Z" fill="#D5D9DC"/>
<path fill-rule="evenodd" clip-rule="evenodd" d="M11.8583 39.35C6.49106 39.35 2.12477 43.6941 2.12477 49.0346C2.12477 54.3748 6.49082 58.716 11.8583 58.716H60.1417C65.5089 58.716 69.8752 54.3719 69.8752 49.0346C69.8752 43.6943 65.5092 39.35 60.1417 39.35H11.8583ZM60.1417 60.3326H11.8583C5.59499 60.3326 0.5 55.2629 0.5 49.0346C0.5 42.8028 5.59531 37.7334 11.8583 37.7334H60.1417C66.405 37.7334 71.5 42.8031 71.5 49.0346C71.5 55.2664 66.4047 60.3358 60.1417 60.3326Z" fill="#D5D9DC"/>
<path fill-rule="evenodd" clip-rule="evenodd" d="M11.6885 43.3995C8.56772 43.3995 6.02782 45.9266 6.02782 49.0318C6.02782 52.1369 8.56772 54.664 11.6885 54.664C14.8094 54.664 17.3493 52.1369 17.3493 49.0318C17.3493 45.9266 14.8094 43.3995 11.6885 43.3995ZM11.6885 56.2842C7.66856 56.2842 4.39941 53.0315 4.39941 49.0318C4.39941 45.032 7.66856 41.7793 11.6885 41.7793C15.7085 41.7793 18.9777 45.032 18.9777 49.0318C18.9777 53.0285 15.7085 56.2842 11.6885 56.2842Z" fill="#D5D9DC"/>
<path fill-rule="evenodd" clip-rule="evenodd" d="M11.6882 46.9287C10.5202 46.9287 9.57161 47.8726 9.57161 49.0347C9.57161 50.1938 10.5202 51.1407 11.6882 51.1407C12.8563 51.1407 13.8049 50.1969 13.8049 49.0347C13.8049 47.8726 12.8563 46.9287 11.6882 46.9287ZM11.6882 52.7578C9.62413 52.7578 7.94629 51.0884 7.94629 49.0346C7.94629 46.9809 9.62413 45.3115 11.6882 45.3115C13.7523 45.3115 15.4302 46.984 15.4302 49.0346C15.4302 51.0884 13.7523 52.7578 11.6882 52.7578Z" fill="#D5D9DC"/>
<path fill-rule="evenodd" clip-rule="evenodd" d="M27.8923 46.9287C26.7243 46.9287 25.7757 47.8726 25.7757 49.0347C25.7757 50.1938 26.7243 51.1407 27.8923 51.1407C29.0604 51.1407 30.009 50.1969 30.009 49.0347C30.009 47.8726 29.0604 46.9287 27.8923 46.9287ZM27.8923 52.7578C25.8282 52.7578 24.1504 51.0884 24.1504 49.0346C24.1504 46.9809 25.8282 45.3115 27.8923 45.3115C29.9564 45.3115 31.6343 46.984 31.6343 49.0346C31.6343 51.0884 29.9564 52.7578 27.8923 52.7578Z" fill="#D5D9DC"/>
<path fill-rule="evenodd" clip-rule="evenodd" d="M44.1082 46.9287C42.9401 46.9287 41.9915 47.8726 41.9915 49.0347C41.9915 50.1938 42.9401 51.1407 44.1082 51.1407C45.2762 51.1407 46.2248 50.1969 46.2248 49.0347C46.2248 47.8726 45.2762 46.9287 44.1082 46.9287ZM44.1082 52.7578C42.0441 52.7578 40.3662 51.0884 40.3662 49.0346C40.3662 46.9809 42.0441 45.3115 44.1082 45.3115C46.1723 45.3115 47.8501 46.984 47.8501 49.0346C47.8501 51.0884 46.1723 52.7578 44.1082 52.7578Z" fill="#D5D9DC"/>
<path fill-rule="evenodd" clip-rule="evenodd" d="M60.3123 46.9287C59.1473 46.9287 58.1956 47.8726 58.1956 49.0347C58.1956 50.1938 59.1442 51.1407 60.3123 51.1407C61.4803 51.1407 62.4289 50.1969 62.4289 49.0347C62.4289 47.8726 61.4803 46.9287 60.3123 46.9287ZM60.3123 52.7578C58.2512 52.7578 56.5703 51.0884 56.5703 49.0346C56.5703 46.9809 58.2512 45.3115 60.3123 45.3115C62.3764 45.3115 64.0542 46.984 64.0542 49.0346C64.0542 51.0884 62.3733 52.7578 60.3123 52.7578Z" fill="#D5D9DC"/>
<path fill-rule="evenodd" clip-rule="evenodd" d="M27.8926 43.3995C24.7718 43.3995 22.2319 45.9266 22.2319 49.0318C22.2319 52.1369 24.7718 54.664 27.8926 54.664C31.0135 54.664 33.5534 52.1369 33.5534 49.0318C33.5534 45.9266 31.0135 43.3995 27.8926 43.3995ZM27.8926 56.2842C23.8757 56.2842 20.6035 53.0315 20.6035 49.0318C20.6035 45.032 23.8727 41.7793 27.8926 41.7793C31.9126 41.7793 35.1818 45.032 35.1818 49.0318C35.1818 53.0285 31.9126 56.2842 27.8926 56.2842Z" fill="#D5D9DC"/>
<path fill-rule="evenodd" clip-rule="evenodd" d="M44.1085 43.3995C40.9876 43.3995 38.4477 45.9266 38.4477 49.0318C38.4477 52.1369 40.9876 54.664 44.1085 54.664C47.2293 54.664 49.7692 52.1369 49.7692 49.0318C49.7692 45.9266 47.2293 43.3995 44.1085 43.3995ZM44.1085 56.2842C40.0916 56.2842 36.8193 53.0315 36.8193 49.0318C36.8193 45.032 40.0885 41.7793 44.1085 41.7793C48.1285 41.7793 51.3976 45.032 51.3976 49.0318C51.3976 53.0285 48.1285 56.2842 44.1085 56.2842Z" fill="#D5D9DC"/>
<path fill-rule="evenodd" clip-rule="evenodd" d="M60.3124 43.3995C57.1916 43.3995 54.6517 45.9266 54.6517 49.0318C54.6517 52.1369 57.1916 54.664 60.3124 54.664C63.4363 54.664 65.9731 52.1369 65.9731 49.0318C65.9731 45.9266 63.4332 43.3995 60.3124 43.3995ZM60.3124 56.2842C56.2955 56.2842 53.0264 53.0315 53.0264 49.0318C53.0264 45.032 56.2955 41.7793 60.3124 41.7793C64.3324 41.7793 67.6015 45.032 67.6015 49.0318C67.6015 53.0285 64.3324 56.2842 60.3124 56.2842Z" fill="#D5D9DC"/>
<path fill-rule="evenodd" clip-rule="evenodd" d="M31.5442 11.2503H3.33313C2.88508 11.2503 2.52051 10.8875 2.52051 10.4418V3.17084C2.52051 2.72505 2.88512 2.3623 3.33313 2.3623H31.5442C31.9923 2.3623 32.3568 2.72201 32.3568 3.17084C32.3568 3.61966 31.9922 3.97937 31.5442 3.97937H4.14551V9.63318H31.5442C31.9923 9.63318 32.3568 9.99597 32.3568 10.4417C32.3568 10.8875 31.9922 11.2503 31.5442 11.2503Z" fill="#D5D9DC"/>
<path fill-rule="evenodd" clip-rule="evenodd" d="M68.6673 11.2502H40.4562C40.0081 11.2502 39.6436 10.8875 39.6436 10.4417C39.6436 9.99597 40.0082 9.63318 40.4562 9.63318H67.8549V3.97937H40.4562C40.0081 3.97937 39.6436 3.61966 39.6436 3.17084C39.6436 2.72505 40.0082 2.3623 40.4562 2.3623H68.6673C69.1153 2.3623 69.4799 2.72201 69.4799 3.17084V10.4418C69.4799 10.8876 69.1153 11.2502 68.6673 11.2502Z" fill="#D5D9DC"/>
<path fill-rule="evenodd" clip-rule="evenodd" d="M33.1859 11.6559H38.8157L41.6307 6.80452L38.8157 1.95309H33.1859L30.3709 6.80452L33.1859 11.6559ZM39.2823 13.2731H32.7162C32.4257 13.2731 32.1569 13.1194 32.0117 12.8673L28.7271 7.20731C28.5819 6.95828 28.5819 6.64777 28.7271 6.39878L32.0117 0.738824C32.1569 0.486726 32.4257 0.333008 32.7162 0.333008H39.2823C39.5728 0.333008 39.8416 0.486726 39.9868 0.738824L43.2714 6.39878C43.4166 6.64781 43.4166 6.95832 43.2714 7.20731L39.9868 12.8673C39.8416 13.1163 39.5727 13.2731 39.2823 13.2731Z" fill="#D5D9DC"/>
<path fill-rule="evenodd" clip-rule="evenodd" d="M38.8988 29.672C38.7597 29.672 38.6207 29.6382 38.494 29.5644C38.1046 29.34 37.9718 28.8481 38.1973 28.4607L40.8609 23.8645L38.4322 19.6742H33.5748L31.1461 23.8645L33.8097 28.4607C34.0353 28.8481 33.8993 29.3431 33.513 29.5644C33.1237 29.7888 32.6262 29.6536 32.4038 29.2693L29.5054 24.2672C29.3602 24.0182 29.3602 23.7076 29.5054 23.4587L32.4038 18.4566C32.549 18.2076 32.8178 18.0508 33.1083 18.0508H38.905C39.1955 18.0508 39.4643 18.2045 39.6095 18.4566L42.5079 23.4556C42.6531 23.7046 42.6531 24.0151 42.5079 24.2641L39.6095 29.2631C39.4581 29.5214 39.1862 29.6689 38.905 29.6689L38.8988 29.672Z" fill="#D5D9DC"/>
<path fill-rule="evenodd" clip-rule="evenodd" d="M36.0001 19.6711C35.5521 19.6711 35.1875 19.3083 35.1875 18.8626V12.4648C35.1875 12.019 35.5521 11.6562 36.0001 11.6562C36.4481 11.6562 36.8127 12.019 36.8127 12.4648V18.8626C36.8127 19.3084 36.4481 19.6711 36.0001 19.6711Z" fill="#D5D9DC"/>
</svg>
