<svg width="62" height="61" viewBox="0 0 62 61" fill="none" xmlns="http://www.w3.org/2000/svg">
<path d="M53.0449 25.0342C52.6599 25.1337 52.4328 25.5318 52.5315 25.9199C53.4004 29.1941 53.6176 32.5677 53.193 35.9613C52.5512 41.0765 50.4679 45.6543 47.4268 49.3465C47.1009 48.0328 47.1404 46.6396 47.6144 45.4454C48.0389 44.4004 48.7301 43.4749 49.4706 42.4996L49.9248 41.8926C50.1618 41.5741 50.0927 41.1163 49.7767 40.8775C49.4608 40.6386 49.0066 40.7083 48.7696 41.0268L48.3253 41.6239C47.565 42.629 46.7751 43.6739 46.2814 44.908C45.5804 46.6694 45.61 48.7692 46.311 50.6302C41.4038 55.8549 34.4428 59.0096 26.9486 58.8703C26.9091 58.6912 26.8696 58.5021 26.84 58.323C26.6228 57.1785 26.4056 55.9943 25.7835 54.9493C24.8258 53.3272 23.0189 52.2126 20.4023 51.6254C19.7803 51.4861 19.1484 51.3866 18.5165 51.2771C17.1934 51.0582 15.9394 50.8492 14.7743 50.3715C13.3722 49.7843 11.7233 48.4707 11.6641 46.6694C11.6048 44.9677 13.076 43.5147 14.5768 42.828C15.8604 42.2508 17.2822 42.0319 18.7732 41.803C19.2471 41.7333 19.721 41.6537 20.195 41.5741C21.9031 41.2656 24.3518 40.6386 25.8724 38.7976C26.5932 37.9218 27.0276 36.8968 27.4423 35.9016C27.6892 35.3045 27.9261 34.7372 28.2322 34.1998C29.3381 32.2194 31.4017 30.7864 33.6332 30.458C34.5909 30.3087 35.5882 30.4381 36.3089 30.8162C36.6644 30.9954 37.0988 30.856 37.2766 30.4978C37.4543 30.1395 37.3161 29.7016 36.9606 29.5225C35.9634 29.005 34.6699 28.8259 33.4159 29.0249C30.7599 29.413 28.2915 31.1247 26.9684 33.4933C26.6327 34.1003 26.3661 34.7273 26.1094 35.3443C25.7144 36.2798 25.3491 37.1555 24.7665 37.872C23.5422 39.3549 21.4292 39.8823 19.9383 40.151C19.4742 40.2306 19.0101 40.3003 18.5461 40.3699C17.0156 40.5988 15.4358 40.8377 13.9647 41.5044C12.1676 42.3205 10.1139 44.1815 10.2028 46.7192C10.2818 49.1972 12.4046 50.9586 14.2016 51.715C15.5148 52.2524 16.907 52.4912 18.2499 52.7102C18.862 52.8097 19.4643 52.9092 20.0666 53.0386C22.2685 53.5362 23.7693 54.4219 24.5197 55.6857C25.0134 56.5117 25.201 57.5169 25.3985 58.5817C25.4083 58.6514 25.4281 58.721 25.4379 58.7907C25.0035 58.7608 24.5592 58.7111 24.1149 58.6514C9.9263 56.8601 -0.174542 43.7137 1.62248 29.3832C1.78046 28.1193 2.03718 26.8753 2.36301 25.6612C4.27852 25.5716 6.63834 24.4968 7.53685 23.8102C7.67508 23.7007 7.81332 23.5912 7.96142 23.4818C8.7217 22.8747 9.44248 22.3074 10.104 22.4766C10.6273 22.6159 10.9532 23.1832 11.0618 23.422C11.2296 23.7903 11.3481 24.1883 11.4567 24.6163C11.516 24.8352 11.5752 25.0541 11.6443 25.2631C12.4836 28.0297 14.5768 30.3186 17.2329 31.3835C17.8845 31.6522 18.6349 31.8313 19.3755 31.8313C20.3036 31.8313 21.2021 31.5427 21.8538 30.7963C22.5449 30.0101 22.7819 28.8259 22.5054 27.552C22.3771 26.945 22.1697 26.3777 21.9624 25.8204C21.8439 25.502 21.7254 25.1935 21.6267 24.875C21.0046 22.805 21.2614 20.6256 21.5378 18.3068C21.7748 16.3463 22.0118 14.3062 21.6761 12.3059C21.3996 10.6439 20.6788 9.05166 19.6421 7.66836C20.6788 7.33995 21.7452 7.0812 22.8115 6.88217C22.7325 7.93706 22.9004 8.99195 23.3348 9.95727C23.5817 10.4947 23.8976 11.0122 24.2728 11.4799C24.4111 11.659 24.6184 11.7486 24.8356 11.7486C24.9936 11.7486 25.1615 11.6988 25.2898 11.5894C25.5959 11.3406 25.6453 10.8828 25.3985 10.5643C25.0924 10.1862 24.8455 9.78809 24.6579 9.36016C24.2827 8.52421 24.1642 7.56884 24.2926 6.65328C26.4056 6.39453 28.558 6.39453 30.6908 6.66323C32.0237 6.83241 33.3468 7.11106 34.6205 7.47928C35.0056 7.58875 35.4006 7.36981 35.5092 6.98169C35.6178 6.59357 35.4006 6.1955 35.0155 6.08603C33.6628 5.69791 32.2706 5.4093 30.8685 5.23017C26.0402 4.62311 21.133 5.30979 16.6799 7.22053C16.3146 7.37976 16.1468 7.80768 16.2949 8.1759C16.4133 8.45455 16.6799 8.61378 16.9564 8.61378C17.0551 8.61378 17.144 8.59388 17.2427 8.55407C17.5587 8.41474 17.8944 8.29532 18.2202 8.1759C19.2767 9.43978 20.0074 10.9724 20.274 12.5447C20.5702 14.346 20.353 16.1871 20.1259 18.1376C19.8494 20.4962 19.5532 22.9344 20.2641 25.3029C20.3727 25.6512 20.5011 25.9896 20.6294 26.328C20.8269 26.8455 21.0046 27.343 21.1132 27.8506C21.2021 28.2387 21.3403 29.204 20.7874 29.831C20.116 30.6072 18.7534 30.4281 17.7957 30.03C15.5642 29.1344 13.7474 27.144 13.0464 24.8252C12.9872 24.6262 12.9279 24.4272 12.8785 24.2281C12.7502 23.7604 12.6218 23.2827 12.3947 22.7951C11.9603 21.8795 11.279 21.2725 10.4891 21.0635C9.12652 20.7152 8.00092 21.6108 7.09253 22.3373C6.9543 22.4468 6.82594 22.5463 6.69758 22.6458C5.94718 23.2131 4.2489 23.9495 2.84682 24.1485C3.459 22.3572 4.2489 20.6455 5.24614 19.0134C5.45349 18.675 5.34488 18.2272 5.00917 18.0182C4.66359 17.8092 4.22915 17.9187 4.0218 18.2571C1.99768 21.6009 0.714095 25.283 0.220408 29.1941C-1.68522 44.3208 8.97842 58.1936 23.9865 60.1143C25.1516 60.2636 26.3068 60.3332 27.4522 60.3332C41.0483 60.3332 52.887 50.1028 54.6445 36.1504C55.0987 32.5677 54.8617 29.005 53.9434 25.5517C53.825 25.1636 53.43 24.9347 53.0449 25.0342Z" fill="#D5D9DC"/>
<path d="M37.7802 44.6688C38.7379 44.6688 39.6957 44.1514 40.3474 43.4945C40.9793 42.8576 41.473 42.0615 41.8679 41.0663C42.016 40.6981 41.8383 40.2702 41.4631 40.1209C41.0978 39.9716 40.6732 40.1507 40.5251 40.5289C40.1992 41.335 39.8142 41.9719 39.3205 42.4695C38.7676 43.0268 37.869 43.4348 37.3062 43.0965C36.9804 42.8875 36.7632 42.4098 36.7533 41.8823C36.7434 41.4843 36.3979 41.1758 36.0227 41.1658C35.6277 41.1758 35.3019 41.5042 35.3117 41.9022C35.3315 42.9173 35.7956 43.8528 36.5558 44.3305C36.931 44.5693 37.3556 44.6688 37.7802 44.6688Z" fill="#D5D9DC"/>
<path d="M15.0601 35.0451C14.3393 35.3935 13.5198 35.702 12.9372 35.4233C12.6114 35.274 12.3448 34.9257 12.0584 34.5575L11.8116 34.249C10.9328 33.1643 10.0936 33.015 9.54064 33.0747C8.84948 33.1543 8.21756 33.632 7.85223 34.3485C7.56589 34.9158 7.47703 35.5228 7.40792 36.0204C7.31905 36.6673 7.18082 37.6426 7.63501 38.4984C8.15832 39.4836 9.28393 40.021 10.9723 40.0907C11.1994 40.1007 11.4364 40.1007 11.6734 40.1007C13.658 40.1007 15.6624 39.7623 17.5285 39.1055C18.9503 38.6079 19.7896 37.9411 20.0266 37.1251C20.145 36.727 20.1747 36.11 19.6316 35.4034C18.2295 33.5325 16.0079 34.5874 15.0601 35.0451ZM17.0644 37.7222C15.1489 38.3989 13.0754 38.7174 11.0513 38.6278C9.90597 38.578 9.19506 38.2994 8.92847 37.8018C8.72112 37.4037 8.77049 36.8464 8.85936 36.2195C8.9186 35.8114 8.97784 35.3537 9.15557 35.0153C9.2938 34.7366 9.5209 34.5476 9.71837 34.5277C9.73812 34.5277 9.74799 34.5277 9.76774 34.5277C10.0343 34.5277 10.37 34.7565 10.7057 35.1745L10.923 35.4532C11.2784 35.911 11.6832 36.4384 12.3152 36.7369C13.4408 37.2743 14.6454 36.8564 15.6722 36.3588C17.2125 35.6223 17.9827 35.6024 18.506 36.2891C18.6344 36.4583 18.6936 36.6076 18.6541 36.7071C18.5949 36.936 18.1308 37.354 17.0644 37.7222Z" fill="#D5D9DC"/>
<path d="M60.9433 19.1518L59.4524 18.1169V14.0864C59.4524 13.539 59.245 13.0215 58.8501 12.6235C58.4551 12.2353 57.9515 12.0264 57.4184 12.0264C56.2928 12.0264 55.3844 12.9519 55.3844 14.0864V15.3005L54.7228 14.8427V11.5288C54.7228 10.9814 54.5155 10.4639 54.1304 10.0758C53.7453 9.68769 53.2319 9.46875 52.679 9.46875C51.5534 9.46875 50.645 10.3943 50.645 11.5288V12.0264L48.1469 10.3047V5.74678C48.1469 2.76124 45.7377 0.333008 42.7756 0.333008C39.8135 0.333008 37.4142 2.76124 37.4142 5.74678V10.3047L34.9161 12.0264V11.5288C34.9161 10.3943 33.9979 9.46875 32.8821 9.46875C32.3292 9.46875 31.8158 9.68769 31.4406 10.0659C31.0555 10.454 30.8383 10.9715 30.8383 11.5188V14.8328L30.1767 15.2905V14.0764C30.1767 12.9419 29.2585 12.0164 28.1427 12.0164C27.6095 12.0164 27.0961 12.2254 26.7012 12.6235C26.3161 13.0116 26.1087 13.5291 26.1087 14.0764V18.1069L24.6178 19.1419C23.9661 19.5897 23.5811 20.3361 23.5811 21.1322V24.2372C23.5811 24.6651 23.7687 25.0632 24.1044 25.322C24.3512 25.511 24.6375 25.6106 24.9436 25.6106C25.0522 25.6106 25.1609 25.6006 25.2793 25.5707L37.424 22.5354V23.9486C37.424 24.8841 37.5524 25.8096 37.8091 26.7451L39.5074 31.8205L34.847 35.0449C34.3928 35.3633 34.1163 35.8808 34.1163 36.4481V38.2294C34.1163 38.5678 34.2644 38.8862 34.531 39.0952C34.7976 39.3042 35.1333 39.3838 35.469 39.3042L42.7855 37.4731L50.1118 39.3042C50.2007 39.3241 50.2797 39.3341 50.3685 39.3341C50.6154 39.3341 50.8523 39.2545 51.0498 39.0952C51.3164 38.8862 51.4645 38.5678 51.4645 38.2294V36.4481C51.4645 35.8908 51.188 35.3633 50.7338 35.0449L46.0734 31.8205L47.7816 26.7053C48.0284 25.7996 48.1568 24.8741 48.1568 23.9486V22.5354L60.3015 25.5707C60.4101 25.6006 60.5187 25.6106 60.6372 25.6106C60.9433 25.6106 61.2296 25.511 61.4765 25.322C61.8122 25.0632 61.9998 24.6651 61.9998 24.2372V21.1322C61.98 20.3461 61.595 19.6096 60.9433 19.1518ZM56.8161 14.0963C56.8161 13.7679 57.0827 13.4893 57.4085 13.4893C57.5665 13.4893 57.7146 13.5589 57.8331 13.6684C57.9516 13.7779 58.0108 13.9371 58.0108 14.0963V17.1316L56.8161 16.3056V14.0963ZM52.0767 11.5288C52.0767 11.1904 52.3334 10.9217 52.6691 10.9217C52.8271 10.9217 52.9752 10.9814 53.0937 11.1008C53.2122 11.2103 53.2714 11.3695 53.2714 11.5288V13.8475L52.0767 13.0215V11.5288ZM32.2798 11.5288C32.2798 11.3695 32.3391 11.2203 32.4575 11.1008C32.5662 10.9914 32.7143 10.9317 32.8722 10.9317C33.1981 10.9317 33.4647 11.2004 33.4647 11.5387V13.0315L32.2699 13.8575V11.5288H32.2798ZM27.5503 14.0963C27.5503 13.9371 27.6095 13.7878 27.7182 13.6784C28.0835 13.3101 28.7351 13.6087 28.7351 14.0963V16.3056L27.5404 17.1316V14.0963H27.5503ZM25.0127 24.1476V21.1422C25.0127 20.8237 25.1707 20.5351 25.4274 20.356L37.4142 12.0662V21.0526L25.0127 24.1476ZM35.5382 37.8015V36.468C35.5382 36.3883 35.5777 36.3187 35.6468 36.2689L39.9715 33.2734L40.2874 34.2089C40.3664 34.4577 40.4948 34.6866 40.633 34.8956C40.6429 34.9055 40.6528 34.9254 40.6528 34.9354C40.712 35.015 40.7811 35.0946 40.8502 35.1643C40.87 35.1842 40.8897 35.214 40.9193 35.2439C40.9786 35.3036 41.0477 35.3633 41.1168 35.423C41.1464 35.4529 41.1859 35.4827 41.2156 35.5126C41.2847 35.5623 41.3538 35.6022 41.4229 35.642C41.4723 35.6718 41.5118 35.7017 41.5611 35.7216C41.6303 35.7514 41.6994 35.7813 41.7586 35.8111C41.8179 35.831 41.8672 35.8609 41.9265 35.8808C41.9956 35.9007 42.0548 35.9206 42.1239 35.9306C42.1931 35.9505 42.2523 35.9704 42.3214 35.9803C42.3807 35.9903 42.4498 35.9903 42.5189 36.0002C42.5781 36.0102 42.6374 36.0201 42.6966 36.0201C42.6571 36.0201 42.6275 36.0301 42.5979 36.04L35.5382 37.8015ZM50.0131 36.468V37.8015L42.9435 36.04C42.9138 36.0301 42.8743 36.0301 42.8447 36.0201C42.9138 36.0201 42.9731 36.0102 43.0323 36.0002C43.0916 35.9903 43.1508 35.9903 43.2199 35.9803C43.2989 35.9704 43.368 35.9505 43.4371 35.9306C43.4964 35.9107 43.5556 35.9007 43.605 35.8808C43.6741 35.8609 43.7432 35.831 43.8025 35.8012C43.8617 35.7713 43.921 35.7514 43.9703 35.7216C44.0296 35.6917 44.0789 35.6519 44.1283 35.6221C44.1876 35.5823 44.2468 35.5524 44.306 35.5126C44.3455 35.4827 44.385 35.4429 44.4245 35.4131C44.4936 35.3633 44.5529 35.3036 44.6121 35.2439C44.6319 35.224 44.6516 35.1941 44.6714 35.1742C44.7405 35.0946 44.8096 35.0249 44.8688 34.9354C44.8688 34.9354 44.8688 34.9354 44.8688 34.9254C45.0268 34.7065 45.1552 34.4676 45.244 34.2089L45.56 33.2734L49.8847 36.2689C49.9736 36.3087 50.0131 36.3883 50.0131 36.468ZM46.7054 23.9685C46.7054 24.7647 46.5967 25.5707 46.3993 26.3072L44.4048 32.2683L43.9111 33.7511C43.7432 34.2388 43.2989 34.5672 42.7855 34.5672C42.588 34.5672 42.4103 34.5075 42.2523 34.4179C41.9857 34.2786 41.7685 34.0497 41.6599 33.7412L41.0378 31.8901L39.1816 26.3271C38.9742 25.5508 38.8656 24.7547 38.8656 23.9486V5.74678C38.8656 3.56734 40.6231 1.79592 42.7855 1.79592C44.9478 1.79592 46.7152 3.56734 46.7152 5.74678V23.9685H46.7054ZM60.5385 24.1476L48.1469 21.0526V12.0662L60.1336 20.356C60.3904 20.5351 60.5483 20.8337 60.5483 21.1422V24.1476H60.5385Z" fill="#D5D9DC"/>
<path d="M43.8621 6.99087C43.2598 7.59792 42.2823 7.59792 41.68 6.99087C41.3937 6.70226 40.9395 6.70226 40.663 6.99087C40.3767 7.27947 40.3767 7.73725 40.663 8.0159C41.2455 8.60306 42.0058 8.89166 42.776 8.89166C43.5363 8.89166 44.3064 8.60306 44.889 8.0159C45.1753 7.7273 45.1753 7.26952 44.889 6.99087C44.6026 6.70226 44.1484 6.70226 43.8621 6.99087Z" fill="#D5D9DC"/>
<path d="M8.15934 18.5158C8.6234 18.5158 9.06772 18.3167 9.38368 17.9684C11.5658 15.5601 15.2388 11.0818 15.2388 8.13604C15.2388 4.21503 12.0693 1.02051 8.15934 1.02051C4.26908 1.02051 1.09961 4.21503 1.09961 8.13604C1.09961 11.0818 4.76277 15.5601 6.94486 17.9684C7.25095 18.3167 7.69527 18.5158 8.15934 18.5158ZM8.15934 2.47347C11.2696 2.47347 13.7874 5.01117 13.7874 8.13604C13.7874 9.8975 11.7435 13.2114 8.30744 16.9832C8.25807 17.0429 8.18896 17.0528 8.14946 17.0528C8.10997 17.0528 8.04085 17.0429 7.99148 16.9832C4.58504 13.2214 2.54118 9.90746 2.54118 8.14599C2.54118 5.02113 5.05898 2.47347 8.15934 2.47347Z" fill="#D5D9DC"/>
<path d="M11.3969 7.58822C11.3969 5.7969 9.94544 4.33398 8.16817 4.33398C6.39089 4.33398 4.93945 5.7969 4.93945 7.58822C4.93945 9.37954 6.39089 10.8425 8.16817 10.8425C9.94544 10.8425 11.3969 9.38949 11.3969 7.58822ZM6.38102 7.58822C6.38102 6.59304 7.18079 5.78695 8.16817 5.78695C9.15554 5.78695 9.95531 6.59304 9.95531 7.58822C9.95531 8.5834 9.15554 9.38949 8.16817 9.38949C7.18079 9.38949 6.38102 8.5834 6.38102 7.58822Z" fill="#D5D9DC"/>
</svg>
