<svg width="63" height="61" viewBox="0 0 63 61" fill="none" xmlns="http://www.w3.org/2000/svg">
<path d="M53.3784 25.0342C52.9933 25.1337 52.7663 25.5318 52.865 25.9199C53.7339 29.1941 53.9511 32.5677 53.5265 35.9613C52.8847 41.0765 50.8014 45.6543 47.7603 49.3465C47.4344 48.0328 47.4739 46.6396 47.9479 45.4454C48.3724 44.4004 49.0636 43.4749 49.8041 42.4996L50.2583 41.8926C50.4953 41.5741 50.4262 41.1163 50.1102 40.8775C49.7943 40.6386 49.3401 40.7083 49.1031 41.0268L48.6588 41.6239C47.8985 42.629 47.1086 43.6739 46.6149 44.908C45.9139 46.6694 45.9435 48.7692 46.6445 50.6302C41.7373 55.8549 34.7763 59.0096 27.2821 58.8703C27.2426 58.6912 27.2031 58.5021 27.1735 58.323C26.9563 57.1785 26.7391 55.9943 26.117 54.9493C25.1593 53.3272 23.3524 52.2126 20.7358 51.6254C20.1138 51.4861 19.4819 51.3866 18.8499 51.2771C17.5269 51.0582 16.2729 50.8492 15.1078 50.3715C13.7057 49.7843 12.0568 48.4707 11.9976 46.6694C11.9383 44.9677 13.4095 43.5147 14.9103 42.828C16.1939 42.2508 17.6157 42.0319 19.1067 41.803C19.5806 41.7333 20.0545 41.6537 20.5285 41.5741C22.2366 41.2656 24.6853 40.6386 26.2059 38.7976C26.9267 37.9218 27.3611 36.8968 27.7758 35.9016C28.0227 35.3045 28.2596 34.7372 28.5657 34.1998C29.6716 32.2194 31.7352 30.7864 33.9666 30.458C34.9244 30.3087 35.9216 30.4381 36.6424 30.8162C36.9979 30.9954 37.4323 30.856 37.6101 30.4978C37.7878 30.1395 37.6496 29.7016 37.2941 29.5225C36.2969 29.005 35.0034 28.8259 33.7494 29.0249C31.0934 29.413 28.625 31.1247 27.3019 33.4933C26.9662 34.1003 26.6996 34.7273 26.4429 35.3443C26.0479 36.2798 25.6826 37.1555 25.1 37.872C23.8757 39.3549 21.7627 39.8823 20.2718 40.151C19.8077 40.2306 19.3436 40.3003 18.8796 40.3699C17.3491 40.5988 15.7693 40.8377 14.2982 41.5044C12.5011 42.3205 10.4474 44.1815 10.5363 46.7192C10.6152 49.1972 12.7381 50.9586 14.5351 51.715C15.8483 52.2524 17.2405 52.4912 18.5834 52.7102C19.1955 52.8097 19.7978 52.9092 20.4001 53.0386C22.602 53.5362 24.1028 54.4219 24.8532 55.6857C25.3469 56.5117 25.5345 57.5169 25.7319 58.5817C25.7418 58.6514 25.7616 58.721 25.7714 58.7907C25.337 58.7608 24.8927 58.7111 24.4484 58.6514C10.2598 56.8601 0.158955 43.7137 1.95598 29.3832C2.11396 28.1193 2.37067 26.8753 2.69651 25.6612C4.61201 25.5716 6.97184 24.4968 7.87035 23.8102C8.00858 23.7007 8.14681 23.5912 8.29492 23.4818C9.0552 22.8747 9.77598 22.3074 10.4375 22.4766C10.9608 22.6159 11.2867 23.1832 11.3953 23.422C11.5631 23.7903 11.6816 24.1883 11.7902 24.6163C11.8495 24.8352 11.9087 25.0541 11.9778 25.2631C12.8171 28.0297 14.9103 30.3186 17.5664 31.3835C18.218 31.6522 18.9684 31.8313 19.709 31.8313C20.6371 31.8313 21.5356 31.5427 22.1873 30.7963C22.8784 30.0101 23.1154 28.8259 22.8389 27.552C22.7106 26.945 22.5032 26.3777 22.2959 25.8204C22.1774 25.502 22.0589 25.1935 21.9602 24.875C21.3381 22.805 21.5948 20.6256 21.8713 18.3068C22.1083 16.3463 22.3453 14.3062 22.0095 12.3059C21.7331 10.6439 21.0123 9.05166 19.9756 7.66836C21.0123 7.33995 22.0787 7.0812 23.145 6.88217C23.066 7.93706 23.2339 8.99195 23.6683 9.95727C23.9152 10.4947 24.2311 11.0122 24.6063 11.4799C24.7446 11.659 24.9519 11.7486 25.1691 11.7486C25.3271 11.7486 25.495 11.6988 25.6233 11.5894C25.9294 11.3406 25.9788 10.8828 25.7319 10.5643C25.4259 10.1862 25.179 9.78809 24.9914 9.36016C24.6162 8.52421 24.4977 7.56884 24.6261 6.65328C26.7391 6.39453 28.8915 6.39453 31.0243 6.66323C32.3572 6.83241 33.6803 7.11106 34.954 7.47928C35.3391 7.58875 35.734 7.36981 35.8427 6.98169C35.9513 6.59357 35.734 6.1955 35.349 6.08603C33.9963 5.69791 32.6041 5.4093 31.202 5.23017C26.3737 4.62311 21.4665 5.30979 17.0134 7.22053C16.6481 7.37976 16.4802 7.80768 16.6284 8.1759C16.7468 8.45455 17.0134 8.61378 17.2899 8.61378C17.3886 8.61378 17.4775 8.59388 17.5762 8.55407C17.8922 8.41474 18.2279 8.29532 18.5537 8.1759C19.6102 9.43978 20.3409 10.9724 20.6075 12.5447C20.9037 14.346 20.6865 16.1871 20.4594 18.1376C20.1829 20.4962 19.8867 22.9344 20.5976 25.3029C20.7062 25.6512 20.8346 25.9896 20.9629 26.328C21.1604 26.8455 21.3381 27.343 21.4467 27.8506C21.5356 28.2387 21.6738 29.204 21.1209 29.831C20.4495 30.6072 19.0869 30.4281 18.1292 30.03C15.8977 29.1344 14.0809 27.144 13.3799 24.8252C13.3207 24.6262 13.2614 24.4272 13.212 24.2281C13.0837 23.7604 12.9553 23.2827 12.7282 22.7951C12.2938 21.8795 11.6125 21.2725 10.8226 21.0635C9.46002 20.7152 8.33441 21.6108 7.42603 22.3373C7.2878 22.4468 7.15944 22.5463 7.03108 22.6458C6.28067 23.2131 4.58239 23.9495 3.18032 24.1485C3.79249 22.3572 4.58239 20.6455 5.57964 19.0134C5.78699 18.675 5.67838 18.2272 5.34267 18.0182C4.99709 17.8092 4.56264 17.9187 4.3553 18.2571C2.33118 21.6009 1.04759 25.283 0.553904 29.1941C-1.35173 44.3208 9.31191 58.1936 24.32 60.1143C25.4851 60.2636 26.6403 60.3332 27.7857 60.3332C41.3818 60.3332 53.2204 50.1028 54.978 36.1504C55.4322 32.5677 55.1952 29.005 54.2769 25.5517C54.1585 25.1636 53.7635 24.9347 53.3784 25.0342Z" fill="#1A237E"/>
<path d="M38.1132 44.6688C39.0709 44.6688 40.0287 44.1514 40.6804 43.4945C41.3123 42.8576 41.806 42.0615 42.2009 41.0663C42.349 40.6981 42.1713 40.2702 41.7961 40.1209C41.4308 39.9716 41.0062 40.1507 40.8581 40.5289C40.5323 41.335 40.1472 41.9719 39.6535 42.4695C39.1006 43.0268 38.202 43.4348 37.6392 43.0965C37.3134 42.8875 37.0962 42.4098 37.0863 41.8823C37.0764 41.4843 36.7309 41.1758 36.3557 41.1658C35.9607 41.1758 35.6349 41.5042 35.6447 41.9022C35.6645 42.9173 36.1286 43.8528 36.8888 44.3305C37.264 44.5693 37.6886 44.6688 38.1132 44.6688Z" fill="#1A237E"/>
<path d="M15.3936 35.0451C14.6728 35.3935 13.8533 35.702 13.2707 35.4233C12.9449 35.274 12.6783 34.9257 12.3919 34.5575L12.1451 34.249C11.2663 33.1643 10.4271 33.015 9.87414 33.0747C9.18298 33.1543 8.55106 33.632 8.18573 34.3485C7.89939 34.9158 7.81053 35.5228 7.74141 36.0204C7.65255 36.6673 7.51431 37.6426 7.96851 38.4984C8.49182 39.4836 9.61742 40.021 11.3058 40.0907C11.5329 40.1007 11.7699 40.1007 12.0069 40.1007C13.9915 40.1007 15.9959 39.7623 17.862 39.1055C19.2838 38.6079 20.1231 37.9411 20.3601 37.1251C20.4785 36.727 20.5082 36.11 19.9651 35.4034C18.563 33.5325 16.3414 34.5874 15.3936 35.0451ZM17.3979 37.7222C15.4824 38.3989 13.4089 38.7174 11.3848 38.6278C10.2395 38.578 9.52856 38.2994 9.26197 37.8018C9.05462 37.4037 9.10399 36.8464 9.19285 36.2195C9.25209 35.8114 9.31134 35.3537 9.48906 35.0153C9.6273 34.7366 9.85439 34.5476 10.0519 34.5277C10.0716 34.5277 10.0815 34.5277 10.1012 34.5277C10.3678 34.5277 10.7035 34.7565 11.0392 35.1745L11.2565 35.4532C11.6119 35.911 12.0167 36.4384 12.6487 36.7369C13.7743 37.2743 14.9789 36.8564 16.0057 36.3588C17.546 35.6223 18.3162 35.6024 18.8395 36.2891C18.9679 36.4583 19.0271 36.6076 18.9876 36.7071C18.9284 36.936 18.4643 37.354 17.3979 37.7222Z" fill="#1A237E"/>
<path d="M61.2768 19.1518L59.7859 18.1169V14.0864C59.7859 13.539 59.5785 13.0215 59.1836 12.6235C58.7886 12.2353 58.285 12.0264 57.7519 12.0264C56.6263 12.0264 55.7179 12.9519 55.7179 14.0864V15.3005L55.0563 14.8427V11.5288C55.0563 10.9814 54.849 10.4639 54.4639 10.0758C54.0788 9.68769 53.5654 9.46875 53.0125 9.46875C51.8869 9.46875 50.9785 10.3943 50.9785 11.5288V12.0264L48.4804 10.3047V5.74678C48.4804 2.76124 46.0712 0.333008 43.1091 0.333008C40.147 0.333008 37.7477 2.76124 37.7477 5.74678V10.3047L35.2496 12.0264V11.5288C35.2496 10.3943 34.3313 9.46875 33.2156 9.46875C32.6627 9.46875 32.1493 9.68769 31.7741 10.0659C31.389 10.454 31.1718 10.9715 31.1718 11.5188V14.8328L30.5102 15.2905V14.0764C30.5102 12.9419 29.592 12.0164 28.4762 12.0164C27.943 12.0164 27.4296 12.2254 27.0347 12.6235C26.6496 13.0116 26.4422 13.5291 26.4422 14.0764V18.1069L24.9513 19.1419C24.2996 19.5897 23.9146 20.3361 23.9146 21.1322V24.2372C23.9146 24.6651 24.1022 25.0632 24.4379 25.322C24.6847 25.511 24.971 25.6106 25.2771 25.6106C25.3857 25.6106 25.4943 25.6006 25.6128 25.5707L37.7575 22.5354V23.9486C37.7575 24.8841 37.8859 25.8096 38.1426 26.7451L39.8409 31.8205L35.1805 35.0449C34.7263 35.3633 34.4498 35.8808 34.4498 36.4481V38.2294C34.4498 38.5678 34.5979 38.8862 34.8645 39.0952C35.1311 39.3042 35.4668 39.3838 35.8025 39.3042L43.119 37.4731L50.4453 39.3042C50.5342 39.3241 50.6131 39.3341 50.702 39.3341C50.9489 39.3341 51.1858 39.2545 51.3833 39.0952C51.6499 38.8862 51.798 38.5678 51.798 38.2294V36.4481C51.798 35.8908 51.5215 35.3633 51.0673 35.0449L46.4069 31.8205L48.1151 26.7053C48.3619 25.7996 48.4903 24.8741 48.4903 23.9486V22.5354L60.635 25.5707C60.7436 25.6006 60.8522 25.6106 60.9707 25.6106C61.2768 25.6106 61.5631 25.511 61.81 25.322C62.1457 25.0632 62.3333 24.6651 62.3333 24.2372V21.1322C62.3135 20.3461 61.9285 19.6096 61.2768 19.1518ZM57.1496 14.0963C57.1496 13.7679 57.4162 13.4893 57.742 13.4893C57.9 13.4893 58.0481 13.5589 58.1666 13.6684C58.285 13.7779 58.3443 13.9371 58.3443 14.0963V17.1316L57.1496 16.3056V14.0963ZM52.4102 11.5288C52.4102 11.1904 52.6669 10.9217 53.0026 10.9217C53.1606 10.9217 53.3087 10.9814 53.4272 11.1008C53.5457 11.2103 53.6049 11.3695 53.6049 11.5288V13.8475L52.4102 13.0215V11.5288ZM32.6133 11.5288C32.6133 11.3695 32.6726 11.2203 32.791 11.1008C32.8997 10.9914 33.0478 10.9317 33.2057 10.9317C33.5316 10.9317 33.7982 11.2004 33.7982 11.5387V13.0315L32.6034 13.8575V11.5288H32.6133ZM27.8838 14.0963C27.8838 13.9371 27.943 13.7878 28.0516 13.6784C28.417 13.3101 29.0686 13.6087 29.0686 14.0963V16.3056L27.8739 17.1316V14.0963H27.8838ZM25.3462 24.1476V21.1422C25.3462 20.8237 25.5042 20.5351 25.7609 20.356L37.7477 12.0662V21.0526L25.3462 24.1476ZM35.8717 37.8015V36.468C35.8717 36.3883 35.9111 36.3187 35.9803 36.2689L40.305 33.2734L40.6209 34.2089C40.6999 34.4577 40.8283 34.6866 40.9665 34.8956C40.9764 34.9055 40.9862 34.9254 40.9862 34.9354C41.0455 35.015 41.1146 35.0946 41.1837 35.1643C41.2035 35.1842 41.2232 35.214 41.2528 35.2439C41.3121 35.3036 41.3812 35.3633 41.4503 35.423C41.4799 35.4529 41.5194 35.4827 41.5491 35.5126C41.6182 35.5623 41.6873 35.6022 41.7564 35.642C41.8058 35.6718 41.8453 35.7017 41.8946 35.7216C41.9638 35.7514 42.0329 35.7813 42.0921 35.8111C42.1514 35.831 42.2007 35.8609 42.26 35.8808C42.3291 35.9007 42.3883 35.9206 42.4574 35.9306C42.5266 35.9505 42.5858 35.9704 42.6549 35.9803C42.7142 35.9903 42.7833 35.9903 42.8524 36.0002C42.9116 36.0102 42.9709 36.0201 43.0301 36.0201C42.9906 36.0201 42.961 36.0301 42.9314 36.04L35.8717 37.8015ZM50.3466 36.468V37.8015L43.277 36.04C43.2473 36.0301 43.2078 36.0301 43.1782 36.0201C43.2473 36.0201 43.3066 36.0102 43.3658 36.0002C43.4251 35.9903 43.4843 35.9903 43.5534 35.9803C43.6324 35.9704 43.7015 35.9505 43.7706 35.9306C43.8299 35.9107 43.8891 35.9007 43.9385 35.8808C44.0076 35.8609 44.0767 35.831 44.136 35.8012C44.1952 35.7713 44.2545 35.7514 44.3038 35.7216C44.3631 35.6917 44.4124 35.6519 44.4618 35.6221C44.5211 35.5823 44.5803 35.5524 44.6395 35.5126C44.679 35.4827 44.7185 35.4429 44.758 35.4131C44.8271 35.3633 44.8864 35.3036 44.9456 35.2439C44.9654 35.224 44.9851 35.1941 45.0049 35.1742C45.074 35.0946 45.1431 35.0249 45.2023 34.9354C45.2023 34.9354 45.2023 34.9354 45.2023 34.9254C45.3603 34.7065 45.4887 34.4676 45.5775 34.2089L45.8935 33.2734L50.2182 36.2689C50.3071 36.3087 50.3466 36.3883 50.3466 36.468ZM47.0389 23.9685C47.0389 24.7647 46.9302 25.5707 46.7328 26.3072L44.7383 32.2683L44.2446 33.7511C44.0767 34.2388 43.6324 34.5672 43.119 34.5672C42.9215 34.5672 42.7438 34.5075 42.5858 34.4179C42.3192 34.2786 42.102 34.0497 41.9934 33.7412L41.3713 31.8901L39.5151 26.3271C39.3077 25.5508 39.1991 24.7547 39.1991 23.9486V5.74678C39.1991 3.56734 40.9566 1.79592 43.119 1.79592C45.2813 1.79592 47.0487 3.56734 47.0487 5.74678V23.9685H47.0389ZM60.872 24.1476L48.4804 21.0526V12.0662L60.4671 20.356C60.7239 20.5351 60.8818 20.8337 60.8818 21.1422V24.1476H60.872Z" fill="#1A237E"/>
<path d="M44.1956 6.99087C43.5933 7.59792 42.6158 7.59792 42.0135 6.99087C41.7271 6.70226 41.273 6.70226 40.9965 6.99087C40.7102 7.27947 40.7102 7.73725 40.9965 8.0159C41.579 8.60306 42.3393 8.89166 43.1095 8.89166C43.8698 8.89166 44.6399 8.60306 45.2225 8.0159C45.5088 7.7273 45.5088 7.26952 45.2225 6.99087C44.9361 6.70226 44.4819 6.70226 44.1956 6.99087Z" fill="#1A237E"/>
<path d="M8.49234 18.5158C8.95641 18.5158 9.40073 18.3167 9.71669 17.9684C11.8988 15.5601 15.5718 11.0818 15.5718 8.13604C15.5718 4.21503 12.4023 1.02051 8.49234 1.02051C4.60209 1.02051 1.43262 4.21503 1.43262 8.13604C1.43262 11.0818 5.09578 15.5601 7.27787 17.9684C7.58396 18.3167 8.02828 18.5158 8.49234 18.5158ZM8.49234 2.47347C11.6026 2.47347 14.1204 5.01117 14.1204 8.13604C14.1204 9.8975 12.0765 13.2114 8.64045 16.9832C8.59108 17.0429 8.52196 17.0528 8.48247 17.0528C8.44297 17.0528 8.37386 17.0429 8.32449 16.9832C4.91805 13.2214 2.87418 9.90746 2.87418 8.14599C2.87418 5.02113 5.39199 2.47347 8.49234 2.47347Z" fill="#1A237E"/>
<path d="M11.7309 7.58822C11.7309 5.7969 10.2794 4.33398 8.50215 4.33398C6.72488 4.33398 5.27344 5.7969 5.27344 7.58822C5.27344 9.37954 6.72488 10.8425 8.50215 10.8425C10.2794 10.8425 11.7309 9.38949 11.7309 7.58822ZM6.715 7.58822C6.715 6.59304 7.51478 5.78695 8.50215 5.78695C9.48952 5.78695 10.2893 6.59304 10.2893 7.58822C10.2893 8.5834 9.48952 9.38949 8.50215 9.38949C7.51478 9.38949 6.715 8.5834 6.715 7.58822Z" fill="#1A237E"/>
</svg>
