<svg width="60" height="61" viewBox="0 0 60 61" fill="none" xmlns="http://www.w3.org/2000/svg">
<path d="M47.1699 33.8942H30.3147C30.0674 33.8942 29.833 34.0036 29.6742 34.1937L23.6773 41.3887C23.5523 41.5397 23.4846 41.7272 23.4846 41.9225V59.4997C23.4846 59.9606 23.857 60.333 24.3179 60.333H41.7463C42.0171 60.333 42.2723 60.2002 42.4285 59.9763L47.8551 52.2086C47.954 52.068 48.0061 51.9013 48.0061 51.7321V34.7275C48.0061 34.2666 47.6337 33.8942 47.1728 33.8942H47.1699ZM39.1786 35.5608L34.8431 41.0892H32.5725L37.0981 35.5608H39.1786ZM34.416 42.7558V45.9692H31.6455V42.7558H34.416ZM30.7054 35.5608H34.9447L30.419 41.0892H26.0965L30.7054 35.5608ZM40.9125 58.6664H25.1506V42.7558H29.9809V46.8025C29.9809 47.2634 30.3533 47.6358 30.8142 47.6358H35.2512C35.7121 47.6358 36.0845 47.2634 36.0845 46.8025V42.7558H40.9148V58.6664H40.9125ZM41.3291 41.0892H36.9597L41.2953 35.5608H45.4902L41.3291 41.0892ZM46.3365 51.4688L42.5764 56.8513V42.2007L46.3365 37.2061V51.4688ZM21.5781 47.2294C20.2839 46.4586 19.0783 45.5784 17.969 44.6071C20.086 40.6073 19.5678 39.2219 18.6695 37.8521C18.2502 37.2141 17.9716 36.7922 18.3388 35.5214C18.5992 34.6152 18.9559 33.9017 19.3309 33.1491C19.8855 32.0398 20.4584 30.8914 20.6771 29.1649C20.8906 27.4827 20.6016 26.389 19.797 25.8214C18.5393 24.936 16.7061 25.7458 14.6152 26.8109C13.0476 27.6077 13.1309 29.2379 13.3549 30.8394C13.532 32.1128 13.407 32.2716 12.7013 32.5112C12.1701 32.6909 11.4202 32.7716 10.5478 32.7481C10.1052 31.1258 9.82398 29.4462 9.72759 27.7328C9.70155 27.2745 9.30836 26.9203 8.84747 26.9489C8.38918 26.975 8.03768 27.3682 8.06368 27.8291C8.55582 36.446 13.2897 44.2343 20.7265 48.6641C20.8593 48.7423 21.0077 48.7813 21.151 48.7813C21.4348 48.7813 21.7108 48.6355 21.867 48.3751C22.1014 47.9793 21.9738 47.4689 21.578 47.2319L21.5781 47.2294ZM17.2764 38.7664C17.7972 39.558 18.2893 40.3106 16.7088 43.4173C14.1829 40.8653 12.256 37.7899 11.0661 34.4123C11.7821 34.3993 12.5581 34.3134 13.2325 34.0842C15.3808 33.3525 15.1438 31.6338 15.0006 30.6052C14.7454 28.759 14.9902 28.4803 15.3677 28.2902C16.1697 27.8839 18.2971 26.8006 18.8361 27.1782C19.0106 27.3006 19.1616 27.8371 19.021 28.9489C18.8387 30.3942 18.3518 31.3681 17.8363 32.3993C17.4431 33.1884 17.0343 34.0034 16.7322 35.0581C16.1568 37.0632 16.7765 38.0059 17.2738 38.7636L17.2764 38.7664ZM52.3772 7.94519C47.4688 3.03655 40.9436 0.333541 34.0042 0.333541C28.2261 0.333541 22.7552 2.19025 18.1857 5.70309C17.8211 5.98433 17.7534 6.50772 18.032 6.8723C18.3133 7.23687 18.834 7.30458 19.2012 7.02594C22.8155 4.25001 27.0285 2.57822 31.5101 2.1277C31.859 2.66935 31.7158 3.05473 31.3668 3.47137C30.4138 4.60412 30.6534 5.61974 30.8252 6.35924C31.0361 7.26286 31.2028 7.97636 29.1926 9.48929C28.388 10.0934 28.1719 11.0465 27.9818 11.8876C27.6823 13.2053 27.5026 13.997 25.6538 13.9813C25.1174 13.9761 23.7347 14.2156 22.4302 14.6167C20.5059 15.2078 19.5164 15.8901 19.3159 16.765C19.1805 17.3509 19.3471 18.1998 20.8913 18.9264C20.9277 18.942 20.9642 18.9577 21.0006 18.9681C21.5475 19.1373 22.162 19.929 22.8312 21.3221C23.5421 22.8038 24.5628 23.2751 25.2919 23.4131C25.4768 23.447 25.6643 23.4652 25.8544 23.4652C26.8855 23.4652 27.9896 22.9678 28.9609 22.0538C29.1145 21.908 29.289 21.7361 29.4895 21.5382C30.0884 20.9445 30.9086 20.132 31.6846 19.593C32.4423 19.0695 32.885 18.9914 33.0491 19.0956C34.713 20.1502 36.1009 20.3872 37.1737 19.8013C39.1917 18.6972 39.2074 15.1088 39.2178 12.7316C39.2204 12.2941 39.223 11.9165 39.236 11.6249C39.2959 10.3853 40.5536 9.24738 41.7618 8.7656C42.6524 8.40885 43.2982 8.47395 43.5195 8.68748C43.7122 8.87236 43.7981 9.42705 43.4518 10.4296C43.1836 11.2004 42.905 12.3201 43.5455 13.1508C44.2199 14.0232 45.5245 14.0466 46.7119 13.9554C50.2038 13.6846 50.7558 11.5285 51.1594 9.95562C51.2193 9.72647 51.2766 9.50252 51.3391 9.28639C53.0056 10.9816 54.4273 12.919 55.5444 15.0439C54.2581 16.4371 54.2555 17.5308 54.4117 18.3484C54.5367 18.9968 54.5393 19.4421 54.4196 19.6374C54.3102 19.8145 53.9795 19.9812 53.5602 20.1921C53.2295 20.3588 52.8181 20.5645 52.3676 20.8535C50.2871 22.1868 49.6387 24.1112 50.5917 26.1319C50.7245 26.4184 50.8807 26.6892 51.0318 26.9522C51.4901 27.7543 51.9223 28.5147 51.8442 29.7151C51.7765 30.7958 51.3781 31.7072 50.6516 32.4468L50.4277 32.6759C49.3418 33.7879 48.9617 35.0404 49.3809 36.1132C49.7298 37.0038 50.5787 37.5897 51.5916 37.6392C51.6385 37.6418 51.688 37.6418 51.7374 37.6418C53.0238 37.6418 54.2216 36.7878 54.969 35.3294C55.1408 34.9961 55.2892 34.6498 55.4351 34.3165C55.7605 33.5717 56.1277 32.728 56.5235 32.6212C56.7214 32.5691 57.0391 32.6681 57.4297 32.8946C56.1017 37.6418 53.3441 41.9149 49.4331 45.1287C49.0763 45.4204 49.0269 45.9464 49.3185 46.3005C49.4825 46.5011 49.7221 46.6052 49.9643 46.6052C50.1492 46.6052 50.3366 46.5427 50.4929 46.4151C56.534 41.4544 60 34.1317 60 26.3221C60 19.3824 57.2971 12.8567 52.3887 7.94825L52.3772 7.94519ZM49.5415 9.53625C49.1457 11.0856 48.8827 12.1091 46.5783 12.2887C45.1175 12.4033 44.8831 12.1559 44.8623 12.1273C44.8597 12.1247 44.7008 11.9033 45.0237 10.9711C45.7033 9.01281 45.206 7.98939 44.6696 7.47901C43.8962 6.74205 42.5787 6.64312 41.1438 7.21601C39.4383 7.89824 37.6702 9.49977 37.5712 11.5439C37.5556 11.8721 37.553 12.2678 37.5504 12.7235C37.5426 14.4657 37.527 17.7077 36.3709 18.3405C35.7459 18.6816 34.7017 18.1738 33.9362 17.6895C32.1447 16.5541 29.8377 18.8431 28.3117 20.356C28.119 20.5461 27.955 20.7102 27.8144 20.843C27.067 21.5487 26.2364 21.8976 25.5932 21.7778C25.0829 21.6841 24.6559 21.2882 24.3304 20.606C23.4346 18.7363 22.5727 17.7441 21.5494 17.4004C21.2629 17.2624 21.1015 17.1504 21.0155 17.0775C21.2291 16.89 21.8175 16.5359 23.0883 16.1635C24.2497 15.8223 25.3589 15.6531 25.6297 15.6531C28.8274 15.6869 29.2935 13.6271 29.6033 12.2626C29.7491 11.6194 29.8741 11.0648 30.1892 10.8278C32.8478 8.82793 32.7723 7.39573 32.4442 5.98693C32.2931 5.33852 32.2228 5.04424 32.6369 4.54953C33.3165 3.7423 33.5248 2.87514 33.2722 2.01838C33.5144 2.01057 33.7565 2.00536 34.0014 2.00536C40.1258 2.00536 45.7296 4.28392 50.0105 8.03635C49.7996 8.53112 49.6668 9.0415 49.5392 9.54148L49.5415 9.53625ZM56.0852 31.0066C54.9134 31.3217 54.4005 32.5013 53.9005 33.6471C53.7651 33.9569 53.6245 34.2772 53.4787 34.5663C53.0126 35.4777 52.3329 36.0011 51.669 35.9699C51.3201 35.9517 51.0362 35.772 50.9269 35.4985C50.7576 35.0689 51.0154 34.4491 51.6143 33.8346L51.8356 33.608C53.187 32.2305 53.3667 31.9284 53.4995 29.8139C53.6063 28.1135 52.9761 27.0094 52.4709 26.1214C52.3303 25.874 52.1975 25.6422 52.0908 25.4157C51.8746 24.9573 51.2158 23.5589 53.2599 22.2491C53.6349 22.0096 53.989 21.8299 54.3015 21.6736C55.6451 20.9992 56.494 20.3794 56.0435 18.0279C55.9862 17.7337 55.9107 17.3352 56.3352 16.6999C57.6111 19.6529 58.322 22.9053 58.322 26.3221C58.322 27.9887 58.1527 29.6292 57.8246 31.2281C57.1919 30.9391 56.6164 30.8688 56.0852 31.012L56.0852 31.0066ZM43.6643 29.0874C43.0889 29.9207 42.9795 30.7722 43.3232 31.7643C43.4742 32.1992 43.2425 32.6732 42.8076 32.8242C42.3728 32.9752 41.8988 32.7434 41.7479 32.3086C41.2297 30.8112 41.412 29.4076 42.2921 28.1369C43.1331 26.9234 43.1488 25.7646 42.339 25.0407C41.1776 24.0017 38.683 24.1059 36.1599 26.3062C33.4934 28.6343 30.827 28.6265 28.6865 28.6265C28.0173 28.6239 27.3846 28.6239 26.7961 28.689C25.5749 28.8218 24.0542 29.215 23.7365 30.3243C23.3928 31.5274 24.4683 33.4335 26.2884 34.8605C26.6503 35.1444 26.7154 35.6678 26.4316 36.0298C26.2675 36.2407 26.0228 36.35 25.7754 36.35C25.5957 36.35 25.416 36.2928 25.2624 36.173C23.2574 34.6027 21.5127 32.0456 22.1351 29.866C22.4502 28.7619 23.4813 27.3739 26.6165 27.0302C27.2961 26.9547 27.9732 26.9573 28.6892 26.9573C30.7437 26.9625 32.8685 26.9651 35.0636 25.0485C38.4644 22.0799 41.795 22.3168 43.4482 23.796C44.9012 25.0954 44.9871 27.1708 43.6617 29.0822L43.6643 29.0874ZM5.67847 20.0745C6.53252 21.2776 7.33978 22.4129 7.8892 23.2488C8.04283 23.4832 8.30583 23.6238 8.58707 23.6238C8.86831 23.6238 9.12869 23.4832 9.28494 23.2488C9.83437 22.4129 10.6416 21.2776 11.4957 20.0745C13.4304 17.3533 15.6229 14.2701 16.438 12.4315C17.8753 9.19206 17.1644 5.33784 14.6699 2.84329C13.0503 1.22617 10.8916 0.333008 8.58974 0.333008C6.28788 0.333008 4.12661 1.22357 2.50956 2.84329C0.0149877 5.33797 -0.695881 9.19193 0.741521 12.4315C1.55658 14.27 3.74905 17.3531 5.6838 20.0745H5.67847ZM3.68385 4.02324C4.9858 2.72123 6.72784 2.00253 8.58707 2.00253C10.4463 2.00253 12.1857 2.72123 13.4903 4.02324C15.5031 6.03614 16.076 9.1428 14.9146 11.7575C14.1673 13.4423 11.9331 16.5854 10.1364 19.1112C9.58176 19.8898 9.04796 20.6424 8.58707 21.3064C8.12617 20.6398 7.59236 19.8898 7.03774 19.1112C5.24364 16.5852 3.00685 13.4422 2.25952 11.7575C1.09816 9.14306 1.67103 6.03647 3.68385 4.02324ZM8.58707 13.4475C11.105 13.4475 13.1518 11.4007 13.1518 8.88254C13.1518 6.36446 11.1051 4.31762 8.58707 4.31762C6.06903 4.31762 4.02235 6.36439 4.02235 8.88254C4.02235 11.4006 6.06903 13.4475 8.58707 13.4475ZM8.58707 5.98448C10.1859 5.98448 11.4853 7.28388 11.4853 8.88281C11.4853 10.4817 10.1859 11.7811 8.58707 11.7811C6.98822 11.7811 5.68887 10.4817 5.68887 8.88281C5.68887 7.28395 6.98822 5.98448 8.58707 5.98448ZM5.22018 22.525C3.5224 22.7854 2.71261 23.1656 2.42097 23.3765C3.00685 23.8166 5.24624 24.4572 8.58967 24.4572C11.9331 24.4572 14.1725 23.8166 14.7584 23.3765C14.4641 23.163 13.6569 22.7854 11.9592 22.525C11.5035 22.4547 11.191 22.0303 11.2613 21.5746C11.3316 21.1188 11.756 20.8064 12.2117 20.8766C15.0735 21.3141 16.5239 22.1553 16.5239 23.3713C16.5239 26.0457 9.40453 26.1238 8.5926 26.1238C7.78068 26.1238 0.661328 26.0457 0.661328 23.3713C0.661328 22.1553 2.11173 21.3142 4.97347 20.8766C5.42915 20.8063 5.85359 21.1188 5.92391 21.5746C5.99424 22.0303 5.68175 22.4547 5.22604 22.525H5.22018ZM20.9841 55.1902C20.8409 55.487 20.544 55.6615 20.2341 55.6615C20.1118 55.6615 19.9894 55.6355 19.8722 55.5782C14.8596 53.1512 10.5244 49.4483 7.334 44.8654C4.57386 40.902 2.73809 36.3684 1.9569 31.6213L1.59235 32.4285C1.40226 32.8478 0.910146 33.0353 0.490917 32.8452C0.0716889 32.6551 -0.115801 32.1629 0.0742887 31.7437L1.67568 28.197C1.79546 27.9314 2.04283 27.7491 2.33186 27.7126C2.6209 27.6762 2.90473 27.7934 3.08699 28.0199L5.46698 30.999C5.75341 31.3583 5.69612 31.8817 5.33678 32.1708C4.97744 32.4572 4.45406 32.4 4.16502 32.0406L3.59997 31.3323C5.21442 41.1312 11.5626 49.7041 20.6011 54.0786C21.0151 54.2791 21.1896 54.7765 20.9865 55.1931L20.9841 55.1902Z" fill="#1A237E"/>
</svg>
