<svg width="68" height="60" viewBox="0 0 68 60" fill="none" xmlns="http://www.w3.org/2000/svg">
<path d="M36.1433 32.0105H31.8566C31.7721 32.0105 31.6932 32.0273 31.6171 32.0498C31.3972 30.8806 30.7124 29.8712 29.7598 29.2264C29.8134 29.1647 29.8585 29.0946 29.8923 29.0161L33.1813 21.4911C33.3673 21.065 33.17 20.5687 32.7444 20.3836C32.316 20.1986 31.8172 20.3948 31.6312 20.8182L28.3422 28.3432C28.3083 28.4217 28.2914 28.503 28.2802 28.5815C27.9617 28.5086 27.6291 28.4665 27.2881 28.4665C24.8587 28.4665 22.8831 30.432 22.8831 32.8488C22.8831 35.2657 24.8587 37.2311 27.2881 37.2311C29.4413 37.2311 31.2366 35.6863 31.6171 33.6507C31.6932 33.6731 31.7721 33.69 31.8566 33.69H36.1433C36.6111 33.69 36.9888 33.3143 36.9888 32.8488C36.9888 32.3834 36.6111 32.0077 36.1433 32.0077L36.1433 32.0105ZM27.2906 35.5544C25.7941 35.5544 24.5766 34.3432 24.5766 32.8545C24.5766 31.3657 25.7941 30.1545 27.2906 30.1545C28.7871 30.1545 30.0046 31.3657 30.0046 32.8545C30.0046 34.3432 28.7871 35.5544 27.2906 35.5544ZM65.7857 0.000286809H39.7695C38.5492 0.000286809 37.5543 0.990004 37.5543 2.20402V7.69372C34.302 6.37599 30.8551 5.70589 27.2926 5.70589C12.243 5.70309 0 17.8827 0 32.8544C0 47.8261 12.243 60 27.2926 60C42.3421 60 54.5793 47.8232 54.5793 32.8544C54.5793 29.1114 53.8268 25.506 52.3529 22.116H65.782C67.0023 22.116 67.9972 21.1263 67.9972 19.9123L68 2.20373C68 0.989717 67.0051 0 65.7848 0L65.7857 0.000286809ZM42.0162 27.8385C42.2135 27.9339 42.4249 27.9815 42.6363 27.9815C42.9435 27.9815 43.2478 27.8806 43.5043 27.6815L46.4043 25.4189C47.2357 27.5246 47.698 29.7339 47.7881 32.0105H45.2432C44.7754 32.0105 44.3977 32.3863 44.3977 32.8517C44.3977 33.3171 44.7754 33.6928 45.2432 33.6928H47.791C47.588 38.6891 45.5701 43.2254 42.3798 46.6713L40.5845 44.8853C40.2547 44.5573 39.7193 44.5573 39.3896 44.8853C39.0598 45.2134 39.0598 45.7461 39.3896 46.0741L41.1848 47.8601C37.7211 51.0367 33.1611 53.0414 28.1388 53.2433V50.7087C28.1388 50.2433 27.7612 49.8676 27.2933 49.8676C26.8255 49.8676 26.4478 50.2433 26.4478 50.7087V53.2433C21.4256 53.0386 16.8657 51.0339 13.4018 47.8601L15.1971 46.0741C15.5268 45.7461 15.5268 45.2134 15.1971 44.8853C14.8674 44.5573 14.3319 44.5573 14.0022 44.8853L12.2069 46.6713C9.01371 43.2255 6.99859 38.6891 6.79571 33.6928H9.34344C9.81128 33.6928 10.189 33.3171 10.189 32.8517C10.189 32.3863 9.81129 32.0105 9.34344 32.0105H6.79571C7.00145 27.0143 9.01653 22.478 12.2097 19.032L14.005 20.818C14.1713 20.9835 14.3855 21.0648 14.6025 21.0648C14.8195 21.0648 15.0365 20.9835 15.1999 20.818C15.5297 20.49 15.5297 19.9573 15.1999 19.6293L13.4047 17.8433C16.8684 14.6666 21.4284 12.6619 26.4507 12.4573V14.9919C26.4507 15.4573 26.8283 15.833 27.2962 15.833C27.764 15.833 28.1417 15.4573 28.1417 14.9919V12.4657C31.4673 12.6003 34.6971 13.5311 37.5608 15.1854V19.9096C37.5608 21.1237 38.5556 22.1134 39.7759 22.1134H41.2302V26.577C41.2302 27.1181 41.5346 27.6004 42.0222 27.8387L42.0162 27.8385ZM27.2935 58.3181C13.1768 58.3181 1.69211 46.8957 1.69211 32.8542C1.69211 18.8127 13.1768 7.3853 27.2935 7.3853C30.8699 7.3853 34.3196 8.11146 37.5553 9.52458V13.2563C34.4015 11.619 30.8843 10.7554 27.2935 10.7554C15.0447 10.7554 5.07951 20.6691 5.07951 32.8545C5.07951 45.0398 15.0447 54.9478 27.2935 54.9478C39.5422 54.9478 49.5017 45.0362 49.5017 32.8545C49.5017 29.8993 48.9183 27.0423 47.7825 24.3454L50.536 22.1978C52.0917 25.5454 52.8893 29.1258 52.8893 32.855C52.8893 46.8958 41.4075 58.3189 27.293 58.3189L27.2935 58.3181ZM66.3103 19.9123C66.3103 20.1955 66.0707 20.4338 65.7861 20.4338H50.3476C50.1588 20.4338 49.9756 20.4955 49.8262 20.6133L42.9157 26.0021V21.275C42.9157 20.8095 42.538 20.4338 42.0702 20.4338H39.7704C39.4858 20.4338 39.2462 20.1955 39.2462 19.9123V2.20381C39.2462 1.92063 39.4858 1.68231 39.7704 1.68231H65.7867C66.0713 1.68231 66.3109 1.92063 66.3109 2.20381L66.3103 19.9123ZM58.3933 14.0048C58.3933 14.4703 58.0157 14.846 57.5478 14.846H45.263C44.7952 14.846 44.4175 14.4703 44.4175 14.0048C44.4175 13.5394 44.7952 13.1637 45.263 13.1637H57.5478C58.0157 13.1637 58.3933 13.5394 58.3933 14.0048ZM61.3385 7.83656C61.3385 8.30198 60.9608 8.6777 60.493 8.6777H45.2601C44.7923 8.6777 44.4146 8.30199 44.4146 7.83656C44.4146 7.37113 44.7923 6.99542 45.2601 6.99542H60.493C60.9608 6.99542 61.3385 7.37112 61.3385 7.83656Z" fill="#1A237E"/>
</svg>
