<svg width="57" height="60" viewBox="0 0 57 60" fill="none" xmlns="http://www.w3.org/2000/svg">
<path fill-rule="evenodd" clip-rule="evenodd" d="M44.0397 14.865H53.3255C54.3374 14.865 55.2547 15.28 55.921 15.9499C56.5848 16.6199 57 17.5424 57 18.5598V50.308C57 51.3255 56.5873 52.2479 55.921 52.9179C55.2547 53.5879 54.3374 54.0028 53.3255 54.0028H34.677L35.3706 58.2851H38.8238C39.2937 58.2851 39.6765 58.6701 39.6765 59.1426C39.6765 59.615 39.2937 60 38.8238 60L18.1787 59.995C17.7088 59.995 17.326 59.61 17.326 59.1376C17.326 58.6651 17.7088 58.2801 18.1787 58.2801H21.6319L22.3255 53.9978H3.67696C2.66513 53.9978 1.74775 53.5829 1.08146 52.9129C0.417641 52.2429 0.00248613 51.3205 0.00248613 50.303V47.4282L0 18.5572C0 17.5398 0.412699 16.6173 1.07897 15.9473C1.74524 15.2774 2.66265 14.8624 3.67447 14.8624H11.8738V0.865628C11.8738 0.393151 12.2567 0.00819601 12.7265 0.00819601C12.8832 0.00819601 13.0274 0.0506939 13.1517 0.123192L18.6212 3.10558L22.8799 0.16319C23.1658 -0.0342979 23.5288 -0.031802 23.8047 0.140692V0.138192L28.5532 3.08308L32.6528 0.168206C32.9412 -0.0367823 33.3142 -0.0342864 33.5951 0.143207V0.140708L38.2267 3.09058L42.7192 0.138212C43.112 -0.119274 43.639 -0.00677981 43.8951 0.390699C43.9871 0.535691 44.0319 0.695683 44.0319 0.855676H44.0343L44.0368 14.8653L44.0397 14.865ZM17.5476 32.4315H32.9961C33.466 32.4315 33.8488 32.0465 33.8488 31.5741C33.8488 31.1016 33.4659 30.7166 32.9961 30.7166H17.5476C17.0777 30.7166 16.6949 31.1016 16.6949 31.5741C16.6949 32.0466 17.0753 32.4315 17.5476 32.4315ZM17.5028 27.1893H34.6997C35.1695 27.1893 35.5524 26.8068 35.5524 26.3318C35.5524 25.8593 35.172 25.4744 34.6997 25.4744H17.5028C17.033 25.4744 16.6501 25.8594 16.6501 26.3318C16.6501 26.8068 17.0305 27.1893 17.5028 27.1893ZM17.4432 21.947H38.7069C39.1768 21.947 39.5596 21.562 39.5596 21.0896C39.5596 20.6171 39.1768 20.2321 38.7069 20.2321L17.4432 20.2346C16.9733 20.2346 16.5905 20.6196 16.5905 21.0921C16.5905 21.5645 16.9708 21.947 17.4432 21.947ZM17.3835 16.7073H38.6472C39.1171 16.7073 39.5 16.3248 39.5 15.8498C39.5 15.3773 39.1171 14.9924 38.6472 14.9924H17.3835C16.9136 14.9924 16.5308 15.3774 16.5308 15.8498C16.5308 16.3248 16.9136 16.7073 17.3835 16.7073ZM17.3238 11.465H38.5876C39.0574 11.465 39.4403 11.08 39.4403 10.6076C39.4403 10.1351 39.0574 9.75014 38.5876 9.75014L17.3238 9.75264C16.854 9.75264 16.4711 10.1376 16.4711 10.6101C16.4711 11.0825 16.854 11.465 17.3238 11.465ZM45.6012 23.9572C48.1992 23.9572 50.5486 25.0146 52.2489 26.7271C53.9519 28.4395 55.0035 30.8019 55.0035 33.4116C55.0035 36.0239 53.9519 38.3863 52.2489 40.096C50.5459 41.8085 48.1965 42.8659 45.6012 42.8659C43.0033 42.8659 40.6539 41.8085 38.9535 40.096C38.7472 39.8885 38.5483 39.6686 38.3593 39.4411L38.2301 39.3561L33.5984 42.3035C33.2802 42.5035 32.8824 42.4685 32.609 42.241L28.559 39.3611L23.8106 42.306C23.4998 42.4985 23.1144 42.466 22.841 42.2535L18.6245 39.3386L13.1352 42.3335C12.7225 42.5585 12.2054 42.406 11.9791 41.9885C11.9095 41.8585 11.8747 41.7185 11.8747 41.581V16.5749L3.67534 16.5774C3.13336 16.5774 2.64359 16.7999 2.28559 17.1598C1.92759 17.5198 1.70632 18.0148 1.70632 18.5573V46.5732H55.2921V18.5573C55.2921 18.0148 55.0708 17.5198 54.7128 17.1598C54.3548 16.7999 53.8626 16.5774 53.3231 16.5774H44.0398V24.0868C44.547 24.0018 45.0692 23.9572 45.6012 23.9572ZM37.3274 37.9092C36.6064 36.5718 36.1987 35.0393 36.1987 33.4119C36.1987 30.8021 37.2503 28.4372 38.9533 26.7275C39.903 25.7725 41.0516 25.0225 42.3345 24.545V2.43599L38.7246 4.80587C38.4536 4.99836 38.0832 5.01835 37.7848 4.82836L33.1681 1.89103L29.1157 4.77339C28.8422 4.99088 28.4544 5.02588 28.1412 4.83089L23.3852 1.88101L19.2234 4.75588C18.9623 4.97838 18.582 5.03087 18.2637 4.85588L13.5774 2.30099V40.1418L18.2637 37.5869L18.2662 37.5894C18.5372 37.4419 18.8778 37.4494 19.1488 37.6369L23.3826 40.5642L28.1386 37.6143C28.4196 37.4394 28.7875 37.4394 29.0734 37.6443L33.1656 40.5542L37.3274 37.9092ZM51.046 27.9397C49.6538 26.5398 47.7296 25.6723 45.6014 25.6723C43.4758 25.6723 41.5515 26.5398 40.1568 27.9397C38.7646 29.3397 37.9019 31.2771 37.9019 33.4145C37.9019 35.5519 38.7646 37.4868 40.1568 38.8893C41.549 40.2892 43.4733 41.1567 45.6014 41.1567C47.727 41.1567 49.6513 40.2892 51.046 38.8893C52.4383 37.4893 53.301 35.5519 53.301 33.4145C53.301 31.2746 52.4383 29.3397 51.046 27.9397ZM46.4542 39.0739V38.2865C47.0235 38.1615 47.5406 37.919 47.9534 37.589C48.6221 37.0565 49.0348 36.3066 49.0348 35.4666C49.0348 34.6267 48.6221 33.8767 47.9534 33.3442C47.3418 32.8568 46.5089 32.5567 45.6015 32.5567C45.0819 32.5567 44.6219 32.3993 44.3012 32.1418C44.0352 31.9293 43.8711 31.6543 43.8711 31.3593C43.8711 31.0668 44.0352 30.7868 44.3012 30.5768C44.6219 30.3218 45.0819 30.1618 45.6015 30.1618C45.9296 30.1618 46.2354 30.2268 46.4965 30.3393C46.755 30.4518 46.9663 30.6043 47.113 30.7843C47.4114 31.1493 47.9459 31.2017 48.3088 30.9018C48.6718 30.6018 48.724 30.0643 48.4257 29.6993C48.105 29.3043 47.6724 28.9819 47.1702 28.7644C46.9464 28.6669 46.7053 28.5894 46.4542 28.5369V27.7494C46.4542 27.2769 46.0713 26.892 45.6015 26.892C45.1316 26.892 44.7487 27.277 44.7487 27.7494V28.5369C44.1794 28.6619 43.6623 28.9044 43.2496 29.2343C42.5808 29.7668 42.1681 30.5168 42.1681 31.3567C42.1681 32.1967 42.5808 32.9467 43.2496 33.4791C43.8637 33.9666 44.694 34.2666 45.6015 34.2666C46.1211 34.2666 46.581 34.4241 46.9017 34.6816C47.1677 34.8941 47.3318 35.1691 47.3318 35.4641C47.3318 35.7566 47.1677 36.0366 46.9017 36.2466C46.581 36.5016 46.121 36.6616 45.6015 36.6616C45.2435 36.6616 44.9153 36.5841 44.6368 36.4516C44.3708 36.3241 44.157 36.1491 44.0228 35.9491C43.7617 35.5566 43.2347 35.4516 42.8443 35.7141C42.454 35.9766 42.3496 36.5066 42.6106 36.8991C42.9164 37.3591 43.3664 37.7415 43.9034 37.9965C44.1644 38.1215 44.4478 38.219 44.7486 38.284V39.0715C44.7486 39.5439 45.1315 39.9289 45.6014 39.9289C46.0737 39.9314 46.4542 39.5464 46.4542 39.0739ZM23.353 58.2833H33.6431L32.9495 54.001L24.0469 53.9985L23.353 58.2833ZM1.70615 48.2889V50.3062C1.70615 50.8487 1.92742 51.3437 2.28542 51.7037C2.64343 52.0637 3.13566 52.2862 3.67517 52.2862H53.3232C53.8627 52.2862 54.355 52.0637 54.713 51.7037C55.071 51.3437 55.2923 50.8487 55.2923 50.3062V48.2889H1.70615Z" fill="#1A237E"/>
</svg>
