<svg width="60" height="60" viewBox="0 0 60 60" fill="none" xmlns="http://www.w3.org/2000/svg">
<path d="M31.671 18.3797C31.671 18.9873 32.2026 19.5189 32.8102 19.5189C33.4178 19.5189 33.9494 18.9873 33.9494 18.3797V12.4556C33.9494 11.8481 33.4178 11.3164 32.8102 11.3164H26.8862C26.2786 11.3164 25.7469 11.8481 25.7469 12.4556C25.7469 13.0632 26.2786 13.5949 26.8862 13.5949H30.076L22.4051 21.3417L17.7722 15.3417C17.5444 15.1139 17.3165 14.962 16.9368 14.886C16.633 14.886 16.3292 14.962 16.1013 15.1898L10.1013 20.5822C9.64565 21.0379 9.5697 21.7215 10.0254 22.1772C10.4811 22.6329 11.1646 22.7088 11.6203 22.2531L16.7089 17.6962L21.4178 23.6962C21.6457 23.924 21.9494 24.0759 22.2532 24.1518H22.3292C22.633 24.1518 22.9368 24 23.1646 23.8481L31.7469 15.1898V18.3797H31.671Z" fill="black"/>
<path d="M10.7847 24.5317C10.1772 24.5317 9.64551 25.0634 9.64551 25.671V45.4178C9.64551 46.0254 10.1772 46.5571 10.7847 46.5571H16.2531C16.8607 46.5571 17.3923 46.0254 17.3923 45.4178V25.671C17.3923 25.0634 16.8607 24.5317 16.2531 24.5317H10.7847ZM15.1139 44.3545H11.924V26.8862H15.1139V44.3545Z" fill="black"/>
<path d="M19.8228 27.3418C19.2152 27.3418 18.6836 27.8734 18.6836 28.481V45.4177C18.6836 46.0253 19.2152 46.557 19.8228 46.557H25.2912C25.8988 46.557 26.4304 46.0253 26.4304 45.4177V28.481C26.4304 27.8734 25.8988 27.3418 25.2912 27.3418H19.8228ZM24.1519 44.3545H20.9621V29.6203H24.1519V44.3545Z" fill="black"/>
<path d="M28.9368 46.6328H34.4052C35.0128 46.6328 35.5444 46.1011 35.5444 45.4935V23.0885C35.5444 22.4809 35.0128 21.9492 34.4052 21.9492H28.9368C28.3293 21.9492 27.7976 22.4809 27.7976 23.0885V45.4935C27.7976 46.1011 28.2533 46.6328 28.9368 46.6328ZM30.0761 24.2277H33.266V44.3543H30.0761V24.2277Z" fill="black"/>
<path d="M58.9366 44.5824C58.8606 40.8609 54.1518 38.0508 48.1518 38.0508C42.0758 38.0508 37.3669 40.9369 37.3669 44.6584V53.3926C37.3669 57.1141 42.1518 60.0001 48.1518 60.0001C54.2277 60.0001 58.9366 57.1141 59.0125 53.3926L58.9366 44.5824ZM39.5695 48.7596C39.8733 48.9875 40.253 49.2913 40.6328 49.5191H40.7087C41.0125 49.671 41.3163 49.8229 41.6961 49.9748H41.772C42.2277 50.2027 42.6834 50.3546 43.215 50.5065C44.1264 50.8103 45.1897 50.9622 46.253 51.1141C46.329 51.1141 46.4049 51.1141 46.4809 51.1141C47.0125 51.19 47.5442 51.19 48.0758 51.19C48.6074 51.19 49.1391 51.19 49.6707 51.1141C49.7467 51.1141 49.8226 51.1141 49.8986 51.1141C50.9619 51.0381 52.0252 50.8103 52.9366 50.5065C53.4682 50.3546 53.9239 50.2027 54.3796 49.9748H54.4556C54.7593 49.8229 55.1391 49.671 55.4429 49.5191C55.4429 49.5191 55.5188 49.5191 55.5188 49.4432C55.8986 49.2153 56.2783 48.9875 56.5821 48.6837V48.9875C56.5821 49.5191 56.4302 49.9748 56.0505 50.5065C54.7593 52.2533 51.5695 53.3926 48.0758 53.3926C44.5821 53.3926 41.3923 52.2533 40.1011 50.5065C39.7214 50.0508 39.5695 49.5191 39.5695 48.9875V48.7596ZM48.0758 40.2533C53.0885 40.2533 56.6581 42.5318 56.6581 44.5824C56.6581 45.4938 55.9745 46.4052 54.8353 47.1647C54.8353 47.1647 54.8353 47.1647 54.7593 47.1647C54.3796 47.3926 53.9239 47.6964 53.3923 47.8483C50.3543 49.1394 45.7973 49.1394 42.7593 47.8483C42.3037 47.6204 41.848 47.3926 41.4682 47.1647C41.4682 47.1647 41.3923 47.1647 41.3923 47.0888C40.253 46.3293 39.5695 45.4179 39.5695 44.5065V44.4305C39.5695 42.6077 43.0631 40.2533 48.0758 40.2533ZM48.0758 57.7217C43.0631 57.7217 39.5695 55.4432 39.5695 53.3926V53.1647C41.5442 54.7596 44.734 55.671 48.0758 55.671C51.4935 55.671 54.6075 54.6837 56.6581 53.1647V53.3926C56.6581 55.4432 53.1644 57.7217 48.0758 57.7217Z" fill="black"/>
<path d="M1.13924 42.5316C1.74684 42.5316 2.27848 41.9999 2.27848 41.3924V39.0379C2.27848 38.4303 1.74684 37.8987 1.13924 37.8987C0.531646 37.8987 0 38.4303 0 39.0379V41.3924C0 41.9999 0.531646 42.5316 1.13924 42.5316Z" fill="black"/>
<path d="M34.481 56.2024H2.27848V45.3416C2.27848 44.734 1.74684 44.2024 1.13924 44.2024C0.531646 44.2024 0 44.734 0 45.3416V57.3416C0 57.9492 0.531646 58.4809 1.13924 58.4809H34.481C35.0886 58.4809 35.6203 57.9492 35.6203 57.3416C35.6203 56.734 35.0886 56.2024 34.481 56.2024Z" fill="black"/>
<path d="M1.13915 36.2278C1.74675 36.2278 2.27839 35.6962 2.27839 35.0886V13.6709H12.5316C13.1392 13.6709 13.6708 13.1392 13.6708 12.5316V2.27848H43.2151V34.2532C43.2151 34.8608 43.7467 35.3924 44.3543 35.3924C44.9619 35.3924 45.4936 34.8608 45.4936 34.2532V1.13924C45.4936 0.531646 44.9619 0 44.3543 0H13.291C13.1392 0 13.0632 2.88592e-07 12.9113 0.0759497C12.8354 2.88592e-07 12.6835 0 12.6075 0C12.5316 0 12.5316 0 12.5316 0C12.4556 0 12.3037 2.88592e-07 12.2278 0.0759497C12.2278 0.0759497 12.1518 0.0759492 12.1518 0.151899C11.9999 0.227848 11.924 0.303797 11.848 0.379747L0.455606 11.7722C0.379657 11.8481 0.303707 11.9241 0.227758 12.0759C0.151808 12.2278 0.0758592 12.3797 0.0758592 12.6076V35.1646C-9.01669e-05 35.6962 0.531555 36.2278 1.13915 36.2278ZM11.3923 3.87342V11.3924H3.87333L11.3923 3.87342Z" fill="black"/>
</svg>
