<svg width="61" height="60" viewBox="0 0 61 60" fill="none" xmlns="http://www.w3.org/2000/svg">
<path d="M18.1213 12.3586C18.1213 12.0138 18.3997 11.7354 18.7443 11.7354H39.0051C39.3498 11.7354 39.6282 12.0138 39.6282 12.3586C39.6282 12.7033 39.3498 12.9817 39.0051 12.9817H18.7443C18.3997 12.9817 18.1213 12.7033 18.1213 12.3586ZM5.50406 23.0637H29.5161C29.8608 23.0637 30.1392 22.7853 30.1392 22.4405C30.1392 22.0958 29.8608 21.8174 29.5161 21.8174H5.50406C5.15941 21.8174 4.88103 22.0958 4.88103 22.4405C4.88103 22.7826 5.16205 23.0637 5.50406 23.0637ZM5.50406 43.2242H33.6861C34.0308 43.2242 34.3092 42.9458 34.3092 42.6011C34.3092 42.2564 34.0308 41.9779 33.6861 41.9779H5.50406C5.15941 41.9779 4.88103 42.2564 4.88103 42.6011C4.88103 42.9458 5.16205 43.2242 5.50406 43.2242ZM39.0045 47.0188H5.50406C5.15941 47.0188 4.88103 47.2972 4.88103 47.6419C4.88103 47.9866 5.15941 48.265 5.50406 48.265H39.0018C39.3464 48.265 39.6248 47.9866 39.6248 47.6419C39.6248 47.2972 39.3465 47.0188 39.0045 47.0188ZM5.50406 38.1831H29.5453C29.89 38.1831 30.1683 37.9047 30.1683 37.56C30.1683 37.2153 29.89 36.9368 29.5453 36.9368H5.50406C5.15941 36.9368 4.88103 37.2153 4.88103 37.56C4.88103 37.9047 5.16205 38.1831 5.50406 38.1831ZM5.50406 28.1011H27.8594C28.2041 28.1011 28.4824 27.8227 28.4824 27.478C28.4824 27.1333 28.2041 26.8549 27.8594 26.8549L5.50406 26.8575C5.15941 26.8575 4.88103 27.1359 4.88103 27.4806C4.88103 27.8227 5.16205 28.1011 5.50406 28.1011ZM12.1374 18.0219H33.6172C33.9618 18.0219 34.2402 17.7435 34.2402 17.3987C34.2402 17.054 33.9618 16.7756 33.6172 16.7756H12.1374C11.7927 16.7756 11.5143 17.054 11.5143 17.3987C11.5143 17.7435 11.7927 18.0219 12.1374 18.0219ZM5.50406 33.1415H27.8696C28.2142 33.1415 28.4926 32.863 28.4926 32.5183C28.4926 32.1736 28.2142 31.8952 27.8696 31.8952L5.50406 31.8978C5.15941 31.8978 4.88103 32.1762 4.88103 32.521C4.88103 32.863 5.16205 33.1415 5.50406 33.1415ZM60.8956 53.989C60.649 55.0576 60.0154 55.9114 59.0663 56.4603C58.4618 56.8077 57.8176 56.9854 57.1574 56.9854C56.7783 56.9854 56.3938 56.927 56.0121 56.8103C54.9648 56.4895 54.1562 55.8 53.6764 54.8163L47.8994 42.9816C46.8204 43.3157 45.6803 43.5013 44.5058 43.557V55.8024C44.5058 58.1173 42.6235 60 40.309 60L4.19687 59.9973C1.88233 59.9973 0 58.1147 0 55.7997V13.5847C0 13.4203 0.0662803 13.2612 0.182933 13.1445L13.1395 0.182965C13.2562 0.0662875 13.4152 0 13.5796 0H40.3092C42.6238 0 44.5061 1.88266 44.5061 4.19761V16.3873C51.7228 16.7162 57.4946 22.6745 57.4946 29.9694C57.4946 33.9734 55.7474 37.5689 52.9849 40.0615L60.3339 50.9649C60.949 51.8771 61.1425 52.9218 60.896 53.9878L60.8956 53.989ZM43.8858 17.6024C37.0668 17.6024 31.5176 23.1523 31.5176 29.9727C31.5176 36.7929 37.0666 42.343 43.8858 42.343C50.7048 42.3403 56.2539 36.7904 56.2539 29.97C56.2539 23.1496 50.7049 17.6024 43.8858 17.6024ZM2.1268 12.962H10.0087C11.6365 12.962 12.9621 11.6361 12.9621 10.008L12.9595 2.12744L2.1268 12.962ZM43.2627 55.7995V43.5541C36.046 43.2253 30.2742 37.267 30.2742 29.9721C30.2742 22.6747 36.0486 16.7193 43.2627 16.39V4.1976C43.2627 2.56949 41.9371 1.24361 40.3092 1.24361L14.2027 1.24626V10.0099C14.2027 12.3249 12.3203 14.2075 10.0058 14.2075L1.24367 14.2049V55.7968C1.24367 57.4249 2.56926 58.7508 4.19714 58.7508H40.312C41.9398 58.7508 43.2627 57.4277 43.2627 55.7995ZM59.3054 51.6655L52.0228 40.8599C51.1188 41.5388 50.1352 42.1142 49.0774 42.5517L54.796 54.2697C55.1248 54.9458 55.6576 55.3993 56.3761 55.6194C57.0946 55.8395 57.7918 55.7599 58.4441 55.3834C59.0963 55.0068 59.5125 54.4447 59.6822 53.7102C59.8519 52.9757 59.7243 52.2886 59.3054 51.6655ZM43.8858 19.1639C49.843 19.1639 54.6895 24.0111 54.6895 29.9695C54.6895 35.9278 49.8431 40.7751 43.8858 40.7751C37.9285 40.7751 33.0821 35.9278 33.0821 29.9695C33.0821 24.0112 37.9285 19.1639 43.8858 19.1639ZM43.8858 20.4101C38.6152 20.4101 34.3255 24.6979 34.3255 29.9721C34.3255 35.2436 38.6125 39.5341 43.8858 39.5341C49.1564 39.5341 53.4461 35.2464 53.4461 29.9721C53.4461 24.698 49.1564 20.4101 43.8858 20.4101ZM43.8858 25.4802C46.3912 25.4802 48.7348 26.4666 50.4847 28.2592C51.4073 29.2032 51.4073 30.7411 50.4847 31.6852C48.7322 33.4777 46.3885 34.4641 43.8858 34.4641C41.3804 34.4641 39.0367 33.4777 37.2869 31.6852C36.3642 30.7412 36.3642 29.2032 37.2869 28.2592C39.0367 26.4667 41.383 25.4802 43.8858 25.4802ZM46.4972 29.9695C46.4972 28.5296 45.3254 27.3576 43.8858 27.3576C42.4462 27.3576 41.2743 28.5296 41.2743 29.9695C41.2743 31.4094 42.4462 32.5814 43.8858 32.5814C45.3254 32.5841 46.4972 31.412 46.4972 29.9695ZM38.1749 30.8127C39.0445 31.701 40.0864 32.3533 41.2212 32.7538C40.4868 32.051 40.0281 31.0646 40.0281 29.9695C40.0281 28.8743 40.4894 27.8879 41.2212 27.1852C40.0838 27.5856 39.0445 28.2379 38.1749 29.1262C37.7215 29.5929 37.7215 30.3487 38.1749 30.8127ZM49.5962 29.1289C48.7267 28.2406 47.6847 27.5883 46.55 27.1878C47.2843 27.8906 47.743 28.877 47.743 29.9721C47.743 31.0673 47.2817 32.0537 46.55 32.7564C47.6874 32.356 48.7266 31.7037 49.5962 30.8154C50.0496 30.3487 50.0496 29.5929 49.5962 29.1289Z" fill="black"/>
</svg>
