<svg width="49" height="60" viewBox="0 0 49 60" fill="none" xmlns="http://www.w3.org/2000/svg">
<path d="M35.1596 47.9463C33.9825 47.9463 33.0319 48.9001 33.0319 50.0751C33.0319 50.8558 33.4713 51.5086 34.0944 51.8789V54.3861H36.2249V51.8789C36.848 51.5086 37.2848 50.8558 37.2848 50.0778C37.2848 48.9001 36.3314 47.9489 35.157 47.9489L35.1596 47.9463Z" fill="#1A237E"/>
<path d="M48.9997 6.65565H47.9345C43.2448 6.65565 33.485 6.65565 25.1336 0.468934L24.4998 0L23.866 0.468934C15.5147 6.65565 5.75491 6.65565 1.06522 6.65565H0V31.2482C0 44.437 9.73048 55.9527 24.2175 59.9067L24.284 59.667C24.7128 59.8748 25.1868 60 25.6955 60H44.6485C46.4514 60 47.9134 58.5346 47.9134 56.7334V46.185C47.9134 44.8954 47.1545 43.787 46.068 43.2568C47.9827 39.4574 49 35.4312 49 31.2507L48.9997 6.65565ZM40.4622 42.9126H29.8769V41.6284C29.8769 38.7082 32.2496 36.3342 35.1683 36.3342C38.087 36.3342 40.4598 38.7082 40.4598 41.6284V42.9126H40.4622ZM35.1708 34.2051C31.0777 34.2051 27.7487 37.5356 27.7487 41.6309V42.9152H25.6955C23.8926 42.9152 22.4305 44.3806 22.4305 46.1818V52.2166C12.7451 48.6597 6.39396 40.4827 6.39396 31.2316V12.9006C10.5963 12.8686 17.912 12.4849 24.5024 7.88082C31.0961 12.4849 38.4085 12.8686 42.6107 12.9006V31.2343C42.6107 33.4778 42.2379 35.6785 41.4976 37.8021C40.1927 35.6572 37.8599 34.2078 35.1729 34.2078L35.1708 34.2051ZM45.7827 56.7323C45.7827 57.3585 45.2741 57.8674 44.6483 57.8674H25.6952C25.0694 57.8674 24.5607 57.3585 24.5607 56.7323V53.7988L24.7844 52.9835C24.7072 52.9622 24.6353 52.9355 24.5607 52.9142V46.184C24.5607 45.5578 25.0694 45.0489 25.6952 45.0489H44.6483C45.2741 45.0489 45.7827 45.5578 45.7827 46.184V56.7323ZM46.8693 31.2503C46.8693 35.3161 45.8467 39.2355 43.8734 42.9153H42.5925V41.6311C42.5925 41.3433 42.5392 41.0716 42.5073 40.7918L42.5552 40.8158C44.0039 37.7677 44.7362 34.5438 44.7362 31.2345V10.7692H43.671C39.5619 10.7692 31.9164 10.7692 25.1338 5.7095L24.4973 5.23524L23.8609 5.7095C17.0807 10.7692 9.4325 10.7692 5.32365 10.7692H4.25843V31.2318C4.25843 41.6281 11.4883 50.7619 22.4255 54.4732V56.7272C22.4255 56.8631 22.4494 56.9937 22.4654 57.1269C10.2077 52.8985 2.12772 42.7499 2.12772 31.2452V8.78683C7.22482 8.76018 16.3406 8.36585 24.497 2.64274C32.654 8.36584 41.7696 8.76023 46.8663 8.78683V31.2506L46.8693 31.2503Z" fill="#1A237E"/>
<path d="M7.45578 17.3132H8.521V23.7077H10.6514V15.1816H7.45578V17.3132Z" fill="#1A237E"/>
<path d="M20.2384 23.7077H22.3688V15.1816H19.1732V17.3132H20.2384V23.7077Z" fill="#1A237E"/>
<path d="M18.108 15.1816H11.7166V23.7077H18.108V15.1816ZM15.9775 21.5762H13.8471V17.3132H15.9775V21.5762Z" fill="#1A237E"/>
<path d="M23.4344 23.7077H29.8257V15.1816H23.4344V23.7077ZM25.5648 17.3132H27.6953V21.5762H25.5648V17.3132Z" fill="#1A237E"/>
<path d="M30.8456 17.3132H31.9108V23.7077H34.0412V15.1816H30.8456V17.3132Z" fill="#1A237E"/>
<path d="M35.1065 23.7077H41.4978V15.1816H35.1065V23.7077ZM37.2369 17.3132H39.3674V21.5762H37.2369V17.3132Z" fill="#1A237E"/>
<path d="M7.45578 27.9817H8.521V34.3763H10.6514V25.8502H7.45578V27.9817Z" fill="#1A237E"/>
<path d="M20.2384 34.3763H22.3688V25.8502H19.1732V27.9817H20.2384V34.3763Z" fill="#1A237E"/>
<path d="M18.108 25.8502H11.7166V34.3763H18.108V25.8502ZM15.9775 32.2448H13.8471V27.9817H15.9775V32.2448Z" fill="#1A237E"/>
<path d="M12.7979 38.6502H13.8631V45.0447H15.9935V36.5187H12.7979V38.6502Z" fill="#1A237E"/>
<path d="M17.0588 42.9132H23.4501V36.5187H17.0588V42.9132ZM19.1892 38.6502H21.3197V40.7817H19.1892V38.6502Z" fill="#1A237E"/>
<path d="M23.4344 34.3763H29.8257V25.8502H23.4344V34.3763ZM25.5648 27.9817H27.6953V32.2448H25.5648V27.9817Z" fill="#1A237E"/>
<path d="M30.8456 27.9817H31.9108V32.2448H34.0412V25.8502H30.8456V27.9817Z" fill="#1A237E"/>
<path d="M35.1065 32.2448H41.4978V25.8502H35.1065V32.2448ZM37.2369 27.9817H39.3674V30.1133H37.2369V27.9817Z" fill="#1A237E"/>
</svg>
