<svg width="60" height="60" viewBox="0 0 60 60" fill="none" xmlns="http://www.w3.org/2000/svg">
<path d="M21.5298 44.0868C18.4325 44.0868 15.9133 41.5677 15.9133 38.4703C15.9133 35.3729 18.4325 32.8538 21.5298 32.8538C24.6272 32.8538 27.1463 35.3729 27.1463 38.4703C27.1463 41.5652 24.6247 44.0868 21.5298 44.0868ZM21.5298 34.7242C19.4658 34.7242 17.7864 36.4037 17.7864 38.4677C17.7864 40.5318 19.4658 42.2112 21.5298 42.2112C23.5939 42.2112 25.2733 40.5318 25.2733 38.4677C25.2733 36.4037 23.5939 34.7242 21.5298 34.7242Z" fill="black"/>
<path d="M21.5306 50.6375C14.8204 50.6375 9.35999 45.1769 9.35999 38.4668C9.35999 31.7568 14.8206 26.2961 21.5306 26.2961C28.2406 26.2961 33.7012 31.7568 33.7012 38.4668C33.6987 45.1797 28.2406 50.6375 21.5306 50.6375ZM21.5306 28.1691C15.8513 28.1691 11.2329 32.7875 11.2329 38.4668C11.2329 44.1462 15.8513 48.7646 21.5306 48.7646C27.2099 48.7646 31.8283 44.1462 31.8283 38.4668C31.8283 32.79 27.2074 28.1691 21.5306 28.1691Z" fill="black"/>
<path d="M21.5302 55.3206C12.2378 55.3206 4.67798 47.7608 4.67798 38.4683C4.67798 29.1758 12.2378 21.616 21.5302 21.616C30.8226 21.616 38.3824 29.1758 38.3824 38.4683C38.3799 47.7608 30.82 55.3206 21.5302 55.3206ZM21.5302 23.4921C13.2714 23.4921 6.55152 30.212 6.55152 38.4709C6.55152 46.7297 13.2714 53.4496 21.5302 53.4496C29.789 53.4496 36.5089 46.7297 36.5089 38.4709C36.5064 30.2095 29.789 23.4921 21.5302 23.4921Z" fill="black"/>
<path d="M21.5306 59.9999C9.65926 59.9999 0 50.3406 0 38.4692C0 26.5978 9.65926 16.9385 21.5306 16.9385C33.4019 16.9385 43.0612 26.5978 43.0612 38.4692C43.0612 50.3406 33.4019 59.9999 21.5306 59.9999ZM21.5306 18.8088C10.6897 18.8088 1.87032 27.6282 1.87032 38.4692C1.87032 49.3102 10.6897 58.1296 21.5306 58.1296C32.3715 58.1296 41.1909 49.3102 41.1909 38.4692C41.1884 27.6282 32.369 18.8088 21.5306 18.8088Z" fill="black"/>
<path d="M21.5303 39.4057C21.2915 39.4057 21.0501 39.3152 20.8691 39.1317C20.5046 38.7672 20.5046 38.1738 20.8691 37.8068L45.8237 12.852C46.1883 12.4875 46.7816 12.4875 47.1486 12.852C47.5132 13.2166 47.5132 13.8099 47.1486 14.177L22.194 39.1317C22.008 39.3152 21.7691 39.4057 21.5303 39.4057Z" fill="black"/>
<path d="M53.1045 14.4505H46.485C45.9671 14.4505 45.5498 14.0307 45.5498 13.5153L45.5472 6.89317C45.5472 6.64427 45.6453 6.40794 45.8213 6.23198L51.7797 0.273557C52.0336 0.0196326 52.4107 -0.0658455 52.7526 0.0523152C53.092 0.170476 53.3334 0.474685 53.3736 0.831665L53.9518 6.04595L59.1661 6.62419C59.5231 6.66442 59.8273 6.90577 59.9454 7.24518C60.0636 7.58458 59.9781 7.96171 59.7242 8.21812L53.7658 14.1766C53.5898 14.35 53.3533 14.4505 53.1045 14.4505ZM47.4201 12.5775H52.7148L57.0215 8.27082L52.9989 7.82331C52.564 7.77554 52.2196 7.4311 52.1718 6.99614L51.7243 2.97356L47.4201 7.28023L47.4201 12.5775Z" fill="black"/>
</svg>
