<svg width="60" height="60" viewBox="0 0 60 60" fill="none" xmlns="http://www.w3.org/2000/svg">
<path d="M58.7163 52.5057L41.7632 35.5525C44.2152 31.9135 45.6499 27.5336 45.6499 22.8251C45.6499 10.2386 35.4114 0 22.8249 0C10.2385 0 0 10.2386 0 22.8251C0 35.4116 10.2385 45.6501 22.8249 45.6501C27.5334 45.6501 31.9129 44.2154 35.5523 41.7634L52.5054 58.7166C53.361 59.5721 54.4879 60 55.6121 60C56.7364 60 57.8607 59.5722 58.7189 58.7166C60.4275 57.0054 60.4275 54.2195 58.7163 52.5057ZM1.22118 22.8257C1.22118 10.915 10.9121 1.22406 22.8227 1.22406C34.7334 1.22406 44.4243 10.915 44.4243 22.8257C44.4243 34.7364 34.7334 44.4274 22.8227 44.4274C10.9121 44.4274 1.22118 34.7391 1.22118 22.8257ZM57.8502 57.8533C56.6137 59.0898 54.6051 59.0898 53.3687 57.8533L36.5592 41.0437C38.2522 39.7655 39.7599 38.2551 41.0406 36.5622L57.8502 53.3718C59.084 54.6057 59.084 56.6169 57.8502 57.8533ZM22.8227 5.01176C12.9989 5.01176 5.0062 13.0045 5.0062 22.8284C5.0062 32.6523 12.9989 40.645 22.8227 40.645C32.6466 40.645 40.6393 32.6523 40.6393 22.8284C40.6393 13.0045 32.6466 5.01176 22.8227 5.01176ZM22.8227 39.4183C13.6747 39.4183 6.23225 31.9758 6.23225 22.8277C6.23225 13.6797 13.6747 6.23716 22.8227 6.23716C31.9708 6.23716 39.4132 13.6797 39.4132 22.8277C39.4158 31.9758 31.9734 39.4183 22.8227 39.4183ZM35.1247 16.035C35.1143 15.8732 35.0386 15.7219 34.916 15.615C34.7934 15.508 34.6343 15.4559 34.4726 15.4637L31.6606 15.6489C31.3241 15.6724 31.0685 15.9619 31.0893 16.301C31.1128 16.6375 31.4023 16.8958 31.7415 16.8723L33.111 16.781L28.5721 22.1338C28.2486 21.9772 27.8939 21.8833 27.513 21.8833C26.8374 21.8833 26.227 22.1572 25.7836 22.6007L21.9621 20.3469C22.0247 20.133 22.0664 19.9086 22.0664 19.6765C22.0664 18.3253 20.9682 17.227 19.617 17.227C18.2657 17.227 17.1675 18.3252 17.1675 19.6765C17.1675 20.2008 17.3371 20.686 17.6188 21.0851L13.8417 25.5406C13.5208 25.384 13.1635 25.2901 12.7826 25.2901C11.4314 25.2901 10.3332 26.3883 10.3332 27.7396C10.3332 29.0908 11.4313 30.189 12.7826 30.189C14.1339 30.189 15.2321 29.0909 15.2321 27.7396C15.2321 27.2153 15.0625 26.7301 14.7808 26.3309L18.5579 21.8755C18.8788 22.032 19.2361 22.1259 19.617 22.1259C20.2926 22.1259 20.903 21.852 21.3464 21.4086L25.1679 23.6624C25.1053 23.8763 25.0636 24.1006 25.0636 24.3328C25.0636 25.684 26.1618 26.7822 27.513 26.7822C28.8642 26.7822 29.9625 25.6841 29.9625 24.3328C29.9625 23.8085 29.7929 23.3233 29.5112 22.9241L34.0031 17.6262L34.0892 18.9278C34.1127 19.2643 34.4048 19.5174 34.7413 19.4991C35.0778 19.4756 35.3335 19.1861 35.3126 18.847L35.1247 16.035ZM12.7852 28.9627C12.1096 28.9627 11.5619 28.4123 11.5619 27.7393C11.5619 27.0637 12.1123 26.5159 12.7852 26.5159C13.4608 26.5159 14.0086 27.0663 14.0086 27.7393C14.0086 28.4149 13.4608 28.9627 12.7852 28.9627ZM19.6194 20.8998C18.9438 20.8998 18.396 20.3494 18.396 19.6764C18.396 19.0008 18.9464 18.453 19.6194 18.453C20.295 18.453 20.8428 19.0034 20.8428 19.6764C20.8454 20.352 20.295 20.8998 19.6194 20.8998ZM27.5153 25.5561C26.8397 25.5561 26.2919 25.0057 26.2919 24.3327C26.2919 23.6571 26.8423 23.1093 27.5153 23.1093C28.1909 23.1093 28.7387 23.6597 28.7387 24.3327C28.7387 25.0083 28.1909 25.5561 27.5153 25.5561Z" fill="black"/>
</svg>
