<svg width="45" height="60" viewBox="0 0 45 60" fill="none" xmlns="http://www.w3.org/2000/svg">
<path fill-rule="evenodd" clip-rule="evenodd" d="M24.012 20.9498C23.8909 21.1644 23.5655 20.9742 23.6892 20.7623C23.8129 20.5477 24.1384 20.7324 24.012 20.9498ZM24.8458 19.1187C23.899 18.5644 22.6805 18.8932 22.1318 19.8522C21.3652 21.1943 22.3362 22.8624 23.8506 22.8624C24.5365 22.8624 25.2063 22.501 25.5747 21.8599C26.1208 20.9009 25.7953 19.6702 24.8458 19.1187ZM18.253 15.3532C18.3741 15.1386 18.7022 15.326 18.5758 15.5434C18.4521 15.758 18.1266 15.5678 18.253 15.3532ZM17.4192 17.187C18.3687 17.7385 19.5818 17.4152 20.1332 16.4535C20.682 15.4945 20.3565 14.2638 19.407 13.7123C17.8738 12.8184 16.0393 14.2583 16.4939 15.9699C16.6311 16.4861 16.9592 16.9181 17.4192 17.187ZM16.771 21.2703C16.4213 21.6262 16.4213 22.2021 16.771 22.5554C17.1233 22.9113 17.6935 22.9113 18.0433 22.5554L25.4939 15.0301C25.8463 14.6742 25.8463 14.101 25.4939 13.7451C25.1415 13.3892 24.5713 13.3892 24.2216 13.7451L16.771 21.2703ZM44.5999 7.00437C45.0114 6.72455 45.1244 6.1622 44.85 5.74379L41.321 0.399906C41.2215 0.253199 41.0708 0.120082 40.9041 0.0603111C40.4871 -0.0918279 40.1482 0.0901957 40.1482 0.103779C40.0487 0.152681 39.8442 0.329272 39.8227 0.399906L36.2963 5.74379C36.0193 6.15946 36.1323 6.72458 36.5465 7.00437C36.9607 7.2842 37.5176 7.17009 37.7946 6.75171L39.6721 3.90729V41.2789C39.6721 43.3953 37.9667 45.1204 35.8687 45.1204L17.059 45.1176C13.9711 45.1176 11.4561 47.6551 11.4561 50.7767V59.0899C11.4561 59.5925 11.8569 60 12.3572 60C12.8548 60 13.2556 59.5925 13.2556 59.0899L13.2583 50.7767C13.2583 48.6603 14.9637 46.9352 17.0617 46.9352H35.8714C38.962 46.9352 41.4743 44.3977 41.4743 41.2762V3.90735L43.3518 6.75178C43.6289 7.1756 44.1883 7.28148 44.5999 7.00437ZM5.91732 32.3759L1.79917 36.3832V4.33904C1.79917 4.27655 1.85297 4.22221 1.91752 4.22221H22.457C22.5188 4.22221 22.5726 4.27655 22.5726 4.33904V9.39221H10.4657C8.59902 9.39221 7.07653 10.9272 7.07653 12.8154V23.4925C7.07653 25.378 8.59626 26.913 10.4657 26.913H22.5726V36.3835L18.4545 32.3763C18.1075 32.0367 17.5534 32.0367 17.2064 32.3763L12.1872 37.2583L7.16791 32.3763C6.81823 32.0367 6.26699 32.0363 5.91732 32.3759ZM33.3861 12.8124C33.3861 11.9295 32.6733 11.2095 31.7991 11.2095H10.4664C9.59222 11.2095 8.87938 11.9295 8.87938 12.8124V23.4896C8.87938 24.3726 9.59222 25.0925 10.4664 25.0925H31.7991C32.6759 25.0925 33.3861 24.3753 33.3861 23.4896V12.8124ZM12.8115 39.1758L17.8308 34.2938L22.85 39.1758C23.4203 39.73 24.3751 39.3198 24.3751 38.521L24.3724 26.9098H31.7989C33.6684 26.9098 35.1882 25.3748 35.1882 23.4893V12.8121C35.1882 10.924 33.6684 9.389 31.7989 9.389L24.3724 9.39172V4.33855C24.3724 3.27083 23.5117 2.40146 22.4546 2.40146H1.91788C0.860745 2.40146 0 3.26811 0 4.33855V38.5206C0 39.3193 0.954876 39.7296 1.5251 39.1754L6.54435 34.2933L11.5636 39.1754C11.9106 39.5149 12.4619 39.5154 12.8115 39.1758Z" fill="black"/>
</svg>
