<svg width="60" height="60" viewBox="0 0 60 60" fill="none" xmlns="http://www.w3.org/2000/svg">
<path d="M50.4492 32.8412C55.4021 16.8037 42.5572 -0.261656 25.7437 0.00304042C11.5498 0.00304042 0.00299433 11.5372 0.00299433 25.7156C-0.259802 42.5108 16.822 55.3445 32.877 50.3941C34.7032 55.9631 39.9486 60 46.1242 60C62.0261 59.6786 65.3138 37.9465 50.4524 32.8384L50.4492 32.8412ZM25.7437 49.288C-5.55896 47.9942 -5.55622 3.43724 25.7437 2.14598C38.7548 2.14598 49.3418 12.7188 49.3418 25.7184C49.3418 27.9926 49.0013 30.2132 48.363 32.3428C47.6551 32.2276 46.9338 32.1526 46.1936 32.1499C50.6907 18.7032 39.9642 4.05026 25.7437 4.28889C-2.71345 5.46481 -2.70796 45.9717 25.7437 47.145C27.9587 47.145 30.1147 46.7995 32.1822 46.1432C32.1849 46.8825 32.26 47.6031 32.3753 48.3103C30.2434 48.9452 28.0204 49.288 25.7437 49.288ZM32.3807 43.8074C30.6001 44.4664 28.7364 44.8494 26.8163 44.9539V43.9333C26.8163 43.3413 26.3363 42.8619 25.7437 42.8619C25.1511 42.8619 24.671 43.3413 24.671 43.9333V44.9512C14.883 44.4102 7.03439 36.5694 6.49274 26.7928H7.51177C8.10441 26.7928 8.58442 26.3133 8.58442 25.7213C8.58442 25.1293 8.10441 24.6499 7.51177 24.6499H6.49274C7.03443 14.8725 14.8837 7.03245 24.671 6.4914V7.50931C24.671 8.1013 25.1511 8.58078 25.7437 8.58078C26.3363 8.58078 26.8163 8.1013 26.8163 7.50931V6.4914C36.6043 7.03249 44.453 14.8732 44.9946 24.6499H43.9756C43.383 24.6499 42.903 25.1293 42.903 25.7213C42.903 26.3133 43.383 26.7928 43.9756 26.7928H44.9973C44.8927 28.7107 44.5093 30.5724 43.8496 32.3511C37.9795 33.3181 33.3428 37.9469 32.3776 43.8105L32.3807 43.8074ZM46.1242 57.8597C39.6186 57.8597 34.3248 52.572 34.3248 46.0731C34.9738 30.4375 57.277 30.443 57.923 46.0731C57.923 52.5716 52.6302 57.8597 46.1242 57.8597Z" fill="#1A237E"/>
<path d="M51.7981 41.0325L43.9755 48.8465L40.4439 45.3187C39.4517 44.333 37.9366 45.8384 38.9261 46.8348L43.2167 51.1207C43.635 51.5386 44.3135 51.5386 44.7345 51.1207L53.3156 42.5489C54.2998 41.5578 52.7983 40.0441 51.7981 41.0325Z" fill="#1A237E"/>
<path d="M34.3221 24.6465H28.7604C28.4359 23.7385 27.7226 23.0259 26.8136 22.7018V12.86C26.8136 12.2681 26.3336 11.7886 25.7409 11.7886C25.1483 11.7886 24.6683 12.2681 24.6683 12.86V22.7018C23.4214 23.1465 22.523 24.3224 22.523 25.718C22.5579 29.3155 27.559 30.1432 28.7604 26.7895H34.3221C35.7299 26.7654 35.7353 24.6707 34.3221 24.6465ZM25.7409 26.7895C24.3304 26.7654 24.3304 24.6707 25.7409 24.6465C27.1515 24.6706 27.1515 26.7653 25.7409 26.7895Z" fill="#1A237E"/>
</svg>
