<svg width="73" height="60" viewBox="0 0 73 60" fill="none" xmlns="http://www.w3.org/2000/svg">
<path fill-rule="evenodd" clip-rule="evenodd" d="M17.9091 25.931C17.7071 25.931 17.543 26.0952 17.543 26.2969L17.5431 53.4886C17.5431 53.6908 17.7071 53.8545 17.909 53.8545L54.2653 53.8545C54.467 53.8545 54.6311 53.6895 54.6311 53.4873L54.6312 26.2969C54.6312 26.0952 54.467 25.9311 54.2653 25.9311L17.9091 25.931ZM54.2654 55.5073H17.9091C16.7959 55.5073 15.8903 54.6021 15.8903 53.4888L15.8903 26.297C15.8903 25.184 16.7958 24.2785 17.909 24.2785L54.2653 24.2783C55.3784 24.2783 56.2839 25.184 56.2839 26.297L56.2839 53.4873C56.2839 54.6007 55.3784 55.5074 54.2654 55.5073Z" fill="#1A237E"/>
<path fill-rule="evenodd" clip-rule="evenodd" d="M47.0162 25.9314C46.5598 25.9314 46.19 25.5615 46.19 25.1052L46.19 17.0869C46.19 11.5162 41.6577 6.9843 36.0871 6.9843C30.5164 6.98416 25.9843 11.5163 25.9843 17.087L25.9844 25.1051C25.9844 25.5615 25.6142 25.9315 25.1579 25.9315C24.7016 25.9314 24.3315 25.5615 24.3315 25.1052L24.3316 17.0869C24.3316 10.605 29.605 5.33154 36.0871 5.33154C42.5691 5.3314 47.8425 10.605 47.8425 17.087L47.8426 25.1051C47.8426 25.5615 47.4727 25.9315 47.0162 25.9314Z" fill="#1A237E"/>
<path fill-rule="evenodd" clip-rule="evenodd" d="M52.3465 25.9333C51.8901 25.9333 51.5201 25.5635 51.5201 25.107L51.5201 17.089C51.5201 12.9671 49.9141 9.09115 46.9978 6.17497C44.0849 3.25869 40.21 1.65268 36.0872 1.65268C27.5784 1.65254 20.6559 8.57668 20.6559 17.0873V25.1054C20.6559 25.5618 20.2857 25.9318 19.8294 25.9318C19.3731 25.9318 19.0032 25.5618 19.0032 25.1055V17.0872C19.0032 7.66529 26.667 8.16291e-09 36.0872 8.16291e-09C40.6518 -0.000139113 44.9418 1.77803 48.1668 5.00667C51.3948 8.23452 53.1728 12.5256 53.1728 17.089L53.1729 25.1069C53.1729 25.5634 52.8029 25.9334 52.3465 25.9333Z" fill="#1A237E"/>
<path fill-rule="evenodd" clip-rule="evenodd" d="M3.36197 21.442C2.41956 21.442 1.65263 22.2087 1.65263 23.151C1.65272 24.0934 2.41947 24.8603 3.36192 24.8603C4.30424 24.8603 5.07095 24.0934 5.07095 23.151C5.07099 22.2086 4.30424 21.4421 3.36197 21.442ZM3.36197 26.5129C1.50817 26.5129 0 25.0048 0 23.1511C0 21.2973 1.50817 19.7893 3.36192 19.7893C5.21558 19.7892 6.72371 21.2974 6.72371 23.1511C6.72376 25.0048 5.21555 26.513 3.36197 26.5129Z" fill="#1A237E"/>
<path fill-rule="evenodd" clip-rule="evenodd" d="M16.7167 31.4896H5.49724C3.86409 31.4896 2.53552 30.1611 2.53552 28.528L2.53557 25.6841C2.53557 25.2275 2.9054 24.8578 3.36191 24.8578C3.81832 24.8577 4.18815 25.2276 4.18815 25.6842V28.5279C4.18815 29.2496 4.77538 29.8369 5.49715 29.8369L16.7167 29.8369C17.173 29.8369 17.543 30.2068 17.543 30.6633C17.5431 31.1195 17.173 31.4897 16.7167 31.4896Z" fill="#1A237E"/>
<path fill-rule="evenodd" clip-rule="evenodd" d="M3.36197 54.9298C2.41956 54.9298 1.65263 55.6961 1.65263 56.6387C1.65272 57.5812 2.41947 58.3474 3.36192 58.3474C4.30424 58.3474 5.07095 57.5813 5.07095 56.6387C5.07099 55.696 4.30424 54.93 3.36197 54.9298ZM3.36197 60.0001C1.50817 60.0001 0 58.4923 0 56.6387C0 54.785 1.50817 53.2772 3.36192 53.2772C5.21558 53.277 6.72371 54.7851 6.72371 56.6387C6.72376 58.4923 5.21555 60.0002 3.36197 60.0001Z" fill="#1A237E"/>
<path fill-rule="evenodd" clip-rule="evenodd" d="M3.36201 54.9289C2.90546 54.9289 2.53558 54.5604 2.53558 54.1042L2.53563 51.2615C2.53563 49.6265 3.8641 48.2965 5.49721 48.2965L16.7167 48.2964C17.1731 48.2964 17.5431 48.6665 17.5431 49.1229C17.5431 49.5793 17.1731 49.9493 16.7167 49.9493L5.4973 49.9491C4.77549 49.9491 4.18821 50.5379 4.18821 51.2616V54.1025C4.18821 54.5589 3.81833 54.9291 3.36201 54.9289Z" fill="#1A237E"/>
<path fill-rule="evenodd" clip-rule="evenodd" d="M3.36197 38.1843C2.41956 38.1843 1.65263 38.9512 1.65263 39.8936C1.65272 40.8361 2.41947 41.6028 3.36192 41.6028C4.30424 41.6027 5.07095 40.836 5.07095 39.8936C5.07099 38.951 4.30424 38.1845 3.36197 38.1843ZM3.36197 43.2555C1.50817 43.2555 0 41.7474 0 39.8936C0 38.0398 1.50817 36.5319 3.36192 36.5319C5.21558 36.5318 6.72371 38.0399 6.72371 39.8936C6.72376 41.7474 5.21555 43.2556 3.36197 43.2555Z" fill="#1A237E"/>
<path fill-rule="evenodd" clip-rule="evenodd" d="M16.7167 40.7208H5.89735C5.44099 40.7208 5.07092 40.3511 5.07092 39.8946C5.07097 39.4382 5.44089 39.0683 5.89731 39.0683L16.7167 39.0682C17.173 39.0682 17.543 39.4382 17.543 39.8946C17.543 40.3511 17.173 40.721 16.7167 40.7208Z" fill="#1A237E"/>
<path fill-rule="evenodd" clip-rule="evenodd" d="M68.813 21.442C67.8704 21.442 67.1028 22.2087 67.1028 23.151C67.1028 24.0934 67.8703 24.8603 68.813 24.8603C69.7541 24.8603 70.5217 24.0934 70.5217 23.151C70.5217 22.2086 69.7541 21.4421 68.813 21.442ZM68.813 26.5129C66.9579 26.5129 65.45 25.0048 65.45 23.1511C65.4501 21.2973 66.9579 19.7893 68.813 19.7893C70.6666 19.7892 72.1744 21.2974 72.1744 23.1511C72.1744 25.0048 70.6665 26.513 68.813 26.5129Z" fill="#1A237E"/>
<path fill-rule="evenodd" clip-rule="evenodd" d="M66.6767 31.4896H55.4575C55.0012 31.4896 54.6311 31.1196 54.6311 30.6633C54.6311 30.2068 55.0011 29.8369 55.4575 29.8369L66.6767 29.8369C67.3984 29.8369 67.9866 29.2498 67.9866 28.528L67.9866 25.6841C67.9866 25.2275 68.3552 24.8578 68.813 24.8578C69.2692 24.8577 69.6393 25.2276 69.6393 25.6842L69.6394 28.5279C69.6394 30.1611 68.3108 31.4897 66.6767 31.4896Z" fill="#1A237E"/>
<path fill-rule="evenodd" clip-rule="evenodd" d="M68.813 54.9298C67.8704 54.9298 67.1028 55.6961 67.1028 56.6387C67.1028 57.5812 67.8703 58.3474 68.813 58.3474C69.7541 58.3474 70.5217 57.5813 70.5217 56.6387C70.5217 55.696 69.7541 54.93 68.813 54.9298ZM68.813 60.0001C66.9579 60.0001 65.45 58.4923 65.45 56.6387C65.4501 54.785 66.9579 53.2772 68.813 53.2772C70.6666 53.277 72.1744 54.7851 72.1744 56.6387C72.1744 58.4923 70.6665 60.0002 68.813 60.0001Z" fill="#1A237E"/>
<path fill-rule="evenodd" clip-rule="evenodd" d="M68.813 54.9289C68.3553 54.9289 67.9866 54.5604 67.9866 54.1042L67.9866 51.2615C67.9866 50.5378 67.3983 49.9493 66.6767 49.9493L55.4575 49.9492C55.0012 49.9492 54.6311 49.5793 54.6311 49.1229C54.6311 48.6665 55.0011 48.2965 55.4575 48.2965L66.6767 48.2964C68.3109 48.2964 69.6393 49.6266 69.6393 51.2616L69.6394 54.1025C69.6394 54.5589 69.2692 54.9291 68.813 54.9289Z" fill="#1A237E"/>
<path fill-rule="evenodd" clip-rule="evenodd" d="M68.813 38.1843C67.8704 38.1843 67.1028 38.9512 67.1028 39.8936C67.1028 40.8361 67.8703 41.6028 68.813 41.6028C69.7541 41.6027 70.5217 40.836 70.5217 39.8936C70.5217 38.951 69.7541 38.1845 68.813 38.1843ZM68.813 43.2555C66.9579 43.2555 65.45 41.7474 65.45 39.8936C65.4501 38.0398 66.9579 36.5319 68.813 36.5319C70.6666 36.5318 72.1744 38.0399 72.1744 39.8936C72.1744 41.7474 70.6665 43.2556 68.813 43.2555Z" fill="#1A237E"/>
<path fill-rule="evenodd" clip-rule="evenodd" d="M66.2764 40.7208H55.4575C55.0012 40.7208 54.6311 40.3511 54.6311 39.8946C54.6311 39.4382 55.0011 39.0683 55.4575 39.0683L66.2764 39.0682C66.7327 39.0682 67.1028 39.4382 67.1028 39.8946C67.1028 40.3511 66.7326 40.721 66.2764 40.7208Z" fill="#1A237E"/>
<path fill-rule="evenodd" clip-rule="evenodd" d="M22.8023 33.2041C22.7493 33.2041 22.6947 33.1984 22.6416 33.187C22.5886 33.1769 22.5369 33.1612 22.4867 33.1396C22.4365 33.1196 22.3891 33.0937 22.3448 33.0651C22.2988 33.0348 22.2571 32.9991 22.2184 32.9617C22.1798 32.923 22.1453 32.8814 22.1151 32.8355C22.0865 32.7909 22.0608 32.7436 22.0391 32.6934C22.0191 32.6431 22.0032 32.5916 21.9919 32.5385C21.9817 32.4854 21.976 32.4309 21.976 32.3778C21.976 32.1597 22.0649 31.9474 22.2184 31.7925C22.2572 31.755 22.2988 31.7207 22.3448 31.6906C22.3891 31.6604 22.4365 31.6346 22.4867 31.6146C22.5369 31.593 22.5886 31.5773 22.6416 31.5672C22.7479 31.5456 22.8569 31.5457 22.9645 31.5672C23.0176 31.5772 23.0692 31.5931 23.1194 31.6146C23.1682 31.6346 23.217 31.6604 23.2614 31.6906C23.3073 31.7207 23.3491 31.7552 23.3879 31.7925C23.5413 31.9458 23.6287 32.1598 23.6287 32.3778C23.6287 32.4309 23.623 32.4854 23.6129 32.5385C23.6031 32.5914 23.5871 32.6432 23.5656 32.6934C23.5455 32.7436 23.5197 32.791 23.4897 32.8355C23.4596 32.8813 23.425 32.923 23.3879 32.9617C23.3492 32.999 23.3073 33.0349 23.2614 33.0651C23.217 33.0937 23.1682 33.1196 23.1194 33.1396C23.0692 33.1611 23.0175 33.177 22.9645 33.187C22.9114 33.1983 22.8569 33.2042 22.8023 33.2041Z" fill="#1A237E"/>
<path fill-rule="evenodd" clip-rule="evenodd" d="M48.3873 33.2038H26.2469C25.7905 33.2038 25.4205 32.8339 25.4205 32.3775C25.4205 31.9211 25.7905 31.5512 26.2469 31.5512L48.3873 31.551C48.8438 31.551 49.2137 31.9212 49.2137 32.3775C49.2137 32.8338 48.8438 33.2039 48.3873 33.2038Z" fill="#1A237E"/>
<path fill-rule="evenodd" clip-rule="evenodd" d="M22.8023 40.7185C22.7493 40.7185 22.6947 40.7142 22.6416 40.7027C22.5886 40.6926 22.5369 40.6769 22.4867 40.6554C22.4365 40.6352 22.3891 40.6095 22.3448 40.5794C22.2988 40.5491 22.2571 40.5148 22.2184 40.4775C22.1798 40.4387 22.1453 40.3972 22.1151 40.3512C22.0865 40.3067 22.0608 40.2594 22.0391 40.2092C22.0191 40.1589 22.0032 40.1074 21.9932 40.0543C21.9817 40.0012 21.976 39.9467 21.976 39.8936C21.976 39.8389 21.9817 39.7846 21.9932 39.7315C22.0033 39.6784 22.0191 39.6267 22.0391 39.5765C22.0608 39.5262 22.0864 39.479 22.1151 39.4345C22.1453 39.3885 22.1797 39.347 22.2184 39.3082C22.2572 39.2708 22.2988 39.2365 22.3448 39.2064C22.3891 39.1761 22.4365 39.1504 22.4867 39.1303C22.5369 39.1087 22.5886 39.093 22.6416 39.083C22.7479 39.0613 22.8583 39.0614 22.9645 39.083C23.0176 39.0929 23.0692 39.1088 23.1194 39.1303C23.1682 39.1503 23.217 39.1762 23.2614 39.2064C23.3073 39.2365 23.3491 39.2709 23.3879 39.3082C23.425 39.3468 23.4596 39.3886 23.4897 39.4345C23.5197 39.4789 23.5455 39.5262 23.5656 39.5765C23.5857 39.6267 23.603 39.6784 23.6129 39.7315C23.623 39.7844 23.6287 39.839 23.6287 39.8936C23.6287 39.9466 23.623 40.0012 23.6129 40.0543C23.6031 40.1072 23.5857 40.159 23.5656 40.2092C23.5455 40.2594 23.5197 40.3068 23.4897 40.3512C23.4596 40.3971 23.425 40.4387 23.3879 40.4775C23.3492 40.5148 23.3073 40.5493 23.2614 40.5794C23.217 40.6095 23.1682 40.6353 23.1194 40.6554C23.0692 40.6768 23.0175 40.6927 22.9645 40.7027C22.9114 40.7141 22.8569 40.7185 22.8023 40.7185Z" fill="#1A237E"/>
<path fill-rule="evenodd" clip-rule="evenodd" d="M48.3873 40.7195H26.2469C25.7905 40.7195 25.4205 40.3497 25.4205 39.8933C25.4205 39.4369 25.7905 39.0669 26.2469 39.0669L48.3873 39.0668C48.8438 39.0668 49.2137 39.4369 49.2137 39.8933C49.2137 40.3496 48.8438 40.7197 48.3873 40.7195Z" fill="#1A237E"/>
<path fill-rule="evenodd" clip-rule="evenodd" d="M22.8023 48.2355C22.7493 48.2355 22.6947 48.2313 22.6416 48.2198C22.5886 48.2097 22.5369 48.194 22.4867 48.1725C22.4365 48.1522 22.3891 48.1265 22.3448 48.0964C22.2988 48.0662 22.2557 48.0318 22.2184 47.9946C22.065 47.8409 21.976 47.6273 21.976 47.4092C21.976 47.1925 22.0649 46.9788 22.2184 46.8252C22.2558 46.7879 22.2988 46.7535 22.3448 46.7234C22.3891 46.6932 22.4365 46.6675 22.4867 46.6474C22.5369 46.6259 22.5886 46.6101 22.6416 46.6001C22.7479 46.5784 22.8583 46.5785 22.9645 46.6001C23.0176 46.61 23.0692 46.6259 23.1194 46.6474C23.1682 46.6673 23.217 46.6933 23.2614 46.7234C23.3073 46.7535 23.3491 46.788 23.3879 46.8252C23.5413 46.9787 23.6287 47.1926 23.6287 47.4092C23.6287 47.6272 23.5412 47.8396 23.3879 47.9946C23.3492 48.0318 23.3073 48.0663 23.2614 48.0964C23.217 48.1264 23.1682 48.1524 23.1194 48.1725C23.0692 48.1939 23.0175 48.2098 22.9645 48.2198C22.9114 48.2312 22.8569 48.2356 22.8023 48.2355Z" fill="#1A237E"/>
<path fill-rule="evenodd" clip-rule="evenodd" d="M48.3873 48.2365H26.2469C25.7905 48.2365 25.4205 47.8666 25.4205 47.4102C25.4205 46.9538 25.7905 46.584 26.2469 46.584L48.3873 46.5839C48.8438 46.5839 49.2137 46.9539 49.2137 47.4102C49.2137 47.8666 48.8438 48.2366 48.3873 48.2365Z" fill="#1A237E"/>
</svg>
