<svg width="66" height="60" viewBox="0 0 66 60" fill="none" xmlns="http://www.w3.org/2000/svg">
<path d="M0.967189 0H65.0328C65.2897 0.000605356 65.5358 0.103298 65.7171 0.285529C65.8985 0.46776 66.0002 0.714634 66 0.971944V59.0281C66.0001 59.1557 65.9751 59.2822 65.9263 59.4001C65.8776 59.5181 65.8062 59.6253 65.716 59.7155C65.6259 59.8058 65.5189 59.8774 65.4012 59.9262C65.2834 59.975 65.1572 60.0001 65.0298 60H0.967189C0.710519 59.9988 0.46475 59.8959 0.28354 59.7138C0.102331 59.5317 0.000398851 59.2852 0 59.0281V0.971944C0.000398851 0.714818 0.102331 0.468294 0.28354 0.286193C0.46475 0.104092 0.710519 0.00120685 0.967189 0ZM9.56468 46.5017C9.3249 46.5017 9.09494 46.4063 8.9254 46.2365C8.75585 46.0666 8.6606 45.8362 8.6606 45.596C8.6606 45.3558 8.75585 45.1255 8.9254 44.9556C9.09494 44.7858 9.3249 44.6904 9.56468 44.6904H21.0873C21.3271 44.6904 21.557 44.7858 21.7266 44.9556C21.8961 45.1255 21.9914 45.3558 21.9914 45.596C21.9914 45.8362 21.8961 46.0666 21.7266 46.2365C21.557 46.4063 21.3271 46.5017 21.0873 46.5017H9.56468ZM9.56468 52.9245C9.3249 52.9245 9.09494 52.829 8.9254 52.6592C8.75585 52.4893 8.6606 52.259 8.6606 52.0188C8.6606 51.7786 8.75585 51.5482 8.9254 51.3784C9.09494 51.2085 9.3249 51.1131 9.56468 51.1131H21.0873C21.3271 51.1131 21.557 51.2085 21.7266 51.3784C21.8961 51.5482 21.9914 51.7786 21.9914 52.0188C21.9914 52.259 21.8961 52.4893 21.7266 52.6592C21.557 52.829 21.3271 52.9245 21.0873 52.9245H9.56468ZM16.2285 36.2171C16.2321 36.3383 16.2113 36.459 16.1674 36.572C16.1235 36.685 16.0574 36.788 15.9731 36.875C15.8888 36.9619 15.7879 37.0311 15.6764 37.0783C15.5649 37.1255 15.4451 37.1498 15.3241 37.1498C15.2031 37.1498 15.0833 37.1255 14.9718 37.0783C14.8603 37.0311 14.7594 36.9619 14.6751 36.875C14.5907 36.788 14.5247 36.685 14.4808 36.572C14.4369 36.459 14.4161 36.3383 14.4196 36.2171V35.3663C13.8473 35.1745 13.3496 34.8076 12.9968 34.3172C12.644 33.8268 12.4539 33.2377 12.4533 32.6332C12.4601 32.3975 12.5584 32.1737 12.7273 32.0093C12.8962 31.845 13.1223 31.7531 13.3578 31.7531C13.5932 31.7531 13.8194 31.845 13.9883 32.0093C14.1571 32.1737 14.2554 32.3975 14.2622 32.6332C14.2622 32.9161 14.3744 33.1873 14.574 33.3873C14.7737 33.5873 15.0444 33.6996 15.3268 33.6996C15.6091 33.6996 15.8798 33.5873 16.0795 33.3873C16.2791 33.1873 16.3913 32.9161 16.3913 32.6332C16.3913 32.3504 16.2791 32.0792 16.0795 31.8792C15.8798 31.6792 15.6091 31.5668 15.3268 31.5668C14.6444 31.5658 13.9847 31.3218 13.4656 30.8783C12.9464 30.4348 12.6016 29.8208 12.4928 29.146C12.384 28.4712 12.5183 27.7797 12.8717 27.195C13.2252 26.6104 13.7746 26.1707 14.4219 25.9545V25.1106C14.4287 24.8748 14.527 24.651 14.6959 24.4867C14.8648 24.3223 15.0909 24.2304 15.3264 24.2304C15.5618 24.2304 15.788 24.3223 15.9568 24.4867C16.1257 24.651 16.224 24.8748 16.2308 25.1106V25.9576C16.8041 26.1482 17.303 26.5147 17.6566 27.0053C18.0102 27.4959 18.2007 28.0855 18.2009 28.6906C18.1941 28.9264 18.0958 29.1502 17.927 29.3145C17.7581 29.4788 17.5319 29.5708 17.2965 29.5708C17.061 29.5708 16.8349 29.4788 16.666 29.3145C16.4971 29.1502 16.3989 28.9264 16.392 28.6906C16.392 28.4078 16.2799 28.1365 16.0802 27.9366C15.8806 27.7366 15.6098 27.6242 15.3275 27.6242C15.0452 27.6242 14.7744 27.7366 14.5748 27.9366C14.3751 28.1365 14.263 28.4078 14.263 28.6906C14.263 28.9734 14.3751 29.2447 14.5748 29.4447C14.7744 29.6447 15.0452 29.757 15.3275 29.757C16.0102 29.7565 16.6708 29.9996 17.1908 30.4427C17.7108 30.8859 18.0562 31.5002 18.1651 32.1754C18.2739 32.8505 18.1391 33.5425 17.7847 34.1271C17.4304 34.7117 16.8798 35.1508 16.2316 35.3655L16.2285 36.2171ZM15.3245 21.27C17.494 21.2693 19.5966 22.0222 21.2741 23.4005C22.9515 24.7788 24.1 26.6971 24.5238 28.8286C24.9476 30.9601 24.6205 33.1728 23.5982 35.0897C22.5758 37.0067 20.9216 38.5092 18.9174 39.3412C16.9132 40.1733 14.6829 40.2834 12.6068 39.6527C10.5306 39.0221 8.73692 37.6898 7.53144 35.8828C6.32597 34.0759 5.78327 31.9061 5.99582 29.7432C6.20837 27.5803 7.16302 25.5581 8.6971 24.0213C9.56683 23.1486 10.5999 22.4563 11.7371 21.9842C12.8744 21.5121 14.0934 21.2694 15.3245 21.27ZM20.6775 25.3018C19.4394 24.0604 17.81 23.2874 16.0669 23.1147C14.3237 22.9419 12.5747 23.38 11.1179 24.3542C9.66101 25.3285 8.58646 26.7787 8.07732 28.4577C7.56817 30.1367 7.65594 31.9406 8.32567 33.562C8.9954 35.1834 10.2056 36.522 11.7502 37.3497C13.2947 38.1775 15.078 38.4431 16.7961 38.1013C18.5142 37.7595 20.0608 36.8315 21.1725 35.4754C22.2841 34.1193 22.8919 32.419 22.8924 30.6642C22.8933 29.6684 22.6981 28.6822 22.3181 27.762C21.938 26.8418 21.3805 26.0058 20.6775 25.3018ZM29.2194 41.5833H35.2096V36.3527C35.2096 36.2334 35.2331 36.1153 35.2788 36.0052C35.3245 35.8951 35.3914 35.7951 35.4758 35.7109C35.5601 35.6268 35.6602 35.5601 35.7704 35.5148C35.8805 35.4696 35.9985 35.4465 36.1175 35.447H42.1115V29.1964C42.1115 29.0774 42.1349 28.9596 42.1804 28.8496C42.2259 28.7397 42.2925 28.6398 42.3766 28.5557C42.4606 28.4716 42.5604 28.4049 42.6701 28.3594C42.7799 28.314 42.8975 28.2906 43.0163 28.2907H49.0103V22.1765C49.0099 21.9367 49.1045 21.7066 49.2733 21.5367C49.4421 21.3667 49.6713 21.2708 49.9106 21.27H56.8087C57.0484 21.2704 57.2781 21.3661 57.4475 21.5361C57.6169 21.706 57.712 21.9363 57.712 22.1765V48.5637C57.7102 49.7205 57.2506 50.8294 56.4341 51.6474C55.6176 52.4654 54.5106 52.9257 53.3558 52.9275H29.2194C29.1007 52.9276 28.9831 52.9043 28.8734 52.8588C28.7636 52.8133 28.6639 52.7466 28.5799 52.6625C28.496 52.5784 28.4294 52.4785 28.384 52.3685C28.3386 52.2586 28.3153 52.1408 28.3154 52.0218V42.4921C28.315 42.373 28.3381 42.2551 28.3834 42.145C28.4287 42.0349 28.4952 41.9349 28.5793 41.8508C28.6633 41.7666 28.7631 41.6999 28.873 41.6545C28.9829 41.6091 29.1006 41.586 29.2194 41.5864V41.5833ZM35.2096 43.3955H30.1205V51.1131H35.2096V43.3955ZM55.9008 23.0821H50.8116V51.1131H53.3558C54.0304 51.1117 54.6769 50.8427 55.1538 50.3648C55.6308 49.887 55.8994 49.2394 55.9008 48.5637V23.0821ZM49.0065 30.1028H43.9166V51.1131H49.0065V30.1028ZM42.1077 37.2629H37.0185V51.1131H42.1077V37.2629ZM31.9477 8.59591C31.8267 8.59943 31.7062 8.57859 31.5934 8.53464C31.4806 8.49069 31.3778 8.42451 31.2909 8.34003C31.2041 8.25554 31.1351 8.15447 31.088 8.0428C31.0409 7.93112 31.0166 7.8111 31.0166 7.68986C31.0166 7.56861 31.0409 7.4486 31.088 7.33692C31.1351 7.22524 31.2041 7.12417 31.2909 7.03969C31.3778 6.9552 31.4806 6.88903 31.5934 6.84507C31.7062 6.80112 31.8267 6.78029 31.9477 6.7838H55.1206C55.2416 6.78029 55.3621 6.80112 55.4749 6.84507C55.5877 6.88903 55.6905 6.9552 55.7773 7.03969C55.8642 7.12417 55.9332 7.22524 55.9803 7.33692C56.0274 7.4486 56.0517 7.56861 56.0517 7.68986C56.0517 7.8111 56.0274 7.93112 55.9803 8.0428C55.9332 8.15447 55.8642 8.25554 55.7773 8.34003C55.6905 8.42451 55.5877 8.49069 55.4749 8.53464C55.3621 8.57859 55.2416 8.59943 55.1206 8.59591H31.9477ZM1.93438 13.432H64.0656V1.94008H1.93438V13.432ZM64.0656 15.3751H1.93438V58.0561H64.0656V15.3751Z" fill="#1A237E"/>
</svg>
