<svg width="60" height="60" viewBox="0 0 60 60" fill="none" xmlns="http://www.w3.org/2000/svg">
<path d="M1.42857 21.6293H20.2007C20.9876 21.6293 21.6293 20.9875 21.6293 20.2007V1.42857C21.6293 0.641714 20.9875 0 20.2007 0H1.42857C0.641714 0 0 0.641743 0 1.42857V20.2007C0 20.9876 0.641742 21.6293 1.42857 21.6293ZM2.85714 2.85714H18.7721V18.7721H2.85714V2.85714Z" fill="black"/>
<path d="M13.2422 26.5571C13.2422 27.3439 13.8839 27.9856 14.6708 27.9856H26.5622C27.349 27.9856 27.9907 27.3439 27.9907 26.5571V14.6656C27.9907 13.8788 27.349 13.2371 26.5622 13.2371C25.7754 13.2371 25.1336 13.8788 25.1336 14.6656V25.1285H14.6708C13.8839 25.1285 13.2422 25.7702 13.2422 26.5571Z" fill="black"/>
<path d="M14.5372 5.66431H7.09288C6.30602 5.66431 5.66431 6.30605 5.66431 7.09288V14.5372C5.66431 15.324 6.30605 15.9657 7.09288 15.9657H14.5372C15.324 15.9657 15.9657 15.324 15.9657 14.5372V7.09288C15.9657 6.30602 15.324 5.66431 14.5372 5.66431ZM13.1086 13.1086H8.52152V8.52152H13.1086V13.1086Z" fill="black"/>
<path d="M20.2007 31.0215C19.4138 31.0215 18.7721 31.6632 18.7721 32.4501V57.1429H2.85714V32.4501C2.85714 31.6632 2.2154 31.0215 1.42857 31.0215C0.641742 31.0215 0 31.6632 0 32.4501V58.5715C0 59.3583 0.641742 60.0001 1.42857 60.0001H20.2007C20.9876 60.0001 21.6293 59.3583 21.6293 58.5715V32.4501C21.6293 31.6632 20.9875 31.0215 20.2007 31.0215Z" fill="black"/>
<path d="M7.09288 36.6799C6.30602 36.6799 5.66431 37.3217 5.66431 38.1085V52.9078C5.66431 53.6946 6.30605 54.3364 7.09288 54.3364H14.5372C15.324 54.3364 15.9657 53.6946 15.9657 52.9078V45.5085C15.9657 44.7216 15.324 44.0799 14.5372 44.0799C13.7503 44.0799 13.1086 44.7217 13.1086 45.5085V51.4795H8.52152V38.1088C8.52152 37.3219 7.8797 36.6799 7.09288 36.6799Z" fill="black"/>
<path d="M58.5715 0H34.1351C33.3483 0 32.7065 0.641743 32.7065 1.42857V20.2007C32.7065 20.9876 33.3483 21.6293 34.1351 21.6293H58.5715C59.3584 21.6293 60.0001 20.9875 60.0001 20.2007V1.42857C60.0001 0.641714 59.3584 0 58.5715 0ZM57.143 18.7721H35.5637V2.85714H57.143V18.7721Z" fill="black"/>
<path d="M39.7992 15.9657H52.9077C53.6946 15.9657 54.3363 15.324 54.3363 14.5372V7.09288C54.3363 6.30602 53.6946 5.66431 52.9077 5.66431H39.7992C39.0123 5.66431 38.3706 6.30605 38.3706 7.09288V14.5372C38.3706 15.324 39.0123 15.9657 39.7992 15.9657ZM41.2277 8.52145H51.4792V13.1085H41.2277V8.52145Z" fill="black"/>
<path d="M58.5715 38.3706H39.7994C39.0125 38.3706 38.3708 39.0123 38.3708 39.7992C38.3708 40.586 39.0126 41.2277 39.7994 41.2277H57.143V57.1427H34.1351C33.3483 57.1427 32.7065 57.7845 32.7065 58.5713C32.7065 59.3581 33.3483 59.9999 34.1351 59.9999H58.5715C59.3584 59.9999 60.0001 59.3581 60.0001 58.5713V39.7992C60.0001 39.0123 59.3584 38.3706 58.5715 38.3706Z" fill="black"/>
<path d="M39.7992 54.3356H52.9077C53.6946 54.3356 54.3363 53.6939 54.3363 52.907V45.4628C54.3363 44.6759 53.6946 44.0342 52.9077 44.0342H39.7992C39.0123 44.0342 38.3706 44.6759 38.3706 45.4628V52.907C38.3706 53.6939 39.0123 54.3356 39.7992 54.3356ZM41.2277 46.8913H51.4792V51.4784H41.2277V46.8913Z" fill="black"/>
<path d="M34.1351 31.208C33.3483 31.208 32.7065 31.8497 32.7065 32.6365C32.7065 33.4234 33.3483 34.0651 34.1351 34.0651H52.9072C53.6941 34.0651 54.3358 33.4234 54.3358 32.6365V25.1922C54.3358 24.4054 53.6941 23.7637 52.9072 23.7637H46.3503C45.5635 23.7637 44.9217 24.4054 44.9217 25.1922C44.9217 25.9791 45.5635 26.6208 46.3503 26.6208H51.4787V31.2079L34.1351 31.208Z" fill="black"/>
<path d="M35.5637 52.8849C35.5637 52.0981 34.922 51.4563 34.1351 51.4563H27.9856V36.7713C27.9856 35.9845 27.3438 35.3428 26.557 35.3428C25.7701 35.3428 25.1284 35.9845 25.1284 36.7713V52.8849C25.1284 53.6718 25.7702 54.3135 26.557 54.3135H34.1348C34.9217 54.3135 35.5637 53.6717 35.5637 52.8849Z" fill="black"/>
</svg>
