<svg width="60" height="60" viewBox="0 0 60 60" fill="none" xmlns="http://www.w3.org/2000/svg">
<path d="M6.05734 0C2.7086 0 0.00208524 2.70633 0.00208524 6.05483V12.1597C0.00208524 15.5082 2.7086 18.2145 6.05734 18.2145H12.1626C15.5114 18.2145 18.2179 15.5082 18.2179 12.1597V6.05483C18.2179 2.70633 15.5114 0 12.1626 0H6.05734ZM29.3234 0V2.33311H31.6587V0H29.3234ZM47.8394 0C44.4907 0 41.7842 2.70633 41.7842 6.05483V12.1597C41.7842 15.5082 44.4907 18.2145 47.8394 18.2145H53.9447C57.2935 18.2145 60 15.5082 60 12.1597V6.05483C60 2.70633 57.2935 0 53.9447 0H47.8394ZM6.05734 2.3352H12.1626C14.2019 2.3352 15.8846 4.01571 15.8846 6.05692V12.1618C15.8846 14.2009 14.204 15.8835 12.1626 15.8835H6.05734C4.01807 15.8835 2.33536 14.203 2.33536 12.1618V6.05692C2.33536 4.01779 4.01599 2.3352 6.05734 2.3352ZM47.8394 2.3352H53.9447C55.984 2.3352 57.6667 4.01571 57.6667 6.05692V12.1618C57.6667 14.2009 55.9861 15.8835 53.9447 15.8835H47.8394C45.8002 15.8835 44.1175 14.203 44.1175 12.1618V6.05692C44.1175 4.01779 45.7981 2.3352 47.8394 2.3352ZM24.4358 4.88724V11.7448H26.7712V4.88724H24.4358ZM34.2089 9.40543V11.7406H36.5421V9.40543H34.2089ZM29.3234 14.2927V19.1799H24.4358V21.5151H31.6566V14.2947L29.3234 14.2927ZM4.88758 24.0651V26.4003H7.22085V24.0651H4.88758ZM14.6606 24.0651V26.4003H21.8815V24.0651H14.6606ZM34.2089 24.0651V31.2854H36.5421V24.0651H34.2089ZM48.7486 24.0651V26.4003H55.1145V24.0651H48.7486ZM57.6667 28.8334V33.7165H48.8695V36.0496H60V28.8334H57.6667ZM9.77515 28.9523V31.2875H12.1084V28.9523H9.77515ZM43.984 28.9523V31.2875H46.3173V28.9523H43.984ZM0 28.9565V36.1768H2.33536V28.9565H0ZM24.4358 28.9565V36.1768H26.7712V28.9565H24.4358ZM14.5397 33.8395V36.1726H16.8751V33.8395H14.5397ZM39.0964 33.8437V36.1768H41.4297V33.8437H39.0964ZM29.3234 38.6079V40.941H31.6587V38.6079H29.3234ZM6.05734 41.7855C2.7086 41.7855 0.00208524 44.4876 0.00208524 47.8382V53.9473C0.00208524 57.2958 2.70652 60 6.05734 60H12.1626C15.5114 60 18.2179 57.2978 18.2179 53.9473V47.8382C18.2179 44.4897 15.5135 41.7855 12.1626 41.7855H6.05734ZM48.8716 43.368V45.7011H51.2049V43.368H48.8716ZM57.6667 43.368V50.5883H60V43.368H57.6667ZM34.2089 43.3721V45.7053H41.4297V43.3721H34.2089ZM24.4358 43.4931V50.2234H26.7712V43.4931H24.4358ZM6.05734 44.1144H12.1626C14.2019 44.1144 15.8846 45.7949 15.8846 47.8361V53.941C15.8846 55.9801 14.204 57.6627 12.1626 57.6627H6.05734C4.01807 57.6627 2.33536 55.9822 2.33536 53.941V47.8361C2.33536 45.797 4.01599 44.1144 6.05734 44.1144ZM43.984 48.2573V50.5904H46.3173V48.2573H43.984ZM29.3234 52.7776V59.9979H31.6587V55.1107H36.5463V52.7776H29.3234ZM48.8716 53.1445V59.9979H51.2049V55.4797H55.1145V53.1466L48.8716 53.1445ZM38.9734 57.6627V59.9958H41.3067V57.6627H38.9734Z" fill="black"/>
</svg>
