<svg width="600" height="600" viewBox="0 0 600 600" fill="none" xmlns="http://www.w3.org/2000/svg">
<rect width="600" height="600" rx="8" fill="#E9ECFF"/>
<rect x="130.435" y="40" width="158.261" height="158.261" rx="4.52174" fill="#1A237E"/>
<path d="M207.304 101.362H206.204L213.891 109.366C214.81 110.331 214.132 111.913 212.806 111.913C212.399 111.913 212.007 111.747 211.72 111.446L202.632 101.98C202.24 101.589 202.029 101.046 202.029 100.503C202.029 99.3126 202.993 98.3479 204.184 98.3479H207.304C209.957 98.3479 212.157 96.3885 212.519 93.8262H202.029C201.2 93.8262 200.521 93.1479 200.521 92.3189C200.521 91.49 201.2 90.8117 202.029 90.8117H212.067C211.223 89.0331 209.414 87.7972 207.304 87.7972H202.029C201.2 87.7972 200.521 87.1189 200.521 86.29C200.521 85.461 201.2 84.7827 202.029 84.7827H217.101C217.93 84.7827 218.608 85.461 218.608 86.29C218.608 87.1189 217.93 87.7972 217.101 87.7972H213.695C214.418 88.6714 214.961 89.6963 215.277 90.8117H217.101C217.93 90.8117 218.608 91.49 218.608 92.3189C218.608 93.1479 217.93 93.8262 217.101 93.8262H215.564C215.172 98.0465 211.615 101.362 207.304 101.362Z" fill="#E9ECFF"/>
<path d="M192.919 152V136.31H195.044V152H192.919ZM198.748 152V136.31H200.24L200.873 138.774V152H198.748ZM209.6 152L199.969 139.136L200.24 136.31L209.894 149.151L209.6 152ZM209.6 152L208.967 149.671V136.31H211.092V152H209.6ZM216.223 145.172V143.386H220.474C221.393 143.386 222.102 143.152 222.599 142.685C223.096 142.218 223.345 141.585 223.345 140.786C223.345 140.032 223.096 139.407 222.599 138.91C222.117 138.412 221.416 138.163 220.496 138.163H216.223V136.31H220.564C221.559 136.31 222.426 136.506 223.164 136.897C223.903 137.274 224.468 137.794 224.86 138.457C225.267 139.121 225.47 139.882 225.47 140.741C225.47 141.63 225.267 142.406 224.86 143.07C224.468 143.733 223.903 144.253 223.164 144.63C222.426 144.991 221.559 145.172 220.564 145.172H216.223ZM214.799 152V136.31H216.924V152H214.799ZM223.842 152L218.145 144.969L220.157 144.268L226.533 152H223.842Z" fill="#E9ECFF"/>
<rect x="311.304" y="40" width="158.261" height="158.261" rx="4.52174" fill="#1A237E"/>
<path d="M390.887 96.69C387.465 95.8007 386.365 94.8813 386.365 93.4494C386.365 91.8065 387.887 90.661 390.435 90.661C392.575 90.661 393.645 91.4749 394.037 92.7711C394.218 93.374 394.715 93.8262 395.348 93.8262H395.8C396.795 93.8262 397.504 92.8465 397.157 91.912C396.524 90.1334 395.047 88.6563 392.696 88.0836V87.0436C392.696 85.7926 391.686 84.7827 390.435 84.7827C389.184 84.7827 388.174 85.7926 388.174 87.0436V88.0384C385.25 88.6714 382.898 90.5705 382.898 93.4795C382.898 96.9613 385.777 98.6946 389.982 99.7045C393.751 100.609 394.504 101.935 394.504 103.337C394.504 104.377 393.766 106.035 390.435 106.035C387.948 106.035 386.667 105.146 386.169 103.88C385.943 103.292 385.431 102.87 384.813 102.87H384.391C383.381 102.87 382.672 103.895 383.049 104.829C383.908 106.924 385.913 108.16 388.174 108.642V109.652C388.174 110.903 389.184 111.913 390.435 111.913C391.686 111.913 392.696 110.903 392.696 109.652V108.673C395.635 108.115 397.971 106.412 397.971 103.322C397.971 99.0413 394.308 97.5792 390.887 96.69Z" fill="#E9ECFF"/>
<path d="M375.667 152.226C374.506 152.226 373.466 151.97 372.547 151.457C371.642 150.93 370.926 150.214 370.399 149.31C369.871 148.39 369.608 147.35 369.608 146.19V136.31H371.733V146.144C371.733 146.973 371.906 147.689 372.253 148.292C372.599 148.895 373.067 149.362 373.655 149.694C374.257 150.026 374.928 150.191 375.667 150.191C376.435 150.191 377.106 150.026 377.679 149.694C378.267 149.362 378.726 148.895 379.058 148.292C379.405 147.689 379.578 146.981 379.578 146.167V136.31H381.726V146.212C381.726 147.373 381.462 148.405 380.935 149.31C380.407 150.214 379.691 150.93 378.787 151.457C377.882 151.97 376.842 152.226 375.667 152.226ZM389.408 152.226C388.172 152.226 387.117 152 386.243 151.548C385.369 151.096 384.593 150.44 383.915 149.581L385.361 148.134C385.859 148.827 386.432 149.355 387.08 149.717C387.728 150.063 388.527 150.237 389.476 150.237C390.411 150.237 391.157 150.033 391.715 149.626C392.287 149.219 392.574 148.661 392.574 147.953C392.574 147.365 392.438 146.89 392.167 146.529C391.895 146.167 391.526 145.873 391.059 145.647C390.607 145.406 390.109 145.195 389.567 145.014C389.024 144.818 388.481 144.614 387.939 144.403C387.396 144.177 386.899 143.906 386.447 143.59C385.995 143.258 385.625 142.828 385.339 142.301C385.068 141.773 384.932 141.11 384.932 140.311C384.932 139.422 385.143 138.668 385.565 138.05C386.002 137.417 386.59 136.935 387.328 136.603C388.082 136.257 388.926 136.083 389.861 136.083C390.886 136.083 391.805 136.287 392.619 136.694C393.433 137.086 394.096 137.606 394.608 138.254L393.161 139.701C392.694 139.158 392.189 138.751 391.647 138.48C391.119 138.209 390.509 138.073 389.815 138.073C388.971 138.073 388.301 138.261 387.803 138.638C387.306 139 387.057 139.512 387.057 140.176C387.057 140.703 387.193 141.133 387.464 141.464C387.75 141.781 388.12 142.052 388.572 142.278C389.024 142.504 389.521 142.715 390.064 142.911C390.622 143.092 391.172 143.296 391.715 143.522C392.257 143.748 392.755 144.034 393.207 144.381C393.659 144.728 394.021 145.18 394.292 145.737C394.578 146.28 394.721 146.966 394.721 147.795C394.721 149.181 394.239 150.267 393.275 151.05C392.325 151.834 391.036 152.226 389.408 152.226ZM398.987 152V150.056H403.351C404.511 150.056 405.529 149.807 406.403 149.31C407.277 148.797 407.956 148.096 408.438 147.207C408.935 146.318 409.184 145.293 409.184 144.132C409.184 142.987 408.935 141.969 408.438 141.08C407.94 140.191 407.255 139.497 406.38 139C405.506 138.503 404.496 138.254 403.351 138.254H399.01V136.31H403.396C404.542 136.31 405.597 136.506 406.561 136.897C407.541 137.289 408.385 137.839 409.094 138.548C409.817 139.256 410.375 140.085 410.767 141.035C411.174 141.984 411.377 143.024 411.377 144.155C411.377 145.27 411.174 146.31 410.767 147.275C410.375 148.224 409.825 149.053 409.116 149.762C408.408 150.47 407.564 151.02 406.584 151.412C405.619 151.804 404.572 152 403.441 152H398.987ZM397.586 152V136.31H399.711V152H397.586Z" fill="#E9ECFF"/>
<rect x="130.435" y="220.87" width="158.261" height="158.261" rx="4.52174" fill="#1A237E"/>
<path d="M214.863 289.015C211.08 289.015 207.81 286.874 206.182 283.739H213.929C214.502 283.739 215.029 283.423 215.27 282.91C215.768 281.916 215.044 280.725 213.929 280.725H205.187C205.112 280.227 205.066 279.73 205.066 279.218C205.066 278.705 205.112 278.208 205.187 277.71H213.929C214.502 277.71 215.029 277.394 215.27 276.881C215.783 275.871 215.059 274.696 213.929 274.696H206.182C207.81 271.561 211.095 269.42 214.863 269.42C216.748 269.42 218.511 269.963 220.018 270.882C220.772 271.35 221.752 271.274 222.385 270.641C223.259 269.767 223.063 268.335 222.008 267.687C219.928 266.406 217.471 265.652 214.863 265.652C208.955 265.652 203.951 269.436 202.082 274.696H197.711C197.138 274.696 196.611 275.012 196.354 275.525C195.857 276.535 196.581 277.71 197.711 277.71H201.389C201.328 278.208 201.298 278.705 201.298 279.218C201.298 279.73 201.328 280.227 201.389 280.725H197.711C197.138 280.725 196.611 281.041 196.37 281.554C195.857 282.564 196.581 283.739 197.711 283.739H202.082C203.951 289 208.955 292.783 214.863 292.783C217.486 292.783 219.928 292.044 222.008 290.748C223.048 290.1 223.244 288.653 222.37 287.779C221.737 287.146 220.757 287.07 220.003 287.553C218.511 288.487 216.763 289.015 214.863 289.015Z" fill="#E9ECFF"/>
<path d="M189.419 332.87V317.179H191.544V332.87H189.419ZM190.866 332.87V330.925H199.864V332.87H190.866ZM190.866 325.77V323.917H199.118V325.77H190.866ZM190.866 319.124V317.179H199.751V319.124H190.866ZM208.633 333.096C207.472 333.096 206.432 332.839 205.513 332.327C204.608 331.799 203.892 331.084 203.365 330.179C202.837 329.26 202.574 328.22 202.574 327.059V317.179H204.699V327.014C204.699 327.843 204.872 328.559 205.219 329.162C205.565 329.765 206.033 330.232 206.621 330.564C207.223 330.895 207.894 331.061 208.633 331.061C209.401 331.061 210.072 330.895 210.645 330.564C211.233 330.232 211.692 329.765 212.024 329.162C212.371 328.559 212.544 327.85 212.544 327.037V317.179H214.692V327.082C214.692 328.242 214.428 329.275 213.901 330.179C213.373 331.084 212.657 331.799 211.753 332.327C210.848 332.839 209.808 333.096 208.633 333.096ZM219.612 326.042V324.256H223.862C224.782 324.256 225.49 324.022 225.988 323.555C226.485 323.088 226.734 322.455 226.734 321.656C226.734 320.902 226.485 320.277 225.988 319.779C225.505 319.282 224.804 319.033 223.885 319.033H219.612V317.179H223.953C224.948 317.179 225.814 317.375 226.553 317.767C227.291 318.144 227.857 318.664 228.248 319.327C228.655 319.99 228.859 320.751 228.859 321.61C228.859 322.5 228.655 323.276 228.248 323.939C227.857 324.602 227.291 325.122 226.553 325.499C225.814 325.861 224.948 326.042 223.953 326.042H219.612ZM218.188 332.87V317.179H220.313V332.87H218.188ZM227.231 332.87L221.534 325.838L223.546 325.137L229.921 332.87H227.231Z" fill="#E9ECFF"/>
<rect x="311.304" y="220.87" width="158.261" height="158.261" rx="4.52174" fill="#1A237E"/>
<path d="M398.469 288.05C397.761 287.688 396.917 287.975 396.494 288.653C395.952 289.557 395.032 290.145 393.631 290.145H386.245C387.496 288.638 388.506 286.618 388.506 284.116C388.506 283.588 388.461 283.076 388.386 282.609H392.123C392.952 282.609 393.631 281.93 393.631 281.101C393.631 280.272 392.952 279.594 392.123 279.594H387.33C386.094 277.213 384.587 275.977 384.587 273.565C384.587 270.656 386.954 268.29 389.863 268.29C391.671 268.29 393.269 269.209 394.219 270.596C394.626 271.199 395.379 271.485 396.057 271.199C396.962 270.822 397.263 269.707 396.706 268.893C395.213 266.707 392.696 265.275 389.863 265.275C385.281 265.275 381.573 268.983 381.573 273.565C381.573 276.248 382.763 277.936 383.819 279.594H383.08C382.251 279.594 381.573 280.272 381.573 281.101C381.573 281.93 382.251 282.609 383.08 282.609H385.296C385.416 283.076 385.492 283.573 385.492 284.116C385.492 286.98 383.547 288.804 382.387 289.632C381.874 289.994 381.573 290.582 381.573 291.215C381.573 292.285 382.447 293.159 383.517 293.159H393.631C395.967 293.159 398.077 292.014 399.102 290.145C399.524 289.376 399.238 288.427 398.469 288.05Z" fill="#E9ECFF"/>
<path d="M376.388 333.096C375.287 333.096 374.255 332.892 373.29 332.485C372.341 332.063 371.504 331.483 370.781 330.744C370.072 330.006 369.515 329.147 369.108 328.167C368.701 327.187 368.497 326.132 368.497 325.002C368.497 323.871 368.701 322.824 369.108 321.859C369.515 320.879 370.08 320.02 370.803 319.282C371.527 318.543 372.371 317.97 373.335 317.564C374.315 317.157 375.378 316.953 376.523 316.953C377.774 316.953 378.927 317.194 379.982 317.677C381.037 318.159 381.919 318.852 382.628 319.757L381.158 321.226C380.661 320.503 380.005 319.953 379.191 319.576C378.377 319.184 377.488 318.988 376.523 318.988C375.378 318.988 374.36 319.244 373.471 319.757C372.597 320.269 371.911 320.977 371.414 321.882C370.931 322.786 370.69 323.826 370.69 325.002C370.69 326.193 370.939 327.24 371.436 328.144C371.934 329.049 372.604 329.757 373.448 330.27C374.293 330.782 375.257 331.038 376.342 331.038C377.443 331.038 378.392 330.827 379.191 330.405C380.005 329.983 380.631 329.365 381.068 328.551C381.505 327.722 381.723 326.713 381.723 325.522L383.012 326.449H376.229V324.504H383.916V324.821C383.916 326.645 383.592 328.175 382.944 329.41C382.311 330.631 381.422 331.551 380.276 332.169C379.146 332.787 377.85 333.096 376.388 333.096ZM388.199 332.87V331.016H392.947C393.851 331.016 394.56 330.752 395.072 330.224C395.585 329.682 395.841 329.034 395.841 328.28C395.841 327.768 395.728 327.308 395.502 326.901C395.276 326.479 394.944 326.147 394.507 325.906C394.085 325.665 393.588 325.544 393.015 325.544H388.199V323.69H392.698C393.452 323.69 394.047 323.495 394.484 323.103C394.937 322.696 395.163 322.115 395.163 321.362C395.163 320.608 394.929 320.035 394.462 319.644C393.995 319.237 393.377 319.033 392.608 319.033H388.199V317.179H392.653C393.678 317.179 394.53 317.368 395.208 317.744C395.901 318.106 396.421 318.588 396.768 319.191C397.13 319.794 397.311 320.457 397.311 321.181C397.311 322.025 397.077 322.764 396.61 323.397C396.158 324.03 395.487 324.527 394.598 324.889L394.778 324.21C395.788 324.572 396.572 325.122 397.13 325.861C397.702 326.584 397.989 327.444 397.989 328.438C397.989 329.267 397.785 330.013 397.378 330.677C396.971 331.34 396.384 331.875 395.615 332.282C394.861 332.674 393.934 332.87 392.834 332.87H388.199ZM386.775 332.87V317.179H388.9V332.87H386.775ZM402.286 326.765V324.911H406.559C407.146 324.911 407.666 324.791 408.119 324.55C408.586 324.308 408.948 323.969 409.204 323.532C409.475 323.095 409.611 322.575 409.611 321.972C409.611 321.369 409.475 320.849 409.204 320.412C408.948 319.975 408.586 319.636 408.119 319.395C407.666 319.154 407.146 319.033 406.559 319.033H402.286V317.179H406.694C407.659 317.179 408.518 317.375 409.272 317.767C410.04 318.159 410.643 318.717 411.08 319.44C411.532 320.148 411.759 320.993 411.759 321.972C411.759 322.937 411.532 323.781 411.08 324.504C410.643 325.213 410.04 325.77 409.272 326.177C408.518 326.569 407.659 326.765 406.694 326.765H402.286ZM400.861 332.87V317.179H402.986V332.87H400.861Z" fill="#E9ECFF"/>
<rect x="130.435" y="401.739" width="158.261" height="158.261" rx="4.52174" fill="#1A237E"/>
<path d="M201.757 446.522C202.27 446.522 202.752 446.778 203.023 447.215L209.565 457.51L216.106 447.215C216.378 446.778 216.86 446.522 217.372 446.522C218.563 446.522 219.287 447.833 218.639 448.843L212.459 458.58H217.101C217.93 458.58 218.608 459.258 218.608 460.087C218.608 460.916 217.93 461.594 217.101 461.594H211.072V464.609H217.101C217.93 464.609 218.608 465.287 218.608 466.116C218.608 466.945 217.93 467.623 217.101 467.623H211.072V472.145C211.072 472.974 210.394 473.652 209.565 473.652C208.736 473.652 208.058 472.974 208.058 472.145V467.623H202.029C201.2 467.623 200.521 466.945 200.521 466.116C200.521 465.287 201.2 464.609 202.029 464.609H208.058V461.594H202.029C201.2 461.594 200.521 460.916 200.521 460.087C200.521 459.258 201.2 458.58 202.029 458.58H206.671L200.491 448.843C199.843 447.833 200.567 446.522 201.757 446.522Z" fill="#E9ECFF"/>
<path d="M194.393 507.364L188.221 498.049H190.685L195.659 505.668H194.551L199.548 498.049H201.967L195.749 507.364H194.393ZM194.031 513.739V505.962H196.156V513.739H194.031ZM203.903 513.739V498.049H206.028V513.739H203.903ZM205.35 513.739V511.795H214.348V513.739H205.35ZM205.35 506.64V504.786H213.602V506.64H205.35ZM205.35 499.993V498.049H214.235V499.993H205.35ZM217.238 513.739V498.049H218.73L219.363 500.513V513.739H217.238ZM228.09 513.739L218.459 500.875L218.73 498.049L228.384 510.891L228.09 513.739ZM228.09 513.739L227.457 511.411V498.049H229.582V513.739H228.09Z" fill="#E9ECFF"/>
<rect x="311.304" y="401.739" width="158.261" height="158.261" rx="4.52174" fill="#1A237E"/>
<path d="M384.407 473.652C385.236 473.652 385.915 472.974 385.915 472.145V469.131H390.436C391.265 469.131 391.944 468.452 391.944 467.623C391.944 466.794 391.265 466.116 390.436 466.116H385.915V463.102H392.697C397.551 463.102 401.424 458.942 400.942 453.998C400.535 449.687 396.676 446.522 392.336 446.522H384.407C383.578 446.522 382.9 447.2 382.9 448.029V460.087H381.393C380.564 460.087 379.886 460.765 379.886 461.594C379.886 462.423 380.564 463.102 381.393 463.102H382.9V466.116H381.393C380.564 466.116 379.886 466.794 379.886 467.623C379.886 468.452 380.564 469.131 381.393 469.131H382.9V472.145C382.9 472.974 383.578 473.652 384.407 473.652ZM392.697 460.087H385.915V449.536H392.697C395.606 449.536 397.973 451.903 397.973 454.812C397.973 457.721 395.606 460.087 392.697 460.087Z" fill="#E9ECFF"/>
<path d="M371.713 506.911V505.125H375.963C376.883 505.125 377.591 504.892 378.088 504.424C378.586 503.957 378.835 503.324 378.835 502.525C378.835 501.772 378.586 501.146 378.088 500.649C377.606 500.151 376.905 499.903 375.986 499.903H371.713V498.049H376.054C377.048 498.049 377.915 498.245 378.654 498.637C379.392 499.013 379.957 499.533 380.349 500.197C380.756 500.86 380.96 501.621 380.96 502.48C380.96 503.369 380.756 504.146 380.349 504.809C379.957 505.472 379.392 505.992 378.654 506.369C377.915 506.731 377.048 506.911 376.054 506.911H371.713ZM370.288 513.739V498.049H372.414V513.739H370.288ZM379.332 513.739L373.635 506.708L375.647 506.007L382.022 513.739H379.332ZM390.054 513.965C388.894 513.965 387.854 513.709 386.934 513.197C386.03 512.669 385.314 511.953 384.786 511.049C384.259 510.129 383.995 509.089 383.995 507.929V498.049H386.12V507.884C386.12 508.713 386.294 509.429 386.64 510.031C386.987 510.634 387.454 511.102 388.042 511.433C388.645 511.765 389.316 511.931 390.054 511.931C390.823 511.931 391.494 511.765 392.066 511.433C392.654 511.102 393.114 510.634 393.446 510.031C393.792 509.429 393.966 508.72 393.966 507.906V498.049H396.113V507.951C396.113 509.112 395.85 510.144 395.322 511.049C394.795 511.953 394.079 512.669 393.174 513.197C392.27 513.709 391.23 513.965 390.054 513.965ZM401.033 513.739V511.885H405.781C406.686 511.885 407.394 511.622 407.907 511.094C408.419 510.551 408.675 509.903 408.675 509.15C408.675 508.637 408.562 508.178 408.336 507.771C408.11 507.349 407.778 507.017 407.341 506.776C406.919 506.535 406.422 506.414 405.849 506.414H401.033V504.56H405.533C406.286 504.56 406.882 504.364 407.319 503.972C407.771 503.565 407.997 502.985 407.997 502.231C407.997 501.478 407.763 500.905 407.296 500.513C406.829 500.106 406.211 499.903 405.442 499.903H401.033V498.049H405.487C406.512 498.049 407.364 498.237 408.042 498.614C408.736 498.976 409.256 499.458 409.602 500.061C409.964 500.664 410.145 501.327 410.145 502.051C410.145 502.895 409.911 503.633 409.444 504.266C408.992 504.899 408.321 505.397 407.432 505.758L407.613 505.08C408.622 505.442 409.406 505.992 409.964 506.731C410.537 507.454 410.823 508.313 410.823 509.308C410.823 510.137 410.62 510.883 410.213 511.546C409.806 512.209 409.218 512.744 408.449 513.151C407.696 513.543 406.769 513.739 405.668 513.739H401.033ZM399.609 513.739V498.049H401.734V513.739H399.609Z" fill="#E9ECFF"/>
</svg>
