<svg width="600" height="600" viewBox="0 0 600 600" fill="none" xmlns="http://www.w3.org/2000/svg">
<rect width="600" height="600" rx="8" fill="#E9ECFF"/>
<rect x="40" y="164.091" width="520" height="271.818" rx="14.1818" fill="white"/>
<rect x="66" y="183.045" width="204.727" height="61.3636" rx="4.72727" fill="#1A237E"/>
<path d="M101.28 223.227V205.703H103.724V223.227H101.28ZM95.1438 207.419V205.183H109.834V207.419H95.1438ZM109.562 223.227V210.877H111.902V223.227H109.562ZM111.902 216.181L111.018 215.791C111.018 214.214 111.382 212.957 112.11 212.021C112.838 211.085 113.887 210.617 115.256 210.617C115.88 210.617 116.444 210.73 116.946 210.955C117.449 211.163 117.917 211.518 118.35 212.021L116.816 213.607C116.556 213.33 116.27 213.13 115.958 213.009C115.646 212.888 115.282 212.827 114.866 212.827C114 212.827 113.289 213.104 112.734 213.659C112.18 214.214 111.902 215.054 111.902 216.181ZM124.843 223.487C123.717 223.487 122.694 223.21 121.775 222.655C120.857 222.083 120.129 221.312 119.591 220.341C119.071 219.37 118.811 218.278 118.811 217.065C118.811 215.852 119.071 214.76 119.591 213.789C120.129 212.818 120.848 212.047 121.749 211.475C122.668 210.903 123.699 210.617 124.843 210.617C125.779 210.617 126.611 210.816 127.339 211.215C128.085 211.596 128.683 212.134 129.133 212.827C129.584 213.503 129.835 214.292 129.887 215.193V218.911C129.835 219.795 129.584 220.584 129.133 221.277C128.7 221.97 128.111 222.516 127.365 222.915C126.637 223.296 125.797 223.487 124.843 223.487ZM125.233 221.277C126.395 221.277 127.331 220.887 128.041 220.107C128.752 219.31 129.107 218.296 129.107 217.065C129.107 216.216 128.943 215.479 128.613 214.855C128.301 214.214 127.851 213.72 127.261 213.373C126.672 213.009 125.987 212.827 125.207 212.827C124.427 212.827 123.734 213.009 123.127 213.373C122.538 213.737 122.07 214.24 121.723 214.881C121.394 215.505 121.229 216.224 121.229 217.039C121.229 217.871 121.394 218.608 121.723 219.249C122.07 219.873 122.547 220.367 123.153 220.731C123.76 221.095 124.453 221.277 125.233 221.277ZM128.951 223.227V219.899L129.393 216.883L128.951 213.893V210.877H131.317V223.227H128.951ZM143.46 223.227V216.025C143.46 215.089 143.166 214.318 142.576 213.711C141.987 213.104 141.224 212.801 140.288 212.801C139.664 212.801 139.11 212.94 138.624 213.217C138.139 213.494 137.758 213.876 137.48 214.361C137.203 214.846 137.064 215.401 137.064 216.025L136.102 215.479C136.102 214.543 136.31 213.711 136.726 212.983C137.142 212.255 137.723 211.683 138.468 211.267C139.214 210.834 140.054 210.617 140.99 210.617C141.926 210.617 142.75 210.851 143.46 211.319C144.188 211.787 144.76 212.402 145.176 213.165C145.592 213.91 145.8 214.708 145.8 215.557V223.227H143.46ZM134.724 223.227V210.877H137.064V223.227H134.724ZM152.894 223.487C152.201 223.487 151.542 223.4 150.918 223.227C150.312 223.036 149.748 222.776 149.228 222.447C148.708 222.1 148.258 221.693 147.876 221.225L149.384 219.717C149.835 220.272 150.355 220.688 150.944 220.965C151.534 221.225 152.192 221.355 152.92 221.355C153.648 221.355 154.212 221.234 154.61 220.991C155.009 220.731 155.208 220.376 155.208 219.925C155.208 219.474 155.044 219.128 154.714 218.885C154.402 218.625 153.995 218.417 153.492 218.261C152.99 218.088 152.452 217.923 151.88 217.767C151.326 217.594 150.797 217.377 150.294 217.117C149.792 216.857 149.376 216.502 149.046 216.051C148.734 215.6 148.578 215.002 148.578 214.257C148.578 213.512 148.76 212.87 149.124 212.333C149.488 211.778 149.991 211.354 150.632 211.059C151.291 210.764 152.08 210.617 152.998 210.617C153.969 210.617 154.827 210.79 155.572 211.137C156.335 211.466 156.959 211.969 157.444 212.645L155.936 214.153C155.59 213.702 155.156 213.356 154.636 213.113C154.134 212.87 153.562 212.749 152.92 212.749C152.244 212.749 151.724 212.87 151.36 213.113C151.014 213.338 150.84 213.659 150.84 214.075C150.84 214.491 150.996 214.812 151.308 215.037C151.62 215.262 152.028 215.453 152.53 215.609C153.05 215.765 153.588 215.93 154.142 216.103C154.697 216.259 155.226 216.476 155.728 216.753C156.231 217.03 156.638 217.403 156.95 217.871C157.28 218.339 157.444 218.954 157.444 219.717C157.444 220.878 157.028 221.797 156.196 222.473C155.382 223.149 154.281 223.487 152.894 223.487ZM165.316 223.487C164.189 223.487 163.167 223.21 162.248 222.655C161.329 222.083 160.601 221.312 160.064 220.341C159.544 219.37 159.284 218.278 159.284 217.065C159.284 215.852 159.544 214.76 160.064 213.789C160.601 212.818 161.321 212.047 162.222 211.475C163.141 210.903 164.172 210.617 165.316 210.617C166.252 210.617 167.084 210.816 167.812 211.215C168.557 211.596 169.155 212.134 169.606 212.827C170.057 213.503 170.308 214.292 170.36 215.193V218.911C170.308 219.795 170.057 220.584 169.606 221.277C169.173 221.97 168.583 222.516 167.838 222.915C167.11 223.296 166.269 223.487 165.316 223.487ZM165.706 221.277C166.867 221.277 167.803 220.887 168.514 220.107C169.225 219.31 169.58 218.296 169.58 217.065C169.58 216.216 169.415 215.479 169.086 214.855C168.774 214.214 168.323 213.72 167.734 213.373C167.145 213.009 166.46 212.827 165.68 212.827C164.9 212.827 164.207 213.009 163.6 213.373C163.011 213.737 162.543 214.24 162.196 214.881C161.867 215.505 161.702 216.224 161.702 217.039C161.702 217.871 161.867 218.608 162.196 219.249C162.543 219.873 163.019 220.367 163.626 220.731C164.233 221.095 164.926 221.277 165.706 221.277ZM169.424 223.227V219.899L169.866 216.883L169.424 213.893V210.877H171.79V223.227H169.424ZM180.839 223.487C179.626 223.487 178.525 223.201 177.537 222.629C176.566 222.057 175.795 221.286 175.223 220.315C174.668 219.327 174.391 218.235 174.391 217.039C174.391 215.826 174.668 214.734 175.223 213.763C175.795 212.792 176.566 212.03 177.537 211.475C178.525 210.903 179.626 210.617 180.839 210.617C181.792 210.617 182.676 210.799 183.491 211.163C184.306 211.51 185.008 212.021 185.597 212.697L184.037 214.257C183.656 213.806 183.188 213.468 182.633 213.243C182.096 213 181.498 212.879 180.839 212.879C180.059 212.879 179.366 213.061 178.759 213.425C178.152 213.772 177.676 214.257 177.329 214.881C176.982 215.505 176.809 216.224 176.809 217.039C176.809 217.854 176.982 218.573 177.329 219.197C177.676 219.821 178.152 220.315 178.759 220.679C179.366 221.043 180.059 221.225 180.839 221.225C181.498 221.225 182.096 221.112 182.633 220.887C183.188 220.644 183.664 220.298 184.063 219.847L185.597 221.407C185.025 222.066 184.323 222.577 183.491 222.941C182.676 223.305 181.792 223.487 180.839 223.487ZM189.663 223.227V205.703H192.003V223.227H189.663ZM186.621 213.009V210.877H195.045V213.009H186.621ZM197.364 223.227V210.877H199.704V223.227H197.364ZM198.534 208.407C198.1 208.407 197.745 208.268 197.468 207.991C197.19 207.696 197.052 207.332 197.052 206.899C197.052 206.483 197.19 206.136 197.468 205.859C197.745 205.564 198.1 205.417 198.534 205.417C198.967 205.417 199.322 205.564 199.6 205.859C199.877 206.136 200.016 206.483 200.016 206.899C200.016 207.332 199.877 207.696 199.6 207.991C199.322 208.268 198.967 208.407 198.534 208.407ZM208.794 223.487C207.581 223.487 206.489 223.201 205.518 222.629C204.547 222.057 203.776 221.286 203.204 220.315C202.632 219.327 202.346 218.226 202.346 217.013C202.346 215.817 202.632 214.742 203.204 213.789C203.776 212.818 204.547 212.047 205.518 211.475C206.489 210.903 207.581 210.617 208.794 210.617C209.99 210.617 211.073 210.903 212.044 211.475C213.032 212.03 213.812 212.792 214.384 213.763C214.956 214.734 215.242 215.817 215.242 217.013C215.242 218.226 214.956 219.327 214.384 220.315C213.812 221.286 213.032 222.057 212.044 222.629C211.073 223.201 209.99 223.487 208.794 223.487ZM208.794 221.225C209.574 221.225 210.267 221.043 210.874 220.679C211.481 220.315 211.957 219.821 212.304 219.197C212.651 218.556 212.824 217.828 212.824 217.013C212.824 216.216 212.642 215.505 212.278 214.881C211.931 214.257 211.455 213.772 210.848 213.425C210.259 213.061 209.574 212.879 208.794 212.879C208.014 212.879 207.321 213.061 206.714 213.425C206.107 213.772 205.631 214.257 205.284 214.881C204.937 215.505 204.764 216.216 204.764 217.013C204.764 217.828 204.937 218.556 205.284 219.197C205.631 219.821 206.107 220.315 206.714 220.679C207.321 221.043 208.014 221.225 208.794 221.225ZM226.615 223.227V216.025C226.615 215.089 226.32 214.318 225.731 213.711C225.141 213.104 224.379 212.801 223.443 212.801C222.819 212.801 222.264 212.94 221.779 213.217C221.293 213.494 220.912 213.876 220.635 214.361C220.357 214.846 220.219 215.401 220.219 216.025L219.257 215.479C219.257 214.543 219.465 213.711 219.881 212.983C220.297 212.255 220.877 211.683 221.623 211.267C222.368 210.834 223.209 210.617 224.145 210.617C225.081 210.617 225.904 210.851 226.615 211.319C227.343 211.787 227.915 212.402 228.331 213.165C228.747 213.91 228.955 214.708 228.955 215.557V223.227H226.615ZM217.879 223.227V210.877H220.219V223.227H217.879ZM236.049 223.487C235.355 223.487 234.697 223.4 234.073 223.227C233.466 223.036 232.903 222.776 232.383 222.447C231.863 222.1 231.412 221.693 231.031 221.225L232.539 219.717C232.989 220.272 233.509 220.688 234.099 220.965C234.688 221.225 235.347 221.355 236.075 221.355C236.803 221.355 237.366 221.234 237.765 220.991C238.163 220.731 238.363 220.376 238.363 219.925C238.363 219.474 238.198 219.128 237.869 218.885C237.557 218.625 237.149 218.417 236.647 218.261C236.144 218.088 235.607 217.923 235.035 217.767C234.48 217.594 233.951 217.377 233.449 217.117C232.946 216.857 232.53 216.502 232.201 216.051C231.889 215.6 231.733 215.002 231.733 214.257C231.733 213.512 231.915 212.87 232.279 212.333C232.643 211.778 233.145 211.354 233.787 211.059C234.445 210.764 235.234 210.617 236.153 210.617C237.123 210.617 237.981 210.79 238.727 211.137C239.489 211.466 240.113 211.969 240.599 212.645L239.091 214.153C238.744 213.702 238.311 213.356 237.791 213.113C237.288 212.87 236.716 212.749 236.075 212.749C235.399 212.749 234.879 212.87 234.515 213.113C234.168 213.338 233.995 213.659 233.995 214.075C233.995 214.491 234.151 214.812 234.463 215.037C234.775 215.262 235.182 215.453 235.685 215.609C236.205 215.765 236.742 215.93 237.297 216.103C237.851 216.259 238.38 216.476 238.883 216.753C239.385 217.03 239.793 217.403 240.105 217.871C240.434 218.339 240.599 218.954 240.599 219.717C240.599 220.878 240.183 221.797 239.351 222.473C238.536 223.149 237.435 223.487 236.049 223.487Z" fill="#E9ECFF"/>
<rect x="294.364" y="183" width="61.4545" height="61.4545" rx="4.72727" fill="#E9ECFF"/>
<path d="M331 203.645L335.181 207.825L331 212.006L326.819 207.825L331 203.645ZM319.684 204.354V210.263H313.775V204.354H319.684ZM334.457 219.126V225.035H328.548V219.126H334.457ZM319.684 219.126V225.035H313.775V219.126H319.684ZM331 199.464L322.638 207.81L331 216.172L339.361 207.81L331 199.464ZM322.638 201.399H310.82V213.217H322.638V201.399ZM337.411 216.172H325.593V227.99H337.411V216.172ZM322.638 216.172H310.82V227.99H322.638V216.172Z" fill="#1A237E"/>
<rect x="379.455" y="183" width="61.4545" height="61.4545" rx="4.72727" fill="#E9ECFF"/>
<path d="M404.273 219.636H416.091V222.591H404.273V219.636ZM404.273 213.727H416.091V216.682H404.273V213.727ZM413.136 198.955H401.318C399.693 198.955 398.364 200.284 398.364 201.909V225.545C398.364 227.17 399.679 228.5 401.304 228.5H419.046C420.671 228.5 422 227.17 422 225.545V207.818L413.136 198.955ZM419.046 225.545H401.318V201.909H411.659V209.295H419.046V225.545Z" fill="#1A237E"/>
<rect x="464.545" y="183" width="61.4545" height="61.4545" rx="4.72727" fill="#E9ECFF"/>
<path d="M505.613 209.295L507.46 205.233L511.522 203.386L507.46 201.54L505.613 197.477L503.767 201.54L499.704 203.386L503.767 205.233L505.613 209.295Z" fill="#1A237E"/>
<path d="M505.613 218.159L503.767 222.221L499.704 224.068L503.767 225.915L505.613 229.977L507.46 225.915L511.522 224.068L507.46 222.221L505.613 218.159Z" fill="#1A237E"/>
<path d="M494.534 210.034L490.841 201.909L487.147 210.034L479.022 213.727L487.147 217.42L490.841 225.545L494.534 217.42L502.659 213.727L494.534 210.034ZM492.303 215.19L490.841 218.41L489.378 215.19L486.158 213.727L489.378 212.265L490.841 209.044L492.303 212.265L495.524 213.727L492.303 215.19Z" fill="#1A237E"/>
<rect x="66" y="271.636" width="459.727" height="61.4545" rx="4.72727" fill="#F2F2F3"/>
<path d="M89.5375 293.795V295.765H96.0277L84.6133 307.179L86.0019 308.568L97.4163 297.153V303.643H99.386V293.795H89.5375Z" fill="#29A653"/>
<path d="M123.124 308.371C122.204 308.371 121.34 308.201 120.534 307.86C119.74 307.507 119.04 307.022 118.435 306.404C117.842 305.786 117.376 305.068 117.036 304.249C116.695 303.429 116.525 302.547 116.525 301.601C116.525 300.656 116.695 299.78 117.036 298.973C117.376 298.154 117.849 297.435 118.454 296.817C119.059 296.2 119.765 295.721 120.572 295.38C121.391 295.04 122.28 294.87 123.238 294.87C124.284 294.87 125.248 295.071 126.131 295.475C127.013 295.878 127.751 296.458 128.343 297.214L127.114 298.443C126.698 297.838 126.15 297.378 125.469 297.063C124.788 296.735 124.044 296.571 123.238 296.571C122.28 296.571 121.429 296.786 120.685 297.214C119.954 297.643 119.38 298.235 118.964 298.992C118.561 299.748 118.359 300.618 118.359 301.601C118.359 302.597 118.567 303.473 118.983 304.23C119.399 304.986 119.96 305.578 120.666 306.007C121.372 306.436 122.179 306.65 123.086 306.65C124.007 306.65 124.801 306.474 125.469 306.121C126.15 305.768 126.673 305.251 127.038 304.57C127.404 303.877 127.587 303.032 127.587 302.036L128.665 302.811H122.992V301.185H129.421V301.45C129.421 302.975 129.15 304.255 128.608 305.289C128.078 306.31 127.335 307.079 126.377 307.595C125.431 308.112 124.347 308.371 123.124 308.371ZM131.509 308.182V299.2H133.211V308.182H131.509ZM133.211 303.057L132.568 302.774C132.568 301.626 132.833 300.713 133.362 300.032C133.892 299.351 134.654 299.011 135.65 299.011C136.104 299.011 136.514 299.093 136.879 299.257C137.245 299.408 137.585 299.666 137.901 300.032L136.785 301.185C136.596 300.984 136.388 300.839 136.161 300.75C135.934 300.662 135.669 300.618 135.367 300.618C134.736 300.618 134.22 300.82 133.816 301.223C133.413 301.626 133.211 302.238 133.211 303.057ZM142.963 308.371C142.068 308.371 141.261 308.169 140.543 307.766C139.824 307.35 139.257 306.789 138.841 306.083C138.425 305.377 138.217 304.576 138.217 303.681C138.217 302.799 138.419 302.005 138.822 301.299C139.238 300.593 139.793 300.038 140.486 299.635C141.192 299.219 141.98 299.011 142.85 299.011C143.682 299.011 144.413 299.2 145.043 299.578C145.686 299.956 146.184 300.479 146.537 301.147C146.903 301.816 147.085 302.572 147.085 303.417C147.085 303.543 147.079 303.681 147.067 303.833C147.054 303.971 147.029 304.135 146.991 304.324H139.408V302.906H146.083L145.459 303.454C145.459 302.849 145.352 302.339 145.138 301.923C144.924 301.494 144.621 301.166 144.23 300.939C143.839 300.7 143.367 300.58 142.812 300.58C142.232 300.58 141.722 300.706 141.28 300.958C140.839 301.21 140.499 301.563 140.259 302.017C140.02 302.471 139.9 303.007 139.9 303.625C139.9 304.255 140.026 304.81 140.278 305.289C140.53 305.755 140.89 306.121 141.356 306.385C141.822 306.637 142.358 306.763 142.963 306.763C143.468 306.763 143.928 306.675 144.344 306.499C144.772 306.322 145.138 306.058 145.44 305.705L146.537 306.82C146.108 307.324 145.579 307.709 144.949 307.974C144.331 308.238 143.669 308.371 142.963 308.371ZM151.743 308.257L147.848 299.2H149.739L152.632 306.291H152.027L155.071 299.2H156.962L152.764 308.257H151.743ZM149.172 311.945L151.819 306.518L152.764 308.257L151.062 311.945H149.172ZM166.392 308.371C165.358 308.371 164.476 308.182 163.744 307.803C163.013 307.425 162.364 306.877 161.797 306.158L163.007 304.948C163.423 305.528 163.902 305.969 164.444 306.272C164.986 306.562 165.654 306.707 166.448 306.707C167.23 306.707 167.854 306.537 168.32 306.196C168.799 305.856 169.039 305.389 169.039 304.797C169.039 304.305 168.925 303.908 168.699 303.606C168.472 303.303 168.163 303.057 167.772 302.868C167.394 302.666 166.978 302.49 166.524 302.339C166.07 302.175 165.616 302.005 165.163 301.828C164.709 301.639 164.293 301.412 163.915 301.147C163.536 300.87 163.228 300.511 162.988 300.07C162.761 299.628 162.648 299.074 162.648 298.406C162.648 297.662 162.824 297.032 163.177 296.515C163.543 295.985 164.034 295.582 164.652 295.305C165.282 295.015 165.988 294.87 166.77 294.87C167.627 294.87 168.396 295.04 169.077 295.38C169.757 295.708 170.312 296.143 170.741 296.685L169.531 297.895C169.14 297.441 168.717 297.101 168.264 296.874C167.822 296.647 167.312 296.534 166.732 296.534C166.026 296.534 165.465 296.691 165.049 297.006C164.633 297.309 164.425 297.738 164.425 298.292C164.425 298.733 164.539 299.093 164.765 299.37C165.005 299.635 165.314 299.862 165.692 300.051C166.07 300.24 166.486 300.416 166.94 300.58C167.406 300.731 167.867 300.902 168.32 301.091C168.774 301.28 169.19 301.519 169.568 301.809C169.947 302.099 170.249 302.477 170.476 302.944C170.716 303.398 170.835 303.971 170.835 304.665C170.835 305.824 170.432 306.732 169.625 307.387C168.831 308.043 167.753 308.371 166.392 308.371ZM174.309 308.182V295.437H176.01V308.182H174.309ZM172.096 300.75V299.2H178.223V300.75H172.096ZM183.716 308.371C182.834 308.371 182.04 308.163 181.334 307.747C180.628 307.331 180.067 306.77 179.651 306.064C179.235 305.345 179.027 304.545 179.027 303.662C179.027 302.793 179.235 302.011 179.651 301.318C180.067 300.612 180.628 300.051 181.334 299.635C182.04 299.219 182.834 299.011 183.716 299.011C184.586 299.011 185.374 299.219 186.08 299.635C186.798 300.038 187.366 300.593 187.782 301.299C188.198 302.005 188.406 302.793 188.406 303.662C188.406 304.545 188.198 305.345 187.782 306.064C187.366 306.77 186.798 307.331 186.08 307.747C185.374 308.163 184.586 308.371 183.716 308.371ZM183.716 306.726C184.283 306.726 184.788 306.593 185.229 306.329C185.67 306.064 186.017 305.705 186.269 305.251C186.521 304.784 186.647 304.255 186.647 303.662C186.647 303.082 186.515 302.566 186.25 302.112C185.998 301.658 185.651 301.305 185.21 301.053C184.781 300.788 184.283 300.656 183.716 300.656C183.149 300.656 182.645 300.788 182.203 301.053C181.762 301.305 181.416 301.658 181.163 302.112C180.911 302.566 180.785 303.082 180.785 303.662C180.785 304.255 180.911 304.784 181.163 305.251C181.416 305.705 181.762 306.064 182.203 306.329C182.645 306.593 183.149 306.726 183.716 306.726ZM196.677 308.182V302.944C196.677 302.263 196.462 301.702 196.034 301.261C195.605 300.82 195.05 300.599 194.37 300.599C193.916 300.599 193.512 300.7 193.16 300.902C192.807 301.103 192.529 301.381 192.328 301.734C192.126 302.087 192.025 302.49 192.025 302.944L191.325 302.547C191.325 301.866 191.477 301.261 191.779 300.731C192.082 300.202 192.504 299.786 193.046 299.483C193.588 299.168 194.2 299.011 194.88 299.011C195.561 299.011 196.16 299.181 196.677 299.521C197.206 299.862 197.622 300.309 197.925 300.864C198.227 301.406 198.378 301.986 198.378 302.603V308.182H196.677ZM190.323 308.182V299.2H192.025V308.182H190.323ZM204.843 308.371C203.947 308.371 203.141 308.169 202.422 307.766C201.704 307.35 201.136 306.789 200.72 306.083C200.304 305.377 200.096 304.576 200.096 303.681C200.096 302.799 200.298 302.005 200.701 301.299C201.117 300.593 201.672 300.038 202.365 299.635C203.071 299.219 203.859 299.011 204.729 299.011C205.561 299.011 206.292 299.2 206.923 299.578C207.565 299.956 208.063 300.479 208.416 301.147C208.782 301.816 208.965 302.572 208.965 303.417C208.965 303.543 208.958 303.681 208.946 303.833C208.933 303.971 208.908 304.135 208.87 304.324H201.288V302.906H207.963L207.339 303.454C207.339 302.849 207.231 302.339 207.017 301.923C206.803 301.494 206.5 301.166 206.109 300.939C205.719 300.7 205.246 300.58 204.691 300.58C204.111 300.58 203.601 300.706 203.16 300.958C202.718 301.21 202.378 301.563 202.139 302.017C201.899 302.471 201.779 303.007 201.779 303.625C201.779 304.255 201.905 304.81 202.157 305.289C202.41 305.755 202.769 306.121 203.235 306.385C203.702 306.637 204.237 306.763 204.843 306.763C205.347 306.763 205.807 306.675 206.223 306.499C206.651 306.322 207.017 306.058 207.32 305.705L208.416 306.82C207.988 307.324 207.458 307.709 206.828 307.974C206.21 308.238 205.548 308.371 204.843 308.371Z" fill="#3F4346"/>
<path d="M335.164 306.182L332.484 301.502V300.878H332.796C333.297 300.878 333.717 300.83 334.058 300.736C334.408 300.641 334.682 300.485 334.88 300.268C335.079 300.05 335.197 299.753 335.235 299.374H332.484V298.467H335.221C335.155 298.117 335.022 297.833 334.824 297.616C334.625 297.389 334.356 297.223 334.015 297.119C333.684 297.015 333.278 296.963 332.796 296.963H332.484V296.056H338.355V296.963H335.675C335.892 297.143 336.072 297.356 336.213 297.602C336.355 297.847 336.445 298.136 336.483 298.467H338.355V299.374H336.511C336.445 300.065 336.18 300.603 335.717 300.991C335.263 301.369 334.658 301.61 333.902 301.714L336.611 306.182H335.164ZM339.947 305.373L343.578 301.544C343.946 301.166 344.235 300.84 344.443 300.566C344.651 300.282 344.797 300.022 344.882 299.786C344.977 299.549 345.024 299.303 345.024 299.048C345.024 298.547 344.863 298.155 344.542 297.871C344.221 297.587 343.805 297.446 343.294 297.446C342.793 297.446 342.353 297.569 341.975 297.814C341.597 298.051 341.261 298.419 340.968 298.921L340.032 298.141C340.42 297.498 340.888 297.015 341.436 296.694C341.985 296.363 342.618 296.198 343.337 296.198C343.942 296.198 344.466 296.316 344.911 296.552C345.365 296.789 345.714 297.119 345.96 297.545C346.206 297.97 346.329 298.467 346.329 299.034C346.329 299.441 346.277 299.805 346.173 300.126C346.078 300.447 345.903 300.778 345.648 301.119C345.402 301.45 345.057 301.847 344.613 302.31L341.677 305.331L339.947 305.373ZM339.947 306.182V305.373L341.082 304.99H346.556V306.182H339.947ZM350.655 306.323C350.012 306.323 349.425 306.205 348.896 305.969C348.376 305.723 347.936 305.369 347.577 304.905L348.485 303.998C348.702 304.329 349 304.593 349.378 304.792C349.756 304.981 350.177 305.075 350.64 305.075C351.075 305.075 351.449 304.995 351.761 304.834C352.082 304.664 352.333 304.428 352.512 304.125C352.701 303.823 352.796 303.473 352.796 303.076C352.796 302.669 352.701 302.319 352.512 302.026C352.333 301.724 352.077 301.492 351.747 301.331C351.416 301.171 351.023 301.09 350.569 301.09C350.399 301.09 350.229 301.105 350.059 301.133C349.889 301.152 349.723 301.185 349.563 301.232L350.13 300.466C350.309 300.381 350.503 300.315 350.711 300.268C350.919 300.221 351.127 300.197 351.335 300.197C351.865 300.197 352.337 300.32 352.753 300.566C353.179 300.811 353.515 301.157 353.76 301.601C354.016 302.045 354.143 302.561 354.143 303.147C354.143 303.771 353.992 304.324 353.689 304.806C353.396 305.279 352.99 305.652 352.47 305.926C351.95 306.191 351.345 306.323 350.655 306.323ZM349.563 301.232V300.424L352.441 297.148L354.03 297.134L351.066 300.495L349.563 301.232ZM348.045 297.531V296.339H354.03V297.134L352.867 297.531H348.045ZM355.388 307.742L356.267 306.054L356.721 305.941C356.674 306.045 356.612 306.13 356.537 306.196C356.47 306.262 356.385 306.295 356.281 306.295C356.083 306.295 355.898 306.215 355.728 306.054C355.568 305.884 355.487 305.676 355.487 305.43C355.487 305.156 355.577 304.929 355.757 304.749C355.936 304.56 356.163 304.466 356.437 304.466C356.683 304.466 356.901 304.56 357.09 304.749C357.279 304.929 357.373 305.156 357.373 305.43C357.373 305.534 357.35 305.662 357.302 305.813C357.265 305.955 357.184 306.139 357.061 306.366L356.125 308.139L355.388 307.742ZM359.623 306.182L362.587 302.14L363.07 301.885C362.956 302.074 362.819 302.239 362.658 302.381C362.498 302.523 362.299 302.631 362.063 302.707C361.836 302.783 361.557 302.821 361.226 302.821C360.659 302.821 360.134 302.683 359.652 302.409C359.179 302.135 358.801 301.757 358.517 301.275C358.234 300.783 358.092 300.23 358.092 299.615C358.092 298.982 358.248 298.41 358.56 297.899C358.872 297.379 359.288 296.968 359.808 296.666C360.328 296.354 360.905 296.198 361.538 296.198C362.181 296.198 362.762 296.349 363.282 296.651C363.802 296.954 364.214 297.361 364.516 297.871C364.819 298.372 364.97 298.939 364.97 299.573C364.97 300.443 364.667 301.308 364.062 302.168L361.169 306.182H359.623ZM361.538 301.771C361.935 301.771 362.29 301.677 362.602 301.487C362.923 301.289 363.174 301.029 363.353 300.707C363.542 300.377 363.637 300.013 363.637 299.615C363.637 299.199 363.542 298.831 363.353 298.509C363.174 298.178 362.923 297.918 362.602 297.729C362.29 297.54 361.935 297.446 361.538 297.446C361.141 297.446 360.782 297.54 360.46 297.729C360.148 297.918 359.898 298.178 359.709 298.509C359.519 298.831 359.425 299.199 359.425 299.615C359.425 300.022 359.519 300.386 359.709 300.707C359.898 301.029 360.153 301.289 360.474 301.487C360.796 301.677 361.15 301.771 361.538 301.771ZM367.058 306.182L370.746 297.119L372.064 297.162L368.462 306.182H367.058ZM365.512 297.531V296.339H372.064V297.162L371.483 297.531H365.512ZM372.853 305.373L376.484 301.544C376.853 301.166 377.141 300.84 377.349 300.566C377.557 300.282 377.703 300.022 377.789 299.786C377.883 299.549 377.93 299.303 377.93 299.048C377.93 298.547 377.77 298.155 377.448 297.871C377.127 297.587 376.711 297.446 376.2 297.446C375.699 297.446 375.259 297.569 374.881 297.814C374.503 298.051 374.167 298.419 373.874 298.921L372.938 298.141C373.326 297.498 373.794 297.015 374.342 296.694C374.891 296.363 375.524 296.198 376.243 296.198C376.848 296.198 377.373 296.316 377.817 296.552C378.271 296.789 378.621 297.119 378.866 297.545C379.112 297.97 379.235 298.467 379.235 299.034C379.235 299.441 379.183 299.805 379.079 300.126C378.985 300.447 378.81 300.778 378.554 301.119C378.309 301.45 377.963 301.847 377.519 302.31L374.583 305.331L372.853 305.373ZM372.853 306.182V305.373L373.988 304.99H379.462V306.182H372.853Z" fill="#3F4346"/>
<rect x="392.182" y="283.455" width="118.182" height="35.4545" rx="4.72727" fill="#D1F4DC"/>
<path d="M420.447 293.795V295.765H426.937L415.522 307.18L416.911 308.568L428.325 297.154V303.644H430.295V293.795H420.447Z" fill="#29A653"/>
<path d="M445.345 306.182V296.34H446.678V306.182H445.345ZM453.539 306.182V302.254C453.539 301.743 453.378 301.322 453.057 300.992C452.735 300.661 452.319 300.495 451.809 300.495C451.468 300.495 451.166 300.571 450.901 300.722C450.636 300.873 450.428 301.081 450.277 301.346C450.126 301.611 450.05 301.913 450.05 302.254L449.526 301.956C449.526 301.445 449.639 300.992 449.866 300.594C450.093 300.197 450.41 299.885 450.816 299.658C451.223 299.422 451.681 299.304 452.192 299.304C452.702 299.304 453.151 299.432 453.539 299.687C453.936 299.942 454.248 300.278 454.475 300.694C454.702 301.1 454.815 301.535 454.815 301.998V306.182H453.539ZM448.774 306.182V299.446H450.05V306.182H448.774ZM459.621 306.324C458.959 306.324 458.359 306.168 457.82 305.856C457.29 305.544 456.87 305.123 456.558 304.594C456.255 304.055 456.104 303.459 456.104 302.807C456.104 302.145 456.255 301.549 456.558 301.02C456.87 300.49 457.29 300.074 457.82 299.772C458.359 299.46 458.959 299.304 459.621 299.304C460.141 299.304 460.623 299.403 461.067 299.602C461.512 299.791 461.895 300.07 462.216 300.438L461.365 301.289C461.157 301.044 460.902 300.859 460.599 300.736C460.306 300.604 459.98 300.538 459.621 300.538C459.195 300.538 458.817 300.637 458.486 300.836C458.155 301.025 457.895 301.289 457.706 301.63C457.517 301.97 457.423 302.362 457.423 302.807C457.423 303.251 457.517 303.644 457.706 303.984C457.895 304.324 458.155 304.594 458.486 304.792C458.817 304.991 459.195 305.09 459.621 305.09C459.98 305.09 460.306 305.029 460.599 304.906C460.902 304.773 461.162 304.584 461.379 304.338L462.216 305.189C461.904 305.549 461.521 305.828 461.067 306.026C460.623 306.225 460.141 306.324 459.621 306.324ZM466.421 306.324C465.759 306.324 465.163 306.168 464.634 305.856C464.105 305.544 463.684 305.123 463.372 304.594C463.06 304.055 462.904 303.454 462.904 302.793C462.904 302.14 463.06 301.554 463.372 301.034C463.684 300.505 464.105 300.084 464.634 299.772C465.163 299.46 465.759 299.304 466.421 299.304C467.073 299.304 467.664 299.46 468.194 299.772C468.733 300.074 469.158 300.49 469.47 301.02C469.782 301.549 469.938 302.14 469.938 302.793C469.938 303.454 469.782 304.055 469.47 304.594C469.158 305.123 468.733 305.544 468.194 305.856C467.664 306.168 467.073 306.324 466.421 306.324ZM466.421 305.09C466.846 305.09 467.225 304.991 467.555 304.792C467.886 304.594 468.146 304.324 468.335 303.984C468.525 303.634 468.619 303.237 468.619 302.793C468.619 302.358 468.52 301.97 468.321 301.63C468.132 301.289 467.872 301.025 467.541 300.836C467.22 300.637 466.846 300.538 466.421 300.538C465.995 300.538 465.617 300.637 465.286 300.836C464.955 301.025 464.695 301.289 464.506 301.63C464.317 301.97 464.223 302.358 464.223 302.793C464.223 303.237 464.317 303.634 464.506 303.984C464.695 304.324 464.955 304.594 465.286 304.792C465.617 304.991 465.995 305.09 466.421 305.09ZM471.376 306.182V299.446H472.653V306.182H471.376ZM475.929 306.182V302.112C475.929 301.611 475.773 301.218 475.461 300.935C475.158 300.642 474.775 300.495 474.312 300.495C474 300.495 473.721 300.561 473.475 300.694C473.229 300.826 473.031 301.01 472.879 301.247C472.728 301.483 472.653 301.767 472.653 302.098L472.128 301.842C472.128 301.332 472.237 300.888 472.454 300.509C472.681 300.131 472.988 299.838 473.376 299.63C473.763 299.413 474.198 299.304 474.681 299.304C475.153 299.304 475.579 299.408 475.957 299.616C476.345 299.824 476.647 300.117 476.865 300.495C477.091 300.873 477.205 301.322 477.205 301.842V306.182H475.929ZM480.481 306.182V302.112C480.481 301.611 480.325 301.218 480.013 300.935C479.71 300.642 479.332 300.495 478.878 300.495C478.566 300.495 478.283 300.561 478.027 300.694C477.782 300.826 477.583 301.01 477.432 301.247C477.281 301.483 477.205 301.767 477.205 302.098L476.482 301.842C476.51 301.322 476.647 300.878 476.893 300.509C477.148 300.131 477.474 299.838 477.871 299.63C478.269 299.413 478.703 299.304 479.176 299.304C479.668 299.304 480.107 299.408 480.495 299.616C480.883 299.824 481.19 300.117 481.417 300.495C481.653 300.873 481.771 301.327 481.771 301.857V306.182H480.481ZM486.628 306.324C485.957 306.324 485.352 306.173 484.813 305.87C484.274 305.558 483.849 305.137 483.537 304.608C483.225 304.078 483.069 303.478 483.069 302.807C483.069 302.145 483.22 301.549 483.522 301.02C483.834 300.49 484.25 300.074 484.77 299.772C485.3 299.46 485.891 299.304 486.543 299.304C487.167 299.304 487.716 299.446 488.188 299.729C488.67 300.013 489.044 300.405 489.309 300.906C489.583 301.408 489.72 301.975 489.72 302.608C489.72 302.703 489.715 302.807 489.706 302.92C489.696 303.024 489.677 303.147 489.649 303.289H483.962V302.225H488.968L488.5 302.637C488.5 302.183 488.42 301.8 488.259 301.488C488.098 301.166 487.872 300.921 487.578 300.75C487.285 300.571 486.931 300.481 486.515 300.481C486.08 300.481 485.697 300.576 485.366 300.765C485.035 300.954 484.78 301.218 484.6 301.559C484.421 301.899 484.331 302.301 484.331 302.764C484.331 303.237 484.425 303.653 484.614 304.012C484.804 304.362 485.073 304.636 485.423 304.835C485.773 305.024 486.174 305.118 486.628 305.118C487.006 305.118 487.352 305.052 487.664 304.92C487.985 304.788 488.259 304.589 488.486 304.324L489.309 305.161C488.987 305.539 488.59 305.828 488.117 306.026C487.654 306.225 487.158 306.324 486.628 306.324Z" fill="#29A653"/>
<rect x="66" y="344.909" width="459.727" height="61.4545" rx="4.72727" fill="#F2F2F3"/>
<path d="M99.386 368.456L97.9974 367.067L86.583 378.482V371.992H84.6133V381.84H94.4618V379.87H87.9716L99.386 368.456Z" fill="#D90404"/>
<path d="M117.187 381.454V368.331H118.964V381.454H117.187ZM128.113 381.454V376.216C128.113 375.536 127.898 374.975 127.47 374.533C127.041 374.092 126.487 373.872 125.806 373.872C125.352 373.872 124.949 373.972 124.596 374.174C124.243 374.376 123.965 374.653 123.764 375.006C123.562 375.359 123.461 375.762 123.461 376.216L122.761 375.819C122.761 375.138 122.913 374.533 123.215 374.004C123.518 373.474 123.94 373.058 124.482 372.756C125.024 372.441 125.636 372.283 126.316 372.283C126.997 372.283 127.596 372.453 128.113 372.794C128.642 373.134 129.058 373.582 129.361 374.136C129.663 374.678 129.815 375.258 129.815 375.876V381.454H128.113ZM121.759 381.454V372.472H123.461V381.454H121.759ZM135.201 381.454L131.079 372.472H132.97L136.279 380.055H135.182L138.51 372.472H140.325L136.203 381.454H135.201ZM145.529 381.643C144.646 381.643 143.852 381.435 143.146 381.019C142.44 380.603 141.879 380.042 141.463 379.336C141.047 378.618 140.839 377.817 140.839 376.935C140.839 376.065 141.047 375.283 141.463 374.59C141.879 373.884 142.44 373.323 143.146 372.907C143.852 372.491 144.646 372.283 145.529 372.283C146.399 372.283 147.186 372.491 147.892 372.907C148.611 373.311 149.178 373.865 149.594 374.571C150.01 375.277 150.218 376.065 150.218 376.935C150.218 377.817 150.01 378.618 149.594 379.336C149.178 380.042 148.611 380.603 147.892 381.019C147.186 381.435 146.399 381.643 145.529 381.643ZM145.529 379.998C146.096 379.998 146.6 379.866 147.041 379.601C147.483 379.336 147.829 378.977 148.081 378.523C148.334 378.057 148.46 377.527 148.46 376.935C148.46 376.355 148.327 375.838 148.063 375.384C147.81 374.93 147.464 374.577 147.023 374.325C146.594 374.061 146.096 373.928 145.529 373.928C144.961 373.928 144.457 374.061 144.016 374.325C143.575 374.577 143.228 374.93 142.976 375.384C142.724 375.838 142.598 376.355 142.598 376.935C142.598 377.527 142.724 378.057 142.976 378.523C143.228 378.977 143.575 379.336 144.016 379.601C144.457 379.866 144.961 379.998 145.529 379.998ZM152.155 381.454V372.472H153.856V381.454H152.155ZM153.005 370.676C152.69 370.676 152.432 370.575 152.23 370.373C152.028 370.159 151.928 369.894 151.928 369.579C151.928 369.277 152.028 369.025 152.23 368.823C152.432 368.609 152.69 368.501 153.005 368.501C153.321 368.501 153.579 368.609 153.781 368.823C153.982 369.025 154.083 369.277 154.083 369.579C154.083 369.894 153.982 370.159 153.781 370.373C153.579 370.575 153.321 370.676 153.005 370.676ZM160.468 381.643C159.585 381.643 158.785 381.435 158.066 381.019C157.36 380.603 156.799 380.042 156.383 379.336C155.98 378.618 155.778 377.824 155.778 376.954C155.778 376.071 155.98 375.277 156.383 374.571C156.799 373.865 157.36 373.311 158.066 372.907C158.785 372.491 159.585 372.283 160.468 372.283C161.161 372.283 161.804 372.416 162.396 372.68C162.989 372.932 163.499 373.304 163.928 373.796L162.793 374.93C162.516 374.603 162.176 374.357 161.772 374.193C161.382 374.017 160.947 373.928 160.468 373.928C159.9 373.928 159.396 374.061 158.955 374.325C158.514 374.577 158.167 374.93 157.915 375.384C157.663 375.838 157.537 376.361 157.537 376.954C157.537 377.546 157.663 378.069 157.915 378.523C158.167 378.977 158.514 379.336 158.955 379.601C159.396 379.866 159.9 379.998 160.468 379.998C160.947 379.998 161.382 379.916 161.772 379.752C162.176 379.576 162.522 379.324 162.812 378.996L163.928 380.13C163.512 380.609 163.001 380.981 162.396 381.246C161.804 381.511 161.161 381.643 160.468 381.643ZM169.591 381.643C168.696 381.643 167.889 381.441 167.171 381.038C166.452 380.622 165.885 380.061 165.469 379.355C165.053 378.649 164.845 377.849 164.845 376.954C164.845 376.071 165.047 375.277 165.45 374.571C165.866 373.865 166.421 373.311 167.114 372.907C167.82 372.491 168.608 372.283 169.478 372.283C170.31 372.283 171.041 372.472 171.671 372.85C172.314 373.229 172.812 373.752 173.165 374.42C173.53 375.088 173.713 375.844 173.713 376.689C173.713 376.815 173.707 376.954 173.694 377.105C173.682 377.244 173.657 377.408 173.619 377.597H166.036V376.178H172.711L172.087 376.727C172.087 376.122 171.98 375.611 171.766 375.195C171.551 374.767 171.249 374.439 170.858 374.212C170.467 373.972 169.994 373.853 169.44 373.853C168.86 373.853 168.349 373.979 167.908 374.231C167.467 374.483 167.127 374.836 166.887 375.29C166.648 375.744 166.528 376.279 166.528 376.897C166.528 377.527 166.654 378.082 166.906 378.561C167.158 379.027 167.517 379.393 167.984 379.658C168.45 379.91 168.986 380.036 169.591 380.036C170.095 380.036 170.555 379.948 170.971 379.771C171.4 379.595 171.766 379.33 172.068 378.977L173.165 380.093C172.736 380.597 172.207 380.981 171.577 381.246C170.959 381.511 170.297 381.643 169.591 381.643ZM184.532 381.454L186.536 368.331H187.992L185.988 381.454H184.532ZM179.162 377.408V376.027H188.843V377.408H179.162ZM180.485 381.454L182.49 368.331H183.946L181.941 381.454H180.485ZM179.748 373.493V372.113H189.429V373.493H179.748ZM190.973 380.376L195.814 375.271C196.306 374.767 196.69 374.332 196.967 373.966C197.245 373.588 197.44 373.241 197.554 372.926C197.68 372.611 197.743 372.283 197.743 371.943C197.743 371.275 197.528 370.752 197.1 370.373C196.671 369.995 196.117 369.806 195.436 369.806C194.768 369.806 194.182 369.97 193.677 370.298C193.173 370.613 192.726 371.105 192.335 371.773L191.087 370.733C191.604 369.875 192.228 369.233 192.959 368.804C193.69 368.363 194.535 368.142 195.493 368.142C196.299 368.142 196.999 368.3 197.591 368.615C198.197 368.93 198.663 369.371 198.991 369.938C199.319 370.506 199.482 371.168 199.482 371.924C199.482 372.466 199.413 372.951 199.274 373.38C199.148 373.809 198.915 374.25 198.575 374.704C198.247 375.145 197.787 375.674 197.194 376.292L193.28 380.32L190.973 380.376ZM190.973 381.454V380.376L192.486 379.866H199.785V381.454H190.973ZM202.728 381.454L207.644 369.371L209.403 369.428L204.6 381.454H202.728ZM200.667 369.92V368.331H209.403V369.428L208.628 369.92H200.667ZM210.455 380.376L215.296 375.271C215.787 374.767 216.172 374.332 216.449 373.966C216.726 373.588 216.922 373.241 217.035 372.926C217.161 372.611 217.224 372.283 217.224 371.943C217.224 371.275 217.01 370.752 216.581 370.373C216.153 369.995 215.598 369.806 214.917 369.806C214.249 369.806 213.663 369.97 213.159 370.298C212.655 370.613 212.207 371.105 211.816 371.773L210.568 370.733C211.085 369.875 211.709 369.233 212.44 368.804C213.171 368.363 214.016 368.142 214.974 368.142C215.781 368.142 216.481 368.3 217.073 368.615C217.678 368.93 218.145 369.371 218.472 369.938C218.8 370.506 218.964 371.168 218.964 371.924C218.964 372.466 218.895 372.951 218.756 373.38C218.63 373.809 218.397 374.25 218.056 374.704C217.729 375.145 217.268 375.674 216.676 376.292L212.762 380.32L210.455 380.376ZM210.455 381.454V380.376L211.968 379.866H219.266V381.454H210.455ZM224.75 381.643C223.855 381.643 223.055 381.486 222.349 381.17C221.656 380.843 221.069 380.37 220.59 379.752L221.801 378.542C222.091 378.983 222.488 379.336 222.992 379.601C223.509 379.853 224.082 379.979 224.713 379.979C225.305 379.979 225.822 379.866 226.263 379.639C226.717 379.412 227.07 379.097 227.322 378.693C227.587 378.277 227.719 377.786 227.719 377.218C227.719 376.639 227.593 376.147 227.341 375.744C227.089 375.34 226.748 375.038 226.32 374.836C225.904 374.622 225.444 374.514 224.939 374.514C224.423 374.514 223.95 374.577 223.521 374.704C223.105 374.83 222.708 375.044 222.33 375.346L222.349 374.212C222.563 373.947 222.809 373.733 223.086 373.569C223.364 373.405 223.679 373.279 224.032 373.191C224.385 373.103 224.795 373.058 225.261 373.058C226.169 373.058 226.938 373.248 227.568 373.626C228.198 374.004 228.677 374.514 229.005 375.157C229.345 375.8 229.515 376.519 229.515 377.313C229.515 378.145 229.307 378.889 228.891 379.544C228.488 380.2 227.927 380.717 227.209 381.095C226.49 381.46 225.671 381.643 224.75 381.643ZM222.33 375.346L221.366 374.382L221.952 368.331H223.578L222.916 374.552L222.33 375.346ZM222.311 369.92L221.952 368.331H228.854V369.92H222.311Z" fill="#3F4346"/>
<path d="M334.892 379.454L332.211 374.774V374.15H332.523C333.024 374.15 333.445 374.103 333.785 374.008C334.135 373.914 334.409 373.758 334.608 373.54C334.806 373.323 334.925 373.025 334.962 372.647H332.211V371.739H334.948C334.882 371.389 334.75 371.106 334.551 370.888C334.353 370.661 334.083 370.496 333.743 370.392C333.412 370.288 333.005 370.236 332.523 370.236H332.211V369.328H338.082V370.236H335.402C335.62 370.416 335.799 370.628 335.941 370.874C336.083 371.12 336.173 371.408 336.21 371.739H338.082V372.647H336.239C336.173 373.337 335.908 373.876 335.445 374.264C334.991 374.642 334.386 374.883 333.629 374.987L336.338 379.454H334.892ZM339.675 378.646L343.305 374.817C343.674 374.438 343.962 374.112 344.17 373.838C344.378 373.554 344.525 373.294 344.61 373.058C344.704 372.822 344.752 372.576 344.752 372.321C344.752 371.82 344.591 371.427 344.269 371.144C343.948 370.86 343.532 370.718 343.021 370.718C342.52 370.718 342.081 370.841 341.703 371.087C341.324 371.323 340.989 371.692 340.696 372.193L339.76 371.413C340.147 370.77 340.615 370.288 341.164 369.966C341.712 369.636 342.345 369.47 343.064 369.47C343.669 369.47 344.194 369.588 344.638 369.825C345.092 370.061 345.442 370.392 345.688 370.817C345.933 371.243 346.056 371.739 346.056 372.306C346.056 372.713 346.004 373.077 345.9 373.398C345.806 373.72 345.631 374.051 345.376 374.391C345.13 374.722 344.785 375.119 344.34 375.582L341.405 378.603L339.675 378.646ZM339.675 379.454V378.646L340.809 378.263H346.283V379.454H339.675ZM350.382 379.596C349.739 379.596 349.153 379.478 348.624 379.241C348.104 378.996 347.664 378.641 347.305 378.178L348.212 377.27C348.43 377.601 348.728 377.866 349.106 378.064C349.484 378.253 349.905 378.348 350.368 378.348C350.803 378.348 351.176 378.268 351.488 378.107C351.81 377.937 352.06 377.7 352.24 377.398C352.429 377.095 352.524 376.745 352.524 376.348C352.524 375.942 352.429 375.592 352.24 375.299C352.06 374.996 351.805 374.765 351.474 374.604C351.143 374.443 350.751 374.363 350.297 374.363C350.127 374.363 349.957 374.377 349.786 374.405C349.616 374.424 349.451 374.457 349.29 374.505L349.857 373.739C350.037 373.654 350.231 373.588 350.439 373.54C350.647 373.493 350.855 373.469 351.063 373.469C351.592 373.469 352.065 373.592 352.481 373.838C352.906 374.084 353.242 374.429 353.488 374.873C353.743 375.318 353.871 375.833 353.871 376.419C353.871 377.043 353.72 377.596 353.417 378.078C353.124 378.551 352.717 378.925 352.197 379.199C351.677 379.464 351.072 379.596 350.382 379.596ZM349.29 374.505V373.696L352.169 370.42L353.757 370.406L350.793 373.767L349.29 374.505ZM347.773 370.803V369.612H353.757V370.406L352.594 370.803H347.773ZM355.115 381.014L355.995 379.326L356.449 379.213C356.401 379.317 356.34 379.402 356.264 379.468C356.198 379.534 356.113 379.568 356.009 379.568C355.81 379.568 355.626 379.487 355.456 379.326C355.295 379.156 355.215 378.948 355.215 378.702C355.215 378.428 355.305 378.201 355.484 378.022C355.664 377.833 355.891 377.738 356.165 377.738C356.411 377.738 356.628 377.833 356.817 378.022C357.006 378.201 357.101 378.428 357.101 378.702C357.101 378.806 357.077 378.934 357.03 379.085C356.992 379.227 356.912 379.412 356.789 379.638L355.853 381.411L355.115 381.014ZM359.351 379.454L362.315 375.412L362.797 375.157C362.684 375.346 362.547 375.512 362.386 375.653C362.225 375.795 362.027 375.904 361.79 375.98C361.563 376.055 361.284 376.093 360.954 376.093C360.386 376.093 359.862 375.956 359.379 375.682C358.907 375.408 358.528 375.029 358.245 374.547C357.961 374.056 357.819 373.502 357.819 372.888C357.819 372.254 357.975 371.682 358.287 371.172C358.599 370.652 359.015 370.241 359.535 369.938C360.055 369.626 360.632 369.47 361.266 369.47C361.908 369.47 362.49 369.621 363.01 369.924C363.53 370.226 363.941 370.633 364.244 371.144C364.546 371.645 364.698 372.212 364.698 372.845C364.698 373.715 364.395 374.58 363.79 375.441L360.897 379.454H359.351ZM361.266 375.044C361.663 375.044 362.017 374.949 362.329 374.76C362.651 374.561 362.901 374.301 363.081 373.98C363.27 373.649 363.364 373.285 363.364 372.888C363.364 372.472 363.27 372.103 363.081 371.782C362.901 371.451 362.651 371.191 362.329 371.002C362.017 370.813 361.663 370.718 361.266 370.718C360.868 370.718 360.509 370.813 360.188 371.002C359.876 371.191 359.625 371.451 359.436 371.782C359.247 372.103 359.152 372.472 359.152 372.888C359.152 373.294 359.247 373.658 359.436 373.98C359.625 374.301 359.88 374.561 360.202 374.76C360.523 374.949 360.878 375.044 361.266 375.044ZM366.786 379.454L370.473 370.392L371.792 370.434L368.19 379.454H366.786ZM365.24 370.803V369.612H371.792V370.434L371.211 370.803H365.24ZM372.581 378.646L376.211 374.817C376.58 374.438 376.868 374.112 377.076 373.838C377.284 373.554 377.431 373.294 377.516 373.058C377.611 372.822 377.658 372.576 377.658 372.321C377.658 371.82 377.497 371.427 377.176 371.144C376.854 370.86 376.438 370.718 375.928 370.718C375.427 370.718 374.987 370.841 374.609 371.087C374.231 371.323 373.895 371.692 373.602 372.193L372.666 371.413C373.054 370.77 373.522 370.288 374.07 369.966C374.618 369.636 375.252 369.47 375.97 369.47C376.575 369.47 377.1 369.588 377.544 369.825C377.998 370.061 378.348 370.392 378.594 370.817C378.84 371.243 378.963 371.739 378.963 372.306C378.963 372.713 378.911 373.077 378.807 373.398C378.712 373.72 378.537 374.051 378.282 374.391C378.036 374.722 377.691 375.119 377.247 375.582L374.311 378.603L372.581 378.646ZM372.581 379.454V378.646L373.715 378.263H379.19V379.454H372.581Z" fill="#3F4346"/>
<rect x="391.909" y="356.727" width="118.182" height="35.4545" rx="4.72727" fill="#FFC8C8"/>
<path d="M430.023 368.457L428.634 367.068L417.22 378.482V371.992H415.25V381.841H425.098V379.871H418.608L430.023 368.457Z" fill="#D90404"/>
<path d="M445.966 375.625V374.463H448.646C449.015 374.463 449.341 374.387 449.624 374.236C449.918 374.084 450.144 373.872 450.305 373.597C450.475 373.323 450.56 372.997 450.56 372.619C450.56 372.241 450.475 371.915 450.305 371.64C450.144 371.366 449.918 371.153 449.624 371.002C449.341 370.851 449.015 370.775 448.646 370.775H445.966V369.612H448.731C449.336 369.612 449.875 369.735 450.348 369.981C450.83 370.227 451.208 370.577 451.482 371.031C451.766 371.475 451.908 372.004 451.908 372.619C451.908 373.224 451.766 373.753 451.482 374.207C451.208 374.652 450.83 375.001 450.348 375.257C449.875 375.503 449.336 375.625 448.731 375.625H445.966ZM445.072 379.455V369.612H446.405V379.455H445.072ZM455.923 379.596C455.308 379.596 454.75 379.445 454.249 379.143C453.748 378.831 453.351 378.41 453.058 377.88C452.774 377.351 452.632 376.755 452.632 376.093C452.632 375.432 452.774 374.836 453.058 374.307C453.351 373.777 453.743 373.356 454.235 373.044C454.736 372.732 455.299 372.576 455.923 372.576C456.433 372.576 456.887 372.685 457.284 372.903C457.691 373.111 458.017 373.404 458.263 373.782C458.508 374.151 458.646 374.581 458.674 375.072V377.1C458.646 377.583 458.508 378.013 458.263 378.391C458.026 378.769 457.705 379.067 457.298 379.284C456.901 379.492 456.443 379.596 455.923 379.596ZM456.135 378.391C456.769 378.391 457.279 378.178 457.667 377.753C458.055 377.318 458.248 376.765 458.248 376.093C458.248 375.63 458.159 375.228 457.979 374.888C457.809 374.538 457.563 374.269 457.242 374.08C456.92 373.881 456.547 373.782 456.121 373.782C455.696 373.782 455.318 373.881 454.987 374.08C454.665 374.278 454.41 374.552 454.221 374.902C454.041 375.243 453.951 375.635 453.951 376.079C453.951 376.533 454.041 376.935 454.221 377.285C454.41 377.625 454.67 377.895 455.001 378.093C455.332 378.292 455.71 378.391 456.135 378.391ZM458.163 379.455V377.639L458.404 375.994L458.163 374.363V372.718H459.454V379.455H458.163ZM463.525 379.511L460.603 372.718H462.021L464.191 378.036H463.737L466.021 372.718H467.439L464.29 379.511H463.525ZM461.596 382.277L463.581 378.207L464.29 379.511L463.014 382.277H461.596ZM468.431 379.455V372.718H469.707V379.455H468.431ZM469.707 375.611L469.225 375.399C469.225 374.538 469.423 373.853 469.821 373.342C470.218 372.832 470.79 372.576 471.537 372.576C471.877 372.576 472.184 372.638 472.458 372.761C472.733 372.874 472.988 373.068 473.224 373.342L472.387 374.207C472.246 374.056 472.09 373.947 471.919 373.881C471.749 373.815 471.551 373.782 471.324 373.782C470.851 373.782 470.463 373.933 470.161 374.236C469.858 374.538 469.707 374.997 469.707 375.611ZM476.979 379.596C476.317 379.596 475.721 379.44 475.192 379.128C474.662 378.816 474.242 378.396 473.93 377.866C473.618 377.327 473.462 376.727 473.462 376.065C473.462 375.413 473.618 374.827 473.93 374.307C474.242 373.777 474.662 373.356 475.192 373.044C475.721 372.732 476.317 372.576 476.979 372.576C477.631 372.576 478.222 372.732 478.751 373.044C479.29 373.347 479.716 373.763 480.028 374.292C480.34 374.822 480.496 375.413 480.496 376.065C480.496 376.727 480.34 377.327 480.028 377.866C479.716 378.396 479.29 378.816 478.751 379.128C478.222 379.44 477.631 379.596 476.979 379.596ZM476.979 378.363C477.404 378.363 477.782 378.263 478.113 378.065C478.444 377.866 478.704 377.597 478.893 377.256C479.082 376.907 479.177 376.509 479.177 376.065C479.177 375.63 479.078 375.243 478.879 374.902C478.69 374.562 478.43 374.297 478.099 374.108C477.778 373.909 477.404 373.81 476.979 373.81C476.553 373.81 476.175 373.909 475.844 374.108C475.513 374.297 475.253 374.562 475.064 374.902C474.875 375.243 474.781 375.63 474.781 376.065C474.781 376.509 474.875 376.907 475.064 377.256C475.253 377.597 475.513 377.866 475.844 378.065C476.175 378.263 476.553 378.363 476.979 378.363ZM481.934 379.455V369.329H483.21V379.455H481.934ZM485.078 379.455V369.329H486.354V379.455H485.078Z" fill="#D90404"/>
</svg>
