<svg width="440" height="440" viewBox="0 0 440 440" fill="none" xmlns="http://www.w3.org/2000/svg">
<rect width="440" height="440" rx="5.86667" fill="#E9ECFF"/>
<rect x="20.4348" y="70" width="399.13" height="300" rx="6.52174" fill="white"/>
<rect x="20.4348" y="70" width="399.13" height="300" rx="6.52174" stroke="#D5D9DC" stroke-width="0.869565"/>
<path d="M46.0174 98.0434C45.171 98.0434 44.3768 97.8869 43.6348 97.5739C42.9043 97.2492 42.2609 96.8028 41.7043 96.2347C41.1594 95.6666 40.7304 95.0057 40.4174 94.2521C40.1043 93.4985 39.9478 92.6869 39.9478 91.8173C39.9478 90.9478 40.1043 90.142 40.4174 89.3999C40.7304 88.6463 41.1652 87.9854 41.7217 87.4173C42.2783 86.8492 42.9275 86.4086 43.6696 86.0956C44.4232 85.7825 45.2406 85.626 46.1217 85.626C47.0841 85.626 47.971 85.8115 48.7826 86.1825C49.5942 86.5536 50.2725 87.0869 50.8174 87.7825L49.687 88.913C49.3043 88.3565 48.8 87.9333 48.1739 87.6434C47.5478 87.342 46.8638 87.1912 46.1217 87.1912C45.2406 87.1912 44.458 87.3883 43.7739 87.7825C43.1014 88.1768 42.5739 88.7217 42.1913 89.4173C41.8203 90.113 41.6348 90.913 41.6348 91.8173C41.6348 92.7333 41.8261 93.5391 42.2087 94.2347C42.5913 94.9304 43.1072 95.4753 43.7565 95.8695C44.4058 96.2637 45.1478 96.4608 45.9826 96.4608C46.829 96.4608 47.5594 96.2985 48.1739 95.9739C48.8 95.6492 49.2812 95.1739 49.6174 94.5478C49.9536 93.9101 50.1217 93.1333 50.1217 92.2173L51.113 92.9304H45.8956V91.4347H51.8087V91.6782C51.8087 93.0811 51.5594 94.2579 51.0609 95.2086C50.5739 96.1478 49.8899 96.855 49.0087 97.3304C48.1391 97.8057 47.142 98.0434 46.0174 98.0434ZM53.7467 97.8695V89.6086H55.312V97.8695H53.7467ZM54.5293 87.9565C54.2395 87.9565 54.0018 87.8637 53.8163 87.6782C53.6308 87.4811 53.538 87.2376 53.538 86.9478C53.538 86.6695 53.6308 86.4376 53.8163 86.2521C54.0018 86.055 54.2395 85.9565 54.5293 85.9565C54.8192 85.9565 55.0569 86.055 55.2424 86.2521C55.4279 86.4376 55.5206 86.6695 55.5206 86.9478C55.5206 87.2376 55.4279 87.4811 55.2424 87.6782C55.0569 87.8637 54.8192 87.9565 54.5293 87.9565ZM61.1143 98.0434C60.349 98.0434 59.665 97.8579 59.0621 97.4869C58.4592 97.1043 57.978 96.5883 57.6186 95.9391C57.2708 95.2898 57.0969 94.5594 57.0969 93.7478C57.0969 92.9362 57.2708 92.2057 57.6186 91.5565C57.978 90.9072 58.4592 90.3912 59.0621 90.0086C59.665 89.626 60.349 89.4347 61.1143 89.4347C61.7288 89.4347 62.2853 89.5681 62.7838 89.8347C63.2824 90.0898 63.6824 90.4492 63.9838 90.913C64.2969 91.3652 64.4708 91.8927 64.5056 92.4956V94.9826C64.4708 95.5739 64.3027 96.1014 64.0012 96.5652C63.6998 97.0289 63.2998 97.3941 62.8012 97.6608C62.3027 97.9159 61.7404 98.0434 61.1143 98.0434ZM61.3751 96.5652C61.8969 96.5652 62.349 96.4434 62.7317 96.1999C63.1259 95.9565 63.4331 95.626 63.6534 95.2086C63.8737 94.7797 63.9838 94.2927 63.9838 93.7478C63.9838 93.1797 63.8679 92.6869 63.636 92.2695C63.4157 91.8521 63.1085 91.5217 62.7143 91.2782C62.3317 91.0347 61.8795 90.913 61.3577 90.913C60.836 90.913 60.378 91.0347 59.9838 91.2782C59.5896 91.5217 59.2766 91.8579 59.0447 92.2869C58.8244 92.7043 58.7143 93.1854 58.7143 93.7304C58.7143 94.2869 58.8244 94.7797 59.0447 95.2086C59.2766 95.626 59.5896 95.9565 59.9838 96.1999C60.3896 96.4434 60.8534 96.5652 61.3751 96.5652ZM65.4621 97.8695H63.8795V95.6434L64.1751 93.626L63.8795 91.626V85.4521H65.4621V97.8695ZM71.2365 98.0434C70.4713 98.0434 69.7873 97.8579 69.1844 97.4869C68.5815 97.1043 68.1003 96.5883 67.7409 95.9391C67.3931 95.2898 67.2192 94.5594 67.2192 93.7478C67.2192 92.9362 67.3931 92.2057 67.7409 91.5565C68.1003 90.9072 68.5815 90.3912 69.1844 90.0086C69.7873 89.626 70.4713 89.4347 71.2365 89.4347C71.851 89.4347 72.4076 89.5681 72.9061 89.8347C73.4047 90.0898 73.8047 90.4492 74.1061 90.913C74.4192 91.3652 74.5931 91.8927 74.6278 92.4956V94.9826C74.5931 95.5739 74.425 96.1014 74.1235 96.5652C73.8221 97.0289 73.4221 97.3941 72.9235 97.6608C72.425 97.9159 71.8626 98.0434 71.2365 98.0434ZM71.4974 96.5652C72.0192 96.5652 72.4713 96.4434 72.8539 96.1999C73.2481 95.9565 73.5554 95.626 73.7757 95.2086C73.996 94.7797 74.1061 94.2927 74.1061 93.7478C74.1061 93.1797 73.9902 92.6869 73.7583 92.2695C73.538 91.8521 73.2307 91.5217 72.8365 91.2782C72.4539 91.0347 72.0018 90.913 71.48 90.913C70.9583 90.913 70.5003 91.0347 70.1061 91.2782C69.7119 91.5217 69.3989 91.8579 69.167 92.2869C68.9467 92.7043 68.8365 93.1854 68.8365 93.7304C68.8365 94.2869 68.9467 94.7797 69.167 95.2086C69.3989 95.626 69.7119 95.9565 70.1061 96.1999C70.5119 96.4434 70.9757 96.5652 71.4974 96.5652ZM75.5844 97.8695H74.0018V95.6434L74.2974 93.626L74.0018 91.626V85.4521H75.5844V97.8695ZM83.7067 97.8695V93.0521C83.7067 92.426 83.5096 91.9101 83.1154 91.5043C82.7211 91.0985 82.211 90.8956 81.5849 90.8956C81.1675 90.8956 80.7965 90.9883 80.4719 91.1739C80.1472 91.3594 79.8922 91.6144 79.7067 91.9391C79.5211 92.2637 79.4284 92.6347 79.4284 93.0521L78.7849 92.6869C78.7849 92.0608 78.924 91.5043 79.2023 91.0173C79.4806 90.5304 79.869 90.1478 80.3675 89.8695C80.8661 89.5797 81.4284 89.4347 82.0545 89.4347C82.6806 89.4347 83.2313 89.5739 83.7067 89.8521C84.1936 90.1304 84.5762 90.5188 84.8545 91.0173C85.1327 91.5159 85.2719 92.0898 85.2719 92.7391V97.8695H83.7067ZM77.8632 97.8695V85.4521H79.4284V97.8695H77.8632ZM87.391 94.1826V92.7043H93.1128V94.1826H87.391ZM95.6856 97.8695V85.7999H97.3204V97.8695H95.6856ZM105.735 97.8695V93.0521C105.735 92.426 105.537 91.9101 105.143 91.5043C104.749 91.0985 104.239 90.8956 103.613 90.8956C103.195 90.8956 102.824 90.9883 102.5 91.1739C102.175 91.3594 101.92 91.6144 101.735 91.9391C101.549 92.2637 101.456 92.6347 101.456 93.0521L100.813 92.6869C100.813 92.0608 100.952 91.5043 101.23 91.0173C101.508 90.5304 101.897 90.1478 102.395 89.8695C102.894 89.5797 103.456 89.4347 104.082 89.4347C104.708 89.4347 105.259 89.5912 105.735 89.9043C106.221 90.2173 106.604 90.6289 106.882 91.1391C107.161 91.6376 107.3 92.171 107.3 92.7391V97.8695H105.735ZM99.891 97.8695V89.6086H101.456V97.8695H99.891ZM112.254 97.8695L108.462 89.6086H110.201L113.245 96.5826H112.236L115.297 89.6086H116.967L113.175 97.8695H112.254ZM121.753 98.0434C120.941 98.0434 120.211 97.8521 119.561 97.4695C118.912 97.0869 118.396 96.571 118.013 95.9217C117.631 95.2608 117.44 94.5246 117.44 93.713C117.44 92.913 117.631 92.1941 118.013 91.5565C118.396 90.9072 118.912 90.3912 119.561 90.0086C120.211 89.626 120.941 89.4347 121.753 89.4347C122.553 89.4347 123.277 89.626 123.926 90.0086C124.587 90.3797 125.109 90.8898 125.492 91.5391C125.874 92.1883 126.066 92.913 126.066 93.713C126.066 94.5246 125.874 95.2608 125.492 95.9217C125.109 96.571 124.587 97.0869 123.926 97.4695C123.277 97.8521 122.553 98.0434 121.753 98.0434ZM121.753 96.5304C122.274 96.5304 122.738 96.4086 123.144 96.1652C123.55 95.9217 123.869 95.5912 124.1 95.1739C124.332 94.7449 124.448 94.2579 124.448 93.713C124.448 93.1797 124.326 92.7043 124.083 92.2869C123.851 91.8695 123.532 91.5449 123.126 91.313C122.732 91.0695 122.274 90.9478 121.753 90.9478C121.231 90.9478 120.767 91.0695 120.361 91.313C119.955 91.5449 119.637 91.8695 119.405 92.2869C119.173 92.7043 119.057 93.1797 119.057 93.713C119.057 94.2579 119.173 94.7449 119.405 95.1739C119.637 95.5912 119.955 95.9217 120.361 96.1652C120.767 96.4086 121.231 96.5304 121.753 96.5304ZM127.847 97.8695V89.6086H129.412V97.8695H127.847ZM128.629 87.9565C128.339 87.9565 128.102 87.8637 127.916 87.6782C127.731 87.4811 127.638 87.2376 127.638 86.9478C127.638 86.6695 127.731 86.4376 127.916 86.2521C128.102 86.055 128.339 85.9565 128.629 85.9565C128.919 85.9565 129.157 86.055 129.342 86.2521C129.528 86.4376 129.621 86.6695 129.621 86.9478C129.621 87.2376 129.528 87.4811 129.342 87.6782C129.157 87.8637 128.919 87.9565 128.629 87.9565ZM135.492 98.0434C134.681 98.0434 133.945 97.8521 133.284 97.4695C132.634 97.0869 132.118 96.571 131.736 95.9217C131.365 95.2608 131.179 94.5304 131.179 93.7304C131.179 92.9188 131.365 92.1883 131.736 91.5391C132.118 90.8898 132.634 90.3797 133.284 90.0086C133.945 89.626 134.681 89.4347 135.492 89.4347C136.13 89.4347 136.721 89.5565 137.266 89.7999C137.811 90.0318 138.281 90.3739 138.675 90.826L137.632 91.8695C137.376 91.5681 137.063 91.342 136.692 91.1912C136.333 91.0289 135.933 90.9478 135.492 90.9478C134.971 90.9478 134.507 91.0695 134.101 91.313C133.695 91.5449 133.376 91.8695 133.145 92.2869C132.913 92.7043 132.797 93.1854 132.797 93.7304C132.797 94.2753 132.913 94.7565 133.145 95.1739C133.376 95.5912 133.695 95.9217 134.101 96.1652C134.507 96.4086 134.971 96.5304 135.492 96.5304C135.933 96.5304 136.333 96.455 136.692 96.3043C137.063 96.142 137.382 95.9101 137.649 95.6086L138.675 96.6521C138.292 97.0927 137.823 97.4347 137.266 97.6782C136.721 97.9217 136.13 98.0434 135.492 98.0434ZM140.245 97.8695V89.6086H141.81V97.8695H140.245ZM141.027 87.9565C140.737 87.9565 140.5 87.8637 140.314 87.6782C140.129 87.4811 140.036 87.2376 140.036 86.9478C140.036 86.6695 140.129 86.4376 140.314 86.2521C140.5 86.055 140.737 85.9565 141.027 85.9565C141.317 85.9565 141.555 86.055 141.74 86.2521C141.926 86.4376 142.019 86.6695 142.019 86.9478C142.019 87.2376 141.926 87.4811 141.74 87.6782C141.555 87.8637 141.317 87.9565 141.027 87.9565ZM149.96 97.8695V93.0521C149.96 92.426 149.763 91.9101 149.369 91.5043C148.975 91.0985 148.464 90.8956 147.838 90.8956C147.421 90.8956 147.05 90.9883 146.725 91.1739C146.401 91.3594 146.146 91.6144 145.96 91.9391C145.775 92.2637 145.682 92.6347 145.682 93.0521L145.038 92.6869C145.038 92.0608 145.177 91.5043 145.456 91.0173C145.734 90.5304 146.122 90.1478 146.621 89.8695C147.119 89.5797 147.682 89.4347 148.308 89.4347C148.934 89.4347 149.485 89.5912 149.96 89.9043C150.447 90.2173 150.83 90.6289 151.108 91.1391C151.386 91.6376 151.525 92.171 151.525 92.7391V97.8695H149.96ZM144.117 97.8695V89.6086H145.682V97.8695H144.117ZM157.071 101.504C156.224 101.504 155.471 101.348 154.81 101.035C154.16 100.722 153.639 100.281 153.244 99.713L154.253 98.6869C154.589 99.1159 154.989 99.4405 155.453 99.6608C155.917 99.8927 156.468 100.009 157.105 100.009C157.952 100.009 158.618 99.7826 159.105 99.3304C159.604 98.8898 159.853 98.2927 159.853 97.5391V95.4869L160.131 93.626L159.853 91.7826V89.6086H161.418V97.5391C161.418 98.3275 161.233 99.0173 160.862 99.6086C160.502 100.2 159.992 100.664 159.331 101C158.682 101.336 157.928 101.504 157.071 101.504ZM157.071 97.7304C156.317 97.7304 155.639 97.5507 155.036 97.1912C154.444 96.8318 153.975 96.3391 153.627 95.713C153.279 95.0753 153.105 94.3623 153.105 93.5739C153.105 92.7854 153.279 92.084 153.627 91.4695C153.975 90.8434 154.444 90.3507 155.036 89.9912C155.639 89.6202 156.317 89.4347 157.071 89.4347C157.72 89.4347 158.294 89.5623 158.792 89.8173C159.291 90.0724 159.685 90.4318 159.975 90.8956C160.276 91.3478 160.439 91.8811 160.462 92.4956V94.6869C160.427 95.2898 160.259 95.8231 159.957 96.2869C159.668 96.7391 159.273 97.0927 158.775 97.3478C158.276 97.6028 157.708 97.7304 157.071 97.7304ZM157.384 96.2521C157.894 96.2521 158.34 96.142 158.723 95.9217C159.117 95.7014 159.418 95.3941 159.627 94.9999C159.836 94.5941 159.94 94.1246 159.94 93.5912C159.94 93.0579 159.83 92.5941 159.61 92.1999C159.401 91.7941 159.105 91.4811 158.723 91.2608C158.34 91.0289 157.888 90.913 157.366 90.913C156.844 90.913 156.386 91.0289 155.992 91.2608C155.598 91.4811 155.285 91.7941 155.053 92.1999C154.833 92.5941 154.723 93.0521 154.723 93.5739C154.723 94.0956 154.833 94.5594 155.053 94.9652C155.285 95.371 155.598 95.6898 155.992 95.9217C156.398 96.142 156.862 96.2521 157.384 96.2521Z" fill="black"/>
<rect x="279.13" y="83.1738" width="121.739" height="17.3913" rx="1.73913" fill="#1A237E"/>
<path d="M304.247 94.9495C303.81 94.9495 303.436 94.8695 303.127 94.7095C302.818 94.5495 302.543 94.3175 302.303 94.0135L302.815 93.5015C302.991 93.7468 303.194 93.9335 303.423 94.0615C303.652 94.1842 303.935 94.2455 304.271 94.2455C304.602 94.2455 304.866 94.1735 305.063 94.0295C305.266 93.8855 305.367 93.6882 305.367 93.4375C305.367 93.2295 305.319 93.0615 305.223 92.9335C305.127 92.8055 304.996 92.7015 304.831 92.6215C304.671 92.5362 304.495 92.4615 304.303 92.3975C304.111 92.3282 303.919 92.2562 303.727 92.1815C303.535 92.1015 303.359 92.0055 303.199 91.8935C303.039 91.7762 302.908 91.6242 302.807 91.4375C302.711 91.2508 302.663 91.0162 302.663 90.7335C302.663 90.4188 302.738 90.1522 302.887 89.9335C303.042 89.7095 303.25 89.5388 303.511 89.4215C303.778 89.2988 304.076 89.2375 304.407 89.2375C304.77 89.2375 305.095 89.3095 305.383 89.4535C305.671 89.5922 305.906 89.7762 306.087 90.0055L305.575 90.5175C305.41 90.3255 305.231 90.1815 305.039 90.0855C304.852 89.9895 304.636 89.9415 304.391 89.9415C304.092 89.9415 303.855 90.0082 303.679 90.1415C303.503 90.2695 303.415 90.4508 303.415 90.6855C303.415 90.8722 303.463 91.0242 303.559 91.1415C303.66 91.2535 303.791 91.3495 303.951 91.4295C304.111 91.5095 304.287 91.5842 304.479 91.6535C304.676 91.7175 304.871 91.7895 305.063 91.8695C305.255 91.9495 305.431 92.0508 305.591 92.1735C305.751 92.2962 305.879 92.4562 305.975 92.6535C306.076 92.8455 306.127 93.0882 306.127 93.3815C306.127 93.8722 305.956 94.2562 305.615 94.5335C305.279 94.8108 304.823 94.9495 304.247 94.9495ZM307.596 94.8695V89.4775H308.316V94.8695H307.596ZM306.66 91.7255V91.0695H309.252V91.7255H306.66ZM311.457 94.9495C311.11 94.9495 310.795 94.8642 310.513 94.6935C310.23 94.5175 310.006 94.2802 309.84 93.9815C309.681 93.6828 309.601 93.3468 309.601 92.9735C309.601 92.6002 309.681 92.2642 309.84 91.9655C310.006 91.6668 310.227 91.4295 310.505 91.2535C310.787 91.0775 311.105 90.9895 311.457 90.9895C311.745 90.9895 312.001 91.0508 312.225 91.1735C312.454 91.2908 312.638 91.4562 312.777 91.6695C312.915 91.8775 312.993 92.1202 313.009 92.3975V93.5415C312.993 93.8135 312.915 94.0562 312.777 94.2695C312.643 94.4828 312.462 94.6508 312.233 94.7735C312.009 94.8908 311.75 94.9495 311.457 94.9495ZM311.577 94.2695C311.934 94.2695 312.222 94.1495 312.441 93.9095C312.659 93.6642 312.769 93.3522 312.769 92.9735C312.769 92.7122 312.718 92.4855 312.617 92.2935C312.521 92.0962 312.382 91.9442 312.201 91.8375C312.019 91.7255 311.809 91.6695 311.569 91.6695C311.329 91.6695 311.115 91.7255 310.929 91.8375C310.747 91.9495 310.603 92.1042 310.497 92.3015C310.395 92.4935 310.345 92.7148 310.345 92.9655C310.345 93.2215 310.395 93.4482 310.497 93.6455C310.603 93.8375 310.75 93.9895 310.937 94.1015C311.123 94.2135 311.337 94.2695 311.577 94.2695ZM312.721 94.8695V93.8455L312.857 92.9175L312.721 91.9975V91.0695H313.449V94.8695H312.721ZM314.497 94.8695V91.0695H315.217V94.8695H314.497ZM315.217 92.7015L314.945 92.5815C314.945 92.0962 315.057 91.7095 315.281 91.4215C315.505 91.1335 315.827 90.9895 316.249 90.9895C316.441 90.9895 316.614 91.0242 316.769 91.0935C316.923 91.1575 317.067 91.2668 317.201 91.4215L316.729 91.9095C316.649 91.8242 316.561 91.7628 316.465 91.7255C316.369 91.6882 316.257 91.6695 316.129 91.6695C315.862 91.6695 315.643 91.7548 315.473 91.9255C315.302 92.0962 315.217 92.3548 315.217 92.7015ZM318.276 94.8695V89.4775H318.996V94.8695H318.276ZM317.34 91.7255V91.0695H319.932V91.7255H317.34ZM323.389 94.8695L321.885 91.0695H322.637L323.725 94.0295H323.485L324.565 91.0695H324.981L326.061 94.0295H325.821L326.909 91.0695H327.661L326.165 94.8695H325.741L324.645 91.9975H324.909L323.805 94.8695H323.389ZM328.247 94.8695V91.0695H328.967V94.8695H328.247ZM328.607 90.3095C328.474 90.3095 328.364 90.2668 328.279 90.1815C328.194 90.0908 328.151 89.9788 328.151 89.8455C328.151 89.7175 328.194 89.6108 328.279 89.5255C328.364 89.4348 328.474 89.3895 328.607 89.3895C328.74 89.3895 328.85 89.4348 328.935 89.5255C329.02 89.6108 329.063 89.7175 329.063 89.8455C329.063 89.9788 329.02 90.0908 328.935 90.1815C328.85 90.2668 328.74 90.3095 328.607 90.3095ZM330.612 94.8695V89.4775H331.332V94.8695H330.612ZM329.676 91.7255V91.0695H332.268V91.7255H329.676ZM335.661 94.8695V92.6535C335.661 92.3655 335.571 92.1282 335.389 91.9415C335.208 91.7548 334.973 91.6615 334.685 91.6615C334.493 91.6615 334.323 91.7042 334.173 91.7895C334.024 91.8748 333.907 91.9922 333.821 92.1415C333.736 92.2908 333.693 92.4615 333.693 92.6535L333.397 92.4855C333.397 92.1975 333.461 91.9415 333.589 91.7175C333.717 91.4935 333.896 91.3175 334.125 91.1895C334.355 91.0562 334.613 90.9895 334.901 90.9895C335.189 90.9895 335.443 91.0535 335.661 91.1815C335.885 91.3095 336.061 91.4882 336.189 91.7175C336.317 91.9468 336.381 92.2108 336.381 92.5095V94.8695H335.661ZM332.973 94.8695V89.1575H333.693V94.8695H332.973ZM340.636 94.9495C340.29 94.9495 339.975 94.8642 339.692 94.6935C339.41 94.5175 339.186 94.2802 339.02 93.9815C338.86 93.6828 338.78 93.3468 338.78 92.9735C338.78 92.6002 338.86 92.2642 339.02 91.9655C339.186 91.6668 339.407 91.4295 339.684 91.2535C339.967 91.0775 340.284 90.9895 340.636 90.9895C340.924 90.9895 341.18 91.0508 341.404 91.1735C341.634 91.2908 341.818 91.4562 341.956 91.6695C342.095 91.8775 342.172 92.1202 342.188 92.3975V93.5415C342.172 93.8135 342.095 94.0562 341.956 94.2695C341.823 94.4828 341.642 94.6508 341.412 94.7735C341.188 94.8908 340.93 94.9495 340.636 94.9495ZM340.756 94.2695C341.114 94.2695 341.402 94.1495 341.62 93.9095C341.839 93.6642 341.948 93.3522 341.948 92.9735C341.948 92.7122 341.898 92.4855 341.796 92.2935C341.7 92.0962 341.562 91.9442 341.38 91.8375C341.199 91.7255 340.988 91.6695 340.748 91.6695C340.508 91.6695 340.295 91.7255 340.108 91.8375C339.927 91.9495 339.783 92.1042 339.676 92.3015C339.575 92.4935 339.524 92.7148 339.524 92.9655C339.524 93.2215 339.575 93.4482 339.676 93.6455C339.783 93.8375 339.93 93.9895 340.116 94.1015C340.303 94.2135 340.516 94.2695 340.756 94.2695ZM341.9 94.8695V93.8455L342.036 92.9175L341.9 91.9975V91.0695H342.628V94.8695H341.9ZM346.816 94.8695V89.4775H347.568V94.8695H346.816ZM344.928 90.0055V89.3175H349.448V90.0055H344.928ZM350.921 94.9495C350.542 94.9495 350.201 94.8642 349.897 94.6935C349.593 94.5175 349.353 94.2802 349.177 93.9815C349.001 93.6828 348.913 93.3442 348.913 92.9655C348.913 92.5922 348.998 92.2562 349.169 91.9575C349.345 91.6588 349.579 91.4242 349.873 91.2535C350.171 91.0775 350.505 90.9895 350.873 90.9895C351.225 90.9895 351.534 91.0695 351.801 91.2295C352.073 91.3895 352.283 91.6108 352.433 91.8935C352.587 92.1762 352.665 92.4962 352.665 92.8535C352.665 92.9068 352.662 92.9655 352.657 93.0295C352.651 93.0882 352.641 93.1575 352.625 93.2375H349.417V92.6375H352.241L351.977 92.8695C351.977 92.6135 351.931 92.3975 351.841 92.2215C351.75 92.0402 351.622 91.9015 351.457 91.8055C351.291 91.7042 351.091 91.6535 350.857 91.6535C350.611 91.6535 350.395 91.7068 350.209 91.8135C350.022 91.9202 349.878 92.0695 349.777 92.2615C349.675 92.4535 349.625 92.6802 349.625 92.9415C349.625 93.2082 349.678 93.4428 349.785 93.6455C349.891 93.8428 350.043 93.9975 350.241 94.1095C350.438 94.2162 350.665 94.2695 350.921 94.2695C351.134 94.2695 351.329 94.2322 351.505 94.1575C351.686 94.0828 351.841 93.9708 351.969 93.8215L352.433 94.2935C352.251 94.5068 352.027 94.6695 351.761 94.7815C351.499 94.8935 351.219 94.9495 350.921 94.9495ZM353.45 94.8695V91.0695H354.17V94.8695H353.45ZM356.018 94.8695V92.5735C356.018 92.2908 355.93 92.0695 355.754 91.9095C355.583 91.7442 355.367 91.6615 355.106 91.6615C354.93 91.6615 354.773 91.6988 354.634 91.7735C354.495 91.8482 354.383 91.9522 354.298 92.0855C354.213 92.2188 354.17 92.3788 354.17 92.5655L353.874 92.4215C353.874 92.1335 353.935 91.8828 354.058 91.6695C354.186 91.4562 354.359 91.2908 354.578 91.1735C354.797 91.0508 355.042 90.9895 355.314 90.9895C355.581 90.9895 355.821 91.0482 356.034 91.1655C356.253 91.2828 356.423 91.4482 356.546 91.6615C356.674 91.8748 356.738 92.1282 356.738 92.4215V94.8695H356.018ZM358.586 94.8695V92.5735C358.586 92.2908 358.498 92.0695 358.322 91.9095C358.151 91.7442 357.938 91.6615 357.682 91.6615C357.506 91.6615 357.346 91.6988 357.202 91.7735C357.063 91.8482 356.951 91.9522 356.866 92.0855C356.781 92.2188 356.738 92.3788 356.738 92.5655L356.33 92.4215C356.346 92.1282 356.423 91.8775 356.562 91.6695C356.706 91.4562 356.89 91.2908 357.114 91.1735C357.338 91.0508 357.583 90.9895 357.85 90.9895C358.127 90.9895 358.375 91.0482 358.594 91.1655C358.813 91.2828 358.986 91.4482 359.114 91.6615C359.247 91.8748 359.314 92.1308 359.314 92.4295V94.8695H358.586ZM362.294 94.9495C362.006 94.9495 361.744 94.8908 361.51 94.7735C361.28 94.6508 361.096 94.4828 360.958 94.2695C360.819 94.0562 360.742 93.8135 360.726 93.5415V92.3975C360.742 92.1202 360.819 91.8775 360.958 91.6695C361.102 91.4562 361.288 91.2908 361.518 91.1735C361.752 91.0508 362.011 90.9895 362.294 90.9895C362.64 90.9895 362.952 91.0775 363.23 91.2535C363.512 91.4295 363.734 91.6668 363.894 91.9655C364.054 92.2642 364.134 92.6002 364.134 92.9735C364.134 93.3468 364.054 93.6828 363.894 93.9815C363.734 94.2802 363.512 94.5175 363.23 94.6935C362.952 94.8642 362.64 94.9495 362.294 94.9495ZM360.294 96.4615V91.0695H361.014V92.0695L360.878 92.9895L361.014 93.9175V96.4615H360.294ZM362.174 94.2695C362.414 94.2695 362.624 94.2135 362.806 94.1015C362.987 93.9895 363.131 93.8375 363.238 93.6455C363.344 93.4482 363.398 93.2215 363.398 92.9655C363.398 92.7148 363.344 92.4908 363.238 92.2935C363.131 92.0962 362.987 91.9442 362.806 91.8375C362.624 91.7255 362.416 91.6695 362.182 91.6695C361.942 91.6695 361.731 91.7255 361.55 91.8375C361.368 91.9442 361.227 92.0962 361.126 92.2935C361.024 92.4908 360.974 92.7175 360.974 92.9735C360.974 93.2242 361.022 93.4482 361.118 93.6455C361.219 93.8375 361.36 93.9895 361.542 94.1015C361.728 94.2135 361.939 94.2695 362.174 94.2695ZM364.95 94.8695V89.1575H365.67V94.8695H364.95ZM368.339 94.9495C367.993 94.9495 367.678 94.8642 367.395 94.6935C367.113 94.5175 366.889 94.2802 366.723 93.9815C366.563 93.6828 366.483 93.3468 366.483 92.9735C366.483 92.6002 366.563 92.2642 366.723 91.9655C366.889 91.6668 367.11 91.4295 367.387 91.2535C367.67 91.0775 367.987 90.9895 368.339 90.9895C368.627 90.9895 368.883 91.0508 369.107 91.1735C369.337 91.2908 369.521 91.4562 369.659 91.6695C369.798 91.8775 369.875 92.1202 369.891 92.3975V93.5415C369.875 93.8135 369.798 94.0562 369.659 94.2695C369.526 94.4828 369.345 94.6508 369.115 94.7735C368.891 94.8908 368.633 94.9495 368.339 94.9495ZM368.459 94.2695C368.817 94.2695 369.105 94.1495 369.323 93.9095C369.542 93.6642 369.651 93.3522 369.651 92.9735C369.651 92.7122 369.601 92.4855 369.499 92.2935C369.403 92.0962 369.265 91.9442 369.083 91.8375C368.902 91.7255 368.691 91.6695 368.451 91.6695C368.211 91.6695 367.998 91.7255 367.811 91.8375C367.63 91.9495 367.486 92.1042 367.379 92.3015C367.278 92.4935 367.227 92.7148 367.227 92.9655C367.227 93.2215 367.278 93.4482 367.379 93.6455C367.486 93.8375 367.633 93.9895 367.819 94.1015C368.006 94.2135 368.219 94.2695 368.459 94.2695ZM369.603 94.8695V93.8455L369.739 92.9175L369.603 91.9975V91.0695H370.331V94.8695H369.603ZM371.948 94.8695V89.4775H372.668V94.8695H371.948ZM371.012 91.7255V91.0695H373.604V91.7255H371.012ZM375.952 94.9495C375.573 94.9495 375.232 94.8642 374.928 94.6935C374.624 94.5175 374.384 94.2802 374.208 93.9815C374.032 93.6828 373.944 93.3442 373.944 92.9655C373.944 92.5922 374.029 92.2562 374.2 91.9575C374.376 91.6588 374.611 91.4242 374.904 91.2535C375.203 91.0775 375.536 90.9895 375.904 90.9895C376.256 90.9895 376.565 91.0695 376.832 91.2295C377.104 91.3895 377.315 91.6108 377.464 91.8935C377.619 92.1762 377.696 92.4962 377.696 92.8535C377.696 92.9068 377.693 92.9655 377.688 93.0295C377.683 93.0882 377.672 93.1575 377.656 93.2375H374.448V92.6375H377.272L377.008 92.8695C377.008 92.6135 376.963 92.3975 376.872 92.2215C376.781 92.0402 376.653 91.9015 376.488 91.8055C376.323 91.7042 376.123 91.6535 375.888 91.6535C375.643 91.6535 375.427 91.7068 375.24 91.8135C375.053 91.9202 374.909 92.0695 374.808 92.2615C374.707 92.4535 374.656 92.6802 374.656 92.9415C374.656 93.2082 374.709 93.4428 374.816 93.6455C374.923 93.8428 375.075 93.9975 375.272 94.1095C375.469 94.2162 375.696 94.2695 375.952 94.2695C376.165 94.2695 376.36 94.2322 376.536 94.1575C376.717 94.0828 376.872 93.9708 377 93.8215L377.464 94.2935C377.283 94.5068 377.059 94.6695 376.792 94.7815C376.531 94.8935 376.251 94.9495 375.952 94.9495Z" fill="white"/>
<rect x="39.5652" y="135.478" width="81.7391" height="114.783" rx="3.04348" fill="white"/>
<rect x="39.5652" y="135.478" width="81.7391" height="114.783" rx="3.04348" stroke="#D5D9DC" stroke-width="0.869565"/>
<rect x="58.6956" y="148.239" width="43.4783" height="43.4783" rx="21.7391" fill="#E9ECFF"/>
<path d="M81.1594 169.254H79.7101V171.427H77.5362V172.877H79.7101V175.051H81.1594V172.877H83.3333V171.427H81.1594V169.254ZM81.884 162.732H76.0869C75.2898 162.732 74.6377 163.384 74.6377 164.181V175.775C74.6377 176.572 75.2826 177.225 76.0797 177.225H84.7826C85.5797 177.225 86.2319 176.572 86.2319 175.775V167.08L81.884 162.732ZM84.7826 175.775H76.0869V164.181H81.1594V167.804H84.7826V175.775Z" fill="#1A237E"/>
<path d="M50.8783 209.5C50.4551 209.5 50.058 209.422 49.687 209.265C49.3217 209.103 49 208.88 48.7217 208.596C48.4493 208.312 48.2348 207.981 48.0783 207.604C47.9217 207.228 47.8435 206.822 47.8435 206.387C47.8435 205.952 47.9217 205.549 48.0783 205.178C48.2348 204.801 48.4522 204.471 48.7304 204.187C49.0087 203.903 49.3333 203.683 49.7043 203.526C50.0812 203.37 50.4899 203.291 50.9304 203.291C51.4116 203.291 51.8551 203.384 52.2609 203.57C52.6667 203.755 53.0058 204.022 53.2783 204.37L52.713 204.935C52.5217 204.657 52.2696 204.445 51.9565 204.3C51.6435 204.149 51.3015 204.074 50.9304 204.074C50.4899 204.074 50.0986 204.173 49.7565 204.37C49.4203 204.567 49.1565 204.839 48.9652 205.187C48.7797 205.535 48.687 205.935 48.687 206.387C48.687 206.845 48.7826 207.248 48.9739 207.596C49.1652 207.944 49.4232 208.216 49.7478 208.413C50.0725 208.61 50.4435 208.709 50.8609 208.709C51.2841 208.709 51.6493 208.628 51.9565 208.465C52.2696 208.303 52.5101 208.065 52.6783 207.752C52.8464 207.433 52.9304 207.045 52.9304 206.587L53.4261 206.944H50.8174V206.196H53.7739V206.317C53.7739 207.019 53.6493 207.607 53.4 208.083C53.1565 208.552 52.8145 208.906 52.3739 209.144C51.9391 209.381 51.4406 209.5 50.8783 209.5ZM56.6473 209.5C56.2357 209.5 55.8647 209.407 55.5342 209.222C55.2038 209.03 54.9429 208.773 54.7516 208.448C54.5603 208.123 54.4647 207.755 54.4647 207.344C54.4647 206.938 54.5574 206.573 54.7429 206.248C54.9342 205.923 55.1893 205.668 55.5082 205.483C55.8328 205.291 56.1951 205.196 56.5951 205.196C56.9777 205.196 57.314 205.283 57.6038 205.457C57.8995 205.63 58.1284 205.871 58.2908 206.178C58.4589 206.486 58.5429 206.833 58.5429 207.222C58.5429 207.28 58.54 207.344 58.5342 207.413C58.5284 207.477 58.5168 207.552 58.4995 207.639H55.0125V206.987H58.0821L57.7951 207.239C57.7951 206.961 57.7458 206.726 57.6473 206.535C57.5487 206.338 57.4096 206.187 57.2299 206.083C57.0502 205.973 56.8328 205.917 56.5777 205.917C56.3111 205.917 56.0763 205.975 55.8734 206.091C55.6705 206.207 55.514 206.37 55.4038 206.578C55.2937 206.787 55.2386 207.033 55.2386 207.317C55.2386 207.607 55.2966 207.862 55.4125 208.083C55.5284 208.297 55.6937 208.465 55.9082 208.587C56.1226 208.703 56.369 208.761 56.6473 208.761C56.8792 208.761 57.0908 208.72 57.2821 208.639C57.4792 208.558 57.6473 208.436 57.7864 208.274L58.2908 208.787C58.0937 209.019 57.8502 209.196 57.5603 209.317C57.2763 209.439 56.9719 209.5 56.6473 209.5ZM62.318 209.413V207.004C62.318 206.691 62.2195 206.433 62.0224 206.23C61.8253 206.028 61.5702 205.926 61.2571 205.926C61.0484 205.926 60.8629 205.973 60.7006 206.065C60.5383 206.158 60.4108 206.286 60.318 206.448C60.2253 206.61 60.1789 206.796 60.1789 207.004L59.8571 206.822C59.8571 206.509 59.9267 206.23 60.0658 205.987C60.205 205.744 60.3992 205.552 60.6484 205.413C60.8977 205.268 61.1789 205.196 61.4919 205.196C61.805 205.196 62.0803 205.274 62.318 205.43C62.5615 205.587 62.7528 205.793 62.8919 206.048C63.031 206.297 63.1006 206.564 63.1006 206.848V209.413H62.318ZM59.3963 209.413V205.283H60.1789V209.413H59.3963ZM66.0732 209.5C65.6616 209.5 65.2906 209.407 64.9602 209.222C64.6298 209.03 64.3689 208.773 64.1776 208.448C63.9863 208.123 63.8906 207.755 63.8906 207.344C63.8906 206.938 63.9834 206.573 64.1689 206.248C64.3602 205.923 64.6153 205.668 64.9341 205.483C65.2587 205.291 65.6211 205.196 66.0211 205.196C66.4037 205.196 66.7399 205.283 67.0298 205.457C67.3254 205.63 67.5544 205.871 67.7167 206.178C67.8848 206.486 67.9689 206.833 67.9689 207.222C67.9689 207.28 67.966 207.344 67.9602 207.413C67.9544 207.477 67.9428 207.552 67.9254 207.639H64.4385V206.987H67.508L67.2211 207.239C67.2211 206.961 67.1718 206.726 67.0732 206.535C66.9747 206.338 66.8356 206.187 66.6558 206.083C66.4761 205.973 66.2587 205.917 66.0037 205.917C65.737 205.917 65.5022 205.975 65.2993 206.091C65.0964 206.207 64.9399 206.37 64.8298 206.578C64.7196 206.787 64.6645 207.033 64.6645 207.317C64.6645 207.607 64.7225 207.862 64.8385 208.083C64.9544 208.297 65.1196 208.465 65.3341 208.587C65.5486 208.703 65.795 208.761 66.0732 208.761C66.3051 208.761 66.5167 208.72 66.708 208.639C66.9051 208.558 67.0732 208.436 67.2124 208.274L67.7167 208.787C67.5196 209.019 67.2761 209.196 66.9863 209.317C66.7022 209.439 66.3979 209.5 66.0732 209.5ZM68.8222 209.413V205.283H69.6048V209.413H68.8222ZM69.6048 207.057L69.3092 206.926C69.3092 206.399 69.4309 205.978 69.6744 205.665C69.9179 205.352 70.2686 205.196 70.7266 205.196C70.9353 205.196 71.1237 205.233 71.2918 205.309C71.4599 205.378 71.6164 205.497 71.7613 205.665L71.2483 206.196C71.1613 206.103 71.0657 206.036 70.9613 205.996C70.857 205.955 70.7353 205.935 70.5961 205.935C70.3063 205.935 70.0686 206.028 69.8831 206.213C69.6976 206.399 69.6048 206.68 69.6048 207.057ZM73.933 209.5C73.5562 209.5 73.2142 209.407 72.9069 209.222C72.5997 209.03 72.3562 208.773 72.1765 208.448C72.0026 208.123 71.9156 207.758 71.9156 207.352C71.9156 206.946 72.0026 206.581 72.1765 206.257C72.3562 205.932 72.5968 205.674 72.8982 205.483C73.2055 205.291 73.5504 205.196 73.933 205.196C74.2461 205.196 74.5243 205.262 74.7678 205.396C75.0171 205.523 75.2171 205.703 75.3678 205.935C75.5185 206.161 75.6026 206.425 75.62 206.726V207.97C75.6026 208.265 75.5185 208.529 75.3678 208.761C75.2229 208.993 75.0258 209.175 74.7765 209.309C74.533 209.436 74.2519 209.5 73.933 209.5ZM74.0635 208.761C74.4519 208.761 74.7649 208.63 75.0026 208.37C75.2403 208.103 75.3591 207.764 75.3591 207.352C75.3591 207.068 75.304 206.822 75.1939 206.613C75.0895 206.399 74.9388 206.233 74.7417 206.117C74.5446 205.996 74.3156 205.935 74.0548 205.935C73.7939 205.935 73.562 205.996 73.3591 206.117C73.162 206.239 73.0055 206.407 72.8895 206.622C72.7794 206.83 72.7243 207.071 72.7243 207.344C72.7243 207.622 72.7794 207.868 72.8895 208.083C73.0055 208.291 73.1649 208.457 73.3678 208.578C73.5707 208.7 73.8026 208.761 74.0635 208.761ZM75.3069 209.413V208.3L75.4548 207.291L75.3069 206.291V205.283H76.0982V209.413H75.3069ZM77.8554 209.413V203.552H78.638V209.413H77.8554ZM76.838 205.996V205.283H79.6554V205.996H76.838ZM82.2077 209.5C81.7961 209.5 81.4251 209.407 81.0947 209.222C80.7643 209.03 80.5034 208.773 80.3121 208.448C80.1208 208.123 80.0251 207.755 80.0251 207.344C80.0251 206.938 80.1179 206.573 80.3034 206.248C80.4947 205.923 80.7498 205.668 81.0686 205.483C81.3933 205.291 81.7556 205.196 82.1556 205.196C82.5382 205.196 82.8744 205.283 83.1643 205.457C83.4599 205.63 83.6889 205.871 83.8512 206.178C84.0193 206.486 84.1034 206.833 84.1034 207.222C84.1034 207.28 84.1005 207.344 84.0947 207.413C84.0889 207.477 84.0773 207.552 84.0599 207.639H80.573V206.987H83.6425L83.3556 207.239C83.3556 206.961 83.3063 206.726 83.2077 206.535C83.1092 206.338 82.9701 206.187 82.7904 206.083C82.6106 205.973 82.3933 205.917 82.1382 205.917C81.8715 205.917 81.6367 205.975 81.4338 206.091C81.2309 206.207 81.0744 206.37 80.9643 206.578C80.8541 206.787 80.799 207.033 80.799 207.317C80.799 207.607 80.857 207.862 80.973 208.083C81.0889 208.297 81.2541 208.465 81.4686 208.587C81.6831 208.703 81.9295 208.761 82.2077 208.761C82.4396 208.761 82.6512 208.72 82.8425 208.639C83.0396 208.558 83.2077 208.436 83.3469 208.274L83.8512 208.787C83.6541 209.019 83.4106 209.196 83.1208 209.317C82.8367 209.439 82.5324 209.5 82.2077 209.5ZM86.9046 209.413V203.378H87.722V209.413H86.9046ZM91.9291 209.413V207.004C91.9291 206.691 91.8305 206.433 91.6334 206.23C91.4363 206.028 91.1813 205.926 90.8682 205.926C90.6595 205.926 90.474 205.973 90.3117 206.065C90.1494 206.158 90.0218 206.286 89.9291 206.448C89.8363 206.61 89.7899 206.796 89.7899 207.004L89.4682 206.822C89.4682 206.509 89.5378 206.23 89.6769 205.987C89.816 205.744 90.0102 205.552 90.2595 205.413C90.5088 205.268 90.7899 205.196 91.103 205.196C91.416 205.196 91.6914 205.274 91.9291 205.43C92.1726 205.587 92.3639 205.793 92.503 206.048C92.6421 206.297 92.7117 206.564 92.7117 206.848V209.413H91.9291ZM89.0073 209.413V205.283H89.7899V209.413H89.0073ZM95.1887 209.413L93.293 205.283H94.1626L95.6843 208.77H95.18L96.7104 205.283H97.5452L95.6495 209.413H95.1887ZM99.9381 209.5C99.5323 209.5 99.1671 209.404 98.8425 209.213C98.5178 209.022 98.2599 208.764 98.0685 208.439C97.8772 208.109 97.7816 207.741 97.7816 207.335C97.7816 206.935 97.8772 206.575 98.0685 206.257C98.2599 205.932 98.5178 205.674 98.8425 205.483C99.1671 205.291 99.5323 205.196 99.9381 205.196C100.338 205.196 100.7 205.291 101.025 205.483C101.356 205.668 101.616 205.923 101.808 206.248C101.999 206.573 102.095 206.935 102.095 207.335C102.095 207.741 101.999 208.109 101.808 208.439C101.616 208.764 101.356 209.022 101.025 209.213C100.7 209.404 100.338 209.5 99.9381 209.5ZM99.9381 208.744C100.199 208.744 100.431 208.683 100.634 208.561C100.837 208.439 100.996 208.274 101.112 208.065C101.228 207.851 101.286 207.607 101.286 207.335C101.286 207.068 101.225 206.83 101.103 206.622C100.987 206.413 100.828 206.251 100.625 206.135C100.428 206.013 100.199 205.952 99.9381 205.952C99.6772 205.952 99.4454 206.013 99.2425 206.135C99.0396 206.251 98.8801 206.413 98.7642 206.622C98.6483 206.83 98.5903 207.068 98.5903 207.335C98.5903 207.607 98.6483 207.851 98.7642 208.065C98.8801 208.274 99.0396 208.439 99.2425 208.561C99.4454 208.683 99.6772 208.744 99.9381 208.744ZM102.985 209.413V205.283H103.768V209.413H102.985ZM103.376 204.457C103.232 204.457 103.113 204.41 103.02 204.317C102.927 204.219 102.881 204.097 102.881 203.952C102.881 203.813 102.927 203.697 103.02 203.604C103.113 203.506 103.232 203.457 103.376 203.457C103.521 203.457 103.64 203.506 103.733 203.604C103.826 203.697 103.872 203.813 103.872 203.952C103.872 204.097 103.826 204.219 103.733 204.317C103.64 204.41 103.521 204.457 103.376 204.457ZM106.808 209.5C106.402 209.5 106.034 209.404 105.704 209.213C105.379 209.022 105.121 208.764 104.93 208.439C104.744 208.109 104.651 207.744 104.651 207.344C104.651 206.938 104.744 206.573 104.93 206.248C105.121 205.923 105.379 205.668 105.704 205.483C106.034 205.291 106.402 205.196 106.808 205.196C107.127 205.196 107.423 205.257 107.695 205.378C107.967 205.494 108.202 205.665 108.399 205.891L107.878 206.413C107.75 206.262 107.594 206.149 107.408 206.074C107.228 205.993 107.028 205.952 106.808 205.952C106.547 205.952 106.315 206.013 106.112 206.135C105.909 206.251 105.75 206.413 105.634 206.622C105.518 206.83 105.46 207.071 105.46 207.344C105.46 207.616 105.518 207.857 105.634 208.065C105.75 208.274 105.909 208.439 106.112 208.561C106.315 208.683 106.547 208.744 106.808 208.744C107.028 208.744 107.228 208.706 107.408 208.63C107.594 208.549 107.753 208.433 107.886 208.283L108.399 208.804C108.208 209.025 107.973 209.196 107.695 209.317C107.423 209.439 107.127 209.5 106.808 209.5ZM111.004 209.5C110.592 209.5 110.221 209.407 109.891 209.222C109.56 209.03 109.299 208.773 109.108 208.448C108.917 208.123 108.821 207.755 108.821 207.344C108.821 206.938 108.914 206.573 109.099 206.248C109.291 205.923 109.546 205.668 109.864 205.483C110.189 205.291 110.551 205.196 110.951 205.196C111.334 205.196 111.67 205.283 111.96 205.457C112.256 205.63 112.485 205.871 112.647 206.178C112.815 206.486 112.899 206.833 112.899 207.222C112.899 207.28 112.896 207.344 112.891 207.413C112.885 207.477 112.873 207.552 112.856 207.639H109.369V206.987H112.438L112.151 207.239C112.151 206.961 112.102 206.726 112.004 206.535C111.905 206.338 111.766 206.187 111.586 206.083C111.406 205.973 111.189 205.917 110.934 205.917C110.667 205.917 110.433 205.975 110.23 206.091C110.027 206.207 109.87 206.37 109.76 206.578C109.65 206.787 109.595 207.033 109.595 207.317C109.595 207.607 109.653 207.862 109.769 208.083C109.885 208.297 110.05 208.465 110.264 208.587C110.479 208.703 110.725 208.761 111.004 208.761C111.235 208.761 111.447 208.72 111.638 208.639C111.835 208.558 112.004 208.436 112.143 208.274L112.647 208.787C112.45 209.019 112.206 209.196 111.917 209.317C111.633 209.439 111.328 209.5 111.004 209.5Z" fill="black"/>
<rect x="43.913" y="214.891" width="73.0435" height="5.21739" rx="2.6087" fill="#F5F5F5"/>
<rect x="43.913" y="223.587" width="73.0435" height="5.21739" rx="2.6087" fill="#F5F5F5"/>
<rect x="54.3478" y="232.283" width="52.1739" height="5.21739" rx="2.6087" fill="#F5F5F5"/>
<rect x="132.609" y="135.478" width="81.7391" height="114.783" rx="3.04348" fill="white"/>
<rect x="132.609" y="135.478" width="81.7391" height="114.783" rx="3.04348" stroke="#D5D9DC" stroke-width="0.869565"/>
<rect x="151.739" y="148.239" width="43.4783" height="43.4783" rx="21.7391" fill="#E9ECFF"/>
<path d="M173.478 165.993C176.225 165.993 178.674 167.536 179.87 169.978C178.674 172.42 176.225 173.964 173.478 173.964C170.732 173.964 168.283 172.42 167.087 169.978C168.283 167.536 170.732 165.993 173.478 165.993ZM173.478 164.543C169.855 164.543 166.761 166.797 165.507 169.978C166.761 173.159 169.855 175.413 173.478 175.413C177.101 175.413 180.196 173.159 181.449 169.978C180.196 166.797 177.101 164.543 173.478 164.543ZM173.478 168.167C174.478 168.167 175.29 168.978 175.29 169.978C175.29 170.978 174.478 171.79 173.478 171.79C172.478 171.79 171.667 170.978 171.667 169.978C171.667 168.978 172.478 168.167 173.478 168.167ZM173.478 166.717C171.681 166.717 170.217 168.181 170.217 169.978C170.217 171.775 171.681 173.239 173.478 173.239C175.275 173.239 176.739 171.775 176.739 169.978C176.739 168.181 175.275 166.717 173.478 166.717Z" fill="#1A237E"/>
<path d="M145.165 209.413L142.748 203.378H143.635L145.626 208.483H145.304L147.313 203.378H148.191L145.757 209.413H145.165ZM149.048 209.413V205.283H149.83V209.413H149.048ZM149.439 204.457C149.294 204.457 149.175 204.41 149.082 204.317C148.99 204.219 148.943 204.097 148.943 203.952C148.943 203.813 148.99 203.697 149.082 203.604C149.175 203.506 149.294 203.457 149.439 203.457C149.584 203.457 149.703 203.506 149.795 203.604C149.888 203.697 149.935 203.813 149.935 203.952C149.935 204.097 149.888 204.219 149.795 204.317C149.703 204.41 149.584 204.457 149.439 204.457ZM152.897 209.5C152.485 209.5 152.114 209.407 151.784 209.222C151.453 209.03 151.192 208.773 151.001 208.448C150.81 208.123 150.714 207.755 150.714 207.344C150.714 206.938 150.807 206.573 150.992 206.248C151.184 205.923 151.439 205.668 151.757 205.483C152.082 205.291 152.444 205.196 152.844 205.196C153.227 205.196 153.563 205.283 153.853 205.457C154.149 205.63 154.378 205.871 154.54 206.178C154.708 206.486 154.792 206.833 154.792 207.222C154.792 207.28 154.789 207.344 154.784 207.413C154.778 207.477 154.766 207.552 154.749 207.639H151.262V206.987H154.331L154.044 207.239C154.044 206.961 153.995 206.726 153.897 206.535C153.798 206.338 153.659 206.187 153.479 206.083C153.3 205.973 153.082 205.917 152.827 205.917C152.56 205.917 152.326 205.975 152.123 206.091C151.92 206.207 151.763 206.37 151.653 206.578C151.543 206.787 151.488 207.033 151.488 207.317C151.488 207.607 151.546 207.862 151.662 208.083C151.778 208.297 151.943 208.465 152.157 208.587C152.372 208.703 152.618 208.761 152.897 208.761C153.128 208.761 153.34 208.72 153.531 208.639C153.728 208.558 153.897 208.436 154.036 208.274L154.54 208.787C154.343 209.019 154.1 209.196 153.81 209.317C153.526 209.439 153.221 209.5 152.897 209.5ZM156.777 209.413L155.142 205.283H155.96L157.142 208.5H156.882L158.056 205.283H158.508L159.682 208.5H159.421L160.603 205.283H161.421L159.795 209.413H159.334L158.142 206.291H158.429L157.229 209.413H156.777ZM162.116 207.57V206.83H164.977V207.57H162.116ZM165.472 209.413L167.942 203.378H168.533L170.994 209.413H170.107L168.081 204.309H168.385L166.342 209.413H165.472ZM166.646 208.048V207.335H169.82V208.048H166.646ZM171.831 209.413V203.204H172.614V209.413H171.831ZM173.759 209.413V203.204H174.541V209.413H173.759ZM177.634 209.413V203.378H178.452V209.413H177.634ZM182.659 209.413V207.004C182.659 206.691 182.56 206.433 182.363 206.23C182.166 206.028 181.911 205.926 181.598 205.926C181.389 205.926 181.204 205.973 181.041 206.065C180.879 206.158 180.751 206.286 180.659 206.448C180.566 206.61 180.52 206.796 180.52 207.004L180.198 206.822C180.198 206.509 180.267 206.23 180.407 205.987C180.546 205.744 180.74 205.552 180.989 205.413C181.238 205.268 181.52 205.196 181.833 205.196C182.146 205.196 182.421 205.274 182.659 205.43C182.902 205.587 183.093 205.793 183.233 206.048C183.372 206.297 183.441 206.564 183.441 206.848V209.413H182.659ZM179.737 209.413V205.283H180.52V209.413H179.737ZM185.918 209.413L184.023 205.283H184.892L186.414 208.77H185.91L187.44 205.283H188.275L186.379 209.413H185.918ZM190.668 209.5C190.262 209.5 189.897 209.404 189.572 209.213C189.247 209.022 188.989 208.764 188.798 208.439C188.607 208.109 188.511 207.741 188.511 207.335C188.511 206.935 188.607 206.575 188.798 206.257C188.989 205.932 189.247 205.674 189.572 205.483C189.897 205.291 190.262 205.196 190.668 205.196C191.068 205.196 191.43 205.291 191.755 205.483C192.085 205.668 192.346 205.923 192.537 206.248C192.729 206.573 192.824 206.935 192.824 207.335C192.824 207.741 192.729 208.109 192.537 208.439C192.346 208.764 192.085 209.022 191.755 209.213C191.43 209.404 191.068 209.5 190.668 209.5ZM190.668 208.744C190.929 208.744 191.16 208.683 191.363 208.561C191.566 208.439 191.726 208.274 191.842 208.065C191.958 207.851 192.016 207.607 192.016 207.335C192.016 207.068 191.955 206.83 191.833 206.622C191.717 206.413 191.558 206.251 191.355 206.135C191.158 206.013 190.929 205.952 190.668 205.952C190.407 205.952 190.175 206.013 189.972 206.135C189.769 206.251 189.61 206.413 189.494 206.622C189.378 206.83 189.32 207.068 189.32 207.335C189.32 207.607 189.378 207.851 189.494 208.065C189.61 208.274 189.769 208.439 189.972 208.561C190.175 208.683 190.407 208.744 190.668 208.744ZM193.715 209.413V205.283H194.497V209.413H193.715ZM194.106 204.457C193.961 204.457 193.842 204.41 193.75 204.317C193.657 204.219 193.61 204.097 193.61 203.952C193.61 203.813 193.657 203.697 193.75 203.604C193.842 203.506 193.961 203.457 194.106 203.457C194.251 203.457 194.37 203.506 194.463 203.604C194.555 203.697 194.602 203.813 194.602 203.952C194.602 204.097 194.555 204.219 194.463 204.317C194.37 204.41 194.251 204.457 194.106 204.457ZM197.538 209.5C197.132 209.5 196.764 209.404 196.433 209.213C196.109 209.022 195.851 208.764 195.659 208.439C195.474 208.109 195.381 207.744 195.381 207.344C195.381 206.938 195.474 206.573 195.659 206.248C195.851 205.923 196.109 205.668 196.433 205.483C196.764 205.291 197.132 205.196 197.538 205.196C197.856 205.196 198.152 205.257 198.425 205.378C198.697 205.494 198.932 205.665 199.129 205.891L198.607 206.413C198.48 206.262 198.323 206.149 198.138 206.074C197.958 205.993 197.758 205.952 197.538 205.952C197.277 205.952 197.045 206.013 196.842 206.135C196.639 206.251 196.48 206.413 196.364 206.622C196.248 206.83 196.19 207.071 196.19 207.344C196.19 207.616 196.248 207.857 196.364 208.065C196.48 208.274 196.639 208.439 196.842 208.561C197.045 208.683 197.277 208.744 197.538 208.744C197.758 208.744 197.958 208.706 198.138 208.63C198.323 208.549 198.483 208.433 198.616 208.283L199.129 208.804C198.938 209.025 198.703 209.196 198.425 209.317C198.152 209.439 197.856 209.5 197.538 209.5ZM201.733 209.5C201.322 209.5 200.951 209.407 200.62 209.222C200.29 209.03 200.029 208.773 199.838 208.448C199.646 208.123 199.551 207.755 199.551 207.344C199.551 206.938 199.643 206.573 199.829 206.248C200.02 205.923 200.275 205.668 200.594 205.483C200.919 205.291 201.281 205.196 201.681 205.196C202.064 205.196 202.4 205.283 202.69 205.457C202.985 205.63 203.214 205.871 203.377 206.178C203.545 206.486 203.629 206.833 203.629 207.222C203.629 207.28 203.626 207.344 203.62 207.413C203.614 207.477 203.603 207.552 203.585 207.639H200.098V206.987H203.168L202.881 207.239C202.881 206.961 202.832 206.726 202.733 206.535C202.635 206.338 202.496 206.187 202.316 206.083C202.136 205.973 201.919 205.917 201.664 205.917C201.397 205.917 201.162 205.975 200.959 206.091C200.756 206.207 200.6 206.37 200.49 206.578C200.38 206.787 200.325 207.033 200.325 207.317C200.325 207.607 200.383 207.862 200.498 208.083C200.614 208.297 200.78 208.465 200.994 208.587C201.209 208.703 201.455 208.761 201.733 208.761C201.965 208.761 202.177 208.72 202.368 208.639C202.565 208.558 202.733 208.436 202.872 208.274L203.377 208.787C203.18 209.019 202.936 209.196 202.646 209.317C202.362 209.439 202.058 209.5 201.733 209.5Z" fill="black"/>
<rect x="136.957" y="214.891" width="73.0435" height="5.21739" rx="2.6087" fill="#F5F5F5"/>
<rect x="136.957" y="223.587" width="73.0435" height="5.21739" rx="2.6087" fill="#F5F5F5"/>
<rect x="147.391" y="232.283" width="52.1739" height="5.21739" rx="2.6087" fill="#F5F5F5"/>
<rect x="225.652" y="135.478" width="81.7391" height="114.783" rx="3.04348" fill="white"/>
<rect x="225.652" y="135.478" width="81.7391" height="114.783" rx="3.04348" stroke="#D5D9DC" stroke-width="0.869565"/>
<rect x="244.783" y="148.239" width="43.4783" height="43.4783" rx="21.7391" fill="#E9ECFF"/>
<path d="M273.406 165.268V166.717H271.232V168.891H269.783V166.717H267.609V165.268H269.783V163.094H271.232V165.268H273.406ZM271.232 175.413H261.087V165.268H265.435V163.819H261.087C260.29 163.819 259.638 164.471 259.638 165.268V175.413C259.638 176.21 260.29 176.862 261.087 176.862H271.232C272.029 176.862 272.681 176.21 272.681 175.413V171.065H271.232V175.413ZM268.333 171.065V173.964H269.783V171.065H268.333ZM265.435 173.964H266.884V168.167H265.435V173.964ZM263.986 173.964V169.616H262.536V173.964H263.986Z" fill="#1A237E"/>
<path d="M239.235 209.413V203.378H240.052V209.413H239.235ZM241.337 209.413V205.283H242.12V209.413H241.337ZM244.129 209.413V206.917C244.129 206.61 244.033 206.37 243.842 206.196C243.656 206.016 243.422 205.926 243.137 205.926C242.946 205.926 242.775 205.967 242.624 206.048C242.474 206.129 242.352 206.242 242.259 206.387C242.166 206.532 242.12 206.706 242.12 206.909L241.798 206.752C241.798 206.439 241.865 206.167 241.998 205.935C242.137 205.703 242.326 205.523 242.564 205.396C242.801 205.262 243.068 205.196 243.364 205.196C243.653 205.196 243.914 205.259 244.146 205.387C244.384 205.515 244.569 205.694 244.703 205.926C244.842 206.158 244.911 206.433 244.911 206.752V209.413H244.129ZM246.92 209.413V206.917C246.92 206.61 246.824 206.37 246.633 206.196C246.448 206.016 246.216 205.926 245.937 205.926C245.746 205.926 245.572 205.967 245.416 206.048C245.265 206.129 245.143 206.242 245.051 206.387C244.958 206.532 244.911 206.706 244.911 206.909L244.468 206.752C244.485 206.433 244.569 206.161 244.72 205.935C244.877 205.703 245.077 205.523 245.32 205.396C245.564 205.262 245.83 205.196 246.12 205.196C246.422 205.196 246.691 205.259 246.929 205.387C247.166 205.515 247.355 205.694 247.494 205.926C247.639 206.158 247.711 206.436 247.711 206.761V209.413H246.92ZM250.95 209.5C250.637 209.5 250.353 209.436 250.098 209.309C249.849 209.175 249.649 208.993 249.498 208.761C249.347 208.529 249.263 208.265 249.246 207.97V206.726C249.263 206.425 249.347 206.161 249.498 205.935C249.655 205.703 249.858 205.523 250.107 205.396C250.362 205.262 250.643 205.196 250.95 205.196C251.327 205.196 251.666 205.291 251.968 205.483C252.275 205.674 252.515 205.932 252.689 206.257C252.863 206.581 252.95 206.946 252.95 207.352C252.95 207.758 252.863 208.123 252.689 208.448C252.515 208.773 252.275 209.03 251.968 209.222C251.666 209.407 251.327 209.5 250.95 209.5ZM248.776 211.144V205.283H249.559V206.37L249.411 207.37L249.559 208.378V211.144H248.776ZM250.82 208.761C251.081 208.761 251.31 208.7 251.507 208.578C251.704 208.457 251.86 208.291 251.976 208.083C252.092 207.868 252.15 207.622 252.15 207.344C252.15 207.071 252.092 206.828 251.976 206.613C251.86 206.399 251.704 206.233 251.507 206.117C251.31 205.996 251.084 205.935 250.829 205.935C250.568 205.935 250.339 205.996 250.142 206.117C249.944 206.233 249.791 206.399 249.681 206.613C249.571 206.828 249.515 207.074 249.515 207.352C249.515 207.625 249.568 207.868 249.672 208.083C249.782 208.291 249.936 208.457 250.133 208.578C250.336 208.7 250.565 208.761 250.82 208.761ZM255.724 209.5C255.319 209.5 254.953 209.404 254.629 209.213C254.304 209.022 254.046 208.764 253.855 208.439C253.664 208.109 253.568 207.741 253.568 207.335C253.568 206.935 253.664 206.575 253.855 206.257C254.046 205.932 254.304 205.674 254.629 205.483C254.953 205.291 255.319 205.196 255.724 205.196C256.124 205.196 256.487 205.291 256.811 205.483C257.142 205.668 257.403 205.923 257.594 206.248C257.785 206.573 257.881 206.935 257.881 207.335C257.881 207.741 257.785 208.109 257.594 208.439C257.403 208.764 257.142 209.022 256.811 209.213C256.487 209.404 256.124 209.5 255.724 209.5ZM255.724 208.744C255.985 208.744 256.217 208.683 256.42 208.561C256.623 208.439 256.782 208.274 256.898 208.065C257.014 207.851 257.072 207.607 257.072 207.335C257.072 207.068 257.011 206.83 256.89 206.622C256.774 206.413 256.614 206.251 256.411 206.135C256.214 206.013 255.985 205.952 255.724 205.952C255.464 205.952 255.232 206.013 255.029 206.135C254.826 206.251 254.666 206.413 254.551 206.622C254.435 206.83 254.377 207.068 254.377 207.335C254.377 207.607 254.435 207.851 254.551 208.065C254.666 208.274 254.826 208.439 255.029 208.561C255.232 208.683 255.464 208.744 255.724 208.744ZM258.763 209.413V205.283H259.545V209.413H258.763ZM259.545 207.057L259.25 206.926C259.25 206.399 259.371 205.978 259.615 205.665C259.858 205.352 260.209 205.196 260.667 205.196C260.876 205.196 261.064 205.233 261.232 205.309C261.4 205.378 261.557 205.497 261.702 205.665L261.189 206.196C261.102 206.103 261.006 206.036 260.902 205.996C260.798 205.955 260.676 205.935 260.537 205.935C260.247 205.935 260.009 206.028 259.824 206.213C259.638 206.399 259.545 206.68 259.545 207.057ZM262.871 209.413V203.552H263.653V209.413H262.871ZM261.853 205.996V205.283H264.671V205.996H261.853ZM267.385 209.413V203.378H268.203V209.413H267.385ZM271.281 209.413V203.378H272.098V209.413H271.281ZM267.942 206.665V205.917H271.481V206.665H267.942ZM273.394 209.413V205.283H274.177V209.413H273.394ZM273.786 204.457C273.641 204.457 273.522 204.41 273.429 204.317C273.336 204.219 273.29 204.097 273.29 203.952C273.29 203.813 273.336 203.697 273.429 203.604C273.522 203.506 273.641 203.457 273.786 203.457C273.931 203.457 274.049 203.506 274.142 203.604C274.235 203.697 274.281 203.813 274.281 203.952C274.281 204.097 274.235 204.219 274.142 204.317C274.049 204.41 273.931 204.457 273.786 204.457ZM276.643 209.5C276.412 209.5 276.191 209.471 275.983 209.413C275.78 209.349 275.591 209.262 275.417 209.152C275.243 209.036 275.093 208.9 274.965 208.744L275.469 208.239C275.62 208.425 275.794 208.564 275.991 208.657C276.188 208.744 276.409 208.787 276.652 208.787C276.896 208.787 277.084 208.746 277.217 208.665C277.351 208.578 277.417 208.459 277.417 208.309C277.417 208.158 277.362 208.042 277.252 207.961C277.148 207.874 277.012 207.804 276.843 207.752C276.675 207.694 276.496 207.639 276.304 207.587C276.119 207.529 275.942 207.457 275.774 207.37C275.606 207.283 275.467 207.164 275.356 207.013C275.252 206.862 275.2 206.662 275.2 206.413C275.2 206.164 275.261 205.949 275.383 205.77C275.504 205.584 275.672 205.442 275.887 205.344C276.107 205.245 276.371 205.196 276.678 205.196C277.003 205.196 277.29 205.254 277.539 205.37C277.794 205.48 278.003 205.648 278.165 205.874L277.661 206.378C277.545 206.228 277.4 206.112 277.226 206.03C277.058 205.949 276.867 205.909 276.652 205.909C276.426 205.909 276.252 205.949 276.13 206.03C276.014 206.106 275.956 206.213 275.956 206.352C275.956 206.491 276.009 206.599 276.113 206.674C276.217 206.749 276.354 206.813 276.522 206.865C276.696 206.917 276.875 206.973 277.061 207.03C277.246 207.083 277.423 207.155 277.591 207.248C277.759 207.341 277.896 207.465 278 207.622C278.11 207.778 278.165 207.984 278.165 208.239C278.165 208.628 278.026 208.935 277.748 209.161C277.475 209.387 277.107 209.5 276.643 209.5ZM279.676 209.413V203.552H280.459V209.413H279.676ZM278.659 205.996V205.283H281.476V205.996H278.659ZM284.002 209.5C283.597 209.5 283.231 209.404 282.907 209.213C282.582 209.022 282.324 208.764 282.133 208.439C281.941 208.109 281.846 207.741 281.846 207.335C281.846 206.935 281.941 206.575 282.133 206.257C282.324 205.932 282.582 205.674 282.907 205.483C283.231 205.291 283.597 205.196 284.002 205.196C284.402 205.196 284.765 205.291 285.089 205.483C285.42 205.668 285.681 205.923 285.872 206.248C286.063 206.573 286.159 206.935 286.159 207.335C286.159 207.741 286.063 208.109 285.872 208.439C285.681 208.764 285.42 209.022 285.089 209.213C284.765 209.404 284.402 209.5 284.002 209.5ZM284.002 208.744C284.263 208.744 284.495 208.683 284.698 208.561C284.901 208.439 285.06 208.274 285.176 208.065C285.292 207.851 285.35 207.607 285.35 207.335C285.35 207.068 285.289 206.83 285.168 206.622C285.052 206.413 284.892 206.251 284.689 206.135C284.492 206.013 284.263 205.952 284.002 205.952C283.741 205.952 283.51 206.013 283.307 206.135C283.104 206.251 282.944 206.413 282.828 206.622C282.712 206.83 282.654 207.068 282.654 207.335C282.654 207.607 282.712 207.851 282.828 208.065C282.944 208.274 283.104 208.439 283.307 208.561C283.51 208.683 283.741 208.744 284.002 208.744ZM287.041 209.413V205.283H287.823V209.413H287.041ZM287.823 207.057L287.528 206.926C287.528 206.399 287.649 205.978 287.893 205.665C288.136 205.352 288.487 205.196 288.945 205.196C289.154 205.196 289.342 205.233 289.51 205.309C289.678 205.378 289.835 205.497 289.98 205.665L289.467 206.196C289.38 206.103 289.284 206.036 289.18 205.996C289.075 205.955 288.954 205.935 288.815 205.935C288.525 205.935 288.287 206.028 288.101 206.213C287.916 206.399 287.823 206.68 287.823 207.057ZM291.811 209.448L290.02 205.283H290.889L292.22 208.544H291.941L293.341 205.283H294.211L292.28 209.448H291.811ZM290.628 211.144L291.846 208.648L292.28 209.448L291.498 211.144H290.628Z" fill="black"/>
<rect x="230" y="214.891" width="73.0435" height="5.21739" rx="2.6087" fill="#F5F5F5"/>
<rect x="230" y="223.587" width="73.0435" height="5.21739" rx="2.6087" fill="#F5F5F5"/>
<rect x="240.435" y="232.283" width="52.1739" height="5.21739" rx="2.6087" fill="#F5F5F5"/>
<rect x="318.696" y="135.478" width="81.7391" height="114.783" rx="3.04348" fill="white"/>
<rect x="318.696" y="135.478" width="81.7391" height="114.783" rx="3.04348" stroke="#D5D9DC" stroke-width="0.869565"/>
<rect x="337.826" y="148.239" width="43.4783" height="43.4783" rx="21.7391" fill="#E9ECFF"/>
<path d="M359.507 168.167H360.956V165.993H363.13V164.543H360.956V162.37H359.507V164.543H357.333V165.993H359.507V168.167ZM356.609 174.688C355.812 174.688 355.167 175.341 355.167 176.138C355.167 176.935 355.812 177.587 356.609 177.587C357.406 177.587 358.058 176.935 358.058 176.138C358.058 175.341 357.406 174.688 356.609 174.688ZM363.855 174.688C363.058 174.688 362.413 175.341 362.413 176.138C362.413 176.935 363.058 177.587 363.855 177.587C364.652 177.587 365.304 176.935 365.304 176.138C365.304 175.341 364.652 174.688 363.855 174.688ZM357.406 171.065H362.804C363.348 171.065 363.826 170.768 364.072 170.319L366.87 165.239L365.609 164.543L362.804 169.616H357.717L354.63 163.094H352.261V164.543H353.71L356.319 170.043L355.341 171.812C354.812 172.783 355.507 173.964 356.609 173.964H365.304V172.514H356.609L357.406 171.065Z" fill="#1A237E"/>
<path d="M328.326 207.065V206.352H329.97C330.196 206.352 330.396 206.306 330.57 206.213C330.749 206.12 330.888 205.99 330.987 205.822C331.091 205.654 331.143 205.454 331.143 205.222C331.143 204.99 331.091 204.79 330.987 204.622C330.888 204.454 330.749 204.323 330.57 204.23C330.396 204.138 330.196 204.091 329.97 204.091H328.326V203.378H330.022C330.393 203.378 330.723 203.454 331.013 203.604C331.309 203.755 331.541 203.97 331.709 204.248C331.883 204.52 331.97 204.845 331.97 205.222C331.97 205.593 331.883 205.917 331.709 206.196C331.541 206.468 331.309 206.683 331.013 206.839C330.723 206.99 330.393 207.065 330.022 207.065H328.326ZM327.778 209.413V203.378H328.596V209.413H327.778ZM334.573 209.5C334.237 209.5 333.933 209.425 333.66 209.274C333.394 209.117 333.185 208.903 333.034 208.63C332.884 208.358 332.808 208.042 332.808 207.683V205.283H333.591V207.648C333.591 207.874 333.628 208.071 333.704 208.239C333.785 208.401 333.901 208.526 334.052 208.613C334.202 208.7 334.379 208.744 334.582 208.744C334.889 208.744 335.13 208.648 335.304 208.457C335.478 208.259 335.565 207.99 335.565 207.648V205.283H336.347V207.683C336.347 208.042 336.272 208.358 336.121 208.63C335.971 208.903 335.762 209.117 335.495 209.274C335.234 209.425 334.927 209.5 334.573 209.5ZM337.396 209.413V205.283H338.179V209.413H337.396ZM338.179 207.057L337.883 206.926C337.883 206.399 338.005 205.978 338.248 205.665C338.492 205.352 338.843 205.196 339.301 205.196C339.509 205.196 339.698 205.233 339.866 205.309C340.034 205.378 340.19 205.497 340.335 205.665L339.822 206.196C339.735 206.103 339.64 206.036 339.535 205.996C339.431 205.955 339.309 205.935 339.17 205.935C338.88 205.935 338.643 206.028 338.457 206.213C338.272 206.399 338.179 206.68 338.179 207.057ZM342.637 209.5C342.232 209.5 341.864 209.404 341.533 209.213C341.208 209.022 340.951 208.764 340.759 208.439C340.574 208.109 340.481 207.744 340.481 207.344C340.481 206.938 340.574 206.573 340.759 206.248C340.951 205.923 341.208 205.668 341.533 205.483C341.864 205.291 342.232 205.196 342.637 205.196C342.956 205.196 343.252 205.257 343.524 205.378C343.797 205.494 344.032 205.665 344.229 205.891L343.707 206.413C343.579 206.262 343.423 206.149 343.237 206.074C343.058 205.993 342.858 205.952 342.637 205.952C342.377 205.952 342.145 206.013 341.942 206.135C341.739 206.251 341.579 206.413 341.464 206.622C341.348 206.83 341.29 207.071 341.29 207.344C341.29 207.616 341.348 207.857 341.464 208.065C341.579 208.274 341.739 208.439 341.942 208.561C342.145 208.683 342.377 208.744 342.637 208.744C342.858 208.744 343.058 208.706 343.237 208.63C343.423 208.549 343.582 208.433 343.716 208.283L344.229 208.804C344.037 209.025 343.803 209.196 343.524 209.317C343.252 209.439 342.956 209.5 342.637 209.5ZM347.927 209.413V207.004C347.927 206.691 347.828 206.433 347.631 206.23C347.434 206.028 347.179 205.926 346.866 205.926C346.657 205.926 346.472 205.973 346.309 206.065C346.147 206.158 346.019 206.286 345.927 206.448C345.834 206.61 345.788 206.796 345.788 207.004L345.466 206.822C345.466 206.509 345.535 206.23 345.674 205.987C345.814 205.744 346.008 205.552 346.257 205.413C346.506 205.268 346.788 205.196 347.101 205.196C347.414 205.196 347.689 205.265 347.927 205.404C348.17 205.544 348.361 205.738 348.501 205.987C348.64 206.236 348.709 206.523 348.709 206.848V209.413H347.927ZM345.005 209.413V203.204H345.788V209.413H345.005ZM351.525 209.5C351.149 209.5 350.807 209.407 350.499 209.222C350.192 209.03 349.949 208.773 349.769 208.448C349.595 208.123 349.508 207.758 349.508 207.352C349.508 206.946 349.595 206.581 349.769 206.257C349.949 205.932 350.189 205.674 350.491 205.483C350.798 205.291 351.143 205.196 351.525 205.196C351.838 205.196 352.117 205.262 352.36 205.396C352.609 205.523 352.809 205.703 352.96 205.935C353.111 206.161 353.195 206.425 353.212 206.726V207.97C353.195 208.265 353.111 208.529 352.96 208.761C352.815 208.993 352.618 209.175 352.369 209.309C352.125 209.436 351.844 209.5 351.525 209.5ZM351.656 208.761C352.044 208.761 352.357 208.63 352.595 208.37C352.833 208.103 352.951 207.764 352.951 207.352C352.951 207.068 352.896 206.822 352.786 206.613C352.682 206.399 352.531 206.233 352.334 206.117C352.137 205.996 351.908 205.935 351.647 205.935C351.386 205.935 351.154 205.996 350.951 206.117C350.754 206.239 350.598 206.407 350.482 206.622C350.372 206.83 350.317 207.071 350.317 207.344C350.317 207.622 350.372 207.868 350.482 208.083C350.598 208.291 350.757 208.457 350.96 208.578C351.163 208.7 351.395 208.761 351.656 208.761ZM352.899 209.413V208.3L353.047 207.291L352.899 206.291V205.283H353.691V209.413H352.899ZM356.143 209.5C355.911 209.5 355.691 209.471 355.482 209.413C355.279 209.349 355.091 209.262 354.917 209.152C354.743 209.036 354.592 208.9 354.465 208.744L354.969 208.239C355.12 208.425 355.294 208.564 355.491 208.657C355.688 208.744 355.908 208.787 356.152 208.787C356.395 208.787 356.584 208.746 356.717 208.665C356.85 208.578 356.917 208.459 356.917 208.309C356.917 208.158 356.862 208.042 356.752 207.961C356.647 207.874 356.511 207.804 356.343 207.752C356.175 207.694 355.995 207.639 355.804 207.587C355.618 207.529 355.442 207.457 355.273 207.37C355.105 207.283 354.966 207.164 354.856 207.013C354.752 206.862 354.7 206.662 354.7 206.413C354.7 206.164 354.76 205.949 354.882 205.77C355.004 205.584 355.172 205.442 355.387 205.344C355.607 205.245 355.871 205.196 356.178 205.196C356.502 205.196 356.789 205.254 357.039 205.37C357.294 205.48 357.502 205.648 357.665 205.874L357.16 206.378C357.044 206.228 356.9 206.112 356.726 206.03C356.558 205.949 356.366 205.909 356.152 205.909C355.926 205.909 355.752 205.949 355.63 206.03C355.514 206.106 355.456 206.213 355.456 206.352C355.456 206.491 355.508 206.599 355.613 206.674C355.717 206.749 355.853 206.813 356.021 206.865C356.195 206.917 356.375 206.973 356.56 207.03C356.746 207.083 356.923 207.155 357.091 207.248C357.259 207.341 357.395 207.465 357.5 207.622C357.61 207.778 357.665 207.984 357.665 208.239C357.665 208.628 357.526 208.935 357.247 209.161C356.975 209.387 356.607 209.5 356.143 209.5ZM360.454 209.5C360.042 209.5 359.671 209.407 359.341 209.222C359.01 209.03 358.75 208.773 358.558 208.448C358.367 208.123 358.271 207.755 358.271 207.344C358.271 206.938 358.364 206.573 358.55 206.248C358.741 205.923 358.996 205.668 359.315 205.483C359.639 205.291 360.002 205.196 360.402 205.196C360.784 205.196 361.121 205.283 361.41 205.457C361.706 205.63 361.935 205.871 362.097 206.178C362.266 206.486 362.35 206.833 362.35 207.222C362.35 207.28 362.347 207.344 362.341 207.413C362.335 207.477 362.324 207.552 362.306 207.639H358.819V206.987H361.889L361.602 207.239C361.602 206.961 361.553 206.726 361.454 206.535C361.355 206.338 361.216 206.187 361.037 206.083C360.857 205.973 360.639 205.917 360.384 205.917C360.118 205.917 359.883 205.975 359.68 206.091C359.477 206.207 359.321 206.37 359.21 206.578C359.1 206.787 359.045 207.033 359.045 207.317C359.045 207.607 359.103 207.862 359.219 208.083C359.335 208.297 359.5 208.465 359.715 208.587C359.929 208.703 360.176 208.761 360.454 208.761C360.686 208.761 360.897 208.72 361.089 208.639C361.286 208.558 361.454 208.436 361.593 208.274L362.097 208.787C361.9 209.019 361.657 209.196 361.367 209.317C361.083 209.439 360.779 209.5 360.454 209.5ZM365.151 209.413V203.378H365.968V209.413H365.151ZM370.175 209.413V207.004C370.175 206.691 370.077 206.433 369.88 206.23C369.683 206.028 369.427 205.926 369.114 205.926C368.906 205.926 368.72 205.973 368.558 206.065C368.396 206.158 368.268 206.286 368.175 206.448C368.083 206.61 368.036 206.796 368.036 207.004L367.714 206.822C367.714 206.509 367.784 206.23 367.923 205.987C368.062 205.744 368.256 205.552 368.506 205.413C368.755 205.268 369.036 205.196 369.349 205.196C369.662 205.196 369.938 205.274 370.175 205.43C370.419 205.587 370.61 205.793 370.749 206.048C370.888 206.297 370.958 206.564 370.958 206.848V209.413H370.175ZM367.254 209.413V205.283H368.036V209.413H367.254ZM373.435 209.413L371.539 205.283H372.409L373.931 208.77H373.426L374.957 205.283H375.791L373.896 209.413H373.435ZM378.184 209.5C377.779 209.5 377.413 209.404 377.089 209.213C376.764 209.022 376.506 208.764 376.315 208.439C376.123 208.109 376.028 207.741 376.028 207.335C376.028 206.935 376.123 206.575 376.315 206.257C376.506 205.932 376.764 205.674 377.089 205.483C377.413 205.291 377.779 205.196 378.184 205.196C378.584 205.196 378.947 205.291 379.271 205.483C379.602 205.668 379.863 205.923 380.054 206.248C380.245 206.573 380.341 206.935 380.341 207.335C380.341 207.741 380.245 208.109 380.054 208.439C379.863 208.764 379.602 209.022 379.271 209.213C378.947 209.404 378.584 209.5 378.184 209.5ZM378.184 208.744C378.445 208.744 378.677 208.683 378.88 208.561C379.083 208.439 379.242 208.274 379.358 208.065C379.474 207.851 379.532 207.607 379.532 207.335C379.532 207.068 379.471 206.83 379.35 206.622C379.234 206.413 379.074 206.251 378.871 206.135C378.674 206.013 378.445 205.952 378.184 205.952C377.923 205.952 377.692 206.013 377.489 206.135C377.286 206.251 377.126 206.413 377.01 206.622C376.894 206.83 376.837 207.068 376.837 207.335C376.837 207.607 376.894 207.851 377.01 208.065C377.126 208.274 377.286 208.439 377.489 208.561C377.692 208.683 377.923 208.744 378.184 208.744ZM381.231 209.413V205.283H382.014V209.413H381.231ZM381.623 204.457C381.478 204.457 381.359 204.41 381.266 204.317C381.173 204.219 381.127 204.097 381.127 203.952C381.127 203.813 381.173 203.697 381.266 203.604C381.359 203.506 381.478 203.457 381.623 203.457C381.768 203.457 381.886 203.506 381.979 203.604C382.072 203.697 382.118 203.813 382.118 203.952C382.118 204.097 382.072 204.219 381.979 204.317C381.886 204.41 381.768 204.457 381.623 204.457ZM385.054 209.5C384.648 209.5 384.28 209.404 383.95 209.213C383.625 209.022 383.367 208.764 383.176 208.439C382.99 208.109 382.898 207.744 382.898 207.344C382.898 206.938 382.99 206.573 383.176 206.248C383.367 205.923 383.625 205.668 383.95 205.483C384.28 205.291 384.648 205.196 385.054 205.196C385.373 205.196 385.669 205.257 385.941 205.378C386.214 205.494 386.448 205.665 386.646 205.891L386.124 206.413C385.996 206.262 385.84 206.149 385.654 206.074C385.475 205.993 385.275 205.952 385.054 205.952C384.793 205.952 384.561 206.013 384.359 206.135C384.156 206.251 383.996 206.413 383.88 206.622C383.764 206.83 383.706 207.071 383.706 207.344C383.706 207.616 383.764 207.857 383.88 208.065C383.996 208.274 384.156 208.439 384.359 208.561C384.561 208.683 384.793 208.744 385.054 208.744C385.275 208.744 385.475 208.706 385.654 208.63C385.84 208.549 385.999 208.433 386.133 208.283L386.646 208.804C386.454 209.025 386.219 209.196 385.941 209.317C385.669 209.439 385.373 209.5 385.054 209.5ZM389.25 209.5C388.838 209.5 388.467 209.407 388.137 209.222C387.806 209.03 387.545 208.773 387.354 208.448C387.163 208.123 387.067 207.755 387.067 207.344C387.067 206.938 387.16 206.573 387.345 206.248C387.537 205.923 387.792 205.668 388.111 205.483C388.435 205.291 388.798 205.196 389.198 205.196C389.58 205.196 389.916 205.283 390.206 205.457C390.502 205.63 390.731 205.871 390.893 206.178C391.061 206.486 391.145 206.833 391.145 207.222C391.145 207.28 391.143 207.344 391.137 207.413C391.131 207.477 391.119 207.552 391.102 207.639H387.615V206.987H390.685L390.398 207.239C390.398 206.961 390.348 206.726 390.25 206.535C390.151 206.338 390.012 206.187 389.832 206.083C389.653 205.973 389.435 205.917 389.18 205.917C388.914 205.917 388.679 205.975 388.476 206.091C388.273 206.207 388.116 206.37 388.006 206.578C387.896 206.787 387.841 207.033 387.841 207.317C387.841 207.607 387.899 207.862 388.015 208.083C388.131 208.297 388.296 208.465 388.511 208.587C388.725 208.703 388.972 208.761 389.25 208.761C389.482 208.761 389.693 208.72 389.885 208.639C390.082 208.558 390.25 208.436 390.389 208.274L390.893 208.787C390.696 209.019 390.453 209.196 390.163 209.317C389.879 209.439 389.574 209.5 389.25 209.5Z" fill="black"/>
<rect x="323.043" y="214.891" width="73.0435" height="5.21739" rx="2.6087" fill="#F5F5F5"/>
<rect x="323.043" y="223.587" width="73.0435" height="5.21739" rx="2.6087" fill="#F5F5F5"/>
<rect x="333.478" y="232.283" width="52.1739" height="5.21739" rx="2.6087" fill="#F5F5F5"/>
<rect x="39.1304" y="266.348" width="296.522" height="5.21739" rx="2.6087" fill="#F5F5F5"/>
<rect x="39.1304" y="276.783" width="296.522" height="5.21739" rx="2.6087" fill="#F5F5F5"/>
<rect x="39.1304" y="287.218" width="296.522" height="5.21739" rx="2.6087" fill="#F5F5F5"/>
<circle cx="44.3478" cy="313.304" r="5.21739" fill="#F5F5F5"/>
<rect x="54.7826" y="310.696" width="69.5652" height="5.21739" rx="2.6087" fill="#F5F5F5"/>
<circle cx="44.3478" cy="327.217" r="5.21739" fill="#F5F5F5"/>
<rect x="54.7826" y="324.609" width="69.5652" height="5.21739" rx="2.6087" fill="#F5F5F5"/>
<circle cx="44.3478" cy="341.13" r="5.21739" fill="#F5F5F5"/>
<rect x="54.7826" y="338.522" width="69.5652" height="5.21739" rx="2.6087" fill="#F5F5F5"/>
</svg>
