<svg width="600" height="600" viewBox="0 0 600 600" fill="none" xmlns="http://www.w3.org/2000/svg">
<rect width="600" height="600" rx="8" fill="#E9ECFF"/>
<rect x="158.031" y="150.612" width="283.939" height="298.776" rx="14.4686" fill="white"/>
<path d="M179.849 188.564C179.196 188.564 178.592 188.448 178.038 188.217C177.493 187.977 177.013 187.642 176.6 187.212C176.195 186.782 175.88 186.278 175.657 185.699C175.434 185.12 175.322 184.488 175.322 183.802C175.322 183.107 175.434 182.471 175.657 181.892C175.88 181.313 176.195 180.809 176.6 180.379C177.005 179.949 177.484 179.618 178.038 179.387C178.592 179.147 179.196 179.027 179.849 179.027C180.486 179.027 181.056 179.139 181.56 179.362C182.073 179.585 182.503 179.874 182.85 180.23C183.206 180.585 183.458 180.966 183.607 181.371L182.491 181.879C182.276 181.367 181.941 180.953 181.486 180.639C181.031 180.317 180.486 180.156 179.849 180.156C179.204 180.156 178.63 180.308 178.125 180.614C177.629 180.92 177.241 181.346 176.959 181.892C176.678 182.437 176.538 183.074 176.538 183.802C176.538 184.521 176.678 185.153 176.959 185.699C177.241 186.245 177.629 186.671 178.125 186.976C178.63 187.282 179.204 187.435 179.849 187.435C180.486 187.435 181.031 187.278 181.486 186.964C181.941 186.642 182.276 186.224 182.491 185.711L183.607 186.22C183.458 186.625 183.206 187.005 182.85 187.361C182.503 187.716 182.073 188.006 181.56 188.229C181.056 188.452 180.486 188.564 179.849 188.564ZM188.177 188.564C187.532 188.564 186.949 188.415 186.428 188.117C185.908 187.811 185.494 187.394 185.188 186.865C184.882 186.336 184.729 185.736 184.729 185.067C184.729 184.397 184.878 183.802 185.176 183.281C185.482 182.76 185.895 182.347 186.416 182.041C186.937 181.735 187.524 181.582 188.177 181.582C188.822 181.582 189.405 181.735 189.926 182.041C190.447 182.338 190.856 182.747 191.154 183.268C191.459 183.789 191.612 184.389 191.612 185.067C191.612 185.745 191.455 186.348 191.141 186.877C190.827 187.398 190.409 187.811 189.889 188.117C189.376 188.415 188.805 188.564 188.177 188.564ZM188.177 187.448C188.59 187.448 188.963 187.344 189.293 187.138C189.632 186.931 189.897 186.646 190.087 186.282C190.285 185.918 190.385 185.513 190.385 185.067C190.385 184.612 190.285 184.211 190.087 183.864C189.897 183.508 189.632 183.227 189.293 183.02C188.963 182.805 188.59 182.698 188.177 182.698C187.755 182.698 187.375 182.805 187.036 183.02C186.705 183.227 186.441 183.508 186.242 183.864C186.044 184.211 185.945 184.612 185.945 185.067C185.945 185.513 186.044 185.918 186.242 186.282C186.441 186.646 186.705 186.931 187.036 187.138C187.375 187.344 187.755 187.448 188.177 187.448ZM193.117 188.415V181.731H194.245V183.095L194.084 182.884C194.249 182.462 194.514 182.14 194.878 181.917C195.241 181.693 195.651 181.582 196.105 181.582C196.626 181.582 197.093 181.726 197.507 182.016C197.928 182.305 198.218 182.685 198.375 183.157L198.052 183.169C198.226 182.648 198.52 182.256 198.933 181.991C199.346 181.718 199.805 181.582 200.31 181.582C200.773 181.582 201.19 181.689 201.562 181.904C201.942 182.119 202.244 182.417 202.467 182.797C202.691 183.177 202.802 183.607 202.802 184.087V188.415H201.637V184.459C201.637 184.087 201.57 183.773 201.438 183.516C201.306 183.26 201.124 183.062 200.892 182.921C200.669 182.772 200.405 182.698 200.099 182.698C199.801 182.698 199.532 182.772 199.293 182.921C199.061 183.062 198.875 183.264 198.735 183.529C198.602 183.785 198.536 184.095 198.536 184.459V188.415H197.37V184.459C197.37 184.087 197.304 183.773 197.172 183.516C197.04 183.26 196.858 183.062 196.626 182.921C196.403 182.772 196.139 182.698 195.833 182.698C195.535 182.698 195.266 182.772 195.026 182.921C194.795 183.062 194.609 183.264 194.468 183.529C194.336 183.785 194.27 184.095 194.27 184.459V188.415H193.117ZM204.44 190.895V181.731H205.569V183.169L205.42 182.884C205.668 182.487 206.007 182.173 206.437 181.941C206.867 181.702 207.359 181.582 207.913 181.582C208.541 181.582 209.103 181.735 209.599 182.041C210.104 182.347 210.501 182.764 210.79 183.293C211.079 183.814 211.224 184.409 211.224 185.079C211.224 185.732 211.079 186.323 210.79 186.852C210.501 187.382 210.104 187.799 209.599 188.105C209.103 188.411 208.537 188.564 207.9 188.564C207.363 188.564 206.871 188.444 206.425 188.204C205.986 187.964 205.648 187.625 205.408 187.187L205.594 186.989V190.895H204.44ZM207.814 187.448C208.235 187.448 208.611 187.344 208.942 187.138C209.273 186.931 209.529 186.65 209.711 186.294C209.901 185.931 209.996 185.525 209.996 185.079C209.996 184.616 209.901 184.211 209.711 183.864C209.529 183.508 209.273 183.227 208.942 183.02C208.611 182.805 208.235 182.698 207.814 182.698C207.392 182.698 207.012 182.801 206.673 183.008C206.342 183.215 206.077 183.5 205.879 183.864C205.689 184.219 205.594 184.624 205.594 185.079C205.594 185.525 205.689 185.931 205.879 186.294C206.077 186.65 206.342 186.931 206.673 187.138C207.012 187.344 207.392 187.448 207.814 187.448ZM214.696 188.564C214.258 188.564 213.869 188.485 213.53 188.328C213.199 188.163 212.939 187.94 212.749 187.659C212.559 187.369 212.464 187.038 212.464 186.666C212.464 186.311 212.538 185.993 212.687 185.711C212.844 185.422 213.084 185.178 213.406 184.98C213.737 184.781 214.15 184.641 214.646 184.558L217.127 184.149V185.116L214.907 185.488C214.477 185.563 214.163 185.699 213.964 185.898C213.774 186.096 213.679 186.34 213.679 186.629C213.679 186.902 213.786 187.129 214.001 187.311C214.225 187.493 214.502 187.584 214.832 187.584C215.254 187.584 215.618 187.497 215.924 187.324C216.238 187.142 216.482 186.898 216.655 186.592C216.837 186.286 216.928 185.947 216.928 185.575V183.876C216.928 183.512 216.792 183.219 216.519 182.996C216.254 182.764 215.903 182.648 215.465 182.648C215.084 182.648 214.745 182.747 214.448 182.946C214.158 183.136 213.944 183.392 213.803 183.715L212.798 183.194C212.922 182.888 213.121 182.615 213.394 182.375C213.667 182.127 213.985 181.933 214.349 181.793C214.712 181.652 215.093 181.582 215.49 181.582C216.002 181.582 216.453 181.681 216.841 181.879C217.23 182.07 217.532 182.338 217.747 182.685C217.97 183.024 218.082 183.421 218.082 183.876V188.415H216.953V187.15L217.164 187.224C217.023 187.489 216.833 187.721 216.593 187.919C216.354 188.117 216.072 188.274 215.75 188.39C215.428 188.506 215.076 188.564 214.696 188.564ZM219.87 188.415V181.731H220.998V183.033L220.812 182.921C220.978 182.499 221.242 182.173 221.606 181.941C221.978 181.702 222.412 181.582 222.908 181.582C223.388 181.582 223.814 181.689 224.186 181.904C224.566 182.119 224.864 182.417 225.078 182.797C225.302 183.177 225.413 183.607 225.413 184.087V188.415H224.248V184.459C224.248 184.087 224.181 183.773 224.049 183.516C223.917 183.26 223.727 183.062 223.479 182.921C223.239 182.772 222.962 182.698 222.648 182.698C222.334 182.698 222.052 182.772 221.804 182.921C221.565 183.062 221.375 183.264 221.234 183.529C221.093 183.785 221.023 184.095 221.023 184.459V188.415H219.87ZM227.064 188.415V181.731H228.217V188.415H227.064ZM227.064 180.664V179.176H228.217V180.664H227.064ZM233.082 188.564C232.437 188.564 231.863 188.411 231.358 188.105C230.854 187.799 230.457 187.382 230.168 186.852C229.879 186.315 229.734 185.716 229.734 185.054C229.734 184.385 229.874 183.789 230.156 183.268C230.445 182.747 230.833 182.338 231.321 182.041C231.817 181.735 232.371 181.582 232.983 181.582C233.479 181.582 233.917 181.673 234.298 181.855C234.686 182.028 235.013 182.268 235.277 182.574C235.55 182.872 235.757 183.215 235.897 183.603C236.046 183.984 236.121 184.38 236.121 184.794C236.121 184.885 236.112 184.988 236.096 185.104C236.088 185.211 236.075 185.315 236.059 185.414H230.577V184.422H235.389L234.843 184.868C234.918 184.438 234.876 184.054 234.719 183.715C234.562 183.376 234.331 183.107 234.025 182.909C233.719 182.71 233.372 182.611 232.983 182.611C232.594 182.611 232.239 182.71 231.917 182.909C231.594 183.107 231.342 183.392 231.16 183.764C230.986 184.128 230.916 184.562 230.949 185.067C230.916 185.554 230.991 185.984 231.172 186.356C231.363 186.72 231.627 187.005 231.966 187.212C232.313 187.411 232.69 187.51 233.095 187.51C233.541 187.51 233.917 187.406 234.223 187.2C234.529 186.993 234.777 186.728 234.967 186.406L235.935 186.902C235.802 187.208 235.596 187.489 235.315 187.745C235.042 187.993 234.715 188.192 234.335 188.341C233.963 188.489 233.545 188.564 233.082 188.564ZM240.018 188.564C239.348 188.564 238.765 188.399 238.269 188.068C237.773 187.737 237.422 187.291 237.215 186.728L238.133 186.282C238.323 186.679 238.584 186.993 238.914 187.224C239.245 187.456 239.613 187.572 240.018 187.572C240.382 187.572 240.684 187.485 240.923 187.311C241.163 187.138 241.283 186.91 241.283 186.629C241.283 186.431 241.225 186.274 241.109 186.158C241.002 186.034 240.87 185.939 240.713 185.873C240.555 185.798 240.411 185.745 240.278 185.711L239.274 185.426C238.67 185.253 238.228 185.005 237.947 184.682C237.674 184.36 237.538 183.984 237.538 183.554C237.538 183.157 237.637 182.814 237.835 182.524C238.042 182.227 238.319 181.995 238.666 181.83C239.022 181.664 239.419 181.582 239.857 181.582C240.444 181.582 240.969 181.731 241.432 182.028C241.903 182.326 242.238 182.743 242.436 183.281L241.494 183.715C241.345 183.368 241.122 183.095 240.824 182.896C240.526 182.69 240.192 182.586 239.82 182.586C239.481 182.586 239.212 182.673 239.013 182.847C238.815 183.012 238.716 183.223 238.716 183.479C238.716 183.669 238.765 183.826 238.865 183.95C238.964 184.066 239.084 184.157 239.224 184.223C239.365 184.281 239.501 184.331 239.634 184.372L240.725 184.695C241.271 184.852 241.692 185.096 241.99 185.426C242.296 185.757 242.449 186.154 242.449 186.617C242.449 186.989 242.345 187.324 242.139 187.621C241.932 187.919 241.647 188.15 241.283 188.316C240.919 188.481 240.498 188.564 240.018 188.564Z" fill="#8F9396"/>
<path d="M179.919 229.088L175.227 214.744H177.17L180.891 226.443H180.333L183.991 214.744H185.397L189.055 226.443H188.518L192.238 214.744H194.161L189.489 229.088H188.104L184.425 217.41H184.963L181.304 229.088H179.919ZM198.877 229.295C197.982 229.295 197.169 229.075 196.438 228.634C195.708 228.179 195.129 227.566 194.702 226.794C194.289 226.022 194.082 225.154 194.082 224.19C194.082 223.225 194.289 222.357 194.702 221.585C195.129 220.814 195.701 220.201 196.418 219.746C197.148 219.291 197.968 219.064 198.877 219.064C199.621 219.064 200.283 219.222 200.862 219.539C201.454 219.842 201.93 220.269 202.288 220.821C202.646 221.358 202.846 221.985 202.887 222.702V225.657C202.846 226.36 202.646 226.987 202.288 227.538C201.943 228.089 201.475 228.523 200.882 228.84C200.304 229.143 199.635 229.295 198.877 229.295ZM199.187 227.538C200.111 227.538 200.855 227.228 201.42 226.608C201.985 225.974 202.267 225.168 202.267 224.19C202.267 223.515 202.136 222.929 201.874 222.433C201.626 221.923 201.268 221.53 200.8 221.255C200.331 220.965 199.787 220.821 199.167 220.821C198.547 220.821 197.995 220.965 197.513 221.255C197.045 221.544 196.673 221.944 196.397 222.453C196.135 222.95 196.004 223.521 196.004 224.169C196.004 224.83 196.135 225.416 196.397 225.926C196.673 226.422 197.052 226.815 197.534 227.104C198.016 227.393 198.567 227.538 199.187 227.538ZM202.143 229.088V226.443L202.494 224.045L202.143 221.668V219.27H204.024V229.088H202.143ZM206.732 229.088V214.33H208.593V229.088H206.732ZM217.598 229.088L213.009 224.066L217.557 219.27H219.809L214.745 224.562L214.828 223.487L219.995 229.088H217.598ZM211.314 229.088V214.33H213.175V229.088H211.314ZM225.529 229.295C224.564 229.295 223.696 229.068 222.924 228.613C222.153 228.158 221.54 227.545 221.085 226.773C220.63 225.988 220.403 225.113 220.403 224.148C220.403 223.198 220.63 222.343 221.085 221.585C221.54 220.814 222.153 220.201 222.924 219.746C223.696 219.291 224.564 219.064 225.529 219.064C226.48 219.064 227.341 219.291 228.112 219.746C228.898 220.187 229.518 220.793 229.973 221.565C230.427 222.336 230.655 223.198 230.655 224.148C230.655 225.113 230.427 225.988 229.973 226.773C229.518 227.545 228.898 228.158 228.112 228.613C227.341 229.068 226.48 229.295 225.529 229.295ZM225.529 227.497C226.149 227.497 226.7 227.352 227.182 227.063C227.665 226.773 228.044 226.381 228.319 225.885C228.595 225.375 228.733 224.796 228.733 224.148C228.733 223.515 228.588 222.95 228.298 222.453C228.023 221.957 227.644 221.572 227.162 221.296C226.693 221.007 226.149 220.862 225.529 220.862C224.909 220.862 224.357 221.007 223.875 221.296C223.393 221.572 223.014 221.957 222.738 222.453C222.463 222.95 222.325 223.515 222.325 224.148C222.325 224.796 222.463 225.375 222.738 225.885C223.014 226.381 223.393 226.773 223.875 227.063C224.357 227.352 224.909 227.497 225.529 227.497ZM235.736 229.088L231.23 219.27H233.297L236.915 227.559H235.716L239.354 219.27H241.338L236.832 229.088H235.736ZM247.088 229.295C246.109 229.295 245.228 229.075 244.442 228.634C243.657 228.179 243.037 227.566 242.582 226.794C242.127 226.022 241.9 225.147 241.9 224.169C241.9 223.204 242.12 222.336 242.561 221.565C243.016 220.793 243.622 220.187 244.38 219.746C245.152 219.291 246.013 219.064 246.964 219.064C247.873 219.064 248.672 219.27 249.361 219.684C250.064 220.097 250.608 220.669 250.994 221.399C251.394 222.13 251.594 222.956 251.594 223.88C251.594 224.017 251.587 224.169 251.573 224.334C251.559 224.486 251.532 224.665 251.49 224.872H243.202V223.322H250.498L249.816 223.921C249.816 223.26 249.699 222.702 249.465 222.247C249.23 221.778 248.9 221.42 248.473 221.172C248.045 220.91 247.529 220.779 246.922 220.779C246.289 220.779 245.73 220.917 245.248 221.193C244.766 221.468 244.394 221.854 244.132 222.35C243.87 222.846 243.739 223.432 243.739 224.107C243.739 224.796 243.877 225.402 244.153 225.926C244.428 226.436 244.821 226.835 245.331 227.125C245.841 227.4 246.426 227.538 247.088 227.538C247.639 227.538 248.142 227.442 248.597 227.249C249.065 227.056 249.465 226.767 249.795 226.381L250.994 227.6C250.526 228.151 249.947 228.572 249.258 228.861C248.583 229.15 247.859 229.295 247.088 229.295ZM253.622 229.088V219.27H255.482V229.088H253.622ZM255.482 223.487L254.78 223.177C254.78 221.923 255.069 220.924 255.648 220.18C256.226 219.436 257.06 219.064 258.149 219.064C258.645 219.064 259.093 219.153 259.492 219.332C259.892 219.498 260.264 219.78 260.608 220.18L259.389 221.441C259.182 221.22 258.955 221.062 258.707 220.965C258.459 220.869 258.169 220.821 257.839 220.821C257.15 220.821 256.585 221.041 256.144 221.482C255.703 221.923 255.482 222.591 255.482 223.487Z" fill="#3F4346"/>
<path d="M176.261 277.962V263.618H177.625L183.702 273.601H182.772L188.848 263.618H190.213V277.962H188.27V267.028L188.724 267.152L183.929 275.027H182.565L177.77 267.152L178.204 267.028V277.962H176.261ZM197.306 278.169C196.176 278.169 195.212 277.962 194.413 277.549C193.613 277.136 192.904 276.536 192.284 275.751L193.606 274.428C194.061 275.062 194.585 275.544 195.177 275.875C195.77 276.192 196.5 276.35 197.368 276.35C198.223 276.35 198.905 276.164 199.415 275.792C199.938 275.42 200.2 274.91 200.2 274.263C200.2 273.725 200.076 273.291 199.828 272.96C199.58 272.63 199.242 272.361 198.815 272.154C198.402 271.934 197.947 271.741 197.451 271.576C196.955 271.396 196.459 271.21 195.963 271.017C195.467 270.811 195.012 270.563 194.599 270.273C194.185 269.97 193.848 269.578 193.586 269.095C193.338 268.613 193.214 268.007 193.214 267.276C193.214 266.463 193.407 265.774 193.793 265.209C194.192 264.631 194.73 264.19 195.405 263.887C196.094 263.57 196.865 263.411 197.72 263.411C198.657 263.411 199.497 263.597 200.241 263.969C200.985 264.327 201.592 264.803 202.06 265.395L200.737 266.718C200.31 266.222 199.849 265.85 199.353 265.602C198.87 265.354 198.312 265.23 197.678 265.23C196.907 265.23 196.293 265.402 195.839 265.747C195.384 266.077 195.157 266.546 195.157 267.152C195.157 267.635 195.281 268.027 195.529 268.33C195.791 268.62 196.128 268.868 196.542 269.075C196.955 269.281 197.41 269.474 197.906 269.653C198.416 269.819 198.919 270.005 199.415 270.211C199.911 270.418 200.365 270.68 200.779 270.997C201.192 271.314 201.523 271.727 201.771 272.237C202.033 272.733 202.164 273.36 202.164 274.118C202.164 275.386 201.723 276.378 200.841 277.094C199.973 277.811 198.794 278.169 197.306 278.169ZM211.333 278.169C210.327 278.169 209.383 277.983 208.501 277.611C207.633 277.225 206.868 276.695 206.207 276.019C205.559 275.344 205.049 274.559 204.677 273.663C204.305 272.767 204.119 271.803 204.119 270.769C204.119 269.736 204.305 268.778 204.677 267.896C205.049 267.001 205.566 266.215 206.228 265.54C206.889 264.865 207.661 264.341 208.543 263.969C209.438 263.597 210.41 263.411 211.457 263.411C212.601 263.411 213.655 263.632 214.619 264.073C215.584 264.514 216.39 265.147 217.038 265.974L215.694 267.318C215.239 266.656 214.64 266.153 213.896 265.809C213.152 265.451 212.339 265.271 211.457 265.271C210.41 265.271 209.48 265.506 208.667 265.974C207.867 266.443 207.24 267.09 206.786 267.917C206.345 268.744 206.124 269.695 206.124 270.769C206.124 271.858 206.352 272.816 206.806 273.642C207.261 274.469 207.874 275.117 208.646 275.585C209.418 276.054 210.299 276.288 211.292 276.288C212.297 276.288 213.166 276.095 213.896 275.709C214.64 275.324 215.212 274.759 215.611 274.015C216.011 273.257 216.211 272.333 216.211 271.245L217.389 272.092H211.188V270.315H218.216V270.604C218.216 272.271 217.92 273.67 217.327 274.8C216.748 275.916 215.935 276.757 214.888 277.322C213.855 277.887 212.67 278.169 211.333 278.169ZM222.173 277.962L226.493 272.072L227.195 271.7C227.03 271.975 226.83 272.216 226.596 272.423C226.362 272.63 226.072 272.788 225.728 272.898C225.397 273.009 224.991 273.064 224.508 273.064C223.682 273.064 222.917 272.864 222.214 272.464C221.525 272.065 220.974 271.514 220.561 270.811C220.147 270.094 219.94 269.288 219.94 268.392C219.94 267.469 220.168 266.636 220.623 265.891C221.077 265.134 221.684 264.534 222.441 264.093C223.199 263.639 224.04 263.411 224.963 263.411C225.9 263.411 226.748 263.632 227.505 264.073C228.263 264.514 228.863 265.106 229.304 265.85C229.745 266.58 229.965 267.407 229.965 268.33C229.965 269.598 229.524 270.859 228.642 272.113L224.426 277.962H222.173ZM224.963 271.534C225.542 271.534 226.059 271.396 226.513 271.121C226.982 270.831 227.347 270.453 227.609 269.984C227.884 269.502 228.022 268.971 228.022 268.392C228.022 267.786 227.884 267.249 227.609 266.78C227.347 266.298 226.982 265.919 226.513 265.643C226.059 265.368 225.542 265.23 224.963 265.23C224.384 265.23 223.861 265.368 223.392 265.643C222.937 265.919 222.572 266.298 222.297 266.78C222.021 267.249 221.883 267.786 221.883 268.392C221.883 268.985 222.021 269.516 222.297 269.984C222.572 270.453 222.944 270.831 223.413 271.121C223.881 271.396 224.398 271.534 224.963 271.534ZM234.195 277.962V263.618H236.118V277.962H234.195ZM231.26 265.354V263.618H235.911V265.354H231.26Z" fill="#3F4346"/>
<path d="M182.751 327.043C181.745 327.043 180.801 326.857 179.919 326.485C179.051 326.099 178.286 325.569 177.625 324.894C176.977 324.218 176.468 323.433 176.095 322.537C175.723 321.642 175.537 320.677 175.537 319.643C175.537 318.61 175.723 317.652 176.095 316.77C176.468 315.875 176.984 315.089 177.646 314.414C178.307 313.739 179.079 313.215 179.961 312.843C180.856 312.471 181.828 312.285 182.875 312.285C184.019 312.285 185.073 312.506 186.037 312.947C187.002 313.388 187.808 314.021 188.456 314.848L187.112 316.192C186.658 315.53 186.058 315.027 185.314 314.683C184.57 314.325 183.757 314.145 182.875 314.145C181.828 314.145 180.898 314.38 180.085 314.848C179.285 315.317 178.658 315.964 178.204 316.791C177.763 317.618 177.542 318.569 177.542 319.643C177.542 320.732 177.77 321.69 178.224 322.517C178.679 323.343 179.292 323.991 180.064 324.459C180.836 324.928 181.718 325.162 182.71 325.162C183.716 325.162 184.584 324.969 185.314 324.583C186.058 324.198 186.63 323.633 187.03 322.889C187.429 322.131 187.629 321.207 187.629 320.119L188.807 320.966H182.606V319.189H189.634V319.478C189.634 321.145 189.338 322.544 188.745 323.674C188.166 324.79 187.353 325.631 186.306 326.196C185.273 326.761 184.088 327.043 182.751 327.043ZM191.937 326.836V317.018H193.798V326.836H191.937ZM192.867 315.055C192.523 315.055 192.24 314.945 192.02 314.724C191.799 314.49 191.689 314.201 191.689 313.856C191.689 313.525 191.799 313.25 192.02 313.029C192.24 312.795 192.523 312.678 192.867 312.678C193.212 312.678 193.494 312.795 193.715 313.029C193.935 313.25 194.046 313.525 194.046 313.856C194.046 314.201 193.935 314.49 193.715 314.724C193.494 314.945 193.212 315.055 192.867 315.055ZM200.693 327.043C199.784 327.043 198.971 326.823 198.255 326.382C197.538 325.927 196.966 325.314 196.539 324.542C196.126 323.77 195.919 322.902 195.919 321.938C195.919 320.973 196.126 320.105 196.539 319.333C196.966 318.562 197.538 317.949 198.255 317.494C198.971 317.039 199.784 316.812 200.693 316.812C201.424 316.812 202.085 316.97 202.678 317.287C203.27 317.59 203.746 318.017 204.104 318.569C204.476 319.106 204.683 319.733 204.724 320.45V323.405C204.683 324.108 204.483 324.735 204.125 325.286C203.766 325.837 203.291 326.271 202.698 326.588C202.106 326.892 201.438 327.043 200.693 327.043ZM201.004 325.286C201.624 325.286 202.161 325.142 202.616 324.852C203.084 324.563 203.449 324.17 203.711 323.674C203.973 323.164 204.104 322.585 204.104 321.938C204.104 321.263 203.966 320.677 203.691 320.181C203.429 319.685 203.064 319.292 202.595 319.003C202.14 318.713 201.603 318.569 200.983 318.569C200.363 318.569 199.818 318.713 199.35 319.003C198.881 319.292 198.509 319.692 198.234 320.202C197.972 320.698 197.841 321.269 197.841 321.917C197.841 322.579 197.972 323.164 198.234 323.674C198.509 324.17 198.881 324.563 199.35 324.852C199.832 325.142 200.383 325.286 201.004 325.286ZM205.861 326.836H203.98V324.191L204.331 321.793L203.98 319.416V312.078H205.861V326.836ZM212.724 327.043C211.814 327.043 211.001 326.823 210.285 326.382C209.568 325.927 208.996 325.314 208.569 324.542C208.156 323.77 207.949 322.902 207.949 321.938C207.949 320.973 208.156 320.105 208.569 319.333C208.996 318.562 209.568 317.949 210.285 317.494C211.001 317.039 211.814 316.812 212.724 316.812C213.454 316.812 214.115 316.97 214.708 317.287C215.301 317.59 215.776 318.017 216.134 318.569C216.506 319.106 216.713 319.733 216.754 320.45V323.405C216.713 324.108 216.513 324.735 216.155 325.286C215.797 325.837 215.321 326.271 214.729 326.588C214.136 326.892 213.468 327.043 212.724 327.043ZM213.034 325.286C213.654 325.286 214.191 325.142 214.646 324.852C215.115 324.563 215.48 324.17 215.741 323.674C216.003 323.164 216.134 322.585 216.134 321.938C216.134 321.263 215.996 320.677 215.721 320.181C215.459 319.685 215.094 319.292 214.625 319.003C214.171 318.713 213.633 318.569 213.013 318.569C212.393 318.569 211.849 318.713 211.38 319.003C210.912 319.292 210.54 319.692 210.264 320.202C210.002 320.698 209.871 321.269 209.871 321.917C209.871 322.579 210.002 323.164 210.264 323.674C210.54 324.17 210.912 324.563 211.38 324.852C211.863 325.142 212.414 325.286 213.034 325.286ZM217.891 326.836H216.01V324.191L216.362 321.793L216.01 319.416V312.078H217.891V326.836ZM227.544 326.836V321.111C227.544 320.367 227.31 319.754 226.842 319.271C226.373 318.789 225.767 318.548 225.023 318.548C224.527 318.548 224.086 318.658 223.7 318.879C223.314 319.099 223.011 319.402 222.79 319.788C222.57 320.174 222.46 320.615 222.46 321.111L221.695 320.677C221.695 319.933 221.86 319.271 222.191 318.693C222.522 318.114 222.983 317.659 223.576 317.328C224.168 316.984 224.837 316.812 225.581 316.812C226.325 316.812 226.979 316.977 227.544 317.308C228.123 317.639 228.578 318.1 228.909 318.693C229.239 319.285 229.405 319.967 229.405 320.739V326.836H227.544ZM220.599 326.836V312.078H222.46V326.836H220.599Z" fill="#3F4346"/>
<path d="M176.261 375.71V361.366H178.204V375.71H176.261ZM185.521 375.71V361.366H187.464V375.71H185.521ZM177.584 369.179V367.401H185.996V369.179H177.584ZM195.071 375.917C194.093 375.917 193.211 375.697 192.425 375.256C191.64 374.801 191.02 374.188 190.565 373.416C190.11 372.644 189.883 371.769 189.883 370.791C189.883 369.827 190.104 368.958 190.544 368.187C190.999 367.415 191.606 366.809 192.363 366.368C193.135 365.913 193.996 365.686 194.947 365.686C195.857 365.686 196.656 365.892 197.345 366.306C198.047 366.719 198.592 367.291 198.978 368.021C199.377 368.752 199.577 369.579 199.577 370.502C199.577 370.64 199.57 370.791 199.556 370.956C199.543 371.108 199.515 371.287 199.474 371.494H191.185V369.944H198.482L197.799 370.543C197.799 369.882 197.682 369.324 197.448 368.869C197.214 368.4 196.883 368.042 196.456 367.794C196.029 367.532 195.512 367.401 194.906 367.401C194.272 367.401 193.714 367.539 193.232 367.815C192.749 368.09 192.377 368.476 192.115 368.972C191.854 369.468 191.723 370.054 191.723 370.729C191.723 371.418 191.86 372.024 192.136 372.548C192.412 373.058 192.804 373.457 193.314 373.747C193.824 374.022 194.41 374.16 195.071 374.16C195.622 374.16 196.125 374.064 196.58 373.871C197.048 373.678 197.448 373.389 197.779 373.003L198.978 374.222C198.509 374.773 197.93 375.194 197.241 375.483C196.566 375.772 195.843 375.917 195.071 375.917ZM201.605 375.71V360.952H203.466V375.71H201.605ZM206.187 375.71V360.952H208.048V375.71H206.187ZM215.255 375.917C214.29 375.917 213.422 375.69 212.65 375.235C211.879 374.78 211.265 374.167 210.811 373.395C210.356 372.61 210.129 371.735 210.129 370.77C210.129 369.82 210.356 368.965 210.811 368.207C211.265 367.436 211.879 366.823 212.65 366.368C213.422 365.913 214.29 365.686 215.255 365.686C216.205 365.686 217.067 365.913 217.838 366.368C218.624 366.809 219.244 367.415 219.699 368.187C220.153 368.958 220.381 369.82 220.381 370.77C220.381 371.735 220.153 372.61 219.699 373.395C219.244 374.167 218.624 374.78 217.838 375.235C217.067 375.69 216.205 375.917 215.255 375.917ZM215.255 374.119C215.875 374.119 216.426 373.974 216.908 373.685C217.39 373.395 217.769 373.003 218.045 372.507C218.321 371.997 218.458 371.418 218.458 370.77C218.458 370.137 218.314 369.572 218.024 369.076C217.749 368.58 217.37 368.194 216.887 367.918C216.419 367.629 215.875 367.484 215.255 367.484C214.635 367.484 214.083 367.629 213.601 367.918C213.119 368.194 212.74 368.58 212.464 369.076C212.189 369.572 212.051 370.137 212.051 370.77C212.051 371.418 212.189 371.997 212.464 372.507C212.74 373.003 213.119 373.395 213.601 373.685C214.083 373.974 214.635 374.119 215.255 374.119Z" fill="#3F4346"/>
<rect x="166.298" y="395.317" width="267.403" height="37.5355" rx="6.20082" fill="#1A237E"/>
<path d="M250.962 414.946H245.795V420.113H244.072V414.946H238.905V413.224H244.072V408.056H245.795V413.224H250.962V414.946Z" fill="white"/>
<path d="M259.914 420.585L264.61 409.109H265.734L270.414 420.585H268.727L264.875 410.879H265.453L261.568 420.585H259.914ZM262.146 417.989V416.633H268.182V417.989H262.146ZM274.829 420.75C274.102 420.75 273.451 420.574 272.878 420.221C272.305 419.857 271.847 419.367 271.506 418.75C271.175 418.132 271.01 417.438 271.01 416.666C271.01 415.894 271.175 415.2 271.506 414.583C271.847 413.965 272.305 413.475 272.878 413.111C273.451 412.747 274.102 412.565 274.829 412.565C275.414 412.565 275.943 412.692 276.417 412.946C276.891 413.188 277.271 413.53 277.558 413.971C277.855 414.401 278.021 414.902 278.054 415.475V417.84C278.021 418.402 277.861 418.904 277.574 419.345C277.288 419.786 276.907 420.133 276.433 420.387C275.959 420.629 275.425 420.75 274.829 420.75ZM275.077 419.345C275.573 419.345 276.003 419.229 276.367 418.998C276.742 418.766 277.034 418.452 277.243 418.055C277.453 417.647 277.558 417.184 277.558 416.666C277.558 416.126 277.447 415.657 277.227 415.261C277.017 414.864 276.725 414.549 276.351 414.318C275.987 414.087 275.557 413.971 275.061 413.971C274.565 413.971 274.129 414.087 273.754 414.318C273.38 414.549 273.082 414.869 272.862 415.277C272.652 415.674 272.547 416.131 272.547 416.65C272.547 417.179 272.652 417.647 272.862 418.055C273.082 418.452 273.38 418.766 273.754 418.998C274.14 419.229 274.581 419.345 275.077 419.345ZM278.963 420.585H277.458V418.468L277.74 416.55L277.458 414.649V408.779H278.963V420.585ZM284.453 420.75C283.726 420.75 283.075 420.574 282.502 420.221C281.929 419.857 281.472 419.367 281.13 418.75C280.799 418.132 280.634 417.438 280.634 416.666C280.634 415.894 280.799 415.2 281.13 414.583C281.472 413.965 281.929 413.475 282.502 413.111C283.075 412.747 283.726 412.565 284.453 412.565C285.038 412.565 285.567 412.692 286.041 412.946C286.515 413.188 286.895 413.53 287.182 413.971C287.479 414.401 287.645 414.902 287.678 415.475V417.84C287.645 418.402 287.485 418.904 287.198 419.345C286.912 419.786 286.531 420.133 286.057 420.387C285.583 420.629 285.049 420.75 284.453 420.75ZM284.701 419.345C285.198 419.345 285.627 419.229 285.991 418.998C286.366 418.766 286.658 418.452 286.868 418.055C287.077 417.647 287.182 417.184 287.182 416.666C287.182 416.126 287.072 415.657 286.851 415.261C286.642 414.864 286.35 414.549 285.975 414.318C285.611 414.087 285.181 413.971 284.685 413.971C284.189 413.971 283.753 414.087 283.379 414.318C283.004 414.549 282.706 414.869 282.486 415.277C282.276 415.674 282.172 416.131 282.172 416.65C282.172 417.179 282.276 417.647 282.486 418.055C282.706 418.452 283.004 418.766 283.379 418.998C283.764 419.229 284.205 419.345 284.701 419.345ZM288.587 420.585H287.083V418.468L287.364 416.55L287.083 414.649V408.779H288.587V420.585ZM299.667 420.75C298.84 420.75 298.074 420.601 297.368 420.304C296.663 419.995 296.046 419.571 295.516 419.031C294.998 418.49 294.596 417.862 294.309 417.146C294.023 416.429 293.879 415.663 293.879 414.847C293.879 414.02 294.023 413.249 294.309 412.532C294.596 411.816 294.998 411.193 295.516 410.664C296.046 410.123 296.657 409.705 297.352 409.407C298.057 409.098 298.823 408.944 299.65 408.944C300.554 408.944 301.348 409.098 302.031 409.407C302.715 409.716 303.321 410.135 303.85 410.664L302.775 411.738C302.412 411.331 301.965 411.011 301.436 410.779C300.918 410.548 300.323 410.432 299.65 410.432C299.044 410.432 298.487 410.542 297.98 410.763C297.473 410.972 297.032 411.275 296.657 411.672C296.283 412.069 295.99 412.538 295.781 413.078C295.583 413.618 295.483 414.208 295.483 414.847C295.483 415.487 295.583 416.076 295.781 416.616C295.99 417.157 296.283 417.625 296.657 418.022C297.032 418.419 297.473 418.727 297.98 418.948C298.487 419.157 299.044 419.262 299.65 419.262C300.367 419.262 300.99 419.146 301.519 418.915C302.048 418.672 302.494 418.347 302.858 417.939L303.933 418.998C303.404 419.549 302.781 419.979 302.064 420.287C301.359 420.596 300.56 420.75 299.667 420.75ZM308.892 420.75C308.12 420.75 307.425 420.568 306.808 420.205C306.191 419.841 305.7 419.35 305.336 418.733C304.973 418.105 304.791 417.405 304.791 416.633C304.791 415.872 304.973 415.189 305.336 414.583C305.7 413.965 306.191 413.475 306.808 413.111C307.425 412.747 308.12 412.565 308.892 412.565C309.652 412.565 310.341 412.747 310.958 413.111C311.587 413.464 312.083 413.949 312.447 414.566C312.81 415.183 312.992 415.872 312.992 416.633C312.992 417.405 312.81 418.105 312.447 418.733C312.083 419.35 311.587 419.841 310.958 420.205C310.341 420.568 309.652 420.75 308.892 420.75ZM308.892 419.312C309.388 419.312 309.829 419.196 310.214 418.964C310.6 418.733 310.903 418.419 311.124 418.022C311.344 417.614 311.455 417.151 311.455 416.633C311.455 416.126 311.339 415.674 311.107 415.277C310.887 414.88 310.584 414.572 310.198 414.351C309.823 414.12 309.388 414.004 308.892 414.004C308.395 414.004 307.955 414.12 307.569 414.351C307.183 414.572 306.88 414.88 306.659 415.277C306.439 415.674 306.329 416.126 306.329 416.633C306.329 417.151 306.439 417.614 306.659 418.022C306.88 418.419 307.183 418.733 307.569 418.964C307.955 419.196 308.395 419.312 308.892 419.312ZM314.669 420.585V412.731H316.157V420.585H314.669ZM319.977 420.585V415.839C319.977 415.255 319.795 414.798 319.431 414.467C319.079 414.125 318.632 413.954 318.092 413.954C317.728 413.954 317.403 414.031 317.116 414.186C316.83 414.34 316.598 414.555 316.422 414.831C316.246 415.106 316.157 415.437 316.157 415.823L315.546 415.525C315.546 414.93 315.672 414.412 315.926 413.971C316.19 413.53 316.549 413.188 317.001 412.946C317.453 412.692 317.96 412.565 318.522 412.565C319.073 412.565 319.569 412.686 320.01 412.929C320.462 413.172 320.815 413.513 321.068 413.954C321.333 414.395 321.465 414.919 321.465 415.525V420.585H319.977ZM325.285 420.585V415.839C325.285 415.255 325.103 414.798 324.739 414.467C324.387 414.125 323.946 413.954 323.416 413.954C323.053 413.954 322.722 414.031 322.424 414.186C322.138 414.34 321.906 414.555 321.73 414.831C321.553 415.106 321.465 415.437 321.465 415.823L320.622 415.525C320.655 414.919 320.815 414.401 321.101 413.971C321.399 413.53 321.779 413.188 322.242 412.946C322.705 412.692 323.213 412.565 323.764 412.565C324.337 412.565 324.85 412.686 325.301 412.929C325.753 413.172 326.112 413.513 326.376 413.954C326.652 414.395 326.79 414.924 326.79 415.542V420.585H325.285ZM332.949 420.75C332.353 420.75 331.813 420.629 331.328 420.387C330.854 420.133 330.474 419.786 330.187 419.345C329.901 418.904 329.741 418.402 329.708 417.84V415.475C329.741 414.902 329.901 414.401 330.187 413.971C330.485 413.53 330.871 413.188 331.345 412.946C331.83 412.692 332.364 412.565 332.949 412.565C333.665 412.565 334.31 412.747 334.883 413.111C335.468 413.475 335.925 413.965 336.256 414.583C336.586 415.2 336.752 415.894 336.752 416.666C336.752 417.438 336.586 418.132 336.256 418.75C335.925 419.367 335.468 419.857 334.883 420.221C334.31 420.574 333.665 420.75 332.949 420.75ZM328.815 423.876V412.731H330.303V414.798L330.022 416.699L330.303 418.617V423.876H328.815ZM332.701 419.345C333.197 419.345 333.632 419.229 334.007 418.998C334.382 418.766 334.679 418.452 334.9 418.055C335.12 417.647 335.231 417.179 335.231 416.65C335.231 416.131 335.12 415.668 334.9 415.261C334.679 414.853 334.382 414.538 334.007 414.318C333.632 414.087 333.202 413.971 332.717 413.971C332.221 413.971 331.786 414.087 331.411 414.318C331.036 414.538 330.744 414.853 330.534 415.261C330.325 415.668 330.22 416.137 330.22 416.666C330.22 417.184 330.32 417.647 330.518 418.055C330.727 418.452 331.02 418.766 331.394 418.998C331.78 419.229 332.216 419.345 332.701 419.345ZM341.779 420.75C341.063 420.75 340.412 420.574 339.828 420.221C339.244 419.857 338.781 419.367 338.439 418.75C338.108 418.132 337.943 417.438 337.943 416.666C337.943 415.894 338.108 415.2 338.439 414.583C338.781 413.965 339.238 413.475 339.811 413.111C340.396 412.747 341.052 412.565 341.779 412.565C342.374 412.565 342.904 412.692 343.367 412.946C343.841 413.188 344.221 413.53 344.508 413.971C344.794 414.401 344.954 414.902 344.987 415.475V417.84C344.954 418.402 344.794 418.904 344.508 419.345C344.232 419.786 343.857 420.133 343.383 420.387C342.92 420.629 342.385 420.75 341.779 420.75ZM342.027 419.345C342.766 419.345 343.361 419.097 343.813 418.601C344.265 418.094 344.491 417.449 344.491 416.666C344.491 416.126 344.386 415.657 344.177 415.261C343.978 414.853 343.692 414.538 343.317 414.318C342.942 414.087 342.507 413.971 342.011 413.971C341.515 413.971 341.074 414.087 340.688 414.318C340.313 414.549 340.015 414.869 339.795 415.277C339.585 415.674 339.481 416.131 339.481 416.65C339.481 417.179 339.585 417.647 339.795 418.055C340.015 418.452 340.319 418.766 340.704 418.998C341.09 419.229 341.531 419.345 342.027 419.345ZM344.392 420.585V418.468L344.673 416.55L344.392 414.649V412.731H345.896V420.585H344.392ZM353.619 420.585V416.005C353.619 415.409 353.432 414.919 353.057 414.533C352.682 414.147 352.197 413.954 351.602 413.954C351.205 413.954 350.852 414.042 350.543 414.219C350.235 414.395 349.992 414.638 349.816 414.946C349.64 415.255 349.551 415.608 349.551 416.005L348.94 415.657C348.94 415.062 349.072 414.533 349.336 414.07C349.601 413.607 349.97 413.243 350.444 412.979C350.918 412.703 351.453 412.565 352.048 412.565C352.644 412.565 353.167 412.714 353.619 413.012C354.082 413.309 354.446 413.701 354.71 414.186C354.975 414.66 355.107 415.167 355.107 415.707V420.585H353.619ZM348.063 420.585V412.731H349.551V420.585H348.063ZM359.702 420.651L356.295 412.731H357.949L360.479 418.931H359.95L362.612 412.731H364.266L360.595 420.651H359.702ZM357.453 423.876L359.768 419.13L360.595 420.651L359.106 423.876H357.453Z" fill="white"/>
<rect x="329.156" y="98.1807" width="205.749" height="51.6391" rx="10.3347" fill="white"/>
<path d="M362.356 120.899L366.366 124.909L370.376 120.899C370.779 120.496 371.43 120.496 371.833 120.899C372.236 121.303 372.236 121.954 371.833 122.357L367.09 127.1C366.686 127.503 366.035 127.503 365.632 127.1L360.889 122.357C360.486 121.954 360.486 121.303 360.889 120.899C361.292 120.507 361.953 120.496 362.356 120.899Z" fill="#5D6164"/>
<path d="M395.175 132.207C394.127 132.207 393.156 132.021 392.26 131.649C391.378 131.263 390.607 130.732 389.945 130.057C389.284 129.368 388.774 128.576 388.416 127.68C388.057 126.771 387.878 125.799 387.878 124.766C387.878 123.732 388.057 122.768 388.416 121.872C388.774 120.963 389.284 120.17 389.945 119.495C390.607 118.82 391.378 118.289 392.26 117.903C393.156 117.518 394.127 117.325 395.175 117.325C396.346 117.325 397.359 117.518 398.213 117.903C399.067 118.289 399.825 118.813 400.487 119.474L398.874 121.087C398.447 120.618 397.924 120.253 397.303 119.991C396.697 119.729 395.988 119.598 395.175 119.598C394.458 119.598 393.803 119.722 393.211 119.97C392.618 120.218 392.102 120.577 391.661 121.045C391.234 121.5 390.903 122.044 390.669 122.678C390.434 123.312 390.317 124.008 390.317 124.766C390.317 125.524 390.434 126.219 390.669 126.853C390.903 127.487 391.234 128.038 391.661 128.507C392.102 128.962 392.618 129.313 393.211 129.561C393.803 129.809 394.458 129.933 395.175 129.933C396.056 129.933 396.801 129.802 397.407 129.54C398.027 129.265 398.551 128.893 398.978 128.424L400.59 130.036C399.928 130.712 399.15 131.242 398.254 131.628C397.359 132.014 396.332 132.207 395.175 132.207ZM406.645 132.207C405.681 132.207 404.806 131.979 404.02 131.525C403.235 131.056 402.608 130.429 402.139 129.644C401.685 128.858 401.457 127.983 401.457 127.019C401.457 126.054 401.685 125.186 402.139 124.414C402.608 123.643 403.235 123.029 404.02 122.575C404.806 122.106 405.681 121.872 406.645 121.872C407.624 121.872 408.506 122.099 409.291 122.554C410.077 123.009 410.697 123.629 411.151 124.414C411.62 125.186 411.854 126.054 411.854 127.019C411.854 127.983 411.62 128.858 411.151 129.644C410.697 130.429 410.077 131.056 409.291 131.525C408.506 131.979 407.624 132.207 406.645 132.207ZM406.645 130.016C407.21 130.016 407.706 129.892 408.134 129.644C408.575 129.382 408.912 129.024 409.146 128.569C409.394 128.114 409.518 127.597 409.518 127.019C409.518 126.44 409.394 125.93 409.146 125.489C408.898 125.048 408.561 124.704 408.134 124.456C407.706 124.194 407.21 124.063 406.645 124.063C406.094 124.063 405.598 124.194 405.157 124.456C404.73 124.704 404.392 125.048 404.144 125.489C403.91 125.93 403.793 126.44 403.793 127.019C403.793 127.597 403.91 128.114 404.144 128.569C404.392 129.024 404.73 129.382 405.157 129.644C405.598 129.892 406.094 130.016 406.645 130.016ZM413.745 132V122.079H416.018V132H413.745ZM420.338 132V126.089C420.338 125.427 420.132 124.917 419.718 124.559C419.305 124.187 418.795 124.001 418.189 124.001C417.775 124.001 417.403 124.084 417.073 124.249C416.756 124.414 416.501 124.655 416.308 124.972C416.115 125.276 416.018 125.648 416.018 126.089L415.13 125.592C415.13 124.835 415.295 124.18 415.626 123.629C415.956 123.078 416.404 122.651 416.969 122.347C417.534 122.03 418.168 121.872 418.871 121.872C419.574 121.872 420.207 122.024 420.772 122.327C421.337 122.63 421.785 123.057 422.116 123.608C422.447 124.159 422.612 124.821 422.612 125.592V132H420.338ZM426.932 132V126.089C426.932 125.427 426.725 124.917 426.312 124.559C425.898 124.187 425.389 124.001 424.782 124.001C424.383 124.001 424.018 124.084 423.687 124.249C423.356 124.414 423.094 124.655 422.901 124.972C422.708 125.276 422.612 125.648 422.612 126.089L421.331 125.592C421.399 124.835 421.62 124.18 421.992 123.629C422.364 123.078 422.839 122.651 423.418 122.347C424.011 122.03 424.658 121.872 425.361 121.872C426.078 121.872 426.725 122.024 427.304 122.327C427.883 122.63 428.344 123.057 428.689 123.608C429.033 124.159 429.206 124.821 429.206 125.592V132H426.932ZM436.86 132.207C436.102 132.207 435.427 132.048 434.834 131.731C434.242 131.401 433.773 130.953 433.429 130.388C433.098 129.823 432.933 129.182 432.933 128.466V125.613C432.933 124.897 433.105 124.256 433.45 123.691C433.794 123.126 434.263 122.685 434.855 122.368C435.448 122.037 436.116 121.872 436.86 121.872C437.756 121.872 438.562 122.106 439.278 122.575C440.009 123.029 440.581 123.65 440.994 124.435C441.421 125.207 441.635 126.082 441.635 127.06C441.635 128.025 441.421 128.9 440.994 129.685C440.581 130.457 440.009 131.07 439.278 131.525C438.562 131.979 437.756 132.207 436.86 132.207ZM431.548 136.134V122.079H433.822V124.745L433.429 127.163L433.822 129.561V136.134H431.548ZM436.488 130.057C437.039 130.057 437.521 129.933 437.935 129.685C438.362 129.423 438.693 129.065 438.927 128.61C439.175 128.155 439.299 127.632 439.299 127.039C439.299 126.447 439.175 125.923 438.927 125.468C438.693 125.014 438.362 124.662 437.935 124.414C437.521 124.153 437.039 124.022 436.488 124.022C435.937 124.022 435.448 124.153 435.02 124.414C434.593 124.662 434.263 125.014 434.028 125.468C433.794 125.923 433.677 126.447 433.677 127.039C433.677 127.632 433.794 128.155 434.028 128.61C434.263 129.065 434.593 129.423 435.02 129.685C435.448 129.933 435.937 130.057 436.488 130.057ZM447.692 132.207C446.797 132.207 445.984 131.979 445.253 131.525C444.537 131.07 443.965 130.457 443.538 129.685C443.124 128.9 442.918 128.025 442.918 127.06C442.918 126.082 443.124 125.207 443.538 124.435C443.965 123.65 444.537 123.029 445.253 122.575C445.984 122.106 446.797 121.872 447.692 121.872C448.45 121.872 449.119 122.037 449.697 122.368C450.29 122.685 450.758 123.126 451.103 123.691C451.447 124.256 451.62 124.897 451.62 125.613V128.466C451.62 129.182 451.447 129.823 451.103 130.388C450.772 130.953 450.311 131.401 449.718 131.731C449.125 132.048 448.45 132.207 447.692 132.207ZM448.064 130.057C448.905 130.057 449.58 129.775 450.09 129.21C450.614 128.645 450.875 127.921 450.875 127.039C450.875 126.447 450.758 125.923 450.524 125.468C450.29 125.014 449.959 124.662 449.532 124.414C449.119 124.153 448.629 124.022 448.064 124.022C447.513 124.022 447.024 124.153 446.597 124.414C446.184 124.662 445.853 125.014 445.605 125.468C445.371 125.923 445.253 126.447 445.253 127.039C445.253 127.632 445.371 128.155 445.605 128.61C445.853 129.065 446.184 129.423 446.597 129.685C447.024 129.933 447.513 130.057 448.064 130.057ZM450.731 132V129.334L451.124 126.915L450.731 124.518V122.079H453.004V132H450.731ZM462.328 132V126.275C462.328 125.613 462.114 125.069 461.687 124.642C461.274 124.215 460.736 124.001 460.075 124.001C459.634 124.001 459.241 124.097 458.897 124.29C458.552 124.483 458.284 124.752 458.091 125.096C457.898 125.441 457.801 125.834 457.801 126.275L456.913 125.779C456.913 125.021 457.078 124.352 457.409 123.774C457.739 123.181 458.194 122.719 458.773 122.389C459.365 122.044 460.027 121.872 460.757 121.872C461.501 121.872 462.163 122.065 462.741 122.451C463.32 122.823 463.775 123.312 464.106 123.918C464.436 124.511 464.602 125.131 464.602 125.779V132H462.328ZM455.528 132V122.079H457.801V132H455.528ZM470.116 132.103L465.879 122.079H468.38L471.273 129.437H470.55L473.609 122.079H476.131L471.521 132.103H470.116ZM467.16 136.134L470.24 129.788L471.521 132.103L469.682 136.134H467.16Z" fill="#5D6164"/>
<path d="M499.767 118.316V116.249H495.633V118.316H499.767ZM489.432 121.416V130.718C489.432 131.286 489.897 131.751 490.466 131.751H504.934C505.503 131.751 505.968 131.286 505.968 130.718V121.416C505.968 120.848 505.503 120.383 504.934 120.383H490.466C489.897 120.383 489.432 120.848 489.432 121.416ZM505.968 118.316C507.115 118.316 508.035 119.236 508.035 120.383V131.751C508.035 132.898 507.115 133.818 505.968 133.818H489.432C488.285 133.818 487.365 132.898 487.365 131.751L487.376 120.383C487.376 119.236 488.285 118.316 489.432 118.316H493.566V116.249C493.566 115.102 494.486 114.182 495.633 114.182H499.767C500.914 114.182 501.834 115.102 501.834 116.249V118.316H505.968Z" fill="#5D6164"/>
</svg>
