<svg width="600" height="600" viewBox="0 0 600 600" fill="none" xmlns="http://www.w3.org/2000/svg">
<rect width="600" height="600" rx="8" fill="#E9ECFF"/>
<rect x="158.03" y="150.612" width="283.939" height="298.776" rx="14.4686" fill="white"/>
<path d="M179.849 188.564C179.195 188.564 178.592 188.448 178.038 188.217C177.492 187.977 177.013 187.642 176.599 187.212C176.194 186.782 175.88 186.278 175.657 185.699C175.434 185.12 175.322 184.488 175.322 183.802C175.322 183.107 175.434 182.471 175.657 181.892C175.88 181.313 176.194 180.809 176.599 180.379C177.004 179.949 177.484 179.618 178.038 179.387C178.592 179.147 179.195 179.027 179.849 179.027C180.485 179.027 181.056 179.139 181.56 179.362C182.073 179.585 182.502 179.874 182.85 180.23C183.205 180.585 183.457 180.966 183.606 181.371L182.49 181.879C182.275 181.367 181.94 180.953 181.486 180.639C181.031 180.317 180.485 180.156 179.849 180.156C179.204 180.156 178.629 180.308 178.125 180.614C177.629 180.92 177.24 181.346 176.959 181.892C176.678 182.437 176.537 183.074 176.537 183.802C176.537 184.521 176.678 185.153 176.959 185.699C177.24 186.245 177.629 186.671 178.125 186.976C178.629 187.282 179.204 187.435 179.849 187.435C180.485 187.435 181.031 187.278 181.486 186.964C181.94 186.642 182.275 186.224 182.49 185.711L183.606 186.22C183.457 186.625 183.205 187.005 182.85 187.361C182.502 187.716 182.073 188.006 181.56 188.229C181.056 188.452 180.485 188.564 179.849 188.564ZM188.177 188.564C187.532 188.564 186.949 188.415 186.428 188.117C185.907 187.811 185.494 187.394 185.188 186.865C184.882 186.336 184.729 185.736 184.729 185.067C184.729 184.397 184.878 183.802 185.175 183.281C185.481 182.76 185.895 182.347 186.416 182.041C186.936 181.735 187.523 181.582 188.177 181.582C188.822 181.582 189.404 181.735 189.925 182.041C190.446 182.338 190.855 182.747 191.153 183.268C191.459 183.789 191.612 184.389 191.612 185.067C191.612 185.745 191.455 186.348 191.141 186.877C190.826 187.398 190.409 187.811 189.888 188.117C189.375 188.415 188.805 188.564 188.177 188.564ZM188.177 187.448C188.59 187.448 188.962 187.344 189.293 187.138C189.632 186.931 189.896 186.646 190.086 186.282C190.285 185.918 190.384 185.513 190.384 185.067C190.384 184.612 190.285 184.211 190.086 183.864C189.896 183.508 189.632 183.227 189.293 183.02C188.962 182.805 188.59 182.698 188.177 182.698C187.755 182.698 187.375 182.805 187.036 183.02C186.705 183.227 186.44 183.508 186.242 183.864C186.044 184.211 185.944 184.612 185.944 185.067C185.944 185.513 186.044 185.918 186.242 186.282C186.44 186.646 186.705 186.931 187.036 187.138C187.375 187.344 187.755 187.448 188.177 187.448ZM193.116 188.415V181.731H194.245V183.095L194.083 182.884C194.249 182.462 194.513 182.14 194.877 181.917C195.241 181.693 195.65 181.582 196.105 181.582C196.626 181.582 197.093 181.726 197.506 182.016C197.928 182.305 198.217 182.685 198.374 183.157L198.052 183.169C198.226 182.648 198.519 182.256 198.933 181.991C199.346 181.718 199.805 181.582 200.309 181.582C200.772 181.582 201.19 181.689 201.562 181.904C201.942 182.119 202.244 182.417 202.467 182.797C202.69 183.177 202.802 183.607 202.802 184.087V188.415H201.636V184.459C201.636 184.087 201.57 183.773 201.438 183.516C201.305 183.26 201.123 183.062 200.892 182.921C200.669 182.772 200.404 182.698 200.098 182.698C199.801 182.698 199.532 182.772 199.292 182.921C199.061 183.062 198.875 183.264 198.734 183.529C198.602 183.785 198.536 184.095 198.536 184.459V188.415H197.37V184.459C197.37 184.087 197.304 183.773 197.171 183.516C197.039 183.26 196.857 183.062 196.626 182.921C196.403 182.772 196.138 182.698 195.832 182.698C195.534 182.698 195.266 182.772 195.026 182.921C194.795 183.062 194.608 183.264 194.468 183.529C194.336 183.785 194.27 184.095 194.27 184.459V188.415H193.116ZM204.44 190.895V181.731H205.568V183.169L205.42 182.884C205.668 182.487 206.007 182.173 206.437 181.941C206.867 181.702 207.358 181.582 207.912 181.582C208.541 181.582 209.103 181.735 209.599 182.041C210.103 182.347 210.5 182.764 210.79 183.293C211.079 183.814 211.224 184.409 211.224 185.079C211.224 185.732 211.079 186.323 210.79 186.852C210.5 187.382 210.103 187.799 209.599 188.105C209.103 188.411 208.537 188.564 207.9 188.564C207.363 188.564 206.871 188.444 206.424 188.204C205.986 187.964 205.647 187.625 205.407 187.187L205.593 186.989V190.895H204.44ZM207.813 187.448C208.235 187.448 208.611 187.344 208.942 187.138C209.272 186.931 209.529 186.65 209.711 186.294C209.901 185.931 209.996 185.525 209.996 185.079C209.996 184.616 209.901 184.211 209.711 183.864C209.529 183.508 209.272 183.227 208.942 183.02C208.611 182.805 208.235 182.698 207.813 182.698C207.392 182.698 207.011 182.801 206.672 183.008C206.342 183.215 206.077 183.5 205.879 183.864C205.688 184.219 205.593 184.624 205.593 185.079C205.593 185.525 205.688 185.931 205.879 186.294C206.077 186.65 206.342 186.931 206.672 187.138C207.011 187.344 207.392 187.448 207.813 187.448ZM214.695 188.564C214.257 188.564 213.869 188.485 213.53 188.328C213.199 188.163 212.939 187.94 212.748 187.659C212.558 187.369 212.463 187.038 212.463 186.666C212.463 186.311 212.538 185.993 212.686 185.711C212.843 185.422 213.083 185.178 213.406 184.98C213.736 184.781 214.15 184.641 214.646 184.558L217.126 184.149V185.116L214.906 185.488C214.476 185.563 214.162 185.699 213.964 185.898C213.774 186.096 213.678 186.34 213.678 186.629C213.678 186.902 213.786 187.129 214.001 187.311C214.224 187.493 214.501 187.584 214.832 187.584C215.253 187.584 215.617 187.497 215.923 187.324C216.237 187.142 216.481 186.898 216.655 186.592C216.837 186.286 216.928 185.947 216.928 185.575V183.876C216.928 183.512 216.791 183.219 216.518 182.996C216.254 182.764 215.902 182.648 215.464 182.648C215.084 182.648 214.745 182.747 214.447 182.946C214.158 183.136 213.943 183.392 213.802 183.715L212.798 183.194C212.922 182.888 213.12 182.615 213.393 182.375C213.666 182.127 213.984 181.933 214.348 181.793C214.712 181.652 215.092 181.582 215.489 181.582C216.002 181.582 216.452 181.681 216.841 181.879C217.229 182.07 217.531 182.338 217.746 182.685C217.969 183.024 218.081 183.421 218.081 183.876V188.415H216.953V187.15L217.163 187.224C217.023 187.489 216.833 187.721 216.593 187.919C216.353 188.117 216.072 188.274 215.75 188.39C215.427 188.506 215.076 188.564 214.695 188.564ZM219.869 188.415V181.731H220.998V183.033L220.812 182.921C220.977 182.499 221.242 182.173 221.606 181.941C221.978 181.702 222.412 181.582 222.908 181.582C223.387 181.582 223.813 181.689 224.185 181.904C224.565 182.119 224.863 182.417 225.078 182.797C225.301 183.177 225.413 183.607 225.413 184.087V188.415H224.247V184.459C224.247 184.087 224.181 183.773 224.049 183.516C223.916 183.26 223.726 183.062 223.478 182.921C223.238 182.772 222.961 182.698 222.647 182.698C222.333 182.698 222.052 182.772 221.804 182.921C221.564 183.062 221.374 183.264 221.233 183.529C221.093 183.785 221.023 184.095 221.023 184.459V188.415H219.869ZM227.063 188.415V181.731H228.217V188.415H227.063ZM227.063 180.664V179.176H228.217V180.664H227.063ZM233.082 188.564C232.437 188.564 231.862 188.411 231.358 188.105C230.854 187.799 230.457 187.382 230.167 186.852C229.878 186.315 229.733 185.716 229.733 185.054C229.733 184.385 229.874 183.789 230.155 183.268C230.444 182.747 230.833 182.338 231.321 182.041C231.817 181.735 232.371 181.582 232.983 181.582C233.479 181.582 233.917 181.673 234.297 181.855C234.686 182.028 235.012 182.268 235.277 182.574C235.55 182.872 235.756 183.215 235.897 183.603C236.046 183.984 236.12 184.38 236.12 184.794C236.12 184.885 236.112 184.988 236.095 185.104C236.087 185.211 236.075 185.315 236.058 185.414H230.577V184.422H235.389L234.843 184.868C234.917 184.438 234.876 184.054 234.719 183.715C234.562 183.376 234.33 183.107 234.024 182.909C233.718 182.71 233.371 182.611 232.983 182.611C232.594 182.611 232.238 182.71 231.916 182.909C231.594 183.107 231.341 183.392 231.16 183.764C230.986 184.128 230.916 184.562 230.949 185.067C230.916 185.554 230.99 185.984 231.172 186.356C231.362 186.72 231.627 187.005 231.966 187.212C232.313 187.411 232.689 187.51 233.094 187.51C233.541 187.51 233.917 187.406 234.223 187.2C234.529 186.993 234.777 186.728 234.967 186.406L235.934 186.902C235.802 187.208 235.595 187.489 235.314 187.745C235.041 187.993 234.715 188.192 234.334 188.341C233.962 188.489 233.545 188.564 233.082 188.564ZM240.018 188.564C239.348 188.564 238.765 188.399 238.269 188.068C237.773 187.737 237.421 187.291 237.215 186.728L238.132 186.282C238.323 186.679 238.583 186.993 238.914 187.224C239.244 187.456 239.612 187.572 240.018 187.572C240.381 187.572 240.683 187.485 240.923 187.311C241.163 187.138 241.282 186.91 241.282 186.629C241.282 186.431 241.225 186.274 241.109 186.158C241.001 186.034 240.869 185.939 240.712 185.873C240.555 185.798 240.41 185.745 240.278 185.711L239.273 185.426C238.67 185.253 238.228 185.005 237.946 184.682C237.674 184.36 237.537 183.984 237.537 183.554C237.537 183.157 237.636 182.814 237.835 182.524C238.042 182.227 238.318 181.995 238.666 181.83C239.021 181.664 239.418 181.582 239.856 181.582C240.443 181.582 240.968 181.731 241.431 182.028C241.903 182.326 242.237 182.743 242.436 183.281L241.493 183.715C241.344 183.368 241.121 183.095 240.824 182.896C240.526 182.69 240.191 182.586 239.819 182.586C239.48 182.586 239.211 182.673 239.013 182.847C238.815 183.012 238.715 183.223 238.715 183.479C238.715 183.669 238.765 183.826 238.864 183.95C238.963 184.066 239.083 184.157 239.224 184.223C239.364 184.281 239.501 184.331 239.633 184.372L240.724 184.695C241.27 184.852 241.692 185.096 241.989 185.426C242.295 185.757 242.448 186.154 242.448 186.617C242.448 186.989 242.345 187.324 242.138 187.621C241.932 187.919 241.646 188.15 241.282 188.316C240.919 188.481 240.497 188.564 240.018 188.564Z" fill="#8F9396"/>
<path fill-rule="evenodd" clip-rule="evenodd" d="M194.603 212.923C194.326 212.176 193.666 211.638 192.877 211.521L183.439 210.111C182.655 209.993 181.873 210.342 181.435 211.003L175.84 219.448C175.477 219.995 175.474 220.715 175.83 221.266L180.374 228.289C180.741 228.857 181.303 229.271 181.953 229.454L191.101 232.033C191.773 232.223 192.482 231.912 192.801 231.292L197.289 222.539C197.61 221.912 197.653 221.178 197.41 220.519L194.603 212.923Z" fill="#ED3338"/>
<path fill-rule="evenodd" clip-rule="evenodd" d="M190.101 214.789C190.641 214.881 190.763 215.476 190.364 216.115C190.032 216.649 189.446 217.042 188.949 217.1C188.106 217.914 187.266 218.724 186.422 219.538C186.359 220.339 185.302 221.327 184.508 221.155C183.988 221.042 183.891 220.439 184.289 219.805C184.392 219.64 184.518 219.49 184.658 219.359C184.599 218.896 184.539 218.434 184.48 217.972C184.281 218 184.059 217.976 183.904 217.837C183.238 218.211 182.571 218.585 181.904 218.959C181.666 219.58 180.826 220.357 180.134 220.208C179.643 220.101 179.563 219.517 179.953 218.9C180.124 218.629 180.358 218.397 180.608 218.23L181.021 216.573C181.001 216.571 180.981 216.568 180.961 216.564C179.937 216.367 180.903 214.921 181.558 214.547L182 213.029C181.089 212.644 182.431 210.722 183.514 210.889C184.535 211.047 183.608 212.451 183.002 212.829L182.54 214.419C183.206 214.789 182.483 215.839 182.054 216.183L181.606 217.98C181.645 217.991 181.681 218.006 181.715 218.024C182.436 217.619 183.158 217.214 183.88 216.809C184.164 216.252 184.939 215.584 185.6 215.705C186.116 215.799 186.22 216.384 185.826 217.012C185.695 217.22 185.526 217.407 185.34 217.559C185.397 217.996 185.453 218.432 185.509 218.869C185.625 218.84 185.738 218.828 185.844 218.835C186.624 218.082 187.402 217.333 188.182 216.58C188.084 215.728 189.277 214.647 190.101 214.789Z" fill="white"/>
<path fill-rule="evenodd" clip-rule="evenodd" d="M177.433 221.633C178.514 221.895 179.84 223.836 178.705 223.536C177.661 223.258 176.326 221.363 177.433 221.633Z" fill="white"/>
<path fill-rule="evenodd" clip-rule="evenodd" d="M180.22 224.714C181.276 225.006 182.514 226.796 181.363 226.456C180.343 226.154 179.093 224.403 180.22 224.714Z" fill="white"/>
<path fill-rule="evenodd" clip-rule="evenodd" d="M183.17 227.691C184.208 228.007 185.367 229.67 184.192 229.291C183.19 228.969 182.016 227.339 183.17 227.691Z" fill="white"/>
<path fill-rule="evenodd" clip-rule="evenodd" d="M184.171 226.279C185.334 226.607 186.494 228.415 185.231 228.036C184.116 227.7 182.933 225.929 184.171 226.279Z" fill="white"/>
<path fill-rule="evenodd" clip-rule="evenodd" d="M187.511 229.014C188.688 229.372 189.764 231.085 188.453 230.662C187.321 230.299 186.221 228.621 187.511 229.014Z" fill="white"/>
<path fill-rule="evenodd" clip-rule="evenodd" d="M187.096 226.01C188.413 226.362 189.527 228.303 188.129 227.901C186.862 227.536 185.728 225.644 187.096 226.01Z" fill="white"/>
<path fill-rule="evenodd" clip-rule="evenodd" d="M189.041 222.345C189.729 220.942 190.752 223.186 190.095 224.567C189.414 225.994 188.356 223.739 189.041 222.345Z" fill="white"/>
<path fill-rule="evenodd" clip-rule="evenodd" d="M191.116 224.542C191.744 223.207 192.604 225.242 192.015 226.527C191.393 227.885 190.504 225.843 191.116 224.542Z" fill="white"/>
<path fill-rule="evenodd" clip-rule="evenodd" d="M193.098 226.053C193.673 224.783 194.388 226.662 193.863 227.848C193.293 229.136 192.553 227.256 193.098 226.053Z" fill="white"/>
<path fill-rule="evenodd" clip-rule="evenodd" d="M193.263 221.18C193.851 219.917 194.587 222.028 194.045 223.22C193.462 224.503 192.7 222.389 193.263 221.18Z" fill="white"/>
<path fill-rule="evenodd" clip-rule="evenodd" d="M195.119 221.586C195.664 220.382 196.277 222.391 195.789 223.493C195.249 224.715 194.614 222.703 195.119 221.586Z" fill="white"/>
<path fill-rule="evenodd" clip-rule="evenodd" d="M194.382 216.153C194.961 214.932 195.657 217.241 195.124 218.395C194.549 219.638 193.829 217.321 194.382 216.153Z" fill="white"/>
<path d="M211.919 229.088L207.227 214.744H209.17L212.89 226.443H212.332L215.991 214.744H217.396L221.055 226.443H220.517L224.238 214.744H226.16L221.489 229.088H220.104L216.425 217.41H216.962L213.304 229.088H211.919ZM230.877 229.295C229.981 229.295 229.168 229.075 228.438 228.634C227.708 228.179 227.129 227.566 226.702 226.794C226.288 226.022 226.082 225.154 226.082 224.19C226.082 223.225 226.288 222.357 226.702 221.585C227.129 220.814 227.701 220.201 228.417 219.746C229.148 219.291 229.967 219.064 230.877 219.064C231.621 219.064 232.282 219.222 232.861 219.539C233.454 219.842 233.929 220.269 234.287 220.821C234.646 221.358 234.845 221.985 234.887 222.702V225.657C234.845 226.36 234.646 226.987 234.287 227.538C233.943 228.089 233.474 228.523 232.882 228.84C232.303 229.143 231.635 229.295 230.877 229.295ZM231.187 227.538C232.11 227.538 232.854 227.228 233.419 226.608C233.984 225.974 234.267 225.168 234.267 224.19C234.267 223.515 234.136 222.929 233.874 222.433C233.626 221.923 233.268 221.53 232.799 221.255C232.331 220.965 231.786 220.821 231.166 220.821C230.546 220.821 229.995 220.965 229.513 221.255C229.044 221.544 228.672 221.944 228.397 222.453C228.135 222.95 228.004 223.521 228.004 224.169C228.004 224.83 228.135 225.416 228.397 225.926C228.672 226.422 229.051 226.815 229.533 227.104C230.016 227.393 230.567 227.538 231.187 227.538ZM234.143 229.088V226.443L234.494 224.045L234.143 221.668V219.27H236.024V229.088H234.143ZM238.732 229.088V214.33H240.592V229.088H238.732ZM249.597 229.088L245.009 224.066L249.556 219.27H251.809L246.745 224.562L246.828 223.487L251.995 229.088H249.597ZM243.314 229.088V214.33H245.174V229.088H243.314ZM257.528 229.295C256.564 229.295 255.696 229.068 254.924 228.613C254.152 228.158 253.539 227.545 253.084 226.773C252.63 225.988 252.402 225.113 252.402 224.148C252.402 223.198 252.63 222.343 253.084 221.585C253.539 220.814 254.152 220.201 254.924 219.746C255.696 219.291 256.564 219.064 257.528 219.064C258.479 219.064 259.34 219.291 260.112 219.746C260.897 220.187 261.517 220.793 261.972 221.565C262.427 222.336 262.654 223.198 262.654 224.148C262.654 225.113 262.427 225.988 261.972 226.773C261.517 227.545 260.897 228.158 260.112 228.613C259.34 229.068 258.479 229.295 257.528 229.295ZM257.528 227.497C258.148 227.497 258.7 227.352 259.182 227.063C259.664 226.773 260.043 226.381 260.319 225.885C260.594 225.375 260.732 224.796 260.732 224.148C260.732 223.515 260.587 222.95 260.298 222.453C260.022 221.957 259.643 221.572 259.161 221.296C258.693 221.007 258.148 220.862 257.528 220.862C256.908 220.862 256.357 221.007 255.875 221.296C255.392 221.572 255.013 221.957 254.738 222.453C254.462 222.95 254.325 223.515 254.325 224.148C254.325 224.796 254.462 225.375 254.738 225.885C255.013 226.381 255.392 226.773 255.875 227.063C256.357 227.352 256.908 227.497 257.528 227.497ZM267.736 229.088L263.23 219.27H265.297L268.914 227.559H267.715L271.353 219.27H273.337L268.831 229.088H267.736ZM279.087 229.295C278.109 229.295 277.227 229.075 276.442 228.634C275.656 228.179 275.036 227.566 274.581 226.794C274.127 226.022 273.899 225.147 273.899 224.169C273.899 223.204 274.12 222.336 274.561 221.565C275.015 220.793 275.622 220.187 276.38 219.746C277.151 219.291 278.012 219.064 278.963 219.064C279.873 219.064 280.672 219.27 281.361 219.684C282.064 220.097 282.608 220.669 282.994 221.399C283.393 222.13 283.593 222.956 283.593 223.88C283.593 224.017 283.586 224.169 283.573 224.334C283.559 224.486 283.531 224.665 283.49 224.872H275.201V223.322H282.498L281.816 223.921C281.816 223.26 281.699 222.702 281.464 222.247C281.23 221.778 280.899 221.42 280.472 221.172C280.045 220.91 279.528 220.779 278.922 220.779C278.288 220.779 277.73 220.917 277.248 221.193C276.765 221.468 276.393 221.854 276.132 222.35C275.87 222.846 275.739 223.432 275.739 224.107C275.739 224.796 275.877 225.402 276.152 225.926C276.428 226.436 276.821 226.835 277.33 227.125C277.84 227.4 278.426 227.538 279.087 227.538C279.638 227.538 280.141 227.442 280.596 227.249C281.065 227.056 281.464 226.767 281.795 226.381L282.994 227.6C282.525 228.151 281.947 228.572 281.258 228.861C280.582 229.15 279.859 229.295 279.087 229.295ZM285.622 229.088V219.27H287.482V229.088H285.622ZM287.482 223.487L286.779 223.177C286.779 221.923 287.068 220.924 287.647 220.18C288.226 219.436 289.06 219.064 290.148 219.064C290.644 219.064 291.092 219.153 291.492 219.332C291.891 219.498 292.263 219.78 292.608 220.18L291.388 221.441C291.182 221.22 290.954 221.062 290.706 220.965C290.458 220.869 290.169 220.821 289.838 220.821C289.149 220.821 288.584 221.041 288.143 221.482C287.702 221.923 287.482 222.591 287.482 223.487Z" fill="#3F4346"/>
<path fill-rule="evenodd" clip-rule="evenodd" d="M176.654 267.881L196.437 260.968C196.465 260.959 196.495 260.961 196.521 260.974C196.547 260.987 196.567 261.009 196.577 261.037C196.581 261.048 196.583 261.061 196.583 261.073V278.851C196.583 278.88 196.571 278.909 196.55 278.93C196.53 278.951 196.501 278.962 196.472 278.962H196.457L176.671 277.997C176.643 277.996 176.616 277.984 176.596 277.963C176.576 277.942 176.565 277.914 176.565 277.886V267.99C176.565 267.964 176.574 267.94 176.59 267.92C176.607 267.9 176.629 267.886 176.654 267.881ZM178.814 269.785C178.716 269.766 178.615 269.784 178.53 269.836C178.445 269.888 178.382 269.97 178.355 270.066C178.327 270.162 178.336 270.264 178.38 270.354C178.423 270.443 178.499 270.513 178.592 270.55L185.82 272.64L185.981 272.507L193.179 266.569C193.225 266.538 193.265 266.497 193.294 266.45C193.324 266.403 193.344 266.35 193.352 266.294C193.36 266.239 193.357 266.183 193.342 266.129C193.327 266.075 193.301 266.025 193.265 265.981C193.23 265.938 193.186 265.903 193.136 265.878C193.086 265.853 193.031 265.839 192.975 265.836C192.919 265.833 192.863 265.842 192.811 265.863C192.759 265.883 192.712 265.914 192.672 265.954L185.637 271.76L178.814 269.785Z" fill="#1E75BA"/>
<path d="M208.26 277.962V263.618H209.625L215.701 273.601H214.771L220.848 263.618H222.212V277.962H220.269V267.028L220.724 267.152L215.929 275.027H214.564L209.769 267.152L210.203 267.028V277.962H208.26ZM229.306 278.169C228.176 278.169 227.211 277.962 226.412 277.549C225.613 277.136 224.903 276.536 224.283 275.751L225.606 274.428C226.061 275.062 226.584 275.544 227.177 275.875C227.769 276.192 228.5 276.35 229.368 276.35C230.222 276.35 230.904 276.164 231.414 275.792C231.938 275.42 232.2 274.91 232.2 274.263C232.2 273.725 232.076 273.291 231.827 272.96C231.579 272.63 231.242 272.361 230.815 272.154C230.401 271.934 229.947 271.741 229.45 271.576C228.954 271.396 228.458 271.21 227.962 271.017C227.466 270.811 227.012 270.563 226.598 270.273C226.185 269.97 225.847 269.578 225.585 269.095C225.337 268.613 225.213 268.007 225.213 267.276C225.213 266.463 225.406 265.774 225.792 265.209C226.192 264.631 226.729 264.19 227.404 263.887C228.093 263.57 228.865 263.411 229.719 263.411C230.656 263.411 231.497 263.597 232.241 263.969C232.985 264.327 233.591 264.803 234.06 265.395L232.737 266.718C232.31 266.222 231.848 265.85 231.352 265.602C230.87 265.354 230.312 265.23 229.678 265.23C228.906 265.23 228.293 265.402 227.838 265.747C227.384 266.077 227.156 266.546 227.156 267.152C227.156 267.635 227.28 268.027 227.528 268.33C227.79 268.62 228.128 268.868 228.541 269.075C228.954 269.281 229.409 269.474 229.905 269.653C230.415 269.819 230.918 270.005 231.414 270.211C231.91 270.418 232.365 270.68 232.778 270.997C233.192 271.314 233.522 271.727 233.77 272.237C234.032 272.733 234.163 273.36 234.163 274.118C234.163 275.386 233.722 276.378 232.84 277.094C231.972 277.811 230.794 278.169 229.306 278.169ZM243.332 278.169C242.327 278.169 241.383 277.983 240.501 277.611C239.633 277.225 238.868 276.695 238.206 276.019C237.559 275.344 237.049 274.559 236.677 273.663C236.305 272.767 236.119 271.803 236.119 270.769C236.119 269.736 236.305 268.778 236.677 267.896C237.049 267.001 237.566 266.215 238.227 265.54C238.889 264.865 239.66 264.341 240.542 263.969C241.438 263.597 242.409 263.411 243.456 263.411C244.6 263.411 245.654 263.632 246.619 264.073C247.583 264.514 248.39 265.147 249.037 265.974L247.694 267.318C247.239 266.656 246.64 266.153 245.895 265.809C245.151 265.451 244.338 265.271 243.456 265.271C242.409 265.271 241.479 265.506 240.666 265.974C239.867 266.443 239.24 267.09 238.785 267.917C238.344 268.744 238.124 269.695 238.124 270.769C238.124 271.858 238.351 272.816 238.806 273.642C239.261 274.469 239.874 275.117 240.645 275.585C241.417 276.054 242.299 276.288 243.291 276.288C244.297 276.288 245.165 276.095 245.895 275.709C246.64 275.324 247.211 274.759 247.611 274.015C248.011 273.257 248.21 272.333 248.21 271.245L249.389 272.092H243.188V270.315H250.215V270.604C250.215 272.271 249.919 273.67 249.327 274.8C248.748 275.916 247.935 276.757 246.888 277.322C245.854 277.887 244.669 278.169 243.332 278.169ZM254.172 277.962L258.492 272.072L259.195 271.7C259.03 271.975 258.83 272.216 258.595 272.423C258.361 272.63 258.072 272.788 257.727 272.898C257.397 273.009 256.99 273.064 256.508 273.064C255.681 273.064 254.916 272.864 254.214 272.464C253.525 272.065 252.973 271.514 252.56 270.811C252.147 270.094 251.94 269.288 251.94 268.392C251.94 267.469 252.167 266.636 252.622 265.891C253.077 265.134 253.683 264.534 254.441 264.093C255.199 263.639 256.039 263.411 256.963 263.411C257.9 263.411 258.747 263.632 259.505 264.073C260.263 264.514 260.862 265.106 261.303 265.85C261.744 266.58 261.965 267.407 261.965 268.33C261.965 269.598 261.524 270.859 260.642 272.113L256.425 277.962H254.172ZM256.963 271.534C257.541 271.534 258.058 271.396 258.513 271.121C258.981 270.831 259.346 270.453 259.608 269.984C259.884 269.502 260.022 268.971 260.022 268.392C260.022 267.786 259.884 267.249 259.608 266.78C259.346 266.298 258.981 265.919 258.513 265.643C258.058 265.368 257.541 265.23 256.963 265.23C256.384 265.23 255.86 265.368 255.392 265.643C254.937 265.919 254.572 266.298 254.296 266.78C254.021 267.249 253.883 267.786 253.883 268.392C253.883 268.985 254.021 269.516 254.296 269.984C254.572 270.453 254.944 270.831 255.412 271.121C255.881 271.396 256.398 271.534 256.963 271.534ZM266.195 277.962V263.618H268.117V277.962H266.195ZM263.26 265.354V263.618H267.91V265.354H263.26Z" fill="#3F4346"/>
<path fill-rule="evenodd" clip-rule="evenodd" d="M184.806 323.888H181.198C178.212 323.888 175.565 322.141 175.565 318.89C175.565 315.213 178.268 313.836 181.495 313.836H184.806V318.534H182.599V315.881H181.297C179.429 315.881 177.858 316.803 177.858 318.777C177.858 321.062 179.4 321.843 181.452 321.843H184.806L184.806 323.888Z" fill="#1A237E"/>
<path fill-rule="evenodd" clip-rule="evenodd" d="M188.324 313.836H191.933C194.919 313.836 197.565 315.583 197.565 318.834C197.565 322.511 194.862 323.888 191.636 323.888H188.324V319.19H190.532V321.843H191.834C193.702 321.843 195.273 320.921 195.273 318.947C195.273 316.662 193.73 315.881 191.678 315.881H188.324L188.324 313.836Z" fill="#1A237E"/>
<path d="M214.751 327.043C213.745 327.043 212.801 326.857 211.919 326.485C211.051 326.099 210.286 325.569 209.625 324.894C208.977 324.218 208.467 323.433 208.095 322.537C207.723 321.642 207.537 320.677 207.537 319.643C207.537 318.61 207.723 317.652 208.095 316.77C208.467 315.875 208.984 315.089 209.645 314.414C210.307 313.739 211.078 313.215 211.96 312.843C212.856 312.471 213.827 312.285 214.875 312.285C216.018 312.285 217.072 312.506 218.037 312.947C219.002 313.388 219.808 314.021 220.455 314.848L219.112 316.192C218.657 315.53 218.058 315.027 217.314 314.683C216.569 314.325 215.756 314.145 214.875 314.145C213.827 314.145 212.897 314.38 212.084 314.848C211.285 315.317 210.658 315.964 210.203 316.791C209.762 317.618 209.542 318.569 209.542 319.643C209.542 320.732 209.769 321.69 210.224 322.517C210.679 323.343 211.292 323.991 212.063 324.459C212.835 324.928 213.717 325.162 214.709 325.162C215.715 325.162 216.583 324.969 217.314 324.583C218.058 324.198 218.629 323.633 219.029 322.889C219.429 322.131 219.628 321.207 219.628 320.119L220.807 320.966H214.606V319.189H221.633V319.478C221.633 321.145 221.337 322.544 220.745 323.674C220.166 324.79 219.353 325.631 218.306 326.196C217.272 326.761 216.087 327.043 214.751 327.043ZM223.937 326.836V317.018H225.797V326.836H223.937ZM224.867 315.055C224.522 315.055 224.24 314.945 224.019 314.724C223.799 314.49 223.689 314.201 223.689 313.856C223.689 313.525 223.799 313.25 224.019 313.029C224.24 312.795 224.522 312.678 224.867 312.678C225.211 312.678 225.494 312.795 225.714 313.029C225.935 313.25 226.045 313.525 226.045 313.856C226.045 314.201 225.935 314.49 225.714 314.724C225.494 314.945 225.211 315.055 224.867 315.055ZM232.693 327.043C231.784 327.043 230.971 326.823 230.254 326.382C229.537 325.927 228.966 325.314 228.538 324.542C228.125 323.77 227.918 322.902 227.918 321.938C227.918 320.973 228.125 320.105 228.538 319.333C228.966 318.562 229.537 317.949 230.254 317.494C230.971 317.039 231.784 316.812 232.693 316.812C233.423 316.812 234.085 316.97 234.677 317.287C235.27 317.59 235.745 318.017 236.103 318.569C236.476 319.106 236.682 319.733 236.724 320.45V323.405C236.682 324.108 236.482 324.735 236.124 325.286C235.766 325.837 235.29 326.271 234.698 326.588C234.105 326.892 233.437 327.043 232.693 327.043ZM233.003 325.286C233.623 325.286 234.161 325.142 234.615 324.852C235.084 324.563 235.449 324.17 235.711 323.674C235.973 323.164 236.103 322.585 236.103 321.938C236.103 321.263 235.966 320.677 235.69 320.181C235.428 319.685 235.063 319.292 234.595 319.003C234.14 318.713 233.602 318.569 232.982 318.569C232.362 318.569 231.818 318.713 231.35 319.003C230.881 319.292 230.509 319.692 230.233 320.202C229.972 320.698 229.841 321.269 229.841 321.917C229.841 322.579 229.972 323.164 230.233 323.674C230.509 324.17 230.881 324.563 231.35 324.852C231.832 325.142 232.383 325.286 233.003 325.286ZM237.86 326.836H235.979V324.191L236.331 321.793L235.979 319.416V312.078H237.86V326.836ZM244.723 327.043C243.814 327.043 243.001 326.823 242.284 326.382C241.568 325.927 240.996 325.314 240.569 324.542C240.155 323.77 239.949 322.902 239.949 321.938C239.949 320.973 240.155 320.105 240.569 319.333C240.996 318.562 241.568 317.949 242.284 317.494C243.001 317.039 243.814 316.812 244.723 316.812C245.454 316.812 246.115 316.97 246.708 317.287C247.3 317.59 247.775 318.017 248.134 318.569C248.506 319.106 248.712 319.733 248.754 320.45V323.405C248.712 324.108 248.513 324.735 248.154 325.286C247.796 325.837 247.321 326.271 246.728 326.588C246.136 326.892 245.467 327.043 244.723 327.043ZM245.033 325.286C245.653 325.286 246.191 325.142 246.646 324.852C247.114 324.563 247.479 324.17 247.741 323.674C248.003 323.164 248.134 322.585 248.134 321.938C248.134 321.263 247.996 320.677 247.72 320.181C247.459 319.685 247.093 319.292 246.625 319.003C246.17 318.713 245.633 318.569 245.013 318.569C244.393 318.569 243.848 318.713 243.38 319.003C242.911 319.292 242.539 319.692 242.264 320.202C242.002 320.698 241.871 321.269 241.871 321.917C241.871 322.579 242.002 323.164 242.264 323.674C242.539 324.17 242.911 324.563 243.38 324.852C243.862 325.142 244.413 325.286 245.033 325.286ZM249.891 326.836H248.01V324.191L248.361 321.793L248.01 319.416V312.078H249.891V326.836ZM259.544 326.836V321.111C259.544 320.367 259.31 319.754 258.841 319.271C258.373 318.789 257.766 318.548 257.022 318.548C256.526 318.548 256.085 318.658 255.699 318.879C255.314 319.099 255.01 319.402 254.79 319.788C254.569 320.174 254.459 320.615 254.459 321.111L253.694 320.677C253.694 319.933 253.86 319.271 254.19 318.693C254.521 318.114 254.983 317.659 255.575 317.328C256.168 316.984 256.836 316.812 257.58 316.812C258.324 316.812 258.979 316.977 259.544 317.308C260.123 317.639 260.577 318.1 260.908 318.693C261.239 319.285 261.404 319.967 261.404 320.739V326.836H259.544ZM252.599 326.836V312.078H254.459V326.836H252.599Z" fill="#3F4346"/>
<path d="M176.565 361.71C176.565 360.054 177.909 358.71 179.565 358.71H193.565C195.222 358.71 196.565 360.054 196.565 361.71V370.71C196.565 372.367 195.222 373.71 193.565 373.71H179.565C177.909 373.71 176.565 372.367 176.565 370.71V361.71Z" fill="#F2CA55"/>
<path fill-rule="evenodd" clip-rule="evenodd" d="M184.416 366.71C184.416 367.898 185.378 368.86 186.566 368.86C187.753 368.86 188.716 367.898 188.716 366.71H190.416C190.416 368.837 188.692 370.56 186.566 370.56C184.44 370.56 182.716 368.837 182.716 366.71H184.416Z" fill="#8C5D00"/>
<path fill-rule="evenodd" clip-rule="evenodd" d="M183.716 364.71V362.21H185.416V364.71H183.716ZM187.716 364.71V362.21H189.416V364.71H187.716Z" fill="#8C5D00"/>
<path d="M188.565 373.71V376.71L184.565 373.71H188.565Z" fill="#8C5D00"/>
<path d="M208.26 375.71V361.366H210.203V375.71H208.26ZM217.52 375.71V361.366H219.463V375.71H217.52ZM209.583 369.179V367.401H217.996V369.179H209.583ZM227.071 375.917C226.092 375.917 225.21 375.697 224.425 375.256C223.639 374.801 223.019 374.188 222.565 373.416C222.11 372.644 221.883 371.769 221.883 370.791C221.883 369.827 222.103 368.958 222.544 368.187C222.999 367.415 223.605 366.809 224.363 366.368C225.135 365.913 225.996 365.686 226.947 365.686C227.856 365.686 228.655 365.892 229.344 366.306C230.047 366.719 230.591 367.291 230.977 368.021C231.377 368.752 231.577 369.579 231.577 370.502C231.577 370.64 231.57 370.791 231.556 370.956C231.542 371.108 231.515 371.287 231.473 371.494H223.185V369.944H230.481L229.799 370.543C229.799 369.882 229.682 369.324 229.448 368.869C229.213 368.4 228.883 368.042 228.455 367.794C228.028 367.532 227.512 367.401 226.905 367.401C226.271 367.401 225.713 367.539 225.231 367.815C224.749 368.09 224.377 368.476 224.115 368.972C223.853 369.468 223.722 370.054 223.722 370.729C223.722 371.418 223.86 372.024 224.136 372.548C224.411 373.058 224.804 373.457 225.314 373.747C225.824 374.022 226.409 374.16 227.071 374.16C227.622 374.16 228.125 374.064 228.579 373.871C229.048 373.678 229.448 373.389 229.778 373.003L230.977 374.222C230.509 374.773 229.93 375.194 229.241 375.483C228.566 375.772 227.842 375.917 227.071 375.917ZM233.605 375.71V360.952H235.465V375.71H233.605ZM238.187 375.71V360.952H240.047V375.71H238.187ZM247.254 375.917C246.29 375.917 245.421 375.69 244.65 375.235C243.878 374.78 243.265 374.167 242.81 373.395C242.355 372.61 242.128 371.735 242.128 370.77C242.128 369.82 242.355 368.965 242.81 368.207C243.265 367.436 243.878 366.823 244.65 366.368C245.421 365.913 246.29 365.686 247.254 365.686C248.205 365.686 249.066 365.913 249.838 366.368C250.623 366.809 251.243 367.415 251.698 368.187C252.153 368.958 252.38 369.82 252.38 370.77C252.38 371.735 252.153 372.61 251.698 373.395C251.243 374.167 250.623 374.78 249.838 375.235C249.066 375.69 248.205 375.917 247.254 375.917ZM247.254 374.119C247.874 374.119 248.425 373.974 248.908 373.685C249.39 373.395 249.769 373.003 250.044 372.507C250.32 371.997 250.458 371.418 250.458 370.77C250.458 370.137 250.313 369.572 250.024 369.076C249.748 368.58 249.369 368.194 248.887 367.918C248.418 367.629 247.874 367.484 247.254 367.484C246.634 367.484 246.083 367.629 245.601 367.918C245.118 368.194 244.739 368.58 244.464 369.076C244.188 369.572 244.05 370.137 244.05 370.77C244.05 371.418 244.188 371.997 244.464 372.507C244.739 373.003 245.118 373.395 245.601 373.685C246.083 373.974 246.634 374.119 247.254 374.119Z" fill="#3F4346"/>
<rect x="166.298" y="395.317" width="267.403" height="37.5355" rx="6.20082" fill="#1A237E"/>
<path d="M216.528 414.946H211.361V420.113H209.638V414.946H204.471V413.224H209.638V408.056H211.361V413.224H216.528V414.946Z" fill="white"/>
<path d="M225.347 420.585L230.043 409.109H231.167L235.847 420.585H234.16L230.307 410.879H230.886L227 420.585H225.347ZM227.579 417.989V416.633H233.614V417.989H227.579ZM240.262 420.75C239.534 420.75 238.884 420.574 238.311 420.221C237.737 419.857 237.28 419.367 236.938 418.75C236.608 418.132 236.442 417.438 236.442 416.666C236.442 415.894 236.608 415.2 236.938 414.583C237.28 413.965 237.737 413.475 238.311 413.111C238.884 412.747 239.534 412.565 240.262 412.565C240.846 412.565 241.375 412.692 241.849 412.946C242.323 413.188 242.704 413.53 242.99 413.971C243.288 414.401 243.453 414.902 243.486 415.475V417.84C243.453 418.402 243.293 418.904 243.007 419.345C242.72 419.786 242.34 420.133 241.866 420.387C241.392 420.629 240.857 420.75 240.262 420.75ZM240.51 419.345C241.006 419.345 241.436 419.229 241.8 418.998C242.174 418.766 242.467 418.452 242.676 418.055C242.886 417.647 242.99 417.184 242.99 416.666C242.99 416.126 242.88 415.657 242.66 415.261C242.45 414.864 242.158 414.549 241.783 414.318C241.419 414.087 240.989 413.971 240.493 413.971C239.997 413.971 239.562 414.087 239.187 414.318C238.812 414.549 238.515 414.869 238.294 415.277C238.085 415.674 237.98 416.131 237.98 416.65C237.98 417.179 238.085 417.647 238.294 418.055C238.515 418.452 238.812 418.766 239.187 418.998C239.573 419.229 240.014 419.345 240.51 419.345ZM244.396 420.585H242.891V418.468L243.172 416.55L242.891 414.649V408.779H244.396V420.585ZM249.886 420.75C249.159 420.75 248.508 420.574 247.935 420.221C247.362 419.857 246.904 419.367 246.562 418.75C246.232 418.132 246.066 417.438 246.066 416.666C246.066 415.894 246.232 415.2 246.562 414.583C246.904 413.965 247.362 413.475 247.935 413.111C248.508 412.747 249.159 412.565 249.886 412.565C250.47 412.565 250.999 412.692 251.473 412.946C251.948 413.188 252.328 413.53 252.614 413.971C252.912 414.401 253.077 414.902 253.111 415.475V417.84C253.077 418.402 252.918 418.904 252.631 419.345C252.344 419.786 251.964 420.133 251.49 420.387C251.016 420.629 250.481 420.75 249.886 420.75ZM250.134 419.345C250.63 419.345 251.06 419.229 251.424 418.998C251.799 418.766 252.091 418.452 252.3 418.055C252.51 417.647 252.614 417.184 252.614 416.666C252.614 416.126 252.504 415.657 252.284 415.261C252.074 414.864 251.782 414.549 251.407 414.318C251.044 414.087 250.614 413.971 250.118 413.971C249.622 413.971 249.186 414.087 248.811 414.318C248.436 414.549 248.139 414.869 247.918 415.277C247.709 415.674 247.604 416.131 247.604 416.65C247.604 417.179 247.709 417.647 247.918 418.055C248.139 418.452 248.436 418.766 248.811 418.998C249.197 419.229 249.638 419.345 250.134 419.345ZM254.02 420.585H252.515V418.468L252.796 416.55L252.515 414.649V408.779H254.02V420.585ZM265.099 420.75C264.273 420.75 263.506 420.601 262.801 420.304C262.095 419.995 261.478 419.571 260.949 419.031C260.431 418.49 260.029 417.862 259.742 417.146C259.455 416.429 259.312 415.663 259.312 414.847C259.312 414.02 259.455 413.249 259.742 412.532C260.029 411.816 260.431 411.193 260.949 410.664C261.478 410.123 262.09 409.705 262.784 409.407C263.49 409.098 264.256 408.944 265.083 408.944C265.987 408.944 266.781 409.098 267.464 409.407C268.147 409.716 268.754 410.135 269.283 410.664L268.208 411.738C267.844 411.331 267.398 411.011 266.869 410.779C266.351 410.548 265.755 410.432 265.083 410.432C264.477 410.432 263.92 410.542 263.413 410.763C262.906 410.972 262.465 411.275 262.09 411.672C261.715 412.069 261.423 412.538 261.214 413.078C261.015 413.618 260.916 414.208 260.916 414.847C260.916 415.487 261.015 416.076 261.214 416.616C261.423 417.157 261.715 417.625 262.09 418.022C262.465 418.419 262.906 418.727 263.413 418.948C263.92 419.157 264.477 419.262 265.083 419.262C265.799 419.262 266.422 419.146 266.951 418.915C267.481 418.672 267.927 418.347 268.291 417.939L269.366 418.998C268.836 419.549 268.214 419.979 267.497 420.287C266.792 420.596 265.992 420.75 265.099 420.75ZM274.324 420.75C273.553 420.75 272.858 420.568 272.241 420.205C271.623 419.841 271.133 419.35 270.769 418.733C270.405 418.105 270.223 417.405 270.223 416.633C270.223 415.872 270.405 415.189 270.769 414.583C271.133 413.965 271.623 413.475 272.241 413.111C272.858 412.747 273.553 412.565 274.324 412.565C275.085 412.565 275.774 412.747 276.391 413.111C277.019 413.464 277.516 413.949 277.879 414.566C278.243 415.183 278.425 415.872 278.425 416.633C278.425 417.405 278.243 418.105 277.879 418.733C277.516 419.35 277.019 419.841 276.391 420.205C275.774 420.568 275.085 420.75 274.324 420.75ZM274.324 419.312C274.82 419.312 275.261 419.196 275.647 418.964C276.033 418.733 276.336 418.419 276.556 418.022C276.777 417.614 276.887 417.151 276.887 416.633C276.887 416.126 276.771 415.674 276.54 415.277C276.319 414.88 276.016 414.572 275.63 414.351C275.256 414.12 274.82 414.004 274.324 414.004C273.828 414.004 273.387 414.12 273.001 414.351C272.615 414.572 272.312 414.88 272.092 415.277C271.871 415.674 271.761 416.126 271.761 416.633C271.761 417.151 271.871 417.614 272.092 418.022C272.312 418.419 272.615 418.733 273.001 418.964C273.387 419.196 273.828 419.312 274.324 419.312ZM280.102 420.585V412.731H281.59V420.585H280.102ZM285.41 420.585V415.839C285.41 415.255 285.228 414.798 284.864 414.467C284.511 414.125 284.065 413.954 283.525 413.954C283.161 413.954 282.836 414.031 282.549 414.186C282.262 414.34 282.031 414.555 281.855 414.831C281.678 415.106 281.59 415.437 281.59 415.823L280.978 415.525C280.978 414.93 281.105 414.412 281.358 413.971C281.623 413.53 281.981 413.188 282.433 412.946C282.885 412.692 283.392 412.565 283.955 412.565C284.506 412.565 285.002 412.686 285.443 412.929C285.895 413.172 286.247 413.513 286.501 413.954C286.766 414.395 286.898 414.919 286.898 415.525V420.585H285.41ZM290.718 420.585V415.839C290.718 415.255 290.536 414.798 290.172 414.467C289.819 414.125 289.378 413.954 288.849 413.954C288.485 413.954 288.155 414.031 287.857 414.186C287.57 414.34 287.339 414.555 287.162 414.831C286.986 415.106 286.898 415.437 286.898 415.823L286.055 415.525C286.088 414.919 286.247 414.401 286.534 413.971C286.832 413.53 287.212 413.188 287.675 412.946C288.138 412.692 288.645 412.565 289.196 412.565C289.77 412.565 290.282 412.686 290.734 412.929C291.186 413.172 291.544 413.513 291.809 413.954C292.085 414.395 292.222 414.924 292.222 415.542V420.585H290.718ZM298.381 420.75C297.786 420.75 297.246 420.629 296.761 420.387C296.287 420.133 295.906 419.786 295.62 419.345C295.333 418.904 295.173 418.402 295.14 417.84V415.475C295.173 414.902 295.333 414.401 295.62 413.971C295.917 413.53 296.303 413.188 296.777 412.946C297.262 412.692 297.797 412.565 298.381 412.565C299.098 412.565 299.743 412.747 300.316 413.111C300.9 413.475 301.358 413.965 301.688 414.583C302.019 415.2 302.184 415.894 302.184 416.666C302.184 417.438 302.019 418.132 301.688 418.75C301.358 419.367 300.9 419.857 300.316 420.221C299.743 420.574 299.098 420.75 298.381 420.75ZM294.247 423.876V412.731H295.736V414.798L295.454 416.699L295.736 418.617V423.876H294.247ZM298.133 419.345C298.629 419.345 299.065 419.229 299.44 418.998C299.814 418.766 300.112 418.452 300.332 418.055C300.553 417.647 300.663 417.179 300.663 416.65C300.663 416.131 300.553 415.668 300.332 415.261C300.112 414.853 299.814 414.538 299.44 414.318C299.065 414.087 298.635 413.971 298.15 413.971C297.654 413.971 297.218 414.087 296.843 414.318C296.469 414.538 296.177 414.853 295.967 415.261C295.758 415.668 295.653 416.137 295.653 416.666C295.653 417.184 295.752 417.647 295.951 418.055C296.16 418.452 296.452 418.766 296.827 418.998C297.213 419.229 297.648 419.345 298.133 419.345ZM307.212 420.75C306.495 420.75 305.845 420.574 305.261 420.221C304.676 419.857 304.213 419.367 303.872 418.75C303.541 418.132 303.376 417.438 303.376 416.666C303.376 415.894 303.541 415.2 303.872 414.583C304.213 413.965 304.671 413.475 305.244 413.111C305.828 412.747 306.484 412.565 307.212 412.565C307.807 412.565 308.336 412.692 308.799 412.946C309.273 413.188 309.654 413.53 309.94 413.971C310.227 414.401 310.387 414.902 310.42 415.475V417.84C310.387 418.402 310.227 418.904 309.94 419.345C309.665 419.786 309.29 420.133 308.816 420.387C308.353 420.629 307.818 420.75 307.212 420.75ZM307.46 419.345C308.198 419.345 308.794 419.097 309.246 418.601C309.698 418.094 309.924 417.449 309.924 416.666C309.924 416.126 309.819 415.657 309.609 415.261C309.411 414.853 309.124 414.538 308.75 414.318C308.375 414.087 307.939 413.971 307.443 413.971C306.947 413.971 306.506 414.087 306.12 414.318C305.746 414.549 305.448 414.869 305.228 415.277C305.018 415.674 304.913 416.131 304.913 416.65C304.913 417.179 305.018 417.647 305.228 418.055C305.448 418.452 305.751 418.766 306.137 418.998C306.523 419.229 306.964 419.345 307.46 419.345ZM309.824 420.585V418.468L310.105 416.55L309.824 414.649V412.731H311.329V420.585H309.824ZM319.052 420.585V416.005C319.052 415.409 318.864 414.919 318.49 414.533C318.115 414.147 317.63 413.954 317.034 413.954C316.638 413.954 316.285 414.042 315.976 414.219C315.667 414.395 315.425 414.638 315.249 414.946C315.072 415.255 314.984 415.608 314.984 416.005L314.372 415.657C314.372 415.062 314.504 414.533 314.769 414.07C315.034 413.607 315.403 413.243 315.877 412.979C316.351 412.703 316.886 412.565 317.481 412.565C318.076 412.565 318.6 412.714 319.052 413.012C319.515 413.309 319.878 413.701 320.143 414.186C320.408 414.66 320.54 415.167 320.54 415.707V420.585H319.052ZM313.496 420.585V412.731H314.984V420.585H313.496ZM325.134 420.651L321.728 412.731H323.382L325.912 418.931H325.382L328.045 412.731H329.698L326.027 420.651H325.134ZM322.886 423.876L325.2 419.13L326.027 420.651L324.539 423.876H322.886Z" fill="white"/>
<path d="M335.082 422.585L337.354 417.033H337.898L340.162 422.585H339.346L337.482 417.889H337.762L335.882 422.585H335.082ZM336.162 421.329V420.673H339.082V421.329H336.162ZM341.682 422.585L339.938 418.785H340.738L342.138 421.993H341.674L343.082 418.785H343.85L342.106 422.585H341.682ZM345.931 422.665C345.584 422.665 345.27 422.58 344.987 422.409C344.704 422.233 344.48 421.996 344.315 421.697C344.155 421.398 344.075 421.062 344.075 420.689C344.075 420.316 344.155 419.98 344.315 419.681C344.48 419.382 344.702 419.145 344.979 418.969C345.262 418.793 345.579 418.705 345.931 418.705C346.219 418.705 346.475 418.766 346.699 418.889C346.928 419.006 347.112 419.172 347.251 419.385C347.39 419.593 347.467 419.836 347.483 420.113V421.257C347.467 421.529 347.39 421.772 347.251 421.985C347.118 422.198 346.936 422.366 346.707 422.489C346.483 422.606 346.224 422.665 345.931 422.665ZM346.051 421.985C346.408 421.985 346.696 421.865 346.915 421.625C347.134 421.38 347.243 421.068 347.243 420.689C347.243 420.428 347.192 420.201 347.091 420.009C346.995 419.812 346.856 419.66 346.675 419.553C346.494 419.441 346.283 419.385 346.043 419.385C345.803 419.385 345.59 419.441 345.403 419.553C345.222 419.665 345.078 419.82 344.971 420.017C344.87 420.209 344.819 420.43 344.819 420.681C344.819 420.937 344.87 421.164 344.971 421.361C345.078 421.553 345.224 421.705 345.411 421.817C345.598 421.929 345.811 421.985 346.051 421.985ZM347.195 422.585V421.561L347.331 420.633L347.195 419.713V418.785H347.923V422.585H347.195ZM348.979 422.585V418.785H349.699V422.585H348.979ZM349.339 418.025C349.206 418.025 349.097 417.982 349.011 417.897C348.926 417.806 348.883 417.694 348.883 417.561C348.883 417.433 348.926 417.326 349.011 417.241C349.097 417.15 349.206 417.105 349.339 417.105C349.473 417.105 349.582 417.15 349.667 417.241C349.753 417.326 349.795 417.433 349.795 417.561C349.795 417.694 349.753 417.806 349.667 417.897C349.582 417.982 349.473 418.025 349.339 418.025ZM350.76 422.585V416.873H351.48V422.585H350.76ZM354.15 422.665C353.803 422.665 353.489 422.58 353.206 422.409C352.923 422.233 352.699 421.996 352.534 421.697C352.374 421.398 352.294 421.062 352.294 420.689C352.294 420.316 352.374 419.98 352.534 419.681C352.699 419.382 352.921 419.145 353.198 418.969C353.481 418.793 353.798 418.705 354.15 418.705C354.438 418.705 354.694 418.766 354.918 418.889C355.147 419.006 355.331 419.172 355.47 419.385C355.609 419.593 355.686 419.836 355.702 420.113V421.257C355.686 421.529 355.609 421.772 355.47 421.985C355.337 422.198 355.155 422.366 354.926 422.489C354.702 422.606 354.443 422.665 354.15 422.665ZM354.27 421.985C354.627 421.985 354.915 421.865 355.134 421.625C355.353 421.38 355.462 421.068 355.462 420.689C355.462 420.428 355.411 420.201 355.31 420.009C355.214 419.812 355.075 419.66 354.894 419.553C354.713 419.441 354.502 419.385 354.262 419.385C354.022 419.385 353.809 419.441 353.622 419.553C353.441 419.665 353.297 419.82 353.19 420.017C353.089 420.209 353.038 420.43 353.038 420.681C353.038 420.937 353.089 421.164 353.19 421.361C353.297 421.553 353.443 421.705 353.63 421.817C353.817 421.929 354.03 421.985 354.27 421.985ZM355.414 422.585V421.561L355.55 420.633L355.414 419.713V418.785H356.142V422.585H355.414ZM359.19 422.665C358.902 422.665 358.641 422.606 358.406 422.489C358.177 422.366 357.993 422.198 357.854 421.985C357.715 421.772 357.638 421.529 357.622 421.257V420.113C357.638 419.836 357.715 419.593 357.854 419.385C357.998 419.172 358.185 419.006 358.414 418.889C358.649 418.766 358.907 418.705 359.19 418.705C359.537 418.705 359.849 418.793 360.126 418.969C360.409 419.145 360.63 419.382 360.79 419.681C360.95 419.98 361.03 420.316 361.03 420.689C361.03 421.062 360.95 421.398 360.79 421.697C360.63 421.996 360.409 422.233 360.126 422.409C359.849 422.58 359.537 422.665 359.19 422.665ZM357.19 422.585V416.873H357.91V419.713L357.774 420.633L357.91 421.561V422.585H357.19ZM359.07 421.985C359.31 421.985 359.521 421.929 359.702 421.817C359.883 421.705 360.027 421.553 360.134 421.361C360.241 421.164 360.294 420.937 360.294 420.681C360.294 420.43 360.241 420.206 360.134 420.009C360.027 419.812 359.883 419.66 359.702 419.553C359.521 419.441 359.313 419.385 359.078 419.385C358.838 419.385 358.627 419.441 358.446 419.553C358.265 419.66 358.123 419.812 358.022 420.009C357.921 420.206 357.87 420.433 357.87 420.689C357.87 420.94 357.918 421.164 358.014 421.361C358.115 421.553 358.257 421.705 358.438 421.817C358.625 421.929 358.835 421.985 359.07 421.985ZM361.846 422.585V416.873H362.566V422.585H361.846ZM365.38 422.665C365.001 422.665 364.66 422.58 364.356 422.409C364.052 422.233 363.812 421.996 363.636 421.697C363.46 421.398 363.372 421.06 363.372 420.681C363.372 420.308 363.457 419.972 363.628 419.673C363.804 419.374 364.038 419.14 364.332 418.969C364.63 418.793 364.964 418.705 365.332 418.705C365.684 418.705 365.993 418.785 366.26 418.945C366.532 419.105 366.742 419.326 366.892 419.609C367.046 419.892 367.124 420.212 367.124 420.569C367.124 420.622 367.121 420.681 367.116 420.745C367.11 420.804 367.1 420.873 367.084 420.953H363.876V420.353H366.7L366.436 420.585C366.436 420.329 366.39 420.113 366.3 419.937C366.209 419.756 366.081 419.617 365.916 419.521C365.75 419.42 365.55 419.369 365.316 419.369C365.07 419.369 364.854 419.422 364.668 419.529C364.481 419.636 364.337 419.785 364.236 419.977C364.134 420.169 364.084 420.396 364.084 420.657C364.084 420.924 364.137 421.158 364.244 421.361C364.35 421.558 364.502 421.713 364.7 421.825C364.897 421.932 365.124 421.985 365.38 421.985C365.593 421.985 365.788 421.948 365.964 421.873C366.145 421.798 366.3 421.686 366.428 421.537L366.892 422.009C366.71 422.222 366.486 422.385 366.22 422.497C365.958 422.609 365.678 422.665 365.38 422.665ZM369.517 419.313V418.665H372.909V419.313H369.517ZM369.517 421.153V420.505H372.909V421.153H369.517ZM375.701 422.585V417.033H376.453V422.585H375.701ZM380.323 422.585V420.369C380.323 420.081 380.233 419.844 380.051 419.657C379.87 419.47 379.635 419.377 379.347 419.377C379.155 419.377 378.985 419.42 378.835 419.505C378.686 419.59 378.569 419.708 378.483 419.857C378.398 420.006 378.355 420.177 378.355 420.369L378.059 420.201C378.059 419.913 378.123 419.657 378.251 419.433C378.379 419.209 378.558 419.033 378.787 418.905C379.017 418.772 379.275 418.705 379.563 418.705C379.851 418.705 380.105 418.777 380.323 418.921C380.547 419.065 380.723 419.254 380.851 419.489C380.979 419.718 381.043 419.964 381.043 420.225V422.585H380.323ZM377.635 422.585V418.785H378.355V422.585H377.635ZM382.515 422.585V418.097C382.515 417.846 382.569 417.625 382.675 417.433C382.787 417.236 382.942 417.081 383.139 416.969C383.337 416.852 383.563 416.793 383.819 416.793C384.017 416.793 384.19 416.828 384.339 416.897C384.489 416.961 384.627 417.052 384.755 417.169L384.283 417.641C384.214 417.582 384.142 417.54 384.067 417.513C383.993 417.481 383.91 417.465 383.819 417.465C383.633 417.465 383.489 417.524 383.387 417.641C383.286 417.753 383.235 417.905 383.235 418.097V422.585H382.515ZM381.579 419.441V418.785H385.187V419.441H381.579ZM384.771 422.585V418.785H385.499V422.585H384.771ZM385.131 418.385C385.003 418.385 384.897 418.342 384.811 418.257C384.726 418.166 384.683 418.054 384.683 417.921C384.683 417.793 384.726 417.686 384.811 417.601C384.897 417.51 385.003 417.465 385.131 417.465C385.27 417.465 385.379 417.51 385.459 417.601C385.545 417.686 385.587 417.793 385.587 417.921C385.587 418.054 385.545 418.166 385.459 418.257C385.379 418.342 385.27 418.385 385.131 418.385ZM389.245 422.585V420.369C389.245 420.081 389.155 419.844 388.973 419.657C388.792 419.47 388.557 419.377 388.269 419.377C388.077 419.377 387.907 419.42 387.757 419.505C387.608 419.59 387.491 419.708 387.405 419.857C387.32 420.006 387.277 420.177 387.277 420.369L386.981 420.201C386.981 419.913 387.045 419.657 387.173 419.433C387.301 419.209 387.48 419.033 387.709 418.905C387.939 418.772 388.197 418.705 388.485 418.705C388.773 418.705 389.027 418.777 389.245 418.921C389.469 419.065 389.645 419.254 389.773 419.489C389.901 419.718 389.965 419.964 389.965 420.225V422.585H389.245ZM386.557 422.585V418.785H387.277V422.585H386.557ZM390.948 422.585V418.785H391.668V422.585H390.948ZM391.308 418.025C391.175 418.025 391.065 417.982 390.98 417.897C390.895 417.806 390.852 417.694 390.852 417.561C390.852 417.433 390.895 417.326 390.98 417.241C391.065 417.15 391.175 417.105 391.308 417.105C391.441 417.105 391.551 417.15 391.636 417.241C391.721 417.326 391.764 417.433 391.764 417.561C391.764 417.694 391.721 417.806 391.636 417.897C391.551 417.982 391.441 418.025 391.308 418.025ZM393.313 422.585V417.193H394.033V422.585H393.313ZM392.377 419.441V418.785H394.969V419.441H392.377ZM396.922 422.617L395.274 418.785H396.074L397.298 421.785H397.042L398.33 418.785H399.13L397.354 422.617H396.922ZM395.834 424.177L396.954 421.881L397.354 422.617L396.634 424.177H395.834Z" fill="white"/>
<rect x="329.156" y="98.1807" width="205.749" height="51.6391" rx="10.3347" fill="white"/>
<path d="M362.357 120.899L366.367 124.909L370.376 120.899C370.78 120.496 371.431 120.496 371.834 120.899C372.237 121.303 372.237 121.954 371.834 122.357L367.09 127.1C366.687 127.503 366.036 127.503 365.633 127.1L360.889 122.357C360.486 121.954 360.486 121.303 360.889 120.899C361.292 120.507 361.954 120.496 362.357 120.899Z" fill="#5D6164"/>
<path d="M395.174 132.207C394.127 132.207 393.155 132.021 392.26 131.649C391.378 131.263 390.606 130.732 389.945 130.057C389.283 129.368 388.773 128.576 388.415 127.68C388.057 126.771 387.878 125.799 387.878 124.766C387.878 123.732 388.057 122.768 388.415 121.872C388.773 120.963 389.283 120.17 389.945 119.495C390.606 118.82 391.378 118.289 392.26 117.903C393.155 117.518 394.127 117.325 395.174 117.325C396.345 117.325 397.358 117.518 398.212 117.903C399.067 118.289 399.825 118.813 400.486 119.474L398.874 121.087C398.447 120.618 397.923 120.253 397.303 119.991C396.697 119.729 395.987 119.598 395.174 119.598C394.457 119.598 393.803 119.722 393.21 119.97C392.618 120.218 392.101 120.577 391.66 121.045C391.233 121.5 390.902 122.044 390.668 122.678C390.434 123.312 390.317 124.008 390.317 124.766C390.317 125.524 390.434 126.219 390.668 126.853C390.902 127.487 391.233 128.038 391.66 128.507C392.101 128.962 392.618 129.313 393.21 129.561C393.803 129.809 394.457 129.933 395.174 129.933C396.056 129.933 396.8 129.802 397.406 129.54C398.026 129.265 398.55 128.893 398.977 128.424L400.589 130.036C399.928 130.712 399.149 131.242 398.254 131.628C397.358 132.014 396.332 132.207 395.174 132.207ZM406.645 132.207C405.68 132.207 404.805 131.979 404.02 131.525C403.234 131.056 402.607 130.429 402.139 129.644C401.684 128.858 401.457 127.983 401.457 127.019C401.457 126.054 401.684 125.186 402.139 124.414C402.607 123.643 403.234 123.029 404.02 122.575C404.805 122.106 405.68 121.872 406.645 121.872C407.623 121.872 408.505 122.099 409.291 122.554C410.076 123.009 410.696 123.629 411.151 124.414C411.619 125.186 411.854 126.054 411.854 127.019C411.854 127.983 411.619 128.858 411.151 129.644C410.696 130.429 410.076 131.056 409.291 131.525C408.505 131.979 407.623 132.207 406.645 132.207ZM406.645 130.016C407.21 130.016 407.706 129.892 408.133 129.644C408.574 129.382 408.912 129.024 409.146 128.569C409.394 128.114 409.518 127.597 409.518 127.019C409.518 126.44 409.394 125.93 409.146 125.489C408.898 125.048 408.56 124.704 408.133 124.456C407.706 124.194 407.21 124.063 406.645 124.063C406.094 124.063 405.598 124.194 405.157 124.456C404.73 124.704 404.392 125.048 404.144 125.489C403.91 125.93 403.793 126.44 403.793 127.019C403.793 127.597 403.91 128.114 404.144 128.569C404.392 129.024 404.73 129.382 405.157 129.644C405.598 129.892 406.094 130.016 406.645 130.016ZM413.744 132V122.079H416.018V132H413.744ZM420.338 132V126.089C420.338 125.427 420.131 124.917 419.718 124.559C419.304 124.187 418.795 124.001 418.188 124.001C417.775 124.001 417.403 124.084 417.072 124.249C416.755 124.414 416.5 124.655 416.307 124.972C416.114 125.276 416.018 125.648 416.018 126.089L415.129 125.592C415.129 124.835 415.295 124.18 415.625 123.629C415.956 123.078 416.404 122.651 416.969 122.347C417.534 122.03 418.168 121.872 418.87 121.872C419.573 121.872 420.207 122.024 420.772 122.327C421.337 122.63 421.785 123.057 422.115 123.608C422.446 124.159 422.612 124.821 422.612 125.592V132H420.338ZM426.931 132V126.089C426.931 125.427 426.725 124.917 426.311 124.559C425.898 124.187 425.388 124.001 424.782 124.001C424.382 124.001 424.017 124.084 423.686 124.249C423.356 124.414 423.094 124.655 422.901 124.972C422.708 125.276 422.612 125.648 422.612 126.089L421.33 125.592C421.399 124.835 421.619 124.18 421.991 123.629C422.363 123.078 422.839 122.651 423.418 122.347C424.01 122.03 424.658 121.872 425.361 121.872C426.077 121.872 426.725 122.024 427.303 122.327C427.882 122.63 428.344 123.057 428.688 123.608C429.033 124.159 429.205 124.821 429.205 125.592V132H426.931ZM436.86 132.207C436.102 132.207 435.426 132.048 434.834 131.731C434.241 131.401 433.773 130.953 433.428 130.388C433.098 129.823 432.932 129.182 432.932 128.466V125.613C432.932 124.897 433.105 124.256 433.449 123.691C433.794 123.126 434.262 122.685 434.855 122.368C435.447 122.037 436.115 121.872 436.86 121.872C437.755 121.872 438.561 122.106 439.278 122.575C440.008 123.029 440.58 123.65 440.993 124.435C441.421 125.207 441.634 126.082 441.634 127.06C441.634 128.025 441.421 128.9 440.993 129.685C440.58 130.457 440.008 131.07 439.278 131.525C438.561 131.979 437.755 132.207 436.86 132.207ZM431.547 136.134V122.079H433.821V124.745L433.428 127.163L433.821 129.561V136.134H431.547ZM436.487 130.057C437.039 130.057 437.521 129.933 437.934 129.685C438.362 129.423 438.692 129.065 438.926 128.61C439.174 128.155 439.299 127.632 439.299 127.039C439.299 126.447 439.174 125.923 438.926 125.468C438.692 125.014 438.362 124.662 437.934 124.414C437.521 124.153 437.039 124.022 436.487 124.022C435.936 124.022 435.447 124.153 435.02 124.414C434.593 124.662 434.262 125.014 434.028 125.468C433.794 125.923 433.676 126.447 433.676 127.039C433.676 127.632 433.794 128.155 434.028 128.61C434.262 129.065 434.593 129.423 435.02 129.685C435.447 129.933 435.936 130.057 436.487 130.057ZM447.692 132.207C446.796 132.207 445.983 131.979 445.253 131.525C444.536 131.07 443.965 130.457 443.537 129.685C443.124 128.9 442.917 128.025 442.917 127.06C442.917 126.082 443.124 125.207 443.537 124.435C443.965 123.65 444.536 123.029 445.253 122.575C445.983 122.106 446.796 121.872 447.692 121.872C448.45 121.872 449.118 122.037 449.697 122.368C450.289 122.685 450.758 123.126 451.102 123.691C451.447 124.256 451.619 124.897 451.619 125.613V128.466C451.619 129.182 451.447 129.823 451.102 130.388C450.772 130.953 450.31 131.401 449.718 131.731C449.125 132.048 448.45 132.207 447.692 132.207ZM448.064 130.057C448.905 130.057 449.58 129.775 450.09 129.21C450.613 128.645 450.875 127.921 450.875 127.039C450.875 126.447 450.758 125.923 450.524 125.468C450.289 125.014 449.959 124.662 449.531 124.414C449.118 124.153 448.629 124.022 448.064 124.022C447.513 124.022 447.024 124.153 446.596 124.414C446.183 124.662 445.852 125.014 445.604 125.468C445.37 125.923 445.253 126.447 445.253 127.039C445.253 127.632 445.37 128.155 445.604 128.61C445.852 129.065 446.183 129.423 446.596 129.685C447.024 129.933 447.513 130.057 448.064 130.057ZM450.73 132V129.334L451.123 126.915L450.73 124.518V122.079H453.004V132H450.73ZM462.327 132V126.275C462.327 125.613 462.114 125.069 461.687 124.642C461.273 124.215 460.736 124.001 460.074 124.001C459.634 124.001 459.241 124.097 458.896 124.29C458.552 124.483 458.283 124.752 458.09 125.096C457.897 125.441 457.801 125.834 457.801 126.275L456.912 125.779C456.912 125.021 457.077 124.352 457.408 123.774C457.739 123.181 458.194 122.719 458.772 122.389C459.365 122.044 460.026 121.872 460.757 121.872C461.501 121.872 462.162 122.065 462.741 122.451C463.32 122.823 463.774 123.312 464.105 123.918C464.436 124.511 464.601 125.131 464.601 125.779V132H462.327ZM455.527 132V122.079H457.801V132H455.527ZM470.115 132.103L465.878 122.079H468.379L471.273 129.437H470.549L473.608 122.079H476.13L471.521 132.103H470.115ZM467.16 136.134L470.239 129.788L471.521 132.103L469.681 136.134H467.16Z" fill="#5D6164"/>
<path d="M499.768 118.316V116.249H495.634V118.316H499.768ZM489.433 121.416V130.718C489.433 131.286 489.898 131.751 490.467 131.751H504.935C505.504 131.751 505.969 131.286 505.969 130.718V121.416C505.969 120.848 505.504 120.383 504.935 120.383H490.467C489.898 120.383 489.433 120.848 489.433 121.416ZM505.969 118.316C507.116 118.316 508.036 119.236 508.036 120.383V131.751C508.036 132.898 507.116 133.818 505.969 133.818H489.433C488.286 133.818 487.366 132.898 487.366 131.751L487.377 120.383C487.377 119.236 488.286 118.316 489.433 118.316H493.567V116.249C493.567 115.102 494.487 114.182 495.634 114.182H499.768C500.915 114.182 501.835 115.102 501.835 116.249V118.316H505.969Z" fill="#5D6164"/>
<g opacity="0.3">
<path d="M228 472.5V462.5H208V472.5H228ZM178 482.5V537.5H258V482.5H178ZM258 472.5C263.55 472.5 268 476.95 268 482.5V537.5C268 543.05 263.55 547.5 258 547.5H178C172.45 547.5 168 543.05 168 537.5L168.05 482.5C168.05 476.95 172.45 472.5 178 472.5H198V462.5C198 456.95 202.45 452.5 208 452.5H228C233.55 452.5 238 456.95 238 462.5V472.5H258Z" fill="#1A237E"/>
</g>
</svg>
