<svg width="170" height="33" viewBox="0 0 170 33" fill="none" xmlns="http://www.w3.org/2000/svg">
<path d="M168.261 24.6231C168.261 24.2853 167.969 24.1623 167.67 24.1623H167.11V25.7365H167.395V25.0776H167.601L167.974 25.7355H168.322L167.894 25.0474C168.117 24.9984 168.261 24.8503 168.261 24.6231ZM167.395 24.8503V24.402H167.656C167.806 24.402 167.974 24.4448 167.974 24.6168C167.974 24.8076 167.787 24.8503 167.626 24.8503H167.396H167.395ZM167.663 23.5597C166.879 23.5597 166.245 24.181 166.245 24.9556C166.245 25.7292 166.879 26.3381 167.663 26.3381C168.447 26.3381 169.081 25.7292 169.081 24.9556C169.081 24.181 168.447 23.5597 167.663 23.5597ZM167.663 26.1348C167.349 26.1356 167.047 26.0121 166.823 25.7913C166.599 25.5704 166.472 25.27 166.469 24.9556C166.471 24.6408 166.598 24.3397 166.822 24.1184C167.046 23.8971 167.348 23.7738 167.663 23.7755C168.322 23.7755 168.857 24.304 168.857 24.9556C168.857 25.5999 168.322 26.1348 167.663 26.1348ZM76.4166 23.7963C74.342 23.7963 73.2952 21.9646 73.2952 20.1943C73.2952 18.4241 74.4306 16.6705 76.3165 16.6705C77.2006 16.6705 78.3171 17.1084 78.756 17.7235L80.9516 15.5612C79.8882 14.4551 78.1941 13.7941 76.3165 13.7941C72.4967 13.7941 69.7246 16.5027 69.7246 20.2329C69.7246 24.0246 72.4664 26.6717 76.3916 26.6717C78.2598 26.6717 79.9852 26.1316 81.009 25.0453L78.8718 22.7798C78.3786 23.3741 77.3444 23.7963 76.4166 23.7963ZM64.1324 26.3287H67.5415V14.1371H64.1324V26.3287ZM57.9366 20.8209C57.9366 22.2544 56.9911 23.7963 55.2292 23.7963C53.8708 23.7963 53.1452 22.8393 53.1452 20.8709V14.1371H49.7381V21.7039C49.7381 24.2217 51.01 26.6717 54.4097 26.6717C56.0142 26.6717 57.357 25.4248 58.0346 24.5042H58.0847V26.3287H61.3436V14.1371H57.9366V20.8209ZM43.5903 15.6863H43.5142C43.0326 15.1609 41.7284 13.7952 39.611 13.7952C36.1362 13.7952 33.459 16.4829 33.459 20.186C33.459 23.9444 35.9298 26.6727 39.4473 26.6727C41.0445 26.6727 42.5457 25.8366 43.4152 24.8639H43.4652V32.3327H46.8743V14.1371H43.5903V15.6853V15.6863ZM40.2813 23.7974C38.1744 23.7974 36.9765 21.9802 36.9765 20.1849C36.9765 18.4689 38.0764 16.6226 40.2813 16.6226C42.3091 16.6226 43.5653 18.4971 43.5653 20.2339C43.5653 21.9854 42.3362 23.7974 40.2813 23.7974ZM117.904 13.7952C114.026 13.7952 111.212 16.4829 111.212 20.186C111.212 24.0163 114.09 26.7061 117.904 26.7061C121.719 26.7061 124.595 23.9913 124.595 20.1849C124.595 16.4829 121.78 13.7952 117.904 13.7952ZM117.904 23.7974C115.682 23.7974 114.669 21.9249 114.669 20.1849C114.669 18.4689 115.682 16.6226 117.904 16.6226C120.126 16.6226 121.138 18.4689 121.138 20.1849C121.138 21.9249 120.127 23.7974 117.904 23.7974ZM160.508 18.8265C158.755 18.4126 158.137 18.1905 158.137 17.4889C158.137 16.5214 159.377 16.3087 159.94 16.3087C160.997 16.3087 162.192 16.9322 162.64 17.5244L164.65 15.6207C163.72 14.4676 161.893 13.7962 159.964 13.7962C157.498 13.7962 154.908 15.0212 154.908 17.7579C154.908 20.1088 156.773 20.8178 158.598 21.2504C160.521 21.6925 161.208 22.0157 161.208 22.7809C161.208 23.91 159.912 24.0945 159.466 24.0945C158.35 24.0945 157.059 23.4627 156.362 22.6453L154.294 24.7179C155.424 25.9554 157.359 26.7009 159.342 26.7009C162.673 26.7009 164.65 25.1318 164.65 22.5432C164.65 20.0661 162.231 19.2341 160.508 18.8265ZM154.066 14.1382H149.671L145.272 19.1976H145.196V7.41895H141.788V26.3276H145.196V20.3153H145.272L149.836 26.3287H154.321L149.016 19.6668L154.067 14.1371L154.066 14.1382ZM103.533 13.7952C101.974 13.7952 100.826 14.4687 99.7422 15.4716H99.6776V7.41999H96.2706V26.3287H99.5296V24.6053H99.5807C100.349 25.8501 101.875 26.6717 103.459 26.6717C106.976 26.6717 109.643 23.9433 109.643 20.1839C109.643 16.4818 107.008 13.7941 103.533 13.7941V13.7952ZM102.863 23.7974C100.807 23.7974 99.5786 21.9854 99.5786 20.2339C99.5786 18.4971 100.835 16.6226 102.863 16.6226C105.068 16.6226 106.165 18.4689 106.165 20.1849C106.165 21.9802 104.971 23.7974 102.863 23.7974ZM94.9883 14.1382H90.594L86.1945 19.1976H86.1184V7.41895H82.7093V26.3276H86.1184V20.3153H86.1935L90.7587 26.3287H95.2427L89.9383 19.6668L94.9883 14.1371V14.1382ZM132.879 13.7952C129.001 13.7952 126.186 16.4829 126.186 20.186C126.186 24.0163 129.064 26.7061 132.879 26.7061C136.694 26.7061 139.57 23.9913 139.57 20.1849C139.57 16.4829 136.755 13.7952 132.879 13.7952ZM132.879 23.7974C130.657 23.7974 129.644 21.9249 129.644 20.1849C129.644 18.4689 130.655 16.6226 132.879 16.6226C135.101 16.6226 136.113 18.4689 136.113 20.1849C136.113 21.9249 135.101 23.7974 132.879 23.7974Z" fill="black"/>
<path d="M15.2736 28.6945C23.2014 28.6945 29.6282 22.3455 29.6282 14.5137C29.6282 6.68194 23.2014 0.333008 15.2736 0.333008C7.34574 0.333008 0.918945 6.68194 0.918945 14.5137C0.918945 22.3455 7.34574 28.6945 15.2736 28.6945Z" fill="#2CA01C"/>
<path d="M4.90527 14.5141C4.90527 17.5594 7.40423 20.0292 10.488 20.0292H11.2856V17.9795H10.488C8.5531 17.9795 6.97887 16.4251 6.97887 14.5141C6.97887 12.6021 8.5531 11.0476 10.488 11.0476H12.4042V21.7619C12.4042 22.8931 13.3321 23.8095 14.4778 23.8095V8.99903H10.488C7.40423 8.99903 4.90527 11.4678 4.90527 14.5141ZM20.0606 8.99903H19.263V11.0487H20.0606C21.9955 11.0487 23.5698 12.6031 23.5698 14.5141C23.5698 16.4261 21.9955 17.9806 20.0606 17.9806H18.1444V7.26631C18.1444 6.13515 17.2166 5.21875 16.0698 5.21875V20.0292H20.0606C23.1434 20.0292 25.6434 17.5604 25.6434 14.5141C25.6434 11.4699 23.1434 8.99903 20.0606 8.99903Z" fill="white"/>
<path d="M47.5139 3.56196C48.0383 3.56196 48.4627 3.14285 48.4627 2.62471C48.4618 2.50094 48.4366 2.37854 48.3885 2.26451C48.3404 2.15048 48.2703 2.04704 48.1822 1.96011C48.0941 1.87317 47.9897 1.80444 47.8751 1.75784C47.7604 1.71124 47.6377 1.68767 47.5139 1.6885C47.3902 1.68767 47.2675 1.71124 47.1528 1.75784C47.0381 1.80444 46.9338 1.87317 46.8457 1.96011C46.7576 2.04704 46.6875 2.15048 46.6394 2.26451C46.5912 2.37854 46.5661 2.50094 46.5652 2.62471C46.5652 3.14285 46.9906 3.56196 47.5139 3.56196ZM41.853 4.19374C40.9251 4.19374 40.1797 4.74942 39.9055 5.36973H39.8784V4.37514H38.3876V10.5773H39.9577V7.165C39.9577 6.3393 40.4289 5.4865 41.4224 5.4865C42.4295 5.4865 42.6005 6.40394 42.6005 7.13998V10.5773H44.1695V6.70002C44.1695 5.43437 43.4887 4.19374 41.853 4.19374ZM35.21 10.5773H36.779V4.3741H35.21V10.5773ZM63.7545 3.56196C64.2789 3.56196 64.7032 3.14285 64.7032 2.62471C64.7024 2.50094 64.6772 2.37854 64.6291 2.26451C64.581 2.15048 64.5109 2.04704 64.4228 1.96011C64.3347 1.87317 64.2303 1.80444 64.1157 1.75784C64.001 1.71124 63.8783 1.68767 63.7545 1.6885C63.6308 1.68767 63.5081 1.71124 63.3934 1.75784C63.2787 1.80444 63.1744 1.87317 63.0863 1.96011C62.9982 2.04704 62.9281 2.15048 62.88 2.26451C62.8318 2.37854 62.8067 2.50094 62.8058 2.62471C62.8058 3.14285 63.2312 3.56196 63.7545 3.56196ZM61.2108 4.37097V5.74505H62.9706V10.5773H64.5396V5.74505H66.2994V4.37097H61.2108ZM58.5408 10.5773H60.1109V4.3741H58.5408V10.5773ZM44.9691 5.74505H46.7289V10.5773H48.299V5.74505H50.0588V4.37097H44.9691V5.74505ZM55.3632 7.78636C55.3632 8.6131 54.893 9.46486 53.8995 9.46486C52.8913 9.46486 52.7214 8.54742 52.7214 7.81138V4.37514H51.1513V8.25133C51.1513 9.51803 51.8321 10.7576 53.4668 10.7576C54.3957 10.7576 55.1422 10.2019 55.4164 9.58162H55.4424V10.5773H56.9332V4.3741H55.3642L55.3632 7.78636Z" fill="black"/>
</svg>
