<svg width="64" height="36" viewBox="0 0 64 36" fill="none" xmlns="http://www.w3.org/2000/svg">
<path d="M7.22197 0C3.08834 0 0 3.12 0 7.152C0 11.568 3.08834 13.248 6.55679 14.304C9.83519 15.36 11.3556 16.512 11.3556 18.768C11.3556 21.072 9.64514 22.704 7.41203 22.704C5.17892 22.704 3.23088 21.072 3.23088 18.576C3.23088 17.184 3.89607 16.848 3.89607 16.08C3.89607 15.216 3.2784 14.544 2.28062 14.544C1.14031 14.544 0 16.272 0 18.768C0 22.752 3.37342 25.68 7.41203 25.68C11.4981 25.68 14.634 22.56 14.634 18.528C14.634 14.16 11.5457 12.432 8.0297 11.376C4.79881 10.368 3.23088 9.168 3.23088 6.912C3.23088 4.656 4.89384 3.024 7.12695 3.024C9.45509 3.024 11.3081 4.704 11.3556 6.96C11.4031 8.016 12.1158 8.64 12.971 8.64C13.8263 8.64 14.634 8.016 14.5865 6.912C14.539 2.88 11.2131 0 7.22197 0ZM23.6615 25.632C25.467 25.632 26.8924 25.008 26.8924 23.76C26.8924 22.848 26.1321 22.224 25.4195 22.224C24.8968 22.224 24.5167 22.464 23.6615 22.464C21.2858 22.464 19.4328 20.4 19.4328 18C19.4328 15.408 21.3333 13.344 23.709 13.344C26.4172 13.344 28.1277 15.408 28.1277 18.432V24C28.1277 24.96 28.8879 25.632 29.7906 25.632C30.6459 25.632 31.4061 24.96 31.4061 24V18.384C31.4061 13.728 28.2702 10.368 23.804 10.368C19.6229 10.368 16.2019 13.632 16.2019 18.048C16.1544 22.272 19.5754 25.632 23.6615 25.632ZM40.3385 36C44.4246 36 47.5605 32.88 47.5605 28.848C47.5605 24.432 44.4722 22.752 40.9562 21.696C37.7253 20.64 36.1574 19.488 36.1574 17.232C36.1574 14.976 37.8679 13.296 40.0535 13.296C42.2866 13.296 44.2821 14.928 44.2821 17.424C44.2821 18.816 43.6169 19.152 43.6169 19.92C43.6169 20.784 44.2346 21.456 45.1849 21.456C46.3727 21.456 47.5605 19.728 47.5605 17.232C47.5605 13.248 44.1396 10.32 40.101 10.32C36.0149 10.32 32.9265 13.44 32.9265 17.472C32.9265 21.84 36.0148 23.568 39.4833 24.624C42.7617 25.632 44.2821 26.832 44.2821 29.088C44.2821 31.392 42.5716 32.976 40.386 32.976C38.0104 32.976 36.2049 31.344 36.1574 29.04C36.1099 27.984 35.3497 27.408 34.5419 27.408C33.6867 27.408 32.879 27.984 32.9265 29.088C32.974 33.168 36.2524 36 40.3385 36ZM56.778 25.632C58.9161 25.632 60.5791 25.008 61.7194 24.288C62.8597 23.568 63.2873 22.944 63.2873 22.224C63.2873 21.504 62.7647 20.832 61.7669 20.832C60.5791 20.832 59.6288 22.608 56.778 22.608C54.2598 22.608 52.2168 20.544 52.2168 17.952C52.2168 15.408 54.1648 13.296 56.588 13.296C59.2012 13.296 60.6266 15.024 60.6266 16.176C60.6266 16.512 60.389 16.656 60.1039 16.656H56.9206C56.0653 16.656 55.4002 17.232 55.4002 18C55.4002 18.864 56.0653 19.488 56.9206 19.488H61.2918C62.9547 19.488 64 18.624 64 17.088C64 13.296 60.8166 10.32 56.588 10.32C52.4068 10.32 49.0334 13.728 49.0334 17.952C49.0334 22.176 52.5494 25.632 56.778 25.632Z" fill="#00D639"/>
</svg>
