<svg width="620" height="600" viewBox="0 0 620 600" fill="none" xmlns="http://www.w3.org/2000/svg">
<rect x="10" width="600" height="600" rx="8" fill="#E9ECFF"/>
<g filter="url(#filter0_d_991_1831)">
<rect x="32.9837" y="311.463" width="267.172" height="237.752" rx="30.6218" fill="white" stroke="#EFF0F6" stroke-width="1.57035"/>
<rect x="319.088" y="311.463" width="267.172" height="237.752" rx="30.6218" fill="white" stroke="#EFF0F6" stroke-width="1.57035"/>
<path d="M71.7676 438.431C69.7065 438.431 67.873 438.096 66.2669 437.427C64.6698 436.749 63.4162 435.825 62.5061 434.656C61.596 433.487 61.141 432.163 61.141 430.681C61.141 429.539 61.3997 428.491 61.9172 427.536C62.4437 426.573 63.1575 425.774 64.0586 425.141C64.9598 424.498 65.968 424.088 67.0833 423.909V423.722C65.62 423.427 64.4334 422.718 63.5233 421.594C62.6132 420.461 62.1581 419.145 62.1581 417.646C62.1581 416.227 62.573 414.964 63.4028 413.858C64.2326 412.743 65.3702 411.868 66.8157 411.235C68.27 410.592 69.9207 410.271 71.7676 410.271C73.6146 410.271 75.2607 410.592 76.7062 411.235C78.1605 411.877 79.3026 412.756 80.1324 413.871C80.9622 414.978 81.3815 416.236 81.3905 417.646C81.3815 419.154 80.9176 420.47 79.9986 421.594C79.0796 422.718 77.9018 423.427 76.4653 423.722V423.909C77.5627 424.088 78.5576 424.498 79.4498 425.141C80.351 425.774 81.0648 426.573 81.5912 427.536C82.1266 428.491 82.3987 429.539 82.4076 430.681C82.3987 432.163 81.9392 433.487 81.0291 434.656C80.119 435.825 78.861 436.749 77.2549 437.427C75.6578 438.096 73.8287 438.431 71.7676 438.431ZM71.7676 434.175C72.6866 434.175 73.4896 434.009 74.1767 433.679C74.8637 433.34 75.399 432.876 75.7827 432.287C76.1753 431.69 76.3716 431.003 76.3716 430.226C76.3716 429.432 76.1708 428.732 75.7693 428.125C75.3678 427.509 74.8235 427.028 74.1365 426.68C73.4495 426.323 72.6599 426.144 71.7676 426.144C70.8843 426.144 70.0947 426.323 69.3987 426.68C68.7028 427.028 68.154 427.509 67.7525 428.125C67.3599 428.732 67.1636 429.432 67.1636 430.226C67.1636 431.003 67.3555 431.69 67.7391 432.287C68.1228 432.876 68.6626 433.34 69.3586 433.679C70.0545 434.009 70.8575 434.175 71.7676 434.175ZM71.7676 421.928C72.5349 421.928 73.2175 421.772 73.8153 421.46C74.4131 421.148 74.8815 420.715 75.2206 420.162C75.5597 419.609 75.7292 418.971 75.7292 418.248C75.7292 417.534 75.5597 416.91 75.2206 416.374C74.8815 415.83 74.4176 415.406 73.8287 415.103C73.2398 414.791 72.5528 414.634 71.7676 414.634C70.9914 414.634 70.3043 414.791 69.7065 415.103C69.1087 415.406 68.6403 415.83 68.3012 416.374C67.9711 416.91 67.806 417.534 67.806 418.248C67.806 418.971 67.9756 419.609 68.3146 420.162C68.6537 420.715 69.1221 421.148 69.7199 421.46C70.3177 421.772 71.0003 421.928 71.7676 421.928ZM96.9791 438.431C95.5694 438.422 94.2087 438.185 92.8971 437.721C91.5944 437.257 90.4256 436.503 89.3906 435.459C88.3556 434.415 87.5347 433.032 86.928 431.31C86.3302 429.588 86.0313 427.474 86.0313 424.967C86.0402 422.665 86.3034 420.608 86.8209 418.797C87.3473 416.977 88.0968 415.433 89.0693 414.166C90.0508 412.899 91.2241 411.935 92.5893 411.275C93.9544 410.606 95.4846 410.271 97.1799 410.271C99.009 410.271 100.624 410.628 102.025 411.342C103.426 412.047 104.55 413.006 105.397 414.219C106.254 415.433 106.771 416.794 106.95 418.301H101.235C101.012 417.347 100.544 416.597 99.8298 416.053C99.116 415.509 98.2327 415.237 97.1799 415.237C95.3954 415.237 94.0392 416.013 93.1112 417.565C92.1922 419.118 91.7238 421.228 91.7059 423.896H91.8933C92.3037 423.084 92.8569 422.392 93.5529 421.821C94.2578 421.241 95.0563 420.8 95.9486 420.496C96.8497 420.184 97.8 420.028 98.7993 420.028C100.423 420.028 101.869 420.412 103.136 421.179C104.403 421.937 105.402 422.981 106.134 424.311C106.865 425.64 107.231 427.161 107.231 428.875C107.231 430.73 106.798 432.381 105.933 433.827C105.076 435.272 103.876 436.405 102.333 437.226C100.798 438.038 99.0134 438.439 96.9791 438.431ZM96.9523 433.88C97.8446 433.88 98.6431 433.666 99.348 433.238C100.053 432.809 100.606 432.229 101.008 431.498C101.409 430.766 101.61 429.945 101.61 429.035C101.61 428.125 101.409 427.309 101.008 426.586C100.615 425.863 100.071 425.288 99.3748 424.859C98.6788 424.431 97.8847 424.217 96.9925 424.217C96.3233 424.217 95.7032 424.342 95.1321 424.592C94.57 424.842 94.0748 425.19 93.6466 425.636C93.2272 426.082 92.8971 426.599 92.6562 427.188C92.4153 427.768 92.2948 428.388 92.2948 429.049C92.2948 429.932 92.4956 430.739 92.8971 431.471C93.3075 432.203 93.8607 432.787 94.5567 433.224C95.2615 433.661 96.0601 433.88 96.9523 433.88ZM126.343 432.916V431.471C126.343 430.374 126.575 429.365 127.039 428.446C127.512 427.518 128.194 426.778 129.087 426.225C129.988 425.663 131.085 425.381 132.379 425.381C133.69 425.381 134.792 425.658 135.685 426.211C136.586 426.764 137.264 427.505 137.719 428.433C138.183 429.352 138.415 430.365 138.415 431.471V432.916C138.415 434.014 138.183 435.027 137.719 435.955C137.255 436.874 136.572 437.61 135.671 438.163C134.77 438.725 133.673 439.006 132.379 439.006C131.067 439.006 129.965 438.725 129.073 438.163C128.181 437.61 127.503 436.874 127.039 435.955C126.575 435.027 126.343 434.014 126.343 432.916ZM130.238 431.471V432.916C130.238 433.55 130.389 434.148 130.693 434.71C131.005 435.272 131.567 435.553 132.379 435.553C133.191 435.553 133.744 435.276 134.038 434.723C134.342 434.17 134.494 433.568 134.494 432.916V431.471C134.494 430.82 134.351 430.213 134.065 429.651C133.78 429.089 133.218 428.808 132.379 428.808C131.576 428.808 131.018 429.089 130.706 429.651C130.394 430.213 130.238 430.82 130.238 431.471ZM112.277 417.231V415.785C112.277 414.679 112.513 413.666 112.986 412.747C113.459 411.819 114.141 411.079 115.034 410.526C115.935 409.972 117.023 409.696 118.299 409.696C119.62 409.696 120.726 409.972 121.618 410.526C122.511 411.079 123.189 411.819 123.653 412.747C124.117 413.666 124.349 414.679 124.349 415.785V417.231C124.349 418.337 124.112 419.35 123.639 420.269C123.175 421.188 122.493 421.924 121.592 422.477C120.699 423.021 119.602 423.294 118.299 423.294C116.997 423.294 115.895 423.017 114.994 422.464C114.101 421.902 113.423 421.166 112.959 420.256C112.504 419.336 112.277 418.328 112.277 417.231ZM116.198 415.785V417.231C116.198 417.882 116.35 418.484 116.653 419.038C116.965 419.591 117.514 419.867 118.299 419.867C119.12 419.867 119.678 419.591 119.972 419.038C120.276 418.484 120.427 417.882 120.427 417.231V415.785C120.427 415.134 120.285 414.527 119.999 413.965C119.713 413.403 119.147 413.122 118.299 413.122C117.505 413.122 116.956 413.408 116.653 413.979C116.35 414.55 116.198 415.152 116.198 415.785ZM114.043 438.056L132.887 410.646H136.394L117.55 438.056H114.043Z" fill="black"/>
<path d="M69.1222 370.797C67.9643 370.797 66.8944 370.592 65.9124 370.182C64.945 369.757 64.0949 369.163 63.3621 368.401C62.6439 367.639 62.087 366.745 61.6913 365.719C61.2955 364.693 61.0977 363.572 61.0977 362.355C61.0977 361.124 61.2955 359.995 61.6913 358.969C62.087 357.943 62.6439 357.049 63.3621 356.287C64.0803 355.525 64.9304 354.939 65.9124 354.528C66.8944 354.103 67.9643 353.891 69.1222 353.891C70.2507 353.891 71.262 354.089 72.1561 354.484C73.0648 354.88 73.8269 355.393 74.4425 356.023C75.0727 356.654 75.5198 357.328 75.7836 358.046L73.8049 358.947C73.4239 358.039 72.8303 357.306 72.0242 356.749C71.2181 356.177 70.2507 355.892 69.1222 355.892C67.9789 355.892 66.9603 356.163 66.0663 356.705C65.1869 357.247 64.498 358.002 63.9997 358.969C63.5014 359.937 63.2522 361.065 63.2522 362.355C63.2522 363.63 63.5014 364.751 63.9997 365.719C64.498 366.686 65.1869 367.441 66.0663 367.983C66.9603 368.525 67.9789 368.797 69.1222 368.797C70.2507 368.797 71.2181 368.518 72.0242 367.961C72.8303 367.39 73.4239 366.649 73.8049 365.741L75.7836 366.642C75.5198 367.36 75.0727 368.034 74.4425 368.665C73.8269 369.295 73.0648 369.808 72.1561 370.204C71.262 370.599 70.2507 370.797 69.1222 370.797ZM78.2304 370.533V358.684H80.2311V360.86L80.0112 360.552C80.2897 359.878 80.7147 359.38 81.2863 359.057C81.8579 358.72 82.5541 358.552 83.3749 358.552H84.1004V360.486H83.0671C82.2317 360.486 81.5575 360.75 81.0445 361.278C80.5315 361.791 80.275 362.524 80.275 363.476V370.533H78.2304ZM91.127 370.797C89.9838 370.797 88.9651 370.526 88.0711 369.984C87.177 369.442 86.4735 368.701 85.9605 367.763C85.4476 366.811 85.1911 365.748 85.1911 364.576C85.1911 363.388 85.4402 362.333 85.9385 361.41C86.4515 360.486 87.1404 359.761 88.0051 359.233C88.8845 358.691 89.8665 358.42 90.9511 358.42C91.8305 358.42 92.6073 358.581 93.2815 358.903C93.9704 359.211 94.5493 359.636 95.0183 360.179C95.502 360.706 95.8684 361.314 96.1176 362.003C96.3814 362.678 96.5133 363.381 96.5133 364.114C96.5133 364.275 96.4986 364.458 96.4693 364.663C96.4547 364.854 96.4327 365.037 96.4034 365.213H86.686V363.454H95.2162L94.2488 364.246C94.3808 363.484 94.3075 362.802 94.029 362.201C93.7505 361.6 93.3401 361.124 92.7978 360.772C92.2555 360.42 91.64 360.245 90.9511 360.245C90.2622 360.245 89.632 360.42 89.0604 360.772C88.4888 361.124 88.0418 361.63 87.7193 362.289C87.4115 362.934 87.287 363.703 87.3456 364.598C87.287 365.462 87.4189 366.224 87.7413 366.884C88.0784 367.529 88.5474 368.034 89.1483 368.401C89.7639 368.753 90.4308 368.929 91.149 368.929C91.9404 368.929 92.6073 368.745 93.1496 368.379C93.6919 368.013 94.1316 367.544 94.4687 366.972L96.1835 367.851C95.949 368.394 95.5826 368.892 95.0843 369.346C94.6006 369.786 94.0217 370.138 93.3475 370.402C92.6879 370.665 91.9478 370.797 91.127 370.797ZM104.324 370.797C103.21 370.797 102.206 370.526 101.312 369.984C100.432 369.442 99.7361 368.701 99.2231 367.763C98.7101 366.825 98.4536 365.777 98.4536 364.62C98.4536 363.432 98.7101 362.377 99.2231 361.454C99.7361 360.516 100.432 359.776 101.312 359.233C102.206 358.691 103.21 358.42 104.324 358.42C105.306 358.42 106.178 358.632 106.94 359.057C107.702 359.468 108.303 360.025 108.743 360.728L108.413 361.234V353.891H110.479V370.533H108.479V368.005L108.743 368.357C108.332 369.134 107.731 369.735 106.94 370.16C106.163 370.585 105.291 370.797 104.324 370.797ZM104.499 368.819C105.247 368.819 105.914 368.635 106.5 368.269C107.086 367.903 107.548 367.404 107.885 366.774C108.237 366.129 108.413 365.411 108.413 364.62C108.413 363.813 108.237 363.095 107.885 362.465C107.548 361.82 107.086 361.314 106.5 360.948C105.914 360.582 105.247 360.398 104.499 360.398C103.767 360.398 103.1 360.589 102.499 360.97C101.913 361.336 101.451 361.835 101.114 362.465C100.777 363.081 100.608 363.799 100.608 364.62C100.608 365.411 100.777 366.129 101.114 366.774C101.451 367.404 101.913 367.903 102.499 368.269C103.085 368.635 103.752 368.819 104.499 368.819ZM113.402 370.533V358.684H115.447V370.533H113.402ZM113.402 356.793V354.155H115.447V356.793H113.402ZM123.192 370.665C122.034 370.665 121.14 370.336 120.51 369.676C119.894 369.016 119.587 368.086 119.587 366.884V360.64H117.432V358.684H117.872C118.399 358.684 118.817 358.522 119.125 358.2C119.433 357.877 119.587 357.452 119.587 356.925V355.957H121.631V358.684H124.291V360.64H121.631V366.818C121.631 367.214 121.69 367.558 121.807 367.851C121.939 368.144 122.152 368.379 122.445 368.555C122.738 368.716 123.126 368.797 123.61 368.797C123.712 368.797 123.837 368.789 123.984 368.775C124.145 368.76 124.291 368.745 124.423 368.731V370.533C124.233 370.577 124.02 370.607 123.786 370.621C123.551 370.651 123.353 370.665 123.192 370.665ZM131.095 370.797C129.908 370.797 128.875 370.504 127.995 369.918C127.116 369.332 126.493 368.54 126.127 367.544L127.754 366.752C128.091 367.456 128.552 368.013 129.139 368.423C129.725 368.833 130.377 369.038 131.095 369.038C131.74 369.038 132.275 368.885 132.7 368.577C133.125 368.269 133.338 367.866 133.338 367.368C133.338 367.016 133.235 366.737 133.03 366.532C132.84 366.312 132.605 366.144 132.327 366.027C132.048 365.895 131.792 365.799 131.557 365.741L129.776 365.235C128.706 364.927 127.922 364.488 127.424 363.916C126.94 363.344 126.698 362.678 126.698 361.915C126.698 361.212 126.874 360.604 127.226 360.091C127.592 359.563 128.083 359.153 128.699 358.859C129.329 358.566 130.033 358.42 130.81 358.42C131.85 358.42 132.781 358.684 133.602 359.211C134.437 359.739 135.031 360.479 135.382 361.432L133.712 362.201C133.448 361.586 133.052 361.102 132.524 360.75C131.997 360.384 131.403 360.201 130.744 360.201C130.143 360.201 129.666 360.354 129.315 360.662C128.963 360.955 128.787 361.329 128.787 361.783C128.787 362.121 128.875 362.399 129.051 362.619C129.227 362.824 129.439 362.985 129.688 363.103C129.937 363.205 130.179 363.293 130.414 363.366L132.349 363.938C133.316 364.216 134.063 364.649 134.591 365.235C135.133 365.821 135.404 366.525 135.404 367.346C135.404 368.005 135.221 368.599 134.855 369.126C134.488 369.654 133.983 370.064 133.338 370.358C132.693 370.651 131.945 370.797 131.095 370.797Z" fill="black" fill-opacity="0.7"/>
<path opacity="0.1" fill-rule="evenodd" clip-rule="evenodd" d="M51.7781 498.769C51.7781 498.769 60.2772 497.524 69.9403 500.515C88.3189 506.205 89.3673 495.786 96.1823 490.761C102.417 486.165 107.581 488.969 114.523 494.591C119.643 498.737 127.105 505.696 134.833 504.576C141.897 503.551 146.904 495.389 156.696 493.313C164.456 491.668 170.762 496.188 179.698 494.591C191.821 492.424 197.235 479.668 205.899 479.668C216.592 479.668 224.121 468.88 233.849 468.88C243.519 468.88 244.832 475.223 255.41 479.668C263.497 483.066 267.388 479.668 267.388 479.668V516.079H51.7781V498.769Z" fill="url(#paint0_linear_991_1831)"/>
<path d="M51.7781 493.113C51.7781 493.113 60.2772 491.886 69.9403 494.834C88.3189 500.442 89.3673 490.173 96.1823 485.222C102.417 480.692 107.581 483.456 114.523 488.996C119.643 493.081 127.105 499.94 134.833 498.836C141.897 497.827 146.904 489.782 156.696 487.737C164.456 486.115 170.762 490.57 179.698 488.996C191.821 486.86 197.235 474.289 205.899 474.289C216.592 474.289 224.121 463.631 233.849 463.631C243.519 463.631 244.033 469.909 254.611 474.289C262.698 477.638 267.388 474.289 267.388 474.289" stroke="#1A237E" stroke-width="3.1407" stroke-linecap="round" stroke-linejoin="round"/>
<path d="M366.801 410.805V438.215H361.006V416.306H360.845L354.568 420.241V415.101L361.354 410.805H366.801ZM372.9 433.397V428.833L384.343 410.805H388.278V417.122H385.95L378.736 428.538V428.753H394.997V433.397H372.9ZM386.057 438.215V432.005L386.164 429.984V410.805H391.597V438.215H386.057ZM413.861 433.076V431.63C413.861 430.533 414.093 429.524 414.557 428.605C415.03 427.677 415.713 426.937 416.605 426.384C417.506 425.822 418.603 425.541 419.897 425.541C421.209 425.541 422.311 425.817 423.203 426.37C424.104 426.923 424.782 427.664 425.237 428.592C425.701 429.511 425.933 430.524 425.933 431.63V433.076C425.933 434.173 425.701 435.186 425.237 436.114C424.773 437.033 424.091 437.769 423.19 438.322C422.288 438.884 421.191 439.165 419.897 439.165C418.586 439.165 417.484 438.884 416.591 438.322C415.699 437.769 415.021 437.033 414.557 436.114C414.093 435.186 413.861 434.173 413.861 433.076ZM417.756 431.63V433.076C417.756 433.709 417.907 434.307 418.211 434.869C418.523 435.431 419.085 435.712 419.897 435.712C420.709 435.712 421.262 435.436 421.557 434.882C421.86 434.329 422.012 433.727 422.012 433.076V431.63C422.012 430.979 421.869 430.372 421.584 429.81C421.298 429.248 420.736 428.967 419.897 428.967C419.094 428.967 418.537 429.248 418.224 429.81C417.912 430.372 417.756 430.979 417.756 431.63ZM399.795 417.39V415.944C399.795 414.838 400.031 413.825 400.504 412.906C400.977 411.978 401.66 411.238 402.552 410.685C403.453 410.131 404.542 409.855 405.818 409.855C407.138 409.855 408.244 410.131 409.137 410.685C410.029 411.238 410.707 411.978 411.171 412.906C411.635 413.825 411.867 414.838 411.867 415.944V417.39C411.867 418.496 411.631 419.509 411.158 420.428C410.694 421.347 410.011 422.083 409.11 422.636C408.218 423.181 407.12 423.453 405.818 423.453C404.515 423.453 403.413 423.176 402.512 422.623C401.62 422.061 400.941 421.325 400.477 420.415C400.022 419.496 399.795 418.487 399.795 417.39ZM403.716 415.944V417.39C403.716 418.041 403.868 418.643 404.171 419.197C404.484 419.75 405.032 420.026 405.818 420.026C406.638 420.026 407.196 419.75 407.491 419.197C407.794 418.643 407.946 418.041 407.946 417.39V415.944C407.946 415.293 407.803 414.686 407.517 414.124C407.232 413.562 406.665 413.281 405.818 413.281C405.023 413.281 404.475 413.567 404.171 414.138C403.868 414.709 403.716 415.311 403.716 415.944ZM401.562 438.215L420.406 410.805H423.912L405.068 438.215H401.562Z" fill="black"/>
<path d="M354.936 370.533V354.155H360.3C361.956 354.155 363.4 354.492 364.631 355.166C365.862 355.84 366.815 356.793 367.489 358.024C368.163 359.241 368.5 360.677 368.5 362.333C368.5 363.975 368.163 365.411 367.489 366.642C366.815 367.873 365.862 368.833 364.631 369.522C363.4 370.196 361.956 370.533 360.3 370.533H354.936ZM357.09 368.555H360.322C361.538 368.555 362.586 368.298 363.466 367.785C364.36 367.272 365.049 366.554 365.532 365.631C366.016 364.693 366.258 363.594 366.258 362.333C366.258 361.058 366.009 359.959 365.51 359.035C365.027 358.112 364.338 357.401 363.444 356.903C362.564 356.39 361.524 356.133 360.322 356.133H357.09V368.555ZM376.2 370.797C375.056 370.797 374.038 370.526 373.144 369.984C372.25 369.442 371.546 368.701 371.033 367.763C370.52 366.811 370.264 365.748 370.264 364.576C370.264 363.388 370.513 362.333 371.011 361.41C371.524 360.486 372.213 359.761 373.078 359.233C373.957 358.691 374.939 358.42 376.024 358.42C376.903 358.42 377.68 358.581 378.354 358.903C379.043 359.211 379.622 359.636 380.091 360.179C380.575 360.706 380.941 361.314 381.19 362.003C381.454 362.678 381.586 363.381 381.586 364.114C381.586 364.275 381.571 364.458 381.542 364.663C381.527 364.854 381.505 365.037 381.476 365.213H371.759V363.454H380.289L379.321 364.246C379.453 363.484 379.38 362.802 379.102 362.201C378.823 361.6 378.413 361.124 377.87 360.772C377.328 360.42 376.713 360.245 376.024 360.245C375.335 360.245 374.705 360.42 374.133 360.772C373.561 361.124 373.114 361.63 372.792 362.289C372.484 362.934 372.36 363.703 372.418 364.598C372.36 365.462 372.492 366.224 372.814 366.884C373.151 367.529 373.62 368.034 374.221 368.401C374.837 368.753 375.503 368.929 376.222 368.929C377.013 368.929 377.68 368.745 378.222 368.379C378.765 368.013 379.204 367.544 379.541 366.972L381.256 367.851C381.022 368.394 380.655 368.892 380.157 369.346C379.673 369.786 379.094 370.138 378.42 370.402C377.761 370.665 377.02 370.797 376.2 370.797ZM390.144 370.797C389.191 370.797 388.319 370.585 387.528 370.16C386.751 369.735 386.15 369.134 385.725 368.357L386.011 368.005V370.533H384.01V353.891H386.055V361.234L385.747 360.728C386.186 360.025 386.787 359.468 387.55 359.057C388.312 358.632 389.184 358.42 390.166 358.42C391.28 358.42 392.276 358.691 393.156 359.233C394.05 359.776 394.753 360.516 395.266 361.454C395.779 362.377 396.036 363.432 396.036 364.62C396.036 365.777 395.779 366.825 395.266 367.763C394.753 368.701 394.05 369.442 393.156 369.984C392.276 370.526 391.272 370.797 390.144 370.797ZM389.99 368.819C390.737 368.819 391.404 368.635 391.99 368.269C392.577 367.903 393.031 367.404 393.354 366.774C393.691 366.129 393.859 365.411 393.859 364.62C393.859 363.799 393.691 363.081 393.354 362.465C393.031 361.835 392.577 361.336 391.99 360.97C391.404 360.589 390.737 360.398 389.99 360.398C389.242 360.398 388.568 360.582 387.967 360.948C387.381 361.314 386.912 361.82 386.56 362.465C386.223 363.095 386.055 363.813 386.055 364.62C386.055 365.411 386.223 366.129 386.56 366.774C386.912 367.404 387.381 367.903 387.967 368.269C388.568 368.635 389.242 368.819 389.99 368.819ZM398.475 370.533V358.684H400.519V370.533H398.475ZM398.475 356.793V354.155H400.519V356.793H398.475ZM408.265 370.665C407.107 370.665 406.213 370.336 405.583 369.676C404.967 369.016 404.659 368.086 404.659 366.884V360.64H402.505V358.684H402.944C403.472 358.684 403.89 358.522 404.198 358.2C404.505 357.877 404.659 357.452 404.659 356.925V355.957H406.704V358.684H409.364V360.64H406.704V366.818C406.704 367.214 406.762 367.558 406.88 367.851C407.012 368.144 407.224 368.379 407.517 368.555C407.81 368.716 408.199 368.797 408.682 368.797C408.785 368.797 408.91 368.789 409.056 368.775C409.217 368.76 409.364 368.745 409.496 368.731V370.533C409.305 370.577 409.093 370.607 408.858 370.621C408.624 370.651 408.426 370.665 408.265 370.665ZM416.168 370.797C414.981 370.797 413.948 370.504 413.068 369.918C412.189 369.332 411.566 368.54 411.199 367.544L412.826 366.752C413.163 367.456 413.625 368.013 414.211 368.423C414.798 368.833 415.45 369.038 416.168 369.038C416.813 369.038 417.348 368.885 417.773 368.577C418.198 368.269 418.41 367.866 418.41 367.368C418.41 367.016 418.308 366.737 418.103 366.532C417.912 366.312 417.678 366.144 417.399 366.027C417.121 365.895 416.864 365.799 416.63 365.741L414.849 365.235C413.779 364.927 412.995 364.488 412.497 363.916C412.013 363.344 411.771 362.678 411.771 361.915C411.771 361.212 411.947 360.604 412.299 360.091C412.665 359.563 413.156 359.153 413.772 358.859C414.402 358.566 415.105 358.42 415.882 358.42C416.923 358.42 417.854 358.684 418.674 359.211C419.51 359.739 420.103 360.479 420.455 361.432L418.784 362.201C418.52 361.586 418.125 361.102 417.597 360.75C417.069 360.384 416.476 360.201 415.816 360.201C415.215 360.201 414.739 360.354 414.387 360.662C414.035 360.955 413.86 361.329 413.86 361.783C413.86 362.121 413.948 362.399 414.123 362.619C414.299 362.824 414.512 362.985 414.761 363.103C415.01 363.205 415.252 363.293 415.486 363.366L417.421 363.938C418.388 364.216 419.136 364.649 419.664 365.235C420.206 365.821 420.477 366.525 420.477 367.346C420.477 368.005 420.294 368.599 419.927 369.126C419.561 369.654 419.055 370.064 418.41 370.358C417.766 370.651 417.018 370.797 416.168 370.797Z" fill="black" fill-opacity="0.7"/>
<path opacity="0.1" fill-rule="evenodd" clip-rule="evenodd" d="M344.687 497.009C344.687 497.009 353.186 495.763 362.849 498.755C381.227 504.445 382.276 494.025 389.091 489.001C395.326 484.405 400.489 487.209 407.432 492.83C412.552 496.976 420.014 503.935 427.741 502.815C434.805 501.791 439.813 493.629 449.604 491.553C457.364 489.908 463.671 494.427 472.607 492.83C484.729 490.664 490.144 477.908 498.808 477.908C509.501 477.908 517.029 467.119 526.757 467.119C536.427 467.119 537.74 473.463 548.318 477.908C556.405 481.306 560.296 477.908 560.296 477.908V514.319H344.687V497.009Z" fill="url(#paint1_linear_991_1831)"/>
<path d="M344.687 491.353C344.687 491.353 353.186 490.126 362.849 493.074C381.227 498.682 382.276 488.413 389.091 483.461C395.326 478.931 400.489 481.695 407.432 487.235C412.552 491.321 420.014 498.18 427.741 497.075C434.805 496.066 439.813 488.022 449.604 485.976C457.364 484.355 463.671 488.809 472.607 487.235C484.729 485.1 490.144 472.529 498.808 472.529C509.501 472.529 517.029 461.87 526.757 461.87C536.427 461.87 536.941 468.148 547.52 472.529C555.607 475.877 560.296 472.529 560.296 472.529" stroke="#1A237E" stroke-width="3.1407" stroke-linecap="round" stroke-linejoin="round"/>
<rect x="32.9837" y="50.7852" width="267.172" height="237.752" rx="30.6218" fill="white" stroke="#EFF0F6" stroke-width="1.57035"/>
<rect x="319.844" y="50.7852" width="267.172" height="237.752" rx="30.6218" fill="white" stroke="#EFF0F6" stroke-width="1.57035"/>
<path d="M75.9217 159.326L74.9447 163.046H56.9972L57.9608 159.326H75.9217ZM66.5933 179.936L57.4389 169.042L57.4523 165.696H61.9759C62.9842 165.696 63.8273 165.509 64.5055 165.134C65.1836 164.759 65.6921 164.251 66.0312 163.608C66.3702 162.966 66.5442 162.234 66.5532 161.413C66.5442 160.182 66.1829 159.178 65.4691 158.402C64.7642 157.617 63.5998 157.224 61.9759 157.224H56.9972L58.0947 152.527H61.9759C64.2512 152.527 66.1472 152.87 67.664 153.557C69.1897 154.235 70.3318 155.203 71.0902 156.461C71.8575 157.72 72.2457 159.218 72.2546 160.958C72.2457 162.502 71.9869 163.849 71.4783 165C70.9787 166.151 70.189 167.11 69.1094 167.878C68.0387 168.645 66.6424 169.216 64.9203 169.591L64.7062 169.671L72.897 179.695V179.936H66.5933ZM75.9485 152.527L74.9447 156.301H60.1691L61.1729 152.527H75.9485ZM79.4952 179.936V175.761L89.2519 166.727C90.0816 165.924 90.7776 165.201 91.3397 164.559C91.9107 163.916 92.3435 163.287 92.6379 162.671C92.9324 162.047 93.0796 161.373 93.0796 160.651C93.0796 159.848 92.8967 159.156 92.5309 158.576C92.165 157.987 91.6654 157.537 91.0319 157.224C90.3984 156.903 89.6801 156.743 88.8771 156.743C88.0384 156.743 87.3068 156.912 86.6822 157.251C86.0576 157.59 85.5758 158.076 85.2368 158.71C84.8977 159.343 84.7282 160.097 84.7282 160.972H79.2275C79.2275 159.178 79.6335 157.621 80.4454 156.301C81.2573 154.98 82.395 153.959 83.8582 153.236C85.3215 152.513 87.0079 152.152 88.9173 152.152C90.8802 152.152 92.5888 152.5 94.0432 153.196C95.5065 153.883 96.6441 154.838 97.456 156.06C98.268 157.282 98.674 158.683 98.674 160.262C98.674 161.297 98.4687 162.319 98.0583 163.327C97.6568 164.336 96.9385 165.455 95.9035 166.687C94.8685 167.909 93.4097 169.377 91.5271 171.09L87.5254 175.011V175.199H99.0353V179.936H79.4952ZM104.319 179.936L115.681 157.452V157.264H102.445V152.527H121.677V157.331L110.301 179.936H104.319ZM125.649 179.936V175.761L135.405 166.727C136.235 165.924 136.931 165.201 137.493 164.559C138.064 163.916 138.497 163.287 138.791 162.671C139.086 162.047 139.233 161.373 139.233 160.651C139.233 159.848 139.05 159.156 138.684 158.576C138.319 157.987 137.819 157.537 137.185 157.224C136.552 156.903 135.834 156.743 135.031 156.743C134.192 156.743 133.46 156.912 132.836 157.251C132.211 157.59 131.729 158.076 131.39 158.71C131.051 159.343 130.882 160.097 130.882 160.972H125.381C125.381 159.178 125.787 157.621 126.599 156.301C127.411 154.98 128.549 153.959 130.012 153.236C131.475 152.513 133.161 152.152 135.071 152.152C137.034 152.152 138.742 152.5 140.197 153.196C141.66 153.883 142.798 154.838 143.61 156.06C144.422 157.282 144.828 158.683 144.828 160.262C144.828 161.297 144.622 162.319 144.212 163.327C143.81 164.336 143.092 165.455 142.057 166.687C141.022 167.909 139.563 169.377 137.681 171.09L133.679 175.011V175.199H145.189V179.936H125.649ZM159.399 180.311C157.507 180.311 155.821 179.963 154.34 179.267C152.868 178.571 151.699 177.612 150.833 176.39C149.968 175.167 149.517 173.767 149.482 172.187H155.103C155.165 173.249 155.611 174.11 156.441 174.77C157.271 175.431 158.257 175.761 159.399 175.761C160.309 175.761 161.112 175.56 161.808 175.158C162.513 174.748 163.062 174.181 163.454 173.459C163.856 172.727 164.057 171.888 164.057 170.943C164.057 169.979 163.851 169.131 163.441 168.4C163.039 167.668 162.482 167.097 161.768 166.687C161.054 166.276 160.238 166.066 159.319 166.058C158.516 166.058 157.735 166.223 156.977 166.553C156.227 166.883 155.643 167.333 155.223 167.904L150.071 166.981L151.369 152.527H168.125V157.264H156.147L155.437 164.13H155.598C156.08 163.452 156.807 162.89 157.78 162.444C158.752 161.998 159.841 161.775 161.045 161.775C162.696 161.775 164.168 162.163 165.462 162.939C166.756 163.715 167.777 164.782 168.527 166.138C169.276 167.485 169.646 169.038 169.638 170.795C169.646 172.642 169.218 174.284 168.353 175.721C167.496 177.148 166.296 178.272 164.752 179.093C163.218 179.905 161.433 180.311 159.399 180.311ZM184.426 180.539C182.124 180.53 180.144 179.963 178.484 178.839C176.833 177.715 175.562 176.086 174.67 173.954C173.786 171.821 173.349 169.256 173.358 166.258C173.358 163.269 173.8 160.722 174.683 158.616C175.575 156.511 176.847 154.909 178.497 153.811C180.157 152.705 182.133 152.152 184.426 152.152C186.72 152.152 188.691 152.705 190.342 153.811C192.002 154.918 193.278 156.524 194.17 158.63C195.062 160.726 195.504 163.269 195.495 166.258C195.495 169.265 195.049 171.835 194.156 173.967C193.273 176.1 192.006 177.728 190.355 178.852C188.705 179.977 186.728 180.539 184.426 180.539ZM184.426 175.734C185.997 175.734 187.25 174.944 188.187 173.365C189.124 171.786 189.588 169.417 189.579 166.258C189.579 164.179 189.365 162.448 188.937 161.065C188.517 159.682 187.92 158.643 187.143 157.947C186.376 157.251 185.47 156.903 184.426 156.903C182.865 156.903 181.616 157.684 180.679 159.245C179.742 160.807 179.269 163.144 179.26 166.258C179.26 168.364 179.47 170.122 179.889 171.531C180.318 172.932 180.92 173.985 181.696 174.69C182.472 175.386 183.383 175.734 184.426 175.734ZM210.374 180.539C208.072 180.53 206.091 179.963 204.432 178.839C202.781 177.715 201.51 176.086 200.617 173.954C199.734 171.821 199.297 169.256 199.306 166.258C199.306 163.269 199.747 160.722 200.631 158.616C201.523 156.511 202.794 154.909 204.445 153.811C206.105 152.705 208.081 152.152 210.374 152.152C212.667 152.152 214.639 152.705 216.29 153.811C217.949 154.918 219.225 156.524 220.117 158.63C221.01 160.726 221.451 163.269 221.442 166.258C221.442 169.265 220.996 171.835 220.104 173.967C219.221 176.1 217.954 177.728 216.303 178.852C214.652 179.977 212.676 180.539 210.374 180.539ZM210.374 175.734C211.944 175.734 213.198 174.944 214.135 173.365C215.072 171.786 215.536 169.417 215.527 166.258C215.527 164.179 215.313 162.448 214.884 161.065C214.465 159.682 213.867 158.643 213.091 157.947C212.324 157.251 211.418 156.903 210.374 156.903C208.813 156.903 207.563 157.684 206.627 159.245C205.69 160.807 205.217 163.144 205.208 166.258C205.208 168.364 205.418 170.122 205.837 171.531C206.265 172.932 206.868 173.985 207.644 174.69C208.42 175.386 209.33 175.734 210.374 175.734Z" fill="black"/>
<path d="M55.8739 109.742L61.7439 93.3633H64.2941L70.1641 109.742H67.8557L66.5146 105.895H59.5234L58.1823 109.742H55.8739ZM60.2049 103.916H65.8331L62.7112 94.9242H63.3268L60.2049 103.916ZM75.9874 110.006C74.8002 110.006 73.7669 109.713 72.8875 109.126C72.0081 108.54 71.3852 107.749 71.0188 106.752L72.6456 105.961C72.9827 106.664 73.4444 107.221 74.0307 107.632C74.617 108.042 75.2692 108.247 75.9874 108.247C76.6322 108.247 77.1672 108.093 77.5923 107.785C78.0173 107.478 78.2298 107.075 78.2298 106.576C78.2298 106.224 78.1272 105.946 77.922 105.741C77.7315 105.521 77.497 105.352 77.2185 105.235C76.94 105.103 76.6835 105.008 76.449 104.949L74.6683 104.444C73.5983 104.136 72.8142 103.696 72.3159 103.125C71.8322 102.553 71.5904 101.886 71.5904 101.124C71.5904 100.42 71.7663 99.8122 72.118 99.2992C72.4844 98.7716 72.9754 98.3612 73.591 98.0681C74.2212 97.7749 74.9247 97.6284 75.7015 97.6284C76.7422 97.6284 77.6729 97.8922 78.4936 98.4198C79.3291 98.9475 79.9227 99.6876 80.2744 100.64L78.6036 101.41C78.3397 100.794 77.944 100.311 77.4164 99.9588C76.8887 99.5924 76.2951 99.4092 75.6356 99.4092C75.0347 99.4092 74.5583 99.5631 74.2066 99.8708C73.8548 100.164 73.6789 100.538 73.6789 100.992C73.6789 101.329 73.7669 101.608 73.9428 101.827C74.1186 102.033 74.3312 102.194 74.5803 102.311C74.8295 102.414 75.0713 102.502 75.3058 102.575L77.2405 103.147C78.2078 103.425 78.9553 103.857 79.483 104.444C80.0252 105.03 80.2964 105.733 80.2964 106.554C80.2964 107.214 80.1132 107.807 79.7468 108.335C79.3804 108.863 78.8747 109.273 78.2298 109.566C77.5849 109.859 76.8374 110.006 75.9874 110.006ZM86.9741 110.006C85.787 110.006 84.7537 109.713 83.8743 109.126C82.9949 108.54 82.372 107.749 82.0055 106.752L83.6324 105.961C83.9695 106.664 84.4312 107.221 85.0175 107.632C85.6037 108.042 86.256 108.247 86.9741 108.247C87.619 108.247 88.154 108.093 88.579 107.785C89.0041 107.478 89.2166 107.075 89.2166 106.576C89.2166 106.224 89.114 105.946 88.9088 105.741C88.7183 105.521 88.4838 105.352 88.2053 105.235C87.9268 105.103 87.6703 105.008 87.4358 104.949L85.655 104.444C84.5851 104.136 83.801 103.696 83.3027 103.125C82.819 102.553 82.5772 101.886 82.5772 101.124C82.5772 100.42 82.753 99.8122 83.1048 99.2992C83.4712 98.7716 83.9622 98.3612 84.5778 98.0681C85.208 97.7749 85.9115 97.6284 86.6883 97.6284C87.729 97.6284 88.6596 97.8922 89.4804 98.4198C90.3158 98.9475 90.9094 99.6876 91.2612 100.64L89.5903 101.41C89.3265 100.794 88.9308 100.311 88.4032 99.9588C87.8755 99.5924 87.2819 99.4092 86.6224 99.4092C86.0215 99.4092 85.5451 99.5631 85.1934 99.8708C84.8416 100.164 84.6657 100.538 84.6657 100.992C84.6657 101.329 84.7537 101.608 84.9295 101.827C85.1054 102.033 85.3179 102.194 85.5671 102.311C85.8163 102.414 86.0581 102.502 86.2926 102.575L88.2273 103.147C89.1946 103.425 89.9421 103.857 90.4697 104.444C91.012 105.03 91.2832 105.733 91.2832 106.554C91.2832 107.214 91.1 107.807 90.7336 108.335C90.3671 108.863 89.8615 109.273 89.2166 109.566C88.5717 109.859 87.8242 110.006 86.9741 110.006ZM99.1701 110.006C98.0269 110.006 97.0082 109.735 96.1142 109.192C95.2201 108.65 94.5166 107.91 94.0036 106.972C93.4907 106.019 93.2342 104.957 93.2342 103.784C93.2342 102.597 93.4833 101.542 93.9817 100.618C94.4946 99.695 95.1835 98.9695 96.0482 98.4418C96.9276 97.8995 97.9096 97.6284 98.9942 97.6284C99.8736 97.6284 100.65 97.7896 101.325 98.1121C102.013 98.4198 102.592 98.8449 103.061 99.3872C103.545 99.9148 103.912 100.523 104.161 101.212C104.424 101.886 104.556 102.59 104.556 103.322C104.556 103.484 104.542 103.667 104.512 103.872C104.498 104.063 104.476 104.246 104.446 104.422H94.7291V102.663H103.259L102.292 103.454C102.424 102.692 102.351 102.011 102.072 101.41C101.794 100.809 101.383 100.333 100.841 99.9808C100.299 99.629 99.6831 99.4531 98.9942 99.4531C98.3054 99.4531 97.6751 99.629 97.1035 99.9808C96.5319 100.333 96.0849 100.838 95.7624 101.498C95.4546 102.143 95.3301 102.912 95.3887 103.806C95.3301 104.671 95.462 105.433 95.7844 106.093C96.1215 106.737 96.5905 107.243 97.1914 107.61C97.807 107.961 98.4739 108.137 99.1921 108.137C99.9835 108.137 100.65 107.954 101.193 107.588C101.735 107.221 102.175 106.752 102.512 106.181L104.227 107.06C103.992 107.602 103.626 108.101 103.127 108.555C102.644 108.995 102.065 109.346 101.391 109.61C100.731 109.874 99.9909 110.006 99.1701 110.006ZM111.795 109.874C110.637 109.874 109.743 109.544 109.113 108.885C108.497 108.225 108.19 107.294 108.19 106.093V99.8489H106.035V97.8922H106.475C107.002 97.8922 107.42 97.731 107.728 97.4085C108.036 97.0861 108.19 96.661 108.19 96.1334V95.1661H110.234V97.8922H112.894V99.8489H110.234V106.027C110.234 106.422 110.293 106.767 110.41 107.06C110.542 107.353 110.754 107.588 111.048 107.763C111.341 107.925 111.729 108.005 112.213 108.005C112.315 108.005 112.44 107.998 112.587 107.983C112.748 107.969 112.894 107.954 113.026 107.939V109.742C112.836 109.786 112.623 109.815 112.389 109.83C112.154 109.859 111.956 109.874 111.795 109.874ZM119.698 110.006C118.511 110.006 117.478 109.713 116.598 109.126C115.719 108.54 115.096 107.749 114.73 106.752L116.357 105.961C116.694 106.664 117.155 107.221 117.742 107.632C118.328 108.042 118.98 108.247 119.698 108.247C120.343 108.247 120.878 108.093 121.303 107.785C121.728 107.478 121.941 107.075 121.941 106.576C121.941 106.224 121.838 105.946 121.633 105.741C121.442 105.521 121.208 105.352 120.929 105.235C120.651 105.103 120.395 105.008 120.16 104.949L118.379 104.444C117.309 104.136 116.525 103.696 116.027 103.125C115.543 102.553 115.301 101.886 115.301 101.124C115.301 100.42 115.477 99.8122 115.829 99.2992C116.195 98.7716 116.686 98.3612 117.302 98.0681C117.932 97.7749 118.636 97.6284 119.413 97.6284C120.453 97.6284 121.384 97.8922 122.205 98.4198C123.04 98.9475 123.634 99.6876 123.985 100.64L122.315 101.41C122.051 100.794 121.655 100.311 121.127 99.9588C120.6 99.5924 120.006 99.4092 119.347 99.4092C118.746 99.4092 118.269 99.5631 117.918 99.8708C117.566 100.164 117.39 100.538 117.39 100.992C117.39 101.329 117.478 101.608 117.654 101.827C117.83 102.033 118.042 102.194 118.291 102.311C118.54 102.414 118.782 102.502 119.017 102.575L120.951 103.147C121.919 103.425 122.666 103.857 123.194 104.444C123.736 105.03 124.007 105.733 124.007 106.554C124.007 107.214 123.824 107.807 123.458 108.335C123.091 108.863 122.586 109.273 121.941 109.566C121.296 109.859 120.548 110.006 119.698 110.006Z" fill="black" fill-opacity="0.7"/>
<path d="M362.407 158.373L361.43 162.093H343.482L344.446 158.373H362.407ZM353.078 178.984L343.924 168.089L343.937 164.743H348.461C349.469 164.743 350.312 164.556 350.991 164.181C351.669 163.806 352.177 163.298 352.516 162.655C352.855 162.013 353.029 161.281 353.038 160.461C353.029 159.229 352.668 158.225 351.954 157.449C351.249 156.664 350.085 156.271 348.461 156.271H343.482L344.58 151.574H348.461C350.736 151.574 352.632 151.917 354.149 152.604C355.675 153.282 356.817 154.251 357.575 155.509C358.343 156.767 358.731 158.266 358.74 160.005C358.731 161.549 358.472 162.896 357.963 164.047C357.464 165.198 356.674 166.158 355.595 166.925C354.524 167.692 353.127 168.263 351.405 168.638L351.191 168.718L359.382 178.743V178.984H353.078ZM362.434 151.574L361.43 155.348H346.654L347.658 151.574H362.434ZM376.112 179.358C374.113 179.358 372.333 179.015 370.772 178.328C369.219 177.632 367.992 176.677 367.091 175.464C366.199 174.241 365.739 172.831 365.713 171.234H371.548C371.584 171.904 371.802 172.492 372.204 173.001C372.614 173.501 373.158 173.889 373.836 174.165C374.515 174.442 375.277 174.58 376.125 174.58C377.008 174.58 377.789 174.424 378.467 174.112C379.145 173.8 379.676 173.367 380.06 172.814C380.444 172.26 380.635 171.623 380.635 170.9C380.635 170.168 380.43 169.521 380.02 168.959C379.618 168.388 379.038 167.942 378.28 167.621C377.53 167.3 376.638 167.139 375.603 167.139H373.047V162.883H375.603C376.478 162.883 377.249 162.731 377.918 162.428C378.597 162.125 379.123 161.705 379.498 161.17C379.873 160.626 380.06 159.992 380.06 159.269C380.06 158.582 379.895 157.98 379.565 157.463C379.243 156.936 378.788 156.526 378.2 156.231C377.62 155.937 376.941 155.79 376.165 155.79C375.38 155.79 374.662 155.932 374.01 156.218C373.359 156.494 372.837 156.892 372.445 157.409C372.052 157.927 371.842 158.533 371.816 159.229H366.261C366.288 157.65 366.739 156.258 367.613 155.054C368.487 153.849 369.665 152.908 371.146 152.23C372.636 151.543 374.318 151.199 376.192 151.199C378.084 151.199 379.739 151.543 381.157 152.23C382.576 152.917 383.678 153.845 384.463 155.013C385.257 156.173 385.65 157.476 385.641 158.921C385.65 160.456 385.172 161.736 384.209 162.763C383.254 163.789 382.009 164.44 380.475 164.717V164.931C382.491 165.189 384.026 165.89 385.079 167.032C386.141 168.165 386.667 169.584 386.658 171.288C386.667 172.849 386.216 174.237 385.306 175.45C384.405 176.664 383.16 177.618 381.572 178.314C379.984 179.01 378.164 179.358 376.112 179.358ZM390.409 174.165V169.602L401.852 151.574H405.787V157.891H403.458L396.244 169.307V169.521H412.505V174.165H390.409ZM403.565 178.984V172.773L403.672 170.753V151.574H409.106V178.984H403.565ZM427.114 179.586C424.812 179.577 422.831 179.01 421.171 177.886C419.521 176.762 418.249 175.133 417.357 173.001C416.474 170.869 416.036 168.303 416.045 165.305C416.045 162.316 416.487 159.769 417.37 157.663C418.262 155.558 419.534 153.956 421.185 152.859C422.844 151.752 424.82 151.199 427.114 151.199C429.407 151.199 431.378 151.752 433.029 152.859C434.689 153.965 435.965 155.571 436.857 157.677C437.749 159.773 438.191 162.316 438.182 165.305C438.182 168.312 437.736 170.882 436.843 173.014C435.96 175.147 434.693 176.775 433.042 177.899C431.392 179.024 429.416 179.586 427.114 179.586ZM427.114 174.781C428.684 174.781 429.937 173.991 430.874 172.412C431.811 170.833 432.275 168.464 432.266 165.305C432.266 163.226 432.052 161.496 431.624 160.113C431.204 158.73 430.607 157.69 429.83 156.994C429.063 156.298 428.157 155.95 427.114 155.95C425.552 155.95 424.303 156.731 423.366 158.292C422.429 159.854 421.956 162.191 421.947 165.305C421.947 167.411 422.157 169.169 422.576 170.579C423.005 171.979 423.607 173.032 424.383 173.737C425.16 174.433 426.07 174.781 427.114 174.781ZM453.061 179.586C450.759 179.577 448.778 179.01 447.119 177.886C445.468 176.762 444.197 175.133 443.304 173.001C442.421 170.869 441.984 168.303 441.993 165.305C441.993 162.316 442.434 159.769 443.318 157.663C444.21 155.558 445.481 153.956 447.132 152.859C448.792 151.752 450.768 151.199 453.061 151.199C455.354 151.199 457.326 151.752 458.977 152.859C460.636 153.965 461.912 155.571 462.804 157.677C463.697 159.773 464.138 162.316 464.129 165.305C464.129 168.312 463.683 170.882 462.791 173.014C461.908 175.147 460.641 176.775 458.99 177.899C457.339 179.024 455.363 179.586 453.061 179.586ZM453.061 174.781C454.631 174.781 455.885 173.991 456.822 172.412C457.759 170.833 458.223 168.464 458.214 165.305C458.214 163.226 458 161.496 457.571 160.113C457.152 158.73 456.554 157.69 455.778 156.994C455.011 156.298 454.105 155.95 453.061 155.95C451.5 155.95 450.251 156.731 449.314 158.292C448.377 159.854 447.904 162.191 447.895 165.305C447.895 167.411 448.105 169.169 448.524 170.579C448.952 171.979 449.555 173.032 450.331 173.737C451.107 174.433 452.017 174.781 453.061 174.781ZM468.262 178.984V174.808L478.018 165.774C478.848 164.971 479.544 164.248 480.106 163.606C480.677 162.963 481.11 162.334 481.404 161.719C481.699 161.094 481.846 160.42 481.846 159.698C481.846 158.895 481.663 158.203 481.297 157.623C480.931 157.034 480.432 156.584 479.798 156.271C479.165 155.95 478.447 155.79 477.644 155.79C476.805 155.79 476.073 155.959 475.449 156.298C474.824 156.637 474.342 157.124 474.003 157.757C473.664 158.391 473.495 159.144 473.495 160.019H467.994C467.994 158.225 468.4 156.668 469.212 155.348C470.024 154.027 471.161 153.006 472.625 152.283C474.088 151.56 475.774 151.199 477.684 151.199C479.647 151.199 481.355 151.547 482.81 152.243C484.273 152.93 485.411 153.885 486.222 155.107C487.034 156.329 487.44 157.73 487.44 159.31C487.44 160.345 487.235 161.366 486.825 162.374C486.423 163.383 485.705 164.502 484.67 165.734C483.635 166.956 482.176 168.424 480.294 170.137L476.292 174.058V174.246H487.802V178.984H468.262ZM503.926 151.574V178.984H498.131V157.074H497.97L491.693 161.009V155.87L498.479 151.574H503.926Z" fill="black"/>
<path d="M343.942 109.742V93.3634H346.096V107.764H353.286V109.742H343.942ZM355.224 109.742V97.8923H357.268V109.742H355.224ZM355.224 96.0016V93.3634H357.268V96.0016H355.224ZM363.673 110.006C362.896 110.006 362.207 109.867 361.606 109.588C361.02 109.295 360.558 108.899 360.221 108.401C359.884 107.888 359.715 107.302 359.715 106.642C359.715 106.012 359.847 105.448 360.111 104.949C360.389 104.436 360.814 104.004 361.386 103.652C361.972 103.301 362.705 103.051 363.585 102.905L367.982 102.179V103.894L364.046 104.554C363.284 104.686 362.727 104.927 362.375 105.279C362.038 105.631 361.87 106.063 361.87 106.576C361.87 107.06 362.06 107.463 362.441 107.786C362.837 108.108 363.328 108.269 363.914 108.269C364.662 108.269 365.307 108.115 365.849 107.808C366.406 107.485 366.838 107.053 367.146 106.51C367.469 105.968 367.63 105.367 367.63 104.708V101.696C367.63 101.051 367.388 100.531 366.904 100.135C366.435 99.7244 365.812 99.5192 365.036 99.5192C364.361 99.5192 363.76 99.6951 363.233 100.047C362.72 100.384 362.339 100.838 362.09 101.41L360.309 100.487C360.529 99.9442 360.88 99.4606 361.364 99.0355C361.848 98.5958 362.412 98.2514 363.057 98.0022C363.702 97.7531 364.376 97.6285 365.08 97.6285C365.988 97.6285 366.787 97.8044 367.476 98.1561C368.165 98.4932 368.7 98.9696 369.081 99.5852C369.477 100.186 369.674 100.89 369.674 101.696V109.742H367.674V107.5L368.048 107.632C367.798 108.101 367.461 108.511 367.036 108.863C366.611 109.215 366.113 109.493 365.541 109.698C364.97 109.903 364.347 110.006 363.673 110.006ZM378.736 110.006C377.784 110.006 376.912 109.793 376.12 109.368C375.343 108.943 374.743 108.342 374.318 107.566L374.603 107.214V109.742H372.603V93.0996H374.647V100.443L374.339 99.9369C374.779 99.2334 375.38 98.6765 376.142 98.2661C376.904 97.841 377.776 97.6285 378.758 97.6285C379.872 97.6285 380.869 97.8997 381.748 98.4419C382.642 98.9842 383.346 99.7244 383.859 100.662C384.372 101.586 384.628 102.641 384.628 103.828C384.628 104.986 384.372 106.034 383.859 106.972C383.346 107.91 382.642 108.65 381.748 109.193C380.869 109.735 379.865 110.006 378.736 110.006ZM378.583 108.027C379.33 108.027 379.997 107.844 380.583 107.478C381.169 107.111 381.624 106.613 381.946 105.983C382.283 105.338 382.452 104.62 382.452 103.828C382.452 103.007 382.283 102.289 381.946 101.674C381.624 101.043 381.169 100.545 380.583 100.179C379.997 99.7977 379.33 99.6071 378.583 99.6071C377.835 99.6071 377.161 99.7904 376.56 100.157C375.974 100.523 375.505 101.029 375.153 101.674C374.816 102.304 374.647 103.022 374.647 103.828C374.647 104.62 374.816 105.338 375.153 105.983C375.505 106.613 375.974 107.111 376.56 107.478C377.161 107.844 377.835 108.027 378.583 108.027ZM387.068 109.742V97.8923H389.112V109.742H387.068ZM387.068 96.0016V93.3634H389.112V96.0016H387.068ZM392.043 109.742V93.0996H394.087V109.742H392.043ZM397.018 109.742V97.8923H399.063V109.742H397.018ZM397.018 96.0016V93.3634H399.063V96.0016H397.018ZM406.808 109.874C405.65 109.874 404.756 109.544 404.126 108.885C403.51 108.225 403.203 107.295 403.203 106.093V99.849H401.048V97.8923H401.488C402.015 97.8923 402.433 97.7311 402.741 97.4087C403.049 97.0862 403.203 96.6612 403.203 96.1335V95.1662H405.247V97.8923H407.907V99.849H405.247V106.027C405.247 106.422 405.306 106.767 405.423 107.06C405.555 107.353 405.767 107.588 406.061 107.764C406.354 107.925 406.742 108.005 407.226 108.005C407.328 108.005 407.453 107.998 407.6 107.983C407.761 107.969 407.907 107.954 408.039 107.939V109.742C407.849 109.786 407.636 109.815 407.402 109.83C407.167 109.859 406.969 109.874 406.808 109.874ZM411.106 114.579C410.842 114.579 410.578 114.557 410.314 114.513C410.051 114.469 409.801 114.396 409.567 114.293V112.468C409.728 112.498 409.926 112.527 410.16 112.556C410.41 112.6 410.651 112.622 410.886 112.622C411.575 112.622 412.095 112.468 412.447 112.161C412.813 111.867 413.158 111.354 413.48 110.622L414.228 108.841L414.184 110.622L409.127 97.8923H411.348L415.283 108.005H414.623L418.537 97.8923H420.801L415.459 111.149C415.21 111.779 414.887 112.351 414.491 112.864C414.11 113.392 413.641 113.809 413.084 114.117C412.528 114.425 411.868 114.579 411.106 114.579Z" fill="black" fill-opacity="0.7"/>
</g>
<defs>
<filter id="filter0_d_991_1831" x="0.791481" y="26.4447" width="618.417" height="562.814" filterUnits="userSpaceOnUse" color-interpolation-filters="sRGB">
<feFlood flood-opacity="0" result="BackgroundImageFix"/>
<feColorMatrix in="SourceAlpha" type="matrix" values="0 0 0 0 0 0 0 0 0 0 0 0 0 0 0 0 0 0 127 0" result="hardAlpha"/>
<feOffset dy="7.85175"/>
<feGaussianBlur stdDeviation="15.7035"/>
<feComposite in2="hardAlpha" operator="out"/>
<feColorMatrix type="matrix" values="0 0 0 0 0 0 0 0 0 0 0 0 0 0 0 0 0 0 0.05 0"/>
<feBlend mode="normal" in2="BackgroundImageFix" result="effect1_dropShadow_991_1831"/>
<feBlend mode="normal" in="SourceGraphic" in2="effect1_dropShadow_991_1831" result="shape"/>
</filter>
<linearGradient id="paint0_linear_991_1831" x1="90.7444" y1="492.829" x2="90.7444" y2="516.079" gradientUnits="userSpaceOnUse">
<stop stop-color="#1A237E"/>
<stop offset="1" stop-color="white" stop-opacity="0"/>
</linearGradient>
<linearGradient id="paint1_linear_991_1831" x1="383.653" y1="491.069" x2="383.653" y2="514.319" gradientUnits="userSpaceOnUse">
<stop stop-color="#1A237E"/>
<stop offset="1" stop-color="white" stop-opacity="0"/>
</linearGradient>
</defs>
</svg>
