<svg width="80" height="37" viewBox="0 0 80 37" fill="none" xmlns="http://www.w3.org/2000/svg">
<path d="M5.07016 4.2919C5.44016 4.66189 6.10615 5.58687 6.99413 5.17988C7.91912 4.73589 12.692 4.2919 14.246 4.06991C15.8 3.88491 17.132 4.10691 17.132 4.10691C17.132 4.10691 13.025 9.76776 12.3961 10.6927C11.6931 11.5807 8.17811 16.6496 7.51212 17.6855C6.84613 18.7585 5.18116 21.5704 4.40417 22.9764C3.70118 24.3824 4.88517 24.2714 4.88517 24.2714C4.88517 24.2714 7.69712 24.3454 8.32611 24.3454C8.9181 24.3084 9.0291 23.9014 9.1031 23.7164C9.2511 23.4944 9.39909 22.9024 9.95409 22.0144C10.4351 21.1265 11.6561 19.0915 12.988 16.8716C14.32 14.6886 15.874 12.5057 17.021 10.8777C18.242 9.21277 19.6109 7.28882 19.9439 6.84483C20.2399 6.40085 21.6089 4.58789 21.9049 4.18091C22.2009 3.73692 22.3119 3.77392 22.7929 3.73692C22.9409 3.73692 23.3479 3.73692 23.8289 3.77392C25.0869 3.81092 27.0848 3.99591 28.0468 4.06991C29.4528 4.2179 31.4878 4.2549 32.7457 4.3659C34.0037 4.5139 33.6337 3.77392 33.6337 3.77392C33.6337 3.77392 33.7077 2.92294 33.3747 2.03496C32.9677 1.10999 32.6717 1.22098 32.6717 1.22098C31.2288 0.776996 26.6038 0.444005 23.8289 0.370007C23.1259 0.333008 22.5339 0.333008 22.1639 0.333008H21.5719C19.0189 0.370007 12.729 0.739997 11.3601 0.887993C9.88009 1.03599 5.07016 1.96096 4.18218 2.10896C3.33119 2.33095 3.81218 2.88594 3.81218 2.88594C3.81218 2.88594 4.66317 3.88491 5.07016 4.2919Z" fill="#3069B3"/>
<path d="M72.7031 31.8567C72.4071 31.7087 68.5222 30.3398 67.4122 30.0068C66.2282 29.7108 61.3443 28.6748 60.7153 28.6008C60.0863 28.5268 61.6033 27.0469 62.1953 26.2699C62.7873 25.6039 66.0432 22.052 67.1902 21.016C68.2632 19.9431 71.0752 17.3531 71.9261 16.5391C72.7401 15.7252 71.4821 15.3552 71.4821 15.3552C71.4821 15.3552 71.0751 15.1332 69.4472 14.7632C67.7822 14.3562 67.4122 15.2442 67.4122 15.2442C67.4122 15.2442 65.1182 17.3901 63.7493 18.6851C62.3433 19.9801 60.7153 21.053 59.5683 21.682C58.4953 22.311 57.3854 22.755 56.9044 22.459C56.4604 22.2 56.9044 21.534 57.2004 20.942C57.4964 20.313 59.2723 18.3521 59.7163 17.7971C60.1603 17.2421 62.1953 15.0592 63.0463 14.2082C63.8603 13.3202 62.4173 12.9872 61.7143 12.8022C61.0483 12.6543 60.6043 12.5433 59.8643 12.5433C59.1983 12.5433 58.9393 13.0242 58.9393 13.0242C58.9393 13.0242 57.7184 14.2822 57.3854 14.7262C57.0894 15.1702 53.7594 18.8331 52.7234 19.9431C51.6505 21.053 50.2075 22.126 49.8005 22.274C49.3565 22.422 48.5055 22.644 47.7655 21.719C47.0255 20.794 47.6175 20.239 48.5795 18.9071C49.5785 17.6121 52.0944 14.6892 53.3154 13.2462C54.5734 11.8403 59.2353 7.99237 60.1603 7.32639C61.0483 6.66041 60.5303 6.43841 60.5303 6.43841C60.5303 6.43841 59.7163 5.88343 59.2353 5.73543C58.7913 5.51344 58.0144 5.36544 57.2004 5.36544C56.4234 5.36544 56.1274 5.80943 56.1274 5.80943C56.1274 5.80943 53.5374 7.95537 53.0194 8.47336C52.5384 8.91735 46.8775 14.4672 45.8415 15.5402C44.8056 16.6131 41.8456 19.2771 40.8466 20.128C39.8106 20.979 38.8856 21.386 38.3307 21.016C37.7757 20.646 37.9607 20.0171 38.3307 19.4991C38.6266 18.9441 40.8836 16.1692 41.6976 15.2442C42.5116 14.3192 44.9536 11.7293 45.8045 10.8413C46.6555 9.95332 50.0595 6.9934 51.0215 6.14242C52.0574 5.32844 50.7995 4.81046 50.7995 4.81046C50.7995 4.81046 50.0965 4.36647 48.8755 4.14448C47.6545 3.88548 47.4325 4.18147 46.7665 4.62546C46.0635 5.06945 41.5496 9.76833 41.1056 10.2863C40.6616 10.7303 35.1857 16.2432 34.3717 17.1311C33.5207 17.9451 30.7458 20.461 30.1538 20.794C29.6728 21.201 28.0448 22.311 27.6378 21.608C27.1568 20.942 28.1188 20.313 28.1188 20.313C28.1188 20.313 30.5238 17.9821 31.3748 16.9831C32.2257 15.9842 31.7448 14.5782 31.5968 14.2082C31.4118 13.8012 30.7458 12.7282 29.5618 11.7293C28.3408 10.7303 27.1568 10.6933 26.3058 10.6933C25.6028 10.7303 24.5669 11.3593 23.7529 11.7663C23.6049 11.8033 23.4939 11.9143 23.3459 11.9513C22.6429 12.4693 20.2379 14.3192 20.2379 14.3192C20.2379 14.3192 18.314 16.0582 17.13 17.2421C16.057 18.4261 15.169 19.3881 16.353 21.756C17.574 24.1239 19.7939 24.6789 20.7559 24.7899C21.6069 24.9379 22.7909 23.9759 23.1609 23.606C23.4569 23.31 23.6049 23.347 23.8269 23.754C23.8639 23.791 23.9009 23.9019 23.9749 23.9759C24.2709 24.5679 25.3069 24.9749 26.2688 25.1599C27.1568 25.3079 27.5638 25.0859 29.1918 24.6049C30.8198 24.1239 33.8167 22.274 34.3347 21.867C34.9267 21.423 34.9637 22.089 35.4447 22.977C35.9257 23.865 37.1467 24.1979 38.1827 24.3089C39.2556 24.3829 39.7366 24.1239 40.4766 23.8279C41.1426 23.532 42.9926 22.607 43.5846 22.2C44.1396 21.83 44.2136 21.793 44.4356 22.385C44.6576 22.94 44.6946 23.421 46.3595 24.5309C47.9875 25.7149 50.7625 25.0119 51.3545 24.8269C52.0204 24.6049 53.2044 23.9759 53.5004 23.791C53.7964 23.606 54.0554 24.0869 54.7214 24.7899C55.3504 25.4189 56.6084 25.3819 57.4224 24.8639C58.2363 24.3089 57.8294 24.9009 57.8294 24.9009C57.8294 24.9009 56.6084 26.6029 56.2014 27.0469C55.8314 27.4909 55.7944 27.8238 55.3874 27.7128C55.0174 27.6388 53.7224 27.5279 51.7614 27.4169C49.8005 27.2689 45.2125 27.0469 41.8826 27.0099C38.5527 26.9729 29.7468 27.4539 26.4538 27.6388C25.7508 27.6758 24.8259 27.7868 23.7899 27.8608C20.0159 28.2678 14.836 29.0818 12.838 29.3408C10.3221 29.7478 2.33021 31.4127 0.702231 31.9307C0.295238 32.0787 0.110242 32.1897 0.0732422 32.3747V32.4487C0.147241 32.8927 1.33122 33.3737 2.18221 33.7807C3.40319 34.3727 4.58717 34.0397 4.58717 34.0397C4.58717 34.0397 6.99214 33.5957 8.25012 33.3737C9.4711 33.1147 18.462 31.7457 20.7189 31.3388C21.3479 31.2648 22.4209 31.1168 23.7529 30.9318C27.1938 30.5248 32.0778 30.0808 33.7427 29.9328C36.0737 29.7848 42.5486 29.7848 44.3616 29.7478C46.1745 29.7108 52.4274 30.0438 52.7604 30.1178C53.0564 30.1918 54.0554 30.0808 53.4264 30.5988C52.8344 31.2278 51.3915 34.1877 51.0215 34.8537C50.6515 35.5566 50.7995 35.5196 51.4655 35.8896C52.0944 36.2596 53.7594 36.3336 54.1664 36.3336C54.5364 36.3336 54.6474 35.8896 54.6474 35.8896C54.6474 35.8896 56.6824 32.7817 57.3484 31.7827C58.0144 30.7098 58.4213 30.9688 58.4213 30.9688C58.4213 30.9688 61.6033 31.5607 63.0093 31.8197C64.4153 32.0787 69.5952 33.4477 70.7052 33.9287C71.8151 34.4097 72.3331 34.3727 72.6291 34.2987C72.9251 34.1507 73.6281 32.5967 73.6281 32.5967V32.3377C73.5911 32.2267 72.9251 32.0417 72.7031 31.8567ZM24.9739 19.2401C24.7149 19.4621 24.2709 19.7211 23.7899 20.0541C22.6059 20.868 21.1999 21.793 20.7559 21.941C20.1269 22.126 19.7199 22.348 19.3499 21.793C18.943 21.238 20.1269 20.1651 20.1269 20.1651C20.1269 20.1651 22.2729 18.2411 23.0869 17.5011C23.2719 17.3531 23.5309 17.1311 23.7899 16.9461C24.8629 16.0952 26.3428 14.9112 26.7498 14.6892C27.2308 14.4302 27.6378 14.2082 28.0818 14.6522C28.5258 15.0962 28.1558 15.5402 28.0078 15.7622C27.9338 16.0212 25.9358 18.5371 24.9739 19.2401Z" fill="#3069B3"/>
<path d="M76.337 11.0977C76.966 11.0977 77.558 11.2457 78.113 11.5416C78.705 11.8376 79.1489 12.3186 79.4449 12.8736C79.7409 13.4656 79.9259 14.0576 79.9259 14.6496C79.9259 15.2415 79.7409 15.8705 79.4449 16.4255C79.1489 17.0175 78.668 17.4615 78.113 17.7575C77.521 18.0535 76.929 18.2385 76.337 18.2385C75.708 18.2385 75.116 18.0535 74.561 17.7575C73.969 17.4615 73.525 16.9805 73.229 16.4255C72.933 15.8335 72.748 15.2415 72.748 14.6496C72.748 14.0576 72.933 13.4286 73.229 12.8736C73.525 12.2816 74.006 11.8376 74.561 11.5416C75.116 11.2087 75.708 11.0977 76.337 11.0977ZM76.337 11.6896C75.856 11.6896 75.338 11.8376 74.857 12.0966C74.376 12.3556 74.006 12.7256 73.747 13.2066C73.488 13.6876 73.34 14.2056 73.34 14.7236C73.34 15.2785 73.488 15.7595 73.747 16.2035C74.006 16.6845 74.376 17.0545 74.857 17.3135C75.338 17.5725 75.856 17.7205 76.337 17.7205C76.892 17.7205 77.373 17.5725 77.817 17.3135C78.261 17.0545 78.6679 16.6845 78.9269 16.2035C79.1859 15.7595 79.3339 15.2045 79.3339 14.7236C79.3339 14.1686 79.1859 13.6876 78.9269 13.2066C78.6679 12.7256 78.298 12.3556 77.817 12.0966C77.336 11.8006 76.818 11.6896 76.337 11.6896ZM74.783 16.6475V12.7996H76.115C76.559 12.7996 76.892 12.8366 77.114 12.8736C77.336 12.9476 77.484 13.0586 77.595 13.2806C77.743 13.4656 77.78 13.6506 77.78 13.8356C77.78 14.0946 77.706 14.3906 77.484 14.5386C77.262 14.7606 77.04 14.8346 76.67 14.9086C76.818 14.9456 76.892 15.0566 76.966 15.1305C77.114 15.2785 77.336 15.5375 77.558 15.9075L78.002 16.6845H77.225L76.855 16.0555C76.596 15.6115 76.374 15.2785 76.189 15.1675C76.041 15.0935 75.93 15.0196 75.708 15.0196H75.338V16.6845H74.783V16.6475ZM75.412 14.5016H76.189C76.559 14.5016 76.818 14.4646 76.892 14.3166C77.04 14.2426 77.114 14.0576 77.114 13.8726C77.114 13.7246 77.077 13.6506 77.04 13.5766C77.003 13.5026 76.892 13.4286 76.781 13.3546C76.633 13.3176 76.485 13.3176 76.152 13.3176H75.449V14.5016H75.412Z" fill="#3069B3"/>
</svg>
