<svg width="600" height="600" viewBox="0 0 600 600" fill="none" xmlns="http://www.w3.org/2000/svg">
<rect width="600" height="600" rx="8" fill="#E9ECFF"/>
<g filter="url(#filter0_d_1003_189)">
<rect x="25.3418" y="168" width="234.484" height="264" rx="16.3975" fill="white"/>
<rect x="25.7517" y="168.41" width="233.665" height="263.18" rx="15.9876" stroke="#EFF0F6" stroke-width="0.819876"/>
</g>
<path d="M108.969 229.49C108.969 227.226 110.804 225.391 113.068 225.391C115.332 225.391 117.168 227.226 117.168 229.49L117.168 384.447C117.168 386.711 115.332 388.546 113.068 388.546C110.804 388.546 108.969 386.711 108.969 384.447L108.969 229.49Z" fill="#D4D8FF"/>
<path d="M108.969 268.844C108.969 266.58 110.804 264.745 113.068 264.745C115.332 264.745 117.168 266.58 117.168 268.844L117.168 385.267C117.168 387.531 115.332 389.366 113.068 389.366C110.804 389.366 108.969 387.531 108.969 385.267L108.969 268.844Z" fill="url(#paint0_linear_1003_189)" fill-opacity="0.8"/>
<path d="M142.584 229.49C142.584 227.226 144.419 225.391 146.683 225.391C148.947 225.391 150.783 227.226 150.783 229.49L150.783 384.447C150.783 386.711 148.947 388.546 146.683 388.546C144.419 388.546 142.584 386.711 142.584 384.447L142.584 229.49Z" fill="#D4D8FF"/>
<g filter="url(#filter1_d_1003_189)">
<path d="M142.584 331.155C142.584 328.891 144.419 327.056 146.683 327.056C148.947 327.056 150.783 328.891 150.783 331.155L150.783 385.267C150.783 387.531 148.947 389.366 146.683 389.366C144.419 389.366 142.584 387.531 142.584 385.267L142.584 331.155Z" fill="url(#paint1_linear_1003_189)" fill-opacity="0.8" shape-rendering="crispEdges"/>
</g>
<path d="M175.379 229.49C175.379 227.226 177.214 225.391 179.478 225.391C181.742 225.391 183.578 227.226 183.578 229.49L183.578 384.447C183.578 386.711 181.742 388.546 179.478 388.546C177.214 388.546 175.379 386.711 175.379 384.447L175.379 229.49Z" fill="#D4D8FF"/>
<g filter="url(#filter2_d_1003_189)">
<path d="M176.199 311.478C176.199 309.214 178.034 307.379 180.298 307.379C182.562 307.379 184.397 309.214 184.397 311.478L184.397 385.267C184.397 387.531 182.562 389.366 180.298 389.366C178.034 389.366 176.199 387.531 176.199 385.267L176.199 311.478Z" fill="url(#paint2_linear_1003_189)" fill-opacity="0.8" shape-rendering="crispEdges"/>
</g>
<path d="M208.994 229.49C208.994 227.226 210.829 225.391 213.093 225.391C215.357 225.391 217.192 227.226 217.192 229.49L217.192 384.447C217.192 386.711 215.357 388.546 213.093 388.546C210.829 388.546 208.994 386.711 208.994 384.447L208.994 229.49Z" fill="#D4D8FF"/>
<g filter="url(#filter3_d_1003_189)">
<path d="M208.994 280.323C208.994 278.059 210.829 276.224 213.093 276.224C215.357 276.224 217.192 278.059 217.192 280.323L217.192 385.267C217.192 387.531 215.357 389.366 213.093 389.366C210.829 389.366 208.994 387.531 208.994 385.267L208.994 280.323Z" fill="url(#paint3_linear_1003_189)" fill-opacity="0.8" shape-rendering="crispEdges"/>
</g>
<g opacity="0.5">
<path d="M47.252 232.571V231.229H44.4154V230.446L47.212 226.619H48.1469V230.446H48.9699V231.229H48.1469V232.571H47.252ZM45.1106 230.789L44.9588 230.446H47.252V227.37L47.5077 227.45L45.1106 230.789ZM52.1379 232.667C51.6638 232.667 51.2483 232.539 50.8914 232.284C50.5345 232.023 50.2548 231.663 50.0524 231.205C49.8553 230.742 49.7568 230.204 49.7568 229.591C49.7568 228.973 49.8553 228.435 50.0524 227.977C50.2548 227.519 50.5318 227.162 50.8834 226.906C51.2403 226.651 51.6558 226.523 52.1299 226.523C52.604 226.523 53.0168 226.651 53.3683 226.906C53.7252 227.162 54.0022 227.521 54.1993 227.985C54.4017 228.443 54.503 228.978 54.503 229.591C54.503 230.204 54.4044 230.742 54.2073 231.205C54.0102 231.663 53.7332 232.023 53.3763 232.284C53.0248 232.539 52.6119 232.667 52.1379 232.667ZM52.1379 231.804C52.4308 231.804 52.6839 231.714 52.8969 231.533C53.11 231.351 53.2751 231.096 53.3923 230.766C53.5095 230.435 53.5681 230.044 53.5681 229.591C53.5681 229.138 53.5095 228.747 53.3923 228.416C53.2751 228.086 53.11 227.83 52.8969 227.649C52.6839 227.468 52.4282 227.378 52.1299 227.378C51.8369 227.378 51.5839 227.468 51.3708 227.649C51.1577 227.83 50.9926 228.086 50.8754 228.416C50.7582 228.747 50.6996 229.138 50.6996 229.591C50.6996 230.038 50.7582 230.43 50.8754 230.766C50.9926 231.096 51.1577 231.351 51.3708 231.533C51.5892 231.714 51.8449 231.804 52.1379 231.804ZM57.8574 232.667C57.3833 232.667 56.9678 232.539 56.6109 232.284C56.254 232.023 55.9744 231.663 55.772 231.205C55.5749 230.742 55.4763 230.204 55.4763 229.591C55.4763 228.973 55.5749 228.435 55.772 227.977C55.9744 227.519 56.2514 227.162 56.6029 226.906C56.9598 226.651 57.3753 226.523 57.8494 226.523C58.3235 226.523 58.7363 226.651 59.0879 226.906C59.4448 227.162 59.7218 227.521 59.9189 227.985C60.1213 228.443 60.2225 228.978 60.2225 229.591C60.2225 230.204 60.124 230.742 59.9269 231.205C59.7298 231.663 59.4528 232.023 59.0959 232.284C58.7443 232.539 58.3315 232.667 57.8574 232.667ZM57.8574 231.804C58.1504 231.804 58.4034 231.714 58.6165 231.533C58.8296 231.351 58.9947 231.096 59.1119 230.766C59.2291 230.435 59.2877 230.044 59.2877 229.591C59.2877 229.138 59.2291 228.747 59.1119 228.416C58.9947 228.086 58.8296 227.83 58.6165 227.649C58.4034 227.468 58.1477 227.378 57.8494 227.378C57.5564 227.378 57.3034 227.468 57.0904 227.649C56.8773 227.83 56.7121 228.086 56.595 228.416C56.4778 228.747 56.4192 229.138 56.4192 229.591C56.4192 230.038 56.4778 230.43 56.595 230.766C56.7121 231.096 56.8773 231.351 57.0904 231.533C57.3088 231.714 57.5644 231.804 57.8574 231.804Z" fill="black"/>
<path d="M46.7259 270.124C46.4063 270.124 46.1053 270.065 45.823 269.948C45.546 269.831 45.3063 269.666 45.1039 269.453C44.9068 269.239 44.7656 268.989 44.6804 268.701L45.4794 268.398C45.5859 268.68 45.7484 268.899 45.9668 269.053C46.1852 269.208 46.4382 269.285 46.7259 269.285C46.9602 269.285 47.1627 269.239 47.3331 269.149C47.5089 269.058 47.6447 268.931 47.7406 268.765C47.8418 268.6 47.8924 268.4 47.8924 268.166C47.8924 267.937 47.8418 267.74 47.7406 267.575C47.6447 267.41 47.5089 267.285 47.3331 267.199C47.1627 267.114 46.9602 267.071 46.7259 267.071C46.63 267.071 46.5314 267.079 46.4302 267.095C46.3343 267.111 46.2491 267.133 46.1745 267.159L45.9668 266.72L47.5329 264.874H45V264.075H48.5876V264.834L47.0535 266.672L47.0295 266.368C47.3864 266.374 47.7007 266.454 47.9723 266.608C48.244 266.757 48.4544 266.965 48.6036 267.231C48.758 267.492 48.8353 267.796 48.8353 268.142C48.8353 268.515 48.7447 268.853 48.5636 269.157C48.3825 269.455 48.1321 269.692 47.8125 269.868C47.4982 270.038 47.136 270.124 46.7259 270.124ZM52.1379 270.124C51.6638 270.124 51.2483 269.996 50.8914 269.74C50.5345 269.479 50.2548 269.12 50.0524 268.662C49.8553 268.198 49.7568 267.66 49.7568 267.047C49.7568 266.43 49.8553 265.892 50.0524 265.433C50.2548 264.975 50.5318 264.618 50.8834 264.363C51.2403 264.107 51.6558 263.979 52.1299 263.979C52.604 263.979 53.0168 264.107 53.3683 264.363C53.7252 264.618 54.0022 264.978 54.1993 265.441C54.4017 265.9 54.503 266.435 54.503 267.047C54.503 267.66 54.4044 268.198 54.2073 268.662C54.0102 269.12 53.7332 269.479 53.3763 269.74C53.0248 269.996 52.6119 270.124 52.1379 270.124ZM52.1379 269.261C52.4308 269.261 52.6839 269.17 52.8969 268.989C53.11 268.808 53.2751 268.552 53.3923 268.222C53.5095 267.892 53.5681 267.5 53.5681 267.047C53.5681 266.595 53.5095 266.203 53.3923 265.873C53.2751 265.543 53.11 265.287 52.8969 265.106C52.6839 264.925 52.4282 264.834 52.1299 264.834C51.8369 264.834 51.5839 264.925 51.3708 265.106C51.1577 265.287 50.9926 265.543 50.8754 265.873C50.7582 266.203 50.6996 266.595 50.6996 267.047C50.6996 267.495 50.7582 267.886 50.8754 268.222C50.9926 268.552 51.1577 268.808 51.3708 268.989C51.5892 269.17 51.8449 269.261 52.1379 269.261ZM57.8574 270.124C57.3833 270.124 56.9678 269.996 56.6109 269.74C56.254 269.479 55.9744 269.12 55.772 268.662C55.5749 268.198 55.4763 267.66 55.4763 267.047C55.4763 266.43 55.5749 265.892 55.772 265.433C55.9744 264.975 56.2514 264.618 56.6029 264.363C56.9598 264.107 57.3753 263.979 57.8494 263.979C58.3235 263.979 58.7363 264.107 59.0879 264.363C59.4448 264.618 59.7218 264.978 59.9189 265.441C60.1213 265.9 60.2225 266.435 60.2225 267.047C60.2225 267.66 60.124 268.198 59.9269 268.662C59.7298 269.12 59.4528 269.479 59.0959 269.74C58.7443 269.996 58.3315 270.124 57.8574 270.124ZM57.8574 269.261C58.1504 269.261 58.4034 269.17 58.6165 268.989C58.8296 268.808 58.9947 268.552 59.1119 268.222C59.2291 267.892 59.2877 267.5 59.2877 267.047C59.2877 266.595 59.2291 266.203 59.1119 265.873C58.9947 265.543 58.8296 265.287 58.6165 265.106C58.4034 264.925 58.1477 264.834 57.8494 264.834C57.5564 264.834 57.3034 264.925 57.0904 265.106C56.8773 265.287 56.7121 265.543 56.595 265.873C56.4778 266.203 56.4192 266.595 56.4192 267.047C56.4192 267.495 56.4778 267.886 56.595 268.222C56.7121 268.552 56.8773 268.808 57.0904 268.989C57.3087 269.17 57.5644 269.261 57.8574 269.261Z" fill="black"/>
<path d="M44.8935 307.486V306.807L46.5235 305.065C46.8431 304.724 47.0935 304.45 47.2746 304.242C47.461 304.029 47.5942 303.842 47.6741 303.683C47.7593 303.523 47.8019 303.355 47.8019 303.179C47.8019 302.891 47.714 302.67 47.5382 302.516C47.3625 302.356 47.1361 302.276 46.8591 302.276C46.5714 302.276 46.3237 302.359 46.116 302.524C45.9082 302.684 45.7644 302.918 45.6845 303.227L44.8535 302.987C44.9175 302.673 45.0453 302.401 45.2371 302.172C45.4288 301.938 45.6632 301.757 45.9402 301.629C46.2225 301.501 46.5261 301.437 46.8511 301.437C47.2293 301.437 47.5595 301.509 47.8419 301.653C48.1242 301.791 48.3426 301.986 48.4971 302.236C48.6569 302.487 48.7368 302.777 48.7368 303.107C48.7368 303.326 48.6942 303.539 48.6089 303.746C48.529 303.949 48.4038 304.165 48.2334 304.394C48.0629 304.617 47.8445 304.87 47.5782 305.153L46.14 306.687H48.8486V307.486H44.8935ZM52.1379 307.582C51.6638 307.582 51.2483 307.454 50.8914 307.198C50.5345 306.937 50.2548 306.578 50.0524 306.12C49.8553 305.656 49.7568 305.118 49.7568 304.505C49.7568 303.888 49.8553 303.35 50.0524 302.891C50.2548 302.433 50.5318 302.076 50.8834 301.821C51.2403 301.565 51.6558 301.437 52.1299 301.437C52.604 301.437 53.0168 301.565 53.3683 301.821C53.7252 302.076 54.0022 302.436 54.1993 302.899C54.4017 303.358 54.503 303.893 54.503 304.505C54.503 305.118 54.4044 305.656 54.2073 306.12C54.0102 306.578 53.7332 306.937 53.3763 307.198C53.0248 307.454 52.6119 307.582 52.1379 307.582ZM52.1379 306.719C52.4308 306.719 52.6839 306.628 52.8969 306.447C53.11 306.266 53.2751 306.01 53.3923 305.68C53.5095 305.35 53.5681 304.958 53.5681 304.505C53.5681 304.053 53.5095 303.661 53.3923 303.331C53.2751 303.001 53.11 302.745 52.8969 302.564C52.6839 302.383 52.4282 302.292 52.1299 302.292C51.8369 302.292 51.5839 302.383 51.3708 302.564C51.1577 302.745 50.9926 303.001 50.8754 303.331C50.7582 303.661 50.6996 304.053 50.6996 304.505C50.6996 304.953 50.7582 305.344 50.8754 305.68C50.9926 306.01 51.1577 306.266 51.3708 306.447C51.5892 306.628 51.8449 306.719 52.1379 306.719ZM57.8574 307.582C57.3833 307.582 56.9678 307.454 56.6109 307.198C56.254 306.937 55.9744 306.578 55.772 306.12C55.5749 305.656 55.4763 305.118 55.4763 304.505C55.4763 303.888 55.5749 303.35 55.772 302.891C55.9744 302.433 56.2514 302.076 56.6029 301.821C56.9598 301.565 57.3753 301.437 57.8494 301.437C58.3235 301.437 58.7363 301.565 59.0879 301.821C59.4448 302.076 59.7218 302.436 59.9189 302.899C60.1213 303.358 60.2225 303.893 60.2225 304.505C60.2225 305.118 60.124 305.656 59.9269 306.12C59.7298 306.578 59.4528 306.937 59.0959 307.198C58.7443 307.454 58.3315 307.582 57.8574 307.582ZM57.8574 306.719C58.1504 306.719 58.4034 306.628 58.6165 306.447C58.8296 306.266 58.9947 306.01 59.1119 305.68C59.2291 305.35 59.2877 304.958 59.2877 304.505C59.2877 304.053 59.2291 303.661 59.1119 303.331C58.9947 303.001 58.8296 302.745 58.6165 302.564C58.4034 302.383 58.1477 302.292 57.8494 302.292C57.5564 302.292 57.3034 302.383 57.0904 302.564C56.8773 302.745 56.7121 303.001 56.595 303.331C56.4778 303.661 56.4192 304.053 56.4192 304.505C56.4192 304.953 56.4778 305.344 56.595 305.68C56.7121 306.01 56.8773 306.266 57.0904 306.447C57.3087 306.628 57.5644 306.719 57.8574 306.719Z" fill="black"/>
<path d="M47.5467 344.942V339.789H46.4041V338.99H48.4815V344.942H47.5467ZM52.1379 345.038C51.6638 345.038 51.2483 344.91 50.8914 344.655C50.5345 344.394 50.2548 344.034 50.0524 343.576C49.8553 343.113 49.7568 342.575 49.7568 341.962C49.7568 341.344 49.8553 340.806 50.0524 340.348C50.2548 339.89 50.5318 339.533 50.8834 339.277C51.2403 339.022 51.6558 338.894 52.1299 338.894C52.604 338.894 53.0168 339.022 53.3683 339.277C53.7252 339.533 54.0022 339.893 54.1993 340.356C54.4017 340.814 54.503 341.349 54.503 341.962C54.503 342.575 54.4044 343.113 54.2073 343.576C54.0102 344.034 53.7332 344.394 53.3763 344.655C53.0248 344.91 52.6119 345.038 52.1379 345.038ZM52.1379 344.175C52.4308 344.175 52.6839 344.085 52.8969 343.904C53.11 343.723 53.2751 343.467 53.3923 343.137C53.5095 342.806 53.5681 342.415 53.5681 341.962C53.5681 341.509 53.5095 341.118 53.3923 340.787C53.2751 340.457 53.11 340.202 52.8969 340.02C52.6839 339.839 52.4282 339.749 52.1299 339.749C51.8369 339.749 51.5839 339.839 51.3708 340.02C51.1577 340.202 50.9926 340.457 50.8754 340.787C50.7582 341.118 50.6996 341.509 50.6996 341.962C50.6996 342.409 50.7582 342.801 50.8754 343.137C50.9926 343.467 51.1577 343.723 51.3708 343.904C51.5892 344.085 51.8449 344.175 52.1379 344.175ZM57.8574 345.038C57.3833 345.038 56.9678 344.91 56.6109 344.655C56.254 344.394 55.9744 344.034 55.772 343.576C55.5749 343.113 55.4763 342.575 55.4763 341.962C55.4763 341.344 55.5749 340.806 55.772 340.348C55.9744 339.89 56.2514 339.533 56.6029 339.277C56.9598 339.022 57.3753 338.894 57.8494 338.894C58.3235 338.894 58.7363 339.022 59.0879 339.277C59.4448 339.533 59.7218 339.893 59.9189 340.356C60.1213 340.814 60.2225 341.349 60.2225 341.962C60.2225 342.575 60.124 343.113 59.9269 343.576C59.7298 344.034 59.4528 344.394 59.0959 344.655C58.7443 344.91 58.3315 345.038 57.8574 345.038ZM57.8574 344.175C58.1504 344.175 58.4034 344.085 58.6165 343.904C58.8296 343.723 58.9947 343.467 59.1119 343.137C59.2291 342.806 59.2877 342.415 59.2877 341.962C59.2877 341.509 59.2291 341.118 59.1119 340.787C58.9947 340.457 58.8296 340.202 58.6165 340.02C58.4034 339.839 58.1477 339.749 57.8494 339.749C57.5564 339.749 57.3034 339.839 57.0903 340.02C56.8773 340.202 56.7121 340.457 56.595 340.787C56.4778 341.118 56.4192 341.509 56.4192 341.962C56.4192 342.409 56.4778 342.801 56.595 343.137C56.7121 343.467 56.8773 343.723 57.0903 343.904C57.3087 344.085 57.5644 344.175 57.8574 344.175Z" fill="black"/>
<path d="M56.8901 382.495C56.416 382.495 56.0005 382.367 55.6437 382.111C55.2868 381.85 55.0071 381.491 54.8047 381.033C54.6076 380.569 54.509 380.031 54.509 379.419C54.509 378.801 54.6076 378.263 54.8047 377.805C55.0071 377.346 55.2841 376.99 55.6357 376.734C55.9926 376.478 56.408 376.35 56.8821 376.35C57.3562 376.35 57.769 376.478 58.1206 376.734C58.4775 376.99 58.7545 377.349 58.9516 377.813C59.154 378.271 59.2552 378.806 59.2552 379.419C59.2552 380.031 59.1567 380.569 58.9596 381.033C58.7625 381.491 58.4855 381.85 58.1286 382.111C57.777 382.367 57.3642 382.495 56.8901 382.495ZM56.8901 381.632C57.1831 381.632 57.4361 381.541 57.6492 381.36C57.8623 381.179 58.0274 380.923 58.1446 380.593C58.2618 380.263 58.3204 379.871 58.3204 379.419C58.3204 378.966 58.2618 378.574 58.1446 378.244C58.0274 377.914 57.8623 377.658 57.6492 377.477C57.4361 377.296 57.1804 377.205 56.8821 377.205C56.5892 377.205 56.3361 377.296 56.1231 377.477C55.91 377.658 55.7449 377.914 55.6277 378.244C55.5105 378.574 55.4519 378.966 55.4519 379.419C55.4519 379.866 55.5105 380.258 55.6277 380.593C55.7449 380.923 55.91 381.179 56.1231 381.36C56.3415 381.541 56.5972 381.632 56.8901 381.632Z" fill="black"/>
</g>
<path d="M42.692 192.298V183.747H43.8168V192.298H42.692ZM45.4659 192.298V186.112H46.5104V187.317L46.3383 187.213C46.4913 186.823 46.7362 186.521 47.0729 186.307C47.4172 186.085 47.819 185.974 48.2781 185.974C48.7219 185.974 49.116 186.073 49.4604 186.272C49.8124 186.471 50.0878 186.747 50.2868 187.099C50.4934 187.451 50.5967 187.849 50.5967 188.292V192.298H49.5178V188.637C49.5178 188.292 49.4565 188.002 49.3341 187.764C49.2117 187.527 49.0357 187.344 48.8061 187.213C48.5842 187.076 48.3278 187.007 48.0371 187.007C47.7463 187.007 47.4861 187.076 47.2565 187.213C47.0346 187.344 46.8586 187.531 46.7285 187.776C46.5984 188.013 46.5334 188.3 46.5334 188.637V192.298H45.4659ZM53.6076 192.298L51.1857 186.112H52.3794L54.3193 191.346H53.906L55.8573 186.112H57.0511L54.6177 192.298H53.6076ZM60.7062 192.436C60.1093 192.436 59.5698 192.298 59.0878 192.023C58.6057 191.74 58.2231 191.353 57.9399 190.864C57.6568 190.374 57.5152 189.819 57.5152 189.199C57.5152 188.579 57.653 188.028 57.9284 187.546C58.2116 187.064 58.5942 186.682 59.0763 186.399C59.5584 186.115 60.1017 185.974 60.7062 185.974C61.3031 185.974 61.8425 186.115 62.3246 186.399C62.8067 186.674 63.1855 187.053 63.461 187.535C63.7441 188.017 63.8857 188.572 63.8857 189.199C63.8857 189.827 63.7403 190.385 63.4495 190.875C63.1587 191.357 62.7723 191.74 62.2902 192.023C61.8158 192.298 61.2878 192.436 60.7062 192.436ZM60.7062 191.403C61.0888 191.403 61.4331 191.307 61.7392 191.116C62.053 190.925 62.2978 190.661 62.4738 190.324C62.6575 189.987 62.7493 189.612 62.7493 189.199C62.7493 188.778 62.6575 188.407 62.4738 188.086C62.2978 187.757 62.053 187.497 61.7392 187.305C61.4331 187.106 61.0888 187.007 60.7062 187.007C60.3159 187.007 59.9639 187.106 59.6502 187.305C59.3441 187.497 59.0992 187.757 58.9156 188.086C58.7319 188.407 58.6401 188.778 58.6401 189.199C58.6401 189.612 58.7319 189.987 58.9156 190.324C59.0992 190.661 59.3441 190.925 59.6502 191.116C59.9639 191.307 60.3159 191.403 60.7062 191.403ZM65.1517 192.298V186.112H66.2192V192.298H65.1517ZM65.1517 185.124V183.747H66.2192V185.124H65.1517ZM70.6188 192.436C70.0143 192.436 69.4748 192.295 69.0004 192.011C68.5336 191.728 68.1663 191.342 67.8985 190.852C67.6307 190.362 67.4967 189.811 67.4967 189.199C67.4967 188.579 67.6307 188.028 67.8985 187.546C68.1663 187.064 68.5336 186.682 69.0004 186.399C69.4748 186.115 70.0143 185.974 70.6188 185.974C71.0244 185.974 71.4032 186.047 71.7552 186.192C72.1072 186.337 72.4171 186.532 72.6849 186.777C72.9527 187.022 73.1479 187.309 73.2703 187.638L72.3176 188.097C72.1722 187.776 71.9503 187.516 71.6519 187.317C71.3534 187.11 71.0091 187.007 70.6188 187.007C70.2439 187.007 69.9034 187.103 69.5973 187.294C69.2988 187.485 69.0616 187.745 68.8856 188.074C68.7096 188.403 68.6216 188.782 68.6216 189.211C68.6216 189.624 68.7096 189.999 68.8856 190.336C69.0616 190.665 69.2988 190.925 69.5973 191.116C69.9034 191.307 70.2439 191.403 70.6188 191.403C71.0091 191.403 71.3534 191.304 71.6519 191.105C71.9503 190.898 72.1722 190.626 72.3176 190.29L73.2703 190.772C73.1479 191.093 72.9527 191.38 72.6849 191.633C72.4171 191.877 72.1072 192.073 71.7552 192.218C71.4032 192.363 71.0244 192.436 70.6188 192.436ZM77.3857 192.436C76.7888 192.436 76.257 192.295 75.7902 192.011C75.3235 191.728 74.9561 191.342 74.6883 190.852C74.4205 190.355 74.2866 189.8 74.2866 189.188C74.2866 188.568 74.4167 188.017 74.6768 187.535C74.9447 187.053 75.3043 186.674 75.7558 186.399C76.2149 186.115 76.7276 185.974 77.2939 185.974C77.753 185.974 78.1586 186.058 78.5106 186.226C78.8702 186.387 79.1725 186.609 79.4174 186.892C79.6699 187.168 79.8612 187.485 79.9913 187.845C80.129 188.197 80.1979 188.564 80.1979 188.947C80.1979 189.031 80.1902 189.127 80.1749 189.234C80.1673 189.333 80.1558 189.429 80.1405 189.521H75.0671V188.602H79.5207L79.0156 189.016C79.0845 188.618 79.0462 188.262 78.9008 187.948C78.7555 187.634 78.5412 187.386 78.2581 187.202C77.9749 187.018 77.6535 186.927 77.2939 186.927C76.9342 186.927 76.6052 187.018 76.3068 187.202C76.0083 187.386 75.7749 187.65 75.6066 187.994C75.4459 188.331 75.3808 188.732 75.4115 189.199C75.3808 189.651 75.4497 190.049 75.6181 190.393C75.7941 190.73 76.0389 190.994 76.3527 191.185C76.6741 191.369 77.0222 191.46 77.3972 191.46C77.8104 191.46 78.1586 191.365 78.4417 191.173C78.7248 190.982 78.9544 190.737 79.1304 190.439L80.0257 190.898C79.9033 191.181 79.712 191.441 79.4518 191.679C79.1993 191.908 78.897 192.092 78.545 192.229C78.2007 192.367 77.8142 192.436 77.3857 192.436ZM83.6788 192.436C83.0589 192.436 82.5195 192.283 82.0603 191.977C81.6012 191.671 81.276 191.258 81.0847 190.737L81.9341 190.324C82.1101 190.691 82.3511 190.982 82.6572 191.196C82.9633 191.411 83.3038 191.518 83.6788 191.518C84.0155 191.518 84.2948 191.437 84.5167 191.277C84.7386 191.116 84.8495 190.906 84.8495 190.645C84.8495 190.462 84.796 190.316 84.6888 190.209C84.5894 190.095 84.4669 190.007 84.3215 189.945C84.1762 189.876 84.0422 189.827 83.9198 189.796L82.9901 189.532C82.4315 189.371 82.0221 189.142 81.7619 188.843C81.5094 188.545 81.3831 188.197 81.3831 187.799C81.3831 187.432 81.4749 187.114 81.6586 186.846C81.8499 186.571 82.1062 186.356 82.4276 186.203C82.7567 186.05 83.124 185.974 83.5295 185.974C84.0728 185.974 84.5588 186.112 84.9873 186.387C85.4235 186.663 85.7334 187.049 85.917 187.546L85.0447 187.948C84.9069 187.627 84.7003 187.374 84.4248 187.191C84.1494 186.999 83.8395 186.904 83.4951 186.904C83.1814 186.904 82.9327 186.984 82.749 187.145C82.5654 187.298 82.4735 187.493 82.4735 187.73C82.4735 187.906 82.5195 188.051 82.6113 188.166C82.7031 188.273 82.8141 188.357 82.9442 188.419C83.0742 188.472 83.2005 188.518 83.3229 188.556L84.333 188.855C84.8381 189 85.2283 189.226 85.5038 189.532C85.7869 189.838 85.9285 190.205 85.9285 190.634C85.9285 190.978 85.8328 191.288 85.6415 191.564C85.4502 191.839 85.1862 192.053 84.8495 192.207C84.5128 192.36 84.1226 192.436 83.6788 192.436ZM92.1221 192.436C91.5788 192.436 91.0814 192.337 90.6299 192.138C90.1784 191.931 89.7958 191.652 89.4821 191.3C89.1684 190.948 88.9426 190.554 88.8049 190.117L89.7805 189.716C89.9871 190.267 90.2932 190.691 90.6988 190.99C91.112 191.281 91.5941 191.426 92.1451 191.426C92.4818 191.426 92.7764 191.372 93.0289 191.265C93.2814 191.158 93.4765 191.009 93.6143 190.818C93.7597 190.619 93.8324 190.389 93.8324 190.129C93.8324 189.769 93.7291 189.486 93.5224 189.28C93.3235 189.065 93.0289 188.905 92.6386 188.797L91.0661 188.315C90.4463 188.124 89.9718 187.822 89.6428 187.409C89.3138 186.995 89.1492 186.521 89.1492 185.985C89.1492 185.519 89.2602 185.109 89.4821 184.757C89.7117 184.397 90.0254 184.118 90.4233 183.919C90.8289 183.713 91.288 183.609 91.8007 183.609C92.3134 183.609 92.7764 183.701 93.1896 183.885C93.6104 184.068 93.9663 184.317 94.2571 184.631C94.5478 184.937 94.7621 185.289 94.8998 185.687L93.9357 186.089C93.752 185.607 93.4765 185.243 93.1092 184.998C92.7419 184.746 92.3096 184.619 91.8122 184.619C91.5061 184.619 91.2344 184.673 90.9972 184.78C90.7677 184.88 90.5878 185.029 90.4578 185.228C90.3353 185.419 90.2741 185.649 90.2741 185.916C90.2741 186.23 90.3736 186.509 90.5725 186.754C90.7715 186.999 91.0738 187.187 91.4793 187.317L92.9141 187.741C93.5875 187.948 94.0964 188.243 94.4407 188.625C94.7851 189.008 94.9572 189.482 94.9572 190.049C94.9572 190.515 94.8348 190.929 94.5899 191.288C94.3527 191.648 94.0198 191.931 93.5913 192.138C93.1704 192.337 92.6807 192.436 92.1221 192.436ZM99.1983 192.436C98.6014 192.436 98.0696 192.295 97.6028 192.011C97.136 191.728 96.7687 191.342 96.5009 190.852C96.233 190.355 96.0991 189.8 96.0991 189.188C96.0991 188.568 96.2292 188.017 96.4894 187.535C96.7572 187.053 97.1169 186.674 97.5684 186.399C98.0275 186.115 98.5402 185.974 99.1064 185.974C99.5656 185.974 99.9711 186.058 100.323 186.226C100.683 186.387 100.985 186.609 101.23 186.892C101.482 187.168 101.674 187.485 101.804 187.845C101.942 188.197 102.01 188.564 102.01 188.947C102.01 189.031 102.003 189.127 101.987 189.234C101.98 189.333 101.968 189.429 101.953 189.521H96.8797V188.602H101.333L100.828 189.016C100.897 188.618 100.859 188.262 100.713 187.948C100.568 187.634 100.354 187.386 100.071 187.202C99.7875 187.018 99.4661 186.927 99.1064 186.927C98.7468 186.927 98.4177 187.018 98.1193 187.202C97.8209 187.386 97.5875 187.65 97.4191 187.994C97.2584 188.331 97.1934 188.732 97.224 189.199C97.1934 189.651 97.2623 190.049 97.4306 190.393C97.6066 190.73 97.8515 190.994 98.1652 191.185C98.4866 191.369 98.8348 191.46 99.2097 191.46C99.623 191.46 99.9711 191.365 100.254 191.173C100.537 190.982 100.767 190.737 100.943 190.439L101.838 190.898C101.716 191.181 101.525 191.441 101.264 191.679C101.012 191.908 100.71 192.092 100.358 192.229C100.013 192.367 99.6268 192.436 99.1983 192.436ZM103.276 192.298V186.112H104.321V187.317L104.148 187.213C104.301 186.823 104.546 186.521 104.883 186.307C105.227 186.085 105.629 185.974 106.088 185.974C106.532 185.974 106.926 186.073 107.27 186.272C107.622 186.471 107.898 186.747 108.097 187.099C108.303 187.451 108.407 187.849 108.407 188.292V192.298H107.328V188.637C107.328 188.292 107.267 188.002 107.144 187.764C107.022 187.527 106.846 187.344 106.616 187.213C106.394 187.076 106.138 187.007 105.847 187.007C105.556 187.007 105.296 187.076 105.067 187.213C104.845 187.344 104.669 187.531 104.539 187.776C104.409 188.013 104.343 188.3 104.343 188.637V192.298H103.276ZM112.322 192.367C111.717 192.367 111.25 192.195 110.921 191.851C110.6 191.506 110.439 191.02 110.439 190.393V187.133H109.314V186.112H109.544C109.82 186.112 110.038 186.027 110.198 185.859C110.359 185.691 110.439 185.469 110.439 185.193V184.688H111.507V186.112H112.896V187.133H111.507V190.359C111.507 190.565 111.537 190.745 111.599 190.898C111.668 191.051 111.778 191.173 111.932 191.265C112.085 191.349 112.287 191.392 112.54 191.392C112.593 191.392 112.658 191.388 112.735 191.38C112.819 191.372 112.896 191.365 112.965 191.357V192.298C112.865 192.321 112.754 192.337 112.632 192.344C112.509 192.36 112.406 192.367 112.322 192.367Z" fill="#4D4D4D"/>
<path d="M190.025 191.938V184.608H191.304L194.049 188.337H193.439L196.125 184.608H197.404V191.938H196.056V186.133L196.578 186.261L193.793 189.97H193.636L190.921 186.261L191.363 186.133V191.938H190.025ZM201.332 192.056C200.807 192.056 200.329 191.935 199.896 191.692C199.469 191.449 199.128 191.118 198.872 190.698C198.623 190.279 198.499 189.8 198.499 189.262C198.499 188.724 198.623 188.245 198.872 187.825C199.128 187.406 199.469 187.074 199.896 186.832C200.322 186.589 200.801 186.468 201.332 186.468C201.857 186.468 202.332 186.589 202.759 186.832C203.185 187.074 203.523 187.406 203.772 187.825C204.028 188.239 204.156 188.718 204.156 189.262C204.156 189.8 204.028 190.279 203.772 190.698C203.516 191.118 203.175 191.449 202.749 191.692C202.323 191.935 201.85 192.056 201.332 192.056ZM201.332 190.875C201.621 190.875 201.873 190.807 202.09 190.669C202.313 190.531 202.487 190.341 202.611 190.098C202.742 189.849 202.808 189.57 202.808 189.262C202.808 188.947 202.742 188.672 202.611 188.435C202.487 188.193 202.313 188.003 202.09 187.865C201.873 187.721 201.621 187.648 201.332 187.648C201.037 187.648 200.778 187.721 200.555 187.865C200.332 188.003 200.155 188.193 200.024 188.435C199.899 188.672 199.837 188.947 199.837 189.262C199.837 189.57 199.899 189.849 200.024 190.098C200.155 190.341 200.332 190.531 200.555 190.669C200.778 190.807 201.037 190.875 201.332 190.875ZM205.15 191.938V186.586H206.36V187.639L206.261 187.452C206.386 187.13 206.589 186.888 206.871 186.724C207.16 186.553 207.494 186.468 207.875 186.468C208.268 186.468 208.616 186.553 208.918 186.724C209.226 186.894 209.465 187.134 209.636 187.442C209.806 187.744 209.892 188.094 209.892 188.495V191.938H208.603V188.8C208.603 188.563 208.557 188.36 208.465 188.19C208.373 188.019 208.245 187.888 208.081 187.796C207.924 187.698 207.737 187.648 207.521 187.648C207.311 187.648 207.124 187.698 206.96 187.796C206.796 187.888 206.668 188.019 206.576 188.19C206.484 188.36 206.438 188.563 206.438 188.8V191.938H205.15ZM213.438 191.997C212.834 191.997 212.366 191.833 212.031 191.505C211.703 191.171 211.539 190.702 211.539 190.098V187.737H210.614V186.586H210.713C210.975 186.586 211.178 186.517 211.323 186.379C211.467 186.241 211.539 186.041 211.539 185.779V185.366H212.828V186.586H214.058V187.737H212.828V190.029C212.828 190.206 212.857 190.357 212.916 190.482C212.982 190.607 213.08 190.702 213.212 190.767C213.349 190.833 213.523 190.866 213.733 190.866C213.779 190.866 213.831 190.862 213.89 190.856C213.956 190.849 214.018 190.843 214.077 190.836V191.938C213.986 191.951 213.881 191.964 213.763 191.977C213.645 191.99 213.536 191.997 213.438 191.997ZM215.079 191.938V184.49H216.367V187.639L216.19 187.452C216.315 187.13 216.518 186.888 216.8 186.724C217.089 186.553 217.423 186.468 217.804 186.468C218.197 186.468 218.545 186.553 218.847 186.724C219.155 186.894 219.394 187.134 219.565 187.442C219.735 187.744 219.821 188.094 219.821 188.495V191.938H218.532V188.8C218.532 188.563 218.486 188.36 218.394 188.19C218.302 188.019 218.174 187.888 218.01 187.796C217.853 187.698 217.666 187.648 217.45 187.648C217.24 187.648 217.053 187.698 216.889 187.796C216.725 187.888 216.597 188.019 216.505 188.19C216.413 188.36 216.367 188.563 216.367 188.8V191.938H215.079Z" fill="#A3AED0"/>
<path d="M100.878 409.205L103.407 401.875H105.138L107.667 409.205H106.211L105.689 407.631H102.856L102.325 409.205H100.878ZM103.239 406.45H105.306L104.086 402.8H104.459L103.239 406.45ZM108.391 411.173V403.853H109.601V404.915L109.483 404.65C109.666 404.361 109.916 404.138 110.231 403.981C110.545 403.817 110.909 403.735 111.323 403.735C111.828 403.735 112.284 403.859 112.69 404.109C113.097 404.358 113.418 404.692 113.654 405.112C113.897 405.532 114.018 406.004 114.018 406.529C114.018 407.047 113.9 407.519 113.664 407.946C113.428 408.372 113.107 408.71 112.7 408.959C112.293 409.202 111.831 409.323 111.313 409.323C110.926 409.323 110.568 409.248 110.24 409.097C109.919 408.939 109.663 408.716 109.473 408.428L109.68 408.172V411.173H108.391ZM111.165 408.143C111.46 408.143 111.723 408.074 111.952 407.936C112.182 407.798 112.359 407.608 112.484 407.365C112.615 407.123 112.68 406.844 112.68 406.529C112.68 406.214 112.615 405.939 112.484 405.703C112.359 405.46 112.182 405.27 111.952 405.132C111.723 404.988 111.46 404.915 111.165 404.915C110.883 404.915 110.627 404.984 110.398 405.122C110.175 405.26 109.998 405.453 109.867 405.703C109.742 405.945 109.68 406.221 109.68 406.529C109.68 406.844 109.742 407.123 109.867 407.365C109.998 407.608 110.175 407.798 110.398 407.936C110.627 408.074 110.883 408.143 111.165 408.143ZM115.017 409.205V403.853H116.228V405.043L116.129 404.866C116.254 404.466 116.447 404.187 116.71 404.03C116.979 403.873 117.3 403.794 117.674 403.794H117.989V404.935H117.526C117.159 404.935 116.864 405.05 116.641 405.28C116.418 405.503 116.306 405.817 116.306 406.224V409.205H115.017ZM118.714 409.205V403.853H120.002V409.205H118.714ZM118.714 403.253V401.875H120.002V403.253H118.714ZM121.209 409.205V401.757H122.498V409.205H121.209Z" fill="#0F2552"/>
<path d="M135.913 409.205V401.875H137.192L139.937 405.604H139.327L142.013 401.875H143.292V409.205H141.944V403.4L142.466 403.528L139.682 407.237H139.524L136.809 403.528L137.251 403.4V409.205H135.913ZM146.227 409.323C145.853 409.323 145.528 409.261 145.253 409.136C144.977 409.012 144.764 408.834 144.613 408.605C144.462 408.369 144.387 408.097 144.387 407.788C144.387 407.493 144.452 407.231 144.584 407.001C144.715 406.765 144.918 406.568 145.194 406.411C145.469 406.254 145.817 406.142 146.236 406.076L147.988 405.791V406.775L146.482 407.031C146.227 407.077 146.036 407.159 145.912 407.277C145.787 407.395 145.725 407.549 145.725 407.739C145.725 407.923 145.794 408.07 145.931 408.182C146.076 408.287 146.253 408.339 146.463 408.339C146.732 408.339 146.968 408.284 147.171 408.172C147.381 408.054 147.542 407.893 147.653 407.69C147.771 407.487 147.83 407.264 147.83 407.021V405.644C147.83 405.414 147.738 405.224 147.555 405.073C147.378 404.915 147.142 404.837 146.846 404.837C146.571 404.837 146.325 404.912 146.109 405.063C145.899 405.207 145.745 405.401 145.646 405.644L144.593 405.132C144.698 404.85 144.862 404.607 145.085 404.404C145.315 404.194 145.584 404.03 145.892 403.912C146.2 403.794 146.535 403.735 146.896 403.735C147.335 403.735 147.722 403.817 148.057 403.981C148.391 404.138 148.65 404.361 148.834 404.65C149.024 404.932 149.119 405.263 149.119 405.644V409.205H147.899V408.29L148.175 408.27C148.037 408.5 147.873 408.693 147.683 408.851C147.493 409.002 147.276 409.12 147.033 409.205C146.791 409.284 146.522 409.323 146.227 409.323ZM150.976 411.37C150.832 411.37 150.691 411.356 150.553 411.33C150.415 411.311 150.291 411.271 150.179 411.212V410.14C150.264 410.159 150.366 410.179 150.484 410.199C150.609 410.218 150.724 410.228 150.829 410.228C151.124 410.228 151.337 410.159 151.468 410.022C151.606 409.89 151.727 409.713 151.832 409.49L152.186 408.664L152.167 409.746L149.835 403.853H151.222L152.855 408.202H152.363L153.987 403.853H155.384L153.052 409.746C152.914 410.087 152.747 410.379 152.55 410.622C152.353 410.865 152.124 411.048 151.862 411.173C151.606 411.304 151.311 411.37 150.976 411.37Z" fill="#0F2552"/>
<path d="M168.384 409.205V407.975H168.807C169.122 407.975 169.371 407.887 169.554 407.71C169.745 407.526 169.84 407.283 169.84 406.982V401.875H171.188V406.932C171.188 407.385 171.089 407.782 170.893 408.123C170.702 408.464 170.427 408.73 170.066 408.92C169.712 409.11 169.292 409.205 168.807 409.205H168.384ZM174.388 409.323C173.974 409.323 173.614 409.231 173.305 409.048C173.004 408.864 172.771 408.608 172.607 408.28C172.449 407.952 172.371 407.569 172.371 407.129V403.853H173.66V407.021C173.66 407.244 173.702 407.441 173.787 407.611C173.879 407.775 174.007 407.906 174.171 408.005C174.342 408.097 174.532 408.143 174.742 408.143C174.952 408.143 175.139 408.097 175.303 408.005C175.467 407.906 175.594 407.772 175.686 407.601C175.778 407.431 175.824 407.228 175.824 406.991V403.853H177.113V409.205H175.893V408.152L176.001 408.339C175.876 408.667 175.67 408.913 175.381 409.077C175.099 409.241 174.768 409.323 174.388 409.323ZM178.327 409.205V403.853H179.537V404.906L179.439 404.719C179.564 404.397 179.767 404.155 180.049 403.991C180.338 403.82 180.672 403.735 181.053 403.735C181.446 403.735 181.794 403.82 182.095 403.991C182.404 404.161 182.643 404.401 182.814 404.709C182.984 405.011 183.069 405.362 183.069 405.762V409.205H181.781V406.067C181.781 405.83 181.735 405.627 181.643 405.457C181.551 405.286 181.423 405.155 181.259 405.063C181.102 404.965 180.915 404.915 180.698 404.915C180.489 404.915 180.302 404.965 180.138 405.063C179.974 405.155 179.846 405.286 179.754 405.457C179.662 405.627 179.616 405.83 179.616 406.067V409.205H178.327ZM186.714 409.323C186.163 409.323 185.681 409.199 185.268 408.949C184.855 408.7 184.533 408.362 184.304 407.936C184.074 407.51 183.959 407.037 183.959 406.519C183.959 405.981 184.074 405.506 184.304 405.093C184.54 404.673 184.858 404.342 185.258 404.099C185.665 403.856 186.117 403.735 186.616 403.735C187.035 403.735 187.403 403.804 187.718 403.941C188.039 404.079 188.311 404.269 188.534 404.512C188.757 404.755 188.928 405.034 189.046 405.348C189.164 405.657 189.223 405.991 189.223 406.352C189.223 406.444 189.216 406.539 189.203 406.637C189.197 406.736 189.18 406.821 189.154 406.893H185.022V405.909H188.426L187.816 406.372C187.875 406.07 187.859 405.801 187.767 405.565C187.682 405.329 187.537 405.142 187.334 405.004C187.137 404.866 186.898 404.797 186.616 404.797C186.347 404.797 186.107 404.866 185.897 405.004C185.688 405.135 185.527 405.332 185.415 405.594C185.31 405.85 185.271 406.162 185.297 406.529C185.271 406.857 185.314 407.149 185.425 407.405C185.543 407.654 185.714 407.847 185.937 407.985C186.166 408.123 186.429 408.192 186.724 408.192C187.019 408.192 187.268 408.129 187.472 408.005C187.682 407.88 187.846 407.713 187.964 407.503L189.006 408.015C188.902 408.27 188.738 408.497 188.515 408.693C188.292 408.89 188.026 409.044 187.718 409.156C187.416 409.267 187.081 409.323 186.714 409.323Z" fill="#0F2552"/>
<path d="M202.818 409.205V407.975H203.241C203.556 407.975 203.805 407.887 203.989 407.71C204.179 407.526 204.274 407.283 204.274 406.982V401.875H205.622V406.932C205.622 407.385 205.524 407.782 205.327 408.123C205.137 408.464 204.861 408.73 204.501 408.92C204.146 409.11 203.727 409.205 203.241 409.205H202.818ZM208.806 409.323C208.393 409.323 208.032 409.231 207.724 409.048C207.422 408.864 207.189 408.608 207.025 408.28C206.868 407.952 206.789 407.569 206.789 407.129V403.853H208.078V407.021C208.078 407.244 208.12 407.441 208.206 407.611C208.297 407.775 208.425 407.906 208.589 408.005C208.76 408.097 208.95 408.143 209.16 408.143C209.37 408.143 209.557 408.097 209.721 408.005C209.885 407.906 210.013 407.772 210.104 407.601C210.196 407.431 210.242 407.228 210.242 406.991V403.853H211.531V409.205H210.311V408.152L210.419 408.339C210.295 408.667 210.088 408.913 209.799 409.077C209.517 409.241 209.186 409.323 208.806 409.323ZM212.729 409.205V401.757H214.018V409.205H212.729ZM215.857 411.37C215.713 411.37 215.572 411.356 215.434 411.33C215.296 411.311 215.172 411.271 215.06 411.212V410.14C215.146 410.159 215.247 410.179 215.365 410.199C215.49 410.218 215.605 410.228 215.71 410.228C216.005 410.228 216.218 410.159 216.349 410.022C216.487 409.89 216.608 409.713 216.713 409.49L217.067 408.664L217.048 409.746L214.716 403.853H216.103L217.736 408.202H217.245L218.868 403.853H220.265L217.933 409.746C217.795 410.087 217.628 410.379 217.431 410.622C217.235 410.865 217.005 411.048 216.743 411.173C216.487 411.304 216.192 411.37 215.857 411.37Z" fill="#0F2552"/>
<path d="M225.535 185.887L228.671 189.023L231.807 185.887L232.77 186.857L228.671 190.956L224.571 186.857L225.535 185.887Z" fill="#A3AED0"/>
<g filter="url(#filter4_d_1003_189)">
<g clip-path="url(#clip0_1003_189)">
<rect x="279.503" y="168" width="295.155" height="264" rx="16.166" fill="white"/>
<path d="M505.584 199.654V193.228H507.062L508.943 197.258L510.788 193.228H512.266V199.654H511.027V195.358L509.421 198.809H508.438L506.823 195.376V199.654H505.584ZM515.58 199.764C515.121 199.764 514.714 199.657 514.359 199.443C514.01 199.228 513.735 198.932 513.533 198.552C513.337 198.173 513.239 197.735 513.239 197.24C513.239 196.744 513.337 196.306 513.533 195.927C513.735 195.547 514.013 195.254 514.368 195.046C514.723 194.831 515.13 194.724 515.589 194.724C516.048 194.724 516.452 194.831 516.801 195.046C517.156 195.254 517.431 195.547 517.627 195.927C517.823 196.306 517.921 196.744 517.921 197.24C517.921 197.735 517.82 198.173 517.618 198.552C517.422 198.932 517.15 199.228 516.801 199.443C516.452 199.657 516.045 199.764 515.58 199.764ZM515.58 198.69C515.794 198.69 515.981 198.638 516.14 198.534C516.305 198.424 516.434 198.262 516.526 198.047C516.617 197.827 516.663 197.558 516.663 197.24C516.663 196.921 516.617 196.655 516.526 196.441C516.44 196.221 516.317 196.058 516.158 195.954C515.999 195.844 515.81 195.789 515.589 195.789C515.375 195.789 515.185 195.844 515.02 195.954C514.861 196.058 514.736 196.221 514.644 196.441C514.552 196.655 514.506 196.921 514.506 197.24C514.506 197.558 514.549 197.827 514.635 198.047C514.726 198.262 514.852 198.424 515.011 198.534C515.176 198.638 515.366 198.69 515.58 198.69ZM518.859 199.654V194.834H519.952L520.034 195.55C520.169 195.293 520.365 195.092 520.622 194.945C520.879 194.798 521.188 194.724 521.549 194.724C521.922 194.724 522.24 194.801 522.504 194.954C522.767 195.101 522.969 195.318 523.11 195.606C523.25 195.887 523.321 196.233 523.321 196.643V199.654H522.081V196.762C522.081 196.444 521.999 196.199 521.834 196.028C521.674 195.85 521.442 195.762 521.136 195.762C520.946 195.762 520.772 195.804 520.613 195.89C520.454 195.976 520.328 196.098 520.236 196.257C520.144 196.416 520.099 196.612 520.099 196.845V199.654H518.859ZM526.561 199.654C526.237 199.654 525.952 199.605 525.707 199.507C525.469 199.403 525.282 199.235 525.147 199.002C525.013 198.763 524.945 198.439 524.945 198.029V195.863H524.11V194.834H524.945L525.083 193.485H526.185V194.834H527.424V195.863H526.185V198.047C526.185 198.255 526.231 198.399 526.322 198.479C526.414 198.558 526.57 198.598 526.791 198.598H527.451V199.654H526.561ZM528.371 199.654V193.044H529.61V195.514C529.769 195.275 529.974 195.085 530.225 194.945C530.482 194.798 530.77 194.724 531.088 194.724C531.492 194.724 531.826 194.801 532.089 194.954C532.352 195.107 532.548 195.33 532.676 195.624C532.805 195.918 532.869 196.279 532.869 196.707V199.654H531.639V196.826C531.639 196.484 531.553 196.221 531.382 196.037C531.217 195.853 530.978 195.762 530.666 195.762C530.47 195.762 530.293 195.808 530.134 195.899C529.974 195.991 529.846 196.123 529.748 196.294C529.656 196.465 529.61 196.673 529.61 196.918V199.654H528.371ZM533.97 199.654V193.044H535.209V199.654H533.97ZM536.92 201.673L537.985 199.14H537.71L535.874 194.834H537.223L538.527 197.983L539.702 194.834H541.024L538.224 201.673H536.92Z" fill="#A3AED0"/>
<g clip-path="url(#clip1_1003_189)">
<path d="M551.153 195.474L548.125 198.502L545.097 195.474L551.153 195.474Z" fill="#A3AED0"/>
</g>
<path d="M301.791 200.595V192.027H303.444V200.595H301.791ZM304.88 200.595V194.34H306.337L306.459 195.319C306.639 194.977 306.9 194.703 307.242 194.499C307.593 194.295 308.009 194.193 308.491 194.193C308.997 194.193 309.425 194.295 309.776 194.499C310.127 194.703 310.396 195.005 310.584 195.405C310.772 195.805 310.865 196.295 310.865 196.874V200.595H309.213V197.021C309.213 196.564 309.107 196.209 308.895 195.956C308.683 195.703 308.364 195.577 307.94 195.577C307.679 195.577 307.438 195.638 307.218 195.76C307.006 195.882 306.839 196.062 306.716 196.299C306.594 196.527 306.533 196.809 306.533 197.143V200.595H304.88ZM313.854 200.595L311.566 194.34H313.304L314.87 199.04L316.437 194.34H318.15L315.862 200.595H313.854ZM321.563 200.742C320.968 200.742 320.433 200.603 319.96 200.325C319.495 200.048 319.128 199.665 318.858 199.175C318.589 198.677 318.454 198.106 318.454 197.461C318.454 196.817 318.589 196.25 318.858 195.76C319.128 195.262 319.499 194.879 319.972 194.61C320.445 194.332 320.98 194.193 321.575 194.193C322.179 194.193 322.714 194.332 323.179 194.61C323.652 194.879 324.023 195.262 324.293 195.76C324.562 196.25 324.697 196.817 324.697 197.461C324.697 198.106 324.562 198.677 324.293 199.175C324.023 199.665 323.652 200.048 323.179 200.325C322.706 200.603 322.167 200.742 321.563 200.742ZM321.563 199.31C321.841 199.31 322.085 199.244 322.298 199.114C322.518 198.975 322.689 198.767 322.812 198.49C322.942 198.212 323.007 197.869 323.007 197.461C323.007 197.053 322.946 196.715 322.824 196.446C322.701 196.168 322.53 195.96 322.31 195.821C322.098 195.683 321.853 195.613 321.575 195.613C321.306 195.613 321.061 195.683 320.841 195.821C320.629 195.96 320.458 196.168 320.327 196.446C320.196 196.715 320.131 197.053 320.131 197.461C320.131 197.869 320.192 198.212 320.315 198.49C320.445 198.767 320.617 198.975 320.829 199.114C321.049 199.244 321.294 199.31 321.563 199.31ZM325.936 200.595V194.34H327.589V200.595H325.936ZM326.769 193.52C326.467 193.52 326.222 193.431 326.034 193.251C325.847 193.071 325.753 192.851 325.753 192.59C325.753 192.313 325.847 192.088 326.034 191.917C326.222 191.746 326.467 191.66 326.769 191.66C327.071 191.66 327.315 191.746 327.503 191.917C327.699 192.088 327.797 192.313 327.797 192.59C327.797 192.851 327.699 193.071 327.503 193.251C327.315 193.431 327.071 193.52 326.769 193.52ZM332.012 200.742C331.392 200.742 330.841 200.603 330.359 200.325C329.886 200.048 329.515 199.665 329.246 199.175C328.976 198.685 328.842 198.126 328.842 197.498C328.842 196.845 328.976 196.274 329.246 195.785C329.515 195.287 329.886 194.899 330.359 194.622C330.841 194.336 331.396 194.193 332.024 194.193C332.816 194.193 333.476 194.402 334.007 194.818C334.545 195.234 334.892 195.809 335.047 196.543H333.297C333.223 196.25 333.068 196.021 332.832 195.858C332.603 195.687 332.326 195.601 332 195.601C331.706 195.601 331.449 195.674 331.228 195.821C331.008 195.968 330.833 196.184 330.702 196.47C330.58 196.747 330.519 197.078 330.519 197.461C330.519 197.755 330.555 198.02 330.629 198.257C330.702 198.485 330.804 198.681 330.935 198.844C331.065 199 331.22 199.122 331.4 199.212C331.579 199.293 331.779 199.334 332 199.334C332.22 199.334 332.416 199.297 332.587 199.224C332.767 199.15 332.918 199.044 333.04 198.906C333.162 198.759 333.248 198.587 333.297 198.392H335.047C334.9 199.102 334.554 199.673 334.007 200.105C333.468 200.529 332.803 200.742 332.012 200.742ZM339.189 200.742C338.569 200.742 338.022 200.607 337.549 200.338C337.084 200.068 336.716 199.693 336.447 199.212C336.186 198.722 336.055 198.159 336.055 197.523C336.055 196.87 336.186 196.295 336.447 195.797C336.708 195.291 337.071 194.899 337.536 194.622C338.01 194.336 338.56 194.193 339.189 194.193C339.809 194.193 340.347 194.328 340.804 194.597C341.261 194.867 341.612 195.234 341.857 195.699C342.11 196.164 342.236 196.694 342.236 197.29C342.236 197.372 342.232 197.461 342.224 197.559C342.224 197.657 342.216 197.759 342.2 197.865H337.23V196.862H340.56C340.543 196.446 340.409 196.119 340.156 195.882C339.903 195.646 339.584 195.528 339.201 195.528C338.915 195.528 338.658 195.593 338.43 195.723C338.201 195.854 338.018 196.054 337.879 196.323C337.749 196.592 337.683 196.931 337.683 197.339V197.694C337.683 198.037 337.744 198.339 337.867 198.6C337.989 198.853 338.161 199.048 338.381 199.187C338.609 199.326 338.875 199.395 339.177 199.395C339.495 199.395 339.748 199.334 339.935 199.212C340.123 199.089 340.27 198.926 340.376 198.722H342.053C341.939 199.097 341.747 199.44 341.478 199.75C341.216 200.052 340.89 200.293 340.498 200.472C340.115 200.652 339.678 200.742 339.189 200.742Z" fill="#2B3674"/>
<circle cx="427.526" cy="277.884" r="54.6954" transform="rotate(-90 427.526 277.884)" fill="#D4D8FF"/>
<path d="M427.526 223.188C439.952 223.188 452.007 227.419 461.708 235.185C471.408 242.95 478.175 253.787 480.895 265.912C483.615 278.036 482.125 290.725 476.671 301.89C471.217 313.055 462.124 322.03 450.889 327.338C439.654 332.646 426.947 333.97 414.859 331.092C402.771 328.214 392.023 321.306 384.385 311.505C376.746 301.704 372.673 289.595 372.835 277.17C372.997 264.745 377.385 252.746 385.277 243.148L427.526 277.884L427.526 223.188Z" fill="#FFAC90"/>
<path d="M427.526 223.188C439.056 223.188 450.291 226.832 459.626 233.598C468.961 240.365 475.919 249.909 479.507 260.866C483.094 271.824 483.127 283.634 479.601 294.612C476.074 305.589 469.169 315.171 459.872 321.99C450.574 328.808 439.36 332.514 427.831 332.578C416.301 332.642 405.046 329.062 395.673 322.347C386.3 315.632 379.289 306.128 375.641 295.19C371.993 284.253 371.894 272.443 375.359 261.446L427.526 277.884L427.526 223.188Z" fill="#1A237E"/>
<g filter="url(#filter5_d_1003_189)">
<line x1="427.525" y1="393.51" x2="427.525" y2="357.556" stroke="#F4F7FE" stroke-width="0.764972"/>
<path d="M344.865 370.631V364.205H347.031C347.545 364.205 347.97 364.294 348.307 364.471C348.644 364.643 348.891 364.878 349.051 365.178C349.216 365.472 349.298 365.805 349.298 366.179C349.298 366.54 349.216 366.87 349.051 367.17C348.891 367.47 348.647 367.709 348.316 367.886C347.986 368.057 347.557 368.143 347.031 368.143H345.783V370.631H344.865ZM345.783 367.381H346.994C347.496 367.381 347.848 367.271 348.05 367.051C348.258 366.83 348.362 366.54 348.362 366.179C348.362 365.799 348.258 365.502 348.05 365.288C347.848 365.074 347.496 364.967 346.994 364.967H345.783V367.381ZM351.376 370.741C351.003 370.741 350.694 370.674 350.449 370.539C350.204 370.404 350.021 370.224 349.898 369.997C349.776 369.765 349.715 369.517 349.715 369.254C349.715 368.948 349.791 368.685 349.944 368.464C350.103 368.238 350.33 368.067 350.623 367.95C350.917 367.834 351.266 367.776 351.67 367.776H352.845C352.845 367.482 352.811 367.237 352.744 367.042C352.683 366.846 352.576 366.702 352.423 366.61C352.27 366.512 352.062 366.463 351.798 366.463C351.541 366.463 351.321 366.524 351.137 366.647C350.96 366.769 350.85 366.953 350.807 367.198H349.889C349.926 366.879 350.03 366.61 350.201 366.39C350.379 366.163 350.608 365.992 350.89 365.876C351.171 365.76 351.474 365.701 351.798 365.701C352.239 365.701 352.603 365.778 352.891 365.931C353.185 366.084 353.402 366.301 353.543 366.583C353.689 366.858 353.763 367.188 353.763 367.574V370.631H352.964L352.891 369.841C352.83 369.97 352.75 370.089 352.652 370.199C352.56 370.303 352.45 370.398 352.322 370.484C352.199 370.564 352.058 370.625 351.899 370.668C351.74 370.717 351.566 370.741 351.376 370.741ZM351.541 369.997C351.725 369.997 351.893 369.958 352.046 369.878C352.205 369.792 352.343 369.679 352.459 369.538C352.576 369.398 352.664 369.239 352.726 369.061C352.793 368.878 352.83 368.688 352.836 368.492V368.419H351.762C351.505 368.419 351.297 368.452 351.137 368.52C350.978 368.587 350.862 368.679 350.789 368.795C350.715 368.911 350.678 369.046 350.678 369.199C350.678 369.364 350.712 369.505 350.779 369.621C350.847 369.737 350.945 369.829 351.073 369.896C351.208 369.964 351.364 369.997 351.541 369.997ZM354.923 370.631V365.812H355.841V370.631H354.923ZM355.382 364.995C355.205 364.995 355.058 364.939 354.942 364.829C354.832 364.719 354.777 364.581 354.777 364.416C354.777 364.245 354.832 364.107 354.942 364.003C355.058 363.899 355.205 363.847 355.382 363.847C355.554 363.847 355.698 363.899 355.814 364.003C355.93 364.107 355.988 364.245 355.988 364.416C355.988 364.581 355.93 364.719 355.814 364.829C355.698 364.939 355.554 364.995 355.382 364.995ZM358.98 370.741C358.558 370.741 358.182 370.634 357.851 370.42C357.527 370.199 357.273 369.9 357.089 369.52C356.912 369.141 356.823 368.709 356.823 368.226C356.823 367.736 356.915 367.302 357.098 366.922C357.282 366.543 357.539 366.246 357.869 366.032C358.2 365.812 358.585 365.701 359.026 365.701C359.381 365.701 359.69 365.772 359.953 365.913C360.216 366.053 360.424 366.252 360.577 366.509V364.022H361.495V370.631H360.669L360.587 369.896C360.495 370.049 360.375 370.19 360.229 370.319C360.088 370.441 359.913 370.542 359.705 370.622C359.503 370.701 359.262 370.741 358.98 370.741ZM359.164 369.942C359.445 369.942 359.693 369.872 359.907 369.731C360.122 369.59 360.284 369.392 360.394 369.135C360.51 368.878 360.568 368.572 360.568 368.217C360.568 367.868 360.51 367.565 360.394 367.308C360.284 367.045 360.122 366.846 359.907 366.711C359.693 366.57 359.445 366.5 359.164 366.5C358.894 366.5 358.653 366.57 358.439 366.711C358.224 366.846 358.056 367.045 357.934 367.308C357.817 367.565 357.759 367.868 357.759 368.217C357.759 368.572 357.817 368.878 357.934 369.135C358.056 369.392 358.224 369.59 358.439 369.731C358.653 369.872 358.894 369.942 359.164 369.942Z" fill="#A3AED0"/>
<path d="M348.877 386.315C348.225 386.315 347.633 386.196 347.1 385.957C346.568 385.718 346.141 385.383 345.82 384.952C345.508 384.521 345.352 384.02 345.352 383.451C345.352 383.056 345.416 382.698 345.544 382.377C345.682 382.056 345.87 381.771 346.109 381.523C346.357 381.276 346.641 381.087 346.963 380.959C346.55 380.766 346.214 380.491 345.957 380.133C345.71 379.775 345.586 379.371 345.586 378.921C345.586 378.471 345.71 378.049 345.957 377.654C346.205 377.259 346.572 376.943 347.059 376.704C347.555 376.465 348.161 376.346 348.877 376.346C349.602 376.346 350.208 376.465 350.694 376.704C351.181 376.943 351.548 377.259 351.796 377.654C352.044 378.049 352.167 378.471 352.167 378.921C352.167 379.362 352.039 379.765 351.782 380.133C351.534 380.491 351.204 380.766 350.791 380.959C351.121 381.096 351.406 381.289 351.644 381.537C351.892 381.776 352.08 382.056 352.209 382.377C352.346 382.698 352.415 383.056 352.415 383.451C352.415 384.02 352.255 384.521 351.933 384.952C351.621 385.383 351.199 385.718 350.667 385.957C350.134 386.196 349.537 386.315 348.877 386.315ZM348.877 384.759C349.446 384.759 349.873 384.621 350.157 384.346C350.442 384.071 350.584 383.722 350.584 383.3C350.584 382.831 350.433 382.464 350.13 382.198C349.827 381.923 349.409 381.785 348.877 381.785C348.344 381.785 347.922 381.923 347.61 382.198C347.307 382.464 347.155 382.831 347.155 383.3C347.155 383.722 347.302 384.071 347.596 384.346C347.89 384.621 348.317 384.759 348.877 384.759ZM348.877 380.422C349.336 380.422 349.694 380.302 349.951 380.064C350.208 379.825 350.336 379.518 350.336 379.141C350.336 378.737 350.208 378.425 349.951 378.205C349.703 377.975 349.345 377.861 348.877 377.861C348.418 377.861 348.06 377.975 347.803 378.205C347.555 378.425 347.431 378.742 347.431 379.155C347.431 379.522 347.555 379.825 347.803 380.064C348.06 380.302 348.418 380.422 348.877 380.422ZM357.81 386.315C356.929 386.315 356.172 386.104 355.538 385.682C354.914 385.259 354.432 384.677 354.093 383.933C353.762 383.18 353.597 382.313 353.597 381.331C353.597 380.348 353.762 379.485 354.093 378.742C354.432 377.989 354.914 377.402 355.538 376.979C356.172 376.557 356.929 376.346 357.81 376.346C358.682 376.346 359.431 376.557 360.055 376.979C360.679 377.402 361.161 377.989 361.501 378.742C361.84 379.485 362.01 380.348 362.01 381.331C362.01 382.313 361.84 383.18 361.501 383.933C361.161 384.677 360.679 385.259 360.055 385.682C359.431 386.104 358.682 386.315 357.81 386.315ZM357.81 384.649C358.269 384.649 358.669 384.516 359.008 384.25C359.357 383.974 359.628 383.589 359.821 383.093C360.023 382.597 360.124 382.01 360.124 381.331C360.124 380.642 360.023 380.055 359.821 379.568C359.628 379.072 359.357 378.691 359.008 378.425C358.669 378.159 358.269 378.026 357.81 378.026C357.351 378.026 356.947 378.159 356.599 378.425C356.25 378.691 355.974 379.072 355.772 379.568C355.58 380.055 355.483 380.642 355.483 381.331C355.483 382.01 355.58 382.597 355.772 383.093C355.974 383.589 356.25 383.974 356.599 384.25C356.947 384.516 357.351 384.649 357.81 384.649ZM364.958 386.15L370.37 376.511H372.174L366.762 386.15H364.958ZM371.857 386.315C371.407 386.315 370.999 386.219 370.631 386.026C370.273 385.824 369.984 385.539 369.764 385.172C369.553 384.796 369.447 384.355 369.447 383.85C369.447 383.336 369.553 382.896 369.764 382.529C369.984 382.161 370.273 381.881 370.631 381.689C370.999 381.487 371.403 381.386 371.843 381.386C372.302 381.386 372.711 381.487 373.069 381.689C373.427 381.881 373.711 382.161 373.922 382.529C374.134 382.896 374.239 383.336 374.239 383.85C374.239 384.355 374.129 384.796 373.909 385.172C373.697 385.539 373.413 385.824 373.055 386.026C372.697 386.219 372.298 386.315 371.857 386.315ZM371.843 385.035C372.018 385.035 372.174 384.989 372.311 384.897C372.458 384.805 372.573 384.672 372.656 384.498C372.738 384.323 372.78 384.107 372.78 383.85C372.78 383.584 372.738 383.364 372.656 383.189C372.573 383.006 372.463 382.868 372.325 382.776C372.187 382.685 372.027 382.639 371.843 382.639C371.669 382.639 371.508 382.685 371.361 382.776C371.224 382.868 371.113 383.006 371.031 383.189C370.948 383.364 370.907 383.584 370.907 383.85C370.907 384.107 370.948 384.323 371.031 384.498C371.113 384.672 371.224 384.805 371.361 384.897C371.508 384.989 371.669 385.035 371.843 385.035ZM365.358 381.289C364.908 381.289 364.499 381.188 364.132 380.986C363.774 380.784 363.485 380.5 363.265 380.133C363.054 379.765 362.948 379.329 362.948 378.825C362.948 378.301 363.054 377.861 363.265 377.503C363.485 377.135 363.774 376.851 364.132 376.649C364.499 376.447 364.908 376.346 365.358 376.346C365.808 376.346 366.211 376.447 366.569 376.649C366.927 376.851 367.212 377.135 367.423 377.503C367.634 377.861 367.74 378.301 367.74 378.825C367.74 379.329 367.634 379.765 367.423 380.133C367.212 380.5 366.923 380.784 366.556 380.986C366.198 381.188 365.798 381.289 365.358 381.289ZM365.344 380.009C365.528 380.009 365.688 379.963 365.826 379.871C365.964 379.779 366.074 379.646 366.156 379.472C366.239 379.297 366.28 379.082 366.28 378.825C366.28 378.549 366.239 378.324 366.156 378.15C366.074 377.975 365.964 377.842 365.826 377.751C365.688 377.659 365.528 377.613 365.344 377.613C365.17 377.613 365.009 377.659 364.862 377.751C364.724 377.842 364.614 377.98 364.532 378.164C364.449 378.338 364.408 378.558 364.408 378.825C364.408 379.082 364.449 379.297 364.532 379.472C364.614 379.646 364.724 379.779 364.862 379.871C365.009 379.963 365.17 380.009 365.344 380.009Z" fill="#2B3674"/>
<circle cx="337.64" cy="367.5" r="3.05989" fill="#1A237E"/>
<path d="M483.708 371.148C483.262 371.148 482.855 371.06 482.488 370.882C482.12 370.698 481.827 370.423 481.606 370.056C481.392 369.683 481.285 369.208 481.285 368.633V364.612H482.203V368.642C482.203 369.028 482.264 369.346 482.387 369.597C482.515 369.842 482.696 370.025 482.928 370.148C483.161 370.264 483.427 370.322 483.727 370.322C484.039 370.322 484.308 370.264 484.535 370.148C484.761 370.025 484.936 369.842 485.058 369.597C485.186 369.346 485.251 369.028 485.251 368.642V364.612H486.169V368.633C486.169 369.208 486.058 369.683 485.838 370.056C485.618 370.423 485.321 370.698 484.948 370.882C484.581 371.06 484.167 371.148 483.708 371.148ZM487.225 371.038V366.219H488.051L488.097 366.962C488.238 366.693 488.44 366.485 488.703 366.338C488.966 366.185 489.275 366.109 489.63 366.109C489.991 366.109 490.303 366.179 490.566 366.32C490.83 366.454 491.032 366.662 491.172 366.944C491.319 367.219 491.393 367.568 491.393 367.99V371.038H490.475V368.082C490.475 367.691 490.377 367.394 490.181 367.192C489.985 366.99 489.719 366.889 489.382 366.889C489.156 366.889 488.948 366.941 488.758 367.045C488.574 367.149 488.425 367.302 488.308 367.504C488.198 367.706 488.143 367.954 488.143 368.247V371.038H487.225ZM492.483 373.058V366.219H493.309L493.401 366.935C493.493 366.782 493.612 366.644 493.759 366.522C493.906 366.399 494.08 366.301 494.282 366.228C494.484 366.148 494.72 366.109 494.989 366.109C495.424 366.109 495.803 366.219 496.127 366.439C496.458 366.659 496.712 366.959 496.889 367.339C497.073 367.718 497.165 368.15 497.165 368.633C497.165 369.116 497.073 369.548 496.889 369.927C496.706 370.307 496.449 370.607 496.118 370.827C495.788 371.041 495.411 371.148 494.989 371.148C494.622 371.148 494.304 371.078 494.034 370.937C493.765 370.79 493.554 370.588 493.401 370.331V373.058H492.483ZM494.824 370.35C495.093 370.35 495.332 370.282 495.54 370.148C495.754 370.007 495.922 369.808 496.045 369.551C496.167 369.288 496.228 368.982 496.228 368.633C496.228 368.278 496.167 367.972 496.045 367.715C495.922 367.452 495.754 367.253 495.54 367.118C495.332 366.978 495.093 366.907 494.824 366.907C494.536 366.907 494.285 366.978 494.071 367.118C493.863 367.253 493.701 367.452 493.585 367.715C493.468 367.972 493.41 368.275 493.41 368.624C493.41 368.979 493.468 369.285 493.585 369.542C493.701 369.799 493.863 369.998 494.071 370.138C494.285 370.279 494.536 370.35 494.824 370.35ZM499.623 371.148C499.25 371.148 498.941 371.081 498.696 370.946C498.451 370.812 498.268 370.631 498.145 370.405C498.023 370.172 497.962 369.924 497.962 369.661C497.962 369.355 498.038 369.092 498.191 368.872C498.35 368.645 498.577 368.474 498.87 368.358C499.164 368.241 499.513 368.183 499.917 368.183H501.092C501.092 367.889 501.058 367.645 500.991 367.449C500.93 367.253 500.823 367.109 500.67 367.017C500.517 366.919 500.309 366.871 500.045 366.871C499.788 366.871 499.568 366.932 499.385 367.054C499.207 367.177 499.097 367.36 499.054 367.605H498.136C498.173 367.287 498.277 367.017 498.448 366.797C498.626 366.571 498.855 366.399 499.137 366.283C499.418 366.167 499.721 366.109 500.045 366.109C500.486 366.109 500.85 366.185 501.138 366.338C501.432 366.491 501.649 366.708 501.79 366.99C501.937 367.265 502.01 367.596 502.01 367.981V371.038H501.211L501.138 370.249C501.077 370.377 500.997 370.496 500.899 370.607C500.807 370.711 500.697 370.806 500.569 370.891C500.446 370.971 500.306 371.032 500.146 371.075C499.987 371.124 499.813 371.148 499.623 371.148ZM499.788 370.405C499.972 370.405 500.14 370.365 500.293 370.285C500.452 370.2 500.59 370.086 500.706 369.946C500.823 369.805 500.911 369.646 500.973 369.468C501.04 369.285 501.077 369.095 501.083 368.899V368.826H500.009C499.752 368.826 499.544 368.859 499.385 368.927C499.225 368.994 499.109 369.086 499.036 369.202C498.962 369.318 498.926 369.453 498.926 369.606C498.926 369.771 498.959 369.912 499.027 370.028C499.094 370.145 499.192 370.236 499.32 370.304C499.455 370.371 499.611 370.405 499.788 370.405ZM503.171 371.038V366.219H504.088V371.038H503.171ZM503.63 365.402C503.452 365.402 503.305 365.347 503.189 365.237C503.079 365.126 503.024 364.989 503.024 364.823C503.024 364.652 503.079 364.514 503.189 364.41C503.305 364.306 503.452 364.254 503.63 364.254C503.801 364.254 503.945 364.306 504.061 364.41C504.177 364.514 504.235 364.652 504.235 364.823C504.235 364.989 504.177 365.126 504.061 365.237C503.945 365.347 503.801 365.402 503.63 365.402ZM507.227 371.148C506.805 371.148 506.429 371.041 506.098 370.827C505.774 370.607 505.52 370.307 505.336 369.927C505.159 369.548 505.07 369.116 505.07 368.633C505.07 368.143 505.162 367.709 505.345 367.33C505.529 366.95 505.786 366.653 506.117 366.439C506.447 366.219 506.833 366.109 507.273 366.109C507.628 366.109 507.937 366.179 508.2 366.32C508.463 366.46 508.672 366.659 508.825 366.916V364.429H509.743V371.038H508.916L508.834 370.304C508.742 370.457 508.623 370.597 508.476 370.726C508.335 370.848 508.161 370.949 507.952 371.029C507.751 371.108 507.509 371.148 507.227 371.148ZM507.411 370.35C507.692 370.35 507.94 370.279 508.154 370.138C508.369 369.998 508.531 369.799 508.641 369.542C508.757 369.285 508.815 368.979 508.815 368.624C508.815 368.275 508.757 367.972 508.641 367.715C508.531 367.452 508.369 367.253 508.154 367.118C507.94 366.978 507.692 366.907 507.411 366.907C507.142 366.907 506.9 366.978 506.686 367.118C506.471 367.253 506.303 367.452 506.181 367.715C506.065 367.972 506.006 368.275 506.006 368.624C506.006 368.979 506.065 369.285 506.181 369.542C506.303 369.799 506.471 369.998 506.686 370.138C506.9 370.279 507.142 370.35 507.411 370.35Z" fill="#A3AED0"/>
<path d="M484.995 386.315C484.27 386.315 483.655 386.182 483.15 385.916C482.654 385.65 482.255 385.292 481.952 384.842C481.658 384.392 481.443 383.892 481.305 383.341C481.177 382.781 481.112 382.216 481.112 381.647C481.112 380.564 481.264 379.628 481.567 378.838C481.87 378.049 482.306 377.438 482.875 377.007C483.453 376.566 484.142 376.346 484.94 376.346C485.62 376.346 486.193 376.479 486.661 376.745C487.13 377.002 487.492 377.342 487.749 377.764C488.006 378.177 488.158 378.627 488.204 379.114H486.469C486.395 378.719 486.225 378.416 485.959 378.205C485.693 377.985 485.349 377.874 484.926 377.874C484.532 377.874 484.187 377.994 483.894 378.232C483.609 378.471 483.384 378.829 483.219 379.306C483.054 379.784 482.957 380.385 482.93 381.11C482.93 381.129 482.93 381.147 482.93 381.165C482.93 381.175 482.93 381.184 482.93 381.193C483.077 380.945 483.27 380.725 483.508 380.532C483.747 380.339 484.022 380.188 484.334 380.078C484.646 379.967 484.977 379.912 485.326 379.912C485.858 379.912 486.354 380.041 486.813 380.298C487.272 380.555 487.644 380.917 487.928 381.386C488.213 381.854 488.355 382.409 488.355 383.052C488.355 383.63 488.213 384.172 487.928 384.677C487.644 385.172 487.249 385.572 486.744 385.875C486.248 386.168 485.665 386.315 484.995 386.315ZM484.885 384.718C485.216 384.718 485.505 384.649 485.753 384.511C486.01 384.374 486.212 384.185 486.358 383.947C486.505 383.699 486.579 383.419 486.579 383.107C486.579 382.776 486.505 382.492 486.358 382.253C486.212 382.014 486.01 381.826 485.753 381.689C485.496 381.551 485.202 381.482 484.871 381.482C484.55 381.482 484.261 381.551 484.004 381.689C483.747 381.826 483.545 382.019 483.398 382.267C483.251 382.506 483.178 382.781 483.178 383.093C483.178 383.414 483.251 383.699 483.398 383.947C483.545 384.185 483.747 384.374 484.004 384.511C484.27 384.649 484.564 384.718 484.885 384.718ZM491.37 386.15L496.781 376.511H498.585L493.174 386.15H491.37ZM498.268 386.315C497.819 386.315 497.41 386.219 497.043 386.026C496.685 385.824 496.396 385.539 496.175 385.172C495.964 384.796 495.859 384.355 495.859 383.85C495.859 383.336 495.964 382.896 496.175 382.529C496.396 382.161 496.685 381.881 497.043 381.689C497.41 381.487 497.814 381.386 498.255 381.386C498.714 381.386 499.122 381.487 499.48 381.689C499.838 381.881 500.123 382.161 500.334 382.529C500.545 382.896 500.651 383.336 500.651 383.85C500.651 384.355 500.54 384.796 500.32 385.172C500.109 385.539 499.824 385.824 499.466 386.026C499.108 386.219 498.709 386.315 498.268 386.315ZM498.255 385.035C498.429 385.035 498.585 384.989 498.723 384.897C498.87 384.805 498.984 384.672 499.067 384.498C499.15 384.323 499.191 384.107 499.191 383.85C499.191 383.584 499.15 383.364 499.067 383.189C498.984 383.006 498.874 382.868 498.737 382.776C498.599 382.685 498.438 382.639 498.255 382.639C498.08 382.639 497.92 382.685 497.773 382.776C497.635 382.868 497.525 383.006 497.442 383.189C497.36 383.364 497.318 383.584 497.318 383.85C497.318 384.107 497.36 384.323 497.442 384.498C497.525 384.672 497.635 384.805 497.773 384.897C497.92 384.989 498.08 385.035 498.255 385.035ZM491.769 381.289C491.319 381.289 490.911 381.188 490.544 380.986C490.186 380.784 489.897 380.5 489.676 380.133C489.465 379.765 489.36 379.329 489.36 378.825C489.36 378.301 489.465 377.861 489.676 377.503C489.897 377.135 490.186 376.851 490.544 376.649C490.911 376.447 491.319 376.346 491.769 376.346C492.219 376.346 492.623 376.447 492.981 376.649C493.339 376.851 493.624 377.135 493.835 377.503C494.046 377.861 494.151 378.301 494.151 378.825C494.151 379.329 494.046 379.765 493.835 380.133C493.624 380.5 493.334 380.784 492.967 380.986C492.609 381.188 492.21 381.289 491.769 381.289ZM491.755 380.009C491.939 380.009 492.1 379.963 492.237 379.871C492.375 379.779 492.485 379.646 492.568 379.472C492.65 379.297 492.692 379.082 492.692 378.825C492.692 378.549 492.65 378.324 492.568 378.15C492.485 377.975 492.375 377.842 492.237 377.751C492.1 377.659 491.939 377.613 491.755 377.613C491.581 377.613 491.42 377.659 491.274 377.751C491.136 377.842 491.026 377.98 490.943 378.164C490.86 378.338 490.819 378.558 490.819 378.825C490.819 379.082 490.86 379.297 490.943 379.472C491.026 379.646 491.136 379.779 491.274 379.871C491.42 379.963 491.581 380.009 491.755 380.009Z" fill="#2B3674"/>
<circle cx="473.539" cy="367.5" r="3.05989" fill="#FFAC90"/>
</g>
</g>
</g>
<defs>
<filter id="filter0_d_1003_189" x="8.94428" y="155.702" width="267.279" height="296.795" filterUnits="userSpaceOnUse" color-interpolation-filters="sRGB">
<feFlood flood-opacity="0" result="BackgroundImageFix"/>
<feColorMatrix in="SourceAlpha" type="matrix" values="0 0 0 0 0 0 0 0 0 0 0 0 0 0 0 0 0 0 127 0" result="hardAlpha"/>
<feOffset dy="4.09938"/>
<feGaussianBlur stdDeviation="8.19876"/>
<feComposite in2="hardAlpha" operator="out"/>
<feColorMatrix type="matrix" values="0 0 0 0 0 0 0 0 0 0 0 0 0 0 0 0 0 0 0.05 0"/>
<feBlend mode="normal" in2="BackgroundImageFix" result="effect1_dropShadow_1003_189"/>
<feBlend mode="normal" in="SourceGraphic" in2="effect1_dropShadow_1003_189" result="shape"/>
</filter>
<filter id="filter1_d_1003_189" x="134.385" y="318.857" width="24.5962" height="78.7081" filterUnits="userSpaceOnUse" color-interpolation-filters="sRGB">
<feFlood flood-opacity="0" result="BackgroundImageFix"/>
<feColorMatrix in="SourceAlpha" type="matrix" values="0 0 0 0 0 0 0 0 0 0 0 0 0 0 0 0 0 0 127 0" result="hardAlpha"/>
<feOffset/>
<feGaussianBlur stdDeviation="4.09938"/>
<feComposite in2="hardAlpha" operator="out"/>
<feColorMatrix type="matrix" values="0 0 0 0 0 0 0 0 0 0 0 0 0 0 0 0 0 0 0.1 0"/>
<feBlend mode="normal" in2="BackgroundImageFix" result="effect1_dropShadow_1003_189"/>
<feBlend mode="normal" in="SourceGraphic" in2="effect1_dropShadow_1003_189" result="shape"/>
</filter>
<filter id="filter2_d_1003_189" x="168" y="299.18" width="24.5962" height="98.3853" filterUnits="userSpaceOnUse" color-interpolation-filters="sRGB">
<feFlood flood-opacity="0" result="BackgroundImageFix"/>
<feColorMatrix in="SourceAlpha" type="matrix" values="0 0 0 0 0 0 0 0 0 0 0 0 0 0 0 0 0 0 127 0" result="hardAlpha"/>
<feOffset/>
<feGaussianBlur stdDeviation="4.09938"/>
<feComposite in2="hardAlpha" operator="out"/>
<feColorMatrix type="matrix" values="0 0 0 0 0 0 0 0 0 0 0 0 0 0 0 0 0 0 0.1 0"/>
<feBlend mode="normal" in2="BackgroundImageFix" result="effect1_dropShadow_1003_189"/>
<feBlend mode="normal" in="SourceGraphic" in2="effect1_dropShadow_1003_189" result="shape"/>
</filter>
<filter id="filter3_d_1003_189" x="200.795" y="268.025" width="24.5962" height="129.541" filterUnits="userSpaceOnUse" color-interpolation-filters="sRGB">
<feFlood flood-opacity="0" result="BackgroundImageFix"/>
<feColorMatrix in="SourceAlpha" type="matrix" values="0 0 0 0 0 0 0 0 0 0 0 0 0 0 0 0 0 0 127 0" result="hardAlpha"/>
<feOffset/>
<feGaussianBlur stdDeviation="4.09938"/>
<feComposite in2="hardAlpha" operator="out"/>
<feColorMatrix type="matrix" values="0 0 0 0 0 0 0 0 0 0 0 0 0 0 0 0 0 0 0.1 0"/>
<feBlend mode="normal" in2="BackgroundImageFix" result="effect1_dropShadow_1003_189"/>
<feBlend mode="normal" in="SourceGraphic" in2="effect1_dropShadow_1003_189" result="shape"/>
</filter>
<filter id="filter4_d_1003_189" x="259.826" y="154.882" width="334.509" height="303.354" filterUnits="userSpaceOnUse" color-interpolation-filters="sRGB">
<feFlood flood-opacity="0" result="BackgroundImageFix"/>
<feColorMatrix in="SourceAlpha" type="matrix" values="0 0 0 0 0 0 0 0 0 0 0 0 0 0 0 0 0 0 127 0" result="hardAlpha"/>
<feOffset dy="6.55901"/>
<feGaussianBlur stdDeviation="9.83851"/>
<feComposite in2="hardAlpha" operator="out"/>
<feColorMatrix type="matrix" values="0 0 0 0 0 0 0 0 0 0 0 0 0 0 0 0 0 0 0.1 0"/>
<feBlend mode="normal" in2="BackgroundImageFix" result="effect1_dropShadow_1003_189"/>
<feBlend mode="normal" in="SourceGraphic" in2="effect1_dropShadow_1003_189" result="shape"/>
</filter>
<filter id="filter5_d_1003_189" x="273.383" y="330.017" width="306.487" height="118.571" filterUnits="userSpaceOnUse" color-interpolation-filters="sRGB">
<feFlood flood-opacity="0" result="BackgroundImageFix"/>
<feColorMatrix in="SourceAlpha" type="matrix" values="0 0 0 0 0 0 0 0 0 0 0 0 0 0 0 0 0 0 127 0" result="hardAlpha"/>
<feOffset dy="13.7695"/>
<feGaussianBlur stdDeviation="15.2994"/>
<feColorMatrix type="matrix" values="0 0 0 0 0.439216 0 0 0 0 0.564706 0 0 0 0 0.690196 0 0 0 0.12 0"/>
<feBlend mode="normal" in2="BackgroundImageFix" result="effect1_dropShadow_1003_189"/>
<feBlend mode="normal" in="SourceGraphic" in2="effect1_dropShadow_1003_189" result="shape"/>
</filter>
<linearGradient id="paint0_linear_1003_189" x1="114.527" y1="327.742" x2="-38.6334" y2="156.264" gradientUnits="userSpaceOnUse">
<stop stop-color="#1A237E"/>
<stop offset="1" stop-color="#1A237E"/>
</linearGradient>
<linearGradient id="paint1_linear_1003_189" x1="148.143" y1="358.554" x2="90.7519" y2="230.045" gradientUnits="userSpaceOnUse">
<stop stop-color="#1A237E"/>
<stop offset="1" stop-color="#1A237E"/>
</linearGradient>
<linearGradient id="paint2_linear_1003_189" x1="181.757" y1="348.824" x2="93.1691" y2="198.066" gradientUnits="userSpaceOnUse">
<stop stop-color="#1A237E"/>
<stop offset="1" stop-color="#1A237E"/>
</linearGradient>
<linearGradient id="paint3_linear_1003_189" x1="214.552" y1="333.418" x2="77.6288" y2="164.567" gradientUnits="userSpaceOnUse">
<stop stop-color="#1A237E"/>
<stop offset="1" stop-color="#1A237E"/>
</linearGradient>
<clipPath id="clip0_1003_189">
<rect x="279.503" y="168" width="295.155" height="264" rx="16.166" fill="white"/>
</clipPath>
<clipPath id="clip1_1003_189">
<rect width="14.5345" height="14.5345" fill="white" transform="translate(555.392 203.953) rotate(-180)"/>
</clipPath>
</defs>
</svg>
