<svg width="600" height="600" viewBox="0 0 600 600" fill="none" xmlns="http://www.w3.org/2000/svg">
<rect width="600" height="600" rx="15.6522" fill="#E9ECFF"/>
<rect x="276.285" y="175.046" width="283.939" height="298.776" rx="14.4686" fill="white"/>
<path d="M297.198 212.998C296.528 212.998 295.933 212.858 295.412 212.577C294.899 212.296 294.498 211.911 294.209 211.423C293.928 210.927 293.787 210.365 293.787 209.737V203.61H295.015V209.712C295.015 210.134 295.106 210.51 295.288 210.841C295.478 211.163 295.734 211.415 296.057 211.597C296.387 211.779 296.768 211.87 297.198 211.87C297.628 211.87 298.004 211.779 298.326 211.597C298.657 211.415 298.913 211.163 299.095 210.841C299.285 210.51 299.38 210.134 299.38 209.712V203.61H300.608V209.737C300.608 210.365 300.463 210.927 300.174 211.423C299.893 211.911 299.496 212.296 298.983 212.577C298.471 212.858 297.876 212.998 297.198 212.998ZM304.862 212.998C304.193 212.998 303.61 212.833 303.114 212.502C302.618 212.172 302.266 211.725 302.06 211.163L302.977 210.717C303.168 211.113 303.428 211.428 303.759 211.659C304.089 211.891 304.457 212.006 304.862 212.006C305.226 212.006 305.528 211.919 305.768 211.746C306.008 211.572 306.127 211.345 306.127 211.064C306.127 210.865 306.07 210.708 305.954 210.593C305.846 210.468 305.714 210.373 305.557 210.307C305.4 210.233 305.255 210.179 305.123 210.146L304.118 209.861C303.515 209.687 303.073 209.439 302.791 209.117C302.519 208.794 302.382 208.418 302.382 207.988C302.382 207.591 302.481 207.248 302.68 206.959C302.887 206.661 303.163 206.43 303.511 206.264C303.866 206.099 304.263 206.016 304.701 206.016C305.288 206.016 305.813 206.165 306.276 206.463C306.748 206.76 307.082 207.178 307.281 207.715L306.338 208.149C306.189 207.802 305.966 207.529 305.669 207.331C305.371 207.124 305.036 207.021 304.664 207.021C304.325 207.021 304.056 207.108 303.858 207.281C303.66 207.447 303.56 207.657 303.56 207.914C303.56 208.104 303.61 208.261 303.709 208.385C303.808 208.501 303.928 208.592 304.069 208.658C304.209 208.716 304.346 208.765 304.478 208.807L305.569 209.129C306.115 209.286 306.537 209.53 306.834 209.861C307.14 210.192 307.293 210.588 307.293 211.051C307.293 211.423 307.19 211.758 306.983 212.056C306.776 212.354 306.491 212.585 306.127 212.75C305.764 212.916 305.342 212.998 304.862 212.998ZM311.879 212.998C311.234 212.998 310.659 212.845 310.155 212.54C309.65 212.234 309.254 211.816 308.964 211.287C308.675 210.75 308.53 210.15 308.53 209.489C308.53 208.819 308.671 208.224 308.952 207.703C309.241 207.182 309.63 206.773 310.118 206.475C310.614 206.169 311.168 206.016 311.779 206.016C312.275 206.016 312.714 206.107 313.094 206.289C313.483 206.463 313.809 206.703 314.074 207.008C314.347 207.306 314.553 207.649 314.694 208.038C314.843 208.418 314.917 208.815 314.917 209.228C314.917 209.319 314.909 209.423 314.892 209.538C314.884 209.646 314.872 209.749 314.855 209.848H309.373V208.856H314.185L313.64 209.303C313.714 208.873 313.673 208.488 313.516 208.149C313.359 207.81 313.127 207.542 312.821 207.343C312.515 207.145 312.168 207.046 311.779 207.046C311.391 207.046 311.035 207.145 310.713 207.343C310.39 207.542 310.138 207.827 309.956 208.199C309.783 208.563 309.712 208.997 309.746 209.501C309.712 209.989 309.787 210.419 309.969 210.791C310.159 211.155 310.424 211.44 310.762 211.647C311.11 211.845 311.486 211.944 311.891 211.944C312.337 211.944 312.714 211.841 313.02 211.634C313.325 211.428 313.574 211.163 313.764 210.841L314.731 211.337C314.599 211.643 314.392 211.924 314.111 212.18C313.838 212.428 313.512 212.626 313.131 212.775C312.759 212.924 312.342 212.998 311.879 212.998ZM316.421 212.85V206.165H317.549V207.393L317.425 207.219C317.582 206.839 317.822 206.558 318.145 206.376C318.467 206.186 318.86 206.091 319.323 206.091H319.732V207.182H319.149C318.678 207.182 318.298 207.331 318.008 207.629C317.719 207.918 317.574 208.331 317.574 208.869V212.85H316.421ZM323.15 212.998C322.48 212.998 321.898 212.833 321.401 212.502C320.905 212.172 320.554 211.725 320.347 211.163L321.265 210.717C321.455 211.113 321.716 211.428 322.046 211.659C322.377 211.891 322.745 212.006 323.15 212.006C323.514 212.006 323.816 211.919 324.055 211.746C324.295 211.572 324.415 211.345 324.415 211.064C324.415 210.865 324.357 210.708 324.241 210.593C324.134 210.468 324.002 210.373 323.845 210.307C323.687 210.233 323.543 210.179 323.411 210.146L322.406 209.861C321.802 209.687 321.36 209.439 321.079 209.117C320.806 208.794 320.67 208.418 320.67 207.988C320.67 207.591 320.769 207.248 320.967 206.959C321.174 206.661 321.451 206.43 321.798 206.264C322.154 206.099 322.551 206.016 322.989 206.016C323.576 206.016 324.101 206.165 324.564 206.463C325.035 206.76 325.37 207.178 325.568 207.715L324.626 208.149C324.477 207.802 324.254 207.529 323.956 207.331C323.659 207.124 323.324 207.021 322.952 207.021C322.613 207.021 322.344 207.108 322.146 207.281C321.947 207.447 321.848 207.657 321.848 207.914C321.848 208.104 321.898 208.261 321.997 208.385C322.096 208.501 322.216 208.592 322.356 208.658C322.497 208.716 322.633 208.765 322.766 208.807L323.857 209.129C324.403 209.286 324.824 209.53 325.122 209.861C325.428 210.192 325.581 210.588 325.581 211.051C325.581 211.423 325.477 211.758 325.271 212.056C325.064 212.354 324.779 212.585 324.415 212.75C324.051 212.916 323.63 212.998 323.15 212.998Z" fill="#8F9396"/>
<path d="M294.515 253.523V239.178H296.458V253.523H294.515ZM302.634 253.73C302.083 253.73 301.559 253.661 301.063 253.523C300.581 253.371 300.133 253.165 299.72 252.903C299.306 252.627 298.948 252.303 298.645 251.931L299.844 250.733C300.202 251.174 300.615 251.504 301.084 251.725C301.552 251.931 302.076 252.035 302.655 252.035C303.233 252.035 303.681 251.938 303.998 251.745C304.315 251.539 304.473 251.256 304.473 250.898C304.473 250.54 304.343 250.264 304.081 250.071C303.833 249.864 303.509 249.699 303.109 249.575C302.71 249.437 302.283 249.306 301.828 249.182C301.387 249.045 300.967 248.872 300.567 248.666C300.167 248.459 299.837 248.176 299.575 247.818C299.327 247.46 299.203 246.985 299.203 246.392C299.203 245.799 299.347 245.29 299.637 244.862C299.926 244.422 300.326 244.084 300.836 243.85C301.359 243.615 301.986 243.498 302.717 243.498C303.488 243.498 304.17 243.636 304.763 243.912C305.369 244.173 305.865 244.573 306.251 245.111L305.052 246.309C304.777 245.951 304.432 245.675 304.019 245.483C303.619 245.29 303.164 245.193 302.655 245.193C302.117 245.193 301.704 245.29 301.414 245.483C301.139 245.662 301.001 245.917 301.001 246.247C301.001 246.578 301.125 246.833 301.373 247.012C301.621 247.191 301.945 247.343 302.345 247.467C302.758 247.591 303.185 247.722 303.626 247.86C304.067 247.984 304.487 248.156 304.887 248.376C305.286 248.597 305.61 248.893 305.858 249.265C306.12 249.637 306.251 250.126 306.251 250.733C306.251 251.656 305.92 252.386 305.259 252.924C304.611 253.461 303.736 253.73 302.634 253.73ZM315.279 253.523V247.798C315.279 247.053 315.044 246.44 314.576 245.958C314.107 245.476 313.501 245.235 312.757 245.235C312.261 245.235 311.82 245.345 311.434 245.565C311.048 245.786 310.745 246.089 310.525 246.475C310.304 246.861 310.194 247.301 310.194 247.798L309.429 247.363C309.429 246.619 309.595 245.958 309.925 245.379C310.256 244.8 310.718 244.346 311.31 244.015C311.903 243.671 312.571 243.498 313.315 243.498C314.059 243.498 314.714 243.664 315.279 243.994C315.857 244.325 316.312 244.787 316.643 245.379C316.973 245.972 317.139 246.654 317.139 247.425V253.523H315.279ZM308.334 253.523V238.765H310.194V253.523H308.334ZM323.833 253.73C322.937 253.73 322.124 253.509 321.394 253.068C320.663 252.613 320.085 252 319.657 251.229C319.244 250.457 319.037 249.589 319.037 248.624C319.037 247.66 319.244 246.792 319.657 246.02C320.085 245.248 320.656 244.635 321.373 244.18C322.103 243.726 322.923 243.498 323.833 243.498C324.577 243.498 325.238 243.657 325.817 243.974C326.409 244.277 326.885 244.704 327.243 245.255C327.601 245.793 327.801 246.42 327.843 247.136V250.092C327.801 250.795 327.601 251.422 327.243 251.973C326.899 252.524 326.43 252.958 325.838 253.275C325.259 253.578 324.591 253.73 323.833 253.73ZM324.143 251.973C325.066 251.973 325.81 251.663 326.375 251.043C326.94 250.409 327.222 249.603 327.222 248.624C327.222 247.949 327.092 247.363 326.83 246.867C326.582 246.358 326.223 245.965 325.755 245.689C325.286 245.4 324.742 245.255 324.122 245.255C323.502 245.255 322.951 245.4 322.468 245.689C322 245.979 321.628 246.378 321.352 246.888C321.091 247.384 320.96 247.956 320.96 248.604C320.96 249.265 321.091 249.851 321.352 250.361C321.628 250.857 322.007 251.249 322.489 251.539C322.971 251.828 323.523 251.973 324.143 251.973ZM327.098 253.523V250.877L327.45 248.48L327.098 246.103V243.705H328.979V253.523H327.098ZM337.599 253.523V251.745H341.588C342.65 251.745 343.58 251.518 344.379 251.063C345.178 250.595 345.798 249.954 346.239 249.141C346.694 248.328 346.921 247.391 346.921 246.33C346.921 245.283 346.694 244.353 346.239 243.54C345.784 242.727 345.157 242.093 344.358 241.638C343.559 241.183 342.636 240.956 341.588 240.956H337.62V239.178H341.63C342.677 239.178 343.642 239.358 344.524 239.716C345.419 240.074 346.191 240.577 346.839 241.225C347.5 241.872 348.01 242.63 348.368 243.498C348.74 244.366 348.926 245.317 348.926 246.351C348.926 247.37 348.74 248.321 348.368 249.203C348.01 250.071 347.507 250.829 346.859 251.477C346.212 252.124 345.44 252.627 344.544 252.986C343.662 253.344 342.705 253.523 341.671 253.523H337.599ZM336.318 253.523V239.178H338.261V253.523H336.318ZM355.235 253.73C354.436 253.73 353.712 253.551 353.065 253.192C352.431 252.82 351.935 252.31 351.577 251.663C351.218 251.015 351.039 250.264 351.039 249.41V243.705H352.899V249.327C352.899 249.864 352.989 250.333 353.168 250.733C353.361 251.118 353.637 251.415 353.995 251.621C354.353 251.828 354.774 251.931 355.256 251.931C355.986 251.931 356.558 251.704 356.971 251.249C357.385 250.781 357.591 250.14 357.591 249.327V243.705H359.452V249.41C359.452 250.264 359.273 251.015 358.914 251.663C358.556 252.31 358.06 252.82 357.426 253.192C356.806 253.551 356.076 253.73 355.235 253.73ZM367.112 253.73C366.368 253.73 365.693 253.578 365.087 253.275C364.494 252.958 364.019 252.524 363.66 251.973C363.302 251.422 363.102 250.795 363.061 250.092V247.136C363.102 246.42 363.302 245.793 363.66 245.255C364.033 244.704 364.515 244.277 365.107 243.974C365.714 243.657 366.382 243.498 367.112 243.498C368.008 243.498 368.814 243.726 369.531 244.18C370.261 244.635 370.833 245.248 371.246 246.02C371.66 246.792 371.866 247.66 371.866 248.624C371.866 249.589 371.66 250.457 371.246 251.229C370.833 252 370.261 252.613 369.531 253.068C368.814 253.509 368.008 253.73 367.112 253.73ZM361.945 253.523V238.765H363.805V246.103L363.454 248.48L363.805 250.877V253.523H361.945ZM366.802 251.973C367.422 251.973 367.967 251.828 368.435 251.539C368.904 251.249 369.276 250.857 369.551 250.361C369.827 249.851 369.965 249.265 369.965 248.604C369.965 247.956 369.827 247.377 369.551 246.867C369.276 246.358 368.904 245.965 368.435 245.689C367.967 245.4 367.429 245.255 366.823 245.255C366.203 245.255 365.659 245.4 365.19 245.689C364.722 245.965 364.356 246.358 364.095 246.867C363.833 247.377 363.702 247.963 363.702 248.624C363.702 249.272 363.826 249.851 364.074 250.361C364.336 250.857 364.701 251.249 365.169 251.539C365.652 251.828 366.196 251.973 366.802 251.973ZM378.522 253.73C377.544 253.73 376.662 253.509 375.877 253.068C375.091 252.613 374.471 252 374.017 251.229C373.562 250.457 373.334 249.582 373.334 248.604C373.334 247.639 373.555 246.771 373.996 245.999C374.451 245.228 375.057 244.621 375.815 244.18C376.586 243.726 377.448 243.498 378.398 243.498C379.308 243.498 380.107 243.705 380.796 244.118C381.499 244.532 382.043 245.104 382.429 245.834C382.829 246.564 383.028 247.391 383.028 248.314C383.028 248.452 383.021 248.604 383.008 248.769C382.994 248.921 382.966 249.1 382.925 249.306H374.637V247.756H381.933L381.251 248.356C381.251 247.694 381.134 247.136 380.899 246.681C380.665 246.213 380.334 245.855 379.907 245.607C379.48 245.345 378.963 245.214 378.357 245.214C377.723 245.214 377.165 245.352 376.683 245.627C376.201 245.903 375.829 246.289 375.567 246.785C375.305 247.281 375.174 247.866 375.174 248.542C375.174 249.231 375.312 249.837 375.587 250.361C375.863 250.87 376.256 251.27 376.766 251.559C377.275 251.835 377.861 251.973 378.522 251.973C379.074 251.973 379.577 251.876 380.031 251.683C380.5 251.49 380.899 251.201 381.23 250.815L382.429 252.035C381.96 252.586 381.382 253.006 380.693 253.296C380.018 253.585 379.294 253.73 378.522 253.73ZM388.12 253.606L383.862 243.705H385.929L389.091 251.456H388.43L391.757 243.705H393.824L389.236 253.606H388.12ZM385.309 257.636L388.202 251.704L389.236 253.606L387.376 257.636H385.309Z" fill="#3F4346"/>
<path d="M298.504 302.604C297.374 302.604 296.409 302.397 295.61 301.984C294.811 301.57 294.101 300.971 293.481 300.185L294.804 298.863C295.259 299.496 295.782 299.979 296.375 300.309C296.967 300.626 297.698 300.785 298.566 300.785C299.42 300.785 300.102 300.599 300.612 300.227C301.136 299.855 301.398 299.345 301.398 298.697C301.398 298.16 301.274 297.726 301.026 297.395C300.778 297.064 300.44 296.796 300.013 296.589C299.599 296.368 299.145 296.175 298.649 296.01C298.153 295.831 297.656 295.645 297.16 295.452C296.664 295.245 296.21 294.997 295.796 294.708C295.383 294.405 295.045 294.012 294.783 293.53C294.535 293.048 294.411 292.441 294.411 291.711C294.411 290.898 294.604 290.209 294.99 289.644C295.39 289.065 295.927 288.624 296.602 288.321C297.291 288.004 298.063 287.846 298.917 287.846C299.854 287.846 300.695 288.032 301.439 288.404C302.183 288.762 302.789 289.237 303.258 289.83L301.935 291.153C301.508 290.657 301.046 290.285 300.55 290.037C300.068 289.789 299.51 289.665 298.876 289.665C298.104 289.665 297.491 289.837 297.036 290.181C296.582 290.512 296.354 290.981 296.354 291.587C296.354 292.069 296.478 292.462 296.726 292.765C296.988 293.054 297.326 293.302 297.739 293.509C298.153 293.716 298.607 293.909 299.103 294.088C299.613 294.253 300.116 294.439 300.612 294.646C301.108 294.853 301.563 295.114 301.976 295.431C302.39 295.748 302.72 296.162 302.969 296.672C303.23 297.168 303.361 297.795 303.361 298.552C303.361 299.82 302.92 300.812 302.038 301.529C301.17 302.245 299.992 302.604 298.504 302.604ZM309.683 302.604C308.787 302.604 307.974 302.383 307.244 301.942C306.514 301.488 305.935 300.874 305.508 300.103C305.094 299.331 304.888 298.463 304.888 297.498C304.888 296.534 305.094 295.666 305.508 294.894C305.935 294.122 306.507 293.509 307.223 293.054C307.954 292.6 308.774 292.372 309.683 292.372C310.427 292.372 311.089 292.531 311.667 292.848C312.26 293.151 312.735 293.578 313.093 294.129C313.452 294.667 313.652 295.294 313.693 296.01V298.966C313.652 299.669 313.452 300.296 313.093 300.847C312.749 301.398 312.28 301.832 311.688 302.149C311.109 302.452 310.441 302.604 309.683 302.604ZM309.993 300.847C310.916 300.847 311.66 300.537 312.225 299.917C312.79 299.283 313.073 298.477 313.073 297.498C313.073 296.823 312.942 296.237 312.68 295.741C312.432 295.232 312.074 294.839 311.605 294.563C311.137 294.274 310.592 294.129 309.972 294.129C309.352 294.129 308.801 294.274 308.319 294.563C307.85 294.853 307.478 295.252 307.203 295.762C306.941 296.258 306.81 296.83 306.81 297.478C306.81 298.139 306.941 298.725 307.203 299.235C307.478 299.731 307.857 300.123 308.339 300.413C308.822 300.702 309.373 300.847 309.993 300.847ZM312.949 302.397V299.751L313.3 297.354L312.949 294.977V292.579H314.83V302.397H312.949ZM317.538 302.397V292.579H319.398V302.397H317.538ZM324.173 302.397V296.465C324.173 295.735 323.946 295.163 323.491 294.749C323.05 294.322 322.492 294.109 321.817 294.109C321.362 294.109 320.955 294.205 320.597 294.398C320.239 294.591 319.949 294.86 319.729 295.204C319.508 295.549 319.398 295.962 319.398 296.444L318.633 296.072C318.633 295.328 318.792 294.68 319.109 294.129C319.44 293.578 319.887 293.151 320.452 292.848C321.017 292.531 321.651 292.372 322.354 292.372C323.043 292.372 323.663 292.524 324.214 292.827C324.779 293.13 325.22 293.557 325.537 294.109C325.868 294.66 326.033 295.314 326.033 296.072V302.397H324.173ZM330.808 302.397V296.465C330.808 295.735 330.58 295.163 330.126 294.749C329.685 294.322 329.134 294.109 328.472 294.109C328.017 294.109 327.604 294.205 327.232 294.398C326.874 294.591 326.584 294.86 326.364 295.204C326.143 295.549 326.033 295.962 326.033 296.444L324.979 296.072C325.02 295.314 325.22 294.667 325.578 294.129C325.95 293.578 326.426 293.151 327.005 292.848C327.583 292.531 328.217 292.372 328.906 292.372C329.623 292.372 330.263 292.524 330.828 292.827C331.393 293.13 331.841 293.557 332.172 294.109C332.516 294.66 332.689 295.321 332.689 296.093V302.397H330.808ZM339.767 302.604C338.789 302.604 337.907 302.383 337.122 301.942C336.336 301.488 335.716 300.874 335.261 300.103C334.807 299.331 334.579 298.456 334.579 297.478C334.579 296.513 334.8 295.645 335.241 294.873C335.695 294.102 336.302 293.495 337.06 293.054C337.831 292.6 338.692 292.372 339.643 292.372C340.553 292.372 341.352 292.579 342.041 292.992C342.744 293.406 343.288 293.978 343.674 294.708C344.073 295.438 344.273 296.265 344.273 297.188C344.273 297.326 344.266 297.478 344.253 297.643C344.239 297.795 344.211 297.974 344.17 298.18H335.881V296.63H343.178L342.496 297.23C342.496 296.568 342.379 296.01 342.144 295.555C341.91 295.087 341.579 294.729 341.152 294.481C340.725 294.219 340.208 294.088 339.602 294.088C338.968 294.088 338.41 294.226 337.928 294.501C337.445 294.777 337.073 295.163 336.812 295.659C336.55 296.155 336.419 296.74 336.419 297.416C336.419 298.105 336.557 298.711 336.832 299.235C337.108 299.744 337.501 300.144 338.01 300.433C338.52 300.709 339.106 300.847 339.767 300.847C340.318 300.847 340.821 300.75 341.276 300.557C341.745 300.364 342.144 300.075 342.475 299.689L343.674 300.909C343.205 301.46 342.627 301.88 341.938 302.17C341.262 302.459 340.539 302.604 339.767 302.604ZM350.849 302.604C349.871 302.604 348.989 302.383 348.203 301.942C347.418 301.488 346.798 300.874 346.343 300.103C345.888 299.331 345.661 298.456 345.661 297.478C345.661 296.513 345.881 295.645 346.322 294.873C346.777 294.102 347.383 293.495 348.141 293.054C348.913 292.6 349.774 292.372 350.725 292.372C351.634 292.372 352.434 292.579 353.122 292.992C353.825 293.406 354.37 293.978 354.755 294.708C355.155 295.438 355.355 296.265 355.355 297.188C355.355 297.326 355.348 297.478 355.334 297.643C355.32 297.795 355.293 297.974 355.251 298.18H346.963V296.63H354.259L353.577 297.23C353.577 296.568 353.46 296.01 353.226 295.555C352.992 295.087 352.661 294.729 352.234 294.481C351.807 294.219 351.29 294.088 350.683 294.088C350.05 294.088 349.492 294.226 349.009 294.501C348.527 294.777 348.155 295.163 347.893 295.659C347.631 296.155 347.5 296.74 347.5 297.416C347.5 298.105 347.638 298.711 347.914 299.235C348.189 299.744 348.582 300.144 349.092 300.433C349.602 300.709 350.187 300.847 350.849 300.847C351.4 300.847 351.903 300.75 352.358 300.557C352.826 300.364 353.226 300.075 353.557 299.689L354.755 300.909C354.287 301.46 353.708 301.88 353.019 302.17C352.344 302.459 351.621 302.604 350.849 302.604ZM357.383 302.397V292.579H359.243V302.397H357.383ZM359.243 296.796L358.541 296.486C358.541 295.232 358.83 294.233 359.409 293.488C359.987 292.744 360.821 292.372 361.91 292.372C362.406 292.372 362.854 292.462 363.253 292.641C363.653 292.806 364.025 293.089 364.369 293.488L363.15 294.749C362.943 294.529 362.716 294.37 362.468 294.274C362.22 294.177 361.93 294.129 361.6 294.129C360.911 294.129 360.346 294.35 359.905 294.791C359.464 295.232 359.243 295.9 359.243 296.796ZM372.733 302.604C371.906 302.604 371.176 302.445 370.542 302.128C369.922 301.798 369.412 301.357 369.012 300.805L370.377 299.545C370.638 299.93 370.962 300.227 371.348 300.433C371.748 300.64 372.189 300.743 372.671 300.743C373.153 300.743 373.58 300.64 373.952 300.433C374.324 300.227 374.614 299.924 374.821 299.524C375.041 299.111 375.151 298.608 375.151 298.015V288.052H377.094V297.912C377.094 298.863 376.901 299.689 376.515 300.392C376.143 301.095 375.627 301.639 374.965 302.025C374.318 302.411 373.573 302.604 372.733 302.604ZM384.166 302.604C383.27 302.604 382.457 302.383 381.727 301.942C380.996 301.488 380.417 300.874 379.99 300.103C379.577 299.331 379.37 298.463 379.37 297.498C379.37 296.534 379.577 295.666 379.99 294.894C380.417 294.122 380.989 293.509 381.706 293.054C382.436 292.6 383.256 292.372 384.166 292.372C384.91 292.372 385.571 292.531 386.15 292.848C386.742 293.151 387.218 293.578 387.576 294.129C387.934 294.667 388.134 295.294 388.175 296.01V298.966C388.134 299.669 387.934 300.296 387.576 300.847C387.231 301.398 386.763 301.832 386.17 302.149C385.592 302.452 384.923 302.604 384.166 302.604ZM384.476 300.847C385.399 300.847 386.143 300.537 386.708 299.917C387.273 299.283 387.555 298.477 387.555 297.498C387.555 296.823 387.424 296.237 387.163 295.741C386.915 295.232 386.556 294.839 386.088 294.563C385.619 294.274 385.075 294.129 384.455 294.129C383.835 294.129 383.284 294.274 382.801 294.563C382.333 294.853 381.961 295.252 381.685 295.762C381.423 296.258 381.292 296.83 381.292 297.478C381.292 298.139 381.423 298.725 381.685 299.235C381.961 299.731 382.34 300.123 382.822 300.413C383.304 300.702 383.855 300.847 384.476 300.847ZM387.431 302.397V299.751L387.783 297.354L387.431 294.977V292.579H389.312V302.397H387.431ZM396.175 302.604C395.266 302.604 394.453 302.383 393.736 301.942C393.02 301.488 392.448 300.874 392.021 300.103C391.607 299.331 391.4 298.463 391.4 297.498C391.4 296.534 391.607 295.666 392.021 294.894C392.448 294.122 393.02 293.509 393.736 293.054C394.453 292.6 395.266 292.372 396.175 292.372C396.905 292.372 397.567 292.531 398.159 292.848C398.752 293.151 399.227 293.578 399.586 294.129C399.958 294.667 400.164 295.294 400.206 296.01V298.966C400.164 299.669 399.964 300.296 399.606 300.847C399.248 301.398 398.773 301.832 398.18 302.149C397.587 302.452 396.919 302.604 396.175 302.604ZM396.485 300.847C397.105 300.847 397.643 300.702 398.097 300.413C398.566 300.123 398.931 299.731 399.193 299.235C399.455 298.725 399.586 298.146 399.586 297.498C399.586 296.823 399.448 296.237 399.172 295.741C398.91 295.245 398.545 294.853 398.077 294.563C397.622 294.274 397.085 294.129 396.464 294.129C395.844 294.129 395.3 294.274 394.832 294.563C394.363 294.853 393.991 295.252 393.715 295.762C393.454 296.258 393.323 296.83 393.323 297.478C393.323 298.139 393.454 298.725 393.715 299.235C393.991 299.731 394.363 300.123 394.832 300.413C395.314 300.702 395.865 300.847 396.485 300.847ZM401.342 302.397H399.462V299.751L399.813 297.354L399.462 294.977V287.639H401.342V302.397ZM410.996 302.397V296.672C410.996 295.927 410.761 295.314 410.293 294.832C409.824 294.35 409.218 294.109 408.474 294.109C407.978 294.109 407.537 294.219 407.151 294.439C406.765 294.66 406.462 294.963 406.242 295.349C406.021 295.735 405.911 296.175 405.911 296.672L405.146 296.237C405.146 295.493 405.312 294.832 405.642 294.253C405.973 293.674 406.435 293.22 407.027 292.889C407.62 292.545 408.288 292.372 409.032 292.372C409.776 292.372 410.431 292.538 410.996 292.868C411.574 293.199 412.029 293.661 412.36 294.253C412.691 294.846 412.856 295.528 412.856 296.299V302.397H410.996ZM404.051 302.397V287.639H405.911V302.397H404.051ZM419.55 302.604C418.654 302.604 417.841 302.383 417.111 301.942C416.38 301.488 415.802 300.874 415.375 300.103C414.961 299.331 414.754 298.463 414.754 297.498C414.754 296.534 414.961 295.666 415.375 294.894C415.802 294.122 416.374 293.509 417.09 293.054C417.82 292.6 418.64 292.372 419.55 292.372C420.294 292.372 420.955 292.531 421.534 292.848C422.127 293.151 422.602 293.578 422.96 294.129C423.318 294.667 423.518 295.294 423.56 296.01V298.966C423.518 299.669 423.318 300.296 422.96 300.847C422.616 301.398 422.147 301.832 421.555 302.149C420.976 302.452 420.308 302.604 419.55 302.604ZM419.86 300.847C420.783 300.847 421.527 300.537 422.092 299.917C422.657 299.283 422.94 298.477 422.94 297.498C422.94 296.823 422.809 296.237 422.547 295.741C422.299 295.232 421.941 294.839 421.472 294.563C421.004 294.274 420.459 294.129 419.839 294.129C419.219 294.129 418.668 294.274 418.186 294.563C417.717 294.853 417.345 295.252 417.069 295.762C416.808 296.258 416.677 296.83 416.677 297.478C416.677 298.139 416.808 298.725 417.069 299.235C417.345 299.731 417.724 300.123 418.206 300.413C418.689 300.702 419.24 300.847 419.86 300.847ZM422.816 302.397V299.751L423.167 297.354L422.816 294.977V292.579H424.696V302.397H422.816ZM430.774 302.397L426.268 292.579H428.335L431.952 300.867H430.753L434.391 292.579H436.375L431.869 302.397H430.774Z" fill="#3F4346"/>
<path d="M301.005 351.478C299.999 351.478 299.055 351.292 298.173 350.92C297.305 350.534 296.54 350.003 295.879 349.328C295.231 348.653 294.721 347.867 294.349 346.972C293.977 346.076 293.791 345.112 293.791 344.078C293.791 343.045 293.977 342.087 294.349 341.205C294.721 340.309 295.238 339.524 295.9 338.849C296.561 338.173 297.333 337.65 298.215 337.278C299.11 336.906 300.082 336.72 301.129 336.72C302.273 336.72 303.327 336.94 304.291 337.381C305.256 337.822 306.062 338.456 306.71 339.283L305.366 340.626C304.911 339.965 304.312 339.462 303.568 339.117C302.824 338.759 302.011 338.58 301.129 338.58C300.082 338.58 299.152 338.814 298.339 339.283C297.539 339.751 296.912 340.399 296.458 341.226C296.017 342.052 295.796 343.003 295.796 344.078C295.796 345.167 296.024 346.124 296.478 346.951C296.933 347.778 297.546 348.426 298.318 348.894C299.09 349.363 299.971 349.597 300.964 349.597C301.969 349.597 302.838 349.404 303.568 349.018C304.312 348.632 304.884 348.067 305.283 347.323C305.683 346.565 305.883 345.642 305.883 344.553L307.061 345.401H300.86V343.623H307.888V343.913C307.888 345.58 307.592 346.979 306.999 348.109C306.42 349.225 305.607 350.065 304.56 350.63C303.527 351.195 302.342 351.478 301.005 351.478ZM310.191 351.271V341.453H312.051V351.271H310.191ZM311.121 339.489C310.777 339.489 310.494 339.379 310.274 339.159C310.053 338.924 309.943 338.635 309.943 338.291C309.943 337.96 310.053 337.684 310.274 337.464C310.494 337.23 310.777 337.112 311.121 337.112C311.466 337.112 311.748 337.23 311.969 337.464C312.189 337.684 312.299 337.96 312.299 338.291C312.299 338.635 312.189 338.924 311.969 339.159C311.748 339.379 311.466 339.489 311.121 339.489ZM314.793 351.271V341.453H316.653V351.271H314.793ZM316.653 345.67L315.95 345.36C315.95 344.106 316.24 343.107 316.818 342.362C317.397 341.618 318.231 341.246 319.319 341.246C319.816 341.246 320.263 341.336 320.663 341.515C321.063 341.68 321.435 341.963 321.779 342.362L320.56 343.623C320.353 343.403 320.126 343.244 319.878 343.148C319.629 343.051 319.34 343.003 319.009 343.003C318.32 343.003 317.755 343.224 317.315 343.665C316.874 344.106 316.653 344.774 316.653 345.67ZM323.11 351.271V341.453H324.97V351.271H323.11ZM324.04 339.489C323.695 339.489 323.413 339.379 323.192 339.159C322.972 338.924 322.862 338.635 322.862 338.291C322.862 337.96 322.972 337.684 323.192 337.464C323.413 337.23 323.695 337.112 324.04 337.112C324.384 337.112 324.667 337.23 324.887 337.464C325.108 337.684 325.218 337.96 325.218 338.291C325.218 338.635 325.108 338.924 324.887 339.159C324.667 339.379 324.384 339.489 324.04 339.489ZM330.832 351.478C330.281 351.478 329.758 351.409 329.261 351.271C328.779 351.119 328.331 350.913 327.918 350.651C327.505 350.375 327.146 350.052 326.843 349.679L328.042 348.481C328.4 348.922 328.814 349.252 329.282 349.473C329.751 349.679 330.274 349.783 330.853 349.783C331.432 349.783 331.88 349.686 332.196 349.493C332.513 349.287 332.672 349.004 332.672 348.646C332.672 348.288 332.541 348.012 332.279 347.819C332.031 347.613 331.707 347.447 331.308 347.323C330.908 347.185 330.481 347.054 330.026 346.93C329.585 346.793 329.165 346.62 328.765 346.414C328.366 346.207 328.035 345.925 327.773 345.566C327.525 345.208 327.401 344.733 327.401 344.14C327.401 343.548 327.546 343.038 327.835 342.611C328.125 342.17 328.524 341.832 329.034 341.598C329.558 341.363 330.185 341.246 330.915 341.246C331.687 341.246 332.369 341.384 332.961 341.66C333.568 341.922 334.064 342.321 334.449 342.859L333.251 344.057C332.975 343.699 332.631 343.424 332.217 343.231C331.818 343.038 331.363 342.941 330.853 342.941C330.316 342.941 329.902 343.038 329.613 343.231C329.337 343.41 329.199 343.665 329.199 343.995C329.199 344.326 329.323 344.581 329.571 344.76C329.82 344.939 330.143 345.091 330.543 345.215C330.956 345.339 331.383 345.47 331.824 345.608C332.265 345.732 332.686 345.904 333.085 346.124C333.485 346.345 333.809 346.641 334.057 347.013C334.319 347.385 334.449 347.874 334.449 348.481C334.449 349.404 334.119 350.134 333.457 350.672C332.81 351.209 331.935 351.478 330.832 351.478ZM343.477 351.271V345.546C343.477 344.801 343.243 344.188 342.774 343.706C342.306 343.224 341.699 342.983 340.955 342.983C340.459 342.983 340.018 343.093 339.632 343.313C339.247 343.534 338.943 343.837 338.723 344.223C338.503 344.609 338.392 345.05 338.392 345.546L337.628 345.112C337.628 344.367 337.793 343.706 338.124 343.127C338.454 342.549 338.916 342.094 339.508 341.763C340.101 341.419 340.769 341.246 341.513 341.246C342.257 341.246 342.912 341.412 343.477 341.742C344.056 342.073 344.51 342.535 344.841 343.127C345.172 343.72 345.337 344.402 345.337 345.174V351.271H343.477ZM336.532 351.271V336.513H338.392V351.271H336.532ZM356.475 351.478C355.345 351.478 354.381 351.271 353.581 350.858C352.782 350.444 352.073 349.845 351.452 349.059L352.775 347.737C353.23 348.37 353.754 348.853 354.346 349.183C354.939 349.5 355.669 349.659 356.537 349.659C357.391 349.659 358.074 349.473 358.583 349.101C359.107 348.729 359.369 348.219 359.369 347.571C359.369 347.034 359.245 346.6 358.997 346.269C358.749 345.938 358.411 345.67 357.984 345.463C357.571 345.242 357.116 345.05 356.62 344.884C356.124 344.705 355.628 344.519 355.132 344.326C354.636 344.119 354.181 343.871 353.767 343.582C353.354 343.279 353.016 342.886 352.755 342.404C352.507 341.922 352.383 341.315 352.383 340.585C352.383 339.772 352.576 339.083 352.961 338.518C353.361 337.939 353.898 337.498 354.574 337.195C355.263 336.878 356.034 336.72 356.889 336.72C357.826 336.72 358.666 336.906 359.41 337.278C360.154 337.636 360.761 338.111 361.229 338.704L359.906 340.027C359.479 339.531 359.017 339.159 358.521 338.911C358.039 338.663 357.481 338.539 356.847 338.539C356.076 338.539 355.462 338.711 355.008 339.055C354.553 339.386 354.326 339.855 354.326 340.461C354.326 340.943 354.45 341.336 354.698 341.639C354.959 341.928 355.297 342.176 355.71 342.383C356.124 342.59 356.578 342.783 357.075 342.962C357.584 343.127 358.087 343.313 358.583 343.52C359.079 343.727 359.534 343.988 359.948 344.305C360.361 344.622 360.692 345.036 360.94 345.546C361.202 346.042 361.332 346.669 361.332 347.426C361.332 348.694 360.891 349.686 360.01 350.403C359.141 351.119 357.963 351.478 356.475 351.478ZM370.565 351.271V345.546C370.565 344.801 370.331 344.188 369.862 343.706C369.394 343.224 368.788 342.983 368.044 342.983C367.547 342.983 367.107 343.093 366.721 343.313C366.335 343.534 366.032 343.837 365.811 344.223C365.591 344.609 365.481 345.05 365.481 345.546L364.716 345.112C364.716 344.367 364.881 343.706 365.212 343.127C365.543 342.549 366.004 342.094 366.597 341.763C367.189 341.419 367.858 341.246 368.602 341.246C369.346 341.246 370 341.412 370.565 341.742C371.144 342.073 371.599 342.535 371.929 343.127C372.26 343.72 372.425 344.402 372.425 345.174V351.271H370.565ZM363.62 351.271V336.513H365.481V351.271H363.62ZM379.119 351.478C378.224 351.478 377.411 351.257 376.68 350.816C375.95 350.362 375.371 349.748 374.944 348.977C374.531 348.205 374.324 347.337 374.324 346.372C374.324 345.408 374.531 344.54 374.944 343.768C375.371 342.996 375.943 342.383 376.66 341.928C377.39 341.474 378.21 341.246 379.119 341.246C379.863 341.246 380.525 341.405 381.104 341.722C381.696 342.025 382.171 342.452 382.53 343.003C382.888 343.541 383.088 344.168 383.129 344.884V347.84C383.088 348.543 382.888 349.17 382.53 349.721C382.185 350.272 381.717 350.706 381.124 351.023C380.545 351.326 379.877 351.478 379.119 351.478ZM379.429 349.721C380.353 349.721 381.097 349.411 381.662 348.791C382.227 348.157 382.509 347.351 382.509 346.372C382.509 345.697 382.378 345.112 382.116 344.615C381.868 344.106 381.51 343.713 381.042 343.437C380.573 343.148 380.029 343.003 379.409 343.003C378.789 343.003 378.237 343.148 377.755 343.437C377.287 343.727 376.915 344.126 376.639 344.636C376.377 345.132 376.246 345.704 376.246 346.352C376.246 347.013 376.377 347.599 376.639 348.109C376.915 348.605 377.293 348.997 377.776 349.287C378.258 349.576 378.809 349.721 379.429 349.721ZM382.385 351.271V348.625L382.736 346.228L382.385 343.851V341.453H384.266V351.271H382.385ZM386.974 351.271V341.453H388.835V351.271H386.974ZM388.835 345.67L388.132 345.36C388.132 344.106 388.421 343.107 389 342.362C389.579 341.618 390.412 341.246 391.501 341.246C391.997 341.246 392.445 341.336 392.844 341.515C393.244 341.68 393.616 341.963 393.961 342.362L392.741 343.623C392.534 343.403 392.307 343.244 392.059 343.148C391.811 343.051 391.522 343.003 391.191 343.003C390.502 343.003 389.937 343.224 389.496 343.665C389.055 344.106 388.835 344.774 388.835 345.67ZM395.311 351.271V341.453H397.171V351.271H395.311ZM401.946 351.271V345.339C401.946 344.609 401.718 344.037 401.263 343.623C400.823 343.196 400.264 342.983 399.589 342.983C399.135 342.983 398.728 343.079 398.37 343.272C398.011 343.465 397.722 343.734 397.502 344.078C397.281 344.423 397.171 344.836 397.171 345.318L396.406 344.946C396.406 344.202 396.565 343.554 396.882 343.003C397.212 342.452 397.66 342.025 398.225 341.722C398.79 341.405 399.424 341.246 400.127 341.246C400.816 341.246 401.436 341.398 401.987 341.701C402.552 342.004 402.993 342.431 403.31 342.983C403.64 343.534 403.806 344.188 403.806 344.946V351.271H401.946ZM408.58 351.271V345.339C408.58 344.609 408.353 344.037 407.898 343.623C407.457 343.196 406.906 342.983 406.245 342.983C405.79 342.983 405.377 343.079 405.005 343.272C404.646 343.465 404.357 343.734 404.137 344.078C403.916 344.423 403.806 344.836 403.806 345.318L402.752 344.946C402.793 344.188 402.993 343.541 403.351 343.003C403.723 342.452 404.199 342.025 404.777 341.722C405.356 341.405 405.99 341.246 406.679 341.246C407.395 341.246 408.036 341.398 408.601 341.701C409.166 342.004 409.614 342.431 409.945 342.983C410.289 343.534 410.461 344.195 410.461 344.967V351.271H408.58ZM417.168 351.478C416.272 351.478 415.459 351.257 414.729 350.816C413.999 350.362 413.42 349.748 412.993 348.977C412.579 348.205 412.373 347.337 412.373 346.372C412.373 345.408 412.579 344.54 412.993 343.768C413.42 342.996 413.992 342.383 414.708 341.928C415.439 341.474 416.258 341.246 417.168 341.246C417.912 341.246 418.573 341.405 419.152 341.722C419.745 342.025 420.22 342.452 420.578 343.003C420.937 343.541 421.136 344.168 421.178 344.884V347.84C421.136 348.543 420.937 349.17 420.578 349.721C420.234 350.272 419.765 350.706 419.173 351.023C418.594 351.326 417.926 351.478 417.168 351.478ZM417.478 349.721C418.401 349.721 419.145 349.411 419.71 348.791C420.275 348.157 420.558 347.351 420.558 346.372C420.558 345.697 420.427 345.112 420.165 344.615C419.917 344.106 419.559 343.713 419.09 343.437C418.622 343.148 418.077 343.003 417.457 343.003C416.837 343.003 416.286 343.148 415.804 343.437C415.335 343.727 414.963 344.126 414.688 344.636C414.426 345.132 414.295 345.704 414.295 346.352C414.295 347.013 414.426 347.599 414.688 348.109C414.963 348.605 415.342 348.997 415.824 349.287C416.307 349.576 416.858 349.721 417.478 349.721ZM420.434 351.271V348.625L420.785 346.228L420.434 343.851V341.453H422.315V351.271H420.434Z" fill="#3F4346"/>
<path d="M295.817 394.564V392.869H299.723C300.261 392.869 300.736 392.759 301.15 392.539C301.577 392.318 301.907 392.008 302.142 391.609C302.39 391.209 302.514 390.734 302.514 390.182C302.514 389.631 302.39 389.156 302.142 388.756C301.907 388.357 301.577 388.047 301.15 387.826C300.736 387.606 300.261 387.495 299.723 387.495H295.817V385.8H299.847C300.729 385.8 301.515 385.98 302.204 386.338C302.906 386.696 303.458 387.206 303.857 387.867C304.271 388.515 304.477 389.287 304.477 390.182C304.477 391.064 304.271 391.836 303.857 392.497C303.458 393.145 302.906 393.655 302.204 394.027C301.515 394.385 300.729 394.564 299.847 394.564H295.817ZM294.515 400.145V385.8H296.458V400.145H294.515ZM306.74 400.145V390.327H308.6V400.145H306.74ZM307.67 388.363C307.325 388.363 307.043 388.253 306.822 388.033C306.602 387.798 306.492 387.509 306.492 387.165C306.492 386.834 306.602 386.558 306.822 386.338C307.043 386.104 307.325 385.986 307.67 385.986C308.014 385.986 308.297 386.104 308.517 386.338C308.738 386.558 308.848 386.834 308.848 387.165C308.848 387.509 308.738 387.798 308.517 388.033C308.297 388.253 308.014 388.363 307.67 388.363ZM314.566 400.228L310.308 390.327H312.375L315.537 398.078H314.876L318.203 390.327H320.27L315.682 400.228H314.566ZM311.755 404.258L314.648 398.326L315.682 400.228L313.822 404.258H311.755ZM325.906 400.352C325.107 400.352 324.384 400.173 323.736 399.814C323.102 399.442 322.606 398.932 322.248 398.285C321.89 397.637 321.71 396.886 321.71 396.032V390.327H323.571V395.949C323.571 396.487 323.66 396.955 323.839 397.355C324.032 397.74 324.308 398.037 324.666 398.243C325.024 398.45 325.445 398.553 325.927 398.553C326.657 398.553 327.229 398.326 327.643 397.871C328.056 397.403 328.263 396.762 328.263 395.949V390.327H330.123V396.032C330.123 396.886 329.944 397.637 329.586 398.285C329.227 398.932 328.731 399.442 328.097 399.814C327.477 400.173 326.747 400.352 325.906 400.352ZM335.737 400.352C335.186 400.352 334.662 400.283 334.166 400.145C333.684 399.993 333.236 399.787 332.823 399.525C332.409 399.249 332.051 398.926 331.748 398.553L332.947 397.355C333.305 397.796 333.719 398.126 334.187 398.347C334.656 398.553 335.179 398.657 335.758 398.657C336.337 398.657 336.785 398.56 337.101 398.367C337.418 398.161 337.577 397.878 337.577 397.52C337.577 397.162 337.446 396.886 337.184 396.693C336.936 396.487 336.612 396.321 336.213 396.197C335.813 396.059 335.386 395.928 334.931 395.804C334.49 395.667 334.07 395.494 333.67 395.288C333.271 395.081 332.94 394.799 332.678 394.44C332.43 394.082 332.306 393.607 332.306 393.014C332.306 392.422 332.451 391.912 332.74 391.485C333.03 391.044 333.429 390.706 333.939 390.472C334.463 390.237 335.09 390.12 335.82 390.12C336.592 390.12 337.274 390.258 337.866 390.534C338.473 390.796 338.969 391.195 339.354 391.733L338.156 392.931C337.88 392.573 337.535 392.298 337.122 392.105C336.723 391.912 336.268 391.815 335.758 391.815C335.221 391.815 334.807 391.912 334.518 392.105C334.242 392.284 334.104 392.539 334.104 392.869C334.104 393.2 334.228 393.455 334.476 393.634C334.724 393.813 335.048 393.965 335.448 394.089C335.861 394.213 336.288 394.344 336.729 394.482C337.17 394.606 337.591 394.778 337.99 394.998C338.39 395.219 338.714 395.515 338.962 395.887C339.223 396.259 339.354 396.748 339.354 397.355C339.354 398.278 339.024 399.008 338.362 399.546C337.715 400.083 336.84 400.352 335.737 400.352ZM348.382 400.145V394.42C348.382 393.675 348.148 393.062 347.679 392.58C347.211 392.098 346.604 391.857 345.86 391.857C345.364 391.857 344.923 391.967 344.537 392.187C344.152 392.408 343.848 392.711 343.628 393.097C343.407 393.483 343.297 393.924 343.297 394.42L342.532 393.986C342.532 393.241 342.698 392.58 343.029 392.001C343.359 391.423 343.821 390.968 344.413 390.637C345.006 390.293 345.674 390.12 346.418 390.12C347.162 390.12 347.817 390.286 348.382 390.616C348.961 390.947 349.415 391.409 349.746 392.001C350.077 392.594 350.242 393.276 350.242 394.048V400.145H348.382ZM341.437 400.145V385.387H343.297V400.145H341.437ZM361.38 400.352C360.25 400.352 359.286 400.145 358.486 399.732C357.687 399.318 356.977 398.719 356.357 397.933L357.68 396.611C358.135 397.244 358.659 397.727 359.251 398.057C359.844 398.374 360.574 398.533 361.442 398.533C362.296 398.533 362.979 398.347 363.488 397.975C364.012 397.603 364.274 397.093 364.274 396.445C364.274 395.908 364.15 395.474 363.902 395.143C363.654 394.812 363.316 394.544 362.889 394.337C362.476 394.116 362.021 393.924 361.525 393.758C361.029 393.579 360.533 393.393 360.037 393.2C359.541 392.993 359.086 392.745 358.672 392.456C358.259 392.153 357.921 391.76 357.66 391.278C357.412 390.796 357.288 390.189 357.288 389.459C357.288 388.646 357.48 387.957 357.866 387.392C358.266 386.813 358.803 386.372 359.478 386.069C360.167 385.752 360.939 385.594 361.793 385.594C362.73 385.594 363.571 385.78 364.315 386.152C365.059 386.51 365.666 386.985 366.134 387.578L364.811 388.901C364.384 388.405 363.922 388.033 363.426 387.785C362.944 387.537 362.386 387.413 361.752 387.413C360.98 387.413 360.367 387.585 359.913 387.929C359.458 388.26 359.23 388.729 359.23 389.335C359.23 389.817 359.354 390.21 359.603 390.513C359.864 390.802 360.202 391.05 360.615 391.257C361.029 391.464 361.483 391.657 361.979 391.836C362.489 392.001 362.992 392.187 363.488 392.394C363.984 392.601 364.439 392.862 364.853 393.179C365.266 393.496 365.597 393.91 365.845 394.42C366.106 394.916 366.237 395.543 366.237 396.301C366.237 397.568 365.796 398.56 364.915 399.277C364.046 399.993 362.868 400.352 361.38 400.352ZM372.559 400.352C371.663 400.352 370.85 400.131 370.12 399.69C369.39 399.236 368.811 398.622 368.384 397.851C367.971 397.079 367.764 396.211 367.764 395.246C367.764 394.282 367.971 393.414 368.384 392.642C368.811 391.87 369.383 391.257 370.1 390.802C370.83 390.348 371.65 390.12 372.559 390.12C373.303 390.12 373.965 390.279 374.543 390.596C375.136 390.899 375.611 391.326 375.97 391.877C376.328 392.415 376.528 393.042 376.569 393.758V396.714C376.528 397.417 376.328 398.044 375.97 398.595C375.625 399.146 375.157 399.58 374.564 399.897C373.985 400.2 373.317 400.352 372.559 400.352ZM372.869 398.595C373.792 398.595 374.537 398.285 375.101 397.665C375.666 397.031 375.949 396.225 375.949 395.246C375.949 394.571 375.818 393.986 375.556 393.489C375.308 392.98 374.95 392.587 374.481 392.311C374.013 392.022 373.469 391.877 372.849 391.877C372.228 391.877 371.677 392.022 371.195 392.311C370.726 392.601 370.354 393 370.079 393.51C369.817 394.006 369.686 394.578 369.686 395.226C369.686 395.887 369.817 396.473 370.079 396.983C370.354 397.479 370.733 397.871 371.216 398.161C371.698 398.45 372.249 398.595 372.869 398.595ZM375.825 400.145V397.499L376.176 395.102L375.825 392.725V390.327H377.706V400.145H375.825ZM383.185 400.145L379.299 390.327H381.242L384.053 397.975H383.433L386.223 390.327H387.298L390.088 397.975H389.468L392.279 390.327H394.222L390.357 400.145H389.262L386.43 392.725H387.112L384.26 400.145H383.185ZM399.768 400.352C398.873 400.352 398.06 400.131 397.33 399.69C396.599 399.236 396.02 398.622 395.593 397.851C395.18 397.079 394.973 396.211 394.973 395.246C394.973 394.282 395.18 393.414 395.593 392.642C396.02 391.87 396.592 391.257 397.309 390.802C398.039 390.348 398.859 390.12 399.768 390.12C400.513 390.12 401.174 390.279 401.753 390.596C402.345 390.899 402.821 391.326 403.179 391.877C403.537 392.415 403.737 393.042 403.778 393.758V396.714C403.737 397.417 403.537 398.044 403.179 398.595C402.834 399.146 402.366 399.58 401.773 399.897C401.195 400.2 400.526 400.352 399.768 400.352ZM400.079 398.595C401.002 398.595 401.746 398.285 402.311 397.665C402.876 397.031 403.158 396.225 403.158 395.246C403.158 394.571 403.027 393.986 402.766 393.489C402.518 392.98 402.159 392.587 401.691 392.311C401.222 392.022 400.678 391.877 400.058 391.877C399.438 391.877 398.887 392.022 398.404 392.311C397.936 392.601 397.564 393 397.288 393.51C397.026 394.006 396.895 394.578 396.895 395.226C396.895 395.887 397.026 396.473 397.288 396.983C397.564 397.479 397.943 397.871 398.425 398.161C398.907 398.45 399.458 398.595 400.079 398.595ZM403.034 400.145V397.499L403.386 395.102L403.034 392.725V390.327H404.915V400.145H403.034ZM410.848 400.228L406.59 390.327H408.657L411.819 398.078H411.158L414.486 390.327H416.553L411.964 400.228H410.848ZM408.037 404.258L410.931 398.326L411.964 400.228L410.104 404.258H408.037ZM422.243 400.352C421.265 400.352 420.383 400.131 419.597 399.69C418.812 399.236 418.192 398.622 417.737 397.851C417.282 397.079 417.055 396.204 417.055 395.226C417.055 394.261 417.276 393.393 417.716 392.621C418.171 391.85 418.778 391.243 419.535 390.802C420.307 390.348 421.168 390.12 422.119 390.12C423.029 390.12 423.828 390.327 424.517 390.74C425.219 391.154 425.764 391.726 426.15 392.456C426.549 393.186 426.749 394.013 426.749 394.936C426.749 395.074 426.742 395.226 426.728 395.391C426.715 395.543 426.687 395.722 426.646 395.928H418.357V394.378H425.654L424.971 394.978C424.971 394.316 424.854 393.758 424.62 393.303C424.386 392.835 424.055 392.477 423.628 392.229C423.201 391.967 422.684 391.836 422.078 391.836C421.444 391.836 420.886 391.974 420.404 392.249C419.921 392.525 419.549 392.911 419.287 393.407C419.026 393.903 418.895 394.488 418.895 395.164C418.895 395.853 419.032 396.459 419.308 396.983C419.584 397.492 419.976 397.892 420.486 398.181C420.996 398.457 421.582 398.595 422.243 398.595C422.794 398.595 423.297 398.498 423.752 398.305C424.22 398.113 424.62 397.823 424.951 397.437L426.15 398.657C425.681 399.208 425.102 399.628 424.413 399.918C423.738 400.207 423.015 400.352 422.243 400.352Z" fill="#3F4346"/>
<rect x="284.552" y="419.752" width="267.403" height="37.5355" rx="6.20082" fill="#1A237E"/>
<path d="M388.216 439.381H383.048V444.549H381.326V439.381H376.159V437.659H381.326V432.492H383.048V437.659H388.216V439.381Z" fill="white"/>
<path d="M397.168 445.02L401.864 433.544H402.988L407.668 445.02H405.981L402.129 435.313H402.707L398.821 445.02H397.168ZM399.4 442.423V441.068H405.436V442.423H399.4ZM412.083 445.185C411.356 445.185 410.705 445.009 410.132 444.656C409.559 444.292 409.101 443.801 408.76 443.184C408.429 442.567 408.263 441.872 408.263 441.101C408.263 440.329 408.429 439.634 408.76 439.017C409.101 438.4 409.559 437.909 410.132 437.545C410.705 437.182 411.356 437 412.083 437C412.667 437 413.197 437.127 413.671 437.38C414.145 437.623 414.525 437.964 414.812 438.405C415.109 438.835 415.275 439.337 415.308 439.91V442.275C415.275 442.837 415.115 443.338 414.828 443.779C414.541 444.22 414.161 444.568 413.687 444.821C413.213 445.064 412.678 445.185 412.083 445.185ZM412.331 443.779C412.827 443.779 413.257 443.664 413.621 443.432C413.996 443.201 414.288 442.886 414.497 442.49C414.707 442.082 414.812 441.619 414.812 441.101C414.812 440.56 414.701 440.092 414.481 439.695C414.271 439.298 413.979 438.984 413.604 438.753C413.241 438.521 412.811 438.405 412.315 438.405C411.819 438.405 411.383 438.521 411.008 438.753C410.634 438.984 410.336 439.304 410.115 439.712C409.906 440.108 409.801 440.566 409.801 441.084C409.801 441.613 409.906 442.082 410.115 442.49C410.336 442.886 410.634 443.201 411.008 443.432C411.394 443.664 411.835 443.779 412.331 443.779ZM416.217 445.02H414.712V442.903L414.993 440.985L414.712 439.083V433.213H416.217V445.02ZM421.707 445.185C420.98 445.185 420.329 445.009 419.756 444.656C419.183 444.292 418.725 443.801 418.384 443.184C418.053 442.567 417.888 441.872 417.888 441.101C417.888 440.329 418.053 439.634 418.384 439.017C418.725 438.4 419.183 437.909 419.756 437.545C420.329 437.182 420.98 437 421.707 437C422.292 437 422.821 437.127 423.295 437.38C423.769 437.623 424.149 437.964 424.436 438.405C424.733 438.835 424.899 439.337 424.932 439.91V442.275C424.899 442.837 424.739 443.338 424.452 443.779C424.166 444.22 423.785 444.568 423.311 444.821C422.837 445.064 422.303 445.185 421.707 445.185ZM421.955 443.779C422.451 443.779 422.881 443.664 423.245 443.432C423.62 443.201 423.912 442.886 424.122 442.49C424.331 442.082 424.436 441.619 424.436 441.101C424.436 440.56 424.325 440.092 424.105 439.695C423.896 439.298 423.603 438.984 423.229 438.753C422.865 438.521 422.435 438.405 421.939 438.405C421.443 438.405 421.007 438.521 420.633 438.753C420.258 438.984 419.96 439.304 419.74 439.712C419.53 440.108 419.425 440.566 419.425 441.084C419.425 441.613 419.53 442.082 419.74 442.49C419.96 442.886 420.258 443.201 420.633 443.432C421.018 443.664 421.459 443.779 421.955 443.779ZM425.841 445.02H424.337V442.903L424.618 440.985L424.337 439.083V433.213H425.841V445.02ZM436.011 445.185C435.162 445.185 434.402 444.997 433.729 444.623C433.068 444.237 432.544 443.713 432.158 443.052C431.773 442.379 431.58 441.619 431.58 440.77V433.544H433.134V440.737C433.134 441.343 433.261 441.867 433.514 442.308C433.768 442.749 434.11 443.09 434.54 443.333C434.981 443.575 435.471 443.697 436.011 443.697C436.573 443.697 437.064 443.575 437.483 443.333C437.913 443.09 438.249 442.749 438.492 442.308C438.745 441.867 438.872 441.349 438.872 440.753V433.544H440.443V440.786C440.443 441.635 440.25 442.39 439.864 443.052C439.478 443.713 438.955 444.237 438.293 444.623C437.632 444.997 436.871 445.185 436.011 445.185ZM445.232 445.185C444.791 445.185 444.372 445.13 443.975 445.02C443.589 444.898 443.231 444.733 442.9 444.523C442.57 444.303 442.283 444.044 442.04 443.746L442.999 442.787C443.286 443.14 443.617 443.405 443.992 443.581C444.366 443.746 444.785 443.829 445.248 443.829C445.711 443.829 446.07 443.752 446.323 443.597C446.577 443.432 446.703 443.206 446.703 442.92C446.703 442.633 446.599 442.412 446.389 442.258C446.191 442.093 445.932 441.96 445.612 441.861C445.292 441.751 444.951 441.646 444.587 441.547C444.234 441.437 443.898 441.299 443.578 441.134C443.258 440.968 442.994 440.742 442.784 440.456C442.586 440.169 442.487 439.789 442.487 439.315C442.487 438.841 442.603 438.433 442.834 438.091C443.066 437.738 443.385 437.468 443.793 437.281C444.212 437.094 444.714 437 445.298 437C445.915 437 446.461 437.11 446.935 437.331C447.42 437.54 447.817 437.86 448.125 438.29L447.166 439.249C446.946 438.962 446.67 438.742 446.34 438.587C446.02 438.433 445.656 438.356 445.248 438.356C444.818 438.356 444.488 438.433 444.256 438.587C444.036 438.731 443.925 438.934 443.925 439.199C443.925 439.464 444.025 439.668 444.223 439.811C444.421 439.954 444.681 440.075 445 440.175C445.331 440.274 445.673 440.379 446.025 440.489C446.378 440.588 446.714 440.726 447.034 440.902C447.354 441.079 447.613 441.316 447.811 441.613C448.021 441.911 448.125 442.302 448.125 442.787C448.125 443.526 447.861 444.11 447.332 444.54C446.814 444.97 446.114 445.185 445.232 445.185ZM453.429 445.185C452.647 445.185 451.941 445.009 451.313 444.656C450.684 444.292 450.188 443.801 449.825 443.184C449.461 442.567 449.279 441.867 449.279 441.084C449.279 440.312 449.455 439.618 449.808 439.001C450.172 438.383 450.657 437.898 451.263 437.545C451.881 437.182 452.57 437 453.33 437C454.058 437 454.697 437.165 455.248 437.496C455.81 437.827 456.246 438.284 456.555 438.868C456.874 439.453 457.034 440.114 457.034 440.853C457.034 440.963 457.029 441.084 457.018 441.216C457.007 441.338 456.984 441.481 456.951 441.646H450.321V440.406H456.158L455.612 440.886C455.612 440.357 455.518 439.91 455.331 439.546C455.144 439.171 454.879 438.885 454.537 438.686C454.195 438.477 453.782 438.372 453.297 438.372C452.79 438.372 452.344 438.482 451.958 438.703C451.572 438.923 451.274 439.232 451.065 439.629C450.855 440.026 450.751 440.494 450.751 441.034C450.751 441.586 450.861 442.071 451.081 442.49C451.302 442.897 451.616 443.217 452.024 443.449C452.432 443.669 452.9 443.779 453.429 443.779C453.87 443.779 454.273 443.702 454.636 443.548C455.011 443.394 455.331 443.162 455.596 442.853L456.555 443.829C456.18 444.27 455.717 444.606 455.166 444.838C454.625 445.069 454.047 445.185 453.429 445.185ZM458.657 445.02V437.165H460.145V445.02H458.657ZM460.145 440.538L459.583 440.29C459.583 439.287 459.814 438.488 460.277 437.893C460.74 437.297 461.407 437 462.278 437C462.675 437 463.033 437.071 463.353 437.215C463.673 437.347 463.97 437.573 464.246 437.893L463.27 438.901C463.105 438.725 462.923 438.598 462.725 438.521C462.526 438.444 462.295 438.405 462.03 438.405C461.479 438.405 461.027 438.582 460.674 438.934C460.321 439.287 460.145 439.822 460.145 440.538Z" fill="white"/>
<rect x="145.236" y="121.106" width="167.749" height="51.6391" rx="10.3347" fill="white"/>
<path d="M186.575 145.893C188.29 145.893 189.665 144.508 189.665 142.792C189.665 141.077 188.29 139.692 186.575 139.692C184.859 139.692 183.474 141.077 183.474 142.792C183.474 144.508 184.859 145.893 186.575 145.893ZM178.307 145.893C180.023 145.893 181.397 144.508 181.397 142.792C181.397 141.077 180.023 139.692 178.307 139.692C176.591 139.692 175.207 141.077 175.207 142.792C175.207 144.508 176.591 145.893 178.307 145.893ZM178.307 147.96C175.899 147.96 171.073 149.169 171.073 151.577V153.127C171.073 153.695 171.538 154.16 172.106 154.16H184.508C185.076 154.16 185.541 153.695 185.541 153.127V151.577C185.541 149.169 180.715 147.96 178.307 147.96ZM186.575 147.96C186.275 147.96 185.934 147.98 185.572 148.011C185.593 148.022 185.603 148.042 185.614 148.053C186.792 148.91 187.608 150.058 187.608 151.577V153.127C187.608 153.489 187.536 153.84 187.422 154.16H192.776C193.344 154.16 193.809 153.695 193.809 153.127V151.577C193.809 149.169 188.983 147.96 186.575 147.96Z" fill="#5D6164"/>
<path d="M210.262 155.132C209.173 155.132 208.195 154.884 207.327 154.388C206.459 153.892 205.77 153.217 205.26 152.363C204.764 151.495 204.516 150.516 204.516 149.428V140.457H206.893V149.407C206.893 150.11 207.038 150.723 207.327 151.247C207.63 151.756 208.037 152.156 208.546 152.445C209.056 152.721 209.628 152.859 210.262 152.859C210.91 152.859 211.481 152.721 211.978 152.445C212.474 152.156 212.866 151.756 213.156 151.247C213.445 150.723 213.59 150.117 213.59 149.428V140.457H215.967V149.448C215.967 150.537 215.719 151.508 215.223 152.363C214.727 153.217 214.051 153.892 213.197 154.388C212.343 154.884 211.364 155.132 210.262 155.132ZM221.887 155.132C221.336 155.132 220.805 155.064 220.296 154.926C219.786 154.774 219.317 154.568 218.89 154.306C218.463 154.03 218.091 153.699 217.774 153.314L219.221 151.867C219.565 152.266 219.958 152.569 220.399 152.776C220.854 152.969 221.363 153.066 221.928 153.066C222.438 153.066 222.824 152.99 223.086 152.838C223.348 152.687 223.479 152.466 223.479 152.177C223.479 151.874 223.355 151.639 223.107 151.474C222.859 151.309 222.535 151.171 222.135 151.061C221.749 150.937 221.336 150.813 220.895 150.689C220.468 150.565 220.054 150.399 219.655 150.192C219.269 149.972 218.952 149.676 218.704 149.304C218.456 148.932 218.332 148.449 218.332 147.857C218.332 147.223 218.477 146.679 218.766 146.224C219.069 145.769 219.489 145.418 220.027 145.17C220.578 144.922 221.233 144.798 221.99 144.798C222.79 144.798 223.492 144.942 224.099 145.232C224.719 145.507 225.235 145.928 225.649 146.493L224.202 147.94C223.913 147.581 223.582 147.313 223.21 147.133C222.838 146.954 222.411 146.865 221.928 146.865C221.474 146.865 221.122 146.934 220.874 147.071C220.626 147.209 220.502 147.409 220.502 147.671C220.502 147.946 220.626 148.16 220.874 148.312C221.122 148.463 221.439 148.594 221.825 148.704C222.225 148.815 222.638 148.939 223.065 149.076C223.506 149.2 223.92 149.379 224.305 149.614C224.705 149.834 225.029 150.137 225.277 150.523C225.525 150.895 225.649 151.384 225.649 151.991C225.649 152.955 225.311 153.72 224.636 154.285C223.961 154.85 223.045 155.132 221.887 155.132ZM232.133 155.132C231.14 155.132 230.245 154.912 229.446 154.471C228.66 154.016 228.033 153.396 227.565 152.611C227.11 151.825 226.883 150.943 226.883 149.965C226.883 148.987 227.11 148.112 227.565 147.34C228.019 146.555 228.633 145.935 229.404 145.48C230.19 145.025 231.058 144.798 232.009 144.798C232.932 144.798 233.745 145.011 234.448 145.439C235.164 145.866 235.722 146.451 236.122 147.195C236.535 147.94 236.742 148.787 236.742 149.738C236.742 149.903 236.728 150.075 236.701 150.254C236.687 150.42 236.659 150.606 236.618 150.813H228.474V148.952H235.44L234.592 149.696C234.565 149.09 234.448 148.58 234.241 148.167C234.034 147.753 233.738 147.437 233.352 147.216C232.98 146.996 232.518 146.885 231.967 146.885C231.389 146.885 230.886 147.009 230.458 147.257C230.031 147.505 229.701 147.857 229.466 148.312C229.232 148.753 229.115 149.283 229.115 149.903C229.115 150.523 229.239 151.067 229.487 151.536C229.735 152.005 230.086 152.37 230.541 152.631C230.996 152.88 231.519 153.004 232.112 153.004C232.622 153.004 233.09 152.914 233.517 152.735C233.958 152.556 234.33 152.294 234.634 151.949L236.08 153.417C235.598 153.982 235.013 154.409 234.324 154.698C233.635 154.988 232.904 155.132 232.133 155.132ZM238.565 154.926V145.004H240.838V154.926H238.565ZM240.838 149.407L240.053 149.014C240.053 147.76 240.328 146.748 240.879 145.976C241.444 145.19 242.292 144.798 243.422 144.798C243.918 144.798 244.366 144.887 244.765 145.066C245.165 145.246 245.537 145.535 245.881 145.935L244.393 147.464C244.214 147.271 244.014 147.133 243.794 147.051C243.573 146.968 243.318 146.927 243.029 146.927C242.395 146.927 241.872 147.127 241.458 147.526C241.045 147.926 240.838 148.553 240.838 149.407ZM250.005 155.132C249.454 155.132 248.923 155.064 248.413 154.926C247.903 154.774 247.435 154.568 247.008 154.306C246.58 154.03 246.208 153.699 245.891 153.314L247.338 151.867C247.683 152.266 248.076 152.569 248.517 152.776C248.971 152.969 249.481 153.066 250.046 153.066C250.556 153.066 250.942 152.99 251.204 152.838C251.465 152.687 251.596 152.466 251.596 152.177C251.596 151.874 251.472 151.639 251.224 151.474C250.976 151.309 250.652 151.171 250.253 151.061C249.867 150.937 249.454 150.813 249.013 150.689C248.585 150.565 248.172 150.399 247.772 150.192C247.387 149.972 247.07 149.676 246.822 149.304C246.574 148.932 246.45 148.449 246.45 147.857C246.45 147.223 246.594 146.679 246.884 146.224C247.187 145.769 247.607 145.418 248.144 145.17C248.696 144.922 249.35 144.798 250.108 144.798C250.907 144.798 251.61 144.942 252.216 145.232C252.836 145.507 253.353 145.928 253.767 146.493L252.32 147.94C252.03 147.581 251.7 147.313 251.328 147.133C250.956 146.954 250.528 146.865 250.046 146.865C249.591 146.865 249.24 146.934 248.992 147.071C248.744 147.209 248.62 147.409 248.62 147.671C248.62 147.946 248.744 148.16 248.992 148.312C249.24 148.463 249.557 148.594 249.943 148.704C250.342 148.815 250.756 148.939 251.183 149.076C251.624 149.2 252.037 149.379 252.423 149.614C252.823 149.834 253.146 150.137 253.394 150.523C253.643 150.895 253.767 151.384 253.767 151.991C253.767 152.955 253.429 153.72 252.754 154.285C252.079 154.85 251.162 155.132 250.005 155.132Z" fill="#5D6164"/>
<path d="M271.775 143.825L275.785 147.835L279.794 143.825C280.197 143.422 280.849 143.422 281.252 143.825C281.655 144.228 281.655 144.879 281.252 145.282L276.508 150.026C276.105 150.429 275.454 150.429 275.051 150.026L270.307 145.282C269.904 144.879 269.904 144.228 270.307 143.825C270.71 143.433 271.372 143.422 271.775 143.825Z" fill="#5D6164"/>
<path d="M48.5819 471.15C47.2756 471.15 46.1016 470.853 45.0599 470.257C44.0181 469.662 43.1914 468.852 42.5795 467.827C41.9843 466.785 41.6866 465.611 41.6866 464.305V453.54H44.539V464.28C44.539 465.123 44.7126 465.859 45.0599 466.487C45.4237 467.099 45.9115 467.579 46.5233 467.926C47.1351 468.257 47.8213 468.422 48.5819 468.422C49.3591 468.422 50.0453 468.257 50.6406 467.926C51.2359 467.579 51.7072 467.099 52.0544 466.487C52.4016 465.859 52.5753 465.131 52.5753 464.305V453.54H55.4276V464.329C55.4276 465.636 55.13 466.802 54.5347 467.827C53.9394 468.852 53.1292 469.662 52.104 470.257C51.0788 470.853 49.9048 471.15 48.5819 471.15ZM66.7982 470.902V464.032C66.7982 463.238 66.5419 462.585 66.0293 462.072C65.5332 461.56 64.8884 461.303 64.0946 461.303C63.5655 461.303 63.0942 461.419 62.6809 461.651C62.2675 461.882 61.945 462.205 61.7135 462.618C61.482 463.031 61.3663 463.503 61.3663 464.032L60.2997 463.437C60.2997 462.527 60.4982 461.725 60.895 461.031C61.2919 460.32 61.8376 459.766 62.532 459.369C63.2431 458.955 64.0368 458.749 64.9132 458.749C65.8061 458.749 66.5998 458.98 67.2943 459.443C67.9888 459.89 68.5344 460.477 68.9313 461.204C69.3281 461.915 69.5266 462.659 69.5266 463.437V470.902H66.7982ZM58.6379 470.902V458.997H61.3663V470.902H58.6379ZM72.2991 470.902V453.044H75.0275V470.902H72.2991ZM78.0887 470.902V458.997H80.8171V470.902H78.0887ZM79.4529 456.814C78.9899 456.814 78.6013 456.657 78.2872 456.343C77.9895 456.029 77.8407 455.64 77.8407 455.177C77.8407 454.714 77.9895 454.325 78.2872 454.011C78.6013 453.697 78.9899 453.54 79.4529 453.54C79.9325 453.54 80.321 453.697 80.6187 454.011C80.9163 454.325 81.0651 454.714 81.0651 455.177C81.0651 455.64 80.9163 456.029 80.6187 456.343C80.321 456.657 79.9325 456.814 79.4529 456.814ZM83.8772 470.902V458.997H86.6056V470.902H83.8772ZM91.7895 470.902V463.809C91.7895 463.015 91.5414 462.403 91.0454 461.973C90.5493 461.527 89.9375 461.303 89.2099 461.303C88.7138 461.303 88.2674 461.403 87.8705 461.601C87.4902 461.8 87.1843 462.089 86.9528 462.469C86.7213 462.833 86.6056 463.279 86.6056 463.809L85.539 463.213C85.539 462.304 85.7375 461.518 86.1343 460.857C86.5312 460.196 87.0686 459.683 87.7465 459.319C88.4245 458.939 89.1851 458.749 90.0284 458.749C90.8717 458.749 91.6324 458.931 92.3103 459.294C92.9883 459.658 93.5257 460.171 93.9225 460.832C94.3194 461.494 94.5178 462.287 94.5178 463.213V470.902H91.7895ZM99.7017 470.902V463.809C99.7017 463.015 99.4537 462.403 98.9576 461.973C98.4615 461.527 97.8497 461.303 97.1222 461.303C96.6426 461.303 96.2044 461.403 95.8076 461.601C95.4107 461.8 95.0966 462.089 94.8651 462.469C94.6336 462.833 94.5178 463.279 94.5178 463.809L92.98 463.213C93.0627 462.304 93.3273 461.518 93.7737 460.857C94.2202 460.196 94.7907 459.683 95.4851 459.319C96.1962 458.939 96.9733 458.749 97.8167 458.749C98.6765 458.749 99.4537 458.931 100.148 459.294C100.843 459.658 101.397 460.171 101.81 460.832C102.223 461.494 102.43 462.287 102.43 463.213V470.902H99.7017ZM105.266 470.902V458.997H107.994V470.902H105.266ZM106.63 456.814C106.167 456.814 105.778 456.657 105.464 456.343C105.167 456.029 105.018 455.64 105.018 455.177C105.018 454.714 105.167 454.325 105.464 454.011C105.778 453.697 106.167 453.54 106.63 453.54C107.109 453.54 107.498 453.697 107.796 454.011C108.093 454.325 108.242 454.714 108.242 455.177C108.242 455.64 108.093 456.029 107.796 456.343C107.498 456.657 107.109 456.814 106.63 456.814ZM112.865 470.902V454.036H115.593V470.902H112.865ZM110.013 461.477V458.997H118.446V461.477H110.013ZM125.62 471.15C124.43 471.15 123.355 470.886 122.396 470.357C121.453 469.811 120.701 469.067 120.139 468.124C119.593 467.182 119.32 466.124 119.32 464.95C119.32 463.776 119.593 462.726 120.139 461.8C120.684 460.857 121.42 460.113 122.346 459.567C123.289 459.022 124.33 458.749 125.471 458.749C126.579 458.749 127.555 459.005 128.398 459.518C129.258 460.03 129.928 460.733 130.407 461.626C130.903 462.519 131.151 463.536 131.151 464.677C131.151 464.875 131.135 465.082 131.102 465.297C131.085 465.495 131.052 465.718 131.002 465.966H121.23V463.734H129.589L128.572 464.627C128.539 463.9 128.398 463.288 128.15 462.792C127.902 462.296 127.547 461.915 127.084 461.651C126.637 461.386 126.083 461.254 125.422 461.254C124.727 461.254 124.124 461.403 123.611 461.7C123.099 461.998 122.702 462.42 122.421 462.965C122.139 463.494 121.999 464.131 121.999 464.875C121.999 465.619 122.148 466.272 122.445 466.835C122.743 467.397 123.165 467.835 123.71 468.149C124.256 468.447 124.884 468.596 125.595 468.596C126.207 468.596 126.769 468.488 127.282 468.273C127.811 468.058 128.258 467.744 128.621 467.331L130.358 469.092C129.779 469.77 129.076 470.282 128.249 470.63C127.423 470.977 126.546 471.15 125.62 471.15ZM138.324 471.15C137.249 471.15 136.274 470.878 135.397 470.332C134.537 469.786 133.851 469.05 133.338 468.124C132.842 467.182 132.594 466.132 132.594 464.974C132.594 463.8 132.842 462.75 133.338 461.824C133.851 460.882 134.537 460.138 135.397 459.592C136.274 459.03 137.249 458.749 138.324 458.749C139.233 458.749 140.035 458.947 140.73 459.344C141.441 459.724 142.003 460.253 142.416 460.931C142.83 461.609 143.037 462.378 143.037 463.238V466.661C143.037 467.521 142.83 468.29 142.416 468.968C142.02 469.646 141.466 470.183 140.755 470.58C140.044 470.96 139.233 471.15 138.324 471.15ZM138.77 468.571C139.448 468.571 140.035 468.422 140.531 468.124C141.044 467.81 141.441 467.38 141.722 466.835C142.003 466.289 142.144 465.661 142.144 464.95C142.144 464.239 142.003 463.61 141.722 463.065C141.441 462.519 141.044 462.097 140.531 461.8C140.035 461.485 139.448 461.328 138.77 461.328C138.109 461.328 137.522 461.485 137.009 461.8C136.513 462.097 136.116 462.519 135.819 463.065C135.538 463.61 135.397 464.239 135.397 464.95C135.397 465.661 135.538 466.289 135.819 466.835C136.116 467.38 136.513 467.81 137.009 468.124C137.522 468.422 138.109 468.571 138.77 468.571ZM144.698 470.902H141.97V467.703L142.441 464.801L141.97 461.924V453.044H144.698V470.902ZM159.761 471.15C158.454 471.15 157.28 470.853 156.239 470.257C155.197 469.662 154.37 468.852 153.758 467.827C153.163 466.785 152.865 465.611 152.865 464.305V453.54H155.718V464.28C155.718 465.123 155.891 465.859 156.239 466.487C156.602 467.099 157.09 467.579 157.702 467.926C158.314 468.257 159 468.422 159.761 468.422C160.538 468.422 161.224 468.257 161.819 467.926C162.415 467.579 162.886 467.099 163.233 466.487C163.58 465.859 163.754 465.131 163.754 464.305V453.54H166.606V464.329C166.606 465.636 166.309 466.802 165.714 467.827C165.118 468.852 164.308 469.662 163.283 470.257C162.258 470.853 161.084 471.15 159.761 471.15ZM173.711 471.15C173.049 471.15 172.413 471.068 171.801 470.902C171.189 470.72 170.627 470.472 170.114 470.158C169.602 469.828 169.155 469.431 168.775 468.968L170.511 467.231C170.925 467.711 171.396 468.075 171.925 468.323C172.471 468.554 173.082 468.67 173.76 468.67C174.372 468.67 174.835 468.579 175.149 468.397C175.464 468.215 175.621 467.951 175.621 467.604C175.621 467.24 175.472 466.959 175.174 466.76C174.877 466.562 174.488 466.396 174.008 466.264C173.545 466.115 173.049 465.966 172.52 465.818C172.008 465.669 171.512 465.47 171.032 465.222C170.569 464.958 170.189 464.602 169.891 464.156C169.593 463.709 169.445 463.131 169.445 462.42C169.445 461.659 169.618 461.006 169.966 460.46C170.329 459.914 170.834 459.493 171.479 459.195C172.14 458.898 172.925 458.749 173.835 458.749C174.794 458.749 175.637 458.922 176.365 459.27C177.109 459.6 177.729 460.105 178.225 460.783L176.489 462.519C176.142 462.089 175.745 461.766 175.298 461.552C174.852 461.337 174.339 461.229 173.76 461.229C173.215 461.229 172.793 461.312 172.495 461.477C172.198 461.642 172.049 461.882 172.049 462.196C172.049 462.527 172.198 462.783 172.495 462.965C172.793 463.147 173.173 463.304 173.636 463.437C174.116 463.569 174.612 463.718 175.125 463.883C175.654 464.032 176.15 464.247 176.613 464.528C177.092 464.792 177.481 465.156 177.779 465.619C178.076 466.066 178.225 466.653 178.225 467.38C178.225 468.538 177.82 469.455 177.01 470.133C176.199 470.811 175.1 471.15 173.711 471.15ZM186.006 471.15C184.815 471.15 183.74 470.886 182.781 470.357C181.839 469.811 181.086 469.067 180.524 468.124C179.978 467.182 179.705 466.124 179.705 464.95C179.705 463.776 179.978 462.726 180.524 461.8C181.07 460.857 181.805 460.113 182.731 459.567C183.674 459.022 184.716 458.749 185.857 458.749C186.965 458.749 187.94 459.005 188.783 459.518C189.643 460.03 190.313 460.733 190.793 461.626C191.289 462.519 191.537 463.536 191.537 464.677C191.537 464.875 191.52 465.082 191.487 465.297C191.471 465.495 191.437 465.718 191.388 465.966H181.615V463.734H189.974L188.957 464.627C188.924 463.9 188.783 463.288 188.535 462.792C188.287 462.296 187.932 461.915 187.469 461.651C187.022 461.386 186.469 461.254 185.807 461.254C185.113 461.254 184.509 461.403 183.996 461.7C183.484 461.998 183.087 462.42 182.806 462.965C182.525 463.494 182.384 464.131 182.384 464.875C182.384 465.619 182.533 466.272 182.831 466.835C183.128 467.397 183.55 467.835 184.096 468.149C184.641 468.447 185.27 468.596 185.981 468.596C186.593 468.596 187.155 468.488 187.667 468.273C188.196 468.058 188.643 467.744 189.007 467.331L190.743 469.092C190.164 469.77 189.461 470.282 188.635 470.63C187.808 470.977 186.932 471.15 186.006 471.15ZM193.724 470.902V458.997H196.452V470.902H193.724ZM196.452 464.28L195.51 463.809C195.51 462.304 195.84 461.089 196.502 460.163C197.18 459.22 198.197 458.749 199.553 458.749C200.148 458.749 200.685 458.856 201.165 459.071C201.644 459.286 202.091 459.633 202.504 460.113L200.718 461.948C200.503 461.717 200.264 461.552 199.999 461.452C199.734 461.353 199.429 461.303 199.081 461.303C198.321 461.303 197.692 461.543 197.196 462.023C196.7 462.502 196.452 463.255 196.452 464.28ZM207.452 471.15C206.791 471.15 206.154 471.068 205.542 470.902C204.93 470.72 204.368 470.472 203.856 470.158C203.343 469.828 202.896 469.431 202.516 468.968L204.252 467.231C204.666 467.711 205.137 468.075 205.666 468.323C206.212 468.554 206.824 468.67 207.502 468.67C208.113 468.67 208.576 468.579 208.891 468.397C209.205 468.215 209.362 467.951 209.362 467.604C209.362 467.24 209.213 466.959 208.915 466.76C208.618 466.562 208.229 466.396 207.75 466.264C207.287 466.115 206.791 465.966 206.261 465.818C205.749 465.669 205.253 465.47 204.773 465.222C204.31 464.958 203.93 464.602 203.632 464.156C203.335 463.709 203.186 463.131 203.186 462.42C203.186 461.659 203.359 461.006 203.707 460.46C204.071 459.914 204.575 459.493 205.22 459.195C205.881 458.898 206.667 458.749 207.576 458.749C208.535 458.749 209.378 458.922 210.106 459.27C210.85 459.6 211.47 460.105 211.966 460.783L210.23 462.519C209.883 462.089 209.486 461.766 209.039 461.552C208.593 461.337 208.08 461.229 207.502 461.229C206.956 461.229 206.534 461.312 206.237 461.477C205.939 461.642 205.79 461.882 205.79 462.196C205.79 462.527 205.939 462.783 206.237 462.965C206.534 463.147 206.915 463.304 207.378 463.437C207.857 463.569 208.353 463.718 208.866 463.883C209.395 464.032 209.891 464.247 210.354 464.528C210.834 464.792 211.222 465.156 211.52 465.619C211.817 466.066 211.966 466.653 211.966 467.38C211.966 468.538 211.561 469.455 210.751 470.133C209.941 470.811 208.841 471.15 207.452 471.15Z" fill="#1A237E"/>
<path d="M158.652 445.443C158.413 445.958 158.638 446.58 159.154 446.833C159.67 447.087 160.281 446.875 160.52 446.361L159.586 445.902L158.652 445.443ZM272.066 377.884C272.458 377.479 272.442 376.821 272.03 376.416L265.321 369.81C264.909 369.405 264.258 369.405 263.866 369.81C263.474 370.215 263.49 370.873 263.902 371.278L269.866 377.15L264.189 383.022C263.797 383.427 263.813 384.084 264.224 384.49C264.636 384.895 265.288 384.895 265.68 384.49L272.066 377.884ZM159.586 445.902L160.52 446.361C176.79 411.298 221.123 378.188 271.346 378.188L271.321 377.15L271.295 376.112C220.254 376.112 175.236 409.702 158.652 445.443L159.586 445.902Z" fill="#1A237E"/>
</svg>
