<svg width="52" height="61" viewBox="0 0 52 61" fill="none" xmlns="http://www.w3.org/2000/svg">
<path d="M3.81899 19.7852C2.83805 19.7852 1.89729 20.1748 1.20367 20.8685C0.510038 21.5621 0.120362 22.5028 0.120362 23.4838V39.1002C0.119882 39.719 0.269133 40.3288 0.555378 40.8774C0.841623 41.4261 1.25636 41.8973 1.7642 42.2509C2.37735 42.6385 3.09424 42.8297 3.81899 42.7988C4.40476 42.8043 4.98344 42.6705 5.50739 42.4085C6.03135 42.1466 6.48558 41.7639 6.83269 41.292L7.10666 40.881L7.51762 39.9221V23.4838C7.51762 22.5028 7.12794 21.5621 6.43432 20.8685C5.74069 20.1748 4.79993 19.7852 3.81899 19.7852Z" fill="white"/>
<path d="M33.8189 5.81246L36.4217 1.15493C36.4217 1.01794 36.5587 1.01794 36.5587 0.880953C36.5213 0.675974 36.4263 0.485897 36.2847 0.333008H35.5998L32.86 5.12753C32.1413 4.71189 31.3517 4.4332 30.5313 4.30561C28.9255 3.85768 27.2668 3.62732 25.5998 3.62068H23.134C21.4791 3.84839 19.8649 4.3096 18.3395 4.99054L15.7368 0.60698C15.673 0.521915 15.5902 0.452871 15.4951 0.405318C15.4 0.357765 15.2951 0.333008 15.1888 0.333008H14.9148C14.8653 0.388602 14.8276 0.453717 14.804 0.524376C14.7805 0.595034 14.7716 0.669752 14.7779 0.743966V1.01794L17.3806 5.81246C14.9529 7.05619 12.8794 8.89406 11.3532 11.1549L10.6683 12.2508L9.84635 14.1686C9.18782 15.7281 8.86125 17.4075 8.88745 19.1001H42.3121C42.2466 16.3205 41.4202 13.6119 39.9228 11.2692C38.4253 8.92642 36.3142 7.03909 33.8189 5.81246ZM18.0655 13.2097C17.8676 13.2097 17.6717 13.1707 17.4889 13.095C17.3061 13.0193 17.1399 12.9083 17 12.7684C16.8601 12.6284 16.7491 12.4623 16.6734 12.2795C16.5977 12.0967 16.5587 11.9007 16.5587 11.7029C16.5929 11.3274 16.7667 10.9785 17.0457 10.7249C17.3246 10.4713 17.6885 10.3314 18.0655 10.333C18.4185 10.3639 18.7492 10.5181 18.9998 10.7686C19.2503 11.0191 19.4045 11.3499 19.4354 11.7029C19.4369 12.0799 19.2971 12.4438 19.0435 12.7227C18.7899 13.0017 18.441 13.1754 18.0655 13.2097ZM33.271 13.2097C33.079 13.2107 32.8889 13.1713 32.7131 13.094C32.5373 13.0168 32.3797 12.9034 32.2505 12.7613C32.1213 12.6193 32.0235 12.4516 31.9633 12.2692C31.9031 12.0869 31.8819 11.8939 31.9011 11.7029C31.9011 11.3396 32.0455 10.9911 32.3024 10.7342C32.5593 10.4773 32.9077 10.333 33.271 10.333C33.6343 10.333 33.9827 10.4773 34.2396 10.7342C34.4965 10.9911 34.6409 11.3396 34.6409 11.7029C34.6601 11.8939 34.6389 12.0869 34.5787 12.2692C34.5185 12.4516 34.4207 12.6193 34.2915 12.7613C34.1623 12.9034 34.0047 13.0168 33.8289 13.094C33.6531 13.1713 33.463 13.2107 33.271 13.2097Z" fill="white"/>
<path d="M9.02441 20.6074V44.717C9.02441 45.7706 9.44295 46.781 10.188 47.5261C10.933 48.2711 11.9434 48.6896 12.997 48.6896H15.7367V56.9088C15.709 57.6351 15.9041 58.3524 16.2959 58.9646C16.6877 59.5768 17.2574 60.0544 17.9285 60.3334H19.4354L20.8052 60.0595C21.4908 59.7861 22.0789 59.3139 22.4939 58.7036C22.9089 58.0933 23.1318 57.3728 23.134 56.6348V48.4156H28.2025V56.6348C28.2025 57.1205 28.2982 57.6015 28.484 58.0502C28.6699 58.4989 28.9423 58.9067 29.2858 59.2501C29.6292 59.5936 30.037 59.866 30.4857 60.0519C30.9345 60.2378 31.4154 60.3334 31.9011 60.3334C32.3868 60.3334 32.8678 60.2378 33.3165 60.0519C33.7653 59.866 34.173 59.5936 34.5164 59.2501C34.8599 58.9067 35.1323 58.4989 35.3182 58.0502C35.5041 57.6015 35.5997 57.1205 35.5997 56.6348V48.4156H38.3395C39.1742 48.3497 39.9771 48.0663 40.6682 47.5937C41.168 47.2322 41.5768 46.7593 41.8621 46.2124C42.1474 45.6656 42.3015 45.0598 42.3121 44.443V20.6074H9.02441Z" fill="white"/>
<path d="M51.0793 23.4835C51.0949 22.6464 50.8151 21.8306 50.289 21.1792C49.7629 20.5279 49.0242 20.0827 48.2026 19.9219H47.3806C46.3997 19.9219 45.4589 20.3116 44.7653 21.0052C44.0717 21.6988 43.682 22.6396 43.682 23.6205V39.0999C43.682 40.0809 44.0717 41.0216 44.7653 41.7153C45.4589 42.4089 46.3997 42.7986 47.3806 42.7986C48.3616 42.7986 49.3023 42.4089 49.996 41.7153C50.6896 41.0216 51.0793 40.0809 51.0793 39.0999V23.4835Z" fill="white"/>
</svg>
