<svg width="122" height="61" viewBox="0 0 122 61" fill="none" xmlns="http://www.w3.org/2000/svg">
<path d="M5.84167 0.333008C2.74585 0.333008 0.29541 2.75319 0.29541 5.77842C0.295286 6.50209 0.439407 7.21852 0.719349 7.88585C0.999291 8.55318 1.40944 9.15802 1.92582 9.66501C2.44221 10.172 3.05446 10.571 3.72682 10.8386C4.39917 11.1063 5.11812 11.2372 5.84167 11.2238C8.96774 11.2238 11.4383 8.80366 11.4383 5.77842C11.4383 2.75319 8.96774 0.333008 5.84167 0.333008ZM44.2117 0.433849C27.2704 0.433849 16.6821 11.9801 16.6821 30.3332C16.6821 48.8376 27.2704 60.3334 44.2117 60.3334C61.0521 60.3334 71.6909 48.8376 71.6909 30.3332C71.6909 11.9801 61.0521 0.433849 44.2117 0.433849ZM98.8675 0.433849C86.2624 0.433849 77.2876 7.39188 77.2876 17.7281C77.2876 25.9466 82.38 31.0895 93.0692 33.5601L100.582 35.3753C107.893 37.0391 110.868 39.4593 110.868 43.6442C110.868 48.4846 105.977 51.9132 99.0188 51.9132C91.9095 51.9132 86.5649 48.4342 86.0103 43.0896H75.9262C76.3296 53.7788 85.1027 60.3334 98.4137 60.3334C112.481 60.3334 121.305 53.4258 121.305 42.4341C121.305 33.8122 116.263 28.9214 104.565 26.2492L97.8591 24.7365C90.7498 23.0222 87.8254 20.7533 87.8254 16.9214C87.8254 12.081 92.2625 8.85407 98.8171 8.85407C105.422 8.85407 109.96 12.1314 110.464 17.5264H120.347C120.095 7.34146 111.674 0.433849 98.8675 0.433849ZM44.2117 9.25744C54.4975 9.25744 61.1026 17.476 61.1026 30.3332C61.1026 43.2913 54.4975 51.5098 44.2117 51.5098C33.8251 51.5098 27.2704 43.2913 27.2704 30.3332C27.2704 17.476 33.8251 9.25744 44.2117 9.25744ZM0.855078 16.7701V59.3754H10.8837V16.7701H0.850036H0.855078Z" fill="white"/>
</svg>
