<svg width="50" height="61" viewBox="0 0 50 61" fill="none" xmlns="http://www.w3.org/2000/svg">
<path d="M35.4454 6.86132C36.111 5.01904 36.5263 3.43115 36.5263 1.92358C36.5263 1.67187 36.4437 1.50586 36.4437 1.25415C36.4437 1.00244 36.3612 0.667725 36.276 0.333008C32.1149 1.25415 29.205 3.09375 27.3734 5.77149C25.5418 8.36621 24.6286 11.4617 24.5434 15.0605C26.0423 14.8919 27.2882 14.6428 28.204 14.3911C29.4526 13.9734 30.7838 13.1353 32.1149 11.8794C33.6138 10.3718 34.7772 8.53223 35.4427 6.85865L35.4454 6.86132ZM30.7012 15.2292C28.204 16.0674 26.4576 16.4021 25.5418 16.4021C24.7937 16.4021 23.2123 16.0674 20.6326 15.3979C18.1353 14.6455 16.0561 14.2251 14.2271 14.2251C10.1512 14.2251 6.73819 15.9817 3.9934 19.4976C1.33113 23.0134 0 27.4477 0 32.9692C0 38.9111 1.74645 44.936 5.242 51.127C8.82008 57.3206 12.4807 60.333 16.0588 60.333C17.2249 60.333 18.721 59.9153 20.8003 59.1602C22.7144 58.4077 24.3784 57.9873 25.8746 57.9873C27.3707 57.9873 29.2024 58.322 31.2816 59.0745C33.446 59.8269 35.11 60.1616 36.3559 60.1616C39.4335 60.1616 42.5137 57.8186 45.5913 53.2156C46.5896 51.708 47.5055 50.1201 48.2536 48.6126C48.9191 47.1907 49.5022 45.6831 50 44.2612C47.753 43.5918 45.8389 42.0012 44.2602 39.6582C42.6788 37.2322 41.8481 34.5545 41.8481 31.625C41.8481 28.8643 42.5962 26.4356 44.0951 24.1782C45.0109 23.0054 46.4246 21.5005 48.2562 19.9099C47.6732 19.1575 47.0076 18.4024 46.4246 17.8186C45.759 17.2322 45.176 16.7315 44.5929 16.3111C42.2635 14.8035 39.6837 13.968 36.8564 13.968C35.1925 13.968 33.1133 14.4714 30.6986 15.2239L30.7012 15.2292Z" fill="white"/>
</svg>
