<svg width="61" height="61" viewBox="0 0 61 61" fill="none" xmlns="http://www.w3.org/2000/svg">
<path fill-rule="evenodd" clip-rule="evenodd" d="M51.013 48.1983C49.2412 47.3842 47.185 46.6749 44.9082 46.0953C44.2624 47.9554 43.5089 49.6776 42.6589 51.2314C41.6073 53.1551 40.4096 54.8248 39.0958 56.1937C43.1308 54.8385 46.7433 52.5644 49.6881 49.6196C50.1435 49.1642 50.588 48.6896 51.013 48.1983ZM21.7061 56.1934C20.3897 54.8273 19.1919 53.1548 18.1431 51.2312C17.2931 49.6774 16.5396 47.9552 15.8938 46.0951C13.6169 46.6746 11.5608 47.3839 9.78894 48.1981C10.214 48.6866 10.6556 49.1613 11.1137 49.6195C14.0557 52.5643 17.6685 54.8383 21.7061 56.1934ZM8.07504 46.0067C10.0925 45.0242 12.4577 44.1769 15.0879 43.5007C14.1027 39.9101 13.5092 35.914 13.4044 31.6939H3.15688C3.41906 37.0066 5.19924 41.9194 8.07504 46.0067ZM0.399994 30.333C0.399994 22.0504 3.75877 14.5491 9.18782 9.12084C14.6165 3.69214 22.1152 0.333008 30.4 0.333008C38.6848 0.333008 46.1839 3.69178 51.6122 9.12084C57.0409 14.5495 60.4 22.0511 60.4 30.333C60.4 38.6185 57.0412 46.1169 51.6122 51.5452C46.1835 56.9739 38.6848 60.333 30.4 60.333C22.1152 60.333 14.6161 56.9742 9.18782 51.5452C3.75912 46.1165 0.399994 38.6178 0.399994 30.333ZM3.15709 28.9696H13.4046C13.5095 24.7497 14.1056 20.7534 15.0881 17.1628C12.4579 16.4866 10.09 15.6394 8.07525 14.6568C5.19946 18.747 3.41928 23.6593 3.15709 28.9696ZM9.78908 12.4686C11.5609 13.2827 13.6171 13.992 15.8939 14.5717C16.5397 12.7115 17.2932 10.9893 18.1432 9.43553C19.1948 7.51185 20.3926 5.84218 21.7063 4.47328C17.6714 5.8284 14.0588 8.10251 11.114 11.0473C10.6558 11.5027 10.2141 11.9773 9.78908 12.4686ZM39.0939 4.47349C40.4103 5.84239 41.6081 7.51214 42.6569 9.43574C43.5069 10.9895 44.2604 12.7117 44.9062 14.5719C47.1831 13.9923 49.2392 13.283 51.0083 12.4688C50.5833 11.9803 50.1417 11.5056 49.6835 11.0475C46.7442 8.10266 43.1314 5.82862 39.0939 4.47349ZM52.725 14.6574C50.7075 15.6399 48.3423 16.4872 45.7121 17.1634C46.6973 20.754 47.2907 24.7501 47.3956 28.9703H57.6431C57.3809 23.6603 55.6007 18.7447 52.725 14.6574ZM57.643 31.694H47.3955C47.2906 35.9139 46.6945 39.9131 45.712 43.5008C48.3422 44.177 50.7074 45.0271 52.7249 46.0068C55.6007 41.9194 57.3808 37.0071 57.643 31.694ZM31.7607 3.18407V16.2408C35.5059 16.1662 39.0443 15.7881 42.24 15.1644C41.6687 13.561 41.009 12.0761 40.275 10.7293C37.998 6.56468 35.0203 3.79423 31.7607 3.18407ZM31.7607 18.9651V28.9696H44.6711C44.5663 24.9457 43.9977 21.154 43.0622 17.7697C39.604 18.4652 35.7816 18.8878 31.7607 18.9651ZM31.7607 31.694V41.6985C35.7819 41.7757 39.6018 42.198 43.0595 42.8935C43.9951 39.5099 44.5637 35.718 44.6685 31.6936L31.7602 31.6963L31.7607 31.694ZM31.7607 44.4229C35.5059 44.4974 39.0443 44.8755 42.24 45.4992C41.6687 47.1027 41.009 48.5875 40.275 49.9343C37.998 54.1017 35.0201 56.8726 31.7606 57.4829L31.7607 44.4229ZM29.0394 57.4824C25.78 56.8724 22.8021 54.1015 20.525 49.9338C19.7909 48.5898 19.1313 47.1022 18.56 45.4987C21.7559 44.875 25.2969 44.4968 29.0393 44.4224L29.0365 57.4819L29.0394 57.4824ZM29.0394 41.6985V31.694H16.129C16.2339 35.7179 16.8024 39.5125 17.738 42.8939C21.1961 42.1984 25.0186 41.7785 29.0394 41.6985ZM29.0394 28.9696V18.9651C25.021 18.8879 21.1984 18.4656 17.7406 17.7701C16.805 21.1538 16.2365 24.9456 16.1316 28.97L29.0394 28.9696ZM29.0394 16.2408V3.18407C25.78 3.79401 22.8021 6.56496 20.525 10.7326C19.7909 12.0767 19.1313 13.5643 18.56 15.1678C21.7532 15.7915 25.2943 16.1663 29.0394 16.2408Z" fill="white"/>
</svg>
