<svg width="61" height="61" viewBox="0 0 61 61" fill="none" xmlns="http://www.w3.org/2000/svg">
<path fill-rule="evenodd" clip-rule="evenodd" d="M27.6376 31.6353C27.6526 37.632 27.6707 47.8206 27.6857 55.7393C38.5278 57.2054 49.3699 58.7169 60.194 60.333C60.194 50.8792 60.206 41.4667 60.194 32.4717C49.3428 32.4717 38.4947 31.6353 27.6376 31.6353ZM0.199982 31.6382V51.998C8.37743 53.1014 16.5549 54.156 24.7173 55.3613C24.7323 47.4847 24.7113 39.6057 24.7113 31.729C16.5398 31.744 8.37141 31.6112 0.199982 31.6382ZM0.199982 8.86279V29.1655C8.37743 29.1865 16.5549 29.0628 24.7323 29.0718C24.7263 21.2131 24.7263 13.3641 24.7173 5.50537C16.5338 6.5278 8.35036 7.60948 0.199982 8.86279ZM60.2 28.748C49.3639 28.79 38.5278 28.9553 27.6857 28.9883C27.6797 21.0007 27.6797 13.0226 27.6857 5.04102C38.5067 3.38892 49.3519 1.83517 60.194 0.333008C60.2 9.80779 60.194 19.2733 60.2 28.748Z" fill="white"/>
</svg>
